<svg xmlns="http://www.w3.org/2000/svg" width="1500" height="145" xmlns:v="https://vecta.io/nano"><style><![CDATA[.B{fill-rule:evenodd}.C{fill:none}.D{fill:#869d33}.E{clip-rule:evenodd}.F{opacity:.5}.G{opacity:.07}.H{fill:#bfcd53}.I{fill:#f0be5b}.J{fill:#507944}.K{fill:#f8d680}.L{fill:#fff}.M{fill:#adbd3e}.N{opacity:.75}.O{stroke-linejoin:round}.P{fill:#faf1e2}.Q{fill:#69d4c6}.R{fill:#dde6fd}.S{fill:#b8cefc}.T{fill:#d8df62}.U{stroke-linecap:round}]]></style><defs><clipPath id="A"><path d="M0 0h1500v145H0z" class="C"/></clipPath><clipPath id="B"><path d="M-59.616 599.557h503.815c28.921 0 52.366 23.445 52.366 52.366h0c0 28.921 23.445 52.366 52.366 52.366H708.6c33.349 0 60.383 27.034 60.383 60.383h0c0 33.349 27.034 60.383 60.383 60.383h48.709c39.629 0 71.754 32.125 71.754 71.754v26.062c0 39.629-32.125 71.754-71.754 71.754h-311.56c-21.993 0-39.823-17.829-39.823-39.823h0c0-21.994-17.829-39.823-39.823-39.823H252.034a19.53 19.53 0 0 1-19.526-19.526h0a19.53 19.53 0 0 0-19.526-19.526H-59.616a19.53 19.53 0 0 1-19.526-19.526V619.084a19.53 19.53 0 0 1 19.526-19.526z" class="C"/></clipPath><clipPath id="C"><path d="M751.61 100.24l-54.379 39.046v51.06l54.379-39.043V100.24z" class="C E"/></clipPath><clipPath id="D"><path d="M751.61 100.24l54.371 39.046v51.06l-54.371-39.043V100.24z" class="C E"/></clipPath><clipPath id="E"><path d="M254.849 48.287l-42.871 32.295c-8 6.027-11.6 16.268-9.129 25.974l8.519 33.468h86.963l8.519-33.468c2.471-9.707-1.129-19.948-9.129-25.974L254.85 48.287z" class="C E"/></clipPath><clipPath id="F"><path d="M254.849 48.287l-49.475 37.269a12.42 12.42 0 0 0-4.564 12.987l10.558 41.481h86.963l10.558-41.481c1.235-4.853-.564-9.974-4.564-12.987L254.85 48.287z" class="C E"/></clipPath><clipPath id="G"><path d="M231.438 100.922h46.821v39.102h-46.821z" class="C"/></clipPath><clipPath id="H"><path d="M270.378 117.983a2.56 2.56 0 0 1-.696 1.761 2.32 2.32 0 0 1-1.68.73h-26.309a2.31 2.31 0 0 1-1.677-.73c-.447-.467-.696-1.101-.696-1.761v-17.06h31.058v17.06z" class="C E"/></clipPath><clipPath id="I"><path d="M755.883-71.873h-46.689v40.851h13.364a7.75 7.75 0 0 1 4.43 1.39l6.479 4.516a7.75 7.75 0 0 0 4.421 1.39h17.997v-48.146z" class="C E"/></clipPath><clipPath id="J"><path d="M738.376-57.284c0-1.548-.609-3.032-1.707-4.125a5.83 5.83 0 0 0-4.125-1.709h0a5.82 5.82 0 0 0-4.125 1.709c-1.098 1.094-1.717 2.578-1.717 4.125v30.64a5.82 5.82 0 0 0 5.842 5.834h0c1.551 0 3.027-.615 4.125-1.708a5.82 5.82 0 0 0 1.707-4.126v-30.64z" class="C E"/></clipPath><clipPath id="K"><path d="M1083.769 159.008c0 6.849 2.72 13.42 7.565 18.264a25.83 25.83 0 0 0 18.267 7.565h25.981v-17.076a25.83 25.83 0 0 0-7.565-18.267c-4.845-4.841-11.415-7.565-18.267-7.565h-25.981v17.079z" class="C E"/></clipPath><clipPath id="L"><path d="M1083.769 159.008c0 6.849-2.72 13.42-7.565 18.264a25.83 25.83 0 0 1-18.267 7.565h-25.981v-17.076a25.83 25.83 0 0 1 7.565-18.267c4.845-4.841 11.415-7.565 18.267-7.565h25.981v17.079z" class="C E"/></clipPath><clipPath id="M"><path d="M1083.783 184.836l-15.518-11.309c-8.571-6.246-9.54-18.671-2.041-26.17l5.428-5.428h24.261l5.428 5.428c7.5 7.5 6.531 19.924-2.041 26.17l-15.518 11.309z" class="C E"/></clipPath><clipPath id="N"><path d="M852.854 51.977H833.5l-5.245 47.9c-.291 2.655 1.788 4.974 4.459 4.974h21.021c2.674 0 4.754-2.325 4.458-4.982l-5.339-47.891z" class="C"/></clipPath><clipPath id="O"><path d="M843.225 50.237c0 6.849 2.72 13.42 7.565 18.264a25.83 25.83 0 0 0 18.267 7.565h25.981V58.99a25.83 25.83 0 0 0-7.565-18.267c-4.845-4.841-11.415-7.565-18.267-7.565h-25.981v17.079z" class="C E"/></clipPath><clipPath id="P"><path d="M843.225 50.237c0 6.849-2.72 13.42-7.565 18.264a25.83 25.83 0 0 1-18.267 7.565h-25.981V58.99a25.83 25.83 0 0 1 7.565-18.267c4.845-4.841 11.415-7.565 18.267-7.565h25.981v17.079z" class="C E"/></clipPath><clipPath id="Q"><path d="M843.24 76.065l-15.518-11.309c-8.571-6.246-9.54-18.671-2.041-26.17l5.428-5.428h24.261l5.428 5.428c7.5 7.5 6.531 19.924-2.041 26.17l-15.518 11.309z" class="C E"/></clipPath><clipPath id="R"><path d="M1202.702,103.251h-19.354l-5.245,47.9c-.291,2.655,1.788,4.974,4.459,4.974h21.021c2.674,0,4.754-2.325,4.458-4.982l-5.339-47.891Z" class="C"/></clipPath><clipPath id="S"><path d="M1193.072 101.51c0 6.849 2.72 13.42 7.565 18.264a25.83 25.83 0 0 0 18.267 7.565h25.981v-17.076a25.83 25.83 0 0 0-7.565-18.267c-4.845-4.841-11.415-7.565-18.267-7.565h-25.981v17.079z" class="C E"/></clipPath><clipPath id="T"><path d="M1193.072 101.51c0 6.849-2.72 13.42-7.565 18.264a25.83 25.83 0 0 1-18.267 7.565h-25.981v-17.076a25.83 25.83 0 0 1 7.565-18.267c4.845-4.841 11.415-7.565 18.267-7.565h25.981v17.079z" class="C E"/></clipPath><clipPath id="U"><path d="M1193.087 127.339l-15.518-11.309c-8.571-6.246-9.54-18.671-2.041-26.17l5.428-5.428h24.261l5.428 5.428c7.5 7.5 6.531 19.924-2.041 26.17l-15.518 11.309z" class="C E"/></clipPath><clipPath id="V"><path d="M1373.548 34.624c0-2.092.829-4.099 2.305-5.578s3.478-2.311 5.565-2.311h17.414c1.511 0 2.933-.713 3.84-1.924l5.671-7.579a3.98 3.98 0 0 1 3.184-1.596h32.086c1.209 0 2.353.551 3.108 1.497l9.879 12.376v27.35c0 2.078-.548 4.119-1.587 5.917l-7.034 12.16c-1.518 2.625-4.316 4.24-7.343 4.24h-48.633l-18.456-18.498V34.622z" class="C E"/></clipPath><clipPath id="W"><path d="M477.561 22.551c0-1.496.593-2.931 1.648-3.988a5.62 5.62 0 0 1 3.979-1.652h12.452a3.43 3.43 0 0 0 2.745-1.376l4.055-5.419c.537-.718 1.381-1.141 2.277-1.141h22.943c.864 0 1.682.394 2.222 1.071l7.064 8.85v19.556c0 1.486-.392 2.945-1.135 4.231l-5.029 8.695c-1.086 1.877-3.086 3.032-5.251 3.032h-34.775l-13.197-13.227V22.552z" class="C E"/></clipPath><path id="X" d="M175.686 121.061c0-1.987-1.613-3.6-3.6-3.6h-16.649c-1.987 0-3.6 1.613-3.6 3.6s1.613 3.6 3.6 3.6h16.649a3.6 3.6 0 0 0 3.6-3.6h0z"/><path id="Y" d="M254.849 48.287l-56.078 42.244 12.597 49.493h86.962l12.598-49.493-56.079-42.244z"/><path id="Z" d="M1083.769 159.008c0 6.849 2.72 13.42 7.565 18.264a25.83 25.83 0 0 0 18.267 7.565h25.981v-17.076a25.83 25.83 0 0 0-7.565-18.267c-4.845-4.841-11.415-7.565-18.267-7.565h-25.981v17.079z"/><path id="a" d="M1081.721 144.445l4.094-5.017 51.82 42.286-4.094 5.017z"/><path id="b" d="M1083.769 159.008c0 6.849-2.72 13.42-7.565 18.264a25.83 25.83 0 0 1-18.267 7.565h-25.981v-17.076a25.83 25.83 0 0 1 7.565-18.267c4.845-4.841 11.415-7.565 18.267-7.565h25.981v17.079z"/><path id="c" d="M1029.908 181.714l51.814-42.293 4.095 5.017-51.814 42.293z"/><path id="d" d="M1083.783 184.836l-15.518-11.309c-8.571-6.246-9.54-18.671-2.041-26.17l5.428-5.428h24.261l5.428 5.428c7.5 7.5 6.531 19.924-2.041 26.17l-15.518 11.309z"/><path id="e" d="M843.24 86.602l-15.821-11.53c-8.739-6.368-9.726-19.035-2.08-26.681l5.534-5.534h24.735l5.534 5.534c7.646 7.646 6.658 20.313-2.08 26.681l-15.821 11.53z"/><path id="f" d="M895.038 57.911v-6.133h-9.887a3.07 3.07 0 0 0-2.17.9c-.573.573-.897 1.354-.897 2.166h0c0 .816.324 1.593.897 2.17s1.357.897 2.17.897h9.887z"/><path id="g" d="M791.412 58.255v-6.477h9.718a3.22 3.22 0 0 1 3.235 3.235v.006a3.23 3.23 0 0 1-3.235 3.235h-9.718z"/><path id="h" d="M791.412 45.301v-6.477h19.43a3.24 3.24 0 0 1 2.289.949c.609.609.949 1.431.949 2.289s-.34 1.684-.949 2.289a3.23 3.23 0 0 1-2.289.949h-19.43z"/><path id="i" d="M820.264 56.817c-1.054 0-2.091-.514-2.711-1.461-.982-1.497-.565-3.504.932-4.484l13.164-8.635c1.497-.987 3.504-.561 4.482.93.982 1.497.565 3.504-.932 4.484l-13.164 8.635a3.21 3.21 0 0 1-1.771.531z"/><path id="j" d="M866.186 56.817c-.607 0-1.223-.171-1.771-.531l-13.16-8.635c-1.497-.98-1.914-2.987-.932-4.484a3.23 3.23 0 0 1 4.482-.93l13.16 8.635c1.497.98 1.914 2.987.932 4.484-.62.947-1.657 1.461-2.711 1.461z"/><path id="k" d="M780.795 107.858h.004a34.29 34.29 0 0 0 23.686-9.497l7.372-7.048c6.733-6.433 17.387-6.249 23.895.412l6.15 6.298c6.142 6.289 14.564 9.834 23.352 9.834h.004-84.464z"/><path id="l" d="M466.376 49.568h-.715a2.73 2.73 0 0 1-2.729-2.729 2.73 2.73 0 0 1 2.729-2.729h.715a2.73 2.73 0 0 1 2.729 2.729 2.73 2.73 0 0 1-2.729 2.729z"/><path id="m" d="M1291.635 26.247h-.718a2.74 2.74 0 1 1 0-5.48h.718a2.74 2.74 0 1 1 0 5.48z"/></defs><g clip-path="url(#A)"><path d="M-11.618-1916.127h1523.237v5153.382H-11.618z" fill="#04d5d8"/><path d="M881.245 2375.825c-41.651 0-84.385-27.125-101.61-64.497-.533-1.156-1.755-1.965-2.971-1.965H-33.074l-4.116-238.479V-37.204H220.6a127.35 127.35 0 0 1 78.961 27.557c22.556 17.938 38.384 43.268 44.57 71.323 3.204 14.528 16.339 25.073 31.234 25.073h152.318c17.632 0 31.977-14.345 31.977-31.977v-7.461c0-93.816 76.325-170.141 170.141-170.141h188.858c93.815 0 170.141 76.325 170.141 170.141 0 21.746 17.691 39.438 39.438 39.438h107.816a126.03 126.03 0 0 1 81.637 30.053c22.736 19.364 37.892 46.267 42.676 75.756 1.474 9.081 6.199 17.445 13.308 23.553 7.14 6.134 16.239 9.513 25.621 9.513h257.685v1978.184h-347.973c-14.935 0-29.001 5.855-39.61 16.487s-16.432 24.712-16.398 39.649c.068 30.785-11.914 59.787-33.741 81.663-22.018 22.065-51.313 34.218-82.491 34.218H881.247z" fill="#7ee5e3"/><path d="M881.245 2345.825c-30.031 0-62-20.229-74.365-47.055-5.434-11.789-17.294-19.407-30.216-19.407H442.665c-65.402 0-118.718-53.601-118.852-119.485-.132-65.613-53.623-118.993-119.239-118.993H-7.19V-7.204H220.6c21.818 0 43.229 7.471 60.289 21.038 17.183 13.665 29.239 32.95 33.947 54.302 6.211 28.168 31.668 48.613 60.53 48.613h152.318c34.174 0 61.977-27.802 61.977-61.977v-7.461c0-77.274 62.867-140.141 140.141-140.141H918.66c77.273 0 140.141 62.867 140.141 140.141 0 38.288 31.149 69.438 69.438 69.438h107.816a96 96 0 0 1 62.186 22.893c17.322 14.753 28.869 35.252 32.515 57.721 2.604 16.051 10.902 30.79 23.368 41.502a69.36 69.36 0 0 0 45.173 16.76h227.685v1918.184h-317.973c-22.96 0-44.569 8.984-60.847 25.297s-25.213 37.942-25.162 60.906c.051 22.76-8.82 44.213-24.979 60.407-16.348 16.384-38.102 25.407-61.254 25.407H881.246z" fill="#fceea3"/><path d="M881.244 2315.825c-18.075 0-39.553-13.196-47.119-29.612-10.016-21.73-32.006-36.85-57.462-36.85H442.665c-49.251 0-88.752-40.294-88.852-89.545-.166-82.151-67.05-148.933-149.239-148.933H-47.26V22.796H220.6c31.082 0 58.247 21.448 64.94 51.8 9.09 41.22 45.913 72.153 89.826 72.153h152.318c50.797 0 91.977-41.179 91.977-91.977v-7.461c0-60.829 49.312-110.14 110.14-110.14H918.66c60.829 0 110.14 49.312 110.14 110.14h0c0 54.918 44.52 99.438 99.438 99.438h107.816c32.355 0 59.906 23.48 65.087 55.417 7.666 47.26 48.763 83.458 98.155 83.458h197.685v1858.184h-287.973c-64.054 0-116.15 52.182-116.008 116.269.068 30.868-25.365 55.749-56.233 55.749H881.246z" class="K"/><path d="M1534.843 328.19H1338.39c-44.946 0-81.382-36.436-81.382-81.382h0c0-32.864-26.642-59.506-59.506-59.506h-91.784c-65.242 0-118.131-52.889-118.131-118.131V62.11c0-32.864-26.642-59.506-59.506-59.506H720.186c-32.864 0-59.506 26.642-59.506 59.506v247.732c0 32.864 26.642 59.506 59.506 59.506h74.117c32.864 0 59.506 26.642 59.506 59.506v24.359c0 32.864 26.642 59.506 59.506 59.506h224.893c32.864 0 59.506-26.642 59.506-59.506v-19.659c0-32.864 26.642-59.506 59.506-59.506h277.623v-45.859z" stroke="#f0be5b" stroke-dasharray="0 10" stroke-width="10" class="I O U"/><g clip-path="url(#B)" class="C O"><g opacity=".4"><g stroke="#a0ccc7"><g stroke-width="2.684"><rect x="77.317" y="145.884" width="36.649" height="18.372" rx="3.477" transform="matrix(-1 0 0 -1 191.284 310.14)"/><rect x="40.668" y="145.884" width="36.649" height="18.372" rx="3.477" transform="matrix(-1 0 0 -1 117.985 310.14)"/><rect x="3.982" y="145.884" width="36.649" height="18.372" rx="3.477" transform="matrix(-1 0 0 -1 44.612 310.14)"/><rect x="-32.668" y="145.884" width="36.649" height="18.372" rx="3.477" transform="matrix(-1 0 0 -1 -28.686 310.14)"/><rect x="95.617" y="127.511" width="36.649" height="18.372" rx="3.477" transform="matrix(-1 0 0 -1 227.884 273.395)"/><rect x="58.968" y="127.511" width="36.649" height="18.372" rx="3.477" transform="matrix(-1 0 0 -1 154.585 273.395)"/><rect x="22.281" y="127.511" width="36.649" height="18.372" rx="3.477" transform="matrix(-1 0 0 -1 81.212 273.395)"/><rect x="-14.368" y="127.511" width="36.649" height="18.372" rx="3.477" transform="matrix(-1 0 0 -1 7.914 273.395)"/><rect x="77.317" y="109.139" width="36.649" height="18.372" rx="3.477" transform="matrix(-1 0 0 -1 191.284 236.651)"/><rect x="40.668" y="109.139" width="36.649" height="18.372" rx="3.477" transform="matrix(-1 0 0 -1 117.985 236.651)"/><rect x="3.982" y="109.139" width="36.649" height="18.372" rx="3.477" transform="matrix(-1 0 0 -1 44.612 236.651)"/><rect x="-32.668" y="109.139" width="36.649" height="18.372" rx="3.477" transform="matrix(-1 0 0 -1 -28.686 236.651)"/><rect x="95.617" y="90.767" width="36.649" height="18.372" rx="3.477" transform="matrix(-1 0 0 -1 227.884 199.906)"/><rect x="58.968" y="90.767" width="36.649" height="18.372" rx="3.477" transform="matrix(-1 0 0 -1 154.585 199.906)"/><rect x="22.281" y="90.767" width="36.649" height="18.372" rx="3.477" transform="matrix(-1 0 0 -1 81.212 199.906)"/><rect x="-14.368" y="90.767" width="36.649" height="18.372" rx="3.477" transform="matrix(-1 0 0 -1 7.914 199.906)"/><rect x="77.317" y="72.413" width="36.649" height="18.372" rx="3.477" transform="matrix(-1 0 0 -1 191.284 163.198)"/><rect x="40.668" y="72.413" width="36.649" height="18.372" rx="3.477" transform="matrix(-1 0 0 -1 117.985 163.198)"/><rect x="3.982" y="72.413" width="36.649" height="18.372" rx="3.477" transform="matrix(-1 0 0 -1 44.612 163.198)"/><rect x="-32.668" y="72.413" width="36.649" height="18.372" rx="3.477" transform="matrix(-1 0 0 -1 -28.686 163.198)"/><rect x="95.617" y="54.041" width="36.649" height="18.372" rx="3.477" transform="matrix(-1 0 0 -1 227.884 126.454)"/><rect x="58.968" y="54.041" width="36.649" height="18.372" rx="3.477" transform="matrix(-1 0 0 -1 154.585 126.454)"/><rect x="22.281" y="54.041" width="36.649" height="18.372" rx="3.477" transform="matrix(-1 0 0 -1 81.212 126.454)"/><rect x="-14.368" y="54.041" width="36.649" height="18.372" rx="3.477" transform="matrix(-1 0 0 -1 7.914 126.454)"/><rect x="77.317" y="35.669" width="36.649" height="18.372" rx="3.477" transform="matrix(-1 0 0 -1 191.284 89.709)"/><rect x="40.668" y="35.669" width="36.649" height="18.372" rx="3.477" transform="matrix(-1 0 0 -1 117.985 89.709)"/><rect x="3.982" y="35.669" width="36.649" height="18.372" rx="3.477" transform="matrix(-1 0 0 -1 44.612 89.709)"/><rect x="-32.668" y="35.669" width="36.649" height="18.372" rx="3.477" transform="matrix(-1 0 0 -1 -28.686 89.709)"/><rect x="95.617" y="17.296" width="36.649" height="18.372" rx="3.477" transform="matrix(-1 0 0 -1 227.884 52.965)"/><rect x="58.968" y="17.296" width="36.649" height="18.372" rx="3.477" transform="matrix(-1 0 0 -1 154.585 52.965)"/><rect x="22.281" y="17.296" width="36.649" height="18.372" rx="3.477" transform="matrix(-1 0 0 -1 81.212 52.965)"/><rect x="-14.368" y="17.296" width="36.649" height="18.372" rx="3.477" transform="matrix(-1 0 0 -1 7.914 52.965)"/><rect x="77.317" y="-1.076" width="36.649" height="18.372" rx="3.477" transform="matrix(-1 0 0 -1 191.284 16.221)"/><rect x="40.668" y="-1.076" width="36.649" height="18.372" rx="3.477" transform="matrix(-1 0 0 -1 117.985 16.221)"/><rect x="3.982" y="-1.076" width="36.649" height="18.372" rx="3.477" transform="matrix(-1 0 0 -1 44.612 16.221)"/><rect x="-32.668" y="-1.076" width="36.649" height="18.372" rx="3.477" transform="matrix(-1 0 0 -1 -28.686 16.221)"/><rect x="95.617" y="-19.448" width="36.649" height="18.372" rx="3.477" transform="matrix(-1 0 0 -1 227.884 -20.524)"/><rect x="58.968" y="-19.448" width="36.649" height="18.372" rx="3.477" transform="matrix(-1 0 0 -1 154.585 -20.524)"/><rect x="22.281" y="-19.448" width="36.649" height="18.372" rx="3.477" transform="matrix(-1 0 0 -1 81.212 -20.524)"/><rect x="-14.368" y="-19.448" width="36.649" height="18.372" rx="3.477" transform="matrix(-1 0 0 -1 7.914 -20.524)"/><rect x="443.908" y="145.884" width="36.649" height="18.372" rx="3.477" transform="matrix(-1 0 0 -1 924.466 310.14)"/><rect x="407.259" y="145.884" width="36.649" height="18.372" rx="3.477" transform="matrix(-1 0 0 -1 851.168 310.14)"/><rect x="370.573" y="145.884" width="36.649" height="18.372" rx="3.477" transform="matrix(-1 0 0 -1 777.795 310.14)"/><rect x="333.924" y="145.884" width="36.649" height="18.372" rx="3.477" transform="matrix(-1 0 0 -1 704.496 310.14)"/><rect x="297.269" y="145.884" width="36.649" height="18.372" rx="3.477" transform="matrix(-1 0 0 -1 631.187 310.14)"/><rect x="260.62" y="145.884" width="36.649" height="18.372" rx="3.477" transform="matrix(-1 0 0 -1 557.888 310.14)"/><rect x="223.933" y="145.884" width="36.649" height="18.372" rx="3.477" transform="matrix(-1 0 0 -1 484.515 310.14)"/><rect x="187.284" y="145.884" width="36.649" height="18.372" rx="3.477" transform="matrix(-1 0 0 -1 411.217 310.14)"/><rect x="150.678" y="145.884" width="36.649" height="18.372" rx="3.477" transform="matrix(-1 0 0 -1 338.006 310.14)"/><rect x="114.029" y="145.884" width="36.649" height="18.372" rx="3.477" transform="matrix(-1 0 0 -1 264.707 310.14)"/><rect x="462.208" y="127.511" width="36.649" height="18.372" rx="3.477" transform="matrix(-1 0 0 -1 961.066 273.395)"/><rect x="425.559" y="127.511" width="36.649" height="18.372" rx="3.477" transform="matrix(-1 0 0 -1 887.768 273.395)"/><rect x="95.68" y="127.511" width="36.649" height="18.372" rx="3.477" transform="matrix(-1 0 0 -1 228.009 273.395)"/><rect x="388.873" y="127.511" width="36.649" height="18.372" rx="3.477" transform="matrix(-1 0 0 -1 814.394 273.395)"/><rect x="352.224" y="127.511" width="36.649" height="18.372" rx="3.477" transform="matrix(-1 0 0 -1 741.096 273.395)"/><rect x="315.569" y="127.511" width="36.649" height="18.372" rx="3.477" transform="matrix(-1 0 0 -1 667.786 273.395)"/><rect x="278.92" y="127.511" width="36.649" height="18.372" rx="3.477" transform="matrix(-1 0 0 -1 594.488 273.395)"/><rect x="242.233" y="127.511" width="36.649" height="18.372" rx="3.477" transform="matrix(-1 0 0 -1 521.115 273.395)"/><rect x="205.584" y="127.511" width="36.649" height="18.372" rx="3.477" transform="matrix(-1 0 0 -1 447.817 273.395)"/><rect x="168.978" y="127.511" width="36.649" height="18.372" rx="3.477" transform="matrix(-1 0 0 -1 374.605 273.395)"/><rect x="132.329" y="127.511" width="36.649" height="18.372" rx="3.477" transform="matrix(-1 0 0 -1 301.307 273.395)"/><rect x="443.908" y="109.139" width="36.649" height="18.372" rx="3.477" transform="matrix(-1 0 0 -1 924.466 236.651)"/><rect x="407.259" y="109.139" width="36.649" height="18.372" rx="3.477" transform="matrix(-1 0 0 -1 851.168 236.651)"/><rect x="370.573" y="109.139" width="36.649" height="18.372" rx="3.477" transform="matrix(-1 0 0 -1 777.795 236.651)"/><rect x="333.924" y="109.139" width="36.649" height="18.372" rx="3.477" transform="matrix(-1 0 0 -1 704.496 236.651)"/><rect x="297.269" y="109.139" width="36.649" height="18.372" rx="3.477" transform="matrix(-1 0 0 -1 631.187 236.651)"/><rect x="260.62" y="109.139" width="36.649" height="18.372" rx="3.477" transform="matrix(-1 0 0 -1 557.888 236.651)"/><rect x="223.933" y="109.139" width="36.649" height="18.372" rx="3.477" transform="matrix(-1 0 0 -1 484.515 236.651)"/><rect x="187.284" y="109.139" width="36.649" height="18.372" rx="3.477" transform="matrix(-1 0 0 -1 411.217 236.651)"/><rect x="150.678" y="109.139" width="36.649" height="18.372" rx="3.477" transform="matrix(-1 0 0 -1 338.006 236.651)"/><rect x="114.029" y="109.139" width="36.649" height="18.372" rx="3.477" transform="matrix(-1 0 0 -1 264.707 236.651)"/><rect x="462.208" y="90.767" width="36.649" height="18.372" rx="3.477" transform="matrix(-1 0 0 -1 961.066 199.906)"/><rect x="425.559" y="90.767" width="36.649" height="18.372" rx="3.477" transform="matrix(-1 0 0 -1 887.768 199.906)"/><rect x="95.68" y="90.767" width="36.649" height="18.372" rx="3.477" transform="matrix(-1 0 0 -1 228.009 199.906)"/><rect x="388.873" y="90.767" width="36.649" height="18.372" rx="3.477" transform="matrix(-1 0 0 -1 814.394 199.906)"/><rect x="352.224" y="90.767" width="36.649" height="18.372" rx="3.477" transform="matrix(-1 0 0 -1 741.096 199.906)"/><rect x="315.569" y="90.767" width="36.649" height="18.372" rx="3.477" transform="matrix(-1 0 0 -1 667.786 199.906)"/><rect x="278.92" y="90.767" width="36.649" height="18.372" rx="3.477" transform="matrix(-1 0 0 -1 594.488 199.906)"/><rect x="242.233" y="90.767" width="36.649" height="18.372" rx="3.477" transform="matrix(-1 0 0 -1 521.115 199.906)"/><rect x="205.584" y="90.767" width="36.649" height="18.372" rx="3.477" transform="matrix(-1 0 0 -1 447.817 199.906)"/><rect x="168.978" y="90.767" width="36.649" height="18.372" rx="3.477" transform="matrix(-1 0 0 -1 374.605 199.906)"/><rect x="132.329" y="90.767" width="36.649" height="18.372" rx="3.477" transform="matrix(-1 0 0 -1 301.307 199.906)"/><rect x="443.908" y="72.413" width="36.649" height="18.372" rx="3.477" transform="matrix(-1 0 0 -1 924.466 163.198)"/><rect x="407.259" y="72.413" width="36.649" height="18.372" rx="3.477" transform="matrix(-1 0 0 -1 851.168 163.198)"/><rect x="370.573" y="72.413" width="36.649" height="18.372" rx="3.477" transform="matrix(-1 0 0 -1 777.795 163.198)"/><rect x="333.924" y="72.413" width="36.649" height="18.372" rx="3.477" transform="matrix(-1 0 0 -1 704.496 163.198)"/><rect x="297.269" y="72.413" width="36.649" height="18.372" rx="3.477" transform="matrix(-1 0 0 -1 631.187 163.198)"/><rect x="260.62" y="72.413" width="36.649" height="18.372" rx="3.477" transform="matrix(-1 0 0 -1 557.888 163.198)"/><rect x="223.933" y="72.413" width="36.649" height="18.372" rx="3.477" transform="matrix(-1 0 0 -1 484.515 163.198)"/><rect x="187.284" y="72.413" width="36.649" height="18.372" rx="3.477" transform="matrix(-1 0 0 -1 411.217 163.198)"/><rect x="150.678" y="72.413" width="36.649" height="18.372" rx="3.477" transform="matrix(-1 0 0 -1 338.006 163.198)"/><rect x="114.029" y="72.413" width="36.649" height="18.372" rx="3.477" transform="matrix(-1 0 0 -1 264.707 163.198)"/><rect x="462.208" y="54.041" width="36.649" height="18.372" rx="3.477" transform="matrix(-1 0 0 -1 961.066 126.454)"/><rect x="425.559" y="54.041" width="36.649" height="18.372" rx="3.477" transform="matrix(-1 0 0 -1 887.768 126.454)"/><rect x="95.68" y="54.041" width="36.649" height="18.372" rx="3.477" transform="matrix(-1 0 0 -1 228.009 126.454)"/><rect x="388.873" y="54.041" width="36.649" height="18.372" rx="3.477" transform="matrix(-1 0 0 -1 814.394 126.454)"/><rect x="352.224" y="54.041" width="36.649" height="18.372" rx="3.477" transform="matrix(-1 0 0 -1 741.096 126.454)"/><rect x="315.569" y="54.041" width="36.649" height="18.372" rx="3.477" transform="matrix(-1 0 0 -1 667.786 126.454)"/><rect x="278.92" y="54.041" width="36.649" height="18.372" rx="3.477" transform="matrix(-1 0 0 -1 594.488 126.454)"/><rect x="242.233" y="54.041" width="36.649" height="18.372" rx="3.477" transform="matrix(-1 0 0 -1 521.115 126.454)"/><rect x="205.584" y="54.041" width="36.649" height="18.372" rx="3.477" transform="matrix(-1 0 0 -1 447.817 126.454)"/><rect x="168.978" y="54.041" width="36.649" height="18.372" rx="3.477" transform="matrix(-1 0 0 -1 374.605 126.454)"/><rect x="132.329" y="54.041" width="36.649" height="18.372" rx="3.477" transform="matrix(-1 0 0 -1 301.307 126.454)"/><rect x="443.908" y="35.669" width="36.649" height="18.372" rx="3.477" transform="matrix(-1 0 0 -1 924.466 89.709)"/><rect x="407.259" y="35.669" width="36.649" height="18.372" rx="3.477" transform="matrix(-1 0 0 -1 851.168 89.709)"/><rect x="370.573" y="35.669" width="36.649" height="18.372" rx="3.477" transform="matrix(-1 0 0 -1 777.795 89.709)"/><rect x="333.924" y="35.669" width="36.649" height="18.372" rx="3.477" transform="matrix(-1 0 0 -1 704.496 89.709)"/><rect x="297.269" y="35.669" width="36.649" height="18.372" rx="3.477" transform="matrix(-1 0 0 -1 631.187 89.709)"/><rect x="260.62" y="35.669" width="36.649" height="18.372" rx="3.477" transform="matrix(-1 0 0 -1 557.888 89.709)"/><rect x="223.933" y="35.669" width="36.649" height="18.372" rx="3.477" transform="matrix(-1 0 0 -1 484.515 89.709)"/><rect x="187.284" y="35.669" width="36.649" height="18.372" rx="3.477" transform="matrix(-1 0 0 -1 411.217 89.709)"/><rect x="150.678" y="35.669" width="36.649" height="18.372" rx="3.477" transform="matrix(-1 0 0 -1 338.006 89.709)"/><rect x="114.029" y="35.669" width="36.649" height="18.372" rx="3.477" transform="matrix(-1 0 0 -1 264.707 89.709)"/><rect x="462.208" y="17.296" width="36.649" height="18.372" rx="3.477" transform="matrix(-1 0 0 -1 961.066 52.965)"/><rect x="425.559" y="17.296" width="36.649" height="18.372" rx="3.477" transform="matrix(-1 0 0 -1 887.768 52.965)"/><rect x="95.68" y="17.296" width="36.649" height="18.372" rx="3.477" transform="matrix(-1 0 0 -1 228.009 52.965)"/><rect x="388.873" y="17.296" width="36.649" height="18.372" rx="3.477" transform="matrix(-1 0 0 -1 814.394 52.965)"/><rect x="352.224" y="17.296" width="36.649" height="18.372" rx="3.477" transform="matrix(-1 0 0 -1 741.096 52.965)"/><rect x="315.569" y="17.296" width="36.649" height="18.372" rx="3.477" transform="matrix(-1 0 0 -1 667.786 52.965)"/><rect x="278.92" y="17.296" width="36.649" height="18.372" rx="3.477" transform="matrix(-1 0 0 -1 594.488 52.965)"/><rect x="242.233" y="17.296" width="36.649" height="18.372" rx="3.477" transform="matrix(-1 0 0 -1 521.115 52.965)"/><rect x="205.584" y="17.296" width="36.649" height="18.372" rx="3.477" transform="matrix(-1 0 0 -1 447.817 52.965)"/><rect x="168.978" y="17.296" width="36.649" height="18.372" rx="3.477" transform="matrix(-1 0 0 -1 374.605 52.965)"/><rect x="132.329" y="17.296" width="36.649" height="18.372" rx="3.477" transform="matrix(-1 0 0 -1 301.307 52.965)"/><rect x="443.908" y="-1.076" width="36.649" height="18.372" rx="3.477" transform="matrix(-1 0 0 -1 924.466 16.221)"/><rect x="407.259" y="-1.076" width="36.649" height="18.372" rx="3.477" transform="matrix(-1 0 0 -1 851.168 16.221)"/><rect x="370.573" y="-1.076" width="36.649" height="18.372" rx="3.477" transform="matrix(-1 0 0 -1 777.795 16.221)"/><rect x="333.924" y="-1.076" width="36.649" height="18.372" rx="3.477" transform="matrix(-1 0 0 -1 704.496 16.221)"/><rect x="297.269" y="-1.076" width="36.649" height="18.372" rx="3.477" transform="matrix(-1 0 0 -1 631.187 16.221)"/><rect x="260.62" y="-1.076" width="36.649" height="18.372" rx="3.477" transform="matrix(-1 0 0 -1 557.888 16.221)"/><rect x="223.933" y="-1.076" width="36.649" height="18.372" rx="3.477" transform="matrix(-1 0 0 -1 484.515 16.221)"/><rect x="187.284" y="-1.076" width="36.649" height="18.372" rx="3.477" transform="matrix(-1 0 0 -1 411.217 16.221)"/><rect x="150.678" y="-1.076" width="36.649" height="18.372" rx="3.477" transform="matrix(-1 0 0 -1 338.006 16.221)"/><rect x="114.029" y="-1.076" width="36.649" height="18.372" rx="3.477" transform="matrix(-1 0 0 -1 264.707 16.221)"/><rect x="462.208" y="-19.448" width="36.649" height="18.372" rx="3.477" transform="matrix(-1 0 0 -1 961.066 -20.524)"/><rect x="425.559" y="-19.448" width="36.649" height="18.372" rx="3.477" transform="matrix(-1 0 0 -1 887.768 -20.524)"/><rect x="95.68" y="-19.448" width="36.649" height="18.372" rx="3.477" transform="matrix(-1 0 0 -1 228.009 -20.524)"/><rect x="388.873" y="-19.448" width="36.649" height="18.372" rx="3.477" transform="matrix(-1 0 0 -1 814.394 -20.524)"/><rect x="352.224" y="-19.448" width="36.649" height="18.372" rx="3.477" transform="matrix(-1 0 0 -1 741.096 -20.524)"/><rect x="315.569" y="-19.448" width="36.649" height="18.372" rx="3.477" transform="matrix(-1 0 0 -1 667.786 -20.524)"/><rect x="278.92" y="-19.448" width="36.649" height="18.372" rx="3.477" transform="matrix(-1 0 0 -1 594.488 -20.524)"/><rect x="242.233" y="-19.448" width="36.649" height="18.372" rx="3.477" transform="matrix(-1 0 0 -1 521.115 -20.524)"/><rect x="205.584" y="-19.448" width="36.649" height="18.372" rx="3.477" transform="matrix(-1 0 0 -1 447.817 -20.524)"/><rect x="168.978" y="-19.448" width="36.649" height="18.372" rx="3.477" transform="matrix(-1 0 0 -1 374.605 -20.524)"/><rect x="132.329" y="-19.448" width="36.649" height="18.372" rx="3.477" transform="matrix(-1 0 0 -1 301.307 -20.524)"/><rect x="810.442" y="145.884" width="36.649" height="18.372" rx="3.477" transform="matrix(-1 0 0 -1 1657.534 310.14)"/><rect x="773.793" y="145.884" width="36.649" height="18.372" rx="3.477" transform="matrix(-1 0 0 -1 1584.236 310.14)"/><rect x="737.107" y="145.884" width="36.649" height="18.372" rx="3.477" transform="matrix(-1 0 0 -1 1510.862 310.14)"/><rect x="700.458" y="145.884" width="36.649" height="18.372" rx="3.477" transform="matrix(-1 0 0 -1 1437.564 310.14)"/><rect x="663.803" y="145.884" width="36.649" height="18.372" rx="3.477" transform="matrix(-1 0 0 -1 1364.255 310.14)"/><rect x="627.154" y="145.884" width="36.649" height="18.372" rx="3.477" transform="matrix(-1 0 0 -1 1290.956 310.14)"/><rect x="590.467" y="145.884" width="36.649" height="18.372" rx="3.477" transform="matrix(-1 0 0 -1 1217.583 310.14)"/><rect x="553.818" y="145.884" width="36.649" height="18.372" rx="3.477" transform="matrix(-1 0 0 -1 1144.285 310.14)"/><rect x="517.212" y="145.884" width="36.649" height="18.372" rx="3.477" transform="matrix(-1 0 0 -1 1071.073 310.14)"/><rect x="480.563" y="145.884" width="36.649" height="18.372" rx="3.477" transform="matrix(-1 0 0 -1 997.775 310.14)"/><rect x="828.742" y="127.511" width="36.649" height="18.372" rx="3.477" transform="matrix(-1 0 0 -1 1694.134 273.395)"/><rect x="792.093" y="127.511" width="36.649" height="18.372" rx="3.477" transform="matrix(-1 0 0 -1 1620.836 273.395)"/><rect x="462.214" y="127.511" width="36.649" height="18.372" rx="3.477" transform="matrix(-1 0 0 -1 961.077 273.395)"/><rect x="755.407" y="127.511" width="36.649" height="18.372" rx="3.477" transform="matrix(-1 0 0 -1 1547.462 273.395)"/><rect x="718.758" y="127.511" width="36.649" height="18.372" rx="3.477" transform="matrix(-1 0 0 -1 1474.164 273.395)"/><rect x="682.103" y="127.511" width="36.649" height="18.372" rx="3.477" transform="matrix(-1 0 0 -1 1400.854 273.395)"/><rect x="645.454" y="127.511" width="36.649" height="18.372" rx="3.477" transform="matrix(-1 0 0 -1 1327.556 273.395)"/><rect x="608.767" y="127.511" width="36.649" height="18.372" rx="3.477" transform="matrix(-1 0 0 -1 1254.183 273.395)"/><rect x="572.118" y="127.511" width="36.649" height="18.372" rx="3.477" transform="matrix(-1 0 0 -1 1180.885 273.395)"/><rect x="535.512" y="127.511" width="36.649" height="18.372" rx="3.477" transform="matrix(-1 0 0 -1 1107.673 273.395)"/><rect x="498.863" y="127.511" width="36.649" height="18.372" rx="3.477" transform="matrix(-1 0 0 -1 1034.375 273.395)"/><rect x="810.442" y="109.139" width="36.649" height="18.372" rx="3.477" transform="matrix(-1 0 0 -1 1657.534 236.651)"/><rect x="773.793" y="109.139" width="36.649" height="18.372" rx="3.477" transform="matrix(-1 0 0 -1 1584.236 236.651)"/><rect x="737.107" y="109.139" width="36.649" height="18.372" rx="3.477" transform="matrix(-1 0 0 -1 1510.862 236.651)"/><rect x="700.458" y="109.139" width="36.649" height="18.372" rx="3.477" transform="matrix(-1 0 0 -1 1437.564 236.651)"/><rect x="663.803" y="109.139" width="36.649" height="18.372" rx="3.477" transform="matrix(-1 0 0 -1 1364.255 236.651)"/><rect x="627.154" y="109.139" width="36.649" height="18.372" rx="3.477" transform="matrix(-1 0 0 -1 1290.956 236.651)"/><rect x="590.467" y="109.139" width="36.649" height="18.372" rx="3.477" transform="matrix(-1 0 0 -1 1217.583 236.651)"/><rect x="553.818" y="109.139" width="36.649" height="18.372" rx="3.477" transform="matrix(-1 0 0 -1 1144.285 236.651)"/><rect x="517.212" y="109.139" width="36.649" height="18.372" rx="3.477" transform="matrix(-1 0 0 -1 1071.073 236.651)"/><rect x="480.563" y="109.139" width="36.649" height="18.372" rx="3.477" transform="matrix(-1 0 0 -1 997.775 236.651)"/><rect x="828.742" y="90.767" width="36.649" height="18.372" rx="3.477" transform="matrix(-1 0 0 -1 1694.134 199.906)"/><rect x="792.093" y="90.767" width="36.649" height="18.372" rx="3.477" transform="matrix(-1 0 0 -1 1620.836 199.906)"/><rect x="462.214" y="90.767" width="36.649" height="18.372" rx="3.477" transform="matrix(-1 0 0 -1 961.077 199.906)"/><rect x="755.407" y="90.767" width="36.649" height="18.372" rx="3.477" transform="matrix(-1 0 0 -1 1547.462 199.906)"/><rect x="718.758" y="90.767" width="36.649" height="18.372" rx="3.477" transform="matrix(-1 0 0 -1 1474.164 199.906)"/><rect x="682.103" y="90.767" width="36.649" height="18.372" rx="3.477" transform="matrix(-1 0 0 -1 1400.854 199.906)"/><rect x="645.454" y="90.767" width="36.649" height="18.372" rx="3.477" transform="matrix(-1 0 0 -1 1327.556 199.906)"/><rect x="608.767" y="90.767" width="36.649" height="18.372" rx="3.477" transform="matrix(-1 0 0 -1 1254.183 199.906)"/><rect x="572.118" y="90.767" width="36.649" height="18.372" rx="3.477" transform="matrix(-1 0 0 -1 1180.885 199.906)"/><rect x="535.512" y="90.767" width="36.649" height="18.372" rx="3.477" transform="matrix(-1 0 0 -1 1107.673 199.906)"/><rect x="498.863" y="90.767" width="36.649" height="18.372" rx="3.477" transform="matrix(-1 0 0 -1 1034.375 199.906)"/><rect x="810.442" y="72.413" width="36.649" height="18.372" rx="3.477" transform="matrix(-1 0 0 -1 1657.534 163.198)"/><rect x="773.793" y="72.413" width="36.649" height="18.372" rx="3.477" transform="matrix(-1 0 0 -1 1584.236 163.198)"/><rect x="737.107" y="72.413" width="36.649" height="18.372" rx="3.477" transform="matrix(-1 0 0 -1 1510.862 163.198)"/><rect x="700.458" y="72.413" width="36.649" height="18.372" rx="3.477" transform="matrix(-1 0 0 -1 1437.564 163.198)"/><rect x="663.803" y="72.413" width="36.649" height="18.372" rx="3.477" transform="matrix(-1 0 0 -1 1364.255 163.198)"/><rect x="627.154" y="72.413" width="36.649" height="18.372" rx="3.477" transform="matrix(-1 0 0 -1 1290.956 163.198)"/><rect x="590.467" y="72.413" width="36.649" height="18.372" rx="3.477" transform="matrix(-1 0 0 -1 1217.583 163.198)"/><rect x="553.818" y="72.413" width="36.649" height="18.372" rx="3.477" transform="matrix(-1 0 0 -1 1144.285 163.198)"/><rect x="517.212" y="72.413" width="36.649" height="18.372" rx="3.477" transform="matrix(-1 0 0 -1 1071.073 163.198)"/><rect x="480.563" y="72.413" width="36.649" height="18.372" rx="3.477" transform="matrix(-1 0 0 -1 997.775 163.198)"/><rect x="828.742" y="54.041" width="36.649" height="18.372" rx="3.477" transform="matrix(-1 0 0 -1 1694.134 126.454)"/><rect x="792.093" y="54.041" width="36.649" height="18.372" rx="3.477" transform="matrix(-1 0 0 -1 1620.836 126.454)"/><rect x="462.214" y="54.041" width="36.649" height="18.372" rx="3.477" transform="matrix(-1 0 0 -1 961.077 126.454)"/><rect x="755.407" y="54.041" width="36.649" height="18.372" rx="3.477" transform="matrix(-1 0 0 -1 1547.462 126.454)"/><rect x="718.758" y="54.041" width="36.649" height="18.372" rx="3.477" transform="matrix(-1 0 0 -1 1474.164 126.454)"/><rect x="682.103" y="54.041" width="36.649" height="18.372" rx="3.477" transform="matrix(-1 0 0 -1 1400.854 126.454)"/><rect x="645.454" y="54.041" width="36.649" height="18.372" rx="3.477" transform="matrix(-1 0 0 -1 1327.556 126.454)"/><rect x="608.767" y="54.041" width="36.649" height="18.372" rx="3.477" transform="matrix(-1 0 0 -1 1254.183 126.454)"/><rect x="572.118" y="54.041" width="36.649" height="18.372" rx="3.477" transform="matrix(-1 0 0 -1 1180.885 126.454)"/><rect x="535.512" y="54.041" width="36.649" height="18.372" rx="3.477" transform="matrix(-1 0 0 -1 1107.673 126.454)"/><rect x="498.863" y="54.041" width="36.649" height="18.372" rx="3.477" transform="matrix(-1 0 0 -1 1034.375 126.454)"/><rect x="810.442" y="35.669" width="36.649" height="18.372" rx="3.477" transform="matrix(-1 0 0 -1 1657.534 89.709)"/><rect x="773.793" y="35.669" width="36.649" height="18.372" rx="3.477" transform="matrix(-1 0 0 -1 1584.236 89.709)"/><rect x="737.107" y="35.669" width="36.649" height="18.372" rx="3.477" transform="matrix(-1 0 0 -1 1510.862 89.709)"/><rect x="700.458" y="35.669" width="36.649" height="18.372" rx="3.477" transform="matrix(-1 0 0 -1 1437.564 89.709)"/><rect x="663.803" y="35.669" width="36.649" height="18.372" rx="3.477" transform="matrix(-1 0 0 -1 1364.255 89.709)"/><rect x="627.154" y="35.669" width="36.649" height="18.372" rx="3.477" transform="matrix(-1 0 0 -1 1290.956 89.709)"/><rect x="590.467" y="35.669" width="36.649" height="18.372" rx="3.477" transform="matrix(-1 0 0 -1 1217.583 89.709)"/><rect x="553.818" y="35.669" width="36.649" height="18.372" rx="3.477" transform="matrix(-1 0 0 -1 1144.285 89.709)"/><rect x="517.212" y="35.669" width="36.649" height="18.372" rx="3.477" transform="matrix(-1 0 0 -1 1071.073 89.709)"/><rect x="480.563" y="35.669" width="36.649" height="18.372" rx="3.477" transform="matrix(-1 0 0 -1 997.775 89.709)"/><rect x="828.742" y="17.296" width="36.649" height="18.372" rx="3.477" transform="matrix(-1 0 0 -1 1694.134 52.965)"/><rect x="792.093" y="17.296" width="36.649" height="18.372" rx="3.477" transform="matrix(-1 0 0 -1 1620.836 52.965)"/><rect x="462.214" y="17.296" width="36.649" height="18.372" rx="3.477" transform="matrix(-1 0 0 -1 961.077 52.965)"/><rect x="755.407" y="17.296" width="36.649" height="18.372" rx="3.477" transform="matrix(-1 0 0 -1 1547.462 52.965)"/><rect x="718.758" y="17.296" width="36.649" height="18.372" rx="3.477" transform="matrix(-1 0 0 -1 1474.164 52.965)"/><rect x="682.103" y="17.296" width="36.649" height="18.372" rx="3.477" transform="matrix(-1 0 0 -1 1400.854 52.965)"/><rect x="645.454" y="17.296" width="36.649" height="18.372" rx="3.477" transform="matrix(-1 0 0 -1 1327.556 52.965)"/><rect x="608.767" y="17.296" width="36.649" height="18.372" rx="3.477" transform="matrix(-1 0 0 -1 1254.183 52.965)"/><rect x="572.118" y="17.296" width="36.649" height="18.372" rx="3.477" transform="matrix(-1 0 0 -1 1180.885 52.965)"/><rect x="535.512" y="17.296" width="36.649" height="18.372" rx="3.477" transform="matrix(-1 0 0 -1 1107.673 52.965)"/><rect x="498.863" y="17.296" width="36.649" height="18.372" rx="3.477" transform="matrix(-1 0 0 -1 1034.375 52.965)"/><rect x="810.442" y="-1.076" width="36.649" height="18.372" rx="3.477" transform="matrix(-1 0 0 -1 1657.534 16.221)"/><rect x="773.793" y="-1.076" width="36.649" height="18.372" rx="3.477" transform="matrix(-1 0 0 -1 1584.236 16.221)"/><rect x="737.107" y="-1.076" width="36.649" height="18.372" rx="3.477" transform="matrix(-1 0 0 -1 1510.862 16.221)"/><rect x="700.458" y="-1.076" width="36.649" height="18.372" rx="3.477" transform="matrix(-1 0 0 -1 1437.564 16.221)"/><rect x="663.803" y="-1.076" width="36.649" height="18.372" rx="3.477" transform="matrix(-1 0 0 -1 1364.255 16.221)"/><rect x="627.154" y="-1.076" width="36.649" height="18.372" rx="3.477" transform="matrix(-1 0 0 -1 1290.956 16.221)"/><rect x="590.467" y="-1.076" width="36.649" height="18.372" rx="3.477" transform="matrix(-1 0 0 -1 1217.583 16.221)"/><rect x="553.818" y="-1.076" width="36.649" height="18.372" rx="3.477" transform="matrix(-1 0 0 -1 1144.285 16.221)"/><rect x="517.212" y="-1.076" width="36.649" height="18.372" rx="3.477" transform="matrix(-1 0 0 -1 1071.073 16.221)"/><rect x="480.563" y="-1.076" width="36.649" height="18.372" rx="3.477" transform="matrix(-1 0 0 -1 997.775 16.221)"/><rect x="828.742" y="-19.448" width="36.649" height="18.372" rx="3.477" transform="matrix(-1 0 0 -1 1694.134 -20.524)"/><rect x="792.093" y="-19.448" width="36.649" height="18.372" rx="3.477" transform="matrix(-1 0 0 -1 1620.836 -20.524)"/><rect x="462.214" y="-19.448" width="36.649" height="18.372" rx="3.477" transform="matrix(-1 0 0 -1 961.077 -20.524)"/><rect x="755.407" y="-19.448" width="36.649" height="18.372" rx="3.477" transform="matrix(-1 0 0 -1 1547.462 -20.524)"/><rect x="718.758" y="-19.448" width="36.649" height="18.372" rx="3.477" transform="matrix(-1 0 0 -1 1474.164 -20.524)"/><rect x="682.103" y="-19.448" width="36.649" height="18.372" rx="3.477" transform="matrix(-1 0 0 -1 1400.854 -20.524)"/><rect x="645.454" y="-19.448" width="36.649" height="18.372" rx="3.477" transform="matrix(-1 0 0 -1 1327.556 -20.524)"/><rect x="608.767" y="-19.448" width="36.649" height="18.372" rx="3.477" transform="matrix(-1 0 0 -1 1254.183 -20.524)"/><rect x="572.118" y="-19.448" width="36.649" height="18.372" rx="3.477" transform="matrix(-1 0 0 -1 1180.885 -20.524)"/><rect x="535.512" y="-19.448" width="36.649" height="18.372" rx="3.477" transform="matrix(-1 0 0 -1 1107.673 -20.524)"/><rect x="498.863" y="-19.448" width="36.649" height="18.372" rx="3.477" transform="matrix(-1 0 0 -1 1034.375 -20.524)"/><rect x="1177.034" y="145.884" width="36.649" height="18.372" rx="3.477" transform="matrix(-1 0 0 -1 2390.716 310.14)"/><rect x="1140.385" y="145.884" width="36.649" height="18.372" rx="3.477" transform="matrix(-1 0 0 -1 2317.418 310.14)"/><rect x="1103.698" y="145.884" width="36.649" height="18.372" rx="3.477" transform="matrix(-1 0 0 -1 2244.045 310.14)"/><rect x="1067.049" y="145.884" width="36.649" height="18.372" rx="3.477" transform="matrix(-1 0 0 -1 2170.747 310.14)"/><rect x="1030.394" y="145.884" width="36.649" height="18.372" rx="3.477" transform="matrix(-1 0 0 -1 2097.437 310.14)"/><rect x="993.745" y="145.884" width="36.649" height="18.372" rx="3.477" transform="matrix(-1 0 0 -1 2024.139 310.14)"/><rect x="957.058" y="145.884" width="36.649" height="18.372" rx="3.477" transform="matrix(-1 0 0 -1 1950.765 310.14)"/><rect x="920.409" y="145.884" width="36.649" height="18.372" rx="3.477" transform="matrix(-1 0 0 -1 1877.467 310.14)"/><rect x="883.803" y="145.884" width="36.649" height="18.372" rx="3.477" transform="matrix(-1 0 0 -1 1804.256 310.14)"/><rect x="847.154" y="145.884" width="36.649" height="18.372" rx="3.477" transform="matrix(-1 0 0 -1 1730.958 310.14)"/><rect x="1195.334" y="127.511" width="36.649" height="18.372" rx="3.477" transform="matrix(-1 0 0 -1 2427.316 273.395)"/><rect x="1158.684" y="127.511" width="36.649" height="18.372" rx="3.477" transform="matrix(-1 0 0 -1 2354.018 273.395)"/><rect x="828.805" y="127.511" width="36.649" height="18.372" rx="3.477" transform="matrix(-1 0 0 -1 1694.259 273.395)"/><rect x="1121.998" y="127.511" width="36.649" height="18.372" rx="3.477" transform="matrix(-1 0 0 -1 2280.645 273.395)"/><rect x="1085.349" y="127.511" width="36.649" height="18.372" rx="3.477" transform="matrix(-1 0 0 -1 2207.347 273.395)"/><rect x="1048.694" y="127.511" width="36.649" height="18.372" rx="3.477" transform="matrix(-1 0 0 -1 2134.037 273.395)"/><rect x="1012.045" y="127.511" width="36.649" height="18.372" rx="3.477" transform="matrix(-1 0 0 -1 2060.739 273.395)"/><rect x="975.358" y="127.511" width="36.649" height="18.372" rx="3.477" transform="matrix(-1 0 0 -1 1987.365 273.395)"/><rect x="938.709" y="127.511" width="36.649" height="18.372" rx="3.477" transform="matrix(-1 0 0 -1 1914.067 273.395)"/><rect x="902.103" y="127.511" width="36.649" height="18.372" rx="3.477" transform="matrix(-1 0 0 -1 1840.856 273.395)"/><rect x="865.454" y="127.511" width="36.649" height="18.372" rx="3.477" transform="matrix(-1 0 0 -1 1767.558 273.395)"/><rect x="1177.034" y="109.139" width="36.649" height="18.372" rx="3.477" transform="matrix(-1 0 0 -1 2390.716 236.651)"/><rect x="1140.385" y="109.139" width="36.649" height="18.372" rx="3.477" transform="matrix(-1 0 0 -1 2317.418 236.651)"/><rect x="1103.698" y="109.139" width="36.649" height="18.372" rx="3.477" transform="matrix(-1 0 0 -1 2244.045 236.651)"/><rect x="1067.049" y="109.139" width="36.649" height="18.372" rx="3.477" transform="matrix(-1 0 0 -1 2170.747 236.651)"/><rect x="1030.394" y="109.139" width="36.649" height="18.372" rx="3.477" transform="matrix(-1 0 0 -1 2097.437 236.651)"/><rect x="993.745" y="109.139" width="36.649" height="18.372" rx="3.477" transform="matrix(-1 0 0 -1 2024.139 236.651)"/><rect x="957.058" y="109.139" width="36.649" height="18.372" rx="3.477" transform="matrix(-1 0 0 -1 1950.765 236.651)"/><rect x="920.409" y="109.139" width="36.649" height="18.372" rx="3.477" transform="matrix(-1 0 0 -1 1877.467 236.651)"/><rect x="883.803" y="109.139" width="36.649" height="18.372" rx="3.477" transform="matrix(-1 0 0 -1 1804.256 236.651)"/><rect x="847.154" y="109.139" width="36.649" height="18.372" rx="3.477" transform="matrix(-1 0 0 -1 1730.958 236.651)"/><rect x="1195.334" y="90.767" width="36.649" height="18.372" rx="3.477" transform="matrix(-1 0 0 -1 2427.316 199.906)"/><rect x="1158.684" y="90.767" width="36.649" height="18.372" rx="3.477" transform="matrix(-1 0 0 -1 2354.018 199.906)"/><rect x="828.805" y="90.767" width="36.649" height="18.372" rx="3.477" transform="matrix(-1 0 0 -1 1694.259 199.906)"/><rect x="1121.998" y="90.767" width="36.649" height="18.372" rx="3.477" transform="matrix(-1 0 0 -1 2280.645 199.906)"/><rect x="1085.349" y="90.767" width="36.649" height="18.372" rx="3.477" transform="matrix(-1 0 0 -1 2207.347 199.906)"/><rect x="1048.694" y="90.767" width="36.649" height="18.372" rx="3.477" transform="matrix(-1 0 0 -1 2134.037 199.906)"/><rect x="1012.045" y="90.767" width="36.649" height="18.372" rx="3.477" transform="matrix(-1 0 0 -1 2060.739 199.906)"/><rect x="975.358" y="90.767" width="36.649" height="18.372" rx="3.477" transform="matrix(-1 0 0 -1 1987.365 199.906)"/><rect x="938.709" y="90.767" width="36.649" height="18.372" rx="3.477" transform="matrix(-1 0 0 -1 1914.067 199.906)"/><rect x="902.103" y="90.767" width="36.649" height="18.372" rx="3.477" transform="matrix(-1 0 0 -1 1840.856 199.906)"/><rect x="865.454" y="90.767" width="36.649" height="18.372" rx="3.477" transform="matrix(-1 0 0 -1 1767.558 199.906)"/><rect x="1177.034" y="72.413" width="36.649" height="18.372" rx="3.477" transform="matrix(-1 0 0 -1 2390.716 163.198)"/><rect x="1140.385" y="72.413" width="36.649" height="18.372" rx="3.477" transform="matrix(-1 0 0 -1 2317.418 163.198)"/><rect x="1103.698" y="72.413" width="36.649" height="18.372" rx="3.477" transform="matrix(-1 0 0 -1 2244.045 163.198)"/><rect x="1067.049" y="72.413" width="36.649" height="18.372" rx="3.477" transform="matrix(-1 0 0 -1 2170.747 163.198)"/><rect x="1030.394" y="72.413" width="36.649" height="18.372" rx="3.477" transform="matrix(-1 0 0 -1 2097.437 163.198)"/><rect x="993.745" y="72.413" width="36.649" height="18.372" rx="3.477" transform="matrix(-1 0 0 -1 2024.139 163.198)"/><rect x="957.058" y="72.413" width="36.649" height="18.372" rx="3.477" transform="matrix(-1 0 0 -1 1950.765 163.198)"/><rect x="920.409" y="72.413" width="36.649" height="18.372" rx="3.477" transform="matrix(-1 0 0 -1 1877.467 163.198)"/><rect x="883.803" y="72.413" width="36.649" height="18.372" rx="3.477" transform="matrix(-1 0 0 -1 1804.256 163.198)"/><rect x="847.154" y="72.413" width="36.649" height="18.372" rx="3.477" transform="matrix(-1 0 0 -1 1730.958 163.198)"/><rect x="1195.334" y="54.041" width="36.649" height="18.372" rx="3.477" transform="matrix(-1 0 0 -1 2427.316 126.454)"/><rect x="1158.684" y="54.041" width="36.649" height="18.372" rx="3.477" transform="matrix(-1 0 0 -1 2354.018 126.454)"/><rect x="828.805" y="54.041" width="36.649" height="18.372" rx="3.477" transform="matrix(-1 0 0 -1 1694.259 126.454)"/><rect x="1121.998" y="54.041" width="36.649" height="18.372" rx="3.477" transform="matrix(-1 0 0 -1 2280.645 126.454)"/><rect x="1085.349" y="54.041" width="36.649" height="18.372" rx="3.477" transform="matrix(-1 0 0 -1 2207.347 126.454)"/><rect x="1048.694" y="54.041" width="36.649" height="18.372" rx="3.477" transform="matrix(-1 0 0 -1 2134.037 126.454)"/><rect x="1012.045" y="54.041" width="36.649" height="18.372" rx="3.477" transform="matrix(-1 0 0 -1 2060.739 126.454)"/><rect x="975.358" y="54.041" width="36.649" height="18.372" rx="3.477" transform="matrix(-1 0 0 -1 1987.365 126.454)"/><rect x="938.709" y="54.041" width="36.649" height="18.372" rx="3.477" transform="matrix(-1 0 0 -1 1914.067 126.454)"/><rect x="902.103" y="54.041" width="36.649" height="18.372" rx="3.477" transform="matrix(-1 0 0 -1 1840.856 126.454)"/><rect x="865.454" y="54.041" width="36.649" height="18.372" rx="3.477" transform="matrix(-1 0 0 -1 1767.558 126.454)"/><rect x="1177.034" y="35.669" width="36.649" height="18.372" rx="3.477" transform="matrix(-1 0 0 -1 2390.716 89.709)"/><rect x="1140.385" y="35.669" width="36.649" height="18.372" rx="3.477" transform="matrix(-1 0 0 -1 2317.418 89.709)"/><rect x="1103.698" y="35.669" width="36.649" height="18.372" rx="3.477" transform="matrix(-1 0 0 -1 2244.045 89.709)"/><rect x="1067.049" y="35.669" width="36.649" height="18.372" rx="3.477" transform="matrix(-1 0 0 -1 2170.747 89.709)"/><rect x="1030.394" y="35.669" width="36.649" height="18.372" rx="3.477" transform="matrix(-1 0 0 -1 2097.437 89.709)"/><rect x="993.745" y="35.669" width="36.649" height="18.372" rx="3.477" transform="matrix(-1 0 0 -1 2024.139 89.709)"/><rect x="957.058" y="35.669" width="36.649" height="18.372" rx="3.477" transform="matrix(-1 0 0 -1 1950.765 89.709)"/><rect x="920.409" y="35.669" width="36.649" height="18.372" rx="3.477" transform="matrix(-1 0 0 -1 1877.467 89.709)"/><rect x="883.803" y="35.669" width="36.649" height="18.372" rx="3.477" transform="matrix(-1 0 0 -1 1804.256 89.709)"/><rect x="847.154" y="35.669" width="36.649" height="18.372" rx="3.477" transform="matrix(-1 0 0 -1 1730.958 89.709)"/><rect x="1195.334" y="17.296" width="36.649" height="18.372" rx="3.477" transform="matrix(-1 0 0 -1 2427.316 52.965)"/><rect x="1158.684" y="17.296" width="36.649" height="18.372" rx="3.477" transform="matrix(-1 0 0 -1 2354.018 52.965)"/><rect x="828.805" y="17.296" width="36.649" height="18.372" rx="3.477" transform="matrix(-1 0 0 -1 1694.259 52.965)"/><rect x="1121.998" y="17.296" width="36.649" height="18.372" rx="3.477" transform="matrix(-1 0 0 -1 2280.645 52.965)"/><rect x="1085.349" y="17.296" width="36.649" height="18.372" rx="3.477" transform="matrix(-1 0 0 -1 2207.347 52.965)"/><rect x="1048.694" y="17.296" width="36.649" height="18.372" rx="3.477" transform="matrix(-1 0 0 -1 2134.037 52.965)"/><rect x="1012.045" y="17.296" width="36.649" height="18.372" rx="3.477" transform="matrix(-1 0 0 -1 2060.739 52.965)"/><rect x="975.358" y="17.296" width="36.649" height="18.372" rx="3.477" transform="matrix(-1 0 0 -1 1987.365 52.965)"/><rect x="938.709" y="17.296" width="36.649" height="18.372" rx="3.477" transform="matrix(-1 0 0 -1 1914.067 52.965)"/><rect x="902.103" y="17.296" width="36.649" height="18.372" rx="3.477" transform="matrix(-1 0 0 -1 1840.856 52.965)"/><rect x="865.454" y="17.296" width="36.649" height="18.372" rx="3.477" transform="matrix(-1 0 0 -1 1767.558 52.965)"/><rect x="1177.034" y="-1.076" width="36.649" height="18.372" rx="3.477" transform="matrix(-1 0 0 -1 2390.716 16.221)"/><rect x="1140.385" y="-1.076" width="36.649" height="18.372" rx="3.477" transform="matrix(-1 0 0 -1 2317.418 16.221)"/><rect x="1103.698" y="-1.076" width="36.649" height="18.372" rx="3.477" transform="matrix(-1 0 0 -1 2244.045 16.221)"/><rect x="1067.049" y="-1.076" width="36.649" height="18.372" rx="3.477" transform="matrix(-1 0 0 -1 2170.747 16.221)"/><rect x="1030.394" y="-1.076" width="36.649" height="18.372" rx="3.477" transform="matrix(-1 0 0 -1 2097.437 16.221)"/><rect x="993.745" y="-1.076" width="36.649" height="18.372" rx="3.477" transform="matrix(-1 0 0 -1 2024.139 16.221)"/><rect x="957.058" y="-1.076" width="36.649" height="18.372" rx="3.477" transform="matrix(-1 0 0 -1 1950.765 16.221)"/><rect x="920.409" y="-1.076" width="36.649" height="18.372" rx="3.477" transform="matrix(-1 0 0 -1 1877.467 16.221)"/><rect x="883.803" y="-1.076" width="36.649" height="18.372" rx="3.477" transform="matrix(-1 0 0 -1 1804.256 16.221)"/><rect x="847.154" y="-1.076" width="36.649" height="18.372" rx="3.477" transform="matrix(-1 0 0 -1 1730.958 16.221)"/><rect x="1195.334" y="-19.448" width="36.649" height="18.372" rx="3.477" transform="matrix(-1 0 0 -1 2427.316 -20.524)"/><rect x="1158.684" y="-19.448" width="36.649" height="18.372" rx="3.477" transform="matrix(-1 0 0 -1 2354.018 -20.524)"/><rect x="828.805" y="-19.448" width="36.649" height="18.372" rx="3.477" transform="matrix(-1 0 0 -1 1694.259 -20.524)"/><rect x="1121.998" y="-19.448" width="36.649" height="18.372" rx="3.477" transform="matrix(-1 0 0 -1 2280.645 -20.524)"/><rect x="1085.349" y="-19.448" width="36.649" height="18.372" rx="3.477" transform="matrix(-1 0 0 -1 2207.347 -20.524)"/><rect x="1048.694" y="-19.448" width="36.649" height="18.372" rx="3.477" transform="matrix(-1 0 0 -1 2134.037 -20.524)"/><rect x="1012.045" y="-19.448" width="36.649" height="18.372" rx="3.477" transform="matrix(-1 0 0 -1 2060.739 -20.524)"/><rect x="975.358" y="-19.448" width="36.649" height="18.372" rx="3.477" transform="matrix(-1 0 0 -1 1987.365 -20.524)"/><rect x="938.709" y="-19.448" width="36.649" height="18.372" rx="3.477" transform="matrix(-1 0 0 -1 1914.067 -20.524)"/><rect x="902.103" y="-19.448" width="36.649" height="18.372" rx="3.477" transform="matrix(-1 0 0 -1 1840.856 -20.524)"/><rect x="865.454" y="-19.448" width="36.649" height="18.372" rx="3.477" transform="matrix(-1 0 0 -1 1767.558 -20.524)"/></g></g></g></g><path d="M751.61 100.24l-54.379 39.046v51.06l54.379-39.043V100.24z" class="B P"/><g clip-path="url(#C)" fill="#efc180"><path d="M691.817 175.576l58.91-44.181 1.772 2.362-58.91 44.181zm-.001-16.996l58.91-44.185 1.772 2.362-58.91 44.185z"/></g><path d="M751.61 100.24l54.371 39.046v51.06l-54.371-39.043V100.24z" class="B P"/><g clip-path="url(#D)" fill="#efc180"><path d="M750.73 133.749l1.772-2.362 58.912 44.191-1.772 2.362zm-.002-16.996l1.772-2.362 58.913 44.193-1.772 2.362z"/></g><path d="M755.007,101.817c0-1.878-1.506-3.396-3.396-3.396h0c-1.89,0-3.396,1.518-3.396,3.396v51.146c0,1.875,1.506,3.396,3.396,3.396h0c1.89,0,3.396-1.521,3.396-3.396v-51.146Z" fill="#847459" class="B"/><g opacity=".55" fill="#d59660"><circle cx="71.253" cy="66.277" r="2.597"/><circle cx="64.682" cy="74.084" r="2.597"/><circle cx="72.526" cy="76.701" r="2.597"/><circle cx="55.475" cy="93.228" r="2.597"/><circle cx="45.941" cy="78.514" r="2.597"/></g><g class="B"><path d="M546.88 145.368c.158-.581-.113-1.197-.633-1.5s-1.175-.217-1.604.21l-7.748 7.753-4.292-13.933c-.181-.565-.7-.951-1.288-.953s-1.129.379-1.31.944l-4.405 13.942-7.748-7.753c-.429-.427-1.084-.513-1.626-.21a1.33 1.33 0 0 0-.61 1.5l2.778 10.213a13.32 13.32 0 0 0 12.853 9.804h0a13.29 13.29 0 0 0 12.831-9.804l2.801-10.213z" fill="#96ac4c"/><path d="M214.927 113.456a5.34 5.34 0 0 0-5.336-5.336h-24.678a5.34 5.34 0 0 0-5.336 5.336 5.34 5.34 0 0 0 5.336 5.336h24.678a5.34 5.34 0 0 0 5.336-5.336h0z" class="I"/><path d="M212.022 95.612a1.27 1.27 0 0 0-.598-1.417 1.25 1.25 0 0 0-1.515.198l-7.321 7.325-4.055-13.164c-.171-.534-.662-.899-1.217-.901s-1.067.359-1.238.892l-4.162 13.172-7.32-7.325c-.406-.403-1.024-.484-1.537-.198-.491.286-.726.869-.576 1.417l2.625 9.649c1.494 5.47 6.467 9.263 12.144 9.263h0a12.56 12.56 0 0 0 12.123-9.263l2.646-9.649z" fill="#96ac4c"/><use href="#X" class="I"/><path d="M173.727 109.023c.101-.37-.072-.763-.403-.956s-.749-.138-1.022.134l-4.939 4.942-2.736-8.881a.87.87 0 0 0-.821-.608.88.88 0 0 0-.835.602l-2.808 8.887-4.939-4.942c-.274-.272-.691-.327-1.037-.134a.85.85 0 0 0-.389.956l1.771 6.509a8.49 8.49 0 0 0 8.193 6.249h0a8.47 8.47 0 0 0 8.178-6.249l1.785-6.509z" class="D"/><path d="M136.462 54.567c0-1.987-1.613-3.6-3.6-3.6h-16.649c-1.987 0-3.6 1.613-3.6 3.6s1.613 3.6 3.6 3.6h16.649a3.6 3.6 0 0 0 3.6-3.6h0z" class="I"/><path d="M134.503 42.529c.101-.37-.072-.763-.403-.956s-.749-.138-1.022.134l-4.939 4.942-2.736-8.881a.87.87 0 0 0-.821-.608.88.88 0 0 0-.835.602l-2.808 8.887L116 41.707c-.274-.272-.691-.327-1.037-.134a.85.85 0 0 0-.389.956l1.771 6.509a8.49 8.49 0 0 0 8.193 6.249h0a8.47 8.47 0 0 0 8.178-6.249l1.785-6.509z" class="D"/></g><g clip-path="url(#E)"><g class="B"><use href="#Y" class="P"/><g class="L"><path d="M254.849 48.287l-30.002 42.244 6.739 49.493h46.526l6.739-49.493-30.002-42.244z"/><use href="#Y"/></g><path d="M254.849 48.287l-30.002 42.244 6.739 49.493h23.263V48.287z" opacity=".35" class="Q"/><g class="L"><path d="M224.847 90.531l6.739 49.493h46.526l6.739-49.493h-60.004z"/><path d="M224.847 90.531l6.739 49.493h-20.218l-12.597-49.493h26.076z" class="F"/></g><path d="M310.928 90.531l-12.598 49.493h-20.218l6.739-49.493h26.077z" fill="#c7d6ce" class="F"/><g class="Q"><path d="M254.849 90.531h30.002l-6.739 49.493h-23.263V90.531z" opacity=".25"/><path d="M254.849 90.531h-30.002l6.739 49.493h23.263V90.531z" opacity=".15"/></g></g><g clip-path="url(#F)" class="L"><path d="M274.047 147.705l-15.731-.443 62.321-107.478h15.988l-62.578 107.921z" opacity=".35"/></g></g><g clip-path="url(#G)"><g fill="#474081" class="B"><path d="M242.399 112.336l.14.021.137.033.136.045.131.056.124.068.117.078.111.089.104.097.094.107.085.114.075.121.062.127.052.133.042.136.03.139.016.141.003.142-.009.142-.02.141-.033.138-9.309 32.585-.046.135-.058.13-.066.125-.078.119-.091.111-.098.104-.104.094-.114.084-.121.075-.127.063-.133.052-.137.041-.14.028-.14.017-.141.004-.143-.009-.14-.021-.14-.033-.134-.045-.13-.057-.124-.067-.12-.079-.111-.088-.105-.098-.091-.106-.084-.114-.075-.121-.066-.128-.052-.131-.039-.137-.029-.139-.016-.141-.004-.142.007-.142.023-.141.032-.138 9.31-32.585.045-.135.056-.13.068-.125.078-.119.088-.111.098-.103.108-.095.114-.084.12-.075.127-.063.134-.053.134-.04.14-.029.14-.016.143-.004.144.009zm25.184-.005l.14.016.14.029.137.04.134.053.127.063.121.075.114.084.104.095.098.103.091.111.078.119.065.125.059.13.046.135 9.309 32.585.033.138.019.141.01.142-.003.142-.017.141-.029.139-.042.137-.052.131-.062.128-.075.121-.085.114-.094.106-.105.098-.111.088-.117.079-.124.067-.13.057-.137.045-.137.033-.14.021-.143.009-.144-.004-.14-.017-.14-.028-.133-.041-.134-.052-.127-.063-.121-.075-.114-.084-.107-.094-.098-.104-.088-.111-.078-.119-.069-.125-.055-.13-.046-.135-9.309-32.585-.033-.138-.023-.141-.006-.142.003-.142.016-.141.03-.139.039-.136.052-.133.065-.127.075-.121.085-.114.091-.107.104-.097.111-.089.121-.078.124-.068.13-.056.133-.045.141-.033.14-.021.143-.009.14.004z"/></g><path d="M245.532 120.473h18.635v19.551h-18.635z" fill="#191d3e"/></g><g class="B"><path d="M270.378 117.983a2.56 2.56 0 0 1-.696 1.761 2.32 2.32 0 0 1-1.68.73h-26.309a2.31 2.31 0 0 1-1.677-.73c-.447-.467-.696-1.101-.696-1.761v-17.06h31.058v17.06z" fill="#474081"/><path d="M270.378 118.144a2.33 2.33 0 0 1-2.329 2.329H241.65a2.33 2.33 0 0 1-2.329-2.329v-4.188h31.058v4.188z" fill="#262450"/></g><g class="F L"><g clip-path="url(#H)"><path d="M248.742 122.11l-12.808-.094 13.282-22.906h12.862l-13.336 23zm11.659 0l-5.552-.094 13.282-22.906h5.607l-13.337 23z" opacity=".1"/></g></g><g class="B"><path d="M265.168 81.308l-10.319 10.319-10.319-10.319 10.319-22.945 10.319 22.945z" class="L"/><g class="Q"><path d="M254.849 81.308H244.53l10.319 10.319V81.308z" opacity=".25"/><path d="M254.849 81.308h10.319l-10.319-22.945v22.945z" opacity=".15"/><path d="M254.849 81.308h10.319l-10.319 10.319V81.308z" class="G"/></g><path d="M258.842 83.348h0a5.65 5.65 0 0 1-7.986 0h0a5.65 5.65 0 0 1-1.157-6.31l5.15-11.452 5.15 11.452a5.65 5.65 0 0 1-1.157 6.31z" fill="#68e1f9"/></g><g stroke="#f8d680" stroke-width="9.526" class="C O U"><path d="M198.86 141.189h0"/><path d="M208.38 141.189h109.485" stroke-dasharray="0 9.52"/><path d="M322.625 141.189h0"/></g><g clip-path="url(#I)" class="B"><g clip-path="url(#J)"><path d="M731.085,8.37c-1.209,0-2.187-.981-2.187-2.188s.978-2.189,2.187-2.189,2.187.981,2.187,2.189-.978,2.188-2.187,2.188Z" fill="#3b7360"/></g></g><path d="M184.94-10.559h5.447V75.07h-5.447z" class="R"/><path d="M192.496 75.071h-9.668a2.48 2.48 0 0 1-2.479-2.468v-.006a5.46 5.46 0 0 1 5.447-5.47h3.73a5.46 5.46 0 0 1 5.447 5.47v.006a2.48 2.48 0 0 1-2.478 2.468z" class="S"/><g class="R"><path d="M160.497 2.401l14.556-14.556 3.852 3.852-14.556 14.556zm35.924-10.703l3.851-3.852 14.557 14.555-3.851 3.852z"/></g><g class="F"><rect x="176.944" y="-23.421" width="21.436" height="26.381" rx="9.238" fill="#8bcbec"/></g><g class="S"><path d="M178.748 7.049a2.71 2.71 0 0 1-1.423-.404 2.72 2.72 0 0 1-.894-3.745l8.948-14.554c.787-1.285 2.463-1.684 3.745-.894a2.72 2.72 0 0 1 .894 3.745L181.07 5.751c-.513.838-1.407 1.298-2.322 1.298z"/><path d="M196.646 7.049c-.915 0-1.809-.46-2.322-1.298l-8.947-14.554a2.72 2.72 0 1 1 4.639-2.851L198.963 2.9a2.72 2.72 0 0 1-.894 3.745 2.7 2.7 0 0 1-1.423.404z"/></g><g class="L"><path d="M167.531 13.331c-.407 0-.822-.09-1.213-.287-6.993-3.49-11.932-10.283-13.214-18.172-1.266-7.777 1.25-15.477 6.902-21.129l6.737-6.737c1.064-1.064 2.787-1.064 3.851 0s1.064 2.787 0 3.851l-6.737 6.737c-4.463 4.463-6.373 10.288-5.378 16.403 1.003 6.165 4.843 11.464 10.269 14.174a2.72 2.72 0 0 1 1.221 3.652c-.476.955-1.439 1.508-2.439 1.508zm12.826 0a2.73 2.73 0 0 1-2.269-1.21c-4.921-7.373-6.003-25.853-2.187-37.314l2.25-6.737c.476-1.425 2.016-2.197 3.444-1.721a2.72 2.72 0 0 1 1.721 3.444l-2.247 6.737c-3.46 10.392-2.061 27.156 1.551 32.564a2.73 2.73 0 0 1-.753 3.78c-.465.308-.992.458-1.511.458zm14.533 0c-.519 0-1.045-.149-1.511-.46a2.72 2.72 0 0 1-.75-3.777c3.612-5.407 5.011-22.172 1.548-32.564l-2.245-6.737a2.72 2.72 0 0 1 1.721-3.444c1.439-.476 2.968.295 3.444 1.721l2.245 6.737c3.822 11.461 2.74 29.944-2.187 37.314-.524.785-1.386 1.21-2.266 1.21zm12.903 0a2.72 2.72 0 0 1-1.218-5.16c5.426-2.71 9.267-8.009 10.27-14.174.995-6.115-.915-11.94-5.378-16.403l-6.737-6.737c-1.064-1.064-1.064-2.788 0-3.851s2.788-1.064 3.851 0l6.737 6.737c5.652 5.652 8.168 13.352 6.902 21.129-1.282 7.889-6.221 14.682-13.214 18.172-.391.194-.806.287-1.213.287z"/></g><path d="M177.336 64.378h4.869a3.67 3.67 0 0 1 3.668 3.668h0a3.67 3.67 0 0 0 3.668 3.668h6.106a3.67 3.67 0 0 1 3.668 3.668v1.772a3.67 3.67 0 0 1-3.668 3.668h-18.374a3.67 3.67 0 0 1-3.668-3.693l.064-9.107a3.67 3.67 0 0 1 3.668-3.642z" class="K"/><use href="#Z" class="B M"/><g clip-path="url(#K)"><path d="M1083.769 141.929l57.82 49.462h-57.82v-49.462z" class="B D"/><use href="#a" class="H"/></g><use href="#b" class="B M"/><g clip-path="url(#L)"><path d="M1083.769 141.929l-57.82 49.462h57.82v-49.462z" class="B D"/><use href="#c" class="H"/></g><use href="#d" class="B H"/><g clip-path="url(#M)"><path d="M1083.783 139.963h24.482v46.468h-24.482z" class="D"/><path d="M1080.532 137.251h6.477v56.483h-6.477z" class="T"/></g><path d="M852.854 51.977H833.5l-5.245 47.9c-.291 2.655 1.788 4.974 4.459 4.974h21.021c2.674 0 4.754-2.325 4.458-4.982l-5.339-47.891z" fill="#684b48"/><g clip-path="url(#N)" class="B"><use href="#e" fill="#57423a"/></g><path d="M843.225 50.237c0 6.849 2.72 13.42 7.565 18.264a25.83 25.83 0 0 0 18.267 7.565h25.981V58.99a25.83 25.83 0 0 0-7.565-18.267c-4.845-4.841-11.415-7.565-18.267-7.565h-25.981v17.079z" class="B M"/><g clip-path="url(#O)"><path d="M843.225 33.158l57.82 49.462h-57.82V33.158z" class="B D"/><path d="M841.177 35.673l4.094-5.017 51.82 42.286-4.094 5.017z" class="H"/><g class="B"><g class="J"><path d="M873.449 78.863h-6.477V67.969a3.24 3.24 0 0 1 3.238-3.238 3.24 3.24 0 0 1 3.238 3.238v10.894zm-12.953.479h-6.477V57.846c0-1.788 1.448-3.235 3.235-3.235h.007c1.787 0 3.235 1.448 3.235 3.235v21.496z" class="F"/></g><g class="D"><use href="#f" class="N"/><path d="M895.038,45.301v-6.477h-19.433c-1.787,0-3.235,1.448-3.235,3.235v.006c0,1.788,1.448,3.235,3.235,3.235h19.433Z" class="N"/></g></g></g><path d="M843.225 50.237c0 6.849-2.72 13.42-7.565 18.264a25.83 25.83 0 0 1-18.267 7.565h-25.981V58.99a25.83 25.83 0 0 1 7.565-18.267c4.845-4.841 11.415-7.565 18.267-7.565h25.981v17.079z" class="B M"/><g clip-path="url(#P)"><path d="M843.225 33.158l-57.82 49.462h57.82V33.158z" class="B D"/><path d="M789.365 72.943l51.814-42.293 4.095 5.017L793.46 77.96z" class="H"/><g class="B"><g class="J"><path d="M813.001 78.863h6.477V67.969a3.24 3.24 0 0 0-3.238-3.238 3.24 3.24 0 0 0-3.238 3.238v10.894zm12.953.479h6.477V57.849a3.23 3.23 0 0 0-.949-2.289 3.24 3.24 0 0 0-4.578 0c-.609.609-.949 1.431-.949 2.289v21.493z" class="F"/></g><g class="D"><use href="#g" class="N"/><use href="#h" class="N"/></g></g></g><path d="M843.24 76.065l-15.518-11.309c-8.571-6.246-9.54-18.671-2.041-26.17l5.428-5.428h24.261l5.428 5.428c7.5 7.5 6.531 19.924-2.041 26.17l-15.518 11.309z" class="B H"/><g clip-path="url(#Q)"><path d="M843.24 31.192h24.482V77.66H843.24z" class="D"/><path d="M839.988 28.48h6.477v56.483h-6.477z" class="T"/><g class="F D"><use href="#i"/></g><g class="F J"><use href="#j"/></g><path d="M820.264 71.584c-1.054 0-2.091-.514-2.711-1.461-.982-1.497-.565-3.504.932-4.484l13.164-8.635c1.497-.987 3.504-.561 4.482.93.982 1.497.565 3.504-.932 4.484l-13.164 8.635a3.21 3.21 0 0 1-1.771.531z" class="D F"/><g class="F J"><path d="M866.186 71.584c-.607 0-1.223-.171-1.771-.531l-13.16-8.635c-1.497-.98-1.914-2.987-.932-4.484a3.23 3.23 0 0 1 4.482-.93l13.16 8.635c1.497.98 1.914 2.987.932 4.484-.62.947-1.657 1.461-2.711 1.461z"/></g></g><use href="#k" class="B I"/><path d="M1202.702,103.251h-19.354l-5.245,47.9c-.291,2.655,1.788,4.974,4.459,4.974h21.021c2.674,0,4.754-2.325,4.458-4.982l-5.339-47.891Z" fill="#684b48"/><g clip-path="url(#R)" class="B"><path d="M1193.087 137.876l-15.821-11.53c-8.739-6.368-9.726-19.035-2.08-26.681l5.534-5.534h24.735l5.534 5.534c7.646 7.646 6.658 20.313-2.08 26.681l-15.821 11.53z" fill="#57423a"/></g><path d="M1193.072 101.51c0 6.849 2.72 13.42 7.565 18.264a25.83 25.83 0 0 0 18.267 7.565h25.981v-17.076a25.83 25.83 0 0 0-7.565-18.267c-4.845-4.841-11.415-7.565-18.267-7.565h-25.981v17.079z" class="B M"/><g clip-path="url(#S)"><path d="M1193.072 84.431l57.82 49.462h-57.82V84.431z" class="B D"/><path d="M1191.026 86.948l4.094-5.017 51.82 42.286-4.094 5.017z" class="H"/><g class="B"><g class="J"><path d="M1223.296 130.137h-6.477v-10.894a3.24 3.24 0 0 1 3.238-3.238 3.24 3.24 0 0 1 3.238 3.238v10.894zm-12.953.479h-6.477V109.12c0-1.788 1.448-3.235 3.235-3.235h.007c1.787 0 3.235 1.448 3.235 3.235v21.496z" class="F"/></g><g class="D"><path d="M1244.885 109.185v-6.133h-9.887a3.07 3.07 0 0 0-2.17.9c-.573.573-.897 1.354-.897 2.166h0c0 .816.324 1.593.897 2.17a3.06 3.06 0 0 0 2.17.897h9.887zm0-12.61v-6.477h-19.433c-1.787 0-3.235 1.448-3.235 3.235v.006c0 1.788 1.448 3.235 3.235 3.235h19.433z" class="N"/></g></g></g><path d="M1193.072 101.51c0 6.849-2.72 13.42-7.565 18.264a25.83 25.83 0 0 1-18.267 7.565h-25.981v-17.076a25.83 25.83 0 0 1 7.565-18.267c4.845-4.841 11.415-7.565 18.267-7.565h25.981v17.079z" class="B M"/><g clip-path="url(#T)"><path d="M1193.072 84.431l-57.82 49.462h57.82V84.431z" class="B D"/><path d="M1139.211 124.216l51.814-42.293 4.095 5.017-51.814 42.293z" class="H"/><g class="B"><g class="J"><path d="M1162.848 130.137h6.477v-10.894a3.24 3.24 0 0 0-3.238-3.238 3.24 3.24 0 0 0-3.238 3.238v10.894zm12.953.479h6.477v-21.493a3.23 3.23 0 0 0-.949-2.289 3.24 3.24 0 0 0-4.578 0c-.609.609-.949 1.431-.949 2.289v21.493z" class="F"/></g><g class="D"><path d="M1141.26 109.528v-6.477h9.718a3.22 3.22 0 0 1 3.235 3.235v.006a3.23 3.23 0 0 1-3.235 3.235h-9.718zm0-12.953v-6.477h19.43a3.24 3.24 0 0 1 2.289.949c.609.609.949 1.431.949 2.289s-.34 1.684-.949 2.289a3.23 3.23 0 0 1-2.289.949h-19.43z" class="N"/></g></g></g><path d="M1193.087 127.339l-15.518-11.309c-8.571-6.246-9.54-18.671-2.041-26.17l5.428-5.428h24.261l5.428 5.428c7.5 7.5 6.531 19.924-2.041 26.17l-15.518 11.309z" class="B H"/><g clip-path="url(#U)"><path d="M1193.087 82.465h24.482v46.468h-24.482z" class="D"/><path d="M1189.836 79.754h6.477v56.483h-6.477z" class="T"/><g class="F D"><path d="M1170.111 108.091c-1.054 0-2.091-.514-2.711-1.461-.982-1.497-.565-3.504.932-4.484l13.164-8.635c1.497-.987 3.504-.561 4.482.93.982 1.497.565 3.504-.932 4.484l-13.164 8.635a3.21 3.21 0 0 1-1.771.531z"/></g><g class="F J"><path d="M1216.033 108.091c-.607 0-1.223-.171-1.771-.531l-13.16-8.635c-1.497-.98-1.914-2.987-.932-4.484a3.23 3.23 0 0 1 4.482-.93l13.16 8.635c1.497.98 1.914 2.987.932 4.484-.62.947-1.657 1.461-2.711 1.461z"/></g><path d="M1170.111 122.857c-1.054 0-2.091-.514-2.711-1.461-.982-1.497-.565-3.504.932-4.484l13.164-8.635c1.497-.987 3.504-.561 4.482.93.982 1.497.565 3.504-.932 4.484l-13.164 8.635a3.21 3.21 0 0 1-1.771.531z" class="D F"/><g class="F J"><path d="M1216.033 122.857c-.607 0-1.223-.171-1.771-.531l-13.16-8.635c-1.497-.98-1.914-2.987-.932-4.484a3.23 3.23 0 0 1 4.482-.93l13.16 8.635c1.497.98 1.914 2.987.932 4.484-.62.947-1.657 1.461-2.711 1.461z"/></g></g><g class="B"><path d="M1130.643 159.131h.004a34.29 34.29 0 0 0 23.686-9.497l7.372-7.048c6.733-6.433 17.387-6.249 23.895.412l6.15 6.298c6.142 6.289 14.564 9.834 23.352 9.834h.004-84.464z" class="K"/><path d="M1373.548 60.972c0-6.644 5.382-12.038 12.011-12.038h61.799c6.629 0 12.011 5.394 12.011 12.038v10.607c0 6.644-5.382 12.038-12.011 12.038h-61.799c-6.629 0-12.011-5.394-12.011-12.038V60.972z" class="G"/><path d="M1373.548 34.624c0-2.092.829-4.099 2.305-5.578s3.478-2.311 5.565-2.311h17.414c1.511 0 2.933-.713 3.84-1.924l5.671-7.579a3.98 3.98 0 0 1 3.184-1.596h32.086c1.209 0 2.353.551 3.108 1.497l9.879 12.376v27.35c0 2.078-.548 4.119-1.587 5.917l-7.034 12.16c-1.518 2.625-4.316 4.24-7.343 4.24h-48.633l-18.456-18.498V34.622z" class="I"/></g><g clip-path="url(#V)" class="B K"><path d="M1409.537 1.764h47.063v47.17h-38.419c-4.774 0-8.644-3.879-8.644-8.664V1.764zm-55.368 11.098h47.063v40.397c0 3.741-3.026 6.773-6.758 6.773h-40.305v-47.17z"/></g><g fill="#e0aa48" class="B"><path d="M1431.685 38.115c0-.81.321-1.587.893-2.16s1.347-.895 2.155-.895h10.516c.808 0 1.584.322 2.155.895a3.06 3.06 0 0 1 .893 2.16v2.215c0 .81-.321 1.587-.893 2.16s-1.347.895-2.155.895h-10.516c-.808 0-1.584-.322-2.155-.895a3.06 3.06 0 0 1-.893-2.16v-2.215zm-35.99 30.521a3.05 3.05 0 0 1 3.047-3.054h29.895a3.05 3.05 0 0 1 3.047 3.054v2.215a3.05 3.05 0 0 1-3.047 3.054h-29.895a3.05 3.05 0 0 1-3.047-3.054v-2.215z"/></g><g class="G"><path d="M1352.647 75.178h-10.815c-1.587 0-2.873-1.286-2.873-2.873s1.286-2.873 2.873-2.873h10.815c1.587 0 2.873 1.286 2.873 2.873s-1.286 2.873-2.873 2.873zm-21.333 0h-12.681c-1.587 0-2.873-1.286-2.873-2.873s1.286-2.873 2.873-2.873h12.681c1.587 0 2.873 1.286 2.873 2.873s-1.286 2.873-2.873 2.873zm30.457 0h-.753c-1.587 0-2.873-1.286-2.873-2.873s1.286-2.873 2.873-2.873h.753c1.587 0 2.873 1.286 2.873 2.873s-1.286 2.873-2.873 2.873zm-20.159 13.747h-4.482c-1.587 0-2.873-1.286-2.873-2.873s1.286-2.873 2.873-2.873h4.482c1.587 0 2.873 1.286 2.873 2.873s-1.286 2.873-2.873 2.873zm15.675 0h-.752c-1.587 0-2.873-1.286-2.873-2.873s1.286-2.873 2.873-2.873h.752c1.587 0 2.873 1.286 2.873 2.873s-1.286 2.873-2.873 2.873z"/></g><g class="B"><path d="M477.561,41.391c0-4.751,3.848-8.608,8.588-8.608h44.189c4.74,0,8.588,3.857,8.588,8.608v7.585c0,4.751-3.848,8.608-8.588,8.608h-44.189c-4.74,0-8.588-3.857-8.588-8.608v-7.585Z" class="G"/><path d="M477.561 22.551c0-1.496.593-2.931 1.648-3.988a5.62 5.62 0 0 1 3.979-1.652h12.452a3.43 3.43 0 0 0 2.745-1.376l4.055-5.419c.537-.718 1.381-1.141 2.277-1.141h22.943c.864 0 1.682.394 2.222 1.071l7.064 8.85v19.556c0 1.486-.392 2.945-1.135 4.231l-5.029 8.695c-1.086 1.877-3.086 3.032-5.251 3.032h-34.775l-13.197-13.227V22.552z" class="I"/></g><g clip-path="url(#W)" class="B K"><path d="M503.295-.946h33.652v33.729h-27.471a6.19 6.19 0 0 1-6.181-6.195V-.946zM463.704 6.99h33.652v28.886c0 2.675-2.163 4.843-4.832 4.843h-28.82V6.99z"/></g><g fill="#e0aa48"><path d="M519.131 25.047a2.19 2.19 0 0 1 .638-1.544c.409-.41.963-.64 1.541-.64h7.519c.578 0 1.132.23 1.541.64s.638.965.638 1.544v1.584a2.19 2.19 0 0 1-.638 1.544c-.409.41-.963.64-1.541.64h-7.519c-.578 0-1.132-.23-1.541-.64s-.638-.965-.638-1.544v-1.584z" class="B"/><rect x="493.397" y="44.687" width="25.734" height="5.952" rx="2.184"/></g><g class="G"><path d="M457.712 49.568H447.44a2.73 2.73 0 0 1-2.729-2.729 2.73 2.73 0 0 1 2.729-2.729h10.272a2.73 2.73 0 0 1 2.729 2.729 2.73 2.73 0 0 1-2.729 2.729zm-20.261 0h-12.043a2.73 2.73 0 0 1-2.729-2.729 2.73 2.73 0 0 1 2.729-2.729h12.043a2.73 2.73 0 0 1 2.729 2.729 2.73 2.73 0 0 1-2.729 2.729z"/><use href="#l"/><path d="M447.232 62.623h-4.258a2.73 2.73 0 0 1-2.729-2.729 2.73 2.73 0 0 1 2.729-2.729h4.258a2.73 2.73 0 0 1 2.729 2.729 2.73 2.73 0 0 1-2.729 2.729zm14.886 0h-.715a2.73 2.73 0 0 1-2.729-2.729 2.73 2.73 0 0 1 2.729-2.729h.715a2.73 2.73 0 0 1 2.729 2.729 2.73 2.73 0 0 1-2.729 2.729z"/></g><g class="S"><path d="M1297.648 161.11c-.992 0-1.985-.379-2.742-1.136l-20.732-20.732a3.88 3.88 0 0 1 0-5.485 3.88 3.88 0 0 1 5.485 0l20.732 20.732a3.88 3.88 0 0 1 0 5.485 3.87 3.87 0 0 1-2.743 1.136zm30.43 0a3.87 3.87 0 0 1-2.743-1.136 3.88 3.88 0 0 1 0-5.485l20.732-20.732a3.88 3.88 0 0 1 5.485 0 3.88 3.88 0 0 1 0 5.485l-20.732 20.732a3.87 3.87 0 0 1-2.742 1.136z"/></g><g class="F"><rect x="1297.599" y="138.443" width="30.53" height="37.572" rx="13.156" fill="#8bcbec"/></g><g class="R"><path d="M1312.918 161.11c-1.303 0-2.576-.655-3.307-1.849l-12.743-20.732c-1.125-1.826-.553-4.212 1.273-5.334 1.818-1.125 4.212-.557 5.334 1.273l12.743 20.732c1.125 1.826.553 4.212-1.273 5.334a3.85 3.85 0 0 1-2.027.576z"/><path d="M1312.907 161.11c-.693 0-1.394-.186-2.027-.576-1.826-1.121-2.398-3.508-1.273-5.334l12.743-20.732a3.87 3.87 0 0 1 5.334-1.273c1.826 1.121 2.398 3.508 1.273 5.334l-12.743 20.732a3.87 3.87 0 0 1-3.307 1.849z"/></g><g class="L"><path d="M1284.193 190.785a3.83 3.83 0 0 1-1.727-.409c-9.959-4.97-16.993-14.645-18.819-25.88-1.803-11.076 1.78-22.043 9.83-30.092l9.595-9.595c1.515-1.516 3.97-1.516 5.485 0a3.88 3.88 0 0 1 0 5.485l-9.595 9.595c-6.356 6.356-9.076 14.652-7.659 23.361 1.428 8.78 6.898 16.327 14.626 20.186 1.917.955 2.697 3.284 1.739 5.201a3.88 3.88 0 0 1-3.474 2.148zm18.266 0c-1.254 0-2.481-.606-3.231-1.723-7.008-10.501-8.55-36.82-3.114-53.143l3.205-9.595a3.88 3.88 0 0 1 4.906-2.451c2.034.678 3.129 2.875 2.451 4.906l-3.201 9.595c-4.928 14.8-2.936 38.676 2.209 46.377 1.189 1.784.708 4.194-1.072 5.383-.663.439-1.413.652-2.151.652zm20.698 0c-.739 0-1.489-.212-2.152-.655-1.78-1.189-2.261-3.599-1.068-5.379 5.144-7.701 7.137-31.577 2.205-46.377l-3.197-9.595c-.678-2.034.42-4.231 2.451-4.906 2.049-.678 4.228.421 4.906 2.451l3.197 9.595c5.443 16.323 3.902 42.646-3.114 53.143a3.87 3.87 0 0 1-3.227 1.723zm18.376 0c-1.424 0-2.796-.784-3.474-2.148-.958-1.917-.178-4.246 1.739-5.201 7.728-3.86 13.198-11.406 14.626-20.186 1.417-8.709-1.303-17.005-7.66-23.361l-9.595-9.595a3.88 3.88 0 0 1 0-5.485c1.515-1.516 3.97-1.516 5.485 0l9.595 9.595c8.05 8.05 11.633 19.016 9.83 30.092-1.826 11.236-8.86 20.91-18.819 25.88-.557.276-1.148.409-1.727.409z"/></g><g class="B"><path d="M1214.649-2.193c0-4.813 3.904-8.72 8.714-8.72h54.75c4.809 0 8.714 3.907 8.714 8.72V5.49c0 4.813-3.904 8.72-8.714 8.72h-54.75c-4.809 0-8.714-3.907-8.714-8.72v-7.683z" class="G"/><path d="M1254.332-29.518c-1.257-2.096-3.521-3.379-5.964-3.379h-5.227c-2.479 0-4.771 1.321-6.015 3.466l-14.803 25.526a2.97 2.97 0 0 0 .92 3.959l7.096 4.734h31.381l4.467 4.47c1.097 1.099 2.743 1.436 4.184.86l10.728-4.294a2.97 2.97 0 0 0 1.715-3.684l-4.357-13.226a8.89 8.89 0 0 0-8.439-6.108h-8.298l-7.388-12.323z" class="I"/><path d="M1203.583 32.064c-2.613 0-5.17-1.06-7.015-2.91-1.843-1.84-2.902-4.396-2.902-7.011v-3.305c0-2.646 1.03-5.137 2.902-7.011 1.846-1.85 4.402-2.91 7.015-2.91h9.578a9.85 9.85 0 0 1 7.015 2.91 9.85 9.85 0 0 1 2.903 7.011v3.305a9.98 9.98 0 0 1-2.911 7.019 9.84 9.84 0 0 1-7.007 2.902h-9.578z" class="G"/><path d="M1198.958 18.839a4.63 4.63 0 0 1 1.354-3.273c.867-.868 2.044-1.356 3.271-1.356h9.579a4.62 4.62 0 0 1 3.27 1.356 4.63 4.63 0 0 1 1.355 3.273v3.305c0 1.078-.487 2.405-1.355 3.273s-2.044 1.356-3.27 1.356h-9.579c-1.227 0-2.403-.488-3.271-1.356a4.63 4.63 0 0 1-1.354-3.273v-3.305z" class="K"/><path d="M1266.346,43.055c-5.47,0-9.918-4.45-9.918-9.921,0-5.634,4.449-10.084,9.918-10.084h3.303c5.468,0,9.917,4.45,9.917,9.921,0,5.634-4.449,10.084-9.917,10.084h-3.303Z" class="G"/></g><path d="M1266.346 28.342h3.299a4.63 4.63 0 0 1 4.628 4.628v.168a4.63 4.63 0 0 1-4.625 4.625h-3.303a4.63 4.63 0 0 1-4.625-4.625v-.171a4.63 4.63 0 0 1 4.625-4.625z" class="K"/><g class="G"><path d="M1309.933 26.247h-10.315a2.74 2.74 0 1 1 0-5.48h10.315a2.74 2.74 0 1 1 0 5.48zm22.124 0h-12.094a2.74 2.74 0 1 1 0-5.48h12.094a2.74 2.74 0 1 1 0 5.48z"/><use href="#m"/><path d="M1314.418 13.136h-4.276a2.74 2.74 0 1 1 0-5.48h4.276a2.74 2.74 0 1 1 0 5.48zm-18.507 0h-.718a2.74 2.74 0 1 1 0-5.48h.718a2.74 2.74 0 1 1 0 5.48z"/></g></g></svg>