<svg xmlns="http://www.w3.org/2000/svg" width="1500" height="145" xmlns:v="https://vecta.io/nano"><style><![CDATA[.B{fill-rule:evenodd}.C{fill:none}.D{fill:#869d33}.E{clip-rule:evenodd}.F{opacity:.5}.G{fill:#fff}.H{stroke-linecap:round}.I{fill:#ee7445}.J{fill:#ce612b}.K{stroke-linejoin:round}.L{fill:#dd4d1c}.M{fill:#507944}.N{fill:#e38d32}.O{fill:#0d1c1c}.P{stroke:#f0be5b}.Q{stroke-width:10}.R{fill:#593021}.S{fill:#bfcd53}.T{fill:#e79c43}.U{fill:#f6cf49}.V{fill:#d59660}.W{stroke-dasharray:0 10}]]></style><defs><clipPath id="A"><path d="M0 0h1500v145H0z" class="C"/></clipPath><clipPath id="B"><path d="M136.352 112.15l-71.084 8.885v31.099h51.092l19.992-39.984z" class="C E"/></clipPath><clipPath id="C"><path d="M136.352 112.15l71.084 8.885v31.099h-51.091l-19.993-39.984z" class="C E"/></clipPath><clipPath id="D"><path d="M638.277-34.146h-19.544l-5.296 48.37a4.53 4.53 0 0 0 4.503 5.023h21.227a4.53 4.53 0 0 0 4.502-5.031l-5.391-48.361z" class="C"/></clipPath><clipPath id="E"><path d="M523.006-77.972l-44.585,44.585c-5.912,5.912-13.931,9.234-22.292,9.234h-18.468c-17.411,0-31.526,14.115-31.526,31.526h0c0,17.411,14.115,31.526,31.526,31.526h181.714c23.882,0,45.715-13.493,56.395-34.854h0c20.962-41.924-9.524-91.25-56.395-91.25h-74.078c-8.361,0-16.38,3.321-22.292,9.234Z" class="C"/></clipPath><clipPath id="F"><path d="M632.215 97.659h-14.14l-3.832 34.995a3.28 3.28 0 0 0 3.258 3.634h15.357a3.28 3.28 0 0 0 3.257-3.64l-3.9-34.988z" class="C"/></clipPath><clipPath id="G"><path d="M625.18 96.387c0 5.004 1.987 9.804 5.527 13.343s8.34 5.527 13.346 5.527h18.981v-12.475a18.87 18.87 0 0 0-5.527-13.346c-3.539-3.537-8.34-5.527-13.346-5.527H625.18v12.477z" class="C E"/></clipPath><clipPath id="H"><path d="M625.18 96.387c0 5.004-1.987 9.804-5.527 13.343s-8.34 5.527-13.346 5.527h-18.981v-12.475a18.87 18.87 0 0 1 5.527-13.346c3.539-3.537 8.34-5.527 13.346-5.527h18.981v12.477z" class="C E"/></clipPath><clipPath id="I"><path d="M625.19 115.257l-11.337-8.262c-6.262-4.564-6.97-13.64-1.491-19.119l3.966-3.966h17.725l3.966 3.966c5.479 5.479 4.771 14.556-1.491 19.119l-11.337 8.262z" class="C E"/></clipPath><clipPath id="J"><path d="M846.856 113.265V90.137c0-2.555 2.071-4.626 4.626-4.626h46.256c2.555 0 4.626 2.071 4.626 4.626v16.193h-17.253a12.83 12.83 0 0 0-6.609 1.827l-5.472 3.281c-1.999 1.199-4.277 1.826-6.608 1.826h-19.565z" class="C E"/></clipPath><path id="K" d="M206.326 101.95l1.281-1.813 31.441 22.214-1.281 1.813z"/><path id="L" d="M35.749 122.35l31.441-22.214 1.281 1.813-31.441 22.214z"/><path id="M" d="M209.658,99.932c0-1.839-1.493-3.332-3.332-3.332s-3.332,1.493-3.332,3.332v4.532c0,1.839,1.493,3.332,3.332,3.332s3.332-1.493,3.332-3.332v-4.532Z"/><path id="N" d="M209.658 133.253a3.34 3.34 0 0 0-3.332-3.332 3.34 3.34 0 0 0-3.332 3.332v18.882h6.664v-18.882z"/><path id="O" d="M145.238 138.895h22.214v4.354h-22.214z"/><path id="P" d="M523.006-77.972l-44.585,44.585c-5.912,5.912-13.931,9.234-22.292,9.234h-18.468c-17.411,0-31.526,14.115-31.526,31.526h0c0,17.411,14.115,31.526,31.526,31.526h181.714c23.882,0,45.715-13.493,56.395-34.854h0c20.962-41.924-9.524-91.25-56.395-91.25h-74.078c-8.361,0-16.38,3.321-22.292,9.234Z"/><path id="Q" d="M608.404 101.195c-.77 0-1.528-.376-1.981-1.067-.718-1.094-.413-2.56.681-3.276l9.617-6.309c1.094-.721 2.56-.41 3.275.679s.413 2.56-.681 3.276l-9.617 6.309a2.35 2.35 0 0 1-1.294.388z"/><path id="R" d="M641.954 101.195a2.35 2.35 0 0 1-1.294-.388l-9.614-6.309c-1.094-.716-1.399-2.183-.681-3.276a2.36 2.36 0 0 1 3.275-.679l9.614 6.309c1.094.716 1.399 2.183.681 3.276-.453.692-1.211 1.067-1.981 1.067z"/><path id="S" d="M876.922 104.014c0-1.277 1.035-2.313 2.313-2.313s2.313 1.035 2.313 2.313v6.945h-4.626v-6.945z"/><path id="T" d="M495.704 99.584h1.677v2.515h-1.677z"/></defs><g clip-path="url(#A)"><path d="M-11.618-3511.127h1523.237v5153.382H-11.618z" fill="#04d5d8"/><path d="M881.245 780.825c-41.651 0-84.385-27.125-101.61-64.497-.533-1.156-1.755-1.965-2.971-1.965H-33.074l-4.116-238.479v-2108.088H220.6a127.35 127.35 0 0 1 78.961 27.557c22.556 17.938 38.384 43.268 44.57 71.323 3.204 14.528 16.339 25.073 31.234 25.073h152.318c17.632 0 31.977-14.345 31.977-31.977v-7.461c0-93.816 76.325-170.141 170.141-170.141h188.858c93.815 0 170.141 76.325 170.141 170.141 0 21.746 17.691 39.438 39.438 39.438h107.816a126.03 126.03 0 0 1 81.637 30.053c22.736 19.364 37.892 46.267 42.676 75.756 1.474 9.081 6.199 17.445 13.308 23.553 7.14 6.134 16.239 9.513 25.621 9.513h257.685V608.808h-347.973c-14.935 0-29.001 5.855-39.61 16.487s-16.432 24.712-16.398 39.649c.068 30.785-11.914 59.787-33.741 81.663-22.018 22.065-51.313 34.218-82.491 34.218H881.247z" fill="#7ee5e3"/><path d="M881.245 750.825c-30.031 0-62-20.229-74.365-47.055-5.434-11.789-17.294-19.407-30.216-19.407H442.665c-65.402 0-118.718-53.601-118.852-119.485-.132-65.613-53.623-118.993-119.239-118.993H-7.19v-2048.089H220.6c21.818 0 43.229 7.471 60.289 21.038 17.183 13.665 29.239 32.95 33.947 54.302 6.211 28.168 31.668 48.613 60.53 48.613h152.318c34.174 0 61.977-27.802 61.977-61.977v-7.461c0-77.274 62.867-140.141 140.141-140.141H918.66c77.273 0 140.141 62.867 140.141 140.141 0 38.288 31.149 69.438 69.438 69.438h107.816a96 96 0 0 1 62.186 22.893c17.322 14.753 28.869 35.252 32.515 57.721 2.604 16.051 10.902 30.79 23.368 41.502a69.36 69.36 0 0 0 45.173 16.76h227.685V578.808h-317.973c-22.96 0-44.569 8.984-60.847 25.297s-25.213 37.942-25.162 60.906c.051 22.76-8.82 44.213-24.979 60.407-16.348 16.384-38.102 25.407-61.254 25.407H881.246z" fill="#fceea3"/><path d="M881.244 720.825c-18.075 0-39.553-13.196-47.119-29.612-10.016-21.73-32.006-36.85-57.462-36.85H442.665c-49.251 0-88.752-40.294-88.852-89.545-.166-82.151-67.05-148.933-149.239-148.933H-47.26v-1988.089H220.6c31.082 0 58.247 21.448 64.94 51.8 9.09 41.22 45.913 72.153 89.826 72.153h152.318c50.797 0 91.977-41.179 91.977-91.977v-7.461c0-60.829 49.312-110.14 110.14-110.14H918.66c60.829 0 110.14 49.312 110.14 110.14h0c0 54.918 44.52 99.438 99.438 99.438h107.816c32.355 0 59.906 23.48 65.087 55.417 7.666 47.26 48.763 83.458 98.155 83.458h197.685V548.808h-287.973c-64.054 0-116.15 52.182-116.008 116.269.068 30.868-25.365 55.749-56.233 55.749H881.246z" fill="#f8d680"/><path d="M1687.368-255.03h-678.562c-39.92 0-72.282 32.362-72.282 72.282h0c0 39.92-32.362 72.282-72.282 72.282H512.996c-19.336 0-35.012 15.675-35.012 35.012h0c0 19.336-15.675 35.012-35.012 35.012h-70.813c-63.811 0-115.539 51.729-115.539 115.539v19.65c0 63.811 51.729 115.539 115.539 115.539h252.648c31.188 0 56.47 25.283 56.47 56.47h0c0 31.188 25.283 56.471 56.47 56.471h300.423c41.168 0 74.541 33.373 74.541 74.541h0c0 41.168 33.373 74.541 74.541 74.541h500.115V-255.03z" fill="#f0be5b"/><path d="M1677.383-255.03h-668.577c-39.92 0-72.282 32.362-72.282 72.282h0c0 39.92-32.362 72.282-72.282 72.282H512.996c-19.336 0-35.012 15.675-35.012 35.012s-15.675 35.012-35.012 35.012h-70.813c-63.811 0-115.539 51.729-115.539 115.54v19.65c0 63.811 51.729 115.54 115.539 115.54h252.648c31.188 0 56.47 25.283 56.47 56.47s25.283 56.47 56.47 56.47h300.423c41.168 0 74.541 33.373 74.541 74.541s33.373 74.541 74.541 74.541h495.123" stroke-dasharray="0 9.985" class="C H K P Q"/><g class="I"><use href="#K"/><path d="M206.326 133.049l1.281-1.813 31.441 22.214-1.281 1.813z"/><use href="#L"/></g><g class="B R"><use href="#M"/><path d="M69.711,99.932c0-1.839-1.493-3.332-3.332-3.332s-3.332,1.493-3.332,3.332v4.532c0,1.839,1.493,3.332,3.332,3.332s3.332-1.493,3.332-3.332v-4.532Z"/></g><path d="M107.474 98.821h59.977v53.313h-59.977z" fill="#662812"/><path d="M116.36 98.821h39.985v28.878H116.36z" fill="#f4af61"/><path d="M136.352 112.15l-71.084 8.885v31.099h51.092l19.992-39.984z" class="B I"/><g clip-path="url(#B)" class="B L"><path d="M136.352 86.737l-71.084 19.904v31.099l71.084-19.904V86.737z" opacity=".359"/></g><path d="M136.352 112.15l71.084 8.885v31.099h-51.091l-19.993-39.984z" class="B I"/><g clip-path="url(#C)" class="B L"><path d="M136.352 86.737l71.084 19.904v31.099l-71.084-19.904V86.737z" opacity=".359"/></g><path d="M35.749 153.449l31.441-22.214 1.281 1.813-31.441 22.214z" class="I"/><g class="B"><path d="M136.352 81.139l-71.084 19.904v31.099l71.084-19.904V81.139z" fill="#bd481f"/><path d="M136.352 81.139l71.084 19.904v31.099l-71.084-19.904V81.139z" class="L"/><use href="#N" class="R"/><path d="M167.451 120.162c0-.749-.491-1.406-1.206-1.622l-18.999-5.7a1.56 1.56 0 0 0-2.008 1.493v37.801h22.214v-31.972z" fill="#efb62e"/><path d="M69.711 133.253a3.34 3.34 0 0 0-3.332-3.332 3.34 3.34 0 0 0-3.332 3.332v18.882h6.664v-18.882z" class="R"/></g><g class="L"><use href="#O"/><path d="M145.238 130.009h22.214v4.354h-22.214zm0-8.885h22.214v4.354h-22.214z"/></g><g class="B"><path d="M138.574 81.139a2.22 2.22 0 1 0-4.442 0v31.099a2.22 2.22 0 1 0 4.442 0V81.139z" class="I"/><path d="M196.172 25.095c0-3.071-2.49-5.562-5.562-5.562h-4.86v6.652h1.329a2.44 2.44 0 0 1 2.44 2.44v7.538h6.652V25.094z" fill="#a18356"/><path d="M199.498 37.626c0-.387-.155-.759-.43-1.034a1.46 1.46 0 0 0-1.034-.428h-8.514v7.86c0 2.189 1.775 3.965 3.965 3.965h6.013V37.626z" fill="#635049"/><path d="M119.556 39.478a9.84 9.84 0 0 1-6.969-2.88 9.85 9.85 0 0 1-2.887-6.966V-7.072h-3.976c-1.426 0-2.583-1.158-2.583-2.584v-4.068l-3.631-.048a3.16 3.16 0 0 1-3.115-3.157v-3.615a3.16 3.16 0 0 1 3.157-3.157h16.798v-3.326c0-1.837 1.489-3.325 3.324-3.325h.003c1.836 0 3.324 1.487 3.324 3.325V7.14a3.9 3.9 0 0 0 3.896 3.896h.002a3.82 3.82 0 0 0 3.76-3.15l1.815-10.21c.577-3.239 3.392-5.596 6.68-5.596h.373c3.317 0 6.146 2.397 6.691 5.668l1.597 9.578c.48 2.88 2.972 4.99 5.89 4.99h.002a5.97 5.97 0 0 0 5.89-4.99l1.597-9.578c.545-3.271 3.376-5.668 6.693-5.668h.394c3.279 0 6.09 2.344 6.676 5.57l1.834 10.088a5.2 5.2 0 0 0 3.273 3.935 2.16 2.16 0 0 0 .103.039 9.35 9.35 0 0 1 6.026 8.737v12.815a6.2 6.2 0 0 1-1.814 4.38c-1.162 1.163-2.739 1.814-4.382 1.814l-60.442.02z" fill="#b29569"/><path d="M1440.274 41.883a3.66 3.66 0 0 0-1.074-2.591c-.687-.688-1.62-1.075-2.593-1.075h-26.902c-.973 0-1.906.387-2.593 1.075s-1.074 1.62-1.074 2.591v.005c0 .973.385 1.904 1.074 2.593a3.67 3.67 0 0 0 2.593 1.074h26.902a3.67 3.67 0 0 0 2.593-1.074c.688-.688 1.074-1.62 1.074-2.593v-.005z" fill="#dca646"/><g fill="#a9c05a"><path d="M1415.82 34.548a3.67 3.67 0 0 0-3.667-3.667h-.005c-.971 0-1.904.387-2.591 1.074a3.67 3.67 0 0 0-1.075 2.593v3.92c0 1.231.489 2.412 1.36 3.281a4.64 4.64 0 0 0 3.281 1.36h2.696v-8.561zm14.673-4.892c0-2.025-1.641-3.666-3.666-3.666h-.005c-2.025 0-3.666 1.641-3.666 3.666v13.452h7.337V29.656z"/><path d="M1423.156 29.656c0-2.025-1.641-3.666-3.666-3.666h-.003c-2.025 0-3.666 1.641-3.666 3.666v13.452h7.335V29.656zm14.672 4.892c0-.973-.385-1.904-1.074-2.593a3.67 3.67 0 0 0-2.593-1.074h-.003a3.67 3.67 0 0 0-3.667 3.667v8.561h2.695a4.64 4.64 0 0 0 4.64-4.641v-3.92z"/></g></g><path d="M638.277-34.146h-19.544l-5.296 48.37a4.53 4.53 0 0 0 4.503 5.023h21.227a4.53 4.53 0 0 0 4.502-5.031l-5.391-48.361z" fill="#684b48"/><g clip-path="url(#D)" class="B"><path d="M628.568.819l-15.977-11.643c-8.825-6.431-9.822-19.222-2.101-26.943l5.589-5.589h24.977l5.589 5.589c7.721 7.721 6.724 20.512-2.101 26.943L628.567.819z" fill="#57423a"/></g><path d="M606.858 19.247h44.55" stroke="#8ed54c" stroke-dasharray="0 17.89" stroke-width="17.89" class="C H K"/><g clip-path="url(#E)"><use href="#P" fill="#54bebb"/><path d="M529.766-61.12l-44.585,44.585c-5.912,5.912-13.931,9.234-22.292,9.234h-18.468c-17.411,0-31.526,14.115-31.526,31.526h0c0,17.411,14.115,31.526,31.526,31.526h181.714c23.882,0,45.715-13.493,56.395-34.854h0c20.962-41.924-9.524-91.25-56.395-91.25h-74.078c-8.361,0-16.38,3.321-22.292,9.234Z" fill="#61d2d6"/><g stroke="#fff" stroke-miterlimit="10" stroke-width="3.945" class="C H"><path style="mix-blend-mode:overlay" d="M432.22 5.47h8.251m69.844-2.496h16.503" opacity=".35"/></g></g><use href="#P" class="C H K P Q W"/><g class="B"><path d="M442.379 9.456h54.13v6.731a13.93 13.93 0 0 1-4.092 9.875 13.93 13.93 0 0 1-9.871 4.09h-26.205a13.99 13.99 0 0 1-9.871-4.09 14 14 0 0 1-4.091-9.875V9.456z" fill="#67b9b5"/><path d="M442.379 9.456a13.54 13.54 0 0 1 13.532-13.532h27.065a13.53 13.53 0 0 1 13.532 13.532h0a13.53 13.53 0 0 1-13.532 13.532h-27.065a13.54 13.54 0 0 1-13.532-13.532h0z" fill="#f6d485"/><path d="M487-1.727c-.89-.89-2.093-1.389-3.35-1.389s-2.459.499-3.35 1.389a4.73 4.73 0 0 0-1.386 3.347v-6.314c0-1.257-.499-2.459-1.386-3.347s-2.093-1.389-3.35-1.389-2.459.499-3.35 1.389a4.73 4.73 0 0 0-1.386 3.347c0-1.257-.499-2.459-1.386-3.347s-2.093-1.389-3.35-1.389-2.459.499-3.35 1.389a4.73 4.73 0 0 0-1.386 3.347V1.62c0-1.256-.499-2.459-1.386-3.347s-2.093-1.389-3.35-1.389-2.459.499-3.35 1.389a4.73 4.73 0 0 0-1.386 3.347v3.157c0 4.36 3.533 7.892 7.893 7.892h22.1c4.36 0 7.892-3.533 7.892-7.892V1.62c0-1.256-.499-2.459-1.386-3.347z" fill="#3d9056"/></g><path d="M632.215 97.659h-14.14l-3.832 34.995a3.28 3.28 0 0 0 3.258 3.634h15.357a3.28 3.28 0 0 0 3.257-3.64l-3.9-34.988z" fill="#684b48"/><g clip-path="url(#F)" class="B"><path d="M625.19 122.955l-11.559-8.424c-6.384-4.653-7.106-13.907-1.52-19.493l4.043-4.043h18.071l4.043 4.043c5.586 5.586 4.864 14.84-1.52 19.493l-11.559 8.424z" fill="#57423a"/></g><path d="M625.18 96.387c0 5.004 1.987 9.804 5.527 13.343s8.34 5.527 13.346 5.527h18.981v-12.475a18.87 18.87 0 0 0-5.527-13.346c-3.539-3.537-8.34-5.527-13.346-5.527H625.18v12.477z" fill="#adbd3e" class="B"/><g clip-path="url(#G)"><path d="M625.18 83.909l42.242 36.136H625.18V83.909z" class="B D"/><path d="M623.683 85.747l2.991-3.665 37.859 30.893-2.991 3.665z" class="S"/><g class="B"><g class="M"><path d="M647.261 117.301h-4.732v-7.959a2.37 2.37 0 0 1 2.366-2.366 2.37 2.37 0 0 1 2.366 2.366v7.959zm-9.463.35h-4.732v-15.705c0-1.306 1.058-2.364 2.363-2.364h.005c1.306 0 2.363 1.058 2.363 2.364v15.705z" class="F"/></g><g class="D"><path d="M663.033 101.994v-4.481h-7.223a2.24 2.24 0 0 0-2.24 2.241h0a2.25 2.25 0 0 0 .655 1.585 2.24 2.24 0 0 0 1.585.655h7.223zm0-9.213v-4.732h-14.197c-1.306 0-2.363 1.058-2.363 2.364v.005c0 1.306 1.058 2.363 2.363 2.363h14.197z" opacity=".75"/></g></g></g><path d="M625.18 96.387c0 5.004-1.987 9.804-5.527 13.343s-8.34 5.527-13.346 5.527h-18.981v-12.475a18.87 18.87 0 0 1 5.527-13.346c3.539-3.537 8.34-5.527 13.346-5.527h18.981v12.477z" fill="#adbd3e" class="B"/><g clip-path="url(#H)"><path d="M625.18 83.909l-42.243 36.136h42.243V83.909z" class="B D"/><path d="M585.831 112.976l37.854-30.899 2.992 3.665-37.854 30.899z" class="S"/><g class="B"><g class="M"><path d="M603.098 117.301h4.732v-7.959a2.37 2.37 0 0 0-2.366-2.366 2.37 2.37 0 0 0-2.366 2.366v7.959zm9.464.35h4.732v-15.702c0-.627-.248-1.228-.693-1.673a2.37 2.37 0 0 0-1.673-.693c-.627 0-1.23.251-1.673.693s-.693 1.046-.693 1.673v15.702z" class="F"/></g><g class="D"><path d="M587.326 102.245v-4.732h7.1a2.35 2.35 0 0 1 2.363 2.363v.005c0 .627-.248 1.228-.693 1.673a2.36 2.36 0 0 1-1.67.691h-7.1zm0-9.464v-4.732h14.195c.627 0 1.23.251 1.673.693s.693 1.046.693 1.673a2.36 2.36 0 0 1-2.366 2.366h-14.195z" opacity=".75"/></g></g></g><path d="M625.19 115.257l-11.337-8.262c-6.262-4.564-6.97-13.64-1.491-19.119l3.966-3.966h17.725l3.966 3.966c5.479 5.479 4.771 14.556-1.491 19.119l-11.337 8.262z" class="B S"/><g clip-path="url(#I)"><path d="M625.19 82.473h17.886v33.949H625.19z" class="D"/><path d="M622.815 80.492h4.732v41.265h-4.732z" fill="#d8df62"/><g class="F D"><use href="#Q"/></g><g class="F M"><use href="#R"/></g><path d="M608.404 111.983c-.77 0-1.528-.376-1.981-1.067-.718-1.094-.413-2.56.681-3.276l9.617-6.309c1.094-.721 2.56-.41 3.275.679s.413 2.56-.681 3.276l-9.617 6.309a2.35 2.35 0 0 1-1.294.388z" class="D F"/><g class="F M"><path d="M641.954 111.983a2.35 2.35 0 0 1-1.294-.388l-9.614-6.309c-1.094-.716-1.399-2.183-.681-3.276a2.36 2.36 0 0 1 3.275-.679l9.614 6.309c1.094.716 1.399 2.183.681 3.276-.453.692-1.211 1.067-1.981 1.067z"/></g></g><path d="M609.483 136.287h32.231" fill="#f0be5b" class="H K P Q W"/><g class="B"><path d="M309.181,30.069c0-1.39-1.124-2.517-2.517-2.517h-15.103c-1.393,0-2.517,1.128-2.517,2.517s1.124,2.517,2.517,2.517h15.103c1.393,0,2.517-1.126,2.517-2.517h0Z" fill="#e59a63"/><path d="M309.315 19.869v-.087l-.017-.088v-.087l-.017-.087-.016-.086-.034-.085-.017-.084-.033-.084-.017-.082-.034-.083-.033-.079-.051-.08-.033-.077-.051-.076-.05-.074-.05-.073-.051-.071-.05-.071-.05-.067-.067-.065-.051-.062-.067-.062-.067-.059-.067-.055-.067-.054-.067-.052-.084-.05-.067-.046-.084-.043-.068-.042-.083-.039-.084-.035-.084-.034-.084-.03-.084-.027-.084-.023-.084-.022-.084-.019-.084-.015-.084-.011-.083-.01-.101-.006-.084-.003h-.084l-.084.003-.101.006-.083.01-.084.011-.084.015-.084.019-.084.022-.084.023-.084.027-.084.03-.084.034-.084.035-.084.039-.067.042-.083.043-.068.046-.067.05-.084.052-.067.054-.067.055-.067.059-.067.062-3.39 3.394v-6.65-.112l-.017-.113-.017-.112-.016-.111-.017-.111-.034-.11-.033-.108-.034-.107-.033-.104-.051-.103-.05-.1-.05-.099-.068-.096-.067-.092-.067-.091-.067-.086-.084-.084-.084-.08-.067-.076-.101-.072-.083-.068-.101-.064-.084-.061-.101-.055-.101-.052-.1-.047-.101-.042-.118-.037-.1-.032-.118-.028-.1-.022-.118-.019-.117-.013-.101-.007-.117-.003-.118.003-.117.007-.101.013-.118.019-.117.022-.101.028-.117.032-.101.037-.101.042-.1.047-.101.052-.101.055-.1.061-.084.064-.101.068-.084.072-.084.076-.084.08-.067.084-.067.086-.084.091-.05.092-.067.096-.051.099-.05.1-.05.103-.051.104-.033.107-.034.108-.016.11-.034.111-.017.111-.017.112v.113.112 6.66l-3.406-3.404-.067-.062-.068-.059-.067-.055-.067-.054-.067-.052-.067-.05-.084-.046-.067-.043-.084-.042-.084-.039-.067-.035-.084-.034-.084-.03-.084-.027-.084-.023-.084-.022-.083-.019-.084-.015-.101-.011-.084-.01-.084-.006-.084-.003h-.1l-.084.003-.084.006-.084.01-.084.011-.101.015-.084.019-.084.022-.084.023-.083.027-.084.03-.084.034-.068.035-.083.039-.084.042-.067.043-.084.046-.068.05-.067.052-.067.054-.067.055-.067.059-.067.062-.067.062-.051.065-.05.067-.067.071-.05.071-.051.073-.05.074-.034.076-.05.077-.034.08-.033.079-.034.083-.033.082-.017.084-.034.084-.016.085-.017.086-.017.087-.017.087v.088l-.016.087v.087.089.087l.016.088v.087l.017.087.017.087.017.086.016.085.034.084.017.084.033.082.034.083.033.079.034.078.05.079.034.076.05.074.051.074.05.07.067.069.05.069.051.063.067.064 7.686 7.68.05.06.067.059.068.057.067.053.084.053.067.048.067.047.084.044.084.042.067.038.084.035.084.034.084.03.083.027.084.024.084.021.084.019.084.015.084.012.101.01.084.005.021.001.012.001h.017l.033.001h.034.05.051l.033-.001h.017l.01-.001.024-.001.084-.005.084-.01.083-.012.101-.015.084-.019.084-.021.084-.024.084-.027.084-.03.084-.034.067-.035.084-.038.083-.042.068-.044.083-.047.068-.048.067-.053.067-.053.067-.057.067-.059.067-.06 7.686-7.68.051-.064.067-.063.05-.069.05-.069.051-.07.05-.074.05-.074.051-.076.033-.079.051-.078.033-.079.034-.083.017-.082.033-.084.017-.084.034-.085.016-.086.017-.087v-.087l.017-.087v-.088l.017-.087v-.089l-.017-.087z" fill="#90a82d"/><path d="M846.856 113.265V90.137c0-2.555 2.071-4.626 4.626-4.626h46.256c2.555 0 4.626 2.071 4.626 4.626v16.193h-17.253a12.83 12.83 0 0 0-6.609 1.827l-5.472 3.281c-1.999 1.199-4.277 1.826-6.608 1.826h-19.565z" class="T"/></g><g clip-path="url(#J)" class="B N"><use href="#S"/></g><g class="B"><path d="M856.107 85.512h37.004v4.658c0 1.219-.484 2.388-1.346 3.25s-2.031 1.346-3.25 1.346h-27.812c-1.219 0-2.388-.484-3.25-1.346s-1.346-2.031-1.346-3.25v-4.658z" class="N"/><path d="M860.69 90.134c-2.538 0-4.583-2.058-4.583-4.596V68.163c0-2.555 2.071-4.626 4.626-4.626h27.753c2.555 0 4.626 2.071 4.626 4.626v17.378c0 1.219-.484 2.388-1.346 3.25s-2.031 1.346-3.25 1.346c-7.116 0-20.717-.002-27.825-.003z" class="T"/><path d="M865.358 60.068h18.502v4.658c0 1.219-.484 2.388-1.346 3.25s-2.031 1.346-3.25 1.346h-9.309c-1.219 0-2.388-.484-3.25-1.346s-1.346-2.031-1.346-3.25v-4.658z" class="N"/><path d="M870.553 64.655a4.6 4.6 0 0 1-5.195-4.559v-8.123c0-2.555 2.071-4.626 4.626-4.626h9.251c2.555 0 4.626 2.071 4.626 4.626v8.125c0 1.219-.484 2.388-1.346 3.25-.992.992-2.391 1.484-3.805 1.312l-8.156-.006z" class="T"/><g class="N"><path d="M863.045 83.199c0-1.277 1.035-2.313 2.313-2.313s2.313 1.035 2.313 2.313v6.945h-4.626v-6.945zm11.564-27.753c0-.614.244-1.202.677-1.636a2.31 2.31 0 0 1 1.635-.677c.613 0 1.202.244 1.635.677a2.31 2.31 0 0 1 .677 1.636V65.85h-4.626V55.446zm-23.128 52.032c0-1.913 1.551-3.464 3.465-3.464h.009c1.913 0 3.465 1.551 3.465 3.464v5.794h-6.938v-5.794z"/></g><path d="M507.065 122.929v-.051l-.014-.05v-.05l-.013-.05-.013-.048-.013-.049-.026-.048-.013-.046-.026-.047-.027-.045-.013-.045-.026-.044-.04-.042-.026-.042-.026-.04-.039-.039-.027-.038-.039-.035-.039-.036-.04-.033-.039-.033-.039-.03-.04-.028-.039-.028-.052-.025-.04-.024-.052-.022-.04-.02-.052-.018-.053-.017-.039-.014-.052-.012-.053-.012-.052-.008-.04-.008-.052-.004-.053-.004h-.052-5.025-.005V94.553h-82.103-.05-5.03-.051l-.051.004-.05.004-.051.008-.05.007-.05.012-.049.012-.049.014-.048.018-.047.018-.047.02-.046.022-.045.023-.044.026-.044.027-.041.029-.041.03-.04.033-.038.032-.038.036-.035.035-.034.039-.033.039-.03.039-.03.042-.028.042-.026.045-.025.044-.022.045-.023.046-.018.047-.017.049-.016.048-.014.049-.012.05-.009.049-.008.05-.007.051-.004.05-.001.052v.051l.001.051.004.05.007.051.008.05.009.05.012.049.014.049.016.048.017.049.018.047.023.046.022.046.025.045.026.043.028.042.03.042.03.039.033.04.034.038.035.035.038.036.038.034.04.031.041.03.041.029.044.028.044.025.045.023.046.023.047.019.047.019.048.017.049.014.049.013.05.011.05.009.051.006.05.006.051.002.051.002h5.03v4.186h-5.03-.051l-.051.005-.05.003-.051.008-.05.008-.05.012-.049.012-.049.014-.048.017-.047.019-.047.019-.046.022-.045.024-.044.025-.044.028-.041.028-.041.031-.04.032-.038.033-.038.035-.035.036-.034.038-.033.04-.03.039-.03.042-.028.042-.026.044-.025.045-.022.044-.023.048-.018.046-.017.048-.016.049-.014.048-.012.05-.009.05-.008.05-.007.051-.004.05-.001.051v.051l.001.052.004.049.007.051.008.05.009.05.012.05.014.049.016.048.017.049.018.047.023.046.022.046.025.044.026.044.028.042.03.041.03.04.033.039.034.038.035.037.038.034.038.034.04.032.041.03.041.029.044.027.044.025.045.024.046.022.047.02.047.018.048.017.049.015.049.013.05.01.05.009.051.007.05.005.051.003.051.001h5.03v4.187h-5.03l-.051.001-.051.003-.05.005-.051.007-.05.009-.05.01-.049.014-.049.014-.048.017-.047.018-.047.02-.046.022-.045.024-.044.025-.044.028-.041.028-.041.03-.04.032-.038.034-.038.035-.035.036-.034.038-.033.039-.03.04-.03.042-.028.042-.026.043-.025.045-.022.045-.023.046-.018.048-.017.048-.016.049-.014.048-.012.05-.009.05-.008.05-.007.051-.004.05-.001.051v.051l.001.051.004.05.007.051.008.05.009.05.012.05.014.049.016.048.017.049.018.047.023.046.022.046.025.043.026.044.028.042.03.042.03.04.033.039.034.038.035.035.038.036.038.034.04.031.041.031.041.029.044.027.044.025.045.024.046.022.047.02.047.018.048.017.049.015.049.013.05.01.05.008.051.008.05.004.051.004h.051 5.03v4.186h-5.03-.051l-.051.005-.05.003-.051.008-.05.008-.05.011-.049.013-.049.014-.048.017-.047.019-.047.019-.046.022-.045.024-.044.025-.044.028-.041.029-.041.03-.04.031-.038.034-.038.036-.035.035-.034.038-.033.04-.03.039-.03.042-.028.042-.026.045-.025.043-.022.046-.023.045-.018.048-.017.049-.016.048-.014.049-.012.049-.009.05-.008.05-.007.051-.004.05-.001.051v.052l.001.051.004.049.007.051.008.051.009.049.012.05.014.049.016.048.017.049.018.047.023.046.022.046.025.044.026.044.028.042.03.041.03.04.033.04.034.037.035.036.038.035.038.034.04.032.041.03.041.029.044.027.044.025.045.024.046.022.047.02.047.018.048.017.049.015.049.013.05.01.05.01.051.006.05.005.051.003.051.001h5.03v4.187h-5.03-.051l-.051.004-.05.004-.051.008-.05.008-.05.011-.049.012-.049.015-.048.017-.047.018-.047.02-.046.022-.045.024-.044.025-.044.027-.041.029-.041.03-.04.033-.038.033-.038.035-.035.036-.034.038-.033.039-.03.039-.03.043-.028.041-.026.045-.025.045-.022.044-.023.047-.018.046-.017.049-.016.048-.014.049-.012.05-.009.05-.008.05-.007.051-.004.05-.001.051v.051l.001.051.004.05.007.051.008.05.009.05.012.05.014.048.016.049.017.048.018.047.023.046.022.046.025.045.026.043.028.042.03.042.03.04.033.039.034.038.035.037.038.034.038.034.04.031.041.03.041.029.044.028.044.025.045.024.046.022.047.02.047.018.048.017.049.014.049.014.05.01.05.009.051.007.05.005.051.003.051.001h5.03v4.187h-5.03l-.051.001-.051.003-.05.005-.051.007-.05.009-.05.01-.049.013-.049.015-.048.017-.047.018-.047.02-.046.022-.045.024-.044.025-.044.027-.041.029-.041.03-.04.032-.038.034-.038.035-.035.036-.034.038-.033.039-.03.039-.03.042-.028.042-.026.044-.025.044-.022.046-.023.046-.018.047-.017.049-.016.048-.014.049-.012.05-.009.05-.008.05-.007.051-.004.049-.001.052v.051l.001.051.004.05.007.051.008.05.009.05.012.049.014.049.016.048.017.049.018.047.023.046.022.045.025.045.026.044.028.042.03.042.03.039.033.04.034.038.035.035.038.036.038.033.04.032.041.03.041.029.044.028.044.025.045.023.046.023.047.019.047.019.048.017.049.014.049.012.05.012.05.008.051.008.05.004.051.004h.051 5.03v4.186h-5.03l-.051.001-.051.004-.05.004-.051.008-.05.008-.05.011-.049.013-.049.014-.048.017-.047.018-.047.02-.046.023-.045.023-.044.025-.044.028-.041.029-.041.03-.04.031-.038.034-.038.036-.035.035-.034.038-.033.04-.03.039-.03.042-.028.042-.026.043-.025.045-.022.046-.023.046-.018.047-.017.048-.016.049-.014.049-.012.049-.009.05-.008.05-.007.051-.004.05-.001.051v.051l.001.052.004.049.007.051.008.05.009.05.012.05.014.049.016.048.017.049.018.047.023.046.022.046.025.043.026.045.028.042.03.042.03.039.033.039.034.038.035.036.038.035.038.034.04.032.041.03.041.029.044.027.044.025.045.024.046.022.047.02.047.018.048.017.049.015.049.013.05.01.05.008.051.008.05.004.051.004h.051 5.03v4.187h-5.03-.051l-.051.004-.05.004-.051.008-.05.007-.05.012-.049.012-.049.015-.048.017-.047.018-.047.019-.046.023-.045.024-.044.024-.044.028-.041.029-.041.03-.04.033-.038.033-.038.035-.035.036-.034.038-.033.039-.03.039-.03.042-.028.042-.026.045-.025.044-.022.045-.023.046-.018.047-.017.049-.016.048-.014.049-.012.05-.009.05-.008.049-.007.051-.004.05-.001.052v.051l.001.051.004.049.007.052.008.05.009.049.012.051.014.048.016.049.017.048.018.047.023.046.022.046.025.045.026.043.028.042.03.042.03.039.033.04.034.038.035.035.038.036.038.034.04.031.041.03.041.029.044.028.044.024.045.024.046.022.047.02.047.019.048.017.049.014.049.013.05.011.05.009.051.006.05.006.051.002.051.002h5.03 82.153 0 .005 5.025l.052-.002.053-.002.052-.006.04-.006.052-.009.053-.011.052-.013.039-.014.053-.017.052-.019.04-.019.052-.023.04-.024.052-.024.039-.028.04-.029.039-.03.039-.031.04-.034.039-.036.039-.035.027-.038.039-.04.026-.039.026-.042.04-.042.026-.043.013-.045.027-.046.026-.046.013-.047.026-.048.013-.049.013-.048.013-.051v-.049l.014-.05v-.051l.013-.05v-.051-.051-.051l-.013-.051v-.051l-.014-.049v-.05l-.013-.05-.013-.049-.013-.048-.026-.049-.013-.047-.026-.046-.027-.045-.013-.044-.026-.045-.04-.042-.026-.042-.026-.039-.039-.039-.027-.038-.039-.036-.039-.035-.04-.033-.039-.033-.039-.03-.04-.029-.039-.028-.052-.024-.04-.024-.052-.022-.04-.02-.052-.018-.053-.017-.039-.015-.052-.012-.053-.012-.052-.007-.04-.008-.052-.004-.053-.004h-.052-5.025-.005v-4.204h.005 5.025.052l.053-.004.052-.004.04-.008.052-.008.053-.01.052-.013.039-.014.053-.018.052-.018.04-.02.052-.022.04-.024.052-.025.039-.027.04-.029.039-.03.039-.032.04-.034.039-.035.039-.036.027-.037.039-.04.026-.039.026-.042.04-.042.026-.045.013-.043.027-.046.026-.046.013-.047.026-.049.013-.048.013-.049.013-.05v-.049l.014-.05v-.052l.013-.049v-.051-.052-.051l-.013-.05v-.051l-.014-.05v-.05l-.013-.049-.013-.049-.013-.048-.026-.049-.013-.047-.026-.046-.027-.046-.013-.045-.026-.043-.04-.042-.026-.042-.026-.039-.039-.04-.027-.038-.039-.035-.039-.036-.04-.034-.039-.031-.039-.03-.04-.029-.039-.028-.052-.025-.04-.023-.052-.023-.04-.019-.052-.019-.053-.017-.039-.014-.052-.013-.053-.011-.052-.008-.04-.008-.052-.003-.053-.004-.052-.002h-5.025-.005v-4.203h.005 5.025.052l.053-.004.052-.004.04-.008.052-.008.053-.012.052-.012.039-.014.053-.017.052-.018.04-.02.052-.023.04-.023.052-.025.039-.028.04-.028.039-.031.039-.033.04-.032.039-.036.039-.035.027-.038.039-.039.026-.04.026-.042.04-.042.026-.044.013-.045.027-.045.026-.046.013-.047.026-.048.013-.049.013-.048.013-.05v-.05l.014-.05v-.051l.013-.05v-.051-.051-.051l-.013-.05v-.051l-.014-.05v-.05l-.013-.05-.013-.049-.013-.048-.026-.049-.013-.047-.026-.046-.027-.046-.013-.044-.026-.044-.04-.041-.026-.043-.026-.039-.039-.039-.027-.038-.039-.036-.039-.035-.04-.034-.039-.032-.039-.03-.04-.029-.039-.027-.052-.025-.04-.024-.052-.022-.04-.02-.052-.018-.053-.017-.039-.015-.052-.013-.053-.01-.052-.01-.04-.006-.052-.005-.053-.003-.052-.001h-5.025-.005v-4.204h.005 5.025l.052-.001.053-.003.052-.005.04-.007.052-.009.053-.01.052-.013.039-.015.053-.017.052-.018.04-.02.052-.022.04-.024.052-.025.039-.027.04-.029.039-.03.039-.032.04-.034.039-.034.039-.037.027-.038.039-.039.026-.04.026-.042.04-.042.026-.043.013-.044.027-.046.026-.046.013-.047.026-.049.013-.049.013-.048.013-.05v-.05l.014-.05v-.051l.013-.05v-.051-.051-.051l-.013-.05z" fill="#d94e28"/><path d="M555.683 84.316v-.05l-.013-.05-.013-.049-.013-.049-.013-.048-.026-.049-.014-.047-.026-.046-.013-.046-.026-.043-.027-.045-.026-.042-.039-.042-.026-.039-.027-.04-.039-.038-.039-.035-.04-.036-.039-.034-.039-.031-.04-.03-.039-.029-.039-.028-.053-.025-.039-.023-.04-.023-.052-.019-.052-.019-.04-.017-.052-.014-.053-.013-.052-.011-.04-.008-.052-.008-.053-.004-.052-.004h-.053-5.024-.003v-3.717h-68.74v3.717h-5.025-.052l-.053.004-.052.004-.053.008-.052.008-.039.011-.053.013-.052.014-.053.017-.039.019-.053.019-.039.023-.053.023-.039.025-.039.028-.053.029-.039.03-.039.031-.04.034-.026.036-.039.035-.04.038-.026.04-.039.039-.027.042-.026.042-.026.045-.026.043-.026.046-.014.046-.026.047-.013.049-.013.048-.013.049-.013.049-.013.05-.014.05v.051.05.051.051.052.049.051l.014.051.013.049.013.05.013.049.013.048.013.049.026.047.014.046.026.046.026.044.026.044.026.042.027.042.039.039.026.039.04.038.039.036.026.035.04.034.039.032.039.03.053.029.039.027.039.025.053.024.039.022.053.02.039.018.053.017.052.015.053.013.039.01.052.008.053.008.052.004.053.004.052.002h5.025v4.082h-5.025-.052l-.053.004-.052.004-.053.008-.052.008-.039.011-.053.012-.052.015-.053.017-.039.018-.053.02-.039.022-.053.024-.039.025-.039.027-.053.029-.039.03-.039.033-.04.033-.026.035-.039.036-.04.037-.026.04-.039.039-.027.042-.026.042-.026.045-.026.045-.026.044-.014.046-.026.047-.013.049-.013.048-.013.049-.013.05-.013.049-.014.051v.051.049.051.052.051.05.051l.014.05.013.05.013.049.013.049.013.049.013.048.026.047.014.046.026.046.026.045.026.043.026.042.027.042.039.039.026.04.04.038.039.035.026.036.04.034.039.031.039.03.053.029.039.028.039.025.053.023.039.023.053.019.039.019.053.017.052.014.053.013.039.011.052.009.053.007.052.005.053.003.052.001h5.025v4.082h-5.025-.052l-.053.004-.052.004-.053.008-.052.008-.039.012-.053.012-.052.014-.053.017-.039.018-.053.02-.039.022-.053.024-.039.025-.039.028-.053.028-.039.031-.039.032-.04.033-.026.036-.039.035-.04.038-.026.039-.039.04-.027.042-.026.042-.026.044-.026.045-.026.045-.014.047-.026.046-.013.048-.013.049-.013.048-.013.05-.013.05-.014.05v.051.05.051.051.051.05.051l.014.05.013.05.013.05.013.048.013.049.013.049.026.047.014.046.026.046.026.044.026.043.026.042.027.042.039.04.026.039.04.038.039.037.026.034.04.034.039.032.039.03.053.029.039.027.039.025.053.024.039.022.053.02.039.018.053.017.052.015.053.013.039.01.052.009.053.007.052.005.053.003.052.001h5.025v4.081h-5.025l-.052.002-.053.002-.052.006-.053.006-.052.009-.039.011-.053.013-.052.014-.053.017-.039.019-.053.019-.039.023-.053.024-.039.024-.039.028-.053.029-.039.03-.039.031-.04.035-.026.035-.039.035-.04.038-.026.04-.039.039-.027.042-.026.042-.026.043-.026.045-.026.046-.014.046-.026.047-.013.048-.013.049-.013.048-.013.051-.013.049-.014.05v.051.05.051.051.052.05.051l.014.049.013.05.013.05.013.049.013.048.013.049.026.047.014.046.026.046.026.043.026.045.026.042.027.042.039.039.026.039.04.039.039.035.026.035.04.034.039.032.039.03.053.029.039.028.039.024.053.024.039.023.053.019.039.018.053.017.052.015.053.013.039.011.052.007.053.008.052.004.053.004h.052 5.025v4.084h-5.025-.052l-.053.004-.052.004-.053.008-.052.008-.039.01-.053.013-.052.015-.053.017-.039.018-.053.02-.039.022-.053.024-.039.025-.039.027-.053.029-.039.03-.039.032-.04.034-.026.035-.039.036-.04.038-.026.039-.039.039-.027.042-.026.043-.026.044-.026.043-.026.046-.014.046-.026.047-.013.049-.013.048-.013.049-.013.05-.013.05-.014.049v.052.05.051.051.051.05.051l.014.05.013.05.013.05.013.048.013.049.013.048.026.047.014.046.026.046.026.045.026.043.026.042.027.042.039.04.026.039.04.038.039.035.026.036.04.034.039.031.039.031.053.028.039.028.039.025.053.024.039.022.053.019.039.019.053.017.052.014.053.013.039.011.052.009.053.007.052.005.053.002.052.002h5.025v4.082h-5.025-.052l-.053.004-.052.004-.053.008-.052.008-.039.012-.053.012-.052.014-.053.017-.039.019-.053.019-.039.023-.053.023-.039.025-.039.028-.053.028-.039.031-.039.033-.04.032-.026.036-.039.035-.04.038-.026.04-.039.039-.027.042-.026.042-.026.044-.026.045-.026.045-.014.047-.026.046-.013.048-.013.049-.013.048-.013.05-.013.05-.014.05v.051.05.051.051.051.05.051l.014.05.013.05.013.05.013.048.013.049.013.048.026.048.014.046.026.046.026.044.026.044.026.042.027.042.039.039.026.039.04.038.039.037.026.034.04.034.039.032.039.03.053.029.039.027.039.025.053.024.039.022.053.02.039.018.053.017.052.015.053.013.039.01.052.01.053.006.052.005.053.003.052.001h5.025v3.718h68.74v-3.718h.003 5.024l.053-.001.052-.003.053-.005.052-.006.04-.01.052-.01.053-.013.052-.015.04-.017.052-.018.052-.02.04-.022.039-.024.053-.025.039-.027.039-.029.04-.03.039-.032.039-.034.04-.034.039-.037.039-.038.027-.039.026-.039.039-.042.026-.042.027-.044.026-.044.013-.046.026-.046.014-.048.026-.048.013-.049.013-.048.013-.05.013-.05v-.05l.013-.051v-.05-.051V118v-.051-.05l-.013-.051v-.05l-.013-.05-.013-.05-.013-.048-.013-.049-.026-.048-.014-.046-.026-.047-.013-.045-.026-.045-.027-.044-.026-.042-.039-.042-.026-.039-.027-.04-.039-.038-.039-.035-.04-.036-.039-.032-.039-.033-.04-.031-.039-.028-.039-.028-.053-.025-.039-.023-.04-.023-.052-.019-.052-.019-.04-.017-.052-.014-.053-.012-.052-.012-.04-.008-.052-.008-.053-.004-.052-.004h-.053-5.024-.003v-4.082h.003 5.024l.053-.002.052-.002.053-.005.052-.007.04-.009.052-.011.053-.013.052-.014.04-.017.052-.019.052-.019.04-.022.039-.024.053-.025.039-.028.039-.028.04-.031.039-.031.039-.034.04-.036.039-.035.039-.038.027-.039.026-.04.039-.042.026-.042.027-.043.026-.045.013-.046.026-.046.014-.047.026-.048.013-.049.013-.048.013-.05.013-.05v-.05l.013-.051v-.05-.051-.051-.051-.05l-.013-.052v-.049l-.013-.05-.013-.05-.013-.049-.013-.048-.026-.049-.014-.047-.026-.046-.013-.046-.026-.043-.027-.044-.026-.043-.039-.042-.026-.039-.027-.039-.039-.038-.039-.036-.04-.035-.039-.034-.039-.032-.04-.03-.039-.029-.039-.027-.053-.025-.039-.024-.04-.022-.052-.02-.052-.018-.04-.017-.052-.015-.053-.013-.052-.01-.04-.008-.052-.008-.053-.004-.052-.004h-.053-5.024-.003v-4.084h.003 5.024.053l.052-.004.053-.004.052-.008.04-.007.052-.011.053-.013.052-.015.04-.017.052-.018.052-.019.04-.023.039-.024.053-.024.039-.028.039-.029.04-.03.039-.032.039-.034.04-.035.039-.035.039-.039.027-.039.026-.039.039-.042.026-.042.027-.045.026-.043.013-.046.026-.046.014-.047.026-.049.013-.048.013-.049.013-.05.013-.05v-.049l.013-.051v-.05-.052-.051-.051-.05l-.013-.051v-.05l-.013-.049-.013-.051-.013-.048-.013-.049-.026-.048-.014-.047-.026-.046-.013-.046-.026-.045-.027-.043-.026-.042-.039-.042-.026-.039-.027-.04-.039-.038-.039-.035-.04-.035-.039-.035-.039-.031-.04-.03-.039-.029-.039-.028-.053-.024-.039-.024-.04-.023-.052-.019-.052-.019-.04-.017-.052-.014-.053-.013-.052-.011-.04-.009-.052-.006-.053-.006-.052-.002-.053-.002h-5.024-.003v-4.081h.003 5.024l.053-.001.052-.003.053-.005.052-.007.04-.009.052-.01.053-.013.052-.015.04-.017.052-.018.052-.02.04-.022.039-.024.053-.025.039-.027.039-.029.04-.03.039-.032.039-.034.04-.034.039-.037.039-.038.027-.039.026-.04.039-.042.026-.042.027-.043.026-.044.013-.046.026-.046.014-.047.026-.049.013-.049.013-.048.013-.05.013-.05v-.05l.013-.051v-.05-.051-.051-.051-.05l-.013-.051v-.05l-.013-.05-.013-.05-.013-.048-.013-.049-.026-.048-.014-.046-.026-.047-.013-.045-.026-.045-.027-.044-.026-.042-.039-.042-.026-.04-.027-.039-.039-.038-.039-.035-.04-.036-.039-.033-.039-.032-.04-.031-.039-.028-.039-.028-.053-.025-.039-.024-.04-.022-.052-.02-.052-.018-.04-.017-.052-.014-.053-.012-.052-.012-.04-.008-.052-.008-.053-.004-.052-.004h-.053-5.024-.003v-4.083l.003.001h5.024l.053-.001.052-.003.053-.005.052-.007.04-.009.052-.011.053-.013.052-.014.04-.017.052-.019.052-.019.04-.023.039-.023.053-.025.039-.028.039-.029.04-.03.039-.031.039-.034.04-.036.039-.035.039-.038.027-.04.026-.039.039-.042.026-.042.027-.043.026-.045.013-.046.026-.046.014-.047.026-.048.013-.049.013-.049.013-.049.013-.05v-.05l.013-.051v-.05-.051-.052-.051-.049l-.013-.051v-.051l-.013-.049-.013-.05-.013-.049-.013-.048-.026-.049-.014-.047-.026-.046-.013-.044-.026-.045-.027-.045-.026-.042-.039-.042-.026-.039-.027-.04-.039-.037-.039-.036-.04-.035-.039-.033-.039-.033-.04-.03-.039-.029-.039-.027-.053-.025-.039-.024-.04-.022-.052-.02-.052-.018-.04-.017-.052-.015-.053-.012-.052-.011-.04-.008-.052-.008-.053-.004-.052-.004h-.053-5.024-.003v-4.082h.003 5.024l.053-.002.052-.004.053-.004.052-.008.04-.008.052-.01.053-.013.052-.015.04-.017.052-.018.052-.02.04-.022.039-.024.053-.025.039-.027.039-.029.04-.03.039-.032.039-.034.04-.035.039-.036.039-.038.027-.039.026-.039.039-.042.026-.042.027-.044.026-.044.013-.046.026-.046.014-.047.026-.049.013-.048.013-.049.013-.05.013-.049v-.051l.013-.051v-.049-.052-.051-.051-.05l-.013-.051z" fill="#f9da73"/><path d="M504.087 111.16a1.52 1.52 0 0 0-1.522-1.517h-12.043A1.52 1.52 0 0 0 489 111.16v.319a1.52 1.52 0 0 0 1.522 1.518h12.043a1.52 1.52 0 0 0 1.522-1.518v-.319z" fill="#f2ca5d"/><g class="G"><path d="M520.013 107.967h-5.024v2.516c0 1.388 1.128 2.514 2.506 2.514h.013c1.378 0 2.506-1.126 2.506-2.514v-2.516zm-17.606-1.459c0-1.392-.551-2.727-1.535-3.711s-2.322-1.536-3.713-1.536h-1.233c-1.391 0-2.729.552-3.713 1.536s-1.535 2.319-1.535 3.711v2.716c0 1.157.931 2.096 2.099 2.096h7.543a2.09 2.09 0 0 0 2.086-2.096v-2.716z"/></g></g><use href="#T" class="G"/><use href="#T" class="G"/><g class="B G"><path d="M489 102.937h-3.359l4.198 6.706h3.346L489 102.937zm14.339.182l.078.004.079.006.079.006.079.009.078.011.079.013.079.016.079.017.078.018.066.02.078.022.079.025.066.025.078.027.066.031.079.03.065.033.066.034.079.036.065.037.066.04.066.039.052.042.066.045.065.044.066.046.052.047.053.049.065.051.053.052.052.053.053.055.052.055.053.057.052.059.04.059.052.059.039.063.053.063.039.063.04.064.039.067.039.065.026.069.04.069.039.07.026.07.027.071.026.074.026.073.026.074.027.074.013.077.026.077.013.076.013.077.013.079.013.079.014.08v.08l.013.08v.081.078.011.078.08l-.013.081v.08l-.014.08-.013.079-.013.079-.013.077-.013.076-.026.078-.013.076-.027.074-.026.074-.026.073-.026.073-.027.072-.026.071-.039.07-.04.069-.026.067-.039.066-.039.067-.04.065-.039.064-.053.062-.039.061-.052.062-.04.059-.052.058-.053.056-.052.056-.053.054-.052.054-.053.051-.052.05-.066.05-.052.047-.066.046-.065.046-.066.043-.052.042-.066.04-.066.04-.065.037-.079.035-.066.035-.065.032-.079.032-.066.029-.078.027-.066.025-.079.025-.078.022-.066.02-.078.02-.079.015-.079.016-.079.013-.078.011-.079.009-.079.008-.079.004-.078.004-.079.001h-4.198l-.039-.001-.053-.004-.039-.007-.04-.009-.039-.012-.039-.014-.04-.016-.026-.018-.039-.021-.04-.024-.026-.025-.026-.027-.039-.029-.027-.032-.026-.032-.013-.033-.026-.037-.013-.037-.027-.036-.013-.04-.013-.039v-.041l-.013-.041v-.04-.041-.042-.041l.013-.04v-.041l.013-.039.013-.038.027-.038.013-.037.026-.035.013-.035.026-.032.027-.032.039-.029.026-.027.026-.025.04-.024.039-.021.026-.018.04-.016.039-.014.039-.012.04-.009.039-.006.053-.004.039-.001h4.185l.052-.001.053-.001.039-.004.053-.004.039-.006.052-.006.04-.008.052-.008.04-.01.052-.011.04-.012.052-.013.039-.014.04-.015.039-.017.04-.017.052-.017.039-.019.04-.02.039-.021.039-.022.04-.023.039-.023.039-.025.027-.025.039-.026.039-.028.027-.029.039-.027.039-.031.027-.031.026-.03.039-.033.026-.032.027-.034.039-.034.026-.035.026-.034.027-.037.026-.037.026-.038.013-.038.026-.038.027-.039.013-.04.026-.04.013-.041.027-.041.013-.042.013-.043.026-.042.013-.043.013-.045.013-.043v-.045l.013-.044.014-.046v-.046l.013-.047v-.046l.013-.047v-.048-.048-.049-.05-.048-.047l-.013-.048v-.046l-.013-.047v-.046l-.014-.046-.013-.044v-.045l-.013-.043-.013-.045-.013-.043-.026-.043-.013-.041-.013-.042-.027-.042-.013-.041-.026-.04-.013-.04-.027-.039-.026-.038-.013-.038-.026-.038-.026-.037-.027-.035-.026-.036-.026-.035-.039-.034-.027-.033-.026-.034-.039-.032-.026-.03-.027-.031-.039-.029-.039-.029-.027-.029-.039-.027-.039-.025-.04-.027-.026-.024-.039-.024-.04-.022-.039-.023-.039-.021-.04-.019-.039-.02-.052-.017-.04-.017-.039-.016-.04-.016-.052-.014-.039-.013-.04-.012-.052-.01-.04-.011-.052-.008-.04-.008-.052-.006-.039-.006-.053-.003-.039-.003-.053-.003h-.052-2.506l-.052-.001-.04-.004-.039-.007-.039-.009-.04-.012-.039-.014-.039-.016-.04-.018-.026-.021-.039-.024-.027-.025-.039-.027-.026-.029-.026-.031-.027-.033-.026-.033-.013-.037-.026-.037-.013-.036-.014-.04-.013-.039-.013-.041v-.04-.041-.041-.042-.04-.041l.013-.041.013-.039.014-.038.013-.038.026-.037.013-.035.026-.034.027-.033.026-.032.026-.028.039-.028.027-.025.039-.024.026-.021.04-.018.039-.016.039-.014.04-.012.039-.009.039-.005.04-.004.052-.002h2.519.079z"/></g><path d="M488.908 54.316h15.27a3.27 3.27 0 0 1 3.267 3.267v6.881a3.27 3.27 0 0 1-3.265 3.265h-15.273a3.27 3.27 0 0 1-3.265-3.265v-6.881a3.27 3.27 0 0 1 3.267-3.267z" fill="#22326e"/><path d="M490.587 57.669h11.912a3.27 3.27 0 0 1 3.267 3.267v6.881a3.27 3.27 0 0 1-3.265 3.265h-11.913a3.27 3.27 0 0 1-3.267-3.267v-6.88a3.27 3.27 0 0 1 3.267-3.267z" class="J"/><path d="M494.024 71.082h4.968v1.677h-4.968z" fill="#a4471c"/><path d="M504.926 75.261a2.48 2.48 0 0 0-.735-1.766 2.49 2.49 0 0 0-1.771-.724h0c-1.391.008-2.519 1.141-2.519 2.535V85.88a1.97 1.97 0 0 0 1.968 1.968h1.089a1.97 1.97 0 0 0 1.968-1.968V75.262z" class="B J"/><g fill="#22326e"><path d="M490.679 72.758h11.736v13.413h-11.736z"/><g class="B"><path d="M485.641 90.928c0 .517.21 1.013.577 1.377a1.96 1.96 0 0 0 1.378.572h19.573a1.96 1.96 0 0 0 1.378-.572c.367-.365.577-.861.577-1.377v-2.809c0-.517-.21-1.013-.577-1.378a1.96 1.96 0 0 0-1.378-.571h-19.573a1.96 1.96 0 0 0-1.378.571c-.367.365-.577.861-.577 1.378v2.809z"/></g></g><g class="O"><path d="M490.692,62.914c0-.153.118-.277.275-.277h1.102c.157,0,.289.123.289.277v3.31c0,.153-.131.277-.289.277h-1.102c-.157,0-.275-.123-.275-.277v-3.31Z" class="B"/><path d="M501.018,62.637h1.101c.152,0,.275.123.275.275v3.311c0,.153-.124.277-.277.277h-1.101c-.152,0-.276-.123-.276-.276v-3.311c0-.153.124-.277.277-.277Z"/></g><g class="B J"><path d="M485.877 61.744c-1.718 0-3.109 1.396-3.109 3.116s1.391 3.116 3.109 3.116c1.732 0 3.122-1.396 3.122-3.116s-1.391-3.116-3.122-3.116zm21.332 0c-1.719 0-3.122 1.396-3.122 3.116s1.404 3.116 3.122 3.116 3.109-1.396 3.109-3.116-1.391-3.116-3.109-3.116zm-14.024 13.537a2.51 2.51 0 0 0-.735-1.78c-.472-.471-1.115-.733-1.784-.731h0c-1.391.008-2.506 1.132-2.506 2.516v8.917a1.97 1.97 0 0 0 1.968 1.968h1.089a2.01 2.01 0 0 0 1.404-.577c.367-.369.564-.87.564-1.391v-8.922z"/><path d="M498.262 86.171c.656 0 1.286-.262 1.745-.727a2.5 2.5 0 0 0 .721-1.751v-.004a2.57 2.57 0 0 0-2.571-2.548h-8.029c-1.089 0-1.968.88-1.968 1.968v1.094c0 .521.21 1.022.577 1.391s.866.577 1.391.577h8.134z"/></g><path d="M527.475 86.171h11.915a3.27 3.27 0 0 1 3.267 3.267v6.881a3.27 3.27 0 0 1-3.265 3.265h-11.913a3.27 3.27 0 0 1-3.267-3.267v-6.882c0-1.801 1.463-3.264 3.264-3.264z" class="J"/><path d="M530.915 99.584h4.968v1.677h-4.968z" fill="#a4471c"/><g class="B"><path d="M544.322 88.78c0-1.137-.446-2.228-1.246-3.03-.813-.804-1.902-1.255-3.03-1.255h-15.9c-.433 0-.84.169-1.141.471a1.61 1.61 0 0 0-.472 1.137v.861a1.59 1.59 0 0 0 .748 1.358l17.199 10.946c.328.206.695.316 1.089.316h.735a2.02 2.02 0 0 0 2.02-2.019v-8.784z" fill="#509b81"/><path d="M527.556 101.26h10.351a1.4 1.4 0 0 1 .984.408c.262.262.407.618.407.988v12.017h-11.741V101.26z" fill="#397162"/><path d="M519.344 117.754a1.93 1.93 0 0 0 .564 1.377 1.96 1.96 0 0 0 1.377.572h15.926c1.154 0 2.086-.934 2.086-2.085v-2.945h-18.012c-.512 0-1.01.205-1.377.571s-.564.861-.564 1.377v1.132z" fill="#6a3423"/></g><path d="M527.859,92.877h1.101c.152,0,.276.123.276.276v2.799c0,.154-.125.278-.278.278h-1.099c-.152,0-.275-.123-.275-.275v-2.801c0-.153.124-.277.277-.277Z" class="O"/><path d="M530.062 103.748c0-.659-.249-1.291-.722-1.758-.459-.467-1.089-.731-1.758-.731h0c-1.364 0-2.479 1.109-2.493 2.481l-.039 5.904h-2.847c-1.679 0-3.031 1.351-3.031 3.02v.842l8.882.042c1.076.005 1.968-.872 1.968-1.959l.039-7.841z" class="B J"/><path d="M434.282 129.554l23.181-16.591 2.165 3.025-23.181 16.591z"/><path d="M426.14 130.349l6.75-4.828 4.137 5.784-6.75 4.828z"/><path d="M466.37,128.87h-5.038v2.516c0,1.388,1.128,2.514,2.519,2.514h0c1.391,0,2.519-1.126,2.519-2.514v-2.516Z" class="B G"/><path d="M431.906 103.721h11.912a3.27 3.27 0 0 1 3.267 3.267v6.881a3.27 3.27 0 0 1-3.265 3.265h-11.915a3.27 3.27 0 0 1-3.265-3.265v-6.881a3.27 3.27 0 0 1 3.267-3.267z" class="U"/><g class="B"><g class="O"><path d="M447.085 105.508c0-.918-.367-1.8-1.01-2.449-.656-.649-1.535-1.014-2.453-1.014h-12.607a2.37 2.37 0 0 0-2.374 2.374v2.655h18.445v-1.566z"/><path d="M440.381 102.045h-9.367a2.37 2.37 0 0 0-2.374 2.374v10.339c0 1.312 1.063 2.376 2.375 2.376h4.329l5.038-15.089z"/></g><path d="M435.58,108.751c-1.719,0-3.109,1.396-3.109,3.116s1.391,3.116,3.109,3.116c1.732,0,3.122-1.397,3.122-3.116s-1.391-3.116-3.122-3.116Z" class="U"/><path d="M442.887,118.811h-10.062c-.931,0-1.679.75-1.679,1.677v13.413h11.741v-15.089Z" fill="#8a344f"/></g><path d="M435.343 117.134h5.03v1.677h-5.03z" fill="#f2bb43"/><path d="M451.637 134.74c0 1.388-1.128 2.514-2.506 2.514h-15.467a2.52 2.52 0 0 1-2.519-2.52v-2.51h17.986c1.377 0 2.506 1.124 2.506 2.512v.004z" fill="#8a344f" class="B"/><path d="M442.337,108.689h1.101c.152,0,.276.123.276.276v3.311c0,.153-.124.277-.277.277h-1.101c-.152,0-.275-.123-.275-.275v-3.311c0-.153.124-.277.277-.277Z" class="O"/><g class="B"><g class="U"><path d="M444.225 119.635c-.249-.433-.656-.748-1.141-.875s-1.01-.056-1.443.197h0c-.905.538-1.22 1.711-.682 2.626l4.237 7.318a1.9 1.9 0 0 0 2.598.691h0a1.89 1.89 0 0 0 .892-1.158c.131-.487.052-1.006-.197-1.443l-4.264-7.356z"/><path d="M454.117 123.258c.354-.352.564-.83.564-1.33s-.197-.983-.551-1.338h0c-.748-.753-1.955-.76-2.716-.018l-6.035 5.924c-.748.736-.761 1.94-.026 2.691v.003c.354.359.84.564 1.351.569a1.93 1.93 0 0 0 1.351-.544l6.061-5.956z"/></g><path d="M504.087,90.363h-5.024v2.516c0,1.388,1.128,2.514,2.506,2.514h.013c1.378,0,2.506-1.126,2.506-2.514v-2.516Z" class="G"/></g><g opacity=".55" class="V"><circle cx="750.285" cy="44.671" r="2.597"/><circle cx="760.271" cy="42.574" r="2.597"/><circle cx="755.708" cy="35.678" r="2.597"/><circle cx="779.322" cy="33.175" r="2.597"/><circle cx="777.759" cy="50.638" r="2.597"/></g><g opacity=".55" class="V"><circle cx="313.233" cy="65.401" r="2.597"/><circle cx="323.219" cy="63.305" r="2.597"/><circle cx="318.656" cy="56.408" r="2.597"/><circle cx="342.27" cy="53.905" r="2.597"/><circle cx="340.707" cy="71.369" r="2.597"/></g><g opacity=".55" class="V"><circle cx="1150.374" cy="77.685" r="2.597"/><circle cx="1160.36" cy="75.588" r="2.597"/><circle cx="1155.797" cy="68.692" r="2.597"/><circle cx="1179.411" cy="66.189" r="2.597"/><circle cx="1177.848" cy="83.652" r="2.597"/></g></g></svg>