<svg xmlns="http://www.w3.org/2000/svg" width="1500" height="145" xmlns:v="https://vecta.io/nano"><style><![CDATA[.B{fill:none}.C{fill-rule:evenodd}.D{clip-rule:evenodd}.E{fill:#a9c05a}]]></style><defs><clipPath id="A"><path d="M0 0h1500v145H0z" class="B"/></clipPath><clipPath id="B"><path d="M659.078-39.58H631.43c-10.105 0-18.373-7.96-18.373-17.69v-113.52h64.393v113.52c0 9.729-8.268 17.69-18.373 17.69z" class="B"/></clipPath><clipPath id="C"><path d="M714.436-55.071h46.092v31.386h-46.092z" class="B"/></clipPath><clipPath id="D"><path d="M737.492-54.575c9.768,0,17.701,7.933,17.701,17.701s-7.933,17.701-17.701,17.701-17.701-7.93-17.701-17.701,7.93-17.701,17.701-17.701Z" class="B D"/></clipPath><clipPath id="E"><path d="M1055.232 31.698a10.48 10.48 0 0 0-10.475-10.475h-.008a10.48 10.48 0 0 0-10.475 10.475v71.448h2.403a11.42 11.42 0 0 1 8.634 3.944l.002.002c2.021 2.334 4.957 3.675 8.047 3.675h1.871V31.698z" class="B D"/></clipPath><clipPath id="F"><path d="M632.18 13.769c.13-.183.367-.268.591-.222s.402.219.449.442l1.868 7.676 10.464-7.85a.59.59 0 0 1 .686-.015c.213.142.307.403.248.648l-4.245 15.543a2.77 2.77 0 0 1-2.672 2.043h-18.492c-.532 0-1.017-.3-1.253-.777s-.189-1.043.142-1.465l12.214-16.023z" class="B D"/></clipPath><clipPath id="G"><path d="M114.409 21.631c0-2.606 1.033-5.104 2.871-6.947a9.79 9.79 0 0 1 6.931-2.878h21.688a5.97 5.97 0 0 0 4.782-2.397l7.063-9.439c.936-1.251 2.405-1.987 3.966-1.987h39.961c1.506 0 2.93.686 3.871 1.865l12.303 15.414v34.062a14.72 14.72 0 0 1-1.977 7.369l-8.76 15.145c-1.891 3.269-5.375 5.281-9.145 5.281h-60.569l-22.985-23.038V21.63z" class="B D"/></clipPath><path id="H" d="M619.582-19.283v-174.011c0-12.21 9.913-22.123 22.123-22.123h6.505c12.21 0 22.123 9.913 22.123 22.123v174.011c0 11.27-9.15 20.419-20.419 20.419h-9.912c-11.27 0-20.419-9.15-20.419-20.419z"/><path id="I" d="M1055.261,34.559c-1.048,0-1.899-.852-1.899-1.899s.852-1.899,1.899-1.899,1.899.852,1.899,1.899-.852,1.899-1.899,1.899Z"/><path id="J" d="M1075.173 58.161h2.752v5.504h-2.752z"/><path id="K" d="M1066.908 77.409c1.514 0 2.744-1.227 2.744-2.744s-1.23-2.744-2.744-2.744-2.744 1.23-2.744 2.744 1.23 2.744 2.744 2.744z"/><path id="L" d="M1086.189 77.425c1.514 0 2.744-1.23 2.744-2.744s-1.23-2.744-2.744-2.744-2.744 1.23-2.744 2.744 1.23 2.744 2.744 2.744z"/></defs><g clip-path="url(#A)"><path d="M-11.618-4091.127h1523.237v5153.382H-11.618z" fill="#04d5d8"/><path d="M881.245 200.825c-41.651 0-84.385-27.125-101.61-64.497-.533-1.156-1.755-1.965-2.971-1.965H-33.074l-4.116-238.479v-2108.089H220.6a127.35 127.35 0 0 1 78.961 27.557c22.556 17.938 38.384 43.268 44.57 71.323 3.204 14.528 16.339 25.073 31.234 25.073h152.318c17.632 0 31.977-14.345 31.977-31.977v-7.461c0-93.816 76.325-170.141 170.141-170.141h188.858c93.815 0 170.141 76.325 170.141 170.141 0 21.746 17.691 39.438 39.438 39.438h107.816a126.03 126.03 0 0 1 81.637 30.053c22.736 19.364 37.892 46.267 42.676 75.756 1.474 9.081 6.199 17.445 13.308 23.553 7.14 6.134 16.239 9.513 25.621 9.513h257.685V28.808h-347.973c-14.935 0-29.001 5.855-39.61 16.487S1252.966 70.007 1253 84.944c.068 30.785-11.914 59.787-33.741 81.663-22.018 22.065-51.313 34.218-82.491 34.218H881.247z" fill="#7ee5e3"/><path d="M881.245 170.825c-30.031 0-62-20.229-74.365-47.055-5.434-11.789-17.294-19.407-30.216-19.407H442.665c-65.402 0-118.718-53.601-118.852-119.485-.132-65.613-53.623-118.993-119.239-118.993H-7.19v-2048.089H220.6c21.818 0 43.229 7.471 60.289 21.038 17.183 13.665 29.239 32.95 33.947 54.302 6.211 28.168 31.668 48.613 60.53 48.613h152.318c34.174 0 61.977-27.802 61.977-61.977v-7.461c0-77.274 62.867-140.141 140.141-140.141H918.66c77.273 0 140.141 62.867 140.141 140.141 0 38.288 31.149 69.438 69.438 69.438h107.816a96 96 0 0 1 62.186 22.893c17.322 14.753 28.869 35.252 32.515 57.721 2.604 16.051 10.902 30.79 23.368 41.502a69.36 69.36 0 0 0 45.173 16.76h227.685V-1.192h-317.973c-22.96 0-44.569 8.984-60.847 25.297S1222.949 62.047 1223 85.011c.051 22.76-8.82 44.213-24.979 60.407-16.348 16.384-38.102 25.407-61.254 25.407H881.246z" fill="#fceea3"/><path d="M881.244 140.825c-18.075 0-39.553-13.196-47.119-29.612-10.016-21.73-32.006-36.85-57.462-36.85H442.665c-49.251 0-88.752-40.294-88.852-89.545-.166-82.151-67.05-148.933-149.239-148.933H-47.26v-1988.089H220.6c31.082 0 58.247 21.448 64.94 51.8 9.09 41.22 45.913 72.153 89.826 72.153h152.318c50.797 0 91.977-41.179 91.977-91.977v-7.461c0-60.829 49.312-110.14 110.14-110.14H918.66c60.829 0 110.14 49.312 110.14 110.14h0c0 54.918 44.52 99.438 99.438 99.438h107.816c32.355 0 59.906 23.48 65.087 55.417 7.666 47.26 48.763 83.458 98.155 83.458h197.685V-31.192h-287.973c-64.054 0-116.15 52.182-116.008 116.269.068 30.868-25.365 55.749-56.233 55.749H881.246z" fill="#f8d680"/><g opacity=".07"><path d="M1349.122 139.234l-.234-.853a3.15 3.15 0 0 1-.035-1.528l.263-1.161 1.382-6.099c.041-.182-.046-.37-.212-.456a.41.41 0 0 0-.494.09l-6.007 6.522-4.53-.102c-.077-.045-.152-.095-.217-.158-.215-.206-.34-.489-.347-.786l-.028-1.224a.39.39 0 0 0-.28-.366c-.163-.048-.339.014-.435.155l-1.384 2.03-.195.286-16.836-.377c-.37-.008-.741-.008-1.112 0l-2.486.056a2.39 2.39 0 0 1-1.443-2.139l-.086-3.804c-.003-.116-.08-.217-.191-.25s-.231.009-.296.105l-4.279 6.227h.113l-13.938.316c-.508.011-.959.326-1.142.796a1.24 1.24 0 0 0 .304 1.352 8.94 8.94 0 0 0 3.857 2.149l.008.352a2.9 2.9 0 0 0 .897 2.033l.486.464c3.249 3.099 7.511 4.788 11.883 4.841-.097.201-.147.424-.142.651l.065 2.867a.39.39 0 0 0 .229.347c.137.062.297.041.413-.055l5.85-4.861.74-.203 6.303 4.772a.39.39 0 0 0 .627-.321l-.065-2.867c-.009-.379-.167-.74-.441-1.002l-1.901-1.82 12.921-3.537.135-.037 1.334 1.778a.39.39 0 0 0 .441.135c.16-.056.267-.209.263-.379l-.024-1.067c-.01-.454.185-.871.508-1.158l4.724-1.293 6.08 6.302a.41.41 0 0 0 .689-.398l-1.737-6.325zm-43.903-45.254l.436-1.586c.255-.928.277-1.904.064-2.843l-.489-2.16-2.57-11.345c-.077-.339.085-.687.394-.848a.76.76 0 0 1 .919.167l11.175 12.132 8.426-.189c.144-.083.282-.177.404-.294a2.09 2.09 0 0 0 .645-1.463l.052-2.277c.007-.316.218-.592.521-.681a.73.73 0 0 1 .808.288l2.574 3.776.362.531 31.318-.702h2.068l4.624.105c1.556-.672 2.645-2.198 2.685-3.978l.16-7.076c.005-.215.148-.403.354-.464a.5.5 0 0 1 .551.194l7.96 11.583-.211.002 25.927.587c.944.021 1.783.606 2.124 1.48a2.31 2.31 0 0 1-.565 2.515 16.64 16.64 0 0 1-7.175 3.997l-.015.655c-.032 1.432-.633 2.792-1.669 3.781l-.905.863c-6.043 5.765-13.971 8.906-22.104 9.004.18.375.273.789.263 1.212l-.121 5.333a.73.73 0 0 1-.426.646c-.254.116-.552.076-.767-.103l-10.883-9.043-1.377-.377-11.724 8.877a.73.73 0 0 1-1.168-.597l.121-5.333a2.66 2.66 0 0 1 .821-1.864l3.536-3.386-24.034-6.579-.252-.069-2.482 3.308a.73.73 0 0 1-1.311-.453l.045-1.984a2.8 2.8 0 0 0-.945-2.155l-8.788-2.405-11.309 11.723c-.244.247-.625.299-.926.125s-.447-.529-.355-.865l3.232-11.766z"/></g><g clip-path="url(#B)"><g opacity=".5"><use href="#H" fill="#4eb5bf"/></g><g opacity=".5"><use href="#H" fill="#4eb5bf"/></g><g style="mix-blend-mode:overlay" opacity=".15"><path d="M619.582-208.158V-5.566c0,3.685,3.015,6.701,6.701,6.701h22.432s-3.631,0-3.631-4.222v-208.109c0-4.222,3.631-4.222,3.631-4.222h-21.873c-3.993,0-7.26,3.267-7.26,7.26Z" fill="#fff"/></g><g style="mix-blend-mode:overlay" opacity=".5"><path d="M670.332-5.566v-202.592c0-3.993-3.267-7.26-7.26-7.26h0s3.631,0,3.631,4.222V-3.087c0,4.222-3.631,4.222-3.631,4.222h.559c3.685,0,6.701-3.015,6.701-6.701Z" fill="#233f6e"/></g><g style="mix-blend-mode:overlay" opacity=".25"><path d="M619.582-208.158V-3.087c0,2.322,1.9,4.222,4.222,4.222h3.038s-3.631,0-3.631-4.222v-208.109c0-4.222,3.631-4.222,3.631-4.222h0c-3.993,0-7.26,3.267-7.26,7.26Z" fill="#fff"/></g></g><g clip-path="url(#C)"><g clip-path="url(#D)"><circle cx="732.606" cy="69.331" r="4.827" fill="#43866f"/></g></g><path d="M1055.232 31.698a10.48 10.48 0 0 0-10.475-10.475h-.008a10.48 10.48 0 0 0-10.475 10.475v71.448h2.403a11.42 11.42 0 0 1 8.634 3.944l.002.002c2.021 2.334 4.957 3.675 8.047 3.675h1.871V31.698z" class="C E"/><g clip-path="url(#E)"><path d="M1041.884 17.413h5.716v95.259h-5.716z" fill="#96ac4c"/><g class="E"><circle cx="1041.884" cy="65.995" r="2.858"/><circle cx="1041.884" cy="31.702" r="2.858"/><circle cx="1041.884" cy="77.426" r="2.858"/><circle cx="1041.884" cy="43.133" r="2.858"/><circle cx="1041.884" cy="88.857" r="2.858"/><circle cx="1041.884" cy="54.564" r="2.858"/><circle cx="1041.884" cy="100.288" r="2.858"/></g></g><g class="C E"><path d="M1055.261 65.031a1.9 1.9 0 0 1-1.899-1.899 1.9 1.9 0 0 1 1.899-1.899 1.9 1.9 0 0 1 1.899 1.899 1.9 1.9 0 0 1-1.899 1.899zm0 22.874a1.9 1.9 0 0 1-1.899-1.899 1.9 1.9 0 0 1 1.899-1.899 1.9 1.9 0 0 1 1.899 1.899 1.9 1.9 0 0 1-1.899 1.899zm0-45.725a1.9 1.9 0 0 1-1.899-1.899 1.9 1.9 0 0 1 1.899-1.899 1.9 1.9 0 0 1 1.899 1.899 1.9 1.9 0 0 1-1.899 1.899z"/><use href="#I"/><path d="M1055.261 72.663a1.9 1.9 0 0 1-1.899-1.899 1.9 1.9 0 0 1 1.899-1.899 1.9 1.9 0 0 1 1.899 1.899 1.9 1.9 0 0 1-1.899 1.899zm0 22.862a1.9 1.9 0 0 1-1.899-1.899 1.9 1.9 0 0 1 1.899-1.899 1.9 1.9 0 0 1 1.899 1.899 1.9 1.9 0 0 1-1.899 1.899zm0-45.724a1.9 1.9 0 0 1-1.899-1.899 1.9 1.9 0 0 1 1.899-1.899 1.9 1.9 0 0 1 1.899 1.899 1.9 1.9 0 0 1-1.899 1.899zm0 53.345a1.9 1.9 0 0 1-1.899-1.899 1.9 1.9 0 0 1 1.899-1.899 1.9 1.9 0 0 1 1.899 1.899 1.9 1.9 0 0 1-1.899 1.899zm0 7.621a1.9 1.9 0 0 1-1.899-1.899 1.9 1.9 0 0 1 1.899-1.899 1.9 1.9 0 0 1 1.899 1.899 1.9 1.9 0 0 1-1.899 1.899zm0-53.357a1.9 1.9 0 0 1-1.899-1.899 1.9 1.9 0 0 1 1.899-1.899 1.9 1.9 0 0 1 1.899 1.899 1.9 1.9 0 0 1-1.899 1.899zm0 22.862a1.9 1.9 0 0 1-1.899-1.899 1.9 1.9 0 0 1 1.899-1.899 1.9 1.9 0 0 1 1.899 1.899 1.9 1.9 0 0 1-1.899 1.899zm-20.969-15.252a1.9 1.9 0 0 1-1.899-1.899 1.9 1.9 0 0 1 1.899-1.899 1.9 1.9 0 0 1 1.899 1.899 1.9 1.9 0 0 1-1.899 1.899zm0 22.873a1.9 1.9 0 0 1-1.899-1.899 1.9 1.9 0 0 1 1.899-1.899 1.9 1.9 0 0 1 1.899 1.899 1.9 1.9 0 0 1-1.899 1.899zm0-45.724a1.9 1.9 0 0 1-1.899-1.899 1.9 1.9 0 0 1 1.899-1.899 1.9 1.9 0 0 1 1.899 1.899 1.9 1.9 0 0 1-1.899 1.899zm0-7.61a1.9 1.9 0 0 1-1.899-1.899 1.9 1.9 0 0 1 1.899-1.899 1.9 1.9 0 0 1 1.899 1.899 1.9 1.9 0 0 1-1.899 1.899zm0 38.093a1.9 1.9 0 0 1-1.899-1.899 1.9 1.9 0 0 1 1.899-1.899 1.9 1.9 0 0 1 1.899 1.899 1.9 1.9 0 0 1-1.899 1.899zm0 22.862a1.9 1.9 0 0 1-1.899-1.899 1.9 1.9 0 0 1 1.899-1.899 1.9 1.9 0 0 1 1.899 1.899 1.9 1.9 0 0 1-1.899 1.899zm0-45.725a1.9 1.9 0 0 1-1.899-1.899 1.9 1.9 0 0 1 1.899-1.899 1.9 1.9 0 0 1 1.899 1.899 1.9 1.9 0 0 1-1.899 1.899zm0 53.346a1.9 1.9 0 0 1-1.899-1.899 1.9 1.9 0 0 1 1.899-1.899 1.9 1.9 0 0 1 1.899 1.899 1.9 1.9 0 0 1-1.899 1.899zm0-45.736a1.9 1.9 0 0 1-1.899-1.899 1.9 1.9 0 0 1 1.899-1.899 1.9 1.9 0 0 1 1.899 1.899 1.9 1.9 0 0 1-1.899 1.899zm0 22.862a1.9 1.9 0 0 1-1.899-1.899 1.9 1.9 0 0 1 1.899-1.899 1.9 1.9 0 0 1 1.899 1.899 1.9 1.9 0 0 1-1.899 1.899z"/></g><path d="M1066.917 62.278c0-5.314 4.307-9.621 9.621-9.621h.006c5.314 0 9.621 4.307 9.621 9.621v39.915h-.586c-2.683 0-5.234 1.164-6.993 3.192q0 0-.003.003a14.69 14.69 0 0 1-11.093 5.061h-.572V62.278z" fill="#45846f" class="C"/><g fill="#3b7360"><use href="#J"/><path d="M1075.173 69.169h2.752v5.504h-2.752zm0 11.008h2.752v5.504h-2.752zm0 11.008h2.752v5.504h-2.752z"/></g><g fill="#45846f" class="C"><use href="#K"/><path d="M1066.908 88.417c1.514 0 2.744-1.227 2.744-2.744s-1.23-2.744-2.744-2.744-2.744 1.23-2.744 2.744 1.23 2.744 2.744 2.744zm0 11.007c1.514 0 2.744-1.227 2.744-2.744s-1.23-2.744-2.744-2.744-2.744 1.23-2.744 2.744 1.23 2.744 2.744 2.744zm0 11.008c1.514 0 2.744-1.227 2.744-2.744s-1.23-2.744-2.744-2.744-2.744 1.23-2.744 2.744 1.23 2.744 2.744 2.744zm0-44.048c1.514 0 2.744-1.227 2.744-2.744s-1.23-2.744-2.744-2.744-2.744 1.23-2.744 2.744 1.23 2.744 2.744 2.744z"/><use href="#L"/><path d="M1086.189 88.433c1.514 0 2.744-1.23 2.744-2.744s-1.23-2.744-2.744-2.744-2.744 1.23-2.744 2.744 1.23 2.744 2.744 2.744zm0 11.008c1.514 0 2.744-1.23 2.744-2.744s-1.23-2.744-2.744-2.744-2.744 1.23-2.744 2.744 1.23 2.744 2.744 2.744zm0-33.04c1.514 0 2.744-1.227 2.744-2.744s-1.23-2.744-2.744-2.744-2.744 1.23-2.744 2.744 1.23 2.744 2.744 2.744z"/></g><rect x="623.204" y="40.944" width="53.491" height="10.35" rx="5.175" fill="#f0be5b"/><g class="C"><g fill="#c06e32"><path d="M654.81 25.907h-6.999v13.19c0 1.416 1.147 2.565 2.566 2.565h-.508a1.16 1.16 0 0 0-.828.346c-.225.221-.355.523-.355.836v.568h7.886V36.41l-1.762-10.504zm-13.124 10.504l2.916 8.753h-.611c-.307 0-.556.247-.556.551v1.2h5.25l-3.5-10.504h-3.5z"/></g><path d="M662.637 22.405a3.44 3.44 0 0 0-3.441 3.442v.061h-15.843l3.133-11.459c.059-.245-.035-.506-.248-.648a.59.59 0 0 0-.686.015l-10.464 7.85-1.868-7.676c-.047-.224-.225-.395-.449-.442s-.461.039-.591.222l-12.213 16.023c-.331.422-.378.989-.142 1.465a1.4 1.4 0 0 0 1.253.777h13.9l1.458 4.377h0l.583 1.75h-3.48c-.627 0-1.218.25-1.667.693a2.38 2.38 0 0 0-.686 1.669v1.14h10.499l-1.75-5.252h13.999v2.264c0 1.649 1.348 2.988 2.991 2.988h5.417l1.57 3.927c.319.8 1.1 1.325 1.963 1.325h2.069l-3.5-8.754h-2.116c-.769 0-1.383-.622-1.383-1.388v-7.365h11.019a4.73 4.73 0 0 0 3.346-1.386c.887-.887 1.383-2.089 1.383-3.344v-2.274h-14.058z" fill="#d89058"/></g><g clip-path="url(#F)"><path d="M619.73 28.532h2.693v1.751h-2.693z"/></g><path d="M628.219 25.906h5.252v1.751h-5.252z"/><g class="C"><path d="M995.852 63.772c0-1.227-.993-2.223-2.223-2.223H980.29c-1.23 0-2.223.996-2.223 2.223s.993 2.223 2.223 2.223h13.339a2.22 2.22 0 0 0 2.223-2.223h0z" fill="#f2bb75"/><g class="E"><path d="M987.064 48.213l.089.006.104.012.103.016.089.019.104.026.089.028.104.032.088.037.089.042.089.046.089.049.074.053.089.057.074.06.089.064.06.067.074.071.074.074.059.076.059.08.06.081.059.085.044.087.045.089.044.09.03.092.03.095.029.095.03.098.015.098.015.097.014.1.015.099v.099 11.228.101l-.015.1-.014.099-.015.098-.015.097-.03.097-.029.096-.03.093-.03.094-.044.09-.045.089-.044.088-.059.084-.06.082-.059.08-.059.075-.074.074-.074.07-.06.068-.089.064-.074.061-.089.056-.074.053-.089.049-.089.046-.089.042-.088.037-.104.032-.089.029-.104.025-.089.019-.103.016-.104.011-.089.007-.104.002-.104-.002-.103-.007-.089-.011-.104-.016-.104-.019-.089-.025-.104-.029-.088-.032-.089-.037-.089-.042-.089-.046-.089-.049-.089-.053-.074-.056-.089-.061-.074-.064-.074-.068-.074-.07-.06-.074-.059-.075-.074-.08-.044-.082-.06-.084-.044-.088-.045-.089-.044-.09-.045-.094-.029-.093-.03-.096-.015-.097-.029-.097-.015-.098-.015-.099v-.1-.101-11.228-.099-.099l.015-.1.015-.097.029-.098.015-.098.03-.095.029-.095.045-.092.044-.09.045-.089.044-.087.06-.085.044-.081.074-.08.059-.076.06-.074.074-.071.074-.067.074-.064.089-.06.074-.057.089-.053.089-.049.089-.046.089-.042.089-.037.088-.032.104-.028.089-.026.104-.019.104-.016.089-.012.103-.006.104-.003.104.003z"/><path d="M980.276 52.661l.074.004.074.009.089.011.074.013.074.016.074.019.074.021.075.024.074.027.074.029.059.031.074.034.074.037.06.039.074.04.059.044.059.046.059.048.06.049.059.052.059.054 6.788 6.782.045.055.059.058.044.059.045.063.059.062.03.064.044.066.045.067.029.068.045.07.03.071.029.073.015.072.03.074.029.074.015.076.015.076.015.077.015.075v.079.077l.014.077v.077l-.014.079v.077.077l-.015.077-.015.077-.015.075-.015.076-.029.074-.03.074-.015.073-.029.071-.03.071-.045.07-.029.069-.045.067-.044.065-.03.065-.059.063-.045.061-.044.059-.059.058-.045.056-.059.053-.059.052-.06.051-.059.047-.059.046-.074.043-.06.041-.074.039-.059.037-.074.034-.074.031-.074.03-.074.027-.06.023-.089.021-.074.019-.074.017-.074.013-.074.01-.074.009-.074.005-.089.003h-.074l-.074-.003-.074-.005-.089-.009-.074-.01-.075-.013-.074-.017-.074-.019-.074-.021-.074-.023-.074-.027-.074-.03-.074-.031-.06-.034-.074-.037-.074-.039-.059-.041-.059-.043-.074-.046-.06-.047-.059-.051-.059-.052-.045-.053-6.788-6.782-.059-.056-.044-.057-.045-.06-.059-.061-.045-.062-.044-.066-.044-.065-.03-.067-.045-.069-.029-.07-.03-.07-.029-.072-.03-.073-.015-.074-.03-.074-.014-.076-.015-.075-.015-.077-.015-.077v-.077l-.015-.077v-.078-.078-.077l.015-.077v-.077l.015-.077.015-.077.015-.076.014-.076.03-.074.015-.074.03-.072.029-.073.03-.07.029-.071.045-.068.03-.067.044-.065.044-.065.045-.062.059-.063.045-.059.044-.058.059-.055.06-.054.059-.052.059-.049.06-.048.059-.046.059-.044.074-.04.059-.039.075-.037.074-.034.059-.031.074-.029.074-.027.074-.024.074-.021.074-.019.075-.016.089-.013.074-.011.074-.009.074-.004.074-.003h.089l.074.003z"/><path d="M993.867 52.661l.089.004.074.009.074.011.074.013.074.016.074.019.074.021.074.024.074.027.074.029.075.031.074.034.059.037.074.039.059.04.074.044.06.046.059.048.059.049.059.052.06.054.044.055.06.058.044.059.044.063.045.062.044.065.045.065.044.067.03.068.044.071.03.07.03.073.014.072.03.074.015.074.03.076.014.076.015.077v.077l.015.077v.077l.015.077v.078l-.015.078v.077l-.015.077v.077l-.015.077-.014.075-.03.076-.015.074-.03.074-.014.073-.03.072-.03.07-.044.07-.03.069-.044.067-.045.065-.044.066-.045.062-.044.061-.044.06-.06.057-.044.056-6.788 6.782-.059.053-.06.052-.059.051-.059.047-.06.046-.059.043-.074.041-.059.039-.074.037-.074.034-.06.031-.074.03-.074.027-.074.023-.074.021-.074.019-.074.017-.089.013-.074.01-.074.009-.075.005-.074.003h-.089l-.074-.003-.074-.005-.074-.009-.074-.01-.089-.013-.074-.017-.074-.019-.074-.021-.074-.023-.074-.027-.075-.03-.059-.031-.074-.034-.074-.037-.059-.039-.074-.041-.06-.043-.059-.046-.059-.047-.06-.051-.059-.052-.059-.053-.059-.056-.045-.058-.059-.059-.045-.061-.044-.063-.044-.065-.045-.065-.03-.067-.044-.069-.03-.07-.029-.071-.03-.071-.03-.073-.015-.074-.029-.074-.015-.076-.015-.075-.015-.077-.014-.077v-.077l-.015-.077V61.7v-.077-.077l.015-.077v-.079l.014-.075.015-.077.015-.076.015-.076.029-.074.015-.074.03-.072.03-.073.029-.071.03-.07.044-.068.03-.067.045-.066.044-.064.044-.062.045-.063.059-.059.045-.058.059-.055 6.773-6.782.059-.054.06-.052.059-.049.059-.048.074-.046.059-.044.06-.04.074-.039.059-.037.074-.034.074-.031.074-.029.075-.027.074-.024.074-.021.074-.019.074-.016.074-.013.074-.011.074-.009.089-.004.074-.003h.074l.075.003z"/></g><path d="M114.409 54.446c0-8.275 6.703-14.993 14.959-14.993h76.967c8.256 0 14.959 6.718 14.959 14.993v13.211c0 8.275-6.703 14.993-14.959 14.993h-76.967c-8.256 0-14.959-6.718-14.959-14.993V54.446z" fill="#5bd1d6"/><path d="M114.409 21.631c0-2.606 1.033-5.104 2.871-6.947a9.79 9.79 0 0 1 6.931-2.878h21.688a5.97 5.97 0 0 0 4.782-2.397l7.063-9.439c.936-1.251 2.405-1.987 3.966-1.987h39.961c1.506 0 2.93.686 3.871 1.865l12.303 15.414v34.062a14.72 14.72 0 0 1-1.977 7.369l-8.76 15.145c-1.891 3.269-5.375 5.281-9.145 5.281h-60.569l-22.985-23.038V21.63z" fill="#f0be5b"/></g><g clip-path="url(#G)" fill="#f8d680" class="C"><path d="M159.232-19.295h58.614v58.748h-47.848c-5.946 0-10.766-4.831-10.766-10.791v-47.957zM90.274-5.472h58.614V44.84c0 4.659-3.768 8.435-8.416 8.435H90.274V-5.472z"/></g><g fill="#e0aa48"><path d="M186.815 25.978c0-1.009.4-1.977 1.112-2.69s1.677-1.114 2.684-1.114h13.096c1.007 0 1.972.401 2.684 1.114s1.112 1.681 1.112 2.69v2.759c0 1.009-.4 1.977-1.112 2.69s-1.677 1.114-2.684 1.114h-13.096c-1.007 0-1.972-.401-2.684-1.114s-1.112-1.681-1.112-2.69v-2.759z" class="C"/><rect x="141.992" y="60.187" width="44.823" height="10.367" rx="3.795"/></g><g stroke="#5bd1d6" stroke-linecap="round" stroke-linejoin="round" stroke-width="7.156" class="B"><path d="M88.379 68.56h-13.47m-28.892 0H61.81m37.931 0h-.937M69.052 85.681h5.584m18.585 0h.937"/></g></g></svg>