<svg xmlns="http://www.w3.org/2000/svg" width="1500" height="145" xmlns:v="https://vecta.io/nano"><style><![CDATA[.B{fill-rule:evenodd}.C{fill:none}.D{fill:#869d33}.E{clip-rule:evenodd}.F{opacity:.5}.G{fill:#96ac4c}.H{fill:#a9c05a}.I{fill:#507944}.J{fill:#bfcd53}.K{opacity:.75}.L{fill:#dde6fd}.M{fill:#b8cefc}.N{fill:#adbd3e}.O{fill:#f8d680}.P{stroke-linejoin:round}.Q{stroke-linecap:round}.R{fill:#684b48}.S{fill:#f0be5b}.T{fill:#efc180}.U{fill:#dca646}.V{fill:#57423a}.W{fill:#d8df62}.X{fill:#db9e3e}]]></style><defs><clipPath id="A"><path d="M0 0h1500v145H0z" class="C"/></clipPath><clipPath id="B"><path d="M-59.616 454.557h503.815c28.921 0 52.366 23.445 52.366 52.366h0c0 28.921 23.445 52.366 52.366 52.366H708.6c33.349 0 60.383 27.034 60.383 60.383h0c0 33.349 27.034 60.383 60.383 60.383h48.709c39.629 0 71.754 32.125 71.754 71.754v26.062c0 39.629-32.125 71.754-71.754 71.754h-311.56c-21.993 0-39.823-17.829-39.823-39.823h0c0-21.994-17.829-39.823-39.823-39.823H252.034a19.53 19.53 0 0 1-19.526-19.526h0a19.53 19.53 0 0 0-19.526-19.526H-59.616a19.53 19.53 0 0 1-19.526-19.526V474.084a19.53 19.53 0 0 1 19.526-19.526z" class="C"/></clipPath><clipPath id="C"><path d="M751.61-44.76L697.231-5.714v51.06L751.61 6.303V-44.76z" class="C E"/></clipPath><clipPath id="D"><path d="M751.61-44.76l54.371 39.046v51.06L751.61 6.303V-44.76z" class="C E"/></clipPath><clipPath id="E"><path d="M50.718 52.614c0-1.922 1.551-3.484 3.472-3.495h.003c.925-.007 1.813.357 2.468 1.007a3.47 3.47 0 0 1 1.024 2.462v5.273a9.54 9.54 0 0 0 4.556 8.135l1.714 1.049v6.654L58 70.174a14.85 14.85 0 0 1-7.282-12.776v-4.784z" class="C E"/></clipPath><clipPath id="F"><path d="M84.159 42.904c0-1.922-1.551-3.484-3.472-3.495h-.003c-.925-.006-1.813.357-2.468 1.009s-1.024 1.537-1.024 2.461v5.273a9.54 9.54 0 0 1-4.556 8.135l-1.714 1.049v6.654l5.955-3.525a14.85 14.85 0 0 0 7.282-12.775v-4.785z" class="C E"/></clipPath><clipPath id="G"><path d="M51.92 82.511c0-1.922-1.551-3.484-3.472-3.495h-.003c-.925-.007-1.813.357-2.468 1.007a3.47 3.47 0 0 0-1.024 2.462v5.273a9.54 9.54 0 0 1-4.556 8.135l-1.714 1.049v6.654l5.955-3.525a14.85 14.85 0 0 0 7.282-12.776v-4.784z" class="C E"/></clipPath><clipPath id="H"><path d="M18.478 72.8c0-1.922 1.551-3.484 3.472-3.495h.003c.925-.006 1.813.357 2.468 1.009s1.024 1.537 1.024 2.461v5.273a9.54 9.54 0 0 0 4.556 8.135l1.714 1.049v6.654l-5.955-3.525a14.85 14.85 0 0 1-7.282-12.775v-4.785z" class="C E"/></clipPath><clipPath id="I"><path d="M552.206 88.124c0-1.922-1.551-3.484-3.472-3.495h-.003c-.925-.007-1.813.357-2.468 1.007a3.47 3.47 0 0 0-1.024 2.462v5.273a9.54 9.54 0 0 1-4.556 8.135l-1.714 1.049v6.654l5.955-3.525a14.85 14.85 0 0 0 7.282-12.776v-4.784z" class="C E"/></clipPath><clipPath id="J"><path d="M518.765 78.413c0-1.922 1.551-3.484 3.472-3.495h.003c.925-.006 1.813.357 2.468 1.009s1.024 1.537 1.024 2.461v5.273a9.54 9.54 0 0 0 4.556 8.135l1.714 1.049v6.654l-5.955-3.525a14.85 14.85 0 0 1-7.282-12.775v-4.785z" class="C E"/></clipPath><clipPath id="K"><path d="M254.849-96.713l-42.871 32.295c-8 6.027-11.6 16.268-9.129 25.974l8.519 33.468h86.963l8.519-33.468c2.471-9.707-1.129-19.948-9.129-25.974L254.85-96.713z" class="C E"/></clipPath><clipPath id="L"><path d="M254.849-96.713l-49.475 37.269a12.42 12.42 0 0 0-4.564 12.987l10.558 41.481h86.963l10.558-41.481c1.235-4.853-.564-9.974-4.564-12.987L254.85-96.713z" class="C E"/></clipPath><clipPath id="M"><path d="M231.438-44.078h46.821v39.102h-46.821z" class="C"/></clipPath><clipPath id="N"><path d="M325.918 28.718a.59.59 0 0 1 .597-.225c.227.048.406.221.454.447l1.888 7.757 10.575-7.933c.203-.153.49-.16.693-.016.215.143.311.407.251.655l-4.289 15.708a2.8 2.8 0 0 1-2.7 2.065H314.7a1.41 1.41 0 0 1-1.266-.785c-.239-.48-.191-1.054.143-1.48l12.343-16.193z" class="C E"/></clipPath><clipPath id="O"><path d="M236.756,32.858h-19.354l-5.245,47.9c-.291,2.655,1.788,4.974,4.459,4.974h21.021c2.674,0,4.754-2.325,4.458-4.982l-5.339-47.891Z" class="C"/></clipPath><clipPath id="P"><path d="M227.127 31.117c0 6.849 2.72 13.42 7.565 18.264a25.83 25.83 0 0 0 18.267 7.565h25.981V39.87a25.83 25.83 0 0 0-7.565-18.267c-4.845-4.841-11.415-7.565-18.267-7.565h-25.981v17.079z" class="C E"/></clipPath><clipPath id="Q"><path d="M227.127 31.117c0 6.849-2.72 13.42-7.565 18.264a25.83 25.83 0 0 1-18.267 7.565h-25.981V39.87a25.83 25.83 0 0 1 7.565-18.267c4.845-4.841 11.415-7.565 18.267-7.565h25.981v17.079z" class="C E"/></clipPath><clipPath id="R"><path d="M227.141 56.946l-15.518-11.309c-8.571-6.246-9.54-18.671-2.041-26.17l5.428-5.428h24.261l5.428 5.428c7.5 7.5 6.531 19.924-2.041 26.17L227.14 56.946z" class="C E"/></clipPath><clipPath id="S"><path d="M281.679,110.989h-19.354l-5.245,47.9c-.291,2.655,1.788,4.974,4.459,4.974h21.021c2.674,0,4.754-2.325,4.458-4.982l-5.339-47.891Z" class="C"/></clipPath><clipPath id="T"><path d="M272.049 109.248c0 6.849 2.72 13.42 7.565 18.264a25.83 25.83 0 0 0 18.267 7.565h25.981v-17.076a25.83 25.83 0 0 0-7.565-18.267c-4.845-4.841-11.415-7.565-18.267-7.565h-25.981v17.079z" class="C E"/></clipPath><clipPath id="U"><path d="M272.049 109.248c0 6.849-2.72 13.42-7.565 18.264a25.83 25.83 0 0 1-18.267 7.565h-25.981v-17.076a25.83 25.83 0 0 1 7.565-18.267c4.845-4.841 11.415-7.565 18.267-7.565h25.981v17.079z" class="C E"/></clipPath><clipPath id="V"><path d="M272.064 135.077l-15.518-11.309c-8.571-6.246-9.54-18.671-2.041-26.17l5.428-5.428h24.261l5.428 5.428c7.5 7.5 6.531 19.924-2.041 26.17l-15.518 11.309z" class="C E"/></clipPath><clipPath id="W"><path d="M1093.398,15.748h-19.354l-5.245,47.9c-.291,2.655,1.788,4.974,4.459,4.974h21.021c2.674,0,4.754-2.325,4.458-4.982l-5.339-47.891Z" class="C"/></clipPath><clipPath id="X"><path d="M1083.769 14.008c0 6.849 2.72 13.42 7.565 18.264a25.83 25.83 0 0 0 18.267 7.565h25.981V22.761a25.83 25.83 0 0 0-7.565-18.267c-4.845-4.841-11.415-7.565-18.267-7.565h-25.981v17.079z" class="C E"/></clipPath><clipPath id="Y"><path d="M1083.769 14.008c0 6.849-2.72 13.42-7.565 18.264a25.83 25.83 0 0 1-18.267 7.565h-25.981V22.761a25.83 25.83 0 0 1 7.565-18.267c4.845-4.841 11.415-7.565 18.267-7.565h25.981v17.079z" class="C E"/></clipPath><clipPath id="Z"><path d="M1083.783 39.836l-15.518-11.309c-8.571-6.246-9.54-18.671-2.041-26.17l5.428-5.428h24.261l5.428 5.428c7.5 7.5 6.531 19.924-2.041 26.17l-15.518 11.309z" class="C E"/></clipPath><path id="a" d="M503.832 53.584a5.65 5.65 0 0 0-5.647-5.647h-26.12a5.65 5.65 0 0 0-5.647 5.647 5.65 5.65 0 0 0 5.647 5.647h26.12a5.65 5.65 0 0 0 5.647-5.647h0z"/><path id="b" d="M499.134 34.697c.158-.581-.113-1.197-.633-1.5s-1.175-.217-1.604.21l-7.748 7.753-4.292-13.933c-.181-.565-.7-.951-1.288-.953s-1.129.379-1.31.944l-4.405 13.942-7.748-7.753c-.429-.427-1.084-.513-1.626-.21a1.33 1.33 0 0 0-.61 1.5l2.778 10.213a13.32 13.32 0 0 0 12.853 9.804h0a13.29 13.29 0 0 0 12.831-9.804l2.801-10.213z"/><path id="c" d="M59.078 62.378h2.787v11.321h-2.787z"/><path id="d" d="M53.504 50.534h1.393v2.787h-1.393z"/><path id="e" d="M51.92 82.511c0-1.922-1.551-3.484-3.472-3.495h-.003c-.925-.007-1.813.357-2.468 1.007a3.47 3.47 0 0 0-1.024 2.462v5.273a9.54 9.54 0 0 1-4.556 8.135l-1.714 1.049v6.654l5.955-3.525a14.85 14.85 0 0 0 7.282-12.776v-4.784z"/><path id="f" d="M44.953 101.332c-.769 0-1.393-.624-1.393-1.393s.624-1.393 1.393-1.393 1.393.624 1.393 1.393-.624 1.393-1.393 1.393z"/><path id="g" d="M18.478 72.8c0-1.922 1.551-3.484 3.472-3.495h.003c.925-.006 1.813.357 2.468 1.009s1.024 1.537 1.024 2.461v5.273a9.54 9.54 0 0 0 4.556 8.135l1.714 1.049v6.654l-5.955-3.525a14.85 14.85 0 0 1-7.282-12.775v-4.785z"/><path id="h" d="M18.478 81.867c.769 0 1.393-.624 1.393-1.393s-.624-1.393-1.393-1.393-1.393.626-1.393 1.393.624 1.393 1.393 1.393z"/><path id="i" d="M227.141 67.483l-15.821-11.53c-8.739-6.368-9.726-19.035-2.08-26.681l5.534-5.534h24.735l5.534 5.534c7.646 7.646 6.658 20.313-2.08 26.681l-15.821 11.53z"/><path id="j" d="M225.077 16.552l4.094-5.017 51.82 42.286-4.094 5.017z"/><path id="k" d="M278.94 38.792v-6.133h-9.887a3.07 3.07 0 0 0-2.17.9c-.573.573-.897 1.354-.897 2.166h0c0 .816.324 1.593.897 2.17s1.357.897 2.17.897h9.887z"/><path id="l" d="M173.267 53.824l51.814-42.293 4.095 5.017-51.814 42.293z"/><path id="m" d="M175.314 39.135v-6.477h9.718a3.22 3.22 0 0 1 3.235 3.235v.006a3.23 3.23 0 0 1-3.235 3.235h-9.718z"/><path id="n" d="M175.314 26.182v-6.477h19.43a3.24 3.24 0 0 1 2.289.949c.609.609.949 1.431.949 2.289s-.34 1.684-.949 2.289a3.23 3.23 0 0 1-2.289.949h-19.43z"/><path id="o" d="M227.141 12.073h24.482v46.468h-24.482z"/><path id="p" d="M204.165 37.698c-1.054 0-2.091-.514-2.711-1.461-.982-1.497-.565-3.504.932-4.484l13.164-8.635c1.497-.987 3.504-.561 4.482.93.982 1.497.565 3.504-.932 4.484l-13.164 8.635a3.21 3.21 0 0 1-1.771.531z"/><path id="q" d="M250.088 37.698c-.607 0-1.223-.171-1.771-.531l-13.16-8.635c-1.497-.98-1.914-2.987-.932-4.484a3.23 3.23 0 0 1 4.482-.93l13.16 8.635c1.497.98 1.914 2.987.932 4.484-.62.947-1.657 1.461-2.711 1.461z"/><path id="r" d="M164.697 88.739h.004a34.29 34.29 0 0 0 23.686-9.497l7.372-7.048c6.733-6.433 17.387-6.249 23.895.412l6.15 6.298c6.142 6.289 14.564 9.834 23.352 9.834h.004-84.464z"/><path id="s" d="M272.064 135.077l-15.518-11.309c-8.571-6.246-9.54-18.671-2.041-26.17l5.428-5.428h24.261l5.428 5.428c7.5 7.5 6.531 19.924-2.041 26.17l-15.518 11.309z"/></defs><g clip-path="url(#A)"><path d="M-11.618-2061.127h1523.237v5153.382H-11.618z" fill="#04d5d8"/><path d="M881.245 2230.825c-41.651 0-84.385-27.125-101.61-64.497-.533-1.156-1.755-1.965-2.971-1.965H-33.074l-4.116-238.479V-182.204H220.6a127.35 127.35 0 0 1 78.961 27.557c22.556 17.938 38.384 43.268 44.57 71.323 3.204 14.528 16.339 25.073 31.234 25.073h152.318c17.632 0 31.977-14.345 31.977-31.977v-7.461c0-93.816 76.325-170.141 170.141-170.141h188.858c93.815 0 170.141 76.325 170.141 170.141 0 21.746 17.691 39.438 39.438 39.438h107.816a126.03 126.03 0 0 1 81.637 30.053c22.736 19.364 37.892 46.267 42.676 75.756 1.474 9.081 6.199 17.445 13.308 23.553 7.14 6.134 16.239 9.513 25.621 9.513h257.685v1978.184h-347.973c-14.935 0-29.001 5.855-39.61 16.487s-16.432 24.712-16.398 39.649c.068 30.785-11.914 59.787-33.741 81.663-22.018 22.065-51.313 34.218-82.491 34.218H881.247z" fill="#7ee5e3"/><path d="M881.245 2200.825c-30.031 0-62-20.229-74.365-47.055-5.434-11.789-17.294-19.407-30.216-19.407H442.665c-65.402 0-118.718-53.601-118.852-119.485-.132-65.613-53.623-118.993-119.239-118.993H-7.19V-152.204H220.6c21.818 0 43.229 7.471 60.289 21.038 17.183 13.665 29.239 32.95 33.947 54.302 6.211 28.168 31.668 48.613 60.53 48.613h152.318c34.174 0 61.977-27.802 61.977-61.977v-7.461c0-77.274 62.867-140.141 140.141-140.141H918.66c77.273 0 140.141 62.867 140.141 140.141 0 38.288 31.149 69.438 69.438 69.438h107.816a96 96 0 0 1 62.186 22.893c17.322 14.753 28.869 35.252 32.515 57.721 2.604 16.051 10.902 30.79 23.368 41.502a69.36 69.36 0 0 0 45.173 16.76h227.685v1918.184h-317.973c-22.96 0-44.569 8.984-60.847 25.297s-25.213 37.942-25.162 60.906c.051 22.76-8.82 44.213-24.979 60.407-16.348 16.384-38.102 25.407-61.254 25.407H881.246z" fill="#fceea3"/><path d="M881.244 2170.825c-18.075 0-39.553-13.196-47.119-29.612-10.016-21.73-32.006-36.85-57.462-36.85H442.665c-49.251 0-88.752-40.294-88.852-89.545-.166-82.151-67.05-148.933-149.239-148.933H-47.26V-122.204H220.6c31.082 0 58.247 21.448 64.94 51.8 9.089 41.22 45.913 72.153 89.825 72.153h152.318c50.797 0 91.977-41.179 91.977-91.977v-7.461c0-60.829 49.312-110.14 110.14-110.14h188.859c60.829 0 110.14 49.312 110.14 110.14h0c0 54.918 44.52 99.438 99.438 99.438h107.816c32.355 0 59.906 23.48 65.087 55.417 7.666 47.26 48.763 83.458 98.155 83.458h197.685v1858.184h-287.973c-64.054 0-116.15 52.182-116.008 116.269.068 30.868-25.365 55.749-56.233 55.749H881.245z" class="O"/><path d="M1534.843 183.19H1338.39c-44.946 0-81.382-36.436-81.382-81.382h0c0-32.864-26.642-59.506-59.506-59.506h-91.784c-65.242 0-118.131-52.889-118.131-118.131v-7.061c0-32.864-26.642-59.506-59.506-59.506H720.186c-32.864 0-59.506 26.642-59.506 59.506v247.732c0 32.864 26.642 59.506 59.506 59.506h74.117c32.864 0 59.506 26.642 59.506 59.506v24.359c0 32.864 26.642 59.506 59.506 59.506h224.893c32.864 0 59.506-26.642 59.506-59.506v-19.659c0-32.864 26.642-59.506 59.506-59.506h277.623v-45.859z" stroke="#f0be5b" stroke-dasharray="0 10" stroke-width="10" class="P Q S"/><g clip-path="url(#B)" class="C P"><g opacity=".4"><g stroke="#a0ccc7"><g stroke-width="2.684"><rect x="95.617" y="55.95" width="36.649" height="18.372" rx="3.477" transform="matrix(-1 0 0 -1 227.884 130.273)"/><rect x="58.968" y="55.95" width="36.649" height="18.372" rx="3.477" transform="matrix(-1 0 0 -1 154.585 130.273)"/><rect x="22.281" y="55.95" width="36.649" height="18.372" rx="3.477" transform="matrix(-1 0 0 -1 81.212 130.273)"/><rect x="-14.368" y="55.95" width="36.649" height="18.372" rx="3.477" transform="matrix(-1 0 0 -1 7.914 130.273)"/><rect x="77.317" y="37.578" width="36.649" height="18.372" rx="3.477" transform="matrix(-1 0 0 -1 191.284 93.528)"/><rect x="40.668" y="37.578" width="36.649" height="18.372" rx="3.477" transform="matrix(-1 0 0 -1 117.985 93.528)"/><rect x="3.982" y="37.578" width="36.649" height="18.372" rx="3.477" transform="matrix(-1 0 0 -1 44.612 93.528)"/><rect x="-32.668" y="37.578" width="36.649" height="18.372" rx="3.477" transform="matrix(-1 0 0 -1 -28.686 93.528)"/><rect x="95.617" y="19.206" width="36.649" height="18.372" rx="3.477" transform="matrix(-1 0 0 -1 227.884 56.784)"/><rect x="58.968" y="19.206" width="36.649" height="18.372" rx="3.477" transform="matrix(-1 0 0 -1 154.585 56.784)"/><rect x="22.281" y="19.206" width="36.649" height="18.372" rx="3.477" transform="matrix(-1 0 0 -1 81.212 56.784)"/><rect x="-14.368" y="19.206" width="36.649" height="18.372" rx="3.477" transform="matrix(-1 0 0 -1 7.914 56.784)"/><rect x="77.317" y=".884" width="36.649" height="18.372" rx="3.477" transform="matrix(-1 0 0 -1 191.284 20.14)"/><rect x="40.668" y=".884" width="36.649" height="18.372" rx="3.477" transform="matrix(-1 0 0 -1 117.985 20.14)"/><rect x="3.982" y=".884" width="36.649" height="18.372" rx="3.477" transform="matrix(-1 0 0 -1 44.612 20.14)"/><rect x="-32.668" y=".884" width="36.649" height="18.372" rx="3.477" transform="matrix(-1 0 0 -1 -28.686 20.14)"/><rect x="95.617" y="-17.489" width="36.649" height="18.372" rx="3.477" transform="matrix(-1 0 0 -1 227.884 -16.605)"/><rect x="58.968" y="-17.489" width="36.649" height="18.372" rx="3.477" transform="matrix(-1 0 0 -1 154.585 -16.605)"/><rect x="22.281" y="-17.489" width="36.649" height="18.372" rx="3.477" transform="matrix(-1 0 0 -1 81.212 -16.605)"/><rect x="-14.368" y="-17.489" width="36.649" height="18.372" rx="3.477" transform="matrix(-1 0 0 -1 7.914 -16.605)"/><rect x="462.208" y="55.95" width="36.649" height="18.372" rx="3.477" transform="matrix(-1 0 0 -1 961.066 130.273)"/><rect x="425.559" y="55.95" width="36.649" height="18.372" rx="3.477" transform="matrix(-1 0 0 -1 887.768 130.273)"/><rect x="95.68" y="55.95" width="36.649" height="18.372" rx="3.477" transform="matrix(-1 0 0 -1 228.009 130.273)"/><rect x="388.873" y="55.95" width="36.649" height="18.372" rx="3.477" transform="matrix(-1 0 0 -1 814.394 130.273)"/><rect x="352.224" y="55.95" width="36.649" height="18.372" rx="3.477" transform="matrix(-1 0 0 -1 741.096 130.273)"/><rect x="315.569" y="55.95" width="36.649" height="18.372" rx="3.477" transform="matrix(-1 0 0 -1 667.786 130.273)"/><rect x="278.92" y="55.95" width="36.649" height="18.372" rx="3.477" transform="matrix(-1 0 0 -1 594.488 130.273)"/><rect x="242.233" y="55.95" width="36.649" height="18.372" rx="3.477" transform="matrix(-1 0 0 -1 521.115 130.273)"/><rect x="205.584" y="55.95" width="36.649" height="18.372" rx="3.477" transform="matrix(-1 0 0 -1 447.817 130.273)"/><rect x="168.978" y="55.95" width="36.649" height="18.372" rx="3.477" transform="matrix(-1 0 0 -1 374.605 130.273)"/><rect x="132.329" y="55.95" width="36.649" height="18.372" rx="3.477" transform="matrix(-1 0 0 -1 301.307 130.273)"/><rect x="443.908" y="37.578" width="36.649" height="18.372" rx="3.477" transform="matrix(-1 0 0 -1 924.466 93.528)"/><rect x="407.259" y="37.578" width="36.649" height="18.372" rx="3.477" transform="matrix(-1 0 0 -1 851.168 93.528)"/><rect x="370.573" y="37.578" width="36.649" height="18.372" rx="3.477" transform="matrix(-1 0 0 -1 777.795 93.528)"/><rect x="333.924" y="37.578" width="36.649" height="18.372" rx="3.477" transform="matrix(-1 0 0 -1 704.496 93.528)"/><rect x="297.269" y="37.578" width="36.649" height="18.372" rx="3.477" transform="matrix(-1 0 0 -1 631.187 93.528)"/><rect x="260.62" y="37.578" width="36.649" height="18.372" rx="3.477" transform="matrix(-1 0 0 -1 557.888 93.528)"/><rect x="223.933" y="37.578" width="36.649" height="18.372" rx="3.477" transform="matrix(-1 0 0 -1 484.515 93.528)"/><rect x="187.284" y="37.578" width="36.649" height="18.372" rx="3.477" transform="matrix(-1 0 0 -1 411.217 93.528)"/><rect x="150.678" y="37.578" width="36.649" height="18.372" rx="3.477" transform="matrix(-1 0 0 -1 338.006 93.528)"/><rect x="114.029" y="37.578" width="36.649" height="18.372" rx="3.477" transform="matrix(-1 0 0 -1 264.707 93.528)"/><rect x="462.208" y="19.206" width="36.649" height="18.372" rx="3.477" transform="matrix(-1 0 0 -1 961.066 56.784)"/><rect x="425.559" y="19.206" width="36.649" height="18.372" rx="3.477" transform="matrix(-1 0 0 -1 887.768 56.784)"/><rect x="95.68" y="19.206" width="36.649" height="18.372" rx="3.477" transform="matrix(-1 0 0 -1 228.009 56.784)"/><rect x="388.873" y="19.206" width="36.649" height="18.372" rx="3.477" transform="matrix(-1 0 0 -1 814.394 56.784)"/><rect x="352.224" y="19.206" width="36.649" height="18.372" rx="3.477" transform="matrix(-1 0 0 -1 741.096 56.784)"/><rect x="315.569" y="19.206" width="36.649" height="18.372" rx="3.477" transform="matrix(-1 0 0 -1 667.786 56.784)"/><rect x="278.92" y="19.206" width="36.649" height="18.372" rx="3.477" transform="matrix(-1 0 0 -1 594.488 56.784)"/><rect x="242.233" y="19.206" width="36.649" height="18.372" rx="3.477" transform="matrix(-1 0 0 -1 521.115 56.784)"/><rect x="205.584" y="19.206" width="36.649" height="18.372" rx="3.477" transform="matrix(-1 0 0 -1 447.817 56.784)"/><rect x="168.978" y="19.206" width="36.649" height="18.372" rx="3.477" transform="matrix(-1 0 0 -1 374.605 56.784)"/><rect x="132.329" y="19.206" width="36.649" height="18.372" rx="3.477" transform="matrix(-1 0 0 -1 301.307 56.784)"/><rect x="443.908" y=".884" width="36.649" height="18.372" rx="3.477" transform="matrix(-1 0 0 -1 924.466 20.14)"/><rect x="407.259" y=".884" width="36.649" height="18.372" rx="3.477" transform="matrix(-1 0 0 -1 851.168 20.14)"/><rect x="370.573" y=".884" width="36.649" height="18.372" rx="3.477" transform="matrix(-1 0 0 -1 777.795 20.14)"/><rect x="333.924" y=".884" width="36.649" height="18.372" rx="3.477" transform="matrix(-1 0 0 -1 704.496 20.14)"/><rect x="297.269" y=".884" width="36.649" height="18.372" rx="3.477" transform="matrix(-1 0 0 -1 631.187 20.14)"/><rect x="260.62" y=".884" width="36.649" height="18.372" rx="3.477" transform="matrix(-1 0 0 -1 557.888 20.14)"/><rect x="223.933" y=".884" width="36.649" height="18.372" rx="3.477" transform="matrix(-1 0 0 -1 484.515 20.14)"/><rect x="187.284" y=".884" width="36.649" height="18.372" rx="3.477" transform="matrix(-1 0 0 -1 411.217 20.14)"/><rect x="150.678" y=".884" width="36.649" height="18.372" rx="3.477" transform="matrix(-1 0 0 -1 338.006 20.14)"/><rect x="114.029" y=".884" width="36.649" height="18.372" rx="3.477" transform="matrix(-1 0 0 -1 264.707 20.14)"/><rect x="462.208" y="-17.489" width="36.649" height="18.372" rx="3.477" transform="matrix(-1 0 0 -1 961.066 -16.605)"/><rect x="425.559" y="-17.489" width="36.649" height="18.372" rx="3.477" transform="matrix(-1 0 0 -1 887.768 -16.605)"/><rect x="95.68" y="-17.489" width="36.649" height="18.372" rx="3.477" transform="matrix(-1 0 0 -1 228.009 -16.605)"/><rect x="388.873" y="-17.489" width="36.649" height="18.372" rx="3.477" transform="matrix(-1 0 0 -1 814.394 -16.605)"/><rect x="352.224" y="-17.489" width="36.649" height="18.372" rx="3.477" transform="matrix(-1 0 0 -1 741.096 -16.605)"/><rect x="315.569" y="-17.489" width="36.649" height="18.372" rx="3.477" transform="matrix(-1 0 0 -1 667.786 -16.605)"/><rect x="278.92" y="-17.489" width="36.649" height="18.372" rx="3.477" transform="matrix(-1 0 0 -1 594.488 -16.605)"/><rect x="242.233" y="-17.489" width="36.649" height="18.372" rx="3.477" transform="matrix(-1 0 0 -1 521.115 -16.605)"/><rect x="205.584" y="-17.489" width="36.649" height="18.372" rx="3.477" transform="matrix(-1 0 0 -1 447.817 -16.605)"/><rect x="168.978" y="-17.489" width="36.649" height="18.372" rx="3.477" transform="matrix(-1 0 0 -1 374.605 -16.605)"/><rect x="132.329" y="-17.489" width="36.649" height="18.372" rx="3.477" transform="matrix(-1 0 0 -1 301.307 -16.605)"/><rect x="828.742" y="55.95" width="36.649" height="18.372" rx="3.477" transform="matrix(-1 0 0 -1 1694.134 130.273)"/><rect x="792.093" y="55.95" width="36.649" height="18.372" rx="3.477" transform="matrix(-1 0 0 -1 1620.836 130.273)"/><rect x="462.214" y="55.95" width="36.649" height="18.372" rx="3.477" transform="matrix(-1 0 0 -1 961.077 130.273)"/><rect x="755.407" y="55.95" width="36.649" height="18.372" rx="3.477" transform="matrix(-1 0 0 -1 1547.462 130.273)"/><rect x="718.758" y="55.95" width="36.649" height="18.372" rx="3.477" transform="matrix(-1 0 0 -1 1474.164 130.273)"/><rect x="682.103" y="55.95" width="36.649" height="18.372" rx="3.477" transform="matrix(-1 0 0 -1 1400.854 130.273)"/><rect x="645.454" y="55.95" width="36.649" height="18.372" rx="3.477" transform="matrix(-1 0 0 -1 1327.556 130.273)"/><rect x="608.767" y="55.95" width="36.649" height="18.372" rx="3.477" transform="matrix(-1 0 0 -1 1254.183 130.273)"/><rect x="572.118" y="55.95" width="36.649" height="18.372" rx="3.477" transform="matrix(-1 0 0 -1 1180.885 130.273)"/><rect x="535.512" y="55.95" width="36.649" height="18.372" rx="3.477" transform="matrix(-1 0 0 -1 1107.673 130.273)"/><rect x="498.863" y="55.95" width="36.649" height="18.372" rx="3.477" transform="matrix(-1 0 0 -1 1034.375 130.273)"/><rect x="810.442" y="37.578" width="36.649" height="18.372" rx="3.477" transform="matrix(-1 0 0 -1 1657.534 93.528)"/><rect x="773.793" y="37.578" width="36.649" height="18.372" rx="3.477" transform="matrix(-1 0 0 -1 1584.236 93.528)"/><rect x="737.107" y="37.578" width="36.649" height="18.372" rx="3.477" transform="matrix(-1 0 0 -1 1510.862 93.528)"/><rect x="700.458" y="37.578" width="36.649" height="18.372" rx="3.477" transform="matrix(-1 0 0 -1 1437.564 93.528)"/><rect x="663.803" y="37.578" width="36.649" height="18.372" rx="3.477" transform="matrix(-1 0 0 -1 1364.255 93.528)"/><rect x="627.154" y="37.578" width="36.649" height="18.372" rx="3.477" transform="matrix(-1 0 0 -1 1290.956 93.528)"/><rect x="590.467" y="37.578" width="36.649" height="18.372" rx="3.477" transform="matrix(-1 0 0 -1 1217.583 93.528)"/><rect x="553.818" y="37.578" width="36.649" height="18.372" rx="3.477" transform="matrix(-1 0 0 -1 1144.285 93.528)"/><rect x="517.212" y="37.578" width="36.649" height="18.372" rx="3.477" transform="matrix(-1 0 0 -1 1071.073 93.528)"/><rect x="480.563" y="37.578" width="36.649" height="18.372" rx="3.477" transform="matrix(-1 0 0 -1 997.775 93.528)"/><rect x="828.742" y="19.206" width="36.649" height="18.372" rx="3.477" transform="matrix(-1 0 0 -1 1694.134 56.784)"/><rect x="792.093" y="19.206" width="36.649" height="18.372" rx="3.477" transform="matrix(-1 0 0 -1 1620.836 56.784)"/><rect x="462.214" y="19.206" width="36.649" height="18.372" rx="3.477" transform="matrix(-1 0 0 -1 961.077 56.784)"/><rect x="755.407" y="19.206" width="36.649" height="18.372" rx="3.477" transform="matrix(-1 0 0 -1 1547.462 56.784)"/><rect x="718.758" y="19.206" width="36.649" height="18.372" rx="3.477" transform="matrix(-1 0 0 -1 1474.164 56.784)"/><rect x="682.103" y="19.206" width="36.649" height="18.372" rx="3.477" transform="matrix(-1 0 0 -1 1400.854 56.784)"/><rect x="645.454" y="19.206" width="36.649" height="18.372" rx="3.477" transform="matrix(-1 0 0 -1 1327.556 56.784)"/><rect x="608.767" y="19.206" width="36.649" height="18.372" rx="3.477" transform="matrix(-1 0 0 -1 1254.183 56.784)"/><rect x="572.118" y="19.206" width="36.649" height="18.372" rx="3.477" transform="matrix(-1 0 0 -1 1180.885 56.784)"/><rect x="535.512" y="19.206" width="36.649" height="18.372" rx="3.477" transform="matrix(-1 0 0 -1 1107.673 56.784)"/><rect x="498.863" y="19.206" width="36.649" height="18.372" rx="3.477" transform="matrix(-1 0 0 -1 1034.375 56.784)"/><rect x="810.442" y=".884" width="36.649" height="18.372" rx="3.477" transform="matrix(-1 0 0 -1 1657.534 20.14)"/><rect x="773.793" y=".884" width="36.649" height="18.372" rx="3.477" transform="matrix(-1 0 0 -1 1584.236 20.14)"/><rect x="737.107" y=".884" width="36.649" height="18.372" rx="3.477" transform="matrix(-1 0 0 -1 1510.862 20.14)"/><rect x="700.458" y=".884" width="36.649" height="18.372" rx="3.477" transform="matrix(-1 0 0 -1 1437.564 20.14)"/><rect x="663.803" y=".884" width="36.649" height="18.372" rx="3.477" transform="matrix(-1 0 0 -1 1364.255 20.14)"/><rect x="627.154" y=".884" width="36.649" height="18.372" rx="3.477" transform="matrix(-1 0 0 -1 1290.956 20.14)"/><rect x="590.467" y=".884" width="36.649" height="18.372" rx="3.477" transform="matrix(-1 0 0 -1 1217.583 20.14)"/><rect x="553.818" y=".884" width="36.649" height="18.372" rx="3.477" transform="matrix(-1 0 0 -1 1144.285 20.14)"/><rect x="517.212" y=".884" width="36.649" height="18.372" rx="3.477" transform="matrix(-1 0 0 -1 1071.073 20.14)"/><rect x="480.563" y=".884" width="36.649" height="18.372" rx="3.477" transform="matrix(-1 0 0 -1 997.775 20.14)"/><rect x="828.742" y="-17.489" width="36.649" height="18.372" rx="3.477" transform="matrix(-1 0 0 -1 1694.134 -16.605)"/><rect x="792.093" y="-17.489" width="36.649" height="18.372" rx="3.477" transform="matrix(-1 0 0 -1 1620.836 -16.605)"/><rect x="462.214" y="-17.489" width="36.649" height="18.372" rx="3.477" transform="matrix(-1 0 0 -1 961.077 -16.605)"/><rect x="755.407" y="-17.489" width="36.649" height="18.372" rx="3.477" transform="matrix(-1 0 0 -1 1547.462 -16.605)"/><rect x="718.758" y="-17.489" width="36.649" height="18.372" rx="3.477" transform="matrix(-1 0 0 -1 1474.164 -16.605)"/><rect x="682.103" y="-17.489" width="36.649" height="18.372" rx="3.477" transform="matrix(-1 0 0 -1 1400.854 -16.605)"/><rect x="645.454" y="-17.489" width="36.649" height="18.372" rx="3.477" transform="matrix(-1 0 0 -1 1327.556 -16.605)"/><rect x="608.767" y="-17.489" width="36.649" height="18.372" rx="3.477" transform="matrix(-1 0 0 -1 1254.183 -16.605)"/><rect x="572.118" y="-17.489" width="36.649" height="18.372" rx="3.477" transform="matrix(-1 0 0 -1 1180.885 -16.605)"/><rect x="535.512" y="-17.489" width="36.649" height="18.372" rx="3.477" transform="matrix(-1 0 0 -1 1107.673 -16.605)"/><rect x="498.863" y="-17.489" width="36.649" height="18.372" rx="3.477" transform="matrix(-1 0 0 -1 1034.375 -16.605)"/><rect x="1195.334" y="55.95" width="36.649" height="18.372" rx="3.477" transform="matrix(-1 0 0 -1 2427.316 130.273)"/><rect x="1158.684" y="55.95" width="36.649" height="18.372" rx="3.477" transform="matrix(-1 0 0 -1 2354.018 130.273)"/><rect x="828.805" y="55.95" width="36.649" height="18.372" rx="3.477" transform="matrix(-1 0 0 -1 1694.259 130.273)"/><rect x="1121.998" y="55.95" width="36.649" height="18.372" rx="3.477" transform="matrix(-1 0 0 -1 2280.645 130.273)"/><rect x="1085.349" y="55.95" width="36.649" height="18.372" rx="3.477" transform="matrix(-1 0 0 -1 2207.347 130.273)"/><rect x="1048.694" y="55.95" width="36.649" height="18.372" rx="3.477" transform="matrix(-1 0 0 -1 2134.037 130.273)"/><rect x="1012.045" y="55.95" width="36.649" height="18.372" rx="3.477" transform="matrix(-1 0 0 -1 2060.739 130.273)"/><rect x="975.358" y="55.95" width="36.649" height="18.372" rx="3.477" transform="matrix(-1 0 0 -1 1987.365 130.273)"/><rect x="938.709" y="55.95" width="36.649" height="18.372" rx="3.477" transform="matrix(-1 0 0 -1 1914.067 130.273)"/><rect x="902.103" y="55.95" width="36.649" height="18.372" rx="3.477" transform="matrix(-1 0 0 -1 1840.856 130.273)"/><rect x="865.454" y="55.95" width="36.649" height="18.372" rx="3.477" transform="matrix(-1 0 0 -1 1767.558 130.273)"/><rect x="1177.034" y="37.578" width="36.649" height="18.372" rx="3.477" transform="matrix(-1 0 0 -1 2390.716 93.528)"/><rect x="1140.385" y="37.578" width="36.649" height="18.372" rx="3.477" transform="matrix(-1 0 0 -1 2317.418 93.528)"/><rect x="1103.698" y="37.578" width="36.649" height="18.372" rx="3.477" transform="matrix(-1 0 0 -1 2244.045 93.528)"/><rect x="1067.049" y="37.578" width="36.649" height="18.372" rx="3.477" transform="matrix(-1 0 0 -1 2170.747 93.528)"/><rect x="1030.394" y="37.578" width="36.649" height="18.372" rx="3.477" transform="matrix(-1 0 0 -1 2097.437 93.528)"/><rect x="993.745" y="37.578" width="36.649" height="18.372" rx="3.477" transform="matrix(-1 0 0 -1 2024.139 93.528)"/><rect x="957.058" y="37.578" width="36.649" height="18.372" rx="3.477" transform="matrix(-1 0 0 -1 1950.765 93.528)"/><rect x="920.409" y="37.578" width="36.649" height="18.372" rx="3.477" transform="matrix(-1 0 0 -1 1877.467 93.528)"/><rect x="883.803" y="37.578" width="36.649" height="18.372" rx="3.477" transform="matrix(-1 0 0 -1 1804.256 93.528)"/><rect x="847.154" y="37.578" width="36.649" height="18.372" rx="3.477" transform="matrix(-1 0 0 -1 1730.958 93.528)"/><rect x="1195.334" y="19.206" width="36.649" height="18.372" rx="3.477" transform="matrix(-1 0 0 -1 2427.316 56.784)"/><rect x="1158.684" y="19.206" width="36.649" height="18.372" rx="3.477" transform="matrix(-1 0 0 -1 2354.018 56.784)"/><rect x="828.805" y="19.206" width="36.649" height="18.372" rx="3.477" transform="matrix(-1 0 0 -1 1694.259 56.784)"/><rect x="1121.998" y="19.206" width="36.649" height="18.372" rx="3.477" transform="matrix(-1 0 0 -1 2280.645 56.784)"/><rect x="1085.349" y="19.206" width="36.649" height="18.372" rx="3.477" transform="matrix(-1 0 0 -1 2207.347 56.784)"/><rect x="1048.694" y="19.206" width="36.649" height="18.372" rx="3.477" transform="matrix(-1 0 0 -1 2134.037 56.784)"/><rect x="1012.045" y="19.206" width="36.649" height="18.372" rx="3.477" transform="matrix(-1 0 0 -1 2060.739 56.784)"/><rect x="975.358" y="19.206" width="36.649" height="18.372" rx="3.477" transform="matrix(-1 0 0 -1 1987.365 56.784)"/><rect x="938.709" y="19.206" width="36.649" height="18.372" rx="3.477" transform="matrix(-1 0 0 -1 1914.067 56.784)"/><rect x="902.103" y="19.206" width="36.649" height="18.372" rx="3.477" transform="matrix(-1 0 0 -1 1840.856 56.784)"/><rect x="865.454" y="19.206" width="36.649" height="18.372" rx="3.477" transform="matrix(-1 0 0 -1 1767.558 56.784)"/><rect x="1177.034" y=".884" width="36.649" height="18.372" rx="3.477" transform="matrix(-1 0 0 -1 2390.716 20.14)"/><rect x="1140.385" y=".884" width="36.649" height="18.372" rx="3.477" transform="matrix(-1 0 0 -1 2317.418 20.14)"/><rect x="1103.698" y=".884" width="36.649" height="18.372" rx="3.477" transform="matrix(-1 0 0 -1 2244.045 20.14)"/><rect x="1067.049" y=".884" width="36.649" height="18.372" rx="3.477" transform="matrix(-1 0 0 -1 2170.747 20.14)"/><rect x="1030.394" y=".884" width="36.649" height="18.372" rx="3.477" transform="matrix(-1 0 0 -1 2097.437 20.14)"/><rect x="993.745" y=".884" width="36.649" height="18.372" rx="3.477" transform="matrix(-1 0 0 -1 2024.139 20.14)"/><rect x="957.058" y=".884" width="36.649" height="18.372" rx="3.477" transform="matrix(-1 0 0 -1 1950.765 20.14)"/><rect x="920.409" y=".884" width="36.649" height="18.372" rx="3.477" transform="matrix(-1 0 0 -1 1877.467 20.14)"/><rect x="883.803" y=".884" width="36.649" height="18.372" rx="3.477" transform="matrix(-1 0 0 -1 1804.256 20.14)"/><rect x="847.154" y=".884" width="36.649" height="18.372" rx="3.477" transform="matrix(-1 0 0 -1 1730.958 20.14)"/><rect x="1195.334" y="-17.489" width="36.649" height="18.372" rx="3.477" transform="matrix(-1 0 0 -1 2427.316 -16.605)"/><rect x="1158.684" y="-17.489" width="36.649" height="18.372" rx="3.477" transform="matrix(-1 0 0 -1 2354.018 -16.605)"/><rect x="828.805" y="-17.489" width="36.649" height="18.372" rx="3.477" transform="matrix(-1 0 0 -1 1694.259 -16.605)"/><rect x="1121.998" y="-17.489" width="36.649" height="18.372" rx="3.477" transform="matrix(-1 0 0 -1 2280.645 -16.605)"/><rect x="1085.349" y="-17.489" width="36.649" height="18.372" rx="3.477" transform="matrix(-1 0 0 -1 2207.347 -16.605)"/><rect x="1048.694" y="-17.489" width="36.649" height="18.372" rx="3.477" transform="matrix(-1 0 0 -1 2134.037 -16.605)"/><rect x="1012.045" y="-17.489" width="36.649" height="18.372" rx="3.477" transform="matrix(-1 0 0 -1 2060.739 -16.605)"/><rect x="975.358" y="-17.489" width="36.649" height="18.372" rx="3.477" transform="matrix(-1 0 0 -1 1987.365 -16.605)"/><rect x="938.709" y="-17.489" width="36.649" height="18.372" rx="3.477" transform="matrix(-1 0 0 -1 1914.067 -16.605)"/><rect x="902.103" y="-17.489" width="36.649" height="18.372" rx="3.477" transform="matrix(-1 0 0 -1 1840.856 -16.605)"/><rect x="865.454" y="-17.489" width="36.649" height="18.372" rx="3.477" transform="matrix(-1 0 0 -1 1767.558 -16.605)"/><rect x="95.617" y="129.72" width="36.649" height="18.372" rx="3.477" transform="matrix(-1 0 0 -1 227.884 277.812)"/><rect x="58.968" y="129.72" width="36.649" height="18.372" rx="3.477" transform="matrix(-1 0 0 -1 154.585 277.812)"/><rect x="22.281" y="129.72" width="36.649" height="18.372" rx="3.477" transform="matrix(-1 0 0 -1 81.212 277.812)"/><rect x="-14.368" y="129.72" width="36.649" height="18.372" rx="3.477" transform="matrix(-1 0 0 -1 7.914 277.812)"/><rect x="77.317" y="111.348" width="36.649" height="18.372" rx="3.477" transform="matrix(-1 0 0 -1 191.284 241.068)"/><rect x="40.668" y="111.348" width="36.649" height="18.372" rx="3.477" transform="matrix(-1 0 0 -1 117.985 241.068)"/><rect x="3.982" y="111.348" width="36.649" height="18.372" rx="3.477" transform="matrix(-1 0 0 -1 44.612 241.068)"/><rect x="-32.668" y="111.348" width="36.649" height="18.372" rx="3.477" transform="matrix(-1 0 0 -1 -28.686 241.068)"/><rect x="95.617" y="92.976" width="36.649" height="18.372" rx="3.477" transform="matrix(-1 0 0 -1 227.884 204.323)"/><rect x="58.968" y="92.976" width="36.649" height="18.372" rx="3.477" transform="matrix(-1 0 0 -1 154.585 204.323)"/><rect x="22.281" y="92.976" width="36.649" height="18.372" rx="3.477" transform="matrix(-1 0 0 -1 81.212 204.323)"/><rect x="-14.368" y="92.976" width="36.649" height="18.372" rx="3.477" transform="matrix(-1 0 0 -1 7.914 204.323)"/><rect x="77.317" y="74.603" width="36.649" height="18.372" rx="3.477" transform="matrix(-1 0 0 -1 191.284 167.579)"/><rect x="40.668" y="74.603" width="36.649" height="18.372" rx="3.477" transform="matrix(-1 0 0 -1 117.985 167.579)"/><rect x="3.982" y="74.603" width="36.649" height="18.372" rx="3.477" transform="matrix(-1 0 0 -1 44.612 167.579)"/><rect x="-32.668" y="74.603" width="36.649" height="18.372" rx="3.477" transform="matrix(-1 0 0 -1 -28.686 167.579)"/><rect x="462.208" y="129.72" width="36.649" height="18.372" rx="3.477" transform="matrix(-1 0 0 -1 961.066 277.812)"/><rect x="425.559" y="129.72" width="36.649" height="18.372" rx="3.477" transform="matrix(-1 0 0 -1 887.768 277.812)"/><rect x="95.68" y="129.72" width="36.649" height="18.372" rx="3.477" transform="matrix(-1 0 0 -1 228.009 277.812)"/><rect x="388.873" y="129.72" width="36.649" height="18.372" rx="3.477" transform="matrix(-1 0 0 -1 814.394 277.812)"/><rect x="352.224" y="129.72" width="36.649" height="18.372" rx="3.477" transform="matrix(-1 0 0 -1 741.096 277.812)"/><rect x="315.569" y="129.72" width="36.649" height="18.372" rx="3.477" transform="matrix(-1 0 0 -1 667.786 277.812)"/><rect x="278.92" y="129.72" width="36.649" height="18.372" rx="3.477" transform="matrix(-1 0 0 -1 594.488 277.812)"/><rect x="242.233" y="129.72" width="36.649" height="18.372" rx="3.477" transform="matrix(-1 0 0 -1 521.115 277.812)"/><rect x="205.584" y="129.72" width="36.649" height="18.372" rx="3.477" transform="matrix(-1 0 0 -1 447.817 277.812)"/><rect x="168.978" y="129.72" width="36.649" height="18.372" rx="3.477" transform="matrix(-1 0 0 -1 374.605 277.812)"/><rect x="132.329" y="129.72" width="36.649" height="18.372" rx="3.477" transform="matrix(-1 0 0 -1 301.307 277.812)"/><rect x="443.908" y="111.348" width="36.649" height="18.372" rx="3.477" transform="matrix(-1 0 0 -1 924.466 241.068)"/><rect x="407.259" y="111.348" width="36.649" height="18.372" rx="3.477" transform="matrix(-1 0 0 -1 851.168 241.068)"/><rect x="370.573" y="111.348" width="36.649" height="18.372" rx="3.477" transform="matrix(-1 0 0 -1 777.795 241.068)"/><rect x="333.924" y="111.348" width="36.649" height="18.372" rx="3.477" transform="matrix(-1 0 0 -1 704.496 241.068)"/><rect x="297.269" y="111.348" width="36.649" height="18.372" rx="3.477" transform="matrix(-1 0 0 -1 631.187 241.068)"/><rect x="260.62" y="111.348" width="36.649" height="18.372" rx="3.477" transform="matrix(-1 0 0 -1 557.888 241.068)"/><rect x="223.933" y="111.348" width="36.649" height="18.372" rx="3.477" transform="matrix(-1 0 0 -1 484.515 241.068)"/><rect x="187.284" y="111.348" width="36.649" height="18.372" rx="3.477" transform="matrix(-1 0 0 -1 411.217 241.068)"/><rect x="150.678" y="111.348" width="36.649" height="18.372" rx="3.477" transform="matrix(-1 0 0 -1 338.006 241.068)"/><rect x="114.029" y="111.348" width="36.649" height="18.372" rx="3.477" transform="matrix(-1 0 0 -1 264.707 241.068)"/><rect x="462.208" y="92.976" width="36.649" height="18.372" rx="3.477" transform="matrix(-1 0 0 -1 961.066 204.323)"/><rect x="425.559" y="92.976" width="36.649" height="18.372" rx="3.477" transform="matrix(-1 0 0 -1 887.768 204.323)"/><rect x="95.68" y="92.976" width="36.649" height="18.372" rx="3.477" transform="matrix(-1 0 0 -1 228.009 204.323)"/><rect x="388.873" y="92.976" width="36.649" height="18.372" rx="3.477" transform="matrix(-1 0 0 -1 814.394 204.323)"/><rect x="352.224" y="92.976" width="36.649" height="18.372" rx="3.477" transform="matrix(-1 0 0 -1 741.096 204.323)"/><rect x="315.569" y="92.976" width="36.649" height="18.372" rx="3.477" transform="matrix(-1 0 0 -1 667.786 204.323)"/><rect x="278.92" y="92.976" width="36.649" height="18.372" rx="3.477" transform="matrix(-1 0 0 -1 594.488 204.323)"/><rect x="242.233" y="92.976" width="36.649" height="18.372" rx="3.477" transform="matrix(-1 0 0 -1 521.115 204.323)"/><rect x="205.584" y="92.976" width="36.649" height="18.372" rx="3.477" transform="matrix(-1 0 0 -1 447.817 204.323)"/><rect x="168.978" y="92.976" width="36.649" height="18.372" rx="3.477" transform="matrix(-1 0 0 -1 374.605 204.323)"/><rect x="132.329" y="92.976" width="36.649" height="18.372" rx="3.477" transform="matrix(-1 0 0 -1 301.307 204.323)"/><rect x="443.908" y="74.603" width="36.649" height="18.372" rx="3.477" transform="matrix(-1 0 0 -1 924.466 167.579)"/><rect x="407.259" y="74.603" width="36.649" height="18.372" rx="3.477" transform="matrix(-1 0 0 -1 851.168 167.579)"/><rect x="370.573" y="74.603" width="36.649" height="18.372" rx="3.477" transform="matrix(-1 0 0 -1 777.795 167.579)"/><rect x="333.924" y="74.603" width="36.649" height="18.372" rx="3.477" transform="matrix(-1 0 0 -1 704.496 167.579)"/><rect x="297.269" y="74.603" width="36.649" height="18.372" rx="3.477" transform="matrix(-1 0 0 -1 631.187 167.579)"/><rect x="260.62" y="74.603" width="36.649" height="18.372" rx="3.477" transform="matrix(-1 0 0 -1 557.888 167.579)"/><rect x="223.933" y="74.603" width="36.649" height="18.372" rx="3.477" transform="matrix(-1 0 0 -1 484.515 167.579)"/><rect x="187.284" y="74.603" width="36.649" height="18.372" rx="3.477" transform="matrix(-1 0 0 -1 411.217 167.579)"/><rect x="150.678" y="74.603" width="36.649" height="18.372" rx="3.477" transform="matrix(-1 0 0 -1 338.006 167.579)"/><rect x="114.029" y="74.603" width="36.649" height="18.372" rx="3.477" transform="matrix(-1 0 0 -1 264.707 167.579)"/><rect x="828.742" y="129.72" width="36.649" height="18.372" rx="3.477" transform="matrix(-1 0 0 -1 1694.134 277.812)"/><rect x="792.093" y="129.72" width="36.649" height="18.372" rx="3.477" transform="matrix(-1 0 0 -1 1620.836 277.812)"/><rect x="462.214" y="129.72" width="36.649" height="18.372" rx="3.477" transform="matrix(-1 0 0 -1 961.077 277.812)"/><rect x="755.407" y="129.72" width="36.649" height="18.372" rx="3.477" transform="matrix(-1 0 0 -1 1547.462 277.812)"/><rect x="718.758" y="129.72" width="36.649" height="18.372" rx="3.477" transform="matrix(-1 0 0 -1 1474.164 277.812)"/><rect x="682.103" y="129.72" width="36.649" height="18.372" rx="3.477" transform="matrix(-1 0 0 -1 1400.854 277.812)"/><rect x="645.454" y="129.72" width="36.649" height="18.372" rx="3.477" transform="matrix(-1 0 0 -1 1327.556 277.812)"/><rect x="608.767" y="129.72" width="36.649" height="18.372" rx="3.477" transform="matrix(-1 0 0 -1 1254.183 277.812)"/><rect x="572.118" y="129.72" width="36.649" height="18.372" rx="3.477" transform="matrix(-1 0 0 -1 1180.885 277.812)"/><rect x="535.512" y="129.72" width="36.649" height="18.372" rx="3.477" transform="matrix(-1 0 0 -1 1107.673 277.812)"/><rect x="498.863" y="129.72" width="36.649" height="18.372" rx="3.477" transform="matrix(-1 0 0 -1 1034.375 277.812)"/><rect x="810.442" y="111.348" width="36.649" height="18.372" rx="3.477" transform="matrix(-1 0 0 -1 1657.534 241.068)"/><rect x="773.793" y="111.348" width="36.649" height="18.372" rx="3.477" transform="matrix(-1 0 0 -1 1584.236 241.068)"/><rect x="737.107" y="111.348" width="36.649" height="18.372" rx="3.477" transform="matrix(-1 0 0 -1 1510.862 241.068)"/><rect x="700.458" y="111.348" width="36.649" height="18.372" rx="3.477" transform="matrix(-1 0 0 -1 1437.564 241.068)"/><rect x="663.803" y="111.348" width="36.649" height="18.372" rx="3.477" transform="matrix(-1 0 0 -1 1364.255 241.068)"/><rect x="627.154" y="111.348" width="36.649" height="18.372" rx="3.477" transform="matrix(-1 0 0 -1 1290.956 241.068)"/><rect x="590.467" y="111.348" width="36.649" height="18.372" rx="3.477" transform="matrix(-1 0 0 -1 1217.583 241.068)"/><rect x="553.818" y="111.348" width="36.649" height="18.372" rx="3.477" transform="matrix(-1 0 0 -1 1144.285 241.068)"/><rect x="517.212" y="111.348" width="36.649" height="18.372" rx="3.477" transform="matrix(-1 0 0 -1 1071.073 241.068)"/><rect x="480.563" y="111.348" width="36.649" height="18.372" rx="3.477" transform="matrix(-1 0 0 -1 997.775 241.068)"/><rect x="828.742" y="92.976" width="36.649" height="18.372" rx="3.477" transform="matrix(-1 0 0 -1 1694.134 204.323)"/><rect x="792.093" y="92.976" width="36.649" height="18.372" rx="3.477" transform="matrix(-1 0 0 -1 1620.836 204.323)"/><rect x="462.214" y="92.976" width="36.649" height="18.372" rx="3.477" transform="matrix(-1 0 0 -1 961.077 204.323)"/><rect x="755.407" y="92.976" width="36.649" height="18.372" rx="3.477" transform="matrix(-1 0 0 -1 1547.462 204.323)"/><rect x="718.758" y="92.976" width="36.649" height="18.372" rx="3.477" transform="matrix(-1 0 0 -1 1474.164 204.323)"/><rect x="682.103" y="92.976" width="36.649" height="18.372" rx="3.477" transform="matrix(-1 0 0 -1 1400.854 204.323)"/><rect x="645.454" y="92.976" width="36.649" height="18.372" rx="3.477" transform="matrix(-1 0 0 -1 1327.556 204.323)"/><rect x="608.767" y="92.976" width="36.649" height="18.372" rx="3.477" transform="matrix(-1 0 0 -1 1254.183 204.323)"/><rect x="572.118" y="92.976" width="36.649" height="18.372" rx="3.477" transform="matrix(-1 0 0 -1 1180.885 204.323)"/><rect x="535.512" y="92.976" width="36.649" height="18.372" rx="3.477" transform="matrix(-1 0 0 -1 1107.673 204.323)"/><rect x="498.863" y="92.976" width="36.649" height="18.372" rx="3.477" transform="matrix(-1 0 0 -1 1034.375 204.323)"/><rect x="810.442" y="74.603" width="36.649" height="18.372" rx="3.477" transform="matrix(-1 0 0 -1 1657.534 167.579)"/><rect x="773.793" y="74.603" width="36.649" height="18.372" rx="3.477" transform="matrix(-1 0 0 -1 1584.236 167.579)"/><rect x="737.107" y="74.603" width="36.649" height="18.372" rx="3.477" transform="matrix(-1 0 0 -1 1510.862 167.579)"/><rect x="700.458" y="74.603" width="36.649" height="18.372" rx="3.477" transform="matrix(-1 0 0 -1 1437.564 167.579)"/><rect x="663.803" y="74.603" width="36.649" height="18.372" rx="3.477" transform="matrix(-1 0 0 -1 1364.255 167.579)"/><rect x="627.154" y="74.603" width="36.649" height="18.372" rx="3.477" transform="matrix(-1 0 0 -1 1290.956 167.579)"/><rect x="590.467" y="74.603" width="36.649" height="18.372" rx="3.477" transform="matrix(-1 0 0 -1 1217.583 167.579)"/><rect x="553.818" y="74.603" width="36.649" height="18.372" rx="3.477" transform="matrix(-1 0 0 -1 1144.285 167.579)"/><rect x="517.212" y="74.603" width="36.649" height="18.372" rx="3.477" transform="matrix(-1 0 0 -1 1071.073 167.579)"/><rect x="480.563" y="74.603" width="36.649" height="18.372" rx="3.477" transform="matrix(-1 0 0 -1 997.775 167.579)"/><rect x="1195.334" y="129.72" width="36.649" height="18.372" rx="3.477" transform="matrix(-1 0 0 -1 2427.316 277.812)"/><rect x="1158.684" y="129.72" width="36.649" height="18.372" rx="3.477" transform="matrix(-1 0 0 -1 2354.018 277.812)"/><rect x="828.805" y="129.72" width="36.649" height="18.372" rx="3.477" transform="matrix(-1 0 0 -1 1694.259 277.812)"/><rect x="1121.998" y="129.72" width="36.649" height="18.372" rx="3.477" transform="matrix(-1 0 0 -1 2280.645 277.812)"/><rect x="1085.349" y="129.72" width="36.649" height="18.372" rx="3.477" transform="matrix(-1 0 0 -1 2207.347 277.812)"/><rect x="1048.694" y="129.72" width="36.649" height="18.372" rx="3.477" transform="matrix(-1 0 0 -1 2134.037 277.812)"/><rect x="1012.045" y="129.72" width="36.649" height="18.372" rx="3.477" transform="matrix(-1 0 0 -1 2060.739 277.812)"/><rect x="975.358" y="129.72" width="36.649" height="18.372" rx="3.477" transform="matrix(-1 0 0 -1 1987.365 277.812)"/><rect x="938.709" y="129.72" width="36.649" height="18.372" rx="3.477" transform="matrix(-1 0 0 -1 1914.067 277.812)"/><rect x="902.103" y="129.72" width="36.649" height="18.372" rx="3.477" transform="matrix(-1 0 0 -1 1840.856 277.812)"/><rect x="865.454" y="129.72" width="36.649" height="18.372" rx="3.477" transform="matrix(-1 0 0 -1 1767.558 277.812)"/><rect x="1177.034" y="111.348" width="36.649" height="18.372" rx="3.477" transform="matrix(-1 0 0 -1 2390.716 241.068)"/><rect x="1140.385" y="111.348" width="36.649" height="18.372" rx="3.477" transform="matrix(-1 0 0 -1 2317.418 241.068)"/><rect x="1103.698" y="111.348" width="36.649" height="18.372" rx="3.477" transform="matrix(-1 0 0 -1 2244.045 241.068)"/><rect x="1067.049" y="111.348" width="36.649" height="18.372" rx="3.477" transform="matrix(-1 0 0 -1 2170.747 241.068)"/><rect x="1030.394" y="111.348" width="36.649" height="18.372" rx="3.477" transform="matrix(-1 0 0 -1 2097.437 241.068)"/><rect x="993.745" y="111.348" width="36.649" height="18.372" rx="3.477" transform="matrix(-1 0 0 -1 2024.139 241.068)"/><rect x="957.058" y="111.348" width="36.649" height="18.372" rx="3.477" transform="matrix(-1 0 0 -1 1950.765 241.068)"/><rect x="920.409" y="111.348" width="36.649" height="18.372" rx="3.477" transform="matrix(-1 0 0 -1 1877.467 241.068)"/><rect x="883.803" y="111.348" width="36.649" height="18.372" rx="3.477" transform="matrix(-1 0 0 -1 1804.256 241.068)"/><rect x="847.154" y="111.348" width="36.649" height="18.372" rx="3.477" transform="matrix(-1 0 0 -1 1730.958 241.068)"/><rect x="1195.334" y="92.976" width="36.649" height="18.372" rx="3.477" transform="matrix(-1 0 0 -1 2427.316 204.323)"/><rect x="1158.684" y="92.976" width="36.649" height="18.372" rx="3.477" transform="matrix(-1 0 0 -1 2354.018 204.323)"/><rect x="828.805" y="92.976" width="36.649" height="18.372" rx="3.477" transform="matrix(-1 0 0 -1 1694.259 204.323)"/><rect x="1121.998" y="92.976" width="36.649" height="18.372" rx="3.477" transform="matrix(-1 0 0 -1 2280.645 204.323)"/><rect x="1085.349" y="92.976" width="36.649" height="18.372" rx="3.477" transform="matrix(-1 0 0 -1 2207.347 204.323)"/><rect x="1048.694" y="92.976" width="36.649" height="18.372" rx="3.477" transform="matrix(-1 0 0 -1 2134.037 204.323)"/><rect x="1012.045" y="92.976" width="36.649" height="18.372" rx="3.477" transform="matrix(-1 0 0 -1 2060.739 204.323)"/><rect x="975.358" y="92.976" width="36.649" height="18.372" rx="3.477" transform="matrix(-1 0 0 -1 1987.365 204.323)"/><rect x="938.709" y="92.976" width="36.649" height="18.372" rx="3.477" transform="matrix(-1 0 0 -1 1914.067 204.323)"/><rect x="902.103" y="92.976" width="36.649" height="18.372" rx="3.477" transform="matrix(-1 0 0 -1 1840.856 204.323)"/><rect x="865.454" y="92.976" width="36.649" height="18.372" rx="3.477" transform="matrix(-1 0 0 -1 1767.558 204.323)"/><rect x="1177.034" y="74.603" width="36.649" height="18.372" rx="3.477" transform="matrix(-1 0 0 -1 2390.716 167.579)"/><rect x="1140.385" y="74.603" width="36.649" height="18.372" rx="3.477" transform="matrix(-1 0 0 -1 2317.418 167.579)"/><rect x="1103.698" y="74.603" width="36.649" height="18.372" rx="3.477" transform="matrix(-1 0 0 -1 2244.045 167.579)"/><rect x="1067.049" y="74.603" width="36.649" height="18.372" rx="3.477" transform="matrix(-1 0 0 -1 2170.747 167.579)"/><rect x="1030.394" y="74.603" width="36.649" height="18.372" rx="3.477" transform="matrix(-1 0 0 -1 2097.437 167.579)"/><rect x="993.745" y="74.603" width="36.649" height="18.372" rx="3.477" transform="matrix(-1 0 0 -1 2024.139 167.579)"/><rect x="957.058" y="74.603" width="36.649" height="18.372" rx="3.477" transform="matrix(-1 0 0 -1 1950.765 167.579)"/><rect x="920.409" y="74.603" width="36.649" height="18.372" rx="3.477" transform="matrix(-1 0 0 -1 1877.467 167.579)"/><rect x="883.803" y="74.603" width="36.649" height="18.372" rx="3.477" transform="matrix(-1 0 0 -1 1804.256 167.579)"/><rect x="847.154" y="74.603" width="36.649" height="18.372" rx="3.477" transform="matrix(-1 0 0 -1 1730.958 167.579)"/><rect x="1195.358" y="129.72" width="36.649" height="18.372" rx="3.477" transform="matrix(-1 0 0 -1 2427.365 277.812)"/><rect x="1195.358" y="92.976" width="36.649" height="18.372" rx="3.477" transform="matrix(-1 0 0 -1 2427.365 204.323)"/></g></g></g></g><g stroke="#fff" stroke-width="14.627" class="C P Q"><path d="M706.779 34.194h92.646M726.3 97.579h38.984" opacity=".412"/></g><path d="M751.61 86.131h80.979v47.582H751.61z" fill="#de8534"/><g fill="#d94e28"><path d="M680.237 86.132h88.366v37.386h-88.366z"/><g class="B"><path d="M805.981,21.557h.886c3.278,0,5.907,2.643,5.907,5.907v24.681h27.2v33.987h-33.993V21.557Z"/><path d="M846.885 66.188l.118.006.088.009.118.014.118.018.089.021.118.026.089.03.118.035.089.036.118.041.088.047.118.048.089.053.089.056.088.059.089.062.088.065.089.071.088.071.06.074.088.079.059.08.089.083.059.085.059.089.059.092.059.091.059.095.059.097.03.101.059.1.029.1.03.104.029.103.03.106.03.107.029.106v.109l.03.11v.109.106.109.11.109l-.03.109v.107l-.029.109-.03.106-.03.106-.029.104-.03.103-.029.101-.059.1-.03.1-.059.095-.059.097-.059.092-.059.091-.059.089-.059.086-.089.082-.059.08-.088.08-.06.074-.088.071-.089.071-.088.065-.089.062-.088.059-.089.056-.089.053-.118.047-.088.044-.118.042-.089.038-.118.036-.089.029-.118.024-.089.023-.118.018-.118.015-.088.009-.118.006-.119.003h-10.188l-.119-.003-.088-.006-.119-.009-.118-.015-.088-.018-.118-.023-.118-.024-.089-.029-.118-.036-.089-.038-.088-.042-.119-.044-.088-.047-.089-.053-.118-.056-.088-.059-.089-.062-.089-.065-.088-.071-.059-.071-.089-.074-.089-.08-.058-.08-.06-.082-.088-.086-.059-.089-.059-.091-.06-.092-.058-.097-.03-.095-.059-.1-.059-.1-.03-.101-.029-.103-.03-.104-.029-.106-.03-.106-.03-.109v-.107l-.029-.109v-.109-.11-.109-.106-.109l.029-.11v-.109l.03-.106.03-.107.029-.106.03-.103.029-.104.03-.1.059-.1.059-.101.03-.097.058-.095.06-.091.059-.092.059-.089.088-.085.06-.083.058-.08.089-.079.089-.074.059-.071.088-.071.089-.065.089-.062.088-.059.118-.056.089-.053.088-.048.119-.047.088-.041.089-.036.118-.035.089-.03.118-.026.118-.021.088-.018.118-.014.119-.009.088-.006.119-.003h10.188l.119.003zm0 13.594l.118.006.088.009.118.015.118.017.089.024.118.027.089.029.118.033.089.038.118.041.088.045.118.047.089.053.089.056.088.059.089.062.088.065.089.071.088.071.06.077.088.077.059.079.089.086.059.086.059.085.059.092.059.094.059.095.059.094.03.101.059.1.029.1.03.104.029.106.03.104.03.106.029.109v.106l.03.11v.109.109.11.109.106l-.03.109v.11l-.029.106-.03.106-.03.107-.029.103-.03.103-.029.104-.059.1-.03.098-.059.097-.059.095-.059.091-.059.092-.059.088-.059.086-.089.083-.059.079-.088.08-.06.074-.088.074-.089.068-.088.065-.089.062-.088.059-.089.056-.089.053-.118.047-.088.048-.118.041-.089.035-.118.036-.089.029-.118.027-.089.021-.118.017-.118.015-.088.009-.118.009h-.119-10.188-.119l-.088-.009-.119-.009-.118-.015-.088-.017-.118-.021-.118-.027-.089-.029-.118-.036-.089-.035-.088-.041-.119-.048-.088-.047-.089-.053-.118-.056-.088-.059-.089-.062-.089-.065-.088-.068-.059-.074-.089-.074-.089-.08-.058-.079-.06-.083-.088-.086-.059-.088-.059-.092-.06-.091-.058-.095-.03-.097-.059-.098-.059-.1-.03-.104-.029-.103-.03-.103-.029-.107-.03-.106-.03-.106v-.11l-.029-.109v-.106-.109-.11-.109-.109l.029-.11v-.106l.03-.109.03-.106.029-.104.03-.106.029-.104.03-.1.059-.1.059-.101.03-.094.058-.095.06-.094.059-.092.059-.085.088-.086.06-.086.058-.079.089-.077.089-.077.059-.071.088-.071.089-.065.089-.062.088-.059.118-.056.089-.053.088-.047.119-.045.088-.041.089-.038.118-.033.089-.029.118-.027.118-.024.088-.017.118-.015.119-.009.088-.006.119-.003h10.188l.119.003zm0-27.191l.118.009.088.009.118.014.118.018.089.021.118.026.089.03.118.035.089.036.118.041.088.047.118.048.089.053.089.056.088.059.089.062.088.065.089.068.088.074.06.073.088.08.059.08.089.083.059.085.059.089.059.091.059.092.059.094.059.098.03.097.059.101.029.103.03.104.029.103.03.106.03.107.029.106v.109l.03.109v.107.109.109.11.109l-.03.109v.106l-.029.11-.03.106-.03.103-.029.107-.03.103-.029.101-.059.1-.03.1-.059.095-.059.094-.059.095-.059.091-.059.086-.059.089-.089.082-.059.08-.088.077-.06.077-.088.07-.089.071-.088.065-.089.062-.088.059-.089.057-.089.053-.118.047-.088.044-.118.042-.089.038-.118.033-.089.032-.118.024-.089.023-.118.018-.118.015-.088.009-.118.006-.119.002h-10.188l-.119-.002-.088-.006-.119-.009-.118-.015-.088-.018-.118-.023-.118-.024-.089-.032-.118-.033-.089-.038-.088-.042-.119-.044-.088-.047-.089-.053-.118-.057-.088-.059-.089-.062-.089-.065-.088-.071-.059-.07-.089-.077-.089-.077-.058-.08-.06-.082-.088-.089-.059-.086-.059-.091-.06-.095-.058-.094-.03-.095-.059-.1-.059-.1-.03-.101-.029-.103-.03-.107-.029-.103-.03-.106-.03-.11v-.106l-.029-.109v-.109-.11-.109-.109-.107l.029-.109v-.109l.03-.106.03-.107.029-.106.03-.103.029-.104.03-.103.059-.101.059-.097.03-.098.058-.094.06-.092.059-.091.059-.089.088-.085.06-.083.058-.08.089-.08.089-.073.059-.074.088-.068.089-.065.089-.062.088-.059.118-.056.089-.053.088-.048.119-.047.088-.041.089-.036.118-.035.089-.03.118-.026.118-.021.088-.018.118-.014.119-.009.088-.009h.119 10.188.119z"/></g></g><path d="M819.596 52.145h-6.822v16.996a3.41 3.41 0 0 0 3.396 3.396h.03c1.861 0 3.396-1.521 3.396-3.396V52.145z" fill="#b14122" class="B"/><g fill="#fff"><path d="M697.231 28.354h108.758v57.778H697.231z"/><g class="B"><path d="M751.61 6.094l54.371 39.252h-108.75L751.61 6.094z"/></g></g><path d="M715.521 39.44h72.209l-36.119-26.063-36.09 26.063zm90.46 5.906h-108.75L751.61 6.093l54.371 39.253z" fill="#f7e3c5" class="B"/><g class="T"><path d="M796.028 31.752h2.953v54.379h-2.953zM731.439 4.563h2.953v81.569h-2.953zm50.974 3.398h2.953v78.17h-2.953zm-64.559-3.398h2.953v81.569h-2.953zm50.974 3.398h2.953v78.17h-2.953zm-64.589 27.19h2.953v50.981h-2.953z"/></g><path d="M751.61-44.76L697.231-5.714v51.06L751.61 6.303V-44.76z" fill="#faf1e2" class="B"/><g clip-path="url(#C)" class="T"><path d="M691.818 30.575l58.91-44.181 1.772 2.362-58.91 44.181zm-.001-16.995l58.91-44.185 1.772 2.362-58.91 44.185z"/></g><path d="M751.61-44.76l54.371 39.046v51.06L751.61 6.303V-44.76z" fill="#faf1e2" class="B"/><g clip-path="url(#D)" class="T"><path d="M750.73-11.251l1.772-2.362 58.912 44.191-1.772 2.362zm-.001-16.996l1.772-2.362 58.913 44.193-1.772 2.362z"/></g><g class="B"><path d="M755.007-43.183c0-1.878-1.506-3.396-3.396-3.396h0c-1.89,0-3.396,1.518-3.396,3.396V7.963c0,1.875,1.506,3.396,3.396,3.396h0c1.89,0,3.396-1.521,3.396-3.396v-51.146Z" fill="#847459"/><g fill="#524633"><path d="M737.73 57.479l.147.026.118.038.148.051.118.065.118.073.118.086.089.098.089.106.088.112.089.121.059.127.029.133.03.136.03.139v.142.138l-.03.142-.03.136-9.687 33.987-.058.133-.06.127-.059.124-.088.115-.089.106-.118.098-.088.088-.119.077-.118.065-.147.053-.119.042-.147.026-.148.015h-.148l-.118-.012-.147-.026-.148-.039-.118-.05-.118-.065-.118-.074-.119-.086-.088-.097-.118-.103-.059-.115-.089-.122-.059-.127-.03-.132-.059-.136v-.139l-.029-.142.029-.139v-.138l.03-.139 9.716-33.987.059-.133.059-.127.059-.124.089-.115.089-.107.088-.097.118-.089.119-.076.118-.065.147-.054.119-.041.147-.027.148-.014h.118l.148.012zm28.056-.012l.118.014.148.027.118.041.148.054.118.065.118.076.118.089.089.097.088.107.089.115.059.124.059.127.059.133 9.717 33.987.029.139v.138l.03.139-.03.142v.139l-.059.136-.029.132-.059.127-.089.122-.059.115-.089.103-.118.097-.118.086-.118.074-.118.065-.118.05-.148.039-.148.026-.118.012h-.148l-.147-.015-.148-.026-.118-.042-.148-.053-.118-.065-.118-.077-.089-.088-.118-.098-.088-.106-.089-.115-.059-.124-.059-.127-.03-.133-9.716-33.987-.03-.136-.029-.142v-.138-.142l.029-.139.03-.136.059-.133.059-.127.059-.121.089-.112.088-.106.089-.098.118-.086.118-.073.118-.065.148-.051.118-.038.148-.026.147-.012h.148z"/></g><path d="M768.592 63.483a2.28 2.28 0 0 1-.65 1.595c-.414.425-1.004.662-1.595.662h-29.474c-.591 0-1.181-.236-1.595-.662a2.28 2.28 0 0 1-.65-1.595V45.347h33.963v18.136z" fill="#f7e8cf"/><path d="M768.592 63.483a2.25 2.25 0 0 1-2.244 2.256h-29.474a2.25 2.25 0 0 1-2.245-2.256v-4.539h33.963v4.539z" fill="#f3d6aa"/></g><path d="M741.421 65.74h20.392v20.392h-20.392z" fill="#524633"/><g opacity=".55" fill="#d59660"><circle cx="890.375" cy="24.393" r="2.597"/><circle cx="880.645" cy="27.466" r="2.597"/><circle cx="885.867" cy="33.878" r="2.597"/><circle cx="862.617" cy="38.702" r="2.597"/><circle cx="862.447" cy="21.169" r="2.597"/></g><g class="B"><use href="#a" class="O"/><use href="#b" class="G"/><path d="M50.718 52.614c0-1.922 1.551-3.484 3.472-3.495h.003c.925-.007 1.813.357 2.468 1.007a3.47 3.47 0 0 1 1.024 2.462v5.273a9.54 9.54 0 0 0 4.556 8.135l1.714 1.049v6.654L58 70.174a14.85 14.85 0 0 1-7.282-12.776v-4.784z" class="H"/></g><g clip-path="url(#E)" class="G"><use href="#c"/></g><g class="H"><circle cx="57.685" cy="54.714" r="1.393"/><circle cx="50.718" cy="54.714" r="1.393"/><circle cx="53.504" cy="65.862" r="1.393"/><circle cx="57.685" cy="70.042" r="1.393"/><circle cx="57.685" cy="60.288" r="1.393"/><circle cx="50.718" cy="60.288" r="1.393"/><path d="M84.159 42.904c0-1.922-1.551-3.484-3.472-3.495h-.003c-.925-.006-1.813.357-2.468 1.009s-1.024 1.537-1.024 2.461v5.273a9.54 9.54 0 0 1-4.556 8.135l-1.714 1.049v6.654l5.955-3.525a14.85 14.85 0 0 0 7.282-12.775v-4.785z" class="B"/></g><g clip-path="url(#F)" class="G"><path d="M73.012 52.667h2.787v11.321h-2.787z"/></g><g class="H"><circle cx="77.192" cy="45.004" r="1.393"/><circle cx="84.159" cy="45.004" r="1.393"/><circle cx="81.373" cy="56.151" r="1.393"/><circle cx="77.192" cy="60.331" r="1.393"/><circle cx="77.192" cy="50.577" r="1.393"/><circle cx="84.159" cy="50.577" r="1.393"/></g><g class="G"><use href="#d"/><path d="M79.979 40.78h1.393v2.787h-1.393zM53.504 56.108h1.393v2.787h-1.393zm26.475-9.754h1.393v2.787h-1.393z"/></g><path d="M61.865 36.6c0-3.078 2.496-5.574 5.574-5.574h0c3.078 0 5.574 2.496 5.574 5.574v47.376h-2.944a3.57 3.57 0 0 0-2.831 1.393h-.001a3.57 3.57 0 0 1-2.83 1.393h-2.54V36.599z" class="B H"/><g class="G"><path d="M68.832 33.813h1.393V36.6h-1.393zm0 5.574h1.393v2.787h-1.393zm0 5.573h1.393v2.787h-1.393zm0 5.574h1.393v2.787h-1.393zm0 5.574h1.393v2.787h-1.393zm0 5.573h1.393v2.787h-1.393zm0 5.574h1.393v2.787h-1.393zm0 5.574h1.393v2.787h-1.393zm0 5.573h1.393v2.787h-1.393zm-4.18-44.589h1.393V36.6h-1.393zm0 5.574h1.393v2.787h-1.393zm0 5.573h1.393v2.787h-1.393zm0 5.574h1.393v2.787h-1.393zm0 5.574h1.393v2.787h-1.393zm0 5.573h1.393v2.787h-1.393zm0 5.574h1.393v2.787h-1.393zm0 5.574h1.393v2.787h-1.393zm0 5.573h1.393v2.787h-1.393z"/></g><g class="H"><circle cx="61.865" cy="35.206" r="1.393"/><circle cx="61.865" cy="40.78" r="1.393"/><circle cx="61.865" cy="46.354" r="1.393"/><circle cx="61.865" cy="51.927" r="1.393"/><circle cx="61.865" cy="57.501" r="1.393"/><circle cx="61.865" cy="63.075" r="1.393"/><circle cx="61.865" cy="68.648" r="1.393"/><circle cx="61.865" cy="74.222" r="1.393"/><circle cx="61.865" cy="79.796" r="1.393"/><circle cx="61.865" cy="85.369" r="1.393"/><circle cx="73.012" cy="35.206" r="1.393"/><circle cx="73.012" cy="40.78" r="1.393"/><circle cx="73.012" cy="46.354" r="1.393"/><circle cx="73.012" cy="51.927" r="1.393"/><circle cx="73.012" cy="57.501" r="1.393"/><circle cx="73.012" cy="63.075" r="1.393"/><circle cx="73.012" cy="68.648" r="1.393"/><circle cx="73.012" cy="74.222" r="1.393"/><circle cx="73.012" cy="79.796" r="1.393"/><use href="#e" class="B"/></g><g clip-path="url(#G)" class="G"><path d="M40.773 92.275h2.787v11.321h-2.787z"/></g><g class="H"><circle cx="44.953" cy="84.611" r="1.393"/><circle cx="51.92" cy="84.611" r="1.393"/><circle cx="49.133" cy="95.758" r="1.393"/><use href="#f" class="B"/><circle cx="44.953" cy="90.185" r="1.393"/><g class="B"><path d="M51.92 91.578c-.769 0-1.393-.624-1.393-1.393s.624-1.393 1.393-1.393 1.393.624 1.393 1.393-.624 1.393-1.393 1.393z"/><use href="#g"/></g></g><g clip-path="url(#H)" class="G"><path d="M26.838 82.564h2.787v11.321h-2.787z"/></g><g class="H"><circle cx="25.445" cy="74.9" r="1.393"/><circle cx="18.478" cy="74.9" r="1.393"/><circle cx="21.265" cy="86.048" r="1.393"/><circle cx="25.445" cy="90.228" r="1.393"/><circle cx="25.445" cy="80.474" r="1.393"/><use href="#h" class="B"/></g><g class="G"><path d="M47.74 80.431h1.393v2.787H47.74zm-26.475-9.754h1.393v2.787h-1.393zM47.74 86.004h1.393v2.787H47.74zm-26.475-9.753h1.393v2.787h-1.393z"/></g><path d="M40.773 66.497c0-3.078-2.496-5.574-5.574-5.574h0c-3.078 0-5.574 2.496-5.574 5.574v47.376h2.944a3.57 3.57 0 0 1 2.831 1.393h.001a3.57 3.57 0 0 0 2.83 1.393h2.54V66.496z" class="B H"/><g class="G"><path d="M32.412 63.71h1.393v2.787h-1.393zm0 5.573h1.393v2.787h-1.393zm0 5.574h1.393v2.787h-1.393zm0 5.574h1.393v2.787h-1.393zm0 5.573h1.393v2.787h-1.393zm0 5.574h1.393v2.787h-1.393zm0 5.574h1.393v2.787h-1.393zm0 5.573h1.393v2.787h-1.393zm0 5.574h1.393v2.787h-1.393zm4.18-44.589h1.393v2.787h-1.393zm0 5.573h1.393v2.787h-1.393zm0 5.574h1.393v2.787h-1.393zm0 5.574h1.393v2.787h-1.393zm0 5.573h1.393v2.787h-1.393zm0 5.574h1.393v2.787h-1.393zm0 5.574h1.393v2.787h-1.393zm0 5.573h1.393v2.787h-1.393zm0 5.574h1.393v2.787h-1.393z"/></g><g class="H"><circle cx="40.773" cy="65.103" r="1.393"/><circle cx="40.773" cy="70.677" r="1.393"/><path d="M40.773 77.644c-.769 0-1.393-.624-1.393-1.393s.624-1.393 1.393-1.393 1.393.624 1.393 1.393-.624 1.393-1.393 1.393z" class="B"/><circle cx="40.773" cy="81.824" r="1.393"/><circle cx="40.773" cy="87.398" r="1.393"/><circle cx="40.773" cy="92.971" r="1.393"/><circle cx="40.773" cy="98.545" r="1.393"/><path d="M40.773 105.512c-.769 0-1.393-.624-1.393-1.393s.624-1.393 1.393-1.393 1.393.624 1.393 1.393-.624 1.393-1.393 1.393z" class="B"/><circle cx="40.773" cy="109.692" r="1.393"/><circle cx="40.773" cy="115.266" r="1.393"/><circle cx="29.625" cy="65.103" r="1.393"/><path d="M29.625 72.07c-.769 0-1.393-.624-1.393-1.393s.624-1.393 1.393-1.393 1.393.624 1.393 1.393-.624 1.393-1.393 1.393z" class="B"/><circle cx="29.625" cy="76.251" r="1.393"/><circle cx="29.625" cy="81.824" r="1.393"/><path d="M29.625 88.791c-.769 0-1.393-.624-1.393-1.393s.624-1.393 1.393-1.393 1.393.624 1.393 1.393-.624 1.393-1.393 1.393z" class="B"/><circle cx="29.625" cy="92.971" r="1.393"/><circle cx="29.625" cy="98.545" r="1.393"/><path d="M29.625,105.512c-.769,0-1.393-.624-1.393-1.393s.624-1.393,1.393-1.393,1.393.624,1.393,1.393-.624,1.393-1.393,1.393Z" class="B"/><circle cx="29.625" cy="109.692" r="1.393"/><path d="M552.206 88.124c0-1.922-1.551-3.484-3.472-3.495h-.003c-.925-.007-1.813.357-2.468 1.007a3.47 3.47 0 0 0-1.024 2.462v5.273a9.54 9.54 0 0 1-4.556 8.135l-1.714 1.049v6.654l5.955-3.525a14.85 14.85 0 0 0 7.282-12.776v-4.784z" class="B"/></g><g clip-path="url(#I)" class="G"><path d="M541.059 97.888h2.787v11.321h-2.787z"/></g><g class="H"><circle cx="545.239" cy="90.224" r="1.393"/><circle cx="552.206" cy="90.224" r="1.393"/><circle cx="549.42" cy="101.371" r="1.393"/><path d="M545.239 106.945c-.769 0-1.393-.624-1.393-1.393s.624-1.393 1.393-1.393 1.393.624 1.393 1.393-.624 1.393-1.393 1.393z" class="B"/><circle cx="545.239" cy="95.797" r="1.393"/><g class="B"><path d="M552.206 97.191c-.769 0-1.393-.624-1.393-1.393s.624-1.393 1.393-1.393 1.393.624 1.393 1.393-.624 1.393-1.393 1.393zm-33.441-18.778c0-1.922 1.551-3.484 3.472-3.495h.003c.925-.006 1.813.357 2.468 1.009a3.47 3.47 0 0 1 1.024 2.461v5.273a9.54 9.54 0 0 0 4.556 8.135l1.714 1.049v6.654l-5.955-3.525a14.85 14.85 0 0 1-7.282-12.775v-4.785z"/></g></g><g clip-path="url(#J)" class="G"><path d="M527.125 88.177h2.787v11.321h-2.787z"/></g><g class="H"><circle cx="525.732" cy="80.513" r="1.393"/><circle cx="518.765" cy="80.513" r="1.393"/><circle cx="521.551" cy="91.66" r="1.393"/><circle cx="525.732" cy="95.841" r="1.393"/><circle cx="525.732" cy="86.087" r="1.393"/><path d="M518.765 87.48c.769 0 1.393-.624 1.393-1.393s-.624-1.393-1.393-1.393-1.393.626-1.393 1.393.624 1.393 1.393 1.393z" class="B"/></g><g class="G"><path d="M548.026 86.044h1.393v2.787h-1.393zm-26.475-9.754h1.393v2.787h-1.393zm26.475 15.327h1.393v2.787h-1.393zm-26.475-9.754h1.393v2.787h-1.393z"/></g><path d="M541.059 72.109c0-3.078-2.496-5.574-5.574-5.574h0c-3.078 0-5.574 2.496-5.574 5.574v47.376h2.944a3.57 3.57 0 0 1 2.831 1.393h.001a3.57 3.57 0 0 0 2.83 1.393h2.54V72.108z" class="B H"/><g class="G"><path d="M532.699 69.323h1.393v2.787h-1.393zm0 5.573h1.393v2.787h-1.393zm0 5.574h1.393v2.787h-1.393zm0 5.574h1.393v2.787h-1.393zm0 5.573h1.393v2.787h-1.393zm0 5.574h1.393v2.787h-1.393zm0 5.573h1.393v2.787h-1.393zm0 5.574h1.393v2.787h-1.393zm0 5.574h1.393v2.787h-1.393zm4.18-44.589h1.393v2.787h-1.393zm0 5.573h1.393v2.787h-1.393zm0 5.574h1.393v2.787h-1.393zm0 5.574h1.393v2.787h-1.393zm0 5.573h1.393v2.787h-1.393zm0 5.574h1.393v2.787h-1.393zm0 5.573h1.393v2.787h-1.393zm0 5.574h1.393v2.787h-1.393zm0 5.574h1.393v2.787h-1.393z"/></g><g class="H"><circle cx="541.059" cy="70.716" r="1.393"/><circle cx="541.059" cy="76.29" r="1.393"/><path d="M541.059 83.257c-.769 0-1.393-.624-1.393-1.393s.624-1.393 1.393-1.393 1.393.624 1.393 1.393-.624 1.393-1.393 1.393z" class="B"/><circle cx="541.059" cy="87.437" r="1.393"/><circle cx="541.059" cy="93.011" r="1.393"/><circle cx="541.059" cy="98.584" r="1.393"/><circle cx="541.059" cy="104.158" r="1.393"/><path d="M541.059 111.125c-.769 0-1.393-.624-1.393-1.393s.624-1.393 1.393-1.393 1.393.624 1.393 1.393-.624 1.393-1.393 1.393z" class="B"/><circle cx="541.059" cy="115.305" r="1.393"/><circle cx="541.059" cy="120.879" r="1.393"/><circle cx="529.912" cy="70.716" r="1.393"/><path d="M529.912 77.683c-.769 0-1.393-.624-1.393-1.393s.624-1.393 1.393-1.393 1.393.624 1.393 1.393-.624 1.393-1.393 1.393z" class="B"/><circle cx="529.912" cy="81.863" r="1.393"/><circle cx="529.912" cy="87.437" r="1.393"/><path d="M529.912 94.404c-.769 0-1.393-.624-1.393-1.393s.624-1.393 1.393-1.393 1.393.624 1.393 1.393-.624 1.393-1.393 1.393z" class="B"/><circle cx="529.912" cy="98.584" r="1.393"/><circle cx="529.912" cy="104.158" r="1.393"/><path d="M529.912,111.125c-.769,0-1.393-.624-1.393-1.393s.624-1.393,1.393-1.393,1.393.624,1.393,1.393-.624,1.393-1.393,1.393Z" class="B"/><circle cx="529.912" cy="115.305" r="1.393"/></g><g class="B"><path d="M551.578 19.255a5.65 5.65 0 0 0-5.647-5.647h-26.12a5.65 5.65 0 0 0-5.647 5.647 5.65 5.65 0 0 0 5.647 5.647h26.12a5.65 5.65 0 0 0 5.647-5.647h0z" class="U"/><path d="M546.88.368c.158-.581-.113-1.197-.633-1.5s-1.175-.217-1.604.21l-7.748 7.753-4.292-13.933c-.181-.565-.7-.951-1.288-.953s-1.129.379-1.31.944L525.6 6.831l-7.748-7.753c-.429-.427-1.084-.513-1.626-.21a1.33 1.33 0 0 0-.61 1.5l2.778 10.213a13.32 13.32 0 0 0 12.853 9.804h0a13.29 13.29 0 0 0 12.831-9.804L546.879.368z" class="G"/></g><g clip-path="url(#K)"><g clip-path="url(#L)"><path d="M274.047 2.705l-15.731-.443 62.321-107.478h15.988L274.047 2.705z" fill="#fff" opacity=".35"/></g></g><g clip-path="url(#M)" fill="#474081" class="B"><path d="M242.399-32.664l.14.021.137.033.136.045.131.056.124.068.117.078.111.089.104.097.094.107.085.114.075.121.062.127.052.133.042.136.03.139.016.141.003.142-.009.142-.02.141-.033.138-9.309 32.585-.046.135-.058.13-.066.125-.078.119-.091.111-.098.104-.104.094-.114.084-.121.075-.127.063-.133.052-.137.041-.14.028-.14.017-.141.004-.143-.009-.14-.021-.14-.033-.134-.045-.13-.057-.124-.067-.12-.079-.111-.088-.105-.098-.091-.106-.084-.114-.075-.121-.066-.128-.052-.131-.039-.137-.029-.139-.016-.141-.004-.142.007-.142.023-.141.032-.138 9.31-32.585.045-.135.056-.13.068-.125.078-.119.088-.111.098-.103.108-.095.114-.084.12-.075.127-.063.134-.053.134-.04.14-.029.14-.016.143-.004.144.009zm25.184-.005l.14.016.14.029.137.04.134.053.127.063.121.075.114.084.104.095.098.103.091.111.078.119.065.125.059.13.046.135 9.309 32.585.033.138.019.141.01.142-.003.142-.017.141-.029.139-.042.137-.052.131-.062.128-.075.121-.085.114-.094.106-.105.098-.111.088-.117.079-.124.067-.13.057-.137.045-.137.033-.14.021-.143.009-.144-.004-.14-.017-.14-.028-.133-.041-.134-.052-.127-.063-.121-.075-.114-.084-.107-.094-.098-.104-.088-.111-.078-.119-.069-.125-.055-.13-.046-.135-9.309-32.585-.033-.138-.023-.141-.006-.142.003-.142.016-.141.03-.139.039-.136.052-.133.065-.127.075-.121.085-.114.091-.107.104-.097.111-.089.121-.078.124-.068.13-.056.133-.045.141-.033.14-.021.143-.009.14.004z"/></g><g stroke="#f8d680" stroke-width="9.526" class="C P Q"><path d="M198.86-3.811h0"/><path d="M208.38-3.811h109.485" stroke-dasharray="0 9.52"/><path d="M322.625-3.811h0"/></g><g class="B"><path d="M1208.006 83.66a5.65 5.65 0 0 0-5.647-5.647h-26.12a5.65 5.65 0 0 0-5.647 5.647 5.65 5.65 0 0 0 5.647 5.647h26.12a5.65 5.65 0 0 0 5.647-5.647h0z" class="U"/><path d="M1203.307 64.773c.158-.581-.113-1.197-.633-1.5s-1.175-.217-1.604.21l-7.748 7.753-4.292-13.933c-.181-.565-.7-.951-1.288-.953s-1.129.379-1.31.944l-4.405 13.942-7.748-7.753c-.429-.427-1.084-.513-1.626-.21a1.33 1.33 0 0 0-.61 1.5l2.778 10.213a13.32 13.32 0 0 0 12.853 9.804h0a13.29 13.29 0 0 0 12.831-9.804l2.801-10.213z" class="G"/></g><path d="M605.1 133.639h5.447v85.629H605.1z" class="L"/><g class="M"><path d="M597.139 136.693c-.697 0-1.394-.266-1.926-.798l-14.557-14.557c-1.064-1.064-1.064-2.787 0-3.851s2.788-1.064 3.851 0l14.557 14.557c1.064 1.064 1.064 2.787 0 3.851-.532.532-1.229.798-1.926.798zm21.366 0c-.697 0-1.394-.266-1.926-.798-1.064-1.064-1.064-2.788 0-3.851l14.557-14.557c1.064-1.064 2.787-1.064 3.851 0s1.064 2.787 0 3.851l-14.557 14.557c-.532.532-1.229.798-1.926.798z"/></g><g class="L"><path d="M580.657 146.598l14.556-14.556 3.852 3.852-14.556 14.556zm35.924-10.699l3.851-3.852 14.557 14.555-3.851 3.852z"/></g><path d="M618.539,136.693h-21.401c-1.505,0-2.724-1.218-2.724-2.724s1.218-2.724,2.724-2.724h21.401c1.506,0,2.724,1.218,2.724,2.724s-1.218,2.724-2.724,2.724Z" class="M"/><g class="F"><rect x="597.104" y="120.778" width="21.436" height="26.381" rx="9.238" fill="#8bcbec"/></g><g class="M"><path d="M598.908 151.247a2.71 2.71 0 0 1-1.423-.404 2.72 2.72 0 0 1-.894-3.745l8.948-14.554c.787-1.285 2.463-1.684 3.745-.894a2.72 2.72 0 0 1 .894 3.745l-8.948 14.554c-.513.838-1.407 1.298-2.322 1.298z"/><path d="M616.805 151.247c-.915 0-1.809-.46-2.322-1.298l-8.947-14.554a2.72 2.72 0 1 1 4.639-2.851l8.947 14.554a2.72 2.72 0 0 1-.894 3.745 2.7 2.7 0 0 1-1.423.404z"/></g><g class="L"><path d="M607.86 136.693c-.915 0-1.809-.46-2.322-1.298l-8.948-14.557a2.72 2.72 0 1 1 4.639-2.851l8.948 14.557a2.72 2.72 0 0 1-.894 3.745 2.7 2.7 0 0 1-1.423.404z"/><path d="M607.853 136.693a2.7 2.7 0 0 1-1.423-.404 2.72 2.72 0 0 1-.894-3.745l8.947-14.557c.785-1.285 2.466-1.684 3.745-.894a2.72 2.72 0 0 1 .894 3.745l-8.947 14.557c-.513.838-1.407 1.298-2.322 1.298z"/></g><g fill="#fff"><path d="M587.691 157.53c-.407 0-.822-.09-1.213-.287-6.993-3.49-11.932-10.283-13.214-18.172-1.266-7.777 1.25-15.477 6.902-21.129l6.737-6.737c1.064-1.064 2.787-1.064 3.851 0s1.064 2.787 0 3.851l-6.737 6.737c-4.463 4.463-6.373 10.288-5.378 16.403 1.003 6.165 4.843 11.464 10.269 14.174a2.72 2.72 0 0 1 1.221 3.652c-.476.955-1.439 1.508-2.439 1.508zm12.826 0a2.73 2.73 0 0 1-2.269-1.21c-4.921-7.373-6.003-25.853-2.187-37.314l2.25-6.737c.476-1.425 2.016-2.197 3.444-1.721a2.72 2.72 0 0 1 1.721 3.444l-2.247 6.737c-3.46 10.392-2.061 27.156 1.551 32.564a2.73 2.73 0 0 1-.753 3.78c-.465.308-.992.458-1.511.458zm14.533 0c-.519 0-1.045-.149-1.511-.46a2.72 2.72 0 0 1-.75-3.777c3.612-5.407 5.011-22.172 1.548-32.564l-2.245-6.737a2.72 2.72 0 0 1 1.721-3.444c1.439-.476 2.968.295 3.444 1.721l2.245 6.737c3.822 11.461 2.74 29.944-2.187 37.314-.524.785-1.386 1.21-2.266 1.21zm12.903 0a2.72 2.72 0 0 1-1.218-5.16c5.426-2.71 9.267-8.009 10.27-14.174.995-6.115-.915-11.94-5.378-16.403l-6.737-6.737c-1.064-1.064-1.064-2.788 0-3.851s2.788-1.064 3.851 0l6.737 6.737c5.652 5.652 8.168 13.352 6.902 21.129-1.282 7.889-6.221 14.682-13.214 18.172-.391.194-.806.287-1.213.287z"/></g><g class="B"><g fill="#c06e32"><path d="M348.787 40.984h-7.074v13.33c0 1.431 1.159 2.593 2.593 2.593h-.514a1.17 1.17 0 0 0-.836.35 1.19 1.19 0 0 0-.359.845v.574h7.97V51.6l-1.78-10.615zm-13.262 10.615l2.947 8.846h-.617a.56.56 0 0 0-.562.557v1.213h5.305L339.061 51.6h-3.537z"/></g><path d="M356.697 37.445c-1.924 0-3.477 1.558-3.477 3.478v.061h-16.011l3.166-11.581c.06-.247-.036-.511-.251-.655-.203-.144-.49-.137-.693.016l-10.575 7.933-1.888-7.757c-.048-.226-.227-.399-.454-.447s-.466.039-.597.225l-12.343 16.193c-.335.427-.382 1-.143 1.48a1.41 1.41 0 0 0 1.266.785h14.047l1.474 4.423h0l.589 1.768h-3.517a2.39 2.39 0 0 0-1.685.7c-.442.447-.693 1.055-.693 1.687v1.152h10.61l-1.768-5.307h14.147v2.288c0 1.667 1.362 3.019 3.023 3.019h5.475l1.587 3.968c.323.809 1.111 1.339 1.984 1.339h2.091l-3.537-8.847h-2.139c-.777 0-1.398-.628-1.398-1.403V44.52h11.136a4.78 4.78 0 0 0 3.381-1.4c.896-.896 1.398-2.111 1.398-3.379v-2.298h-14.207z" fill="#d89058"/></g><g clip-path="url(#N)"><path d="M313.336 43.637h2.722v1.769h-2.722z"/></g><path d="M321.915 40.983h5.308v1.769h-5.308z"/><g class="B"><path d="M424.169,108.264c0-1.268-1.026-2.298-2.298-2.298h-13.787c-1.271,0-2.298,1.029-2.298,2.298s1.026,2.298,2.298,2.298h13.787c1.272,0,2.298-1.028,2.298-2.298h0Z" class="S"/><g class="H"><path d="M415.085 92.183l.092.006.108.012.107.017.092.02.107.026.092.029.107.034.092.038.092.043.092.048.092.05.076.055.092.059.077.062.092.066.061.069.076.074.077.076.061.078.062.083.061.084.061.088.046.09.046.092.046.093.031.095.03.098.031.098.031.102.015.101.015.101.016.102.015.103v.103 11.605.104l-.015.103-.016.103-.015.101-.015.101-.031.099-.031.1-.03.096-.031.097-.046.093-.046.092-.046.091-.061.087-.061.084-.062.083-.061.078-.077.077-.076.072-.061.07-.092.066-.077.063-.092.058-.076.055-.092.051-.092.047-.092.043-.092.038-.107.034-.092.029-.107.026-.092.02-.107.017-.108.011-.092.007-.107.002-.107-.002-.107-.007-.092-.011-.108-.017-.107-.02-.092-.026-.107-.029-.092-.034-.092-.038-.092-.043-.092-.047-.091-.051-.092-.055-.077-.058-.092-.063-.076-.066-.077-.07-.077-.072-.061-.077-.061-.078-.077-.083-.046-.084-.061-.087-.046-.091-.046-.092-.046-.093-.046-.097-.03-.096-.031-.1-.015-.099-.031-.101-.015-.101-.016-.103v-.103-.104-11.605-.103-.103l.016-.102.015-.101.031-.101.015-.102.031-.098.03-.098.046-.095.046-.093.046-.092.046-.09.061-.088.046-.084.077-.083.061-.078.061-.076.077-.074.077-.069.076-.066.092-.062.077-.059.092-.055.091-.05.092-.048.092-.043.092-.038.092-.034.107-.029.092-.026.107-.02.108-.017.092-.012.107-.006.107-.003.107.003z"/><path d="M408.069 96.78l.077.005.077.009.091.011.077.013.077.017.076.02.077.022.076.024.077.028.077.03.061.032.076.036.077.038.061.04.077.041.061.046.062.048.061.049.061.05.061.054.062.056 7.016 7.01.045.057.062.06.046.061.046.064.061.065.031.066.046.068.046.069.03.071.046.072.031.073.03.075.016.076.03.076.031.077.015.078.016.078.015.08.015.078v.081.08l.016.079v.08l-.016.081v.08.079l-.015.08-.015.08-.016.078-.015.078-.031.077-.03.076-.016.075-.03.074-.031.073-.046.072-.03.072-.046.069-.046.068-.031.067-.061.064-.046.063-.046.061-.062.06-.045.058-.062.056-.061.053-.061.052-.062.049-.061.048-.076.044-.062.043-.076.04-.062.038-.076.035-.077.033-.076.03-.077.028-.061.024-.092.022-.077.02-.076.017-.077.013-.076.011-.077.009-.077.005-.092.003h-.076l-.077-.003-.076-.005-.092-.009-.077-.011-.076-.013-.077-.017-.077-.02-.076-.022-.077-.024-.076-.028-.077-.03-.077-.033-.061-.035-.076-.038-.077-.04-.061-.043-.062-.044-.076-.048-.061-.049-.062-.052-.061-.053-.046-.056-7.016-7.009-.061-.059-.046-.058-.046-.063-.061-.062-.046-.065-.046-.067-.046-.068-.031-.069-.046-.072-.03-.072-.031-.072-.031-.075-.03-.075-.016-.076-.03-.077-.016-.078-.015-.078-.015-.08-.016-.079v-.08l-.015-.08v-.079-.082-.079l.015-.08v-.08l.016-.079.015-.08.015-.078.016-.078.03-.077.016-.076.03-.075.031-.075.031-.072.03-.074.046-.07.031-.069.046-.068.046-.067.046-.064.061-.065.046-.061.046-.06.061-.057.061-.056.062-.054.061-.05.061-.049.061-.048.062-.046.076-.041.062-.04.076-.038.077-.036.061-.032.077-.03.076-.028.077-.024.076-.022.077-.02.077-.017.092-.013.076-.011.077-.009.076-.005.077-.003h.092l.076.003z"/><path d="M422.117 96.78l.092.005.076.009.077.011.076.013.077.017.077.02.076.022.077.024.076.028.077.03.077.032.076.036.061.038.077.04.061.041.077.046.061.048.061.049.062.05.061.054.061.056.046.057.061.06.046.061.046.065.046.064.046.067.046.068.046.069.031.07.046.074.03.072.031.075.015.075.031.076.015.077.031.078.015.078.016.08v.079l.015.08v.08l.015.079v.082l-.015.079v.08l-.015.08v.079l-.016.08-.015.078-.031.078-.015.077-.031.076-.015.075-.031.075-.03.072-.046.072-.031.072-.046.069-.046.068-.046.067-.046.065-.046.062-.046.063-.061.058-.046.059-7.016 7.009-.061.056-.061.053-.062.052-.061.049-.061.048-.061.044-.077.043-.061.04-.077.038-.077.035-.061.033-.076.03-.077.028-.077.024-.076.022-.077.02-.076.017-.092.013-.077.011-.076.009-.077.005-.077.003h-.092l-.076-.003-.077-.005-.076-.009-.077-.011-.092-.013-.076-.017-.077-.02-.077-.022-.076-.024-.077-.028-.076-.03-.062-.033-.076-.035-.077-.038-.061-.04-.077-.043-.061-.044-.061-.048-.061-.049-.062-.052-.061-.053-.061-.056-.062-.058-.046-.06-.061-.061-.046-.063-.046-.064-.046-.067-.046-.068-.03-.069-.046-.072-.031-.072-.031-.073-.03-.074-.031-.075-.015-.076-.031-.077-.015-.078-.015-.078-.016-.08-.015-.08v-.079l-.015-.08v-.081-.08-.079l.015-.08v-.081l.015-.078.016-.08.015-.078.015-.078.031-.077.015-.076.031-.076.03-.075.031-.073.031-.072.046-.071.03-.069.046-.068.046-.066.046-.065.046-.064.061-.061.046-.06.062-.057 7-7.01.062-.056.061-.054.061-.05.061-.049.077-.048.061-.046.062-.041.076-.04.061-.038.077-.036.076-.032.077-.03.077-.028.076-.024.077-.022.076-.02.077-.017.077-.013.076-.011.077-.009.092-.005.076-.003h.077l.077.003z"/></g><path d="M603.606,37.92c0-1.268-1.026-2.298-2.298-2.298h-13.787c-1.271,0-2.298,1.029-2.298,2.298s1.026,2.298,2.298,2.298h13.787c1.272,0,2.298-1.028,2.298-2.298h0Z" class="U"/><g class="H"><path d="M594.522 21.838l.092.006.108.013.107.016.092.02.107.026.092.029.107.034.092.038.092.043.092.048.092.05.076.055.092.059.077.062.092.066.061.069.077.074.076.076.061.079.062.082.061.085.061.087.046.09.046.092.046.094.031.095.03.098.031.098.031.101.015.101.015.101.016.103.015.102v.103 11.605.104l-.015.103-.016.103-.015.101-.015.101-.031.099-.031.1-.03.097-.031.096-.046.093-.046.092-.046.091-.061.087-.061.084-.062.083-.061.078-.076.077-.077.072-.061.07-.092.066-.077.063-.092.058-.076.055-.092.051-.092.047-.092.043-.092.039-.107.033-.092.029-.107.026-.092.02-.107.017-.108.011-.092.008-.107.001-.107-.001-.107-.008-.092-.011-.107-.017-.108-.02-.092-.026-.107-.029-.092-.033-.092-.039-.092-.043-.091-.047-.092-.051-.092-.055-.077-.058-.092-.063-.076-.066-.077-.07-.077-.072-.061-.077-.061-.078-.077-.083-.046-.084-.061-.087-.046-.091-.046-.092-.046-.093-.046-.096-.03-.097-.031-.1-.015-.099-.031-.101-.015-.101-.016-.103v-.103-.104-11.605-.103-.102l.016-.103.015-.101.031-.101.015-.101.031-.098.03-.098.046-.095.046-.094.046-.092.046-.09.061-.087.046-.085.077-.082.061-.079.061-.076.077-.074.077-.069.076-.066.092-.062.077-.059.092-.055.092-.05.091-.048.092-.043.092-.038.092-.034.107-.029.092-.026.108-.02.107-.016.092-.013.107-.006.107-.003.107.003z"/><path d="M587.506 26.435l.077.005.077.009.092.011.076.014.077.016.076.02.077.022.077.024.076.028.077.03.061.033.077.035.076.038.061.04.077.041.061.046.062.048.061.049.061.05.061.054.062.057 7.016 7.009.046.057.061.06.046.061.046.064.061.065.031.066.046.069.046.069.03.07.046.072.031.074.03.075.016.075.03.076.031.077.015.078.016.078.015.08.015.078v.081.08l.016.079v.08l-.016.081v.08.08l-.015.079-.015.08-.016.078-.015.078-.031.077-.03.076-.016.075-.03.074-.031.073-.046.072-.03.072-.046.069-.046.068-.031.067-.061.065-.046.062-.046.062-.061.059-.046.059-.062.055-.061.053-.061.052-.061.049-.062.048-.076.044-.062.043-.076.04-.061.038-.077.036-.077.032-.076.03-.077.028-.061.024-.092.022-.077.02-.076.017-.077.013-.076.011-.077.009-.077.005-.091.003h-.077l-.077-.003-.076-.005-.092-.009-.077-.011-.076-.013-.077-.017-.077-.02-.076-.022-.077-.024-.076-.028-.077-.03-.077-.032-.061-.036-.076-.038-.077-.04-.061-.043-.062-.044-.076-.048-.061-.049-.062-.052-.061-.053-.046-.055-7.016-7.01-.061-.058-.046-.059-.046-.062-.061-.063-.046-.065-.046-.067-.046-.067-.031-.069-.046-.072-.03-.072-.031-.072-.031-.075-.03-.075-.016-.077-.03-.077-.016-.078-.015-.078-.015-.08-.016-.079v-.08l-.015-.08v-.079-.081-.08l.015-.08v-.079l.016-.08.015-.08.015-.078.016-.078.03-.077.016-.076.03-.075.031-.075.031-.072.03-.074.046-.07.031-.069.046-.068.046-.067.046-.064.061-.065.046-.061.046-.06.061-.056.061-.057.062-.054.061-.05.061-.049.062-.048.061-.046.076-.041.062-.04.076-.038.077-.035.061-.033.077-.03.076-.028.077-.024.076-.022.077-.02.077-.016.092-.014.076-.011.077-.009.076-.005.077-.003h.092l.076.003z"/><path d="M601.554 26.435l.092.005.076.009.077.011.076.014.077.016.077.02.076.022.077.024.076.028.077.03.077.033.076.035.061.038.077.04.061.041.077.046.061.048.061.049.062.05.061.054.061.057.046.056.062.06.045.061.046.065.046.064.046.067.046.068.046.069.031.07.046.074.03.072.031.075.015.075.031.076.015.077.031.078.015.078.016.08v.08l.015.079v.08l.015.08v.081l-.015.079v.08l-.015.08v.079l-.016.08-.015.078-.031.078-.015.077-.031.077-.015.075-.031.075-.03.072-.046.072-.031.072-.046.069-.046.067-.046.067-.046.065-.046.063-.045.062-.062.059-.046.058-7.016 7.01-.061.055-.061.053-.061.052-.062.049-.061.048-.061.044-.077.043-.061.04-.077.038-.076.036-.062.032-.076.03-.077.028-.076.024-.077.022-.077.02-.076.017-.092.013-.077.011-.076.009-.077.005-.077.003h-.091l-.077-.003-.077-.005-.076-.009-.077-.011-.092-.013-.076-.017-.077-.02-.076-.022-.077-.024-.077-.028-.076-.03-.062-.032-.076-.036-.077-.038-.061-.04-.077-.043-.061-.044-.061-.048-.061-.049-.062-.052-.061-.053-.061-.055-.062-.059-.045-.059-.062-.062-.046-.062-.046-.065-.046-.067-.046-.068-.03-.069-.046-.072-.031-.072-.03-.073-.031-.074-.031-.075-.015-.076-.031-.077-.015-.078-.015-.078-.016-.08-.015-.079v-.08l-.015-.08v-.081-.08-.079l.015-.08v-.081l.015-.078.016-.08.015-.078.015-.078.031-.077.015-.076.031-.075.031-.075.03-.074.031-.072.046-.07.03-.069.046-.069.046-.066.046-.065.046-.064.062-.061.045-.06.062-.057 7-7.009.062-.057.061-.054.061-.05.061-.049.077-.048.061-.046.062-.041.076-.04.061-.038.077-.035.077-.033.076-.03.077-.028.076-.024.077-.022.077-.02.076-.016.077-.014.076-.011.077-.009.092-.005.077-.003h.076l.077.003z"/></g></g><path d="M236.756,32.858h-19.354l-5.245,47.9c-.291,2.655,1.788,4.974,4.459,4.974h21.021c2.674,0,4.754-2.325,4.458-4.982l-5.339-47.891Z" class="R"/><g clip-path="url(#O)" class="B V"><use href="#i"/></g><path d="M227.127 31.117c0 6.849 2.72 13.42 7.565 18.264a25.83 25.83 0 0 0 18.267 7.565h25.981V39.87a25.83 25.83 0 0 0-7.565-18.267c-4.845-4.841-11.415-7.565-18.267-7.565h-25.981v17.079z" class="B N"/><g clip-path="url(#P)"><path d="M227.127 14.039l57.82 49.461h-57.82V14.039z" class="B D"/><use href="#j" class="J"/><g class="B"><g class="I"><path d="M257.351 59.744h-6.477V48.85a3.24 3.24 0 0 1 3.238-3.238 3.24 3.24 0 0 1 3.238 3.238v10.894zm-12.953.479h-6.477V38.727c0-1.788 1.448-3.235 3.235-3.235h.007c1.787 0 3.235 1.448 3.235 3.235v21.496z" class="F"/></g><g class="D"><use href="#k" class="K"/><path d="M278.94,26.182v-6.477h-19.433c-1.787,0-3.235,1.448-3.235,3.235v.006c0,1.788,1.448,3.235,3.235,3.235h19.433Z" class="K"/></g></g></g><path d="M227.127 31.117c0 6.849-2.72 13.42-7.565 18.264a25.83 25.83 0 0 1-18.267 7.565h-25.981V39.87a25.83 25.83 0 0 1 7.565-18.267c4.845-4.841 11.415-7.565 18.267-7.565h25.981v17.079z" class="B N"/><g clip-path="url(#Q)"><path d="M227.127 14.039L169.307 63.5h57.82V14.039z" class="B D"/><use href="#l" class="J"/><g class="B"><g class="I"><path d="M196.903 59.744h6.477V48.85a3.24 3.24 0 0 0-3.238-3.238 3.24 3.24 0 0 0-3.238 3.238v10.894zm12.953.479h6.477V38.73a3.23 3.23 0 0 0-.949-2.289 3.24 3.24 0 0 0-4.578 0c-.609.609-.949 1.431-.949 2.289v21.493z" class="F"/></g><g class="D"><use href="#m" class="K"/><use href="#n" class="K"/></g></g></g><path d="M227.141 56.946l-15.518-11.309c-8.571-6.246-9.54-18.671-2.041-26.17l5.428-5.428h24.261l5.428 5.428c7.5 7.5 6.531 19.924-2.041 26.17L227.14 56.946z" class="B J"/><g clip-path="url(#R)"><use href="#o" class="D"/><path d="M223.89 9.361h6.477v56.483h-6.477z" class="W"/><g class="F D"><use href="#p"/></g><g class="F I"><use href="#q"/></g><path d="M204.165 52.465c-1.054 0-2.091-.514-2.711-1.461-.982-1.497-.565-3.504.932-4.484l13.164-8.635c1.497-.987 3.504-.561 4.482.93.982 1.497.565 3.504-.932 4.484l-13.164 8.635a3.21 3.21 0 0 1-1.771.531z" class="D F"/><g class="F I"><path d="M250.088 52.465c-.607 0-1.223-.171-1.771-.531l-13.16-8.635c-1.497-.98-1.914-2.987-.932-4.484a3.23 3.23 0 0 1 4.482-.93l13.16 8.635c1.497.98 1.914 2.987.932 4.484-.62.947-1.657 1.461-2.711 1.461z"/></g></g><use href="#r" class="B O"/><path d="M281.679,110.989h-19.354l-5.245,47.9c-.291,2.655,1.788,4.974,4.459,4.974h21.021c2.674,0,4.754-2.325,4.458-4.982l-5.339-47.891Z" class="R"/><g clip-path="url(#S)" class="B V"><path d="M272.064 145.614l-15.821-11.53c-8.739-6.368-9.726-19.035-2.08-26.681l5.534-5.534h24.735l5.534 5.534c7.646 7.646 6.658 20.313-2.08 26.681l-15.821 11.53z"/></g><path d="M272.049 109.248c0 6.849 2.72 13.42 7.565 18.264a25.83 25.83 0 0 0 18.267 7.565h25.981v-17.076a25.83 25.83 0 0 0-7.565-18.267c-4.845-4.841-11.415-7.565-18.267-7.565h-25.981v17.079z" class="B N"/><g clip-path="url(#T)"><path d="M272.049 92.169l57.82 49.462h-57.82V92.169z" class="B D"/><path d="M270 94.683l4.094-5.017 51.82 42.286-4.094 5.017z" class="J"/><g class="B"><g class="I"><path d="M302.274 137.875h-6.477v-10.894a3.24 3.24 0 0 1 3.238-3.238 3.24 3.24 0 0 1 3.238 3.238v10.894zm-12.954.479h-6.477v-21.496c0-1.788 1.448-3.235 3.235-3.235h.007c1.787 0 3.235 1.448 3.235 3.235v21.496z" class="F"/></g><g class="D"><path d="M323.862 116.923v-6.133h-9.887a3.07 3.07 0 0 0-2.17.9c-.573.573-.897 1.354-.897 2.166h0c0 .816.324 1.593.897 2.17a3.06 3.06 0 0 0 2.17.897h9.887zm0-12.61v-6.477h-19.433c-1.787 0-3.235 1.448-3.235 3.235v.006c0 1.788 1.448 3.235 3.235 3.235h19.433z" class="K"/></g></g></g><path d="M272.049 109.248c0 6.849-2.72 13.42-7.565 18.264a25.83 25.83 0 0 1-18.267 7.565h-25.981v-17.076a25.83 25.83 0 0 1 7.565-18.267c4.845-4.841 11.415-7.565 18.267-7.565h25.981v17.079z" class="B N"/><g clip-path="url(#U)"><path d="M272.049 92.169l-57.819 49.462h57.819V92.169z" class="B D"/><path d="M218.189 131.954l51.814-42.293 4.095 5.017-51.814 42.293z" class="J"/><g class="B"><g class="I"><path d="M241.825 137.875h6.477v-10.894a3.24 3.24 0 0 0-3.238-3.238 3.24 3.24 0 0 0-3.238 3.238v10.894zm12.954.479h6.477v-21.493a3.23 3.23 0 0 0-.949-2.289 3.24 3.24 0 0 0-4.578 0c-.609.609-.949 1.431-.949 2.289v21.493z" class="F"/></g><g class="D"><path d="M220.237 117.266v-6.477h9.718a3.22 3.22 0 0 1 3.235 3.235v.006a3.23 3.23 0 0 1-3.235 3.235h-9.718zm0-12.953v-6.477h19.43a3.24 3.24 0 0 1 2.289.949c.609.609.949 1.431.949 2.289s-.34 1.684-.949 2.289a3.23 3.23 0 0 1-2.289.949h-19.43z" class="K"/></g></g></g><use href="#s" class="B J"/><g clip-path="url(#V)"><path d="M272.064 90.203h24.482v46.468h-24.482z" class="D"/><path d="M268.813 87.492h6.477v56.483h-6.477z" class="W"/><g class="F D"><path d="M249.088 115.829c-1.054 0-2.091-.514-2.711-1.461-.982-1.497-.565-3.504.932-4.484l13.164-8.635c1.497-.987 3.504-.561 4.482.93.982 1.497.565 3.504-.932 4.484l-13.164 8.635a3.21 3.21 0 0 1-1.771.531z"/></g><g class="F I"><path d="M295.01 115.829c-.607 0-1.223-.171-1.771-.531l-13.16-8.635c-1.497-.98-1.914-2.987-.932-4.484a3.23 3.23 0 0 1 4.482-.93l13.16 8.635c1.497.98 1.914 2.987.932 4.484-.62.947-1.657 1.461-2.711 1.461z"/></g><path d="M249.088 130.595c-1.054 0-2.091-.514-2.711-1.461-.982-1.497-.565-3.504.932-4.484l13.164-8.635c1.497-.987 3.504-.561 4.482.93.982 1.497.565 3.504-.932 4.484l-13.164 8.635a3.21 3.21 0 0 1-1.771.531z" class="D F"/><g class="F I"><path d="M295.01 130.595c-.607 0-1.223-.171-1.771-.531l-13.16-8.635c-1.497-.98-1.914-2.987-.932-4.484a3.23 3.23 0 0 1 4.482-.93l13.16 8.635c1.497.98 1.914 2.987.932 4.484-.62.947-1.657 1.461-2.711 1.461z"/></g></g><path d="M1093.398,15.748h-19.354l-5.245,47.9c-.291,2.655,1.788,4.974,4.459,4.974h21.021c2.674,0,4.754-2.325,4.458-4.982l-5.339-47.891Z" class="R"/><g clip-path="url(#W)" class="B V"><path d="M1083.783 50.373l-15.821-11.53c-8.739-6.368-9.726-19.035-2.08-26.681l5.534-5.534h24.735l5.534 5.534c7.646 7.646 6.658 20.313-2.08 26.681l-15.821 11.53z"/></g><path d="M1083.769 14.008c0 6.849 2.72 13.42 7.565 18.264a25.83 25.83 0 0 0 18.267 7.565h25.981V22.761a25.83 25.83 0 0 0-7.565-18.267c-4.845-4.841-11.415-7.565-18.267-7.565h-25.981v17.079z" class="B N"/><g clip-path="url(#X)"><path d="M1083.769-3.071l57.82 49.462h-57.82V-3.071z" class="B D"/><path d="M1081.722-.556l4.094-5.017 51.82 42.286-4.094 5.017z" class="J"/><g class="B"><g class="I"><path d="M1113.993 42.634h-6.477V31.74a3.24 3.24 0 0 1 3.238-3.238 3.24 3.24 0 0 1 3.238 3.238v10.894zm-12.953.48h-6.477V21.618c0-1.788 1.448-3.235 3.235-3.235h.007c1.787 0 3.235 1.448 3.235 3.235v21.496z" class="F"/></g><g class="D"><path d="M1135.582 21.682v-6.133h-9.887a3.07 3.07 0 0 0-2.17.9c-.573.573-.897 1.354-.897 2.166h0c0 .816.324 1.593.897 2.17a3.06 3.06 0 0 0 2.17.897h9.887zm0-12.61V2.596h-19.433c-1.787 0-3.235 1.448-3.235 3.235v.006c0 1.788 1.448 3.235 3.235 3.235h19.433z" class="K"/></g></g></g><path d="M1083.769 14.008c0 6.849-2.72 13.42-7.565 18.264a25.83 25.83 0 0 1-18.267 7.565h-25.981V22.761a25.83 25.83 0 0 1 7.565-18.267c4.845-4.841 11.415-7.565 18.267-7.565h25.981v17.079z" class="B N"/><g clip-path="url(#Y)"><path d="M1083.769-3.071l-57.82 49.462h57.82V-3.071z" class="B D"/><path d="M1029.909 36.714l51.814-42.293 4.095 5.017-51.814 42.293z" class="J"/><g class="B"><g class="I"><path d="M1053.545 42.634h6.477V31.74a3.24 3.24 0 0 0-3.238-3.238 3.24 3.24 0 0 0-3.238 3.238v10.894zm12.953.48h6.477V21.621a3.23 3.23 0 0 0-.949-2.289 3.24 3.24 0 0 0-4.578 0c-.609.609-.949 1.431-.949 2.289v21.493z" class="F"/></g><g class="D"><path d="M1031.956 22.026v-6.477h9.718a3.22 3.22 0 0 1 3.235 3.235v.006a3.23 3.23 0 0 1-3.235 3.235h-9.718zm0-12.954V2.596h19.43a3.24 3.24 0 0 1 2.289.949c.609.609.949 1.431.949 2.289s-.34 1.684-.949 2.289a3.23 3.23 0 0 1-2.289.949h-19.43z" class="K"/></g></g></g><path d="M1083.783 39.836l-15.518-11.309c-8.571-6.246-9.54-18.671-2.041-26.17l5.428-5.428h24.261l5.428 5.428c7.5 7.5 6.531 19.924-2.041 26.17l-15.518 11.309z" class="B J"/><g clip-path="url(#Z)"><path d="M1083.783-5.037h24.482v46.468h-24.482z" class="D"/><path d="M1080.532-7.749h6.477v56.483h-6.477z" class="W"/><g class="F D"><path d="M1060.807 20.588c-1.054 0-2.091-.514-2.711-1.461-.982-1.497-.565-3.504.932-4.484l13.164-8.635c1.497-.987 3.504-.561 4.482.93.982 1.497.565 3.504-.932 4.484l-13.164 8.635a3.21 3.21 0 0 1-1.771.531z"/></g><g class="F I"><path d="M1106.73 20.588c-.607 0-1.223-.171-1.771-.531l-13.16-8.635c-1.497-.98-1.914-2.987-.932-4.484a3.23 3.23 0 0 1 4.482-.93l13.16 8.635c1.497.98 1.914 2.987.932 4.484-.62.947-1.657 1.461-2.711 1.461z"/></g><path d="M1060.807 35.355c-1.054 0-2.091-.514-2.711-1.461-.982-1.497-.565-3.504.932-4.484l13.164-8.635c1.497-.987 3.504-.561 4.482.93.982 1.497.565 3.504-.932 4.484l-13.164 8.635a3.21 3.21 0 0 1-1.771.531z" class="D F"/><g class="F I"><path d="M1106.73 35.355c-.607 0-1.223-.171-1.771-.531l-13.16-8.635c-1.497-.98-1.914-2.987-.932-4.484a3.23 3.23 0 0 1 4.482-.93l13.16 8.635c1.497.98 1.914 2.987.932 4.484-.62.947-1.657 1.461-2.711 1.461z"/></g></g><path d="M1021.339 71.629h.004a34.29 34.29 0 0 0 23.686-9.497l7.372-7.048c6.733-6.433 17.387-6.249 23.895.412l6.15 6.298c6.142 6.289 14.564 9.834 23.352 9.834h.004-84.464z" class="B S"/><path d="M1202.702-41.749h-19.354l-5.245,47.9c-.291,2.655,1.788,4.974,4.459,4.974h21.021c2.674,0,4.754-2.325,4.458-4.982l-5.339-47.891Z" class="R"/><g class="B"><path d="M1130.643 14.131h.004a34.29 34.29 0 0 0 23.686-9.497l7.372-7.048c6.733-6.433 17.387-6.249 23.895.412l6.15 6.298c6.142 6.289 14.564 9.834 23.352 9.834h.004-84.464z" class="O"/><path d="M1384.44 147.876c0-.971-.385-1.904-1.074-2.593a3.67 3.67 0 0 0-2.593-1.074h-4.894c-.972 0-1.904.387-2.593 1.074a3.67 3.67 0 0 0-1.074 2.593v.005c0 .971.387 1.904 1.074 2.593a3.67 3.67 0 0 0 2.593 1.074h4.894a3.67 3.67 0 0 0 2.593-1.074c.688-.688 1.074-1.621 1.074-2.593v-.005z" fill="#eb744b"/></g><path d="M1308.986 11.761h7.758v121.952h-7.758z" class="L"/><g class="M"><path d="M1319.748 133.715h-13.769a3.53 3.53 0 0 1-3.53-3.515v-.009c-.018-4.285 3.473-7.791 7.758-7.791h5.313c4.285 0 7.776 3.506 7.758 7.791v.009a3.53 3.53 0 0 1-3.53 3.515zm-22.1-117.605c-.992 0-1.985-.379-2.742-1.136l-20.732-20.732a3.88 3.88 0 0 1 0-5.485 3.88 3.88 0 0 1 5.485 0l20.732 20.732a3.88 3.88 0 0 1 0 5.485 3.87 3.87 0 0 1-2.743 1.136zm30.43 0a3.87 3.87 0 0 1-2.743-1.136 3.88 3.88 0 0 1 0-5.485l20.732-20.732a3.88 3.88 0 0 1 5.485 0 3.88 3.88 0 0 1 0 5.485l-20.732 20.732a3.87 3.87 0 0 1-2.742 1.136z"/></g><g class="L"><path d="M1274.174 30.217l20.73-20.73 5.485 5.485-20.73 20.73zm51.167-15.237l5.485-5.486 20.732 20.728-5.485 5.486z"/></g><path d="M1328.127 16.11h-30.479a3.88 3.88 0 0 1-3.879-3.879 3.88 3.88 0 0 1 3.879-3.879h30.479a3.88 3.88 0 0 1 3.879 3.879 3.88 3.88 0 0 1-3.879 3.879z" class="M"/><g class="F"><rect x="1297.599" y="-6.557" width="30.53" height="37.572" rx="13.156" fill="#8bcbec"/></g><g class="M"><path d="M1300.168 36.838c-.693 0-1.394-.186-2.027-.576-1.826-1.121-2.398-3.512-1.273-5.334l12.743-20.728a3.87 3.87 0 0 1 5.334-1.273c1.826 1.121 2.398 3.511 1.273 5.334l-12.743 20.728a3.87 3.87 0 0 1-3.307 1.849z"/><path d="M1325.657 36.838c-1.303 0-2.576-.655-3.307-1.849l-12.743-20.728c-1.125-1.822-.553-4.212 1.273-5.334 1.818-1.125 4.212-.557 5.334 1.273l12.743 20.728c1.125 1.822.553 4.212-1.273 5.334a3.85 3.85 0 0 1-2.026.576z"/></g><g class="L"><path d="M1312.918 16.11c-1.303 0-2.576-.655-3.307-1.849l-12.743-20.732c-1.125-1.826-.553-4.212 1.273-5.334 1.818-1.125 4.212-.557 5.334 1.273l12.743 20.732c1.125 1.826.553 4.212-1.273 5.334a3.85 3.85 0 0 1-2.027.576z"/><path d="M1312.907 16.11c-.693 0-1.394-.186-2.027-.576-1.826-1.121-2.398-3.508-1.273-5.334l12.743-20.732a3.87 3.87 0 0 1 5.334-1.273c1.826 1.121 2.398 3.508 1.273 5.334l-12.743 20.732a3.87 3.87 0 0 1-3.307 1.849z"/></g><g fill="#fff"><path d="M1284.193 45.785a3.83 3.83 0 0 1-1.727-.409c-9.959-4.97-16.993-14.645-18.819-25.88-1.803-11.076 1.78-22.043 9.83-30.092l9.595-9.595c1.515-1.516 3.97-1.516 5.485 0a3.88 3.88 0 0 1 0 5.485l-9.595 9.595c-6.356 6.356-9.076 14.652-7.659 23.361 1.428 8.78 6.898 16.327 14.626 20.186 1.917.955 2.697 3.284 1.739 5.201a3.88 3.88 0 0 1-3.474 2.148zm18.266 0c-1.254 0-2.481-.606-3.231-1.723-7.008-10.501-8.55-36.82-3.114-53.143l3.205-9.595a3.88 3.88 0 0 1 4.906-2.451c2.034.678 3.129 2.875 2.451 4.906l-3.201 9.595c-4.928 14.8-2.936 38.676 2.209 46.377 1.189 1.784.708 4.194-1.072 5.383-.663.439-1.413.652-2.151.652zm20.698 0c-.739 0-1.489-.212-2.152-.655-1.78-1.189-2.261-3.599-1.068-5.379 5.144-7.701 7.137-31.577 2.205-46.377l-3.197-9.595c-.678-2.034.42-4.231 2.451-4.906 2.049-.678 4.228.421 4.906 2.451l3.197 9.595c5.443 16.323 3.902 42.646-3.114 53.143a3.87 3.87 0 0 1-3.227 1.723zm18.376 0c-1.424 0-2.796-.784-3.474-2.148-.958-1.917-.178-4.246 1.739-5.201 7.728-3.86 13.198-11.406 14.626-20.186 1.417-8.709-1.303-17.005-7.66-23.361l-9.595-9.595a3.88 3.88 0 0 1 0-5.485c1.515-1.516 3.97-1.516 5.485 0l9.595 9.595c8.05 8.05 11.633 19.016 9.83 30.092-1.826 11.236-8.86 20.91-18.819 25.88-.557.276-1.148.409-1.727.409z"/></g><path d="M1298.157,118.486h6.935c2.885,0,5.224,2.339,5.224,5.224h0c0,2.885,2.339,5.224,5.224,5.224h8.696c2.885,0,5.224,2.339,5.224,5.224v2.523c0,2.885-2.339,5.224-5.224,5.224h-26.168c-2.899,0-5.244-2.361-5.224-5.26l.091-12.971c.02-2.871,2.353-5.187,5.224-5.187Z" class="O"/><path d="M63.238 130.7l-11.495 9.124v72.475h22.991v-72.475L63.238 130.7z" class="X"/><path d="M63.238 130.7v81.599H51.743v-72.475l11.495-9.124z" fill="#c98b32"/><g class="X"><path d="M136.956 270.703v-145.61l-8.758-8.759H80.756v118.877l-5.84 5.863H51.743v29.629h85.213z"/><circle cx="83.836" cy="116.334" r="3.054"/><circle cx="89.944" cy="116.334" r="3.054"/><circle cx="96.053" cy="116.334" r="3.054"/></g><rect x="87.634" y="124.307" width="15.021" height="33.797" rx="4.025" fill="#b97825"/><path d="M91.659 124.307h1.34v33.797h-1.34a4.03 4.03 0 0 1-4.025-4.025v-25.747a4.03 4.03 0 0 1 4.025-4.025z" fill="#c98b32"/><g class="X"><circle cx="102.655" cy="131.673" r="3.054"/><circle cx="63.238" cy="145.948" r="3.054"/><circle cx="74.734" cy="145.948" r="3.054"/></g><path style="mix-blend-mode:multiply" d="M128.198 116.334v83.859l8.758-5.762v-69.338l-8.758-8.759z" fill="#e7dfdf"/><path d="M129.683 117.819v81.397l7.273-4.785v-69.338l-7.273-7.274z" fill="#43806f"/><g stroke="#43806f" stroke-width="6.038" class="C P Q"><path d="M129.683 117.819h0"/><path d="M129.683 124.08v72.006" stroke-dasharray="0 6.261"/><path d="M136.956 188.306v-63.213l-5.108-5.108" stroke-dasharray="0 6.125"/></g></g></svg>