<svg xmlns="http://www.w3.org/2000/svg" width="1500" height="145" xmlns:v="https://vecta.io/nano"><style><![CDATA[.B{fill:none}.C{fill:#fff}.D{fill-rule:evenodd}.E{opacity:.1}.F{fill:#7cb8c4}.G{fill:#18344a}.H{fill:#e7f2fd}.I{fill:#d14c37}.J{fill:#071d27}.K{fill:#16344b}.L{stroke-linejoin:round}.M{fill:#e1e5f4}.N{fill:#071e2d}.O{fill:#edf3f3}.P{fill:#0f2837}.Q{clip-rule:evenodd}.R{stroke-linecap:round}.S{fill:#b29569}.T{fill:#fae5db}.U{stroke:#071e2d}.V{stroke-miterlimit:10}.W{stroke-width:1.502}.X{fill:#0f2d3e}.Y{fill:#c1e6e4}.Z{stroke-dasharray:0 10}]]></style><defs><clipPath id="A"><path d="M0 0h1500v145H0z" class="B"/></clipPath><clipPath id="B"><path d="M-59.616 164.557h503.815c28.921 0 52.366 23.445 52.366 52.366h0c0 28.921 23.445 52.366 52.366 52.366H708.6c33.349 0 60.383 27.034 60.383 60.383h0c0 33.349 27.034 60.383 60.383 60.383h48.709c39.629 0 71.754 32.125 71.754 71.754v26.062c0 39.629-32.125 71.754-71.754 71.754h-311.56c-21.993 0-39.823-17.829-39.823-39.823h0c0-21.994-17.829-39.823-39.823-39.823H252.034a19.53 19.53 0 0 1-19.526-19.526h0a19.53 19.53 0 0 0-19.526-19.526H-59.616a19.53 19.53 0 0 1-19.526-19.526V184.084a19.53 19.53 0 0 1 19.526-19.526z" class="B"/></clipPath><clipPath id="C"><path d="M1081.789 162.281h25.618c9.363 0 17.024-7.376 17.024-16.391V40.705h-59.665V145.89c0 9.015 7.661 16.391 17.024 16.391z" class="B"/></clipPath><clipPath id="D"><path transform="matrix(-1 0 0 -1 2189.747 101.784)" d="M1071.362 46.102h47.024v9.58h-47.024z" class="B"/></clipPath><clipPath id="E"><path transform="matrix(-1 0 0 -1 2189.747 180.812)" d="M1071.362 85.616h47.024v9.58h-47.024z" class="B"/></clipPath><clipPath id="F"><path transform="matrix(-1 0 0 -1 2189.747 259.885)" d="M1071.362 125.152h47.024v9.58h-47.024z" class="B"/></clipPath><clipPath id="G"><path d="M1144.523 101.192h-.45l.923.016-.005-.016h172.442v63.889h-145.297a25.21 25.21 0 0 1-22.294-13.44l-17.128-31.59c-4.527-8.559 2.128-18.859 11.81-18.859z" class="B"/></clipPath><clipPath id="H"><path d="M1298.753 156.861a4.25 4.25 0 0 0-4.25-4.25h-19.073c-2.99 0-5.736-1.65-7.14-4.29l-16.732-31.464c-4.253-7.987-12.564-12.977-21.613-12.977h-97.805a21.36 21.36 0 0 0-18.423 10.553l-.548 32.549c-3.693 7.114 1.456 15.614 9.472 15.635l177.638-.016-1.526-5.741z" class="B"/></clipPath><clipPath id="I"><rect x="1190.986" y="126.336" width="33.793" height="24.716" rx="6.089" class="B"/></clipPath><clipPath id="J"><path d="M1189.827 126.022h36.11v29.141h-36.11z" class="B"/></clipPath><clipPath id="K"><path d="M663.522-9.13l-69.509-64.115C582.05-84.28 562.68-75.794 562.68-59.52v71.401a10.96 10.96 0 0 0 10.955 10.955h77.396c16.775 0 24.822-20.593 12.492-31.966z" class="C"/></clipPath><clipPath id="L"><path d="M652.389-5.601l-61.835-57.037c-10.642-9.816-27.874-2.268-27.874 12.21v63.519a9.75 9.75 0 0 0 9.745 9.745h68.851c14.923 0 22.081-18.319 11.113-28.437z" class="B"/></clipPath><clipPath id="M"><path d="M549.716-105.698h31.902a9.02 9.02 0 0 1 9.014 9.014v91.318c0 2.781-2.258 5.039-5.039 5.039H545.74c-2.781 0-5.039-2.258-5.039-5.039v-91.317a9.02 9.02 0 0 1 9.014-9.014z" class="B"/></clipPath><clipPath id="N"><path d="M546.083-30.333h-19.462l-5.274 48.167c-.292 2.67 1.798 5.002 4.484 5.002h21.138a4.51 4.51 0 0 0 4.483-5.01l-5.369-48.159z" class="B"/></clipPath><clipPath id="O"><path d="M536.4-32.083a25.97 25.97 0 0 0 7.607 18.366c4.872 4.872 11.479 7.607 18.369 7.607h26.126v-17.171a25.97 25.97 0 0 0-7.607-18.369 25.99 25.99 0 0 0-18.369-7.607H536.4v17.174z" class="B Q"/></clipPath><clipPath id="P"><path d="M536.4-32.083a25.97 25.97 0 0 1-7.607 18.366c-4.872 4.872-11.479 7.607-18.369 7.607h-26.126v-17.171a25.97 25.97 0 0 1 7.607-18.369 25.99 25.99 0 0 1 18.369-7.607H536.4v17.174z" class="B Q"/></clipPath><clipPath id="Q"><path d="M536.414-6.11l-15.605-11.372c-8.619-6.281-9.593-18.775-2.052-26.317l5.459-5.459h24.396l5.459 5.459c7.541 7.541 6.567 20.035-2.052 26.317L536.414-6.11z" class="B Q"/></clipPath><clipPath id="R"><path d="M780.613 125.199h31.902a9.02 9.02 0 0 1 9.014 9.014v91.317c0 2.781-2.258 5.039-5.039 5.039h-39.853c-2.781 0-5.039-2.258-5.039-5.039v-91.317a9.02 9.02 0 0 1 9.014-9.014z" class="B"/></clipPath><clipPath id="S"><path d="M966.266 125.199h31.902a9.02 9.02 0 0 1 9.014 9.014v91.317c0 2.781-2.258 5.039-5.039 5.039H962.29c-2.781 0-5.039-2.258-5.039-5.039v-91.317a9.02 9.02 0 0 1 9.014-9.014z" class="B"/></clipPath><clipPath id="T"><path d="M1151.92 125.199h31.902a9.02 9.02 0 0 1 9.014 9.014v91.317c0 2.781-2.258 5.039-5.039 5.039h-39.853c-2.781 0-5.039-2.258-5.039-5.039v-91.317a9.02 9.02 0 0 1 9.014-9.014z" class="B"/></clipPath><clipPath id="U"><path d="M138.406-98.491l-13.868 9.123v70.071h27.736v-70.071l-13.868-9.123z" class="B"/></clipPath><clipPath id="V"><path d="M139.378 210.827h0a3.67 3.67 0 0 0-2.528-3.489c-22.033-7.195-42.242-19.634-58.745-36.532l-27.326-27.985c-14.601-14.945-33.9-22.736-53.283-22.736h-67.053c-13.048 0-4.727 41.688-13.556 50.722-16.503 16.899-36.712 29.338-58.745 36.532a3.67 3.67 0 0 0-2.528 3.489h0a3.68 3.68 0 0 0 3.677 3.677h276.411a3.68 3.68 0 0 0 3.677-3.677z" class="B"/></clipPath><clipPath id="W"><path d="M199.863 210.827h0a3.67 3.67 0 0 1 2.528-3.489c22.033-7.195 42.242-19.634 58.745-36.532l27.326-27.985c14.601-14.945 33.9-22.736 53.283-22.736h67.053c13.048 0 4.727 41.688 13.556 50.722 16.503 16.899 36.712 29.338 58.745 36.532a3.67 3.67 0 0 1 2.528 3.489h0a3.68 3.68 0 0 1-3.677 3.677H341.746 203.542a3.68 3.68 0 0 1-3.677-3.677z" class="B"/></clipPath><clipPath id="X"><path d="M520.041 205.481l-27.526-26.031-27.212-26.014c-7.108-6.791-15.401-11.584-24.181-14.39a55.97 55.97 0 0 0-34.044 0c-8.78 2.807-17.073 7.599-24.181 14.39l-27.212 26.014-27.526 26.031c-3.435 3.247-1.136 9.023 3.591 9.023h92.35 92.35c4.727 0 7.026-5.775 3.591-9.023z" class="B"/></clipPath><clipPath id="Y"><path d="M21.938 200.615l42.371-40.07 41.888-40.044c10.942-10.454 23.707-17.831 37.222-22.151 17.021-5.441 35.384-5.441 52.405 0 13.515 4.32 26.28 11.697 37.222 22.151l41.888 40.044 42.371 40.07c5.288 4.998 1.749 13.889-5.528 13.889H169.621 27.465c-7.276 0-10.815-8.89-5.528-13.889z" class="B"/></clipPath><path id="Z" d="M1071.362 181.087V19.853c0-11.313 9.185-20.498 20.498-20.498h6.027c11.313 0 20.498 9.185 20.498 20.498v161.234c0 10.442-8.478 18.92-18.92 18.92h-9.184c-10.442 0-18.92-8.478-18.92-18.92z"/><path id="a" d="M1071.362 48.404h47.024a1.49 1.49 0 1 0 0-2.98h-47.024a1.49 1.49 0 1 0 0 2.98z"/><path id="b" d="M1215.337 118.632h-3.569a1.9 1.9 0 0 1-1.898-1.898 1.9 1.9 0 0 1 1.898-1.898h3.569a1.9 1.9 0 0 1 1.898 1.898 1.9 1.9 0 0 1-1.898 1.898z"/><path id="c" d="M1228.885 114.119h-.85a1.9 1.9 0 0 1-1.898-1.898 1.9 1.9 0 0 1 1.898-1.898h.85a1.9 1.9 0 0 1 1.898 1.898 1.9 1.9 0 0 1-1.898 1.898z"/><path id="d" d="M1322.749 63.687h3.325v6.651h-3.325z"/><path id="e" d="M677.471 91.6a2.82 2.82 0 0 1-2.818-2.825v-8.844a2.82 2.82 0 0 1 2.818-2.825 2.82 2.82 0 0 1 2.818 2.825v8.844a2.82 2.82 0 0 1-2.818 2.825z"/><path id="f" d="M689.237 91.6a2.82 2.82 0 0 1-2.818-2.825V82.88a2.82 2.82 0 0 1 2.818-2.825 2.82 2.82 0 0 1 2.818 2.825v5.895a2.82 2.82 0 0 1-2.818 2.825z"/><path id="g" d="M720.985 114.943a2.82 2.82 0 0 1-2.818-2.825v-5.898a2.82 2.82 0 0 1 2.818-2.825 2.82 2.82 0 0 1 2.818 2.825v5.898a2.82 2.82 0 0 1-2.818 2.825z"/><path id="h" d="M663.522-9.13l-69.509-64.115C582.05-84.28 562.68-75.794 562.68-59.52v71.401a10.96 10.96 0 0 0 10.955 10.955h77.396c16.775 0 24.822-20.593 12.492-31.966z"/><path id="i" d="M780.613 127.534h31.902a9.02 9.02 0 0 1 9.014 9.014v91.317c0 2.781-2.258 5.039-5.039 5.039h-39.853c-2.781 0-5.039-2.258-5.039-5.039v-91.317a9.02 9.02 0 0 1 9.014-9.014z"/><path id="j" d="M782.899 125.199h29.616a9.02 9.02 0 0 1 9.014 9.014v89.154a4.51 4.51 0 0 1-4.507 4.507h-39.848a3.29 3.29 0 0 1-3.29-3.29v-90.371a9.02 9.02 0 0 1 9.014-9.014z"/><path id="k" d="M771.583 141.359l49.931-.024"/><path id="l" d="M807.071 241.744h-13.496l40.686-117.579h13.495l-40.685 117.579z"/><path id="m" d="M966.266 127.534h31.902a9.02 9.02 0 0 1 9.014 9.014v91.317c0 2.781-2.258 5.039-5.039 5.039H962.29c-2.781 0-5.039-2.258-5.039-5.039v-91.317a9.02 9.02 0 0 1 9.014-9.014z"/><path id="n" d="M354.139 54.723l7.7 3.417-55.864 125.904-7.7-3.417z"/><path id="o" d="M244.988 133.115l-7.309 4.188-68.477-119.514 7.309-4.188z"/><path id="p" d="M162.385 13.602l7.309 4.188-68.477 119.514-7.309-4.188z"/><path id="q" d="M41.265 180.626l-7.7 3.417-55.864-125.904 7.7-3.417z"/><path id="r" d="M100.539 32.716l5.996 5.917-96.748 98.043-5.996-5.917z"/><path id="s" d="M253.302 144.655h62.256l-13.123 13.485h-62.256l13.123-13.485z"/><path id="t" d="M-56.764 64.1l8.086-7.797 95.607 99.156-8.086 7.797z"/><path id="u" d="M396.24 65.303l7.89 7.996-98.043 96.748-7.89-7.996z"/></defs><g clip-path="url(#A)"><path d="M-11.618-2351.127h1523.237v5153.382H-11.618z" fill="#04d5d8"/><path d="M881.245 1940.825c-41.651 0-84.385-27.125-101.61-64.497-.533-1.156-1.755-1.965-2.971-1.965H-33.074l-4.116-238.479V-472.204H220.6a127.35 127.35 0 0 1 78.961 27.557c22.556 17.938 38.384 43.268 44.57 71.323 3.204 14.528 16.339 25.073 31.234 25.073h152.318c17.632 0 31.977-14.345 31.977-31.977v-7.461c0-93.816 76.325-170.141 170.141-170.141h188.858c93.815 0 170.141 76.325 170.141 170.141 0 21.746 17.691 39.438 39.438 39.438h107.816a126.03 126.03 0 0 1 81.637 30.053c22.736 19.364 37.892 46.267 42.676 75.756 1.474 9.081 6.199 17.445 13.308 23.553 7.14 6.134 16.239 9.513 25.621 9.513h257.685v1978.184h-347.973c-14.935 0-29.001 5.855-39.61 16.487s-16.432 24.712-16.398 39.649c.068 30.785-11.914 59.787-33.741 81.663-22.018 22.065-51.313 34.218-82.491 34.218H881.247z" fill="#7ee5e3"/><path d="M881.245 1910.825c-30.031 0-62-20.229-74.365-47.055-5.434-11.789-17.294-19.407-30.216-19.407H442.665c-65.402 0-118.718-53.601-118.852-119.485-.132-65.613-53.623-118.993-119.239-118.993H-7.19V-442.204H220.6c21.818 0 43.229 7.471 60.289 21.038 17.183 13.665 29.239 32.95 33.947 54.302 6.211 28.168 31.668 48.613 60.53 48.613h152.318c34.174 0 61.977-27.802 61.977-61.977v-7.461c0-77.274 62.867-140.141 140.141-140.141H918.66c77.273 0 140.141 62.867 140.141 140.141 0 38.288 31.149 69.438 69.438 69.438h107.816a96 96 0 0 1 62.186 22.893c17.322 14.753 28.869 35.252 32.515 57.721 2.604 16.051 10.902 30.79 23.368 41.502a69.36 69.36 0 0 0 45.173 16.76h227.685v1918.184h-317.973c-22.96 0-44.569 8.984-60.847 25.297s-25.213 37.942-25.162 60.906c.051 22.76-8.82 44.213-24.979 60.407-16.348 16.384-38.102 25.407-61.254 25.407H881.246z" fill="#fceea3"/><path d="M881.244 1880.825c-18.075 0-39.553-13.196-47.119-29.612-10.016-21.73-32.006-36.85-57.462-36.85H442.665c-49.251 0-88.752-40.294-88.852-89.545-.166-82.151-67.05-148.933-149.239-148.933H-47.26V-412.204H220.6c31.082 0 58.247 21.448 64.94 51.8 9.09 41.22 45.913 72.153 89.826 72.153h152.318c50.797 0 91.977-41.179 91.977-91.977v-7.461c0-60.829 49.312-110.14 110.14-110.14H918.66c60.829 0 110.14 49.312 110.14 110.14h0c0 54.918 44.52 99.438 99.438 99.438h107.816c32.355 0 59.906 23.48 65.087 55.417 7.666 47.26 48.763 83.458 98.155 83.458h197.685v1858.184h-287.973c-64.054 0-116.15 52.182-116.008 116.269.068 30.868-25.365 55.749-56.233 55.749H881.246z" fill="#f8d680"/><g stroke-width="10" class="L R Z"><path d="M1411.098 104.99h0c0 46.441-37.648 84.089-84.089 84.089H864.848c-39.101 0-70.799-31.698-70.799-70.799V84.571c0-34.148-27.683-61.831-61.831-61.831h-79.632c-34.148 0-61.831-27.683-61.831-61.831h0c0-34.148-27.683-61.831-61.831-61.831H306.595c-34.148 0-61.831 27.683-61.831 61.831h0c0 34.148-27.683 61.831-61.831 61.831H-37.19v580.203h351.834c69.365 0 125.596 56.231 125.596 125.596h0c0 34.148 27.683 61.831 61.831 61.831h202.781c34.148 0 61.831-27.683 61.831-61.831v-14.897c0-34.148 27.683-61.831 61.831-61.831h177.038c21.017 0 38.054 17.037 38.054 38.054h0c0 21.017 17.037 38.054 38.054 38.054h285.782c16.913 0 30.624-13.711 30.624-30.624h0c0-16.913 13.711-30.624 30.624-30.624h258.678V20.901h-192.182c-46.441 0-84.089 37.648-84.089 84.089z" fill="#8ed54c" stroke="#8ed54c"/><path d="M1534.843-106.81H1338.39c-44.946 0-81.382-36.436-81.382-81.382h0c0-32.864-26.642-59.506-59.506-59.506h-91.784c-65.242 0-118.131-52.889-118.131-118.131v-7.061c0-32.864-26.642-59.506-59.506-59.506H720.186c-32.864 0-59.506 26.642-59.506 59.506v247.733c0 32.864 26.642 59.506 59.506 59.506h74.117c32.864 0 59.506 26.642 59.506 59.506v24.359c0 32.864 26.642 59.506 59.506 59.506h224.893c32.864 0 59.506-26.642 59.506-59.506V-1.445c0-32.864 26.642-59.506 59.506-59.506h277.623v-45.859z" fill="#f0be5b" stroke="#f0be5b"/></g><g clip-path="url(#B)" class="B L"><g opacity=".4"><g stroke="#a0ccc7"><g stroke-width="2.684"><rect x="77.317" y="5.002" width="36.649" height="18.372" rx="3.477" transform="matrix(-1 0 0 -1 191.284 28.375)"/><rect x="40.668" y="5.002" width="36.649" height="18.372" rx="3.477" transform="matrix(-1 0 0 -1 117.985 28.375)"/><rect x="3.982" y="5.002" width="36.649" height="18.372" rx="3.477" transform="matrix(-1 0 0 -1 44.612 28.375)"/><rect x="-32.668" y="5.002" width="36.649" height="18.372" rx="3.477" transform="matrix(-1 0 0 -1 -28.686 28.375)"/><rect x="95.617" y="-13.371" width="36.649" height="18.372" rx="3.477" transform="matrix(-1 0 0 -1 227.884 -8.369)"/><rect x="58.968" y="-13.371" width="36.649" height="18.372" rx="3.477" transform="matrix(-1 0 0 -1 154.585 -8.369)"/><rect x="22.281" y="-13.371" width="36.649" height="18.372" rx="3.477" transform="matrix(-1 0 0 -1 81.212 -8.369)"/><rect x="-14.368" y="-13.371" width="36.649" height="18.372" rx="3.477" transform="matrix(-1 0 0 -1 7.914 -8.369)"/><rect x="443.908" y="5.002" width="36.649" height="18.372" rx="3.477" transform="matrix(-1 0 0 -1 924.466 28.375)"/><rect x="407.259" y="5.002" width="36.649" height="18.372" rx="3.477" transform="matrix(-1 0 0 -1 851.168 28.375)"/><rect x="370.573" y="5.002" width="36.649" height="18.372" rx="3.477" transform="matrix(-1 0 0 -1 777.795 28.375)"/><rect x="333.924" y="5.002" width="36.649" height="18.372" rx="3.477" transform="matrix(-1 0 0 -1 704.496 28.375)"/><rect x="297.269" y="5.002" width="36.649" height="18.372" rx="3.477" transform="matrix(-1 0 0 -1 631.187 28.375)"/><rect x="260.62" y="5.002" width="36.649" height="18.372" rx="3.477" transform="matrix(-1 0 0 -1 557.888 28.375)"/><rect x="223.933" y="5.002" width="36.649" height="18.372" rx="3.477" transform="matrix(-1 0 0 -1 484.515 28.375)"/><rect x="187.284" y="5.002" width="36.649" height="18.372" rx="3.477" transform="matrix(-1 0 0 -1 411.217 28.375)"/><rect x="150.678" y="5.002" width="36.649" height="18.372" rx="3.477" transform="matrix(-1 0 0 -1 338.006 28.375)"/><rect x="114.029" y="5.002" width="36.649" height="18.372" rx="3.477" transform="matrix(-1 0 0 -1 264.707 28.375)"/><rect x="462.208" y="-13.371" width="36.649" height="18.372" rx="3.477" transform="matrix(-1 0 0 -1 961.066 -8.369)"/><rect x="425.559" y="-13.371" width="36.649" height="18.372" rx="3.477" transform="matrix(-1 0 0 -1 887.768 -8.369)"/><rect x="95.68" y="-13.371" width="36.649" height="18.372" rx="3.477" transform="matrix(-1 0 0 -1 228.009 -8.369)"/><rect x="388.873" y="-13.371" width="36.649" height="18.372" rx="3.477" transform="matrix(-1 0 0 -1 814.394 -8.369)"/><rect x="352.224" y="-13.371" width="36.649" height="18.372" rx="3.477" transform="matrix(-1 0 0 -1 741.096 -8.369)"/><rect x="315.569" y="-13.371" width="36.649" height="18.372" rx="3.477" transform="matrix(-1 0 0 -1 667.786 -8.369)"/><rect x="278.92" y="-13.371" width="36.649" height="18.372" rx="3.477" transform="matrix(-1 0 0 -1 594.488 -8.369)"/><rect x="242.233" y="-13.371" width="36.649" height="18.372" rx="3.477" transform="matrix(-1 0 0 -1 521.115 -8.369)"/><rect x="205.584" y="-13.371" width="36.649" height="18.372" rx="3.477" transform="matrix(-1 0 0 -1 447.817 -8.369)"/><rect x="168.978" y="-13.371" width="36.649" height="18.372" rx="3.477" transform="matrix(-1 0 0 -1 374.605 -8.369)"/><rect x="132.329" y="-13.371" width="36.649" height="18.372" rx="3.477" transform="matrix(-1 0 0 -1 301.307 -8.369)"/><rect x="95.617" y="133.576" width="36.649" height="18.372" rx="3.477" transform="matrix(-1 0 0 -1 227.884 285.525)"/><rect x="58.968" y="133.576" width="36.649" height="18.372" rx="3.477" transform="matrix(-1 0 0 -1 154.585 285.525)"/><rect x="22.281" y="133.576" width="36.649" height="18.372" rx="3.477" transform="matrix(-1 0 0 -1 81.212 285.525)"/><rect x="-14.368" y="133.576" width="36.649" height="18.372" rx="3.477" transform="matrix(-1 0 0 -1 7.914 285.525)"/><rect x="77.317" y="115.204" width="36.649" height="18.372" rx="3.477" transform="matrix(-1 0 0 -1 191.284 248.78)"/><rect x="40.668" y="115.204" width="36.649" height="18.372" rx="3.477" transform="matrix(-1 0 0 -1 117.985 248.78)"/><rect x="3.982" y="115.204" width="36.649" height="18.372" rx="3.477" transform="matrix(-1 0 0 -1 44.612 248.78)"/><rect x="-32.668" y="115.204" width="36.649" height="18.372" rx="3.477" transform="matrix(-1 0 0 -1 -28.686 248.78)"/><rect x="95.617" y="96.832" width="36.649" height="18.372" rx="3.477" transform="matrix(-1 0 0 -1 227.884 212.036)"/><rect x="58.968" y="96.832" width="36.649" height="18.372" rx="3.477" transform="matrix(-1 0 0 -1 154.585 212.036)"/><rect x="22.281" y="96.832" width="36.649" height="18.372" rx="3.477" transform="matrix(-1 0 0 -1 81.212 212.036)"/><rect x="-14.368" y="96.832" width="36.649" height="18.372" rx="3.477" transform="matrix(-1 0 0 -1 7.914 212.036)"/><rect x="77.317" y="78.46" width="36.649" height="18.372" rx="3.477" transform="matrix(-1 0 0 -1 191.284 175.291)"/><rect x="40.668" y="78.46" width="36.649" height="18.372" rx="3.477" transform="matrix(-1 0 0 -1 117.985 175.291)"/><rect x="3.982" y="78.46" width="36.649" height="18.372" rx="3.477" transform="matrix(-1 0 0 -1 44.612 175.291)"/><rect x="-32.668" y="78.46" width="36.649" height="18.372" rx="3.477" transform="matrix(-1 0 0 -1 -28.686 175.291)"/><rect x="95.617" y="60.087" width="36.649" height="18.372" rx="3.477" transform="matrix(-1 0 0 -1 227.884 138.547)"/><rect x="58.968" y="60.087" width="36.649" height="18.372" rx="3.477" transform="matrix(-1 0 0 -1 154.585 138.547)"/><rect x="22.281" y="60.087" width="36.649" height="18.372" rx="3.477" transform="matrix(-1 0 0 -1 81.212 138.547)"/><rect x="-14.368" y="60.087" width="36.649" height="18.372" rx="3.477" transform="matrix(-1 0 0 -1 7.914 138.547)"/><rect x="77.317" y="41.715" width="36.649" height="18.372" rx="3.477" transform="matrix(-1 0 0 -1 191.284 101.803)"/><rect x="40.668" y="41.715" width="36.649" height="18.372" rx="3.477" transform="matrix(-1 0 0 -1 117.985 101.803)"/><rect x="3.982" y="41.715" width="36.649" height="18.372" rx="3.477" transform="matrix(-1 0 0 -1 44.612 101.803)"/><rect x="-32.668" y="41.715" width="36.649" height="18.372" rx="3.477" transform="matrix(-1 0 0 -1 -28.686 101.803)"/><rect x="95.617" y="23.343" width="36.649" height="18.372" rx="3.477" transform="matrix(-1 0 0 -1 227.884 65.058)"/><rect x="58.968" y="23.343" width="36.649" height="18.372" rx="3.477" transform="matrix(-1 0 0 -1 154.585 65.058)"/><rect x="22.281" y="23.343" width="36.649" height="18.372" rx="3.477" transform="matrix(-1 0 0 -1 81.212 65.058)"/><rect x="-14.368" y="23.343" width="36.649" height="18.372" rx="3.477" transform="matrix(-1 0 0 -1 7.914 65.058)"/><rect x="462.208" y="133.576" width="36.649" height="18.372" rx="3.477" transform="matrix(-1 0 0 -1 961.066 285.525)"/><rect x="425.559" y="133.576" width="36.649" height="18.372" rx="3.477" transform="matrix(-1 0 0 -1 887.768 285.525)"/><rect x="95.68" y="133.576" width="36.649" height="18.372" rx="3.477" transform="matrix(-1 0 0 -1 228.009 285.525)"/><rect x="388.873" y="133.576" width="36.649" height="18.372" rx="3.477" transform="matrix(-1 0 0 -1 814.394 285.525)"/><rect x="352.224" y="133.576" width="36.649" height="18.372" rx="3.477" transform="matrix(-1 0 0 -1 741.096 285.525)"/><rect x="315.569" y="133.576" width="36.649" height="18.372" rx="3.477" transform="matrix(-1 0 0 -1 667.786 285.525)"/><rect x="278.92" y="133.576" width="36.649" height="18.372" rx="3.477" transform="matrix(-1 0 0 -1 594.488 285.525)"/><rect x="242.233" y="133.576" width="36.649" height="18.372" rx="3.477" transform="matrix(-1 0 0 -1 521.115 285.525)"/><rect x="205.584" y="133.576" width="36.649" height="18.372" rx="3.477" transform="matrix(-1 0 0 -1 447.817 285.525)"/><rect x="168.978" y="133.576" width="36.649" height="18.372" rx="3.477" transform="matrix(-1 0 0 -1 374.605 285.525)"/><rect x="132.329" y="133.576" width="36.649" height="18.372" rx="3.477" transform="matrix(-1 0 0 -1 301.307 285.525)"/><rect x="443.908" y="115.204" width="36.649" height="18.372" rx="3.477" transform="matrix(-1 0 0 -1 924.466 248.78)"/><rect x="407.259" y="115.204" width="36.649" height="18.372" rx="3.477" transform="matrix(-1 0 0 -1 851.168 248.78)"/><rect x="370.573" y="115.204" width="36.649" height="18.372" rx="3.477" transform="matrix(-1 0 0 -1 777.795 248.78)"/><rect x="333.924" y="115.204" width="36.649" height="18.372" rx="3.477" transform="matrix(-1 0 0 -1 704.496 248.78)"/><rect x="297.269" y="115.204" width="36.649" height="18.372" rx="3.477" transform="matrix(-1 0 0 -1 631.187 248.78)"/><rect x="260.62" y="115.204" width="36.649" height="18.372" rx="3.477" transform="matrix(-1 0 0 -1 557.888 248.78)"/><rect x="223.933" y="115.204" width="36.649" height="18.372" rx="3.477" transform="matrix(-1 0 0 -1 484.515 248.78)"/><rect x="187.284" y="115.204" width="36.649" height="18.372" rx="3.477" transform="matrix(-1 0 0 -1 411.217 248.78)"/><rect x="150.678" y="115.204" width="36.649" height="18.372" rx="3.477" transform="matrix(-1 0 0 -1 338.006 248.78)"/><rect x="114.029" y="115.204" width="36.649" height="18.372" rx="3.477" transform="matrix(-1 0 0 -1 264.707 248.78)"/><rect x="462.208" y="96.832" width="36.649" height="18.372" rx="3.477" transform="matrix(-1 0 0 -1 961.066 212.036)"/><rect x="425.559" y="96.832" width="36.649" height="18.372" rx="3.477" transform="matrix(-1 0 0 -1 887.768 212.036)"/><rect x="95.68" y="96.832" width="36.649" height="18.372" rx="3.477" transform="matrix(-1 0 0 -1 228.009 212.036)"/><rect x="388.873" y="96.832" width="36.649" height="18.372" rx="3.477" transform="matrix(-1 0 0 -1 814.394 212.036)"/><rect x="352.224" y="96.832" width="36.649" height="18.372" rx="3.477" transform="matrix(-1 0 0 -1 741.096 212.036)"/><rect x="315.569" y="96.832" width="36.649" height="18.372" rx="3.477" transform="matrix(-1 0 0 -1 667.786 212.036)"/><rect x="278.92" y="96.832" width="36.649" height="18.372" rx="3.477" transform="matrix(-1 0 0 -1 594.488 212.036)"/><rect x="242.233" y="96.832" width="36.649" height="18.372" rx="3.477" transform="matrix(-1 0 0 -1 521.115 212.036)"/><rect x="205.584" y="96.832" width="36.649" height="18.372" rx="3.477" transform="matrix(-1 0 0 -1 447.817 212.036)"/><rect x="168.978" y="96.832" width="36.649" height="18.372" rx="3.477" transform="matrix(-1 0 0 -1 374.605 212.036)"/><rect x="132.329" y="96.832" width="36.649" height="18.372" rx="3.477" transform="matrix(-1 0 0 -1 301.307 212.036)"/><rect x="443.908" y="78.46" width="36.649" height="18.372" rx="3.477" transform="matrix(-1 0 0 -1 924.466 175.291)"/><rect x="407.259" y="78.46" width="36.649" height="18.372" rx="3.477" transform="matrix(-1 0 0 -1 851.168 175.291)"/><rect x="370.573" y="78.46" width="36.649" height="18.372" rx="3.477" transform="matrix(-1 0 0 -1 777.795 175.291)"/><rect x="333.924" y="78.46" width="36.649" height="18.372" rx="3.477" transform="matrix(-1 0 0 -1 704.496 175.291)"/><rect x="297.269" y="78.46" width="36.649" height="18.372" rx="3.477" transform="matrix(-1 0 0 -1 631.187 175.291)"/><rect x="260.62" y="78.46" width="36.649" height="18.372" rx="3.477" transform="matrix(-1 0 0 -1 557.888 175.291)"/><rect x="223.933" y="78.46" width="36.649" height="18.372" rx="3.477" transform="matrix(-1 0 0 -1 484.515 175.291)"/><rect x="187.284" y="78.46" width="36.649" height="18.372" rx="3.477" transform="matrix(-1 0 0 -1 411.217 175.291)"/><rect x="150.678" y="78.46" width="36.649" height="18.372" rx="3.477" transform="matrix(-1 0 0 -1 338.006 175.291)"/><rect x="114.029" y="78.46" width="36.649" height="18.372" rx="3.477" transform="matrix(-1 0 0 -1 264.707 175.291)"/><rect x="462.208" y="60.087" width="36.649" height="18.372" rx="3.477" transform="matrix(-1 0 0 -1 961.066 138.547)"/><rect x="425.559" y="60.087" width="36.649" height="18.372" rx="3.477" transform="matrix(-1 0 0 -1 887.768 138.547)"/><rect x="95.68" y="60.087" width="36.649" height="18.372" rx="3.477" transform="matrix(-1 0 0 -1 228.009 138.547)"/><rect x="388.873" y="60.087" width="36.649" height="18.372" rx="3.477" transform="matrix(-1 0 0 -1 814.394 138.547)"/><rect x="352.224" y="60.087" width="36.649" height="18.372" rx="3.477" transform="matrix(-1 0 0 -1 741.096 138.547)"/><rect x="315.569" y="60.087" width="36.649" height="18.372" rx="3.477" transform="matrix(-1 0 0 -1 667.786 138.547)"/><rect x="278.92" y="60.087" width="36.649" height="18.372" rx="3.477" transform="matrix(-1 0 0 -1 594.488 138.547)"/><rect x="242.233" y="60.087" width="36.649" height="18.372" rx="3.477" transform="matrix(-1 0 0 -1 521.115 138.547)"/><rect x="205.584" y="60.087" width="36.649" height="18.372" rx="3.477" transform="matrix(-1 0 0 -1 447.817 138.547)"/><rect x="168.978" y="60.087" width="36.649" height="18.372" rx="3.477" transform="matrix(-1 0 0 -1 374.605 138.547)"/><rect x="132.329" y="60.087" width="36.649" height="18.372" rx="3.477" transform="matrix(-1 0 0 -1 301.307 138.547)"/><rect x="443.908" y="41.715" width="36.649" height="18.372" rx="3.477" transform="matrix(-1 0 0 -1 924.466 101.803)"/><rect x="407.259" y="41.715" width="36.649" height="18.372" rx="3.477" transform="matrix(-1 0 0 -1 851.168 101.803)"/><rect x="370.573" y="41.715" width="36.649" height="18.372" rx="3.477" transform="matrix(-1 0 0 -1 777.795 101.803)"/><rect x="333.924" y="41.715" width="36.649" height="18.372" rx="3.477" transform="matrix(-1 0 0 -1 704.496 101.803)"/><rect x="297.269" y="41.715" width="36.649" height="18.372" rx="3.477" transform="matrix(-1 0 0 -1 631.187 101.803)"/><rect x="260.62" y="41.715" width="36.649" height="18.372" rx="3.477" transform="matrix(-1 0 0 -1 557.888 101.803)"/><rect x="223.933" y="41.715" width="36.649" height="18.372" rx="3.477" transform="matrix(-1 0 0 -1 484.515 101.803)"/><rect x="187.284" y="41.715" width="36.649" height="18.372" rx="3.477" transform="matrix(-1 0 0 -1 411.217 101.803)"/><rect x="150.678" y="41.715" width="36.649" height="18.372" rx="3.477" transform="matrix(-1 0 0 -1 338.006 101.803)"/><rect x="114.029" y="41.715" width="36.649" height="18.372" rx="3.477" transform="matrix(-1 0 0 -1 264.707 101.803)"/><rect x="462.208" y="23.343" width="36.649" height="18.372" rx="3.477" transform="matrix(-1 0 0 -1 961.066 65.058)"/><rect x="425.559" y="23.343" width="36.649" height="18.372" rx="3.477" transform="matrix(-1 0 0 -1 887.768 65.058)"/><rect x="95.68" y="23.343" width="36.649" height="18.372" rx="3.477" transform="matrix(-1 0 0 -1 228.009 65.058)"/><rect x="388.873" y="23.343" width="36.649" height="18.372" rx="3.477" transform="matrix(-1 0 0 -1 814.394 65.058)"/><rect x="352.224" y="23.343" width="36.649" height="18.372" rx="3.477" transform="matrix(-1 0 0 -1 741.096 65.058)"/><rect x="315.569" y="23.343" width="36.649" height="18.372" rx="3.477" transform="matrix(-1 0 0 -1 667.786 65.058)"/><rect x="278.92" y="23.343" width="36.649" height="18.372" rx="3.477" transform="matrix(-1 0 0 -1 594.488 65.058)"/><rect x="242.233" y="23.343" width="36.649" height="18.372" rx="3.477" transform="matrix(-1 0 0 -1 521.115 65.058)"/><rect x="205.584" y="23.343" width="36.649" height="18.372" rx="3.477" transform="matrix(-1 0 0 -1 447.817 65.058)"/><rect x="168.978" y="23.343" width="36.649" height="18.372" rx="3.477" transform="matrix(-1 0 0 -1 374.605 65.058)"/><rect x="132.329" y="23.343" width="36.649" height="18.372" rx="3.477" transform="matrix(-1 0 0 -1 301.307 65.058)"/><rect x="828.742" y="133.576" width="36.649" height="18.372" rx="3.477" transform="matrix(-1 0 0 -1 1694.134 285.525)"/><rect x="792.093" y="133.576" width="36.649" height="18.372" rx="3.477" transform="matrix(-1 0 0 -1 1620.836 285.525)"/><rect x="462.214" y="133.576" width="36.649" height="18.372" rx="3.477" transform="matrix(-1 0 0 -1 961.077 285.525)"/><rect x="755.407" y="133.576" width="36.649" height="18.372" rx="3.477" transform="matrix(-1 0 0 -1 1547.462 285.525)"/><rect x="718.758" y="133.576" width="36.649" height="18.372" rx="3.477" transform="matrix(-1 0 0 -1 1474.164 285.525)"/><rect x="682.103" y="133.576" width="36.649" height="18.372" rx="3.477" transform="matrix(-1 0 0 -1 1400.854 285.525)"/><rect x="645.454" y="133.576" width="36.649" height="18.372" rx="3.477" transform="matrix(-1 0 0 -1 1327.556 285.525)"/><rect x="608.767" y="133.576" width="36.649" height="18.372" rx="3.477" transform="matrix(-1 0 0 -1 1254.183 285.525)"/><rect x="572.118" y="133.576" width="36.649" height="18.372" rx="3.477" transform="matrix(-1 0 0 -1 1180.885 285.525)"/><rect x="535.512" y="133.576" width="36.649" height="18.372" rx="3.477" transform="matrix(-1 0 0 -1 1107.673 285.525)"/><rect x="498.863" y="133.576" width="36.649" height="18.372" rx="3.477" transform="matrix(-1 0 0 -1 1034.375 285.525)"/><rect x="810.442" y="115.204" width="36.649" height="18.372" rx="3.477" transform="matrix(-1 0 0 -1 1657.534 248.78)"/><rect x="773.793" y="115.204" width="36.649" height="18.372" rx="3.477" transform="matrix(-1 0 0 -1 1584.236 248.78)"/><rect x="737.107" y="115.204" width="36.649" height="18.372" rx="3.477" transform="matrix(-1 0 0 -1 1510.862 248.78)"/><rect x="700.458" y="115.204" width="36.649" height="18.372" rx="3.477" transform="matrix(-1 0 0 -1 1437.564 248.78)"/><rect x="663.803" y="115.204" width="36.649" height="18.372" rx="3.477" transform="matrix(-1 0 0 -1 1364.255 248.78)"/><rect x="627.154" y="115.204" width="36.649" height="18.372" rx="3.477" transform="matrix(-1 0 0 -1 1290.956 248.78)"/><rect x="590.467" y="115.204" width="36.649" height="18.372" rx="3.477" transform="matrix(-1 0 0 -1 1217.583 248.78)"/><rect x="553.818" y="115.204" width="36.649" height="18.372" rx="3.477" transform="matrix(-1 0 0 -1 1144.285 248.78)"/><rect x="517.212" y="115.204" width="36.649" height="18.372" rx="3.477" transform="matrix(-1 0 0 -1 1071.073 248.78)"/><rect x="480.563" y="115.204" width="36.649" height="18.372" rx="3.477" transform="matrix(-1 0 0 -1 997.775 248.78)"/><rect x="828.742" y="96.832" width="36.649" height="18.372" rx="3.477" transform="matrix(-1 0 0 -1 1694.134 212.036)"/><rect x="792.093" y="96.832" width="36.649" height="18.372" rx="3.477" transform="matrix(-1 0 0 -1 1620.836 212.036)"/><rect x="462.214" y="96.832" width="36.649" height="18.372" rx="3.477" transform="matrix(-1 0 0 -1 961.077 212.036)"/><rect x="755.407" y="96.832" width="36.649" height="18.372" rx="3.477" transform="matrix(-1 0 0 -1 1547.462 212.036)"/><rect x="718.758" y="96.832" width="36.649" height="18.372" rx="3.477" transform="matrix(-1 0 0 -1 1474.164 212.036)"/><rect x="682.103" y="96.832" width="36.649" height="18.372" rx="3.477" transform="matrix(-1 0 0 -1 1400.854 212.036)"/><rect x="645.454" y="96.832" width="36.649" height="18.372" rx="3.477" transform="matrix(-1 0 0 -1 1327.556 212.036)"/><rect x="608.767" y="96.832" width="36.649" height="18.372" rx="3.477" transform="matrix(-1 0 0 -1 1254.183 212.036)"/><rect x="572.118" y="96.832" width="36.649" height="18.372" rx="3.477" transform="matrix(-1 0 0 -1 1180.885 212.036)"/><rect x="535.512" y="96.832" width="36.649" height="18.372" rx="3.477" transform="matrix(-1 0 0 -1 1107.673 212.036)"/><rect x="498.863" y="96.832" width="36.649" height="18.372" rx="3.477" transform="matrix(-1 0 0 -1 1034.375 212.036)"/><rect x="810.442" y="78.46" width="36.649" height="18.372" rx="3.477" transform="matrix(-1 0 0 -1 1657.534 175.291)"/><rect x="773.793" y="78.46" width="36.649" height="18.372" rx="3.477" transform="matrix(-1 0 0 -1 1584.236 175.291)"/><rect x="737.107" y="78.46" width="36.649" height="18.372" rx="3.477" transform="matrix(-1 0 0 -1 1510.862 175.291)"/><rect x="700.458" y="78.46" width="36.649" height="18.372" rx="3.477" transform="matrix(-1 0 0 -1 1437.564 175.291)"/><rect x="663.803" y="78.46" width="36.649" height="18.372" rx="3.477" transform="matrix(-1 0 0 -1 1364.255 175.291)"/><rect x="627.154" y="78.46" width="36.649" height="18.372" rx="3.477" transform="matrix(-1 0 0 -1 1290.956 175.291)"/><rect x="590.467" y="78.46" width="36.649" height="18.372" rx="3.477" transform="matrix(-1 0 0 -1 1217.583 175.291)"/><rect x="553.818" y="78.46" width="36.649" height="18.372" rx="3.477" transform="matrix(-1 0 0 -1 1144.285 175.291)"/><rect x="517.212" y="78.46" width="36.649" height="18.372" rx="3.477" transform="matrix(-1 0 0 -1 1071.073 175.291)"/><rect x="480.563" y="78.46" width="36.649" height="18.372" rx="3.477" transform="matrix(-1 0 0 -1 997.775 175.291)"/><rect x="828.742" y="60.087" width="36.649" height="18.372" rx="3.477" transform="matrix(-1 0 0 -1 1694.134 138.547)"/><rect x="792.093" y="60.087" width="36.649" height="18.372" rx="3.477" transform="matrix(-1 0 0 -1 1620.836 138.547)"/><rect x="462.214" y="60.087" width="36.649" height="18.372" rx="3.477" transform="matrix(-1 0 0 -1 961.077 138.547)"/><rect x="755.407" y="60.087" width="36.649" height="18.372" rx="3.477" transform="matrix(-1 0 0 -1 1547.462 138.547)"/><rect x="718.758" y="60.087" width="36.649" height="18.372" rx="3.477" transform="matrix(-1 0 0 -1 1474.164 138.547)"/><rect x="682.103" y="60.087" width="36.649" height="18.372" rx="3.477" transform="matrix(-1 0 0 -1 1400.854 138.547)"/><rect x="645.454" y="60.087" width="36.649" height="18.372" rx="3.477" transform="matrix(-1 0 0 -1 1327.556 138.547)"/><rect x="608.767" y="60.087" width="36.649" height="18.372" rx="3.477" transform="matrix(-1 0 0 -1 1254.183 138.547)"/><rect x="572.118" y="60.087" width="36.649" height="18.372" rx="3.477" transform="matrix(-1 0 0 -1 1180.885 138.547)"/><rect x="535.512" y="60.087" width="36.649" height="18.372" rx="3.477" transform="matrix(-1 0 0 -1 1107.673 138.547)"/><rect x="498.863" y="60.087" width="36.649" height="18.372" rx="3.477" transform="matrix(-1 0 0 -1 1034.375 138.547)"/><rect x="810.442" y="41.715" width="36.649" height="18.372" rx="3.477" transform="matrix(-1 0 0 -1 1657.534 101.803)"/><rect x="773.793" y="41.715" width="36.649" height="18.372" rx="3.477" transform="matrix(-1 0 0 -1 1584.236 101.803)"/><rect x="737.107" y="41.715" width="36.649" height="18.372" rx="3.477" transform="matrix(-1 0 0 -1 1510.862 101.803)"/><rect x="700.458" y="41.715" width="36.649" height="18.372" rx="3.477" transform="matrix(-1 0 0 -1 1437.564 101.803)"/><rect x="663.803" y="41.715" width="36.649" height="18.372" rx="3.477" transform="matrix(-1 0 0 -1 1364.255 101.803)"/><rect x="627.154" y="41.715" width="36.649" height="18.372" rx="3.477" transform="matrix(-1 0 0 -1 1290.956 101.803)"/><rect x="590.467" y="41.715" width="36.649" height="18.372" rx="3.477" transform="matrix(-1 0 0 -1 1217.583 101.803)"/><rect x="553.818" y="41.715" width="36.649" height="18.372" rx="3.477" transform="matrix(-1 0 0 -1 1144.285 101.803)"/><rect x="517.212" y="41.715" width="36.649" height="18.372" rx="3.477" transform="matrix(-1 0 0 -1 1071.073 101.803)"/><rect x="480.563" y="41.715" width="36.649" height="18.372" rx="3.477" transform="matrix(-1 0 0 -1 997.775 101.803)"/><rect x="828.742" y="23.343" width="36.649" height="18.372" rx="3.477" transform="matrix(-1 0 0 -1 1694.134 65.058)"/><rect x="792.093" y="23.343" width="36.649" height="18.372" rx="3.477" transform="matrix(-1 0 0 -1 1620.836 65.058)"/><rect x="462.214" y="23.343" width="36.649" height="18.372" rx="3.477" transform="matrix(-1 0 0 -1 961.077 65.058)"/><rect x="755.407" y="23.343" width="36.649" height="18.372" rx="3.477" transform="matrix(-1 0 0 -1 1547.462 65.058)"/><rect x="718.758" y="23.343" width="36.649" height="18.372" rx="3.477" transform="matrix(-1 0 0 -1 1474.164 65.058)"/><rect x="682.103" y="23.343" width="36.649" height="18.372" rx="3.477" transform="matrix(-1 0 0 -1 1400.854 65.058)"/><rect x="645.454" y="23.343" width="36.649" height="18.372" rx="3.477" transform="matrix(-1 0 0 -1 1327.556 65.058)"/><rect x="608.767" y="23.343" width="36.649" height="18.372" rx="3.477" transform="matrix(-1 0 0 -1 1254.183 65.058)"/><rect x="572.118" y="23.343" width="36.649" height="18.372" rx="3.477" transform="matrix(-1 0 0 -1 1180.885 65.058)"/><rect x="535.512" y="23.343" width="36.649" height="18.372" rx="3.477" transform="matrix(-1 0 0 -1 1107.673 65.058)"/><rect x="498.863" y="23.343" width="36.649" height="18.372" rx="3.477" transform="matrix(-1 0 0 -1 1034.375 65.058)"/><rect x="1195.334" y="133.576" width="36.649" height="18.372" rx="3.477" transform="matrix(-1 0 0 -1 2427.316 285.525)"/><rect x="1158.684" y="133.576" width="36.649" height="18.372" rx="3.477" transform="matrix(-1 0 0 -1 2354.018 285.525)"/><rect x="828.805" y="133.576" width="36.649" height="18.372" rx="3.477" transform="matrix(-1 0 0 -1 1694.259 285.525)"/><rect x="1121.998" y="133.576" width="36.649" height="18.372" rx="3.477" transform="matrix(-1 0 0 -1 2280.645 285.525)"/><rect x="1085.349" y="133.576" width="36.649" height="18.372" rx="3.477" transform="matrix(-1 0 0 -1 2207.347 285.525)"/><rect x="1048.694" y="133.576" width="36.649" height="18.372" rx="3.477" transform="matrix(-1 0 0 -1 2134.037 285.525)"/><rect x="1012.045" y="133.576" width="36.649" height="18.372" rx="3.477" transform="matrix(-1 0 0 -1 2060.739 285.525)"/><rect x="975.358" y="133.576" width="36.649" height="18.372" rx="3.477" transform="matrix(-1 0 0 -1 1987.365 285.525)"/><rect x="938.709" y="133.576" width="36.649" height="18.372" rx="3.477" transform="matrix(-1 0 0 -1 1914.067 285.525)"/><rect x="902.103" y="133.576" width="36.649" height="18.372" rx="3.477" transform="matrix(-1 0 0 -1 1840.856 285.525)"/><rect x="865.454" y="133.576" width="36.649" height="18.372" rx="3.477" transform="matrix(-1 0 0 -1 1767.558 285.525)"/><rect x="1177.034" y="115.204" width="36.649" height="18.372" rx="3.477" transform="matrix(-1 0 0 -1 2390.716 248.78)"/><rect x="1140.385" y="115.204" width="36.649" height="18.372" rx="3.477" transform="matrix(-1 0 0 -1 2317.418 248.78)"/><rect x="1103.698" y="115.204" width="36.649" height="18.372" rx="3.477" transform="matrix(-1 0 0 -1 2244.045 248.78)"/><rect x="1067.049" y="115.204" width="36.649" height="18.372" rx="3.477" transform="matrix(-1 0 0 -1 2170.747 248.78)"/><rect x="1030.394" y="115.204" width="36.649" height="18.372" rx="3.477" transform="matrix(-1 0 0 -1 2097.437 248.78)"/><rect x="993.745" y="115.204" width="36.649" height="18.372" rx="3.477" transform="matrix(-1 0 0 -1 2024.139 248.78)"/><rect x="957.058" y="115.204" width="36.649" height="18.372" rx="3.477" transform="matrix(-1 0 0 -1 1950.765 248.78)"/><rect x="920.409" y="115.204" width="36.649" height="18.372" rx="3.477" transform="matrix(-1 0 0 -1 1877.467 248.78)"/><rect x="883.803" y="115.204" width="36.649" height="18.372" rx="3.477" transform="matrix(-1 0 0 -1 1804.256 248.78)"/><rect x="847.154" y="115.204" width="36.649" height="18.372" rx="3.477" transform="matrix(-1 0 0 -1 1730.958 248.78)"/><rect x="1195.334" y="96.832" width="36.649" height="18.372" rx="3.477" transform="matrix(-1 0 0 -1 2427.316 212.036)"/><rect x="1158.684" y="96.832" width="36.649" height="18.372" rx="3.477" transform="matrix(-1 0 0 -1 2354.018 212.036)"/><rect x="828.805" y="96.832" width="36.649" height="18.372" rx="3.477" transform="matrix(-1 0 0 -1 1694.259 212.036)"/><rect x="1121.998" y="96.832" width="36.649" height="18.372" rx="3.477" transform="matrix(-1 0 0 -1 2280.645 212.036)"/><rect x="1085.349" y="96.832" width="36.649" height="18.372" rx="3.477" transform="matrix(-1 0 0 -1 2207.347 212.036)"/><rect x="1048.694" y="96.832" width="36.649" height="18.372" rx="3.477" transform="matrix(-1 0 0 -1 2134.037 212.036)"/><rect x="1012.045" y="96.832" width="36.649" height="18.372" rx="3.477" transform="matrix(-1 0 0 -1 2060.739 212.036)"/><rect x="975.358" y="96.832" width="36.649" height="18.372" rx="3.477" transform="matrix(-1 0 0 -1 1987.365 212.036)"/><rect x="938.709" y="96.832" width="36.649" height="18.372" rx="3.477" transform="matrix(-1 0 0 -1 1914.067 212.036)"/><rect x="902.103" y="96.832" width="36.649" height="18.372" rx="3.477" transform="matrix(-1 0 0 -1 1840.856 212.036)"/><rect x="865.454" y="96.832" width="36.649" height="18.372" rx="3.477" transform="matrix(-1 0 0 -1 1767.558 212.036)"/><rect x="1177.034" y="78.46" width="36.649" height="18.372" rx="3.477" transform="matrix(-1 0 0 -1 2390.716 175.291)"/><rect x="1140.385" y="78.46" width="36.649" height="18.372" rx="3.477" transform="matrix(-1 0 0 -1 2317.418 175.291)"/><rect x="1103.698" y="78.46" width="36.649" height="18.372" rx="3.477" transform="matrix(-1 0 0 -1 2244.045 175.291)"/><rect x="1067.049" y="78.46" width="36.649" height="18.372" rx="3.477" transform="matrix(-1 0 0 -1 2170.747 175.291)"/><rect x="1030.394" y="78.46" width="36.649" height="18.372" rx="3.477" transform="matrix(-1 0 0 -1 2097.437 175.291)"/><rect x="993.745" y="78.46" width="36.649" height="18.372" rx="3.477" transform="matrix(-1 0 0 -1 2024.139 175.291)"/><rect x="957.058" y="78.46" width="36.649" height="18.372" rx="3.477" transform="matrix(-1 0 0 -1 1950.765 175.291)"/><rect x="920.409" y="78.46" width="36.649" height="18.372" rx="3.477" transform="matrix(-1 0 0 -1 1877.467 175.291)"/><rect x="883.803" y="78.46" width="36.649" height="18.372" rx="3.477" transform="matrix(-1 0 0 -1 1804.256 175.291)"/><rect x="847.154" y="78.46" width="36.649" height="18.372" rx="3.477" transform="matrix(-1 0 0 -1 1730.958 175.291)"/><rect x="1195.334" y="60.087" width="36.649" height="18.372" rx="3.477" transform="matrix(-1 0 0 -1 2427.316 138.547)"/><rect x="1158.684" y="60.087" width="36.649" height="18.372" rx="3.477" transform="matrix(-1 0 0 -1 2354.018 138.547)"/><rect x="828.805" y="60.087" width="36.649" height="18.372" rx="3.477" transform="matrix(-1 0 0 -1 1694.259 138.547)"/><rect x="1121.998" y="60.087" width="36.649" height="18.372" rx="3.477" transform="matrix(-1 0 0 -1 2280.645 138.547)"/><rect x="1085.349" y="60.087" width="36.649" height="18.372" rx="3.477" transform="matrix(-1 0 0 -1 2207.347 138.547)"/><rect x="1048.694" y="60.087" width="36.649" height="18.372" rx="3.477" transform="matrix(-1 0 0 -1 2134.037 138.547)"/><rect x="1012.045" y="60.087" width="36.649" height="18.372" rx="3.477" transform="matrix(-1 0 0 -1 2060.739 138.547)"/><rect x="975.358" y="60.087" width="36.649" height="18.372" rx="3.477" transform="matrix(-1 0 0 -1 1987.365 138.547)"/><rect x="938.709" y="60.087" width="36.649" height="18.372" rx="3.477" transform="matrix(-1 0 0 -1 1914.067 138.547)"/><rect x="902.103" y="60.087" width="36.649" height="18.372" rx="3.477" transform="matrix(-1 0 0 -1 1840.856 138.547)"/><rect x="865.454" y="60.087" width="36.649" height="18.372" rx="3.477" transform="matrix(-1 0 0 -1 1767.558 138.547)"/><rect x="1177.034" y="41.715" width="36.649" height="18.372" rx="3.477" transform="matrix(-1 0 0 -1 2390.716 101.803)"/><rect x="1140.385" y="41.715" width="36.649" height="18.372" rx="3.477" transform="matrix(-1 0 0 -1 2317.418 101.803)"/><rect x="1103.698" y="41.715" width="36.649" height="18.372" rx="3.477" transform="matrix(-1 0 0 -1 2244.045 101.803)"/><rect x="1067.049" y="41.715" width="36.649" height="18.372" rx="3.477" transform="matrix(-1 0 0 -1 2170.747 101.803)"/><rect x="1030.394" y="41.715" width="36.649" height="18.372" rx="3.477" transform="matrix(-1 0 0 -1 2097.437 101.803)"/><rect x="993.745" y="41.715" width="36.649" height="18.372" rx="3.477" transform="matrix(-1 0 0 -1 2024.139 101.803)"/><rect x="957.058" y="41.715" width="36.649" height="18.372" rx="3.477" transform="matrix(-1 0 0 -1 1950.765 101.803)"/><rect x="920.409" y="41.715" width="36.649" height="18.372" rx="3.477" transform="matrix(-1 0 0 -1 1877.467 101.803)"/><rect x="883.803" y="41.715" width="36.649" height="18.372" rx="3.477" transform="matrix(-1 0 0 -1 1804.256 101.803)"/><rect x="847.154" y="41.715" width="36.649" height="18.372" rx="3.477" transform="matrix(-1 0 0 -1 1730.958 101.803)"/><rect x="1195.334" y="23.343" width="36.649" height="18.372" rx="3.477" transform="matrix(-1 0 0 -1 2427.316 65.058)"/><rect x="1158.684" y="23.343" width="36.649" height="18.372" rx="3.477" transform="matrix(-1 0 0 -1 2354.018 65.058)"/><rect x="828.805" y="23.343" width="36.649" height="18.372" rx="3.477" transform="matrix(-1 0 0 -1 1694.259 65.058)"/><rect x="1121.998" y="23.343" width="36.649" height="18.372" rx="3.477" transform="matrix(-1 0 0 -1 2280.645 65.058)"/><rect x="1085.349" y="23.343" width="36.649" height="18.372" rx="3.477" transform="matrix(-1 0 0 -1 2207.347 65.058)"/><rect x="1048.694" y="23.343" width="36.649" height="18.372" rx="3.477" transform="matrix(-1 0 0 -1 2134.037 65.058)"/><rect x="1012.045" y="23.343" width="36.649" height="18.372" rx="3.477" transform="matrix(-1 0 0 -1 2060.739 65.058)"/><rect x="975.358" y="23.343" width="36.649" height="18.372" rx="3.477" transform="matrix(-1 0 0 -1 1987.365 65.058)"/><rect x="938.709" y="23.343" width="36.649" height="18.372" rx="3.477" transform="matrix(-1 0 0 -1 1914.067 65.058)"/><rect x="902.103" y="23.343" width="36.649" height="18.372" rx="3.477" transform="matrix(-1 0 0 -1 1840.856 65.058)"/><rect x="865.454" y="23.343" width="36.649" height="18.372" rx="3.477" transform="matrix(-1 0 0 -1 1767.558 65.058)"/><rect x="810.442" y="5.002" width="36.649" height="18.372" rx="3.477" transform="matrix(-1 0 0 -1 1657.534 28.375)"/><rect x="773.793" y="5.002" width="36.649" height="18.372" rx="3.477" transform="matrix(-1 0 0 -1 1584.236 28.375)"/><rect x="737.107" y="5.002" width="36.649" height="18.372" rx="3.477" transform="matrix(-1 0 0 -1 1510.862 28.375)"/><rect x="700.458" y="5.002" width="36.649" height="18.372" rx="3.477" transform="matrix(-1 0 0 -1 1437.564 28.375)"/><rect x="663.803" y="5.002" width="36.649" height="18.372" rx="3.477" transform="matrix(-1 0 0 -1 1364.255 28.375)"/><rect x="627.154" y="5.002" width="36.649" height="18.372" rx="3.477" transform="matrix(-1 0 0 -1 1290.956 28.375)"/><rect x="590.467" y="5.002" width="36.649" height="18.372" rx="3.477" transform="matrix(-1 0 0 -1 1217.583 28.375)"/><rect x="553.818" y="5.002" width="36.649" height="18.372" rx="3.477" transform="matrix(-1 0 0 -1 1144.285 28.375)"/><rect x="517.212" y="5.002" width="36.649" height="18.372" rx="3.477" transform="matrix(-1 0 0 -1 1071.073 28.375)"/><rect x="480.563" y="5.002" width="36.649" height="18.372" rx="3.477" transform="matrix(-1 0 0 -1 997.775 28.375)"/><rect x="828.742" y="-13.371" width="36.649" height="18.372" rx="3.477" transform="matrix(-1 0 0 -1 1694.134 -8.369)"/><rect x="792.093" y="-13.371" width="36.649" height="18.372" rx="3.477" transform="matrix(-1 0 0 -1 1620.836 -8.369)"/><rect x="462.214" y="-13.371" width="36.649" height="18.372" rx="3.477" transform="matrix(-1 0 0 -1 961.077 -8.369)"/><rect x="755.407" y="-13.371" width="36.649" height="18.372" rx="3.477" transform="matrix(-1 0 0 -1 1547.462 -8.369)"/><rect x="718.758" y="-13.371" width="36.649" height="18.372" rx="3.477" transform="matrix(-1 0 0 -1 1474.164 -8.369)"/><rect x="682.103" y="-13.371" width="36.649" height="18.372" rx="3.477" transform="matrix(-1 0 0 -1 1400.854 -8.369)"/><rect x="645.454" y="-13.371" width="36.649" height="18.372" rx="3.477" transform="matrix(-1 0 0 -1 1327.556 -8.369)"/><rect x="608.767" y="-13.371" width="36.649" height="18.372" rx="3.477" transform="matrix(-1 0 0 -1 1254.183 -8.369)"/><rect x="572.118" y="-13.371" width="36.649" height="18.372" rx="3.477" transform="matrix(-1 0 0 -1 1180.885 -8.369)"/><rect x="535.512" y="-13.371" width="36.649" height="18.372" rx="3.477" transform="matrix(-1 0 0 -1 1107.673 -8.369)"/><rect x="498.863" y="-13.371" width="36.649" height="18.372" rx="3.477" transform="matrix(-1 0 0 -1 1034.375 -8.369)"/><rect x="1177.034" y="5.002" width="36.649" height="18.372" rx="3.477" transform="matrix(-1 0 0 -1 2390.716 28.375)"/><rect x="1140.385" y="5.002" width="36.649" height="18.372" rx="3.477" transform="matrix(-1 0 0 -1 2317.418 28.375)"/><rect x="1103.698" y="5.002" width="36.649" height="18.372" rx="3.477" transform="matrix(-1 0 0 -1 2244.045 28.375)"/><rect x="1067.049" y="5.002" width="36.649" height="18.372" rx="3.477" transform="matrix(-1 0 0 -1 2170.747 28.375)"/><rect x="1030.394" y="5.002" width="36.649" height="18.372" rx="3.477" transform="matrix(-1 0 0 -1 2097.437 28.375)"/><rect x="993.745" y="5.002" width="36.649" height="18.372" rx="3.477" transform="matrix(-1 0 0 -1 2024.139 28.375)"/><rect x="957.058" y="5.002" width="36.649" height="18.372" rx="3.477" transform="matrix(-1 0 0 -1 1950.765 28.375)"/><rect x="920.409" y="5.002" width="36.649" height="18.372" rx="3.477" transform="matrix(-1 0 0 -1 1877.467 28.375)"/><rect x="883.803" y="5.002" width="36.649" height="18.372" rx="3.477" transform="matrix(-1 0 0 -1 1804.256 28.375)"/><rect x="847.154" y="5.002" width="36.649" height="18.372" rx="3.477" transform="matrix(-1 0 0 -1 1730.958 28.375)"/><rect x="1195.334" y="-13.371" width="36.649" height="18.372" rx="3.477" transform="matrix(-1 0 0 -1 2427.316 -8.369)"/><rect x="1158.684" y="-13.371" width="36.649" height="18.372" rx="3.477" transform="matrix(-1 0 0 -1 2354.018 -8.369)"/><rect x="828.805" y="-13.371" width="36.649" height="18.372" rx="3.477" transform="matrix(-1 0 0 -1 1694.259 -8.369)"/><rect x="1121.998" y="-13.371" width="36.649" height="18.372" rx="3.477" transform="matrix(-1 0 0 -1 2280.645 -8.369)"/><rect x="1085.349" y="-13.371" width="36.649" height="18.372" rx="3.477" transform="matrix(-1 0 0 -1 2207.347 -8.369)"/><rect x="1048.694" y="-13.371" width="36.649" height="18.372" rx="3.477" transform="matrix(-1 0 0 -1 2134.037 -8.369)"/><rect x="1012.045" y="-13.371" width="36.649" height="18.372" rx="3.477" transform="matrix(-1 0 0 -1 2060.739 -8.369)"/><rect x="975.358" y="-13.371" width="36.649" height="18.372" rx="3.477" transform="matrix(-1 0 0 -1 1987.365 -8.369)"/><rect x="938.709" y="-13.371" width="36.649" height="18.372" rx="3.477" transform="matrix(-1 0 0 -1 1914.067 -8.369)"/><rect x="902.103" y="-13.371" width="36.649" height="18.372" rx="3.477" transform="matrix(-1 0 0 -1 1840.856 -8.369)"/><rect x="865.454" y="-13.371" width="36.649" height="18.372" rx="3.477" transform="matrix(-1 0 0 -1 1767.558 -8.369)"/><rect x="1195.358" y="-13.371" width="36.649" height="18.372" rx="3.477" transform="matrix(-1 0 0 -1 2427.365 -8.369)"/></g></g></g></g><g opacity=".55" fill="#d59660"><circle cx="1173.299" cy="29.319" r="2.597"/><circle cx="1163.57" cy="32.392" r="2.597"/><circle cx="1168.792" cy="38.804" r="2.597"/><circle cx="1145.541" cy="43.628" r="2.597"/><circle cx="1145.371" cy="26.096" r="2.597"/></g><g class="D"><path d="M1020.868 6.057c0-3.071 2.49-5.562 5.562-5.562h4.86v6.652h-1.329a2.44 2.44 0 0 0-2.44 2.44v7.538h-6.652V6.057z" fill="#a18356"/><path d="M1017.542 18.588c0-.387.155-.759.43-1.034a1.46 1.46 0 0 1 1.034-.428h8.514v7.86c0 2.189-1.775 3.965-3.965 3.965h-6.013V18.588z" fill="#635049"/><path d="M1117.488-42.741h-16.798v-3.326c0-1.837-1.489-3.325-3.324-3.325h-.003c-1.836 0-3.324 1.487-3.324 3.325V-11.9a3.9 3.9 0 0 1-3.896 3.896h-.002a3.82 3.82 0 0 1-3.76-3.15l-1.815-10.21c-.577-3.239-3.392-5.596-6.68-5.596h-.373c-3.317 0-6.146 2.397-6.691 5.668l-1.597 9.578c-.48 2.88-2.972 4.99-5.89 4.99h-.002a5.97 5.97 0 0 1-5.89-4.99l-1.597-9.578c-.545-3.271-3.376-5.668-6.693-5.668h-.394c-3.279 0-6.09 2.344-6.676 5.57l-1.834 10.088a5.2 5.2 0 0 1-3.273 3.935 2.16 2.16 0 0 1-.103.039 9.35 9.35 0 0 0-6.026 8.737v12.815a6.2 6.2 0 0 0 1.814 4.38c1.162 1.163 2.739 1.814 4.382 1.814h7.107v36.617h13.305v-2.231a4.41 4.41 0 0 0-1.297-3.123 4.4 4.4 0 0 0-3.124-1.29l-2.231.003V37.08h.001c.881 0 1.726-.351 2.35-.975a3.32 3.32 0 0 0 .975-2.35v-.003a3.32 3.32 0 0 0-.975-2.351c-.623-.623-1.469-.973-2.35-.973h-.001v-10.01h26.607v36.617h13.303v-2.231c0-1.172-.466-2.295-1.295-3.123s-1.954-1.294-3.126-1.29l-2.231.003V37.08h.002a3.32 3.32 0 0 0 2.351-.975c.623-.623.973-1.469.973-2.35v-.003c0-.881-.35-1.728-.973-2.351s-1.469-.973-2.351-.973h-.002V20.421l13.425.018a9.84 9.84 0 0 0 6.969-2.88 9.85 9.85 0 0 0 2.887-6.966v-36.704h3.976c1.426 0 2.583-1.158 2.583-2.584v-4.068l3.631-.048a3.16 3.16 0 0 0 3.115-3.157v-3.615a3.16 3.16 0 0 0-3.157-3.157z" class="S"/><path d="M999.758 32.108c0-3.071-2.49-5.562-5.562-5.562h-4.86v6.652h1.329a2.44 2.44 0 0 1 2.44 2.44v7.538h6.652V32.107z" fill="#a18356"/><path d="M1003.084 44.639c0-.387-.155-.759-.43-1.034a1.46 1.46 0 0 0-1.034-.428h-8.514v7.86c0 2.189 1.775 3.965 3.965 3.965h6.013V44.639z" fill="#635049"/><path d="M923.142 46.491a9.84 9.84 0 0 1-6.969-2.88 9.85 9.85 0 0 1-2.887-6.966V-.059h-3.976c-1.426 0-2.583-1.158-2.583-2.584v-4.068l-3.631-.048a3.16 3.16 0 0 1-3.115-3.157v-3.615a3.16 3.16 0 0 1 3.157-3.157h16.798v-3.326c0-1.837 1.489-3.325 3.324-3.325h.003c1.836 0 3.324 1.487 3.324 3.325v34.167a3.9 3.9 0 0 0 3.896 3.896h.002a3.82 3.82 0 0 0 3.76-3.15l1.815-10.21c.577-3.239 3.392-5.596 6.68-5.596h.373c3.317 0 6.146 2.397 6.691 5.668l1.597 9.578c.48 2.88 2.972 4.99 5.89 4.99h.002a5.97 5.97 0 0 0 5.89-4.99l1.597-9.578c.545-3.271 3.376-5.668 6.693-5.668h.394c3.279 0 6.09 2.344 6.676 5.57l1.834 10.088a5.2 5.2 0 0 0 3.273 3.935 2.16 2.16 0 0 0 .103.039 9.35 9.35 0 0 1 6.026 8.737v12.815a6.2 6.2 0 0 1-1.814 4.38c-1.162 1.163-2.739 1.814-4.382 1.814l-60.442.02z" class="S"/><path d="M1259.133,43.1c0-1.268-1.026-2.298-2.298-2.298h-13.787c-1.271,0-2.298,1.029-2.298,2.298s1.026,2.298,2.298,2.298h13.787c1.272,0,2.298-1.028,2.298-2.298h0Z" fill="#dca646"/><g fill="#a9c05a"><path d="M1250.049 27.018l.092.006.108.013.107.016.092.02.107.026.092.03.107.033.092.039.092.042.092.048.092.05.076.056.092.058.077.063.092.066.061.068.076.074.077.077.061.078.062.082.061.085.061.087.046.09.046.092.046.094.031.095.03.098.031.098.031.101.015.101.015.101.016.103.015.102v.103 11.605.105l-.015.102-.016.103-.015.101-.015.101-.031.1-.031.099-.03.097-.031.096-.046.094-.046.092-.046.09-.061.087-.061.085-.062.082-.061.078-.077.077-.076.072-.061.07-.092.066-.077.063-.092.058-.076.055-.092.051-.092.047-.092.043-.092.039-.107.033-.092.029-.107.027-.092.019-.107.017-.108.011-.092.008-.107.001-.107-.001-.107-.008-.092-.011-.107-.017-.108-.019-.092-.027-.107-.029-.092-.033-.092-.039-.092-.043-.092-.047-.091-.051-.092-.055-.077-.058-.092-.063-.076-.066-.077-.07-.077-.072-.061-.077-.061-.078-.077-.082-.046-.085-.061-.087-.046-.09-.046-.092-.046-.094-.046-.096-.03-.097-.031-.099-.015-.1-.031-.101-.015-.101-.016-.103v-.102-.105-11.605-.103-.102l.016-.103.015-.101.031-.101.015-.101.031-.098.03-.098.046-.095.046-.094.046-.092.046-.09.061-.087.046-.085.077-.082.061-.078.061-.077.077-.074.077-.068.076-.066.092-.063.077-.058.092-.056.091-.05.092-.048.092-.042.092-.039.092-.033.107-.03.092-.026.108-.02.107-.016.092-.013.107-.006.107-.003.107.003z"/><path d="M1243.033 31.615l.077.005.077.009.091.011.077.014.077.017.076.019.077.022.076.024.077.028.077.031.061.032.077.035.076.038.061.04.077.041.061.046.062.048.061.049.061.05.061.054.062.057 7.016 7.01.045.056.062.06.046.061.046.065.061.064.031.066.046.069.046.069.03.07.046.072.031.074.03.075.016.075.03.076.031.077.015.078.016.078.015.08.015.078v.081.08l.016.08v.079l-.016.081v.08.08l-.015.079-.015.08-.016.078-.015.078-.031.077-.03.076-.016.076-.03.073-.031.074-.046.072-.03.072-.046.069-.046.067-.031.067-.061.065-.046.062-.046.062-.062.059-.045.059-.062.055-.061.053-.061.053-.062.049-.061.047-.076.044-.062.043-.076.04-.062.039-.076.035-.077.032-.076.031-.077.027-.061.025-.092.021-.077.02-.076.017-.077.014-.076.01-.077.01-.077.004-.092.003h-.076l-.077-.003-.076-.004-.092-.01-.077-.01-.076-.014-.077-.017-.077-.02-.076-.021-.077-.025-.076-.027-.077-.031-.077-.032-.061-.035-.076-.039-.077-.04-.061-.043-.062-.044-.076-.047-.061-.049-.062-.053-.061-.053-.046-.055-7.016-7.01-.061-.058-.046-.059-.046-.062-.061-.063-.046-.064-.046-.068-.046-.067-.031-.069-.046-.072-.03-.072-.031-.072-.031-.075-.03-.075-.016-.077-.03-.077-.016-.078-.015-.078-.015-.079-.016-.08v-.08l-.015-.079v-.08-.081-.08l.015-.08v-.079l.016-.08.015-.08.015-.078.016-.078.03-.076.016-.077.03-.075.031-.075.031-.072.03-.074.046-.07.031-.069.046-.067.046-.068.046-.064.061-.065.046-.061.046-.06.061-.056.061-.057.062-.054.061-.05.061-.049.061-.048.062-.046.076-.041.062-.04.076-.038.077-.035.061-.032.077-.031.076-.028.077-.024.076-.022.077-.019.077-.017.092-.014.076-.011.077-.009.076-.005.077-.003h.092l.076.003z"/><path d="M1257.081 31.615l.092.005.076.009.077.011.076.014.077.017.077.019.076.022.077.024.076.028.077.031.077.032.076.035.061.038.077.04.061.041.077.046.061.048.061.049.062.05.061.054.061.057.046.056.061.06.046.061.046.065.046.064.046.068.046.067.046.069.031.07.046.074.03.072.031.075.015.075.031.077.015.076.031.078.015.078.016.08v.08l.015.079v.08l.015.08v.081l-.015.08v.079l-.015.08v.08l-.016.079-.015.078-.031.078-.015.077-.031.077-.015.075-.031.075-.03.072-.046.072-.031.072-.046.069-.046.067-.046.068-.046.064-.046.063-.046.062-.061.059-.046.058-7.016 7.01-.061.055-.061.053-.062.053-.061.049-.061.047-.061.044-.077.043-.061.04-.077.039-.077.035-.061.032-.076.031-.077.027-.076.025-.077.021-.077.02-.076.017-.092.014-.077.01-.076.01-.077.004-.077.003h-.092l-.076-.003-.077-.004-.076-.01-.077-.01-.092-.014-.076-.017-.077-.02-.077-.021-.076-.025-.077-.027-.076-.031-.062-.032-.076-.035-.077-.039-.061-.04-.077-.043-.061-.044-.061-.047-.061-.049-.062-.053-.061-.053-.061-.055-.062-.059-.046-.059-.061-.062-.046-.062-.046-.065-.046-.067-.046-.067-.03-.069-.046-.072-.031-.072-.03-.074-.031-.073-.031-.076-.015-.076-.031-.077-.015-.078-.015-.078-.016-.08-.015-.079v-.08l-.015-.08v-.081-.079-.08l.015-.08v-.081l.015-.078.016-.08.015-.078.015-.078.031-.077.015-.076.031-.075.031-.075.03-.074.031-.072.046-.07.03-.069.046-.069.046-.066.046-.064.046-.065.061-.061.046-.06.062-.056 7-7.01.062-.057.061-.054.061-.05.061-.049.077-.048.061-.046.062-.041.076-.04.061-.038.077-.035.077-.032.076-.031.077-.028.076-.024.077-.022.076-.019.077-.017.077-.014.076-.011.077-.009.092-.005.076-.003h.077l.077.003z"/></g></g><g clip-path="url(#C)"><g opacity=".5"><use href="#Z" fill="#4eb5bf"/></g><g opacity=".5"><use href="#Z" fill="#4eb5bf"/></g><g opacity=".15" class="C"><path d="M1118.385 6.082v187.716a6.23 6.23 0 0 1-6.209 6.209h-20.785s3.364 0 3.364-3.912V3.267c0-3.912-3.364-3.912-3.364-3.912h20.267a6.75 6.75 0 0 1 6.727 6.727z"/></g><g opacity=".2"><path d="M1071.362 193.798V6.082a6.75 6.75 0 0 1 6.727-6.727h0s-3.364 0-3.364 3.912v192.828c0 3.912 3.364 3.912 3.364 3.912h-.518a6.23 6.23 0 0 1-6.209-6.209z" fill="#233f6e"/></g><g style="mix-blend-mode:overlay" opacity=".25" class="C"><path d="M1118.385 6.082v190.013c0 2.152-1.76 3.912-3.912 3.912h-2.815s3.364 0 3.364-3.912V3.267c0-3.912-3.364-3.912-3.364-3.912h0a6.75 6.75 0 0 1 6.727 6.727z"/></g><g clip-path="url(#D)" class="M"><g style="mix-blend-mode:multiply"><use href="#a"/></g></g><g clip-path="url(#E)" class="M"><g style="mix-blend-mode:multiply"><path d="M1071.362 87.919h47.024a1.49 1.49 0 1 0 0-2.98h-47.024a1.49 1.49 0 1 0 0 2.98z"/></g></g><g clip-path="url(#F)" class="M"><g style="mix-blend-mode:multiply"><path d="M1071.362 127.455h47.024a1.49 1.49 0 1 0 0-2.98h-47.024a1.49 1.49 0 1 0 0 2.98z"/></g></g><g class="C"><path d="M1071.362 49.591h47.023c2.442 0 4.43-1.986 4.43-4.428a4.44 4.44 0 0 0-4.43-4.431h-47.023a4.44 4.44 0 0 0-4.43 4.431c0 2.442 1.987 4.428 4.43 4.428zm47.023 30.677h-47.023c-2.442 0-4.43 1.986-4.43 4.428a4.44 4.44 0 0 0 4.43 4.431h47.023a4.44 4.44 0 0 0 4.43-4.431c0-2.442-1.987-4.428-4.43-4.428z"/></g><path d="M1118.385 119.805h-47.023a4.44 4.44 0 0 0-4.43 4.431c0 2.442 1.987 4.428 4.43 4.428h47.023c2.442 0 4.43-1.986 4.43-4.428a4.44 4.44 0 0 0-4.43-4.431z" class="M"/><path d="M1112.021 98.714h33.995a20.57 20.57 0 0 1 18.128 10.85l22.302 38.342h-74.425c-14.783 0-26.881-7.592-26.926-22.347.046-14.772 12.144-26.845 26.926-26.845z" class="C"/></g><path d="M1112.021 157.48h79.994l2.921 5.021h-82.914c-14.811 0-26.928-7.62-26.928-22.43v-5.021c0 14.811 12.118 22.43 26.928 22.43z" class="T"/><path d="M1186.445 147.906l-22.302-38.342a20.57 20.57 0 0 0-18.128-10.85h-33.995c-14.783 0-26.881 12.072-26.926 26.845 0 .028-.002.056-.002.083v9.408c0 14.811 12.118 22.43 26.929 22.43h79.994l-5.569-9.574z" class="C"/><g clip-path="url(#G)"><path d="M1158.867 105.507l-32.447.17v-4.486h21.421c4.068 0 7.992 1.522 10.985 4.278l.041.038z" fill="#b1bedf"/><path d="M1113.193 146.937l.524-32.503a21.36 21.36 0 0 1 18.423-10.553h27.091 59.365 16.053a16.73 16.73 0 0 1 14.749 8.835h0c.825 1.542 2.432 2.506 4.181 2.507l9.835.009a14.39 14.39 0 0 1 12.675 7.599l7.056 13.138a3.74 3.74 0 0 0 3.331 1.981c1.37-.012 2.623.772 3.267 1.981l2.536 4.761c.609 1.144 1.799 1.858 3.095 1.858h3.13a3.51 3.51 0 0 1 2.813 1.413l1.074 1.682a.93.93 0 0 1-.778 1.439h-10.454l2.36 11.487h-29.954-137.058-3.814c-8.028 0-13.199-8.51-9.5-15.635z" fill="#f6c880"/><path d="M1292.594 148.368a1.98 1.98 0 0 0-1.75-1.053c-.733 0-1.406-.405-1.75-1.052l-.667-1.204a1.98 1.98 0 0 0-1.749-1.052h-.884c-1.565 0-3.002-.863-3.737-2.244l-9.158-17.118a9.64 9.64 0 0 0-8.502-5.1h0c-5.105 0-8.376 5.431-5.989 9.943l12.535 23.741h21.79 2.383l-2.522-4.861z" fill="#2b3357"/><g opacity=".5" fill="#e8963c"><use href="#b"/><path d="M1241.951 125.64h-3.569a1.9 1.9 0 0 1-1.898-1.898 1.9 1.9 0 0 1 1.898-1.898h3.569a1.9 1.9 0 0 1 1.898 1.898 1.9 1.9 0 0 1-1.898 1.898zm-94.394-10.513h-3.569a1.9 1.9 0 0 1-1.898-1.898 1.9 1.9 0 0 1 1.898-1.898h3.569a1.9 1.9 0 0 1 1.898 1.898 1.9 1.9 0 0 1-1.898 1.898z"/><path d="M1155.129 118.093h-6.312a1.9 1.9 0 0 1-1.898-1.898 1.9 1.9 0 0 1 1.898-1.898h6.312a1.9 1.9 0 0 1 1.898 1.898 1.9 1.9 0 0 1-1.898 1.898z"/><use href="#c"/><path d="M1248.594 131.443h-.85a1.9 1.9 0 0 1-1.898-1.898 1.9 1.9 0 0 1 1.898-1.898h.85a1.9 1.9 0 0 1 1.898 1.898 1.9 1.9 0 0 1-1.898 1.898zm-61.686-9.6h-3.569a1.9 1.9 0 0 1-1.898-1.898 1.9 1.9 0 0 1 1.898-1.898h3.569a1.9 1.9 0 0 1 1.898 1.898 1.9 1.9 0 0 1-1.898 1.898zm-8.229-4.771h-6.258a1.9 1.9 0 0 1-1.898-1.898 1.9 1.9 0 0 1 1.898-1.898h6.258a1.9 1.9 0 0 1 1.898 1.898 1.9 1.9 0 0 1-1.898 1.898z"/></g><g clip-path="url(#H)"><g fill="#f3ac54"><path d="M1311.964 177.821H1054.52l21.051-40.996h19.632c2.799 0 5.469-1.177 7.358-3.244l3.219-3.524c2.203-3.047 5.73-4.862 9.46-4.862h34.251c3.727 0 7.252 1.812 9.455 4.855l3.573 3.847c1.833 1.973 4.435 3.107 7.136 3.107h142.309a1.9 1.9 0 0 1 1.898 1.898v37.019a1.9 1.9 0 0 1-1.898 1.898z"/><path d="M1224.779 140.087h-33.793a3.32 3.32 0 0 1-3.322-3.322v-4.821a9.03 9.03 0 0 1 9.017-9.017h22.402a9.03 9.03 0 0 1 9.017 9.017v4.821a3.32 3.32 0 0 1-3.322 3.322zm-30.47-6.645h27.148v-1.499c0-1.308-1.065-2.373-2.373-2.373h-22.402c-1.308 0-2.373 1.065-2.373 2.373v1.499z"/></g><g clip-path="url(#I)"><path d="M1189.197 125.392h36.11v29.141h-36.11z" fill="#233f6e"/><g clip-path="url(#J)" class="B L R"><path d="M1200.383 165.072v-64.604" stroke="#1b284b" stroke-width="5.987"/></g></g></g></g><g fill="#f8d5c7"><path d="M1117.801 127.199h-.525c-.29 0-.525-.235-.525-.525v-.525c0-.29.235-.525.525-.525s.525.235.525.525c.29 0 .525.235.525.525s-.235.525-.525.525zm-.525-3.066c-.29 0-.525-.235-.525-.525v-1.016c0-.29.235-.525.525-.525s.525.235.525.525v1.016c0 .29-.235.525-.525.525zm-12.539-.016c-.29 0-.525-.235-.525-.525v-1.016c0-.29.235-.525.525-.525s.525.235.525.525v1.016c0 .29-.235.525-.525.525zm12.539-3.541c-.29 0-.525-.235-.525-.525v-1.016c0-.29.235-.525.525-.525s.525.235.525.525v1.016c0 .29-.235.525-.525.525zm-12.539-.016c-.29 0-.525-.235-.525-.525v-1.016c0-.29.235-.525.525-.525s.525.235.525.525v1.016c0 .29-.235.525-.525.525zm12.529-3.541c-.27 0-.5-.207-.523-.481a2.25 2.25 0 0 0-.216-.792c-.125-.262-.015-.575.247-.7s.575-.015.7.246c.175.366.282.756.315 1.159.024.289-.19.542-.479.567-.015.002-.03.002-.044.002zm-12.517-.016c-.015 0-.031 0-.047-.002-.289-.026-.502-.28-.477-.57.036-.404.144-.793.322-1.157.127-.26.442-.369.702-.241s.369.442.241.702a2.26 2.26 0 0 0-.22.789c-.024.273-.253.478-.523.478zm10.327-2.481a.54.54 0 0 1-.112-.012c-.158-.034-.322-.052-.484-.052h-.416c-.29 0-.525-.235-.525-.525s.235-.525.525-.525h.416a3.43 3.43 0 0 1 .707.075c.283.062.463.341.402.625-.053.246-.271.414-.513.414zm-8.123-.003c-.243 0-.461-.17-.513-.417-.06-.284.122-.562.405-.622.226-.048.457-.072.688-.072h.432c.29 0 .525.235.525.525s-.235.525-.525.525h-.432c-.158 0-.317.016-.471.049a.51.51 0 0 1-.109.011zm4.57-.061h-1.016c-.29 0-.525-.235-.525-.525s.235-.525.525-.525h1.016c.29 0 .525.235.525.525s-.235.525-.525.525zm-6.786 12.741h-.525c-.29 0-.525-.235-.525-.525s.235-.525.525-.525c0-.29.235-.525.525-.525s.525.235.525.525v.525c0 .29-.235.525-.525.525zm6.26 16.975c-.203 0-.408-.019-.609-.056-.285-.054-.473-.328-.419-.613s.328-.472.613-.419c.139.026.29.041.423.038.142 0 .282-.012.417-.037.286-.056.559.137.611.423s-.137.558-.423.61c-.2.036-.387.042-.613.054zm2.553-1.525a.52.52 0 0 1-.316-.106c-.231-.175-.277-.505-.102-.736l.625-.827c.174-.231.504-.277.736-.102s.277.505.102.736l-.625.827c-.103.136-.26.208-.419.208zm-5.095-.009c-.159 0-.316-.072-.419-.208l-.626-.827c-.175-.231-.129-.56.102-.736s.56-.129.736.102l.626.827c.175.231.129.56-.102.736-.095.071-.206.106-.316.106zm7.284-2.884a.52.52 0 0 1-.316-.107c-.231-.175-.277-.504-.102-.735l.626-.826c.175-.231.504-.277.736-.102s.277.504.102.735l-.626.826c-.103.136-.26.208-.419.208zm-9.473-.009c-.159 0-.316-.072-.419-.208l-.626-.827c-.175-.231-.129-.56.102-.736s.56-.129.736.102l.626.827c.175.231.129.56-.102.736-.095.071-.206.106-.316.106zm11.663-2.883a.52.52 0 0 1-.316-.106c-.231-.175-.277-.505-.102-.736l.625-.827c.174-.231.504-.278.736-.102s.277.505.102.736l-.625.827c-.103.136-.26.208-.419.208zm-13.852-.01c-.159 0-.316-.072-.419-.208l-.626-.827c-.175-.231-.129-.56.102-.736s.56-.129.736.102l.626.827c.175.231.129.56-.102.736-.095.071-.206.106-.316.106zm16.041-2.883c-.11 0-.222-.035-.316-.106-.231-.175-.277-.505-.102-.736l.626-.827c.175-.231.504-.277.736-.102s.277.505.102.736l-.626.827c-.103.136-.26.208-.419.208zm-18.231-.01c-.159 0-.316-.072-.419-.208l-.626-.827c-.175-.231-.129-.56.102-.736s.56-.129.736.102l.626.827c.175.231.129.56-.102.736-.095.071-.206.106-.316.106zm20.335-2.937a.53.53 0 0 1-.194-.037c-.269-.107-.4-.413-.293-.682a2.24 2.24 0 0 0 .16-.82c.002-.289.236-.523.525-.523h.003c.29.002.524.238.522.528a3.26 3.26 0 0 1-.235 1.203c-.082.206-.279.331-.488.331zm-22.436-.011c-.209 0-.407-.126-.489-.332a3.27 3.27 0 0 1-.229-1.204c0-.29.235-.526.525-.526h0c.29 0 .525.235.525.525 0 .282.053.558.156.82.106.27-.026.575-.296.681a.52.52 0 0 1-.192.036zm21.529-3.245a.52.52 0 0 1-.318-.108 2.23 2.23 0 0 0-.746-.374c-.279-.079-.44-.37-.361-.649a.52.52 0 0 1 .649-.361c.398.113.767.298 1.096.549.23.176.275.506.099.736-.103.135-.26.207-.418.207zm-20.608-.007c-.159 0-.316-.072-.419-.208-.175-.231-.129-.56.102-.736.33-.249.699-.432 1.099-.544.279-.078.569.086.647.364s-.085.569-.364.647a2.21 2.21 0 0 0-.748.371c-.095.071-.206.106-.316.106zm5.747-.45v-10.583a1.08 1.08 0 0 1 1.079-1.079h6.947a1.08 1.08 0 0 1 1.079 1.079v10.583a1.08 1.08 0 0 0 1.079 1.079h2.983a1.08 1.08 0 0 1 .861 1.731l-8.615 11.383a1.08 1.08 0 0 1-1.721 0l-8.615-11.383a1.08 1.08 0 0 1 .861-1.731h2.983a1.08 1.08 0 0 0 1.079-1.079z"/></g><path d="M1085.092,140.147v22.375h28.433s-28.433-4.053-28.433-22.375Z" class="T"/><g fill="#f8d680" class="D"><path d="M1041.181 151.125l8.848-8.458a20.4 20.4 0 0 1 28.678.495l7.381 7.559a39.18 39.18 0 0 0 28.026 11.803h.005-69.323m209.134 1.563h.005a41.15 41.15 0 0 0 28.427-11.398l8.848-8.458a20.4 20.4 0 0 1 28.678.495l7.381 7.559a39.18 39.18 0 0 0 28.026 11.803h.005-101.368z"/></g><path d="M1336.05 68.661c0-6.421-5.204-11.625-11.625-11.625h-.007c-6.421 0-11.625 5.204-11.625 11.625v48.23h.708c3.242 0 6.325 1.407 8.45 3.857q0 0 .003.003a17.75 17.75 0 0 0 13.404 6.115h.692V68.66z" fill="#43866f" class="D"/><g fill="#397460"><use href="#d"/><path d="M1322.749 76.988h3.325v6.651h-3.325zm0 13.301h3.325v6.651h-3.325zm0 13.301h3.325v6.651h-3.325z"/></g><g fill="#43866f" class="D"><path d="M1336.06 86.944c-1.829 0-3.315-1.483-3.315-3.315s1.486-3.315 3.315-3.315a3.32 3.32 0 0 1 3.315 3.315 3.32 3.32 0 0 1-3.315 3.315zm0 13.301c-1.829 0-3.315-1.483-3.315-3.315s1.486-3.315 3.315-3.315a3.32 3.32 0 0 1 3.315 3.315 3.32 3.32 0 0 1-3.315 3.315zm0 13.301c-1.829 0-3.315-1.483-3.315-3.315s1.486-3.315 3.315-3.315a3.32 3.32 0 0 1 3.315 3.315 3.32 3.32 0 0 1-3.315 3.315zm0 13.301c-1.829 0-3.315-1.483-3.315-3.315s1.486-3.315 3.315-3.315a3.32 3.32 0 0 1 3.315 3.315 3.32 3.32 0 0 1-3.315 3.315zm0-53.224c-1.829 0-3.315-1.483-3.315-3.315s1.486-3.315 3.315-3.315a3.32 3.32 0 0 1 3.315 3.315 3.32 3.32 0 0 1-3.315 3.315zm-23.297 13.341a3.32 3.32 0 0 1-3.315-3.315 3.32 3.32 0 0 1 3.315-3.315 3.32 3.32 0 0 1 3.315 3.315 3.32 3.32 0 0 1-3.315 3.315zm0 13.301a3.32 3.32 0 0 1-3.315-3.315 3.32 3.32 0 0 1 3.315-3.315 3.32 3.32 0 0 1 3.315 3.315 3.32 3.32 0 0 1-3.315 3.315zm0 13.301a3.32 3.32 0 0 1-3.315-3.315 3.32 3.32 0 0 1 3.315-3.315 3.32 3.32 0 0 1 3.315 3.315 3.32 3.32 0 0 1-3.315 3.315zm0-39.923c-1.829 0-3.315-1.483-3.315-3.315s1.486-3.315 3.315-3.315a3.32 3.32 0 0 1 3.315 3.315 3.32 3.32 0 0 1-3.315 3.315z"/></g><g opacity=".33" fill="#3d9056"><use href="#e"/><use href="#f"/><path d="M666.685 91.6a2.82 2.82 0 0 1-2.818-2.825V82.88a2.82 2.82 0 0 1 2.818-2.825 2.82 2.82 0 0 1 2.818 2.825v5.895a2.82 2.82 0 0 1-2.818 2.825zm42.533 23.343a2.82 2.82 0 0 1-2.818-2.825v-8.844a2.82 2.82 0 0 1 2.818-2.825 2.82 2.82 0 0 1 2.818 2.825v8.844a2.82 2.82 0 0 1-2.818 2.825z"/><use href="#g"/><path d="M698.433 114.943a2.82 2.82 0 0 1-2.818-2.825v-5.898a2.82 2.82 0 0 1 2.818-2.825 2.82 2.82 0 0 1 2.818 2.825v5.898a2.82 2.82 0 0 1-2.818 2.825zm21.692-48.896a2.82 2.82 0 0 1-2.818-2.825v-8.844a2.82 2.82 0 0 1 2.818-2.825 2.82 2.82 0 0 1 2.818 2.825v8.844a2.82 2.82 0 0 1-2.818 2.825zm11.767 0a2.82 2.82 0 0 1-2.818-2.825v-5.898a2.82 2.82 0 0 1 2.818-2.825 2.82 2.82 0 0 1 2.818 2.825v5.898a2.82 2.82 0 0 1-2.818 2.825zm-22.553 0a2.82 2.82 0 0 1-2.818-2.825v-5.898a2.82 2.82 0 0 1 2.818-2.825 2.82 2.82 0 0 1 2.818 2.825v5.898a2.82 2.82 0 0 1-2.818 2.825z"/></g><use href="#h" fill="#fcf3f0"/><use href="#h" class="C"/><g clip-path="url(#K)"><path d="M689.425 14.766l-91.234-84.154c-13.558-12.506-35.511-2.889-35.511 15.555v95.007a13.77 13.77 0 0 0 13.769 13.769h97.276c21.083 0 31.198-25.882 15.7-40.177z" class="C"/><path d="M669.492-9.839V2.714a9.96 9.96 0 0 1-9.959 9.959H558.732v11.673h120.895V-9.839h-10.135z" class="T"/></g><path d="M652.389-5.601l-61.835-57.037c-10.642-9.816-27.874-2.268-27.874 12.21v63.519a9.75 9.75 0 0 0 9.745 9.745h68.851c14.923 0 22.081-18.319 11.113-28.437z" class="N"/><path d="M648.414-2.553l-59.543-54.923c-9.999-9.224-26.191-2.131-26.191 11.473v59.682a9.16 9.16 0 0 0 9.157 9.157h66.655c13.323 0 19.715-16.356 9.922-25.389z" class="G"/><g clip-path="url(#L)" class="H"><path style="mix-blend-mode:overlay" d="M551.422 23.306h-23.243l35.306-94.463h23.243l-35.306 94.463z" opacity=".5"/><path d="M600.03 23.965h-11.601l35.305-94.463h11.602L600.03 23.965zm68.801 0h-56.855l35.306-94.463h56.855l-35.306 94.463z" class="E"/></g><rect x="530.727" y="-105.698" width="70.205" height="128.534" rx="10.588" class="C"/><path d="M549.716-103.363h31.902a9.02 9.02 0 0 1 9.014 9.014v91.318c0 2.781-2.258 5.039-5.039 5.039H545.74c-2.781 0-5.039-2.258-5.039-5.039v-91.317a9.02 9.02 0 0 1 9.014-9.014z" class="O"/><g clip-path="url(#M)" class="H"><path d="M576.174 10.847h-13.496l40.686-117.579h13.495L576.174 10.847zm-26.296 8.276h-6.737l43.406-125.442h6.736L549.878 19.123zm-20.939-8.249h-30.841l40.552-117.193h30.84L528.939 10.874z" class="E"/></g><path d="M558.456-23.451h14.422a6 6 0 0 1 5.998 5.998v40.289h-26.418v-40.29a6 6 0 0 1 5.998-5.998z" class="C"/><path d="M571.494-18.822h-11.979c-1.647,0-2.994,1.347-2.994,2.994V22.836h17.967V-15.827c0-1.647-1.347-2.994-2.994-2.994Z" class="G"/><path d="M546.083-30.333h-19.462l-5.274 48.167c-.292 2.67 1.798 5.002 4.484 5.002h21.138a4.51 4.51 0 0 0 4.483-5.01l-5.369-48.159z" fill="#684b48"/><g clip-path="url(#N)" class="D"><path d="M536.414 4.486l-15.91-11.594c-8.788-6.404-9.781-19.142-2.092-26.831l5.565-5.565h24.873l5.565 5.565c7.689 7.689 6.696 20.427-2.092 26.831l-15.91 11.594z" fill="#57423a"/></g><g clip-path="url(#O)" class="D"><path d="M536.4-49.258L594.543.481H536.4v-49.739z" fill="#869d33"/></g><g clip-path="url(#P)" class="D"><path d="M536.4-49.258L478.256.481H536.4v-49.739z" fill="#869d33"/></g><g clip-path="url(#Q)"><path d="M533.145-53.961h6.513V2.837h-6.513z" fill="#d8df62"/></g><path d="M518.588 22.836h168.057" fill="#8ed54c" stroke="#8ed54c" stroke-width="10" class="L R Z"/><rect x="761.624" y="125.199" width="70.205" height="128.534" rx="10.588" class="C"/><use href="#i" class="O"/><path d="M780.613 125.199h31.902a9.02 9.02 0 0 1 9.014 9.014v91.317c0 2.781-2.258 5.039-5.039 5.039h-39.853c-2.781 0-5.039-2.258-5.039-5.039v-91.317a9.02 9.02 0 0 1 9.014-9.014z" class="N"/><use href="#j" class="G"/><g clip-path="url(#R)"><use href="#k" class="B U V W"/><g class="H"><use href="#l" class="E"/><path d="M780.775 250.02h-6.737l43.406-125.441h6.736L780.775 250.02zm-20.939-8.249h-30.841l40.552-117.192h30.84l-40.551 117.192z" class="E"/></g></g><rect x="947.278" y="125.199" width="70.205" height="128.534" rx="10.588" class="C"/><use href="#m" class="O"/><path d="M966.266 125.199h31.902a9.02 9.02 0 0 1 9.014 9.014v91.317c0 2.781-2.258 5.039-5.039 5.039H962.29c-2.781 0-5.039-2.258-5.039-5.039v-91.317a9.02 9.02 0 0 1 9.014-9.014z" class="N"/><path d="M968.552 125.199h29.616a9.02 9.02 0 0 1 9.014 9.014v89.154a4.51 4.51 0 0 1-4.507 4.507h-39.848a3.29 3.29 0 0 1-3.29-3.29v-90.371a9.02 9.02 0 0 1 9.014-9.014z" class="G"/><g clip-path="url(#S)"><path d="M957.236 141.359l49.931-.024" class="B U V W"/><g class="H"><path d="M992.724 241.744h-13.495l40.685-117.579h13.496l-40.686 117.579zm-26.296 8.276h-6.736l43.406-125.441h6.736L966.428 250.02zm-20.939-8.249h-30.84L955.2 124.579h30.841l-40.552 117.192z" class="E"/></g></g><rect x="1132.931" y="125.199" width="70.205" height="128.534" rx="10.588" class="C"/><path d="M1151.92 127.534h31.902a9.02 9.02 0 0 1 9.014 9.014v91.317c0 2.781-2.258 5.039-5.039 5.039h-39.853c-2.781 0-5.039-2.258-5.039-5.039v-91.317a9.02 9.02 0 0 1 9.014-9.014z" class="O"/><path d="M1151.92 125.199h31.902a9.02 9.02 0 0 1 9.014 9.014v91.317c0 2.781-2.258 5.039-5.039 5.039h-39.853c-2.781 0-5.039-2.258-5.039-5.039v-91.317a9.02 9.02 0 0 1 9.014-9.014z" class="N"/><path d="M1154.206 125.199h29.616a9.02 9.02 0 0 1 9.014 9.014v89.154a4.51 4.51 0 0 1-4.507 4.507h-39.848a3.29 3.29 0 0 1-3.29-3.29v-90.371a9.02 9.02 0 0 1 9.014-9.014z" class="G"/><g clip-path="url(#T)"><path d="M1142.89 141.359l49.931-.024" class="B U V W"/><g class="H"><path d="M1178.378 241.744h-13.496l40.686-117.579h13.495l-40.685 117.579zm-26.296 8.276h-6.737l43.406-125.441h6.736l-43.405 125.441zm-20.939-8.249h-30.841l40.551-117.192h30.841l-40.551 117.192z" class="E"/></g></g><g clip-path="url(#U)" class="D"><path d="M124.001 15.273l-.895-12.059 33.285-71.475 7.868 1.361-40.258 82.173z" fill="#c0f1fb" fill-opacity=".176" opacity=".3"/></g><path d="M578.229 175.66a9.84 9.84 0 0 1-6.969-2.88 9.85 9.85 0 0 1-2.887-6.966V129.11h-3.976c-1.426 0-2.583-1.158-2.583-2.584v-4.068l-3.631-.048a3.16 3.16 0 0 1-3.115-3.157v-3.615a3.16 3.16 0 0 1 3.157-3.157h16.798v-3.326c0-1.837 1.489-3.325 3.324-3.325h.003c1.836 0 3.324 1.487 3.324 3.325v34.167a3.9 3.9 0 0 0 3.896 3.896h.002a3.82 3.82 0 0 0 3.76-3.15l1.815-10.21c.577-3.239 3.392-5.596 6.68-5.596h.373c3.317 0 6.146 2.397 6.691 5.668l1.597 9.578c.48 2.88 2.972 4.99 5.89 4.99h.002a5.97 5.97 0 0 0 5.89-4.99l1.597-9.578c.545-3.271 3.376-5.668 6.693-5.668h.394c3.279 0 6.09 2.344 6.676 5.57l1.834 10.088a5.2 5.2 0 0 0 3.273 3.935 2.16 2.16 0 0 0 .103.039 9.35 9.35 0 0 1 6.026 8.737v12.815a6.2 6.2 0 0 1-1.814 4.38c-1.162 1.163-2.739 1.814-4.382 1.814l-60.442.02z" class="D S"/><path d="M571.697 120.01h3.326v2.448h-3.326z" fill="#383026"/><use href="#n" class="F"/><path d="M346.438 51.305l7.7 3.417-55.864 125.904-7.7-3.417z" class="C"/><path d="M335.748 130.76l-5.996 5.917-96.748-98.043L239 32.717z" class="F"/><path d="M341.744 124.843l-5.996 5.917L239 32.716l5.996-5.917z" class="C"/><use href="#o" class="F"/><path d="M252.298 128.927l-7.309 4.188-68.477-119.514 7.309-4.188z" class="C"/><use href="#p" class="F"/><path d="M155.075 9.413l7.309 4.188-68.477 119.514-7.309-4.188z" class="C"/><use href="#q" class="F"/><path d="M48.966 177.209l-7.7 3.417-55.864-125.904 7.7-3.417z" class="C"/><use href="#r" class="F"/><path d="M94.543 26.799l5.996 5.917-96.748 98.043-5.996-5.917z" class="C"/><path d="M156.246 210.447h0c0-1.752-1.124-3.307-2.789-3.85-24.314-7.939-46.614-21.666-64.826-40.314l-30.154-30.882c-16.113-16.493-37.409-25.09-58.798-25.09h-73.993c-14.398 0-5.217 46.003-14.959 55.972a160.03 160.03 0 0 1-64.826 40.314 4.05 4.05 0 0 0-2.789 3.85h0a4.06 4.06 0 0 0 4.057 4.057h305.02a4.06 4.06 0 0 0 4.057-4.057z" class="I"/><path d="M139.378 210.827h0a3.67 3.67 0 0 0-2.528-3.489c-22.033-7.195-42.242-19.634-58.745-36.532l-27.326-27.985c-14.601-14.945-33.9-22.736-53.283-22.736h-67.053c-13.048 0-4.727 41.688-13.556 50.722-16.503 16.899-36.712 29.338-58.745 36.532a3.67 3.67 0 0 0-2.528 3.489h0a3.68 3.68 0 0 0 3.677 3.677h276.411a3.68 3.68 0 0 0 3.677-3.677z" class="J"/><path d="M133.572 210.937h0a3.56 3.56 0 0 0-2.452-3.385 140.67 140.67 0 0 1-56.987-35.439l-26.508-27.148c-14.164-14.498-32.885-22.056-51.688-22.056h-65.046c-12.657 0-4.586 40.44-13.15 49.204a140.67 140.67 0 0 1-56.987 35.439 3.56 3.56 0 0 0-2.452 3.385h0a3.57 3.57 0 0 0 3.567 3.567h268.136a3.57 3.57 0 0 0 3.567-3.567z" class="K"/><g clip-path="url(#V)" class="P"><path d="M85.94 144.655H23.683l13.123 13.485h62.257L85.94 144.655z"/><path d="M10.56 131.169h-62.256l13.123 13.486h62.256L10.56 131.169zm49.482-13.485H-2.215l13.123 13.485h62.257l-13.123-13.485z"/></g><path d="M-241.426 210.447h0c0-1.752 1.124-3.307 2.789-3.85 24.314-7.939 46.614-21.666 64.826-40.314l30.154-30.882c16.113-16.492 37.41-24.881 58.798-25.09 21.388.208 42.685 8.598 58.798 25.09l30.154 30.882a160.03 160.03 0 0 0 64.826 40.314 4.05 4.05 0 0 1 2.789 3.85h0a4.06 4.06 0 0 1-4.057 4.057h-152.51-152.51a4.06 4.06 0 0 1-4.057-4.057z" class="I"/><path d="M-197.172 199.236l28.994-27.422 33.14-31.681.427-.405c27.92-26.274 71.584-26.274 99.504 0l.427.405 33.14 31.681 28.994 27.422c5.812 5.495 1.923 15.268-6.075 15.268H-84.859-191.097c-7.998 0-11.888-9.774-6.075-15.268z" fill="#bc3c2e"/><path d="M-176.512 201.428l23.238-21.978 27.212-26.014c7.108-6.791 15.401-11.584 24.181-14.39a55.97 55.97 0 0 1 34.044 0c8.78 2.807 17.073 7.599 24.181 14.39l27.212 26.014 23.238 21.978c4.978 4.706 1.646 13.076-5.204 13.076h-86.449-86.449c-6.85 0-10.182-8.37-5.204-13.076z" class="X"/><path d="M-181.171 205.832l27.896-26.381 27.212-26.014c7.109-6.791 15.401-11.584 24.181-14.39 11.057-3.534 22.986-3.534 34.044 0 8.78 2.807 17.073 7.599 24.181 14.39l27.212 26.014 27.896 26.381c3.302 3.121 1.092 8.672-3.452 8.672H-84.86h-92.859c-4.544 0-6.754-5.551-3.452-8.672z" class="J"/><path d="M-173.603 202.61l23.026-21.777 26.139-24.988.335-.318c22.022-20.725 56.465-20.725 78.487 0l.335.318 26.139 24.988L3.884 202.61c4.528 4.281 1.498 11.894-4.734 11.894h-84.01-84.01c-6.231 0-9.262-7.614-4.734-11.894z" class="K"/><path d="M182.995 210.447h0c0-1.752 1.124-3.307 2.789-3.85 24.314-7.939 46.614-21.666 64.826-40.314l30.154-30.882c16.113-16.492 37.409-25.09 58.798-25.09h73.993c14.398 0 5.217 46.003 14.959 55.972a160.03 160.03 0 0 0 64.826 40.314 4.05 4.05 0 0 1 2.789 3.85h0a4.06 4.06 0 0 1-4.057 4.057h-152.51-152.51a4.06 4.06 0 0 1-4.057-4.057z" class="I"/><path d="M199.863 210.827h0a3.67 3.67 0 0 1 2.528-3.489c22.033-7.195 42.242-19.634 58.745-36.532l27.326-27.985c14.601-14.945 33.9-22.736 53.283-22.736h67.053c13.048 0 4.727 41.688 13.556 50.722 16.503 16.899 36.712 29.338 58.745 36.532a3.67 3.67 0 0 1 2.528 3.489h0a3.68 3.68 0 0 1-3.677 3.677H341.746 203.542a3.68 3.68 0 0 1-3.677-3.677z" class="J"/><path d="M205.67 210.937h0a3.56 3.56 0 0 1 2.452-3.385 140.67 140.67 0 0 0 56.987-35.439l26.508-27.148c14.164-14.498 32.885-22.056 51.688-22.056h65.046c12.657 0 4.586 40.44 13.15 49.204a140.67 140.67 0 0 0 56.987 35.439 3.56 3.56 0 0 1 2.452 3.385h0a3.57 3.57 0 0 1-3.567 3.567H343.305 209.237a3.57 3.57 0 0 1-3.567-3.567z" class="K"/><g clip-path="url(#W)" class="P"><path d="M377.991 144.655h62.257l-13.123 13.485h-62.257l13.123-13.485z"/><use href="#s"/><path d="M328.681 131.169h62.257l-13.123 13.486h-62.257l13.123-13.486zM279.2 117.684h62.256l-13.123 13.485h-62.256l13.123-13.485z"/><path d="M404.061 117.684h62.256l-13.123 13.485h-62.256l13.123-13.485z"/></g><path d="M580.668 210.447h0c0-1.752-1.124-3.307-2.789-3.85-24.314-7.939-46.614-21.666-64.826-40.314l-30.154-30.882c-16.113-16.492-37.41-24.881-58.798-25.09-21.388.208-42.685 8.598-58.798 25.09l-30.154 30.882a160.03 160.03 0 0 1-64.826 40.314 4.05 4.05 0 0 0-2.789 3.85h0a4.06 4.06 0 0 0 4.057 4.057h305.02a4.06 4.06 0 0 0 4.057-4.057z" class="I"/><path d="M536.413 199.236l-28.994-27.422-33.14-31.681-.427-.405c-27.92-26.274-71.584-26.274-99.504 0l-.427.405-33.14 31.681-28.994 27.422c-5.812 5.495-1.923 15.268 6.075 15.268H424.1h106.238c7.998 0 11.888-9.774 6.075-15.268z" fill="#bc3c2e"/><path d="M515.754 201.428l-23.238-21.978-27.212-26.014c-7.108-6.791-15.401-11.584-24.181-14.39a55.97 55.97 0 0 0-34.044 0c-8.78 2.807-17.073 7.599-24.181 14.39l-27.212 26.014-23.238 21.978c-4.978 4.706-1.646 13.076 5.204 13.076h86.449 86.449c6.85 0 10.182-8.37 5.204-13.076z" class="X"/><path d="M520.412 205.832l-27.896-26.381-27.212-26.014c-7.109-6.791-15.401-11.584-24.181-14.39-11.057-3.534-22.986-3.534-34.044 0-8.78 2.807-17.073 7.599-24.181 14.39l-27.212 26.014-27.896 26.381c-3.302 3.121-1.092 8.672 3.452 8.672h92.859 92.859c4.544 0 6.754-5.551 3.452-8.672z" class="J"/><path d="M512.844 202.61l-23.026-21.777-26.139-24.988-.335-.318c-22.022-20.725-56.465-20.725-78.487 0l-.335.318-26.139 24.988-23.026 21.777c-4.528 4.281-1.498 11.894 4.734 11.894h84.01 84.01c6.231 0 9.262-7.614 4.734-11.894z" class="K"/><g clip-path="url(#X)" class="P"><path d="M406.976 132.239h54.482v13.91h-54.482z"/></g><use href="#t" class="Y"/><path d="M-64.849 71.896l8.086-7.797 95.607 99.156-8.086 7.797z" class="C"/><use href="#u" class="Y"/><path d="M388.35 57.307l7.89 7.996-98.043 96.748-7.89-7.996z" class="C"/><path d="M-64.277 208.443h0c0-2.617 1.679-4.94 4.167-5.752 36.322-11.861 69.638-32.367 96.844-60.225l45.048-46.135c24.071-24.638 55.887-37.17 87.839-37.482 31.952.311 63.768 12.844 87.839 37.482l45.048 46.135c27.206 27.858 60.521 48.365 96.844 60.225 2.488.812 4.167 3.135 4.167 5.752h0c0 3.347-2.714 6.061-6.061 6.061H169.621-58.216c-3.347 0-6.061-2.714-6.061-6.061z" fill="#ee5d3f"/><path d="M1.835 191.695L45.15 150.73l49.508-47.328.638-.605c41.71-39.25 106.94-39.25 148.65 0l.638.605 49.508 47.328 43.315 40.965c8.683 8.208 2.873 22.809-9.076 22.809h-158.71-158.71c-11.949 0-17.759-14.601-9.076-22.809z" class="I"/><path d="M28.538 194.377l35.771-33.831 41.888-40.044c10.942-10.454 23.707-17.831 37.222-22.151 17.021-5.441 35.384-5.441 52.405 0 13.515 4.32 26.28 11.697 37.222 22.151l41.888 40.044 35.771 33.831c7.663 7.244 2.534 20.128-8.01 20.127H169.622 36.549c-10.545 0-15.673-12.884-8.01-20.127z" class="X"/><path d="M21.367 201.155l42.941-40.609 41.888-40.044c10.942-10.454 23.707-17.831 37.223-22.151a86.16 86.16 0 0 1 52.404 0c13.515 4.32 26.281 11.697 37.223 22.151l41.888 40.044 42.941 40.609c5.083 4.804 1.68 13.349-5.314 13.349h-142.94-142.94c-6.994 0-10.397-8.545-5.314-13.349z" class="J"/><path d="M33.016 196.195l35.445-33.522 40.236-38.465.516-.49c33.899-31.902 86.917-31.902 120.816 0l.516.49 40.236 38.465 35.445 33.522c6.971 6.589 2.305 18.309-7.287 18.309H169.621 40.303c-9.592 0-14.257-11.72-7.287-18.309z" class="K"/><g clip-path="url(#Y)" class="P"><path d="M248.323 153.894H143.64v-22.602h104.683zm-157.025 0H40.741v-22.007h50.557zm104.683-44.61h-83.866V87.871h83.866z"/></g><path d="M390.41 68.259c-18.58 0-37.16-4.2-55.235-12.602L221.706 2.916c-33.101-15.385-71.071-15.385-104.172 0L4.067 55.657c-36.48 16.958-75.021 16.798-111.456-.461-3.984-1.887-8.179-3.75-12.825-5.696l-19.303-8.085c-10.117-4.238-21.628-3.115-30.828 2.992l-23.529 17.788c-2.865 2.166-6.945 1.599-9.112-1.267s-1.599-6.945 1.267-9.112l23.681-17.902a6.92 6.92 0 0 1 .297-.211c12.865-8.64 29.033-10.242 43.25-4.287l19.303 8.085c4.831 2.024 9.203 3.966 13.368 5.938 32.825 15.549 67.543 15.694 100.403.421L112.051-8.882c36.585-17.006 78.553-17.006 115.139 0L340.658 43.86c32.86 15.274 67.577 15.128 100.403-.42 4.167-1.974 8.54-3.916 13.369-5.939l19.304-8.085c14.215-5.954 30.382-4.352 43.249 4.287a6.92 6.92 0 0 1 .297.211l23.681 17.902c2.866 2.167 3.433 6.246 1.266 9.112s-6.245 3.434-9.111 1.267l-23.529-17.788c-9.201-6.108-20.711-7.228-30.827-2.992L459.456 49.5c-4.644 1.945-8.84 3.809-12.826 5.697-18.382 8.707-37.301 13.062-56.22 13.062z" class="C"/><path d="M542.134 58.331l-.034-.245-.021-.126-.051-.264c-.291-1.346-1.079-2.49-2.216-3.224l-23.681-15.267c-12.438-8.018-28.062-9.509-41.795-3.988l-19.304 7.763c-4.814 1.936-9.167 3.793-13.307 5.675-33.256 15.125-68.431 15.267-101.722.41L225.508-2.036c-35.519-15.851-76.257-15.85-111.774 0L-.762 49.065c-33.292 14.857-68.467 14.716-101.722-.41-4.141-1.882-8.493-3.739-13.306-5.675l-19.304-7.763c-13.733-5.522-29.358-4.031-41.795 3.988l-22.564 14.547-.117.039c-2.362.855-3.762 3.361-3.267 5.785.235 1.482.96 2.573 2.217 3.336 1.495.909 3.367 1.087 5.133.487l.279-.095c4.286-1.458 8.801-2.735 13.384-3.789 19.409-3.776 41.489-2.106 65.629 4.965l5.296 1.551C-74.04 76.822-34.944 77.35 2.164 67.551l24.34-6.428 65.117-16.265 43.817-10.248c12.123-2.826 24.172-4.189 35.8-4.077l35.282 4.425 42.09 9.911c3.558.769 9.852 2.285 18.694 4.5l68.838 18.181a210.76 210.76 0 0 0 53.789 6.982 210.84 210.84 0 0 0 59.274-8.502l5.302-1.553c30.664-8.981 57.846-9.227 80.785-.733 1.281.475 2.671.424 3.913-.145a5.09 5.09 0 0 0 2.668-2.878c.278-.75.366-1.554.264-2.391z" class="Y"/></g></svg>