<svg xmlns="http://www.w3.org/2000/svg" width="1500" height="145" xmlns:v="https://vecta.io/nano"><style><![CDATA[.B{fill-rule:evenodd}.C{fill:none}.D{fill:#869d33}.E{opacity:.5}.F{clip-rule:evenodd}.G{fill:#bfcd53}.H{fill:#fff}.I{fill:#507944}.J{opacity:.75}.K{fill:#adbd3e}.L{stroke-linejoin:round}.M{fill:#e7f2fd}.N{opacity:.1}.O{stroke:#8ed54c}.P{stroke-linecap:round}.Q{stroke-width:10}.R{fill:#071e2d}.S{fill:#d8df62}.T{fill:#8ed54c}.U{stroke-dasharray:0 10}.V{fill:#18344a}.W{stroke-miterlimit:10}.X{fill:#57423a}.Y{stroke-width:1.212}]]></style><defs><clipPath id="A"><path d="M0 0h1500v145H0z" class="C"/></clipPath><clipPath id="B"><path d="M-59.616-125.443h503.815c28.921 0 52.366 23.445 52.366 52.366h0c0 28.921 23.445 52.366 52.366 52.366H708.6c33.349 0 60.383 27.034 60.383 60.383h0c0 33.349 27.034 60.383 60.383 60.383h48.709c39.629 0 71.754 32.125 71.754 71.754v26.062c0 39.629-32.125 71.754-71.754 71.754h-311.56c-21.993 0-39.823-17.829-39.823-39.823h0c0-21.994-17.829-39.823-39.823-39.823H252.034a19.53 19.53 0 0 1-19.526-19.526h0a19.53 19.53 0 0 0-19.526-19.526H-59.616a19.53 19.53 0 0 1-19.526-19.526v-237.318a19.53 19.53 0 0 1 19.526-19.526z" class="C"/></clipPath><clipPath id="C"><path d="M142.286 61.389H87.052c-1.669 0-3.022-1.353-3.022-3.022V48.95c0-1.669 1.353-3.022 3.022-3.022h55.234c1.669 0 3.022 1.353 3.022 3.022v9.417c0 1.669-1.353 3.022-3.022 3.022zm3.022 16.581v-9.417c0-1.669-1.353-3.022-3.022-3.022H87.052c-1.669 0-3.022 1.353-3.022 3.022v9.417c0 1.669 1.353 3.022 3.022 3.022h55.234c1.669 0 3.022-1.353 3.022-3.022z" class="C"/></clipPath><clipPath id="D"><path d="M220.711 163.865l-56.07-51.719c-9.65-8.901-25.275-2.057-25.275 11.072v57.596a8.84 8.84 0 0 0 8.837 8.837h62.431c13.531 0 20.023-16.611 10.076-25.786z" class="H"/></clipPath><clipPath id="E"><path d="M211.73,166.712l-49.879-46.009c-8.585-7.918-22.485-1.829-22.485,9.849v51.237c0,4.342,3.52,7.861,7.861,7.861h55.539c12.037,0,17.812-14.777,8.964-22.939Z" class="C"/></clipPath><clipPath id="F"><path d="M129.171 85.969h25.734a7.28 7.28 0 0 1 7.272 7.272v73.661a4.07 4.07 0 0 1-4.065 4.065h-32.148a4.07 4.07 0 0 1-4.065-4.065V93.241a7.28 7.28 0 0 1 7.272-7.272z" class="C"/></clipPath><clipPath id="G"><path d="M218.195,146.491h-15.798l-4.281,39.099c-.237,2.167,1.46,4.06,3.64,4.06h17.159c2.183,0,3.881-1.898,3.639-4.067l-4.358-39.092Z" class="C"/></clipPath><clipPath id="H"><path d="M210.335 145.07c0 5.591 2.22 10.954 6.175 14.909s9.318 6.175 14.911 6.175h21.208v-13.938c0-5.593-2.22-10.957-6.175-14.911s-9.318-6.175-14.911-6.175h-21.208v13.941z" class="C F"/></clipPath><clipPath id="I"><path d="M210.335 145.07c0 5.591-2.22 10.954-6.175 14.909s-9.318 6.175-14.911 6.175h-21.208v-13.938c0-5.593 2.22-10.957 6.175-14.911s9.318-6.175 14.911-6.175h21.208v13.941z" class="C F"/></clipPath><clipPath id="J"><path d="M210.347 166.154l-12.667-9.231c-6.997-5.099-7.787-15.241-1.666-21.362l4.431-4.431h19.804l4.431 4.431c6.122 6.122 5.331 16.263-1.666 21.362l-12.667 9.231z" class="C F"/></clipPath><clipPath id="K"><path d="M69.022 162.35c0 6.916 2.747 13.551 7.639 18.443s11.527 7.639 18.447 7.639h26.236v-17.243c0-6.919-2.747-13.555-7.639-18.447a26.1 26.1 0 0 0-18.447-7.639H69.022v17.246z" class="C F"/></clipPath><clipPath id="L"><path d="M69.022 162.35c0 6.916-2.747 13.551-7.639 18.443s-11.527 7.639-18.447 7.639H16.7v-17.243c0-6.919 2.747-13.555 7.639-18.447a26.1 26.1 0 0 1 18.447-7.639h26.236v17.246z" class="C F"/></clipPath><clipPath id="M"><path d="M69.036 188.432l-15.671-11.42c-8.655-6.308-9.634-18.854-2.061-26.427l5.482-5.482h24.499l5.482 5.482c7.573 7.573 6.595 20.119-2.061 26.427l-15.671 11.42z" class="C F"/></clipPath><clipPath id="N"><path d="M1230.117,93.941h-10.771l-2.919,26.658c-.162,1.477.995,2.768,2.482,2.768h11.699c1.488,0,2.646-1.294,2.481-2.773l-2.971-26.653Z" class="C"/></clipPath><clipPath id="O"><path d="M1224.758 92.973c0 3.812 1.514 7.469 4.21 10.165s6.353 4.21 10.167 4.21h14.459v-9.503a14.38 14.38 0 0 0-4.21-10.167c-2.696-2.694-6.353-4.21-10.167-4.21h-14.459v9.505z" class="C F"/></clipPath><clipPath id="P"><path d="M1224.758 92.973c0 3.812-1.514 7.469-4.21 10.165s-6.353 4.21-10.167 4.21h-14.459v-9.503a14.38 14.38 0 0 1 4.21-10.167c2.696-2.694 6.353-4.21 10.167-4.21h14.459v9.505z" class="C F"/></clipPath><clipPath id="Q"><path d="M1224.766 107.347l-8.637-6.294c-4.77-3.476-5.309-10.391-1.136-14.565l3.021-3.021h13.502l3.021 3.021c4.174 4.174 3.635 11.088-1.136 14.565l-8.637 6.294z" class="C F"/></clipPath><clipPath id="R"><path d="M944.08 41.552h-10.771L930.39 68.21c-.162 1.477.995 2.768 2.482 2.768h11.699c1.488 0 2.646-1.294 2.481-2.773l-2.971-26.653z" class="C"/></clipPath><clipPath id="S"><path d="M938.721 40.584c0 3.812 1.514 7.469 4.21 10.165s6.353 4.21 10.167 4.21h14.459v-9.503a14.38 14.38 0 0 0-4.21-10.167c-2.696-2.694-6.353-4.21-10.167-4.21h-14.459v9.505z" class="C F"/></clipPath><clipPath id="T"><path d="M938.721 40.584c0 3.812-1.514 7.469-4.21 10.165s-6.353 4.21-10.167 4.21h-14.459v-9.503a14.38 14.38 0 0 1 4.21-10.167c2.696-2.694 6.353-4.21 10.167-4.21h14.459v9.505z" class="C F"/></clipPath><clipPath id="U"><path d="M938.729 54.958l-8.637-6.294c-4.77-3.476-5.309-10.391-1.136-14.565l3.021-3.021h13.502l3.021 3.021c4.174 4.174 3.635 11.088-1.136 14.565l-8.637 6.294z" class="C F"/></clipPath><clipPath id="V"><path d="M905.505 165.276H400.859l40.472-145.671L563.699-81.686h179.076L863.88 18.559l41.625 146.717z" class="C F"/></clipPath><clipPath id="W"><path d="M293.375 132.136h-55.234c-1.669 0-3.022-1.353-3.022-3.022v-9.417c0-1.669 1.353-3.022 3.022-3.022h55.234c1.669 0 3.022 1.353 3.022 3.022v9.417c0 1.669-1.353 3.022-3.022 3.022zm3.022 16.58v-9.417c0-1.669-1.353-3.022-3.022-3.022h-55.234c-1.669 0-3.022 1.353-3.022 3.022v9.417c0 1.669 1.353 3.022 3.022 3.022h55.234c1.669 0 3.022-1.353 3.022-3.022z" class="C"/></clipPath><path id="X" d="M220.711 163.865l-56.07-51.719c-9.65-8.901-25.275-2.057-25.275 11.072v57.596a8.84 8.84 0 0 0 8.837 8.837h62.431c13.531 0 20.023-16.611 10.076-25.786z"/><path id="Y" d="M121.892 111.095h40.282v5.009h-40.282z"/><path id="Z" d="M1081.12 76.582a2.82 2.82 0 0 1-2.818-2.825v-5.895a2.82 2.82 0 0 1 2.818-2.825 2.82 2.82 0 0 1 2.818 2.825v5.895a2.82 2.82 0 0 1-2.818 2.825z"/><path id="a" d="M1112.867 99.925a2.82 2.82 0 0 1-2.818-2.825v-5.898a2.82 2.82 0 0 1 2.818-2.825 2.82 2.82 0 0 1 2.818 2.825V97.1a2.82 2.82 0 0 1-2.818 2.825z"/><path id="b" d="M1123.775 51.029a2.82 2.82 0 0 1-2.818-2.825v-5.898a2.82 2.82 0 0 1 2.818-2.825 2.82 2.82 0 0 1 2.818 2.825v5.898a2.82 2.82 0 0 1-2.818 2.825z"/><path id="c" d="M1224.766 113.212l-8.805-6.417c-4.863-3.544-5.413-10.594-1.158-14.849l3.08-3.08h13.766l3.08 3.08c4.255 4.255 3.706 11.305-1.158 14.849l-8.805 6.417z"/><path id="d" d="M1224.758 92.973c0 3.812 1.514 7.469 4.21 10.165s6.353 4.21 10.167 4.21h14.459v-9.503a14.38 14.38 0 0 0-4.21-10.167c-2.696-2.694-6.353-4.21-10.167-4.21h-14.459v9.505z"/><path id="e" d="M1223.62 84.869l2.279-2.792 28.84 23.534-2.279 2.792z"/><path id="f" d="M1253.594 90.226v-3.605h-10.815a1.8 1.8 0 0 0-1.8 1.8v.004a1.8 1.8 0 0 0 1.8 1.8h10.815z"/><path id="g" d="M1224.758 92.973c0 3.812-1.514 7.469-4.21 10.165s-6.353 4.21-10.167 4.21h-14.459v-9.503a14.38 14.38 0 0 1 4.21-10.167c2.696-2.694 6.353-4.21 10.167-4.21h14.459v9.505z"/><path id="h" d="M1194.782 105.611l28.836-23.538 2.279 2.792-28.836 23.538z"/><path id="i" d="M1195.922 90.226v-3.605h10.814c.478 0 .937.191 1.274.528a1.8 1.8 0 0 1 .528 1.274c0 .477-.189.937-.528 1.274s-.797.528-1.274.528h-10.814z"/><path id="j" d="M1224.766 107.347l-8.637-6.294c-4.77-3.476-5.309-10.391-1.136-14.565l3.021-3.021h13.502l3.021 3.021c4.174 4.174 3.635 11.088-1.136 14.565l-8.637 6.294z"/><path id="k" d="M1211.978 96.635a1.8 1.8 0 0 1-.99-3.309l7.326-4.806a1.8 1.8 0 1 1 1.976 3.013l-7.326 4.806c-.305.201-.648.296-.986.296z"/><path id="l" d="M1237.536 96.635c-.338 0-.681-.095-.986-.296l-7.324-4.806c-.833-.546-1.065-1.663-.519-2.496s1.654-1.068 2.495-.517l7.324 4.806c.833.546 1.065 1.663.519 2.496a1.8 1.8 0 0 1-1.509.813z"/><path id="m" d="M650.05 51.672c0-.8-.318-1.567-.883-2.132a3.01 3.01 0 0 0-2.132-.883h-.001a3.02 3.02 0 0 0-2.132.883c-.565.565-.883 1.332-.883 2.132v5.265h6.032v-5.265z"/><path id="n" d="M660.236 51.672c0-.8-.318-1.567-.883-2.132a3.01 3.01 0 0 0-2.132-.883h0c-.8 0-1.567.318-2.132.883s-.883 1.332-.883 2.132v5.265h6.031v-5.265z"/><path id="o" d="M650.05 104.551c0-.8-.318-1.567-.883-2.132s-1.333-.883-2.132-.883h0c-.8 0-1.567.318-2.132.883a3.01 3.01 0 0 0-.883 2.132v5.265h6.031v-5.265z"/><path id="p" d="M655.996 83.991h3.626a3.92 3.92 0 0 1 2.771 1.148l.329.329a3.92 3.92 0 0 0 2.772 1.148h25.364a3.92 3.92 0 0 0 3.061-1.471l2.836-3.545a.95.95 0 0 0-.743-1.546h-40.015v3.937z"/><path id="q" d="M682.93 74.789c0-.8.318-1.567.883-2.132a3.02 3.02 0 0 1 2.132-.883h0c.8 0 1.567.318 2.132.883a3.01 3.01 0 0 1 .883 2.132v5.265h-6.031v-5.265z"/><path id="r" d="M621.325,83.848c0-1.665-1.35-3.015-3.015-3.015h0c-1.665,0-3.015,1.35-3.015,3.015v2.505h6.031v-2.505Z"/><path id="s" d="M626.418 81.088c0-.8-.318-1.567-.883-2.132s-1.332-.883-2.132-.883h0c-.8 0-1.567.318-2.132.883s-.883 1.332-.883 2.132v5.265h6.031v-5.265z"/><path id="t" d="M616.085,128.77c0-1.665-1.35-3.015-3.015-3.015h0c-1.665,0-3.015,1.35-3.015,3.015v2.505h6.031v-2.505Z"/><path id="u" d="M688.169 129.685c0-.8.318-1.567.883-2.132s1.333-.883 2.132-.883h0c.8 0 1.567.318 2.132.883a3.01 3.01 0 0 1 .883 2.132v5.265h-6.031v-5.265z"/><path id="v" d="M677.983 129.685c0-.8.318-1.567.883-2.132s1.333-.883 2.132-.883h.001c.8 0 1.567.318 2.132.883a3.01 3.01 0 0 1 .883 2.132v5.265h-6.032v-5.265z"/><path id="w" d="M621.344,32.627c0-1.665-1.35-3.015-3.015-3.015h0c-1.665,0-3.015,1.35-3.015,3.015v2.505h6.031v-2.505Z"/><path id="x" d="M526.044 143.264a6 6 0 0 0 0 8.398 5.81 5.81 0 0 0 8.286 0 6 6 0 0 0 0-8.398 5.81 5.81 0 0 0-8.286 0z"/></defs><g clip-path="url(#A)"><path d="M-11.618-2641.127h1523.237v5153.382H-11.618z" fill="#04d5d8"/><path d="M881.245 1650.825c-41.651 0-84.385-27.125-101.61-64.497-.533-1.156-1.755-1.965-2.971-1.965H-33.074l-4.116-238.479V-762.204H220.6a127.35 127.35 0 0 1 78.961 27.557c22.556 17.938 38.384 43.268 44.57 71.323 3.204 14.528 16.339 25.073 31.234 25.073h152.318c17.632 0 31.977-14.345 31.977-31.977v-7.461c0-93.816 76.325-170.141 170.141-170.141h188.858c93.815 0 170.141 76.325 170.141 170.141 0 21.746 17.691 39.438 39.438 39.438h107.816a126.03 126.03 0 0 1 81.637 30.053c22.736 19.364 37.892 46.267 42.676 75.756 1.474 9.081 6.199 17.445 13.308 23.553 7.14 6.134 16.239 9.513 25.621 9.513h257.685v1978.184h-347.973c-14.935 0-29.001 5.855-39.61 16.487s-16.432 24.712-16.398 39.649c.068 30.785-11.914 59.787-33.741 81.663-22.018 22.065-51.313 34.218-82.491 34.218H881.247z" fill="#7ee5e3"/><path d="M881.245 1620.825c-30.031 0-62-20.229-74.365-47.055-5.434-11.789-17.294-19.407-30.216-19.407H442.665c-65.402 0-118.718-53.601-118.852-119.485-.132-65.613-53.623-118.993-119.239-118.993H-7.19V-732.204H220.6c21.818 0 43.229 7.471 60.289 21.038 17.183 13.665 29.239 32.95 33.947 54.302 6.211 28.168 31.668 48.613 60.53 48.613h152.318c34.174 0 61.977-27.802 61.977-61.977v-7.461c0-77.274 62.867-140.141 140.141-140.141H918.66c77.273 0 140.141 62.867 140.141 140.141 0 38.288 31.149 69.438 69.438 69.438h107.816a96 96 0 0 1 62.186 22.893c17.322 14.753 28.869 35.252 32.515 57.721 2.604 16.051 10.902 30.79 23.368 41.502a69.36 69.36 0 0 0 45.173 16.76h227.685v1918.184h-317.973c-22.96 0-44.569 8.984-60.847 25.297s-25.213 37.942-25.162 60.906c.051 22.76-8.82 44.213-24.979 60.407-16.348 16.384-38.102 25.407-61.254 25.407H881.246z" fill="#fceea3"/><path d="M881.244 1590.825c-18.075 0-39.553-13.196-47.119-29.612-10.016-21.73-32.006-36.85-57.462-36.85H442.665c-49.251 0-88.752-40.294-88.852-89.545-.166-82.151-67.05-148.933-149.239-148.933H-47.26V-702.204H220.6c31.082 0 58.247 21.448 64.94 51.8 9.09 41.22 45.913 72.153 89.826 72.153h152.318c50.797 0 91.977-41.179 91.977-91.977v-7.461c0-60.829 49.312-110.14 110.14-110.14H918.66c60.829 0 110.14 49.312 110.14 110.14h0c0 54.918 44.52 99.438 99.438 99.438h107.816c32.355 0 59.906 23.48 65.087 55.417 7.666 47.26 48.763 83.458 98.155 83.458h197.685v1858.184h-287.973c-64.054 0-116.15 52.182-116.008 116.269.068 30.868-25.365 55.749-56.233 55.749H881.246z" fill="#f8d680"/><path d="M1411.098-185.01h0c0 46.441-37.648 84.089-84.089 84.089H864.848c-39.101 0-70.799-31.698-70.799-70.799v-33.709c0-34.148-27.683-61.831-61.831-61.831h-79.632c-34.148 0-61.831-27.683-61.831-61.831h0c0-34.148-27.683-61.831-61.831-61.831H306.595c-34.148 0-61.831 27.683-61.831 61.831h0c0 34.148-27.683 61.831-61.831 61.831H-37.19v580.203h351.834c69.365 0 125.596 56.231 125.596 125.596h0c0 34.148 27.683 61.831 61.831 61.831h202.781c34.148 0 61.831-27.683 61.831-61.831v-14.897c0-34.148 27.683-61.831 61.831-61.831h177.038c21.017 0 38.054 17.037 38.054 38.054h0c0 21.017 17.037 38.054 38.054 38.054h285.782c16.913 0 30.624-13.711 30.624-30.624h0c0-16.913 13.711-30.624 30.624-30.624h258.678v-645.77h-192.182c-46.441 0-84.089 37.648-84.089 84.089z" class="L O P Q T U"/><path d="M-59.616-125.443h503.815c28.921 0 52.366 23.445 52.366 52.366h0c0 28.921 23.445 52.366 52.366 52.366H708.6c33.349 0 60.383 27.034 60.383 60.383h0c0 33.349 27.034 60.383 60.383 60.383h48.709c39.629 0 71.754 32.125 71.754 71.754v26.062c0 39.629-32.125 71.754-71.754 71.754h-311.56c-21.993 0-39.823-17.829-39.823-39.823h0c0-21.994-17.829-39.823-39.823-39.823H252.034a19.53 19.53 0 0 1-19.526-19.526h0a19.53 19.53 0 0 0-19.526-19.526H-59.616a19.53 19.53 0 0 1-19.526-19.526v-237.318a19.53 19.53 0 0 1 19.526-19.526z" fill="#c1e6e4"/><g clip-path="url(#B)" class="C L"><g opacity=".4"><g stroke="#a0ccc7"><g stroke-width="2.684"><rect x="95.617" y="-9.514" width="36.649" height="18.372" rx="3.477" transform="matrix(-1 0 0 -1 227.884 -.657)"/><rect x="58.968" y="-9.514" width="36.649" height="18.372" rx="3.477" transform="matrix(-1 0 0 -1 154.585 -.657)"/><rect x="22.281" y="-9.514" width="36.649" height="18.372" rx="3.477" transform="matrix(-1 0 0 -1 81.212 -.657)"/><rect x="-14.368" y="-9.514" width="36.649" height="18.372" rx="3.477" transform="matrix(-1 0 0 -1 7.914 -.657)"/><rect x="462.208" y="-9.514" width="36.649" height="18.372" rx="3.477" transform="matrix(-1 0 0 -1 961.066 -.657)"/><rect x="425.559" y="-9.514" width="36.649" height="18.372" rx="3.477" transform="matrix(-1 0 0 -1 887.768 -.657)"/><rect x="95.68" y="-9.514" width="36.649" height="18.372" rx="3.477" transform="matrix(-1 0 0 -1 228.009 -.657)"/><rect x="388.873" y="-9.514" width="36.649" height="18.372" rx="3.477" transform="matrix(-1 0 0 -1 814.394 -.657)"/><rect x="352.224" y="-9.514" width="36.649" height="18.372" rx="3.477" transform="matrix(-1 0 0 -1 741.096 -.657)"/><rect x="315.569" y="-9.514" width="36.649" height="18.372" rx="3.477" transform="matrix(-1 0 0 -1 667.786 -.657)"/><rect x="278.92" y="-9.514" width="36.649" height="18.372" rx="3.477" transform="matrix(-1 0 0 -1 594.488 -.657)"/><rect x="242.233" y="-9.514" width="36.649" height="18.372" rx="3.477" transform="matrix(-1 0 0 -1 521.115 -.657)"/><rect x="205.584" y="-9.514" width="36.649" height="18.372" rx="3.477" transform="matrix(-1 0 0 -1 447.817 -.657)"/><rect x="168.978" y="-9.514" width="36.649" height="18.372" rx="3.477" transform="matrix(-1 0 0 -1 374.605 -.657)"/><rect x="132.329" y="-9.514" width="36.649" height="18.372" rx="3.477" transform="matrix(-1 0 0 -1 301.307 -.657)"/><rect x="828.742" y="-9.514" width="36.649" height="18.372" rx="3.477" transform="matrix(-1 0 0 -1 1694.134 -.657)"/><rect x="792.093" y="-9.514" width="36.649" height="18.372" rx="3.477" transform="matrix(-1 0 0 -1 1620.836 -.657)"/><rect x="462.214" y="-9.514" width="36.649" height="18.372" rx="3.477" transform="matrix(-1 0 0 -1 961.077 -.657)"/><rect x="755.407" y="-9.514" width="36.649" height="18.372" rx="3.477" transform="matrix(-1 0 0 -1 1547.462 -.657)"/><rect x="718.758" y="-9.514" width="36.649" height="18.372" rx="3.477" transform="matrix(-1 0 0 -1 1474.164 -.657)"/><rect x="682.103" y="-9.514" width="36.649" height="18.372" rx="3.477" transform="matrix(-1 0 0 -1 1400.854 -.657)"/><rect x="645.454" y="-9.514" width="36.649" height="18.372" rx="3.477" transform="matrix(-1 0 0 -1 1327.556 -.657)"/><rect x="608.767" y="-9.514" width="36.649" height="18.372" rx="3.477" transform="matrix(-1 0 0 -1 1254.183 -.657)"/><rect x="572.118" y="-9.514" width="36.649" height="18.372" rx="3.477" transform="matrix(-1 0 0 -1 1180.885 -.657)"/><rect x="535.512" y="-9.514" width="36.649" height="18.372" rx="3.477" transform="matrix(-1 0 0 -1 1107.673 -.657)"/><rect x="498.863" y="-9.514" width="36.649" height="18.372" rx="3.477" transform="matrix(-1 0 0 -1 1034.375 -.657)"/><rect x="1195.334" y="-9.514" width="36.649" height="18.372" rx="3.477" transform="matrix(-1 0 0 -1 2427.316 -.657)"/><rect x="1158.684" y="-9.514" width="36.649" height="18.372" rx="3.477" transform="matrix(-1 0 0 -1 2354.018 -.657)"/><rect x="828.805" y="-9.514" width="36.649" height="18.372" rx="3.477" transform="matrix(-1 0 0 -1 1694.259 -.657)"/><rect x="1121.998" y="-9.514" width="36.649" height="18.372" rx="3.477" transform="matrix(-1 0 0 -1 2280.645 -.657)"/><rect x="1085.349" y="-9.514" width="36.649" height="18.372" rx="3.477" transform="matrix(-1 0 0 -1 2207.347 -.657)"/><rect x="1048.694" y="-9.514" width="36.649" height="18.372" rx="3.477" transform="matrix(-1 0 0 -1 2134.037 -.657)"/><rect x="1012.045" y="-9.514" width="36.649" height="18.372" rx="3.477" transform="matrix(-1 0 0 -1 2060.739 -.657)"/><rect x="975.358" y="-9.514" width="36.649" height="18.372" rx="3.477" transform="matrix(-1 0 0 -1 1987.365 -.657)"/><rect x="938.709" y="-9.514" width="36.649" height="18.372" rx="3.477" transform="matrix(-1 0 0 -1 1914.067 -.657)"/><rect x="902.103" y="-9.514" width="36.649" height="18.372" rx="3.477" transform="matrix(-1 0 0 -1 1840.856 -.657)"/><rect x="865.454" y="-9.514" width="36.649" height="18.372" rx="3.477" transform="matrix(-1 0 0 -1 1767.558 -.657)"/><rect x="95.617" y="137.726" width="36.649" height="18.372" rx="3.477" transform="matrix(-1 0 0 -1 227.884 293.824)"/><rect x="58.968" y="137.726" width="36.649" height="18.372" rx="3.477" transform="matrix(-1 0 0 -1 154.585 293.824)"/><rect x="22.281" y="137.726" width="36.649" height="18.372" rx="3.477" transform="matrix(-1 0 0 -1 81.212 293.824)"/><rect x="-14.368" y="137.726" width="36.649" height="18.372" rx="3.477" transform="matrix(-1 0 0 -1 7.914 293.824)"/><rect x="77.317" y="119.372" width="36.649" height="18.372" rx="3.477" transform="matrix(-1 0 0 -1 191.284 257.116)"/><rect x="40.668" y="119.372" width="36.649" height="18.372" rx="3.477" transform="matrix(-1 0 0 -1 117.985 257.116)"/><rect x="3.982" y="119.372" width="36.649" height="18.372" rx="3.477" transform="matrix(-1 0 0 -1 44.612 257.116)"/><rect x="-32.668" y="119.372" width="36.649" height="18.372" rx="3.477" transform="matrix(-1 0 0 -1 -28.686 257.116)"/><rect x="95.617" y="101" width="36.649" height="18.372" rx="3.477" transform="matrix(-1 0 0 -1 227.884 220.372)"/><rect x="58.968" y="101" width="36.649" height="18.372" rx="3.477" transform="matrix(-1 0 0 -1 154.585 220.372)"/><rect x="22.281" y="101" width="36.649" height="18.372" rx="3.477" transform="matrix(-1 0 0 -1 81.212 220.372)"/><rect x="-14.368" y="101" width="36.649" height="18.372" rx="3.477" transform="matrix(-1 0 0 -1 7.914 220.372)"/><rect x="77.317" y="82.628" width="36.649" height="18.372" rx="3.477" transform="matrix(-1 0 0 -1 191.284 183.627)"/><rect x="40.668" y="82.628" width="36.649" height="18.372" rx="3.477" transform="matrix(-1 0 0 -1 117.985 183.627)"/><rect x="3.982" y="82.628" width="36.649" height="18.372" rx="3.477" transform="matrix(-1 0 0 -1 44.612 183.627)"/><rect x="-32.668" y="82.628" width="36.649" height="18.372" rx="3.477" transform="matrix(-1 0 0 -1 -28.686 183.627)"/><rect x="95.617" y="64.255" width="36.649" height="18.372" rx="3.477" transform="matrix(-1 0 0 -1 227.884 146.883)"/><rect x="58.968" y="64.255" width="36.649" height="18.372" rx="3.477" transform="matrix(-1 0 0 -1 154.585 146.883)"/><rect x="22.281" y="64.255" width="36.649" height="18.372" rx="3.477" transform="matrix(-1 0 0 -1 81.212 146.883)"/><rect x="-14.368" y="64.255" width="36.649" height="18.372" rx="3.477" transform="matrix(-1 0 0 -1 7.914 146.883)"/><rect x="77.317" y="45.883" width="36.649" height="18.372" rx="3.477" transform="matrix(-1 0 0 -1 191.284 110.139)"/><rect x="40.668" y="45.883" width="36.649" height="18.372" rx="3.477" transform="matrix(-1 0 0 -1 117.985 110.139)"/><rect x="3.982" y="45.883" width="36.649" height="18.372" rx="3.477" transform="matrix(-1 0 0 -1 44.612 110.139)"/><rect x="-32.668" y="45.883" width="36.649" height="18.372" rx="3.477" transform="matrix(-1 0 0 -1 -28.686 110.139)"/><rect x="95.617" y="27.511" width="36.649" height="18.372" rx="3.477" transform="matrix(-1 0 0 -1 227.884 73.394)"/><rect x="58.968" y="27.511" width="36.649" height="18.372" rx="3.477" transform="matrix(-1 0 0 -1 154.585 73.394)"/><rect x="22.281" y="27.511" width="36.649" height="18.372" rx="3.477" transform="matrix(-1 0 0 -1 81.212 73.394)"/><rect x="-14.368" y="27.511" width="36.649" height="18.372" rx="3.477" transform="matrix(-1 0 0 -1 7.914 73.394)"/><rect x="77.317" y="9.139" width="36.649" height="18.372" rx="3.477" transform="matrix(-1 0 0 -1 191.284 36.65)"/><rect x="40.668" y="9.139" width="36.649" height="18.372" rx="3.477" transform="matrix(-1 0 0 -1 117.985 36.65)"/><rect x="3.982" y="9.139" width="36.649" height="18.372" rx="3.477" transform="matrix(-1 0 0 -1 44.612 36.65)"/><rect x="-32.668" y="9.139" width="36.649" height="18.372" rx="3.477" transform="matrix(-1 0 0 -1 -28.686 36.65)"/><rect x="462.208" y="137.726" width="36.649" height="18.372" rx="3.477" transform="matrix(-1 0 0 -1 961.066 293.824)"/><rect x="425.559" y="137.726" width="36.649" height="18.372" rx="3.477" transform="matrix(-1 0 0 -1 887.768 293.824)"/><rect x="95.68" y="137.726" width="36.649" height="18.372" rx="3.477" transform="matrix(-1 0 0 -1 228.009 293.824)"/><rect x="388.873" y="137.726" width="36.649" height="18.372" rx="3.477" transform="matrix(-1 0 0 -1 814.394 293.824)"/><rect x="352.224" y="137.726" width="36.649" height="18.372" rx="3.477" transform="matrix(-1 0 0 -1 741.096 293.824)"/><rect x="315.569" y="137.726" width="36.649" height="18.372" rx="3.477" transform="matrix(-1 0 0 -1 667.786 293.824)"/><rect x="278.92" y="137.726" width="36.649" height="18.372" rx="3.477" transform="matrix(-1 0 0 -1 594.488 293.824)"/><rect x="242.233" y="137.726" width="36.649" height="18.372" rx="3.477" transform="matrix(-1 0 0 -1 521.115 293.824)"/><rect x="205.584" y="137.726" width="36.649" height="18.372" rx="3.477" transform="matrix(-1 0 0 -1 447.817 293.824)"/><rect x="168.978" y="137.726" width="36.649" height="18.372" rx="3.477" transform="matrix(-1 0 0 -1 374.605 293.824)"/><rect x="132.329" y="137.726" width="36.649" height="18.372" rx="3.477" transform="matrix(-1 0 0 -1 301.307 293.824)"/><rect x="443.908" y="119.372" width="36.649" height="18.372" rx="3.477" transform="matrix(-1 0 0 -1 924.466 257.116)"/><rect x="407.259" y="119.372" width="36.649" height="18.372" rx="3.477" transform="matrix(-1 0 0 -1 851.168 257.116)"/><rect x="370.573" y="119.372" width="36.649" height="18.372" rx="3.477" transform="matrix(-1 0 0 -1 777.795 257.116)"/><rect x="333.924" y="119.372" width="36.649" height="18.372" rx="3.477" transform="matrix(-1 0 0 -1 704.496 257.116)"/><rect x="297.269" y="119.372" width="36.649" height="18.372" rx="3.477" transform="matrix(-1 0 0 -1 631.187 257.116)"/><rect x="260.62" y="119.372" width="36.649" height="18.372" rx="3.477" transform="matrix(-1 0 0 -1 557.888 257.116)"/><rect x="223.933" y="119.372" width="36.649" height="18.372" rx="3.477" transform="matrix(-1 0 0 -1 484.515 257.116)"/><rect x="187.284" y="119.372" width="36.649" height="18.372" rx="3.477" transform="matrix(-1 0 0 -1 411.217 257.116)"/><rect x="150.678" y="119.372" width="36.649" height="18.372" rx="3.477" transform="matrix(-1 0 0 -1 338.006 257.116)"/><rect x="114.029" y="119.372" width="36.649" height="18.372" rx="3.477" transform="matrix(-1 0 0 -1 264.707 257.116)"/><rect x="462.208" y="101" width="36.649" height="18.372" rx="3.477" transform="matrix(-1 0 0 -1 961.066 220.372)"/><rect x="425.559" y="101" width="36.649" height="18.372" rx="3.477" transform="matrix(-1 0 0 -1 887.768 220.372)"/><rect x="95.68" y="101" width="36.649" height="18.372" rx="3.477" transform="matrix(-1 0 0 -1 228.009 220.372)"/><rect x="388.873" y="101" width="36.649" height="18.372" rx="3.477" transform="matrix(-1 0 0 -1 814.394 220.372)"/><rect x="352.224" y="101" width="36.649" height="18.372" rx="3.477" transform="matrix(-1 0 0 -1 741.096 220.372)"/><rect x="315.569" y="101" width="36.649" height="18.372" rx="3.477" transform="matrix(-1 0 0 -1 667.786 220.372)"/><rect x="278.92" y="101" width="36.649" height="18.372" rx="3.477" transform="matrix(-1 0 0 -1 594.488 220.372)"/><rect x="242.233" y="101" width="36.649" height="18.372" rx="3.477" transform="matrix(-1 0 0 -1 521.115 220.372)"/><rect x="205.584" y="101" width="36.649" height="18.372" rx="3.477" transform="matrix(-1 0 0 -1 447.817 220.372)"/><rect x="168.978" y="101" width="36.649" height="18.372" rx="3.477" transform="matrix(-1 0 0 -1 374.605 220.372)"/><rect x="132.329" y="101" width="36.649" height="18.372" rx="3.477" transform="matrix(-1 0 0 -1 301.307 220.372)"/><rect x="443.908" y="82.628" width="36.649" height="18.372" rx="3.477" transform="matrix(-1 0 0 -1 924.466 183.627)"/><rect x="407.259" y="82.628" width="36.649" height="18.372" rx="3.477" transform="matrix(-1 0 0 -1 851.168 183.627)"/><rect x="370.573" y="82.628" width="36.649" height="18.372" rx="3.477" transform="matrix(-1 0 0 -1 777.795 183.627)"/><rect x="333.924" y="82.628" width="36.649" height="18.372" rx="3.477" transform="matrix(-1 0 0 -1 704.496 183.627)"/><rect x="297.269" y="82.628" width="36.649" height="18.372" rx="3.477" transform="matrix(-1 0 0 -1 631.187 183.627)"/><rect x="260.62" y="82.628" width="36.649" height="18.372" rx="3.477" transform="matrix(-1 0 0 -1 557.888 183.627)"/><rect x="223.933" y="82.628" width="36.649" height="18.372" rx="3.477" transform="matrix(-1 0 0 -1 484.515 183.627)"/><rect x="187.284" y="82.628" width="36.649" height="18.372" rx="3.477" transform="matrix(-1 0 0 -1 411.217 183.627)"/><rect x="150.678" y="82.628" width="36.649" height="18.372" rx="3.477" transform="matrix(-1 0 0 -1 338.006 183.627)"/><rect x="114.029" y="82.628" width="36.649" height="18.372" rx="3.477" transform="matrix(-1 0 0 -1 264.707 183.627)"/><rect x="462.208" y="64.255" width="36.649" height="18.372" rx="3.477" transform="matrix(-1 0 0 -1 961.066 146.883)"/><rect x="425.559" y="64.255" width="36.649" height="18.372" rx="3.477" transform="matrix(-1 0 0 -1 887.768 146.883)"/><rect x="95.68" y="64.255" width="36.649" height="18.372" rx="3.477" transform="matrix(-1 0 0 -1 228.009 146.883)"/><rect x="388.873" y="64.255" width="36.649" height="18.372" rx="3.477" transform="matrix(-1 0 0 -1 814.394 146.883)"/><rect x="352.224" y="64.255" width="36.649" height="18.372" rx="3.477" transform="matrix(-1 0 0 -1 741.096 146.883)"/><rect x="315.569" y="64.255" width="36.649" height="18.372" rx="3.477" transform="matrix(-1 0 0 -1 667.786 146.883)"/><rect x="278.92" y="64.255" width="36.649" height="18.372" rx="3.477" transform="matrix(-1 0 0 -1 594.488 146.883)"/><rect x="242.233" y="64.255" width="36.649" height="18.372" rx="3.477" transform="matrix(-1 0 0 -1 521.115 146.883)"/><rect x="205.584" y="64.255" width="36.649" height="18.372" rx="3.477" transform="matrix(-1 0 0 -1 447.817 146.883)"/><rect x="168.978" y="64.255" width="36.649" height="18.372" rx="3.477" transform="matrix(-1 0 0 -1 374.605 146.883)"/><rect x="132.329" y="64.255" width="36.649" height="18.372" rx="3.477" transform="matrix(-1 0 0 -1 301.307 146.883)"/><rect x="443.908" y="45.883" width="36.649" height="18.372" rx="3.477" transform="matrix(-1 0 0 -1 924.466 110.139)"/><rect x="407.259" y="45.883" width="36.649" height="18.372" rx="3.477" transform="matrix(-1 0 0 -1 851.168 110.139)"/><rect x="370.573" y="45.883" width="36.649" height="18.372" rx="3.477" transform="matrix(-1 0 0 -1 777.795 110.139)"/><rect x="333.924" y="45.883" width="36.649" height="18.372" rx="3.477" transform="matrix(-1 0 0 -1 704.496 110.139)"/><rect x="297.269" y="45.883" width="36.649" height="18.372" rx="3.477" transform="matrix(-1 0 0 -1 631.187 110.139)"/><rect x="260.62" y="45.883" width="36.649" height="18.372" rx="3.477" transform="matrix(-1 0 0 -1 557.888 110.139)"/><rect x="223.933" y="45.883" width="36.649" height="18.372" rx="3.477" transform="matrix(-1 0 0 -1 484.515 110.139)"/><rect x="187.284" y="45.883" width="36.649" height="18.372" rx="3.477" transform="matrix(-1 0 0 -1 411.217 110.139)"/><rect x="150.678" y="45.883" width="36.649" height="18.372" rx="3.477" transform="matrix(-1 0 0 -1 338.006 110.139)"/><rect x="114.029" y="45.883" width="36.649" height="18.372" rx="3.477" transform="matrix(-1 0 0 -1 264.707 110.139)"/><rect x="462.208" y="27.511" width="36.649" height="18.372" rx="3.477" transform="matrix(-1 0 0 -1 961.066 73.394)"/><rect x="425.559" y="27.511" width="36.649" height="18.372" rx="3.477" transform="matrix(-1 0 0 -1 887.768 73.394)"/><rect x="95.68" y="27.511" width="36.649" height="18.372" rx="3.477" transform="matrix(-1 0 0 -1 228.009 73.394)"/><rect x="388.873" y="27.511" width="36.649" height="18.372" rx="3.477" transform="matrix(-1 0 0 -1 814.394 73.394)"/><rect x="352.224" y="27.511" width="36.649" height="18.372" rx="3.477" transform="matrix(-1 0 0 -1 741.096 73.394)"/><rect x="315.569" y="27.511" width="36.649" height="18.372" rx="3.477" transform="matrix(-1 0 0 -1 667.786 73.394)"/><rect x="278.92" y="27.511" width="36.649" height="18.372" rx="3.477" transform="matrix(-1 0 0 -1 594.488 73.394)"/><rect x="242.233" y="27.511" width="36.649" height="18.372" rx="3.477" transform="matrix(-1 0 0 -1 521.115 73.394)"/><rect x="205.584" y="27.511" width="36.649" height="18.372" rx="3.477" transform="matrix(-1 0 0 -1 447.817 73.394)"/><rect x="168.978" y="27.511" width="36.649" height="18.372" rx="3.477" transform="matrix(-1 0 0 -1 374.605 73.394)"/><rect x="132.329" y="27.511" width="36.649" height="18.372" rx="3.477" transform="matrix(-1 0 0 -1 301.307 73.394)"/><rect x="443.908" y="9.139" width="36.649" height="18.372" rx="3.477" transform="matrix(-1 0 0 -1 924.466 36.65)"/><rect x="407.259" y="9.139" width="36.649" height="18.372" rx="3.477" transform="matrix(-1 0 0 -1 851.168 36.65)"/><rect x="370.573" y="9.139" width="36.649" height="18.372" rx="3.477" transform="matrix(-1 0 0 -1 777.795 36.65)"/><rect x="333.924" y="9.139" width="36.649" height="18.372" rx="3.477" transform="matrix(-1 0 0 -1 704.496 36.65)"/><rect x="297.269" y="9.139" width="36.649" height="18.372" rx="3.477" transform="matrix(-1 0 0 -1 631.187 36.65)"/><rect x="260.62" y="9.139" width="36.649" height="18.372" rx="3.477" transform="matrix(-1 0 0 -1 557.888 36.65)"/><rect x="223.933" y="9.139" width="36.649" height="18.372" rx="3.477" transform="matrix(-1 0 0 -1 484.515 36.65)"/><rect x="187.284" y="9.139" width="36.649" height="18.372" rx="3.477" transform="matrix(-1 0 0 -1 411.217 36.65)"/><rect x="150.678" y="9.139" width="36.649" height="18.372" rx="3.477" transform="matrix(-1 0 0 -1 338.006 36.65)"/><rect x="114.029" y="9.139" width="36.649" height="18.372" rx="3.477" transform="matrix(-1 0 0 -1 264.707 36.65)"/><rect x="828.742" y="137.726" width="36.649" height="18.372" rx="3.477" transform="matrix(-1 0 0 -1 1694.134 293.824)"/><rect x="792.093" y="137.726" width="36.649" height="18.372" rx="3.477" transform="matrix(-1 0 0 -1 1620.836 293.824)"/><rect x="462.214" y="137.726" width="36.649" height="18.372" rx="3.477" transform="matrix(-1 0 0 -1 961.077 293.824)"/><rect x="755.407" y="137.726" width="36.649" height="18.372" rx="3.477" transform="matrix(-1 0 0 -1 1547.462 293.824)"/><rect x="718.758" y="137.726" width="36.649" height="18.372" rx="3.477" transform="matrix(-1 0 0 -1 1474.164 293.824)"/><rect x="682.103" y="137.726" width="36.649" height="18.372" rx="3.477" transform="matrix(-1 0 0 -1 1400.854 293.824)"/><rect x="645.454" y="137.726" width="36.649" height="18.372" rx="3.477" transform="matrix(-1 0 0 -1 1327.556 293.824)"/><rect x="608.767" y="137.726" width="36.649" height="18.372" rx="3.477" transform="matrix(-1 0 0 -1 1254.183 293.824)"/><rect x="572.118" y="137.726" width="36.649" height="18.372" rx="3.477" transform="matrix(-1 0 0 -1 1180.885 293.824)"/><rect x="535.512" y="137.726" width="36.649" height="18.372" rx="3.477" transform="matrix(-1 0 0 -1 1107.673 293.824)"/><rect x="498.863" y="137.726" width="36.649" height="18.372" rx="3.477" transform="matrix(-1 0 0 -1 1034.375 293.824)"/><rect x="810.442" y="119.372" width="36.649" height="18.372" rx="3.477" transform="matrix(-1 0 0 -1 1657.534 257.116)"/><rect x="773.793" y="119.372" width="36.649" height="18.372" rx="3.477" transform="matrix(-1 0 0 -1 1584.236 257.116)"/><rect x="737.107" y="119.372" width="36.649" height="18.372" rx="3.477" transform="matrix(-1 0 0 -1 1510.862 257.116)"/><rect x="700.458" y="119.372" width="36.649" height="18.372" rx="3.477" transform="matrix(-1 0 0 -1 1437.564 257.116)"/><rect x="663.803" y="119.372" width="36.649" height="18.372" rx="3.477" transform="matrix(-1 0 0 -1 1364.255 257.116)"/><rect x="627.154" y="119.372" width="36.649" height="18.372" rx="3.477" transform="matrix(-1 0 0 -1 1290.956 257.116)"/><rect x="590.467" y="119.372" width="36.649" height="18.372" rx="3.477" transform="matrix(-1 0 0 -1 1217.583 257.116)"/><rect x="553.818" y="119.372" width="36.649" height="18.372" rx="3.477" transform="matrix(-1 0 0 -1 1144.285 257.116)"/><rect x="517.212" y="119.372" width="36.649" height="18.372" rx="3.477" transform="matrix(-1 0 0 -1 1071.073 257.116)"/><rect x="480.563" y="119.372" width="36.649" height="18.372" rx="3.477" transform="matrix(-1 0 0 -1 997.775 257.116)"/><rect x="828.742" y="101" width="36.649" height="18.372" rx="3.477" transform="matrix(-1 0 0 -1 1694.134 220.372)"/><rect x="792.093" y="101" width="36.649" height="18.372" rx="3.477" transform="matrix(-1 0 0 -1 1620.836 220.372)"/><rect x="462.214" y="101" width="36.649" height="18.372" rx="3.477" transform="matrix(-1 0 0 -1 961.077 220.372)"/><rect x="755.407" y="101" width="36.649" height="18.372" rx="3.477" transform="matrix(-1 0 0 -1 1547.462 220.372)"/><rect x="718.758" y="101" width="36.649" height="18.372" rx="3.477" transform="matrix(-1 0 0 -1 1474.164 220.372)"/><rect x="682.103" y="101" width="36.649" height="18.372" rx="3.477" transform="matrix(-1 0 0 -1 1400.854 220.372)"/><rect x="645.454" y="101" width="36.649" height="18.372" rx="3.477" transform="matrix(-1 0 0 -1 1327.556 220.372)"/><rect x="608.767" y="101" width="36.649" height="18.372" rx="3.477" transform="matrix(-1 0 0 -1 1254.183 220.372)"/><rect x="572.118" y="101" width="36.649" height="18.372" rx="3.477" transform="matrix(-1 0 0 -1 1180.885 220.372)"/><rect x="535.512" y="101" width="36.649" height="18.372" rx="3.477" transform="matrix(-1 0 0 -1 1107.673 220.372)"/><rect x="498.863" y="101" width="36.649" height="18.372" rx="3.477" transform="matrix(-1 0 0 -1 1034.375 220.372)"/><rect x="810.442" y="82.628" width="36.649" height="18.372" rx="3.477" transform="matrix(-1 0 0 -1 1657.534 183.627)"/><rect x="773.793" y="82.628" width="36.649" height="18.372" rx="3.477" transform="matrix(-1 0 0 -1 1584.236 183.627)"/><rect x="737.107" y="82.628" width="36.649" height="18.372" rx="3.477" transform="matrix(-1 0 0 -1 1510.862 183.627)"/><rect x="700.458" y="82.628" width="36.649" height="18.372" rx="3.477" transform="matrix(-1 0 0 -1 1437.564 183.627)"/><rect x="663.803" y="82.628" width="36.649" height="18.372" rx="3.477" transform="matrix(-1 0 0 -1 1364.255 183.627)"/><rect x="627.154" y="82.628" width="36.649" height="18.372" rx="3.477" transform="matrix(-1 0 0 -1 1290.956 183.627)"/><rect x="590.467" y="82.628" width="36.649" height="18.372" rx="3.477" transform="matrix(-1 0 0 -1 1217.583 183.627)"/><rect x="553.818" y="82.628" width="36.649" height="18.372" rx="3.477" transform="matrix(-1 0 0 -1 1144.285 183.627)"/><rect x="517.212" y="82.628" width="36.649" height="18.372" rx="3.477" transform="matrix(-1 0 0 -1 1071.073 183.627)"/><rect x="480.563" y="82.628" width="36.649" height="18.372" rx="3.477" transform="matrix(-1 0 0 -1 997.775 183.627)"/><rect x="828.742" y="64.255" width="36.649" height="18.372" rx="3.477" transform="matrix(-1 0 0 -1 1694.134 146.883)"/><rect x="792.093" y="64.255" width="36.649" height="18.372" rx="3.477" transform="matrix(-1 0 0 -1 1620.836 146.883)"/><rect x="462.214" y="64.255" width="36.649" height="18.372" rx="3.477" transform="matrix(-1 0 0 -1 961.077 146.883)"/><rect x="755.407" y="64.255" width="36.649" height="18.372" rx="3.477" transform="matrix(-1 0 0 -1 1547.462 146.883)"/><rect x="718.758" y="64.255" width="36.649" height="18.372" rx="3.477" transform="matrix(-1 0 0 -1 1474.164 146.883)"/><rect x="682.103" y="64.255" width="36.649" height="18.372" rx="3.477" transform="matrix(-1 0 0 -1 1400.854 146.883)"/><rect x="645.454" y="64.255" width="36.649" height="18.372" rx="3.477" transform="matrix(-1 0 0 -1 1327.556 146.883)"/><rect x="608.767" y="64.255" width="36.649" height="18.372" rx="3.477" transform="matrix(-1 0 0 -1 1254.183 146.883)"/><rect x="572.118" y="64.255" width="36.649" height="18.372" rx="3.477" transform="matrix(-1 0 0 -1 1180.885 146.883)"/><rect x="535.512" y="64.255" width="36.649" height="18.372" rx="3.477" transform="matrix(-1 0 0 -1 1107.673 146.883)"/><rect x="498.863" y="64.255" width="36.649" height="18.372" rx="3.477" transform="matrix(-1 0 0 -1 1034.375 146.883)"/><rect x="810.442" y="45.883" width="36.649" height="18.372" rx="3.477" transform="matrix(-1 0 0 -1 1657.534 110.139)"/><rect x="773.793" y="45.883" width="36.649" height="18.372" rx="3.477" transform="matrix(-1 0 0 -1 1584.236 110.139)"/><rect x="737.107" y="45.883" width="36.649" height="18.372" rx="3.477" transform="matrix(-1 0 0 -1 1510.862 110.139)"/><rect x="700.458" y="45.883" width="36.649" height="18.372" rx="3.477" transform="matrix(-1 0 0 -1 1437.564 110.139)"/><rect x="663.803" y="45.883" width="36.649" height="18.372" rx="3.477" transform="matrix(-1 0 0 -1 1364.255 110.139)"/><rect x="627.154" y="45.883" width="36.649" height="18.372" rx="3.477" transform="matrix(-1 0 0 -1 1290.956 110.139)"/><rect x="590.467" y="45.883" width="36.649" height="18.372" rx="3.477" transform="matrix(-1 0 0 -1 1217.583 110.139)"/><rect x="553.818" y="45.883" width="36.649" height="18.372" rx="3.477" transform="matrix(-1 0 0 -1 1144.285 110.139)"/><rect x="517.212" y="45.883" width="36.649" height="18.372" rx="3.477" transform="matrix(-1 0 0 -1 1071.073 110.139)"/><rect x="480.563" y="45.883" width="36.649" height="18.372" rx="3.477" transform="matrix(-1 0 0 -1 997.775 110.139)"/><rect x="828.742" y="27.511" width="36.649" height="18.372" rx="3.477" transform="matrix(-1 0 0 -1 1694.134 73.394)"/><rect x="792.093" y="27.511" width="36.649" height="18.372" rx="3.477" transform="matrix(-1 0 0 -1 1620.836 73.394)"/><rect x="462.214" y="27.511" width="36.649" height="18.372" rx="3.477" transform="matrix(-1 0 0 -1 961.077 73.394)"/><rect x="755.407" y="27.511" width="36.649" height="18.372" rx="3.477" transform="matrix(-1 0 0 -1 1547.462 73.394)"/><rect x="718.758" y="27.511" width="36.649" height="18.372" rx="3.477" transform="matrix(-1 0 0 -1 1474.164 73.394)"/><rect x="682.103" y="27.511" width="36.649" height="18.372" rx="3.477" transform="matrix(-1 0 0 -1 1400.854 73.394)"/><rect x="645.454" y="27.511" width="36.649" height="18.372" rx="3.477" transform="matrix(-1 0 0 -1 1327.556 73.394)"/><rect x="608.767" y="27.511" width="36.649" height="18.372" rx="3.477" transform="matrix(-1 0 0 -1 1254.183 73.394)"/><rect x="572.118" y="27.511" width="36.649" height="18.372" rx="3.477" transform="matrix(-1 0 0 -1 1180.885 73.394)"/><rect x="535.512" y="27.511" width="36.649" height="18.372" rx="3.477" transform="matrix(-1 0 0 -1 1107.673 73.394)"/><rect x="498.863" y="27.511" width="36.649" height="18.372" rx="3.477" transform="matrix(-1 0 0 -1 1034.375 73.394)"/><rect x="810.442" y="9.139" width="36.649" height="18.372" rx="3.477" transform="matrix(-1 0 0 -1 1657.534 36.65)"/><rect x="773.793" y="9.139" width="36.649" height="18.372" rx="3.477" transform="matrix(-1 0 0 -1 1584.236 36.65)"/><rect x="737.107" y="9.139" width="36.649" height="18.372" rx="3.477" transform="matrix(-1 0 0 -1 1510.862 36.65)"/><rect x="700.458" y="9.139" width="36.649" height="18.372" rx="3.477" transform="matrix(-1 0 0 -1 1437.564 36.65)"/><rect x="663.803" y="9.139" width="36.649" height="18.372" rx="3.477" transform="matrix(-1 0 0 -1 1364.255 36.65)"/><rect x="627.154" y="9.139" width="36.649" height="18.372" rx="3.477" transform="matrix(-1 0 0 -1 1290.956 36.65)"/><rect x="590.467" y="9.139" width="36.649" height="18.372" rx="3.477" transform="matrix(-1 0 0 -1 1217.583 36.65)"/><rect x="553.818" y="9.139" width="36.649" height="18.372" rx="3.477" transform="matrix(-1 0 0 -1 1144.285 36.65)"/><rect x="517.212" y="9.139" width="36.649" height="18.372" rx="3.477" transform="matrix(-1 0 0 -1 1071.073 36.65)"/><rect x="480.563" y="9.139" width="36.649" height="18.372" rx="3.477" transform="matrix(-1 0 0 -1 997.775 36.65)"/><rect x="1195.334" y="137.726" width="36.649" height="18.372" rx="3.477" transform="matrix(-1 0 0 -1 2427.316 293.824)"/><rect x="1158.684" y="137.726" width="36.649" height="18.372" rx="3.477" transform="matrix(-1 0 0 -1 2354.018 293.824)"/><rect x="828.805" y="137.726" width="36.649" height="18.372" rx="3.477" transform="matrix(-1 0 0 -1 1694.259 293.824)"/><rect x="1121.998" y="137.726" width="36.649" height="18.372" rx="3.477" transform="matrix(-1 0 0 -1 2280.645 293.824)"/><rect x="1085.349" y="137.726" width="36.649" height="18.372" rx="3.477" transform="matrix(-1 0 0 -1 2207.347 293.824)"/><rect x="1048.694" y="137.726" width="36.649" height="18.372" rx="3.477" transform="matrix(-1 0 0 -1 2134.037 293.824)"/><rect x="1012.045" y="137.726" width="36.649" height="18.372" rx="3.477" transform="matrix(-1 0 0 -1 2060.739 293.824)"/><rect x="975.358" y="137.726" width="36.649" height="18.372" rx="3.477" transform="matrix(-1 0 0 -1 1987.365 293.824)"/><rect x="938.709" y="137.726" width="36.649" height="18.372" rx="3.477" transform="matrix(-1 0 0 -1 1914.067 293.824)"/><rect x="902.103" y="137.726" width="36.649" height="18.372" rx="3.477" transform="matrix(-1 0 0 -1 1840.856 293.824)"/><rect x="865.454" y="137.726" width="36.649" height="18.372" rx="3.477" transform="matrix(-1 0 0 -1 1767.558 293.824)"/><rect x="1177.034" y="119.372" width="36.649" height="18.372" rx="3.477" transform="matrix(-1 0 0 -1 2390.716 257.116)"/><rect x="1140.385" y="119.372" width="36.649" height="18.372" rx="3.477" transform="matrix(-1 0 0 -1 2317.418 257.116)"/><rect x="1103.698" y="119.372" width="36.649" height="18.372" rx="3.477" transform="matrix(-1 0 0 -1 2244.045 257.116)"/><rect x="1067.049" y="119.372" width="36.649" height="18.372" rx="3.477" transform="matrix(-1 0 0 -1 2170.747 257.116)"/><rect x="1030.394" y="119.372" width="36.649" height="18.372" rx="3.477" transform="matrix(-1 0 0 -1 2097.437 257.116)"/><rect x="993.745" y="119.372" width="36.649" height="18.372" rx="3.477" transform="matrix(-1 0 0 -1 2024.139 257.116)"/><rect x="957.058" y="119.372" width="36.649" height="18.372" rx="3.477" transform="matrix(-1 0 0 -1 1950.765 257.116)"/><rect x="920.409" y="119.372" width="36.649" height="18.372" rx="3.477" transform="matrix(-1 0 0 -1 1877.467 257.116)"/><rect x="883.803" y="119.372" width="36.649" height="18.372" rx="3.477" transform="matrix(-1 0 0 -1 1804.256 257.116)"/><rect x="847.154" y="119.372" width="36.649" height="18.372" rx="3.477" transform="matrix(-1 0 0 -1 1730.958 257.116)"/><rect x="1195.334" y="101" width="36.649" height="18.372" rx="3.477" transform="matrix(-1 0 0 -1 2427.316 220.372)"/><rect x="1158.684" y="101" width="36.649" height="18.372" rx="3.477" transform="matrix(-1 0 0 -1 2354.018 220.372)"/><rect x="828.805" y="101" width="36.649" height="18.372" rx="3.477" transform="matrix(-1 0 0 -1 1694.259 220.372)"/><rect x="1121.998" y="101" width="36.649" height="18.372" rx="3.477" transform="matrix(-1 0 0 -1 2280.645 220.372)"/><rect x="1085.349" y="101" width="36.649" height="18.372" rx="3.477" transform="matrix(-1 0 0 -1 2207.347 220.372)"/><rect x="1048.694" y="101" width="36.649" height="18.372" rx="3.477" transform="matrix(-1 0 0 -1 2134.037 220.372)"/><rect x="1012.045" y="101" width="36.649" height="18.372" rx="3.477" transform="matrix(-1 0 0 -1 2060.739 220.372)"/><rect x="975.358" y="101" width="36.649" height="18.372" rx="3.477" transform="matrix(-1 0 0 -1 1987.365 220.372)"/><rect x="938.709" y="101" width="36.649" height="18.372" rx="3.477" transform="matrix(-1 0 0 -1 1914.067 220.372)"/><rect x="902.103" y="101" width="36.649" height="18.372" rx="3.477" transform="matrix(-1 0 0 -1 1840.856 220.372)"/><rect x="865.454" y="101" width="36.649" height="18.372" rx="3.477" transform="matrix(-1 0 0 -1 1767.558 220.372)"/><rect x="1177.034" y="82.628" width="36.649" height="18.372" rx="3.477" transform="matrix(-1 0 0 -1 2390.716 183.627)"/><rect x="1140.385" y="82.628" width="36.649" height="18.372" rx="3.477" transform="matrix(-1 0 0 -1 2317.418 183.627)"/><rect x="1103.698" y="82.628" width="36.649" height="18.372" rx="3.477" transform="matrix(-1 0 0 -1 2244.045 183.627)"/><rect x="1067.049" y="82.628" width="36.649" height="18.372" rx="3.477" transform="matrix(-1 0 0 -1 2170.747 183.627)"/><rect x="1030.394" y="82.628" width="36.649" height="18.372" rx="3.477" transform="matrix(-1 0 0 -1 2097.437 183.627)"/><rect x="993.745" y="82.628" width="36.649" height="18.372" rx="3.477" transform="matrix(-1 0 0 -1 2024.139 183.627)"/><rect x="957.058" y="82.628" width="36.649" height="18.372" rx="3.477" transform="matrix(-1 0 0 -1 1950.765 183.627)"/><rect x="920.409" y="82.628" width="36.649" height="18.372" rx="3.477" transform="matrix(-1 0 0 -1 1877.467 183.627)"/><rect x="883.803" y="82.628" width="36.649" height="18.372" rx="3.477" transform="matrix(-1 0 0 -1 1804.256 183.627)"/><rect x="847.154" y="82.628" width="36.649" height="18.372" rx="3.477" transform="matrix(-1 0 0 -1 1730.958 183.627)"/><rect x="1195.334" y="64.255" width="36.649" height="18.372" rx="3.477" transform="matrix(-1 0 0 -1 2427.316 146.883)"/><rect x="1158.684" y="64.255" width="36.649" height="18.372" rx="3.477" transform="matrix(-1 0 0 -1 2354.018 146.883)"/><rect x="828.805" y="64.255" width="36.649" height="18.372" rx="3.477" transform="matrix(-1 0 0 -1 1694.259 146.883)"/><rect x="1121.998" y="64.255" width="36.649" height="18.372" rx="3.477" transform="matrix(-1 0 0 -1 2280.645 146.883)"/><rect x="1085.349" y="64.255" width="36.649" height="18.372" rx="3.477" transform="matrix(-1 0 0 -1 2207.347 146.883)"/><rect x="1048.694" y="64.255" width="36.649" height="18.372" rx="3.477" transform="matrix(-1 0 0 -1 2134.037 146.883)"/><rect x="1012.045" y="64.255" width="36.649" height="18.372" rx="3.477" transform="matrix(-1 0 0 -1 2060.739 146.883)"/><rect x="975.358" y="64.255" width="36.649" height="18.372" rx="3.477" transform="matrix(-1 0 0 -1 1987.365 146.883)"/><rect x="938.709" y="64.255" width="36.649" height="18.372" rx="3.477" transform="matrix(-1 0 0 -1 1914.067 146.883)"/><rect x="902.103" y="64.255" width="36.649" height="18.372" rx="3.477" transform="matrix(-1 0 0 -1 1840.856 146.883)"/><rect x="865.454" y="64.255" width="36.649" height="18.372" rx="3.477" transform="matrix(-1 0 0 -1 1767.558 146.883)"/><rect x="1177.034" y="45.883" width="36.649" height="18.372" rx="3.477" transform="matrix(-1 0 0 -1 2390.716 110.139)"/><rect x="1140.385" y="45.883" width="36.649" height="18.372" rx="3.477" transform="matrix(-1 0 0 -1 2317.418 110.139)"/><rect x="1103.698" y="45.883" width="36.649" height="18.372" rx="3.477" transform="matrix(-1 0 0 -1 2244.045 110.139)"/><rect x="1067.049" y="45.883" width="36.649" height="18.372" rx="3.477" transform="matrix(-1 0 0 -1 2170.747 110.139)"/><rect x="1030.394" y="45.883" width="36.649" height="18.372" rx="3.477" transform="matrix(-1 0 0 -1 2097.437 110.139)"/><rect x="993.745" y="45.883" width="36.649" height="18.372" rx="3.477" transform="matrix(-1 0 0 -1 2024.139 110.139)"/><rect x="957.058" y="45.883" width="36.649" height="18.372" rx="3.477" transform="matrix(-1 0 0 -1 1950.765 110.139)"/><rect x="920.409" y="45.883" width="36.649" height="18.372" rx="3.477" transform="matrix(-1 0 0 -1 1877.467 110.139)"/><rect x="883.803" y="45.883" width="36.649" height="18.372" rx="3.477" transform="matrix(-1 0 0 -1 1804.256 110.139)"/><rect x="847.154" y="45.883" width="36.649" height="18.372" rx="3.477" transform="matrix(-1 0 0 -1 1730.958 110.139)"/><rect x="1195.334" y="27.511" width="36.649" height="18.372" rx="3.477" transform="matrix(-1 0 0 -1 2427.316 73.394)"/><rect x="1158.684" y="27.511" width="36.649" height="18.372" rx="3.477" transform="matrix(-1 0 0 -1 2354.018 73.394)"/><rect x="828.805" y="27.511" width="36.649" height="18.372" rx="3.477" transform="matrix(-1 0 0 -1 1694.259 73.394)"/><rect x="1121.998" y="27.511" width="36.649" height="18.372" rx="3.477" transform="matrix(-1 0 0 -1 2280.645 73.394)"/><rect x="1085.349" y="27.511" width="36.649" height="18.372" rx="3.477" transform="matrix(-1 0 0 -1 2207.347 73.394)"/><rect x="1048.694" y="27.511" width="36.649" height="18.372" rx="3.477" transform="matrix(-1 0 0 -1 2134.037 73.394)"/><rect x="1012.045" y="27.511" width="36.649" height="18.372" rx="3.477" transform="matrix(-1 0 0 -1 2060.739 73.394)"/><rect x="975.358" y="27.511" width="36.649" height="18.372" rx="3.477" transform="matrix(-1 0 0 -1 1987.365 73.394)"/><rect x="938.709" y="27.511" width="36.649" height="18.372" rx="3.477" transform="matrix(-1 0 0 -1 1914.067 73.394)"/><rect x="902.103" y="27.511" width="36.649" height="18.372" rx="3.477" transform="matrix(-1 0 0 -1 1840.856 73.394)"/><rect x="865.454" y="27.511" width="36.649" height="18.372" rx="3.477" transform="matrix(-1 0 0 -1 1767.558 73.394)"/><rect x="1177.034" y="9.139" width="36.649" height="18.372" rx="3.477" transform="matrix(-1 0 0 -1 2390.716 36.65)"/><rect x="1140.385" y="9.139" width="36.649" height="18.372" rx="3.477" transform="matrix(-1 0 0 -1 2317.418 36.65)"/><rect x="1103.698" y="9.139" width="36.649" height="18.372" rx="3.477" transform="matrix(-1 0 0 -1 2244.045 36.65)"/><rect x="1067.049" y="9.139" width="36.649" height="18.372" rx="3.477" transform="matrix(-1 0 0 -1 2170.747 36.65)"/><rect x="1030.394" y="9.139" width="36.649" height="18.372" rx="3.477" transform="matrix(-1 0 0 -1 2097.437 36.65)"/><rect x="993.745" y="9.139" width="36.649" height="18.372" rx="3.477" transform="matrix(-1 0 0 -1 2024.139 36.65)"/><rect x="957.058" y="9.139" width="36.649" height="18.372" rx="3.477" transform="matrix(-1 0 0 -1 1950.765 36.65)"/><rect x="920.409" y="9.139" width="36.649" height="18.372" rx="3.477" transform="matrix(-1 0 0 -1 1877.467 36.65)"/><rect x="883.803" y="9.139" width="36.649" height="18.372" rx="3.477" transform="matrix(-1 0 0 -1 1804.256 36.65)"/><rect x="847.154" y="9.139" width="36.649" height="18.372" rx="3.477" transform="matrix(-1 0 0 -1 1730.958 36.65)"/><rect x="1195.358" y="137.726" width="36.649" height="18.372" rx="3.477" transform="matrix(-1 0 0 -1 2427.365 293.824)"/><rect x="1195.358" y="101" width="36.649" height="18.372" rx="3.477" transform="matrix(-1 0 0 -1 2427.365 220.372)"/><rect x="1195.358" y="64.255" width="36.649" height="18.372" rx="3.477" transform="matrix(-1 0 0 -1 2427.365 146.883)"/><rect x="1195.358" y="27.511" width="36.649" height="18.372" rx="3.477" transform="matrix(-1 0 0 -1 2427.365 73.394)"/></g></g></g></g><path d="M-59.616-125.443h503.815c28.921 0 52.366 23.445 52.366 52.366s23.445 52.366 52.366 52.366H708.6c33.349 0 60.383 27.034 60.383 60.383s27.034 60.383 60.383 60.383h48.709c39.629 0 71.754 32.125 71.754 71.754v26.062c0 39.629-32.125 71.754-71.754 71.754h-311.56c-21.993 0-39.823-17.829-39.823-39.823s-17.829-39.823-39.823-39.823H252.034a19.53 19.53 0 0 1-19.526-19.526 19.53 19.53 0 0 0-19.526-19.526H-59.616a19.53 19.53 0 0 1-19.526-19.526v-237.318a19.53 19.53 0 0 1 19.526-19.526z" stroke-dasharray="0 10.007" class="C L O P Q"/><path d="M77.408 38.003v142.582c0 5.007 4.059 9.065 9.065 9.065h64.613V38.003H77.408z" class="H"/><path d="M77.408 53.112v127.474c0 5.007 4.059 9.065 9.065 9.065h64.613V53.112H77.408z" fill="#fae5db"/><g class="E"><path d="M78.919,38.005c0-19.511,15.817-35.328,35.328-35.328s35.328,15.817,35.328,35.328" fill="#57c8cb"/></g><g class="H"><path d="M151.087 38.003h-3.022c0-18.647-15.171-33.818-33.818-33.818S80.429 19.356 80.429 38.003h-3.022c0-20.314 16.527-36.839 36.839-36.839s36.839 16.525 36.839 36.839z"/><path d="M132.155 38.003h-3.022c0-18.331-6.817-33.818-14.886-33.818S99.361 19.671 99.361 38.003h-3.022c0-20.656 7.866-36.839 17.908-36.839s17.908 16.183 17.908 36.839z"/></g><g class="V"><rect x="84.03" y="45.929" width="61.278" height="15.46" rx="3.022"/><rect x="84.03" y="65.532" width="61.278" height="15.46" rx="3.022"/></g><g clip-path="url(#C)" class="M"><path d="M118.631 112.967h-5.434L148.21 11.779h5.434l-35.013 101.188zm-16.891-6.654H76.862l32.711-94.534h24.878l-32.711 94.534z" class="N"/></g><use href="#X" fill="#fcf3f0"/><use href="#X" class="H"/><g clip-path="url(#D)" class="H"><path d="M241.605 183.141l-73.594-67.883c-10.937-10.088-28.645-2.331-28.645 12.548v76.638a11.11 11.11 0 0 0 11.106 11.106h78.468c17.007 0 25.166-20.878 12.665-32.409z"/></g><path d="M211.73,166.712l-49.879-46.009c-8.585-7.918-22.485-1.829-22.485,9.849v51.237c0,4.342,3.52,7.861,7.861,7.861h55.539c12.037,0,17.812-14.777,8.964-22.939Z" class="R"/><path d="M208.524 169.17l-48.031-44.303c-8.066-7.44-21.127-1.719-21.127 9.255v48.143a7.39 7.39 0 0 0 7.386 7.386h53.768c10.747 0 15.903-13.194 8.003-20.48z" class="M N"/><g clip-path="url(#E)" class="M"><path style="mix-blend-mode:overlay" d="M130.285 190.03h-18.749l28.479-76.199h18.749l-28.479 76.199z" class="E"/><path d="M169.495 190.562h-9.359l28.48-76.199h9.358l-28.479 76.199zm55.498 0h-45.862l28.479-76.199h45.862l-28.479 76.199z" class="N"/></g><rect x="113.591" y="85.969" width="56.631" height="103.682" rx="8.541" transform="matrix(-1 0 0 -1 283.814 275.619)" class="H"/><path d="M158.113 172.849h-32.148a4.07 4.07 0 0 1-4.065-4.065V95.123a7.28 7.28 0 0 1 7.272-7.272h25.734a7.28 7.28 0 0 1 7.272 7.272v73.661a4.07 4.07 0 0 1-4.065 4.065z" fill="#edf3f3"/><path d="M158.113 170.966h-32.148a4.07 4.07 0 0 1-4.065-4.065V93.24a7.28 7.28 0 0 1 7.272-7.272h25.734a7.28 7.28 0 0 1 7.272 7.272v73.661a4.07 4.07 0 0 1-4.065 4.065z" class="R"/><path d="M157.68 168.792h-32.144a3.64 3.64 0 0 1-3.636-3.636V93.24a7.28 7.28 0 0 1 7.272-7.272h23.89a7.28 7.28 0 0 1 7.272 7.272v72.898c0 1.465-1.189 2.654-2.654 2.654z" class="V"/><g clip-path="url(#F)"><g stroke="#071e2d" class="C W Y"><path d="M121.887 99.004l40.277-.02m-40.272 12.111l40.277-.019m-40.272 5.047l40.277-.019"/></g><use href="#Y" class="R"/><g stroke="#071e2d" class="C W Y"><path d="M121.892 132.8l40.277-.019m-40.272 5.047l40.277-.019"/></g><path d="M121.892 132.751h40.282v5.009h-40.282z" class="R"/><g class="M"><path d="M150.514 179.98h-10.886l32.819-94.846h10.886l-32.819 94.846zm-21.212 6.675h-5.434l35.013-101.187h5.434l-35.013 101.187zm-16.89-6.654H87.534l32.711-94.533h24.878l-32.711 94.533z" class="N"/></g></g><g clip-path="url(#G)" class="B X"><path d="M210.347 174.755l-12.915-9.412c-7.133-5.198-7.939-15.538-1.698-21.779l4.518-4.518h20.19l4.518 4.518c6.241 6.241 5.435 16.581-1.698 21.779l-12.915 9.412z"/></g><path d="M210.335 145.07c0 5.591 2.22 10.954 6.175 14.909s9.318 6.175 14.911 6.175h21.208v-13.938c0-5.593-2.22-10.957-6.175-14.911s-9.318-6.175-14.911-6.175h-21.208v13.941z" class="B K"/><g clip-path="url(#H)"><path d="M210.335 131.129l47.197 40.375h-47.197v-40.375z" class="B D"/><path d="M208.662 133.181l3.342-4.095 42.299 34.517-3.342 4.095z" class="G"/><path d="M252.629 141.042v-5.287h-15.863a2.64 2.64 0 0 0-2.641 2.641v.005a2.64 2.64 0 0 0 2.641 2.641h15.863z" class="B D J"/></g><path d="M210.335 145.07c0 5.591-2.22 10.954-6.175 14.909s-9.318 6.175-14.911 6.175h-21.208v-13.938c0-5.593 2.22-10.957 6.175-14.911s9.318-6.175 14.911-6.175h21.208v13.941z" class="B K"/><g clip-path="url(#I)"><path d="M210.335 131.129l-47.197 40.375h47.197v-40.375z" class="B D"/><path d="M166.369 163.605l42.294-34.523 3.343 4.095-42.294 34.523z" class="G"/><path d="M168.041 141.042v-5.287h15.86c.7 0 1.375.28 1.869.775a2.64 2.64 0 0 1 .775 1.869c0 .701-.278 1.375-.775 1.869s-1.168.775-1.869.775h-15.86z" class="B D J"/></g><path d="M210.347 166.154l-12.667-9.231c-6.997-5.099-7.787-15.241-1.666-21.362l4.431-4.431h19.804l4.431 4.431c6.122 6.122 5.331 16.263-1.666 21.362l-12.667 9.231z" class="B G"/><g clip-path="url(#J)"><path d="M210.347 129.525h19.985v37.931h-19.985z" class="D"/><path d="M207.693 127.311h5.287v46.106h-5.287z" class="S"/><g class="E D"><path d="M191.592 150.442a2.64 2.64 0 0 1-1.452-4.853l10.746-7.049a2.64 2.64 0 1 1 2.898 4.419l-10.746 7.049c-.447.294-.95.434-1.446.434z"/></g><g class="E I"><path d="M229.077 150.442a2.62 2.62 0 0 1-1.446-.434l-10.742-7.049a2.64 2.64 0 0 1-.761-3.66c.799-1.217 2.427-1.566 3.659-.759l10.742 7.049a2.64 2.64 0 0 1-1.452 4.853z"/></g></g><g opacity=".33" fill="#3d9056"><path d="M1069.354 76.582a2.82 2.82 0 0 1-2.818-2.825v-8.844a2.82 2.82 0 0 1 2.818-2.825 2.82 2.82 0 0 1 2.818 2.825v8.844a2.82 2.82 0 0 1-2.818 2.825z"/><use href="#Z"/><path d="M1058.567 76.582a2.82 2.82 0 0 1-2.818-2.825v-5.895a2.82 2.82 0 0 1 2.818-2.825 2.82 2.82 0 0 1 2.818 2.825v5.895a2.82 2.82 0 0 1-2.818 2.825zm42.534 23.343a2.82 2.82 0 0 1-2.818-2.825v-8.844a2.82 2.82 0 0 1 2.818-2.825 2.82 2.82 0 0 1 2.818 2.825V97.1a2.82 2.82 0 0 1-2.818 2.825z"/><use href="#a"/><path d="M1090.316 99.925a2.82 2.82 0 0 1-2.818-2.825v-5.898a2.82 2.82 0 0 1 2.818-2.825 2.82 2.82 0 0 1 2.818 2.825V97.1a2.82 2.82 0 0 1-2.818 2.825zm21.691-48.896a2.82 2.82 0 0 1-2.818-2.825V39.36a2.82 2.82 0 0 1 2.818-2.825 2.82 2.82 0 0 1 2.818 2.825v8.844a2.82 2.82 0 0 1-2.818 2.825z"/><use href="#b"/><path d="M1101.222 51.029a2.82 2.82 0 0 1-2.818-2.825v-5.898a2.82 2.82 0 0 1 2.818-2.825 2.82 2.82 0 0 1 2.818 2.825v5.898a2.82 2.82 0 0 1-2.818 2.825z"/></g><g clip-path="url(#K)" class="G"><path d="M66.951 147.641l4.134-5.066 52.328 42.7-4.134 5.066z"/></g><g clip-path="url(#L)" class="G"><path d="M14.633 185.279l52.322-42.708 4.135 5.066-52.322 42.708z"/></g><g clip-path="url(#M)"><path d="M69.036 143.119h24.723v46.924H69.036z" class="D"/><path d="M65.753 140.38h6.54v57.037h-6.54z" class="S"/></g><path d="M1230.117,93.941h-10.771l-2.919,26.658c-.162,1.477.995,2.768,2.482,2.768h11.699c1.488,0,2.646-1.294,2.481-2.773l-2.971-26.653Z" fill="#684b48"/><g clip-path="url(#N)" class="B X"><use href="#c"/></g><use href="#d" class="B K"/><g clip-path="url(#O)"><path d="M1224.758 83.467l32.179 27.528h-32.179V83.467z" class="B D"/><use href="#e" class="G"/><g class="B"><g class="I"><path d="M1241.579 108.904h-3.605v-6.063c0-.995.807-1.802 1.802-1.802s1.802.807 1.802 1.802v6.063zm-7.209.267h-3.605V97.208a1.8 1.8 0 0 1 1.8-1.8h.004a1.8 1.8 0 0 1 1.8 1.8v11.963z" class="E"/></g><g class="D"><path d="M1253.594,97.244v-3.413h-5.502c-.452,0-.887.18-1.208.501-.319.319-.499.753-.499,1.206h0c0,.454.18.887.499,1.208.321.321.755.499,1.208.499h5.502Z" class="J"/><use href="#f" class="J"/></g></g></g><use href="#g" class="B K"/><g clip-path="url(#P)"><path d="M1224.758 83.467l-32.18 27.528h32.18V83.467z" class="B D"/><use href="#h" class="G"/><g class="B"><g class="I"><path d="M1207.937 108.904h3.605v-6.063c0-.995-.807-1.802-1.802-1.802s-1.802.807-1.802 1.802v6.063zm7.209.267h3.605V97.209a1.8 1.8 0 0 0-.528-1.274c-.337-.337-.797-.528-1.274-.528s-.937.191-1.274.528a1.8 1.8 0 0 0-.528 1.274v11.962z" class="E"/></g><g class="D"><path d="M1195.922 97.435V93.83h5.409a1.79 1.79 0 0 1 1.272.528c.339.337.528.795.528 1.272v.004a1.8 1.8 0 0 1-1.8 1.8h-5.409z" class="J"/><use href="#i" class="J"/></g></g></g><use href="#j" class="B G"/><g clip-path="url(#Q)"><path d="M1224.766 82.373h13.626v25.861h-13.626z" class="D"/><path d="M1222.956 80.864h3.605v31.435h-3.605z" class="S"/><g class="E D"><use href="#k"/></g><g class="E I"><use href="#l"/></g><path d="M1211.978 104.853a1.8 1.8 0 0 1-.99-3.309l7.326-4.806a1.8 1.8 0 1 1 1.976 3.013l-7.326 4.806c-.305.201-.648.296-.986.296z" class="D E"/><g class="E I"><path d="M1237.536 104.853c-.338 0-.681-.095-.986-.296l-7.324-4.806c-.833-.546-1.065-1.663-.519-2.496s1.654-1.068 2.495-.517l7.324 4.806c.833.546 1.065 1.663.519 2.496a1.8 1.8 0 0 1-1.509.813z"/></g></g><path d="M1212.801 123.368h24.552" class="L O P Q T U"/><path d="M944.08 41.552h-10.771L930.39 68.21c-.162 1.477.995 2.768 2.482 2.768h11.699c1.488 0 2.646-1.294 2.481-2.773l-2.971-26.653z" fill="#684b48"/><g clip-path="url(#R)" class="B X"><path d="M938.729 60.823l-8.805-6.417c-4.863-3.544-5.413-10.594-1.158-14.849l3.08-3.08h13.766l3.08 3.08c4.255 4.255 3.706 11.305-1.158 14.849l-8.805 6.417z"/></g><path d="M938.721 40.584c0 3.812 1.514 7.469 4.21 10.165s6.353 4.21 10.167 4.21h14.459v-9.503a14.38 14.38 0 0 0-4.21-10.167c-2.696-2.694-6.353-4.21-10.167-4.21h-14.459v9.505z" class="B K"/><g clip-path="url(#S)"><path d="M938.721 31.079L970.9 58.606h-32.179V31.079z" class="B D"/><path d="M937.582 32.479l2.279-2.792 28.84 23.534-2.279 2.792z" class="G"/><g class="B"><g class="I"><path d="M955.542 56.516h-3.605v-6.063c0-.995.807-1.802 1.802-1.802s1.802.807 1.802 1.802v6.063zm-7.209.266h-3.605V44.819a1.8 1.8 0 0 1 1.8-1.8h.004a1.8 1.8 0 0 1 1.8 1.8v11.963z" class="E"/></g><g class="D"><path d="M967.557 44.855v-3.413h-5.502a1.71 1.71 0 0 0-1.208.501c-.319.319-.499.753-.499 1.206h0a1.71 1.71 0 0 0 .499 1.208c.321.321.755.499 1.208.499h5.502zm0-7.018v-3.605h-10.815a1.8 1.8 0 0 0-1.8 1.8v.004a1.8 1.8 0 0 0 1.8 1.8h10.815z" class="J"/></g></g></g><path d="M938.721 40.584c0 3.812-1.514 7.469-4.21 10.165s-6.353 4.21-10.167 4.21h-14.459v-9.503a14.38 14.38 0 0 1 4.21-10.167c2.696-2.694 6.353-4.21 10.167-4.21h14.459v9.505z" class="B K"/><g clip-path="url(#T)"><path d="M938.721 31.079l-32.18 27.527h32.18V31.079z" class="B D"/><path d="M908.745 53.221l28.836-23.538 2.279 2.792-28.836 23.538z" class="G"/><g class="B"><g class="I"><path d="M921.9 56.516h3.605v-6.063c0-.995-.807-1.802-1.802-1.802s-1.802.807-1.802 1.802v6.063zm7.209.266h3.605V44.82a1.8 1.8 0 0 0-.528-1.274c-.337-.337-.797-.528-1.274-.528s-.937.191-1.274.528a1.8 1.8 0 0 0-.528 1.274v11.962z" class="E"/></g><g class="D"><path d="M909.885 45.046v-3.605h5.409a1.79 1.79 0 0 1 1.272.528c.339.337.528.795.528 1.272v.004a1.8 1.8 0 0 1-1.8 1.8h-5.409zm0-7.209v-3.605h10.814c.478 0 .937.191 1.274.528a1.8 1.8 0 0 1 .528 1.274c0 .477-.189.937-.528 1.274a1.81 1.81 0 0 1-1.274.528h-10.814z" class="J"/></g></g></g><path d="M938.729 54.958l-8.637-6.294c-4.77-3.476-5.309-10.391-1.136-14.565l3.021-3.021h13.502l3.021 3.021c4.174 4.174 3.635 11.088-1.136 14.565l-8.637 6.294z" class="B G"/><g clip-path="url(#U)"><path d="M938.729 29.985h13.626v25.861h-13.626z" class="D"/><path d="M936.919 28.475h3.605V59.91h-3.605z" class="S"/><g class="E D"><path d="M925.942 44.246a1.8 1.8 0 0 1-.99-3.309l7.326-4.806a1.8 1.8 0 1 1 1.976 3.013l-7.326 4.806c-.305.201-.648.296-.986.296z"/></g><g class="E I"><path d="M951.499 44.246c-.338 0-.681-.095-.986-.296l-7.324-4.806c-.833-.546-1.065-1.663-.519-2.496s1.654-1.068 2.495-.517l7.324 4.806c.833.546 1.065 1.663.519 2.496a1.8 1.8 0 0 1-1.509.813z"/></g><path d="M925.942 52.464a1.8 1.8 0 0 1-.99-3.309l7.326-4.806a1.8 1.8 0 1 1 1.976 3.013l-7.326 4.806c-.305.201-.648.296-.986.296z" class="D E"/><g class="E I"><path d="M951.499 52.464c-.338 0-.681-.095-.986-.296l-7.324-4.806c-.833-.546-1.065-1.663-.519-2.496s1.654-1.068 2.495-.517l7.324 4.806c.833.546 1.065 1.663.519 2.496a1.8 1.8 0 0 1-1.509.813z"/></g></g><path d="M926.764 70.979h24.552" class="L O P Q T U"/><g clip-path="url(#V)"><g opacity=".25" fill="#7292c1"><circle cx="749.306" cy="88.722" r="19.047"/><circle cx="673.911" cy="107.571" r="17.861"/><path d="M708.632 28.694h5.954v130.983h-5.954z"/><g class="B"><path d="M711.609-1.075c-19.716 0-35.723 16.007-35.723 35.723s16.007 35.723 35.723 35.723 35.723-16.007 35.723-35.723-16.007-35.723-35.723-35.723zm-118.05 89.908a3.29 3.29 0 0 0-3.247-2.744c-1.607 0-2.979 1.16-3.247 2.744l-2.103 12.46a3.29 3.29 0 0 1-5.12 2.159l-9.239-6.392a3.29 3.29 0 0 0-4.261.441c-1.118 1.177-1.21 2.994-.218 4.279l6.034 7.812c.688.89.873 2.07.492 3.129a3.29 3.29 0 0 1-2.374 2.096l-9.851 2.22c-1.285.29-2.147 1.499-2.001 2.808s1.253 2.299 2.569 2.299h14.322 29.993 14.322c1.317 0 2.423-.99 2.569-2.299s-.716-2.518-2.001-2.808l-9.851-2.22c-1.097-.247-1.992-1.037-2.374-2.096a3.29 3.29 0 0 1 .492-3.129l6.034-7.812c.992-1.285.9-3.102-.218-4.279a3.29 3.29 0 0 0-4.261-.441l-9.239 6.392c-.926.64-2.115.763-3.153.326a3.29 3.29 0 0 1-1.967-2.485l-2.103-12.46z"/><path d="M588.436 114.639h3.753l1.689 33.784a3.57 3.57 0 1 1-7.132 0l1.689-33.784zm-73.184-65.538a3.21 3.21 0 0 0-6.328 0l-3.441 20.384c-.17 1.007-.843 1.857-1.784 2.254s-2.019.285-2.859-.296l-15.931-11.022a3.21 3.21 0 0 0-4.365 4.6l10.848 14.047c.624.807.791 1.877.446 2.836s-1.157 1.676-2.152 1.9l-11.957 2.695a3.21 3.21 0 0 0 .705 6.34h15.82 35.665 15.82a3.21 3.21 0 0 0 .705-6.34l-11.957-2.695c-.995-.225-1.806-.941-2.152-1.9a2.98 2.98 0 0 1 .446-2.836l10.848-14.047a3.21 3.21 0 0 0-4.365-4.6l-15.931 11.022c-.84.581-1.918.693-2.859.296s-1.614-1.247-1.784-2.254l-3.441-20.384z"/><path d="M509.856 83.913h4.463l2.091 66.355c.037 1.17-.402 2.305-1.216 3.145s-1.935 1.315-3.105 1.315h-.001c-1.17 0-2.291-.475-3.105-1.315a4.32 4.32 0 0 1-1.216-3.145l2.091-66.355z"/></g><circle cx="464.559" cy="18.324" r="19.427"/><path d="M437.047 59.565h7.495v100.112h-7.495z"/><path d="M440.795 47.252c-16.547 0-29.98 13.433-29.98 29.98s13.433 29.98 29.98 29.98 29.98-13.433 29.98-29.98-13.433-29.98-29.98-29.98z" class="B"/></g><g fill="#4f81c3"><circle cx="498.098" cy="88.722" r="19.047"/><circle cx="573.493" cy="107.571" r="17.861"/><path d="M532.818 28.694h5.954v130.983h-5.954z"/><g class="B"><path d="M535.795-1.075c19.716 0 35.723 16.007 35.723 35.723s-16.007 35.723-35.723 35.723-35.723-16.007-35.723-35.723 16.007-35.723 35.723-35.723zm211.148 99.91a2.83 2.83 0 0 1 2.788-2.357c1.38 0 2.559.996 2.788 2.357l1.806 10.701a2.83 2.83 0 0 0 4.397 1.855l7.935-5.489c1.147-.794 2.7-.632 3.66.379a2.83 2.83 0 0 1 .187 3.675l-5.182 6.709c-.591.765-.75 1.778-.422 2.687s1.096 1.588 2.038 1.8l8.46 1.907a2.22 2.22 0 0 1-.488 4.387h-50.358a2.22 2.22 0 0 1-.488-4.387l8.46-1.907c.942-.212 1.711-.891 2.038-1.8a2.83 2.83 0 0 0-.422-2.687l-5.182-6.709a2.83 2.83 0 0 1 3.847-4.054l7.935 5.489a2.83 2.83 0 0 0 4.397-1.855l1.806-10.701z"/><path d="M751.343 120.997h-3.223l-1.451 29.014c-.042.839.262 1.658.841 2.267s1.382.953 2.222.953 1.643-.344 2.222-.953.883-1.428.841-2.267l-1.451-29.014zM437.548 88.833a3.29 3.29 0 0 1 3.247-2.744c1.608 0 2.979 1.16 3.247 2.744l2.103 12.46a3.29 3.29 0 0 0 5.12 2.159l9.239-6.392a3.29 3.29 0 0 1 4.261.441c1.118 1.177 1.21 2.994.218 4.279l-6.034 7.812c-.688.89-.873 2.07-.492 3.129a3.29 3.29 0 0 0 2.374 2.096l9.851 2.22c1.285.29 2.147 1.499 2.001 2.808s-1.253 2.299-2.569 2.299h-58.636c-1.317 0-2.423-.99-2.569-2.299s.716-2.518 2.001-2.808l9.851-2.22c1.097-.247 1.992-1.037 2.374-2.096a3.29 3.29 0 0 0-.492-3.129l-6.034-7.812c-.992-1.285-.9-3.102.218-4.279a3.29 3.29 0 0 1 4.261-.441l9.239 6.392c.926.64 2.115.763 3.153.326a3.29 3.29 0 0 0 1.967-2.485l2.103-12.46z"/><path d="M442.671 114.639h-3.753l-1.689 33.784a3.57 3.57 0 1 0 7.132 0l-1.689-33.784zm351.425-65.538a3.21 3.21 0 0 1 6.328 0l3.441 20.384c.17 1.007.843 1.857 1.784 2.254s2.019.285 2.859-.296l15.931-11.022a3.21 3.21 0 0 1 4.365 4.6l-10.848 14.047c-.624.807-.791 1.877-.446 2.836s1.157 1.676 2.152 1.9l11.957 2.695a3.21 3.21 0 0 1-.705 6.34h-67.305a3.21 3.21 0 0 1-.705-6.34l11.957-2.695c.995-.225 1.806-.941 2.152-1.9a2.98 2.98 0 0 0-.446-2.836l-10.848-14.047a3.21 3.21 0 0 1 4.365-4.6l15.931 11.022c.84.581 1.918.693 2.859.296s1.614-1.247 1.784-2.254l3.441-20.384z"/><path d="M799.492 83.913h-4.463l-2.091 66.355c-.037 1.17.402 2.305 1.216 3.145s1.935 1.315 3.105 1.315h.001c1.17 0 2.291-.475 3.105-1.315a4.32 4.32 0 0 0 1.216-3.145l-2.091-66.355z"/></g><circle cx="823.384" cy="18.324" r="19.427"/><circle cx="924.743" cy="62.439" r="19.34"/><path d="M867.997 59.565h7.495v100.112h-7.495z"/><path d="M871.744,47.252c16.547,0,29.98,13.433,29.98,29.98s-13.433,29.98-29.98,29.98-29.98-13.433-29.98-29.98,13.433-29.98,29.98-29.98Z" class="B"/><path d="M646.8-4.356h15.748v159.73H646.8z"/><g class="B"><path d="M672.879 56.937a.95.95 0 0 1 .672 1.623l-3.791 3.791a3.92 3.92 0 0 1-2.771 1.148h-25.365c-1.191 0-2.317-.541-3.06-1.471l-2.837-3.547a.95.95 0 0 1 .743-1.544h36.411z"/><path d="M644.957,54.432c0-1.665-1.35-3.015-3.015-3.015h-.001c-1.665,0-3.015,1.35-3.015,3.015v2.505h6.032v-2.505Z"/><use href="#m"/><path d="M655.143 51.672c0-.8-.318-1.567-.883-2.132a3.01 3.01 0 0 0-2.132-.883h-.001a3.02 3.02 0 0 0-2.132.883c-.565.565-.883 1.332-.883 2.132v5.265h6.032v-5.265z"/><use href="#n"/><path d="M665.329 51.672c0-.8-.318-1.567-.883-2.132a3.01 3.01 0 0 0-2.132-.883h0c-.8 0-1.567.318-2.132.883s-.883 1.332-.883 2.132v5.265h6.031v-5.265z"/><path d="M670.422 54.432c0-1.665-1.35-3.015-3.015-3.015h0c-1.665 0-3.015 1.35-3.015 3.015v2.505h6.031v-2.505zm2.457 55.384a.95.95 0 0 1 .672 1.623l-3.791 3.791a3.92 3.92 0 0 1-2.771 1.148h-25.364a3.92 3.92 0 0 1-3.061-1.471l-2.837-3.547a.95.95 0 0 1 .743-1.544h36.411z"/><path d="M644.957,107.311c0-1.665-1.35-3.015-3.015-3.015h0c-1.665,0-3.015,1.35-3.015,3.015v2.505h6.031v-2.505Z"/><use href="#o"/><path d="M655.143 104.551c0-.8-.318-1.567-.883-2.132s-1.333-.883-2.132-.883h0c-.8 0-1.567.318-2.132.883a3.01 3.01 0 0 0-.883 2.132v5.265h6.031v-5.265z"/><path d="M660.236 104.551c0-.8-.318-1.567-.883-2.132s-1.333-.883-2.132-.883h0c-.8 0-1.567.318-2.132.883a3.01 3.01 0 0 0-.883 2.132v5.265h6.031v-5.265z"/><path d="M665.329 104.551c0-.8-.318-1.567-.883-2.132s-1.333-.883-2.132-.883h-.001c-.8 0-1.567.318-2.132.883a3.01 3.01 0 0 0-.883 2.132v5.265h6.032v-5.265z"/><path d="M670.422,107.311c0-1.665-1.35-3.015-3.015-3.015h-.001c-1.665,0-3.015,1.35-3.015,3.015v2.505h6.032v-2.505Z"/><use href="#p"/><path d="M688.023,77.549c0-1.665,1.35-3.015,3.015-3.015h0c1.666,0,3.016,1.35,3.016,3.015v2.505h-6.031v-2.505Z"/><use href="#q"/><path d="M677.837 74.789c0-.8.318-1.567.883-2.132a3.02 3.02 0 0 1 2.132-.883h0c.8 0 1.567.318 2.132.883a3.01 3.01 0 0 1 .883 2.132v5.265h-6.031v-5.265z"/><path d="M672.744 74.789c0-.8.318-1.567.883-2.132a3.02 3.02 0 0 1 2.132-.883h.001c.8 0 1.567.318 2.132.883a3.01 3.01 0 0 1 .883 2.132v5.265h-6.032v-5.265z"/><path d="M667.651 74.789c0-.8.318-1.567.883-2.132a3.02 3.02 0 0 1 2.132-.883h0c.8 0 1.567.318 2.132.883a3.01 3.01 0 0 1 .883 2.132v5.265h-6.032v-5.265z"/><path d="M662.558 77.549c0-1.665 1.35-3.015 3.015-3.015h.001c1.665 0 3.015 1.35 3.015 3.015v2.505h-6.032v-2.505zm-1.333 12.407h-11.361a3.92 3.92 0 0 0-2.932 1.318l-.286.322c-.744.839-1.811 1.318-2.932 1.318h-25.225a3.92 3.92 0 0 1-3.061-1.471l-2.836-3.545a.95.95 0 0 1 .743-1.546h47.889v3.603z"/><use href="#r"/><use href="#s"/><path d="M631.511 81.088c0-.8-.318-1.567-.883-2.132s-1.332-.883-2.132-.883h0c-.8 0-1.567.318-2.132.883s-.883 1.332-.883 2.132v5.265h6.031v-5.265z"/><path d="M636.604 81.088c0-.8-.318-1.567-.883-2.132s-1.332-.883-2.132-.883h0c-.8 0-1.567.318-2.132.883s-.883 1.332-.883 2.132v5.265h6.031v-5.265z"/><path d="M641.697 81.088c0-.8-.318-1.567-.883-2.132s-1.332-.883-2.132-.883h0c-.8 0-1.567.318-2.132.883s-.883 1.332-.883 2.132v5.265h6.031v-5.265z"/><path d="M646.79 83.848c0-1.665-1.35-3.015-3.015-3.015h0c-1.665 0-3.015 1.35-3.015 3.015v2.505h6.031v-2.505zm1.322 51.364h-3.626a3.92 3.92 0 0 0-2.772 1.148l-.329.329a3.92 3.92 0 0 1-2.771 1.148H613.25a3.92 3.92 0 0 1-3.061-1.471l-2.836-3.545a.95.95 0 0 1 .743-1.546h40.015v3.937z"/><use href="#t"/><path d="M621.178 126.01c0-.8-.318-1.567-.883-2.132a3.01 3.01 0 0 0-2.132-.883h0c-.8 0-1.567.318-2.132.883s-.883 1.332-.883 2.132v5.265h6.031v-5.265z"/><path d="M626.271 126.01c0-.8-.318-1.567-.883-2.132a3.01 3.01 0 0 0-2.132-.883h0c-.8 0-1.567.318-2.132.883s-.883 1.332-.883 2.132v5.265h6.031v-5.265z"/><path d="M631.364 126.01c0-.8-.318-1.567-.883-2.132a3.01 3.01 0 0 0-2.132-.883h0c-.8 0-1.567.318-2.132.883s-.883 1.332-.883 2.132v5.265h6.031v-5.265z"/><path d="M636.457 126.01c0-.8-.318-1.567-.883-2.132a3.01 3.01 0 0 0-2.132-.883h0c-.8 0-1.567.318-2.132.883s-.883 1.332-.883 2.132v5.265h6.031v-5.265z"/><path d="M641.55 128.77c0-1.665-1.35-3.015-3.015-3.015h0c-1.665 0-3.015 1.35-3.015 3.015v2.505h6.031v-2.505zm11.811 10.117h11.5a3.92 3.92 0 0 1 2.771 1.148l.329.329a3.92 3.92 0 0 0 2.772 1.148h25.364a3.92 3.92 0 0 0 3.061-1.471l2.836-3.545a.95.95 0 0 0-.743-1.546h-47.89v3.937z"/><path d="M693.262,132.445c0-1.665,1.35-3.015,3.015-3.015h0c1.666,0,3.016,1.35,3.016,3.015v2.505h-6.031v-2.505Z"/><use href="#u"/><path d="M683.076 129.685c0-.8.318-1.567.883-2.132s1.333-.883 2.132-.883h0c.8 0 1.567.318 2.132.883a3.01 3.01 0 0 1 .883 2.132v5.265h-6.031v-5.265z"/><use href="#v"/><path d="M672.89 129.685c0-.8.318-1.567.883-2.132s1.333-.883 2.132-.883h.001c.8 0 1.567.318 2.132.883a3.01 3.01 0 0 1 .883 2.132v5.265h-6.032v-5.265z"/><path d="M667.797 132.445c0-1.665 1.35-3.015 3.015-3.015h.001c1.665 0 3.015 1.35 3.015 3.015v2.505h-6.032v-2.505zm-11.82-99.676h3.626a3.92 3.92 0 0 1 2.771 1.148l.329.329a3.92 3.92 0 0 0 2.772 1.148h25.364a3.92 3.92 0 0 0 3.061-1.471l2.836-3.545a.95.95 0 0 0-.743-1.546h-40.015v3.937z"/><path d="M688.003,26.328c0-1.665,1.35-3.015,3.015-3.015h0c1.665,0,3.015,1.35,3.015,3.015v2.505h-6.031v-2.505Z"/><path d="M682.91 23.568c0-.8.318-1.567.883-2.132s1.333-.883 2.132-.883h0c.8 0 1.567.318 2.132.883a3.01 3.01 0 0 1 .883 2.132v5.265h-6.031v-5.265z"/><path d="M677.817 23.568c0-.8.318-1.567.883-2.132s1.333-.883 2.132-.883h0c.8 0 1.567.318 2.132.883a3.01 3.01 0 0 1 .883 2.132v5.265h-6.031v-5.265z"/><path d="M672.724 23.568c0-.8.318-1.567.883-2.132s1.333-.883 2.132-.883h0c.8 0 1.567.318 2.132.883a3.01 3.01 0 0 1 .883 2.132v5.265h-6.032v-5.265z"/><path d="M667.631 23.568c0-.8.318-1.567.883-2.132s1.333-.883 2.132-.883h.001c.8 0 1.567.318 2.132.883a3.01 3.01 0 0 1 .883 2.132v5.265h-6.032v-5.265z"/><path d="M662.538 26.328c0-1.665 1.35-3.015 3.015-3.015h.001c1.665 0 3.015 1.35 3.015 3.015v2.505h-6.032v-2.505zm-1.293 12.597h-11.439c-1.076 0-2.104.442-2.844 1.223l-.306.323a3.92 3.92 0 0 1-2.844 1.223h-25.303a3.92 3.92 0 0 1-3.061-1.471l-2.836-3.545a.95.95 0 0 1 .743-1.546h47.889v3.794z"/><use href="#w"/><path d="M626.437 29.867c0-.8-.318-1.567-.883-2.132a3.01 3.01 0 0 0-2.132-.883h0c-.8 0-1.567.318-2.132.883s-.883 1.332-.883 2.132v5.265h6.031v-5.265z"/><path d="M631.53 29.867c0-.8-.318-1.567-.883-2.132a3.01 3.01 0 0 0-2.132-.883h0c-.8 0-1.567.318-2.132.883s-.883 1.332-.883 2.132v5.265h6.031v-5.265z"/><path d="M636.623 29.867c0-.8-.318-1.567-.883-2.132a3.01 3.01 0 0 0-2.132-.883h0c-.8 0-1.567.318-2.132.883s-.883 1.332-.883 2.132v5.265h6.031v-5.265z"/><path d="M641.716 29.867c0-.8-.318-1.567-.883-2.132a3.01 3.01 0 0 0-2.132-.883h0c-.8 0-1.567.318-2.132.883s-.883 1.332-.883 2.132v5.265h6.031v-5.265z"/><path d="M646.809,32.627c0-1.665-1.35-3.015-3.015-3.015h0c-1.665,0-3.015,1.35-3.015,3.015v2.505h6.031v-2.505Z"/></g></g></g><g class="B"><path d="M905.505 165.276H400.859l40.472-145.671L563.699-81.686h179.076L863.88 18.559l41.625 146.717z" fill="#97dbd9" class="E"/><g class="H"><path d="M442.057 21.572l88.031 125.89H407.141l34.916-125.89zm422.357 0l-88.031 125.89H899.33l-34.916-125.89z" opacity=".3"/><path style="mix-blend-mode:overlay" d="M742.697-82.908L652.862 9.697l211.312 11.875-121.477-104.48z" opacity=".4"/><path style="mix-blend-mode:overlay" d="M563.774-82.908l89.835 92.605-211.312 11.875 121.477-104.48z" opacity=".4"/><path d="M532.872 145.296L444.584 19.714l-4.586 3.695 88.288 125.583 4.586-3.696z"/><path d="M411.189 147.463l32.912-123.077-5.607-1.722-33.427 124.798 6.122.001zm484.103 0L862.38 24.386l5.608-1.722 33.426 124.798-6.122.001zM440.116 18.143L562.255-86.101l3.775 4.541L443.89 22.685l-3.774-4.542zm425.078.2L742.821-86.101l-3.775 4.541L861.42 22.884l3.774-4.541z"/><path d="M653.236 31.117l108.663 116.345H544.572L653.236 31.117z" opacity=".3"/><path d="M779.367 145.363L565.344-84.595l-4.143 4.199 214.023 229.957 4.143-4.198z"/><path d="M773.514 146.782L861.459 20.24l4.608 3.668-87.944 126.542-4.609-3.668zm-246.411-1.317l213.324-229.25 4.143 4.199-213.324 229.25-4.143-4.199z"/><path d="M652.926 7.608L442.003 18.343l.294 5.93L653.22 13.538l-.294-5.93z"/><path d="M653.251 7.608l210.923 10.735-.294 5.93-210.922-10.735.293-5.93z"/></g></g><path d="M897.834 147.462H407.141" stroke="#51bcb3" stroke-width="6.199" class="C W"/><g fill="#97dbd9"><ellipse cx="653.236" cy="9.697" rx="5.859" ry="5.938"/><ellipse cx="863.88" cy="21.572" rx="5.859" ry="5.938"/><ellipse cx="442.297" cy="21.572" rx="5.859" ry="5.938"/><ellipse cx="653.176" cy="9.697" rx="5.859" ry="5.938"/><g class="B"><use href="#x"/><path d="M402.997 143.264a6 6 0 0 0 0 8.398 5.81 5.81 0 0 0 8.286 0 6 6 0 0 0 0-8.398 5.81 5.81 0 0 0-8.286 0zm492.19 0a6 6 0 0 0 0 8.398 5.81 5.81 0 0 0 8.286 0 6 6 0 0 0 0-8.398 5.81 5.81 0 0 0-8.286 0zm-114.659 0a6 6 0 0 1 0 8.398 5.81 5.81 0 0 1-8.287 0 6 6 0 0 1 0-8.398 5.81 5.81 0 0 1 8.287 0z"/></g></g><path d="M228.497,108.75v142.582c0,5.007,4.059,9.065,9.065,9.065h64.613V108.75h-73.678Z" class="H"/><path d="M228.497,123.858v127.474c0,5.007,4.059,9.065,9.065,9.065h64.613V123.858h-73.678Z" fill="#fae5db"/><g class="E"><path d="M230.008,108.751c0-19.511,15.817-35.328,35.328-35.328s35.328,15.817,35.328,35.328" fill="#57c8cb"/></g><g class="H"><path d="M302.175,108.75h-3.022c0-18.647-15.171-33.818-33.818-33.818s-33.818,15.171-33.818,33.818h-3.022c0-20.314,16.527-36.839,36.839-36.839s36.839,16.525,36.839,36.839Z"/><path d="M283.244 108.75h-3.022c0-18.331-6.817-33.818-14.886-33.818S250.45 90.418 250.45 108.75h-3.022c0-20.656 7.866-36.839 17.908-36.839s17.908 16.183 17.908 36.839z"/></g><g class="V"><rect x="235.119" y="116.676" width="61.278" height="15.46" rx="3.022"/><rect x="235.119" y="136.278" width="61.278" height="15.46" rx="3.022"/></g><g clip-path="url(#W)" class="M"><path d="M269.719 183.714h-5.433l35.013-101.188h5.434l-35.014 101.188zm-16.89-6.655h-24.878l32.711-94.533h24.878l-32.711 94.533z" class="N"/></g></g></svg>