<svg xmlns="http://www.w3.org/2000/svg" width="1500" height="145" xmlns:v="https://vecta.io/nano"><style><![CDATA[.B{fill:none}.C{fill-rule:evenodd}.D{opacity:.5}.E{fill:#869d33}.F{fill:#fff}.G{fill:#507944}.H{fill:#e1e5f4}.I{clip-rule:evenodd}.J{fill:#bfcd53}.K{stroke-linejoin:round}.L{fill:#071e2d}.M{stroke-linecap:round}.N{fill:#adbd3e}.O{opacity:.75}.P{fill:#8ed54c}.Q{stroke:#8ed54c}.R{stroke-dasharray:0 10}.S{stroke-width:10}.T{fill:#3d9056}.U{fill:#fae5db}.V{fill:#18344a}.W{stroke:#071e2d}.X{stroke-miterlimit:10}.Y{stroke-width:1.502}]]></style><defs><clipPath id="A"><path d="M0 0h1500v145H0z" class="B"/></clipPath><clipPath id="B"><path d="M-59.616-415.443h503.815c28.921 0 52.366 23.445 52.366 52.366h0c0 28.921 23.445 52.366 52.366 52.366H708.6c33.349 0 60.383 27.034 60.383 60.383h0c0 33.349 27.034 60.383 60.383 60.383h48.709c39.629 0 71.754 32.125 71.754 71.754v26.062c0 39.629-32.125 71.754-71.754 71.754h-311.56c-21.993 0-39.823-17.829-39.823-39.823h0c0-21.994-17.829-39.823-39.823-39.823H252.034a19.53 19.53 0 0 1-19.526-19.526h0a19.53 19.53 0 0 0-19.526-19.526H-59.616a19.53 19.53 0 0 1-19.526-19.526v-237.317a19.53 19.53 0 0 1 19.526-19.526z" class="B"/></clipPath><clipPath id="C"><path d="M547.17 43.834h-19.544l-5.296 48.37a4.53 4.53 0 0 0 4.503 5.023h21.227a4.53 4.53 0 0 0 4.502-5.031l-5.391-48.361z" class="B"/></clipPath><clipPath id="D"><path d="M537.446 42.076c0 6.916 2.747 13.551 7.639 18.443s11.527 7.639 18.447 7.639h26.236V50.915c0-6.919-2.747-13.555-7.639-18.447a26.1 26.1 0 0 0-18.447-7.639h-26.236v17.246z" class="B I"/></clipPath><clipPath id="E"><path d="M537.446 42.076c0 6.916-2.747 13.551-7.639 18.443s-11.527 7.639-18.447 7.639h-26.236V50.915c0-6.919 2.747-13.555 7.639-18.447a26.1 26.1 0 0 1 18.447-7.639h26.236v17.246z" class="B I"/></clipPath><clipPath id="F"><path d="M537.461 68.158l-15.671-11.42c-8.655-6.308-9.634-18.854-2.061-26.427l5.482-5.482h24.499l5.482 5.482c7.573 7.573 6.595 20.119-2.061 26.427l-15.671 11.42z" class="B I"/></clipPath><clipPath id="G"><path d="M1368.241 90.212l-69.509-64.115c-11.963-11.035-31.333-2.549-31.333 13.725v71.401a10.96 10.96 0 0 0 10.955 10.955h77.396c16.775 0 24.822-20.593 12.492-31.966z" class="F"/></clipPath><clipPath id="H"><path d="M1357.108 93.741l-61.835-57.037c-10.642-9.816-27.874-2.268-27.874 12.21v63.519a9.75 9.75 0 0 0 9.745 9.745h68.851c14.923 0 22.081-18.319 11.113-28.437z" class="B"/></clipPath><clipPath id="I"><path d="M1254.435-6.356h31.902a9.02 9.02 0 0 1 9.014 9.014v91.317c0 2.781-2.258 5.039-5.039 5.039h-39.853c-2.781 0-5.039-2.258-5.039-5.039V2.658a9.02 9.02 0 0 1 9.014-9.014z" class="B"/></clipPath><clipPath id="J"><path d="M1250.801 69.009h-19.462l-5.274 48.167c-.292 2.67 1.798 5.002 4.484 5.002h21.138a4.51 4.51 0 0 0 4.483-5.01l-5.369-48.159z" class="B"/></clipPath><clipPath id="K"><path d="M1241.118 67.258a25.97 25.97 0 0 0 7.607 18.366c4.872 4.872 11.479 7.607 18.369 7.607h26.126V76.06a25.97 25.97 0 0 0-7.607-18.369 25.99 25.99 0 0 0-18.369-7.607h-26.126v17.174z" class="B I"/></clipPath><clipPath id="L"><path d="M1241.118 67.258a25.97 25.97 0 0 1-7.607 18.366c-4.872 4.872-11.479 7.607-18.369 7.607h-26.126V76.06a25.97 25.97 0 0 1 7.607-18.369 25.99 25.99 0 0 1 18.369-7.607h26.126v17.174z" class="B I"/></clipPath><clipPath id="M"><path d="M1241.133 93.231l-15.605-11.372c-8.619-6.281-9.593-18.775-2.052-26.317l5.459-5.459h24.396l5.459 5.459c7.541 7.541 6.567 20.035-2.052 26.317l-15.605 11.372z" class="B I"/></clipPath><clipPath id="N"><path d="M63.603 101.258h25.618c9.363 0 17.024-7.376 17.024-16.391V-20.317H46.58V84.868c0 9.015 7.661 16.391 17.024 16.391z" class="B"/></clipPath><clipPath id="O"><path transform="matrix(-1 0 0 -1 153.374 58.767)" d="M53.175 24.593h47.024v9.58H53.175z" class="B"/></clipPath><clipPath id="P"><path transform="matrix(-1 0 0 -1 153.374 137.84)" d="M53.175 64.13h47.024v9.58H53.175z" class="B"/></clipPath><clipPath id="Q"><path d="M126.336 40.169h-.45l.923.016-.005-.016h172.442v63.889H153.949a25.21 25.21 0 0 1-22.294-13.44l-17.128-31.59c-4.527-8.559 2.128-18.859 11.81-18.859z" class="B"/></clipPath><clipPath id="R"><path d="M280.567 95.839a4.25 4.25 0 0 0-4.25-4.25h-19.073c-2.99 0-5.736-1.65-7.14-4.29l-16.732-31.464c-4.253-7.987-12.564-12.977-21.613-12.977h-97.805a21.36 21.36 0 0 0-18.423 10.553l-.548 32.549c-3.693 7.114 1.456 15.614 9.472 15.635l177.638-.016-1.526-5.741z" class="B"/></clipPath><clipPath id="S"><rect x="172.8" y="65.313" width="33.793" height="24.716" rx="6.089" class="B"/></clipPath><clipPath id="T"><path d="M171.641 64.999h36.11V94.14h-36.11z" class="B"/></clipPath><path id="U" d="M1112.988 68.483a2.82 2.82 0 0 0 2.818-2.825v-8.844a2.82 2.82 0 0 0-2.818-2.825 2.82 2.82 0 0 0-2.818 2.825v8.844a2.82 2.82 0 0 0 2.818 2.825z"/><path id="V" d="M1101.222 68.483a2.82 2.82 0 0 0 2.818-2.825v-5.895a2.82 2.82 0 0 0-2.818-2.825 2.82 2.82 0 0 0-2.818 2.825v5.895a2.82 2.82 0 0 0 2.818 2.825z"/><path id="W" d="M1069.475 91.826a2.82 2.82 0 0 0 2.818-2.825v-5.898a2.82 2.82 0 0 0-2.818-2.825 2.82 2.82 0 0 0-2.818 2.825v5.898a2.82 2.82 0 0 0 2.818 2.825z"/><path id="X" d="M710.024 48.335a2.82 2.82 0 0 1-2.818-2.825v-8.844a2.82 2.82 0 0 1 2.818-2.825 2.82 2.82 0 0 1 2.818 2.825v8.844a2.82 2.82 0 0 1-2.818 2.825z"/><path id="Y" d="M721.791 48.335a2.82 2.82 0 0 1-2.818-2.825v-5.895a2.82 2.82 0 0 1 2.818-2.825 2.82 2.82 0 0 1 2.818 2.825v5.895a2.82 2.82 0 0 1-2.818 2.825z"/><path id="Z" d="M753.538 71.679a2.82 2.82 0 0 1-2.818-2.825v-5.898a2.82 2.82 0 0 1 2.818-2.825 2.82 2.82 0 0 1 2.818 2.825v5.898a2.82 2.82 0 0 1-2.818 2.825z"/><path id="a" d="M514.259 48.721a3.27 3.27 0 0 1-2.738-1.475c-.992-1.512-.571-3.538.941-4.528l13.293-8.72c1.512-.996 3.538-.566 4.526.939.992 1.512.571 3.538-.941 4.528l-13.293 8.72c-.554.364-1.175.536-1.788.536z"/><path id="b" d="M560.632 48.721a3.24 3.24 0 0 1-1.788-.536l-13.289-8.72a3.27 3.27 0 0 1-.941-4.528c.988-1.505 3.002-1.937 4.526-.939l13.289 8.72a3.27 3.27 0 0 1 .941 4.528c-.626.956-1.673 1.475-2.738 1.475z"/><path id="c" d="M1368.241 90.212l-69.509-64.115c-11.963-11.035-31.333-2.549-31.333 13.725v71.401a10.96 10.96 0 0 0 10.955 10.955h77.396c16.775 0 24.822-20.593 12.492-31.966z"/><path id="d" d="M1245.411 24.793h49.937v6.209h-49.937z"/><path id="e" d="M1264.207 73.876c-.611 0-1.23-.172-1.781-.534l-13.233-8.684c-1.505-.986-1.925-3.004-.937-4.509a3.25 3.25 0 0 1 4.507-.935l13.233 8.684c1.505.986 1.925 3.004.937 4.509-.623.952-1.666 1.469-2.726 1.469z"/><path id="f" d="M53.175 120.064V-41.17c0-11.313 9.185-20.498 20.498-20.498H79.7c11.313 0 20.498 9.185 20.498 20.498v161.234c0 10.442-8.478 18.92-18.92 18.92h-9.184c-10.442 0-18.92-8.478-18.92-18.92z"/><path id="g" d="M87.426 105.991h12.773a1.49 1.49 0 1 0 0-2.98H87.426a1.49 1.49 0 1 0 0 2.98z"/><path id="h" d="M53.175 105.991h12.773a1.49 1.49 0 1 0 0-2.98H53.175a1.49 1.49 0 1 0 0 2.98z"/><path id="i" d="M197.151 57.61h-3.569a1.9 1.9 0 0 1-1.898-1.898 1.9 1.9 0 0 1 1.898-1.898h3.569a1.9 1.9 0 0 1 1.898 1.898 1.9 1.9 0 0 1-1.898 1.898z"/><path id="j" d="M210.698 53.096h-.85a1.9 1.9 0 0 1-1.898-1.898 1.9 1.9 0 0 1 1.898-1.898h.85a1.9 1.9 0 0 1 1.898 1.898 1.9 1.9 0 0 1-1.898 1.898z"/></defs><g clip-path="url(#A)"><path d="M-11.618-2931.127h1523.237v5153.382H-11.618z" fill="#04d5d8"/><path d="M881.245 1360.825c-41.651 0-84.385-27.125-101.61-64.497-.533-1.156-1.755-1.965-2.971-1.965H-33.074l-4.116-238.479v-2108.088H220.6a127.35 127.35 0 0 1 78.961 27.557c22.556 17.938 38.384 43.268 44.57 71.323 3.204 14.528 16.339 25.073 31.234 25.073h152.318c17.632 0 31.977-14.345 31.977-31.977v-7.461c0-93.816 76.325-170.141 170.141-170.141h188.858c93.815 0 170.141 76.325 170.141 170.141 0 21.746 17.691 39.438 39.438 39.438h107.816a126.03 126.03 0 0 1 81.637 30.053c22.736 19.364 37.892 46.267 42.676 75.756 1.474 9.081 6.199 17.445 13.308 23.553 7.14 6.134 16.239 9.513 25.621 9.513h257.685v1978.184h-347.973c-14.935 0-29.001 5.855-39.61 16.487s-16.432 24.712-16.398 39.649c.068 30.785-11.914 59.787-33.741 81.663-22.018 22.065-51.313 34.218-82.491 34.218H881.247z" fill="#7ee5e3"/><path d="M881.245 1330.825c-30.031 0-62-20.229-74.365-47.055-5.434-11.789-17.294-19.407-30.216-19.407H442.665c-65.402 0-118.718-53.601-118.852-119.485-.132-65.613-53.623-118.993-119.239-118.993H-7.19v-2048.089H220.6c21.818 0 43.229 7.471 60.289 21.038 17.183 13.665 29.239 32.95 33.947 54.302 6.211 28.168 31.668 48.613 60.53 48.613h152.318c34.174 0 61.977-27.802 61.977-61.977v-7.461c0-77.274 62.867-140.141 140.141-140.141H918.66c77.273 0 140.141 62.867 140.141 140.141 0 38.288 31.149 69.438 69.438 69.438h107.816a96 96 0 0 1 62.186 22.893c17.322 14.753 28.869 35.252 32.515 57.721 2.604 16.051 10.902 30.79 23.368 41.502a69.36 69.36 0 0 0 45.173 16.76h227.685v1918.184h-317.973c-22.96 0-44.569 8.984-60.847 25.297s-25.213 37.942-25.162 60.906c.051 22.76-8.82 44.213-24.979 60.407-16.348 16.384-38.102 25.407-61.254 25.407H881.246z" fill="#fceea3"/><path d="M881.244 1300.825c-18.075 0-39.553-13.196-47.119-29.612-10.016-21.73-32.006-36.85-57.462-36.85H442.665c-49.251 0-88.752-40.294-88.852-89.545-.166-82.151-67.05-148.933-149.239-148.933H-47.26V-992.204H220.6c31.082 0 58.247 21.448 64.94 51.8 9.09 41.22 45.913 72.153 89.826 72.153h152.318c50.797 0 91.977-41.179 91.977-91.977v-7.461c0-60.829 49.312-110.14 110.14-110.14H918.66c60.829 0 110.14 49.312 110.14 110.14h0c0 54.918 44.52 99.438 99.438 99.438h107.816c32.355 0 59.906 23.48 65.087 55.417 7.666 47.26 48.763 83.458 98.155 83.458h197.685v1858.184h-287.973c-64.054 0-116.15 52.182-116.008 116.269.068 30.868-25.365 55.749-56.233 55.749H881.246z" fill="#f8d680"/><path d="M1411.098-475.01h0c0 46.441-37.648 84.089-84.089 84.089H864.848c-39.101 0-70.799-31.698-70.799-70.799v-33.709c0-34.148-27.683-61.831-61.831-61.831h-79.632c-34.148 0-61.831-27.683-61.831-61.831h0c0-34.148-27.683-61.831-61.831-61.831H306.595c-34.148 0-61.831 27.683-61.831 61.831h0c0 34.148-27.683 61.831-61.831 61.831H-37.19V22.943h351.834c69.365 0 125.596 56.231 125.596 125.596h0c0 34.148 27.683 61.831 61.831 61.831h202.781c34.148 0 61.831-27.683 61.831-61.831v-14.897c0-34.148 27.683-61.831 61.831-61.831h177.038c21.017 0 38.054 17.037 38.054 38.054h0c0 21.017 17.037 38.054 38.054 38.054h285.782c16.913 0 30.624-13.711 30.624-30.624h0c0-16.913 13.711-30.624 30.624-30.624h258.678v-645.77h-192.182c-46.441 0-84.089 37.648-84.089 84.089z" class="K M P Q R S"/><g clip-path="url(#B)" class="B K"><g opacity=".4"><g stroke="#a0ccc7"><g stroke-width="2.684"><rect x="95.617" y="141.557" width="36.649" height="18.372" rx="3.477" transform="matrix(-1 0 0 -1 227.884 301.487)"/><rect x="58.968" y="141.557" width="36.649" height="18.372" rx="3.477" transform="matrix(-1 0 0 -1 154.585 301.487)"/><rect x="22.281" y="141.557" width="36.649" height="18.372" rx="3.477" transform="matrix(-1 0 0 -1 81.212 301.487)"/><rect x="-14.368" y="141.557" width="36.649" height="18.372" rx="3.477" transform="matrix(-1 0 0 -1 7.914 301.487)"/><rect x="77.317" y="123.185" width="36.649" height="18.372" rx="3.477" transform="matrix(-1 0 0 -1 191.284 264.743)"/><rect x="40.668" y="123.185" width="36.649" height="18.372" rx="3.477" transform="matrix(-1 0 0 -1 117.985 264.743)"/><rect x="3.982" y="123.185" width="36.649" height="18.372" rx="3.477" transform="matrix(-1 0 0 -1 44.612 264.743)"/><rect x="-32.668" y="123.185" width="36.649" height="18.372" rx="3.477" transform="matrix(-1 0 0 -1 -28.686 264.743)"/><rect x="95.617" y="104.813" width="36.649" height="18.372" rx="3.477" transform="matrix(-1 0 0 -1 227.884 227.998)"/><rect x="58.968" y="104.813" width="36.649" height="18.372" rx="3.477" transform="matrix(-1 0 0 -1 154.585 227.998)"/><rect x="22.281" y="104.813" width="36.649" height="18.372" rx="3.477" transform="matrix(-1 0 0 -1 81.212 227.998)"/><rect x="-14.368" y="104.813" width="36.649" height="18.372" rx="3.477" transform="matrix(-1 0 0 -1 7.914 227.998)"/><rect x="77.317" y="86.491" width="36.649" height="18.372" rx="3.477" transform="matrix(-1 0 0 -1 191.284 191.354)"/><rect x="40.668" y="86.491" width="36.649" height="18.372" rx="3.477" transform="matrix(-1 0 0 -1 117.985 191.354)"/><rect x="3.982" y="86.491" width="36.649" height="18.372" rx="3.477" transform="matrix(-1 0 0 -1 44.612 191.354)"/><rect x="-32.668" y="86.491" width="36.649" height="18.372" rx="3.477" transform="matrix(-1 0 0 -1 -28.686 191.354)"/><rect x="95.617" y="68.119" width="36.649" height="18.372" rx="3.477" transform="matrix(-1 0 0 -1 227.884 154.609)"/><rect x="58.968" y="68.119" width="36.649" height="18.372" rx="3.477" transform="matrix(-1 0 0 -1 154.585 154.609)"/><rect x="22.281" y="68.119" width="36.649" height="18.372" rx="3.477" transform="matrix(-1 0 0 -1 81.212 154.609)"/><rect x="-14.368" y="68.119" width="36.649" height="18.372" rx="3.477" transform="matrix(-1 0 0 -1 7.914 154.609)"/><rect x="77.317" y="49.746" width="36.649" height="18.372" rx="3.477" transform="matrix(-1 0 0 -1 191.284 117.865)"/><rect x="40.668" y="49.746" width="36.649" height="18.372" rx="3.477" transform="matrix(-1 0 0 -1 117.985 117.865)"/><rect x="3.982" y="49.746" width="36.649" height="18.372" rx="3.477" transform="matrix(-1 0 0 -1 44.612 117.865)"/><rect x="-32.668" y="49.746" width="36.649" height="18.372" rx="3.477" transform="matrix(-1 0 0 -1 -28.686 117.865)"/><rect x="95.617" y="31.374" width="36.649" height="18.372" rx="3.477" transform="matrix(-1 0 0 -1 227.884 81.121)"/><rect x="58.968" y="31.374" width="36.649" height="18.372" rx="3.477" transform="matrix(-1 0 0 -1 154.585 81.121)"/><rect x="22.281" y="31.374" width="36.649" height="18.372" rx="3.477" transform="matrix(-1 0 0 -1 81.212 81.121)"/><rect x="-14.368" y="31.374" width="36.649" height="18.372" rx="3.477" transform="matrix(-1 0 0 -1 7.914 81.121)"/><rect x="77.317" y="13.02" width="36.649" height="18.372" rx="3.477" transform="matrix(-1 0 0 -1 191.284 44.413)"/><rect x="40.668" y="13.02" width="36.649" height="18.372" rx="3.477" transform="matrix(-1 0 0 -1 117.985 44.413)"/><rect x="3.982" y="13.02" width="36.649" height="18.372" rx="3.477" transform="matrix(-1 0 0 -1 44.612 44.413)"/><rect x="-32.668" y="13.02" width="36.649" height="18.372" rx="3.477" transform="matrix(-1 0 0 -1 -28.686 44.413)"/><rect x="95.617" y="-5.352" width="36.649" height="18.372" rx="3.477" transform="matrix(-1 0 0 -1 227.884 7.668)"/><rect x="58.968" y="-5.352" width="36.649" height="18.372" rx="3.477" transform="matrix(-1 0 0 -1 154.585 7.668)"/><rect x="22.281" y="-5.352" width="36.649" height="18.372" rx="3.477" transform="matrix(-1 0 0 -1 81.212 7.668)"/><rect x="-14.368" y="-5.352" width="36.649" height="18.372" rx="3.477" transform="matrix(-1 0 0 -1 7.914 7.668)"/><rect x="462.208" y="141.557" width="36.649" height="18.372" rx="3.477" transform="matrix(-1 0 0 -1 961.066 301.487)"/><rect x="425.559" y="141.557" width="36.649" height="18.372" rx="3.477" transform="matrix(-1 0 0 -1 887.768 301.487)"/><rect x="95.68" y="141.557" width="36.649" height="18.372" rx="3.477" transform="matrix(-1 0 0 -1 228.009 301.487)"/><rect x="388.873" y="141.557" width="36.649" height="18.372" rx="3.477" transform="matrix(-1 0 0 -1 814.394 301.487)"/><rect x="352.224" y="141.557" width="36.649" height="18.372" rx="3.477" transform="matrix(-1 0 0 -1 741.096 301.487)"/><rect x="315.569" y="141.557" width="36.649" height="18.372" rx="3.477" transform="matrix(-1 0 0 -1 667.786 301.487)"/><rect x="278.92" y="141.557" width="36.649" height="18.372" rx="3.477" transform="matrix(-1 0 0 -1 594.488 301.487)"/><rect x="242.233" y="141.557" width="36.649" height="18.372" rx="3.477" transform="matrix(-1 0 0 -1 521.115 301.487)"/><rect x="205.584" y="141.557" width="36.649" height="18.372" rx="3.477" transform="matrix(-1 0 0 -1 447.817 301.487)"/><rect x="168.978" y="141.557" width="36.649" height="18.372" rx="3.477" transform="matrix(-1 0 0 -1 374.605 301.487)"/><rect x="132.329" y="141.557" width="36.649" height="18.372" rx="3.477" transform="matrix(-1 0 0 -1 301.307 301.487)"/><rect x="443.908" y="123.185" width="36.649" height="18.372" rx="3.477" transform="matrix(-1 0 0 -1 924.466 264.743)"/><rect x="407.259" y="123.185" width="36.649" height="18.372" rx="3.477" transform="matrix(-1 0 0 -1 851.168 264.743)"/><rect x="370.573" y="123.185" width="36.649" height="18.372" rx="3.477" transform="matrix(-1 0 0 -1 777.795 264.743)"/><rect x="333.924" y="123.185" width="36.649" height="18.372" rx="3.477" transform="matrix(-1 0 0 -1 704.496 264.743)"/><rect x="297.269" y="123.185" width="36.649" height="18.372" rx="3.477" transform="matrix(-1 0 0 -1 631.187 264.743)"/><rect x="260.62" y="123.185" width="36.649" height="18.372" rx="3.477" transform="matrix(-1 0 0 -1 557.888 264.743)"/><rect x="223.933" y="123.185" width="36.649" height="18.372" rx="3.477" transform="matrix(-1 0 0 -1 484.515 264.743)"/><rect x="187.284" y="123.185" width="36.649" height="18.372" rx="3.477" transform="matrix(-1 0 0 -1 411.217 264.743)"/><rect x="150.678" y="123.185" width="36.649" height="18.372" rx="3.477" transform="matrix(-1 0 0 -1 338.006 264.743)"/><rect x="114.029" y="123.185" width="36.649" height="18.372" rx="3.477" transform="matrix(-1 0 0 -1 264.707 264.743)"/><rect x="462.208" y="104.813" width="36.649" height="18.372" rx="3.477" transform="matrix(-1 0 0 -1 961.066 227.998)"/><rect x="425.559" y="104.813" width="36.649" height="18.372" rx="3.477" transform="matrix(-1 0 0 -1 887.768 227.998)"/><rect x="95.68" y="104.813" width="36.649" height="18.372" rx="3.477" transform="matrix(-1 0 0 -1 228.009 227.998)"/><rect x="388.873" y="104.813" width="36.649" height="18.372" rx="3.477" transform="matrix(-1 0 0 -1 814.394 227.998)"/><rect x="352.224" y="104.813" width="36.649" height="18.372" rx="3.477" transform="matrix(-1 0 0 -1 741.096 227.998)"/><rect x="315.569" y="104.813" width="36.649" height="18.372" rx="3.477" transform="matrix(-1 0 0 -1 667.786 227.998)"/><rect x="278.92" y="104.813" width="36.649" height="18.372" rx="3.477" transform="matrix(-1 0 0 -1 594.488 227.998)"/><rect x="242.233" y="104.813" width="36.649" height="18.372" rx="3.477" transform="matrix(-1 0 0 -1 521.115 227.998)"/><rect x="205.584" y="104.813" width="36.649" height="18.372" rx="3.477" transform="matrix(-1 0 0 -1 447.817 227.998)"/><rect x="168.978" y="104.813" width="36.649" height="18.372" rx="3.477" transform="matrix(-1 0 0 -1 374.605 227.998)"/><rect x="132.329" y="104.813" width="36.649" height="18.372" rx="3.477" transform="matrix(-1 0 0 -1 301.307 227.998)"/><rect x="443.908" y="86.491" width="36.649" height="18.372" rx="3.477" transform="matrix(-1 0 0 -1 924.466 191.354)"/><rect x="407.259" y="86.491" width="36.649" height="18.372" rx="3.477" transform="matrix(-1 0 0 -1 851.168 191.354)"/><rect x="370.573" y="86.491" width="36.649" height="18.372" rx="3.477" transform="matrix(-1 0 0 -1 777.795 191.354)"/><rect x="333.924" y="86.491" width="36.649" height="18.372" rx="3.477" transform="matrix(-1 0 0 -1 704.496 191.354)"/><rect x="297.269" y="86.491" width="36.649" height="18.372" rx="3.477" transform="matrix(-1 0 0 -1 631.187 191.354)"/><rect x="260.62" y="86.491" width="36.649" height="18.372" rx="3.477" transform="matrix(-1 0 0 -1 557.888 191.354)"/><rect x="223.933" y="86.491" width="36.649" height="18.372" rx="3.477" transform="matrix(-1 0 0 -1 484.515 191.354)"/><rect x="187.284" y="86.491" width="36.649" height="18.372" rx="3.477" transform="matrix(-1 0 0 -1 411.217 191.354)"/><rect x="150.678" y="86.491" width="36.649" height="18.372" rx="3.477" transform="matrix(-1 0 0 -1 338.006 191.354)"/><rect x="114.029" y="86.491" width="36.649" height="18.372" rx="3.477" transform="matrix(-1 0 0 -1 264.707 191.354)"/><rect x="462.208" y="68.119" width="36.649" height="18.372" rx="3.477" transform="matrix(-1 0 0 -1 961.066 154.609)"/><rect x="425.559" y="68.119" width="36.649" height="18.372" rx="3.477" transform="matrix(-1 0 0 -1 887.768 154.609)"/><rect x="95.68" y="68.119" width="36.649" height="18.372" rx="3.477" transform="matrix(-1 0 0 -1 228.009 154.609)"/><rect x="388.873" y="68.119" width="36.649" height="18.372" rx="3.477" transform="matrix(-1 0 0 -1 814.394 154.609)"/><rect x="352.224" y="68.119" width="36.649" height="18.372" rx="3.477" transform="matrix(-1 0 0 -1 741.096 154.609)"/><rect x="315.569" y="68.119" width="36.649" height="18.372" rx="3.477" transform="matrix(-1 0 0 -1 667.786 154.609)"/><rect x="278.92" y="68.119" width="36.649" height="18.372" rx="3.477" transform="matrix(-1 0 0 -1 594.488 154.609)"/><rect x="242.233" y="68.119" width="36.649" height="18.372" rx="3.477" transform="matrix(-1 0 0 -1 521.115 154.609)"/><rect x="205.584" y="68.119" width="36.649" height="18.372" rx="3.477" transform="matrix(-1 0 0 -1 447.817 154.609)"/><rect x="168.978" y="68.119" width="36.649" height="18.372" rx="3.477" transform="matrix(-1 0 0 -1 374.605 154.609)"/><rect x="132.329" y="68.119" width="36.649" height="18.372" rx="3.477" transform="matrix(-1 0 0 -1 301.307 154.609)"/><rect x="443.908" y="49.746" width="36.649" height="18.372" rx="3.477" transform="matrix(-1 0 0 -1 924.466 117.865)"/><rect x="407.259" y="49.746" width="36.649" height="18.372" rx="3.477" transform="matrix(-1 0 0 -1 851.168 117.865)"/><rect x="370.573" y="49.746" width="36.649" height="18.372" rx="3.477" transform="matrix(-1 0 0 -1 777.795 117.865)"/><rect x="333.924" y="49.746" width="36.649" height="18.372" rx="3.477" transform="matrix(-1 0 0 -1 704.496 117.865)"/><rect x="297.269" y="49.746" width="36.649" height="18.372" rx="3.477" transform="matrix(-1 0 0 -1 631.187 117.865)"/><rect x="260.62" y="49.746" width="36.649" height="18.372" rx="3.477" transform="matrix(-1 0 0 -1 557.888 117.865)"/><rect x="223.933" y="49.746" width="36.649" height="18.372" rx="3.477" transform="matrix(-1 0 0 -1 484.515 117.865)"/><rect x="187.284" y="49.746" width="36.649" height="18.372" rx="3.477" transform="matrix(-1 0 0 -1 411.217 117.865)"/><rect x="150.678" y="49.746" width="36.649" height="18.372" rx="3.477" transform="matrix(-1 0 0 -1 338.006 117.865)"/><rect x="114.029" y="49.746" width="36.649" height="18.372" rx="3.477" transform="matrix(-1 0 0 -1 264.707 117.865)"/><rect x="462.208" y="31.374" width="36.649" height="18.372" rx="3.477" transform="matrix(-1 0 0 -1 961.066 81.121)"/><rect x="425.559" y="31.374" width="36.649" height="18.372" rx="3.477" transform="matrix(-1 0 0 -1 887.768 81.121)"/><rect x="95.68" y="31.374" width="36.649" height="18.372" rx="3.477" transform="matrix(-1 0 0 -1 228.009 81.121)"/><rect x="388.873" y="31.374" width="36.649" height="18.372" rx="3.477" transform="matrix(-1 0 0 -1 814.394 81.121)"/><rect x="352.224" y="31.374" width="36.649" height="18.372" rx="3.477" transform="matrix(-1 0 0 -1 741.096 81.121)"/><rect x="315.569" y="31.374" width="36.649" height="18.372" rx="3.477" transform="matrix(-1 0 0 -1 667.786 81.121)"/><rect x="278.92" y="31.374" width="36.649" height="18.372" rx="3.477" transform="matrix(-1 0 0 -1 594.488 81.121)"/><rect x="242.233" y="31.374" width="36.649" height="18.372" rx="3.477" transform="matrix(-1 0 0 -1 521.115 81.121)"/><rect x="205.584" y="31.374" width="36.649" height="18.372" rx="3.477" transform="matrix(-1 0 0 -1 447.817 81.121)"/><rect x="168.978" y="31.374" width="36.649" height="18.372" rx="3.477" transform="matrix(-1 0 0 -1 374.605 81.121)"/><rect x="132.329" y="31.374" width="36.649" height="18.372" rx="3.477" transform="matrix(-1 0 0 -1 301.307 81.121)"/><rect x="443.908" y="13.02" width="36.649" height="18.372" rx="3.477" transform="matrix(-1 0 0 -1 924.466 44.413)"/><rect x="407.259" y="13.02" width="36.649" height="18.372" rx="3.477" transform="matrix(-1 0 0 -1 851.168 44.413)"/><rect x="370.573" y="13.02" width="36.649" height="18.372" rx="3.477" transform="matrix(-1 0 0 -1 777.795 44.413)"/><rect x="333.924" y="13.02" width="36.649" height="18.372" rx="3.477" transform="matrix(-1 0 0 -1 704.496 44.413)"/><rect x="297.269" y="13.02" width="36.649" height="18.372" rx="3.477" transform="matrix(-1 0 0 -1 631.187 44.413)"/><rect x="260.62" y="13.02" width="36.649" height="18.372" rx="3.477" transform="matrix(-1 0 0 -1 557.888 44.413)"/><rect x="223.933" y="13.02" width="36.649" height="18.372" rx="3.477" transform="matrix(-1 0 0 -1 484.515 44.413)"/><rect x="187.284" y="13.02" width="36.649" height="18.372" rx="3.477" transform="matrix(-1 0 0 -1 411.217 44.413)"/><rect x="150.678" y="13.02" width="36.649" height="18.372" rx="3.477" transform="matrix(-1 0 0 -1 338.006 44.413)"/><rect x="114.029" y="13.02" width="36.649" height="18.372" rx="3.477" transform="matrix(-1 0 0 -1 264.707 44.413)"/><rect x="462.208" y="-5.352" width="36.649" height="18.372" rx="3.477" transform="matrix(-1 0 0 -1 961.066 7.668)"/><rect x="425.559" y="-5.352" width="36.649" height="18.372" rx="3.477" transform="matrix(-1 0 0 -1 887.768 7.668)"/><rect x="95.68" y="-5.352" width="36.649" height="18.372" rx="3.477" transform="matrix(-1 0 0 -1 228.009 7.668)"/><rect x="388.873" y="-5.352" width="36.649" height="18.372" rx="3.477" transform="matrix(-1 0 0 -1 814.394 7.668)"/><rect x="352.224" y="-5.352" width="36.649" height="18.372" rx="3.477" transform="matrix(-1 0 0 -1 741.096 7.668)"/><rect x="315.569" y="-5.352" width="36.649" height="18.372" rx="3.477" transform="matrix(-1 0 0 -1 667.786 7.668)"/><rect x="278.92" y="-5.352" width="36.649" height="18.372" rx="3.477" transform="matrix(-1 0 0 -1 594.488 7.668)"/><rect x="242.233" y="-5.352" width="36.649" height="18.372" rx="3.477" transform="matrix(-1 0 0 -1 521.115 7.668)"/><rect x="205.584" y="-5.352" width="36.649" height="18.372" rx="3.477" transform="matrix(-1 0 0 -1 447.817 7.668)"/><rect x="168.978" y="-5.352" width="36.649" height="18.372" rx="3.477" transform="matrix(-1 0 0 -1 374.605 7.668)"/><rect x="132.329" y="-5.352" width="36.649" height="18.372" rx="3.477" transform="matrix(-1 0 0 -1 301.307 7.668)"/><rect x="828.742" y="141.557" width="36.649" height="18.372" rx="3.477" transform="matrix(-1 0 0 -1 1694.134 301.487)"/><rect x="792.093" y="141.557" width="36.649" height="18.372" rx="3.477" transform="matrix(-1 0 0 -1 1620.836 301.487)"/><rect x="462.214" y="141.557" width="36.649" height="18.372" rx="3.477" transform="matrix(-1 0 0 -1 961.077 301.487)"/><rect x="755.407" y="141.557" width="36.649" height="18.372" rx="3.477" transform="matrix(-1 0 0 -1 1547.462 301.487)"/><rect x="718.758" y="141.557" width="36.649" height="18.372" rx="3.477" transform="matrix(-1 0 0 -1 1474.164 301.487)"/><rect x="682.103" y="141.557" width="36.649" height="18.372" rx="3.477" transform="matrix(-1 0 0 -1 1400.854 301.487)"/><rect x="645.454" y="141.557" width="36.649" height="18.372" rx="3.477" transform="matrix(-1 0 0 -1 1327.556 301.487)"/><rect x="608.767" y="141.557" width="36.649" height="18.372" rx="3.477" transform="matrix(-1 0 0 -1 1254.183 301.487)"/><rect x="572.118" y="141.557" width="36.649" height="18.372" rx="3.477" transform="matrix(-1 0 0 -1 1180.885 301.487)"/><rect x="535.512" y="141.557" width="36.649" height="18.372" rx="3.477" transform="matrix(-1 0 0 -1 1107.673 301.487)"/><rect x="498.863" y="141.557" width="36.649" height="18.372" rx="3.477" transform="matrix(-1 0 0 -1 1034.375 301.487)"/><rect x="810.442" y="123.185" width="36.649" height="18.372" rx="3.477" transform="matrix(-1 0 0 -1 1657.534 264.743)"/><rect x="773.793" y="123.185" width="36.649" height="18.372" rx="3.477" transform="matrix(-1 0 0 -1 1584.236 264.743)"/><rect x="737.107" y="123.185" width="36.649" height="18.372" rx="3.477" transform="matrix(-1 0 0 -1 1510.862 264.743)"/><rect x="700.458" y="123.185" width="36.649" height="18.372" rx="3.477" transform="matrix(-1 0 0 -1 1437.564 264.743)"/><rect x="663.803" y="123.185" width="36.649" height="18.372" rx="3.477" transform="matrix(-1 0 0 -1 1364.255 264.743)"/><rect x="627.154" y="123.185" width="36.649" height="18.372" rx="3.477" transform="matrix(-1 0 0 -1 1290.956 264.743)"/><rect x="590.467" y="123.185" width="36.649" height="18.372" rx="3.477" transform="matrix(-1 0 0 -1 1217.583 264.743)"/><rect x="553.818" y="123.185" width="36.649" height="18.372" rx="3.477" transform="matrix(-1 0 0 -1 1144.285 264.743)"/><rect x="517.212" y="123.185" width="36.649" height="18.372" rx="3.477" transform="matrix(-1 0 0 -1 1071.073 264.743)"/><rect x="480.563" y="123.185" width="36.649" height="18.372" rx="3.477" transform="matrix(-1 0 0 -1 997.775 264.743)"/><rect x="828.742" y="104.813" width="36.649" height="18.372" rx="3.477" transform="matrix(-1 0 0 -1 1694.134 227.998)"/><rect x="792.093" y="104.813" width="36.649" height="18.372" rx="3.477" transform="matrix(-1 0 0 -1 1620.836 227.998)"/><rect x="462.214" y="104.813" width="36.649" height="18.372" rx="3.477" transform="matrix(-1 0 0 -1 961.077 227.998)"/><rect x="755.407" y="104.813" width="36.649" height="18.372" rx="3.477" transform="matrix(-1 0 0 -1 1547.462 227.998)"/><rect x="718.758" y="104.813" width="36.649" height="18.372" rx="3.477" transform="matrix(-1 0 0 -1 1474.164 227.998)"/><rect x="682.103" y="104.813" width="36.649" height="18.372" rx="3.477" transform="matrix(-1 0 0 -1 1400.854 227.998)"/><rect x="645.454" y="104.813" width="36.649" height="18.372" rx="3.477" transform="matrix(-1 0 0 -1 1327.556 227.998)"/><rect x="608.767" y="104.813" width="36.649" height="18.372" rx="3.477" transform="matrix(-1 0 0 -1 1254.183 227.998)"/><rect x="572.118" y="104.813" width="36.649" height="18.372" rx="3.477" transform="matrix(-1 0 0 -1 1180.885 227.998)"/><rect x="535.512" y="104.813" width="36.649" height="18.372" rx="3.477" transform="matrix(-1 0 0 -1 1107.673 227.998)"/><rect x="498.863" y="104.813" width="36.649" height="18.372" rx="3.477" transform="matrix(-1 0 0 -1 1034.375 227.998)"/><rect x="810.442" y="86.491" width="36.649" height="18.372" rx="3.477" transform="matrix(-1 0 0 -1 1657.534 191.354)"/><rect x="773.793" y="86.491" width="36.649" height="18.372" rx="3.477" transform="matrix(-1 0 0 -1 1584.236 191.354)"/><rect x="737.107" y="86.491" width="36.649" height="18.372" rx="3.477" transform="matrix(-1 0 0 -1 1510.862 191.354)"/><rect x="700.458" y="86.491" width="36.649" height="18.372" rx="3.477" transform="matrix(-1 0 0 -1 1437.564 191.354)"/><rect x="663.803" y="86.491" width="36.649" height="18.372" rx="3.477" transform="matrix(-1 0 0 -1 1364.255 191.354)"/><rect x="627.154" y="86.491" width="36.649" height="18.372" rx="3.477" transform="matrix(-1 0 0 -1 1290.956 191.354)"/><rect x="590.467" y="86.491" width="36.649" height="18.372" rx="3.477" transform="matrix(-1 0 0 -1 1217.583 191.354)"/><rect x="553.818" y="86.491" width="36.649" height="18.372" rx="3.477" transform="matrix(-1 0 0 -1 1144.285 191.354)"/><rect x="517.212" y="86.491" width="36.649" height="18.372" rx="3.477" transform="matrix(-1 0 0 -1 1071.073 191.354)"/><rect x="480.563" y="86.491" width="36.649" height="18.372" rx="3.477" transform="matrix(-1 0 0 -1 997.775 191.354)"/><rect x="828.742" y="68.119" width="36.649" height="18.372" rx="3.477" transform="matrix(-1 0 0 -1 1694.134 154.609)"/><rect x="792.093" y="68.119" width="36.649" height="18.372" rx="3.477" transform="matrix(-1 0 0 -1 1620.836 154.609)"/><rect x="462.214" y="68.119" width="36.649" height="18.372" rx="3.477" transform="matrix(-1 0 0 -1 961.077 154.609)"/><rect x="755.407" y="68.119" width="36.649" height="18.372" rx="3.477" transform="matrix(-1 0 0 -1 1547.462 154.609)"/><rect x="718.758" y="68.119" width="36.649" height="18.372" rx="3.477" transform="matrix(-1 0 0 -1 1474.164 154.609)"/><rect x="682.103" y="68.119" width="36.649" height="18.372" rx="3.477" transform="matrix(-1 0 0 -1 1400.854 154.609)"/><rect x="645.454" y="68.119" width="36.649" height="18.372" rx="3.477" transform="matrix(-1 0 0 -1 1327.556 154.609)"/><rect x="608.767" y="68.119" width="36.649" height="18.372" rx="3.477" transform="matrix(-1 0 0 -1 1254.183 154.609)"/><rect x="572.118" y="68.119" width="36.649" height="18.372" rx="3.477" transform="matrix(-1 0 0 -1 1180.885 154.609)"/><rect x="535.512" y="68.119" width="36.649" height="18.372" rx="3.477" transform="matrix(-1 0 0 -1 1107.673 154.609)"/><rect x="498.863" y="68.119" width="36.649" height="18.372" rx="3.477" transform="matrix(-1 0 0 -1 1034.375 154.609)"/><rect x="810.442" y="49.746" width="36.649" height="18.372" rx="3.477" transform="matrix(-1 0 0 -1 1657.534 117.865)"/><rect x="773.793" y="49.746" width="36.649" height="18.372" rx="3.477" transform="matrix(-1 0 0 -1 1584.236 117.865)"/><rect x="737.107" y="49.746" width="36.649" height="18.372" rx="3.477" transform="matrix(-1 0 0 -1 1510.862 117.865)"/><rect x="700.458" y="49.746" width="36.649" height="18.372" rx="3.477" transform="matrix(-1 0 0 -1 1437.564 117.865)"/><rect x="663.803" y="49.746" width="36.649" height="18.372" rx="3.477" transform="matrix(-1 0 0 -1 1364.255 117.865)"/><rect x="627.154" y="49.746" width="36.649" height="18.372" rx="3.477" transform="matrix(-1 0 0 -1 1290.956 117.865)"/><rect x="590.467" y="49.746" width="36.649" height="18.372" rx="3.477" transform="matrix(-1 0 0 -1 1217.583 117.865)"/><rect x="553.818" y="49.746" width="36.649" height="18.372" rx="3.477" transform="matrix(-1 0 0 -1 1144.285 117.865)"/><rect x="517.212" y="49.746" width="36.649" height="18.372" rx="3.477" transform="matrix(-1 0 0 -1 1071.073 117.865)"/><rect x="480.563" y="49.746" width="36.649" height="18.372" rx="3.477" transform="matrix(-1 0 0 -1 997.775 117.865)"/><rect x="828.742" y="31.374" width="36.649" height="18.372" rx="3.477" transform="matrix(-1 0 0 -1 1694.134 81.121)"/><rect x="792.093" y="31.374" width="36.649" height="18.372" rx="3.477" transform="matrix(-1 0 0 -1 1620.836 81.121)"/><rect x="462.214" y="31.374" width="36.649" height="18.372" rx="3.477" transform="matrix(-1 0 0 -1 961.077 81.121)"/><rect x="755.407" y="31.374" width="36.649" height="18.372" rx="3.477" transform="matrix(-1 0 0 -1 1547.462 81.121)"/><rect x="718.758" y="31.374" width="36.649" height="18.372" rx="3.477" transform="matrix(-1 0 0 -1 1474.164 81.121)"/><rect x="682.103" y="31.374" width="36.649" height="18.372" rx="3.477" transform="matrix(-1 0 0 -1 1400.854 81.121)"/><rect x="645.454" y="31.374" width="36.649" height="18.372" rx="3.477" transform="matrix(-1 0 0 -1 1327.556 81.121)"/><rect x="608.767" y="31.374" width="36.649" height="18.372" rx="3.477" transform="matrix(-1 0 0 -1 1254.183 81.121)"/><rect x="572.118" y="31.374" width="36.649" height="18.372" rx="3.477" transform="matrix(-1 0 0 -1 1180.885 81.121)"/><rect x="535.512" y="31.374" width="36.649" height="18.372" rx="3.477" transform="matrix(-1 0 0 -1 1107.673 81.121)"/><rect x="498.863" y="31.374" width="36.649" height="18.372" rx="3.477" transform="matrix(-1 0 0 -1 1034.375 81.121)"/><rect x="810.442" y="13.02" width="36.649" height="18.372" rx="3.477" transform="matrix(-1 0 0 -1 1657.534 44.413)"/><rect x="773.793" y="13.02" width="36.649" height="18.372" rx="3.477" transform="matrix(-1 0 0 -1 1584.236 44.413)"/><rect x="737.107" y="13.02" width="36.649" height="18.372" rx="3.477" transform="matrix(-1 0 0 -1 1510.862 44.413)"/><rect x="700.458" y="13.02" width="36.649" height="18.372" rx="3.477" transform="matrix(-1 0 0 -1 1437.564 44.413)"/><rect x="663.803" y="13.02" width="36.649" height="18.372" rx="3.477" transform="matrix(-1 0 0 -1 1364.255 44.413)"/><rect x="627.154" y="13.02" width="36.649" height="18.372" rx="3.477" transform="matrix(-1 0 0 -1 1290.956 44.413)"/><rect x="590.467" y="13.02" width="36.649" height="18.372" rx="3.477" transform="matrix(-1 0 0 -1 1217.583 44.413)"/><rect x="553.818" y="13.02" width="36.649" height="18.372" rx="3.477" transform="matrix(-1 0 0 -1 1144.285 44.413)"/><rect x="517.212" y="13.02" width="36.649" height="18.372" rx="3.477" transform="matrix(-1 0 0 -1 1071.073 44.413)"/><rect x="480.563" y="13.02" width="36.649" height="18.372" rx="3.477" transform="matrix(-1 0 0 -1 997.775 44.413)"/><rect x="828.742" y="-5.352" width="36.649" height="18.372" rx="3.477" transform="matrix(-1 0 0 -1 1694.134 7.668)"/><rect x="792.093" y="-5.352" width="36.649" height="18.372" rx="3.477" transform="matrix(-1 0 0 -1 1620.836 7.668)"/><rect x="462.214" y="-5.352" width="36.649" height="18.372" rx="3.477" transform="matrix(-1 0 0 -1 961.077 7.668)"/><rect x="755.407" y="-5.352" width="36.649" height="18.372" rx="3.477" transform="matrix(-1 0 0 -1 1547.462 7.668)"/><rect x="718.758" y="-5.352" width="36.649" height="18.372" rx="3.477" transform="matrix(-1 0 0 -1 1474.164 7.668)"/><rect x="682.103" y="-5.352" width="36.649" height="18.372" rx="3.477" transform="matrix(-1 0 0 -1 1400.854 7.668)"/><rect x="645.454" y="-5.352" width="36.649" height="18.372" rx="3.477" transform="matrix(-1 0 0 -1 1327.556 7.668)"/><rect x="608.767" y="-5.352" width="36.649" height="18.372" rx="3.477" transform="matrix(-1 0 0 -1 1254.183 7.668)"/><rect x="572.118" y="-5.352" width="36.649" height="18.372" rx="3.477" transform="matrix(-1 0 0 -1 1180.885 7.668)"/><rect x="535.512" y="-5.352" width="36.649" height="18.372" rx="3.477" transform="matrix(-1 0 0 -1 1107.673 7.668)"/><rect x="498.863" y="-5.352" width="36.649" height="18.372" rx="3.477" transform="matrix(-1 0 0 -1 1034.375 7.668)"/><rect x="1195.334" y="141.557" width="36.649" height="18.372" rx="3.477" transform="matrix(-1 0 0 -1 2427.316 301.487)"/><rect x="1158.684" y="141.557" width="36.649" height="18.372" rx="3.477" transform="matrix(-1 0 0 -1 2354.018 301.487)"/><rect x="828.805" y="141.557" width="36.649" height="18.372" rx="3.477" transform="matrix(-1 0 0 -1 1694.259 301.487)"/><rect x="1121.998" y="141.557" width="36.649" height="18.372" rx="3.477" transform="matrix(-1 0 0 -1 2280.645 301.487)"/><rect x="1085.349" y="141.557" width="36.649" height="18.372" rx="3.477" transform="matrix(-1 0 0 -1 2207.347 301.487)"/><rect x="1048.694" y="141.557" width="36.649" height="18.372" rx="3.477" transform="matrix(-1 0 0 -1 2134.037 301.487)"/><rect x="1012.045" y="141.557" width="36.649" height="18.372" rx="3.477" transform="matrix(-1 0 0 -1 2060.739 301.487)"/><rect x="975.358" y="141.557" width="36.649" height="18.372" rx="3.477" transform="matrix(-1 0 0 -1 1987.365 301.487)"/><rect x="938.709" y="141.557" width="36.649" height="18.372" rx="3.477" transform="matrix(-1 0 0 -1 1914.067 301.487)"/><rect x="902.103" y="141.557" width="36.649" height="18.372" rx="3.477" transform="matrix(-1 0 0 -1 1840.856 301.487)"/><rect x="865.454" y="141.557" width="36.649" height="18.372" rx="3.477" transform="matrix(-1 0 0 -1 1767.558 301.487)"/><rect x="1177.034" y="123.185" width="36.649" height="18.372" rx="3.477" transform="matrix(-1 0 0 -1 2390.716 264.743)"/><rect x="1140.385" y="123.185" width="36.649" height="18.372" rx="3.477" transform="matrix(-1 0 0 -1 2317.418 264.743)"/><rect x="1103.698" y="123.185" width="36.649" height="18.372" rx="3.477" transform="matrix(-1 0 0 -1 2244.045 264.743)"/><rect x="1067.049" y="123.185" width="36.649" height="18.372" rx="3.477" transform="matrix(-1 0 0 -1 2170.747 264.743)"/><rect x="1030.394" y="123.185" width="36.649" height="18.372" rx="3.477" transform="matrix(-1 0 0 -1 2097.437 264.743)"/><rect x="993.745" y="123.185" width="36.649" height="18.372" rx="3.477" transform="matrix(-1 0 0 -1 2024.139 264.743)"/><rect x="957.058" y="123.185" width="36.649" height="18.372" rx="3.477" transform="matrix(-1 0 0 -1 1950.765 264.743)"/><rect x="920.409" y="123.185" width="36.649" height="18.372" rx="3.477" transform="matrix(-1 0 0 -1 1877.467 264.743)"/><rect x="883.803" y="123.185" width="36.649" height="18.372" rx="3.477" transform="matrix(-1 0 0 -1 1804.256 264.743)"/><rect x="847.154" y="123.185" width="36.649" height="18.372" rx="3.477" transform="matrix(-1 0 0 -1 1730.958 264.743)"/><rect x="1195.334" y="104.813" width="36.649" height="18.372" rx="3.477" transform="matrix(-1 0 0 -1 2427.316 227.998)"/><rect x="1158.684" y="104.813" width="36.649" height="18.372" rx="3.477" transform="matrix(-1 0 0 -1 2354.018 227.998)"/><rect x="828.805" y="104.813" width="36.649" height="18.372" rx="3.477" transform="matrix(-1 0 0 -1 1694.259 227.998)"/><rect x="1121.998" y="104.813" width="36.649" height="18.372" rx="3.477" transform="matrix(-1 0 0 -1 2280.645 227.998)"/><rect x="1085.349" y="104.813" width="36.649" height="18.372" rx="3.477" transform="matrix(-1 0 0 -1 2207.347 227.998)"/><rect x="1048.694" y="104.813" width="36.649" height="18.372" rx="3.477" transform="matrix(-1 0 0 -1 2134.037 227.998)"/><rect x="1012.045" y="104.813" width="36.649" height="18.372" rx="3.477" transform="matrix(-1 0 0 -1 2060.739 227.998)"/><rect x="975.358" y="104.813" width="36.649" height="18.372" rx="3.477" transform="matrix(-1 0 0 -1 1987.365 227.998)"/><rect x="938.709" y="104.813" width="36.649" height="18.372" rx="3.477" transform="matrix(-1 0 0 -1 1914.067 227.998)"/><rect x="902.103" y="104.813" width="36.649" height="18.372" rx="3.477" transform="matrix(-1 0 0 -1 1840.856 227.998)"/><rect x="865.454" y="104.813" width="36.649" height="18.372" rx="3.477" transform="matrix(-1 0 0 -1 1767.558 227.998)"/><rect x="1177.034" y="86.491" width="36.649" height="18.372" rx="3.477" transform="matrix(-1 0 0 -1 2390.716 191.354)"/><rect x="1140.385" y="86.491" width="36.649" height="18.372" rx="3.477" transform="matrix(-1 0 0 -1 2317.418 191.354)"/><rect x="1103.698" y="86.491" width="36.649" height="18.372" rx="3.477" transform="matrix(-1 0 0 -1 2244.045 191.354)"/><rect x="1067.049" y="86.491" width="36.649" height="18.372" rx="3.477" transform="matrix(-1 0 0 -1 2170.747 191.354)"/><rect x="1030.394" y="86.491" width="36.649" height="18.372" rx="3.477" transform="matrix(-1 0 0 -1 2097.437 191.354)"/><rect x="993.745" y="86.491" width="36.649" height="18.372" rx="3.477" transform="matrix(-1 0 0 -1 2024.139 191.354)"/><rect x="957.058" y="86.491" width="36.649" height="18.372" rx="3.477" transform="matrix(-1 0 0 -1 1950.765 191.354)"/><rect x="920.409" y="86.491" width="36.649" height="18.372" rx="3.477" transform="matrix(-1 0 0 -1 1877.467 191.354)"/><rect x="883.803" y="86.491" width="36.649" height="18.372" rx="3.477" transform="matrix(-1 0 0 -1 1804.256 191.354)"/><rect x="847.154" y="86.491" width="36.649" height="18.372" rx="3.477" transform="matrix(-1 0 0 -1 1730.958 191.354)"/><rect x="1195.334" y="68.119" width="36.649" height="18.372" rx="3.477" transform="matrix(-1 0 0 -1 2427.316 154.609)"/><rect x="1158.684" y="68.119" width="36.649" height="18.372" rx="3.477" transform="matrix(-1 0 0 -1 2354.018 154.609)"/><rect x="828.805" y="68.119" width="36.649" height="18.372" rx="3.477" transform="matrix(-1 0 0 -1 1694.259 154.609)"/><rect x="1121.998" y="68.119" width="36.649" height="18.372" rx="3.477" transform="matrix(-1 0 0 -1 2280.645 154.609)"/><rect x="1085.349" y="68.119" width="36.649" height="18.372" rx="3.477" transform="matrix(-1 0 0 -1 2207.347 154.609)"/><rect x="1048.694" y="68.119" width="36.649" height="18.372" rx="3.477" transform="matrix(-1 0 0 -1 2134.037 154.609)"/><rect x="1012.045" y="68.119" width="36.649" height="18.372" rx="3.477" transform="matrix(-1 0 0 -1 2060.739 154.609)"/><rect x="975.358" y="68.119" width="36.649" height="18.372" rx="3.477" transform="matrix(-1 0 0 -1 1987.365 154.609)"/><rect x="938.709" y="68.119" width="36.649" height="18.372" rx="3.477" transform="matrix(-1 0 0 -1 1914.067 154.609)"/><rect x="902.103" y="68.119" width="36.649" height="18.372" rx="3.477" transform="matrix(-1 0 0 -1 1840.856 154.609)"/><rect x="865.454" y="68.119" width="36.649" height="18.372" rx="3.477" transform="matrix(-1 0 0 -1 1767.558 154.609)"/><rect x="1177.034" y="49.746" width="36.649" height="18.372" rx="3.477" transform="matrix(-1 0 0 -1 2390.716 117.865)"/><rect x="1140.385" y="49.746" width="36.649" height="18.372" rx="3.477" transform="matrix(-1 0 0 -1 2317.418 117.865)"/><rect x="1103.698" y="49.746" width="36.649" height="18.372" rx="3.477" transform="matrix(-1 0 0 -1 2244.045 117.865)"/><rect x="1067.049" y="49.746" width="36.649" height="18.372" rx="3.477" transform="matrix(-1 0 0 -1 2170.747 117.865)"/><rect x="1030.394" y="49.746" width="36.649" height="18.372" rx="3.477" transform="matrix(-1 0 0 -1 2097.437 117.865)"/><rect x="993.745" y="49.746" width="36.649" height="18.372" rx="3.477" transform="matrix(-1 0 0 -1 2024.139 117.865)"/><rect x="957.058" y="49.746" width="36.649" height="18.372" rx="3.477" transform="matrix(-1 0 0 -1 1950.765 117.865)"/><rect x="920.409" y="49.746" width="36.649" height="18.372" rx="3.477" transform="matrix(-1 0 0 -1 1877.467 117.865)"/><rect x="883.803" y="49.746" width="36.649" height="18.372" rx="3.477" transform="matrix(-1 0 0 -1 1804.256 117.865)"/><rect x="847.154" y="49.746" width="36.649" height="18.372" rx="3.477" transform="matrix(-1 0 0 -1 1730.958 117.865)"/><rect x="1195.334" y="31.374" width="36.649" height="18.372" rx="3.477" transform="matrix(-1 0 0 -1 2427.316 81.121)"/><rect x="1158.684" y="31.374" width="36.649" height="18.372" rx="3.477" transform="matrix(-1 0 0 -1 2354.018 81.121)"/><rect x="828.805" y="31.374" width="36.649" height="18.372" rx="3.477" transform="matrix(-1 0 0 -1 1694.259 81.121)"/><rect x="1121.998" y="31.374" width="36.649" height="18.372" rx="3.477" transform="matrix(-1 0 0 -1 2280.645 81.121)"/><rect x="1085.349" y="31.374" width="36.649" height="18.372" rx="3.477" transform="matrix(-1 0 0 -1 2207.347 81.121)"/><rect x="1048.694" y="31.374" width="36.649" height="18.372" rx="3.477" transform="matrix(-1 0 0 -1 2134.037 81.121)"/><rect x="1012.045" y="31.374" width="36.649" height="18.372" rx="3.477" transform="matrix(-1 0 0 -1 2060.739 81.121)"/><rect x="975.358" y="31.374" width="36.649" height="18.372" rx="3.477" transform="matrix(-1 0 0 -1 1987.365 81.121)"/><rect x="938.709" y="31.374" width="36.649" height="18.372" rx="3.477" transform="matrix(-1 0 0 -1 1914.067 81.121)"/><rect x="902.103" y="31.374" width="36.649" height="18.372" rx="3.477" transform="matrix(-1 0 0 -1 1840.856 81.121)"/><rect x="865.454" y="31.374" width="36.649" height="18.372" rx="3.477" transform="matrix(-1 0 0 -1 1767.558 81.121)"/><rect x="1177.034" y="13.02" width="36.649" height="18.372" rx="3.477" transform="matrix(-1 0 0 -1 2390.716 44.413)"/><rect x="1140.385" y="13.02" width="36.649" height="18.372" rx="3.477" transform="matrix(-1 0 0 -1 2317.418 44.413)"/><rect x="1103.698" y="13.02" width="36.649" height="18.372" rx="3.477" transform="matrix(-1 0 0 -1 2244.045 44.413)"/><rect x="1067.049" y="13.02" width="36.649" height="18.372" rx="3.477" transform="matrix(-1 0 0 -1 2170.747 44.413)"/><rect x="1030.394" y="13.02" width="36.649" height="18.372" rx="3.477" transform="matrix(-1 0 0 -1 2097.437 44.413)"/><rect x="993.745" y="13.02" width="36.649" height="18.372" rx="3.477" transform="matrix(-1 0 0 -1 2024.139 44.413)"/><rect x="957.058" y="13.02" width="36.649" height="18.372" rx="3.477" transform="matrix(-1 0 0 -1 1950.765 44.413)"/><rect x="920.409" y="13.02" width="36.649" height="18.372" rx="3.477" transform="matrix(-1 0 0 -1 1877.467 44.413)"/><rect x="883.803" y="13.02" width="36.649" height="18.372" rx="3.477" transform="matrix(-1 0 0 -1 1804.256 44.413)"/><rect x="847.154" y="13.02" width="36.649" height="18.372" rx="3.477" transform="matrix(-1 0 0 -1 1730.958 44.413)"/><rect x="1195.334" y="-5.352" width="36.649" height="18.372" rx="3.477" transform="matrix(-1 0 0 -1 2427.316 7.668)"/><rect x="1158.684" y="-5.352" width="36.649" height="18.372" rx="3.477" transform="matrix(-1 0 0 -1 2354.018 7.668)"/><rect x="828.805" y="-5.352" width="36.649" height="18.372" rx="3.477" transform="matrix(-1 0 0 -1 1694.259 7.668)"/><rect x="1121.998" y="-5.352" width="36.649" height="18.372" rx="3.477" transform="matrix(-1 0 0 -1 2280.645 7.668)"/><rect x="1085.349" y="-5.352" width="36.649" height="18.372" rx="3.477" transform="matrix(-1 0 0 -1 2207.347 7.668)"/><rect x="1048.694" y="-5.352" width="36.649" height="18.372" rx="3.477" transform="matrix(-1 0 0 -1 2134.037 7.668)"/><rect x="1012.045" y="-5.352" width="36.649" height="18.372" rx="3.477" transform="matrix(-1 0 0 -1 2060.739 7.668)"/><rect x="975.358" y="-5.352" width="36.649" height="18.372" rx="3.477" transform="matrix(-1 0 0 -1 1987.365 7.668)"/><rect x="938.709" y="-5.352" width="36.649" height="18.372" rx="3.477" transform="matrix(-1 0 0 -1 1914.067 7.668)"/><rect x="902.103" y="-5.352" width="36.649" height="18.372" rx="3.477" transform="matrix(-1 0 0 -1 1840.856 7.668)"/><rect x="865.454" y="-5.352" width="36.649" height="18.372" rx="3.477" transform="matrix(-1 0 0 -1 1767.558 7.668)"/></g></g></g></g><g fill="#f2bb75"><circle cx="59.048" cy="124.469" r="2.597"/><circle cx="49.765" cy="120.233" r="2.597"/><circle cx="49.348" cy="128.492" r="2.597"/><circle cx="28.853" cy="116.499" r="2.597"/><circle cx="40.47" cy="103.367" r="2.597"/><circle cx="319.017" cy="91.713" r="2.597"/><circle cx="329.003" cy="89.616" r="2.597"/><circle cx="324.44" cy="82.72" r="2.597"/><circle cx="348.053" cy="80.217" r="2.597"/><circle cx="346.49" cy="97.68" r="2.597"/></g><g opacity=".33" class="T"><use href="#U"/><use href="#V"/><path d="M1123.775 68.483a2.82 2.82 0 0 0 2.818-2.825v-5.895a2.82 2.82 0 0 0-2.818-2.825 2.82 2.82 0 0 0-2.818 2.825v5.895a2.82 2.82 0 0 0 2.818 2.825zm-42.534 23.343a2.82 2.82 0 0 0 2.818-2.825v-8.844a2.82 2.82 0 0 0-2.818-2.825 2.82 2.82 0 0 0-2.818 2.825v8.844a2.82 2.82 0 0 0 2.818 2.825z"/><use href="#W"/><path d="M1092.026 91.826a2.82 2.82 0 0 0 2.818-2.825v-5.898a2.82 2.82 0 0 0-2.818-2.825 2.82 2.82 0 0 0-2.818 2.825v5.898a2.82 2.82 0 0 0 2.818 2.825zm-21.691-48.896a2.82 2.82 0 0 0 2.818-2.825v-8.844a2.82 2.82 0 0 0-2.818-2.825 2.82 2.82 0 0 0-2.818 2.825v8.844a2.82 2.82 0 0 0 2.818 2.825zm-11.768 0a2.82 2.82 0 0 0 2.818-2.825v-5.898a2.82 2.82 0 0 0-2.818-2.825 2.82 2.82 0 0 0-2.818 2.825v5.898a2.82 2.82 0 0 0 2.818 2.825zm22.553 0a2.82 2.82 0 0 0 2.818-2.825v-5.898a2.82 2.82 0 0 0-2.818-2.825 2.82 2.82 0 0 0-2.818 2.825v5.898a2.82 2.82 0 0 0 2.818 2.825z"/></g><g opacity=".33" class="T"><path d="M610.797 150.58a2.82 2.82 0 0 0 2.818-2.825v-8.844a2.82 2.82 0 0 0-2.818-2.825 2.82 2.82 0 0 0-2.818 2.825v8.844a2.82 2.82 0 0 0 2.818 2.825zm-11.766 0a2.82 2.82 0 0 0 2.818-2.825v-5.895a2.82 2.82 0 0 0-2.818-2.825 2.82 2.82 0 0 0-2.818 2.825v5.895a2.82 2.82 0 0 0 2.818 2.825zm22.552 0a2.82 2.82 0 0 0 2.818-2.825v-5.895a2.82 2.82 0 0 0-2.818-2.825 2.82 2.82 0 0 0-2.818 2.825v5.895a2.82 2.82 0 0 0 2.818 2.825zm-53.439-25.553a2.82 2.82 0 0 0 2.818-2.825v-8.844a2.82 2.82 0 0 0-2.818-2.825 2.82 2.82 0 0 0-2.818 2.825v8.844a2.82 2.82 0 0 0 2.818 2.825zm-11.768 0a2.82 2.82 0 0 0 2.818-2.825v-5.898a2.82 2.82 0 0 0-2.818-2.825 2.82 2.82 0 0 0-2.818 2.825v5.898a2.82 2.82 0 0 0 2.818 2.825zm22.553 0a2.82 2.82 0 0 0 2.818-2.825v-5.898a2.82 2.82 0 0 0-2.818-2.825 2.82 2.82 0 0 0-2.818 2.825v5.898a2.82 2.82 0 0 0 2.818 2.825z"/></g><g opacity=".33" class="T"><use href="#X"/><use href="#Y"/><path d="M699.238 48.335a2.82 2.82 0 0 1-2.818-2.825v-5.895a2.82 2.82 0 0 1 2.818-2.825 2.82 2.82 0 0 1 2.818 2.825v5.895a2.82 2.82 0 0 1-2.818 2.825zm42.534 23.344a2.82 2.82 0 0 1-2.818-2.825V60.01a2.82 2.82 0 0 1 2.818-2.825 2.82 2.82 0 0 1 2.818 2.825v8.844a2.82 2.82 0 0 1-2.818 2.825z"/><use href="#Z"/><path d="M730.986 71.679a2.82 2.82 0 0 1-2.818-2.825v-5.898a2.82 2.82 0 0 1 2.818-2.825 2.82 2.82 0 0 1 2.818 2.825v5.898a2.82 2.82 0 0 1-2.818 2.825zm21.692-48.897a2.82 2.82 0 0 1-2.818-2.825v-8.844a2.82 2.82 0 0 1 2.818-2.825 2.82 2.82 0 0 1 2.818 2.825v8.844a2.82 2.82 0 0 1-2.818 2.825zm11.768 0a2.82 2.82 0 0 1-2.818-2.825v-5.898a2.82 2.82 0 0 1 2.818-2.825 2.82 2.82 0 0 1 2.818 2.825v5.898a2.82 2.82 0 0 1-2.818 2.825zm-22.553 0a2.82 2.82 0 0 1-2.818-2.825v-5.898a2.82 2.82 0 0 1 2.818-2.825 2.82 2.82 0 0 1 2.818 2.825v5.898a2.82 2.82 0 0 1-2.818 2.825z"/></g><path d="M547.17 43.834h-19.544l-5.296 48.37a4.53 4.53 0 0 0 4.503 5.023h21.227a4.53 4.53 0 0 0 4.502-5.031l-5.391-48.361z" fill="#684b48"/><g clip-path="url(#C)" class="C"><path d="M537.461 78.799l-15.977-11.643c-8.825-6.431-9.822-19.222-2.101-26.943l5.589-5.589h24.977l5.589 5.589c7.721 7.721 6.724 20.512-2.101 26.943L537.46 78.799z" fill="#57423a"/></g><path d="M537.446 42.076c0 6.916 2.747 13.551 7.639 18.443s11.527 7.639 18.447 7.639h26.236V50.915c0-6.919-2.747-13.555-7.639-18.447a26.1 26.1 0 0 0-18.447-7.639h-26.236v17.246z" class="C N"/><g clip-path="url(#D)"><path d="M537.446 24.83l58.388 49.947h-58.388V24.83z" class="C E"/><path d="M535.378 27.368l4.134-5.066 52.328 42.7-4.134 5.066z" class="J"/><g class="C"><g class="G"><path d="M567.967 70.984h-6.54V59.983a3.27 3.27 0 0 1 6.54 0v11.001zm-13.08.484h-6.54V49.761c0-1.805 1.462-3.267 3.267-3.267h.007c1.805 0 3.267 1.462 3.267 3.267v21.707z" class="D"/></g><g class="E"><path d="M589.768 49.826v-6.194h-9.984a3.1 3.1 0 0 0-2.191.909c-.579.579-.906 1.367-.906 2.188h0c0 .824.327 1.609.906 2.191a3.09 3.09 0 0 0 2.191.906h9.984zm0-12.734v-6.54h-19.624c-1.805 0-3.267 1.462-3.267 3.267v.007c0 1.805 1.462 3.267 3.267 3.267h19.624z" class="O"/></g></g></g><path d="M537.446 42.076c0 6.916-2.747 13.551-7.639 18.443s-11.527 7.639-18.447 7.639h-26.236V50.915c0-6.919 2.747-13.555 7.639-18.447a26.1 26.1 0 0 1 18.447-7.639h26.236v17.246z" class="C N"/><g clip-path="url(#E)"><path d="M537.446 24.83l-58.387 49.947h58.387V24.83z" class="C E"/><path d="M483.057 65.005l52.322-42.708 4.135 5.066-52.322 42.708z" class="J"/><g class="C"><g class="G"><path d="M506.926 70.984h6.54V59.983a3.27 3.27 0 0 0-6.54 0v11.001zm13.08.484h6.54V49.764c0-.867-.343-1.697-.958-2.312s-1.445-.958-2.312-.958-1.7.347-2.312.958a3.27 3.27 0 0 0-.958 2.312v21.704z" class="D"/></g><g class="E"><path d="M485.125 50.173v-6.54h9.814c.867 0 1.697.343 2.309.958a3.25 3.25 0 0 1 .958 2.309v.007c0 .867-.343 1.697-.958 2.312s-1.442.955-2.309.955h-9.814zm0-13.081v-6.54h19.62c.867 0 1.7.347 2.312.958a3.27 3.27 0 0 1 .958 2.312 3.26 3.26 0 0 1-3.27 3.27h-19.62z" class="O"/></g></g></g><path d="M537.461 68.158l-15.671-11.42c-8.655-6.308-9.634-18.854-2.061-26.427l5.482-5.482h24.499l5.482 5.482c7.573 7.573 6.595 20.119-2.061 26.427l-15.671 11.42z" class="C J"/><g clip-path="url(#F)"><path d="M537.461 22.844h24.723v46.924h-24.723z" class="E"/><path d="M534.178 20.106h6.54v57.037h-6.54z" fill="#d8df62"/><g class="D E"><use href="#a"/></g><g class="D G"><use href="#b"/></g><path d="M514.259 63.633a3.27 3.27 0 0 1-2.738-1.475c-.992-1.512-.571-3.538.941-4.528l13.293-8.72c1.512-.996 3.538-.566 4.526.939.992 1.512.571 3.538-.941 4.528l-13.293 8.72c-.554.364-1.175.536-1.788.536z" class="D E"/><g class="D G"><path d="M560.632 63.633a3.24 3.24 0 0 1-1.788-.536l-13.289-8.72a3.27 3.27 0 0 1-.941-4.528c.988-1.505 3.002-1.937 4.526-.939l13.289 8.72a3.27 3.27 0 0 1 .941 4.528c-.626.956-1.673 1.475-2.738 1.475z"/></g></g><path d="M515.751 97.226h44.55" class="K M P Q R S"/><use href="#c" fill="#fcf3f0"/><use href="#c" class="F"/><g clip-path="url(#G)"><path d="M1394.143 114.107l-91.234-84.154c-13.558-12.506-35.511-2.889-35.511 15.555v95.007a13.77 13.77 0 0 0 13.769 13.769h97.276c21.083 0 31.198-25.882 15.7-40.177z" class="F"/><path d="M1374.21 89.503v12.553a9.96 9.96 0 0 1-9.959 9.959H1263.45v11.673h120.895V89.504h-10.135z" class="U"/></g><path d="M1357.108 93.741l-61.835-57.037c-10.642-9.816-27.874-2.268-27.874 12.21v63.519a9.75 9.75 0 0 0 9.745 9.745h68.851c14.923 0 22.081-18.319 11.113-28.437z" class="L"/><path d="M1353.132 96.788l-59.543-54.923c-9.999-9.224-26.191-2.131-26.191 11.473v59.682a9.16 9.16 0 0 0 9.157 9.157h66.655c13.323 0 19.715-16.356 9.922-25.389z" class="V"/><g clip-path="url(#H)" fill="#e7f2fd"><path style="mix-blend-mode:overlay" d="M1256.14 122.647h-23.242l35.305-94.463h23.243l-35.306 94.463z" class="D"/><path d="M1304.749 123.307h-11.602l35.306-94.463h11.602l-35.306 94.463zm68.8 0h-56.854L1352 28.844h56.855l-35.306 94.463z" opacity=".1"/></g><rect x="1235.446" y="-6.356" width="70.205" height="128.534" rx="10.588" class="F"/><path d="M1254.435-4.021h31.902a9.02 9.02 0 0 1 9.014 9.014V96.31c0 2.781-2.258 5.039-5.039 5.039h-39.853c-2.781 0-5.039-2.258-5.039-5.039V4.993a9.02 9.02 0 0 1 9.014-9.014z" fill="#edf3f3"/><path d="M1254.435-6.356h31.902a9.02 9.02 0 0 1 9.014 9.014v91.317c0 2.781-2.258 5.039-5.039 5.039h-39.853c-2.781 0-5.039-2.258-5.039-5.039V2.658a9.02 9.02 0 0 1 9.014-9.014z" class="L"/><path d="M1256.721-6.356h29.616a9.02 9.02 0 0 1 9.014 9.014v89.154a4.51 4.51 0 0 1-4.507 4.507h-39.848a3.29 3.29 0 0 1-3.29-3.29V2.658a9.02 9.02 0 0 1 9.014-9.014z" class="V"/><g clip-path="url(#I)"><g class="B W X Y"><path d="M1245.405 9.804l49.93-.025m-49.924 15.014l49.931-.024m-49.925 6.258l49.931-.025"/></g><use href="#d" class="L"/><g class="B W X Y"><path d="M1245.411 51.7l49.931-.024m-49.925 6.258l49.931-.025"/></g><path d="M1245.411 51.639h49.937v6.209h-49.937z" class="L"/><g class="B W X Y"><path d="M1245.436 84.753l49.93-.025m-49.93-6.139l49.93-.024"/></g><path d="M1245.411 78.577h49.937v6.209h-49.937z" class="L"/><g fill="#e7f2fd"><path d="M1280.892 110.189h-13.495l40.685-117.58h13.496l-40.686 117.58zm-26.296 8.275h-6.736l43.406-125.441h6.736l-43.406 125.441zm-20.938-8.249h-30.841l40.551-117.192h30.841l-40.551 117.192z" opacity=".1"/></g></g><path d="M1263.174 75.89h14.422a6 6 0 0 1 5.998 5.998v40.29h-26.418v-40.29a6 6 0 0 1 5.998-5.998z" class="F"/><path d="M1276.212 80.52h-11.979c-1.647 0-2.994 1.347-2.994 2.994v38.664h17.967V83.514c0-1.647-1.347-2.994-2.994-2.994z" class="V"/><path d="M1250.801 69.009h-19.462l-5.274 48.167c-.292 2.67 1.798 5.002 4.484 5.002h21.138a4.51 4.51 0 0 0 4.483-5.01l-5.369-48.159z" fill="#684b48"/><g clip-path="url(#J)" class="C"><path d="M1241.133 103.827l-15.91-11.594c-8.788-6.404-9.781-19.142-2.092-26.831l5.565-5.565h24.873l5.565 5.565c7.689 7.689 6.696 20.427-2.092 26.831l-15.91 11.594z" fill="#57423a"/></g><path d="M1241.118 67.258a25.97 25.97 0 0 0 7.607 18.366c4.872 4.872 11.479 7.607 18.369 7.607h26.126V76.06a25.97 25.97 0 0 0-7.607-18.369 25.99 25.99 0 0 0-18.369-7.607h-26.126v17.174z" class="C N"/><g clip-path="url(#K)"><path d="M1241.118 50.084l58.143 49.738h-58.143V50.084z" class="C E"/><path d="M1239.06 52.614l4.117-5.045 52.109 42.522-4.117 5.045z" class="J"/><g class="C"><g class="G"><path d="M1271.511 96.045h-6.513V85.09a3.26 3.26 0 0 1 3.256-3.256 3.26 3.26 0 0 1 3.256 3.256v10.955zm-13.025.482h-6.513V74.911c0-1.798 1.456-3.253 3.253-3.253h.007c1.797 0 3.253 1.456 3.253 3.253v21.616z" class="D"/></g><g class="E"><path d="M1293.221 74.976v-6.168h-9.942a3.09 3.09 0 0 0-2.182.905c-.576.576-.902 1.361-.902 2.179h0c0 .821.326 1.602.902 2.182a3.08 3.08 0 0 0 2.182.902h9.942zm0-12.68v-6.513h-19.542c-1.797 0-3.253 1.456-3.253 3.253v.007c0 1.798 1.456 3.253 3.253 3.253h19.542z" class="O"/></g></g></g><path d="M1241.118 67.258a25.97 25.97 0 0 1-7.607 18.366c-4.872 4.872-11.479 7.607-18.369 7.607h-26.126V76.06a25.97 25.97 0 0 1 7.607-18.369 25.99 25.99 0 0 1 18.369-7.607h26.126v17.174z" class="C N"/><g clip-path="url(#L)"><path d="M1241.118 50.084l-58.143 49.738h58.143V50.084z" class="C E"/><path d="M1186.956 90.092l52.103-42.529 4.118 5.045-52.103 42.529z" class="J"/><g class="C"><g class="G"><path d="M1210.725 96.045h6.513V85.09a3.26 3.26 0 0 0-3.256-3.256 3.26 3.26 0 0 0-3.256 3.256v10.955zm13.026.482h6.513V74.914c0-.863-.342-1.69-.954-2.302a3.26 3.26 0 0 0-4.604 0c-.612.612-.954 1.439-.954 2.302v21.613z" class="D"/></g><g class="E"><path d="M1189.016 75.321v-6.513h9.773a3.24 3.24 0 0 1 3.253 3.253v.007c0 .863-.342 1.69-.954 2.302a3.25 3.25 0 0 1-2.299.951h-9.773zm0-13.025v-6.513h19.538a3.26 3.26 0 0 1 2.302.954c.612.612.954 1.439.954 2.302a3.25 3.25 0 0 1-3.256 3.256h-19.538z" class="O"/></g></g></g><path d="M1241.133 93.231l-15.605-11.372c-8.619-6.281-9.593-18.775-2.052-26.317l5.459-5.459h24.396l5.459 5.459c7.541 7.541 6.567 20.035-2.052 26.317l-15.605 11.372z" class="C J"/><g clip-path="url(#M)"><path d="M1241.133 48.107h24.619v46.728h-24.619z" class="E"/><path d="M1237.863 45.38h6.513v56.798h-6.513z" fill="#d8df62"/><g class="D E"><path d="M1218.028,73.876c-1.06,0-2.103-.517-2.726-1.469-.988-1.505-.568-3.524.937-4.509l13.238-8.684c1.505-.992,3.524-.564,4.507.935.988,1.505.568,3.524-.937,4.509l-13.238,8.684c-.551.363-1.17.534-1.781.534Z"/></g><g class="D G"><use href="#e"/></g><path d="M1218.028,88.725c-1.06,0-2.103-.517-2.726-1.469-.988-1.505-.568-3.524.937-4.509l13.238-8.684c1.505-.992,3.524-.564,4.507.935.988,1.505.568,3.524-.937,4.509l-13.238,8.684c-.551.363-1.17.534-1.781.534Z" class="D E"/><g class="D G"><path d="M1264.207 88.725c-.611 0-1.23-.172-1.781-.534l-13.233-8.684c-1.505-.986-1.925-3.004-.937-4.509a3.25 3.25 0 0 1 4.507-.935l13.233 8.684c1.505.986 1.925 3.004.937 4.509-.623.952-1.666 1.469-2.726 1.469z"/></g></g><path d="M1223.306 122.178h168.057" class="K M P Q R S"/><path d="M794.091 189.407a13.72 13.72 0 0 1-11.365-6.033c-2.552-3.772-3.076-8.567-1.38-12.797l41.511-103.779c2.525-6.313 8.623-10.412 15.422-10.412h59.339a16.63 16.63 0 0 1 15.988 12.06l13.182 46.137 50.808 14.516c4.688 1.339 8.539 4.641 10.557 9.079l29.58 65.071a13.74 13.74 0 0 1-.956 13.116 13.73 13.73 0 0 1-11.548 6.297H903.958c-6.676 0-13.078-2.651-17.8-7.371l-18.507-18.513c-4.722-4.72-11.124-7.371-17.8-7.371H794.09z" fill="#f0be5b" class="C"/><path d="M870.983-39.21h7.893V84.872h-7.893z" fill="#dde6fd"/><path d="M881.933 84.874h-14.009c-1.978 0-3.583-1.599-3.592-3.576v-.009c-.018-4.36 3.534-7.927 7.893-7.927h5.405a7.91 7.91 0 0 1 7.893 7.927v.009a3.59 3.59 0 0 1-3.591 3.576z" fill="#b8cefc"/><path d="M859.965,69.379h7.056c2.935,0,5.315,2.38,5.315,5.315h0c0,2.935,2.38,5.315,5.315,5.315h8.848c2.935,0,5.315,2.38,5.315,5.315v2.567c0,2.935-2.38,5.315-5.315,5.315h-26.625c-2.95,0-5.335-2.402-5.315-5.352l.092-13.197c.02-2.921,2.394-5.278,5.315-5.278Z" fill="#f0be5b"/><g clip-path="url(#N)"><g class="D"><use href="#f" fill="#4eb5bf"/></g><g class="D"><use href="#f" fill="#4eb5bf"/></g><g opacity=".15" class="F"><path d="M100.199-54.941v187.716a6.23 6.23 0 0 1-6.209 6.209H73.205s3.364 0 3.364-3.912V-57.756c0-3.912-3.364-3.912-3.364-3.912h20.267a6.75 6.75 0 0 1 6.727 6.727z"/></g><g opacity=".2"><path d="M53.175 132.775V-54.941a6.75 6.75 0 0 1 6.727-6.727h0s-3.364 0-3.364 3.912v192.828c0 3.912 3.364 3.912 3.364 3.912h-.518a6.23 6.23 0 0 1-6.209-6.209z" fill="#233f6e"/></g><g style="mix-blend-mode:overlay" opacity=".25" class="F"><path d="M100.199-54.941v190.013c0 2.152-1.76 3.912-3.912 3.912h-2.815s3.364 0 3.364-3.912V-57.756c0-3.912-3.364-3.912-3.364-3.912h0a6.75 6.75 0 0 1 6.727 6.727z"/></g><g style="mix-blend-mode:multiply" class="H"><use href="#g"/></g><path d="M87.426 104.238h12.773a1.49 1.49 0 1 0 0-2.98H87.426a1.49 1.49 0 1 0 0 2.98z" class="H"/><g style="mix-blend-mode:multiply" class="H"><use href="#h"/></g><path d="M53.175 104.238h12.773a1.49 1.49 0 1 0 0-2.98H53.175a1.49 1.49 0 1 0 0 2.98z" class="H"/><g clip-path="url(#O)" class="H"><g style="mix-blend-mode:multiply"><path d="M53.175 26.896h47.024a1.49 1.49 0 0 0 0-2.98H53.175a1.49 1.49 0 0 0 0 2.98z"/></g></g><g clip-path="url(#P)" class="H"><g style="mix-blend-mode:multiply"><path d="M53.175 66.432h47.024a1.49 1.49 0 0 0 0-2.98H53.175a1.49 1.49 0 1 0 0 2.98z"/></g></g><path d="M100.198 19.245H53.175c-2.442 0-4.43 1.986-4.43 4.428a4.44 4.44 0 0 0 4.43 4.431h47.023a4.44 4.44 0 0 0 4.43-4.431c0-2.442-1.987-4.428-4.43-4.428z" class="F"/><path d="M100.198 58.782H53.175a4.44 4.44 0 0 0-4.43 4.431c0 2.442 1.987 4.428 4.43 4.428h47.023c2.442 0 4.43-1.986 4.43-4.428a4.44 4.44 0 0 0-4.43-4.431z" class="H"/><path d="M93.834 37.691h33.995a20.57 20.57 0 0 1 18.128 10.85l22.302 38.342H93.834c-14.783 0-26.881-7.592-26.926-22.347.046-14.772 12.144-26.845 26.926-26.845z" class="F"/></g><path d="M93.834 96.457h79.994l2.921 5.021H93.835c-14.811 0-26.928-7.62-26.928-22.43v-5.021c0 14.811 12.118 22.43 26.928 22.43z" class="U"/><path d="M168.259 86.883l-22.302-38.342a20.57 20.57 0 0 0-18.128-10.85H93.834c-14.783 0-26.881 12.072-26.926 26.845 0 .028-.002.056-.002.083v9.408c0 14.811 12.118 22.43 26.929 22.43h79.994l-5.569-9.574z" class="F"/><g clip-path="url(#Q)"><path d="M140.681 44.485l-32.447.17v-4.486h21.421c4.068 0 7.992 1.522 10.985 4.278l.041.038z" fill="#b1bedf"/><path d="M95.007 85.915l.524-32.503a21.36 21.36 0 0 1 18.423-10.553h27.091 59.365 16.053a16.73 16.73 0 0 1 14.749 8.835h0c.825 1.542 2.432 2.506 4.181 2.507l9.835.009a14.39 14.39 0 0 1 12.675 7.599l7.056 13.138a3.74 3.74 0 0 0 3.331 1.981c1.37-.012 2.623.772 3.267 1.981l2.536 4.761c.609 1.144 1.799 1.858 3.095 1.858h3.13a3.51 3.51 0 0 1 2.813 1.413l1.074 1.682a.93.93 0 0 1-.778 1.439h-10.454l2.36 11.487h-29.954-137.058-3.814c-8.028 0-13.199-8.51-9.5-15.635z" fill="#f6c880"/><path d="M274.407 87.345a1.98 1.98 0 0 0-1.75-1.053c-.733 0-1.406-.405-1.75-1.052l-.667-1.204a1.98 1.98 0 0 0-1.749-1.052h-.884c-1.565 0-3.002-.863-3.737-2.244l-9.158-17.118a9.64 9.64 0 0 0-8.502-5.1h0c-5.105 0-8.376 5.431-5.989 9.943l12.535 23.741h21.79 2.383l-2.522-4.861z" fill="#2b3357"/><g fill="#e8963c" class="D"><use href="#i"/><path d="M223.764 64.617h-3.569a1.9 1.9 0 0 1-1.898-1.898 1.9 1.9 0 0 1 1.898-1.898h3.569a1.9 1.9 0 0 1 1.898 1.898 1.9 1.9 0 0 1-1.898 1.898zM129.37 54.104h-3.569a1.9 1.9 0 0 1-1.898-1.898 1.9 1.9 0 0 1 1.898-1.898h3.569a1.9 1.9 0 0 1 1.898 1.898 1.9 1.9 0 0 1-1.898 1.898z"/><path d="M136.943 57.07h-6.312a1.9 1.9 0 0 1-1.898-1.898 1.9 1.9 0 0 1 1.898-1.898h6.312a1.9 1.9 0 0 1 1.898 1.898 1.9 1.9 0 0 1-1.898 1.898z"/><use href="#j"/><path d="M230.407 70.42h-.85a1.9 1.9 0 0 1-1.898-1.898 1.9 1.9 0 0 1 1.898-1.898h.85a1.9 1.9 0 0 1 1.898 1.898 1.9 1.9 0 0 1-1.898 1.898zm-61.686-9.599h-3.569a1.9 1.9 0 0 1-1.898-1.898 1.9 1.9 0 0 1 1.898-1.898h3.569a1.9 1.9 0 0 1 1.898 1.898 1.9 1.9 0 0 1-1.898 1.898zm-8.228-4.772h-6.258a1.9 1.9 0 0 1-1.898-1.898 1.9 1.9 0 0 1 1.898-1.898h6.258a1.9 1.9 0 0 1 1.898 1.898 1.9 1.9 0 0 1-1.898 1.898z"/></g><g clip-path="url(#R)"><g fill="#f3ac54"><path d="M293.777 116.798H36.333l21.051-40.996h19.632c2.799 0 5.469-1.177 7.358-3.244l3.219-3.524c2.203-3.047 5.73-4.862 9.46-4.862h34.251c3.727 0 7.252 1.812 9.455 4.855l3.573 3.847c1.833 1.973 4.435 3.107 7.136 3.107h142.309a1.9 1.9 0 0 1 1.898 1.898v37.019a1.9 1.9 0 0 1-1.898 1.898z"/><path d="M206.593 79.064H172.8a3.32 3.32 0 0 1-3.322-3.322v-4.821a9.03 9.03 0 0 1 9.017-9.017h22.402a9.03 9.03 0 0 1 9.017 9.017v4.821a3.32 3.32 0 0 1-3.322 3.322zm-30.471-6.645h27.148V70.92c0-1.308-1.065-2.373-2.373-2.373h-22.402c-1.308 0-2.373 1.065-2.373 2.373v1.499z"/></g><g clip-path="url(#S)"><path d="M171.011 64.369h36.11V93.51h-36.11z" fill="#233f6e"/><g clip-path="url(#T)" class="B K M"><path d="M182.196 104.049V39.445" stroke="#1b284b" stroke-width="5.987"/></g></g></g></g><g fill="#f8d5c7"><path d="M99.614 66.176h-.525c-.29 0-.525-.235-.525-.525v-.525c0-.29.235-.525.525-.525s.525.235.525.525c.29 0 .525.235.525.525s-.235.525-.525.525zm-.525-3.065c-.29 0-.525-.235-.525-.525V61.57c0-.29.235-.525.525-.525s.525.235.525.525v1.016c0 .29-.235.525-.525.525zm-12.538-.017c-.29 0-.525-.235-.525-.525v-1.016c0-.29.235-.525.525-.525s.525.235.525.525v1.016c0 .29-.235.525-.525.525zm12.538-3.54c-.29 0-.525-.235-.525-.525v-1.016c0-.29.235-.525.525-.525s.525.235.525.525v1.016c0 .29-.235.525-.525.525zm-12.538-.017c-.29 0-.525-.235-.525-.525v-1.016c0-.29.235-.525.525-.525s.525.235.525.525v1.016c0 .29-.235.525-.525.525zm12.528-3.541c-.27 0-.5-.207-.523-.481a2.25 2.25 0 0 0-.216-.792c-.125-.262-.015-.575.247-.7s.575-.015.7.246c.175.366.282.756.315 1.159.024.289-.19.542-.479.567-.015.002-.03.002-.044.002zm-12.516-.016c-.015 0-.031 0-.047-.002-.289-.026-.502-.28-.477-.57.036-.404.144-.793.322-1.157.127-.26.442-.369.702-.241s.369.442.241.702a2.26 2.26 0 0 0-.22.789c-.024.273-.253.478-.523.478zm10.326-2.481a.54.54 0 0 1-.112-.012c-.158-.034-.322-.052-.484-.052h-.416c-.29 0-.525-.235-.525-.525s.235-.525.525-.525h.416a3.43 3.43 0 0 1 .707.075c.283.062.463.341.402.625-.053.246-.271.414-.513.414zm-8.122-.003c-.243 0-.461-.17-.513-.417-.06-.284.122-.562.405-.622.226-.048.457-.072.688-.072h.432c.29 0 .525.235.525.525s-.235.525-.525.525h-.432c-.158 0-.317.016-.471.049a.51.51 0 0 1-.109.011zm4.569-.061H92.32c-.29 0-.525-.235-.525-.525s.235-.525.525-.525h1.016c.29 0 .525.235.525.525s-.235.525-.525.525zm-6.785 12.741h-.525c-.29 0-.525-.235-.525-.525s.235-.525.525-.525c0-.29.235-.525.525-.525s.525.235.525.525v.525c0 .29-.235.525-.525.525zm6.259 16.975c-.203 0-.408-.019-.609-.056-.285-.054-.473-.328-.419-.613s.328-.472.613-.419c.139.026.29.041.423.038.142 0 .282-.012.417-.037.286-.056.559.137.611.423s-.137.558-.423.61c-.2.036-.387.042-.613.054zm2.553-1.525a.52.52 0 0 1-.316-.106c-.231-.175-.277-.505-.102-.736l.625-.827c.174-.231.504-.277.736-.102s.277.505.102.736l-.625.827c-.103.136-.26.208-.419.208zm-5.094-.009c-.159 0-.316-.072-.419-.208l-.626-.827c-.175-.231-.129-.56.102-.736s.56-.129.736.102l.626.827c.175.231.129.56-.102.736-.095.071-.206.106-.316.106zm7.284-2.884a.52.52 0 0 1-.316-.107c-.231-.175-.277-.504-.102-.735l.626-.826c.175-.231.504-.277.736-.102s.277.504.102.735l-.626.826c-.103.136-.26.208-.419.208zm-9.473-.009c-.159 0-.316-.072-.419-.208l-.626-.827c-.175-.231-.129-.56.102-.736s.56-.129.736.102l.626.827c.175.231.129.56-.102.736-.095.071-.206.106-.316.106zm11.662-2.883a.52.52 0 0 1-.316-.106c-.231-.175-.277-.505-.102-.736l.625-.827c.174-.231.504-.278.736-.102s.277.505.102.736l-.625.827c-.103.136-.26.208-.419.208zm-13.852-.01c-.159 0-.316-.072-.419-.208l-.626-.827c-.175-.231-.129-.56.102-.736s.56-.129.736.102l.626.827c.175.231.129.56-.102.736-.095.071-.206.106-.316.106zm16.041-2.883c-.11 0-.222-.035-.316-.106-.231-.175-.277-.505-.102-.736l.626-.827c.175-.231.504-.277.736-.102s.277.505.102.736l-.626.827c-.103.136-.26.208-.419.208zm-18.23-.01c-.159 0-.316-.072-.419-.208l-.626-.827c-.175-.231-.129-.56.102-.736s.56-.129.736.102l.626.827c.175.231.129.56-.102.736-.095.071-.206.106-.316.106zm20.334-2.937a.53.53 0 0 1-.194-.037c-.269-.107-.4-.413-.293-.682a2.24 2.24 0 0 0 .16-.82c.002-.289.236-.523.525-.523h.003c.29.002.524.238.522.528a3.26 3.26 0 0 1-.235 1.203c-.082.206-.279.331-.488.331zM81.6 69.99c-.209 0-.407-.126-.489-.332a3.27 3.27 0 0 1-.229-1.204c0-.29.235-.526.525-.526h0c.29 0 .525.235.525.525 0 .282.053.558.156.82.106.27-.026.575-.296.681a.52.52 0 0 1-.192.036zm21.529-3.244a.52.52 0 0 1-.318-.108 2.23 2.23 0 0 0-.746-.374c-.279-.079-.44-.37-.361-.649a.52.52 0 0 1 .649-.361c.398.113.767.298 1.096.549.23.176.275.506.099.736-.103.135-.26.207-.418.207zm-20.609-.008c-.159 0-.316-.072-.419-.208-.175-.231-.129-.56.102-.736.33-.249.699-.432 1.099-.544.279-.078.569.086.647.364s-.085.569-.364.647a2.21 2.21 0 0 0-.748.371c-.095.071-.206.106-.316.106zm5.747-.449V55.706a1.08 1.08 0 0 1 1.079-1.079h6.947a1.08 1.08 0 0 1 1.079 1.079v10.583a1.08 1.08 0 0 0 1.079 1.079h2.983a1.08 1.08 0 0 1 .861 1.731L93.68 80.482a1.08 1.08 0 0 1-1.721 0l-8.615-11.383a1.08 1.08 0 0 1 .861-1.731h2.983a1.08 1.08 0 0 0 1.079-1.079z"/></g><path d="M66.906 79.125V101.5h28.433s-28.433-4.053-28.433-22.375z" class="U"/><g fill="#f8d680" class="C"><path d="M22.995 90.102l8.848-8.458a20.4 20.4 0 0 1 28.678.495l7.381 7.559a39.18 39.18 0 0 0 28.026 11.803h.005-69.324m209.135 1.564h.005a41.15 41.15 0 0 0 28.427-11.398l8.848-8.458a20.4 20.4 0 0 1 28.678.495l7.381 7.559a39.18 39.18 0 0 0 28.026 11.803h.005-101.368z"/></g></g></svg>