<svg xmlns="http://www.w3.org/2000/svg" width="1500" height="145" xmlns:v="https://vecta.io/nano"><style><![CDATA[.B{fill:none}.C{fill-rule:evenodd}.D{opacity:.5}.E{fill:#fff}.F{fill:#869d33}.G{fill:#071e2d}.H{fill:#507944}.I{clip-rule:evenodd}.J{fill:#18344a}.K{stroke:#071e2d}.L{stroke-miterlimit:10}.M{stroke-width:1.502}.N{fill:#bfcd53}.O{opacity:.75}.P{stroke-linejoin:round}.Q{opacity:.1}.R{stroke-linecap:round}.S{fill:#e7f2fd}.T{fill:#adbd3e}.U{stroke:#8ed54c}.V{stroke-width:10}.W{fill:#fae5db}.X{fill:#d14c37}.Y{fill:#071d27}.Z{fill:#16344b}.a{fill:#8ed54c}.b{stroke-dasharray:0 10}.c{fill:#e1e5f4}.d{fill:#0f2837}.e{fill:#c1e6e4}.f{fill:#fcf3f0}.g{fill:#edf3f3}.h{fill:#684b48}.i{fill:#57423a}.j{fill:#d8df62}.k{fill:#0f2d3e}]]></style><defs><clipPath id="A"><path d="M0 0h1500v145H0z" class="B"/></clipPath><clipPath id="B"><path d="M-59.616 19.557h503.815c28.921 0 52.366 23.445 52.366 52.366h0c0 28.921 23.445 52.366 52.366 52.366H708.6c33.349 0 60.383 27.034 60.383 60.383h0c0 33.349 27.034 60.383 60.383 60.383h48.709c39.629 0 71.754 32.125 71.754 71.754v26.062c0 39.629-32.125 71.754-71.754 71.754h-311.56c-21.993 0-39.823-17.829-39.823-39.823h0c0-21.994-17.829-39.823-39.823-39.823H252.034a19.53 19.53 0 0 1-19.526-19.526h0a19.53 19.53 0 0 0-19.526-19.526H-59.616a19.53 19.53 0 0 1-19.526-19.526V39.083a19.53 19.53 0 0 1 19.526-19.526z" class="B"/></clipPath><clipPath id="C"><path d="M1081.789 17.281h25.618c9.363 0 17.024-7.376 17.024-16.391v-105.185h-59.665V.89c0 9.015 7.661 16.391 17.024 16.391z" class="B"/></clipPath><clipPath id="D"><path d="M1144.523-43.808h-.45l.923.016-.005-.016h172.442v63.889h-145.297a25.21 25.21 0 0 1-22.294-13.44l-17.128-31.59c-4.527-8.559 2.128-18.859 11.81-18.859z" class="B"/></clipPath><clipPath id="E"><path d="M1298.753 11.861a4.25 4.25 0 0 0-4.25-4.25h-19.073c-2.99 0-5.736-1.65-7.14-4.29l-16.732-31.464c-4.253-7.987-12.564-12.977-21.613-12.977h-97.805a21.36 21.36 0 0 0-18.423 10.553l-.548 32.549c-3.693 7.114 1.456 15.614 9.472 15.635l177.638-.016-1.526-5.741z" class="B"/></clipPath><clipPath id="F"><rect x="1190.986" y="-18.664" width="33.793" height="24.716" rx="6.089" class="B"/></clipPath><clipPath id="G"><path d="M1189.827-18.978h36.11v29.141h-36.11z" class="B"/></clipPath><clipPath id="H"><path d="M894.419 76.767L824.91 12.652c-11.963-11.035-31.333-2.549-31.333 13.725v71.401a10.96 10.96 0 0 0 10.955 10.955h77.396c16.775 0 24.822-20.593 12.492-31.966z" class="E"/></clipPath><clipPath id="I"><path d="M883.286 80.296l-61.835-57.037c-10.642-9.816-27.874-2.268-27.874 12.21v63.519a9.75 9.75 0 0 0 9.745 9.745h68.851c14.923 0 22.081-18.319 11.113-28.437z" class="B"/></clipPath><clipPath id="J"><path d="M780.613-19.801h31.902a9.02 9.02 0 0 1 9.014 9.014V80.53c0 2.781-2.258 5.039-5.039 5.039h-39.853c-2.781 0-5.039-2.258-5.039-5.039v-91.316a9.02 9.02 0 0 1 9.014-9.014z" class="B"/></clipPath><clipPath id="K"><path d="M776.98 55.564h-19.462l-5.274 48.167c-.292 2.67 1.798 5.002 4.484 5.002h21.138a4.51 4.51 0 0 0 4.483-5.01l-5.369-48.159z" class="B"/></clipPath><clipPath id="L"><path d="M767.297 53.814a25.97 25.97 0 0 0 7.607 18.366c4.872 4.872 11.479 7.607 18.369 7.607h26.126V62.616a25.97 25.97 0 0 0-7.607-18.369 25.99 25.99 0 0 0-18.369-7.607h-26.126v17.174z" class="B I"/></clipPath><clipPath id="M"><path d="M767.297 53.814a25.97 25.97 0 0 1-7.607 18.366c-4.872 4.872-11.479 7.607-18.369 7.607h-26.126V62.616a25.97 25.97 0 0 1 7.607-18.369 25.99 25.99 0 0 1 18.369-7.607h26.126v17.174z" class="B I"/></clipPath><clipPath id="N"><path d="M767.311 79.787l-15.605-11.372c-8.619-6.281-9.593-18.775-2.052-26.317l5.459-5.459h24.396l5.459 5.459c7.541 7.541 6.567 20.035-2.052 26.317l-15.605 11.372z" class="B I"/></clipPath><clipPath id="O"><path d="M1080.073 76.767l-69.509-64.115c-11.963-11.035-31.333-2.549-31.333 13.725v71.401a10.96 10.96 0 0 0 10.955 10.955h77.396c16.775 0 24.822-20.593 12.492-31.966z" class="E"/></clipPath><clipPath id="P"><path d="M1068.94 80.296l-61.835-57.037c-10.642-9.816-27.874-2.268-27.874 12.21v63.519a9.75 9.75 0 0 0 9.745 9.745h68.851c14.923 0 22.081-18.319 11.113-28.437z" class="B"/></clipPath><clipPath id="Q"><path d="M966.266-19.801h31.902a9.02 9.02 0 0 1 9.014 9.014V80.53c0 2.781-2.258 5.039-5.039 5.039H962.29c-2.781 0-5.039-2.258-5.039-5.039v-91.316a9.02 9.02 0 0 1 9.014-9.014z" class="B"/></clipPath><clipPath id="R"><path d="M962.633 55.564h-19.462l-5.274 48.167c-.292 2.67 1.798 5.002 4.484 5.002h21.138a4.51 4.51 0 0 0 4.483-5.01l-5.369-48.159z" class="B"/></clipPath><clipPath id="S"><path d="M952.95 53.814a25.97 25.97 0 0 0 7.607 18.366c4.872 4.872 11.479 7.607 18.369 7.607h26.126V62.616a25.97 25.97 0 0 0-7.607-18.369 25.99 25.99 0 0 0-18.369-7.607H952.95v17.174z" class="B I"/></clipPath><clipPath id="T"><path d="M952.95 53.814a25.97 25.97 0 0 1-7.607 18.366c-4.872 4.872-11.479 7.607-18.369 7.607h-26.126V62.616a25.97 25.97 0 0 1 7.607-18.369 25.99 25.99 0 0 1 18.369-7.607h26.126v17.174z" class="B I"/></clipPath><clipPath id="U"><path d="M952.965 79.787L937.36 68.415c-8.619-6.281-9.593-18.775-2.052-26.317l5.459-5.459h24.396l5.459 5.459c7.541 7.541 6.567 20.035-2.052 26.317l-15.605 11.372z" class="B I"/></clipPath><clipPath id="V"><path d="M1265.726 76.767l-69.509-64.115c-11.963-11.035-31.333-2.549-31.333 13.725v71.401a10.96 10.96 0 0 0 10.955 10.955h77.396c16.775 0 24.822-20.593 12.492-31.966z" class="E"/></clipPath><clipPath id="W"><path d="M1254.593 80.296l-61.835-57.037c-10.642-9.816-27.874-2.268-27.874 12.21v63.519a9.75 9.75 0 0 0 9.745 9.745h68.851c14.923 0 22.081-18.319 11.113-28.437z" class="B"/></clipPath><clipPath id="X"><path d="M1151.92-19.801h31.902a9.02 9.02 0 0 1 9.014 9.014V80.53c0 2.781-2.258 5.039-5.039 5.039h-39.853c-2.781 0-5.039-2.258-5.039-5.039v-91.316a9.02 9.02 0 0 1 9.014-9.014z" class="B"/></clipPath><clipPath id="Y"><path d="M1148.287 55.564h-19.462l-5.274 48.167c-.292 2.67 1.798 5.002 4.484 5.002h21.138a4.51 4.51 0 0 0 4.483-5.01l-5.369-48.159z" class="B"/></clipPath><clipPath id="Z"><path d="M1138.604 53.814a25.97 25.97 0 0 0 7.607 18.366c4.872 4.872 11.479 7.607 18.369 7.607h26.126V62.616a25.97 25.97 0 0 0-7.607-18.369 25.99 25.99 0 0 0-18.369-7.607h-26.126v17.174z" class="B I"/></clipPath><clipPath id="a"><path d="M1138.604 53.814a25.97 25.97 0 0 1-7.607 18.366c-4.872 4.872-11.479 7.607-18.369 7.607h-26.126V62.616a25.97 25.97 0 0 1 7.607-18.369 25.99 25.99 0 0 1 18.369-7.607h26.126v17.174z" class="B I"/></clipPath><clipPath id="b"><path d="M1138.618 79.787l-15.605-11.372c-8.619-6.281-9.593-18.775-2.052-26.317l5.459-5.459h24.396l5.459 5.459c7.541 7.541 6.567 20.035-2.052 26.317l-15.605 11.372z" class="B I"/></clipPath><clipPath id="c"><path d="M139.378 65.827h0a3.67 3.67 0 0 0-2.528-3.489c-22.033-7.195-42.242-19.634-58.745-36.532L50.779-2.179C36.178-17.125 16.88-24.916-2.503-24.916h-67.053c-13.048 0-4.727 41.688-13.556 50.722-16.503 16.899-36.712 29.338-58.745 36.532a3.67 3.67 0 0 0-2.528 3.489h0a3.68 3.68 0 0 0 3.677 3.677h276.41a3.68 3.68 0 0 0 3.677-3.677z" class="B"/></clipPath><clipPath id="d"><path d="M199.863 65.827h0a3.67 3.67 0 0 1 2.528-3.489c22.033-7.195 42.242-19.634 58.745-36.532l27.326-27.985c14.601-14.945 33.9-22.736 53.283-22.736h67.053c13.048 0 4.727 41.688 13.556 50.722 16.503 16.899 36.712 29.338 58.745 36.532a3.67 3.67 0 0 1 2.528 3.489h0a3.68 3.68 0 0 1-3.677 3.677H341.746 203.542a3.68 3.68 0 0 1-3.677-3.677z" class="B"/></clipPath><clipPath id="e"><path d="M520.041 60.481L492.515 34.45 465.303 8.436c-7.108-6.791-15.401-11.584-24.181-14.39a55.97 55.97 0 0 0-34.044 0c-8.78 2.807-17.073 7.599-24.181 14.39L355.685 34.45l-27.526 26.031c-3.435 3.247-1.136 9.023 3.591 9.023h92.35 92.35c4.727 0 7.026-5.775 3.591-9.023z" class="B"/></clipPath><clipPath id="f"><path d="M21.938 55.615l42.371-40.07 41.888-40.044c10.942-10.454 23.707-17.831 37.222-22.151 17.021-5.441 35.384-5.441 52.405 0 13.515 4.32 26.28 11.697 37.222 22.151l41.888 40.044 42.371 40.07c5.288 4.998 1.749 13.889-5.528 13.889H169.621 27.465c-7.276 0-10.815-8.89-5.528-13.889z" class="B"/></clipPath><clipPath id="g"><path d="M905.505 310.276H400.859l40.472-145.671L563.699 63.314h179.076L863.88 163.559l41.625 146.717z" class="B I"/></clipPath><path id="h" d="M1071.362 36.087v-161.234c0-11.313 9.185-20.498 20.498-20.498h6.027c11.313 0 20.498 9.185 20.498 20.498V36.087c0 10.442-8.478 18.92-18.92 18.92h-9.184c-10.442 0-18.92-8.478-18.92-18.92z"/><path id="i" d="M1105.613 22.014h12.773a1.49 1.49 0 1 0 0-2.98h-12.773a1.49 1.49 0 1 0 0 2.98z"/><path id="j" d="M1458.744 81.538a2.82 2.82 0 0 0 2.818-2.825v-8.844a2.82 2.82 0 0 0-2.818-2.825 2.82 2.82 0 0 0-2.818 2.825v8.844a2.82 2.82 0 0 0 2.818 2.825z"/><path id="k" d="M1446.978 81.538a2.82 2.82 0 0 0 2.818-2.825v-5.895a2.82 2.82 0 0 0-2.818-2.825 2.82 2.82 0 0 0-2.818 2.825v5.895a2.82 2.82 0 0 0 2.818 2.825z"/><path id="l" d="M1415.231 104.882a2.82 2.82 0 0 0 2.818-2.825v-5.898a2.82 2.82 0 0 0-2.818-2.825 2.82 2.82 0 0 0-2.818 2.825v5.898a2.82 2.82 0 0 0 2.818 2.825z"/><path id="m" d="M894.419 76.767L824.91 12.652c-11.963-11.035-31.333-2.549-31.333 13.725v71.401a10.96 10.96 0 0 0 10.955 10.955h77.396c16.775 0 24.822-20.593 12.492-31.966z"/><path id="n" d="M920.322 100.663l-91.234-84.154c-13.558-12.506-35.511-2.889-35.511 15.555v95.007a13.77 13.77 0 0 0 13.769 13.769h97.276c21.083 0 31.198-25.882 15.7-40.177z"/><path id="o" d="M883.286 80.296l-61.835-57.037c-10.642-9.816-27.874-2.268-27.874 12.21v63.519a9.75 9.75 0 0 0 9.745 9.745h68.851c14.923 0 22.081-18.319 11.113-28.437z"/><path id="p" d="M879.311 83.344l-59.543-54.923c-9.999-9.224-26.191-2.131-26.191 11.473v59.682a9.16 9.16 0 0 0 9.157 9.157h66.655c13.323 0 19.715-16.356 9.922-25.389z"/><path id="q" d="M830.927 109.862h-11.601l35.305-94.463h11.602l-35.306 94.463z"/><path id="r" d="M780.613-17.466h31.902a9.02 9.02 0 0 1 9.014 9.014v91.317c0 2.781-2.258 5.039-5.039 5.039h-39.853c-2.781 0-5.039-2.258-5.039-5.039V-8.451a9.02 9.02 0 0 1 9.014-9.014z"/><path id="s" d="M780.613-19.801h31.902a9.02 9.02 0 0 1 9.014 9.014V80.53c0 2.781-2.258 5.039-5.039 5.039h-39.853c-2.781 0-5.039-2.258-5.039-5.039v-91.316a9.02 9.02 0 0 1 9.014-9.014z"/><path id="t" d="M782.899-19.801h29.616a9.02 9.02 0 0 1 9.014 9.014v89.154a4.51 4.51 0 0 1-4.507 4.507h-39.848a3.29 3.29 0 0 1-3.29-3.29v-90.37a9.02 9.02 0 0 1 9.014-9.014z"/><path id="u" d="M771.589 11.349l49.931-.024"/><path id="v" d="M771.589 11.349h49.937v6.209h-49.937z"/><path id="w" d="M789.353 62.446h14.422a6 6 0 0 1 5.998 5.998v40.29h-26.418v-40.29a6 6 0 0 1 5.998-5.998z"/><path id="x" d="M802.391 67.076h-11.979c-1.647 0-2.994 1.347-2.994 2.994v38.664h17.967V70.07c0-1.647-1.347-2.994-2.994-2.994z"/><path id="y" d="M776.98 55.564h-19.462l-5.274 48.167c-.292 2.67 1.798 5.002 4.484 5.002h21.138a4.51 4.51 0 0 0 4.483-5.01l-5.369-48.159z"/><path id="z" d="M767.311 90.383l-15.91-11.594c-8.788-6.404-9.781-19.142-2.092-26.831l5.565-5.565h24.873l5.565 5.565c7.689 7.689 6.696 20.427-2.092 26.831l-15.91 11.594z"/><path id="AA" d="M767.297 53.814a25.97 25.97 0 0 0 7.607 18.366c4.872 4.872 11.479 7.607 18.369 7.607h26.126V62.616a25.97 25.97 0 0 0-7.607-18.369 25.99 25.99 0 0 0-18.369-7.607h-26.126v17.174z"/><path id="AB" d="M767.297 36.639l58.143 49.739h-58.143V36.639z"/><path id="AC" d="M765.237 39.168l4.117-5.045 52.109 42.522-4.117 5.045z"/><path id="AD" d="M797.69 82.6h-6.513V71.645a3.26 3.26 0 0 1 3.256-3.256 3.26 3.26 0 0 1 3.256 3.256V82.6z"/><path id="AE" d="M784.664 83.082h-6.513V61.466c0-1.798 1.456-3.253 3.253-3.253h.007c1.797 0 3.253 1.456 3.253 3.253v21.616z"/><path id="AF" d="M819.399 61.531v-6.168h-9.942a3.09 3.09 0 0 0-2.182.905c-.576.576-.902 1.361-.902 2.179h0c0 .821.326 1.602.902 2.182a3.08 3.08 0 0 0 2.182.902h9.942z"/><path id="AG" d="M819.399,48.851v-6.513h-19.542c-1.797,0-3.253,1.456-3.253,3.253v.007c0,1.798,1.456,3.253,3.253,3.253h19.542Z"/><path id="AH" d="M767.297 53.814a25.97 25.97 0 0 1-7.607 18.366c-4.872 4.872-11.479 7.607-18.369 7.607h-26.126V62.616a25.97 25.97 0 0 1 7.607-18.369 25.99 25.99 0 0 1 18.369-7.607h26.126v17.174z"/><path id="AI" d="M767.297 36.639l-58.144 49.739h58.144V36.639z"/><path id="AJ" d="M713.135 76.647l52.103-42.529 4.118 5.045-52.103 42.529z"/><path id="AK" d="M736.904 82.6h6.513V71.645a3.26 3.26 0 0 0-3.256-3.256 3.26 3.26 0 0 0-3.256 3.256V82.6z"/><path id="AL" d="M749.929 83.082h6.513V61.469c0-.863-.342-1.69-.954-2.302a3.26 3.26 0 0 0-4.604 0c-.612.612-.954 1.439-.954 2.302v21.613z"/><path id="AM" d="M715.194 61.877v-6.513h9.773a3.24 3.24 0 0 1 3.253 3.253v.007c0 .863-.342 1.69-.954 2.302a3.25 3.25 0 0 1-2.299.951h-9.773z"/><path id="AN" d="M715.194 48.851v-6.513h19.538a3.26 3.26 0 0 1 2.302.954c.612.612.954 1.439.954 2.302a3.25 3.25 0 0 1-3.256 3.256h-19.538z"/><path id="AO" d="M767.311 79.787l-15.605-11.372c-8.619-6.281-9.593-18.775-2.052-26.317l5.459-5.459h24.396l5.459 5.459c7.541 7.541 6.567 20.035-2.052 26.317l-15.605 11.372z"/><path id="AP" d="M767.311 34.663h24.619v46.728h-24.619z"/><path id="AQ" d="M764.042 31.936h6.513v56.798h-6.513z"/><path id="AR" d="M744.207,60.431c-1.06,0-2.103-.517-2.726-1.469-.988-1.505-.568-3.524.937-4.509l13.238-8.684c1.505-.992,3.524-.564,4.507.935.988,1.505.568,3.524-.937,4.509l-13.238,8.684c-.551.363-1.17.534-1.781.534Z"/><path id="AS" d="M790.386 60.431c-.611 0-1.23-.172-1.781-.534l-13.233-8.684c-1.505-.986-1.925-3.004-.937-4.509a3.25 3.25 0 0 1 4.507-.935l13.233 8.684c1.505.986 1.925 3.004.937 4.509-.623.952-1.666 1.469-2.726 1.469z"/><path id="AT" d="M744.207,75.28c-1.06,0-2.103-.517-2.726-1.469-.988-1.505-.568-3.524.937-4.509l13.238-8.684c1.505-.992,3.524-.564,4.507.935.988,1.505.568,3.524-.937,4.509l-13.238,8.684c-.551.363-1.17.534-1.781.534Z"/><path id="AU" d="M1080.073 76.767l-69.509-64.115c-11.963-11.035-31.333-2.549-31.333 13.725v71.401a10.96 10.96 0 0 0 10.955 10.955h77.396c16.775 0 24.822-20.593 12.492-31.966z"/><path id="AV" d="M354.139-90.277l7.7 3.417-55.864 125.904-7.7-3.417z"/><path id="AW" d="M302.479 13.14h62.256l-13.123 13.486h-62.256l13.123-13.486z"/><path id="AX" d="M351.656 26.626h62.256l-13.123 13.485h-62.256l13.123-13.485z"/><path id="AY" d="M372.972 15.446h68.006v14.683h-68.006z"/><path id="AZ" d="M396.239-79.698l7.89 7.996-98.043 96.748-7.89-7.996z"/><path id="Aa" d="M650.05 132.099c0-.8-.318-1.567-.883-2.132a3.01 3.01 0 0 0-2.132-.883h-.001a3.02 3.02 0 0 0-2.132.883c-.565.565-.883 1.332-.883 2.132v5.265h6.032v-5.265z"/><path id="Ab" d="M660.236 132.099c0-.8-.318-1.567-.883-2.132a3.01 3.01 0 0 0-2.132-.883h0c-.8 0-1.567.318-2.132.883s-.883 1.332-.883 2.132v5.265h6.031v-5.265z"/></defs><g clip-path="url(#A)"><path d="M-11.618-2496.127h1523.237v5153.382H-11.618z" fill="#04d5d8"/><path d="M881.245 1795.825c-41.651 0-84.385-27.125-101.61-64.497-.533-1.156-1.755-1.965-2.971-1.965H-33.074l-4.116-238.479V-617.204H220.6a127.35 127.35 0 0 1 78.961 27.557c22.556 17.938 38.384 43.268 44.57 71.323 3.204 14.528 16.339 25.073 31.234 25.073h152.318c17.632 0 31.977-14.345 31.977-31.977v-7.461c0-93.816 76.325-170.141 170.141-170.141h188.858c93.815 0 170.141 76.325 170.141 170.141 0 21.746 17.691 39.438 39.438 39.438h107.816a126.03 126.03 0 0 1 81.637 30.053c22.736 19.364 37.892 46.267 42.676 75.756 1.474 9.081 6.199 17.445 13.308 23.553 7.14 6.134 16.239 9.513 25.621 9.513h257.685v1978.184h-347.973c-14.935 0-29.001 5.855-39.61 16.487s-16.432 24.712-16.398 39.649c.068 30.785-11.914 59.787-33.741 81.663-22.018 22.065-51.313 34.218-82.491 34.218H881.247z" fill="#7ee5e3"/><path d="M881.245 1765.825c-30.031 0-62-20.229-74.365-47.055-5.434-11.789-17.294-19.407-30.216-19.407H442.665c-65.402 0-118.718-53.601-118.852-119.485-.132-65.613-53.623-118.993-119.239-118.993H-7.19V-587.204H220.6c21.818 0 43.229 7.471 60.289 21.038 17.183 13.665 29.239 32.95 33.947 54.302 6.211 28.168 31.668 48.613 60.53 48.613h152.318c34.174 0 61.977-27.802 61.977-61.977v-7.461c0-77.274 62.867-140.141 140.141-140.141H918.66c77.273 0 140.141 62.867 140.141 140.141 0 38.288 31.149 69.438 69.438 69.438h107.816a96 96 0 0 1 62.186 22.893c17.322 14.753 28.869 35.252 32.515 57.721 2.604 16.051 10.902 30.79 23.368 41.502a69.36 69.36 0 0 0 45.173 16.76h227.685v1918.184h-317.973c-22.96 0-44.569 8.984-60.847 25.297s-25.213 37.942-25.162 60.906c.051 22.76-8.82 44.213-24.979 60.407-16.348 16.384-38.102 25.407-61.254 25.407H881.246z" fill="#fceea3"/><path d="M881.244 1735.825c-18.075 0-39.553-13.196-47.119-29.612-10.016-21.73-32.006-36.85-57.462-36.85H442.665c-49.251 0-88.752-40.294-88.852-89.545-.166-82.151-67.05-148.933-149.239-148.933H-47.26V-557.204H220.6c31.082 0 58.247 21.448 64.94 51.8 9.09 41.22 45.913 72.153 89.826 72.153h152.318c50.797 0 91.977-41.179 91.977-91.977v-7.461c0-60.829 49.312-110.14 110.14-110.14H918.66c60.829 0 110.14 49.312 110.14 110.14h0c0 54.918 44.52 99.438 99.438 99.438h107.816c32.355 0 59.906 23.48 65.087 55.417 7.666 47.26 48.763 83.458 98.155 83.458h197.685v1858.184h-287.973c-64.054 0-116.15 52.182-116.008 116.269.068 30.868-25.365 55.749-56.233 55.749H881.246z" fill="#f8d680"/><path d="M1411.098-40.01h0c0 46.441-37.648 84.089-84.089 84.089H864.848c-39.101 0-70.799-31.698-70.799-70.799v-33.709c0-34.148-27.683-61.831-61.831-61.831h-79.632c-34.148 0-61.831-27.683-61.831-61.831h0c0-34.148-27.683-61.831-61.831-61.831H306.595c-34.148 0-61.831 27.683-61.831 61.831h0c0 34.148-27.683 61.831-61.831 61.831H-37.19v580.203h351.834c69.365 0 125.596 56.231 125.596 125.596h0c0 34.148 27.683 61.831 61.831 61.831h202.781c34.148 0 61.831-27.683 61.831-61.831v-14.897c0-34.148 27.683-61.831 61.831-61.831h177.038c21.017 0 38.054 17.037 38.054 38.054h0c0 21.017 17.037 38.054 38.054 38.054h285.782c16.913 0 30.624-13.711 30.624-30.624h0c0-16.913 13.711-30.624 30.624-30.624h258.678v-645.77h-192.182c-46.441 0-84.089 37.648-84.089 84.089z" class="P R U V a b"/><path d="M-59.616 19.557h503.815c28.921 0 52.366 23.445 52.366 52.366h0c0 28.921 23.445 52.366 52.366 52.366H708.6c33.349 0 60.383 27.034 60.383 60.383h0c0 33.349 27.034 60.383 60.383 60.383h48.709c39.629 0 71.754 32.125 71.754 71.754v26.062c0 39.629-32.125 71.754-71.754 71.754h-311.56c-21.993 0-39.823-17.829-39.823-39.823h0c0-21.994-17.829-39.823-39.823-39.823H252.034a19.53 19.53 0 0 1-19.526-19.526h0a19.53 19.53 0 0 0-19.526-19.526H-59.616a19.53 19.53 0 0 1-19.526-19.526V39.083a19.53 19.53 0 0 1 19.526-19.526z" class="e"/><g clip-path="url(#B)"><g opacity=".4" class="B P"><g stroke="#a0ccc7"><g stroke-width="2.684"><rect x="95.617" y="135.486" width="36.649" height="18.372" rx="3.477" transform="matrix(-1 0 0 -1 227.884 289.343)"/><rect x="58.968" y="135.486" width="36.649" height="18.372" rx="3.477" transform="matrix(-1 0 0 -1 154.585 289.343)"/><rect x="22.281" y="135.486" width="36.649" height="18.372" rx="3.477" transform="matrix(-1 0 0 -1 81.212 289.343)"/><rect x="-14.368" y="135.486" width="36.649" height="18.372" rx="3.477" transform="matrix(-1 0 0 -1 7.914 289.343)"/><rect x="77.317" y="117.113" width="36.649" height="18.372" rx="3.477" transform="matrix(-1 0 0 -1 191.284 252.599)"/><rect x="40.668" y="117.113" width="36.649" height="18.372" rx="3.477" transform="matrix(-1 0 0 -1 117.985 252.599)"/><rect x="3.982" y="117.113" width="36.649" height="18.372" rx="3.477" transform="matrix(-1 0 0 -1 44.612 252.599)"/><rect x="-32.668" y="117.113" width="36.649" height="18.372" rx="3.477" transform="matrix(-1 0 0 -1 -28.686 252.599)"/><rect x="95.617" y="98.741" width="36.649" height="18.372" rx="3.477" transform="matrix(-1 0 0 -1 227.884 215.855)"/><rect x="58.968" y="98.741" width="36.649" height="18.372" rx="3.477" transform="matrix(-1 0 0 -1 154.585 215.855)"/><rect x="22.281" y="98.741" width="36.649" height="18.372" rx="3.477" transform="matrix(-1 0 0 -1 81.212 215.855)"/><rect x="-14.368" y="98.741" width="36.649" height="18.372" rx="3.477" transform="matrix(-1 0 0 -1 7.914 215.855)"/><rect x="77.317" y="80.419" width="36.649" height="18.372" rx="3.477" transform="matrix(-1 0 0 -1 191.284 179.21)"/><rect x="40.668" y="80.419" width="36.649" height="18.372" rx="3.477" transform="matrix(-1 0 0 -1 117.985 179.21)"/><rect x="3.982" y="80.419" width="36.649" height="18.372" rx="3.477" transform="matrix(-1 0 0 -1 44.612 179.21)"/><rect x="-32.668" y="80.419" width="36.649" height="18.372" rx="3.477" transform="matrix(-1 0 0 -1 -28.686 179.21)"/><rect x="95.617" y="62.047" width="36.649" height="18.372" rx="3.477" transform="matrix(-1 0 0 -1 227.884 142.466)"/><rect x="58.968" y="62.047" width="36.649" height="18.372" rx="3.477" transform="matrix(-1 0 0 -1 154.585 142.466)"/><rect x="22.281" y="62.047" width="36.649" height="18.372" rx="3.477" transform="matrix(-1 0 0 -1 81.212 142.466)"/><rect x="-14.368" y="62.047" width="36.649" height="18.372" rx="3.477" transform="matrix(-1 0 0 -1 7.914 142.466)"/><rect x="77.317" y="43.675" width="36.649" height="18.372" rx="3.477" transform="matrix(-1 0 0 -1 191.284 105.721)"/><rect x="40.668" y="43.675" width="36.649" height="18.372" rx="3.477" transform="matrix(-1 0 0 -1 117.985 105.721)"/><rect x="3.982" y="43.675" width="36.649" height="18.372" rx="3.477" transform="matrix(-1 0 0 -1 44.612 105.721)"/><rect x="-32.668" y="43.675" width="36.649" height="18.372" rx="3.477" transform="matrix(-1 0 0 -1 -28.686 105.721)"/><rect x="95.617" y="25.302" width="36.649" height="18.372" rx="3.477" transform="matrix(-1 0 0 -1 227.884 68.977)"/><rect x="58.968" y="25.302" width="36.649" height="18.372" rx="3.477" transform="matrix(-1 0 0 -1 154.585 68.977)"/><rect x="22.281" y="25.302" width="36.649" height="18.372" rx="3.477" transform="matrix(-1 0 0 -1 81.212 68.977)"/><rect x="-14.368" y="25.302" width="36.649" height="18.372" rx="3.477" transform="matrix(-1 0 0 -1 7.914 68.977)"/><rect x="77.317" y="6.948" width="36.649" height="18.372" rx="3.477" transform="matrix(-1 0 0 -1 191.284 32.269)"/><rect x="40.668" y="6.948" width="36.649" height="18.372" rx="3.477" transform="matrix(-1 0 0 -1 117.985 32.269)"/><rect x="3.982" y="6.948" width="36.649" height="18.372" rx="3.477" transform="matrix(-1 0 0 -1 44.612 32.269)"/><rect x="-32.668" y="6.948" width="36.649" height="18.372" rx="3.477" transform="matrix(-1 0 0 -1 -28.686 32.269)"/><rect x="95.617" y="-11.424" width="36.649" height="18.372" rx="3.477" transform="matrix(-1 0 0 -1 227.884 -4.475)"/><rect x="58.968" y="-11.424" width="36.649" height="18.372" rx="3.477" transform="matrix(-1 0 0 -1 154.585 -4.475)"/><rect x="22.281" y="-11.424" width="36.649" height="18.372" rx="3.477" transform="matrix(-1 0 0 -1 81.212 -4.475)"/><rect x="-14.368" y="-11.424" width="36.649" height="18.372" rx="3.477" transform="matrix(-1 0 0 -1 7.914 -4.475)"/><rect x="462.208" y="135.486" width="36.649" height="18.372" rx="3.477" transform="matrix(-1 0 0 -1 961.066 289.343)"/><rect x="425.559" y="135.486" width="36.649" height="18.372" rx="3.477" transform="matrix(-1 0 0 -1 887.768 289.343)"/><rect x="95.68" y="135.486" width="36.649" height="18.372" rx="3.477" transform="matrix(-1 0 0 -1 228.009 289.343)"/><rect x="388.873" y="135.486" width="36.649" height="18.372" rx="3.477" transform="matrix(-1 0 0 -1 814.394 289.343)"/><rect x="352.224" y="135.486" width="36.649" height="18.372" rx="3.477" transform="matrix(-1 0 0 -1 741.096 289.343)"/><rect x="315.569" y="135.486" width="36.649" height="18.372" rx="3.477" transform="matrix(-1 0 0 -1 667.786 289.343)"/><rect x="278.92" y="135.486" width="36.649" height="18.372" rx="3.477" transform="matrix(-1 0 0 -1 594.488 289.343)"/><rect x="242.233" y="135.486" width="36.649" height="18.372" rx="3.477" transform="matrix(-1 0 0 -1 521.115 289.343)"/><rect x="205.584" y="135.486" width="36.649" height="18.372" rx="3.477" transform="matrix(-1 0 0 -1 447.817 289.343)"/><rect x="168.978" y="135.486" width="36.649" height="18.372" rx="3.477" transform="matrix(-1 0 0 -1 374.605 289.343)"/><rect x="132.329" y="135.486" width="36.649" height="18.372" rx="3.477" transform="matrix(-1 0 0 -1 301.307 289.343)"/><rect x="443.908" y="117.113" width="36.649" height="18.372" rx="3.477" transform="matrix(-1 0 0 -1 924.466 252.599)"/><rect x="407.259" y="117.113" width="36.649" height="18.372" rx="3.477" transform="matrix(-1 0 0 -1 851.168 252.599)"/><rect x="370.573" y="117.113" width="36.649" height="18.372" rx="3.477" transform="matrix(-1 0 0 -1 777.795 252.599)"/><rect x="333.924" y="117.113" width="36.649" height="18.372" rx="3.477" transform="matrix(-1 0 0 -1 704.496 252.599)"/><rect x="297.269" y="117.113" width="36.649" height="18.372" rx="3.477" transform="matrix(-1 0 0 -1 631.187 252.599)"/><rect x="260.62" y="117.113" width="36.649" height="18.372" rx="3.477" transform="matrix(-1 0 0 -1 557.888 252.599)"/><rect x="223.933" y="117.113" width="36.649" height="18.372" rx="3.477" transform="matrix(-1 0 0 -1 484.515 252.599)"/><rect x="187.284" y="117.113" width="36.649" height="18.372" rx="3.477" transform="matrix(-1 0 0 -1 411.217 252.599)"/><rect x="150.678" y="117.113" width="36.649" height="18.372" rx="3.477" transform="matrix(-1 0 0 -1 338.006 252.599)"/><rect x="114.029" y="117.113" width="36.649" height="18.372" rx="3.477" transform="matrix(-1 0 0 -1 264.707 252.599)"/><rect x="462.208" y="98.741" width="36.649" height="18.372" rx="3.477" transform="matrix(-1 0 0 -1 961.066 215.855)"/><rect x="425.559" y="98.741" width="36.649" height="18.372" rx="3.477" transform="matrix(-1 0 0 -1 887.768 215.855)"/><rect x="95.68" y="98.741" width="36.649" height="18.372" rx="3.477" transform="matrix(-1 0 0 -1 228.009 215.855)"/><rect x="388.873" y="98.741" width="36.649" height="18.372" rx="3.477" transform="matrix(-1 0 0 -1 814.394 215.855)"/><rect x="352.224" y="98.741" width="36.649" height="18.372" rx="3.477" transform="matrix(-1 0 0 -1 741.096 215.855)"/><rect x="315.569" y="98.741" width="36.649" height="18.372" rx="3.477" transform="matrix(-1 0 0 -1 667.786 215.855)"/><rect x="278.92" y="98.741" width="36.649" height="18.372" rx="3.477" transform="matrix(-1 0 0 -1 594.488 215.855)"/><rect x="242.233" y="98.741" width="36.649" height="18.372" rx="3.477" transform="matrix(-1 0 0 -1 521.115 215.855)"/><rect x="205.584" y="98.741" width="36.649" height="18.372" rx="3.477" transform="matrix(-1 0 0 -1 447.817 215.855)"/><rect x="168.978" y="98.741" width="36.649" height="18.372" rx="3.477" transform="matrix(-1 0 0 -1 374.605 215.855)"/><rect x="132.329" y="98.741" width="36.649" height="18.372" rx="3.477" transform="matrix(-1 0 0 -1 301.307 215.855)"/><rect x="443.908" y="80.419" width="36.649" height="18.372" rx="3.477" transform="matrix(-1 0 0 -1 924.466 179.21)"/><rect x="407.259" y="80.419" width="36.649" height="18.372" rx="3.477" transform="matrix(-1 0 0 -1 851.168 179.21)"/><rect x="370.573" y="80.419" width="36.649" height="18.372" rx="3.477" transform="matrix(-1 0 0 -1 777.795 179.21)"/><rect x="333.924" y="80.419" width="36.649" height="18.372" rx="3.477" transform="matrix(-1 0 0 -1 704.496 179.21)"/><rect x="297.269" y="80.419" width="36.649" height="18.372" rx="3.477" transform="matrix(-1 0 0 -1 631.187 179.21)"/><rect x="260.62" y="80.419" width="36.649" height="18.372" rx="3.477" transform="matrix(-1 0 0 -1 557.888 179.21)"/><rect x="223.933" y="80.419" width="36.649" height="18.372" rx="3.477" transform="matrix(-1 0 0 -1 484.515 179.21)"/><rect x="187.284" y="80.419" width="36.649" height="18.372" rx="3.477" transform="matrix(-1 0 0 -1 411.217 179.21)"/><rect x="150.678" y="80.419" width="36.649" height="18.372" rx="3.477" transform="matrix(-1 0 0 -1 338.006 179.21)"/><rect x="114.029" y="80.419" width="36.649" height="18.372" rx="3.477" transform="matrix(-1 0 0 -1 264.707 179.21)"/><rect x="462.208" y="62.047" width="36.649" height="18.372" rx="3.477" transform="matrix(-1 0 0 -1 961.066 142.466)"/><rect x="425.559" y="62.047" width="36.649" height="18.372" rx="3.477" transform="matrix(-1 0 0 -1 887.768 142.466)"/><rect x="95.68" y="62.047" width="36.649" height="18.372" rx="3.477" transform="matrix(-1 0 0 -1 228.009 142.466)"/><rect x="388.873" y="62.047" width="36.649" height="18.372" rx="3.477" transform="matrix(-1 0 0 -1 814.394 142.466)"/><rect x="352.224" y="62.047" width="36.649" height="18.372" rx="3.477" transform="matrix(-1 0 0 -1 741.096 142.466)"/><rect x="315.569" y="62.047" width="36.649" height="18.372" rx="3.477" transform="matrix(-1 0 0 -1 667.786 142.466)"/><rect x="278.92" y="62.047" width="36.649" height="18.372" rx="3.477" transform="matrix(-1 0 0 -1 594.488 142.466)"/><rect x="242.233" y="62.047" width="36.649" height="18.372" rx="3.477" transform="matrix(-1 0 0 -1 521.115 142.466)"/><rect x="205.584" y="62.047" width="36.649" height="18.372" rx="3.477" transform="matrix(-1 0 0 -1 447.817 142.466)"/><rect x="168.978" y="62.047" width="36.649" height="18.372" rx="3.477" transform="matrix(-1 0 0 -1 374.605 142.466)"/><rect x="132.329" y="62.047" width="36.649" height="18.372" rx="3.477" transform="matrix(-1 0 0 -1 301.307 142.466)"/><rect x="443.908" y="43.675" width="36.649" height="18.372" rx="3.477" transform="matrix(-1 0 0 -1 924.466 105.721)"/><rect x="407.259" y="43.675" width="36.649" height="18.372" rx="3.477" transform="matrix(-1 0 0 -1 851.168 105.721)"/><rect x="370.573" y="43.675" width="36.649" height="18.372" rx="3.477" transform="matrix(-1 0 0 -1 777.795 105.721)"/><rect x="333.924" y="43.675" width="36.649" height="18.372" rx="3.477" transform="matrix(-1 0 0 -1 704.496 105.721)"/><rect x="297.269" y="43.675" width="36.649" height="18.372" rx="3.477" transform="matrix(-1 0 0 -1 631.187 105.721)"/><rect x="260.62" y="43.675" width="36.649" height="18.372" rx="3.477" transform="matrix(-1 0 0 -1 557.888 105.721)"/><rect x="223.933" y="43.675" width="36.649" height="18.372" rx="3.477" transform="matrix(-1 0 0 -1 484.515 105.721)"/><rect x="187.284" y="43.675" width="36.649" height="18.372" rx="3.477" transform="matrix(-1 0 0 -1 411.217 105.721)"/><rect x="150.678" y="43.675" width="36.649" height="18.372" rx="3.477" transform="matrix(-1 0 0 -1 338.006 105.721)"/><rect x="114.029" y="43.675" width="36.649" height="18.372" rx="3.477" transform="matrix(-1 0 0 -1 264.707 105.721)"/><rect x="462.208" y="25.302" width="36.649" height="18.372" rx="3.477" transform="matrix(-1 0 0 -1 961.066 68.977)"/><rect x="425.559" y="25.302" width="36.649" height="18.372" rx="3.477" transform="matrix(-1 0 0 -1 887.768 68.977)"/><rect x="95.68" y="25.302" width="36.649" height="18.372" rx="3.477" transform="matrix(-1 0 0 -1 228.009 68.977)"/><rect x="388.873" y="25.302" width="36.649" height="18.372" rx="3.477" transform="matrix(-1 0 0 -1 814.394 68.977)"/><rect x="352.224" y="25.302" width="36.649" height="18.372" rx="3.477" transform="matrix(-1 0 0 -1 741.096 68.977)"/><rect x="315.569" y="25.302" width="36.649" height="18.372" rx="3.477" transform="matrix(-1 0 0 -1 667.786 68.977)"/><rect x="278.92" y="25.302" width="36.649" height="18.372" rx="3.477" transform="matrix(-1 0 0 -1 594.488 68.977)"/><rect x="242.233" y="25.302" width="36.649" height="18.372" rx="3.477" transform="matrix(-1 0 0 -1 521.115 68.977)"/><rect x="205.584" y="25.302" width="36.649" height="18.372" rx="3.477" transform="matrix(-1 0 0 -1 447.817 68.977)"/><rect x="168.978" y="25.302" width="36.649" height="18.372" rx="3.477" transform="matrix(-1 0 0 -1 374.605 68.977)"/><rect x="132.329" y="25.302" width="36.649" height="18.372" rx="3.477" transform="matrix(-1 0 0 -1 301.307 68.977)"/><rect x="443.908" y="6.948" width="36.649" height="18.372" rx="3.477" transform="matrix(-1 0 0 -1 924.466 32.269)"/><rect x="407.259" y="6.948" width="36.649" height="18.372" rx="3.477" transform="matrix(-1 0 0 -1 851.168 32.269)"/><rect x="370.573" y="6.948" width="36.649" height="18.372" rx="3.477" transform="matrix(-1 0 0 -1 777.795 32.269)"/><rect x="333.924" y="6.948" width="36.649" height="18.372" rx="3.477" transform="matrix(-1 0 0 -1 704.496 32.269)"/><rect x="297.269" y="6.948" width="36.649" height="18.372" rx="3.477" transform="matrix(-1 0 0 -1 631.187 32.269)"/><rect x="260.62" y="6.948" width="36.649" height="18.372" rx="3.477" transform="matrix(-1 0 0 -1 557.888 32.269)"/><rect x="223.933" y="6.948" width="36.649" height="18.372" rx="3.477" transform="matrix(-1 0 0 -1 484.515 32.269)"/><rect x="187.284" y="6.948" width="36.649" height="18.372" rx="3.477" transform="matrix(-1 0 0 -1 411.217 32.269)"/><rect x="150.678" y="6.948" width="36.649" height="18.372" rx="3.477" transform="matrix(-1 0 0 -1 338.006 32.269)"/><rect x="114.029" y="6.948" width="36.649" height="18.372" rx="3.477" transform="matrix(-1 0 0 -1 264.707 32.269)"/><rect x="462.208" y="-11.424" width="36.649" height="18.372" rx="3.477" transform="matrix(-1 0 0 -1 961.066 -4.475)"/><rect x="425.559" y="-11.424" width="36.649" height="18.372" rx="3.477" transform="matrix(-1 0 0 -1 887.768 -4.475)"/><rect x="95.68" y="-11.424" width="36.649" height="18.372" rx="3.477" transform="matrix(-1 0 0 -1 228.009 -4.475)"/><rect x="388.873" y="-11.424" width="36.649" height="18.372" rx="3.477" transform="matrix(-1 0 0 -1 814.394 -4.475)"/><rect x="352.224" y="-11.424" width="36.649" height="18.372" rx="3.477" transform="matrix(-1 0 0 -1 741.096 -4.475)"/><rect x="315.569" y="-11.424" width="36.649" height="18.372" rx="3.477" transform="matrix(-1 0 0 -1 667.786 -4.475)"/><rect x="278.92" y="-11.424" width="36.649" height="18.372" rx="3.477" transform="matrix(-1 0 0 -1 594.488 -4.475)"/><rect x="242.233" y="-11.424" width="36.649" height="18.372" rx="3.477" transform="matrix(-1 0 0 -1 521.115 -4.475)"/><rect x="205.584" y="-11.424" width="36.649" height="18.372" rx="3.477" transform="matrix(-1 0 0 -1 447.817 -4.475)"/><rect x="168.978" y="-11.424" width="36.649" height="18.372" rx="3.477" transform="matrix(-1 0 0 -1 374.605 -4.475)"/><rect x="132.329" y="-11.424" width="36.649" height="18.372" rx="3.477" transform="matrix(-1 0 0 -1 301.307 -4.475)"/><rect x="828.742" y="135.486" width="36.649" height="18.372" rx="3.477" transform="matrix(-1 0 0 -1 1694.134 289.343)"/><rect x="792.093" y="135.486" width="36.649" height="18.372" rx="3.477" transform="matrix(-1 0 0 -1 1620.836 289.343)"/><rect x="462.214" y="135.486" width="36.649" height="18.372" rx="3.477" transform="matrix(-1 0 0 -1 961.077 289.343)"/><rect x="755.407" y="135.486" width="36.649" height="18.372" rx="3.477" transform="matrix(-1 0 0 -1 1547.462 289.343)"/><rect x="718.758" y="135.486" width="36.649" height="18.372" rx="3.477" transform="matrix(-1 0 0 -1 1474.164 289.343)"/><rect x="682.103" y="135.486" width="36.649" height="18.372" rx="3.477" transform="matrix(-1 0 0 -1 1400.854 289.343)"/><rect x="645.454" y="135.486" width="36.649" height="18.372" rx="3.477" transform="matrix(-1 0 0 -1 1327.556 289.343)"/><rect x="608.767" y="135.486" width="36.649" height="18.372" rx="3.477" transform="matrix(-1 0 0 -1 1254.183 289.343)"/><rect x="572.118" y="135.486" width="36.649" height="18.372" rx="3.477" transform="matrix(-1 0 0 -1 1180.885 289.343)"/><rect x="535.512" y="135.486" width="36.649" height="18.372" rx="3.477" transform="matrix(-1 0 0 -1 1107.673 289.343)"/><rect x="498.863" y="135.486" width="36.649" height="18.372" rx="3.477" transform="matrix(-1 0 0 -1 1034.375 289.343)"/><rect x="810.442" y="117.113" width="36.649" height="18.372" rx="3.477" transform="matrix(-1 0 0 -1 1657.534 252.599)"/><rect x="773.793" y="117.113" width="36.649" height="18.372" rx="3.477" transform="matrix(-1 0 0 -1 1584.236 252.599)"/><rect x="737.107" y="117.113" width="36.649" height="18.372" rx="3.477" transform="matrix(-1 0 0 -1 1510.862 252.599)"/><rect x="700.458" y="117.113" width="36.649" height="18.372" rx="3.477" transform="matrix(-1 0 0 -1 1437.564 252.599)"/><rect x="663.803" y="117.113" width="36.649" height="18.372" rx="3.477" transform="matrix(-1 0 0 -1 1364.255 252.599)"/><rect x="627.154" y="117.113" width="36.649" height="18.372" rx="3.477" transform="matrix(-1 0 0 -1 1290.956 252.599)"/><rect x="590.467" y="117.113" width="36.649" height="18.372" rx="3.477" transform="matrix(-1 0 0 -1 1217.583 252.599)"/><rect x="553.818" y="117.113" width="36.649" height="18.372" rx="3.477" transform="matrix(-1 0 0 -1 1144.285 252.599)"/><rect x="517.212" y="117.113" width="36.649" height="18.372" rx="3.477" transform="matrix(-1 0 0 -1 1071.073 252.599)"/><rect x="480.563" y="117.113" width="36.649" height="18.372" rx="3.477" transform="matrix(-1 0 0 -1 997.775 252.599)"/><rect x="828.742" y="98.741" width="36.649" height="18.372" rx="3.477" transform="matrix(-1 0 0 -1 1694.134 215.855)"/><rect x="792.093" y="98.741" width="36.649" height="18.372" rx="3.477" transform="matrix(-1 0 0 -1 1620.836 215.855)"/><rect x="462.214" y="98.741" width="36.649" height="18.372" rx="3.477" transform="matrix(-1 0 0 -1 961.077 215.855)"/><rect x="755.407" y="98.741" width="36.649" height="18.372" rx="3.477" transform="matrix(-1 0 0 -1 1547.462 215.855)"/><rect x="718.758" y="98.741" width="36.649" height="18.372" rx="3.477" transform="matrix(-1 0 0 -1 1474.164 215.855)"/><rect x="682.103" y="98.741" width="36.649" height="18.372" rx="3.477" transform="matrix(-1 0 0 -1 1400.854 215.855)"/><rect x="645.454" y="98.741" width="36.649" height="18.372" rx="3.477" transform="matrix(-1 0 0 -1 1327.556 215.855)"/><rect x="608.767" y="98.741" width="36.649" height="18.372" rx="3.477" transform="matrix(-1 0 0 -1 1254.183 215.855)"/><rect x="572.118" y="98.741" width="36.649" height="18.372" rx="3.477" transform="matrix(-1 0 0 -1 1180.885 215.855)"/><rect x="535.512" y="98.741" width="36.649" height="18.372" rx="3.477" transform="matrix(-1 0 0 -1 1107.673 215.855)"/><rect x="498.863" y="98.741" width="36.649" height="18.372" rx="3.477" transform="matrix(-1 0 0 -1 1034.375 215.855)"/><rect x="810.442" y="80.419" width="36.649" height="18.372" rx="3.477" transform="matrix(-1 0 0 -1 1657.534 179.21)"/><rect x="773.793" y="80.419" width="36.649" height="18.372" rx="3.477" transform="matrix(-1 0 0 -1 1584.236 179.21)"/><rect x="737.107" y="80.419" width="36.649" height="18.372" rx="3.477" transform="matrix(-1 0 0 -1 1510.862 179.21)"/><rect x="700.458" y="80.419" width="36.649" height="18.372" rx="3.477" transform="matrix(-1 0 0 -1 1437.564 179.21)"/><rect x="663.803" y="80.419" width="36.649" height="18.372" rx="3.477" transform="matrix(-1 0 0 -1 1364.255 179.21)"/><rect x="627.154" y="80.419" width="36.649" height="18.372" rx="3.477" transform="matrix(-1 0 0 -1 1290.956 179.21)"/><rect x="590.467" y="80.419" width="36.649" height="18.372" rx="3.477" transform="matrix(-1 0 0 -1 1217.583 179.21)"/><rect x="553.818" y="80.419" width="36.649" height="18.372" rx="3.477" transform="matrix(-1 0 0 -1 1144.285 179.21)"/><rect x="517.212" y="80.419" width="36.649" height="18.372" rx="3.477" transform="matrix(-1 0 0 -1 1071.073 179.21)"/><rect x="480.563" y="80.419" width="36.649" height="18.372" rx="3.477" transform="matrix(-1 0 0 -1 997.775 179.21)"/><rect x="828.742" y="62.047" width="36.649" height="18.372" rx="3.477" transform="matrix(-1 0 0 -1 1694.134 142.466)"/><rect x="792.093" y="62.047" width="36.649" height="18.372" rx="3.477" transform="matrix(-1 0 0 -1 1620.836 142.466)"/><rect x="462.214" y="62.047" width="36.649" height="18.372" rx="3.477" transform="matrix(-1 0 0 -1 961.077 142.466)"/><rect x="755.407" y="62.047" width="36.649" height="18.372" rx="3.477" transform="matrix(-1 0 0 -1 1547.462 142.466)"/><rect x="718.758" y="62.047" width="36.649" height="18.372" rx="3.477" transform="matrix(-1 0 0 -1 1474.164 142.466)"/><rect x="682.103" y="62.047" width="36.649" height="18.372" rx="3.477" transform="matrix(-1 0 0 -1 1400.854 142.466)"/><rect x="645.454" y="62.047" width="36.649" height="18.372" rx="3.477" transform="matrix(-1 0 0 -1 1327.556 142.466)"/><rect x="608.767" y="62.047" width="36.649" height="18.372" rx="3.477" transform="matrix(-1 0 0 -1 1254.183 142.466)"/><rect x="572.118" y="62.047" width="36.649" height="18.372" rx="3.477" transform="matrix(-1 0 0 -1 1180.885 142.466)"/><rect x="535.512" y="62.047" width="36.649" height="18.372" rx="3.477" transform="matrix(-1 0 0 -1 1107.673 142.466)"/><rect x="498.863" y="62.047" width="36.649" height="18.372" rx="3.477" transform="matrix(-1 0 0 -1 1034.375 142.466)"/><rect x="810.442" y="43.675" width="36.649" height="18.372" rx="3.477" transform="matrix(-1 0 0 -1 1657.534 105.721)"/><rect x="773.793" y="43.675" width="36.649" height="18.372" rx="3.477" transform="matrix(-1 0 0 -1 1584.236 105.721)"/><rect x="737.107" y="43.675" width="36.649" height="18.372" rx="3.477" transform="matrix(-1 0 0 -1 1510.862 105.721)"/><rect x="700.458" y="43.675" width="36.649" height="18.372" rx="3.477" transform="matrix(-1 0 0 -1 1437.564 105.721)"/><rect x="663.803" y="43.675" width="36.649" height="18.372" rx="3.477" transform="matrix(-1 0 0 -1 1364.255 105.721)"/><rect x="627.154" y="43.675" width="36.649" height="18.372" rx="3.477" transform="matrix(-1 0 0 -1 1290.956 105.721)"/><rect x="590.467" y="43.675" width="36.649" height="18.372" rx="3.477" transform="matrix(-1 0 0 -1 1217.583 105.721)"/><rect x="553.818" y="43.675" width="36.649" height="18.372" rx="3.477" transform="matrix(-1 0 0 -1 1144.285 105.721)"/><rect x="517.212" y="43.675" width="36.649" height="18.372" rx="3.477" transform="matrix(-1 0 0 -1 1071.073 105.721)"/><rect x="480.563" y="43.675" width="36.649" height="18.372" rx="3.477" transform="matrix(-1 0 0 -1 997.775 105.721)"/><rect x="828.742" y="25.302" width="36.649" height="18.372" rx="3.477" transform="matrix(-1 0 0 -1 1694.134 68.977)"/><rect x="792.093" y="25.302" width="36.649" height="18.372" rx="3.477" transform="matrix(-1 0 0 -1 1620.836 68.977)"/><rect x="462.214" y="25.302" width="36.649" height="18.372" rx="3.477" transform="matrix(-1 0 0 -1 961.077 68.977)"/><rect x="755.407" y="25.302" width="36.649" height="18.372" rx="3.477" transform="matrix(-1 0 0 -1 1547.462 68.977)"/><rect x="718.758" y="25.302" width="36.649" height="18.372" rx="3.477" transform="matrix(-1 0 0 -1 1474.164 68.977)"/><rect x="682.103" y="25.302" width="36.649" height="18.372" rx="3.477" transform="matrix(-1 0 0 -1 1400.854 68.977)"/><rect x="645.454" y="25.302" width="36.649" height="18.372" rx="3.477" transform="matrix(-1 0 0 -1 1327.556 68.977)"/><rect x="608.767" y="25.302" width="36.649" height="18.372" rx="3.477" transform="matrix(-1 0 0 -1 1254.183 68.977)"/><rect x="572.118" y="25.302" width="36.649" height="18.372" rx="3.477" transform="matrix(-1 0 0 -1 1180.885 68.977)"/><rect x="535.512" y="25.302" width="36.649" height="18.372" rx="3.477" transform="matrix(-1 0 0 -1 1107.673 68.977)"/><rect x="498.863" y="25.302" width="36.649" height="18.372" rx="3.477" transform="matrix(-1 0 0 -1 1034.375 68.977)"/><rect x="810.442" y="6.948" width="36.649" height="18.372" rx="3.477" transform="matrix(-1 0 0 -1 1657.534 32.269)"/><rect x="773.793" y="6.948" width="36.649" height="18.372" rx="3.477" transform="matrix(-1 0 0 -1 1584.236 32.269)"/><rect x="737.107" y="6.948" width="36.649" height="18.372" rx="3.477" transform="matrix(-1 0 0 -1 1510.862 32.269)"/><rect x="700.458" y="6.948" width="36.649" height="18.372" rx="3.477" transform="matrix(-1 0 0 -1 1437.564 32.269)"/><rect x="663.803" y="6.948" width="36.649" height="18.372" rx="3.477" transform="matrix(-1 0 0 -1 1364.255 32.269)"/><rect x="627.154" y="6.948" width="36.649" height="18.372" rx="3.477" transform="matrix(-1 0 0 -1 1290.956 32.269)"/><rect x="590.467" y="6.948" width="36.649" height="18.372" rx="3.477" transform="matrix(-1 0 0 -1 1217.583 32.269)"/><rect x="553.818" y="6.948" width="36.649" height="18.372" rx="3.477" transform="matrix(-1 0 0 -1 1144.285 32.269)"/><rect x="517.212" y="6.948" width="36.649" height="18.372" rx="3.477" transform="matrix(-1 0 0 -1 1071.073 32.269)"/><rect x="480.563" y="6.948" width="36.649" height="18.372" rx="3.477" transform="matrix(-1 0 0 -1 997.775 32.269)"/><rect x="828.742" y="-11.424" width="36.649" height="18.372" rx="3.477" transform="matrix(-1 0 0 -1 1694.134 -4.475)"/><rect x="792.093" y="-11.424" width="36.649" height="18.372" rx="3.477" transform="matrix(-1 0 0 -1 1620.836 -4.475)"/><rect x="462.214" y="-11.424" width="36.649" height="18.372" rx="3.477" transform="matrix(-1 0 0 -1 961.077 -4.475)"/><rect x="755.407" y="-11.424" width="36.649" height="18.372" rx="3.477" transform="matrix(-1 0 0 -1 1547.462 -4.475)"/><rect x="718.758" y="-11.424" width="36.649" height="18.372" rx="3.477" transform="matrix(-1 0 0 -1 1474.164 -4.475)"/><rect x="682.103" y="-11.424" width="36.649" height="18.372" rx="3.477" transform="matrix(-1 0 0 -1 1400.854 -4.475)"/><rect x="645.454" y="-11.424" width="36.649" height="18.372" rx="3.477" transform="matrix(-1 0 0 -1 1327.556 -4.475)"/><rect x="608.767" y="-11.424" width="36.649" height="18.372" rx="3.477" transform="matrix(-1 0 0 -1 1254.183 -4.475)"/><rect x="572.118" y="-11.424" width="36.649" height="18.372" rx="3.477" transform="matrix(-1 0 0 -1 1180.885 -4.475)"/><rect x="535.512" y="-11.424" width="36.649" height="18.372" rx="3.477" transform="matrix(-1 0 0 -1 1107.673 -4.475)"/><rect x="498.863" y="-11.424" width="36.649" height="18.372" rx="3.477" transform="matrix(-1 0 0 -1 1034.375 -4.475)"/><rect x="1195.334" y="135.486" width="36.649" height="18.372" rx="3.477" transform="matrix(-1 0 0 -1 2427.316 289.343)"/><rect x="1158.684" y="135.486" width="36.649" height="18.372" rx="3.477" transform="matrix(-1 0 0 -1 2354.018 289.343)"/><rect x="828.805" y="135.486" width="36.649" height="18.372" rx="3.477" transform="matrix(-1 0 0 -1 1694.259 289.343)"/><rect x="1121.998" y="135.486" width="36.649" height="18.372" rx="3.477" transform="matrix(-1 0 0 -1 2280.645 289.343)"/><rect x="1085.349" y="135.486" width="36.649" height="18.372" rx="3.477" transform="matrix(-1 0 0 -1 2207.347 289.343)"/><rect x="1048.694" y="135.486" width="36.649" height="18.372" rx="3.477" transform="matrix(-1 0 0 -1 2134.037 289.343)"/><rect x="1012.045" y="135.486" width="36.649" height="18.372" rx="3.477" transform="matrix(-1 0 0 -1 2060.739 289.343)"/><rect x="975.358" y="135.486" width="36.649" height="18.372" rx="3.477" transform="matrix(-1 0 0 -1 1987.365 289.343)"/><rect x="938.709" y="135.486" width="36.649" height="18.372" rx="3.477" transform="matrix(-1 0 0 -1 1914.067 289.343)"/><rect x="902.103" y="135.486" width="36.649" height="18.372" rx="3.477" transform="matrix(-1 0 0 -1 1840.856 289.343)"/><rect x="865.454" y="135.486" width="36.649" height="18.372" rx="3.477" transform="matrix(-1 0 0 -1 1767.558 289.343)"/><rect x="1177.034" y="117.113" width="36.649" height="18.372" rx="3.477" transform="matrix(-1 0 0 -1 2390.716 252.599)"/><rect x="1140.385" y="117.113" width="36.649" height="18.372" rx="3.477" transform="matrix(-1 0 0 -1 2317.418 252.599)"/><rect x="1103.698" y="117.113" width="36.649" height="18.372" rx="3.477" transform="matrix(-1 0 0 -1 2244.045 252.599)"/><rect x="1067.049" y="117.113" width="36.649" height="18.372" rx="3.477" transform="matrix(-1 0 0 -1 2170.747 252.599)"/><rect x="1030.394" y="117.113" width="36.649" height="18.372" rx="3.477" transform="matrix(-1 0 0 -1 2097.437 252.599)"/><rect x="993.745" y="117.113" width="36.649" height="18.372" rx="3.477" transform="matrix(-1 0 0 -1 2024.139 252.599)"/><rect x="957.058" y="117.113" width="36.649" height="18.372" rx="3.477" transform="matrix(-1 0 0 -1 1950.765 252.599)"/><rect x="920.409" y="117.113" width="36.649" height="18.372" rx="3.477" transform="matrix(-1 0 0 -1 1877.467 252.599)"/><rect x="883.803" y="117.113" width="36.649" height="18.372" rx="3.477" transform="matrix(-1 0 0 -1 1804.256 252.599)"/><rect x="847.154" y="117.113" width="36.649" height="18.372" rx="3.477" transform="matrix(-1 0 0 -1 1730.958 252.599)"/><rect x="1195.334" y="98.741" width="36.649" height="18.372" rx="3.477" transform="matrix(-1 0 0 -1 2427.316 215.855)"/><rect x="1158.684" y="98.741" width="36.649" height="18.372" rx="3.477" transform="matrix(-1 0 0 -1 2354.018 215.855)"/><rect x="828.805" y="98.741" width="36.649" height="18.372" rx="3.477" transform="matrix(-1 0 0 -1 1694.259 215.855)"/><rect x="1121.998" y="98.741" width="36.649" height="18.372" rx="3.477" transform="matrix(-1 0 0 -1 2280.645 215.855)"/><rect x="1085.349" y="98.741" width="36.649" height="18.372" rx="3.477" transform="matrix(-1 0 0 -1 2207.347 215.855)"/><rect x="1048.694" y="98.741" width="36.649" height="18.372" rx="3.477" transform="matrix(-1 0 0 -1 2134.037 215.855)"/><rect x="1012.045" y="98.741" width="36.649" height="18.372" rx="3.477" transform="matrix(-1 0 0 -1 2060.739 215.855)"/><rect x="975.358" y="98.741" width="36.649" height="18.372" rx="3.477" transform="matrix(-1 0 0 -1 1987.365 215.855)"/><rect x="938.709" y="98.741" width="36.649" height="18.372" rx="3.477" transform="matrix(-1 0 0 -1 1914.067 215.855)"/><rect x="902.103" y="98.741" width="36.649" height="18.372" rx="3.477" transform="matrix(-1 0 0 -1 1840.856 215.855)"/><rect x="865.454" y="98.741" width="36.649" height="18.372" rx="3.477" transform="matrix(-1 0 0 -1 1767.558 215.855)"/><rect x="1177.034" y="80.419" width="36.649" height="18.372" rx="3.477" transform="matrix(-1 0 0 -1 2390.716 179.21)"/><rect x="1140.385" y="80.419" width="36.649" height="18.372" rx="3.477" transform="matrix(-1 0 0 -1 2317.418 179.21)"/><rect x="1103.698" y="80.419" width="36.649" height="18.372" rx="3.477" transform="matrix(-1 0 0 -1 2244.045 179.21)"/><rect x="1067.049" y="80.419" width="36.649" height="18.372" rx="3.477" transform="matrix(-1 0 0 -1 2170.747 179.21)"/><rect x="1030.394" y="80.419" width="36.649" height="18.372" rx="3.477" transform="matrix(-1 0 0 -1 2097.437 179.21)"/><rect x="993.745" y="80.419" width="36.649" height="18.372" rx="3.477" transform="matrix(-1 0 0 -1 2024.139 179.21)"/><rect x="957.058" y="80.419" width="36.649" height="18.372" rx="3.477" transform="matrix(-1 0 0 -1 1950.765 179.21)"/><rect x="920.409" y="80.419" width="36.649" height="18.372" rx="3.477" transform="matrix(-1 0 0 -1 1877.467 179.21)"/><rect x="883.803" y="80.419" width="36.649" height="18.372" rx="3.477" transform="matrix(-1 0 0 -1 1804.256 179.21)"/><rect x="847.154" y="80.419" width="36.649" height="18.372" rx="3.477" transform="matrix(-1 0 0 -1 1730.958 179.21)"/><rect x="1195.334" y="62.047" width="36.649" height="18.372" rx="3.477" transform="matrix(-1 0 0 -1 2427.316 142.466)"/><rect x="1158.684" y="62.047" width="36.649" height="18.372" rx="3.477" transform="matrix(-1 0 0 -1 2354.018 142.466)"/><rect x="828.805" y="62.047" width="36.649" height="18.372" rx="3.477" transform="matrix(-1 0 0 -1 1694.259 142.466)"/><rect x="1121.998" y="62.047" width="36.649" height="18.372" rx="3.477" transform="matrix(-1 0 0 -1 2280.645 142.466)"/><rect x="1085.349" y="62.047" width="36.649" height="18.372" rx="3.477" transform="matrix(-1 0 0 -1 2207.347 142.466)"/><rect x="1048.694" y="62.047" width="36.649" height="18.372" rx="3.477" transform="matrix(-1 0 0 -1 2134.037 142.466)"/><rect x="1012.045" y="62.047" width="36.649" height="18.372" rx="3.477" transform="matrix(-1 0 0 -1 2060.739 142.466)"/><rect x="975.358" y="62.047" width="36.649" height="18.372" rx="3.477" transform="matrix(-1 0 0 -1 1987.365 142.466)"/><rect x="938.709" y="62.047" width="36.649" height="18.372" rx="3.477" transform="matrix(-1 0 0 -1 1914.067 142.466)"/><rect x="902.103" y="62.047" width="36.649" height="18.372" rx="3.477" transform="matrix(-1 0 0 -1 1840.856 142.466)"/><rect x="865.454" y="62.047" width="36.649" height="18.372" rx="3.477" transform="matrix(-1 0 0 -1 1767.558 142.466)"/><rect x="1177.034" y="43.675" width="36.649" height="18.372" rx="3.477" transform="matrix(-1 0 0 -1 2390.716 105.721)"/><rect x="1140.385" y="43.675" width="36.649" height="18.372" rx="3.477" transform="matrix(-1 0 0 -1 2317.418 105.721)"/><rect x="1103.698" y="43.675" width="36.649" height="18.372" rx="3.477" transform="matrix(-1 0 0 -1 2244.045 105.721)"/><rect x="1067.049" y="43.675" width="36.649" height="18.372" rx="3.477" transform="matrix(-1 0 0 -1 2170.747 105.721)"/><rect x="1030.394" y="43.675" width="36.649" height="18.372" rx="3.477" transform="matrix(-1 0 0 -1 2097.437 105.721)"/><rect x="993.745" y="43.675" width="36.649" height="18.372" rx="3.477" transform="matrix(-1 0 0 -1 2024.139 105.721)"/><rect x="957.058" y="43.675" width="36.649" height="18.372" rx="3.477" transform="matrix(-1 0 0 -1 1950.765 105.721)"/><rect x="920.409" y="43.675" width="36.649" height="18.372" rx="3.477" transform="matrix(-1 0 0 -1 1877.467 105.721)"/><rect x="883.803" y="43.675" width="36.649" height="18.372" rx="3.477" transform="matrix(-1 0 0 -1 1804.256 105.721)"/><rect x="847.154" y="43.675" width="36.649" height="18.372" rx="3.477" transform="matrix(-1 0 0 -1 1730.958 105.721)"/><rect x="1195.334" y="25.302" width="36.649" height="18.372" rx="3.477" transform="matrix(-1 0 0 -1 2427.316 68.977)"/><rect x="1158.684" y="25.302" width="36.649" height="18.372" rx="3.477" transform="matrix(-1 0 0 -1 2354.018 68.977)"/><rect x="828.805" y="25.302" width="36.649" height="18.372" rx="3.477" transform="matrix(-1 0 0 -1 1694.259 68.977)"/><rect x="1121.998" y="25.302" width="36.649" height="18.372" rx="3.477" transform="matrix(-1 0 0 -1 2280.645 68.977)"/><rect x="1085.349" y="25.302" width="36.649" height="18.372" rx="3.477" transform="matrix(-1 0 0 -1 2207.347 68.977)"/><rect x="1048.694" y="25.302" width="36.649" height="18.372" rx="3.477" transform="matrix(-1 0 0 -1 2134.037 68.977)"/><rect x="1012.045" y="25.302" width="36.649" height="18.372" rx="3.477" transform="matrix(-1 0 0 -1 2060.739 68.977)"/><rect x="975.358" y="25.302" width="36.649" height="18.372" rx="3.477" transform="matrix(-1 0 0 -1 1987.365 68.977)"/><rect x="938.709" y="25.302" width="36.649" height="18.372" rx="3.477" transform="matrix(-1 0 0 -1 1914.067 68.977)"/><rect x="902.103" y="25.302" width="36.649" height="18.372" rx="3.477" transform="matrix(-1 0 0 -1 1840.856 68.977)"/><rect x="865.454" y="25.302" width="36.649" height="18.372" rx="3.477" transform="matrix(-1 0 0 -1 1767.558 68.977)"/><rect x="1177.034" y="6.948" width="36.649" height="18.372" rx="3.477" transform="matrix(-1 0 0 -1 2390.716 32.269)"/><rect x="1140.385" y="6.948" width="36.649" height="18.372" rx="3.477" transform="matrix(-1 0 0 -1 2317.418 32.269)"/><rect x="1103.698" y="6.948" width="36.649" height="18.372" rx="3.477" transform="matrix(-1 0 0 -1 2244.045 32.269)"/><rect x="1067.049" y="6.948" width="36.649" height="18.372" rx="3.477" transform="matrix(-1 0 0 -1 2170.747 32.269)"/><rect x="1030.394" y="6.948" width="36.649" height="18.372" rx="3.477" transform="matrix(-1 0 0 -1 2097.437 32.269)"/><rect x="993.745" y="6.948" width="36.649" height="18.372" rx="3.477" transform="matrix(-1 0 0 -1 2024.139 32.269)"/><rect x="957.058" y="6.948" width="36.649" height="18.372" rx="3.477" transform="matrix(-1 0 0 -1 1950.765 32.269)"/><rect x="920.409" y="6.948" width="36.649" height="18.372" rx="3.477" transform="matrix(-1 0 0 -1 1877.467 32.269)"/><rect x="883.803" y="6.948" width="36.649" height="18.372" rx="3.477" transform="matrix(-1 0 0 -1 1804.256 32.269)"/><rect x="847.154" y="6.948" width="36.649" height="18.372" rx="3.477" transform="matrix(-1 0 0 -1 1730.958 32.269)"/><rect x="1195.334" y="-11.424" width="36.649" height="18.372" rx="3.477" transform="matrix(-1 0 0 -1 2427.316 -4.475)"/><rect x="1158.684" y="-11.424" width="36.649" height="18.372" rx="3.477" transform="matrix(-1 0 0 -1 2354.018 -4.475)"/><rect x="828.805" y="-11.424" width="36.649" height="18.372" rx="3.477" transform="matrix(-1 0 0 -1 1694.259 -4.475)"/><rect x="1121.998" y="-11.424" width="36.649" height="18.372" rx="3.477" transform="matrix(-1 0 0 -1 2280.645 -4.475)"/><rect x="1085.349" y="-11.424" width="36.649" height="18.372" rx="3.477" transform="matrix(-1 0 0 -1 2207.347 -4.475)"/><rect x="1048.694" y="-11.424" width="36.649" height="18.372" rx="3.477" transform="matrix(-1 0 0 -1 2134.037 -4.475)"/><rect x="1012.045" y="-11.424" width="36.649" height="18.372" rx="3.477" transform="matrix(-1 0 0 -1 2060.739 -4.475)"/><rect x="975.358" y="-11.424" width="36.649" height="18.372" rx="3.477" transform="matrix(-1 0 0 -1 1987.365 -4.475)"/><rect x="938.709" y="-11.424" width="36.649" height="18.372" rx="3.477" transform="matrix(-1 0 0 -1 1914.067 -4.475)"/><rect x="902.103" y="-11.424" width="36.649" height="18.372" rx="3.477" transform="matrix(-1 0 0 -1 1840.856 -4.475)"/><rect x="865.454" y="-11.424" width="36.649" height="18.372" rx="3.477" transform="matrix(-1 0 0 -1 1767.558 -4.475)"/></g></g></g><path d="M-22.299 52.875H502.34v27.544H-22.299z" fill="#a0ccc7"/></g><path d="M-59.616 19.557h503.815c28.921 0 52.366 23.445 52.366 52.366s23.445 52.366 52.366 52.366H708.6c33.349 0 60.383 27.034 60.383 60.383s27.034 60.383 60.383 60.383h48.709c39.629 0 71.754 32.125 71.754 71.754v26.062c0 39.629-32.125 71.754-71.754 71.754h-311.56c-21.993 0-39.823-17.829-39.823-39.823s-17.829-39.823-39.823-39.823H252.034a19.53 19.53 0 0 1-19.526-19.526 19.53 19.53 0 0 0-19.526-19.526H-59.616a19.53 19.53 0 0 1-19.526-19.526V39.083a19.53 19.53 0 0 1 19.526-19.526z" stroke-dasharray="0 10.007" class="B P R U V"/><g clip-path="url(#C)"><g class="D"><use href="#h" fill="#4eb5bf"/></g><g class="D"><use href="#h" fill="#4eb5bf"/></g><g opacity=".15" class="E"><path d="M1118.385-138.918V48.798a6.23 6.23 0 0 1-6.209 6.209h-20.785s3.364 0 3.364-3.912v-192.828c0-3.912-3.364-3.912-3.364-3.912h20.267a6.75 6.75 0 0 1 6.727 6.727z"/></g><g opacity=".2"><path d="M1071.362 48.798v-187.716a6.75 6.75 0 0 1 6.727-6.727h0s-3.364 0-3.364 3.912V51.095c0 3.912 3.364 3.912 3.364 3.912h-.518a6.23 6.23 0 0 1-6.209-6.209z" fill="#233f6e"/></g><g style="mix-blend-mode:overlay" opacity=".25" class="E"><path d="M1118.385-138.918V51.095c0 2.152-1.76 3.912-3.912 3.912h-2.815s3.364 0 3.364-3.912v-192.828c0-3.912-3.364-3.912-3.364-3.912h0a6.75 6.75 0 0 1 6.727 6.727z"/></g><g style="mix-blend-mode:multiply" class="c"><use href="#i"/></g><path d="M1105.613 20.261h12.773a1.49 1.49 0 1 0 0-2.98h-12.773a1.49 1.49 0 1 0 0 2.98z" class="c"/><g style="mix-blend-mode:multiply" class="c"><path d="M1071.362 22.014h12.773a1.49 1.49 0 1 0 0-2.98h-12.773a1.49 1.49 0 1 0 0 2.98z"/></g><path d="M1071.362 20.261h12.773a1.49 1.49 0 1 0 0-2.98h-12.773a1.49 1.49 0 1 0 0 2.98z" class="c"/><path d="M1112.021-46.286h33.995a20.57 20.57 0 0 1 18.128 10.85l22.302 38.342h-74.425c-14.783 0-26.881-7.592-26.926-22.347.046-14.772 12.144-26.845 26.926-26.845z" class="E"/></g><path d="M1112.021 12.48h79.994l2.921 5.021h-82.914c-14.811 0-26.928-7.62-26.928-22.43V-9.95c0 14.811 12.118 22.43 26.928 22.43z" class="W"/><path d="M1186.445 2.906l-22.302-38.342a20.57 20.57 0 0 0-18.128-10.85h-33.995c-14.783 0-26.881 12.072-26.926 26.845 0 .028-.002.056-.002.083v9.408c0 14.811 12.118 22.43 26.929 22.43h79.994l-5.569-9.574z" class="E"/><g clip-path="url(#D)"><path d="M1113.193 1.937l.524-32.503a21.36 21.36 0 0 1 18.423-10.553h27.091 59.365 16.053a16.73 16.73 0 0 1 14.749 8.835h0c.825 1.542 2.432 2.506 4.181 2.507l9.835.009a14.39 14.39 0 0 1 12.675 7.599l7.056 13.138a3.74 3.74 0 0 0 3.331 1.981c1.37-.012 2.623.772 3.267 1.981l2.536 4.761c.609 1.144 1.799 1.858 3.095 1.858h3.13a3.51 3.51 0 0 1 2.813 1.413l1.074 1.682a.93.93 0 0 1-.778 1.439h-10.454l2.36 11.487h-29.954-137.058-3.814c-8.028 0-13.199-8.51-9.5-15.635z" fill="#f6c880"/><path d="M1292.594 3.368a1.98 1.98 0 0 0-1.75-1.053c-.733 0-1.406-.405-1.75-1.052l-.667-1.204a1.98 1.98 0 0 0-1.749-1.052h-.884c-1.565 0-3.002-.863-3.737-2.244l-9.158-17.118a9.64 9.64 0 0 0-8.502-5.1h0c-5.105 0-8.376 5.431-5.989 9.943l12.535 23.741h21.79 2.383l-2.522-4.861z" fill="#2b3357"/><g clip-path="url(#E)"><path d="M1311.964 32.821H1054.52l21.051-40.996h19.632c2.799 0 5.469-1.177 7.358-3.244l3.219-3.524c2.203-3.047 5.73-4.862 9.46-4.862h34.251c3.727 0 7.252 1.812 9.455 4.855l3.573 3.847c1.833 1.973 4.435 3.107 7.136 3.107h142.309a1.9 1.9 0 0 1 1.898 1.898v37.021a1.9 1.9 0 0 1-1.898 1.898z" fill="#f3ac54"/><g clip-path="url(#F)"><path d="M1189.197-19.608h36.11V9.533h-36.11z" fill="#233f6e"/><g clip-path="url(#G)" class="B P R"><path d="M1200.383 20.072v-64.604" stroke="#1b284b" stroke-width="5.987"/></g></g></g></g><path d="M1085.092-4.853v22.375h28.433s-28.433-4.053-28.433-22.375Z" class="W"/><g fill="#f8d680" class="C"><path d="M1041.181 6.125l8.848-8.458a20.4 20.4 0 0 1 28.678.495l7.381 7.559a39.18 39.18 0 0 0 28.026 11.803h.005-69.323m209.134 1.563h.005a41.15 41.15 0 0 0 28.427-11.398l8.848-8.458a20.4 20.4 0 0 1 28.678.495l7.381 7.559a39.18 39.18 0 0 0 28.026 11.803h.005-101.368z"/></g><g opacity=".33" fill="#3d9056"><use href="#j"/><use href="#k"/><path d="M1469.531 81.538a2.82 2.82 0 0 0 2.818-2.825v-5.895a2.82 2.82 0 0 0-2.818-2.825 2.82 2.82 0 0 0-2.818 2.825v5.895a2.82 2.82 0 0 0 2.818 2.825zm-42.534 23.344a2.82 2.82 0 0 0 2.818-2.825v-8.844a2.82 2.82 0 0 0-2.818-2.825 2.82 2.82 0 0 0-2.818 2.825v8.844a2.82 2.82 0 0 0 2.818 2.825z"/><use href="#l"/><path d="M1437.782 104.882a2.82 2.82 0 0 0 2.818-2.825v-5.898a2.82 2.82 0 0 0-2.818-2.825 2.82 2.82 0 0 0-2.818 2.825v5.898a2.82 2.82 0 0 0 2.818 2.825zm-21.691-48.897a2.82 2.82 0 0 0 2.818-2.825v-8.844a2.82 2.82 0 0 0-2.818-2.825 2.82 2.82 0 0 0-2.818 2.825v8.844a2.82 2.82 0 0 0 2.818 2.825zm-11.768 0a2.82 2.82 0 0 0 2.818-2.825v-5.898a2.82 2.82 0 0 0-2.818-2.825 2.82 2.82 0 0 0-2.818 2.825v5.898a2.82 2.82 0 0 0 2.818 2.825zm22.553 0a2.82 2.82 0 0 0 2.818-2.825v-5.898a2.82 2.82 0 0 0-2.818-2.825 2.82 2.82 0 0 0-2.818 2.825v5.898a2.82 2.82 0 0 0 2.818 2.825z"/></g><use href="#m" class="f"/><use href="#m" class="E"/><g clip-path="url(#H)"><use href="#n" class="E"/><path d="M900.389 76.058v12.553a9.96 9.96 0 0 1-9.959 9.959H789.629v11.673h120.895V76.059h-10.135z" class="W"/></g><use href="#o" class="G"/><use href="#p" class="J"/><g clip-path="url(#I)" class="S"><path style="mix-blend-mode:overlay" d="M782.319 109.203h-23.243l35.306-94.463h23.243l-35.306 94.463z" class="D"/><use href="#q" class="Q"/><path d="M899.728 109.862h-56.855l35.306-94.463h56.855l-35.306 94.463z" class="Q"/></g><rect x="761.624" y="-19.801" width="70.205" height="128.534" rx="10.588" class="E"/><use href="#r" class="g"/><use href="#s" class="G"/><use href="#t" class="J"/><g clip-path="url(#J)"><g class="B K L M"><use href="#u"/><path d="M771.596 17.582l49.93-.024"/></g><use href="#v" class="G"/><g class="B K L M"><path d="M771.589 38.256l49.931-.024m-49.924 6.257l49.93-.024"/></g><path d="M771.589 38.195h49.937v6.209h-49.937z" class="G"/><g class="B K L M"><path d="M771.614 71.308l49.931-.024m-49.931-6.14l49.931-.024"/></g><path d="M771.589 65.132h49.937v6.209h-49.937z" class="G"/><g class="S"><path d="M807.071 96.744h-13.496l40.686-117.579h13.495L807.071 96.744zm-26.296 8.276h-6.737l43.406-125.441h6.736L780.775 105.02zm-20.939-8.249h-30.841l40.552-117.192h30.84L759.836 96.771z" class="Q"/></g></g><use href="#w" class="E"/><use href="#x" class="J"/><use href="#y" class="h"/><g clip-path="url(#K)" class="C i"><use href="#z"/></g><use href="#AA" class="C T"/><g clip-path="url(#L)"><use href="#AB" class="C F"/><use href="#AC" class="N"/><g class="C"><g class="H"><use href="#AD" class="D"/><use href="#AE" class="D"/></g><g class="F"><use href="#AF" class="O"/><use href="#AG" class="O"/></g></g></g><use href="#AH" class="C T"/><g clip-path="url(#M)"><use href="#AI" class="C F"/><use href="#AJ" class="N"/><g class="C"><g class="H"><use href="#AK" class="D"/><use href="#AL" class="D"/></g><g class="F"><use href="#AM" class="O"/><use href="#AN" class="O"/></g></g></g><use href="#AO" class="C N"/><g clip-path="url(#N)"><use href="#AP" class="F"/><use href="#AQ" class="j"/><g class="D F"><use href="#AR"/></g><g class="D H"><use href="#AS"/></g><use href="#AT" class="D F"/><g class="D H"><path d="M790.386 75.28c-.611 0-1.23-.172-1.781-.534l-13.233-8.684c-1.505-.986-1.925-3.004-.937-4.509a3.25 3.25 0 0 1 4.507-.935l13.233 8.684c1.505.986 1.925 3.004.937 4.509-.623.952-1.666 1.469-2.726 1.469z"/></g></g><path d="M749.485 108.733h168.057" class="P R U V a b"/><use href="#AU" class="f"/><use href="#AU" class="E"/><g clip-path="url(#O)"><path d="M1105.975 100.663l-91.234-84.154c-13.558-12.506-35.511-2.889-35.511 15.555v95.007a13.77 13.77 0 0 0 13.769 13.769h97.276c21.083 0 31.198-25.882 15.7-40.177z" class="E"/><path d="M1086.042 76.058v12.553a9.96 9.96 0 0 1-9.959 9.959H975.282v11.673h120.895V76.059h-10.135z" class="W"/></g><path d="M1068.94 80.296l-61.835-57.037c-10.642-9.816-27.874-2.268-27.874 12.21v63.519a9.75 9.75 0 0 0 9.745 9.745h68.851c14.923 0 22.081-18.319 11.113-28.437z" class="G"/><path d="M1064.964 83.344l-59.543-54.923c-9.999-9.224-26.191-2.131-26.191 11.473v59.682a9.16 9.16 0 0 0 9.157 9.157h66.655c13.323 0 19.715-16.356 9.922-25.389z" class="J"/><g clip-path="url(#P)" class="S"><path style="mix-blend-mode:overlay" d="M967.972 109.203H944.73l35.305-94.463h23.243l-35.306 94.463z" class="D"/><path d="M1016.581 109.862h-11.602l35.306-94.463h11.602l-35.306 94.463zm68.8 0h-56.854l35.305-94.463h56.855l-35.306 94.463z" class="Q"/></g><rect x="947.278" y="-19.801" width="70.205" height="128.534" rx="10.588" class="E"/><path d="M966.266-17.466h31.902a9.02 9.02 0 0 1 9.014 9.014v91.317c0 2.781-2.258 5.039-5.039 5.039H962.29c-2.781 0-5.039-2.258-5.039-5.039V-8.451a9.02 9.02 0 0 1 9.014-9.014z" class="g"/><path d="M966.266-19.801h31.902a9.02 9.02 0 0 1 9.014 9.014V80.53c0 2.781-2.258 5.039-5.039 5.039H962.29c-2.781 0-5.039-2.258-5.039-5.039v-91.316a9.02 9.02 0 0 1 9.014-9.014z" class="G"/><path d="M968.552-19.801h29.616a9.02 9.02 0 0 1 9.014 9.014v89.154a4.51 4.51 0 0 1-4.507 4.507h-39.848a3.29 3.29 0 0 1-3.29-3.29v-90.37a9.02 9.02 0 0 1 9.014-9.014z" class="J"/><g clip-path="url(#Q)"><g class="B K L M"><path d="M957.243 11.349l49.931-.024m-49.925 6.257l49.931-.024"/></g><path d="M957.243 11.349h49.937v6.209h-49.937z" class="G"/><g class="B K L M"><path d="M957.243 38.256l49.931-.024m-49.925 6.257l49.931-.024"/></g><path d="M957.243 38.195h49.937v6.209h-49.937z" class="G"/><g class="B K L M"><path d="M957.268 71.308l49.93-.024m-49.93-6.14l49.93-.024"/></g><path d="M957.243 65.132h49.937v6.209h-49.937z" class="G"/><g class="S"><path d="M992.724 96.744h-13.495l40.685-117.579h13.496L992.724 96.744zm-26.296 8.276h-6.736l43.406-125.441h6.736L966.428 105.02zm-20.939-8.249h-30.84L955.2-20.421h30.841L945.489 96.771z" class="Q"/></g></g><path d="M975.006 62.446h14.422a6 6 0 0 1 5.998 5.998v40.29h-26.418v-40.29a6 6 0 0 1 5.998-5.998z" class="E"/><path d="M988.044 67.076h-11.979c-1.647 0-2.994 1.347-2.994 2.994v38.664h17.967V70.07c0-1.647-1.347-2.994-2.994-2.994z" class="J"/><path d="M962.633 55.564h-19.462l-5.274 48.167c-.292 2.67 1.798 5.002 4.484 5.002h21.138a4.51 4.51 0 0 0 4.483-5.01l-5.369-48.159z" class="h"/><g clip-path="url(#R)" class="C i"><path d="M952.965 90.383l-15.91-11.594c-8.788-6.404-9.781-19.142-2.092-26.831l5.565-5.565h24.873l5.565 5.565c7.689 7.689 6.696 20.427-2.092 26.831l-15.91 11.594z"/></g><path d="M952.95 53.814a25.97 25.97 0 0 0 7.607 18.366c4.872 4.872 11.479 7.607 18.369 7.607h26.126V62.616a25.97 25.97 0 0 0-7.607-18.369 25.99 25.99 0 0 0-18.369-7.607H952.95v17.174z" class="C T"/><g clip-path="url(#S)"><path d="M952.95 36.639l58.143 49.739H952.95V36.639z" class="C F"/><path d="M950.892 39.169l4.117-5.045 52.109 42.522-4.117 5.045z" class="N"/><g class="C"><g class="H"><path d="M983.343 82.6h-6.513V71.645a3.26 3.26 0 0 1 3.256-3.256 3.26 3.26 0 0 1 3.256 3.256V82.6zm-13.025.482h-6.513V61.466c0-1.798 1.456-3.253 3.253-3.253h.007c1.797 0 3.253 1.456 3.253 3.253v21.616z" class="D"/></g><g class="F"><path d="M1005.053 61.531v-6.168h-9.942a3.09 3.09 0 0 0-2.182.905c-.576.576-.902 1.361-.902 2.179h0c0 .821.326 1.602.902 2.182a3.08 3.08 0 0 0 2.182.902h9.942zm0-12.68v-6.513h-19.542c-1.797 0-3.253 1.456-3.253 3.253v.007c0 1.798 1.456 3.253 3.253 3.253h19.542z" class="O"/></g></g></g><path d="M952.95 53.814a25.97 25.97 0 0 1-7.607 18.366c-4.872 4.872-11.479 7.607-18.369 7.607h-26.126V62.616a25.97 25.97 0 0 1 7.607-18.369 25.99 25.99 0 0 1 18.369-7.607h26.126v17.174z" class="C T"/><g clip-path="url(#T)"><path d="M952.95 36.639l-58.143 49.739h58.143V36.639z" class="C F"/><path d="M898.789 76.647l52.103-42.529 4.118 5.045-52.103 42.529z" class="N"/><g class="C"><g class="H"><path d="M922.557 82.6h6.513V71.645a3.26 3.26 0 0 0-3.256-3.256 3.26 3.26 0 0 0-3.256 3.256V82.6zm13.026.482h6.513V61.469c0-.863-.342-1.69-.954-2.302a3.26 3.26 0 0 0-4.604 0c-.612.612-.954 1.439-.954 2.302v21.613z" class="D"/></g><g class="F"><path d="M900.848 61.877v-6.513h9.773a3.24 3.24 0 0 1 3.253 3.253v.007c0 .863-.342 1.69-.954 2.302a3.25 3.25 0 0 1-2.299.951h-9.773zm0-13.026v-6.513h19.538a3.26 3.26 0 0 1 2.302.954c.612.612.954 1.439.954 2.302a3.25 3.25 0 0 1-3.256 3.256h-19.538z" class="O"/></g></g></g><path d="M952.965 79.787L937.36 68.415c-8.619-6.281-9.593-18.775-2.052-26.317l5.459-5.459h24.396l5.459 5.459c7.541 7.541 6.567 20.035-2.052 26.317l-15.605 11.372z" class="C N"/><g clip-path="url(#U)"><path d="M952.965 34.663h24.619v46.728h-24.619z" class="F"/><path d="M949.695 31.936h6.513v56.798h-6.513z" class="j"/><g class="D F"><path d="M929.86,60.431c-1.06,0-2.103-.517-2.726-1.469-.988-1.505-.568-3.524.937-4.509l13.238-8.684c1.505-.992,3.524-.564,4.507.935.988,1.505.568,3.524-.937,4.509l-13.238,8.684c-.551.363-1.17.534-1.781.534Z"/></g><g class="D H"><path d="M976.039 60.431c-.611 0-1.23-.172-1.781-.534l-13.233-8.684c-1.505-.986-1.925-3.004-.937-4.509a3.25 3.25 0 0 1 4.507-.935l13.233 8.684c1.505.986 1.925 3.004.937 4.509-.623.952-1.666 1.469-2.726 1.469z"/></g><path d="M929.86,75.28c-1.06,0-2.103-.517-2.726-1.469-.988-1.505-.568-3.524.937-4.509l13.238-8.684c1.505-.992,3.524-.564,4.507.935.988,1.505.568,3.524-.937,4.509l-13.238,8.684c-.551.363-1.17.534-1.781.534Z" class="D F"/><g class="D H"><path d="M976.039 75.28c-.611 0-1.23-.172-1.781-.534l-13.233-8.684c-1.505-.986-1.925-3.004-.937-4.509a3.25 3.25 0 0 1 4.507-.935l13.233 8.684c1.505.986 1.925 3.004.937 4.509-.623.952-1.666 1.469-2.726 1.469z"/></g></g><path d="M935.138 108.733h168.057" class="P R U V a b"/><path d="M1265.726 76.767l-69.509-64.115c-11.963-11.035-31.333-2.549-31.333 13.725v71.401a10.96 10.96 0 0 0 10.955 10.955h77.396c16.775 0 24.822-20.593 12.492-31.966z" class="f"/><path d="M1265.726 76.767l-69.509-64.115c-11.963-11.035-31.333-2.549-31.333 13.725v71.401a10.96 10.96 0 0 0 10.955 10.955h77.396c16.775 0 24.822-20.593 12.492-31.966z" class="E"/><g clip-path="url(#V)"><path d="M1291.629 100.663l-91.234-84.154c-13.558-12.506-35.511-2.889-35.511 15.555v95.007a13.77 13.77 0 0 0 13.769 13.769h97.276c21.083 0 31.198-25.882 15.7-40.177z" class="E"/><path d="M1271.696 76.058v12.553a9.96 9.96 0 0 1-9.959 9.959h-100.801v11.673h120.895V76.059h-10.135z" class="W"/></g><path d="M1254.593 80.296l-61.835-57.037c-10.642-9.816-27.874-2.268-27.874 12.21v63.519a9.75 9.75 0 0 0 9.745 9.745h68.851c14.923 0 22.081-18.319 11.113-28.437z" class="G"/><path d="M1250.618 83.344l-59.543-54.923c-9.999-9.224-26.191-2.131-26.191 11.473v59.682a9.16 9.16 0 0 0 9.157 9.157h66.655c13.323 0 19.715-16.356 9.922-25.389z" class="J"/><g clip-path="url(#W)" class="S"><path style="mix-blend-mode:overlay" d="M1153.626 109.203h-23.243l35.306-94.463h23.242l-35.305 94.463z" class="D"/><path d="M1202.234 109.862h-11.601l35.305-94.463h11.602l-35.306 94.463zm68.801 0h-56.855l35.306-94.463h56.854l-35.305 94.463z" class="Q"/></g><rect x="1132.931" y="-19.801" width="70.205" height="128.534" rx="10.588" class="E"/><path d="M1151.92-17.466h31.902a9.02 9.02 0 0 1 9.014 9.014v91.317c0 2.781-2.258 5.039-5.039 5.039h-39.853c-2.781 0-5.039-2.258-5.039-5.039V-8.451a9.02 9.02 0 0 1 9.014-9.014z" class="g"/><path d="M1151.92-19.801h31.902a9.02 9.02 0 0 1 9.014 9.014V80.53c0 2.781-2.258 5.039-5.039 5.039h-39.853c-2.781 0-5.039-2.258-5.039-5.039v-91.316a9.02 9.02 0 0 1 9.014-9.014z" class="G"/><path d="M1154.206-19.801h29.616a9.02 9.02 0 0 1 9.014 9.014v89.154a4.51 4.51 0 0 1-4.507 4.507h-39.848a3.29 3.29 0 0 1-3.29-3.29v-90.37a9.02 9.02 0 0 1 9.014-9.014z" class="J"/><g clip-path="url(#X)"><g class="B K L M"><path d="M1142.896 11.349l49.931-.024m-49.925 6.257l49.931-.024"/></g><path d="M1142.896 11.349h49.937v6.209h-49.937z" class="G"/><g class="B K L M"><path d="M1142.896 38.256l49.931-.024m-49.925 6.257l49.931-.024"/></g><path d="M1142.896 38.195h49.937v6.209h-49.937z" class="G"/><g class="B K L M"><path d="M1142.921 71.308l49.931-.024m-49.931-6.14l49.931-.024"/></g><path d="M1142.896 65.132h49.937v6.209h-49.937z" class="G"/><g class="S"><path d="M1178.378 96.744h-13.496l40.686-117.579h13.495l-40.685 117.579zm-26.296 8.276h-6.737l43.406-125.441h6.736l-43.405 125.441zm-20.939-8.249h-30.841l40.551-117.192h30.841l-40.551 117.192z" class="Q"/></g></g><path d="M1160.66 62.446h14.422a6 6 0 0 1 5.998 5.998v40.29h-26.418v-40.29a6 6 0 0 1 5.998-5.998z" class="E"/><path d="M1173.697 67.076h-11.979c-1.647 0-2.994 1.347-2.994 2.994v38.664h17.967V70.07c0-1.647-1.347-2.994-2.994-2.994z" class="J"/><path d="M1148.287 55.564h-19.462l-5.274 48.167c-.292 2.67 1.798 5.002 4.484 5.002h21.138a4.51 4.51 0 0 0 4.483-5.01l-5.369-48.159z" class="h"/><g clip-path="url(#Y)" class="C i"><path d="M1138.618 90.383l-15.91-11.594c-8.788-6.404-9.781-19.142-2.092-26.831l5.565-5.565h24.873l5.565 5.565c7.689 7.689 6.696 20.427-2.092 26.831l-15.91 11.594z"/></g><path d="M1138.604 53.814a25.97 25.97 0 0 0 7.607 18.366c4.872 4.872 11.479 7.607 18.369 7.607h26.126V62.616a25.97 25.97 0 0 0-7.607-18.369 25.99 25.99 0 0 0-18.369-7.607h-26.126v17.174z" class="C T"/><g clip-path="url(#Z)"><path d="M1138.604 36.639l58.143 49.739h-58.143V36.639z" class="C F"/><path d="M1136.545 39.169l4.117-5.045 52.109 42.522-4.117 5.045z" class="N"/><g class="C"><g class="H"><path d="M1168.997 82.6h-6.513V71.645a3.26 3.26 0 0 1 3.256-3.256 3.26 3.26 0 0 1 3.256 3.256V82.6zm-13.026.482h-6.513V61.466c0-1.798 1.456-3.253 3.253-3.253h.007c1.797 0 3.253 1.456 3.253 3.253v21.616z" class="D"/></g><g class="F"><path d="M1190.706 61.531v-6.168h-9.942a3.09 3.09 0 0 0-2.182.905c-.576.576-.902 1.361-.902 2.179h0c0 .821.326 1.602.902 2.182a3.08 3.08 0 0 0 2.182.902h9.942zm0-12.68v-6.513h-19.542c-1.797 0-3.253 1.456-3.253 3.253v.007c0 1.798 1.456 3.253 3.253 3.253h19.542z" class="O"/></g></g></g><path d="M1138.604 53.814a25.97 25.97 0 0 1-7.607 18.366c-4.872 4.872-11.479 7.607-18.369 7.607h-26.126V62.616a25.97 25.97 0 0 1 7.607-18.369 25.99 25.99 0 0 1 18.369-7.607h26.126v17.174z" class="C T"/><g clip-path="url(#a)"><path d="M1138.604 36.639l-58.144 49.739h58.144V36.639z" class="C F"/><path d="M1084.442 76.648l52.103-42.529 4.118 5.045-52.103 42.529z" class="N"/><g class="C"><g class="H"><path d="M1108.21 82.6h6.513V71.645a3.26 3.26 0 0 0-3.256-3.256 3.26 3.26 0 0 0-3.256 3.256V82.6zm13.026.482h6.513V61.469c0-.863-.342-1.69-.954-2.302a3.26 3.26 0 0 0-4.604 0c-.612.612-.954 1.439-.954 2.302v21.613z" class="D"/></g><g class="F"><path d="M1086.501 61.877v-6.513h9.773a3.24 3.24 0 0 1 3.253 3.253v.007c0 .863-.342 1.69-.954 2.302a3.25 3.25 0 0 1-2.299.951h-9.773zm0-13.026v-6.513h19.538a3.26 3.26 0 0 1 2.302.954c.612.612.954 1.439.954 2.302a3.25 3.25 0 0 1-3.256 3.256h-19.538z" class="O"/></g></g></g><path d="M1138.618 79.787l-15.605-11.372c-8.619-6.281-9.593-18.775-2.052-26.317l5.459-5.459h24.396l5.459 5.459c7.541 7.541 6.567 20.035-2.052 26.317l-15.605 11.372z" class="C N"/><g clip-path="url(#b)"><path d="M1138.618 34.663h24.619v46.728h-24.619z" class="F"/><path d="M1135.349 31.936h6.513v56.798h-6.513z" class="j"/><g class="D F"><path d="M1115.513,60.431c-1.06,0-2.103-.517-2.726-1.469-.988-1.505-.568-3.524.937-4.509l13.238-8.684c1.505-.992,3.524-.564,4.507.935.988,1.505.568,3.524-.937,4.509l-13.238,8.684c-.551.363-1.17.534-1.781.534Z"/></g><g class="D H"><path d="M1161.693 60.431c-.611 0-1.23-.172-1.781-.534l-13.233-8.684c-1.505-.986-1.925-3.004-.937-4.509a3.25 3.25 0 0 1 4.507-.935l13.233 8.684c1.505.986 1.925 3.004.937 4.509-.623.952-1.666 1.469-2.726 1.469z"/></g><path d="M1115.513,75.28c-1.06,0-2.103-.517-2.726-1.469-.988-1.505-.568-3.524.937-4.509l13.238-8.684c1.505-.992,3.524-.564,4.507.935.988,1.505.568,3.524-.937,4.509l-13.238,8.684c-.551.363-1.17.534-1.781.534Z" class="D F"/><g class="D H"><path d="M1161.693 75.28c-.611 0-1.23-.172-1.781-.534l-13.233-8.684c-1.505-.986-1.925-3.004-.937-4.509a3.25 3.25 0 0 1 4.507-.935l13.233 8.684c1.505.986 1.925 3.004.937 4.509-.623.952-1.666 1.469-2.726 1.469z"/></g></g><path d="M1120.792 108.733h168.057" class="P R U V a b"/><rect x="561.384" y="22.058" width="96.787" height="15.059" rx="7.529" transform="matrix(-1 0 0 -1 1219.554 59.174)" fill="#3d9056" opacity=".3"/><g class="C"><path d="M654.845 16.278c0-3.071-2.49-5.562-5.562-5.562h-4.86v6.652h1.329a2.44 2.44 0 0 1 2.44 2.44v7.538h6.652V16.277z" fill="#a18356"/><path d="M658.171 28.809c0-.387-.155-.759-.43-1.034a1.46 1.46 0 0 0-1.034-.428h-8.514v7.86c0 2.189 1.775 3.965 3.965 3.965h6.013V28.809z" fill="#635049"/><path d="M578.229 30.66a9.84 9.84 0 0 1-6.969-2.88 9.85 9.85 0 0 1-2.887-6.966V-15.89h-3.976c-1.426 0-2.583-1.158-2.583-2.584v-4.068l-3.631-.048a3.16 3.16 0 0 1-3.115-3.157v-3.615a3.16 3.16 0 0 1 3.157-3.157h16.798v-3.326c0-1.837 1.489-3.325 3.324-3.325h.003c1.836 0 3.324 1.487 3.324 3.325v34.167a3.9 3.9 0 0 0 3.896 3.896h.002a3.82 3.82 0 0 0 3.76-3.15l1.815-10.21c.577-3.239 3.392-5.596 6.68-5.596h.373c3.317 0 6.146 2.397 6.691 5.668l1.597 9.578c.48 2.88 2.972 4.99 5.89 4.99h.002a5.97 5.97 0 0 0 5.89-4.99l1.597-9.578c.545-3.271 3.376-5.668 6.693-5.668h.394c3.279 0 6.09 2.344 6.676 5.57l1.834 10.088a5.2 5.2 0 0 0 3.273 3.935 2.16 2.16 0 0 0 .103.039 9.35 9.35 0 0 1 6.026 8.737v12.815a6.2 6.2 0 0 1-1.814 4.38c-1.162 1.163-2.739 1.814-4.382 1.814l-60.442.02z" fill="#b29569"/></g><use href="#AV" fill="#7cb8c4"/><path d="M346.438-93.695l7.7 3.417-55.864 125.904-7.7-3.417z" class="E"/><path d="M41.264 35.626l-7.7 3.417L-22.3-86.862l7.7-3.417z" fill="#7cb8c4"/><path d="M48.966 32.209l-7.7 3.417-55.864-125.904 7.7-3.417z" class="E"/><path d="M156.246 65.447h0c0-1.752-1.124-3.307-2.789-3.85-24.314-7.939-46.614-21.666-64.826-40.314L58.477-9.599C42.364-26.092 21.068-34.689-.321-34.689h-73.993c-14.398 0-5.217 46.003-14.959 55.972a160.03 160.03 0 0 1-64.826 40.314 4.05 4.05 0 0 0-2.789 3.85h0a4.06 4.06 0 0 0 4.057 4.057h305.02a4.06 4.06 0 0 0 4.057-4.057z" class="X"/><path d="M139.378 65.827h0a3.67 3.67 0 0 0-2.528-3.489c-22.033-7.195-42.242-19.634-58.745-36.532L50.779-2.179C36.178-17.125 16.88-24.916-2.503-24.916h-67.053c-13.048 0-4.727 41.688-13.556 50.722-16.503 16.899-36.712 29.338-58.745 36.532a3.67 3.67 0 0 0-2.528 3.489h0a3.68 3.68 0 0 0 3.677 3.677h276.41a3.68 3.68 0 0 0 3.677-3.677z" class="Y"/><path d="M133.572 65.937h0a3.56 3.56 0 0 0-2.452-3.385 140.67 140.67 0 0 1-56.987-35.439L47.625-.034C33.46-14.532 14.739-22.09-4.063-22.09h-65.046c-12.657 0-4.586 40.44-13.15 49.204a140.67 140.67 0 0 1-56.987 35.439 3.56 3.56 0 0 0-2.452 3.385h0a3.57 3.57 0 0 0 3.567 3.567h268.136a3.57 3.57 0 0 0 3.567-3.567z" class="Z"/><g clip-path="url(#c)" class="d"><path d="M36.763 13.14h-62.257l13.123 13.486h62.257L36.763 13.14zm-49.177 13.486h-62.257l13.123 13.485H.708l-13.122-13.485zm26.05 26.97h-62.257l13.123 13.486h62.257L13.636 53.596zm124.708 0H76.088l13.123 13.486h62.256l-13.123-13.486z"/><path d="M89.015 67.082H26.759l13.123 13.485h62.256L89.015 67.082zm-26.05-26.971H.708l13.123 13.485h62.257L62.965 40.111z"/><path d="M111.971 26.626H49.714l13.123 13.485h62.257l-13.123-13.485zM85.94-.345H23.683L36.806 13.14h62.257L85.94-.345z"/></g><path d="M-241.426 65.447h0c0-1.752 1.124-3.307 2.789-3.85 24.314-7.939 46.614-21.666 64.826-40.314l30.154-30.882c16.113-16.492 37.41-24.881 58.798-25.09 21.388.208 42.685 8.598 58.798 25.09L4.093 21.283a160.03 160.03 0 0 0 64.826 40.314 4.05 4.05 0 0 1 2.789 3.85h0a4.06 4.06 0 0 1-4.057 4.057h-152.51-152.51a4.06 4.06 0 0 1-4.057-4.057z" class="X"/><path d="M-197.172 54.236l28.994-27.422 33.14-31.681.427-.405c27.92-26.274 71.584-26.274 99.504 0l.427.405 33.139 31.681 28.994 27.422c5.812 5.495 1.923 15.268-6.075 15.268H-84.86-191.098c-7.998 0-11.888-9.774-6.075-15.268z" fill="#bc3c2e"/><path d="M-176.512 56.428l23.238-21.978 27.212-26.014c7.108-6.791 15.401-11.584 24.181-14.39a55.97 55.97 0 0 1 34.044 0c8.78 2.807 17.073 7.599 24.181 14.39l27.212 26.014L6.794 56.428c4.978 4.706 1.646 13.076-5.204 13.076h-86.449-86.449c-6.85 0-10.182-8.37-5.204-13.076z" class="k"/><path d="M-181.171 60.832l27.896-26.381 27.212-26.014c7.109-6.791 15.401-11.584 24.181-14.39 11.057-3.534 22.986-3.534 34.044 0 8.78 2.807 17.073 7.599 24.181 14.39l27.212 26.014 27.896 26.381c3.302 3.121 1.092 8.672-3.452 8.672H-84.86h-92.859c-4.544 0-6.754-5.551-3.452-8.672z" class="Y"/><path d="M-173.603 57.61l23.026-21.777 26.139-24.988.335-.318c22.022-20.725 56.465-20.725 78.487 0l.335.318 26.139 24.988L3.884 57.61C8.412 61.891 5.382 69.504-.85 69.504h-84.01-84.01c-6.231 0-9.262-7.614-4.734-11.894z" class="Z"/><path d="M182.995 65.447h0c0-1.752 1.124-3.307 2.789-3.85 24.314-7.939 46.614-21.666 64.826-40.314l30.154-30.882c16.113-16.492 37.409-25.09 58.798-25.09h73.993c14.398 0 5.217 46.003 14.959 55.972a160.03 160.03 0 0 0 64.826 40.314 4.05 4.05 0 0 1 2.789 3.85h0a4.06 4.06 0 0 1-4.057 4.057h-152.51-152.51a4.06 4.06 0 0 1-4.057-4.057z" class="X"/><path d="M199.863 65.827h0a3.67 3.67 0 0 1 2.528-3.489c22.033-7.195 42.242-19.634 58.745-36.532l27.326-27.985c14.601-14.945 33.9-22.736 53.283-22.736h67.053c13.048 0 4.727 41.688 13.556 50.722 16.503 16.899 36.712 29.338 58.745 36.532a3.67 3.67 0 0 1 2.528 3.489h0a3.68 3.68 0 0 1-3.677 3.677H341.746 203.542a3.68 3.68 0 0 1-3.677-3.677z" class="Y"/><path d="M205.67 65.937h0a3.56 3.56 0 0 1 2.452-3.385 140.67 140.67 0 0 0 56.987-35.439L291.617-.035c14.164-14.498 32.885-22.056 51.688-22.056h65.046c12.657 0 4.586 40.44 13.15 49.204a140.67 140.67 0 0 0 56.987 35.439 3.56 3.56 0 0 1 2.452 3.385h0a3.57 3.57 0 0 1-3.567 3.567H343.305 209.237a3.57 3.57 0 0 1-3.567-3.567z" class="Z"/><g clip-path="url(#d)" class="d"><path d="M377.991-.345h62.257L427.125 13.14h-62.257L377.991-.345z"/><use href="#AW"/><use href="#AX"/><path d="M325.606 53.596h62.256l-13.123 13.486h-62.256l13.123-13.486zm124.541 0h62.256l-13.122 13.486h-62.257l13.123-13.486zm-249.25 0h62.256L250.03 67.082h-62.256l13.123-13.486z"/><path d="M400.985 40.111h62.257l-13.123 13.485h-62.257l13.123-13.485zm-26.217 26.971h62.256l-13.123 13.485h-62.256l13.123-13.485zm-124.542 0h62.257L299.36 80.567h-62.257l13.123-13.485zm26.05-26.971h62.257L325.41 53.596h-62.257l13.123-13.485z"/><path d="M227.27 26.626h62.257l-13.123 13.485h-62.256l13.122-13.485zM253.302-.345h62.256L302.435 13.14h-62.256L253.302-.345z"/></g><path d="M580.668 65.447h0c0-1.752-1.124-3.307-2.789-3.85-24.314-7.939-46.614-21.666-64.826-40.314L482.899-9.599c-16.113-16.492-37.41-24.881-58.798-25.09-21.388.208-42.685 8.598-58.798 25.09l-30.154 30.882a160.03 160.03 0 0 1-64.826 40.314 4.05 4.05 0 0 0-2.789 3.85h0a4.06 4.06 0 0 0 4.057 4.057h305.02a4.06 4.06 0 0 0 4.057-4.057z" class="X"/><path d="M536.413 54.236l-28.994-27.422-33.14-31.681-.427-.405c-27.92-26.274-71.584-26.274-99.504 0l-.427.405-33.14 31.681-28.994 27.422c-5.812 5.495-1.923 15.268 6.075 15.268H424.1h106.238c7.998 0 11.888-9.774 6.075-15.268z" fill="#bc3c2e"/><path d="M515.754 56.428L492.516 34.45 465.304 8.436c-7.108-6.791-15.401-11.584-24.181-14.39a55.97 55.97 0 0 0-34.044 0c-8.78 2.807-17.073 7.599-24.181 14.39L355.686 34.45l-23.238 21.978c-4.978 4.706-1.646 13.076 5.204 13.076h86.449 86.449c6.85 0 10.182-8.37 5.204-13.076z" class="k"/><path d="M520.412 60.832l-27.896-26.381-27.212-26.014c-7.109-6.791-15.401-11.584-24.181-14.39-11.057-3.534-22.986-3.534-34.044 0-8.78 2.807-17.073 7.599-24.181 14.39l-27.212 26.014-27.896 26.381c-3.302 3.121-1.092 8.672 3.452 8.672h92.859 92.859c4.544 0 6.754-5.551 3.452-8.672z" class="Y"/><path d="M512.844 57.61l-23.026-21.777-26.139-24.988-.335-.318c-22.022-20.725-56.465-20.725-78.487 0l-.335.318-26.139 24.988-23.026 21.777c-4.528 4.281-1.498 11.894 4.734 11.894h84.01 84.01c6.231 0 9.262-7.614 4.734-11.894z" class="Z"/><g clip-path="url(#e)"><path d="M406.976 44.426h34.003v25.116h-34.003z" fill="#071e2e"/><g class="d"><use href="#AY"/><path d="M440.979 44.426h68.006v14.683h-68.006zm68.393 14.297h68.006v14.683h-68.006zM340.128 30.129h32.844v14.297h-32.844zm134.854-14.297h32.844v14.297h-32.844zm-102.01 43.277h34.003v11.206h-34.003zm34.004-71.87h54.482v13.91h-54.482z"/></g></g><path d="M-56.763-80.901l8.086-7.797L46.93 10.458l-8.086 7.797z" class="e"/><path d="M-64.849-73.105l8.086-7.797 95.607 99.156-8.086 7.797z" class="E"/><use href="#AZ" class="e"/><path d="M388.349-87.693l7.89 7.996-98.043 96.748-7.89-7.996z" class="E"/><path d="M-64.277 63.443h0c0-2.617 1.679-4.94 4.167-5.752C-23.788 45.83 9.528 25.323 36.734-2.535L81.782-48.67c24.071-24.638 55.887-37.17 87.839-37.482 31.952.311 63.768 12.844 87.839 37.482l45.048 46.135c27.206 27.858 60.521 48.365 96.844 60.225 2.488.812 4.167 3.135 4.167 5.752h0c0 3.347-2.714 6.061-6.061 6.061H169.621-58.216c-3.347 0-6.061-2.714-6.061-6.061z" fill="#ee5d3f"/><path d="M1.835 46.695L45.15 5.729l49.508-47.328.638-.605c41.71-39.25 106.94-39.25 148.65 0l.638.605 49.508 47.328 43.315 40.965c8.683 8.208 2.873 22.809-9.076 22.809h-158.71-158.71c-11.949 0-17.759-14.601-9.076-22.809z" class="X"/><path d="M28.538 49.377l35.771-33.831 41.888-40.044c10.942-10.454 23.707-17.831 37.222-22.151 17.021-5.441 35.384-5.441 52.405 0 13.515 4.32 26.28 11.697 37.222 22.151l41.888 40.044 35.771 33.831c7.663 7.244 2.534 20.128-8.01 20.127H169.622 36.549c-10.545 0-15.673-12.884-8.01-20.127z" class="k"/><path d="M21.367 56.155l42.941-40.609 41.888-40.044c10.942-10.454 23.707-17.831 37.223-22.151a86.16 86.16 0 0 1 52.404 0c13.515 4.32 26.281 11.697 37.223 22.151l41.888 40.044 42.941 40.609c5.083 4.804 1.68 13.349-5.314 13.349h-142.94-142.94c-6.994 0-10.397-8.545-5.314-13.349z" class="Y"/><path d="M33.016 51.195l35.445-33.522 40.236-38.465.516-.49c33.899-31.902 86.917-31.902 120.816 0l.516.49 40.236 38.465 35.445 33.522c6.971 6.589 2.305 18.309-7.287 18.309H169.621 40.303c-9.592 0-14.257-11.72-7.287-18.309z" class="Z"/><g clip-path="url(#f)"><path d="M195.981 69.562h-52.342V30.901h52.342z" fill="#071e2e"/><g class="d"><path d="M248.323 8.894H143.64v-22.602h104.683zM143.64 53.503H38.957V30.901H143.64zM38.362 75.51H-66.321V52.908H38.362z"/><path d="M298.881 30.901h-50.557V8.894h50.557zM91.298 8.894H40.741v-22.007h50.557zm157.026 61.858h-52.342V53.503h52.342z"/></g></g><g clip-path="url(#g)"><g opacity=".25" fill="#7292c1"><path d="M711.609 143.925c-19.716 0-35.723 16.007-35.723 35.723s16.007 35.723 35.723 35.723 35.723-16.007 35.723-35.723-16.007-35.723-35.723-35.723z" class="C"/><circle cx="464.559" cy="163.324" r="19.427"/></g><g fill="#4f81c3"><path d="M535.795,143.925c19.716,0,35.723,16.007,35.723,35.723s-16.007,35.723-35.723,35.723-35.723-16.007-35.723-35.723,16.007-35.723,35.723-35.723Z" class="C"/><circle cx="823.384" cy="163.324" r="19.427"/><path d="M646.8 140.644h15.748v159.73H646.8z"/><g class="C"><path d="M672.879 137.363a.95.95 0 0 1 .672 1.623l-3.791 3.791a3.92 3.92 0 0 1-2.771 1.148h-25.365c-1.191 0-2.317-.541-3.06-1.471l-2.837-3.547a.95.95 0 0 1 .743-1.544h36.411z"/><path d="M644.957,134.859c0-1.665-1.35-3.015-3.015-3.015h-.001c-1.665,0-3.015,1.35-3.015,3.015v2.505h6.032v-2.505Z"/><use href="#Aa"/><path d="M655.143 132.099c0-.8-.318-1.567-.883-2.132a3.01 3.01 0 0 0-2.132-.883h-.001a3.02 3.02 0 0 0-2.132.883c-.565.565-.883 1.332-.883 2.132v5.265h6.032v-5.265z"/><use href="#Ab"/><path d="M665.329 132.099c0-.8-.318-1.567-.883-2.132a3.01 3.01 0 0 0-2.132-.883h0c-.8 0-1.567.318-2.132.883s-.883 1.332-.883 2.132v5.265h6.031v-5.265z"/><path d="M670.422,134.859c0-1.665-1.35-3.015-3.015-3.015h0c-1.665,0-3.015,1.35-3.015,3.015v2.505h6.031v-2.505Z"/></g></g></g><g class="C"><path d="M905.505 310.276H400.859l40.472-145.671L563.699 63.314h179.076L863.88 163.559l41.625 146.717z" fill="#97dbd9" class="D"/><g class="E"><path style="mix-blend-mode:overlay" d="M742.697 62.092l-89.835 92.605 211.312 11.875-121.477-104.48z" opacity=".4"/><path style="mix-blend-mode:overlay" d="M563.774 62.092l89.835 92.605-211.312 11.875 121.477-104.48z" opacity=".4"/><path d="M440.116 163.143L562.255 58.899l3.775 4.541-122.14 104.245-3.774-4.542zm425.078.2L742.821 58.899l-3.775 4.541L861.42 167.884l3.774-4.541z"/><path style="mix-blend-mode:hard-light" d="M653.236 141.484l-75.51-79.392h151.019l-75.509 79.392z" opacity=".4"/><path d="M779.367 290.363L565.344 60.405l-4.143 4.199 214.023 229.957 4.143-4.198z"/><path d="M527.103 290.465l213.324-229.25 4.143 4.199-213.324 229.25-4.143-4.199z"/></g></g><path d="M563.06 59.692h179.824v5.938H563.06z" class="E"/><g fill="#97dbd9"><ellipse cx="564.853" cy="63.314" rx="5.859" ry="5.938"/><ellipse cx="741.499" cy="63.314" rx="5.859" ry="5.938"/></g></g></svg>