<svg xmlns="http://www.w3.org/2000/svg" width="1500" height="145" xmlns:v="https://vecta.io/nano"><defs><clipPath id="A"><path d="M0 0h1500v145H0z" fill="none"/></clipPath><clipPath id="B"><path d="M659.078 250.42H631.43c-10.105 0-18.373-7.96-18.373-17.69V119.21h64.393v113.52c0 9.729-8.268 17.69-18.373 17.69z" fill="none"/></clipPath><clipPath id="C"><path d="M619.582 125.034h50.75v10.34h-50.75z" fill="none"/></clipPath><clipPath id="D"><path d="M1448.082 235.299h-27.648c-10.105 0-18.373-7.96-18.373-17.69v-113.52h64.393v113.52c0 9.729-8.268 17.69-18.373 17.69z" fill="none"/></clipPath><clipPath id="E"><path d="M1408.585 109.913h50.75v10.34h-50.75z" fill="none"/></clipPath><path id="F" d="M619.582 270.717V96.706c0-12.21 9.913-22.123 22.123-22.123h6.505c12.21 0 22.123 9.913 22.123 22.123v174.011c0 11.27-9.15 20.419-20.419 20.419h-9.912c-11.27 0-20.419-9.15-20.419-20.419z"/><path id="G" d="M670.332 127.519h-50.75a1.61 1.61 0 0 1-1.608-1.608 1.61 1.61 0 0 1 1.608-1.608h50.75a1.61 1.61 0 0 1 1.608 1.608 1.61 1.61 0 0 1-1.608 1.608z"/><path id="H" d="M670.331 128.8h-50.749c-2.636 0-4.781-2.143-4.781-4.779a4.79 4.79 0 0 1 4.781-4.782h50.749a4.79 4.79 0 0 1 4.781 4.782c0 2.636-2.145 4.779-4.781 4.779z"/><path id="I" d="M1016.986 74.568c0-1.054-.42-2.066-1.175-2.811-.739-.747-1.745-1.166-2.803-1.166h-45.109c-1.057 0-2.064.42-2.802 1.166-.755.745-1.175 1.757-1.175 2.811v.005a3.95 3.95 0 0 0 1.175 2.813 3.94 3.94 0 0 0 2.802 1.165h45.109c1.057 0 2.064-.42 2.803-1.165a3.95 3.95 0 0 0 1.175-2.813v-.005z"/><path id="J" d="M990.454 58.651a3.98 3.98 0 0 0-3.977-3.977h0c-2.199 0-3.977 1.782-3.977 3.977v17.247h7.955V58.651z"/><path id="K" d="M1014.334 66.611a3.95 3.95 0 0 0-1.175-2.813 3.94 3.94 0 0 0-2.803-1.165h-.017c-1.04 0-2.064.42-2.803 1.165a3.95 3.95 0 0 0-1.175 2.813v9.287h2.937c1.326 0 2.618-.53 3.558-1.475a5.05 5.05 0 0 0 1.477-3.559v-4.252z"/><path id="L" d="M253.607 37.561a3.98 3.98 0 0 0-3.977-3.977h0c-2.199 0-3.977 1.782-3.977 3.977v17.247h7.955V37.561z"/><path id="M" d="M1408.585 255.596V81.585c0-12.21 9.913-22.123 22.123-22.123h6.505c12.21 0 22.123 9.913 22.123 22.123v174.011c0 11.27-9.15 20.419-20.419 20.419h-9.912c-11.27 0-20.419-9.15-20.419-20.419z"/></defs><g clip-path="url(#A)"><path d="M-11.618-3801.127h1523.237v5153.382H-11.618z" fill="#04d5d8"/><path d="M881.245 490.825c-41.651 0-84.385-27.125-101.61-64.497-.533-1.156-1.755-1.965-2.971-1.965H-33.074l-4.116-238.479v-2108.088H220.6a127.35 127.35 0 0 1 78.961 27.557c22.556 17.938 38.384 43.268 44.57 71.323 3.204 14.528 16.339 25.073 31.234 25.073h152.318c17.632 0 31.977-14.345 31.977-31.977v-7.461c0-93.816 76.325-170.141 170.141-170.141h188.858c93.815 0 170.141 76.325 170.141 170.141 0 21.746 17.691 39.438 39.438 39.438h107.816a126.03 126.03 0 0 1 81.637 30.053c22.736 19.364 37.892 46.267 42.676 75.756 1.474 9.081 6.199 17.445 13.308 23.553 7.14 6.134 16.239 9.513 25.621 9.513h257.685V318.808h-347.973c-14.935 0-29.001 5.855-39.61 16.487s-16.432 24.712-16.398 39.649c.068 30.785-11.914 59.787-33.741 81.663-22.018 22.065-51.313 34.218-82.491 34.218H881.247z" fill="#7ee5e3"/><path d="M881.245 460.825c-30.031 0-62-20.229-74.365-47.055-5.434-11.789-17.294-19.407-30.216-19.407H442.665c-65.402 0-118.718-53.601-118.852-119.485-.132-65.613-53.623-118.993-119.239-118.993H-7.19v-2048.089H220.6c21.818 0 43.229 7.471 60.289 21.038 17.183 13.665 29.239 32.95 33.947 54.302 6.211 28.168 31.668 48.613 60.53 48.613h152.318c34.174 0 61.977-27.802 61.977-61.977v-7.461c0-77.274 62.867-140.141 140.141-140.141H918.66c77.273 0 140.141 62.867 140.141 140.141 0 38.288 31.149 69.438 69.438 69.438h107.816a96 96 0 0 1 62.186 22.893c17.322 14.753 28.869 35.252 32.515 57.721 2.604 16.051 10.902 30.79 23.368 41.502a69.36 69.36 0 0 0 45.173 16.76h227.685V288.808h-317.973c-22.96 0-44.569 8.984-60.847 25.297s-25.213 37.942-25.162 60.906c.051 22.76-8.82 44.213-24.979 60.407-16.348 16.384-38.102 25.407-61.254 25.407H881.246z" fill="#fceea3"/><path d="M881.244 430.825c-18.075 0-39.553-13.196-47.119-29.612-10.016-21.73-32.006-36.85-57.462-36.85H442.665c-49.251 0-88.752-40.294-88.852-89.545-.166-82.151-67.05-148.933-149.239-148.933H-47.26v-1988.089H220.6c31.082 0 58.247 21.448 64.94 51.8 9.09 41.22 45.913 72.153 89.826 72.153h152.318c50.797 0 91.977-41.179 91.977-91.977v-7.461c0-60.829 49.312-110.14 110.14-110.14H918.66c60.829 0 110.14 49.312 110.14 110.14h0c0 54.918 44.52 99.438 99.438 99.438h107.816c32.355 0 59.906 23.48 65.087 55.417 7.666 47.26 48.763 83.458 98.155 83.458h197.685V258.808h-287.973c-64.054 0-116.15 52.182-116.008 116.269.068 30.868-25.365 55.749-56.233 55.749H881.246z" fill="#f8d680"/><path d="M1687.368-545.03h-678.562c-39.92 0-72.282 32.362-72.282 72.282h0c0 39.92-32.362 72.282-72.282 72.282H512.996c-19.336 0-35.012 15.675-35.012 35.012h0c0 19.336-15.675 35.012-35.012 35.012h-70.813c-63.811 0-115.539 51.729-115.539 115.539v19.65c0 63.811 51.729 115.539 115.539 115.539h252.648c31.188 0 56.47 25.283 56.47 56.47h0c0 31.188 25.283 56.471 56.47 56.471h300.423c41.168 0 74.541 33.373 74.541 74.541h0c0 41.168 33.373 74.541 74.541 74.541h500.115v-727.34z" fill="#f0be5b"/><path d="M1677.383-545.03h-668.577c-39.92 0-72.282 32.362-72.282 72.282h0c0 39.92-32.362 72.282-72.282 72.282H512.996c-19.336 0-35.012 15.675-35.012 35.012s-15.675 35.012-35.012 35.012h-70.813c-63.811 0-115.539 51.729-115.539 115.54v19.65c0 63.811 51.729 115.54 115.539 115.54h252.648c31.188 0 56.47 25.283 56.47 56.47s25.283 56.47 56.47 56.47h300.423c41.168 0 74.541 33.373 74.541 74.541s33.373 74.541 74.541 74.541h495.123" fill="none" stroke="#f0be5b" stroke-dasharray="0 9.985" stroke-linecap="round" stroke-linejoin="round" stroke-width="10"/><g clip-path="url(#B)"><g opacity=".5"><use href="#F" fill="#4eb5bf"/></g><g opacity=".5"><use href="#F" fill="#4eb5bf"/></g><g style="mix-blend-mode:overlay" opacity=".15"><path d="M619.582,81.842v202.592c0,3.685,3.015,6.701,6.701,6.701h22.432s-3.631,0-3.631-4.222V78.804c0-4.222,3.631-4.222,3.631-4.222h-21.873c-3.993,0-7.26,3.267-7.26,7.26Z" fill="#fff"/></g><g style="mix-blend-mode:overlay" opacity=".5"><path d="M670.332,284.434V81.842c0-3.993-3.267-7.26-7.26-7.26h0s3.631,0,3.631,4.222v208.109c0,4.222-3.631,4.222-3.631,4.222h.559c3.685,0,6.701-3.015,6.701-6.701Z" fill="#233f6e"/></g><g style="mix-blend-mode:overlay" opacity=".25"><path d="M619.582,81.842v205.071c0,2.322,1.9,4.222,4.222,4.222h3.038s-3.631,0-3.631-4.222V78.804c0-4.222,3.631-4.222,3.631-4.222h0c-3.993,0-7.26,3.267-7.26,7.26Z" fill="#fff"/></g><g clip-path="url(#C)"><g style="mix-blend-mode:multiply"><use href="#G" fill="#e1e5f4"/></g></g><use href="#H" fill="#fff"/></g><g fill="#f2bb75"><circle cx="407.602" cy="91.936" r="2.597"/><circle cx="415.642" cy="98.218" r="2.597"/><circle cx="417.972" cy="90.284" r="2.597"/><circle cx="435.109" cy="106.721" r="2.597"/><circle cx="420.752" cy="116.785" r="2.597"/></g><path d="M844.091 112.833h7.758v121.952h-7.758z" fill="#dde6fd"/><g fill="#b8cefc"><path d="M832.753 117.182c-.992 0-1.985-.379-2.742-1.136l-20.732-20.732a3.88 3.88 0 0 1 0-5.485 3.88 3.88 0 0 1 5.485 0l20.732 20.732a3.88 3.88 0 0 1 0 5.485 3.87 3.87 0 0 1-2.743 1.136zm30.43 0a3.87 3.87 0 0 1-2.743-1.136 3.88 3.88 0 0 1 0-5.485l20.732-20.732a3.88 3.88 0 0 1 5.485 0 3.88 3.88 0 0 1 0 5.485l-20.732 20.732a3.87 3.87 0 0 1-2.742 1.136z"/></g><g fill="#dde6fd"><path d="M809.28 131.289l20.73-20.73 5.485 5.485-20.73 20.73zm51.164-15.24l5.485-5.486 20.732 20.728-5.485 5.486z"/></g><path d="M863.232 117.182h-30.479a3.88 3.88 0 0 1-3.879-3.879 3.88 3.88 0 0 1 3.879-3.879h30.479a3.88 3.88 0 0 1 3.879 3.879 3.88 3.88 0 0 1-3.879 3.879z" fill="#b8cefc"/><g opacity=".5"><rect x="832.703" y="94.515" width="30.53" height="37.572" rx="13.156" fill="#8bcbec"/></g><g fill="#b8cefc"><path d="M835.272 137.91c-.693 0-1.394-.186-2.027-.576-1.826-1.121-2.398-3.512-1.273-5.334l12.743-20.728a3.87 3.87 0 0 1 5.334-1.273c1.826 1.121 2.398 3.511 1.273 5.334l-12.743 20.728a3.87 3.87 0 0 1-3.307 1.849z"/><path d="M860.762 137.91c-1.303 0-2.576-.655-3.307-1.849l-12.743-20.728c-1.125-1.822-.553-4.212 1.273-5.334 1.818-1.125 4.212-.557 5.334 1.273L864.062 132c1.125 1.822.553 4.212-1.273 5.334a3.85 3.85 0 0 1-2.026.576z"/></g><g fill="#dde6fd"><path d="M848.023 117.182c-1.303 0-2.576-.655-3.307-1.849l-12.743-20.732c-1.125-1.826-.553-4.212 1.273-5.334 1.818-1.125 4.212-.557 5.334 1.273l12.743 20.732c1.125 1.826.553 4.212-1.273 5.334a3.85 3.85 0 0 1-2.027.576z"/><path d="M848.012 117.182c-.693 0-1.394-.186-2.027-.576-1.826-1.121-2.398-3.508-1.273-5.334l12.743-20.732a3.87 3.87 0 0 1 5.334-1.273c1.826 1.121 2.398 3.508 1.273 5.334l-12.743 20.732a3.87 3.87 0 0 1-3.307 1.849z"/></g><g fill="#fff"><path d="M819.298 146.857a3.83 3.83 0 0 1-1.727-.409c-9.959-4.97-16.993-14.645-18.819-25.88-1.803-11.076 1.78-22.043 9.83-30.092l9.595-9.595c1.515-1.516 3.97-1.516 5.485 0a3.88 3.88 0 0 1 0 5.485l-9.595 9.595c-6.356 6.356-9.076 14.652-7.659 23.361 1.428 8.78 6.898 16.327 14.626 20.186 1.917.955 2.697 3.284 1.739 5.201a3.88 3.88 0 0 1-3.474 2.148zm18.266 0c-1.254 0-2.481-.606-3.231-1.723-7.008-10.501-8.55-36.82-3.114-53.143l3.205-9.595a3.88 3.88 0 0 1 4.906-2.451c2.034.678 3.129 2.875 2.451 4.906l-3.201 9.595c-4.928 14.8-2.936 38.676 2.209 46.377 1.189 1.784.708 4.194-1.072 5.383-.663.439-1.413.652-2.151.652zm20.698 0c-.739 0-1.489-.212-2.152-.655-1.78-1.189-2.261-3.599-1.068-5.379 5.144-7.701 7.137-31.577 2.205-46.377l-3.197-9.595c-.678-2.034.42-4.231 2.451-4.906 2.049-.678 4.228.421 4.906 2.451l3.197 9.595c5.443 16.323 3.902 42.646-3.114 53.143a3.87 3.87 0 0 1-3.227 1.723zm18.376 0c-1.424 0-2.796-.784-3.474-2.148-.958-1.917-.178-4.246 1.739-5.201 7.728-3.86 13.198-11.406 14.626-20.186 1.417-8.709-1.303-17.005-7.66-23.361l-9.595-9.595a3.88 3.88 0 0 1 0-5.485c1.515-1.516 3.97-1.516 5.485 0l9.595 9.595c8.05 8.05 11.633 19.016 9.83 30.092-1.826 11.236-8.86 20.91-18.819 25.88-.557.276-1.148.409-1.727.409z"/></g><g fill-rule="evenodd"><path d="M1062.401 107.464a3.97 3.97 0 0 0-3.978-3.977h-29.185c-1.056 0-2.068.42-2.813 1.166a3.97 3.97 0 0 0-1.165 2.811v.005c0 1.056.418 2.066 1.165 2.813a3.98 3.98 0 0 0 2.813 1.165h29.185a3.98 3.98 0 0 0 2.813-1.165c.747-.747 1.165-1.757 1.165-2.813v-.005z" fill="#f2bb75"/><g fill="#a9c05a"><path d="M1035.872 99.506c0-1.056-.42-2.066-1.165-2.813s-1.759-1.165-2.813-1.165h-.005a3.98 3.98 0 0 0-2.811 1.165c-.747.747-1.166 1.757-1.166 2.813v4.252c0 1.336.53 2.616 1.475 3.559a5.04 5.04 0 0 0 3.559 1.475h2.925v-9.287zm15.918-5.307a3.98 3.98 0 0 0-3.977-3.977h-.005a3.98 3.98 0 0 0-3.977 3.977v14.593h7.96V94.199z"/><path d="M1043.83 94.199c0-2.197-1.78-3.977-3.977-3.977h-.003a3.98 3.98 0 0 0-3.977 3.977v14.593h7.958V94.199zm15.918 5.307c0-1.056-.418-2.066-1.165-2.813a3.98 3.98 0 0 0-2.813-1.165h-.003a3.98 3.98 0 0 0-2.813 1.165c-.745.747-1.165 1.757-1.165 2.813v9.287h2.923c1.336 0 2.616-.53 3.561-1.475a5.03 5.03 0 0 0 1.474-3.559v-4.252z"/></g><use href="#I" fill="#f2bb75"/><g fill="#a9c05a"><path d="M974.528 66.611c0-1.056-.403-2.066-1.158-2.813a3.98 3.98 0 0 0-2.819-1.165h0c-1.057 0-2.064.42-2.803 1.165a3.95 3.95 0 0 0-1.175 2.813v4.252a5.05 5.05 0 0 0 1.477 3.559c.94.945 2.232 1.475 3.558 1.475h2.92V66.61z"/><use href="#J"/><path d="M998.408 58.651a3.98 3.98 0 0 0-3.977-3.977h0c-2.199 0-3.977 1.782-3.977 3.977v17.247h7.955V58.651z"/><path d="M1006.363 61.304c0-2.197-1.779-3.977-3.977-3.977h0c-2.199 0-3.977 1.781-3.977 3.977v14.593h7.955V61.304zm-23.864 0c0-2.197-1.779-3.977-3.977-3.977h-.017a3.99 3.99 0 0 0-3.977 3.977v14.593h7.971V61.304z"/><use href="#K"/></g><path d="M280.138 53.478c0-1.054-.42-2.066-1.175-2.811-.739-.747-1.745-1.166-2.803-1.166h-45.109c-1.057 0-2.064.42-2.802 1.166-.755.745-1.175 1.757-1.175 2.811v.005a3.95 3.95 0 0 0 1.175 2.813 3.94 3.94 0 0 0 2.802 1.165h45.109c1.057 0 2.064-.42 2.803-1.165a3.95 3.95 0 0 0 1.175-2.813v-.005z" fill="#f2bb75"/><g fill="#a9c05a"><path d="M237.681 45.52c0-1.056-.403-2.066-1.158-2.813a3.98 3.98 0 0 0-2.819-1.165h0c-1.057 0-2.064.42-2.803 1.165a3.95 3.95 0 0 0-1.175 2.813v4.252a5.05 5.05 0 0 0 1.477 3.559c.94.945 2.232 1.475 3.558 1.475h2.92v-9.287z"/><use href="#L"/><path d="M261.561 37.561a3.98 3.98 0 0 0-3.977-3.977h0c-2.199 0-3.977 1.782-3.977 3.977v17.247h7.955V37.561z"/><path d="M269.516 40.214c0-2.197-1.779-3.977-3.977-3.977h0c-2.199 0-3.977 1.781-3.977 3.977v14.593h7.955V40.214zm-23.864 0c0-2.197-1.779-3.977-3.977-3.977h-.017a3.99 3.99 0 0 0-3.977 3.977v14.593h7.971V40.214z"/><path d="M277.487 45.52a3.95 3.95 0 0 0-1.175-2.813 3.94 3.94 0 0 0-2.803-1.165h-.017c-1.04 0-2.064.42-2.803 1.165a3.95 3.95 0 0 0-1.175 2.813v9.287h2.937c1.326 0 2.618-.53 3.558-1.475a5.05 5.05 0 0 0 1.477-3.559v-4.252z"/></g><path d="M1009.457 108.791a3.98 3.98 0 0 0-3.978-3.978h-45.103a3.98 3.98 0 0 0-3.978 3.978v.005a3.97 3.97 0 0 0 3.978 3.977h45.103c1.056 0 2.068-.42 2.813-1.166a3.97 3.97 0 0 0 1.165-2.811v-.005z" fill="#f2bb75"/><g fill="#a9c05a"><path d="M967.011 100.833a3.98 3.98 0 0 0-3.978-3.978h-.005a3.97 3.97 0 0 0-3.977 3.978v4.252a5.03 5.03 0 0 0 1.475 3.559c.945.945 2.225 1.475 3.559 1.475h2.925v-9.287zm15.917-7.96c0-2.197-1.78-3.977-3.977-3.977h-.005a3.98 3.98 0 0 0-3.977 3.977v17.247h7.96V92.873z"/><path d="M990.886 92.873c0-2.197-1.78-3.977-3.977-3.977h-.003a3.98 3.98 0 0 0-3.977 3.977v17.247h7.958V92.873z"/><path d="M998.846 95.526a3.98 3.98 0 0 0-3.977-3.977h-.005a3.98 3.98 0 0 0-3.977 3.977v14.593h7.96V95.526zm-23.877 0c0-2.197-1.78-3.977-3.977-3.977h-.003a3.98 3.98 0 0 0-3.977 3.977v14.593h7.958V95.526z"/><path d="M1006.804 100.833a3.97 3.97 0 0 0-3.978-3.978h-.003c-1.056 0-2.066.418-2.813 1.165a3.98 3.98 0 0 0-1.165 2.813v9.287h2.923c1.336 0 2.616-.53 3.561-1.475a5.04 5.04 0 0 0 1.473-3.559v-4.252z"/></g><path d="M933.804,72.837c0-1.39-1.124-2.517-2.517-2.517h-15.103c-1.393,0-2.517,1.128-2.517,2.517s1.124,2.517,2.517,2.517h15.103c1.393,0,2.517-1.126,2.517-2.517h0Z" fill="#f2bb75"/><g fill="#a9c05a"><path d="M923.852 55.22l.101.007.117.013.118.019.1.021.118.029.101.032.117.037.101.042.101.047.1.052.101.055.084.06.101.064.083.069.101.072.067.076.084.08.084.084.067.086.067.09.067.093.068.095.05.099.05.101.051.102.033.104.034.108.033.107.034.111.017.111.016.11.017.113.017.112v.113 12.714.114l-.017.112-.017.113-.016.11-.017.111-.034.109-.033.109-.034.106-.033.106-.051.102-.05.101-.05.099-.068.095-.067.093-.067.09-.067.086-.084.084-.084.079-.067.077-.101.072-.083.069-.101.064-.084.06-.101.056-.1.052-.101.047-.101.041-.117.037-.101.032-.118.029-.1.022-.118.018-.117.012-.101.008-.117.002-.118-.002-.117-.008-.101-.012-.117-.018-.118-.022-.101-.029-.117-.032-.101-.037-.1-.041-.101-.047-.101-.052-.1-.056-.101-.06-.084-.064-.101-.069-.084-.072-.084-.077-.084-.079-.067-.084-.067-.086-.084-.09-.05-.093-.067-.095-.05-.099-.051-.101-.05-.102-.051-.106-.033-.106-.034-.109-.016-.109-.034-.111-.017-.11-.017-.113v-.112-.114-12.714-.113-.112l.017-.113.017-.11.034-.111.016-.111.034-.107.033-.108.051-.104.05-.102.051-.101.05-.099.067-.095.05-.093.084-.09.067-.086.067-.084.084-.08.084-.076.084-.072.101-.069.084-.064.101-.06.1-.055.101-.052.101-.047.1-.042.101-.037.117-.032.101-.029.118-.021.117-.019.101-.013.117-.007.118-.003.117.003z"/><path d="M916.166 60.256l.084.005.084.01.101.012.084.015.084.019.083.021.084.024.084.027.084.03.084.033.067.036.084.038.084.042.067.044.084.045.067.051.067.052.067.053.067.056.068.058.067.062 7.686 7.68.05.062.067.065.051.067.05.071.067.07.034.073.05.075.05.076.034.077.05.079.034.08.033.082.017.083.034.084.033.084.017.085.017.086.017.087.016.086v.088.088l.017.087v.087l-.017.089v.087.088l-.016.087-.017.087-.017.086-.017.085-.033.084-.034.084-.017.082-.033.081-.034.081-.05.078-.034.079-.05.076-.05.074-.034.074-.067.07-.05.069-.051.067-.067.065-.05.064-.067.061-.067.058-.068.057-.067.054-.067.052-.084.049-.067.047-.084.043-.067.042-.084.039-.084.035-.084.034-.084.03-.067.027-.1.023-.084.022-.084.019-.084.015-.084.011-.084.011-.084.005-.1.003h-.084l-.084-.003-.084-.005-.101-.011-.084-.011-.084-.015-.084-.019-.084-.022-.083-.023-.084-.027-.084-.03-.084-.034-.084-.035-.067-.039-.084-.042-.084-.043-.067-.047-.067-.049-.084-.052-.067-.054-.067-.057-.068-.058-.05-.061-7.686-7.679-.067-.064-.05-.064-.051-.068-.067-.069-.05-.071-.051-.074-.05-.073-.034-.076-.05-.079-.033-.079-.034-.079-.033-.082-.034-.082-.017-.084-.033-.084-.017-.085-.017-.086-.017-.087-.017-.088v-.087l-.016-.087v-.087-.089-.088l.016-.087v-.087l.017-.087.017-.088.017-.085.017-.086.033-.084.017-.084.034-.082.033-.082.034-.079.033-.081.05-.077.034-.075.05-.074.051-.074.05-.07.067-.071.051-.067.05-.065.067-.063.067-.062.067-.058.067-.056.068-.053.067-.052.067-.051.084-.045.067-.044.084-.042.084-.038.067-.036.084-.033.084-.03.083-.027.084-.024.084-.021.084-.019.101-.015.084-.012.084-.01.084-.005.084-.003h.1l.084.003z"/><path d="M931.555 60.256l.101.005.084.01.084.012.083.015.084.019.084.021.084.024.084.027.084.03.084.033.084.036.084.038.067.042.084.044.067.045.084.051.067.052.067.053.067.056.067.058.067.062.051.063.067.065.05.067.051.071.05.07.05.074.051.074.05.075.034.077.05.081.034.079.033.082.017.082.033.084.017.084.034.086.016.085.017.088v.087l.017.087v.087l.017.088v.089l-.017.087v.087l-.017.087v.088l-.017.087-.016.086-.034.085-.017.084-.033.084-.017.082-.033.082-.034.079-.05.079-.034.079-.05.076-.051.073-.05.074-.05.071-.051.069-.05.068-.067.064-.051.064-7.686 7.679-.067.061-.067.058-.067.057-.067.054-.067.052-.067.049-.084.047-.067.043-.084.042-.084.039-.067.035-.084.034-.084.03-.084.027-.084.023-.084.022-.084.019-.101.015-.083.011-.084.011-.084.005-.084.003h-.101l-.084-.003-.084-.005-.084-.011-.084-.011-.1-.015-.084-.019-.084-.022-.084-.023-.084-.027-.084-.03-.084-.034-.067-.035-.084-.039-.084-.042-.067-.043-.084-.047-.067-.049-.067-.052-.067-.054-.067-.057-.067-.058-.067-.061-.068-.064-.05-.065-.067-.067-.05-.069-.051-.07-.05-.074-.05-.074-.034-.076-.05-.079-.034-.078-.033-.081-.034-.081-.034-.082-.016-.084-.034-.084-.017-.085-.016-.086-.017-.087-.017-.087v-.088l-.017-.087v-.089-.087-.087l.017-.088v-.088l.017-.086.017-.087.016-.086.017-.085.034-.084.016-.084.034-.083.034-.082.033-.08.034-.079.05-.077.034-.076.05-.075.05-.073.051-.07.05-.071.067-.067.05-.065.068-.062 7.669-7.68.067-.062.067-.058.067-.056.067-.053.084-.052.067-.051.068-.045.083-.044.068-.042.084-.038.083-.036.084-.033.084-.03.084-.027.084-.024.084-.021.084-.019.084-.015.084-.012.084-.01.1-.005.084-.003h.084l.084.003z"/></g><path d="M1257.728,36.522c0-1.39-1.124-2.517-2.517-2.517h-15.103c-1.393,0-2.517,1.128-2.517,2.517s1.124,2.517,2.517,2.517h15.103c1.393,0,2.517-1.126,2.517-2.517h0Z" fill="#e59a63"/><path d="M1257.862 26.322v-.087l-.017-.088v-.087l-.017-.087-.016-.086-.034-.085-.017-.084-.033-.084-.017-.082-.034-.083-.033-.078-.051-.081-.033-.077-.051-.076-.05-.074-.05-.073-.051-.071-.05-.07-.05-.067-.067-.066-.051-.062-.067-.062-.067-.059-.067-.055-.067-.054-.067-.052-.084-.05-.067-.046-.084-.043-.068-.042-.083-.039-.084-.035-.084-.033-.084-.031-.084-.027-.084-.023-.084-.022-.084-.018-.084-.015-.084-.012-.083-.01-.101-.005-.084-.004h-.084l-.084.004-.101.005-.084.01-.083.012-.084.015-.084.018-.084.022-.084.023-.084.027-.084.031-.084.033-.084.035-.084.039-.067.042-.084.043-.067.046-.067.05-.084.052-.067.054-.067.055-.067.059-.067.062-3.39 3.394v-6.65-.112l-.017-.113-.017-.112-.017-.111-.016-.11-.034-.111-.033-.108-.034-.107-.034-.104-.05-.102-.05-.101-.051-.099-.067-.096-.067-.092-.067-.091-.067-.085-.084-.084-.084-.081-.067-.075-.101-.072-.084-.069-.1-.064-.084-.06-.101-.056-.101-.052-.1-.047-.101-.042-.118-.037-.1-.032-.118-.028-.1-.022-.118-.018-.117-.014-.101-.006-.117-.004-.118.004-.117.006-.101.014-.118.018-.117.022-.101.028-.117.032-.101.037-.101.042-.1.047-.101.052-.101.056-.1.06-.084.064-.101.069-.084.072-.084.075-.084.081-.067.084-.067.085-.084.091-.05.092-.067.096-.051.099-.05.101-.05.102-.051.104-.033.107-.034.108-.017.111-.033.11-.017.111-.017.112v.113.112 6.66l-3.406-3.404-.068-.062-.067-.059-.067-.055-.067-.054-.067-.052-.067-.05-.084-.046-.067-.043-.084-.042-.084-.039-.067-.035-.084-.033-.084-.031-.084-.027-.084-.023-.084-.022-.083-.018-.084-.015-.101-.012-.084-.01-.084-.005-.084-.004h-.1l-.084.004-.084.005-.084.01-.084.012-.101.015-.084.018-.084.022-.084.023-.083.027-.084.031-.084.033-.068.035-.083.039-.084.042-.067.043-.084.046-.068.05-.067.052-.067.054-.067.055-.067.059-.067.062-.067.062-.051.066-.05.067-.067.07-.05.071-.051.073-.05.074-.034.076-.05.077-.034.081-.033.078-.034.083-.033.082-.017.084-.034.084-.016.085-.017.086-.017.087-.017.087v.088l-.017.087v.087.089.087l.017.088v.087l.017.087.017.088.017.085.016.086.034.084.017.083.033.083.034.082.033.079.034.079.05.079.034.075.05.074.051.074.05.07.067.069.05.069.051.064.067.063 7.686 7.68.05.06.067.059.068.057.067.054.084.052.067.048.067.047.084.044.084.042.067.039.084.035.084.033.084.031.083.027.084.023.084.022.084.018.084.015.084.012.101.01.084.005.021.001.012.001h.017l.033.001h.034.05.051l.033-.001h.017l.01-.001.024-.001.084-.005.084-.01.083-.012.101-.015.084-.018.084-.022.084-.023.084-.027.084-.031.084-.033.067-.035.084-.039.083-.042.068-.044.083-.047.068-.048.067-.052.067-.054.067-.057.067-.059.067-.06 7.686-7.68.051-.063.067-.064.05-.069.05-.069.051-.07.05-.074.05-.074.051-.075.033-.079.051-.079.033-.079.034-.082.017-.083.033-.083.017-.084.034-.086.016-.085.017-.088v-.087l.017-.087v-.088l.017-.087v-.089l-.017-.087z" fill="#90a82d"/><path d="M1362.736,116.974c0-1.39-1.124-2.517-2.517-2.517h-15.103c-1.393,0-2.517,1.128-2.517,2.517s1.124,2.517,2.517,2.517h15.103c1.393,0,2.517-1.126,2.517-2.517h0Z" fill="#e59a63"/><path d="M1362.871 106.774v-.088l-.017-.087v-.087l-.017-.088-.017-.085-.033-.086-.017-.084-.034-.083-.017-.083-.033-.082-.034-.079-.05-.08-.034-.078-.05-.075-.05-.074-.051-.074-.05-.07-.05-.071-.051-.067-.067-.065-.05-.062-.067-.063-.067-.058-.068-.056-.067-.053-.067-.052-.084-.051-.067-.045-.084-.043-.067-.042-.084-.039-.084-.035-.084-.034-.083-.03-.084-.027-.084-.023-.084-.022-.084-.019-.084-.015-.084-.012-.084-.01-.1-.005-.085-.003h-.083l-.084.003-.101.005-.084.01-.084.012-.084.015-.084.019-.083.022-.084.023-.084.027-.084.03-.084.034-.084.035-.084.039-.067.042-.084.043-.067.045-.067.051-.084.052-.067.053-.067.056-.067.058-.068.063-3.39 3.394v-6.65-.113l-.016-.112-.017-.112-.017-.111-.017-.111-.033-.111-.034-.107-.033-.107-.034-.104-.05-.103-.051-.1-.05-.099-.067-.096-.067-.092-.067-.091-.067-.086-.084-.084-.084-.08-.067-.076-.101-.072-.084-.069-.101-.063-.084-.061-.1-.055-.101-.052-.101-.047-.1-.042-.118-.037-.101-.032-.117-.029-.101-.021-.117-.019-.118-.013-.1-.007-.118-.003-.117.003-.118.007-.1.013-.118.019-.117.021-.101.029-.117.032-.101.037-.101.042-.101.047-.1.052-.101.055-.101.061-.083.063-.101.069-.084.072-.084.076-.084.08-.067.084-.067.086-.084.091-.05.092-.068.096-.05.099-.05.1-.051.103-.05.104-.034.107-.033.107-.017.111-.034.111-.016.111-.017.112v.112.113 6.659l-3.407-3.403-.067-.063-.067-.058-.067-.056-.067-.053-.067-.052-.068-.051-.083-.045-.068-.043-.083-.042-.084-.039-.067-.035-.084-.034-.084-.03-.084-.027-.084-.023-.084-.022-.084-.019-.084-.015-.101-.012-.084-.01-.083-.005-.084-.003h-.101l-.084.003-.084.005-.084.01-.084.012-.1.015-.084.019-.084.022-.084.023-.084.027-.084.03-.084.034-.067.035-.084.039-.084.042-.067.043-.084.045-.067.051-.067.052-.067.053-.067.056-.067.058-.067.063-.068.062-.05.065-.05.067-.067.071-.051.07-.05.074-.05.074-.034.075-.05.078-.034.08-.033.079-.034.082-.034.083-.016.083-.034.084-.017.086-.016.085-.017.088-.017.087v.087l-.017.088v.087.089.087l.017.087v.088l.017.087.017.087.016.086.017.085.034.084.016.084.034.082.034.083.033.078.034.079.05.079.034.076.05.074.05.074.051.07.067.069.05.069.05.063.068.064 7.686 7.679.05.061.067.059.067.056.067.054.084.052.067.049.067.047.084.044.084.042.067.038.084.035.084.034.084.03.084.027.084.024.084.021.084.019.084.015.084.012.1.01.084.005.021.001.013.001h.017l.033.001h.034.05.05l.033-.001h.018l.009-.001.024-.001.084-.005.084-.01.084-.012.101-.015.083-.019.084-.021.084-.024.084-.027.084-.03.084-.034.067-.035.084-.038.084-.042.067-.044.084-.047.067-.049.067-.052.068-.054.067-.056.067-.059.067-.061 7.686-7.679.05-.064.067-.063.051-.069.05-.069.05-.07.051-.074.05-.074.05-.076.034-.079.05-.079.034-.078.033-.083.017-.082.034-.084.017-.084.033-.085.017-.086.017-.087v-.087l.017-.088v-.087l.016-.087v-.089l-.016-.087z" fill="#90a82d"/><path d="M1092.856 157.841a7.76 7.76 0 0 1-8.763-7.69v-13.704c0-4.309 3.494-7.803 7.803-7.803h15.606c4.309 0 7.803 3.494 7.803 7.803v13.706c0 2.056-.817 4.029-2.271 5.483-1.674 1.673-4.033 2.503-6.418 2.214l-13.759-.01z" fill="#e79c43"/><path d="M1099.699 142.305a3.9 3.9 0 0 1 3.902-3.901c1.035 0 2.027.411 2.759 1.142a3.9 3.9 0 0 1 1.143 2.759v17.551h-7.803v-17.551z" fill="#e38d32"/></g><g clip-path="url(#D)"><g opacity=".5"><use href="#M" fill="#4eb5bf"/></g><g opacity=".5"><use href="#M" fill="#4eb5bf"/></g><g opacity=".15"><path d="M1408.585,66.722v202.592c0,3.685,3.015,6.701,6.701,6.701h22.432s-3.631,0-3.631-4.222V63.684c0-4.222,3.631-4.222,3.631-4.222h-21.873c-3.993,0-7.26,3.267-7.26,7.26Z" fill="#fff"/></g><g opacity=".2"><path d="M1459.336,269.314V66.722c0-3.993-3.267-7.26-7.26-7.26h0s3.631,0,3.631,4.222v208.109c0,4.222-3.631,4.222-3.631,4.222h.559c3.685,0,6.701-3.015,6.701-6.701Z" fill="#233f6e"/></g><g style="mix-blend-mode:overlay" opacity=".25"><path d="M1408.585,66.722v205.071c0,2.322,1.9,4.222,4.222,4.222h3.038s-3.631,0-3.631-4.222V63.684c0-4.222,3.631-4.222,3.631-4.222h0c-3.993,0-7.26,3.267-7.26,7.26Z" fill="#fff"/></g><g clip-path="url(#E)"><g style="mix-blend-mode:multiply"><path d="M1459.336 112.398h-50.75a1.61 1.61 0 0 1-1.608-1.608 1.61 1.61 0 0 1 1.608-1.608h50.75a1.61 1.61 0 0 1 1.608 1.608 1.61 1.61 0 0 1-1.608 1.608z" fill="#e1e5f4"/></g></g><path d="M1459.335 113.679h-50.749c-2.636 0-4.781-2.143-4.781-4.779a4.79 4.79 0 0 1 4.781-4.782h50.749a4.79 4.79 0 0 1 4.781 4.782c0 2.636-2.145 4.779-4.781 4.779z" fill="#fff"/></g><g opacity=".55" fill="#d59660"><circle cx="1160.744" cy="39.001" r="2.597"/><circle cx="1170.73" cy="36.904" r="2.597"/><circle cx="1166.166" cy="30.008" r="2.597"/><circle cx="1189.78" cy="27.505" r="2.597"/><circle cx="1188.217" cy="44.968" r="2.597"/></g></g></svg>