<svg xmlns="http://www.w3.org/2000/svg" width="1500" height="145" xmlns:v="https://vecta.io/nano"><style><![CDATA[.B{fill-rule:evenodd}.C{fill:none}.D{fill:#869d33}.E{opacity:.5}.F{fill:#a9c05a}.G{fill:#507944}.H{clip-rule:evenodd}.I{stroke-linecap:round}.J{fill:#bfcd53}.K{opacity:.75}.L{stroke-linejoin:round}.M{fill:#dca646}.N{stroke:#f0be5b}.O{stroke-width:10}.P{fill:#adbd3e}.Q{fill:#f0be5b}.R{fill:#f2bb75}.S{fill:#54bebb}.T{stroke-dasharray:0 10}.U{fill:#684b48}.V{stroke-miterlimit:10}]]></style><defs><clipPath id="A"><path d="M0 0h1500v145H0z" class="C"/></clipPath><clipPath id="B"><path d="M-59.616-850.443h503.815c28.921 0 52.366 23.445 52.366 52.366h0c0 28.921 23.445 52.366 52.366 52.366H708.6c33.349 0 60.383 27.034 60.383 60.383h0c0 33.349 27.034 60.383 60.383 60.383h48.709c39.629 0 71.754 32.125 71.754 71.754v26.062c0 39.629-32.125 71.754-71.754 71.754h-311.56c-21.993 0-39.823-17.829-39.823-39.823h0c0-21.994-17.829-39.823-39.823-39.823H252.034a19.53 19.53 0 0 1-19.526-19.526h0a19.53 19.53 0 0 0-19.526-19.526H-59.616a19.53 19.53 0 0 1-19.526-19.526v-237.317a19.53 19.53 0 0 1 19.526-19.526z" class="C"/></clipPath><clipPath id="C"><path d="M1275.389-57.005l61.625,61.625c8.172,8.172,19.256,12.763,30.812,12.763h25.526c24.066,0,43.575,19.509,43.575,43.575h0c0,24.066-19.509,43.575-43.575,43.575h-251.166c-33.01,0-63.187-18.65-77.95-48.176h0c-28.973-57.947,13.164-126.126,77.95-126.126h102.39c11.557,0,22.64,4.591,30.812,12.763Z" class="C"/></clipPath><clipPath id="D"><path d="M1189.76 72.389h-19.544l-5.296 48.37a4.53 4.53 0 0 0 4.503 5.023h21.227a4.53 4.53 0 0 0 4.502-5.031l-5.391-48.361z" class="C"/></clipPath><clipPath id="E"><path d="M1180.037 70.632c0 6.916 2.747 13.551 7.639 18.443s11.527 7.639 18.447 7.639h26.236V79.471c0-6.919-2.747-13.555-7.639-18.447a26.1 26.1 0 0 0-18.447-7.639h-26.236v17.246z" class="C H"/></clipPath><clipPath id="F"><path d="M1180.037 70.632c0 6.916-2.747 13.551-7.639 18.443s-11.527 7.639-18.447 7.639h-26.236V79.471c0-6.919 2.747-13.555 7.639-18.447a26.1 26.1 0 0 1 18.447-7.639h26.236v17.246z" class="C H"/></clipPath><clipPath id="G"><path d="M1180.051 96.714l-15.671-11.42c-8.655-6.308-9.634-18.854-2.061-26.427l5.482-5.482h24.499l5.482 5.482c7.573 7.573 6.595 20.119-2.061 26.427l-15.671 11.42z" class="C H"/></clipPath><clipPath id="H"><path d="M1444.672 114.128c1.297 0 2.528-.571 3.366-1.562s1.197-2.299.981-3.578l-10.987-65.26c-.433-2.57-2.657-4.448-5.264-4.448h-17.772a5.34 5.34 0 0 0-5.242 4.326l-8.984 46.5-16.312 4.661c-1.505.43-2.742 1.49-3.389 2.915l-9.496 20.892a4.41 4.41 0 0 0 4.013 6.233h32.515c2.143 0 4.198-.851 5.713-2.367l5.944-5.944a8.08 8.08 0 0 1 5.713-2.367h19.201z" class="C H"/></clipPath><clipPath id="I"><path d="M638.277 110.854h-19.544l-5.296 48.37a4.53 4.53 0 0 0 4.503 5.023h21.227a4.53 4.53 0 0 0 4.502-5.031l-5.391-48.361z" class="C"/></clipPath><clipPath id="J"><path d="M628.553 109.096c0 6.916 2.747 13.551 7.639 18.443s11.527 7.639 18.447 7.639h26.236v-17.243c0-6.919-2.747-13.555-7.639-18.447a26.1 26.1 0 0 0-18.447-7.639h-26.236v17.246z" class="C H"/></clipPath><clipPath id="K"><path d="M628.553 109.096c0 6.916-2.747 13.551-7.639 18.443s-11.527 7.639-18.447 7.639h-26.236v-17.243c0-6.919 2.747-13.555 7.639-18.447a26.1 26.1 0 0 1 18.447-7.639h26.236v17.246z" class="C H"/></clipPath><clipPath id="L"><path d="M628.568 135.179l-15.671-11.42c-8.655-6.308-9.634-18.854-2.061-26.427l5.482-5.482h24.499l5.482 5.482c7.573 7.573 6.595 20.119-2.061 26.427l-15.671 11.42z" class="C H"/></clipPath><clipPath id="M"><path d="M523.006,67.028l-44.585,44.585c-5.912,5.912-13.931,9.234-22.292,9.234h-18.468c-17.411,0-31.526,14.115-31.526,31.526h0c0,17.411,14.115,31.526,31.526,31.526h181.714c23.882,0,45.715-13.493,56.395-34.854h0c20.962-41.924-9.524-91.25-56.395-91.25h-74.078c-8.361,0-16.38,3.321-22.292,9.234Z" class="C"/></clipPath><path id="N" d="M473.604.726h-26.219a3.48 3.48 0 0 1-3.477-3.477V-14.17a3.48 3.48 0 0 1 3.477-3.477h29.696a3.48 3.48 0 0 1 3.477 3.477v7.942a6.96 6.96 0 0 1-6.953 6.953z"/><path id="O" d="M147.201.726h-26.219a6.96 6.96 0 0 1-6.953-6.953v-7.943a3.48 3.48 0 0 1 3.477-3.477h29.696a3.48 3.48 0 0 1 3.477 3.477v11.419a3.48 3.48 0 0 1-3.477 3.477z"/><path id="P" d="M473.604 110.97h-26.219a3.48 3.48 0 0 1-3.477-3.477V96.074a3.48 3.48 0 0 1 3.477-3.477h29.696a3.48 3.48 0 0 1 3.477 3.477v7.942a6.96 6.96 0 0 1-6.953 6.953z"/><path id="Q" d="M147.201 110.97h-26.219a6.96 6.96 0 0 1-6.953-6.953v-7.942a3.48 3.48 0 0 1 3.477-3.477h29.696a3.48 3.48 0 0 1 3.477 3.477v11.419a3.48 3.48 0 0 1-3.477 3.477z"/><path id="R" d="M249.683 14.685c.1-.367-.071-.757-.4-.948s-.743-.137-1.014.133l-4.9 4.902-2.714-8.811c-.114-.357-.443-.601-.814-.603a.87.87 0 0 0-.828.597l-2.786 8.816-4.899-4.902c-.271-.27-.686-.324-1.028-.133a.84.84 0 0 0-.386.948l1.757 6.458c1 3.661 4.328 6.199 8.128 6.199h0c3.8 0 7.114-2.538 8.114-6.199l1.771-6.458z"/><path id="S" d="M1275.389-57.005l61.625,61.625c8.172,8.172,19.256,12.763,30.812,12.763h25.526c24.066,0,43.575,19.509,43.575,43.575h0c0,24.066-19.509,43.575-43.575,43.575h-251.166c-33.01,0-63.187-18.65-77.95-48.176h0c-28.973-57.947,13.164-126.126,77.95-126.126h102.39c11.557,0,22.64,4.591,30.812,12.763Z"/><path id="T" d="M1189.76 72.389h-19.544l-5.296 48.37a4.53 4.53 0 0 0 4.503 5.023h21.227a4.53 4.53 0 0 0 4.502-5.031l-5.391-48.361z"/><path id="U" d="M1180.051 107.354l-15.977-11.643c-8.825-6.431-9.822-19.222-2.101-26.943l5.589-5.589h24.977l5.589 5.589c7.721 7.721 6.724 20.512-2.101 26.943l-15.977 11.643z"/><path id="V" d="M1177.97 55.925l4.134-5.066 52.328 42.7-4.134 5.066z"/><path id="W" d="M1232.358 78.382v-6.194h-9.984a3.1 3.1 0 0 0-2.191.909c-.579.579-.906 1.367-.906 2.188h0c0 .824.327 1.609.906 2.191s1.37.906 2.191.906h9.984z"/><path id="X" d="M1125.648 93.561l52.322-42.708 4.135 5.066-52.322 42.708z"/><path id="Y" d="M1127.715 78.728v-6.54h9.814c.867 0 1.697.343 2.309.958a3.25 3.25 0 0 1 .958 2.309v.007c0 .867-.343 1.697-.958 2.312s-1.442.955-2.309.955h-9.814z"/><path id="Z" d="M1127.715 65.648v-6.54h19.62c.867 0 1.7.347 2.312.958s.958 1.445.958 2.312a3.26 3.26 0 0 1-3.27 3.27h-19.62z"/><path id="a" d="M1180.051 96.714l-15.671-11.42c-8.655-6.308-9.634-18.854-2.061-26.427l5.482-5.482h24.499l5.482 5.482c7.573 7.573 6.595 20.119-2.061 26.427l-15.671 11.42z"/><path id="b" d="M1156.85 77.277a3.27 3.27 0 0 1-2.738-1.475c-.992-1.512-.571-3.538.941-4.528l13.293-8.72c1.512-.996 3.538-.566 4.526.939.992 1.512.571 3.538-.941 4.528l-13.293 8.72c-.554.364-1.175.536-1.788.536z"/><path id="c" d="M1203.223 77.277a3.24 3.24 0 0 1-1.788-.536l-13.289-8.72a3.27 3.27 0 0 1-.941-4.528c.988-1.505 3.002-1.937 4.526-.939l13.289 8.72a3.27 3.27 0 0 1 .941 4.528c-.626.956-1.673 1.475-2.738 1.475z"/><path id="d" d="M743.564 94.267c0-2.023-1.64-3.666-3.666-3.666h0c-2.027 0-3.666 1.643-3.666 3.666v15.897h7.332V94.267z"/><path id="e" d="M523.006,67.028l-44.585,44.585c-5.912,5.912-13.931,9.234-22.292,9.234h-18.468c-17.411,0-31.526,14.115-31.526,31.526h0c0,17.411,14.115,31.526,31.526,31.526h181.714c23.882,0,45.715-13.493,56.395-34.854h0c20.962-41.924-9.524-91.25-56.395-91.25h-74.078c-8.361,0-16.38,3.321-22.292,9.234Z"/></defs><g clip-path="url(#A)"><path d="M-11.618-3366.127h1523.237v5153.382H-11.618z" fill="#04d5d8"/><path d="M881.245 925.825c-41.651 0-84.385-27.125-101.61-64.497-.533-1.156-1.755-1.965-2.971-1.965H-33.074l-4.116-238.479v-2108.088H220.6a127.35 127.35 0 0 1 78.961 27.557c22.556 17.938 38.384 43.268 44.57 71.323 3.204 14.528 16.339 25.073 31.234 25.073h152.318c17.632 0 31.977-14.345 31.977-31.977v-7.461c0-93.816 76.325-170.141 170.141-170.141h188.858c93.815 0 170.141 76.325 170.141 170.141 0 21.746 17.691 39.438 39.438 39.438h107.816a126.03 126.03 0 0 1 81.637 30.053c22.736 19.364 37.892 46.267 42.676 75.756 1.474 9.081 6.199 17.445 13.308 23.553 7.14 6.134 16.239 9.513 25.621 9.513h257.685V753.808h-347.973c-14.935 0-29.001 5.855-39.61 16.487s-16.432 24.712-16.398 39.649c.068 30.785-11.914 59.787-33.741 81.663-22.018 22.065-51.313 34.218-82.491 34.218H881.247z" fill="#7ee5e3"/><path d="M881.245 895.825c-30.031 0-62-20.229-74.365-47.055-5.434-11.789-17.294-19.407-30.216-19.407H442.665c-65.402 0-118.718-53.601-118.852-119.485-.132-65.613-53.623-118.993-119.239-118.993H-7.19v-2048.089H220.6c21.818 0 43.229 7.471 60.289 21.038 17.183 13.665 29.239 32.95 33.947 54.302 6.211 28.168 31.668 48.613 60.53 48.613h152.318c34.174 0 61.977-27.802 61.977-61.977v-7.461c0-77.274 62.867-140.141 140.141-140.141H918.66c77.273 0 140.141 62.867 140.141 140.141 0 38.288 31.149 69.438 69.438 69.438h107.816a96 96 0 0 1 62.186 22.893c17.322 14.753 28.869 35.252 32.515 57.721 2.604 16.051 10.902 30.79 23.368 41.502a69.36 69.36 0 0 0 45.173 16.76h227.685V723.808h-317.973c-22.96 0-44.569 8.984-60.847 25.297s-25.213 37.942-25.162 60.906c.051 22.76-8.82 44.213-24.979 60.407-16.348 16.384-38.102 25.407-61.254 25.407H881.246z" fill="#fceea3"/><path d="M881.244 865.825c-18.075 0-39.553-13.196-47.119-29.612-10.016-21.73-32.006-36.85-57.462-36.85H442.665c-49.251 0-88.752-40.294-88.852-89.545-.166-82.151-67.05-148.933-149.239-148.933H-47.26v-1988.089H220.6c31.082 0 58.247 21.448 64.94 51.8 9.09 41.22 45.913 72.153 89.826 72.153h152.318c50.797 0 91.977-41.179 91.977-91.977v-7.461c0-60.829 49.312-110.14 110.14-110.14H918.66c60.829 0 110.14 49.312 110.14 110.14h0c0 54.918 44.52 99.438 99.438 99.438h107.816c32.355 0 59.906 23.48 65.087 55.417 7.666 47.26 48.763 83.458 98.155 83.458h197.685V693.808h-287.973c-64.054 0-116.15 52.182-116.008 116.269.068 30.868-25.365 55.749-56.233 55.749H881.246z" fill="#f8d680"/><path d="M1687.368-110.03h-678.562c-39.92 0-72.282 32.362-72.282 72.282h0c0 39.92-32.362 72.282-72.282 72.282H512.996c-19.336 0-35.012 15.675-35.012 35.012h0c0 19.336-15.675 35.012-35.012 35.012h-70.813c-63.811 0-115.539 51.729-115.539 115.539v19.65c0 63.811 51.729 115.539 115.539 115.539h252.648c31.188 0 56.47 25.283 56.47 56.47h0c0 31.188 25.283 56.471 56.47 56.471h300.423c41.168 0 74.541 33.373 74.541 74.541h0c0 41.168 33.373 74.541 74.541 74.541h500.115V-110.03z" class="Q"/><path d="M1677.383-110.03h-668.577c-39.92 0-72.282 32.362-72.282 72.282h0c0 39.92-32.362 72.282-72.282 72.282H512.996c-19.336 0-35.012 15.675-35.012 35.012s-15.675 35.012-35.012 35.012h-70.813c-63.811 0-115.539 51.729-115.539 115.54v19.65c0 63.811 51.729 115.54 115.539 115.54h252.648c31.188 0 56.47 25.283 56.47 56.47s25.283 56.47 56.47 56.47h300.423c41.168 0 74.541 33.373 74.541 74.541s33.373 74.541 74.541 74.541h495.123" stroke-dasharray="0 9.985" class="C I L N O"/><g clip-path="url(#B)" class="C L"><g opacity=".4" stroke="#a0ccc7" stroke-width="2.684"><path d="M107.014.726H80.795a3.48 3.48 0 0 1-3.477-3.477V-14.17a3.48 3.48 0 0 1 3.477-3.477h29.696a3.48 3.48 0 0 1 3.477 3.477v7.942a6.96 6.96 0 0 1-6.953 6.953z"/><rect x="40.668" y="-17.647" width="36.649" height="18.372" rx="3.477" transform="matrix(-1 0 0 -1 117.985 -16.921)"/><rect x="3.982" y="-17.647" width="36.649" height="18.372" rx="3.477" transform="matrix(-1 0 0 -1 44.612 -16.921)"/><rect x="-32.668" y="-17.647" width="36.649" height="18.372" rx="3.477" transform="matrix(-1 0 0 -1 -28.686 -16.921)"/><use href="#N"/><rect x="407.259" y="-17.647" width="36.649" height="18.372" rx="3.477" transform="matrix(-1 0 0 -1 851.168 -16.921)"/><rect x="370.573" y="-17.647" width="36.649" height="18.372" rx="3.477" transform="matrix(-1 0 0 -1 777.795 -16.921)"/><rect x="333.924" y="-17.647" width="36.649" height="18.372" rx="3.477" transform="matrix(-1 0 0 -1 704.496 -16.921)"/><rect x="297.269" y="-17.647" width="36.649" height="18.372" rx="3.477" transform="matrix(-1 0 0 -1 631.187 -16.921)"/><rect x="260.62" y="-17.647" width="36.649" height="18.372" rx="3.477" transform="matrix(-1 0 0 -1 557.888 -16.921)"/><rect x="223.933" y="-17.647" width="36.649" height="18.372" rx="3.477" transform="matrix(-1 0 0 -1 484.515 -16.921)"/><rect x="187.284" y="-17.647" width="36.649" height="18.372" rx="3.477" transform="matrix(-1 0 0 -1 411.217 -16.921)"/><rect x="150.678" y="-17.647" width="36.649" height="18.372" rx="3.477" transform="matrix(-1 0 0 -1 338.006 -16.921)"/><use href="#O"/><path d="M840.138.726h-26.219a3.48 3.48 0 0 1-3.477-3.477V-14.17a3.48 3.48 0 0 1 3.477-3.477h29.696a3.48 3.48 0 0 1 3.477 3.477v7.942a6.96 6.96 0 0 1-6.953 6.953z"/><rect x="773.793" y="-17.647" width="36.649" height="18.372" rx="3.477" transform="matrix(-1 0 0 -1 1584.236 -16.921)"/><rect x="737.107" y="-17.647" width="36.649" height="18.372" rx="3.477" transform="matrix(-1 0 0 -1 1510.862 -16.921)"/><rect x="700.458" y="-17.647" width="36.649" height="18.372" rx="3.477" transform="matrix(-1 0 0 -1 1437.564 -16.921)"/><rect x="663.803" y="-17.647" width="36.649" height="18.372" rx="3.477" transform="matrix(-1 0 0 -1 1364.255 -16.921)"/><rect x="627.154" y="-17.647" width="36.649" height="18.372" rx="3.477" transform="matrix(-1 0 0 -1 1290.956 -16.921)"/><rect x="590.467" y="-17.647" width="36.649" height="18.372" rx="3.477" transform="matrix(-1 0 0 -1 1217.583 -16.921)"/><rect x="553.818" y="-17.647" width="36.649" height="18.372" rx="3.477" transform="matrix(-1 0 0 -1 1144.285 -16.921)"/><rect x="517.212" y="-17.647" width="36.649" height="18.372" rx="3.477" transform="matrix(-1 0 0 -1 1071.073 -16.921)"/><path d="M513.735.726h-26.219a6.96 6.96 0 0 1-6.953-6.953v-7.943a3.48 3.48 0 0 1 3.477-3.477h29.696a3.48 3.48 0 0 1 3.477 3.477v11.419a3.48 3.48 0 0 1-3.477 3.477zm692.994 0h-26.219a3.48 3.48 0 0 1-3.477-3.477V-14.17a3.48 3.48 0 0 1 3.477-3.477h29.696a3.48 3.48 0 0 1 3.477 3.477v7.942a6.96 6.96 0 0 1-6.953 6.953z"/><rect x="1140.385" y="-17.647" width="36.649" height="18.372" rx="3.477" transform="matrix(-1 0 0 -1 2317.418 -16.921)"/><rect x="1103.698" y="-17.647" width="36.649" height="18.372" rx="3.477" transform="matrix(-1 0 0 -1 2244.045 -16.921)"/><rect x="1067.049" y="-17.647" width="36.649" height="18.372" rx="3.477" transform="matrix(-1 0 0 -1 2170.747 -16.921)"/><rect x="1030.394" y="-17.647" width="36.649" height="18.372" rx="3.477" transform="matrix(-1 0 0 -1 2097.437 -16.921)"/><rect x="993.745" y="-17.647" width="36.649" height="18.372" rx="3.477" transform="matrix(-1 0 0 -1 2024.139 -16.921)"/><rect x="957.058" y="-17.647" width="36.649" height="18.372" rx="3.477" transform="matrix(-1 0 0 -1 1950.765 -16.921)"/><rect x="920.409" y="-17.647" width="36.649" height="18.372" rx="3.477" transform="matrix(-1 0 0 -1 1877.467 -16.921)"/><rect x="883.803" y="-17.647" width="36.649" height="18.372" rx="3.477" transform="matrix(-1 0 0 -1 1804.256 -16.921)"/><path d="M880.327.726h-26.219a6.96 6.96 0 0 1-6.953-6.953v-7.943a3.48 3.48 0 0 1 3.477-3.477h29.696a3.48 3.48 0 0 1 3.477 3.477v11.419a3.48 3.48 0 0 1-3.477 3.477zM107.014 110.97H80.795a3.48 3.48 0 0 1-3.477-3.477V96.074a3.48 3.48 0 0 1 3.477-3.477h29.696a3.48 3.48 0 0 1 3.477 3.477v7.942a6.96 6.96 0 0 1-6.953 6.953z"/><rect x="40.668" y="92.598" width="36.649" height="18.372" rx="3.477" transform="matrix(-1 0 0 -1 117.985 203.568)"/><rect x="3.982" y="92.598" width="36.649" height="18.372" rx="3.477" transform="matrix(-1 0 0 -1 44.612 203.568)"/><rect x="-32.668" y="92.598" width="36.649" height="18.372" rx="3.477" transform="matrix(-1 0 0 -1 -28.686 203.568)"/><rect x="95.617" y="74.226" width="36.649" height="18.372" rx="3.477" transform="matrix(-1 0 0 -1 227.884 166.824)"/><rect x="58.968" y="74.226" width="36.649" height="18.372" rx="3.477" transform="matrix(-1 0 0 -1 154.585 166.824)"/><rect x="22.281" y="74.226" width="36.649" height="18.372" rx="3.477" transform="matrix(-1 0 0 -1 81.212 166.824)"/><rect x="-14.368" y="74.226" width="36.649" height="18.372" rx="3.477" transform="matrix(-1 0 0 -1 7.914 166.824)"/><rect x="77.317" y="55.854" width="36.649" height="18.372" rx="3.477" transform="matrix(-1 0 0 -1 191.284 130.079)"/><rect x="40.668" y="55.854" width="36.649" height="18.372" rx="3.477" transform="matrix(-1 0 0 -1 117.985 130.079)"/><rect x="3.982" y="55.854" width="36.649" height="18.372" rx="3.477" transform="matrix(-1 0 0 -1 44.612 130.079)"/><rect x="-32.668" y="55.854" width="36.649" height="18.372" rx="3.477" transform="matrix(-1 0 0 -1 -28.686 130.079)"/><rect x="95.617" y="37.481" width="36.649" height="18.372" rx="3.477" transform="matrix(-1 0 0 -1 227.884 93.335)"/><rect x="58.968" y="37.481" width="36.649" height="18.372" rx="3.477" transform="matrix(-1 0 0 -1 154.585 93.335)"/><rect x="22.281" y="37.481" width="36.649" height="18.372" rx="3.477" transform="matrix(-1 0 0 -1 81.212 93.335)"/><rect x="-14.368" y="37.481" width="36.649" height="18.372" rx="3.477" transform="matrix(-1 0 0 -1 7.914 93.335)"/><rect x="77.317" y="19.159" width="36.649" height="18.372" rx="3.477" transform="matrix(-1 0 0 -1 191.284 56.691)"/><rect x="40.668" y="19.159" width="36.649" height="18.372" rx="3.477" transform="matrix(-1 0 0 -1 117.985 56.691)"/><rect x="3.982" y="19.159" width="36.649" height="18.372" rx="3.477" transform="matrix(-1 0 0 -1 44.612 56.691)"/><rect x="-32.668" y="19.159" width="36.649" height="18.372" rx="3.477" transform="matrix(-1 0 0 -1 -28.686 56.691)"/><rect x="95.617" y=".787" width="36.649" height="18.372" rx="3.477" transform="matrix(-1 0 0 -1 227.884 19.946)"/><rect x="58.968" y=".787" width="36.649" height="18.372" rx="3.477" transform="matrix(-1 0 0 -1 154.585 19.946)"/><rect x="22.281" y=".787" width="36.649" height="18.372" rx="3.477" transform="matrix(-1 0 0 -1 81.212 19.946)"/><rect x="-14.368" y=".787" width="36.649" height="18.372" rx="3.477" transform="matrix(-1 0 0 -1 7.914 19.946)"/><use href="#P"/><rect x="407.259" y="92.598" width="36.649" height="18.372" rx="3.477" transform="matrix(-1 0 0 -1 851.168 203.568)"/><rect x="370.573" y="92.598" width="36.649" height="18.372" rx="3.477" transform="matrix(-1 0 0 -1 777.795 203.568)"/><rect x="333.924" y="92.598" width="36.649" height="18.372" rx="3.477" transform="matrix(-1 0 0 -1 704.496 203.568)"/><rect x="297.269" y="92.598" width="36.649" height="18.372" rx="3.477" transform="matrix(-1 0 0 -1 631.187 203.568)"/><rect x="260.62" y="92.598" width="36.649" height="18.372" rx="3.477" transform="matrix(-1 0 0 -1 557.888 203.568)"/><rect x="223.933" y="92.598" width="36.649" height="18.372" rx="3.477" transform="matrix(-1 0 0 -1 484.515 203.568)"/><rect x="187.284" y="92.598" width="36.649" height="18.372" rx="3.477" transform="matrix(-1 0 0 -1 411.217 203.568)"/><rect x="150.678" y="92.598" width="36.649" height="18.372" rx="3.477" transform="matrix(-1 0 0 -1 338.006 203.568)"/><use href="#Q"/><rect x="462.208" y="74.226" width="36.649" height="18.372" rx="3.477" transform="matrix(-1 0 0 -1 961.066 166.824)"/><rect x="425.559" y="74.226" width="36.649" height="18.372" rx="3.477" transform="matrix(-1 0 0 -1 887.768 166.824)"/><rect x="95.68" y="74.226" width="36.649" height="18.372" rx="3.477" transform="matrix(-1 0 0 -1 228.009 166.824)"/><rect x="388.873" y="74.226" width="36.649" height="18.372" rx="3.477" transform="matrix(-1 0 0 -1 814.394 166.824)"/><rect x="352.224" y="74.226" width="36.649" height="18.372" rx="3.477" transform="matrix(-1 0 0 -1 741.096 166.824)"/><rect x="315.569" y="74.226" width="36.649" height="18.372" rx="3.477" transform="matrix(-1 0 0 -1 667.786 166.824)"/><rect x="278.92" y="74.226" width="36.649" height="18.372" rx="3.477" transform="matrix(-1 0 0 -1 594.488 166.824)"/><rect x="242.233" y="74.226" width="36.649" height="18.372" rx="3.477" transform="matrix(-1 0 0 -1 521.115 166.824)"/><rect x="205.584" y="74.226" width="36.649" height="18.372" rx="3.477" transform="matrix(-1 0 0 -1 447.817 166.824)"/><rect x="168.978" y="74.226" width="36.649" height="18.372" rx="3.477" transform="matrix(-1 0 0 -1 374.605 166.824)"/><rect x="132.329" y="74.226" width="36.649" height="18.372" rx="3.477" transform="matrix(-1 0 0 -1 301.307 166.824)"/><rect x="443.908" y="55.854" width="36.649" height="18.372" rx="3.477" transform="matrix(-1 0 0 -1 924.466 130.079)"/><rect x="407.259" y="55.854" width="36.649" height="18.372" rx="3.477" transform="matrix(-1 0 0 -1 851.168 130.079)"/><rect x="370.573" y="55.854" width="36.649" height="18.372" rx="3.477" transform="matrix(-1 0 0 -1 777.795 130.079)"/><rect x="333.924" y="55.854" width="36.649" height="18.372" rx="3.477" transform="matrix(-1 0 0 -1 704.496 130.079)"/><rect x="297.269" y="55.854" width="36.649" height="18.372" rx="3.477" transform="matrix(-1 0 0 -1 631.187 130.079)"/><rect x="260.62" y="55.854" width="36.649" height="18.372" rx="3.477" transform="matrix(-1 0 0 -1 557.888 130.079)"/><rect x="223.933" y="55.854" width="36.649" height="18.372" rx="3.477" transform="matrix(-1 0 0 -1 484.515 130.079)"/><rect x="187.284" y="55.854" width="36.649" height="18.372" rx="3.477" transform="matrix(-1 0 0 -1 411.217 130.079)"/><rect x="150.678" y="55.854" width="36.649" height="18.372" rx="3.477" transform="matrix(-1 0 0 -1 338.006 130.079)"/><rect x="114.029" y="55.854" width="36.649" height="18.372" rx="3.477" transform="matrix(-1 0 0 -1 264.707 130.079)"/><rect x="462.208" y="37.481" width="36.649" height="18.372" rx="3.477" transform="matrix(-1 0 0 -1 961.066 93.335)"/><rect x="425.559" y="37.481" width="36.649" height="18.372" rx="3.477" transform="matrix(-1 0 0 -1 887.768 93.335)"/><rect x="95.68" y="37.481" width="36.649" height="18.372" rx="3.477" transform="matrix(-1 0 0 -1 228.009 93.335)"/><rect x="388.873" y="37.481" width="36.649" height="18.372" rx="3.477" transform="matrix(-1 0 0 -1 814.394 93.335)"/><rect x="352.224" y="37.481" width="36.649" height="18.372" rx="3.477" transform="matrix(-1 0 0 -1 741.096 93.335)"/><rect x="315.569" y="37.481" width="36.649" height="18.372" rx="3.477" transform="matrix(-1 0 0 -1 667.786 93.335)"/><rect x="278.92" y="37.481" width="36.649" height="18.372" rx="3.477" transform="matrix(-1 0 0 -1 594.488 93.335)"/><rect x="242.233" y="37.481" width="36.649" height="18.372" rx="3.477" transform="matrix(-1 0 0 -1 521.115 93.335)"/><rect x="205.584" y="37.481" width="36.649" height="18.372" rx="3.477" transform="matrix(-1 0 0 -1 447.817 93.335)"/><rect x="168.978" y="37.481" width="36.649" height="18.372" rx="3.477" transform="matrix(-1 0 0 -1 374.605 93.335)"/><rect x="132.329" y="37.481" width="36.649" height="18.372" rx="3.477" transform="matrix(-1 0 0 -1 301.307 93.335)"/><rect x="443.908" y="19.159" width="36.649" height="18.372" rx="3.477" transform="matrix(-1 0 0 -1 924.466 56.691)"/><rect x="407.259" y="19.159" width="36.649" height="18.372" rx="3.477" transform="matrix(-1 0 0 -1 851.168 56.691)"/><rect x="370.573" y="19.159" width="36.649" height="18.372" rx="3.477" transform="matrix(-1 0 0 -1 777.795 56.691)"/><rect x="333.924" y="19.159" width="36.649" height="18.372" rx="3.477" transform="matrix(-1 0 0 -1 704.496 56.691)"/><rect x="297.269" y="19.159" width="36.649" height="18.372" rx="3.477" transform="matrix(-1 0 0 -1 631.187 56.691)"/><rect x="260.62" y="19.159" width="36.649" height="18.372" rx="3.477" transform="matrix(-1 0 0 -1 557.888 56.691)"/><rect x="223.933" y="19.159" width="36.649" height="18.372" rx="3.477" transform="matrix(-1 0 0 -1 484.515 56.691)"/><rect x="187.284" y="19.159" width="36.649" height="18.372" rx="3.477" transform="matrix(-1 0 0 -1 411.217 56.691)"/><rect x="150.678" y="19.159" width="36.649" height="18.372" rx="3.477" transform="matrix(-1 0 0 -1 338.006 56.691)"/><rect x="114.029" y="19.159" width="36.649" height="18.372" rx="3.477" transform="matrix(-1 0 0 -1 264.707 56.691)"/><rect x="462.208" y=".787" width="36.649" height="18.372" rx="3.477" transform="matrix(-1 0 0 -1 961.066 19.946)"/><rect x="425.559" y=".787" width="36.649" height="18.372" rx="3.477" transform="matrix(-1 0 0 -1 887.768 19.946)"/><rect x="95.68" y=".787" width="36.649" height="18.372" rx="3.477" transform="matrix(-1 0 0 -1 228.009 19.946)"/><rect x="388.873" y=".787" width="36.649" height="18.372" rx="3.477" transform="matrix(-1 0 0 -1 814.394 19.946)"/><rect x="352.224" y=".787" width="36.649" height="18.372" rx="3.477" transform="matrix(-1 0 0 -1 741.096 19.946)"/><rect x="315.569" y=".787" width="36.649" height="18.372" rx="3.477" transform="matrix(-1 0 0 -1 667.786 19.946)"/><rect x="278.92" y=".787" width="36.649" height="18.372" rx="3.477" transform="matrix(-1 0 0 -1 594.488 19.946)"/><rect x="242.233" y=".787" width="36.649" height="18.372" rx="3.477" transform="matrix(-1 0 0 -1 521.115 19.946)"/><rect x="205.584" y=".787" width="36.649" height="18.372" rx="3.477" transform="matrix(-1 0 0 -1 447.817 19.946)"/><rect x="168.978" y=".787" width="36.649" height="18.372" rx="3.477" transform="matrix(-1 0 0 -1 374.605 19.946)"/><rect x="132.329" y=".787" width="36.649" height="18.372" rx="3.477" transform="matrix(-1 0 0 -1 301.307 19.946)"/><path d="M840.138 110.97h-26.219a3.48 3.48 0 0 1-3.477-3.477V96.074a3.48 3.48 0 0 1 3.477-3.477h29.696a3.48 3.48 0 0 1 3.477 3.477v7.942a6.96 6.96 0 0 1-6.953 6.953z"/><rect x="773.793" y="92.598" width="36.649" height="18.372" rx="3.477" transform="matrix(-1 0 0 -1 1584.236 203.568)"/><rect x="737.107" y="92.598" width="36.649" height="18.372" rx="3.477" transform="matrix(-1 0 0 -1 1510.862 203.568)"/><rect x="700.458" y="92.598" width="36.649" height="18.372" rx="3.477" transform="matrix(-1 0 0 -1 1437.564 203.568)"/><rect x="663.803" y="92.598" width="36.649" height="18.372" rx="3.477" transform="matrix(-1 0 0 -1 1364.255 203.568)"/><rect x="627.154" y="92.598" width="36.649" height="18.372" rx="3.477" transform="matrix(-1 0 0 -1 1290.956 203.568)"/><rect x="590.467" y="92.598" width="36.649" height="18.372" rx="3.477" transform="matrix(-1 0 0 -1 1217.583 203.568)"/><rect x="553.818" y="92.598" width="36.649" height="18.372" rx="3.477" transform="matrix(-1 0 0 -1 1144.285 203.568)"/><rect x="517.212" y="92.598" width="36.649" height="18.372" rx="3.477" transform="matrix(-1 0 0 -1 1071.073 203.568)"/><path d="M513.735 110.97h-26.219a6.96 6.96 0 0 1-6.953-6.953v-7.942a3.48 3.48 0 0 1 3.477-3.477h29.696a3.48 3.48 0 0 1 3.477 3.477v11.419a3.48 3.48 0 0 1-3.477 3.477z"/><rect x="828.742" y="74.226" width="36.649" height="18.372" rx="3.477" transform="matrix(-1 0 0 -1 1694.134 166.824)"/><rect x="792.093" y="74.226" width="36.649" height="18.372" rx="3.477" transform="matrix(-1 0 0 -1 1620.836 166.824)"/><rect x="462.214" y="74.226" width="36.649" height="18.372" rx="3.477" transform="matrix(-1 0 0 -1 961.077 166.824)"/><rect x="755.407" y="74.226" width="36.649" height="18.372" rx="3.477" transform="matrix(-1 0 0 -1 1547.462 166.824)"/><rect x="718.758" y="74.226" width="36.649" height="18.372" rx="3.477" transform="matrix(-1 0 0 -1 1474.164 166.824)"/><rect x="682.103" y="74.226" width="36.649" height="18.372" rx="3.477" transform="matrix(-1 0 0 -1 1400.854 166.824)"/><rect x="645.454" y="74.226" width="36.649" height="18.372" rx="3.477" transform="matrix(-1 0 0 -1 1327.556 166.824)"/><rect x="608.767" y="74.226" width="36.649" height="18.372" rx="3.477" transform="matrix(-1 0 0 -1 1254.183 166.824)"/><rect x="572.118" y="74.226" width="36.649" height="18.372" rx="3.477" transform="matrix(-1 0 0 -1 1180.885 166.824)"/><rect x="535.512" y="74.226" width="36.649" height="18.372" rx="3.477" transform="matrix(-1 0 0 -1 1107.673 166.824)"/><rect x="498.863" y="74.226" width="36.649" height="18.372" rx="3.477" transform="matrix(-1 0 0 -1 1034.375 166.824)"/><rect x="810.442" y="55.854" width="36.649" height="18.372" rx="3.477" transform="matrix(-1 0 0 -1 1657.534 130.079)"/><rect x="773.793" y="55.854" width="36.649" height="18.372" rx="3.477" transform="matrix(-1 0 0 -1 1584.236 130.079)"/><rect x="737.107" y="55.854" width="36.649" height="18.372" rx="3.477" transform="matrix(-1 0 0 -1 1510.862 130.079)"/><rect x="700.458" y="55.854" width="36.649" height="18.372" rx="3.477" transform="matrix(-1 0 0 -1 1437.564 130.079)"/><rect x="663.803" y="55.854" width="36.649" height="18.372" rx="3.477" transform="matrix(-1 0 0 -1 1364.255 130.079)"/><rect x="627.154" y="55.854" width="36.649" height="18.372" rx="3.477" transform="matrix(-1 0 0 -1 1290.956 130.079)"/><rect x="590.467" y="55.854" width="36.649" height="18.372" rx="3.477" transform="matrix(-1 0 0 -1 1217.583 130.079)"/><rect x="553.818" y="55.854" width="36.649" height="18.372" rx="3.477" transform="matrix(-1 0 0 -1 1144.285 130.079)"/><rect x="517.212" y="55.854" width="36.649" height="18.372" rx="3.477" transform="matrix(-1 0 0 -1 1071.073 130.079)"/><rect x="480.563" y="55.854" width="36.649" height="18.372" rx="3.477" transform="matrix(-1 0 0 -1 997.775 130.079)"/><rect x="828.742" y="37.481" width="36.649" height="18.372" rx="3.477" transform="matrix(-1 0 0 -1 1694.134 93.335)"/><rect x="792.093" y="37.481" width="36.649" height="18.372" rx="3.477" transform="matrix(-1 0 0 -1 1620.836 93.335)"/><rect x="462.214" y="37.481" width="36.649" height="18.372" rx="3.477" transform="matrix(-1 0 0 -1 961.077 93.335)"/><rect x="755.407" y="37.481" width="36.649" height="18.372" rx="3.477" transform="matrix(-1 0 0 -1 1547.462 93.335)"/><rect x="718.758" y="37.481" width="36.649" height="18.372" rx="3.477" transform="matrix(-1 0 0 -1 1474.164 93.335)"/><rect x="682.103" y="37.481" width="36.649" height="18.372" rx="3.477" transform="matrix(-1 0 0 -1 1400.854 93.335)"/><rect x="645.454" y="37.481" width="36.649" height="18.372" rx="3.477" transform="matrix(-1 0 0 -1 1327.556 93.335)"/><rect x="608.767" y="37.481" width="36.649" height="18.372" rx="3.477" transform="matrix(-1 0 0 -1 1254.183 93.335)"/><rect x="572.118" y="37.481" width="36.649" height="18.372" rx="3.477" transform="matrix(-1 0 0 -1 1180.885 93.335)"/><rect x="535.512" y="37.481" width="36.649" height="18.372" rx="3.477" transform="matrix(-1 0 0 -1 1107.673 93.335)"/><rect x="498.863" y="37.481" width="36.649" height="18.372" rx="3.477" transform="matrix(-1 0 0 -1 1034.375 93.335)"/><rect x="810.442" y="19.159" width="36.649" height="18.372" rx="3.477" transform="matrix(-1 0 0 -1 1657.534 56.691)"/><rect x="773.793" y="19.159" width="36.649" height="18.372" rx="3.477" transform="matrix(-1 0 0 -1 1584.236 56.691)"/><rect x="737.107" y="19.159" width="36.649" height="18.372" rx="3.477" transform="matrix(-1 0 0 -1 1510.862 56.691)"/><rect x="700.458" y="19.159" width="36.649" height="18.372" rx="3.477" transform="matrix(-1 0 0 -1 1437.564 56.691)"/><rect x="663.803" y="19.159" width="36.649" height="18.372" rx="3.477" transform="matrix(-1 0 0 -1 1364.255 56.691)"/><rect x="627.154" y="19.159" width="36.649" height="18.372" rx="3.477" transform="matrix(-1 0 0 -1 1290.956 56.691)"/><rect x="590.467" y="19.159" width="36.649" height="18.372" rx="3.477" transform="matrix(-1 0 0 -1 1217.583 56.691)"/><rect x="553.818" y="19.159" width="36.649" height="18.372" rx="3.477" transform="matrix(-1 0 0 -1 1144.285 56.691)"/><rect x="517.212" y="19.159" width="36.649" height="18.372" rx="3.477" transform="matrix(-1 0 0 -1 1071.073 56.691)"/><rect x="480.563" y="19.159" width="36.649" height="18.372" rx="3.477" transform="matrix(-1 0 0 -1 997.775 56.691)"/><rect x="828.742" y=".787" width="36.649" height="18.372" rx="3.477" transform="matrix(-1 0 0 -1 1694.134 19.946)"/><rect x="792.093" y=".787" width="36.649" height="18.372" rx="3.477" transform="matrix(-1 0 0 -1 1620.836 19.946)"/><rect x="462.214" y=".787" width="36.649" height="18.372" rx="3.477" transform="matrix(-1 0 0 -1 961.077 19.946)"/><rect x="755.407" y=".787" width="36.649" height="18.372" rx="3.477" transform="matrix(-1 0 0 -1 1547.462 19.946)"/><rect x="718.758" y=".787" width="36.649" height="18.372" rx="3.477" transform="matrix(-1 0 0 -1 1474.164 19.946)"/><rect x="682.103" y=".787" width="36.649" height="18.372" rx="3.477" transform="matrix(-1 0 0 -1 1400.854 19.946)"/><rect x="645.454" y=".787" width="36.649" height="18.372" rx="3.477" transform="matrix(-1 0 0 -1 1327.556 19.946)"/><rect x="608.767" y=".787" width="36.649" height="18.372" rx="3.477" transform="matrix(-1 0 0 -1 1254.183 19.946)"/><rect x="572.118" y=".787" width="36.649" height="18.372" rx="3.477" transform="matrix(-1 0 0 -1 1180.885 19.946)"/><rect x="535.512" y=".787" width="36.649" height="18.372" rx="3.477" transform="matrix(-1 0 0 -1 1107.673 19.946)"/><rect x="498.863" y=".787" width="36.649" height="18.372" rx="3.477" transform="matrix(-1 0 0 -1 1034.375 19.946)"/><path d="M1206.729 110.97h-26.219a3.48 3.48 0 0 1-3.477-3.477V96.074a3.48 3.48 0 0 1 3.477-3.477h29.696a3.48 3.48 0 0 1 3.477 3.477v7.942a6.96 6.96 0 0 1-6.953 6.953z"/><rect x="1140.385" y="92.598" width="36.649" height="18.372" rx="3.477" transform="matrix(-1 0 0 -1 2317.418 203.568)"/><rect x="1103.698" y="92.598" width="36.649" height="18.372" rx="3.477" transform="matrix(-1 0 0 -1 2244.045 203.568)"/><rect x="1067.049" y="92.598" width="36.649" height="18.372" rx="3.477" transform="matrix(-1 0 0 -1 2170.747 203.568)"/><rect x="1030.394" y="92.598" width="36.649" height="18.372" rx="3.477" transform="matrix(-1 0 0 -1 2097.437 203.568)"/><rect x="993.745" y="92.598" width="36.649" height="18.372" rx="3.477" transform="matrix(-1 0 0 -1 2024.139 203.568)"/><rect x="957.058" y="92.598" width="36.649" height="18.372" rx="3.477" transform="matrix(-1 0 0 -1 1950.765 203.568)"/><rect x="920.409" y="92.598" width="36.649" height="18.372" rx="3.477" transform="matrix(-1 0 0 -1 1877.467 203.568)"/><rect x="883.803" y="92.598" width="36.649" height="18.372" rx="3.477" transform="matrix(-1 0 0 -1 1804.256 203.568)"/><path d="M880.327 110.97h-26.219a6.96 6.96 0 0 1-6.953-6.953v-7.942a3.48 3.48 0 0 1 3.477-3.477h29.696a3.48 3.48 0 0 1 3.477 3.477v11.419a3.48 3.48 0 0 1-3.477 3.477z"/><rect x="1195.334" y="74.226" width="36.649" height="18.372" rx="3.477" transform="matrix(-1 0 0 -1 2427.316 166.824)"/><rect x="1158.684" y="74.226" width="36.649" height="18.372" rx="3.477" transform="matrix(-1 0 0 -1 2354.018 166.824)"/><rect x="828.805" y="74.226" width="36.649" height="18.372" rx="3.477" transform="matrix(-1 0 0 -1 1694.259 166.824)"/><rect x="1121.998" y="74.226" width="36.649" height="18.372" rx="3.477" transform="matrix(-1 0 0 -1 2280.645 166.824)"/><rect x="1085.349" y="74.226" width="36.649" height="18.372" rx="3.477" transform="matrix(-1 0 0 -1 2207.347 166.824)"/><rect x="1048.694" y="74.226" width="36.649" height="18.372" rx="3.477" transform="matrix(-1 0 0 -1 2134.037 166.824)"/><rect x="1012.045" y="74.226" width="36.649" height="18.372" rx="3.477" transform="matrix(-1 0 0 -1 2060.739 166.824)"/><rect x="975.358" y="74.226" width="36.649" height="18.372" rx="3.477" transform="matrix(-1 0 0 -1 1987.365 166.824)"/><rect x="938.709" y="74.226" width="36.649" height="18.372" rx="3.477" transform="matrix(-1 0 0 -1 1914.067 166.824)"/><rect x="902.103" y="74.226" width="36.649" height="18.372" rx="3.477" transform="matrix(-1 0 0 -1 1840.856 166.824)"/><rect x="865.454" y="74.226" width="36.649" height="18.372" rx="3.477" transform="matrix(-1 0 0 -1 1767.558 166.824)"/><rect x="1177.034" y="55.854" width="36.649" height="18.372" rx="3.477" transform="matrix(-1 0 0 -1 2390.716 130.079)"/><rect x="1140.385" y="55.854" width="36.649" height="18.372" rx="3.477" transform="matrix(-1 0 0 -1 2317.418 130.079)"/><rect x="1103.698" y="55.854" width="36.649" height="18.372" rx="3.477" transform="matrix(-1 0 0 -1 2244.045 130.079)"/><rect x="1067.049" y="55.854" width="36.649" height="18.372" rx="3.477" transform="matrix(-1 0 0 -1 2170.747 130.079)"/><rect x="1030.394" y="55.854" width="36.649" height="18.372" rx="3.477" transform="matrix(-1 0 0 -1 2097.437 130.079)"/><rect x="993.745" y="55.854" width="36.649" height="18.372" rx="3.477" transform="matrix(-1 0 0 -1 2024.139 130.079)"/><rect x="957.058" y="55.854" width="36.649" height="18.372" rx="3.477" transform="matrix(-1 0 0 -1 1950.765 130.079)"/><rect x="920.409" y="55.854" width="36.649" height="18.372" rx="3.477" transform="matrix(-1 0 0 -1 1877.467 130.079)"/><rect x="883.803" y="55.854" width="36.649" height="18.372" rx="3.477" transform="matrix(-1 0 0 -1 1804.256 130.079)"/><rect x="847.154" y="55.854" width="36.649" height="18.372" rx="3.477" transform="matrix(-1 0 0 -1 1730.958 130.079)"/><rect x="1195.334" y="37.481" width="36.649" height="18.372" rx="3.477" transform="matrix(-1 0 0 -1 2427.316 93.335)"/><rect x="1158.684" y="37.481" width="36.649" height="18.372" rx="3.477" transform="matrix(-1 0 0 -1 2354.018 93.335)"/><rect x="828.805" y="37.481" width="36.649" height="18.372" rx="3.477" transform="matrix(-1 0 0 -1 1694.259 93.335)"/><rect x="1121.998" y="37.481" width="36.649" height="18.372" rx="3.477" transform="matrix(-1 0 0 -1 2280.645 93.335)"/><rect x="1085.349" y="37.481" width="36.649" height="18.372" rx="3.477" transform="matrix(-1 0 0 -1 2207.347 93.335)"/><rect x="1048.694" y="37.481" width="36.649" height="18.372" rx="3.477" transform="matrix(-1 0 0 -1 2134.037 93.335)"/><rect x="1012.045" y="37.481" width="36.649" height="18.372" rx="3.477" transform="matrix(-1 0 0 -1 2060.739 93.335)"/><rect x="975.358" y="37.481" width="36.649" height="18.372" rx="3.477" transform="matrix(-1 0 0 -1 1987.365 93.335)"/><rect x="938.709" y="37.481" width="36.649" height="18.372" rx="3.477" transform="matrix(-1 0 0 -1 1914.067 93.335)"/><rect x="902.103" y="37.481" width="36.649" height="18.372" rx="3.477" transform="matrix(-1 0 0 -1 1840.856 93.335)"/><rect x="865.454" y="37.481" width="36.649" height="18.372" rx="3.477" transform="matrix(-1 0 0 -1 1767.558 93.335)"/><rect x="1177.034" y="19.159" width="36.649" height="18.372" rx="3.477" transform="matrix(-1 0 0 -1 2390.716 56.691)"/><rect x="1140.385" y="19.159" width="36.649" height="18.372" rx="3.477" transform="matrix(-1 0 0 -1 2317.418 56.691)"/><rect x="1103.698" y="19.159" width="36.649" height="18.372" rx="3.477" transform="matrix(-1 0 0 -1 2244.045 56.691)"/><rect x="1067.049" y="19.159" width="36.649" height="18.372" rx="3.477" transform="matrix(-1 0 0 -1 2170.747 56.691)"/><rect x="1030.394" y="19.159" width="36.649" height="18.372" rx="3.477" transform="matrix(-1 0 0 -1 2097.437 56.691)"/><rect x="993.745" y="19.159" width="36.649" height="18.372" rx="3.477" transform="matrix(-1 0 0 -1 2024.139 56.691)"/><rect x="957.058" y="19.159" width="36.649" height="18.372" rx="3.477" transform="matrix(-1 0 0 -1 1950.765 56.691)"/><rect x="920.409" y="19.159" width="36.649" height="18.372" rx="3.477" transform="matrix(-1 0 0 -1 1877.467 56.691)"/><rect x="883.803" y="19.159" width="36.649" height="18.372" rx="3.477" transform="matrix(-1 0 0 -1 1804.256 56.691)"/><rect x="847.154" y="19.159" width="36.649" height="18.372" rx="3.477" transform="matrix(-1 0 0 -1 1730.958 56.691)"/><rect x="1195.334" y=".787" width="36.649" height="18.372" rx="3.477" transform="matrix(-1 0 0 -1 2427.316 19.946)"/><rect x="1158.684" y=".787" width="36.649" height="18.372" rx="3.477" transform="matrix(-1 0 0 -1 2354.018 19.946)"/><rect x="828.805" y=".787" width="36.649" height="18.372" rx="3.477" transform="matrix(-1 0 0 -1 1694.259 19.946)"/><rect x="1121.998" y=".787" width="36.649" height="18.372" rx="3.477" transform="matrix(-1 0 0 -1 2280.645 19.946)"/><rect x="1085.349" y=".787" width="36.649" height="18.372" rx="3.477" transform="matrix(-1 0 0 -1 2207.347 19.946)"/><rect x="1048.694" y=".787" width="36.649" height="18.372" rx="3.477" transform="matrix(-1 0 0 -1 2134.037 19.946)"/><rect x="1012.045" y=".787" width="36.649" height="18.372" rx="3.477" transform="matrix(-1 0 0 -1 2060.739 19.946)"/><rect x="975.358" y=".787" width="36.649" height="18.372" rx="3.477" transform="matrix(-1 0 0 -1 1987.365 19.946)"/><rect x="938.709" y=".787" width="36.649" height="18.372" rx="3.477" transform="matrix(-1 0 0 -1 1914.067 19.946)"/><rect x="902.103" y=".787" width="36.649" height="18.372" rx="3.477" transform="matrix(-1 0 0 -1 1840.856 19.946)"/><rect x="865.454" y=".787" width="36.649" height="18.372" rx="3.477" transform="matrix(-1 0 0 -1 1767.558 19.946)"/><rect x="1195.358" y="74.226" width="36.649" height="18.372" rx="3.477" transform="matrix(-1 0 0 -1 2427.365 166.824)"/><rect x="1195.358" y="37.481" width="36.649" height="18.372" rx="3.477" transform="matrix(-1 0 0 -1 2427.365 93.335)"/><rect x="1195.358" y=".787" width="36.649" height="18.372" rx="3.477" transform="matrix(-1 0 0 -1 2427.365 19.946)"/></g></g><g opacity=".55" fill="#d59660"><circle cx="249.699" cy="68.356" r="2.597"/><circle cx="243.129" cy="76.162" r="2.597"/><circle cx="250.973" cy="78.78" r="2.597"/><circle cx="233.922" cy="95.307" r="2.597"/><circle cx="224.388" cy="80.592" r="2.597"/></g><g class="B"><path d="M295.507 26.628c0-1.971-1.6-3.571-3.571-3.571h-61.423c-1.971 0-3.571 1.6-3.571 3.571s1.6 3.571 3.571 3.571h61.423a3.57 3.57 0 0 0 3.571-3.571h0z" class="R"/><g fill="#96ac4c"><use href="#R"/><path d="M271.11 14.685c.1-.367-.071-.757-.4-.948s-.743-.137-1.014.133l-4.9 4.902-2.714-8.811c-.114-.357-.443-.601-.814-.603a.87.87 0 0 0-.828.597l-2.786 8.816-4.899-4.902c-.271-.27-.686-.324-1.028-.133a.84.84 0 0 0-.386.948l1.757 6.458c1 3.661 4.328 6.199 8.128 6.199h0c3.8 0 7.114-2.538 8.114-6.199l1.771-6.458zm21.426 0c.1-.367-.071-.757-.4-.948s-.743-.137-1.014.133l-4.9 4.902-2.714-8.811c-.114-.357-.443-.601-.814-.603a.87.87 0 0 0-.828.597l-2.786 8.816-4.899-4.902c-.271-.27-.686-.324-1.028-.133a.84.84 0 0 0-.386.948l1.757 6.458c1 3.661 4.328 6.199 8.128 6.199h0c3.8 0 7.114-2.538 8.114-6.199l1.771-6.458z"/></g><path d="M119.556 184.478a9.84 9.84 0 0 1-6.969-2.88 9.85 9.85 0 0 1-2.887-6.966v-36.704h-3.976c-1.426 0-2.583-1.158-2.583-2.584v-4.068l-3.631-.048a3.16 3.16 0 0 1-3.115-3.157v-3.615a3.16 3.16 0 0 1 3.157-3.157h16.798v-3.326c0-1.837 1.489-3.325 3.324-3.325h.003c1.836 0 3.324 1.487 3.324 3.325v34.167a3.9 3.9 0 0 0 3.896 3.896h.002a3.82 3.82 0 0 0 3.76-3.15l1.815-10.21c.577-3.239 3.392-5.596 6.68-5.596h.373c3.317 0 6.146 2.397 6.691 5.668l1.597 9.578c.48 2.88 2.972 4.99 5.89 4.99h.002a5.97 5.97 0 0 0 5.89-4.99l1.597-9.578c.545-3.271 3.376-5.668 6.693-5.668h.394c3.279 0 6.09 2.344 6.676 5.57l1.834 10.088a5.2 5.2 0 0 0 3.273 3.935 2.16 2.16 0 0 0 .103.039 9.35 9.35 0 0 1 6.026 8.737v12.815a6.2 6.2 0 0 1-1.814 4.38c-1.162 1.163-2.739 1.814-4.382 1.814l-60.442.02z" fill="#b29569"/></g><path d="M113.024 128.828h3.326v2.448h-3.326z" fill="#383026"/><g class="B"><path d="M602.868 44.733c0-.865-.344-1.693-.954-2.303s-1.44-.954-2.303-.954h-63.012a3.25 3.25 0 0 0-2.303.954 3.26 3.26 0 0 0-.954 2.303v.003a3.26 3.26 0 0 0 3.257 3.257h63.012a3.26 3.26 0 0 0 3.257-3.257v-.003z" class="M"/><g class="F"><path d="M559.302 33.222l.002.087.001.079.003.082.003.078.004.08.005.079.007.079.008.077.009.078.009.078.01.077.011.076.012.077.014.077.014.075.015.076.015.076.017.074.017.074.02.076.019.072.02.075.021.073.022.071.023.073.024.071.025.072.026.071.026.072.027.068.028.071.029.07.03.068.03.069.032.069.031.067.033.066.035.067.034.068.036.066.034.064.039.066.037.065.038.063.039.063.04.062.041.063.041.064.041.06.043.061.044.061.045.061.044.058.046.059.046.057.048.06.047.056.048.055.05.058.049.055.05.055.05.053.053.054.052.052.054.054.053.052.054.049.055.051.055.05.055.048.056.048.059.049.058.047.056.045.059.046.061.045.06.045.059.043.061.043.062.042.063.042.062.041.063.04.063.038.065.039.063.037.066.037.066.037.063.034.067.035.069.034.068.033.066.032.07.031.067.03.069.029.068.029.07.029.072.028.071.026.069.024.072.025.072.025.073.023.073.022.072.021.072.02.076.02.073.018.074.017.076.018.075.015.076.016.075.013.077.014.077.012.075.011.078.01.078.01.077.008.08.008.077.006.078.005.081.006.079.002.079.003.081.001.087.002h4.783v4.123h-4.797l-.125-.001-.133-.003-.132-.004-.132-.006-.129-.008-.132-.008-.132-.011-.128-.013-.132-.013-.128-.017-.127-.016-.131-.02-.126-.02-.128-.021-.127-.025-.126-.024-.127-.026-.122-.028-.125-.03-.125-.032-.122-.031-.124-.035-.124-.035-.121-.038-.119-.038-.12-.04-.119-.04-.121-.044-.119-.044-.115-.045-.117-.047-.117-.048-.116-.051-.116-.051-.113-.052-.114-.053-.112-.055-.11-.055-.11-.058-.112-.061-.108-.059-.109-.062-.107-.063-.107-.063-.106-.065-.106-.067-.104-.069-.102-.067-.102-.07-.101-.072-.102-.072-.099-.073-.099-.074-.098-.076-.097-.078-.095-.079-.095-.078-.093-.08-.094-.082-.092-.083-.091-.084-.09-.085-.088-.085-.088-.087-.087-.087-.085-.088-.085-.091-.084-.092-.082-.091-.082-.092-.081-.095-.079-.095-.077-.096-.077-.096-.077-.098-.075-.1-.074-.099-.071-.099-.072-.102-.07-.104-.068-.102-.068-.103-.067-.106-.065-.106-.064-.107-.062-.107-.062-.107-.06-.11-.06-.111-.056-.11-.056-.112-.057-.112-.053-.114-.053-.113-.05-.116-.05-.115-.048-.116-.047-.116-.045-.119-.044-.118-.043-.118-.041-.12-.04-.12-.038-.12-.037-.122-.036-.123-.034-.123-.033-.123-.031-.123-.03-.125-.027-.126-.026-.125-.027-.126-.023-.128-.022-.126-.019-.128-.019-.128-.018-.129-.015-.129-.014-.13-.012-.13-.011-.131-.01-.13-.007-.132-.005-.132-.005-.132-.002-.132-.002-.126v-63.459h4.123v63.446z"/><path d="M585.375 33.235v.126l-.003.132-.004.133-.006.132-.008.131-.01.13-.009.131-.013.129-.015.131-.015.129-.016.128-.02.13-.02.127-.022.126-.023.128-.025.126-.026.125-.029.126-.029.125-.032.123-.033.123-.033.123-.035.123-.037.122-.039.12-.04.119-.041.121-.043.118-.044.118-.046.12-.047.115-.048.116-.05.115-.051.116-.052.113-.053.114-.055.112-.057.112-.057.111-.06.11-.06.108-.061.108-.063.108-.063.107-.066.106-.067.106-.068.103-.067.102-.07.103-.073.103-.071.099-.073.1-.076.099-.075.098-.077.097-.079.095-.078.095-.081.094-.081.093-.083.091-.083.092-.086.091-.085.088-.088.087-.086.087-.088.085-.091.085-.092.084-.092.084-.094.081-.093.08-.094.078-.096.079-.097.078-.098.076-.098.074-.099.073-.101.072-.103.072-.101.07-.103.067-.104.069-.105.066-.106.066-.108.065-.107.061-.107.062-.11.061-.112.059-.11.058-.108.055-.114.055-.114.053-.113.052-.116.053-.115.049-.117.048-.117.047-.115.045-.118.044-.121.044-.12.04-.119.04-.121.038-.121.038-.123.035-.123.035-.123.031-.125.032-.125.03-.124.028-.126.026-.126.024-.127.025-.126.021-.128.02-.129.02-.129.016-.128.017-.131.013-.129.013-.131.011-.132.008-.13.008-.132.006-.132.004-.132.003-.126.001h-4.797v-4.123h4.784l.087-.002.08-.001.079-.003.08-.002.08-.006.078-.005.078-.006.08-.008.076-.008.078-.01.078-.01.076-.011.077-.012.076-.014.076-.013.076-.016.074-.015.077-.018.074-.017.073-.018.074-.02.073-.02.072-.021.074-.022.073-.023.071-.025.073-.025.069-.024.07-.026.073-.028.07-.029.069-.027.068-.031.068-.03.068-.031.068-.032.066-.033.069-.034.067-.035.064-.035.066-.036.065-.037.065-.037.063-.039.063-.038.063-.04.062-.041.063-.042.064-.042.059-.043.06-.043.061-.045.059-.045.059-.046.058-.045.056-.047.059-.048.056-.049.057-.048.055-.05.053-.051.054-.049.053-.052.055-.054.051-.052.052-.054.051-.053.05-.055.051-.055.049-.057.047-.056.048-.058.048-.058.045-.057.046-.058.045-.06.044-.06.044-.061.043-.059.041-.062.043-.064.041-.063.038-.062.04-.063.037-.063.039-.065.037-.066.036-.066.035-.066.035-.066.033-.066.033-.067.031-.067.032-.069.03-.069.03-.068.029-.07.029-.072.026-.067.026-.072.026-.071.025-.07.024-.073.023-.073.022-.071.022-.073.019-.075.021-.074.018-.074.017-.074.017-.074.016-.076.016-.076.013-.074.013-.078.012-.077.011-.076.011-.077.01-.078.008-.077.007-.078.007-.079.005-.079.004-.08.004-.08.003-.08.001-.079v-.087-63.446h4.124v63.459z"/><path d="M600.584 33.235v.126l-.003.133-.004.132-.007.131-.007.132-.01.13-.011.131-.012.129-.014.131-.015.129-.018.129-.018.128-.02.128-.022.126-.023.127-.025.127-.028.125-.027.124-.029.127-.032.123-.033.124-.034.124-.034.121-.037.121-.039.121-.04.12-.041.119-.044.121-.044.118-.044.115-.048.118-.048.117-.05.114-.051.116-.052.113-.053.114-.055.112-.058.113-.056.11-.059.109-.061.109-.06.109-.064.107-.064.107-.065.106-.066.105-.069.104-.068.103-.07.102-.072.103-.071.099-.073.099-.077.1-.074.098-.077.096-.079.096-.079.095-.08.094-.083.093-.082.092-.082.091-.086.089-.085.09-.088.087-.088.088-.088.086-.091.083-.089.084-.092.081-.095.084-.093.08-.095.08-.095.077-.096.077-.099.077-.099.074-.099.073-.1.072-.102.072-.102.069-.103.07-.106.068-.105.066-.103.064-.106.064-.11.063-.109.062-.108.061-.11.058-.112.057-.11.057-.112.055-.114.053-.114.054-.115.051-.115.049-.117.048-.115.047-.12.045-.118.044-.118.043-.118.041-.121.04-.123.038-.121.038-.121.035-.123.035-.124.031-.124.032-.125.029-.123.029-.128.026-.125.026-.127.022-.126.022-.128.02-.129.02-.128.016-.131.017-.129.013-.128.013-.133.011-.131.008-.131.008-.131.006-.132.004-.133.003-.125.001h-20.006v-4.123h19.993l.087-.002.08-.001.079-.003.08-.002.08-.006.078-.005.077-.006.08-.008.078-.008.077-.01.078-.01.076-.011.076-.012.077-.014.076-.013.076-.016.074-.015.076-.018.074-.016.074-.019.075-.02.071-.02.076-.022.071-.022.072-.022.071-.024.072-.024.072-.026.072-.028.068-.026.071-.027.068-.029.07-.031.068-.03.068-.031.068-.032.066-.033.069-.034.065-.035.066-.035.068-.036.063-.037.063-.036.065-.04.064-.04.064-.04.06-.039.062-.042.063-.042.061-.043.06-.043.061-.045.059-.044.057-.045.06-.047.057-.048.058-.048.056-.048.055-.047.055-.051.057-.051.053-.051.054-.052.052-.051.052-.052.051-.055.051-.053.052-.055.05-.055.048-.057.048-.056.048-.056.047-.058.046-.059.047-.059.043-.058.045-.061.044-.061.043-.061.041-.062.043-.062.039-.061.04-.064.04-.063.037-.064.039-.064.035-.064.038-.066.034-.068.036-.066.033-.066.033-.067.031-.067.032-.069.03-.069.03-.068.029-.07.028-.069.027-.072.028-.071.024-.069.025-.073.023-.071.024-.072.022-.074.022-.073.019-.073.019-.072.02-.076.017-.073.017-.077.016-.075.014-.073.015-.076.013-.078.012-.076.011-.077.011-.078.01-.077.008-.077.007-.078.007-.08.005-.078.004-.079.004-.079.003-.082.001-.079v-.087-26.51h4.124v26.523z"/></g></g><circle cx="603.954" cy="27.352" r="3.259" class="F"/><g class="B F"><path d="M594.176 21.921a3.26 3.26 0 0 1-3.259-3.259 3.26 3.26 0 0 1 3.259-3.259c1.798 0 3.26 1.46 3.26 3.259a3.26 3.26 0 0 1-3.26 3.259zm-15.207 6.518c-1.799 0-3.26-1.461-3.26-3.26a3.26 3.26 0 0 1 3.26-3.259 3.26 3.26 0 0 1 3.259 3.259c0 1.798-1.461 3.26-3.259 3.26zm-5.433-20.64c-1.798 0-3.259-1.461-3.259-3.26a3.26 3.26 0 0 1 3.259-3.259c1.798 0 3.26 1.461 3.26 3.259s-1.461 3.26-3.26 3.26zm-7.603 16.294c-1.799 0-3.26-1.461-3.26-3.259s1.461-3.26 3.26-3.26a3.26 3.26 0 0 1 3.259 3.26 3.26 3.26 0 0 1-3.259 3.259zM560.5 3.453a3.26 3.26 0 0 1-3.259-3.259 3.26 3.26 0 0 1 3.259-3.259c1.798 0 3.26 1.46 3.26 3.259a3.26 3.26 0 0 1-3.26 3.259zm-7.604 16.295a3.26 3.26 0 0 1-3.26-3.259 3.26 3.26 0 0 1 3.26-3.259 3.26 3.26 0 0 1 3.259 3.259 3.26 3.26 0 0 1-3.259 3.259zM539.86 6.712a3.26 3.26 0 0 1-3.26-3.259 3.26 3.26 0 0 1 3.26-3.259 3.26 3.26 0 0 1 3.259 3.259 3.26 3.26 0 0 1-3.259 3.259zm-6.518 19.554a3.26 3.26 0 0 1-3.259-3.259c0-1.798 1.46-3.26 3.259-3.26a3.26 3.26 0 0 1 3.259 3.26 3.26 3.26 0 0 1-3.259 3.259z"/><path d="M538.662 33.222l.001.087.002.081.002.08.003.078.004.08.006.078.007.078.008.079.008.078.01.078.009.077.011.077.013.077.013.076.014.075.015.076.015.076.018.075.017.073.019.074.019.074.021.073.02.073.022.074.024.072.023.071.025.072.026.071.026.07.028.072.027.069.029.07.03.068.03.069.032.069.032.067.033.066.033.066.035.069.035.064.037.068.037.064.037.064.039.064.038.062.04.065.041.063.041.06.043.064.043.061.041.057.045.06.047.062.045.058.046.057.046.06.047.055.051.057.048.057.048.053.052.057.051.055.051.052.052.052.054.052.054.052.053.051.055.051.055.05.056.049.057.048.056.047.059.048.059.047.057.045.057.043.062.045.062.045.059.042.062.041.063.043.062.041.062.038.066.041.062.038.063.037.069.038.064.036.065.034.066.035.067.034.068.033.068.032.068.031.068.03.068.029.071.029.07.029.07.028.069.026.07.024.074.025.075.025.071.023.069.021.073.022.077.02.072.02.075.019.074.018.073.015.075.016.077.016.076.013.078.014.074.012.079.011.075.01.076.01.082.008.077.008.075.006.081.005.082.006.078.002.08.003.08.001.087.002h24.337v4.123h-24.35l-.126-.001-.134-.003-.132-.004-.133-.006-.128-.008-.129-.008-.135-.011-.132-.013-.123-.013-.131-.015-.13-.018-.128-.02-.129-.02-.127-.022-.126-.022-.125-.026-.125-.026-.128-.029-.124-.029-.125-.032-.122-.033-.12-.033-.124-.034-.125-.039-.121-.038-.118-.04-.118-.04-.12-.044-.118-.044-.119-.045-.116-.047-.115-.048-.117-.051-.113-.049-.117-.054-.111-.053-.113-.055-.111-.057-.11-.056-.113-.061-.108-.06-.106-.059-.107-.063-.11-.066-.103-.064-.106-.067-.106-.069-.1-.067-.103-.07-.103-.073-.099-.07-.099-.073-.101-.075-.099-.077-.096-.077-.093-.077-.098-.081-.093-.08-.092-.081-.092-.083-.091-.084-.089-.083-.09-.087-.088-.087-.086-.087-.087-.09-.084-.089-.082-.091-.084-.092-.083-.093-.078-.093-.081-.096-.077-.096-.078-.096-.076-.099-.073-.096-.074-.099-.074-.103-.072-.102-.068-.102-.069-.103-.067-.104-.066-.105-.066-.106-.065-.107-.062-.107-.062-.11-.059-.107-.06-.111-.057-.109-.056-.111-.056-.114-.054-.114-.052-.113-.051-.114-.049-.117-.049-.116-.046-.116-.046-.119-.044-.118-.042-.118-.041-.12-.04-.12-.039-.121-.037-.121-.036-.123-.034-.123-.033-.123-.03-.123-.03-.125-.028-.126-.026-.126-.026-.125-.023-.127-.022-.127-.02-.128-.019-.128-.018-.129-.015-.129-.014-.13-.012-.129-.011-.132-.01-.13-.007-.132-.005-.132-.004-.132-.003-.132-.001-.126v-46.077h4.123v46.064z"/></g><path d="M568.215-4.151h4.123v45.626h-4.123z" class="F"/><g fill="#eb744b"><rect x="590.918" y="-1.979" width="15.209" height="6.517" rx="3.257"/><path d="M596.349-4.151h4.345v11.95h-4.345z"/><g class="B"><path d="M603.954 7.796A3.26 3.26 0 0 0 603 5.494a3.25 3.25 0 0 0-2.304-.955h-4.349a3.26 3.26 0 0 0-3.258 3.257V7.8a3.26 3.26 0 0 0 .954 2.303c.612.61 1.439.954 2.304.954h4.349c.864 0 1.693-.344 2.304-.954a3.26 3.26 0 0 0 .954-2.303v-.004z"/></g></g><path d="M119.876 41.572a3.63 3.63 0 0 0-3.63-3.63H46.014c-.963 0-1.886.381-2.567 1.063a3.63 3.63 0 0 0-1.063 2.567v.003a3.63 3.63 0 0 0 1.063 2.567c.682.68 1.604 1.063 2.567 1.063h70.231c.962 0 1.886-.383 2.567-1.063a3.63 3.63 0 0 0 1.063-2.567v-.003z" class="B R"/><g class="F"><path d="M71.319 28.743l.002.097.001.088.003.091.003.087.005.089.006.089.008.087.009.086.009.087.011.088.011.085.012.085.014.085.015.086.015.084.017.085.017.084.018.083.02.082.022.085.021.081.023.083.023.081.025.079.026.082.026.079.027.08.029.08.03.079.03.077.031.078.032.078.034.077.033.076.036.077.035.075.037.073.038.075.038.076.04.073.038.072.043.074.042.072.043.07.042.071.045.068.046.071.046.07.046.068.047.067.049.069.051.068.049.064.05.066.052.064.054.066.052.063.054.061.055.064.055.062.055.061.057.06.058.059.058.059.06.059.06.059.06.055.061.056.061.056.061.053.063.054.066.055.064.052.063.051.066.05.067.051.068.05.066.048.067.047.069.048.071.046.068.046.071.044.07.043.072.043.071.041.073.042.074.041.07.038.075.038.077.039.075.037.074.035.078.035.075.034.076.032.077.032.078.032.08.031.079.029.077.028.08.027.081.028.081.026.081.024.08.023.081.023.084.022.082.02.082.019.084.02.085.017.084.017.084.015.086.016.086.013.083.013.087.01.087.011.086.009.089.01.086.006.087.006.09.006.088.003.088.003.091.002.096.001h5.331v4.596h-5.346l-.139-.002-.149-.003-.147-.004-.147-.007-.144-.009-.147-.009-.147-.012-.143-.014-.147-.015-.142-.019-.143-.018-.145-.022-.141-.022-.143-.023-.141-.028-.14-.028-.141-.029-.137-.03-.139-.034-.14-.035-.136-.036-.138-.038-.138-.04-.134-.041-.134-.043-.133-.044-.133-.045-.135-.049-.132-.049-.128-.05-.131-.052-.13-.054-.13-.057-.129-.056-.125-.059-.128-.059-.125-.062-.123-.061-.122-.064-.124-.068-.121-.066-.121-.068-.12-.071-.119-.07-.118-.072-.118-.075-.117-.077-.113-.075-.113-.078-.114-.08-.113-.081-.11-.081-.111-.083-.108-.084-.109-.088-.106-.087-.106-.087-.104-.089-.104-.092-.103-.092-.101-.093-.101-.095-.098-.095-.098-.097-.096-.098-.095-.098-.095-.101-.094-.103-.092-.101-.09-.102-.09-.106-.089-.106-.086-.107-.086-.107-.086-.109-.082-.112-.083-.11-.08-.11-.079-.114-.078-.116-.077-.113-.075-.115-.075-.118-.072-.118-.072-.12-.069-.119-.069-.12-.067-.122-.066-.124-.063-.123-.063-.124-.063-.126-.059-.127-.059-.125-.056-.129-.056-.129-.053-.128-.052-.131-.051-.131-.049-.132-.047-.132-.046-.133-.045-.135-.043-.133-.041-.137-.04-.136-.038-.138-.037-.136-.033-.138-.034-.139-.031-.14-.029-.139-.029-.141-.026-.143-.025-.14-.021-.143-.021-.142-.02-.144-.017-.144-.016-.144-.013-.146-.013-.145-.01-.146-.008-.147-.006-.147-.005-.147-.003-.147-.001-.141v-70.729h4.595v70.715z" class="B"/><path d="M100.379 28.757v.141l-.003.147-.005.148-.006.148-.009.145-.011.146-.011.145-.013.144-.017.146-.017.144-.019.142-.021.146-.023.141-.024.14-.026.143-.028.141-.029.139-.032.14-.033.139-.035.138-.037.136-.036.138-.04.136-.041.137-.043.133-.045.133-.046.135-.047.132-.049.132-.052.133-.052.129-.054.128-.055.129-.057.129-.058.125-.06.127-.061.126-.063.124-.064.124-.066.123-.068.121-.067.119-.07.121-.071.12-.073.118-.075.118-.076.115-.075.113-.078.115-.081.115-.08.11-.081.112-.084.11-.084.109-.086.109-.087.105-.088.106-.09.104-.09.104-.092.101-.094.103-.095.101-.095.098-.098.098-.096.097-.098.095-.101.095-.103.093-.103.094-.104.09-.104.089-.104.087-.107.087-.109.088-.109.084-.109.083-.11.081-.113.081-.115.08-.112.078-.115.075-.116.077-.117.073-.118.074-.121.072-.119.069-.12.068-.122.068-.124.066-.123.064-.121.061-.127.062-.127.059-.126.059-.128.058-.129.055-.13.054-.131.052-.128.05-.132.049-.135.049-.133.045-.133.044-.135.043-.135.041-.136.04-.138.038-.136.036-.14.035-.139.034-.138.03-.141.029-.141.028-.141.028-.141.023-.142.022-.144.022-.144.018-.143.019-.145.015-.144.014-.146.012-.147.009-.145.009-.148.007-.147.004-.147.003-.141.002h-5.346v-4.596h5.333l.096-.001.089-.002.089-.003.089-.003.089-.006.087-.006.087-.006.089-.01.084-.009.088-.011.087-.01.084-.013.086-.013.084-.016.086-.015.084-.017.083-.017.086-.02.082-.019.082-.02.082-.022.082-.023.079-.023.083-.024.081-.026.08-.028.081-.027.077-.028.078-.029.081-.031.078-.032.077-.031.076-.033.075-.034.077-.035.075-.035.073-.037.077-.039.075-.038.072-.04.074-.039.072-.042.072-.041.07-.043.071-.043.07-.044.069-.046.07-.046.071-.048.066-.047.067-.048.068-.05.065-.051.066-.05.065-.051.062-.052.066-.054.063-.055.063-.053.061-.056.06-.056.06-.055.059-.059.062-.059.056-.059.059-.059.056-.06.055-.061.057-.062.055-.062.052-.063.054-.065.054-.064.05-.064.051-.065.05-.067.049-.066.049-.069.048-.066.046-.069.047-.07.046-.071.043-.068.044-.071.042-.07.043-.072.041-.074.04-.073.04-.074.038-.074.037-.073.037-.075.035-.075.035-.077.034-.076.033-.077.033-.078.032-.08.029-.075.029-.079.029-.08.028-.078.026-.081.026-.082.024-.079.025-.081.021-.083.023-.083.02-.083.02-.082.018-.083.019-.084.017-.085.015-.082.014-.088.013-.085.013-.085.012-.085.011-.088.009-.086.008-.087.007-.087.006-.089.005-.089.005-.089.003-.089.001-.088v-.097-70.715h4.596v70.729z" class="B"/><path d="M117.33 28.757v.141l-.003.148-.004.147-.008.146-.008.147-.01.146-.013.145-.013.144-.016.146-.017.144-.02.144-.019.142-.023.143-.025.14-.026.141-.027.143-.031.139-.031.138-.032.141-.035.138-.037.138-.038.138-.039.134-.041.135-.043.135-.044.135-.046.132-.049.134-.049.132-.049.129-.054.132-.053.13-.056.127-.056.129-.059.125-.059.127-.061.126-.065.126-.063.122-.065.121-.068.123-.067.121-.071.119-.072.12-.072.118-.073.116-.077.117-.077.114-.078.114-.079.115-.08.11-.081.11-.086.112-.083.109-.085.107-.088.107-.089.106-.088.104-.092.104-.092.103-.092.101-.095.1-.095.099-.098.098-.098.098-.098.095-.101.094-.1.093-.103.091-.105.093-.104.089-.106.089-.106.085-.107.086-.11.086-.111.083-.11.081-.112.081-.113.08-.113.076-.115.078-.118.077-.118.074-.115.07-.118.072-.123.071-.121.068-.121.068-.122.064-.124.065-.123.062-.125.062-.128.059-.127.06-.127.057-.129.055-.13.054-.128.052-.134.05-.132.049-.131.048-.132.046-.135.044-.136.043-.135.041-.135.04-.138.038-.137.036-.138.035-.14.032-.138.032-.142.029-.139.029-.141.025-.141.025-.143.022-.144.022-.142.018-.146.019-.144.015-.142.014-.149.012-.145.009-.147.009-.146.007-.147.004-.149.003-.139.002H83.551v-4.596h22.284l.097-.001.089-.002.088-.003.089-.003.089-.006.087-.006.086-.006.089-.01.087-.009.086-.011.087-.01.085-.013.084-.013.086-.016.086-.015.084-.017.083-.017.084-.02.083-.018.082-.021.083-.022.08-.023.084-.024.08-.025.079-.024.08-.026.08-.028.081-.029.079-.031.077-.029.078-.03.077-.033.078-.033.075-.034.076-.035.075-.035.074-.037.077-.039.073-.038.074-.04.075-.039.07-.042.071-.04.072-.044.072-.045.07-.044.068-.044.068-.046.071-.048.067-.047.068-.048.067-.05.066-.049.064-.051.066-.052.065-.054.064-.053.063-.054.061-.052.061-.057.063-.056.06-.057.06-.058.058-.057.058-.058.057-.061.056-.06.059-.061.055-.062.053-.062.054-.063.054-.063.052-.064.052-.066.052-.066.047-.064.051-.068.049-.069.047-.067.046-.069.048-.069.044-.069.045-.07.044-.071.041-.072.043-.07.04-.072.041-.074.039-.075.04-.074.036-.073.037-.075.035-.075.036-.077.033-.076.034-.077.032-.078.031-.077.03-.079.031-.08.028-.077.027-.081.026-.079.026-.08.025-.083.024-.081.022-.081.021-.081.022-.085.02-.081.018-.086.018-.084.016-.081.017-.084.013-.088.014-.084.012-.086.013-.087.01-.086.01-.086.007-.087.008-.089.006-.087.005-.087.004-.089.003-.091.002-.088v-.097V-.805h4.595v29.562z" class="B"/><circle cx="121.086" cy="22.201" r="3.632"/><g class="B"><path d="M110.189 16.147c-2.004 0-3.632-1.627-3.632-3.632s1.628-3.632 3.632-3.632 3.634 1.627 3.634 3.632-1.628 3.632-3.634 3.632zm-16.95 7.265c-2.005 0-3.634-1.628-3.634-3.634s1.628-3.632 3.634-3.632 3.632 1.628 3.632 3.632-1.628 3.634-3.632 3.634zM87.183.407c-2.004 0-3.632-1.628-3.632-3.634s1.628-3.632 3.632-3.632 3.634 1.628 3.634 3.632A3.64 3.64 0 0 1 87.183.407zm-8.474 18.161c-2.005 0-3.634-1.628-3.634-3.632a3.64 3.64 0 0 1 3.634-3.634c2.006 0 3.632 1.628 3.632 3.634s-1.628 3.632-3.632 3.632zm-14.53-4.843c-2.005 0-3.634-1.627-3.634-3.632s1.628-3.632 3.634-3.632 3.632 1.627 3.632 3.632-1.628 3.632-3.632 3.632zM42.384 20.99c-2.005 0-3.632-1.628-3.632-3.632s1.627-3.634 3.632-3.634 3.632 1.628 3.632 3.634-1.627 3.632-3.632 3.632z"/><path d="M48.314 28.743l.001.097.002.09.003.089.003.087.005.089.006.087.007.088.01.087.009.087.01.088.011.085.012.086.014.086.015.084.016.084.017.085.016.084.02.084.019.081.021.083.022.083.023.081.023.081.024.083.026.08.026.079.028.08.029.08.029.078.031.079.03.077.032.078.034.077.034.076.035.077.035.075.037.073.037.074.04.077.038.072.041.075.042.072.041.07.043.072.043.069.044.072.046.07.046.068.048.07.047.069.046.063.051.067.052.069.05.065.051.064.052.066.052.061.057.065.053.062.054.06.058.063.057.061.056.058.059.059.059.058.06.058.06.057.061.056.061.056.063.055.063.053.063.052.066.054.066.052.062.051.065.047.069.051.069.05.066.046.068.046.071.048.069.046.069.042.073.046.069.042.071.041.076.043.072.04.072.038.074.038.075.039.075.037.077.035.075.035.076.034.075.032.08.032.078.032.078.031.077.029.078.028.083.027.082.028.08.026.077.023.081.024.086.023.081.022.082.021.083.02.081.017.085.018.085.017.085.015.087.016.083.013.087.013.084.01.085.011.091.009.086.01.083.006.09.006.092.006.088.003.088.003.089.002.097.001h27.126v4.596h-27.14l-.141-.002-.148-.003-.148-.004-.148-.007-.143-.009-.144-.009-.15-.012-.147-.014-.138-.015-.145-.017-.146-.02-.142-.022-.144-.022-.141-.025-.141-.025-.139-.029-.14-.029-.142-.032-.138-.032-.14-.035-.136-.037-.133-.037-.138-.038-.139-.043-.135-.043-.132-.044-.132-.045-.133-.049-.132-.049-.133-.05-.129-.052-.128-.054-.131-.057-.125-.055-.13-.06-.124-.059-.126-.062-.124-.062-.123-.063-.125-.068-.121-.067-.118-.066-.12-.07-.122-.074-.115-.07-.118-.075-.118-.077-.112-.075-.115-.078-.115-.081-.11-.079-.11-.081-.112-.084-.11-.086-.108-.086-.104-.085-.109-.091-.104-.089-.102-.09-.103-.092-.101-.093-.1-.094-.099-.096-.098-.097-.097-.098-.096-.099-.094-.1-.092-.101-.093-.103-.092-.104-.087-.102-.091-.108-.086-.107-.087-.107-.084-.11-.081-.108-.083-.11-.083-.115-.079-.113-.077-.114-.077-.114-.075-.117-.073-.116-.074-.118-.072-.12-.069-.119-.069-.123-.065-.119-.068-.124-.063-.121-.062-.124-.063-.128-.06-.127-.058-.125-.057-.128-.055-.13-.054-.128-.052-.131-.05-.131-.049-.132-.048-.132-.046-.133-.044-.135-.043-.135-.041-.135-.04-.136-.039-.138-.036-.136-.034-.138-.034-.139-.03-.14-.03-.141-.029-.139-.026-.141-.024-.142-.022-.143-.021-.142-.02-.144-.017-.144-.015-.144-.014-.144-.012-.147-.011-.146-.008-.147-.006-.147-.004-.147-.003-.147-.002-.141v-51.356h4.596v51.342z"/></g><path d="M81.253-12.912h4.596v50.854h-4.596z"/></g><g fill="#eb744b"><path d="M112.611-12.912h4.843V.407h-4.843z"/><path d="M121.086.404a3.63 3.63 0 0 0-1.063-2.566c-.68-.682-1.604-1.065-2.567-1.065h-4.847c-.964 0-1.886.383-2.567 1.065a3.63 3.63 0 0 0-1.063 2.566v.005a3.63 3.63 0 0 0 1.063 2.567c.682.68 1.604 1.063 2.567 1.063h4.847a3.63 3.63 0 0 0 2.567-1.063c.68-.682 1.063-1.604 1.063-2.567V.404z" class="B"/></g><g clip-path="url(#C)"><use href="#S" class="S"/><path d="M1271.406-33.65l61.625,61.625c8.172,8.172,19.256,12.763,30.812,12.763h25.526c24.066,0,43.575,19.509,43.575,43.575h0c0,24.066-19.509,43.575-43.575,43.575h-251.166c-33.01,0-63.187-18.65-77.95-48.176h0c-28.973-57.947,13.164-126.126,77.95-126.126h102.39c11.557,0,22.64,4.591,30.812,12.763Z" fill="#61d2d6"/><g stroke="#fff" stroke-width="5.453" class="C I V"><path style="mix-blend-mode:overlay" d="M1153.606 34.104h-49.528m226.975 8.564h-49.528m-112.936-8.564h22.81m209.474 24.224h-11.405m-141.482-44.549h-22.81m67.754 41.099h-22.81" opacity=".35"/></g></g><use href="#S" class="C I L N O T"/><g class="B"><path d="M1217.89-9.709h-74.818v9.304c0 5.121 2.025 10.03 5.656 13.65 3.609 3.62 8.516 5.653 13.643 5.653h36.221c5.105 0 10.012-2.033 13.643-5.653a19.35 19.35 0 0 0 5.655-13.65v-9.304z" class="S"/><path d="M1217.89-9.709c0-10.329-8.384-18.705-18.705-18.705h-37.409a18.7 18.7 0 0 0-18.705 18.705h0a18.7 18.7 0 0 0 18.705 18.705h37.409c10.321 0 18.705-8.373 18.705-18.705h0z" fill="#f6d485"/></g><use href="#T" class="U"/><g clip-path="url(#D)" class="B"><use href="#U" fill="#57423a"/></g><path d="M1180.037 70.632c0 6.916 2.747 13.551 7.639 18.443s11.527 7.639 18.447 7.639h26.236V79.471c0-6.919-2.747-13.555-7.639-18.447a26.1 26.1 0 0 0-18.447-7.639h-26.236v17.246z" class="B P"/><g clip-path="url(#E)"><path d="M1180.037 53.385l58.387 49.947h-58.387V53.385z" class="B D"/><use href="#V" class="J"/><g class="B"><g class="G"><path d="M1210.557 99.539h-6.54V88.538a3.27 3.27 0 0 1 6.54 0v11.001zm-13.08.484h-6.54V78.316c0-1.805 1.462-3.267 3.267-3.267h.007c1.805 0 3.267 1.462 3.267 3.267v21.707z" class="E"/></g><g class="D"><use href="#W" class="K"/><path d="M1232.358,65.648v-6.54h-19.624c-1.805,0-3.267,1.462-3.267,3.267v.007c0,1.805,1.462,3.267,3.267,3.267h19.624Z" class="K"/></g></g></g><path d="M1180.037 70.632c0 6.916-2.747 13.551-7.639 18.443s-11.527 7.639-18.447 7.639h-26.236V79.471c0-6.919 2.747-13.555 7.639-18.447a26.1 26.1 0 0 1 18.447-7.639h26.236v17.246z" class="B P"/><g clip-path="url(#F)"><path d="M1180.037 53.385l-58.388 49.947h58.388V53.385z" class="B D"/><use href="#X" class="J"/><g class="B"><g class="G"><path d="M1149.516 99.539h6.54V88.538a3.27 3.27 0 0 0-6.54 0v11.001zm13.08.484h6.54V78.319c0-.867-.343-1.697-.958-2.312s-1.445-.958-2.312-.958-1.7.347-2.312.958a3.27 3.27 0 0 0-.958 2.312v21.704z" class="E"/></g><g class="D"><use href="#Y" class="K"/><use href="#Z" class="K"/></g></g></g><use href="#a" class="B J"/><g clip-path="url(#G)"><path d="M1180.051 51.4h24.723v46.924h-24.723z" class="D"/><path d="M1176.768 48.662h6.54v57.037h-6.54z" fill="#d8df62"/><g class="E D"><use href="#b"/></g><g class="E G"><use href="#c"/></g><path d="M1156.85 92.188a3.27 3.27 0 0 1-2.738-1.475c-.992-1.512-.571-3.538.941-4.528l13.293-8.72c1.512-.996 3.538-.566 4.526.939.992 1.512.571 3.538-.941 4.528l-13.293 8.72c-.554.364-1.175.536-1.788.536z" class="D E"/><g class="E G"><path d="M1203.223 92.188a3.24 3.24 0 0 1-1.788-.536l-13.289-8.72a3.27 3.27 0 0 1-.941-4.528c.988-1.505 3.002-1.937 4.526-.939l13.289 8.72a3.27 3.27 0 0 1 .941 4.528c-.626.956-1.673 1.475-2.738 1.475z"/></g></g><path d="M1158.341 125.782h44.55" class="I L N O Q T"/><path d="M1425.912-51.799h-19.544l-5.296 48.37a4.53 4.53 0 0 0 4.503 5.023h21.227a4.53 4.53 0 0 0 4.502-5.031l-5.391-48.361z" class="U"/><g class="B"><path d="M1353.145 4.63h.004a34.63 34.63 0 0 0 23.919-9.59l7.445-7.117c6.799-6.496 17.558-6.31 24.13.416l6.21 6.36c6.202 6.351 14.707 9.931 23.581 9.931h.004-85.293z" class="Q"/><path d="M784.51 73.48a3.66 3.66 0 0 0-1.074-2.591c-.687-.688-1.62-1.075-2.593-1.075h-26.902c-.973 0-1.906.387-2.593 1.075s-1.074 1.62-1.074 2.591v.005c0 .973.385 1.904 1.074 2.593a3.67 3.67 0 0 0 2.593 1.074h26.902a3.67 3.67 0 0 0 2.593-1.074c.688-.688 1.074-1.62 1.074-2.593v-.005z" class="M"/><g class="F"><path d="M760.057 66.145a3.67 3.67 0 0 0-3.667-3.667h-.005c-.971 0-1.904.387-2.591 1.074a3.67 3.67 0 0 0-1.075 2.593v3.92c0 1.231.489 2.412 1.36 3.281a4.64 4.64 0 0 0 3.281 1.36h2.696v-8.561zm14.672-4.891c0-2.025-1.641-3.666-3.666-3.666h-.005c-2.025 0-3.666 1.641-3.666 3.666v13.452h7.337V61.254z"/><path d="M767.392 61.254c0-2.025-1.641-3.666-3.666-3.666h-.003c-2.025 0-3.666 1.641-3.666 3.666v13.452h7.335V61.254zm14.673 4.891c0-.973-.385-1.904-1.074-2.593a3.67 3.67 0 0 0-2.593-1.074h-.003a3.67 3.67 0 0 0-3.667 3.667v8.561h2.695a4.64 4.64 0 0 0 4.64-4.641v-3.92z"/></g><path d="M841.619 132.171a3.67 3.67 0 0 0-1.075-2.593c-.687-.687-1.62-1.074-2.591-1.074h-41.576a3.67 3.67 0 0 0-3.667 3.667v.003a3.67 3.67 0 0 0 1.074 2.593c.688.688 1.62 1.074 2.593 1.074h41.576a3.66 3.66 0 0 0 2.591-1.074c.688-.687 1.075-1.62 1.075-2.593v-.003z" class="M"/><g class="F"><path d="M802.492 124.834a3.66 3.66 0 0 0-1.074-2.591c-.687-.688-1.62-1.075-2.593-1.075h-.003c-.973 0-1.906.387-2.593 1.075a3.67 3.67 0 0 0-1.074 2.591v3.921c0 1.23.489 2.41 1.358 3.281a4.64 4.64 0 0 0 3.283 1.36h2.695v-8.562zm14.672-7.336c0-2.025-1.641-3.666-3.666-3.666h-.003c-2.025 0-3.666 1.641-3.666 3.666v15.897h7.335v-15.897z"/><path d="M824.501,117.498c0-2.025-1.641-3.666-3.666-3.666h-.005c-2.025,0-3.666,1.641-3.666,3.666v15.897h7.337v-15.897Z"/><path d="M831.836 119.944c0-2.025-1.641-3.666-3.666-3.666h-.003c-2.025 0-3.666 1.641-3.666 3.666v13.452h7.335v-13.452zm-22.007 0c0-2.025-1.641-3.666-3.666-3.666h-.005c-2.025 0-3.666 1.641-3.666 3.666v13.452h7.337v-13.452z"/><path d="M839.173 124.834c0-.971-.387-1.904-1.074-2.591a3.67 3.67 0 0 0-2.593-1.075h-.005a3.67 3.67 0 0 0-2.593 1.075c-.687.687-1.074 1.62-1.074 2.591v8.562h2.696a4.64 4.64 0 0 0 4.641-4.641v-3.921z"/></g><path d="M768.02 108.939a3.64 3.64 0 0 0-1.083-2.591 3.63 3.63 0 0 0-2.583-1.075h-41.581c-.975 0-1.903.387-2.583 1.075a3.64 3.64 0 0 0-1.083 2.591v.005c0 .973.387 1.904 1.083 2.593.681.687 1.609 1.074 2.583 1.074h41.581a3.63 3.63 0 0 0 2.583-1.074 3.64 3.64 0 0 0 1.083-2.593v-.005z" class="M"/><g class="F"><path d="M728.884 101.604c0-.973-.371-1.904-1.067-2.593-.681-.687-1.624-1.074-2.599-1.074h0a3.63 3.63 0 0 0-2.583 1.074 3.64 3.64 0 0 0-1.083 2.593v3.92c0 1.231.495 2.412 1.361 3.281a4.64 4.64 0 0 0 3.279 1.36h2.692v-8.561z"/><use href="#d"/><path d="M750.896 94.267c0-2.023-1.64-3.666-3.666-3.666h0c-2.027 0-3.666 1.643-3.666 3.666v15.897h7.332V94.267z"/><path d="M758.229 96.713c0-2.025-1.64-3.666-3.666-3.666h0c-2.027 0-3.666 1.641-3.666 3.666v13.452h7.332V96.713zm-21.997 0c0-2.025-1.64-3.666-3.666-3.666h-.015c-2.011 0-3.666 1.641-3.666 3.666v13.452h7.348V96.713z"/><path d="M765.576 101.604c0-.973-.387-1.904-1.083-2.593-.681-.687-1.609-1.074-2.583-1.074h-.015c-.959 0-1.903.387-2.583 1.074a3.64 3.64 0 0 0-1.083 2.593v8.561h2.707a4.64 4.64 0 0 0 3.279-1.36c.866-.869 1.361-2.05 1.361-3.281v-3.92z"/></g><path d="M831.891 97.935c0-.971-.385-1.904-1.074-2.593a3.67 3.67 0 0 0-2.593-1.074H786.65a3.67 3.67 0 0 0-2.593 1.074c-.688.688-1.074 1.621-1.074 2.593v.005a3.66 3.66 0 0 0 1.074 2.591c.687.688 1.62 1.075 2.593 1.075h41.574c.973 0 1.906-.387 2.593-1.075s1.074-1.62 1.074-2.591v-.005z" class="M"/><g class="F"><path d="M792.766 90.599a3.67 3.67 0 0 0-1.074-2.593c-.688-.688-1.621-1.074-2.593-1.074h-.005a3.66 3.66 0 0 0-2.591 1.074c-.688.687-1.075 1.62-1.075 2.593v3.92a4.64 4.64 0 0 0 4.641 4.641h2.696v-8.561zm14.672-7.337c0-2.025-1.641-3.666-3.666-3.666h-.005c-2.025 0-3.666 1.641-3.666 3.666v15.897h7.337V83.262z"/><path d="M814.773 83.262c0-2.025-1.641-3.666-3.666-3.666h-.003c-2.025 0-3.666 1.641-3.666 3.666v15.897h7.335V83.262z"/><path d="M822.11 85.708c0-2.025-1.641-3.666-3.666-3.666h-.005c-2.025 0-3.666 1.641-3.666 3.666V99.16h7.337V85.708zm-22.009 0c0-2.025-1.641-3.666-3.666-3.666h-.003c-2.025 0-3.666 1.641-3.666 3.666V99.16h7.335V85.708z"/><path d="M829.446 90.599a3.66 3.66 0 0 0-1.074-2.593c-.687-.688-1.62-1.074-2.593-1.074h-.003c-.973 0-1.904.385-2.593 1.074a3.67 3.67 0 0 0-1.074 2.593v8.561h2.695c1.231 0 2.412-.489 3.283-1.36s1.358-2.051 1.358-3.281v-3.92z"/></g><path d="M1444.672 114.128c1.297 0 2.528-.571 3.366-1.562s1.197-2.299.981-3.578l-10.987-65.26c-.433-2.57-2.657-4.448-5.264-4.448h-17.772a5.34 5.34 0 0 0-5.242 4.326l-8.984 46.5-16.312 4.661c-1.505.43-2.742 1.49-3.389 2.915l-9.496 20.892a4.41 4.41 0 0 0 4.013 6.233h32.515c2.143 0 4.198-.851 5.713-2.367l5.944-5.944a8.08 8.08 0 0 1 5.713-2.367h19.201z" fill="#e79c43"/></g><g clip-path="url(#H)" class="B"><path d="M1411.447,108.789c0-2.948,2.39-5.338,5.338-5.338s5.338,2.39,5.338,5.338v16.015h-10.677v-16.015Z" fill="#e38d32"/></g><g class="B"><path d="M39.35 106.248a2.32 2.32 0 0 0-2.32-2.32H23.108a2.32 2.32 0 0 0 0 4.64H37.03a2.32 2.32 0 0 0 2.32-2.32h0z" class="R"/><g class="F"><path d="M30.177 90.009l.092.006.109.012.108.017.093.02.108.027.093.029.108.034.093.039.093.043.093.048.092.051.078.056.093.058.077.064.093.066.062.07.077.074.077.078.062.078.062.084.062.085.062.088.046.091.047.093.046.095.031.096.031.099.031.099.031.102.015.102.016.102.015.103.016.104v.104 11.719.105l-.016.104-.015.104-.016.102-.015.102-.031.1-.031.101-.031.097-.031.098-.046.094-.047.093-.046.091-.062.088-.062.085-.062.084-.062.079-.077.077-.077.073-.062.071-.093.067-.077.063-.093.059-.078.055-.092.052-.093.047-.093.044-.093.038-.108.035-.093.029-.108.026-.093.02-.108.017-.109.011-.092.008-.109.001-.108-.001-.108-.008-.093-.011-.108-.017-.109-.02-.093-.026-.108-.029-.093-.035-.092-.038-.093-.044-.093-.047-.093-.052-.093-.055-.077-.059-.093-.063-.077-.067-.078-.071-.077-.073-.062-.077-.062-.079-.077-.084-.046-.085-.062-.088-.047-.091-.046-.093-.046-.094-.047-.098-.031-.097-.031-.101-.015-.1-.031-.102-.016-.102-.015-.104v-.104-.105-11.719-.104-.104l.015-.103.016-.102.031-.102.015-.102.031-.099.031-.099.047-.096.046-.095.046-.093.047-.091.062-.088.046-.085.077-.084.062-.078.062-.078.077-.074.078-.07.077-.066.093-.064.077-.058.093-.056.093-.051.093-.048.093-.043.092-.039.093-.034.108-.029.093-.027.109-.02.108-.017.093-.012.108-.006.108-.004.109.004z"/><path d="M23.092 94.651l.077.004.077.01.093.011.078.013.077.017.077.021.078.021.077.025.077.028.078.031.062.032.077.036.077.038.062.041.077.041.062.047.062.048.062.049.062.051.062.055.062.057 7.085 7.078.046.058.062.06.046.062.047.065.061.065.031.066.047.07.046.069.031.072.047.072.031.075.03.075.016.076.031.078.031.077.015.079.016.079.015.08.016.079v.082.08l.015.081v.08l-.015.082v.081.08l-.016.081-.015.08-.016.079-.015.079-.031.077-.031.078-.016.075-.03.075-.031.074-.047.073-.031.072-.046.07-.047.068-.031.068-.061.065-.047.063-.046.062-.062.061-.046.058-.062.056-.062.054-.062.053-.062.049-.062.048-.077.045-.062.043-.077.041-.062.038-.078.036-.077.032-.077.031-.078.028-.062.025-.092.022-.078.02-.077.017-.077.014-.078.01-.077.01-.077.004-.093.003h-.078l-.077-.003-.077-.004-.093-.01-.077-.01-.078-.014-.077-.017-.078-.02-.077-.022-.077-.025-.077-.028-.078-.031-.077-.032-.062-.036-.077-.038-.078-.041-.062-.043-.062-.045-.077-.048-.062-.049-.062-.053-.062-.054-.046-.056-7.085-7.078-.062-.059-.046-.059-.046-.063-.062-.064-.047-.065-.046-.068-.046-.068-.031-.069-.047-.073-.031-.073-.031-.072-.031-.076-.031-.076-.015-.077-.031-.078-.015-.079-.016-.079-.015-.08-.016-.08v-.081l-.015-.08v-.081-.082-.08l.015-.081v-.08l.016-.08.015-.081.016-.079.015-.079.031-.077.015-.077.031-.076.031-.076.031-.073.031-.074.047-.071.031-.07.046-.068.046-.068.047-.065.062-.065.046-.062.046-.06.062-.057.062-.057.062-.055.062-.051.062-.049.062-.048.062-.047.077-.041.062-.041.077-.038.077-.036.062-.032.078-.031.077-.028.077-.025.078-.021.077-.021.077-.017.093-.013.078-.011.077-.01.077-.004.078-.003h.092l.078.003z"/><path d="M37.277 94.651l.093.004.077.01.077.011.078.013.077.017.077.021.078.021.077.025.077.028.078.031.077.032.077.036.062.038.078.041.061.041.078.047.062.048.062.049.062.051.061.055.062.057.047.057.062.06.046.062.046.065.047.065.046.068.046.068.047.07.031.071.046.074.031.073.031.076.016.076.031.077.015.077.031.079.015.079.016.081v.08l.015.08v.081l.016.08v.082l-.016.081v.08l-.015.081v.08l-.016.08-.015.079-.031.079-.015.078-.031.077-.016.076-.031.076-.031.072-.046.073-.031.073-.047.069-.046.068-.046.068-.047.065-.046.064-.046.063-.062.059-.047.059-7.085 7.078-.061.056-.062.054-.062.053-.062.049-.062.048-.062.045-.077.043-.062.041-.077.038-.078.036-.062.032-.077.031-.077.028-.078.025-.077.022-.077.02-.078.017-.092.014-.078.01-.077.01-.078.004-.077.003h-.093l-.077-.003-.077-.004-.078-.01-.077-.01-.093-.014-.077-.017-.078-.02-.077-.022-.077-.025-.078-.028-.077-.031-.062-.032-.077-.036-.078-.038-.061-.041-.078-.043-.062-.045-.061-.048-.062-.049-.062-.053-.062-.054-.062-.056-.062-.058-.046-.061-.062-.062-.047-.063-.046-.065-.046-.068-.047-.068-.031-.07-.046-.072-.031-.073-.031-.074-.031-.075-.031-.075-.015-.078-.031-.077-.016-.079-.015-.079-.016-.08-.015-.081v-.08l-.016-.081v-.082-.08-.081l.016-.08v-.082l.015-.079.016-.08.015-.079.016-.079.031-.077.015-.078.031-.076.031-.075.031-.075.031-.072.046-.072.031-.069.047-.07.046-.066.046-.065.047-.065.062-.062.046-.06.062-.058 7.069-7.078.062-.057.062-.055.062-.051.062-.049.077-.048.062-.047.062-.041.077-.041.062-.038.078-.036.077-.032.077-.031.078-.028.077-.025.077-.021.078-.021.077-.017.077-.013.078-.011.077-.01.093-.004.077-.003h.077l.078.003z"/></g></g><path d="M638.277 110.854h-19.544l-5.296 48.37a4.53 4.53 0 0 0 4.503 5.023h21.227a4.53 4.53 0 0 0 4.502-5.031l-5.391-48.361z" class="U"/><g clip-path="url(#I)" class="B"><path d="M628.568 145.819l-15.977-11.643c-8.825-6.431-9.822-19.222-2.101-26.943l5.589-5.589h24.977l5.589 5.589c7.721 7.721 6.724 20.512-2.101 26.943l-15.977 11.643z" fill="#57423a"/></g><path d="M628.553 109.096c0 6.916 2.747 13.551 7.639 18.443s11.527 7.639 18.447 7.639h26.236v-17.243c0-6.919-2.747-13.555-7.639-18.447a26.1 26.1 0 0 0-18.447-7.639h-26.236v17.246z" class="B P"/><g clip-path="url(#J)"><path d="M628.553 91.85l58.388 49.947h-58.388V91.85z" class="B D"/><path d="M626.484 94.39l4.134-5.066 52.328 42.7-4.134 5.066z" class="J"/><g class="B"><g class="G"><path d="M659.074 138.004h-6.54v-11.001a3.27 3.27 0 0 1 6.54 0v11.001zm-13.08.484h-6.54v-21.707c0-1.805 1.462-3.267 3.267-3.267h.007c1.805 0 3.267 1.462 3.267 3.267v21.707z" class="E"/></g><g class="D"><path d="M680.875 116.847v-6.194h-9.984a3.1 3.1 0 0 0-2.191.909c-.579.579-.906 1.367-.906 2.188h0c0 .824.327 1.609.906 2.191a3.09 3.09 0 0 0 2.191.906h9.984zm0-12.734v-6.54h-19.624c-1.805 0-3.267 1.462-3.267 3.267v.007c0 1.805 1.462 3.267 3.267 3.267h19.624z" class="K"/></g></g></g><path d="M628.553 109.096c0 6.916-2.747 13.551-7.639 18.443s-11.527 7.639-18.447 7.639h-26.236v-17.243c0-6.919 2.747-13.555 7.639-18.447a26.1 26.1 0 0 1 18.447-7.639h26.236v17.246z" class="B P"/><g clip-path="url(#K)"><path d="M628.553 91.85l-58.387 49.947h58.387V91.85z" class="B D"/><path d="M574.164 132.025l52.322-42.708 4.135 5.066-52.322 42.708z" class="J"/><g class="B"><g class="G"><path d="M598.032 138.004h6.54v-11.001a3.27 3.27 0 0 0-6.54 0v11.001zm13.081.484h6.54v-21.704c0-.867-.343-1.697-.958-2.312s-1.445-.958-2.312-.958-1.7.347-2.312.958a3.27 3.27 0 0 0-.958 2.312v21.704z" class="E"/></g><g class="D"><path d="M576.232 117.193v-6.54h9.814c.867 0 1.697.343 2.309.958a3.25 3.25 0 0 1 .958 2.309v.007c0 .867-.343 1.697-.958 2.312s-1.442.955-2.309.955h-9.814zm0-13.08v-6.54h19.62c.867 0 1.7.347 2.312.958a3.27 3.27 0 0 1 .958 2.312 3.26 3.26 0 0 1-3.27 3.27h-19.62z" class="K"/></g></g></g><path d="M628.568 135.179l-15.671-11.42c-8.655-6.308-9.634-18.854-2.061-26.427l5.482-5.482h24.499l5.482 5.482c7.573 7.573 6.595 20.119-2.061 26.427l-15.671 11.42z" class="B J"/><g clip-path="url(#L)"><path d="M628.568 89.865h24.723v46.924h-24.723z" class="D"/><path d="M625.285 87.126h6.54v57.037h-6.54z" fill="#d8df62"/><g class="E D"><path d="M605.366 115.742a3.27 3.27 0 0 1-2.738-1.475c-.992-1.512-.571-3.538.941-4.528l13.293-8.72c1.512-.996 3.538-.566 4.526.939.992 1.512.571 3.538-.941 4.528l-13.293 8.72c-.554.364-1.175.536-1.788.536z"/></g><g class="E G"><path d="M651.739 115.742a3.24 3.24 0 0 1-1.788-.536l-13.289-8.72a3.27 3.27 0 0 1-.941-4.528c.988-1.505 3.002-1.937 4.526-.939l13.289 8.72a3.27 3.27 0 0 1 .941 4.528c-.626.956-1.673 1.475-2.738 1.475z"/></g><path d="M605.366 130.653a3.27 3.27 0 0 1-2.738-1.475c-.992-1.512-.571-3.538.941-4.528l13.293-8.72c1.512-.996 3.538-.566 4.526.939.992 1.512.571 3.538-.941 4.528l-13.293 8.72c-.554.364-1.175.536-1.788.536z" class="D E"/><g class="E G"><path d="M651.739 130.653a3.24 3.24 0 0 1-1.788-.536l-13.289-8.72a3.27 3.27 0 0 1-.941-4.528c.988-1.505 3.002-1.937 4.526-.939l13.289 8.72a3.27 3.27 0 0 1 .941 4.528c-.626.956-1.673 1.475-2.738 1.475z"/></g></g><g clip-path="url(#M)"><use href="#e" class="S"/><path d="M529.766,83.88l-44.585,44.585c-5.912,5.912-13.931,9.234-22.292,9.234h-18.468c-17.411,0-31.526,14.115-31.526,31.526h0c0,17.411,14.115,31.526,31.526,31.526h181.714c23.882,0,45.715-13.493,56.395-34.854h0c20.962-41.924-9.524-91.25-56.395-91.25h-74.078c-8.361,0-16.38,3.321-22.292,9.234Z" fill="#61d2d6"/><g stroke="#fff" stroke-width="3.945" class="C I V"><path style="mix-blend-mode:overlay" d="M593.847 88.757h47.181m-19.48 9.839h35.832m-46.266 34.348h35.832m-164.212 6.196h35.832m81.708-6.196h-16.503m-40.94-14.704h16.503" opacity=".35"/></g></g><use href="#e" class="C I L N O T"/><g class="B"><path d="M442.379 154.456a13.54 13.54 0 0 1 13.532-13.532h27.065a13.53 13.53 0 0 1 13.532 13.532h0a13.53 13.53 0 0 1-13.532 13.532h-27.065a13.54 13.54 0 0 1-13.532-13.532h0z" fill="#f6d485"/><path d="M487 143.273c-.89-.89-2.093-1.389-3.35-1.389s-2.459.499-3.35 1.389a4.73 4.73 0 0 0-1.386 3.347v-6.314c0-1.257-.499-2.459-1.386-3.347s-2.093-1.389-3.35-1.389-2.459.499-3.35 1.389a4.73 4.73 0 0 0-1.386 3.347c0-1.257-.499-2.459-1.386-3.347s-2.093-1.389-3.35-1.389-2.459.499-3.35 1.389a4.73 4.73 0 0 0-1.386 3.347v6.314c0-1.256-.499-2.459-1.386-3.347s-2.093-1.389-3.35-1.389-2.459.499-3.35 1.389a4.73 4.73 0 0 0-1.386 3.347v3.157c0 4.36 3.533 7.892 7.893 7.892h22.1c4.36 0 7.892-3.533 7.892-7.892v-3.157c0-1.256-.499-2.459-1.386-3.347z" fill="#3d9056"/><path d="M944.024,121.066c0-1.39-1.124-2.517-2.517-2.517h-15.103c-1.393,0-2.517,1.128-2.517,2.517s1.124,2.517,2.517,2.517h15.103c1.393,0,2.517-1.126,2.517-2.517h0Z" fill="#e59a63"/><path d="M944.158 110.866v-.087l-.016-.087v-.088l-.017-.087-.017-.085-.034-.086-.016-.084-.034-.084-.017-.082-.033-.082-.034-.079-.05-.081-.034-.077-.05-.076-.05-.073-.051-.074-.05-.071-.051-.07-.05-.067-.067-.066-.05-.062-.068-.062-.067-.059-.067-.055-.067-.054-.067-.052-.084-.05-.067-.046-.084-.043-.067-.042-.084-.039-.084-.035-.084-.033-.084-.031-.084-.027-.083-.023-.084-.022-.084-.018-.084-.015-.084-.012-.084-.01-.101-.005-.084-.004h-.084l-.084.004-.1.005-.084.01-.084.012-.084.015-.084.018-.084.022-.084.023-.084.027-.083.031-.084.033-.084.035-.084.039-.067.042-.084.043-.067.046-.067.05-.084.052-.068.054-.067.055-.067.059-.067.062-3.39 3.394v-6.649-.113l-.017-.113-.016-.112-.017-.111-.017-.11-.033-.111-.034-.108-.034-.107-.033-.104-.051-.102-.05-.101-.05-.099-.067-.096-.067-.092-.068-.091-.067-.085-.084-.084-.084-.081-.067-.075-.1-.072-.084-.069-.101-.064-.084-.06-.101-.056-.1-.052-.101-.047-.101-.042-.117-.037-.101-.031-.117-.029-.101-.022-.117-.018-.118-.014-.101-.006-.117-.004-.118.004-.117.006-.101.014-.117.018-.118.022-.1.029-.118.031-.101.037-.1.042-.101.047-.101.052-.1.056-.101.06-.084.064-.101.069-.083.072-.084.075-.084.081-.067.084-.068.085-.083.091-.051.092-.067.096-.05.099-.051.101-.05.102-.05.104-.034.107-.033.108-.017.111-.034.11-.016.111-.017.112v.113.113 6.659l-3.407-3.404-.067-.062-.067-.059-.067-.055-.068-.054-.067-.052-.067-.05-.084-.046-.067-.043-.084-.042-.084-.039-.067-.035-.084-.033-.084-.031-.084-.027-.083-.023-.084-.022-.084-.018-.084-.015-.101-.012-.084-.01-.084-.005-.084-.004h-.1l-.084.004-.084.005-.084.01-.084.012-.101.015-.083.018-.084.022-.084.023-.084.027-.084.031-.084.033-.067.035-.084.039-.084.042-.067.043-.084.046-.067.05-.067.052-.068.054-.067.055-.067.059-.067.062-.067.062-.05.066-.051.067-.067.07-.05.071-.05.074-.051.073-.033.076-.051.077-.033.081-.034.079-.033.082-.034.082-.017.084-.033.084-.017.086-.017.085-.017.087-.016.088v.087l-.017.087v.087.089.088l.017.087v.087l.016.087.017.088.017.085.017.086.033.084.017.084.034.082.033.082.034.079.033.079.051.079.033.075.051.074.05.074.05.07.067.069.051.069.05.064.067.063 7.686 7.68.051.06.067.059.067.057.067.054.084.052.067.049.067.046.084.044.084.042.067.039.084.035.084.033.084.031.084.027.084.023.083.022.084.018.084.015.084.012.101.01.084.005.021.001.012.001h.018l.033.002h.033.051.05l.033-.002h.017l.01-.001.024-.001.084-.005.084-.01.084-.012.1-.015.084-.018.084-.022.084-.023.084-.027.084-.031.084-.033.067-.035.084-.039.084-.042.067-.044.084-.046.067-.049.067-.052.067-.054.067-.057.067-.059.068-.06 7.686-7.68.05-.063.067-.064.05-.069.051-.069.05-.07.051-.074.05-.074.05-.075.034-.079.05-.079.034-.079.033-.082.017-.082.034-.084.016-.084.034-.086.017-.085.017-.088v-.087l.016-.087v-.087l.017-.088v-.089l-.017-.087z" fill="#90a82d"/></g></g></svg>