<svg xmlns="http://www.w3.org/2000/svg" width="1500" height="145" xmlns:v="https://vecta.io/nano"><style><![CDATA[.B{fill-rule:evenodd}.C{fill:#fff}.D{fill:none}.E{fill:#bee23b}.F{clip-rule:evenodd}.G{stroke-linecap:round}.H{stroke-linejoin:round}.I{stroke-width:10}.J{opacity:.678}.K{fill:#d1e2e9}.L{fill:#dcebf1}.M{stroke:#dcebf1}.N{fill:#d1f4f0}.O{fill:#86a426}.P{opacity:.371}.Q{fill:#99bb31}.R{fill:#afd33d}.S{fill:#c0906b}.T{fill:#b27a51}.U{fill:#dadada}.V{stroke-dasharray:0 10}.W{fill:#503b72}.X{fill:#d9f3f2}.Y{fill:#9fe3e0}.Z{stroke-width:5.274}]]></style><defs><clipPath id="A"><path d="M0 0h1500v145H0z" class="D"/></clipPath><clipPath id="B"><path d="M77.3-10.82h73.83v71.193H77.3z" class="D"/></clipPath><clipPath id="C"><path d="M114.215-34.551l36.915 22.632v29.005L114.215-5.547v-29.004z" class="D F"/></clipPath><clipPath id="D"><path d="M114.215-34.551L77.3-11.919v29.005l36.915-22.633v-29.004z" class="D F"/></clipPath><clipPath id="E"><path d="M188.01 1.747a4.13 4.13 0 0 1 3.492-1.927 4.15 4.15 0 0 1 3.492 1.927l22.821 35.921c0 10.656-11.787 19.315-26.312 19.315s-26.312-8.659-26.312-19.315l22.821-35.921z" class="D F"/></clipPath><clipPath id="F"><path d="M188.611-6.507a4.15 4.15 0 0 1 3.478-1.886c1.397 0 2.709.712 3.464 1.886l18.631 28.854c0 8.813-9.902 15.977-22.095 15.977-12.207 0-22.109-7.165-22.109-15.977l18.631-28.854z" class="D F"/></clipPath><clipPath id="G"><path d="M188.234-15.18a3.93 3.93 0 0 1 6.536 0l13.715 20.6c0 3.827-2.584 7.235-6.606 9.413-2.863 1.55-6.466 2.486-10.377 2.486-9.371 0-16.983-5.335-16.983-11.899l13.715-20.6z" class="D F"/></clipPath><clipPath id="H"><path d="M301.646 132.493a4.06 4.06 0 0 1 3.431-1.894c1.386 0 2.676.714 3.431 1.894l22.427 35.302c0 10.472-11.584 18.982-25.858 18.982s-25.858-8.51-25.858-18.982l22.427-35.302z" class="D F"/></clipPath><clipPath id="I"><path d="M302.236 124.381a4.08 4.08 0 0 1 3.418-1.853c1.373 0 2.663.7 3.404 1.853l18.31 28.356c0 8.661-9.731 15.702-21.713 15.702-11.996 0-21.727-7.041-21.727-15.702l18.31-28.356z" class="D F"/></clipPath><clipPath id="J"><path d="M301.865 115.858c.714-1.07 1.921-1.716 3.212-1.716s2.498.645 3.212 1.716l13.478 20.245c0 3.761-2.539 7.11-6.492 9.251-2.814 1.523-6.355 2.443-10.198 2.443-9.21 0-16.69-5.243-16.69-11.694l13.478-20.245z" class="D F"/></clipPath><clipPath id="K"><path d="M1006.923-12.605a3.37 3.37 0 0 1 2.847-1.571c1.15 0 2.22.592 2.847 1.571l18.605 29.285c0 8.688-9.61 15.747-21.451 15.747S988.32 25.368 988.32 16.68l18.605-29.285z" class="D F"/></clipPath><clipPath id="L"><path d="M1007.412-19.334a3.38 3.38 0 0 1 2.835-1.537c1.139 0 2.209.581 2.824 1.537l15.189 23.523c0 7.185-8.073 13.026-18.013 13.026-9.952 0-18.024-5.841-18.024-13.026l15.189-23.523z" class="D F"/></clipPath><clipPath id="M"><path d="M992.591 115.563a4.13 4.13 0 0 1 3.492-1.927 4.15 4.15 0 0 1 3.492 1.927l22.821 35.921c0 10.656-11.787 19.315-26.312 19.315s-26.312-8.659-26.312-19.315l22.821-35.921z" class="D F"/></clipPath><clipPath id="N"><path d="M993.191 107.309a4.15 4.15 0 0 1 3.478-1.886c1.397 0 2.709.712 3.464 1.886l18.631 28.854c0 8.813-9.902 15.977-22.095 15.977-12.207 0-22.109-7.165-22.109-15.977l18.631-28.854z" class="D F"/></clipPath><clipPath id="O"><path d="M992.814 98.636a3.93 3.93 0 0 1 6.536 0l13.715 20.6c0 3.827-2.584 7.235-6.606 9.413-2.863 1.55-6.466 2.486-10.377 2.486-9.371 0-16.983-5.335-16.983-11.899l13.715-20.6z" class="D F"/></clipPath><path id="P" d="M238.968 47.952h8.211v5.487h-8.211z"/><path id="Q" d="M238.968 47.952h21.897v5.487h-21.897z"/><path id="R" d="M304.659 87.739a4.11 4.11 0 0 0-4.106-4.115 4.11 4.11 0 0 0-4.106 4.115v4.108h8.211v-4.108z"/><path id="S" d="M188.01 1.747a4.13 4.13 0 0 1 3.492-1.927 4.15 4.15 0 0 1 3.492 1.927l22.821 35.921c0 10.656-11.787 19.315-26.312 19.315s-26.312-8.659-26.312-19.315l22.821-35.921z"/><path id="T" d="M188.96-14.174c.782-.922 1.927-1.439 3.129-1.439s2.346.517 3.128 1.439c6.969 8.128 23.184 28.086 23.184 37.835 0 10.67-11.788 19.329-26.312 19.329s-26.327-8.659-26.327-19.329c0-9.748 16.215-29.706 23.198-37.835z"/><path id="U" d="M188.611-6.507a4.15 4.15 0 0 1 3.478-1.886c1.397 0 2.709.712 3.464 1.886l18.631 28.854c0 8.813-9.902 15.977-22.095 15.977-12.207 0-22.109-7.165-22.109-15.977l18.631-28.854z"/><path id="V" d="M188.974-24.705c.782-.908 1.913-1.425 3.115-1.425a4.12 4.12 0 0 1 3.114 1.425c6.089 7.039 18.98 22.877 18.98 30.712 0 8.827-9.902 15.977-22.095 15.977-12.207 0-22.109-7.151-22.109-15.977 0-7.835 12.891-23.673 18.994-30.712z"/><path id="W" d="M188.611-31.06a4.07 4.07 0 0 1 3.478-1.927 4.11 4.11 0 0 1 3.478 1.927c6.229 9.553 18.617 29.832 18.617 39.985 0 11.634-9.902 21.089-22.095 21.089-12.207 0-22.109-9.455-22.109-21.089 0-10.153 12.402-30.432 18.631-39.985z"/><path id="X" d="M204.002 20.127c-.642-1.117-.265-2.556.852-3.198s2.542-.251 3.184.852l2.332 4.05c.656 1.117.265 2.542-.852 3.184a2.33 2.33 0 0 1-3.184-.852l-2.332-4.036z"/><path id="Y" d="M198.471 28.646c-.433-1.215.224-2.542 1.439-2.975 1.215-.419 2.542.237 2.961 1.453l.768 2.207a2.33 2.33 0 0 1-1.438 2.961c-1.215.419-2.556-.223-2.975-1.438l-.754-2.207z"/><path id="Z" d="M188.513 26.649a2.34 2.34 0 0 1 2.346-2.332c1.285 0 2.332 1.047 2.332 2.332v2.332c0 1.299-1.047 2.332-2.332 2.332a2.33 2.33 0 0 1-2.346-2.332v-2.332z"/><path id="a" d="M179.337 27.04a2.34 2.34 0 0 1 3.031-1.327c1.201.461 1.788 1.816 1.327 3.017l-.852 2.179c-.461 1.201-1.816 1.788-3.017 1.327-1.201-.475-1.802-1.816-1.327-3.017l.838-2.179z"/><path id="b" d="M188.234-15.18a3.93 3.93 0 0 1 6.536 0l13.715 20.6c0 3.827-2.584 7.235-6.606 9.413-2.863 1.55-6.466 2.486-10.377 2.486-9.371 0-16.983-5.335-16.983-11.899l13.715-20.6z"/><path id="c" d="M183.821-4.538c.642-1.117 2.081-1.494 3.184-.852a2.35 2.35 0 0 1 .852 3.198l-1.173 2.011a2.35 2.35 0 0 1-3.198.852c-1.103-.656-1.494-2.081-.838-3.198l1.173-2.011z"/><path id="d" d="M194.421 17.138c0-1.299-1.047-2.332-2.332-2.332s-2.332 1.033-2.332 2.332v.182c0 1.285 1.047 2.332 2.332 2.332s2.332-1.047 2.332-2.332v-.182z"/><path id="e" d="M206.823 11.454c-.489-1.201-1.857-1.774-3.045-1.285-1.201.475-1.774 1.844-1.285 3.031l.07.182c.489 1.187 1.843 1.76 3.045 1.285a2.36 2.36 0 0 0 1.285-3.045l-.07-.168z"/><path id="f" d="M176.586 11.426c.489-1.187 1.858-1.774 3.045-1.285a2.33 2.33 0 0 1 1.285 3.045l-.07.168c-.489 1.187-1.843 1.774-3.031 1.285a2.33 2.33 0 0 1-1.285-3.045l.056-.168z"/><path id="g" d="M210.273 5.714c-.698-1.089-2.137-1.397-3.226-.712a2.33 2.33 0 0 0-.698 3.226l.098.154c.698 1.089 2.137 1.397 3.226.712 1.075-.698 1.397-2.151.698-3.226l-.098-.154z"/><path id="h" d="M216.055 22.906c-.698-1.089-2.137-1.397-3.226-.712a2.33 2.33 0 0 0-.698 3.226l.098.154a2.33 2.33 0 0 0 3.226.712 2.34 2.34 0 0 0 .698-3.226l-.098-.154z"/><path id="i" d="M213.247 28.828c-.684-1.075-2.137-1.397-3.212-.698a2.33 2.33 0 0 0-.712 3.226l.098.154a2.33 2.33 0 0 0 3.226.698c1.089-.684 1.397-2.137.712-3.226l-.112-.154z"/><path id="j" d="M173.136 5.686c.698-1.089 2.137-1.397 3.226-.698 1.089.684 1.397 2.137.698 3.212l-.098.168a2.34 2.34 0 0 1-3.226.698 2.34 2.34 0 0 1-.698-3.226l.098-.154z"/><path id="k" d="M201.628 15.406c-.21-1.271-1.411-2.137-2.682-1.927s-2.123 1.411-1.913 2.682l.028.182c.21 1.271 1.411 2.137 2.682 1.927s2.137-1.411 1.913-2.682l-.028-.182z"/><path id="l" d="M181.782 15.378c.209-1.271 1.411-2.137 2.681-1.927a2.33 2.33 0 0 1 1.913 2.696l-.028.182c-.209 1.271-1.41 2.123-2.681 1.913s-2.123-1.411-1.913-2.682l.028-.182z"/></defs><g clip-path="url(#A)"><path d="M-40.704-1870.384h1571.886v3937.779H-40.704z" fill="#5bd1d6"/><path d="M1277.623 783.364h8.205c32.154 0 58.22-26.066 58.22-58.22v-16.185c0-34.42 27.903-62.323 62.323-62.323h154.74v-1795.533h0-404.217c-17.488 0-31.666-14.177-31.666-31.666h0c0-17.489-14.177-31.666-31.666-31.666h-52.418c-22.776 0-41.239-18.463-41.239-41.239h0c0-22.776-18.463-41.239-41.239-41.239h-39.928c-22.776 0-41.239-18.463-41.239-41.239v-30.651c0-23.58-19.115-42.695-42.695-42.695H638.901c-27.867 0-50.458 22.591-50.458 50.458v.873c0 27.867-22.591 50.458-50.458 50.458H349.729c-27.867 0-50.458-22.591-50.458-50.458v-26.987c0-27.867-22.591-50.458-50.458-50.458H-77.456L-95.723 760.465c-.483 21.282 16.638 38.795 37.925 38.795h271.652c42.401 0 76.774 34.373 76.774 76.774h0c0 42.401 34.373 76.774 76.774 76.774h297.815c35.348 0 64.002-28.655 64.002-64.002h0c0-35.348 28.655-64.002 64.002-64.002h217.647c35.348 0 64.002 28.655 64.002 64.002v53.579c0 37.513 30.41 67.924 67.924 67.924h418.317v-92.906h0-283.489c-32.154 0-58.22-26.066-58.22-58.22v-17.597c0-32.154 26.066-58.22 58.22-58.22z" fill="#7ee5e3"/><path d="M984.015-1119.787c-74.904 0-135.625-60.721-135.625-135.625v-12.015c0-14.122-11.449-25.571-25.571-25.571h-9.435c-6.635 0-12.014-5.379-12.014-12.014h0c0-6.635-5.379-12.014-12.014-12.014h-20.754c-20.758 0-37.585-16.827-37.585-37.585h0c0-14.123-11.449-25.571-25.571-25.571h-66.544c-11.79 0-21.347 9.558-21.347 21.347v.874c0 43.944-35.624 79.568-79.568 79.568H349.731c-43.944 0-79.568-35.624-79.568-79.568v-26.987c0-11.79-9.558-21.347-21.347-21.347H-48.967L-66.62 761.125c-.073 3.231 1.542 5.378 2.512 6.37s3.079 2.656 6.311 2.656h271.651c58.316 0 105.772 47.388 105.884 105.678.05 26.328 21.336 47.87 47.664 47.87h297.814c19.245 0 34.906-15.581 34.892-34.826-.036-51.373 41.748-93.179 93.113-93.179h217.647c51.425 0 93.113 41.688 93.113 93.113v58.431c0 18.757 15.205 33.962 33.962 33.962h18.387c18.757 0 33.962-15.205 33.962-33.962V841.586c0-48.231 39.099-87.33 87.33-87.33h8.205c16.077 0 29.11-13.033 29.11-29.11v-16.185c0-50.416 41.017-91.432 91.433-91.432H1532v-1737.314H984.013z" fill="#ebf5f7"/><path d="M-49.048-1396.29L-66.619 761.124c-.073 3.231 1.542 5.378 2.512 6.37s3.079 2.656 6.311 2.656h271.65c58.316 0 105.772 47.388 105.884 105.678.05 26.328 21.336 47.87 47.664 47.87h297.814c19.245 0 34.906-15.581 34.892-34.826-.036-51.373 41.748-93.179 93.112-93.179h217.647c51.425 0 93.113 41.688 93.113 93.113v58.43c0 18.757 15.205 33.962 33.962 33.962h18.387c18.757 0 33.962-15.205 33.962-33.962V841.584c0-48.231 39.099-87.33 87.33-87.33h8.205c16.077 0 29.11-13.033 29.11-29.11v-16.185c0-50.416 41.017-91.432 91.433-91.432h120.627" stroke="#ebf5f7" stroke-dasharray="0 10.006" class="D G H I"/><path d="M1397.633-547.701c-38.673 0-70.023-31.35-70.023-70.023h0c0-38.673-31.351-70.023-70.023-70.023h-115.2c-38.673 0-70.023-31.35-70.023-70.023v-81.318c0-38.673-31.351-70.023-70.023-70.023h-92.612c-38.673 0-70.023-31.35-70.023-70.023v-55.27c0-44.183-35.817-80-80-80H244.318c-44.183 0-80 35.817-80 80v35.388c0 44.183-35.817 80-80 80H-21.696V468.769h95.662c34.93 0 63.247-28.317 63.247-63.247h0c0-34.93 28.317-63.247 63.247-63.247h90.353c34.93 0 63.247-28.317 63.247-63.247V177.381c0-34.93 28.317-63.247 63.247-63.247h98.122c41.867 0 75.807-33.94 75.807-75.807V-81.254c0-48.029 38.935-86.964 86.964-86.964h0c48.029 0 86.964 38.935 86.964 86.964V9.172c0 41.867 33.94 75.807 75.807 75.807h242.686c42.415 0 76.8-34.385 76.8-76.8h0c0-42.416 34.384-76.8 76.8-76.8h31.624c42.415 0 76.8-34.384 76.8-76.8v-74.541c0-42.415 34.384-76.8 76.8-76.8h95.863v-250.94h-120.71z" class="L"/><path d="M-11.688 468.768h85.654c34.93 0 63.247-28.317 63.247-63.247s28.317-63.247 63.247-63.247h90.353c34.93 0 63.247-28.317 63.247-63.247V177.38c0-34.93 28.317-63.247 63.247-63.247h98.122c41.867 0 75.807-33.94 75.807-75.807V-81.255c0-48.029 38.935-86.964 86.964-86.964h0c48.029 0 86.964 38.935 86.964 86.964V9.172c0 41.867 33.94 75.807 75.807 75.807h242.686c42.415 0 76.8-34.385 76.8-76.8h0c0-42.416 34.385-76.8 76.8-76.8h31.624c42.415 0 76.8-34.385 76.8-76.8v-74.541c0-42.415 34.384-76.8 76.8-76.8h90.86" stroke-dasharray="0 10.007" class="D G H I M"/><g class="C"><path d="M155.699-62.272h63.283V8.921h-63.283z"/><path d="M150.425-62.272h73.83V8.921h-73.83z"/></g><path d="M197.888-27.994h21.094V8.921h-21.094z" fill="#c97353"/><path d="M150.425 8.921h81.933" class="G H I L M V"/><g class="C"><path d="M82.574-10.82h63.283v71.193H82.574z"/><path d="M77.3-10.82h73.83v71.193H77.3z"/></g><g clip-path="url(#B)" stroke="#f3f3f3" stroke-miterlimit="10" stroke-width="4.597" class="D"><path d="M119.489-6.146l-47.462 29.13"/><path d="M108.942-6.146l47.462 29.13"/></g><g fill="#81c6db"><path d="M82.574 26.095h15.821v21.094H82.574zm47.462 0h15.821v21.094h-15.821z"/></g><g fill="#c97353"><path d="M103.668 26.095h21.094v34.278h-21.094z"/><g class="B"><path style="mix-blend-mode:multiply" d="M124.763 26.095h-21.095v21.094l21.095-21.094z" opacity=".228"/></g></g><path d="M114.215-34.551l36.915 22.632v29.005L114.215-5.547v-29.004z" class="B W"/><g clip-path="url(#C)" stroke="#5b457f" class="D G H Z"><path d="M132.673-26.641v39.552"/><path d="M114.215-21.367L151.13 1.289"/></g><path d="M114.215-34.551L77.3-11.919v29.005l36.915-22.633v-29.004z" class="B W"/><g clip-path="url(#D)" stroke="#5b457f" class="D G H Z"><path d="M95.758-26.641v39.552"/><path d="M114.215-21.367L77.3 1.289"/></g><path d="M149.981 60.373h-73.83" class="G H I L M V"/><path d="M233.494 47.954h87.587v52.123h-87.587z" fill="#81c6db"/><path d="M291.246 57.195c-.474-.473-1.129-.745-1.799-.745-.416 0-.753.337-.753.753s.338.754.753.754c.274 0 .541.11.734.303a1.03 1.03 0 0 1 .304.734v2.767a1.14 1.14 0 0 1-.335.81c-.217.217-.504.336-.81.336h-.684v-2.834a2.77 2.77 0 0 0-2.77-2.771h-1.642v-2.564c0-.112-.06-.216-.158-.27s-.216-.053-.312.005l-1.638.992a2.88 2.88 0 0 0-.797-.125 2.86 2.86 0 0 0-.795.124l-1.639-.993a.31.31 0 0 0-.471.265v5.084a1.04 1.04 0 0 0 .305.734c.194.194.457.304.733.304h1.222v.189a2.51 2.51 0 0 0 .734 1.772c.164.164.358.283.557.392v.342h-.495c-.228 0-.447.09-.608.252s-.253.381-.253.609h0 8.712c.708 0 1.374-.276 1.875-.777s.777-1.167.777-1.875v-2.767c0-.68-.264-1.319-.745-1.799z" fill="#68b5c2" class="B"/><path d="M233.494 11.882h87.587v27.841h-87.587z" class="W"/><path d="M233.494 11.882h87.587v9.439h-87.587z" fill="#5b457f"/><g class="C"><path d="M233.604 72.713h87.474v2.674h-87.474z" opacity=".322"/><path d="M233.604 39.722h87.474v8.23h-87.474z"/><path d="M233.604 45.209h87.474v2.743h-87.474z" opacity=".322"/><path d="M315.607 39.724h5.474v60.353h-5.474z"/><path d="M234.863 64.414h84.85v8.23h-84.85z"/></g><g fill="#386372"><use href="#P"/><path d="M266.339 47.952h8.211v5.487h-8.211zm27.371 0h8.211v5.487h-8.211z"/></g><g fill="#6eb8ca"><use href="#Q"/><path d="M266.339 47.952h21.897v5.487h-21.897zm27.371 0h21.897v5.487H293.71z"/></g><g fill="#386372"><path d="M238.968 72.644h8.211v5.487h-8.211zm27.371 0h8.211v5.487h-8.211zm27.371 0h8.211v5.487h-8.211z"/></g><g fill="#6eb8ca"><path d="M238.968 72.644h21.897v5.487h-21.897z"/><path d="M266.339 100.077l21.897-21.947v-5.486h-21.897v27.433z" class="B"/><path d="M293.71 72.644h21.897v5.487H293.71z"/></g><path d="M233.494 39.724h5.474v60.353h-5.474z" class="C"/><g class="B"><use href="#R" fill="#c5e74a"/><path d="M296.447 87.732a4.11 4.11 0 0 0-4.106-4.115 4.11 4.11 0 0 0-4.106 4.115v4.108h8.211v-4.108z" fill="#becc46"/><g fill="#c5e74a"><path d="M312.87 87.739a4.11 4.11 0 0 0-4.106-4.115 4.11 4.11 0 0 0-4.106 4.115v4.108h8.211v-4.108z"/><path d="M321.081 87.739a4.11 4.11 0 0 0-4.106-4.115 4.11 4.11 0 0 0-4.106 4.115v4.108h8.211v-4.108zm-71.164 0a4.11 4.11 0 0 0-4.106-4.115 4.11 4.11 0 0 0-4.106 4.115v4.108h8.211v-4.108z"/><path d="M241.705 87.732a4.11 4.11 0 0 0-4.106-4.115 4.11 4.11 0 0 0-4.106 4.115v4.108h8.211v-4.108zm16.423.007a4.11 4.11 0 0 0-4.106-4.115 4.11 4.11 0 0 0-4.106 4.115v4.108h8.211v-4.108z"/></g><path d="M266.339 87.739a4.11 4.11 0 0 0-4.106-4.115 4.11 4.11 0 0 0-4.106 4.115v4.108h8.211v-4.108z" fill="#becc46"/></g><g class="C"><path d="M288.236 91.847h32.845v8.23h-32.845zm-54.632 0h32.845v8.23h-32.845z"/><path d="M258.128 45.21h8.211v46.636h-8.211zm30.108 0h8.211v46.636h-8.211z"/></g><g class="D G H I M"><path d="M233.604 100.077h0"/><path d="M243.323 100.077h72.898" stroke-dasharray="0 9.72"/><path d="M321.081 100.077h0"/></g><rect x="162.254" y="51.304" width="58.573" height="14.108" rx="7.054" class="K"/><path d="M169.308,65.412h44.466c3.88,0,7.054-3.174,7.054-7.054s-3.174-7.054-7.054-7.054h-44.466c-3.88,0-7.054,3.174-7.054,7.054s3.174,7.054,7.054,7.054Z" stroke-dasharray="0 10.243" class="D G H I M"/><g class="B"><path d="M186.181 31.314h9.344v25.684c0 1.229-.489 2.416-1.369 3.296-.88.866-2.067 1.369-3.296 1.369h-.014c-1.229 0-2.416-.503-3.296-1.369-.866-.88-1.369-2.067-1.369-3.296V31.314z" fill="#394319"/><g class="E"><path d="M167.564 33.925c.684-1.089 2.137-1.397 3.212-.712 1.089.698 1.411 2.151.712 3.226l-5 7.807c-.684 1.089-2.137 1.411-3.212.712a2.33 2.33 0 0 1-.712-3.226l5-7.807z"/><use href="#S"/></g></g><g clip-path="url(#E)" class="B O"><use href="#T" class="P"/></g><g class="B"><g class="E"><path d="M200.524 52.542c-.14-1.285-1.299-2.207-2.57-2.081-1.285.14-2.221 1.299-2.081 2.57l.433 3.994c.14 1.271 1.285 2.207 2.57 2.067s2.207-1.285 2.067-2.57l-.419-3.981zm15.824-17.178c-.698-1.089-2.137-1.397-3.226-.712-1.075.698-1.397 2.151-.698 3.226l4.162 6.508c.698 1.075 2.151 1.397 3.226.698 1.089-.698 1.397-2.137.712-3.226l-4.176-6.494z"/></g><g fill="#8eb029"><path d="M189.756 42.989c0-1.285 1.047-2.332 2.332-2.332s2.332 1.047 2.332 2.332v2.332c0 1.285-1.047 2.332-2.332 2.332s-2.332-1.047-2.332-2.332v-2.332zm-8.072 4.386c.154-1.271 1.327-2.179 2.598-2.025 1.285.154 2.193 1.327 2.025 2.598l-.279 2.318a2.33 2.33 0 0 1-2.612 2.025c-1.271-.154-2.179-1.327-2.025-2.598l.293-2.318zm20.642 0c-.154-1.271-1.327-2.179-2.598-2.025a2.34 2.34 0 0 0-2.039 2.598l.293 2.318c.154 1.285 1.327 2.193 2.598 2.025a2.34 2.34 0 0 0 2.039-2.598l-.293-2.318zm-26.746-9.26c.377-1.229 1.69-1.913 2.919-1.536a2.34 2.34 0 0 1 1.522 2.933l-.978 3.114a2.34 2.34 0 0 1-2.933 1.522c-1.229-.377-1.913-1.69-1.522-2.919l.992-3.114zm31.508 1.048a2.34 2.34 0 0 0-2.933-1.522 2.34 2.34 0 0 0-1.522 2.933l.978 3.114a2.34 2.34 0 0 0 2.933 1.522c1.229-.391 1.913-1.69 1.522-2.919l-.978-3.128zm-37.276-5.447a2.331 2.331 0 0 1 4.036 2.332l-2.109 3.659a2.331 2.331 0 0 1-4.036-2.332l2.109-3.659zm43.002-.126a2.331 2.331 0 0 0-4.036 2.332l2.109 3.659c.642 1.117 2.081 1.494 3.198.852 1.103-.643 1.494-2.067.852-3.184l-2.123-3.659z" opacity=".598"/></g><use href="#U" class="C"/></g><g clip-path="url(#F)" class="B"><use href="#V" class="J Q"/><use href="#W" class="R"/><g class="C"><use href="#X"/><use href="#Y" class="J"/><use href="#Z" class="J"/><use href="#a" class="J"/><path d="M175.678 16.998c.656-1.103 2.081-1.494 3.198-.852s1.494 2.081.852 3.198l-2.025 3.492a2.33 2.33 0 0 1-4.036-2.332l2.011-3.506z"/></g></g><use href="#b" class="B N"/><g clip-path="url(#G)"><rect x="176.851" y="-20.026" width="29.748" height="30.041" rx="14.706" opacity=".55" class="X"/><g class="B Y"><path d="M196.181-.236a2.34 2.34 0 0 1 1.117-3.114c1.159-.545 2.556-.056 3.1 1.117l1.006 2.109c.545 1.159.056 2.556-1.117 3.1-1.159.559-2.556.056-3.101-1.103L196.18-.236zm-7.668 3.547a2.34 2.34 0 0 1 2.346-2.332c1.285 0 2.332 1.047 2.332 2.332v2.332a2.34 2.34 0 0 1-2.332 2.346 2.34 2.34 0 0 1-2.346-2.346V3.311z"/><use href="#c"/></g></g><g class="B"><g class="N"><use href="#d"/><use href="#e"/><use href="#f"/><use href="#g"/></g><g class="C"><use href="#h"/><path d="M167.662 22.906c.685-1.089 2.137-1.397 3.212-.712 1.089.698 1.411 2.151.712 3.226l-.098.154c-.698 1.089-2.151 1.411-3.226.712-1.089-.698-1.397-2.137-.712-3.226l.112-.154zm40.795 10.237a2.34 2.34 0 0 0-3.226-.698c-1.089.698-1.397 2.137-.698 3.226l.098.154c.684 1.075 2.137 1.397 3.226.698a2.34 2.34 0 0 0 .698-3.226l-.098-.154zm-33.198 0a2.34 2.34 0 0 1 3.226-.698 2.34 2.34 0 0 1 .698 3.226l-.098.154a2.34 2.34 0 0 1-3.226.698c-1.089-.698-1.397-2.137-.698-3.226l.098-.154z"/></g><path d="M169.338 44.903c.726-1.061 2.179-1.341 3.24-.614a2.35 2.35 0 0 1 .615 3.254l-1.844 2.682a2.32 2.32 0 0 1-3.24.614c-1.061-.726-1.341-2.179-.615-3.24l1.844-2.696z" class="E"/><g class="C"><path d="M203.262 36.258c-.377-1.229-1.69-1.927-2.919-1.55s-1.927 1.69-1.536 2.919l.056.182a2.32 2.32 0 0 0 2.905 1.536c1.243-.377 1.927-1.69 1.55-2.919l-.056-.168zm-22.807 0a2.34 2.34 0 0 1 2.919-1.55c1.229.377 1.914 1.69 1.536 2.919l-.056.182c-.377 1.229-1.69 1.913-2.919 1.536s-1.913-1.69-1.536-2.919l.056-.168z"/></g><g class="E"><path d="M175.776 52.738c.391-1.229 1.69-1.913 2.919-1.536s1.927 1.69 1.55 2.919l-.056.182c-.377 1.229-1.69 1.913-2.919 1.536s-1.927-1.69-1.536-2.919l.042-.182zm32.304-2.221a2.33 2.33 0 0 0-2.919-1.536c-1.229.377-1.913 1.69-1.536 2.919l.922 3.003c.391 1.229 1.69 1.927 2.919 1.55 1.243-.391 1.927-1.69 1.55-2.919l-.936-3.017z"/></g><g class="C"><path d="M197.186 38.492c-.14-1.285-1.299-2.207-2.57-2.067a2.33 2.33 0 0 0-2.081 2.57l.028.182c.14 1.271 1.285 2.207 2.57 2.067 1.271-.14 2.207-1.285 2.067-2.57l-.014-.182zm-10.656 0c.14-1.285 1.285-2.207 2.57-2.067 1.285.126 2.207 1.285 2.067 2.57l-.014.182c-.14 1.271-1.285 2.207-2.57 2.067s-2.207-1.285-2.067-2.57l.014-.182z"/></g><path d="M181.865 54.986c.14-1.285 1.285-2.221 2.57-2.081s2.207 1.299 2.067 2.57l-.014.195c-.14 1.271-1.299 2.207-2.57 2.067-1.285-.14-2.207-1.299-2.081-2.57l.028-.182z" class="E"/><g class="C"><use href="#i"/><path d="M170.455,28.828c.698-1.075,2.137-1.397,3.226-.698s1.397,2.137.698,3.226l-.098.154c-.698,1.089-2.137,1.397-3.226.698-1.075-.684-1.397-2.137-.698-3.226l.098-.154Z"/></g><path d="M212.926 44.861a2.34 2.34 0 0 0-3.226-.698c-1.089.698-1.397 2.137-.712 3.226l2.793 4.33c.698 1.089 2.137 1.397 3.226.712 1.075-.698 1.397-2.151.698-3.226l-2.779-4.343z" class="E"/><g class="N"><use href="#j"/><use href="#k"/><use href="#l"/></g><path d="M301.646 132.493a4.06 4.06 0 0 1 3.431-1.894c1.386 0 2.676.714 3.431 1.894l22.427 35.302c0 10.472-11.584 18.982-25.858 18.982s-25.858-8.51-25.858-18.982l22.427-35.302z" class="E"/></g><g clip-path="url(#H)" class="B O"><path d="M302.579 116.846c.769-.906 1.894-1.414 3.075-1.414a4.02 4.02 0 0 1 3.074 1.414c6.849 7.988 22.784 27.602 22.784 37.182 0 10.486-11.584 18.996-25.858 18.996s-25.872-8.51-25.872-18.996c0-9.58 15.935-29.194 22.798-37.182z" class="P"/></g><path d="M302.236 124.381a4.08 4.08 0 0 1 3.418-1.853c1.373 0 2.663.7 3.404 1.853l18.31 28.356c0 8.661-9.731 15.702-21.713 15.702-11.996 0-21.727-7.041-21.727-15.702l18.31-28.356z" class="B C"/><g clip-path="url(#I)" class="B"><path d="M302.593 106.497c.769-.892 1.88-1.4 3.061-1.4a4.05 4.05 0 0 1 3.061 1.4c5.984 6.918 18.653 22.482 18.653 30.182 0 8.674-9.731 15.702-21.713 15.702-11.996 0-21.727-7.027-21.727-15.702 0-7.7 12.668-23.264 18.666-30.182z" class="J Q"/><path d="M302.236 100.252c.727-1.18 2.018-1.894 3.418-1.894a4.04 4.04 0 0 1 3.418 1.894c6.121 9.388 18.296 29.317 18.296 39.296 0 11.433-9.731 20.725-21.713 20.725-11.996 0-21.727-9.292-21.727-20.725 0-9.978 12.188-29.907 18.31-39.296z" class="R"/></g><path d="M301.865 115.858c.714-1.07 1.921-1.716 3.212-1.716s2.498.645 3.212 1.716l13.478 20.245c0 3.761-2.539 7.11-6.492 9.251-2.814 1.523-6.355 2.443-10.198 2.443-9.21 0-16.69-5.243-16.69-11.694l13.478-20.245z" class="B C"/><g clip-path="url(#J)"><g class="X"><rect x="290.679" y="111.095" width="29.235" height="29.523" rx="14.453" opacity=".55"/><g class="B"><path d="M304.336 125.479c-.343-1.222.371-2.484 1.592-2.827s2.484.371 2.827 1.592l.192.659c.329 1.221-.384 2.484-1.592 2.827-1.222.343-2.484-.371-2.827-1.592l-.192-.659z"/></g></g><g class="Y B"><path d="M309.675 130.544c-.535-1.153-.055-2.512 1.098-3.061 1.139-.535 2.512-.055 3.047 1.098l.988 2.073c.535 1.139.055 2.512-1.098 3.047a2.28 2.28 0 0 1-3.047-1.084l-.988-2.073zm-7.535 3.486a2.3 2.3 0 0 1 2.306-2.292c1.263 0 2.292 1.029 2.292 2.292v2.292a2.3 2.3 0 0 1-2.292 2.306 2.3 2.3 0 0 1-2.306-2.306v-2.292zm-4.612-7.714a2.29 2.29 0 0 1 3.129-.837c1.098.645 1.469 2.045.837 3.143l-1.153 1.976c-.645 1.098-2.045 1.469-3.143.837-1.084-.645-1.469-2.045-.823-3.143l1.153-1.977z"/></g></g><g class="B C"><path d="M320.134 142.032c-.48-1.18-1.825-1.743-2.992-1.263-1.181.467-1.743 1.812-1.263 2.978l.069.178c.48 1.167 1.812 1.729 2.992 1.263 1.167-.48 1.729-1.825 1.263-2.992l-.069-.165zm-29.716-.027c.481-1.167 1.826-1.743 2.992-1.263a2.29 2.29 0 0 1 1.263 2.992l-.069.165c-.48 1.167-1.812 1.743-2.978 1.263a2.29 2.29 0 0 1-1.263-2.992l.055-.165zm33.106-5.614c-.686-1.071-2.1-1.373-3.17-.7a2.29 2.29 0 0 0-.686 3.17l.096.151c.686 1.071 2.1 1.373 3.171.7 1.057-.686 1.373-2.114.686-3.17l-.096-.151zm-36.496-.028c.686-1.071 2.1-1.373 3.171-.686 1.07.673 1.373 2.1.686 3.157l-.096.165a2.3 2.3 0 0 1-3.17.686 2.3 2.3 0 0 1-.686-3.17l.096-.151zm28 9.553c-.206-1.249-1.386-2.1-2.635-1.894s-2.086 1.386-1.88 2.635l.027.178c.206 1.249 1.386 2.1 2.635 1.894s2.1-1.386 1.88-2.635l-.027-.178zm-19.504-.027c.206-1.249 1.386-2.1 2.635-1.894a2.29 2.29 0 0 1 1.88 2.649l-.027.178c-.206 1.249-1.386 2.086-2.635 1.88s-2.086-1.386-1.88-2.635l.027-.178z"/></g><rect x="985.506" y="28.657" width="48.59" height="11.703" rx="5.852" class="K"/><path d="M991.358 40.36h36.887a5.87 5.87 0 0 0 5.852-5.852 5.87 5.87 0 0 0-5.852-5.852h-36.887a5.87 5.87 0 0 0-5.852 5.852 5.87 5.87 0 0 0 5.852 5.852z" stroke-dasharray="0 10.042" class="D G H I M"/><g class="B"><path d="M1005.431 11.499h7.617v20.939a3.8 3.8 0 0 1-1.116 2.687 3.85 3.85 0 0 1-2.687 1.116h-.011a3.85 3.85 0 0 1-3.803-3.803V11.499z" fill="#394319"/><g class="E"><path d="M990.254 13.629c.558-.888 1.742-1.139 2.619-.581.888.569 1.15 1.753.581 2.63l-4.076 6.365a1.89 1.89 0 0 1-2.619.581 1.9 1.9 0 0 1-.581-2.63l4.076-6.365z"/><path d="M1006.923-12.605a3.37 3.37 0 0 1 2.847-1.571c1.15 0 2.22.592 2.847 1.571l18.605 29.285c0 8.688-9.61 15.747-21.451 15.747S988.32 25.368 988.32 16.68l18.605-29.285z"/></g></g><g clip-path="url(#K)" class="B O"><path d="M1007.697-25.585c.638-.752 1.571-1.173 2.551-1.173s1.913.421 2.55 1.173c5.682 6.627 18.901 22.897 18.901 30.845 0 8.699-9.61 15.758-21.451 15.758s-21.463-7.059-21.463-15.758c0-7.947 13.219-24.218 18.912-30.845z" class="P"/></g><g class="B"><g class="E"><path d="M1017.125 28.806a1.92 1.92 0 0 0-2.095-1.697c-1.048.114-1.81 1.059-1.697 2.095l.353 3.256c.114 1.036 1.048 1.799 2.095 1.685s1.799-1.048 1.685-2.095l-.342-3.245zm12.9-14.005a1.91 1.91 0 0 0-2.63-.581 1.91 1.91 0 0 0-.569 2.63l3.393 5.306a1.91 1.91 0 0 0 2.63.569 1.91 1.91 0 0 0 .581-2.63l-3.404-5.295z"/></g><g fill="#8eb029"><path d="M1008.346 21.018c0-1.048.854-1.902 1.902-1.902s1.901.854 1.901 1.902v1.902c0 1.047-.854 1.901-1.901 1.901s-1.902-.854-1.902-1.901v-1.902zm-6.581 3.575c.125-1.036 1.082-1.776 2.118-1.651a1.89 1.89 0 0 1 1.651 2.118l-.228 1.89a1.9 1.9 0 0 1-2.129 1.651c-1.036-.125-1.776-1.082-1.651-2.118l.239-1.89zm16.829 0c-.125-1.036-1.082-1.776-2.118-1.651-1.048.125-1.788 1.082-1.662 2.118l.239 1.89a1.89 1.89 0 0 0 2.118 1.651c1.048-.125 1.788-1.082 1.662-2.118l-.239-1.89zm-21.805-7.549c.307-1.002 1.378-1.56 2.38-1.252 1.002.319 1.56 1.389 1.241 2.391l-.797 2.539c-.319 1.002-1.389 1.56-2.391 1.241a1.89 1.89 0 0 1-1.241-2.38l.808-2.539zm25.687.854c-.319-1.002-1.389-1.56-2.391-1.241s-1.56 1.389-1.241 2.391l.797 2.539c.319 1.002 1.389 1.56 2.391 1.241s1.56-1.378 1.241-2.38l-.797-2.55zm-30.389-4.44a1.9 1.9 0 1 1 3.291 1.901l-1.719 2.983a1.9 1.9 0 1 1-3.291-1.901l1.719-2.983zm35.058-.103a1.9 1.9 0 1 0-3.291 1.901l1.719 2.983c.524.911 1.697 1.218 2.607.695a1.91 1.91 0 0 0 .695-2.596l-1.731-2.983z" opacity=".598"/></g><path d="M1007.412-19.334a3.38 3.38 0 0 1 2.835-1.537c1.139 0 2.209.581 2.824 1.537l15.189 23.523c0 7.185-8.073 13.026-18.013 13.026-9.952 0-18.024-5.841-18.024-13.026l15.189-23.523z" class="C"/></g><g clip-path="url(#L)" class="B"><path d="M1007.709-34.17a3.34 3.34 0 0 1 2.539-1.161 3.36 3.36 0 0 1 2.539 1.161c4.964 5.739 15.474 18.65 15.474 25.038 0 7.196-8.073 13.026-18.013 13.026-9.952 0-18.024-5.83-18.024-13.026 0-6.388 10.509-19.299 15.485-25.038z" class="J Q"/><path d="M1007.412-39.351a3.32 3.32 0 0 1 2.835-1.571 3.35 3.35 0 0 1 2.835 1.571c5.078 7.788 15.178 24.321 15.178 32.598 0 9.485-8.073 17.193-18.013 17.193-9.952 0-18.024-7.708-18.024-17.193 0-8.278 10.111-24.81 15.189-32.598z" class="R"/><g class="C"><path d="M1019.96 2.379c-.524-.911-.216-2.084.695-2.607a1.91 1.91 0 0 1 2.596.695l1.902 3.302a1.89 1.89 0 0 1-.695 2.596 1.9 1.9 0 0 1-2.596-.695l-1.902-3.291z"/><path d="M1015.451 9.325c-.353-.991.182-2.072 1.173-2.425.991-.341 2.072.194 2.414 1.184l.626 1.799a1.9 1.9 0 0 1-1.173 2.414 1.91 1.91 0 0 1-2.425-1.173l-.615-1.799zm-8.118-1.629c0-1.048.854-1.902 1.913-1.902 1.047 0 1.901.854 1.901 1.902v1.901a1.907 1.907 0 1 1-3.814 0V7.696zm-7.481.319c.387-.979 1.491-1.469 2.471-1.082.979.376 1.457 1.48 1.082 2.459l-.695 1.776c-.376.979-1.48 1.457-2.459 1.082-.979-.387-1.469-1.48-1.082-2.459l.683-1.776z" class="J"/><path d="M996.869-.171c.535-.9 1.697-1.218 2.607-.695s1.218 1.697.695 2.607l-1.651 2.847a1.9 1.9 0 1 1-3.291-1.901l1.64-2.858z"/></g></g><g class="B C"><path d="M1007.105-26.405c.592-.888 1.594-1.423 2.664-1.423s2.072.535 2.664 1.423l11.181 16.794c0 3.12-2.107 5.898-5.386 7.674-2.334 1.264-5.272 2.027-8.46 2.027-7.64 0-13.845-4.349-13.845-9.701l11.181-16.794z"/><path d="M1012.149-.057c0-1.059-.854-1.901-1.901-1.901a1.9 1.9 0 0 0-1.902 1.901v.148c0 1.048.854 1.902 1.902 1.902s1.901-.854 1.901-1.902v-.148zm17.637 4.702a1.91 1.91 0 0 0-2.63-.581 1.9 1.9 0 0 0-.569 2.63l.08.125a1.9 1.9 0 0 0 2.63.581c.877-.569 1.139-1.742.569-2.63l-.08-.125zm-39.453 0c.558-.888 1.742-1.139 2.619-.581.888.569 1.15 1.753.581 2.63l-.08.125c-.569.888-1.753 1.15-2.63.581a1.91 1.91 0 0 1-.581-2.63l.091-.125zm33.259 8.346c-.569-.877-1.742-1.139-2.63-.569s-1.139 1.742-.569 2.63l.08.125c.558.877 1.742 1.139 2.63.569.877-.569 1.139-1.742.569-2.63l-.08-.125zm-27.065 0c.569-.877 1.742-1.139 2.63-.569.877.569 1.139 1.742.569 2.63l-.08.125c-.569.877-1.742 1.139-2.63.569s-1.139-1.742-.569-2.63l.08-.125z"/></g><path d="M991.7 22.578c.592-.865 1.776-1.093 2.642-.501s1.093 1.776.501 2.653l-1.503 2.186c-.592.877-1.776 1.093-2.642.501s-1.093-1.776-.501-2.642l1.503-2.198z" class="B E"/><g class="C B"><path d="M1019.357 15.53a1.91 1.91 0 0 0-2.38-1.264c-1.002.307-1.571 1.378-1.252 2.38l.046.148a1.89 1.89 0 0 0 2.368 1.252c1.013-.307 1.571-1.378 1.264-2.38l-.045-.137zm-18.594 0c.307-1.002 1.366-1.571 2.38-1.264 1.002.307 1.56 1.378 1.253 2.38l-.046.148c-.307 1.002-1.378 1.56-2.38 1.252s-1.56-1.378-1.252-2.38l.045-.137z"/></g><g class="E B"><path d="M996.949 28.966a1.91 1.91 0 0 1 2.38-1.252 1.91 1.91 0 0 1 1.264 2.38l-.045.148c-.307 1.002-1.378 1.56-2.38 1.252s-1.571-1.378-1.252-2.38l.034-.148zm26.336-1.811c-.307-1.002-1.366-1.56-2.38-1.252-1.002.307-1.56 1.378-1.253 2.38l.752 2.448c.319 1.002 1.378 1.571 2.38 1.264 1.013-.319 1.571-1.378 1.264-2.38l-.763-2.459z"/></g><g class="C B"><path d="M1014.404 17.352c-.114-1.048-1.059-1.799-2.095-1.685a1.9 1.9 0 0 0-1.697 2.095l.023.148c.114 1.036 1.047 1.799 2.095 1.685 1.036-.114 1.799-1.048 1.685-2.095l-.011-.148zm-8.688 0c.114-1.048 1.048-1.799 2.095-1.685a1.89 1.89 0 0 1 1.685 2.095l-.011.148c-.114 1.036-1.048 1.799-2.095 1.685s-1.799-1.048-1.685-2.095l.011-.148z"/></g><path d="M1001.913 30.799c.114-1.047 1.048-1.81 2.095-1.697s1.799 1.059 1.685 2.095l-.011.159c-.114 1.036-1.059 1.799-2.095 1.685a1.92 1.92 0 0 1-1.697-2.095l.023-.148z" class="B E"/><g class="C B"><path d="M1027.497 9.473c-.558-.877-1.742-1.139-2.619-.569a1.9 1.9 0 0 0-.581 2.63l.08.125a1.9 1.9 0 0 0 2.63.569c.888-.558 1.139-1.742.581-2.63l-.091-.125zm-34.886 0c.569-.877 1.742-1.139 2.63-.569s1.139 1.742.569 2.63l-.08.125c-.569.888-1.742 1.139-2.63.569-.877-.558-1.139-1.742-.569-2.63l.08-.125z"/></g><path d="M1027.236 22.544c-.569-.877-1.742-1.139-2.63-.569a1.91 1.91 0 0 0-.581 2.63l2.277 3.53a1.91 1.91 0 0 0 2.63.581 1.91 1.91 0 0 0 .569-2.63l-2.266-3.541z" class="B E"/><g class="C B"><path d="M1018.024-1.469c-.171-1.036-1.15-1.742-2.186-1.571s-1.731 1.15-1.56 2.186l.023.148c.171 1.036 1.15 1.742 2.186 1.571a1.89 1.89 0 0 0 1.56-2.186l-.023-.148zm-16.179-.023c.171-1.036 1.15-1.742 2.186-1.571a1.9 1.9 0 0 1 1.56 2.198l-.023.148c-.171 1.036-1.15 1.731-2.186 1.56s-1.731-1.15-1.56-2.186l.023-.148z"/></g><g class="L"><path d="M1406.527 13.137c0-4.287-3.475-7.762-7.762-7.762h-20.699c-4.287 0-7.762 3.475-7.762 7.762s3.475 7.762 7.762 7.762h20.699c4.287 0 7.762-3.475 7.762-7.762zm76.329 109.965a6.47 6.47 0 0 0-6.469-6.469h-16.818a6.47 6.47 0 0 0-6.469 6.469 6.47 6.47 0 0 0 6.469 6.469h16.818a6.47 6.47 0 0 0 6.469-6.469z" class="B"/><rect x="1332.785" y="79.842" width="21.993" height="7.762" rx="3.876"/><rect x="1424.639" y="72.648" width="21.993" height="7.762" rx="3.876"/></g><g class="B"><g class="S"><path d="M1176.246 169.108l37.703-43.986h49.12l11.499 12.937 37.087 10.35 27.599 20.699h-54.336l-18.112 15.525-90.56-15.525zm137.134-52.41l16.005-14.863h16.007l17.149 14.863h-49.161z"/></g><g class="C"><path d="M1266.806 148.409l7.762-10.35h23.287l13.8 10.35m-97.706-23.287l8.871-10.35h31.049l9.2 10.35"/></g><path d="M1196.946 31.975l38.811-43.986h49.161l10.35 12.937h23.287l41.398 31.049h-22.962l-8.087 10.349h-33.636l-54.336-10.349h-43.986z" class="S"/><path d="M1323.729 19.038l5.175 23.286 7.762-10.349-12.937-12.937z" class="T"/></g><g fill="#cca37d"><path d="M1295.268-14.599h23.287V.926h-23.287zm-38.812 23.287h23.287V26.8h-23.287zm31.05 12.937h12.937v7.762h-12.937z"/></g><g class="B"><g class="T"><path d="M1279.743 8.688l7.763 12.075v8.624l7.762 12.937v7.763L1279.743 26.8V8.688zm-23.287 0l-15.524 23.287v18.112l15.524-23.287V8.688z"/></g><path d="M1279.743 26.8h-23.287l-15.524 23.287h54.336L1279.743 26.8z" class="S"/><g class="T"><path d="M1284.918-27.536l10.35 12.937V.926l-10.35-12.937v-15.525zm-49.161 0l-38.811 43.986v15.525l38.811-43.986v-15.525zm82.798 12.937l41.094 31.049v15.525L1318.555.926v-15.525z"/></g><path d="M1241.996 102.566l1.881 4.702-3.762 7.524h3.818l6.114-12.226h-8.051" fill="#c3c3c3"/><path d="M1222.203 72.5c2.107 0 3.814 1.708 3.814 3.814v1.798h-1.007c-.267 0-.523-.106-.712-.295s-.295-.445-.295-.712v-.779c0-1.001-.811-1.813-1.813-1.813h-.317a1.9 1.9 0 0 0-1.898 1.898v5.151l-2.014.312v-5.348c0-1.068.424-2.092 1.179-2.847s1.779-1.179 2.847-1.179h.215z" fill="#95745c"/><path d="M1256.226 92.635a4.02 4.02 0 0 0-1.179-2.845c-.755-.755-1.778-1.179-2.845-1.179h-.004v8.31h.004a4.02 4.02 0 0 0 2.845-1.179c.755-.755 1.179-1.778 1.179-2.845v-.262z" class="U"/><path d="M1236.087 101.155h-6.261v13.637h2.821l3.44-13.637z" fill="#c3c3c3"/><g class="U"><path d="M1252.198 88.611h-23.313l-8.008-8.056h-4.929l-6.066 7.003c-.616.711-.845 1.678-.613 2.59l.086.336c.324 1.276 1.475 2.169 2.792 2.167l5.816-.012 8.056 10.069v12.083h4.028l2.014-12.083h12.083l4.028 4.559v7.524h4.028V88.61z"/><path d="M1219.976,80.556c0,2.225,1.803,4.028,4.028,4.028s4.028-1.803,4.028-4.028h-8.056Z"/></g></g><path d="M1215.948 82.569h4.028v4.028h-4.028z"/><g class="L"><rect x="704.495" y="64.923" width="21.993" height="7.762" rx="3.876"/><rect x="415.468" y="134.178" width="21.993" height="7.762" rx="3.876"/></g><rect x="1049.634" y="54.707" width="41.732" height="11.414" rx="5.707" class="K"/><g class="B"><path d="M1065.862 50.217l-1.665 4.161 3.329 6.658h-3.379l-5.409-10.819h7.124" class="U"/><path d="M1083.376,23.613c-1.864,0-3.375,1.511-3.375,3.375v.657c0,.516.418.934.934.934h.848v-1.644c0-.85.689-1.54,1.54-1.54h.345c.928,0,1.68.752,1.68,1.68v4.558l1.782.276v-4.732c0-.945-.375-1.851-1.044-2.519s-1.574-1.043-2.519-1.043h-.19Z" fill="#95745c"/><path d="M1053.27 41.43a3.56 3.56 0 0 1 3.561-3.561h.004v7.353h-.004a3.56 3.56 0 0 1-3.561-3.561v-.232z" class="C"/><path d="M1071.09 48.969h5.541v12.067h-2.497l-3.044-12.067z" class="U"/><g class="C"><path d="M1056.834 37.869h20.629l7.086-7.128h4.361l5.367 6.196c.545.629.748 1.485.543 2.292l-.076.298c-.287 1.129-1.305 1.919-2.47 1.917l-5.146-.011-7.128 8.91v10.692h-3.564l-1.782-10.692h-10.692l-3.564 4.034v6.658h-3.564V37.869z"/><path d="M1085.346,30.741c0,1.968-1.596,3.564-3.564,3.564s-3.564-1.596-3.564-3.564h7.128Z"/></g></g><path d="M1085.346 32.523h3.564v3.564h-3.564z"/><rect x="618.548" y="-18.721" width="50.682" height="28.376" rx="7.426" class="L"/><path d="M625.974-18.721h35.829a7.43 7.43 0 0 1 7.426 7.426V2.229a7.43 7.43 0 0 1-7.426 7.426h-35.83a7.43 7.43 0 0 1-7.426-7.426v-13.524c0-4.099 3.328-7.427 7.427-7.427z" stroke="#ebf5f7" stroke-dasharray="0 9.688" class="D G H I"/><g class="B"><path d="M658.044-21.843h-28.121v13.564c0 1.007-.359 1.981-1.013 2.746l-4.652 5.447a1.82 1.82 0 0 0-.141 2.179c.442.677 1.277.983 2.051.751l10.457-3.137a3.32 3.32 0 0 1 3.829 1.518l2.603 4.5c.197.34.562.547.954.541s.751-.223.938-.569l2.317-4.29c.766-1.419 2.442-2.083 3.973-1.573l9.327 3.109c.739.246 1.552-.004 2.025-.623s.5-1.47.068-2.118l-3.905-5.857a4.23 4.23 0 0 1-.71-2.346v-13.843z" fill="#9f7049"/><g class="K"><path d="M168.621 109.442a3.77 3.77 0 0 0-3.768-3.768h-10.048a3.77 3.77 0 0 0-3.768 3.768 3.77 3.77 0 0 0 3.768 3.768h10.048a3.77 3.77 0 0 0 3.768-3.768z"/></g></g><rect x="177.413" y="138.33" width="10.676" height="3.768" rx="1.881" class="K"/><path d="M841.816 43.065a3.77 3.77 0 0 0 3.768 3.768h10.048a3.77 3.77 0 0 0 3.768-3.768 3.77 3.77 0 0 0-3.768-3.768h-10.048a3.77 3.77 0 0 0-3.768 3.768z" class="B K"/><rect x="885.147" y="1.618" width="10.676" height="3.768" rx="1.881" class="K"/><rect x="822.348" y="10.41" width="10.676" height="3.768" rx="1.881" class="K"/><path d="M992.591 115.563a4.13 4.13 0 0 1 3.492-1.927 4.15 4.15 0 0 1 3.492 1.927l22.821 35.921c0 10.656-11.787 19.315-26.312 19.315s-26.312-8.659-26.312-19.315l22.821-35.921z" class="B E"/><g clip-path="url(#M)" class="B O"><path d="M993.54 99.642c.782-.922 1.927-1.439 3.129-1.439s2.346.517 3.128 1.439c6.969 8.128 23.184 28.086 23.184 37.835 0 10.67-11.788 19.329-26.312 19.329s-26.327-8.659-26.327-19.329c0-9.748 16.215-29.706 23.198-37.835z" class="P"/></g><path d="M993.191 107.309a4.15 4.15 0 0 1 3.478-1.886c1.397 0 2.709.712 3.464 1.886l18.631 28.854c0 8.813-9.902 15.977-22.095 15.977-12.207 0-22.109-7.165-22.109-15.977l18.631-28.854z" class="B C"/><g clip-path="url(#N)" class="B"><path d="M993.554 89.111c.782-.908 1.913-1.425 3.115-1.425a4.12 4.12 0 0 1 3.114 1.425c6.089 7.039 18.98 22.877 18.98 30.712 0 8.827-9.902 15.977-22.095 15.977-12.207 0-22.109-7.151-22.109-15.977 0-7.835 12.891-23.673 18.994-30.712z" class="J Q"/><path d="M993.191 82.756a4.07 4.07 0 0 1 3.478-1.927 4.11 4.11 0 0 1 3.478 1.927c6.229 9.553 18.617 29.832 18.617 39.985 0 11.634-9.902 21.089-22.095 21.089-12.207 0-22.109-9.455-22.109-21.089 0-10.153 12.402-30.432 18.631-39.985z" class="R"/><g class="C"><path d="M1008.582 133.943c-.642-1.117-.265-2.556.852-3.198s2.542-.251 3.184.852l2.332 4.05c.656 1.117.265 2.542-.852 3.184a2.33 2.33 0 0 1-3.184-.852l-2.332-4.036z"/><path d="M1003.051 142.462c-.433-1.215.224-2.542 1.439-2.975 1.215-.419 2.542.237 2.961 1.453l.768 2.207a2.33 2.33 0 0 1-1.438 2.961c-1.215.419-2.556-.223-2.975-1.438l-.754-2.207zm-9.958-1.997a2.34 2.34 0 0 1 2.346-2.332c1.285 0 2.332 1.047 2.332 2.332v2.332c0 1.299-1.047 2.332-2.332 2.332a2.33 2.33 0 0 1-2.346-2.332v-2.332zm-9.175.391a2.34 2.34 0 0 1 3.031-1.327c1.201.461 1.788 1.816 1.327 3.017l-.852 2.179c-.461 1.201-1.816 1.788-3.017 1.327-1.201-.475-1.802-1.816-1.327-3.017l.838-2.179z" class="J"/><path d="M980.258 130.814c.656-1.103 2.081-1.494 3.198-.852s1.494 2.081.852 3.198l-2.025 3.492a2.33 2.33 0 1 1-4.036-2.332l2.011-3.506z"/></g></g><path d="M992.814 98.636a3.93 3.93 0 0 1 6.536 0l13.715 20.6c0 3.827-2.584 7.235-6.606 9.413-2.863 1.55-6.466 2.486-10.377 2.486-9.371 0-16.983-5.335-16.983-11.899l13.715-20.6z" class="B N"/><g clip-path="url(#O)"><g class="X"><rect x="981.432" y="93.79" width="29.748" height="30.041" rx="14.706" opacity=".55"/><g class="B"><path d="M995.328 108.426c-.349-1.243.377-2.528 1.62-2.877s2.528.377 2.877 1.62l.196.671c.335 1.243-.391 2.528-1.62 2.877-1.243.349-2.528-.377-2.877-1.62l-.196-.67z"/></g></g><g class="Y B"><path d="M1000.761 113.58a2.34 2.34 0 0 1 1.117-3.114c1.159-.545 2.556-.056 3.1 1.117l1.006 2.109c.545 1.159.056 2.556-1.117 3.1-1.159.559-2.556.056-3.101-1.103l-1.006-2.109zm-7.668 3.547a2.34 2.34 0 0 1 2.346-2.332c1.285 0 2.332 1.047 2.332 2.332v2.332a2.34 2.34 0 0 1-2.332 2.346 2.34 2.34 0 0 1-2.346-2.346v-2.332zm-4.692-7.849c.642-1.117 2.081-1.494 3.184-.852a2.35 2.35 0 0 1 .852 3.198l-1.173 2.011a2.35 2.35 0 0 1-3.198.852c-1.103-.656-1.494-2.081-.838-3.198l1.173-2.011z"/></g></g><g class="B"><g class="N"><path d="M999.001 130.954c0-1.299-1.047-2.332-2.332-2.332s-2.332 1.033-2.332 2.332v.182c0 1.285 1.047 2.332 2.332 2.332s2.332-1.047 2.332-2.332v-.182zm12.402-5.684c-.489-1.201-1.857-1.774-3.045-1.285-1.201.475-1.774 1.844-1.285 3.031l.07.182c.489 1.187 1.843 1.76 3.045 1.285a2.36 2.36 0 0 0 1.285-3.045l-.07-.168zm-30.237-.028c.489-1.187 1.858-1.774 3.045-1.285a2.33 2.33 0 0 1 1.285 3.045l-.07.168c-.489 1.187-1.843 1.774-3.031 1.285a2.33 2.33 0 0 1-1.285-3.045l.056-.168zm33.687-5.713c-.698-1.089-2.137-1.397-3.226-.712a2.33 2.33 0 0 0-.698 3.226l.098.154c.698 1.089 2.137 1.397 3.226.712 1.075-.698 1.397-2.151.698-3.226l-.098-.154z"/></g><g class="C"><path d="M1020.635 136.722c-.698-1.089-2.137-1.397-3.226-.712a2.33 2.33 0 0 0-.698 3.226l.098.154a2.33 2.33 0 0 0 3.226.712 2.34 2.34 0 0 0 .698-3.226l-.098-.154zm-48.393 0c.685-1.089 2.137-1.397 3.212-.712 1.089.698 1.411 2.151.712 3.226l-.098.154c-.698 1.089-2.151 1.411-3.226.712-1.089-.698-1.397-2.137-.712-3.226l.112-.154zm45.585 5.921c-.684-1.075-2.137-1.397-3.212-.698a2.33 2.33 0 0 0-.712 3.226l.098.154a2.33 2.33 0 0 0 3.226.698c1.089-.684 1.397-2.137.712-3.226l-.112-.154zm-42.792 0a2.34 2.34 0 0 1 3.226-.698c1.089.698 1.397 2.137.698 3.226l-.098.154c-.698 1.089-2.137 1.397-3.226.698-1.075-.684-1.397-2.137-.698-3.226l.098-.154z"/></g><g class="N"><path d="M977.716 119.501c.698-1.089 2.137-1.397 3.226-.698 1.089.684 1.397 2.137.698 3.212l-.098.168a2.34 2.34 0 0 1-3.226.698 2.34 2.34 0 0 1-.698-3.226l.098-.154zm28.492 9.721c-.21-1.271-1.411-2.137-2.682-1.927s-2.123 1.411-1.913 2.682l.028.182c.21 1.271 1.411 2.137 2.682 1.927s2.137-1.411 1.913-2.682l-.028-.182zm-19.846-.028c.209-1.271 1.411-2.137 2.681-1.927a2.33 2.33 0 0 1 1.913 2.696l-.028.182c-.209 1.271-1.41 2.123-2.681 1.913s-2.123-1.411-1.913-2.682l.028-.182z"/></g></g><path d="M648.905 80.061h23.287v20.699h-23.287z" fill="#cca37d"/><g class="B"><path d="M674.779 98.173h-28.461l-12.937 23.287h54.335l-12.937-23.287z" class="S"/><g class="T"><path d="M648.905 80.061l-15.524 23.287v18.112l15.524-23.287V80.061zm23.287 0l15.524 23.287v18.112l-15.524-23.287V80.061z"/></g></g><path d="M633.381 121.46h54.335" stroke="#e9f3f6" class="D G H I V"/></g></svg>