<svg xmlns="http://www.w3.org/2000/svg" width="1500" height="145" xmlns:v="https://vecta.io/nano"><style><![CDATA[.B{fill-rule:evenodd}.C{fill:#839d24}.D{opacity:.5}.E{fill:none}.F{fill:#4d7c3d}.G{clip-rule:evenodd}.H{fill:#bdd033}.I{fill:#abc02e}.J{opacity:.75}.K{stroke-linecap:round}.L{stroke-linejoin:round}.M{stroke-width:10}.N{fill:#66c24c}.O{stroke:#66c24c}.P{stroke-dasharray:0 10}.Q{fill:#6b4c46}.R{fill:#594237}.S{fill:#d6e23d}.T{fill:#dc5b8a}.U{stroke-width:1.976}]]></style><defs><clipPath id="A"><path d="M0 0h1500v145H0z" class="E"/></clipPath><clipPath id="B"><path d="M556.458 55.375h19.482l5.28 48.175c.293 2.67-1.8 5.002-4.488 5.002h-21.16c-2.692 0-4.786-2.338-4.487-5.011l5.374-48.166z" class="E"/></clipPath><clipPath id="C"><path d="M566.151 53.624c0 6.888-2.738 13.497-7.615 18.369s-11.49 7.608-18.388 7.608h-26.152V62.427c0-6.892 2.738-13.5 7.615-18.372s11.49-7.608 18.388-7.608h26.152v17.177z" class="E G"/></clipPath><clipPath id="D"><path d="M566.151 53.624c0 6.888 2.738 13.497 7.615 18.369s11.49 7.608 18.388 7.608h26.152V62.427c0-6.892-2.738-13.5-7.615-18.372s-11.49-7.608-18.388-7.608h-26.152v17.177z" class="E G"/></clipPath><clipPath id="E"><path d="M566.137 79.602l15.621-11.374c8.628-6.282 9.603-18.778 2.054-26.321l-5.464-5.46h-24.421l-5.464 5.46c-7.549 7.543-6.574 20.038 2.054 26.321l15.621 11.374z" class="E G"/></clipPath><clipPath id="F"><path d="M271.237 73.004h19.482l5.28 48.175c.293 2.67-1.8 5.002-4.488 5.002h-21.16c-2.692 0-4.786-2.338-4.487-5.011l5.374-48.166z" class="E"/></clipPath><clipPath id="G"><path d="M280.93 71.253c0 6.888-2.738 13.497-7.615 18.369s-11.49 7.608-18.388 7.608h-26.152V80.056c0-6.892 2.738-13.5 7.615-18.372s11.49-7.608 18.388-7.608h26.152v17.177z" class="E G"/></clipPath><clipPath id="H"><path d="M280.93 71.253c0 6.888 2.738 13.497 7.615 18.369s11.49 7.608 18.388 7.608h26.152V80.056c0-6.892-2.738-13.5-7.615-18.372s-11.49-7.608-18.388-7.608H280.93v17.177z" class="E G"/></clipPath><clipPath id="I"><path d="M280.916 97.23l15.621-11.374c8.628-6.282 9.603-18.778 2.054-26.321l-5.464-5.46h-24.421l-5.464 5.46c-7.549 7.543-6.574 20.038 2.054 26.321l15.621 11.374z" class="E G"/></clipPath><clipPath id="J"><path d="M183.007 102.683h13.366l3.622 33.052c.201 1.832-1.235 3.432-3.079 3.432h-14.517c-1.847 0-3.283-1.604-3.079-3.438l3.687-33.046z" class="E"/></clipPath><clipPath id="K"><path d="M189.657 101.482a17.82 17.82 0 0 1-5.224 12.603c-3.346 3.343-7.883 5.22-12.615 5.22h-17.942v-11.782a17.82 17.82 0 0 1 5.224-12.605c3.346-3.341 7.883-5.22 12.615-5.22h17.942v11.785z" class="E G"/></clipPath><clipPath id="L"><path d="M189.657 101.482a17.82 17.82 0 0 0 5.224 12.603c3.346 3.343 7.883 5.22 12.615 5.22h17.942v-11.782a17.82 17.82 0 0 0-5.224-12.605c-3.346-3.341-7.883-5.22-12.615-5.22h-17.942v11.785z" class="E G"/></clipPath><clipPath id="M"><path d="M189.648 119.305l10.717-7.803c5.919-4.31 6.588-12.883 1.409-18.058l-3.749-3.746H181.27l-3.749 3.746c-5.179 5.175-4.51 13.748 1.409 18.058l10.717 7.803z" class="E G"/></clipPath><clipPath id="N"><path d="M1056.913 92.752h13.366l3.622 33.052c.201 1.832-1.235 3.432-3.079 3.432h-14.517c-1.847 0-3.283-1.604-3.079-3.438l3.687-33.046z" class="E"/></clipPath><clipPath id="O"><path d="M1063.563 91.551a17.82 17.82 0 0 1-5.224 12.603c-3.346 3.343-7.883 5.22-12.615 5.22h-17.942V97.592a17.82 17.82 0 0 1 5.224-12.605c3.346-3.341 7.883-5.22 12.615-5.22h17.942v11.785z" class="E G"/></clipPath><clipPath id="P"><path d="M1063.563 91.551a17.82 17.82 0 0 0 5.224 12.603c3.346 3.343 7.883 5.22 12.615 5.22h17.942V97.592a17.82 17.82 0 0 0-5.224-12.605c-3.346-3.341-7.883-5.22-12.615-5.22h-17.942v11.785z" class="E G"/></clipPath><clipPath id="Q"><path d="M1063.553 109.373l10.717-7.803c5.919-4.31 6.588-12.883 1.409-18.058l-3.749-3.746h-16.755l-3.749 3.746c-5.179 5.175-4.51 13.748 1.409 18.058l10.717 7.803z" class="E G"/></clipPath><clipPath id="R"><path d="M1154.55-10.961h19.482l5.28 48.175c.293 2.67-1.8 5.002-4.488 5.002h-21.16c-2.692 0-4.786-2.338-4.487-5.011l5.374-48.166z" class="E"/></clipPath><clipPath id="S"><path d="M1164.243-12.711c0 6.888-2.738 13.497-7.615 18.369s-11.49 7.608-18.388 7.608h-26.152V-3.908c0-6.892 2.738-13.5 7.615-18.372s11.49-7.608 18.388-7.608h26.152v17.177z" class="E G"/></clipPath><clipPath id="T"><path d="M1164.243-12.711c0 6.888 2.738 13.497 7.615 18.369s11.49 7.608 18.388 7.608h26.152V-3.908c0-6.892-2.738-13.5-7.615-18.372s-11.49-7.608-18.388-7.608h-26.152v17.177z" class="E G"/></clipPath><clipPath id="U"><path d="M1164.229 13.266l15.621-11.374c8.628-6.282 9.603-18.778 2.054-26.321l-5.464-5.46h-24.421l-5.464 5.46c-7.549 7.543-6.574 20.038 2.054 26.321l15.621 11.374z" class="E G"/></clipPath><clipPath id="V"><path d="M1326.032 118.703c-1.906 0-3.725-.8-5.012-2.206s-1.923-3.287-1.754-5.184l25.527-285.872c.498-5.579 5.174-9.821 10.78-9.821h23.439c5.63 0 10.321 4.312 10.788 9.918l4.586 54.98h16.672c3.052 0 5.835 1.71 7.199 4.437l7.538 15.064a11.5 11.5 0 0 1 1.199 4.512l5.281 94.968 29.498 8.421c4.972 1.419 8.392 5.957 8.392 11.123v92.873c0 1.8-.716 3.526-1.99 4.799s-3.001 1.988-4.803 1.988h-137.34z" class="E G"/></clipPath><clipPath id="W"><path d="M768.459 13.458l-44.316-39.232h-2.913l-44.316 39.232v36.297a3.21 3.21 0 0 0 .942 2.273c.606.605 1.424.944 2.278.944h85.105c.854 0 1.672-.339 2.278-.944s.942-1.42.942-2.273V13.458z" class="E G"/></clipPath><clipPath id="X"><path d="M728.427 54.517h19.482l5.28 48.175c.293 2.67-1.8 5.002-4.488 5.002h-21.16c-2.692 0-4.786-2.338-4.487-5.011l5.374-48.166z" class="E"/></clipPath><clipPath id="Y"><path d="M738.119 52.766c0 6.888-2.738 13.497-7.615 18.369s-11.49 7.608-18.388 7.608h-26.152V61.569c0-6.892 2.738-13.5 7.615-18.372s11.49-7.608 18.388-7.608h26.152v17.177z" class="E G"/></clipPath><clipPath id="Z"><path d="M738.119 52.766c0 6.888 2.738 13.497 7.615 18.369s11.49 7.608 18.388 7.608h26.152V61.569c0-6.892-2.738-13.5-7.615-18.372s-11.49-7.608-18.388-7.608h-26.152v17.177z" class="E G"/></clipPath><clipPath id="a"><path d="M738.105 78.743l15.621-11.374c8.628-6.282 9.603-18.778 2.054-26.321l-5.464-5.46h-24.421l-5.464 5.46c-7.549 7.543-6.574 20.038 2.054 26.321l15.621 11.374z" class="E G"/></clipPath><clipPath id="b"><path d="M802.342-19.398h19.482l5.28 48.175c.293 2.67-1.8 5.002-4.488 5.002h-21.16c-2.692 0-4.786-2.338-4.487-5.011l5.374-48.166z" class="E"/></clipPath><clipPath id="c"><path d="M812.034-21.149c0 6.888-2.738 13.497-7.615 18.369s-11.49 7.608-18.388 7.608h-26.152v-17.174c0-6.892 2.738-13.5 7.615-18.372s11.49-7.608 18.388-7.608h26.152v17.177z" class="E G"/></clipPath><clipPath id="d"><path d="M812.034-21.149c0 6.888 2.738 13.497 7.615 18.369s11.49 7.608 18.388 7.608h26.152v-17.174c0-6.892-2.738-13.5-7.615-18.372s-11.49-7.608-18.388-7.608h-26.152v17.177z" class="E G"/></clipPath><clipPath id="e"><path d="M812.02 4.828l15.621-11.374c8.628-6.282 9.603-18.778 2.054-26.321l-5.464-5.46H799.81l-5.464 5.46c-7.549 7.543-6.574 20.038 2.054 26.321l15.621 11.374z" class="E G"/></clipPath><clipPath id="f"><path d="M858.279 36.539h19.482l5.28 48.175c.293 2.67-1.8 5.002-4.488 5.002h-21.16c-2.692 0-4.786-2.338-4.487-5.011l5.374-48.166z" class="E"/></clipPath><clipPath id="g"><path d="M867.972 34.788c0 6.888-2.738 13.497-7.615 18.369s-11.49 7.608-18.388 7.608h-26.152V43.591c0-6.892 2.738-13.5 7.615-18.372s11.49-7.608 18.388-7.608h26.152v17.177z" class="E G"/></clipPath><clipPath id="h"><path d="M867.972 34.788c0 6.888 2.738 13.497 7.615 18.369s11.49 7.608 18.388 7.608h26.152V43.591c0-6.892-2.738-13.5-7.615-18.372s-11.49-7.608-18.388-7.608h-26.152v17.177z" class="E G"/></clipPath><clipPath id="i"><path d="M867.957 60.765l15.621-11.374c8.628-6.282 9.603-18.778 2.054-26.321l-5.464-5.46h-24.421l-5.464 5.46c-7.549 7.543-6.574 20.038 2.054 26.321l15.621 11.374z" class="E G"/></clipPath><path id="j" d="M556.458 55.375h19.482l5.28 48.175c.293 2.67-1.8 5.002-4.488 5.002h-21.16c-2.692 0-4.786-2.338-4.487-5.011l5.374-48.166z"/><path id="k" d="M566.137 90.199l15.926-11.596c8.796-6.405 9.791-19.145 2.094-26.835l-5.571-5.566h-24.898l-5.571 5.566c-7.696 7.69-6.702 20.43 2.094 26.835l15.926 11.596z"/><path id="l" d="M511.948 76.475l52.126-42.572 4.121 5.046-52.126 42.572z"/><path id="m" d="M513.996 61.343v-6.169h9.952c.818 0 1.604.326 2.184.905a3.08 3.08 0 0 1 .903 2.179h0a3.09 3.09 0 0 1-.903 2.182c-.58.58-1.366.902-2.184.902h-9.952z"/><path id="n" d="M513.996 48.661v-6.514h19.561c1.799 0 3.256 1.456 3.256 3.254v.007c0 1.798-1.457 3.254-3.256 3.254h-19.561z"/><path id="o" d="M564.089 38.97l4.118-5.049 52.156 42.536-4.118 5.049z"/><path id="p" d="M618.306 61.689v-6.514h-9.782c-.864 0-1.692.342-2.301.954a3.24 3.24 0 0 0-.955 2.299v.007c0 .863.342 1.69.955 2.303s1.437.951 2.301.951h9.782z"/><path id="q" d="M618.306 48.661v-6.514h-19.558a3.27 3.27 0 0 0-2.305.954 3.25 3.25 0 0 0-.955 2.303c0 .863.342 1.694.955 2.303s1.441.954 2.305.954h19.558z"/><path id="r" d="M566.137 79.602l15.621-11.374c8.628-6.282 9.603-18.778 2.054-26.321l-5.464-5.46h-24.421l-5.464 5.46c-7.549 7.543-6.574 20.038 2.054 26.321l15.621 11.374z"/><path id="s" d="M589.264 60.243c1.061 0 2.105-.517 2.729-1.469.989-1.505.569-3.524-.938-4.51l-13.251-8.685a3.26 3.26 0 0 0-4.512.935c-.989 1.505-.569 3.524.938 4.51l13.251 8.685a3.23 3.23 0 0 0 1.783.534z"/><path id="t" d="M543.039 60.243a3.24 3.24 0 0 0 1.783-.534l13.247-8.685c1.507-.986 1.927-3.005.938-4.51-.985-1.499-2.992-1.93-4.512-.935l-13.247 8.685c-1.507.986-1.927 3.005-.938 4.51.624.952 1.668 1.469 2.729 1.469z"/><path id="u" d="M277.669 49.371h6.519v56.807h-6.519z"/><path id="v" d="M183.007 102.683h13.366l3.622 33.052c.201 1.832-1.235 3.432-3.079 3.432h-14.517c-1.847 0-3.283-1.604-3.079-3.438l3.687-33.046z"/><path id="w" d="M189.647 126.575l10.926-7.956c6.035-4.394 6.717-13.135 1.437-18.411l-3.822-3.819h-17.082l-3.822 3.819c-5.28 5.276-4.598 14.016 1.437 18.411l10.926 7.956z"/><path id="x" d="M152.471 117.16l35.762-29.208 2.828 3.462-35.762 29.208z"/><path id="y" d="M168.785 121.235h4.473v-7.517c0-1.233-1.002-2.234-2.236-2.234s-2.236 1.001-2.236 2.234v7.517z"/><path id="z" d="M153.875 106.778v-4.232h6.828a2.12 2.12 0 0 1 1.498.621c.396.396.619.934.619 1.495h0c0 .563-.224 1.099-.619 1.497s-.937.619-1.498.619h-6.828z"/><path id="AA" d="M153.875 98.077v-4.469h13.421c1.234 0 2.234.999 2.234 2.232v.004c0 1.233-1 2.232-2.234 2.232h-13.421z"/><path id="AB" d="M188.244 91.429l2.825-3.464 35.783 29.183-2.825 3.464z"/><path id="AC" d="M210.53 121.235h-4.473v-7.517c0-1.233 1.002-2.234 2.236-2.234s2.236 1.001 2.236 2.234v7.517z"/><path id="AD" d="M201.585 121.566h-4.473v-14.83c0-.592.235-1.16.655-1.58a2.24 2.24 0 0 1 3.162 0c.42.42.655.988.655 1.58v14.83z"/><path id="AE" d="M225.44 107.015v-4.469h-6.711c-.593 0-1.161.235-1.579.655s-.655.985-.655 1.578v.004c0 .592.235 1.16.655 1.58a2.23 2.23 0 0 0 1.579.652h6.711z"/><path id="AF" d="M225.44 98.077v-4.469h-13.418a2.24 2.24 0 0 0-1.581.655c-.42.42-.655.988-.655 1.58a2.23 2.23 0 0 0 2.236 2.235h13.418z"/><path id="AG" d="M205.515 106.023c.728 0 1.444-.355 1.872-1.008a2.23 2.23 0 0 0-.644-3.094l-9.091-5.959c-1.034-.681-2.42-.387-3.095.642a2.23 2.23 0 0 0 .644 3.094l9.091 5.959a2.22 2.22 0 0 0 1.223.367z"/><path id="AH" d="M173.801 106.023a2.22 2.22 0 0 0 1.223-.367l9.088-5.959a2.23 2.23 0 1 0-2.451-3.736l-9.088 5.959a2.23 2.23 0 0 0-.644 3.094c.428.653 1.144 1.008 1.872 1.008z"/><path id="AI" d="M1047.706 96.092a2.22 2.22 0 0 0 1.223-.367l9.088-5.959a2.23 2.23 0 0 0-2.451-3.736l-9.088 5.959a2.23 2.23 0 0 0-.644 3.094c.428.653 1.144 1.008 1.872 1.008z"/><path id="AJ" d="M233.549 20.321a1.78 1.78 0 0 0-2.517 0 1.78 1.78 0 0 0 0 2.515l5.035 5.03c.695.693 1.822.693 2.517 0a1.78 1.78 0 0 0 0-2.516l-5.035-5.029z"/><path id="AK" d="M238.583 22.836a1.78 1.78 0 0 0 0-2.515 1.78 1.78 0 0 0-2.517 0l-5.035 5.029a1.78 1.78 0 0 0 0 2.516c.695.693 1.823.693 2.517 0l5.035-5.03z"/><path id="AL" d="M822.527 109.278a1.78 1.78 0 0 0 0-2.517 1.78 1.78 0 0 0-2.515 0l-5.03 5.035c-.693.695-.693 1.822 0 2.517a1.78 1.78 0 0 0 2.516 0l5.029-5.035z"/><path id="AM" d="M820.013 114.312a1.78 1.78 0 0 0 2.515 0 1.78 1.78 0 0 0 0-2.517l-5.029-5.035a1.78 1.78 0 0 0-2.516 0c-.693.695-.693 1.823 0 2.517l5.03 5.035z"/><path id="AN" d="M947.877 91.467a2.56 2.56 0 0 1-2.555-2.561v-8.019c0-1.416 1.144-2.561 2.555-2.561a2.56 2.56 0 0 1 2.555 2.561v8.019c0 1.416-1.144 2.561-2.555 2.561z"/><path id="AO" d="M958.546 91.467a2.56 2.56 0 0 1-2.555-2.561v-5.345c0-1.416 1.144-2.561 2.555-2.561a2.56 2.56 0 0 1 2.555 2.561v5.345c0 1.416-1.144 2.561-2.555 2.561z"/><path id="AP" d="M987.331 112.632a2.56 2.56 0 0 1-2.555-2.561v-5.348c0-1.416 1.144-2.561 2.555-2.561a2.56 2.56 0 0 1 2.555 2.561v5.348c0 1.416-1.144 2.561-2.555 2.561z"/><path id="AQ" d="M674.221 12.619h96.93v8.071h-96.93z"/><path id="AR" d="M687.684 42.174h16.155v2.728h-16.155z"/></defs><g clip-path="url(#A)"><path d="M-40.704-3755.384h1571.886V182.395H-40.704z" fill="#5bd1d6"/><g class="B"><path d="M298.223 885.464c-56.521 0-109.66-22.011-149.626-61.979l-38.785-38.783c-11.636-11.637-27.106-18.045-43.562-18.045H-85.329V64.031H59.76c24.46 0 44.36-19.9 44.36-44.36S84.22-24.69 59.76-24.69H-44.1c-16.953 0-30.746-13.792-30.746-30.745v-550.967c0-16.953 13.792-30.746 30.746-30.746h171.767c23.272 0 43.808-16.479 48.831-39.183 5.177-23.399 18.398-44.492 37.227-59.392a105.57 105.57 0 0 1 65.238-22.682h374.146c43.92 0 83.525 27.642 98.552 68.782 7.202 19.72 26.097 32.968 47.017 32.968h153.443c27.981 0 50.746-22.765 50.746-50.745v-47.256c0-27.981 22.764-50.746 50.745-50.746h176.32c13.535 0 26.267 5.263 35.851 14.819 9.612 9.586 14.902 22.337 14.896 35.903-.007 13.559 5.269 26.308 14.854 35.897s22.332 14.871 35.891 14.871h203.633c16.953 0 30.746 13.793 30.746 30.746v286.793c0 16.953-13.793 30.745-30.746 30.745h-119.439a198.55 198.55 0 0 1-96.375-25.026c-29.398-16.372-54.304-40.147-72.021-68.755a138.42 138.42 0 0 0-50.207-47.931c-20.493-11.413-43.725-17.445-67.182-17.445H968.819c-21.204 0-41.235 8.156-56.403 22.966-15.102 14.745-23.73 34.45-24.311 55.5l-.017.744-.015.79v303.375c0 44.112 35.888 80 80 80h608.786c44.486 0 80.708 36.191 80.745 80.677v74.276c0 17.709-6.896 34.358-19.418 46.882s-29.173 19.42-46.883 19.42h-347.479c-14.804 0-27.571 10.254-31.049 24.937-10.616 44.83-32.153 85.209-60.643 113.697l-101.545 101.545c-20.07 20.07-43.544 35.754-69.768 46.617s-53.913 16.37-82.297 16.37h-53.59c-6.319 0-11.461 5.142-11.461 11.461v152.735c0 56.521-22.011 109.66-61.978 149.627l-36.653 36.652c-39.968 39.967-93.106 61.978-149.626 61.978H298.221z" fill="#4eeae6"/><path d="M1535.056-672.292h-203.633c-44.608 0-80.767-36.172-80.746-80.785.005-11.443-9.303-20.707-20.746-20.707h-176.32a20.75 20.75 0 0 0-20.746 20.746v47.256c0 44.595-36.151 80.746-80.746 80.746H798.675c-33.469 0-63.688-21.168-75.196-52.675-10.722-29.354-39.002-49.075-70.373-49.075H278.96a75.44 75.44 0 0 0-46.622 16.208c-13.432 10.628-22.861 25.666-26.551 42.345-8.037 36.333-40.893 62.703-78.123 62.703H-44.1c-.412 0-.746.334-.746.746v550.967c0 .412.334.746.746.746H59.76c41.068 0 74.361 33.292 74.361 74.361h0c0 41.068-33.292 74.361-74.361 74.361H-55.329v642.626H66.25c24.468 0 47.472 9.528 64.774 26.831l38.785 38.784c34.301 34.301 79.906 53.191 128.414 53.191h286.993c48.508 0 94.113-18.891 128.414-53.19l36.652-36.652c34.3-34.301 53.191-79.905 53.191-128.414V486.092c0-22.898 18.563-41.461 41.461-41.461h53.59a184.12 184.12 0 0 0 70.815-14.086c22.565-9.348 42.765-22.844 60.035-40.114l101.546-101.546c25.785-25.785 43.783-61.897 52.663-99.398 6.642-28.047 31.418-48.023 60.241-48.023h347.479c20.048 0 36.301-16.253 36.301-36.301V30.911c-.024-28.006-22.733-50.702-50.745-50.702H968.072c-60.751 0-110-49.249-110-110v-303.373c0-.695.023-1.389.036-2.083v-.037c1.52-59.839 50.504-107.881 110.709-107.881h161.013a168.08 168.08 0 0 1 142.892 79.579h0a168.08 168.08 0 0 0 142.892 79.579h119.44c.412 0 .746-.334.746-.746v-286.793c0-.412-.334-.746-.746-.746z" fill="#fcee92"/><path d="M1640.658 28.59H968.072c-88.366 0-160-71.634-160-160v-303.373c0-30.548 8.605-59.124 23.519-83.431 15.687-25.567-2.918-58.44-32.915-58.44h0c-56.065 0-103.955-35.678-122.161-85.521-3.576-9.791-12.985-16.229-23.408-16.229H278.961c-11.632 0-21.841 7.996-24.353 19.353-12.879 58.22-64.906 101.903-126.942 101.903h-168.37v452.458h99.12c66.163 0 120.024 53.207 120.832 119.365h0c.822 67.311-53.516 122.317-120.832 122.317h-68.745v554.665H66.25a136.6 136.6 0 0 1 96.594 40.011l38.786 38.786c25.618 25.618 60.364 40.011 96.594 40.011h286.993a136.6 136.6 0 0 0 96.594-40.011l36.652-36.652c25.618-25.618 40.01-60.364 40.01-96.594V484.472c0-47.751 38.71-86.461 86.461-86.461h53.59a140.05 140.05 0 0 0 99.031-41.02l101.546-101.545c28.705-28.705 44.832-67.638 45.78-108.233l495.779-.432V28.59z" class="N"/></g><g class="E K L M O"><path d="M1630.668 28.59H968.072c-88.366 0-160-71.634-160-160v-303.373c0-30.547 8.605-59.124 23.519-83.431 15.687-25.567-2.918-58.44-32.915-58.44h0c-56.065 0-103.955-35.678-122.161-85.521-3.576-9.791-12.985-16.229-23.408-16.229H278.961c-11.632 0-21.841 7.996-24.353 19.353-12.879 58.22-64.906 101.903-126.942 101.903H-35.709" stroke-dasharray="0 9.99"/><path d="M-30.749-104.69H58.416c66.163,0,120.024,53.208,120.832,119.365h0c.822,67.311-53.516,122.317-120.832,122.317H-5.352" stroke-dasharray="0 9.955"/><path d="M1144.879 147.212h0"/><path d="M1154.795 147.204l480.905-.419" stroke-dasharray="0 9.916"/></g><path d="M279.578-505.247v-49.028c0-14.731 11.942-26.674 26.674-26.674h181.172c14.731 0 26.674 11.942 26.674 26.674v58.663c0 14.731 11.942 26.674 26.674 26.674h62.033c14.731 0 26.674 11.942 26.674 26.674v89.476c0 14.731 11.942 26.674 26.674 26.674h13.114c14.731 0 26.674 11.942 26.674 26.674v114.761c0 14.731-11.942 26.674-26.674 26.674H543.58c-37.846 0-68.526 30.68-68.526 68.526v131.59c0 33.097-26.831 59.928-59.928 59.928h-81.482c-33.097 0-59.928-26.831-59.928-59.928v-246.339c0-14.731-11.942-26.674-26.674-26.674h-54.164c-14.731 0-26.674 11.942-26.674 26.674h0c0 14.732-11.942 26.674-26.674 26.674H79.502c-14.731 0-26.674-11.942-26.674-26.674v-60.726c0-14.731-11.942-26.674-26.674-26.674H-84.697c-14.731 0-26.674-11.942-26.674-26.674v-22.19c0-14.731 11.942-26.674 26.674-26.674H69.158c14.731 0 26.674-11.942 26.674-26.674v-58.061c0-14.731 11.942-26.674 26.674-26.674h130.399c14.731 0 26.674-11.942 26.674-26.674z" fill="#52aa35"/><path d="M279.578-505.247v-49.028c0-14.731 11.942-26.674 26.674-26.674h181.172c14.731 0 26.674 11.942 26.674 26.674v58.663c0 14.731 11.942 26.674 26.674 26.674h62.033c14.731 0 26.674 11.942 26.674 26.673v89.476c0 14.731 11.942 26.674 26.674 26.674h13.114c14.731 0 26.674 11.942 26.674 26.673v114.761c0 14.731-11.942 26.674-26.674 26.674H543.58c-37.846 0-68.526 30.68-68.526 68.526V42.111c0 33.097-26.831 59.928-59.928 59.928h-81.482c-33.097 0-59.928-26.831-59.928-59.928v-246.339c0-14.732-11.942-26.674-26.674-26.674h-54.164c-14.731 0-26.674 11.942-26.674 26.674s-11.942 26.673-26.674 26.673H79.502c-14.731 0-26.674-11.942-26.674-26.673v-60.726c0-14.731-11.942-26.673-26.674-26.673H-84.697c-14.731 0-26.674-11.942-26.674-26.674v-22.19c0-14.731 11.942-26.674 26.674-26.674H69.158c14.731 0 26.674-11.942 26.674-26.674V-451.9c0-14.731 11.942-26.673 26.674-26.673h130.399c14.731 0 26.674-11.942 26.674-26.674z" stroke="#52aa35" stroke-dasharray="0 10.006" class="E K L M"/><path d="M1603.991-285.777l-4.152-4.152c-19.421-19.421-45.761-30.331-73.226-30.331h-160.276c-27.465 0-53.805-10.91-73.226-30.331l-56.101-56.101c-19.421-19.421-45.761-30.331-73.226-30.331h-94.875c-27.465 0-53.805 10.91-73.226 30.331l-49.318 49.318c-19.421 19.421-30.331 45.761-30.331 73.226v27.454c0 27.465 10.91 53.805 30.331 73.226l69.113 69.113c19.421 19.421 45.761 30.331 73.226 30.331h396.346c27.465 0 53.805 10.91 73.226 30.331l30.175 30.175c19.421 19.421 45.761 30.331 73.226 30.331h14.788c57.193 0 103.557-46.364 103.557-103.557v-55.145c0-57.046-46.135-103.349-103.181-103.556h0a103.56 103.56 0 0 1-72.85-30.33z" fill="#56c7c8"/><use href="#j" class="Q"/><g clip-path="url(#B)" class="B R"><use href="#k"/></g><path d="M566.151 53.624c0 6.888-2.738 13.497-7.615 18.369s-11.49 7.608-18.388 7.608h-26.152V62.427c0-6.892 2.738-13.5 7.615-18.372s11.49-7.608 18.388-7.608h26.152v17.177z" class="B I"/><g clip-path="url(#C)"><path d="M566.151 36.447L507.95 86.194h58.201V36.447z" class="B C"/><use href="#l" class="H"/><g class="B"><g class="F"><path d="M535.728 82.416h6.519V71.46a3.26 3.26 0 0 0-6.52 0v10.956zm13.038.482h6.519V61.279c0-1.798-1.457-3.254-3.256-3.254h-.007c-1.799 0-3.256 1.456-3.256 3.254v21.619z" class="D"/></g><g class="C"><use href="#m" class="J"/><use href="#n" class="J"/></g></g></g><path d="M566.151 53.624c0 6.888 2.738 13.497 7.615 18.369s11.49 7.608 18.388 7.608h26.152V62.427c0-6.892-2.738-13.5-7.615-18.372s-11.49-7.608-18.388-7.608h-26.152v17.177z" class="B I"/><g clip-path="url(#D)"><path d="M566.151 36.447l58.202 49.747h-58.202V36.447z" class="B C"/><use href="#o" class="H"/><g class="B"><g class="F"><path d="M596.575 82.416h-6.519V71.46a3.26 3.26 0 0 1 6.52 0v10.956zm-13.039.482h-6.519V61.282c0-.863.342-1.69.955-2.303a3.27 3.27 0 0 1 4.61 0 3.25 3.25 0 0 1 .955 2.303v21.616z" class="D"/></g><g class="C"><use href="#p" class="J"/><use href="#q" class="J"/></g></g></g><use href="#r" class="B H"/><g clip-path="url(#E)"><path d="M566.136 81.206h-24.644V34.471h24.644z" class="C"/><path d="M562.89 31.743h6.519V88.55h-6.519z" class="S"/><g class="D C"><use href="#s"/></g><g class="D F"><use href="#t"/></g><path d="M589.264 75.094c1.061 0 2.105-.517 2.729-1.469.989-1.505.569-3.524-.938-4.51l-13.251-8.685a3.26 3.26 0 0 0-4.512.935c-.989 1.505-.569 3.524.938 4.51l13.251 8.685a3.23 3.23 0 0 0 1.783.534z" class="C D"/><g class="D F"><path d="M543.039 75.094a3.24 3.24 0 0 0 1.783-.534l13.247-8.685c1.507-.986 1.927-3.005.938-4.51-.985-1.499-2.992-1.93-4.512-.935l-13.247 8.685c-1.507.986-1.927 3.005-.938 4.51.624.952 1.668 1.469 2.729 1.469z"/></g></g><path d="M539.669 108.553l52.965-.579" class="K L M N O P"/><path d="M271.237 73.004h19.482l5.28 48.175c.293 2.67-1.8 5.002-4.488 5.002h-21.16c-2.692 0-4.786-2.338-4.487-5.011l5.374-48.166z" class="Q"/><g clip-path="url(#F)" class="B R"><path d="M280.916 107.828l15.926-11.596c8.796-6.405 9.791-19.145 2.094-26.835l-5.571-5.566h-24.898l-5.571 5.566c-7.696 7.69-6.702 20.43 2.094 26.835l15.926 11.596z"/></g><path d="M280.93 71.253c0 6.888-2.738 13.497-7.615 18.369s-11.49 7.608-18.388 7.608h-26.152V80.056c0-6.892 2.738-13.5 7.615-18.372s11.49-7.608 18.388-7.608h26.152v17.177z" class="B I"/><g clip-path="url(#G)"><path d="M280.93 54.076l-58.201 49.746h58.201V54.076z" class="B C"/><path d="M226.728 94.106l52.126-42.572 4.121 5.046-52.126 42.572z" class="H"/><g class="B"><g class="F"><path d="M250.507 100.044h6.519V89.088a3.26 3.26 0 0 0-6.52 0v10.956zm13.038.482h6.519V78.907c0-1.798-1.457-3.254-3.256-3.254h-.007c-1.799 0-3.256 1.456-3.256 3.254v21.619z" class="D"/></g><g class="C"><path d="M228.775 78.972v-6.169h9.952c.818 0 1.604.326 2.184.905a3.08 3.08 0 0 1 .903 2.179h0a3.09 3.09 0 0 1-.903 2.182c-.58.58-1.366.902-2.184.902h-9.952zm0-12.683v-6.514h19.561c1.799 0 3.256 1.456 3.256 3.254v.007c0 1.798-1.457 3.254-3.256 3.254h-19.561z" class="J"/></g></g></g><path d="M280.93 71.253c0 6.888 2.738 13.497 7.615 18.369s11.49 7.608 18.388 7.608h26.152V80.056c0-6.892-2.738-13.5-7.615-18.372s-11.49-7.608-18.388-7.608H280.93v17.177z" class="B I"/><g clip-path="url(#H)"><path d="M280.93 54.076l58.202 49.746H280.93V54.076z" class="B C"/><path d="M278.87 56.6l4.118-5.049 52.156 42.536-4.118 5.049z" class="H"/><g class="B"><g class="F"><path d="M311.354 100.044h-6.519V89.088a3.26 3.26 0 0 1 6.52 0v10.956zm-13.039.482h-6.519V78.91c0-.863.342-1.69.955-2.303a3.27 3.27 0 0 1 4.61 0 3.25 3.25 0 0 1 .955 2.303v21.616z" class="D"/></g><g class="C"><path d="M333.085 79.317v-6.514h-9.782c-.864 0-1.692.342-2.301.954a3.24 3.24 0 0 0-.955 2.299v.007c0 .863.342 1.69.955 2.303s1.437.951 2.301.951h9.782zm0-13.028v-6.514h-19.558a3.27 3.27 0 0 0-2.305.954 3.25 3.25 0 0 0-.955 2.303c0 .863.342 1.694.955 2.303s1.441.954 2.305.954h19.558z" class="J"/></g></g></g><path d="M280.916 97.23l15.621-11.374c8.628-6.282 9.603-18.778 2.054-26.321l-5.464-5.46h-24.421l-5.464 5.46c-7.549 7.543-6.574 20.038 2.054 26.321l15.621 11.374z" class="B H"/><g clip-path="url(#I)"><path d="M280.915 98.834h-24.644V52.099h24.644z" class="C"/><use href="#u" class="S"/><g class="D C"><path d="M304.043 77.872c1.061 0 2.105-.517 2.729-1.469.989-1.505.569-3.524-.938-4.51l-13.251-8.685a3.26 3.26 0 0 0-4.512.935c-.989 1.505-.569 3.524.938 4.51l13.251 8.685a3.23 3.23 0 0 0 1.783.534z"/></g><g class="D F"><path d="M257.818 77.872a3.24 3.24 0 0 0 1.783-.534l13.247-8.685c1.507-.986 1.927-3.005.938-4.51-.985-1.499-2.992-1.93-4.512-.935l-13.247 8.685c-1.507.986-1.927 3.005-.938 4.51.624.952 1.668 1.469 2.729 1.469z"/></g><path d="M304.043 92.723c1.061 0 2.105-.517 2.729-1.469.989-1.505.569-3.524-.938-4.51l-13.251-8.685a3.26 3.26 0 0 0-4.512.935c-.989 1.505-.569 3.524.938 4.51l13.251 8.685a3.23 3.23 0 0 0 1.783.534z" class="C D"/><g class="D F"><path d="M257.818 92.723a3.24 3.24 0 0 0 1.783-.534l13.247-8.685c1.507-.986 1.927-3.005.938-4.51-.985-1.499-2.992-1.93-4.512-.935l-13.247 8.685c-1.507.986-1.927 3.005-.938 4.51.624.952 1.668 1.469 2.729 1.469z"/></g></g><path d="M254.448 126.181l52.965-.578" class="K L M N O P"/><use href="#v" class="Q"/><g clip-path="url(#J)" class="B R"><use href="#w"/></g><path d="M189.657 101.482a17.82 17.82 0 0 1-5.224 12.603c-3.346 3.343-7.883 5.22-12.615 5.22h-17.942v-11.782a17.82 17.82 0 0 1 5.224-12.605c3.346-3.341 7.883-5.22 12.615-5.22h17.942v11.785z" class="B I"/><g clip-path="url(#K)"><path d="M189.657 89.698l-39.93 34.129h39.93V89.698z" class="B C"/><use href="#x" class="H"/><g class="B"><g class="F"><use href="#y" class="D"/><path d="M177.73 121.566h4.473v-14.833c0-1.233-1-2.232-2.234-2.232h-.005c-1.234 0-2.234.999-2.234 2.232v14.833z" class="D"/></g><g class="C"><use href="#z" class="J"/><use href="#AA" class="J"/></g></g></g><path d="M189.657 101.482a17.82 17.82 0 0 0 5.224 12.603c3.346 3.343 7.883 5.22 12.615 5.22h17.942v-11.782a17.82 17.82 0 0 0-5.224-12.605c-3.346-3.341-7.883-5.22-12.615-5.22h-17.942v11.785z" class="B I"/><g clip-path="url(#L)"><path d="M189.657 89.698l39.931 34.129h-39.931V89.698z" class="B C"/><use href="#AB" class="H"/><g class="B"><g class="F"><use href="#AC" class="D"/><use href="#AD" class="D"/></g><g class="C"><use href="#AE" class="J"/><use href="#AF" class="J"/></g></g></g><path d="M189.648 119.305l10.717-7.803c5.919-4.31 6.588-12.883 1.409-18.058l-3.749-3.746H181.27l-3.749 3.746c-5.179 5.175-4.51 13.748 1.409 18.058l10.717 7.803z" class="B H"/><g clip-path="url(#M)"><path d="M189.647 120.405h-16.908V88.341h16.908z" class="C"/><path d="M187.42 86.47h4.473v38.974h-4.473z" class="S"/><g class="D C"><use href="#AG"/></g><g class="D F"><use href="#AH"/></g><path d="M205.515 116.212c.728 0 1.444-.355 1.872-1.008a2.23 2.23 0 0 0-.644-3.094l-9.091-5.959c-1.034-.681-2.42-.387-3.095.642a2.23 2.23 0 0 0 .644 3.094l9.091 5.959a2.22 2.22 0 0 0 1.223.367z" class="C D"/><g class="D F"><path d="M173.801 116.212a2.22 2.22 0 0 0 1.223-.367l9.088-5.959a2.23 2.23 0 1 0-2.451-3.736l-9.088 5.959a2.23 2.23 0 0 0-.644 3.094c.428.653 1.144 1.008 1.872 1.008z"/></g></g><path d="M171.489 139.167l36.338-.397" class="K L M N O P"/><path d="M1056.913 92.752h13.366l3.622 33.052c.201 1.832-1.235 3.432-3.079 3.432h-14.517c-1.847 0-3.283-1.604-3.079-3.438l3.687-33.046z" class="Q"/><g clip-path="url(#N)" class="B R"><path d="M1063.553 116.644l10.926-7.956c6.035-4.394 6.717-13.135 1.437-18.411l-3.822-3.819h-17.082l-3.822 3.819c-5.28 5.276-4.598 14.016 1.437 18.411l10.926 7.956z"/></g><path d="M1063.563 91.551a17.82 17.82 0 0 1-5.224 12.603c-3.346 3.343-7.883 5.22-12.615 5.22h-17.942V97.592a17.82 17.82 0 0 1 5.224-12.605c3.346-3.341 7.883-5.22 12.615-5.22h17.942v11.785z" class="B I"/><g clip-path="url(#O)"><path d="M1063.563 79.766l-39.931 34.13h39.931v-34.13z" class="B C"/><path d="M1026.372 107.224l35.762-29.208 2.828 3.462-35.762 29.208z" class="H"/><g class="B"><g class="F"><path d="M1042.69 111.304h4.473v-7.517c0-1.233-1.002-2.234-2.236-2.234s-2.236 1.001-2.236 2.234v7.517zm8.946.331h4.473V96.802c0-1.233-1-2.232-2.234-2.232h-.005c-1.234 0-2.234.999-2.234 2.232v14.833z" class="D"/></g><g class="C"><path d="M1027.781 96.847v-4.232h6.828a2.12 2.12 0 0 1 1.498.621c.396.396.619.934.619 1.495h0c0 .563-.224 1.099-.619 1.497a2.11 2.11 0 0 1-1.498.619h-6.828zm0-8.701v-4.469h13.421c1.234 0 2.234.999 2.234 2.232v.004c0 1.233-1 2.232-2.234 2.232h-13.421z" class="J"/></g></g></g><path d="M1063.563 91.551a17.82 17.82 0 0 0 5.224 12.603c3.346 3.343 7.883 5.22 12.615 5.22h17.942V97.592a17.82 17.82 0 0 0-5.224-12.605c-3.346-3.341-7.883-5.22-12.615-5.22h-17.942v11.785z" class="B I"/><g clip-path="url(#P)"><path d="M1063.563 79.766l39.93 34.13h-39.93v-34.13z" class="B C"/><path d="M1062.146 81.495l2.825-3.464 35.783 29.183-2.825 3.464z" class="H"/><g class="B"><g class="F"><path d="M1084.436 111.304h-4.473v-7.517c0-1.233 1.002-2.234 2.236-2.234s2.236 1.001 2.236 2.234v7.517zm-8.946.331h-4.473v-14.83c0-.592.235-1.16.655-1.58a2.24 2.24 0 0 1 3.162 0c.42.42.655.988.655 1.58v14.83z" class="D"/></g><g class="C"><path d="M1099.345 97.084v-4.469h-6.711c-.593 0-1.161.235-1.579.655s-.655.985-.655 1.578v.004c0 .592.235 1.16.655 1.58a2.23 2.23 0 0 0 1.579.652h6.711zm0-8.938v-4.469h-13.418a2.24 2.24 0 0 0-1.581.655c-.42.42-.655.988-.655 1.58a2.23 2.23 0 0 0 2.236 2.235h13.418z" class="J"/></g></g></g><path d="M1063.553 109.373l10.717-7.803c5.919-4.31 6.588-12.883 1.409-18.058l-3.749-3.746h-16.755l-3.749 3.746c-5.179 5.175-4.51 13.748 1.409 18.058l10.717 7.803z" class="B H"/><g clip-path="url(#Q)"><path d="M1063.553 110.474h-16.908V78.41h16.908z" class="C"/><path d="M1061.325 76.539h4.473v38.974h-4.473z" class="S"/><g class="D C"><path d="M1079.42 96.092c.728 0 1.444-.355 1.872-1.008a2.23 2.23 0 0 0-.644-3.094l-9.091-5.959c-1.034-.681-2.42-.387-3.095.642a2.23 2.23 0 0 0 .644 3.094l9.091 5.959a2.22 2.22 0 0 0 1.223.367z"/></g><g class="D F"><use href="#AI"/></g><path d="M1079.42 106.281c.728 0 1.444-.355 1.872-1.008a2.23 2.23 0 0 0-.644-3.094l-9.091-5.959c-1.034-.681-2.42-.387-3.095.642a2.23 2.23 0 0 0 .644 3.094l9.091 5.959a2.22 2.22 0 0 0 1.223.367z" class="C D"/><g class="D F"><path d="M1047.706 106.281a2.22 2.22 0 0 0 1.223-.367l9.088-5.959a2.23 2.23 0 0 0-2.451-3.736l-9.088 5.959a2.23 2.23 0 0 0-.644 3.094c.428.653 1.144 1.008 1.872 1.008z"/></g></g><path d="M1045.394 129.236l36.338-.397" class="K L M N O P"/><g class="B"><g fill="#fcee92"><use href="#AJ"/><use href="#AK"/><path d="M224.095 33.792a1.78 1.78 0 0 0-2.517 0 1.78 1.78 0 0 0 0 2.515l5.035 5.03c.695.693 1.822.693 2.517 0a1.78 1.78 0 0 0 0-2.516l-5.035-5.029z"/><path d="M229.129 36.306a1.78 1.78 0 0 0 0-2.515 1.78 1.78 0 0 0-2.517 0l-5.035 5.029a1.78 1.78 0 0 0 0 2.516c.695.693 1.823.693 2.517 0l5.035-5.03z"/><use href="#AL"/><use href="#AM"/><path d="M809.057 99.824a1.78 1.78 0 0 0 0-2.517 1.78 1.78 0 0 0-2.515 0l-5.03 5.035c-.693.695-.693 1.822 0 2.517a1.78 1.78 0 0 0 2.516 0l5.029-5.035z"/><path d="M806.542 104.859a1.78 1.78 0 0 0 2.515 0 1.78 1.78 0 0 0 0-2.517l-5.029-5.035a1.78 1.78 0 0 0-2.516 0c-.693.695-.693 1.823 0 2.517l5.03 5.035z"/></g><g fill="#c32944"><path d="M1162.209 80.122a1.78 1.78 0 0 0-2.517 0 1.78 1.78 0 0 0 0 2.515l5.035 5.03c.695.693 1.822.693 2.517 0a1.78 1.78 0 0 0 0-2.516l-5.035-5.029z"/><path d="M1167.243 82.637a1.78 1.78 0 0 0 0-2.515 1.78 1.78 0 0 0-2.517 0l-5.035 5.029a1.78 1.78 0 0 0 0 2.516c.695.693 1.823.693 2.517 0l5.035-5.03zm-14.488 10.956a1.78 1.78 0 0 0-2.517 0 1.78 1.78 0 0 0 0 2.515l5.035 5.03c.695.693 1.822.693 2.517 0a1.78 1.78 0 0 0 0-2.516l-5.035-5.029z"/><path d="M1157.79 96.107a1.78 1.78 0 0 0 0-2.515 1.78 1.78 0 0 0-2.517 0l-5.035 5.029a1.78 1.78 0 0 0 0 2.516c.695.693 1.823.693 2.517 0l5.035-5.03z"/></g></g><g opacity=".331" fill="#2f6e3f"><use href="#AN"/><use href="#AO"/><path d="M938.097 91.467a2.56 2.56 0 0 1-2.555-2.561v-5.345c0-1.416 1.144-2.561 2.555-2.561a2.56 2.56 0 0 1 2.555 2.561v5.345c0 1.416-1.144 2.561-2.555 2.561zm38.565 21.165a2.56 2.56 0 0 1-2.555-2.561v-8.019c0-1.416 1.144-2.561 2.555-2.561a2.56 2.56 0 0 1 2.555 2.561v8.019c0 1.416-1.144 2.561-2.555 2.561z"/><use href="#AP"/><path d="M966.884 112.632a2.56 2.56 0 0 1-2.555-2.561v-5.348c0-1.416 1.144-2.561 2.555-2.561a2.56 2.56 0 0 1 2.555 2.561v5.348c0 1.416-1.144 2.561-2.555 2.561zm19.667-44.334a2.56 2.56 0 0 1-2.555-2.561v-8.019c0-1.416 1.144-2.561 2.555-2.561a2.56 2.56 0 0 1 2.555 2.561v8.019c0 1.416-1.144 2.561-2.555 2.561zm10.67 0a2.56 2.56 0 0 1-2.555-2.561v-5.348c0-1.416 1.144-2.561 2.555-2.561a2.56 2.56 0 0 1 2.555 2.561v5.348c0 1.416-1.144 2.561-2.555 2.561zm-20.449 0a2.56 2.56 0 0 1-2.555-2.561v-5.348c0-1.416 1.144-2.561 2.555-2.561a2.56 2.56 0 0 1 2.555 2.561v5.348c0 1.416-1.144 2.561-2.555 2.561z"/></g><path d="M1154.55-10.961h19.482l5.28 48.175c.293 2.67-1.8 5.002-4.488 5.002h-21.16c-2.692 0-4.786-2.338-4.487-5.011l5.374-48.166z" class="Q"/><g clip-path="url(#R)" class="B R"><path d="M1164.229 23.863l15.926-11.596c8.796-6.405 9.791-19.145 2.094-26.835l-5.571-5.566h-24.898l-5.571 5.566c-7.696 7.69-6.702 20.43 2.094 26.835l15.926 11.596z"/></g><path d="M1164.243-12.711c0 6.888-2.738 13.497-7.615 18.369s-11.49 7.608-18.388 7.608h-26.152V-3.908c0-6.892 2.738-13.5 7.615-18.372s11.49-7.608 18.388-7.608h26.152v17.177z" class="B I"/><g clip-path="url(#S)"><path d="M1164.243-29.888l-58.201 49.746h58.201v-49.746z" class="B C"/><path d="M1110.037 10.136l52.126-42.572 4.121 5.046-52.126 42.572z" class="H"/><g class="B F"><path d="M1133.82 16.08h6.519V5.124a3.26 3.26 0 0 0-6.52 0V16.08zm13.038.482h6.519V-5.057c0-1.798-1.457-3.254-3.256-3.254h-.007c-1.799 0-3.256 1.456-3.256 3.254v21.619z" class="D"/></g></g><path d="M1164.243-12.711c0 6.888 2.738 13.497 7.615 18.369s11.49 7.608 18.388 7.608h26.152V-3.908c0-6.892-2.738-13.5-7.615-18.372s-11.49-7.608-18.388-7.608h-26.152v17.177z" class="B I"/><g clip-path="url(#T)"><path d="M1164.243-29.888l58.202 49.746h-58.202v-49.746z" class="B C"/><path d="M1162.178-27.367l4.118-5.049 52.156 42.536-4.118 5.049z" class="H"/><g class="B F"><path d="M1194.667 16.08h-6.519V5.124a3.26 3.26 0 0 1 6.52 0V16.08zm-13.039.482h-6.519V-5.054c0-.863.342-1.69.955-2.303a3.27 3.27 0 0 1 4.61 0 3.25 3.25 0 0 1 .955 2.303v21.616z" class="D"/></g></g><path d="M1164.229 13.266l15.621-11.374c8.628-6.282 9.603-18.778 2.054-26.321l-5.464-5.46h-24.421l-5.464 5.46c-7.549 7.543-6.574 20.038 2.054 26.321l15.621 11.374z" class="B H"/><g clip-path="url(#U)"><path d="M1164.229 14.87h-24.644v-46.735h24.644z" class="C"/><path d="M1160.982-34.593h6.519v56.807h-6.519z" class="S"/><path d="M1187.357 8.758c1.061 0 2.105-.517 2.729-1.469.989-1.505.569-3.524-.938-4.51l-13.251-8.685a3.26 3.26 0 0 0-4.512.935c-.989 1.505-.569 3.524.938 4.51l13.251 8.685a3.23 3.23 0 0 0 1.783.534z" class="C D"/><g class="D F"><path d="M1141.131 8.758a3.24 3.24 0 0 0 1.783-.534l13.247-8.685c1.507-.986 1.927-3.005.938-4.51-.985-1.499-2.992-1.93-4.512-.935l-13.247 8.685c-1.507.986-1.927 3.005-.938 4.51.624.952 1.668 1.469 2.729 1.469z"/></g></g><path d="M1137.761 42.217l52.965-.578" class="K L M N O P"/><g class="B"><path d="M1326.032 118.703c-1.906 0-3.725-.8-5.012-2.206s-1.923-3.287-1.754-5.184l25.527-285.872c.498-5.579 5.174-9.821 10.78-9.821h23.439c5.63 0 10.321 4.312 10.788 9.918l4.586 54.98h16.672c3.052 0 5.835 1.71 7.199 4.437l7.538 15.064a11.5 11.5 0 0 1 1.199 4.512l5.281 94.968 29.498 8.421c4.972 1.419 8.392 5.957 8.392 11.123v92.873c0 1.8-.716 3.526-1.99 4.799s-3.001 1.988-4.803 1.988h-137.34z" fill="#787186"/><g fill="#675e7e"><path d="M1422.834 77.919c0-5.974 4.847-10.816 10.826-10.816s10.826 4.843 10.826 10.816v40.784h-21.651V77.919zm-65.142-46.169c0-5.974 4.847-10.816 10.826-10.816s10.826 4.843 10.826 10.816v86.952h-21.651V31.75z"/></g></g><g clip-path="url(#V)" class="B"><path d="M1302.146-168.123v-46.873a9.84 9.84 0 0 1 9.842-9.833h1.806a9.84 9.84 0 0 0 9.842-9.833v-33.393a9.84 9.84 0 0 1 9.842-9.833h7.867a9.84 9.84 0 0 0 9.842-9.833v-21.18a9.84 9.84 0 0 1 9.842-9.833h24.672a9.84 9.84 0 0 1 9.841 9.833l-.003 108.634c0 5.27 4.275 9.542 9.549 9.542h.247c5.485 0 9.891-4.361 9.891-9.792l-.001-32.246c0-5.431 4.406-9.79 9.842-9.79h24.672a9.84 9.84 0 0 1 9.842 9.833v23.985a9.84 9.84 0 0 0 9.842 9.833h4.989a9.84 9.84 0 0 1 9.842 9.833V58.428a9.84 9.84 0 0 1-9.842 9.833h-10.241a9.84 9.84 0 0 1-9.842-9.833V34.444a9.84 9.84 0 0 0-9.842-9.833h-25.55c-11.958 0-21.651-9.685-21.651-21.633v-49.367a9.84 9.84 0 0 0-9.842-9.833h-5.572a9.84 9.84 0 0 1-9.842-9.833v-24.069a9.84 9.84 0 0 0-9.842-9.833h.267a9.84 9.84 0 0 0-9.842 9.833v69.566a9.84 9.84 0 0 1-9.842 9.833h-3.677a9.84 9.84 0 0 0-9.842 9.833l-2.891 33.394a9.84 9.84 0 0 1-9.842 9.833h-7.579a9.84 9.84 0 0 0-9.842 9.833V99.04a9.84 9.84 0 0 1-9.842 9.833h-4.532a9.84 9.84 0 0 1-9.842-9.833v-247.498a9.84 9.84 0 0 1 9.842-9.833h7.579a9.84 9.84 0 0 0 9.842-9.833z" fill="#3d8850"/><path d="M1422.819-3.167c-5.755-1.62-9.105-7.594-7.484-13.344a10.83 10.83 0 0 1 13.356-7.478l49.494 13.934-5.872 20.822-49.494-13.934z" fill="#2d693a"/></g><path d="M1311.577 118.703h173.383" class="K L M N O P"/><g opacity=".331" fill="#00703a"><path d="M336.905 38.937c1.232 0 2.231-1 2.231-2.236V29.7c0-1.236-.999-2.236-2.231-2.236s-2.231 1-2.231 2.236v7.001c0 1.236.999 2.236 2.231 2.236zm-8.926 0c1.232 0 2.231-1 2.231-2.236v-4.667c0-1.236-.999-2.236-2.231-2.236s-2.231 1-2.231 2.236v4.667c0 1.236.999 2.236 2.231 2.236zm17.853 0c1.232 0 2.231-1 2.231-2.236v-4.667c0-1.236-.999-2.236-2.231-2.236s-2.231 1-2.231 2.236v4.667c0 1.236.999 2.236 2.231 2.236z"/></g><path d="M768.459 13.458l-44.316-39.232h-2.913l-44.316 39.232v36.297a3.21 3.21 0 0 0 .942 2.273c.606.605 1.424.944 2.278.944h85.105c.854 0 1.672-.339 2.278-.944s.942-1.42.942-2.273V13.458z" fill="#fbeb8c" class="B"/><g clip-path="url(#W)"><g fill="#f2d861"><use href="#AQ"/><path d="M674.221 44.901h96.93v8.071h-96.93zm0-48.424h96.93v8.071h-96.93zm0 32.283h96.93v8.071h-96.93z"/></g><path d="M672.875 20.28l49.811-41.289 50.304 41.698" stroke="#cfb43a" stroke-linejoin="bevel" stroke-width="8.074" class="E"/></g><path d="M714.609 31.45h16.155v21.522h-16.155z" fill="#434032"/><path d="M714.609 31.45h16.155v5.38h-16.155z" fill="#14130f"/><g fill="#6dbaa1"><path d="M741.534 28.76h16.155v16.141h-16.155zm-53.85 0h16.155v16.141h-16.155zm29.617-32.248h10.77V9.963h-10.77z"/></g><g fill="#fff"><path d="M717.301 7.201h10.77v2.728h-10.77z"/><use href="#AR"/><path d="M741.534 42.174h16.155v2.728h-16.155z"/></g><g fill="#4e9980"><path d="M741.534 28.723h16.155v2.728h-16.155zm-53.85 0h16.155v2.728h-16.155z"/></g><g class="E K L"><g stroke="#6a8c40" stroke-width="9.689"><path d="M673.48 13.964l49.206-41.161M673.48 1.858l49.206-41.161m49.205 53.267l-49.205-41.161"/><path d="M771.891 1.858l-49.205-41.161"/></g><path d="M671.681 52.972h102.686" stroke="#5fc43b" stroke-dasharray="0 10.329" stroke-width="10.329"/></g><path d="M728.427 54.517h19.482l5.28 48.175c.293 2.67-1.8 5.002-4.488 5.002h-21.16c-2.692 0-4.786-2.338-4.487-5.011l5.374-48.166z" class="Q"/><g clip-path="url(#X)" class="B R"><path d="M738.105 89.341l15.926-11.596c8.796-6.405 9.791-19.145 2.094-26.835l-5.571-5.566h-24.898l-5.571 5.566c-7.696 7.69-6.702 20.43 2.094 26.835l15.926 11.596z"/></g><path d="M738.119 52.766c0 6.888-2.738 13.497-7.615 18.369s-11.49 7.608-18.388 7.608h-26.152V61.569c0-6.892 2.738-13.5 7.615-18.372s11.49-7.608 18.388-7.608h26.152v17.177z" class="B I"/><g clip-path="url(#Y)"><path d="M738.119 35.589l-58.201 49.746h58.201V35.589z" class="B C"/><path d="M683.914 75.615l52.126-42.572 4.121 5.046-52.126 42.572z" class="H"/><g class="B"><g class="F"><path d="M707.696 81.557h6.519V70.601a3.26 3.26 0 0 0-6.52 0v10.956zm13.038.482h6.519V60.42c0-1.798-1.457-3.254-3.256-3.254h-.007c-1.799 0-3.256 1.456-3.256 3.254v21.619z" class="D"/></g><g class="C"><path d="M685.965 60.485v-6.169h9.952c.818 0 1.604.326 2.184.905a3.08 3.08 0 0 1 .903 2.179h0a3.09 3.09 0 0 1-.903 2.182c-.58.58-1.366.902-2.184.902h-9.952zm0-12.683v-6.514h19.561c1.799 0 3.256 1.456 3.256 3.254v.007c0 1.798-1.457 3.254-3.256 3.254h-19.561z" class="J"/></g></g></g><path d="M738.119 52.766c0 6.888 2.738 13.497 7.615 18.369s11.49 7.608 18.388 7.608h26.152V61.569c0-6.892-2.738-13.5-7.615-18.372s-11.49-7.608-18.388-7.608h-26.152v17.177z" class="B I"/><g clip-path="url(#Z)"><path d="M738.119 35.589l58.202 49.746h-58.202V35.589z" class="B C"/><path d="M736.057 38.111l4.118-5.049 52.156 42.536-4.118 5.049z" class="H"/><g class="B"><g class="F"><path d="M768.543 81.557h-6.519V70.601a3.26 3.26 0 0 1 6.52 0v10.956zm-13.039.482h-6.519V60.423c0-.863.342-1.69.955-2.303a3.27 3.27 0 0 1 4.61 0 3.25 3.25 0 0 1 .955 2.303v21.616z" class="D"/></g><g class="C"><path d="M790.274 60.83v-6.514h-9.782c-.864 0-1.692.342-2.301.954a3.24 3.24 0 0 0-.955 2.299v.007c0 .863.342 1.69.955 2.303s1.437.951 2.301.951h9.782zm0-13.028v-6.514h-19.558a3.27 3.27 0 0 0-2.305.954 3.25 3.25 0 0 0-.955 2.303c0 .863.342 1.694.955 2.303s1.441.954 2.305.954h19.558z" class="J"/></g></g></g><path d="M738.105 78.743l15.621-11.374c8.628-6.282 9.603-18.778 2.054-26.321l-5.464-5.46h-24.421l-5.464 5.46c-7.549 7.543-6.574 20.038 2.054 26.321l15.621 11.374z" class="B H"/><g clip-path="url(#a)"><path d="M738.105 80.347h-24.644V33.612h24.644z" class="C"/><path d="M734.858 30.884h6.519v56.807h-6.519z" class="S"/><g class="D C"><path d="M761.233 59.384c1.061 0 2.105-.517 2.729-1.469.989-1.505.569-3.524-.938-4.51l-13.251-8.685a3.26 3.26 0 0 0-4.512.935c-.989 1.505-.569 3.524.938 4.51l13.251 8.685a3.23 3.23 0 0 0 1.783.534z"/></g><g class="D F"><path d="M715.007 59.384a3.24 3.24 0 0 0 1.783-.534l13.247-8.685c1.507-.986 1.927-3.005.938-4.51-.985-1.499-2.992-1.93-4.512-.935l-13.247 8.685c-1.507.986-1.927 3.005-.938 4.51.624.952 1.668 1.469 2.729 1.469z"/></g><path d="M761.233 74.236c1.061 0 2.105-.517 2.729-1.469.989-1.505.569-3.524-.938-4.51l-13.251-8.685a3.26 3.26 0 0 0-4.512.935c-.989 1.505-.569 3.524.938 4.51l13.251 8.685a3.23 3.23 0 0 0 1.783.534z" class="C D"/><g class="D F"><path d="M715.007 74.236a3.24 3.24 0 0 0 1.783-.534l13.247-8.685c1.507-.986 1.927-3.005.938-4.51-.985-1.499-2.992-1.93-4.512-.935l-13.247 8.685c-1.507.986-1.927 3.005-.938 4.51.624.952 1.668 1.469 2.729 1.469z"/></g></g><path d="M711.637 107.694l52.965-.578" class="K L M N O P"/><path d="M802.342-19.398h19.482l5.28 48.175c.293 2.67-1.8 5.002-4.488 5.002h-21.16c-2.692 0-4.786-2.338-4.487-5.011l5.374-48.166z" class="Q"/><g clip-path="url(#b)" class="B R"><path d="M812.02 15.426L827.946 3.83c8.796-6.405 9.791-19.145 2.094-26.835l-5.571-5.566h-24.898L794-23.005c-7.696 7.69-6.702 20.43 2.094 26.835l15.926 11.596z"/></g><path d="M812.034-21.149c0 6.888-2.738 13.497-7.615 18.369s-11.49 7.608-18.388 7.608h-26.152v-17.174c0-6.892 2.738-13.5 7.615-18.372s11.49-7.608 18.388-7.608h26.152v17.177z" class="B I"/><g clip-path="url(#c)"><path d="M812.034-38.326L753.833 11.42h58.201v-49.746z" class="B C"/><path d="M757.829 1.701l52.126-42.572 4.121 5.046L761.95 6.747z" class="H"/><g class="B F"><path d="M781.611 7.642h6.519V-3.314a3.26 3.26 0 0 0-6.52 0V7.642zm13.038.482h6.519v-21.619c0-1.798-1.457-3.254-3.256-3.254h-.007c-1.799 0-3.256 1.456-3.256 3.254V8.124z" class="D"/></g></g><path d="M812.034-21.149c0 6.888 2.738 13.497 7.615 18.369s11.49 7.608 18.388 7.608h26.152v-17.174c0-6.892-2.738-13.5-7.615-18.372s-11.49-7.608-18.388-7.608h-26.152v17.177z" class="B I"/><g clip-path="url(#d)"><path d="M812.034-38.326l58.202 49.746h-58.202v-49.746z" class="B C"/><path d="M809.971-35.804l4.118-5.049 52.156 42.536-4.118 5.049z" class="H"/><g class="B F"><path d="M842.458 7.642h-6.519V-3.314a3.26 3.26 0 0 1 6.52 0V7.642zm-13.039.482H822.9v-21.616c0-.863.342-1.69.955-2.303a3.27 3.27 0 0 1 4.61 0 3.25 3.25 0 0 1 .955 2.303V8.124z" class="D"/></g></g><path d="M812.02 4.828l15.621-11.374c8.628-6.282 9.603-18.778 2.054-26.321l-5.464-5.46H799.81l-5.464 5.46c-7.549 7.543-6.574 20.038 2.054 26.321l15.621 11.374z" class="B H"/><g clip-path="url(#e)"><path d="M812.02 6.432h-24.644v-46.735h24.644z" class="C"/><path d="M808.773-43.031h6.519v56.807h-6.519z" class="S"/><path d="M835.148.321c1.061 0 2.105-.517 2.729-1.469.989-1.505.569-3.524-.938-4.51l-13.251-8.685a3.26 3.26 0 0 0-4.512.935c-.989 1.505-.569 3.524.938 4.51l13.251 8.685a3.23 3.23 0 0 0 1.783.534z" class="C D"/><g class="D F"><path d="M788.922.321a3.24 3.24 0 0 0 1.783-.534l13.247-8.685c1.507-.986 1.927-3.005.938-4.51-.985-1.499-2.992-1.93-4.512-.935l-13.247 8.685c-1.507.986-1.927 3.005-.938 4.51.624.952 1.668 1.469 2.729 1.469z"/></g></g><path d="M785.553 33.779l52.964-.578" class="K L M N O P"/><path d="M858.279 36.539h19.482l5.28 48.175c.293 2.67-1.8 5.002-4.488 5.002h-21.16c-2.692 0-4.786-2.338-4.487-5.011l5.374-48.166z" class="Q"/><g clip-path="url(#f)" class="B R"><path d="M867.957 71.363l15.926-11.596c8.796-6.405 9.791-19.145 2.094-26.835l-5.571-5.566h-24.898l-5.571 5.566c-7.696 7.69-6.702 20.43 2.094 26.835l15.926 11.596z"/></g><path d="M867.972 34.788c0 6.888-2.738 13.497-7.615 18.369s-11.49 7.608-18.388 7.608h-26.152V43.591c0-6.892 2.738-13.5 7.615-18.372s11.49-7.608 18.388-7.608h26.152v17.177z" class="B I"/><g clip-path="url(#g)"><path d="M867.972 17.611L809.77 67.357h58.202V17.611z" class="B C"/><path d="M813.766 57.637l52.126-42.572 4.121 5.046-52.126 42.572z" class="H"/><g class="B"><g class="F"><path d="M837.548 63.579h6.519V52.623a3.26 3.26 0 0 0-6.52 0v10.956zm13.039.482h6.519V42.442c0-1.798-1.457-3.254-3.256-3.254h-.007c-1.799 0-3.256 1.456-3.256 3.254v21.619z" class="D"/></g><g class="C"><path d="M815.817 42.507v-6.169h9.952c.818 0 1.604.326 2.184.905a3.08 3.08 0 0 1 .903 2.179h0a3.09 3.09 0 0 1-.903 2.182c-.58.58-1.366.902-2.184.902h-9.952zm0-12.682v-6.514h19.561c1.799 0 3.256 1.456 3.256 3.254v.007c0 1.798-1.457 3.254-3.256 3.254h-19.561z" class="J"/></g></g></g><path d="M867.972 34.788c0 6.888 2.738 13.497 7.615 18.369s11.49 7.608 18.388 7.608h26.152V43.591c0-6.892-2.738-13.5-7.615-18.372s-11.49-7.608-18.388-7.608h-26.152v17.177z" class="B I"/><g clip-path="url(#h)"><path d="M867.972 17.611l58.201 49.746h-58.201V17.611z" class="B C"/><path d="M865.909 20.133l4.118-5.049 52.156 42.536-4.118 5.049z" class="H"/><g class="B"><g class="F"><path d="M898.395 63.579h-6.519V52.623a3.26 3.26 0 0 1 6.52 0v10.956zm-13.038.482h-6.519V42.445c0-.863.342-1.69.955-2.303a3.27 3.27 0 0 1 4.61 0 3.25 3.25 0 0 1 .955 2.303v21.616z" class="D"/></g><g class="C"><path d="M920.127 42.852v-6.514h-9.782c-.864 0-1.692.342-2.301.954a3.24 3.24 0 0 0-.955 2.299v.007c0 .863.342 1.69.955 2.303s1.437.951 2.301.951h9.782zm0-13.027v-6.514h-19.558a3.27 3.27 0 0 0-2.305.954 3.25 3.25 0 0 0-.955 2.303c0 .863.342 1.694.955 2.303s1.441.954 2.305.954h19.558z" class="J"/></g></g></g><path d="M867.957 60.765l15.621-11.374c8.628-6.282 9.603-18.778 2.054-26.321l-5.464-5.46h-24.421l-5.464 5.46c-7.549 7.543-6.574 20.038 2.054 26.321l15.621 11.374z" class="B H"/><g clip-path="url(#i)"><path d="M867.958 62.369h-24.644V15.634h24.644z" class="C"/><path d="M864.711 12.907h6.519v56.807h-6.519z" class="S"/><g class="D C"><path d="M891.085 41.407c1.061 0 2.105-.517 2.729-1.469.989-1.505.569-3.524-.938-4.51l-13.251-8.685a3.26 3.26 0 0 0-4.512.935c-.989 1.505-.569 3.524.938 4.51l13.251 8.685a3.23 3.23 0 0 0 1.783.534z"/></g><g class="D F"><path d="M844.86 41.407a3.24 3.24 0 0 0 1.783-.534l13.247-8.685c1.507-.986 1.927-3.005.938-4.51-.985-1.499-2.992-1.93-4.512-.935l-13.247 8.685c-1.507.986-1.927 3.005-.938 4.51.624.952 1.668 1.469 2.729 1.469z"/></g><path d="M891.085 56.258c1.061 0 2.105-.517 2.729-1.469.989-1.505.569-3.524-.938-4.51l-13.251-8.685a3.26 3.26 0 0 0-4.512.935c-.989 1.505-.569 3.524.938 4.51l13.251 8.685a3.23 3.23 0 0 0 1.783.534z" class="C D"/><g class="D F"><path d="M844.86 56.258a3.24 3.24 0 0 0 1.783-.534l13.247-8.685c1.507-.986 1.927-3.005.938-4.51-.985-1.499-2.992-1.93-4.512-.935l-13.247 8.685c-1.507.986-1.927 3.005-.938 4.51.624.952 1.668 1.469 2.729 1.469z"/></g></g><path d="M841.49 89.716l52.965-.578" class="K L M N O P"/><rect x="642.617" y="105.02" width="37.506" height="4.33" rx="2.165" fill="#52aa35"/><path d="M674.683 69.695v36.992" stroke="#dac97b" stroke-miterlimit="10" class="E U"/><g class="T"><path d="M649.766 87.515h4.374v10.961h-4.374z"/><path d="M649.766 98.476h4.374v7.334h-4.374zm6.562-10.961h4.374v10.961h-4.374z"/><path d="M656.328 98.476h4.374v7.334h-4.374z"/><path d="M656.328 105.81h6.562v1.754h-6.562zm-8.749 0h6.562v1.754h-6.562z"/></g><g class="B"><path d="M644.845 60.029c0-1.588 1.285-2.876 2.87-2.876h14.383c1.585 0 2.87 1.288 2.87 2.876v22.209h-20.123V60.029z" fill="#102220"/><g class="T"><path d="M650.089 73.095a.44.44 0 0 1 .335-.027c.111.035.203.114.256.218l1.094 2.145a.44.44 0 0 1-.191.592l-9.541 4.89-1.494-2.927 9.541-4.89zm8.432 2.782a.44.44 0 0 1-.101-.613l1.402-1.958a.44.44 0 0 1 .614-.102l8.714 6.237-1.914 2.674-8.714-6.237z"/><path d="M651.452 83.087c.132.074.23.198.271.343a.58.58 0 0 1-.05.435l-1.041 1.873c-.074.132-.197.231-.342.272a.57.57 0 0 1-.434-.05l-9.246-5.163 1.597-2.872 9.246 5.162z"/><path d="M642.841 80.16c.441-.793.156-1.795-.635-2.236a1.64 1.64 0 0 0-2.231.636c-.441.793-.156 1.795.635 2.236a1.64 1.64 0 0 0 2.231-.636z"/></g></g><circle cx="668.167" cy="80.745" r="1.644" transform="matrix(.92109 -.389349 .389349 .92109 21.287 266.522)" class="T"/><g class="B T"><path d="M675.57 72.872c.119-.093.271-.135.422-.117a.56.56 0 0 1 .38.216l1.317 1.686a.57.57 0 0 1 .116.421.58.58 0 0 1-.216.381l-8.369 6.516-2.019-2.587 8.369-6.517zm-25.804.839c0-.177.07-.346.194-.47a.66.66 0 0 1 .469-.194h9.61a.66.66 0 0 1 .468.194.67.67 0 0 1 .195.47v13.804h-10.936V73.711z"/></g><path d="M653.047 70.854h4.374v2.192h-4.374z" class="T"/><path d="M653.047 70.854h4.374v1.096h-4.374z" fill="#ba3f6f"/><g class="B"><g class="T"><path d="M648.29 63.453a1.98 1.98 0 0 1 .579-1.4c.371-.372.873-.581 1.398-.581h10.373c.524 0 1.027.209 1.398.581s.578.875.578 1.4v5.42c0 .525-.208 1.029-.578 1.4s-.874.581-1.398.581h-10.373c-.524 0-1.027-.209-1.398-.581a1.98 1.98 0 0 1-.579-1.4v-5.42z"/><path d="M647.233 64.43c-1.286-.032-2.355.989-2.387 2.277s.986 2.36 2.271 2.392 2.355-.988 2.387-2.277-.986-2.36-2.271-2.392z"/></g><g fill="#102220"><path d="M648.279 64.703h2.238a1.44 1.44 0 0 0 1.436-1.44v-1.849h-3.675v3.288zm8.392 0h6.875v-3.288h-8.311v1.849a1.44 1.44 0 0 0 1.436 1.44z"/></g></g><g fill="#0d1c1c"><path d="M652.573 65.493h.948c.131 0 .237.106.237.237v2.404c0 .131-.107.238-.238.238h-.948c-.131 0-.237-.106-.237-.237V65.73c0-.131.106-.237.237-.237zm6.125 0h.947c.131 0 .237.106.237.237v2.404c0 .131-.107.238-.238.238h-.948c-.131 0-.237-.106-.237-.237v-2.404c0-.131.107-.238.238-.238z"/></g><path d="M648.884 94.272l13.328 3.352-1.509-10.11h-10.937l-.882 6.758z" fill="#419950" class="B"/><g class="E U"><g stroke="#419950" class="K L"><path d="M648.884 94.272h0"/><path d="M650.788 94.75l10.472 2.635" stroke-dasharray="0 1.963"/><path d="M662.212 97.624h0"/><path d="M661.91 95.602l-1.056-7.077" stroke-dasharray="0 2.044"/><path d="M660.703 87.515h0"/><path d="M658.88 87.515h-8.202" stroke-dasharray="0 1.823"/><path d="M649.766 87.515h0"/><path d="M649.472 89.767l-.441 3.378" stroke-dasharray="0 2.272"/></g><circle cx="674.683" cy="68.372" r="1.938" stroke="#dac97b"/></g></g></svg>