<svg xmlns="http://www.w3.org/2000/svg" width="1500" height="145" xmlns:v="https://vecta.io/nano"><style><![CDATA[.B{fill:none}.C{fill:#fff}.D{fill-rule:evenodd}.E{opacity:.188}.F{stroke-linejoin:round}.G{stroke-linecap:round}.H{fill:#49468c}.I{clip-rule:evenodd}.J{opacity:.6}.K{fill:#d7f2fb}.L{stroke-width:10}.M{stroke:#fff}.N{fill:#ee5d3f}.O{fill:#cb4721}.P{fill:#e05727}.Q{fill:#66c24c}.R{fill:#f3f7f7}.S{fill:#f9d837}.T{stroke-miterlimit:10}.U{stroke-width:3.74}.V{fill:#5cd4c4}.W{fill:#438499}.X{stroke-dasharray:0 10.189}.Y{stroke-width:6.05}.Z{stroke-width:2.443}]]></style><defs><clipPath id="A"><path d="M0 0h1500v145H0z" class="B"/></clipPath><clipPath id="B"><path d="M867.915 117.53h62.594V74.725l-31.296-31.273-31.298 31.273v42.805z" class="B"/></clipPath><clipPath id="C"><path d="M805.321 117.53h62.594V74.725l-31.296-31.273-31.298 31.273v42.805z" class="B"/></clipPath><clipPath id="D"><path d="M930.51 117.53h62.594V74.725l-31.296-31.273-31.298 31.273v42.805z" class="B"/></clipPath><clipPath id="E"><path d="M1211.661 33.51a12.45 12.45 0 0 1-10.312-5.474c-2.316-3.423-2.791-7.773-1.252-11.611l37.666-94.167c2.291-5.728 7.824-9.448 13.994-9.448h53.842a15.09 15.09 0 0 1 14.507 10.943l11.961 41.864 46.102 13.172a15.03 15.03 0 0 1 9.579 8.238l26.841 59.044a12.47 12.47 0 0 1-.867 11.901 12.46 12.46 0 0 1-10.478 5.714h-91.89a22.85 22.85 0 0 1-16.151-6.688L1278.411 40.2c-4.285-4.283-10.093-6.688-16.151-6.688h-50.596z" class="B I"/></clipPath><clipPath id="F"><path d="M27.297 17.004h23.855a12.27 12.27 0 0 1 8.675 3.593h0c2.301 2.301 5.421 3.593 8.675 3.593h12.183a12.27 12.27 0 0 1 8.675 3.593l1.716 1.716c2.301 2.301 5.421 3.593 8.675 3.593h18.032L56.234 63.979l-30.43-9.34 1.494-37.637z" class="B I"/></clipPath><clipPath id="G"><path d="M36.764 25.418l60.181-36.8 11.289-5.374c2.177-1.036 4.732-.882 6.769.408a7.02 7.02 0 0 1 3.263 5.944l-.064 25.912a5.99 5.99 0 0 1-2.866 5.1L61.122 53.759c-2.824 1.727-6.515.837-8.242-1.987L36.764 25.418z" class="B I"/></clipPath><clipPath id="H"><path d="M34.34 21.454c-.945-1.545-1.237-3.403-.812-5.163s1.53-3.281 3.076-4.226l49.571-30.312a16.24 16.24 0 0 1 10.354-2.274l14.648 1.711c2.279.267 4.311 1.566 5.508 3.524s1.429 4.359.627 6.509l-5.151 13.819a16.24 16.24 0 0 1-6.743 8.179L55.847 43.533c-1.545.945-3.403 1.237-5.163.812s-3.281-1.53-4.226-3.076L34.34 21.453z" class="B I"/></clipPath><clipPath id="I"><rect x="29.805" y="-15.684" width="58.784" height="27.868" rx="3.275" transform="matrix(.853132 -.521695 .521695 .853132 9.607 30.625)" class="B"/></clipPath><clipPath id="J"><path d="M27.297 17.004h23.855a12.27 12.27 0 0 1 8.675 3.593h0c2.301 2.301 5.421 3.593 8.675 3.593h12.183a12.27 12.27 0 0 1 8.675 3.593l1.716 1.716c2.301 2.301 5.421 3.593 8.675 3.593h18.032l10.344-60.73-30.43-9.34-79.362 21.291 8.963 32.691z" class="B I"/></clipPath><clipPath id="K"><path d="M36.764 25.418l60.181-36.8 11.289-5.374c2.177-1.036 4.732-.882 6.769.408a7.02 7.02 0 0 1 3.263 5.944l-.064 25.912a5.99 5.99 0 0 1-2.866 5.1L61.122 53.759c-2.824 1.727-6.515.837-8.242-1.987L36.764 25.418z" class="B I"/></clipPath><clipPath id="L"><path d="M34.34 21.454c-.945-1.545-1.237-3.403-.812-5.163s1.53-3.281 3.076-4.226l49.571-30.312a16.24 16.24 0 0 1 10.354-2.274l14.648 1.711c2.279.267 4.311 1.566 5.508 3.524s1.429 4.359.627 6.509l-5.151 13.819a16.24 16.24 0 0 1-6.743 8.179L55.847 43.533c-1.545.945-3.403 1.237-5.163.812s-3.281-1.53-4.226-3.076L34.34 21.453z" class="B I"/></clipPath><clipPath id="M"><rect x="29.805" y="-15.684" width="58.784" height="27.868" rx="3.275" transform="matrix(.853132 -.521695 .521695 .853132 9.607 30.625)" class="B"/></clipPath><clipPath id="N"><path d="M116.205 290v81.7c0 10.62-8.609 19.23-19.23 19.23h0c-10.62 0-19.23 8.609-19.23 19.23v46.805c0 10.62 8.609 19.23 19.23 19.23h162.079c20.145 0 36.476 16.331 36.476 36.476v66.909c0 10.62 8.609 19.23 19.23 19.23h106.736c10.62 0 19.23-8.609 19.23-19.23v-56.431c0-10.62 8.609-19.23 19.23-19.23h8.696c10.62 0 19.23-8.609 19.23-19.23V355.925c0-10.62-8.609-19.23-19.23-19.23h-44.918c-10.62 0-19.23-8.609-19.23-19.23V185.081c0-10.62-8.609-19.23-19.23-19.23h-69.667c-10.62 0-19.23 8.609-19.23 19.23v66.458c0 10.62-8.609 19.23-19.23 19.23H135.434c-10.62 0-19.23 8.609-19.23 19.23z" class="B"/></clipPath><path id="O" d="M805.321 48.059V96.53h31.298V16.786l-31.298 31.273z"/><path id="P" d="M836.619 96.53h31.296V48.059l-31.296-31.273V96.53z"/><path id="Q" d="M867.915 117.537h62.594V69.066l-31.296-31.273-31.298 31.273v48.471z"/><path id="R" d="M921.261 41.574h3.928v77.833h-3.928z"/><path id="S" d="M912.359 117.53V95.64h-26.31v21.89"/><path id="T" d="M805.321 117.53h62.594V74.725l-31.296-31.273-31.298 31.273v42.805z"/><path id="U" d="M886.066 95.561h26.31v6.256h-26.31z"/><path id="V" d="M374.692 153.152a2.56 2.56 0 0 0 2.555-2.561v-5.348c0-1.416-1.144-2.561-2.555-2.561a2.56 2.56 0 0 0-2.555 2.561v5.348c0 1.416 1.144 2.561 2.555 2.561z"/><path id="W" d="M627.463 127.132h73.041v78.789h-73.041z"/><path id="X" d="M643.631 134.922h40.706a7.17 7.17 0 0 1 7.165 7.165v.389a.87.87 0 0 1-.871.871h-53.293a.87.87 0 0 1-.871-.871v-.389a7.17 7.17 0 0 1 7.165-7.165z"/><path id="Y" d="M534.621 127.132h86.567v78.789h-86.567z"/><path id="Z" d="M553.831 138.346h48.147v19.083h-48.147z"/><path id="a" d="M82.36 33.031l-17.204 10.52"/><path id="b" d="M36.764 25.418l60.181-36.8 11.289-5.374c2.177-1.036 4.732-.882 6.769.408a7.02 7.02 0 0 1 3.263 5.944l-.064 25.912a5.99 5.99 0 0 1-2.866 5.1L61.122 53.759c-2.824 1.727-6.515.837-8.242-1.987L36.764 25.418z"/><path id="c" d="M33.343 19.824l60.181-36.8 15.253-2.546a9.18 9.18 0 0 1 10.399 11.344l-3.984 15.451a17.37 17.37 0 0 1-7.757 10.479L57.7 48.165c-2.824 1.727-6.514.838-8.242-1.987L33.343 19.825z"/><path id="d" d="M34.34 21.454c-.945-1.545-1.237-3.403-.812-5.163s1.53-3.281 3.076-4.226l49.571-30.312a16.24 16.24 0 0 1 10.354-2.274l14.648 1.711c2.279.267 4.311 1.566 5.508 3.524s1.429 4.359.627 6.509l-5.151 13.819a16.24 16.24 0 0 1-6.743 8.179L55.847 43.533c-1.545.945-3.403 1.237-5.163.812s-3.281-1.53-4.226-3.076L34.34 21.453z"/><path id="e" d="M85.399-30.263l18.723-11.449 26.94 44.056-18.723 11.449z"/><path id="f" d="M41.005 18.981L85.939-8.496a3.06 3.06 0 0 1 4.203 1.013l9.639 15.762a3.06 3.06 0 0 1-1.013 4.203L53.833 39.96a3.06 3.06 0 0 1-4.201-1.013l-9.64-15.764a3.06 3.06 0 0 1 1.013-4.201z"/><path id="g" d="M37.97 19.877L88.121-10.79 94.963.399 44.812 31.066z"/><path id="h" d="M43.933 19.113L84.722-5.83l8.98 14.685-40.789 24.943z"/><path id="i" d="M52.913 33.798L93.702 8.855l2.993 4.895-40.789 24.943z"/><path id="j" d="M78.408 1.875L81.752-.17l5.986 9.79-3.343 2.045z"/><path id="k" d="M78.409 1.875l3.343-2.045 2.566 4.196-3.343 2.045z"/><path id="l" d="M64.366 10.461l3.343-2.045 5.986 9.79-3.343 2.045z"/><path id="m" d="M33.475 24.546L90.313-10.21l11.118 18.182-56.837 34.756z"/><path id="n" d="M26.635 1.829l65.024-6.832-50.368 30.8L26.635 1.829z"/><path id="o" d="M428.328 143.979h21.187c1.896 0 3.438 1.542 3.438 3.438v8.147c0 1.896-1.542 3.438-3.438 3.438h-21.187c-1.896 0-3.438-1.542-3.438-3.438v-8.147c0-1.896 1.542-3.438 3.438-3.438zm21.187 13.109c.84 0 1.523-.683 1.523-1.523v-8.147c0-.84-.683-1.523-1.523-1.523h-21.187c-.84 0-1.523.683-1.523 1.523v8.147c0 .84.683 1.523 1.523 1.523h21.187z"/><path id="p" d="M454.503 143.979h21.187c1.896 0 3.438 1.542 3.438 3.438v8.147c0 1.896-1.542 3.438-3.438 3.438h-21.187c-1.896 0-3.438-1.542-3.438-3.438v-8.147c0-1.896 1.542-3.438 3.438-3.438zm21.188 13.109c.84 0 1.523-.683 1.523-1.523v-8.147c0-.84-.683-1.523-1.523-1.523h-21.187c-.84 0-1.523.683-1.523 1.523v8.147c0 .84.683 1.523 1.523 1.523h21.187z"/><path id="q" d="M480.651 143.979h21.187c1.896 0 3.438 1.542 3.438 3.438v8.147c0 1.896-1.542 3.438-3.438 3.438h-21.187c-1.895 0-3.437-1.542-3.437-3.438v-8.147c0-1.896 1.542-3.438 3.437-3.438zm21.188 13.109c.84 0 1.523-.683 1.523-1.523v-8.147c0-.84-.683-1.523-1.523-1.523h-21.187c-.84 0-1.523.683-1.523 1.523v8.147c0 .84.683 1.523 1.523 1.523h21.187z"/><path id="r" d="M219.139 143.979h21.187c1.896 0 3.438 1.542 3.438 3.438v8.147c0 1.896-1.542 3.438-3.438 3.438h-21.187c-1.896 0-3.438-1.542-3.438-3.438v-8.147c0-1.896 1.542-3.438 3.438-3.438zm21.186 13.109c.84 0 1.523-.683 1.523-1.523v-8.147c0-.84-.683-1.523-1.523-1.523h-21.187c-.84 0-1.523.683-1.523 1.523v8.147c0 .84.683 1.523 1.523 1.523h21.187z"/><path id="s" d="M271.439 143.979h21.187c1.896 0 3.438 1.542 3.438 3.438v8.147c0 1.896-1.542 3.438-3.438 3.438h-21.187c-1.895 0-3.437-1.542-3.437-3.438v-8.147c0-1.896 1.542-3.438 3.437-3.438zm21.187 13.109c.84 0 1.523-.683 1.523-1.523v-8.147c0-.84-.683-1.523-1.523-1.523h-21.187c-.84 0-1.523.683-1.523 1.523v8.147c0 .84.683 1.523 1.523 1.523h21.187z"/><path id="t" d="M428.328 65.323h21.187c1.896 0 3.438 1.542 3.438 3.438v8.147c0 1.896-1.542 3.438-3.438 3.438h-21.187c-1.896 0-3.438-1.542-3.438-3.438v-8.147c0-1.896 1.542-3.438 3.438-3.438zm21.187 13.108c.84 0 1.523-.683 1.523-1.523v-8.147c0-.84-.683-1.523-1.523-1.523h-21.187c-.84 0-1.523.683-1.523 1.523v8.147c0 .84.683 1.523 1.523 1.523h21.187z"/><path id="u" d="M454.503 65.323h21.187c1.896 0 3.438 1.542 3.438 3.438v8.147c0 1.896-1.542 3.438-3.438 3.438h-21.187c-1.896 0-3.438-1.542-3.438-3.438v-8.147c0-1.896 1.542-3.438 3.438-3.438zm21.188 13.108c.84 0 1.523-.683 1.523-1.523v-8.147c0-.84-.683-1.523-1.523-1.523h-21.187c-.84 0-1.523.683-1.523 1.523v8.147c0 .84.683 1.523 1.523 1.523h21.187z"/><path id="v" d="M480.651 65.323h21.187c1.896 0 3.438 1.542 3.438 3.438v8.147c0 1.896-1.542 3.438-3.438 3.438h-21.187c-1.895 0-3.437-1.542-3.437-3.438v-8.147c0-1.896 1.542-3.438 3.437-3.438zm21.188 13.108c.84 0 1.523-.683 1.523-1.523v-8.147c0-.84-.683-1.523-1.523-1.523h-21.187c-.84 0-1.523.683-1.523 1.523v8.147c0 .84.683 1.523 1.523 1.523h21.187z"/><path id="w" d="M441.447 78.431h21.187c1.895 0 3.437 1.542 3.437 3.438v8.147c0 1.896-1.542 3.438-3.437 3.438h-21.187c-1.896 0-3.438-1.542-3.438-3.438v-8.147c0-1.896 1.542-3.438 3.438-3.438zm21.187 13.108c.84 0 1.523-.683 1.523-1.523v-8.147c0-.84-.683-1.523-1.523-1.523h-21.187c-.84 0-1.523.683-1.523 1.523v8.147c0 .84.683 1.523 1.523 1.523h21.187z"/><path id="x" d="M493.747 78.431h21.187c1.896 0 3.438 1.542 3.438 3.438v8.147c0 1.896-1.542 3.438-3.438 3.438h-21.187c-1.895 0-3.437-1.542-3.437-3.438v-8.147c0-1.896 1.542-3.438 3.437-3.438zm21.187 13.108c.84 0 1.523-.683 1.523-1.523v-8.147c0-.84-.683-1.523-1.523-1.523h-21.187c-.84 0-1.523.683-1.523 1.523v8.147c0 .84.683 1.523 1.523 1.523h21.187z"/><path id="y" d="M402.18 91.539h21.187c1.895 0 3.437 1.542 3.437 3.438v8.147c0 1.896-1.542 3.438-3.437 3.438H402.18c-1.896 0-3.438-1.542-3.438-3.438v-8.147c0-1.896 1.542-3.438 3.438-3.438zm21.187 13.108c.84 0 1.523-.683 1.523-1.523v-8.147c0-.84-.683-1.523-1.523-1.523H402.18c-.84 0-1.523.683-1.523 1.523v8.147c0 .84.683 1.523 1.523 1.523h21.187z"/><path id="z" d="M389.124 104.647h21.187c1.896 0 3.438 1.542 3.438 3.438v8.147c0 1.896-1.542 3.438-3.438 3.438h-21.187c-1.896 0-3.438-1.542-3.438-3.438v-8.147c0-1.896 1.542-3.438 3.438-3.438zm21.186 13.108c.84 0 1.523-.683 1.523-1.523v-8.147c0-.84-.683-1.523-1.523-1.523h-21.187c-.84 0-1.523.683-1.523 1.523v8.147c0 .84.683 1.523 1.523 1.523h21.187z"/><path id="AA" d="M441.447 130.827h21.187c1.895 0 3.437 1.542 3.437 3.438v8.147c0 1.896-1.542 3.438-3.437 3.438h-21.187c-1.896 0-3.438-1.542-3.438-3.438v-8.147c0-1.896 1.542-3.438 3.438-3.438zm21.187 13.109c.84 0 1.523-.683 1.523-1.523v-8.147c0-.84-.683-1.523-1.523-1.523h-21.187c-.84 0-1.523.683-1.523 1.523v8.147c0 .84.683 1.523 1.523 1.523h21.187z"/><path id="AB" d="M192.99 65.323h21.187c1.896 0 3.438 1.542 3.438 3.438v8.147c0 1.896-1.542 3.438-3.438 3.438H192.99c-1.896 0-3.438-1.542-3.438-3.438v-8.147c0-1.896 1.542-3.438 3.438-3.438zm21.188 13.108c.84 0 1.523-.683 1.523-1.523v-8.147c0-.84-.683-1.523-1.523-1.523h-21.187c-.84 0-1.523.683-1.523 1.523v8.147c0 .84.683 1.523 1.523 1.523h21.187z"/><path id="AC" d="M349.879 65.323h21.187c1.896 0 3.438 1.542 3.438 3.438v8.147c0 1.896-1.542 3.438-3.438 3.438h-21.187c-1.896 0-3.438-1.542-3.438-3.438v-8.147c0-1.896 1.542-3.438 3.438-3.438zm21.188 13.108c.84 0 1.523-.683 1.523-1.523v-8.147c0-.84-.683-1.523-1.523-1.523H349.88c-.84 0-1.523.683-1.523 1.523v8.147c0 .84.683 1.523 1.523 1.523h21.187z"/><path id="AD" d="M127.61 78.431h21.187c1.896 0 3.438 1.542 3.438 3.438v8.147c0 1.896-1.542 3.438-3.438 3.438H127.61c-1.896 0-3.438-1.542-3.438-3.438v-8.147c0-1.896 1.542-3.438 3.438-3.438zm21.188 13.108c.84 0 1.523-.683 1.523-1.523v-8.147c0-.84-.683-1.523-1.523-1.523h-21.187c-.84 0-1.523.683-1.523 1.523v8.147c0 .84.683 1.523 1.523 1.523h21.187z"/><path id="AE" d="M389.119 78.431h21.187c1.896 0 3.438 1.542 3.438 3.438v8.147c0 1.896-1.542 3.438-3.438 3.438h-21.187c-1.896 0-3.438-1.542-3.438-3.438v-8.147c0-1.896 1.542-3.438 3.438-3.438zm21.188 13.108c.84 0 1.523-.683 1.523-1.523v-8.147c0-.84-.683-1.523-1.523-1.523H389.12c-.84 0-1.523.683-1.523 1.523v8.147c0 .84.683 1.523 1.523 1.523h21.187z"/><path id="AF" d="M232.234 78.431h21.187c1.895 0 3.437 1.542 3.437 3.438v8.147c0 1.896-1.542 3.438-3.437 3.438h-21.187c-1.896 0-3.438-1.542-3.438-3.438v-8.147c0-1.896 1.542-3.438 3.438-3.438zm21.188 13.108c.84 0 1.523-.683 1.523-1.523v-8.147c0-.84-.683-1.523-1.523-1.523h-21.187c-.84 0-1.523.683-1.523 1.523v8.147c0 .84.683 1.523 1.523 1.523h21.187z"/><path id="AG" d="M232.234 130.827h21.187c1.895 0 3.437 1.542 3.437 3.438v8.147c0 1.896-1.542 3.438-3.437 3.438h-21.187c-1.896 0-3.438-1.542-3.438-3.438v-8.147c0-1.896 1.542-3.438 3.438-3.438zm21.188 13.109c.84 0 1.523-.683 1.523-1.523v-8.147c0-.84-.683-1.523-1.523-1.523h-21.187c-.84 0-1.523.683-1.523 1.523v8.147c0 .84.683 1.523 1.523 1.523h21.187z"/><path id="AH" d="M36.06 65.323h21.187c1.896 0 3.438 1.542 3.438 3.438v8.147c0 1.896-1.542 3.438-3.438 3.438H36.06c-1.896 0-3.438-1.542-3.438-3.438v-8.147c0-1.896 1.542-3.438 3.438-3.438zm21.187 13.108c.84 0 1.523-.683 1.523-1.523v-8.147c0-.84-.683-1.523-1.523-1.523H36.06c-.84 0-1.523.683-1.523 1.523v8.147c0 .84.683 1.523 1.523 1.523h21.187z"/><path id="AI" d="M62.208 65.323h21.187c1.896 0 3.438 1.542 3.438 3.438v8.147c0 1.896-1.542 3.438-3.438 3.438H62.208c-1.896 0-3.438-1.542-3.438-3.438v-8.147c0-1.896 1.542-3.438 3.438-3.438zm21.188 13.108c.84 0 1.523-.683 1.523-1.523v-8.147c0-.84-.683-1.523-1.523-1.523H62.209c-.84 0-1.523.683-1.523 1.523v8.147c0 .84.683 1.523 1.523 1.523h21.187z"/><path id="AJ" d="M88.326 65.323h21.187c1.896 0 3.438 1.542 3.438 3.438v8.147c0 1.896-1.542 3.438-3.438 3.438H88.326c-1.896 0-3.438-1.542-3.438-3.438v-8.147c0-1.896 1.542-3.438 3.438-3.438zm21.187 13.108c.84 0 1.523-.683 1.523-1.523v-8.147c0-.84-.683-1.523-1.523-1.523H88.326c-.84 0-1.523.683-1.523 1.523v8.147c0 .84.683 1.523 1.523 1.523h21.187z"/><path id="AK" d="M23.004 78.431h21.187c1.896 0 3.438 1.542 3.438 3.438v8.147c0 1.896-1.542 3.438-3.438 3.438H23.004c-1.896 0-3.438-1.542-3.438-3.438v-8.147c0-1.896 1.542-3.438 3.438-3.438zm21.187 13.108c.84 0 1.523-.683 1.523-1.523v-8.147c0-.84-.683-1.523-1.523-1.523H23.004c-.84 0-1.523.683-1.523 1.523v8.147c0 .84.683 1.523 1.523 1.523h21.187z"/><path id="AL" d="M49.152 78.431h21.187c1.896 0 3.438 1.542 3.438 3.438v8.147c0 1.896-1.542 3.438-3.438 3.438H49.152c-1.896 0-3.438-1.542-3.438-3.438v-8.147c0-1.896 1.542-3.438 3.438-3.438zm21.187 13.108c.84 0 1.523-.683 1.523-1.523v-8.147c0-.84-.683-1.523-1.523-1.523H49.152c-.84 0-1.523.683-1.523 1.523v8.147c0 .84.683 1.523 1.523 1.523h21.187z"/><path id="AM" d="M75.269 78.431h21.187c1.896 0 3.438 1.542 3.438 3.438v8.147c0 1.896-1.542 3.438-3.438 3.438H75.269c-1.896 0-3.438-1.542-3.438-3.438v-8.147c0-1.896 1.542-3.438 3.438-3.438zm21.188 13.108c.84 0 1.523-.683 1.523-1.523v-8.147c0-.84-.683-1.523-1.523-1.523H75.27c-.84 0-1.523.683-1.523 1.523v8.147c0 .84.683 1.523 1.523 1.523h21.187z"/><path id="AN" d="M9.885 91.539h21.187c1.896 0 3.438 1.542 3.438 3.438v8.147c0 1.896-1.542 3.438-3.438 3.438H9.885c-1.896 0-3.438-1.542-3.438-3.438v-8.147c0-1.896 1.542-3.438 3.438-3.438zm21.188 13.108c.84 0 1.523-.683 1.523-1.523v-8.147c0-.84-.683-1.523-1.523-1.523H9.885c-.84 0-1.523.683-1.523 1.523v8.147c0 .84.683 1.523 1.523 1.523h21.187z"/></defs><g clip-path="url(#A)"><path d="M-40.704-3030.384h1571.886V907.395H-40.704z" fill="#5bd1d6"/><g class="D"><path d="M298.223 1610.464c-56.521 0-109.66-22.011-149.626-61.979l-38.785-38.783c-11.636-11.637-27.106-18.045-43.562-18.045H-85.329V789.031H59.76c24.46 0 44.36-19.9 44.36-44.36s-19.9-44.361-44.36-44.361H-44.1c-16.953 0-30.746-13.792-30.746-30.745V118.598c0-16.953 13.792-30.746 30.746-30.746h171.767c23.272 0 43.808-16.479 48.831-39.183 5.177-23.399 18.398-44.492 37.227-59.392a105.57 105.57 0 0 1 65.238-22.682h374.146c43.92 0 83.525 27.642 98.552 68.782 7.202 19.72 26.097 32.968 47.017 32.968h153.443c27.981 0 50.746-22.765 50.746-50.745v-47.255c0-27.981 22.764-50.746 50.745-50.746h176.32c13.535 0 26.267 5.263 35.851 14.819 9.612 9.586 14.902 22.337 14.896 35.903-.007 13.559 5.269 26.308 14.854 35.897s22.332 14.871 35.891 14.871h203.633c16.953 0 30.746 13.793 30.746 30.746v286.793c0 16.953-13.793 30.745-30.746 30.745h-119.439a198.55 198.55 0 0 1-96.375-25.026c-29.398-16.372-54.304-40.147-72.021-68.755a138.42 138.42 0 0 0-50.207-47.931c-20.493-11.413-43.725-17.445-67.182-17.445H968.819c-21.204 0-41.235 8.156-56.403 22.966-15.102 14.745-23.73 34.45-24.311 55.5l-.017.744-.015.79v303.373c0 44.112 35.888 80 80 80h608.786c44.486 0 80.708 36.191 80.745 80.677v74.276c0 17.709-6.896 34.358-19.418 46.882s-29.173 19.42-46.883 19.42h-347.479c-14.804 0-27.571 10.254-31.049 24.937-10.616 44.83-32.153 85.209-60.643 113.697l-101.545 101.545c-20.07 20.07-43.544 35.754-69.768 46.617s-53.913 16.37-82.297 16.37h-53.59c-6.319 0-11.461 5.142-11.461 11.461v152.735c0 56.521-22.011 109.66-61.978 149.627l-36.653 36.652c-39.968 39.967-93.106 61.978-149.626 61.978H298.221z" fill="#4eeae6"/><path d="M1535.056 52.708h-203.633c-44.608 0-80.767-36.172-80.746-80.785.005-11.443-9.303-20.707-20.746-20.707h-176.32a20.75 20.75 0 0 0-20.746 20.746v47.257c0 44.595-36.151 80.746-80.746 80.746H798.675c-33.469 0-63.688-21.168-75.196-52.675-10.722-29.354-39.002-49.075-70.373-49.075H278.96a75.44 75.44 0 0 0-46.622 16.208c-13.432 10.628-22.861 25.666-26.551 42.345-8.037 36.333-40.893 62.703-78.123 62.703H-44.1c-.412 0-.746.334-.746.746v550.967c0 .412.334.746.746.746H59.76c41.068 0 74.361 33.292 74.361 74.361h0c0 41.068-33.292 74.361-74.361 74.361H-55.329v642.626H66.25c24.468 0 47.472 9.528 64.774 26.831l38.785 38.784c34.301 34.301 79.906 53.191 128.414 53.191h286.993c48.508 0 94.113-18.891 128.414-53.19l36.652-36.652c34.3-34.301 53.191-79.905 53.191-128.414v-152.735c0-22.898 18.563-41.461 41.461-41.461h53.59a184.12 184.12 0 0 0 70.815-14.086c22.565-9.348 42.765-22.844 60.035-40.114l101.546-101.546c25.785-25.785 43.783-61.897 52.663-99.398 6.642-28.047 31.418-48.023 60.241-48.023h347.479c20.048 0 36.301-16.253 36.301-36.301v-74.251c-.024-28.006-22.733-50.702-50.745-50.702H968.072c-60.751 0-110-49.249-110-110V291.838c0-.695.023-1.389.036-2.083v-.037c1.52-59.839 50.504-107.881 110.709-107.881h161.013a168.08 168.08 0 0 1 142.892 79.579h0a168.08 168.08 0 0 0 142.892 79.579h119.44c.412 0 .746-.334.746-.746V53.454c0-.412-.334-.746-.746-.746z" fill="#fcee92"/><path d="M1640.658 753.59H968.072c-88.366 0-160-71.634-160-160V290.217c0-30.548 8.605-59.124 23.519-83.431 15.687-25.567-2.918-58.44-32.915-58.44h0c-56.065 0-103.955-35.678-122.161-85.521-3.576-9.791-12.985-16.229-23.408-16.229H278.961c-11.632 0-21.841 7.996-24.353 19.353-12.879 58.22-64.906 101.903-126.942 101.903h-168.37V620.31h99.12c66.163 0 120.024 53.207 120.832 119.365h0c.822 67.311-53.516 122.317-120.832 122.317h-68.745v554.665H66.25a136.6 136.6 0 0 1 96.594 40.011l38.786 38.786c25.618 25.618 60.364 40.011 96.594 40.011h286.993a136.6 136.6 0 0 0 96.594-40.011l36.652-36.652c25.618-25.618 40.01-60.364 40.01-96.594v-152.736c0-47.751 38.71-86.461 86.461-86.461h53.59a140.05 140.05 0 0 0 99.031-41.02l101.546-101.545c28.705-28.705 44.832-67.638 45.78-108.233l495.779-.432v-118.19z" class="Q"/></g><path d="M1630.668 753.59H968.072c-88.366 0-160-71.634-160-160V290.217c0-30.547 8.605-59.124 23.519-83.431 15.687-25.567-2.918-58.44-32.915-58.44h0c-56.065 0-103.955-35.678-122.161-85.521-3.576-9.791-12.985-16.229-23.408-16.229H278.961c-11.632 0-21.841 7.996-24.353 19.353-12.879 58.22-64.906 101.903-126.942 101.903H-35.709" stroke="#66c24c" stroke-dasharray="0 9.99" class="B F G L"/><path d="M279.578 219.753v-49.028c0-14.731 11.942-26.674 26.674-26.674h181.172c14.731 0 26.674 11.942 26.674 26.674v58.663c0 14.731 11.942 26.674 26.674 26.674h62.033c14.731 0 26.674 11.942 26.674 26.674v89.476c0 14.731 11.942 26.674 26.674 26.674h13.114c14.731 0 26.674 11.942 26.674 26.674v114.761c0 14.731-11.942 26.674-26.674 26.674H543.58c-37.846 0-68.526 30.68-68.526 68.526v131.592c0 33.097-26.831 59.928-59.928 59.928h-81.482c-33.097 0-59.928-26.831-59.928-59.928V520.774c0-14.731-11.942-26.674-26.674-26.674h-54.164c-14.731 0-26.674 11.942-26.674 26.674h0c0 14.732-11.942 26.674-26.674 26.674H79.502c-14.731 0-26.674-11.942-26.674-26.674v-60.726c0-14.731-11.942-26.674-26.674-26.674H-84.697c-14.731 0-26.674-11.942-26.674-26.674v-22.19c0-14.731 11.942-26.674 26.674-26.674H69.158c14.731 0 26.674-11.942 26.674-26.674v-58.061c0-14.731 11.942-26.674 26.674-26.674h130.399c14.731 0 26.674-11.942 26.674-26.674z" fill="#52aa35"/><path d="M279.578 219.753v-49.028c0-14.731 11.942-26.674 26.674-26.674h181.172c14.731 0 26.674 11.942 26.674 26.674v58.663c0 14.731 11.942 26.674 26.674 26.674h62.033c14.731 0 26.674 11.942 26.674 26.673v89.476c0 14.731 11.942 26.674 26.674 26.674h13.114c14.731 0 26.674 11.942 26.674 26.673v114.761c0 14.731-11.942 26.674-26.674 26.674H543.58c-37.846 0-68.526 30.68-68.526 68.526v131.592c0 33.097-26.831 59.928-59.928 59.928h-81.482c-33.097 0-59.928-26.831-59.928-59.928V520.772c0-14.732-11.942-26.674-26.674-26.674h-54.164c-14.731 0-26.674 11.942-26.674 26.674s-11.942 26.673-26.674 26.673H79.502c-14.731 0-26.674-11.942-26.674-26.673v-60.726c0-14.731-11.942-26.673-26.674-26.673H-84.697c-14.731 0-26.674-11.942-26.674-26.674v-22.19c0-14.731 11.942-26.674 26.674-26.674H69.158c14.731 0 26.674-11.942 26.674-26.674V273.1c0-14.731 11.942-26.673 26.674-26.673h130.399c14.731 0 26.674-11.942 26.674-26.674z" stroke="#52aa35" stroke-dasharray="0 10.006" class="B F G L"/><use href="#O" class="C"/><use href="#P" class="R"/><path d="M867.924 48.059V96.53h31.298V16.786l-31.298 31.273z" class="C"/><path d="M899.222 96.53h31.296V48.059l-31.296-31.273V96.53z" class="R"/><path d="M930.526 48.059V96.53h31.298V16.786l-31.298 31.273z" class="C"/><path d="M961.824 96.53h31.297V48.059l-31.297-31.273V96.53z" class="R"/><use href="#Q" class="C"/><path d="M867.915 117.53h62.595V74.725l-31.297-31.273-31.298 31.273v42.805z" class="S"/><g opacity=".75" class="C"><g clip-path="url(#B)"><use href="#R"/><path d="M909.255 41.574h3.928v77.833h-3.928zm-12.007 0h3.928v77.833h-3.928zm-12.006 0h3.928v77.833h-3.928zm-12.007 0h3.928v77.833h-3.928z"/></g></g><use href="#S" class="S"/><path d="M805.321 117.537h62.594V69.066l-31.296-31.273-31.298 31.273v48.471z" class="C"/><use href="#T" fill="#70c858"/><g opacity=".75" class="C"><g clip-path="url(#C)"><path d="M858.667 41.574h3.928v77.833h-3.928zm-12.006 0h3.928v77.833h-3.928zm-12.007 0h3.928v77.833h-3.928zm-12.006 0h3.928v77.833h-3.928zm-12.007 0h3.928v77.833h-3.928z"/></g></g><path d="M849.765 117.53V95.64h-26.31v21.89" fill="#70c858"/><g class="S"><path style="mix-blend-mode:multiply" d="M899.212 43.373l-31.297 31.273v5.658l31.297-31.273 31.298 31.273v-5.658l-31.298-31.273z" opacity=".5"/><use href="#U" style="mix-blend-mode:multiply" opacity=".5"/></g><path d="M886.066 117.451v-21.89h26.31v21.89" class="B M T U"/><g fill="#c5bcf1"><path style="mix-blend-mode:multiply" d="M836.617 43.373l-31.296 31.273v5.658l31.296-31.273 31.298 31.273v-5.658l-31.298-31.273zm-13.145 52.188h26.31v6.256h-26.31z" opacity=".5"/></g><path d="M823.472 117.451v-21.89h26.309v21.89" class="B M T U"/><path d="M930.51 117.537h62.594V69.066l-31.296-31.273-31.298 31.273v48.471z" class="C"/><path d="M930.51 117.53h62.594V74.725l-31.296-31.273-31.298 31.273v42.805z" fill="#56c7c8"/><g opacity=".75" class="C"><g clip-path="url(#D)"><path d="M983.856 41.574h3.928v77.833h-3.928zm-12.007 0h3.928v77.833h-3.928zm-12.006 0h3.928v77.833h-3.928zm-12.007 0h3.928v77.833h-3.928zm-12.006 0h3.928v77.833h-3.928z"/></g></g><path d="M974.953 117.53V95.64h-26.31v21.89" fill="#56c7c8"/><g fill="#c5bcf1"><path style="mix-blend-mode:multiply" d="M961.806 43.373L930.51 74.646v5.658l31.296-31.273 31.298 31.273v-5.658l-31.298-31.273zM948.66 95.561h26.31v6.256h-26.31z" opacity=".5"/></g><path d="M948.66 117.451v-21.89h26.31v21.89" class="B M T U"/><path d="M802.751 118.782h199.223" stroke="#fcee92" stroke-dasharray="0 10" class="F G L Q"/><rect x="777.595" y="6.074" width="23.013" height="10.712" rx="5.354" opacity=".073"/><path d="M1211.661 33.51a12.45 12.45 0 0 1-10.312-5.474c-2.316-3.423-2.791-7.773-1.252-11.611l37.666-94.167c2.291-5.728 7.824-9.448 13.994-9.448h53.842a15.09 15.09 0 0 1 14.507 10.943l11.961 41.864 46.102 13.172a15.03 15.03 0 0 1 9.579 8.238l26.841 59.044a12.47 12.47 0 0 1-.867 11.901 12.46 12.46 0 0 1-10.478 5.714h-91.89a22.85 22.85 0 0 1-16.151-6.688L1278.411 40.2c-4.285-4.283-10.093-6.688-16.151-6.688h-50.596z" fill="#f0be5b" class="D"/><g clip-path="url(#E)" class="D"><path d="M1301.891,8.889c0-8.333-6.752-15.087-15.087-15.087s-15.087,6.755-15.087,15.087v45.262h30.175V8.889Z" fill="#0f1e24"/><path d="M1301.891,14.991c0-8.333-6.752-15.087-15.087-15.087s-15.087,6.755-15.087,15.087v45.262h30.175V14.991Z" fill="#1e3c49"/></g><path d="M1421.018 66.647h-115.034l-23.629-23.629a34.58 34.58 0 0 0-24.452-10.129h-10.583a34.58 34.58 0 0 1-24.452-10.129l-24.153-24.153-26.679 27.27 22.473 34.001h24.833l47.813 6.768 153.864 10.55v-10.55z" fill="#fcee92" class="D"/><g stroke="#fcee92" class="B F G L"><path d="M1421.018 66.646h0"/><path d="M1411.432 66.646h-100.655" stroke-dasharray="0 9.586"/><path d="M1305.984 66.646h0"/><path d="M1298.779 59.442l-16.424-16.424a34.58 34.58 0 0 0-24.453-10.129h-10.583c-9.172 0-17.967-3.643-24.453-10.128L1202.315 2.21" class="X"/><path d="M1198.714-1.393h0"/><path d="M1192.044 5.425l-16.674 17.043" stroke-dasharray="0 9.537"/><path d="M1172.035 25.877h0"/><path d="M1177.653 34.377l14.046 21.251" class="X"/><path d="M1194.508 59.878h0"/><path d="M1204.392 59.878h14.949l47.813 6.768 148.933 10.213" stroke-dasharray="0 9.885"/><path d="M1421.018 77.197h0"/><path d="M1421.018 71.922v-2.638" stroke-dasharray="0 5.275"/></g><g fill="#ead467"><ellipse cx="1165.918" cy="38.735" rx="3.188" ry="3.196" transform="matrix(.999992 -.003875 .003875 .999992 -.141 4.522)" class="J"/><ellipse cx="1153.443" cy="37.595" rx="3.188" ry="3.196" transform="matrix(.999992 -.003875 .003875 .999992 -.137 4.474)" class="J"/><ellipse cx="1158.028" cy="28.517" rx="3.188" ry="3.196" transform="matrix(.999992 -.003875 .003875 .999992 -.102 4.492)" class="J"/><ellipse cx="1128.877" cy="28.82" rx="3.188" ry="3.196" transform="matrix(.999992 -.003875 .003875 .999992 -.103 4.379)" class="J"/><ellipse cx="1133.265" cy="49.941" rx="3.188" ry="3.196" transform="matrix(.999992 -.003875 .003875 .999992 -.185 4.396)" class="J"/><ellipse cx="885.486" cy="138.288" rx="3.188" ry="3.196" transform="matrix(.65309 -.75728 .75728 .65309 202.463 718.536)" class="J"/></g><g fill="#52aa35"><path d="M385.361 153.152a2.56 2.56 0 0 0 2.555-2.561v-8.019c0-1.416-1.144-2.561-2.555-2.561a2.56 2.56 0 0 0-2.555 2.561v8.019c0 1.416 1.144 2.561 2.555 2.561z"/><use href="#V"/><path d="M395.14 153.152a2.56 2.56 0 0 0 2.555-2.561v-5.348c0-1.416-1.144-2.561-2.555-2.561a2.56 2.56 0 0 0-2.555 2.561v5.348c0 1.416 1.144 2.561 2.555 2.561z"/></g><path d="M142.724 132.202l-32.45 31.963h64.901l-32.45-31.963z" class="D N"/><g fill="#72e34e"><path d="M706.121 120.454c-1.459-1.432-4.091-1.432-5.55 0-.665.689-1.06 1.636-1.103 2.616h-.113c-.091-2.08-1.786-3.737-3.89-3.737s-3.8 1.657-3.89 3.737h-.086c-.091-2.08-1.786-3.737-3.89-3.737s-3.8 1.657-3.89 3.737h-.087c-.092-2.08-1.811-3.737-3.89-3.737a3.92 3.92 0 0 0-3.916 3.737h-.087c-.091-2.08-1.787-3.737-3.89-3.737s-3.8 1.657-3.89 3.737h-.086c-.091-2.08-1.787-3.737-3.89-3.737s-3.8 1.657-3.89 3.737h-.112c-.091-2.08-1.788-3.737-3.89-3.737s-3.8 1.657-3.89 3.737h-.086c-.091-2.08-1.788-3.737-3.89-3.737s-3.8 1.657-3.89 3.737h-.113c-.043-.981-.439-1.928-1.104-2.616-1.484-1.459-4.089-1.432-5.549 0-.182.182-.338.39-.468.599-.156.208-.261.443-.365.678a3.98 3.98 0 0 0-.234.729c-.041.204-.053.408-.062.611h-.034c-.091-2.08-1.788-3.737-3.89-3.737s-3.8 1.657-3.89 3.737h-.113c-.043-.981-.439-1.928-1.104-2.616-1.484-1.459-4.089-1.432-5.549 0-.182.182-.338.39-.468.599-.156.208-.261.443-.365.678-.029.064-.039.132-.064.199-.194-.551-.493-1.062-.907-1.476-1.459-1.432-4.091-1.432-5.55 0-.665.689-1.06 1.636-1.103 2.616h-.113c-.091-2.08-1.786-3.737-3.89-3.737s-3.8 1.657-3.89 3.737h-.086c-.091-2.08-1.786-3.737-3.89-3.737s-3.8 1.657-3.89 3.737h-.087c-.092-2.08-1.811-3.737-3.89-3.737a3.92 3.92 0 0 0-3.916 3.737h-.087c-.091-2.08-1.787-3.737-3.89-3.737s-3.8 1.657-3.89 3.737h-.086c-.091-2.08-1.787-3.737-3.89-3.737s-3.8 1.657-3.89 3.737h-.112c-.091-2.08-1.788-3.737-3.89-3.737s-3.8 1.657-3.89 3.737h-.086c-.091-2.08-1.788-3.737-3.89-3.737s-3.8 1.657-3.89 3.737h-.113c-.043-.981-.439-1.928-1.104-2.616-1.484-1.459-4.089-1.432-5.549 0-.182.182-.338.39-.468.599-.156.208-.261.443-.365.678a3.98 3.98 0 0 0-.234.729c-.041.204-.053.408-.062.611h-.034c-.091-2.08-1.788-3.737-3.89-3.737s-3.8 1.657-3.89 3.737h-.113c-.043-.981-.439-1.928-1.104-2.616-1.484-1.459-4.089-1.432-5.548 0-.182.182-.338.39-.468.599-.156.208-.261.443-.365.678a3.98 3.98 0 0 0-.234.729c-.041.204-.053.408-.062.611h-.017v11.884h172.646v-11.884h-.017c-.043-.981-.441-1.928-1.129-2.616zm87.713 2.616c-.043-.981-.441-1.928-1.129-2.616-1.459-1.432-4.091-1.432-5.55 0-.665.689-1.06 1.636-1.103 2.616h-.113c-.091-2.08-1.786-3.737-3.89-3.737s-3.8 1.657-3.89 3.737h-.086c-.091-2.08-1.786-3.737-3.89-3.737s-3.8 1.657-3.89 3.737h-.087c-.092-2.08-1.811-3.737-3.89-3.737a3.92 3.92 0 0 0-3.916 3.737h-.087c-.091-2.08-1.786-3.737-3.89-3.737s-3.8 1.657-3.89 3.737h-.086c-.091-2.08-1.787-3.737-3.89-3.737s-3.8 1.657-3.89 3.737h-.112c-.091-2.08-1.788-3.737-3.89-3.737s-3.8 1.657-3.89 3.737h-.086c-.091-2.08-1.788-3.737-3.89-3.737s-3.8 1.657-3.89 3.737h-.113c-.043-.981-.439-1.928-1.104-2.616-1.484-1.459-4.089-1.432-5.549 0-.182.182-.338.39-.468.599-.156.208-.261.443-.365.678a3.98 3.98 0 0 0-.234.729c-.041.204-.053.408-.062.611h-.034c-.091-2.08-1.788-3.737-3.89-3.737s-3.8 1.657-3.89 3.737h-.113c-.043-.981-.439-1.928-1.104-2.616-1.484-1.459-4.089-1.432-5.549 0-.182.182-.338.39-.468.599-.156.208-.261.443-.365.678a3.98 3.98 0 0 0-.234.729c-.041.204-.053.408-.062.611h-.017v11.884h86.567v-11.884h-.017z"/></g><path d="M620.7 127.132h86.567v78.789H620.7z" fill="#7d36c2"/><use href="#W" fill="#8a4cc9"/><path d="M639.91 138.346h48.147v19.083H639.91z" class="V"/><path d="M639.91 138.346h48.147v8.861H639.91z" opacity=".1" class="W"/><use href="#X" class="N"/><use href="#Y" fill="#2665f9"/><path d="M541.384 127.132h73.041v78.789h-73.041z" fill="#4480f9"/><use href="#Z" class="V"/><path d="M553.831 138.346h48.147v8.861h-48.147z" opacity=".1" class="W"/><path d="M557.552 134.922h40.706a7.17 7.17 0 0 1 7.165 7.165v.389a.87.87 0 0 1-.871.871h-53.293a.87.87 0 0 1-.871-.871v-.389a7.17 7.17 0 0 1 7.165-7.165z" class="N"/><path d="M707.283 127.132h86.567v78.789h-86.567z" fill="#f5bb2f"/><path d="M714.047 127.132h73.041v78.789h-73.041z" fill="#f7cf35"/><path d="M726.494 138.346h48.147v19.083h-48.147z" class="V"/><path d="M726.494 138.346h48.147v8.861h-48.147z" opacity=".1" class="W"/><path d="M730.214 134.922h40.706a7.17 7.17 0 0 1 7.165 7.165v.389a.87.87 0 0 1-.871.871h-53.293a.87.87 0 0 1-.871-.871v-.389a7.17 7.17 0 0 1 7.165-7.165z" class="N"/><path d="M107.319 62.869C88.23 62.869 72.7 47.352 72.7 28.277S88.23-6.314 107.319-6.314h17.432c19.091 0 34.622 15.517 34.622 34.59s-15.53 34.592-34.622 34.592h-17.432z" opacity=".073" class="D"/><rect x="94.826" y="15.795" width="42.418" height="24.966" rx="12.483" fill="#fcf3c6"/><g opacity=".2"><g clip-path="url(#F)"><use href="#a" opacity=".412" class="B F G M Y"/><use href="#b" class="C D"/><g clip-path="url(#G)" class="D O"><use href="#c"/></g><use href="#d" fill="#d9f3fb" class="D"/><g clip-path="url(#H)"><use href="#e" class="P"/><g stroke="#49468c" class="B F Z"><path style="mix-blend-mode:multiply" d="M154.178-31.968L103.359-.892m53.813-26.181l-50.82 31.075" class="E"/></g></g><use href="#f" fill="#98dcec"/><use href="#g" fill="#8bccdc"/><use href="#h" fill="#51b0b9"/><use href="#i" fill="#5dc9d2"/><use href="#j" class="C"/><use href="#k" class="K"/><use href="#l" class="C"/><path d="M64.366 10.461l3.343-2.045 2.566 4.196-3.343 2.045z" class="K"/><path d="M50.324 19.047l3.343-2.045 5.986 9.79-3.343 2.045z" class="C"/><path d="M50.324 19.048l3.343-2.045 2.566 4.196-3.343 2.045z" class="K"/><rect x="29.805" y="-15.684" width="58.784" height="27.868" rx="3.275" transform="matrix(.853132 -.521695 .521695 .853132 9.607 30.625)" class="O"/><g clip-path="url(#I)"><use href="#m" fill="#ae391b"/><rect x="29.493" y="-15.154" width="57.215" height="26.229" rx="3.082" transform="matrix(.853132 -.521695 .521695 .853132 9.597 30.011)" class="P"/><g stroke="#49468c" class="B F G"><g class="Z"><path style="mix-blend-mode:multiply" d="M82.748-18.073l-50.82 31.076m46.971-37.369L28.08 6.71m58.944-17.79L36.205 19.996" class="E"/></g><g stroke-width="4.886"><path style="mix-blend-mode:multiply" d="M36.486-18.607l32.499 53.146M53.871-29.238L86.37 23.908" class="E"/></g></g><use href="#n" style="mix-blend-mode:multiply" fill="#55509e" opacity=".148" class="D"/></g></g></g><g clip-path="url(#J)"><use href="#a" opacity=".412" class="B F G M Y"/><use href="#b" class="C D"/><g clip-path="url(#K)" class="D"><use href="#c" class="O"/><path d="M131.127 4.894l-11.604 6.74a2.44 2.44 0 0 1-3.336-.883l-.161-.277a2.44 2.44 0 0 0-3.336-.883l-3.122 1.813a2.44 2.44 0 0 0-.886 3.335l1.47 2.531a2.44 2.44 0 0 1-.886 3.335l-.356.207a2.44 2.44 0 0 1-3.336-.883h0a2.44 2.44 0 0 0-3.336-.883l-4.222 2.453a2.44 2.44 0 0 0-.87 3.363l4.743 7.925a2.44 2.44 0 0 0 2.754 1.095l14.539-4.091a2.41 2.41 0 0 0 .807-.399l12.034-9.286c.711-.721 3.649-9.095 3.292-9.708" opacity=".2" class="H"/></g><use href="#d" fill="#d9f3fb" class="D"/><g clip-path="url(#L)"><use href="#e" class="P"/><g class="E H"><path d="M102.724-1.931l50.814-31.083 1.275 2.085L103.999.154z"/></g><g class="E H"><path d="M105.718 2.965l50.814-31.083 1.275 2.085L106.993 5.05z"/></g></g><use href="#f" fill="#98dcec"/><use href="#g" fill="#8bccdc"/><use href="#h" fill="#51b0b9"/><use href="#i" fill="#5dc9d2"/><use href="#j" class="C"/><use href="#k" class="K"/><use href="#l" class="C"/><path d="M64.366 10.461l3.343-2.045 2.566 4.196-3.343 2.045z" class="K"/><path d="M50.324 19.047l3.343-2.045 5.986 9.79-3.343 2.045z" class="C"/><path d="M50.324 19.048l3.343-2.045 2.566 4.196-3.343 2.045z" class="K"/><rect x="29.805" y="-15.684" width="58.784" height="27.868" rx="3.275" transform="matrix(.853132 -.521695 .521695 .853132 9.607 30.625)" class="O"/><g clip-path="url(#M)"><use href="#m" fill="#ae391b"/><rect x="29.493" y="-15.154" width="57.215" height="26.229" rx="3.082" transform="matrix(.853132 -.521695 .521695 .853132 9.597 30.011)" class="P"/><g class="E H"><path d="M31.929 14.224a1.22 1.22 0 0 1-.638-2.264l50.82-31.075c.578-.35 1.327-.169 1.68.406a1.22 1.22 0 0 1-.405 1.679L32.565 14.045c-.2.122-.419.179-.637.179z"/></g><g class="E H"><path d="M28.081 7.93a1.22 1.22 0 0 1-.638-2.264l50.82-31.075c.577-.35 1.328-.169 1.68.406a1.22 1.22 0 0 1-.405 1.679L28.718 7.751c-.2.122-.419.179-.637.179z"/></g><g class="E H"><path d="M36.206 21.217a1.22 1.22 0 0 1-.638-2.264l50.82-31.076a1.22 1.22 0 0 1 1.275 2.085l-50.82 31.076c-.2.122-.419.179-.637.179z"/></g><g class="E H"><path d="M68.987 36.982a2.44 2.44 0 0 1-2.086-1.167L34.402-17.333c-.704-1.152-.341-2.655.809-3.36s2.656-.341 3.358.809l32.499 53.147c.704 1.152.341 2.655-.809 3.36-.398.242-.838.358-1.272.358z"/></g><path d="M27.647 8.562l11.677-6.614a2.44 2.44 0 0 1 3.326.919l.158.279a2.44 2.44 0 0 0 3.326.919l3.141-1.779a2.44 2.44 0 0 0 .922-3.326l-1.443-2.547a2.44 2.44 0 0 1 .922-3.326l.358-.203a2.44 2.44 0 0 1 3.326.919h0a2.44 2.44 0 0 0 3.326.919l4.249-2.406a2.44 2.44 0 0 0 .906-3.353l-4.656-7.976a2.44 2.44 0 0 0-2.742-1.125L39.86-16.206a2.4 2.4 0 0 0-.811.391L26.915-6.661c-.719.713-3.748 9.054-3.398 9.672" fill="#4ba481" class="D"/><g class="E H"><path d="M86.373 26.351a2.44 2.44 0 0 1-2.086-1.167l-32.5-53.147c-.704-1.152-.341-2.655.809-3.36s2.656-.341 3.358.809l32.499 53.147c.704 1.152.341 2.655-.809 3.36-.398.242-.838.358-1.272.358z"/></g><use href="#n" fill="#55509e" opacity=".148" class="D"/></g></g><path d="M1554.204,87.558h-274.87c-19.882,0-36,16.118-36,36h0c0,19.882,16.118,36,36,36h0c36.434,0,71.196,15.287,95.821,42.139l42.334,46.163c24.625,26.852,59.387,42.139,95.821,42.139h40.894V87.558Z" class="D Q"/><path d="M1544.247,87.558h-264.914c-19.882,0-36,16.118-36,36s16.118,36,36,36c36.434,0,71.196,15.287,95.821,42.139l42.334,46.163c24.625,26.852,59.387,42.14,95.821,42.14h35.916" stroke="#66c24c" stroke-dasharray="0 9.956" class="B F G L"/><g opacity=".2"><g clip-path="url(#N)" fill="#97cec8"><path d="M404.661 143.979h18.707c1.895 0 3.437 1.542 3.437 3.438v8.147c0 1.896-1.542 3.438-3.437 3.438h-21.187c-1.896 0-3.438-1.542-3.438-3.438v-5.667c0-3.263 2.655-5.918 5.918-5.918zm18.706 13.109c.84 0 1.523-.683 1.523-1.523v-8.147c0-.84-.683-1.523-1.523-1.523H404.66a4.01 4.01 0 0 0-4.004 4.004v5.667c0 .84.683 1.523 1.523 1.523h21.187z"/><use href="#o"/><use href="#p"/><use href="#q"/><path d="M506.804 143.979h21.187c1.896 0 3.438 1.542 3.438 3.438v8.147c0 1.896-1.542 3.438-3.438 3.438h-21.187c-1.896 0-3.438-1.542-3.438-3.438v-8.147c0-1.896 1.542-3.438 3.438-3.438zm21.187 13.109c.84 0 1.523-.683 1.523-1.523v-8.147c0-.84-.683-1.523-1.523-1.523h-21.187c-.84 0-1.523.683-1.523 1.523v8.147c0 .84.683 1.523 1.523 1.523h21.187zm-384.843-13.109h18.707c1.896 0 3.438 1.542 3.438 3.438v8.147c0 1.896-1.542 3.438-3.438 3.438h-21.187c-1.896 0-3.438-1.542-3.438-3.438v-5.667c0-3.263 2.655-5.918 5.918-5.918zm18.706 13.109c.84 0 1.523-.683 1.523-1.523v-8.147c0-.84-.683-1.523-1.523-1.523h-18.707a4.01 4.01 0 0 0-4.004 4.004v5.667c0 .84.683 1.523 1.523 1.523h21.187z"/><path d="M166.815 143.979h21.187c1.896 0 3.438 1.542 3.438 3.438v8.147c0 1.896-1.542 3.438-3.438 3.438h-21.187c-1.896 0-3.438-1.542-3.438-3.438v-8.147c0-1.896 1.542-3.438 3.438-3.438zm21.187 13.109c.84 0 1.523-.683 1.523-1.523v-8.147c0-.84-.683-1.523-1.523-1.523h-21.187c-.84 0-1.523.683-1.523 1.523v8.147c0 .84.683 1.523 1.523 1.523h21.187z"/><path d="M192.99 143.979h21.187c1.896 0 3.438 1.542 3.438 3.438v8.147c0 1.896-1.542 3.438-3.438 3.438H192.99c-1.896 0-3.438-1.542-3.438-3.438v-8.147c0-1.896 1.542-3.438 3.438-3.438zm21.188 13.109c.84 0 1.523-.683 1.523-1.523v-8.147c0-.84-.683-1.523-1.523-1.523h-21.187c-.84 0-1.523.683-1.523 1.523v8.147c0 .84.683 1.523 1.523 1.523h21.187z"/><use href="#r"/><path d="M245.291 143.979h21.187c1.896 0 3.438 1.542 3.438 3.438v8.147c0 1.896-1.542 3.438-3.438 3.438h-21.187c-1.896 0-3.438-1.542-3.438-3.438v-8.147c0-1.896 1.542-3.438 3.438-3.438zm21.187 13.109c.84 0 1.523-.683 1.523-1.523v-8.147c0-.84-.683-1.523-1.523-1.523h-21.187c-.84 0-1.523.683-1.523 1.523v8.147c0 .84.683 1.523 1.523 1.523h21.187z"/><use href="#s"/><path d="M297.614 143.979h21.187c1.896 0 3.438 1.542 3.438 3.438v8.147c0 1.896-1.542 3.438-3.438 3.438h-21.187c-1.896 0-3.438-1.542-3.438-3.438v-8.147c0-1.896 1.542-3.438 3.438-3.438zm21.188 13.109c.84 0 1.523-.683 1.523-1.523v-8.147c0-.84-.683-1.523-1.523-1.523h-21.187c-.84 0-1.523.683-1.523 1.523v8.147c0 .84.683 1.523 1.523 1.523h21.187z"/><path d="M323.762 143.979h21.187c1.896 0 3.438 1.542 3.438 3.438v8.147c0 1.896-1.542 3.438-3.438 3.438h-21.187c-1.895 0-3.437-1.542-3.437-3.438v-8.147c0-1.896 1.542-3.438 3.437-3.438zm21.187 13.109c.84 0 1.523-.683 1.523-1.523v-8.147c0-.84-.683-1.523-1.523-1.523h-21.187c-.84 0-1.523.683-1.523 1.523v8.147c0 .84.683 1.523 1.523 1.523h21.187z"/><path d="M349.879 143.979h21.187c1.896 0 3.438 1.542 3.438 3.438v8.147c0 1.896-1.542 3.438-3.438 3.438h-21.187c-1.896 0-3.438-1.542-3.438-3.438v-8.147c0-1.896 1.542-3.438 3.438-3.438zm21.188 13.109c.84 0 1.523-.683 1.523-1.523v-8.147c0-.84-.683-1.523-1.523-1.523H349.88c-.84 0-1.523.683-1.523 1.523v8.147c0 .84.683 1.523 1.523 1.523h21.187z"/><path d="M376.028 143.979h18.707c3.263 0 5.918 2.655 5.918 5.918v5.667c0 1.896-1.542 3.438-3.438 3.438h-21.187c-1.896 0-3.438-1.542-3.438-3.438v-8.147c0-1.896 1.542-3.438 3.438-3.438zm21.187 13.109c.84 0 1.523-.683 1.523-1.523v-5.667a4.01 4.01 0 0 0-4.004-4.004h-18.707c-.84 0-1.523.683-1.523 1.523v8.147c0 .84.683 1.523 1.523 1.523h21.187zm-413.478-13.109H4.924c1.896 0 3.438 1.542 3.438 3.438v8.147c0 1.896-1.542 3.438-3.438 3.438h-21.187c-1.896 0-3.438-1.542-3.438-3.438v-8.147c0-1.896 1.542-3.438 3.438-3.438zm21.187 13.109c.84 0 1.523-.683 1.523-1.523v-8.147c0-.84-.683-1.523-1.523-1.523h-21.187c-.84 0-1.523.683-1.523 1.523v8.147c0 .84.683 1.523 1.523 1.523H4.924z"/><path d="M9.885 143.979h21.187c1.896 0 3.438 1.542 3.438 3.438v8.147c0 1.896-1.542 3.438-3.438 3.438H9.885c-1.896 0-3.438-1.542-3.438-3.438v-8.147c0-1.896 1.542-3.438 3.438-3.438zm21.188 13.109c.84 0 1.523-.683 1.523-1.523v-8.147c0-.84-.683-1.523-1.523-1.523H9.885c-.84 0-1.523.683-1.523 1.523v8.147c0 .84.683 1.523 1.523 1.523h21.187z"/><path d="M36.06 143.979h21.187c1.896 0 3.438 1.542 3.438 3.438v8.147c0 1.896-1.542 3.438-3.438 3.438H36.06c-1.896 0-3.438-1.542-3.438-3.438v-8.147c0-1.896 1.542-3.438 3.438-3.438zm21.187 13.109c.84 0 1.523-.683 1.523-1.523v-8.147c0-.84-.683-1.523-1.523-1.523H36.06c-.84 0-1.523.683-1.523 1.523v8.147c0 .84.683 1.523 1.523 1.523h21.187z"/><path d="M62.208 143.979h21.187c1.896 0 3.438 1.542 3.438 3.438v8.147c0 1.896-1.542 3.438-3.438 3.438H62.208c-1.896 0-3.438-1.542-3.438-3.438v-8.147c0-1.896 1.542-3.438 3.438-3.438zm21.188 13.109c.84 0 1.523-.683 1.523-1.523v-8.147c0-.84-.683-1.523-1.523-1.523H62.209c-.84 0-1.523.683-1.523 1.523v8.147c0 .84.683 1.523 1.523 1.523h21.187z"/><path d="M88.326 143.979h21.187c1.896 0 3.438 1.542 3.438 3.438v8.147c0 1.896-1.542 3.438-3.438 3.438H88.326c-1.896 0-3.438-1.542-3.438-3.438v-8.147c0-1.896 1.542-3.438 3.438-3.438zm21.187 13.109c.84 0 1.523-.683 1.523-1.523v-8.147c0-.84-.683-1.523-1.523-1.523H88.326c-.84 0-1.523.683-1.523 1.523v8.147c0 .84.683 1.523 1.523 1.523h21.187z"/><path d="M114.474 143.979h18.707c3.263 0 5.918 2.655 5.918 5.918v5.667c0 1.896-1.542 3.438-3.438 3.438h-21.187c-1.896 0-3.438-1.542-3.438-3.438v-8.147c0-1.896 1.542-3.438 3.438-3.438zm21.187 13.109c.84 0 1.523-.683 1.523-1.523v-5.667a4.01 4.01 0 0 0-4.003-4.004h-18.707c-.84 0-1.523.683-1.523 1.523v8.147c0 .84.683 1.523 1.523 1.523h21.187zm269-91.765h18.707c1.895 0 3.437 1.542 3.437 3.438v8.147c0 1.896-1.542 3.438-3.437 3.438h-21.187c-1.896 0-3.438-1.542-3.438-3.438v-5.667c0-3.263 2.655-5.918 5.918-5.918zm18.706 13.108c.84 0 1.523-.683 1.523-1.523v-8.147c0-.84-.683-1.523-1.523-1.523H404.66a4.01 4.01 0 0 0-4.004 4.004v5.667c0 .84.683 1.523 1.523 1.523h21.187z"/><use href="#t"/><use href="#u"/><use href="#v"/><path d="M506.804 65.323h21.187c1.896 0 3.438 1.542 3.438 3.438v8.147c0 1.896-1.542 3.438-3.438 3.438h-21.187c-1.896 0-3.438-1.542-3.438-3.438v-8.147c0-1.896 1.542-3.438 3.438-3.438zm21.187 13.108c.84 0 1.523-.683 1.523-1.523v-8.147c0-.84-.683-1.523-1.523-1.523h-21.187c-.84 0-1.523.683-1.523 1.523v8.147c0 .84.683 1.523 1.523 1.523h21.187zm-138.867 0h21.187c1.896 0 3.438 1.542 3.438 3.438v8.147c0 1.896-1.542 3.438-3.438 3.438h-21.187c-1.896 0-3.438-1.542-3.438-3.438v-8.147c0-1.896 1.542-3.438 3.438-3.438zm21.186 13.108c.84 0 1.523-.683 1.523-1.523v-8.147c0-.84-.683-1.523-1.523-1.523h-21.187c-.84 0-1.523.683-1.523 1.523v8.147c0 .84.683 1.523 1.523 1.523h21.187z"/><path d="M415.271 78.431h21.187c1.896 0 3.438 1.542 3.438 3.438v8.147c0 1.896-1.542 3.438-3.438 3.438h-21.187c-1.896 0-3.438-1.542-3.438-3.438v-8.147c0-1.896 1.542-3.438 3.438-3.438zm21.188 13.108c.84 0 1.523-.683 1.523-1.523v-8.147c0-.84-.683-1.523-1.523-1.523h-21.187c-.84 0-1.523.683-1.523 1.523v8.147c0 .84.683 1.523 1.523 1.523h21.187z"/><use href="#w"/><path d="M467.595 78.431h21.187c1.896 0 3.438 1.542 3.438 3.438v8.147c0 1.896-1.542 3.438-3.438 3.438h-21.187c-1.896 0-3.438-1.542-3.438-3.438v-8.147c0-1.896 1.542-3.438 3.438-3.438zm21.187 13.108c.84 0 1.523-.683 1.523-1.523v-8.147c0-.84-.683-1.523-1.523-1.523h-21.187c-.84 0-1.523.683-1.523 1.523v8.147c0 .84.683 1.523 1.523 1.523h21.187z"/><use href="#x"/><path d="M519.895 78.431h21.187c1.896 0 3.438 1.542 3.438 3.438v8.147c0 1.896-1.542 3.438-3.438 3.438h-21.187c-1.896 0-3.438-1.542-3.438-3.438v-8.147c0-1.896 1.542-3.438 3.438-3.438zm21.188 13.108c.84 0 1.523-.683 1.523-1.523v-8.147c0-.84-.683-1.523-1.523-1.523h-21.187c-.84 0-1.523.683-1.523 1.523v8.147c0 .84.683 1.523 1.523 1.523h21.187z"/><use href="#y"/><path d="M428.328 91.539h21.187c1.896 0 3.438 1.542 3.438 3.438v8.147c0 1.896-1.542 3.438-3.438 3.438h-21.187c-1.896 0-3.438-1.542-3.438-3.438v-8.147c0-1.896 1.542-3.438 3.438-3.438zm21.187 13.108c.84 0 1.523-.683 1.523-1.523v-8.147c0-.84-.683-1.523-1.523-1.523h-21.187c-.84 0-1.523.683-1.523 1.523v8.147c0 .84.683 1.523 1.523 1.523h21.187z"/><path d="M454.503 91.539h21.187c1.896 0 3.438 1.542 3.438 3.438v8.147c0 1.896-1.542 3.438-3.438 3.438h-21.187c-1.896 0-3.438-1.542-3.438-3.438v-8.147c0-1.896 1.542-3.438 3.438-3.438zm21.188 13.108c.84 0 1.523-.683 1.523-1.523v-8.147c0-.84-.683-1.523-1.523-1.523h-21.187c-.84 0-1.523.683-1.523 1.523v8.147c0 .84.683 1.523 1.523 1.523h21.187z"/><path d="M480.651 91.539h21.187c1.896 0 3.438 1.542 3.438 3.438v8.147c0 1.896-1.542 3.438-3.438 3.438h-21.187c-1.895 0-3.437-1.542-3.437-3.438v-8.147c0-1.896 1.542-3.438 3.437-3.438zm21.188 13.108c.84 0 1.523-.683 1.523-1.523v-8.147c0-.84-.683-1.523-1.523-1.523h-21.187c-.84 0-1.523.683-1.523 1.523v8.147c0 .84.683 1.523 1.523 1.523h21.187z"/><path d="M506.804 91.539h21.187c1.896 0 3.438 1.542 3.438 3.438v8.147c0 1.896-1.542 3.438-3.438 3.438h-21.187c-1.896 0-3.438-1.542-3.438-3.438v-8.147c0-1.896 1.542-3.438 3.438-3.438zm21.187 13.108c.84 0 1.523-.683 1.523-1.523v-8.147c0-.84-.683-1.523-1.523-1.523h-21.187c-.84 0-1.523.683-1.523 1.523v8.147c0 .84.683 1.523 1.523 1.523h21.187z"/><use href="#z"/><path d="M415.271 104.647h21.187c1.896 0 3.438 1.542 3.438 3.438v8.147c0 1.896-1.542 3.438-3.438 3.438h-21.187c-1.896 0-3.438-1.542-3.438-3.438v-8.147c0-1.896 1.542-3.438 3.438-3.438zm21.188 13.108c.84 0 1.523-.683 1.523-1.523v-8.147c0-.84-.683-1.523-1.523-1.523h-21.187c-.84 0-1.523.683-1.523 1.523v8.147c0 .84.683 1.523 1.523 1.523h21.187z"/><path d="M441.447 104.647h21.187c1.895 0 3.437 1.542 3.437 3.438v8.147c0 1.896-1.542 3.438-3.437 3.438h-21.187c-1.896 0-3.438-1.542-3.438-3.438v-8.147c0-1.896 1.542-3.438 3.438-3.438zm21.187 13.108c.84 0 1.523-.683 1.523-1.523v-8.147c0-.84-.683-1.523-1.523-1.523h-21.187c-.84 0-1.523.683-1.523 1.523v8.147c0 .84.683 1.523 1.523 1.523h21.187z"/><path d="M467.595 104.647h21.187c1.896 0 3.438 1.542 3.438 3.438v8.147c0 1.896-1.542 3.438-3.438 3.438h-21.187c-1.896 0-3.438-1.542-3.438-3.438v-8.147c0-1.896 1.542-3.438 3.438-3.438zm21.187 13.108c.84 0 1.523-.683 1.523-1.523v-8.147c0-.84-.683-1.523-1.523-1.523h-21.187c-.84 0-1.523.683-1.523 1.523v8.147c0 .84.683 1.523 1.523 1.523h21.187z"/><path d="M493.747 104.647h21.187c1.896 0 3.438 1.542 3.438 3.438v8.147c0 1.896-1.542 3.438-3.438 3.438h-21.187c-1.895 0-3.437-1.542-3.437-3.438v-8.147c0-1.896 1.542-3.438 3.437-3.438zm21.187 13.108c.84 0 1.523-.683 1.523-1.523v-8.147c0-.84-.683-1.523-1.523-1.523h-21.187c-.84 0-1.523.683-1.523 1.523v8.147c0 .84.683 1.523 1.523 1.523h21.187z"/><path d="M519.895 104.647h21.187c1.896 0 3.438 1.542 3.438 3.438v8.147c0 1.896-1.542 3.438-3.438 3.438h-21.187c-1.896 0-3.438-1.542-3.438-3.438v-8.147c0-1.896 1.542-3.438 3.438-3.438zm21.188 13.108c.84 0 1.523-.683 1.523-1.523v-8.147c0-.84-.683-1.523-1.523-1.523h-21.187c-.84 0-1.523.683-1.523 1.523v8.147c0 .84.683 1.523 1.523 1.523h21.187zm-138.903-.036h21.187c1.895 0 3.437 1.542 3.437 3.438v8.147c0 1.896-1.542 3.438-3.437 3.438H402.18c-1.896 0-3.438-1.542-3.438-3.438v-8.147c0-1.896 1.542-3.438 3.438-3.438zm21.187 13.108c.84 0 1.523-.683 1.523-1.523v-8.147c0-.84-.683-1.523-1.523-1.523H402.18c-.84 0-1.523.683-1.523 1.523v8.147c0 .84.683 1.523 1.523 1.523h21.187z"/><path d="M428.328 117.719h21.187c1.896 0 3.438 1.542 3.438 3.438v8.147c0 1.896-1.542 3.438-3.438 3.438h-21.187c-1.896 0-3.438-1.542-3.438-3.438v-8.147c0-1.896 1.542-3.438 3.438-3.438zm21.187 13.108c.84 0 1.523-.683 1.523-1.523v-8.147c0-.84-.683-1.523-1.523-1.523h-21.187c-.84 0-1.523.683-1.523 1.523v8.147c0 .84.683 1.523 1.523 1.523h21.187z"/><path d="M454.503 117.719h21.187c1.896 0 3.438 1.542 3.438 3.438v8.147c0 1.896-1.542 3.438-3.438 3.438h-21.187c-1.896 0-3.438-1.542-3.438-3.438v-8.147c0-1.896 1.542-3.438 3.438-3.438zm21.188 13.108c.84 0 1.523-.683 1.523-1.523v-8.147c0-.84-.683-1.523-1.523-1.523h-21.187c-.84 0-1.523.683-1.523 1.523v8.147c0 .84.683 1.523 1.523 1.523h21.187z"/><path d="M480.651 117.719h21.187c1.896 0 3.438 1.542 3.438 3.438v8.147c0 1.896-1.542 3.438-3.438 3.438h-21.187c-1.895 0-3.437-1.542-3.437-3.438v-8.147c0-1.896 1.542-3.438 3.437-3.438zm21.188 13.108c.84 0 1.523-.683 1.523-1.523v-8.147c0-.84-.683-1.523-1.523-1.523h-21.187c-.84 0-1.523.683-1.523 1.523v8.147c0 .84.683 1.523 1.523 1.523h21.187z"/><path d="M506.804 117.719h21.187c1.896 0 3.438 1.542 3.438 3.438v8.147c0 1.896-1.542 3.438-3.438 3.438h-21.187c-1.896 0-3.438-1.542-3.438-3.438v-8.147c0-1.896 1.542-3.438 3.438-3.438zm21.187 13.108c.84 0 1.523-.683 1.523-1.523v-8.147c0-.84-.683-1.523-1.523-1.523h-21.187c-.84 0-1.523.683-1.523 1.523v8.147c0 .84.683 1.523 1.523 1.523h21.187zm-138.867 0h21.187c1.896 0 3.438 1.542 3.438 3.438v8.147c0 1.896-1.542 3.438-3.438 3.438h-21.187c-1.896 0-3.438-1.542-3.438-3.438v-8.147c0-1.896 1.542-3.438 3.438-3.438zm21.186 13.109c.84 0 1.523-.683 1.523-1.523v-8.147c0-.84-.683-1.523-1.523-1.523h-21.187c-.84 0-1.523.683-1.523 1.523v8.147c0 .84.683 1.523 1.523 1.523h21.187z"/><path d="M415.271 130.827h21.187c1.896 0 3.438 1.542 3.438 3.438v8.147c0 1.896-1.542 3.438-3.438 3.438h-21.187c-1.896 0-3.438-1.542-3.438-3.438v-8.147c0-1.896 1.542-3.438 3.438-3.438zm21.188 13.109c.84 0 1.523-.683 1.523-1.523v-8.147c0-.84-.683-1.523-1.523-1.523h-21.187c-.84 0-1.523.683-1.523 1.523v8.147c0 .84.683 1.523 1.523 1.523h21.187z"/><use href="#AA"/><path d="M467.595 130.827h21.187c1.896 0 3.438 1.542 3.438 3.438v8.147c0 1.896-1.542 3.438-3.438 3.438h-21.187c-1.896 0-3.438-1.542-3.438-3.438v-8.147c0-1.896 1.542-3.438 3.438-3.438zm21.187 13.109c.84 0 1.523-.683 1.523-1.523v-8.147c0-.84-.683-1.523-1.523-1.523h-21.187c-.84 0-1.523.683-1.523 1.523v8.147c0 .84.683 1.523 1.523 1.523h21.187z"/><path d="M493.747 130.827h21.187c1.896 0 3.438 1.542 3.438 3.438v8.147c0 1.896-1.542 3.438-3.438 3.438h-21.187c-1.895 0-3.437-1.542-3.437-3.438v-8.147c0-1.896 1.542-3.438 3.437-3.438zm21.187 13.109c.84 0 1.523-.683 1.523-1.523v-8.147c0-.84-.683-1.523-1.523-1.523h-21.187c-.84 0-1.523.683-1.523 1.523v8.147c0 .84.683 1.523 1.523 1.523h21.187z"/><path d="M519.895 130.827h21.187c1.896 0 3.438 1.542 3.438 3.438v8.147c0 1.896-1.542 3.438-3.438 3.438h-21.187c-1.896 0-3.438-1.542-3.438-3.438v-8.147c0-1.896 1.542-3.438 3.438-3.438zm21.188 13.109c.84 0 1.523-.683 1.523-1.523v-8.147c0-.84-.683-1.523-1.523-1.523h-21.187c-.84 0-1.523.683-1.523 1.523v8.147c0 .84.683 1.523 1.523 1.523h21.187zM143.148 65.323h18.707c1.896 0 3.438 1.542 3.438 3.438v8.147c0 1.896-1.542 3.438-3.438 3.438h-21.187c-1.896 0-3.438-1.542-3.438-3.438v-5.667c0-3.263 2.655-5.918 5.918-5.918zm18.706 13.108c.84 0 1.523-.683 1.523-1.523v-8.147c0-.84-.683-1.523-1.523-1.523h-18.707a4.01 4.01 0 0 0-4.004 4.004v5.667c0 .84.683 1.523 1.523 1.523h21.187z"/><path d="M166.815 65.323h21.187c1.896 0 3.438 1.542 3.438 3.438v8.147c0 1.896-1.542 3.438-3.438 3.438h-21.187c-1.896 0-3.438-1.542-3.438-3.438v-8.147c0-1.896 1.542-3.438 3.438-3.438zm21.187 13.108c.84 0 1.523-.683 1.523-1.523v-8.147c0-.84-.683-1.523-1.523-1.523h-21.187c-.84 0-1.523.683-1.523 1.523v8.147c0 .84.683 1.523 1.523 1.523h21.187z"/><use href="#AB"/><path d="M219.139 65.323h21.187c1.896 0 3.438 1.542 3.438 3.438v8.147c0 1.896-1.542 3.438-3.438 3.438h-21.187c-1.896 0-3.438-1.542-3.438-3.438v-8.147c0-1.896 1.542-3.438 3.438-3.438zm21.186 13.108c.84 0 1.523-.683 1.523-1.523v-8.147c0-.84-.683-1.523-1.523-1.523h-21.187c-.84 0-1.523.683-1.523 1.523v8.147c0 .84.683 1.523 1.523 1.523h21.187z"/><path d="M245.291 65.323h21.187c1.896 0 3.438 1.542 3.438 3.438v8.147c0 1.896-1.542 3.438-3.438 3.438h-21.187c-1.896 0-3.438-1.542-3.438-3.438v-8.147c0-1.896 1.542-3.438 3.438-3.438zm21.187 13.108c.84 0 1.523-.683 1.523-1.523v-8.147c0-.84-.683-1.523-1.523-1.523h-21.187c-.84 0-1.523.683-1.523 1.523v8.147c0 .84.683 1.523 1.523 1.523h21.187z"/><path d="M271.439 65.323h21.187c1.896 0 3.438 1.542 3.438 3.438v8.147c0 1.896-1.542 3.438-3.438 3.438h-21.187c-1.895 0-3.437-1.542-3.437-3.438v-8.147c0-1.896 1.542-3.438 3.437-3.438zm21.187 13.108c.84 0 1.523-.683 1.523-1.523v-8.147c0-.84-.683-1.523-1.523-1.523h-21.187c-.84 0-1.523.683-1.523 1.523v8.147c0 .84.683 1.523 1.523 1.523h21.187z"/><path d="M297.614 65.323h21.187c1.896 0 3.438 1.542 3.438 3.438v8.147c0 1.896-1.542 3.438-3.438 3.438h-21.187c-1.896 0-3.438-1.542-3.438-3.438v-8.147c0-1.896 1.542-3.438 3.438-3.438zm21.188 13.108c.84 0 1.523-.683 1.523-1.523v-8.147c0-.84-.683-1.523-1.523-1.523h-21.187c-.84 0-1.523.683-1.523 1.523v8.147c0 .84.683 1.523 1.523 1.523h21.187z"/><path d="M323.762 65.323h21.187c1.896 0 3.438 1.542 3.438 3.438v8.147c0 1.896-1.542 3.438-3.438 3.438h-21.187c-1.895 0-3.437-1.542-3.437-3.438v-8.147c0-1.896 1.542-3.438 3.437-3.438zm21.187 13.108c.84 0 1.523-.683 1.523-1.523v-8.147c0-.84-.683-1.523-1.523-1.523h-21.187c-.84 0-1.523.683-1.523 1.523v8.147c0 .84.683 1.523 1.523 1.523h21.187z"/><use href="#AC"/><path d="M376.028 65.323h18.707c3.263 0 5.918 2.655 5.918 5.918v5.667c0 1.896-1.542 3.438-3.438 3.438h-21.187c-1.896 0-3.438-1.542-3.438-3.438v-8.147c0-1.896 1.542-3.438 3.438-3.438zm21.187 13.108c.84 0 1.523-.683 1.523-1.523v-5.667a4.01 4.01 0 0 0-4.004-4.004h-18.707c-.84 0-1.523.683-1.523 1.523v8.147c0 .84.683 1.523 1.523 1.523h21.187z"/><use href="#AD"/><path d="M153.758 78.431h21.187c1.896 0 3.438 1.542 3.438 3.438v8.147c0 1.896-1.542 3.438-3.438 3.438h-21.187c-1.895 0-3.437-1.542-3.437-3.438v-8.147c0-1.896 1.542-3.438 3.437-3.438zm21.188 13.108c.84 0 1.523-.683 1.523-1.523v-8.147c0-.84-.683-1.523-1.523-1.523h-21.187c-.84 0-1.523.683-1.523 1.523v8.147c0 .84.683 1.523 1.523 1.523h21.187z"/><use href="#AE"/><path d="M179.934 78.431h21.187c1.896 0 3.438 1.542 3.438 3.438v8.147c0 1.896-1.542 3.438-3.438 3.438h-21.187c-1.896 0-3.438-1.542-3.438-3.438v-8.147c0-1.896 1.542-3.438 3.438-3.438zm21.187 13.108c.84 0 1.523-.683 1.523-1.523v-8.147c0-.84-.683-1.523-1.523-1.523h-21.187c-.84 0-1.523.683-1.523 1.523v8.147c0 .84.683 1.523 1.523 1.523h21.187z"/><path d="M206.082 78.431h21.187c1.896 0 3.438 1.542 3.438 3.438v8.147c0 1.896-1.542 3.438-3.438 3.438h-21.187c-1.896 0-3.438-1.542-3.438-3.438v-8.147c0-1.896 1.542-3.438 3.438-3.438zm21.187 13.108c.84 0 1.523-.683 1.523-1.523v-8.147c0-.84-.683-1.523-1.523-1.523h-21.187c-.84 0-1.523.683-1.523 1.523v8.147c0 .84.683 1.523 1.523 1.523h21.187z"/><use href="#AF"/><path d="M258.382,78.431h21.187c1.896,0,3.438,1.542,3.438,3.438v8.147c0,1.896-1.542,3.438-3.438,3.438h-21.187c-1.896,0-3.438-1.542-3.438-3.438v-8.147c0-1.896,1.542-3.438,3.438-3.438ZM279.57,91.539c.84,0,1.523-.683,1.523-1.523v-8.147c0-.84-.683-1.523-1.523-1.523h-21.187c-.84,0-1.523.683-1.523,1.523v8.147c0,.84.683,1.523,1.523,1.523h21.187Z"/><path d="M284.558 78.431h21.187c1.895 0 3.437 1.542 3.437 3.438v8.147c0 1.896-1.542 3.438-3.437 3.438h-21.187c-1.896 0-3.438-1.542-3.438-3.438v-8.147c0-1.896 1.542-3.438 3.438-3.438zm21.187 13.108c.84 0 1.523-.683 1.523-1.523v-8.147c0-.84-.683-1.523-1.523-1.523h-21.187c-.84 0-1.523.683-1.523 1.523v8.147c0 .84.683 1.523 1.523 1.523h21.187z"/><path d="M310.705 78.431h21.187c1.896 0 3.438 1.542 3.438 3.438v8.147c0 1.896-1.542 3.438-3.438 3.438h-21.187c-1.896 0-3.438-1.542-3.438-3.438v-8.147c0-1.896 1.542-3.438 3.438-3.438zm21.188 13.108c.84 0 1.523-.683 1.523-1.523v-8.147c0-.84-.683-1.523-1.523-1.523h-21.187c-.84 0-1.523.683-1.523 1.523v8.147c0 .84.683 1.523 1.523 1.523h21.187z"/><path d="M336.823,78.431h21.187c1.896,0,3.438,1.542,3.438,3.438v8.147c0,1.896-1.542,3.438-3.438,3.438h-21.187c-1.896,0-3.438-1.542-3.438-3.438v-8.147c0-1.896,1.542-3.438,3.438-3.438ZM358.01,91.539c.84,0,1.523-.683,1.523-1.523v-8.147c0-.84-.683-1.523-1.523-1.523h-21.187c-.84,0-1.523.683-1.523,1.523v8.147c0,.84.683,1.523,1.523,1.523h21.187Z"/><path d="M362.971 78.431h21.187c1.895 0 3.437 1.542 3.437 3.438v8.147c0 1.896-1.542 3.438-3.437 3.438h-21.187c-1.896 0-3.438-1.542-3.438-3.438v-8.147c0-1.896 1.542-3.438 3.438-3.438zm21.188 13.108c.84 0 1.523-.683 1.523-1.523v-8.147c0-.84-.683-1.523-1.523-1.523h-21.187c-.84 0-1.523.683-1.523 1.523v8.147c0 .84.683 1.523 1.523 1.523h21.187zm-243.492 0h21.187c1.896 0 3.438 1.542 3.438 3.438v8.147c0 1.896-1.542 3.438-3.438 3.438h-21.187c-1.896 0-3.438-1.542-3.438-3.438v-8.147c0-1.896 1.542-3.438 3.438-3.438zm21.187 13.108c.84 0 1.523-.683 1.523-1.523v-8.147c0-.84-.683-1.523-1.523-1.523h-21.187c-.84 0-1.523.683-1.523 1.523v8.147c0 .84.683 1.523 1.523 1.523h21.187z"/><path d="M166.815 91.539h21.187c1.896 0 3.438 1.542 3.438 3.438v8.147c0 1.896-1.542 3.438-3.438 3.438h-21.187c-1.896 0-3.438-1.542-3.438-3.438v-8.147c0-1.896 1.542-3.438 3.438-3.438zm21.187 13.108c.84 0 1.523-.683 1.523-1.523v-8.147c0-.84-.683-1.523-1.523-1.523h-21.187c-.84 0-1.523.683-1.523 1.523v8.147c0 .84.683 1.523 1.523 1.523h21.187z"/><path d="M192.99 91.539h21.187c1.896 0 3.438 1.542 3.438 3.438v8.147c0 1.896-1.542 3.438-3.438 3.438H192.99c-1.896 0-3.438-1.542-3.438-3.438v-8.147c0-1.896 1.542-3.438 3.438-3.438zm21.188 13.108c.84 0 1.523-.683 1.523-1.523v-8.147c0-.84-.683-1.523-1.523-1.523h-21.187c-.84 0-1.523.683-1.523 1.523v8.147c0 .84.683 1.523 1.523 1.523h21.187z"/><path d="M219.139 91.539h21.187c1.896 0 3.438 1.542 3.438 3.438v8.147c0 1.896-1.542 3.438-3.438 3.438h-21.187c-1.896 0-3.438-1.542-3.438-3.438v-8.147c0-1.896 1.542-3.438 3.438-3.438zm21.186 13.108c.84 0 1.523-.683 1.523-1.523v-8.147c0-.84-.683-1.523-1.523-1.523h-21.187c-.84 0-1.523.683-1.523 1.523v8.147c0 .84.683 1.523 1.523 1.523h21.187z"/><path d="M245.291 91.539h21.187c1.896 0 3.438 1.542 3.438 3.438v8.147c0 1.896-1.542 3.438-3.438 3.438h-21.187c-1.896 0-3.438-1.542-3.438-3.438v-8.147c0-1.896 1.542-3.438 3.438-3.438zm21.187 13.108c.84 0 1.523-.683 1.523-1.523v-8.147c0-.84-.683-1.523-1.523-1.523h-21.187c-.84 0-1.523.683-1.523 1.523v8.147c0 .84.683 1.523 1.523 1.523h21.187z"/><path d="M271.439 91.539h21.187c1.896 0 3.438 1.542 3.438 3.438v8.147c0 1.896-1.542 3.438-3.438 3.438h-21.187c-1.895 0-3.437-1.542-3.437-3.438v-8.147c0-1.896 1.542-3.438 3.437-3.438zm21.187 13.108c.84 0 1.523-.683 1.523-1.523v-8.147c0-.84-.683-1.523-1.523-1.523h-21.187c-.84 0-1.523.683-1.523 1.523v8.147c0 .84.683 1.523 1.523 1.523h21.187z"/><path d="M297.614 91.539h21.187c1.896 0 3.438 1.542 3.438 3.438v8.147c0 1.896-1.542 3.438-3.438 3.438h-21.187c-1.896 0-3.438-1.542-3.438-3.438v-8.147c0-1.896 1.542-3.438 3.438-3.438zm21.188 13.108c.84 0 1.523-.683 1.523-1.523v-8.147c0-.84-.683-1.523-1.523-1.523h-21.187c-.84 0-1.523.683-1.523 1.523v8.147c0 .84.683 1.523 1.523 1.523h21.187z"/><path d="M323.762 91.539h21.187c1.896 0 3.438 1.542 3.438 3.438v8.147c0 1.896-1.542 3.438-3.438 3.438h-21.187c-1.895 0-3.437-1.542-3.437-3.438v-8.147c0-1.896 1.542-3.438 3.437-3.438zm21.187 13.108c.84 0 1.523-.683 1.523-1.523v-8.147c0-.84-.683-1.523-1.523-1.523h-21.187c-.84 0-1.523.683-1.523 1.523v8.147c0 .84.683 1.523 1.523 1.523h21.187z"/><path d="M349.879 91.539h21.187c1.896 0 3.438 1.542 3.438 3.438v8.147c0 1.896-1.542 3.438-3.438 3.438h-21.187c-1.896 0-3.438-1.542-3.438-3.438v-8.147c0-1.896 1.542-3.438 3.438-3.438zm21.188 13.108c.84 0 1.523-.683 1.523-1.523v-8.147c0-.84-.683-1.523-1.523-1.523H349.88c-.84 0-1.523.683-1.523 1.523v8.147c0 .84.683 1.523 1.523 1.523h21.187z"/><path d="M376.028 91.539h21.187c1.896 0 3.438 1.542 3.438 3.438v8.147c0 1.896-1.542 3.438-3.438 3.438h-21.187c-1.896 0-3.438-1.542-3.438-3.438v-8.147c0-1.896 1.542-3.438 3.438-3.438zm21.187 13.108c.84 0 1.523-.683 1.523-1.523v-8.147c0-.84-.683-1.523-1.523-1.523h-21.187c-.84 0-1.523.683-1.523 1.523v8.147c0 .84.683 1.523 1.523 1.523h21.187zm-269.605 0h21.187c1.896 0 3.438 1.542 3.438 3.438v8.147c0 1.896-1.542 3.438-3.438 3.438H127.61c-1.896 0-3.438-1.542-3.438-3.438v-8.147c0-1.896 1.542-3.438 3.438-3.438zm21.188 13.108c.84 0 1.523-.683 1.523-1.523v-8.147c0-.84-.683-1.523-1.523-1.523h-21.187c-.84 0-1.523.683-1.523 1.523v8.147c0 .84.683 1.523 1.523 1.523h21.187z"/><path d="M153.758 104.647h21.187c1.896 0 3.438 1.542 3.438 3.438v8.147c0 1.896-1.542 3.438-3.438 3.438h-21.187c-1.895 0-3.437-1.542-3.437-3.438v-8.147c0-1.896 1.542-3.438 3.437-3.438zm21.188 13.108c.84 0 1.523-.683 1.523-1.523v-8.147c0-.84-.683-1.523-1.523-1.523h-21.187c-.84 0-1.523.683-1.523 1.523v8.147c0 .84.683 1.523 1.523 1.523h21.187zm214.173-13.108h21.187c1.896 0 3.438 1.542 3.438 3.438v8.147c0 1.896-1.542 3.438-3.438 3.438h-21.187c-1.896 0-3.438-1.542-3.438-3.438v-8.147c0-1.896 1.542-3.438 3.438-3.438zm21.188 13.108c.84 0 1.523-.683 1.523-1.523v-8.147c0-.84-.683-1.523-1.523-1.523H389.12c-.84 0-1.523.683-1.523 1.523v8.147c0 .84.683 1.523 1.523 1.523h21.187z"/><path d="M179.934 104.647h21.187c1.896 0 3.438 1.542 3.438 3.438v8.147c0 1.896-1.542 3.438-3.438 3.438h-21.187c-1.896 0-3.438-1.542-3.438-3.438v-8.147c0-1.896 1.542-3.438 3.438-3.438zm21.187 13.108c.84 0 1.523-.683 1.523-1.523v-8.147c0-.84-.683-1.523-1.523-1.523h-21.187c-.84 0-1.523.683-1.523 1.523v8.147c0 .84.683 1.523 1.523 1.523h21.187z"/><path d="M206.082 104.647h21.187c1.896 0 3.438 1.542 3.438 3.438v8.147c0 1.896-1.542 3.438-3.438 3.438h-21.187c-1.896 0-3.438-1.542-3.438-3.438v-8.147c0-1.896 1.542-3.438 3.438-3.438zm21.187 13.108c.84 0 1.523-.683 1.523-1.523v-8.147c0-.84-.683-1.523-1.523-1.523h-21.187c-.84 0-1.523.683-1.523 1.523v8.147c0 .84.683 1.523 1.523 1.523h21.187z"/><path d="M232.234 104.647h21.187c1.895 0 3.437 1.542 3.437 3.438v8.147c0 1.896-1.542 3.438-3.437 3.438h-21.187c-1.896 0-3.438-1.542-3.438-3.438v-8.147c0-1.896 1.542-3.438 3.438-3.438zm21.188 13.108c.84 0 1.523-.683 1.523-1.523v-8.147c0-.84-.683-1.523-1.523-1.523h-21.187c-.84 0-1.523.683-1.523 1.523v8.147c0 .84.683 1.523 1.523 1.523h21.187z"/><path d="M258.382 104.647h21.187c1.896 0 3.438 1.542 3.438 3.438v8.147c0 1.896-1.542 3.438-3.438 3.438h-21.187c-1.896 0-3.438-1.542-3.438-3.438v-8.147c0-1.896 1.542-3.438 3.438-3.438zm21.188 13.108c.84 0 1.523-.683 1.523-1.523v-8.147c0-.84-.683-1.523-1.523-1.523h-21.187c-.84 0-1.523.683-1.523 1.523v8.147c0 .84.683 1.523 1.523 1.523h21.187z"/><path d="M284.558 104.647h21.187c1.895 0 3.437 1.542 3.437 3.438v8.147c0 1.896-1.542 3.438-3.437 3.438h-21.187c-1.896 0-3.438-1.542-3.438-3.438v-8.147c0-1.896 1.542-3.438 3.438-3.438zm21.187 13.108c.84 0 1.523-.683 1.523-1.523v-8.147c0-.84-.683-1.523-1.523-1.523h-21.187c-.84 0-1.523.683-1.523 1.523v8.147c0 .84.683 1.523 1.523 1.523h21.187z"/><path d="M310.705 104.647h21.187c1.896 0 3.438 1.542 3.438 3.438v8.147c0 1.896-1.542 3.438-3.438 3.438h-21.187c-1.896 0-3.438-1.542-3.438-3.438v-8.147c0-1.896 1.542-3.438 3.438-3.438zm21.188 13.108c.84 0 1.523-.683 1.523-1.523v-8.147c0-.84-.683-1.523-1.523-1.523h-21.187c-.84 0-1.523.683-1.523 1.523v8.147c0 .84.683 1.523 1.523 1.523h21.187z"/><path d="M336.823 104.647h21.187c1.896 0 3.438 1.542 3.438 3.438v8.147c0 1.896-1.542 3.438-3.438 3.438h-21.187c-1.896 0-3.438-1.542-3.438-3.438v-8.147c0-1.896 1.542-3.438 3.438-3.438zm21.187 13.108c.84 0 1.523-.683 1.523-1.523v-8.147c0-.84-.683-1.523-1.523-1.523h-21.187c-.84 0-1.523.683-1.523 1.523v8.147c0 .84.683 1.523 1.523 1.523h21.187z"/><path d="M362.971 104.647h21.187c1.895 0 3.437 1.542 3.437 3.438v8.147c0 1.896-1.542 3.438-3.437 3.438h-21.187c-1.896 0-3.438-1.542-3.438-3.438v-8.147c0-1.896 1.542-3.438 3.438-3.438zm21.188 13.108c.84 0 1.523-.683 1.523-1.523v-8.147c0-.84-.683-1.523-1.523-1.523h-21.187c-.84 0-1.523.683-1.523 1.523v8.147c0 .84.683 1.523 1.523 1.523h21.187zm-243.492-.036h21.187c1.896 0 3.438 1.542 3.438 3.438v8.147c0 1.896-1.542 3.438-3.438 3.438h-21.187c-1.896 0-3.438-1.542-3.438-3.438v-8.147c0-1.896 1.542-3.438 3.438-3.438zm21.187 13.108c.84 0 1.523-.683 1.523-1.523v-8.147c0-.84-.683-1.523-1.523-1.523h-21.187c-.84 0-1.523.683-1.523 1.523v8.147c0 .84.683 1.523 1.523 1.523h21.187z"/><path d="M166.815 117.719h21.187c1.896 0 3.438 1.542 3.438 3.438v8.147c0 1.896-1.542 3.438-3.438 3.438h-21.187c-1.896 0-3.438-1.542-3.438-3.438v-8.147c0-1.896 1.542-3.438 3.438-3.438zm21.187 13.108c.84 0 1.523-.683 1.523-1.523v-8.147c0-.84-.683-1.523-1.523-1.523h-21.187c-.84 0-1.523.683-1.523 1.523v8.147c0 .84.683 1.523 1.523 1.523h21.187z"/><path d="M192.99 117.719h21.187c1.896 0 3.438 1.542 3.438 3.438v8.147c0 1.896-1.542 3.438-3.438 3.438H192.99c-1.896 0-3.438-1.542-3.438-3.438v-8.147c0-1.896 1.542-3.438 3.438-3.438zm21.188 13.108c.84 0 1.523-.683 1.523-1.523v-8.147c0-.84-.683-1.523-1.523-1.523h-21.187c-.84 0-1.523.683-1.523 1.523v8.147c0 .84.683 1.523 1.523 1.523h21.187z"/><path d="M219.139 117.719h21.187c1.896 0 3.438 1.542 3.438 3.438v8.147c0 1.896-1.542 3.438-3.438 3.438h-21.187c-1.896 0-3.438-1.542-3.438-3.438v-8.147c0-1.896 1.542-3.438 3.438-3.438zm21.186 13.108c.84 0 1.523-.683 1.523-1.523v-8.147c0-.84-.683-1.523-1.523-1.523h-21.187c-.84 0-1.523.683-1.523 1.523v8.147c0 .84.683 1.523 1.523 1.523h21.187z"/><path d="M245.291 117.719h21.187c1.896 0 3.438 1.542 3.438 3.438v8.147c0 1.896-1.542 3.438-3.438 3.438h-21.187c-1.896 0-3.438-1.542-3.438-3.438v-8.147c0-1.896 1.542-3.438 3.438-3.438zm21.187 13.108c.84 0 1.523-.683 1.523-1.523v-8.147c0-.84-.683-1.523-1.523-1.523h-21.187c-.84 0-1.523.683-1.523 1.523v8.147c0 .84.683 1.523 1.523 1.523h21.187z"/><path d="M271.439 117.719h21.187c1.896 0 3.438 1.542 3.438 3.438v8.147c0 1.896-1.542 3.438-3.438 3.438h-21.187c-1.895 0-3.437-1.542-3.437-3.438v-8.147c0-1.896 1.542-3.438 3.437-3.438zm21.187 13.108c.84 0 1.523-.683 1.523-1.523v-8.147c0-.84-.683-1.523-1.523-1.523h-21.187c-.84 0-1.523.683-1.523 1.523v8.147c0 .84.683 1.523 1.523 1.523h21.187z"/><path d="M297.614 117.719h21.187c1.896 0 3.438 1.542 3.438 3.438v8.147c0 1.896-1.542 3.438-3.438 3.438h-21.187c-1.896 0-3.438-1.542-3.438-3.438v-8.147c0-1.896 1.542-3.438 3.438-3.438zm21.188 13.108c.84 0 1.523-.683 1.523-1.523v-8.147c0-.84-.683-1.523-1.523-1.523h-21.187c-.84 0-1.523.683-1.523 1.523v8.147c0 .84.683 1.523 1.523 1.523h21.187z"/><path d="M323.762 117.719h21.187c1.896 0 3.438 1.542 3.438 3.438v8.147c0 1.896-1.542 3.438-3.438 3.438h-21.187c-1.895 0-3.437-1.542-3.437-3.438v-8.147c0-1.896 1.542-3.438 3.437-3.438zm21.187 13.108c.84 0 1.523-.683 1.523-1.523v-8.147c0-.84-.683-1.523-1.523-1.523h-21.187c-.84 0-1.523.683-1.523 1.523v8.147c0 .84.683 1.523 1.523 1.523h21.187z"/><path d="M349.879 117.719h21.187c1.896 0 3.438 1.542 3.438 3.438v8.147c0 1.896-1.542 3.438-3.438 3.438h-21.187c-1.896 0-3.438-1.542-3.438-3.438v-8.147c0-1.896 1.542-3.438 3.438-3.438zm21.188 13.108c.84 0 1.523-.683 1.523-1.523v-8.147c0-.84-.683-1.523-1.523-1.523H349.88c-.84 0-1.523.683-1.523 1.523v8.147c0 .84.683 1.523 1.523 1.523h21.187z"/><path d="M376.028 117.719h21.187c1.896 0 3.438 1.542 3.438 3.438v8.147c0 1.896-1.542 3.438-3.438 3.438h-21.187c-1.896 0-3.438-1.542-3.438-3.438v-8.147c0-1.896 1.542-3.438 3.438-3.438zm21.187 13.108c.84 0 1.523-.683 1.523-1.523v-8.147c0-.84-.683-1.523-1.523-1.523h-21.187c-.84 0-1.523.683-1.523 1.523v8.147c0 .84.683 1.523 1.523 1.523h21.187zm-269.605 0h21.187c1.896 0 3.438 1.542 3.438 3.438v8.147c0 1.896-1.542 3.438-3.438 3.438H127.61c-1.896 0-3.438-1.542-3.438-3.438v-8.147c0-1.896 1.542-3.438 3.438-3.438zm21.188 13.109c.84 0 1.523-.683 1.523-1.523v-8.147c0-.84-.683-1.523-1.523-1.523h-21.187c-.84 0-1.523.683-1.523 1.523v8.147c0 .84.683 1.523 1.523 1.523h21.187z"/><path d="M153.758 130.827h21.187c1.896 0 3.438 1.542 3.438 3.438v8.147c0 1.896-1.542 3.438-3.438 3.438h-21.187c-1.895 0-3.437-1.542-3.437-3.438v-8.147c0-1.896 1.542-3.438 3.437-3.438zm21.188 13.109c.84 0 1.523-.683 1.523-1.523v-8.147c0-.84-.683-1.523-1.523-1.523h-21.187c-.84 0-1.523.683-1.523 1.523v8.147c0 .84.683 1.523 1.523 1.523h21.187zm214.173-13.109h21.187c1.896 0 3.438 1.542 3.438 3.438v8.147c0 1.896-1.542 3.438-3.438 3.438h-21.187c-1.896 0-3.438-1.542-3.438-3.438v-8.147c0-1.896 1.542-3.438 3.438-3.438zm21.188 13.109c.84 0 1.523-.683 1.523-1.523v-8.147c0-.84-.683-1.523-1.523-1.523H389.12c-.84 0-1.523.683-1.523 1.523v8.147c0 .84.683 1.523 1.523 1.523h21.187z"/><path d="M179.934 130.827h21.187c1.896 0 3.438 1.542 3.438 3.438v8.147c0 1.896-1.542 3.438-3.438 3.438h-21.187c-1.896 0-3.438-1.542-3.438-3.438v-8.147c0-1.896 1.542-3.438 3.438-3.438zm21.187 13.109c.84 0 1.523-.683 1.523-1.523v-8.147c0-.84-.683-1.523-1.523-1.523h-21.187c-.84 0-1.523.683-1.523 1.523v8.147c0 .84.683 1.523 1.523 1.523h21.187z"/><path d="M206.082 130.827h21.187c1.896 0 3.438 1.542 3.438 3.438v8.147c0 1.896-1.542 3.438-3.438 3.438h-21.187c-1.896 0-3.438-1.542-3.438-3.438v-8.147c0-1.896 1.542-3.438 3.438-3.438zm21.187 13.109c.84 0 1.523-.683 1.523-1.523v-8.147c0-.84-.683-1.523-1.523-1.523h-21.187c-.84 0-1.523.683-1.523 1.523v8.147c0 .84.683 1.523 1.523 1.523h21.187z"/><use href="#AG"/><path d="M258.382 130.827h21.187c1.896 0 3.438 1.542 3.438 3.438v8.147c0 1.896-1.542 3.438-3.438 3.438h-21.187c-1.896 0-3.438-1.542-3.438-3.438v-8.147c0-1.896 1.542-3.438 3.438-3.438zm21.188 13.109c.84 0 1.523-.683 1.523-1.523v-8.147c0-.84-.683-1.523-1.523-1.523h-21.187c-.84 0-1.523.683-1.523 1.523v8.147c0 .84.683 1.523 1.523 1.523h21.187z"/><path d="M284.558 130.827h21.187c1.895 0 3.437 1.542 3.437 3.438v8.147c0 1.896-1.542 3.438-3.437 3.438h-21.187c-1.896 0-3.438-1.542-3.438-3.438v-8.147c0-1.896 1.542-3.438 3.438-3.438zm21.187 13.109c.84 0 1.523-.683 1.523-1.523v-8.147c0-.84-.683-1.523-1.523-1.523h-21.187c-.84 0-1.523.683-1.523 1.523v8.147c0 .84.683 1.523 1.523 1.523h21.187z"/><path d="M310.705 130.827h21.187c1.896 0 3.438 1.542 3.438 3.438v8.147c0 1.896-1.542 3.438-3.438 3.438h-21.187c-1.896 0-3.438-1.542-3.438-3.438v-8.147c0-1.896 1.542-3.438 3.438-3.438zm21.188 13.109c.84 0 1.523-.683 1.523-1.523v-8.147c0-.84-.683-1.523-1.523-1.523h-21.187c-.84 0-1.523.683-1.523 1.523v8.147c0 .84.683 1.523 1.523 1.523h21.187z"/><path d="M336.823 130.827h21.187c1.896 0 3.438 1.542 3.438 3.438v8.147c0 1.896-1.542 3.438-3.438 3.438h-21.187c-1.896 0-3.438-1.542-3.438-3.438v-8.147c0-1.896 1.542-3.438 3.438-3.438zm21.187 13.109c.84 0 1.523-.683 1.523-1.523v-8.147c0-.84-.683-1.523-1.523-1.523h-21.187c-.84 0-1.523.683-1.523 1.523v8.147c0 .84.683 1.523 1.523 1.523h21.187z"/><path d="M362.971 130.827h21.187c1.895 0 3.437 1.542 3.437 3.438v8.147c0 1.896-1.542 3.438-3.437 3.438h-21.187c-1.896 0-3.438-1.542-3.438-3.438v-8.147c0-1.896 1.542-3.438 3.438-3.438zm21.188 13.109c.84 0 1.523-.683 1.523-1.523v-8.147c0-.84-.683-1.523-1.523-1.523h-21.187c-.84 0-1.523.683-1.523 1.523v8.147c0 .84.683 1.523 1.523 1.523h21.187zM-16.263 65.323H4.924c1.896 0 3.438 1.542 3.438 3.438v8.147c0 1.896-1.542 3.438-3.438 3.438h-21.187c-1.896 0-3.438-1.542-3.438-3.438v-8.147c0-1.896 1.542-3.438 3.438-3.438zM4.924 78.431c.84 0 1.523-.683 1.523-1.523v-8.147c0-.84-.683-1.523-1.523-1.523h-21.187c-.84 0-1.523.683-1.523 1.523v8.147c0 .84.683 1.523 1.523 1.523H4.924z"/><path d="M9.885,65.323h21.187c1.896,0,3.438,1.542,3.438,3.438v8.147c0,1.896-1.542,3.438-3.438,3.438H9.885c-1.896,0-3.438-1.542-3.438-3.438v-8.147c0-1.896,1.542-3.438,3.438-3.438ZM31.073,78.431c.84,0,1.523-.683,1.523-1.523v-8.147c0-.84-.683-1.523-1.523-1.523H9.885c-.84,0-1.523.683-1.523,1.523v8.147c0,.84.683,1.523,1.523,1.523h21.187Z"/><use href="#AH"/><use href="#AI"/><use href="#AJ"/><path d="M114.474 65.323h18.707c3.263 0 5.918 2.655 5.918 5.918v5.667c0 1.896-1.542 3.438-3.438 3.438h-21.187c-1.896 0-3.438-1.542-3.438-3.438v-8.147c0-1.896 1.542-3.438 3.438-3.438zm21.187 13.108c.84 0 1.523-.683 1.523-1.523v-5.667a4.01 4.01 0 0 0-4.003-4.004h-18.707c-.84 0-1.523.683-1.523 1.523v8.147c0 .84.683 1.523 1.523 1.523h21.187z"/><path d="M127.566 78.431h21.187c1.896 0 3.438 1.542 3.438 3.438v8.147c0 1.896-1.542 3.438-3.438 3.438h-21.187c-1.896 0-3.438-1.542-3.438-3.438v-8.147c0-1.896 1.542-3.438 3.438-3.438zm21.187 13.108c.84 0 1.523-.683 1.523-1.523v-8.147c0-.84-.683-1.523-1.523-1.523h-21.187c-.84 0-1.523.683-1.523 1.523v8.147c0 .84.683 1.523 1.523 1.523h21.187zM-3.171 78.431h21.187c1.896 0 3.438 1.542 3.438 3.438v8.147c0 1.896-1.542 3.438-3.438 3.438H-3.171c-1.896 0-3.438-1.542-3.438-3.438v-8.147c0-1.896 1.542-3.438 3.438-3.438zm21.187 13.108c.84 0 1.523-.683 1.523-1.523v-8.147c0-.84-.683-1.523-1.523-1.523H-3.171c-.84 0-1.523.683-1.523 1.523v8.147c0 .84.683 1.523 1.523 1.523h21.187z"/><use href="#AK"/><use href="#AL"/><use href="#AM"/><path d="M101.418 78.431h21.187c1.896 0 3.438 1.542 3.438 3.438v8.147c0 1.896-1.542 3.438-3.438 3.438h-21.187c-1.896 0-3.438-1.542-3.438-3.438v-8.147c0-1.896 1.542-3.438 3.438-3.438zm21.187 13.108c.84 0 1.523-.683 1.523-1.523v-8.147c0-.84-.683-1.523-1.523-1.523h-21.187c-.84 0-1.523.683-1.523 1.523v8.147c0 .84.683 1.523 1.523 1.523h21.187zm-138.868 0H4.924c1.896 0 3.438 1.542 3.438 3.438v8.147c0 1.896-1.542 3.438-3.438 3.438h-21.187c-1.896 0-3.438-1.542-3.438-3.438v-8.147c0-1.896 1.542-3.438 3.438-3.438zm21.187 13.108c.84 0 1.523-.683 1.523-1.523v-8.147c0-.84-.683-1.523-1.523-1.523h-21.187c-.84 0-1.523.683-1.523 1.523v8.147c0 .84.683 1.523 1.523 1.523H4.924z"/><use href="#AN"/><path d="M36.06 91.539h21.187c1.896 0 3.438 1.542 3.438 3.438v8.147c0 1.896-1.542 3.438-3.438 3.438H36.06c-1.896 0-3.438-1.542-3.438-3.438v-8.147c0-1.896 1.542-3.438 3.438-3.438zm21.187 13.108c.84 0 1.523-.683 1.523-1.523v-8.147c0-.84-.683-1.523-1.523-1.523H36.06c-.84 0-1.523.683-1.523 1.523v8.147c0 .84.683 1.523 1.523 1.523h21.187z"/><path d="M62.208 91.539h21.187c1.896 0 3.438 1.542 3.438 3.438v8.147c0 1.896-1.542 3.438-3.438 3.438H62.208c-1.896 0-3.438-1.542-3.438-3.438v-8.147c0-1.896 1.542-3.438 3.438-3.438zm21.188 13.108c.84 0 1.523-.683 1.523-1.523v-8.147c0-.84-.683-1.523-1.523-1.523H62.209c-.84 0-1.523.683-1.523 1.523v8.147c0 .84.683 1.523 1.523 1.523h21.187z"/><path d="M88.326 91.539h21.187c1.896 0 3.438 1.542 3.438 3.438v8.147c0 1.896-1.542 3.438-3.438 3.438H88.326c-1.896 0-3.438-1.542-3.438-3.438v-8.147c0-1.896 1.542-3.438 3.438-3.438zm21.187 13.108c.84 0 1.523-.683 1.523-1.523v-8.147c0-.84-.683-1.523-1.523-1.523H88.326c-.84 0-1.523.683-1.523 1.523v8.147c0 .84.683 1.523 1.523 1.523h21.187z"/><path d="M114.474 91.539h21.187c1.896 0 3.438 1.542 3.438 3.438v8.147c0 1.896-1.542 3.438-3.438 3.438h-21.187c-1.896 0-3.438-1.542-3.438-3.438v-8.147c0-1.896 1.542-3.438 3.438-3.438zm21.187 13.108c.84 0 1.523-.683 1.523-1.523v-8.147c0-.84-.683-1.523-1.523-1.523h-21.187c-.84 0-1.523.683-1.523 1.523v8.147c0 .84.683 1.523 1.523 1.523h21.187z"/><path d="M127.566 104.647h21.187c1.896 0 3.438 1.542 3.438 3.438v8.147c0 1.896-1.542 3.438-3.438 3.438h-21.187c-1.896 0-3.438-1.542-3.438-3.438v-8.147c0-1.896 1.542-3.438 3.438-3.438zm21.187 13.108c.84 0 1.523-.683 1.523-1.523v-8.147c0-.84-.683-1.523-1.523-1.523h-21.187c-.84 0-1.523.683-1.523 1.523v8.147c0 .84.683 1.523 1.523 1.523h21.187zM-3.171 104.647h21.187c1.896 0 3.438 1.542 3.438 3.438v8.147c0 1.896-1.542 3.438-3.438 3.438H-3.171c-1.896 0-3.438-1.542-3.438-3.438v-8.147c0-1.896 1.542-3.438 3.438-3.438zm21.187 13.108c.84 0 1.523-.683 1.523-1.523v-8.147c0-.84-.683-1.523-1.523-1.523H-3.171c-.84 0-1.523.683-1.523 1.523v8.147c0 .84.683 1.523 1.523 1.523h21.187z"/><path d="M23.004 104.647h21.187c1.896 0 3.438 1.542 3.438 3.438v8.147c0 1.896-1.542 3.438-3.438 3.438H23.004c-1.896 0-3.438-1.542-3.438-3.438v-8.147c0-1.896 1.542-3.438 3.438-3.438zm21.187 13.108c.84 0 1.523-.683 1.523-1.523v-8.147c0-.84-.683-1.523-1.523-1.523H23.004c-.84 0-1.523.683-1.523 1.523v8.147c0 .84.683 1.523 1.523 1.523h21.187z"/><path d="M49.152 104.647h21.187c1.896 0 3.438 1.542 3.438 3.438v8.147c0 1.896-1.542 3.438-3.438 3.438H49.152c-1.896 0-3.438-1.542-3.438-3.438v-8.147c0-1.896 1.542-3.438 3.438-3.438zm21.187 13.108c.84 0 1.523-.683 1.523-1.523v-8.147c0-.84-.683-1.523-1.523-1.523H49.152c-.84 0-1.523.683-1.523 1.523v8.147c0 .84.683 1.523 1.523 1.523h21.187z"/><path d="M75.269 104.647h21.187c1.896 0 3.438 1.542 3.438 3.438v8.147c0 1.896-1.542 3.438-3.438 3.438H75.269c-1.896 0-3.438-1.542-3.438-3.438v-8.147c0-1.896 1.542-3.438 3.438-3.438zm21.188 13.108c.84 0 1.523-.683 1.523-1.523v-8.147c0-.84-.683-1.523-1.523-1.523H75.27c-.84 0-1.523.683-1.523 1.523v8.147c0 .84.683 1.523 1.523 1.523h21.187z"/><path d="M101.418 104.647h21.187c1.896 0 3.438 1.542 3.438 3.438v8.147c0 1.896-1.542 3.438-3.438 3.438h-21.187c-1.896 0-3.438-1.542-3.438-3.438v-8.147c0-1.896 1.542-3.438 3.438-3.438zm21.187 13.108c.84 0 1.523-.683 1.523-1.523v-8.147c0-.84-.683-1.523-1.523-1.523h-21.187c-.84 0-1.523.683-1.523 1.523v8.147c0 .84.683 1.523 1.523 1.523h21.187zm-138.868-.036H4.924c1.896 0 3.438 1.542 3.438 3.438v8.147c0 1.896-1.542 3.438-3.438 3.438h-21.187c-1.896 0-3.438-1.542-3.438-3.438v-8.147c0-1.896 1.542-3.438 3.438-3.438zm21.187 13.108c.84 0 1.523-.683 1.523-1.523v-8.147c0-.84-.683-1.523-1.523-1.523h-21.187c-.84 0-1.523.683-1.523 1.523v8.147c0 .84.683 1.523 1.523 1.523H4.924z"/><path d="M9.885 117.719h21.187c1.896 0 3.438 1.542 3.438 3.438v8.147c0 1.896-1.542 3.438-3.438 3.438H9.885c-1.896 0-3.438-1.542-3.438-3.438v-8.147c0-1.896 1.542-3.438 3.438-3.438zm21.188 13.108c.84 0 1.523-.683 1.523-1.523v-8.147c0-.84-.683-1.523-1.523-1.523H9.885c-.84 0-1.523.683-1.523 1.523v8.147c0 .84.683 1.523 1.523 1.523h21.187z"/><path d="M36.06 117.719h21.187c1.896 0 3.438 1.542 3.438 3.438v8.147c0 1.896-1.542 3.438-3.438 3.438H36.06c-1.896 0-3.438-1.542-3.438-3.438v-8.147c0-1.896 1.542-3.438 3.438-3.438zm21.187 13.108c.84 0 1.523-.683 1.523-1.523v-8.147c0-.84-.683-1.523-1.523-1.523H36.06c-.84 0-1.523.683-1.523 1.523v8.147c0 .84.683 1.523 1.523 1.523h21.187z"/><path d="M62.208 117.719h21.187c1.896 0 3.438 1.542 3.438 3.438v8.147c0 1.896-1.542 3.438-3.438 3.438H62.208c-1.896 0-3.438-1.542-3.438-3.438v-8.147c0-1.896 1.542-3.438 3.438-3.438zm21.188 13.108c.84 0 1.523-.683 1.523-1.523v-8.147c0-.84-.683-1.523-1.523-1.523H62.209c-.84 0-1.523.683-1.523 1.523v8.147c0 .84.683 1.523 1.523 1.523h21.187z"/><path d="M88.326 117.719h21.187c1.896 0 3.438 1.542 3.438 3.438v8.147c0 1.896-1.542 3.438-3.438 3.438H88.326c-1.896 0-3.438-1.542-3.438-3.438v-8.147c0-1.896 1.542-3.438 3.438-3.438zm21.187 13.108c.84 0 1.523-.683 1.523-1.523v-8.147c0-.84-.683-1.523-1.523-1.523H88.326c-.84 0-1.523.683-1.523 1.523v8.147c0 .84.683 1.523 1.523 1.523h21.187z"/><path d="M114.474 117.719h21.187c1.896 0 3.438 1.542 3.438 3.438v8.147c0 1.896-1.542 3.438-3.438 3.438h-21.187c-1.896 0-3.438-1.542-3.438-3.438v-8.147c0-1.896 1.542-3.438 3.438-3.438zm21.187 13.108c.84 0 1.523-.683 1.523-1.523v-8.147c0-.84-.683-1.523-1.523-1.523h-21.187c-.84 0-1.523.683-1.523 1.523v8.147c0 .84.683 1.523 1.523 1.523h21.187z"/><path d="M127.566 130.827h21.187c1.896 0 3.438 1.542 3.438 3.438v8.147c0 1.896-1.542 3.438-3.438 3.438h-21.187c-1.896 0-3.438-1.542-3.438-3.438v-8.147c0-1.896 1.542-3.438 3.438-3.438zm21.187 13.109c.84 0 1.523-.683 1.523-1.523v-8.147c0-.84-.683-1.523-1.523-1.523h-21.187c-.84 0-1.523.683-1.523 1.523v8.147c0 .84.683 1.523 1.523 1.523h21.187zM-3.171 130.827h21.187c1.896 0 3.438 1.542 3.438 3.438v8.147c0 1.896-1.542 3.438-3.438 3.438H-3.171c-1.896 0-3.438-1.542-3.438-3.438v-8.147c0-1.896 1.542-3.438 3.438-3.438zm21.187 13.109c.84 0 1.523-.683 1.523-1.523v-8.147c0-.84-.683-1.523-1.523-1.523H-3.171c-.84 0-1.523.683-1.523 1.523v8.147c0 .84.683 1.523 1.523 1.523h21.187z"/><path d="M23.004 130.827h21.187c1.896 0 3.438 1.542 3.438 3.438v8.147c0 1.896-1.542 3.438-3.438 3.438H23.004c-1.896 0-3.438-1.542-3.438-3.438v-8.147c0-1.896 1.542-3.438 3.438-3.438zm21.187 13.109c.84 0 1.523-.683 1.523-1.523v-8.147c0-.84-.683-1.523-1.523-1.523H23.004c-.84 0-1.523.683-1.523 1.523v8.147c0 .84.683 1.523 1.523 1.523h21.187z"/><path d="M49.152 130.827h21.187c1.896 0 3.438 1.542 3.438 3.438v8.147c0 1.896-1.542 3.438-3.438 3.438H49.152c-1.896 0-3.438-1.542-3.438-3.438v-8.147c0-1.896 1.542-3.438 3.438-3.438zm21.187 13.109c.84 0 1.523-.683 1.523-1.523v-8.147c0-.84-.683-1.523-1.523-1.523H49.152c-.84 0-1.523.683-1.523 1.523v8.147c0 .84.683 1.523 1.523 1.523h21.187z"/><path d="M75.269 130.827h21.187c1.896 0 3.438 1.542 3.438 3.438v8.147c0 1.896-1.542 3.438-3.438 3.438H75.269c-1.896 0-3.438-1.542-3.438-3.438v-8.147c0-1.896 1.542-3.438 3.438-3.438zm21.188 13.109c.84 0 1.523-.683 1.523-1.523v-8.147c0-.84-.683-1.523-1.523-1.523H75.27c-.84 0-1.523.683-1.523 1.523v8.147c0 .84.683 1.523 1.523 1.523h21.187z"/><path d="M101.418 130.827h21.187c1.896 0 3.438 1.542 3.438 3.438v8.147c0 1.896-1.542 3.438-3.438 3.438h-21.187c-1.896 0-3.438-1.542-3.438-3.438v-8.147c0-1.896 1.542-3.438 3.438-3.438zm21.187 13.109c.84 0 1.523-.683 1.523-1.523v-8.147c0-.84-.683-1.523-1.523-1.523h-21.187c-.84 0-1.523.683-1.523 1.523v8.147c0 .84.683 1.523 1.523 1.523h21.187z"/></g></g><path d="M1042.131 2.256h58.308v20.183h-58.308z" fill="#f4c042"/><g fill="#bd3c6f"><path d="M1063.644-5.883h6.084V.708h-6.084zm-1.055 4.36h-1.892c-1.091 0-2.015.818-2.139 1.907l-1.345 11.833h-2.258v1.526h5.721v-.008h.178l1.734-15.257z"/></g><path d="M1079.347 2.301c.526 0 1.022-.252 1.328-.679.313-.419.397-.969.237-1.473l-3.502-10.856-3.944.039 3.181 9.154h-7.247v3.815h9.947z" fill="#de588b"/><path d="M1074.624-1.509h-3.048l-9.707-.007h-1.168a2.16 2.16 0 0 0-2.14 1.91l-.39 3.429h3.291l-.699 9.175c-.039.486.131.968.461 1.323.333.361.798.563 1.285.563h8.425c.487 0 .953-.202 1.285-.563a1.75 1.75 0 0 0 .461-1.323l-.808-10.624h2.752v-3.883z" fill="#5fc9a4"/><path d="M1075.602 10.108l-.209-.361a2.08 2.08 0 0 0-2.84-.762l-8.768 5.062V6.482a2.08 2.08 0 0 0-2.08-2.079h-.417a2.08 2.08 0 0 0-2.081 2.079v9.845c-1.239.056-2.223 1.071-2.223 2.316v.344h6.692v2h.343c1.29 0 2.327-1.039 2.327-2.329v-.806l8.494-4.904a2.08 2.08 0 0 0 .76-2.84z" fill="#de588b"/><path d="M1101.887 93.893c-.106 2.061-1.798 3.706-3.885 3.706h-6.502v16.477h51.676V93.893h-41.289z" fill="#5fc9a4"/><path d="M1101.887 93.893c.003-.067.02-.131.02-.198a3.91 3.91 0 0 0-3.905-3.905h-18.175a3.91 3.91 0 0 0-3.905 3.905 3.91 3.91 0 0 0 3.905 3.905h11.673v-3.706h10.387z" fill="#f8e37e"/><path d="M1101.887 93.893H1091.5v3.706h6.502c2.087 0 3.78-1.645 3.885-3.706z" fill="#53b78d"/><path d="M1095.187 84.419v-.578c-.059-3.154-2.765-5.704-5.759-5.76-2.592-.016-4.746 1.582-5.563 3.864-.279.783-.338 1.62-.347 2.474h-4.813l3.27 8.178c.477 1.186 1.622 1.962 2.9 1.962h8.954c1.278 0 2.429-.776 2.9-1.962l3.27-8.178h-4.814zm-9.126-.502c.014-2.545 2.993-3.995 4.951-2.854 1.191.693 1.512 1.983 1.601 3.357h-6.552v-.502z" fill="#e59734"/><path d="M1118.043 85.766h6.557v6.689h-6.557z" fill="#7d4b82"/><path d="M1122.112 74.774c0-.771-.31-1.511-.855-2.057a2.92 2.92 0 0 0-2.062-.855h0c-.776 0-1.516.309-2.062.855a2.91 2.91 0 0 0-.855 2.057v10.99h5.834v-10.99z" fill="#0c1c1c"/><path d="M1117.138 90.545h-1.938a2.15 2.15 0 0 0-2.139 1.909l-1.363 11.995h-2.284v1.544h5.79v-.008h.18l1.754-15.439z" fill="#7d4b82"/><g fill="#975c9e"><path d="M1134.128 94.414c.525 0 1.019-.255 1.328-.679s.394-.972.232-1.467l-3.127-9.72a1.86 1.86 0 0 0-1.791-1.281h-.039c-.602 0-1.158.301-1.505.787a1.85 1.85 0 0 0-.232 1.676l2.37 6.824h-7.334v3.86h10.098z"/><path d="M1126.927 78.199h-11.21c-1.457 0-2.641 1.183-2.641 2.641v.137c-.131-.02-.262-.04-.398-.04a2.65 2.65 0 1 0 0 5.302c.139 0 .272-.02.406-.041a2.64 2.64 0 0 0 2.634 2.566h11.21c1.457 0 2.641-1.183 2.641-2.641v-5.284c0-1.458-1.185-2.641-2.641-2.641z"/></g><g fill="#0c1c1c"><path d="M1118.306 83.077c0-.257-.204-.461-.456-.461h-.918a.46.46 0 0 0-.461.461v3.011a.46.46 0 0 0 .461.462h.918c.252 0 .456-.205.456-.462v-3.011zm8.391 0c0-.257-.205-.461-.456-.461h-.918a.46.46 0 0 0-.461.461v3.011a.46.46 0 0 0 .461.462h.918c.252 0 .456-.205.456-.462v-3.011zm-.138-6.776h-12.168c-1.246 0-2.259 1.007-2.259 2.258v2.374h11.922a2.49 2.49 0 0 0 1.774-.735c.466-.469.731-1.106.731-1.766v-2.13z"/><path d="M1122.896 76.3h5.517v2.282h-5.517z"/><path d="M1126.568 76.301h1.939a2.26 2.26 0 0 1 1.597.66c.423.423.661 1.002.661 1.598v2.374h-1.695a2.5 2.5 0 0 1-2.502-2.501v-2.13z"/></g><path d="M1126.233 90.552h-9.824l-1.12 14.709c-.036.487.132.968.461 1.322s.798.564 1.286.564h8.569a1.75 1.75 0 0 0 1.286-.564 1.74 1.74 0 0 0 .461-1.322l-1.12-14.709z" fill="#e59734"/><g fill="#975c9e"><path d="M1124.602 90.551a3.28 3.28 0 0 1-3.279 3.279 3.28 3.28 0 0 1-3.279-3.279h6.557zm7.163 18.456l-5.112-5.113a2.08 2.08 0 0 0-2.942-.002l-.334.334a2.08 2.08 0 0 0 .001 2.943l4.764 4.763-5.635 5.702.007.007-.141.038 1.751 6.536.365-.098c.597-.16 1.1-.55 1.411-1.087.306-.527.391-1.168.232-1.76l-.272-1.017 5.904-5.905a3.77 3.77 0 0 0 1.106-2.673c0-1.001-.396-1.961-1.106-2.671zm-13.247 11.247l5.903-5.903a3.77 3.77 0 0 0 1.106-2.673c.001-1.001-.396-1.961-1.105-2.671l-5.112-5.113a2.08 2.08 0 0 0-2.942-.002l-.334.334a2.08 2.08 0 0 0 0 2.943l4.764 4.763-5.634 5.702.008.008-.139.037 1.751 6.536.365-.098c.597-.16 1.1-.55 1.411-1.087a2.33 2.33 0 0 0 .232-1.76l-.273-1.019z"/></g></g></svg>