<svg xmlns="http://www.w3.org/2000/svg" width="1500" height="145" xmlns:v="https://vecta.io/nano"><style><![CDATA[.B{fill-rule:evenodd}.C{fill:#fff}.D{fill:none}.E{fill:#bee23b}.F{opacity:.598}.G{clip-rule:evenodd}.H{opacity:.678}.I{stroke-linecap:round}.J{stroke-linejoin:round}.K{stroke-width:10}.L{fill:#dcebf1}.M{stroke-miterlimit:1.5}.N{fill:#cf622b}.O{fill:#d1e2e9}.P{stroke-dasharray:0 10.243}.Q{fill:#394319}.R{fill:#86a426}.S{opacity:.371}.T{fill:#8eb029}.U{stroke:#dcebf1}.V{fill:#89e4e2}.W{fill:#99bb31}.X{fill:#afd33d}.Y{fill:#dff8f5}.Z{stroke:#ebf5f7}.a{stroke-width:2.329}.b{fill:#d9f3f2}.c{fill:#9fe3e0}.d{stroke:#eefaf9}.e{fill:#cdf4f0}.f{fill:#e3c252}.g{fill:#d1f4f0}]]></style><defs><clipPath id="A"><path d="M0 0h1500v145H0z" class="D"/></clipPath><clipPath id="B"><path d="M301.646-12.507a4.06 4.06 0 0 1 3.431-1.894c1.386 0 2.676.714 3.431 1.894l22.427 35.302c0 10.472-11.584 18.982-25.858 18.982s-25.858-8.51-25.858-18.982l22.427-35.302z" class="D G"/></clipPath><clipPath id="C"><path d="M302.236-20.619a4.08 4.08 0 0 1 3.418-1.853c1.373 0 2.663.7 3.404 1.853l18.31 28.356c0 8.661-9.731 15.702-21.713 15.702-11.996 0-21.727-7.041-21.727-15.702l18.31-28.356z" class="D G"/></clipPath><clipPath id="D"><path d="M237.207 51.931a4.06 4.06 0 0 1 3.431-1.894c1.386 0 2.676.714 3.431 1.894l22.427 35.302c0 10.472-11.584 18.982-25.858 18.982s-25.858-8.51-25.858-18.982l22.427-35.302z" class="D G"/></clipPath><clipPath id="E"><path d="M237.797 43.82a4.08 4.08 0 0 1 3.418-1.853c1.373 0 2.663.7 3.404 1.853l18.31 28.356c0 8.661-9.731 15.702-21.713 15.702-11.996 0-21.727-7.041-21.727-15.702l18.31-28.356z" class="D G"/></clipPath><clipPath id="F"><path d="M237.427 35.296c.714-1.07 1.921-1.716 3.212-1.716s2.498.645 3.212 1.716l13.478 20.245c0 3.761-2.539 7.11-6.492 9.251-2.814 1.523-6.355 2.443-10.198 2.443-9.21 0-16.69-5.243-16.69-11.694l13.478-20.245z" class="D G"/></clipPath><clipPath id="G"><path d="M103.635 43.914a4.06 4.06 0 0 1 3.431-1.894c1.386 0 2.676.714 3.431 1.894l22.427 35.302c0 10.472-11.584 18.982-25.858 18.982s-25.858-8.51-25.858-18.982l22.427-35.302z" class="D G"/></clipPath><clipPath id="H"><path d="M104.225 35.802a4.08 4.08 0 0 1 3.418-1.853c1.373 0 2.663.7 3.404 1.853l18.31 28.356c0 8.661-9.731 15.702-21.713 15.702-11.996 0-21.727-7.041-21.727-15.702l18.31-28.356z" class="D G"/></clipPath><clipPath id="I"><path d="M103.855 27.279c.714-1.07 1.921-1.716 3.212-1.716s2.498.645 3.212 1.716l13.478 20.245c0 3.761-2.539 7.11-6.492 9.251-2.814 1.523-6.355 2.443-10.198 2.443-9.21 0-16.69-5.243-16.69-11.694l13.478-20.245z" class="D G"/></clipPath><clipPath id="J"><path d="M537.988 118.804c-.647-1.12-2.079-1.504-3.2-.857l-7.689 4.439c-1.12.647-1.504 2.079-.857 3.2l6.776 11.737 12.274-5.866-7.305-12.652z" class="D G"/></clipPath><clipPath id="K"><path d="M1024.924 63.795a4.13 4.13 0 0 1 3.492-1.927 4.15 4.15 0 0 1 3.492 1.927l22.821 35.921c0 10.656-11.787 19.315-26.312 19.315s-26.312-8.659-26.312-19.315l22.821-35.921z" class="D G"/></clipPath><clipPath id="L"><path d="M1025.524 55.542a4.15 4.15 0 0 1 3.478-1.886c1.397 0 2.709.712 3.464 1.886l18.631 28.854c0 8.813-9.902 15.977-22.095 15.977-12.207 0-22.109-7.165-22.109-15.977l18.631-28.854z" class="D G"/></clipPath><clipPath id="M"><path d="M1025.147 46.868a3.93 3.93 0 0 1 6.536 0l13.715 20.6c0 3.827-2.584 7.235-6.606 9.413-2.863 1.55-6.466 2.486-10.377 2.486-9.371 0-16.983-5.335-16.983-11.899l13.715-20.6z" class="D G"/></clipPath><clipPath id="N"><path d="M992.591-29.437a4.13 4.13 0 0 1 3.492-1.927 4.15 4.15 0 0 1 3.492 1.927l22.821 35.921c0 10.656-11.787 19.315-26.312 19.315s-26.312-8.659-26.312-19.315l22.821-35.921z" class="D G"/></clipPath><clipPath id="O"><path d="M993.191-37.691a4.15 4.15 0 0 1 3.478-1.886c1.397 0 2.709.712 3.464 1.886l18.631 28.854c0 8.813-9.902 15.977-22.095 15.977-12.207 0-22.109-7.165-22.109-15.977l18.631-28.854z" class="D G"/></clipPath><path id="P" d="M281.552 19.116c.673-1.071 2.1-1.373 3.157-.7 1.07.686 1.386 2.114.7 3.171l-4.914 7.672c-.673 1.071-2.1 1.386-3.157.7a2.29 2.29 0 0 1-.7-3.171l4.914-7.672z"/><path id="Q" d="M301.646-12.507a4.06 4.06 0 0 1 3.431-1.894c1.386 0 2.676.714 3.431 1.894l22.427 35.302c0 10.472-11.584 18.982-25.858 18.982s-25.858-8.51-25.858-18.982l22.427-35.302z"/><path id="R" d="M302.579-28.154c.769-.906 1.894-1.414 3.075-1.414a4.02 4.02 0 0 1 3.074 1.414c6.849 7.988 22.784 27.602 22.784 37.182 0 10.486-11.584 18.996-25.858 18.996s-25.872-8.51-25.872-18.996c0-9.58 15.935-29.194 22.798-37.182z"/><path id="S" d="M313.943 37.412c-.137-1.263-1.276-2.169-2.525-2.045-1.263.137-2.182 1.277-2.045 2.526l.425 3.925c.137 1.249 1.263 2.169 2.526 2.031s2.169-1.263 2.031-2.525l-.412-3.912z"/><path id="T" d="M303.361 28.024c0-1.263 1.029-2.292 2.292-2.292s2.292 1.029 2.292 2.292v2.292c0 1.263-1.029 2.292-2.292 2.292s-2.292-1.029-2.292-2.292v-2.292z"/><path id="U" d="M295.428 32.334c.151-1.249 1.304-2.141 2.553-1.99 1.263.151 2.155 1.304 1.99 2.553l-.275 2.278a2.29 2.29 0 0 1-2.567 1.99c-1.249-.151-2.141-1.304-1.99-2.553l.288-2.278z"/><path id="V" d="M315.714 32.334c-.151-1.249-1.304-2.141-2.553-1.99a2.3 2.3 0 0 0-2.004 2.553l.288 2.278c.151 1.263 1.304 2.155 2.553 1.99a2.3 2.3 0 0 0 2.004-2.553l-.288-2.278z"/><path id="W" d="M320.394 24.263c-.384-1.208-1.675-1.88-2.882-1.496s-1.88 1.674-1.496 2.882l.961 3.061c.384 1.208 1.674 1.88 2.882 1.496s1.88-1.661 1.496-2.869l-.961-3.074z"/><path id="X" d="M283.762 18.91c.631-1.098 2.031-1.469 3.129-.837s1.469 2.031.837 3.129l-2.073 3.596c-.631 1.098-2.031 1.469-3.129.837s-1.469-2.031-.837-3.129l2.073-3.596z"/><path id="Y" d="M326.022 18.787c-.631-1.098-2.031-1.469-3.129-.837s-1.469 2.031-.837 3.129l2.073 3.596c.631 1.098 2.045 1.469 3.143.837a2.3 2.3 0 0 0 .837-3.129l-2.086-3.596z"/><path id="Z" d="M302.236-20.619a4.08 4.08 0 0 1 3.418-1.853c1.373 0 2.663.7 3.404 1.853l18.31 28.356c0 8.661-9.731 15.702-21.713 15.702-11.996 0-21.727-7.041-21.727-15.702l18.31-28.356z"/><path id="a" d="M302.593-38.503c.769-.892 1.88-1.4 3.061-1.4a4.05 4.05 0 0 1 3.061 1.4c5.984 6.918 18.653 22.482 18.653 30.182 0 8.674-9.731 15.702-21.713 15.702-11.996 0-21.727-7.027-21.727-15.702 0-7.7 12.668-23.264 18.666-30.182z"/><path id="b" d="M302.236-44.748c.727-1.18 2.018-1.894 3.418-1.894a4.04 4.04 0 0 1 3.418 1.894c6.121 9.388 18.296 29.317 18.296 39.296 0 11.433-9.731 20.725-21.713 20.725-11.996 0-21.727-9.292-21.727-20.725 0-9.978 12.188-29.907 18.31-39.296z"/><path id="c" d="M317.361 5.555c-.631-1.098-.261-2.512.837-3.143a2.3 2.3 0 0 1 3.129.837l2.292 3.98c.645 1.098.261 2.498-.837 3.129a2.29 2.29 0 0 1-3.129-.837l-2.292-3.967z"/><path id="d" d="M311.926 13.928c-.426-1.194.22-2.498 1.414-2.923 1.194-.412 2.498.233 2.91 1.427l.755 2.169a2.29 2.29 0 0 1-1.414 2.91c-1.194.412-2.512-.219-2.923-1.414l-.741-2.169z"/><path id="e" d="M302.14 11.965a2.3 2.3 0 0 1 2.306-2.292c1.263 0 2.292 1.029 2.292 2.292v2.292c0 1.277-1.029 2.292-2.292 2.292a2.29 2.29 0 0 1-2.306-2.292v-2.292z"/><path id="f" d="M289.526 2.481a2.32 2.32 0 0 1 3.143-.837c1.098.631 1.469 2.045.837 3.143l-1.99 3.431c-.631 1.098-2.031 1.469-3.129.837s-1.469-2.031-.837-3.129l1.977-3.445z"/><path id="g" d="M301.865-29.142c.714-1.07 1.921-1.716 3.212-1.716s2.498.645 3.212 1.716l13.478 20.245c0 3.761-2.539 7.11-6.492 9.251-2.814 1.523-6.355 2.443-10.198 2.443-9.21 0-16.69-5.243-16.69-11.694l13.478-20.245z"/><path id="h" d="M307.946 2.618c0-1.276-1.029-2.292-2.292-2.292s-2.292 1.016-2.292 2.292v.178c0 1.263 1.029 2.292 2.292 2.292s2.292-1.029 2.292-2.292v-.178z"/><path id="i" d="M290.418-2.995c.481-1.167 1.826-1.743 2.992-1.263a2.29 2.29 0 0 1 1.263 2.992l-.069.165c-.48 1.167-1.812 1.743-2.978 1.263a2.29 2.29 0 0 1-1.263-2.992l.055-.165z"/><path id="j" d="M329.206 8.287c-.686-1.071-2.1-1.373-3.17-.7a2.29 2.29 0 0 0-.686 3.171l.096.151a2.29 2.29 0 0 0 3.171.7 2.3 2.3 0 0 0 .686-3.171l-.096-.151z"/><path id="k" d="M321.74 18.347a2.3 2.3 0 0 0-3.171-.686c-1.07.686-1.373 2.1-.686 3.171l.096.151c.673 1.057 2.1 1.373 3.17.686a2.3 2.3 0 0 0 .686-3.17l-.096-.151z"/><path id="l" d="M289.114 18.347a2.3 2.3 0 0 1 3.17-.686 2.3 2.3 0 0 1 .686 3.171l-.096.151a2.3 2.3 0 0 1-3.17.686c-1.071-.686-1.373-2.1-.686-3.17l.096-.151z"/><path id="m" d="M283.295 29.904c.714-1.043 2.141-1.318 3.184-.604a2.31 2.31 0 0 1 .604 3.198l-1.812 2.635a2.28 2.28 0 0 1-3.184.604c-1.043-.714-1.318-2.141-.604-3.184l1.812-2.649z"/><path id="n" d="M316.634 21.408c-.371-1.208-1.661-1.894-2.869-1.523s-1.894 1.661-1.51 2.869l.055.178a2.28 2.28 0 0 0 2.855 1.51c1.222-.371 1.894-1.661 1.523-2.869l-.055-.165z"/><path id="o" d="M289.622 37.604c.384-1.208 1.661-1.88 2.869-1.51s1.894 1.661 1.523 2.869l-.055.178c-.371 1.208-1.661 1.88-2.869 1.51s-1.894-1.661-1.51-2.869l.041-.178z"/><path id="p" d="M321.369 35.422a2.29 2.29 0 0 0-2.869-1.51c-1.208.371-1.88 1.661-1.51 2.869l.906 2.951c.384 1.208 1.661 1.894 2.869 1.523 1.222-.384 1.894-1.661 1.524-2.869l-.92-2.965z"/><path id="q" d="M310.663 23.604c-.137-1.263-1.276-2.169-2.525-2.031a2.29 2.29 0 0 0-2.045 2.525l.027.178c.137 1.249 1.263 2.169 2.525 2.031 1.249-.137 2.169-1.263 2.031-2.525l-.014-.178z"/><path id="r" d="M300.191 23.604c.137-1.263 1.263-2.169 2.526-2.031 1.263.123 2.169 1.263 2.031 2.525l-.014.178c-.137 1.249-1.263 2.169-2.525 2.031s-2.169-1.263-2.031-2.525l.014-.178z"/><path id="s" d="M295.606 39.814c.137-1.263 1.263-2.182 2.525-2.045s2.169 1.277 2.031 2.526l-.014.192c-.137 1.249-1.277 2.169-2.526 2.031-1.263-.137-2.169-1.277-2.045-2.526l.027-.178z"/><path id="t" d="M326.447 14.106c-.673-1.057-2.1-1.373-3.157-.686a2.29 2.29 0 0 0-.7 3.171l.096.151a2.29 2.29 0 0 0 3.171.686c1.071-.673 1.373-2.1.7-3.171l-.11-.151z"/><path id="u" d="M326.132 29.863a2.3 2.3 0 0 0-3.17-.686c-1.071.686-1.373 2.1-.7 3.171l2.745 4.255c.686 1.071 2.1 1.373 3.17.7 1.057-.686 1.373-2.114.686-3.171l-2.731-4.269z"/><path id="v" d="M315.028.916c-.206-1.249-1.386-2.1-2.635-1.894s-2.086 1.386-1.88 2.635l.027.178c.206 1.249 1.386 2.1 2.635 1.894s2.1-1.386 1.88-2.635l-.027-.178z"/><path id="w" d="M295.524.889c.206-1.249 1.386-2.1 2.635-1.894a2.29 2.29 0 0 1 1.88 2.649l-.027.178c-.206 1.249-1.386 2.086-2.635 1.88s-2.086-1.386-1.88-2.635l.027-.178z"/><path id="x" d="M239.897 44.918c-.343-1.222.371-2.484 1.592-2.827s2.484.371 2.827 1.592l.192.659c.329 1.221-.384 2.484-1.592 2.827-1.222.343-2.484-.371-2.827-1.592l-.192-.659z"/><path id="y" d="M245.236 49.983c-.535-1.153-.055-2.512 1.098-3.061 1.139-.535 2.512-.055 3.047 1.098l.988 2.073c.535 1.139.055 2.512-1.098 3.047a2.28 2.28 0 0 1-3.047-1.084l-.988-2.073z"/><path id="z" d="M237.701 53.469a2.3 2.3 0 0 1 2.306-2.292c1.263 0 2.292 1.029 2.292 2.292v2.292a2.3 2.3 0 0 1-2.292 2.306 2.3 2.3 0 0 1-2.306-2.306v-2.292z"/><path id="AA" d="M233.089 45.755a2.29 2.29 0 0 1 3.129-.837c1.098.645 1.469 2.045.837 3.143l-1.153 1.976c-.645 1.098-2.045 1.469-3.143.837-1.084-.645-1.469-2.045-.823-3.143l1.153-1.977z"/><path id="AB" d="M259.085 55.83c-.686-1.071-2.1-1.373-3.17-.7a2.29 2.29 0 0 0-.686 3.17l.096.151c.686 1.071 2.1 1.373 3.171.7 1.057-.686 1.373-2.114.686-3.17l-.096-.151z"/><path id="AC" d="M229.782 85.847c.371-1.208 1.647-1.894 2.869-1.523 1.208.37 1.881 1.661 1.51 2.869l-.055.178c-.371 1.208-1.661 1.88-2.869 1.51s-1.88-1.661-1.51-2.869l.055-.165z"/><path id="AD" d="M222.59 55.802c.686-1.071 2.1-1.373 3.171-.686 1.07.673 1.373 2.1.686 3.157l-.096.165a2.3 2.3 0 0 1-3.17.686 2.3 2.3 0 0 1-.686-3.17l.096-.151z"/><path id="AE" d="M911.658 58.466c0-3.007-2.438-5.445-5.445-5.445h-23.11c-3.007 0-5.445 2.438-5.445 5.445v18.055h34V58.466z"/><path id="AF" d="M836.869 90.047c0-2.361-1.914-4.276-4.276-4.276h-18.147c-2.361 0-4.276 1.914-4.276 4.276v14.178h26.699V90.047z"/><path id="AG" d="M205.672 17.821a3.14 3.14 0 0 0-3.14-3.14h-8.164a3.14 3.14 0 0 0 0 6.28h8.164a3.14 3.14 0 0 0 3.14-3.14z"/><path id="AH" d="M79.446 20.903a3.71 3.71 0 0 0-3.71-3.71h-.116a3.71 3.71 0 0 0-3.71 3.71v.06a3.77 3.77 0 0 0 1.103 2.663c.706.706 1.664 1.103 2.663 1.103h.005a3.77 3.77 0 0 0 2.663-1.103c.706-.706 1.103-1.664 1.103-2.663v-.06z"/><path id="AI" d="M1004.477 95.974c.684-1.089 2.137-1.397 3.212-.712 1.089.698 1.411 2.151.712 3.226l-5 7.807c-.684 1.089-2.137 1.411-3.212.712a2.33 2.33 0 0 1-.712-3.226l5-7.807z"/><path id="AJ" d="M1024.924 63.795a4.13 4.13 0 0 1 3.492-1.927 4.15 4.15 0 0 1 3.492 1.927l22.821 35.921c0 10.656-11.787 19.315-26.312 19.315s-26.312-8.659-26.312-19.315l22.821-35.921z"/><path id="AK" d="M1037.437 114.591c-.14-1.285-1.299-2.207-2.57-2.081-1.285.14-2.221 1.299-2.081 2.57l.433 3.994c.14 1.271 1.285 2.207 2.57 2.067s2.207-1.285 2.067-2.57l-.419-3.981z"/><path id="AL" d="M1018.597 109.423c.154-1.271 1.327-2.179 2.598-2.025 1.285.154 2.193 1.327 2.025 2.598l-.279 2.318a2.33 2.33 0 0 1-2.612 2.025c-1.271-.154-2.179-1.327-2.025-2.598l.293-2.318z"/><path id="AM" d="M1039.239 109.423c-.154-1.271-1.327-2.179-2.598-2.025a2.34 2.34 0 0 0-2.039 2.598l.293 2.318c.154 1.285 1.327 2.193 2.598 2.025a2.34 2.34 0 0 0 2.039-2.598l-.293-2.318z"/><path id="AN" d="M1012.494 100.164c.377-1.229 1.69-1.913 2.919-1.536a2.34 2.34 0 0 1 1.522 2.933l-.978 3.114a2.34 2.34 0 0 1-2.933 1.522c-1.229-.377-1.913-1.69-1.522-2.919l.992-3.114z"/><path id="AO" d="M1044.002 101.211a2.34 2.34 0 0 0-2.933-1.522 2.34 2.34 0 0 0-1.522 2.933l.978 3.114a2.34 2.34 0 0 0 2.933 1.522c1.229-.391 1.913-1.69 1.522-2.919l-.978-3.128z"/><path id="AP" d="M1006.726 95.764a2.33 2.33 0 1 1 4.036 2.332l-2.109 3.659a2.33 2.33 0 1 1-4.036-2.332l2.109-3.659z"/><path id="AQ" d="M1049.728 95.639a2.33 2.33 0 1 0-4.036 2.332l2.109 3.659c.642 1.117 2.081 1.494 3.198.852 1.103-.643 1.494-2.067.852-3.184l-2.123-3.659z"/><path id="AR" d="M1025.524 55.542a4.15 4.15 0 0 1 3.478-1.886c1.397 0 2.709.712 3.464 1.886l18.631 28.854c0 8.813-9.902 15.977-22.095 15.977-12.207 0-22.109-7.165-22.109-15.977l18.631-28.854z"/><path id="AS" d="M1035.384 90.694c-.433-1.215.224-2.542 1.439-2.975 1.215-.419 2.542.237 2.961 1.453l.768 2.207a2.33 2.33 0 0 1-1.438 2.961c-1.215.419-2.556-.223-2.975-1.438l-.754-2.207z"/><path id="AT" d="M1025.427 88.697a2.34 2.34 0 0 1 2.346-2.332c1.285 0 2.332 1.047 2.332 2.332v2.332c0 1.299-1.047 2.332-2.332 2.332a2.33 2.33 0 0 1-2.346-2.332v-2.332z"/><path id="AU" d="M1016.251 89.088a2.34 2.34 0 0 1 3.031-1.327c1.201.461 1.788 1.816 1.327 3.017l-.852 2.179c-.461 1.201-1.816 1.788-3.017 1.327-1.201-.475-1.802-1.816-1.327-3.017l.838-2.179z"/><path id="AV" d="M1045.37 95.192a2.34 2.34 0 0 0-3.226-.698c-1.089.698-1.397 2.137-.698 3.226l.098.154c.684 1.075 2.137 1.397 3.226.698a2.34 2.34 0 0 0 .698-3.226l-.098-.154z"/><path id="AW" d="M1012.173 95.192a2.34 2.34 0 0 1 3.226-.698 2.34 2.34 0 0 1 .698 3.226l-.098.154a2.34 2.34 0 0 1-3.226.698c-1.089-.698-1.397-2.137-.698-3.226l.098-.154z"/><path id="AX" d="M1006.251 106.951c.726-1.061 2.179-1.341 3.24-.614a2.35 2.35 0 0 1 .615 3.254l-1.844 2.682a2.32 2.32 0 0 1-3.24.614c-1.061-.726-1.341-2.179-.615-3.24l1.844-2.696z"/><path id="AY" d="M1040.175 98.306c-.377-1.229-1.69-1.927-2.919-1.55s-1.927 1.69-1.536 2.919l.056.182a2.32 2.32 0 0 0 2.905 1.536c1.243-.377 1.927-1.69 1.55-2.919l-.056-.168z"/><path id="AZ" d="M1017.368 98.306a2.34 2.34 0 0 1 2.919-1.55c1.229.377 1.914 1.69 1.536 2.919l-.056.182c-.377 1.229-1.69 1.913-2.919 1.536s-1.913-1.69-1.536-2.919l.056-.168z"/><path id="Aa" d="M1012.689 114.786c.391-1.229 1.69-1.913 2.919-1.536s1.927 1.69 1.55 2.919l-.056.182c-.377 1.229-1.69 1.913-2.919 1.536s-1.927-1.69-1.536-2.919l.042-.182z"/><path id="Ab" d="M1044.993 112.566a2.33 2.33 0 0 0-2.919-1.536c-1.229.377-1.913 1.69-1.536 2.919l.922 3.003c.391 1.229 1.69 1.927 2.919 1.55 1.243-.391 1.927-1.69 1.55-2.919l-.936-3.017z"/><path id="Ac" d="M1034.099 100.541c-.14-1.285-1.299-2.207-2.57-2.067a2.33 2.33 0 0 0-2.081 2.57l.028.182c.14 1.271 1.285 2.207 2.57 2.067 1.271-.14 2.207-1.285 2.067-2.57l-.014-.182z"/><path id="Ad" d="M1023.443 100.541c.14-1.285 1.285-2.207 2.57-2.067 1.285.126 2.207 1.285 2.067 2.57l-.014.182c-.14 1.271-1.285 2.207-2.57 2.067s-2.207-1.285-2.067-2.57l.014-.182z"/><path id="Ae" d="M1018.779 117.035c.14-1.285 1.285-2.221 2.57-2.081s2.207 1.299 2.067 2.57l-.014.195c-.14 1.271-1.299 2.207-2.57 2.067-1.285-.14-2.207-1.299-2.081-2.57l.028-.182z"/><path id="Af" d="M1050.161 90.876c-.684-1.075-2.137-1.397-3.212-.698a2.33 2.33 0 0 0-.712 3.226l.098.154a2.33 2.33 0 0 0 3.226.698c1.089-.684 1.397-2.137.712-3.226l-.112-.154z"/><path id="Ag" d="M1007.368 90.876a2.34 2.34 0 0 1 3.226-.698c1.089.698 1.397 2.137.698 3.226l-.098.154c-.698 1.089-2.137 1.397-3.226.698-1.075-.684-1.397-2.137-.698-3.226l.098-.154z"/><path id="Ah" d="M1049.839 106.909a2.34 2.34 0 0 0-3.226-.698c-1.089.698-1.397 2.137-.712 3.226l2.793 4.33c.698 1.089 2.137 1.397 3.226.712 1.075-.698 1.397-2.151.698-3.226l-2.779-4.343z"/><path id="Ai" d="M1368.095 24.999c0-3.846 3.118-6.964 6.964-6.964h228.25c3.846 0 6.964 3.118 6.964 6.964v137.339H1463.46l-26.351-43.918h-69.015V24.999z"/></defs><g clip-path="url(#A)"><path d="M-40.704-2015.384h1571.886v3937.779H-40.704z" fill="#5bd1d6"/><path d="M1277.623 638.364h8.205c32.154 0 58.22-26.066 58.22-58.22v-16.185c0-34.42 27.903-62.323 62.323-62.323h154.74v-1795.533h0-404.217c-17.488 0-31.666-14.177-31.666-31.666h0c0-17.489-14.177-31.666-31.666-31.666h-52.418c-22.776 0-41.239-18.463-41.239-41.239h0c0-22.776-18.463-41.239-41.239-41.239h-39.928c-22.776 0-41.239-18.463-41.239-41.239v-30.651c0-23.58-19.115-42.695-42.695-42.695H638.901c-27.867 0-50.458 22.591-50.458 50.458v.873c0 27.867-22.591 50.458-50.458 50.458H349.729c-27.867 0-50.458-22.591-50.458-50.458v-26.987c0-27.867-22.591-50.458-50.458-50.458H-77.456L-95.723 615.465c-.483 21.282 16.638 38.795 37.925 38.795h271.652c42.401 0 76.774 34.373 76.774 76.774h0c0 42.401 34.373 76.774 76.774 76.774h297.815c35.348 0 64.002-28.655 64.002-64.002h0c0-35.348 28.655-64.002 64.002-64.002h217.647c35.348 0 64.002 28.655 64.002 64.002v53.579c0 37.513 30.41 67.924 67.924 67.924h418.317v-92.906h0-283.489c-32.154 0-58.22-26.066-58.22-58.22v-17.597c0-32.154 26.066-58.22 58.22-58.22z" fill="#7ee5e3"/><path d="M984.015-1264.787c-74.904 0-135.625-60.721-135.625-135.625v-12.015c0-14.122-11.449-25.571-25.571-25.571h-9.435c-6.635 0-12.014-5.379-12.014-12.014h0c0-6.635-5.379-12.014-12.014-12.014h-20.754c-20.758 0-37.585-16.827-37.585-37.585h0c0-14.123-11.449-25.571-25.571-25.571h-66.544c-11.79 0-21.347 9.558-21.347 21.347v.874c0 43.944-35.624 79.568-79.568 79.568H349.731c-43.944 0-79.568-35.624-79.568-79.568v-26.987c0-11.79-9.558-21.347-21.347-21.347H-48.967L-66.62 616.125c-.073 3.231 1.542 5.378 2.512 6.37s3.079 2.656 6.311 2.656h271.651c58.316 0 105.772 47.388 105.884 105.678.05 26.328 21.336 47.87 47.664 47.87h297.814c19.245 0 34.906-15.581 34.892-34.826-.036-51.373 41.748-93.179 93.113-93.179h217.647c51.425 0 93.113 41.688 93.113 93.113v58.431c0 18.757 15.205 33.962 33.962 33.962h18.387c18.757 0 33.962-15.205 33.962-33.962V696.586c0-48.231 39.099-87.33 87.33-87.33h8.205c16.077 0 29.11-13.033 29.11-29.11v-16.185c0-50.416 41.017-91.432 91.433-91.432H1532v-1737.314H984.013z" fill="#ebf5f7"/><path d="M-49.048-1541.29L-66.619 616.124c-.073 3.231 1.542 5.378 2.512 6.37s3.079 2.656 6.311 2.656h271.65c58.316 0 105.772 47.388 105.884 105.678.05 26.328 21.336 47.87 47.664 47.87h297.814c19.245 0 34.906-15.581 34.892-34.826-.036-51.373 41.748-93.179 93.112-93.179h217.647c51.425 0 93.113 41.688 93.113 93.113v58.43c0 18.757 15.205 33.962 33.962 33.962h18.387c18.757 0 33.962-15.205 33.962-33.962V696.584c0-48.231 39.099-87.33 87.33-87.33h8.205c16.077 0 29.11-13.033 29.11-29.11v-16.185c0-50.416 41.017-91.432 91.433-91.432h120.627" stroke-dasharray="0 10.006" class="D I J K Z"/><path d="M1397.633-692.701c-38.673 0-70.023-31.35-70.023-70.023h0c0-38.673-31.351-70.023-70.023-70.023h-115.2c-38.673 0-70.023-31.35-70.023-70.023v-81.318c0-38.673-31.351-70.023-70.023-70.023h-92.612c-38.673 0-70.023-31.35-70.023-70.023v-55.27c0-44.183-35.817-80-80-80H244.318c-44.183 0-80 35.817-80 80v35.388c0 44.183-35.817 80-80 80H-21.696V323.769h95.662c34.93 0 63.247-28.317 63.247-63.247h0c0-34.93 28.317-63.247 63.247-63.247h90.353c34.93 0 63.247-28.317 63.247-63.247V32.38c0-34.93 28.317-63.247 63.247-63.247h98.122c41.867 0 75.807-33.94 75.807-75.807v-119.581c0-48.029 38.935-86.964 86.964-86.964h0c48.029 0 86.964 38.935 86.964 86.964v90.427c0 41.867 33.94 75.807 75.807 75.807h242.686c42.415 0 76.8-34.385 76.8-76.8h0c0-42.416 34.384-76.8 76.8-76.8h31.624c42.415 0 76.8-34.384 76.8-76.8v-74.541c0-42.415 34.384-76.8 76.8-76.8h95.863v-250.94h-120.71z" class="L"/><path d="M-11.688 323.768h85.654c34.93 0 63.247-28.317 63.247-63.247s28.317-63.247 63.247-63.247h90.353c34.93 0 63.247-28.317 63.247-63.247V32.381c0-34.93 28.317-63.247 63.247-63.247h98.122c41.867 0 75.807-33.94 75.807-75.807v-119.581c0-48.029 38.935-86.964 86.964-86.964h0c48.029 0 86.964 38.935 86.964 86.964v90.427c0 41.867 33.94 75.807 75.807 75.807h242.686c42.415 0 76.8-34.385 76.8-76.8h0c0-42.416 34.385-76.8 76.8-76.8h31.624c42.415 0 76.8-34.385 76.8-76.8v-74.541c0-42.415 34.384-76.8 76.8-76.8h90.86" stroke-dasharray="0 10.007" class="D I J K U"/><path d="M918.242 11.181H737.273c-.964 0-1.888-.383-2.57-1.064l-7.241-7.241c-1.419-1.419-3.72-1.419-5.14 0l-7.241 7.241c-.682.682-1.606 1.064-2.57 1.064H599.866c-.964 0-1.888-.383-2.57-1.064l-3.404-3.404c-1.419-1.419-3.72-1.419-5.14 0l-3.404 3.404c-.682.682-1.606 1.064-2.57 1.064h-5.094c-.964 0-1.888-.383-2.57-1.064l-7.241-7.241c-1.419-1.419-3.72-1.419-5.14 0l-7.241 7.241c-.682.682-1.606 1.064-2.57 1.064H444.553c-25.188 0-45.607 16.32-45.607 36.451v286.042c0 20.131 20.419 36.451 45.607 36.451H671a10.4 10.4 0 0 0 10.396-10.396h0c0-18.45 14.956-33.406 33.406-33.406h35.866c18.45 0 33.406-14.956 33.406-33.406v-37.093c0-18.45 14.956-33.406 33.406-33.406h96.348c27.624 0 50.017-22.393 50.017-50.017V47.632c0-20.131-20.419-36.451-45.607-36.451z" style="mix-blend-mode:multiply" fill="#e6f2f8"/><path d="M784.078 304.776v-37.093c0-18.45 14.956-33.406 33.406-33.406h96.348c27.624 0 50.017-22.393 50.017-50.017V59.491c0-20.131-20.419-36.451-45.607-36.451H444.557c-25.188 0-45.607 16.32-45.607 36.451v286.042c0 20.132 20.419 36.451 45.607 36.451h226.447a10.4 10.4 0 0 0 10.396-10.396h0c0-18.45 14.956-33.406 33.406-33.406h35.866c18.45 0 33.406-14.956 33.406-33.406z" fill="#74e0dd"/><path d="M784.078 310.406v-37.093c0-18.45 14.956-33.406 33.406-33.406h96.348c27.624 0 50.017-22.393 50.017-50.017V65.121c0-20.131-20.419-36.451-45.607-36.451H444.557c-25.188 0-45.607 16.32-45.607 36.451v286.042c0 20.132 20.419 36.451 45.607 36.451h226.447a10.4 10.4 0 0 0 10.396-10.396h0c0-18.45 14.956-33.406 33.406-33.406h35.866c18.45 0 33.406-14.956 33.406-33.406z" fill="#b1efee"/><g stroke="#d6fdfb" stroke-width="3.206" class="D I J"><path d="M499.318 43.769h-4.568m-15.259 0h-.77m176.423 8.607h-4.569m-15.259 0h-.769m-92.288 6.78h-11.06m-23.722 0h12.967m31.144 0h-.769m-24.428 14.057h4.584m15.259 0h.77"/></g><g class="B"><path d="M467.304 55.92a4.13 4.13 0 0 0-4.117-4.117h-18.516a4.13 4.13 0 0 0-4.117 4.117v2.705a6.55 6.55 0 0 0 1.917 4.637c1.233 1.234 2.898 1.917 4.637 1.917h13.642a6.55 6.55 0 0 0 4.637-1.917 6.61 6.61 0 0 0 1.917-4.637V55.92z" class="V"/><path d="M467.304 47.346h-26.749v6.821a6.55 6.55 0 0 0 1.917 4.637c1.233 1.234 2.898 1.917 4.622 1.917h13.657a6.55 6.55 0 0 0 4.637-1.917 6.61 6.61 0 0 0 1.917-4.637v-6.821z" fill="#d7f5f3"/><path d="M467.304 47.346a6.7 6.7 0 0 0-6.687-6.687h-13.375a6.69 6.69 0 0 0-6.687 6.687h0a6.68 6.68 0 0 0 6.687 6.687h13.375a6.69 6.69 0 0 0 6.687-6.687h0z" class="C"/><path d="M499.997 96.401c0-1.189-.475-2.333-1.308-3.165-.847-.832-1.976-1.308-3.165-1.308h-8.901c-1.174 0-2.318.475-3.15 1.308a4.49 4.49 0 0 0-1.308 3.165v2.155a6.76 6.76 0 0 0 6.747 6.746h4.339a6.76 6.76 0 0 0 6.746-6.746v-2.155z" class="V"/><path d="M499.997 87.469h-17.833v6.672c0 3.7 3.002 6.702 6.702 6.702h4.428c3.7 0 6.702-3.002 6.702-6.702v-6.672z" fill="#d7f5f3"/><path d="M499.997 87.469a6.7 6.7 0 0 0-6.687-6.687h-4.458a6.69 6.69 0 0 0-6.687 6.687h0c0 1.783.699 3.477 1.962 4.726a6.62 6.62 0 0 0 4.726 1.962h4.458a6.69 6.69 0 0 0 6.687-6.687h0z" class="C"/></g><path d="M1218.424 144.555l-9.659 17.017a3.44 3.44 0 0 1-2.873 1.743c-1.195.043-2.327-.537-2.99-1.532l-.002-.002" stroke="#373d5f" class="D I M a"/><path d="M1205.256 115.271h6.209v7.762h-6.209z" fill="#af5224"/><g stroke="#c3c3c3" class="D I M a"><path d="M1219.863 128.632l26.39 16.964"/><path d="M1241.708 145.708l2.993-4.657m-49.559-13.404l-6.664 30.657"/></g><g fill="#a16839" class="B"><path d="M1214.711 120.619a2.18 2.18 0 0 0-2.67-1.54l-7.785 2.085a2.18 2.18 0 0 0-1.541 2.67l3.446 12.86 11.995-3.215-3.445-12.86z"/><path d="M1207.007 124.359c.242-.571.248-1.214.016-1.788s-.686-1.031-1.257-1.271c-.566-.238-1.2-.235-1.76.006s-1 .699-1.215 1.27l-2.464 6.504a2.33 2.33 0 0 1-2.178 1.504h-5.311v3.937h8.305c.933 0 1.777-.557 2.142-1.417l3.723-8.744zm6.389-5.207a2.32 2.32 0 0 0-1.777.22c-.539.307-.931.82-1.09 1.422-.154.587-.062 1.211.253 1.729a2.24 2.24 0 0 0 1.419 1.02l6.028 1.357a2.33 2.33 0 0 1 1.818 2.282l-.019 4.233h3.856v-7.551a2.33 2.33 0 0 0-1.698-2.242l-8.789-2.471z"/></g><path d="M1202.069,105.026h12.582c1.669,0,3.024,1.355,3.024,3.024v6.372c0,1.668-1.354,3.022-3.022,3.022h-12.583c-1.668,0-3.022-1.354-3.022-3.022v-6.374c0-1.668,1.354-3.022,3.022-3.022Z" class="N"/><path d="M1215.031 103.474a4.2 4.2 0 0 1 4.196 4.196v9.775h-1.552a1.55 1.55 0 0 1-1.098-.455c-.292-.29-.455-.686-.455-1.098v-5.949c0-1.001-.812-1.813-1.815-1.813h-11.896c-1.001 0-1.813.812-1.813 1.813v7.501h-1.552a1.55 1.55 0 0 1-1.098-.455c-.292-.29-.455-.686-.455-1.098v-8.223c0-2.318 1.878-4.196 4.196-4.196h13.341z" fill="#373d5f" class="B"/><path d="M1200.599 108.131h15.523v4.657h-15.523z" fill="#9db8d6"/><path d="M1219.328 137.853a2.17 2.17 0 0 1-.095 1.406l-2.786 6.649-.635-7.52-6.475 1.736a2.18 2.18 0 0 1-2.67-1.541l-.506-1.889 11.995-3.215 1.172 4.375z" fill="#534034" class="B"/><path d="M1226.988 144.555l-9.657 17.017a3.44 3.44 0 0 1-2.873 1.743c-1.195.043-2.329-.537-2.991-1.532l-.002-.002" stroke="#373d5f" class="D I M a"/><g fill="#534034" class="B"><path d="M1213.514 150.485a2.18 2.18 0 0 1-.996 3.627l-.118.033a2.18 2.18 0 0 1-2.128-.587l-6.72-6.919a2.59 2.59 0 0 1-.512-2.847l3.122-7.097 6.5-1.327-4.115 10.02 4.969 5.098zm8.636-1.326a2.18 2.18 0 0 1-.996 3.627l-.118.033c-.764.203-1.577-.02-2.128-.587l-6.72-6.919c-.734-.756-.938-1.883-.514-2.849l3.123-7.097 4.615 3.263-2.231 5.432 4.969 5.098z"/></g><rect x="275.828" y="37.232" width="58.573" height="14.108" rx="7.054" class="O"/><path d="M282.882,51.34h44.466c3.88,0,7.054-3.174,7.054-7.054s-3.174-7.054-7.054-7.054h-44.466c-3.88,0-7.054,3.174-7.054,7.054s3.174,7.054,7.054,7.054Z" class="D I J K P U"/><g class="B"><path d="M299.848 16.549h9.182V41.79a4.58 4.58 0 0 1-1.345 3.239c-.865.851-2.031 1.345-3.239 1.345h-.014c-1.208 0-2.374-.494-3.239-1.345-.851-.865-1.345-2.031-1.345-3.239V16.549z" class="Q"/><g class="E"><use href="#P"/><use href="#Q"/></g></g><g clip-path="url(#B)" class="B R"><use href="#R" class="S"/></g><g class="B"><g class="E"><use href="#S"/><path d="M329.494,20.53c-.686-1.071-2.1-1.373-3.171-.7-1.057.686-1.373,2.114-.686,3.17l4.09,6.396c.686,1.057,2.114,1.373,3.171.686,1.071-.686,1.373-2.1.7-3.17l-4.104-6.382Z"/></g><g class="T"><use href="#T" class="F"/><use href="#U" class="F"/><use href="#V" class="F"/><path d="M289.43,23.234c.371-1.208,1.661-1.88,2.869-1.51,1.208.384,1.88,1.674,1.496,2.882l-.961,3.061c-.384,1.208-1.674,1.88-2.882,1.496-1.208-.37-1.88-1.661-1.496-2.869l.974-3.061Z" class="F"/><use href="#W" class="F"/><use href="#X" class="F"/><use href="#Y" class="F"/></g><use href="#Z" class="C"/></g><g clip-path="url(#C)" class="B"><use href="#a" class="H W"/><use href="#b" class="X"/><g class="C"><use href="#c"/><use href="#d" class="H"/><use href="#e" class="H"/><path d="M293.122,12.349c.467-1.18,1.798-1.77,2.978-1.304,1.18.453,1.757,1.784,1.304,2.965l-.837,2.141c-.453,1.18-1.784,1.757-2.965,1.304-1.18-.467-1.771-1.784-1.304-2.965l.824-2.141Z" class="H"/><use href="#f"/></g></g><g class="B"><g class="C"><use href="#g"/><use href="#h"/><path d="M320.134-2.968c-.48-1.18-1.825-1.743-2.992-1.263-1.181.467-1.743,1.812-1.263,2.978l.069.178c.48,1.167,1.812,1.729,2.992,1.263,1.167-.48,1.729-1.825,1.263-2.992l-.069-.165Z"/><use href="#i"/><use href="#j"/><path d="M281.648,8.287c.673-1.071,2.1-1.373,3.157-.7,1.071.686,1.386,2.114.7,3.171l-.096.151c-.686,1.071-2.114,1.386-3.171.7-1.071-.686-1.373-2.1-.7-3.171l.11-.151Z"/><use href="#k"/><use href="#l"/></g><use href="#m" class="E"/><g class="C"><use href="#n"/><path d="M294.22,21.408c.371-1.208,1.647-1.894,2.869-1.523,1.208.37,1.881,1.661,1.51,2.869l-.055.178c-.371,1.208-1.661,1.88-2.869,1.51s-1.88-1.661-1.51-2.869l.055-.165Z"/></g><g class="E"><use href="#o"/><use href="#p"/></g><g class="C"><use href="#q"/><use href="#r"/></g><use href="#s" class="E"/><g class="C"><use href="#t"/><path d="M284.393,14.106c.686-1.057,2.1-1.373,3.171-.686s1.373,2.1.686,3.171l-.096.151c-.686,1.071-2.1,1.373-3.171.686-1.057-.673-1.373-2.1-.686-3.171l.096-.151Z"/></g><use href="#u" class="E"/><g class="C"><use href="#v"/><use href="#w"/></g></g><rect x="211.39" y="101.671" width="58.573" height="14.108" rx="7.054" class="O"/><path d="M218.444,115.779h44.466c3.88,0,7.054-3.174,7.054-7.054s-3.174-7.054-7.054-7.054h-44.466c-3.88,0-7.054,3.174-7.054,7.054s3.174,7.054,7.054,7.054Z" class="D I J K P U"/><g class="B"><path d="M235.409 80.988h9.182v25.241a4.58 4.58 0 0 1-1.345 3.239c-.865.851-2.031 1.345-3.239 1.345h-.014c-1.208 0-2.374-.494-3.239-1.345-.851-.865-1.345-2.031-1.345-3.239V80.988z" class="Q"/><g class="E"><path d="M217.113 83.555c.673-1.071 2.1-1.373 3.157-.7 1.07.686 1.386 2.114.7 3.171l-4.914 7.672c-.673 1.071-2.1 1.386-3.157.7a2.29 2.29 0 0 1-.7-3.171l4.914-7.672z"/><path d="M237.207 51.931a4.06 4.06 0 0 1 3.431-1.894c1.386 0 2.676.714 3.431 1.894l22.427 35.302c0 10.472-11.584 18.982-25.858 18.982s-25.858-8.51-25.858-18.982l22.427-35.302z"/></g></g><g clip-path="url(#D)" class="B R"><path d="M238.14 36.285c.769-.906 1.894-1.414 3.075-1.414a4.02 4.02 0 0 1 3.074 1.414c6.849 7.988 22.784 27.602 22.784 37.182 0 10.486-11.584 18.996-25.858 18.996s-25.872-8.51-25.872-18.996c0-9.58 15.935-29.194 22.798-37.182z" class="S"/></g><g class="B"><g class="E"><path d="M249.505 101.85c-.137-1.263-1.276-2.169-2.525-2.045-1.263.137-2.182 1.277-2.045 2.526l.425 3.925c.137 1.249 1.263 2.169 2.526 2.031s2.169-1.263 2.031-2.525l-.412-3.912zm15.551-16.882c-.686-1.071-2.1-1.373-3.171-.7-1.057.686-1.373 2.114-.686 3.17l4.09 6.396c.686 1.057 2.114 1.373 3.171.686 1.071-.686 1.373-2.1.7-3.17l-4.104-6.382z"/></g><g class="T"><path d="M238.923 92.462c0-1.263 1.029-2.292 2.292-2.292s2.292 1.029 2.292 2.292v2.292c0 1.263-1.029 2.292-2.292 2.292s-2.292-1.029-2.292-2.292v-2.292zm-7.934 4.31c.151-1.249 1.304-2.141 2.553-1.99 1.263.151 2.155 1.304 1.99 2.553l-.275 2.278a2.29 2.29 0 0 1-2.567 1.99c-1.249-.151-2.141-1.304-1.99-2.553l.288-2.278zm20.287 0c-.151-1.249-1.304-2.141-2.553-1.99a2.3 2.3 0 0 0-2.004 2.553l.288 2.278c.151 1.263 1.304 2.155 2.553 1.99a2.3 2.3 0 0 0 2.004-2.553l-.288-2.278zm-26.284-9.1c.371-1.208 1.661-1.88 2.869-1.51 1.208.384 1.88 1.674 1.496 2.882l-.961 3.061c-.384 1.208-1.674 1.88-2.882 1.496-1.208-.37-1.88-1.661-1.496-2.869l.974-3.061zm30.964 1.03c-.384-1.208-1.675-1.88-2.882-1.496a2.3 2.3 0 0 0-1.496 2.882l.961 3.061c.384 1.208 1.674 1.88 2.882 1.496s1.88-1.661 1.496-2.869l-.961-3.074zm-36.633-5.353c.631-1.098 2.031-1.469 3.129-.837s1.469 2.031.837 3.129l-2.073 3.596c-.631 1.098-2.031 1.469-3.129.837s-1.469-2.031-.837-3.129l2.073-3.596zm42.26-.124c-.631-1.098-2.031-1.469-3.129-.837s-1.469 2.031-.837 3.129l2.073 3.596c.631 1.098 2.045 1.469 3.143.837a2.3 2.3 0 0 0 .837-3.129l-2.086-3.596z" class="F"/></g><path d="M237.797 43.82a4.08 4.08 0 0 1 3.418-1.853c1.373 0 2.663.7 3.404 1.853l18.31 28.356c0 8.661-9.731 15.702-21.713 15.702-11.996 0-21.727-7.041-21.727-15.702l18.31-28.356z" class="C"/></g><g clip-path="url(#E)" class="B"><path d="M238.154 25.936c.769-.892 1.88-1.4 3.061-1.4a4.05 4.05 0 0 1 3.061 1.4c5.984 6.918 18.653 22.482 18.653 30.182 0 8.674-9.731 15.702-21.713 15.702-11.996 0-21.727-7.027-21.727-15.702 0-7.7 12.668-23.264 18.666-30.182z" class="H W"/><path d="M237.797 19.691c.727-1.18 2.018-1.894 3.418-1.894a4.04 4.04 0 0 1 3.418 1.894c6.121 9.388 18.296 29.317 18.296 39.296 0 11.433-9.731 20.725-21.713 20.725s-21.727-9.292-21.727-20.725c0-9.978 12.188-29.907 18.31-39.296z" class="X"/><g class="C"><path d="M252.922 69.994c-.631-1.098-.261-2.512.837-3.143a2.3 2.3 0 0 1 3.129.837l2.292 3.98c.645 1.098.261 2.498-.837 3.129a2.29 2.29 0 0 1-3.129-.837l-2.292-3.967z"/><path d="M247.487 78.366c-.426-1.194.22-2.498 1.414-2.923 1.194-.412 2.498.233 2.91 1.427l.755 2.169a2.29 2.29 0 0 1-1.414 2.91c-1.194.412-2.512-.219-2.923-1.414l-.741-2.169zm-9.786-1.962a2.3 2.3 0 0 1 2.306-2.292c1.263 0 2.292 1.029 2.292 2.292v2.292c0 1.277-1.029 2.292-2.292 2.292a2.29 2.29 0 0 1-2.306-2.292v-2.292zm-9.017.384c.467-1.18 1.798-1.77 2.978-1.304 1.18.453 1.757 1.784 1.304 2.965l-.837 2.141c-.453 1.18-1.784 1.757-2.965 1.304-1.18-.467-1.771-1.784-1.304-2.965l.824-2.141z" class="H"/><path d="M225.088 66.92a2.32 2.32 0 0 1 3.143-.837c1.098.631 1.469 2.045.837 3.143l-1.99 3.431c-.631 1.098-2.031 1.469-3.129.837s-1.469-2.031-.837-3.129l1.977-3.445z"/></g></g><path d="M237.427 35.296c.714-1.07 1.921-1.716 3.212-1.716s2.498.645 3.212 1.716l13.478 20.245c0 3.761-2.539 7.11-6.492 9.251-2.814 1.523-6.355 2.443-10.198 2.443-9.21 0-16.69-5.243-16.69-11.694l13.478-20.245z" class="B C"/><g clip-path="url(#F)"><g class="b"><rect x="226.241" y="30.534" width="29.235" height="29.523" rx="14.453" opacity=".55"/><g class="B"><use href="#x"/></g></g><g class="c B"><use href="#y"/><use href="#z"/><use href="#AA"/></g></g><g class="B"><g class="C"><path d="M243.507 67.057c0-1.276-1.029-2.292-2.292-2.292s-2.292 1.016-2.292 2.292v.178c0 1.263 1.029 2.292 2.292 2.292s2.292-1.029 2.292-2.292v-.178zm12.188-5.586c-.48-1.18-1.825-1.743-2.992-1.263-1.181.467-1.743 1.812-1.263 2.978l.069.178c.48 1.167 1.812 1.729 2.992 1.263 1.167-.48 1.729-1.825 1.263-2.992l-.069-.165zm-29.715-.028c.481-1.167 1.826-1.743 2.992-1.263a2.29 2.29 0 0 1 1.263 2.992l-.069.165c-.48 1.167-1.812 1.743-2.978 1.263a2.29 2.29 0 0 1-1.263-2.992l.055-.165z"/><use href="#AB"/><path d="M264.767 72.725c-.686-1.071-2.1-1.373-3.17-.7a2.29 2.29 0 0 0-.686 3.171l.096.151a2.29 2.29 0 0 0 3.171.7 2.3 2.3 0 0 0 .686-3.171l-.096-.151zm-47.558 0c.673-1.071 2.1-1.373 3.157-.7 1.071.686 1.386 2.114.7 3.171l-.096.151c-.686 1.071-2.114 1.386-3.171.7-1.071-.686-1.373-2.1-.7-3.171l.11-.151zm40.092 10.061a2.3 2.3 0 0 0-3.171-.686c-1.07.686-1.373 2.1-.686 3.171l.096.151c.673 1.057 2.1 1.373 3.17.686a2.3 2.3 0 0 0 .686-3.17l-.096-.151zm-32.625 0a2.3 2.3 0 0 1 3.17-.686 2.3 2.3 0 0 1 .686 3.171l-.096.151a2.3 2.3 0 0 1-3.17.686c-1.071-.686-1.373-2.1-.686-3.17l.096-.151z"/></g><path d="M218.856 94.343c.714-1.043 2.141-1.318 3.184-.604a2.31 2.31 0 0 1 .604 3.198l-1.812 2.635a2.28 2.28 0 0 1-3.184.604c-1.043-.714-1.318-2.141-.604-3.184l1.812-2.649z" class="E"/><g class="C"><path d="M252.195 85.847c-.371-1.208-1.661-1.894-2.869-1.523s-1.894 1.661-1.51 2.869l.055.178a2.28 2.28 0 0 0 2.855 1.51c1.222-.371 1.894-1.661 1.523-2.869l-.055-.165z"/><use href="#AC"/></g><g class="E"><path d="M225.184 102.043c.384-1.208 1.661-1.88 2.869-1.51s1.894 1.661 1.523 2.869l-.055.178c-.371 1.208-1.661 1.88-2.869 1.51s-1.894-1.661-1.51-2.869l.041-.178zm31.746-2.183a2.29 2.29 0 0 0-2.869-1.51c-1.208.371-1.88 1.661-1.51 2.869l.906 2.951c.384 1.208 1.661 1.894 2.869 1.523 1.222-.384 1.894-1.661 1.524-2.869l-.92-2.965z"/></g><g class="C"><path d="M246.225 88.043c-.137-1.263-1.276-2.169-2.525-2.031a2.29 2.29 0 0 0-2.045 2.525l.027.178c.137 1.249 1.263 2.169 2.525 2.031 1.249-.137 2.169-1.263 2.031-2.525l-.014-.178zm-10.473 0c.137-1.263 1.263-2.169 2.526-2.031 1.263.123 2.169 1.263 2.031 2.525l-.014.178c-.137 1.249-1.263 2.169-2.525 2.031s-2.169-1.263-2.031-2.525l.014-.178z"/></g><path d="M231.168 104.252c.137-1.263 1.263-2.182 2.525-2.045s2.169 1.277 2.031 2.526l-.014.192c-.137 1.249-1.277 2.169-2.526 2.031-1.263-.137-2.169-1.277-2.045-2.526l.027-.178z" class="E"/><g class="C"><path d="M262.009 78.545c-.673-1.057-2.1-1.373-3.157-.686a2.29 2.29 0 0 0-.7 3.171l.096.151a2.29 2.29 0 0 0 3.171.686c1.071-.673 1.373-2.1.7-3.171l-.11-.151zm-42.055 0a2.3 2.3 0 0 1 3.171-.686c1.071.686 1.373 2.1.686 3.171l-.096.151c-.686 1.071-2.1 1.373-3.171.686-1.057-.673-1.373-2.1-.686-3.171l.096-.151z"/></g><path d="M261.693 94.301a2.3 2.3 0 0 0-3.17-.686c-1.071.686-1.373 2.1-.7 3.171l2.745 4.255c.686 1.071 2.1 1.373 3.17.7 1.057-.686 1.373-2.114.686-3.171l-2.731-4.269z" class="E"/><g class="C"><use href="#AD"/><path d="M250.589 65.355c-.206-1.249-1.386-2.1-2.635-1.894s-2.086 1.386-1.88 2.635l.027.178c.206 1.249 1.386 2.1 2.635 1.894s2.1-1.386 1.88-2.635l-.027-.178zm-19.503-.028c.206-1.249 1.386-2.1 2.635-1.894a2.29 2.29 0 0 1 1.88 2.649l-.027.178c-.206 1.249-1.386 2.086-2.635 1.88s-2.086-1.386-1.88-2.635l.027-.178z"/></g></g><rect x="77.818" y="93.653" width="58.573" height="14.108" rx="7.054" class="O"/><path d="M84.872 107.761h44.466c3.88 0 7.054-3.174 7.054-7.054s-3.174-7.054-7.054-7.054H84.872c-3.88 0-7.054 3.174-7.054 7.054s3.174 7.054 7.054 7.054z" class="D I J K P U"/><g class="B"><path d="M101.837 72.97h9.182v25.241a4.58 4.58 0 0 1-1.345 3.239c-.865.851-2.031 1.345-3.239 1.345h-.014c-1.208 0-2.374-.494-3.239-1.345-.851-.865-1.345-2.031-1.345-3.239V72.97z" class="Q"/><g class="E"><path d="M83.541 75.537c.673-1.071 2.1-1.373 3.157-.7 1.07.686 1.386 2.114.7 3.171l-4.914 7.672c-.673 1.071-2.1 1.386-3.157.7a2.29 2.29 0 0 1-.7-3.171l4.914-7.672z"/><path d="M103.635 43.914a4.06 4.06 0 0 1 3.431-1.894c1.386 0 2.676.714 3.431 1.894l22.427 35.302c0 10.472-11.584 18.982-25.858 18.982s-25.858-8.51-25.858-18.982l22.427-35.302z"/></g></g><g clip-path="url(#G)" class="B R"><path d="M104.568 28.267c.769-.906 1.894-1.414 3.075-1.414a4.02 4.02 0 0 1 3.074 1.414c6.849 7.988 22.784 27.602 22.784 37.182 0 10.486-11.584 18.996-25.858 18.996s-25.872-8.51-25.872-18.996c0-9.58 15.935-29.194 22.798-37.182z" class="S"/></g><g class="B"><g class="E"><path d="M115.933 93.833c-.137-1.263-1.276-2.169-2.525-2.045-1.263.137-2.182 1.277-2.045 2.526l.425 3.925c.137 1.249 1.263 2.169 2.526 2.031s2.169-1.263 2.031-2.525l-.412-3.912zm15.551-16.882c-.686-1.071-2.1-1.373-3.171-.7-1.057.686-1.373 2.114-.686 3.17l4.09 6.396c.686 1.057 2.114 1.373 3.171.686 1.071-.686 1.373-2.1.7-3.17l-4.104-6.382z"/></g><g class="T"><path d="M105.351 84.445c0-1.263 1.029-2.292 2.292-2.292s2.292 1.029 2.292 2.292v2.292c0 1.263-1.029 2.292-2.292 2.292s-2.292-1.029-2.292-2.292v-2.292zm-7.933 4.31c.151-1.249 1.304-2.141 2.553-1.99 1.263.151 2.155 1.304 1.99 2.553l-.275 2.278a2.29 2.29 0 0 1-2.567 1.99c-1.249-.151-2.141-1.304-1.99-2.553l.288-2.278zm20.286 0c-.151-1.249-1.304-2.141-2.553-1.99a2.3 2.3 0 0 0-2.004 2.553l.288 2.278c.151 1.263 1.304 2.155 2.553 1.99a2.3 2.3 0 0 0 2.004-2.553l-.288-2.278zm-26.284-9.1c.371-1.208 1.661-1.88 2.869-1.51 1.208.384 1.88 1.674 1.496 2.882l-.961 3.061c-.384 1.208-1.674 1.88-2.882 1.496-1.208-.37-1.88-1.661-1.496-2.869l.974-3.061zm30.964 1.029c-.384-1.208-1.675-1.88-2.882-1.496a2.3 2.3 0 0 0-1.496 2.882l.961 3.061c.384 1.208 1.674 1.88 2.882 1.496s1.88-1.661 1.496-2.869l-.961-3.074zm-36.633-5.353c.631-1.098 2.031-1.469 3.129-.837s1.469 2.031.837 3.129l-2.073 3.596c-.631 1.098-2.031 1.469-3.129.837s-1.469-2.031-.837-3.129l2.073-3.596zm42.26-.123c-.631-1.098-2.031-1.469-3.129-.837s-1.469 2.031-.837 3.129l2.073 3.596c.631 1.098 2.045 1.469 3.143.837a2.3 2.3 0 0 0 .837-3.129l-2.086-3.596z" class="F"/></g><path d="M104.225 35.802a4.08 4.08 0 0 1 3.418-1.853c1.373 0 2.663.7 3.404 1.853l18.31 28.356c0 8.661-9.731 15.702-21.713 15.702-11.996 0-21.727-7.041-21.727-15.702l18.31-28.356z" class="C"/></g><g clip-path="url(#H)" class="B"><path d="M104.582 17.918c.769-.892 1.88-1.4 3.061-1.4a4.05 4.05 0 0 1 3.061 1.4c5.984 6.918 18.653 22.482 18.653 30.182 0 8.674-9.731 15.702-21.713 15.702-11.996 0-21.727-7.027-21.727-15.702 0-7.7 12.668-23.264 18.666-30.182z" class="H W"/><path d="M104.225 11.673c.727-1.18 2.018-1.894 3.418-1.894a4.04 4.04 0 0 1 3.418 1.894c6.121 9.388 18.296 29.317 18.296 39.296 0 11.433-9.731 20.725-21.713 20.725-11.996 0-21.727-9.292-21.727-20.725 0-9.978 12.188-29.907 18.31-39.296z" class="X"/><g class="C"><path d="M119.351 61.976c-.631-1.098-.261-2.512.837-3.143a2.3 2.3 0 0 1 3.129.837l2.292 3.98c.645 1.098.261 2.498-.837 3.129a2.29 2.29 0 0 1-3.129-.837l-2.292-3.967z"/><path d="M113.915 70.349c-.426-1.194.22-2.498 1.414-2.923 1.194-.412 2.498.233 2.91 1.427l.755 2.169a2.29 2.29 0 0 1-1.414 2.91c-1.194.412-2.512-.219-2.923-1.414l-.741-2.169zm-9.786-1.963a2.3 2.3 0 0 1 2.306-2.292c1.263 0 2.292 1.029 2.292 2.292v2.292c0 1.277-1.029 2.292-2.292 2.292a2.29 2.29 0 0 1-2.306-2.292v-2.292zm-9.017.384c.467-1.18 1.798-1.77 2.978-1.304 1.18.453 1.757 1.784 1.304 2.965l-.837 2.141c-.453 1.18-1.784 1.757-2.965 1.304-1.18-.467-1.771-1.784-1.304-2.965l.824-2.141z" class="H"/><path d="M91.516 58.902a2.32 2.32 0 0 1 3.143-.837c1.098.631 1.469 2.045.837 3.143l-1.99 3.431c-.631 1.098-2.031 1.469-3.129.837s-1.469-2.031-.837-3.129l1.977-3.445z"/></g></g><path d="M103.855 27.279c.714-1.07 1.921-1.716 3.212-1.716s2.498.645 3.212 1.716l13.478 20.245c0 3.761-2.539 7.11-6.492 9.251-2.814 1.523-6.355 2.443-10.198 2.443-9.21 0-16.69-5.243-16.69-11.694l13.478-20.245z" class="B C"/><g clip-path="url(#I)"><g class="b"><rect x="92.669" y="22.516" width="29.235" height="29.523" rx="14.453" opacity=".55"/><g class="B"><path d="M106.325 36.9c-.343-1.222.371-2.484 1.592-2.827s2.484.371 2.827 1.592l.192.659c.329 1.221-.384 2.484-1.592 2.827-1.222.343-2.484-.371-2.827-1.592l-.192-.659z"/></g></g><g class="c B"><path d="M111.664 41.965c-.535-1.153-.055-2.512 1.098-3.061 1.139-.535 2.512-.055 3.047 1.098l.988 2.073c.535 1.139.055 2.512-1.098 3.047a2.28 2.28 0 0 1-3.047-1.084l-.988-2.073zm-7.535 3.486a2.3 2.3 0 0 1 2.306-2.292c1.263 0 2.292 1.029 2.292 2.292v2.292a2.3 2.3 0 0 1-2.292 2.306 2.3 2.3 0 0 1-2.306-2.306v-2.292zm-4.611-7.714a2.29 2.29 0 0 1 3.129-.837c1.098.645 1.469 2.045.837 3.143l-1.153 1.976c-.645 1.098-2.045 1.469-3.143.837-1.084-.645-1.469-2.045-.823-3.143l1.153-1.977z"/></g></g><g class="B"><g class="C"><path d="M109.935 59.039c0-1.276-1.029-2.292-2.292-2.292s-2.292 1.016-2.292 2.292v.178c0 1.263 1.029 2.292 2.292 2.292s2.292-1.029 2.292-2.292v-.178zm12.188-5.586c-.48-1.18-1.825-1.743-2.992-1.263-1.181.467-1.743 1.812-1.263 2.978l.069.178c.48 1.167 1.812 1.729 2.992 1.263 1.167-.48 1.729-1.825 1.263-2.992l-.069-.165zm-29.715-.027c.481-1.167 1.826-1.743 2.992-1.263a2.29 2.29 0 0 1 1.263 2.992l-.069.165c-.48 1.167-1.812 1.743-2.978 1.263a2.29 2.29 0 0 1-1.263-2.992l.055-.165zm33.105-5.614c-.686-1.071-2.1-1.373-3.17-.7a2.29 2.29 0 0 0-.686 3.17l.096.151c.686 1.071 2.1 1.373 3.171.7 1.057-.686 1.373-2.114.686-3.17l-.096-.151zm5.682 16.896c-.686-1.071-2.1-1.373-3.17-.7a2.29 2.29 0 0 0-.686 3.171l.096.151a2.29 2.29 0 0 0 3.171.7 2.3 2.3 0 0 0 .686-3.171l-.096-.151zm-47.558 0c.673-1.071 2.1-1.373 3.157-.7 1.071.686 1.386 2.114.7 3.171l-.096.151c-.686 1.071-2.114 1.386-3.171.7-1.071-.686-1.373-2.1-.7-3.171l.11-.151zm40.092 10.06a2.3 2.3 0 0 0-3.171-.686c-1.07.686-1.373 2.1-.686 3.171l.096.151c.673 1.057 2.1 1.373 3.17.686a2.3 2.3 0 0 0 .686-3.17l-.096-.151zm-32.625 0a2.3 2.3 0 0 1 3.17-.686 2.3 2.3 0 0 1 .686 3.171l-.096.151a2.3 2.3 0 0 1-3.17.686c-1.071-.686-1.373-2.1-.686-3.17l.096-.151z"/></g><path d="M85.284 86.325c.714-1.043 2.141-1.318 3.184-.604a2.31 2.31 0 0 1 .604 3.198l-1.812 2.635a2.28 2.28 0 0 1-3.184.604c-1.043-.714-1.318-2.141-.604-3.184l1.812-2.649z" class="E"/><g class="C"><path d="M118.623 77.829c-.371-1.208-1.661-1.894-2.869-1.523s-1.894 1.661-1.51 2.869l.055.178a2.28 2.28 0 0 0 2.855 1.51c1.222-.371 1.894-1.661 1.523-2.869l-.055-.165zm-22.413 0c.371-1.208 1.647-1.894 2.869-1.523 1.208.37 1.881 1.661 1.51 2.869l-.055.178c-.371 1.208-1.661 1.88-2.869 1.51s-1.88-1.661-1.51-2.869l.055-.165z"/></g><g class="E"><path d="M91.612 94.025c.384-1.208 1.661-1.88 2.869-1.51s1.894 1.661 1.523 2.869l-.055.178c-.371 1.208-1.661 1.88-2.869 1.51s-1.894-1.661-1.51-2.869l.041-.178zm31.746-2.182a2.29 2.29 0 0 0-2.869-1.51c-1.208.371-1.88 1.661-1.51 2.869l.906 2.951c.384 1.208 1.661 1.894 2.869 1.523 1.222-.384 1.894-1.661 1.524-2.869l-.92-2.965z"/></g><g class="C"><path d="M112.653 80.025c-.137-1.263-1.276-2.169-2.525-2.031a2.29 2.29 0 0 0-2.045 2.525l.027.178c.137 1.249 1.263 2.169 2.525 2.031 1.249-.137 2.169-1.263 2.031-2.525l-.014-.178zm-10.473 0c.137-1.263 1.263-2.169 2.526-2.031 1.263.123 2.169 1.263 2.031 2.525l-.014.178c-.137 1.249-1.263 2.169-2.525 2.031s-2.169-1.263-2.031-2.525l.014-.178z"/></g><path d="M97.596 96.235c.137-1.263 1.263-2.182 2.525-2.045s2.169 1.277 2.031 2.526l-.014.192c-.137 1.249-1.277 2.169-2.526 2.031-1.263-.137-2.169-1.277-2.045-2.526l.027-.178z" class="E"/><g class="C"><path d="M128.437 70.527c-.673-1.057-2.1-1.373-3.157-.686a2.29 2.29 0 0 0-.7 3.171l.096.151a2.29 2.29 0 0 0 3.171.686c1.071-.673 1.373-2.1.7-3.171l-.11-.151zm-42.055 0a2.3 2.3 0 0 1 3.171-.686c1.071.687 1.373 2.1.686 3.171l-.096.151c-.686 1.071-2.1 1.373-3.171.686-1.057-.673-1.373-2.1-.686-3.171l.096-.151z"/></g><path d="M128.121 86.284a2.3 2.3 0 0 0-3.17-.686c-1.071.686-1.373 2.1-.7 3.171l2.745 4.255c.686 1.071 2.1 1.373 3.17.7 1.057-.686 1.373-2.114.686-3.171l-2.731-4.269z" class="E"/><g class="C"><path d="M89.018 47.784c.686-1.071 2.1-1.373 3.171-.686 1.07.673 1.373 2.1.686 3.157l-.096.165a2.3 2.3 0 0 1-3.17.686 2.3 2.3 0 0 1-.686-3.17l.096-.151zm27.999 9.553c-.206-1.249-1.386-2.1-2.635-1.894s-2.086 1.386-1.88 2.635l.027.178c.206 1.249 1.386 2.1 2.635 1.894s2.1-1.386 1.88-2.635l-.027-.178zm-19.503-.027c.206-1.249 1.386-2.1 2.635-1.894a2.29 2.29 0 0 1 1.88 2.649l-.027.178c-.206 1.249-1.386 2.086-2.635 1.88s-2.086-1.386-1.88-2.635l.027-.178z"/></g><path d="M1176.246 24.108l37.703-43.986h49.12l11.499 12.937 37.087 10.35 27.599 20.699h-54.336l-18.112 15.525-90.56-15.525z" fill="#c0906b"/><path d="M1266.806 3.409l7.762-10.35h23.287l13.8 10.35" class="C"/></g><path d="M1176.246 24.108l90.56 15.525 18.112-15.525h54.336" stroke="#e9f3f6" stroke-dasharray="0 10" class="D I J K"/><rect x="860.65" y="69.25" width="68.518" height="33.151" rx="8.707" class="V"/><use href="#AE" class="B C"/><use href="#AE" stroke-width="2" class="D M d"/><g class="B"><g class="Y"><path d="M922.658 69.585a5.97 5.97 0 0 0-1.544-4.007l-9.603-10.614a.49.49 0 0 0-.854.329v11.72a7.51 7.51 0 0 1-7.508 7.508h-13.492l21 22.5h5.118c3.801 0 6.882-3.081 6.882-6.882V69.585z"/><path d="M867.158 69.585a5.97 5.97 0 0 1 1.544-4.007l9.603-10.614a.49.49 0 0 1 .854.329v11.72a7.51 7.51 0 0 0 7.508 7.508h13.492l-21 22.5h-5.118c-3.801 0-6.882-3.081-6.882-6.882V69.585z"/></g><path d="M913.994 80.565c-2.057-3.729-5.98-6.045-10.239-6.045h-18.348a11.09 11.09 0 0 0-9.849 5.994l-5.734 11.085a3.71 3.71 0 0 0 .126 3.637c.674 1.107 1.876 1.783 3.173 1.783h43.658c1.314 0 2.53-.694 3.198-1.826s.688-2.532.054-3.683l-6.04-10.947z" class="e"/></g><rect x="796.814" y="98.515" width="53.804" height="26.032" rx="6.837" class="V"/><use href="#AF" class="B C"/><use href="#AF" stroke-width="1.571" class="D M d"/><g class="B"><g class="Y"><path d="M845.507 98.778c0-1.163-.432-2.284-1.212-3.147l-7.541-8.334c-.107-.118-.275-.158-.424-.101s-.246.2-.246.359v9.203c0 3.256-2.639 5.895-5.895 5.895h-10.595l16.49 17.668h4.019c2.985 0 5.404-2.42 5.404-5.404v-16.14z"/><path d="M801.926 98.778c0-1.163.432-2.284 1.212-3.147l7.541-8.334c.107-.118.275-.158.424-.101s.246.2.246.359v9.203c0 3.256 2.64 5.895 5.896 5.895h10.595l-16.49 17.668h-4.019c-2.985 0-5.404-2.42-5.404-5.404v-16.14z"/></g><path d="M838.703 107.4c-1.616-2.928-4.696-4.747-8.04-4.747h-14.408a8.71 8.71 0 0 0-7.734 4.707l-4.503 8.705c-.468.904-.43 1.987.099 2.856s1.474 1.4 2.491 1.4h34.282c1.032 0 1.987-.545 2.512-1.434s.541-1.988.042-2.892l-4.743-8.596z" class="e"/><g class="O"><use href="#AG"/></g></g><rect x="114.614" y="2.122" width="10.676" height="3.768" rx="1.881" class="O"/><g class="B"><use href="#AH" class="O"/><g class="L"><path d="M1118.873 21.848a3.77 3.77 0 0 0-3.768-3.768h-10.048a3.77 3.77 0 0 0-3.768 3.768 3.77 3.77 0 0 0 3.768 3.768h10.048a3.77 3.77 0 0 0 3.768-3.768zm37.052 53.379a3.14 3.14 0 0 0-3.14-3.14h-8.164a3.14 3.14 0 0 0 0 6.28h8.164a3.14 3.14 0 0 0 3.14-3.14z"/></g></g><rect x="1064.866" y="59.527" width="10.676" height="3.768" rx="1.881" class="L"/><rect x="1127.665" y="50.736" width="10.676" height="3.768" rx="1.881" class="L"/><path d="M1029.698 78.309a3.71 3.71 0 0 0-3.71-3.71h-.116a3.71 3.71 0 0 0-3.71 3.71v.06a3.77 3.77 0 0 0 1.103 2.663c.706.706 1.664 1.103 2.663 1.103h.005a3.77 3.77 0 0 0 2.663-1.103c.706-.706 1.103-1.664 1.103-2.663v-.06z" class="B L"/><g class="N"><path d="M525.184 117.46l5.697-3.289 4.239 7.341-5.697 3.289z"/><rect x="517.446" y="104.908" width="18.564" height="12.715" rx="3.095"/></g><g fill="#0d1c1c" class="B"><path d="M536.095,107.116c0-1.687-1.368-3.055-3.055-3.055h-3.726v13.563h3.726c1.687,0,3.055-1.368,3.055-3.055v-7.453Z"/><path d="M546.268 98.297h-8.726a4.84 4.84 0 0 0-4.837 4.837v1.774h8.726a4.84 4.84 0 0 0 4.837-4.837v-1.774z"/></g><circle cx="530.769" cy="112.777" r="3.151" transform="matrix(.939603 -.342266 .342266 .939603 -6.543 188.477)" class="N"/><g fill="#0d1c1c"><path d="M536.095 107.365c0-1.825-1.479-3.304-3.304-3.304h-11.958c-1.348 0-2.641.536-3.594 1.489s-1.489 2.246-1.489 3.594v.003h20.345v-1.782z" class="B"/><path d="M520.837 109.994h1.695v3.391h-1.695z"/></g><path d="M537.988 118.804c-.647-1.12-2.079-1.504-3.2-.857l-7.689 4.439c-1.12.647-1.504 2.079-.857 3.2l6.776 11.737 12.274-5.866-7.305-12.652z" class="B f"/><g clip-path="url(#J)" class="B"><path d="M533.867 125.426c.111-.262.323-.468.587-.573s.56-.099.821.015l.924.406-4.959 11.654c-.037.087-.138.127-.225.09l-.804-.342c-.254-.108-.455-.313-.559-.57a1.04 1.04 0 0 1 .008-.798l4.206-9.883z" fill="#df9e4b"/></g><g class="B"><path d="M546.613 133.743c.836 1.448.791 3.242-.117 4.646l-3.09 4.777 1.884 3.12-4.736 2.74-3.301-4.622a2.65 2.65 0 0 1-.018-3.054l7.529-10.81 1.849 3.202z" fill="#386e5b"/><path d="M545.849 144.906a.86.86 0 0 0-.521-.4c-.22-.059-.454-.028-.651.086l-5.73 3.309a.86.86 0 0 0-.4.521c-.059.22-.028.454.086.651l.837 1.45a.86.86 0 0 0 .521.4c.22.059.454.028.651-.086l5.73-3.309a.86.86 0 0 0 .4-.521c.059-.22.028-.454-.086-.651l-.837-1.45z" class="N"/><path d="M545.849 144.906l.837 1.45c.114.197.145.431.086.651a.86.86 0 0 1-.4.521l-5.73 3.309c-.197.114-.431.145-.651.086a.86.86 0 0 1-.521-.4l-.837-1.45c-.114-.197-.145-.431-.086-.651a.86.86 0 0 1 .4-.521l5.73-3.309c.197-.114.431-.145.651-.086a.86.86 0 0 1 .521.4z" fill="#d1d1d1"/><path d="M545.748 132.245a4.45 4.45 0 0 1 .445 3.38c-.306 1.141-1.052 2.114-2.075 2.705l-12.27 7.084 1.576 2.61-4.997 2.105-3.473-4.863c-.435-.609-.592-1.374-.433-2.105a2.65 2.65 0 0 1 1.27-1.733l18.973-10.887.984 1.704z" fill="#52896b"/><path d="M534.104 124.872c.269-.633.275-1.346.017-1.983a2.58 2.58 0 0 0-1.394-1.411c-1.283-.538-2.749.056-3.29 1.327l-2.974 6.988c-.229.537-.756.885-1.339.885h-3.566v4.747h6.373c1.02 0 1.941-.609 2.34-1.547l3.833-9.006z" class="f"/><path d="M521.557 130.678h-1.021a2.37 2.37 0 0 0-2.37 2.37v.004c0 .629.25 1.233.695 1.678s1.049.695 1.678.695h1.017v-4.747z" class="N"/><path d="M537.035 117.817c-.681-.096-1.372.083-1.92.497s-.909 1.031-1.002 1.712c-.188 1.378.766 2.64 2.133 2.834l7.52 1.064c.578.082 1.051.501 1.202 1.065l.923 3.444 4.586-1.229-1.649-6.156c-.264-.985-1.09-1.717-2.1-1.86l-9.692-1.372z" class="f"/><path d="M545.891 128.433l.263.982a2.37 2.37 0 0 0 2.907 1.678c.608-.163 1.126-.561 1.441-1.106a2.37 2.37 0 0 0 .237-1.801l-.263-.983-4.586 1.229z" class="N"/></g><rect x="999.167" y="113.353" width="58.573" height="14.108" rx="7.054" class="L"/><path d="M1006.221,127.461h44.466c3.88,0,7.054-3.174,7.054-7.054s-3.174-7.054-7.054-7.054h-44.466c-3.88,0-7.054,3.174-7.054,7.054s3.174,7.054,7.054,7.054Z" class="D I J K P Z"/><g class="B"><path d="M1023.094 93.362h9.344v25.684c0 1.229-.489 2.416-1.369 3.296-.88.866-2.067 1.369-3.296 1.369h-.014c-1.229 0-2.416-.503-3.296-1.369-.866-.88-1.369-2.067-1.369-3.296V93.362z" class="Q"/><g class="E"><use href="#AI"/><use href="#AJ"/></g></g><g clip-path="url(#K)" class="B R"><path d="M1025.873 47.874c.782-.922 1.927-1.439 3.129-1.439a4.09 4.09 0 0 1 3.128 1.439c6.969 8.128 23.184 28.086 23.184 37.835 0 10.67-11.788 19.329-26.312 19.329s-26.327-8.659-26.327-19.329c0-9.748 16.215-29.706 23.198-37.835z" class="S"/></g><g class="B"><g class="E"><use href="#AK"/><path d="M1053.261,97.412c-.698-1.089-2.137-1.397-3.226-.712-1.075.698-1.397,2.151-.698,3.226l4.162,6.508c.698,1.075,2.151,1.397,3.226.698,1.089-.698,1.397-2.137.712-3.226l-4.176-6.494Z"/></g><g class="T"><path d="M1026.67 105.038c0-1.285 1.047-2.332 2.332-2.332s2.332 1.047 2.332 2.332v2.332c0 1.285-1.047 2.332-2.332 2.332s-2.332-1.047-2.332-2.332v-2.332z" class="F"/><use href="#AL" class="F"/><use href="#AM" class="F"/><use href="#AN" class="F"/><use href="#AO" class="F"/><use href="#AP" class="F"/><use href="#AQ" class="F"/></g><use href="#AR" class="C"/></g><g clip-path="url(#L)" class="B"><path d="M1025.887 37.343c.782-.908 1.913-1.425 3.115-1.425a4.12 4.12 0 0 1 3.114 1.425c6.089 7.039 18.98 22.877 18.98 30.712 0 8.827-9.902 15.977-22.095 15.977-12.207 0-22.109-7.151-22.109-15.977 0-7.835 12.891-23.673 18.994-30.712z" class="H W"/><path d="M1025.524 30.989a4.07 4.07 0 0 1 3.478-1.927 4.11 4.11 0 0 1 3.478 1.927c6.229 9.553 18.617 29.832 18.617 39.985 0 11.634-9.902 21.089-22.095 21.089-12.207 0-22.109-9.455-22.109-21.089 0-10.153 12.402-30.432 18.631-39.985z" class="X"/><g class="C"><path d="M1040.915 82.175c-.642-1.117-.265-2.556.852-3.198s2.542-.251 3.184.852l2.332 4.05c.656 1.117.265 2.542-.852 3.184a2.33 2.33 0 0 1-3.184-.852l-2.332-4.036z"/><use href="#AS" class="H"/><use href="#AT" class="H"/><use href="#AU" class="H"/><path d="M1012.592 79.047c.656-1.103 2.081-1.494 3.198-.852s1.494 2.081.852 3.198l-2.025 3.492a2.33 2.33 0 1 1-4.036-2.332l2.011-3.506z"/></g></g><path d="M1025.147 46.868a3.93 3.93 0 0 1 6.536 0l13.715 20.6c0 3.827-2.584 7.235-6.606 9.413-2.863 1.55-6.466 2.486-10.377 2.486-9.371 0-16.983-5.335-16.983-11.899l13.715-20.6z" class="B g"/><g clip-path="url(#M)"><g class="b"><rect x="1013.765" y="42.022" width="29.748" height="30.041" rx="14.706" opacity=".55"/><g class="B"><path d="M1027.661 56.659c-.349-1.243.377-2.528 1.62-2.877s2.528.377 2.877 1.62l.196.671c.335 1.243-.391 2.528-1.62 2.877-1.243.349-2.528-.377-2.877-1.62l-.196-.67z"/></g></g><g class="c B"><path d="M1033.094 61.812a2.34 2.34 0 0 1 1.117-3.114c1.159-.545 2.556-.056 3.1 1.117l1.006 2.109c.545 1.159.056 2.556-1.117 3.1-1.159.559-2.556.056-3.101-1.103l-1.006-2.109zm-7.667 3.548a2.34 2.34 0 0 1 2.346-2.332c1.285 0 2.332 1.047 2.332 2.332v2.332a2.34 2.34 0 0 1-2.332 2.346 2.34 2.34 0 0 1-2.346-2.346V65.36zm-4.693-7.849c.642-1.117 2.081-1.494 3.184-.852a2.35 2.35 0 0 1 .852 3.198l-1.173 2.011a2.35 2.35 0 0 1-3.198.852c-1.103-.656-1.494-2.081-.838-3.198l1.173-2.011z"/></g></g><g class="B"><g class="g"><path d="M1031.334 79.186c0-1.299-1.047-2.332-2.332-2.332s-2.332 1.033-2.332 2.332v.182c0 1.285 1.047 2.332 2.332 2.332s2.332-1.047 2.332-2.332v-.182zm12.402-5.684c-.489-1.201-1.857-1.774-3.045-1.285-1.201.475-1.774 1.844-1.285 3.031l.07.182c.489 1.187 1.843 1.76 3.045 1.285a2.36 2.36 0 0 0 1.285-3.045l-.07-.168zm-30.237-.028c.489-1.187 1.858-1.774 3.045-1.285a2.33 2.33 0 0 1 1.285 3.045l-.07.168c-.489 1.187-1.843 1.774-3.031 1.285a2.33 2.33 0 0 1-1.285-3.045l.056-.168zm33.687-5.712c-.698-1.089-2.137-1.397-3.226-.712a2.33 2.33 0 0 0-.698 3.226l.098.154c.698 1.089 2.137 1.397 3.226.712 1.075-.698 1.397-2.151.698-3.226l-.098-.154z"/></g><g class="C"><path d="M1052.968 84.954c-.698-1.089-2.137-1.397-3.226-.712a2.33 2.33 0 0 0-.698 3.226l.098.154a2.33 2.33 0 0 0 3.226.712 2.34 2.34 0 0 0 .698-3.226l-.098-.154zm-48.393 0c.685-1.089 2.137-1.397 3.212-.712 1.089.698 1.411 2.151.712 3.226l-.098.154c-.698 1.089-2.151 1.411-3.226.712-1.089-.698-1.397-2.137-.712-3.226l.112-.154z"/><use href="#AV"/><use href="#AW"/></g><use href="#AX" class="E"/><g class="C"><use href="#AY"/><use href="#AZ"/></g><g class="E"><use href="#Aa"/><use href="#Ab"/></g><g class="C"><use href="#Ac"/><use href="#Ad"/></g><use href="#Ae" class="E"/><g class="C"><use href="#Af"/><use href="#Ag"/></g><use href="#Ah" class="E"/><g class="g"><path d="M1010.05 67.734c.698-1.089 2.137-1.397 3.226-.698 1.089.684 1.397 2.137.698 3.212l-.098.168a2.34 2.34 0 0 1-3.226.698 2.34 2.34 0 0 1-.698-3.226l.098-.154zm28.491 9.72c-.21-1.271-1.411-2.137-2.682-1.927s-2.123 1.411-1.913 2.682l.028.182c.21 1.271 1.411 2.137 2.682 1.927s2.137-1.411 1.913-2.682l-.028-.182zm-19.846-.027c.209-1.271 1.411-2.137 2.681-1.927a2.33 2.33 0 0 1 1.913 2.696l-.028.182c-.209 1.271-1.41 2.123-2.681 1.913s-2.123-1.411-1.913-2.682l.028-.182z"/></g></g><rect x="966.834" y="20.12" width="58.573" height="14.108" rx="7.054" class="L"/><path d="M973.888,34.228h44.466c3.88,0,7.054-3.174,7.054-7.054s-3.174-7.054-7.054-7.054h-44.466c-3.88,0-7.054,3.174-7.054,7.054s3.174,7.054,7.054,7.054Z" class="D I J K P Z"/><g class="B"><path d="M990.761.13h9.344v25.684c0 1.229-.489 2.416-1.369 3.296-.88.866-2.067 1.369-3.296 1.369h-.014c-1.229 0-2.416-.503-3.296-1.369-.866-.88-1.369-2.067-1.369-3.296V.13z" class="Q"/><g class="E"><path d="M972.144 2.741c.684-1.089 2.137-1.397 3.212-.712 1.089.698 1.411 2.151.712 3.226l-5 7.807c-.684 1.089-2.137 1.411-3.212.712a2.33 2.33 0 0 1-.712-3.226l5-7.807z"/><path d="M992.591-29.437a4.13 4.13 0 0 1 3.492-1.927 4.15 4.15 0 0 1 3.492 1.927l22.821 35.921c0 10.656-11.787 19.315-26.312 19.315s-26.312-8.659-26.312-19.315l22.821-35.921z"/></g></g><g clip-path="url(#N)" class="B R"><path d="M993.54-45.358c.782-.922 1.927-1.439 3.129-1.439s2.346.517 3.128 1.439c6.969 8.128 23.184 28.086 23.184 37.835 0 10.67-11.788 19.329-26.312 19.329s-26.327-8.659-26.327-19.329c0-9.748 16.215-29.706 23.198-37.835z" class="S"/></g><g class="B"><g class="E"><path d="M1005.104 21.358c-.14-1.285-1.299-2.207-2.57-2.081-1.285.14-2.221 1.299-2.081 2.57l.433 3.994c.14 1.271 1.285 2.207 2.57 2.067s2.207-1.285 2.067-2.57l-.419-3.981zm15.824-17.178c-.698-1.089-2.137-1.397-3.226-.712-1.075.698-1.397 2.151-.698 3.226l4.162 6.508c.698 1.075 2.151 1.397 3.226.698 1.089-.698 1.397-2.137.712-3.226l-4.176-6.494z"/></g><g class="T"><path d="M994.336 11.805c0-1.285 1.047-2.332 2.332-2.332S999 10.52 999 11.805v2.332c0 1.285-1.047 2.332-2.332 2.332s-2.332-1.047-2.332-2.332v-2.332zm-8.072 4.386c.154-1.271 1.327-2.179 2.598-2.025 1.285.154 2.193 1.327 2.025 2.598l-.279 2.318a2.33 2.33 0 0 1-2.612 2.025c-1.271-.154-2.179-1.327-2.025-2.598l.293-2.318zm20.642 0c-.154-1.271-1.327-2.179-2.598-2.025a2.34 2.34 0 0 0-2.039 2.598l.293 2.318c.154 1.285 1.327 2.193 2.598 2.025a2.34 2.34 0 0 0 2.039-2.598l-.293-2.318zm-26.745-9.26c.377-1.229 1.69-1.913 2.919-1.536a2.34 2.34 0 0 1 1.522 2.933l-.978 3.114a2.34 2.34 0 0 1-2.933 1.522c-1.229-.377-1.913-1.69-1.522-2.919l.992-3.114zm31.508 1.048a2.34 2.34 0 0 0-2.933-1.522 2.34 2.34 0 0 0-1.522 2.933l.978 3.114a2.34 2.34 0 0 0 2.933 1.522c1.229-.391 1.913-1.69 1.522-2.919l-.978-3.128zm-37.276-5.447a2.331 2.331 0 1 1 4.036 2.332l-2.109 3.659a2.331 2.331 0 1 1-4.036-2.332l2.109-3.659zm43.002-.126a2.331 2.331 0 1 0-4.036 2.332l2.109 3.659c.642 1.117 2.081 1.494 3.198.852 1.103-.643 1.494-2.067.852-3.184l-2.123-3.659z" class="F"/></g><path d="M993.191-37.691a4.15 4.15 0 0 1 3.478-1.886c1.397 0 2.709.712 3.464 1.886l18.631 28.854c0 8.813-9.902 15.977-22.095 15.977-12.207 0-22.109-7.165-22.109-15.977l18.631-28.854z" class="C"/></g><g clip-path="url(#O)" class="B C"><path d="M1003.051-2.538c-.433-1.215.224-2.542 1.439-2.975 1.215-.419 2.542.237 2.961 1.453l.768 2.207a2.33 2.33 0 0 1-1.438 2.961c-1.215.419-2.556-.223-2.975-1.438l-.754-2.207zm-9.958-1.997a2.34 2.34 0 0 1 2.346-2.332c1.285 0 2.332 1.047 2.332 2.332v2.332c0 1.299-1.047 2.332-2.332 2.332a2.33 2.33 0 0 1-2.346-2.332v-2.332zm-9.175.391a2.34 2.34 0 0 1 3.031-1.327c1.201.461 1.788 1.816 1.327 3.017l-.852 2.179c-.461 1.201-1.816 1.788-3.017 1.327-1.201-.475-1.802-1.816-1.327-3.017l.838-2.179z" class="H"/></g><g class="B"><g class="C"><path d="M1013.037 1.959a2.34 2.34 0 0 0-3.226-.698c-1.089.698-1.397 2.137-.698 3.226l.098.154c.684 1.075 2.137 1.397 3.226.698a2.34 2.34 0 0 0 .698-3.226l-.098-.154zm-33.198 0a2.34 2.34 0 0 1 3.226-.698 2.34 2.34 0 0 1 .698 3.226l-.098.154a2.34 2.34 0 0 1-3.226.698c-1.089-.698-1.397-2.137-.698-3.226l.098-.154z"/></g><path d="M973.918 13.719c.726-1.061 2.179-1.341 3.24-.614a2.35 2.35 0 0 1 .615 3.254l-1.844 2.682a2.32 2.32 0 0 1-3.24.614c-1.061-.726-1.341-2.179-.615-3.24l1.844-2.696z" class="E"/><g class="C"><path d="M1007.842 5.074c-.377-1.229-1.69-1.927-2.919-1.55s-1.927 1.69-1.536 2.919l.056.182a2.32 2.32 0 0 0 2.905 1.536c1.243-.377 1.927-1.69 1.55-2.919l-.056-.168zm-22.807 0a2.34 2.34 0 0 1 2.919-1.55c1.229.377 1.914 1.69 1.536 2.919l-.056.182c-.377 1.229-1.69 1.913-2.919 1.536s-1.913-1.69-1.536-2.919l.056-.168z"/></g><g class="E"><path d="M980.356 21.554c.391-1.229 1.69-1.913 2.919-1.536s1.927 1.69 1.55 2.919l-.056.182c-.377 1.229-1.69 1.913-2.919 1.536s-1.927-1.69-1.536-2.919l.042-.182zm32.304-2.221a2.33 2.33 0 0 0-2.919-1.536c-1.229.377-1.913 1.69-1.536 2.919l.922 3.003c.391 1.229 1.69 1.927 2.919 1.55 1.243-.391 1.927-1.69 1.55-2.919l-.936-3.017z"/></g><g class="C"><path d="M1001.766 7.308c-.14-1.285-1.299-2.207-2.57-2.067a2.33 2.33 0 0 0-2.081 2.57l.028.182c.14 1.271 1.285 2.207 2.57 2.067 1.271-.14 2.207-1.285 2.067-2.57l-.014-.182zm-10.656 0c.14-1.285 1.285-2.207 2.57-2.067 1.285.126 2.207 1.285 2.067 2.57l-.014.182c-.14 1.271-1.285 2.207-2.57 2.067s-2.207-1.285-2.067-2.57l.014-.182z"/></g><path d="M986.445 23.802c.14-1.285 1.285-2.221 2.57-2.081s2.207 1.299 2.067 2.57l-.014.195c-.14 1.271-1.299 2.207-2.57 2.067-1.285-.14-2.207-1.299-2.081-2.57l.028-.182z" class="E"/><g class="C"><path d="M1017.827-2.357c-.684-1.075-2.137-1.397-3.212-.698a2.33 2.33 0 0 0-.712 3.226l.098.154a2.33 2.33 0 0 0 3.226.698c1.089-.684 1.397-2.137.712-3.226l-.112-.154zm-42.792 0a2.34 2.34 0 0 1 3.226-.698c1.089.698 1.397 2.137.698 3.226l-.098.154c-.698 1.089-2.137 1.397-3.226.698-1.075-.684-1.397-2.137-.698-3.226l.098-.154z"/></g><path d="M1017.506 13.677a2.34 2.34 0 0 0-3.226-.698c-1.089.698-1.397 2.137-.712 3.226l2.793 4.33c.698 1.089 2.137 1.397 3.226.712 1.075-.698 1.397-2.151.698-3.226l-2.779-4.343z" class="E"/><use href="#Ai" class="C"/></g><use href="#Ai" stroke-width="2.51" class="D M d"/><g class="B"><path d="M1345.508 62.706l20.878-38.459a1.58 1.58 0 0 1 2.963.753v80.988c0 2.499.993 4.895 2.759 6.662a9.42 9.42 0 0 0 6.662 2.759h16.93l-26.351 40.154h-5.509a18.33 18.33 0 0 1-18.332-18.332V62.706z" class="Y"/><path d="M1366.981 120.146a8.57 8.57 0 0 1 7.666-4.738h61.271c2.295 0 4.419 1.21 5.591 3.183l13.077 22.024c1.816 3.058 1.851 6.856.091 9.948s-5.043 5-8.6 5h-80.792c-3.43 0-6.615-1.776-8.418-4.693s-1.967-6.56-.433-9.628l10.548-21.095z" class="e"/><path d="M1425.35 155.562l13.143-36.984a1.58 1.58 0 0 1 1.333-1.042c.609-.059 1.197.239 1.509.765l21.897 36.912a9.42 9.42 0 0 0 8.103 4.614h20.985l-26.351 40.154h-6.57a16.44 16.44 0 0 1-14.42-8.547l-19.63-35.873z" class="Y"/></g></g></svg>