<svg xmlns="http://www.w3.org/2000/svg" width="1500" height="145" xmlns:v="https://vecta.io/nano"><style><![CDATA[.B{fill-rule:evenodd}.C{opacity:.5}.D{fill:none}.E{fill:#96a1a2}.F{fill:#f1f7ff}.G{fill:#aebabc}.H{fill:#d1e2e9}.I{stroke-linecap:round}.J{stroke-linejoin:round}.K{fill:#5ac4ca}.L{fill:#d0ebf4}.M{fill:#f0bd42}.N{stroke:#ebf5f7}.O{stroke-width:10}]]></style><defs><clipPath id="A"><path d="M0 0h1500v145H0z" class="D"/></clipPath><clipPath id="B"><path d="M864.758 171.291H755.583l1.59-6.593c.248-1.027.878-1.905 1.772-2.468l10.767-6.907 22.13-37.402a11.53 11.53 0 0 1 3.263-3.495l4.124-2.866c1.955-1.358 4.638-.762 5.847 1.275l17.194 28.938 5.731-3.578c.795-.48 1.706-.745 2.634-.745h5.682c1.342 0 2.584.762 3.197 1.971l12.423 24.465 3.296-3.131c1.756-1.656 4.655-1.06 5.582 1.176l3.942 9.359z" class="D"/></clipPath><clipPath id="C"><path d="M175.032 148.542c.086-1.028.651-1.131 1.542-1.491l6.53-2.725 3.154-1.371c.682-.291 4.724-2.877 9.904-2.228 2.716.34 6.826 2.255 8.525 3.205 1.197.669 2.111 1.74 2.593 3.024l1.001 2.666h-33.319l.069-1.08z" class="D"/></clipPath><clipPath id="D"><path d="M147.784 110.287l3.824-3.522a4.91 4.91 0 0 1 4.466-1.165l6.803 2.579 6.725-4.818a4.36 4.36 0 0 1 4.63-.294l11.246 5.91 4.73.977c1.097.223 2.177.497 3.205.857l7.61 2.537c1.217.428 2.108 1.217 2.399 2.177l.634 2.005h-60.262l2.029-4.821c.266-.892 1.339-1.85 1.959-2.421z" class="D"/></clipPath><clipPath id="E"><path d="M1375.022 103.654h-109.175l1.59-6.593c.248-1.027.878-1.905 1.772-2.468l10.767-6.907 22.13-37.402a11.53 11.53 0 0 1 3.263-3.495l4.124-2.866c1.955-1.358 4.638-.762 5.847 1.275l17.194 28.938 5.731-3.578c.795-.48 1.706-.745 2.634-.745h5.682c1.342 0 2.584.762 3.197 1.971l12.423 24.465 3.296-3.131c1.756-1.656 4.655-1.06 5.582 1.176l3.942 9.359z" class="D"/></clipPath><path id="F" d="M799.164 140.883l.059-26.25c.007-3.115 4.183-4.509 5.817-1.858l.037.061 25.676 43.153c2.569 4.318-2.17 9.282-6.602 6.915l-17.36-9.27a14.42 14.42 0 0 1-7.627-12.752z"/><path id="G" d="M171.82 103.27h-4.394v3.798c0 .547.217 1.071.604 1.457s.911.604 1.457.604h4.803c.365 0 .697-.206.861-.532s.127-.716-.091-1.008l-3.24-4.319z"/><path id="H" d="M643.13 106.602l.323-2.874-8.231 8.231a5.75 5.75 0 0 0-1.684 4.064v9.115a4.31 4.31 0 0 0 4.311 4.311v-14.388a4.26 4.26 0 0 1 .851-2.554l4.429-5.906z"/><path id="I" d="M649.813 106.602l-.323-2.874 8.231 8.231a5.75 5.75 0 0 1 1.684 4.064v9.115a4.31 4.31 0 0 1-4.311 4.311v-14.388a4.26 4.26 0 0 0-.851-2.554l-4.429-5.906z"/></defs><g clip-path="url(#A)"><path d="M-40.704-2595.384h1571.886v3937.779H-40.704z" fill="#5bd1d6"/><path d="M1277.623 58.364h8.205c32.154 0 58.22-26.066 58.22-58.22v-16.185c0-34.42 27.903-62.323 62.323-62.323h154.74v-1795.533h0-404.217c-17.488 0-31.666-14.177-31.666-31.666h0c0-17.489-14.177-31.666-31.666-31.666h-52.418c-22.776 0-41.239-18.463-41.239-41.239h0c0-22.776-18.463-41.239-41.239-41.239h-39.928c-22.776 0-41.239-18.463-41.239-41.239v-30.651c0-23.58-19.115-42.695-42.695-42.695H638.901c-27.867 0-50.458 22.591-50.458 50.458v.873c0 27.867-22.591 50.458-50.458 50.458H349.729c-27.867 0-50.458-22.591-50.458-50.458v-26.987c0-27.867-22.591-50.458-50.458-50.458H-77.456L-95.722 35.465c-.483 21.282 16.638 38.795 37.925 38.795h271.651c42.401 0 76.774 34.373 76.774 76.774h0c0 42.401 34.373 76.774 76.774 76.774h297.815c35.348 0 64.002-28.655 64.002-64.002h0c0-35.348 28.655-64.002 64.002-64.002h217.647c35.348 0 64.002 28.655 64.002 64.002v53.579c0 37.513 30.41 67.924 67.924 67.924h418.317v-92.906h0-283.489c-32.154 0-58.22-26.066-58.22-58.22v-17.597c0-32.154 26.066-58.22 58.22-58.22z" fill="#7ee5e3"/><path d="M984.015-1844.787c-74.904 0-135.625-60.721-135.625-135.625v-12.015c0-14.122-11.449-25.571-25.571-25.571h-9.435c-6.635 0-12.014-5.379-12.014-12.014h0c0-6.635-5.379-12.014-12.014-12.014h-20.754c-20.758 0-37.585-16.827-37.585-37.585h0c0-14.123-11.449-25.571-25.571-25.571h-66.544c-11.79 0-21.347 9.558-21.347 21.347v.874c0 43.944-35.624 79.568-79.568 79.568H349.731c-43.944 0-79.568-35.624-79.568-79.568v-26.987c0-11.79-9.558-21.347-21.347-21.347H-48.967L-66.62 36.124c-.073 3.231 1.542 5.378 2.512 6.37s3.079 2.656 6.311 2.656h271.651c58.316 0 105.772 47.388 105.884 105.678.05 26.328 21.336 47.87 47.664 47.87h297.814c19.245 0 34.906-15.581 34.892-34.826-.036-51.373 41.748-93.179 93.113-93.179h217.647c51.425 0 93.113 41.688 93.113 93.113v58.431c0 18.757 15.205 33.962 33.962 33.962h18.387c18.757 0 33.962-15.205 33.962-33.962V116.585c0-48.231 39.099-87.33 87.33-87.33h8.205c16.077 0 29.11-13.033 29.11-29.11V-16.04c0-50.416 41.017-91.432 91.433-91.432H1532v-1737.314H984.013z" fill="#ebf5f7"/><path d="M-49.048-2121.29L-66.62 36.124c-.073 3.231 1.542 5.378 2.512 6.37s3.079 2.656 6.311 2.656h271.651c58.316 0 105.772 47.388 105.884 105.678.05 26.328 21.336 47.87 47.664 47.87h297.814c19.245 0 34.906-15.581 34.892-34.826-.036-51.373 41.748-93.179 93.112-93.179h217.647c51.425 0 93.113 41.688 93.113 93.113v58.43c0 18.757 15.205 33.962 33.962 33.962h18.387c18.757 0 33.962-15.205 33.962-33.962V116.584c0-48.231 39.099-87.33 87.33-87.33h8.205c16.077 0 29.11-13.033 29.11-29.11v-16.185c0-50.416 41.017-91.432 91.433-91.432h120.627" stroke-dasharray="0 10.006" class="D I J N O"/><path d="M-57.317 120.827H85.169c25.438 0 46.059 20.622 46.059 46.059h0c0 25.438 20.622 46.06 46.059 46.06h35.546c16.481 0 29.842 13.361 29.842 29.842v17.653c0 16.481-13.361 29.842-29.842 29.842h-23.372c-16.481 0-29.842 13.361-29.842 29.842h0c0 16.481-13.361 29.842-29.842 29.842H-57.317c-16.481 0-29.842-13.361-29.842-29.842V150.669c0-16.481 13.361-29.842 29.842-29.842z" class="K"/><g clip-path="url(#B)"><path d="M864.758 171.291H755.583l1.59-6.593c.248-1.027.878-1.905 1.772-2.468l10.767-6.907 22.13-37.402a11.53 11.53 0 0 1 3.263-3.495l4.124-2.866c1.955-1.358 4.638-.762 5.847 1.275l17.194 28.938 5.731-3.578c.795-.48 1.706-.745 2.634-.745h5.682c1.342 0 2.584.762 3.197 1.971l12.423 24.465 3.296-3.131c1.756-1.656 4.655-1.06 5.582 1.176l3.942 9.359z" class="F"/><g class="L"><rect x="769.757" y="99.161" width="21.726" height="66.111" rx="10.863" class="C"/><rect x="822.242" y="127.36" width="8.302" height="25.262" rx="4.151" class="C"/></g><g class="F"><use href="#F"/><path d="M839.415 171.291v-31.87l16.329 31.87h-16.329z"/></g></g><rect x="169.805" y="144.764" width="44.16" height="9.715" rx="4.858" transform="matrix(-1 0 0 -1 383.77 299.243)" class="K"/><g clip-path="url(#C)"><path d="M175.032 148.542c.086-1.028.651-1.131 1.542-1.491l6.53-2.725 3.154-1.371c.682-.291 4.724-2.877 9.904-2.228 2.716.34 6.826 2.255 8.525 3.205 1.197.669 2.111 1.74 2.593 3.024l1.001 2.666h-33.319l.069-1.08z" class="F"/><path d="M180.571 123.842a6.54 6.54 0 0 1 6.518 6.518v12.947a6.54 6.54 0 0 1-6.518 6.518h-6.865a6.54 6.54 0 0 1-6.518-6.518" class="C L"/></g><rect x="137.421" y="114.584" width="73.011" height="9.715" rx="4.858" transform="matrix(-1 0 0 -1 347.853 238.882)" class="K"/><g clip-path="url(#D)"><path d="M147.784 110.287l3.824-3.522a4.91 4.91 0 0 1 4.466-1.165l6.803 2.579 6.725-4.818a4.36 4.36 0 0 1 4.63-.294l11.246 5.91 4.73.977c1.097.223 2.177.497 3.205.857l7.61 2.537c1.217.428 2.108 1.217 2.399 2.177l.634 2.005h-60.262l2.029-4.821c.266-.892 1.339-1.85 1.959-2.421z" class="F"/><g class="L"><rect x="185.328" y="96.489" width="6.351" height="18.844" rx="3.176" transform="matrix(-1 0 0 -1 377.008 211.821)" class="C"/><rect x="156.131" y="92.68" width="6.687" height="20.348" rx="3.344" transform="matrix(-1 0 0 -1 318.949 205.709)" class="C"/><path d="M100.508 111.213V98.266a6.54 6.54 0 0 1 6.518-6.518h6.865m28.454 26.706v-7.727c0-1.839 3.812-1.839 3.812 0v7.727c0 1.839-1.505 3.344-3.344 3.344h0" class="C"/></g><path d="M122.082 128.683a2 2 0 0 1-1.993 1.993h0a2 2 0 0 1-1.993-1.993" fill="#c1e0ee"/></g><g stroke="#5ac4ca" stroke-width="4.821" class="D I J"><path d="M1432.039 117.605h-11.847m-25.411 0h13.89m33.361 0h-.824m-26.167-15.058h4.911m16.345 0h.824"/></g><path d="M195.257 108.559c0-.237-.094-.465-.262-.633s-.396-.262-.633-.262h-6.429l-6.59-5.868a5.75 5.75 0 0 0-3.825-1.456h-13.022l-.343-1.908 2.643-.57c.415-.089.747-.4.866-.807s.003-.848-.3-1.145l-2.985-2.929a5 5 0 0 0-3.498-1.43h-.1a5.42 5.42 0 0 0-5.408 5.059l-.686 10.271a6.23 6.23 0 0 0 1.667 4.669c1.178 1.259 2.824 1.973 4.548 1.973h33.462c.494 0 .895-.401.895-.895v-4.069z" class="B G"/><path d="M158.642 94.481h4.375v1.465h-4.375z"/><g class="E"><path d="M188.496 109.749h6.761v1.69h-6.761z"/><use href="#G" class="B"/></g><rect x="632.271" y="132.65" width="28.4" height="7.158" rx="3.579" fill="#bcdae3"/><path d="M639.287 133.76h5.748v2.874h-5.748z"/><path d="M650.782,107.894h-8.622l-4.311,4.94v18.892c0,1.123.91,2.033,2.033,2.033h13.177c1.123,0,2.033-.91,2.033-2.033v-19.521l-4.311-4.311Z" fill="#e8e8e8" class="B"/><path d="M647.908 133.76h5.748v2.874h-5.748z"/><g class="B"><path d="M654.766,102.146c0-1.587-1.287-2.874-2.874-2.874h-6.622v2.874h9.496Z" class="M"/><path d="M652.219,107.894h-11.496v4.311c0,3.174,2.573,5.748,5.748,5.748s5.748-2.573,5.748-5.748v-4.311Z" fill="#f4d345"/><path d="M650.782 102.146a4.31 4.31 0 0 0-4.311-4.311 4.31 4.31 0 0 0-4.311 4.311v5.748h8.622v-5.748z"/><use href="#H"/><use href="#I"/><path d="M609.809 130.886h8.622l4.311 4.94v18.892c0 1.123-.91 2.033-2.033 2.033h-13.177c-1.123 0-2.033-.91-2.033-2.033v-19.521l4.311-4.311z" fill="#e8e8e8"/><path d="M605.825 125.138c0-1.587 1.287-2.874 2.874-2.874h6.622v2.874h-9.496z" class="M"/><path d="M608.372 130.886h11.496v4.311a5.75 5.75 0 0 1-5.748 5.748 5.75 5.75 0 0 1-5.748-5.748v-4.311z" fill="#f4d345"/><path d="M609.809 125.138a4.31 4.31 0 0 1 4.311-4.311 4.31 4.31 0 0 1 4.311 4.311v5.748h-8.622v-5.748z"/><path d="M617.461 129.593l-.323-2.874 8.231 8.231a5.75 5.75 0 0 1 1.684 4.064v9.115a4.31 4.31 0 0 1-4.311 4.311v-14.388a4.26 4.26 0 0 0-.851-2.554l-4.429-5.906zm-6.683 0l.323-2.874-8.231 8.231a5.75 5.75 0 0 0-1.684 4.064v9.115a4.31 4.31 0 0 0 4.311 4.311v-14.388a4.26 4.26 0 0 1 .851-2.554l4.429-5.906z"/><path d="M633.274 145.171c0-.876.71-1.585 1.585-1.585h3.653v1.585h-5.238z" class="M"/><path d="M635.471 145.171a2.38 2.38 0 0 1 2.379-2.379 2.38 2.38 0 0 1 2.379 2.379v3.171h-4.756v-3.171z"/><path d="M601.801 145.171c0-.876-.71-1.585-1.585-1.585h-3.653v1.585h5.238z" class="M"/><path d="M599.604 145.171a2.38 2.38 0 0 0-2.379-2.379 2.38 2.38 0 0 0-2.379 2.379v3.171h4.756v-3.171z"/></g><rect x="239.213" y="24.297" width="53.707" height="12.201" rx="6.1" class="H"/><path d="M286.651 26.656c0-.237-.094-.465-.262-.633s-.396-.262-.633-.262h-6.429l-6.59-5.868a5.75 5.75 0 0 0-3.825-1.456H255.89l-.343-1.908 2.643-.57c.415-.089.747-.4.866-.807s.003-.848-.3-1.145l-2.985-2.929a5 5 0 0 0-3.498-1.43h-.1a5.42 5.42 0 0 0-5.408 5.059l-.686 10.271a6.23 6.23 0 0 0 1.667 4.669c1.178 1.259 2.824 1.973 4.548 1.973h33.462c.494 0 .895-.401.895-.895v-4.069z" class="B G"/><path d="M250.037 12.578h4.375v1.465h-4.375z"/><g class="E"><path d="M279.891 27.846h6.761v1.69h-6.761z"/><path d="M263.215 21.367h-4.394v3.798c0 .547.217 1.071.604 1.457s.911.604 1.457.604h4.803c.365 0 .697-.206.861-.532s.127-.716-.091-1.008l-3.24-4.319z" class="B"/></g><rect x="188.955" y="5.297" width="53.707" height="12.201" rx="6.1" transform="matrix(-1 0 0 -1 431.616 22.795)" class="H"/><path d="M195.223 7.657c0-.237.094-.465.262-.633s.396-.262.633-.262h6.429l6.59-5.868a5.75 5.75 0 0 1 3.825-1.456h13.022l.343-1.908-2.643-.57c-.415-.089-.747-.4-.866-.807s-.003-.848.3-1.145l2.985-2.929a5 5 0 0 1 3.498-1.43h.1a5.42 5.42 0 0 1 5.408 5.059l.686 10.271a6.23 6.23 0 0 1-1.667 4.669c-1.178 1.259-2.824 1.973-4.548 1.973h-33.462c-.494 0-.895-.401-.895-.895V7.657z" class="B G"/><g class="E"><path d="M195.222 8.847h6.761v1.69h-6.761z"/><path d="M218.66 2.368h4.394v3.798c0 .547-.217 1.071-.604 1.457s-.911.604-1.457.604h-4.803c-.365 0-.697-.206-.861-.532s-.127-.716.091-1.008l3.24-4.319z" class="B"/></g><rect x="207.792" y="27.825" width="26.273" height="5.969" rx="2.984" transform="matrix(-1 0 0 -1 441.858 61.618)" class="H"/><path d="M210.859 28.979a.44.44 0 0 1 .128-.31c.082-.082.193-.128.31-.128h3.145l3.224-2.871a2.81 2.81 0 0 1 1.871-.712h6.37l.168-.934-1.293-.279c-.203-.044-.365-.195-.424-.395s-.001-.415.147-.56l1.46-1.433c.457-.448 1.071-.699 1.711-.699h.049a2.65 2.65 0 0 1 2.646 2.475l.335 5.024a3.05 3.05 0 0 1-.815 2.284c-.576.616-1.382.965-2.225.965h-16.37a.44.44 0 0 1-.438-.438v-1.991z" class="B G"/><path d="M226.63 22.092h2.14v.717h-2.14z"/><g class="E"><path d="M210.858 29.561h3.307v.827h-3.307z"/><path d="M222.324 26.392h2.15v1.858a1.01 1.01 0 0 1-1.008 1.008h-2.35a.47.47 0 0 1-.421-.26c-.08-.159-.062-.35.044-.493l1.585-2.113z" class="B"/></g><g fill="#dcebf1"><rect x="572.573" y="72.753" width="21.993" height="7.762" rx="3.876"/><rect x="466.638" y="44.517" width="21.993" height="7.762" rx="3.876"/><path d="M523.52 80.515c0 4.287 3.475 7.762 7.762 7.762h20.699c4.287 0 7.762-3.475 7.762-7.762s-3.475-7.762-7.762-7.762h-20.699c-4.287 0-7.762 3.475-7.762 7.762z" class="B"/><rect x="529.279" y="-4" width="86.588" height="42.662" rx="12" stroke-dasharray="0 10" class="I J N O"/></g><g class="B"><path d="M590.329-29.245c-.701-4.557-4.622-7.921-9.233-7.921h-13.729a9.34 9.34 0 0 0-8.982 6.775l-2.493 8.727h-6.072a3.87 3.87 0 0 0-3.668 2.643l-8.69 26.069c-.348 1.044-.173 2.191.47 3.084a3.42 3.42 0 0 0 2.777 1.421h8.538l4.864 9.727a6.44 6.44 0 0 0 5.76 3.56h29.237c1.743 0 3.411-.706 4.624-1.958a6.44 6.44 0 0 0 1.813-4.683v-.003h7.56c.957 0 1.871-.401 2.519-1.105a3.42 3.42 0 0 0 .892-2.602l-1.481-17.767c-.24-2.883-2.65-5.1-5.543-5.1h-5.955l-3.21-20.868z" fill="#c0906b"/><path d="M571.394 6.235a3.54 3.54 0 0 0-3.538-3.538h-8.641a3.32 3.32 0 0 0-3.322 3.322 3.32 3.32 0 0 0 3.322 3.322h5.536v1.107a3.32 3.32 0 0 0 5.671 2.349 3.32 3.32 0 0 0 .973-2.349V6.236z" fill="#fff"/></g><rect x="934.624" y="8.169" width="58.573" height="14.108" rx="7.054" fill="#dcebf1"/><path d="M941.677,22.277h44.466c3.88,0,7.054-3.174,7.054-7.054s-3.174-7.054-7.054-7.054h-44.466c-3.88,0-7.054,3.174-7.054,7.054s3.174,7.054,7.054,7.054Z" stroke-dasharray="0 10.243" class="D I J N O"/><g class="B"><path d="M958.55-11.822h9.344v25.684c0 1.229-.489 2.416-1.369 3.296-.88.866-2.067 1.369-3.296 1.369h-.014c-1.229 0-2.416-.503-3.296-1.369-.866-.88-1.369-2.067-1.369-3.296v-25.684z" fill="#394319"/><g fill="#bee23b"><path d="M939.933-9.21c.684-1.089 2.137-1.397 3.212-.712 1.089.698 1.411 2.151.712 3.226l-5 7.807c-.684 1.089-2.137 1.411-3.212.712a2.33 2.33 0 0 1-.712-3.226l5-7.807z"/><path d="M960.38-41.388a4.13 4.13 0 0 1 3.492-1.927 4.15 4.15 0 0 1 3.492 1.927l22.821 35.921c0 10.656-11.787 19.315-26.312 19.315s-26.312-8.659-26.312-19.315l22.821-35.921z"/><path d="M972.894 9.407c-.14-1.285-1.299-2.207-2.57-2.081-1.285.14-2.221 1.299-2.081 2.57l.433 3.994c.14 1.271 1.285 2.207 2.57 2.067s2.207-1.285 2.067-2.57l-.419-3.981zm15.823-17.178c-.698-1.089-2.137-1.397-3.226-.712-1.075.698-1.397 2.151-.698 3.226l4.162 6.508c.698 1.075 2.151 1.397 3.226.698 1.089-.698 1.397-2.137.712-3.226l-4.176-6.494z"/></g><g fill="#8eb029"><path d="M962.126-.146c0-1.285 1.047-2.332 2.332-2.332s2.332 1.047 2.332 2.332v2.332c0 1.285-1.047 2.332-2.332 2.332s-2.332-1.047-2.332-2.332V-.146zm-8.073 4.385c.154-1.271 1.327-2.179 2.598-2.025 1.285.154 2.193 1.327 2.025 2.598l-.279 2.318a2.33 2.33 0 0 1-2.612 2.025c-1.271-.154-2.179-1.327-2.025-2.598l.293-2.318zm20.642 0c-.154-1.271-1.327-2.179-2.598-2.025a2.34 2.34 0 0 0-2.039 2.598l.293 2.318c.154 1.285 1.327 2.193 2.598 2.025a2.34 2.34 0 0 0 2.039-2.598l-.293-2.318zM947.95-5.02c.377-1.229 1.69-1.913 2.919-1.536a2.34 2.34 0 0 1 1.522 2.933l-.978 3.114a2.34 2.34 0 0 1-2.933 1.522c-1.229-.377-1.913-1.69-1.522-2.919l.992-3.114zm31.508 1.047a2.34 2.34 0 0 0-2.933-1.522 2.34 2.34 0 0 0-1.522 2.933l.978 3.114a2.34 2.34 0 0 0 2.933 1.522c1.229-.391 1.913-1.69 1.522-2.919l-.978-3.128z" opacity=".598"/></g><g fill="#bee23b"><path d="M941.707 1.767c.726-1.061 2.179-1.341 3.24-.614a2.35 2.35 0 0 1 .615 3.254l-1.844 2.682a2.32 2.32 0 0 1-3.24.614c-1.061-.726-1.341-2.179-.615-3.24l1.844-2.696zm6.438 7.835c.391-1.229 1.69-1.913 2.919-1.536s1.927 1.69 1.55 2.919l-.056.182c-.377 1.229-1.69 1.913-2.919 1.536s-1.927-1.69-1.536-2.919l.042-.182zm32.304-2.22a2.33 2.33 0 0 0-2.919-1.536c-1.229.377-1.913 1.69-1.536 2.919l.922 3.003c.391 1.229 1.69 1.927 2.919 1.55 1.243-.391 1.927-1.69 1.55-2.919l-.936-3.017zm-26.214 4.469c.14-1.285 1.285-2.221 2.57-2.081s2.207 1.299 2.067 2.57l-.014.195c-.14 1.271-1.299 2.207-2.57 2.067-1.285-.14-2.207-1.299-2.081-2.57l.028-.182zm31.061-10.126a2.34 2.34 0 0 0-3.226-.698c-1.089.698-1.397 2.137-.712 3.226l2.793 4.33c.698 1.089 2.137 1.397 3.226.712 1.075-.698 1.397-2.151.698-3.226l-2.779-4.343z"/></g></g><rect x="1256.109" y="97.232" width="128.652" height="12.844" rx="6.422" class="K"/><g clip-path="url(#E)"><path d="M1375.022 103.654h-109.175l1.59-6.593c.248-1.027.878-1.905 1.772-2.468l10.767-6.907 22.13-37.402a11.53 11.53 0 0 1 3.263-3.495l4.124-2.866c1.955-1.358 4.638-.762 5.847 1.275l17.194 28.938 5.731-3.578c.795-.48 1.706-.745 2.634-.745h5.682c1.342 0 2.584.762 3.197 1.971l12.423 24.465 3.296-3.131c1.756-1.656 4.655-1.06 5.582 1.176l3.942 9.359z" class="F"/><g class="L"><rect x="1280.021" y="31.524" width="21.726" height="66.111" rx="10.863" class="C"/><rect x="1332.506" y="59.723" width="8.302" height="25.262" rx="4.151" class="C"/><rect x="1362.045" y="86.669" width="4.416" height="13.437" rx="2.208" class="C"/></g><g class="F"><path d="M1309.428 73.246l.059-26.25c.007-3.115 4.183-4.509 5.817-1.858l.037.061 25.676 43.153c2.569 4.318-2.17 9.282-6.602 6.915l-17.36-9.27a14.42 14.42 0 0 1-7.627-12.752zm40.251 30.408v-31.87l16.329 31.87h-16.329z"/></g></g><rect x="300.662" y="42.074" width="53.707" height="12.201" rx="6.1" class="H"/><path d="M349.569 44.999c0-.262-.104-.513-.289-.698s-.436-.289-.698-.289h-7.09l-7.269-6.472a6.34 6.34 0 0 0-4.217-1.605H316.58l-.897-5.511c-.392-2.411-2.475-4.182-4.917-4.182h-.13a5.01 5.01 0 0 0-4.997 4.675l-.816 12.232a6.87 6.87 0 0 0 6.854 7.325h36.905c.545 0 .987-.442.987-.987v-4.488z" class="B G"/><path d="M307.603 29.524h1.616v3.179h-1.616zm4.847 0h1.616v3.179h-1.616z"/><g class="E"><path d="M323.758 39.165h-4.884v4.189a2.27 2.27 0 0 0 .666 1.607c.426.426 1.004.666 1.607.666h5.307a1.06 1.06 0 0 0 .851-1.695l-3.547-4.767z" class="B"/><path d="M342.113 47.243h7.456v1.864h-7.456z"/></g><rect x="131.789" y="22.506" width="53.707" height="12.201" rx="6.1" class="H"/><g class="B"><path d="M141.62 22.637l-7.192 5.754c-.271.217-.375.581-.26.908s.424.546.77.546h12.088l-5.406-7.208z" class="E"/><path d="M149.563 5.283c-.424-2.604-2.674-4.517-5.313-4.517h-1.061c-.872 0-1.692.414-2.21 1.116l-3.413 4.623c-.329.446-.379 1.038-.129 1.533a1.47 1.47 0 0 0 1.31.806h2.82l-1.276 15.307a5.26 5.26 0 0 0 5.24 5.695h32.184c.963 0 1.743-.78 1.743-1.743v-5.122c0-.459-.238-.886-.629-1.127s-.879-.264-1.29-.058l-5.289 2.645-21.623-12.613-1.066-6.543z" class="G"/></g><path d="M142.303 3.027h1.616v3.231h-1.616z"/><path d="M154.233 23.383h-3.852v5.007c0 .386.153.756.426 1.029s.643.426 1.029.426h9.962c.403 0 .757-.269.864-.658s-.058-.801-.404-1.008l-8.024-4.796z" class="B E"/><path d="M1282 120.548h0a2.15 2.15 0 0 1-2.147-2.147v-2.048a6.54 6.54 0 0 0 4.057-7.099c-.431-2.847-2.813-5.141-5.672-5.48-3.974-.47-7.349 2.622-7.349 6.502 0 2.762 1.715 5.114 4.135 6.076v2.048a2.15 2.15 0 0 1-2.147 2.147h0a22.36 22.36 0 0 0-22.356 22.356v3.685h53.835v-3.686A22.36 22.36 0 0 0 1282 120.546z" fill="#b93025"/><g fill="#cc5147"><rect x="1242.771" y="138.098" width="69.336" height="8.492" rx="4.018"/><path d="M1289.492 144.027h3.663v48.456h-3.663zm-27.769 0h3.663v48.456h-3.663z"/></g></g></svg>