<svg xmlns="http://www.w3.org/2000/svg" width="1500" height="145" xmlns:v="https://vecta.io/nano"><style><![CDATA[.B{fill:none}.C{fill-rule:evenodd}.D{fill:#fff}.E{opacity:.188}.F{fill:#49468c}.G{clip-rule:evenodd}.H{stroke-linecap:round}.I{stroke-linejoin:round}.J{stroke-miterlimit:10}.K{opacity:.5}.L{fill:#f9d53d}.M{fill:#6ba190}.N{fill:#cb4721}.O{fill:#e05727}.P{fill:#f5bb2f}.Q{fill:#fcee92}.R{fill:#0f1e24}.S{fill:#1e3c49}.T{stroke:#f5bb2f}.U{stroke-width:2.129}.V{fill:#5cd4c4}.W{stroke-width:2.443}.X{stroke-width:4.066}]]></style><defs><clipPath id="A"><path d="M0 0h1500v145H0z" class="B"/></clipPath><clipPath id="B"><path d="M101.502 43.149c.073-.882.558-.97 1.322-1.278l5.598-2.336 2.704-1.175c.584-.249 4.05-2.467 8.491-1.91 2.329.292 5.852 1.933 7.309 2.748a4.96 4.96 0 0 1 2.223 2.592l.859 2.286h-28.564l.059-.926z" class="B"/></clipPath><clipPath id="C"><path d="M78.142 10.353l3.278-3.02a4.21 4.21 0 0 1 3.829-.999l5.832 2.211 5.766-4.13a3.74 3.74 0 0 1 3.97-.252l9.641 5.067 4.055.837c.94.191 1.866.426 2.748.735l6.524 2.175c1.043.367 1.807 1.043 2.057 1.866l.544 1.719H74.724l1.739-4.133c.228-.764 1.148-1.586 1.68-2.076z" class="B"/></clipPath><clipPath id="D"><path d="M1211.661 178.51a12.45 12.45 0 0 1-10.312-5.474c-2.316-3.423-2.791-7.773-1.252-11.611l37.666-94.167c2.291-5.728 7.824-9.448 13.994-9.448h53.842a15.09 15.09 0 0 1 14.507 10.943l11.961 41.864 46.102 13.172a15.03 15.03 0 0 1 9.579 8.238l26.841 59.044a12.47 12.47 0 0 1-.867 11.901 12.46 12.46 0 0 1-10.478 5.714h-91.89a22.85 22.85 0 0 1-16.151-6.688l-16.792-16.798c-4.285-4.283-10.093-6.688-16.151-6.688h-50.596z" class="B G"/></clipPath><clipPath id="E"><path d="M1318.058-.877h-81.238l-3.824 44.502h88.887l-3.825-44.502z" class="B"/></clipPath><clipPath id="F"><path d="M27.297 162.004h23.855a12.27 12.27 0 0 1 8.675 3.593h0c2.301 2.301 5.421 3.593 8.675 3.593h12.183a12.27 12.27 0 0 1 8.675 3.593l1.716 1.716c2.301 2.301 5.421 3.593 8.675 3.593h18.032l-61.549 30.887-30.43-9.34 1.494-37.637z" class="B G"/></clipPath><clipPath id="G"><path d="M36.764 170.418l60.181-36.8 11.289-5.374c2.177-1.036 4.732-.882 6.769.408a7.02 7.02 0 0 1 3.263 5.944l-.064 25.912a5.99 5.99 0 0 1-2.866 5.1l-54.214 33.151c-2.824 1.727-6.515.837-8.242-1.987l-16.116-26.354z" class="B G"/></clipPath><clipPath id="H"><path d="M34.34 166.454c-.945-1.545-1.237-3.403-.812-5.163s1.53-3.281 3.076-4.226l49.571-30.312a16.24 16.24 0 0 1 10.354-2.274l14.648 1.711c2.279.267 4.311 1.566 5.508 3.524s1.429 4.359.627 6.509l-5.151 13.819a16.24 16.24 0 0 1-6.743 8.179l-49.571 30.312c-1.545.945-3.403 1.237-5.163.812s-3.281-1.53-4.226-3.076L34.34 166.453z" class="B G"/></clipPath><clipPath id="I"><rect x="29.805" y="129.316" width="58.784" height="27.868" rx="3.275" transform="matrix(.853132 -.521695 .521695 .853132 -66.038 51.921)" class="B"/></clipPath><clipPath id="J"><path d="M27.297 162.004h23.855a12.27 12.27 0 0 1 8.675 3.593h0c2.301 2.301 5.421 3.593 8.675 3.593h12.183a12.27 12.27 0 0 1 8.675 3.593l1.716 1.716c2.301 2.301 5.421 3.593 8.675 3.593h18.032l10.344-60.73-30.43-9.34-79.362 21.29 8.963 32.691z" class="B G"/></clipPath><clipPath id="K"><path d="M36.764 170.418l60.181-36.8 11.289-5.374c2.177-1.036 4.732-.882 6.769.408a7.02 7.02 0 0 1 3.263 5.944l-.064 25.912a5.99 5.99 0 0 1-2.866 5.1l-54.214 33.151c-2.824 1.727-6.515.837-8.242-1.987l-16.116-26.354z" class="B G"/></clipPath><clipPath id="L"><path d="M34.34 166.454c-.945-1.545-1.237-3.403-.812-5.163s1.53-3.281 3.076-4.226l49.571-30.312a16.24 16.24 0 0 1 10.354-2.274l14.648 1.711c2.279.267 4.311 1.566 5.508 3.524s1.429 4.359.627 6.509l-5.151 13.819a16.24 16.24 0 0 1-6.743 8.179l-49.571 30.312c-1.545.945-3.403 1.237-5.163.812s-3.281-1.53-4.226-3.076L34.34 166.453z" class="B G"/></clipPath><clipPath id="M"><rect x="29.805" y="129.316" width="58.784" height="27.868" rx="3.275" transform="matrix(.853132 -.521695 .521695 .853132 -66.038 51.921)" class="B"/></clipPath><clipPath id="N"><path d="M1189.253 116.937h-105.806V52.701l52.903-22.365 52.903 22.365v64.236z" class="B"/></clipPath><clipPath id="O"><path d="M1189.253 116.937h-105.806l.067-64.236 52.836-22.365 52.903 22.365v64.236z" class="B"/></clipPath><clipPath id="P"><path d="M1147.35 116.937h-22.047V85.562h22.095l-.048 31.375z" class="B"/></clipPath><clipPath id="Q"><path d="M1117.313 101.127h-22.047l-.001-15.633h22.095l-.047 15.633z" class="B"/></clipPath><clipPath id="R"><path d="M1177.387 101.127h-22.046l-.001-15.633h22.095l-.048 15.633z" class="B"/></clipPath><clipPath id="S"><path d="M1152.319 73.235h-32.006l-.001-15.633h32.077l-.07 15.633z" class="B"/></clipPath><path id="T" d="M767.082 113.623h13.14v4.4h-8.74a4.4 4.4 0 0 1-4.401-4.397v-.003z"/><path id="U" d="M789.101 121.786a3.58 3.58 0 0 1 1.051-2.535 3.59 3.59 0 0 1 2.537-1.05h.004a3.59 3.59 0 0 1 3.589 3.586v6.168a4.92 4.92 0 0 1-2.924 4.496l-8.053 3.575a.67.67 0 0 1-.83-.995l3.79-5.568c.545-.801.837-1.746.837-2.715v-4.961z"/><path id="V" d="M36.764 170.418l60.181-36.8 11.289-5.374c2.177-1.036 4.732-.882 6.769.408a7.02 7.02 0 0 1 3.263 5.944l-.064 25.912a5.99 5.99 0 0 1-2.866 5.1l-54.214 33.151c-2.824 1.727-6.515.837-8.242-1.987l-16.116-26.354z"/><path id="W" d="M33.343 164.824l60.181-36.8 15.253-2.546a9.18 9.18 0 0 1 10.399 11.344l-3.984 15.451a17.37 17.37 0 0 1-7.757 10.479L57.7 193.165c-2.824 1.727-6.514.838-8.242-1.987l-16.115-26.353z"/><path id="X" d="M34.34 166.454c-.945-1.545-1.237-3.403-.812-5.163s1.53-3.281 3.076-4.226l49.571-30.312a16.24 16.24 0 0 1 10.354-2.274l14.648 1.711c2.279.267 4.311 1.566 5.508 3.524s1.429 4.359.627 6.509l-5.151 13.819a16.24 16.24 0 0 1-6.743 8.179l-49.571 30.312c-1.545.945-3.403 1.237-5.163.812s-3.281-1.53-4.226-3.076L34.34 166.453z"/><path id="Y" d="M85.4 114.736l18.723-11.449 26.94 44.056-18.723 11.449z"/><path id="Z" d="M41.006 163.981l44.934-27.478a3.06 3.06 0 0 1 4.203 1.013l9.639 15.762a3.06 3.06 0 0 1-1.013 4.203l-44.934 27.478a3.06 3.06 0 0 1-4.201-1.013l-9.64-15.765a3.06 3.06 0 0 1 1.013-4.201z"/><path id="a" d="M37.972 164.876l50.151-30.667 6.842 11.189-50.151 30.667z"/><path id="b" d="M43.934 164.112l40.789-24.943 8.98 14.685-40.789 24.943z"/><path id="c" d="M78.409 146.874l3.343-2.045 5.986 9.79-3.343 2.045z"/><path id="d" d="M78.41 146.874l3.343-2.045 2.566 4.196-3.343 2.045z"/><path id="e" d="M33.476 169.546l56.837-34.756 11.118 18.182-56.837 34.756z"/><path id="f" d="M26.635 146.829l65.024-6.832-50.368 30.8-14.656-23.968z"/><path id="g" d="M96.737 133.278l50.815-31.083 1.275 2.085-50.815 31.083z"/><path id="h" d="M102.723 143.07l50.814-31.083 1.275 2.085-50.814 31.083z"/><path id="i" d="M68.987 181.982a2.44 2.44 0 0 1-2.086-1.167l-32.499-53.147c-.704-1.152-.341-2.655.809-3.36s2.656-.341 3.358.809l32.499 53.147c.704 1.152.341 2.655-.809 3.36-.398.242-.838.358-1.272.358z"/><path id="j" d="M1127.934 88.612h6.992v11.479h-6.992z"/><path id="k" d="M1127.934 102.774h6.992v14.163h-6.992z"/><path id="l" d="M1095.266 101.127h22.094v6.644h-22.094z"/><path id="m" d="M1097.896 88.544h6.992v11.968h-6.992z"/><path id="n" d="M1095.265 101.127h22.095v6.644h-22.095z"/><path id="o" d="M1100.789 101.127v6.643"/><path id="p" d="M1097.896 96.308h6.992v3.783h-6.992z"/><path id="q" d="M1122.992 60.652h6.992V72.62h-6.992z"/><path id="r" d="M1122.992 68.417h6.992V72.2h-6.992z"/><path id="s" d="M1125.303 73.235v6.644"/><path id="t" d="M1082.881 117.707v9.367"/></defs><g clip-path="url(#A)"><path d="M-40.704-2885.384h1571.886v3937.779H-40.704z" fill="#5bd1d6"/><path d="M-57.317-169.173H85.169c25.438,0,46.059,20.622,46.059,46.059h0c0,25.438,20.622,46.06,46.059,46.06h35.546c16.481,0,29.842,13.361,29.842,29.842v17.653c0,16.481-13.361,29.842-29.842,29.842h-23.372c-16.481,0-29.842,13.361-29.842,29.842h0c0,16.481-13.361,29.842-29.842,29.842H-57.317c-16.481,0-29.842-13.361-29.842-29.842v-169.456c0-16.481,13.361-29.842,29.842-29.842Z" fill="#5ac4ca"/><g stroke="#5ac4ca" stroke-width="3.434" class="B H I"><path d="M52.663 20.741H64.51m25.411 0h-13.89m-33.36 0h.824m26.166 15.058h-4.91m-16.346 0h-.824"/></g><g fill="#5ac4ca"><path d="M824.247-57.62l11.452-2.672a5.91 5.91 0 0 1 4.459.733c6.946 4.309 15.346 13.806 16.321 14.558 0 0 71.303 1.551 84.179.47 1.257-.106 2.515-.178 3.777-.226 9.884-.371 45.404-5.24 66.615-6.12.513-.021 1.025.026 1.525.138h0c5.328 1.188 7.158 7.562 3.829 11.416l.191.108-.665 1.163-1.226 2.08c-1.779 4.923-7.199 14.972-8.544 16.702-1.365 1.755-.796 1.143-1.365 1.755-12.164 13.087-29.52 19.937-47.093 19.125h0l.293 6.268c.002.05.002.1.003.15.031 1.489-.508 2.927-1.514 4.014l-7.855 8.497c-.411.445-1.046.611-1.632.428a1.63 1.63 0 0 1-1.121-1.288L944.108 8.87 942.51-.898a175.96 175.96 0 0 1-5.642-1.523l-6.648 5.692-5.015 4.295c-.471.403-1.131.502-1.698.253s-.944-.8-.967-1.42l-.237-6.32-.206-5.508a5.92 5.92 0 0 1 .194-1.739c-25.43-9.151-50.611-22.316-60.837-27.881l-1.148-.496-.191-.082-2.082-.9.112-.26-2.143-.669c-.591.198-1.178.377-1.76.53-2.455.937-12.837 5.636-20.318 6.751-1.549.231-3.126-.163-4.385-1.093l-9.457-6.99c-.416-.308-.703-.781-.716-1.299-.019-.765.485-1.415 1.194-1.606l15.006-4.049-12.032-9.551c-.575-.457-.781-1.253-.46-1.948.217-.47.668-.791 1.172-.908zM755.218.143l8.997-2.099c1.198-.28 2.458-.072 3.503.576 5.457 3.386 12.057 10.847 12.822 11.438 0 0 56.018 1.219 66.134.369a63.89 63.89 0 0 1 2.967-.177c7.765-.291 35.671-4.117 52.335-4.808.403-.017.805.021 1.198.108h0c4.186.934 5.624 5.941 3.008 8.969l.15.085-.523.914-.963 1.634c-1.398 3.868-5.656 11.762-6.712 13.121-1.072 1.379-.625.898-1.072 1.379-9.557 10.282-23.192 15.663-36.999 15.025h0l.23 4.924c.002.039.002.078.003.118a4.5 4.5 0 0 1-1.189 3.154l-6.171 6.675c-.323.35-.821.48-1.282.336a1.28 1.28 0 0 1-.881-1.012l-1.389-8.492-1.255-7.674c-1.462-.368-2.942-.768-4.432-1.197l-5.223 4.472-3.94 3.374a1.27 1.27 0 0 1-2.094-.916l-.186-4.965-.162-4.327a4.63 4.63 0 0 1 .153-1.366c-19.979-7.19-39.762-17.532-47.796-21.904l-.902-.39-.15-.065-1.636-.707.088-.205-1.684-.526c-.465.156-.926.296-1.383.416-1.929.736-10.085 4.428-15.963 5.304-1.217.181-2.456-.128-3.445-.859l-7.43-5.492c-.327-.242-.552-.613-.563-1.02a1.27 1.27 0 0 1 .938-1.262l11.789-3.181-9.453-7.503a1.27 1.27 0 0 1-.361-1.53c.17-.369.525-.621.921-.714zm152.85 34.687l4.447-1.037a2.29 2.29 0 0 1 1.731.285c2.697 1.673 5.959 5.361 6.337 5.653 0 0 27.685.602 32.685.182.488-.041.977-.069 1.466-.088 3.838-.144 17.629-2.035 25.865-2.376.199-.008.398.01.592.054h0c2.069.461 2.779 2.936 1.487 4.433l.074.042-.258.452-.476.808c-.691 1.912-2.795 5.813-3.317 6.485-.53.681-.309.444-.53.681-4.723 5.081-11.462 7.741-18.285 7.426h0l.114 2.434a1.12 1.12 0 0 0 .001.058c.012.578-.197 1.136-.588 1.559l-3.05 3.299c-.16.173-.406.237-.634.166a.63.63 0 0 1-.435-.5l-.686-4.197-.62-3.793a70.49 70.49 0 0 1-2.191-.591l-2.581 2.21-1.947 1.668c-.183.157-.439.195-.659.098a.63.63 0 0 1-.376-.551l-.092-2.454-.08-2.139a2.31 2.31 0 0 1 .075-.675c-9.874-3.553-19.651-8.665-23.622-10.825l-.446-.193-.074-.032-.808-.349.044-.101-.832-.26a11.44 11.44 0 0 1-.683.206c-.953.364-4.984 2.188-7.889 2.621-.601.09-1.214-.063-1.703-.425l-3.672-2.714c-.162-.12-.273-.303-.278-.504a.63.63 0 0 1 .464-.624l5.827-1.572-4.672-3.708a.63.63 0 0 1-.179-.756c.084-.183.259-.307.455-.353z"/></g><rect x="97.021" y="39.91" width="37.858" height="8.329" rx="4.164" transform="matrix(-1 0 0 -1 231.9 88.149)" fill="#40b5b5"/><g clip-path="url(#B)"><path d="M101.502 43.149c.073-.882.558-.97 1.322-1.278l5.598-2.336 2.704-1.175c.584-.249 4.05-2.467 8.491-1.91 2.329.292 5.852 1.933 7.309 2.748a4.96 4.96 0 0 1 2.223 2.592l.859 2.286h-28.564l.059-.926z" fill="#f1f7ff"/><path d="M106.251,21.974c3.073,0,5.588,2.514,5.588,5.588v11.099c0,3.073-2.514,5.588-5.588,5.588h-5.885c-3.073,0-5.588-2.514-5.588-5.588" fill="#d0ebf4" class="K"/></g><rect x="69.258" y="14.037" width="62.592" height="8.329" rx="4.164" transform="matrix(-1 0 0 -1 201.109 36.403)" fill="#40b5b5"/><g clip-path="url(#C)"><path d="M78.142 10.353l3.278-3.02a4.21 4.21 0 0 1 3.829-.999l5.832 2.211 5.766-4.13a3.74 3.74 0 0 1 3.97-.252l9.641 5.067 4.055.837c.94.191 1.866.426 2.748.735l6.524 2.175c1.043.367 1.807 1.043 2.057 1.866l.544 1.719H74.724l1.739-4.133c.228-.764 1.148-1.586 1.68-2.076z" fill="#f1f7ff"/><g fill="#d0ebf4"><rect x="110.329" y="-1.476" width="5.445" height="16.154" rx="2.722" transform="matrix(-1 0 0 -1 226.103 13.203)" class="K"/><rect x="85.298" y="-4.74" width="5.733" height="17.445" rx="2.866" transform="matrix(-1 0 0 -1 176.33 7.964)" class="K"/><path d="M37.613 11.148V.049c0-3.073 2.514-5.588 5.588-5.588h5.885M73.48 17.355v-6.624c0-1.577 3.268-1.577 3.268 0v6.624c0 1.577-1.29 2.866-2.866 2.866h0" class="K"/></g><path d="M56.109,26.125c0,.94-.769,1.709-1.709,1.709h0c-.94,0-1.709-.769-1.709-1.709" fill="#c1e0ee"/></g><g class="C"><path d="M298.223 1755.464c-56.521 0-109.66-22.011-149.626-61.979l-38.785-38.783c-11.636-11.637-27.106-18.045-43.562-18.045H-85.329V934.031H59.76c24.46 0 44.36-19.9 44.36-44.36s-19.9-44.361-44.36-44.361H-44.1c-16.953 0-30.746-13.792-30.746-30.745V263.598c0-16.953 13.792-30.746 30.746-30.746h171.767c23.272 0 43.808-16.479 48.831-39.183 5.177-23.399 18.398-44.492 37.227-59.392a105.57 105.57 0 0 1 65.238-22.682h374.146c43.92 0 83.525 27.642 98.552 68.782 7.202 19.72 26.097 32.968 47.017 32.968h153.443c27.981 0 50.746-22.765 50.746-50.745v-47.256c0-27.981 22.764-50.746 50.745-50.746h176.32c13.535 0 26.267 5.263 35.851 14.819 9.612 9.586 14.902 22.337 14.896 35.903-.007 13.559 5.269 26.308 14.854 35.897s22.332 14.871 35.891 14.871h203.633c16.953 0 30.746 13.793 30.746 30.746v286.793c0 16.953-13.793 30.745-30.746 30.745h-119.439a198.55 198.55 0 0 1-96.375-25.026c-29.398-16.372-54.304-40.147-72.021-68.755a138.42 138.42 0 0 0-50.207-47.931c-20.493-11.413-43.725-17.445-67.182-17.445H968.819c-21.204 0-41.235 8.156-56.403 22.966-15.102 14.745-23.73 34.45-24.311 55.5l-.017.744-.015.79v303.373c0 44.112 35.888 80 80 80h608.786c44.486 0 80.708 36.191 80.745 80.677v74.276c0 17.709-6.896 34.358-19.418 46.882s-29.173 19.42-46.883 19.42h-347.479c-14.804 0-27.571 10.254-31.049 24.937-10.616 44.83-32.153 85.209-60.643 113.697l-101.545 101.545c-20.07 20.07-43.544 35.754-69.768 46.617s-53.913 16.37-82.297 16.37h-53.59c-6.319 0-11.461 5.142-11.461 11.461v152.735c0 56.521-22.011 109.66-61.978 149.627l-36.653 36.652c-39.968 39.967-93.106 61.978-149.626 61.978H298.221z" fill="#4eeae6"/><path d="M1535.056 197.708h-203.633c-44.608 0-80.767-36.172-80.746-80.785.005-11.443-9.303-20.707-20.746-20.707h-176.32a20.75 20.75 0 0 0-20.746 20.746v47.256c0 44.595-36.151 80.746-80.746 80.746H798.675c-33.469 0-63.688-21.168-75.196-52.675-10.722-29.354-39.002-49.075-70.373-49.075H278.96a75.44 75.44 0 0 0-46.622 16.208c-13.432 10.628-22.861 25.666-26.551 42.345-8.037 36.333-40.893 62.703-78.123 62.703H-44.1c-.412 0-.746.334-.746.746v550.967c0 .412.334.746.746.746H59.76c41.068 0 74.361 33.292 74.361 74.361h0c0 41.068-33.292 74.361-74.361 74.361H-55.329v642.626H66.25c24.468 0 47.472 9.528 64.774 26.831l38.785 38.784c34.301 34.301 79.906 53.191 128.414 53.191h286.993c48.508 0 94.113-18.891 128.414-53.19l36.652-36.652c34.3-34.301 53.191-79.905 53.191-128.414v-152.735c0-22.898 18.563-41.461 41.461-41.461h53.59a184.12 184.12 0 0 0 70.815-14.086c22.565-9.348 42.765-22.844 60.035-40.114l101.546-101.546c25.785-25.785 43.783-61.897 52.663-99.398 6.642-28.047 31.418-48.023 60.241-48.023h347.479c20.048 0 36.301-16.253 36.301-36.301v-74.251c-.024-28.006-22.733-50.702-50.745-50.702H968.072c-60.751 0-110-49.249-110-110V436.837c0-.695.023-1.389.036-2.083v-.037c1.52-59.839 50.504-107.881 110.709-107.881h161.013a168.08 168.08 0 0 1 142.892 79.579h0a168.08 168.08 0 0 0 142.892 79.579h119.44c.412 0 .746-.334.746-.746V198.454c0-.412-.334-.746-.746-.746z" class="Q"/><g class="M"><path d="M789.101 114.615a3.58 3.58 0 0 0 1.051 2.535 3.59 3.59 0 0 0 2.537 1.05h.004a3.59 3.59 0 0 0 3.589-3.586v-6.168a4.92 4.92 0 0 0-2.924-4.496l-8.053-3.575c-.274-.123-.599-.047-.791.184a.67.67 0 0 0-.039.811l3.79 5.568c.545.801.837 1.746.837 2.715v4.961z"/><use href="#T"/></g><path d="M773.758,113.623c2.575,6.197,8.629,10.235,15.343,10.235s12.768-4.038,15.342-10.235h-30.685Z" class="D"/><path d="M805.043,116.564c0-.805.654-1.459,1.46-1.459h4.38c.806,0,1.46.654,1.46,1.459s-.654,1.459-1.46,1.459h-4.38c-.806,0-1.46-.654-1.46-1.459Z" fill="#f2a029"/><use href="#U" class="M"/><path d="M794.823,115.834c0-1.208.981-2.188,2.19-2.188h8.76c1.209,0,2.19.98,2.19,2.188s-.981,2.188-2.19,2.188h-8.76c-1.209,0-2.19-.98-2.19-2.188Z" class="D"/></g><path d="M805.043 115.105h1.46v1.459h-1.46z" fill="#6d81a5"/><rect x="818.052" y="133.669" width="23.013" height="10.712" rx="5.354" opacity=".073"/><g class="C"><g class="M"><path d="M829.559 97.209a3.58 3.58 0 0 0 1.051 2.535 3.59 3.59 0 0 0 2.537 1.05h.004a3.59 3.59 0 0 0 3.589-3.586V91.04a4.92 4.92 0 0 0-2.924-4.496l-8.053-3.575c-.274-.123-.599-.047-.791.184a.67.67 0 0 0-.039.811l3.79 5.568c.545.801.837 1.746.837 2.715v4.961zm-22.019-.992h13.14v4.4h-8.74a4.4 4.4 0 0 1-4.401-4.397v-.003z"/></g><path d="M814.215,96.217c2.575,6.197,8.629,10.235,15.343,10.235s12.768-4.038,15.342-10.235h-30.685Z" class="D"/><path d="M845.501,99.158c0-.805.654-1.459,1.46-1.459h4.38c.806,0,1.46.654,1.46,1.459s-.654,1.459-1.46,1.459h-4.38c-.806,0-1.46-.654-1.46-1.459Z" fill="#f2a029"/><path d="M829.559 104.381a3.58 3.58 0 0 1 1.051-2.535 3.59 3.59 0 0 1 2.537-1.05h.004a3.59 3.59 0 0 1 3.589 3.586v6.168a4.92 4.92 0 0 1-2.924 4.496l-8.053 3.575a.67.67 0 0 1-.83-.995l3.79-5.568c.545-.801.837-1.746.837-2.715v-4.961z" class="M"/><path d="M835.281,98.429c0-1.208.981-2.188,2.19-2.188h8.76c1.209,0,2.19.98,2.19,2.188s-.981,2.188-2.19,2.188h-8.76c-1.209,0-2.19-.98-2.19-2.188Z" class="D"/></g><path d="M845.501 97.699h1.46v1.459h-1.46z" fill="#6d81a5"/><path d="M1211.661 178.51a12.45 12.45 0 0 1-10.312-5.474c-2.316-3.423-2.791-7.773-1.252-11.611l37.666-94.167c2.291-5.728 7.824-9.448 13.994-9.448h53.842a15.09 15.09 0 0 1 14.507 10.943l11.961 41.864 46.102 13.172a15.03 15.03 0 0 1 9.579 8.238l26.841 59.044a12.47 12.47 0 0 1-.867 11.901 12.46 12.46 0 0 1-10.478 5.714h-91.89a22.85 22.85 0 0 1-16.151-6.688l-16.792-16.798c-4.285-4.283-10.093-6.688-16.151-6.688h-50.596z" fill="#f0be5b" class="C"/><g clip-path="url(#D)" class="C"><path d="M1301.891,153.889c0-8.333-6.752-15.087-15.087-15.087s-15.087,6.755-15.087,15.087v45.262h30.175v-45.262Z" class="R"/><path d="M1301.891,159.991c0-8.333-6.752-15.087-15.087-15.087s-15.087,6.755-15.087,15.087v45.262h30.175v-45.262Z" class="S"/></g><path d="M1421.018 211.647h-115.034l-23.629-23.629a34.58 34.58 0 0 0-24.452-10.129h-10.583a34.58 34.58 0 0 1-24.452-10.129l-24.153-24.153-26.679 27.27 22.473 34.001h24.833l47.813 6.768 153.864 10.55v-10.55z" class="C Q"/><g stroke="#fcee92" stroke-width="10" class="B H I"><path d="M1298.779 204.442l-16.424-16.424a34.58 34.58 0 0 0-24.453-10.129h-10.583c-9.172 0-17.967-3.643-24.453-10.128l-20.551-20.551" stroke-dasharray="0 10.189"/><path d="M1198.714 143.607h0"/></g><path d="M1318.058-.877h-81.238l-3.824 44.502h88.887l-3.825-44.502z" class="D"/><g clip-path="url(#E)"><path d="M1311.075 7.22h16.652v28.308h-16.652z" class="S"/><path d="M1311.075 7.22h16.652v6.328h-16.652z" class="R"/></g><path d="M1321.918 44.042l-.035-.417h-88.887l-.036.417-3.825 44.503h96.608l-3.825-44.503z" fill="#cc5147"/><path style="mix-blend-mode:multiply" d="M1310.409-89.883l-22.613-1.66 10.657 180.088h27.29l-15.334-178.428" fill="#7b7b7b" opacity=".2"/><path d="M1267.154 53.577h20.57v34.968h-20.57z" class="S"/><path d="M1267.154 53.577h20.57v6.256h-20.57z" class="R"/><g fill="#f0be5b"><path d="M1276.5 41.617l-13.467 8.808c-1.427.933-.766 3.151.939 3.151h26.935c1.705 0 2.366-2.218.939-3.151l-13.468-8.808c-.57-.373-1.307-.373-1.878 0zm55.566 68.999l-29.617-22.071s5.421 0 5.194-5.194c-.129-2.947 3.258-4.915 3.258-7.865v-4.794c0-2.95 1.172-5.779 3.258-7.865l8.915-8.915 8.993 56.704z"/></g><path d="M1329.202 92.553l2.518 15.877a3.47 3.47 0 0 0 2.475 2.794l28.398 8.114 3.688 9.323a3.47 3.47 0 0 1-1.72 4.404l-4.842 2.334a3.47 3.47 0 0 1-3.123-.054l-14.123-7.423a3.47 3.47 0 0 0-2.359-.318l-9.121 2a3.47 3.47 0 0 1-3.126-.866l-7.122-6.717c-.583-.55-.957-1.284-1.061-2.078l-1.475-11.341c-.118-.908.128-1.827.684-2.555l10.307-13.496z" fill="#789d44"/><g stroke="#789d44" stroke-width="3" class="B H I"><path d="M1329.202 92.553h0"/><path d="M1329.658 95.432l2.062 12.998a3.47 3.47 0 0 0 2.475 2.794l26.997 7.713" stroke-dasharray="0 2.915"/><path d="M1362.593 119.338h0"/><path d="M1363.688 122.105l2.594 6.556a3.47 3.47 0 0 1-1.72 4.404l-4.842 2.334a3.47 3.47 0 0 1-3.123-.054l-14.123-7.422a3.47 3.47 0 0 0-2.359-.318l-9.121 2a3.47 3.47 0 0 1-3.126-.866l-7.122-6.717c-.583-.549-.957-1.284-1.061-2.078l-1.474-11.341c-.118-.908.128-1.827.684-2.555l9.404-12.313" stroke-dasharray="0 2.976"/></g><path d="M1229.576 84.248l1.789-20.815c.169-1.964 2.629-2.742 3.896-1.232l6.253 7.453a6.87 6.87 0 0 1 1.607 4.416v2.904c0 2.092 1.21 3.995 3.105 4.881l1.28.599a4.6 4.6 0 0 1 2.651 4.169h0a4.6 4.6 0 0 0 .962 2.816l2.837 3.669a13.75 13.75 0 0 1 2.606 11.108l-2.13 10.648a13.75 13.75 0 0 1-9.252 10.386l-5.08 1.643a13.75 13.75 0 0 1-4.231.667h-5.469a13.75 13.75 0 0 0-6.488 1.627l-6.947 3.718c-.421.226-.892.344-1.37.344h-2.407a1.27 1.27 0 0 1-1.181-1.74l15.764-39.63a26.87 26.87 0 0 0 1.804-7.629z" fill="#789d44"/><path d="M1229.576 84.248l1.789-20.815c.169-1.964 2.629-2.742 3.896-1.231l6.253 7.453a6.87 6.87 0 0 1 1.607 4.416v2.904c0 2.092 1.21 3.995 3.105 4.881l1.28.599a4.6 4.6 0 0 1 2.651 4.168 4.6 4.6 0 0 0 .962 2.816l2.837 3.668a13.75 13.75 0 0 1 2.606 11.108l-2.13 10.648a13.75 13.75 0 0 1-9.252 10.386l-5.08 1.643a13.75 13.75 0 0 1-4.231.667h-5.469a13.75 13.75 0 0 0-6.488 1.627l-6.947 3.718a2.9 2.9 0 0 1-1.37.344h-2.407a1.27 1.27 0 0 1-1.181-1.74l15.764-39.63a26.87 26.87 0 0 0 1.804-7.629z" stroke="#789d44" stroke-dasharray="0 2.979" stroke-width="3" class="B H I"/><path d="M107.319,207.869c-19.089,0-34.619-15.517-34.619-34.592s15.53-34.59,34.619-34.59h17.432c19.091,0,34.622,15.517,34.622,34.59s-15.53,34.592-34.622,34.592h-17.432Z" opacity=".073" class="C"/><g opacity=".2"><g clip-path="url(#F)"><use href="#V" class="C D"/><g clip-path="url(#G)" class="C N"><use href="#W"/></g><use href="#X" fill="#d9f3fb" class="C"/><g clip-path="url(#H)"><use href="#Y" class="O"/><g stroke="#49468c" class="B I W"><path style="mix-blend-mode:multiply" d="M145.199 98.347l-50.82 31.076m53.813-26.181l-50.82 31.075m53.813-26.18l-50.819 31.076m53.812-26.181l-50.819 31.076m53.813-26.181l-50.82 31.075" class="E"/></g></g><use href="#Z" fill="#98dcec"/><use href="#a" fill="#8bccdc"/><use href="#b" fill="#51b0b9"/><use href="#c" class="D"/><use href="#d" fill="#d7f2fb"/><rect x="29.805" y="129.316" width="58.784" height="27.868" rx="3.275" transform="matrix(.853132 -.521695 .521695 .853132 -66.038 51.921)" class="N"/><g clip-path="url(#I)"><use href="#e" fill="#ae391b"/><rect x="29.493" y="129.846" width="57.215" height="26.229" rx="3.082" transform="matrix(.853132 -.521695 .521695 .853132 -66.048 51.306)" class="O"/><g stroke="#49468c" class="B H I"><g class="W"><path style="mix-blend-mode:multiply" d="M82.748 126.927l-50.82 31.076m46.971-37.369L28.08 151.71m58.944-17.79l-50.819 31.076" class="E"/></g><g stroke-width="4.886"><path style="mix-blend-mode:multiply" d="M36.486 126.393l32.499 53.146m-15.114-63.777l32.499 53.146" class="E"/></g></g><use href="#f" style="mix-blend-mode:multiply" fill="#55509e" opacity=".148" class="C"/></g></g></g><g clip-path="url(#J)"><use href="#V" class="C D"/><g clip-path="url(#K)" class="C N"><use href="#W"/></g><use href="#X" fill="#d9f3fb" class="C"/><g clip-path="url(#L)"><use href="#Y" class="O"/><g class="E F"><path d="M93.743 128.384L144.558 97.3l1.275 2.085-50.815 31.083z"/></g><g class="E F"><use href="#g"/></g><g class="E F"><path d="M99.731 138.176l50.815-31.083 1.275 2.085-50.815 31.083z"/></g><g class="E F"><use href="#h"/></g><g class="E F"><path d="M105.717 147.965l50.814-31.083 1.275 2.085-50.814 31.083z"/></g></g><use href="#Z" fill="#98dcec"/><use href="#a" fill="#8bccdc"/><use href="#b" fill="#51b0b9"/><use href="#c" class="D"/><use href="#d" fill="#d7f2fb"/><rect x="29.805" y="129.316" width="58.784" height="27.868" rx="3.275" transform="matrix(.853132 -.521695 .521695 .853132 -66.038 51.921)" class="N"/><g clip-path="url(#M)"><use href="#e" fill="#ae391b"/><rect x="29.493" y="129.846" width="57.215" height="26.229" rx="3.082" transform="matrix(.853132 -.521695 .521695 .853132 -66.048 51.306)" class="O"/><g class="E F"><path d="M31.929 159.224a1.22 1.22 0 0 1-.638-2.264l50.82-31.075c.578-.35 1.327-.169 1.68.406a1.22 1.22 0 0 1-.405 1.679l-50.82 31.075c-.2.122-.419.179-.637.179z"/></g><g class="E F"><path d="M28.081 152.93a1.22 1.22 0 0 1-.638-2.264l50.82-31.075c.577-.35 1.328-.169 1.68.406a1.22 1.22 0 0 1-.405 1.679l-50.82 31.075c-.2.122-.419.179-.637.179z"/></g><g class="E F"><path d="M36.206 166.217a1.22 1.22 0 0 1-.638-2.264l50.82-31.076a1.22 1.22 0 0 1 1.275 2.085l-50.82 31.076c-.2.122-.419.179-.637.179z"/></g><g class="E F"><use href="#i"/></g><path d="M27.647 153.562l11.677-6.614a2.44 2.44 0 0 1 3.326.919l.158.279a2.44 2.44 0 0 0 3.326.919l3.141-1.779a2.44 2.44 0 0 0 .922-3.326l-1.443-2.547a2.44 2.44 0 0 1 .922-3.326l.358-.203a2.44 2.44 0 0 1 3.326.919h0a2.44 2.44 0 0 0 3.326.919l4.249-2.406a2.44 2.44 0 0 0 .906-3.353l-4.656-7.976a2.44 2.44 0 0 0-2.742-1.125l-14.583 3.932a2.4 2.4 0 0 0-.811.391l-12.134 9.154c-.719.713-3.748 9.054-3.398 9.672" fill="#4ba481" class="C"/><g class="E F"><path d="M86.373 171.351a2.44 2.44 0 0 1-2.086-1.167l-32.499-53.147c-.704-1.152-.341-2.655.809-3.36s2.656-.341 3.358.809l32.499 53.147c.704 1.152.341 2.655-.809 3.36-.398.242-.838.358-1.272.358z"/></g><use href="#f" fill="#55509e" opacity=".148" class="C"/></g></g><path d="M1189.253 116.937h-105.806l.067-62.203 52.836-22.365 52.903 22.365v62.203z" class="D"/><g clip-path="url(#N)" class="B H J X"><g opacity=".55" stroke="#fbeda4"><path d="M1084.831 116.937l-.039-87.02m11.488 87.02l-.024-87.02m11.472 87.02l-.007-87.02m11.456 87.02l.008-87.02m11.441 87.02l.023-87.02m11.425 87.02l.04-87.02m11.409 87.02l.055-87.02m11.394 87.02l.07-87.02m11.379 87.02l.086-87.02m11.362 87.02l.102-87.02"/></g></g><g clip-path="url(#O)"><path d="M1191.852 61.287c-.466-1.205-1.476-2.117-2.723-2.457l-52.779-21.426-52.779 21.426a4.07 4.07 0 0 0-2.723 2.457l-2.342 6.061 57.843-21.868 57.843 21.868-2.342-6.061z" style="mix-blend-mode:multiply" fill="#f8eecb"/></g><g class="L"><path d="M1083.571,51.762l52.779-21.426v10.109l-55.502,21.868v-6.718c0-1.713,1.037-3.357,2.685-3.823.012-.004.025-.007.037-.01Z"/><path d="M1189.129 51.762l-52.779-21.426v10.109l55.502 21.868v-6.718c0-1.713-1.037-3.357-2.685-3.823-.012-.004-.025-.007-.037-.01z"/></g><g class="D"><path d="M1083.571,51.358l52.779-21.426v4.65l-55.502,21.868v-2.79c0-.913.609-1.714,1.489-1.959l1.234-.343Z"/><path d="M1189.129 51.358l-52.779-21.426v4.65l55.502 21.868v-2.79c0-.913-.609-1.714-1.489-1.959l-1.234-.343z"/></g><path d="M1147.35 116.937h-22.047V85.562h22.095l-.048 31.375z" class="L"/><g clip-path="url(#P)"><path d="M1149.338 90.983h-26.022l-.592-6.903h27.263l-.649 6.903z" fill="#f3ab2b"/></g><g class="P"><use href="#j"/><path d="M1137.774 88.612h6.992v11.479h-6.992z"/><use href="#k"/><path d="M1137.774 102.774h6.992v14.163h-6.992z"/></g><g class="D"><use href="#l"/><path d="M1155.34 101.127h22.094v6.644h-22.094z"/></g><path d="M1117.313 101.127h-22.047l-.001-15.633h22.095l-.047 15.633z" class="L"/><g clip-path="url(#Q)" class="P"><path d="M1119.3 90.914h-26.022l-.591-8.936h27.263l-.65 8.936z"/></g><g class="D"><use href="#m"/><path d="M1107.737 88.544h6.992v11.968h-6.992z"/></g><g class="B J T U"><use href="#n"/><use href="#o"/><path d="M1106.313 101.127v6.643m5.524-6.643v6.643"/></g><g class="V"><use href="#p"/><path d="M1107.737 96.308h6.992v3.783h-6.992z"/></g><path d="M1177.387 101.127h-22.046l-.001-15.633h22.095l-.048 15.633z" class="L"/><g clip-path="url(#R)" class="P"><path d="M1179.375 90.914h-26.022l-.592-8.936h27.263l-.649 8.936z"/></g><g class="D"><path d="M1157.971 88.544h6.992v11.968h-6.992zm9.841 0h6.992v11.968h-6.992z"/></g><g class="B J T U"><path d="M1155.34 101.127h22.095v6.644h-22.095z"/><path d="M1160.864 101.127v6.643m5.523-6.643v6.643m5.524-6.643v6.643"/></g><g class="V"><path d="M1157.971 96.308h6.992v3.783h-6.992zm9.809 0h6.992v3.783h-6.992z"/></g><path d="M1152.319 73.235h-32.006l-.001-15.633h32.077l-.07 15.633z" class="L"/><g clip-path="url(#S)" class="P"><path d="M1155.205 63.023h-37.778l-.859-8.936h39.58l-.943 8.936z"/></g><g class="D"><use href="#q"/><path d="M1132.854 60.652h6.992V72.62h-6.992zm9.861 0h6.992V72.62h-6.992z"/></g><g class="V"><use href="#r"/><path d="M1132.854 68.417h6.992V72.2h-6.992zm9.861 0h6.992V72.2h-6.992z"/></g><g class="B J"><g class="T U"><path d="M1119.779 73.235h33.142v6.644h-33.142z"/><use href="#s"/><path d="M1130.826 73.235v6.644m5.524-6.644v6.644m5.524-6.644v6.644m5.524-6.644v6.644"/></g><g stroke="#7500f9" class="X"><use href="#t"/><path d="M1098.227 117.707v9.367m12.708-9.367v9.367m50.83-9.367v9.367m12.708-9.367v9.367m15.346-9.367v9.367"/></g></g><path d="M1189.819,115.681h-106.937c-1.123,0-2.033.91-2.033,2.033v2.022h111.004v-2.022c0-1.123-.91-2.033-2.033-2.033Z" fill="#7500f9"/><g fill="#9f4dfb"><path d="M1127.859,115.67h17.031c1.122,0,2.033.911,2.033,2.033v3.549h-21.097v-3.549c0-1.122.911-2.033,2.033-2.033Z"/><path d="M1123.568,121.252h25.614c1.122,0,2.033.911,2.033,2.033v3.788h-29.68v-3.788c0-1.122.911-2.033,2.033-2.033Z"/></g><g fill="#7d36c2"><path d="M1125.826 119.737h21.097v1.516h-21.097zm-4.292 5.589h29.68v1.748h-29.68z" class="K"/></g><path d="M1080.848 127.074h114.823" stroke="#fcee92" stroke-dasharray="0 10" stroke-width="10" class="H I Q"/><path d="M1059.32 126.705c-.596 0-1.174.241-1.595.663-.365.362-.582.845-.636 1.357h-.013v.129c-.002.037-.011.073-.011.111v2.317h.011v4.035h5.07v-4.035h8.999v4.035h5.07v-4.045a2.48 2.48 0 0 0 1.664-.722 2.51 2.51 0 0 0 .734-1.774v-2.071h-19.293z" fill="#0c1c1c"/><g fill="#bd3c6f"><path d="M1063.644 139.117h6.084v6.591h-6.084zm-1.055 4.36h-1.892c-1.091 0-2.015.818-2.139 1.907l-1.345 11.833h-2.258v1.526h5.721v-.008h.178l1.734-15.257z"/></g><g fill="#de588b"><path d="M1079.347 147.301c.526 0 1.022-.252 1.328-.679.313-.419.397-.969.237-1.473l-3.502-10.856-3.944.039 3.181 9.154h-7.247v3.815h9.947z"/><path d="M1072.262 131.276h-11.077a2.61 2.61 0 0 0-2.61 2.61v.096h0a2.62 2.62 0 0 0 0 5.24c.073 1.386 1.21 2.496 2.611 2.496h11.077c1.439 0 2.61-1.169 2.61-2.61v-5.221c0-1.441-1.171-2.61-2.61-2.61z"/></g><path d="M1074.624 143.491h-3.048l-9.707-.007h-1.168a2.16 2.16 0 0 0-2.14 1.91l-.39 3.429h3.291l-.699 9.175c-.039.486.131.968.461 1.323.333.361.798.563 1.285.563h8.425c.487 0 .953-.202 1.285-.563a1.75 1.75 0 0 0 .461-1.323l-.808-10.624h2.752v-3.883z" fill="#5fc9a4"/><g fill="#0c1c1c"><path d="M1064.171 134.873c0-.249-.198-.446-.441-.446h-.887c-.248 0-.446.198-.446.446v2.91c0 .249.198.446.446.446h.887c.244 0 .441-.198.441-.446v-2.91zm7.862 0c0-.249-.198-.446-.441-.446h-.887c-.248 0-.446.198-.446.446v2.91c0 .249.198.446.446.446h.887c.243 0 .441-.198.441-.446v-2.91z"/></g></g></svg>