<svg xmlns="http://www.w3.org/2000/svg" width="1500" height="145" xmlns:v="https://vecta.io/nano"><style><![CDATA[.B{fill-rule:evenodd}.C{fill:#fff}.D{fill:none}.E{fill:#bee23b}.F{fill:#d1e2e9}.G{clip-rule:evenodd}.H{stroke-linecap:round}.I{stroke-linejoin:round}.J{opacity:.598}.K{stroke-width:10}.L{stroke:#dcebf1}.M{fill:#f6f6f6}.N{fill:#dcebf1}.O{fill:#394319}.P{fill:#86a426}.Q{opacity:.371}.R{fill:#8eb029}.S{stroke-dasharray:0 10.243}.T{fill:#afd33d}.U{opacity:.678}.V{fill:#c18f64}]]></style><defs><clipPath id="A"><path d="M0 0h1500v145H0z" class="D"/></clipPath><clipPath id="B"><path d="M705.389,86.965c4.471-7.747,6.826-16.534,6.826-25.478,0-28.124-22.832-50.956-50.956-50.956s-50.956,22.832-50.956,50.956c0,8.944,2.355,17.731,6.826,25.478h88.259Z" class="D G"/></clipPath><clipPath id="C"><path d="M192.557 21.165L156.523-8.66h-2.274l-36.034 29.825v29.492c0 .693.262 1.358.766 1.85a2.6 2.6 0 0 0 1.837.765h69.116a2.65 2.65 0 0 0 1.859-.765 2.66 2.66 0 0 0 .765-1.85V21.165z" class="D G"/></clipPath><clipPath id="D"><path d="M546.555-119.747a17.34 17.34 0 0 0-17.339 17.339v61.105a17.34 17.34 0 0 0 17.339 17.339h10.622c5.6 0 10.892 2.591 14.331 7.012l6.287 8.092c3.438 4.421 8.731 7 14.331 7h25.849c4.359 0 8.399-2.272 10.659-6.005l16.025-26.427c3.033-5.022 8.486-8.092 14.355-8.092h10.192c4.556 0 8.928-1.805 12.157-5.035 3.217-3.217 5.035-7.601 5.035-12.157h0a17.2 17.2 0 0 0-17.192-17.192h-55.837a10.79 10.79 0 0 1-8.793-4.519l-22.3-31.252c-3.23-4.519-8.436-7.208-13.987-7.208h-5.109c-.516 0-1.019-.209-1.388-.577l-2.947-2.947c-.368-.368-.872-.577-1.388-.577s-1.019.209-1.388.577l-2.947 2.947c-.368.368-.872.577-1.388.577h-5.182z" class="D G"/></clipPath><clipPath id="E"><path d="M254.617 116.471h-2.412a1.35 1.35 0 0 1-1.35-1.35h0a1.35 1.35 0 0 1 .755-1.212l1.721-.845a1.38 1.38 0 0 1 1.987 1.238v1.466a.7.7 0 0 1-.701.701z" class="C"/></clipPath><clipPath id="F"><path d="M168.57 105.006l73.83 23.95v29.005l-73.83-23.951v-29.004z" class="D G"/></clipPath><clipPath id="G"><path d="M943.403-38.894a4.06 4.06 0 0 1 3.431-1.894c1.386 0 2.676.714 3.431 1.894l22.427 35.302c0 10.472-11.584 18.982-25.858 18.982s-25.858-8.51-25.858-18.982l22.427-35.302z" class="D G"/></clipPath><clipPath id="H"><path d="M943.993 169.944a4.08 4.08 0 0 1 3.418-1.853c1.373 0 2.663.7 3.404 1.853l18.31 28.356c0 8.661-9.731 15.702-21.713 15.702-11.996 0-21.727-7.041-21.727-15.702l18.31-28.356z" class="D G"/></clipPath><clipPath id="I"><path d="M822.319-34.912a4.06 4.06 0 0 1 3.431-1.894c1.386 0 2.676.714 3.431 1.894L851.608.39c0 10.472-11.584 18.982-25.858 18.982S799.892 10.862 799.892.39l22.427-35.302z" class="D G"/></clipPath><clipPath id="J"><path d="M1099.437-38.391a4.06 4.06 0 0 1 3.431-1.894c1.386 0 2.676.714 3.431 1.894l22.427 35.302c0 10.472-11.584 18.982-25.858 18.982s-25.858-8.51-25.858-18.982l22.427-35.302z" class="D G"/></clipPath><clipPath id="K"><path d="M1170.986 7.555a4.06 4.06 0 0 1 3.431-1.894c1.386 0 2.676.714 3.431 1.894l22.427 35.302c0 10.472-11.584 18.982-25.858 18.982s-25.858-8.51-25.858-18.982l22.427-35.302z" class="D G"/></clipPath><clipPath id="L"><path d="M1171.576-.557a4.08 4.08 0 0 1 3.418-1.853c1.373 0 2.663.7 3.404 1.853l18.31 28.356c0 8.661-9.731 15.702-21.713 15.702s-21.727-7.041-21.727-15.702l18.31-28.356z" class="D G"/></clipPath><clipPath id="M"><path d="M1171.206-9.08c.714-1.07 1.921-1.716 3.212-1.716s2.498.645 3.212 1.716l13.478 20.245c0 3.761-2.539 7.11-6.492 9.251-2.814 1.523-6.355 2.443-10.198 2.443-9.21 0-16.69-5.243-16.69-11.694l13.478-20.245z" class="D G"/></clipPath><clipPath id="N"><path d="M1016.091 124.273a4.06 4.06 0 0 1 3.431-1.894c1.386 0 2.676.714 3.431 1.894l22.427 35.302c0 10.472-11.584 18.982-25.858 18.982s-25.858-8.51-25.858-18.982l22.427-35.302z" class="D G"/></clipPath><clipPath id="O"><path d="M1016.681 116.161a4.08 4.08 0 0 1 3.418-1.853c1.373 0 2.663.7 3.404 1.853l18.31 28.356c0 8.661-9.731 15.702-21.713 15.702-11.996 0-21.727-7.041-21.727-15.702l18.31-28.356z" class="D G"/></clipPath><clipPath id="P"><path d="M1016.31 107.638c.714-1.07 1.921-1.716 3.212-1.716s2.498.645 3.212 1.716l13.478 20.245c0 3.761-2.539 7.11-6.492 9.251-2.814 1.523-6.355 2.443-10.198 2.443-9.21 0-16.69-5.243-16.69-11.694l13.478-20.245z" class="D G"/></clipPath><clipPath id="Q"><path d="M1292.908 17.014c-.701-4.557-4.622-7.921-9.233-7.921h-13.729a9.34 9.34 0 0 0-8.982 6.775l-2.493 8.727h-6.072a3.87 3.87 0 0 0-3.668 2.643l-8.69 26.069c-.348 1.044-.173 2.191.47 3.084a3.42 3.42 0 0 0 2.777 1.421h8.538l4.864 9.727a6.44 6.44 0 0 0 5.76 3.56h29.237c1.743 0 3.411-.706 4.624-1.958a6.44 6.44 0 0 0 1.813-4.683v-.003h7.56c.957 0 1.871-.401 2.519-1.105a3.42 3.42 0 0 0 .892-2.602l-1.481-17.767c-.24-2.883-2.65-5.1-5.543-5.1h-5.955l-3.21-20.868z" class="D G"/></clipPath><path id="R" d="M1022.136 17.712c-.239 0-.476-.091-.658-.273l-4.159-4.16a.93.93 0 1 1 1.315-1.316l4.159 4.16a.93.93 0 0 1 0 1.316c-.182.182-.419.273-.658.273z"/><path id="S" d="M1022.136 17.712c-.239 0-.476-.091-.658-.273a.93.93 0 0 1 0-1.316l4.161-4.16a.93.93 0 1 1 1.315 1.316l-4.161 4.16c-.182.182-.419.273-.658.273z"/><path id="T" d="M1012.28 22.238a.92.92 0 0 1-.258-.037.93.93 0 0 1-.635-1.153l1.042-3.595a.93.93 0 1 1 1.787.518l-1.042 3.595a.93.93 0 0 1-.893.672z"/><path id="U" d="M1012.513 28.891a.93.93 0 0 1-.451-1.746l3.279-1.804c.453-.252 1.018-.082 1.264.366a.93.93 0 0 1-.366 1.264l-3.279 1.804a.92.92 0 0 1-.447.116z"/><path id="V" d="M1032.05 22.238a.93.93 0 0 1-.893-.672l-1.044-3.595a.93.93 0 0 1 .633-1.153.93.93 0 0 1 1.153.635l1.044 3.595a.93.93 0 0 1-.633 1.153c-.087.025-.175.037-.26.037z"/><path id="W" d="M1031.817 28.891c-.151 0-.305-.037-.447-.116l-3.279-1.804a.93.93 0 0 1-.366-1.264c.246-.449.814-.618 1.264-.366l3.279 1.804a.93.93 0 0 1-.451 1.746z"/><path id="X" d="M669.598,103.18c0-2.76,2.23-5,4.99-5h0c2.76,0,5,2.24,5,5h0c0,2.76-2.24,5-5,5h0c-2.76,0-4.99-2.24-4.99-5Z"/><path id="Y" d="M116.028 20.465h78.715v6.56h-78.715z"/><path id="Z" d="M126.961 44.487h13.119v2.217h-13.119z"/><path id="a" d="M261.562,126.274h.939l-.401,1.517h-2.49c0-.838.763-1.517,1.952-1.517Z"/><path id="b" d="M274.634 121.981v2.522h-2.296-.03c-2.009-.016-3.633-1.65-3.633-3.662v-3.205h4.818v3.204a1.14 1.14 0 0 0 1.142 1.142h0z"/><path id="c" d="M274.488,127.791h-1.866l1.446-5.641.432-.177c1.335.09,1.084,1.106.805,2.227l-.817,3.591Z"/><path id="d" d="M254.617 116.471h-2.412a1.35 1.35 0 0 1-1.35-1.35h0a1.35 1.35 0 0 1 .755-1.212l1.721-.845a1.38 1.38 0 0 1 1.987 1.238v1.466a.7.7 0 0 1-.701.701z"/><path id="e" d="M173.844 143.239h7.91v18.458h-7.91z"/><path id="f" d="M923.309-7.27c.673-1.071 2.1-1.373 3.157-.7 1.07.686 1.386 2.114.7 3.171l-4.914 7.672c-.673 1.071-2.1 1.386-3.157.7a2.29 2.29 0 0 1-.7-3.171l4.914-7.672z"/><path id="g" d="M943.403-38.894a4.06 4.06 0 0 1 3.431-1.894c1.386 0 2.676.714 3.431 1.894l22.427 35.302c0 10.472-11.584 18.982-25.858 18.982s-25.858-8.51-25.858-18.982l22.427-35.302z"/><path id="h" d="M944.336-54.54c.769-.906 1.894-1.414 3.075-1.414a4.02 4.02 0 0 1 3.074 1.414c6.849 7.988 22.784 27.602 22.784 37.182 0 10.486-11.584 18.996-25.858 18.996s-25.872-8.51-25.872-18.996c0-9.58 15.935-29.194 22.798-37.182z"/><path id="i" d="M955.701 11.025c-.137-1.263-1.276-2.169-2.525-2.045-1.263.137-2.182 1.277-2.045 2.526l.425 3.925c.137 1.249 1.263 2.169 2.526 2.031s2.169-1.263 2.031-2.525l-.412-3.912z"/><path id="j" d="M971.252-5.857c-.686-1.071-2.1-1.373-3.171-.7-1.057.686-1.373,2.114-.686,3.17l4.09,6.396c.686,1.057,2.114,1.373,3.171.686,1.071-.686,1.373-2.1.7-3.17l-4.104-6.382Z"/><path id="k" d="M937.185 5.947c.151-1.249 1.304-2.141 2.553-1.99 1.263.151 2.155 1.304 1.99 2.553l-.275 2.278a2.29 2.29 0 0 1-2.567 1.99c-1.249-.151-2.141-1.304-1.99-2.553l.288-2.278z"/><path id="l" d="M957.471 5.947c-.151-1.249-1.304-2.141-2.553-1.99a2.3 2.3 0 0 0-2.004 2.553l.288 2.278c.151 1.263 1.304 2.155 2.553 1.99a2.3 2.3 0 0 0 2.004-2.553l-.288-2.278z"/><path id="m" d="M931.187-3.153c.371-1.208,1.661-1.88,2.869-1.51,1.208.384,1.88,1.674,1.496,2.882l-.961,3.061c-.384,1.208-1.674,1.88-2.882,1.496-1.208-.37-1.88-1.661-1.496-2.869l.974-3.061Z"/><path id="n" d="M962.152-2.123c-.384-1.208-1.675-1.88-2.882-1.496s-1.88 1.674-1.496 2.882l.961 3.061c.384 1.208 1.674 1.88 2.882 1.496s1.88-1.661 1.496-2.869l-.961-3.074z"/><path id="o" d="M925.052 3.518c.714-1.043 2.141-1.318 3.184-.604a2.31 2.31 0 0 1 .604 3.198l-1.812 2.635a2.28 2.28 0 0 1-3.184.604c-1.043-.714-1.318-2.141-.604-3.184l1.812-2.649z"/><path id="p" d="M931.38 11.218c.384-1.208 1.661-1.88 2.869-1.51s1.894 1.661 1.523 2.869l-.055.178c-.371 1.208-1.661 1.88-2.869 1.51s-1.894-1.661-1.51-2.869l.041-.178z"/><path id="q" d="M963.126 9.035a2.29 2.29 0 0 0-2.869-1.51c-1.208.371-1.88 1.661-1.51 2.869l.906 2.951c.384 1.208 1.661 1.894 2.869 1.523 1.222-.384 1.894-1.661 1.524-2.869l-.92-2.965z"/><path id="r" d="M937.364 13.427c.137-1.263 1.263-2.182 2.525-2.045s2.169 1.277 2.031 2.526l-.014.192c-.137 1.249-1.277 2.169-2.526 2.031-1.263-.137-2.169-1.277-2.045-2.526l.027-.178z"/><path id="s" d="M967.889 3.477a2.3 2.3 0 0 0-3.17-.686c-1.071.686-1.373 2.1-.7 3.171l2.745 4.255c.686 1.071 2.1 1.373 3.17.7 1.057-.686 1.373-2.114.686-3.171l-2.731-4.269z"/><path id="t" d="M943.993 145.815c.727-1.18 2.018-1.894 3.418-1.894a4.04 4.04 0 0 1 3.418 1.894c6.121 9.388 18.296 29.317 18.296 39.296 0 11.433-9.731 20.725-21.713 20.725-11.996 0-21.727-9.292-21.727-20.725 0-9.978 12.188-29.907 18.31-39.296z"/><path id="u" d="M804.434-3.494c.631-1.098 2.031-1.469 3.129-.837s1.469 2.031.837 3.129l-2.073 3.596c-.631 1.098-2.031 1.469-3.129.837s-1.469-2.031-.837-3.129l2.073-3.596z"/><path id="v" d="M846.695-3.618c-.631-1.098-2.031-1.469-3.129-.837s-1.469 2.031-.837 3.129l2.073 3.596c.631 1.098 2.045 1.469 3.143.837a2.3 2.3 0 0 0 .837-3.129l-2.086-3.596z"/><path id="w" d="M822.909-43.023a4.08 4.08 0 0 1 3.418-1.853c1.373 0 2.663.7 3.404 1.853l18.31 28.356c0 8.661-9.731 15.702-21.713 15.702-11.996 0-21.727-7.041-21.727-15.702l18.31-28.356z"/><path id="x" d="M837.307-.996c-.371-1.208-1.661-1.894-2.869-1.523s-1.894 1.661-1.51 2.869l.055.178a2.28 2.28 0 0 0 2.855 1.51c1.222-.371 1.894-1.661 1.523-2.869l-.055-.165z"/><path id="y" d="M814.893-.996c.371-1.208 1.647-1.894 2.869-1.523 1.208.37 1.881 1.661 1.51 2.869l-.055.178c-.371 1.208-1.661 1.88-2.869 1.51s-1.88-1.661-1.51-2.869l.055-.165z"/><path id="z" d="M831.336 1.2c-.137-1.263-1.276-2.169-2.525-2.031a2.29 2.29 0 0 0-2.045 2.525l.027.178c.137 1.249 1.263 2.169 2.525 2.031 1.249-.137 2.169-1.263 2.031-2.525l-.014-.178z"/><path id="AA" d="M820.864 1.2c.137-1.263 1.263-2.169 2.526-2.031 1.263.123 2.169 1.263 2.031 2.525l-.014.178c-.137 1.249-1.263 2.169-2.525 2.031s-2.169-1.263-2.031-2.525l.014-.178z"/><path id="AB" d="M1171.933-18.441c.769-.892 1.88-1.4 3.061-1.4a4.05 4.05 0 0 1 3.061 1.4c5.984 6.918 18.653 22.482 18.653 30.182 0 8.674-9.731 15.702-21.713 15.702-11.996 0-21.727-7.027-21.727-15.702 0-7.7 12.668-23.264 18.666-30.182z"/><path id="AC" d="M1186.701 25.617c-.631-1.098-.261-2.512.837-3.143a2.3 2.3 0 0 1 3.129.837l2.292 3.98c.645 1.098.261 2.498-.837 3.129a2.29 2.29 0 0 1-3.129-.837l-2.292-3.967z"/><path id="AD" d="M1158.867 22.543a2.32 2.32 0 0 1 3.143-.837c1.098.631 1.469 2.045.837 3.143l-1.99 3.431c-.631 1.098-2.031 1.469-3.129.837s-1.469-2.031-.837-3.129l1.977-3.445z"/><path id="AE" d="M1171.206-9.08c.714-1.07 1.921-1.716 3.212-1.716s2.498.645 3.212 1.716l13.478 20.245c0 3.761-2.539 7.11-6.492 9.251-2.814 1.523-6.355 2.443-10.198 2.443-9.21 0-16.69-5.243-16.69-11.694l13.478-20.245z"/><path id="AF" d="M1173.676.541c-.343-1.222.371-2.484 1.592-2.827s2.484.371 2.827 1.592l.192.659c.329 1.221-.384 2.484-1.592 2.827-1.222.343-2.484-.371-2.827-1.592l-.192-.659z"/><path id="AG" d="M1179.015 5.606c-.535-1.153-.055-2.512 1.098-3.061 1.139-.535 2.512-.055 3.047 1.098l.988 2.073c.535 1.139.055 2.512-1.098 3.047a2.28 2.28 0 0 1-3.047-1.084l-.988-2.073z"/><path id="AH" d="M1166.868 1.378a2.29 2.29 0 0 1 3.129-.837c1.098.645 1.469 2.045.837 3.143l-1.153 1.976c-.645 1.098-2.045 1.469-3.143.837-1.084-.645-1.469-2.045-.823-3.143l1.153-1.977z"/><path id="AI" d="M1177.286 22.68c0-1.276-1.029-2.292-2.292-2.292s-2.292 1.016-2.292 2.292v.178c0 1.263 1.029 2.292 2.292 2.292s2.292-1.029 2.292-2.292v-.178z"/><path id="AJ" d="M1159.759 17.067c.481-1.167 1.826-1.743 2.992-1.263a2.29 2.29 0 0 1 1.263 2.992l-.069.165c-.48 1.167-1.812 1.743-2.978 1.263a2.29 2.29 0 0 1-1.263-2.992l.055-.165z"/><path id="AK" d="M1192.864 11.453c-.686-1.071-2.1-1.373-3.17-.7a2.29 2.29 0 0 0-.686 3.17l.096.151c.686 1.071 2.1 1.373 3.171.7 1.057-.686 1.373-2.114.686-3.17l-.096-.151z"/><path id="AL" d="M1198.546 28.349c-.686-1.071-2.1-1.373-3.17-.7a2.29 2.29 0 0 0-.686 3.171l.096.151a2.29 2.29 0 0 0 3.171.7 2.3 2.3 0 0 0 .686-3.171l-.096-.151z"/><path id="AM" d="M1156.368 11.425c.686-1.071 2.1-1.373 3.171-.686 1.07.673 1.373 2.1.686 3.157l-.096.165a2.3 2.3 0 0 1-3.17.686 2.3 2.3 0 0 1-.686-3.17l.096-.151z"/><path id="AN" d="M1184.368 20.978c-.206-1.249-1.386-2.1-2.635-1.894s-2.086 1.386-1.88 2.635l.027.178c.206 1.249 1.386 2.1 2.635 1.894s2.1-1.386 1.88-2.635l-.027-.178z"/><path id="AO" d="M1164.864 20.951c.206-1.249 1.386-2.1 2.635-1.894a2.29 2.29 0 0 1 1.88 2.649l-.027.178c-.206 1.249-1.386 2.086-2.635 1.88s-2.086-1.386-1.88-2.635l.027-.178z"/><path id="AP" d="M909.488 46.087c0-.752-.299-1.472-.83-2.004s-1.252-.83-2.004-.83h-5.675c-.752 0-1.472.299-2.004.83s-.83 1.252-.83 2.004v.004c0 .752.299 1.472.83 2.004s1.252.83 2.004.83h5.675c.752 0 1.472-.299 2.004-.83s.83-1.252.83-2.004v-.004z"/><path id="AQ" d="M802.249 54.677a3.77 3.77 0 0 0-3.768-3.768h-10.048a3.77 3.77 0 0 0-3.768 3.768 3.77 3.77 0 0 0 3.768 3.768h10.048a3.77 3.77 0 0 0 3.768-3.768z"/><path id="AR" d="M839.301 108.056a3.14 3.14 0 0 0-3.14-3.14h-8.164a3.14 3.14 0 0 0 0 6.28h8.164a3.14 3.14 0 0 0 3.14-3.14z"/><path id="AS" d="M713.075 111.138a3.71 3.71 0 0 0-3.71-3.71h-.116a3.71 3.71 0 0 0-3.71 3.71v.06a3.77 3.77 0 0 0 1.103 2.663c.706.706 1.664 1.103 2.663 1.103h.005a3.77 3.77 0 0 0 2.663-1.103c.706-.706 1.103-1.664 1.103-2.663v-.06z"/></defs><g clip-path="url(#A)"><path d="M-40.704-1580.384h1571.886v3937.779H-40.704z" fill="#5bd1d6"/><path d="M1277.623 1073.364h8.205c32.154 0 58.22-26.066 58.22-58.22v-16.185c0-34.42 27.903-62.323 62.323-62.323h154.74V-858.897h0-404.217c-17.488 0-31.666-14.177-31.666-31.666h0c0-17.489-14.177-31.666-31.666-31.666h-52.418c-22.776 0-41.239-18.463-41.239-41.239h0c0-22.776-18.463-41.239-41.239-41.239h-39.928c-22.776 0-41.239-18.463-41.239-41.239v-30.651c0-23.58-19.115-42.695-42.695-42.695H638.901c-27.867 0-50.458 22.591-50.458 50.458v.873c0 27.867-22.591 50.458-50.458 50.458H349.729c-27.867 0-50.458-22.591-50.458-50.458v-26.987c0-27.867-22.591-50.458-50.458-50.458H-77.456l-18.267 2195.871c-.483 21.282 16.638 38.795 37.925 38.795h271.652c42.401 0 76.774 34.373 76.774 76.774h0c0 42.401 34.373 76.774 76.774 76.774h297.815c35.348 0 64.002-28.655 64.002-64.002h0c0-35.348 28.655-64.002 64.002-64.002h217.647c35.348 0 64.002 28.655 64.002 64.002v53.579c0 37.513 30.41 67.924 67.924 67.924h418.317v-92.906h0-283.489c-32.154 0-58.22-26.066-58.22-58.22v-17.597c0-32.154 26.066-58.22 58.22-58.22z" fill="#7ee5e3"/><path d="M984.015-829.787c-74.904 0-135.625-60.721-135.625-135.625v-12.015c0-14.122-11.449-25.571-25.571-25.571h-9.435c-6.635 0-12.014-5.379-12.014-12.014h0c0-6.635-5.379-12.014-12.014-12.014h-20.754c-20.758 0-37.585-16.827-37.585-37.585h0c0-14.123-11.449-25.571-25.571-25.571h-66.544c-11.79 0-21.347 9.558-21.347 21.347v.874c0 43.944-35.624 79.568-79.568 79.568H349.731c-43.944 0-79.568-35.624-79.568-79.568v-26.987c0-11.79-9.558-21.347-21.347-21.347H-48.967l-17.653 2167.42c-.073 3.231 1.542 5.378 2.512 6.37s3.079 2.656 6.311 2.656h271.651c58.316 0 105.772 47.388 105.884 105.678.05 26.328 21.336 47.87 47.664 47.87h297.814c19.245 0 34.906-15.581 34.892-34.826-.036-51.373 41.748-93.179 93.113-93.179h217.647c51.425 0 93.113 41.688 93.113 93.113v58.431c0 18.757 15.205 33.962 33.962 33.962h18.387c18.757 0 33.962-15.205 33.962-33.962v-105.652c0-48.231 39.099-87.33 87.33-87.33h8.205c16.077 0 29.11-13.033 29.11-29.11v-16.185c0-50.416 41.017-91.432 91.433-91.432H1532V-829.787H984.013z" fill="#ebf5f7"/><path d="M-49.048-1106.29l-17.571 2157.414c-.073 3.231 1.542 5.378 2.512 6.37s3.079 2.656 6.311 2.656h271.65c58.316 0 105.772 47.388 105.884 105.678.05 26.328 21.336 47.87 47.664 47.87h297.814c19.245 0 34.906-15.581 34.892-34.826-.036-51.373 41.748-93.179 93.112-93.179h217.647c51.425 0 93.113 41.688 93.113 93.113v58.43c0 18.757 15.205 33.962 33.962 33.962h18.387c18.757 0 33.962-15.205 33.962-33.962v-105.652c0-48.231 39.099-87.33 87.33-87.33h8.205c16.077 0 29.11-13.033 29.11-29.11v-16.185c0-50.416 41.017-91.432 91.433-91.432h120.627" stroke="#ebf5f7" stroke-dasharray="0 10.006" class="D H I K"/><path d="M1397.633-257.701c-38.673 0-70.023-31.35-70.023-70.023h0c0-38.673-31.351-70.023-70.023-70.023h-115.2c-38.673 0-70.023-31.35-70.023-70.023v-81.318c0-38.673-31.351-70.023-70.023-70.023h-92.612c-38.673 0-70.023-31.35-70.023-70.023v-55.27c0-44.183-35.817-80-80-80H244.318c-44.183 0-80 35.817-80 80v35.388c0 44.183-35.817 80-80 80H-21.696V758.769h95.662c34.93 0 63.247-28.317 63.247-63.247h0c0-34.93 28.317-63.247 63.247-63.247h90.353c34.93 0 63.247-28.317 63.247-63.247V467.381c0-34.93 28.317-63.247 63.247-63.247h98.122c41.867 0 75.807-33.94 75.807-75.807V208.746c0-48.029 38.935-86.964 86.964-86.964h0c48.029 0 86.964 38.935 86.964 86.964v90.427c0 41.867 33.94 75.807 75.807 75.807h242.686c42.415 0 76.8-34.385 76.8-76.8h0c0-42.416 34.384-76.8 76.8-76.8h31.624c42.415 0 76.8-34.384 76.8-76.8V70.039c0-42.415 34.384-76.8 76.8-76.8h95.863v-250.94h-120.71z" class="N"/><path d="M-11.688 758.768h85.654c34.93 0 63.247-28.317 63.247-63.247s28.317-63.247 63.247-63.247h90.353c34.93 0 63.247-28.317 63.247-63.247V467.38c0-34.93 28.317-63.247 63.247-63.247h98.122c41.867 0 75.807-33.94 75.807-75.807V208.745c0-48.029 38.935-86.964 86.964-86.964h0c48.029 0 86.964 38.935 86.964 86.964v90.427c0 41.867 33.94 75.807 75.807 75.807h242.686c42.415 0 76.8-34.385 76.8-76.8h0c0-42.416 34.385-76.8 76.8-76.8h31.624c42.415 0 76.8-34.385 76.8-76.8V70.038c0-42.415 34.384-76.8 76.8-76.8h90.86" stroke-dasharray="0 10.007" class="D H I K L"/><g fill="#a17046"><path d="M1022.376 15.401l.139.029.135.042.13.056.123.069.116.08.108.092.097.103.086.112.075.12.063.127.049.132.035.137.022.14.007.141v37.693l-.007.141-.022.14-.035.137-.049.132-.063.127-.075.12-.086.112-.097.103-.108.092-.116.081-.123.068-.13.056-.135.042-.139.029-.141.014h-.141l-.141-.014-.138-.029-.135-.042-.13-.056-.124-.068-.116-.081-.107-.092-.098-.103-.086-.112-.075-.12-.062-.127-.049-.132-.036-.137-.021-.14-.007-.141V16.781l.007-.141.021-.14.036-.137.049-.132.062-.127.075-.12.086-.112.098-.103.107-.092.116-.08.124-.069.13-.056.135-.042.138-.029.141-.014h.141l.141.014z" class="B"/><path d="M1008.973 35.8a.93.93 0 0 1-.902-.709l-.893-3.634a.93.93 0 1 1 1.807-.444l.893 3.634a.93.93 0 0 1-.682 1.126c-.074.018-.149.027-.223.027zm5.283 4.742c-.074 0-.149-.009-.223-.027a.93.93 0 0 1-.682-1.126l.893-3.635a.93.93 0 0 1 1.807.444l-.893 3.635a.93.93 0 0 1-.902.709z"/><g class="B"><path d="M1021.799 34.031l.099.01.098.018.097.025.094.031.092.038.089.045.086.051.082.057.078.062.073.068.067.073.063.078.057.081.051.086.044.089.038.092.032.095.024.096.018.098.011.1.003.099-.003.1-.011.099-.018.098-.024.096-.032.095-.038.092-.044.089-.051.086-.057.082-.063.077-.067.073-.073.068-.078.063-.082.057-.086.05-.089.045-.092.038-.094.032-.097.024-.098.018-.099.011-.1.003h-18.613l-.1-.003-.099-.011-.098-.018-.097-.024-.094-.032-.092-.038-.089-.045-.086-.05-.082-.057-.077-.063-.073-.068-.068-.073-.063-.077-.057-.082-.05-.086-.045-.089-.038-.092-.032-.095-.024-.096-.018-.098-.011-.099-.003-.1.003-.099.011-.1.018-.098.024-.096.032-.095.038-.092.045-.089.05-.086.057-.081.063-.078.068-.073.073-.068.077-.062.082-.057.086-.051.089-.045.092-.038.094-.031.097-.025.098-.018.099-.01.1-.004h18.613l.1.004zm-13.948-17.305l.089.01.088.015.087.022.085.027.084.032.081.037.079.043.075.048.073.052.069.057.065.061 14.398 14.397.061.066.057.069.052.072.048.076.042.079.038.081.032.084.027.085.021.087.016.088.01.089.004.089-.001.09-.007.089-.013.088-.019.088-.024.086-.029.085-.035.082-.04.08-.046.077-.05.075-.054.07-.059.068-.064.063-.067.059-.071.055-.074.05-.077.045-.08.04-.083.035-.084.029-.086.024-.088.019-.088.013-.089.007-.09.001-.089-.004-.089-.01-.088-.016-.087-.021-.086-.027-.083-.032-.081-.038-.079-.042-.076-.048-.072-.052-.069-.057-.066-.061-14.397-14.398-.061-.065-.057-.069-.053-.073-.047-.075-.043-.079-.037-.081-.033-.084-.026-.085-.022-.087-.015-.088-.01-.089-.005-.089.002-.09.007-.089.013-.089.018-.087.024-.086.03-.085.035-.082.04-.08.045-.077.05-.075.055-.07.059-.068.063-.063.067-.059.071-.055.074-.05.078-.045.08-.04.082-.035.084-.03.087-.024.087-.018.089-.013.089-.007.089-.002.09.005z"/></g><use href="#R"/><use href="#S"/><use href="#T"/><use href="#U"/><path d="M1035.356 35.8a.96.96 0 0 1-.224-.027.93.93 0 0 1-.68-1.126l.895-3.634c.121-.5.626-.808 1.126-.682a.93.93 0 0 1 .68 1.126l-.895 3.634a.93.93 0 0 1-.902.709zm-5.282 4.742a.93.93 0 0 1-.902-.709l-.893-3.635a.93.93 0 0 1 1.807-.444l.893 3.635a.93.93 0 0 1-.682 1.126c-.074.018-.149.027-.223.027z"/><g class="B"><path d="M1041.343 34.031l.099.01.098.018.097.025.094.031.093.038.089.045.085.051.082.057.078.062.073.068.068.073.062.078.057.081.051.086.044.089.039.092.031.095.025.096.017.098.011.1.004.099-.004.1-.011.099-.017.098-.025.096-.031.095-.039.092-.044.089-.051.086-.057.082-.062.077-.068.073-.073.068-.078.063-.082.057-.085.05-.089.045-.093.038-.094.032-.097.024-.098.018-.099.011-.099.003h-18.614l-.1-.003-.099-.011-.098-.018-.096-.024-.095-.032-.092-.038-.089-.045-.086-.05-.082-.057-.077-.063-.073-.068-.068-.073-.063-.077-.056-.082-.051-.086-.045-.089-.038-.092-.031-.095-.025-.096-.018-.098-.01-.099-.004-.1.004-.099.01-.1.018-.098.025-.096.031-.095.038-.092.045-.089.051-.086.056-.081.063-.078.068-.073.073-.068.077-.062.082-.057.086-.051.089-.045.092-.038.095-.031.096-.025.098-.018.099-.01.1-.004h18.614l.099.004zm-4.686-17.308l.089.007.089.013.087.018.086.024.085.03.082.035.08.04.078.045.074.05.071.055.067.059.063.063.059.068.055.07.05.075.045.077.04.08.035.082.03.085.024.086.018.087.013.089.007.089.002.09-.005.089-.01.089-.015.088-.022.087-.026.085-.033.084-.037.081-.043.079-.047.075-.053.073-.057.069-.061.065-14.397 14.398-.066.061-.069.057-.072.052-.076.048-.079.042-.081.038-.083.032-.086.027-.087.021-.088.016-.089.01-.089.004-.09-.001-.089-.007-.088-.013-.088-.019-.086-.024-.085-.029-.082-.035-.08-.04-.077-.045-.074-.05-.071-.055-.067-.059-.064-.063-.059-.068-.054-.07-.051-.075-.045-.077-.04-.08-.035-.082-.029-.085-.024-.086-.019-.088-.013-.088-.007-.089-.001-.09.004-.089.01-.089.016-.088.021-.087.027-.085.032-.084.038-.081.042-.079.048-.076.052-.072.057-.069.061-.066 14.398-14.397.065-.061.069-.057.073-.052.075-.048.079-.043.081-.037.084-.032.085-.027.087-.022.088-.015.089-.01.09-.005.089.002z"/></g><use href="#V"/><use href="#W"/><g class="B"><path d="M1280.683 130.252l.139.029.135.042.13.056.123.068.116.081.108.092.097.103.087.111.074.121.063.126.049.133.035.137.022.14.007.141v37.693l-.007.141-.022.14-.035.136-.049.133-.063.127-.074.12-.087.112-.097.102-.108.092-.116.081-.123.069-.13.056-.135.042-.139.028-.14.015h-.142l-.14-.015-.139-.028-.135-.042-.13-.056-.124-.069-.116-.081-.107-.092-.097-.102-.087-.112-.075-.12-.062-.127-.049-.133-.036-.136-.021-.14-.007-.141v-37.693l.007-.141.021-.14.036-.137.049-.133.062-.126.075-.121.087-.111.097-.103.107-.092.116-.081.124-.068.13-.056.135-.042.139-.029.14-.014h.142l.14.014z"/><path d="M1266.158 131.576l.089.01.088.016.087.021.085.027.084.033.081.037.079.043.075.047.073.053.069.057.065.061 14.398 14.397.061.065.057.07.052.072.048.076.042.079.038.081.032.083.027.086.021.087.016.088.01.089.004.089-.001.089-.007.09-.013.088-.019.088-.024.086-.029.084-.035.083-.04.08-.045.077-.05.074-.055.071-.059.067-.063.064-.068.059-.07.054-.075.05-.077.046-.08.04-.082.035-.085.029-.086.024-.088.019-.088.013-.089.007-.09.001-.089-.004-.089-.01-.088-.016-.087-.021-.085-.027-.084-.032-.081-.038-.079-.042-.076-.048-.072-.052-.069-.057-.066-.062-14.397-14.397-.061-.065-.057-.069-.052-.073-.048-.076-.043-.078-.037-.081-.032-.084-.027-.085-.022-.087-.015-.088-.01-.089-.005-.09.002-.089.007-.089.013-.089.018-.087.024-.087.03-.084.035-.083.04-.08.045-.077.05-.074.055-.071.059-.067.063-.063.067-.059.071-.055.074-.05.078-.045.08-.04.082-.035.085-.03.086-.024.087-.018.089-.013.089-.007.09-.002.089.004z"/></g><path d="M1280.443 132.563c-.239 0-.476-.091-.658-.273l-4.159-4.16a.93.93 0 1 1 1.315-1.316l4.159 4.16a.93.93 0 0 1 0 1.316c-.182.182-.419.273-.658.273z"/><path d="M1280.443 132.563c-.239 0-.476-.091-.658-.273a.93.93 0 0 1 0-1.316l4.161-4.16a.93.93 0 1 1 1.315 1.316l-4.161 4.16c-.182.182-.419.273-.658.273zm-9.855 4.525a.92.92 0 0 1-.258-.037.93.93 0 0 1-.635-1.153l1.042-3.595a.93.93 0 1 1 1.787.518l-1.042 3.595a.93.93 0 0 1-.893.672zm.232 6.653a.93.93 0 0 1-.451-1.746l3.279-1.804c.453-.252 1.018-.082 1.264.366a.93.93 0 0 1-.366 1.264l-3.279 1.804a.92.92 0 0 1-.447.116z"/><path d="M1294.964 131.574l.089.007.089.013.087.018.087.024.084.03.083.035.08.04.077.045.074.05.071.055.067.059.063.063.059.067.055.071.05.074.045.077.04.08.035.083.03.084.024.087.018.087.013.089.007.089.002.089-.004.09-.01.089-.016.088-.021.087-.027.085-.033.084-.037.081-.043.078-.047.076-.053.073-.057.069-.061.065-14.397 14.397-.065.062-.07.057-.072.052-.076.048-.079.042-.081.038-.083.032-.086.027-.087.021-.088.016-.089.01-.089.004-.089-.001-.09-.007-.088-.013-.088-.019-.086-.024-.084-.029-.083-.035-.08-.04-.077-.046-.074-.05-.071-.054-.067-.059-.064-.064-.059-.067-.054-.071-.05-.074-.045-.077-.041-.08-.034-.083-.03-.084-.024-.086-.019-.088-.012-.088-.008-.09-.001-.089.004-.089.01-.089.016-.088.021-.087.027-.086.032-.083.038-.081.042-.079.048-.076.052-.072.057-.07.062-.065 14.397-14.397.065-.061.069-.057.073-.053.076-.047.078-.043.082-.037.083-.033.085-.027.087-.021.088-.016.089-.01.09-.004.089.002z" class="B"/><path d="M1290.357 137.088a.93.93 0 0 1-.893-.672l-1.044-3.595a.93.93 0 0 1 .633-1.153.93.93 0 0 1 1.153.635l1.044 3.595a.93.93 0 0 1-.633 1.153c-.087.025-.175.037-.26.037zm-.233 6.653c-.151 0-.305-.037-.447-.116l-3.279-1.804a.93.93 0 0 1-.366-1.264c.246-.449.814-.618 1.264-.366l3.279 1.804a.93.93 0 0 1-.451 1.746z"/></g><path d="M705.389,86.965c4.471-7.747,6.826-16.534,6.826-25.478,0-28.124-22.832-50.956-50.956-50.956s-50.956,22.832-50.956,50.956c0,8.944,2.355,17.731,6.826,25.478h88.259Z" class="B C"/><g clip-path="url(#B)" fill="#ddf3f3"><path d="M714.068 40.264h-40.764a1.94 1.94 0 0 1-1.939-1.938 1.94 1.94 0 0 1 1.939-1.938h40.764a1.94 1.94 0 0 1 1.939 1.938 1.94 1.94 0 0 1-1.939 1.938zm-44.47 16.676h-63a1.94 1.94 0 0 1-1.939-1.938 1.94 1.94 0 0 1 1.939-1.938h63a1.94 1.94 0 0 1 1.939 1.938 1.94 1.94 0 0 1-1.939 1.938z"/><path d="M634.392 56.688a1.94 1.94 0 0 1-1.939-1.938V42.959a1.94 1.94 0 0 1 1.939-1.938 1.94 1.94 0 0 1 1.939 1.938V54.75a1.94 1.94 0 0 1-1.939 1.938zm59.294-4.38a1.94 1.94 0 0 1-1.939-1.938V38.537a1.94 1.94 0 0 1 1.939-1.938 1.94 1.94 0 0 1 1.939 1.938V50.37a1.94 1.94 0 0 1-1.939 1.938z"/></g><g class="D H I K L"><path d="M705.389 86.965h0"/><path d="M695.424 86.965h-74.74" stroke-dasharray="0 9.965"/><path d="M615.701 86.965h0"/></g><g class="B"><path d="M675.156 80.016a13.9 13.9 0 0 0-13.897-13.897h-.004a13.89 13.89 0 0 0-9.824 4.069c-2.605 2.605-4.069 6.139-4.069 9.824v23.165h27.794V80.015z" fill="#ddf3f3"/><path d="M675.156 96.693a13.89 13.89 0 0 0-13.897-13.897h-.004a13.89 13.89 0 0 0-9.824 4.069c-2.605 2.605-4.069 6.139-4.069 9.824v6.489h27.794v-6.485z" fill="#afebe4"/><path d="M669.598 96.693a8.34 8.34 0 0 0-8.338-8.338h-.004a8.34 8.34 0 0 0-8.334 8.334v6.489h16.676v-6.485z" fill="#5e8281"/></g><g class="N"><use href="#X"/><path d="M642.932,103.18c0-2.76,2.23-5,4.99-5h0c2.76,0,5,2.24,5,5h0c0,2.76-2.24,5-5,5h0c-2.76,0-4.99-2.24-4.99-5Z"/></g><g class="B"><path d="M155.386-31.115L117.493-2.428a6.45 6.45 0 0 0-2.558 5.16v21.384L155.386-9.6v-21.515z" class="C"/><path d="M155.386-31.115l37.74 28.578a6.45 6.45 0 0 1 2.558 5.16v21.494L155.386-9.599v-21.515z" fill="#cfece9"/><path d="M192.557 21.165L156.523-8.66h-2.274l-36.034 29.825v29.492c0 .693.262 1.358.766 1.85a2.6 2.6 0 0 0 1.837.765h69.116a2.65 2.65 0 0 0 1.859-.765 2.66 2.66 0 0 0 .765-1.85V21.165z" fill="#b9875b"/></g><g clip-path="url(#C)"><g fill="#ad7049"><use href="#Y"/><path d="M116.028 46.712h78.715v6.56h-78.715zm0-39.366h78.715v6.56h-78.715zm0-13.119h78.715v6.56h-78.715zm0 39.357h78.715v6.56h-78.715z"/></g><path d="M114.935 26.697l40.451-33.563 40.844 33.891" stroke="#ad7049" stroke-linejoin="bevel" stroke-width="6.56" class="D"/></g><path d="M148.826 35.78h13.119v17.492h-13.119z" fill="#434032"/><path d="M148.826 35.771h13.119v4.373h-13.119z" fill="#14130f"/><g fill="#1e3c49"><path d="M170.692 35.771h13.119v10.933h-13.119zm-43.731 0h13.119v10.933h-13.119zM151.013 7.39h8.746v10.933h-8.746z"/></g><g fill="#cfece9"><path d="M151.013 16.062h8.746v2.217h-8.746z"/><use href="#Z"/><path d="M170.692 44.487h13.119v2.217h-13.119z"/></g><g fill="#0f1e24"><path d="M170.692 33.554h13.119v2.217h-13.119zm-43.731 0h13.119v2.217h-13.119zm24.052-28.381h8.746V7.39h-8.746z"/></g><g class="B N"><path d="M145.812 49.064c-1.664 0-3.014 1.349-3.014 3.014 0-1.665-1.351-3.014-3.014-3.014s-3.014 1.349-3.014 3.014c0-1.665-1.35-3.014-3.014-3.014s-3.014 1.349-3.014 3.014v-.005c0-1.665-1.351-3.014-3.014-3.014s-3.014 1.35-3.014 3.014c0-1.665-1.351-3.014-3.014-3.014s-3.014 1.35-3.014 3.014c0-1.665-1.351-3.014-3.014-3.014s-3.014 1.35-3.014 3.014v3.009h18.086v.005h18.086v-3.009c0-1.665-1.351-3.014-3.014-3.014zm49.291 0c-1.664 0-3.014 1.349-3.014 3.014 0-1.665-1.35-3.014-3.014-3.014s-3.014 1.349-3.014 3.014c0-1.665-1.351-3.014-3.014-3.014s-3.014 1.349-3.014 3.014v-.005c0-1.665-1.351-3.014-3.014-3.014s-3.014 1.35-3.014 3.014c0-1.665-1.351-3.014-3.014-3.014s-3.014 1.35-3.014 3.014c0-1.665-1.351-3.014-3.014-3.014s-3.014 1.35-3.014 3.014v3.009h18.086v.005h18.086v-3.009c0-1.665-1.351-3.014-3.014-3.014z"/></g><g clip-path="url(#D)" class="B"><path d="M544.099-115.01a17.34 17.34 0 0 0-17.339 17.339v61.105a17.34 17.34 0 0 0 17.339 17.339h10.622c5.6 0 10.892 2.591 14.331 7.012l6.287 8.092c3.438 4.421 8.731 7 14.331 7h25.849c4.359 0 8.399-2.272 10.659-6.005l16.025-26.427c3.033-5.022 8.486-8.092 14.355-8.092h10.192c4.556 0 8.928-1.805 12.157-5.035 3.217-3.217 5.035-7.601 5.035-12.157h0a17.2 17.2 0 0 0-17.192-17.192h-55.837a10.79 10.79 0 0 1-8.793-4.519l-22.3-31.252c-3.23-4.519-8.436-7.208-13.987-7.208h-4.126c-.356 0-.712-.147-.97-.405l-2.309-2.309c-.54-.528-1.412-.528-1.94 0l-2.309 2.309c-.258.258-.614.405-.982.405h-9.1z" fill="#b1efee"/></g><rect x="253.087" y="124.482" width="32.575" height="6.619" rx="3.309" class="F"/><path d="M283.611,115.549h-7.693c0-2.953,2.192-5.347,4.896-5.347h7.693c0,2.953-2.192,5.347-4.896,5.347Z" class="C"/><g class="M"><use href="#a"/><path d="M261.368 118.897h1.958v8.894h-1.958z"/><path d="M260.937 115.898h2.819c.329 0 .596.267.596.596v3.369a1.94 1.94 0 0 1-1.937 1.937h-.136a1.94 1.94 0 0 1-1.937-1.937v-3.369c0-.329.267-.596.596-.596z"/></g><g class="C"><path d="M264.467,126.274h.939l-.401,1.517h-2.49c0-.838.763-1.517,1.952-1.517Z"/><path d="M264.272 118.897h1.958v8.894h-1.958z"/><path d="M263.842 117.972h2.819c.329 0 .596.267.596.596v1.295a1.94 1.94 0 0 1-1.937 1.937h-.136a1.94 1.94 0 0 1-1.937-1.937v-1.295c0-.329.267-.596.596-.596z"/></g><g class="M"><use href="#b"/><path d="M272.553,126.274h.939l-.401,1.517h-2.49c0-.838.763-1.517,1.952-1.517Z"/><use href="#c"/></g><path d="M272.337,124.503h-.03.03Z" fill="#c0c3e2"/><g class="C"><path d="M278.164 121.981v2.522h-2.296-.03c-2.009-.016-3.633-1.65-3.633-3.662v-3.205h4.818v3.204a1.14 1.14 0 0 0 1.142 1.142h0zm-2.08 4.293h.939l-.401 1.517h-2.49c0-.838.763-1.517 1.952-1.517z"/><path d="M278.019,127.791h-1.866l1.446-5.641.432-.177c1.335.09,1.084,1.106.805,2.227l-.817,3.591Z"/></g><path d="M275.868,124.503h-.03.03Z" fill="#d5d8f1"/><g class="C"><path d="M260.348 112.876h16.675v6.641h-14.546a2.13 2.13 0 0 1-2.129-2.129v-4.512h0zM259 110.922h-4.594l2.33-4.545c.143-.279.431-.455.744-.455h0a.84.84 0 0 1 .826.703l.694 4.296z"/><path d="M265.172,106.834l-1.794,7.354c0,1.261-1.023,2.283-2.284,2.283h-7.777v-3.426l1.23-2.399h4.423l4.991-4.532c.136-.123.312-.191.495-.191h0c.478,0,.829.447.716.911Z"/><use href="#d"/></g><g clip-path="url(#E)"><use href="#d" class="M"/><path d="M249.368 114.454h2.622v1.014h-2.622z"/></g><path d="M256.641 112.592h2.919v1.021h-2.919z"/><rect x="77.528" y="72.478" width="13.138" height="3.828" rx="1.914" class="F"/><g class="M"><path d="M76.287,62.838h7.592c0-3.202-2.163-5.799-4.832-5.799h-7.592c0,3.202,2.163,5.799,4.832,5.799Z"/><path d="M83.341 63.329c0-.419-.143-.827-.406-1.154l-1.438-1.792s-1.425.49-1.656 2.298c-.329 2.36.232 4.773 1.648 7.24.023.041.056.074.084.111v2.915c-.594.116-1.059.706-1.125 1.446h2.893v-4.961c.324-2.228.404-4.309 0-6.102zm3.377 9.617v-2.914c.028-.037.061-.07.084-.111 1.416-2.467 1.977-4.88 1.647-7.24-.232-1.808-1.656-2.298-1.656-2.298l-1.438 1.792c-.263.327-.406.735-.406 1.154-.404 1.792-.324 3.874 0 6.102v4.961h2.893c-.066-.741-.531-1.33-1.125-1.446z"/></g><g class="C"><path d="M82.307 64.282h2.132v10.11h-2.132z"/><path d="M81.518 74.392h2.676c-.073-.828-.645-1.471-1.338-1.471s-1.265.643-1.338 1.471zm-.331-8.32c.114.716.563 1.347 1.221 1.652.193.089.383.142.549.142h.723a1.22 1.22 0 0 0 1.221-1.221v-1.944l-4.092-.797.378 2.169z"/><path d="M85.983 74.392h-2.132v-10.11h2.132z"/><path d="M86.773 74.392h-2.676c.073-.828.645-1.471 1.338-1.471s1.265.643 1.338 1.471zm.331-8.32c-.114.716-.563 1.347-1.221 1.652-.193.089-.383.142-.549.142h-.723a1.22 1.22 0 0 1-1.221-1.221v-1.944l4.092-.797-.378 2.169z"/></g><path d="M83.652 67.773h.987v6.619h-.987z" class="M"/><g class="C"><path d="M81.157,59.938h5.978c.776,0,1.407.63,1.407,1.407v2.359c0,1.476-1.198,2.674-2.674,2.674h-3.443c-1.476,0-2.674-1.198-2.674-2.674v-2.359c0-.776.63-1.407,1.407-1.407Z"/><rect x="78.373" y="54.859" width="11.544" height="6.951" rx="2.385"/></g><path d="M85.34 58.154l.122.16c.448.585.783 1.268.984 2.004h0c.202.743-.297 1.492-.995 1.492H82.84c-.698 0-1.197-.749-.995-1.492h0c.201-.736.536-1.418.984-2.004l.122-.16c.626-.819 1.763-.819 2.389 0z" class="M"/><path d="M85.779 57.203h2.2v1.212h-2.2zm-3.268 1.213h-2.2v-1.212h2.2z"/><g class="C"><path d="M89.918,57.54h-6.066l4.354-7.803c.161-.289.467-.469.798-.469h0c.505,0,.914.409.914.914v7.357Z"/><path d="M78.373,57.54h6.066l-4.354-7.803c-.161-.289-.467-.469-.798-.469h0c-.505,0-.914.409-.914.914v7.357Z"/></g><path d="M83.514 59.171h1.262v1.212h-1.262z"/><g class="C"><path d="M173.844 130.055h63.283v71.193h-63.283z"/><path d="M168.57 130.055h73.83v71.193h-73.83z"/></g><path d="M168.57 141.811l73.83 23.951v-7.801l-73.83-23.951v7.801z" fill="#f3f3f3" class="B"/><g fill="#81c6db"><use href="#e"/><path d="M187.028 143.239h7.91v18.458h-7.91zm13.184 0h7.91v18.458h-7.91z"/></g><path d="M168.57 105.006l73.83 23.95v29.005l-73.83-23.951v-29.004z" fill="#503b72" class="B"/><g clip-path="url(#F)" stroke="#5b457f" stroke-width="5.274" class="D H I"><path d="M205.485 113.575v39.552m-18.457-48.121v39.551m36.915-30.982v39.552"/><path d="M168.57 118.189l73.83 23.975"/></g><rect x="917.586" y="10.846" width="58.573" height="14.108" rx="7.054" class="F"/><path d="M924.64 24.954h44.466c3.88 0 7.054-3.174 7.054-7.054s-3.174-7.054-7.054-7.054H924.64c-3.88 0-7.054 3.174-7.054 7.054s3.174 7.054 7.054 7.054z" class="D H I K L S"/><g class="B"><path d="M941.605-9.837h9.182v25.241a4.58 4.58 0 0 1-1.345 3.239c-.865.851-2.031 1.345-3.239 1.345h-.014c-1.208 0-2.374-.494-3.239-1.345-.851-.865-1.345-2.031-1.345-3.239V-9.837z" class="O"/><g class="E"><use href="#f"/><use href="#g"/></g></g><g clip-path="url(#G)" class="B P"><use href="#h" class="Q"/></g><g class="B"><g class="E"><use href="#i"/><use href="#j"/></g><g class="R"><path d="M945.119 1.637c0-1.263 1.029-2.292 2.292-2.292s2.292 1.029 2.292 2.292v2.292c0 1.263-1.029 2.292-2.292 2.292s-2.292-1.029-2.292-2.292V1.637z" class="J"/><use href="#k" class="J"/><use href="#l" class="J"/><use href="#m" class="J"/><use href="#n" class="J"/></g><g class="E"><use href="#o"/><use href="#p"/><use href="#q"/><use href="#r"/><use href="#s"/></g></g><g clip-path="url(#H)" class="B T"><use href="#t"/></g><rect x="796.501" y="14.828" width="58.573" height="14.108" rx="7.054" class="F"/><path d="M803.555,28.936h44.466c3.88,0,7.054-3.174,7.054-7.054s-3.174-7.054-7.054-7.054h-44.466c-3.88,0-7.054,3.174-7.054,7.054s3.174,7.054,7.054,7.054Z" class="D H I K L S"/><g class="B"><path d="M820.521-5.855h9.182v25.241a4.58 4.58 0 0 1-1.345 3.239c-.865.851-2.031 1.345-3.239 1.345h-.014c-1.208 0-2.374-.494-3.239-1.345-.851-.865-1.345-2.031-1.345-3.239V-5.855z" class="O"/><g class="E"><path d="M802.225-3.288c.673-1.071 2.1-1.373 3.157-.7 1.07.686 1.386 2.114.7 3.171l-4.914 7.672c-.673 1.071-2.1 1.386-3.157.7a2.29 2.29 0 0 1-.7-3.171l4.914-7.672z"/><path d="M822.319-34.912a4.06 4.06 0 0 1 3.431-1.894c1.386 0 2.676.714 3.431 1.894L851.608.39c0 10.472-11.584 18.982-25.858 18.982S799.892 10.862 799.892.39l22.427-35.302z"/></g></g><g clip-path="url(#I)" class="B P"><path d="M823.252-50.558c.769-.906 1.894-1.414 3.075-1.414a4.02 4.02 0 0 1 3.074 1.414c6.849 7.988 22.784 27.602 22.784 37.182 0 10.486-11.584 18.996-25.858 18.996s-25.872-8.51-25.872-18.996c0-9.58 15.935-29.194 22.798-37.182z" class="Q"/></g><g class="B"><g class="E"><path d="M834.616 15.007c-.137-1.263-1.276-2.169-2.525-2.045-1.263.137-2.182 1.277-2.045 2.526l.425 3.925c.137 1.249 1.263 2.169 2.526 2.031s2.169-1.263 2.031-2.525l-.412-3.912zm15.551-16.882c-.686-1.071-2.1-1.373-3.171-.7-1.057.686-1.373 2.114-.686 3.17l4.09 6.396c.686 1.057 2.114 1.373 3.171.686 1.071-.686 1.373-2.1.7-3.17l-4.104-6.382z"/></g><g class="R"><path d="M824.034 5.619c0-1.263 1.029-2.292 2.292-2.292s2.292 1.029 2.292 2.292v2.292c0 1.263-1.029 2.292-2.292 2.292s-2.292-1.029-2.292-2.292V5.619zm-7.933 4.31c.151-1.249 1.304-2.141 2.553-1.99 1.263.151 2.155 1.304 1.99 2.553l-.275 2.278a2.29 2.29 0 0 1-2.567 1.99c-1.249-.151-2.141-1.304-1.99-2.553l.288-2.278zm20.286 0c-.151-1.249-1.304-2.141-2.553-1.99a2.3 2.3 0 0 0-2.004 2.553l.288 2.278c.151 1.263 1.304 2.155 2.553 1.99a2.3 2.3 0 0 0 2.004-2.553l-.288-2.278zm-26.284-9.1c.371-1.208 1.661-1.88 2.869-1.51 1.208.384 1.88 1.674 1.496 2.882l-.961 3.061c-.384 1.208-1.674 1.88-2.882 1.496-1.208-.37-1.88-1.661-1.496-2.869l.974-3.061zm30.964 1.03c-.384-1.208-1.675-1.88-2.882-1.496a2.3 2.3 0 0 0-1.496 2.882l.961 3.061c.384 1.208 1.674 1.88 2.882 1.496s1.88-1.661 1.496-2.869l-.961-3.074z" class="J"/><use href="#u" class="J"/><use href="#v" class="J"/></g><use href="#w" class="C"/><path d="M803.968 7.5c.714-1.043 2.141-1.318 3.184-.604a2.31 2.31 0 0 1 .604 3.198l-1.812 2.635a2.28 2.28 0 0 1-3.184.604c-1.043-.714-1.318-2.141-.604-3.184l1.812-2.649z" class="E"/><g class="C"><use href="#x"/><use href="#y"/></g><g class="E"><path d="M810.295 15.2c.384-1.208 1.661-1.88 2.869-1.51s1.894 1.661 1.523 2.869l-.055.178c-.371 1.208-1.661 1.88-2.869 1.51s-1.894-1.661-1.51-2.869l.041-.178zm31.747-2.183a2.29 2.29 0 0 0-2.869-1.51c-1.208.371-1.88 1.661-1.51 2.869l.906 2.951c.384 1.208 1.661 1.894 2.869 1.523 1.222-.384 1.894-1.661 1.524-2.869l-.92-2.965z"/></g><g class="C"><use href="#z"/><use href="#AA"/></g><g class="E"><path d="M816.279 17.409c.137-1.263 1.263-2.182 2.525-2.045s2.169 1.277 2.031 2.526l-.014.192c-.137 1.249-1.277 2.169-2.526 2.031-1.263-.137-2.169-1.277-2.045-2.526l.027-.178zm30.526-9.951a2.3 2.3 0 0 0-3.17-.686c-1.071.686-1.373 2.1-.7 3.171l2.745 4.255c.686 1.071 2.1 1.373 3.17.7 1.057-.686 1.373-2.114.686-3.171l-2.731-4.269z"/></g></g><rect x="1073.62" y="11.349" width="58.573" height="14.108" rx="7.054" class="F"/><path d="M1080.674,25.456h44.466c3.88,0,7.054-3.174,7.054-7.054s-3.174-7.054-7.054-7.054h-44.466c-3.88,0-7.054,3.174-7.054,7.054s3.174,7.054,7.054,7.054Z" class="D H I K L S"/><g class="B"><path d="M1097.639-9.334h9.182v25.241a4.58 4.58 0 0 1-1.345 3.239c-.865.851-2.031 1.345-3.239 1.345h-.014c-1.208 0-2.374-.494-3.239-1.345-.851-.865-1.345-2.031-1.345-3.239V-9.334z" class="O"/><g class="E"><path d="M1079.343-6.768c.673-1.071 2.1-1.373 3.157-.7 1.07.686 1.386 2.114.7 3.171l-4.914 7.672c-.673 1.071-2.1 1.386-3.157.7a2.29 2.29 0 0 1-.7-3.171l4.914-7.672z"/><path d="M1099.437-38.391a4.06 4.06 0 0 1 3.431-1.894c1.386 0 2.676.714 3.431 1.894l22.427 35.302c0 10.472-11.584 18.982-25.858 18.982s-25.858-8.51-25.858-18.982l22.427-35.302z"/></g></g><g clip-path="url(#J)" class="B P"><path d="M1100.37-54.038c.769-.906 1.894-1.414 3.075-1.414a4.02 4.02 0 0 1 3.074 1.414c6.849 7.988 22.784 27.602 22.784 37.182 0 10.486-11.584 18.996-25.858 18.996s-25.872-8.51-25.872-18.996c0-9.58 15.935-29.194 22.798-37.182z" class="Q"/></g><g class="B"><g class="E"><path d="M1111.735 11.528c-.137-1.263-1.276-2.169-2.525-2.045-1.263.137-2.182 1.277-2.045 2.526l.425 3.925c.137 1.249 1.263 2.169 2.526 2.031s2.169-1.263 2.031-2.525l-.412-3.912zm15.551-16.882c-.686-1.071-2.1-1.373-3.171-.7-1.057.686-1.373 2.114-.686 3.17l4.09 6.396c.686 1.057 2.114 1.373 3.171.686 1.071-.686 1.373-2.1.7-3.17l-4.104-6.382z"/></g><g class="R"><path d="M1101.153 2.14c0-1.263 1.029-2.292 2.292-2.292s2.292 1.029 2.292 2.292v2.292c0 1.263-1.029 2.292-2.292 2.292s-2.292-1.029-2.292-2.292V2.14zm-7.934 4.31c.151-1.249 1.304-2.141 2.553-1.99 1.263.151 2.155 1.304 1.99 2.553l-.275 2.278a2.29 2.29 0 0 1-2.567 1.99c-1.249-.151-2.141-1.304-1.99-2.553l.288-2.278zm20.286 0c-.151-1.249-1.304-2.141-2.553-1.99a2.3 2.3 0 0 0-2.004 2.553l.288 2.278c.151 1.263 1.304 2.155 2.553 1.99a2.3 2.3 0 0 0 2.004-2.553l-.288-2.278zm-26.284-9.1c.371-1.208 1.661-1.88 2.869-1.51 1.208.384 1.88 1.674 1.496 2.882l-.961 3.061c-.384 1.208-1.674 1.88-2.882 1.496-1.208-.37-1.88-1.661-1.496-2.869l.974-3.061zm30.965 1.029c-.384-1.208-1.675-1.88-2.882-1.496a2.3 2.3 0 0 0-1.496 2.882l.961 3.061c.384 1.208 1.674 1.88 2.882 1.496s1.88-1.661 1.496-2.869l-.961-3.074zm-36.633-5.353c.631-1.098 2.031-1.469 3.129-.837s1.469 2.031.837 3.129l-2.073 3.596c-.631 1.098-2.031 1.469-3.129.837s-1.469-2.031-.837-3.129l2.073-3.596z" class="J"/></g><g class="E"><path d="M1081.086 4.02c.714-1.043 2.141-1.318 3.184-.604a2.31 2.31 0 0 1 .604 3.198l-1.812 2.635a2.28 2.28 0 0 1-3.184.604c-1.043-.714-1.318-2.141-.604-3.184l1.812-2.649zm6.328 7.7c.384-1.208 1.661-1.88 2.869-1.51s1.894 1.661 1.523 2.869l-.055.178c-.371 1.208-1.661 1.88-2.869 1.51s-1.894-1.661-1.51-2.869l.041-.178zm31.746-2.182a2.29 2.29 0 0 0-2.869-1.51c-1.208.371-1.88 1.661-1.51 2.869l.906 2.951c.384 1.208 1.661 1.894 2.869 1.523 1.222-.384 1.894-1.661 1.524-2.869l-.92-2.965z"/></g><g class="C"><path d="M1108.454-2.28c-.137-1.263-1.276-2.169-2.525-2.031a2.29 2.29 0 0 0-2.045 2.525l.027.178c.137 1.249 1.263 2.169 2.525 2.031 1.249-.137 2.169-1.263 2.031-2.525l-.014-.178zm-10.472 0c.137-1.263 1.263-2.169 2.526-2.031 1.263.123 2.169 1.263 2.031 2.525l-.014.178c-.137 1.249-1.263 2.169-2.525 2.031s-2.169-1.263-2.031-2.525l.014-.178z"/></g><g class="E"><path d="M1093.398 13.93c.137-1.263 1.263-2.182 2.525-2.045s2.169 1.277 2.031 2.526l-.014.192c-.137 1.249-1.277 2.169-2.526 2.031-1.263-.137-2.169-1.277-2.045-2.526l.027-.178zm30.525-9.951a2.3 2.3 0 0 0-3.17-.686c-1.071.686-1.373 2.1-.7 3.171l2.745 4.255c.686 1.071 2.1 1.373 3.17.7 1.057-.686 1.373-2.114.686-3.171l-2.731-4.269z"/></g></g><rect x="1145.169" y="57.294" width="58.573" height="14.108" rx="7.054" class="F"/><path d="M1152.223,71.402h44.466c3.88,0,7.054-3.174,7.054-7.054s-3.174-7.054-7.054-7.054h-44.466c-3.88,0-7.054,3.174-7.054,7.054s3.174,7.054,7.054,7.054Z" class="D H I K L S"/><g class="B"><path d="M1169.188 36.611h9.182v25.241a4.58 4.58 0 0 1-1.345 3.239c-.865.851-2.031 1.345-3.239 1.345h-.014c-1.208 0-2.374-.494-3.239-1.345-.851-.865-1.345-2.031-1.345-3.239V36.611z" class="O"/><g class="E"><path d="M1150.892 39.178c.673-1.071 2.1-1.373 3.157-.7 1.07.686 1.386 2.114.7 3.171l-4.914 7.672c-.673 1.071-2.1 1.386-3.157.7a2.29 2.29 0 0 1-.7-3.171l4.914-7.672z"/><path d="M1170.986 7.555a4.06 4.06 0 0 1 3.431-1.894c1.386 0 2.676.714 3.431 1.894l22.427 35.302c0 10.472-11.584 18.982-25.858 18.982s-25.858-8.51-25.858-18.982l22.427-35.302z"/></g></g><g clip-path="url(#K)" class="B P"><path d="M1171.919-8.092c.769-.906 1.894-1.414 3.075-1.414a4.02 4.02 0 0 1 3.074 1.414c6.849 7.988 22.784 27.602 22.784 37.182 0 10.486-11.584 18.996-25.858 18.996s-25.872-8.51-25.872-18.996c0-9.58 15.935-29.194 22.798-37.182z" class="Q"/></g><g class="B"><g class="E"><path d="M1183.284 57.474c-.137-1.263-1.276-2.169-2.525-2.045-1.263.137-2.182 1.277-2.045 2.526l.425 3.925c.137 1.249 1.263 2.169 2.526 2.031s2.169-1.263 2.031-2.525l-.412-3.912zm15.551-16.882c-.686-1.071-2.1-1.373-3.171-.7-1.057.686-1.373 2.114-.686 3.17l4.09 6.396c.686 1.057 2.114 1.373 3.171.686 1.071-.686 1.373-2.1.7-3.17l-4.104-6.382z"/></g><g class="R"><path d="M1172.702 48.086c0-1.263 1.029-2.292 2.292-2.292s2.292 1.029 2.292 2.292v2.292c0 1.263-1.029 2.292-2.292 2.292s-2.292-1.029-2.292-2.292v-2.292zm-7.934 4.309c.151-1.249 1.304-2.141 2.553-1.99 1.263.151 2.155 1.304 1.99 2.553l-.275 2.278a2.29 2.29 0 0 1-2.567 1.99c-1.249-.151-2.141-1.304-1.99-2.553l.288-2.278zm20.286 0c-.151-1.249-1.304-2.141-2.553-1.99a2.3 2.3 0 0 0-2.004 2.553l.288 2.278c.151 1.263 1.304 2.155 2.553 1.99a2.3 2.3 0 0 0 2.004-2.553l-.288-2.278zm-26.284-9.099c.371-1.208 1.661-1.88 2.869-1.51 1.208.384 1.88 1.674 1.496 2.882l-.961 3.061c-.384 1.208-1.674 1.88-2.882 1.496-1.208-.37-1.88-1.661-1.496-2.869l.974-3.061zm30.965 1.029c-.384-1.208-1.675-1.88-2.882-1.496a2.3 2.3 0 0 0-1.496 2.882l.961 3.061c.384 1.208 1.674 1.88 2.882 1.496s1.88-1.661 1.496-2.869l-.961-3.074zm-36.633-5.353c.631-1.098 2.031-1.469 3.129-.837s1.469 2.031.837 3.129l-2.073 3.596c-.631 1.098-2.031 1.469-3.129.837s-1.469-2.031-.837-3.129l2.073-3.596zm42.26-.123c-.631-1.098-2.031-1.469-3.129-.837s-1.469 2.031-.837 3.129l2.073 3.596c.631 1.098 2.045 1.469 3.143.837a2.3 2.3 0 0 0 .837-3.129l-2.086-3.596z" class="J"/></g><path d="M1171.576-.557a4.08 4.08 0 0 1 3.418-1.853c1.373 0 2.663.7 3.404 1.853l18.31 28.356c0 8.661-9.731 15.702-21.713 15.702s-21.727-7.041-21.727-15.702l18.31-28.356z" class="C"/></g><g clip-path="url(#L)" class="B"><use href="#AB" fill="#99bb31" class="U"/><path d="M1171.576-24.686c.727-1.18 2.018-1.894 3.418-1.894a4.04 4.04 0 0 1 3.418 1.894c6.121 9.388 18.296 29.317 18.296 39.296 0 11.433-9.731 20.725-21.713 20.725-11.996 0-21.727-9.292-21.727-20.725 0-9.978 12.188-29.907 18.31-39.296z" class="T"/><g class="C"><use href="#AC"/><path d="M1181.266 33.99c-.426-1.194.22-2.498 1.414-2.923 1.194-.412 2.498.233 2.91 1.427l.755 2.169a2.29 2.29 0 0 1-1.414 2.91c-1.194.412-2.512-.219-2.923-1.414l-.741-2.169zm-9.786-1.963a2.3 2.3 0 0 1 2.306-2.292c1.263 0 2.292 1.029 2.292 2.292v2.292c0 1.277-1.029 2.292-2.292 2.292a2.29 2.29 0 0 1-2.306-2.292v-2.292zm-9.017.384c.467-1.18 1.798-1.77 2.978-1.304 1.18.453 1.757 1.784 1.304 2.965l-.837 2.141c-.453 1.18-1.784 1.757-2.965 1.304-1.18-.467-1.771-1.784-1.304-2.965l.824-2.141z" class="U"/><use href="#AD"/></g></g><use href="#AE" class="B C"/><g clip-path="url(#M)"><g fill="#d9f3f2"><rect x="1160.019" y="-13.843" width="29.235" height="29.523" rx="14.453" opacity=".55"/><g class="B"><use href="#AF"/></g></g><g fill="#9fe3e0" class="B"><use href="#AG"/><path d="M1171.48 9.092a2.3 2.3 0 0 1 2.306-2.292c1.263 0 2.292 1.029 2.292 2.292v2.292a2.3 2.3 0 0 1-2.292 2.306 2.3 2.3 0 0 1-2.306-2.306V9.092z"/><use href="#AH"/></g></g><g class="B"><g class="C"><use href="#AI"/><path d="M1189.474,17.094c-.48-1.18-1.825-1.743-2.992-1.263-1.181.467-1.743,1.812-1.263,2.978l.069.178c.48,1.167,1.812,1.729,2.992,1.263,1.167-.48,1.729-1.825,1.263-2.992l-.069-.165Z"/><use href="#AJ"/><use href="#AK"/><use href="#AL"/><path d="M1150.988 28.349c.673-1.071 2.1-1.373 3.157-.7 1.071.686 1.386 2.114.7 3.171l-.096.151c-.686 1.071-2.114 1.386-3.171.7-1.071-.686-1.373-2.1-.7-3.171l.11-.151zm40.092 10.06a2.3 2.3 0 0 0-3.171-.686c-1.07.686-1.373 2.1-.686 3.171l.096.151c.673 1.057 2.1 1.373 3.17.686a2.3 2.3 0 0 0 .686-3.17l-.096-.151zm-32.625 0a2.3 2.3 0 0 1 3.17-.686 2.3 2.3 0 0 1 .686 3.171l-.096.151a2.3 2.3 0 0 1-3.17.686c-1.071-.686-1.373-2.1-.686-3.17l.096-.151z"/></g><path d="M1152.635 49.966c.714-1.043 2.141-1.318 3.184-.604a2.31 2.31 0 0 1 .604 3.198l-1.812 2.635a2.28 2.28 0 0 1-3.184.604c-1.043-.714-1.318-2.141-.604-3.184l1.812-2.649z" class="E"/><g class="C"><path d="M1185.974 41.47c-.371-1.208-1.661-1.894-2.869-1.523s-1.894 1.661-1.51 2.869l.055.178a2.28 2.28 0 0 0 2.855 1.51c1.222-.371 1.894-1.661 1.523-2.869l-.055-.165zm-22.414 0c.371-1.208 1.647-1.894 2.869-1.523 1.208.37 1.881 1.661 1.51 2.869l-.055.178c-.371 1.208-1.661 1.88-2.869 1.51s-1.88-1.661-1.51-2.869l.055-.165z"/></g><g class="E"><path d="M1158.963 57.666c.384-1.208 1.661-1.88 2.869-1.51s1.894 1.661 1.523 2.869l-.055.178c-.371 1.208-1.661 1.88-2.869 1.51s-1.894-1.661-1.51-2.869l.041-.178zm31.746-2.182a2.29 2.29 0 0 0-2.869-1.51c-1.208.371-1.88 1.661-1.51 2.869l.906 2.951c.384 1.208 1.661 1.894 2.869 1.523 1.222-.384 1.894-1.661 1.524-2.869l-.92-2.965z"/></g><g class="C"><path d="M1180.003 43.666c-.137-1.263-1.276-2.169-2.525-2.031a2.29 2.29 0 0 0-2.045 2.525l.027.178c.137 1.249 1.263 2.169 2.525 2.031 1.249-.137 2.169-1.263 2.031-2.525l-.014-.178zm-10.472 0c.137-1.263 1.263-2.169 2.526-2.031 1.263.123 2.169 1.263 2.031 2.525l-.014.178c-.137 1.249-1.263 2.169-2.525 2.031s-2.169-1.263-2.031-2.525l.014-.178z"/></g><path d="M1164.947 59.876c.137-1.263 1.263-2.182 2.525-2.045s2.169 1.277 2.031 2.526l-.014.192c-.137 1.249-1.277 2.169-2.526 2.031-1.263-.137-2.169-1.277-2.045-2.526l.027-.178z" class="E"/><g class="C"><path d="M1195.787 34.168c-.673-1.057-2.1-1.373-3.157-.686a2.29 2.29 0 0 0-.7 3.171l.096.151a2.29 2.29 0 0 0 3.171.686c1.071-.673 1.373-2.1.7-3.171l-.11-.151zm-42.054 0a2.3 2.3 0 0 1 3.171-.686c1.071.686 1.373 2.1.686 3.171l-.096.151c-.686 1.071-2.1 1.373-3.171.686-1.057-.673-1.373-2.1-.686-3.171l.096-.151z"/></g><path d="M1195.472 49.925a2.3 2.3 0 0 0-3.17-.686c-1.071.686-1.373 2.1-.7 3.171l2.745 4.255c.686 1.071 2.1 1.373 3.17.7 1.057-.686 1.373-2.114.686-3.171l-2.731-4.269z" class="E"/><g class="C"><use href="#AM"/><use href="#AN"/><use href="#AO"/></g><path d="M1016.091 124.273a4.06 4.06 0 0 1 3.431-1.894c1.386 0 2.676.714 3.431 1.894l22.427 35.302c0 10.472-11.584 18.982-25.858 18.982s-25.858-8.51-25.858-18.982l22.427-35.302z" class="E"/></g><g clip-path="url(#N)" class="B P"><path d="M1017.024 108.626c.769-.906 1.894-1.414 3.075-1.414a4.02 4.02 0 0 1 3.074 1.414c6.849 7.988 22.784 27.602 22.784 37.182 0 10.486-11.584 18.996-25.858 18.996s-25.872-8.51-25.872-18.996c0-9.58 15.935-29.194 22.798-37.182z" class="Q"/></g><path d="M1016.681 116.161a4.08 4.08 0 0 1 3.418-1.853c1.373 0 2.663.7 3.404 1.853l18.31 28.356c0 8.661-9.731 15.702-21.713 15.702-11.996 0-21.727-7.041-21.727-15.702l18.31-28.356z" class="B C"/><g clip-path="url(#O)" class="B"><path d="M1017.038 98.277c.769-.892 1.88-1.4 3.061-1.4a4.05 4.05 0 0 1 3.061 1.4c5.984 6.918 18.653 22.482 18.653 30.182 0 8.674-9.731 15.702-21.713 15.702-11.996 0-21.727-7.027-21.727-15.702 0-7.7 12.668-23.264 18.666-30.182z" fill="#99bb31" class="U"/><path d="M1016.681 92.032c.727-1.18 2.018-1.894 3.418-1.894a4.04 4.04 0 0 1 3.418 1.894c6.121 9.388 18.296 29.317 18.296 39.296 0 11.433-9.731 20.725-21.713 20.725-11.996 0-21.727-9.292-21.727-20.725 0-9.978 12.188-29.907 18.31-39.296z" class="T"/><g class="C"><path d="M1031.806 142.336c-.631-1.098-.261-2.512.837-3.143a2.3 2.3 0 0 1 3.129.837l2.292 3.98c.645 1.098.261 2.498-.837 3.129a2.29 2.29 0 0 1-3.129-.837l-2.292-3.967zm-27.835-3.075a2.32 2.32 0 0 1 3.143-.837c1.098.631 1.469 2.045.837 3.143l-1.99 3.431c-.631 1.098-2.031 1.469-3.129.837s-1.469-2.031-.837-3.129l1.977-3.445z"/></g></g><path d="M1016.31 107.638c.714-1.07 1.921-1.716 3.212-1.716s2.498.645 3.212 1.716l13.478 20.245c0 3.761-2.539 7.11-6.492 9.251-2.814 1.523-6.355 2.443-10.198 2.443-9.21 0-16.69-5.243-16.69-11.694l13.478-20.245z" class="B C"/><g clip-path="url(#P)"><g fill="#d9f3f2"><rect x="1005.124" y="102.875" width="29.235" height="29.523" rx="14.453" opacity=".55"/><g class="B"><path d="M1018.781 117.259c-.343-1.222.371-2.484 1.592-2.827s2.484.371 2.827 1.592l.192.659c.329 1.221-.384 2.484-1.592 2.827-1.222.343-2.484-.371-2.827-1.592l-.192-.659z"/></g></g><g fill="#9fe3e0" class="B"><path d="M1024.12 122.324c-.535-1.153-.055-2.512 1.098-3.061 1.139-.535 2.512-.055 3.047 1.098l.988 2.073c.535 1.139.055 2.512-1.098 3.047a2.28 2.28 0 0 1-3.047-1.084l-.988-2.073zm-7.535 3.486a2.3 2.3 0 0 1 2.306-2.292c1.263 0 2.292 1.029 2.292 2.292v2.292a2.3 2.3 0 0 1-2.292 2.306 2.3 2.3 0 0 1-2.306-2.306v-2.292zm-4.612-7.713a2.29 2.29 0 0 1 3.129-.837c1.098.645 1.469 2.045.837 3.143l-1.153 1.976c-.645 1.098-2.045 1.469-3.143.837-1.084-.645-1.469-2.045-.823-3.143l1.153-1.977z"/></g></g><g class="B C"><path d="M1022.391 139.398c0-1.276-1.029-2.292-2.292-2.292s-2.292 1.016-2.292 2.292v.178c0 1.263 1.029 2.292 2.292 2.292s2.292-1.029 2.292-2.292v-.178zm12.188-5.586c-.48-1.18-1.825-1.743-2.992-1.263-1.181.467-1.743 1.812-1.263 2.978l.069.178c.48 1.167 1.812 1.729 2.992 1.263 1.167-.48 1.729-1.825 1.263-2.992l-.069-.165zm-29.716-.027c.481-1.167 1.826-1.743 2.992-1.263a2.29 2.29 0 0 1 1.263 2.992l-.069.165c-.48 1.167-1.812 1.743-2.978 1.263a2.29 2.29 0 0 1-1.263-2.992l.055-.165zm33.106-5.614c-.686-1.071-2.1-1.373-3.17-.7a2.29 2.29 0 0 0-.686 3.17l.096.151c.686 1.071 2.1 1.373 3.171.7 1.057-.686 1.373-2.114.686-3.17l-.096-.151zm5.682 16.896c-.686-1.071-2.1-1.373-3.17-.7a2.29 2.29 0 0 0-.686 3.171l.096.151a2.29 2.29 0 0 0 3.171.7 2.3 2.3 0 0 0 .686-3.171l-.096-.151zm-47.558 0c.673-1.071 2.1-1.373 3.157-.7 1.071.686 1.386 2.114.7 3.171l-.096.151c-.686 1.071-2.114 1.386-3.171.7-1.071-.686-1.373-2.1-.7-3.171l.11-.151zm5.38-16.923c.686-1.071 2.1-1.373 3.171-.686 1.07.673 1.373 2.1.686 3.157l-.096.165a2.3 2.3 0 0 1-3.17.686 2.3 2.3 0 0 1-.686-3.17l.096-.151zm28 9.552c-.206-1.249-1.386-2.1-2.635-1.894s-2.086 1.386-1.88 2.635l.027.178c.206 1.249 1.386 2.1 2.635 1.894s2.1-1.386 1.88-2.635l-.027-.178zm-19.504-.027c.206-1.249 1.386-2.1 2.635-1.894a2.29 2.29 0 0 1 1.88 2.649l-.027.178c-.206 1.249-1.386 2.086-2.635 1.88s-2.086-1.386-1.88-2.635l.027-.178z"/></g><rect x="1208.717" y="1.142" width="48.59" height="11.703" rx="5.852" class="F"/><path d="M1214.569 12.845h36.887a5.87 5.87 0 0 0 5.852-5.852 5.87 5.87 0 0 0-5.852-5.852h-36.887a5.87 5.87 0 0 0-5.852 5.852 5.87 5.87 0 0 0 5.852 5.852z" stroke-dasharray="0 10.042" class="D H I K L"/><g class="B"><path d="M1228.643-16.016h7.617V4.923a3.8 3.8 0 0 1-1.116 2.687 3.85 3.85 0 0 1-2.687 1.116h-.011a3.85 3.85 0 0 1-2.687-1.116 3.85 3.85 0 0 1-1.116-2.687v-20.939z" class="O"/><g class="E"><path d="M1230.134-40.121a3.37 3.37 0 0 1 2.847-1.571c1.15 0 2.22.592 2.847 1.571l18.605 29.285c0 8.688-9.61 15.747-21.451 15.747s-21.451-7.059-21.451-15.747l18.605-29.285z"/><path d="M1240.336 1.29a1.92 1.92 0 0 0-2.095-1.697c-1.048.114-1.81 1.059-1.697 2.095l.353 3.256c.114 1.036 1.048 1.799 2.095 1.685s1.799-1.048 1.685-2.095l-.342-3.245z"/></g><g class="R"><path d="M1224.977-2.922c.125-1.036 1.082-1.776 2.118-1.651a1.89 1.89 0 0 1 1.651 2.118l-.228 1.89a1.9 1.9 0 0 1-2.129 1.651c-1.036-.125-1.776-1.082-1.651-2.118l.239-1.89zm16.828 0c-.125-1.036-1.082-1.776-2.118-1.651-1.048.125-1.788 1.082-1.662 2.118l.239 1.89a1.89 1.89 0 0 0 2.118 1.651c1.048-.125 1.788-1.082 1.662-2.118l-.239-1.89z" class="J"/></g><g class="E"><path d="M1214.911-4.938c.592-.865 1.776-1.093 2.642-.501s1.093 1.776.501 2.653L1216.551-.6c-.592.877-1.776 1.093-2.642.501s-1.093-1.776-.501-2.642l1.503-2.198zm5.249 6.388a1.91 1.91 0 0 1 2.38-1.252 1.91 1.91 0 0 1 1.264 2.38l-.045.148c-.307 1.002-1.378 1.56-2.38 1.252s-1.571-1.378-1.252-2.38l.034-.148zm26.336-1.811c-.307-1.002-1.366-1.56-2.38-1.252-1.002.307-1.56 1.378-1.253 2.38l.752 2.448c.319 1.002 1.378 1.571 2.38 1.264 1.013-.319 1.571-1.378 1.264-2.38l-.763-2.459zm-21.371 3.644c.114-1.047 1.048-1.81 2.095-1.697s1.799 1.059 1.685 2.095l-.011.159c-.114 1.036-1.059 1.799-2.095 1.685a1.92 1.92 0 0 1-1.697-2.095l.023-.148zm25.322-8.255c-.569-.877-1.742-1.139-2.63-.569a1.91 1.91 0 0 0-.581 2.63l2.277 3.53a1.91 1.91 0 0 0 2.63.581 1.91 1.91 0 0 0 .569-2.63l-2.266-3.541z"/></g></g><rect x="864.32" y="53.937" width="50.682" height="28.376" rx="7.426" class="F"/><g class="D"><path d="M871.747 53.937h35.83a7.43 7.43 0 0 1 7.426 7.426v13.524c0 4.099-3.328 7.427-7.427 7.427h-35.829a7.43 7.43 0 0 1-7.426-7.426V61.364a7.43 7.43 0 0 1 7.426-7.426z" stroke-dasharray="0 9.688" class="H I K L"/><g stroke="#9f7049" stroke-miterlimit="1.5" stroke-width="3.23"><path d="M869.788 43.254v6.735a4.61 4.61 0 0 0 4.607 4.607h5.667m32.139 1.891v2.954a4.61 4.61 0 0 1-4.607 4.607h-7.558"/></g></g><g class="B"><path d="M903.816 50.815h-28.121v13.564c0 1.007-.359 1.981-1.013 2.746l-4.652 5.447a1.82 1.82 0 0 0-.141 2.179c.442.677 1.277.983 2.051.751l10.457-3.137a3.32 3.32 0 0 1 3.829 1.518l2.603 4.5c.197.34.562.547.954.541s.751-.223.938-.569l2.317-4.29c.766-1.419 2.442-2.083 3.973-1.573l9.327 3.109c.739.246 1.552-.004 2.025-.623s.5-1.47.068-2.118l-3.905-5.857a4.23 4.23 0 0 1-.71-2.346V50.814z" fill="#9f7049"/><path d="M903.816 50.343h-28.121v12.183a1.05 1.05 0 0 0 1.051 1.05h1.208a1.05 1.05 0 0 0 1.05-1.05v-2.025a1.89 1.89 0 0 1 1.887-1.887h3.525c.735 0 1.402.426 1.711 1.092l2.271 4.891c.179.387.567.634.993.634h3.405a1.09 1.09 0 0 0 .774-.321c.205-.205.321-.484.321-.774v-.894a1.32 1.32 0 0 1 1.319-1.319h3.097a1.32 1.32 0 0 1 .933.386l.973.973c.189.189.444.294.711.294h1.48c.374 0 .734-.149.998-.413a1.41 1.41 0 0 0 .413-.998V50.343z" class="C"/><path d="M903.816 48.857c0-.483-.192-.947-.534-1.289a1.82 1.82 0 0 0-1.289-.534h-24.476c-.483 0-.947.192-1.289.534a1.82 1.82 0 0 0-.534 1.289v5.808c0 .483.192.947.534 1.289a1.82 1.82 0 0 0 1.289.534h24.476c.483 0 .947-.192 1.289-.534a1.82 1.82 0 0 0 .534-1.289v-5.808z" class="N"/><g class="C"><path d="M917.05 57.43c0-.752-.299-1.472-.83-2.004a2.83 2.83 0 0 0-2.004-.83h-5.675c-.752 0-1.472.299-2.004.83a2.83 2.83 0 0 0-.83 2.004v.004c0 .752.299 1.472.83 2.004a2.83 2.83 0 0 0 2.004.83h5.675c.752 0 1.472-.299 2.004-.83a2.83 2.83 0 0 0 .83-2.004v-.004zm-41.59-13.233c0-.752-.299-1.472-.83-2.004a2.83 2.83 0 0 0-2.004-.83h-5.675a2.83 2.83 0 0 0-2.004.83c-.531.531-.83 1.252-.83 2.004v.004c0 .752.299 1.472.83 2.004a2.83 2.83 0 0 0 2.004.83h5.675c.752 0 1.472-.299 2.004-.83a2.83 2.83 0 0 0 .83-2.004v-.004z"/><use href="#AP"/><path d="M877.35 60.266c0-.752-.299-1.472-.83-2.004s-1.252-.83-2.004-.83h-5.675c-.752 0-1.472.299-2.004.83s-.83 1.252-.83 2.004v.004c0 .752.299 1.472.83 2.004s1.252.83 2.004.83h5.675c.752 0 1.472-.299 2.004-.83s.83-1.252.83-2.004v-.004z"/></g></g><rect x="1231.858" y="42.259" width="86.588" height="42.662" rx="12" stroke-dasharray="0 10" class="F H I K L"/><path d="M1292.908 17.014c-.701-4.557-4.622-7.921-9.233-7.921h-13.729a9.34 9.34 0 0 0-8.982 6.775l-2.493 8.727h-6.072a3.87 3.87 0 0 0-3.668 2.643l-8.69 26.069c-.348 1.044-.173 2.191.47 3.084a3.42 3.42 0 0 0 2.777 1.421h8.538l4.864 9.727a6.44 6.44 0 0 0 5.76 3.56h29.237c1.743 0 3.411-.706 4.624-1.958a6.44 6.44 0 0 0 1.813-4.683v-.003h7.56c.957 0 1.871-.401 2.519-1.105a3.42 3.42 0 0 0 .892-2.602l-1.481-17.767c-.24-2.883-2.65-5.1-5.543-5.1h-5.955l-3.21-20.868z" fill="#c0906b" class="B"/><g clip-path="url(#Q)" class="B C"><path d="M1258.471 20.166h-11.073v12.581c0 1.362.541 2.668 1.504 3.631s2.269 1.504 3.631 1.504h.802c1.362 0 2.668-.541 3.631-1.504s1.504-2.269 1.504-3.631V20.166zm49.827 6.643h-12.18V39.39c0 1.362.541 2.668 1.504 3.631s2.269 1.504 3.631 1.504h1.909c1.362 0 2.668-.541 3.631-1.504s1.504-2.269 1.504-3.631V26.809z"/><path d="M1295.335-3.374h-36.863v22.605c0 1.423.565 2.787 1.571 3.793s2.37 1.571 3.793 1.571h6.126c1.176 0 2.329-.322 3.334-.932l5.785-3.509c1.005-.61 2.158-.932 3.334-.932h12.921V-3.374z"/></g><g class="B"><path d="M1273.973 52.493a3.54 3.54 0 0 0-3.538-3.538h-8.641a3.32 3.32 0 0 0-3.322 3.322 3.32 3.32 0 0 0 3.322 3.322h5.536v1.107a3.32 3.32 0 0 0 5.671 2.349 3.32 3.32 0 0 0 .973-2.349v-4.212z" class="C"/><g class="F"><use href="#AQ"/><use href="#AR"/></g></g><rect x="748.242" y="92.356" width="10.676" height="3.768" rx="1.881" class="F"/><rect x="811.041" y="83.564" width="10.676" height="3.768" rx="1.881" class="F"/><g class="B F"><use href="#AS"/><path d="M313.777 28.779a3.77 3.77 0 0 0-3.768-3.768h-10.048a3.77 3.77 0 0 0-3.768 3.768 3.77 3.77 0 0 0 3.768 3.768h10.048a3.77 3.77 0 0 0 3.768-3.768zm37.051 53.38a3.14 3.14 0 0 0-3.14-3.14h-8.164a3.14 3.14 0 0 0 0 6.28h8.164a3.14 3.14 0 0 0 3.14-3.14z"/></g><rect x="259.77" y="66.459" width="10.676" height="3.768" rx="1.881" class="F"/><rect x="322.569" y="57.667" width="10.676" height="3.768" rx="1.881" class="F"/><g class="B F"><path d="M224.602 85.241a3.71 3.71 0 0 0-3.71-3.71h-.116a3.71 3.71 0 0 0-3.71 3.71v.06a3.77 3.77 0 0 0 1.103 2.663c.706.706 1.664 1.103 2.663 1.103h.005a3.77 3.77 0 0 0 2.663-1.103c.706-.706 1.103-1.664 1.103-2.663v-.06zm917.813 32.878a3.14 3.14 0 0 0 3.14 3.14h8.164a3.14 3.14 0 1 0 0-6.28h-8.164a3.14 3.14 0 0 0-3.14 3.14z"/></g><rect x="1222.797" y="130.051" width="10.676" height="3.768" rx="1.881" class="F"/><rect x="1159.998" y="138.843" width="10.676" height="3.768" rx="1.881" class="F"/><path d="M1268.641 115.037a3.71 3.71 0 0 0 3.71 3.71h.116a3.71 3.71 0 0 0 3.71-3.71v-.06a3.77 3.77 0 0 0-1.103-2.663c-.706-.706-1.664-1.103-2.663-1.103h-.005a3.77 3.77 0 0 0-2.663 1.103c-.706.706-1.103 1.664-1.103 2.663v.06z" class="B F"/><g class="V"><path d="M236.414 34.056c-.653 0-1.268-.4-1.51-1.047-.313-.835.111-1.764.944-2.077l8.5-3.186c.833-.314 1.764.111 2.077.944s-.111 1.764-.944 2.077l-8.5 3.186c-.186.07-.378.103-.566.103z"/><path d="M249.317 32.08a1.6 1.6 0 0 1-.419-.056l-5.959-1.599 1.593-5.962a1.61 1.61 0 0 1 1.975-1.142c.861.23 1.372 1.114 1.142 1.975l-.761 2.85 2.846.764c.86.23 1.37 1.116 1.139 1.976-.193.72-.844 1.195-1.556 1.195z"/></g><path d="M238.043 31.081c-.968-3.461-4.113-5.856-7.71-5.856h-10.419c-3.597 0-6.742 2.395-7.71 5.856l-2.08 7.485a12.4 12.4 0 0 0 2.08 10.803c2.339 3.079 5.984 4.887 9.855 4.887h6.129c3.871 0 7.516-1.808 9.855-4.887 2.355-3.081 3.113-7.077 2.081-10.803l-2.081-7.485z" class="B C"/><path d="M213.833 34.056c-.188 0-.38-.033-.566-.103l-8.5-3.186c-.833-.313-1.257-1.242-.944-2.077s1.244-1.26 2.077-.944l8.5 3.186c.833.313 1.257 1.242.944 2.077-.243.647-.858 1.047-1.51 1.047z" class="V"/><circle cx="225.123" cy="13.128" r="10.484" class="C"/><path d="M200.929 32.08c-.712 0-1.364-.476-1.556-1.195-.231-.861.279-1.746 1.139-1.976l2.847-.764-.761-2.85c-.23-.86.281-1.745 1.142-1.975s1.745.281 1.975 1.142l1.593 5.962-5.96 1.599c-.141.038-.281.056-.419.056z" class="V"/><path d="M218.672 9.095h3.226v4.839h-3.226zm9.677 0h3.226v4.839h-3.226z"/><g fill="#d8484a"><path d="M235.801 22.899c0-.666-.258-1.306-.726-1.777-.484-.471-1.113-.735-1.79-.735h-16.322c-.661 0-1.307.265-1.774.735-.484.471-.742 1.111-.742 1.777v1.426a2.47 2.47 0 0 0 .742 1.777 2.51 2.51 0 0 0 1.774.735h16.322a2.55 2.55 0 0 0 1.79-.735 2.52 2.52 0 0 0 .726-1.777v-1.426z" class="B"/><path d="M218.672 25.836h6.452v10.678h-6.452z"/><path d="M218.672 29.062h1.613V39.74h-1.613zm4.838 0h1.613V39.74h-1.613z"/></g><path d="M230.462,18.773h-5.338c-.891,0-1.613-.722-1.613-1.613s.722-1.613,1.613-1.613h5.338c.891,0,1.613.722,1.613,1.613s-.722,1.613-1.613,1.613Z" fill="#da793c"/><path d="M239.973 49.204a2.97 2.97 0 0 0-2.97 2.97 2.97 2.97 0 0 0-2.969-2.97 2.97 2.97 0 0 0-2.97 2.97 2.97 2.97 0 0 0-5.94 0v-.005a2.97 2.97 0 0 0-5.94 0 2.97 2.97 0 0 0-2.97-2.97 2.97 2.97 0 0 0-2.969 2.97 2.97 2.97 0 0 0-5.94 0v2.964h17.817v.005h17.817v-2.964a2.97 2.97 0 0 0-2.97-2.97z" class="B N"/></g></svg>