<svg xmlns="http://www.w3.org/2000/svg" width="1500" height="145" xmlns:v="https://vecta.io/nano"><style><![CDATA[.B{fill-rule:evenodd}.C{fill:none}.D{fill:#fff}.E{clip-rule:evenodd}.F{fill:#bee23b}.G{fill:#d1e2e9}.H{stroke-linecap:round}.I{stroke-linejoin:round}.J{opacity:.598}.K{stroke-width:10}.L{fill:#bcdae3}.M{stroke:#d1e2e9}.N{opacity:.678}.O{fill:#afd33d}.P{fill:#dcebf1}.Q{fill:#86a426}.R{opacity:.371}.S{fill:#c18f64}.T{fill:#1e3c49}.U{fill:#0f1e24}.V{fill:#b8d4dd}.W{fill:#e8e8e8}.X{fill:#f0bd42}.Y{fill:#d0d0d0}.Z{fill:#e3fdf9}.a{fill:#394319}.b{fill:#8eb029}.c{fill:#99bb31}.d{fill:#d1f4f0}.e{fill:#d9f3f2}.f{fill:#9fe3e0}.g{stroke-dasharray:0 10}.h{stroke-dasharray:0 10.243}]]></style><defs><clipPath id="A"><path d="M0 0h1500v145H0z" class="C"/></clipPath><clipPath id="B"><path d="M676.753 144.016l-41.145-26.456-41.146 26.456v44.092h82.291v-44.092z" class="C E"/></clipPath><clipPath id="C"><path d="M271.803 155.74l-36.034-29.825h-2.274l-36.034 29.825v29.492c0 .693.262 1.358.766 1.85a2.6 2.6 0 0 0 1.837.765h69.116a2.65 2.65 0 0 0 1.859-.765 2.66 2.66 0 0 0 .765-1.85V155.74z" class="C E"/></clipPath><clipPath id="D"><path d="M77.3-35.063h73.83V36.13H77.3z" class="C"/></clipPath><clipPath id="E"><path d="M563.458-34.858a4.13 4.13 0 0 1 3.492-1.927 4.15 4.15 0 0 1 3.492 1.927l22.821 35.921c0 10.656-11.787 19.315-26.312 19.315s-26.312-8.659-26.312-19.315l22.821-35.921z" class="C E"/></clipPath><clipPath id="F"><path d="M637.91 7.687a4.13 4.13 0 0 1 3.492-1.927 4.15 4.15 0 0 1 3.492 1.927l22.821 35.921c0 10.656-11.787 19.315-26.312 19.315s-26.312-8.659-26.312-19.315l22.821-35.921z" class="C E"/></clipPath><clipPath id="G"><path d="M638.511-.567a4.15 4.15 0 0 1 3.478-1.886c1.397 0 2.709.712 3.464 1.886l18.631 28.854c0 8.813-9.902 15.977-22.095 15.977-12.207 0-22.109-7.165-22.109-15.977L638.511-.567z" class="C E"/></clipPath><clipPath id="H"><path d="M638.134-9.24a3.93 3.93 0 0 1 6.536 0l13.715 20.6c0 3.827-2.584 7.235-6.606 9.413-2.863 1.55-6.466 2.486-10.377 2.486-9.371 0-16.983-5.335-16.983-11.899l13.715-20.6z" class="C E"/></clipPath><clipPath id="I"><path d="M188.01-22.496a4.13 4.13 0 0 1 3.492-1.927 4.15 4.15 0 0 1 3.492 1.927l22.821 35.921c0 10.656-11.787 19.315-26.312 19.315s-26.312-8.659-26.312-19.315l22.821-35.921z" class="C E"/></clipPath><clipPath id="J"><path d="M188.611-30.75a4.15 4.15 0 0 1 3.478-1.886c1.397 0 2.709.712 3.464 1.886l18.631 28.854c0 8.813-9.902 15.977-22.095 15.977-12.207 0-22.109-7.165-22.109-15.977l18.631-28.854z" class="C E"/></clipPath><clipPath id="K"><path d="M1188.887 113.63h-4.813l-1.377 2.064c-.672 1.008-1.03 2.193-1.03 3.404v9.093l-.824.824a.93.93 0 0 0-.201 1.011c.143.347.481.572.857.572h5.341a5.66 5.66 0 0 0 4.001-1.657c1.06-1.061 1.657-2.501 1.657-4.001v-4.852a6.87 6.87 0 0 0-2.013-4.86l-1.597-1.597z" class="C E"/></clipPath><clipPath id="L"><path d="M1265.521 113.63h4.813l1.377 2.064c.672 1.008 1.03 2.193 1.03 3.404v9.093l.824.824a.93.93 0 0 1 .201 1.011c-.143.347-.481.572-.857.572h-5.341a5.66 5.66 0 0 1-4.001-1.657c-1.06-1.061-1.657-2.501-1.657-4.001v-4.852a6.87 6.87 0 0 1 2.013-4.86l1.597-1.597z" class="C E"/></clipPath><clipPath id="M"><path d="M844.213 131.946a3.19 3.19 0 0 1 2.695-1.488c1.089 0 2.102.561 2.695 1.488l17.615 27.726c0 8.225-9.098 14.909-20.31 14.909s-20.31-6.684-20.31-14.909l17.615-27.726z" class="C E"/></clipPath><clipPath id="N"><path d="M844.676 125.575c.593-.906 1.596-1.455 2.684-1.455 1.078 0 2.091.55 2.673 1.455l14.381 22.272c0 6.802-7.643 12.332-17.054 12.332-9.422 0-17.065-5.53-17.065-12.332l14.381-22.272z" class="C E"/></clipPath><clipPath id="O"><path d="M844.386 118.881c.56-.841 1.509-1.348 2.522-1.348s1.962.507 2.522 1.348l10.586 15.901c0 2.954-1.994 5.584-5.099 7.266-2.21 1.197-4.991 1.919-8.01 1.919-7.233 0-13.109-4.118-13.109-9.185l10.586-15.901z" class="C E"/></clipPath><clipPath id="P"><path d="M1400.896 145.528a3.37 3.37 0 0 1 2.847-1.571c1.15 0 2.22.592 2.847 1.571l18.605 29.285c0 8.688-9.61 15.747-21.451 15.747s-21.451-7.059-21.451-15.747l18.605-29.285z" class="C E"/></clipPath><clipPath id="Q"><path d="M1401.386 138.799a3.38 3.38 0 0 1 2.835-1.537c1.139 0 2.209.581 2.824 1.537l15.189 23.523c0 7.185-8.073 13.026-18.013 13.026-9.952 0-18.024-5.841-18.024-13.026l15.189-23.523z" class="C E"/></clipPath><clipPath id="R"><path d="M1401.079 131.728c.592-.888 1.594-1.423 2.664-1.423s2.072.535 2.664 1.423l11.181 16.794c0 3.12-2.107 5.898-5.386 7.674-2.334 1.264-5.272 2.027-8.46 2.027-7.64 0-13.845-4.349-13.845-9.701l11.181-16.794z" class="C E"/></clipPath><clipPath id="S"><path d="M1329.444 165.088a3.38 3.38 0 0 1 2.835-1.537c1.139 0 2.209.581 2.824 1.537l15.189 23.523c0 7.185-8.073 13.026-18.013 13.026-9.952 0-18.024-5.841-18.024-13.026l15.189-23.523z" class="C E"/></clipPath><clipPath id="T"><path d="M1274.246 165.088a3.38 3.38 0 0 1 2.835-1.537c1.139 0 2.209.581 2.824 1.537l15.189 23.523c0 7.185-8.073 13.026-18.013 13.026-9.952 0-18.024-5.841-18.024-13.026l15.189-23.523z" class="C E"/></clipPath><clipPath id="U"><path d="M505.544 31.792c0-.483-.192-.947-.534-1.289a1.82 1.82 0 0 0-1.289-.534h-24.476c-.483 0-.947.192-1.289.534a1.82 1.82 0 0 0-.534 1.289V37.6c0 .483.192.947.534 1.289a1.82 1.82 0 0 0 1.289.534h24.476c.483 0 .947-.192 1.289-.534a1.82 1.82 0 0 0 .534-1.289v-5.808z" class="C E"/></clipPath><path id="V" d="M843.843-6.871h-11.94v4.468a4.49 4.49 0 0 0 4.488 4.488h2.965a4.49 4.49 0 0 0 4.488-4.488v-4.468z"/><path id="W" d="M632.667 138.096h5.879v14.697h-5.879z"/><path id="X" d="M632.667 135.117h5.879v2.98h-5.879z"/><path id="Y" d="M238.968 23.709h8.211v5.487h-8.211z"/><path id="Z" d="M238.968 23.709h21.897v5.487h-21.897z"/><path id="a" d="M304.659 63.496a4.11 4.11 0 0 0-4.106-4.115 4.11 4.11 0 0 0-4.106 4.115v4.108h8.211v-4.108z"/><path id="b" d="M543.012-2.679c.684-1.089 2.137-1.397 3.212-.712 1.089.698 1.411 2.151.712 3.226l-5 7.807c-.684 1.089-2.137 1.411-3.212.712a2.33 2.33 0 0 1-.712-3.226l5-7.807z"/><path id="c" d="M563.458-34.858a4.13 4.13 0 0 1 3.492-1.927 4.15 4.15 0 0 1 3.492 1.927l22.821 35.921c0 10.656-11.787 19.315-26.312 19.315s-26.312-8.659-26.312-19.315l22.821-35.921z"/><path id="d" d="M575.972 15.938c-.14-1.285-1.299-2.207-2.57-2.081-1.285.14-2.221 1.299-2.081 2.57l.433 3.994c.14 1.271 1.285 2.207 2.57 2.067s2.207-1.285 2.067-2.57l-.419-3.981z"/><path id="e" d="M557.131 10.77c.154-1.271 1.327-2.179 2.598-2.025 1.285.154 2.193 1.327 2.025 2.598l-.279 2.318a2.33 2.33 0 0 1-2.612 2.025c-1.271-.154-2.179-1.327-2.025-2.598l.293-2.318z"/><path id="f" d="M577.774 10.77c-.154-1.271-1.327-2.179-2.598-2.025a2.34 2.34 0 0 0-2.039 2.598l.293 2.318c.154 1.285 1.327 2.193 2.598 2.025a2.34 2.34 0 0 0 2.039-2.598l-.293-2.318z"/><path id="g" d="M551.028 1.511c.377-1.229 1.69-1.913 2.919-1.536a2.34 2.34 0 0 1 1.522 2.933l-.978 3.114a2.34 2.34 0 0 1-2.933 1.522c-1.229-.377-1.913-1.69-1.522-2.919l.992-3.114z"/><path id="h" d="M582.536 2.558a2.34 2.34 0 0 0-2.933-1.522 2.34 2.34 0 0 0-1.522 2.933l.978 3.114a2.34 2.34 0 0 0 2.933 1.522c1.229-.391 1.913-1.69 1.522-2.919l-.978-3.128z"/><path id="i" d="M588.262-3.014a2.33 2.33 0 1 0-4.036 2.332l2.109 3.659c.642 1.117 2.081 1.494 3.198.852 1.103-.643 1.494-2.067.852-3.184l-2.123-3.659z"/><path id="j" d="M564.059-43.111a4.15 4.15 0 0 1 3.478-1.886c1.397 0 2.709.712 3.464 1.886l18.631 28.854c0 8.813-9.902 15.977-22.095 15.977-12.207 0-22.109-7.165-22.109-15.977l18.631-28.854z"/><path id="k" d="M583.905-3.461a2.34 2.34 0 0 0-3.226-.698c-1.089.698-1.397 2.137-.698 3.226l.098.154c.684 1.075 2.137 1.397 3.226.698a2.34 2.34 0 0 0 .698-3.226l-.098-.154z"/><path id="l" d="M550.707-3.461a2.34 2.34 0 0 1 3.226-.698 2.34 2.34 0 0 1 .698 3.226l-.098.154a2.34 2.34 0 0 1-3.226.698c-1.089-.698-1.397-2.137-.698-3.226l.098-.154z"/><path id="m" d="M544.785 8.298c.726-1.061 2.179-1.341 3.24-.614a2.35 2.35 0 0 1 .615 3.254l-1.844 2.682a2.32 2.32 0 0 1-3.24.614c-1.061-.726-1.341-2.179-.615-3.24l1.844-2.696z"/><path id="n" d="M578.709-.347c-.377-1.229-1.69-1.927-2.919-1.55s-1.927 1.69-1.536 2.919l.056.182a2.32 2.32 0 0 0 2.905 1.536c1.243-.377 1.927-1.69 1.55-2.919l-.056-.168z"/><path id="o" d="M555.902-.347a2.34 2.34 0 0 1 2.919-1.55c1.229.377 1.914 1.69 1.536 2.919l-.056.182c-.377 1.229-1.69 1.913-2.919 1.536s-1.913-1.69-1.536-2.919l.056-.168z"/><path id="p" d="M551.224 16.133c.391-1.229 1.69-1.913 2.919-1.536s1.927 1.69 1.55 2.919l-.056.182c-.377 1.229-1.69 1.913-2.919 1.536s-1.927-1.69-1.536-2.919l.042-.182z"/><path id="q" d="M583.528 13.913a2.33 2.33 0 0 0-2.919-1.536c-1.229.377-1.913 1.69-1.536 2.919l.922 3.003c.391 1.229 1.69 1.927 2.919 1.55 1.243-.391 1.927-1.69 1.55-2.919l-.936-3.017z"/><path id="r" d="M572.634 1.888c-.14-1.285-1.299-2.207-2.57-2.067a2.33 2.33 0 0 0-2.081 2.57l.028.182c.14 1.271 1.285 2.207 2.57 2.067 1.271-.14 2.207-1.285 2.067-2.57l-.014-.182z"/><path id="s" d="M561.978 1.888c.14-1.285 1.285-2.207 2.57-2.067 1.285.126 2.207 1.285 2.067 2.57l-.014.182c-.14 1.271-1.285 2.207-2.57 2.067s-2.207-1.285-2.067-2.57l.014-.182z"/><path id="t" d="M557.313 18.382c.14-1.285 1.285-2.221 2.57-2.081s2.207 1.299 2.067 2.57l-.014.195c-.14 1.271-1.299 2.207-2.57 2.067-1.285-.14-2.207-1.299-2.081-2.57l.028-.182z"/><path id="u" d="M588.374 8.256a2.34 2.34 0 0 0-3.226-.698c-1.089.698-1.397 2.137-.712 3.226l2.793 4.33c.698 1.089 2.137 1.397 3.226.712 1.075-.698 1.397-2.151.698-3.226l-2.779-4.343z"/><path id="v" d="M639.656 48.929c0-1.285 1.047-2.332 2.332-2.332s2.332 1.047 2.332 2.332v2.332c0 1.285-1.047 2.332-2.332 2.332s-2.332-1.047-2.332-2.332v-2.332z"/><path id="w" d="M638.511-25.12a4.07 4.07 0 0 1 3.478-1.927 4.11 4.11 0 0 1 3.478 1.927c6.229 9.553 18.617 29.832 18.617 39.985 0 11.634-9.902 21.089-22.095 21.089-12.207 0-22.109-9.455-22.109-21.089 0-10.153 12.402-30.432 18.631-39.985z"/><path id="x" d="M653.902 26.066c-.642-1.117-.265-2.556.852-3.198s2.542-.251 3.184.852l2.332 4.05c.656 1.117.265 2.542-.852 3.184a2.33 2.33 0 0 1-3.184-.852l-2.332-4.036z"/><path id="y" d="M648.371 34.586c-.433-1.215.224-2.542 1.439-2.975 1.215-.419 2.542.237 2.961 1.453l.768 2.207a2.33 2.33 0 0 1-1.438 2.961c-1.215.419-2.556-.223-2.975-1.438l-.754-2.207z"/><path id="z" d="M629.237 32.98a2.34 2.34 0 0 1 3.031-1.327c1.201.461 1.788 1.816 1.327 3.017l-.852 2.179c-.461 1.201-1.816 1.788-3.017 1.327-1.201-.475-1.802-1.816-1.327-3.017l.838-2.179z"/><path id="AA" d="M665.955 28.846c-.698-1.089-2.137-1.397-3.226-.712a2.33 2.33 0 0 0-.698 3.226l.098.154a2.33 2.33 0 0 0 3.226.712 2.34 2.34 0 0 0 .698-3.226l-.098-.154z"/><path id="AB" d="M663.147 34.767c-.684-1.075-2.137-1.397-3.212-.698a2.33 2.33 0 0 0-.712 3.226l.098.154a2.33 2.33 0 0 0 3.226.698c1.089-.684 1.397-2.137.712-3.226l-.112-.154z"/><path id="AC" d="M620.355 34.767a2.34 2.34 0 0 1 3.226-.698c1.089.698 1.397 2.137.698 3.226l-.098.154c-.698 1.089-2.137 1.397-3.226.698-1.075-.684-1.397-2.137-.698-3.226l.098-.154z"/><path id="AD" d="M1248.411 92.436h5.769v2.884h-5.769z"/><path id="AE" d="M1247.765 121.391h3.182v1.591h-3.182z"/><path id="AF" d="M1248.819 106.355l-.179-1.591 4.557 4.557a3.18 3.18 0 0 1 .932 2.25v5.046a2.39 2.39 0 0 1-2.387 2.387v-7.966c0-.51-.165-1.006-.471-1.414l-2.452-3.27z"/><path id="AG" d="M1245.119 106.355l.179-1.591-4.557 4.557a3.18 3.18 0 0 0-.932 2.25v5.046a2.39 2.39 0 0 0 2.387 2.387v-7.966c0-.51.165-1.006.471-1.414l2.452-3.27z"/><path id="AH" d="M1401.386 118.782a3.32 3.32 0 0 1 2.835-1.571 3.35 3.35 0 0 1 2.835 1.571c5.078 7.788 15.178 24.321 15.178 32.598 0 9.485-8.073 17.193-18.013 17.193-9.952 0-18.024-7.708-18.024-17.193 0-8.278 10.111-24.81 15.189-32.598z"/><path id="AI" d="M511.215 29.023c0-.752-.299-1.472-.83-2.004s-1.252-.83-2.004-.83h-5.675c-.752 0-1.472.299-2.004.83s-.83 1.252-.83 2.004v.004c0 .752.299 1.472.83 2.004s1.252.83 2.004.83h5.675c.752 0 1.472-.299 2.004-.83s.83-1.252.83-2.004v-.004z"/><path id="AJ" d="M1102.744 58.28a3.77 3.77 0 0 0-3.768-3.768h-10.048a3.77 3.77 0 0 0-3.768 3.768 3.77 3.77 0 0 0 3.768 3.768h10.048a3.77 3.77 0 0 0 3.768-3.768z"/><path id="AK" d="M1013.569 114.742a3.71 3.71 0 0 0-3.71-3.71h-.116a3.71 3.71 0 0 0-3.71 3.71v.06a3.77 3.77 0 0 0 1.103 2.663c.706.706 1.664 1.103 2.663 1.103h.005a3.77 3.77 0 0 0 2.663-1.103c.706-.706 1.103-1.664 1.103-2.663v-.06z"/></defs><g clip-path="url(#A)"><path d="M-40.704-1145.384h1571.886v3937.779H-40.704z" fill="#5bd1d6"/><path d="M1277.623 1508.364h8.205c32.154 0 58.22-26.066 58.22-58.22v-16.185c0-34.42 27.903-62.323 62.323-62.323h154.74V-423.897h0-404.217c-17.488 0-31.666-14.177-31.666-31.666h0c0-17.489-14.177-31.666-31.666-31.666h-52.418c-22.776 0-41.239-18.463-41.239-41.239h0c0-22.776-18.463-41.239-41.239-41.239h-39.928c-22.776 0-41.239-18.463-41.239-41.239v-30.651c0-23.58-19.115-42.695-42.695-42.695H638.901c-27.867 0-50.458 22.591-50.458 50.458v.873c0 27.867-22.591 50.458-50.458 50.458H349.729c-27.867 0-50.458-22.591-50.458-50.458v-26.987c0-27.867-22.591-50.458-50.458-50.458H-77.456l-18.267 2195.871c-.483 21.282 16.638 38.795 37.925 38.795h271.652c42.401 0 76.774 34.373 76.774 76.774h0c0 42.401 34.373 76.774 76.774 76.774h297.815c35.348 0 64.002-28.655 64.002-64.002h0c0-35.348 28.655-64.002 64.002-64.002h217.647c35.348 0 64.002 28.655 64.002 64.002v53.579c0 37.513 30.41 67.924 67.924 67.924h418.317v-92.906h0-283.489c-32.154 0-58.22-26.066-58.22-58.22v-17.597c0-32.154 26.066-58.22 58.22-58.22z" fill="#7ee5e3"/><path d="M984.015-394.787c-74.904 0-135.625-60.721-135.625-135.625v-12.015c0-14.122-11.449-25.571-25.571-25.571h-9.435c-6.635 0-12.014-5.379-12.014-12.014h0c0-6.635-5.379-12.014-12.014-12.014h-20.754c-20.758 0-37.585-16.827-37.585-37.585h0c0-14.123-11.449-25.571-25.571-25.571h-66.544c-11.79 0-21.347 9.558-21.347 21.347v.874c0 43.944-35.624 79.568-79.568 79.568H349.731c-43.944 0-79.568-35.624-79.568-79.568v-26.987c0-11.79-9.558-21.347-21.347-21.347H-48.967l-17.653 2167.42c-.073 3.231 1.542 5.378 2.512 6.37s3.079 2.656 6.311 2.656h271.651c58.316 0 105.772 47.388 105.884 105.678.05 26.328 21.336 47.87 47.664 47.87h297.814c19.245 0 34.906-15.581 34.892-34.826-.036-51.373 41.748-93.179 93.113-93.179h217.647c51.425 0 93.113 41.688 93.113 93.113v58.431c0 18.757 15.205 33.962 33.962 33.962h18.387c18.757 0 33.962-15.205 33.962-33.962v-105.652c0-48.231 39.099-87.33 87.33-87.33h8.205c16.077 0 29.11-13.033 29.11-29.11v-16.185c0-50.416 41.017-91.432 91.433-91.432H1532V-394.787H984.013z" fill="#ebf5f7"/><path d="M-49.048-671.29l-17.571 2157.414c-.073 3.231 1.542 5.378 2.512 6.37s3.079 2.656 6.311 2.656h271.65c58.316 0 105.772 47.388 105.884 105.678.05 26.328 21.336 47.87 47.664 47.87h297.814c19.245 0 34.906-15.581 34.892-34.826-.036-51.373 41.748-93.179 93.112-93.179h217.647c51.425 0 93.113 41.688 93.113 93.113v58.43c0 18.757 15.205 33.962 33.962 33.962h18.387c18.757 0 33.962-15.205 33.962-33.962v-105.652c0-48.231 39.099-87.33 87.33-87.33h8.205c16.077 0 29.11-13.033 29.11-29.11v-16.185c0-50.416 41.017-91.432 91.433-91.432h120.627" stroke="#ebf5f7" stroke-dasharray="0 10.006" class="C H I K"/><path d="M1397.633 177.299c-38.673 0-70.023-31.35-70.023-70.023h0c0-38.673-31.351-70.023-70.023-70.023h-115.2c-38.673 0-70.023-31.35-70.023-70.023v-81.318c0-38.673-31.351-70.023-70.023-70.023h-92.612c-38.673 0-70.023-31.35-70.023-70.023v-55.27c0-44.183-35.817-80-80-80H244.318c-44.183 0-80 35.817-80 80v35.388c0 44.183-35.817 80-80 80H-21.696v1387.785h95.662c34.93 0 63.247-28.317 63.247-63.247h0c0-34.93 28.317-63.247 63.247-63.247h90.353c34.93 0 63.247-28.317 63.247-63.247V902.381c0-34.93 28.317-63.247 63.247-63.247h98.122c41.867 0 75.807-33.94 75.807-75.807V643.746c0-48.029 38.935-86.964 86.964-86.964h0c48.029 0 86.964 38.935 86.964 86.964v90.427c0 41.867 33.94 75.807 75.807 75.807h242.686c42.415 0 76.8-34.385 76.8-76.8h0c0-42.416 34.384-76.8 76.8-76.8h31.624c42.415 0 76.8-34.384 76.8-76.8v-74.541c0-42.415 34.384-76.8 76.8-76.8h95.863v-250.94h-120.71z" class="P"/><path d="M1508.349,177.299h-110.716c-38.673,0-70.023-31.351-70.023-70.023s-31.35-70.023-70.023-70.023h-115.2c-38.673,0-70.023-31.35-70.023-70.023v-81.318c0-38.673-31.351-70.023-70.023-70.023h-92.612c-38.673,0-70.023-31.351-70.023-70.023v-55.27c0-44.183-35.817-80-80-80H244.318c-44.183,0-80,35.818-80,80v35.388c0,44.183-35.817,80-80,80H-16.699" stroke="#dcebf1" stroke-dasharray="0 9.995" class="C H I K"/><path d="M695.256-94.888H256.495c-16.67 0-30.183-13.513-30.183-30.183h0c0-16.67-13.513-30.183-30.183-30.183h-29.311c-16.67 0-30.183 13.513-30.183 30.183v19.526c0 16.67-13.513 30.183-30.183 30.183H90.536c-16.67 0-30.183 13.513-30.183 30.183l-.975 85.594c0 8.319 6.744 15.063 15.062 15.063h127.732c8.627 0 15.621 6.994 15.621 15.62s6.994 15.62 15.621 15.62h46.219c8.319 0 15.062 6.744 15.062 15.063v117.242c0 11.967 9.701 21.668 21.668 21.668h146.406c11.967 0 21.668-9.701 21.668-21.668V100.665c0-8.319 6.744-15.063 15.063-15.063h32.419c8.319 0 15.063 6.744 15.063 15.063h0c0 8.319 6.744 15.063 15.062 15.063h108.491c8.319 0 15.062-6.744 15.062-15.063V29.258c0-8.319 6.744-15.063 15.063-15.063h9.716c8.319 0 15.063-6.744 15.063-15.063v-63.838c0-16.67-13.514-30.183-30.183-30.183z" class="G"/><g class="C H I K M"><path d="M695.256-94.887H256.495c-16.67 0-30.183-13.513-30.183-30.183h0c0-16.67-13.513-30.183-30.183-30.183h-29.311c-16.67 0-30.183 13.513-30.183 30.183v19.527c0 16.67-13.513 30.183-30.183 30.183H90.536c-16.67 0-30.183 13.513-30.183 30.183l-.975 85.594c0 8.319 6.744 15.062 15.062 15.062h127.732c8.627 0 15.621 6.994 15.621 15.62s6.994 15.621 15.621 15.621h46.219c8.319 0 15.062 6.744 15.062 15.062v117.242c0 11.967 9.701 21.668 21.668 21.668h146.406c11.967 0 21.668-9.701 21.668-21.668V100.666c0-8.319 6.744-15.062 15.063-15.062h32.419c8.319 0 15.063 6.744 15.063 15.062s6.744 15.062 15.062 15.062h108.491c8.319 0 15.062-6.744 15.062-15.062V29.258c0-8.319 6.744-15.062 15.063-15.062h9.716c8.319 0 15.063-6.744 15.063-15.063v-63.837c0-16.67-13.514-30.183-30.183-30.183z" stroke-dasharray="0 10.008"/><path d="M703.382 149.678H535.881c-11.711 0-21.205 10.95-21.205 24.458v27.942c0 13.508 9.494 24.459 21.205 24.459h167.501c11.711 0 21.205-10.951 21.205-24.459v-27.942c0-13.508-9.494-24.458-21.205-24.458z" stroke-dasharray="0 10.085"/></g><path d="M762.437-26.531v70.175c0 22.741 20.419 41.177 45.607 41.177h170.898c25.188 0 45.607-18.435 45.607-41.177v-70.175c0-22.741-20.419-41.177-45.607-41.177h-61.078a1.2 1.2 0 0 1-.813-.318l-1.946-1.8c-.445-.412-1.129-.426-1.59-.032l-2.182 1.864c-.217.185-.492.287-.777.287h-33.407a2.06 2.06 0 0 1-1.626-.795l-3.6-4.63a2.06 2.06 0 0 0-3.209-.052l-3.932 4.734a2.06 2.06 0 0 1-1.584.743h-55.154c-25.188 0-45.607 18.435-45.607 41.177z" style="mix-blend-mode:multiply" fill="#e6f2f8"/><path d="M762.437-17.862v64.711c0 20.971 20.419 37.971 45.607 37.971h170.898c25.188 0 45.607-17 45.607-37.971v-64.711c0-20.971-20.419-37.971-45.607-37.971H808.044c-25.188 0-45.607 17-45.607 37.971z" fill="#74e0dd"/><path d="M762.437-13.752v62.121c0 20.131 20.419 36.451 45.607 36.451h170.898c25.188 0 45.607-16.32 45.607-36.451v-62.121c0-20.131-20.419-36.451-45.607-36.451H808.044c-25.188 0-45.607 16.32-45.607 36.451z" fill="#b1efee"/><g stroke="#d6fdfb" stroke-width="1.99" class="C H I"><path d="M989.235 34.591h-2.836m-9.473 0h-.477m-27.87 22.521h6.866m14.726 0h-8.05m-19.333 0h.477m15.165-8.726h-2.846m-9.473 0h-.477"/></g><g class="B"><path d="M843.843-.891a3 3 0 0 0-.876-2.119c-.567-.557-1.323-.876-2.119-.876h-5.96c-.786 0-1.552.318-2.109.876s-.876 1.323-.876 2.119V.552a4.53 4.53 0 0 0 1.323 3.194c.846.846 2 1.323 3.194 1.323h2.906a4.53 4.53 0 0 0 3.194-1.323c.846-.846 1.323-2 1.323-3.194V-.891z" fill="#89e4e2"/><use href="#V" fill="#d7f5f3"/><path d="M988.034 64.884a3 3 0 0 0-.876-2.119c-.567-.557-1.323-.876-2.119-.876h-5.96c-.786 0-1.552.318-2.109.876s-.876 1.323-.876 2.119v1.443a4.53 4.53 0 0 0 1.323 3.194c.846.846 2 1.323 3.194 1.323h2.906a4.53 4.53 0 0 0 3.194-1.323c.846-.846 1.323-2 1.323-3.194v-1.443z" fill="#89e4e2"/><path d="M988.034 58.904h-11.94v4.468a4.49 4.49 0 0 0 4.488 4.488h2.965a4.49 4.49 0 0 0 4.488-4.488v-4.468z" fill="#d7f5f3"/><g class="D"><path d="M988.034 58.904c0-2.468-2.01-4.478-4.478-4.478h-2.985a4.48 4.48 0 0 0-4.478 4.478h0c0 1.194.468 2.328 1.313 3.164a4.43 4.43 0 0 0 3.164 1.313h2.985a4.48 4.48 0 0 0 4.478-4.478h0z"/></g></g><path d="M514.137 138.055h80.318v23.516h-80.318z" class="D"/><path d="M585.641 138.055h8.818v23.516h-8.818z" class="Z"/><g class="B"><path d="M635.608 88.166l-44.185 26.519c-1.768 1.061-2.841 2.972-2.841 5.034v27.94l47.026-29.424V88.166z" class="D"/><path d="M635.608 88.166l44.165 26.297a5.89 5.89 0 0 1 2.861 5.044v28.081l-47.027-29.352V88.167z" fill="#cfece9"/><path d="M638.548 124.174V89.618c0-1.621-1.311-2.936-2.94-2.936h0c-1.629 0-2.94 1.315-2.94 2.936v34.556h5.881z" class="Z"/><path d="M676.753 144.016l-41.145-26.456-41.146 26.456v44.092h82.291v-44.092z" class="S"/></g><g clip-path="url(#B)"><path d="M565.058 114.621h138.155v41.152H565.058z" fill="#ad7049"/></g><use href="#W" class="T"/><use href="#X" class="U"/><path d="M620.906 138.096h5.879v14.697h-5.879z" class="T"/><path d="M620.906 135.117h5.879v2.98h-5.879z" class="U"/><path d="M644.429 138.096h5.879v14.697h-5.879z" class="T"/><path d="M644.429 135.117h5.879v2.98h-5.879z" class="U"/><path d="M682.634 146.428v6.933l-47.026-29.394-47.027 29.394v-6.933l47.027-29.394 47.026 29.394z" fill="#93533b"/><g class="B"><path d="M234.632 103.46l-37.893 28.687a6.45 6.45 0 0 0-2.558 5.16v21.384l40.451-33.716V103.46z" class="D"/><path d="M234.632 103.46l37.74 28.578a6.45 6.45 0 0 1 2.558 5.16v21.494l-40.298-33.716v-21.515z" fill="#cfece9"/><path d="M236.163 128.059v-23.505c0-.306-.109-.569-.306-.766a1.06 1.06 0 0 0-.765-.328h-.918c-.284 0-.569.109-.765.328-.197.197-.306.459-.306.766v23.505h3.061z" class="Z"/><path d="M271.803 155.74l-36.034-29.825h-2.274l-36.034 29.825v29.492c0 .693.262 1.358.766 1.85a2.6 2.6 0 0 0 1.837.765h69.116a2.65 2.65 0 0 0 1.859-.765 2.66 2.66 0 0 0 .765-1.85V155.74z" fill="#b9875b"/></g><g clip-path="url(#C)"><g fill="#ad7049"><path d="M195.275 141.921h78.715v6.56h-78.715zm0-13.119h78.715v6.56h-78.715z"/></g><path d="M194.181 161.272l40.451-33.563 40.845 33.891" stroke="#ad7049" stroke-linejoin="bevel" stroke-width="6.56" class="C"/></g><path d="M230.259 141.965h8.746v10.933h-8.746z" class="T"/><path d="M230.259 139.748h8.746v2.217h-8.746z" class="U"/><g class="D"><path d="M82.574-35.063h63.283V36.13H82.574z"/><path d="M77.3-35.063h73.83V36.13H77.3z"/></g><g clip-path="url(#D)" stroke="#f3f3f3" stroke-miterlimit="10" stroke-width="4.597" class="C"><path d="M119.489-30.39L72.027-1.26"/><path d="M108.942-30.39l47.462 29.13"/></g><g fill="#81c6db"><path d="M82.574 1.852h15.821v21.094H82.574zm47.462 0h15.821v21.094h-15.821z"/></g><g fill="#c97353"><path d="M103.668 1.852h21.094V36.13h-21.094z"/><path style="mix-blend-mode:multiply" d="M124.763 1.852h-21.095v21.094l21.095-21.094z" opacity=".228" class="B"/></g><path d="M149.981 36.13h-73.83" class="G H I K M g"/><path d="M233.494 23.711h87.587v52.123h-87.587z" fill="#81c6db"/><path d="M291.246 32.952c-.474-.473-1.129-.745-1.799-.745-.416 0-.753.337-.753.753s.338.754.753.754c.274 0 .541.11.734.303a1.03 1.03 0 0 1 .304.734v2.767a1.14 1.14 0 0 1-.335.81c-.217.217-.504.336-.81.336h-.684V35.83a2.77 2.77 0 0 0-2.77-2.771h-1.642v-2.564c0-.112-.06-.216-.158-.27s-.216-.053-.312.005l-1.638.992a2.88 2.88 0 0 0-.797-.125 2.86 2.86 0 0 0-.795.124l-1.639-.993a.31.31 0 0 0-.471.265v5.084a1.04 1.04 0 0 0 .305.734c.194.194.457.304.733.304h1.222v.189a2.51 2.51 0 0 0 .734 1.772c.164.164.358.283.557.392v.342h-.495c-.228 0-.447.09-.608.252s-.253.381-.253.609h0 8.712c.708 0 1.374-.276 1.875-.777s.777-1.167.777-1.875v-2.767c0-.68-.264-1.319-.745-1.799z" fill="#68b5c2" class="B"/><path d="M233.494-12.362h87.587v27.841h-87.587z" fill="#503b72"/><g class="D"><path d="M233.604 48.47h87.474v2.674h-87.474z" opacity=".322"/><path d="M233.604 15.479h87.474v8.23h-87.474z"/><path d="M233.604 20.966h87.474v2.743h-87.474z" opacity=".322"/><path d="M315.607 15.481h5.474v60.353h-5.474z"/><path d="M234.863 40.171h84.85v8.23h-84.85z"/></g><g fill="#386372"><use href="#Y"/><path d="M266.339 23.709h8.211v5.487h-8.211zm27.371 0h8.211v5.487h-8.211z"/></g><g fill="#6eb8ca"><use href="#Z"/><path d="M266.339 23.709h21.897v5.487h-21.897zm27.371 0h21.897v5.487H293.71z"/></g><g fill="#386372"><path d="M238.968 48.401h8.211v5.487h-8.211zm27.371 0h8.211v5.487h-8.211zm27.371 0h8.211v5.487h-8.211z"/></g><g fill="#6eb8ca"><path d="M238.968 48.401h21.897v5.487h-21.897z"/><path d="M266.339 75.834l21.897-21.947v-5.486h-21.897v27.433z" class="B"/><path d="M293.71 48.401h21.897v5.487H293.71z"/></g><path d="M233.494 15.481h5.474v60.353h-5.474z" class="D"/><g class="B"><use href="#a" fill="#c5e74a"/><path d="M296.447 63.488a4.11 4.11 0 0 0-4.106-4.115 4.11 4.11 0 0 0-4.106 4.115v4.108h8.211v-4.108z" fill="#becc46"/><g fill="#c5e74a"><path d="M312.87 63.496a4.11 4.11 0 0 0-4.106-4.115 4.11 4.11 0 0 0-4.106 4.115v4.108h8.211v-4.108z"/><path d="M321.081 63.496a4.11 4.11 0 0 0-4.106-4.115 4.11 4.11 0 0 0-4.106 4.115v4.108h8.211v-4.108zm-71.164 0a4.11 4.11 0 0 0-4.106-4.115 4.11 4.11 0 0 0-4.106 4.115v4.108h8.211v-4.108z"/><path d="M241.705 63.488a4.11 4.11 0 0 0-4.106-4.115 4.11 4.11 0 0 0-4.106 4.115v4.108h8.211v-4.108zm16.423.008a4.11 4.11 0 0 0-4.106-4.115 4.11 4.11 0 0 0-4.106 4.115v4.108h8.211v-4.108z"/></g><path d="M266.339 63.496a4.11 4.11 0 0 0-4.106-4.115 4.11 4.11 0 0 0-4.106 4.115v4.108h8.211v-4.108z" fill="#becc46"/></g><g class="D"><path d="M288.236 67.604h32.845v8.23h-32.845zm-54.632 0h32.845v8.23h-32.845z"/><path d="M258.128 20.967h8.211v46.636h-8.211zm30.108 0h8.211v46.636h-8.211z"/></g><g class="C H I K M"><path d="M233.604 75.834h0"/><path d="M243.323 75.834h72.898" stroke-dasharray="0 9.72"/><path d="M321.081 75.834h0"/></g><rect x="537.702" y="14.7" width="58.573" height="14.108" rx="7.054" class="V"/><path d="M544.756,28.807h44.466c3.88,0,7.054-3.174,7.054-7.054s-3.174-7.054-7.054-7.054h-44.466c-3.88,0-7.054,3.174-7.054,7.054s3.174,7.054,7.054,7.054Z" class="C H I K M h"/><g class="B"><path d="M561.628-5.291h9.344v25.684c0 1.229-.489 2.416-1.369 3.296-.88.866-2.067 1.369-3.296 1.369h-.014c-1.229 0-2.416-.503-3.296-1.369-.866-.88-1.369-2.067-1.369-3.296V-5.291z" class="a"/><g class="F"><use href="#b"/><use href="#c"/></g></g><g clip-path="url(#E)" class="B Q"><path d="M564.408-50.779c.782-.922 1.927-1.439 3.129-1.439s2.346.517 3.128 1.439c6.969 8.128 23.184 28.086 23.184 37.835 0 10.67-11.788 19.329-26.312 19.329S541.21-2.274 541.21-12.944c0-9.748 16.215-29.706 23.198-37.835z" class="R"/></g><g class="B"><g class="F"><use href="#d"/><path d="M591.796-1.241c-.698-1.089-2.137-1.397-3.226-.712-1.075.698-1.397,2.151-.698,3.226l4.162,6.508c.698,1.075,2.151,1.397,3.226.698,1.089-.698,1.397-2.137.712-3.226l-4.176-6.494Z"/></g><g class="b"><path d="M565.204 6.385c0-1.285 1.047-2.332 2.332-2.332s2.332 1.047 2.332 2.332v2.332c0 1.285-1.047 2.332-2.332 2.332s-2.332-1.047-2.332-2.332V6.385z" class="J"/><use href="#e" class="J"/><use href="#f" class="J"/><use href="#g" class="J"/><use href="#h" class="J"/><path d="M545.26-2.889a2.33 2.33 0 1 1 4.036 2.332l-2.109 3.659A2.33 2.33 0 1 1 543.151.77l2.109-3.659z" class="J"/><use href="#i" class="J"/></g><g class="D"><use href="#j"/><use href="#k"/><use href="#l"/></g><use href="#m" class="F"/><g class="D"><use href="#n"/><use href="#o"/></g><g class="F"><use href="#p"/><use href="#q"/></g><g class="D"><use href="#r"/><use href="#s"/></g><g class="F"><use href="#t"/><use href="#u"/></g></g><rect x="612.154" y="57.244" width="58.573" height="14.108" rx="7.054" class="V"/><path d="M619.208,71.352h44.466c3.88,0,7.054-3.174,7.054-7.054s-3.174-7.054-7.054-7.054h-44.466c-3.88,0-7.054,3.174-7.054,7.054s3.174,7.054,7.054,7.054Z" class="C H I K M h"/><g class="B"><path d="M636.081 37.253h9.344v25.684c0 1.229-.489 2.416-1.369 3.296-.88.866-2.067 1.369-3.296 1.369h-.014c-1.229 0-2.416-.503-3.296-1.369-.866-.88-1.369-2.067-1.369-3.296V37.253z" class="a"/><g class="F"><path d="M617.464 39.865c.684-1.089 2.137-1.397 3.212-.712 1.089.698 1.411 2.151.712 3.226l-5 7.807c-.684 1.089-2.137 1.411-3.212.712a2.33 2.33 0 0 1-.712-3.226l5-7.807z"/><path d="M637.91 7.687a4.13 4.13 0 0 1 3.492-1.927 4.15 4.15 0 0 1 3.492 1.927l22.821 35.921c0 10.656-11.787 19.315-26.312 19.315s-26.312-8.659-26.312-19.315l22.821-35.921z"/></g></g><g clip-path="url(#F)" class="B Q"><path d="M638.86-8.235c.782-.922 1.927-1.439 3.129-1.439s2.346.517 3.128 1.439c6.969 8.128 23.184 28.086 23.184 37.835 0 10.67-11.788 19.329-26.312 19.329S615.662 40.27 615.662 29.6c0-9.748 16.215-29.706 23.198-37.835z" class="R"/></g><g class="B"><g class="F"><path d="M650.424 58.482c-.14-1.285-1.299-2.207-2.57-2.081-1.285.14-2.221 1.299-2.081 2.57l.433 3.994c.14 1.271 1.285 2.207 2.57 2.067s2.207-1.285 2.067-2.57l-.419-3.981zm15.824-17.178c-.698-1.089-2.137-1.397-3.226-.712-1.075.698-1.397 2.151-.698 3.226l4.162 6.508c.698 1.075 2.151 1.397 3.226.698 1.089-.698 1.397-2.137.712-3.226l-4.176-6.494z"/></g><g class="b"><use href="#v" class="J"/><path d="M631.584 53.315c.154-1.271 1.327-2.179 2.598-2.025 1.285.154 2.193 1.327 2.025 2.598l-.279 2.318a2.33 2.33 0 0 1-2.612 2.025c-1.271-.154-2.179-1.327-2.025-2.598l.293-2.318zm20.642 0c-.154-1.271-1.327-2.179-2.598-2.025a2.34 2.34 0 0 0-2.039 2.598l.293 2.318c.154 1.285 1.327 2.193 2.598 2.025a2.34 2.34 0 0 0 2.039-2.598l-.293-2.318zm-26.746-9.26c.377-1.229 1.69-1.913 2.919-1.536a2.34 2.34 0 0 1 1.522 2.933l-.978 3.114a2.34 2.34 0 0 1-2.933 1.522c-1.229-.377-1.913-1.69-1.522-2.919l.992-3.114zm31.508 1.047a2.34 2.34 0 0 0-2.933-1.522 2.34 2.34 0 0 0-1.522 2.933l.978 3.114a2.34 2.34 0 0 0 2.933 1.522c1.229-.391 1.913-1.69 1.522-2.919l-.978-3.128zm-37.276-5.447a2.331 2.331 0 1 1 4.036 2.332l-2.109 3.659a2.331 2.331 0 1 1-4.036-2.332l2.109-3.659zm43.002-.125a2.331 2.331 0 1 0-4.036 2.332l2.109 3.659c.642 1.117 2.081 1.494 3.198.852 1.103-.643 1.494-2.067.852-3.184l-2.123-3.659z" class="J"/></g><path d="M638.511-.567a4.15 4.15 0 0 1 3.478-1.886c1.397 0 2.709.712 3.464 1.886l18.631 28.854c0 8.813-9.902 15.977-22.095 15.977-12.207 0-22.109-7.165-22.109-15.977L638.511-.567z" class="D"/></g><g clip-path="url(#G)" class="B"><path d="M638.874-18.765c.782-.908 1.913-1.425 3.115-1.425a4.12 4.12 0 0 1 3.114 1.425c6.089 7.039 18.98 22.877 18.98 30.712 0 8.827-9.902 15.977-22.095 15.977s-22.109-7.151-22.109-15.977c0-7.835 12.891-23.673 18.994-30.712z" class="N c"/><use href="#w" class="O"/><g class="D"><use href="#x"/><use href="#y" class="N"/><path d="M638.413 32.589a2.34 2.34 0 0 1 2.346-2.332c1.285 0 2.332 1.047 2.332 2.332v2.332c0 1.299-1.047 2.332-2.332 2.332a2.33 2.33 0 0 1-2.346-2.332v-2.332z" class="N"/><use href="#z" class="N"/><path d="M625.578 22.938c.656-1.103 2.081-1.494 3.198-.852s1.494 2.081.852 3.198l-2.025 3.492a2.33 2.33 0 1 1-4.036-2.332l2.011-3.506z"/></g></g><path d="M638.134-9.24a3.93 3.93 0 0 1 6.536 0l13.715 20.6c0 3.827-2.584 7.235-6.606 9.413-2.863 1.55-6.466 2.486-10.377 2.486-9.371 0-16.983-5.335-16.983-11.899l13.715-20.6z" class="B d"/><g clip-path="url(#H)"><g class="e"><rect x="626.751" y="-14.087" width="29.748" height="30.041" rx="14.706" opacity=".55"/><g class="B"><path d="M640.648.55c-.349-1.243.377-2.528 1.62-2.877s2.528.377 2.877 1.62l.196.671c.335 1.243-.391 2.528-1.62 2.877-1.243.349-2.528-.377-2.877-1.62l-.196-.67z"/></g></g><g class="f B"><path d="M646.081 5.704a2.34 2.34 0 0 1 1.117-3.114c1.159-.545 2.556-.056 3.1 1.117l1.006 2.109c.545 1.159.056 2.556-1.117 3.1-1.159.559-2.556.056-3.101-1.103l-1.006-2.109zm-7.668 3.547a2.34 2.34 0 0 1 2.346-2.332c1.285 0 2.332 1.047 2.332 2.332v2.332a2.34 2.34 0 0 1-2.332 2.346 2.34 2.34 0 0 1-2.346-2.346V9.251zm-4.693-7.849c.642-1.117 2.081-1.494 3.184-.852a2.35 2.35 0 0 1 .852 3.198l-1.173 2.011a2.35 2.35 0 0 1-3.198.852c-1.103-.656-1.494-2.081-.838-3.198l1.173-2.011z"/></g></g><g class="B"><g class="d"><path d="M644.321 23.078c0-1.299-1.047-2.332-2.332-2.332s-2.332 1.033-2.332 2.332v.182c0 1.285 1.047 2.332 2.332 2.332s2.332-1.047 2.332-2.332v-.182zm12.402-5.685c-.489-1.201-1.857-1.774-3.045-1.285-1.201.475-1.774 1.844-1.285 3.031l.07.182c.489 1.187 1.843 1.76 3.045 1.285a2.36 2.36 0 0 0 1.285-3.045l-.07-.168zm-30.237-.028c.489-1.187 1.858-1.774 3.045-1.285a2.33 2.33 0 0 1 1.285 3.045l-.07.168c-.489 1.187-1.843 1.774-3.031 1.285a2.33 2.33 0 0 1-1.285-3.045l.056-.168zm33.686-5.712c-.698-1.089-2.137-1.397-3.226-.712a2.33 2.33 0 0 0-.698 3.226l.098.154c.698 1.089 2.137 1.397 3.226.712 1.075-.698 1.397-2.151.698-3.226l-.098-.154z"/></g><g class="D"><use href="#AA"/><path d="M617.561 28.846c.685-1.089 2.137-1.397 3.212-.712 1.089.698 1.411 2.151.712 3.226l-.098.154c-.698 1.089-2.151 1.411-3.226.712-1.089-.698-1.397-2.137-.712-3.226l.112-.154zm40.796 10.237a2.34 2.34 0 0 0-3.226-.698c-1.089.698-1.397 2.137-.698 3.226l.098.154c.684 1.075 2.137 1.397 3.226.698a2.34 2.34 0 0 0 .698-3.226l-.098-.154zm-33.198 0a2.34 2.34 0 0 1 3.226-.698 2.34 2.34 0 0 1 .698 3.226l-.098.154a2.34 2.34 0 0 1-3.226.698c-1.089-.698-1.397-2.137-.698-3.226l.098-.154z"/></g><path d="M619.238 50.842c.726-1.061 2.179-1.341 3.24-.614a2.35 2.35 0 0 1 .615 3.254l-1.844 2.682a2.32 2.32 0 0 1-3.24.614c-1.061-.726-1.341-2.179-.615-3.24l1.844-2.696z" class="F"/><g class="D"><path d="M653.162 42.197c-.377-1.229-1.69-1.927-2.919-1.55s-1.927 1.69-1.536 2.919l.056.182a2.32 2.32 0 0 0 2.905 1.536c1.243-.377 1.927-1.69 1.55-2.919l-.056-.168zm-22.807 0a2.34 2.34 0 0 1 2.919-1.55c1.229.377 1.914 1.69 1.536 2.919l-.056.182c-.377 1.229-1.69 1.913-2.919 1.536s-1.913-1.69-1.536-2.919l.056-.168z"/></g><g class="F"><path d="M625.676 58.678c.391-1.229 1.69-1.913 2.919-1.536s1.927 1.69 1.55 2.919l-.056.182c-.377 1.229-1.69 1.913-2.919 1.536s-1.927-1.69-1.536-2.919l.042-.182zm32.304-2.221a2.33 2.33 0 0 0-2.919-1.536c-1.229.377-1.913 1.69-1.536 2.919l.922 3.003c.391 1.229 1.69 1.927 2.919 1.55 1.243-.391 1.927-1.69 1.55-2.919l-.936-3.017z"/></g><g class="D"><path d="M647.086 44.432c-.14-1.285-1.299-2.207-2.57-2.067a2.33 2.33 0 0 0-2.081 2.57l.028.182c.14 1.271 1.285 2.207 2.57 2.067 1.271-.14 2.207-1.285 2.067-2.57l-.014-.182zm-10.656 0c.14-1.285 1.285-2.207 2.57-2.067 1.285.126 2.207 1.285 2.067 2.57l-.014.182c-.14 1.271-1.285 2.207-2.57 2.067s-2.207-1.285-2.067-2.57l.014-.182z"/></g><path d="M631.765 60.926c.14-1.285 1.285-2.221 2.57-2.081s2.207 1.299 2.067 2.57l-.014.195c-.14 1.271-1.299 2.207-2.57 2.067-1.285-.14-2.207-1.299-2.081-2.57l.028-.182z" class="F"/><g class="D"><use href="#AB"/><use href="#AC"/></g><path d="M662.826 50.801a2.34 2.34 0 0 0-3.226-.698c-1.089.698-1.397 2.137-.712 3.226l2.793 4.33c.698 1.089 2.137 1.397 3.226.712 1.075-.698 1.397-2.151.698-3.226l-2.779-4.343z" class="F"/><g class="d"><path d="M623.036 11.625c.698-1.089 2.137-1.397 3.226-.698 1.089.684 1.397 2.137.698 3.212l-.098.168a2.34 2.34 0 0 1-3.226.698 2.34 2.34 0 0 1-.698-3.226l.098-.154zm28.491 9.721c-.21-1.271-1.411-2.137-2.682-1.927s-2.123 1.411-1.913 2.682l.028.182c.21 1.271 1.411 2.137 2.682 1.927s2.137-1.411 1.913-2.682l-.028-.182zm-19.846-.028c.209-1.271 1.411-2.137 2.681-1.927a2.33 2.33 0 0 1 1.913 2.696l-.028.182c-.209 1.271-1.41 2.123-2.681 1.913s-2.123-1.411-1.913-2.682l.028-.182z"/></g></g><rect x="162.254" y="27.061" width="58.573" height="14.108" rx="7.054" class="H I K M V g"/><g class="B"><path d="M186.181 7.071h9.344v25.684c0 1.229-.489 2.416-1.369 3.296-.88.866-2.067 1.369-3.296 1.369h-.014c-1.229 0-2.416-.503-3.296-1.369-.866-.88-1.369-2.067-1.369-3.296V7.071z" class="a"/><g class="F"><path d="M167.564 9.682c.684-1.089 2.137-1.397 3.212-.712 1.089.698 1.411 2.151.712 3.226l-5 7.807c-.684 1.089-2.137 1.411-3.212.712a2.33 2.33 0 0 1-.712-3.226l5-7.807z"/><path d="M188.01-22.496a4.13 4.13 0 0 1 3.492-1.927 4.15 4.15 0 0 1 3.492 1.927l22.821 35.921c0 10.656-11.787 19.315-26.312 19.315s-26.312-8.659-26.312-19.315l22.821-35.921z"/></g></g><g clip-path="url(#I)" class="B Q"><path d="M188.96-38.417c.782-.922 1.927-1.439 3.129-1.439s2.346.517 3.128 1.439c6.969 8.128 23.184 28.086 23.184 37.835 0 10.67-11.788 19.329-26.312 19.329s-26.327-8.659-26.327-19.329c0-9.748 16.215-29.706 23.198-37.835z" class="R"/></g><g class="B"><g class="F"><path d="M200.524 28.299c-.14-1.285-1.299-2.207-2.57-2.081-1.285.14-2.221 1.299-2.081 2.57l.433 3.994c.14 1.271 1.285 2.207 2.57 2.067s2.207-1.285 2.067-2.57l-.419-3.981zm15.824-17.178c-.698-1.089-2.137-1.397-3.226-.712-1.075.698-1.397 2.151-.698 3.226l4.162 6.508c.698 1.075 2.151 1.397 3.226.698 1.089-.698 1.397-2.137.712-3.226l-4.176-6.494z"/></g><g class="b"><path d="M189.756 18.746c0-1.285 1.047-2.332 2.332-2.332s2.332 1.047 2.332 2.332v2.332c0 1.285-1.047 2.332-2.332 2.332s-2.332-1.047-2.332-2.332v-2.332zm-8.072 4.386c.154-1.271 1.327-2.179 2.598-2.025 1.285.154 2.193 1.327 2.025 2.598l-.279 2.318a2.33 2.33 0 0 1-2.612 2.025c-1.271-.154-2.179-1.327-2.025-2.598l.293-2.318zm20.642 0c-.154-1.271-1.327-2.179-2.598-2.025a2.34 2.34 0 0 0-2.039 2.598l.293 2.318c.154 1.285 1.327 2.193 2.598 2.025a2.34 2.34 0 0 0 2.039-2.598l-.293-2.318zm-26.746-9.26c.377-1.229 1.69-1.913 2.919-1.536a2.34 2.34 0 0 1 1.522 2.933l-.978 3.114a2.34 2.34 0 0 1-2.933 1.522c-1.229-.377-1.913-1.69-1.522-2.919l.992-3.114zm31.508 1.048a2.34 2.34 0 0 0-2.933-1.522 2.34 2.34 0 0 0-1.522 2.933l.978 3.114a2.34 2.34 0 0 0 2.933 1.522c1.229-.391 1.913-1.69 1.522-2.919l-.978-3.128zm-37.276-5.447a2.331 2.331 0 0 1 4.036 2.332l-2.109 3.659a2.331 2.331 0 0 1-4.036-2.332l2.109-3.659zm43.002-.126a2.331 2.331 0 0 0-4.036 2.332l2.109 3.659c.642 1.117 2.081 1.494 3.198.852 1.103-.643 1.494-2.067.852-3.184l-2.123-3.659z" class="J"/></g><path d="M188.611-30.75a4.15 4.15 0 0 1 3.478-1.886c1.397 0 2.709.712 3.464 1.886l18.631 28.854c0 8.813-9.902 15.977-22.095 15.977-12.207 0-22.109-7.165-22.109-15.977l18.631-28.854z" class="D"/></g><g clip-path="url(#J)" class="B"><path d="M188.611-55.303a4.07 4.07 0 0 1 3.478-1.927 4.11 4.11 0 0 1 3.478 1.927c6.229 9.553 18.617 29.832 18.617 39.985 0 11.634-9.902 21.089-22.095 21.089-12.207 0-22.109-9.455-22.109-21.089 0-10.153 12.402-30.432 18.631-39.985z" class="O"/><g class="D"><path d="M204.002-4.116c-.642-1.117-.265-2.556.852-3.198s2.542-.251 3.184.852l2.332 4.05c.656 1.117.265 2.542-.852 3.184a2.33 2.33 0 0 1-3.184-.852l-2.332-4.036z"/><path d="M198.471 4.403c-.433-1.215.224-2.542 1.439-2.975 1.215-.419 2.542.237 2.961 1.453l.768 2.207a2.33 2.33 0 0 1-1.438 2.961c-1.215.419-2.556-.223-2.975-1.438l-.754-2.207zm-9.958-1.997a2.34 2.34 0 0 1 2.346-2.332c1.285 0 2.332 1.047 2.332 2.332v2.332c0 1.299-1.047 2.332-2.332 2.332a2.33 2.33 0 0 1-2.346-2.332V2.406zm-9.176.391a2.34 2.34 0 0 1 3.031-1.327c1.201.461 1.788 1.816 1.327 3.017l-.852 2.179c-.461 1.201-1.816 1.788-3.017 1.327-1.201-.475-1.802-1.816-1.327-3.017l.838-2.179z" class="N"/></g></g><g class="B"><g class="D"><path d="M216.055-1.337c-.698-1.089-2.137-1.397-3.226-.712a2.33 2.33 0 0 0-.698 3.226l.098.154a2.33 2.33 0 0 0 3.226.712 2.34 2.34 0 0 0 .698-3.226l-.098-.154zm-48.393 0c.685-1.089 2.137-1.397 3.212-.712 1.089.698 1.411 2.151.712 3.226l-.098.154c-.698 1.089-2.151 1.411-3.226.712-1.089-.698-1.397-2.137-.712-3.226l.112-.154zM208.457 8.9a2.34 2.34 0 0 0-3.226-.698c-1.089.698-1.397 2.137-.698 3.226l.098.154c.684 1.075 2.137 1.397 3.226.698a2.34 2.34 0 0 0 .698-3.226l-.098-.154zm-33.198 0a2.34 2.34 0 0 1 3.226-.698 2.34 2.34 0 0 1 .698 3.226l-.098.154a2.34 2.34 0 0 1-3.226.698c-1.089-.698-1.397-2.137-.698-3.226l.098-.154z"/></g><path d="M169.338 20.66c.726-1.061 2.179-1.341 3.24-.614a2.35 2.35 0 0 1 .615 3.254l-1.844 2.682a2.32 2.32 0 0 1-3.24.614c-1.061-.726-1.341-2.179-.615-3.24l1.844-2.696z" class="F"/><g class="D"><path d="M203.262 12.015c-.377-1.229-1.69-1.927-2.919-1.55s-1.927 1.69-1.536 2.919l.056.182a2.32 2.32 0 0 0 2.905 1.536c1.243-.377 1.927-1.69 1.55-2.919l-.056-.168zm-22.807 0a2.34 2.34 0 0 1 2.919-1.55c1.229.377 1.914 1.69 1.536 2.919l-.056.182c-.377 1.229-1.69 1.913-2.919 1.536s-1.913-1.69-1.536-2.919l.056-.168z"/></g><g class="F"><path d="M175.776 28.495c.391-1.229 1.69-1.913 2.919-1.536s1.927 1.69 1.55 2.919l-.056.182c-.377 1.229-1.69 1.913-2.919 1.536s-1.927-1.69-1.536-2.919l.042-.182zm32.304-2.221a2.33 2.33 0 0 0-2.919-1.536c-1.229.377-1.913 1.69-1.536 2.919l.922 3.003c.391 1.229 1.69 1.927 2.919 1.55 1.243-.391 1.927-1.69 1.55-2.919l-.936-3.017z"/></g><g class="D"><path d="M197.186 14.249c-.14-1.285-1.299-2.207-2.57-2.067a2.33 2.33 0 0 0-2.081 2.57l.028.182c.14 1.271 1.285 2.207 2.57 2.067 1.271-.14 2.207-1.285 2.067-2.57l-.014-.182zm-10.656 0c.14-1.285 1.285-2.207 2.57-2.067 1.285.126 2.207 1.285 2.067 2.57l-.014.182c-.14 1.271-1.285 2.207-2.57 2.067s-2.207-1.285-2.067-2.57l.014-.182z"/></g><path d="M181.865 30.743c.14-1.285 1.285-2.221 2.57-2.081s2.207 1.299 2.067 2.57l-.014.195c-.14 1.271-1.299 2.207-2.57 2.067-1.285-.14-2.207-1.299-2.081-2.57l.028-.182z" class="F"/><g class="D"><path d="M213.247 4.585c-.684-1.075-2.137-1.397-3.212-.698a2.33 2.33 0 0 0-.712 3.226l.098.154a2.33 2.33 0 0 0 3.226.698c1.089-.684 1.397-2.137.712-3.226l-.112-.154zm-42.792 0a2.34 2.34 0 0 1 3.226-.698c1.089.698 1.397 2.137.698 3.226l-.098.154c-.698 1.089-2.137 1.397-3.226.698-1.075-.684-1.397-2.137-.698-3.226l.098-.154z"/></g><path d="M212.926 20.618a2.34 2.34 0 0 0-3.226-.698c-1.089.698-1.397 2.137-.712 3.226l2.793 4.33c.698 1.089 2.137 1.397 3.226.712 1.075-.698 1.397-2.151.698-3.226l-2.779-4.343z" class="F"/></g><rect x="1241.371" y="91.322" width="28.503" height="7.184" rx="3.592" class="L"/><use href="#AD"/><path d="M1259.949 66.477h-8.653l-4.326 4.958v18.96a2.04 2.04 0 0 0 2.041 2.041h13.225a2.04 2.04 0 0 0 2.041-2.041V70.803l-4.326-4.326z" class="B W"/><path d="M1257.064 92.436h5.769v2.884h-5.769z"/><g class="B"><path d="M1263.947,60.708c0-1.593-1.291-2.884-2.884-2.884h-6.646v2.884h9.53Z" class="X"/><path d="M1261.391,66.477h-11.537v4.326c0,3.186,2.583,5.769,5.769,5.769s5.769-2.583,5.769-5.769v-4.326Z" fill="#f4d345"/><path d="M1259.949 60.708c0-1.147-.456-2.248-1.267-3.059s-1.912-1.267-3.059-1.267-2.248.456-3.059 1.267-1.267 1.912-1.267 3.059v5.769h8.653v-5.769z"/><path d="M1252.269 65.18l.324-2.884-8.261 8.261a5.77 5.77 0 0 0-1.69 4.079v9.148c0 2.39 1.937 4.326 4.326 4.326V73.67c0-.924.3-1.824.854-2.563l4.445-5.927zm6.707 0l-.324-2.884 8.261 8.261a5.77 5.77 0 0 1 1.69 4.079v9.148c0 2.39-1.937 4.326-4.326 4.326V73.67c0-.924-.3-1.824-.854-2.563l-4.445-5.927z"/></g><rect x="1208.902" y="114.397" width="28.503" height="7.184" rx="3.592" transform="matrix(-1 0 0 -1 2446.308 235.977)" class="L"/><path d="M1224.596 115.51h5.769v2.884h-5.769z"/><path d="M1218.827 89.552h8.653l4.326 4.958v18.96a2.04 2.04 0 0 1-2.041 2.041h-13.225a2.04 2.04 0 0 1-2.041-2.041V93.878l4.326-4.326z" class="B W"/><path d="M1215.943 115.51h5.769v2.884h-5.769z"/><g class="B"><path d="M1214.829 83.783c0-1.593 1.291-2.884 2.884-2.884h6.646v2.884h-9.53z" class="X"/><path d="M1217.385 89.552h11.537v4.326a5.77 5.77 0 0 1-5.769 5.769 5.77 5.77 0 0 1-5.769-5.769v-4.326z" fill="#f4d345"/><path d="M1218.827 83.783c0-1.147.456-2.248 1.267-3.059s1.912-1.267 3.059-1.267 2.248.456 3.059 1.267 1.267 1.912 1.267 3.059v5.769h-8.653v-5.769z"/><path d="M1226.507 88.254l-.324-2.884 8.261 8.261a5.77 5.77 0 0 1 1.69 4.079v9.148c0 2.39-1.937 4.326-4.326 4.326v-14.44c0-.924-.3-1.824-.854-2.563l-4.445-5.927zm-6.707 0l.324-2.884-8.261 8.261a5.77 5.77 0 0 0-1.69 4.079v9.148c0 2.39 1.937 4.326 4.326 4.326v-14.44c0-.924.3-1.824.854-2.563l4.445-5.927z"/></g><rect x="1239.108" y="120.776" width="15.723" height="3.963" rx="1.981" transform="matrix(-1 0 0 -1 2493.939 245.515)" class="L"/><use href="#AE"/><path d="M1244.583 107.071h4.773l2.387 2.735v10.459c0 .622-.504 1.126-1.126 1.126h-7.295c-.622 0-1.126-.504-1.126-1.126v-10.808l2.387-2.387z" class="B W"/><path d="M1242.991 121.391h3.182v1.591h-3.182z"/><g class="B"><path d="M1242.377 103.888a1.59 1.59 0 0 1 1.591-1.591h3.666v1.591h-5.257z" class="X"/><path d="M1243.787 107.071h6.364v2.387c0 1.757-1.425 3.182-3.182 3.182s-3.182-1.425-3.182-3.182v-2.387z" class="L"/><path d="M1244.583 103.888c0-.633.251-1.24.699-1.688s1.055-.699 1.688-.699 1.24.251 1.688.699.699 1.055.699 1.688v3.182h-4.773v-3.182z"/><use href="#AF"/><use href="#AG"/></g><rect x="1198.337" y="120.776" width="15.723" height="3.963" rx="1.981" class="L"/><path d="M1202.221 121.391h3.182v1.591h-3.182z"/><path d="M1208.585,107.071h-4.773l-2.387,2.735v10.459c0,.622.504,1.126,1.126,1.126h7.295c.622,0,1.126-.504,1.126-1.126v-10.808l-2.387-2.387Z" class="B W"/><path d="M1206.994 121.391h3.182v1.591h-3.182z"/><g class="B"><path d="M1210.791 103.888a1.59 1.59 0 0 0-1.591-1.591h-3.666v1.591h5.257z" class="X"/><path d="M1209.381,107.071h-6.364v2.387c0,1.757,1.425,3.182,3.182,3.182s3.182-1.425,3.182-3.182v-2.387Z" class="L"/><path d="M1208.585 103.888c0-.633-.251-1.24-.699-1.688s-1.055-.699-1.688-.699-1.24.251-1.688.699-.699 1.055-.699 1.688v3.182h4.773v-3.182z"/><path d="M1204.349 106.355l.179-1.591-4.557 4.557a3.18 3.18 0 0 0-.932 2.25v5.046a2.39 2.39 0 0 0 2.387 2.387v-7.966c0-.51.165-1.006.471-1.414l2.452-3.27zm3.7 0l-.179-1.591 4.557 4.557a3.18 3.18 0 0 1 .932 2.25v5.046a2.39 2.39 0 0 1-2.387 2.387v-7.966c0-.51-.165-1.006-.471-1.414l-2.452-3.27z"/></g><rect x="1178.407" y="129.013" width="17.35" height="4.373" rx="2.186" class="L"/><g class="B Y"><path d="M1183.472 111.825a3.01 3.01 0 0 1 3.009-3.009 3.01 3.01 0 0 1 3.008 3.008v3.008h-6.017v-3.008z"/><path d="M1188.887 113.63h-4.813l-1.377 2.064c-.672 1.008-1.03 2.193-1.03 3.404v9.093l-.824.824a.93.93 0 0 0-.201 1.011c.143.347.481.572.857.572h5.341a5.66 5.66 0 0 0 4.001-1.657c1.06-1.061 1.657-2.501 1.657-4.001v-4.852a6.87 6.87 0 0 0-2.013-4.86l-1.597-1.597z"/></g><g clip-path="url(#K)" class="B"><path d="M1185.277 117.463a3.11 3.11 0 0 1 .911-2.2c.582-.582 1.374-.911 2.199-.911h5.314v16.005h-5.314c-.824 0-1.616-.329-2.199-.911a3.11 3.11 0 0 1-.911-2.2v-9.783z" fill="#b3b3b3"/></g><g class="B"><path d="M1184.074 116.759l3.416 5.695a1.36 1.36 0 0 1 .194.697v2.067c0 .31-.123.606-.342.825a1.17 1.17 0 0 1-.826.342h-1.239l-1.203-9.627z" class="Y"/><path d="M1189.489 111.421c0-1.438-1.166-2.604-2.604-2.604h-.809a2.6 2.6 0 0 0-2.604 2.604v3.292c0 .033.012.063.035.085s.053.035.085.035h.632a.75.75 0 0 0 .752-.752v-2.256c0-.83.674-1.504 1.504-1.504.398 0 .781.159 1.064.44s.44.664.44 1.064v1.805h1.504v-2.209z"/><path d="M1192.497 113.63c0-1.33-1.078-2.407-2.407-2.407h-1.805v2.407h4.212z"/></g><path d="M1184.074 130.598h6.017v1.203h-6.017z"/><rect x="1258.651" y="129.013" width="17.35" height="4.373" rx="2.186" transform="matrix(-1 0 0 -1 2534.652 262.399)" class="L"/><g class="B Y"><path d="M1270.936 111.825a3.01 3.01 0 0 0-3.009-3.009 3.01 3.01 0 0 0-3.008 3.008v3.008h6.017v-3.008z"/><path d="M1265.521 113.63h4.813l1.377 2.064c.672 1.008 1.03 2.193 1.03 3.404v9.093l.824.824a.93.93 0 0 1 .201 1.011c-.143.347-.481.572-.857.572h-5.341a5.66 5.66 0 0 1-4.001-1.657c-1.06-1.061-1.657-2.501-1.657-4.001v-4.852a6.87 6.87 0 0 1 2.013-4.86l1.597-1.597z"/></g><g clip-path="url(#L)" class="B"><path d="M1269.131 117.463a3.11 3.11 0 0 0-.911-2.2c-.582-.582-1.374-.911-2.199-.911h-5.314v16.005h5.314c.824 0 1.616-.329 2.199-.911a3.11 3.11 0 0 0 .911-2.2v-9.783z" fill="#b3b3b3"/></g><g class="B"><path d="M1270.335 116.759l-3.416 5.695a1.36 1.36 0 0 0-.194.697v2.067c0 .31.123.606.342.825a1.17 1.17 0 0 0 .826.342h1.239l1.203-9.627z" class="Y"/><path d="M1264.919 111.421c0-1.438 1.166-2.604 2.604-2.604h.809a2.6 2.6 0 0 1 2.604 2.604v3.292c0 .033-.012.063-.035.085s-.053.035-.085.035h-.632a.75.75 0 0 1-.752-.752v-2.256c0-.83-.674-1.504-1.504-1.504-.398 0-.781.159-1.064.44s-.44.664-.44 1.064v1.805h-1.504v-2.209z"/><path d="M1261.911,113.63c0-1.33,1.078-2.407,2.407-2.407h1.805v2.407h-4.212Z"/></g><path d="M1264.318 130.598h6.017v1.203h-6.017z"/><path d="M844.213 131.946a3.19 3.19 0 0 1 2.695-1.488c1.089 0 2.102.561 2.695 1.488l17.615 27.726c0 8.225-9.098 14.909-20.31 14.909s-20.31-6.684-20.31-14.909l17.615-27.726z" class="B F"/><g clip-path="url(#M)" class="B Q"><path d="M844.946 119.657a3.16 3.16 0 0 1 2.415-1.11 3.16 3.16 0 0 1 2.415 1.11c5.379 6.274 17.895 21.679 17.895 29.203 0 8.236-9.098 14.92-20.31 14.92s-20.321-6.684-20.321-14.92c0-7.524 12.516-22.929 17.906-29.203z" class="R"/></g><path d="M844.676 125.575c.593-.906 1.596-1.455 2.684-1.455 1.078 0 2.091.55 2.673 1.455l14.381 22.272c0 6.802-7.643 12.332-17.054 12.332-9.422 0-17.065-5.53-17.065-12.332l14.381-22.272z" class="B D"/><g clip-path="url(#N)" class="B"><path d="M844.957,111.529c.604-.701,1.477-1.1,2.404-1.1.916,0,1.8.399,2.404,1.1,4.7,5.433,14.65,17.658,14.65,23.705,0,6.813-7.643,12.332-17.054,12.332-9.422,0-17.065-5.519-17.065-12.332,0-6.048,9.95-18.272,14.661-23.705Z" class="N c"/><path d="M844.676 106.624c.571-.927 1.585-1.488 2.684-1.488a3.17 3.17 0 0 1 2.684 1.488c4.808 7.374 14.37 23.026 14.37 30.863 0 8.98-7.643 16.278-17.054 16.278-9.422 0-17.065-7.298-17.065-16.278 0-7.837 9.573-23.49 14.381-30.863z" class="O"/><g class="D"><path d="M856.556 146.133a1.81 1.81 0 0 1 .658-2.469c.862-.496 1.962-.194 2.458.658l1.8 3.126c.507.862.205 1.962-.658 2.458s-1.962.205-2.458-.658l-1.8-3.115zm-21.862-2.415c.507-.852 1.606-1.153 2.469-.658a1.81 1.81 0 0 1 .658 2.469l-1.563 2.695a1.8 1.8 0 0 1-2.458.658 1.8 1.8 0 0 1-.658-2.458l1.552-2.706z"/></g></g><path d="M844.386 118.881c.56-.841 1.509-1.348 2.522-1.348s1.962.507 2.522 1.348l10.586 15.901c0 2.954-1.994 5.584-5.099 7.266-2.21 1.197-4.991 1.919-8.01 1.919-7.233 0-13.109-4.118-13.109-9.185l10.586-15.901z" class="B D"/><g clip-path="url(#O)"><g class="e"><rect x="835.6" y="115.14" width="22.961" height="23.188" rx="11.351" opacity=".55"/><g class="B"><path d="M846.326 126.437a1.8 1.8 0 1 1 3.472-.971l.151.518a1.82 1.82 0 0 1-1.25 2.221 1.8 1.8 0 0 1-2.221-1.251l-.151-.517z"/></g></g><g class="f B"><path d="M850.519 130.415a1.81 1.81 0 0 1 .862-2.404c.895-.42 1.973-.043 2.393.862l.776 1.628c.42.895.043 1.973-.862 2.393a1.79 1.79 0 0 1-2.393-.852l-.776-1.628zm-5.918 2.738c0-.992.809-1.8 1.811-1.8.992 0 1.8.809 1.8 1.8v1.8c0 1.003-.809 1.811-1.8 1.811a1.81 1.81 0 0 1-1.811-1.811v-1.8zm-3.622-6.058a1.8 1.8 0 0 1 2.458-.658c.862.507 1.153 1.606.658 2.469l-.905 1.552c-.507.862-1.606 1.154-2.469.658a1.81 1.81 0 0 1-.647-2.469l.905-1.552z"/></g></g><g class="B"><g class="D"><path d="M849.161 143.826c0-1.002-.809-1.8-1.8-1.8s-1.8.798-1.8 1.8v.14c0 .992.809 1.8 1.8 1.8s1.8-.809 1.8-1.8v-.14zm9.573-4.388c-.377-.927-1.434-1.369-2.35-.992-.927.366-1.369 1.423-.992 2.339l.054.14c.377.916 1.423 1.358 2.35.992a1.82 1.82 0 0 0 .992-2.35l-.054-.129zm-23.339-.021c.377-.916 1.434-1.369 2.35-.992a1.8 1.8 0 0 1 .992 2.35l-.054.129c-.377.916-1.423 1.369-2.339.992a1.8 1.8 0 0 1-.992-2.35l.043-.129zm26.001-4.409a1.81 1.81 0 0 0-2.49-.55 1.8 1.8 0 0 0-.539 2.49l.075.119a1.81 1.81 0 0 0 2.49.55 1.81 1.81 0 0 0 .539-2.49l-.076-.119zm-28.664-.022c.539-.841 1.649-1.078 2.49-.539.841.528 1.078 1.649.539 2.479l-.076.129c-.539.83-1.649 1.078-2.49.539-.83-.539-1.078-1.649-.539-2.49l.075-.119zm21.992 7.503c-.162-.981-1.089-1.649-2.07-1.488s-1.639 1.089-1.477 2.07l.022.14c.162.981 1.089 1.649 2.07 1.488a1.79 1.79 0 0 0 1.477-2.07l-.022-.14zm-15.319-.022c.162-.981 1.089-1.649 2.07-1.488a1.8 1.8 0 0 1 1.477 2.081l-.022.14c-.162.981-1.089 1.639-2.07 1.477s-1.639-1.089-1.477-2.07l.022-.14z"/></g><path d="M1400.896 145.528a3.37 3.37 0 0 1 2.847-1.571c1.15 0 2.22.592 2.847 1.571l18.605 29.285c0 8.688-9.61 15.747-21.451 15.747s-21.451-7.059-21.451-15.747l18.605-29.285z" class="F"/></g><g clip-path="url(#P)" class="B Q"><path d="M1401.671 132.548c.638-.752 1.571-1.173 2.551-1.173s1.913.421 2.55 1.173c5.682 6.627 18.901 22.897 18.901 30.845 0 8.699-9.61 15.758-21.451 15.758s-21.463-7.059-21.463-15.758c0-7.947 13.219-24.218 18.912-30.845z" class="R"/></g><path d="M1401.386 138.799a3.38 3.38 0 0 1 2.835-1.537c1.139 0 2.209.581 2.824 1.537l15.189 23.523c0 7.185-8.073 13.026-18.013 13.026-9.952 0-18.024-5.841-18.024-13.026l15.189-23.523z" class="B D"/><g clip-path="url(#Q)" class="B"><path d="M1401.682 123.963a3.34 3.34 0 0 1 2.539-1.161 3.36 3.36 0 0 1 2.539 1.161c4.964 5.739 15.474 18.65 15.474 25.038 0 7.196-8.073 13.026-18.013 13.026-9.952 0-18.024-5.83-18.024-13.026 0-6.388 10.509-19.299 15.485-25.038z" class="N c"/><use href="#AH" class="O"/></g><path d="M1401.079 131.728c.592-.888 1.594-1.423 2.664-1.423s2.072.535 2.664 1.423l11.181 16.794c0 3.12-2.107 5.898-5.386 7.674-2.334 1.264-5.272 2.027-8.46 2.027-7.64 0-13.845-4.349-13.845-9.701l11.181-16.794z" class="B D"/><g clip-path="url(#R)"><g class="e"><path d="M1403.788 127.777h.273a12 12 0 0 1 11.99 11.99v.512c0 6.617-5.372 11.989-11.989 11.989h-.273a12 12 0 0 1-11.99-11.99v-.512a12 12 0 0 1 11.99-11.99z" opacity=".55"/><g class="B"><path d="M1403.128 139.71a1.9 1.9 0 1 1 3.666-1.024l.159.547a1.92 1.92 0 0 1-1.321 2.345c-1.013.285-2.061-.307-2.346-1.321l-.159-.547z"/></g></g><g class="f B"><path d="M1407.557 143.912a1.91 1.91 0 0 1 .911-2.539c.945-.444 2.084-.046 2.528.911l.82 1.719c.444.945.046 2.084-.911 2.528-.945.455-2.084.046-2.528-.899l-.82-1.719zm-6.251 2.891c0-1.047.854-1.901 1.913-1.901 1.047 0 1.901.854 1.901 1.901v1.902c0 1.059-.854 1.913-1.901 1.913a1.91 1.91 0 0 1-1.913-1.913v-1.902zm-3.825-6.398c.524-.911 1.697-1.218 2.596-.695.911.535 1.218 1.697.695 2.607l-.956 1.64c-.535.911-1.697 1.218-2.607.695-.9-.535-1.218-1.697-.683-2.607l.956-1.64z"/></g></g><g clip-path="url(#S)" class="B O"><path d="M1329.444 145.071a3.32 3.32 0 0 1 2.835-1.571 3.35 3.35 0 0 1 2.835 1.571c5.078 7.788 15.178 24.321 15.178 32.598 0 9.485-8.073 17.193-18.013 17.193-9.952 0-18.024-7.708-18.024-17.193 0-8.278 10.111-24.81 15.189-32.598z"/></g><g clip-path="url(#T)" class="B O"><path d="M1274.246 145.071a3.32 3.32 0 0 1 2.835-1.571 3.35 3.35 0 0 1 2.835 1.571c5.078 7.788 15.178 24.321 15.178 32.598 0 9.485-8.073 17.193-18.013 17.193-9.952 0-18.024-7.708-18.024-17.193 0-8.278 10.111-24.81 15.189-32.598z"/></g><rect x="466.048" y="36.873" width="50.682" height="28.376" rx="7.426" class="V"/><g class="C"><path d="M473.474 36.873h35.83a7.43 7.43 0 0 1 7.426 7.426v13.524c0 4.099-3.328 7.427-7.427 7.427h-35.829a7.43 7.43 0 0 1-7.426-7.426V44.3a7.43 7.43 0 0 1 7.426-7.426z" stroke-dasharray="0 9.688" class="H I K M"/><g stroke="#9f7049" stroke-miterlimit="1.5" stroke-width="3.23"><path d="M471.516 26.189v6.735a4.61 4.61 0 0 0 4.607 4.607h5.667m32.138 1.891v2.954a4.61 4.61 0 0 1-4.607 4.607h-7.558"/></g></g><g class="B"><path d="M505.544 33.751h-28.121v13.564c0 1.007-.359 1.981-1.013 2.746l-4.652 5.447a1.82 1.82 0 0 0-.141 2.179c.442.677 1.277.983 2.051.751l10.457-3.137a3.32 3.32 0 0 1 3.829 1.518l2.603 4.5c.197.34.562.547.954.541s.751-.223.938-.569l2.317-4.29c.766-1.419 2.442-2.083 3.973-1.573l9.327 3.109c.739.246 1.552-.004 2.025-.623s.5-1.47.068-2.118l-3.905-5.857a4.23 4.23 0 0 1-.71-2.346V33.75z" fill="#9f7049"/><path d="M505.544 33.278h-28.121v12.183a1.05 1.05 0 0 0 1.051 1.05h1.208a1.05 1.05 0 0 0 1.05-1.05v-2.025a1.89 1.89 0 0 1 1.887-1.887h3.525c.735 0 1.402.426 1.711 1.092l2.271 4.891c.179.387.567.634.993.634h3.405a1.09 1.09 0 0 0 .774-.321c.205-.205.321-.484.321-.774v-.894a1.32 1.32 0 0 1 1.319-1.319h3.097a1.32 1.32 0 0 1 .933.386l.973.973c.189.189.444.294.711.294h1.48c.374 0 .734-.149.998-.413a1.41 1.41 0 0 0 .413-.998V33.278z" fill="#e5f3f6"/><path d="M505.544 31.792c0-.483-.192-.947-.534-1.289a1.82 1.82 0 0 0-1.289-.534h-24.476c-.483 0-.947.192-1.289.534a1.82 1.82 0 0 0-.534 1.289V37.6c0 .483.192.947.534 1.289a1.82 1.82 0 0 0 1.289.534h24.476c.483 0 .947-.192 1.289-.534a1.82 1.82 0 0 0 .534-1.289v-5.808z" fill="#d2edea"/></g><g clip-path="url(#U)"><rect x="482.858" y="31.861" width="17.014" height="5.671" rx="1.822" fill="#d2edea"/></g><g class="B"><g fill="#dff4f4"><path d="M518.777 40.366c0-.752-.299-1.472-.83-2.004a2.83 2.83 0 0 0-2.004-.83h-5.675c-.752 0-1.472.299-2.004.83a2.83 2.83 0 0 0-.83 2.004v.004c0 .752.299 1.472.83 2.004a2.83 2.83 0 0 0 2.004.83h5.675c.752 0 1.472-.299 2.004-.83a2.83 2.83 0 0 0 .83-2.004v-.004zm-41.59-13.233c0-.752-.299-1.472-.83-2.004a2.83 2.83 0 0 0-2.004-.83h-5.675a2.83 2.83 0 0 0-2.004.83c-.531.531-.83 1.252-.83 2.004v.004c0 .752.299 1.472.83 2.004a2.83 2.83 0 0 0 2.004.83h5.675c.752 0 1.472-.299 2.004-.83a2.83 2.83 0 0 0 .83-2.004v-.004z"/><use href="#AI"/><path d="M479.077 43.201c0-.752-.299-1.472-.83-2.004s-1.252-.83-2.004-.83h-5.675c-.752 0-1.472.299-2.004.83s-.83 1.252-.83 2.004v.004c0 .752.299 1.472.83 2.004s1.252.83 2.004.83h5.675c.752 0 1.472-.299 2.004-.83s.83-1.252.83-2.004v-.004z"/></g><g class="G"><use href="#AJ"/><path d="M1139.795 111.659a3.14 3.14 0 0 0-3.14-3.14h-8.164a3.14 3.14 0 0 0 0 6.28h8.164a3.14 3.14 0 0 0 3.14-3.14z"/></g></g><rect x="1048.737" y="95.96" width="10.676" height="3.768" rx="1.881" class="G"/><rect x="1111.536" y="87.168" width="10.676" height="3.768" rx="1.881" class="G"/><g class="B G"><use href="#AK"/><path d="M137.252 79.668a3.77 3.77 0 0 0-3.768-3.768h-10.048a3.77 3.77 0 0 0-3.768 3.768 3.77 3.77 0 0 0 3.768 3.768h10.048a3.77 3.77 0 0 0 3.768-3.768zm37.052 53.379a3.14 3.14 0 0 0-3.14-3.14H163a3.14 3.14 0 1 0 0 6.28h8.164a3.14 3.14 0 0 0 3.14-3.14z"/></g><rect x="83.245" y="117.347" width="10.676" height="3.768" rx="1.881" class="G"/><rect x="146.044" y="108.555" width="10.676" height="3.768" rx="1.881" class="G"/><g class="B"><path d="M48.078 136.129a3.71 3.71 0 0 0-3.71-3.71h-.116a3.71 3.71 0 0 0-3.71 3.71v.06a3.77 3.77 0 0 0 1.103 2.663c.706.706 1.664 1.103 2.663 1.103h.005a3.77 3.77 0 0 0 2.663-1.103c.706-.706 1.103-1.664 1.103-2.663v-.06z" class="G"/><g class="P"><path d="M1377.466 93.306a3.77 3.77 0 0 0 3.768 3.768h10.048a3.77 3.77 0 0 0 3.768-3.768 3.77 3.77 0 0 0-3.768-3.768h-10.048a3.77 3.77 0 0 0-3.768 3.768zm-37.052-53.38a3.14 3.14 0 0 0 3.14 3.14h8.164a3.14 3.14 0 1 0 0-6.28h-8.164a3.14 3.14 0 0 0-3.14 3.14z"/></g></g><rect x="1420.797" y="51.858" width="10.676" height="3.768" rx="1.881" class="P"/><rect x="1357.998" y="60.65" width="10.676" height="3.768" rx="1.881" class="P"/><path d="M1466.641 36.844a3.71 3.71 0 0 0 3.71 3.71h.116a3.71 3.71 0 0 0 3.71-3.71v-.06a3.77 3.77 0 0 0-1.103-2.663c-.706-.706-1.664-1.103-2.663-1.103h-.005a3.77 3.77 0 0 0-2.663 1.103c-.706.706-1.103 1.664-1.103 2.663v.06z" class="B P"/><g class="S"><path d="M567.829 52.545c-.653 0-1.268-.4-1.51-1.047-.313-.835.111-1.764.944-2.077l8.5-3.186c.833-.314 1.764.111 2.077.944s-.111 1.764-.944 2.077l-8.5 3.186c-.186.07-.378.103-.566.103z"/><path d="M580.732 50.57a1.6 1.6 0 0 1-.419-.056l-5.959-1.599 1.593-5.962a1.61 1.61 0 0 1 1.975-1.142c.861.23 1.372 1.114 1.142 1.975l-.761 2.85 2.846.764c.86.23 1.37 1.116 1.139 1.976-.193.72-.844 1.195-1.556 1.195z"/></g><path d="M569.457 49.57c-.968-3.461-4.113-5.856-7.71-5.856h-10.419c-3.597 0-6.742 2.395-7.71 5.856l-2.08 7.485a12.4 12.4 0 0 0 2.08 10.803c2.339 3.079 5.984 4.887 9.855 4.887h6.129c3.871 0 7.516-1.808 9.855-4.887 2.355-3.081 3.113-7.077 2.081-10.803l-2.081-7.485z" class="B D"/><path d="M545.248 52.545c-.188 0-.38-.033-.566-.103l-8.5-3.186c-.833-.313-1.257-1.242-.944-2.077s1.244-1.26 2.077-.944l8.5 3.186c.833.313 1.257 1.242.944 2.077-.243.647-.858 1.047-1.51 1.047z" class="S"/><circle cx="556.538" cy="31.617" r="10.484" class="D"/><path d="M532.344 50.57c-.712 0-1.364-.476-1.556-1.195-.231-.861.279-1.746 1.139-1.976l2.847-.764-.761-2.85c-.23-.86.281-1.745 1.142-1.975s1.745.281 1.975 1.142l1.593 5.962-5.96 1.599c-.141.038-.281.056-.419.056z" class="S"/><path d="M550.087 27.585h3.226v4.839h-3.226zm9.677 0h3.226v4.839h-3.226z"/><g fill="#d8484a"><path d="M567.215 41.388c0-.666-.258-1.306-.726-1.777-.484-.471-1.113-.735-1.79-.735h-16.322c-.661 0-1.307.265-1.774.735-.484.471-.742 1.111-.742 1.777v1.426a2.47 2.47 0 0 0 .742 1.777 2.51 2.51 0 0 0 1.774.735h16.322a2.55 2.55 0 0 0 1.79-.735 2.52 2.52 0 0 0 .726-1.777v-1.426z" class="B"/><path d="M550.087 44.325h6.452v10.678h-6.452z"/><path d="M550.087 47.551h1.613v10.678h-1.613zm4.838 0h1.613v10.678h-1.613z"/></g><path d="M561.877,37.262h-5.338c-.891,0-1.613-.722-1.613-1.613s.722-1.613,1.613-1.613h5.338c.891,0,1.613.722,1.613,1.613s-.722,1.613-1.613,1.613Z" fill="#da793c"/><path d="M571.387 67.693a2.97 2.97 0 0 0-2.97 2.97 2.97 2.97 0 0 0-2.969-2.97 2.97 2.97 0 0 0-2.97 2.97 2.97 2.97 0 1 0-5.94 0v-.005a2.97 2.97 0 1 0-5.94 0 2.97 2.97 0 0 0-2.97-2.97 2.97 2.97 0 0 0-2.969 2.97 2.97 2.97 0 1 0-5.94 0v2.964h17.817v.005h17.817v-2.964a2.97 2.97 0 0 0-2.97-2.97z" class="B G"/></g></svg>