<svg xmlns="http://www.w3.org/2000/svg" width="1500" height="145" xmlns:v="https://vecta.io/nano"><style><![CDATA[.B{fill-rule:evenodd}.C{fill:#839d24}.D{fill:none}.E{opacity:.5}.F{fill:#4d7c3d}.G{clip-rule:evenodd}.H{fill:#bdd033}.I{opacity:.75}.J{fill:#abc02e}.K{stroke-linecap:round}.L{stroke-linejoin:round}.M{stroke-width:10}.N{fill:#8b40ce}.O{fill:#de8521}.P{fill:#6b4c46}.Q{fill:#594237}.R{fill:#d6e23d}.S{stroke-dasharray:0 10}.T{fill:#66c24c}.U{stroke:#66c24c}.V{fill:#e59f46}.W{fill:#d13c9b}.X{fill:#f9e840}.Y{fill:#efe44c}]]></style><defs><clipPath id="A"><path d="M0 0h1500v145H0z" class="D"/></clipPath><clipPath id="B"><path d="M651.335-.998h17.96l4.867 44.413c.27 2.461-1.66 4.612-4.138 4.612h-19.507a4.16 4.16 0 0 1-4.137-4.62l4.954-44.405z" class="D"/></clipPath><clipPath id="C"><path d="M660.271-2.612a23.94 23.94 0 0 1-7.02 16.935 23.98 23.98 0 0 1-16.952 7.014h-24.11V5.504a23.94 23.94 0 0 1 7.02-16.938c4.496-4.489 10.593-7.014 16.952-7.014h24.11v15.836z" class="D G"/></clipPath><clipPath id="D"><path d="M660.271-2.612a23.94 23.94 0 0 0 7.02 16.935 23.98 23.98 0 0 0 16.952 7.014h24.11V5.504a23.94 23.94 0 0 0-7.02-16.938c-4.496-4.489-10.593-7.014-16.952-7.014h-24.11v15.836z" class="D G"/></clipPath><clipPath id="E"><path d="M660.258 21.336l14.401-10.486c7.954-5.792 8.853-17.312 1.894-24.265l-5.037-5.033h-22.514l-5.038 5.033c-6.959 6.954-6.06 18.473 1.894 24.265l14.401 10.486z" class="D G"/></clipPath><clipPath id="F"><path d="M723.631 44.391h13.366l3.622 33.052c.201 1.832-1.235 3.432-3.079 3.432h-14.517c-1.847 0-3.283-1.604-3.079-3.438l3.687-33.046z" class="D"/></clipPath><clipPath id="G"><path d="M730.28 43.19a17.82 17.82 0 0 1-5.224 12.603c-3.346 3.343-7.883 5.22-12.615 5.22h-17.942V49.231a17.82 17.82 0 0 1 5.224-12.605c3.346-3.341 7.883-5.22 12.615-5.22h17.942v11.785z" class="D G"/></clipPath><clipPath id="H"><path d="M730.28 43.19a17.82 17.82 0 0 0 5.224 12.603c3.346 3.343 7.883 5.22 12.615 5.22h17.942V49.231a17.82 17.82 0 0 0-5.224-12.605c-3.346-3.341-7.883-5.22-12.615-5.22H730.28v11.785z" class="D G"/></clipPath><clipPath id="I"><path d="M730.271 61.013l10.717-7.803c5.919-4.31 6.588-12.883 1.409-18.058l-3.749-3.746h-16.755l-3.749 3.746c-5.179 5.175-4.51 13.748 1.409 18.058l10.717 7.803z" class="D G"/></clipPath><clipPath id="J"><path d="M1154.55 134.039h19.482l5.28 48.175c.293 2.67-1.8 5.002-4.488 5.002h-21.16c-2.692 0-4.786-2.338-4.487-5.011l5.374-48.166z" class="D"/></clipPath><clipPath id="K"><path d="M1164.243 132.289c0 6.888-2.738 13.497-7.615 18.369s-11.49 7.608-18.388 7.608h-26.152v-17.174c0-6.892 2.738-13.5 7.615-18.372s11.49-7.608 18.388-7.608h26.152v17.177z" class="D G"/></clipPath><clipPath id="L"><path d="M1164.243 132.289c0 6.888 2.738 13.497 7.615 18.369s11.49 7.608 18.388 7.608h26.152v-17.174c0-6.892-2.738-13.5-7.615-18.372s-11.49-7.608-18.388-7.608h-26.152v17.177z" class="D G"/></clipPath><clipPath id="M"><path d="M1164.229 158.266l15.621-11.374c8.628-6.282 9.603-18.778 2.054-26.321l-5.464-5.46h-24.421l-5.464 5.46c-7.549 7.543-6.574 20.038 2.054 26.321l15.621 11.374z" class="D G"/></clipPath><clipPath id="N"><path d="M179.792 13.993h19.482l5.28 48.175c.293 2.67-1.8 5.002-4.488 5.002h-21.16c-2.692 0-4.786-2.338-4.487-5.011l5.374-48.166z" class="D"/></clipPath><clipPath id="O"><path d="M189.484 12.243c0 6.888-2.738 13.497-7.615 18.369s-11.49 7.608-18.388 7.608h-26.152V21.046c0-6.892 2.738-13.5 7.615-18.372s11.49-7.608 18.388-7.608h26.152v17.177z" class="D G"/></clipPath><clipPath id="P"><path d="M189.484 12.243c0 6.888 2.738 13.497 7.615 18.369s11.49 7.608 18.388 7.608h26.152V21.046c0-6.892-2.738-13.5-7.615-18.372s-11.49-7.608-18.388-7.608h-26.152v17.177z" class="D G"/></clipPath><clipPath id="Q"><path d="M189.47 38.22l15.621-11.374c8.628-6.282 9.603-18.778 2.054-26.321l-5.464-5.46H177.26l-5.464 5.46c-7.549 7.543-6.574 20.038 2.054 26.321l15.621 11.374z" class="D G"/></clipPath><clipPath id="R"><path d="M1326.032 263.703c-1.906 0-3.725-.8-5.012-2.206s-1.923-3.287-1.754-5.184l25.527-285.872c.498-5.579 5.174-9.821 10.78-9.821h23.439c5.63 0 10.321 4.312 10.788 9.918l4.586 54.98h16.672c3.052 0 5.835 1.71 7.199 4.437l7.538 15.064a11.5 11.5 0 0 1 1.199 4.512l5.281 94.968 29.498 8.421c4.972 1.419 8.392 5.957 8.392 11.123v92.873c0 1.8-.716 3.526-1.99 4.799s-3.001 1.988-4.803 1.988h-137.34z" class="D G"/></clipPath><clipPath id="S"><path d="M116.205-290v81.7c0 10.62-8.609 19.23-19.23 19.23h0c-10.62 0-19.23 8.609-19.23 19.23v46.805c0 10.62 8.609 19.23 19.23 19.23h162.079c20.145 0 36.476 16.331 36.476 36.476V-.42c0 10.62 8.609 19.23 19.23 19.23h106.736c10.62 0 19.23-8.609 19.23-19.23v-56.431c0-10.62 8.609-19.23 19.23-19.23h8.696c10.62 0 19.23-8.609 19.23-19.23v-128.764c0-10.62-8.609-19.23-19.23-19.23h-44.918c-10.62 0-19.23-8.609-19.23-19.23v-132.384c0-10.62-8.609-19.23-19.23-19.23h-69.667c-10.62 0-19.23 8.609-19.23 19.23v66.458c0 10.62-8.609 19.23-19.23 19.23H135.434c-10.62 0-19.23 8.609-19.23 19.23z" class="D"/></clipPath><clipPath id="T"><path d="M768.459 158.458l-44.316-39.232h-2.913l-44.316 39.232v36.297a3.21 3.21 0 0 0 .942 2.273c.606.605 1.424.944 2.278.944h85.105c.854 0 1.672-.339 2.278-.944s.942-1.42.942-2.273v-36.297z" class="D G"/></clipPath><clipPath id="U"><path d="M802.342 125.602h19.482l5.28 48.175c.293 2.67-1.8 5.002-4.488 5.002h-21.16c-2.692 0-4.786-2.338-4.487-5.011l5.374-48.166z" class="D"/></clipPath><clipPath id="V"><path d="M812.034 123.851c0 6.888-2.738 13.497-7.615 18.369s-11.49 7.608-18.388 7.608h-26.152v-17.174c0-6.892 2.738-13.5 7.615-18.372s11.49-7.608 18.388-7.608h26.152v17.177z" class="D G"/></clipPath><clipPath id="W"><path d="M812.034 123.851c0 6.888 2.738 13.497 7.615 18.369s11.49 7.608 18.388 7.608h26.152v-17.174c0-6.892-2.738-13.5-7.615-18.372s-11.49-7.608-18.388-7.608h-26.152v17.177z" class="D G"/></clipPath><clipPath id="X"><path d="M812.02 149.828l15.621-11.374c8.628-6.282 9.603-18.778 2.054-26.321l-5.464-5.46H799.81l-5.464 5.46c-7.549 7.543-6.574 20.038 2.054 26.321l15.621 11.374z" class="D G"/></clipPath><clipPath id="Y"><path d="M788.773 90.82c-.431-.43-1.017-1.279-1.568-1.156-.768.172-1.441.603-1.995 1.156q-.063.063 0 0c-.151.151.026-.026-.591.591a3.35 3.35 0 0 0-.156 4.575c.082.094.229.093.317.005l1.129-1.128c.937.447 2.089.293 2.864-.482.984-.983.984-2.577 0-3.56z" class="D"/></clipPath><path id="Z" d="M681.579 3.49c.978 0 1.941-.477 2.516-1.355a3 3 0 0 0-.865-4.158l-12.216-8.007c-1.389-.915-3.252-.52-4.159.862a3 3 0 0 0 .865 4.158l12.216 8.007c.509.334 1.08.493 1.643.493z"/><path id="a" d="M638.964 3.49c.563 0 1.135-.158 1.643-.493l12.212-8.007a3 3 0 1 0-3.294-5.02l-12.212 8.007a3 3 0 0 0-.865 4.158c.575.878 1.538 1.355 2.516 1.355z"/><path id="b" d="M746.138 47.731c.728 0 1.444-.355 1.872-1.008a2.23 2.23 0 0 0-.644-3.094l-9.091-5.959c-1.034-.681-2.42-.387-3.095.642a2.23 2.23 0 0 0 .644 3.094l9.091 5.959a2.22 2.22 0 0 0 1.223.367z"/><path id="c" d="M714.424 47.731a2.22 2.22 0 0 0 1.223-.367l9.088-5.959a2.23 2.23 0 0 0-2.451-3.736l-9.088 5.959a2.23 2.23 0 0 0-.644 3.094c.428.653 1.144 1.008 1.872 1.008z"/><path id="d" d="M527.231 61.374a2.56 2.56 0 0 1-2.555-2.561v-8.019c0-1.416 1.144-2.561 2.555-2.561a2.56 2.56 0 0 1 2.555 2.561v8.019c0 1.416-1.144 2.561-2.555 2.561z"/><path id="e" d="M537.9 61.374a2.56 2.56 0 0 1-2.555-2.561v-5.345c0-1.416 1.144-2.561 2.555-2.561a2.56 2.56 0 0 1 2.555 2.561v5.345c0 1.416-1.144 2.561-2.555 2.561z"/><path id="f" d="M566.685 82.54a2.56 2.56 0 0 1-2.555-2.561v-5.348c0-1.416 1.144-2.561 2.555-2.561a2.56 2.56 0 0 1 2.555 2.561v5.348c0 1.416-1.144 2.561-2.555 2.561z"/><path id="g" d="M1154.55 134.039h19.482l5.28 48.175c.293 2.67-1.8 5.002-4.488 5.002h-21.16c-2.692 0-4.786-2.338-4.487-5.011l5.374-48.166z"/><path id="h" d="M1164.229 168.863l15.926-11.596c8.796-6.405 9.791-19.145 2.094-26.835l-5.571-5.566h-24.898l-5.571 5.566c-7.696 7.69-6.702 20.43 2.094 26.835l15.926 11.596z"/><path id="i" d="M1164.243 132.289c0 6.888-2.738 13.497-7.615 18.369s-11.49 7.608-18.388 7.608h-26.152v-17.174c0-6.892 2.738-13.5 7.615-18.372s11.49-7.608 18.388-7.608h26.152v17.177z"/><path id="j" d="M1110.037 155.135l52.126-42.572 4.121 5.046-52.126 42.572z"/><path id="k" d="M1146.858 161.562h6.519v-21.619c0-1.798-1.457-3.254-3.256-3.254h-.007c-1.799 0-3.256 1.456-3.256 3.254v21.619z"/><path id="l" d="M1112.088 140.007v-6.169h9.952c.818 0 1.604.326 2.184.905a3.08 3.08 0 0 1 .903 2.179h0a3.09 3.09 0 0 1-.903 2.182c-.58.58-1.366.902-2.184.902h-9.952z"/><path id="m" d="M1164.243 132.289c0 6.888 2.738 13.497 7.615 18.369s11.49 7.608 18.388 7.608h26.152v-17.174c0-6.892-2.738-13.5-7.615-18.372s-11.49-7.608-18.388-7.608h-26.152v17.177z"/><path id="n" d="M1162.179 117.632l4.118-5.049 52.156 42.536-4.118 5.049z"/><path id="o" d="M1216.398 140.353v-6.514h-9.782c-.864 0-1.692.342-2.301.954a3.24 3.24 0 0 0-.955 2.299v.007c0 .863.342 1.69.955 2.303s1.437.951 2.301.951h9.782z"/><path id="p" d="M1216.398 127.325v-6.514h-19.558a3.27 3.27 0 0 0-2.305.954 3.25 3.25 0 0 0-.955 2.303c0 .863.342 1.694.955 2.303s1.441.954 2.305.954h19.558z"/><path id="q" d="M1187.357 138.907c1.061 0 2.105-.517 2.729-1.469.989-1.505.569-3.524-.938-4.51l-13.251-8.685a3.26 3.26 0 0 0-4.512.935c-.989 1.505-.569 3.524.938 4.51l13.251 8.685a3.23 3.23 0 0 0 1.783.534z"/><path id="r" d="M1141.131 138.907a3.24 3.24 0 0 0 1.783-.534l13.247-8.685c1.507-.986 1.927-3.005.938-4.51-.985-1.499-2.992-1.93-4.512-.935l-13.247 8.685c-1.507.986-1.927 3.005-.938 4.51.624.952 1.668 1.469 2.729 1.469z"/><path id="s" d="M335.399 52.638c1.232 0 2.231-1 2.231-2.236v-7.001c0-1.236-.999-2.236-2.231-2.236s-2.231 1-2.231 2.236v7.001c0 1.236.999 2.236 2.231 2.236z"/><path id="t" d="M343.937 52.638c1.232 0 2.231-1 2.231-2.236v-4.667c0-1.236-.999-2.236-2.231-2.236s-2.231 1-2.231 2.236v4.667c0 1.236.999 2.236 2.231 2.236z"/><path id="u" d="M116.205-290v81.7c0 10.62-8.609 19.23-19.23 19.23h0c-10.62 0-19.23 8.609-19.23 19.23v46.805c0 10.62 8.609 19.23 19.23 19.23h162.079c20.145 0 36.476 16.331 36.476 36.476V-.42c0 10.62 8.609 19.23 19.23 19.23h106.736c10.62 0 19.23-8.609 19.23-19.23v-56.431c0-10.62 8.609-19.23 19.23-19.23h8.696c10.62 0 19.23-8.609 19.23-19.23v-128.764c0-10.62-8.609-19.23-19.23-19.23h-44.918c-10.62 0-19.23-8.609-19.23-19.23v-132.384c0-10.62-8.609-19.23-19.23-19.23h-69.667c-10.62 0-19.23 8.609-19.23 19.23v66.458c0 10.62-8.609 19.23-19.23 19.23H135.434c-10.62 0-19.23 8.609-19.23 19.23z"/><path id="v" d="M428.328 9.706h21.187c1.896 0 3.438 1.542 3.438 3.438v8.147c0 1.896-1.542 3.438-3.438 3.438h-21.187c-1.896 0-3.438-1.542-3.438-3.438v-8.147c0-1.896 1.542-3.438 3.438-3.438zm21.187 13.108c.84 0 1.523-.683 1.523-1.523v-8.147c0-.84-.683-1.523-1.523-1.523h-21.187c-.84 0-1.523.683-1.523 1.523v8.147c0 .84.683 1.523 1.523 1.523h21.187z"/><path id="w" d="M454.503 9.706h21.187c1.896 0 3.438 1.542 3.438 3.438v8.147c0 1.896-1.542 3.438-3.438 3.438h-21.187c-1.896 0-3.438-1.542-3.438-3.438v-8.147c0-1.896 1.542-3.438 3.438-3.438zm21.188 13.108c.84 0 1.523-.683 1.523-1.523v-8.147c0-.84-.683-1.523-1.523-1.523h-21.187c-.84 0-1.523.683-1.523 1.523v8.147c0 .84.683 1.523 1.523 1.523h21.187z"/><path id="x" d="M480.651 9.706h21.187c1.896 0 3.438 1.542 3.438 3.438v8.147c0 1.896-1.542 3.438-3.438 3.438h-21.187c-1.895 0-3.437-1.542-3.437-3.438v-8.147c0-1.896 1.542-3.438 3.437-3.438zm21.188 13.108c.84 0 1.523-.683 1.523-1.523v-8.147c0-.84-.683-1.523-1.523-1.523h-21.187c-.84 0-1.523.683-1.523 1.523v8.147c0 .84.683 1.523 1.523 1.523h21.187z"/><path id="y" d="M441.447 22.814h21.187c1.895 0 3.437 1.542 3.437 3.438v8.147c0 1.896-1.542 3.438-3.437 3.438h-21.187c-1.896 0-3.438-1.542-3.438-3.438v-8.147c0-1.896 1.542-3.438 3.438-3.438zm21.187 13.108c.84 0 1.523-.683 1.523-1.523v-8.147c0-.84-.683-1.523-1.523-1.523h-21.187c-.84 0-1.523.683-1.523 1.523v8.147c0 .84.683 1.523 1.523 1.523h21.187z"/><path id="z" d="M493.747 22.814h21.187c1.896 0 3.438 1.542 3.438 3.438v8.147c0 1.896-1.542 3.438-3.438 3.438h-21.187c-1.895 0-3.437-1.542-3.437-3.438v-8.147c0-1.896 1.542-3.438 3.437-3.438zm21.187 13.108c.84 0 1.523-.683 1.523-1.523v-8.147c0-.84-.683-1.523-1.523-1.523h-21.187c-.84 0-1.523.683-1.523 1.523v8.147c0 .84.683 1.523 1.523 1.523h21.187z"/><path id="AA" d="M428.328 35.922h21.187c1.896 0 3.438 1.542 3.438 3.438v8.147c0 1.896-1.542 3.438-3.438 3.438h-21.187c-1.896 0-3.438-1.542-3.438-3.438V39.36c0-1.896 1.542-3.438 3.438-3.438zm21.187 13.108c.84 0 1.523-.683 1.523-1.523V39.36c0-.84-.683-1.523-1.523-1.523h-21.187c-.84 0-1.523.683-1.523 1.523v8.147c0 .84.683 1.523 1.523 1.523h21.187z"/><path id="AB" d="M454.503 35.922h21.187c1.896 0 3.438 1.542 3.438 3.438v8.147c0 1.896-1.542 3.438-3.438 3.438h-21.187c-1.896 0-3.438-1.542-3.438-3.438V39.36c0-1.896 1.542-3.438 3.438-3.438zm21.188 13.108c.84 0 1.523-.683 1.523-1.523V39.36c0-.84-.683-1.523-1.523-1.523h-21.187c-.84 0-1.523.683-1.523 1.523v8.147c0 .84.683 1.523 1.523 1.523h21.187z"/><path id="AC" d="M232.234 22.814h21.187c1.895 0 3.437 1.542 3.437 3.438v8.147c0 1.896-1.542 3.438-3.437 3.438h-21.187c-1.896 0-3.438-1.542-3.438-3.438v-8.147c0-1.896 1.542-3.438 3.438-3.438zm21.188 13.108c.84 0 1.523-.683 1.523-1.523v-8.147c0-.84-.683-1.523-1.523-1.523h-21.187c-.84 0-1.523.683-1.523 1.523v8.147c0 .84.683 1.523 1.523 1.523h21.187z"/><path id="AD" d="M271.439 35.922h21.187c1.896 0 3.438 1.542 3.438 3.438v8.147c0 1.896-1.542 3.438-3.438 3.438h-21.187c-1.895 0-3.437-1.542-3.437-3.438V39.36c0-1.896 1.542-3.438 3.437-3.438zm21.187 13.108c.84 0 1.523-.683 1.523-1.523V39.36c0-.84-.683-1.523-1.523-1.523h-21.187c-.84 0-1.523.683-1.523 1.523v8.147c0 .84.683 1.523 1.523 1.523h21.187z"/><path id="AE" d="M673.48 158.964l49.206-41.161"/><path id="AF" d="M771.891 158.964l-49.205-41.161"/><path id="AG" d="M796.892,108.369h-3.898c-.401,0-.726-.325-.726-.726s.325-.726.726-.726h3.898c.401,0,.726.325.726.726s-.325.726-.726.726Z"/><path id="AH" d="M795.184,108.369c-.401,0-.726-.325-.726-.726v-1.707c0-.401.325-.726.726-.726s.726.325.726.726v1.707c0,.401-.325.726-.726.726Z"/><path id="AI" d="M795.262 106.417h0a1.07 1.07 0 0 1-1.07-1.069l-.718-3.896 3.42.589-.562 3.307a1.07 1.07 0 0 1-1.07 1.069z"/></defs><g clip-path="url(#A)"><path d="M-40.704-3610.384h1571.886V327.395H-40.704z" fill="#5bd1d6"/><g class="B"><path d="M298.223 1030.464c-56.521 0-109.66-22.011-149.626-61.979l-38.785-38.783c-11.636-11.637-27.106-18.045-43.562-18.045H-85.329V209.031H59.76c24.46 0 44.36-19.9 44.36-44.36s-19.9-44.361-44.36-44.361H-44.1c-16.953 0-30.746-13.792-30.746-30.745v-550.967c0-16.953 13.792-30.746 30.746-30.746h171.767c23.272 0 43.808-16.479 48.831-39.183 5.177-23.399 18.398-44.492 37.227-59.392a105.57 105.57 0 0 1 65.238-22.682h374.146c43.92 0 83.525 27.642 98.552 68.782 7.202 19.72 26.097 32.968 47.017 32.968h153.443c27.981 0 50.746-22.765 50.746-50.745v-47.256c0-27.981 22.764-50.746 50.745-50.746h176.32c13.535 0 26.267 5.263 35.851 14.819 9.612 9.586 14.902 22.337 14.896 35.903-.007 13.559 5.269 26.308 14.854 35.897s22.332 14.871 35.891 14.871h203.633c16.953 0 30.746 13.793 30.746 30.746v286.795c0 16.953-13.793 30.745-30.746 30.745h-119.439a198.55 198.55 0 0 1-96.375-25.026c-29.398-16.372-54.304-40.147-72.021-68.755a138.42 138.42 0 0 0-50.207-47.931c-20.493-11.413-43.725-17.445-67.182-17.445H968.819c-21.204 0-41.235 8.156-56.403 22.966-15.102 14.745-23.73 34.45-24.311 55.5l-.017.744-.015.79V13.59c0 44.112 35.888 80 80 80h608.786c44.486 0 80.708 36.191 80.745 80.677v74.276c0 17.709-6.896 34.358-19.418 46.882s-29.173 19.42-46.883 19.42h-347.479c-14.804 0-27.571 10.254-31.049 24.937-10.616 44.83-32.153 85.209-60.643 113.697l-101.545 101.545c-20.07 20.07-43.544 35.754-69.768 46.617s-53.913 16.37-82.297 16.37h-53.59c-6.319 0-11.461 5.142-11.461 11.461v152.735c0 56.521-22.011 109.66-61.978 149.627l-36.653 36.652c-39.968 39.967-93.106 61.978-149.626 61.978H298.221z" fill="#4eeae6"/><path d="M1535.056-527.292h-203.633c-44.608 0-80.767-36.172-80.746-80.785.005-11.443-9.303-20.707-20.746-20.707h-176.32a20.75 20.75 0 0 0-20.746 20.746v47.256c0 44.595-36.151 80.746-80.746 80.746H798.675c-33.469 0-63.688-21.168-75.196-52.675-10.722-29.354-39.002-49.075-70.373-49.075H278.96a75.44 75.44 0 0 0-46.622 16.208c-13.432 10.628-22.861 25.666-26.551 42.345-8.037 36.333-40.893 62.703-78.123 62.703H-44.1c-.412 0-.746.334-.746.746V91.183c0 .412.334.746.746.746H59.76c41.068 0 74.361 33.292 74.361 74.361h0c0 41.068-33.292 74.361-74.361 74.361H-55.329v642.626H66.25c24.468 0 47.472 9.528 64.774 26.831l38.785 38.784c34.301 34.301 79.906 53.191 128.414 53.191h286.993c48.508 0 94.113-18.891 128.414-53.19l36.652-36.652c34.3-34.301 53.191-79.905 53.191-128.414V631.092c0-22.898 18.563-41.461 41.461-41.461h53.59a184.12 184.12 0 0 0 70.815-14.086c22.565-9.348 42.765-22.844 60.035-40.114l101.546-101.546c25.785-25.785 43.783-61.897 52.663-99.398 6.642-28.047 31.418-48.023 60.241-48.023h347.479c20.048 0 36.301-16.253 36.301-36.301v-74.251c-.024-28.006-22.733-50.702-50.745-50.702H968.072c-60.751 0-110-49.249-110-110v-303.373c0-.695.023-1.389.036-2.083v-.037c1.52-59.839 50.504-107.881 110.709-107.881h161.013a168.08 168.08 0 0 1 142.892 79.579h0a168.08 168.08 0 0 0 142.892 79.579h119.44c.412 0 .746-.334.746-.746v-286.793c0-.412-.334-.746-.746-.746z" fill="#fcee92"/><path d="M1640.658 173.59H968.072c-88.366 0-160-71.634-160-160v-303.373c0-30.548 8.605-59.124 23.519-83.431 15.687-25.567-2.918-58.44-32.915-58.44h0c-56.065 0-103.955-35.678-122.161-85.521-3.576-9.791-12.985-16.229-23.408-16.229H278.961c-11.632 0-21.841 7.996-24.353 19.353-12.879 58.22-64.906 101.903-126.942 101.903h-168.37V40.31h99.12c66.163 0 120.024 53.207 120.832 119.365h0c.822 67.311-53.516 122.317-120.832 122.317h-68.745v554.665H66.25a136.6 136.6 0 0 1 96.594 40.011l38.786 38.786c25.618 25.618 60.364 40.011 96.594 40.011h286.993a136.6 136.6 0 0 0 96.594-40.011l36.652-36.652c25.618-25.618 40.01-60.364 40.01-96.594V629.472c0-47.751 38.71-86.461 86.461-86.461h53.59a140.05 140.05 0 0 0 99.031-41.02l101.546-101.545c28.705-28.705 44.832-67.638 45.78-108.233l495.779-.432v-118.19z" class="T"/></g><g class="D K L M U"><path d="M1630.668 173.59H968.072c-88.366 0-160-71.634-160-160v-303.373c0-30.547 8.605-59.124 23.519-83.431 15.687-25.567-2.918-58.44-32.915-58.44h0c-56.065 0-103.955-35.678-122.161-85.521-3.576-9.791-12.985-16.229-23.408-16.229H278.961c-11.632 0-21.841 7.996-24.353 19.353-12.879 58.22-64.906 101.903-126.942 101.903H-35.709" stroke-dasharray="0 9.99"/><path d="M-30.749,40.31H58.416c66.163,0,120.024,53.208,120.832,119.365h0c.822,67.311-53.516,122.317-120.832,122.317H-5.352" stroke-dasharray="0 9.955"/></g><path d="M279.578-360.247v-49.028c0-14.731 11.942-26.674 26.674-26.674h181.172c14.731 0 26.674 11.942 26.674 26.674v58.663c0 14.731 11.942 26.674 26.674 26.674h62.033c14.731 0 26.674 11.942 26.674 26.674v89.476c0 14.731 11.942 26.674 26.674 26.674h13.114c14.731 0 26.674 11.942 26.674 26.674v114.759c0 14.731-11.942 26.674-26.674 26.674H543.58c-37.846 0-68.526 30.68-68.526 68.526v131.592c0 33.097-26.831 59.928-59.928 59.928h-81.482c-33.097 0-59.928-26.831-59.928-59.928V-59.228c0-14.731-11.942-26.674-26.674-26.674h-54.164c-14.731 0-26.674 11.942-26.674 26.674h0c0 14.732-11.942 26.674-26.674 26.674H79.502c-14.731 0-26.674-11.942-26.674-26.674v-60.726c0-14.731-11.942-26.674-26.674-26.674H-84.697c-14.731 0-26.674-11.942-26.674-26.674v-22.19c0-14.731 11.942-26.674 26.674-26.674H69.158c14.731 0 26.674-11.942 26.674-26.674v-58.061c0-14.731 11.942-26.674 26.674-26.674h130.399c14.731 0 26.674-11.942 26.674-26.674z" fill="#52aa35"/><path d="M279.578-360.247v-49.028c0-14.731 11.942-26.674 26.674-26.674h181.172c14.731 0 26.674 11.942 26.674 26.674v58.663c0 14.731 11.942 26.674 26.674 26.674h62.033c14.731 0 26.674 11.942 26.674 26.673v89.476c0 14.731 11.942 26.674 26.674 26.674h13.114c14.731 0 26.674 11.942 26.674 26.673v114.761c0 14.731-11.942 26.674-26.674 26.674H543.58c-37.846 0-68.526 30.68-68.526 68.526v131.592c0 33.097-26.831 59.928-59.928 59.928h-81.482c-33.097 0-59.928-26.831-59.928-59.928V-59.228c0-14.732-11.942-26.674-26.674-26.674h-54.164c-14.731 0-26.674 11.942-26.674 26.674s-11.942 26.673-26.674 26.673H79.502c-14.731 0-26.674-11.942-26.674-26.673v-60.726c0-14.731-11.942-26.673-26.674-26.673H-84.697c-14.731 0-26.674-11.942-26.674-26.674v-22.19c0-14.731 11.942-26.674 26.674-26.674H69.158c14.731 0 26.674-11.942 26.674-26.674V-306.9c0-14.731 11.942-26.673 26.674-26.673h130.399c14.731 0 26.674-11.942 26.674-26.674z" stroke="#52aa35" stroke-dasharray="0 10.006" class="D K L M"/><path d="M1603.991-140.777l-4.152-4.152c-19.421-19.421-45.761-30.331-73.226-30.331h-160.276c-27.465 0-53.805-10.91-73.226-30.331l-56.101-56.101c-19.421-19.421-45.761-30.331-73.226-30.331h-94.875c-27.465 0-53.805 10.91-73.226 30.331l-49.318 49.318c-19.421 19.421-30.331 45.761-30.331 73.226v27.454c0 27.465 10.91 53.805 30.331 73.226l69.113 69.113c19.421 19.421 45.761 30.331 73.226 30.331h396.346c27.465 0 53.805 10.91 73.226 30.331l30.175 30.175c19.421 19.421 45.761 30.331 73.226 30.331h14.788c57.193 0 103.557-46.364 103.557-103.557V-6.89c0-57.046-46.135-103.349-103.181-103.556h0a103.56 103.56 0 0 1-72.85-30.33z" fill="#56c7c8"/><path d="M651.335-.998h17.96l4.867 44.413c.27 2.461-1.66 4.612-4.138 4.612h-19.507a4.16 4.16 0 0 1-4.137-4.62l4.954-44.405z" class="P"/><g clip-path="url(#B)" class="B Q"><path d="M660.258 31.106l14.682-10.691c8.109-5.905 9.026-17.65 1.931-24.739l-5.136-5.131h-22.954l-5.136 5.131c-7.095 7.089-6.179 18.834 1.931 24.739l14.682 10.691z"/></g><path d="M660.271-2.612a23.94 23.94 0 0 1-7.02 16.935 23.98 23.98 0 0 1-16.952 7.014h-24.11V5.504a23.94 23.94 0 0 1 7.02-16.938c4.496-4.489 10.593-7.014 16.952-7.014h24.11v15.836z" class="B J"/><g clip-path="url(#C)"><path d="M660.271-18.448l-53.656 45.862h53.656v-45.862z" class="B C"/><path d="M610.3 18.454l48.056-39.248 3.799 4.652-48.056 39.248z" class="H"/><g class="B"><g class="F"><path d="M632.223 23.931h6.01V13.83c0-1.657-1.346-3.003-3.005-3.003s-3.005 1.345-3.005 3.003v10.101zm12.021.444h6.01V4.444a3 3 0 0 0-3.002-3h-.006a3 3 0 0 0-3.002 3v19.931z" class="E"/></g><path d="M612.189 4.504v-5.687h9.175c.754 0 1.479.3 2.013.835a2.84 2.84 0 0 1 .832 2.009h0c0 .757-.301 1.477-.832 2.012a2.85 2.85 0 0 1-2.013.832h-9.175z" class="C I"/></g></g><path d="M660.271-2.612a23.94 23.94 0 0 0 7.02 16.935 23.98 23.98 0 0 0 16.952 7.014h24.11V5.504a23.94 23.94 0 0 0-7.02-16.938c-4.496-4.489-10.593-7.014-16.952-7.014h-24.11v15.836z" class="B J"/><g clip-path="url(#D)"><path d="M660.271-18.448l53.656 45.862h-53.656v-45.862z" class="B C"/><path d="M658.37-16.122l3.796-4.654 48.083 39.214-3.796 4.654z" class="H"/><g class="B"><g class="F"><path d="M688.319 23.931h-6.01V13.83c0-1.657 1.346-3.003 3.005-3.003s3.005 1.345 3.005 3.003v10.101zm-12.021.444h-6.01V4.447c0-.796.316-1.558.88-2.123a3 3 0 0 1 2.125-.88 3.01 3.01 0 0 1 2.125.88c.565.564.88 1.327.88 2.123v19.928z" class="E"/></g><path d="M708.353 4.822v-6.005h-9.018a2.99 2.99 0 0 0-2.122.88c-.565.561-.88 1.324-.88 2.12v.006c0 .796.316 1.558.88 2.123s1.325.877 2.122.877h9.018z" class="C I"/></g></g><path d="M660.258 21.336l14.401-10.486c7.954-5.792 8.853-17.312 1.894-24.265l-5.037-5.033h-22.514l-5.038 5.033c-6.959 6.954-6.06 18.473 1.894 24.265l14.401 10.486z" class="B H"/><g clip-path="url(#E)"><path d="M660.258 22.815h-22.72v-43.086h22.72z" class="C"/><path d="M657.264-22.785h6.01v52.371h-6.01z" class="R"/><g class="E C"><use href="#Z"/></g><g class="E F"><use href="#a"/></g><path d="M681.579 17.181c.978 0 1.941-.477 2.516-1.355a3 3 0 0 0-.865-4.158l-12.216-8.007c-1.389-.915-3.252-.52-4.159.862a3 3 0 0 0 .865 4.158l12.216 8.007c.509.334 1.08.493 1.643.493z" class="C E"/><g class="E F"><path d="M638.964 17.181c.563 0 1.135-.158 1.643-.493l12.212-8.007a3 3 0 1 0-3.294-5.02l-12.212 8.007a3 3 0 0 0-.865 4.158c.575.878 1.538 1.355 2.516 1.355z"/></g></g><path d="M635.857 48.026l45.39-.533" class="K L M S T U"/><path d="M723.631 44.391h13.366l3.622 33.052c.201 1.832-1.235 3.432-3.079 3.432h-14.517c-1.847 0-3.283-1.604-3.079-3.438l3.687-33.046z" class="P"/><g clip-path="url(#F)" class="B Q"><path d="M730.271 68.283l10.926-7.956c6.035-4.394 6.717-13.135 1.437-18.411l-3.822-3.819H721.73l-3.822 3.819c-5.28 5.276-4.598 14.016 1.437 18.411l10.926 7.956z"/></g><path d="M730.28 43.19a17.82 17.82 0 0 1-5.224 12.603c-3.346 3.343-7.883 5.22-12.615 5.22h-17.942V49.231a17.82 17.82 0 0 1 5.224-12.605c3.346-3.341 7.883-5.22 12.615-5.22h17.942v11.785z" class="B J"/><g clip-path="url(#G)"><path d="M730.28 31.406l-39.93 34.129h39.93V31.406z" class="B C"/><path d="M693.09 58.865l35.762-29.208 2.828 3.462-35.762 29.208z" class="H"/><g class="B"><g class="F"><path d="M709.408 62.943h4.473v-7.517c0-1.233-1.002-2.234-2.236-2.234s-2.236 1.001-2.236 2.234v7.517zm8.945.331h4.473V48.441c0-1.233-1-2.232-2.234-2.232h-.005c-1.234 0-2.234.999-2.234 2.232v14.833z" class="E"/></g><g class="C"><path d="M694.498 48.486v-4.232h6.828a2.12 2.12 0 0 1 1.498.621c.396.396.619.934.619 1.495h0c0 .563-.224 1.099-.619 1.497a2.11 2.11 0 0 1-1.498.619h-6.828zm0-8.701v-4.469h13.421c1.234 0 2.234.999 2.234 2.232v.004c0 1.233-1 2.232-2.234 2.232h-13.421z" class="I"/></g></g></g><path d="M730.28 43.19a17.82 17.82 0 0 0 5.224 12.603c3.346 3.343 7.883 5.22 12.615 5.22h17.942V49.231a17.82 17.82 0 0 0-5.224-12.605c-3.346-3.341-7.883-5.22-12.615-5.22H730.28v11.785z" class="B J"/><g clip-path="url(#H)"><path d="M730.28 31.406l39.931 34.129H730.28V31.406z" class="B C"/><path d="M728.864 33.134l2.825-3.464 35.783 29.183-2.825 3.464z" class="H"/><g class="B"><g class="F"><path d="M751.153 62.943h-4.473v-7.517c0-1.233 1.002-2.234 2.236-2.234s2.236 1.001 2.236 2.234v7.517zm-8.945.331h-4.473v-14.83c0-.592.235-1.16.655-1.58a2.24 2.24 0 0 1 3.162 0c.42.42.655.988.655 1.58v14.83z" class="E"/></g><g class="C"><path d="M766.063 48.723v-4.469h-6.711c-.593 0-1.161.235-1.579.655s-.655.985-.655 1.578v.004c0 .592.235 1.16.655 1.58a2.23 2.23 0 0 0 1.579.652h6.711zm0-8.938v-4.469h-13.418a2.24 2.24 0 0 0-1.581.655c-.42.42-.655.988-.655 1.58a2.23 2.23 0 0 0 2.236 2.235h13.418z" class="I"/></g></g></g><path d="M730.271 61.013l10.717-7.803c5.919-4.31 6.588-12.883 1.409-18.058l-3.749-3.746h-16.755l-3.749 3.746c-5.179 5.175-4.51 13.748 1.409 18.058l10.717 7.803z" class="B H"/><g clip-path="url(#I)"><path d="M730.27 62.113h-16.908V30.049h16.908z" class="C"/><path d="M728.043 28.178h4.473v38.974h-4.473z" class="R"/><g class="E C"><use href="#b"/></g><g class="E F"><use href="#c"/></g><path d="M746.138 57.92c.728 0 1.444-.355 1.872-1.008a2.23 2.23 0 0 0-.644-3.094l-9.091-5.959c-1.034-.681-2.42-.387-3.095.642a2.23 2.23 0 0 0 .644 3.094l9.091 5.959a2.22 2.22 0 0 0 1.223.367z" class="C E"/><g class="E F"><path d="M714.424 57.92a2.22 2.22 0 0 0 1.223-.367l9.088-5.959a2.23 2.23 0 0 0-2.451-3.736l-9.088 5.959a2.23 2.23 0 0 0-.644 3.094c.428.653 1.144 1.008 1.872 1.008z"/></g></g><path d="M712.112 80.875l36.338-.397" class="K L M S T U"/><g fill="#da781e"><path d="M1282.911 132.113l4.077-5.246.658-2.123.562-2.546c.293-1.691.392-3.364.23-4.84l-.007-.063h0c-.204-1.853 1.134-3.52 2.988-3.724s3.523 1.133 3.726 2.986c.264 2.397.085 4.642-.279 6.784l-.696 3.152-1.002 3.141h0l-.327.65c-.111.218-.276.413-.491.563l-6.405 4.46c-.779.541-1.853.544-2.642-.068-.972-.755-1.148-2.154-.393-3.125zm21.284-1.344h0c.255-1.711.817-3.09 1.431-4.38l1.005-1.854 1.189-1.809.101-.138c.129-.173.277-.336.443-.486 1.392-1.26 3.543-1.154 4.804.237s1.155 3.54-.237 4.8c-.298.27-.707.716-1.041 1.098l-.982 1.224c-.544.739-.987 1.501-1.256 2.148l.423 3.034c.128.923-.356 1.861-1.249 2.266-1.088.493-2.369.012-2.863-1.075l-1.714-3.774c-.105-.233-.152-.502-.119-.774l.063-.516z"/></g><path d="M1302.553 116.247l6.675 2.993 2.9 1.301c2.029.91 2.935 3.291 2.025 5.318l-.375.836a3.11 3.11 0 0 1-4.11 1.562h0a3.12 3.12 0 0 0-1.705-.242l-3.797.532a14.98 14.98 0 0 1-8.205-1.166h0a11.09 11.09 0 0 1-5.583-14.661h0c.398-.887 1.441-1.284 2.329-.886l9.844 4.414z" class="O"/><path d="M1292.093 134.154l4.034-5.849-.025-2.057c-.044-.976-.139-1.937-.287-2.85s-.364-1.774-.64-2.491c-.269-.718-.628-1.254-.861-1.466l-.024-.022-.037-.035c-1.357-1.279-1.419-3.415-.139-4.771a3.38 3.38 0 0 1 4.775-.139c1.362 1.284 2.078 2.706 2.591 4.008.502 1.316.792 2.579 1 3.815.201 1.234.316 2.443.37 3.64l-.014 3.653h0l-.093.646a2.23 2.23 0 0 1-.783 1.396l-6.614 5.493a2.23 2.23 0 0 1-2.685.121c-1.012-.697-1.266-2.081-.569-3.092z" class="V"/><path d="M1289.222 105.214h.364c4.879 0 8.835 3.952 8.835 8.827h0c0 1.699-.162 3.395-.484 5.063l-.127.656c-.161.835-.893 1.439-1.745 1.439h-13.322a1.78 1.78 0 0 1-1.745-1.439l-.127-.656c-.322-1.668-.484-3.364-.484-5.063h0c0-4.875 3.955-8.827 8.835-8.827z" class="O"/><rect x="1282.498" y="107.441" width="8.971" height="11.586" rx="4.484" transform="matrix(-.999995 -.003211 .003211 -.999995 2573.597 230.605)" fill="#e9b679"/><g fill="#6b3b0a"><circle cx="1284.167" cy="112.405" r="1.234"/><circle cx="1288.283" cy="112.449" r="1.234"/></g><path d="M1337.698 136.205c5.581 0 10.742-1.353 11.054-1.437.786-.21 1.253-1.018 1.044-1.803a1.48 1.48 0 0 0-1.805-1.044c-.103.028-10.346 2.71-16.819.401-4.631-1.65-7.671-4.008-10.612-6.289-2.298-1.782-4.674-3.625-7.741-5.095-.732-.353-1.615-.043-1.967.692s-.042 1.613.692 1.965c2.783 1.334 4.932 3.001 7.208 4.766 3.124 2.423 6.354 4.928 11.43 6.737 2.309.822 4.957 1.107 7.517 1.107z" class="O"/><path d="M1307.359 126.589l.166-1.909.02-.161c.031-.225.085-.451.164-.673.625-1.771 2.569-2.7 4.342-2.075a3.4 3.4 0 0 1 2.077 4.338c-.134.378-.278.911-.397 1.373l-.316 1.428c-.167.859-.244 1.729-.235 2.304l1.892 3.517c.458.851.298 1.937-.45 2.616a2.16 2.16 0 0 1-3.046-.148l-3.284-3.616a1.42 1.42 0 0 1-.303-.533l-.119-.389h0c-.247-.81-.357-1.524-.438-2.213s-.102-1.333-.114-1.975l.041-1.883z" class="V"/><path d="M1317.534 136.205h-44.226" stroke="#fcee92" class="D K L M S"/><g opacity=".331" fill="#2f6e3f"><use href="#d"/><use href="#e"/><path d="M517.451 61.374a2.56 2.56 0 0 1-2.555-2.561v-5.345c0-1.416 1.144-2.561 2.555-2.561a2.56 2.56 0 0 1 2.555 2.561v5.345c0 1.416-1.144 2.561-2.555 2.561zm38.565 21.166a2.56 2.56 0 0 1-2.555-2.561V71.96c0-1.416 1.144-2.561 2.555-2.561a2.56 2.56 0 0 1 2.555 2.561v8.019c0 1.416-1.144 2.561-2.555 2.561z"/><use href="#f"/><path d="M546.238 82.54a2.56 2.56 0 0 1-2.555-2.561v-5.348c0-1.416 1.144-2.561 2.555-2.561a2.56 2.56 0 0 1 2.555 2.561v5.348c0 1.416-1.144 2.561-2.555 2.561zm19.667-44.335a2.56 2.56 0 0 1-2.555-2.561v-8.019c0-1.416 1.144-2.561 2.555-2.561a2.56 2.56 0 0 1 2.555 2.561v8.019c0 1.416-1.144 2.561-2.555 2.561zm10.67 0a2.56 2.56 0 0 1-2.555-2.561v-5.348c0-1.416 1.144-2.561 2.555-2.561a2.56 2.56 0 0 1 2.555 2.561v5.348c0 1.416-1.144 2.561-2.555 2.561zm-20.449 0a2.56 2.56 0 0 1-2.555-2.561v-5.348c0-1.416 1.144-2.561 2.555-2.561a2.56 2.56 0 0 1 2.555 2.561v5.348c0 1.416-1.144 2.561-2.555 2.561z"/></g><use href="#g" class="P"/><g clip-path="url(#J)" class="B Q"><use href="#h"/></g><use href="#i" class="B J"/><g clip-path="url(#K)"><path d="M1164.243 115.112l-58.201 49.746h58.201v-49.746z" class="B C"/><use href="#j" class="H"/><g class="B"><use href="#k" class="E F"/><g class="C"><use href="#l" class="I"/><path d="M1112.088 127.325v-6.514h19.561c1.799 0 3.256 1.456 3.256 3.254v.007c0 1.798-1.457 3.254-3.256 3.254h-19.561z" class="I"/></g></g></g><use href="#m" class="B J"/><g clip-path="url(#L)"><path d="M1164.243 115.112l58.202 49.746h-58.202v-49.746z" class="B C"/><use href="#n" class="H"/><g class="B"><path d="M1181.628 161.562h-6.519v-21.616c0-.863.342-1.69.955-2.303a3.27 3.27 0 0 1 4.61 0 3.25 3.25 0 0 1 .955 2.303v21.616z" class="E F"/><g class="C"><use href="#o" class="I"/><use href="#p" class="I"/></g></g></g><path d="M1164.229 158.266l15.621-11.374c8.628-6.282 9.603-18.778 2.054-26.321l-5.464-5.46h-24.421l-5.464 5.46c-7.549 7.543-6.574 20.038 2.054 26.321l15.621 11.374z" class="B H"/><g clip-path="url(#M)"><path d="M1164.229 159.87h-24.644v-46.735h24.644z" class="C"/><path d="M1160.982 110.407h6.519v56.807h-6.519z" class="R"/><g class="E C"><use href="#q"/></g><g class="E F"><use href="#r"/></g><path d="M1187.357 153.758c1.061 0 2.105-.517 2.729-1.469.989-1.505.569-3.524-.938-4.51l-13.251-8.685a3.26 3.26 0 0 0-4.512.935c-.989 1.505-.569 3.524.938 4.51l13.251 8.685a3.23 3.23 0 0 0 1.783.534z" class="C E"/><g class="E F"><path d="M1141.131 153.758a3.24 3.24 0 0 0 1.783-.534l13.247-8.685c1.507-.986 1.927-3.005.938-4.51-.985-1.499-2.992-1.93-4.512-.935l-13.247 8.685c-1.507.986-1.927 3.005-.938 4.51.624.952 1.668 1.469 2.729 1.469z"/></g></g><path d="M179.792 13.993h19.482l5.28 48.175c.293 2.67-1.8 5.002-4.488 5.002h-21.16c-2.692 0-4.786-2.338-4.487-5.011l5.374-48.166z" class="P"/><g clip-path="url(#N)" class="B Q"><path d="M189.47 48.817l15.926-11.596c8.796-6.405 9.791-19.145 2.094-26.835l-5.571-5.566h-24.898l-5.571 5.566c-7.696 7.69-6.702 20.43 2.094 26.835l15.926 11.596z"/></g><path d="M189.484 12.243c0 6.888-2.738 13.497-7.615 18.369s-11.49 7.608-18.388 7.608h-26.152V21.046c0-6.892 2.738-13.5 7.615-18.372s11.49-7.608 18.388-7.608h26.152v17.177z" class="B J"/><g clip-path="url(#O)"><path d="M189.484-4.934l-58.201 49.746h58.201V-4.934z" class="B C"/><path d="M135.283 35.096l52.126-42.572 4.121 5.046-52.126 42.572z" class="H"/><g class="B"><g class="F"><path d="M159.061 41.034h6.519V30.078a3.26 3.26 0 0 0-6.52 0v10.956zm13.039.482h6.519V19.897c0-1.798-1.457-3.254-3.256-3.254h-.007c-1.799 0-3.256 1.456-3.256 3.254v21.619z" class="E"/></g><g class="C"><path d="M137.33 19.962v-6.169h9.952c.818 0 1.604.326 2.184.905a3.08 3.08 0 0 1 .903 2.179h0a3.09 3.09 0 0 1-.903 2.182c-.58.58-1.366.902-2.184.902h-9.952zm0-12.683V.765h19.561c1.799 0 3.256 1.456 3.256 3.254v.007c0 1.798-1.457 3.254-3.256 3.254H137.33z" class="I"/></g></g></g><path d="M189.484 12.243c0 6.888 2.738 13.497 7.615 18.369s11.49 7.608 18.388 7.608h26.152V21.046c0-6.892-2.738-13.5-7.615-18.372s-11.49-7.608-18.388-7.608h-26.152v17.177z" class="B J"/><g clip-path="url(#P)"><path d="M189.484-4.934l58.202 49.746h-58.202V-4.934z" class="B C"/><path d="M187.424-2.41l4.118-5.049 52.156 42.536-4.118 5.049z" class="H"/><g class="B"><g class="F"><path d="M219.908 41.034h-6.519V30.078a3.26 3.26 0 0 1 6.52 0v10.956zm-13.039.482h-6.519V19.9c0-.863.342-1.69.955-2.303a3.27 3.27 0 0 1 4.61 0 3.25 3.25 0 0 1 .955 2.303v21.616z" class="E"/></g><g class="C"><path d="M241.639 20.307v-6.514h-9.782c-.864 0-1.692.342-2.301.954a3.24 3.24 0 0 0-.955 2.299v.007c0 .863.342 1.69.955 2.303s1.437.951 2.301.951h9.782zm0-13.028V.765h-19.558a3.27 3.27 0 0 0-2.305.954 3.25 3.25 0 0 0-.955 2.303c0 .863.342 1.694.955 2.303s1.441.954 2.305.954h19.558z" class="I"/></g></g></g><path d="M189.47 38.22l15.621-11.374c8.628-6.282 9.603-18.778 2.054-26.321l-5.464-5.46H177.26l-5.464 5.46c-7.549 7.543-6.574 20.038 2.054 26.321l15.621 11.374z" class="B H"/><g clip-path="url(#Q)"><path d="M189.47 39.823h-24.644V-6.912h24.644z" class="C"/><path d="M186.223-9.639h6.519v56.807h-6.519z" class="R"/><g class="E C"><path d="M212.598 18.861c1.061 0 2.105-.517 2.729-1.469.989-1.505.569-3.524-.938-4.51l-13.251-8.685a3.26 3.26 0 0 0-4.512.935c-.989 1.505-.569 3.524.938 4.51l13.251 8.685a3.23 3.23 0 0 0 1.783.534z"/></g><g class="E F"><path d="M166.372 18.861a3.24 3.24 0 0 0 1.783-.534l13.247-8.685c1.507-.986 1.927-3.005.938-4.51-.985-1.499-2.992-1.93-4.512-.935l-13.247 8.685c-1.507.986-1.927 3.005-.938 4.51.624.952 1.668 1.469 2.729 1.469z"/></g><path d="M212.598 33.712c1.061 0 2.105-.517 2.729-1.469.989-1.505.569-3.524-.938-4.51l-13.251-8.685a3.26 3.26 0 0 0-4.512.935c-.989 1.505-.569 3.524.938 4.51l13.251 8.685a3.23 3.23 0 0 0 1.783.534z" class="C E"/><g class="E F"><path d="M166.372 33.712a3.24 3.24 0 0 0 1.783-.534l13.247-8.685c1.507-.986 1.927-3.005.938-4.51-.985-1.499-2.992-1.93-4.512-.935l-13.247 8.685c-1.507.986-1.927 3.005-.938 4.51.624.952 1.668 1.469 2.729 1.469z"/></g></g><path d="M163.003 67.171l52.964-.578" class="K L M S T U"/><g fill="#da781e"><path d="M1411.108 25.326l-4.077-5.246-.658-2.123-.562-2.546c-.293-1.691-.392-3.364-.23-4.84l.007-.063h0c.204-1.853-1.134-3.52-2.988-3.724s-3.523 1.133-3.726 2.986c-.264 2.397-.085 4.642.279 6.784l.696 3.152 1.002 3.141h0l.327.65c.111.218.276.413.491.563l6.405 4.46c.779.541 1.853.544 2.642-.068.972-.755 1.148-2.154.393-3.125zm-21.285-1.344h0c-.255-1.711-.817-3.09-1.431-4.38l-1.005-1.854-1.189-1.809-.101-.138c-.129-.173-.277-.336-.443-.486-1.392-1.26-3.543-1.154-4.804.237s-1.155 3.54.237 4.8c.298.27.707.716 1.041 1.098l.982 1.224c.544.739.987 1.501 1.256 2.148l-.423 3.034c-.128.923.356 1.861 1.249 2.266 1.088.493 2.369.012 2.863-1.075l1.714-3.774c.105-.233.152-.502.119-.774l-.063-.516z"/></g><path d="M1391.465 9.46l-6.675 2.993-2.9 1.301c-2.029.91-2.935 3.291-2.025 5.318l.375.836a3.11 3.11 0 0 0 4.11 1.562h0a3.12 3.12 0 0 1 1.705-.242l3.797.532a14.98 14.98 0 0 0 8.205-1.166h0a11.09 11.09 0 0 0 5.583-14.661h0c-.398-.887-1.441-1.284-2.329-.886l-9.844 4.414z" class="O"/><path d="M1401.925 27.368l-4.034-5.849.025-2.057c.044-.976.139-1.937.287-2.85s.364-1.774.64-2.491c.269-.718.628-1.254.861-1.466l.024-.022.037-.035c1.357-1.279 1.419-3.415.139-4.771a3.38 3.38 0 0 0-4.775-.139c-1.362 1.284-2.078 2.706-2.591 4.008-.502 1.316-.792 2.579-1 3.815-.201 1.234-.316 2.443-.37 3.64l.014 3.653h0l.093.646a2.23 2.23 0 0 0 .783 1.396l6.614 5.493a2.23 2.23 0 0 0 2.685.121c1.012-.697 1.266-2.081.569-3.092z" class="V"/><path d="M1404.797-1.572h-.364c-4.879 0-8.835 3.952-8.835 8.827h0c0 1.699.162 3.395.484 5.063l.127.656c.161.835.893 1.439 1.745 1.439h13.322a1.78 1.78 0 0 0 1.745-1.439l.127-.656c.322-1.668.484-3.364.484-5.063h0c0-4.875-3.955-8.827-8.835-8.827z" class="O"/><rect x="1402.549" y=".654" width="8.971" height="11.586" rx="4.484" transform="matrix(.999995 -.003211 .003211 .999995 -.013 4.524)" fill="#e9b679"/><g fill="#6b3b0a"><circle cx="1409.852" cy="5.619" r="1.234"/><circle cx="1405.736" cy="5.663" r="1.234"/></g><path d="M1356.32 29.418c-5.581 0-10.742-1.353-11.054-1.437-.786-.21-1.253-1.018-1.044-1.803a1.48 1.48 0 0 1 1.805-1.044c.103.028 10.346 2.71 16.819.401 4.631-1.65 7.671-4.008 10.612-6.289 2.298-1.782 4.674-3.625 7.741-5.095.732-.353 1.615-.043 1.967.692s.042 1.613-.692 1.965c-2.783 1.334-4.932 3.001-7.208 4.766-3.124 2.423-6.354 4.928-11.43 6.737-2.309.822-4.957 1.107-7.517 1.107z" class="O"/><path d="M1386.659 19.802l-.166-1.909-.02-.161c-.031-.225-.085-.451-.164-.673-.625-1.771-2.569-2.7-4.342-2.075a3.4 3.4 0 0 0-2.077 4.338c.134.378.278.911.397 1.373l.316 1.428c.167.859.244 1.729.235 2.304l-1.892 3.517c-.458.851-.298 1.937.45 2.616a2.16 2.16 0 0 0 3.046-.148l3.284-3.616a1.42 1.42 0 0 0 .303-.533l.119-.389h0c.247-.81.357-1.524.438-2.213s.102-1.333.114-1.975l-.041-1.883z" class="V"/><path d="M1326.032 263.703c-1.906 0-3.725-.8-5.012-2.206s-1.923-3.287-1.754-5.184l25.527-285.872c.498-5.579 5.174-9.821 10.78-9.821h23.439c5.63 0 10.321 4.312 10.788 9.918l4.586 54.98h16.672c3.052 0 5.835 1.71 7.199 4.437l7.538 15.064a11.5 11.5 0 0 1 1.199 4.512l5.281 94.968 29.498 8.421c4.972 1.419 8.392 5.957 8.392 11.123v92.873c0 1.8-.716 3.526-1.99 4.799s-3.001 1.988-4.803 1.988h-137.34z" fill="#787186" class="B"/><g clip-path="url(#R)" class="B"><path d="M1302.146-23.123v-46.873a9.84 9.84 0 0 1 9.842-9.833h1.806a9.84 9.84 0 0 0 9.842-9.833v-33.393a9.84 9.84 0 0 1 9.842-9.833h7.867a9.84 9.84 0 0 0 9.842-9.833v-21.18a9.84 9.84 0 0 1 9.842-9.833h24.672a9.84 9.84 0 0 1 9.841 9.833l-.003 108.634c0 5.27 4.275 9.542 9.549 9.542h.247c5.485 0 9.891-4.361 9.891-9.792l-.001-32.246c0-5.431 4.406-9.79 9.842-9.79h24.672a9.84 9.84 0 0 1 9.842 9.833v23.985a9.84 9.84 0 0 0 9.842 9.833h4.989a9.84 9.84 0 0 1 9.842 9.833v247.498a9.84 9.84 0 0 1-9.842 9.833h-10.241a9.84 9.84 0 0 1-9.842-9.833v-23.984a9.84 9.84 0 0 0-9.842-9.833h-25.55c-11.958 0-21.651-9.685-21.651-21.633V98.612a9.84 9.84 0 0 0-9.842-9.833h-5.572a9.84 9.84 0 0 1-9.842-9.833V54.877a9.84 9.84 0 0 0-9.842-9.833h.267a9.84 9.84 0 0 0-9.842 9.833v69.567a9.84 9.84 0 0 1-9.842 9.833h-3.677a9.84 9.84 0 0 0-9.842 9.833l-2.891 33.394a9.84 9.84 0 0 1-9.842 9.833h-7.579a9.84 9.84 0 0 0-9.842 9.833v46.872a9.84 9.84 0 0 1-9.842 9.833h-4.532a9.84 9.84 0 0 1-9.842-9.833V-3.457a9.84 9.84 0 0 1 9.842-9.833h7.579a9.84 9.84 0 0 0 9.842-9.833z" fill="#3d8850"/><g fill="#2d693a"><path d="M1393.064 47.085c-5.979 0-10.826-4.843-10.826-10.816s4.847-10.816 10.826-10.816h51.422v21.633h-51.422zm29.755 94.748c-5.755-1.62-9.105-7.594-7.484-13.344a10.83 10.83 0 0 1 13.356-7.478l49.494 13.934-5.872 20.822-49.494-13.934z"/></g></g><g opacity=".331" fill="#00703a"><use href="#s"/><path d="M326.085,52.638c1.232,0,2.231-1,2.231-2.236v-4.667c0-1.236-.999-2.236-2.231-2.236s-2.231,1-2.231,2.236v4.667c0,1.236.999,2.236,2.231,2.236Z"/><use href="#t"/><path d="M424.442 82.59c1.232 0 2.231-1 2.231-2.236v-7.001c0-1.236-.999-2.236-2.231-2.236s-2.231 1-2.231 2.236v7.001c0 1.236.999 2.236 2.231 2.236zm-8.926 0c1.232 0 2.231-1 2.231-2.236v-4.667c0-1.236-.999-2.236-2.231-2.236s-2.231 1-2.231 2.236v4.667c0 1.236.999 2.236 2.231 2.236zm17.852 0c1.232 0 2.231-1 2.231-2.236v-4.667c0-1.236-.999-2.236-2.231-2.236s-2.231 1-2.231 2.236v4.667c0 1.236.999 2.236 2.231 2.236zm-123.1-11.474c1.232 0 2.231-1 2.231-2.236v-7.001c0-1.236-.999-2.236-2.231-2.236s-2.231 1-2.231 2.236v7.001c0 1.236.999 2.236 2.231 2.236zm-9.314 0c1.232 0 2.231-1 2.231-2.236v-4.669c0-1.236-.999-2.236-2.231-2.236s-2.231 1-2.231 2.236v4.669c0 1.236.999 2.236 2.231 2.236zm17.852 0c1.232 0 2.231-1 2.231-2.236v-4.669c0-1.236-.999-2.236-2.231-2.236s-2.231 1-2.231 2.236v4.669c0 1.236.999 2.236 2.231 2.236z"/></g><use href="#u" fill="#d6f0f0"/><g opacity=".2"><g clip-path="url(#S)" fill="#97cec8"><path d="M389.124-3.403h21.187c1.896,0,3.438,1.542,3.438,3.438v8.147c0,1.896-1.542,3.438-3.438,3.438h-21.187c-1.896,0-3.438-1.542-3.438-3.438V.035c0-1.896,1.542-3.438,3.438-3.438ZM410.31,9.706c.84,0,1.523-.683,1.523-1.523V.035c0-.84-.683-1.523-1.523-1.523h-21.187c-.84,0-1.523.683-1.523,1.523v8.147c0,.84.683,1.523,1.523,1.523h21.187Z"/><path d="M415.271-3.403h21.187c1.896,0,3.438,1.542,3.438,3.438v8.147c0,1.896-1.542,3.438-3.438,3.438h-21.187c-1.896,0-3.438-1.542-3.438-3.438V.035c0-1.896,1.542-3.438,3.438-3.438ZM436.459,9.706c.84,0,1.523-.683,1.523-1.523V.035c0-.84-.683-1.523-1.523-1.523h-21.187c-.84,0-1.523.683-1.523,1.523v8.147c0,.84.683,1.523,1.523,1.523h21.187Z"/><path d="M441.447-3.403h21.187c1.895,0,3.437,1.542,3.437,3.438v8.147c0,1.896-1.542,3.438-3.437,3.438h-21.187c-1.896,0-3.438-1.542-3.438-3.438V.035c0-1.896,1.542-3.438,3.438-3.438ZM462.634,9.706c.84,0,1.523-.683,1.523-1.523V.035c0-.84-.683-1.523-1.523-1.523h-21.187c-.84,0-1.523.683-1.523,1.523v8.147c0,.84.683,1.523,1.523,1.523h21.187Z"/><path d="M467.595-3.403h21.187c1.896,0,3.438,1.542,3.438,3.438v8.147c0,1.896-1.542,3.438-3.438,3.438h-21.187c-1.896,0-3.438-1.542-3.438-3.438V.035c0-1.896,1.542-3.438,3.438-3.438ZM488.782,9.706c.84,0,1.523-.683,1.523-1.523V.035c0-.84-.683-1.523-1.523-1.523h-21.187c-.84,0-1.523.683-1.523,1.523v8.147c0,.84.683,1.523,1.523,1.523h21.187Z"/><path d="M493.747-3.403h21.187c1.896,0,3.438,1.542,3.438,3.438v8.147c0,1.896-1.542,3.438-3.438,3.438h-21.187c-1.895,0-3.437-1.542-3.437-3.438V.035c0-1.896,1.542-3.438,3.437-3.438ZM514.934,9.706c.84,0,1.523-.683,1.523-1.523V.035c0-.84-.683-1.523-1.523-1.523h-21.187c-.84,0-1.523.683-1.523,1.523v8.147c0,.84.683,1.523,1.523,1.523h21.187Z"/><path d="M519.895-3.403h21.187c1.896 0 3.438 1.542 3.438 3.438v8.147c0 1.896-1.542 3.438-3.438 3.438h-21.187c-1.896 0-3.438-1.542-3.438-3.438V.035c0-1.896 1.542-3.438 3.438-3.438zm21.188 13.109c.84 0 1.523-.683 1.523-1.523V.035c0-.84-.683-1.523-1.523-1.523h-21.187c-.84 0-1.523.683-1.523 1.523v8.147c0 .84.683 1.523 1.523 1.523h21.187zm-138.903 0h21.187c1.895 0 3.437 1.542 3.437 3.438v8.147c0 1.896-1.542 3.438-3.437 3.438H402.18c-1.896 0-3.438-1.542-3.438-3.438v-8.147c0-1.896 1.542-3.438 3.438-3.438zm21.187 13.108c.84 0 1.523-.683 1.523-1.523v-8.147c0-.84-.683-1.523-1.523-1.523H402.18c-.84 0-1.523.683-1.523 1.523v8.147c0 .84.683 1.523 1.523 1.523h21.187z"/><use href="#v"/><use href="#w"/><use href="#x"/><path d="M506.804 9.706h21.187c1.896 0 3.438 1.542 3.438 3.438v8.147c0 1.896-1.542 3.438-3.438 3.438h-21.187c-1.896 0-3.438-1.542-3.438-3.438v-8.147c0-1.896 1.542-3.438 3.438-3.438zm21.187 13.108c.84 0 1.523-.683 1.523-1.523v-8.147c0-.84-.683-1.523-1.523-1.523h-21.187c-.84 0-1.523.683-1.523 1.523v8.147c0 .84.683 1.523 1.523 1.523h21.187zm-138.867 0h21.187c1.896 0 3.438 1.542 3.438 3.438v8.147c0 1.896-1.542 3.438-3.438 3.438h-21.187c-1.896 0-3.438-1.542-3.438-3.438v-8.147c0-1.896 1.542-3.438 3.438-3.438zm21.186 13.108c.84 0 1.523-.683 1.523-1.523v-8.147c0-.84-.683-1.523-1.523-1.523h-21.187c-.84 0-1.523.683-1.523 1.523v8.147c0 .84.683 1.523 1.523 1.523h21.187z"/><path d="M415.271 22.814h21.187c1.896 0 3.438 1.542 3.438 3.438v8.147c0 1.896-1.542 3.438-3.438 3.438h-21.187c-1.896 0-3.438-1.542-3.438-3.438v-8.147c0-1.896 1.542-3.438 3.438-3.438zm21.188 13.108c.84 0 1.523-.683 1.523-1.523v-8.147c0-.84-.683-1.523-1.523-1.523h-21.187c-.84 0-1.523.683-1.523 1.523v8.147c0 .84.683 1.523 1.523 1.523h21.187z"/><use href="#y"/><path d="M467.595 22.814h21.187c1.896 0 3.438 1.542 3.438 3.438v8.147c0 1.896-1.542 3.438-3.438 3.438h-21.187c-1.896 0-3.438-1.542-3.438-3.438v-8.147c0-1.896 1.542-3.438 3.438-3.438zm21.187 13.108c.84 0 1.523-.683 1.523-1.523v-8.147c0-.84-.683-1.523-1.523-1.523h-21.187c-.84 0-1.523.683-1.523 1.523v8.147c0 .84.683 1.523 1.523 1.523h21.187z"/><use href="#z"/><path d="M519.895 22.814h21.187c1.896 0 3.438 1.542 3.438 3.438v8.147c0 1.896-1.542 3.438-3.438 3.438h-21.187c-1.896 0-3.438-1.542-3.438-3.438v-8.147c0-1.896 1.542-3.438 3.438-3.438zm21.188 13.108c.84 0 1.523-.683 1.523-1.523v-8.147c0-.84-.683-1.523-1.523-1.523h-21.187c-.84 0-1.523.683-1.523 1.523v8.147c0 .84.683 1.523 1.523 1.523h21.187zm-138.903 0h21.187c1.895 0 3.437 1.542 3.437 3.438v8.147c0 1.896-1.542 3.438-3.437 3.438H402.18c-1.896 0-3.438-1.542-3.438-3.438V39.36c0-1.896 1.542-3.438 3.438-3.438zm21.187 13.108c.84 0 1.523-.683 1.523-1.523V39.36c0-.84-.683-1.523-1.523-1.523H402.18c-.84 0-1.523.683-1.523 1.523v8.147c0 .84.683 1.523 1.523 1.523h21.187z"/><use href="#AA"/><use href="#AB"/><path d="M480.651 35.922h21.187c1.896 0 3.438 1.542 3.438 3.438v8.147c0 1.896-1.542 3.438-3.438 3.438h-21.187c-1.895 0-3.437-1.542-3.437-3.438V39.36c0-1.896 1.542-3.438 3.437-3.438zm21.188 13.108c.84 0 1.523-.683 1.523-1.523V39.36c0-.84-.683-1.523-1.523-1.523h-21.187c-.84 0-1.523.683-1.523 1.523v8.147c0 .84.683 1.523 1.523 1.523h21.187z"/><path d="M506.804 35.922h21.187c1.896 0 3.438 1.542 3.438 3.438v8.147c0 1.896-1.542 3.438-3.438 3.438h-21.187c-1.896 0-3.438-1.542-3.438-3.438V39.36c0-1.896 1.542-3.438 3.438-3.438zm21.187 13.108c.84 0 1.523-.683 1.523-1.523V39.36c0-.84-.683-1.523-1.523-1.523h-21.187c-.84 0-1.523.683-1.523 1.523v8.147c0 .84.683 1.523 1.523 1.523h21.187zM127.61-3.403h21.187c1.896 0 3.438 1.542 3.438 3.438v8.147c0 1.896-1.542 3.438-3.438 3.438H127.61c-1.896 0-3.438-1.542-3.438-3.438V.035c0-1.896 1.542-3.438 3.438-3.438zm21.188 13.109c.84 0 1.523-.683 1.523-1.523V.035c0-.84-.683-1.523-1.523-1.523h-21.187c-.84 0-1.523.683-1.523 1.523v8.147c0 .84.683 1.523 1.523 1.523h21.187z"/><path d="M153.758-3.403h21.187c1.896 0 3.438 1.542 3.438 3.438v8.147c0 1.896-1.542 3.438-3.438 3.438h-21.187c-1.895 0-3.437-1.542-3.437-3.438V.035c0-1.896 1.542-3.438 3.437-3.438zm21.188 13.109c.84 0 1.523-.683 1.523-1.523V.035c0-.84-.683-1.523-1.523-1.523h-21.187c-.84 0-1.523.683-1.523 1.523v8.147c0 .84.683 1.523 1.523 1.523h21.187zM389.119-3.403h21.187c1.896 0 3.438 1.542 3.438 3.438v8.147c0 1.896-1.542 3.438-3.438 3.438h-21.187c-1.896 0-3.438-1.542-3.438-3.438V.035c0-1.896 1.542-3.438 3.438-3.438zm21.188 13.109c.84 0 1.523-.683 1.523-1.523V.035c0-.84-.683-1.523-1.523-1.523H389.12c-.84 0-1.523.683-1.523 1.523v8.147c0 .84.683 1.523 1.523 1.523h21.187z"/><path d="M179.934-3.403h21.187c1.896,0,3.438,1.542,3.438,3.438v8.147c0,1.896-1.542,3.438-3.438,3.438h-21.187c-1.896,0-3.438-1.542-3.438-3.438V.035c0-1.896,1.542-3.438,3.438-3.438ZM201.121,9.706c.84,0,1.523-.683,1.523-1.523V.035c0-.84-.683-1.523-1.523-1.523h-21.187c-.84,0-1.523.683-1.523,1.523v8.147c0,.84.683,1.523,1.523,1.523h21.187Z"/><path d="M206.082-3.403h21.187c1.896,0,3.438,1.542,3.438,3.438v8.147c0,1.896-1.542,3.438-3.438,3.438h-21.187c-1.896,0-3.438-1.542-3.438-3.438V.035c0-1.896,1.542-3.438,3.438-3.438ZM227.269,9.706c.84,0,1.523-.683,1.523-1.523V.035c0-.84-.683-1.523-1.523-1.523h-21.187c-.84,0-1.523.683-1.523,1.523v8.147c0,.84.683,1.523,1.523,1.523h21.187Z"/><path d="M232.234-3.403h21.187c1.895,0,3.437,1.542,3.437,3.438v8.147c0,1.896-1.542,3.438-3.437,3.438h-21.187c-1.896,0-3.438-1.542-3.438-3.438V.035c0-1.896,1.542-3.438,3.438-3.438ZM253.422,9.706c.84,0,1.523-.683,1.523-1.523V.035c0-.84-.683-1.523-1.523-1.523h-21.187c-.84,0-1.523.683-1.523,1.523v8.147c0,.84.683,1.523,1.523,1.523h21.187Z"/><path d="M258.382-3.403h21.187c1.896,0,3.438,1.542,3.438,3.438v8.147c0,1.896-1.542,3.438-3.438,3.438h-21.187c-1.896,0-3.438-1.542-3.438-3.438V.035c0-1.896,1.542-3.438,3.438-3.438ZM279.57,9.706c.84,0,1.523-.683,1.523-1.523V.035c0-.84-.683-1.523-1.523-1.523h-21.187c-.84,0-1.523.683-1.523,1.523v8.147c0,.84.683,1.523,1.523,1.523h21.187Z"/><path d="M284.558-3.403h21.187c1.895,0,3.437,1.542,3.437,3.438v8.147c0,1.896-1.542,3.438-3.437,3.438h-21.187c-1.896,0-3.438-1.542-3.438-3.438V.035c0-1.896,1.542-3.438,3.438-3.438ZM305.745,9.706c.84,0,1.523-.683,1.523-1.523V.035c0-.84-.683-1.523-1.523-1.523h-21.187c-.84,0-1.523.683-1.523,1.523v8.147c0,.84.683,1.523,1.523,1.523h21.187Z"/><path d="M310.705-3.403h21.187c1.896,0,3.438,1.542,3.438,3.438v8.147c0,1.896-1.542,3.438-3.438,3.438h-21.187c-1.896,0-3.438-1.542-3.438-3.438V.035c0-1.896,1.542-3.438,3.438-3.438ZM331.893,9.706c.84,0,1.523-.683,1.523-1.523V.035c0-.84-.683-1.523-1.523-1.523h-21.187c-.84,0-1.523.683-1.523,1.523v8.147c0,.84.683,1.523,1.523,1.523h21.187Z"/><path d="M336.823-3.403h21.187c1.896,0,3.438,1.542,3.438,3.438v8.147c0,1.896-1.542,3.438-3.438,3.438h-21.187c-1.896,0-3.438-1.542-3.438-3.438V.035c0-1.896,1.542-3.438,3.438-3.438ZM358.01,9.706c.84,0,1.523-.683,1.523-1.523V.035c0-.84-.683-1.523-1.523-1.523h-21.187c-.84,0-1.523.683-1.523,1.523v8.147c0,.84.683,1.523,1.523,1.523h21.187Z"/><path d="M362.971-3.403h21.187c1.895 0 3.437 1.542 3.437 3.438v8.147c0 1.896-1.542 3.438-3.437 3.438h-21.187c-1.896 0-3.438-1.542-3.438-3.438V.035c0-1.896 1.542-3.438 3.438-3.438zm21.188 13.109c.84 0 1.523-.683 1.523-1.523V.035c0-.84-.683-1.523-1.523-1.523h-21.187c-.84 0-1.523.683-1.523 1.523v8.147c0 .84.683 1.523 1.523 1.523h21.187zm-243.492 0h21.187c1.896 0 3.438 1.542 3.438 3.438v8.147c0 1.896-1.542 3.438-3.438 3.438h-21.187c-1.896 0-3.438-1.542-3.438-3.438v-8.147c0-1.896 1.542-3.438 3.438-3.438zm21.187 13.108c.84 0 1.523-.683 1.523-1.523v-8.147c0-.84-.683-1.523-1.523-1.523h-21.187c-.84 0-1.523.683-1.523 1.523v8.147c0 .84.683 1.523 1.523 1.523h21.187z"/><path d="M166.815 9.706h21.187c1.896 0 3.438 1.542 3.438 3.438v8.147c0 1.896-1.542 3.438-3.438 3.438h-21.187c-1.896 0-3.438-1.542-3.438-3.438v-8.147c0-1.896 1.542-3.438 3.438-3.438zm21.187 13.108c.84 0 1.523-.683 1.523-1.523v-8.147c0-.84-.683-1.523-1.523-1.523h-21.187c-.84 0-1.523.683-1.523 1.523v8.147c0 .84.683 1.523 1.523 1.523h21.187z"/><path d="M192.99 9.706h21.187c1.896 0 3.438 1.542 3.438 3.438v8.147c0 1.896-1.542 3.438-3.438 3.438H192.99c-1.896 0-3.438-1.542-3.438-3.438v-8.147c0-1.896 1.542-3.438 3.438-3.438zm21.188 13.108c.84 0 1.523-.683 1.523-1.523v-8.147c0-.84-.683-1.523-1.523-1.523h-21.187c-.84 0-1.523.683-1.523 1.523v8.147c0 .84.683 1.523 1.523 1.523h21.187z"/><path d="M219.139 9.706h21.187c1.896 0 3.438 1.542 3.438 3.438v8.147c0 1.896-1.542 3.438-3.438 3.438h-21.187c-1.896 0-3.438-1.542-3.438-3.438v-8.147c0-1.896 1.542-3.438 3.438-3.438zm21.186 13.108c.84 0 1.523-.683 1.523-1.523v-8.147c0-.84-.683-1.523-1.523-1.523h-21.187c-.84 0-1.523.683-1.523 1.523v8.147c0 .84.683 1.523 1.523 1.523h21.187z"/><path d="M245.291 9.706h21.187c1.896 0 3.438 1.542 3.438 3.438v8.147c0 1.896-1.542 3.438-3.438 3.438h-21.187c-1.896 0-3.438-1.542-3.438-3.438v-8.147c0-1.896 1.542-3.438 3.438-3.438zm21.187 13.108c.84 0 1.523-.683 1.523-1.523v-8.147c0-.84-.683-1.523-1.523-1.523h-21.187c-.84 0-1.523.683-1.523 1.523v8.147c0 .84.683 1.523 1.523 1.523h21.187z"/><path d="M271.439 9.706h21.187c1.896 0 3.438 1.542 3.438 3.438v8.147c0 1.896-1.542 3.438-3.438 3.438h-21.187c-1.895 0-3.437-1.542-3.437-3.438v-8.147c0-1.896 1.542-3.438 3.437-3.438zm21.187 13.108c.84 0 1.523-.683 1.523-1.523v-8.147c0-.84-.683-1.523-1.523-1.523h-21.187c-.84 0-1.523.683-1.523 1.523v8.147c0 .84.683 1.523 1.523 1.523h21.187z"/><path d="M297.614 9.706h21.187c1.896 0 3.438 1.542 3.438 3.438v8.147c0 1.896-1.542 3.438-3.438 3.438h-21.187c-1.896 0-3.438-1.542-3.438-3.438v-8.147c0-1.896 1.542-3.438 3.438-3.438zm21.188 13.108c.84 0 1.523-.683 1.523-1.523v-8.147c0-.84-.683-1.523-1.523-1.523h-21.187c-.84 0-1.523.683-1.523 1.523v8.147c0 .84.683 1.523 1.523 1.523h21.187z"/><path d="M323.762 9.706h21.187c1.896 0 3.438 1.542 3.438 3.438v8.147c0 1.896-1.542 3.438-3.438 3.438h-21.187c-1.895 0-3.437-1.542-3.437-3.438v-8.147c0-1.896 1.542-3.438 3.437-3.438zm21.187 13.108c.84 0 1.523-.683 1.523-1.523v-8.147c0-.84-.683-1.523-1.523-1.523h-21.187c-.84 0-1.523.683-1.523 1.523v8.147c0 .84.683 1.523 1.523 1.523h21.187z"/><path d="M349.879 9.706h21.187c1.896 0 3.438 1.542 3.438 3.438v8.147c0 1.896-1.542 3.438-3.438 3.438h-21.187c-1.896 0-3.438-1.542-3.438-3.438v-8.147c0-1.896 1.542-3.438 3.438-3.438zm21.188 13.108c.84 0 1.523-.683 1.523-1.523v-8.147c0-.84-.683-1.523-1.523-1.523H349.88c-.84 0-1.523.683-1.523 1.523v8.147c0 .84.683 1.523 1.523 1.523h21.187z"/><path d="M376.028 9.706h21.187c1.896 0 3.438 1.542 3.438 3.438v8.147c0 1.896-1.542 3.438-3.438 3.438h-21.187c-1.896 0-3.438-1.542-3.438-3.438v-8.147c0-1.896 1.542-3.438 3.438-3.438zm21.187 13.108c.84 0 1.523-.683 1.523-1.523v-8.147c0-.84-.683-1.523-1.523-1.523h-21.187c-.84 0-1.523.683-1.523 1.523v8.147c0 .84.683 1.523 1.523 1.523h21.187zm-269.605 0h21.187c1.896 0 3.438 1.542 3.438 3.438v8.147c0 1.896-1.542 3.438-3.438 3.438H127.61c-1.896 0-3.438-1.542-3.438-3.438v-8.147c0-1.896 1.542-3.438 3.438-3.438zm21.188 13.108c.84 0 1.523-.683 1.523-1.523v-8.147c0-.84-.683-1.523-1.523-1.523h-21.187c-.84 0-1.523.683-1.523 1.523v8.147c0 .84.683 1.523 1.523 1.523h21.187z"/><path d="M153.758 22.814h21.187c1.896 0 3.438 1.542 3.438 3.438v8.147c0 1.896-1.542 3.438-3.438 3.438h-21.187c-1.895 0-3.437-1.542-3.437-3.438v-8.147c0-1.896 1.542-3.438 3.437-3.438zm21.188 13.108c.84 0 1.523-.683 1.523-1.523v-8.147c0-.84-.683-1.523-1.523-1.523h-21.187c-.84 0-1.523.683-1.523 1.523v8.147c0 .84.683 1.523 1.523 1.523h21.187zm214.173-13.108h21.187c1.896 0 3.438 1.542 3.438 3.438v8.147c0 1.896-1.542 3.438-3.438 3.438h-21.187c-1.896 0-3.438-1.542-3.438-3.438v-8.147c0-1.896 1.542-3.438 3.438-3.438zm21.188 13.108c.84 0 1.523-.683 1.523-1.523v-8.147c0-.84-.683-1.523-1.523-1.523H389.12c-.84 0-1.523.683-1.523 1.523v8.147c0 .84.683 1.523 1.523 1.523h21.187z"/><path d="M179.934 22.814h21.187c1.896 0 3.438 1.542 3.438 3.438v8.147c0 1.896-1.542 3.438-3.438 3.438h-21.187c-1.896 0-3.438-1.542-3.438-3.438v-8.147c0-1.896 1.542-3.438 3.438-3.438zm21.187 13.108c.84 0 1.523-.683 1.523-1.523v-8.147c0-.84-.683-1.523-1.523-1.523h-21.187c-.84 0-1.523.683-1.523 1.523v8.147c0 .84.683 1.523 1.523 1.523h21.187z"/><path d="M206.082 22.814h21.187c1.896 0 3.438 1.542 3.438 3.438v8.147c0 1.896-1.542 3.438-3.438 3.438h-21.187c-1.896 0-3.438-1.542-3.438-3.438v-8.147c0-1.896 1.542-3.438 3.438-3.438zm21.187 13.108c.84 0 1.523-.683 1.523-1.523v-8.147c0-.84-.683-1.523-1.523-1.523h-21.187c-.84 0-1.523.683-1.523 1.523v8.147c0 .84.683 1.523 1.523 1.523h21.187z"/><use href="#AC"/><path d="M258.382,22.814h21.187c1.896,0,3.438,1.542,3.438,3.438v8.147c0,1.896-1.542,3.438-3.438,3.438h-21.187c-1.896,0-3.438-1.542-3.438-3.438v-8.147c0-1.896,1.542-3.438,3.438-3.438ZM279.57,35.922c.84,0,1.523-.683,1.523-1.523v-8.147c0-.84-.683-1.523-1.523-1.523h-21.187c-.84,0-1.523.683-1.523,1.523v8.147c0,.84.683,1.523,1.523,1.523h21.187Z"/><path d="M284.558 22.814h21.187c1.895 0 3.437 1.542 3.437 3.438v8.147c0 1.896-1.542 3.438-3.437 3.438h-21.187c-1.896 0-3.438-1.542-3.438-3.438v-8.147c0-1.896 1.542-3.438 3.438-3.438zm21.187 13.108c.84 0 1.523-.683 1.523-1.523v-8.147c0-.84-.683-1.523-1.523-1.523h-21.187c-.84 0-1.523.683-1.523 1.523v8.147c0 .84.683 1.523 1.523 1.523h21.187z"/><path d="M310.705 22.814h21.187c1.896 0 3.438 1.542 3.438 3.438v8.147c0 1.896-1.542 3.438-3.438 3.438h-21.187c-1.896 0-3.438-1.542-3.438-3.438v-8.147c0-1.896 1.542-3.438 3.438-3.438zm21.188 13.108c.84 0 1.523-.683 1.523-1.523v-8.147c0-.84-.683-1.523-1.523-1.523h-21.187c-.84 0-1.523.683-1.523 1.523v8.147c0 .84.683 1.523 1.523 1.523h21.187z"/><path d="M336.823,22.814h21.187c1.896,0,3.438,1.542,3.438,3.438v8.147c0,1.896-1.542,3.438-3.438,3.438h-21.187c-1.896,0-3.438-1.542-3.438-3.438v-8.147c0-1.896,1.542-3.438,3.438-3.438ZM358.01,35.922c.84,0,1.523-.683,1.523-1.523v-8.147c0-.84-.683-1.523-1.523-1.523h-21.187c-.84,0-1.523.683-1.523,1.523v8.147c0,.84.683,1.523,1.523,1.523h21.187Z"/><path d="M362.971 22.814h21.187c1.895 0 3.437 1.542 3.437 3.438v8.147c0 1.896-1.542 3.438-3.437 3.438h-21.187c-1.896 0-3.438-1.542-3.438-3.438v-8.147c0-1.896 1.542-3.438 3.438-3.438zm21.188 13.108c.84 0 1.523-.683 1.523-1.523v-8.147c0-.84-.683-1.523-1.523-1.523h-21.187c-.84 0-1.523.683-1.523 1.523v8.147c0 .84.683 1.523 1.523 1.523h21.187zm-243.492 0h21.187c1.896 0 3.438 1.542 3.438 3.438v8.147c0 1.896-1.542 3.438-3.438 3.438h-21.187c-1.896 0-3.438-1.542-3.438-3.438V39.36c0-1.896 1.542-3.438 3.438-3.438zm21.187 13.108c.84 0 1.523-.683 1.523-1.523V39.36c0-.84-.683-1.523-1.523-1.523h-21.187c-.84 0-1.523.683-1.523 1.523v8.147c0 .84.683 1.523 1.523 1.523h21.187z"/><path d="M166.815 35.922h21.187c1.896 0 3.438 1.542 3.438 3.438v8.147c0 1.896-1.542 3.438-3.438 3.438h-21.187c-1.896 0-3.438-1.542-3.438-3.438V39.36c0-1.896 1.542-3.438 3.438-3.438zm21.187 13.108c.84 0 1.523-.683 1.523-1.523V39.36c0-.84-.683-1.523-1.523-1.523h-21.187c-.84 0-1.523.683-1.523 1.523v8.147c0 .84.683 1.523 1.523 1.523h21.187z"/><path d="M192.99 35.922h21.187c1.896 0 3.438 1.542 3.438 3.438v8.147c0 1.896-1.542 3.438-3.438 3.438H192.99c-1.896 0-3.438-1.542-3.438-3.438V39.36c0-1.896 1.542-3.438 3.438-3.438zm21.188 13.108c.84 0 1.523-.683 1.523-1.523V39.36c0-.84-.683-1.523-1.523-1.523h-21.187c-.84 0-1.523.683-1.523 1.523v8.147c0 .84.683 1.523 1.523 1.523h21.187z"/><path d="M219.139 35.922h21.187c1.896 0 3.438 1.542 3.438 3.438v8.147c0 1.896-1.542 3.438-3.438 3.438h-21.187c-1.896 0-3.438-1.542-3.438-3.438V39.36c0-1.896 1.542-3.438 3.438-3.438zm21.186 13.108c.84 0 1.523-.683 1.523-1.523V39.36c0-.84-.683-1.523-1.523-1.523h-21.187c-.84 0-1.523.683-1.523 1.523v8.147c0 .84.683 1.523 1.523 1.523h21.187z"/><path d="M245.291 35.922h21.187c1.896 0 3.438 1.542 3.438 3.438v8.147c0 1.896-1.542 3.438-3.438 3.438h-21.187c-1.896 0-3.438-1.542-3.438-3.438V39.36c0-1.896 1.542-3.438 3.438-3.438zm21.187 13.108c.84 0 1.523-.683 1.523-1.523V39.36c0-.84-.683-1.523-1.523-1.523h-21.187c-.84 0-1.523.683-1.523 1.523v8.147c0 .84.683 1.523 1.523 1.523h21.187z"/><use href="#AD"/><path d="M297.614 35.922h21.187c1.896 0 3.438 1.542 3.438 3.438v8.147c0 1.896-1.542 3.438-3.438 3.438h-21.187c-1.896 0-3.438-1.542-3.438-3.438V39.36c0-1.896 1.542-3.438 3.438-3.438zm21.188 13.108c.84 0 1.523-.683 1.523-1.523V39.36c0-.84-.683-1.523-1.523-1.523h-21.187c-.84 0-1.523.683-1.523 1.523v8.147c0 .84.683 1.523 1.523 1.523h21.187z"/><path d="M323.762 35.922h21.187c1.896 0 3.438 1.542 3.438 3.438v8.147c0 1.896-1.542 3.438-3.438 3.438h-21.187c-1.895 0-3.437-1.542-3.437-3.438V39.36c0-1.896 1.542-3.438 3.437-3.438zm21.187 13.108c.84 0 1.523-.683 1.523-1.523V39.36c0-.84-.683-1.523-1.523-1.523h-21.187c-.84 0-1.523.683-1.523 1.523v8.147c0 .84.683 1.523 1.523 1.523h21.187z"/><path d="M349.879 35.922h21.187c1.896 0 3.438 1.542 3.438 3.438v8.147c0 1.896-1.542 3.438-3.438 3.438h-21.187c-1.896 0-3.438-1.542-3.438-3.438V39.36c0-1.896 1.542-3.438 3.438-3.438zm21.188 13.108c.84 0 1.523-.683 1.523-1.523V39.36c0-.84-.683-1.523-1.523-1.523H349.88c-.84 0-1.523.683-1.523 1.523v8.147c0 .84.683 1.523 1.523 1.523h21.187z"/><path d="M376.028 35.922h21.187c1.896 0 3.438 1.542 3.438 3.438v8.147c0 1.896-1.542 3.438-3.438 3.438h-21.187c-1.896 0-3.438-1.542-3.438-3.438V39.36c0-1.896 1.542-3.438 3.438-3.438zm21.187 13.108c.84 0 1.523-.683 1.523-1.523V39.36c0-.84-.683-1.523-1.523-1.523h-21.187c-.84 0-1.523.683-1.523 1.523v8.147c0 .84.683 1.523 1.523 1.523h21.187zM127.566-3.403h21.187c1.896 0 3.438 1.542 3.438 3.438v8.147c0 1.896-1.542 3.438-3.438 3.438h-21.187c-1.896 0-3.438-1.542-3.438-3.438V.035c0-1.896 1.542-3.438 3.438-3.438zm21.187 13.109c.84 0 1.523-.683 1.523-1.523V.035c0-.84-.683-1.523-1.523-1.523h-21.187c-.84 0-1.523.683-1.523 1.523v8.147c0 .84.683 1.523 1.523 1.523h21.187zM-3.171-3.403h21.187c1.896 0 3.438 1.542 3.438 3.438v8.147c0 1.896-1.542 3.438-3.438 3.438H-3.171c-1.896 0-3.438-1.542-3.438-3.438V.035c0-1.896 1.542-3.438 3.438-3.438zM18.016 9.706c.84 0 1.523-.683 1.523-1.523V.035c0-.84-.683-1.523-1.523-1.523H-3.171c-.84 0-1.523.683-1.523 1.523v8.147c0 .84.683 1.523 1.523 1.523h21.187z"/><path d="M23.004-3.403h21.187c1.896 0 3.438 1.542 3.438 3.438v8.147c0 1.896-1.542 3.438-3.438 3.438H23.004c-1.896 0-3.438-1.542-3.438-3.438V.035c0-1.896 1.542-3.438 3.438-3.438zM44.191 9.706c.84 0 1.523-.683 1.523-1.523V.035c0-.84-.683-1.523-1.523-1.523H23.004c-.84 0-1.523.683-1.523 1.523v8.147c0 .84.683 1.523 1.523 1.523h21.187z"/><path d="M49.152-3.403h21.187c1.896 0 3.438 1.542 3.438 3.438v8.147c0 1.896-1.542 3.438-3.438 3.438H49.152c-1.896 0-3.438-1.542-3.438-3.438V.035c0-1.896 1.542-3.438 3.438-3.438zM70.339 9.706c.84 0 1.523-.683 1.523-1.523V.035c0-.84-.683-1.523-1.523-1.523H49.152c-.84 0-1.523.683-1.523 1.523v8.147c0 .84.683 1.523 1.523 1.523h21.187z"/><path d="M75.269-3.403h21.187c1.896 0 3.438 1.542 3.438 3.438v8.147c0 1.896-1.542 3.438-3.438 3.438H75.269c-1.896 0-3.438-1.542-3.438-3.438V.035c0-1.896 1.542-3.438 3.438-3.438zM96.457 9.706c.84 0 1.523-.683 1.523-1.523V.035c0-.84-.683-1.523-1.523-1.523H75.27c-.84 0-1.523.683-1.523 1.523v8.147c0 .84.683 1.523 1.523 1.523h21.187z"/><path d="M101.418-3.403h21.187c1.896 0 3.438 1.542 3.438 3.438v8.147c0 1.896-1.542 3.438-3.438 3.438h-21.187c-1.896 0-3.438-1.542-3.438-3.438V.035c0-1.896 1.542-3.438 3.438-3.438zm21.187 13.109c.84 0 1.523-.683 1.523-1.523V.035c0-.84-.683-1.523-1.523-1.523h-21.187c-.84 0-1.523.683-1.523 1.523v8.147c0 .84.683 1.523 1.523 1.523h21.187zm-138.868 0H4.924c1.896 0 3.438 1.542 3.438 3.438v8.147c0 1.896-1.542 3.438-3.438 3.438h-21.187c-1.896 0-3.438-1.542-3.438-3.438v-8.147c0-1.896 1.542-3.438 3.438-3.438zM4.924 22.814c.84 0 1.523-.683 1.523-1.523v-8.147c0-.84-.683-1.523-1.523-1.523h-21.187c-.84 0-1.523.683-1.523 1.523v8.147c0 .84.683 1.523 1.523 1.523H4.924z"/><path d="M9.885,9.706h21.187c1.896,0,3.438,1.542,3.438,3.438v8.147c0,1.896-1.542,3.438-3.438,3.438H9.885c-1.896,0-3.438-1.542-3.438-3.438v-8.147c0-1.896,1.542-3.438,3.438-3.438ZM31.073,22.814c.84,0,1.523-.683,1.523-1.523v-8.147c0-.84-.683-1.523-1.523-1.523H9.885c-.84,0-1.523.683-1.523,1.523v8.147c0,.84.683,1.523,1.523,1.523h21.187Z"/><path d="M36.06 9.706h21.187c1.896 0 3.438 1.542 3.438 3.438v8.147c0 1.896-1.542 3.438-3.438 3.438H36.06c-1.896 0-3.438-1.542-3.438-3.438v-8.147c0-1.896 1.542-3.438 3.438-3.438zm21.187 13.108c.84 0 1.523-.683 1.523-1.523v-8.147c0-.84-.683-1.523-1.523-1.523H36.06c-.84 0-1.523.683-1.523 1.523v8.147c0 .84.683 1.523 1.523 1.523h21.187z"/><path d="M62.208 9.706h21.187c1.896 0 3.438 1.542 3.438 3.438v8.147c0 1.896-1.542 3.438-3.438 3.438H62.208c-1.896 0-3.438-1.542-3.438-3.438v-8.147c0-1.896 1.542-3.438 3.438-3.438zm21.188 13.108c.84 0 1.523-.683 1.523-1.523v-8.147c0-.84-.683-1.523-1.523-1.523H62.209c-.84 0-1.523.683-1.523 1.523v8.147c0 .84.683 1.523 1.523 1.523h21.187z"/><path d="M88.326 9.706h21.187c1.896 0 3.438 1.542 3.438 3.438v8.147c0 1.896-1.542 3.438-3.438 3.438H88.326c-1.896 0-3.438-1.542-3.438-3.438v-8.147c0-1.896 1.542-3.438 3.438-3.438zm21.187 13.108c.84 0 1.523-.683 1.523-1.523v-8.147c0-.84-.683-1.523-1.523-1.523H88.326c-.84 0-1.523.683-1.523 1.523v8.147c0 .84.683 1.523 1.523 1.523h21.187z"/><path d="M114.474 9.706h21.187c1.896 0 3.438 1.542 3.438 3.438v8.147c0 1.896-1.542 3.438-3.438 3.438h-21.187c-1.896 0-3.438-1.542-3.438-3.438v-8.147c0-1.896 1.542-3.438 3.438-3.438zm21.187 13.108c.84 0 1.523-.683 1.523-1.523v-8.147c0-.84-.683-1.523-1.523-1.523h-21.187c-.84 0-1.523.683-1.523 1.523v8.147c0 .84.683 1.523 1.523 1.523h21.187z"/><path d="M127.566 22.814h21.187c1.896 0 3.438 1.542 3.438 3.438v8.147c0 1.896-1.542 3.438-3.438 3.438h-21.187c-1.896 0-3.438-1.542-3.438-3.438v-8.147c0-1.896 1.542-3.438 3.438-3.438zm21.187 13.108c.84 0 1.523-.683 1.523-1.523v-8.147c0-.84-.683-1.523-1.523-1.523h-21.187c-.84 0-1.523.683-1.523 1.523v8.147c0 .84.683 1.523 1.523 1.523h21.187zM-3.171 22.814h21.187c1.896 0 3.438 1.542 3.438 3.438v8.147c0 1.896-1.542 3.438-3.438 3.438H-3.171c-1.896 0-3.438-1.542-3.438-3.438v-8.147c0-1.896 1.542-3.438 3.438-3.438zm21.187 13.108c.84 0 1.523-.683 1.523-1.523v-8.147c0-.84-.683-1.523-1.523-1.523H-3.171c-.84 0-1.523.683-1.523 1.523v8.147c0 .84.683 1.523 1.523 1.523h21.187z"/><path d="M23.004 22.814h21.187c1.896 0 3.438 1.542 3.438 3.438v8.147c0 1.896-1.542 3.438-3.438 3.438H23.004c-1.896 0-3.438-1.542-3.438-3.438v-8.147c0-1.896 1.542-3.438 3.438-3.438zm21.187 13.108c.84 0 1.523-.683 1.523-1.523v-8.147c0-.84-.683-1.523-1.523-1.523H23.004c-.84 0-1.523.683-1.523 1.523v8.147c0 .84.683 1.523 1.523 1.523h21.187z"/><path d="M49.152 22.814h21.187c1.896 0 3.438 1.542 3.438 3.438v8.147c0 1.896-1.542 3.438-3.438 3.438H49.152c-1.896 0-3.438-1.542-3.438-3.438v-8.147c0-1.896 1.542-3.438 3.438-3.438zm21.187 13.108c.84 0 1.523-.683 1.523-1.523v-8.147c0-.84-.683-1.523-1.523-1.523H49.152c-.84 0-1.523.683-1.523 1.523v8.147c0 .84.683 1.523 1.523 1.523h21.187z"/><path d="M75.269 22.814h21.187c1.896 0 3.438 1.542 3.438 3.438v8.147c0 1.896-1.542 3.438-3.438 3.438H75.269c-1.896 0-3.438-1.542-3.438-3.438v-8.147c0-1.896 1.542-3.438 3.438-3.438zm21.188 13.108c.84 0 1.523-.683 1.523-1.523v-8.147c0-.84-.683-1.523-1.523-1.523H75.27c-.84 0-1.523.683-1.523 1.523v8.147c0 .84.683 1.523 1.523 1.523h21.187z"/><path d="M101.418 22.814h21.187c1.896 0 3.438 1.542 3.438 3.438v8.147c0 1.896-1.542 3.438-3.438 3.438h-21.187c-1.896 0-3.438-1.542-3.438-3.438v-8.147c0-1.896 1.542-3.438 3.438-3.438zm21.187 13.108c.84 0 1.523-.683 1.523-1.523v-8.147c0-.84-.683-1.523-1.523-1.523h-21.187c-.84 0-1.523.683-1.523 1.523v8.147c0 .84.683 1.523 1.523 1.523h21.187zm-138.868 0H4.924c1.896 0 3.438 1.542 3.438 3.438v8.147c0 1.896-1.542 3.438-3.438 3.438h-21.187c-1.896 0-3.438-1.542-3.438-3.438V39.36c0-1.896 1.542-3.438 3.438-3.438zM4.924 49.03c.84 0 1.523-.683 1.523-1.523V39.36c0-.84-.683-1.523-1.523-1.523h-21.187c-.84 0-1.523.683-1.523 1.523v8.147c0 .84.683 1.523 1.523 1.523H4.924z"/><path d="M9.885 35.922h21.187c1.896 0 3.438 1.542 3.438 3.438v8.147c0 1.896-1.542 3.438-3.438 3.438H9.885c-1.896 0-3.438-1.542-3.438-3.438V39.36c0-1.896 1.542-3.438 3.438-3.438zM31.073 49.03c.84 0 1.523-.683 1.523-1.523V39.36c0-.84-.683-1.523-1.523-1.523H9.885c-.84 0-1.523.683-1.523 1.523v8.147c0 .84.683 1.523 1.523 1.523h21.187z"/><path d="M36.06 35.922h21.187c1.896 0 3.438 1.542 3.438 3.438v8.147c0 1.896-1.542 3.438-3.438 3.438H36.06c-1.896 0-3.438-1.542-3.438-3.438V39.36c0-1.896 1.542-3.438 3.438-3.438zM57.247 49.03c.84 0 1.523-.683 1.523-1.523V39.36c0-.84-.683-1.523-1.523-1.523H36.06c-.84 0-1.523.683-1.523 1.523v8.147c0 .84.683 1.523 1.523 1.523h21.187z"/><path d="M62.208 35.922h21.187c1.896 0 3.438 1.542 3.438 3.438v8.147c0 1.896-1.542 3.438-3.438 3.438H62.208c-1.896 0-3.438-1.542-3.438-3.438V39.36c0-1.896 1.542-3.438 3.438-3.438zM83.396 49.03c.84 0 1.523-.683 1.523-1.523V39.36c0-.84-.683-1.523-1.523-1.523H62.209c-.84 0-1.523.683-1.523 1.523v8.147c0 .84.683 1.523 1.523 1.523h21.187z"/><path d="M88.326 35.922h21.187c1.896 0 3.438 1.542 3.438 3.438v8.147c0 1.896-1.542 3.438-3.438 3.438H88.326c-1.896 0-3.438-1.542-3.438-3.438V39.36c0-1.896 1.542-3.438 3.438-3.438zm21.187 13.108c.84 0 1.523-.683 1.523-1.523V39.36c0-.84-.683-1.523-1.523-1.523H88.326c-.84 0-1.523.683-1.523 1.523v8.147c0 .84.683 1.523 1.523 1.523h21.187z"/><path d="M114.474 35.922h21.187c1.896 0 3.438 1.542 3.438 3.438v8.147c0 1.896-1.542 3.438-3.438 3.438h-21.187c-1.896 0-3.438-1.542-3.438-3.438V39.36c0-1.896 1.542-3.438 3.438-3.438zm21.187 13.108c.84 0 1.523-.683 1.523-1.523V39.36c0-.84-.683-1.523-1.523-1.523h-21.187c-.84 0-1.523.683-1.523 1.523v8.147c0 .84.683 1.523 1.523 1.523h21.187z"/></g></g><use href="#u" stroke="#52aa35" class="D K L M S"/><rect x="220.842" y="115.615" width="19.885" height="4.572" rx="2.286" fill="#3e8e20"/><g class="N"><path d="M232.088 96.399h4.702v11.755h-4.702z"/><path d="M234.439 105.803c1.298 0 2.351 1.054 2.351 2.352s-1.054 2.351-2.351 2.351a2.35 2.35 0 0 1-2.351-2.351c0-1.298 1.053-2.352 2.351-2.352z" class="B"/></g><path d="M232.088 96.399h4.702v7.053h-4.702z" class="W"/><g class="N"><path d="M232.088 108.155h4.702v7.866h-4.702z"/><path d="M232.088 110.378h4.702v5.643h-4.702zm-7.053-13.979h4.702v11.755h-4.702z"/></g><path d="M225.035 96.399h4.702v7.053h-4.702z" class="W"/><g class="N"><path d="M227.386 105.803c1.298 0 2.351 1.054 2.351 2.352s-1.054 2.351-2.351 2.351-2.351-1.053-2.351-2.351 1.054-2.352 2.351-2.352z" class="B"/><path d="M225.035 108.155h4.702v7.866h-4.702z"/><path d="M225.035 110.378h4.702v5.643h-4.702z"/></g><path d="M225.034 96.399h11.755v3.527h-11.755z" class="W"/><g fill="#913f71"><path d="M222.683 116.02h7.053v1.881h-7.053zm9.405 0h7.053v1.881h-7.053z"/></g><g class="B"><path d="M242.08 66.921c0-1.703-1.381-3.085-3.084-3.085h-15.461c-1.704 0-3.085 1.382-3.085 3.085v23.818h21.63V66.921z" fill="#0f2220"/><path d="M236.444 80.934a.47.47 0 0 0-.635.205l-1.176 2.3a.47.47 0 0 0 .205.634l10.256 5.244 1.606-3.14-10.256-5.244z" class="N"/><path d="M236.444 80.934a.47.47 0 0 0-.635.205l-1.176 2.3a.47.47 0 0 0 .205.634l3.348 1.712 1.606-3.14-3.348-1.712z" class="X"/><path d="M226.208 84.409c.125 0 .245-.05.334-.138a.47.47 0 0 0 .138-.334v-2.583c0-.125-.05-.245-.138-.334a.47.47 0 0 0-.334-.138h-11.519v3.527h11.519z" class="N"/></g><circle cx="214.689" cy="82.645" r="1.763" fill="#4cb08e"/><g class="B"><path d="M226.208 84.409a.47.47 0 0 0 .472-.472v-2.583a.47.47 0 0 0-.472-.472h-3.76v3.527h3.76z" class="X"/><g class="N"><path d="M234.675 91.539a.61.61 0 0 0-.291.368.62.62 0 0 0 .054.467l1.119 2.009a.61.61 0 0 0 .368.291c.156.044.324.025.466-.054l9.939-5.537-1.716-3.08-9.939 5.537z"/><path d="M243.931 88.4c-.474-.85-.168-1.925.682-2.398s1.925-.168 2.399.682.168 1.925-.682 2.398-1.925.169-2.399-.682zm-24.55-16.358c.042-.157.02-.324-.061-.466a.6.6 0 0 0-.373-.285l-2.221-.596c-.157-.042-.325-.02-.466.061s-.244.216-.286.373l-2.945 10.989 3.407.913 2.945-10.99z"/><path d="M215.189 80.872c.94.253 1.499 1.22 1.247 2.16s-1.219 1.498-2.16 1.246-1.499-1.219-1.247-2.16 1.22-1.499 2.16-1.247z"/></g><path d="M236.79 81.595a.71.71 0 0 0-.713-.712h-10.33c-.19 0-.37.075-.504.208a.71.71 0 0 0-.209.504V96.4h11.756V81.595z" class="X"/></g><path d="M228.561 78.531h4.702v2.351h-4.702z" fill="#6221ad"/><g class="B"><g class="N"><path d="M238.377 70.594c0-.563-.224-1.104-.622-1.502a2.12 2.12 0 0 0-1.502-.623h-11.15c-.563 0-1.104.224-1.503.623s-.622.939-.622 1.502v5.813c0 .563.224 1.104.622 1.502s.939.623 1.503.623h11.15a2.12 2.12 0 0 0 1.502-.623c.398-.398.622-.939.622-1.502v-5.813z"/><path d="M239.513 71.642c1.382-.034 2.532 1.06 2.566 2.442s-1.06 2.531-2.442 2.566-2.532-1.059-2.566-2.442 1.06-2.531 2.441-2.566z"/></g><g fill="#0f2220"><path d="M238.389 71.934h-2.406c-.853 0-1.544-.691-1.544-1.544v-1.983h3.95v3.527zm-9.021 0h-7.39v-3.527h8.934v1.983c0 .853-.691 1.544-1.544 1.544z"/></g></g><g fill="#0d1c1c"><rect x="232.499" y="72.782" width="1.529" height="3.088" rx=".255"/><rect x="225.916" y="72.782" width="1.529" height="3.088" rx=".255"/></g><path d="M768.459 158.458l-44.316-39.232h-2.913l-44.316 39.232v36.297a3.21 3.21 0 0 0 .942 2.273c.606.605 1.424.944 2.278.944h85.105c.854 0 1.672-.339 2.278-.944s.942-1.42.942-2.273v-36.297z" fill="#fbeb8c" class="B"/><g clip-path="url(#T)"><g fill="#f2d861"><path d="M674.221 141.477h96.93v8.071h-96.93zm0-16.141h96.93v8.071h-96.93z"/></g><path d="M672.875 165.28l49.811-41.289 50.304 41.698" stroke="#cfb43a" stroke-linejoin="bevel" stroke-width="8.074" class="D"/></g><path d="M717.301 141.512h10.77v13.451h-10.77z" fill="#6dbaa1"/><path d="M717.301 138.785h10.77v2.728h-10.77z" fill="#4e9980"/><g stroke="#6a8c40" stroke-width="9.689" class="D K L"><use href="#AE"/><path d="M673.48 146.858l49.206-41.161m-49.206 29.055l49.206-41.161"/><use href="#AF"/><path d="M771.891 146.858l-49.205-41.161m49.205 29.055l-49.205-41.161"/></g><path d="M722.68 86.328h.012c2.263 0 4.1 1.837 4.1 4.1v35.378c0 2.265-1.839 4.103-4.103 4.103h-.009c-2.263 0-4.1-1.837-4.1-4.1V90.427c0-2.263 1.837-4.1 4.1-4.1z" fill="#507524"/><path d="M802.342 125.602h19.482l5.28 48.175c.293 2.67-1.8 5.002-4.488 5.002h-21.16c-2.692 0-4.786-2.338-4.487-5.011l5.374-48.166z" class="P"/><g clip-path="url(#U)" class="B Q"><path d="M812.02 160.426l15.926-11.596c8.796-6.405 9.791-19.145 2.094-26.835l-5.571-5.566h-24.898L794 121.995c-7.696 7.69-6.702 20.43 2.094 26.835l15.926 11.596z"/></g><path d="M812.034 123.851c0 6.888-2.738 13.497-7.615 18.369s-11.49 7.608-18.388 7.608h-26.152v-17.174c0-6.892 2.738-13.5 7.615-18.372s11.49-7.608 18.388-7.608h26.152v17.177z" class="B J"/><g clip-path="url(#V)"><path d="M812.034 106.674l-58.201 49.746h58.201v-49.746z" class="B C"/><path d="M757.83 146.7l52.126-42.572 4.121 5.046-52.126 42.572z" class="H"/><g class="B"><g class="F"><path d="M781.611 152.642h6.519v-10.956a3.26 3.26 0 0 0-6.52 0v10.956zm13.038.482h6.519v-21.619c0-1.798-1.457-3.254-3.256-3.254h-.007c-1.799 0-3.256 1.456-3.256 3.254v21.619z" class="E"/></g><g class="C"><path d="M759.88 131.57v-6.169h9.952c.818 0 1.604.326 2.184.905a3.08 3.08 0 0 1 .903 2.179h0a3.09 3.09 0 0 1-.903 2.182c-.58.58-1.366.902-2.184.902h-9.952zm0-12.683v-6.514h19.561c1.799 0 3.256 1.456 3.256 3.254v.007c0 1.798-1.457 3.254-3.256 3.254H759.88z" class="I"/></g></g></g><path d="M812.034 123.851c0 6.888 2.738 13.497 7.615 18.369s11.49 7.608 18.388 7.608h26.152v-17.174c0-6.892-2.738-13.5-7.615-18.372s-11.49-7.608-18.388-7.608h-26.152v17.177z" class="B J"/><g clip-path="url(#W)"><path d="M812.034 106.674l58.202 49.746h-58.202v-49.746z" class="B C"/><path d="M809.971 109.196l4.118-5.049 52.156 42.536-4.118 5.049z" class="H"/><g class="B"><g class="F"><path d="M842.458 152.642h-6.519v-10.956a3.26 3.26 0 0 1 6.52 0v10.956zm-13.039.482H822.9v-21.616c0-.863.342-1.69.955-2.303a3.27 3.27 0 0 1 4.61 0 3.25 3.25 0 0 1 .955 2.303v21.616z" class="E"/></g><g class="C"><path d="M864.189 131.915v-6.514h-9.782c-.864 0-1.692.342-2.301.954a3.24 3.24 0 0 0-.955 2.299v.007c0 .863.342 1.69.955 2.303s1.437.951 2.301.951h9.782zm0-13.028v-6.514h-19.558a3.27 3.27 0 0 0-2.305.954 3.25 3.25 0 0 0-.955 2.303c0 .863.342 1.694.955 2.303s1.441.954 2.305.954h19.558z" class="I"/></g></g></g><path d="M812.02 149.828l15.621-11.374c8.628-6.282 9.603-18.778 2.054-26.321l-5.464-5.46H799.81l-5.464 5.46c-7.549 7.543-6.574 20.038 2.054 26.321l15.621 11.374z" class="B H"/><g clip-path="url(#X)"><path d="M812.02 151.432h-24.644v-46.735h24.644z" class="C"/><path d="M808.773 101.969h6.519v56.807h-6.519z" class="R"/><g class="E C"><path d="M835.148 130.469c1.061 0 2.105-.517 2.729-1.469.989-1.505.569-3.524-.938-4.51l-13.251-8.685a3.26 3.26 0 0 0-4.512.935c-.989 1.505-.569 3.524.938 4.51l13.251 8.685a3.23 3.23 0 0 0 1.783.534z"/></g><g class="E F"><path d="M788.922 130.469a3.24 3.24 0 0 0 1.783-.534l13.247-8.685c1.507-.986 1.927-3.005.938-4.51-.985-1.499-2.992-1.93-4.512-.935l-13.247 8.685c-1.507.986-1.927 3.005-.938 4.51.624.952 1.668 1.469 2.729 1.469z"/></g><path d="M835.148 145.321c1.061 0 2.105-.517 2.729-1.469.989-1.505.569-3.524-.938-4.51l-13.251-8.685a3.26 3.26 0 0 0-4.512.935c-.989 1.505-.569 3.524.938 4.51l13.251 8.685a3.23 3.23 0 0 0 1.783.534z" class="C E"/><g class="E F"><path d="M788.922 145.321a3.24 3.24 0 0 0 1.783-.534l13.247-8.685c1.507-.986 1.927-3.005.938-4.51-.985-1.499-2.992-1.93-4.512-.935l-13.247 8.685c-1.507.986-1.927 3.005-.938 4.51.624.952 1.668 1.469 2.729 1.469z"/></g></g><path d="M798.184 105.357h.001a.99.99 0 0 1 1.326.444l2.82 5.659a.99.99 0 0 1-.444 1.328h-.001a.99.99 0 0 1-1.326-.444l-2.82-5.659a.99.99 0 0 1 .444-1.328z" class="Y"/><path d="M798.878 104.556h0a.99.99 0 0 1 1.352.362l3.163 5.474a.99.99 0 0 1-.362 1.354h0a.99.99 0 0 1-1.351-.362l-3.164-5.475a.99.99 0 0 1 .362-1.354z" fill="#e9b63e"/><path d="M798.743 104.498h0a.99.99 0 0 1 1.399-.001l4.474 4.47a.99.99 0 0 1 .001 1.401h0a.99.99 0 0 1-1.399.001l-4.474-4.47a.99.99 0 0 1-.001-1.401z" class="Y"/><path d="M799.185 104.491h0a.99.99 0 0 1 1.371-.277l5.27 3.499a.99.99 0 0 1 .277 1.374h0a.99.99 0 0 1-1.371.277l-5.27-3.499a.99.99 0 0 1-.277-1.374z" fill="#e9b63e"/><g fill="#adadad"><use href="#AG"/><use href="#AH"/></g><use href="#AI" fill="#367d8f"/><g fill="#bfcad0"><path d="M795.401,108.369h-3.898c-.401,0-.726-.325-.726-.726s.325-.726.726-.726h3.898c.401,0,.726.325.726.726s-.325.726-.726.726Z"/><path d="M793.693,108.369c-.401,0-.726-.325-.726-.726v-1.707c0-.401.325-.726.726-.726s.726.325.726.726v1.707c0,.401-.325.726-.726.726Z"/></g><path d="M793.771 106.417h0a1.07 1.07 0 0 1-1.07-1.069l-.718-3.896 3.42.589-.562 3.307a1.07 1.07 0 0 1-1.07 1.069z" fill="#50afcb"/><path d="M801.323 105.607l-5.576-10.378c-.296-.493-1.001-1.302-1.359-1.694-.676-.741-2.852-2.915-5.15-3.782-1.333-.503-2.9-.003-3.812.874-.629.605-1.137 1.697-.893 2.679s1.881 1.762 2.862 2.027l.034.009c.727.196 1.236.864 1.187 1.609-.09 1.377.664 2.624 1.871 3.556 2.347 1.811 8.558 7.028 8.558 7.028.592.503 1.469.476 2.028-.062a1.51 1.51 0 0 0 .249-1.866z" fill="#4190b4"/><path d="M801.768,104.874l-5.38-1.936c-2.93-1.054-5.246-3.344-6.334-6.259h0c-.901-2.415,1.719-4.63,3.953-3.344l2.913,1.677c2.192,1.262,3.86,3.266,4.701,5.65l1.139,3.227c.217.615-.378,1.205-.992.984Z" fill="#c32944"/><circle cx="786.991" cy="92.6" r="2.52" fill="#fff"/><path d="M786.679 94.102l.279.279c.501.501 1.314.501 1.815 0h0l-1.252 1.251a1.68 1.68 0 0 1-2.373 0l1.531-1.529z" fill="#6e7f94"/><g fill="#989ebc"><path d="M785.21 92.634a1.28 1.28 0 0 1 0-1.813h0c-.151.151.026-.026-.591.591a3.35 3.35 0 0 0-.156 4.575c.082.094.229.093.317.005l1.895-1.894-1.465-1.464z"/><circle cx="786.436" cy="91.785" r=".768"/></g><circle cx="786.436" cy="91.785" r=".476" fill="#2b2220"/><g clip-path="url(#Y)" class="Y"><path d="M783.671 94.669l-1.167.082a1.74 1.74 0 0 1-1.857-1.613l-.082-1.166a1.74 1.74 0 0 1 1.614-1.855l4.538-.317s-1.591.922-1.5 2.046l.068.968a1.74 1.74 0 0 1-1.614 1.855z"/></g></g></svg>