<svg xmlns="http://www.w3.org/2000/svg" width="1500" height="145" xmlns:v="https://vecta.io/nano"><style><![CDATA[.B{fill-rule:evenodd}.C{fill:none}.D{fill:#fff}.E{clip-rule:evenodd}.F{fill:#bee23b}.G{opacity:.678}.H{stroke-linecap:round}.I{fill:#071c1c}.J{stroke-linejoin:round}.K{opacity:.598}.L{fill:#d1f4f0}.M{fill:#dcebf1}.N{fill:#99bb31}.O{fill:#afd33d}.P{fill:#c9460f}.Q{stroke-width:10}.R{stroke-miterlimit:1.5}.S{fill:#86a426}.T{opacity:.371}.U{fill:#d9f3f2}.V{opacity:.55}.W{fill:#cf622b}.X{stroke:#c8ff34}.Y{stroke-width:1.293}.Z{stroke:#373d5f}.a{fill:#394319}.b{fill:#8eb029}.c{fill:#9fe3e0}.d{fill:#d1d1d1}.e{fill:#cfece9}.f{fill:#00a7f3}.g{stroke-width:1.725}.h{fill:#9f2800}.i{stroke-width:2.329}.j{stroke-dasharray:0 10.243}.k{stroke-width:2.682}.l{stroke-linejoin:bevel}.m{stroke-width:6.56}]]></style><defs><clipPath id="A"><path d="M0 0h1500v145H0z" class="C"/></clipPath><clipPath id="B"><path d="M54.704 41.245a4.06 4.06 0 0 1 3.431-1.894c1.386 0 2.676.714 3.431 1.894l22.427 35.302c0 10.472-11.584 18.982-25.858 18.982s-25.858-8.51-25.858-18.982l22.427-35.302z" class="C E"/></clipPath><clipPath id="C"><path d="M55.294 33.134a4.08 4.08 0 0 1 3.418-1.853c1.373 0 2.663.7 3.404 1.853l18.31 28.356c0 8.661-9.731 15.702-21.713 15.702-11.996 0-21.727-7.041-21.727-15.702l18.31-28.356z" class="C E"/></clipPath><clipPath id="D"><path d="M54.923 24.61c.714-1.07 1.921-1.716 3.212-1.716s2.498.645 3.212 1.716l13.478 20.245c0 3.761-2.539 7.11-6.492 9.251-2.814 1.523-6.355 2.443-10.198 2.443-9.21 0-16.69-5.243-16.69-11.694L54.923 24.61z" class="C E"/></clipPath><clipPath id="E"><path d="M1405.528 67.521a2.47 2.47 0 0 0-3.375-.903l-8.11 4.682a2.47 2.47 0 0 0-.904 3.374l7.147 12.38 12.947-6.187-7.705-13.346z" class="C E"/></clipPath><clipPath id="F"><path d="M1166.054 82.181l-36.034-29.825h-2.274l-36.034 29.825v29.492c0 .693.262 1.358.766 1.85a2.6 2.6 0 0 0 1.837.765h69.116a2.65 2.65 0 0 0 1.859-.765 2.66 2.66 0 0 0 .765-1.85V82.181z" class="C E"/></clipPath><clipPath id="G"><path d="M1078.879 169.356l-36.034-29.825h-2.274l-36.034 29.825v29.492c0 .693.262 1.358.766 1.85a2.6 2.6 0 0 0 1.837.765h69.116a2.65 2.65 0 0 0 1.859-.765 2.66 2.66 0 0 0 .765-1.85v-29.492z" class="C E"/></clipPath><clipPath id="H"><path d="M1125.908 159.712a4.13 4.13 0 0 1 3.492-1.927 4.15 4.15 0 0 1 3.492 1.927l22.821 35.921c0 10.656-11.787 19.315-26.312 19.315s-26.312-8.659-26.312-19.315l22.821-35.921z" class="C E"/></clipPath><clipPath id="I"><path d="M1126.509 151.458a4.15 4.15 0 0 1 3.478-1.886c1.397 0 2.709.712 3.464 1.886l18.631 28.854c0 8.813-9.902 15.977-22.095 15.977-12.207 0-22.109-7.165-22.109-15.977l18.631-28.854z" class="C E"/></clipPath><clipPath id="J"><path d="M1126.132 142.785a3.93 3.93 0 0 1 6.536 0l13.715 20.6c0 3.827-2.584 7.235-6.606 9.413-2.863 1.55-6.466 2.486-10.377 2.486-9.371 0-16.983-5.335-16.983-11.899l13.715-20.6z" class="C E"/></clipPath><clipPath id="K"><path d="M866.579 64.421a4.13 4.13 0 0 1 3.492-1.927 4.15 4.15 0 0 1 3.492 1.927l22.821 35.921c0 10.656-11.787 19.315-26.312 19.315s-26.312-8.659-26.312-19.315l22.821-35.921z" class="C E"/></clipPath><clipPath id="L"><path d="M867.179 56.167a4.15 4.15 0 0 1 3.478-1.886c1.397 0 2.709.712 3.464 1.886l18.631 28.854c0 8.813-9.902 15.977-22.095 15.977-12.207 0-22.109-7.165-22.109-15.977l18.631-28.854z" class="C E"/></clipPath><clipPath id="M"><path d="M866.802 47.494a3.93 3.93 0 0 1 6.536 0l13.715 20.6c0 3.827-2.584 7.235-6.606 9.413-2.863 1.55-6.466 2.486-10.377 2.486-9.371 0-16.983-5.335-16.983-11.899l13.715-20.6z" class="C E"/></clipPath><clipPath id="N"><path d="M1213.778 109.235a4.13 4.13 0 0 1 3.492-1.927 4.15 4.15 0 0 1 3.492 1.927l22.821 35.921c0 10.656-11.787 19.315-26.312 19.315s-26.312-8.659-26.312-19.315l22.821-35.921z" class="C E"/></clipPath><clipPath id="O"><path d="M1214.378 100.981a4.15 4.15 0 0 1 3.478-1.886c1.397 0 2.709.712 3.464 1.886l18.631 28.854c0 8.813-9.902 15.977-22.095 15.977-12.207 0-22.109-7.165-22.109-15.977l18.631-28.854z" class="C E"/></clipPath><clipPath id="P"><path d="M1214.001 92.307a3.93 3.93 0 0 1 6.536 0l13.715 20.6c0 3.827-2.584 7.235-6.606 9.413-2.863 1.55-6.466 2.486-10.377 2.486-9.371 0-16.983-5.335-16.983-11.899l13.715-20.6z" class="C E"/></clipPath><clipPath id="Q"><path d="M1275.345 163.027a4.15 4.15 0 0 1 3.478-1.886c1.397 0 2.709.712 3.464 1.886l18.631 28.854c0 8.813-9.902 15.977-22.095 15.977-12.207 0-22.109-7.165-22.109-15.977l18.631-28.854z" class="C E"/></clipPath><clipPath id="R"><path d="M1144.519 128.46c-.049 1.441-1.231 2.585-2.674 2.585l-.378-.026.247-7.345h.379c.678 0 1.326.275 1.798.762a2.5 2.5 0 0 1 .701 1.822l-.073 2.202z" class="C"/></clipPath><clipPath id="S"><path d="M1144.646 131.02l-3.385-.01-2.831 2.832.004.627h6.061l.151-3.449z" class="C E"/></clipPath><clipPath id="T"><path d="M1147.957 131.02l3.385-.01 2.832 2.832-.004.627h-6.062l-.151-3.449z" class="C E"/></clipPath><clipPath id="U"><path d="M1141.765 112.912h9.083l.833 15.278a.86.86 0 0 1-.861.909h-2.78c-.476 0-.862-.386-.862-.863l.006-12.738h-1.737l.013 12.738c0 .477-.386.863-.862.863h-2.82c-.495 0-.888-.416-.861-.91l.849-15.278z" class="C E"/></clipPath><path id="V" d="M527.618 9.922h1.695v4.238h-1.695z"/><path id="W" d="M1073.249 80.146h7.417a12.04 12.04 0 0 0 7.836-2.899l10.666-9.142a15.42 15.42 0 0 1 19.666-.333l9.238 7.391c4.033 3.226 9.043 4.984 14.207 4.984h3.894"/><path id="X" d="M1089.525 81.482h78.715v6.56h-78.715z"/><path id="Y" d="M1144.188 96.787h13.119v10.933h-13.119z"/><path id="Z" d="M1100.458 105.503h13.119v2.217h-13.119z"/><path id="a" d="M1126.858 143.79c.782-.922 1.927-1.439 3.129-1.439s2.346.517 3.128 1.439c6.969 8.128 23.184 28.086 23.184 37.835 0 10.67-11.788 19.329-26.312 19.329s-26.327-8.659-26.327-19.329c0-9.748 16.215-29.706 23.198-37.835z"/><path id="b" d="M1126.509 126.905a4.07 4.07 0 0 1 3.478-1.927 4.11 4.11 0 0 1 3.478 1.927c6.229 9.553 18.617 29.832 18.617 39.985 0 11.634-9.902 21.089-22.095 21.089-12.207 0-22.109-9.455-22.109-21.089 0-10.153 12.402-30.432 18.631-39.985z"/><path id="c" d="M1126.132 142.785a3.93 3.93 0 0 1 6.536 0l13.715 20.6c0 3.827-2.584 7.235-6.606 9.413-2.863 1.55-6.466 2.486-10.377 2.486-9.371 0-16.983-5.335-16.983-11.899l13.715-20.6z"/><path id="d" d="M846.132 96.599c.684-1.089 2.137-1.397 3.212-.712 1.089.698 1.411 2.151.712 3.226l-5 7.807c-.684 1.089-2.137 1.411-3.212.712a2.33 2.33 0 0 1-.712-3.226l5-7.807z"/><path id="e" d="M866.579 64.421a4.13 4.13 0 0 1 3.492-1.927 4.15 4.15 0 0 1 3.492 1.927l22.821 35.921c0 10.656-11.787 19.315-26.312 19.315s-26.312-8.659-26.312-19.315l22.821-35.921z"/><path id="f" d="M854.149 100.789c.377-1.229 1.69-1.913 2.919-1.536a2.34 2.34 0 0 1 1.522 2.933l-.978 3.114a2.34 2.34 0 0 1-2.933 1.522c-1.229-.377-1.913-1.69-1.522-2.919l.992-3.114z"/><path id="g" d="M848.381 96.39a2.33 2.33 0 1 1 4.036 2.332l-2.109 3.659a2.33 2.33 0 1 1-4.036-2.332l2.109-3.659z"/><path id="h" d="M891.383 96.264a2.33 2.33 0 1 0-4.036 2.332l2.109 3.659c.642 1.117 2.081 1.494 3.198.852 1.103-.643 1.494-2.067.852-3.184l-2.123-3.659z"/><path id="i" d="M867.179 56.167a4.15 4.15 0 0 1 3.478-1.886c1.397 0 2.709.712 3.464 1.886l18.631 28.854c0 8.813-9.902 15.977-22.095 15.977-12.207 0-22.109-7.165-22.109-15.977l18.631-28.854z"/><path id="j" d="M867.542 37.969c.782-.908 1.913-1.425 3.115-1.425a4.12 4.12 0 0 1 3.114 1.425c6.089 7.039 18.98 22.877 18.98 30.712 0 8.827-9.902 15.977-22.095 15.977-12.207 0-22.109-7.151-22.109-15.977 0-7.835 12.891-23.673 18.994-30.712z"/><path id="k" d="M882.57 82.801c-.642-1.117-.265-2.556.852-3.198s2.542-.251 3.184.852l2.332 4.05c.656 1.117.265 2.542-.852 3.184a2.33 2.33 0 0 1-3.184-.852l-2.332-4.036z"/><path id="l" d="M877.039 91.32c-.433-1.215.224-2.542 1.439-2.975 1.215-.419 2.542.237 2.961 1.453l.768 2.207a2.33 2.33 0 0 1-1.438 2.961c-1.215.419-2.556-.223-2.975-1.438l-.754-2.207z"/><path id="m" d="M867.082 89.323a2.34 2.34 0 0 1 2.346-2.332c1.285 0 2.332 1.047 2.332 2.332v2.332c0 1.299-1.047 2.332-2.332 2.332a2.33 2.33 0 0 1-2.346-2.332v-2.332z"/><path id="n" d="M857.906 89.714a2.34 2.34 0 0 1 3.031-1.327c1.201.461 1.788 1.816 1.327 3.017l-.852 2.179c-.461 1.201-1.816 1.788-3.017 1.327-1.201-.475-1.802-1.816-1.327-3.017l.838-2.179z"/><path id="o" d="M854.247 79.672c.656-1.103 2.081-1.494 3.198-.852s1.494 2.081.852 3.198l-2.025 3.492a2.33 2.33 0 1 1-4.036-2.332l2.011-3.506z"/><path id="p" d="M869.316 57.284c-.349-1.243.377-2.528 1.62-2.877s2.528.377 2.877 1.62l.196.671c.335 1.243-.391 2.528-1.62 2.877-1.243.349-2.528-.377-2.877-1.62l-.196-.67z"/><path id="q" d="M874.749 62.438a2.34 2.34 0 0 1 1.117-3.114c1.159-.545 2.556-.056 3.1 1.117l1.006 2.109c.545 1.159.056 2.556-1.117 3.1-1.159.559-2.556.056-3.101-1.103l-1.006-2.109z"/><path id="r" d="M867.082 65.985a2.34 2.34 0 0 1 2.346-2.332c1.285 0 2.332 1.047 2.332 2.332v2.332a2.34 2.34 0 0 1-2.332 2.346 2.34 2.34 0 0 1-2.346-2.346v-2.332z"/><path id="s" d="M862.389 58.136c.642-1.117 2.081-1.494 3.184-.852a2.35 2.35 0 0 1 .852 3.198l-1.173 2.011a2.35 2.35 0 0 1-3.198.852c-1.103-.656-1.494-2.081-.838-3.198l1.173-2.011z"/><path id="t" d="M872.989 79.812c0-1.299-1.047-2.332-2.332-2.332s-2.332 1.033-2.332 2.332v.182c0 1.285 1.047 2.332 2.332 2.332s2.332-1.047 2.332-2.332v-.182z"/><path id="u" d="M885.391 74.128c-.489-1.201-1.857-1.774-3.045-1.285-1.201.475-1.774 1.844-1.285 3.031l.07.182c.489 1.187 1.843 1.76 3.045 1.285a2.36 2.36 0 0 0 1.285-3.045l-.07-.168z"/><path id="v" d="M855.154 74.1c.489-1.187 1.858-1.774 3.045-1.285a2.33 2.33 0 0 1 1.285 3.045l-.07.168c-.489 1.187-1.843 1.774-3.031 1.285a2.33 2.33 0 0 1-1.285-3.045l.056-.168z"/><path id="w" d="M888.841 68.388c-.698-1.089-2.137-1.397-3.226-.712a2.33 2.33 0 0 0-.698 3.226l.098.154c.698 1.089 2.137 1.397 3.226.712 1.075-.698 1.397-2.151.698-3.226l-.098-.154z"/><path id="x" d="M894.623 85.58c-.698-1.089-2.137-1.397-3.226-.712a2.33 2.33 0 0 0-.698 3.226l.098.154a2.33 2.33 0 0 0 3.226.712 2.34 2.34 0 0 0 .698-3.226l-.098-.154z"/><path id="y" d="M887.025 95.817a2.34 2.34 0 0 0-3.226-.698c-1.089.698-1.397 2.137-.698 3.226l.098.154c.684 1.075 2.137 1.397 3.226.698a2.34 2.34 0 0 0 .698-3.226l-.098-.154z"/><path id="z" d="M853.828 95.817a2.34 2.34 0 0 1 3.226-.698 2.34 2.34 0 0 1 .698 3.226l-.098.154a2.34 2.34 0 0 1-3.226.698c-1.089-.698-1.397-2.137-.698-3.226l.098-.154z"/><path id="AA" d="M881.83 98.932c-.377-1.229-1.69-1.927-2.919-1.55s-1.927 1.69-1.536 2.919l.056.182a2.32 2.32 0 0 0 2.905 1.536c1.243-.377 1.927-1.69 1.55-2.919l-.056-.168z"/><path id="AB" d="M859.023 98.932a2.34 2.34 0 0 1 2.919-1.55c1.229.377 1.914 1.69 1.536 2.919l-.056.182c-.377 1.229-1.69 1.913-2.919 1.536s-1.913-1.69-1.536-2.919l.056-.168z"/><path id="AC" d="M875.755 101.166c-.14-1.285-1.299-2.207-2.57-2.067a2.33 2.33 0 0 0-2.081 2.57l.028.182c.14 1.271 1.285 2.207 2.57 2.067 1.271-.14 2.207-1.285 2.067-2.57l-.014-.182z"/><path id="AD" d="M865.098 101.166c.14-1.285 1.285-2.207 2.57-2.067 1.285.126 2.207 1.285 2.067 2.57l-.014.182c-.14 1.271-1.285 2.207-2.57 2.067s-2.207-1.285-2.067-2.57l.014-.182z"/><path id="AE" d="M891.816 91.502c-.684-1.075-2.137-1.397-3.212-.698a2.33 2.33 0 0 0-.712 3.226l.098.154a2.33 2.33 0 0 0 3.226.698c1.089-.684 1.397-2.137.712-3.226l-.112-.154z"/><path id="AF" d="M849.023 91.502a2.34 2.34 0 0 1 3.226-.698c1.089.698 1.397 2.137.698 3.226l-.098.154c-.698 1.089-2.137 1.397-3.226.698-1.075-.684-1.397-2.137-.698-3.226l.098-.154z"/><path id="AG" d="M851.705 68.36c.698-1.089 2.137-1.397 3.226-.698 1.089.684 1.397 2.137.698 3.212l-.098.168a2.34 2.34 0 0 1-3.226.698 2.34 2.34 0 0 1-.698-3.226l.098-.154z"/><path id="AH" d="M880.196 78.08c-.21-1.271-1.411-2.137-2.682-1.927s-2.123 1.411-1.913 2.682l.028.182c.21 1.271 1.411 2.137 2.682 1.927s2.137-1.411 1.913-2.682l-.028-.182z"/><path id="AI" d="M860.35 78.052c.209-1.271 1.411-2.137 2.681-1.927a2.33 2.33 0 0 1 1.913 2.696l-.028.182c-.209 1.271-1.41 2.123-2.681 1.913s-2.123-1.411-1.913-2.682l.028-.182z"/><path id="AJ" d="M1368.095-120.001c0-3.846 3.118-6.964 6.964-6.964h228.25c3.846 0 6.964 3.118 6.964 6.964V17.337H1463.46l-26.351-43.918h-69.015v-93.421z"/><path id="AK" d="M1140.401 127.444h5.638v1.725h-5.638z"/></defs><g clip-path="url(#A)"><path d="M-40.704-2160.384h1571.886v3937.779H-40.704z" fill="#5bd1d6"/><path d="M1277.623 493.364h8.205c32.154 0 58.22-26.066 58.22-58.22v-16.185c0-34.42 27.903-62.323 62.323-62.323h154.74v-1795.533h0-404.217c-17.488 0-31.666-14.177-31.666-31.666h0c0-17.489-14.177-31.666-31.666-31.666h-52.418c-22.776 0-41.239-18.463-41.239-41.239h0c0-22.776-18.463-41.239-41.239-41.239h-39.928c-22.776 0-41.239-18.463-41.239-41.239v-30.651c0-23.58-19.115-42.695-42.695-42.695H638.901c-27.867 0-50.458 22.591-50.458 50.458v.873c0 27.867-22.591 50.458-50.458 50.458H349.729c-27.867 0-50.458-22.591-50.458-50.458v-26.987c0-27.867-22.591-50.458-50.458-50.458H-77.456L-95.722 470.465c-.483 21.282 16.638 38.795 37.925 38.795h271.651c42.401 0 76.774 34.373 76.774 76.774h0c0 42.401 34.373 76.774 76.774 76.774h297.815c35.348 0 64.002-28.655 64.002-64.002h0c0-35.348 28.655-64.002 64.002-64.002h217.647c35.348 0 64.002 28.655 64.002 64.002v53.579c0 37.513 30.41 67.924 67.924 67.924h418.317v-92.906h0-283.489c-32.154 0-58.22-26.066-58.22-58.22v-17.597c0-32.154 26.066-58.22 58.22-58.22z" fill="#7ee5e3"/><path d="M984.015-1409.787c-74.904 0-135.625-60.721-135.625-135.625v-12.015c0-14.122-11.449-25.571-25.571-25.571h-9.435c-6.635 0-12.014-5.379-12.014-12.014h0c0-6.635-5.379-12.014-12.014-12.014h-20.754c-20.758 0-37.585-16.827-37.585-37.585h0c0-14.123-11.449-25.571-25.571-25.571h-66.544c-11.79 0-21.347 9.558-21.347 21.347v.874c0 43.944-35.624 79.568-79.568 79.568H349.731c-43.944 0-79.568-35.624-79.568-79.568v-26.987c0-11.79-9.558-21.347-21.347-21.347H-48.967L-66.62 471.124c-.073 3.231 1.542 5.378 2.512 6.37s3.079 2.656 6.311 2.656h271.651c58.316 0 105.772 47.388 105.884 105.678.05 26.328 21.336 47.87 47.664 47.87h297.814c19.245 0 34.906-15.581 34.892-34.826-.036-51.373 41.748-93.179 93.113-93.179h217.647c51.425 0 93.113 41.688 93.113 93.113v58.431c0 18.757 15.205 33.962 33.962 33.962h18.387c18.757 0 33.962-15.205 33.962-33.962V551.585c0-48.231 39.099-87.33 87.33-87.33h8.205c16.077 0 29.11-13.033 29.11-29.11V418.96c0-50.416 41.017-91.432 91.433-91.432H1532v-1737.314H984.013z" fill="#ebf5f7"/><path d="M-49.048-1686.29L-66.62 471.124c-.073 3.231 1.542 5.378 2.512 6.37s3.079 2.656 6.311 2.656h271.651c58.316 0 105.772 47.388 105.884 105.678.05 26.328 21.336 47.87 47.664 47.87h297.814c19.245 0 34.906-15.581 34.892-34.826-.036-51.373 41.748-93.179 93.112-93.179h217.647c51.425 0 93.113 41.688 93.113 93.113v58.43c0 18.757 15.205 33.962 33.962 33.962h18.387c18.757 0 33.962-15.205 33.962-33.962V551.584c0-48.231 39.099-87.33 87.33-87.33h8.205c16.077 0 29.11-13.033 29.11-29.11v-16.185c0-50.416 41.017-91.432 91.433-91.432h120.627" stroke="#ebf5f7" stroke-dasharray="0 10.006" class="C H J Q"/><path d="M1397.633-837.701c-38.673 0-70.023-31.35-70.023-70.023h0c0-38.673-31.351-70.023-70.023-70.023h-115.2c-38.673 0-70.023-31.35-70.023-70.023v-81.318c0-38.673-31.351-70.023-70.023-70.023h-92.612c-38.673 0-70.023-31.35-70.023-70.023v-55.27c0-44.183-35.817-80-80-80H244.318c-44.183 0-80 35.817-80 80v35.388c0 44.183-35.817 80-80 80H-21.696V178.769h95.662c34.93 0 63.247-28.317 63.247-63.247h0c0-34.93 28.317-63.247 63.247-63.247h90.353c34.93 0 63.247-28.317 63.247-63.247v-101.647c0-34.93 28.317-63.247 63.247-63.247h98.122c41.867 0 75.807-33.94 75.807-75.807v-119.581c0-48.029 38.935-86.964 86.964-86.964h0c48.029 0 86.964 38.935 86.964 86.964v90.427c0 41.867 33.94 75.807 75.807 75.807h242.686c42.415 0 76.8-34.385 76.8-76.8h0c0-42.416 34.384-76.8 76.8-76.8h31.624c42.415 0 76.8-34.384 76.8-76.8v-74.541c0-42.415 34.384-76.8 76.8-76.8h95.863v-250.94h-120.71z" class="M"/><path d="M-11.688 178.768h85.654c34.93 0 63.247-28.317 63.247-63.247s28.317-63.247 63.247-63.247h90.353c34.93 0 63.247-28.317 63.247-63.247V-112.62c0-34.93 28.317-63.247 63.247-63.247h98.122c41.867 0 75.807-33.94 75.807-75.807v-119.581c0-48.029 38.935-86.964 86.964-86.964h0c48.029 0 86.964 38.935 86.964 86.964v90.427c0 41.867 33.94 75.807 75.807 75.807h242.686c42.415 0 76.8-34.385 76.8-76.8h0c0-42.416 34.385-76.8 76.8-76.8h31.624c42.415 0 76.8-34.385 76.8-76.8v-74.541c0-42.415 34.384-76.8 76.8-76.8h90.86" stroke="#dcebf1" stroke-dasharray="0 10.007" class="C H J Q"/><path d="M918.242-133.819H737.273c-.964 0-1.888-.383-2.57-1.064l-7.241-7.241c-1.419-1.419-3.72-1.419-5.14 0l-7.241 7.241c-.682.682-1.606 1.064-2.57 1.064H599.866c-.964 0-1.888-.383-2.57-1.064l-3.404-3.404c-1.419-1.419-3.72-1.419-5.14 0l-3.404 3.404c-.682.682-1.606 1.064-2.57 1.064h-5.094c-.964 0-1.888-.383-2.57-1.064l-7.241-7.241c-1.419-1.419-3.72-1.419-5.14 0l-7.241 7.241c-.682.682-1.606 1.064-2.57 1.064H444.553c-25.188 0-45.607 16.32-45.607 36.451v286.042c0 20.131 20.419 36.451 45.607 36.451H671a10.4 10.4 0 0 0 10.396-10.396h0c0-18.45 14.956-33.406 33.406-33.406h35.866c18.45 0 33.406-14.956 33.406-33.406v-37.093c0-18.45 14.956-33.406 33.406-33.406h96.348c27.624 0 50.017-22.393 50.017-50.017V-97.368c0-20.131-20.419-36.451-45.607-36.451z" style="mix-blend-mode:multiply" fill="#e6f2f8"/><path d="M784.078 159.776v-37.093c0-18.45 14.956-33.406 33.406-33.406h96.348c27.624 0 50.017-22.393 50.017-50.017V-85.509c0-20.131-20.419-36.451-45.607-36.451H444.557c-25.188 0-45.607 16.32-45.607 36.451v286.042c0 20.132 20.419 36.451 45.607 36.451h226.447a10.4 10.4 0 0 0 10.396-10.396h0c0-18.45 14.956-33.406 33.406-33.406h35.866c18.45 0 33.406-14.956 33.406-33.406z" fill="#74e0dd"/><path d="M784.078 165.406v-37.093c0-18.45 14.956-33.406 33.406-33.406h96.348c27.624 0 50.017-22.393 50.017-50.017V-79.879c0-20.131-20.419-36.451-45.607-36.451H444.557c-25.188 0-45.607 16.32-45.607 36.451v286.042c0 20.132 20.419 36.451 45.607 36.451h226.447a10.4 10.4 0 0 0 10.396-10.396h0c0-18.45 14.956-33.406 33.406-33.406h35.866c18.45 0 33.406-14.956 33.406-33.406z" fill="#b1efee"/><g fill="#a17046"><path d="M937.77 77.146l.139.028.135.043.13.056.123.068.117.081.107.092.097.103.087.111.075.12.062.127.049.133.036.137.021.14.007.141v37.692l-.007.142-.021.139-.036.137-.049.133-.062.127-.075.12-.087.112-.097.102-.107.092-.117.081-.123.069-.13.056-.135.042-.139.028-.14.015h-.142l-.14-.015-.139-.028-.135-.042-.13-.056-.123-.069-.116-.081-.108-.092-.097-.102-.087-.112-.075-.12-.062-.127-.049-.133-.035-.137-.022-.139-.007-.142V78.526l.007-.141.022-.14.035-.137.049-.133.062-.127.075-.12.087-.111.097-.103.108-.092.116-.081.123-.068.13-.056.135-.043.139-.028.14-.014h.142l.14.014z" class="B"/><path d="M924.367 97.545a.93.93 0 0 1-.902-.709l-.893-3.634a.93.93 0 1 1 1.807-.444l.893 3.634a.93.93 0 0 1-.682 1.126c-.074.018-.149.027-.223.027zm5.283 4.742c-.074 0-.149-.009-.223-.027a.93.93 0 0 1-.682-1.126l.893-3.635a.93.93 0 1 1 1.807.444l-.893 3.635a.93.93 0 0 1-.902.709z"/><g class="B"><path d="M937.193 95.775l.099.011.098.018.097.024.095.032.092.038.089.044.086.051.081.057.078.063.073.067.068.073.062.078.057.082.051.086.045.089.038.092.031.094.025.097.018.098.01.099.004.1-.004.099-.01.099-.018.098-.025.097-.031.095-.038.092-.045.089-.051.085-.057.082-.062.078-.068.073-.073.068-.078.062-.081.057-.086.051-.089.044-.092.039-.095.031-.097.025-.098.017-.099.011-.099.004H918.48l-.099-.004-.1-.011-.098-.017-.096-.025-.095-.031-.092-.039-.089-.044-.086-.051-.081-.057-.078-.062-.073-.068-.068-.073-.062-.078-.057-.082-.051-.085-.045-.089-.038-.092-.031-.095-.025-.097-.018-.098-.01-.099-.004-.099.004-.1.01-.099.018-.098.025-.097.031-.094.038-.092.045-.089.051-.086.057-.082.062-.078.068-.073.073-.067.078-.063.081-.057.086-.051.089-.044.092-.038.095-.032.096-.024.098-.018.1-.011.099-.003h18.614l.099.003zM923.245 78.47l.089.01.088.016.087.021.086.027.083.032.081.038.079.043.076.047.072.053.069.056.066.062 14.397 14.397.061.065.057.069.052.073.048.076.043.078.037.082.032.083.027.085.022.087.015.089.01.088.005.09-.002.089-.007.089-.013.089-.018.088-.024.086-.03.084-.035.083-.04.08-.045.077-.05.074-.055.071-.059.067-.063.063-.067.06-.071.054-.075.05-.077.045-.08.04-.082.035-.085.03-.086.024-.087.019-.089.012-.089.008-.09.001-.089-.004-.089-.01-.088-.016-.087-.021-.085-.027-.084-.032-.081-.038-.079-.043-.075-.047-.073-.053-.069-.056-.065-.062-14.398-14.397-.061-.065-.057-.069-.052-.073-.048-.076-.042-.078-.038-.082-.032-.083-.027-.085-.021-.087-.016-.088-.01-.089-.004-.09.001-.089.007-.089.013-.089.019-.088.024-.086.029-.084.035-.083.04-.08.045-.077.05-.074.055-.071.059-.067.063-.063.068-.06.07-.054.075-.05.077-.045.08-.04.082-.035.085-.03.086-.024.088-.019.088-.012.089-.008.09-.001.089.004z"/></g><path d="M937.53 79.457c-.239 0-.476-.091-.658-.273l-4.159-4.16a.93.93 0 1 1 1.315-1.316l4.159 4.16a.93.93 0 0 1 0 1.316c-.182.182-.419.273-.658.273z"/><path d="M937.53 79.457c-.239 0-.476-.091-.658-.273a.93.93 0 0 1 0-1.316l4.161-4.16a.93.93 0 1 1 1.315 1.316l-4.161 4.16c-.182.182-.419.273-.658.273zm-9.855 4.525a.92.92 0 0 1-.258-.037.93.93 0 0 1-.635-1.153l1.042-3.595a.93.93 0 1 1 1.787.518l-1.042 3.595a.93.93 0 0 1-.893.672zm.233 6.653a.93.93 0 0 1-.451-1.746l3.279-1.804c.453-.252 1.018-.082 1.264.366a.93.93 0 0 1-.366 1.264l-3.279 1.804a.92.92 0 0 1-.447.116zm22.842 6.91a.96.96 0 0 1-.224-.027.93.93 0 0 1-.68-1.126l.895-3.634c.121-.5.626-.808 1.126-.682a.93.93 0 0 1 .68 1.126l-.895 3.634a.93.93 0 0 1-.902.709zm-5.281 4.742a.93.93 0 0 1-.902-.709l-.893-3.635a.93.93 0 1 1 1.807-.444l.893 3.635a.93.93 0 0 1-.682 1.126c-.074.018-.149.027-.223.027z"/><g class="B"><path d="M956.738 95.775l.099.011.098.018.096.024.095.032.092.038.089.044.086.051.082.057.077.063.073.067.068.073.063.078.056.082.051.086.045.089.038.092.031.094.025.097.018.098.01.099.004.1-.004.099-.01.099-.018.098-.025.097-.031.095-.038.092-.045.089-.051.085-.056.082-.063.078-.068.073-.073.068-.077.062-.082.057-.086.051-.089.044-.092.039-.095.031-.096.025-.098.017-.099.011-.1.004h-18.614l-.099-.004-.099-.011-.098-.017-.097-.025-.094-.031-.092-.039-.09-.044-.085-.051-.082-.057-.078-.062-.073-.068-.068-.073-.062-.078-.057-.082-.051-.085-.044-.089-.039-.092-.031-.095-.025-.097-.017-.098-.011-.099-.004-.099.004-.1.011-.099.017-.098.025-.097.031-.094.039-.092.044-.089.051-.086.057-.082.062-.078.068-.073.073-.067.078-.063.082-.057.085-.051.09-.044.092-.038.094-.032.097-.024.098-.018.099-.011.099-.003h18.614l.1.003zm-4.687-17.308l.09.008.088.012.088.019.086.024.084.03.083.035.08.04.077.045.074.05.071.054.067.06.064.063.059.067.054.071.05.074.046.077.04.08.035.083.029.084.024.086.019.088.013.089.007.089.001.089-.004.09-.01.089-.016.088-.021.087-.027.085-.032.083-.038.082-.042.078-.048.076-.052.073-.057.069-.062.065-14.397 14.397-.065.062-.069.056-.073.053-.076.047-.078.043-.082.038-.083.032-.085.027-.087.021-.088.016-.089.01-.09.004-.089-.001-.089-.008-.089-.012-.088-.019-.086-.024-.084-.03-.083-.035-.08-.04-.077-.045-.074-.05-.071-.054-.067-.06-.063-.063-.059-.067-.055-.071-.05-.074-.045-.077-.04-.08-.035-.083-.03-.084-.024-.086-.018-.088-.013-.089-.007-.089-.002-.089.004-.09.01-.088.016-.089.021-.087.027-.085.032-.083.038-.082.043-.078.047-.076.053-.073.057-.069.061-.065 14.397-14.397.065-.062.069-.056.073-.053.076-.047.078-.043.082-.038.083-.032.086-.027.086-.021.089-.016.089-.01.089-.004.089.001z"/></g><path d="M947.444 83.982a.93.93 0 0 1-.893-.672l-1.044-3.595a.93.93 0 0 1 .633-1.153.93.93 0 0 1 1.153.635l1.044 3.595a.93.93 0 0 1-.633 1.153c-.087.025-.175.037-.26.037zm-.233 6.653c-.151 0-.305-.037-.447-.116l-3.279-1.804a.93.93 0 0 1-.366-1.264c.246-.449.814-.618 1.264-.366l3.279 1.804a.93.93 0 0 1-.451 1.746z"/></g><g class="C H R i"><path d="M1218.424-.445l-9.659 17.017a3.44 3.44 0 0 1-2.873 1.743c-1.195.043-2.327-.537-2.99-1.532l-.002-.002" class="Z"/><g stroke="#c3c3c3"><path d="M1219.863-16.368l26.39 16.964"/><path d="M1241.708.708l2.993-4.657m-49.559-13.404l-6.664 30.657"/><path d="M1191.77 10.167l-5.41-1.175"/></g></g><path d="M1219.328-7.147a2.17 2.17 0 0 1-.095 1.406l-2.786 6.649-.635-7.52-6.475 1.736a2.18 2.18 0 0 1-2.67-1.541l-.506-1.889 11.995-3.215 1.172 4.375z" fill="#534034" class="B"/><path d="M1226.988-.445l-9.657 17.017a3.44 3.44 0 0 1-2.873 1.743c-1.195.043-2.329-.537-2.991-1.532l-.002-.002" class="C H R Z i"/><g fill="#534034" class="B"><path d="M1213.514 5.485a2.18 2.18 0 0 1-.996 3.627l-.118.033a2.18 2.18 0 0 1-2.128-.587l-6.72-6.919a2.59 2.59 0 0 1-.512-2.847l3.122-7.097 6.5-1.327-4.115 10.02 4.969 5.098zm8.636-1.326a2.18 2.18 0 0 1-.996 3.627l-.118.033c-.764.203-1.577-.02-2.128-.587l-6.72-6.919c-.734-.756-.938-1.883-.514-2.849l3.123-7.097 4.615 3.263-2.231 5.432 4.969 5.098z"/><path d="M1214.785 6.975c.615.702.713 1.715.247 2.524l-2.844 4.924-1.461-.844a2.35 2.35 0 0 1-1.099-1.431c-.163-.604-.078-1.248.234-1.79l3.136-5.43 1.787 2.048zm7.068-2.314a2.18 2.18 0 0 1 1.015 1.323 2.19 2.19 0 0 1-.217 1.655l-2.134 3.696c-.289.501-.765.866-1.324 1.015s-1.153.071-1.653-.217l-1.618-.933 4.314-7.473 1.618.935z"/></g><rect x="28.886" y="90.985" width="58.573" height="14.108" rx="7.054" fill="#d1e2e9"/><path d="M35.94 105.092h44.466c3.88 0 7.054-3.174 7.054-7.054s-3.174-7.054-7.054-7.054H35.94c-3.88 0-7.054 3.174-7.054 7.054s3.174 7.054 7.054 7.054z" stroke="#dcebf1" class="C H J Q j"/><g class="B"><path d="M52.905 70.302h9.182v25.241a4.58 4.58 0 0 1-1.345 3.239c-.865.851-2.031 1.345-3.239 1.345h-.014c-1.208 0-2.374-.494-3.239-1.345-.851-.865-1.345-2.031-1.345-3.239V70.302z" class="a"/><g class="F"><path d="M34.61 72.868c.673-1.071 2.1-1.373 3.157-.7 1.07.686 1.386 2.114.7 3.171l-4.914 7.672c-.673 1.071-2.1 1.386-3.157.7a2.29 2.29 0 0 1-.7-3.171l4.914-7.672z"/><path d="M54.704 41.245a4.06 4.06 0 0 1 3.431-1.894c1.386 0 2.676.714 3.431 1.894l22.427 35.302c0 10.472-11.584 18.982-25.858 18.982s-25.858-8.51-25.858-18.982l22.427-35.302z"/></g></g><g clip-path="url(#B)" class="B S"><path d="M55.637 25.598c.769-.906 1.894-1.414 3.075-1.414a4.02 4.02 0 0 1 3.074 1.414C68.635 33.586 84.57 53.2 84.57 62.78c0 10.486-11.584 18.996-25.858 18.996S32.84 73.266 32.84 62.78c0-9.58 15.935-29.194 22.798-37.182z" class="T"/></g><g class="B"><g class="F"><path d="M67.001 91.164c-.137-1.263-1.276-2.169-2.525-2.045-1.263.137-2.182 1.277-2.045 2.526l.425 3.925c.137 1.249 1.263 2.169 2.526 2.031s2.169-1.263 2.031-2.525l-.412-3.912zm15.551-16.882c-.686-1.071-2.1-1.373-3.171-.7-1.057.686-1.373 2.114-.686 3.17l4.09 6.396c.686 1.057 2.114 1.373 3.171.686 1.071-.686 1.373-2.1.7-3.17l-4.104-6.382z"/></g><g class="b"><path d="M56.419 81.776c0-1.263 1.029-2.292 2.292-2.292s2.292 1.029 2.292 2.292v2.292c0 1.263-1.029 2.292-2.292 2.292s-2.292-1.029-2.292-2.292v-2.292zm-7.933 4.31c.151-1.249 1.304-2.141 2.553-1.99 1.263.151 2.155 1.304 1.99 2.553l-.275 2.278a2.29 2.29 0 0 1-2.567 1.99c-1.249-.151-2.141-1.304-1.99-2.553l.288-2.278zm20.286 0c-.151-1.249-1.304-2.141-2.553-1.99a2.3 2.3 0 0 0-2.004 2.553l.288 2.278c.151 1.263 1.304 2.155 2.553 1.99a2.3 2.3 0 0 0 2.004-2.553l-.288-2.278zm-26.284-9.1c.371-1.208 1.661-1.88 2.869-1.51 1.208.384 1.88 1.674 1.496 2.882l-.961 3.061c-.384 1.208-1.674 1.88-2.882 1.496-1.208-.37-1.88-1.661-1.496-2.869l.974-3.061zm30.964 1.029c-.384-1.208-1.675-1.88-2.882-1.496a2.3 2.3 0 0 0-1.496 2.882l.961 3.061c.384 1.208 1.674 1.88 2.882 1.496s1.88-1.661 1.496-2.869l-.961-3.074zm-36.633-5.353c.631-1.098 2.031-1.469 3.129-.837s1.469 2.031.837 3.129l-2.073 3.596c-.631 1.098-2.031 1.469-3.129.837s-1.469-2.031-.837-3.129l2.073-3.596zm42.261-.123c-.631-1.098-2.031-1.469-3.129-.837s-1.469 2.031-.837 3.129l2.073 3.596c.631 1.098 2.045 1.469 3.143.837a2.3 2.3 0 0 0 .837-3.129l-2.086-3.596z" class="K"/></g><path d="M55.294 33.134a4.08 4.08 0 0 1 3.418-1.853c1.373 0 2.663.7 3.404 1.853l18.31 28.356c0 8.661-9.731 15.702-21.713 15.702-11.996 0-21.727-7.041-21.727-15.702l18.31-28.356z" class="D"/></g><g clip-path="url(#C)" class="B"><path d="M55.65 15.25c.769-.892 1.88-1.4 3.061-1.4a4.05 4.05 0 0 1 3.061 1.4c5.984 6.918 18.653 22.482 18.653 30.182 0 8.674-9.731 15.702-21.713 15.702-11.996 0-21.727-7.027-21.727-15.702 0-7.7 12.668-23.264 18.666-30.182z" class="G N"/><path d="M55.294 9.004c.727-1.18 2.018-1.894 3.418-1.894a4.04 4.04 0 0 1 3.418 1.894c6.121 9.388 18.296 29.317 18.296 39.296 0 11.433-9.731 20.725-21.713 20.725-11.996 0-21.727-9.292-21.727-20.725 0-9.978 12.188-29.907 18.31-39.296z" class="O"/><g class="D"><path d="M70.419 59.308c-.631-1.098-.261-2.512.837-3.143a2.3 2.3 0 0 1 3.129.837l2.292 3.98c.645 1.098.261 2.498-.837 3.129a2.29 2.29 0 0 1-3.129-.837l-2.292-3.967z"/><path d="M64.984 67.68c-.426-1.194.22-2.498 1.414-2.923 1.194-.412 2.498.233 2.91 1.427l.755 2.169a2.29 2.29 0 0 1-1.414 2.91c-1.194.412-2.512-.219-2.923-1.414l-.741-2.169zm-9.786-1.962a2.3 2.3 0 0 1 2.306-2.292c1.263 0 2.292 1.029 2.292 2.292v2.292c0 1.277-1.029 2.292-2.292 2.292a2.29 2.29 0 0 1-2.306-2.292v-2.292zm-9.018.384c.467-1.18 1.798-1.77 2.978-1.304 1.18.453 1.757 1.784 1.304 2.965l-.837 2.141c-.453 1.18-1.784 1.757-2.965 1.304-1.18-.467-1.771-1.784-1.304-2.965l.824-2.141z" class="G"/><path d="M42.584 56.233a2.32 2.32 0 0 1 3.143-.837c1.098.631 1.469 2.045.837 3.143l-1.99 3.431c-.631 1.098-2.031 1.469-3.129.837s-1.469-2.031-.837-3.129l1.977-3.445z"/></g></g><path d="M54.923 24.61c.714-1.07 1.921-1.716 3.212-1.716s2.498.645 3.212 1.716l13.478 20.245c0 3.761-2.539 7.11-6.492 9.251-2.814 1.523-6.355 2.443-10.198 2.443-9.21 0-16.69-5.243-16.69-11.694L54.923 24.61z" class="B D"/><g clip-path="url(#D)"><g class="U"><rect x="43.737" y="19.848" width="29.235" height="29.523" rx="14.453" class="V"/><g class="B"><path d="M57.394 34.232c-.343-1.222.371-2.484 1.592-2.827s2.484.371 2.827 1.592l.192.659c.329 1.221-.384 2.484-1.592 2.827-1.222.343-2.484-.371-2.827-1.592l-.192-.659z"/></g></g><g class="c B"><path d="M62.733 39.296c-.535-1.153-.055-2.512 1.098-3.061 1.139-.535 2.512-.055 3.047 1.098l.988 2.073c.535 1.139.055 2.512-1.098 3.047a2.28 2.28 0 0 1-3.047-1.084l-.988-2.073zm-7.535 3.486a2.3 2.3 0 0 1 2.306-2.292c1.263 0 2.292 1.029 2.292 2.292v2.292a2.3 2.3 0 0 1-2.292 2.306 2.3 2.3 0 0 1-2.306-2.306v-2.292zm-4.612-7.713a2.29 2.29 0 0 1 3.129-.837c1.098.645 1.469 2.045.837 3.143l-1.153 1.976c-.645 1.098-2.045 1.469-3.143.837-1.084-.645-1.469-2.045-.823-3.143l1.153-1.977z"/></g></g><g class="B"><g class="D"><path d="M61.003 56.371c0-1.276-1.029-2.292-2.292-2.292s-2.292 1.016-2.292 2.292v.178c0 1.263 1.029 2.292 2.292 2.292s2.292-1.029 2.292-2.292v-.178zm12.188-5.587c-.48-1.18-1.825-1.743-2.992-1.263-1.181.467-1.743 1.812-1.263 2.978l.069.178c.48 1.167 1.812 1.729 2.992 1.263 1.167-.48 1.729-1.825 1.263-2.992l-.069-.165zm-29.715-.027c.481-1.167 1.826-1.743 2.992-1.263a2.29 2.29 0 0 1 1.263 2.992l-.069.165c-.48 1.167-1.812 1.743-2.978 1.263a2.29 2.29 0 0 1-1.263-2.992l.055-.165zm33.106-5.614c-.686-1.071-2.1-1.373-3.17-.7a2.29 2.29 0 0 0-.686 3.17l.096.151c.686 1.071 2.1 1.373 3.171.7 1.057-.686 1.373-2.114.686-3.17l-.096-.151zm5.682 16.896c-.686-1.071-2.1-1.373-3.17-.7a2.29 2.29 0 0 0-.686 3.171l.096.151a2.29 2.29 0 0 0 3.171.7 2.3 2.3 0 0 0 .686-3.171l-.096-.151zm-47.558 0c.673-1.071 2.1-1.373 3.157-.7 1.071.686 1.386 2.114.7 3.171l-.096.151c-.686 1.071-2.114 1.386-3.171.7-1.071-.686-1.373-2.1-.7-3.171l.11-.151zM74.797 72.1a2.3 2.3 0 0 0-3.171-.686c-1.07.686-1.373 2.1-.686 3.171l.096.151c.673 1.057 2.1 1.373 3.17.686a2.3 2.3 0 0 0 .686-3.17l-.096-.151zm-32.625 0a2.3 2.3 0 0 1 3.17-.686 2.3 2.3 0 0 1 .686 3.171l-.096.151a2.3 2.3 0 0 1-3.17.686c-1.071-.686-1.373-2.1-.686-3.17l.096-.151z"/></g><path d="M36.353 83.656c.714-1.043 2.141-1.318 3.184-.604a2.31 2.31 0 0 1 .604 3.198l-1.812 2.635a2.28 2.28 0 0 1-3.184.604c-1.043-.714-1.318-2.141-.604-3.184l1.812-2.649z" class="F"/><g class="D"><path d="M69.692 75.161c-.371-1.208-1.661-1.894-2.869-1.523s-1.894 1.661-1.51 2.869l.055.178a2.28 2.28 0 0 0 2.855 1.51c1.222-.371 1.894-1.661 1.523-2.869l-.055-.165zm-22.414 0c.371-1.208 1.647-1.894 2.869-1.523 1.208.37 1.881 1.661 1.51 2.869l-.055.178c-.371 1.208-1.661 1.88-2.869 1.51s-1.88-1.661-1.51-2.869l.055-.165z"/></g><g class="F"><path d="M42.68 91.356c.384-1.208 1.661-1.88 2.869-1.51s1.894 1.661 1.523 2.869l-.055.178c-.371 1.208-1.661 1.88-2.869 1.51s-1.894-1.661-1.51-2.869l.041-.178zm31.747-2.182a2.29 2.29 0 0 0-2.869-1.51c-1.208.371-1.88 1.661-1.51 2.869l.906 2.951c.384 1.208 1.661 1.894 2.869 1.523 1.222-.384 1.894-1.661 1.524-2.869l-.92-2.965z"/></g><g class="D"><path d="M63.721 77.357c-.137-1.263-1.276-2.169-2.525-2.031a2.29 2.29 0 0 0-2.045 2.525l.027.178c.137 1.249 1.263 2.169 2.525 2.031 1.249-.137 2.169-1.263 2.031-2.525l-.014-.178zm-10.472 0c.137-1.263 1.263-2.169 2.526-2.031 1.263.123 2.169 1.263 2.031 2.525l-.014.178c-.137 1.249-1.263 2.169-2.525 2.031s-2.169-1.263-2.031-2.525l.014-.178z"/></g><path d="M48.664 93.566c.137-1.263 1.263-2.182 2.525-2.045s2.169 1.277 2.031 2.526l-.014.192c-.137 1.249-1.277 2.169-2.526 2.031-1.263-.137-2.169-1.277-2.045-2.526l.027-.178z" class="F"/><g class="D"><path d="M79.505 67.859c-.673-1.057-2.1-1.373-3.157-.686a2.29 2.29 0 0 0-.7 3.171l.096.151a2.29 2.29 0 0 0 3.171.686c1.071-.673 1.373-2.1.7-3.171l-.11-.151zm-42.054 0a2.3 2.3 0 0 1 3.171-.686c1.071.686 1.373 2.1.686 3.171l-.096.151c-.686 1.071-2.1 1.373-3.171.686-1.057-.673-1.373-2.1-.686-3.171l.096-.151z"/></g><path d="M79.189 83.615a2.3 2.3 0 0 0-3.17-.686c-1.071.686-1.373 2.1-.7 3.171l2.745 4.255c.686 1.071 2.1 1.373 3.17.7 1.057-.686 1.373-2.114.686-3.171l-2.731-4.269z" class="F"/><g class="D"><path d="M40.086 45.116c.686-1.071 2.1-1.373 3.171-.686 1.07.673 1.373 2.1.686 3.157l-.096.165a2.3 2.3 0 0 1-3.17.686 2.3 2.3 0 0 1-.686-3.17l.096-.151zm28 9.553c-.206-1.249-1.386-2.1-2.635-1.894s-2.086 1.386-1.88 2.635l.027.178c.206 1.249 1.386 2.1 2.635 1.894s2.1-1.386 1.88-2.635l-.027-.178zm-19.504-.028c.206-1.249 1.386-2.1 2.635-1.894a2.29 2.29 0 0 1 1.88 2.649l-.027.178c-.206 1.249-1.386 2.086-2.635 1.88s-2.086-1.386-1.88-2.635l.027-.178z"/></g></g><g class="M"><rect x="226.603" y="84.133" width="21.993" height="7.762" rx="3.876"/><rect x="332.539" y="112.368" width="21.993" height="7.762" rx="3.876"/><g class="B"><path d="M297.649 84.133c0-4.287-3.475-7.762-7.762-7.762h-20.699c-4.287 0-7.762 3.475-7.762 7.762s3.475 7.762 7.762 7.762h20.699c4.287 0 7.762-3.475 7.762-7.762zm992.639 3.142a3.77 3.77 0 0 0 3.768 3.768h10.048a3.77 3.77 0 0 0 3.768-3.768 3.77 3.77 0 0 0-3.768-3.768h-10.048a3.77 3.77 0 0 0-3.768 3.768zm-37.051-53.379a3.14 3.14 0 0 0 3.14 3.14h8.164a3.14 3.14 0 1 0 0-6.28h-8.164a3.14 3.14 0 0 0-3.14 3.14z"/></g><rect x="1333.619" y="45.827" width="10.676" height="3.768" rx="1.881"/><rect x="1270.82" y="54.619" width="10.676" height="3.768" rx="1.881"/><path d="M1379.463 30.814a3.71 3.71 0 0 0 3.71 3.71h.116a3.71 3.71 0 0 0 3.71-3.71v-.06a3.77 3.77 0 0 0-1.103-2.663c-.706-.706-1.664-1.103-2.663-1.103h-.005a3.77 3.77 0 0 0-2.663 1.103c-.706.706-1.103 1.664-1.103 2.663v.06z" class="B"/></g><rect x="516.598" y="8.534" width="40.938" height="11.691" rx="5.846" fill="#89e4e2"/><path d="M546.613-11.257c.836 1.448.791 3.242-.117 4.646l-3.09 4.777 1.884 3.12-4.736 2.74-3.301-4.622a2.65 2.65 0 0 1-.018-3.054l7.529-10.81 1.849 3.202z" fill="#386e5b" class="B"/><g class="D"><path d="M524.228 13.313h13.563v1.695h-13.563z"/><use href="#V"/><path d="M534.472 9.922h1.695v4.238h-1.695z"/></g><g fill="#d9dfec"><path d="M537.791 13.313h13.563v1.695h-13.563z"/><path d="M541.11 9.922h1.695v4.238h-1.695zm6.853 0h1.695v4.238h-1.695z"/></g><g class="B"><path d="M540.383 3.788l5.185-2.039 4.726 7.826c.23.381.237.857.018 1.245s-.63.628-1.075.628h-11.376V9.329c0-.517.205-1.013.571-1.378s.861-.571 1.378-.571h3.137l-2.565-3.591z" fill="#475a91"/><path d="M545.849-.094a.86.86 0 0 0-.521-.4c-.22-.059-.454-.028-.651.086l-5.73 3.309a.86.86 0 0 0-.4.521c-.059.22-.028.454.086.651l.837 1.45a.86.86 0 0 0 .521.4c.22.059.454.028.651-.086l5.73-3.309a.86.86 0 0 0 .4-.521c.059-.22.028-.454-.086-.651l-.837-1.45z" class="W"/><path d="M545.849-.094l.837 1.45c.114.197.145.431.086.651a.86.86 0 0 1-.4.521l-5.73 3.309c-.197.114-.431.145-.651.086a.86.86 0 0 1-.521-.4l-.837-1.45c-.114-.197-.145-.431-.086-.651a.86.86 0 0 1 .4-.521l5.73-3.309c.197-.114.431-.145.651-.086a.86.86 0 0 1 .521.4z" class="d"/><path d="M545.748-12.755a4.45 4.45 0 0 1 .445 3.38c-.306 1.141-1.052 2.114-2.075 2.705L531.848.414l1.576 2.61-4.997 2.105-3.473-4.863c-.435-.609-.592-1.374-.433-2.105a2.65 2.65 0 0 1 1.27-1.733l18.973-10.887.984 1.704z" fill="#52896b"/><path d="M528.629 5.412l4.867-2.27 3.885 6.433c.23.381.237.857.018 1.245s-.63.628-1.075.628h-11.376V9.329c0-.517.205-1.013.571-1.378s.861-.571 1.378-.571h3.137l-1.405-1.967z" fill="#6377af"/><path d="M533.313 1.583a.86.86 0 0 0-.521-.4c-.22-.059-.454-.028-.651.086l-4.754 2.745a.86.86 0 0 0-.4.521c-.059.22-.028.454.086.651l.837 1.45a.86.86 0 0 0 .521.4c.22.059.454.028.651-.086l4.754-2.745a.86.86 0 0 0 .4-.521c.059-.22.028-.454-.086-.651l-.837-1.45z" class="W"/><path d="M533.313 1.583l.837 1.45c.114.197.145.431.086.651a.86.86 0 0 1-.4.521l-4.754 2.745c-.197.114-.431.145-.651.086a.86.86 0 0 1-.521-.4l-.837-1.45c-.114-.197-.145-.431-.086-.651a.86.86 0 0 1 .4-.521l4.754-2.745c.197-.114.431-.145.651-.086a.86.86 0 0 1 .521.4z" class="d"/><g class="G M"><use href="#W"/><path d="M985.91 112.368h7.417a12.04 12.04 0 0 0 7.836-2.899l10.666-9.142a15.42 15.42 0 0 1 19.666-.333l9.238 7.391c4.033 3.226 9.043 4.984 14.207 4.984h3.894M969.799 69.97h7.417a12.04 12.04 0 0 0 7.836-2.899l10.666-9.142a15.42 15.42 0 0 1 19.666-.333l9.238 7.391c4.033 3.226 9.043 4.984 14.207 4.984h3.894m-64.444 18.654h2.155c2.329 0 4.56-.939 6.187-2.606l4.099-4.197c2.743-2.809 7.236-2.886 10.074-.174l3.11 2.972c2.69 2.57 6.267 4.004 9.987 4.004h.001"/><path d="M1053.746 105.585h2.155c2.329 0 4.56-.939 6.187-2.606l4.099-4.197c2.743-2.808 7.236-2.886 10.074-.174l3.11 2.972c2.69 2.57 6.267 4.004 9.987 4.004h.001m-69.531-59.356h7.417a12.04 12.04 0 0 0 7.836-2.899l10.666-9.142a15.42 15.42 0 0 1 19.666-.333l9.238 7.391c4.033 3.226 9.043 4.984 14.207 4.984h3.894"/></g><path d="M1427.191 107.226a5.79 5.79 0 0 0-5.789-5.789h-54.135a5.79 5.79 0 0 0-5.789 5.789 5.79 5.79 0 0 0 5.789 5.789h54.135a5.79 5.79 0 0 0 5.789-5.789z" class="M"/></g><g fill="#e3c252"><path d="M1392.022 66.104l6.009-3.47 4.471 7.744-6.009 3.47z"/><rect x="1383.682" y="52.864" width="19.76" height="14.306" rx="3.482"/></g><path d="M1383.715 54.652h8.059v7.153h-8.059z" fill="#7c97ba"/><g class="B"><path d="M1399.457 51.076c2.67 0 4.834 2.164 4.834 4.834v7.022a4.24 4.24 0 0 1-4.239 4.238h-5.829a4.24 4.24 0 0 1-4.238-4.238v-4.39c0-.556-.222-1.091-.616-1.486s-.929-.615-1.486-.615H1384a1.17 1.17 0 0 1-1.168-1.168v-.002c0-2.318 1.878-4.195 4.195-4.195h12.429z" class="W"/><path d="M1405.528 67.521a2.47 2.47 0 0 0-3.375-.903l-8.11 4.682a2.47 2.47 0 0 0-.904 3.374l7.147 12.38 12.947-6.187-7.705-13.346z" fill="#503b72"/></g><g clip-path="url(#E)" class="B"><path d="M1401.181 74.505c.117-.275.341-.494.62-.604a1.13 1.13 0 0 1 .865.016l.974.429-5.231 12.292c-.039.091-.145.134-.237.095l-.848-.361a1.09 1.09 0 0 1-.589-.601c-.109-.27-.106-.572.008-.84l4.437-10.425z" fill="#2e1e4c"/></g><g class="B"><path d="M1413.712 81.698a4.7 4.7 0 0 1 .469 3.566c-.323 1.203-1.11 2.23-2.189 2.852l-12.941 7.473 7.028 11.638h-14.306v-2.235a2.06 2.06 0 0 1 .602-1.454c.386-.386.909-.603 1.454-.603h3.309l-5.359-7.503a2.79 2.79 0 0 1-.456-2.219 2.8 2.8 0 0 1 1.34-1.829l20.012-11.482 1.038 1.797z" fill="#6377af"/><path d="M1400.596 96.821a.91.91 0 0 0-1.237-.331l-5.014 2.895c-.208.12-.36.318-.422.549s-.03.479.09.687l.883 1.531a.9.9 0 0 0 .55.42c.232.063.479.03.687-.089l5.014-2.895c.208-.12.36-.318.422-.549s.03-.479-.09-.687l-.883-1.531z" class="W"/><path d="M1400.596 96.821l.883 1.531a.9.9 0 0 1 .09.687c-.062.231-.214.429-.422.549l-5.014 2.895a.9.9 0 0 1-1.237-.331l-.883-1.531a.9.9 0 0 1-.09-.687c.062-.231.214-.429.422-.549l5.014-2.895a.91.91 0 0 1 1.237.331z" class="d"/></g><g class="C H R k"><g stroke="#c3c3c3"><path d="M1386.409 83.264l30.4 19.544"/><path d="M1411.572 102.935l3.448-5.365"/></g><path d="M1415.02 106.511h-36.024c-2.072 0-4.007-1.035-5.156-2.759l-1.737-2.605" class="Z"/></g><g class="B"><path d="M1401.43 73.921a2.73 2.73 0 0 0-1.452-3.58c-1.353-.569-2.899.059-3.469 1.4l-2.84 6.672a2.68 2.68 0 0 1-2.468 1.633h-3.002v5.007h6.722a2.68 2.68 0 0 0 2.468-1.633l4.043-9.499z" fill="#503b72"/><path d="M1388.197 80.045h-1.073a2.5 2.5 0 0 0-2.503 2.503c0 .665.264 1.3.733 1.77a2.5 2.5 0 0 0 1.77.733h1.073v-5.007z" fill="#e3c252"/><path d="M1128.883 29.901l-37.893 28.687a6.45 6.45 0 0 0-2.558 5.16v21.384l40.451-33.716V29.901z" class="D"/><path d="M1128.883 29.901l37.74 28.578a6.45 6.45 0 0 1 2.558 5.16v21.494l-40.298-33.716V29.902z" class="e"/><path d="M1130.413 54.5V30.995c0-.306-.109-.569-.306-.766a1.06 1.06 0 0 0-.765-.328h-.918c-.284 0-.569.109-.765.328-.197.197-.306.459-.306.766V54.5h3.061z" fill="#e3fdf9"/><path d="M1166.054 82.181l-36.034-29.825h-2.274l-36.034 29.825v29.492c0 .693.262 1.358.766 1.85a2.6 2.6 0 0 0 1.837.765h69.116a2.65 2.65 0 0 0 1.859-.765 2.66 2.66 0 0 0 .765-1.85V82.181z" fill="#b9875b"/></g><g clip-path="url(#F)"><g fill="#ad7049"><use href="#X"/><path d="M1089.525 107.729h78.715v6.56h-78.715zm0-39.367h78.715v6.56h-78.715zm0-13.119h78.715v6.56h-78.715zm0 39.358h78.715v6.56h-78.715z"/></g><path d="M1088.432 87.713l40.451-33.563 40.844 33.891" stroke="#ad7049" class="C l m"/></g><path d="M1122.323 96.796h13.119v17.492h-13.119z" fill="#434032"/><path d="M1122.323 96.787h13.119v4.373h-13.119z" fill="#14130f"/><g fill="#1e3c49"><use href="#Y"/><path d="M1100.458 96.787h13.119v10.933h-13.119zm24.052-28.381h8.746v10.933h-8.746z"/></g><g class="e"><path d="M1124.51 77.078h8.746v2.217h-8.746z"/><use href="#Z"/><path d="M1144.188 105.503h13.119v2.217h-13.119z"/></g><g fill="#0f1e24"><path d="M1144.188 94.57h13.119v2.217h-13.119zm-43.73 0h13.119v2.217h-13.119zm24.052-28.381h8.746v2.217h-8.746z"/></g><g class="B"><g fill="#e9f3f6"><path d="M1119.309 110.081c-1.664 0-3.014 1.349-3.014 3.014 0-1.665-1.351-3.014-3.014-3.014s-3.014 1.349-3.014 3.014c0-1.665-1.35-3.014-3.014-3.014s-3.014 1.349-3.014 3.014v-.005c0-1.665-1.351-3.014-3.014-3.014s-3.014 1.35-3.014 3.014c0-1.665-1.351-3.014-3.014-3.014s-3.014 1.35-3.014 3.014c0-1.665-1.351-3.014-3.014-3.014s-3.014 1.35-3.014 3.014v3.009h18.086v.005h18.086v-3.009c0-1.665-1.351-3.014-3.014-3.014zm49.291 0c-1.664 0-3.014 1.349-3.014 3.014 0-1.665-1.35-3.014-3.014-3.014s-3.014 1.349-3.014 3.014c0-1.665-1.351-3.014-3.014-3.014s-3.014 1.349-3.014 3.014v-.005c0-1.665-1.351-3.014-3.014-3.014s-3.014 1.35-3.014 3.014c0-1.665-1.351-3.014-3.014-3.014s-3.014 1.35-3.014 3.014c0-1.665-1.351-3.014-3.014-3.014s-3.014 1.35-3.014 3.014v3.009h18.086v.005h18.086v-3.009c0-1.665-1.351-3.014-3.014-3.014z"/></g><path d="M1041.708 117.076l-37.893 28.687a6.45 6.45 0 0 0-2.558 5.16v21.384l40.451-33.716v-21.515z" class="D"/><path d="M1041.708 117.076l37.74 28.578a6.45 6.45 0 0 1 2.558 5.16v21.494l-40.298-33.716v-21.515z" class="e"/><path d="M1043.239 141.675V118.17c0-.306-.109-.569-.306-.766a1.06 1.06 0 0 0-.765-.328h-.918c-.284 0-.569.109-.765.328-.197.197-.306.459-.306.766v23.505h3.061z" fill="#e3fdf9"/><path d="M1078.879 169.356l-36.034-29.825h-2.274l-36.034 29.825v29.492c0 .693.262 1.358.766 1.85a2.6 2.6 0 0 0 1.837.765h69.116a2.65 2.65 0 0 0 1.859-.765 2.66 2.66 0 0 0 .765-1.85v-29.492z" fill="#b9875b"/></g><g clip-path="url(#G)"><path d="M1002.35 142.418h78.715v6.56h-78.715z" fill="#ad7049"/><path d="M1001.257 174.888l40.451-33.563 40.844 33.891" stroke="#ad7049" class="C l m"/></g><g clip-path="url(#H)" class="B S"><use href="#a" class="T"/></g><g clip-path="url(#I)" class="B"><path d="M1126.872 133.26c.782-.908 1.913-1.425 3.115-1.425a4.12 4.12 0 0 1 3.114 1.425c6.089 7.039 18.98 22.877 18.98 30.712 0 8.827-9.902 15.977-22.095 15.977s-22.109-7.151-22.109-15.977c0-7.835 12.891-23.673 18.994-30.712z" class="G N"/><use href="#b" class="O"/></g><use href="#c" class="B L"/><g clip-path="url(#J)" class="U"><rect x="1114.749" y="137.939" width="29.748" height="30.041" rx="14.706" class="V"/></g><rect x="840.823" y="113.979" width="58.573" height="14.108" rx="7.054" class="M"/><path d="M847.876,128.086h44.466c3.88,0,7.054-3.174,7.054-7.054s-3.174-7.054-7.054-7.054h-44.466c-3.88,0-7.054,3.174-7.054,7.054s3.174,7.054,7.054,7.054Z" stroke="#ebf5f7" class="C H J Q j"/><g class="B"><path d="M864.749 93.988h9.344v25.684c0 1.229-.489 2.416-1.369 3.296-.88.866-2.067 1.369-3.296 1.369h-.014c-1.229 0-2.416-.503-3.296-1.369-.866-.88-1.369-2.067-1.369-3.296V93.988z" class="a"/><g class="F"><use href="#d"/><use href="#e"/></g></g><g clip-path="url(#K)" class="B S"><path d="M867.528 48.5c.782-.922 1.927-1.439 3.129-1.439s2.346.517 3.128 1.439c6.969 8.128 23.184 28.086 23.184 37.835 0 10.67-11.788 19.329-26.312 19.329s-26.327-8.659-26.327-19.329c0-9.748 16.215-29.706 23.198-37.835z" class="T"/></g><g class="B"><g class="F"><path d="M879.092 115.216c-.14-1.285-1.299-2.207-2.57-2.081-1.285.14-2.221 1.299-2.081 2.57l.433 3.994c.14 1.271 1.285 2.207 2.57 2.067s2.207-1.285 2.067-2.57l-.419-3.981zm15.824-17.178c-.698-1.089-2.137-1.397-3.226-.712-1.075.698-1.397 2.151-.698 3.226l4.162 6.508c.698 1.075 2.151 1.397 3.226.698 1.089-.698 1.397-2.137.712-3.226l-4.176-6.494z"/></g><g class="b"><path d="M868.325 105.664c0-1.285 1.047-2.332 2.332-2.332s2.332 1.047 2.332 2.332v2.332c0 1.285-1.047 2.332-2.332 2.332s-2.332-1.047-2.332-2.332v-2.332zm-8.073 4.385c.154-1.271 1.327-2.179 2.598-2.025 1.285.154 2.193 1.327 2.025 2.598l-.279 2.318a2.33 2.33 0 0 1-2.612 2.025c-1.271-.154-2.179-1.327-2.025-2.598l.293-2.318zm20.642 0c-.154-1.271-1.327-2.179-2.598-2.025a2.34 2.34 0 0 0-2.039 2.598l.293 2.318c.154 1.285 1.327 2.193 2.598 2.025a2.34 2.34 0 0 0 2.039-2.598l-.293-2.318z" class="K"/><use href="#f" class="K"/><path d="M885.657 101.837a2.34 2.34 0 0 0-2.933-1.522 2.34 2.34 0 0 0-1.522 2.933l.978 3.114a2.34 2.34 0 0 0 2.933 1.522c1.229-.391 1.913-1.69 1.522-2.919l-.978-3.128z" class="K"/><use href="#g" class="K"/><use href="#h" class="K"/></g><use href="#i" class="D"/></g><g clip-path="url(#L)" class="B"><use href="#j" class="G N"/><path d="M867.179 31.614a4.07 4.07 0 0 1 3.478-1.927 4.11 4.11 0 0 1 3.478 1.927c6.229 9.553 18.617 29.832 18.617 39.985 0 11.634-9.902 21.089-22.095 21.089-12.207 0-22.109-9.455-22.109-21.089 0-10.153 12.402-30.432 18.631-39.985z" class="O"/><g class="D"><use href="#k"/><use href="#l" class="G"/><use href="#m" class="G"/><use href="#n" class="G"/><use href="#o"/></g></g><path d="M866.802 47.494a3.93 3.93 0 0 1 6.536 0l13.715 20.6c0 3.827-2.584 7.235-6.606 9.413-2.863 1.55-6.466 2.486-10.377 2.486-9.371 0-16.983-5.335-16.983-11.899l13.715-20.6z" class="B L"/><g clip-path="url(#M)"><g class="U"><rect x="855.42" y="42.648" width="29.748" height="30.041" rx="14.706" class="V"/><g class="B"><use href="#p"/></g></g><g class="c B"><use href="#q"/><use href="#r"/><use href="#s"/></g></g><g class="B"><g class="L"><use href="#t"/><use href="#u"/><use href="#v"/><use href="#w"/></g><g class="D"><use href="#x"/><path d="M846.23,85.58c.685-1.089,2.137-1.397,3.212-.712,1.089.698,1.411,2.151.712,3.226l-.098.154c-.698,1.089-2.151,1.411-3.226.712-1.089-.698-1.397-2.137-.712-3.226l.112-.154Z"/><use href="#y"/><use href="#z"/></g><path d="M847.906 107.577c.726-1.061 2.179-1.341 3.24-.614a2.35 2.35 0 0 1 .615 3.254l-1.844 2.682a2.32 2.32 0 0 1-3.24.614c-1.061-.726-1.341-2.179-.615-3.24l1.844-2.696z" class="F"/><g class="D"><use href="#AA"/><use href="#AB"/></g><g class="F"><path d="M854.344 115.412c.391-1.229 1.69-1.913 2.919-1.536s1.927 1.69 1.55 2.919l-.056.182c-.377 1.229-1.69 1.913-2.919 1.536s-1.927-1.69-1.536-2.919l.042-.182zm32.304-2.221a2.33 2.33 0 0 0-2.919-1.536c-1.229.377-1.913 1.69-1.536 2.919l.922 3.003c.391 1.229 1.69 1.927 2.919 1.55 1.243-.391 1.927-1.69 1.55-2.919l-.936-3.017z"/></g><g class="D"><use href="#AC"/><use href="#AD"/></g><path d="M860.434 117.66c.14-1.285 1.285-2.221 2.57-2.081s2.207 1.299 2.067 2.57l-.014.195c-.14 1.271-1.299 2.207-2.57 2.067-1.285-.14-2.207-1.299-2.081-2.57l.028-.182z" class="F"/><g class="D"><use href="#AE"/><use href="#AF"/></g><path d="M891.495 107.535a2.34 2.34 0 0 0-3.226-.698c-1.089.698-1.397 2.137-.712 3.226l2.793 4.33c.698 1.089 2.137 1.397 3.226.712 1.075-.698 1.397-2.151.698-3.226l-2.779-4.343z" class="F"/><g class="L"><use href="#AG"/><use href="#AH"/><use href="#AI"/></g><path d="M1211.948 138.801h9.344v25.684c0 1.229-.489 2.416-1.369 3.296-.88.866-2.067 1.369-3.296 1.369h-.014c-1.229 0-2.416-.503-3.296-1.369-.866-.88-1.369-2.067-1.369-3.296v-25.684z" class="a"/><g class="F"><path d="M1193.331 141.413c.684-1.089 2.137-1.397 3.212-.712 1.089.698 1.411 2.151.712 3.226l-5 7.807c-.684 1.089-2.137 1.411-3.212.712a2.33 2.33 0 0 1-.712-3.226l5-7.807z"/><path d="M1213.778 109.235a4.13 4.13 0 0 1 3.492-1.927 4.15 4.15 0 0 1 3.492 1.927l22.821 35.921c0 10.656-11.787 19.315-26.312 19.315s-26.312-8.659-26.312-19.315l22.821-35.921z"/></g></g><g clip-path="url(#N)" class="B S"><path d="M1214.727 93.313c.782-.922 1.927-1.439 3.129-1.439s2.346.517 3.128 1.439c6.969 8.128 23.184 28.086 23.184 37.835 0 10.67-11.788 19.329-26.312 19.329s-26.327-8.659-26.327-19.329c0-9.748 16.215-29.706 23.198-37.835z" class="T"/></g><g class="B"><path d="M1242.115,142.851c-.698-1.089-2.137-1.397-3.226-.712-1.075.698-1.397,2.151-.698,3.226l4.162,6.508c.698,1.075,2.151,1.397,3.226.698,1.089-.698,1.397-2.137.712-3.226l-4.176-6.494Z" class="F"/><g class="b"><path d="M1201.348 145.603c.377-1.229 1.69-1.913 2.919-1.536a2.34 2.34 0 0 1 1.522 2.933l-.978 3.114a2.34 2.34 0 0 1-2.933 1.522c-1.229-.377-1.913-1.69-1.522-2.919l.992-3.114zm-5.768-4.4a2.331 2.331 0 1 1 4.036 2.332l-2.109 3.659a2.331 2.331 0 1 1-4.036-2.332l2.109-3.659zm43.002-.125a2.331 2.331 0 1 0-4.036 2.332l2.109 3.659c.642 1.117 2.081 1.494 3.198.852 1.103-.643 1.494-2.067.852-3.184l-2.123-3.659z" class="K"/></g><path d="M1214.378 100.981a4.15 4.15 0 0 1 3.478-1.886c1.397 0 2.709.712 3.464 1.886l18.631 28.854c0 8.813-9.902 15.977-22.095 15.977-12.207 0-22.109-7.165-22.109-15.977l18.631-28.854z" class="D"/></g><g clip-path="url(#O)" class="B"><path d="M1214.741 82.783c.782-.908 1.913-1.425 3.115-1.425a4.12 4.12 0 0 1 3.114 1.425c6.089 7.039 18.98 22.877 18.98 30.712 0 8.827-9.902 15.977-22.095 15.977-12.207 0-22.109-7.151-22.109-15.977 0-7.835 12.891-23.673 18.994-30.712z" class="G N"/><path d="M1214.378 76.428a4.07 4.07 0 0 1 3.478-1.927 4.11 4.11 0 0 1 3.478 1.927c6.229 9.553 18.617 29.832 18.617 39.985 0 11.634-9.902 21.089-22.095 21.089-12.207 0-22.109-9.455-22.109-21.089 0-10.153 12.402-30.432 18.631-39.985z" class="O"/><g class="D"><path d="M1229.769 127.614c-.642-1.117-.265-2.556.852-3.198s2.542-.251 3.184.852l2.332 4.05c.656 1.117.265 2.542-.852 3.184a2.33 2.33 0 0 1-3.184-.852l-2.332-4.036z"/><path d="M1224.238 136.134c-.433-1.215.224-2.542 1.439-2.975 1.215-.419 2.542.237 2.961 1.453l.768 2.207a2.33 2.33 0 0 1-1.438 2.961c-1.215.419-2.556-.223-2.975-1.438l-.754-2.207zm-9.958-1.998a2.34 2.34 0 0 1 2.346-2.332c1.285 0 2.332 1.047 2.332 2.332v2.332c0 1.299-1.047 2.332-2.332 2.332a2.33 2.33 0 0 1-2.346-2.332v-2.332zm-9.175.391a2.34 2.34 0 0 1 3.031-1.327c1.201.461 1.788 1.816 1.327 3.017l-.852 2.179c-.461 1.201-1.816 1.788-3.017 1.327-1.201-.475-1.802-1.816-1.327-3.017l.838-2.179z" class="G"/><path d="M1201.445 124.486c.656-1.103 2.081-1.494 3.198-.852s1.494 2.081.852 3.198l-2.025 3.492a2.33 2.33 0 1 1-4.036-2.332l2.011-3.506z"/></g></g><path d="M1214.001 92.307a3.93 3.93 0 0 1 6.536 0l13.715 20.6c0 3.827-2.584 7.235-6.606 9.413-2.863 1.55-6.466 2.486-10.377 2.486-9.371 0-16.983-5.335-16.983-11.899l13.715-20.6z" class="B L"/><g clip-path="url(#P)"><g class="U"><rect x="1202.619" y="87.461" width="29.748" height="30.041" rx="14.706" class="V"/><g class="B"><path d="M1216.515 102.098c-.349-1.243.377-2.528 1.62-2.877s2.528.377 2.877 1.62l.196.671c.335 1.243-.391 2.528-1.62 2.877-1.243.349-2.528-.377-2.877-1.62l-.196-.67z"/></g></g><g class="c B"><path d="M1221.948 107.251a2.34 2.34 0 0 1 1.117-3.114c1.159-.545 2.556-.056 3.1 1.117l1.006 2.109c.545 1.159.056 2.556-1.117 3.1-1.159.559-2.556.056-3.101-1.103l-1.006-2.109zm-7.668 3.548a2.34 2.34 0 0 1 2.346-2.332c1.285 0 2.332 1.047 2.332 2.332v2.332a2.34 2.34 0 0 1-2.332 2.346 2.34 2.34 0 0 1-2.346-2.346v-2.332zm-4.692-7.849c.642-1.117 2.081-1.494 3.184-.852a2.35 2.35 0 0 1 .852 3.198l-1.173 2.011a2.35 2.35 0 0 1-3.198.852c-1.103-.656-1.494-2.081-.838-3.198l1.173-2.011z"/></g></g><g class="B"><g class="L"><path d="M1220.188 124.625c0-1.299-1.047-2.332-2.332-2.332s-2.332 1.033-2.332 2.332v.182c0 1.285 1.047 2.332 2.332 2.332s2.332-1.047 2.332-2.332v-.182zm12.402-5.684c-.489-1.201-1.857-1.774-3.045-1.285-1.201.475-1.774 1.844-1.285 3.031l.07.182c.489 1.187 1.843 1.76 3.045 1.285a2.36 2.36 0 0 0 1.285-3.045l-.07-.168zm-30.237-.028c.489-1.187 1.858-1.774 3.045-1.285a2.33 2.33 0 0 1 1.285 3.045l-.07.168c-.489 1.187-1.843 1.774-3.031 1.285a2.33 2.33 0 0 1-1.285-3.045l.056-.168zm33.687-5.712c-.698-1.089-2.137-1.397-3.226-.712a2.33 2.33 0 0 0-.698 3.226l.098.154c.698 1.089 2.137 1.397 3.226.712 1.075-.698 1.397-2.151.698-3.226l-.098-.154z"/></g><g class="D"><path d="M1241.822 130.393c-.698-1.089-2.137-1.397-3.226-.712a2.33 2.33 0 0 0-.698 3.226l.098.154a2.33 2.33 0 0 0 3.226.712 2.34 2.34 0 0 0 .698-3.226l-.098-.154zm-48.393 0c.685-1.089 2.137-1.397 3.212-.712 1.089.698 1.411 2.151.712 3.226l-.098.154c-.698 1.089-2.151 1.411-3.226.712-1.089-.698-1.397-2.137-.712-3.226l.112-.154zm40.795 10.238a2.34 2.34 0 0 0-3.226-.698c-1.089.698-1.397 2.137-.698 3.226l.098.154c.684 1.075 2.137 1.397 3.226.698a2.34 2.34 0 0 0 .698-3.226l-.098-.154zm-33.198 0a2.34 2.34 0 0 1 3.226-.698 2.34 2.34 0 0 1 .698 3.226l-.098.154a2.34 2.34 0 0 1-3.226.698c-1.089-.698-1.397-2.137-.698-3.226l.098-.154zm28.003 3.114c-.377-1.229-1.69-1.927-2.919-1.55s-1.927 1.69-1.536 2.919l.056.182a2.32 2.32 0 0 0 2.905 1.536c1.243-.377 1.927-1.69 1.55-2.919l-.056-.168zm-22.807 0a2.34 2.34 0 0 1 2.919-1.55c1.229.377 1.914 1.69 1.536 2.919l-.056.182c-.377 1.229-1.69 1.913-2.919 1.536s-1.913-1.69-1.536-2.919l.056-.168zm16.731 2.235c-.14-1.285-1.299-2.207-2.57-2.067a2.33 2.33 0 0 0-2.081 2.57l.028.182c.14 1.271 1.285 2.207 2.57 2.067 1.271-.14 2.207-1.285 2.067-2.57l-.014-.182zm-10.656 0c.14-1.285 1.285-2.207 2.57-2.067 1.285.126 2.207 1.285 2.067 2.57l-.014.182c-.14 1.271-1.285 2.207-2.57 2.067s-2.207-1.285-2.067-2.57l.014-.182zm26.718-9.665c-.684-1.075-2.137-1.397-3.212-.698a2.33 2.33 0 0 0-.712 3.226l.098.154a2.33 2.33 0 0 0 3.226.698c1.089-.684 1.397-2.137.712-3.226l-.112-.154zm-42.793 0a2.34 2.34 0 0 1 3.226-.698c1.089.698 1.397 2.137.698 3.226l-.098.154c-.698 1.089-2.137 1.397-3.226.698-1.075-.684-1.397-2.137-.698-3.226l.098-.154z"/></g><g class="L"><path d="M1198.904 113.173c.698-1.089 2.137-1.397 3.226-.698 1.089.684 1.397 2.137.698 3.212l-.098.168a2.34 2.34 0 0 1-3.226.698 2.34 2.34 0 0 1-.698-3.226l.098-.154zm28.491 9.721c-.21-1.271-1.411-2.137-2.682-1.927s-2.123 1.411-1.913 2.682l.028.182c.21 1.271 1.411 2.137 2.682 1.927s2.137-1.411 1.913-2.682l-.028-.182zm-19.846-.028c.209-1.271 1.411-2.137 2.681-1.927a2.33 2.33 0 0 1 1.913 2.696l-.028.182c-.209 1.271-1.41 2.123-2.681 1.913s-2.123-1.411-1.913-2.682l.028-.182z"/></g></g><g clip-path="url(#Q)" class="B"><path d="M1275.708 144.829c.782-.908 1.913-1.425 3.115-1.425a4.12 4.12 0 0 1 3.114 1.425c6.089 7.039 18.98 22.877 18.98 30.712 0 8.827-9.902 15.977-22.095 15.977-12.207 0-22.109-7.151-22.109-15.977 0-7.835 12.891-23.673 18.994-30.712z" class="G N"/><path d="M1275.345 138.474a4.07 4.07 0 0 1 3.478-1.927 4.11 4.11 0 0 1 3.478 1.927c6.229 9.553 18.617 29.832 18.617 39.985 0 11.634-9.902 21.089-22.095 21.089-12.207 0-22.109-9.455-22.109-21.089 0-10.153 12.402-30.432 18.631-39.985z" class="O"/></g><path d="M187.054 118.832h23.287v20.699h-23.287z" fill="#cca37d"/><g class="B"><path d="M212.928 136.944h-28.461l-12.937 23.287h54.335l-12.937-23.287z" fill="#c0906b"/><g fill="#b27a51"><path d="M187.054 118.832l-15.524 23.287v18.112l15.524-23.287v-18.112zm23.287 0l15.524 23.287v18.112l-15.524-23.287v-18.112z"/></g><use href="#AJ" class="D"/></g><use href="#AJ" stroke="#eefaf9" stroke-width="2.51" class="C R"/><g class="B"><path d="M1345.508-82.294l20.878-38.459a1.58 1.58 0 0 1 2.963.753v80.987c0 2.499.993 4.895 2.759 6.662a9.42 9.42 0 0 0 6.662 2.759h16.93l-26.351 40.154h-5.509a18.33 18.33 0 0 1-18.332-18.332v-74.524z" fill="#dff8f5"/><path d="M1366.981-24.854a8.57 8.57 0 0 1 7.666-4.738h61.271c2.295 0 4.419 1.21 5.591 3.183l13.077 22.024c1.816 3.058 1.851 6.856.091 9.948s-5.043 5-8.6 5h-80.792c-3.43 0-6.615-1.776-8.418-4.693s-1.967-6.56-.433-9.628l10.548-21.095z" fill="#cdf4f0"/><path d="M1425.35 10.562l13.143-36.984a1.58 1.58 0 0 1 1.333-1.042c.609-.059 1.197.239 1.509.765l21.897 36.912a9.42 9.42 0 0 0 8.103 4.614h20.985l-26.351 40.154h-6.57a16.44 16.44 0 0 1-14.42-8.547l-19.63-35.873z" fill="#dff8f5"/><path d="M1466.264 20.513c1.742-3.484 5.303-5.685 9.2-5.685h125.19c3.63 0 6.991 1.913 8.844 5.034l11.977 20.172a9.9 9.9 0 0 1 .092 9.948c-1.76 3.091-5.043 5-8.6 5h-152.751a6.91 6.91 0 0 1-5.88-3.278c-1.259-2.038-1.374-4.583-.303-6.726l12.232-24.464z" fill="#cdf4f0"/></g><path d="M1160.595 86.675c0-3.603-2.939-6.529-6.56-6.529h-15.445c-3.62 0-6.561 2.925-6.561 6.529v11.086c0 3.603 2.94 6.529 6.561 6.529h15.445c3.62 0 6.56-2.925 6.56-6.529V86.675z" class="P"/><path d="M1144.59 101.088h3.449v3.39h-3.449z" fill="#008dca"/><path d="M1157.524 89.824c0-2.96-2.414-5.363-5.388-5.363h-11.641a5.38 5.38 0 0 0-5.389 5.363v7.596a5.38 5.38 0 0 0 5.389 5.363h11.641c2.974 0 5.388-2.403 5.388-5.363v-7.596z" class="f"/><g fill="#008dca"><path d="M1157.524 89.824l-3.434-3.857 1.717-.43 1.717 2.587v1.7z"/><path d="M1157.524 88.059v.053a3.45 3.45 0 0 0-3.449-3.449h-15.588c-.91 0-1.782.582-2.426 1.62s-1.057 2.443-1.057 3.909V88.06h22.52z"/></g><path d="M1146.316 101.92a1.91 1.91 0 0 0 1.372-.588c.364-.377.567-.887.567-1.42v-.432c0-.081-.063-.147-.141-.147h-3.597c-.078 0-.142.066-.142.147v.432c0 .532.204 1.043.568 1.42a1.91 1.91 0 0 0 1.372.588h0z" fill="#006793"/><rect x="1138.551" y="91.549" width="5.159" height="7.781" rx="1.216" class="D"/><rect x="1139.754" y="92.825" width="2.753" height="5.228" rx=".729" class="I"/><rect x="1148.909" y="91.549" width="5.159" height="7.781" rx="1.216" class="D"/><g class="I"><rect x="1150.112" y="92.825" width="2.753" height="5.228" rx=".729"/><g class="B"><path d="M1147.073 89.49a5.16 5.16 0 0 1-4.125 2.058h-9.407v-3.987a5.47 5.47 0 0 1 1.604-3.87c1.026-1.026 2.418-1.603 3.87-1.603h12.474c1.429 0 2.587 1.158 2.587 2.587h0-.802a5.16 5.16 0 0 0-4.125 2.058l-2.075 2.757z"/></g></g><path d="M1156.346,134.038c0-.714-.579-1.293-1.293-1.293h-17.501c-.713,0-1.293.58-1.293,1.293s.58,1.293,1.293,1.293h17.501c.714,0,1.293-.58,1.293-1.293Z" class="B M"/><g class="C H J"><g class="X g"><path d="M1170.204 131.404l2.045 2.343"/><path d="M1170.055 133.598l2.343-2.044"/></g><path d="M1157.751 117.131l13.058 14.967" stroke="#132023" class="Y"/><g class="X g"><path d="M1122.561 131.404l-2.044 2.343"/><path d="M1122.711 133.598l-2.344-2.044"/></g><path d="M1135.014 117.131l-13.058 14.967" stroke="#132023" class="Y"/></g><g class="f"><path d="M1137.334 115.557c-.151-.536-.519-.984-1.017-1.235l-.197-.099c-.718-.364-1.596-.102-1.998.597l-.246.427c-.225.39-.281.855-.16 1.287s.414.8.808 1.016l.306.167a1.13 1.13 0 0 0 1.32-.169l.152-.142c.283.124.613.01.76-.261l.118-.217a1.82 1.82 0 0 0 .154-1.372"/><path d="M1135.417 115.685a.79.79 0 0 1 1.064-.33.79.79 0 0 1 .33 1.064l-.743 1.41a.79.79 0 0 1-1.063.33.79.79 0 0 1-.33-1.063l.742-1.41z"/></g><path d="M1144.925,104.289h-2.798c-.708,0-1.385.29-1.873.803l-2.65,2.783c-.279.293-.505.634-.666,1.006l-2.263,5.217,2.894.811,1.98-4.701c.079-.187.19-.358.328-.507l5.048-5.412Z" class="h"/><rect x="1133.994" y="113.24" width="4.275" height="2.549" rx=".567" transform="matrix(.918384 .39569 -.39569 .918384 138.04 -440.213)" fill="#f1e1c9"/><path d="M1138.345 122.514h0a1.65 1.65 0 0 0 .385-1.727l-1.551-4.293-1.551 4.293a1.65 1.65 0 0 0 .385 1.727h0a1.65 1.65 0 0 0 2.333 0z" class="C J X Y"/><g class="f"><path d="M1155.29 115.557c.151-.536.519-.984 1.017-1.235l.197-.099c.718-.364 1.596-.102 1.998.597l.246.427c.225.39.281.855.16 1.287s-.414.8-.808 1.016l-.306.167a1.13 1.13 0 0 1-1.32-.169l-.152-.142c-.283.124-.613.01-.76-.261l-.118-.217a1.82 1.82 0 0 1-.154-1.372"/><path d="M1157.207 115.685a.79.79 0 0 0-1.064-.33.79.79 0 0 0-.33 1.064l.743 1.41a.79.79 0 0 0 1.063.33.79.79 0 0 0 .33-1.063l-.742-1.41z"/></g><path d="M1147.699,104.289h2.798c.708,0,1.385.29,1.873.803l2.65,2.783c.279.293.505.634.666,1.006l2.263,5.217-2.894.811-1.98-4.701c-.079-.187-.19-.358-.328-.507l-5.048-5.412Z" class="h"/><rect x="1154.355" y="113.24" width="4.275" height="2.549" rx=".567" transform="matrix(-.918384 .39569 -.39569 -.918384 2263.908 -237.934)" fill="#f1e1c9"/><path d="M1154.42 122.514h0a1.65 1.65 0 0 1-.385-1.727l1.551-4.293 1.551 4.293a1.65 1.65 0 0 1-.385 1.727h0a1.65 1.65 0 0 1-2.333 0z" class="C J X Y"/><path d="M1150.15 104.289h-7.689l-.688 8.623h9.064l-.687-8.623z" class="I"/><path d="M1147.995 131.882h3.164l-.566-17.07h-3.165l.567 17.07z" class="h"/><path d="M1144.609 131.882h-3.164l.566-17.07h3.165l-.567 17.07z" fill="#2e3145"/><path d="M1144.532 128.6a2.66 2.66 0 0 1-1.749 2.42h-1.315l.247-7.345h.379c.678 0 1.326.275 1.798.762a2.5 2.5 0 0 1 .701 1.822l-.06 2.341z" class="P"/><g clip-path="url(#R)"><path d="M1141.588,130.551h-.431v-.862h.431c.586,0,1.258-.465,1.278-1.086l.098-2.927c.035-1.048.884-1.868,1.935-1.868.237,0,.431.194.431.431s-.194.431-.431.431c-.583,0-1.054.455-1.073,1.036l-.098,2.925c-.035,1.041-1.016,1.92-2.141,1.92Z" fill="#c8ff34"/></g><path d="M1144.646 131.02l-1.912.002h-1.223c-.167 0-.328.067-.446.184l-2.636 2.637.004.627h6.061l.151-3.449z" class="B P"/><g clip-path="url(#S)" class="B I"><path d="M1144.617 134.459l.058-1.164h-1.031a1.18 1.18 0 0 0-.831.344c-.22.22-.344.519-.344.831h0l2.148-.01z"/></g><path d="M1141.261 134.459a1.23 1.23 0 0 0-1.23-1.231c-.429 0-.945-.002-1.373-.003a1.25 1.25 0 0 0-.88.364c-.232.233-.363.549-.363.879h0l3.846-.009z" class="B I"/><path d="M1143.643 131.431a.47.47 0 0 0 .47.485h0a.52.52 0 0 0 .519-.502l.226-6.719h0c-.552 0-1.004.437-1.023.988l-.193 5.746z" fill="#f48f29"/><path d="M1147.957 131.02l1.912.002h1.223c.167 0 .328.067.446.184l2.636 2.637-.004.627h-6.061l-.151-3.449z" fill="#c8ff34" class="B"/><g clip-path="url(#T)" class="B I"><path d="M1147.987 134.459l-.058-1.164h1.031a1.18 1.18 0 0 1 .831.344c.22.22.344.519.344.831h0l-2.148-.01z"/></g><g class="B"><path d="M1151.342 134.459a1.23 1.23 0 0 1 1.23-1.231l1.373-.003a1.25 1.25 0 0 1 .88.364c.232.233.363.549.363.879h0l-3.846-.009z" class="I"/><path d="M1141.765 112.912h9.083l.833 15.278a.86.86 0 0 1-.861.909h-2.78c-.476 0-.862-.386-.862-.863l.006-12.738h-1.737l.013 12.738c0 .477-.386.863-.862.863h-2.82c-.495 0-.888-.416-.861-.91l.849-15.278z" class="P"/></g><g clip-path="url(#U)" class="I"><use href="#AK"/><path d="M1137.372 120.496h5.638v1.725h-5.638zm9.168 6.948h5.638v1.725h-5.638zm3.054-6.948h5.638v1.725h-5.638z"/></g><path d="M1146.305 104.289v8.623" stroke="#9f2800" stroke-miterlimit="10" class="C g"/><g class="B P"><path d="M1143.397 106.777h5.815l-.088-1.625h-5.638l-.089 1.625zm-.177 3.258h6.17l-.1-1.827h-5.971l-.099 1.827z"/></g></g></svg>