<svg xmlns="http://www.w3.org/2000/svg" width="1500" height="145" xmlns:v="https://vecta.io/nano"><style><![CDATA[.B{opacity:.6}.C{fill:#ffac38}.D{fill-rule:evenodd}.E{fill:#f79712}.F{fill:#f77f12}.G{fill:#071c1c}.H{fill:#00bcbc}.I{fill:#72709c}]]></style><defs><clipPath id="A"><path d="M0 0h1500v145H0z" fill="none"/></clipPath><clipPath id="B"><path d="M646.836 44.661a2.06 2.06 0 0 1 1.456.603c.382.386.601.91.601 1.456h0c0 .547-.219 1.07-.601 1.457a2.06 2.06 0 0 1-1.456.602h-4.769 8.447l3.482 3.197h-15.101a3.66 3.66 0 0 1-2.585-1.07 3.67 3.67 0 0 1-1.07-2.586h0a3.66 3.66 0 0 1 3.655-3.658h7.942z" fill="none"/></clipPath></defs><g clip-path="url(#A)"><path d="M-3.045-181.043h1609.796v443.872H-3.045z" fill="#ffed8b"/><path d="M860.188-122.494c-26.13 0-47.313 21.183-47.313 47.313v2.873c0 75.836-61.477 137.313-137.313 137.313H-12.689c-26.088 0-46.914 21.276-46.923 47.364-.026 71.284 281.94 253.523 281.94 253.523h1346.787v-488.386H860.188z" fill="#4eeae6"/><path d="M1584.986-178.469H860.188c-50.983 0-92.313 41.33-92.313 92.313v2.873c0 50.983-41.33 92.313-92.313 92.313H-24.294l-163.262 184.627c-50.983 0-92.313-41.33-92.313-92.313v-2736.193c0-50.983 41.33-92.313 92.313-92.313h1690.308c57.247 0 100.691 51.567 90.974 107.983l-8.739 2440.709z" fill="#00b365" stroke="#00b365" stroke-dasharray="0 10" stroke-linecap="round" stroke-linejoin="round" stroke-width="10"/><g class="B C"><ellipse cx="532.568" cy="41.142" rx="1.966" ry="1.97"/></g><g class="B C"><ellipse cx="524.88" cy="40.409" rx="1.966" ry="1.97"/></g><g class="B C"><ellipse cx="527.728" cy="34.823" rx="1.966" ry="1.97"/></g><path d="M1511.558 59.938h-481.226a134.54 134.54 0 0 0-79.662 26.12h0c-23.094 16.969-51.003 26.12-79.662 26.12H-16.533v42.792h1528.091V59.938z" fill="#04d5d8" class="D"/><g class="B C"><ellipse cx="264.59" cy="37.305" rx="1.966" ry="1.97"/></g><g class="B C"><ellipse cx="272.278" cy="38.038" rx="1.966" ry="1.97"/></g><g class="B C"><ellipse cx="269.43" cy="43.624" rx="1.966" ry="1.97"/></g><g class="B C"><ellipse cx="212.381" cy="46.204" rx="1.966" ry="1.97"/></g><g class="B C"><ellipse cx="311.071" cy="47.473" rx="1.966" ry="1.97"/></g><g class="B C"><ellipse cx="284.747" cy="30.475" rx="1.966" ry="1.97"/></g><g class="B C"><ellipse cx="64.339" cy="47.991" rx="1.966" ry="1.97"/></g><g class="B C"><ellipse cx="72.027" cy="48.723" rx="1.966" ry="1.97"/></g><g class="B C"><ellipse cx="69.179" cy="54.309" rx="1.966" ry="1.97"/></g><g class="B C"><ellipse cx="84.496" cy="41.16" rx="1.966" ry="1.97"/></g><path d="M687.177 13.518l.115.097c.115.101.157.177.254.302.285.404.35.885.191 1.311.024.114-.022.191-.065.269l-.07.121-15.461 26.777-3.712.016 16.396-28.396.07-.121c.065-.116.135-.236.263-.312.37-.337.881-.478 1.407-.347.148.039.226.055.357.127l.13.074c.063.041.061.046.124.082z" fill="#f2c100"/><path d="M699.552 37.605c6.354-11.004 2.586-25.07-8.419-31.423s-25.069-2.584-31.423 8.42l39.841 23.003z" fill="#0ff"/><path d="M621.173 41.842h40.054v13.865h-40.054z" fill="#8439c5"/><path d="M641.817 30.67h4.18v4.702h-4.18z" class="F"/><path d="M636.95,25.271c0-1.25,1.015-2.264,2.264-2.264h9.404c1.249,0,2.264,1.014,2.264,2.264v4.528c0,1.25-1.015,2.264-2.264,2.264h-9.404c-1.249,0-2.264-1.014-2.264-2.264v-4.528Z" class="E"/><g class="G"><path d="M643.689 22.718h5.272c.633 0 1.242.257 1.689.701a2.37 2.37 0 0 1 .701 1.693v4.554c0 .643-.251 1.25-.701 1.693s-1.056.701-1.689.701h-2.654c-.695 0-1.36-.28-1.852-.771a2.61 2.61 0 0 1-.766-1.845v-6.726zm11.155.698a1.75 1.75 0 0 0-.508-1.231c-.328-.324-.77-.509-1.233-.509h0c-.46 0-.905.185-1.229.509a1.74 1.74 0 0 0-.512 1.231v6.904c0 1.926 1.561 3.484 3.483 3.484h0V23.416z"/></g><path d="M644.691,25.879c-1.13,0-2.046.916-2.046,2.046s.916,2.046,2.046,2.046,2.046-.916,2.046-2.046-.916-2.046-2.046-2.046Z" class="E"/><g class="G"><path d="M635.451 25.508c0-1.537 1.246-2.785 2.787-2.785h5.675v3.073h-8.462v-.288zm3.579 2.16c0-.171.136-.306.303-.306h.61c.171 0 .307.136.307.306v1.999c0 .171-.136.306-.307.306h-.61c-.167 0-.303-.136-.303-.306v-1.999z"/></g><path d="M640.3 36.627a3.18 3.18 0 0 1 3.182-3.184h2.438c1.062 0 1.96.784 2.105 1.833l1.417 10.246a2.96 2.96 0 0 1-.699 2.348c-.563.644-1.377 1.013-2.23 1.013h-1.782c-.673 0-1.327-.244-1.839-.68l-2.591-2.218v-9.358z" fill="#5a93f2"/><path d="M642.347 44.661a2.06 2.06 0 0 1 1.456.603c.382.386.601.91.601 1.456h0c0 .547-.218 1.07-.601 1.457a2.06 2.06 0 0 1-1.456.602h-4.77 8.448l3.482 3.197h-15.101a3.66 3.66 0 0 1-2.585-1.071c-.683-.686-1.069-1.616-1.069-2.586h0a3.67 3.67 0 0 1 1.069-2.586 3.66 3.66 0 0 1 2.585-1.071h7.942z" class="F"/><path d="M646.836 44.661a2.06 2.06 0 0 1 1.456.603c.382.386.601.91.601 1.456h0c0 .547-.219 1.07-.601 1.457a2.06 2.06 0 0 1-1.456.602h-4.769 8.447l3.482 3.197h-15.101a3.66 3.66 0 0 1-2.585-1.07 3.67 3.67 0 0 1-1.07-2.586h0a3.66 3.66 0 0 1 3.655-3.658h7.942z" class="E"/><g clip-path="url(#B)" class="F"><path d="M649.555 47.385h-10.099a.7.7 0 0 0-.698.697.7.7 0 0 0 .698.697h10.099v-1.393z"/></g><path d="M633.716 32.41h1.393v5.573h-1.393z" class="G"/><path d="M646.609 36.269c.335-.581.335-1.297 0-1.874a1.86 1.86 0 0 0-1.623-.937h-.15a1.87 1.87 0 0 0-1.623.937l-2.885 4.998-4.588-2.946a1.76 1.76 0 0 0-1.429-.208c-.484.139-.886.483-1.1.936h0a1.49 1.49 0 0 0 .513 1.873l5.418 3.687c.693.47 1.552.628 2.368.442a3.01 3.01 0 0 0 1.937-1.431l3.163-5.478z" class="E"/><rect x="1214.065" y="82.405" width="20.877" height="9.489" rx="4.745" class="H"/><path d="M1221.014-.358h6.98V87.15h-6.98z" class="I"/><path d="M1213.723-32.691c-1.161-1.969-3.637-2.725-5.695-1.737s-3.006 3.389-2.185 5.522l10.327 26.763-14.118 24.905a4.39 4.39 0 0 0 7.238 4.932l18.014-22.25 28.686-.179c2.285-.016 4.172-1.777 4.34-4.053s-1.443-4.304-3.699-4.664l-28.341-4.513-14.568-24.726z" fill="#fff" class="D"/><rect x="1269.907" y="41.859" width="20.877" height="9.489" rx="4.745" class="H"/><path d="M1276.855-40.905h6.98v87.508h-6.98z" class="I"/><rect x="1160.957" y="27.006" width="20.877" height="9.489" rx="4.745" class="H"/><path d="M1167.905-55.758h6.98V31.75h-6.98z" class="I"/><path d="M1321.121 36.338h16v16h-16z" fill="#d2d75f" opacity="0"/><path d="M1335.403 52.338h-12.564a1.5 1.5 0 1 1 0-3h12.564a1.5 1.5 0 1 1 0 3z" fill="#02b8bc"/><path d="M1334.752 50.994a16.41 16.41 0 0 0-9.611-11.17l-2.688-1.12a.75.75 0 0 0-.975.985c1.5 3.5 2.274 7.269 2.274 11.078v.228h11z" fill="#478976" class="D"/><path d="M1394.847 7.595h16v16h-16z" fill="#d2d75f" opacity="0"/><path d="M1396.565 23.595h12.564a1.5 1.5 0 1 0 0-3h-12.564a1.5 1.5 0 1 0 0 3z" fill="#02b8bc"/><path d="M1397.216 22.25a16.41 16.41 0 0 1 9.611-11.17l2.688-1.12a.75.75 0 0 1 .975.985c-1.5 3.5-2.274 7.269-2.274 11.078v.228h-11z" fill="#478976" class="D"/></g></svg>