<svg xmlns="http://www.w3.org/2000/svg" width="1500" height="145" xmlns:v="https://vecta.io/nano"><style><![CDATA[.B{fill:#00b9b5}.C{fill-rule:evenodd}.D{clip-rule:evenodd}]]></style><defs><clipPath id="A"><path d="M0 0h1500v145H0z" fill="none"/></clipPath><clipPath id="B"><path d="M208.783 50.455l6.07-6.292a.4.4 0 0 1 .681.373l-1.766 7.046a3.06 3.06 0 0 0 0 1.492l1.766 7.046a.4.4 0 0 1-.681.373l-6.07-6.582-.349-1.699.349-1.757z" class="B D"/></clipPath><clipPath id="C"><path d="M158.294 62.656l4.082-4.231a.27.27 0 0 1 .458.251l-1.188 4.739a2.05 2.05 0 0 0 0 1.003l1.188 4.739a.27.27 0 0 1-.458.251l-4.082-4.426-.235-1.143.235-1.181z" class="B D"/></clipPath><clipPath id="D"><path d="M187.957 75.401l3.213-3.331c.066-.07.172-.087.256-.04s.128.144.104.238l-.935 3.73c-.065.259-.065.53 0 .79l.935 3.73c.023.094-.019.191-.104.238s-.19.03-.256-.04l-3.213-3.484-.185-.899.185-.93z" class="B D"/></clipPath><path id="E" d="M672.525 6.978a1.96 1.96 0 0 0 1.961-1.96V.926a1.96 1.96 0 1 0-3.922 0v4.092a1.96 1.96 0 0 0 1.961 1.96z"/><path id="F" d="M176.781 53.204a.43.43 0 0 1-.432-.432v-1.885c0-.238.194-.432.432-.432s.432.193.432.432v1.885c0 .238-.194.432-.432.432z"/><path id="G" d="M208.783 50.455l6.07-6.292a.4.4 0 0 1 .681.373l-1.766 7.046a3.06 3.06 0 0 0 0 1.492l1.766 7.046a.4.4 0 0 1-.681.373l-6.07-6.582-.349-1.699.349-1.757z"/><path id="H" d="M171.26 54.606l-.581-.696h1.163l-.582.696z"/><path id="I" d="M168.934 54.606l-.582-.696h1.163l-.581.696z"/><path id="J" d="M136.772 64.505a.29.29 0 0 1-.291-.29v-1.268a.29.29 0 1 1 .582 0v1.268a.29.29 0 0 1-.291.29z"/><path id="K" d="M158.294 62.656l4.082-4.231a.27.27 0 0 1 .458.251l-1.188 4.739a2.05 2.05 0 0 0 0 1.003l1.188 4.739a.27.27 0 0 1-.458.251l-4.082-4.426-.235-1.143.235-1.181z"/><path id="L" d="M133.06 65.448l-.391-.468h.782l-.391.468z"/><path id="M" d="M171.015 76.856a.23.23 0 0 1-.229-.229v-.998a.23.23 0 0 1 .229-.229.23.23 0 0 1 .229.229v.998a.23.23 0 0 1-.229.229z"/><path id="N" d="M187.957 75.401l3.213-3.331c.066-.07.172-.087.256-.04s.128.144.104.238l-.935 3.73c-.065.259-.065.53 0 .79l.935 3.73c.023.094-.019.191-.104.238s-.19.03-.256-.04l-3.213-3.484-.185-.899.185-.93z"/><path id="O" d="M168.092 77.599l-.308-.369h.616l-.308.369z"/><path id="P" d="M166.86 77.599l-.307-.369h.615l-.308.369z"/></defs><g clip-path="url(#A)"><path d="M-80.448-5056.348h1640.647V167.464H-80.448z" fill="#04d5d8"/><path d="M777.251-185.317c-2.656-2.657-5.691-4.901-8.917-6.826l-64.385-38.449c-5.241-3.551-11.783-4.62-17.992-3.383l-33.534 6.678c-7.12 0-11.455-7.839-7.67-13.87l14.891-23.725c4.173-6.648 4.914-14.891 1.995-22.177l-14.293-35.675c-8.47-21.141-28.952-35-51.727-35h0c-21.774 0-41.554 12.683-50.64 32.471l-7.34 15.986c-9.57 20.842-5.394 45.419 10.524 61.929l34.557 35.843a35.54 35.54 0 0 1 7.507 37.626l-15.576 39.775c-8.382 21.405-8.122 45.229.725 66.446l29.35 70.385c14.138 33.903 47.719 55.576 84.436 54.493l29.305-.864c6.153-.181 12.487-1.475 18.718-3.458 39.588-12.596 65.935-49.879 66.197-91.421.036-5.681-.439-10.922-1.554-15.357l-10.01-101.2c-.59-5.969-2.198-11.817-4.969-17.137-2.509-4.818-5.744-9.235-9.599-13.09z" fill="#3ee1de"/><path d="M596.528-94.728h-.26a8.71 8.71 0 0 1-8.696-8.437 8.7 8.7 0 0 1 8.436-8.955c.262-.008.511.039.768.054l.027-.221-.746-.191c-4.559-1.524-6.992-6.457-5.451-11.017 1.524-4.559 6.457-6.992 11.017-5.466.249.084.488.182.724.286.026-.048.055-.094.082-.142-.019-.012-.04-.019-.059-.031-4.09-2.515-5.371-7.868-2.857-11.958 2.516-4.104 7.87-5.386 11.958-2.855l.094-.148a8.7 8.7 0 0 1-2.853-11.971c2.516-4.09 7.87-5.371 11.958-2.855l.098-.147c-4.089-2.514-5.371-7.868-2.856-11.956 2.516-4.105 7.87-5.387 11.975-2.857.193.118.348.272.529.402.042-.048.087-.093.129-.141a8.44 8.44 0 0 1-.528-.585 8.71 8.71 0 0 1 1.345-12.234c3.733-3.003 9.217-2.402 12.218 1.329.17.211.287.445.434.667.062-.034.122-.072.184-.106-.03-.065-.07-.121-.099-.187-1.914-4.397.114-9.524 4.527-11.438 4.397-1.916 9.524.112 11.438 4.509l.175-.069c-.055-.131-.126-.25-.175-.384-1.654-4.511.665-9.508 5.176-11.164s9.507.665 11.163 5.176c.092.252.168.505.235.759.061-.011.121-.019.182-.029-.023-.266-.078-.522-.077-.794a8.69 8.69 0 0 1 8.745-8.648 8.7 8.7 0 0 1 8.664 8.729c-.002.271-.059.525-.084.789l.183.035a8.9 8.9 0 0 1 .242-.759c1.687-4.494 6.701-6.766 11.196-5.078a8.69 8.69 0 0 1 5.094 11.196c-.096.254-.223.485-.339.724l.174.104c.155-.216.281-.445.458-.651 3.147-3.617 8.646-4.007 12.281-.859 0 0 0 .016.016.016l.082.081c3.617 3.148 3.991 8.648.843 12.265l-.002.002.131.114c3.15-3.619 8.65-3.993 12.269-.845 3.617 3.162 4.007 8.663.844 12.28l.149.13c.124-.137.219-.29.352-.421a8.73 8.73 0 0 1 12.316.179 8.71 8.71 0 0 1-.179 12.299c-.191.186-.407.322-.61.486.042.061.08.125.122.186.225-.124.428-.275.667-.381 4.397-1.931 9.54.049 11.487 4.446 1.93 4.397-.049 9.54-4.446 11.47a8.76 8.76 0 0 1-.735.278l.039.164c.256-.038.514-.069.777-.084 4.787-.293 8.924 3.357 9.199 8.144v.016c.292 4.787-3.359 8.908-8.162 9.199l-.001.163h.001a8.7 8.7 0 0 1 9.184 8.193c.291 4.786-3.373 8.906-8.175 9.183l.01.18c4.805-.293 8.91 3.373 9.186 8.176.276 4.786-3.375 8.907-8.177 9.184l.01.179a8.69 8.69 0 0 1 9.188 8.177c.276 4.803-3.391 8.908-8.177 9.184h-.002l.01.177c4.799-.286 8.915 3.378 9.192 8.177a8.7 8.7 0 0 1-8.177 9.184l.005.179a8.69 8.69 0 0 1 9.194 8.177 8.7 8.7 0 0 1-8.177 9.184c-.049.004-.094.002-.142.004 0 .054-.004.108-.005.162.259.026.519.059.779.11 4.706.924 7.788 5.484 6.88 10.206-.811 4.153-4.446 7.041-8.534 7.041a8.15 8.15 0 0 1-1.656-.163c-.261-.05-.515-.116-.765-.188l-.061.154c.016.007.032.011.048.018 4.413 1.898 6.457 7.01 4.559 11.422-1.412 3.294-4.623 5.273-7.998 5.273a8.86 8.86 0 0 1-3.424-.697c-.011-.005-.021-.011-.033-.016-.025.056-.052.111-.078.167.231.131.473.231.695.385 3.926 2.759 4.899 8.177 2.158 12.12-1.687 2.434-4.397 3.731-7.14 3.731-1.719 0-3.456-.518-4.964-1.558-.223-.156-.401-.348-.605-.52l-.158.161c.166.198.352.371.503.587a8.7 8.7 0 0 1-2.174 12.12c-1.51 1.054-3.245 1.558-4.966 1.558-2.741 0-5.452-1.315-7.138-3.731-.15-.217-.247-.452-.375-.676-.06.028-.123.05-.183.077.086.243.167.49.233.745a8.69 8.69 0 0 1-6.248 10.578c-.729.195-1.459.293-2.174.293-3.877 0-7.415-2.613-8.42-6.539-.064-.247-.11-.494-.152-.741l-.173.017c.467 4.784-3.021 9.032-7.805 9.502a7.73 7.73 0 0 1-.859.048c-4.414 0-8.211-3.357-8.648-7.853l-.164.011c.455 4.775-3.034 9.042-7.819 9.497-.293.032-.569.049-.86.049-4.413 0-8.211-3.359-8.648-7.853-.013-.137-.012-.271-.019-.406l-.149-.004c-.03.266-.068.532-.123.799-.86 4.121-4.479 6.945-8.518 6.945a8.25 8.25 0 0 1-1.768-.179c-4.706-.973-7.724-5.58-6.767-10.286.054-.261.123-.515.199-.766-.054-.022-.11-.039-.163-.061-.117.232-.203.472-.344.696a8.71 8.71 0 0 1-7.399 4.09c-1.573 0-3.163-.421-4.59-1.315-4.074-2.564-5.322-7.918-2.776-12.006.142-.227.323-.412.482-.622-.055-.05-.107-.103-.162-.153-.195.181-.363.38-.578.546a8.65 8.65 0 0 1-5.306 1.817 8.71 8.71 0 0 1-6.896-3.391c-2.936-3.796-2.223-9.264 1.573-12.2.22-.169.461-.284.691-.429l-.092-.174c-.114.048-.222.104-.339.148a8.54 8.54 0 0 1-3.082.567c-3.505 0-6.815-2.141-8.13-5.63a8.69 8.69 0 0 1 5.047-11.212l-.057-.158a8.6 8.6 0 0 1-3.074.565c-3.521 0-6.831-2.142-8.146-5.614-1.703-4.493.568-9.523 5.061-11.211l-.062-.163c-1.024.372-2.062.567-3.084.567a8.73 8.73 0 0 1-8.146-5.63c-1.687-4.494.569-9.508 5.062-11.212l-.06-.163c-1.012.392-2.05.569-3.072.569-3.521 0-6.831-2.142-8.146-5.63-1.703-4.478.569-9.508 5.047-11.212l-.054-.16a8.64 8.64 0 0 1-3.077.566 8.74 8.74 0 0 1-8.146-5.614c-1.703-4.494.567-9.524 5.062-11.212l-.06-.163c-1.011.374-2.049.569-3.071.569-3.521 0-6.831-2.142-8.146-5.63a8.69 8.69 0 0 1 5.047-11.212c.19-.072.381-.127.572-.185l-.043-.193c-.259.031-.508.094-.773.102z" fill="#00b65c"/><g fill="#009344"><path d="M680.372 6.978a1.96 1.96 0 0 0 1.961-1.96v-6.136a1.96 1.96 0 1 0-3.922 0v6.136a1.96 1.96 0 0 0 1.961 1.96z" opacity=".5"/><use href="#E" opacity=".5"/><path d="M688.22 6.978a1.96 1.96 0 0 0 1.961-1.96V.926a1.96 1.96 0 1 0-3.922 0v4.092a1.96 1.96 0 0 0 1.961 1.96z" opacity=".5"/></g><path d="M1350.523-50.774c-17.068 0-33.919-3.83-49.312-11.206l-99.879-47.868c-8.854-4.243-14.084-13.618-12.979-23.374 1.963-17.322-3.686-35.348-16.952-48.606a36.43 36.43 0 0 0-25.918-10.726h-5.739c-6.285-11.166-18.26-18.725-31.969-18.725h-24.582c-19.259 0-37.364 7.494-50.982 21.1l-.821.818c-13.617 13.607-21.117 31.698-21.117 50.94v19.927c0 13.311 3.589 26.072 10.311 37.179 5.457 9.018 4.204 20.567-3.135 28.133l-79.854 82.325c-22.606 21.535-35.401 51.393-35.401 82.615v79.861h703.622V-50.774h-255.294zm-264.386 8.079h0z" fill="#3ee1de" class="C"/><g fill="#04d5d8"><path d="M1528.537 26.912h-160.352c-11.205 0-21.952 4.451-29.875 12.375l-16.03 16.03a42.25 42.25 0 0 0-12.375 29.875h0a42.25 42.25 0 0 0 12.375 29.876l2.095 2.095a42.25 42.25 0 0 1 12.375 29.875v44.581h191.788V26.912z"/><rect x="1211.936" y="16.562" width="88.941" height="33.035" rx="16.518"/><rect x="1095.949" y="86.979" width="65.535" height="24.342" rx="12.171"/><path d="M941.123 161.142V113.97a40.41 40.41 0 0 1 11.835-28.572l18.412-18.412c7.578-7.578 17.855-11.835 28.572-11.835h42.556a40.41 40.41 0 0 1 28.572 11.835l2.075 2.075c7.578 7.578 11.835 17.855 11.835 28.572h0c0 10.717 4.257 20.994 11.835 28.572l37.177 37.177-192.867-2.24z"/></g><g class="B C"><path d="M183.842 55.062l.576 5.031-6.297 4.992c-.115.091-.272.108-.404.045a.38.38 0 0 1-.216-.344v-2.798c0-.37.147-.725.409-.987l5.932-5.938zm-1.433-5.556c-1.195-.117-2.106-1.121-2.106-2.321v-3.713a.26.26 0 0 0-.471-.153l-4.316 5.98 6.894.206zm18.992 5.73l1.799 2.513c.097.135.269.192.428.141a.38.38 0 0 0 .265-.364v-1.041a1.47 1.47 0 0 1 1.096-1.423h0l-3.589.174zm0-4.881l1.799-2.513c.097-.135.269-.192.428-.141a.38.38 0 0 1 .265.364v1.195c0 .291.115.569.321.775s.484.321.775.321H201.4z"/><path d="M210.224 53.918l-45.361-1.16v1.146a2.83 2.83 0 0 0 .831 2.003l.465.463a17.12 17.12 0 0 0 16.231 4.488l27.834-6.94z"/><path d="M166.608 54.763l-.873-1.044h1.745l-.872 1.044z"/><path d="M210.224 50.455l-25.046-1.127-1.085-.024H162.01c-.496 0-.943.297-1.133.751a1.21 1.21 0 0 0 .267 1.326c1.636 1.62 3.854 2.531 6.166 2.531h42.914v-3.456z"/><path d="M170.446 50.788c0-.088-.035-.173-.098-.236s-.147-.098-.236-.098h-4.079c-.088 0-.173.035-.236.098a.33.33 0 0 0-.098.236v.486c0 .088.035.173.098.236s.147.098.236.098h4.079c.088 0 .173-.035.236-.098a.33.33 0 0 0 .098-.236v-.486zm-7.211-.633l.01.001h.01l.009.001.01.001.01.001.01.002.009.001.01.002.01.002.009.003.01.002.009.003.01.003.009.003.009.004.009.003.009.004.009.004.009.004.009.005.009.004.008.005.009.005.008.005.008.006.008.005.008.006.008.006.008.006.007.006.008.007.007.007.007.006.007.007.007.007.007.008.006.007.006.008.007.007.005.008.006.008.006.008.005.008.005.009.005.008.005.009.005.009.004.008.005.009.004.009.003.009.004.009.003.01.004.009.003.009.002.01.003.009.002.01.002.009.002.01.002.01.001.009.002.01.001.01v.01l.001.01v.009.01.01.01l-.001.01v.01l-.001.009-.002.01-.001.01-.002.009-.002.01-.002.01-.002.009-.003.01-.002.009-.003.01-.004.009-.003.009-.004.009-.003.009-.004.009-.005.009-.004.009-.005.009-.005.008-.005.009-.005.008-.005.008-.006.008-.006.008-.005.008-.007.008-.006.007-.006.008-.007.007-.007.007-.007.007-.007.007-.007.007-.008.006-.007.006-.008.006-.008.006-.008.006-.008.006-.008.005-.008.005-.009.005-.008.005-.009.005-.009.004-.009.004-.009.004-.009.004-.009.004-.009.003-.009.003-.01.003-.009.003-.01.003-.009.002-.01.002-.01.002-.009.002-.01.001-.01.001-.01.001-.009.001-.01.001h-.01-.01-.567-.01-.01l-.009-.001-.01-.001-.01-.001-.01-.001-.01-.001-.009-.002-.01-.002-.01-.002-.009-.002-.01-.003-.009-.003-.009-.003-.01-.003-.009-.003-.009-.004-.009-.004-.009-.004-.009-.004-.009-.004-.009-.005-.008-.005-.009-.005-.008-.005-.008-.005-.008-.006-.008-.006-.008-.006-.008-.006-.007-.006-.008-.006-.007-.007-.007-.007-.007-.007-.007-.007-.007-.007-.006-.008-.006-.007-.006-.008-.006-.008-.006-.008-.006-.008-.005-.008-.005-.008-.005-.009-.005-.008-.005-.009-.004-.009-.004-.009-.005-.009-.003-.009-.004-.009-.003-.009-.004-.009-.003-.01-.002-.009-.003-.01-.002-.009-.002-.01-.002-.01-.002-.009-.001-.01-.002-.01-.001-.009v-.01l-.001-.01v-.01-.01-.01-.009l.001-.01v-.01l.001-.01.002-.01.001-.009.002-.01.002-.01.002-.009.002-.01.003-.009.002-.01.003-.009.004-.009.003-.01.004-.009.003-.009.005-.009.004-.009.004-.008.005-.009.005-.009.005-.008.005-.009.005-.008.006-.008.006-.008.006-.008.006-.007.006-.008.006-.007.007-.008.007-.007.007-.007.007-.006.007-.007.008-.007.007-.006.008-.006.008-.006.008-.006.008-.005.008-.006.008-.005.009-.005.008-.005.009-.004.009-.005.009-.004.009-.004.009-.004.009-.003.009-.004.01-.003.009-.003.009-.003.01-.002.009-.003.01-.002.01-.002.009-.001.01-.002.01-.001.01-.001.01-.001h.009l.01-.001h.01.567.01z"/></g><use href="#F" class="B"/><path d="M178.51 53.204a.43.43 0 0 1-.432-.432v-1.885c0-.238.194-.432.432-.432s.432.193.432.432v1.885c0 .238-.194.432-.432.432zm1.729 0a.43.43 0 0 1-.432-.432v-1.885c0-.238.194-.432.432-.432s.432.193.432.432v1.885c0 .238-.194.432-.432.432z" class="B"/><rect x="166.549" y="50.455" width="2.882" height="1.44" rx=".333" class="B"/><g class="C B"><use href="#G"/><use href="#G"/></g><g clip-path="url(#B)" class="B"><path d="M201.804 53.91h17.77v7.117h-17.77zm0-10.29h17.77v6.834h-17.77z"/></g><g class="B C"><use href="#H"/><use href="#I"/><path d="M167.771 54.606l-.582-.696h1.163l-.581.696zm2.326 0l-.582-.696h1.164l-.582.696zm2.326 0l-.581-.696h1.163l-.582.696z"/><path d="M173.586 54.606l-.581-.696h1.163l-.582.696zm-5.019-4.151h-1.153v1.104c0 .185.15.336.336.336h.481c.185 0 .336-.15.336-.336v-1.104zm16.428 4.607l-.576 5.031 6.297 4.992c.115.091.272.108.404.045a.38.38 0 0 0 .216-.344v-2.798c0-.37-.147-.725-.409-.987l-5.932-5.938zm-43.474 10.693l.388 3.383-4.235 3.357c-.077.061-.183.073-.272.03s-.145-.133-.145-.231v-1.882a.94.94 0 0 1 .275-.664l3.989-3.994zm-.963-3.737a1.57 1.57 0 0 1-1.417-1.561V57.96c0-.076-.049-.143-.121-.167s-.152.003-.196.064l-2.902 4.022 4.636.139zm12.772 3.854l1.21 1.69c.065.091.181.129.288.095s.179-.133.179-.245v-.7a.99.99 0 0 1 .737-.957h0l-2.414.117z"/><path d="M153.33 62.589l1.21-1.69c.065-.091.181-.129.288-.095s.179.133.179.244v.804a.74.74 0 0 0 .737.737h-2.414zm5.933 2.397l-30.506-.78v.771c0 .505.201.99.559 1.347l.312.312c2.857 2.849 6.999 3.995 10.915 3.018l18.719-4.667z"/><path d="M129.931 65.554l-.587-.702h1.174l-.587.702z"/><path d="M159.263 62.656l-16.844-.758a16.13 16.13 0 0 0-.73-.016h-14.851c-.334 0-.634.199-.762.505a.81.81 0 0 0 .179.891 5.89 5.89 0 0 0 4.146 1.702h28.86v-2.324z"/><path d="M132.512 62.88c0-.059-.024-.116-.066-.158s-.099-.066-.159-.066h-2.743c-.059 0-.117.024-.159.066s-.066.099-.066.158v.327c0 .059.024.116.066.158s.099.066.159.066h2.743c.059 0 .116-.024.159-.066a.22.22 0 0 0 .066-.158v-.327zm-4.849-.425h.006l.007.001h.006l.007.001.007.001.006.001.007.001.006.001.007.001.006.002.006.002.007.001.006.002.006.003.007.002.006.002.006.003.006.003.006.002.006.003.006.004.005.003.006.003.006.004.005.003.006.004.005.004.005.004.005.004.006.004.005.005.004.004.005.005.005.004.004.005.005.005.004.005.005.005.004.005.004.005.004.006.003.005.004.006.003.005.004.006.003.006.003.006.003.006.003.006.003.006.002.006.003.006.002.006.002.006.002.007.002.006.002.006.001.007.002.006.001.007.001.006.001.007.001.006.001.007v.007.006l.001.007v.006.007l-.001.007v.006.007l-.001.006-.001.007-.001.006-.001.007-.001.006-.002.007-.001.006-.002.007-.002.006-.002.006-.002.007-.002.006-.003.006-.002.006-.003.006-.003.006-.003.006-.003.006-.003.006-.004.005-.003.006-.004.005-.003.006-.004.005-.004.005-.004.006-.005.005-.004.005-.005.005-.004.004-.005.005-.005.005-.004.004-.005.004-.006.005-.005.004-.005.004-.005.004-.006.003-.005.004-.006.004-.006.003-.005.003-.006.003-.006.003-.006.003-.006.003-.006.002-.006.003-.007.002-.006.002-.006.002-.007.002-.006.002-.006.001-.007.002-.006.001-.007.001-.006.001-.007.001-.007.001h-.006l-.007.001h-.006-.007-.381-.007-.007l-.006-.001h-.007l-.006-.001-.007-.001-.006-.001-.007-.001-.006-.001-.007-.002-.006-.001-.007-.002-.006-.002-.006-.002-.007-.002-.006-.002-.006-.003-.006-.002-.006-.003-.006-.003-.006-.003-.006-.003-.006-.003-.005-.003-.006-.004-.006-.004-.005-.003-.005-.004-.006-.004-.005-.004-.005-.005-.005-.004-.005-.004-.005-.005-.004-.005-.005-.004-.004-.005-.005-.005-.004-.005-.004-.006-.004-.005-.004-.005-.004-.006-.003-.005-.004-.006-.003-.005-.003-.006-.003-.006-.003-.006-.003-.006-.003-.006-.003-.006-.002-.006-.002-.006-.002-.007-.002-.006-.002-.006-.002-.007-.002-.006-.001-.007-.001-.006-.001-.007-.001-.006-.001-.007-.001-.006v-.007l-.001-.006v-.007-.007-.006-.007l.001-.006v-.007l.001-.007.001-.006.001-.007.001-.006.001-.007.001-.006.002-.007.002-.006.002-.006.002-.007.002-.006.002-.006.002-.006.003-.006.003-.006.003-.006.003-.006.003-.006.003-.006.003-.006.004-.005.003-.006.004-.005.004-.006.004-.005.004-.005.004-.005.005-.005.004-.005.005-.005.004-.004.005-.005.005-.004.005-.005.005-.004.005-.004.006-.004.005-.004.005-.004.006-.003.006-.004.005-.003.006-.003.006-.004.006-.003.006-.002.006-.003.006-.003.006-.002.006-.002.007-.003.006-.002.006-.001.007-.002.006-.002.007-.001.006-.001.007-.001.006-.001.007-.001.006-.001h.007l.006-.001h.007.007.381.007z"/></g><use href="#J" class="B"/><path d="M137.935 64.505a.29.29 0 0 1-.291-.29v-1.268a.291.291 0 1 1 .582 0v1.268a.29.29 0 0 1-.291.29zm1.163 0a.29.29 0 0 1-.291-.29v-1.268a.291.291 0 1 1 .582 0v1.268a.29.29 0 0 1-.291.29z" class="B"/><rect x="129.891" y="62.656" width="1.938" height=".968" rx=".224" class="B"/><g class="C B"><use href="#K"/><use href="#K"/></g><g clip-path="url(#C)" class="B"><path d="M153.601 64.98h11.95v4.787h-11.95zm0-6.92h11.95v4.596h-11.95z"/></g><g class="B C"><use href="#L"/><path d="M131.495 65.448l-.391-.468h.782l-.391.468z"/><path d="M130.713 65.448l-.391-.468h.782l-.391.468zm1.565 0l-.392-.468h.783l-.391.468zm1.564 0l-.391-.468h.782l-.391.468z"/><path d="M134.624 65.448l-.391-.468h.782l-.391.468zm-3.376-2.792h-.775v.743c0 .125.101.226.226.226h.324c.125 0 .226-.101.226-.226v-.743zm11.049 3.099l-.388 3.383 4.235 3.357c.077.061.183.073.272.03s.145-.133.145-.231v-1.882a.94.94 0 0 0-.275-.664l-3.989-3.994zm32.456 12.085l.305 2.664-3.334 2.643c-.061.048-.144.057-.214.024s-.114-.105-.114-.182v-1.481c0-.196.078-.384.216-.523l3.14-3.144zm-.759-2.941c-.633-.062-1.115-.594-1.115-1.229v-1.966c0-.06-.039-.113-.096-.131s-.119.002-.154.051l-2.285 3.166 3.65.109zm10.055 3.033l.953 1.33c.051.071.143.102.226.075s.141-.105.141-.192v-.551a.78.78 0 0 1 .58-.754h0l-1.9.092zm0-2.584l.953-1.33c.051-.071.143-.102.226-.075s.141.105.141.192v.633a.58.58 0 0 0 .58.58h-1.9z"/><path d="M188.72 77.235l-24.015-.614v.607c0 .398.158.779.44 1.06l.246.245c2.249 2.243 5.51 3.145 8.593 2.376l14.736-3.674z"/><path d="M165.629 77.682l-.462-.553h.924l-.462.553z"/><path d="M188.72 75.401l-13.26-.597-.575-.013h-11.691a.65.65 0 0 0-.6.398.64.64 0 0 0 .141.702 4.64 4.64 0 0 0 3.264 1.34h22.719v-1.829z"/><path d="M167.661 75.577c0-.047-.019-.092-.052-.125s-.078-.052-.125-.052h-2.16c-.047 0-.092.019-.125.052s-.052.078-.052.125v.257c0 .047.019.092.052.125s.078.052.125.052h2.16c.047 0 .092-.019.125-.052s.052-.078.052-.125v-.257zm-3.818-.334h.005.006.005l.005.001.005.001h.005l.005.001.006.001.005.001.005.002.005.001.005.001.005.002.005.002.005.002.004.001.005.002.005.003.005.002.004.002.005.003.004.002.005.003.004.003.005.002.004.003.004.003.004.004.004.003.004.003.004.004.004.003.004.004.004.003.003.004.004.004.003.004.004.004.003.004.003.004.003.004.003.005.003.004.003.004.002.005.003.004.002.005.003.005.002.004.002.005.002.005.002.005.002.005.001.005.002.005.001.005.002.005.001.005.001.005.001.005.001.005.001.005v.005l.001.005v.006l.001.005v.005.005.005.006l-.001.005v.005l-.001.005v.005l-.001.006-.001.005-.001.005-.001.005-.001.005-.002.005-.001.005-.002.005-.001.005-.002.005-.002.005-.002.004-.002.005-.002.005-.003.004-.002.005-.003.005-.002.004-.003.004-.003.005-.003.004-.003.004-.003.004-.003.005-.004.004-.003.003-.004.004-.003.004-.004.004-.004.003-.004.004-.004.003-.004.004-.004.003-.004.003-.004.003-.004.003-.005.003-.004.003-.005.002-.004.003-.005.002-.004.003-.005.002-.005.002-.005.002-.004.002-.005.002-.005.001-.005.002-.005.001-.005.002-.005.001-.005.001-.006.001-.005.001-.005.001h-.005l-.005.001h-.005l-.006.001h-.005-.005-.3-.005-.006l-.005-.001h-.005l-.005-.001h-.005l-.005-.001-.006-.001-.005-.001-.005-.001-.005-.001-.005-.002-.005-.001-.005-.002-.005-.001-.005-.002-.005-.002-.004-.002-.005-.002-.005-.002-.004-.003-.005-.002-.005-.003-.004-.002-.004-.003-.005-.003-.004-.003-.004-.003-.005-.003-.004-.003-.004-.004-.004-.003-.003-.004-.004-.003-.004-.004-.003-.004-.004-.004-.003-.003-.004-.004-.003-.005-.003-.004-.003-.004-.003-.004-.003-.005-.003-.004-.002-.004-.003-.005-.002-.005-.003-.004-.002-.005-.002-.005-.002-.004-.002-.005-.002-.005-.001-.005-.002-.005-.002-.005-.001-.005-.001-.005-.001-.005-.001-.005-.001-.005-.001-.006-.001-.005v-.005-.005l-.001-.005v-.006-.005-.005-.005l.001-.005v-.006-.005l.001-.005.001-.005.001-.005.001-.005.001-.005.001-.005.001-.005.002-.005.002-.005.001-.005.002-.005.002-.005.002-.005.002-.005.002-.004.003-.005.002-.005.003-.004.002-.005.003-.004.003-.004.003-.005.003-.004.003-.004.003-.004.004-.004.003-.004.004-.004.003-.004.004-.003.004-.004.003-.003.004-.004.004-.003.004-.003.005-.004.004-.003.004-.003.005-.002.004-.003.004-.003.005-.002.005-.003.004-.002.005-.002.005-.003.004-.002.005-.001.005-.002.005-.002.005-.002.005-.001.005-.001.005-.002.005-.001.005-.001.006-.001h.005l.005-.001.005-.001h.005.005.006.005.3.005z"/></g><use href="#M" class="B"/><path d="M171.93 76.856a.23.23 0 0 1-.229-.229v-.998a.23.23 0 0 1 .229-.229.23.23 0 0 1 .229.229v.998a.23.23 0 0 1-.229.229zm.916 0a.23.23 0 0 1-.229-.229v-.998a.23.23 0 0 1 .229-.229.23.23 0 0 1 .229.229v.998a.23.23 0 0 1-.229.229zm-7.072-1.455h1.173c.097 0 .177.079.177.177v.409c0 .097-.079.176-.176.176h-1.173c-.097 0-.177-.079-.177-.177v-.409c0-.097.079-.176.176-.176z" class="B"/><g class="C B"><use href="#N"/><use href="#N"/></g><g clip-path="url(#D)" class="B"><path d="M184.262 77.23h9.407v3.768h-9.407zm0-5.447h9.407v3.618h-9.407z"/></g><g class="B C"><use href="#O"/><use href="#P"/><path d="M166.245 77.599l-.308-.369h.616l-.308.369zm1.231 0l-.308-.369h.616l-.308.369zm1.232 0l-.308-.369h.616l-.308.369z"/><path d="M169.323 77.599l-.307-.369h.615l-.308.369zm-2.657-2.198h-.61v.585c0 .098.08.178.178.178h.255c.098 0 .178-.08.178-.178v-.585zm8.697 2.439l-.305 2.664 3.334 2.643c.061.048.144.057.214.024s.114-.105.114-.182v-1.481c0-.196-.078-.384-.216-.523l-3.141-3.144z"/></g></g></svg>