<svg xmlns="http://www.w3.org/2000/svg" width="1500" height="145" xmlns:v="https://vecta.io/nano"><style><![CDATA[.B{fill-rule:evenodd}.C{fill:#009238}.D{fill:none}.E{fill:#007b62}.F{clip-rule:evenodd}.G{fill:#00b500}.H{fill:#00a600}.I{fill:#00b465}.J{stroke:#00b465}.K{stroke-linecap:round}.L{stroke-linejoin:round}.M{stroke-width:10.904}.N{opacity:.5}.O{stroke-dasharray:0 10.904}.P{fill:#bd7f46}.Q{fill:#6a6862}.R{opacity:.25}.S{fill:#26c21a}]]></style><defs><clipPath id="A"><path d="M0 0h1500v145H0z" class="D"/></clipPath><clipPath id="B"><path d="M135.907 36.3h10.807l2.929 26.724c.162 1.481-.999 2.775-2.49 2.775h-11.738c-1.493 0-2.655-1.297-2.489-2.78l2.981-26.719z" class="D"/></clipPath><clipPath id="C"><path d="M141.284 35.451a14.69 14.69 0 0 1-4.306 10.389 14.71 14.71 0 0 1-10.399 4.303h-14.791V40.43a14.69 14.69 0 0 1 4.306-10.391 14.72 14.72 0 0 1 10.399-4.303h14.791v9.715z" class="D F"/></clipPath><clipPath id="D"><path d="M141.284 35.451a14.69 14.69 0 0 0 4.306 10.389 14.71 14.71 0 0 0 10.399 4.303h14.791V40.43a14.69 14.69 0 0 0-4.306-10.391 14.72 14.72 0 0 0-10.399-4.303h-14.791v9.715z" class="D F"/></clipPath><clipPath id="E"><path d="M141.276 50.142l8.834-6.433c4.88-3.553 5.431-10.62 1.162-14.886l-3.09-3.088h-13.811l-3.09 3.088c-4.269 4.266-3.718 11.333 1.162 14.886l8.834 6.433z" class="D F"/></clipPath><clipPath id="F"><path d="M51.582 104.302h10.807l2.929 26.724c.162 1.481-.999 2.775-2.49 2.775H51.09c-1.493 0-2.655-1.297-2.489-2.78l2.981-26.719z" class="D"/></clipPath><clipPath id="G"><path d="M56.959 103.453a14.69 14.69 0 0 1-4.306 10.389 14.71 14.71 0 0 1-10.399 4.303H27.463v-9.713a14.69 14.69 0 0 1 4.306-10.391 14.72 14.72 0 0 1 10.399-4.303h14.791v9.715z" class="D F"/></clipPath><clipPath id="H"><path d="M56.959 103.453a14.69 14.69 0 0 0 4.306 10.389 14.71 14.71 0 0 0 10.399 4.303h14.791v-9.713a14.69 14.69 0 0 0-4.306-10.391 14.72 14.72 0 0 0-10.399-4.303H56.959v9.715z" class="D F"/></clipPath><clipPath id="I"><path d="M56.951 118.145l8.834-6.433c4.88-3.553 5.431-10.62 1.162-14.886l-3.09-3.088H50.046l-3.09 3.088c-4.269 4.266-3.718 11.333 1.162 14.886l8.834 6.433z" class="D F"/></clipPath><clipPath id="J"><path d="M56.423 39.904H67.23l2.929 26.724c.162 1.481-.999 2.775-2.49 2.775H55.931c-1.493 0-2.655-1.297-2.489-2.78l2.981-26.719z" class="D"/></clipPath><clipPath id="K"><path d="M61.8 39.055a14.69 14.69 0 0 1-4.306 10.389 14.71 14.71 0 0 1-10.399 4.303H32.304v-9.713a14.69 14.69 0 0 1 4.306-10.391 14.72 14.72 0 0 1 10.399-4.303H61.8v9.715z" class="D F"/></clipPath><clipPath id="L"><path d="M61.8 39.055a14.69 14.69 0 0 0 4.306 10.389 14.71 14.71 0 0 0 10.399 4.303h14.791v-9.713a14.69 14.69 0 0 0-4.306-10.391 14.72 14.72 0 0 0-10.399-4.303H61.8v9.715z" class="D F"/></clipPath><clipPath id="M"><path d="M61.792 53.746l8.834-6.433c4.88-3.553 5.431-10.62 1.162-14.886l-3.09-3.088H54.887l-3.09 3.088c-4.269 4.266-3.718 11.333 1.162 14.886l8.834 6.433z" class="D F"/></clipPath><clipPath id="N"><path d="M1073.655 73.922h10.807l2.929 26.724c.162 1.481-.999 2.775-2.49 2.775h-11.738c-1.493 0-2.655-1.297-2.489-2.78l2.981-26.719z" class="D"/></clipPath><clipPath id="O"><path d="M1079.032 73.073a14.69 14.69 0 0 1-4.306 10.389 14.71 14.71 0 0 1-10.399 4.303h-14.791v-9.713a14.69 14.69 0 0 1 4.306-10.391 14.72 14.72 0 0 1 10.399-4.303h14.791v9.715z" class="D F"/></clipPath><clipPath id="P"><path d="M1079.032 73.073a14.69 14.69 0 0 0 4.306 10.389 14.71 14.71 0 0 0 10.399 4.303h14.791v-9.713a14.69 14.69 0 0 0-4.306-10.391 14.72 14.72 0 0 0-10.399-4.303h-14.791v9.715z" class="D F"/></clipPath><clipPath id="Q"><path d="M1079.023 87.765l8.834-6.433c4.88-3.553 5.431-10.62 1.162-14.886l-3.09-3.088h-13.811l-3.09 3.088c-4.269 4.266-3.718 11.333 1.162 14.886l8.834 6.433z" class="D F"/></clipPath><clipPath id="R"><path d="M967.709 26.606h10.807l2.929 26.724c.162 1.481-.999 2.775-2.49 2.775h-11.738c-1.493 0-2.655-1.297-2.489-2.78l2.981-26.719z" class="D"/></clipPath><clipPath id="S"><path d="M973.086 25.757a14.69 14.69 0 0 1-4.306 10.389 14.71 14.71 0 0 1-10.399 4.303H943.59v-9.713a14.69 14.69 0 0 1 4.306-10.391 14.72 14.72 0 0 1 10.399-4.303h14.791v9.715z" class="D F"/></clipPath><clipPath id="T"><path d="M973.086 25.757a14.69 14.69 0 0 0 4.306 10.389 14.71 14.71 0 0 0 10.399 4.303h14.791v-9.713a14.69 14.69 0 0 0-4.306-10.391 14.72 14.72 0 0 0-10.399-4.303h-14.791v9.715z" class="D F"/></clipPath><clipPath id="U"><path d="M973.077 40.448l8.834-6.433c4.88-3.553 5.431-10.62 1.162-14.886l-3.09-3.088h-13.811l-3.09 3.088c-4.269 4.266-3.718 11.333 1.162 14.886l8.834 6.433z" class="D F"/></clipPath><path id="V" d="M372.394 66.66h-9.098c-1.195 0-2.341.474-3.186 1.319l-.678.677.599.599a4.51 4.51 0 0 0 3.186 1.319h9.176a2.67 2.67 0 0 0 1.888-.782l1.176-1.175-1.176-1.175c-.501-.5-1.18-.781-1.888-.781z"/><path id="W" d="M413.095 28.566l-3.205 2.562 3.205 2.562a4.83 4.83 0 0 1 0-5.124z"/><path id="X" d="M400.403 47.889h-9.098c-1.195 0-2.341.474-3.186 1.319l-.678.677.599.599a4.51 4.51 0 0 0 3.186 1.319h9.176a2.67 2.67 0 0 0 1.888-.781l1.176-1.175-1.176-1.175c-.501-.5-1.18-.781-1.888-.781z"/><path id="Y" d="M356.789 75.129h-9.098c-1.195 0-2.341.474-3.186 1.319l-.678.677.599.599a4.51 4.51 0 0 0 3.186 1.319h9.177c.708 0 1.387-.281 1.888-.781l1.176-1.175-1.176-1.175c-.501-.5-1.18-.781-1.888-.781z"/><path id="Z" d="M480.36 70.206h-9.098c-1.195 0-2.341.474-3.186 1.319l-.678.677.599.599a4.51 4.51 0 0 0 3.186 1.319h9.177a2.67 2.67 0 0 0 1.888-.782l1.176-1.175-1.176-1.175c-.501-.5-1.18-.781-1.888-.781z"/><path id="a" d="M437.832 58.876l3.205 2.562a4.83 4.83 0 0 1 0-5.124l-3.205 2.562z"/><path id="b" d="M96.503 70.09c.925 0 1.674-.748 1.674-1.673v-3.493c0-.925-.75-1.673-1.674-1.673s-1.674.748-1.674 1.673v3.493c0 .925.75 1.673 1.674 1.673z"/><path id="c" d="M121.835 97.158c.925 0 1.674-.748 1.674-1.673v-5.237c0-.925-.75-1.673-1.674-1.673s-1.674.748-1.674 1.673v5.237c0 .925.75 1.673 1.674 1.673z"/><path id="d" d="M135.907 36.3h10.807l2.929 26.724c.162 1.481-.999 2.775-2.49 2.775h-11.738c-1.493 0-2.655-1.297-2.489-2.78l2.981-26.719z"/><path id="e" d="M141.276 55.618l8.834-6.433c4.88-3.553 5.431-10.62 1.162-14.886l-3.09-3.088h-13.811l-3.09 3.088c-4.269 4.266-3.718 11.333 1.162 14.886l8.834 6.433z"/><path id="f" d="M110.63 48.376l29.48-24.077 2.331 2.854-29.48 24.077z"/><path id="g" d="M124.078 51.734h3.687v-6.196c0-1.017-.826-1.842-1.844-1.842s-1.844.825-1.844 1.842v6.196z"/><path id="h" d="M111.787 39.816v-3.489h5.628c.463 0 .907.184 1.235.512s.511.77.511 1.232h0c0 .464-.184.906-.511 1.234s-.772.51-1.235.51h-5.628z"/><path id="i" d="M140.12 27.164l2.329-2.856 29.497 24.056-2.329 2.856z"/><path id="j" d="M170.78 40.012v-3.684h-5.532c-.489 0-.957.193-1.302.54a1.83 1.83 0 0 0-.54 1.3v.004a1.84 1.84 0 0 0 .54 1.302c.345.344.813.538 1.302.538h5.532z"/><path id="k" d="M139.439 23.076h3.687v32.128h-3.687z"/><path id="l" d="M154.356 39.194c.6 0 1.191-.293 1.543-.831a1.84 1.84 0 0 0-.53-2.551l-7.494-4.912c-.852-.561-1.995-.319-2.552.529a1.84 1.84 0 0 0 .53 2.551l7.494 4.912a1.83 1.83 0 0 0 1.008.302z"/><path id="m" d="M128.213 39.194a1.83 1.83 0 0 0 1.008-.302l7.492-4.912a1.84 1.84 0 1 0-2.022-3.08l-7.492 4.912a1.84 1.84 0 0 0-.53 2.551c.353.538.943.831 1.543.831z"/><path id="n" d="M56.951 123.62l8.834-6.433c4.88-3.553 5.431-10.62 1.162-14.886l-3.09-3.088H50.046l-3.09 3.088c-4.269 4.266-3.718 11.333 1.162 14.886l8.834 6.433z"/><path id="o" d="M61.792 59.221l8.834-6.433c4.88-3.553 5.431-10.62 1.162-14.886l-3.09-3.088H54.887l-3.09 3.088c-4.269 4.266-3.718 11.333 1.162 14.886l8.834 6.433z"/><path id="p" d="M1049.535 70.266v-3.684h11.063a1.84 1.84 0 0 1 1.842 1.84v.004a1.84 1.84 0 0 1-1.842 1.84h-11.063z"/><path id="q" d="M1079.032 73.073a14.69 14.69 0 0 0 4.306 10.389 14.71 14.71 0 0 0 10.399 4.303h14.791v-9.713a14.69 14.69 0 0 0-4.306-10.391 14.72 14.72 0 0 0-10.399-4.303h-14.791v9.715z"/><path id="r" d="M1108.528 70.266v-3.684h-11.061a1.84 1.84 0 0 0-1.303.54c-.347.346-.54.814-.54 1.302s.194.958.54 1.302a1.84 1.84 0 0 0 1.303.54h11.061z"/></defs><g clip-path="url(#A)"><path d="M-80.448-4331.348h1640.647V892.464H-80.448z" fill="#04d5d8"/><g fill="#3ee1de"><rect x="1269.496" y="-27.499" width="110.085" height="50.255" rx="25.128"/><path d="M1339.395 152.21L1204.963 17.778c-13.357-13.358-31.117-20.715-50.008-20.715h-39.534c-2.887 0-5.693-1.188-7.701-3.262L986.731-131.07c-13.245-13.67-31.759-21.51-50.793-21.51h-32.536-.344c-8.957.043-13.534-10.687-7.2-17.021l9.21-9.21c16.369-16.368 25.384-38.132 25.384-61.282v-15.059c0-23.149-9.015-44.913-25.384-61.281l-50.498-50.498c-16.37-16.369-38.134-25.384-61.281-25.384h-17.048c-23.447 0-46.172 8.992-62.683 25.641-16.388 16.525-25.311 38.443-25.125 61.717a26.83 26.83 0 0 1-7.81 19.069L639.635-244.9c-16.457 16.457-26.154 38.677-26.19 61.95-.036 23.201 8.982 45.019 25.384 61.42l17.518 17.518c16.253 16.254 38.298 25.385 61.284 25.385h51.356c10.181 0 20.092-1.746 29.395-5.095 7.321-2.635 14.659 3.584 13.261 11.238-.764 4.186-1.155 8.471-1.155 12.817 0 18.891 7.356 36.65 20.715 50.008l132.423 132.425c13.359 13.356 31.119 20.713 50.008 20.713h57.773a10.65 10.65 0 0 1 7.582 3.14l105.604 105.604c13.357 13.358 31.118 20.715 50.009 20.715h53.769c38.905 0 71.293-30.992 71.736-69.894.218-19.201-7.158-37.287-20.71-50.837z"/></g><g fill="#00c5c1" class="B"><path d="M347.503 63.64l1.176-1.175-1.176-1.175c-.501-.5-1.18-.781-1.888-.781h-9.098c-1.195 0-2.341.474-3.186 1.319l-.678.677.599.599a4.51 4.51 0 0 0 3.186 1.319h9.176a2.67 2.67 0 0 0 1.888-.781z"/><path d="M351.884,59.903l-3.205,2.562,3.205,2.562c-.98-1.568-.98-3.557,0-5.124Z"/><use href="#V"/><path d="M375.459 68.617l3.205 2.562c-.98-1.568-.98-3.557 0-5.124l-3.205 2.562zm-34.411-12.59l1.176-1.175-1.176-1.175c-.501-.5-1.18-.781-1.888-.781h-9.098c-1.195 0-2.341.474-3.186 1.319l-.678.677.599.599a4.51 4.51 0 0 0 3.186 1.319h9.177a2.67 2.67 0 0 0 1.888-.782z"/><path d="M345.429 52.29l-3.205 2.562 3.205 2.562c-.98-1.568-.98-3.557 0-5.124zm52.22-19.205h9.176a2.67 2.67 0 0 0 1.888-.781l1.176-1.175-1.176-1.175c-.501-.5-1.18-.781-1.888-.781h-9.098c-1.195 0-2.341.474-3.186 1.319l-.678.677.599.599a4.51 4.51 0 0 0 3.186 1.319z"/><use href="#W"/><use href="#X"/><path d="M403.468 49.845l3.205 2.562c-.98-1.568-.98-3.557 0-5.124l-3.205 2.562zm-22.337-9.108l.599.599a4.51 4.51 0 0 0 3.186 1.319h9.177a2.67 2.67 0 0 0 1.888-.782l1.176-1.175-1.176-1.175c-.501-.5-1.18-.781-1.888-.781h-9.098c-1.195 0-2.341.474-3.186 1.319l-.678.677z"/><path d="M400.362 38.136l-3.205 2.562 3.205 2.562c-.98-1.568-.98-3.557 0-5.124zm-18.561 42.117h-9.098c-1.195 0-2.341.474-3.186 1.319l-.678.677.599.599a4.51 4.51 0 0 0 3.186 1.319h9.176a2.67 2.67 0 0 0 1.888-.782l1.176-1.175-1.176-1.175c-.501-.5-1.18-.781-1.888-.781z"/><path d="M384.866 82.209l3.205 2.562c-.98-1.568-.98-3.557 0-5.124l-3.205 2.562zm-16.02-47.167h9.176c.708 0 1.387-.281 1.888-.781l1.176-1.175-1.176-1.175c-.501-.5-1.18-.781-1.888-.781h-9.098c-1.195 0-2.341.474-3.186 1.319l-.678.677.599.599a4.51 4.51 0 0 0 3.187 1.319z"/><path d="M384.292 30.523l-3.205 2.562 3.205 2.562a4.83 4.83 0 0 1 0-5.124zm-14.547 19.484h-9.098c-1.195 0-2.341.474-3.186 1.319l-.678.677.599.599a4.51 4.51 0 0 0 3.186 1.319h9.176a2.67 2.67 0 0 0 1.888-.781l1.176-1.175-1.176-1.175c-.501-.5-1.18-.781-1.888-.781z"/><path d="M372.81,51.963l3.205,2.562c-.98-1.568-.98-3.557,0-5.124l-3.205,2.562Z"/><use href="#Y"/><path d="M363.058 74.523l-3.205 2.562 3.205 2.562c-.98-1.568-.98-3.557 0-5.124zm18.824-16.154h-9.098c-1.195 0-2.341.474-3.186 1.319l-.678.677.599.599a4.51 4.51 0 0 0 3.186 1.319h9.176a2.67 2.67 0 0 0 1.888-.781l1.176-1.175-1.176-1.175c-.501-.5-1.18-.781-1.888-.781z"/><path d="M384.947 60.326l3.205 2.562c-.98-1.568-.98-3.557 0-5.124l-3.205 2.562zm23.931-20.153l-.678.677.599.599a4.51 4.51 0 0 0 3.186 1.319h9.176a2.67 2.67 0 0 0 1.888-.782l1.176-1.175-1.176-1.175c-.501-.5-1.18-.781-1.888-.781h-9.098c-1.195 0-2.341.474-3.186 1.319z"/><path d="M427.432 38.249l-3.205 2.562 3.205 2.562c-.98-1.568-.98-3.557 0-5.124zm-6.417 10.286l-.677.677.599.599a4.51 4.51 0 0 0 3.187 1.319h9.176a2.67 2.67 0 0 0 1.888-.782l1.176-1.175-1.176-1.175c-.501-.5-1.18-.781-1.888-.781h-9.098c-1.195 0-2.341.474-3.186 1.319z"/><path d="M439.569 46.611l-3.205 2.562 3.205 2.562a4.83 4.83 0 0 1 0-5.124zm27.498 2.423a4.51 4.51 0 0 0 3.186 1.319h9.177c.708 0 1.387-.281 1.888-.781l1.176-1.175-1.176-1.175c-.501-.5-1.18-.781-1.888-.781h-9.098c-1.195 0-2.341.474-3.186 1.319l-.677.677.599.599z"/><path d="M485.7 45.834l-3.205 2.562 3.205 2.562a4.83 4.83 0 0 1 0-5.124zm-12.268 18.229l1.176-1.175-1.176-1.175c-.501-.5-1.18-.781-1.888-.781h-9.098c-1.195 0-2.341.474-3.186 1.319l-.677.677.599.599a4.51 4.51 0 0 0 3.186 1.319h9.177c.708 0 1.387-.281 1.888-.781z"/><path d="M477.813 60.326l-3.205 2.562 3.205 2.562a4.83 4.83 0 0 1 0-5.124z"/><use href="#Z"/><path d="M486.63 69.601l-3.205 2.562 3.205 2.562c-.98-1.568-.98-3.557 0-5.124zm-71.927-1.948l1.176-1.175-1.176-1.175c-.501-.5-1.18-.781-1.888-.781h-9.098c-1.195 0-2.341.474-3.186 1.319l-.677.677.599.599a4.51 4.51 0 0 0 3.186 1.319h9.177a2.67 2.67 0 0 0 1.888-.782z"/><path d="M419.085 63.916l-3.205 2.562 3.205 2.562a4.83 4.83 0 0 1 0-5.124zm15.682-6.996h-9.098c-1.195 0-2.341.474-3.186 1.319l-.678.677.599.599a4.51 4.51 0 0 0 3.186 1.319h9.177c.708 0 1.387-.281 1.888-.781l1.176-1.175-1.176-1.175c-.501-.5-1.18-.781-1.888-.781z"/><use href="#a"/><path d="M397.209 72.99h-9.098c-1.195 0-2.341.474-3.186 1.319l-.677.677.599.599a4.51 4.51 0 0 0 3.186 1.319h9.177a2.67 2.67 0 0 0 1.888-.782l1.176-1.175-1.176-1.175c-.501-.5-1.18-.781-1.888-.781z"/><path d="M400.274 74.946l3.205 2.562c-.98-1.568-.98-3.557 0-5.124l-3.205 2.562zm17.653 8.861h-9.098c-1.195 0-2.341.474-3.186 1.319l-.678.677.599.599a4.51 4.51 0 0 0 3.186 1.319h9.176a2.67 2.67 0 0 0 1.888-.782l1.176-1.175-1.176-1.175c-.501-.5-1.18-.781-1.888-.781z"/><path d="M420.991 85.763l3.205 2.562a4.83 4.83 0 0 1 0-5.124l-3.205 2.562zm4.161-10.211h-9.098c-1.195 0-2.341.474-3.186 1.319l-.678.677.599.599a4.51 4.51 0 0 0 3.186 1.319h9.177a2.67 2.67 0 0 0 1.888-.782l1.176-1.175-1.176-1.175c-.501-.5-1.18-.781-1.888-.781z"/><path d="M428.216 77.508l3.205 2.562c-.98-1.568-.98-3.557 0-5.124l-3.205 2.562zm-54.745 12.421h-9.098c-1.195 0-2.341.474-3.186 1.319l-.678.677.599.599a4.51 4.51 0 0 0 3.187 1.319h9.176c.708 0 1.387-.281 1.888-.781l1.176-1.175-1.176-1.175c-.501-.5-1.18-.781-1.888-.781z"/><path d="M376.535 91.886l3.205 2.562a4.83 4.83 0 0 1 0-5.124l-3.205 2.562zm-30.481-46.388h9.177a2.67 2.67 0 0 0 1.888-.782l1.176-1.175-1.176-1.175c-.501-.5-1.18-.781-1.888-.781h-9.098c-1.195 0-2.341.474-3.186 1.319l-.678.677.599.599a4.51 4.51 0 0 0 3.186 1.319z"/><path d="M361.5,40.98l-3.205,2.562,3.205,2.562c-.98-1.568-.98-3.557,0-5.124Z"/></g><path d="M302.606,87.044c-.809-20.321-17.987-36.166-38.325-36.166h-10.1c-2.706,0-5.345.287-7.89.833-8.453,1.812-16.877-3.359-19.341-11.645-5.177-17.411-14.632-33.364-27.837-46.569l-55.243-55.243c-20.914-20.914-48.721-32.432-78.298-32.432H-49.497V239.303h113.534c29.577,0,57.383-11.518,78.297-32.432l14.009-14.009c7.408-7.408,19.6-6.24,25.7,2.278,6.841,9.554,18.03,15.792,30.652,15.792h10.096c18.986,0,35.502-13.8,38.02-32.618.087-.651.157-1.3.21-1.945.624-7.557,4.78-14.472,11.445-18.089,11.763-6.384,19.768-18.843,19.768-33.142v-.793c-.008-5.643,1.728-11.103,4.715-15.891,3.853-6.175,5.97-13.539,5.657-21.408Z" fill="#3ee1de" class="B"/><g class="I"><path d="M-19.497-64.178h85.071c21.411 0 41.945 8.505 57.084 23.645l55.243 55.243a80.73 80.73 0 0 1 23.645 57.084h0c0 21.411-8.505 41.945-23.645 57.084l-56.779 56.779a80.73 80.73 0 0 1-57.084 23.645h-83.535v-273.48z" stroke-dasharray="0 10" stroke-width="10" class="J K L"/><rect x="236.083" y="117.441" width="26.15" height="15.391" rx="7.696" transform="matrix(-1 0 0 -1 498.317 250.273)"/><rect x="240.114" y="77.129" width="38.894" height="22.891" rx="11.446" transform="matrix(-1 0 0 -1 519.122 177.149)"/></g><g fill="#009352"><path d="M103.202 70.09c.925 0 1.674-.748 1.674-1.673V63.18c0-.925-.75-1.673-1.674-1.673s-1.674.748-1.674 1.673v5.237c0 .925.75 1.673 1.674 1.673z" class="N"/><use href="#b" class="N"/><path d="M109.901 70.09c.925 0 1.674-.748 1.674-1.673v-3.493c0-.925-.75-1.673-1.674-1.673s-1.674.748-1.674 1.673v3.493c0 .925.75 1.673 1.674 1.673zM31.4 81.42c.925 0 1.674-.748 1.674-1.673V74.51c0-.925-.75-1.673-1.674-1.673s-1.674.748-1.674 1.673v5.237c0 .925.75 1.673 1.674 1.673zm-6.698 0c.925 0 1.674-.748 1.674-1.673v-3.493c0-.925-.75-1.673-1.674-1.673s-1.674.748-1.674 1.673v3.493c0 .925.75 1.673 1.674 1.673zm13.397 0c.925 0 1.674-.748 1.674-1.673v-3.493c0-.925-.75-1.673-1.674-1.673s-1.674.748-1.674 1.673v3.493c0 .925.75 1.673 1.674 1.673z" class="N"/><use href="#c" class="N"/><path d="M115.136 97.158c.925 0 1.674-.748 1.674-1.673v-3.493c0-.925-.75-1.673-1.674-1.673s-1.674.748-1.674 1.673v3.493c0 .925.75 1.673 1.674 1.673zm13.398 0c.925 0 1.674-.748 1.674-1.673v-3.493c0-.925-.75-1.673-1.674-1.673s-1.674.748-1.674 1.673v3.493c0 .925.75 1.673 1.674 1.673z" class="N"/></g><path d="M53.512-4.913h23.783" class="I J K L M O"/><use href="#d" class="P"/><g clip-path="url(#B)" class="B Q"><use href="#e" style="mix-blend-mode:multiply" class="R"/></g><path d="M141.284 35.451a14.69 14.69 0 0 1-4.306 10.389 14.71 14.71 0 0 1-10.399 4.303h-14.791V40.43a14.69 14.69 0 0 1 4.306-10.391 14.72 14.72 0 0 1 10.399-4.303h14.791v9.715z" class="B H"/><g clip-path="url(#C)"><path d="M141.284 25.736l-32.916 28.135h32.916V25.736z" class="B C"/><use href="#f" class="G"/><g class="B"><g class="E"><use href="#g"/><path d="M131.452 52.007h3.687V39.78a1.84 1.84 0 0 0-1.842-1.84h-.004a1.84 1.84 0 0 0-1.842 1.84v12.227z"/></g><g class="C"><use href="#h"/><path d="M111.787 32.644V28.96h11.063a1.84 1.84 0 0 1 1.842 1.84v.004a1.84 1.84 0 0 1-1.842 1.84h-11.063z"/></g></g></g><path d="M141.284 35.451a14.69 14.69 0 0 0 4.306 10.389 14.71 14.71 0 0 0 10.399 4.303h14.791V40.43a14.69 14.69 0 0 0-4.306-10.391 14.72 14.72 0 0 0-10.399-4.303h-14.791v9.715z" class="B H"/><g clip-path="url(#D)"><path d="M141.284 25.736L174.2 53.871h-32.916V25.736z" class="B C"/><use href="#i" class="G"/><g class="B"><g class="E"><path d="M158.49 51.734h-3.687v-6.196c0-1.017.826-1.842 1.844-1.842s1.844.825 1.844 1.842v6.196zm-7.374.273h-3.687V39.782a1.84 1.84 0 0 1 .54-1.302 1.85 1.85 0 0 1 1.303-.54c.488 0 .959.195 1.303.54s.54.814.54 1.302v12.225z"/></g><g class="C"><use href="#j"/><path d="M170.78 32.644V28.96h-11.061a1.84 1.84 0 0 0-1.303.54c-.347.346-.54.814-.54 1.302s.194.958.54 1.302a1.84 1.84 0 0 0 1.303.54h11.061z"/></g></g></g><path d="M141.276 50.142l8.834-6.433c4.88-3.553 5.431-10.62 1.162-14.886l-3.09-3.088h-13.811l-3.09 3.088c-4.269 4.266-3.718 11.333 1.162 14.886l8.834 6.433z" class="B G"/><g clip-path="url(#E)"><path d="M141.276 51.05h-13.938V24.619h13.938z" class="C"/><use href="#k" class="S"/><use href="#l" class="C"/><use href="#m" class="E"/><path d="M154.356 47.593c.6 0 1.191-.293 1.543-.831a1.84 1.84 0 0 0-.53-2.551l-7.494-4.912c-.852-.561-1.995-.319-2.552.529a1.84 1.84 0 0 0 .53 2.551l7.494 4.912a1.83 1.83 0 0 0 1.008.302z" class="C"/><path d="M128.213 47.593a1.83 1.83 0 0 0 1.008-.302l7.492-4.912a1.84 1.84 0 1 0-2.022-3.08l-7.492 4.912a1.84 1.84 0 0 0-.53 2.551c.353.538.943.831 1.543.831z" class="E"/></g><path d="M129.463 65.798h23.783" class="I J K L M O"/><path d="M51.582 104.302h10.807l2.929 26.724c.162 1.481-.999 2.775-2.49 2.775H51.09c-1.493 0-2.655-1.297-2.489-2.78l2.981-26.719z" class="P"/><g clip-path="url(#F)" class="B Q"><use href="#n" style="mix-blend-mode:multiply" class="R"/></g><path d="M56.959 103.453a14.69 14.69 0 0 1-4.306 10.389 14.71 14.71 0 0 1-10.399 4.303H27.463v-9.713a14.69 14.69 0 0 1 4.306-10.391 14.72 14.72 0 0 1 10.399-4.303h14.791v9.715z" class="B H"/><g clip-path="url(#G)"><path d="M56.959 93.739l-32.916 28.134h32.916V93.739z" class="B C"/><path d="M26.306 116.378l29.48-24.077 2.331 2.854-29.48 24.077z" class="G"/><g class="B"><g class="E"><path d="M39.753 119.736h3.687v-6.196c0-1.017-.826-1.842-1.844-1.842s-1.844.825-1.844 1.842v6.196zm7.374.273h3.687v-12.227a1.84 1.84 0 0 0-1.842-1.84h-.004a1.84 1.84 0 0 0-1.842 1.84v12.227z"/></g><g class="C"><path d="M27.463 107.819v-3.489h5.628c.463 0 .907.184 1.235.512a1.74 1.74 0 0 1 .511 1.232h0c0 .464-.184.906-.511 1.234s-.772.51-1.235.51h-5.628zm0-7.173v-3.684h11.063a1.84 1.84 0 0 1 1.842 1.84v.004a1.84 1.84 0 0 1-1.842 1.84H27.463z"/></g></g></g><path d="M56.959 103.453a14.69 14.69 0 0 0 4.306 10.389 14.71 14.71 0 0 0 10.399 4.303h14.791v-9.713a14.69 14.69 0 0 0-4.306-10.391 14.72 14.72 0 0 0-10.399-4.303H56.959v9.715z" class="B H"/><g clip-path="url(#H)"><path d="M56.959 93.739l32.916 28.134H56.959V93.739z" class="B C"/><path d="M55.794 95.166l2.329-2.856 29.497 24.056-2.329 2.856z" class="G"/><g class="B"><g class="E"><path d="M74.165 119.736h-3.687v-6.196c0-1.017.826-1.842 1.844-1.842s1.844.825 1.844 1.842v6.196zm-7.374.273h-3.687v-12.225a1.84 1.84 0 0 1 .54-1.302 1.85 1.85 0 0 1 1.303-.54c.488 0 .959.195 1.303.54s.54.814.54 1.302v12.225z"/></g><g class="C"><path d="M86.455 108.014v-3.684h-5.532c-.489 0-.957.193-1.302.54a1.83 1.83 0 0 0-.54 1.3v.004a1.84 1.84 0 0 0 .54 1.302c.345.344.813.538 1.302.538h5.532zm0-7.368v-3.684H75.394a1.84 1.84 0 0 0-1.303.54c-.347.346-.54.814-.54 1.302s.194.958.54 1.302a1.84 1.84 0 0 0 1.303.54h11.061z"/></g></g></g><path d="M56.951 118.145l8.834-6.433c4.88-3.553 5.431-10.62 1.162-14.886l-3.09-3.088H50.046l-3.09 3.088c-4.269 4.266-3.718 11.333 1.162 14.886l8.834 6.433z" class="B G"/><g clip-path="url(#I)"><path d="M56.951 119.052H43.013V92.621h13.938z" class="C"/><path d="M55.114 91.078h3.687v32.128h-3.687z" class="S"/><path d="M70.031 107.196c.6 0 1.191-.293 1.543-.831a1.84 1.84 0 0 0-.53-2.551l-7.494-4.912c-.852-.561-1.995-.319-2.552.529a1.84 1.84 0 0 0 .53 2.551l7.494 4.912a1.83 1.83 0 0 0 1.008.302z" class="C"/><path d="M43.888 107.196a1.83 1.83 0 0 0 1.008-.302l7.492-4.912a1.84 1.84 0 1 0-2.022-3.08l-7.492 4.912a1.84 1.84 0 0 0-.53 2.551c.353.538.943.831 1.543.831z" class="E"/><path d="M70.031 115.595c.6 0 1.191-.293 1.543-.831a1.84 1.84 0 0 0-.53-2.551l-7.494-4.912c-.852-.561-1.995-.319-2.552.529a1.84 1.84 0 0 0 .53 2.551l7.494 4.912a1.83 1.83 0 0 0 1.008.302z" class="C"/><path d="M43.888 115.595a1.83 1.83 0 0 0 1.008-.302l7.492-4.912a1.84 1.84 0 1 0-2.022-3.08l-7.492 4.912a1.84 1.84 0 0 0-.53 2.551c.353.538.943.831 1.543.831z" class="E"/></g><path d="M45.138 133.801h23.783" class="I J K L M O"/><path d="M56.423 39.904H67.23l2.929 26.724c.162 1.481-.999 2.775-2.49 2.775H55.931c-1.493 0-2.655-1.297-2.489-2.78l2.981-26.719z" class="P"/><g clip-path="url(#J)" class="B Q"><use href="#o" style="mix-blend-mode:multiply" class="R"/></g><path d="M61.8 39.055a14.69 14.69 0 0 1-4.306 10.389 14.71 14.71 0 0 1-10.399 4.303H32.304v-9.713a14.69 14.69 0 0 1 4.306-10.391 14.72 14.72 0 0 1 10.399-4.303H61.8v9.715z" class="B H"/><g clip-path="url(#K)"><path d="M61.8 29.34L28.884 57.474H61.8V29.34z" class="B C"/><path d="M31.145 51.979l29.48-24.077 2.331 2.854-29.48 24.077z" class="G"/><g class="B"><g class="E"><path d="M44.594 55.338h3.687v-6.196c0-1.017-.826-1.842-1.844-1.842s-1.844.825-1.844 1.842v6.196zm7.374.272h3.687V43.383a1.84 1.84 0 0 0-1.842-1.84h-.004a1.84 1.84 0 0 0-1.842 1.84V55.61z"/></g><g class="C"><path d="M32.303 43.42v-3.489h5.628c.463 0 .907.184 1.235.512a1.74 1.74 0 0 1 .511 1.232h0c0 .464-.184.906-.511 1.234s-.772.51-1.235.51h-5.628zm0-7.173v-3.684h11.063a1.84 1.84 0 0 1 1.842 1.84v.004a1.84 1.84 0 0 1-1.842 1.84H32.303z"/></g></g></g><path d="M61.8 39.055a14.69 14.69 0 0 0 4.306 10.389 14.71 14.71 0 0 0 10.399 4.303h14.791v-9.713a14.69 14.69 0 0 0-4.306-10.391 14.72 14.72 0 0 0-10.399-4.303H61.8v9.715z" class="B H"/><g clip-path="url(#L)"><path d="M61.8 29.34l32.916 28.134H61.8V29.34z" class="B C"/><path d="M60.635 30.768l2.329-2.856 29.497 24.056-2.329 2.856z" class="G"/><g class="B"><g class="E"><path d="M79.006 55.338h-3.687v-6.196c0-1.017.826-1.842 1.844-1.842s1.844.825 1.844 1.842v6.196zm-7.374.272h-3.687V43.385a1.84 1.84 0 0 1 .54-1.302 1.85 1.85 0 0 1 1.303-.54c.488 0 .959.195 1.303.54s.54.814.54 1.302V55.61z"/></g><g class="C"><path d="M91.296 43.615v-3.684h-5.532c-.489 0-.957.193-1.302.54a1.83 1.83 0 0 0-.54 1.3v.004a1.84 1.84 0 0 0 .54 1.302c.345.344.813.538 1.302.538h5.532zm0-7.368v-3.684H80.235a1.84 1.84 0 0 0-1.303.54c-.347.346-.54.814-.54 1.302s.194.958.54 1.302a1.84 1.84 0 0 0 1.303.54h11.061z"/></g></g></g><path d="M61.792 53.746l8.834-6.433c4.88-3.553 5.431-10.62 1.162-14.886l-3.09-3.088H54.887l-3.09 3.088c-4.269 4.266-3.718 11.333 1.162 14.886l8.834 6.433z" class="B G"/><g clip-path="url(#M)"><path d="M61.792 54.653H47.854V28.222h13.938z" class="C"/><path d="M59.955 26.679h3.687v32.128h-3.687z" class="S"/><path d="M74.871 42.798c.6 0 1.191-.293 1.543-.831a1.84 1.84 0 0 0-.53-2.551l-7.494-4.912c-.852-.561-1.995-.319-2.552.529a1.84 1.84 0 0 0 .53 2.551l7.494 4.912a1.83 1.83 0 0 0 1.008.302z" class="C"/><path d="M48.729 42.798a1.83 1.83 0 0 0 1.008-.302l7.492-4.912a1.84 1.84 0 1 0-2.022-3.08l-7.492 4.912a1.84 1.84 0 0 0-.53 2.551c.353.538.943.831 1.543.831z" class="E"/><path d="M74.871 51.197c.6 0 1.191-.293 1.543-.831a1.84 1.84 0 0 0-.53-2.551l-7.494-4.912c-.852-.561-1.995-.319-2.552.529a1.84 1.84 0 0 0 .53 2.551l7.494 4.912a1.83 1.83 0 0 0 1.008.302z" class="C"/><path d="M48.729 51.197a1.83 1.83 0 0 0 1.008-.302l7.492-4.912a1.84 1.84 0 1 0-2.022-3.08l-7.492 4.912a1.84 1.84 0 0 0-.53 2.551c.353.538.943.831 1.543.831z" class="E"/></g><path d="M49.979 69.402h23.783" class="I J K L M O"/><path d="M955.885 19.102l53.364 53.364c13.147 13.146 30.977 20.532 49.569 20.532h15.656c18.592 0 36.423 7.386 49.569 20.532l54.088 54.088c13.146 13.146 30.977 20.532 49.569 20.532h26.5a37.07 37.07 0 0 0 36.183-29.025l2.454-11.045-109.089-109.089c-7.637-7.637-17.995-11.928-28.796-11.928h-39.534a40.72 40.72 0 0 1-29.246-12.386l-120.99-124.871c-7.671-7.917-18.223-12.386-29.247-12.386h-32.537c-10.8 0-21.158 4.291-28.796 11.928L852.409-88.46c-15.903 15.903-15.903 41.688 0 57.591l29.437 29.437h24.466c18.592 0 36.423 7.386 49.569 20.532z" fill="#fff5c3"/><path d="M1013.631 113.482h57.773a40.73 40.73 0 0 1 28.796 11.927l105.604 105.605c7.637 7.637 17.995 11.927 28.796 11.927h54.787c22.491 0 40.723-18.232 40.723-40.723h0a40.72 40.72 0 0 0-11.927-28.795l-25.342-25.342-2.454 11.045a37.07 37.07 0 0 1-36.183 29.025h-26.5c-18.592 0-36.423-7.386-49.569-20.532l-54.088-54.088c-13.146-13.146-30.977-20.532-49.569-20.532h-15.656c-18.592 0-36.423-7.386-49.569-20.532l-53.364-53.364C942.742 5.957 924.912-1.429 906.32-1.429h-24.466l102.985 102.985c7.637 7.637 17.995 11.927 28.796 11.927z" class="I"/><g class="D J K L M"><path d="M1292.84 148.081h0"/><path d="M1290.481 158.696l-.096.43a37.07 37.07 0 0 1-36.183 29.025h-26.5c-18.592 0-36.423-7.386-49.569-20.532l-54.088-54.088c-13.146-13.146-30.977-20.532-49.569-20.532h-15.656c-18.592 0-36.423-7.386-49.569-20.532l-53.364-53.364C942.74 5.957 924.91-1.429 906.318-1.429h-19.029" stroke-dasharray="0 10.874"/><path d="M881.85-1.431h0"/><path d="M889.595 6.313l95.241 95.241c7.637 7.637 17.995 11.927 28.796 11.927h57.773a40.73 40.73 0 0 1 28.796 11.927l105.604 105.605c7.637 7.637 17.995 11.927 28.796 11.927h54.787c22.491 0 40.723-18.232 40.723-40.723a40.72 40.72 0 0 0-11.927-28.795l-21.47-21.47" stroke-dasharray="0 10.952"/></g><g fill="#009352"><path d="M1009.281 101.038c.925 0 1.674-.748 1.674-1.673v-5.237c0-.925-.75-1.673-1.674-1.673s-1.674.748-1.674 1.673v5.237c0 .925.75 1.673 1.674 1.673zm-6.699 0c.925 0 1.674-.748 1.674-1.673v-3.493c0-.925-.75-1.673-1.674-1.673s-1.674.748-1.674 1.673v3.493c0 .925.75 1.673 1.674 1.673zm13.397 0c.925 0 1.674-.748 1.674-1.673v-3.493c0-.925-.75-1.673-1.674-1.673s-1.674.748-1.674 1.673v3.493c0 .925.75 1.673 1.674 1.673z" class="N"/></g><path d="M1073.655 73.922h10.807l2.929 26.724c.162 1.481-.999 2.775-2.49 2.775h-11.738c-1.493 0-2.655-1.297-2.489-2.78l2.981-26.719z" class="P"/><g clip-path="url(#N)" class="B Q"><path d="M1079.023 93.24l8.834-6.433c4.88-3.553 5.431-10.62 1.162-14.886l-3.09-3.088h-13.811l-3.09 3.088c-4.269 4.266-3.718 11.333 1.162 14.886l8.834 6.433z" style="mix-blend-mode:multiply" class="R"/></g><path d="M1079.032 73.073a14.69 14.69 0 0 1-4.306 10.389 14.71 14.71 0 0 1-10.399 4.303h-14.791v-9.713a14.69 14.69 0 0 1 4.306-10.391 14.72 14.72 0 0 1 10.399-4.303h14.791v9.715z" class="B H"/><g clip-path="url(#O)"><path d="M1079.032 63.359l-32.917 28.134h32.917V63.359z" class="B C"/><path d="M1048.373 85.992l29.48-24.077 2.331 2.854-29.48 24.077z" class="G"/><g class="B"><g class="E"><path d="M1061.825 89.356h3.687V83.16c0-1.017-.826-1.842-1.844-1.842s-1.844.825-1.844 1.842v6.196zm7.374.273h3.687V77.402a1.84 1.84 0 0 0-1.842-1.84h-.004a1.84 1.84 0 0 0-1.842 1.84v12.227z"/></g><g class="C"><path d="M1049.535 77.439V73.95h5.628c.463 0 .907.184 1.235.512s.511.77.511 1.232h0c0 .464-.184.906-.511 1.234s-.772.51-1.235.51h-5.628z"/><use href="#p"/></g></g></g><use href="#q" class="B H"/><g clip-path="url(#P)"><path d="M1079.032 63.359l32.916 28.134h-32.916V63.359z" class="B C"/><path d="M1077.863 64.783l2.329-2.856 29.497 24.056-2.329 2.856z" class="G"/><g class="B"><g class="E"><path d="M1096.238 89.356h-3.687V83.16c0-1.017.826-1.842 1.844-1.842s1.844.825 1.844 1.842v6.196zm-7.374.273h-3.687V77.404a1.84 1.84 0 0 1 .54-1.302 1.85 1.85 0 0 1 1.303-.54c.488 0 .959.195 1.303.54s.54.814.54 1.302v12.225z"/></g><g class="C"><path d="M1108.528 77.634V73.95h-5.532c-.489 0-.957.193-1.302.54a1.83 1.83 0 0 0-.54 1.3v.004a1.84 1.84 0 0 0 .54 1.302c.345.344.813.538 1.302.538h5.532z"/><use href="#r"/></g></g></g><path d="M1079.023 87.765l8.834-6.433c4.88-3.553 5.431-10.62 1.162-14.886l-3.09-3.088h-13.811l-3.09 3.088c-4.269 4.266-3.718 11.333 1.162 14.886l8.834 6.433z" class="B G"/><g clip-path="url(#Q)"><path d="M1079.023 88.672h-13.938V62.241h13.938z" class="C"/><path d="M1077.187 60.698h3.687v32.128h-3.687z" class="S"/><path d="M1092.103 76.816c.6 0 1.191-.293 1.543-.831a1.84 1.84 0 0 0-.53-2.551l-7.494-4.912c-.852-.561-1.995-.319-2.552.529a1.84 1.84 0 0 0 .53 2.551l7.494 4.912a1.83 1.83 0 0 0 1.008.302z" class="C"/><path d="M1065.96 76.816a1.83 1.83 0 0 0 1.008-.302l7.492-4.912a1.84 1.84 0 1 0-2.022-3.08l-7.492 4.912a1.84 1.84 0 0 0-.53 2.551c.353.538.943.831 1.543.831z" class="E"/><path d="M1092.103 85.216c.6 0 1.191-.293 1.543-.831a1.84 1.84 0 0 0-.53-2.551l-7.494-4.912c-.852-.561-1.995-.319-2.552.529a1.84 1.84 0 0 0 .53 2.551l7.494 4.912a1.83 1.83 0 0 0 1.008.302z" class="C"/><path d="M1065.96 85.216a1.83 1.83 0 0 0 1.008-.302l7.492-4.912a1.84 1.84 0 1 0-2.022-3.08l-7.492 4.912a1.84 1.84 0 0 0-.53 2.551c.353.538.943.831 1.543.831z" class="E"/></g><path d="M1067.211 103.421h23.783" class="I J K L M O"/><path d="M967.709 26.606h10.807l2.929 26.724c.162 1.481-.999 2.775-2.49 2.775h-11.738c-1.493 0-2.655-1.297-2.489-2.78l2.981-26.719z" class="P"/><g clip-path="url(#R)" class="B Q"><path d="M973.077 45.923l8.834-6.433c4.88-3.553 5.431-10.62 1.162-14.886l-3.09-3.088h-13.811l-3.09 3.088c-4.269 4.266-3.718 11.333 1.162 14.886l8.834 6.433z" style="mix-blend-mode:multiply" class="R"/></g><path d="M973.086 25.757a14.69 14.69 0 0 1-4.306 10.389 14.71 14.71 0 0 1-10.399 4.303H943.59v-9.713a14.69 14.69 0 0 1 4.306-10.391 14.72 14.72 0 0 1 10.399-4.303h14.791v9.715z" class="B H"/><g clip-path="url(#S)"><path d="M973.086 16.042l-32.917 28.134h32.917V16.042z" class="B C"/><path d="M942.427 38.676l29.48-24.077 2.331 2.854-29.48 24.077z" class="G"/><g class="B"><g class="E"><path d="M955.879 42.04h3.687v-6.196c0-1.017-.826-1.842-1.844-1.842s-1.844.825-1.844 1.842v6.196zm7.374.272h3.687V30.085a1.84 1.84 0 0 0-1.842-1.84h-.004a1.84 1.84 0 0 0-1.842 1.84v12.227z"/></g><g class="C"><path d="M943.589 30.122v-3.489h5.628c.463 0 .907.184 1.235.512a1.74 1.74 0 0 1 .511 1.232h0c0 .464-.184.906-.511 1.234s-.772.51-1.235.51h-5.628zm0-7.172v-3.684h11.063a1.84 1.84 0 0 1 1.842 1.84v.004a1.84 1.84 0 0 1-1.842 1.84h-11.063z"/></g></g></g><path d="M973.086 25.757a14.69 14.69 0 0 0 4.306 10.389 14.71 14.71 0 0 0 10.399 4.303h14.791v-9.713a14.69 14.69 0 0 0-4.306-10.391 14.72 14.72 0 0 0-10.399-4.303h-14.791v9.715z" class="B H"/><g clip-path="url(#T)"><path d="M973.086 16.042l32.916 28.134h-32.916V16.042z" class="B C"/><path d="M971.917 17.467l2.329-2.856 29.497 24.056-2.329 2.856z" class="G"/><g class="B"><g class="E"><path d="M990.292 42.04h-3.687v-6.196c0-1.017.826-1.842 1.844-1.842s1.844.825 1.844 1.842v6.196zm-7.374.272h-3.687V30.087a1.84 1.84 0 0 1 .54-1.302 1.85 1.85 0 0 1 1.303-.54c.488 0 .959.195 1.303.54s.54.814.54 1.302v12.225z"/></g><g class="C"><path d="M1002.582 30.318v-3.684h-5.532c-.489 0-.957.193-1.302.54a1.83 1.83 0 0 0-.54 1.3v.004a1.84 1.84 0 0 0 .54 1.302c.345.344.813.538 1.302.538h5.532zm0-7.368v-3.684h-11.061a1.84 1.84 0 0 0-1.303.54c-.347.346-.54.814-.54 1.302s.194.958.54 1.302a1.84 1.84 0 0 0 1.303.54h11.061z"/></g></g></g><path d="M973.077 40.448l8.834-6.433c4.88-3.553 5.431-10.62 1.162-14.886l-3.09-3.088h-13.811l-3.09 3.088c-4.269 4.266-3.718 11.333 1.162 14.886l8.834 6.433z" class="B G"/><g clip-path="url(#U)"><path d="M973.077 41.356h-13.938V14.925h13.938z" class="C"/><path d="M971.241 13.382h3.687V45.51h-3.687z" class="S"/><path d="M986.157 29.5c.6 0 1.191-.293 1.543-.831a1.84 1.84 0 0 0-.53-2.551l-7.494-4.912c-.852-.561-1.995-.319-2.552.529a1.84 1.84 0 0 0 .53 2.551l7.494 4.912a1.83 1.83 0 0 0 1.008.302z" class="C"/><path d="M960.014 29.5a1.83 1.83 0 0 0 1.008-.302l7.492-4.912a1.84 1.84 0 1 0-2.022-3.08L959 26.118a1.84 1.84 0 0 0-.53 2.551c.353.538.943.831 1.543.831z" class="E"/><path d="M986.157 37.899c.6 0 1.191-.293 1.543-.831a1.84 1.84 0 0 0-.53-2.551l-7.494-4.912c-.852-.561-1.995-.319-2.552.529a1.84 1.84 0 0 0 .53 2.551l7.494 4.912a1.83 1.83 0 0 0 1.008.302z" class="C"/><path d="M960.014 37.899a1.83 1.83 0 0 0 1.008-.302l7.492-4.912a1.84 1.84 0 1 0-2.022-3.08L959 34.517a1.84 1.84 0 0 0-.53 2.551c.353.538.943.831 1.543.831z" class="E"/></g><path d="M961.265 56.104h23.783" class="I J K L M O"/></g></svg>