<svg xmlns="http://www.w3.org/2000/svg" width="1500" height="145" xmlns:v="https://vecta.io/nano"><style><![CDATA[.B{fill-rule:evenodd}.C{fill:#009950}.D{fill:#00e11d}.E{fill:#009238}.F{fill:#007b62}.G{clip-rule:evenodd}.H{fill:#00b500}]]></style><defs><clipPath id="A"><path d="M0 .082h1500v145H0z" fill="none"/></clipPath><clipPath id="B"><path d="M231.596 70.943h10.807l2.929 26.724c.162 1.481-.999 2.775-2.49 2.775h-11.738c-1.493 0-2.655-1.297-2.489-2.78l2.981-26.719z" fill="none"/></clipPath><clipPath id="C"><path d="M236.973 70.093a14.69 14.69 0 0 1-4.306 10.389 14.71 14.71 0 0 1-10.399 4.303h-14.791v-9.713a14.69 14.69 0 0 1 4.306-10.391 14.72 14.72 0 0 1 10.399-4.303h14.791v9.715z" fill="none" class="G"/></clipPath><clipPath id="D"><path d="M236.973 70.093a14.69 14.69 0 0 0 4.306 10.389 14.71 14.71 0 0 0 10.399 4.303h14.791v-9.713a14.69 14.69 0 0 0-4.306-10.391 14.72 14.72 0 0 0-10.399-4.303h-14.791v9.715z" fill="none" class="G"/></clipPath><clipPath id="E"><path d="M236.965 84.785l8.834-6.433c4.88-3.553 5.431-10.62 1.162-14.886l-3.09-3.088H230.06l-3.09 3.088c-4.269 4.266-3.718 11.333 1.162 14.886l8.834 6.433z" fill="none" class="G"/></clipPath><path id="F" d="M212.958 121.565c0-.52.206-1.018.574-1.385a1.96 1.96 0 0 1 1.385-.574h6.53c.52 0 1.018.206 1.385.574s.574.866.574 1.385-.206 1.018-.574 1.385-.866.574-1.385.574h-6.53c-.52 0-1.018-.206-1.385-.574a1.96 1.96 0 0 1-.574-1.385z"/><path id="G" d="M213.326 115.432c.51-.51 1.337-.51 1.847 0l1.689 1.689v-3.392c0-.721.584-1.306 1.306-1.306s1.306.585 1.306 1.306v3.393l1.704-1.704c.51-.51 1.337-.51 1.847 0s.51 1.337 0 1.847l-3.918 3.918a1.3 1.3 0 0 1-.923.383c-.017 0-.02-.002-.022-.002-.342.002-.676-.126-.931-.381l-3.903-3.903c-.51-.51-.51-1.337 0-1.847z"/><path id="H" d="M236.965 90.26l8.834-6.433c4.88-3.553 5.431-10.62 1.162-14.886l-3.09-3.088H230.06l-3.09 3.088c-4.269 4.266-3.718 11.333 1.162 14.886l8.834 6.433z"/><path id="I" d="M250.045 73.837c.6 0 1.191-.293 1.543-.831a1.84 1.84 0 0 0-.53-2.551l-7.494-4.912c-.852-.561-1.995-.319-2.552.529a1.84 1.84 0 0 0 .53 2.551l7.494 4.912a1.83 1.83 0 0 0 1.008.302z"/><path id="J" d="M223.902 73.837a1.83 1.83 0 0 0 1.008-.302l7.492-4.912a1.84 1.84 0 1 0-2.022-3.08l-7.492 4.912a1.84 1.84 0 0 0-.53 2.551c.353.538.943.831 1.543.831z"/></defs><g clip-path="url(#A)"><path d="M-80.448-3896.348h1640.647v5223.812H-80.448z" fill="#04d5d8"/><path d="M139.533 86.462l66.701-35.363c7.546-4.001 16.047-6.115 24.584-6.115 11.367 0 22.609 3.773 31.671 10.63l25.516 18.707h14.71c9.633 0 18.689 3.751 25.501 10.563l2.096 2.096c9.183.299 17.772 4.017 24.298 10.544l20.412 21.093.177.187a31.41 31.41 0 0 1 8.417 21.437v5.637a31.29 31.29 0 0 1-9.227 22.276l-2.979 2.979c-5.841 5.841-13.456 9.21-21.439 9.487-5.771.2-11.437-1.174-16.402-3.93-4.693 3.068-10.147 4.763-15.6 4.763h-2.832c-6.394 0-12.47-2.057-17.472-5.855.197 13.519-4.882 26.749-14.157 36.659a52.67 52.67 0 0 1-38.315 16.626 57.23 57.23 0 0 1-1.152-.013l-75.01-1.629c-25.763-.559-47.133-19.477-50.814-44.982l-6.05-41.92c-3.157-21.874 7.841-43.525 27.366-53.876z" fill="#3ee1de"/><g fill="#00b465"><path d="M218.87 74.933l-66.701 35.363c-9.518 5.046-14.841 15.526-13.302 26.188l6.05 41.921a25.52 25.52 0 0 0 24.7 21.865l75.009 1.629c14.973.325 27.005-12.255 26.014-27.198h0c-.612-9.233 3.819-18.077 11.588-23.104 10.219-6.613 27.029-24.309 12.498-37.602l-48.465-36.833a25.52 25.52 0 0 0-27.391-2.229z"/><path d="M245.769 208.776h0c-3.721 0-6.782-2.982-6.869-6.724h0v-.239h0c-.101 3.778-3.235 6.768-7.021 6.681h0c-3.793-.08-6.804-3.221-6.717-7.014h0c.08-3.8 3.221-6.811 7.014-6.724h0c3.771.08 6.768 3.177 6.724 6.941h0a6.89 6.89 0 0 1 6.724-6.674h0c2.772-.058 5.197 1.535 6.334 3.873h0c-.34-2.577.803-5.24 3.149-6.724h0c2.352-1.484 5.262-1.361 7.448.072h0c-1.629-2.041-2.012-4.929-.746-7.412h0a6.87 6.87 0 0 1 6.406-3.742h0a6.89 6.89 0 0 1-4.437-6h0c-.246-3.786 2.627-7.057 6.42-7.296h0c.26-.022.514-.022.774-.007h0l-.709-.318h0c-3.38-1.73-4.712-5.87-2.975-9.25h0c1.73-3.38 5.87-4.712 9.25-2.975h0a7.61 7.61 0 0 1 .673.391h0a5.7 5.7 0 0 1-.347-.477h0c-2.099-3.163-1.231-7.434 1.933-9.526h0c2.758-1.831 6.362-1.404 8.628.84h0c-1.947-2.541-1.918-6.182.26-8.693h0c2.005-2.309 5.204-2.953 7.876-1.824h0c-2.179-1.658-3.243-4.531-2.461-7.325h0c.579-2.056 2.034-3.634 3.844-4.437h0c-1.911-.21-3.72-1.216-4.9-2.917h0c-1.679-2.439-1.578-5.574.029-7.861h0a6.88 6.88 0 0 1-8.867.456h0a6.87 6.87 0 0 1-1.317-9.627h0a6.87 6.87 0 0 1-9.627 1.31h0a6.87 6.87 0 0 1-1.317-9.627h0c-2.294 3.018-6.608 3.605-9.634 1.31h0c-3.018-2.294-3.612-6.609-1.31-9.634h0a6.88 6.88 0 0 1-9.634 1.317h0c-2.931-2.229-3.568-6.348-1.513-9.352h0a6.89 6.89 0 0 1-8.802 1.716h0c-2.417-1.383-3.677-4.003-3.445-6.601h0c-1.028 2.396-3.388 4.097-6.174 4.155h0c-1.925.043-3.692-.717-4.966-1.969h0a6.85 6.85 0 0 1-3.373 4.14h0c-3.359 1.781-7.521.499-9.294-2.852h0c1.774 3.352.499 7.514-2.852 9.294h0c-3.359 1.773-7.521.499-9.294-2.859h0a6.87 6.87 0 0 1 2.852-9.287h0c3.351-1.781 7.513-.499 9.294 2.852h0c-1.781-3.351-.499-7.513 2.852-9.294h0c2.714-1.44 5.965-.876 8.042 1.173h0c.818-2.801 3.38-4.879 6.457-4.937h0c3.793-.08 6.934 2.932 7.014 6.724h0a6.86 6.86 0 0 1-.029.775h0c.101-.232.217-.463.347-.695h0c1.882-3.301 6.08-4.444 9.381-2.562h0a6.87 6.87 0 0 1 2.562 9.373h0l-.304.485h0c2.316-2.946 6.572-3.496 9.562-1.224h0a6.87 6.87 0 0 1 1.317 9.627h0c2.295-3.018 6.609-3.612 9.634-1.31h0c3.018 2.294 3.605 6.608 1.31 9.634h0c2.294-3.026 6.608-3.612 9.634-1.318h0c3.018 2.295 3.612 6.609 1.31 9.634h0a6.88 6.88 0 0 1 9.634-1.317h0a6.88 6.88 0 0 1 1.462 9.431h0a7.19 7.19 0 0 1 .803-.651h0c3.12-2.157 7.405-1.382 9.562 1.745h0a6.87 6.87 0 0 1-1.737 9.562h0c-.362.253-.746.463-1.129.637h0c.362.036.724.109 1.093.21h0a6.87 6.87 0 0 1 4.763 8.476h0a6.87 6.87 0 0 1-8.469 4.763h0c-.289-.08-.565-.174-.832-.289h0l.347.282h0c2.866 2.49 3.177 6.825.687 9.699h0a6.87 6.87 0 0 1-9.692.687h0c-.123-.101-.231-.21-.34-.318h0l.282.405h0c2.099 3.163 1.23 7.427-1.933 9.526h0c-2.374 1.571-5.371 1.477-7.6-.007h0a6.87 6.87 0 0 1 .724 7.412h0c-1.267 2.475-3.829 3.851-6.442 3.728h0c2.446.926 4.249 3.214 4.423 5.993h0c.246 3.786-2.628 7.057-6.413 7.296h0l-.738.007h0l.709.318h0c3.38 1.723 4.727 5.863 3.004 9.243h0c-1.723 3.38-5.863 4.726-9.251 3.004h0l-.659-.383h0a5.73 5.73 0 0 1 .442.622h0a6.88 6.88 0 0 1-2.143 9.482h0v-.007h0a6.87 6.87 0 0 1-9.482-2.143h0c-.137-.217-.268-.441-.376-.673h0c.036.253.051.506.058.767h0c.087 3.793-2.924 6.934-6.717 7.021h0l-.159.007zm-27.477-.579h-.159c-3.793-.08-6.804-3.221-6.717-7.021h0c.08-3.793 3.221-6.804 7.021-6.724h0c3.793.087 6.804 3.228 6.717 7.021a6.87 6.87 0 0 1-6.862 6.724zm-13.753-.297h-.145a6.87 6.87 0 0 1-6.724-7.021h0c.08-3.793 3.221-6.804 7.021-6.724h0c3.793.087 6.804 3.228 6.724 7.021a6.88 6.88 0 0 1-6.876 6.724zm-13.738-.296h-.152a6.88 6.88 0 0 1-6.724-7.021h0c.08-3.8 3.228-6.804 7.021-6.724h0a6.88 6.88 0 0 1 6.724 7.021 6.88 6.88 0 0 1-6.869 6.724zm-13.745-.297h0c-.051 0-.101 0-.152-.007h0c-3.742-.08-6.724-3.134-6.724-6.855h0l-.159.738h0c-1.013 3.663-4.799 5.812-8.454 4.806h0c-3.663-1.006-5.813-4.792-4.806-8.454h0l.246-.731h0l-.521.557h0c-2.743 2.627-7.094 2.533-9.721-.21h0c-2.62-2.743-2.526-7.094.217-9.721h0c.188-.181.383-.347.586-.499h0l-.746.21h0c-3.706.847-7.383-1.477-8.23-5.175h0c-.839-3.699 1.477-7.383 5.176-8.23h0l.362-.072h0c-3.721.485-7.144-2.106-7.68-5.834h0c-.543-3.757 2.063-7.245 5.82-7.781h0a6.87 6.87 0 0 1 7.781 5.82h0a6.87 6.87 0 0 1-5.631 7.752h0a6.88 6.88 0 0 1 7.578 5.298h0a6.87 6.87 0 0 1-2.526 6.985h0c2.461-.854 5.306-.268 7.224 1.737h0a6.88 6.88 0 0 1 1.419 7.311h0a6.88 6.88 0 0 1 7.101-2.215h0c3.04.839 5.045 3.59 5.052 6.601h0c.528-3.337 3.46-5.856 6.934-5.776h0a6.87 6.87 0 0 1 6.724 7.021c-.08 3.742-3.142 6.724-6.869 6.724zm-35.78-47.194h0c-3.358 0-6.297-2.468-6.797-5.892h0a6.87 6.87 0 0 1 5.82-7.781h0c3.764-.543 7.245 2.063 7.788 5.82h0a6.88 6.88 0 0 1-5.82 7.788 7.77 7.77 0 0 1-.992.065zm-1.968-13.6h0a6.87 6.87 0 0 1-6.789-5.892h0c-.543-3.764 2.063-7.246 5.82-7.789h0l.152-.022h0c-.268-.036-.536-.094-.796-.166h0c-3.656-1.021-5.798-4.806-4.784-8.469h0a6.88 6.88 0 0 1 8.462-4.784h0c.253.072.499.159.731.253h0c-.195-.166-.383-.34-.564-.536h0c-2.62-2.743-2.512-7.093.231-9.714h0c2.75-2.62 7.101-2.519 9.721.231h0c.188.195.354.398.514.601h0c-1.687-3.33-.398-7.412 2.917-9.171h0c3.351-1.773 7.513-.499 9.294 2.852h0c1.773 3.359.499 7.521-2.859 9.294h0c-3.018 1.607-6.703.724-8.7-1.918h0c1.325 2.628.847 5.921-1.397 8.056h0c-2.012 1.925-4.886 2.381-7.31 1.404h0c1.998 1.679 2.953 4.43 2.208 7.115h0c-.767 2.75-3.105 4.647-5.776 4.98h0c2.902.456 5.306 2.75 5.747 5.812h0a6.88 6.88 0 0 1-5.827 7.789c-.333.043-.659.072-.992.072zm30.98-38.95h0c-2.461 0-4.842-1.325-6.073-3.656h0a6.86 6.86 0 0 1 2.852-9.287h0c3.351-1.781 7.513-.506 9.294 2.852h0a6.88 6.88 0 0 1-2.859 9.294 6.83 6.83 0 0 1-3.214.796zm12.146-6.435h0c-2.461 0-4.842-1.332-6.073-3.655h0c-1.781-3.359-.499-7.514 2.852-9.294h0c3.351-1.781 7.513-.499 9.294 2.852h0a6.88 6.88 0 0 1-2.859 9.294c-1.021.543-2.128.803-3.214.803zm12.153-6.442h0c-2.468 0-4.85-1.325-6.08-3.656h0c-1.781-3.351-.506-7.513 2.852-9.294h0c3.351-1.774 7.513-.499 9.294 2.852h0c1.773 3.359.499 7.521-2.859 9.294-1.02.543-2.121.804-3.206.804z"/></g><use href="#F" class="B C"/><use href="#G" class="D"/><path d="M229.398 121.565c0-.52.206-1.018.574-1.385a1.96 1.96 0 0 1 1.385-.574h6.53c.52 0 1.018.206 1.385.574s.574.866.574 1.385-.206 1.018-.574 1.385-.866.574-1.385.574h-6.53c-.52 0-1.018-.206-1.385-.574a1.96 1.96 0 0 1-.574-1.385z" class="B C"/><path d="M229.766 115.432c.51-.51 1.337-.51 1.847 0l1.689 1.689v-3.392c0-.721.584-1.306 1.306-1.306s1.306.585 1.306 1.306v3.393l1.704-1.704c.51-.51 1.337-.51 1.847 0s.51 1.337 0 1.847l-3.918 3.918a1.3 1.3 0 0 1-.923.383c-.017 0-.02-.002-.022-.002-.342.002-.676-.126-.931-.381l-3.903-3.903c-.51-.51-.51-1.337 0-1.847z" class="D"/><path d="M196.518 121.565c0-.52.206-1.018.574-1.385a1.96 1.96 0 0 1 1.385-.574h6.53c.52 0 1.018.206 1.385.574s.574.866.574 1.385-.206 1.018-.574 1.385-.866.574-1.385.574h-6.53c-.52 0-1.018-.206-1.385-.574a1.96 1.96 0 0 1-.574-1.385z" class="B C"/><path d="M196.886 115.432c.51-.51 1.337-.51 1.847 0l1.689 1.689v-3.392c0-.721.584-1.306 1.306-1.306s1.306.585 1.306 1.306v3.393l1.704-1.704c.51-.51 1.337-.51 1.847 0s.51 1.337 0 1.847l-3.918 3.918a1.3 1.3 0 0 1-.923.383c-.017 0-.02-.002-.022-.002-.342.002-.676-.126-.931-.381l-3.903-3.903c-.51-.51-.51-1.337 0-1.847z" class="D"/><path d="M180.079 121.565c0-.52.206-1.018.574-1.385a1.96 1.96 0 0 1 1.385-.574h6.53c.52 0 1.018.206 1.385.574s.574.866.574 1.385-.206 1.018-.574 1.385-.866.574-1.385.574h-6.53c-.52 0-1.018-.206-1.385-.574a1.96 1.96 0 0 1-.574-1.385z" class="B C"/><path d="M180.446 115.432c.51-.51 1.337-.51 1.847 0l1.689 1.689v-3.392c0-.721.584-1.306 1.306-1.306s1.306.585 1.306 1.306v3.393l1.704-1.704c.51-.51 1.337-.51 1.847 0s.51 1.337 0 1.847l-3.918 3.918a1.3 1.3 0 0 1-.923.383c-.017 0-.02-.002-.022-.002-.342.002-.676-.126-.931-.381l-3.903-3.903c-.51-.51-.51-1.337 0-1.847z" class="D"/><path d="M163.639 121.565c0-.52.206-1.018.574-1.385a1.96 1.96 0 0 1 1.385-.574h6.53c.52 0 1.018.206 1.385.574s.574.866.574 1.385-.206 1.018-.574 1.385-.866.574-1.385.574h-6.53c-.52 0-1.018-.206-1.385-.574a1.96 1.96 0 0 1-.574-1.385z" class="B C"/><path d="M164.007 115.432c.51-.51 1.337-.51 1.847 0l1.689 1.689v-3.392c0-.721.584-1.306 1.306-1.306s1.306.585 1.306 1.306v3.393l1.704-1.704c.51-.51 1.337-.51 1.847 0s.51 1.337 0 1.847l-3.918 3.918a1.3 1.3 0 0 1-.923.383c-.017 0-.02-.002-.022-.002-.342.002-.676-.126-.931-.381l-3.903-3.903c-.51-.51-.51-1.337 0-1.847z" class="D"/><path d="M220.709 133.994c0-.52.206-1.018.574-1.385a1.96 1.96 0 0 1 1.385-.574h6.53c.52 0 1.018.206 1.385.574s.574.866.574 1.385-.206 1.018-.574 1.385-.866.574-1.385.574h-6.53c-.52 0-1.018-.206-1.385-.574a1.96 1.96 0 0 1-.574-1.385z" class="B C"/><path d="M221.077 127.861c.51-.51 1.337-.51 1.847 0l1.689 1.689v-3.392c0-.721.584-1.306 1.306-1.306s1.306.585 1.306 1.306v3.393l1.704-1.704c.51-.51 1.337-.51 1.847 0s.51 1.337 0 1.847l-3.918 3.918a1.3 1.3 0 0 1-.923.383c-.017 0-.02-.002-.022-.002-.342.002-.676-.126-.931-.381l-3.903-3.903c-.51-.51-.51-1.337 0-1.847z" class="D"/><path d="M204.341 133.994c0-.52.206-1.018.574-1.385a1.96 1.96 0 0 1 1.385-.574h6.53c.52 0 1.018.206 1.385.574s.574.866.574 1.385-.206 1.018-.574 1.385-.866.574-1.385.574h-6.53c-.52 0-1.018-.206-1.385-.574a1.96 1.96 0 0 1-.574-1.385z" class="B C"/><path d="M204.709 127.861c.51-.51 1.337-.51 1.847 0l1.689 1.689v-3.392c0-.721.584-1.306 1.306-1.306s1.306.585 1.306 1.306v3.393l1.704-1.704c.51-.51 1.337-.51 1.847 0s.51 1.337 0 1.847l-3.918 3.918a1.3 1.3 0 0 1-.923.383c-.017 0-.02-.002-.022-.002-.342.002-.676-.126-.931-.381l-3.903-3.903c-.51-.51-.51-1.337 0-1.847z" class="D"/><path d="M187.974 133.994c0-.52.206-1.018.574-1.385a1.96 1.96 0 0 1 1.385-.574h6.53c.52 0 1.018.206 1.385.574s.574.866.574 1.385-.206 1.018-.574 1.385-.866.574-1.385.574h-6.53c-.52 0-1.018-.206-1.385-.574a1.96 1.96 0 0 1-.574-1.385z" class="B C"/><path d="M188.342 127.861c.51-.51 1.337-.51 1.847 0l1.689 1.689v-3.392c0-.721.584-1.306 1.306-1.306s1.306.585 1.306 1.306v3.393l1.704-1.704c.51-.51 1.337-.51 1.847 0s.51 1.337 0 1.847l-3.918 3.918a1.3 1.3 0 0 1-.923.383c-.017 0-.02-.002-.022-.002-.342.002-.676-.126-.931-.381l-3.903-3.903c-.51-.51-.51-1.337 0-1.847z" class="D"/><path d="M171.606 133.994c0-.52.206-1.018.574-1.385a1.96 1.96 0 0 1 1.385-.574h6.53c.52 0 1.018.206 1.385.574s.574.866.574 1.385-.206 1.018-.574 1.385-.866.574-1.385.574h-6.53c-.52 0-1.018-.206-1.385-.574a1.96 1.96 0 0 1-.574-1.385z" class="B C"/><path d="M171.974 127.861c.51-.51 1.337-.51 1.847 0l1.689 1.689v-3.392c0-.721.584-1.306 1.306-1.306s1.306.585 1.306 1.306v3.393l1.704-1.704c.51-.51 1.337-.51 1.847 0s.51 1.337 0 1.847l-3.918 3.918a1.3 1.3 0 0 1-.923.383c-.017 0-.02-.002-.022-.002-.342.002-.676-.126-.931-.381l-3.903-3.903c-.51-.51-.51-1.337 0-1.847z" class="D"/><path d="M332.912 136.352l-3.591-3.528c-1.398-1.373-1.418-3.619-.044-5.016l.558-.568a3.55 3.55 0 0 0 .119-4.845l-9.204-10.338c-.31-.348-.54-.749-.692-1.176 1.299.515 2.696.784 4.12.771l5.778-.051a10.92 10.92 0 0 1 7.751 3.13l13.244 13.011c.339.333.645.693.935 1.063l7.492 7.928c1.042 1.102 1.628 2.557 1.641 4.074l.054 6.076c.014 1.594-.605 3.128-1.722 4.264l-3.481 3.543a6.01 6.01 0 0 1-8.497.075l-2.538-2.493c-1.137-1.117-2.67-1.736-4.264-1.722l-.703.006c-1.665.015-3.283-.621-4.456-1.802-1.469-1.48-2.391-3.416-2.612-5.491a1.99 1.99 0 0 0-.442-1.047 3.53 3.53 0 0 1 .597-.847 3.55 3.55 0 0 0-.044-5.016z" fill="#b46735"/><g fill="#c77b46"><path d="M282.641 123.818l-9.116-8.956c-2.377-2.335-2.432-6.131-.159-8.54l.853-.869 2.795-2.805-.016-.024.971-.988a10.92 10.92 0 0 1 7.695-3.267l15.722-.139a10.92 10.92 0 0 1 7.751 3.13l7.29 7.162c1.05 1.032 2.288 1.827 3.631 2.359.151.427.382.828.692 1.176l9.204 10.337c1.242 1.395 1.19 3.513-.119 4.845l-.558.568a3.55 3.55 0 0 0 .045 5.017l3.591 3.528c1.407 1.383 1.379 3.618.016 5.045a3.56 3.56 0 0 0-.569.818c-.327-.403-.803-.68-1.35-.735l-5.536-.555a2.04 2.04 0 0 0-2.118 1.318l-1.342 3.619a3.27 3.27 0 0 0 .025 2.339l1.099 2.784a3.27 3.27 0 0 1-.493 3.251l-1.767 2.199c-.615.765-1.54 1.214-2.522 1.223l-3.052.027a3.27 3.27 0 0 1-2.322-.938l-2.433-2.39a3.27 3.27 0 0 1-.615-3.834l2.288-4.437c.38-.737-.16-1.614-.989-1.607-.954.008-1.467-1.118-.834-1.832 1.099-1.24.335-3.203-1.313-3.368-4.913-.494-10.293.322-15.876-.239-4.921-.495-8.697-5.974-8.741-10.92h0c-.014-1.619-.671-3.167-1.827-4.302z"/><path d="M274.22 105.453l2.779-2.829.015.024-2.794 2.805z"/></g><rect x="281.809" y="102.391" width="22.752" height="7.945" rx="3.972" transform="matrix(-1 0 0 -1 586.371 212.727)" fill="#ad5e2b"/><g fill="#c77b46"><rect x="301.905" y="140.86" width="5.704" height="3.236" rx="1.618" transform="matrix(-1 0 0 -1 609.514 284.956)"/><rect x="324.93" y="142.806" width="3.786" height="2.148" rx="1.074" transform="matrix(-1 0 0 -1 653.646 287.76)"/></g><path d="M231.596 70.943h10.807l2.929 26.724c.162 1.481-.999 2.775-2.49 2.775h-11.738c-1.493 0-2.655-1.297-2.489-2.78l2.981-26.719z" fill="#bd7f46"/><g clip-path="url(#B)" class="B"><use href="#H" style="mix-blend-mode:multiply" fill="#6a6862" opacity=".25"/></g><path d="M236.973 70.093a14.69 14.69 0 0 1-4.306 10.389 14.71 14.71 0 0 1-10.399 4.303h-14.791v-9.713a14.69 14.69 0 0 1 4.306-10.391 14.72 14.72 0 0 1 10.399-4.303h14.791v9.715z" fill="#00a600" class="B"/><g clip-path="url(#C)"><path d="M236.973 60.379l-32.916 28.134h32.916V60.379z" class="B E"/><path d="M206.318 83.018l29.48-24.077 2.331 2.854-29.48 24.077z" class="H"/><g class="B"><g class="F"><path d="M219.767 86.376h3.687V80.18c0-1.017-.826-1.842-1.844-1.842s-1.844.825-1.844 1.842v6.196zm7.374.273h3.687V74.422a1.84 1.84 0 0 0-1.842-1.84h-.004a1.84 1.84 0 0 0-1.842 1.84v12.227z"/></g><g class="E"><path d="M207.476 74.459V70.97h5.628c.463 0 .907.184 1.235.512a1.74 1.74 0 0 1 .511 1.232h0c0 .464-.184.906-.511 1.234s-.772.51-1.235.51h-5.628zm0-7.173v-3.684h11.063a1.84 1.84 0 0 1 1.842 1.84v.004a1.84 1.84 0 0 1-1.842 1.84h-11.063z"/></g></g></g><path d="M236.973 70.093a14.69 14.69 0 0 0 4.306 10.389 14.71 14.71 0 0 0 10.399 4.303h14.791v-9.713a14.69 14.69 0 0 0-4.306-10.391 14.72 14.72 0 0 0-10.399-4.303h-14.791v9.715z" fill="#00a600" class="B"/><g clip-path="url(#D)"><path d="M236.973 60.379l32.916 28.134h-32.916V60.379z" class="B E"/><path d="M235.807 61.805l2.329-2.856 29.497 24.056-2.329 2.856z" class="H"/><g class="B"><g class="F"><path d="M254.179 86.376h-3.687V80.18c0-1.017.826-1.842 1.844-1.842s1.844.825 1.844 1.842v6.196zm-7.374.273h-3.687V74.424a1.84 1.84 0 0 1 .54-1.302 1.85 1.85 0 0 1 1.303-.54c.488 0 .959.195 1.303.54s.54.814.54 1.302v12.225z"/></g><g class="E"><path d="M266.469 74.654V70.97h-5.532c-.489 0-.957.193-1.302.54a1.83 1.83 0 0 0-.54 1.3v.004a1.84 1.84 0 0 0 .54 1.302c.345.344.813.538 1.302.538h5.532zm0-7.368v-3.684h-11.061a1.84 1.84 0 0 0-1.303.54c-.347.346-.54.814-.54 1.302s.194.958.54 1.302a1.84 1.84 0 0 0 1.303.54h11.061z"/></g></g></g><path d="M236.965 84.785l8.834-6.433c4.88-3.553 5.431-10.62 1.162-14.886l-3.09-3.088H230.06l-3.09 3.088c-4.269 4.266-3.718 11.333 1.162 14.886l8.834 6.433z" class="B H"/><g clip-path="url(#E)"><path d="M236.965 85.692h-13.938V59.261h13.938z" class="E"/><path d="M235.128 57.718h3.687v32.128h-3.687z" fill="#26c21a"/><use href="#I" class="E"/><use href="#J" class="F"/><path d="M250.045 82.236c.6 0 1.191-.293 1.543-.831a1.84 1.84 0 0 0-.53-2.551l-7.494-4.912c-.852-.561-1.995-.319-2.552.529a1.84 1.84 0 0 0 .53 2.551l7.494 4.912a1.83 1.83 0 0 0 1.008.302z" class="E"/><path d="M223.902 82.236a1.83 1.83 0 0 0 1.008-.302l7.492-4.912a1.84 1.84 0 1 0-2.022-3.08l-7.492 4.912a1.84 1.84 0 0 0-.53 2.551c.353.538.943.831 1.543.831z" class="F"/></g><path d="M227.022 93.995c1.981 0 3.602 1.62 3.602 3.599 0-1.98 1.621-3.599 3.602-3.599s3.602 1.62 3.602 3.599c0-1.98 1.621-3.599 3.602-3.599s3.602 1.62 3.602 3.599c0-1.98 1.621-3.599 3.602-3.599s3.602 1.62 3.602 3.599l-3.256 2.847-8.377.897-12.006-.593-5.179-3.152c0-1.98 1.621-3.599 3.602-3.599z" fill="#00b465" class="B"/><path d="M1339.395 587.21l-134.432-134.432c-13.357-13.358-31.117-20.715-50.008-20.715h-39.534c-2.887 0-5.693-1.188-7.701-3.262L986.731 303.93c-13.245-13.67-31.759-21.51-50.793-21.51h-32.536-.344c-8.957.043-13.534-10.687-7.2-17.021l9.21-9.21c16.369-16.368 25.384-38.132 25.384-61.282v-15.059c0-23.149-9.015-44.913-25.384-61.281L854.57 68.069C838.2 51.7 816.436 42.685 793.289 42.685h-17.048c-23.447 0-46.172 8.992-62.683 25.641-16.388 16.525-25.311 38.443-25.125 61.717a26.83 26.83 0 0 1-7.81 19.069L639.635 190.1c-16.457 16.457-26.154 38.677-26.19 61.95-.036 23.201 8.982 45.019 25.384 61.42l17.518 17.518c16.253 16.254 38.298 25.385 61.284 25.385h51.356c10.181 0 20.092-1.746 29.395-5.095 7.321-2.635 14.659 3.584 13.261 11.238-.764 4.186-1.155 8.471-1.155 12.817 0 18.891 7.356 36.65 20.715 50.008l132.423 132.425c13.359 13.356 31.119 20.713 50.008 20.713h57.773a10.65 10.65 0 0 1 7.582 3.14l105.604 105.604c13.357 13.358 31.118 20.715 50.009 20.715h53.769c38.905 0 71.293-30.992 71.736-69.894.218-19.201-7.158-37.287-20.71-50.837z" fill="#3ee1de"/><path d="M883.854 139.782l-50.497-50.497c-10.627-10.627-25.04-16.597-40.069-16.597h-18.193c-31.473 0-56.915 25.647-56.664 57.118h0c.121 15.186-5.858 29.784-16.595 40.521L690.663 181.5l32.193 32.192c16.296 16.295 42.716 16.295 59.012 0h0c16.296-16.295 42.716-16.295 59.012 0l32.131 32.131 10.846-10.846c10.627-10.627 16.597-25.04 16.597-40.069v-15.059c0-15.029-5.97-29.442-16.597-40.069z" fill="#fff5c3"/><path d="M833.578 116.532c0-5.401-4.385-9.785-9.785-9.785h-59.698c-5.4 0-9.785 4.384-9.785 9.785s4.385 9.785 9.785 9.785h59.698a9.79 9.79 0 0 0 9.785-9.785z" fill="#fce26c"/><path d="M754.824 77.337c.06-.02.063-.014.122-.032.127-.027.21-.006.355.002.457.058.923.379 1.275.866.113.072.173.176.232.279l.093.161 20.848 36.109-3.035-.011-20.085-34.786-.093-.161c-.09-.156-.183-.316-.217-.495-.211-.614-.2-1.203.07-1.589.079-.108.115-.167.218-.234l.106-.061c.056-.025.059-.019.11-.049z" fill="#fff"/><path d="M783.003 80.249a23.11 23.11 0 0 0-31.568-8.459c-11.054 6.383-14.84 20.514-8.459 31.57l40.027-23.111z" fill="#5790f4"/><path d="M786.739 110.471h32.428v12.181h-32.428z" fill="#13cca1"/><path d="M802.749 97.865a1.61 1.61 0 0 0-1.134.471 1.59 1.59 0 0 0-.452.964h-.009v.091c-.001.027-.008.052-.008.079v1.647h.008v2.867h3.603v-2.867h6.395v2.867h3.603v-2.875c.447-.019.868-.197 1.183-.513a1.78 1.78 0 0 0 .522-1.26v-1.472h-13.711z" fill="#061c1c"/><g fill="#844885"><path d="M805.822 106.685h4.324v4.684h-4.324zm-.75 3.099h-1.345a1.53 1.53 0 0 0-1.52 1.355l-.956 8.409h-1.604v1.084h4.066v-.006h.127l1.232-10.842z"/></g><g fill="#a159a2"><path d="M816.981 112.501c.374 0 .727-.179.943-.483a1.16 1.16 0 0 0 .168-1.046l-2.488-7.714-2.803.027 2.26 6.505h-5.15v2.711h7.069z"/><path d="M811.946 101.113h-7.872c-1.023 0-1.855.831-1.855 1.855v.068h0a1.86 1.86 0 0 0 0 3.724c.051.986.859 1.775 1.855 1.775h7.872c1.023 0 1.855-.831 1.855-1.855v-3.71c0-1.024-.832-1.855-1.855-1.855z"/></g><path d="M813.625 109.794h-2.166l-6.898-.005h-.83a1.53 1.53 0 0 0-1.52 1.358l-.277 2.437h2.338l-.496 6.52a1.24 1.24 0 0 0 1.241 1.34h5.987a1.24 1.24 0 0 0 .913-.4c.235-.253.355-.595.327-.94l-.574-7.55h1.956v-2.76z" fill="#f29300"/><path d="M814.32 118.049l-.149-.257a1.48 1.48 0 0 0-2.018-.542l-6.231 3.597v-5.376a1.48 1.48 0 0 0-1.478-1.478h-.297c-.392 0-.768.156-1.045.434s-.433.654-.433 1.044v6.996a1.65 1.65 0 0 0-1.58 1.646v.244h4.756v1.422h.244a1.65 1.65 0 0 0 1.654-1.655v-.572l6.036-3.485a1.48 1.48 0 0 0 .54-2.018z" fill="#a159a2"/><g fill="#061c1c"><path d="M806.197 103.669c0-.177-.14-.317-.314-.317h-.631c-.176 0-.317.14-.317.317v2.068c0 .177.141.317.317.317h.631c.173 0 .314-.14.314-.317v-2.068zm5.587 0c0-.177-.141-.317-.314-.317h-.631c-.176 0-.317.14-.317.317v2.068c0 .177.141.317.317.317h.631c.173 0 .314-.14.314-.317v-2.068z"/></g></g></svg>