<svg xmlns="http://www.w3.org/2000/svg" width="1500" height="145" xmlns:v="https://vecta.io/nano"><style><![CDATA[.B{fill-rule:evenodd}.C{fill:#009238}.D{fill:none}.E{clip-rule:evenodd}.F{fill:#007b62}.G{fill:#00b500}.H{fill:#00a600}.I{stroke-linejoin:round}.J{fill:#00b465}.K{stroke-linecap:round}.L{opacity:.5}.M{opacity:.188}.N{fill:#bd7f46}.O{fill:#6a6862}.P{opacity:.25}.Q{fill:#26c21a}.R{stroke:#00b465}.S{stroke-width:10.904}.T{fill:#87dfee}.U{stroke-dasharray:0 10.904}.V{fill:#5652a2}.W{stroke:#4a4890}.X{fill:#d2f4fd}.Y{stroke-width:1.748}.Z{stroke-width:3.495}]]></style><defs><clipPath id="A"><path d="M0 0h1500v145H0z" class="D"/></clipPath><clipPath id="B"><path d="M236.991 22.051h10.807l2.929 26.724c.162 1.481-.999 2.775-2.49 2.775h-11.738c-1.493 0-2.655-1.297-2.489-2.78l2.981-26.719z" class="D"/></clipPath><clipPath id="C"><path d="M242.367 21.202a14.69 14.69 0 0 1-4.306 10.389 14.71 14.71 0 0 1-10.399 4.303h-14.791v-9.713a14.69 14.69 0 0 1 4.306-10.391 14.72 14.72 0 0 1 10.399-4.303h14.791v9.715z" class="D E"/></clipPath><clipPath id="D"><path d="M242.367 21.202a14.69 14.69 0 0 0 4.306 10.389 14.71 14.71 0 0 0 10.399 4.303h14.791v-9.713a14.69 14.69 0 0 0-4.306-10.391 14.72 14.72 0 0 0-10.399-4.303h-14.791v9.715z" class="D E"/></clipPath><clipPath id="E"><path d="M242.359 35.893l8.834-6.433c4.88-3.553 5.431-10.62 1.162-14.886l-3.09-3.088h-13.811l-3.09 3.088c-4.269 4.266-3.718 11.333 1.162 14.886l8.834 6.433z" class="D E"/></clipPath><clipPath id="F"><path d="M685.285 89.647h10.807l2.929 26.724c.162 1.481-.999 2.775-2.49 2.775h-11.738c-1.493 0-2.655-1.297-2.489-2.78l2.981-26.719z" class="D"/></clipPath><clipPath id="G"><path d="M690.662 88.798a14.69 14.69 0 0 1-4.306 10.389 14.71 14.71 0 0 1-10.399 4.303h-14.791v-9.713a14.69 14.69 0 0 1 4.306-10.391 14.72 14.72 0 0 1 10.399-4.303h14.791v9.715z" class="D E"/></clipPath><clipPath id="H"><path d="M690.662 88.798a14.69 14.69 0 0 0 4.306 10.389 14.71 14.71 0 0 0 10.399 4.303h14.791v-9.713a14.69 14.69 0 0 0-4.306-10.391 14.72 14.72 0 0 0-10.399-4.303h-14.791v9.715z" class="D E"/></clipPath><clipPath id="I"><path d="M690.653 103.489l8.834-6.433c4.88-3.553 5.431-10.62 1.162-14.886l-3.09-3.088h-13.811l-3.09 3.088c-4.269 4.266-3.718 11.333 1.162 14.886l8.834 6.433z" class="D E"/></clipPath><clipPath id="J"><path d="M811.571 47.397h10.807l2.929 26.724c.162 1.481-.999 2.775-2.49 2.775h-11.738c-1.493 0-2.655-1.297-2.489-2.78l2.981-26.719z" class="D"/></clipPath><clipPath id="K"><path d="M816.948 46.548a14.69 14.69 0 0 1-4.306 10.389 14.71 14.71 0 0 1-10.399 4.303h-14.791v-9.713a14.69 14.69 0 0 1 4.306-10.391 14.72 14.72 0 0 1 10.399-4.303h14.791v9.715z" class="D E"/></clipPath><clipPath id="L"><path d="M816.948 46.548a14.69 14.69 0 0 0 4.306 10.389c2.757 2.756 6.498 4.303 10.399 4.303h14.791v-9.713a14.69 14.69 0 0 0-4.306-10.391 14.72 14.72 0 0 0-10.399-4.303h-14.791v9.715z" class="D E"/></clipPath><clipPath id="M"><path d="M816.939 61.239l8.834-6.433c4.88-3.553 5.431-10.62 1.162-14.886l-3.09-3.088h-13.811l-3.09 3.088c-4.269 4.266-3.718 11.333 1.162 14.886l8.834 6.433z" class="D E"/></clipPath><clipPath id="N"><path d="M782.345 97.673h10.807l2.929 26.724c.162 1.481-.999 2.775-2.49 2.775h-11.738c-1.493 0-2.655-1.297-2.489-2.78l2.981-26.719z" class="D"/></clipPath><clipPath id="O"><path d="M787.722 96.823a14.69 14.69 0 0 1-4.306 10.389 14.71 14.71 0 0 1-10.399 4.303h-14.791v-9.713a14.69 14.69 0 0 1 4.306-10.391 14.72 14.72 0 0 1 10.399-4.303h14.791v9.715z" class="D E"/></clipPath><clipPath id="P"><path d="M787.722 96.823a14.69 14.69 0 0 0 4.306 10.389 14.71 14.71 0 0 0 10.399 4.303h14.791v-9.713a14.69 14.69 0 0 0-4.306-10.391 14.72 14.72 0 0 0-10.399-4.303h-14.791v9.715z" class="D E"/></clipPath><clipPath id="Q"><path d="M787.714 111.515l8.834-6.433c4.88-3.553 5.431-10.62 1.162-14.886l-3.09-3.088h-13.811l-3.09 3.088c-4.269 4.266-3.718 11.333 1.162 14.886l8.834 6.433z" class="D E"/></clipPath><clipPath id="R"><path d="M970.907,128.508c-10.569,0-19.137,6.599-19.137,14.739s8.568,14.739,19.136,14.739,19.137-6.599,19.137-14.739-8.568-14.739-19.136-14.739Z" class="D E"/></clipPath><clipPath id="S"><path d="M964.348 141.413h13.82v14.903h-13.82z" class="D"/></clipPath><clipPath id="T"><path d="M964.343 132.343v23.044l13.829-.256v-22.788h-13.829z" class="D E"/></clipPath><clipPath id="U"><path d="M970.907,116.493c-9.941,0-18,5.74-18,12.821s8.059,12.821,17.999,12.821,18-5.74,18-12.821-8.059-12.821-17.999-12.821Z" class="D E"/></clipPath><clipPath id="V"><path d="M1012.03,153.437c-9.941,0-18,5.74-18,12.821s8.059,12.821,17.999,12.821,18-5.74,18-12.821-8.059-12.821-17.999-12.821Z" class="D E"/></clipPath><path id="W" d="M236.991 22.051h10.807l2.929 26.724c.162 1.481-.999 2.775-2.49 2.775h-11.738c-1.493 0-2.655-1.297-2.489-2.78l2.981-26.719z"/><path id="X" d="M242.359 41.369l8.834-6.433c4.88-3.553 5.431-10.62 1.162-14.886l-3.09-3.088h-13.811l-3.09 3.088c-4.269 4.266-3.718 11.333 1.162 14.886l8.834 6.433z"/><path id="Y" d="M242.367 21.202a14.69 14.69 0 0 1-4.306 10.389 14.71 14.71 0 0 1-10.399 4.303h-14.791v-9.713a14.69 14.69 0 0 1 4.306-10.391 14.72 14.72 0 0 1 10.399-4.303h14.791v9.715z"/><path id="Z" d="M211.713 34.126l29.48-24.077 2.331 2.854-29.48 24.077z"/><path id="a" d="M225.161 37.485h3.687v-6.196c0-1.017-.826-1.842-1.844-1.842s-1.844.825-1.844 1.842v6.196z"/><path id="b" d="M212.871 25.567v-3.489h5.628c.463 0 .907.184 1.235.512s.511.77.511 1.232h0c0 .464-.184.906-.511 1.234s-.772.51-1.235.51h-5.628z"/><path id="c" d="M212.871 18.395v-3.684h11.063a1.84 1.84 0 0 1 1.842 1.84v.004a1.84 1.84 0 0 1-1.842 1.84h-11.063z"/><path id="d" d="M242.367 21.202a14.69 14.69 0 0 0 4.306 10.389 14.71 14.71 0 0 0 10.399 4.303h14.791v-9.713a14.69 14.69 0 0 0-4.306-10.391 14.72 14.72 0 0 0-10.399-4.303h-14.791v9.715z"/><path id="e" d="M241.202 12.915l2.329-2.856 29.497 24.056-2.329 2.856z"/><path id="f" d="M271.864 25.763v-3.684h-5.532c-.489 0-.957.193-1.302.54a1.83 1.83 0 0 0-.54 1.3v.004a1.84 1.84 0 0 0 .54 1.302c.345.344.813.538 1.302.538h5.532z"/><path id="g" d="M271.864 18.395v-3.684h-11.061a1.84 1.84 0 0 0-1.303.54c-.347.346-.54.814-.54 1.302s.194.958.54 1.302a1.84 1.84 0 0 0 1.303.54h11.061z"/><path id="h" d="M240.523 8.827h3.687v32.128h-3.687z"/><path id="i" d="M255.439 24.945c.6 0 1.191-.293 1.543-.831a1.84 1.84 0 0 0-.53-2.551l-7.494-4.912c-.852-.561-1.995-.319-2.552.529a1.84 1.84 0 0 0 .53 2.551l7.494 4.912a1.83 1.83 0 0 0 1.008.302z"/><path id="j" d="M229.296 24.945a1.83 1.83 0 0 0 1.008-.302l7.492-4.912a1.84 1.84 0 1 0-2.022-3.08l-7.492 4.912a1.84 1.84 0 0 0-.53 2.551c.353.538.943.831 1.543.831z"/><path id="k" d="M692.895 65.447c.925 0 1.674-.748 1.674-1.673v-5.237c0-.925-.75-1.673-1.674-1.673s-1.674.748-1.674 1.673v5.237c0 .925.75 1.673 1.674 1.673z"/><path id="l" d="M699.594 65.447c.925 0 1.674-.748 1.674-1.673v-3.493c0-.925-.75-1.673-1.674-1.673s-1.674.748-1.674 1.673v3.493c0 .925.75 1.673 1.674 1.673z"/><path id="m" d="M803.876 50.291a1.83 1.83 0 0 0 1.008-.302l7.492-4.912a1.84 1.84 0 0 0-2.022-3.08l-7.492 4.912a1.84 1.84 0 0 0-.53 2.551c.353.538.943.831 1.543.831z"/><path id="n" d="M949.871 129.339h42.633"/></defs><g clip-path="url(#A)"><path d="M-80.448-4041.348h1640.647v5223.812H-80.448z" fill="#04d5d8"/><g fill="#3ee1de"><path d="M1180.695 164.621l64.978 64.978c5.552 5.552 13.082 8.671 20.933 8.671h75.181a74.08 74.08 0 0 1 52.384 21.698h0a74.08 74.08 0 0 0 52.384 21.698h121.803a93.13 93.13 0 0 0 65.851-27.276l46.881-46.881c17.465-17.465 27.276-41.152 27.276-65.851h0a93.13 93.13 0 0 0-27.276-65.851l-44.67-44.67c-17.465-17.465-41.152-27.276-65.851-27.276h-186.67a74.08 74.08 0 0 0-52.384 21.698l-79.854 79.854c-5.552 5.552-13.082 8.671-20.933 8.671h-29.098c-16.35 0-29.604 13.254-29.604 29.604h0a29.6 29.6 0 0 0 8.671 20.933zM139.533-58.538l66.701-35.363c7.546-4.001 16.047-6.115 24.584-6.115 11.367 0 22.609 3.773 31.671 10.63l25.516 18.707h14.71c9.633 0 18.689 3.751 25.501 10.563l2.096 2.096c9.183.299 17.772 4.017 24.298 10.544l20.412 21.093.177.187a31.41 31.41 0 0 1 8.417 21.437V.876a31.29 31.29 0 0 1-9.227 22.276l-2.979 2.979c-5.841 5.841-13.456 9.21-21.439 9.487-5.771.2-11.437-1.174-16.402-3.93-4.693 3.068-10.147 4.763-15.6 4.763h-2.832c-6.394 0-12.47-2.057-17.472-5.855.197 13.519-4.882 26.749-14.157 36.659a52.67 52.67 0 0 1-38.315 16.626 57.23 57.23 0 0 1-1.152-.013l-75.01-1.629c-25.763-.559-47.133-19.477-50.814-44.982l-6.05-41.92c-3.157-21.874 7.841-43.525 27.366-53.876z"/></g><g class="J"><path d="M218.87-70.067l-66.701 35.363c-9.518 5.046-14.841 15.526-13.302 26.188l6.05 41.921a25.52 25.52 0 0 0 24.7 21.865l75.009 1.629c14.973.325 27.005-12.255 26.014-27.198h0c-.612-9.233 3.819-18.077 11.588-23.104 10.219-6.613 27.029-24.309 12.498-37.602l-48.465-36.833a25.52 25.52 0 0 0-27.391-2.229z"/><path d="M245.769 63.776h0c-3.721 0-6.782-2.982-6.869-6.724h0v-.239h0c-.101 3.778-3.235 6.768-7.021 6.681h0c-3.793-.08-6.804-3.221-6.717-7.014h0c.08-3.8 3.221-6.811 7.014-6.724h0c3.771.08 6.768 3.177 6.724 6.941h0a6.89 6.89 0 0 1 6.724-6.674h0c2.772-.058 5.197 1.535 6.334 3.873h0c-.34-2.577.803-5.24 3.149-6.724h0c2.352-1.484 5.262-1.361 7.448.072h0c-1.629-2.041-2.012-4.929-.746-7.412h0a6.87 6.87 0 0 1 6.406-3.742h0a6.89 6.89 0 0 1-4.437-6h0c-.246-3.786 2.627-7.057 6.42-7.296h0c.26-.022.514-.022.774-.007h0l-.709-.318h0c-3.38-1.73-4.712-5.87-2.975-9.25h0c1.73-3.38 5.87-4.712 9.25-2.975h0a7.61 7.61 0 0 1 .673.391h0a5.7 5.7 0 0 1-.347-.477h0c-2.099-3.163-1.231-7.434 1.933-9.526h0c2.758-1.831 6.362-1.404 8.628.84h0c-1.947-2.541-1.918-6.182.26-8.693h0c2.005-2.309 5.204-2.953 7.876-1.824h0c-2.179-1.658-3.243-4.531-2.461-7.325h0c.579-2.056 2.034-3.634 3.844-4.437h0c-1.911-.21-3.72-1.216-4.9-2.917h0c-1.679-2.439-1.578-5.574.029-7.861h0a6.88 6.88 0 0 1-8.867.456h0a6.87 6.87 0 0 1-1.317-9.627h0a6.87 6.87 0 0 1-9.627 1.31h0a6.87 6.87 0 0 1-1.317-9.627h0c-2.294 3.018-6.608 3.605-9.634 1.31h0c-3.018-2.294-3.612-6.609-1.31-9.634h0a6.88 6.88 0 0 1-9.634 1.317h0c-2.931-2.229-3.568-6.348-1.513-9.352h0a6.89 6.89 0 0 1-8.802 1.716h0c-2.417-1.383-3.677-4.003-3.445-6.601h0c-1.028 2.396-3.388 4.097-6.174 4.155h0c-1.925.043-3.692-.717-4.966-1.969h0a6.85 6.85 0 0 1-3.373 4.14h0c-3.359 1.781-7.521.499-9.294-2.852h0c1.774 3.352.499 7.514-2.852 9.294h0c-3.359 1.773-7.521.499-9.294-2.859h0a6.87 6.87 0 0 1 2.852-9.287h0c3.351-1.781 7.513-.499 9.294 2.852h0c-1.781-3.351-.499-7.513 2.852-9.294h0c2.714-1.44 5.965-.876 8.042 1.173h0c.818-2.801 3.38-4.879 6.457-4.937h0c3.793-.08 6.934 2.932 7.014 6.724h0a6.86 6.86 0 0 1-.029.775h0c.101-.232.217-.463.347-.695h0c1.882-3.301 6.08-4.444 9.381-2.562h0a6.87 6.87 0 0 1 2.562 9.373h0l-.304.485h0c2.316-2.946 6.572-3.496 9.562-1.224h0a6.87 6.87 0 0 1 1.317 9.627h0c2.295-3.018 6.609-3.612 9.634-1.31h0c3.018 2.294 3.605 6.608 1.31 9.634h0c2.294-3.026 6.608-3.612 9.634-1.318h0c3.018 2.295 3.612 6.609 1.31 9.634h0a6.88 6.88 0 0 1 9.634-1.317h0a6.88 6.88 0 0 1 1.462 9.431h0a7.19 7.19 0 0 1 .803-.651h0c3.12-2.157 7.405-1.382 9.562 1.745h0a6.87 6.87 0 0 1-1.737 9.562h0c-.362.253-.746.463-1.129.637h0c.362.036.724.109 1.093.21h0a6.87 6.87 0 0 1 4.763 8.476h0a6.87 6.87 0 0 1-8.469 4.763h0c-.289-.08-.565-.174-.832-.289h0l.347.282h0c2.866 2.49 3.177 6.825.687 9.699h0a6.87 6.87 0 0 1-9.692.687h0c-.123-.101-.231-.21-.34-.318h0l.282.405h0c2.099 3.163 1.23 7.427-1.933 9.526h0c-2.374 1.571-5.371 1.477-7.6-.007h0a6.87 6.87 0 0 1 .724 7.412h0c-1.267 2.475-3.829 3.851-6.442 3.728h0c2.446.926 4.249 3.214 4.423 5.993h0c.246 3.786-2.628 7.057-6.413 7.296h0l-.738.007h0l.709.318h0c3.38 1.723 4.727 5.863 3.004 9.243h0c-1.723 3.38-5.863 4.726-9.251 3.004h0l-.659-.383h0a5.73 5.73 0 0 1 .442.622h0a6.88 6.88 0 0 1-2.143 9.482h0v-.007h0a6.87 6.87 0 0 1-9.482-2.143h0c-.137-.217-.268-.441-.376-.673h0c.036.253.051.506.058.767h0c.087 3.793-2.924 6.934-6.717 7.021h0l-.159.007zm-27.477-.579h-.159c-3.793-.08-6.804-3.221-6.717-7.021h0c.08-3.793 3.221-6.804 7.021-6.724h0c3.793.087 6.804 3.228 6.717 7.021a6.87 6.87 0 0 1-6.862 6.724zm-13.753-.297h-.145a6.87 6.87 0 0 1-6.724-7.021h0c.08-3.793 3.221-6.804 7.021-6.724h0c3.793.087 6.804 3.228 6.724 7.021a6.88 6.88 0 0 1-6.876 6.724zm-13.738-.296h-.152a6.88 6.88 0 0 1-6.724-7.021h0c.08-3.8 3.228-6.804 7.021-6.724h0a6.88 6.88 0 0 1 6.724 7.021 6.88 6.88 0 0 1-6.869 6.724zm-13.745-.297h0c-.051 0-.101 0-.152-.007h0c-3.742-.08-6.724-3.134-6.724-6.855h0l-.159.738h0c-1.013 3.663-4.799 5.812-8.454 4.806h0c-3.663-1.006-5.813-4.792-4.806-8.454h0l.246-.731h0l-.521.557h0c-2.743 2.627-7.094 2.533-9.721-.21h0c-2.62-2.743-2.526-7.094.217-9.721h0c.188-.181.383-.347.586-.499h0l-.746.21h0c-3.706.847-7.383-1.477-8.23-5.175h0c-.839-3.699 1.477-7.383 5.176-8.23h0l.362-.072h0c-3.721.485-7.144-2.106-7.68-5.834h0c-.543-3.757 2.063-7.245 5.82-7.781h0a6.87 6.87 0 0 1 7.781 5.82h0a6.87 6.87 0 0 1-5.631 7.752h0a6.88 6.88 0 0 1 7.578 5.298h0a6.87 6.87 0 0 1-2.526 6.985h0c2.461-.854 5.306-.268 7.224 1.737h0a6.88 6.88 0 0 1 1.419 7.311h0a6.88 6.88 0 0 1 7.101-2.215h0c3.04.839 5.045 3.59 5.052 6.601h0c.528-3.337 3.46-5.856 6.934-5.776h0a6.87 6.87 0 0 1 6.724 7.021c-.08 3.742-3.142 6.724-6.869 6.724zm-35.78-47.194h0c-3.358 0-6.297-2.468-6.797-5.892h0a6.87 6.87 0 0 1 5.82-7.781h0c3.764-.543 7.245 2.063 7.788 5.82h0a6.88 6.88 0 0 1-5.82 7.788 7.77 7.77 0 0 1-.992.065zm-1.968-13.6h0a6.87 6.87 0 0 1-6.789-5.892h0c-.543-3.764 2.063-7.246 5.82-7.789h0l.152-.022h0c-.268-.036-.536-.094-.796-.166h0c-3.656-1.021-5.798-4.806-4.784-8.469h0a6.88 6.88 0 0 1 8.462-4.784h0c.253.072.499.159.731.253h0c-.195-.166-.383-.34-.564-.536h0c-2.62-2.743-2.512-7.093.231-9.714h0c2.75-2.62 7.101-2.519 9.721.231h0c.188.195.354.398.514.601h0c-1.687-3.33-.398-7.412 2.917-9.171h0c3.351-1.773 7.513-.499 9.294 2.852h0c1.773 3.359.499 7.521-2.859 9.294h0c-3.018 1.607-6.703.724-8.7-1.918h0c1.325 2.628.847 5.921-1.397 8.056h0c-2.012 1.925-4.886 2.381-7.31 1.404h0c1.998 1.679 2.953 4.43 2.208 7.115h0c-.767 2.75-3.105 4.647-5.776 4.98h0c2.902.456 5.306 2.75 5.747 5.812h0a6.88 6.88 0 0 1-5.827 7.789c-.333.043-.659.072-.992.072zm30.98-38.95h0c-2.461 0-4.842-1.325-6.073-3.656h0a6.86 6.86 0 0 1 2.852-9.287h0c3.351-1.781 7.513-.506 9.294 2.852h0a6.88 6.88 0 0 1-2.859 9.294 6.83 6.83 0 0 1-3.214.796zm12.146-6.435h0c-2.461 0-4.842-1.332-6.073-3.655h0c-1.781-3.359-.499-7.514 2.852-9.294h0c3.351-1.781 7.513-.499 9.294 2.852h0a6.88 6.88 0 0 1-2.859 9.294c-1.021.543-2.128.803-3.214.803zm12.153-6.442h0c-2.468 0-4.85-1.325-6.08-3.656h0c-1.781-3.351-.506-7.513 2.852-9.294h0c3.351-1.774 7.513-.499 9.294 2.852h0c1.773 3.359.499 7.521-2.859 9.294-1.02.543-2.121.804-3.206.804z"/></g><path d="M332.912-8.648l-3.591-3.528c-1.398-1.373-1.418-3.619-.044-5.016l.558-.568a3.55 3.55 0 0 0 .119-4.845l-9.204-10.338c-.31-.348-.54-.749-.692-1.176 1.299.515 2.696.784 4.12.771l5.778-.051a10.92 10.92 0 0 1 7.751 3.13l13.244 13.011c.339.333.645.693.935 1.063l7.492 7.928c1.042 1.102 1.628 2.557 1.641 4.074l.054 6.076c.014 1.594-.605 3.128-1.722 4.264L355.87 9.69a6.01 6.01 0 0 1-8.497.075l-2.538-2.493c-1.137-1.117-2.67-1.736-4.264-1.722l-.703.006c-1.665.015-3.283-.621-4.456-1.802-1.469-1.48-2.391-3.416-2.612-5.491a1.99 1.99 0 0 0-.442-1.047 3.53 3.53 0 0 1 .597-.847 3.55 3.55 0 0 0-.044-5.016z" fill="#b46735"/><g fill="#c77b46"><path d="M282.641-21.182l-9.116-8.956c-2.377-2.335-2.432-6.131-.159-8.54l.853-.869 2.795-2.805-.016-.024.971-.988a10.92 10.92 0 0 1 7.695-3.267l15.722-.139a10.92 10.92 0 0 1 7.751 3.13l7.29 7.162c1.05 1.032 2.288 1.827 3.631 2.359.151.427.382.828.692 1.176l9.204 10.337c1.242 1.395 1.19 3.513-.119 4.845l-.558.568a3.55 3.55 0 0 0 .045 5.017l3.591 3.528c1.407 1.383 1.379 3.618.016 5.045a3.56 3.56 0 0 0-.569.818c-.327-.403-.803-.68-1.35-.735l-5.536-.555a2.04 2.04 0 0 0-2.118 1.318L322.014.862a3.27 3.27 0 0 0 .025 2.339l1.099 2.784a3.27 3.27 0 0 1-.493 3.251l-1.767 2.199c-.615.765-1.54 1.214-2.522 1.223l-3.052.027a3.27 3.27 0 0 1-2.322-.938l-2.433-2.39a3.27 3.27 0 0 1-.615-3.834l2.288-4.437c.38-.737-.16-1.614-.989-1.607-.954.008-1.467-1.118-.834-1.832 1.099-1.24.335-3.203-1.313-3.368-4.913-.494-10.293.322-15.876-.239-4.921-.495-8.697-5.974-8.741-10.92h0c-.014-1.619-.671-3.167-1.827-4.302z"/><rect x="305.316" y=".103" width="3.786" height="2.148" rx="1.074" transform="matrix(-1 0 0 -1 614.418 2.353)"/></g><use href="#W" class="N"/><g clip-path="url(#B)" class="B O"><use href="#X" style="mix-blend-mode:multiply" class="P"/></g><use href="#Y" class="B H"/><g clip-path="url(#C)"><path d="M242.367 11.487l-32.916 28.135h32.916V11.487z" class="B C"/><use href="#Z" class="G"/><g class="B"><g class="F"><use href="#a"/><path d="M232.535 37.758h3.687V25.531a1.84 1.84 0 0 0-1.842-1.84h-.004a1.84 1.84 0 0 0-1.842 1.84v12.227z"/></g><g class="C"><use href="#b"/><use href="#c"/></g></g></g><use href="#d" class="B H"/><g clip-path="url(#D)"><path d="M242.367 11.487l32.916 28.135h-32.916V11.487z" class="B C"/><use href="#e" class="G"/><g class="B"><g class="F"><path d="M259.574 37.485h-3.687v-6.196c0-1.017.826-1.842 1.844-1.842s1.844.825 1.844 1.842v6.196zm-7.374.273h-3.687V25.533a1.84 1.84 0 0 1 .54-1.302 1.85 1.85 0 0 1 1.303-.54c.488 0 .959.195 1.303.54s.54.814.54 1.302v12.225z"/></g><g class="C"><use href="#f"/><use href="#g"/></g></g></g><path d="M242.359 35.893l8.834-6.433c4.88-3.553 5.431-10.62 1.162-14.886l-3.09-3.088h-13.811l-3.09 3.088c-4.269 4.266-3.718 11.333 1.162 14.886l8.834 6.433z" class="B G"/><g clip-path="url(#E)"><path d="M242.359 36.801h-13.938V10.37h13.938z" class="C"/><use href="#h" class="Q"/><use href="#i" class="C"/><use href="#j" class="F"/><path d="M255.439 33.344c.6 0 1.191-.293 1.543-.831a1.84 1.84 0 0 0-.53-2.551l-7.494-4.912c-.852-.561-1.995-.319-2.552.529a1.84 1.84 0 0 0 .53 2.551l7.494 4.912a1.83 1.83 0 0 0 1.008.302z" class="C"/><path d="M229.296 33.344a1.83 1.83 0 0 0 1.008-.302l7.492-4.912a1.84 1.84 0 1 0-2.022-3.08l-7.492 4.912a1.84 1.84 0 0 0-.53 2.551c.353.538.943.831 1.543.831z" class="F"/></g><path d="M232.417,45.103c1.981,0,3.602,1.62,3.602,3.599,0-1.98,1.621-3.599,3.602-3.599s3.602,1.62,3.602,3.599c0-1.98,1.621-3.599,3.602-3.599s3.602,1.62,3.602,3.599c0-1.98,1.621-3.599,3.602-3.599s3.602,1.62,3.602,3.599l-3.256,2.847-8.377.897-12.006-.593-5.179-3.152c0-1.98,1.621-3.599,3.602-3.599Z" class="B J"/><path d="M1339.395 442.21l-134.432-134.432c-13.357-13.358-31.117-20.715-50.008-20.715h-39.534c-2.887 0-5.693-1.188-7.701-3.262L986.731 158.93c-13.245-13.67-31.759-21.51-50.793-21.51h-32.536-.344c-8.957.043-13.534-10.687-7.2-17.021l9.21-9.21c16.369-16.368 25.384-38.132 25.384-61.282V34.848c0-23.149-9.015-44.913-25.384-61.281L854.57-76.931c-16.37-16.369-38.134-25.384-61.281-25.384h-17.048c-23.447 0-46.172 8.992-62.683 25.641-16.388 16.525-25.311 38.443-25.125 61.717a26.83 26.83 0 0 1-7.81 19.069L639.635 45.1c-16.457 16.457-26.154 38.677-26.19 61.95-.036 23.201 8.982 45.019 25.384 61.42l17.518 17.518c16.253 16.254 38.298 25.385 61.284 25.385h51.356c10.181 0 20.092-1.746 29.395-5.095 7.321-2.635 14.659 3.584 13.261 11.238-.764 4.186-1.155 8.471-1.155 12.817 0 18.891 7.356 36.65 20.715 50.008l132.423 132.425c13.359 13.356 31.119 20.713 50.008 20.713h57.773a10.65 10.65 0 0 1 7.582 3.14l105.604 105.604c13.357 13.358 31.118 20.715 50.009 20.715h53.769c38.905 0 71.293-30.992 71.736-69.894.218-19.201-7.158-37.287-20.71-50.837z" fill="#3ee1de"/><path d="M883.854-5.218l-50.497-50.497c-10.627-10.627-25.04-16.597-40.069-16.597h-18.193c-31.473 0-56.915 25.647-56.664 57.118h0c.121 15.186-5.858 29.784-16.595 40.521L690.663 36.5l32.193 32.192c16.296 16.295 42.716 16.295 59.012 0h0c16.296-16.295 42.716-16.295 59.012 0l32.131 32.131 10.846-10.846c10.627-10.627 16.597-25.04 16.597-40.069V34.849c0-15.029-5.97-29.442-16.597-40.069z" fill="#fff5c3"/><path d="M781.866,68.693h0c-16.296,16.295-42.716,16.295-59.012,0l-32.193-32.192-30.622,30.622c-22.13,22.129-22.13,58.008,0,80.138l17.519,17.519c10.627,10.627,25.04,16.597,40.069,16.597h51.357c15.029,0,29.442-5.97,40.069-16.597l63.955-63.955-32.131-32.131c-16.296-16.295-42.716-16.295-59.012,0Z" class="J"/><g class="D I K R S"><path d="M690.662 36.5h0"/><path d="M683.044 44.119L660.04 67.122c-22.13 22.129-22.13 58.008 0 80.138l17.519 17.519c10.627 10.627 25.04 16.597 40.069 16.597h51.357c15.029 0 29.442-5.97 40.069-16.597l60.146-60.146" stroke-dasharray="0 10.774"/><path d="M873.009 100.824h0"/><path d="M865.159,92.975l-24.282-24.282c-16.296-16.295-42.716-16.295-59.012,0h0c-16.296,16.295-42.716,16.295-59.012,0l-28.268-28.268" stroke-dasharray="0 11.101"/></g><g fill="#009352"><use href="#k" class="L"/><path d="M686.197,65.447c.925,0,1.674-.748,1.674-1.673v-3.493c0-.925-.75-1.673-1.674-1.673s-1.674.748-1.674,1.673v3.493c0,.925.75,1.673,1.674,1.673Z" class="L"/><use href="#l" class="L"/><path d="M846.444 103.603c.925 0 1.674-.748 1.674-1.673v-5.237c0-.925-.75-1.673-1.674-1.673s-1.674.748-1.674 1.673v5.237c0 .925.75 1.673 1.674 1.673zm-6.699 0c.925 0 1.674-.748 1.674-1.673v-3.493c0-.925-.75-1.673-1.674-1.673s-1.674.748-1.674 1.673v3.493c0 .925.75 1.673 1.674 1.673zm13.397 0c.925 0 1.674-.748 1.674-1.673v-3.493c0-.925-.75-1.673-1.674-1.673s-1.674.748-1.674 1.673v3.493c0 .925.75 1.673 1.674 1.673zm-132.984 24.126c.925 0 1.674-.748 1.674-1.673v-5.237c0-.925-.75-1.673-1.674-1.673s-1.674.748-1.674 1.673v5.237c0 .925.75 1.673 1.674 1.673zm-6.699 0c.925 0 1.674-.748 1.674-1.673v-3.493c0-.925-.75-1.673-1.674-1.673s-1.674.748-1.674 1.673v3.493c0 .925.75 1.673 1.674 1.673zm13.398 0c.925 0 1.674-.748 1.674-1.673v-3.493c0-.925-.75-1.673-1.674-1.673s-1.674.748-1.674 1.673v3.493c0 .925.75 1.673 1.674 1.673z" class="L"/></g><path d="M685.285 89.647h10.807l2.929 26.724c.162 1.481-.999 2.775-2.49 2.775h-11.738c-1.493 0-2.655-1.297-2.489-2.78l2.981-26.719z" class="N"/><g clip-path="url(#F)" class="B O"><path d="M690.653 108.965l8.834-6.433c4.88-3.553 5.431-10.62 1.162-14.886l-3.09-3.088h-13.811l-3.09 3.088c-4.269 4.266-3.718 11.333 1.162 14.886l8.834 6.433z" style="mix-blend-mode:multiply" class="P"/></g><path d="M690.662 88.798a14.69 14.69 0 0 1-4.306 10.389 14.71 14.71 0 0 1-10.399 4.303h-14.791v-9.713a14.69 14.69 0 0 1 4.306-10.391 14.72 14.72 0 0 1 10.399-4.303h14.791v9.715z" class="B H"/><g clip-path="url(#G)"><path d="M690.662 79.083l-32.917 28.135h32.917V79.083z" class="B C"/><path d="M660.005 101.719l29.48-24.077 2.331 2.854-29.48 24.077z" class="G"/><g class="B"><g class="F"><path d="M673.455 105.081h3.687v-6.196c0-1.017-.826-1.842-1.844-1.842s-1.844.825-1.844 1.842v6.196zm7.374.273h3.687V93.127a1.84 1.84 0 0 0-1.842-1.84h-.004a1.84 1.84 0 0 0-1.842 1.84v12.227z"/></g><g class="C"><path d="M661.165 93.163v-3.489h5.628c.463 0 .907.184 1.235.512a1.74 1.74 0 0 1 .511 1.232h0c0 .464-.184.906-.511 1.234s-.772.51-1.235.51h-5.628zm0-7.172v-3.684h11.063a1.84 1.84 0 0 1 1.842 1.84v.004a1.84 1.84 0 0 1-1.842 1.84h-11.063z"/></g></g></g><path d="M690.662 88.798a14.69 14.69 0 0 0 4.306 10.389 14.71 14.71 0 0 0 10.399 4.303h14.791v-9.713a14.69 14.69 0 0 0-4.306-10.391 14.72 14.72 0 0 0-10.399-4.303h-14.791v9.715z" class="B H"/><g clip-path="url(#H)"><path d="M690.662 79.083l32.916 28.135h-32.916V79.083z" class="B C"/><path d="M689.494 80.509l2.329-2.856 29.497 24.056-2.329 2.856z" class="G"/><g class="B"><g class="F"><path d="M707.868 105.081h-3.687v-6.196c0-1.017.826-1.842 1.844-1.842s1.844.825 1.844 1.842v6.196zm-7.374.273h-3.687V93.129a1.84 1.84 0 0 1 .54-1.302 1.85 1.85 0 0 1 1.303-.54 1.84 1.84 0 0 1 1.303.54c.347.346.54.814.54 1.302v12.225z"/></g><g class="C"><path d="M720.158 93.359v-3.684h-5.532c-.489 0-.957.193-1.302.54a1.83 1.83 0 0 0-.54 1.3v.004a1.84 1.84 0 0 0 .54 1.302c.345.344.813.538 1.302.538h5.532zm0-7.368v-3.684h-11.061a1.84 1.84 0 0 0-1.303.54c-.347.346-.54.814-.54 1.302s.194.958.54 1.302a1.84 1.84 0 0 0 1.303.54h11.061z"/></g></g></g><path d="M690.653 103.489l8.834-6.433c4.88-3.553 5.431-10.62 1.162-14.886l-3.09-3.088h-13.811l-3.09 3.088c-4.269 4.266-3.718 11.333 1.162 14.886l8.834 6.433z" class="B G"/><g clip-path="url(#I)"><path d="M690.653 104.397h-13.938V77.966h13.938z" class="C"/><path d="M688.817 76.423h3.687v32.128h-3.687z" class="Q"/><path d="M703.733 92.541c.6 0 1.191-.293 1.543-.831a1.84 1.84 0 0 0-.53-2.551l-7.494-4.912c-.852-.561-1.995-.319-2.552.529a1.84 1.84 0 0 0 .53 2.551l7.494 4.912a1.83 1.83 0 0 0 1.008.302z" class="C"/><path d="M677.59 92.541a1.83 1.83 0 0 0 1.008-.302l7.492-4.912a1.84 1.84 0 1 0-2.022-3.08l-7.492 4.912a1.84 1.84 0 0 0-.53 2.551c.353.538.943.831 1.543.831z" class="F"/><path d="M703.733 100.94c.6 0 1.191-.293 1.543-.831a1.84 1.84 0 0 0-.53-2.551l-7.494-4.912c-.852-.561-1.995-.319-2.552.529a1.84 1.84 0 0 0 .53 2.551l7.494 4.912a1.83 1.83 0 0 0 1.008.302z" class="C"/><path d="M677.59 100.94a1.83 1.83 0 0 0 1.008-.302l7.492-4.912a1.84 1.84 0 1 0-2.022-3.08l-7.492 4.912a1.84 1.84 0 0 0-.53 2.551c.353.538.943.831 1.543.831z" class="F"/></g><path d="M678.841 119.146h23.783" class="I J K R S U"/><path d="M811.571 47.397h10.807l2.929 26.724c.162 1.481-.999 2.775-2.49 2.775h-11.738c-1.493 0-2.655-1.297-2.489-2.78l2.981-26.719z" class="N"/><g clip-path="url(#J)" class="B O"><path d="M816.939 66.714l8.834-6.433c4.88-3.553 5.431-10.62 1.162-14.886l-3.09-3.088h-13.811l-3.09 3.088c-4.269 4.266-3.718 11.333 1.162 14.886l8.834 6.433z" style="mix-blend-mode:multiply" class="P"/></g><path d="M816.948 46.548a14.69 14.69 0 0 1-4.306 10.389 14.71 14.71 0 0 1-10.399 4.303h-14.791v-9.713a14.69 14.69 0 0 1 4.306-10.391 14.72 14.72 0 0 1 10.399-4.303h14.791v9.715z" class="B H"/><g clip-path="url(#K)"><path d="M816.948 36.833l-32.917 28.134h32.917V36.833z" class="B C"/><path d="M786.29 59.467l29.48-24.077 2.331 2.854-29.48 24.077z" class="G"/><g class="B"><g class="F"><path d="M799.741 62.831h3.687v-6.196c0-1.017-.826-1.842-1.844-1.842s-1.844.825-1.844 1.842v6.196zm7.374.272h3.687V50.876a1.84 1.84 0 0 0-1.842-1.84h-.004a1.84 1.84 0 0 0-1.842 1.84v12.227z"/></g><g class="C"><path d="M787.451 50.913v-3.489h5.628c.463 0 .907.184 1.235.512a1.74 1.74 0 0 1 .511 1.232h0c0 .464-.184.906-.511 1.234s-.772.51-1.235.51h-5.628zm0-7.172v-3.684h11.063a1.84 1.84 0 0 1 1.842 1.84v.004a1.84 1.84 0 0 1-1.842 1.84h-11.063z"/></g></g></g><path d="M816.948 46.548a14.69 14.69 0 0 0 4.306 10.389c2.757 2.756 6.498 4.303 10.399 4.303h14.791v-9.713a14.69 14.69 0 0 0-4.306-10.391 14.72 14.72 0 0 0-10.399-4.303h-14.791v9.715z" class="B H"/><g clip-path="url(#L)"><path d="M816.948 36.833l32.916 28.134h-32.916V36.833z" class="B C"/><path d="M815.779 38.259l2.329-2.856 29.497 24.056-2.329 2.856z" class="G"/><g class="B"><g class="F"><path d="M834.154 62.831h-3.687v-6.196c0-1.017.826-1.842 1.844-1.842s1.844.825 1.844 1.842v6.196zm-7.374.272h-3.687V50.878a1.84 1.84 0 0 1 .54-1.302 1.85 1.85 0 0 1 1.303-.54 1.84 1.84 0 0 1 1.303.54c.347.346.54.814.54 1.302v12.225z"/></g><g class="C"><path d="M846.444 51.108v-3.684h-5.532c-.489 0-.957.193-1.302.54a1.83 1.83 0 0 0-.54 1.3v.004a1.84 1.84 0 0 0 .54 1.302c.345.344.813.538 1.302.538h5.532zm0-7.367v-3.684h-11.061a1.84 1.84 0 0 0-1.303.54c-.347.346-.54.814-.54 1.302s.194.958.54 1.302a1.84 1.84 0 0 0 1.303.54h11.061z"/></g></g></g><path d="M816.939 61.239l8.834-6.433c4.88-3.553 5.431-10.62 1.162-14.886l-3.09-3.088h-13.811l-3.09 3.088c-4.269 4.266-3.718 11.333 1.162 14.886l8.834 6.433z" class="B G"/><g clip-path="url(#M)"><path d="M816.939 62.146h-13.938V35.715h13.938z" class="C"/><path d="M815.103 34.173h3.687v32.128h-3.687z" class="Q"/><path d="M830.019 50.291c.6 0 1.191-.293 1.543-.831a1.84 1.84 0 0 0-.53-2.551l-7.494-4.912c-.852-.561-1.995-.319-2.552.529a1.84 1.84 0 0 0 .53 2.551l7.494 4.912a1.83 1.83 0 0 0 1.008.302z" class="C"/><use href="#m" class="F"/><path d="M830.019 58.69c.6 0 1.191-.293 1.543-.831a1.84 1.84 0 0 0-.53-2.551l-7.494-4.912c-.852-.561-1.995-.319-2.552.529a1.84 1.84 0 0 0 .53 2.551l7.494 4.912a1.83 1.83 0 0 0 1.008.302z" class="C"/><path d="M803.876 58.69a1.83 1.83 0 0 0 1.008-.302l7.492-4.912a1.84 1.84 0 0 0-2.022-3.08l-7.492 4.912a1.84 1.84 0 0 0-.53 2.551c.353.538.943.831 1.543.831z" class="F"/></g><path d="M805.127 76.895h23.783" class="I J K R S U"/><path d="M782.345 97.673h10.807l2.929 26.724c.162 1.481-.999 2.775-2.49 2.775h-11.738c-1.493 0-2.655-1.297-2.489-2.78l2.981-26.719z" class="N"/><g clip-path="url(#N)" class="B O"><path d="M787.714 116.99l8.834-6.433c4.88-3.553 5.431-10.62 1.162-14.886l-3.09-3.088h-13.811l-3.09 3.088c-4.269 4.266-3.718 11.333 1.162 14.886l8.834 6.433z" style="mix-blend-mode:multiply" class="P"/></g><path d="M787.722 96.823a14.69 14.69 0 0 1-4.306 10.389 14.71 14.71 0 0 1-10.399 4.303h-14.791v-9.713a14.69 14.69 0 0 1 4.306-10.391 14.72 14.72 0 0 1 10.399-4.303h14.791v9.715z" class="B H"/><g clip-path="url(#O)"><path d="M787.722 87.109l-32.916 28.134h32.916V87.109z" class="B C"/><path d="M757.065 109.743l29.48-24.077 2.331 2.854-29.48 24.077z" class="G"/><g class="B"><g class="F"><path d="M770.516 113.106h3.687v-6.196c0-1.017-.826-1.842-1.844-1.842s-1.844.825-1.844 1.842v6.196zm7.374.273h3.687v-12.227a1.84 1.84 0 0 0-1.842-1.84h-.004a1.84 1.84 0 0 0-1.842 1.84v12.227z"/></g><g class="C"><path d="M758.226 101.189V97.7h5.628c.463 0 .907.184 1.235.512a1.74 1.74 0 0 1 .511 1.232h0c0 .464-.184.906-.511 1.234s-.772.51-1.235.51h-5.628zm0-7.173v-3.684h11.063a1.84 1.84 0 0 1 1.842 1.84v.004a1.84 1.84 0 0 1-1.842 1.84h-11.063z"/></g></g></g><path d="M787.722 96.823a14.69 14.69 0 0 0 4.306 10.389 14.71 14.71 0 0 0 10.399 4.303h14.791v-9.713a14.69 14.69 0 0 0-4.306-10.391 14.72 14.72 0 0 0-10.399-4.303h-14.791v9.715z" class="B H"/><g clip-path="url(#P)"><path d="M787.722 87.109l32.916 28.134h-32.916V87.109z" class="B C"/><path d="M786.554 88.534l2.329-2.856 29.497 24.056-2.329 2.856z" class="G"/><g class="B"><g class="F"><path d="M804.928 113.106h-3.687v-6.196c0-1.017.826-1.842 1.844-1.842s1.844.825 1.844 1.842v6.196zm-7.374.273h-3.687v-12.225a1.84 1.84 0 0 1 .54-1.302 1.85 1.85 0 0 1 1.303-.54 1.84 1.84 0 0 1 1.303.54c.347.346.54.814.54 1.302v12.225z"/></g><g class="C"><path d="M817.218 101.384V97.7h-5.532c-.489 0-.957.193-1.302.54a1.83 1.83 0 0 0-.54 1.3v.004a1.84 1.84 0 0 0 .54 1.302c.345.344.813.538 1.302.538h5.532zm0-7.368v-3.684h-11.061a1.84 1.84 0 0 0-1.303.54c-.347.346-.54.814-.54 1.302s.194.958.54 1.302a1.84 1.84 0 0 0 1.303.54h11.061z"/></g></g></g><path d="M787.714 111.515l8.834-6.433c4.88-3.553 5.431-10.62 1.162-14.886l-3.09-3.088h-13.811l-3.09 3.088c-4.269 4.266-3.718 11.333 1.162 14.886l8.834 6.433z" class="B G"/><g clip-path="url(#Q)"><path d="M787.714 112.422h-13.938V85.991h13.938z" class="C"/><path d="M785.878 84.448h3.687v32.128h-3.687z" class="Q"/><path d="M800.794 100.567c.6 0 1.191-.293 1.543-.831a1.84 1.84 0 0 0-.53-2.551l-7.494-4.912c-.852-.561-1.995-.319-2.552.529a1.84 1.84 0 0 0 .53 2.551l7.494 4.912a1.83 1.83 0 0 0 1.008.302z" class="C"/><path d="M774.651 100.567a1.83 1.83 0 0 0 1.008-.302l7.492-4.912a1.84 1.84 0 1 0-2.022-3.08l-7.492 4.912a1.84 1.84 0 0 0-.53 2.551c.353.538.943.831 1.543.831z" class="F"/><path d="M800.794 108.966c.6 0 1.191-.293 1.543-.831a1.84 1.84 0 0 0-.53-2.551l-7.494-4.912c-.852-.561-1.995-.319-2.552.529a1.84 1.84 0 0 0 .53 2.551l7.494 4.912a1.83 1.83 0 0 0 1.008.302z" class="C"/><path d="M774.651 108.966a1.83 1.83 0 0 0 1.008-.302l7.492-4.912a1.84 1.84 0 1 0-2.022-3.08l-7.492 4.912a1.84 1.84 0 0 0-.53 2.551c.353.538.943.831 1.543.831z" class="F"/></g><path d="M775.902 127.171h23.782" class="I J K R S U"/><path d="M970.907,130.005c-10.569,0-19.137,6.599-19.137,14.739s8.568,14.739,19.136,14.739,19.137-6.599,19.137-14.739-8.568-14.739-19.136-14.739Z" class="B V"/><g clip-path="url(#R)"><path d="M949.59 135.417h42.633v24.197H949.59z" fill="#424186"/><g class="D I W Y"><path style="mix-blend-mode:multiply" d="M949.59 139.31h42.634m-42.634 4.103h42.634" class="M"/></g></g><g class="B"><path d="M970.907,128.971c-9.804,0-17.751,6.121-17.751,13.672s7.947,13.672,17.751,13.672,17.751-6.121,17.751-13.672-7.947-13.672-17.751-13.672Z" class="X"/><path d="M953.156,137.926c0,7.31,7.947,13.237,17.751,13.237s17.751-5.926,17.751-13.236-7.947-13.237-17.751-13.237-17.751,5.926-17.751,13.236Z" class="T"/><path d="M954.952,138.113c0,5.795,7.143,10.492,15.955,10.492s15.955-4.698,15.955-10.492-7.143-10.492-15.955-10.492-15.955,4.698-15.955,10.492Z" fill="#00b4bb" class="L"/></g><g clip-path="url(#S)" class="B T"><path d="M953.156,142.725c0,7.506,7.947,13.59,17.751,13.59s17.751-6.084,17.751-13.59-7.948-13.59-17.751-13.59-17.751,6.084-17.751,13.59Z"/></g><g class="B"><path d="M965.327,135.557v19.765s2.655-1.385,5.931-1.385h0c3.275,0,5.931,1.385,5.931,1.385v-19.765h-11.861Z" fill="#00b4bb" class="L"/><g class="T"><path d="M956.776 144.396l-2.533-3.092v-9.473h2.533v12.565zm30.794-3.092l-2.532 3.092v-12.565h2.532v9.473z"/></g><g class="X"><path d="M954.663 143.717l-1.507-1.25v-14.423h1.507v15.673zm33.995-1.25l-1.507 1.25v-15.673h1.507v14.423z"/></g></g><g class="T"><path d="M963.364 142.906h1.376v7.92h-1.376zm14.435 0h1.376v7.92h-1.376z"/></g><g class="X"><path d="M961.909 140.976h2.552v10.661h-2.552zm16.169 0h2.552v10.661h-2.552z"/></g><path d="M976.497 134.019v19.884c-1.141.315-3.074.738-5.239.738-2.29 0-4.133-.304-5.239-.547v-20.075h10.478m1.675-1.676h-13.829v23.043s2.763.929 6.914.929c3.819 0 6.914-1.185 6.914-1.185v-22.787h0z" fill="#fff"/><path d="M971.257 155.895v-14.959" stroke="#fff" stroke-miterlimit="10" stroke-width="1.675" class="D"/><g opacity=".35" class="B"><g clip-path="url(#T)"><path d="M969.778 156.284h-5.43l8.043-18.663h5.43l-8.043 18.663z" fill="#fff"/></g></g><g class="B"><path d="M970.907,121.364c-9.804,0-17.751,5.234-17.751,11.69s7.947,11.69,17.751,11.69,17.751-5.234,17.751-11.69-7.947-11.69-17.751-11.69Z" style="mix-blend-mode:multiply" fill="#c8deef"/><path d="M970.907,118.055c-9.941,0-18,5.74-18,12.821s8.059,12.821,17.999,12.821,18-5.74,18-12.821-8.059-12.821-17.999-12.821Z" fill="#322d4f"/><path d="M970.907,116.493c-9.941,0-18,5.74-18,12.821s8.059,12.821,17.999,12.821,18-5.74,18-12.821-8.059-12.821-17.999-12.821Z" class="V"/></g><g clip-path="url(#U)"><g class="D I K W"><g class="Z"><path style="mix-blend-mode:multiply" d="M978.199 107.44v44.548m-14.584-44.548v44.548" class="M"/></g><g class="Y"><use href="#n" style="mix-blend-mode:multiply" class="M"/><path style="mix-blend-mode:multiply" d="M949.871 124.064h42.633m-42.633-5.275h42.633m-42.633 16.412h42.633" class="M"/></g></g><path style="mix-blend-mode:multiply" d="M991.564 120.548l-42.254 20.09 40.064 5.037 2.19-25.127z" opacity=".148" class="B V"/></g><g clip-path="url(#V)" class="D I K W Z"><path style="mix-blend-mode:multiply" d="M1019.323 144.383v44.548m-14.585-44.548v44.548" class="M"/></g><path d="M740.284 29.912a2.77 2.77 0 0 1-2.761 2.634h-4.621v11.709h36.723V29.912h-29.341z" fill="#13cca1"/><path d="M740.284,29.912c.002-.048.014-.093.014-.141,0-1.532-1.244-2.775-2.775-2.775h-12.916c-1.532,0-2.775,1.243-2.775,2.775s1.244,2.775,2.775,2.775h8.295v-2.634h7.382Z" fill="#fce26c"/><path d="M740.284 29.912h-7.382v2.634h4.621a2.77 2.77 0 0 0 2.761-2.634z" fill="#00ba8a"/><path d="M735.523 23.18v-.411c-.042-2.241-1.965-4.053-4.093-4.093-1.842-.011-3.372 1.124-3.953 2.746-.198.556-.24 1.151-.246 1.758h-3.42l2.324 5.812a2.22 2.22 0 0 0 2.061 1.395h6.363c.908 0 1.726-.552 2.061-1.395l2.324-5.812h-3.421zm-6.486-.357c.01-1.809 2.127-2.839 3.518-2.028.846.492 1.074 1.409 1.137 2.385h-4.656v-.357z" fill="#f29300"/><path d="M751.765 24.137h4.66v4.753h-4.66z" fill="#844885"/><path d="M754.656 16.325a2.07 2.07 0 0 0-.608-1.462c-.388-.388-.917-.608-1.465-.608h0a2.07 2.07 0 0 0-2.073 2.07v7.81h4.146v-7.81z" fill="#061c1c"/><path d="M751.122 27.533h-1.377a1.53 1.53 0 0 0-1.52 1.356l-.969 8.524h-1.623v1.097h4.114v-.006h.128l1.247-10.972z" fill="#844885"/><g fill="#a159a2"><path d="M763.195 30.282c.373 0 .724-.181.943-.483s.28-.691.165-1.042l-2.222-6.907c-.181-.549-.691-.916-1.273-.911h-.028c-.428 0-.823.214-1.069.559a1.32 1.32 0 0 0-.165 1.191l1.684 4.849h-5.212v2.743h7.176z"/><path d="M758.078 18.759h-7.966a1.88 1.88 0 0 0-1.877 1.877v.098c-.093-.014-.186-.028-.283-.028-1.04 0-1.884.843-1.884 1.884s.843 1.884 1.884 1.884c.099 0 .194-.015.288-.029.029 1.011.855 1.824 1.872 1.824h7.966a1.88 1.88 0 0 0 1.877-1.877v-3.755a1.88 1.88 0 0 0-1.877-1.877z"/></g><g fill="#061c1c"><path d="M751.952 22.226c0-.183-.145-.328-.324-.328h-.653c-.182 0-.328.145-.328.328v2.14c0 .183.146.328.328.328h.653c.179 0 .324-.146.324-.328v-2.14zm5.963 0c0-.183-.145-.328-.324-.328h-.653c-.182 0-.328.145-.328.328v2.14c0 .183.145.328.328.328h.653c.179 0 .324-.146.324-.328v-2.14zm-.098-4.816h-8.647c-.885 0-1.605.716-1.605 1.605v1.687h8.472a1.77 1.77 0 0 0 1.261-.523c.331-.333.519-.786.519-1.255V17.41z"/><path d="M755.214 17.41h3.921v1.621h-3.921z"/><path d="M757.823 17.41h1.378a1.61 1.61 0 0 1 1.605 1.605v1.687h-1.204c-.982 0-1.778-.794-1.778-1.778V17.41z"/></g><path d="M757.585 27.538h-6.981l-.796 10.453c-.026.346.094.688.328.939s.567.401.914.401h6.089a1.24 1.24 0 0 0 1.242-1.34l-.796-10.453z" fill="#f29300"/><g fill="#a159a2"><path d="M756.426 27.537a2.33 2.33 0 1 1-4.66 0h4.66zm5.091 13.116l-3.633-3.633a1.48 1.48 0 0 0-2.091-.001l-.238.238a1.48 1.48 0 0 0 0 2.091l3.385 3.385-4.004 4.052.005.005-.1.027 1.245 4.645.259-.07c.424-.113.781-.391 1.003-.773a1.65 1.65 0 0 0 .165-1.25l-.194-.723 4.196-4.196c.504-.503.787-1.186.786-1.899a2.68 2.68 0 0 0-.786-1.898zm-9.414 7.992l4.195-4.195c.504-.503.787-1.186.786-1.899s-.281-1.394-.785-1.898l-3.633-3.633a1.48 1.48 0 0 0-2.091-.001l-.237.238a1.48 1.48 0 0 0 0 2.091l3.385 3.385-4.004 4.052.006.005-.099.027 1.245 4.645.259-.07c.424-.113.781-.391 1.003-.773.218-.374.277-.83.165-1.25l-.194-.724z"/></g></g></svg>