<svg xmlns="http://www.w3.org/2000/svg" width="1500" height="145" xmlns:v="https://vecta.io/nano"><style><![CDATA[.B{fill-rule:evenodd}.C{fill:none}.D{stroke-linejoin:round}.E{fill-opacity:.176}.F{stroke-linecap:round}.G{opacity:.5}.H{clip-rule:evenodd}.I{opacity:.3}.J{fill:#2b0b31}.K{fill:#65e1f0}.L{fill:#fff}.M{stroke-width:3.236}.N{fill:#009238}.O{fill:#3ee1de}.P{stroke:#fff}.Q{fill:#5752a6}.R{opacity:.188}.S{fill:#c8f4fd}.T{stroke:#00b465}.U{stroke:#4a4894}.V{stroke-width:1.265}.W{fill:#00b6bc}.X{stroke-miterlimit:10}.Y{fill:#007b62}.Z{fill:#d8d8d8}.a{fill:#342e6a}.b{stroke:#272254}.c{stroke:#2a2458}.d{fill:#b2f4ff}.e{fill:#2a2458}.f{stroke:#342e6a}.g{fill:#272254}.h{fill:#423880}.i{fill:#00b465}.j{stroke-width:10}.k{fill:#009352}.l{fill:#00b500}.m{stroke-width:3.133}.n{stroke-width:1.213}.o{stroke-width:.606}.p{stroke-width:2.53}.q{stroke-width:3.807}]]></style><defs><clipPath id="A"><path d="M0 0h1500v145H0z" class="C"/></clipPath><clipPath id="B"><path d="M913.527 127.447a16.94 16.94 0 0 0-29.338 16.938l29.337-16.938z" class="C"/></clipPath><clipPath id="C"><path d="M873.857,39.923c-7.65,0-13.852,4.776-13.852,10.669s6.202,10.669,13.852,10.669,13.852-4.777,13.852-10.669-6.202-10.669-13.852-10.669Z" class="C H"/></clipPath><clipPath id="D"><path d="M869.109 49.264h10.003v10.787h-10.003z" class="C"/></clipPath><clipPath id="E"><path d="M869.105 42.699v16.68l10.01-.186V42.699h-10.01z" class="C H"/></clipPath><clipPath id="F"><path d="M873.857,31.226c-7.196,0-13.029,4.155-13.029,9.28s5.833,9.28,13.028,9.28,13.029-4.155,13.029-9.28-5.833-9.28-13.028-9.28Z" class="C H"/></clipPath><clipPath id="G"><path d="M840.339,47.008c-7.65,0-13.852,4.776-13.852,10.669s6.202,10.669,13.852,10.669,13.852-4.777,13.852-10.669-6.202-10.669-13.852-10.669Z" class="C H"/></clipPath><clipPath id="H"><path d="M835.591 56.349h10.003v10.787h-10.003z" class="C"/></clipPath><clipPath id="I"><path d="M835.588 49.784v16.68l10.009-.186V49.784h-10.009z" class="C H"/></clipPath><clipPath id="J"><path d="M840.339,38.311c-7.196,0-13.029,4.155-13.029,9.28s5.833,9.28,13.028,9.28,13.029-4.155,13.029-9.28-5.833-9.28-13.028-9.28Z" class="C H"/></clipPath><clipPath id="K"><path d="M822.9 87.205h10.807l2.929 26.724c.162 1.481-.999 2.775-2.49 2.775h-11.738c-1.493 0-2.655-1.297-2.489-2.78l2.981-26.719z" class="C"/></clipPath><clipPath id="L"><path d="M828.277 86.355a14.69 14.69 0 0 1-4.306 10.389 14.71 14.71 0 0 1-10.399 4.303h-14.791v-9.713a14.69 14.69 0 0 1 4.306-10.391 14.72 14.72 0 0 1 10.399-4.303h14.791v9.715z" class="C H"/></clipPath><clipPath id="M"><path d="M828.277 86.355a14.69 14.69 0 0 0 4.306 10.389 14.71 14.71 0 0 0 10.399 4.303h14.791v-9.713a14.69 14.69 0 0 0-4.306-10.391 14.72 14.72 0 0 0-10.399-4.303h-14.791v9.715z" class="C H"/></clipPath><clipPath id="N"><path d="M828.269 101.047l8.834-6.433c4.88-3.553 5.431-10.62 1.162-14.886l-3.09-3.088h-13.811l-3.09 3.088c-4.269 4.266-3.718 11.333 1.162 14.886l8.834 6.433z" class="C H"/></clipPath><clipPath id="O"><path d="M308.359 57.372c-.917-1.53-2.57-2.467-4.353-2.467h-3.815c-1.81 0-3.483.964-4.391 2.53l-10.805 18.633a2.17 2.17 0 0 0 .671 2.89l5.18 3.456h22.907l3.261 3.263a2.83 2.83 0 0 0 3.054.627l7.831-3.135c1.062-.425 1.61-1.603 1.252-2.689l-3.18-9.655c-.877-2.661-3.36-4.459-6.16-4.459h-6.057l-5.393-8.995z" class="C H"/></clipPath><clipPath id="P"><path d="M1131.632 91.368l-14.13-3.294a52.89 52.89 0 0 0-19.686-.821l-12.367 1.814a52.91 52.91 0 0 1-16.624-.202l-7.084-1.216c-7.116-1.221-14.406-.973-21.422.73l-2.262.549a52.9 52.9 0 0 1-20.294.911l-17.93-2.68-3.946 6.897v22.63h135.744V91.369z" class="C H"/></clipPath><clipPath id="Q"><path d="M1000.422 62.394h128.268v20.213h-128.268z" class="C"/></clipPath><clipPath id="R"><path d="M1061.588 76.515c1.091 0 2.064-.682 2.434-1.708l4.195-11.616c.173-.478.626-.797 1.135-.797h23.442c.32 0 .627.127.853.353a1.2 1.2 0 0 1 .353.853v10.973c0 1.072.869 1.942 1.942 1.942h6.462c7.539 0 14.781 2.935 20.193 8.183h0a14.83 14.83 0 0 1 4.505 10.645h0a14.83 14.83 0 0 1-4.505 10.645h0c-5.412 5.248-12.654 8.183-20.193 8.183h-47.606a54.96 54.96 0 0 1-17.984-3.026l-32.036-11.095v-9.414l32.036-11.095a54.96 54.96 0 0 1 17.984-3.026h6.79z" class="C H"/></clipPath><clipPath id="S"><path d="M1061.588 76.515c1.091 0 2.064-.682 2.434-1.708l4.195-11.616c.173-.478.626-.797 1.135-.797h23.442c.32 0 .627.127.853.353a1.2 1.2 0 0 1 .353.853v10.973c0 1.072.869 1.942 1.942 1.942h6.462c7.539 0 14.781 2.935 20.193 8.183h0a14.83 14.83 0 0 1 4.505 10.645h0a14.83 14.83 0 0 1-4.505 10.645h0c-5.412 5.248-12.654 8.183-20.193 8.183h-47.606a54.96 54.96 0 0 1-17.984-3.026l-32.036-11.095v-9.414l32.036-11.095a54.96 54.96 0 0 1 17.984-3.026h6.79z" class="C H"/></clipPath><clipPath id="T"><path d="M1131.632 91.368l-14.13-3.294a52.89 52.89 0 0 0-19.686-.821l-12.367 1.814a52.91 52.91 0 0 1-16.624-.202l-7.084-1.216c-7.116-1.221-14.406-.973-21.422.73l-2.262.549a52.9 52.9 0 0 1-20.294.911l-17.93-2.68-3.946 6.897V57.02h135.744v34.349z" class="C H"/></clipPath><clipPath id="U"><path d="M1000.422 62.394h128.268v20.213h-128.268z" class="C"/></clipPath><clipPath id="V"><path d="M1061.588 76.515c1.091 0 2.064-.682 2.434-1.708l4.195-11.616c.173-.478.626-.797 1.135-.797h23.442c.32 0 .627.127.853.353a1.2 1.2 0 0 1 .353.853v10.973c0 1.072.869 1.942 1.942 1.942h6.462c7.539 0 14.781 2.935 20.193 8.183h0a14.83 14.83 0 0 1 4.505 10.645h0a14.83 14.83 0 0 1-4.505 10.645h0c-5.412 5.248-12.654 8.183-20.193 8.183h-47.606a54.96 54.96 0 0 1-17.984-3.026l-32.036-11.095v-9.414l32.036-11.095a54.96 54.96 0 0 1 17.984-3.026h6.79z" class="C H"/></clipPath><clipPath id="W"><path d="M1061.588 76.515c1.091 0 2.064-.682 2.434-1.708l4.195-11.616c.173-.478.626-.797 1.135-.797h23.442c.32 0 .627.127.853.353a1.2 1.2 0 0 1 .353.853v10.973c0 1.072.869 1.942 1.942 1.942h6.462c7.539 0 14.781 2.935 20.193 8.183h0a14.83 14.83 0 0 1 4.505 10.645h0a14.83 14.83 0 0 1-4.505 10.645h0c-5.412 5.248-12.654 8.183-20.193 8.183h-47.606a54.96 54.96 0 0 1-17.984-3.026l-32.036-11.095v-9.414l32.036-11.095a54.96 54.96 0 0 1 17.984-3.026h6.79z" class="C H"/></clipPath><path id="X" d="M907.149 95.688c-1.007 0-1.824-.815-1.824-1.822v-5.705c0-1.007.817-1.822 1.824-1.822s1.824.815 1.824 1.822v5.705c0 1.007-.817 1.822-1.824 1.822z"/><path id="Y" d="M899.852 95.688c-1.007 0-1.824-.815-1.824-1.822v-3.805c0-1.007.817-1.822 1.824-1.822s1.824.815 1.824 1.822v3.805c0 1.007-.817 1.822-1.824 1.822z"/><path id="Z" d="M925.888,139.84c0-.104-.083-.187-.185-.187h-.372c-.104,0-.187.083-.187.187v1.22c0,.104.083.187.187.187h.372c.102,0,.185-.083.185-.187v-1.22Z"/><path id="a" d="M863.628 55.228h1.692v8.207h-1.692z"/><path id="b" d="M868.397 50.345h.996v5.733h-.996z"/><path id="c" d="M867.343 48.948h1.847v7.717h-1.847z"/><path id="d" d="M888.809 34.161l-30.585 14.542 29 3.646 1.585-18.188z"/><path id="e" d="M828.269 106.522l8.834-6.433c4.88-3.553 5.431-10.62 1.162-14.886l-3.09-3.088h-13.811l-3.09 3.088c-4.269 4.266-3.718 11.333 1.162 14.886l8.834 6.433z"/><path id="f" d="M841.349 90.099c.6 0 1.191-.293 1.543-.831a1.84 1.84 0 0 0-.53-2.551l-7.494-4.912c-.852-.561-1.995-.319-2.552.529a1.84 1.84 0 0 0 .53 2.551l7.494 4.912a1.83 1.83 0 0 0 1.008.302z"/><path id="g" d="M815.206 90.099a1.83 1.83 0 0 0 1.008-.302l7.492-4.912a1.84 1.84 0 1 0-2.022-3.08l-7.492 4.912a1.84 1.84 0 0 0-.53 2.551c.353.538.943.831 1.543.831z"/><path id="h" d="M1018.083 99.105c-1.484 4.54-5.37 7.563-9.72 7.563h-.35v-9.905h10.836l-.765 2.342z"/><path id="i" d="M1018.083 91.579c-1.484-4.54-5.37-7.563-9.72-7.563h-.35v9.905h10.836l-.765-2.342z"/><path id="j" d="M1061.588 76.515c1.091 0 2.064-.682 2.434-1.708l4.195-11.616c.173-.478.626-.797 1.135-.797h23.442c.32 0 .627.127.853.353a1.2 1.2 0 0 1 .353.853v10.973c0 1.072.869 1.942 1.942 1.942h6.462c7.539 0 14.781 2.935 20.193 8.183h0a14.83 14.83 0 0 1 4.505 10.645h0a14.83 14.83 0 0 1-4.505 10.645h0c-5.412 5.248-12.654 8.183-20.193 8.183h-47.606a54.96 54.96 0 0 1-17.984-3.026l-32.036-11.095v-9.414l32.036-11.095a54.96 54.96 0 0 1 17.984-3.026h6.79z"/><path id="k" d="M1096.736 73.165h-35.303"/><path id="l" d="M1046.353 75.548h0c0 3.026 1.202 5.927 3.341 8.066a11.41 11.41 0 0 0 8.066 3.341h42.786c6.335 0 11.471-5.136 11.471-11.471h0"/><path id="m" d="M1094.382,67.056h-9.535c-.908,0-1.644.736-1.644,1.644v.003c0,.908.736,1.644,1.644,1.644h9.535v-3.29Z"/><path id="n" d="M1054.015 116.965h-19.872l26.867-56.868 18.505-.16-25.5 57.028z"/><path id="o" d="M1070.567 116.965h-9.494l26.867-56.868 8.128-.16-25.501 57.028z"/><path id="p" d="M1004.13 114.17h127.502V82.839h-10.476l2.387 2.805c1.296 1.523 2.248 3.306 2.793 5.23l.55 1.942a5.68 5.68 0 0 1 .215 1.55h0c0 3.139-2.545 5.684-5.684 5.684H1004.13v14.121z"/><path id="q" d="M1046.61 117.473h0c0-3.026 1.202-5.927 3.341-8.066a11.41 11.41 0 0 1 8.066-3.341h42.786c6.335 0 11.471 5.136 11.471 11.471h0"/><path id="r" d="M1054.832 79.603h4.414c1.924 0 3.638-1.211 4.274-3.026l3.45-10.028c.173-.478.623-.797 1.132-.797l19.323.009c.32 0 .627.127.853.353a1.2 1.2 0 0 1 .353.853v8.106a4.53 4.53 0 0 0 4.53 4.53h12.112a27.75 27.75 0 0 1 16.115 5.159 13.62 13.62 0 0 1 5.705 10.858l.007-.278a14.83 14.83 0 0 0-4.505-10.645h0c-5.412-5.248-12.654-8.183-20.193-8.183h-6.462c-1.072 0-1.942-.869-1.942-1.942V63.599c0-.32-.127-.627-.353-.853s-.533-.353-.853-.353h-23.442a1.21 1.21 0 0 0-1.135.797l-4.195 11.616c-.37 1.026-1.343 1.708-2.434 1.708h-6.79a54.96 54.96 0 0 0-17.984 3.026l-32.036 11.095v1.985l31.932-10.194c5.859-1.87 11.972-2.823 18.123-2.823z"/><path id="s" d="M1000.397 104.242c0 1.34 1.086 2.427 2.427 2.427h0c.644 0 1.261-.256 1.716-.711s.711-1.072.711-1.716v-6.877h-1.78v2.254a.93.93 0 0 1-.491.818l-1.505.803c-.664.354-1.078 1.045-1.078 1.797v1.206z"/><path id="t" d="M1005.251 92.106h-1.78v5.582a.89.89 0 0 0 .89.89.89.89 0 0 0 .89-.89v-5.582z"/><path id="u" d="M1003.472 92.592h0a2.75 2.75 0 0 0-2.75 2.75v.002a2.75 2.75 0 0 0 2.75 2.75h0v-5.501z"/><path id="v" d="M1000.397 86.443c0-1.34 1.086-2.427 2.427-2.427h0a2.43 2.43 0 0 1 2.427 2.427v5.663h-1.78v-1.099a.83.83 0 0 0-.439-.731l-1.558-.831c-.664-.354-1.078-1.045-1.078-1.797v-1.206z"/><path id="w" d="M1121.552 79.859l2.846-2.541a1.91 1.91 0 0 1 3.084.828h0a1.91 1.91 0 0 1-1.993 2.495l-3.799-.359c-.211-.02-.297-.282-.139-.423z"/><path id="x" d="M1126.199,75.053l1.675-1.496c.642-.573,1.66-.299,1.928.518h0c.268.817-.39,1.641-1.246,1.56l-2.236-.211c-.185-.017-.26-.247-.122-.371Z"/><path id="y" d="M1122.987,76.175l-.068-2.375c-.026-.909.889-1.547,1.733-1.207h0c.844.34,1.062,1.434.413,2.071l-1.695,1.665c-.14.138-.377.042-.383-.154Z"/></defs><g clip-path="url(#A)"><path d="M-80.448-4621.348h1640.647V602.464H-80.448z" fill="#04d5d8"/><g class="O"><path d="M777.251 249.683c-2.656-2.657-5.691-4.901-8.917-6.826l-64.385-38.449c-5.241-3.551-11.783-4.62-17.992-3.383l-33.534 6.678c-7.12 0-11.455-7.839-7.67-13.87l14.891-23.725c4.173-6.648 4.914-14.891 1.995-22.177l-14.293-35.675c-8.47-21.141-28.952-35-51.727-35h0c-21.774 0-41.554 12.683-50.64 32.471l-7.34 15.986c-9.57 20.842-5.394 45.419 10.524 61.929l34.557 35.843a35.54 35.54 0 0 1 7.507 37.626l-15.576 39.775c-8.382 21.405-8.122 45.229.725 66.446l29.35 70.385c14.138 33.903 47.719 55.576 84.436 54.493l29.305-.864c6.153-.181 12.487-1.475 18.718-3.458 39.588-12.596 65.935-49.879 66.197-91.421.036-5.681-.439-10.922-1.554-15.357l-10.01-101.2c-.59-5.969-2.198-11.817-4.969-17.137-2.509-4.818-5.744-9.235-9.599-13.09z"/><path d="M982.885 139.4l-24.742-60.345c-8.027-19.579-26.88-32.23-48.033-32.23-3.07 0-6.163.276-9.191.82l-93.843 16.856c-13.926 2.502-26.38 10.71-34.169 22.523s-10.429 26.494-7.242 40.279l8.992 35.911c2.432 5.958.855 12.745-4.022 16.943-3.904 3.359-6.318 8.4-6.107 13.986.36 9.503 8.471 16.882 17.981 16.882h9.33c7.119 0 13.064-4.282 15.506-10.394 1.572-3.933 5.644-6.239 9.842-5.681 1.979.263 3.95.455 5.489.455a52.15 52.15 0 0 0 8.482-.697l24.138-3.986c9.668-1.597 19.602.623 27.602 6.282 9.113 6.448 21.886 14.021 31.608 14.021h19.63c16.132 0 31.582-7.147 41.535-19.842a51.86 51.86 0 0 0 7.214-51.782z" class="B"/></g><path d="M851.987,128.925l-56.964,26.016c2.257,11.808,13.314,18.276,23.379,16.614l51.454-7.815c9.461-1.562,18.98,2.442,24.479,10.298l2.864,4.092c4.664,6.663,12.285,10.631,20.418,10.631h17.177l-11.429-46.067c-12.587-14.19-53.038-18.606-71.379-13.768Z" fill="#ffe400"/><path d="M962.639 152.056l-24.638-60.092c-5.672-13.834-20.235-21.827-34.951-19.184l-95.942 17.234c-14.024 2.519-23.086 16.262-19.877 30.144l6.956 30.094.02.086c1.04 4.464 5.563 7.188 9.995 6.018l54.303-14.325a50.27 50.27 0 0 1 50.43 15.25l22.684 25.574a10.64 10.64 0 0 0 7.958 3.579h0c17.724 0 29.784-17.979 23.061-34.378z" class="i"/><path d="M962.639 152.056l-24.638-60.092c-5.672-13.834-20.235-21.828-34.951-19.184l-95.942 17.233c-14.024 2.519-23.086 16.262-19.877 30.144l6.956 30.094.02.086c1.04 4.464 5.563 7.188 9.995 6.019l54.303-14.325a50.27 50.27 0 0 1 50.43 15.25l22.684 25.574a10.64 10.64 0 0 0 7.958 3.579c17.724 0 29.784-17.979 23.061-34.378z" stroke-dasharray="0 10.071" class="C D F T j"/><g class="G k"><use href="#X" class="G"/><path d="M914.446,95.688c-1.007,0-1.824-.815-1.824-1.822v-3.805c0-1.007.817-1.822,1.824-1.822s1.824.815,1.824,1.822v3.805c0,1.007-.817,1.822-1.824,1.822Z" class="G"/><use href="#Y" class="G"/></g><g class="G k"><path d="M811.283 144.955c-1.007 0-1.824-.815-1.824-1.822v-5.705c0-1.007.817-1.822 1.824-1.822s1.824.815 1.824 1.822v5.705c0 1.007-.817 1.822-1.824 1.822zm7.297 0c-1.007 0-1.824-.815-1.824-1.822v-3.805c0-1.007.817-1.822 1.824-1.822s1.824.815 1.824 1.822v3.805c0 1.007-.817 1.822-1.824 1.822zm-14.594 0c-1.007 0-1.824-.815-1.824-1.822v-3.805c0-1.007.817-1.822 1.824-1.822s1.824.815 1.824 1.822v3.805c0 1.007-.817 1.822-1.824 1.822z" class="G"/></g><g class="G k"><path d="M922.821 111.103c-1.007 0-1.824-.815-1.824-1.822v-5.705c0-1.007.817-1.822 1.824-1.822s1.824.815 1.824 1.822v5.705c0 1.007-.817 1.822-1.824 1.822zm7.297 0c-1.007 0-1.824-.815-1.824-1.822v-3.805c0-1.007.817-1.822 1.824-1.822s1.824.815 1.824 1.822v3.805c0 1.007-.817 1.822-1.824 1.822zm-14.594 0c-1.007 0-1.824-.815-1.824-1.822v-3.805c0-1.007.817-1.822 1.824-1.822s1.824.815 1.824 1.822v3.805c0 1.007-.817 1.822-1.824 1.822z" class="G"/></g><path d="M892.816 125.332c.045-.014.046-.01.09-.023.093-.02.153-.004.259.002.335.043.678.278.935.634.083.053.128.13.171.205l.068.118 15.279 26.466-2.225-.008-14.719-25.496-.068-.118c-.066-.114-.135-.232-.159-.363-.154-.45-.146-.883.051-1.165.058-.079.085-.122.161-.17l.076-.045c.042-.018.045-.014.081-.037z" fill="#fabe00"/><path d="M913.527 127.447a16.94 16.94 0 0 0-29.338 16.938l29.337-16.938z" fill="#4594f8"/><g clip-path="url(#B)"><path d="M890.515 120.74c8.782 1.345 16.77 7.379 20.386 15.607 2.816 6.407 2.929 14.048.386 20.467-.093.236-.475.419-.789.369a26.58 26.58 0 0 1-6.646-1.98 31.06 31.06 0 0 1-3.034-1.629c-8.163-5.003-13.225-14.531-12.651-24.244l.07-.959c-.034-.254.004-.27.015-.378.262-2.342.823-4.641 1.698-6.85.068-.17.137-.434.563-.405zm.21 1.075a25.86 25.86 0 0 0-1.525 6.389s-.12 1.458-.115 2.788c.033 9.685 5.987 19.099 14.979 23.223 0 0 .715.351 1.289.577a25.84 25.84 0 0 0 5.079 1.407l.06.01c3.538-9.227 1.254-20.413-6.057-27.53a25.89 25.89 0 0 0-13.625-6.916s-.04-.064-.084.053z" fill="#2684f2"/></g><path d="M901.614,144.551c1.539.027,2.91,1.346,2.92,2.951v1.147h-1.064c0-.996.027-2.092-.785-2.679-1.098-.792-2.988-.008-2.998,1.538v1.142h-1.064c0-.738-.065-1.473.172-2.14.414-1.155,1.51-1.966,2.818-1.958Z" fill="#ff8c00"/><path d="M934.028 136.661c.205-.513.142-1.095-.168-1.552s-.826-.732-1.379-.732h-8.575c-1.339 0-2.544.817-3.041 2.061l-1.985 4.97c-.205.513-.142 1.095.168 1.552s.826.732 1.379.732h8.575c1.339 0 2.544-.816 3.041-2.061l1.985-4.97z" fill="#ffc000"/><path d="M925.941,142.311c0-.763-.619-1.382-1.382-1.382h-2.338c-.763,0-1.382.619-1.382,1.382s.618,1.382,1.382,1.382h2.338c.763,0,1.382-.619,1.382-1.382Z" fill="#001d1c"/><path d="M925.516 141.673h2.551v2.87h-2.551z" fill="#ff7600"/><g fill="#ff9000"><path d="M931.038,138.377c0-.763-.619-1.382-1.382-1.382h-5.74c-.762,0-1.382.619-1.382,1.382v2.763c0,.763.619,1.382,1.382,1.382h5.74c.762,0,1.382-.619,1.382-1.382v-2.763Z"/><path d="M921.925,138.748c.69,0,1.249.559,1.249,1.249s-.559,1.249-1.249,1.249-1.249-.559-1.249-1.249.559-1.249,1.249-1.249Z"/></g><g fill="#001d1c"><path d="M925.087 136.996h4.677v1.701h-4.677z"/><use href="#Z"/><path d="M929.768,139.84c0-.104-.083-.187-.185-.187h-.372c-.104,0-.187.083-.187.187v1.22c0,.104.083.187.187.187h.372c.102,0,.185-.083.185-.187v-1.22Z"/></g><path d="M929.444 145.15a1.94 1.94 0 0 0-1.935-1.784h-1.58a1.3 1.3 0 0 0-1.294 1.208l-.401 5.658a2.39 2.39 0 0 0 2.384 2.558h.595a1.74 1.74 0 0 0 1.123-.415l1.581-1.354-.473-5.87z" fill="#4594f8"/><path d="M926.371 145.09c.204-.354.205-.791 0-1.144a1.14 1.14 0 0 0-.991-.572h-.091c-.408-.001-.786.218-.991.572l-4.099 7.099-1.914-.039v1.296l3.909.02 4.176-7.233z" fill="#ff9000"/><g class="C D F P m"><path d="M863.254 63.436h2.066m16.699 0h2.066" opacity=".412"/></g><g fill="#2e2f62"><use href="#a"/><path d="M882.393 55.228h1.692v8.207h-1.692z"/></g><path d="M873.857,41.007c-7.65,0-13.852,4.776-13.852,10.669s6.202,10.669,13.852,10.669,13.852-4.777,13.852-10.669-6.202-10.669-13.852-10.669Z" class="B Q"/><g clip-path="url(#C)"><path d="M858.427 44.924h30.859v17.514h-30.859z" fill="#42418a"/><g class="C D U V"><path style="mix-blend-mode:multiply" d="M858.427 47.742h30.859m-30.859 2.97h30.859m-30.859 2.97h30.859m-30.859 2.97h30.859m-30.859 2.969h30.859" class="R"/></g></g><g class="B"><path d="M873.857,40.259c-7.096,0-12.849,4.43-12.849,9.896s5.753,9.896,12.849,9.896,12.849-4.431,12.849-9.896-5.753-9.896-12.849-9.896Z" class="S"/><path d="M861.008,46.74c0,5.292,5.752,9.581,12.849,9.581s12.849-4.29,12.849-9.581-5.753-9.581-12.849-9.581-12.849,4.29-12.849,9.581Z" class="K"/><path d="M862.308,46.876c0,4.194,5.17,7.595,11.549,7.595s11.549-3.4,11.549-7.594-5.171-7.595-11.549-7.595-11.549,3.4-11.549,7.594Z" class="G W"/></g><g clip-path="url(#D)" class="B K"><path d="M861.008,50.214c0,5.433,5.752,9.837,12.849,9.837s12.849-4.404,12.849-9.837-5.753-9.837-12.849-9.837-12.849,4.404-12.849,9.837Z"/></g><g class="B"><path d="M869.817 45.026v14.306s1.922-1.002 4.293-1.002h0c2.371 0 4.293 1.002 4.293 1.002V45.026h-8.586z" class="G W"/><path d="M869.109,59.353l.709-.384s1.922-1.002,4.293-1.002h0c2.371,0,4.293,1.002,4.293,1.002l.709.224-2.314.139-5.743.226-1.946-.205Z" fill="#807dbd" class="G"/><g class="K"><path d="M863.628 51.423l-1.833-2.238v-6.857h1.833v9.095zm22.29-2.238l-1.833 2.238v-9.095h1.833v6.857z"/></g><g class="S"><path d="M862.099 50.932l-1.091-.905v-10.44h1.091v11.345zm24.606-.905l-1.091.905V39.587h1.091v10.44z"/></g></g><g class="K"><use href="#b"/><path d="M878.845 50.345h.996v5.733h-.996z"/></g><g class="S"><use href="#c"/><path d="M879.047 48.948h1.847v7.717h-1.847z"/></g><path d="M877.902 43.912v14.393c-.826.229-2.225.534-3.792.534-1.657 0-2.992-.221-3.792-.396V43.912h7.585m1.212-1.213h-10.01v16.68s2 .672 5.005.672c2.764 0 5.005-.858 5.005-.858V42.699h0z" class="L"/><path d="M874.11 59.747V48.919" class="C P X n"/><g opacity=".35" class="B L"><g clip-path="url(#E)"><path d="M873.039 60.028h-3.93l5.822-13.509h3.93l-5.822 13.509z"/></g></g><rect x="875.563" y="54.342" width=".35" height=".857" rx=".175" class="C P X o"/><g class="B"><path d="M873.857,34.752c-7.096,0-12.849,3.788-12.849,8.462s5.753,8.462,12.849,8.462,12.849-3.788,12.849-8.462-5.753-8.462-12.849-8.462Z" style="mix-blend-mode:multiply" fill="#c2def0"/><path d="M873.857,32.357c-7.196,0-13.029,4.155-13.029,9.28s5.833,9.28,13.028,9.28,13.029-4.155,13.029-9.28-5.833-9.28-13.028-9.28Z" fill="#332d51"/><path d="M873.857,31.226c-7.196,0-13.029,4.155-13.029,9.28s5.833,9.28,13.028,9.28,13.029-4.155,13.029-9.28-5.833-9.28-13.028-9.28Z" class="Q"/></g><g clip-path="url(#F)"><g class="C D F U"><g class="p"><path style="mix-blend-mode:multiply" d="M879.135 24.673v32.245m-10.557-32.245v32.245" class="R"/></g><g class="V"><path style="mix-blend-mode:multiply" d="M858.63 40.525h30.859m-30.859-3.818h30.859m-30.859-3.818h30.859M858.63 44.768h30.859" class="R"/></g></g><use href="#d" style="mix-blend-mode:multiply" opacity=".148" class="B Q"/></g><g class="C D F P m"><path d="M829.737 70.521h2.065m16.7 0h2.066" opacity=".412"/></g><g fill="#2e2f62"><path d="M830.11 62.313h1.692v8.207h-1.692zm18.766 0h1.692v8.207h-1.692z"/></g><path d="M840.339,48.092c-7.65,0-13.852,4.776-13.852,10.669s6.202,10.669,13.852,10.669,13.852-4.777,13.852-10.669-6.202-10.669-13.852-10.669Z" class="B Q"/><g clip-path="url(#G)"><path d="M824.909 52.009h30.859v17.514h-30.859z" fill="#42418a"/><g class="C D U V"><path style="mix-blend-mode:multiply" d="M824.909 54.827h30.86m-30.86 2.97h30.86m-30.86 2.97h30.86m-30.86 2.97h30.86m-30.86 2.969h30.86" class="R"/></g></g><g class="B"><path d="M840.339,47.344c-7.096,0-12.849,4.43-12.849,9.896s5.753,9.896,12.849,9.896,12.849-4.431,12.849-9.896-5.753-9.896-12.849-9.896Z" class="S"/><path d="M827.49,53.825c0,5.292,5.752,9.581,12.849,9.581s12.849-4.29,12.849-9.581-5.753-9.581-12.849-9.581-12.849,4.29-12.849,9.581Z" class="K"/><path d="M828.791,53.961c0,4.194,5.17,7.595,11.549,7.595s11.549-3.4,11.549-7.594-5.171-7.595-11.549-7.595-11.549,3.4-11.549,7.594Z" class="G W"/></g><g clip-path="url(#H)" class="B K"><path d="M827.49,57.299c0,5.433,5.752,9.837,12.849,9.837s12.849-4.404,12.849-9.837-5.753-9.837-12.849-9.837-12.849,4.404-12.849,9.837Z"/></g><g class="B"><path d="M836.3 52.111v14.306s1.922-1.002 4.293-1.002h0c2.371 0 4.293 1.002 4.293 1.002V52.111H836.3z" class="G W"/><path d="M835.591,66.438l.709-.384s1.922-1.002,4.293-1.002h0c2.371,0,4.293,1.002,4.293,1.002l.709.224-2.314.139-5.743.226-1.946-.205Z" fill="#807dbd" class="G"/><g class="K"><path d="M830.11 58.508l-1.833-2.238v-6.857h1.833v9.095zm22.29-2.238l-1.832 2.238v-9.095h1.832v6.857z"/></g><g class="S"><path d="M828.581 58.017l-1.091-.905v-10.44h1.091v11.345zm24.607-.905l-1.091.905V46.672h1.091v10.44z"/></g></g><g class="K"><path d="M834.879 57.43h.996v5.733h-.996zm10.449 0h.996v5.733h-.996z"/></g><g class="S"><path d="M833.826 56.033h1.847v7.717h-1.847zm11.704 0h1.847v7.717h-1.847z"/></g><path d="M844.385 50.997V65.39c-.826.229-2.225.534-3.792.534-1.657 0-2.992-.221-3.792-.396V50.997h7.585m1.211-1.213h-10.01v16.68s2 .672 5.005.672c2.764 0 5.005-.858 5.005-.858V49.784h0z" class="L"/><path d="M840.593 66.832V56.004" class="C P X n"/><g opacity=".35" class="B L"><g clip-path="url(#I)"><path d="M839.522 67.113h-3.931l5.822-13.509h3.931l-5.822 13.509z"/></g></g><rect x="842.045" y="61.427" width=".35" height=".857" rx=".175" class="C P X o"/><g class="B"><path d="M840.339,41.837c-7.096,0-12.849,3.788-12.849,8.462s5.753,8.462,12.849,8.462,12.849-3.788,12.849-8.462-5.753-8.462-12.849-8.462Z" style="mix-blend-mode:multiply" fill="#c2def0"/><path d="M840.339,39.442c-7.196,0-13.029,4.155-13.029,9.28s5.833,9.28,13.028,9.28,13.029-4.155,13.029-9.28-5.833-9.28-13.028-9.28Z" fill="#332d51"/><path d="M840.339,38.311c-7.196,0-13.029,4.155-13.029,9.28s5.833,9.28,13.028,9.28,13.029-4.155,13.029-9.28-5.833-9.28-13.028-9.28Z" class="Q"/></g><g clip-path="url(#J)"><g class="C D F U"><g class="p"><path style="mix-blend-mode:multiply" d="M845.617 31.758v32.245M835.06 31.758v32.245" class="R"/></g><g class="V"><path style="mix-blend-mode:multiply" d="M825.112 47.61h30.86m-30.86-3.818h30.86m-30.86-3.818h30.86m-30.86 11.879h30.86" class="R"/></g></g><path style="mix-blend-mode:multiply" d="M855.291 41.246l-30.585 14.542 29 3.646 1.585-18.188z" opacity=".148" class="B Q"/></g><path d="M822.9 87.205h10.807l2.929 26.724c.162 1.481-.999 2.775-2.49 2.775h-11.738c-1.493 0-2.655-1.297-2.489-2.78l2.981-26.719z" fill="#bd7f46"/><g clip-path="url(#K)" class="B"><use href="#e" style="mix-blend-mode:multiply" fill="#6a6862" opacity=".25"/></g><path d="M828.277 86.355a14.69 14.69 0 0 1-4.306 10.389 14.71 14.71 0 0 1-10.399 4.303h-14.791v-9.713a14.69 14.69 0 0 1 4.306-10.391 14.72 14.72 0 0 1 10.399-4.303h14.791v9.715z" fill="#00a600" class="B"/><g clip-path="url(#L)"><path d="M828.277 76.641l-32.916 28.134h32.916V76.641z" class="B N"/><path d="M797.62 99.275l29.48-24.077 2.331 2.854-29.48 24.077z" class="l"/><g class="B"><g class="Y"><path d="M811.071 102.638h3.687v-6.196c0-1.017-.826-1.842-1.844-1.842s-1.844.825-1.844 1.842v6.196zm7.374.273h3.687V90.684a1.84 1.84 0 0 0-1.842-1.84h-.004a1.84 1.84 0 0 0-1.842 1.84v12.227z"/></g><g class="N"><path d="M798.781 90.721v-3.489h5.628c.463 0 .907.184 1.235.512a1.74 1.74 0 0 1 .511 1.232h0c0 .464-.184.906-.511 1.234s-.772.51-1.235.51h-5.628zm0-7.173v-3.684h11.063a1.84 1.84 0 0 1 1.842 1.84v.004a1.84 1.84 0 0 1-1.842 1.84h-11.063z"/></g></g></g><path d="M828.277 86.355a14.69 14.69 0 0 0 4.306 10.389 14.71 14.71 0 0 0 10.399 4.303h14.791v-9.713a14.69 14.69 0 0 0-4.306-10.391 14.72 14.72 0 0 0-10.399-4.303h-14.791v9.715z" fill="#00a600" class="B"/><g clip-path="url(#M)"><path d="M828.277 76.641l32.916 28.134h-32.916V76.641z" class="B N"/><path d="M827.109 78.066l2.329-2.856 29.497 24.056-2.329 2.856z" class="l"/><g class="B"><g class="Y"><path d="M845.483 102.638h-3.687v-6.196c0-1.017.826-1.842 1.844-1.842s1.844.825 1.844 1.842v6.196zm-7.374.273h-3.687V90.686a1.84 1.84 0 0 1 .54-1.302 1.85 1.85 0 0 1 1.303-.54c.488 0 .959.195 1.303.54s.54.814.54 1.302v12.225z"/></g><g class="N"><path d="M857.774 90.916v-3.684h-5.532c-.489 0-.957.193-1.302.54a1.83 1.83 0 0 0-.54 1.3v.004a1.84 1.84 0 0 0 .54 1.302c.345.344.813.538 1.302.538h5.532zm0-7.368v-3.684h-11.061a1.84 1.84 0 0 0-1.303.54c-.347.346-.54.814-.54 1.302s.194.958.54 1.302a1.84 1.84 0 0 0 1.303.54h11.061z"/></g></g></g><path d="M828.269 101.047l8.834-6.433c4.88-3.553 5.431-10.62 1.162-14.886l-3.09-3.088h-13.811l-3.09 3.088c-4.269 4.266-3.718 11.333 1.162 14.886l8.834 6.433z" class="B l"/><g clip-path="url(#N)"><path d="M828.269 101.954h-13.938V75.523h13.938z" class="N"/><path d="M826.433 73.98h3.687v32.128h-3.687z" fill="#26c21a"/><use href="#f" class="N"/><use href="#g" class="Y"/><path d="M841.349 98.498c.6 0 1.191-.293 1.543-.831a1.84 1.84 0 0 0-.53-2.551l-7.494-4.912c-.852-.561-1.995-.319-2.552.529a1.84 1.84 0 0 0 .53 2.551l7.494 4.912a1.83 1.83 0 0 0 1.008.302z" class="N"/><path d="M815.206 98.498a1.83 1.83 0 0 0 1.008-.302l7.492-4.912a1.84 1.84 0 1 0-2.022-3.08l-7.492 4.912a1.84 1.84 0 0 0-.53 2.551c.353.538.943.831 1.543.831z" class="Y"/></g><g class="i"><path d="M816.457 116.703h23.782" stroke-dasharray="0 10.904" stroke-width="10.904" class="D F T"/><path d="M591.431 101.593l16.996 1.821a15.64 15.64 0 0 1 13.313 11.056l10.925 36.417a15.64 15.64 0 0 1-2.332 13.692l-8.276 11.38c-2.135 2.935-3.182 6.521-2.962 10.144h0c.545 8.992-6.601 16.584-15.61 16.584h-4.478c-4.922 0-9.557-2.318-12.511-6.255l-27.564-36.752a15.64 15.64 0 0 1-1.177-16.947l18.322-33.154a15.64 15.64 0 0 1 15.353-7.985z"/></g><path d="M591.431 101.593l16.996 1.821a15.64 15.64 0 0 1 13.313 11.056l10.925 36.417a15.64 15.64 0 0 1-2.332 13.692l-8.276 11.379c-2.135 2.936-3.182 6.521-2.962 10.145.545 8.992-6.601 16.584-15.61 16.584h-4.478a15.64 15.64 0 0 1-12.511-6.255l-27.564-36.751a15.64 15.64 0 0 1-1.177-16.947l18.322-33.154a15.64 15.64 0 0 1 15.353-7.985z" stroke-dasharray="0 9.901" class="C D F T j"/><path d="M603.97 132.757l5.398 3.465c2.421 1.554 4.069 4.061 4.535 6.9l.586 3.566c.42 2.556-.152 5.176-1.6 7.324l-.869 1.29a10.16 10.16 0 0 1-12.076 3.801l-3.369-1.299a10.11 10.11 0 0 1-1.94-.999l-7.62-5.027a10.16 10.16 0 0 1-4.543-9.136h0c.266-4.101 2.977-7.637 6.868-8.959l5.875-1.996c2.929-.995 6.152-.602 8.755 1.07z" fill="#00d3d7"/><circle cx="590.477" cy="116.677" r="3.686" fill="#ff9bc1"/><path d="M594.163,116.677c0,2.036-1.65,3.686-3.686,3.686s-3.686-1.65-3.686-3.686,1.65-3.686,3.686-3.686,3.686,1.65,3.686,3.686Z" stroke="#ff9bc1" stroke-dasharray="0 3.854" stroke-width="3.575" class="C D F"/><path d="M215.647 354.974a68.93 68.93 0 0 1-25.498-4.868l-79.677-31.569c-19.867-7.873-35.223-24.841-41.077-45.391l-13.352-46.861c-8.129-28.535 2.806-59.042 27.212-75.914l41.254-28.517c11.623-8.035 25.235-12.282 39.364-12.282 2.722 0 5.473.163 8.177.485l162.465 19.322c27.605 3.284 50.479 22.647 58.274 49.33l12.393 42.422c7.962 27.255-1.305 56.218-23.607 73.79l-6.499 5.12-3.941 9.554c-10.411 25.24-34.774 42.04-62.067 42.802l-91.492 2.552-1.932.027z" class="O"/><path d="M138.675 145.532l-44.301 30.624a35.64 35.64 0 0 0-14.009 39.082l14.338 50.322a35.64 35.64 0 0 0 21.147 23.368l85.561 33.901a35.63 35.63 0 0 0 14.122 2.492l98.249-2.74a35.64 35.64 0 0 0 31.953-22.035l4.538-11c2.333-5.657 6.084-10.617 10.89-14.404l7.608-5.995a35.64 35.64 0 0 0 12.153-37.988l-13.308-45.555a35.64 35.64 0 0 0-30-25.396l-174.465-20.749a35.64 35.64 0 0 0-24.475 6.073z" class="i"/><path d="M138.675 145.532l-44.301 30.625a35.64 35.64 0 0 0-14.009 39.082l14.338 50.323c3.035 10.652 10.85 19.288 21.147 23.367l85.561 33.901a35.65 35.65 0 0 0 14.122 2.493l98.249-2.74a35.64 35.64 0 0 0 31.953-22.035l4.538-11c2.333-5.656 6.084-10.617 10.89-14.404l7.608-5.995a35.64 35.64 0 0 0 12.153-37.988l-13.308-45.556a35.64 35.64 0 0 0-30-25.396l-174.465-20.75a35.64 35.64 0 0 0-24.475 6.073z" stroke-dasharray="0 10.02" class="C D F T j"/><g class="B"><path d="M279.391 77.318c0-3.513 2.85-6.365 6.361-6.365h39.965c3.511 0 6.361 2.852 6.361 6.365v5.609c0 3.513-2.85 6.365-6.361 6.365h-39.965a6.37 6.37 0 0 1-6.361-6.365v-5.609z" class="O"/><path d="M308.359 57.372c-.917-1.53-2.57-2.467-4.353-2.467h-3.815c-1.81 0-3.483.964-4.391 2.53l-10.805 18.633a2.17 2.17 0 0 0 .671 2.89l5.18 3.456h22.907l3.261 3.263a2.83 2.83 0 0 0 3.054.627l7.831-3.135c1.062-.425 1.61-1.603 1.252-2.689l-3.18-9.655c-.877-2.661-3.36-4.459-6.16-4.459h-6.057l-5.393-8.995z" fill="#bababa"/></g><g clip-path="url(#O)" class="Z"><path d="M300.584 52.613h3.43a2.87 2.87 0 0 1 2.865 2.865v2.838a2.87 2.87 0 0 1-2.867 2.867h-3.428a2.87 2.87 0 0 1-2.867-2.867V55.48a2.87 2.87 0 0 1 2.867-2.867zm16.035 11.462h5.721a2.87 2.87 0 0 1 2.865 2.865v1.145a2.87 2.87 0 0 1-2.867 2.867h-5.719a2.87 2.87 0 0 1-2.867-2.867v-1.143a2.87 2.87 0 0 1 2.867-2.867z"/></g><g class="B"><path d="M271.314 102.324a7.28 7.28 0 0 1-5.121-2.124c-1.345-1.343-2.118-3.209-2.118-5.118v-2.413c0-1.932.752-3.75 2.118-5.118a7.28 7.28 0 0 1 5.121-2.124h6.992c1.934 0 3.753.755 5.121 2.124a7.19 7.19 0 0 1 2.119 5.118v2.413a7.28 7.28 0 0 1-2.125 5.123 7.18 7.18 0 0 1-5.115 2.118h-6.992z" class="O"/><path d="M267.938 92.67a3.38 3.38 0 0 1 .989-2.389c.633-.634 1.492-.99 2.387-.99h6.992c.895 0 1.754.356 2.387.99a3.38 3.38 0 0 1 .989 2.389v2.413a3.38 3.38 0 0 1-.989 2.389c-.633.634-1.492.99-2.387.99h-6.992c-.895 0-1.754-.356-2.387-.99a3.38 3.38 0 0 1-.989-2.389V92.67z" class="Z"/><path d="M285.058 58.768a7.25 7.25 0 0 1-7.239-7.242c0-4.112 3.247-7.361 7.239-7.361h2.411a7.25 7.25 0 0 1 7.24 7.242c0 4.112-3.247 7.361-7.24 7.361h-2.411z" class="O"/></g><rect x="281.682" y="48.028" width="9.163" height="6.877" rx="3.379" class="Z"/><path d="M317.128 110.347a7.25 7.25 0 0 1-7.24-7.242c0-4.112 3.247-7.361 7.24-7.361h2.411a7.25 7.25 0 0 1 7.239 7.242c0 4.112-3.247 7.361-7.239 7.361h-2.411z" class="B O"/><rect x="313.752" y="99.607" width="9.163" height="6.877" rx="3.379" class="Z"/><g opacity=".1"><g clip-path="url(#P)"><g clip-path="url(#Q)"><g class="B J"><use href="#h"/><use href="#i"/></g><use href="#j" class="B a"/><g clip-path="url(#R)"><g class="C D F M"><use href="#k" class="b"/><use href="#l" class="c"/></g><use href="#m" class="B J"/><g class="B G d E"><use href="#n" class="I"/><path d="M1100.613 116.965h-19.872l26.867-56.868 18.505-.16-25.5 57.028z" class="I"/><use href="#o" class="I"/><path d="M1018.91 116.965h-9.494l26.867-56.868 8.128-.16-25.501 57.028z" class="I"/></g><use href="#p" class="B e"/><use href="#q" class="C D F M f"/></g><use href="#r" style="mix-blend-mode:overlay" class="E L"/><g class="B"><g class="g"><use href="#s"/><use href="#t"/></g><use href="#u" class="J"/><use href="#v" class="h"/></g></g><g fill="#4ee8e4" class="B"><use href="#w"/><use href="#x"/><use href="#y"/></g><g class="J B"><use href="#h"/><use href="#i"/></g><use href="#j" class="B a"/><g clip-path="url(#S)"><g class="C D F M"><use href="#k" class="b"/><use href="#l" class="c"/></g><use href="#m" class="B J"/><g class="B G d E"><use href="#n" class="I"/><path d="M1100.613 116.965h-19.872l26.867-56.868 18.505-.16-25.5 57.028z" class="I"/><use href="#o" class="I"/><path d="M1018.91 116.965h-9.494l26.867-56.868 8.128-.16-25.501 57.028z" class="I"/></g><use href="#p" class="B e"/><use href="#q" class="C D F M f"/></g><use href="#r" style="mix-blend-mode:overlay" class="E L"/><g class="B"><g class="g"><use href="#s"/><use href="#t"/></g><use href="#u" class="J"/><use href="#v" class="h"/></g><g stroke="#4ee8e4" class="C D F q"><path d="M1104.549 94.055h17.376m-3.701 7.029h9.785m-18.882 1.654h-4.578m-39.918-4.341h-17.377m3.702-7.029h-9.785m18.881-1.654h4.579"/></g></g></g><g clip-path="url(#T)"><g clip-path="url(#U)"><g class="B J"><use href="#h"/><use href="#i"/></g><use href="#j" class="B a"/><g clip-path="url(#V)"><g class="C D F M"><use href="#k" class="b"/><use href="#l" class="c"/></g><use href="#m" class="B J"/><g class="B G d E"><use href="#n" class="I"/><path d="M1100.613 116.965h-19.872l26.867-56.868 18.505-.16-25.5 57.028z" class="I"/><use href="#o" class="I"/><path d="M1018.91 116.965h-9.494l26.867-56.868 8.128-.16-25.501 57.028z" class="I"/></g><use href="#p" class="B e"/><use href="#q" class="C D F M f"/></g><use href="#r" style="mix-blend-mode:overlay" class="E L"/><g class="B"><g class="g"><use href="#s"/><use href="#t"/></g><use href="#u" class="J"/><use href="#v" class="h"/></g></g><g class="B J"><use href="#h"/><use href="#i"/></g><use href="#j" class="B a"/><g clip-path="url(#W)"><g class="C D F M"><use href="#k" class="b"/><use href="#l" class="c"/></g><use href="#m" class="B J"/><g class="B G d E"><use href="#n" class="I"/><path d="M1100.613 116.965h-19.872l26.867-56.868 18.505-.16-25.5 57.028z" class="I"/><use href="#o" class="I"/><path d="M1018.91 116.965h-9.494l26.867-56.868 8.128-.16-25.501 57.028z" class="I"/></g><use href="#p" class="B e"/><use href="#q" class="C D F M f"/></g><use href="#r" style="mix-blend-mode:overlay" class="E L"/><g class="B"><g class="g"><use href="#s"/><use href="#t"/></g><use href="#u" class="J"/><use href="#v" class="h"/></g><g stroke="#4ee8e4" class="C D F q"><path d="M1104.549 94.055h17.376m-3.701 7.029h9.785m-18.882 1.654h-4.578m-39.918-4.341h-17.377m3.702-7.029h-9.785m18.881-1.654h4.579"/></g></g><g fill="#75e9e4" class="B"><use href="#w"/><use href="#x"/><use href="#y"/></g></g></svg>