<svg xmlns="http://www.w3.org/2000/svg" width="1500" height="145" xmlns:v="https://vecta.io/nano"><defs><clipPath id="A"><path d="M0 0h1500v145H0z" fill="none"/></clipPath><clipPath id="B"><path d="M475.144-233.364h172.661v127.413H475.144z" fill="none"/></clipPath><clipPath id="C"><path d="M490.265-104.379h0c4.016-2.165 8.339-5.246 9.313-9.703l.915-4.186 2.822 2.415c3.738 3.2 7.907 2.049 11.125-1.673l3.352-3.876h0c3.766 4.63 10.924 4.342 14.305-.576l.584-.849.431.712c3.111 5.134 10.297 5.804 14.304 1.334l.636-.71 2.506 3.566c2.745 3.906 8.073 4.966 12.104 2.41l3.101-1.966.314.941c1.948 5.845 6.007 10.752 11.382 13.762h0l-87.196-1.602z" clip-rule="evenodd" fill="#04d5d8"/></clipPath></defs><g clip-path="url(#A)"><path d="M-16.221-5409.54H1516.22V178.849H-16.221z" fill="#04d5d8"/><g fill="#00cbca"><path d="M1560.199-234.814h-133.59c-48.732 0-95.468-19.359-129.926-53.817l-25.699-25.699c-34.459-34.459-81.195-53.817-129.926-53.817h-31.543c-48.732 0-95.468 19.359-129.926 53.817L816.472-151.213c-34.459 34.459-53.817 81.195-53.817 129.926h0c0 48.732 19.359 95.468 53.817 129.926l48.433 48.433c34.459 34.459 81.195 53.817 129.926 53.817h556.205l9.163-445.704zM847.586 214.691l-85.989-85.989a112.31 112.31 0 0 0-79.416-32.895H565.343c-29.787 0-58.353 11.833-79.416 32.895l-56.018 56.018 106.659 36.747 200.284 16.941 110.733-23.718z"/></g><path d="M1804.181 77.636l-3.957-3.957a98.71 98.71 0 0 0-69.799-28.912h-152.774a98.71 98.71 0 0 1-69.799-28.912l-53.475-53.475a98.71 98.71 0 0 0-69.799-28.912h-90.434a98.71 98.71 0 0 0-69.799 28.912l-47.01 47.01a98.71 98.71 0 0 0-28.912 69.799v26.169a98.71 98.71 0 0 0 28.912 69.799l65.878 65.878a98.71 98.71 0 0 0 69.799 28.912h377.795a98.71 98.71 0 0 1 69.799 28.912l28.763 28.763a98.71 98.71 0 0 0 69.799 28.912h14.096c54.516 0 98.71-44.194 98.71-98.71V205.26c0-54.376-43.976-98.512-98.352-98.709h0a98.71 98.71 0 0 1-69.44-28.911z" fill="#00bcb7"/><g fill="#1fc8cc"><path d="M147.999-38.423l9.964-2.324a5.14 5.14 0 0 1 3.88.638c6.044 3.749 13.352 12.012 14.2 12.666 0 0 62.037 1.35 73.24.409 1.094-.092 2.189-.155 3.286-.196 8.6-.323 39.504-4.559 57.958-5.324.446-.019.891.023 1.327.12h0c4.635 1.034 6.228 6.58 3.331 9.932l.167.094-.579 1.012-1.066 1.81c-1.548 4.283-6.263 13.026-7.434 14.531-1.187 1.527-.693.995-1.187 1.527-10.583 11.386-25.684 17.346-40.974 16.639h0l.255 5.453c.002.044.002.087.003.13.027 1.296-.442 2.546-1.317 3.493l-6.834 7.393c-.358.387-.91.532-1.42.373s-.889-.595-.975-1.121l-1.538-9.404-1.39-8.499a152.95 152.95 0 0 1-4.909-1.325l-5.784 4.953-4.364 3.737c-.41.351-.984.436-1.478.22a1.41 1.41 0 0 1-.842-1.235l-.206-5.499-.179-4.792c-.019-.515.039-1.024.169-1.513-22.126-7.962-44.034-19.416-52.931-24.258l-.999-.432-.166-.072-1.812-.783.098-.227-1.865-.582c-.515.172-1.025.328-1.532.461-2.136.815-11.169 4.904-17.678 5.874a5.14 5.14 0 0 1-3.815-.951l-8.228-6.082c-.362-.268-.612-.679-.623-1.13-.017-.665.422-1.231 1.039-1.398l13.056-3.523-10.469-8.309c-.5-.397-.679-1.091-.4-1.695.189-.409.581-.688 1.02-.79zM87.941 11.833l7.828-1.826a4.04 4.04 0 0 1 3.048.501c4.748 2.946 10.49 9.437 11.156 9.951 0 0 48.739 1.06 57.54.321a55.65 55.65 0 0 1 2.581-.154c6.756-.254 31.036-3.582 45.535-4.183a4.02 4.02 0 0 1 1.043.094h0c3.642.812 4.893 5.169 2.617 7.803l.131.074-.455.795-.838 1.422c-1.216 3.365-4.921 10.234-5.84 11.416-.933 1.2-.544.781-.933 1.2-8.315 8.946-20.178 13.628-32.191 13.073h0l.2 4.284c.002.034.002.068.002.102.021 1.018-.347 2-1.035 2.744l-5.369 5.808a1.08 1.08 0 0 1-1.116.293 1.11 1.11 0 0 1-.766-.88l-1.208-7.388-1.092-6.677a119.09 119.09 0 0 1-3.856-1.041l-4.544 3.891-3.428 2.936c-.322.276-.773.343-1.161.173s-.645-.547-.661-.97l-.162-4.32-.141-3.765a4.05 4.05 0 0 1 .133-1.189c-17.383-6.255-34.595-15.254-41.585-19.058l-.785-.339-.13-.056-1.423-.615.077-.178-1.465-.457a19.7 19.7 0 0 1-1.203.362c-1.678.641-8.775 3.853-13.888 4.615a4.04 4.04 0 0 1-2.997-.747l-6.464-4.778c-.285-.21-.481-.534-.49-.888-.013-.523.332-.967.816-1.098l10.257-2.768-8.225-6.528c-.393-.312-.534-.857-.314-1.332.148-.321.456-.541.801-.621zm132.987 30.18l3.869-.902c.515-.12 1.057-.031 1.506.248 2.347 1.456 5.184 4.664 5.514 4.918 0 0 24.087.524 28.437.159.425-.036.85-.06 1.276-.076 3.339-.125 15.338-1.77 22.504-2.067a1.98 1.98 0 0 1 .515.047h0c1.8.401 2.418 2.555 1.293 3.857l.065.037-.225.393-.414.703c-.601 1.663-2.432 5.058-2.886 5.642-.461.593-.269.386-.461.593-4.109 4.421-9.972 6.735-15.909 6.461h0l.099 2.117a.87.87 0 0 0 .001.051c.011.503-.172.989-.511 1.356l-2.654 2.87c-.139.15-.353.207-.551.145a.55.55 0 0 1-.379-.435l-.597-3.651-.54-3.3c-.629-.158-1.265-.33-1.906-.515l-2.246 1.923-1.694 1.451c-.159.136-.382.169-.574.085s-.319-.27-.327-.48l-.08-2.135-.07-1.861c-.007-.2.015-.398.066-.588-8.591-3.091-17.097-7.539-20.552-9.419l-.388-.168c-.022-.009-.043-.019-.064-.028l-.703-.304.038-.088-.724-.226c-.2.067-.398.127-.595.179-.829.317-4.337 1.904-6.864 2.281a2 2 0 0 1-1.481-.369l-3.195-2.361c-.141-.104-.238-.264-.242-.439-.006-.258.164-.478.403-.543l5.069-1.368-4.065-3.226c-.194-.154-.264-.423-.155-.658.073-.159.226-.267.396-.307z"/></g><g clip-path="url(#B)"><g fill-rule="evenodd"><path d="M487.249-46.437h0c-5.655 3.283-10.029 7.195-10.232 13.73L475.915 2.77a2.19 2.19 0 0 0 1.612 2.179c.676.187 1.402.001 1.964-.418l12.776-9.506a8.01 8.01 0 0 0 3.141-5.252c1.618-10.951-.857-27.941-.782-29.607.001-.03-7.351-6.618-7.377-6.603z" fill="#2f358f"/><path d="M490.265-104.379h0c4.016-2.165 8.339-5.246 9.313-9.703l.915-4.186 2.822 2.415c3.738 3.2 7.907 2.049 11.125-1.673l3.352-3.876h0c3.766 4.63 10.924 4.342 14.305-.576l.584-.849.431.712c3.111 5.134 10.297 5.804 14.304 1.334l.636-.71 2.506 3.566c2.745 3.906 8.073 4.966 12.104 2.41l3.101-1.966.314.941c1.948 5.845 6.007 10.752 11.382 13.762h0l-87.196-1.602z" fill="#04d5d8"/></g><g clip-path="url(#C)"><g opacity=".05"><path d="M489.422-46.401h0c-5.655 3.283-10.029 7.195-10.232 13.73l-1.102 35.477a2.19 2.19 0 0 0 1.612 2.179c.676.187 1.402.001 1.964-.418l12.776-9.506a8.01 8.01 0 0 0 3.141-5.252c1.618-10.951-.857-27.941-.782-29.607.001-.03-7.351-6.618-7.377-6.603z" fill="#2f358f" fill-rule="evenodd"/></g></g></g></g></svg>