<svg xmlns="http://www.w3.org/2000/svg" width="1500" height="145" xmlns:v="https://vecta.io/nano"><style><![CDATA[.B{fill-rule:evenodd}.C{fill:#7e9e00}.D{fill:none}.E{opacity:.5}.F{clip-rule:evenodd}.G{fill:#3f7c37}.H{fill:#bad000}.I{opacity:.75}.J{fill:#2f358f}.K{fill:#a7c000}.L{stroke-linecap:round}.M{stroke-linejoin:round}.N{opacity:.3}.O{fill:#704a45}.P{fill:#5d4136}.Q{fill:#d4e214}.R{stroke-dasharray:0 6.177}.S{stroke-width:6.177}.T{opacity:.6}.U{stroke:#40c43e}.V{stroke:#27ac23}.W{opacity:.331}.X{fill:#0c6f3c}.Y{fill:#eb8000}.Z{stroke-miterlimit:10}.a{stroke-width:.764}]]></style><defs><clipPath id="A"><path d="M0 0h1500v145H0z" class="D"/></clipPath><clipPath id="B"><path d="M843.633 4.549h250.584V76.02H843.633z" class="D"/></clipPath><clipPath id="C"><path d="M987.904,47.936l78.999-20.267s-.293-.983,0,0c.382,1.284-1.535,9.22-2.067,10.449-.447,1.031-.246.66-.447,1.031-5.097,9.399-14.857,15.437-25.538,15.916-20.223.907-50.947-7.129-50.947-7.129Z" class="D F"/></clipPath><clipPath id="D"><path d="M876.07,32.673l69.555,23.975s.268-.886,0,0c-.35,1.157-5.735,6.181-6.747,6.842-.849.555-.513.375-.849.555-8.507,4.546-18.855,4.245-27.136-.699-15.679-9.362-34.824-30.672-34.824-30.672Z" class="D F"/></clipPath><clipPath id="E"><path d="M987.904,47.936l78.999-20.267s-.293-.983,0,0c.382,1.284-1.535,9.22-2.067,10.449-.447,1.031-.246.66-.447,1.031-5.097,9.399-14.857,15.437-25.538,15.916-20.223.907-50.947-7.129-50.947-7.129Z" class="F J"/></clipPath><clipPath id="F"><path d="M876.07,32.673l69.555,23.975s.268-.886,0,0c-.35,1.157-5.735,6.181-6.747,6.842-.849.555-.513.375-.849.555-8.507,4.546-18.855,4.245-27.136-.699-15.679-9.362-34.824-30.672-34.824-30.672Z" class="F J"/></clipPath><clipPath id="G"><path d="M680.164 90.989h12.01l3.255 29.699c.18 1.646-1.11 3.084-2.767 3.084h-13.045c-1.659 0-2.95-1.441-2.766-3.089l3.313-29.694z" class="D"/></clipPath><clipPath id="H"><path d="M686.139 89.91c0 4.247-1.688 8.321-4.694 11.324s-7.084 4.69-11.336 4.69h-16.123V95.337a16.01 16.01 0 0 1 4.694-11.326c3.006-3.002 7.084-4.69 11.336-4.69h16.123V89.91z" class="D F"/></clipPath><clipPath id="I"><path d="M686.139 89.91c0 4.247 1.688 8.321 4.694 11.324s7.084 4.69 11.336 4.69h16.123V95.337a16.01 16.01 0 0 0-4.694-11.326c-3.006-3.002-7.084-4.69-11.336-4.69h-16.123V89.91z" class="D F"/></clipPath><clipPath id="J"><path d="M686.13 105.924l9.63-7.012c5.319-3.873 5.92-11.576 1.266-16.226l-3.369-3.366h-15.055l-3.369 3.366c-4.654 4.65-4.053 12.353 1.266 16.226l9.63 7.012z" class="D F"/></clipPath><clipPath id="K"><path d="M618.745 61.943h12.01l3.255 29.699c.18 1.646-1.11 3.084-2.767 3.084h-13.045c-1.659 0-2.95-1.441-2.766-3.089l3.313-29.694z" class="D"/></clipPath><clipPath id="L"><path d="M624.721 60.863c0 4.247-1.688 8.321-4.694 11.324s-7.084 4.69-11.336 4.69h-16.123V66.29a16.01 16.01 0 0 1 4.694-11.326c3.006-3.002 7.084-4.69 11.336-4.69h16.123v10.589z" class="D F"/></clipPath><clipPath id="M"><path d="M624.721 60.863c0 4.247 1.688 8.321 4.694 11.324s7.084 4.69 11.336 4.69h16.123V66.29a16.01 16.01 0 0 0-4.694-11.326c-3.006-3.002-7.084-4.69-11.336-4.69h-16.123v10.589z" class="D F"/></clipPath><clipPath id="N"><path d="M624.712 76.878l9.63-7.012c5.319-3.873 5.92-11.576 1.266-16.226l-3.369-3.366h-15.055l-3.369 3.366c-4.654 4.65-4.053 12.353 1.266 16.226l9.63 7.012z" class="D F"/></clipPath><clipPath id="O"><path d="M548.025 95.367h12.01l3.255 29.699c.18 1.646-1.11 3.084-2.767 3.084h-13.045c-1.659 0-2.95-1.441-2.766-3.089l3.313-29.694z" class="D"/></clipPath><clipPath id="P"><path d="M554.001 94.288c0 4.247-1.688 8.321-4.694 11.324s-7.084 4.69-11.336 4.69h-16.123V99.715a16.01 16.01 0 0 1 4.694-11.326c3.006-3.002 7.084-4.69 11.336-4.69h16.123v10.589z" class="D F"/></clipPath><clipPath id="Q"><path d="M554.001 94.288c0 4.247 1.688 8.321 4.694 11.324s7.084 4.69 11.336 4.69h16.123V99.715a16.01 16.01 0 0 0-4.694-11.326c-3.006-3.002-7.084-4.69-11.336-4.69h-16.123v10.589z" class="D F"/></clipPath><clipPath id="R"><path d="M553.992 110.302l9.63-7.012c5.319-3.873 5.92-11.576 1.266-16.226l-3.369-3.366h-15.055l-3.369 3.366c-4.654 4.65-4.053 12.353 1.266 16.226l9.63 7.012z" class="D F"/></clipPath><clipPath id="S"><path d="M467.114 48.585h12.01l3.255 29.699c.18 1.646-1.11 3.084-2.767 3.084h-13.045c-1.659 0-2.95-1.441-2.766-3.089l3.313-29.694z" class="D"/></clipPath><clipPath id="T"><path d="M473.089 47.505c0 4.247-1.688 8.321-4.694 11.324s-7.084 4.69-11.336 4.69h-16.123V52.932a16.01 16.01 0 0 1 4.694-11.326c3.006-3.002 7.084-4.69 11.336-4.69h16.123v10.589z" class="D F"/></clipPath><clipPath id="U"><path d="M473.089 47.505c0 4.247 1.688 8.321 4.694 11.324s7.084 4.69 11.336 4.69h16.123V52.932a16.01 16.01 0 0 0-4.694-11.326c-3.006-3.002-7.084-4.69-11.336-4.69h-16.123v10.589z" class="D F"/></clipPath><clipPath id="V"><path d="M473.081 63.52l9.63-7.012c5.319-3.873 5.92-11.576 1.266-16.226l-3.369-3.366h-15.055l-3.369 3.366c-4.654 4.65-4.053 12.353 1.266 16.226l9.63 7.012z" class="D F"/></clipPath><clipPath id="W"><path d="M132.764 54.419h12.01l3.255 29.699c.18 1.646-1.11 3.084-2.767 3.084h-13.045c-1.659 0-2.95-1.441-2.766-3.089l3.313-29.694z" class="D"/></clipPath><clipPath id="X"><path d="M138.74 53.34c0 4.247-1.688 8.321-4.694 11.324s-7.084 4.69-11.336 4.69h-16.123V58.767a16.01 16.01 0 0 1 4.694-11.326c3.006-3.002 7.084-4.69 11.336-4.69h16.123V53.34z" class="D F"/></clipPath><clipPath id="Y"><path d="M138.74 53.34c0 4.247 1.688 8.321 4.694 11.324s7.084 4.69 11.336 4.69h16.123V58.767a16.01 16.01 0 0 0-4.694-11.326c-3.006-3.002-7.084-4.69-11.336-4.69H138.74V53.34z" class="D F"/></clipPath><clipPath id="Z"><path d="M138.731 69.354l9.63-7.012c5.319-3.873 5.92-11.576 1.266-16.226l-3.369-3.366h-15.055l-3.369 3.366c-4.654 4.65-4.053 12.353 1.266 16.226l9.63 7.012z" class="D F"/></clipPath><clipPath id="a"><path d="M160.467 188.703a4.19 4.19 0 0 1-3.09-1.36 4.18 4.18 0 0 1-1.081-3.196L172.033 7.911c.307-3.439 3.19-6.055 6.646-6.055h14.45c3.471 0 6.363 2.658 6.651 6.114l2.827 33.895h10.278c1.881 0 3.597 1.054 4.438 2.735l4.647 9.287c.434.867.685 1.813.739 2.781l3.256 58.547 18.185 5.191a7.13 7.13 0 0 1 5.173 6.857v57.255c0 1.11-.441 2.174-1.227 2.958s-1.85 1.226-2.961 1.226h-84.669z" class="D F"/></clipPath><path id="b" d="M702.31 41.584c.87 0 1.575-.706 1.575-1.579V36.71c0-.873-.705-1.579-1.575-1.579s-1.575.706-1.575 1.579v3.295c0 .873.705 1.579 1.575 1.579z"/><path id="c" d="M684.564,54.633c.87,0,1.575-.706,1.575-1.579v-3.297c0-.873-.705-1.579-1.575-1.579s-1.575.706-1.575,1.579v3.297c0,.873.705,1.579,1.575,1.579Z"/><path id="d" d="M678.467,27.301c.87,0,1.575-.706,1.575-1.579v-3.297c0-.873-.705-1.579-1.575-1.579s-1.575.706-1.575,1.579v3.297c0,.873.705,1.579,1.575,1.579Z"/><path id="e" d="M548.861,40.967c-.87,0-1.575-.706-1.575-1.579v-3.295c0-.873.705-1.579,1.575-1.579s1.575.706,1.575,1.579v3.295c0,.873-.705,1.579-1.575,1.579Z"/><path id="f" d="M560.029 54.015c-.87 0-1.575-.706-1.575-1.579v-4.944c0-.873.705-1.579 1.575-1.579s1.575.706 1.575 1.579v4.944c0 .873-.705 1.579-1.575 1.579z"/><path id="g" d="M566.606,54.015c-.87,0-1.575-.706-1.575-1.579v-3.297c0-.873.705-1.579,1.575-1.579s1.575.706,1.575,1.579v3.297c0,.873-.705,1.579-1.575,1.579Z"/><path id="h" d="M572.703,26.683c-.87,0-1.575-.706-1.575-1.579v-3.297c0-.873.705-1.579,1.575-1.579s1.575.706,1.575,1.579v3.297c0,.873-.705,1.579-1.575,1.579Z"/><path id="i" d="M1036.175 43.312l9.128.879 7.641 15.383a.82.82 0 0 1-.086.864c-.192.248-.509.364-.816.299l-5.853-1.246c-.774-.165-1.452-.63-1.883-1.294-2.313-3.556-8.131-14.885-8.131-14.885z"/><path id="j" d="M988.305 44.381l-.414 3.673c-.381 3.383-2.48 6.329-5.553 7.794l-10.565 5.036a.82.82 0 0 1-1.046-.306c-.12-.188-.146-.423-.096-.64l1.335-5.807a2.99 2.99 0 0 1 1.324-1.862c3.593-2.254 15.016-7.888 15.016-7.888z"/><path id="k" d="M1066.904 27.669c-6.705 1.996-20.951 12.104-32.583 14.904-20.74 4.992-46.416 5.364-46.416 5.364l.401-3.552s35.107-8.227 41.276-10.379c.602-.21 1.209-.404 1.821-.586 4.793-1.427 21.571-8.288 31.845-11.392a3 3 0 0 1 .764-.125h0c3.03-.098 4.783 3.398 2.893 5.767h0z"/><path id="l" d="M1053.514 31.004l-2.05 1.024-.358-.717c-.172-.344-.032-.763.312-.935l2.05-1.024.358.717c.172.344.032.763-.312.935z"/><path id="m" d="M875.997,32.625l68.484,23.268s.268-.886,0,0c-.35,1.157-5.735,6.181-6.747,6.842-.849.555-.513.375-.849.555-8.507,4.546-18.855,4.245-27.136-.699-15.679-9.362-33.752-29.965-33.752-29.965Z"/><path id="n" d="M946.761,56.463c-22.393,19.836-39.063,5.073-70.762-23.815"/><path id="o" d="M946.453,55.441c-26.068,15.695-46.905-6.101-70.707-23.264"/><path id="p" d="M914.173 54.49l8.145 1.442 5.773 14.379a.74.74 0 0 1-.139.771c-.191.209-.484.291-.755.21l-5.174-1.538c-.685-.204-1.26-.67-1.601-1.298-1.826-3.363-6.248-13.966-6.248-13.966z"/><path id="q" d="M878.137 30.196l-2.136 2.56a8.89 8.89 0 0 1-8.053 3.111l-10.457-1.456a.74.74 0 0 1-.636-.75c.003-.202.1-.391.246-.53l3.889-3.71c.517-.493 1.208-.761 1.922-.745 3.825.087 15.225 1.518 15.225 1.518z"/><path id="r" d="M945.626,56.648c-6.041-1.827-21.788-1.291-31.938-4.96-18.097-6.541-37.617-19.015-37.617-19.015l2.066-2.476s30.523,11.242,36.237,12.685c.558.141,1.111.296,1.662.463,4.318,1.306,20.36,4.472,29.639,7.238.224.067.438.163.637.286h0c2.33,1.431,1.914,4.935-.686,5.78h0Z"/><path id="s" d="M933.92 52.505l-2.085-.251.09-.751c.039-.327.336-.561.664-.521l2.085.251-.09.751c-.039.327-.336.561-.664.521z"/><path id="t" d="M680.164 90.989h12.01l3.255 29.699c.18 1.646-1.11 3.084-2.767 3.084h-13.045c-1.659 0-2.95-1.441-2.766-3.089l3.313-29.694z"/><path id="u" d="M686.13 112.458l9.818-7.149c5.423-3.949 6.036-11.803 1.291-16.543l-3.434-3.431h-15.349l-3.434 3.431c-4.745 4.741-4.132 12.595 1.291 16.543l9.818 7.149z"/><path id="v" d="M652.722 103.994l32.135-26.245 2.54 3.11-32.135 26.245z"/><path id="w" d="M667.383 107.659h4.019v-6.754a2.01 2.01 0 0 0-4.02 0v6.754z"/><path id="x" d="M653.986 94.668v-3.803h6.135c.504 0 .989.201 1.346.558a1.9 1.9 0 0 1 .557 1.343h0c0 .506-.201.988-.557 1.345s-.842.556-1.346.556h-6.135z"/><path id="y" d="M653.986 86.85v-4.016h12.059c1.109 0 2.008.898 2.008 2.006v.004c0 1.108-.898 2.006-2.008 2.006h-12.059z"/><path id="z" d="M684.867 80.875l2.538-3.112 32.154 26.223-2.538 3.112z"/><path id="AA" d="M704.895 107.659h-4.019v-6.754a2.01 2.01 0 0 1 4.02 0v6.754z"/><path id="AB" d="M718.292 94.881v-4.016h-6.031a2 2 0 0 0-1.419.588c-.378.375-.589.885-.589 1.418v.004c0 .532.211 1.042.589 1.42a2.01 2.01 0 0 0 1.419.586h6.031z"/><path id="AC" d="M718.292 86.85v-4.016h-12.057c-.533 0-1.045.213-1.421.588s-.589.887-.589 1.42.211 1.044.589 1.42.888.588 1.421.588h12.057z"/><path id="AD" d="M686.13 105.924l9.63-7.012c5.319-3.873 5.92-11.576 1.266-16.226l-3.369-3.366h-15.055l-3.369 3.366c-4.654 4.65-4.053 12.353 1.266 16.226l9.63 7.012z"/><path id="AE" d="M684.129 76.42h4.019v35.021h-4.019z"/><path id="AF" d="M700.388 93.99c.654 0 1.298-.319 1.682-.906.61-.928.351-2.173-.578-2.78l-8.169-5.354a2.01 2.01 0 0 0-2.781.576c-.61.928-.351 2.173.578 2.78l8.169 5.354a1.99 1.99 0 0 0 1.099.329z"/><path id="AG" d="M671.891 93.99a2 2 0 0 0 1.099-.329l8.166-5.354c.929-.608 1.188-1.852.578-2.78s-1.845-1.19-2.781-.576l-8.166 5.354c-.929.608-1.188 1.852-.578 2.78a2.01 2.01 0 0 0 1.682.906z"/><path id="AH" d="M353.346 16.643a1.1 1.1 0 0 0-1.097-1.097c-.605 0-1.096.491-1.096 1.096l.002 4.387a1.1 1.1 0 0 0 1.097 1.097 1.1 1.1 0 0 0 1.097-1.097l-.002-4.387z"/><path id="AI" d="M354.445 19.934c.605 0 1.097-.491 1.096-1.096a1.1 1.1 0 0 0-1.097-1.097l-4.387-.002a1.1 1.1 0 0 0-1.097 1.097 1.1 1.1 0 0 0 1.097 1.097l4.387.002z"/><path id="AJ" d="M246.39 84.511a1.1 1.1 0 0 0-1.551 0c-.428.427-.428 1.122 0 1.55l3.104 3.101a1.1 1.1 0 0 0 1.551 0 1.1 1.1 0 0 0 0-1.551l-3.104-3.1z"/><path id="AK" d="M249.494 86.062c.428-.428.428-1.123 0-1.55a1.1 1.1 0 0 0-1.551 0l-3.104 3.1a1.1 1.1 0 0 0 0 1.551 1.1 1.1 0 0 0 1.551 0l3.104-3.101z"/><path id="AL" d="M61.748 28.29a1.1 1.1 0 0 1 1.551 0c.428.427.428 1.122 0 1.55l-3.104 3.101a1.1 1.1 0 0 1-1.551 0 1.1 1.1 0 0 1 0-1.551l3.104-3.1z"/><path id="AM" d="M58.644 29.84c-.428-.428-.428-1.123 0-1.55a1.1 1.1 0 0 1 1.551 0l3.104 3.1a1.1 1.1 0 0 1 0 1.551 1.1 1.1 0 0 1-1.551 0l-3.104-3.101z"/><path id="AN" d="M259.55 13.118c-.87 0-1.575-.706-1.575-1.579V8.244c0-.873.705-1.579 1.575-1.579s1.575.706 1.575 1.579v3.295c0 .873-.705 1.579-1.575 1.579z"/><path id="AO" d="M277.296,26.167c-.87,0-1.575-.706-1.575-1.579v-3.297c0-.873.705-1.579,1.575-1.579s1.575.706,1.575,1.579v3.297c0,.873-.705,1.579-1.575,1.579Z"/><path id="AP" d="M353.969,115.588c.87,0,1.575-.706,1.575-1.579v-3.295c0-.873-.705-1.579-1.575-1.579s-1.575.706-1.575,1.579v3.295c0,.873.705,1.579,1.575,1.579Z"/><path id="AQ" d="M336.224,128.637c.87,0,1.575-.706,1.575-1.579v-3.297c0-.873-.705-1.579-1.575-1.579s-1.575.706-1.575,1.579v3.297c0,.873.705,1.579,1.575,1.579Z"/><path id="AR" d="M330.127,101.305c.87,0,1.575-.706,1.575-1.579v-3.297c0-.873-.705-1.579-1.575-1.579s-1.575.706-1.575,1.579v3.297c0,.873.705,1.579,1.575,1.579Z"/><path id="AS" d="M44.083,114.971c-.87,0-1.575-.706-1.575-1.579v-3.295c0-.873.705-1.579,1.575-1.579s1.575.706,1.575,1.579v3.295c0,.873-.705,1.579-1.575,1.579Z"/><path id="AT" d="M61.828,128.019c-.87,0-1.575-.706-1.575-1.579v-3.297c0-.873.705-1.579,1.575-1.579s1.575.706,1.575,1.579v3.297c0,.873-.705,1.579-1.575,1.579Z"/><path id="AU" d="M67.925,100.687c-.87,0-1.575-.706-1.575-1.579v-3.297c0-.873.705-1.579,1.575-1.579s1.575.706,1.575,1.579v3.297c0,.873-.705,1.579-1.575,1.579Z"/></defs><g clip-path="url(#A)"><path d="M-16.221-4829.54H1516.22V758.849H-16.221z" fill="#04d5d8"/><g class="B"><path d="M1529.454-1130h-203.633c-44.608 0-80.767-36.172-80.746-80.785.005-11.443-9.303-20.707-20.746-20.707h-176.32a20.75 20.75 0 0 0-20.746 20.746v47.256c0 44.595-36.151 80.746-80.746 80.746H793.073c-33.469 0-63.688-21.168-75.196-52.675-10.722-29.354-39.002-49.075-70.373-49.075H273.358a75.44 75.44 0 0 0-46.622 16.208c-13.432 10.628-22.861 25.666-26.551 42.345-8.037 36.333-40.893 62.703-78.123 62.703H-49.703c-.412 0-.746.334-.746.746v550.966c0 .412.334.746.746.746H52.021c29.652 0 56.758 16.353 70.739 42.676l.11.207c8.19 15.289 12.541 32.346 12.541 49.69v60.197c0 44.425-36.014 80.438-80.438 80.438H-60.932v558.139H60.647c24.468 0 47.472 9.528 64.774 26.831l38.785 38.784c34.301 34.301 79.906 53.191 128.414 53.191h286.993c48.508 0 94.113-18.891 128.414-53.19l36.652-36.652c34.3-34.301 53.191-79.905 53.191-128.414V28.382c0-22.898 18.563-41.461 41.461-41.461h53.59a184.12 184.12 0 0 0 70.815-14.086c22.565-9.348 42.765-22.844 60.035-40.114l101.546-101.546c25.785-25.785 43.783-61.897 52.663-99.398 6.642-28.047 31.418-48.023 60.241-48.023h101.903c20.048 0 36.301-16.253 36.301-36.301v-74.251c-.024-28.006-22.733-50.702-50.745-50.702H962.47c-60.751 0-110-49.249-110-110v-303.373c0-.695.023-1.389.036-2.083v-.037c1.52-59.839 50.504-107.881 110.709-107.881h254.619c60.16 0 109.153 48.733 109.576 108.795.195 27.699 22.37 50.362 50.069 50.362h151.974c.412 0 .746-.334.746-.746v-286.793c0-.412-.334-.746-.746-.746z" fill="#ffed8b"/><path d="M1094.277-427.5H962.47c-88.366 0-160-71.634-160-160v-303.373c0-30.548 8.605-59.124 23.519-83.431 15.687-25.567-2.918-58.44-32.915-58.44h0c-56.065 0-103.955-35.678-122.161-85.521-3.576-9.791-12.985-16.229-23.408-16.229H273.359c-11.632 0-21.841 7.996-24.353 19.353-12.879 58.22-64.906 101.903-126.942 101.903H-.448v452.458h52.47c64.728 0 118.554 47.555 128.39 109.562h0v93.208c0 69.278-56.161 125.438-125.438 125.438h-70.906v468.139h76.579a136.6 136.6 0 0 1 96.594 40.011l38.786 38.786c25.618 25.618 60.364 40.011 96.594 40.011h286.993a136.6 136.6 0 0 0 96.594-40.011l36.652-36.652c25.618-25.618 40.01-60.364 40.01-96.594V28.382c0-47.751 38.71-86.461 86.461-86.461h53.59a140.05 140.05 0 0 0 99.031-41.02l101.546-101.545c28.705-28.705 44.832-67.638 45.78-108.233v-73.622c0-24.853-20.147-45-45-45z" fill="#40c43e" stroke-dasharray="0 10" stroke-width="10" class="L M U"/></g><path d="M268.111-507.5v150.276c0 18.778 15.222 34 34 34h.845c19.244 0 34.845 15.601 34.845 34.845v100.95c0 18.778-15.222 34-34 34H-38.061c-12.631 0-22.871 10.239-22.871 22.871v304.94c0 12.631 10.239 22.871 22.871 22.871h256.074c12.631 0 22.871 10.239 22.871 22.871h0c0 12.631 10.239 22.871 22.871 22.871h158.267c38.573 0 69.843-31.27 69.843-69.843V40.084c0-38.573 31.27-69.843 69.843-69.843h0c38.573 0 69.843-31.27 69.843-69.843v-98.975c0-16.233 13.16-29.393 29.393-29.393h0c16.233 0 29.393-13.16 29.393-29.393v-383.171c0-13.267-11.251-23.75-24.485-22.813L389.54-643.793c-6.689.473-12.833 3.858-16.807 9.26L268.112-507.5z" fill="#27ac23"/><path d="M268.111-507.5v150.276c0 18.777 15.222 34 34 34h.845c19.244 0 34.845 15.601 34.845 34.845v100.95c0 18.777-15.222 34-34 34H-38.061c-12.631 0-22.871 10.239-22.871 22.871v304.94c0 12.631 10.239 22.871 22.871 22.871h256.074c12.631 0 22.871 10.239 22.871 22.871s10.239 22.871 22.871 22.871h158.267c38.573 0 69.843-31.27 69.843-69.844V40.084c0-38.573 31.27-69.843 69.843-69.843h0c38.573 0 69.843-31.27 69.843-69.844v-98.975c0-16.233 13.16-29.393 29.393-29.393h0c16.233 0 29.393-13.16 29.393-29.393v-383.171c0-13.267-11.251-23.75-24.485-22.813L389.54-643.794c-6.689.473-12.833 3.858-16.807 9.26L268.112-507.501z" stroke-dasharray="0 10.013" stroke-width="10" class="D L M V"/><g fill="#27ac23"><path d="M708.887,41.584c.87,0,1.575-.706,1.575-1.579v-4.944c0-.873-.705-1.579-1.575-1.579s-1.575.706-1.575,1.579v4.944c0,.873.705,1.579,1.575,1.579Z"/><use href="#b"/><path d="M714.916 41.584c.87 0 1.575-.706 1.575-1.579V36.71c0-.873-.705-1.579-1.575-1.579s-1.575.706-1.575 1.579v3.295c0 .873.705 1.579 1.575 1.579zm-23.775 13.049c.87 0 1.575-.706 1.575-1.579V48.11c0-.873-.705-1.579-1.575-1.579s-1.575.706-1.575 1.579v4.944c0 .873.705 1.579 1.575 1.579z"/><use href="#c"/><path d="M697.17 54.633c.87 0 1.575-.706 1.575-1.579v-3.297c0-.873-.705-1.579-1.575-1.579s-1.575.706-1.575 1.579v3.297c0 .873.705 1.579 1.575 1.579zm-12.125-27.332c.87 0 1.575-.706 1.575-1.579v-4.944c0-.873-.705-1.579-1.575-1.579s-1.575.706-1.575 1.579v4.944c0 .873.705 1.579 1.575 1.579z"/><use href="#d"/><path d="M691.073 27.301c.87 0 1.575-.706 1.575-1.579v-3.297c0-.873-.705-1.579-1.575-1.579s-1.575.706-1.575 1.579v3.297c0 .873.705 1.579 1.575 1.579zM542.284 40.967c-.87 0-1.575-.706-1.575-1.579v-4.944c0-.873.705-1.579 1.575-1.579s1.575.706 1.575 1.579v4.944c0 .873-.705 1.579-1.575 1.579z"/><use href="#e"/><path d="M536.254,40.967c-.87,0-1.575-.706-1.575-1.579v-3.295c0-.873.705-1.579,1.575-1.579s1.575.706,1.575,1.579v3.295c0,.873-.705,1.579-1.575,1.579Z"/><use href="#f"/><use href="#g"/><path d="M554.001 54.015c-.87 0-1.575-.706-1.575-1.579v-3.297c0-.873.705-1.579 1.575-1.579s1.575.706 1.575 1.579v3.297c0 .873-.705 1.579-1.575 1.579zm12.125-27.332c-.87 0-1.575-.706-1.575-1.579V20.16c0-.873.705-1.579 1.575-1.579s1.575.706 1.575 1.579v4.944c0 .873-.705 1.579-1.575 1.579z"/><use href="#h"/><path d="M560.097,26.683c-.87,0-1.575-.706-1.575-1.579v-3.297c0-.873.705-1.579,1.575-1.579s1.575.706,1.575,1.579v3.297c0,.873-.705,1.579-1.575,1.579Z"/></g><g clip-path="url(#B)"><g clip-path="url(#C)"><path d="M989.435,47.678l77.577-20.267s-.293-.983,0,0c.382,1.284-1.535,9.22-2.067,10.449-.447,1.031-.246.66-.447,1.031-5.097,9.399-14.857,15.437-25.538,15.916-20.223.907-49.524-7.129-49.524-7.129Z" fill="#e5e5e5" class="B"/><g stroke="#9d9ec4" class="D Z a"><path d="M1067.152 26.453c-8.616 32.024-32.364 28.889-79.329 21.504m77.145-23.288c-14.543 30.435-45.164 24.361-77.667 23.006" class="N"/></g></g><g class="B"><use href="#i" fill="#f1f1f1"/><g class="J"><use href="#j"/><use href="#k"/></g></g><use href="#l" fill="#270228"/><g clip-path="url(#D)"><use href="#m" fill="#e5e5e5" class="B"/><g stroke="#9d9ec4" class="D Z a"><use href="#n" class="N"/><use href="#o" class="N"/></g></g><g class="B"><use href="#p" fill="#f1f1f1"/><g class="J"><use href="#q"/><use href="#r"/></g></g><use href="#s" fill="#270228"/><path d="M1106.111 130.955c-6.992 2.303-7.612-1.561-14.974-1.561s-7.362 1.601-14.724 1.601-7.363-1.601-14.726-1.601-7.361 1.601-14.722 1.601-7.362-1.601-14.724-1.601-7.361 1.601-14.722 1.601-7.361-1.601-14.723-1.601-7.362 1.601-14.724 1.601-7.363-1.601-14.727-1.601-7.362 1.601-14.724 1.601-7.363-1.601-14.726-1.601-7.363 1.601-14.726 1.601-7.364-1.601-14.728-1.601-7.362 1.601-14.724 1.601-7.364-1.601-14.729-1.601-7.362 1.601-14.724 1.601-7.367-1.601-14.734-1.601-7.985 3.86-14.984 1.561c-2.299-.755 1.05-3.181 1.05-5.601s-1.601-2.421-1.601-4.842 1.601-2.42 1.601-4.841-1.601-2.421-1.601-4.842 1.601-2.421 1.601-4.843-1.601-2.421-1.601-4.842 1.601-2.419 1.601-4.837-1.601-2.421-1.601-4.842 1.601-2.42 1.601-4.839-1.601-2.421-1.601-4.841 1.601-2.422 1.601-4.844-1.601-2.422-1.601-4.844 1.601-2.422 1.601-4.844-1.601-2.421-1.601-4.842 1.601-2.421 1.601-4.843-1.601-2.424-1.601-4.847 1.601-2.425 1.601-4.85-3.354-4.852-1.051-5.611c6.992-2.303 7.612 1.561 14.974 1.561s7.362-1.601 14.724-1.601 7.363 1.601 14.726 1.601 7.361-1.601 14.722-1.601 7.362 1.601 14.724 1.601 7.361-1.601 14.722-1.601 7.361 1.601 14.723 1.601 7.362-1.601 14.724-1.601 7.363 1.601 14.727 1.601 7.362-1.601 14.724-1.601 7.363 1.601 14.726 1.601 7.363-1.601 14.726-1.601 7.364 1.601 14.728 1.601 7.362-1.601 14.724-1.601 7.364 1.601 14.729 1.601 7.362-1.601 14.724-1.601 7.367 1.601 14.734 1.601 7.985-3.86 14.984-1.561c2.299.755-1.05 3.181-1.05 5.601s1.601 2.421 1.601 4.842-1.601 2.42-1.601 4.841 1.601 2.421 1.601 4.842-1.601 2.421-1.601 4.843 1.601 2.421 1.601 4.842-1.601 2.419-1.601 4.837 1.601 2.421 1.601 4.842-1.601 2.42-1.601 4.839 1.601 2.421 1.601 4.841-1.601 2.422-1.601 4.844 1.601 2.422 1.601 4.844-1.601 2.422-1.601 4.844 1.601 2.421 1.601 4.842-1.601 2.421-1.601 4.843 1.601 2.424 1.601 4.847-2.192 2.709-1.575 5.054c.794 3.017 3.328 4.648 1.025 5.407z" fill="#04d5d8" class="B"/><g opacity=".05" class="J"><path d="M987.904,47.936l78.999-20.267s-.293-.983,0,0c.382,1.284-1.535,9.22-2.067,10.449-.447,1.031-.246.66-.447,1.031-5.097,9.399-14.857,15.437-25.538,15.916-20.223.907-50.947-7.129-50.947-7.129Z" class="B"/><g clip-path="url(#E)" class="B"><path d="M987.807,47.936l77.577-20.267s-.293-.983,0,0c.382,1.284-1.535,9.22-2.067,10.449-.447,1.031-.246.66-.447,1.031-5.097,9.399-14.857,15.437-25.538,15.916-20.223.907-49.524-7.129-49.524-7.129Z"/><path d="M1067.842 26.805c-8.616 32.024-33.053 28.537-80.018 21.152m79.109-21.91c-14.543 30.435-47.129 22.983-79.632 21.628" class="N"/></g><g class="B"><use href="#i"/><use href="#j"/><use href="#k"/></g><use href="#l"/></g><g opacity=".05" class="J"><path d="M876.07,32.673l69.555,23.975s.268-.886,0,0c-.35,1.157-5.735,6.181-6.747,6.842-.849.555-.513.375-.849.555-8.507,4.546-18.855,4.245-27.136-.699-15.679-9.362-34.824-30.672-34.824-30.672Z" class="B"/><g clip-path="url(#F)" class="B"><use href="#m"/><use href="#n" class="N"/><use href="#o" class="N"/></g><g class="B"><use href="#p"/><use href="#q"/><use href="#r"/></g><use href="#s"/></g></g><use href="#t" class="O"/><g clip-path="url(#G)" class="B P"><use href="#u"/></g><path d="M686.139 89.91c0 4.247-1.688 8.321-4.694 11.324s-7.084 4.69-11.336 4.69h-16.123V95.337a16.01 16.01 0 0 1 4.694-11.326c3.006-3.002 7.084-4.69 11.336-4.69h16.123V89.91z" class="B K"/><g clip-path="url(#H)"><path d="M686.139 79.32l-35.88 30.668h35.88V79.32z" class="B C"/><use href="#v" class="H"/><g class="B"><g class="G"><use href="#w" class="E"/><path d="M675.422 107.956h4.019V94.628c0-1.108-.898-2.006-2.008-2.006h-.004c-1.109 0-2.008.898-2.008 2.006v13.328z" class="E"/></g><g class="C"><use href="#x" class="I"/><use href="#y" class="I"/></g></g></g><path d="M686.139 89.91c0 4.247 1.688 8.321 4.694 11.324s7.084 4.69 11.336 4.69h16.123V95.337a16.01 16.01 0 0 0-4.694-11.326c-3.006-3.002-7.084-4.69-11.336-4.69h-16.123V89.91z" class="B K"/><g clip-path="url(#I)"><path d="M686.139 79.32l35.881 30.668h-35.881V79.32z" class="B C"/><use href="#z" class="H"/><g class="B"><g class="G"><use href="#AA" class="E"/><path d="M696.857 107.956h-4.019V94.63c0-.532.211-1.042.589-1.42s.888-.588 1.421-.588 1.045.213 1.421.588.589.887.589 1.42v13.326z" class="E"/></g><g class="C"><use href="#AB" class="I"/><use href="#AC" class="I"/></g></g></g><use href="#AD" class="B H"/><g clip-path="url(#J)"><path d="M686.13 106.913h-15.193V78.101h15.193z" class="C"/><use href="#AE" class="Q"/><g class="E C"><use href="#AF"/></g><g class="E G"><use href="#AG"/></g><path d="M700.388 103.146c.654 0 1.298-.319 1.682-.906.61-.928.351-2.173-.578-2.78l-8.169-5.354a2.01 2.01 0 0 0-2.781.576c-.61.928-.351 2.173.578 2.78l8.169 5.354a1.99 1.99 0 0 0 1.099.329z" class="C E"/><g class="E G"><path d="M671.891 103.146a2 2 0 0 0 1.099-.329l8.166-5.354c.929-.608 1.188-1.852.578-2.78s-1.845-1.19-2.781-.576l-8.166 5.354c-.929.608-1.188 1.852-.578 2.78a2.01 2.01 0 0 0 1.682.906z"/></g></g><path d="M669.813 123.772l32.653-.356" class="D L M R S U"/><path d="M618.745 61.943h12.01l3.255 29.699c.18 1.646-1.11 3.084-2.767 3.084h-13.045c-1.659 0-2.95-1.441-2.766-3.089l3.313-29.694z" class="O"/><g clip-path="url(#K)" class="B P"><path d="M624.712 83.411l9.818-7.149c5.423-3.949 6.036-11.803 1.291-16.543l-3.434-3.431h-15.349l-3.434 3.431c-4.745 4.741-4.132 12.595 1.291 16.543l9.818 7.149z"/></g><path d="M624.721 60.863c0 4.247-1.688 8.321-4.694 11.324s-7.084 4.69-11.336 4.69h-16.123V66.29a16.01 16.01 0 0 1 4.694-11.326c3.006-3.002 7.084-4.69 11.336-4.69h16.123v10.589z" class="B K"/><g clip-path="url(#L)"><path d="M624.721 50.274L588.84 80.942h35.881V50.274z" class="B C"/><path d="M591.304 74.949l32.135-26.245 2.54 3.11-32.135 26.245z" class="H"/><g class="B"><g class="G"><path d="M605.965 78.613h4.019v-6.754a2.01 2.01 0 0 0-4.02 0v6.754zm8.038.297h4.019V65.582c0-1.108-.898-2.006-2.008-2.006h-.004c-1.109 0-2.008.898-2.008 2.006V78.91z" class="E"/></g><g class="C"><path d="M592.568 65.622v-3.803h6.135c.504 0 .989.201 1.346.558a1.9 1.9 0 0 1 .557 1.343h0c0 .506-.201.988-.557 1.345a1.9 1.9 0 0 1-1.346.556h-6.135zm0-7.818v-4.016h12.059c1.109 0 2.008.898 2.008 2.006v.004c0 1.108-.898 2.006-2.008 2.006h-12.059z" class="I"/></g></g></g><path d="M624.721 60.863c0 4.247 1.688 8.321 4.694 11.324s7.084 4.69 11.336 4.69h16.123V66.29a16.01 16.01 0 0 0-4.694-11.326c-3.006-3.002-7.084-4.69-11.336-4.69h-16.123v10.589z" class="B K"/><g clip-path="url(#M)"><path d="M624.721 50.274l35.88 30.668h-35.88V50.274z" class="B C"/><path d="M623.45 51.829l2.538-3.112 32.154 26.223-2.538 3.112z" class="H"/><g class="B"><g class="G"><path d="M643.477 78.613h-4.019v-6.754a2.01 2.01 0 0 1 4.02 0v6.754zm-8.038.297h-4.019V65.584c0-.532.211-1.042.589-1.42s.888-.588 1.421-.588 1.045.213 1.421.588a2.01 2.01 0 0 1 .589 1.42V78.91z" class="E"/></g><g class="C"><path d="M656.874 65.835v-4.016h-6.031a2 2 0 0 0-1.419.588c-.378.375-.589.885-.589 1.418v.004c0 .532.211 1.042.589 1.42a2.01 2.01 0 0 0 1.419.586h6.031zm0-8.031v-4.016h-12.057c-.533 0-1.045.213-1.421.588a2.01 2.01 0 0 0-.589 1.42 2 2 0 0 0 .589 1.42c.378.376.888.588 1.421.588h12.057z" class="I"/></g></g></g><path d="M624.712 76.878l9.63-7.012c5.319-3.873 5.92-11.576 1.266-16.226l-3.369-3.366h-15.055l-3.369 3.366c-4.654 4.65-4.053 12.353 1.266 16.226l9.63 7.012z" class="B H"/><g clip-path="url(#N)"><path d="M624.712 77.867h-15.193V49.055h15.193z" class="C"/><path d="M622.71 47.374h4.019v35.021h-4.019z" class="Q"/><g class="E C"><path d="M638.97 64.944c.654 0 1.298-.319 1.682-.906.61-.928.351-2.173-.578-2.78l-8.169-5.354a2.01 2.01 0 0 0-2.781.576c-.61.928-.351 2.173.578 2.78l8.169 5.354a1.99 1.99 0 0 0 1.099.329z"/></g><g class="E G"><path d="M610.473 64.944a2 2 0 0 0 1.099-.329l8.166-5.354c.929-.608 1.188-1.852.578-2.78s-1.845-1.19-2.781-.576l-8.166 5.354c-.929.608-1.188 1.852-.578 2.78a2.01 2.01 0 0 0 1.682.906z"/></g><path d="M638.97 74.099c.654 0 1.298-.319 1.682-.906.61-.928.351-2.173-.578-2.78l-8.169-5.354a2.01 2.01 0 0 0-2.781.576c-.61.928-.351 2.173.578 2.78l8.169 5.354a1.99 1.99 0 0 0 1.099.329z" class="C E"/><g class="E G"><path d="M610.473 74.099a2 2 0 0 0 1.099-.329l8.166-5.354c.929-.608 1.188-1.852.578-2.78s-1.845-1.19-2.781-.576l-8.166 5.354c-.929.608-1.188 1.852-.578 2.78a2.01 2.01 0 0 0 1.682.906z"/></g></g><path d="M608.395 94.726l32.652-.356" class="D L M R S U"/><path d="M548.025 95.367h12.01l3.255 29.699c.18 1.646-1.11 3.084-2.767 3.084h-13.045c-1.659 0-2.95-1.441-2.766-3.089l3.313-29.694z" class="O"/><g clip-path="url(#O)" class="B P"><path d="M553.992 116.836l9.818-7.149c5.423-3.949 6.036-11.803 1.291-16.543l-3.434-3.431h-15.349l-3.434 3.431c-4.745 4.741-4.132 12.595 1.291 16.543l9.818 7.149z"/></g><path d="M554.001 94.288c0 4.247-1.688 8.321-4.694 11.324s-7.084 4.69-11.336 4.69h-16.123V99.715a16.01 16.01 0 0 1 4.694-11.326c3.006-3.002 7.084-4.69 11.336-4.69h16.123v10.589z" class="B K"/><g clip-path="url(#P)"><path d="M554.001 83.698l-35.881 30.668h35.881V83.698z" class="B C"/><path d="M520.584 108.373l32.135-26.245 2.54 3.11-32.135 26.245z" class="H"/><g class="B"><g class="G"><path d="M535.245 112.037h4.019v-6.754a2.01 2.01 0 0 0-4.02 0v6.754zm8.038.297h4.019V99.006c0-1.108-.898-2.006-2.008-2.006h-.004c-1.109 0-2.008.898-2.008 2.006v13.328z" class="E"/></g><g class="C"><path d="M521.848 99.046v-3.803h6.135c.504 0 .989.201 1.346.558a1.9 1.9 0 0 1 .557 1.343h0c0 .506-.201.988-.557 1.345a1.9 1.9 0 0 1-1.346.556h-6.135zm0-7.818v-4.016h12.059c1.109 0 2.008.898 2.008 2.006v.004c0 1.108-.898 2.006-2.008 2.006h-12.059z" class="I"/></g></g></g><path d="M554.001 94.288c0 4.247 1.688 8.321 4.694 11.324s7.084 4.69 11.336 4.69h16.123V99.715a16.01 16.01 0 0 0-4.694-11.326c-3.006-3.002-7.084-4.69-11.336-4.69h-16.123v10.589z" class="B K"/><g clip-path="url(#Q)"><path d="M554.001 83.698l35.88 30.668h-35.88V83.698z" class="B C"/><path d="M552.73 85.253l2.538-3.112 32.154 26.223-2.538 3.112z" class="H"/><g class="B"><g class="G"><path d="M572.756 112.037h-4.019v-6.754a2.01 2.01 0 0 1 4.02 0v6.754zm-8.038.297h-4.019V99.008c0-.532.211-1.042.589-1.42s.888-.588 1.421-.588 1.045.213 1.421.588a2.01 2.01 0 0 1 .589 1.42v13.326z" class="E"/></g><g class="C"><path d="M586.153 99.259v-4.016h-6.031a2 2 0 0 0-1.419.588c-.378.375-.589.885-.589 1.418v.004c0 .532.211 1.042.589 1.42a2.01 2.01 0 0 0 1.419.586h6.031zm0-8.031v-4.016h-12.057c-.533 0-1.045.213-1.421.588a2.01 2.01 0 0 0-.589 1.42 2 2 0 0 0 .589 1.42c.378.376.888.588 1.421.588h12.057z" class="I"/></g></g></g><path d="M553.992 110.302l9.63-7.012c5.319-3.873 5.92-11.576 1.266-16.226l-3.369-3.366h-15.055l-3.369 3.366c-4.654 4.65-4.053 12.353 1.266 16.226l9.63 7.012z" class="B H"/><g clip-path="url(#R)"><path d="M553.992 111.292h-15.193V82.48h15.193z" class="C"/><path d="M551.99 80.798h4.019v35.021h-4.019z" class="Q"/><g class="E C"><path d="M568.25 98.368c.654 0 1.298-.319 1.682-.906.61-.928.351-2.173-.578-2.78l-8.169-5.354a2.01 2.01 0 0 0-2.781.576c-.61.928-.351 2.173.578 2.78l8.169 5.354a1.99 1.99 0 0 0 1.099.329z"/></g><g class="E G"><path d="M539.752 98.368a2 2 0 0 0 1.099-.329l8.166-5.354c.929-.608 1.188-1.852.578-2.78s-1.845-1.19-2.781-.576l-8.166 5.354c-.929.608-1.188 1.852-.578 2.78a2.01 2.01 0 0 0 1.682.906z"/></g><path d="M568.25 107.524c.654 0 1.298-.319 1.682-.906.61-.928.351-2.173-.578-2.78l-8.169-5.354a2.01 2.01 0 0 0-2.781.576c-.61.928-.351 2.173.578 2.78l8.169 5.354a1.99 1.99 0 0 0 1.099.329z" class="C E"/><g class="E G"><path d="M539.752 107.524a2 2 0 0 0 1.099-.329l8.166-5.354c.929-.608 1.188-1.852.578-2.78s-1.845-1.19-2.781-.576l-8.166 5.354c-.929.608-1.188 1.852-.578 2.78a2.01 2.01 0 0 0 1.682.906z"/></g></g><path d="M537.675 128.15l32.652-.356" class="D L M R S U"/><path d="M467.114 48.585h12.01l3.255 29.699c.18 1.646-1.11 3.084-2.767 3.084h-13.045c-1.659 0-2.95-1.441-2.766-3.089l3.313-29.694z" class="O"/><g clip-path="url(#S)" class="B P"><path d="M473.081 70.053l9.818-7.149c5.423-3.949 6.036-11.803 1.291-16.543l-3.434-3.431h-15.349l-3.434 3.431c-4.745 4.741-4.132 12.595 1.291 16.543l9.818 7.149z"/></g><path d="M473.089 47.505c0 4.247-1.688 8.321-4.694 11.324s-7.084 4.69-11.336 4.69h-16.123V52.932a16.01 16.01 0 0 1 4.694-11.326c3.006-3.002 7.084-4.69 11.336-4.69h16.123v10.589z" class="B K"/><g clip-path="url(#T)"><path d="M473.089 36.916l-35.88 30.668h35.88V36.916z" class="B C"/><path d="M439.673 61.592l32.135-26.245 2.54 3.11-32.135 26.245z" class="H"/><g class="B"><g class="G"><path d="M454.334 65.255h4.019v-6.754a2.01 2.01 0 0 0-4.02 0v6.754zm8.038.297h4.019V52.224c0-1.108-.898-2.006-2.008-2.006h-.004c-1.109 0-2.008.898-2.008 2.006v13.328z" class="E"/></g><g class="C"><path d="M440.937 52.264v-3.803h6.135c.504 0 .989.201 1.346.558a1.9 1.9 0 0 1 .557 1.343h0c0 .506-.201.988-.557 1.345a1.9 1.9 0 0 1-1.346.556h-6.135zm0-7.818V40.43h12.059c1.109 0 2.008.898 2.008 2.006v.004c0 1.108-.898 2.006-2.008 2.006h-12.059z" class="I"/></g></g></g><path d="M473.089 47.505c0 4.247 1.688 8.321 4.694 11.324s7.084 4.69 11.336 4.69h16.123V52.932a16.01 16.01 0 0 0-4.694-11.326c-3.006-3.002-7.084-4.69-11.336-4.69h-16.123v10.589z" class="B K"/><g clip-path="url(#U)"><path d="M473.089 36.916l35.881 30.668h-35.881V36.916z" class="B C"/><path d="M471.819 38.471l2.538-3.112 32.154 26.223-2.538 3.112z" class="H"/><g class="B"><g class="G"><path d="M491.845 65.255h-4.019v-6.754a2.01 2.01 0 0 1 4.02 0v6.754zm-8.038.297h-4.019V52.226c0-.532.211-1.042.589-1.42s.888-.588 1.421-.588 1.045.213 1.421.588a2.01 2.01 0 0 1 .589 1.42v13.326z" class="E"/></g><g class="C"><path d="M505.242 52.477v-4.016h-6.031a2 2 0 0 0-1.419.588c-.378.375-.589.885-.589 1.418v.004c0 .532.211 1.042.589 1.42a2.01 2.01 0 0 0 1.419.586h6.031zm0-8.031V40.43h-12.057c-.533 0-1.045.213-1.421.588a2.01 2.01 0 0 0-.589 1.42 2 2 0 0 0 .589 1.42c.378.376.888.588 1.421.588h12.057z" class="I"/></g></g></g><path d="M473.081 63.52l9.63-7.012c5.319-3.873 5.92-11.576 1.266-16.226l-3.369-3.366h-15.055l-3.369 3.366c-4.654 4.65-4.053 12.353 1.266 16.226l9.63 7.012z" class="B H"/><g clip-path="url(#V)"><path d="M473.08 64.509h-15.193V35.697h15.193z" class="C"/><path d="M471.079 34.016h4.019v35.021h-4.019z" class="Q"/><g class="E C"><path d="M487.338 51.586c.654 0 1.298-.319 1.682-.906.61-.928.351-2.173-.578-2.78l-8.169-5.354a2.01 2.01 0 0 0-2.781.576c-.61.928-.351 2.173.578 2.78l8.169 5.354a1.99 1.99 0 0 0 1.099.329z"/></g><g class="E G"><path d="M458.841 51.586a2 2 0 0 0 1.099-.329l8.166-5.354c.929-.608 1.188-1.852.578-2.78s-1.845-1.19-2.781-.576l-8.166 5.354c-.929.608-1.188 1.852-.578 2.78a2.01 2.01 0 0 0 1.682.906z"/></g><path d="M487.338 60.741c.654 0 1.298-.319 1.682-.906.61-.928.351-2.173-.578-2.78l-8.169-5.354a2.01 2.01 0 0 0-2.781.576c-.61.928-.351 2.173.578 2.78l8.169 5.354a1.99 1.99 0 0 0 1.099.329z" class="C E"/><g class="E G"><path d="M458.841 60.741a2 2 0 0 0 1.099-.329l8.166-5.354c.929-.608 1.188-1.852.578-2.78s-1.845-1.19-2.781-.576l-8.166 5.354c-.929.608-1.188 1.852-.578 2.78a2.01 2.01 0 0 0 1.682.906z"/></g></g><path d="M456.764 81.368l32.652-.356" class="D L M R S V"/><g fill="#efd35b"><ellipse cx="772.449" cy="21.646" rx="1.97" ry="1.966" transform="matrix(.90845 -.417994 .417994 .90845 61.669 324.86)" class="T"/><ellipse cx="774.997" cy="28.937" rx="1.97" ry="1.966" transform="matrix(.90845 -.417994 .417994 .90845 58.855 326.592)" class="T"/><ellipse cx="768.732" cy="28.685" rx="1.97" ry="1.966" transform="matrix(.90845 -.417994 .417994 .90845 58.387 323.95)" class="T"/><ellipse cx="776.351" cy="44.962" rx="1.97" ry="1.966" transform="matrix(.90845 -.417994 .417994 .90845 52.281 328.625)" class="T"/><ellipse cx="787.079" cy="37.103" rx="1.97" ry="1.966" transform="matrix(.90845 -.417994 .417994 .90845 56.548 332.39)" class="T"/></g><g class="B"><g fill="#d30c43"><use href="#AH"/><use href="#AI"/><path d="M343.353 18.394a1.1 1.1 0 0 0-1.097-1.097c-.605 0-1.096.491-1.096 1.096l.002 4.387a1.1 1.1 0 0 0 1.097 1.097 1.1 1.1 0 0 0 1.097-1.097l-.002-4.387z"/><path d="M344.451 21.685c.605 0 1.097-.491 1.096-1.096a1.1 1.1 0 0 0-1.097-1.097l-4.387-.002a1.1 1.1 0 0 0-1.097 1.097 1.1 1.1 0 0 0 1.097 1.097l4.387.002z"/><use href="#AJ"/><use href="#AK"/><path d="M240.562 92.816a1.1 1.1 0 0 0-1.551 0c-.428.427-.428 1.122 0 1.55l3.104 3.101a1.1 1.1 0 0 0 1.551 0 1.1 1.1 0 0 0 0-1.551l-3.104-3.1z"/><path d="M243.666 94.366c.428-.428.428-1.123 0-1.55a1.1 1.1 0 0 0-1.551 0l-3.104 3.1a1.1 1.1 0 0 0 0 1.551 1.1 1.1 0 0 0 1.551 0l3.104-3.101z"/></g><g fill="#fde617"><use href="#AL"/><use href="#AM"/><path d="M67.576 36.594a1.1 1.1 0 0 1 1.551 0c.428.427.428 1.122 0 1.55l-3.104 3.101a1.1 1.1 0 0 1-1.551 0 1.1 1.1 0 0 1 0-1.551l3.104-3.1z"/><path d="M64.472 38.145c-.428-.428-.428-1.123 0-1.55a1.1 1.1 0 0 1 1.551 0l3.104 3.1a1.1 1.1 0 0 1 0 1.551 1.1 1.1 0 0 1-1.551 0l-3.104-3.101z"/></g></g><g class="W X"><path d="M252.973 13.118c-.87 0-1.575-.706-1.575-1.579V6.595c0-.873.705-1.579 1.575-1.579s1.575.706 1.575 1.579v4.944c0 .873-.705 1.579-1.575 1.579z"/><use href="#AN"/><path d="M246.944 13.118c-.87 0-1.575-.706-1.575-1.579V8.244c0-.873.705-1.579 1.575-1.579s1.575.706 1.575 1.579v3.295c0 .873-.705 1.579-1.575 1.579zm23.775 13.049c-.87 0-1.575-.706-1.575-1.579v-4.944c0-.873.705-1.579 1.575-1.579s1.575.706 1.575 1.579v4.944c0 .873-.705 1.579-1.575 1.579z"/><use href="#AO"/><path d="M264.69,26.167c-.87,0-1.575-.706-1.575-1.579v-3.297c0-.873.705-1.579,1.575-1.579s1.575.706,1.575,1.579v3.297c0,.873-.705,1.579-1.575,1.579Z"/></g><g class="W X"><path d="M360.546,115.588c.87,0,1.575-.706,1.575-1.579v-4.944c0-.873-.705-1.579-1.575-1.579s-1.575.706-1.575,1.579v4.944c0,.873.705,1.579,1.575,1.579Z"/><use href="#AP"/><path d="M366.576 115.588c.87 0 1.575-.706 1.575-1.579v-3.295c0-.873-.705-1.579-1.575-1.579s-1.575.706-1.575 1.579v3.295c0 .873.705 1.579 1.575 1.579zm-23.775 13.049c.87 0 1.575-.706 1.575-1.579v-4.944c0-.873-.705-1.579-1.575-1.579s-1.575.706-1.575 1.579v4.944c0 .873.705 1.579 1.575 1.579z"/><use href="#AQ"/><path d="M348.829 128.637c.87 0 1.575-.706 1.575-1.579v-3.297c0-.873-.705-1.579-1.575-1.579s-1.575.706-1.575 1.579v3.297c0 .873.705 1.579 1.575 1.579zm-12.125-27.332c.87 0 1.575-.706 1.575-1.579v-4.944c0-.873-.705-1.579-1.575-1.579s-1.575.706-1.575 1.579v4.944c0 .873.705 1.579 1.575 1.579z"/><use href="#AR"/><path d="M342.733,101.305c.87,0,1.575-.706,1.575-1.579v-3.297c0-.873-.705-1.579-1.575-1.579s-1.575.706-1.575,1.579v3.297c0,.873.705,1.579,1.575,1.579Z"/></g><g class="W X"><path d="M37.506,114.971c-.87,0-1.575-.706-1.575-1.579v-4.944c0-.873.705-1.579,1.575-1.579s1.575.706,1.575,1.579v4.944c0,.873-.705,1.579-1.575,1.579Z"/><use href="#AS"/><path d="M31.476 114.971c-.87 0-1.575-.706-1.575-1.579v-3.295c0-.873.705-1.579 1.575-1.579s1.575.706 1.575 1.579v3.295c0 .873-.705 1.579-1.575 1.579zm23.775 13.048c-.87 0-1.575-.706-1.575-1.579v-4.944c0-.873.705-1.579 1.575-1.579s1.575.706 1.575 1.579v4.944c0 .873-.705 1.579-1.575 1.579z"/><use href="#AT"/><path d="M49.223 128.019c-.87 0-1.575-.706-1.575-1.579v-3.297c0-.873.705-1.579 1.575-1.579s1.575.706 1.575 1.579v3.297c0 .873-.705 1.579-1.575 1.579zm12.125-27.332c-.87 0-1.575-.706-1.575-1.579v-4.944c0-.873.705-1.579 1.575-1.579s1.575.706 1.575 1.579v4.944c0 .873-.705 1.579-1.575 1.579z"/><use href="#AU"/><path d="M55.319,100.687c-.87,0-1.575-.706-1.575-1.579v-3.297c0-.873.705-1.579,1.575-1.579s1.575.706,1.575,1.579v3.297c0,.873-.705,1.579-1.575,1.579Z"/></g><path d="M132.764 54.419h12.01l3.255 29.699c.18 1.646-1.11 3.084-2.767 3.084h-13.045c-1.659 0-2.95-1.441-2.766-3.089l3.313-29.694z" class="O"/><g clip-path="url(#W)" class="B P"><path d="M138.731 75.888l9.818-7.149c5.423-3.949 6.036-11.803 1.291-16.543l-3.434-3.431h-15.349l-3.434 3.431c-4.745 4.741-4.132 12.595 1.291 16.543l9.818 7.149z"/></g><path d="M138.74 53.34c0 4.247-1.688 8.321-4.694 11.324s-7.084 4.69-11.336 4.69h-16.123V58.767a16.01 16.01 0 0 1 4.694-11.326c3.006-3.002 7.084-4.69 11.336-4.69h16.123V53.34z" class="B K"/><g clip-path="url(#X)"><path d="M138.74 42.75l-35.881 30.668h35.881V42.75z" class="B C"/><path d="M105.326 67.429l32.135-26.245 2.54 3.11-32.135 26.245z" class="H"/><g class="B"><g class="G"><path d="M119.984 71.089h4.019v-6.754a2.01 2.01 0 1 0-4.02 0v6.754zm8.038.297h4.019V58.058c0-1.108-.898-2.006-2.008-2.006h-.004c-1.109 0-2.008.898-2.008 2.006v13.328z" class="E"/></g><g class="C"><path d="M106.587 58.098v-3.803h6.135c.504 0 .989.201 1.346.558a1.9 1.9 0 0 1 .557 1.343h0c0 .506-.201.988-.557 1.345a1.9 1.9 0 0 1-1.346.556h-6.135zm0-7.818v-4.016h12.059c1.109 0 2.008.898 2.008 2.006v.004c0 1.108-.898 2.006-2.008 2.006h-12.059z" class="I"/></g></g></g><path d="M138.74 53.34c0 4.247 1.688 8.321 4.694 11.324s7.084 4.69 11.336 4.69h16.123V58.767a16.01 16.01 0 0 0-4.694-11.326c-3.006-3.002-7.084-4.69-11.336-4.69H138.74V53.34z" class="B K"/><g clip-path="url(#Y)"><path d="M138.74 42.75l35.88 30.668h-35.88V42.75z" class="B C"/><path d="M137.47 44.306l2.538-3.112 32.154 26.223-2.538 3.112z" class="H"/><g class="B"><g class="G"><path d="M157.496 71.089h-4.019v-6.754a2.01 2.01 0 0 1 4.02 0v6.754zm-8.039.297h-4.019V58.06c0-.532.211-1.042.589-1.42s.888-.588 1.421-.588 1.045.213 1.421.588a2.01 2.01 0 0 1 .589 1.42v13.326z" class="E"/></g><g class="C"><path d="M170.893 58.311v-4.016h-6.031a2 2 0 0 0-1.419.588c-.378.375-.589.885-.589 1.418v.004c0 .532.211 1.042.589 1.42a2.01 2.01 0 0 0 1.419.586h6.031zm0-8.031v-4.016h-12.057c-.533 0-1.045.213-1.421.588a2.01 2.01 0 0 0-.589 1.42 2 2 0 0 0 .589 1.42c.378.376.888.588 1.421.588h12.057z" class="I"/></g></g></g><path d="M138.731 69.354l9.63-7.012c5.319-3.873 5.92-11.576 1.266-16.226l-3.369-3.366h-15.055l-3.369 3.366c-4.654 4.65-4.053 12.353 1.266 16.226l9.63 7.012z" class="B H"/><g clip-path="url(#Z)"><path d="M138.731 70.343h-15.193V41.531h15.193z" class="C"/><path d="M136.729 39.85h4.019v35.021h-4.019z" class="Q"/><g class="E C"><path d="M152.989 57.42c.654 0 1.298-.319 1.682-.906.61-.928.351-2.173-.578-2.78l-8.169-5.354a2.01 2.01 0 0 0-2.781.576c-.61.928-.351 2.173.578 2.78l8.169 5.354a1.99 1.99 0 0 0 1.099.329z"/></g><g class="E G"><path d="M124.491 57.42a2 2 0 0 0 1.099-.329l8.166-5.354c.929-.608 1.188-1.852.578-2.78s-1.845-1.19-2.781-.576l-8.166 5.354c-.929.608-1.188 1.852-.578 2.78a2.01 2.01 0 0 0 1.682.906z"/></g><path d="M152.989 66.576c.654 0 1.298-.319 1.682-.906.61-.928.351-2.173-.578-2.78l-8.169-5.354a2.01 2.01 0 0 0-2.781.576c-.61.928-.351 2.173.578 2.78l8.169 5.354a1.99 1.99 0 0 0 1.099.329z" class="C E"/><g class="E G"><path d="M124.491 66.576a2 2 0 0 0 1.099-.329l8.166-5.354c.929-.608 1.188-1.852.578-2.78s-1.845-1.19-2.781-.576l-8.166 5.354c-.929.608-1.188 1.852-.578 2.78a2.01 2.01 0 0 0 1.682.906z"/></g></g><path d="M122.414 87.202l32.652-.356" class="D L M R S V"/><g fill="#e87100"><path d="M212.915 41.747l-2.514-3.234-.405-1.309-.347-1.569c-.181-1.042-.242-2.074-.142-2.984l.004-.039h0a2.082 2.082 0 1 0-4.139-.455c-.163 1.478-.052 2.862.172 4.182l.429 1.943.618 1.937h0l.201.4a.93.93 0 0 0 .303.347l3.949 2.75c.48.334 1.142.336 1.629-.042.599-.465.708-1.328.242-1.927zm-13.121-.829h0c-.157-1.055-.503-1.905-.882-2.7l-.619-1.143-.733-1.115-.063-.085c-.08-.106-.171-.207-.273-.3a2.1 2.1 0 0 0-2.962.146c-.777.858-.712 2.182.146 2.959.184.166.436.441.642.677l.605.755c.335.455.609.926.774 1.324l-.261 1.87c-.079.569.219 1.147.77 1.397.671.304 1.461.007 1.765-.663l1.056-2.327a.89.89 0 0 0 .073-.477l-.039-.318z"/></g><path d="M200.806 31.966l-4.115 1.845-1.788.802a2.48 2.48 0 0 0-1.248 3.278l.231.515a1.92 1.92 0 0 0 2.534.963h0c.329-.148.693-.199 1.051-.149l2.341.328a9.23 9.23 0 0 0 5.058-.719h0a6.84 6.84 0 0 0 3.442-9.039h0a1.09 1.09 0 0 0-1.436-.546l-6.069 2.721z" class="Y"/><path d="M207.254 43.005l-2.487-3.606.015-1.268c.027-.602.085-1.194.177-1.757s.224-1.094.395-1.536c.166-.442.387-.773.531-.904l.015-.013.023-.021a2.08 2.08 0 0 0 .086-2.941c-.789-.836-2.107-.874-2.944-.086s-1.281 1.668-1.597 2.471c-.31.811-.488 1.59-.617 2.352a19.24 19.24 0 0 0-.228 2.244l.009 2.252h0l.057.398c.047.325.21.634.483.86l4.077 3.387c.461.382 1.138.431 1.655.075a1.37 1.37 0 0 0 .351-1.906z" fill="#f09c3a"/><path d="M209.025,25.164h-.224c-3.008,0-5.446,2.436-5.446,5.442h0c0,1.048.1,2.093.298,3.121l.078.405c.099.515.551.887,1.076.887h8.213c.525,0,.976-.372,1.076-.887l.078-.405c.198-1.029.298-2.074.298-3.121h0c0-3.005-2.438-5.442-5.446-5.442Z" class="Y"/><rect x="207.639" y="26.537" width="5.53" height="7.143" rx="2.764" transform="matrix(.999995 -.003211 .003211 .999995 -.096 .677)" fill="#f2b474"/><g fill="#723800"><circle cx="212.141" cy="29.598" r=".761"/><circle cx="209.603" cy="29.625" r=".761"/></g><path d="M179.14 44.27c-3.441 0-6.622-.834-6.815-.886a.91.91 0 0 1-.643-1.112.91.91 0 0 1 1.113-.643c.063.017 6.378 1.67 10.369.247 2.855-1.017 4.729-2.471 6.542-3.877 1.417-1.099 2.882-2.235 4.772-3.141a.91.91 0 0 1 1.213.426.91.91 0 0 1-.427 1.212c-1.716.823-3.041 1.85-4.443 2.938-1.926 1.494-3.917 3.038-7.046 4.153-1.423.507-3.056.682-4.634.682z" class="Y"/><path d="M197.843 38.342l-.102-1.177-.013-.099a2.06 2.06 0 0 0-.101-.415 2.1 2.1 0 0 0-2.677-1.279c-1.093.385-1.666 1.583-1.28 2.674a11.09 11.09 0 0 1 .244.847l.195.88c.103.53.151 1.066.145 1.42l-1.166 2.168a1.33 1.33 0 0 0 2.155 1.522l2.025-2.229a.88.88 0 0 0 .187-.328l.073-.24h0c.152-.499.22-.939.27-1.364s.063-.821.07-1.218l-.025-1.161z" fill="#f09c3a"/><g class="B"><path d="M160.467 188.703a4.19 4.19 0 0 1-3.09-1.36 4.18 4.18 0 0 1-1.081-3.196L172.033 7.911c.307-3.439 3.19-6.055 6.646-6.055h14.45c3.471 0 6.363 2.658 6.651 6.114l2.827 33.895h10.278c1.881 0 3.597 1.054 4.438 2.735l4.647 9.287c.434.867.685 1.813.739 2.781l3.256 58.547 18.185 5.191a7.13 7.13 0 0 1 5.173 6.857v57.255c0 1.11-.441 2.174-1.227 2.958s-1.85 1.226-2.961 1.226h-84.669z" fill="#797188"/><path d="M179.985 135.098c0-3.683 2.988-6.668 6.674-6.668s6.674 2.985 6.674 6.668v53.605h-13.348v-53.605z" fill="#695e7f"/></g><g clip-path="url(#a)" class="B"><path d="M145.742 11.879v-28.896c0-3.348 2.716-6.062 6.067-6.062h1.113c3.351 0 6.067-2.714 6.067-6.062v-20.586c0-3.348 2.716-6.062 6.067-6.062h4.85c3.351 0 6.067-2.714 6.067-6.062v-13.057c0-3.348 2.716-6.062 6.067-6.062h15.21c3.351 0 6.067 2.714 6.067 6.062l-.002 66.971c0 3.249 2.635 5.883 5.887 5.883h.152c3.381 0 6.098-2.688 6.098-6.037V-27.97c0-3.348 2.716-6.036 6.067-6.036h15.21c3.351 0 6.067 2.714 6.067 6.062v14.786c0 3.348 2.716 6.062 6.067 6.062h3.076c3.351 0 6.067 2.714 6.067 6.062v152.579c0 3.348-2.716 6.062-6.067 6.062h-6.314c-3.351 0-6.067-2.714-6.067-6.062v-14.786c0-3.348-2.716-6.062-6.067-6.062H217.74c-7.372 0-13.348-5.971-13.348-13.336V86.927c0-3.348-2.716-6.062-6.067-6.062h-3.435c-3.351 0-6.067-2.714-6.067-6.062V59.964c0-3.348-2.716-6.062-6.067-6.062h.165c-3.351 0-6.067 2.714-6.067 6.062v42.887c0 3.348-2.716 6.062-6.067 6.062h-2.267c-3.351 0-6.067 2.714-6.067 6.062l-1.782 20.587c0 3.348-2.716 6.062-6.067 6.062h-4.672c-3.351 0-6.067 2.714-6.067 6.062v28.896c0 3.348-2.716 6.062-6.067 6.062h-2.794c-3.351 0-6.067-2.714-6.067-6.062V24.003c0-3.348 2.716-6.062 6.067-6.062h4.672c3.351 0 6.067-2.714 6.067-6.062z" fill="#128a4c"/><g fill="#0b6a37"><path d="M201.791 55.161c-3.686 0-6.674-2.985-6.674-6.668s2.988-6.668 6.674-6.668h31.701v13.336h-31.701zm18.344 58.411a6.67 6.67 0 0 1-4.614-8.227c1-3.545 4.686-5.609 8.234-4.61l30.513 8.59-3.62 12.837-30.513-8.59z"/></g></g><g stroke="#1fc8cc" stroke-width="3" class="D L M"><path d="M846.766 82.048h8.135m17.448 0h-9.538m-22.907 0h.566m17.967-10.34h-3.371m-11.224 0h-.566m547.892 2.816h8.135m17.448 0h-9.537m-22.907 0h.566m17.967-10.339h-3.372m-11.223 0h-.566"/></g></g></svg>