<svg xmlns="http://www.w3.org/2000/svg" width="1500" height="145" xmlns:v="https://vecta.io/nano"><style><![CDATA[.B{fill-rule:evenodd}.C{fill:#7e9e00}.D{opacity:.5}.E{fill:none}.F{fill:#3f7c37}.G{clip-rule:evenodd}.H{fill:#bad000}.I{opacity:.75}.J{fill:#a7c000}.K{stroke-linecap:round}.L{stroke-linejoin:round}.M{fill:#704a45}.N{fill:#5d4136}.O{fill:#d4e214}.P{opacity:.6}.Q{stroke:#40c43e}.R{stroke:#27ac23}.S{stroke-dasharray:0 4.238}.T{stroke-width:4.238}.U{stroke-dasharray:0 6.368}.V{stroke-width:6.368}.W{stroke-linejoin:bevel}.X{stroke-width:4.978}.Y{stroke-width:5.973}]]></style><defs><clipPath id="A"><path d="M0 0h1500v145H0z" class="E"/></clipPath><clipPath id="B"><path d="M290.441 126.844h12.01l3.255 29.699c.18 1.646-1.11 3.084-2.767 3.084h-13.045c-1.659 0-2.95-1.441-2.766-3.089l3.313-29.694z" class="E"/></clipPath><clipPath id="C"><path d="M296.417 125.765c0 4.247-1.688 8.321-4.694 11.324s-7.084 4.69-11.336 4.69h-16.123v-10.587a16.01 16.01 0 0 1 4.694-11.326c3.006-3.002 7.084-4.69 11.336-4.69h16.123v10.589z" class="E G"/></clipPath><clipPath id="D"><path d="M296.417 125.765c0 4.247 1.688 8.321 4.694 11.324s7.084 4.69 11.336 4.69h16.123v-10.587a16.01 16.01 0 0 0-4.694-11.326c-3.006-3.002-7.084-4.69-11.336-4.69h-16.123v10.589z" class="E G"/></clipPath><clipPath id="E"><path d="M296.408 141.779l9.63-7.012c5.319-3.873 5.92-11.576 1.266-16.226l-3.369-3.366H288.88l-3.369 3.366c-4.654 4.65-4.053 12.353 1.266 16.226l9.63 7.012z" class="E G"/></clipPath><clipPath id="F"><path d="M150.304 125.008h12.01l3.255 29.699c.18 1.646-1.11 3.084-2.767 3.084h-13.045c-1.659 0-2.95-1.441-2.766-3.089l3.313-29.694z" class="E"/></clipPath><clipPath id="G"><path d="M156.28 123.928c0 4.247-1.688 8.321-4.694 11.324s-7.084 4.69-11.336 4.69h-16.123v-10.587a16.01 16.01 0 0 1 4.694-11.326c3.006-3.002 7.084-4.69 11.336-4.69h16.123v10.589z" class="E G"/></clipPath><clipPath id="H"><path d="M156.28 123.928c0 4.247 1.688 8.321 4.694 11.324s7.084 4.69 11.336 4.69h16.123v-10.587a16.01 16.01 0 0 0-4.694-11.326c-3.006-3.002-7.084-4.69-11.336-4.69H156.28v10.589z" class="E G"/></clipPath><clipPath id="I"><path d="M156.271 139.943l9.63-7.012c5.319-3.873 5.92-11.576 1.266-16.226l-3.369-3.366h-15.055l-3.369 3.366c-4.654 4.65-4.053 12.353 1.266 16.226l9.63 7.012z" class="E G"/></clipPath><clipPath id="J"><path d="M791.444 28.006h8.24l2.233 20.376a1.91 1.91 0 0 1-1.898 2.116h-8.95a1.91 1.91 0 0 1-1.898-2.119l2.273-20.372z" class="E"/></clipPath><clipPath id="K"><path d="M795.543 27.265a10.98 10.98 0 0 1-3.221 7.769c-2.063 2.061-4.86 3.218-7.777 3.218h-11.061v-7.264c0-2.915 1.158-5.71 3.221-7.771a11.01 11.01 0 0 1 7.777-3.218h11.061v7.265z" class="E G"/></clipPath><clipPath id="L"><path d="M795.543 27.265a10.98 10.98 0 0 0 3.221 7.769c2.063 2.061 4.86 3.218 7.777 3.218h11.061v-7.264c0-2.915-1.158-5.71-3.221-7.771a11.01 11.01 0 0 0-7.777-3.218h-11.061v7.265z" class="E G"/></clipPath><clipPath id="M"><path d="M795.537 38.253l6.607-4.811c3.649-2.657 4.062-7.942.869-11.132l-2.311-2.309h-10.329l-2.311 2.309c-3.193 3.19-2.78 8.475.869 11.132l6.607 4.811z" class="E G"/></clipPath><clipPath id="N"><path d="M95.911 117.765h8.24l2.233 20.376a1.91 1.91 0 0 1-1.898 2.116h-8.95a1.91 1.91 0 0 1-1.898-2.119l2.273-20.372z" class="E"/></clipPath><clipPath id="O"><path d="M100.011 117.024a10.98 10.98 0 0 1-3.221 7.769c-2.063 2.061-4.86 3.218-7.777 3.218H77.952v-7.264c0-2.915 1.158-5.71 3.221-7.771a11.01 11.01 0 0 1 7.777-3.218h11.061v7.265z" class="E G"/></clipPath><clipPath id="P"><path d="M100.011 117.024a10.98 10.98 0 0 0 3.221 7.769c2.063 2.061 4.86 3.218 7.777 3.218h11.061v-7.264c0-2.915-1.158-5.71-3.221-7.771a11.01 11.01 0 0 0-7.777-3.218h-11.061v7.265z" class="E G"/></clipPath><clipPath id="Q"><path d="M100.005 128.011l6.607-4.811c3.649-2.657 4.062-7.942.869-11.132l-2.311-2.309H94.841l-2.311 2.309c-3.193 3.19-2.78 8.475.869 11.132l6.607 4.811z" class="E G"/></clipPath><clipPath id="R"><path d="M817.662 54.224h8.24l2.233 20.376a1.91 1.91 0 0 1-1.898 2.116h-8.95a1.91 1.91 0 0 1-1.898-2.119l2.273-20.372z" class="E"/></clipPath><clipPath id="S"><path d="M821.762 53.484a10.98 10.98 0 0 1-3.221 7.769c-2.063 2.061-4.86 3.218-7.777 3.218h-11.061v-7.264c0-2.915 1.158-5.71 3.221-7.771a11.01 11.01 0 0 1 7.777-3.218h11.061v7.265z" class="E G"/></clipPath><clipPath id="T"><path d="M821.762 53.484a10.98 10.98 0 0 0 3.221 7.769c2.063 2.061 4.86 3.218 7.777 3.218h11.061v-7.264c0-2.915-1.158-5.71-3.221-7.771a11.01 11.01 0 0 0-7.777-3.218h-11.061v7.265z" class="E G"/></clipPath><clipPath id="U"><path d="M821.755 64.471l6.607-4.811c3.649-2.657 4.062-7.942.869-11.132l-2.311-2.309h-10.329l-2.311 2.309c-3.193 3.19-2.78 8.475.869 11.132l6.607 4.811z" class="E G"/></clipPath><clipPath id="V"><path d="M634.03 58.304l-27.32-24.186h-1.796l-27.32 24.186V80.68a1.98 1.98 0 0 0 .581 1.401c.373.373.878.582 1.404.582h52.466c.526 0 1.031-.209 1.404-.582a1.98 1.98 0 0 0 .581-1.401V58.304z" class="E G"/></clipPath><clipPath id="W"><path d="M564.8 86.881h12.01l3.255 29.699c.18 1.646-1.11 3.084-2.767 3.084h-13.045c-1.659 0-2.95-1.441-2.766-3.089l3.313-29.694z" class="E"/></clipPath><clipPath id="X"><path d="M570.776 85.802c0 4.247-1.688 8.321-4.694 11.324s-7.084 4.69-11.336 4.69h-16.123V91.229a16.01 16.01 0 0 1 4.694-11.326c3.006-3.002 7.084-4.69 11.336-4.69h16.123v10.589z" class="E G"/></clipPath><clipPath id="Y"><path d="M570.776 85.802c0 4.247 1.688 8.321 4.694 11.324s7.084 4.69 11.336 4.69h16.123V91.229a16.01 16.01 0 0 0-4.694-11.326c-3.006-3.002-7.084-4.69-11.336-4.69h-16.123v10.589z" class="E G"/></clipPath><clipPath id="Z"><path d="M570.767 101.817l9.63-7.012c5.319-3.873 5.92-11.576 1.266-16.226l-3.369-3.366h-15.055l-3.369 3.366c-4.654 4.65-4.053 12.353 1.266 16.226l9.63 7.012z" class="E G"/></clipPath><clipPath id="a"><path d="M722.798 58.304l-27.32-24.186h-1.796l-27.32 24.186V80.68a1.98 1.98 0 0 0 .581 1.401c.373.373.878.582 1.404.582h52.466c.526 0 1.031-.209 1.404-.582a1.98 1.98 0 0 0 .581-1.401V58.304z" class="E G"/></clipPath><clipPath id="b"><path d="M673.437 86.881h12.01l3.255 29.699c.18 1.646-1.11 3.084-2.767 3.084H672.89c-1.659 0-2.95-1.441-2.766-3.089l3.313-29.694z" class="E"/></clipPath><clipPath id="c"><path d="M679.413 85.802c0 4.247-1.688 8.321-4.694 11.324s-7.084 4.69-11.336 4.69H647.26V91.229a16.01 16.01 0 0 1 4.694-11.326c3.006-3.002 7.084-4.69 11.336-4.69h16.123v10.589z" class="E G"/></clipPath><clipPath id="d"><path d="M679.413 85.802c0 4.247 1.688 8.321 4.694 11.324s7.084 4.69 11.336 4.69h16.123V91.229a16.01 16.01 0 0 0-4.694-11.326c-3.006-3.002-7.084-4.69-11.336-4.69h-16.123v10.589z" class="E G"/></clipPath><clipPath id="e"><path d="M679.404 101.817l9.63-7.012c5.319-3.873 5.92-11.576 1.266-16.226l-3.369-3.366h-15.055l-3.369 3.366c-4.654 4.65-4.053 12.353 1.266 16.226l9.63 7.012z" class="E G"/></clipPath><clipPath id="f"><path d="M621.415 119.173h12.01l3.255 29.699c.18 1.646-1.11 3.084-2.767 3.084h-13.045c-1.659 0-2.95-1.441-2.766-3.089l3.313-29.694z" class="E"/></clipPath><clipPath id="g"><path d="M627.391 118.094c0 4.247-1.688 8.321-4.694 11.324s-7.084 4.69-11.336 4.69h-16.123v-10.587a16.01 16.01 0 0 1 4.694-11.326c3.006-3.002 7.084-4.69 11.336-4.69h16.123v10.589z" class="E G"/></clipPath><clipPath id="h"><path d="M627.391 118.094c0 4.247 1.688 8.321 4.694 11.324s7.084 4.69 11.336 4.69h16.123v-10.587a16.01 16.01 0 0 0-4.694-11.326c-3.006-3.002-7.084-4.69-11.336-4.69h-16.123v10.589z" class="E G"/></clipPath><clipPath id="i"><path d="M627.382 134.108l9.63-7.012c5.319-3.873 5.92-11.576 1.266-16.226l-3.369-3.366h-15.055l-3.369 3.366c-4.654 4.65-4.053 12.353 1.266 16.226l9.63 7.012z" class="E G"/></clipPath><path id="j" d="M771.726,112.606c.87,0,1.575-.706,1.575-1.579v-3.295c0-.873-.705-1.579-1.575-1.579s-1.575.706-1.575,1.579v3.295c0,.873.705,1.579,1.575,1.579Z"/><path id="k" d="M760.557 125.654c.87 0 1.575-.706 1.575-1.579v-4.944c0-.873-.705-1.579-1.575-1.579s-1.575.706-1.575 1.579v4.944c0 .873.705 1.579 1.575 1.579z"/><path id="l" d="M753.98,125.654c.87,0,1.575-.706,1.575-1.579v-3.297c0-.873-.705-1.579-1.575-1.579s-1.575.706-1.575,1.579v3.297c0,.873.705,1.579,1.575,1.579Z"/><path id="m" d="M747.883,98.322c.87,0,1.575-.706,1.575-1.579v-3.297c0-.873-.705-1.579-1.575-1.579s-1.575.706-1.575,1.579v3.297c0,.873.705,1.579,1.575,1.579Z"/><path id="n" d="M272.808,68.603c.87,0,1.575-.706,1.575-1.579v-3.295c0-.873-.705-1.579-1.575-1.579s-1.575.706-1.575,1.579v3.295c0,.873.705,1.579,1.575,1.579Z"/><path id="o" d="M255.062,81.652c.87,0,1.575-.706,1.575-1.579v-3.297c0-.873-.705-1.579-1.575-1.579s-1.575.706-1.575,1.579v3.297c0,.873.705,1.579,1.575,1.579Z"/><path id="p" d="M248.965,54.32c.87,0,1.575-.706,1.575-1.579v-3.297c0-.873-.705-1.579-1.575-1.579s-1.575.706-1.575,1.579v3.297c0,.873.705,1.579,1.575,1.579Z"/><path id="q" d="M164.505,74.065c-.87,0-1.575-.706-1.575-1.579v-3.295c0-.873.705-1.579,1.575-1.579s1.575.706,1.575,1.579v3.295c0,.873-.705,1.579-1.575,1.579Z"/><path id="r" d="M182.251,87.113c-.87,0-1.575-.706-1.575-1.579v-3.297c0-.873.705-1.579,1.575-1.579s1.575.706,1.575,1.579v3.297c0,.873-.705,1.579-1.575,1.579Z"/><path id="s" d="M188.348,59.781c-.87,0-1.575-.706-1.575-1.579v-3.297c0-.873.705-1.579,1.575-1.579s1.575.706,1.575,1.579v3.297c0,.873-.705,1.579-1.575,1.579Z"/><path id="t" d="M999.866,48.358c-.87,0-1.575-.706-1.575-1.579v-3.295c0-.873.705-1.579,1.575-1.579s1.575.706,1.575,1.579v3.295c0,.873-.705,1.579-1.575,1.579Z"/><path id="u" d="M1017.612 61.406c-.87 0-1.575-.706-1.575-1.579V56.53c0-.873.705-1.579 1.575-1.579s1.575.706 1.575 1.579v3.297c0 .873-.705 1.579-1.575 1.579z"/><path id="v" d="M1023.709,34.075c-.87,0-1.575-.706-1.575-1.579v-3.297c0-.873.705-1.579,1.575-1.579s1.575.706,1.575,1.579v3.297c0,.873-.705,1.579-1.575,1.579Z"/><path id="w" d="M290.441 126.844h12.01l3.255 29.699c.18 1.646-1.11 3.084-2.767 3.084h-13.045c-1.659 0-2.95-1.441-2.766-3.089l3.313-29.694z"/><path id="x" d="M296.408 148.312l9.818-7.149c5.423-3.949 6.036-11.803 1.291-16.543l-3.434-3.431h-15.349l-3.434 3.431c-4.745 4.741-4.132 12.595 1.291 16.543l9.818 7.149z"/><path id="y" d="M296.417 125.765c0 4.247-1.688 8.321-4.694 11.324s-7.084 4.69-11.336 4.69h-16.123v-10.587a16.01 16.01 0 0 1 4.694-11.326c3.006-3.002 7.084-4.69 11.336-4.69h16.123v10.589z"/><path id="z" d="M296.417 115.175l-35.881 30.668h35.881v-30.668z"/><path id="AA" d="M263.002 139.852l32.135-26.245 2.54 3.11-32.135 26.245z"/><path id="AB" d="M277.661 143.514h4.019v-6.754a2.01 2.01 0 0 0-4.02 0v6.754z"/><path id="AC" d="M285.699 143.811h4.019v-13.328c0-1.108-.898-2.006-2.008-2.006h-.004c-1.109 0-2.008.898-2.008 2.006v13.328z"/><path id="AD" d="M264.264 130.523v-3.803h6.135c.504 0 .989.201 1.346.558a1.9 1.9 0 0 1 .557 1.343h0c0 .506-.201.988-.557 1.345s-.842.556-1.346.556h-6.135z"/><path id="AE" d="M264.264 122.705v-4.016h12.059c1.109 0 2.008.898 2.008 2.006v.004c0 1.108-.898 2.006-2.008 2.006h-12.059z"/><path id="AF" d="M296.417 125.765c0 4.247 1.688 8.321 4.694 11.324s7.084 4.69 11.336 4.69h16.123v-10.587a16.01 16.01 0 0 0-4.694-11.326c-3.006-3.002-7.084-4.69-11.336-4.69h-16.123v10.589z"/><path id="AG" d="M296.417 115.175l35.88 30.668h-35.88v-30.668z"/><path id="AH" d="M295.147 116.73l2.538-3.112 32.154 26.223-2.538 3.112z"/><path id="AI" d="M315.173 143.514h-4.019v-6.754a2.01 2.01 0 0 1 4.02 0v6.754z"/><path id="AJ" d="M307.135 143.811h-4.019v-13.326c0-.532.211-1.042.589-1.42s.888-.588 1.421-.588 1.045.213 1.421.588.589.887.589 1.42v13.326z"/><path id="AK" d="M328.57 130.736v-4.016h-6.031a2 2 0 0 0-1.419.588c-.378.375-.589.885-.589 1.418v.004c0 .532.211 1.042.589 1.42a2.01 2.01 0 0 0 1.419.586h6.031z"/><path id="AL" d="M328.57 122.705v-4.016h-12.057c-.533 0-1.045.213-1.421.588s-.589.887-.589 1.42.211 1.044.589 1.42.888.588 1.421.588h12.057z"/><path id="AM" d="M294.406 112.275h4.019v35.021h-4.019z"/><path id="AN" d="M310.666 129.845c.654 0 1.298-.319 1.682-.906.61-.928.351-2.173-.578-2.78l-8.169-5.354a2.01 2.01 0 0 0-2.781.576c-.61.928-.351 2.173.578 2.78l8.169 5.354a1.99 1.99 0 0 0 1.099.329z"/><path id="AO" d="M282.169 129.845a2 2 0 0 0 1.099-.329l8.166-5.354c.929-.608 1.188-1.852.578-2.78s-1.845-1.19-2.781-.576l-8.166 5.354c-.929.608-1.188 1.852-.578 2.78a2.01 2.01 0 0 0 1.682.906z"/><path id="AP" d="M156.271 139.943l9.63-7.012c5.319-3.873 5.92-11.576 1.266-16.226l-3.369-3.366h-15.055l-3.369 3.366c-4.654 4.65-4.053 12.353 1.266 16.226l9.63 7.012z"/><path id="AQ" d="M791.444 28.006h8.24l2.233 20.376a1.91 1.91 0 0 1-1.898 2.116h-8.95a1.91 1.91 0 0 1-1.898-2.119l2.273-20.372z"/><path id="AR" d="M795.543 27.265a10.98 10.98 0 0 1-3.221 7.769c-2.063 2.061-4.86 3.218-7.777 3.218h-11.061v-7.264c0-2.915 1.158-5.71 3.221-7.771a11.01 11.01 0 0 1 7.777-3.218h11.061v7.265z"/><path id="AS" d="M772.614 36.926l22.047-18.006 1.743 2.135-22.047 18.006z"/><path id="AT" d="M782.675 39.443h2.757v-4.634a1.38 1.38 0 0 0-1.379-1.378 1.38 1.38 0 0 0-1.379 1.378v4.634z"/><path id="AU" d="M788.19 39.647h2.757v-9.144c0-.76-.616-1.376-1.377-1.376h-.003c-.761 0-1.377.616-1.377 1.376v9.144z"/><path id="AV" d="M773.484 30.53v-2.609h4.209a1.31 1.31 0 0 1 .924.383c.244.244.382.576.382.922h0c0 .347-.138.678-.382.923s-.578.382-.924.382h-4.209z"/><path id="AW" d="M773.484 25.166v-2.755h8.274c.761 0 1.377.616 1.377 1.376v.003c0 .76-.616 1.376-1.377 1.376h-8.274z"/><path id="AX" d="M795.543 27.265a10.98 10.98 0 0 0 3.221 7.769c2.063 2.061 4.86 3.218 7.777 3.218h11.061v-7.264c0-2.915-1.158-5.71-3.221-7.771a11.01 11.01 0 0 0-7.777-3.218h-11.061v7.265z"/><path id="AY" d="M794.669 21.065l1.742-2.136 22.06 17.991-1.742 2.136z"/><path id="AZ" d="M808.411 39.443h-2.757v-4.634a1.38 1.38 0 0 1 1.379-1.378 1.38 1.38 0 0 1 1.379 1.378v4.634z"/><path id="Aa" d="M802.896 39.647h-2.757v-9.143c0-.365.145-.715.404-.974a1.38 1.38 0 0 1 1.95 0c.259.259.404.609.404.974v9.143z"/><path id="Ab" d="M817.603 30.676v-2.755h-4.137a1.37 1.37 0 0 0-.973.404c-.259.258-.404.608-.404.973v.003c0 .365.145.715.404.974s.608.402.973.402h4.137z"/><path id="Ac" d="M817.603 25.166v-2.755h-8.272a1.38 1.38 0 0 0-.975.404c-.259.259-.404.609-.404.974s.145.716.404.974.609.404.975.404h8.272z"/><path id="Ad" d="M795.537 38.253l6.607-4.811c3.649-2.657 4.062-7.942.869-11.132l-2.311-2.309h-10.329l-2.311 2.309c-3.193 3.19-2.78 8.475.869 11.132l6.607 4.811z"/><path id="Ae" d="M805.319 30.065c.449 0 .89-.219 1.154-.622.418-.637.241-1.491-.397-1.908l-5.605-3.673c-.637-.42-1.492-.239-1.908.396s-.241 1.491.397 1.908l5.605 3.673a1.37 1.37 0 0 0 .754.226z"/><path id="Af" d="M785.768 30.065a1.37 1.37 0 0 0 .754-.226l5.603-3.673c.637-.417.815-1.271.397-1.908s-1.266-.816-1.908-.396l-5.603 3.673c-.637.417-.815 1.271-.397 1.908a1.38 1.38 0 0 0 1.154.622z"/><path id="Ag" d="M465.524 110.161a1.1 1.1 0 0 0-1.097-1.097c-.605 0-1.096.491-1.096 1.096l.002 4.387a1.1 1.1 0 0 0 1.097 1.097 1.1 1.1 0 0 0 1.097-1.097l-.002-4.387z"/><path id="Ah" d="M466.623 113.451c.605 0 1.097-.491 1.096-1.096a1.1 1.1 0 0 0-1.097-1.097l-4.387-.002a1.1 1.1 0 0 0-1.097 1.097 1.1 1.1 0 0 0 1.097 1.097l4.387.002z"/><path id="Ai" d="M453.427,44.925c-.87,0-1.575-.706-1.575-1.579v-3.295c0-.873.705-1.579,1.575-1.579s1.575.706,1.575,1.579v3.295c0,.873-.705,1.579-1.575,1.579Z"/><path id="Aj" d="M471.172,57.973c-.87,0-1.575-.706-1.575-1.579v-3.297c0-.873.705-1.579,1.575-1.579s1.575.706,1.575,1.579v3.297c0,.873-.705,1.579-1.575,1.579Z"/><path id="Ak" d="M477.269,30.641c-.87,0-1.575-.706-1.575-1.579v-3.297c0-.873.705-1.579,1.575-1.579s1.575.706,1.575,1.579v3.297c0,.873-.705,1.579-1.575,1.579Z"/><path id="Al" d="M634.03 58.304l-27.32-24.186h-1.796l-27.32 24.186V80.68a1.98 1.98 0 0 0 .581 1.401c.373.373.878.582 1.404.582h52.466c.526 0 1.031-.209 1.404-.582a1.98 1.98 0 0 0 .581-1.401V58.304z"/><path id="Am" d="M575.934 57.787h59.756v4.975h-59.756z"/><path id="An" d="M575.104 62.51l30.708-25.454 31.012 25.706"/><path id="Ao" d="M617.431 67.738h9.959v9.951h-9.959z"/><path id="Ap" d="M602.492 54.447h6.64v1.682h-6.64z"/><path id="Aq" d="M584.234 76.007h9.959v1.682h-9.959z"/><path id="Ar" d="M575.478 58.616l30.334-25.375"/><path id="As" d="M636.147 58.616l-30.335-25.375"/><path id="At" d="M570.776 75.213l-35.881 30.667h35.881V75.213z"/><path id="Au" d="M560.058 103.849h4.019V90.521c0-1.108-.898-2.006-2.008-2.006h-.004c-1.109 0-2.008.898-2.008 2.006v13.328z"/><path id="Av" d="M570.776 85.802c0 4.247 1.688 8.321 4.694 11.324s7.084 4.69 11.336 4.69h16.123V91.229a16.01 16.01 0 0 0-4.694-11.326c-3.006-3.002-7.084-4.69-11.336-4.69h-16.123v10.589z"/><path id="Aw" d="M570.776 75.213l35.88 30.667h-35.88V75.213z"/><path id="Ax" d="M581.493 103.849h-4.019V90.523c0-.532.211-1.042.589-1.42s.888-.588 1.421-.588 1.045.213 1.421.588.589.887.589 1.42v13.326z"/><path id="Ay" d="M570.767 102.805h-15.193V73.993h15.193z"/><path id="Az" d="M664.245 58.616l30.335-25.375"/></defs><g clip-path="url(#A)"><path d="M-16.221-4539.54H1516.22v5588.389H-16.221z" fill="#04d5d8"/><g class="B"><path d="M1529.454-840h-203.633c-44.608 0-80.767-36.172-80.746-80.785.005-11.443-9.303-20.707-20.746-20.707h-176.32a20.75 20.75 0 0 0-20.746 20.746v47.256c0 44.595-36.151 80.746-80.746 80.746H793.073c-33.469 0-63.688-21.168-75.196-52.675-10.722-29.354-39.002-49.075-70.373-49.075H273.358a75.44 75.44 0 0 0-46.622 16.208c-13.432 10.628-22.861 25.666-26.551 42.345-8.037 36.333-40.893 62.703-78.123 62.703H-49.703c-.412 0-.746.334-.746.746v550.966c0 .412.334.746.746.746H52.021c29.652 0 56.758 16.353 70.739 42.676l.11.207c8.19 15.289 12.541 32.346 12.541 49.69v60.197c0 44.425-36.014 80.438-80.438 80.438H-60.932v558.14H60.647c24.468 0 47.472 9.528 64.774 26.831l38.785 38.784c34.301 34.301 79.906 53.191 128.414 53.191h286.993c48.508 0 94.113-18.891 128.414-53.19l36.652-36.652c34.3-34.301 53.191-79.905 53.191-128.414V318.383c0-22.898 18.563-41.461 41.461-41.461h53.59a184.12 184.12 0 0 0 70.815-14.086c22.565-9.348 42.765-22.844 60.035-40.114l101.546-101.546c25.785-25.785 43.783-61.897 52.663-99.398 6.642-28.047 31.418-48.023 60.241-48.023h101.903c20.048 0 36.301-16.253 36.301-36.301v-74.251c-.024-28.006-22.733-50.702-50.745-50.702H962.47c-60.751 0-110-49.249-110-110v-303.373c0-.695.023-1.389.036-2.083v-.037c1.52-59.839 50.504-107.881 110.709-107.881h254.619c60.16 0 109.153 48.733 109.576 108.795.195 27.699 22.37 50.362 50.069 50.362h151.974c.412 0 .746-.334.746-.746v-286.793c0-.412-.334-.746-.746-.746z" fill="#ffed8b"/><path d="M1094.277-137.5H962.47c-88.366 0-160-71.634-160-160v-303.373c0-30.548 8.605-59.124 23.519-83.431 15.687-25.567-2.918-58.44-32.915-58.44h0c-56.065 0-103.955-35.678-122.161-85.521-3.576-9.791-12.985-16.229-23.408-16.229H273.359c-11.632 0-21.841 7.996-24.353 19.353-12.879 58.22-64.906 101.903-126.942 101.903H-.448v452.458h52.47c64.728 0 118.554 47.555 128.39 109.562h0v93.208c0 69.278-56.161 125.438-125.438 125.438h-70.906v468.14h76.579a136.6 136.6 0 0 1 96.594 40.011l38.786 38.786c25.618 25.618 60.364 40.011 96.594 40.011h286.993a136.6 136.6 0 0 0 96.594-40.011l36.652-36.652c25.618-25.618 40.01-60.364 40.01-96.594V318.383c0-47.751 38.71-86.461 86.461-86.461h53.59a140.05 140.05 0 0 0 99.031-41.02l101.546-101.545c28.705-28.705 44.832-67.638 45.78-108.233v-73.622c0-24.853-20.147-45-45-45z" fill="#40c43e" stroke-dasharray="0 10" stroke-width="10" class="K L Q"/></g><path d="M268.111-217.5v150.276c0 18.778 15.222 34 34 34h.845c19.244 0 34.845 15.601 34.845 34.845v100.95c0 18.778-15.222 34-34 34H-38.061c-12.631 0-22.871 10.239-22.871 22.871v304.941c0 12.631 10.239 22.871 22.871 22.871h256.074c12.631 0 22.871 10.239 22.871 22.871h0c0 12.631 10.239 22.871 22.871 22.871h158.267c38.573 0 69.843-31.27 69.843-69.843V330.087c0-38.573 31.27-69.843 69.843-69.843h0c38.573 0 69.843-31.27 69.843-69.843V91.426c0-16.233 13.16-29.393 29.393-29.393h0c16.233 0 29.393-13.16 29.393-29.393v-383.171c0-13.267-11.251-23.75-24.485-22.813L389.54-353.79c-6.689.473-12.833 3.858-16.807 9.26L268.112-217.497z" fill="#27ac23"/><path d="M268.111-217.5v150.276c0 18.777 15.222 34 34 34h.845c19.244 0 34.845 15.601 34.845 34.845v100.95c0 18.777-15.222 34-34 34H-38.061c-12.631 0-22.871 10.239-22.871 22.871v304.94c0 12.631 10.239 22.871 22.871 22.871h256.074c12.631 0 22.871 10.239 22.871 22.871s10.239 22.871 22.871 22.871h158.267c38.573 0 69.843-31.27 69.843-69.844V330.086c0-38.573 31.27-69.843 69.843-69.843h0c38.573 0 69.843-31.27 69.843-69.844V91.424c0-16.233 13.16-29.393 29.393-29.393h0c16.233 0 29.393-13.16 29.393-29.393v-383.171c0-13.267-11.251-23.75-24.485-22.813L389.54-353.792c-6.689.473-12.833 3.858-16.807 9.26L268.112-217.499z" stroke-dasharray="0 10.013" stroke-width="10" class="E K L R"/><g fill="#27ac23"><path d="M778.303,112.606c.87,0,1.575-.706,1.575-1.579v-4.944c0-.873-.705-1.579-1.575-1.579s-1.575.706-1.575,1.579v4.944c0,.873.705,1.579,1.575,1.579Z"/><use href="#j"/><path d="M784.332,112.606c.87,0,1.575-.706,1.575-1.579v-3.295c0-.873-.705-1.579-1.575-1.579s-1.575.706-1.575,1.579v3.295c0,.873.705,1.579,1.575,1.579Z"/><use href="#k"/><use href="#l"/><path d="M766.586 125.654c.87 0 1.575-.706 1.575-1.579v-3.297c0-.873-.705-1.579-1.575-1.579s-1.575.706-1.575 1.579v3.297c0 .873.705 1.579 1.575 1.579zm-12.125-27.332c.87 0 1.575-.706 1.575-1.579v-4.944c0-.873-.705-1.579-1.575-1.579s-1.575.706-1.575 1.579v4.944c0 .873.705 1.579 1.575 1.579z"/><use href="#m"/><path d="M760.49 98.322c.87 0 1.575-.706 1.575-1.579v-3.297c0-.873-.705-1.579-1.575-1.579s-1.575.706-1.575 1.579v3.297c0 .873.705 1.579 1.575 1.579zM279.385 68.603c.87 0 1.575-.706 1.575-1.579V62.08c0-.873-.705-1.579-1.575-1.579s-1.575.706-1.575 1.579v4.944c0 .873.705 1.579 1.575 1.579z"/><use href="#n"/><path d="M285.414 68.603c.87 0 1.575-.706 1.575-1.579v-3.295c0-.873-.705-1.579-1.575-1.579s-1.575.706-1.575 1.579v3.295c0 .873.705 1.579 1.575 1.579zm-23.775 13.049c.87 0 1.575-.706 1.575-1.579v-4.944c0-.873-.705-1.579-1.575-1.579s-1.575.706-1.575 1.579v4.944c0 .873.705 1.579 1.575 1.579z"/><use href="#o"/><path d="M267.668 81.652c.87 0 1.575-.706 1.575-1.579v-3.297c0-.873-.705-1.579-1.575-1.579s-1.575.706-1.575 1.579v3.297c0 .873.705 1.579 1.575 1.579zM255.543 54.32c.87 0 1.575-.706 1.575-1.579v-4.944c0-.873-.705-1.579-1.575-1.579s-1.575.706-1.575 1.579v4.944c0 .873.705 1.579 1.575 1.579z"/><use href="#p"/><path d="M261.571 54.32c.87 0 1.575-.706 1.575-1.579v-3.297c0-.873-.705-1.579-1.575-1.579s-1.575.706-1.575 1.579v3.297c0 .873.705 1.579 1.575 1.579zM157.928 74.065c-.87 0-1.575-.706-1.575-1.579v-4.944c0-.873.705-1.579 1.575-1.579s1.575.706 1.575 1.579v4.944c0 .873-.705 1.579-1.575 1.579z"/><use href="#q"/><path d="M151.899 74.065c-.87 0-1.575-.706-1.575-1.579v-3.295c0-.873.705-1.579 1.575-1.579s1.575.706 1.575 1.579v3.295c0 .873-.705 1.579-1.575 1.579zm23.775 13.048c-.87 0-1.575-.706-1.575-1.579V80.59c0-.873.705-1.579 1.575-1.579s1.575.706 1.575 1.579v4.944c0 .873-.705 1.579-1.575 1.579z"/><use href="#r"/><path d="M169.645 87.113c-.87 0-1.575-.706-1.575-1.579v-3.297c0-.873.705-1.579 1.575-1.579s1.575.706 1.575 1.579v3.297c0 .873-.705 1.579-1.575 1.579zm12.125-27.332c-.87 0-1.575-.706-1.575-1.579v-4.944c0-.873.705-1.579 1.575-1.579s1.575.706 1.575 1.579v4.944c0 .873-.705 1.579-1.575 1.579z"/><use href="#s"/><path d="M175.742 59.781c-.87 0-1.575-.706-1.575-1.579v-3.297c0-.873.705-1.579 1.575-1.579s1.575.706 1.575 1.579v3.297c0 .873-.705 1.579-1.575 1.579zm817.547-11.423c-.87 0-1.575-.706-1.575-1.579v-4.944c0-.873.705-1.579 1.575-1.579s1.575.706 1.575 1.579v4.944c0 .873-.705 1.579-1.575 1.579z"/><use href="#t"/><path d="M987.26 48.358c-.87 0-1.575-.706-1.575-1.579v-3.295c0-.873.705-1.579 1.575-1.579s1.575.706 1.575 1.579v3.295c0 .873-.705 1.579-1.575 1.579zm23.775 13.048c-.87 0-1.575-.706-1.575-1.579v-4.944c0-.873.705-1.579 1.575-1.579s1.575.706 1.575 1.579v4.944c0 .873-.705 1.579-1.575 1.579z"/><use href="#u"/><path d="M1005.006 61.406c-.87 0-1.575-.706-1.575-1.579V56.53c0-.873.705-1.579 1.575-1.579s1.575.706 1.575 1.579v3.297c0 .873-.705 1.579-1.575 1.579zm12.125-27.331c-.87 0-1.575-.706-1.575-1.579v-4.944c0-.873.705-1.579 1.575-1.579s1.575.706 1.575 1.579v4.944c0 .873-.705 1.579-1.575 1.579z"/><use href="#v"/><path d="M1011.102,34.075c-.87,0-1.575-.706-1.575-1.579v-3.297c0-.873.705-1.579,1.575-1.579s1.575.706,1.575,1.579v3.297c0,.873-.705,1.579-1.575,1.579Z"/></g><use href="#w" class="M"/><g clip-path="url(#B)" class="B N"><use href="#x"/></g><use href="#y" class="B J"/><g clip-path="url(#C)"><use href="#z" class="B C"/><use href="#AA" class="H"/><g class="B"><g class="F"><use href="#AB" class="D"/><use href="#AC" class="D"/></g><g class="C"><use href="#AD" class="I"/><use href="#AE" class="I"/></g></g></g><use href="#AF" class="B J"/><g clip-path="url(#D)"><use href="#AG" class="B C"/><use href="#AH" class="H"/><g class="B"><g class="F"><use href="#AI" class="D"/><use href="#AJ" class="D"/></g><g class="C"><use href="#AK" class="I"/><use href="#AL" class="I"/></g></g></g><path d="M296.408 141.779l9.63-7.012c5.319-3.873 5.92-11.576 1.266-16.226l-3.369-3.366H288.88l-3.369 3.366c-4.654 4.65-4.053 12.353 1.266 16.226l9.63 7.012z" class="B H"/><g clip-path="url(#E)"><path d="M296.408 142.768h-15.193v-28.812h15.193z" class="C"/><use href="#AM" class="O"/><g class="D C"><use href="#AN"/></g><g class="D F"><use href="#AO"/></g><path d="M310.666 139c.654 0 1.298-.319 1.682-.906.61-.928.351-2.173-.578-2.78l-8.169-5.354a2.01 2.01 0 0 0-2.781.576c-.61.928-.351 2.173.578 2.78l8.169 5.354a1.99 1.99 0 0 0 1.099.329z" class="C D"/><g class="D F"><path d="M282.169 139a2 2 0 0 0 1.099-.329l8.166-5.354c.929-.608 1.188-1.852.578-2.78s-1.845-1.19-2.781-.576l-8.166 5.354c-.929.608-1.188 1.852-.578 2.78a2.01 2.01 0 0 0 1.682.906z"/></g></g><path d="M150.304 125.008h12.01l3.255 29.699c.18 1.646-1.11 3.084-2.767 3.084h-13.045c-1.659 0-2.95-1.441-2.766-3.089l3.313-29.694z" class="M"/><g clip-path="url(#F)" class="B N"><path d="M156.271 146.476l9.818-7.149c5.423-3.949 6.036-11.803 1.291-16.543l-3.434-3.431h-15.349l-3.434 3.431c-4.745 4.741-4.132 12.595 1.291 16.543l9.818 7.149z"/></g><path d="M156.28 123.928c0 4.247-1.688 8.321-4.694 11.324s-7.084 4.69-11.336 4.69h-16.123v-10.587a16.01 16.01 0 0 1 4.694-11.326c3.006-3.002 7.084-4.69 11.336-4.69h16.123v10.589z" class="B J"/><g clip-path="url(#G)"><path d="M156.28 113.339l-35.881 30.668h35.881v-30.668z" class="B C"/><path d="M122.866 138.016l32.135-26.245 2.54 3.11-32.135 26.245z" class="H"/><g class="B"><g class="F"><path d="M137.524 141.678h4.019v-6.754a2.01 2.01 0 0 0-4.02 0v6.754zm8.038.297h4.019v-13.328c0-1.108-.898-2.006-2.008-2.006h-.004c-1.109 0-2.008.898-2.008 2.006v13.328z" class="D"/></g><g class="C"><path d="M124.127 128.687v-3.803h6.135c.504 0 .989.201 1.346.558a1.9 1.9 0 0 1 .557 1.343h0c0 .506-.201.988-.557 1.345a1.9 1.9 0 0 1-1.346.556h-6.135zm0-7.819v-4.016h12.059c1.109 0 2.008.898 2.008 2.006v.004c0 1.108-.898 2.006-2.008 2.006h-12.059z" class="I"/></g></g></g><path d="M156.28 123.928c0 4.247 1.688 8.321 4.694 11.324s7.084 4.69 11.336 4.69h16.123v-10.587a16.01 16.01 0 0 0-4.694-11.326c-3.006-3.002-7.084-4.69-11.336-4.69H156.28v10.589z" class="B J"/><g clip-path="url(#H)"><path d="M156.28 113.339l35.88 30.668h-35.88v-30.668z" class="B C"/><path d="M155.009 114.894l2.538-3.112 32.154 26.223-2.538 3.112z" class="H"/><g class="B"><g class="F"><path d="M175.035 141.678h-4.019v-6.754a2.01 2.01 0 0 1 4.02 0v6.754zm-8.038.297h-4.019v-13.326c0-.532.211-1.042.589-1.42s.888-.588 1.421-.588 1.045.213 1.421.588a2.01 2.01 0 0 1 .589 1.42v13.326z" class="D"/></g><g class="C"><path d="M188.432 128.9v-4.016h-6.031a2 2 0 0 0-1.419.588c-.378.375-.589.885-.589 1.418v.004c0 .532.211 1.042.589 1.42a2.01 2.01 0 0 0 1.419.586h6.031zm0-8.032v-4.016h-12.057c-.533 0-1.045.213-1.421.588a2.01 2.01 0 0 0-.589 1.42 2 2 0 0 0 .589 1.42c.378.376.888.588 1.421.588h12.057z" class="I"/></g></g></g><use href="#AP" class="B H"/><g clip-path="url(#I)"><path d="M156.27 140.932h-15.193V112.12h15.193z" class="C"/><path d="M154.269 110.438h4.019v35.021h-4.019z" class="O"/><g class="D C"><path d="M170.529 128.008c.654 0 1.298-.319 1.682-.906.61-.928.351-2.173-.578-2.78l-8.169-5.354a2.01 2.01 0 0 0-2.781.576c-.61.928-.351 2.173.578 2.78l8.169 5.354a1.99 1.99 0 0 0 1.099.329z"/></g><g class="D F"><path d="M142.031 128.008a2 2 0 0 0 1.099-.329l8.166-5.354c.929-.608 1.188-1.852.578-2.78s-1.845-1.19-2.781-.576l-8.166 5.354c-.929.608-1.188 1.852-.578 2.78a2.01 2.01 0 0 0 1.682.906z"/></g><path d="M170.529 137.164c.654 0 1.298-.319 1.682-.906.61-.928.351-2.173-.578-2.78l-8.169-5.354a2.01 2.01 0 0 0-2.781.576c-.61.928-.351 2.173.578 2.78l8.169 5.354a1.99 1.99 0 0 0 1.099.329z" class="C D"/><g class="D F"><path d="M142.031 137.164a2 2 0 0 0 1.099-.329l8.166-5.354c.929-.608 1.188-1.852.578-2.78s-1.845-1.19-2.781-.576l-8.166 5.354c-.929.608-1.188 1.852-.578 2.78a2.01 2.01 0 0 0 1.682.906z"/></g></g><use href="#AQ" class="M"/><g clip-path="url(#J)" class="B N"><path d="M795.537 42.735l6.736-4.905a7.49 7.49 0 0 0 .886-11.35l-2.356-2.354h-10.531l-2.356 2.354a7.49 7.49 0 0 0 .886 11.35l6.736 4.905z"/></g><use href="#AR" class="B J"/><g clip-path="url(#K)"><path d="M795.543 20l-24.616 21.041h24.616V20z" class="B C"/><use href="#AS" class="H"/><g class="B"><g class="F"><use href="#AT" class="D"/><use href="#AU" class="D"/></g><g class="C"><use href="#AV" class="I"/><use href="#AW" class="I"/></g></g></g><use href="#AX" class="B J"/><g clip-path="url(#L)"><path d="M795.543 20l24.617 21.041h-24.617V20z" class="B C"/><use href="#AY" class="H"/><g class="B"><g class="F"><use href="#AZ" class="D"/><use href="#Aa" class="D"/></g><g class="C"><use href="#Ab" class="I"/><use href="#Ac" class="I"/></g></g></g><use href="#Ad" class="B H"/><g clip-path="url(#M)"><path d="M795.537 38.931h-10.423V19.164h10.423z" class="C"/><path d="M794.164 18.01h2.757v24.027h-2.757z" class="O"/><g class="D C"><use href="#Ae"/></g><g class="D F"><use href="#Af"/></g><path d="M805.319 36.346c.449 0 .89-.219 1.154-.622.418-.637.241-1.491-.397-1.908l-5.605-3.673c-.637-.42-1.492-.239-1.908.396s-.241 1.491.397 1.908l5.605 3.673a1.37 1.37 0 0 0 .754.226z" class="C D"/><g class="D F"><path d="M785.768 36.346a1.37 1.37 0 0 0 .754-.226l5.603-3.673c.637-.417.815-1.271.397-1.908s-1.266-.816-1.908-.396l-5.603 3.673c-.637.417-.815 1.271-.397 1.908a1.38 1.38 0 0 0 1.154.622z"/></g></g><path d="M784.343 50.498l22.401-.245" class="E K L Q S T"/><path d="M95.911 117.765h8.24l2.233 20.376a1.91 1.91 0 0 1-1.898 2.116h-8.95a1.91 1.91 0 0 1-1.898-2.119l2.273-20.372z" class="M"/><g clip-path="url(#N)" class="B N"><path d="M100.005 132.494l6.736-4.905a7.49 7.49 0 0 0 .886-11.35l-2.356-2.354H94.74l-2.356 2.354a7.49 7.49 0 0 0 .886 11.35l6.736 4.905z"/></g><path d="M100.011 117.024a10.98 10.98 0 0 1-3.221 7.769c-2.063 2.061-4.86 3.218-7.777 3.218H77.952v-7.264c0-2.915 1.158-5.71 3.221-7.771a11.01 11.01 0 0 1 7.777-3.218h11.061v7.265z" class="B J"/><g clip-path="url(#O)"><path d="M100.011 109.759l-24.617 21.04h24.617v-21.04z" class="B C"/><path d="M77.087 126.689l22.047-18.006 1.743 2.135-22.047 18.006z" class="H"/><g class="B"><g class="F"><path d="M87.143 129.201H89.9v-4.634a1.38 1.38 0 0 0-1.379-1.378 1.38 1.38 0 0 0-1.379 1.378v4.634zm5.515.204h2.757v-9.144c0-.76-.616-1.376-1.377-1.376h-.003c-.761 0-1.377.616-1.377 1.376v9.144z" class="D"/></g><g class="C"><path d="M77.952 120.289v-2.609h4.209a1.31 1.31 0 0 1 .924.383c.244.244.382.576.382.922h0c0 .347-.138.678-.382.923s-.578.382-.924.382h-4.209zm0-5.364v-2.755h8.274c.761 0 1.377.616 1.377 1.376v.003c0 .76-.616 1.376-1.377 1.376h-8.274z" class="I"/></g></g></g><path d="M100.011 117.024a10.98 10.98 0 0 0 3.221 7.769c2.063 2.061 4.86 3.218 7.777 3.218h11.061v-7.264c0-2.915-1.158-5.71-3.221-7.771a11.01 11.01 0 0 0-7.777-3.218h-11.061v7.265z" class="B J"/><g clip-path="url(#P)"><path d="M100.011 109.759l24.617 21.04h-24.617v-21.04z" class="B C"/><path d="M99.141 110.826l1.742-2.136 22.06 17.991-1.742 2.136z" class="H"/><g class="B"><g class="F"><path d="M112.879 129.201h-2.757v-4.634a1.38 1.38 0 0 1 1.379-1.378 1.38 1.38 0 0 1 1.379 1.378v4.634zm-5.515.204h-2.757v-9.143c0-.365.145-.715.404-.974a1.38 1.38 0 0 1 1.95 0c.259.259.404.609.404.974v9.143z" class="D"/></g><g class="C"><path d="M122.07 120.435v-2.755h-4.137a1.37 1.37 0 0 0-.973.404c-.259.258-.404.608-.404.973v.003c0 .365.145.715.404.974s.608.402.973.402h4.137zm0-5.51v-2.755h-8.272a1.38 1.38 0 0 0-.975.404c-.259.259-.404.609-.404.974s.145.716.404.974a1.38 1.38 0 0 0 .975.404h8.272z" class="I"/></g></g></g><path d="M100.005 128.011l6.607-4.811c3.649-2.657 4.062-7.942.869-11.132l-2.311-2.309H94.841l-2.311 2.309c-3.193 3.19-2.78 8.475.869 11.132l6.607 4.811z" class="B H"/><g clip-path="url(#Q)"><path d="M100.005 128.689H89.582v-19.767h10.423z" class="C"/><path d="M98.632 107.769h2.757v24.027h-2.757z" class="O"/><g class="D C"><path d="M109.787 119.823c.449 0 .89-.219 1.154-.622.418-.637.241-1.491-.397-1.908l-5.605-3.673c-.637-.42-1.492-.239-1.908.396s-.241 1.491.397 1.908l5.605 3.673a1.37 1.37 0 0 0 .754.226z"/></g><g class="D F"><path d="M90.236 119.823a1.37 1.37 0 0 0 .754-.226l5.603-3.673c.637-.417.815-1.271.397-1.908s-1.266-.816-1.908-.396l-5.603 3.673c-.637.417-.815 1.271-.397 1.908a1.38 1.38 0 0 0 1.154.622z"/></g><path d="M109.787 126.105c.449 0 .89-.219 1.154-.622.418-.637.241-1.491-.397-1.908l-5.605-3.673c-.637-.42-1.492-.239-1.908.396s-.241 1.491.397 1.908l5.605 3.673a1.37 1.37 0 0 0 .754.226z" class="C D"/><g class="D F"><path d="M90.236 126.105a1.37 1.37 0 0 0 .754-.226l5.603-3.673c.637-.417.815-1.271.397-1.908s-1.266-.816-1.908-.396l-5.603 3.673c-.637.417-.815 1.271-.397 1.908a1.38 1.38 0 0 0 1.154.622z"/></g></g><path d="M88.81 140.256l22.402-.244" class="E K L R S T"/><path d="M817.662 54.224h8.24l2.233 20.376a1.91 1.91 0 0 1-1.898 2.116h-8.95a1.91 1.91 0 0 1-1.898-2.119l2.273-20.372z" class="M"/><g clip-path="url(#R)" class="B N"><path d="M821.755 68.953l6.736-4.905a7.49 7.49 0 0 0 .886-11.35l-2.356-2.354H816.49l-2.356 2.354a7.49 7.49 0 0 0 .886 11.35l6.736 4.905z"/></g><path d="M821.762 53.484a10.98 10.98 0 0 1-3.221 7.769c-2.063 2.061-4.86 3.218-7.777 3.218h-11.061v-7.264c0-2.915 1.158-5.71 3.221-7.771a11.01 11.01 0 0 1 7.777-3.218h11.061v7.265z" class="B J"/><g clip-path="url(#S)"><path d="M821.762 46.218l-24.617 21.041h24.617V46.218z" class="B C"/><path d="M798.832 63.144l22.047-18.006 1.743 2.135-22.047 18.006z" class="H"/><g class="B"><g class="F"><path d="M808.894 65.661h2.757v-4.634a1.38 1.38 0 0 0-1.379-1.378 1.38 1.38 0 0 0-1.379 1.378v4.634zm5.514.204h2.757v-9.144c0-.76-.616-1.376-1.377-1.376h-.003c-.761 0-1.377.616-1.377 1.376v9.144z" class="D"/></g><g class="C"><path d="M799.702 56.748v-2.609h4.209a1.31 1.31 0 0 1 .924.383c.244.244.382.576.382.922h0c0 .347-.138.678-.382.923s-.578.382-.924.382h-4.209zm0-5.364v-2.755h8.274c.761 0 1.377.616 1.377 1.376v.003c0 .76-.616 1.376-1.377 1.376h-8.274z" class="I"/></g></g></g><path d="M821.762 53.484a10.98 10.98 0 0 0 3.221 7.769c2.063 2.061 4.86 3.218 7.777 3.218h11.061v-7.264c0-2.915-1.158-5.71-3.221-7.771a11.01 11.01 0 0 0-7.777-3.218h-11.061v7.265z" class="B J"/><g clip-path="url(#T)"><path d="M821.762 46.218l24.616 21.041h-24.616V46.218z" class="B C"/><path d="M820.887 47.284l1.742-2.136 22.06 17.991-1.742 2.136z" class="H"/><g class="B"><g class="F"><path d="M834.629 65.661h-2.757v-4.634a1.38 1.38 0 0 1 1.379-1.378 1.38 1.38 0 0 1 1.379 1.378v4.634zm-5.514.204h-2.757v-9.143c0-.365.145-.715.404-.974a1.38 1.38 0 0 1 1.95 0c.259.259.404.609.404.974v9.143z" class="D"/></g><g class="C"><path d="M843.821 56.894v-2.755h-4.137a1.37 1.37 0 0 0-.973.404c-.259.258-.404.608-.404.973v.003c0 .365.145.715.404.974s.608.402.973.402h4.137zm0-5.51v-2.755h-8.272a1.38 1.38 0 0 0-.975.404c-.259.259-.404.609-.404.974s.145.716.404.974a1.38 1.38 0 0 0 .975.404h8.272z" class="I"/></g></g></g><path d="M821.755 64.471l6.607-4.811c3.649-2.657 4.062-7.942.869-11.132l-2.311-2.309h-10.329l-2.311 2.309c-3.193 3.19-2.78 8.475.869 11.132l6.607 4.811z" class="B H"/><g clip-path="url(#U)"><path d="M821.756 65.149h-10.423V45.382h10.423z" class="C"/><path d="M820.382 44.229h2.757v24.027h-2.757z" class="O"/><g class="D C"><path d="M831.537 56.283c.449 0 .89-.219 1.154-.622.418-.637.241-1.491-.397-1.908l-5.605-3.673c-.637-.42-1.492-.239-1.908.396s-.241 1.491.397 1.908l5.605 3.673a1.37 1.37 0 0 0 .754.226z"/></g><g class="D F"><path d="M811.986 56.283a1.37 1.37 0 0 0 .754-.226l5.603-3.673c.637-.417.815-1.271.397-1.908s-1.266-.816-1.908-.396l-5.603 3.673c-.637.417-.815 1.271-.397 1.908a1.38 1.38 0 0 0 1.154.622z"/></g><path d="M831.537 62.564c.449 0 .89-.219 1.154-.622.418-.637.241-1.491-.397-1.908l-5.605-3.673c-.637-.42-1.492-.239-1.908.396s-.241 1.491.397 1.908l5.605 3.673a1.37 1.37 0 0 0 .754.226z" class="C D"/><g class="D F"><path d="M811.986 62.564a1.37 1.37 0 0 0 .754-.226l5.603-3.673c.637-.417.815-1.271.397-1.908s-1.266-.816-1.908-.396l-5.603 3.673c-.637.417-.815 1.271-.397 1.908a1.38 1.38 0 0 0 1.154.622z"/></g></g><path d="M810.561 76.716l22.402-.245" class="E K L Q S T"/><g fill="#efd35b"><ellipse cx="1102.083" cy="110.845" rx="1.966" ry="1.97" transform="matrix(.807908 -.589309 .589309 .807908 146.38 670.761)" class="P"/><ellipse cx="1108.726" cy="106.906" rx="1.966" ry="1.97" transform="matrix(.807908 -.589309 .589309 .807908 149.978 673.919)" class="P"/><ellipse cx="1109.717" cy="113.098" rx="1.966" ry="1.97" transform="matrix(.807908 -.589309 .589309 .807908 146.519 675.693)" class="P"/><ellipse cx="1124.167" cy="102.412" rx="1.966" ry="1.97" transform="matrix(.807908 -.589309 .589309 .807908 155.592 682.156)" class="P"/><ellipse cx="1114.343" cy="93.448" rx="1.966" ry="1.97" transform="matrix(.807908 -.589309 .589309 .807908 158.988 674.644)" class="P"/></g><g fill="#d30c43" class="B"><use href="#Ag"/><use href="#Ah"/><path d="M455.531 111.912a1.1 1.1 0 0 0-1.097-1.097c-.605 0-1.096.491-1.096 1.096l.002 4.387a1.1 1.1 0 0 0 1.097 1.097 1.1 1.1 0 0 0 1.097-1.097l-.002-4.387z"/><path d="M456.629 115.202c.605 0 1.097-.491 1.096-1.096a1.1 1.1 0 0 0-1.097-1.097l-4.387-.002a1.1 1.1 0 0 0-1.097 1.097 1.1 1.1 0 0 0 1.097 1.097l4.387.002z"/></g><g opacity=".331" fill="#0c6f3c"><path d="M446.85,44.925c-.87,0-1.575-.706-1.575-1.579v-4.944c0-.873.705-1.579,1.575-1.579s1.575.706,1.575,1.579v4.944c0,.873-.705,1.579-1.575,1.579Z"/><use href="#Ai"/><path d="M440.82 44.925c-.87 0-1.575-.706-1.575-1.579v-3.295c0-.873.705-1.579 1.575-1.579s1.575.706 1.575 1.579v3.295c0 .873-.705 1.579-1.575 1.579zm23.775 13.048c-.87 0-1.575-.706-1.575-1.579V51.45c0-.873.705-1.579 1.575-1.579s1.575.706 1.575 1.579v4.944c0 .873-.705 1.579-1.575 1.579z"/><use href="#Aj"/><path d="M458.567 57.973c-.87 0-1.575-.706-1.575-1.579v-3.297c0-.873.705-1.579 1.575-1.579s1.575.706 1.575 1.579v3.297c0 .873-.705 1.579-1.575 1.579zm12.125-27.332c-.87 0-1.575-.706-1.575-1.579v-4.944c0-.873.705-1.579 1.575-1.579s1.575.706 1.575 1.579v4.944c0 .873-.705 1.579-1.575 1.579z"/><use href="#Ak"/><path d="M464.663,30.641c-.87,0-1.575-.706-1.575-1.579v-3.297c0-.873.705-1.579,1.575-1.579s1.575.706,1.575,1.579v3.297c0,.873-.705,1.579-1.575,1.579Z"/></g><g stroke="#1fc8cc" stroke-width="3" class="E K L"><path d="M1224.429 32.44h8.134m17.449 0h-9.538m-22.907 0h.566m17.967-10.339h-3.372m-11.223 0h-.566m44.028 33.322h8.134m17.448 0h-9.537m-22.907 0h.566m17.967-10.34h-3.372m-11.223 0h-.566"/></g><use href="#Al" fill="#ffea85" class="B"/><g clip-path="url(#V)"><g fill="#f8d653"><use href="#Am"/><path d="M575.934 77.689h59.756v4.975h-59.756zm0-29.853h59.756v4.975h-59.756zm0-9.951h59.756v4.975h-59.756zm0 29.853h59.756v4.975h-59.756z"/></g><use href="#An" stroke="#d5b224" class="E W X"/></g><path d="M600.832 69.396h9.959v13.268h-9.959z" fill="#444031"/><path d="M600.832 69.396h9.959v3.317h-9.959z" fill="#14130f"/><g fill="#52bda1"><use href="#Ao"/><path d="M584.234 67.738h9.959v9.951h-9.959zm18.258-19.881h6.64v8.292h-6.64z"/></g><g fill="#fff"><use href="#Ap"/><use href="#Aq"/><path d="M617.431 76.007h9.959v1.682h-9.959z"/></g><g fill="#2f9c80"><path d="M617.431 67.715h9.959v1.682h-9.959zm-33.197 0h9.959v1.682h-9.959zm18.258-21.539h6.64v1.682h-6.64z"/></g><g stroke="#618d38" class="E K L Y"><use href="#Ar"/><path d="M575.478 51.153l30.334-25.375M575.478 43.69l30.334-25.375"/><use href="#As"/><path d="M636.147 51.153l-30.335-25.375m30.335 17.912l-30.335-25.375"/></g><rect x="603.281" y="13.837" width="5.063" height="26.868" rx="2.528" fill="#467519"/><path d="M574.368 82.664h63.305" class="E K L R U V"/><path d="M564.8 86.881h12.01l3.255 29.699c.18 1.646-1.11 3.084-2.767 3.084h-13.045c-1.659 0-2.95-1.441-2.766-3.089l3.313-29.694z" class="M"/><g clip-path="url(#W)" class="B N"><path d="M570.767 108.35l9.818-7.149c5.423-3.949 6.036-11.803 1.291-16.543l-3.434-3.431h-15.349l-3.434 3.431c-4.745 4.741-4.132 12.595 1.291 16.543l9.818 7.149z"/></g><path d="M570.776 85.802c0 4.247-1.688 8.321-4.694 11.324s-7.084 4.69-11.336 4.69h-16.123V91.229a16.01 16.01 0 0 1 4.694-11.326c3.006-3.002 7.084-4.69 11.336-4.69h16.123v10.589z" class="B J"/><g clip-path="url(#X)"><use href="#At" class="B C"/><path d="M537.359 99.887l32.135-26.245 2.54 3.11-32.135 26.245z" class="H"/><g class="B"><g class="F"><path d="M552.02 103.551h4.019v-6.754a2.01 2.01 0 0 0-4.02 0v6.754z" class="D"/><use href="#Au" class="D"/></g><g class="C"><path d="M538.623 90.561v-3.803h6.135c.504 0 .989.201 1.346.558a1.9 1.9 0 0 1 .557 1.343h0c0 .506-.201.988-.557 1.345a1.9 1.9 0 0 1-1.346.556h-6.135zm0-7.819v-4.016h12.059c1.109 0 2.008.898 2.008 2.006v.004c0 1.108-.898 2.006-2.008 2.006h-12.059z" class="I"/></g></g></g><use href="#Av" class="B J"/><g clip-path="url(#Y)"><use href="#Aw" class="B C"/><path d="M569.504 76.767l2.538-3.112 32.154 26.223-2.538 3.112z" class="H"/><g class="B"><g class="F"><path d="M589.531 103.551h-4.019v-6.754a2.01 2.01 0 0 1 4.02 0v6.754z" class="D"/><use href="#Ax" class="D"/></g><g class="C"><path d="M602.928 90.773v-4.016h-6.031a2 2 0 0 0-1.419.588c-.378.375-.589.885-.589 1.418v.004c0 .532.211 1.042.589 1.42a2.01 2.01 0 0 0 1.419.586h6.031zm0-8.031v-4.016h-12.057c-.533 0-1.045.213-1.421.588a2.01 2.01 0 0 0-.589 1.42 2 2 0 0 0 .589 1.42c.378.376.888.588 1.421.588h12.057z" class="I"/></g></g></g><path d="M570.767 101.817l9.63-7.012c5.319-3.873 5.92-11.576 1.266-16.226l-3.369-3.366h-15.055l-3.369 3.366c-4.654 4.65-4.053 12.353 1.266 16.226l9.63 7.012z" class="B H"/><g clip-path="url(#Z)"><use href="#Ay" class="C"/><path d="M568.765 72.312h4.019v35.021h-4.019z" class="O"/><g class="D C"><path d="M585.025 89.882c.654 0 1.298-.319 1.682-.906.61-.928.351-2.173-.578-2.78l-8.169-5.354a2.01 2.01 0 0 0-2.781.576c-.61.928-.351 2.173.578 2.78l8.169 5.354a1.99 1.99 0 0 0 1.099.329z"/></g><g class="D F"><path d="M556.527 89.882a2 2 0 0 0 1.099-.329l8.166-5.354c.929-.608 1.188-1.852.578-2.78s-1.845-1.19-2.781-.576l-8.166 5.354c-.929.608-1.188 1.852-.578 2.78a2.01 2.01 0 0 0 1.682.906z"/></g><path d="M585.025 99.038c.654 0 1.298-.319 1.682-.906.61-.928.351-2.173-.578-2.78l-8.169-5.354a2.01 2.01 0 0 0-2.781.576c-.61.928-.351 2.173.578 2.78l8.169 5.354a1.99 1.99 0 0 0 1.099.329z" class="C D"/><g class="D F"><path d="M556.527 99.038a2 2 0 0 0 1.099-.329l8.166-5.354c.929-.608 1.188-1.852.578-2.78s-1.845-1.19-2.781-.576l-8.166 5.354c-.929.608-1.188 1.852-.578 2.78a2.01 2.01 0 0 0 1.682.906z"/></g></g><path d="M554.45 119.664l32.652-.356" class="E K L R U V"/><path d="M722.798 58.304l-27.32-24.186h-1.796l-27.32 24.186V80.68a1.98 1.98 0 0 0 .581 1.401c.373.373.878.582 1.404.582h52.466c.526 0 1.031-.209 1.404-.582a1.98 1.98 0 0 0 .581-1.401V58.304z" fill="#ffea85" class="B"/><g clip-path="url(#a)"><g fill="#f8d653"><path d="M664.702 57.787h59.756v4.975h-59.756zm0 19.902h59.756v4.975h-59.756zm0-29.853h59.756v4.975h-59.756zm0-9.951h59.756v4.975h-59.756zm0 29.853h59.756v4.975h-59.756z"/></g><path d="M663.872 62.51l30.708-25.454 31.012 25.706" stroke="#d5b224" class="E W X"/></g><path d="M689.6 69.396h9.959v13.268H689.6z" fill="#444031"/><path d="M689.6 69.396h9.959v3.317H689.6z" fill="#14130f"/><g fill="#52bda1"><path d="M706.199 67.738h9.959v9.951h-9.959zm-33.198 0h9.959v9.951h-9.959zm18.259-19.881h6.64v8.292h-6.64z"/></g><g fill="#fff"><path d="M691.26 54.447h6.64v1.682h-6.64zm-18.259 21.56h9.959v1.682h-9.959zm33.198 0h9.959v1.682h-9.959z"/></g><g fill="#2f9c80"><path d="M706.199 67.715h9.959v1.682h-9.959zm-33.198 0h9.959v1.682h-9.959zm18.259-21.539h6.64v1.682h-6.64z"/></g><g stroke="#618d38" class="E K L Y"><use href="#Az"/><path d="M664.245 51.153l30.335-25.375M664.245 43.69l30.335-25.375m30.335 40.301L694.58 33.241"/><path d="M724.915 51.153L694.58 25.778m30.335 17.912L694.58 18.315"/></g><rect x="692.049" y="13.837" width="5.063" height="26.868" rx="2.528" fill="#467519"/><path d="M663.136 82.664h63.305" stroke="#2ec624" class="E K L U V"/><path d="M673.437 86.881h12.01l3.255 29.699c.18 1.646-1.11 3.084-2.767 3.084H672.89c-1.659 0-2.95-1.441-2.766-3.089l3.313-29.694z" class="M"/><g clip-path="url(#b)" class="B N"><path d="M679.404 108.35l9.818-7.149c5.423-3.949 6.036-11.803 1.291-16.543l-3.434-3.431H671.73l-3.434 3.431c-4.745 4.741-4.132 12.595 1.291 16.543l9.818 7.149z"/></g><path d="M679.413 85.802c0 4.247-1.688 8.321-4.694 11.324s-7.084 4.69-11.336 4.69H647.26V91.229a16.01 16.01 0 0 1 4.694-11.326c3.006-3.002 7.084-4.69 11.336-4.69h16.123v10.589z" class="B J"/><g clip-path="url(#c)"><path d="M679.413 75.213l-35.881 30.667h35.881V75.213z" class="B C"/><path d="M645.996 99.887l32.135-26.245 2.54 3.11-32.135 26.245z" class="H"/><g class="B"><g class="F"><path d="M660.657 103.551h4.019v-6.754a2.01 2.01 0 0 0-4.02 0v6.754zm8.038.298h4.019V90.521c0-1.108-.898-2.006-2.008-2.006h-.004c-1.109 0-2.008.898-2.008 2.006v13.328z" class="D"/></g><g class="C"><path d="M647.26 90.561v-3.803h6.135c.504 0 .989.201 1.346.558a1.9 1.9 0 0 1 .557 1.343h0c0 .506-.201.988-.557 1.345a1.9 1.9 0 0 1-1.346.556h-6.135zm0-7.819v-4.016h12.059c1.109 0 2.008.898 2.008 2.006v.004c0 1.108-.898 2.006-2.008 2.006H647.26z" class="I"/></g></g></g><path d="M679.413 85.802c0 4.247 1.688 8.321 4.694 11.324s7.084 4.69 11.336 4.69h16.123V91.229a16.01 16.01 0 0 0-4.694-11.326c-3.006-3.002-7.084-4.69-11.336-4.69h-16.123v10.589z" class="B J"/><g clip-path="url(#d)"><path d="M679.413 75.213l35.88 30.667h-35.88V75.213z" class="B C"/><path d="M678.141 76.766l2.538-3.112 32.154 26.223-2.538 3.112z" class="H"/><g class="B"><g class="F"><path d="M698.168 103.551h-4.019v-6.754a2.01 2.01 0 0 1 4.02 0v6.754zm-8.038.298h-4.019V90.523c0-.532.211-1.042.589-1.42s.888-.588 1.421-.588 1.045.213 1.421.588a2.01 2.01 0 0 1 .589 1.42v13.326z" class="D"/></g><g class="C"><path d="M711.565 90.773v-4.016h-6.031a2 2 0 0 0-1.419.588c-.378.375-.589.885-.589 1.418v.004c0 .532.211 1.042.589 1.42a2.01 2.01 0 0 0 1.419.586h6.031zm0-8.031v-4.016h-12.057c-.533 0-1.045.213-1.421.588a2.01 2.01 0 0 0-.589 1.42 2 2 0 0 0 .589 1.42c.378.376.888.588 1.421.588h12.057z" class="I"/></g></g></g><path d="M679.404 101.817l9.63-7.012c5.319-3.873 5.92-11.576 1.266-16.226l-3.369-3.366h-15.055l-3.369 3.366c-4.654 4.65-4.053 12.353 1.266 16.226l9.63 7.012z" class="B H"/><g clip-path="url(#e)"><path d="M679.404 102.805h-15.193V73.993h15.193z" class="C"/><path d="M677.402 72.312h4.019v35.021h-4.019z" class="O"/><g class="D C"><path d="M693.662 89.882c.654 0 1.298-.319 1.682-.906.61-.928.351-2.173-.578-2.78l-8.169-5.354a2.01 2.01 0 0 0-2.781.576c-.61.928-.351 2.173.578 2.78l8.169 5.354a1.99 1.99 0 0 0 1.099.329z"/></g><g class="D F"><path d="M665.164 89.882a2 2 0 0 0 1.099-.329l8.166-5.354c.929-.608 1.188-1.852.578-2.78s-1.845-1.19-2.781-.576l-8.166 5.354c-.929.608-1.188 1.852-.578 2.78a2.01 2.01 0 0 0 1.682.906z"/></g><path d="M693.662 99.038c.654 0 1.298-.319 1.682-.906.61-.928.351-2.173-.578-2.78l-8.169-5.354a2.01 2.01 0 0 0-2.781.576c-.61.928-.351 2.173.578 2.78l8.169 5.354a1.99 1.99 0 0 0 1.099.329z" class="C D"/><g class="D F"><path d="M665.164 99.038a2 2 0 0 0 1.099-.329l8.166-5.354c.929-.608 1.188-1.852.578-2.78s-1.845-1.19-2.781-.576l-8.166 5.354c-.929.608-1.188 1.852-.578 2.78a2.01 2.01 0 0 0 1.682.906z"/></g></g><path d="M663.087 119.664l32.652-.356" stroke-dasharray="0 6.177" stroke-width="6.177" class="E K L Q"/><path d="M621.415 119.173h12.01l3.255 29.699c.18 1.646-1.11 3.084-2.767 3.084h-13.045c-1.659 0-2.95-1.441-2.766-3.089l3.313-29.694z" class="M"/><g clip-path="url(#f)" class="B N"><path d="M627.382 140.642l9.818-7.149c5.423-3.949 6.036-11.803 1.291-16.543l-3.434-3.431h-15.349l-3.434 3.431c-4.745 4.741-4.132 12.595 1.291 16.543l9.818 7.149z"/></g><path d="M627.391 118.094c0 4.247-1.688 8.321-4.694 11.324s-7.084 4.69-11.336 4.69h-16.123v-10.587a16.01 16.01 0 0 1 4.694-11.326c3.006-3.002 7.084-4.69 11.336-4.69h16.123v10.589z" class="B J"/><g clip-path="url(#g)"><path d="M627.391 107.504l-35.881 30.668h35.881v-30.668z" class="B C"/><path d="M593.974 132.178l32.135-26.245 2.54 3.11-32.135 26.245z" class="H"/><g class="B"><g class="F"><path d="M608.635 135.843h4.019v-6.754a2.01 2.01 0 0 0-4.02 0v6.754zm8.038.297h4.019v-13.328c0-1.108-.898-2.006-2.008-2.006h-.004c-1.109 0-2.008.898-2.008 2.006v13.328z" class="D"/></g><g class="C"><path d="M595.238 122.852v-3.803h6.135c.504 0 .989.201 1.346.558a1.9 1.9 0 0 1 .557 1.343h0c0 .506-.201.988-.557 1.345a1.9 1.9 0 0 1-1.346.556h-6.135zm0-7.818v-4.016h12.059c1.109 0 2.008.898 2.008 2.006v.004c0 1.108-.898 2.006-2.008 2.006h-12.059z" class="I"/></g></g></g><path d="M627.391 118.094c0 4.247 1.688 8.321 4.694 11.324s7.084 4.69 11.336 4.69h16.123v-10.587a16.01 16.01 0 0 0-4.694-11.326c-3.006-3.002-7.084-4.69-11.336-4.69h-16.123v10.589z" class="B J"/><g clip-path="url(#h)"><path d="M627.391 107.504l35.88 30.668h-35.88v-30.668z" class="B C"/><path d="M626.119 109.058l2.538-3.112 32.154 26.223-2.538 3.112z" class="H"/><g class="B"><g class="F"><path d="M646.146 135.843h-4.019v-6.754a2.01 2.01 0 0 1 4.02 0v6.754zm-8.038.297h-4.019v-13.326c0-.532.211-1.042.589-1.42s.888-.588 1.421-.588 1.045.213 1.421.588a2.01 2.01 0 0 1 .589 1.42v13.326z" class="D"/></g><g class="C"><path d="M659.543 123.065v-4.016h-6.031a2 2 0 0 0-1.419.588c-.378.375-.589.885-.589 1.418v.004c0 .532.211 1.042.589 1.42a2.01 2.01 0 0 0 1.419.586h6.031zm0-8.031v-4.016h-12.057c-.533 0-1.045.213-1.421.588a2.01 2.01 0 0 0-.589 1.42 2 2 0 0 0 .589 1.42c.378.376.888.588 1.421.588h12.057z" class="I"/></g></g></g><path d="M627.382 134.108l9.63-7.012c5.319-3.873 5.92-11.576 1.266-16.226l-3.369-3.366h-15.055l-3.369 3.366c-4.654 4.65-4.053 12.353 1.266 16.226l9.63 7.012z" class="B H"/><g clip-path="url(#i)"><path d="M627.382 135.097h-15.193v-28.812h15.193z" class="C"/><path d="M625.38 104.604h4.019v35.021h-4.019z" class="O"/><g class="D C"><path d="M641.64 122.174c.654 0 1.298-.319 1.682-.906.61-.928.351-2.173-.578-2.78l-8.169-5.354a2.01 2.01 0 0 0-2.781.576c-.61.928-.351 2.173.578 2.78l8.169 5.354a1.99 1.99 0 0 0 1.099.329z"/></g><g class="D F"><path d="M613.142 122.174a2 2 0 0 0 1.099-.329l8.166-5.354c.929-.608 1.188-1.852.578-2.78s-1.845-1.19-2.781-.576l-8.166 5.354c-.929.608-1.188 1.852-.578 2.78a2.01 2.01 0 0 0 1.682.906z"/></g><path d="M641.64 131.33c.654 0 1.298-.319 1.682-.906.61-.928.351-2.173-.578-2.78l-8.169-5.354a2.01 2.01 0 0 0-2.781.576c-.61.928-.351 2.173.578 2.78l8.169 5.354a1.99 1.99 0 0 0 1.099.329z" class="C D"/><g class="D F"><path d="M613.142 131.33a2 2 0 0 0 1.099-.329l8.166-5.354c.929-.608 1.188-1.852.578-2.78s-1.845-1.19-2.781-.576l-8.166 5.354c-.929.608-1.188 1.852-.578 2.78a2.01 2.01 0 0 0 1.682.906z"/></g></g></g></svg>