<?xml version="1.0" encoding="UTF-8"?>
<svg id="Details" xmlns="http://www.w3.org/2000/svg" width="1500" height="145" xmlns:xlink="http://www.w3.org/1999/xlink" version="1.1" viewBox="0 0 1500 145">
  <!-- Generator: Adobe Illustrator 30.5.1, SVG Export Plug-In . SVG Version: 2.1.4 Build 3)  -->
  <defs>
    <clipPath id="clippath">
      <rect width="1500" height="145" style="fill: none;"/>
    </clipPath>
    <clipPath id="clippath-1">
      <path d="M643.207,49.694l-13.714,9.148,4.541,8.992,3.386-2.259c1.725-1.15,3.79-1.68,5.855-1.502h0c2.065.179,4.13-.351,5.854-1.501,1.69-1.128,3.56-2.375,3.56-2.375l-9.483-10.503Z" style="clip-rule: evenodd; fill: none;"/>
    </clipPath>
  </defs>
  <g style="clip-path: url(#clippath);">
    <rect x="-10.125" y="-261.796" width="1520.249" height="1054.04" style="fill: #04d5d8;"/>
    <g>
      <line x1="82.181" y1="135.44" x2="44.521" y2="135.44" style="fill: none; stroke: #8ee8e8; stroke-linecap: round; stroke-linejoin: round; stroke-width: 7px;"/>
      <line x1="52.543" y1="120.206" x2="31.335" y2="120.206" style="fill: none; stroke: #8ee8e8; stroke-linecap: round; stroke-linejoin: round; stroke-width: 7px;"/>
      <line x1="72.258" y1="116.621" x2="82.181" y2="116.622" style="fill: none; stroke: #8ee8e8; stroke-linecap: round; stroke-linejoin: round; stroke-width: 7px;"/>
    </g>
    <g>
      <path d="M-60.02-1126.454v67.986l-64.171-2.883-1.792,39.963c-.108,2.404-10.846,243.188-16.497,484.383-3.348,142.921-4.31,258.88-2.859,344.657.903,53.395,2.697,94.684,5.484,126.229,3.991,45.167,10.164,88.418,41.434,121.123,21.827,22.829,51.065,35.402,82.328,35.402H114.056c48.191,0,93.12-14.221,130.819-38.683,29.514-19.15,61.956-33.454,96.319-41.001,257.482-56.55,368.43,231.382,700.989,241.357,4.51.32,9.061.489,13.651.489h574.186v-1379.022H-60.02Z" style="fill: #4eeae6;"/>
      <path d="M1055.834,212.569c-83.307,0-151.081-67.774-151.081-151.081,0-6.11-4.972-11.081-11.082-11.081h-203.53c-110.838,0-201.011-90.173-201.011-201.012v-52.965c0-33.084-26.916-60-60-60h-54.062c-33.084,0-60,26.916-60,60v52.965c0,110.839-90.173,201.012-201.011,201.012H-16.093c-20.238,0-39.208-8.185-53.416-23.045-20.311-21.243-26.389-50.48-30.5-97.002-2.703-30.587-4.448-70.946-5.335-123.384-1.441-85.238-.481-200.654,2.854-343.044,5.659-241.585,16.36-481.136,16.467-483.527l66.003,2.965v-69.823h1610.04V212.569h-534.186Z" style="fill: #ffed8b;"/>
      <path d="M824.217-1016.453H-20.02h3.927S-60.873-19.594-16.093-19.594H114.056c72.356,0,131.011-58.656,131.011-131.011v-52.964c0-71.797,58.203-130,130-130h54.062c71.797,0,130,58.203,130,130v52.964c0,72.355,58.656,131.011,131.011,131.011h203.53c44.78,0,81.081,36.301,81.081,81.081h0c0,44.78,36.301,81.082,81.081,81.082h464.186V-1016.453h-695.803Z" style="fill: #77d629;"/>
    </g>
    <g>
      <g>
        <path d="M1181.046,45.708c0-2.275-.903-4.457-2.512-6.064-1.608-1.607-3.79-2.512-6.064-2.512h-105.977c-2.275,0-4.456.905-6.064,2.512-1.608,1.607-2.512,3.789-2.512,6.064v69.039c0,2.275.903,4.457,2.512,6.064s3.79,2.512,6.064,2.512h105.977c2.275,0,4.456-.905,6.064-2.512,1.608-1.607,2.512-3.789,2.512-6.064V45.708Z" style="fill: #00b365; fill-rule: evenodd;"/>
        <path d="M1181.046,45.708c0-2.275-.903-4.457-2.512-6.064-1.608-1.607-3.79-2.512-6.064-2.512h-105.977c-2.274,0-4.456.905-6.064,2.512-1.608,1.607-2.512,3.789-2.512,6.064v69.039c0,2.275.903,4.457,2.512,6.064,1.608,1.607,3.79,2.512,6.064,2.512h105.977c2.275,0,4.456-.905,6.064-2.512,1.608-1.607,2.512-3.789,2.512-6.064V45.708Z" style="fill: none; stroke: #00b365; stroke-dasharray: 0 10.097; stroke-linecap: round; stroke-linejoin: round; stroke-width: 10px;"/>
      </g>
      <g>
        <path d="M1325.723,45.708c0-2.275-.905-4.457-2.512-6.064-1.608-1.607-3.79-2.512-6.064-2.512h-105.977c-2.275,0-4.456.905-6.064,2.512-1.608,1.607-2.512,3.789-2.512,6.064v69.039c0,2.275.903,4.457,2.512,6.064,1.608,1.607,3.79,2.512,6.064,2.512h105.977c2.275,0,4.456-.905,6.064-2.512,1.607-1.607,2.512-3.789,2.512-6.064V45.708Z" style="fill: #00b365; fill-rule: evenodd;"/>
        <path d="M1325.723,45.708c0-2.275-.905-4.457-2.512-6.064-1.608-1.607-3.79-2.512-6.064-2.512h-105.977c-2.275,0-4.456.905-6.064,2.512-1.608,1.607-2.512,3.789-2.512,6.064v69.039c0,2.275.904,4.457,2.512,6.064,1.608,1.607,3.79,2.512,6.064,2.512h105.977c2.275,0,4.456-.905,6.064-2.512,1.607-1.607,2.512-3.789,2.512-6.064V45.708Z" style="fill: none; stroke: #00b365; stroke-dasharray: 0 10.097; stroke-linecap: round; stroke-linejoin: round; stroke-width: 10px;"/>
      </g>
      <g>
        <path d="M1467.322,45.708c0-2.275-.905-4.457-2.512-6.064-1.607-1.607-3.789-2.512-6.064-2.512h-105.977c-2.275,0-4.457.905-6.064,2.512-1.607,1.607-2.512,3.789-2.512,6.064v69.039c0,2.275.905,4.457,2.512,6.064,1.607,1.607,3.789,2.512,6.064,2.512h105.977c2.275,0,4.457-.905,6.064-2.512,1.607-1.607,2.512-3.789,2.512-6.064V45.708Z" style="fill: #00b365; fill-rule: evenodd;"/>
        <path d="M1467.322,45.708c0-2.275-.905-4.457-2.512-6.064-1.607-1.607-3.789-2.512-6.064-2.512h-105.977c-2.275,0-4.457.905-6.064,2.512-1.607,1.607-2.512,3.789-2.512,6.064v69.039c0,2.275.905,4.457,2.512,6.064,1.607,1.607,3.789,2.512,6.064,2.512h105.977c2.275,0,4.457-.905,6.064-2.512,1.607-1.607,2.512-3.789,2.512-6.064V45.708Z" style="fill: none; stroke: #00b365; stroke-dasharray: 0 10.097; stroke-linecap: round; stroke-linejoin: round; stroke-width: 10px;"/>
      </g>
      <rect x="1356.506" y="9.428" width="98.503" height="98.503" style="fill: #e3feff;"/>
      <rect x="1356.506" y="9.428" width="98.503" height="6.156" style="fill: #c4f7f7;"/>
      <rect x="1365.74" y="34.054" width="15.391" height="15.391" style="fill: #628b9a;"/>
      <path d="M1365.74,49.445h15.391v-15.391h-15.391v15.391ZM1362.662,52.523h21.548v-21.548h-21.548v21.548Z" style="fill: #fff; fill-rule: evenodd;"/>
      <rect x="1365.74" y="34.054" width="15.391" height="6.156" style="fill: #3a6371;"/>
      <rect x="1365.74" y="77.149" width="15.391" height="15.391" style="fill: #628b9a;"/>
      <path d="M1365.74,92.54h15.391v-15.391h-15.391v15.391ZM1362.662,95.618h21.548v-21.548h-21.548v21.548Z" style="fill: #fff; fill-rule: evenodd;"/>
      <rect x="1365.74" y="77.149" width="15.391" height="6.156" style="fill: #3a6371;"/>
      <rect x="1430.383" y="34.054" width="15.391" height="15.391" style="fill: #628b9a;"/>
      <path d="M1430.383,49.445h15.391v-15.391h-15.391v15.391ZM1427.305,52.523h21.548v-21.548h-21.548v21.548Z" style="fill: #fff; fill-rule: evenodd;"/>
      <rect x="1430.383" y="34.054" width="15.391" height="6.156" style="fill: #3a6371;"/>
      <rect x="1430.383" y="77.149" width="15.391" height="15.391" style="fill: #628b9a;"/>
      <path d="M1430.383,92.54h15.391v-15.391h-15.391v15.391ZM1427.305,95.618h21.548v-21.548h-21.548v21.548Z" style="fill: #fff; fill-rule: evenodd;"/>
      <rect x="1430.383" y="77.149" width="15.391" height="6.156" style="fill: #3a6371;"/>
      <rect x="1396.523" y="34.054" width="18.469" height="15.391" style="fill: #628b9a;"/>
      <path d="M1396.523,49.445h18.469v-15.391h-18.469v15.391ZM1393.444,52.523h24.626v-21.548h-24.626v21.548Z" style="fill: #fff; fill-rule: evenodd;"/>
      <rect x="1396.523" y="34.054" width="18.469" height="6.156" style="fill: #3a6371;"/>
      <rect x="1396.523" y="77.149" width="18.469" height="15.391" style="fill: #628b9a;"/>
      <path d="M1396.523,92.54h18.469v-15.391h-18.469v15.391ZM1393.444,95.618h24.626v-21.548h-24.626v21.548Z" style="fill: #fff; fill-rule: evenodd;"/>
      <rect x="1396.523" y="77.149" width="18.469" height="6.156" style="fill: #3a6371;"/>
      <rect x="1393.444" y="21.741" width="24.626" height="9.235" style="fill: #c4f7f7;"/>
      <rect x="1393.444" y="64.836" width="24.626" height="9.235" style="fill: #c4f7f7;"/>
      <rect x="1427.305" y="21.741" width="21.548" height="9.235" style="fill: #c4f7f7;"/>
      <rect x="1427.305" y="64.836" width="21.548" height="9.235" style="fill: #c4f7f7;"/>
      <rect x="1362.662" y="21.741" width="21.548" height="9.235" style="fill: #c4f7f7;"/>
      <rect x="1362.662" y="64.836" width="21.548" height="9.235" style="fill: #c4f7f7;"/>
      <rect x="1356.506" y="-27.511" width="98.503" height="36.939" style="fill: #c2ed00;"/>
      <rect x="1356.506" y="3.271" width="98.503" height="6.156" style="fill: #c1cd51;"/>
      <path d="M1368.818,9.428h-12.313V3.271c0-3.401,2.755-6.156,6.156-6.156s6.156,2.755,6.156,6.156v6.156Z" style="fill: #7eea00; fill-rule: evenodd;"/>
      <path d="M1381.131,9.428h-12.313V3.271c0-3.401,2.755-6.156,6.156-6.156s6.156,2.755,6.156,6.156v6.156Z" style="fill: #7eea00; fill-rule: evenodd;"/>
      <path d="M1393.444,9.428h-12.313V3.271c0-3.401,2.755-6.156,6.156-6.156s6.156,2.755,6.156,6.156v6.156Z" style="fill: #7eea00; fill-rule: evenodd;"/>
      <path d="M1405.757,9.428h-12.313V3.271c0-3.401,2.755-6.156,6.156-6.156s6.156,2.755,6.156,6.156v6.156Z" style="fill: #7eea00; fill-rule: evenodd;"/>
      <path d="M1418.07,9.428h-12.313V3.271c0-3.401,2.755-6.156,6.156-6.156s6.156,2.755,6.156,6.156v6.156Z" style="fill: #7eea00; fill-rule: evenodd;"/>
      <path d="M1442.696,9.428h-12.313V3.271c0-3.401,2.755-6.156,6.156-6.156s6.156,2.755,6.156,6.156v6.156Z" style="fill: #7eea00; fill-rule: evenodd;"/>
      <path d="M1455.009,9.428h-12.313V3.271c0-3.401,2.755-6.156,6.156-6.156s6.156,2.755,6.156,6.156v6.156Z" style="fill: #7eea00; fill-rule: evenodd;"/>
      <path d="M1430.383,9.428h-12.313V3.271c0-3.401,2.755-6.156,6.156-6.156s6.156,2.755,6.156,6.156v6.156Z" style="fill: #7eea00; fill-rule: evenodd;"/>
      <rect x="1070.23" y="9.428" width="98.503" height="98.503" style="fill: #e3feff;"/>
      <rect x="1070.23" y="9.428" width="98.503" height="6.156" style="fill: #c4f7f7;"/>
      <rect x="1079.465" y="34.054" width="15.391" height="15.391" style="fill: #628b9a;"/>
      <path d="M1079.465,49.445h15.391v-15.391h-15.391v15.391ZM1076.386,52.523h21.548v-21.548h-21.548v21.548Z" style="fill: #fff; fill-rule: evenodd;"/>
      <rect x="1079.465" y="34.054" width="15.391" height="6.156" style="fill: #3a6371;"/>
      <rect x="1079.465" y="77.149" width="15.391" height="15.391" style="fill: #628b9a;"/>
      <path d="M1079.465,92.54h15.391v-15.391h-15.391v15.391ZM1076.386,95.618h21.548v-21.548h-21.548v21.548Z" style="fill: #fff; fill-rule: evenodd;"/>
      <rect x="1079.465" y="77.149" width="15.391" height="6.156" style="fill: #3a6371;"/>
      <rect x="1144.107" y="34.054" width="15.391" height="15.391" style="fill: #628b9a;"/>
      <path d="M1144.107,49.445h15.391v-15.391h-15.391v15.391ZM1141.029,52.523h21.548v-21.548h-21.548v21.548Z" style="fill: #fff; fill-rule: evenodd;"/>
      <rect x="1144.107" y="34.054" width="15.391" height="6.156" style="fill: #3a6371;"/>
      <rect x="1144.107" y="77.149" width="15.391" height="15.391" style="fill: #628b9a;"/>
      <path d="M1144.107,92.54h15.391v-15.391h-15.391v15.391ZM1141.029,95.618h21.548v-21.548h-21.548v21.548Z" style="fill: #fff; fill-rule: evenodd;"/>
      <rect x="1144.107" y="77.149" width="15.391" height="6.156" style="fill: #3a6371;"/>
      <rect x="1110.247" y="34.054" width="18.469" height="15.391" style="fill: #628b9a;"/>
      <path d="M1110.247,49.445h18.469v-15.391h-18.469v15.391ZM1107.169,52.523h24.626v-21.548h-24.626v21.548Z" style="fill: #fff; fill-rule: evenodd;"/>
      <rect x="1110.247" y="34.054" width="18.469" height="6.156" style="fill: #3a6371;"/>
      <rect x="1110.247" y="77.149" width="18.469" height="15.391" style="fill: #628b9a;"/>
      <path d="M1110.247,92.54h18.469v-15.391h-18.469v15.391ZM1107.169,95.618h24.626v-21.548h-24.626v21.548Z" style="fill: #fff; fill-rule: evenodd;"/>
      <rect x="1110.247" y="77.149" width="18.469" height="6.156" style="fill: #3a6371;"/>
      <rect x="1107.169" y="21.741" width="24.626" height="9.235" style="fill: #c4f7f7;"/>
      <rect x="1107.169" y="64.836" width="24.626" height="9.235" style="fill: #c4f7f7;"/>
      <rect x="1141.029" y="21.741" width="21.548" height="9.235" style="fill: #c4f7f7;"/>
      <rect x="1141.029" y="64.836" width="21.548" height="9.235" style="fill: #c4f7f7;"/>
      <rect x="1076.386" y="21.741" width="21.548" height="9.235" style="fill: #c4f7f7;"/>
      <rect x="1076.386" y="64.836" width="21.548" height="9.235" style="fill: #c4f7f7;"/>
      <rect x="1070.23" y="-27.511" width="98.503" height="36.939" style="fill: #c2ed00;"/>
      <rect x="1070.23" y="3.271" width="98.503" height="6.156" style="fill: #c1cd51;"/>
      <path d="M1082.543,9.428h-12.313V3.271c0-3.401,2.756-6.156,6.156-6.156s6.156,2.755,6.156,6.156v6.156Z" style="fill: #7eea00; fill-rule: evenodd;"/>
      <path d="M1094.856,9.428h-12.313V3.271c0-3.401,2.756-6.156,6.156-6.156s6.156,2.755,6.156,6.156v6.156Z" style="fill: #7eea00; fill-rule: evenodd;"/>
      <path d="M1107.169,9.428h-12.313V3.271c0-3.401,2.756-6.156,6.156-6.156s6.156,2.755,6.156,6.156v6.156Z" style="fill: #7eea00; fill-rule: evenodd;"/>
      <path d="M1119.482,9.428h-12.313V3.271c0-3.401,2.756-6.156,6.156-6.156s6.156,2.755,6.156,6.156v6.156Z" style="fill: #7eea00; fill-rule: evenodd;"/>
      <path d="M1131.795,9.428h-12.313V3.271c0-3.401,2.756-6.156,6.156-6.156s6.156,2.755,6.156,6.156v6.156Z" style="fill: #7eea00; fill-rule: evenodd;"/>
      <path d="M1156.42,9.428h-12.313V3.271c0-3.401,2.756-6.156,6.156-6.156s6.156,2.755,6.156,6.156v6.156Z" style="fill: #7eea00; fill-rule: evenodd;"/>
      <path d="M1168.733,9.428h-12.313V3.271c0-3.401,2.756-6.156,6.156-6.156s6.156,2.755,6.156,6.156v6.156Z" style="fill: #7eea00; fill-rule: evenodd;"/>
      <path d="M1144.107,9.428h-12.313V3.271c0-3.401,2.756-6.156,6.156-6.156s6.156,2.755,6.156,6.156v6.156Z" style="fill: #7eea00; fill-rule: evenodd;"/>
      <rect x="1214.907" y="9.428" width="98.503" height="98.503" style="fill: #e3feff;"/>
      <rect x="1214.907" y="9.428" width="98.503" height="6.156" style="fill: #c4f7f7;"/>
      <rect x="1224.142" y="34.054" width="15.391" height="15.391" style="fill: #628b9a;"/>
      <path d="M1224.142,49.445h15.391v-15.391h-15.391v15.391ZM1221.063,52.523h21.548v-21.548h-21.548v21.548Z" style="fill: #fff; fill-rule: evenodd;"/>
      <rect x="1224.142" y="34.054" width="15.391" height="6.156" style="fill: #3a6371;"/>
      <rect x="1224.142" y="77.149" width="15.391" height="15.391" style="fill: #628b9a;"/>
      <path d="M1224.142,92.54h15.391v-15.391h-15.391v15.391ZM1221.063,95.618h21.548v-21.548h-21.548v21.548Z" style="fill: #fff; fill-rule: evenodd;"/>
      <rect x="1224.142" y="77.149" width="15.391" height="6.156" style="fill: #3a6371;"/>
      <rect x="1288.784" y="34.054" width="15.391" height="15.391" style="fill: #628b9a;"/>
      <path d="M1288.784,49.445h15.391v-15.391h-15.391v15.391ZM1285.706,52.523h21.548v-21.548h-21.548v21.548Z" style="fill: #fff; fill-rule: evenodd;"/>
      <rect x="1288.784" y="34.054" width="15.391" height="6.156" style="fill: #3a6371;"/>
      <rect x="1288.784" y="77.149" width="15.391" height="15.391" style="fill: #628b9a;"/>
      <path d="M1288.784,92.54h15.391v-15.391h-15.391v15.391ZM1285.706,95.618h21.548v-21.548h-21.548v21.548Z" style="fill: #fff; fill-rule: evenodd;"/>
      <rect x="1288.784" y="77.149" width="15.391" height="6.156" style="fill: #3a6371;"/>
      <rect x="1254.924" y="34.054" width="18.469" height="15.391" style="fill: #628b9a;"/>
      <path d="M1254.924,49.445h18.469v-15.391h-18.469v15.391ZM1251.846,52.523h24.626v-21.548h-24.626v21.548Z" style="fill: #fff; fill-rule: evenodd;"/>
      <rect x="1254.924" y="34.054" width="18.469" height="6.156" style="fill: #3a6371;"/>
      <rect x="1254.924" y="77.149" width="18.469" height="15.391" style="fill: #628b9a;"/>
      <path d="M1254.924,92.54h18.469v-15.391h-18.469v15.391ZM1251.846,95.618h24.626v-21.548h-24.626v21.548Z" style="fill: #fff; fill-rule: evenodd;"/>
      <rect x="1254.924" y="77.149" width="18.469" height="6.156" style="fill: #3a6371;"/>
      <rect x="1251.846" y="21.741" width="24.626" height="9.235" style="fill: #c4f7f7;"/>
      <rect x="1251.846" y="64.836" width="24.626" height="9.235" style="fill: #c4f7f7;"/>
      <rect x="1285.706" y="21.741" width="21.548" height="9.235" style="fill: #c4f7f7;"/>
      <rect x="1285.706" y="64.836" width="21.548" height="9.235" style="fill: #c4f7f7;"/>
      <rect x="1221.063" y="21.741" width="21.548" height="9.235" style="fill: #c4f7f7;"/>
      <rect x="1221.063" y="64.836" width="21.548" height="9.235" style="fill: #c4f7f7;"/>
      <rect x="1214.907" y="-27.511" width="98.503" height="36.939" style="fill: #c2ed00;"/>
      <rect x="1214.907" y="3.271" width="98.503" height="6.156" style="fill: #c1cd51;"/>
      <path d="M1227.22,9.428h-12.313V3.271c0-3.401,2.756-6.156,6.156-6.156s6.156,2.755,6.156,6.156v6.156Z" style="fill: #7eea00; fill-rule: evenodd;"/>
      <path d="M1239.533,9.428h-12.313V3.271c0-3.401,2.756-6.156,6.156-6.156s6.156,2.755,6.156,6.156v6.156Z" style="fill: #7eea00; fill-rule: evenodd;"/>
      <path d="M1251.846,9.428h-12.313V3.271c0-3.401,2.756-6.156,6.156-6.156s6.156,2.755,6.156,6.156v6.156Z" style="fill: #7eea00; fill-rule: evenodd;"/>
      <path d="M1264.159,9.428h-12.313V3.271c0-3.401,2.756-6.156,6.156-6.156s6.156,2.755,6.156,6.156v6.156Z" style="fill: #7eea00; fill-rule: evenodd;"/>
      <path d="M1276.472,9.428h-12.313V3.271c0-3.401,2.756-6.156,6.156-6.156s6.156,2.755,6.156,6.156v6.156Z" style="fill: #7eea00; fill-rule: evenodd;"/>
      <path d="M1301.097,9.428h-12.313V3.271c0-3.401,2.756-6.156,6.156-6.156s6.156,2.755,6.156,6.156v6.156Z" style="fill: #7eea00; fill-rule: evenodd;"/>
      <path d="M1313.41,9.428h-12.313V3.271c0-3.401,2.756-6.156,6.156-6.156s6.156,2.755,6.156,6.156v6.156Z" style="fill: #7eea00; fill-rule: evenodd;"/>
      <path d="M1288.784,9.428h-12.313V3.271c0-3.401,2.756-6.156,6.156-6.156s6.156,2.755,6.156,6.156v6.156Z" style="fill: #7eea00; fill-rule: evenodd;"/>
    </g>
    <g style="opacity: .3;">
      <ellipse cx="618.049" cy="14.827" rx="1.97" ry="1.966" transform="translate(71.318 303.426) rotate(-29.202)" style="fill: #f2b052; opacity: .6;"/>
      <ellipse cx="614.938" cy="7.759" rx="1.97" ry="1.966" transform="translate(74.371 301.01) rotate(-29.202)" style="fill: #f2b052; opacity: .6;"/>
      <ellipse cx="621.203" cy="7.519" rx="1.97" ry="1.966" transform="translate(75.284 304.036) rotate(-29.202)" style="fill: #f2b052; opacity: .6;"/>
      <ellipse cx="602.252" cy=".564" rx="1.97" ry="1.966" transform="translate(76.269 293.907) rotate(-29.202)" style="fill: #f2b052; opacity: .6;"/>
    </g>
    <g style="opacity: .3;">
      <ellipse cx="971.507" cy="146.212" rx="1.97" ry="1.966" transform="translate(52.139 492.575) rotate(-29.202)" style="fill: #f2b052; opacity: .6;"/>
      <ellipse cx="968.396" cy="139.144" rx="1.97" ry="1.966" transform="translate(55.193 490.159) rotate(-29.202)" style="fill: #f2b052; opacity: .6;"/>
      <ellipse cx="974.662" cy="138.904" rx="1.97" ry="1.966" transform="translate(56.106 493.185) rotate(-29.202)" style="fill: #f2b052; opacity: .6;"/>
      <ellipse cx="965.791" cy="123.274" rx="1.97" ry="1.966" transform="translate(62.604 486.87) rotate(-29.202)" style="fill: #f2b052; opacity: .6;"/>
      <ellipse cx="955.711" cy="131.949" rx="1.97" ry="1.966" transform="translate(57.09 483.055) rotate(-29.202)" style="fill: #f2b052; opacity: .6;"/>
    </g>
    <g style="opacity: .3;">
      <ellipse cx="51.548" cy="9.191" rx="1.966" ry="1.97" transform="translate(3.463 29.915) rotate(-33.425)" style="fill: #f2b052; opacity: .6;"/>
      <ellipse cx="44.728" cy="12.814" rx="1.966" ry="1.97" transform="translate(.339 26.757) rotate(-33.425)" style="fill: #f2b052; opacity: .6;"/>
      <ellipse cx="44.028" cy="6.584" rx="1.966" ry="1.97" transform="translate(3.655 25.341) rotate(-33.425)" style="fill: #f2b052; opacity: .6;"/>
      <ellipse cx="29.094" cy="16.581" rx="1.966" ry="1.97" transform="translate(-4.322 18.768) rotate(-33.425)" style="fill: #f2b052; opacity: .6;"/>
      <ellipse cx="38.487" cy="25.995" rx="1.966" ry="1.97" transform="translate(-7.954 25.5) rotate(-33.425)" style="fill: #f2b052; opacity: .6;"/>
    </g>
    <g style="opacity: .3;">
      <ellipse cx="839.202" cy="10.895" rx="1.97" ry="1.966" transform="translate(597.255 814.537) rotate(-73.989)" style="fill: #f2b052; opacity: .6;"/>
      <ellipse cx="846.39" cy="13.72" rx="1.97" ry="1.966" transform="translate(599.744 823.492) rotate(-73.989)" style="fill: #f2b052; opacity: .6;"/>
      <ellipse cx="842.111" cy="18.304" rx="1.97" ry="1.966" transform="translate(592.24 822.699) rotate(-73.989)" style="fill: #f2b052; opacity: .6;"/>
      <ellipse cx="859.418" cy="23.148" rx="1.97" ry="1.966" transform="translate(600.118 842.842) rotate(-73.989)" style="fill: #f2b052; opacity: .6;"/>
      <ellipse cx="860.461" cy="9.89" rx="1.97" ry="1.966" transform="translate(613.616 834.244) rotate(-73.989)" style="fill: #f2b052; opacity: .6;"/>
    </g>
    <g>
      <line x1="841.774" y1="136.705" x2="804.114" y2="136.705" style="fill: none; stroke: #d7f9f8; stroke-linecap: round; stroke-linejoin: round; stroke-width: 7px;"/>
      <line x1="812.136" y1="121.471" x2="790.928" y2="121.471" style="fill: none; stroke: #d7f9f8; stroke-linecap: round; stroke-linejoin: round; stroke-width: 7px;"/>
      <line x1="831.85" y1="117.887" x2="841.774" y2="117.887" style="fill: none; stroke: #d7f9f8; stroke-linecap: round; stroke-linejoin: round; stroke-width: 7px;"/>
    </g>
    <g>
      <rect x="633.286" y="51.196" width="6" height="4.863" transform="translate(77.205 362.114) rotate(-33.706)" style="fill: #e97a00;"/>
      <g>
        <path d="M643.207,49.694l-13.714,9.148,4.541,8.992,3.386-2.259c1.725-1.15,3.79-1.68,5.855-1.502h0c2.065.179,4.13-.351,5.854-1.501,1.69-1.128,3.56-2.375,3.56-2.375l-9.483-10.503Z" style="fill: #fff; fill-rule: evenodd;"/>
        <g style="clip-path: url(#clippath-1);">
          <rect x="626.204" y="53.652" width="22.746" height="2" transform="translate(76.853 363.003) rotate(-33.706)" style="fill: #05658d;"/>
          <rect x="628.424" y="56.979" width="22.746" height="2" transform="translate(75.38 364.794) rotate(-33.706)" style="fill: #05658d;"/>
          <path d="M640.272,50.316h5.823v6h-1.857c-2.189,0-3.966-1.777-3.966-3.966v-2.034h0Z" transform="translate(78.537 365.89) rotate(-33.706)" style="fill: #fd9a0d;"/>
          <path d="M634.082,57.091h1.857v6h-5.823v-2.034c0-2.189,1.777-3.966,3.966-3.966Z" transform="translate(1192.984 -241.2097) rotate(146.2936)" style="fill: #fd9a0d;"/>
          <rect x="630.644" y="60.307" width="22.746" height="2" transform="translate(73.907 366.585) rotate(-33.706)" style="fill: #05658d;"/>
          <rect x="632.863" y="63.634" width="22.746" height="2" transform="translate(72.433 368.376) rotate(-33.706)" style="fill: #05658d;"/>
        </g>
      </g>
      <g>
        <path d="M617.817,49.44c-1.348-2.021-.949-4.659.892-5.887l14.993-10.002c1.84-1.228,4.429-.583,5.777,1.438l4.938,7.403c1.348,2.021.949,4.659-.891,5.887l-14.993,10.002c-1.841,1.228-4.43.583-5.778-1.438l-4.938-7.403Z" style="fill: #fd9a0d;"/>
        <path d="M636.322,48.276c.919,1.378.548,3.241-.831,4.16-1.378.919-3.241.547-4.16-.831l4.991-3.33Z" style="fill: #cc6b00; fill-rule: evenodd;"/>
        <g>
          <circle cx="647.969" cy="42.31" r="1.5" style="fill: #5c594d;"/>
          <circle cx="645.75" cy="38.982" r="1.5" style="fill: #5c594d;"/>
          <circle cx="643.53" cy="35.655" r="1.5" style="fill: #5c594d;"/>
          <circle cx="641.31" cy="32.327" r="1.5" style="fill: #5c594d;"/>
          <circle cx="647.969" cy="42.31" r="1.5" style="fill: #f58caa;"/>
          <circle cx="645.75" cy="38.982" r="1.5" style="fill: #f58caa;"/>
          <circle cx="643.53" cy="35.655" r="1.5" style="fill: #f58caa;"/>
          <circle cx="641.31" cy="32.327" r="1.5" style="fill: #f58caa;"/>
          <circle cx="639.09" cy="29" r="1.5" style="fill: #f58caa;"/>
          <circle cx="621.349" cy="60.068" r="1.5" style="fill: #f58caa;"/>
          <circle cx="619.129" cy="56.74" r="1.5" style="fill: #f58caa;"/>
          <circle cx="616.909" cy="53.413" r="1.5" style="fill: #f58caa;"/>
          <circle cx="614.689" cy="50.085" r="1.5" style="fill: #f58caa;"/>
          <circle cx="612.47" cy="46.758" r="1.5" style="fill: #f58caa;"/>
          <path d="M612.568,46.904c-.983-1.473-1.339-3.276-.993-5.013.347-1.736,1.369-3.264,2.842-4.247,4.551-3.036,10.961-7.312,15.512-10.348,1.473-.983,3.276-1.34,5.012-.993,1.736.347,3.264,1.369,4.246,2.842,3.342,5.009,8.011,12.01,9.891,14.827.221.331.301.736.223,1.126-.078.39-.308.733-.639.954-.689.459-1.621.274-2.08-.415-1.314-1.97-3.885-5.824-5.501-8.247-.793-1.189-2.399-1.509-3.587-.717-4.143,2.764-13.183,8.794-17.326,11.558-1.188.792-1.509,2.399-.717,3.588,1.616,2.423,4.187,6.277,5.501,8.247.46.689.274,1.62-.415,2.08-.33.22-.736.301-1.126.223-.391-.078-.734-.307-.955-.638-1.88-2.818-6.549-9.818-9.891-14.827Z" style="fill: #f43966; fill-rule: evenodd;"/>
        </g>
        <g>
          <g>
            <rect x="622.145" y="46.692" width="7" height="9" rx="1.701" ry="1.701" transform="translate(76.768 355.8) rotate(-33.706)" style="fill: #fff;"/>
            <rect x="623.025" y="46.879" width="4.217" height="7.09" rx=".844" ry=".844" transform="translate(77.107 355.387) rotate(-33.706)" style="fill: #071c1c;"/>
          </g>
          <g>
            <rect x="634.624" y="38.368" width="7" height="9" rx="1.701" ry="1.701" transform="translate(83.485 361.325) rotate(-33.706)" style="fill: #fff;"/>
            <rect x="635.503" y="38.555" width="4.217" height="7.09" rx=".844" ry=".844" transform="translate(83.825 360.912) rotate(-33.706)" style="fill: #071c1c;"/>
          </g>
        </g>
        <g>
          <path d="M622.636,47.789c-.613-.918-1.855-1.167-2.774-.554l-1.568,1.046c-.918.612-1.166,1.855-.554,2.774.613.918,1.856,1.166,2.774.554l1.568-1.046c.918-.613,1.166-1.855.554-2.774Z" style="fill: #071c1c; fill-rule: evenodd;"/>
          <path d="M620.709,48.532c-.867-1.299-.515-3.058.784-3.924l1.427-.952c1.299-.867,3.058-.516,3.925.784.867,1.299.516,3.058-.784,3.925l-1.427.952c-1.3.867-3.058.516-3.925-.784Z" style="fill: #071c1c;"/>
          <g>
            <path d="M632.483,61.338h0c-.333.881-1.226,1.411-2.157,1.272-3.968-.592-14.009-2.09-14.009-2.09l.568-4.248,14.342,2.811c1.026.201,1.625,1.277,1.255,2.256Z" style="fill: #fd9a0d; fill-rule: evenodd;"/>
            <path d="M617.416,56.924c.297.443.394.99.268,1.508-.042.172-.088.361-.136.559-.334,1.373-1.682,2.245-3.07,1.987,0,0-.001,0-.003,0-.811-.15-1.526-.622-1.985-1.306-.459-.685-.623-1.526-.455-2.333.066-.315.125-.601.172-.826.061-.291.302-.511.598-.544.467-.052,1.093-.122,1.093-.122,0,0,.098-.325.17-.563.042-.14.184-.224.327-.194.264.055.695.145,1.097.23.634.133,1.19.509,1.55,1.046.123.185.253.378.372.557Z" style="fill: #fd9a0d; fill-rule: evenodd;"/>
            <path d="M615.043,58.629c.659.149,1.314-.267,1.462-.925.148-.659-.266-1.314-.925-1.462l-2.416-.543c-.659-.149-1.314.267-1.462.925-.148.659.266,1.314.925,1.462l2.416.543Z" style="fill: #fd9a0d; fill-rule: evenodd;"/>
          </g>
          <g>
            <path d="M642.232,51.031h0c-.114.934.43,1.819,1.319,2.129,3.789,1.32,13.375,4.66,13.375,4.66l1.472-4.025-14.005-4.178c-1.002-.299-2.033.375-2.16,1.414Z" style="fill: #fd9a0d; fill-rule: evenodd;"/>
            <path d="M657.624,54.125c-.469.254-.809.694-.939,1.211-.043.172-.09.361-.14.558-.343,1.371.445,2.77,1.795,3.187,0,0,.002,0,.002.001.788.244,1.64.159,2.365-.233.725-.393,1.261-1.062,1.487-1.854.088-.31.168-.591.231-.812.082-.286-.03-.593-.277-.759-.389-.263-.911-.616-.911-.616,0,0,.064-.334.111-.578.027-.144-.059-.284-.199-.324-.259-.074-.683-.194-1.078-.306-.623-.177-1.29-.103-1.859.206-.195.106-.4.217-.588.32Z" style="fill: #fd9a0d; fill-rule: evenodd;"/>
            <path d="M658.933,56.737c-.652-.175-1.039-.847-.864-1.498.175-.653.847-1.04,1.499-.864l2.391.642c.652.175,1.039.847.864,1.498-.175.653-.847,1.04-1.499.864l-2.391-.642Z" style="fill: #fd9a0d; fill-rule: evenodd;"/>
          </g>
          <path d="M625.505,44.674c-.919-1.377-.546-3.242.831-4.16l1.664-1.11c1.378-.919,3.242-.547,4.16.831.919,1.377.547,3.242-.831,4.16l-1.664,1.11c-1.377.918-3.242.547-4.16-.831Z" style="fill: #071c1c; fill-rule: evenodd;"/>
          <path d="M636.139,38.782c-.613-.918-.364-2.161.554-2.774l1.567-1.046c.918-.613,2.161-.364,2.774.554.613.918.365,2.161-.554,2.774l-1.567,1.046c-.918.613-2.161.364-2.774-.554Z" style="fill: #071c1c; fill-rule: evenodd;"/>
          <path d="M637.564,37.288c-.867-1.299-2.625-1.65-3.925-.784l-1.427.952c-1.299.867-1.651,2.625-.784,3.924.867,1.299,2.625,1.65,3.925.784l1.427-.952c1.299-.867,1.651-2.625.784-3.925Z" style="fill: #071c1c;"/>
        </g>
      </g>
      <path d="M630.097,56.924c-.11-.191-.045-.436.146-.546.191-.11.436-.045.546.146l.204.354c.11.191.045.436-.146.546-.191.11-.436.045-.546-.146l-.204-.354Z" style="fill: #4eeae6; fill-rule: evenodd;"/>
      <path d="M620.682,55.9c-.11-.191-.045-.436.146-.546s.436-.045.546.146l.205.354c.11.191.045.436-.146.546-.191.11-.436.045-.546-.146l-.205-.354Z" style="fill: #c4f6fd; fill-rule: evenodd;"/>
      <path d="M618.282,53.436c-.11-.191-.045-.436.146-.546.191-.11.436-.045.546.146l.205.354c.11.191.045.436-.146.546-.191.11-.436.045-.546-.146l-.205-.354Z" style="fill: #c4f6fd; fill-rule: evenodd;"/>
      <path d="M638.399,53.557c-.208-.361-.084-.822.276-1.031.361-.208.822-.084,1.031.276l.604,1.045c.208.361.084.822-.276,1.031-.361.208-.822.084-1.031-.276l-.604-1.045Z" style="fill: #4eeae6; fill-rule: evenodd;"/>
      <path d="M634.308,55.032c-.208-.361-.084-.822.276-1.031.361-.208.822-.084,1.031.276l.604,1.045c.208.361.084.822-.276,1.031-.361.208-.822.084-1.031-.276l-.604-1.045Z" style="fill: #4eeae6; fill-rule: evenodd;"/>
      <path d="M637.42,65.731c1.725-1.15,3.79-1.68,5.855-1.502s4.13-.351,5.854-1.501c.836-.558,1.715-1.144,2.391-1.595-.404-.924-.748-1.713-.95-2.174-.211-.483-.688-.795-1.216-.795h0c-.458,0-.885.231-1.135.614s-.291.867-.107,1.286c.082.187.163.373.24.549.113.259.088.557-.066.794-.155.236-.418.379-.701.379h-.021c-.333,0-.634-.197-.767-.502-.529-1.209-1.871-4.278-2.433-5.56-.153-.351-.5-.577-.882-.577h0c-.327,0-.632.165-.811.439-.179.274-.208.619-.077.919.21.481.441,1.007.626,1.432.08.184.063.395-.047.563s-.297.269-.497.269h0c-.227,0-.433-.135-.523-.343-.195-.446-.543-1.242-.81-1.85-.219-.501-.715-.825-1.262-.825h-.048c-.465,0-.898.234-1.153.624-.255.389-.296.88-.109,1.306.283.646.591,1.35.846,1.933.123.28.095.602-.072.858-.167.255-.452.41-.757.41h-.001c-.351,0-.668-.208-.808-.529-.173-.396-.413-.944-.609-1.392-.211-.483-.689-.795-1.216-.795h0c-.458,0-.885.231-1.135.614s-.291.867-.107,1.286c.025.057.049.113.074.168.092.21.071.451-.054.643-.125.192-.338.307-.567.307h-.01c-.27,0-.513-.159-.621-.406-.217-.495-.587-1.341-.861-1.967-.212-.483-.689-.795-1.216-.795h0c-.458,0-.885.231-1.135.614s-.291.867-.107,1.286c.656,1.499,2.605,5.854,3.424,7.681l.2.396s1.764-1.176,3.386-2.259Z" style="fill: #4eeae6;"/>
    </g>
  </g>
</svg>