<?xml version="1.0" encoding="UTF-8"?>
<svg xmlns="http://www.w3.org/2000/svg" width="1500" height="145" xmlns:xlink="http://www.w3.org/1999/xlink" version="1.1" viewBox="0 0 1500 145">
  <!-- Generator: Adobe Illustrator 30.5.1, SVG Export Plug-In . SVG Version: 2.1.4 Build 3)  -->
  <defs>
    <clipPath id="clippath">
      <rect width="1500" height="145" style="fill: none;"/>
    </clipPath>
    <clipPath id="clippath-2">
      <path d="M285.667-10.435c11.835-20.498,4.816-46.695-15.682-58.53-20.496-11.835-46.697-4.816-58.531,15.682l74.213,42.848Z" style="fill: none;"/>
    </clipPath>
    <clipPath id="clippath-3">
      <path d="M737.172-7.953l-18.717-13.096V45.741h19.678c1.568,0,2.816-1.332,2.734-2.92l-2.516-48.637c-.044-.859-.48-1.649-1.178-2.138Z" style="fill: none;"/>
    </clipPath>
    <clipPath id="clippath-4">
      <path d="M702.873-7.953l-18.717-13.096V45.741h19.678c1.568,0,2.816-1.332,2.734-2.92l-2.516-48.637c-.044-.859-.48-1.649-1.178-2.138Z" style="fill: none;"/>
    </clipPath>
    <clipPath id="clippath-5">
      <path d="M668.402-7.953l-18.717-13.096V45.741h19.678c1.568,0,2.816-1.332,2.734-2.92l-2.516-48.637c-.044-.859-.48-1.649-1.178-2.138Z" style="fill: none;"/>
    </clipPath>
    <clipPath id="clippath-6">
      <path d="M833.8,60.016h-85.437v-4.437c0-15.109,12.085-27.357,26.994-27.357h41.925c3.548,0,6.7,2.294,7.833,5.701l8.685,26.093Z" style="fill: none;"/>
    </clipPath>
    <clipPath id="clippath-7">
      <path d="M762.967,60.016h70.833l-7.058-21.206h-44.144c-10.842,0-19.632,8.908-19.632,19.896v1.309Z" style="fill: none;"/>
    </clipPath>
    <clipPath id="clippath-8">
      <path d="M859.342,91.022h-250.75l6.461-20.272c2.04-6.399,7.916-10.736,14.551-10.74l212.628-.083c3.302,0,6.261,2.068,7.434,5.197l9.675,25.898Z" style="fill: none;"/>
    </clipPath>
    <clipPath id="clippath-9">
      <path d="M776.755,82.894c-4.429,0-8.019,3.639-8.019,8.127,0,4.488,3.59,8.127,8.019,8.127s8.019-3.639,8.019-8.127c0-4.488-3.59-8.127-8.019-8.127ZM776.755,94.622c-1.962,0-3.553-1.612-3.553-3.601s1.591-3.601,3.553-3.601,3.553,1.612,3.553,3.601-1.591,3.601-3.553,3.601Z" style="fill: none;"/>
    </clipPath>
    <clipPath id="clippath-10">
      <path d="M803.403,82.894c-4.429,0-8.019,3.639-8.019,8.127,0,4.488,3.59,8.127,8.019,8.127s8.019-3.639,8.019-8.127c0-4.488-3.59-8.127-8.019-8.127ZM803.403,94.622c-1.962,0-3.553-1.612-3.553-3.601s1.591-3.601,3.553-3.601,3.553,1.612,3.553,3.601-1.591,3.601-3.553,3.601Z" style="fill: none;"/>
    </clipPath>
    <clipPath id="clippath-11">
      <path d="M829.935,82.894c-4.429,0-8.019,3.639-8.019,8.127,0,4.488,3.59,8.127,8.019,8.127s8.019-3.639,8.019-8.127c0-4.488-3.59-8.127-8.019-8.127ZM829.935,94.622c-1.962,0-3.553-1.612-3.553-3.601s1.591-3.601,3.553-3.601,3.553,1.612,3.553,3.601c0,1.989-1.591,3.601-3.553,3.601Z" style="fill: none;"/>
    </clipPath>
    <clipPath id="clippath-12">
      <path d="M899.587,91.104l-300.511-.08c-2.955,0-5.166,2.712-4.569,5.606l4.26,20.655c2,9.698,10.436,16.645,20.212,16.645h246.945c10.44,0,20.102-5.593,25.407-14.706l12.287-21.11c1.81-3.109-.433-7.01-4.03-7.01Z" style="fill: none;"/>
    </clipPath>
  </defs>
  <g style="isolation: isolate;">
    <g id="Details">
      <g style="clip-path: url(#clippath);">
        <rect x="-10.125" y="-1583.498" width="1520.249" height="3053.416" style="fill: #61d1d5;"/>
        <path d="M1209.742-1888.582c-76.136,0-138.076,61.941-138.076,138.077,0,9.374-7.626,17-17,17h-106.263c-9.374,0-17-7.626-17-17v-2.009c0-36.943-30.057-67-67-67h-75.775c-41.992,0-76.156-34.163-76.156-76.156v-85.988c0-34.188-27.813-62-62-62h-144.932c-34.187,0-62,27.812-62,62v1.583c0,6.616-5.383,12-12,12h-77.199c-41.355,0-75,33.645-75,75v1.615c0,6.616-5.383,12-12,12H-56.875V20.767h125.29c19.299,0,35,15.701,35,35v28.562c0,46.869,38.131,85,85,85h282.678c46.869,0,85-38.131,85-85v-4.012c0-19.299,15.701-35,35-35h100.898c106.145,0,192.5-86.354,192.5-192.5,0-13.785,11.215-25,25-25h189.302c13.785,0,25,11.215,25,25v6.941c0,13.785-11.215,25-25,25h-1.646c-41.355,0-75,33.646-75,75.001V94.328c0,41.355,33.645,75,75,75h68.108c41.355,0,75-33.645,75-75,0-34.095,27.737-61.833,61.832-61.833h254.837v-1921.077h-347.181Z" style="fill: #7ee6e4;"/>
        <path d="M1045.191-1313.972h0c0-51.28,41.571-92.851,92.85-92.851h57.665c32.387,0,58.642-26.255,58.642-58.642h0c0-32.387,26.255-58.642,58.642-58.642h218.932v-339.474h-322.181c-62.45,0-113.076,50.626-113.076,113.076h0c0,23.196-18.804,42-42,42h-106.262c-23.196,0-42-18.804-42-42v-2.009c0-23.196-18.804-42-42-42h-75.776c-55.867,0-101.156-45.289-101.156-101.156v-85.988c0-20.435-16.565-37-37-37h-144.932c-20.435,0-37,16.565-37,37v1.583c0,20.435-16.565,37-37,37h-77.199c-27.614,0-50,22.386-50,50v1.615c0,20.435-16.565,37-37,37H-31.875V-4.233h100.289c33.137,0,60,26.863,60,60v28.561c0,33.137,26.863,60,60,60h282.678c33.137,0,60-26.863,60-60v-4.011c0-33.137,26.863-60,60-60h100.898c92.508,0,167.5-74.992,167.5-167.5h0c0-27.614,22.386-50,50-50h189.302c27.614,0,50,22.386,50,50v6.942c0,27.614-22.386,50-50,50h-1.647c-27.614,0-50,22.386-50,50V94.328c0,27.614,22.386,50,50,50h68.108c27.614,0,50-22.386,50-50h0c0-47.956,38.876-86.832,86.832-86.832h229.837v-328.037c0-39.064-31.668-70.732-70.732-70.732h-323.15c-50.932,0-92.285-41.008-92.845-91.807-.004-.347-.006-830.544-.006-830.892Z" style="fill: #fbed97;"/>
        <g>
          <path d="M1209.742-1803.581c-29.313,0-53.076,23.763-53.076,53.076h0c0,56.333-45.667,102-102,102h-353.588c-40.652,0-73.606-32.955-73.606-73.606v-210.547c0-14.359-11.641-26-26-26h-56.442c-10.394,0-19.895,6.146-23.89,15.742-14.612,35.099-49.272,59.841-89.6,59.841h-46.653c-11.17,0-21.157,7.295-24.204,18.042-11.534,40.685-49.013,70.574-93.342,70.574H-1.979L-13.354-52.12l115.314-.491c49.895,14.55,86.454,60.7,86.454,115.229v.695c.001,13.259,10.754,24.004,24.013,23.997l236.679-.131c11.698-.007,21.708-8.443,23.64-19.98,9.508-56.77,58.875-100.032,118.346-100.032h100.898c59.37,0,107.5-48.129,107.5-107.5h0c0-60.752,49.249-110,110-110h189.003c21.384,0,38.798-17.186,39.08-38.568h0c.246-18.686-12.768-34.942-31.062-38.758-28.801-6.009-55.263-20.244-76.552-41.532-28.243-28.244-44.073-65.595-44.746-105.431-.015-.883-.022-838.466-.022-839.351,0-40.828,15.899-79.212,44.769-108.081,28.87-28.869,67.254-44.769,108.082-44.769h28.622c14.589,0,27.327-10.069,30.48-24.313,11.76-53.123,59.237-92.972,115.846-92.972h312.76v-219.474h-416.008Z" style="fill: #62c244;"/>
          <path d="M-3.347-52.162l105.307-.449c49.895,14.55,86.454,60.7,86.454,115.229v.695c.001,13.259,10.754,24.004,24.013,23.997l236.679-.131c11.698-.007,21.708-8.443,23.64-19.98,9.508-56.77,58.875-100.032,118.346-100.032h100.898c59.37,0,107.5-48.129,107.5-107.5h0c0-60.751,49.249-110,110-110h189.003c21.384,0,38.798-17.186,39.08-38.568.246-18.686-12.768-34.942-31.062-38.758-28.801-6.009-55.263-20.244-76.552-41.532-28.243-28.244-44.073-65.594-44.746-105.431-.015-.882-.022-838.466-.022-839.351,0-40.828,15.899-79.212,44.769-108.081,28.87-28.869,67.254-44.769,108.082-44.769h28.623c14.589,0,27.327-10.069,30.48-24.313,11.76-53.123,59.237-92.972,115.846-92.972h307.757" style="fill: none; stroke: #62c244; stroke-dasharray: 0 10.007; stroke-linecap: round; stroke-linejoin: round; stroke-width: 10px;"/>
        </g>
        <g style="opacity: .331;">
          <path d="M338.885,46.583c1.232,0,2.231-1,2.231-2.236v-7.001c0-1.236-.999-2.236-2.231-2.236-1.232,0-2.231,1-2.231,2.236v7.001c0,1.236.999,2.236,2.231,2.236Z" style="fill: #00703a;"/>
          <path d="M329.571,46.583c1.232,0,2.231-1,2.231-2.236v-4.667c0-1.236-.999-2.236-2.231-2.236-1.232,0-2.231,1-2.231,2.236v4.667c0,1.236.999,2.236,2.231,2.236Z" style="fill: #00703a;"/>
          <path d="M347.424,46.583c1.232,0,2.231-1,2.231-2.236v-4.667c0-1.236-.999-2.236-2.231-2.236s-2.231,1-2.231,2.236v4.667c0,1.236.999,2.236,2.231,2.236Z" style="fill: #00703a;"/>
          <path d="M313.755,65.061c1.232,0,2.231-1,2.231-2.236v-7.001c0-1.236-.999-2.236-2.231-2.236-1.232,0-2.231,1-2.231,2.236v7.001c0,1.236.999,2.236,2.231,2.236Z" style="fill: #00703a;"/>
          <path d="M304.441,65.061c1.232,0,2.231-1,2.231-2.236v-4.669c0-1.236-.999-2.236-2.231-2.236-1.232,0-2.231,1-2.231,2.236v4.669c0,1.236.999,2.236,2.231,2.236Z" style="fill: #00703a;"/>
          <path d="M322.292,65.061c1.232,0,2.231-1,2.231-2.236v-4.669c0-1.236-.999-2.236-2.231-2.236-1.232,0-2.231,1-2.231,2.236v4.669c0,1.236.999,2.236,2.231,2.236Z" style="fill: #00703a;"/>
          <path d="M305.121,26.355c1.232,0,2.231-1,2.231-2.236v-7.001c0-1.236-.999-2.236-2.231-2.236-1.232,0-2.231,1-2.231,2.236v7.001c0,1.236.999,2.236,2.231,2.236Z" style="fill: #00703a;"/>
          <path d="M295.806,26.355c1.232,0,2.231-1,2.231-2.236v-4.669c0-1.236-.999-2.236-2.231-2.236-1.232,0-2.231,1-2.231,2.236v4.669c0,1.236.999,2.236,2.231,2.236Z" style="fill: #00703a;"/>
          <path d="M313.659,26.355c1.232,0,2.231-1,2.231-2.236v-4.669c0-1.236-.999-2.236-2.231-2.236-1.232,0-2.231,1-2.231,2.236v4.669c0,1.236.999,2.236,2.231,2.236Z" style="fill: #00703a;"/>
        </g>
        <g style="opacity: .35;">
          <g>
            <circle cx="1351.817" cy="101.356" r="2.427" transform="translate(534.7635 1183.0703) rotate(-57.223)" style="fill: #f2b052; opacity: .6;"/>
            <circle cx="1342.634" cy="98.808" r="2.427" transform="translate(532.6945 1174.1815) rotate(-57.223)" style="fill: #f2b052; opacity: .6;"/>
            <circle cx="1347.302" cy="92.648" r="2.427" transform="translate(540.0145 1175.2809) rotate(-57.223)" style="fill: #f2b052; opacity: .6;"/>
            <circle cx="1325.442" cy="88.912" r="2.427" transform="translate(533.1298 1155.1875) rotate(-57.223)" style="fill: #f2b052; opacity: .6;"/>
            <circle cx="1325.85" cy="105.289" r="2.427" transform="translate(519.5472 1163.0416) rotate(-57.223)" style="fill: #f2b052; opacity: .6;"/>
          </g>
        </g>
        <g style="opacity: .35;">
          <g>
            <circle cx="1158.181" cy="90.741" r="2.427" transform="translate(454.8822 1015.3965) rotate(-57.223)" style="fill: #f2b052; opacity: .6;"/>
            <circle cx="1148.999" cy="88.193" r="2.427" transform="translate(452.8132 1006.5076) rotate(-57.223)" style="fill: #f2b052; opacity: .6;"/>
            <circle cx="1153.667" cy="82.033" r="2.427" transform="translate(460.1331 1007.607) rotate(-57.223)" style="fill: #f2b052; opacity: .6;"/>
            <circle cx="1131.806" cy="78.297" r="2.427" transform="translate(453.248 987.514) rotate(-57.223)" style="fill: #f2b052; opacity: .6;"/>
            <circle cx="1132.215" cy="94.674" r="2.427" transform="translate(439.666 995.368) rotate(-57.223)" style="fill: #f2b052; opacity: .6;"/>
          </g>
        </g>
        <line x1="1198.148" y1="62.435" x2="1170.803" y2="62.435" style="fill: none; stroke: #fbed97; stroke-dasharray: 0 6.534; stroke-linecap: round; stroke-linejoin: round; stroke-width: 6.534px;"/>
        <g>
          <path d="M337.638,126.944c0-2.043-1.658-3.701-3.701-3.701h-145.259c-2.043,0-3.701,1.658-3.701,3.701s1.658,3.701,3.701,3.701h145.259c2.042,0,3.701-1.658,3.701-3.701Z" style="fill: #f2b052; opacity: .3;"/>
          <path d="M291.829,111.962c0-1.899-.751-3.72-2.096-5.063-1.345-1.342-3.161-2.097-5.065-2.097h0c-1.904,0-3.72.755-5.065,2.097-1.345,1.343-2.096,3.164-2.096,5.063v6.897c0,1.899.751,3.72,2.096,5.063,1.345,1.342,3.161,2.097,5.065,2.097h0c1.904,0,3.72-.754,5.065-2.097,1.345-1.343,2.096-3.164,2.096-5.063v-6.897Z" style="fill: #b74f25;"/>
          <path d="M310.333,111.962c0-1.899-.751-3.72-2.096-5.063-1.345-1.342-3.161-2.097-5.065-2.097h0c-1.904,0-3.72.755-5.065,2.097-1.345,1.343-2.096,3.164-2.096,5.063v6.897c0,1.899.751,3.72,2.096,5.063,1.345,1.342,3.161,2.097,5.065,2.097h0c1.904,0,3.72-.754,5.065-2.097,1.345-1.343,2.096-3.164,2.096-5.063v-6.897Z" style="fill: #b74f25;"/>
          <path d="M329.281,111.962c0-1.899-.751-3.72-2.096-5.063-1.345-1.342-3.161-2.097-5.065-2.097h0c-1.904,0-3.72.755-5.065,2.097-1.345,1.343-2.096,3.164-2.096,5.063v6.897c0,1.899.751,3.72,2.096,5.063,1.345,1.342,3.161,2.097,5.065,2.097h0c1.904,0,3.72-.754,5.065-2.097,1.345-1.343,2.096-3.164,2.096-5.063v-6.897Z" style="fill: #b74f25;"/>
          <path d="M213.185,111.962c0-1.899-.751-3.72-2.096-5.063-1.345-1.342-3.161-2.097-5.065-2.097h0c-1.904,0-3.72.755-5.065,2.097-1.345,1.343-2.096,3.164-2.096,5.063v6.897c0,1.899.751,3.72,2.096,5.063,1.345,1.342,3.161,2.097,5.065,2.097h0c1.904,0,3.72-.754,5.065-2.097,1.345-1.343,2.096-3.164,2.096-5.063v-6.897Z" style="fill: #b74f25;"/>
          <path d="M238.486-12.662l14.935-23.205-3.319-2.072-15.304,23.619V24.239h3.688V-12.662Z" style="fill: #fff;"/>
          <g style="clip-path: url(#clippath-2);">
            <path d="M240.335,3.739c-4.766,2.134-9.833,3.613-15.073,4.362-1.92-4.893-3.133-9.982-3.64-15.113l.05-.087c-1.219-12.462,1.692-25.21,8.671-36.133,6.044-9.461,14.614-16.726,24.49-21.189l.05-.087c4.797-2.161,9.906-3.657,15.186-4.412,1.918,4.892,3.133,9.982,3.64,15.113l.015.147c1.214,12.455-1.7,25.193-8.675,36.109-6.065,9.497-14.678,16.782-24.601,21.241l-.113.05Z" style="fill: #ed9338;"/>
          </g>
          <polygon points="232.647 24.244 235.423 24.244 220.14 126.019 217.364 126.019 232.647 24.244" style="fill: #fff;"/>
          <polygon points="257.151 24.244 254.376 24.244 269.658 126.019 272.434 126.019 257.151 24.244" style="fill: #fff;"/>
          <rect x="232.166" y="37.196" width="25.444" height="2.776" style="fill: #fff;"/>
          <rect x="233.555" y="24.241" width="22.668" height="2.776" style="fill: #fff;"/>
          <rect x="232.626" y="10.371" width="24.518" height="14.341" style="fill: #fff;"/>
          <rect x="229.856" y="50.142" width="30.07" height="2.776" style="fill: #fff;"/>
          <rect x="228.007" y="63.097" width="33.771" height="2.776" style="fill: #fff;"/>
          <rect x="226.15" y="76.051" width="37.471" height="2.776" style="fill: #fff;"/>
          <rect x="224.301" y="89.006" width="41.172" height="2.776" style="fill: #fff;"/>
          <rect x="222.452" y="101.961" width="44.873" height="2.776" style="fill: #fff;"/>
          <rect x="219.676" y="114.915" width="50.425" height="2.776" style="fill: #fff;"/>
          <g>
            <path d="M255.296-6.82c0-1.8-1.462-3.26-3.26-3.26h-13.835c-1.798,0-3.26,1.46-3.26,3.26V-.299c0,1.8,1.462,3.26,3.26,3.26h13.835c1.798,0,3.26-1.46,3.26-3.26v-6.521Z" style="fill: #e99a3b;"/>
            <path d="M228.005,9.44c-1.279,0-2.314-1.036-2.314-2.313s1.036-2.314,2.314-2.314h10.239c1.279,0,2.315,1.036,2.315,2.314s-1.036,2.313-2.315,2.313h-10.239Z" style="fill: #e99a3b;"/>
            <path d="M230.086,8.226c-.638,1.105-2.054,1.485-3.16.846-1.106-.638-1.485-2.055-.847-3.16l5.466-9.467c.638-1.105,2.054-1.485,3.16-.847,1.106.639,1.485,2.055.847,3.16l-5.466,9.467Z" style="fill: #e99a3b;"/>
            <path d="M261.838,9.44c1.279,0,2.314-1.036,2.314-2.313s-1.036-2.314-2.314-2.314h-10.239c-1.279,0-2.315,1.036-2.315,2.314s1.036,2.313,2.315,2.313h10.239Z" style="fill: #e99a3b;"/>
            <path d="M259.77,8.303c.636,1.102,2.053,1.484,3.159.845,1.105-.639,1.484-2.056.848-3.158l-5.514-9.55c-.636-1.102-2.053-1.483-3.159-.845-1.106.639-1.484,2.056-.848,3.158l5.514,9.55Z" style="fill: #e99a3b;"/>
            <path d="M252.056,4.812h-13.878l-1.386,14.34h16.654l-1.39-14.34Z" style="fill: #f1d84b;"/>
            <path d="M253.448,19.151h-16.654s-.118,1.254-.236,2.491c-.057.605.142,1.21.552,1.66.41.45.991.707,1.6.707h12.824c.609,0,1.19-.256,1.601-.707.406-.45.609-1.055.552-1.66-.118-1.236-.24-2.491-.24-2.491Z" style="fill: #b74f25;"/>
            <path d="M253.448,23.249c0-.859-.341-1.678-.949-2.285-.607-.607-1.43-.951-2.289-.951h0c-1.789,0-3.238,1.449-3.238,3.236v13.946h6.477v-13.946Z" style="fill: #e99a3b;"/>
            <path d="M243.271,23.249c0-.859-.341-1.678-.949-2.285-.607-.607-1.43-.951-2.29-.951h0c-1.789,0-3.238,1.449-3.238,3.236v13.946h6.477v-13.946Z" style="fill: #e99a3b;"/>
            <path d="M254.276,41.357c1.022-1.771.416-4.033-1.354-5.056-1.923-1.11-4.007-2.313-4.007-2.313l-1.85,3.205,7.211,4.164h0Z" style="fill: #e99a3b;"/>
            <path d="M236.063,41.357c-1.022-1.771-.416-4.033,1.354-5.056,1.923-1.11,4.007-2.313,4.007-2.313l1.85,3.205-7.211,4.164h0Z" style="fill: #e99a3b;"/>
            <circle cx="239.108" cy="-3.975" r="4.164" style="fill: #0c1c1c;"/>
            <circle cx="251.137" cy="-3.975" r="4.164" style="fill: #0c1c1c;"/>
          </g>
        </g>
        <g>
          <g>
            <g>
              <g>
                <path d="M737.172-7.953l-18.717-13.096V45.741h19.678c1.568,0,2.816-1.332,2.734-2.92l-2.516-48.637c-.044-.859-.48-1.649-1.178-2.138Z" style="fill: #39317c;"/>
                <g style="clip-path: url(#clippath-3);">
                  <g>
                    <rect x="718.144" y="17.975" width="24.771" height="3.901" style="fill: #15343f; mix-blend-mode: multiply; opacity: .146;"/>
                    <rect x="718.144" y="25.93" width="24.771" height="3.901" style="fill: #15343f; mix-blend-mode: multiply; opacity: .146;"/>
                    <rect x="718.144" y="33.885" width="24.771" height="3.901" style="fill: #15343f; mix-blend-mode: multiply; opacity: .146;"/>
                    <rect x="718.144" y="41.84" width="24.771" height="3.901" style="fill: #15343f; mix-blend-mode: multiply; opacity: .146;"/>
                    <rect x="718.144" y="10.02" width="24.771" height="3.901" style="fill: #15343f; mix-blend-mode: multiply; opacity: .146;"/>
                    <rect x="718.144" y="2.065" width="24.771" height="3.901" style="fill: #15343f; mix-blend-mode: multiply; opacity: .146;"/>
                  </g>
                  <polygon points="719.582 46.867 741.627 46.867 741.627 -10.564 739.607 -10.564 719.582 46.867" style="fill: #15343f; mix-blend-mode: multiply; opacity: .146;"/>
                </g>
                <line x1="718.309" y1="-20.635" x2="718.309" y2="58.206" style="fill: none; stroke: #162141; stroke-linecap: round; stroke-linejoin: round; stroke-width: 4.561px;"/>
                <path d="M716.06,55.774h4.499c2.014,0,3.649,1.635,3.649,3.649v4.01h-11.797v-4.01c0-2.014,1.635-3.649,3.649-3.649Z" style="fill: #162141;"/>
              </g>
              <g>
                <path d="M702.873-7.953l-18.717-13.096V45.741h19.678c1.568,0,2.816-1.332,2.734-2.92l-2.516-48.637c-.044-.859-.48-1.649-1.178-2.138Z" style="fill: #39317c;"/>
                <g style="clip-path: url(#clippath-4);">
                  <g>
                    <rect x="683.845" y="17.975" width="24.771" height="3.901" style="fill: #15343f; mix-blend-mode: multiply; opacity: .146;"/>
                    <rect x="683.845" y="25.93" width="24.771" height="3.901" style="fill: #15343f; mix-blend-mode: multiply; opacity: .146;"/>
                    <rect x="683.845" y="33.885" width="24.771" height="3.901" style="fill: #15343f; mix-blend-mode: multiply; opacity: .146;"/>
                    <rect x="683.845" y="41.84" width="24.771" height="3.901" style="fill: #15343f; mix-blend-mode: multiply; opacity: .146;"/>
                    <rect x="683.845" y="10.02" width="24.771" height="3.901" style="fill: #15343f; mix-blend-mode: multiply; opacity: .146;"/>
                    <rect x="683.845" y="2.065" width="24.771" height="3.901" style="fill: #15343f; mix-blend-mode: multiply; opacity: .146;"/>
                  </g>
                  <polygon points="685.282 46.867 707.327 46.867 707.327 -10.564 705.307 -10.564 685.282 46.867" style="fill: #15343f; mix-blend-mode: multiply; opacity: .146;"/>
                </g>
                <line x1="684.01" y1="-20.635" x2="684.01" y2="58.206" style="fill: none; stroke: #162141; stroke-linecap: round; stroke-linejoin: round; stroke-width: 4.561px;"/>
                <path d="M681.761,55.774h4.499c2.014,0,3.649,1.635,3.649,3.649v4.01h-11.797v-4.01c0-2.014,1.635-3.649,3.649-3.649Z" style="fill: #162141;"/>
              </g>
              <g>
                <path d="M668.402-7.953l-18.717-13.096V45.741h19.678c1.568,0,2.816-1.332,2.734-2.92l-2.516-48.637c-.044-.859-.48-1.649-1.178-2.138Z" style="fill: #39317c;"/>
                <g style="clip-path: url(#clippath-5);">
                  <g>
                    <rect x="649.374" y="17.975" width="24.771" height="3.901" style="fill: #15343f; mix-blend-mode: multiply; opacity: .146;"/>
                    <rect x="649.374" y="25.93" width="24.771" height="3.901" style="fill: #15343f; mix-blend-mode: multiply; opacity: .146;"/>
                    <rect x="649.374" y="33.885" width="24.771" height="3.901" style="fill: #15343f; mix-blend-mode: multiply; opacity: .146;"/>
                    <rect x="649.374" y="41.84" width="24.771" height="3.901" style="fill: #15343f; mix-blend-mode: multiply; opacity: .146;"/>
                    <rect x="649.374" y="10.02" width="24.771" height="3.901" style="fill: #15343f; mix-blend-mode: multiply; opacity: .146;"/>
                    <rect x="649.374" y="2.065" width="24.771" height="3.901" style="fill: #15343f; mix-blend-mode: multiply; opacity: .146;"/>
                  </g>
                  <polygon points="650.811 46.867 672.856 46.867 672.856 -10.564 670.836 -10.564 650.811 46.867" style="fill: #15343f; mix-blend-mode: multiply; opacity: .146;"/>
                </g>
                <line x1="649.539" y1="-20.635" x2="649.539" y2="58.206" style="fill: none; stroke: #162141; stroke-linecap: round; stroke-linejoin: round; stroke-width: 4.561px;"/>
                <path d="M647.29,55.774h4.499c2.014,0,3.649,1.635,3.649,3.649v4.01h-11.797v-4.01c0-2.014,1.635-3.649,3.649-3.649Z" style="fill: #162141;"/>
              </g>
            </g>
            <g>
              <path d="M833.8,60.016h-85.437v-4.437c0-15.109,12.085-27.357,26.994-27.357h41.925c3.548,0,6.7,2.294,7.833,5.701l8.685,26.093Z" style="fill: #fff;"/>
              <g style="clip-path: url(#clippath-6);">
                <path d="M830.841,62.816h-85.437v-4.437c0-15.109,12.085-27.357,26.994-27.357h41.925c3.548,0,6.7,2.294,7.833,5.701l8.685,26.093Z" style="fill: #f4f7fd;"/>
              </g>
              <g style="clip-path: url(#clippath-7);">
                <path d="M759.891,60.016h73.91l-7.058-21.206h-47.22c-10.842,0-19.632,8.908-19.632,19.896v1.309Z" style="fill: #4aa3bd;"/>
                <polygon points="828.44 43.912 764.942 43.912 764.942 38.811 826.742 38.811 828.44 43.912" style="fill: #2f6ea2; opacity: .2;"/>
                <polygon points="826.513 36.368 818.217 36.567 805.979 61.868 814.446 61.868 826.513 36.368" style="fill: #f0f0f0; opacity: .2;"/>
                <polygon points="796.846 36.915 776.693 37.234 764.777 61.868 785.038 61.868 796.846 36.915" style="fill: #f0f0f0; opacity: .2;"/>
                <polygon points="806.3 36.483 802.581 37.084 790.592 61.868 794.427 61.574 806.3 36.483" style="fill: #f0f0f0; opacity: .2;"/>
                <polygon points="834.23 40.662 829.503 40.662 819.245 61.868 824.195 61.868 834.23 40.662" style="fill: #f0f0f0; opacity: .2;"/>
              </g>
              <g>
                <path d="M838.913,61.937v-5.651c0-2.808-2.251-5.081-5.021-5.071l-11.02.04-185.831-.04c-2.659,0-4.815,2.183-4.815,4.878v15.845" style="fill: none; stroke: #162141; stroke-miterlimit: 10; stroke-width: 3.932px;"/>
                <line x1="821.689" y1="61.937" x2="821.689" y2="51.255" style="fill: none; stroke: #162141; stroke-miterlimit: 10; stroke-width: 3.932px;"/>
                <line x1="804.465" y1="51.307" x2="804.465" y2="61.937" style="fill: none; stroke: #162141; stroke-miterlimit: 10; stroke-width: 3.932px;"/>
                <line x1="787.241" y1="51.169" x2="787.241" y2="61.937" style="fill: none; stroke: #162141; stroke-miterlimit: 10; stroke-width: 3.932px;"/>
                <line x1="770.017" y1="51.169" x2="770.017" y2="61.937" style="fill: none; stroke: #162141; stroke-miterlimit: 10; stroke-width: 3.932px;"/>
                <line x1="752.793" y1="51.169" x2="752.793" y2="61.937" style="fill: none; stroke: #162141; stroke-miterlimit: 10; stroke-width: 3.932px;"/>
                <line x1="735.569" y1="51.169" x2="735.569" y2="61.937" style="fill: none; stroke: #162141; stroke-miterlimit: 10; stroke-width: 3.932px;"/>
                <line x1="718.345" y1="51.169" x2="718.345" y2="61.937" style="fill: none; stroke: #162141; stroke-miterlimit: 10; stroke-width: 3.932px;"/>
                <line x1="701.121" y1="51.169" x2="701.121" y2="61.937" style="fill: none; stroke: #162141; stroke-miterlimit: 10; stroke-width: 3.932px;"/>
                <line x1="683.897" y1="51.169" x2="683.897" y2="61.937" style="fill: none; stroke: #162141; stroke-miterlimit: 10; stroke-width: 3.932px;"/>
                <line x1="666.673" y1="51.169" x2="666.673" y2="61.937" style="fill: none; stroke: #162141; stroke-miterlimit: 10; stroke-width: 3.932px;"/>
                <line x1="649.449" y1="51.169" x2="649.449" y2="61.937" style="fill: none; stroke: #162141; stroke-miterlimit: 10; stroke-width: 3.932px;"/>
              </g>
              <path d="M859.342,91.022h-250.75l6.461-20.272c2.04-6.399,7.916-10.736,14.551-10.74l212.628-.083c3.302,0,6.261,2.068,7.434,5.197l9.675,25.898Z" style="fill: #fff;"/>
              <g style="clip-path: url(#clippath-8);">
                <path d="M856.672,94.935h-250.75l6.461-20.272c2.04-6.399,7.916-10.736,14.551-10.74l212.628-.083c3.302,0,6.261,2.068,7.434,5.197l9.675,25.898Z" style="fill: #e3eefc; opacity: .5;"/>
              </g>
              <g>
                <rect x="794.85" y="67.041" width="15.438" height="8.207" style="fill: #4aa3bd;"/>
                <rect x="817.977" y="67.01" width="15.438" height="8.207" style="fill: #4aa3bd;"/>
                <polygon points="853.441 75.217 841.342 75.217 841.342 67.01 850.384 67.061 853.441 75.217" style="fill: #4aa3bd; fill-rule: evenodd;"/>
                <g>
                  <polygon points="832.37 67.01 829.095 67.002 820.368 75.248 823.473 75.248 832.37 67.01" style="fill: #f0f0f0; opacity: .2;"/>
                  <polygon points="825.04 67.01 821.768 67.082 817.977 70.59 818.042 73.43 825.04 67.01" style="fill: #f0f0f0; opacity: .2;"/>
                  <polygon points="808.549 67.041 805.307 67.041 796.478 75.248 799.663 75.248 808.549 67.041" style="fill: #f0f0f0; opacity: .2;"/>
                  <polygon points="801.237 67.041 797.99 67.041 794.199 70.549 794.265 73.39 801.237 67.041" style="fill: #f0f0f0; opacity: .2;"/>
                  <polygon points="851.498 70.035 850.688 67.873 842.607 75.217 845.712 75.217 851.498 70.035" style="fill: #f0f0f0; opacity: .2;"/>
                  <polygon points="847.253 67.184 844.007 67.184 841.342 69.65 841.342 73.12 847.253 67.184" style="fill: #f0f0f0; opacity: .2;"/>
                </g>
                <rect x="794.778" y="67.002" width="15.509" height="4.112" style="fill: #2f6ea2; opacity: .2;"/>
                <rect x="817.977" y="67.01" width="15.438" height="4.134" style="fill: #2f6ea2; opacity: .2;"/>
                <polygon points="851.903 71.114 841.306 71.114 841.306 67.041 850.301 67.041 851.903 71.114" style="fill: #2f6ea2; fill-rule: evenodd; opacity: .2;"/>
              </g>
              <g>
                <g>
                  <rect x="771.537" y="67.041" width="15.438" height="8.207" style="fill: #4aa3bd;"/>
                  <polygon points="785.236 67.041 781.994 67.041 773.165 75.248 776.35 75.248 785.236 67.041" style="fill: #f0f0f0; opacity: .2;"/>
                  <polygon points="777.923 67.041 774.677 67.041 770.886 70.549 770.951 73.39 777.923 67.041" style="fill: #f0f0f0; opacity: .2;"/>
                  <rect x="771.465" y="67.002" width="15.509" height="4.112" style="fill: #2f6ea2; opacity: .2;"/>
                </g>
                <g>
                  <rect x="748.223" y="67.041" width="15.438" height="8.207" style="fill: #4aa3bd;"/>
                  <polygon points="761.922 67.041 758.681 67.041 749.852 75.248 753.036 75.248 761.922 67.041" style="fill: #f0f0f0; opacity: .2;"/>
                  <polygon points="754.61 67.041 751.364 67.041 747.573 70.549 747.638 73.39 754.61 67.041" style="fill: #f0f0f0; opacity: .2;"/>
                  <rect x="748.152" y="67.002" width="15.509" height="4.112" style="fill: #2f6ea2; opacity: .2;"/>
                </g>
                <g>
                  <rect x="724.91" y="67.041" width="15.438" height="8.207" style="fill: #4aa3bd;"/>
                  <polygon points="738.609 67.041 735.368 67.041 726.539 75.248 729.723 75.248 738.609 67.041" style="fill: #f0f0f0; opacity: .2;"/>
                  <polygon points="731.297 67.041 728.051 67.041 724.26 70.549 724.325 73.39 731.297 67.041" style="fill: #f0f0f0; opacity: .2;"/>
                  <rect x="724.839" y="67.002" width="15.509" height="4.112" style="fill: #2f6ea2; opacity: .2;"/>
                </g>
              </g>
              <g>
                <g>
                  <rect x="701.737" y="67.061" width="15.438" height="8.207" style="fill: #4aa3bd;"/>
                  <polygon points="715.436 67.061 712.195 67.061 703.366 75.267 706.55 75.267 715.436 67.061" style="fill: #f0f0f0; opacity: .2;"/>
                  <polygon points="708.124 67.061 704.878 67.061 701.087 70.569 701.152 73.409 708.124 67.061" style="fill: #f0f0f0; opacity: .2;"/>
                  <rect x="701.666" y="67.022" width="15.509" height="4.112" style="fill: #2f6ea2; opacity: .2;"/>
                </g>
                <g>
                  <rect x="678.424" y="67.061" width="15.438" height="8.207" style="fill: #4aa3bd;"/>
                  <polygon points="692.123 67.061 688.882 67.061 680.053 75.267 683.237 75.267 692.123 67.061" style="fill: #f0f0f0; opacity: .2;"/>
                  <polygon points="684.811 67.061 681.565 67.061 677.774 70.569 677.839 73.409 684.811 67.061" style="fill: #f0f0f0; opacity: .2;"/>
                  <rect x="678.353" y="67.022" width="15.509" height="4.112" style="fill: #2f6ea2; opacity: .2;"/>
                </g>
              </g>
            </g>
            <g style="clip-path: url(#clippath-9);">
              <path d="M776.755,82.894c-4.429,0-8.019,3.639-8.019,8.127,0,4.488,3.59,8.127,8.019,8.127s8.019-3.639,8.019-8.127c0-4.488-3.59-8.127-8.019-8.127ZM776.755,94.622c-1.962,0-3.553-1.612-3.553-3.601s1.591-3.601,3.553-3.601,3.553,1.612,3.553,3.601-1.591,3.601-3.553,3.601Z" style="fill: #df632e;"/>
              <line x1="785.681" y1="81.994" x2="767.83" y2="100.086" style="fill: none; stroke: #f0f0f0; stroke-miterlimit: 10; stroke-width: 3.982px;"/>
              <line x1="767.83" y1="81.994" x2="785.681" y2="100.086" style="fill: none; stroke: #f0f0f0; stroke-miterlimit: 10; stroke-width: 3.982px;"/>
            </g>
            <g style="clip-path: url(#clippath-10);">
              <path d="M803.403,82.894c-4.429,0-8.019,3.639-8.019,8.127,0,4.488,3.59,8.127,8.019,8.127s8.019-3.639,8.019-8.127c0-4.488-3.59-8.127-8.019-8.127ZM803.403,94.622c-1.962,0-3.553-1.612-3.553-3.601s1.591-3.601,3.553-3.601,3.553,1.612,3.553,3.601-1.591,3.601-3.553,3.601Z" style="fill: #df632e;"/>
              <line x1="812.328" y1="81.994" x2="794.477" y2="100.086" style="fill: none; stroke: #f0f0f0; stroke-miterlimit: 10; stroke-width: 3.982px;"/>
              <line x1="794.477" y1="81.994" x2="812.328" y2="100.086" style="fill: none; stroke: #f0f0f0; stroke-miterlimit: 10; stroke-width: 3.982px;"/>
            </g>
            <g style="clip-path: url(#clippath-11);">
              <path d="M829.935,82.894c-4.429,0-8.019,3.639-8.019,8.127,0,4.488,3.59,8.127,8.019,8.127s8.019-3.639,8.019-8.127c0-4.488-3.59-8.127-8.019-8.127ZM829.935,94.622c-1.962,0-3.553-1.612-3.553-3.601s1.591-3.601,3.553-3.601,3.553,1.612,3.553,3.601c0,1.989-1.591,3.601-3.553,3.601Z" style="fill: #df632e;"/>
              <line x1="838.861" y1="81.994" x2="821.01" y2="100.086" style="fill: none; stroke: #f0f0f0; stroke-miterlimit: 10; stroke-width: 3.982px;"/>
              <line x1="821.01" y1="81.994" x2="838.861" y2="100.086" style="fill: none; stroke: #f0f0f0; stroke-miterlimit: 10; stroke-width: 3.982px;"/>
            </g>
          </g>
          <g style="clip-path: url(#clippath-12);">
            <path d="M899.587,91.104l-300.511-.08c-2.955,0-5.166,2.712-4.569,5.606l4.26,20.655c2,9.698,10.436,16.645,20.212,16.645h246.945c10.44,0,20.102-5.593,25.407-14.706l12.287-21.11c1.81-3.109-.433-7.01-4.03-7.01Z" style="fill: #162141;"/>
            <line x1="590.257" y1="101.658" x2="924.78" y2="101.658" style="fill: none; stroke: #b13530; stroke-miterlimit: 10; stroke-width: 5.565px;"/>
          </g>
          <path d="M893.071,121.89l-18.026-5.919c-5.041-1.655-10.509-1.444-15.407.596l-3.746,1.56c-5.757,2.397-12.257,2.253-17.902-.395l-.141-.066c-5.77-2.707-12.428-2.795-18.267-.239l-1.299.568c-5.674,2.483-12.128,2.474-17.795-.024h0c-6.502-2.867-13.986-2.435-20.116,1.159l-1.099.644c-2.316,1.358-5.067,1.766-7.678,1.139l-15.57-3.739c-3.962-.951-8.11-.79-11.987.466l-5.284,1.712c-5.05,1.637-10.521,1.403-15.413-.659l-6.17-2.6c-4.153-1.75-8.742-2.191-13.153-1.261l-16.829,3.545c-3.7.78-7.552.381-11.014-1.141l-.625-.275c-5.067-2.226-10.905-1.816-15.61,1.099h0c-2.362,1.463-5.212,1.919-7.913,1.265l-19.727-4.777c-2.991-.724-6.149-.085-8.622,1.746h0c-2.772,2.052-6.383,2.594-9.636,1.445l-14.492-5.116c-3.135-1.107-6.61-.646-9.348,1.24l-6.055,4.17v11.956l26.226,11.57,137.775,14.27,131.423-3.085,13.499-30.854Z" style="fill: #61d1d5;"/>
        </g>
        <g>
          <path d="M530.081-46.023c-.542-1.869.346-3.77,1.981-4.243,1.635-.473,3.403.659,3.944,2.528l17.349,59.828-5.925,1.715-17.349-59.828Z" style="fill: #3a4517; fill-rule: evenodd;"/>
          <g>
            <rect x="550.472" y="9.566" width="4.455" height="6.677" rx="2.227" ry="2.227" transform="translate(1087.1883 -128.3955) rotate(163.8543)" style="fill: #fbed97;"/>
            <rect x="546.193" y="10.805" width="4.455" height="6.677" rx="2.227" ry="2.227" transform="translate(1079.1435 -124.7762) rotate(163.8543)" style="fill: #fbed97;"/>
          </g>
        </g>
        <g>
          <g>
            <path d="M975.567,42.789c-.857-.856-2.018-1.337-3.23-1.337-2.581,0-7.123,0-9.222,0-.718,0-1.406.285-1.914.792-.553.552-1.192,1.191-1.192,1.191,0,0,.639.639,1.192,1.191.508.507,1.196.792,1.914.792,2.113,0,6.703,0,9.301,0,1.211,0,2.373-.481,3.23-1.337.338-.338.608-.607.608-.607,0,0-.31-.309-.687-.686Z" style="fill: #4bc4c4; fill-rule: evenodd;"/>
            <path d="M956.76,46.033l3.249-2.597-3.249-2.597c.994,1.589.994,3.605,0,5.194Z" style="fill: #4bc4c4; fill-rule: evenodd;"/>
            <path d="M963.401,50.854c-2.581,0-7.123,0-9.222,0-.718,0-1.406.285-1.914.792-.553.552-1.192,1.191-1.192,1.191,0,0,.639.639,1.192,1.191.508.507,1.196.792,1.914.792,2.113,0,6.703,0,9.301,0,1.211,0,2.373-.481,3.23-1.337.338-.338.608-.607.608-.607,0,0-.31-.31-.687-.686-.857-.856-2.018-1.337-3.23-1.337Z" style="fill: #4bc4c4; fill-rule: evenodd;"/>
            <path d="M947.823,55.435l3.249-2.597-3.249-2.597c.994,1.589.994,3.605,0,5.194Z" style="fill: #4bc4c4; fill-rule: evenodd;"/>
          </g>
          <g>
            <path d="M964.601,23.508c-.857-.856-2.018-1.337-3.23-1.337-2.581,0-7.123,0-9.222,0-.718,0-1.406.285-1.914.792-.553.552-1.192,1.191-1.192,1.191,0,0,.639.639,1.192,1.191.508.507,1.196.792,1.914.792,2.113,0,6.703,0,9.301,0,1.211,0,2.373-.481,3.23-1.337.338-.338.608-.607.608-.607,0,0-.31-.309-.687-.686Z" style="fill: #4bc4c4; fill-rule: evenodd;"/>
            <path d="M945.794,26.752l3.249-2.597-3.249-2.597c.994,1.589.994,3.605,0,5.194Z" style="fill: #4bc4c4; fill-rule: evenodd;"/>
            <path d="M952.434,31.574c-2.581,0-7.123,0-9.222,0-.718,0-1.406.285-1.914.792-.553.552-1.192,1.191-1.192,1.191,0,0,.639.639,1.192,1.191.508.507,1.196.792,1.914.792h9.301c1.211,0,2.373-.481,3.23-1.337.338-.338.608-.607.608-.607,0,0-.31-.31-.687-.686-.857-.856-2.018-1.337-3.23-1.337Z" style="fill: #4bc4c4; fill-rule: evenodd;"/>
            <path d="M936.857,36.154l3.249-2.597-3.249-2.597c.994,1.589.994,3.605,0,5.194Z" style="fill: #4bc4c4; fill-rule: evenodd;"/>
          </g>
          <g>
            <path d="M993.031,54.035c-.857-.856-2.018-1.337-3.23-1.337h-9.222c-.718,0-1.406.285-1.914.792-.553.552-1.192,1.191-1.192,1.191,0,0,.639.639,1.192,1.191.508.507,1.196.792,1.914.792,2.113,0,6.703,0,9.301,0,1.211,0,2.373-.481,3.23-1.337.338-.338.608-.607.608-.607,0,0-.31-.309-.687-.686Z" style="fill: #4bc4c4; fill-rule: evenodd;"/>
            <path d="M974.224,57.279l3.249-2.597-3.249-2.597c.994,1.589.994,3.605,0,5.194Z" style="fill: #4bc4c4; fill-rule: evenodd;"/>
            <path d="M980.865,62.1c-2.581,0-7.123,0-9.222,0-.718,0-1.406.285-1.914.792-.553.552-1.192,1.191-1.192,1.191,0,0,.639.639,1.192,1.191.508.507,1.196.792,1.914.792,2.113,0,6.703,0,9.301,0,1.211,0,2.373-.481,3.23-1.337.338-.338.608-.607.608-.607,0,0-.31-.31-.687-.686-.857-.856-2.018-1.337-3.23-1.337Z" style="fill: #4bc4c4; fill-rule: evenodd;"/>
            <path d="M965.288,66.68l3.249-2.597-3.249-2.597c.994,1.589.994,3.605,0,5.194Z" style="fill: #4bc4c4; fill-rule: evenodd;"/>
          </g>
          <g>
            <path d="M946.731,44.893c-.857-.856-2.018-1.337-3.23-1.337-2.581,0-7.123,0-9.222,0-.718,0-1.406.285-1.914.792-.553.552-1.192,1.191-1.192,1.191,0,0,.639.639,1.192,1.191.508.507,1.196.792,1.914.792,2.113,0,6.703,0,9.301,0,1.211,0,2.373-.481,3.23-1.337.338-.338.608-.607.608-.607,0,0-.31-.309-.687-.686Z" style="fill: #4bc4c4; fill-rule: evenodd;"/>
            <path d="M927.924,48.137l3.249-2.597-3.249-2.597c.994,1.589.994,3.605,0,5.194Z" style="fill: #4bc4c4; fill-rule: evenodd;"/>
            <path d="M934.565,52.958c-2.581,0-7.123,0-9.222,0-.718,0-1.406.285-1.914.792-.553.552-1.192,1.191-1.192,1.191,0,0,.639.639,1.192,1.191.508.507,1.196.792,1.914.792,2.113,0,6.703,0,9.301,0,1.211,0,2.373-.481,3.23-1.337.338-.338.608-.607.608-.607,0,0-.31-.31-.687-.686-.857-.856-2.018-1.337-3.23-1.337Z" style="fill: #4bc4c4; fill-rule: evenodd;"/>
            <path d="M918.988,57.539l3.249-2.597-3.249-2.597c.994,1.589.994,3.605,0,5.194Z" style="fill: #4bc4c4; fill-rule: evenodd;"/>
          </g>
        </g>
      </g>
    </g>
  </g>
</svg>