<?xml version="1.0" encoding="UTF-8"?>
<svg xmlns="http://www.w3.org/2000/svg" width="1500" height="145" xmlns:xlink="http://www.w3.org/1999/xlink" version="1.1" viewBox="0 0 1500 145">
  <!-- Generator: Adobe Illustrator 30.5.1, SVG Export Plug-In . SVG Version: 2.1.4 Build 3)  -->
  <defs>
    <clipPath id="clippath">
      <rect width="1500" height="145" style="fill: none;"/>
    </clipPath>
    <clipPath id="clippath-2">
      <path d="M513.277,91.699h87.437s7.858.825,15.413,1.617c2.972.312,5.575,2.127,6.895,4.809,1.319,2.68,1.17,5.85-.394,8.395-5.664,9.211-13.174,21.425-16.824,27.36-1.351,2.2-3.747,3.54-6.329,3.54-14.143,0-60.553,0-78.767,0-4.103,0-7.431-3.328-7.431-7.431,0-12.95,0-38.291,0-38.291Z" style="clip-rule: evenodd; fill: none;"/>
    </clipPath>
    <clipPath id="clippath-3">
      <path d="M513.277,85.939c0-2.245.892-4.398,2.48-5.985,1.587-1.588,3.74-2.48,5.985-2.48,17.242,0,56.141,0,72.022,0,4.503,0,8.875,1.511,12.42,4.291,4.041,3.17,9.643,7.563,14.384,11.281,2.238,1.756,3.546,4.444,3.546,7.289,0,2.845-1.308,5.534-3.546,7.289-4.74,3.719-10.343,8.112-14.384,11.283-3.544,2.778-7.917,4.289-12.42,4.289-15.881,0-54.78,0-72.022,0-2.245,0-4.398-.892-5.985-2.48-1.588-1.587-2.48-3.74-2.48-5.985,0-8.206,0-20.585,0-28.791Z" style="clip-rule: evenodd; fill: none;"/>
    </clipPath>
    <clipPath id="clippath-4">
      <rect x="518.136" y="60.203" width="72.864" height="34.543" rx="4.059" ry="4.059" style="fill: none;"/>
    </clipPath>
    <clipPath id="clippath-5">
      <ellipse cx="289.171" cy="144.161" rx="21.327" ry="21.309" style="fill: #49a198;"/>
    </clipPath>
    <clipPath id="clippath-6">
      <ellipse cx="201.732" cy="142.031" rx="14.929" ry="14.916" style="fill: #6fbfbc;"/>
    </clipPath>
    <clipPath id="clippath-7">
      <ellipse cx="242.277" cy="91.214" rx="25.592" ry="25.57" style="fill: #49a198;"/>
    </clipPath>
    <clipPath id="clippath-8">
      <path d="M752.525,514.71c19.671,0,34.051-18.549,29.133-37.579l-60.81-235.314c-3.513-13.593-15.784-23.091-29.836-23.091h0c-14.051,0-26.323,9.497-29.836,23.091l-23.067,89.261c-4.242,16.416-17.507,28.962-34.144,32.295l-72.089,14.442c-32.304,6.472-55.551,34.818-55.551,67.738h0c0,38.155,30.957,69.086,69.144,69.086h45.205l-.018.072h161.868Z" style="fill: none;"/>
    </clipPath>
    <clipPath id="clippath-9">
      <polygon points="774.065 527.294 567.533 527.03 567.533 527.162 479.443 527.162 479.443 231.178 775.22 231.178 774.065 527.294" style="clip-rule: evenodd; fill: none;"/>
    </clipPath>
    <clipPath id="clippath-10">
      <path d="M871.258,448.582l-42.155-10.631v-109.381c0-18.335-14.477-33.819-32.825-34.131-11.698-.199-22.048,5.614-28.167,14.548h-.004s-98.636,166.58-98.636,166.58c-.007,21.616,17.529,39.143,39.164,39.143h155.504c18.449,0,33.916-14.663,34.069-33.096.136-16.352-11.5-30.009-26.949-33.032Z" style="fill: none;"/>
    </clipPath>
    <clipPath id="clippath-11">
      <polygon points="881.12 527.294 674.588 527.03 674.588 527.162 586.498 527.162 586.498 231.178 882.275 231.178 881.12 527.294" style="clip-rule: evenodd; fill: none;"/>
    </clipPath>
  </defs>
  <g style="isolation: isolate;">
    <g id="Details">
      <g style="clip-path: url(#clippath);">
        <rect x="-10.125" y="-1873.498" width="1520.249" height="3053.416" style="fill: #61d1d5;"/>
        <path d="M-31.619,1238.82V122.131h439.79c24.414,0,47.365,9.507,64.629,26.77l88.768,88.769c9.708,9.707,22.615,15.054,36.344,15.054h270.975c15.867,0,31.084,6.303,42.304,17.523l31.302,31.302c11.299,11.3,17.521,26.323,17.521,42.304v36.879c0,28.387,23.012,51.399,51.399,51.399h0c28.387,0,51.399-23.012,51.399-51.399v-159.383c0-50.478,40.92-91.398,91.398-91.398h173.96c50.397,0,91.398,41.002,91.398,91.399l.529,144.191c1.499,21.417,19.367,38.12,40.891,38.12h111.087v551.517h-238.168c-43.687,0-79.103-35.415-79.103-79.103v-63.47c0-29.481-23.899-53.381-53.381-53.381h-55.92c-29.481,0-53.381,23.899-53.381,53.381v100.962c0,21.13-8.229,40.994-23.169,55.934l-141.512,141.513c-18.283,18.283-42.592,28.353-68.448,28.353H-40.344c-13.73,0-28.235,72.685-28.235,72.685-17.263,17.263,290.517,26.77,266.104,26.77H-31.619Z" style="fill: #4eeae6;"/>
        <path d="M913.301,1091.352l141.513-141.513c11.084-11.084,17.311-26.117,17.311-41.792v-100.962c0-40.527,32.854-73.381,73.381-73.381h55.92c40.527,0,73.381,32.854,73.381,73.381v63.47c0,32.641,26.461,59.102,59.102,59.102h218.168s0-505.586,0-505.586h-91.087c-32.307,0-59.01-25.192-60.888-57.445l-.532-144.867c0-39.432-31.966-71.399-71.398-71.399h-173.96c-39.432,0-71.399,31.966-71.399,71.399v334.633c0,16.501-13.377,29.877-29.877,29.877h-83.042c-16.501,0-29.877-13.377-29.877-29.877v-212.129c0-10.563-4.196-20.693-11.665-28.161l-31.302-31.302c-7.469-7.469-17.599-11.665-28.161-11.665h-270.975c-18.936,0-37.097-7.522-50.486-20.912l-88.768-88.768c-13.39-13.39-31.551-20.912-50.487-20.912H-11.618v971.858h870.614c20.369,0,39.903-8.646,54.306-23.049Z" style="fill: #d6f0f0;"/>
        <path d="M120.555,218.611H42.315v-76.447c0-10.366,4.108-20.307,11.424-27.636,7.354-7.33,17.291-11.447,27.658-11.447h.038c10.367,0,20.304,4.117,27.658,11.447,7.316,7.33,11.462,17.27,11.462,27.636v76.447Z" style="fill: #fff; fill-rule: evenodd;"/>
        <g>
          <line x1="1353.698" y1="75.053" x2="1316.039" y2="75.053" style="fill: none; stroke: #8ee8e8; stroke-linecap: round; stroke-linejoin: round; stroke-width: 7px;"/>
          <line x1="1324.061" y1="59.819" x2="1302.853" y2="59.819" style="fill: none; stroke: #8ee8e8; stroke-linecap: round; stroke-linejoin: round; stroke-width: 7px;"/>
          <line x1="1343.775" y1="56.235" x2="1353.698" y2="56.235" style="fill: none; stroke: #8ee8e8; stroke-linecap: round; stroke-linejoin: round; stroke-width: 7px;"/>
        </g>
        <g>
          <rect x="505.887" y="87.635" width="112.293" height="58.8" rx="15.244" ry="15.244" style="fill: #59c1bf; mix-blend-mode: multiply; opacity: .4;"/>
          <g>
            <line x1="556.571" y1="129.234" x2="531.576" y2="129.234" style="fill: none; opacity: .412; stroke: #fff; stroke-linecap: round; stroke-linejoin: round; stroke-width: 7.499px;"/>
            <path d="M513.277,91.699h87.437s7.858.825,15.413,1.617c2.972.312,5.575,2.127,6.895,4.809,1.319,2.68,1.17,5.85-.394,8.395-5.664,9.211-13.174,21.425-16.824,27.36-1.351,2.2-3.747,3.54-6.329,3.54-14.143,0-60.553,0-78.767,0-4.103,0-7.431-3.328-7.431-7.431,0-12.95,0-38.291,0-38.291Z" style="fill: #fff; fill-rule: evenodd;"/>
            <g style="clip-path: url(#clippath-2);">
              <path d="M513.277,83.571h87.437s9.025,3.64,17.776,7.171c3.57,1.44,6.171,4.589,6.91,8.367.739,3.779-.485,7.675-3.249,10.355-4.857,4.706-10.197,9.879-14.205,13.763-4.015,3.89-9.387,6.065-14.979,6.065-17.366,0-56.006,0-72.26,0-4.103,0-7.431-3.326-7.431-7.431,0-12.95,0-38.289,0-38.289Z" style="fill: #f2ad3d; fill-rule: evenodd;"/>
            </g>
            <path d="M513.277,85.939c0-2.245.892-4.398,2.48-5.985,1.587-1.588,3.74-2.48,5.985-2.48,17.242,0,56.141,0,72.022,0,4.503,0,8.875,1.511,12.42,4.291,4.041,3.17,9.643,7.563,14.384,11.281,2.238,1.756,3.546,4.444,3.546,7.289,0,2.845-1.308,5.534-3.546,7.289-4.74,3.719-10.343,8.112-14.384,11.283-3.544,2.778-7.917,4.289-12.42,4.289-15.881,0-54.78,0-72.022,0-2.245,0-4.398-.892-5.985-2.48-1.588-1.587-2.48-3.74-2.48-5.985,0-8.206,0-20.585,0-28.791Z" style="fill: #daf4fd; fill-rule: evenodd;"/>
            <g style="clip-path: url(#clippath-3);">
              <rect x="600.714" y="64.266" width="27.203" height="64.009" style="fill: #fae74d;"/>
              <line x1="674.55" y1="85.603" x2="600.714" y2="85.603" style="fill: none; mix-blend-mode: multiply; opacity: .188; stroke: #ef915b; stroke-linejoin: round; stroke-width: 3.028px;"/>
              <line x1="674.55" y1="92.715" x2="600.714" y2="92.715" style="fill: none; mix-blend-mode: multiply; opacity: .188; stroke: #ef915b; stroke-linejoin: round; stroke-width: 3.028px;"/>
              <line x1="674.55" y1="99.828" x2="600.714" y2="99.828" style="fill: none; mix-blend-mode: multiply; opacity: .188; stroke: #ef915b; stroke-linejoin: round; stroke-width: 3.028px;"/>
              <line x1="674.55" y1="106.939" x2="600.714" y2="106.939" style="fill: none; mix-blend-mode: multiply; opacity: .188; stroke: #ef915b; stroke-linejoin: round; stroke-width: 3.028px;"/>
              <line x1="674.55" y1="114.051" x2="600.714" y2="114.051" style="fill: none; mix-blend-mode: multiply; opacity: .188; stroke: #ef915b; stroke-linejoin: round; stroke-width: 3.028px;"/>
            </g>
            <path d="M521.924,87.635h65.288c2.091,0,3.788,1.697,3.788,3.788v22.903c0,2.092-1.698,3.79-3.79,3.79h-65.285c-2.092,0-3.79-1.698-3.79-3.79v-22.903c0-2.091,1.697-3.788,3.788-3.788Z" style="fill: #99dded;"/>
            <rect x="518.136" y="86.619" width="72.864" height="16.256" style="fill: #8bcddd;"/>
            <rect x="524.936" y="89.667" width="59.263" height="21.336" style="fill: #51b1ba;"/>
            <rect x="524.936" y="111.004" width="59.263" height="7.112" style="fill: #5dcad3;"/>
            <rect x="572.54" y="93.731" width="4.858" height="14.224" style="fill: #fff;"/>
            <rect x="572.54" y="93.731" width="4.858" height="6.096" style="fill: #d8f3fd;"/>
            <rect x="552.138" y="93.731" width="4.858" height="14.224" style="fill: #fff;"/>
            <rect x="552.138" y="93.731" width="4.858" height="6.096" style="fill: #d8f3fd;"/>
            <rect x="531.736" y="93.731" width="4.858" height="14.224" style="fill: #fff;"/>
            <rect x="531.736" y="93.731" width="4.858" height="6.096" style="fill: #d8f3fd;"/>
            <rect x="518.136" y="60.203" width="72.864" height="34.543" rx="4.059" ry="4.059" style="fill: #f6cf46;"/>
            <g style="clip-path: url(#clippath-4);">
              <rect x="510.363" y="88.65" width="82.579" height="26.416" style="fill: #f2ad3d;"/>
              <rect x="518.136" y="60.203" width="70.92" height="32.511" rx="3.82" ry="3.82" style="fill: #fae74d;"/>
              <line x1="590.028" y1="75.442" x2="516.192" y2="75.442" style="fill: none; mix-blend-mode: multiply; opacity: .188; stroke: #ef915b; stroke-linecap: round; stroke-linejoin: round; stroke-width: 3.028px;"/>
              <line x1="590.028" y1="66.299" x2="516.192" y2="66.299" style="fill: none; mix-blend-mode: multiply; opacity: .188; stroke: #ef915b; stroke-linecap: round; stroke-linejoin: round; stroke-width: 3.028px;"/>
              <line x1="590.028" y1="85.603" x2="516.192" y2="85.603" style="fill: none; mix-blend-mode: multiply; opacity: .188; stroke: #ef915b; stroke-linecap: round; stroke-linejoin: round; stroke-width: 3.028px;"/>
              <line x1="541.452" y1="44.963" x2="541.452" y2="122.18" style="fill: none; mix-blend-mode: multiply; opacity: .188; stroke: #ef915b; stroke-linecap: round; stroke-linejoin: round; stroke-width: 6.056px;"/>
              <line x1="566.711" y1="44.963" x2="566.711" y2="122.18" style="fill: none; mix-blend-mode: multiply; opacity: .188; stroke: #ef915b; stroke-linecap: round; stroke-linejoin: round; stroke-width: 6.056px;"/>
              <polygon points="517.819 60.203 591 95.026 517.819 95.026 517.819 60.203" style="fill: #e9b353; fill-rule: evenodd; mix-blend-mode: multiply; opacity: .148;"/>
            </g>
          </g>
        </g>
        <g>
          <rect x="197.467" y="142.031" width="8.531" height="53.596" transform="translate(403.464 337.657) rotate(-180)" style="fill: #a3d8d3;"/>
          <rect x="284.906" y="144.161" width="8.531" height="51.465" transform="translate(578.342 339.788) rotate(-180)" style="fill: #a3d8d3;"/>
          <rect x="238.012" y="91.214" width="8.531" height="104.412" style="fill: #a3d8d3;"/>
          <ellipse cx="289.171" cy="144.161" rx="27.725" ry="27.701" style="fill: #fff;"/>
          <g>
            <ellipse cx="289.171" cy="144.161" rx="21.327" ry="21.309" style="fill: #49a198;"/>
            <g style="clip-path: url(#clippath-5);">
              <path d="M307.136,157.366c.51-.766.791-1.67.791-2.604h0c0-1.843-1.082-3.574-2.896-4.344-.603-.257-1.263-.357-1.918-.357h-13.067c-2.353,0-4.595-.999-6.169-2.746-1.81-2.009-3.517-3.904-4.814-5.344-1.523-1.691-3.692-2.655-5.969-2.655h-3.481s-6.557,0-12.541,0h-3.441c-2.497,0-4.835,1.448-5.758,3.766-1.263,3.168.272,6.71,3.488,7.947.695.267,1.442.376,2.186.376h1.423s6.803,20.407,6.803,20.407h32.66s16.284-13.748,16.284-13.748l-3.583-.697Z" style="fill: #a7cc40; fill-rule: evenodd;"/>
            </g>
          </g>
          <ellipse cx="201.732" cy="142.031" rx="21.327" ry="21.309" style="fill: #fff;"/>
          <g>
            <ellipse cx="201.732" cy="142.031" rx="14.929" ry="14.916" style="fill: #6fbfbc;"/>
            <g style="clip-path: url(#clippath-6);">
              <path d="M214.307,151.274c.358-.536.554-1.169.554-1.823h0c0-1.29-.758-2.502-2.027-3.041-.422-.179-.884-.25-1.342-.25h-9.147c-1.647,0-3.217-.699-4.318-1.922-1.267-1.407-2.462-2.733-3.37-3.741-1.066-1.184-2.585-1.859-4.178-1.859h-2.436s-4.59,0-8.779,0h-2.408c-1.748,0-3.384,1.013-4.031,2.636-.883,2.218.19,4.697,2.442,5.563.486.187,1.009.263,1.53.263h.996s4.762,14.285,4.762,14.285h22.862s11.399-9.623,11.399-9.623l-2.508-.488Z" style="fill: #a7cc40; fill-rule: evenodd;"/>
            </g>
          </g>
          <ellipse cx="242.277" cy="91.214" rx="31.99" ry="31.963" style="fill: #fff;"/>
          <g>
            <ellipse cx="242.277" cy="91.214" rx="25.592" ry="25.57" style="fill: #49a198;"/>
            <g style="clip-path: url(#clippath-7);">
              <path d="M263.835,107.061c.613-.919.95-2.004.95-3.125h0c0-2.211-1.299-4.289-3.475-5.213-.724-.308-1.515-.428-2.301-.428h-15.68c-2.823,0-5.514-1.199-7.403-3.295-2.172-2.411-4.219-4.684-5.776-6.413-1.828-2.029-4.43-3.186-7.162-3.186h-4.177s-7.869,0-15.05,0h-4.128c-2.997,0-5.802,1.737-6.91,4.518-1.515,3.802.326,8.052,4.186,9.537.834.32,1.73.45,2.623.45h1.708s8.163,24.489,8.163,24.489h39.192s19.541-16.497,19.541-16.497l-4.3-.837Z" style="fill: #a7cc40; fill-rule: evenodd;"/>
            </g>
          </g>
        </g>
        <g>
          <g style="clip-path: url(#clippath-8);">
            <g style="clip-path: url(#clippath-9);">
              <polygon points="644.721 533.542 606.282 551.384 789.664 153.475 821.173 139.235 644.721 533.542" style="fill: #baeffc; fill-opacity: .176; fill-rule: evenodd;"/>
              <polygon points="582.243 537.928 474.304 555.771 657.686 157.862 758.695 143.622 582.243 537.928" style="fill: #baeffc; fill-opacity: .176; fill-rule: evenodd;"/>
            </g>
          </g>
          <g style="clip-path: url(#clippath-10);">
            <g style="clip-path: url(#clippath-11);">
              <polygon points="674.175 537.928 566.237 555.771 749.618 157.862 850.627 143.622 674.175 537.928" style="fill: #baeffc; fill-opacity: .176; fill-rule: evenodd;"/>
            </g>
          </g>
        </g>
      </g>
    </g>
  </g>
</svg>