<?xml version="1.0" encoding="UTF-8"?>
<svg xmlns="http://www.w3.org/2000/svg" width="1500" height="145" xmlns:xlink="http://www.w3.org/1999/xlink" version="1.1" viewBox="0 0 1500 145">
  <!-- Generator: Adobe Illustrator 30.5.1, SVG Export Plug-In . SVG Version: 2.1.4 Build 3)  -->
  <defs>
    <clipPath id="clippath">
      <rect width="1500" height="145" style="fill: none;"/>
    </clipPath>
    <clipPath id="clippath-4">
      <ellipse cx="631.171" cy="122.437" rx="21.327" ry="21.309" style="fill: #49a198;"/>
    </clipPath>
    <clipPath id="clippath-5">
      <ellipse cx="543.732" cy="120.306" rx="14.929" ry="14.916" style="fill: #6fbfbc;"/>
    </clipPath>
    <clipPath id="clippath-6">
      <ellipse cx="584.277" cy="69.49" rx="25.592" ry="25.57" style="fill: #49a198;"/>
    </clipPath>
    <clipPath id="clippath-7">
      <ellipse cx="289.171" cy="-.839" rx="21.327" ry="21.309" style="fill: #49a198;"/>
    </clipPath>
    <clipPath id="clippath-8">
      <ellipse cx="201.732" cy="-2.969" rx="14.929" ry="14.916" style="fill: #6fbfbc;"/>
    </clipPath>
    <clipPath id="clippath-9">
      <path d="M752.525,369.71c19.671,0,34.051-18.549,29.133-37.579l-60.81-235.314c-3.513-13.593-15.784-23.091-29.836-23.091h0c-14.051,0-26.323,9.497-29.836,23.091l-23.067,89.261c-4.242,16.416-17.507,28.962-34.144,32.295l-72.089,14.442c-32.304,6.472-55.551,34.818-55.551,67.738h0c0,38.155,30.957,69.086,69.144,69.086h45.205l-.018.072h161.868Z" style="fill: none;"/>
    </clipPath>
    <clipPath id="clippath-10">
      <polygon points="774.065 382.294 567.533 382.03 567.533 382.162 479.443 382.162 479.443 86.178 775.22 86.178 774.065 382.294" style="clip-rule: evenodd; fill: none;"/>
    </clipPath>
    <clipPath id="clippath-11">
      <path d="M871.258,303.582l-42.155-10.631v-109.381c0-18.335-14.477-33.819-32.825-34.131-11.698-.199-22.048,5.614-28.167,14.548h-.004s-98.636,166.58-98.636,166.58c-.007,21.616,17.529,39.143,39.164,39.143h155.504c18.449,0,33.916-14.663,34.069-33.096.136-16.352-11.5-30.009-26.949-33.032Z" style="fill: none;"/>
    </clipPath>
    <clipPath id="clippath-12">
      <polygon points="881.12 382.294 674.588 382.03 674.588 382.162 586.498 382.162 586.498 86.178 882.275 86.178 881.12 382.294" style="clip-rule: evenodd; fill: none;"/>
    </clipPath>
    <clipPath id="clippath-15">
      <ellipse cx="1277.331" cy="113.359" rx="24.169" ry="24.149" style="fill: #49a198;"/>
    </clipPath>
  </defs>
  <g style="isolation: isolate;">
    <g id="Details">
      <g style="clip-path: url(#clippath);">
        <rect x="-10.125" y="-2018.498" width="1520.249" height="3053.416" style="fill: #61d1d5;"/>
        <path d="M-31.619,1093.82V-22.869h439.79c24.414,0,47.365,9.507,64.629,26.77l88.768,88.769c9.708,9.707,22.615,15.054,36.344,15.054h270.975c15.867,0,31.084,6.303,42.304,17.523l31.302,31.302c11.299,11.3,17.521,26.323,17.521,42.304v36.879c0,28.387,23.012,51.399,51.399,51.399h0c28.387,0,51.399-23.012,51.399-51.399V76.348c0-50.478,40.92-91.398,91.398-91.398h173.96c50.397,0,91.398,41.002,91.398,91.399l.529,144.191c1.499,21.417,19.367,38.12,40.891,38.12h111.087v551.517h-238.168c-43.687,0-79.103-35.415-79.103-79.103v-63.47c0-29.481-23.899-53.381-53.381-53.381h-55.92c-29.481,0-53.381,23.899-53.381,53.381v100.962c0,21.13-8.229,40.994-23.169,55.934l-141.512,141.513c-18.283,18.283-42.592,28.353-68.448,28.353H-40.344c-13.73,0-28.235,72.685-28.235,72.685-17.263,17.263,290.517,26.77,266.104,26.77H-31.619Z" style="fill: #4eeae6;"/>
        <path d="M913.301,946.352l141.513-141.513c11.084-11.084,17.311-26.117,17.311-41.792v-100.962c0-40.527,32.854-73.381,73.381-73.381h55.92c40.527,0,73.381,32.854,73.381,73.381v63.47c0,32.641,26.461,59.102,59.102,59.102h218.168s0-505.586,0-505.586h-91.087c-32.307,0-59.01-25.192-60.888-57.445l-.532-144.867c0-39.432-31.966-71.399-71.398-71.399h-173.96c-39.432,0-71.399,31.966-71.399,71.399v334.633c0,16.501-13.377,29.877-29.877,29.877h-83.042c-16.501,0-29.877-13.377-29.877-29.877v-212.129c0-10.563-4.196-20.693-11.665-28.161l-31.302-31.302c-7.469-7.469-17.599-11.665-28.161-11.665h-270.975c-18.936,0-37.097-7.522-50.486-20.912l-88.768-88.768c-13.39-13.39-31.551-20.912-50.487-20.912H-11.618v971.858h870.614c20.369,0,39.903-8.646,54.306-23.049Z" style="fill: #d6f0f0;"/>
        <g>
          <path d="M444.7,293.403l-7.082-7.082c-6.897-6.896-16.25-10.771-26.003-10.771h-165.681c-19.013,0-37.247-7.553-50.691-20.997l-24.496-24.496c-13.444-13.444-20.997-31.679-20.997-50.692h0c0-39.593-32.096-71.689-71.688-71.689H-5.367s0,382.286,0,382.286h-15.768v196.741h210.985c25.021,0,47.61-13.01,62.354-33.225.634-.869,1.338-1.693,2.108-2.463l53.343-53.343c3.921-3.921,6.123-9.238,6.123-14.783v-50.807c0-5.545-2.203-10.862-6.123-14.783l-21.212-21.212c-3.921-3.921-9.238-6.123-14.783-6.123h-105.067c-12.885,0-25.243-5.119-34.355-14.23l-21.072-21.072c-10.115-10.115-15.797-23.834-15.797-38.139h0c0-29.789,24.148-53.937,53.937-53.937h262.987c9.753,0,19.107-3.874,26.003-10.771l5.821-5.821c5.049-5.048,8.812-11.325,10.41-18.283,2.89-12.584-.984-25.465-9.827-34.307Z" style="fill: #4aa280; fill-rule: evenodd;"/>
          <path d="M-11.138,686.704h200.988c25.021,0,47.61-13.01,62.354-33.225.634-.869,1.338-1.693,2.108-2.463l53.343-53.344c3.921-3.92,6.123-9.238,6.123-14.783v-50.808c0-5.544-2.203-10.862-6.123-14.783l-21.212-21.212c-3.921-3.92-9.238-6.123-14.783-6.123h-105.067c-12.885,0-25.243-5.119-34.355-14.23l-21.072-21.072c-10.115-10.115-15.797-23.834-15.797-38.139,0-29.789,24.148-53.937,53.937-53.937h262.987c9.753,0,19.107-3.874,26.003-10.771l5.821-5.821c5.049-5.048,8.812-11.325,10.41-18.283,2.89-12.583-.984-25.465-9.827-34.308l-7.082-7.082c-6.897-6.896-16.25-10.771-26.003-10.771h-165.681c-19.013,0-37.247-7.553-50.691-20.997l-24.496-24.497c-13.444-13.444-20.997-31.678-20.997-50.691h0c0-39.593-32.096-71.689-71.688-71.689H-.368" style="fill: none; stroke: #4aa280; stroke-dasharray: 0 9.998; stroke-linecap: round; stroke-linejoin: round; stroke-width: 10px;"/>
        </g>
        <g>
          <ellipse cx="100.591" cy="151.064" rx="31.99" ry="31.963" style="fill: #c7ebf7;"/>
          <ellipse cx="100.591" cy="151.064" rx="25.592" ry="25.57" style="fill: #49a198;"/>
        </g>
        <g>
          <path d="M306.719,141.342c0-2.932-2.369-5.299-5.303-5.299s-5.303,2.367-5.303,5.299c0-2.932-2.368-5.299-5.303-5.299s-5.303,2.367-5.303,5.299c0-2.932-2.368-5.299-5.303-5.299s-5.303,2.367-5.303,5.299c0-2.932-2.368-5.299-5.303-5.299s-5.303,2.367-5.303,5.299c0-2.932-2.368-5.299-5.303-5.299s-5.303,2.367-5.303,5.299v9.823h53.035v-9.823h-.001Z" style="fill: #8dd44c;"/>
          <g>
            <path d="M269.333,205.838h-78.24v-76.447c0-10.366,4.108-20.307,11.424-27.636,7.354-7.33,17.291-11.447,27.658-11.447h.038c10.367,0,20.304,4.117,27.658,11.447,7.316,7.33,11.462,17.27,11.462,27.636v76.447Z" style="fill: #fff; fill-rule: evenodd;"/>
            <g>
              <rect x="191.092" y="132.438" width="15.648" height="15.635" style="fill: #b3efe3;"/>
              <rect x="217.841" y="132.438" width="24.742" height="15.635" style="fill: #b3efe3;"/>
              <rect x="253.685" y="132.438" width="15.648" height="15.635" style="fill: #b3efe3;"/>
            </g>
            <g style="opacity: .35;">
              <rect x="191.093" y="132.438" width="15.648" height="5.998" style="fill: #49a2e0;"/>
              <rect x="217.843" y="132.438" width="24.742" height="5.998" style="fill: #49a2e0;"/>
              <rect x="253.685" y="132.438" width="15.648" height="5.998" style="fill: #49a2e0;"/>
            </g>
          </g>
        </g>
        <g>
          <rect x="36.476" y="68.347" width="127.303" height="12.543" rx="6.271" ry="6.271" style="fill: #c2e6e4;"/>
          <g>
            <path d="M157.941,9.116c0-2.932-2.369-5.299-5.303-5.299s-5.303,2.367-5.303,5.299c0-2.932-2.368-5.299-5.303-5.299s-5.303,2.367-5.303,5.299c0-2.932-2.368-5.299-5.303-5.299s-5.303,2.367-5.303,5.299c0-2.932-2.368-5.299-5.303-5.299s-5.303,2.367-5.303,5.299c0-2.932-2.368-5.299-5.303-5.299s-5.303,2.367-5.303,5.299v9.823h53.035v-9.823h-.001Z" style="fill: #8dd44c;"/>
            <rect x="73.61" y="15.846" width="84.332" height="57.765" style="fill: #fff;"/>
            <rect x="115.514" y="15.846" width="10.607" height="57.765" style="fill: #e9f1f6; mix-blend-mode: multiply; opacity: .5;"/>
            <rect x="152.637" y="15.846" width="5.305" height="57.765" style="fill: #e9f1f6; mix-blend-mode: multiply; opacity: .5;"/>
            <g>
              <path d="M120.555,73.611H42.315V-2.836c0-10.366,4.108-20.307,11.424-27.636,7.354-7.33,17.291-11.447,27.658-11.447h.038c10.367,0,20.304,4.117,27.658,11.447,7.316,7.33,11.462,17.27,11.462,27.636v76.447Z" style="fill: #fff; fill-rule: evenodd;"/>
              <g>
                <rect x="42.314" y="36.477" width="15.648" height="18.567" style="fill: #b3efe3;"/>
                <rect x="42.314" y=".211" width="15.648" height="15.635" style="fill: #b3efe3;"/>
                <rect x="69.063" y="36.477" width="24.742" height="37.134" style="fill: #b3efe3;"/>
                <rect x="69.063" y=".211" width="24.742" height="15.635" style="fill: #b3efe3;"/>
                <rect x="104.906" y="36.477" width="15.648" height="18.567" style="fill: #b3efe3;"/>
                <rect x="104.906" y=".211" width="15.648" height="15.635" style="fill: #b3efe3;"/>
              </g>
              <g style="opacity: .35;">
                <rect x="42.315" y=".211" width="15.648" height="5.998" style="fill: #49a2e0;"/>
                <rect x="69.064" y=".211" width="24.742" height="5.998" style="fill: #49a2e0;"/>
                <rect x="104.907" y=".211" width="15.648" height="5.998" style="fill: #49a2e0;"/>
              </g>
              <g style="opacity: .35;">
                <rect x="42.315" y="36.477" width="15.648" height="5.998" style="fill: #49a2e0;"/>
                <rect x="69.064" y="36.477" width="24.742" height="5.998" style="fill: #49a2e0;"/>
                <rect x="104.907" y="36.477" width="15.648" height="5.998" style="fill: #49a2e0;"/>
              </g>
            </g>
            <rect x="126.12" y="36.477" width="26.516" height="31.87" style="fill: #b3efe3;"/>
            <rect x="126.122" y="36.477" width="26.516" height="5.998" style="fill: #49a2e0;"/>
            <rect x="120.555" y="15.94" width="37.387" height="5.998" style="fill: #fff;"/>
          </g>
        </g>
        <g>
          <line x1="777.918" y1="59.264" x2="740.259" y2="59.264" style="fill: none; stroke: #8ee8e8; stroke-linecap: round; stroke-linejoin: round; stroke-width: 7px;"/>
          <line x1="748.281" y1="44.03" x2="727.073" y2="44.03" style="fill: none; stroke: #8ee8e8; stroke-linecap: round; stroke-linejoin: round; stroke-width: 7px;"/>
          <line x1="767.995" y1="40.445" x2="777.918" y2="40.445" style="fill: none; stroke: #8ee8e8; stroke-linecap: round; stroke-linejoin: round; stroke-width: 7px;"/>
        </g>
        <rect x="505.887" y="-57.365" width="112.293" height="58.8" rx="15.244" ry="15.244" style="fill: #59c1bf; mix-blend-mode: multiply; opacity: .4;"/>
        <g>
          <rect x="539.467" y="120.306" width="8.531" height="53.596" transform="translate(1087.4639 294.2087) rotate(-180)" style="fill: #a3d8d3;"/>
          <rect x="626.906" y="122.437" width="8.531" height="51.465" transform="translate(1262.3421 296.3396) rotate(-180)" style="fill: #a3d8d3;"/>
          <rect x="580.012" y="69.49" width="8.531" height="104.412" style="fill: #a3d8d3;"/>
          <ellipse cx="631.171" cy="122.437" rx="27.725" ry="27.701" style="fill: #fff;"/>
          <g>
            <ellipse cx="631.171" cy="122.437" rx="21.327" ry="21.309" style="fill: #49a198;"/>
            <g style="clip-path: url(#clippath-4);">
              <path d="M649.137,135.642c.51-.766.791-1.67.791-2.604h0c0-1.843-1.082-3.574-2.896-4.344-.603-.257-1.263-.357-1.918-.357h-13.067c-2.353,0-4.595-.999-6.169-2.746-1.81-2.009-3.517-3.904-4.814-5.344-1.523-1.691-3.692-2.655-5.969-2.655h-3.481s-6.557,0-12.541,0h-3.441c-2.497,0-4.835,1.448-5.758,3.766-1.263,3.168.272,6.71,3.488,7.947.695.267,1.442.376,2.186.376h1.423s6.803,20.407,6.803,20.407h32.66s16.284-13.748,16.284-13.748l-3.583-.697Z" style="fill: #a7cc40; fill-rule: evenodd;"/>
            </g>
          </g>
          <ellipse cx="543.732" cy="120.306" rx="21.327" ry="21.309" style="fill: #fff;"/>
          <g>
            <ellipse cx="543.732" cy="120.306" rx="14.929" ry="14.916" style="fill: #6fbfbc;"/>
            <g style="clip-path: url(#clippath-5);">
              <path d="M556.308,129.55c.358-.536.554-1.169.554-1.823h0c0-1.29-.758-2.502-2.027-3.041-.422-.179-.884-.25-1.342-.25h-9.147c-1.647,0-3.217-.699-4.318-1.922-1.267-1.407-2.462-2.733-3.37-3.741-1.066-1.184-2.585-1.859-4.178-1.859h-2.436s-4.59,0-8.779,0h-2.408c-1.748,0-3.384,1.013-4.031,2.636-.883,2.218.19,4.697,2.442,5.563.486.187,1.009.263,1.53.263h.996s4.762,14.285,4.762,14.285h22.862s11.399-9.623,11.399-9.623l-2.508-.488Z" style="fill: #a7cc40; fill-rule: evenodd;"/>
            </g>
          </g>
          <ellipse cx="584.277" cy="69.49" rx="31.99" ry="31.963" style="fill: #fff;"/>
          <g>
            <ellipse cx="584.277" cy="69.49" rx="25.592" ry="25.57" style="fill: #49a198;"/>
            <g style="clip-path: url(#clippath-6);">
              <path d="M605.836,85.337c.613-.919.95-2.004.95-3.125h0c0-2.211-1.299-4.289-3.475-5.213-.724-.308-1.515-.428-2.301-.428h-15.68c-2.823,0-5.514-1.199-7.403-3.295-2.172-2.411-4.219-4.684-5.776-6.413-1.828-2.029-4.43-3.186-7.162-3.186h-4.177s-7.869,0-15.05,0h-4.128c-2.997,0-5.802,1.737-6.91,4.518-1.515,3.802.326,8.052,4.186,9.537.834.32,1.73.45,2.623.45h1.708s8.163,24.489,8.163,24.489h39.192s19.541-16.497,19.541-16.497l-4.3-.837Z" style="fill: #a7cc40; fill-rule: evenodd;"/>
            </g>
          </g>
        </g>
        <g>
          <rect x="184.999" y="44.355" width="127.303" height="12.543" rx="6.271" ry="6.271" style="fill: #c2e6e4;"/>
          <g>
            <rect x="197.467" y="-2.969" width="8.531" height="53.596" transform="translate(403.464 47.657) rotate(-180)" style="fill: #a3d8d3;"/>
            <rect x="284.906" y="-.839" width="8.531" height="51.465" transform="translate(578.342 49.788) rotate(-180)" style="fill: #a3d8d3;"/>
            <rect x="238.012" y="-53.786" width="8.531" height="104.412" style="fill: #a3d8d3;"/>
            <ellipse cx="289.171" cy="-.839" rx="27.725" ry="27.701" style="fill: #fff;"/>
            <g>
              <ellipse cx="289.171" cy="-.839" rx="21.327" ry="21.309" style="fill: #49a198;"/>
              <g style="clip-path: url(#clippath-7);">
                <path d="M307.136,12.366c.51-.766.791-1.67.791-2.604h0c0-1.843-1.082-3.574-2.896-4.344-.603-.257-1.263-.357-1.918-.357h-13.067c-2.353,0-4.595-.999-6.169-2.746-1.81-2.009-3.517-3.904-4.814-5.344-1.523-1.691-3.692-2.655-5.969-2.655h-3.481s-6.557,0-12.541,0h-3.441c-2.497,0-4.835,1.448-5.758,3.766-1.263,3.168.272,6.71,3.488,7.947.695.267,1.442.376,2.186.376h1.423s6.803,20.407,6.803,20.407h32.66s16.284-13.748,16.284-13.748l-3.583-.697Z" style="fill: #a7cc40; fill-rule: evenodd;"/>
              </g>
            </g>
            <ellipse cx="201.732" cy="-2.969" rx="21.327" ry="21.309" style="fill: #fff;"/>
            <g>
              <ellipse cx="201.732" cy="-2.969" rx="14.929" ry="14.916" style="fill: #6fbfbc;"/>
              <g style="clip-path: url(#clippath-8);">
                <path d="M214.307,6.274c.358-.536.554-1.169.554-1.823h0c0-1.29-.758-2.502-2.027-3.041-.422-.179-.884-.25-1.342-.25h-9.147c-1.647,0-3.217-.699-4.318-1.922-1.267-1.407-2.462-2.733-3.37-3.741-1.066-1.184-2.585-1.859-4.178-1.859h-2.436s-4.59,0-8.779,0h-2.408c-1.748,0-3.384,1.013-4.031,2.636-.883,2.218.19,4.697,2.442,5.563.486.187,1.009.263,1.53.263h.996s4.762,14.285,4.762,14.285h22.862s11.399-9.623,11.399-9.623l-2.508-.488Z" style="fill: #a7cc40; fill-rule: evenodd;"/>
              </g>
            </g>
          </g>
        </g>
        <g>
          <path d="M668.396,85.366c1.06-1.058,1.657-2.524,1.657-4.018s-.597-2.987-1.657-4.045c-1.332-1.303-3.288-1.928-5.163-1.548-.354.082-.707.191-1.06.326-.326.137-.679.326-.978.516-.326.217-.598.461-.87.707-1.059,1.058-1.684,2.552-1.684,4.045s.625,2.96,1.684,4.018c.272.272.544.516.87.733.288.184.627.364.944.498-.425-.046-.845-.052-1.257-.004-2.54-.317-5.073,1.117-6.018,3.607-1.122,2.882.311,6.12,3.147,7.287-.184.024-.366.057-.545.098-2.772-.717-5.721.713-6.761,3.447-1.141,2.96.354,6.245,3.288,7.358.002,0,.005,0,.007.002l-.083.218s-.003-.002-.005-.002c-2.935-1.14-6.223.326-7.364,3.285-1.115,2.932.353,6.217,3.288,7.358.001,0,.003,0,.004.001l-.071.186c-2.958-1.131-6.238.36-7.379,3.289-1.113,2.932.354,6.244,3.289,7.358.003.001.007.002.01.003l-.071.185c-2.961-1.108-6.245.356-7.385,3.287-1.115,2.96.353,6.245,3.288,7.358.006.002.012.003.018.005l-.08.21c-2.933-1.134-6.242.331-7.355,3.287-1.14,2.929.324,6.209,3.279,7.353l-.014.037c-.021.055-.046.108-.068.163-2.822-1.196-6.125.096-7.382,2.899-1.279,2.822-.066,6.1,2.697,7.457-.036.069-.076.137-.113.206-2.693-1.478-6.066-.606-7.666,2.056-1.568,2.629-.757,6.027,1.823,7.699-.043.063-.087.124-.13.187-2.491-1.772-5.968-1.293-7.833,1.155-1.887,2.443-1.448,5.914.912,7.869-.05.058-.101.116-.151.174-2.288-2.052-5.782-1.966-7.907.265-2.153,2.203-2.133,5.697.003,7.907-.056.052-.112.105-.169.157-2.032-2.281-5.511-2.593-7.906-.652-2.369,1.967-2.741,5.441-.892,7.878-.062.045-.121.093-.183.138-1.75-2.524-5.177-3.228-7.783-1.555-2.586,1.677-3.352,5.102-1.765,7.717-.068.038-.133.082-.201.12-1.459-2.711-4.798-3.821-7.572-2.435v-.027c-2.772,1.385-3.907,4.673-2.643,7.487-.069.029-.141.054-.21.083-1.13-2.881-4.333-4.352-7.254-3.281-2.963,1.086-4.485,4.344-3.424,7.303.001.004.004.006.005.01l-.195.071c-1.06-2.959-4.348-4.479-7.309-3.42-2.96,1.085-4.481,4.365-3.399,7.322l-.187.068s0-.004-.001-.006c-1.087-2.959-4.374-4.479-7.336-3.394-2.963,1.087-4.485,4.344-3.397,7.304,0,.002.002.003.003.005l-.196.071c-1.088-2.956-4.346-4.474-7.307-3.416-2.96,1.085-4.481,4.368-3.424,7.326l-.188.068s-.001-.007-.002-.01c-1.087-2.959-4.347-4.479-7.309-3.394-2.761,1.012-4.241,3.911-3.552,6.697-.016.221-.021.442-.01.668l-.059.021c-.283-.781-.719-1.503-1.324-2.092-1.304-1.303-3.288-1.928-5.136-1.548-.353.082-.734.191-1.06.326-.353.135-.679.326-1.004.516-.3.217-.598.461-.843.707-1.087,1.086-1.685,2.552-1.685,4.045,0,.353.028.733.109,1.114.081.353.19.705.326,1.059.135.353.325.679.516.977.218.326.462.624.734.868.244.272.543.516.843.707.325.217.651.379,1.004.542.326.137.707.245,1.06.326.381.054.734.109,1.115.109,1.494,0,2.961-.624,4.022-1.684,1.087-1.058,1.685-2.524,1.685-4.018,0-.189-.037-.372-.055-.559.74,2.407,2.961,4.035,5.435,4.035.379,0,.76-.054,1.141-.109,2.772-.57,4.673-3.069,4.564-5.81.979,2.58,3.696,4.153,6.468,3.583,2.772-.542,4.673-3.04,4.592-5.783.951,2.58,3.669,4.127,6.44,3.583,2.772-.57,4.673-3.04,4.592-5.783.951,2.552,3.669,4.127,6.467,3.557,2.772-.542,4.674-3.041,4.566-5.783.978,2.578,3.695,4.127,6.467,3.583,2.772-.57,4.673-3.041,4.592-5.783.951,2.552,3.669,4.127,6.44,3.557,2.798-.544,4.673-3.041,4.592-5.783.978,2.578,3.669,4.127,6.467,3.583,2.907-.598,4.864-3.285,4.538-6.19,1.304,2.687,4.511,3.936,7.309,2.796,2.8-1.168,4.213-4.29,3.233-7.114,1.903,2.308,5.273,2.769,7.745,1.005,2.473-1.764,3.098-5.132,1.495-7.656,2.363,1.819,5.787,1.521,7.798-.787,1.984-2.281,1.822-5.702-.325-7.82,2.744,1.25,6.005.163,7.418-2.524,1.413-2.688.462-5.973-2.092-7.521,2.935.57,5.842-1.249,6.602-4.181.707-2.743-.706-5.539-3.206-6.652,2.744.245,5.326-1.493,6.032-4.236.707-2.741-.706-5.537-3.206-6.651,2.717.244,5.326-1.521,6.032-4.262.707-2.743-.706-5.539-3.233-6.626,2.745.245,5.326-1.519,6.033-4.262.706-2.741-.707-5.539-3.207-6.652,2.717.272,5.326-1.493,6.033-4.234.706-2.743-.707-5.539-3.207-6.652,2.717.244,5.299-1.521,6.005-4.236.707-2.741-.679-5.539-3.207-6.652,2.745.245,5.326-1.519,6.033-4.262.706-2.741-.707-5.511-3.207-6.624,2.717.244,5.326-1.521,6.005-4.262.734-2.743-.679-5.539-3.206-6.652,2.744.244,5.326-1.493,6.032-4.236.724-2.819-.768-5.638-3.395-6.692.235.027.47.067.705.067,1.494,0,2.961-.598,4.022-1.684Z" style="fill: #8dd44c;"/>
          <g>
            <path d="M752.525,369.71c19.671,0,34.051-18.549,29.133-37.579l-60.81-235.314c-3.513-13.593-15.784-23.091-29.836-23.091h0c-14.051,0-26.323,9.497-29.836,23.091l-23.067,89.261c-4.242,16.416-17.507,28.962-34.144,32.295l-72.089,14.442c-32.304,6.472-55.551,34.818-55.551,67.738h0c0,38.155,30.957,69.086,69.144,69.086h45.205l-.018.072h161.868Z" style="fill: #54b7b7;"/>
            <g style="clip-path: url(#clippath-9);">
              <g>
                <g>
                  <polygon points="774.065 382.294 567.533 382.03 567.533 382.162 479.443 382.162 479.443 86.178 775.22 86.178 774.065 382.294" style="fill: #5ac4c3; fill-rule: evenodd;"/>
                  <g style="clip-path: url(#clippath-10);">
                    <polygon points="644.721 388.542 606.282 406.384 789.664 8.475 821.173 -5.765 644.721 388.542" style="fill: #baeffc; fill-opacity: .176; fill-rule: evenodd;"/>
                    <polygon points="582.243 392.928 474.304 410.771 657.686 12.862 758.695 -1.378 582.243 392.928" style="fill: #baeffc; fill-opacity: .176; fill-rule: evenodd;"/>
                    <polygon points="727.849 403.404 669.78 406.642 797.407 128.356 820.115 200.986 727.849 403.404" style="fill: #baeffc; fill-opacity: .176; fill-rule: evenodd;"/>
                  </g>
                </g>
                <g>
                  <polygon points="663.044 86.178 661.231 86.178 658.491 86.178 657.399 86.178 657.399 382.162 658.274 382.162 659.289 382.162 660.086 382.162 662.826 382.162 663.919 382.162 663.919 86.178 663.044 86.178" style="fill: #4aa2b2;"/>
                  <polygon points="594.576 86.178 591.837 86.178 590.744 86.178 590.744 382.162 591.619 382.162 592.634 382.162 593.432 382.162 596.171 382.162 597.264 382.162 597.264 86.178 596.389 86.178 594.576 86.178" style="fill: #4aa2b2;"/>
                  <polygon points="527.915 86.178 525.175 86.178 524.09 86.178 524.09 382.162 525.456 382.162 525.98 382.162 527.582 382.162 530.034 382.162 530.61 382.162 530.61 86.178 529.731 86.178 527.915 86.178" style="fill: #4aa2b2;"/>
                  <polygon points="727.885 86.178 725.146 86.178 724.053 86.178 724.053 382.162 724.928 382.162 725.943 382.162 726.741 382.162 729.48 382.162 730.573 382.162 730.573 86.178 729.698 86.178 727.885 86.178" style="fill: #4aa2b2;"/>
                </g>
              </g>
              <g>
                <path d="M751.934,344.455l-.004-.011-59.154-230.29-23.628,96.186c-6.212,25.285-26.73,44.932-52.267,50.062l-74.104,14.881c-19.002,3.816-30.809,17.019-30.809,34.454v50.711c0,3.718.587,7.365,1.646,10.829,3.585,2.537,7.478,4.662,11.642,6.273l.799.275c5.58,1.696,11.32,2.702,17.108,3.007v.208l198.138.074,3.236-5.98c.197-.364.958-1.548,2.478-1.548.645,0,1.279-.066,1.916-.109.815-10.873,1.532-23.928,2.1-24.661.981-1.266,1.304-2.814.903-4.361ZM579.549,358.534l.264.071-.264-.071Z" style="fill: none;"/>
                <path d="M774.042,338.772l-60.778-236.585c-2.132-9.621-10.848-16.607-20.722-16.607-10.87,0-19.392,8.099-21.261,20.408l-24.296,98.915c-4.116,16.737-17.695,29.747-34.598,33.14l-74.104,14.881c-29.393,5.902-49.139,28.734-49.139,56.814v13.341c0,19.553,9.465,37.577,24.471,48.199-1.059-3.464-1.646-7.111-1.646-10.829v-50.711c0-17.435,11.806-30.638,30.809-34.454l74.104-14.881c25.537-5.13,46.055-24.777,52.267-50.062l23.628-96.186,59.154,230.29.004.011c.401,1.548.078,3.096-.903,4.361-.568.733-1.285,13.788-2.1,24.661,7.947-.536,15.212-4.336,20.14-10.693,5.324-6.86,7.133-15.612,4.971-24.012ZM691.048,107.406c0,.011.004.026.007.037-.004-.011-.007-.026-.007-.037Z" style="fill: #4aa2b2; opacity: .35;"/>
              </g>
            </g>
            <path d="M546.882,369.525c-6.088,0-11.961-.924-17.504-2.61-18.291-7.074-28.823-25.675-28.823-43.837v-13.341c0-22.847,15.689-40.757,39.974-45.634l74.104-14.881c21.22-4.261,38.269-20.59,43.432-41.599l24.296-98.918c.104-.419.186-.843.253-1.269.762-5.052,3.771-10.453,9.927-10.453,4.566,0,8.597,3.226,9.581,7.669.037.152.071.308.111.46l60.752,236.496c1.282,4.967.208,10.141-2.935,14.194-3.147,4.057-7.898,6.381-13.036,6.381-5.433,0-10.101,3.066-12.516,7.527h21.391c20.208,0,34.982-19.057,29.93-38.607l-62.472-241.749c-3.609-13.965-16.216-23.722-30.652-23.722s-27.043,9.757-30.652,23.722l-23.698,91.702c-4.358,16.865-17.985,29.754-35.078,33.178l-74.061,14.837c-33.188,6.648-57.07,35.77-57.07,69.59,0,39.199,31.803,70.975,71.035,70.975h33.787c-.19-.025-.358-.112-.554-.112h-29.523Z" style="fill: #f3ffff;"/>
          </g>
          <g style="clip-path: url(#clippath-11);">
            <g>
              <g>
                <polygon points="881.12 382.294 674.588 382.03 674.588 382.162 586.498 382.162 586.498 86.178 882.275 86.178 881.12 382.294" style="fill: #5ac4c3; fill-rule: evenodd;"/>
                <g style="clip-path: url(#clippath-12);">
                  <polygon points="674.175 392.928 566.237 410.771 749.618 12.862 850.627 -1.378 674.175 392.928" style="fill: #baeffc; fill-opacity: .176; fill-rule: evenodd;"/>
                  <polygon points="835.487 403.404 800.059 406.642 927.686 128.356 927.752 200.986 835.487 403.404" style="fill: #baeffc; fill-opacity: .176; fill-rule: evenodd;"/>
                </g>
              </g>
              <g>
                <polygon points="770.099 86.178 768.286 86.178 765.546 86.178 764.454 86.178 764.454 382.162 765.329 382.162 766.344 382.162 767.141 382.162 769.881 382.162 770.974 382.162 770.974 86.178 770.099 86.178" style="fill: #4aa2b2;"/>
                <polygon points="701.631 86.178 698.892 86.178 697.799 86.178 697.799 382.162 698.674 382.162 699.689 382.162 700.487 382.162 703.226 382.162 704.319 382.162 704.319 86.178 703.444 86.178 701.631 86.178" style="fill: #4aa2b2;"/>
                <polygon points="634.97 86.178 632.23 86.178 631.145 86.178 631.145 382.162 632.511 382.162 633.035 382.162 634.637 382.162 637.089 382.162 637.665 382.162 637.665 86.178 636.786 86.178 634.97 86.178" style="fill: #4aa2b2;"/>
                <polygon points="834.94 86.178 832.201 86.178 831.108 86.178 831.108 382.162 831.983 382.162 832.998 382.162 833.796 382.162 836.535 382.162 837.628 382.162 837.628 86.178 836.753 86.178 834.94 86.178" style="fill: #4aa2b2;"/>
              </g>
            </g>
          </g>
        </g>
        <path d="M1522.572,443.263l-63.15-63.15c-4.975-4.975-11.722-7.77-18.757-7.77h-30.492c-28.099,0-50.878-22.779-50.878-50.878V82.898c0-12.753-10.338-23.091-23.091-23.091h-184.35c-12.701,0-23.018,10.258-23.091,22.959l-1.423,248.128c-.076,13.304,5.138,26.094,14.494,35.553l188.902,190.98c4.975,4.975,7.769,11.722,7.769,18.757v102.907c0,6.937-2.615,13.7-7.567,18.557-16.914,16.589-5.311,45.241,18.284,45.482l106.272,1.084c7.129.073,13.987-2.727,19.028-7.768l48.049-48.049c4.975-4.975,7.769-11.722,7.769-18.757v-207.621c0-7.035-2.795-13.782-7.769-18.757Z" style="fill: #4aa280; fill-rule: evenodd; stroke: #4aa280; stroke-dasharray: 0 10; stroke-linecap: round; stroke-linejoin: round; stroke-width: 10px;"/>
        <g>
          <g>
            <path d="M1266.944,56.864c0-2.959-2.39-5.347-5.352-5.347s-5.352,2.388-5.352,5.347c0-2.959-2.39-5.347-5.352-5.347s-5.352,2.388-5.352,5.347c0-2.959-2.39-5.347-5.352-5.347s-5.352,2.388-5.352,5.347c0-2.959-2.39-5.347-5.352-5.347s-5.352,2.388-5.352,5.347c0-2.959-2.39-5.347-5.352-5.347s-5.352,2.388-5.352,5.347v9.913h53.519v-9.913h-.001Z" style="fill: #8dd44c;"/>
            <rect x="1181.844" y="63.655" width="85.101" height="58.292" style="fill: #fff;"/>
            <rect x="1224.13" y="63.655" width="10.704" height="58.292" style="fill: #e9f1f6; mix-blend-mode: multiply; opacity: .5;"/>
            <rect x="1261.592" y="63.655" width="5.353" height="58.292" style="fill: #e9f1f6; mix-blend-mode: multiply; opacity: .5;"/>
            <g>
              <path d="M1229.217,121.947h-78.954V44.804c0-10.46,4.145-20.492,11.528-27.889,7.421-7.397,17.448-11.552,27.91-11.552h.039c10.462,0,20.489,4.155,27.91,11.552,7.383,7.397,11.566,17.428,11.566,27.889v77.144Z" style="fill: #fff; fill-rule: evenodd;"/>
              <g>
                <rect x="1150.262" y="84.474" width="15.791" height="18.737" style="fill: #b3efe3;"/>
                <rect x="1150.262" y="47.878" width="15.791" height="15.777" style="fill: #b3efe3;"/>
                <rect x="1177.255" y="84.474" width="24.967" height="37.473" style="fill: #b3efe3;"/>
                <rect x="1177.255" y="47.878" width="24.967" height="15.777" style="fill: #b3efe3;"/>
                <rect x="1213.426" y="84.474" width="15.791" height="18.737" style="fill: #b3efe3;"/>
                <rect x="1213.426" y="47.878" width="15.791" height="15.777" style="fill: #b3efe3;"/>
              </g>
              <g style="opacity: .35;">
                <rect x="1150.263" y="47.878" width="15.791" height="6.053" style="fill: #49a2e0;"/>
                <rect x="1177.257" y="47.878" width="24.967" height="6.053" style="fill: #49a2e0;"/>
                <rect x="1213.426" y="47.878" width="15.791" height="6.053" style="fill: #49a2e0;"/>
              </g>
              <g style="opacity: .35;">
                <rect x="1150.263" y="84.474" width="15.791" height="6.053" style="fill: #49a2e0;"/>
                <rect x="1177.257" y="84.474" width="24.967" height="6.053" style="fill: #49a2e0;"/>
                <rect x="1213.426" y="84.474" width="15.791" height="6.053" style="fill: #49a2e0;"/>
              </g>
            </g>
            <rect x="1234.833" y="84.474" width="26.758" height="32.161" style="fill: #b3efe3;"/>
            <rect x="1234.835" y="84.474" width="26.758" height="6.053" style="fill: #49a2e0;"/>
            <rect x="1229.217" y="63.75" width="37.728" height="6.053" style="fill: #e9f1f6; mix-blend-mode: multiply; opacity: .5;"/>
          </g>
          <g>
            <line x1="1266.945" y1="121.947" x2="1266.945" y2="121.947" style="fill: none; stroke: #4aa280; stroke-linecap: round; stroke-linejoin: round; stroke-width: 10px;"/>
            <line x1="1257.135" y1="121.947" x2="1154.133" y2="121.947" style="fill: none; stroke: #4aa280; stroke-dasharray: 0 9.81; stroke-linecap: round; stroke-linejoin: round; stroke-width: 10px;"/>
            <line x1="1149.229" y1="121.947" x2="1149.229" y2="121.947" style="fill: none; stroke: #4aa280; stroke-linecap: round; stroke-linejoin: round; stroke-width: 10px;"/>
          </g>
        </g>
        <g>
          <rect x="1273.303" y="113.359" width="8.056" height="98.607" transform="translate(2554.6622 325.3246) rotate(-180)" style="fill: #dcf8f1;"/>
          <ellipse cx="1233.044" cy="163.362" rx="26.183" ry="26.161" style="fill: #c7ebf7;"/>
          <ellipse cx="1233.044" cy="163.362" rx="20.141" ry="20.124" style="fill: #49a198;"/>
          <ellipse cx="1315.622" cy="161.35" rx="20.141" ry="20.124" style="fill: #c7ebf7;"/>
          <ellipse cx="1277.331" cy="113.359" rx="30.211" ry="30.186" style="fill: #c7ebf7;"/>
          <g>
            <ellipse cx="1277.331" cy="113.359" rx="24.169" ry="24.149" style="fill: #49a198;"/>
            <g style="clip-path: url(#clippath-15);">
              <path d="M1256.971,128.324c-.579-.868-.897-1.893-.897-2.951h0c0-2.088,1.227-4.05,3.282-4.924.684-.291,1.431-.404,2.173-.404h14.809c2.666,0,5.208-1.132,6.991-3.112,2.051-2.277,3.985-4.424,5.455-6.056,1.726-1.916,4.184-3.009,6.764-3.009h22.056c2.83,0,5.48,1.64,6.526,4.267,1.43,3.591-.308,7.605-3.954,9.007-.787.303-1.634.425-2.477.425h-1.613l-7.709,23.128h-37.013l-18.454-15.58,4.061-.79Z" style="fill: #a7cc40; fill-rule: evenodd;"/>
            </g>
          </g>
        </g>
      </g>
    </g>
  </g>
</svg>