<?xml version="1.0" encoding="UTF-8"?>
<svg id="Details" xmlns="http://www.w3.org/2000/svg" width="1500" height="145" xmlns:xlink="http://www.w3.org/1999/xlink" version="1.1" viewBox="0 0 1500 145">
  <!-- Generator: Adobe Illustrator 30.5.1, SVG Export Plug-In . SVG Version: 2.1.4 Build 3)  -->
  <defs>
    <clipPath id="clippath">
      <rect width="1500" height="145" style="fill: none;"/>
    </clipPath>
    <clipPath id="clippath-1">
      <path d="M788.666,114.186h18.181s4.927,44.959,4.927,44.959c.273,2.492-1.68,4.668-4.189,4.668h-19.747c-2.512,0-4.466-2.182-4.188-4.677l5.015-44.95Z" style="fill: none;"/>
    </clipPath>
    <clipPath id="clippath-2">
      <path d="M797.711,112.552c0,6.428-2.555,12.596-7.106,17.143-4.551,4.547-10.723,7.1-17.16,7.1-12.189,0-24.406,0-24.406,0,0,0,0-7.501,0-16.027,0-6.432,2.555-12.599,7.106-17.146,4.551-4.544,10.723-7.1,17.16-7.1,12.189,0,24.406,0,24.406,0,0,0,0,7.501,0,16.03Z" style="clip-rule: evenodd; fill: none;"/>
    </clipPath>
    <clipPath id="clippath-3">
      <path d="M797.711,112.552c0,6.428,2.555,12.596,7.106,17.143,4.551,4.547,10.723,7.1,17.16,7.1,12.189,0,24.406,0,24.406,0,0,0,0-7.501,0-16.027,0-6.432-2.555-12.599-7.106-17.146-4.551-4.544-10.723-7.1-17.16-7.1h-24.406s0,7.501,0,16.03Z" style="clip-rule: evenodd; fill: none;"/>
    </clipPath>
    <clipPath id="clippath-5">
      <path d="M797.698,136.795l14.578-10.615c8.052-5.863,8.962-17.524,1.917-24.563l-5.099-5.095h-22.79s-5.099,5.095-5.099,5.095c-7.045,7.039-6.135,18.7,1.917,24.563l14.578,10.615Z" style="clip-rule: evenodd; fill: none;"/>
    </clipPath>
    <clipPath id="clippath-6">
      <path d="M534.657,89.8h12.473s3.38,30.845,3.38,30.845c.187,1.709-1.153,3.203-2.874,3.203h-13.548c-1.723,0-3.064-1.497-2.873-3.208l3.441-30.839Z" style="fill: none;"/>
    </clipPath>
    <clipPath id="clippath-7">
      <path d="M540.863,88.679c0,4.41-1.753,8.641-4.875,11.761-3.122,3.12-7.357,4.871-11.773,4.871-8.363,0-16.745,0-16.745,0,0,0,0-5.147,0-10.996,0-4.412,1.753-8.644,4.875-11.763,3.122-3.118,7.357-4.871,11.773-4.871,8.363,0,16.745,0,16.745,0,0,0,0,5.147,0,10.998Z" style="clip-rule: evenodd; fill: none;"/>
    </clipPath>
    <clipPath id="clippath-8">
      <path d="M540.863,88.679c0,4.41,1.753,8.641,4.875,11.761,3.122,3.12,7.357,4.871,11.773,4.871h16.745s0-5.147,0-10.996c0-4.412-1.753-8.644-4.875-11.763-3.122-3.118-7.357-4.871-11.773-4.871h-16.745s0,5.147,0,10.998Z" style="clip-rule: evenodd; fill: none;"/>
    </clipPath>
    <clipPath id="clippath-10">
      <path d="M540.853,105.311l10.001-7.282c5.524-4.022,6.149-12.023,1.315-16.852l-3.499-3.496h-15.636s-3.499,3.496-3.499,3.496c-4.833,4.829-4.209,12.83,1.315,16.852l10.001,7.282Z" style="clip-rule: evenodd; fill: none;"/>
    </clipPath>
    <clipPath id="clippath-11">
      <path d="M636.738,115.357h20.878s5.658,51.627,5.658,51.627c.314,2.861-1.929,5.361-4.81,5.361h-22.676c-2.885,0-5.128-2.506-4.809-5.37l5.759-51.618Z" style="fill: none;"/>
    </clipPath>
    <clipPath id="clippath-12">
      <path d="M647.125,113.481c0,7.382-2.934,14.464-8.16,19.685-5.226,5.222-12.314,8.153-19.706,8.153-13.997,0-28.026,0-28.026,0,0,0,0-8.614,0-18.404,0-7.385,2.934-14.467,8.16-19.689,5.226-5.218,12.314-8.153,19.706-8.153,13.997,0,28.026,0,28.026,0,0,0,0,8.614,0,18.408Z" style="clip-rule: evenodd; fill: none;"/>
    </clipPath>
    <clipPath id="clippath-13">
      <path d="M647.125,113.481c0,7.382,2.934,14.464,8.16,19.685,5.226,5.222,12.314,8.153,19.706,8.153,13.997,0,28.026,0,28.026,0,0,0,0-8.614,0-18.404,0-7.385-2.934-14.467-8.16-19.689-5.226-5.218-12.314-8.153-19.706-8.153-13.997,0-28.026,0-28.026,0,0,0,0,8.614,0,18.408Z" style="clip-rule: evenodd; fill: none;"/>
    </clipPath>
    <clipPath id="clippath-15">
      <path d="M647.109,141.32l16.74-12.189c9.246-6.733,10.291-20.124,2.201-28.207l-5.856-5.851h-26.171s-5.856,5.851-5.856,5.851c-8.09,8.083-7.045,21.474,2.201,28.207l16.74,12.189Z" style="clip-rule: evenodd; fill: none;"/>
    </clipPath>
    <clipPath id="clippath-16">
      <path d="M152.358,62.439c-1.779,0-3.476-.747-4.677-2.059-1.201-1.312-1.795-3.067-1.637-4.838,3.407-38.159,19.938-223.283,23.823-266.785.465-5.207,4.828-9.165,10.06-9.165h21.874c5.254,0,9.632,4.024,10.068,9.256l4.279,51.31h15.559c2.848,0,5.445,1.596,6.719,4.141,2.146,4.288,5.408,10.807,7.035,14.058.657,1.312,1.038,2.745,1.119,4.21.774,13.926,4.928,88.628,4.928,88.628,0,0,17.113,4.885,27.528,7.858,4.64,1.324,7.831,5.559,7.831,10.38V56.106c0,1.68-.668,3.291-1.857,4.478-1.189,1.188-2.801,1.855-4.482,1.855-13.722,0-117.739,0-128.171,0Z" style="clip-rule: evenodd; fill: none;"/>
    </clipPath>
    <clipPath id="clippath-17">
      <path d="M133.893,115.604s-34.07-30.162-41.357-36.612h-2.719c-7.287,6.45-41.357,36.612-41.357,36.612v33.873c0,.796.317,1.559.879,2.121.565.565,1.329.881,2.126.881h79.423c.797,0,1.56-.316,2.126-.881.563-.562.88-1.325.88-2.121v-33.873Z" style="clip-rule: evenodd; fill: none;"/>
    </clipPath>
    <clipPath id="clippath-18">
      <path d="M188.359,107.227h18.181s4.927,44.959,4.927,44.959c.273,2.492-1.68,4.668-4.189,4.668h-19.747c-2.512,0-4.466-2.182-4.188-4.677l5.015-44.95Z" style="fill: none;"/>
    </clipPath>
    <clipPath id="clippath-19">
      <path d="M197.405,105.593c0,6.428-2.555,12.596-7.106,17.143-4.551,4.547-10.723,7.1-17.16,7.1-12.189,0-24.406,0-24.406,0,0,0,0-7.501,0-16.027,0-6.432,2.555-12.599,7.106-17.146,4.551-4.544,10.723-7.1,17.16-7.1,12.189,0,24.406,0,24.406,0,0,0,0,7.501,0,16.03Z" style="clip-rule: evenodd; fill: none;"/>
    </clipPath>
    <clipPath id="clippath-20">
      <path d="M197.405,105.593c0,6.428,2.555,12.596,7.106,17.143,4.551,4.547,10.723,7.1,17.16,7.1,12.189,0,24.406,0,24.406,0,0,0,0-7.501,0-16.027,0-6.432-2.555-12.599-7.106-17.146-4.551-4.544-10.723-7.1-17.16-7.1-12.189,0-24.406,0-24.406,0,0,0,0,7.501,0,16.03Z" style="clip-rule: evenodd; fill: none;"/>
    </clipPath>
    <clipPath id="clippath-22">
      <path d="M197.392,129.835l14.578-10.615c8.052-5.863,8.962-17.524,1.917-24.563l-5.099-5.095h-22.79s-5.099,5.095-5.099,5.095c-7.045,7.039-6.135,18.7,1.917,24.563l14.578,10.615Z" style="clip-rule: evenodd; fill: none;"/>
    </clipPath>
    <clipPath id="clippath-23">
      <path d="M257.091,142.901h18.181s4.927,44.959,4.927,44.959c.273,2.492-1.68,4.668-4.189,4.668h-19.747c-2.512,0-4.466-2.182-4.188-4.677l5.015-44.95Z" style="fill: none;"/>
    </clipPath>
    <clipPath id="clippath-24">
      <path d="M266.136,141.267c0,6.428-2.555,12.596-7.106,17.143-4.551,4.547-10.723,7.1-17.16,7.1-12.189,0-24.406,0-24.406,0,0,0,0-7.501,0-16.027,0-6.432,2.555-12.599,7.106-17.146,4.551-4.544,10.723-7.1,17.16-7.1,12.189,0,24.406,0,24.406,0,0,0,0,7.501,0,16.03Z" style="clip-rule: evenodd; fill: none;"/>
    </clipPath>
    <clipPath id="clippath-25">
      <path d="M266.136,141.267c0,6.428,2.555,12.596,7.106,17.143,4.551,4.547,10.723,7.1,17.16,7.1,12.189,0,24.406,0,24.406,0,0,0,0-7.501,0-16.027,0-6.432-2.555-12.599-7.106-17.146-4.551-4.544-10.723-7.1-17.16-7.1-12.189,0-24.406,0-24.406,0,0,0,0,7.501,0,16.03Z" style="clip-rule: evenodd; fill: none;"/>
    </clipPath>
    <clipPath id="clippath-27">
      <path d="M266.123,165.509l14.578-10.615c8.052-5.863,8.962-17.524,1.917-24.563l-5.099-5.095h-22.79s-5.099,5.095-5.099,5.095c-7.045,7.039-6.135,18.7,1.917,24.563l14.578,10.615Z" style="clip-rule: evenodd; fill: none;"/>
    </clipPath>
    <clipPath id="clippath-28">
      <path d="M175.697,74.767c-.402-.401-.949-1.193-1.464-1.078-.717.16-1.345.562-1.862,1.078q-.058.058,0,0c-.141.141.024-.024-.552.551-1.172,1.171-1.221,3.041-.145,4.27.077.087.213.087.296.005l1.054-1.053c.874.417,1.949.273,2.673-.45.918-.918.918-2.405,0-3.323Z" style="fill: none;"/>
    </clipPath>
  </defs>
  <g style="clip-path: url(#clippath);">
    <rect x="-10.125" y="-423.498" width="1520.249" height="3053.416" style="fill: #61d1d5;"/>
    <path d="M1209.742-728.582c-76.136,0-138.076,61.941-138.076,138.077,0,9.374-7.626,17-17,17h-106.263c-9.374,0-17-7.626-17-17v-2.009c0-36.943-30.057-67-67-67h-75.775c-41.992,0-76.156-34.163-76.156-76.156v-85.988c0-34.188-27.813-62-62-62h-144.932c-34.187,0-62,27.812-62,62v1.583c0,6.616-5.383,12-12,12h-77.199c-41.355,0-75,33.645-75,75v1.615c0,6.616-5.383,12-12,12H-56.875v1900.227h125.29c19.299,0,35,15.701,35,35v28.562c0,46.869,38.131,85,85,85h282.678c46.869,0,85-38.131,85-85v-4.012c0-19.299,15.701-35,35-35h100.898c106.145,0,192.5-86.354,192.5-192.5,0-13.785,11.215-25,25-25h189.302c13.785,0,25,11.215,25,25v6.941c0,13.785-11.215,25-25,25h-1.646c-41.355,0-75,33.646-75,75.001v134.569c0,41.355,33.645,75,75,75h68.108c41.355,0,75-33.645,75-75,0-34.095,27.737-61.833,61.832-61.833h254.837V-728.582h-347.181Z" style="fill: #7ee6e4;"/>
    <path d="M1045.191-153.972h0c0-51.28,41.571-92.851,92.85-92.851h57.665c32.387,0,58.642-26.255,58.642-58.642h0c0-32.387,26.255-58.642,58.642-58.642h218.932v-339.474h-322.181c-62.45,0-113.076,50.626-113.076,113.076h0c0,23.196-18.804,42-42,42h-106.262c-23.196,0-42-18.804-42-42v-2.009c0-23.196-18.804-42-42-42h-75.776c-55.867,0-101.156-45.289-101.156-101.156v-85.988c0-20.435-16.565-37-37-37h-144.932c-20.435,0-37,16.565-37,37v1.583c0,20.435-16.565,37-37,37h-77.199c-27.614,0-50,22.386-50,50v1.615c0,20.435-16.565,37-37,37H-31.875v1850.227h100.289c33.137,0,60,26.863,60,60v28.561c0,33.137,26.863,60,60,60h282.678c33.137,0,60-26.863,60-60v-4.011c0-33.137,26.863-60,60-60h100.898c92.508,0,167.5-74.992,167.5-167.5h0c0-27.614,22.386-50,50-50h189.302c27.614,0,50,22.386,50,50v6.942c0,27.614-22.386,50-50,50h-1.647c-27.614,0-50,22.386-50,50v134.57c0,27.614,22.386,50,50,50h68.108c27.614,0,50-22.386,50-50h0c0-47.956,38.876-86.832,86.832-86.832h229.837v-328.037c0-39.064-31.668-70.732-70.732-70.732h-323.15c-50.932,0-92.285-41.008-92.845-91.807-.004-.347-.006-830.544-.006-830.892Z" style="fill: #fbed97;"/>
    <g>
      <path d="M1209.742-643.581c-29.313,0-53.076,23.763-53.076,53.076h0c0,56.333-45.667,102-102,102h-353.588c-40.652,0-73.606-32.955-73.606-73.606v-210.547c0-14.359-11.641-26-26-26h-56.442c-10.394,0-19.895,6.146-23.89,15.742-14.612,35.099-49.272,59.841-89.6,59.841h-46.653c-11.17,0-21.157,7.295-24.204,18.042-11.534,40.685-49.013,70.574-93.342,70.574H-1.979l-11.374,1742.34,115.314-.491c49.895,14.55,86.454,60.7,86.454,115.229v.695c.001,13.259,10.754,24.004,24.013,23.997l236.679-.131c11.698-.007,21.708-8.443,23.64-19.98,9.508-56.77,58.875-100.032,118.346-100.032h100.898c59.37,0,107.5-48.129,107.5-107.5h0c0-60.752,49.249-110,110-110h189.003c21.384,0,38.798-17.186,39.08-38.568h0c.246-18.686-12.768-34.942-31.062-38.758-28.801-6.009-55.263-20.244-76.552-41.532-28.243-28.244-44.073-65.595-44.746-105.431-.015-.883-.022-838.466-.022-839.351,0-40.828,15.899-79.212,44.769-108.081,28.87-28.869,67.254-44.769,108.082-44.769h28.622c14.589,0,27.327-10.069,30.48-24.313,11.76-53.123,59.237-92.972,115.846-92.972h312.76v-219.474h-416.008Z" style="fill: #62c244;"/>
      <g>
        <line x1="-2.045" y1="-624.447" x2="-13.321" y2="1102.874" style="fill: none; stroke: #62c244; stroke-dasharray: 0 10.014; stroke-linecap: round; stroke-linejoin: round; stroke-width: 10px;"/>
        <path d="M-3.347,1107.838l105.307-.449c49.895,14.55,86.454,60.7,86.454,115.229v.695c.001,13.259,10.754,24.004,24.013,23.997l236.679-.131c11.698-.007,21.708-8.443,23.64-19.98,9.508-56.77,58.875-100.032,118.346-100.032h100.898c59.37,0,107.5-48.129,107.5-107.5h0c0-60.751,49.249-110,110-110h189.003c21.384,0,38.798-17.186,39.08-38.568.246-18.686-12.768-34.942-31.062-38.758-28.801-6.009-55.263-20.244-76.552-41.532-28.243-28.244-44.073-65.594-44.746-105.431-.015-.882-.022-838.466-.022-839.351,0-40.828,15.899-79.212,44.769-108.081,28.87-28.869,67.254-44.769,108.082-44.769h28.623c14.589,0,27.327-10.069,30.48-24.313,11.76-53.123,59.237-92.972,115.846-92.972h307.757" style="fill: none; stroke: #62c244; stroke-dasharray: 0 10.007; stroke-linecap: round; stroke-linejoin: round; stroke-width: 10px;"/>
      </g>
    </g>
    <g>
      <path d="M914.223-313.219V-62.649c0,30.12-24.417,54.537-54.537,54.537h-80.08c-29.292,0-53.038,23.746-53.038,53.038v153.905c0,29.292-23.746,53.038-53.038,53.038h-183.486c-37.785,0-68.416,30.631-68.416,68.416h0c0,37.785-30.631,68.416-68.416,68.416h-33.231c-37.785,0-68.416-30.631-68.416-68.416v-84.054c0-37.785-30.631-68.416-68.416-68.416H5.265c-15.114,0-27.366-12.252-27.366-27.366v-713.411h290.764c35.899,0,65,29.101,65,65v20.473c0,35.899,29.101,65,65,65h257.533c15.114,0,27.366,12.252,27.366,27.366h0c0,15.114,12.252,27.366,27.366,27.366h148.757c30.12,0,54.537,24.417,54.537,54.537Z" style="fill: #52ab35;"/>
      <path d="M-12.116-572.962h280.778c35.898,0,65,29.101,65,65v20.473c0,35.898,29.101,65,65,65h257.533c15.114,0,27.366,12.252,27.366,27.366s12.252,27.366,27.366,27.366h148.757c30.12,0,54.537,24.417,54.537,54.537V-62.649c0,30.12-24.417,54.537-54.537,54.537h-80.08c-29.292,0-53.038,23.746-53.038,53.038v153.905c0,29.292-23.746,53.038-53.038,53.038h-183.486c-37.785,0-68.416,30.631-68.416,68.416s-30.631,68.416-68.416,68.416h-33.231c-37.785,0-68.416-30.631-68.416-68.416v-84.054c0-37.785-30.631-68.416-68.416-68.416H5.265c-15.114,0-27.366-12.252-27.366-27.366v-708.418" style="fill: none; stroke: #52ab35; stroke-dasharray: 0 9.986; stroke-linecap: round; stroke-linejoin: round; stroke-width: 10px;"/>
    </g>
    <g style="opacity: .331;">
      <path d="M559.924,43.535c-1.232,0-2.231-1-2.231-2.236v-7.001c0-1.236.999-2.236,2.231-2.236s2.231,1,2.231,2.236v7.001c0,1.236-.999,2.236-2.231,2.236Z" style="fill: #00703a;"/>
      <path d="M569.238,43.535c-1.232,0-2.231-1-2.231-2.236v-4.667c0-1.236.999-2.236,2.231-2.236s2.231,1,2.231,2.236v4.667c0,1.236-.999,2.236-2.231,2.236Z" style="fill: #00703a;"/>
      <path d="M551.386,43.535c-1.232,0-2.231-1-2.231-2.236v-4.667c0-1.236.999-2.236,2.231-2.236s2.231,1,2.231,2.236v4.667c0,1.236-.999,2.236-2.231,2.236Z" style="fill: #00703a;"/>
      <path d="M585.055,62.013c-1.232,0-2.231-1-2.231-2.236v-7.001c0-1.236.999-2.236,2.231-2.236,1.232,0,2.231,1,2.231,2.236v7.001c0,1.236-.999,2.236-2.231,2.236Z" style="fill: #00703a;"/>
      <path d="M594.369,62.013c-1.232,0-2.231-1-2.231-2.236v-4.669c0-1.236.999-2.236,2.231-2.236,1.232,0,2.231,1,2.231,2.236v4.669c0,1.236-.999,2.236-2.231,2.236Z" style="fill: #00703a;"/>
      <path d="M576.517,62.013c-1.232,0-2.231-1-2.231-2.236v-4.669c0-1.236.999-2.236,2.231-2.236s2.231,1,2.231,2.236v4.669c0,1.236-.999,2.236-2.231,2.236Z" style="fill: #00703a;"/>
      <path d="M593.688,23.307c-1.232,0-2.231-1-2.231-2.236v-7.001c0-1.236.999-2.236,2.231-2.236,1.232,0,2.231,1,2.231,2.236v7.001c0,1.236-.999,2.236-2.231,2.236Z" style="fill: #00703a;"/>
      <path d="M603.003,23.307c-1.232,0-2.231-1-2.231-2.236v-4.669c0-1.236.999-2.236,2.231-2.236s2.231,1,2.231,2.236v4.669c0,1.236-.999,2.236-2.231,2.236Z" style="fill: #00703a;"/>
      <path d="M585.15,23.307c-1.232,0-2.231-1-2.231-2.236v-4.669c0-1.236.999-2.236,2.231-2.236s2.231,1,2.231,2.236v4.669c0,1.236-.999,2.236-2.231,2.236Z" style="fill: #00703a;"/>
    </g>
    <g style="opacity: .331;">
      <path d="M311.538,94.662c-1.232,0-2.231-1-2.231-2.236v-7.001c0-1.236.999-2.236,2.231-2.236s2.231,1,2.231,2.236v7.001c0,1.236-.999,2.236-2.231,2.236Z" style="fill: #00703a;"/>
      <path d="M320.852,94.662c-1.232,0-2.231-1-2.231-2.236v-4.667c0-1.236.999-2.236,2.231-2.236s2.231,1,2.231,2.236v4.667c0,1.236-.999,2.236-2.231,2.236Z" style="fill: #00703a;"/>
      <path d="M303,94.662c-1.232,0-2.231-1-2.231-2.236v-4.667c0-1.236.999-2.236,2.231-2.236s2.231,1,2.231,2.236v4.667c0,1.236-.999,2.236-2.231,2.236Z" style="fill: #00703a;"/>
      <path d="M336.669,113.14c-1.232,0-2.231-1-2.231-2.236v-7.001c0-1.236.999-2.236,2.231-2.236,1.232,0,2.231,1,2.231,2.236v7.001c0,1.236-.999,2.236-2.231,2.236Z" style="fill: #00703a;"/>
      <path d="M345.983,113.14c-1.232,0-2.231-1-2.231-2.236v-4.669c0-1.236.999-2.236,2.231-2.236,1.232,0,2.231,1,2.231,2.236v4.669c0,1.236-.999,2.236-2.231,2.236Z" style="fill: #00703a;"/>
      <path d="M328.131,113.14c-1.232,0-2.231-1-2.231-2.236v-4.669c0-1.236.999-2.236,2.231-2.236s2.231,1,2.231,2.236v4.669c0,1.236-.999,2.236-2.231,2.236Z" style="fill: #00703a;"/>
      <path d="M345.302,74.434c-1.232,0-2.231-1-2.231-2.236v-7.001c0-1.236.999-2.236,2.231-2.236,1.232,0,2.231,1,2.231,2.236v7.001c0,1.236-.999,2.236-2.231,2.236Z" style="fill: #00703a;"/>
      <path d="M354.617,74.434c-1.232,0-2.231-1-2.231-2.236v-4.669c0-1.236.999-2.236,2.231-2.236s2.231,1,2.231,2.236v4.669c0,1.236-.999,2.236-2.231,2.236Z" style="fill: #00703a;"/>
      <path d="M336.765,74.434c-1.232,0-2.231-1-2.231-2.236v-4.669c0-1.236.999-2.236,2.231-2.236s2.231,1,2.231,2.236v4.669c0,1.236-.999,2.236-2.231,2.236Z" style="fill: #00703a;"/>
    </g>
    <g style="opacity: .331;">
      <path d="M931.493,65.218c1.232,0,2.231-1,2.231-2.236v-7.001c0-1.236-.999-2.236-2.231-2.236-1.232,0-2.231,1-2.231,2.236v7.001c0,1.236.999,2.236,2.231,2.236Z" style="fill: #00703a;"/>
      <path d="M922.179,65.218c1.232,0,2.231-1,2.231-2.236v-4.667c0-1.236-.999-2.236-2.231-2.236-1.232,0-2.231,1-2.231,2.236v4.667c0,1.236.999,2.236,2.231,2.236Z" style="fill: #00703a;"/>
      <path d="M940.031,65.218c1.232,0,2.231-1,2.231-2.236v-4.667c0-1.236-.999-2.236-2.231-2.236s-2.231,1-2.231,2.236v4.667c0,1.236.999,2.236,2.231,2.236Z" style="fill: #00703a;"/>
      <path d="M906.362,83.697c1.232,0,2.231-1,2.231-2.236v-7.001c0-1.236-.999-2.236-2.231-2.236-1.232,0-2.231,1-2.231,2.236v7.001c0,1.236.999,2.236,2.231,2.236Z" style="fill: #00703a;"/>
      <path d="M897.048,83.697c1.232,0,2.231-1,2.231-2.236v-4.669c0-1.236-.999-2.236-2.231-2.236-1.232,0-2.231,1-2.231,2.236v4.669c0,1.236.999,2.236,2.231,2.236Z" style="fill: #00703a;"/>
      <path d="M914.9,83.697c1.232,0,2.231-1,2.231-2.236v-4.669c0-1.236-.999-2.236-2.231-2.236-1.232,0-2.231,1-2.231,2.236v4.669c0,1.236.999,2.236,2.231,2.236Z" style="fill: #00703a;"/>
      <path d="M897.729,44.991c1.232,0,2.231-1,2.231-2.236v-7.001c0-1.236-.999-2.236-2.231-2.236-1.232,0-2.231,1-2.231,2.236v7.001c0,1.236.999,2.236,2.231,2.236Z" style="fill: #00703a;"/>
      <path d="M888.414,44.991c1.232,0,2.231-1,2.231-2.236v-4.669c0-1.236-.999-2.236-2.231-2.236-1.232,0-2.231,1-2.231,2.236v4.669c0,1.236.999,2.236,2.231,2.236Z" style="fill: #00703a;"/>
      <path d="M906.267,44.991c1.232,0,2.231-1,2.231-2.236v-4.669c0-1.236-.999-2.236-2.231-2.236-1.232,0-2.231,1-2.231,2.236v4.669c0,1.236.999,2.236,2.231,2.236Z" style="fill: #00703a;"/>
    </g>
    <g>
      <g>
        <g>
          <path d="M788.666,114.186h18.181s4.927,44.959,4.927,44.959c.273,2.492-1.68,4.668-4.189,4.668h-19.747c-2.512,0-4.466-2.182-4.188-4.677l5.015-44.95Z" style="fill: #6b4c46;"/>
          <g style="clip-path: url(#clippath-1);">
            <path d="M797.698,146.685l14.862-10.822c8.209-5.977,9.137-17.867,1.954-25.043l-5.199-5.195h-23.236s-5.199,5.195-5.199,5.195c-7.183,7.177-6.255,19.066,1.954,25.043l14.862,10.822Z" style="fill: #594237; fill-rule: evenodd;"/>
          </g>
        </g>
        <g>
          <g>
            <path d="M797.711,112.552c0,6.428-2.555,12.596-7.106,17.143-4.551,4.547-10.723,7.1-17.16,7.1-12.189,0-24.406,0-24.406,0,0,0,0-7.501,0-16.027,0-6.432,2.555-12.599,7.106-17.146,4.551-4.544,10.723-7.1,17.16-7.1,12.189,0,24.406,0,24.406,0,0,0,0,7.501,0,16.03Z" style="fill: #abc02e; fill-rule: evenodd;"/>
            <g style="clip-path: url(#clippath-2);">
              <polygon points="797.711 96.522 743.396 142.946 797.711 142.946 797.711 96.522" style="fill: #839d24; fill-rule: evenodd;"/>
              <rect x="741.971" y="113.33" width="62.808" height="6.08" transform="translate(100.771 515.437) rotate(-39.239)" style="fill: #bdd033;"/>
              <path d="M769.319,139.421h6.084s0-6.31,0-10.225c0-1.678-1.363-3.039-3.042-3.039-1.679,0-3.042,1.362-3.042,3.039,0,3.915,0,10.225,0,10.225Z" style="fill: #4d7c3d; fill-rule: evenodd; opacity: .5;"/>
              <path d="M781.487,139.87h6.084s0-13.881,0-20.176c0-1.678-1.36-3.036-3.039-3.036h-.006c-1.679,0-3.039,1.359-3.039,3.036,0,6.295,0,20.176,0,20.176Z" style="fill: #4d7c3d; fill-rule: evenodd; opacity: .5;"/>
              <path d="M749.039,119.755v-5.757s5.689,0,9.287,0c.764,0,1.497.304,2.038.845.538.538.843,1.27.843,2.033h0c0,.766-.304,1.495-.843,2.036-.542.541-1.275.842-2.038.842-3.599,0-9.287,0-9.287,0Z" style="fill: #839d24; fill-rule: evenodd; opacity: .75;"/>
              <path d="M749.039,107.92v-6.079s12.372,0,18.255,0c1.679,0,3.039,1.359,3.039,3.036v.006c0,1.678-1.36,3.036-3.039,3.036-5.883,0-18.255,0-18.255,0Z" style="fill: #839d24; fill-rule: evenodd; opacity: .75;"/>
            </g>
          </g>
          <g>
            <path d="M797.711,112.552c0,6.428,2.555,12.596,7.106,17.143,4.551,4.547,10.723,7.1,17.16,7.1,12.189,0,24.406,0,24.406,0,0,0,0-7.501,0-16.027,0-6.432-2.555-12.599-7.106-17.146-4.551-4.544-10.723-7.1-17.16-7.1h-24.406s0,7.501,0,16.03Z" style="fill: #abc02e; fill-rule: evenodd;"/>
            <g style="clip-path: url(#clippath-3);">
              <polygon points="797.711 96.522 852.027 142.946 797.711 142.946 797.711 96.522" style="fill: #839d24; fill-rule: evenodd;"/>
              <rect x="819.008" y="84.966" width="6.08" height="62.808" transform="translate(212.316 679.869) rotate(-50.801)" style="fill: #bdd033;"/>
              <path d="M826.104,139.421h-6.084s0-6.31,0-10.225c0-1.678,1.363-3.039,3.042-3.039,1.679,0,3.042,1.362,3.042,3.039,0,3.915,0,10.225,0,10.225Z" style="fill: #4d7c3d; fill-rule: evenodd; opacity: .5;"/>
              <path d="M813.935,139.87h-6.084s0-13.878,0-20.173c0-.805.319-1.577.891-2.149.569-.568,1.345-.891,2.151-.891.806,0,1.582.322,2.151.891.572.571.891,1.343.891,2.149,0,6.295,0,20.173,0,20.173Z" style="fill: #4d7c3d; fill-rule: evenodd; opacity: .5;"/>
              <path d="M846.384,120.077v-6.079s-5.524,0-9.129,0c-.806,0-1.579.319-2.148.891-.572.568-.891,1.34-.891,2.146v.006c0,.805.319,1.577.891,2.149.569.568,1.342.888,2.148.888,3.605,0,9.129,0,9.129,0Z" style="fill: #839d24; fill-rule: evenodd; opacity: .75;"/>
              <path d="M846.384,107.92v-6.079s-12.369,0-18.252,0c-.806,0-1.582.322-2.151.891-.572.571-.891,1.343-.891,2.149,0,.805.319,1.581.891,2.149.569.571,1.345.891,2.151.891,5.883,0,18.252,0,18.252,0Z" style="fill: #839d24; fill-rule: evenodd; opacity: .75;"/>
            </g>
          </g>
          <g>
            <path d="M797.698,136.795l14.578-10.615c8.052-5.863,8.962-17.524,1.917-24.563l-5.099-5.095h-22.79s-5.099,5.095-5.099,5.095c-7.045,7.039-6.135,18.7,1.917,24.563l14.578,10.615Z" style="fill: #bdd033; fill-rule: evenodd;"/>
            <g style="clip-path: url(#clippath-5);">
              <rect x="774.699" y="94.676" width="22.999" height="43.615" transform="translate(1572.3967 232.9679) rotate(-180)" style="fill: #839d24;"/>
              <rect x="794.668" y="92.131" width="6.084" height="53.015" style="fill: #d6e23d;"/>
              <g>
                <g style="opacity: .5;">
                  <path d="M819.281,118.728c.99,0,1.965-.483,2.547-1.371.923-1.405.531-3.289-.875-4.209l-12.366-8.105c-1.406-.926-3.292-.526-4.211.873-.923,1.405-.531,3.289.875,4.209l12.366,8.105c.515.338,1.093.499,1.664.499Z" style="fill: #839d24;"/>
                </g>
                <g style="opacity: .5;">
                  <path d="M776.142,118.728c.57,0,1.149-.16,1.664-.499l12.362-8.105c1.406-.92,1.798-2.804.875-4.209-.919-1.399-2.792-1.801-4.211-.873l-12.362,8.105c-1.406.92-1.798,2.804-.875,4.209.582.888,1.557,1.371,2.547,1.371Z" style="fill: #4d7c3d;"/>
                </g>
                <path d="M819.281,132.588c.99,0,1.965-.483,2.547-1.371.923-1.405.531-3.289-.875-4.209l-12.366-8.105c-1.406-.926-3.292-.526-4.211.873-.923,1.405-.531,3.289.875,4.209l12.366,8.105c.515.338,1.093.499,1.664.499Z" style="fill: #839d24; opacity: .5;"/>
                <g style="opacity: .5;">
                  <path d="M776.142,132.588c.57,0,1.149-.16,1.664-.499l12.362-8.105c1.406-.92,1.798-2.804.875-4.209-.919-1.399-2.792-1.801-4.211-.873l-12.362,8.105c-1.406.92-1.798,2.804-.875,4.209.582.888,1.557,1.371,2.547,1.371Z" style="fill: #4d7c3d;"/>
                </g>
              </g>
            </g>
          </g>
        </g>
      </g>
      <g>
        <g>
          <g>
            <path d="M534.657,89.8h12.473s3.38,30.845,3.38,30.845c.187,1.709-1.153,3.203-2.874,3.203h-13.548c-1.723,0-3.064-1.497-2.873-3.208l3.441-30.839Z" style="fill: #6b4c46;"/>
            <g style="clip-path: url(#clippath-6);">
              <path d="M540.853,112.097l10.197-7.425c5.632-4.101,6.269-12.258,1.341-17.181l-3.567-3.564h-15.941s-3.567,3.564-3.567,3.564c-4.928,4.924-4.291,13.081,1.341,17.181l10.197,7.425Z" style="fill: #594237; fill-rule: evenodd;"/>
            </g>
          </g>
          <g>
            <g>
              <path d="M540.863,88.679c0,4.41-1.753,8.641-4.875,11.761-3.122,3.12-7.357,4.871-11.773,4.871-8.363,0-16.745,0-16.745,0,0,0,0-5.147,0-10.996,0-4.412,1.753-8.644,4.875-11.763,3.122-3.118,7.357-4.871,11.773-4.871,8.363,0,16.745,0,16.745,0,0,0,0,5.147,0,10.998Z" style="fill: #abc02e; fill-rule: evenodd;"/>
              <g style="clip-path: url(#clippath-7);">
                <polygon points="540.863 77.681 503.598 109.532 540.863 109.532 540.863 77.681" style="fill: #839d24; fill-rule: evenodd;"/>
                <rect x="502.62" y="89.213" width="43.091" height="4.171" transform="translate(60.438 352.147) rotate(-39.239)" style="fill: #bdd033;"/>
                <path d="M521.383,107.113h4.174s0-4.329,0-7.015c0-1.151-.935-2.085-2.087-2.085-1.152,0-2.087.934-2.087,2.085,0,2.686,0,7.015,0,7.015Z" style="fill: #4d7c3d; fill-rule: evenodd; opacity: .5;"/>
                <path d="M529.732,107.422h4.174s0-9.524,0-13.842c0-1.151-.933-2.083-2.085-2.083h-.004c-1.152,0-2.085.932-2.085,2.083,0,4.319,0,13.842,0,13.842Z" style="fill: #4d7c3d; fill-rule: evenodd; opacity: .5;"/>
                <path d="M507.469,93.621v-3.95s3.903,0,6.372,0c.524,0,1.027.209,1.398.58.369.369.578.872.578,1.395h0c0,.525-.209,1.026-.578,1.397-.372.371-.874.578-1.398.578-2.469,0-6.372,0-6.372,0Z" style="fill: #839d24; fill-rule: evenodd; opacity: .75;"/>
                <path d="M507.469,85.501v-4.171s8.488,0,12.525,0c1.152,0,2.085.932,2.085,2.083v.004c0,1.151-.933,2.083-2.085,2.083-4.036,0-12.525,0-12.525,0Z" style="fill: #839d24; fill-rule: evenodd; opacity: .75;"/>
              </g>
            </g>
            <g>
              <path d="M540.863,88.679c0,4.41,1.753,8.641,4.875,11.761,3.122,3.12,7.357,4.871,11.773,4.871h16.745s0-5.147,0-10.996c0-4.412-1.753-8.644-4.875-11.763-3.122-3.118-7.357-4.871-11.773-4.871h-16.745s0,5.147,0,10.998Z" style="fill: #abc02e; fill-rule: evenodd;"/>
              <g style="clip-path: url(#clippath-8);">
                <polygon points="540.863 77.681 578.127 109.532 540.863 109.532 540.863 77.681" style="fill: #839d24; fill-rule: evenodd;"/>
                <rect x="555.473" y="69.753" width="4.171" height="43.091" transform="translate(134.419 465.678) rotate(-50.801)" style="fill: #bdd033;"/>
                <path d="M560.342,107.113h-4.174s0-4.329,0-7.015c0-1.151.935-2.085,2.087-2.085,1.152,0,2.087.934,2.087,2.085,0,2.686,0,7.015,0,7.015Z" style="fill: #4d7c3d; fill-rule: evenodd; opacity: .5;"/>
                <path d="M551.994,107.422h-4.174s0-9.522,0-13.84c0-.553.219-1.082.612-1.474.39-.39.922-.611,1.476-.611s1.085.221,1.476.611c.392.392.612.922.612,1.474,0,4.319,0,13.84,0,13.84Z" style="fill: #4d7c3d; fill-rule: evenodd; opacity: .5;"/>
                <path d="M574.256,93.842v-4.171s-3.79,0-6.263,0c-.553,0-1.083.219-1.473.611-.392.39-.612.92-.612,1.472v.004c0,.553.219,1.082.612,1.474.39.39.92.609,1.473.609,2.473,0,6.263,0,6.263,0Z" style="fill: #839d24; fill-rule: evenodd; opacity: .75;"/>
                <path d="M574.256,85.501v-4.171s-8.486,0-12.522,0c-.553,0-1.085.221-1.476.611-.392.392-.612.922-.612,1.474,0,.553.219,1.084.612,1.474.39.392.922.611,1.476.611h12.522Z" style="fill: #839d24; fill-rule: evenodd; opacity: .75;"/>
              </g>
            </g>
            <g>
              <path d="M540.853,105.311l10.001-7.282c5.524-4.022,6.149-12.023,1.315-16.852l-3.499-3.496h-15.636s-3.499,3.496-3.499,3.496c-4.833,4.829-4.209,12.83,1.315,16.852l10.001,7.282Z" style="fill: #bdd033; fill-rule: evenodd;"/>
              <g style="clip-path: url(#clippath-10);">
                <rect x="525.074" y="76.415" width="15.779" height="29.923" transform="translate(1065.9278 182.7534) rotate(-180)" style="fill: #839d24;"/>
                <rect x="538.774" y="74.669" width="4.174" height="36.372" style="fill: #d6e23d;"/>
                <g>
                  <g style="opacity: .5;">
                    <path d="M555.661,92.917c.679,0,1.348-.331,1.747-.941.633-.964.364-2.256-.601-2.888l-8.484-5.561c-.965-.635-2.258-.361-2.889.599-.633.964-.364,2.256.601,2.888l8.484,5.561c.353.232.75.342,1.141.342Z" style="fill: #839d24;"/>
                  </g>
                  <g style="opacity: .5;">
                    <path d="M526.065,92.917c.391,0,.788-.11,1.141-.342l8.481-5.561c.965-.631,1.234-1.924.601-2.888-.63-.96-1.916-1.235-2.889-.599l-8.481,5.561c-.965.631-1.234,1.924-.601,2.888.399.61,1.068.941,1.747.941Z" style="fill: #4d7c3d;"/>
                  </g>
                  <path d="M555.661,102.425c.679,0,1.348-.331,1.747-.941.633-.964.364-2.256-.601-2.888l-8.484-5.561c-.965-.635-2.258-.361-2.889.599-.633.964-.364,2.256.601,2.888l8.484,5.561c.353.232.75.342,1.141.342Z" style="fill: #839d24; opacity: .5;"/>
                  <g style="opacity: .5;">
                    <path d="M526.065,102.425c.391,0,.788-.11,1.141-.342l8.481-5.561c.965-.631,1.234-1.924.601-2.888-.63-.96-1.916-1.235-2.889-.599l-8.481,5.561c-.965.631-1.234,1.924-.601,2.888.399.61,1.068.941,1.747.941Z" style="fill: #4d7c3d;"/>
                  </g>
                </g>
              </g>
            </g>
          </g>
        </g>
        <line x1="523.907" y1="123.848" x2="557.819" y2="123.478" style="fill: #52ab35; stroke: #52ab35; stroke-dasharray: 0 10; stroke-linecap: round; stroke-linejoin: round; stroke-width: 10px;"/>
      </g>
      <g>
        <path d="M661.592,93.411l-4.199-5.403c-.234-.657-.482-1.455-.677-2.187-.233-.872-.426-1.75-.579-2.622-.302-1.741-.404-3.465-.236-4.985l.007-.065h0c.21-1.909-1.168-3.625-3.077-3.835-1.91-.21-3.628,1.167-3.838,3.075-.272,2.469-.087,4.781.287,6.986.193,1.102.432,2.182.716,3.246.297,1.088.589,2.059,1.032,3.235h0s.336.669.336.669c.114.225.284.426.506.58l6.596,4.593c.803.558,1.908.561,2.721-.07,1.001-.777,1.183-2.218.405-3.219Z" style="fill: #da781e;"/>
        <path d="M639.672,92.027h0c-.262-1.762-.841-3.183-1.474-4.511-.322-.66-.668-1.292-1.035-1.91-.383-.633-.719-1.179-1.224-1.863l-.104-.142c-.133-.178-.285-.346-.457-.501-1.434-1.298-3.649-1.188-4.948.244-1.299,1.433-1.189,3.646.245,4.944.307.278.728.737,1.072,1.131.357.412.698.835,1.011,1.261.56.761,1.017,1.546,1.293,2.212l-.436,3.125c-.132.951.366,1.917,1.286,2.334,1.12.508,2.44.012,2.948-1.107l1.765-3.887c.108-.24.157-.517.123-.797l-.065-.531Z" style="fill: #da781e;"/>
        <path d="M641.363,77.071l-6.875,3.083-2.987,1.339c-2.089.937-3.023,3.389-2.085,5.477l.387.861c.724,1.612,2.619,2.333,4.233,1.609h0c.55-.247,1.158-.333,1.755-.25l3.91.547c2.874.402,5.803-.014,8.45-1.201h0c5.761-2.583,8.335-9.343,5.75-15.099h0c-.41-.914-1.484-1.322-2.399-.912l-10.138,4.546Z" style="fill: #de8521;"/>
        <path d="M652.135,95.513l-4.155-6.024c-.015-.687-.007-1.431.025-2.119.045-1.005.143-1.995.295-2.935.156-.936.374-1.827.659-2.566.277-.739.646-1.292.887-1.51l.024-.022c.013-.012.026-.024.039-.036,1.397-1.317,1.462-3.517.143-4.914-1.319-1.396-3.52-1.46-4.918-.143-1.403,1.322-2.14,2.787-2.669,4.128-.517,1.355-.816,2.657-1.03,3.929-.207,1.271-.325,2.516-.381,3.748-.053,1.258-.063,2.399.015,3.762h0s.096.665.096.665c.079.543.351,1.059.807,1.437l6.811,5.658c.77.639,1.9.72,2.765.125,1.042-.718,1.304-2.143.586-3.184Z" style="fill: #e59f46;"/>
        <path d="M655.093,65.709h-.375c-5.025,0-9.099,4.07-9.099,9.091h0c0,1.75.167,3.496.499,5.214l.13.676c.166.86.92,1.482,1.797,1.482h13.72c.877,0,1.631-.622,1.797-1.482l.13-.676c.332-1.718.499-3.464.499-5.214h0c0-5.021-4.074-9.091-9.099-9.091Z" style="fill: #de8521;"/>
        <rect x="651.148" y="68.002" width="9.239" height="11.932" rx="4.617" ry="4.617" transform="translate(-.234 2.109)" style="fill: #e9b679;"/>
        <circle cx="657.957" cy="73.115" r="1.271" style="fill: #6b3b0a;"/>
        <circle cx="653.717" cy="73.16" r="1.271" style="fill: #6b3b0a;"/>
        <path d="M605.168,97.625c-5.748,0-11.063-1.394-11.385-1.48-.81-.216-1.29-1.048-1.075-1.857.218-.81,1.051-1.288,1.859-1.075.106.029,10.655,2.791,17.322.413,4.769-1.699,7.901-4.128,10.929-6.477,2.367-1.835,4.814-3.733,7.973-5.247.754-.364,1.663-.044,2.026.712.363.755.044,1.662-.713,2.024-2.866,1.374-5.08,3.091-7.423,4.909-3.217,2.495-6.544,5.076-11.771,6.939-2.378.847-5.106,1.14-7.741,1.14Z" style="fill: #de8521;"/>
        <path d="M636.414,87.722c-.038-.656-.075-1.236-.171-1.966l-.021-.166c-.032-.232-.087-.464-.168-.693-.644-1.824-2.646-2.781-4.471-2.137-1.825.644-2.783,2.644-2.139,4.468.138.39.286.938.408,1.414.124.493.238.989.325,1.47.172.885.252,1.78.242,2.373l-1.948,3.622c-.472.877-.307,1.995.464,2.694.908.823,2.313.755,3.137-.152l3.382-3.724c.137-.152.248-.34.312-.548l.122-.401h0c.254-.834.368-1.569.451-2.279.082-.71.105-1.372.117-2.034.01-.659-.009-1.3-.042-1.94Z" style="fill: #e59f46;"/>
      </g>
      <g>
        <g>
          <path d="M636.738,115.357h20.878s5.658,51.627,5.658,51.627c.314,2.861-1.929,5.361-4.81,5.361h-22.676c-2.885,0-5.128-2.506-4.809-5.37l5.759-51.618Z" style="fill: #6b4c46;"/>
          <g style="clip-path: url(#clippath-11);">
            <path d="M647.109,152.677l17.067-12.427c9.427-6.864,10.492-20.517,2.244-28.758l-5.97-5.965h-26.682s-5.97,5.965-5.97,5.965c-8.248,8.241-7.183,21.894,2.244,28.758l17.067,12.427Z" style="fill: #594237; fill-rule: evenodd;"/>
          </g>
        </g>
        <g>
          <g>
            <path d="M647.125,113.481c0,7.382-2.934,14.464-8.16,19.685-5.226,5.222-12.314,8.153-19.706,8.153-13.997,0-28.026,0-28.026,0,0,0,0-8.614,0-18.404,0-7.385,2.934-14.467,8.16-19.689,5.226-5.218,12.314-8.153,19.706-8.153,13.997,0,28.026,0,28.026,0,0,0,0,8.614,0,18.408Z" style="fill: #abc02e; fill-rule: evenodd;"/>
            <g style="clip-path: url(#clippath-12);">
              <polygon points="647.125 95.073 584.753 148.384 647.125 148.384 647.125 95.073" style="fill: #839d24; fill-rule: evenodd;"/>
              <rect x="583.117" y="114.375" width="72.125" height="6.982" transform="translate(65.057 418.238) rotate(-39.239)" style="fill: #bdd033;"/>
              <path d="M614.521,144.336h6.987s0-7.246,0-11.741c0-1.927-1.565-3.49-3.493-3.49s-3.493,1.564-3.493,3.49c0,4.496,0,11.741,0,11.741Z" style="fill: #4d7c3d; fill-rule: evenodd; opacity: .5;"/>
              <path d="M628.494,144.852h6.987s0-15.94,0-23.169c0-1.927-1.562-3.487-3.49-3.487h-.007c-1.928,0-3.49,1.56-3.49,3.487,0,7.228,0,23.169,0,23.169Z" style="fill: #4d7c3d; fill-rule: evenodd; opacity: .5;"/>
              <path d="M591.233,121.753v-6.611s6.532,0,10.665,0c.877,0,1.719.349,2.341.97.618.618.968,1.459.968,2.335h0c0,.88-.349,1.717-.968,2.339-.622.621-1.464.967-2.341.967-4.133,0-10.665,0-10.665,0Z" style="fill: #839d24; fill-rule: evenodd; opacity: .75;"/>
              <path d="M591.233,108.162v-6.981h20.963c1.928,0,3.49,1.56,3.49,3.487v.007c0,1.927-1.562,3.487-3.49,3.487-6.756,0-20.963,0-20.963,0Z" style="fill: #839d24; fill-rule: evenodd; opacity: .75;"/>
            </g>
          </g>
          <g>
            <path d="M647.125,113.481c0,7.382,2.934,14.464,8.16,19.685,5.226,5.222,12.314,8.153,19.706,8.153,13.997,0,28.026,0,28.026,0,0,0,0-8.614,0-18.404,0-7.385-2.934-14.467-8.16-19.689-5.226-5.218-12.314-8.153-19.706-8.153-13.997,0-28.026,0-28.026,0,0,0,0,8.614,0,18.408Z" style="fill: #abc02e; fill-rule: evenodd;"/>
            <g style="clip-path: url(#clippath-13);">
              <polygon points="647.125 95.073 709.497 148.384 647.125 148.384 647.125 95.073" style="fill: #839d24; fill-rule: evenodd;"/>
              <rect x="671.58" y="81.804" width="6.982" height="72.125" transform="translate(157.072 566.52) rotate(-50.801)" style="fill: #bdd033;"/>
              <path d="M679.729,144.336h-6.987s0-7.246,0-11.741c0-1.927,1.565-3.49,3.493-3.49,1.928,0,3.493,1.564,3.493,3.49,0,4.496,0,11.741,0,11.741Z" style="fill: #4d7c3d; fill-rule: evenodd; opacity: .5;"/>
              <path d="M665.756,144.852h-6.987s0-15.937,0-23.165c0-.925.367-1.811,1.024-2.468.653-.653,1.544-1.023,2.47-1.023.926,0,1.817.37,2.47,1.023.657.656,1.024,1.543,1.024,2.468,0,7.228,0,23.165,0,23.165Z" style="fill: #4d7c3d; fill-rule: evenodd; opacity: .5;"/>
              <path d="M703.017,122.123v-6.981s-6.344,0-10.483,0c-.926,0-1.813.366-2.466,1.023-.657.653-1.024,1.539-1.024,2.464v.007c0,.925.367,1.811,1.024,2.468.653.653,1.541,1.019,2.466,1.019,4.14,0,10.483,0,10.483,0Z" style="fill: #839d24; fill-rule: evenodd; opacity: .75;"/>
              <path d="M703.017,108.162v-6.981s-14.204,0-20.96,0c-.926,0-1.817.37-2.47,1.023-.657.656-1.024,1.543-1.024,2.468,0,.925.367,1.815,1.024,2.468.653.656,1.544,1.023,2.47,1.023,6.756,0,20.96,0,20.96,0Z" style="fill: #839d24; fill-rule: evenodd; opacity: .75;"/>
            </g>
          </g>
          <g>
            <path d="M647.109,141.32l16.74-12.189c9.246-6.733,10.291-20.124,2.201-28.207l-5.856-5.851h-26.171s-5.856,5.851-5.856,5.851c-8.09,8.083-7.045,21.474,2.201,28.207l16.74,12.189Z" style="fill: #bdd033; fill-rule: evenodd;"/>
            <g style="clip-path: url(#clippath-15);">
              <rect x="620.699" y="92.955" width="26.41" height="50.084" transform="translate(1267.8089 235.9934) rotate(-180)" style="fill: #839d24;"/>
              <rect x="643.63" y="90.032" width="6.987" height="60.878" style="fill: #d6e23d;"/>
              <g>
                <g style="opacity: .5;">
                  <path d="M671.894,120.574c1.137,0,2.256-.554,2.925-1.575,1.06-1.613.61-3.777-1.005-4.833l-14.2-9.307c-1.615-1.063-3.78-.604-4.835,1.002-1.06,1.613-.61,3.777,1.005,4.833l14.2,9.307c.591.389,1.255.573,1.91.573Z" style="fill: #839d24;"/>
                </g>
                <g style="opacity: .5;">
                  <path d="M622.357,120.574c.655,0,1.319-.184,1.91-.573l14.196-9.307c1.615-1.057,2.065-3.22,1.005-4.833-1.055-1.607-3.207-2.068-4.835-1.002l-14.196,9.307c-1.615,1.057-2.065,3.22-1.005,4.833.669,1.02,1.788,1.575,2.925,1.575Z" style="fill: #4d7c3d;"/>
                </g>
                <path d="M671.894,136.49c1.137,0,2.256-.554,2.925-1.575,1.06-1.613.61-3.777-1.005-4.833l-14.2-9.307c-1.615-1.063-3.78-.604-4.835,1.002-1.06,1.613-.61,3.777,1.005,4.833l14.2,9.307c.591.389,1.255.573,1.91.573Z" style="fill: #839d24; opacity: .5;"/>
                <g style="opacity: .5;">
                  <path d="M622.357,136.49c.655,0,1.319-.184,1.91-.573l14.196-9.307c1.615-1.057,2.065-3.22,1.005-4.833-1.055-1.607-3.207-2.068-4.835-1.002l-14.196,9.307c-1.615,1.057-2.065,3.22-1.005,4.833.669,1.02,1.788,1.575,2.925,1.575Z" style="fill: #4d7c3d;"/>
                </g>
              </g>
            </g>
          </g>
        </g>
      </g>
      <g>
        <g>
          <path d="M799.696,63.594l3.805-4.896c.212-.595.437-1.318.614-1.981.212-.79.386-1.586.525-2.376.274-1.578.366-3.139.214-4.517l-.006-.059h0c-.19-1.73,1.058-3.285,2.789-3.475,1.73-.19,3.287,1.057,3.478,2.786.246,2.237.079,4.332-.26,6.331-.175.999-.391,1.978-.649,2.942-.269.986-.534,1.865-.935,2.932h0s-.305.606-.305.606c-.104.204-.258.386-.458.526l-5.977,4.162c-.727.505-1.729.508-2.466-.064-.907-.704-1.072-2.01-.367-2.917Z" style="fill: #da781e;"/>
          <path d="M819.56,62.34h0c.238-1.597.762-2.884,1.336-4.088.292-.598.606-1.171.937-1.731.347-.574.652-1.068,1.109-1.688l.095-.129c.121-.161.259-.313.414-.454,1.299-1.176,3.307-1.077,4.484.222,1.177,1.298,1.078,3.304-.222,4.48-.278.252-.66.668-.971,1.025-.323.373-.633.757-.916,1.142-.508.689-.921,1.401-1.172,2.005l.395,2.831c.119.862-.332,1.737-1.165,2.115-1.015.46-2.211.011-2.672-1.003l-1.599-3.522c-.098-.218-.142-.468-.111-.722l.058-.481Z" style="fill: #da781e;"/>
          <path d="M818.027,48.787l6.23,2.793,2.707,1.214c1.893.849,2.739,3.071,1.89,4.963l-.35.78c-.656,1.461-2.373,2.114-3.836,1.458h0c-.498-.223-1.05-.302-1.591-.226l-3.543.496c-2.604.365-5.258-.013-7.657-1.088h0c-5.22-2.341-7.553-8.467-5.21-13.683h0c.372-.828,1.345-1.198,2.174-.826l9.187,4.119Z" style="fill: #de8521;"/>
          <path d="M808.266,65.499l3.765-5.458c.013-.622.006-1.297-.023-1.92-.041-.911-.129-1.808-.268-2.66-.141-.848-.339-1.655-.597-2.325-.251-.67-.586-1.17-.804-1.368l-.022-.02c-.012-.011-.023-.021-.035-.032-1.266-1.194-1.324-3.187-.13-4.452,1.195-1.265,3.19-1.323,4.456-.13,1.271,1.198,1.939,2.525,2.418,3.741.469,1.228.739,2.407.933,3.56.187,1.152.295,2.279.345,3.397.048,1.14.057,2.174-.013,3.409h0s-.087.603-.087.603c-.072.492-.318.96-.731,1.302l-6.172,5.127c-.698.579-1.722.652-2.505.113-.944-.65-1.182-1.942-.531-2.885Z" style="fill: #e59f46;"/>
          <path d="M805.586,38.491h.339c4.553,0,8.245,3.688,8.245,8.238h0c0,1.586-.151,3.168-.452,4.725l-.118.612c-.15.78-.833,1.343-1.628,1.343h-12.433c-.795,0-1.478-.563-1.628-1.343l-.118-.612c-.3-1.557-.452-3.139-.452-4.725h0c0-4.55,3.691-8.238,8.245-8.238Z" style="fill: #de8521;"/>
          <rect x="799.311" y="40.569" width="8.372" height="10.812" rx="4.184" ry="4.184" transform="translate(1606.8424 94.5342) rotate(-180)" style="fill: #e9b679;"/>
          <circle cx="800.868" cy="45.202" r="1.151" style="fill: #6b3b0a;"/>
          <circle cx="804.71" cy="45.244" r="1.151" style="fill: #6b3b0a;"/>
          <path d="M850.826,67.413c5.209,0,10.025-1.263,10.316-1.341.734-.196,1.169-.95.974-1.683-.197-.734-.952-1.167-1.684-.974-.096.026-9.655,2.529-15.696.374-4.322-1.54-7.159-3.741-9.903-5.869-2.145-1.663-4.362-3.383-7.225-4.755-.684-.329-1.507-.04-1.836.645-.329.684-.039,1.506.646,1.834,2.597,1.245,4.603,2.801,6.726,4.448,2.915,2.261,5.93,4.599,10.667,6.287,2.155.767,4.626,1.033,7.015,1.033Z" style="fill: #de8521;"/>
          <path d="M822.512,58.439c.035-.594.068-1.12.155-1.782l.019-.15c.029-.21.079-.42.153-.628.584-1.653,2.398-2.52,4.052-1.936,1.654.583,2.522,2.396,1.938,4.048-.125.353-.259.85-.37,1.282-.112.446-.215.896-.295,1.332-.156.802-.228,1.613-.219,2.15l1.766,3.282c.427.794.279,1.808-.42,2.441-.823.746-2.096.685-2.843-.138l-3.065-3.374c-.124-.138-.225-.308-.283-.497l-.111-.363h0c-.23-.756-.333-1.422-.409-2.065-.074-.644-.095-1.244-.106-1.843-.009-.598.008-1.178.038-1.758Z" style="fill: #e59f46;"/>
        </g>
        <line x1="832.008" y1="67.413" x2="790.734" y2="67.413" style="fill: #62c244; stroke: #62c244; stroke-dasharray: 0 10; stroke-linecap: round; stroke-linejoin: round; stroke-width: 10px;"/>
      </g>
      <g>
        <path d="M152.358,62.439c-1.779,0-3.476-.747-4.677-2.059-1.201-1.312-1.795-3.067-1.637-4.838,3.407-38.159,19.938-223.283,23.823-266.785.465-5.207,4.828-9.165,10.06-9.165h21.874c5.254,0,9.632,4.024,10.068,9.256l4.279,51.31h15.559c2.848,0,5.445,1.596,6.719,4.141,2.146,4.288,5.408,10.807,7.035,14.058.657,1.312,1.038,2.745,1.119,4.21.774,13.926,4.928,88.628,4.928,88.628,0,0,17.113,4.885,27.528,7.858,4.64,1.324,7.831,5.559,7.831,10.38V56.106c0,1.68-.668,3.291-1.857,4.478-1.189,1.188-2.801,1.855-4.482,1.855-13.722,0-117.739,0-128.171,0Z" style="fill: #787186; fill-rule: evenodd;"/>
        <path d="M242.698,24.379c0-5.575,4.523-10.094,10.103-10.094,5.58,0,10.103,4.519,10.103,10.094,0,23.178,0,38.061,0,38.061h-20.206s0-14.883,0-38.061Z" style="fill: #675e7e; fill-rule: evenodd;"/>
        <path d="M181.904-18.707c0-5.575,4.523-10.094,10.103-10.094,5.58,0,10.103,4.519,10.103,10.094,0,23.178,0,81.147,0,81.147h-20.206s0-57.969,0-81.147Z" style="fill: #675e7e; fill-rule: evenodd;"/>
        <g style="clip-path: url(#clippath-16);">
          <path d="M130.067-205.236v-43.743c0-5.068,4.112-9.177,9.184-9.177h1.685c5.072,0,9.184-4.109,9.184-9.177v-31.164c0-5.068,4.112-9.177,9.184-9.177h7.342c5.072,0,9.184-4.109,9.184-9.177v-19.766c0-5.068,4.112-9.177,9.184-9.177h23.025c5.072,0,9.184,4.109,9.184,9.177l-.002,101.381c0,4.918,3.989,8.905,8.912,8.905h.231c5.118,0,9.231-4.069,9.231-9.138,0-8.621,0-21.473-.001-30.093,0-5.068,4.112-9.137,9.184-9.137h23.025c5.072,0,9.184,4.109,9.184,9.177v22.383c0,5.068,4.112,9.177,9.184,9.177h4.656c5.072,0,9.184,4.109,9.184,9.177V6.189c0,5.068-4.112,9.177-9.184,9.177h-9.557c-5.072,0-9.184-4.109-9.184-9.177v-22.383c0-5.068-4.112-9.177-9.184-9.177h-23.844c-11.159,0-20.206-9.039-20.206-20.189v-46.071c0-5.068-4.112-9.177-9.184-9.177h-5.2c-5.072,0-9.184-4.109-9.184-9.177v-22.462c0-5.068-4.112-9.177-9.184-9.177h.249c-5.072,0-9.184,4.109-9.184,9.177v64.923c0,5.068-4.112,9.177-9.184,9.177h-3.432c-5.072,0-9.184,4.109-9.184,9.177l-2.698,31.164c0,5.068-4.112,9.177-9.184,9.177h-7.073c-5.072,0-9.184,4.109-9.184,9.177v43.743c0,5.068-4.112,9.177-9.184,9.177h-4.229c-5.072,0-9.184-4.109-9.184-9.177v-230.973c0-5.068,4.112-9.177,9.184-9.177h7.073c5.072,0,9.184-4.109,9.184-9.177Z" style="fill: #3d8850; fill-rule: evenodd;"/>
        </g>
        <line x1="138.868" y1="62.439" x2="300.676" y2="62.439" style="fill: #52ab35; stroke: #52ab35; stroke-dasharray: 0 10; stroke-linecap: round; stroke-linejoin: round; stroke-width: 10px;"/>
      </g>
      <line x1="631.066" y1="-2.698" x2="665.654" y2="-3.238" style="fill: #52ab35; stroke: #52ab35; stroke-dasharray: 0 10; stroke-linecap: round; stroke-linejoin: round; stroke-width: 10px;"/>
      <g>
        <path d="M133.893,115.604s-34.07-30.162-41.357-36.612h-2.719c-7.287,6.45-41.357,36.612-41.357,36.612v33.873c0,.796.317,1.559.879,2.121.565.565,1.329.881,2.126.881h79.423c.797,0,1.56-.316,2.126-.881.563-.562.88-1.325.88-2.121v-33.873Z" style="fill: #fbeb8c; fill-rule: evenodd;"/>
        <g style="clip-path: url(#clippath-17);">
          <rect x="45.947" y="114.82" width="90.459" height="7.532" style="fill: #f2d861;"/>
          <rect x="45.947" y="144.948" width="90.459" height="7.532" style="fill: #f2d861;"/>
          <rect x="45.947" y="99.757" width="90.459" height="7.532" style="fill: #f2d861;"/>
          <rect x="45.947" y="84.693" width="90.459" height="7.532" style="fill: #f2d861;"/>
          <rect x="45.947" y="129.884" width="90.459" height="7.532" style="fill: #f2d861;"/>
          <polyline points="44.691 121.971 91.177 83.438 138.122 122.352" style="fill: none; stroke: #cfb43a; stroke-linejoin: bevel; stroke-width: 7.535px;"/>
        </g>
        <rect x="83.638" y="132.395" width="15.076" height="20.085" style="fill: #434032;"/>
        <rect x="83.638" y="132.395" width="15.076" height="5.021" style="fill: #14130f;"/>
        <rect x="108.766" y="129.884" width="15.076" height="15.064" style="fill: #6dbaa1;"/>
        <rect x="58.511" y="129.884" width="15.076" height="15.064" style="fill: #6dbaa1;"/>
        <rect x="86.151" y="99.789" width="10.051" height="12.553" style="fill: #6dbaa1;"/>
        <rect x="86.151" y="109.764" width="10.051" height="2.546" style="fill: #fff;"/>
        <rect x="58.511" y="142.402" width="15.076" height="2.546" style="fill: #fff;"/>
        <rect x="108.766" y="142.402" width="15.076" height="2.546" style="fill: #fff;"/>
        <rect x="108.766" y="129.849" width="15.076" height="2.546" style="fill: #4e9980;"/>
        <rect x="58.511" y="129.849" width="15.076" height="2.546" style="fill: #4e9980;"/>
        <rect x="86.151" y="97.244" width="10.051" height="2.546" style="fill: #4e9980;"/>
        <line x1="45.256" y1="116.076" x2="91.177" y2="77.663" style="fill: none; stroke: #6a8c40; stroke-linecap: round; stroke-linejoin: round; stroke-width: 9.042px;"/>
        <line x1="45.256" y1="104.778" x2="91.177" y2="66.366" style="fill: none; stroke: #6a8c40; stroke-linecap: round; stroke-linejoin: round; stroke-width: 9.042px;"/>
        <line x1="45.256" y1="93.48" x2="91.177" y2="55.068" style="fill: none; stroke: #6a8c40; stroke-linecap: round; stroke-linejoin: round; stroke-width: 9.042px;"/>
        <line x1="137.097" y1="116.076" x2="91.177" y2="77.663" style="fill: none; stroke: #6a8c40; stroke-linecap: round; stroke-linejoin: round; stroke-width: 9.042px;"/>
        <line x1="137.097" y1="104.778" x2="91.177" y2="66.366" style="fill: none; stroke: #6a8c40; stroke-linecap: round; stroke-linejoin: round; stroke-width: 9.042px;"/>
        <line x1="137.097" y1="93.48" x2="91.177" y2="55.068" style="fill: none; stroke: #6a8c40; stroke-linecap: round; stroke-linejoin: round; stroke-width: 9.042px;"/>
        <rect x="87.345" y="48.289" width="7.664" height="40.672" rx="3.826" ry="3.826" style="fill: #507524;"/>
      </g>
      <g>
        <g>
          <path d="M188.359,107.227h18.181s4.927,44.959,4.927,44.959c.273,2.492-1.68,4.668-4.189,4.668h-19.747c-2.512,0-4.466-2.182-4.188-4.677l5.015-44.95Z" style="fill: #6b4c46;"/>
          <g style="clip-path: url(#clippath-18);">
            <path d="M197.391,139.725l14.862-10.822c8.209-5.977,9.137-17.867,1.954-25.043l-5.199-5.195h-23.236s-5.199,5.195-5.199,5.195c-7.183,7.177-6.255,19.066,1.954,25.043l14.862,10.822Z" style="fill: #594237; fill-rule: evenodd;"/>
          </g>
        </g>
        <g>
          <g>
            <path d="M197.405,105.593c0,6.428-2.555,12.596-7.106,17.143-4.551,4.547-10.723,7.1-17.16,7.1-12.189,0-24.406,0-24.406,0,0,0,0-7.501,0-16.027,0-6.432,2.555-12.599,7.106-17.146,4.551-4.544,10.723-7.1,17.16-7.1,12.189,0,24.406,0,24.406,0,0,0,0,7.501,0,16.03Z" style="fill: #abc02e; fill-rule: evenodd;"/>
            <g style="clip-path: url(#clippath-19);">
              <polygon points="197.405 89.562 143.089 135.987 197.405 135.987 197.405 89.562" style="fill: #839d24; fill-rule: evenodd;"/>
              <rect x="141.665" y="106.371" width="62.808" height="6.08" transform="translate(-30.184 134.145) rotate(-39.239)" style="fill: #bdd033;"/>
              <path d="M169.013,132.461h6.084s0-6.31,0-10.225c0-1.678-1.363-3.039-3.042-3.039-1.679,0-3.042,1.362-3.042,3.039,0,3.915,0,10.225,0,10.225Z" style="fill: #4d7c3d; fill-rule: evenodd; opacity: .5;"/>
              <path d="M181.181,132.911h6.084s0-13.881,0-20.176c0-1.678-1.36-3.036-3.039-3.036h-.006c-1.679,0-3.039,1.359-3.039,3.036,0,6.295,0,20.176,0,20.176Z" style="fill: #4d7c3d; fill-rule: evenodd; opacity: .5;"/>
              <path d="M148.732,112.796v-5.757s5.689,0,9.287,0c.764,0,1.497.304,2.038.845.538.538.843,1.27.843,2.033h0c0,.766-.304,1.495-.843,2.036-.542.541-1.275.842-2.038.842-3.599,0-9.287,0-9.287,0Z" style="fill: #839d24; fill-rule: evenodd; opacity: .75;"/>
              <path d="M148.732,100.96v-6.079s12.372,0,18.255,0c1.679,0,3.039,1.359,3.039,3.036v.006c0,1.678-1.36,3.036-3.039,3.036-5.883,0-18.255,0-18.255,0Z" style="fill: #839d24; fill-rule: evenodd; opacity: .75;"/>
            </g>
          </g>
          <g>
            <path d="M197.405,105.593c0,6.428,2.555,12.596,7.106,17.143,4.551,4.547,10.723,7.1,17.16,7.1,12.189,0,24.406,0,24.406,0,0,0,0-7.501,0-16.027,0-6.432-2.555-12.599-7.106-17.146-4.551-4.544-10.723-7.1-17.16-7.1-12.189,0-24.406,0-24.406,0,0,0,0,7.501,0,16.03Z" style="fill: #abc02e; fill-rule: evenodd;"/>
            <g style="clip-path: url(#clippath-20);">
              <polygon points="197.405 89.562 251.721 135.987 197.405 135.987 197.405 89.562" style="fill: #839d24; fill-rule: evenodd;"/>
              <rect x="218.701" y="78.007" width="6.08" height="62.808" transform="translate(-3.192 212.1) rotate(-50.801)" style="fill: #bdd033;"/>
              <path d="M225.797,132.461h-6.084s0-6.31,0-10.225c0-1.678,1.363-3.039,3.042-3.039,1.679,0,3.042,1.362,3.042,3.039,0,3.915,0,10.225,0,10.225Z" style="fill: #4d7c3d; fill-rule: evenodd; opacity: .5;"/>
              <path d="M213.629,132.911h-6.084s0-13.878,0-20.173c0-.805.319-1.577.891-2.149.569-.568,1.345-.891,2.151-.891s1.582.322,2.151.891c.572.571.891,1.343.891,2.149,0,6.295,0,20.173,0,20.173Z" style="fill: #4d7c3d; fill-rule: evenodd; opacity: .5;"/>
              <path d="M246.078,113.118v-6.079s-5.524,0-9.129,0c-.806,0-1.579.319-2.148.891-.572.568-.891,1.34-.891,2.146v.006c0,.805.319,1.577.891,2.149.569.568,1.342.888,2.148.888,3.605,0,9.129,0,9.129,0Z" style="fill: #839d24; fill-rule: evenodd; opacity: .75;"/>
              <path d="M246.078,100.96v-6.079s-12.369,0-18.252,0c-.806,0-1.582.322-2.151.891-.572.571-.891,1.343-.891,2.149,0,.805.319,1.581.891,2.149.569.571,1.345.891,2.151.891,5.883,0,18.252,0,18.252,0Z" style="fill: #839d24; fill-rule: evenodd; opacity: .75;"/>
            </g>
          </g>
          <g>
            <path d="M197.392,129.835l14.578-10.615c8.052-5.863,8.962-17.524,1.917-24.563l-5.099-5.095h-22.79s-5.099,5.095-5.099,5.095c-7.045,7.039-6.135,18.7,1.917,24.563l14.578,10.615Z" style="fill: #bdd033; fill-rule: evenodd;"/>
            <g style="clip-path: url(#clippath-22);">
              <rect x="174.393" y="87.717" width="22.999" height="43.615" transform="translate(371.784 219.05) rotate(-180)" style="fill: #839d24;"/>
              <rect x="194.362" y="85.172" width="6.084" height="53.015" style="fill: #d6e23d;"/>
              <g>
                <g style="opacity: .5;">
                  <path d="M218.975,111.769c.99,0,1.965-.483,2.547-1.371.923-1.405.531-3.289-.875-4.209l-12.366-8.105c-1.406-.926-3.292-.526-4.211.873-.923,1.405-.531,3.289.875,4.209l12.366,8.105c.515.338,1.093.499,1.664.499Z" style="fill: #839d24;"/>
                </g>
                <g style="opacity: .5;">
                  <path d="M175.836,111.769c.57,0,1.149-.16,1.664-.499l12.362-8.105c1.406-.92,1.798-2.804.875-4.209-.919-1.399-2.792-1.801-4.211-.873l-12.362,8.105c-1.406.92-1.798,2.804-.875,4.209.582.888,1.557,1.371,2.547,1.371Z" style="fill: #4d7c3d;"/>
                </g>
                <path d="M218.975,125.629c.99,0,1.965-.483,2.547-1.371.923-1.405.531-3.289-.875-4.209l-12.366-8.105c-1.406-.926-3.292-.526-4.211.873-.923,1.405-.531,3.289.875,4.209l12.366,8.105c.515.338,1.093.499,1.664.499Z" style="fill: #839d24; opacity: .5;"/>
                <g style="opacity: .5;">
                  <path d="M175.836,125.629c.57,0,1.149-.16,1.664-.499l12.362-8.105c1.406-.92,1.798-2.804.875-4.209-.919-1.399-2.792-1.801-4.211-.873l-12.362,8.105c-1.406.92-1.798,2.804-.875,4.209.582.888,1.557,1.371,2.547,1.371Z" style="fill: #4d7c3d;"/>
                </g>
              </g>
            </g>
          </g>
        </g>
      </g>
      <g>
        <g>
          <path d="M257.091,142.901h18.181s4.927,44.959,4.927,44.959c.273,2.492-1.68,4.668-4.189,4.668h-19.747c-2.512,0-4.466-2.182-4.188-4.677l5.015-44.95Z" style="fill: #6b4c46;"/>
          <g style="clip-path: url(#clippath-23);">
            <path d="M266.123,175.4l14.862-10.822c8.209-5.977,9.137-17.867,1.954-25.043l-5.199-5.195h-23.236s-5.199,5.195-5.199,5.195c-7.183,7.177-6.255,19.066,1.954,25.043l14.862,10.822Z" style="fill: #594237; fill-rule: evenodd;"/>
          </g>
        </g>
        <g>
          <g>
            <path d="M266.136,141.267c0,6.428-2.555,12.596-7.106,17.143-4.551,4.547-10.723,7.1-17.16,7.1-12.189,0-24.406,0-24.406,0,0,0,0-7.501,0-16.027,0-6.432,2.555-12.599,7.106-17.146,4.551-4.544,10.723-7.1,17.16-7.1,12.189,0,24.406,0,24.406,0,0,0,0,7.501,0,16.03Z" style="fill: #abc02e; fill-rule: evenodd;"/>
            <g style="clip-path: url(#clippath-24);">
              <polygon points="266.136 125.236 211.821 171.661 266.136 171.661 266.136 125.236" style="fill: #839d24; fill-rule: evenodd;"/>
              <rect x="210.396" y="142.045" width="62.808" height="6.08" transform="translate(-37.252 185.664) rotate(-39.239)" style="fill: #bdd033;"/>
              <path d="M217.464,148.47v-5.757s5.689,0,9.287,0c.764,0,1.497.304,2.038.845.538.538.843,1.27.843,2.033h0c0,.766-.304,1.495-.843,2.036-.542.541-1.275.842-2.038.842-3.599,0-9.287,0-9.287,0Z" style="fill: #839d24; fill-rule: evenodd; opacity: .75;"/>
              <path d="M217.464,136.634v-6.079s12.372,0,18.255,0c1.679,0,3.039,1.359,3.039,3.036v.006c0,1.678-1.36,3.036-3.039,3.036-5.883,0-18.255,0-18.255,0Z" style="fill: #839d24; fill-rule: evenodd; opacity: .75;"/>
            </g>
          </g>
          <g>
            <path d="M266.136,141.267c0,6.428,2.555,12.596,7.106,17.143,4.551,4.547,10.723,7.1,17.16,7.1,12.189,0,24.406,0,24.406,0,0,0,0-7.501,0-16.027,0-6.432-2.555-12.599-7.106-17.146-4.551-4.544-10.723-7.1-17.16-7.1-12.189,0-24.406,0-24.406,0,0,0,0,7.501,0,16.03Z" style="fill: #abc02e; fill-rule: evenodd;"/>
            <g style="clip-path: url(#clippath-25);">
              <polygon points="266.136 125.236 320.452 171.661 266.136 171.661 266.136 125.236" style="fill: #839d24; fill-rule: evenodd;"/>
              <rect x="287.433" y="113.681" width="6.08" height="62.808" transform="translate(-5.546 278.491) rotate(-50.801)" style="fill: #bdd033;"/>
              <path d="M314.809,148.792v-6.079s-5.524,0-9.129,0c-.806,0-1.579.319-2.148.891-.572.568-.891,1.34-.891,2.146v.006c0,.805.319,1.577.891,2.149.569.568,1.342.888,2.148.888,3.605,0,9.129,0,9.129,0Z" style="fill: #839d24; fill-rule: evenodd; opacity: .75;"/>
              <path d="M314.809,136.634v-6.079s-12.369,0-18.252,0c-.806,0-1.582.322-2.151.891-.572.571-.891,1.343-.891,2.149,0,.805.319,1.581.891,2.149.569.571,1.345.891,2.151.891,5.883,0,18.252,0,18.252,0Z" style="fill: #839d24; fill-rule: evenodd; opacity: .75;"/>
            </g>
          </g>
          <g>
            <path d="M266.123,165.509l14.578-10.615c8.052-5.863,8.962-17.524,1.917-24.563l-5.099-5.095h-22.79s-5.099,5.095-5.099,5.095c-7.045,7.039-6.135,18.7,1.917,24.563l14.578,10.615Z" style="fill: #bdd033; fill-rule: evenodd;"/>
            <g style="clip-path: url(#clippath-27);">
              <rect x="243.124" y="123.391" width="22.999" height="43.615" transform="translate(509.247 290.398) rotate(-180)" style="fill: #839d24;"/>
              <rect x="263.093" y="120.846" width="6.084" height="53.015" style="fill: #d6e23d;"/>
              <g>
                <g style="opacity: .5;">
                  <path d="M287.706,147.443c.99,0,1.965-.483,2.547-1.371.923-1.405.531-3.289-.875-4.209l-12.366-8.105c-1.406-.926-3.292-.526-4.211.873-.923,1.405-.531,3.289.875,4.209l12.366,8.105c.515.338,1.093.499,1.664.499Z" style="fill: #839d24;"/>
                </g>
                <g style="opacity: .5;">
                  <path d="M244.567,147.443c.57,0,1.149-.16,1.664-.499l12.362-8.105c1.406-.92,1.798-2.804.875-4.209-.919-1.399-2.792-1.801-4.211-.873l-12.362,8.105c-1.406.92-1.798,2.804-.875,4.209.582.888,1.557,1.371,2.547,1.371Z" style="fill: #4d7c3d;"/>
                </g>
              </g>
            </g>
          </g>
        </g>
      </g>
      <g>
        <path d="M186.207,87.925h0c.509,0,.923.414.923.923v5.901c0,.51-.414.924-.924.924h0c-.51,0-.924-.414-.924-.924v-5.9c0-.51.414-.924.924-.924Z" transform="translate(-21.397 92.694) rotate(-26.49)" style="fill: #efe44c;"/>
        <path d="M187.066,87.067h0c.509,0,.923.414.923.923v5.901c0,.51-.414.925-.925.925h0c-.51,0-.923-.414-.923-.923v-5.901c0-.51.414-.924.924-.924Z" transform="translate(-20.403 105.792) rotate(-30.021)" style="fill: #e9b63e;"/>
        <path d="M187.74,86.393h0c.51,0,.923.414.923.923v5.902c0,.51-.414.925-.925.925h0c-.51,0-.923-.414-.923-.923v-5.902c0-.51.414-.925.925-.925Z" transform="translate(-8.812 159.274) rotate(-45.024)" style="fill: #efe44c;"/>
        <path d="M188.643,85.795h0c.509,0,.923.414.923.923v5.904c0,.51-.414.925-.925.925h0c-.509,0-.923-.414-.923-.923v-5.904c0-.51.414-.925.925-.925Z" transform="translate(9.587 197.215) rotate(-56.414)" style="fill: #e9b63e;"/>
        <path d="M183.273,91.144h-3.638c-.375,0-.678-.303-.678-.677s.303-.677.678-.677h3.638c.375,0,.678.303.678.677s-.303.677-.678.677Z" style="fill: #adadad;"/>
        <path d="M181.679,91.144c-.375,0-.678-.303-.678-.677v-1.593c0-.374.303-.677.678-.677s.678.303.678.677v1.593c0,.374-.303.677-.678.677Z" style="fill: #adadad;"/>
        <path d="M181.752,89.323h0c-.552,0-.999-.447-.999-.998l-.67-3.636,3.192.55-.524,3.086c0,.551-.447.998-.999.998Z" style="fill: #367d8f;"/>
        <path d="M181.882,91.144h-3.638c-.375,0-.678-.303-.678-.677s.303-.677.678-.677h3.638c.375,0,.678.303.678.677s-.303.677-.678.677Z" style="fill: #bfcad0;"/>
        <path d="M180.288,91.144c-.375,0-.678-.303-.678-.677v-1.593c0-.374.303-.677.678-.677s.678.303.678.677v1.593c0,.374-.303.677-.678.677Z" style="fill: #bfcad0;"/>
        <path d="M180.361,89.323h0c-.552,0-.999-.447-.999-.998l-.67-3.636,3.192.55-.524,3.086c0,.551-.447.998-.999.998Z" style="fill: #50afcb;"/>
        <path d="M187.409,88.566l-5.204-9.685c-.276-.46-.934-1.215-1.268-1.581-.631-.692-2.662-2.721-4.806-3.53-1.244-.469-2.706-.003-3.557.816-.587.565-1.061,1.584-.833,2.5.229.92,1.755,1.644,2.671,1.892l.032.009c.679.183,1.153.807,1.108,1.502-.084,1.285.62,2.449,1.746,3.318,2.19,1.69,7.987,6.558,7.987,6.558.552.469,1.37.444,1.893-.058.474-.456.57-1.178.232-1.742Z" style="fill: #4190b4;"/>
        <path d="M187.824,87.883l-5.021-1.807c-2.734-.984-4.896-3.12-5.911-5.841h0c-.841-2.253,1.604-4.321,3.689-3.12l2.718,1.565c2.046,1.178,3.602,3.048,4.387,5.273l1.063,3.012c.202.574-.353,1.125-.926.918Z" style="fill: #c32944;"/>
        <g>
          <circle cx="174.034" cy="76.429" r="2.352" style="fill: #fff;"/>
          <path d="M173.743,77.83l.26.26c.468.467,1.226.467,1.694,0h0s-1.168,1.167-1.168,1.167c-.611.611-1.603.611-2.214,0l1.428-1.427Z" style="fill: #6e7f94;"/>
          <path d="M172.371,76.46c-.468-.467-.468-1.225,0-1.692h0c-.141.141.024-.024-.552.551-1.172,1.171-1.221,3.041-.145,4.27.076.087.213.087.296.005l1.769-1.767-1.367-1.366Z" style="fill: #989ebc;"/>
          <g>
            <circle cx="173.516" cy="75.667" r=".717" style="fill: #989ebc;"/>
            <circle cx="173.516" cy="75.667" r=".444" style="fill: #2b2220;"/>
          </g>
        </g>
        <g style="clip-path: url(#clippath-28);">
          <path d="M170.935,78.359l-1.089.076c-.895.063-1.67-.611-1.733-1.505l-.076-1.088c-.063-.894.612-1.669,1.506-1.731l4.235-.296s-1.485.86-1.4,1.909l.063.904c.063.894-.612,1.669-1.506,1.731Z" style="fill: #efe44c;"/>
        </g>
      </g>
    </g>
  </g>
</svg>