<?xml version="1.0" encoding="UTF-8"?>
<svg xmlns="http://www.w3.org/2000/svg" width="1500" height="145" xmlns:xlink="http://www.w3.org/1999/xlink" version="1.1" viewBox="0 0 1500 145">
  <!-- Generator: Adobe Illustrator 30.5.1, SVG Export Plug-In . SVG Version: 2.1.4 Build 3)  -->
  <defs>
    <clipPath id="clippath">
      <rect width="1500" height="145" style="fill: none;"/>
    </clipPath>
    <clipPath id="clippath-1">
      <polygon points="644.605 182.409 509.33 182.409 509.33 100.352 576.968 71.781 644.605 100.352 644.605 182.409" style="fill: none;"/>
    </clipPath>
    <clipPath id="clippath-2">
      <polygon points="644.605 182.409 509.33 182.409 509.415 100.352 576.968 71.781 644.605 100.352 644.605 182.409" style="fill: none;"/>
    </clipPath>
    <clipPath id="clippath-3">
      <polygon points="591.031 182.409 562.844 182.409 562.843 142.329 591.092 142.329 591.031 182.409" style="fill: none;"/>
    </clipPath>
    <clipPath id="clippath-4">
      <polygon points="552.628 162.212 524.441 162.212 524.44 142.242 552.689 142.242 552.628 162.212" style="fill: none;"/>
    </clipPath>
    <clipPath id="clippath-5">
      <polygon points="629.434 162.212 601.247 162.212 601.246 142.242 629.495 142.242 629.434 162.212" style="fill: none;"/>
    </clipPath>
    <clipPath id="clippath-6">
      <polygon points="597.385 126.582 556.463 126.582 556.462 106.612 597.473 106.612 597.385 126.582" style="fill: none;"/>
    </clipPath>
    <clipPath id="clippath-7">
      <path d="M1331.76,116.66c-.582,1.568-.371,3.951,1.73,3.951h0l2.982-8.017h0c-.727-.299-1.544-.29-2.265.025-.72.315-1.282.909-1.555,1.646-.289.776-.602,1.618-.891,2.394Z" style="fill: none;"/>
    </clipPath>
    <clipPath id="clippath-8">
      <path d="M1310.87,74.253c0-3.648,2.935-6.609,6.551-6.609h14.327c3.616,0,6.552,2.961,6.552,6.609v11.164c0,3.648-2.936,6.609-6.552,6.609h-14.327c-3.616,0-6.551-2.961-6.551-6.609v-11.164Z" style="fill: none;"/>
    </clipPath>
  </defs>
  <g style="isolation: isolate;">
    <g id="Details">
      <g style="clip-path: url(#clippath);">
        <rect x="-10.125" y="-406.796" width="1520.249" height="1054.04" style="fill: #04d5d8;"/>
        <g>
          <path d="M982.99,57.295l-12.932-2.701.776-3.716c.697.088,1.36-.356,1.506-1.056s-.283-1.373-.957-1.571l.026-.123c.154-.736-.319-1.459-1.056-1.613s-1.459.319-1.613,1.056l-.3,1.437-3.695-.772.3-1.437c.154-.736-.319-1.459-1.056-1.613s-1.459.319-1.613,1.056l-.026.123c-.697-.088-1.36.356-1.506,1.056s.283,1.372.957,1.571l-.776,3.716-12.932-2.701c-1.976,9.463,3.957,18.723,13.297,20.96l-1.913,9.161c-.059.283.123.561.406.62s.561-.123.62-.406l1.913-9.161c9.454,1.689,18.598-4.422,20.574-13.886Z" style="fill: #3ebaba; fill-rule: evenodd;"/>
          <path d="M1012.076,71.002l-13.025,2.211-.635-3.742c.681-.173,1.136-.829,1.016-1.534s-.765-1.174-1.465-1.112l-.021-.124c-.126-.742-.83-1.242-1.572-1.116s-1.242.83-1.116,1.572l.246,1.447-3.722.632-.246-1.447c-.126-.742-.83-1.242-1.572-1.116s-1.242.83-1.116,1.572l.021.124c-.681.173-1.136.828-1.016,1.533s.765,1.174,1.465,1.112l.635,3.742-13.025,2.211c1.618,9.531,10.524,15.983,20.035,14.652l1.566,9.226c.048.285.319.478.605.429s.478-.319.429-.605l-1.566-9.226c9.417-1.882,15.696-10.912,14.078-20.443Z" style="fill: #3ebaba; fill-rule: evenodd;"/>
          <path d="M974.333,90.316l-6.901-.872.25-1.983c.37.017.699-.244.746-.618s-.206-.708-.569-.784l.008-.066c.05-.393-.229-.752-.622-.802s-.752.229-.802.622l-.097.767-1.972-.249.097-.767c.05-.393-.229-.752-.622-.802s-.752.229-.802.622l-.008.066c-.37-.017-.699.244-.746.618s.206.708.569.784l-.25,1.983-6.901-.872c-.638,5.049,2.867,9.658,7.862,10.438l-.617,4.888c-.019.151.088.289.239.308s.289-.088.308-.239l.617-4.888c5.033.487,9.573-3.106,10.211-8.155Z" style="fill: #3ebaba; fill-rule: evenodd;"/>
        </g>
        <path d="M1209.742,286.418c-76.136,0-138.076,61.941-138.076,138.077,0,9.374-7.626,17-17,17h-106.263c-9.374,0-17-7.626-17-17v-2.009c0-36.943-30.057-67-67-67h-75.775c-41.992,0-76.156-34.163-76.156-76.156v-85.988c0-34.188-27.813-62-62-62h-144.932c-34.187,0-62,27.812-62,62v1.583c0,6.616-5.383,12-12,12h-77.199c-41.355,0-75,33.645-75,75v1.615c0,6.616-5.383,12-12,12H-56.875v1900.227h125.29c19.299,0,35,15.701,35,35v28.562c0,46.869,38.131,85,85,85h282.678c46.869,0,85-38.131,85-85v-4.012c0-19.299,15.701-35,35-35h100.898c106.145,0,192.5-86.354,192.5-192.5,0-13.785,11.215-25,25-25h189.302c13.785,0,25,11.215,25,25v6.941c0,13.785-11.215,25-25,25h-1.646c-41.355,0-75,33.646-75,75.001v134.569c0,41.355,33.645,75,75,75h68.108c41.355,0,75-33.645,75-75,0-34.095,27.737-61.833,61.832-61.833h254.837V286.418h-347.181Z" style="fill: #7ee6e4;"/>
        <g>
          <polygon points="644.605 182.409 509.33 182.409 509.415 102.949 576.968 74.379 644.605 102.949 644.605 182.409" style="fill: #fff;"/>
          <g style="clip-path: url(#clippath-1);">
            <g style="opacity: .55;">
              <line x1="511.099" y1="182.409" x2="511.05" y2="71.246" style="fill: none; stroke: #f9ea9b; stroke-linecap: round; stroke-miterlimit: 10; stroke-width: 5.197px;"/>
              <line x1="525.737" y1="182.409" x2="525.707" y2="71.246" style="fill: none; stroke: #f9ea9b; stroke-linecap: round; stroke-miterlimit: 10; stroke-width: 5.197px;"/>
              <line x1="540.374" y1="182.409" x2="540.364" y2="71.246" style="fill: none; stroke: #f9ea9b; stroke-linecap: round; stroke-miterlimit: 10; stroke-width: 5.197px;"/>
              <line x1="555.011" y1="182.409" x2="555.022" y2="71.246" style="fill: none; stroke: #f9ea9b; stroke-linecap: round; stroke-miterlimit: 10; stroke-width: 5.197px;"/>
              <line x1="569.649" y1="182.409" x2="569.679" y2="71.246" style="fill: none; stroke: #f9ea9b; stroke-linecap: round; stroke-miterlimit: 10; stroke-width: 5.197px;"/>
              <line x1="584.286" y1="182.409" x2="584.336" y2="71.246" style="fill: none; stroke: #f9ea9b; stroke-linecap: round; stroke-miterlimit: 10; stroke-width: 5.197px;"/>
              <line x1="598.924" y1="182.409" x2="598.994" y2="71.246" style="fill: none; stroke: #f9ea9b; stroke-linecap: round; stroke-miterlimit: 10; stroke-width: 5.197px;"/>
              <line x1="613.561" y1="182.409" x2="613.651" y2="71.246" style="fill: none; stroke: #f9ea9b; stroke-linecap: round; stroke-miterlimit: 10; stroke-width: 5.197px;"/>
              <line x1="628.198" y1="182.409" x2="628.309" y2="71.246" style="fill: none; stroke: #f9ea9b; stroke-linecap: round; stroke-miterlimit: 10; stroke-width: 5.197px;"/>
              <line x1="642.836" y1="182.409" x2="642.966" y2="71.246" style="fill: none; stroke: #f9ea9b; stroke-linecap: round; stroke-miterlimit: 10; stroke-width: 5.197px;"/>
            </g>
          </g>
          <g style="clip-path: url(#clippath-2);">
            <path d="M647.928,111.319c-.595-1.54-1.887-2.705-3.481-3.139l-67.479-27.371-67.479,27.371c-1.594.435-2.886,1.6-3.481,3.139l-2.994,7.742,73.954-27.935,73.954,27.935-2.994-7.742Z" style="fill: #f4eac5; mix-blend-mode: multiply;"/>
          </g>
          <g>
            <path d="M509.488,99.152l67.479-27.371v12.914l-70.96,27.935v-8.582c0-2.188,1.326-4.288,3.433-4.884.016-.004.032-.009.048-.013Z" style="fill: #f8d748;"/>
            <path d="M644.447,99.152l-67.479-27.371v12.914s70.96,27.935,70.96,27.935v-8.582c0-2.188-1.326-4.288-3.433-4.884-.016-.004-.032-.009-.048-.013Z" style="fill: #f8d748;"/>
          </g>
          <g>
            <path d="M509.488,98.636l67.479-27.371v5.94l-70.96,27.935v-3.564c0-1.167.778-2.19,1.903-2.502l1.578-.438Z" style="fill: #fff;"/>
            <path d="M644.447,98.636l-67.479-27.371v5.94s70.96,27.935,70.96,27.935v-3.564c0-1.167-.778-2.19-1.903-2.502l-1.578-.438Z" style="fill: #fff;"/>
          </g>
          <g>
            <polygon points="591.031 182.409 562.844 182.409 562.843 142.329 591.092 142.329 591.031 182.409" style="fill: #f8d748;"/>
            <g style="clip-path: url(#clippath-3);">
              <polygon points="593.572 149.254 560.303 149.254 559.546 140.436 594.403 140.436 593.572 149.254" style="fill: #f1a83b;"/>
            </g>
          </g>
          <g>
            <g>
              <polygon points="552.628 162.212 524.441 162.212 524.44 142.242 552.689 142.242 552.628 162.212" style="fill: #f8d748;"/>
              <g style="clip-path: url(#clippath-4);">
                <polygon points="555.169 149.167 521.9 149.167 521.143 137.752 556 137.752 555.169 149.167" style="fill: #f3b840;"/>
              </g>
            </g>
            <g>
              <polygon points="629.434 162.212 601.247 162.212 601.246 142.242 629.495 142.242 629.434 162.212" style="fill: #f8d748;"/>
              <g style="clip-path: url(#clippath-5);">
                <polygon points="631.976 149.167 598.706 149.167 597.95 137.752 632.806 137.752 631.976 149.167" style="fill: #f3b840;"/>
              </g>
            </g>
          </g>
          <g>
            <g>
              <g>
                <polygon points="597.385 126.582 556.463 126.582 556.462 106.612 597.473 106.612 597.385 126.582" style="fill: #f8d748;"/>
                <g style="clip-path: url(#clippath-6);">
                  <polygon points="601.074 113.537 552.774 113.537 551.676 102.122 602.279 102.122 601.074 113.537" style="fill: #f3b840;"/>
                </g>
              </g>
              <g>
                <rect x="559.889" y="110.508" width="8.94" height="15.289" style="fill: #fff;"/>
                <rect x="572.498" y="110.508" width="8.94" height="15.289" style="fill: #fff;"/>
                <rect x="585.106" y="110.508" width="8.94" height="15.289" style="fill: #fff;"/>
                <rect x="559.889" y="120.427" width="8.94" height="4.832" style="fill: #61d2c0;"/>
                <rect x="572.498" y="120.427" width="8.94" height="4.832" style="fill: #61d2c0;"/>
                <rect x="585.106" y="120.427" width="8.94" height="4.832" style="fill: #61d2c0;"/>
              </g>
            </g>
            <g>
              <rect x="555.781" y="126.582" width="42.373" height="8.487" style="fill: none; stroke: #f3b840; stroke-miterlimit: 10; stroke-width: 2.721px;"/>
              <g>
                <line x1="562.843" y1="126.582" x2="562.843" y2="135.069" style="fill: none; stroke: #f3b840; stroke-miterlimit: 10; stroke-width: 2.721px;"/>
                <line x1="569.905" y1="126.582" x2="569.905" y2="135.069" style="fill: none; stroke: #f3b840; stroke-miterlimit: 10; stroke-width: 2.721px;"/>
                <line x1="576.968" y1="126.582" x2="576.968" y2="135.069" style="fill: none; stroke: #f3b840; stroke-miterlimit: 10; stroke-width: 2.721px;"/>
                <line x1="584.03" y1="126.582" x2="584.03" y2="135.069" style="fill: none; stroke: #f3b840; stroke-miterlimit: 10; stroke-width: 2.721px;"/>
                <line x1="591.092" y1="126.582" x2="591.092" y2="135.069" style="fill: none; stroke: #f3b840; stroke-miterlimit: 10; stroke-width: 2.721px;"/>
              </g>
            </g>
          </g>
        </g>
        <g>
          <path d="M-60.02-1271.454v67.986l-64.171-2.883-1.792,39.963c-.108,2.404-10.846,243.188-16.497,484.383-3.348,142.921-4.31,258.88-2.859,344.657.903,53.395,2.697,94.684,5.484,126.229,3.991,45.167,10.164,88.418,41.434,121.123,21.827,22.829,51.065,35.402,82.328,35.402H114.056c48.191,0,93.12-14.221,130.819-38.683,29.514-19.15,61.956-33.454,96.319-41.001,257.482-56.55,368.43,231.382,700.989,241.357,4.51.32,9.061.489,13.651.489h574.186v-1379.022H-60.02Z" style="fill: #4eeae6;"/>
          <path d="M1055.834,67.569c-83.307,0-151.081-67.774-151.081-151.081,0-6.11-4.972-11.081-11.082-11.081h-203.53c-110.838,0-201.011-90.173-201.011-201.012v-52.965c0-33.084-26.916-60-60-60h-54.062c-33.084,0-60,26.916-60,60v52.965c0,110.839-90.173,201.012-201.011,201.012H-16.093c-20.238,0-39.208-8.185-53.416-23.045-20.311-21.243-26.389-50.48-30.5-97.002-2.703-30.587-4.448-70.946-5.335-123.384-1.441-85.238-.481-200.654,2.854-343.044,5.659-241.585,16.36-481.136,16.467-483.527l66.003,2.965v-69.823h1610.04V67.569h-534.186Z" style="fill: #ffed8b;"/>
        </g>
        <g style="opacity: .3;">
          <ellipse cx="971.507" cy="1.212" rx="1.97" ry="1.966" transform="translate(122.884 474.146) rotate(-29.202)" style="fill: #f2b052; opacity: .6;"/>
        </g>
        <g style="opacity: .3;">
          <ellipse cx="1416.69" cy="33.19" rx="1.97" ry="1.966" transform="translate(994.0264 1385.7681) rotate(-73.9887)" style="fill: #f2b052; opacity: .6;"/>
          <ellipse cx="1423.878" cy="36.015" rx="1.97" ry="1.966" transform="translate(996.5161 1394.7225) rotate(-73.9887)" style="fill: #f2b052; opacity: .6;"/>
          <ellipse cx="1419.6" cy="40.598" rx="1.97" ry="1.966" transform="translate(989.0122 1393.9297) rotate(-73.9887)" style="fill: #f2b052; opacity: .6;"/>
          <ellipse cx="1436.907" cy="45.442" rx="1.97" ry="1.966" transform="translate(996.8893 1414.073) rotate(-73.9887)" style="fill: #f2b052; opacity: .6;"/>
          <ellipse cx="1437.949" cy="32.184" rx="1.97" ry="1.966" transform="translate(1010.3879 1405.4744) rotate(-73.9887)" style="fill: #f2b052; opacity: .6;"/>
        </g>
        <g style="opacity: .3;">
          <ellipse cx="1127.322" cy="33.19" rx="1.97" ry="1.966" transform="translate(784.4734 1107.6248) rotate(-73.9887)" style="fill: #f2b052; opacity: .6;"/>
          <ellipse cx="1134.509" cy="36.015" rx="1.97" ry="1.966" transform="translate(786.9632 1116.5792) rotate(-73.9887)" style="fill: #f2b052; opacity: .6;"/>
          <ellipse cx="1130.231" cy="40.598" rx="1.97" ry="1.966" transform="translate(779.4592 1115.7864) rotate(-73.9887)" style="fill: #f2b052; opacity: .6;"/>
          <ellipse cx="1147.538" cy="45.442" rx="1.97" ry="1.966" transform="translate(787.3364 1135.9297) rotate(-73.9887)" style="fill: #f2b052; opacity: .6;"/>
          <ellipse cx="1148.581" cy="32.184" rx="1.97" ry="1.966" transform="translate(800.8349 1127.3311) rotate(-73.9887)" style="fill: #f2b052; opacity: .6;"/>
        </g>
        <g>
          <g>
            <rect x="1322.489" y="89.641" width="4.001" height="3.931" style="fill: #008dca;"/>
            <g>
              <g>
                <circle cx="1313.585" cy="111.467" r="1.616" style="fill: #00a7f3;"/>
                <path d="M1309.858,123.285c.002-.265.108-.519.296-.705.189-.186.445-.29.71-.288.171.001.61.004,1.051.008.524-.517,2.175-2.129,2.742-2.674.119-.114.155-.284.097-.438l-2.662-7.103,2.987-1.234,2.888,7.684c.199.531.288,1.096.26,1.663l-.157,3.141-6.43-.04v-.005l-1.782-.008h0Z" style="fill: #00a7f3; fill-rule: evenodd;"/>
              </g>
              <polygon points="1320.293 104.296 1322.342 106.796 1314.61 112.717 1312.561 110.218 1320.293 104.296" style="fill: #00a7f3;"/>
              <g>
                <polygon points="1333.15 121.513 1336.683 112.084 1333.696 110.85 1330.528 119.349 1333.15 121.513" style="fill: #3d405c;"/>
                <polygon points="1328.482 104.296 1326.433 106.796 1334.165 112.717 1336.214 110.218 1328.482 104.296" style="fill: #3d405c;"/>
                <circle cx="1335.19" cy="111.467" r="1.616" style="fill: #3d405c;"/>
                <g>
                  <path d="M1330.528,119.349l2.185-.007.818-.003c.194,0,.38.076.518.211.73.724,3.07,3.045,3.07,3.045l-.002.727-6.43.026-.159-3.999Z" style="fill: #c9460f; fill-rule: evenodd;"/>
                  <path d="M1331.684,116.804c-.582,1.568-.057,3.951,1.73,3.951l.076-.144,2.982-8.017h0c-.727-.299-1.544-.29-2.265.025-.72.315-1.282.909-1.555,1.646-.289.776-.678,1.762-.967,2.538Z" style="fill: #c9460f;"/>
                  <g style="clip-path: url(#clippath-7);">
                    <path d="M1334.124,119.918c-.898-.369-1.51-1.453-1.172-2.364.368-.988.886-2.385,1.25-3.363.328-.881-.103-1.864-.972-2.221" style="fill: none; stroke: #c8ff34; stroke-linecap: round; stroke-linejoin: round; stroke-width: 1px;"/>
                  </g>
                  <path d="M1331.407,120.239c-.051.139-.157.25-.292.309-.136.059-.289.061-.426.005h0c-.301-.124-.449-.463-.336-.767.662-1.78,2.718-7.307,2.718-7.307h0c.592.243.884.911.662,1.511-.635,1.707-1.85,4.974-2.325,6.249Z" style="fill: #f48f29;"/>
                </g>
              </g>
              <g>
                <path d="M1306.587,92.949c.507.399.825.993.874,1.637.006.083.013.169.019.255.072.931-.597,1.755-1.524,1.877-.186.023-.377.049-.566.074-.518.069-1.041-.076-1.451-.397-.411-.323-.674-.797-.731-1.317-.015-.138-.029-.272-.044-.401-.062-.565.247-1.107.765-1.34.129-.059.219-.1.219-.1-.007-.358.261-.662.616-.7.092-.009.189-.02.284-.03.551-.06,1.104.098,1.539.442" style="fill: #00a7f3;"/>
                <path d="M1305.601,94.948c.502-.047.872-.492.825-.995-.047-.502-.493-.872-.995-.825l-1.84.172c-.501.047-.871.493-.824.995.047.502.493.872.994.824l1.84-.172Z" style="fill: #00a7f3;"/>
                <path d="M1319.076,96.365c.977-.014,1.794-.749,1.909-1.72.08-.67.153-1.284.153-1.284l-12.482-.237.041,3.315s7.042-.027,10.379-.074Z" style="fill: #303248; fill-rule: evenodd;"/>
                <polygon points="1306.679 96.468 1306.792 93.112 1308.656 93.124 1308.697 96.439 1306.679 96.468" style="fill: #00a7f3; fill-rule: evenodd;"/>
              </g>
              <g>
                <path d="M1342.046,92.949c-.507.399-.825.993-.874,1.637-.006.083-.013.169-.019.255-.072.931.597,1.755,1.524,1.877.186.023.377.049.566.074.518.069,1.041-.076,1.451-.397.411-.323.674-.797.731-1.317.015-.138.029-.272.044-.401.062-.565-.247-1.107-.765-1.34-.129-.059-.219-.1-.219-.1.007-.358-.261-.662-.616-.7-.092-.009-.189-.02-.284-.03-.551-.06-1.104.098-1.539.442" style="fill: #00a7f3;"/>
                <path d="M1343.032,94.948c-.502-.047-.872-.492-.825-.995.047-.502.493-.872.995-.825l1.84.172c.501.047.871.493.824.995-.047.502-.493.872-.994.824l-1.84-.172Z" style="fill: #00a7f3;"/>
                <path d="M1329.558,96.365c-.977-.014-1.794-.749-1.909-1.72l-.153-1.284,12.482-.237-.041,3.315s-7.042-.027-10.379-.074Z" style="fill: #303248; fill-rule: evenodd;"/>
                <polygon points="1341.954 96.468 1341.841 93.112 1339.977 93.124 1339.937 96.439 1341.954 96.468" style="fill: #00a7f3; fill-rule: evenodd;"/>
              </g>
              <polygon points="1319.771 93.354 1328.69 93.354 1329.488 103.354 1318.974 103.354 1319.771 93.354" style="fill: #303248;"/>
              <rect x="1320.961" y="94.354" width="6.539" height="2" style="fill: #071c1c;"/>
              <rect x="1320.961" y="97.354" width="6.539" height="2" style="fill: #071c1c;"/>
              <polygon points="1318.961 103.354 1324.217 103.354 1324.22 103.354 1329.475 103.354 1334.443 108.861 1332.285 111.277 1325.224 106.354 1324.22 106.354 1324.217 106.354 1323.213 106.354 1316.127 111.555 1313.97 109.138 1318.961 103.354" style="fill: #3d405c;"/>
            </g>
            <g>
              <path d="M1310.87,74.253c0-3.648,2.935-6.609,6.551-6.609h14.327c3.616,0,6.552,2.961,6.552,6.609v11.164c0,3.648-2.936,6.609-6.552,6.609h-14.327c-3.616,0-6.551-2.961-6.551-6.609v-11.164Z" style="fill: #00a7f3;"/>
              <g style="clip-path: url(#clippath-8);">
                <polygon points="1339.26 94.057 1320.847 72.164 1322.702 71.629 1339.309 72.164 1339.26 94.057" style="fill: #008dca;"/>
                <path d="M1312.105,68.812c.778-.786,1.834-1.227,2.935-1.227h18.824c1.1,0,2.156.441,2.935,1.227.778.785,1.28,1.85,1.28,2.961v.384h-27.254v-.384c0-1.111.502-2.176,1.28-2.961" style="fill: #008dca;"/>
                <path d="M1311.631,91.009c-.606,0-1.188-.249-1.616-.693-.429-.444-.668-1.046-.668-1.673v-.509c0-.096.074-.173.167-.173h4.237c.092,0,.168.077.168.173v.509c0,.627-.241,1.229-.669,1.673-.429.444-1.01.693-1.616.693h-.001Z" style="fill: #006793;"/>
              </g>
              <path d="M1330.518,79.355c-2.097,0-3.795,1.699-3.795,3.795,0,2.096,1.699,3.795,3.795,3.795s3.794-1.699,3.794-3.795c0-2.096-1.699-3.795-3.794-3.795" style="fill: #00a7f3;"/>
              <path d="M1330.518,81.88c-.702,0-1.271.569-1.271,1.271,0,.702.569,1.271,1.271,1.271s1.271-.569,1.271-1.271c0-.702-.57-1.271-1.271-1.271" style="fill: #008dca;"/>
              <rect x="1327.625" y="73.939" width="5.822" height="2.386" style="fill: #008dca;"/>
              <path d="M1325.764,75.625c-1.067,1.951-3.114,3.164-5.338,3.164h-13.747v-4.698c0-3.561,2.887-6.448,6.448-6.448,7.262,0,18.061,0,18.061,0h-.001c-.652,0-1.253.356-1.566.928-.838,1.532-2.549,4.66-3.857,7.054Z" style="fill: #071c1c; fill-rule: evenodd;"/>
              <path d="M1329.216,64.596h-18.318c0,.808.325,1.583.904,2.155.58.572,1.366.893,2.185.893l8.057,2.032,8.034-2.032h2.228c0-1.683-1.384-3.048-3.09-3.048" style="fill: #071c1c;"/>
              <g>
                <rect x="1313.918" y="78.804" width="5.016" height="9.167" rx="1.432" ry="1.432" style="fill: #fff;"/>
                <rect x="1313.918" y="80.308" width="2.611" height="6.159" rx=".859" ry=".859" style="fill: #071c1c;"/>
              </g>
              <g>
                <path d="M1313.918,80.236c0-.791.642-1.432,1.432-1.432h2.151c.791,0,1.432.642,1.432,1.432v1.221h-5.016v-1.221Z" style="fill: #008dca;"/>
                <path d="M1318.933,86.539c0,.791-.642,1.432-1.432,1.432h-2.151c-.791,0-1.432-.642-1.432-1.432v-.647h5.016v.647Z" style="fill: #008dca;"/>
              </g>
            </g>
          </g>
          <g>
            <path d="M1351.285,123.842v3.888s-3.453-1.031-3.453-3.888h3.453Z" style="fill: #c9460f; fill-rule: evenodd;"/>
            <path d="M1350.373,123.842v5.723s-5.082-1.517-5.082-5.723h5.082Z" style="fill: #c8ff34; fill-rule: evenodd;"/>
            <path d="M1352.638,123.842v3.888s-3.453-1.031-3.453-3.888h3.453Z" style="fill: #f48f29; fill-rule: evenodd;"/>
            <path d="M1293.029,123.107c15.494-1.485,31.054-1.354,46.588-.785,5.176.221,10.353.52,15.529,1.067v.905c-5.177.547-10.353.847-15.529,1.067-10.35.428-20.706.516-31.059.193-5.177-.165-10.353-.436-15.529-.978v-1.47h0Z" style="fill: #dbdbdb;"/>
          </g>
        </g>
      </g>
    </g>
  </g>
</svg>