<?xml version="1.0" encoding="UTF-8"?>
<svg xmlns="http://www.w3.org/2000/svg" width="1500" height="145" xmlns:xlink="http://www.w3.org/1999/xlink" version="1.1" viewBox="0 0 1500 145">
  <!-- Generator: Adobe Illustrator 30.5.1, SVG Export Plug-In . SVG Version: 2.1.4 Build 3)  -->
  <defs>
    <clipPath id="clippath">
      <rect width="1500" height="145" style="fill: none;"/>
    </clipPath>
    <clipPath id="clippath-1">
      <ellipse cx="147.485" cy="59.011" rx="21.327" ry="21.309" style="fill: #49a198;"/>
    </clipPath>
    <clipPath id="clippath-2">
      <ellipse cx="60.046" cy="56.88" rx="14.929" ry="14.916" style="fill: #6fbfbc;"/>
    </clipPath>
    <clipPath id="clippath-3">
      <ellipse cx="100.591" cy="6.064" rx="25.592" ry="25.57" style="fill: #49a198;"/>
    </clipPath>
    <clipPath id="clippath-5">
      <ellipse cx="298.014" cy="129.046" rx="21.327" ry="21.309" style="fill: #49a198;"/>
    </clipPath>
    <clipPath id="clippath-6">
      <ellipse cx="210.575" cy="126.916" rx="14.929" ry="14.916" style="fill: #6fbfbc;"/>
    </clipPath>
    <clipPath id="clippath-7">
      <ellipse cx="251.12" cy="76.099" rx="25.592" ry="25.57" style="fill: #49a198;"/>
    </clipPath>
    <clipPath id="clippath-8">
      <ellipse cx="631.171" cy="-22.563" rx="21.327" ry="21.309" style="fill: #49a198;"/>
    </clipPath>
    <clipPath id="clippath-9">
      <ellipse cx="1505.859" cy="115.794" rx="21.327" ry="21.309" style="fill: #49a198;"/>
    </clipPath>
    <clipPath id="clippath-10">
      <ellipse cx="1418.42" cy="113.663" rx="14.929" ry="14.916" style="fill: #6fbfbc;"/>
    </clipPath>
    <clipPath id="clippath-11">
      <ellipse cx="1458.965" cy="62.847" rx="25.592" ry="25.57" style="fill: #49a198;"/>
    </clipPath>
    <clipPath id="clippath-12">
      <path d="M752.525,224.71c19.671,0,34.051-18.549,29.133-37.579l-60.81-235.314c-3.513-13.593-15.784-23.091-29.836-23.091h0c-14.051,0-26.323,9.497-29.836,23.091l-23.067,89.261c-4.242,16.416-17.507,28.962-34.144,32.295l-72.089,14.442c-32.304,6.472-55.551,34.818-55.551,67.738h0c0,38.155,30.957,69.086,69.144,69.086h45.205l-.018.072h161.868Z" style="fill: none;"/>
    </clipPath>
    <clipPath id="clippath-13">
      <polygon points="774.065 237.294 567.533 237.03 567.533 237.162 479.443 237.162 479.443 -58.822 775.22 -58.822 774.065 237.294" style="clip-rule: evenodd; fill: none;"/>
    </clipPath>
    <clipPath id="clippath-14">
      <path d="M871.258,158.582l-42.155-10.631V38.57c0-18.335-14.477-33.819-32.825-34.131-11.698-.199-22.048,5.614-28.167,14.548h-.004s-98.636,166.58-98.636,166.58c-.007,21.616,17.529,39.143,39.164,39.143h155.504c18.449,0,33.916-14.663,34.069-33.096.136-16.352-11.5-30.009-26.949-33.032Z" style="fill: none;"/>
    </clipPath>
    <clipPath id="clippath-15">
      <polygon points="881.12 237.294 674.588 237.03 674.588 237.162 586.498 237.162 586.498 -58.822 882.275 -58.822 881.12 237.294" style="clip-rule: evenodd; fill: none;"/>
    </clipPath>
    <clipPath id="clippath-17">
      <path d="M611.728,657.118V94.613c0-9.071-7.354-16.425-16.425-16.425h0c-7.211,0-13.578,4.703-15.698,11.594l-6.816,22.153h0c-5.047,16.544-14.094,31.588-26.341,43.802l-39.085,38.981c-12.405,12.372-19.376,29.171-19.376,46.691v415.708h123.741Z" style="clip-rule: evenodd; fill: none;"/>
    </clipPath>
    <clipPath id="clippath-18">
      <path d="M611.728,657.118V94.613c0-9.071-7.354-16.425-16.425-16.425h0c-7.211,0-13.578,4.703-15.698,11.594l-6.816,22.153h0c-5.047,16.544-14.094,31.588-26.341,43.802l-39.085,38.981c-12.405,12.372-19.376,29.171-19.376,46.691v415.708h123.741Z" style="clip-rule: evenodd; fill: none;"/>
    </clipPath>
    <clipPath id="clippath-19">
      <path d="M611.728,661.07V162.141l-5.372,11.644c-8.36,18.119-20.675,34.133-36.041,46.864l-81.021,67.13c-16.721,13.828-26.401,34.394-26.401,56.092v317.199h148.836Z" style="clip-rule: evenodd; fill: none;"/>
    </clipPath>
    <clipPath id="clippath-22">
      <ellipse cx="1229.516" cy="110.097" rx="24.169" ry="24.149" style="fill: #49a198;"/>
    </clipPath>
    <clipPath id="clippath-23">
      <ellipse cx="1233.044" cy="18.362" rx="20.141" ry="20.124" style="fill: #49a198;"/>
    </clipPath>
    <clipPath id="clippath-24">
      <ellipse cx="1315.622" cy="16.35" rx="14.099" ry="14.087" style="fill: #6fbfbc;"/>
    </clipPath>
  </defs>
  <g style="isolation: isolate;">
    <g id="Details">
      <g style="clip-path: url(#clippath);">
        <rect x="-10.125" y="-2163.498" width="1520.249" height="3053.416" style="fill: #61d1d5;"/>
        <path d="M-31.619,948.82V-167.869h439.79c24.414,0,47.365,9.507,64.629,26.77l88.768,88.769c9.708,9.707,22.615,15.054,36.344,15.054h270.975c15.867,0,31.084,6.303,42.304,17.523l31.302,31.302c11.299,11.3,17.521,26.323,17.521,42.304v36.879c0,28.387,23.012,51.399,51.399,51.399h0c28.387,0,51.399-23.012,51.399-51.399V-68.652c0-50.478,40.92-91.398,91.398-91.398h173.96c50.397,0,91.398,41.002,91.398,91.399l.529,144.191c1.499,21.417,19.367,38.12,40.891,38.12h111.087v551.517h-238.168c-43.687,0-79.103-35.415-79.103-79.103v-63.47c0-29.481-23.899-53.381-53.381-53.381h-55.92c-29.481,0-53.381,23.899-53.381,53.381v100.962c0,21.13-8.229,40.994-23.169,55.934l-141.512,141.513c-18.283,18.283-42.592,28.353-68.448,28.353H-40.344c-13.73,0-28.235,72.685-28.235,72.685-17.263,17.263,290.517,26.77,266.104,26.77H-31.619Z" style="fill: #4eeae6;"/>
        <path d="M913.301,801.352l141.513-141.513c11.084-11.084,17.311-26.117,17.311-41.792v-100.962c0-40.527,32.854-73.381,73.381-73.381h55.92c40.527,0,73.381,32.854,73.381,73.381v63.47c0,32.641,26.461,59.102,59.102,59.102h218.168s0-505.586,0-505.586h-91.087c-32.307,0-59.01-25.192-60.888-57.445l-.532-144.867c0-39.432-31.966-71.399-71.398-71.399h-173.96c-39.432,0-71.399,31.966-71.399,71.399v334.633c0,16.501-13.377,29.877-29.877,29.877h-83.042c-16.501,0-29.877-13.377-29.877-29.877V54.264c0-10.563-4.196-20.693-11.665-28.161l-31.302-31.302c-7.469-7.469-17.599-11.665-28.161-11.665h-270.975c-18.936,0-37.097-7.522-50.486-20.912l-88.768-88.768c-13.39-13.39-31.551-20.912-50.487-20.912H-11.618v971.858h870.614c20.369,0,39.903-8.646,54.306-23.049Z" style="fill: #d6f0f0;"/>
        <g>
          <path d="M444.7,148.403l-7.082-7.082c-6.897-6.896-16.25-10.771-26.003-10.771h-165.681c-19.013,0-37.247-7.553-50.691-20.997l-24.496-24.496c-13.444-13.444-20.997-31.679-20.997-50.692h0c0-39.593-32.096-71.689-71.688-71.689H-5.367s0,382.286,0,382.286h-15.768v196.741h210.985c25.021,0,47.61-13.01,62.354-33.225.634-.869,1.338-1.693,2.108-2.463l53.343-53.343c3.921-3.921,6.123-9.238,6.123-14.783v-50.807c0-5.545-2.203-10.862-6.123-14.783l-21.212-21.212c-3.921-3.921-9.238-6.123-14.783-6.123h-105.067c-12.885,0-25.243-5.119-34.355-14.23l-21.072-21.072c-10.115-10.115-15.797-23.834-15.797-38.139h0c0-29.789,24.148-53.937,53.937-53.937h262.987c9.753,0,19.107-3.874,26.003-10.771l5.821-5.821c5.049-5.048,8.812-11.325,10.41-18.283,2.89-12.584-.984-25.465-9.827-34.307Z" style="fill: #4aa280; fill-rule: evenodd;"/>
          <path d="M-11.138,541.704h200.988c25.021,0,47.61-13.01,62.354-33.225.634-.869,1.338-1.693,2.108-2.463l53.343-53.344c3.921-3.92,6.123-9.238,6.123-14.783v-50.808c0-5.544-2.203-10.862-6.123-14.783l-21.212-21.212c-3.921-3.92-9.238-6.123-14.783-6.123h-105.067c-12.885,0-25.243-5.119-34.355-14.23l-21.072-21.072c-10.115-10.115-15.797-23.834-15.797-38.139,0-29.789,24.148-53.937,53.937-53.937h262.987c9.753,0,19.107-3.874,26.003-10.771l5.821-5.821c5.049-5.048,8.812-11.325,10.41-18.283,2.89-12.583-.984-25.465-9.827-34.308l-7.082-7.082c-6.897-6.896-16.25-10.771-26.003-10.771h-165.681c-19.013,0-37.247-7.553-50.691-20.997l-24.496-24.497c-13.444-13.444-20.997-31.678-20.997-50.691h0c0-39.593-32.096-71.689-71.688-71.689H-.368" style="fill: none; stroke: #4aa280; stroke-dasharray: 0 9.998; stroke-linecap: round; stroke-linejoin: round; stroke-width: 10px;"/>
        </g>
        <g>
          <rect x="55.78" y="56.88" width="8.531" height="53.596" transform="translate(120.091 167.356) rotate(-180)" style="fill: #dcf8f1;"/>
          <rect x="143.219" y="59.011" width="8.531" height="51.465" transform="translate(294.969 169.487) rotate(-180)" style="fill: #dcf8f1;"/>
          <rect x="96.326" y="6.064" width="8.531" height="104.412" style="fill: #dcf8f1;"/>
          <ellipse cx="147.485" cy="59.011" rx="27.725" ry="27.701" style="fill: #c7ebf7;"/>
          <g>
            <ellipse cx="147.485" cy="59.011" rx="21.327" ry="21.309" style="fill: #49a198;"/>
            <g style="clip-path: url(#clippath-1);">
              <path d="M165.45,72.216c.51-.766.791-1.67.791-2.604h0c0-1.843-1.082-3.574-2.896-4.344-.603-.257-1.263-.357-1.918-.357h-13.067c-2.353,0-4.595-.999-6.169-2.746-1.81-2.009-3.517-3.904-4.814-5.344-1.523-1.691-3.692-2.655-5.969-2.655h-3.481s-6.557,0-12.541,0h-3.441c-2.497,0-4.835,1.448-5.758,3.766-1.263,3.168.272,6.71,3.488,7.947.695.267,1.442.376,2.186.376h1.423s6.803,20.407,6.803,20.407h32.66s16.284-13.748,16.284-13.748l-3.583-.697Z" style="fill: #a7cc40; fill-rule: evenodd;"/>
            </g>
          </g>
          <ellipse cx="60.046" cy="56.88" rx="21.327" ry="21.309" style="fill: #c7ebf7;"/>
          <g>
            <ellipse cx="60.046" cy="56.88" rx="14.929" ry="14.916" style="fill: #6fbfbc;"/>
            <g style="clip-path: url(#clippath-2);">
              <path d="M72.621,66.124c.358-.536.554-1.169.554-1.823h0c0-1.29-.758-2.502-2.027-3.041-.422-.179-.884-.25-1.342-.25h-9.147c-1.647,0-3.217-.699-4.318-1.922-1.267-1.407-2.462-2.733-3.37-3.741-1.066-1.184-2.585-1.859-4.178-1.859h-2.436s-4.59,0-8.779,0h-2.408c-1.748,0-3.384,1.013-4.031,2.636-.883,2.218.19,4.697,2.442,5.563.486.187,1.009.263,1.53.263h.996s4.762,14.285,4.762,14.285h22.862s11.399-9.623,11.399-9.623l-2.508-.488Z" style="fill: #a7cc40; fill-rule: evenodd;"/>
            </g>
          </g>
          <ellipse cx="100.591" cy="6.064" rx="31.99" ry="31.963" style="fill: #c7ebf7;"/>
          <g>
            <ellipse cx="100.591" cy="6.064" rx="25.592" ry="25.57" style="fill: #49a198;"/>
            <g style="clip-path: url(#clippath-3);">
              <path d="M122.149,21.91c.613-.919.95-2.004.95-3.125h0c0-2.211-1.299-4.289-3.475-5.213-.724-.308-1.515-.428-2.301-.428h-15.68c-2.823,0-5.514-1.199-7.403-3.295-2.172-2.411-4.219-4.684-5.776-6.413-1.828-2.029-4.43-3.186-7.162-3.186h-4.177s-7.869,0-15.05,0h-4.128c-2.997,0-5.802,1.737-6.91,4.518-1.515,3.802.326,8.052,4.186,9.537.834.32,1.73.45,2.623.45h1.708s8.163,24.489,8.163,24.489h39.192s19.541-16.497,19.541-16.497l-4.3-.837Z" style="fill: #a7cc40; fill-rule: evenodd;"/>
            </g>
          </g>
          <line x1="175.209" y1="111.542" x2="45.117" y2="111.542" style="fill: none; stroke: #4aa280; stroke-dasharray: 0 16.581; stroke-linecap: round; stroke-linejoin: round; stroke-width: 16.581px;"/>
        </g>
        <g>
          <rect x="185.255" y="55.574" width="127.303" height="12.543" rx="6.271" ry="6.271" style="fill: #c2e6e4;"/>
          <g>
            <path d="M306.719-3.658c0-2.932-2.369-5.299-5.303-5.299s-5.303,2.367-5.303,5.299c0-2.932-2.368-5.299-5.303-5.299s-5.303,2.367-5.303,5.299c0-2.932-2.368-5.299-5.303-5.299s-5.303,2.367-5.303,5.299c0-2.932-2.368-5.299-5.303-5.299s-5.303,2.367-5.303,5.299c0-2.932-2.368-5.299-5.303-5.299s-5.303,2.367-5.303,5.299V6.166h53.035V-3.658h-.001Z" style="fill: #8dd44c;"/>
            <rect x="222.389" y="3.073" width="84.332" height="57.765" style="fill: #fff;"/>
            <rect x="264.292" y="3.073" width="10.607" height="57.765" style="fill: #e9f1f6; mix-blend-mode: multiply; opacity: .5;"/>
            <rect x="301.416" y="3.073" width="5.305" height="57.765" style="fill: #e9f1f6; mix-blend-mode: multiply; opacity: .5;"/>
            <g>
              <path d="M269.333,60.838h-78.24V-15.609c0-10.366,4.108-20.307,11.424-27.636,7.354-7.33,17.291-11.447,27.658-11.447h.038c10.367,0,20.304,4.117,27.658,11.447,7.316,7.33,11.462,17.27,11.462,27.636V60.838Z" style="fill: #fff; fill-rule: evenodd;"/>
              <g>
                <rect x="191.092" y="23.703" width="15.648" height="18.567" style="fill: #b3efe3;"/>
                <rect x="191.092" y="-12.562" width="15.648" height="15.635" style="fill: #b3efe3;"/>
                <rect x="217.841" y="23.703" width="24.742" height="37.134" style="fill: #b3efe3;"/>
                <rect x="217.841" y="-12.562" width="24.742" height="15.635" style="fill: #b3efe3;"/>
                <rect x="253.685" y="23.703" width="15.648" height="18.567" style="fill: #b3efe3;"/>
                <rect x="253.685" y="-12.562" width="15.648" height="15.635" style="fill: #b3efe3;"/>
              </g>
              <g style="opacity: .35;">
                <rect x="191.093" y="23.703" width="15.648" height="5.998" style="fill: #49a2e0;"/>
                <rect x="217.843" y="23.703" width="24.742" height="5.998" style="fill: #49a2e0;"/>
                <rect x="253.685" y="23.703" width="15.648" height="5.998" style="fill: #49a2e0;"/>
              </g>
            </g>
            <rect x="274.899" y="23.703" width="26.516" height="31.87" style="fill: #b3efe3;"/>
            <rect x="274.9" y="23.703" width="26.516" height="5.998" style="fill: #49a2e0;"/>
            <rect x="269.333" y="3.167" width="37.387" height="5.998" style="fill: #fff;"/>
          </g>
        </g>
        <g>
          <rect x="206.31" y="126.916" width="8.531" height="53.596" transform="translate(421.15 307.427) rotate(-180)" style="fill: #dcf8f1;"/>
          <rect x="293.749" y="129.046" width="8.531" height="51.465" transform="translate(596.028 309.558) rotate(-180)" style="fill: #dcf8f1;"/>
          <rect x="246.855" y="76.099" width="8.531" height="104.412" style="fill: #dcf8f1;"/>
          <ellipse cx="298.014" cy="129.046" rx="27.725" ry="27.701" style="fill: #c7ebf7;"/>
          <g>
            <ellipse cx="298.014" cy="129.046" rx="21.327" ry="21.309" style="fill: #49a198;"/>
            <g style="clip-path: url(#clippath-5);">
              <path d="M315.979,142.251c.51-.766.791-1.67.791-2.604h0c0-1.843-1.082-3.574-2.896-4.344-.603-.257-1.263-.357-1.918-.357h-13.067c-2.353,0-4.595-.999-6.169-2.746-1.81-2.009-3.517-3.904-4.814-5.344-1.523-1.691-3.692-2.655-5.969-2.655h-3.481s-6.557,0-12.541,0h-3.441c-2.497,0-4.835,1.448-5.758,3.766-1.263,3.168.272,6.71,3.488,7.947.695.267,1.442.376,2.186.376h1.423s6.803,20.407,6.803,20.407h32.66s16.284-13.748,16.284-13.748l-3.583-.697Z" style="fill: #a7cc40; fill-rule: evenodd;"/>
            </g>
          </g>
          <ellipse cx="210.575" cy="126.916" rx="21.327" ry="21.309" style="fill: #c7ebf7;"/>
          <g>
            <ellipse cx="210.575" cy="126.916" rx="14.929" ry="14.916" style="fill: #6fbfbc;"/>
            <g style="clip-path: url(#clippath-6);">
              <path d="M223.15,136.159c.358-.536.554-1.169.554-1.823h0c0-1.29-.758-2.502-2.027-3.041-.422-.179-.884-.25-1.342-.25h-9.147c-1.647,0-3.217-.699-4.318-1.922-1.267-1.407-2.462-2.733-3.37-3.741-1.066-1.184-2.585-1.859-4.178-1.859h-2.436s-4.59,0-8.779,0h-2.408c-1.748,0-3.384,1.013-4.031,2.636-.883,2.218.19,4.697,2.442,5.563.486.187,1.009.263,1.53.263h.996s4.762,14.285,4.762,14.285h22.862s11.399-9.623,11.399-9.623l-2.508-.488Z" style="fill: #a7cc40; fill-rule: evenodd;"/>
            </g>
          </g>
          <ellipse cx="251.12" cy="76.099" rx="31.99" ry="31.963" style="fill: #c7ebf7;"/>
          <g>
            <ellipse cx="251.12" cy="76.099" rx="25.592" ry="25.57" style="fill: #49a198;"/>
            <g style="clip-path: url(#clippath-7);">
              <path d="M272.678,91.946c.613-.919.95-2.004.95-3.125h0c0-2.211-1.299-4.289-3.475-5.213-.724-.308-1.515-.428-2.301-.428h-15.68c-2.823,0-5.514-1.199-7.403-3.295-2.172-2.411-4.219-4.684-5.776-6.413-1.828-2.029-4.43-3.186-7.162-3.186h-4.177s-7.869,0-15.05,0h-4.128c-2.997,0-5.802,1.737-6.91,4.518-1.515,3.802.326,8.052,4.186,9.537.834.32,1.73.45,2.623.45h1.708s8.163,24.489,8.163,24.489h39.192s19.541-16.497,19.541-16.497l-4.3-.837Z" style="fill: #a7cc40; fill-rule: evenodd;"/>
            </g>
          </g>
        </g>
        <g>
          <line x1="1032.533" y1="70.247" x2="994.873" y2="70.247" style="fill: none; stroke: #8ee8e8; stroke-linecap: round; stroke-linejoin: round; stroke-width: 7px;"/>
          <line x1="1002.895" y1="55.013" x2="981.687" y2="55.013" style="fill: none; stroke: #8ee8e8; stroke-linecap: round; stroke-linejoin: round; stroke-width: 7px;"/>
          <line x1="1022.609" y1="51.429" x2="1032.533" y2="51.429" style="fill: none; stroke: #8ee8e8; stroke-linecap: round; stroke-linejoin: round; stroke-width: 7px;"/>
        </g>
        <g>
          <rect x="526.999" y="22.631" width="127.303" height="12.543" rx="6.271" ry="6.271" style="fill: #c2e6e4;"/>
          <g>
            <rect x="539.467" y="-24.694" width="8.531" height="53.596" transform="translate(1087.4639 4.2087) rotate(-180)" style="fill: #a3d8d3;"/>
            <rect x="626.906" y="-22.563" width="8.531" height="51.465" transform="translate(1262.3421 6.3396) rotate(-180)" style="fill: #a3d8d3;"/>
            <rect x="580.012" y="-75.51" width="8.531" height="104.412" style="fill: #a3d8d3;"/>
            <ellipse cx="631.171" cy="-22.563" rx="27.725" ry="27.701" style="fill: #fff;"/>
            <g>
              <ellipse cx="631.171" cy="-22.563" rx="21.327" ry="21.309" style="fill: #49a198;"/>
              <g style="clip-path: url(#clippath-8);">
                <path d="M649.137-9.358c.51-.766.791-1.67.791-2.604h0c0-1.843-1.082-3.574-2.896-4.344-.603-.257-1.263-.357-1.918-.357h-13.067c-2.353,0-4.595-.999-6.169-2.746-1.81-2.009-3.517-3.904-4.814-5.344-1.523-1.691-3.692-2.655-5.969-2.655h-3.481s-6.557,0-12.541,0h-3.441c-2.497,0-4.835,1.448-5.758,3.766-1.263,3.168.272,6.71,3.488,7.947.695.267,1.442.376,2.186.376h1.423s6.803,20.407,6.803,20.407h32.66s16.284-13.748,16.284-13.748l-3.583-.697Z" style="fill: #a7cc40; fill-rule: evenodd;"/>
              </g>
            </g>
          </g>
        </g>
        <g>
          <rect x="1414.154" y="113.663" width="8.531" height="53.596" transform="translate(2836.8392 280.9213) rotate(-180)" style="fill: #a3d8d3;"/>
          <rect x="1454.7" y="62.847" width="8.531" height="104.412" style="fill: #a3d8d3;"/>
          <ellipse cx="1505.859" cy="115.794" rx="27.725" ry="27.701" style="fill: #fff;"/>
          <g>
            <ellipse cx="1505.859" cy="115.794" rx="21.327" ry="21.309" style="fill: #49a198;"/>
            <g style="clip-path: url(#clippath-9);">
              <path d="M1523.824,128.999c.51-.766.791-1.67.791-2.604h0c0-1.843-1.082-3.574-2.896-4.344-.603-.257-1.263-.357-1.918-.357h-13.067c-2.353,0-4.595-.999-6.169-2.746-1.81-2.009-3.517-3.904-4.814-5.344-1.523-1.691-3.692-2.655-5.969-2.655h-3.481s-6.557,0-12.541,0h-3.441c-2.497,0-4.835,1.448-5.758,3.766-1.263,3.168.272,6.71,3.488,7.947.695.267,1.442.376,2.186.376h1.423s6.803,20.407,6.803,20.407h32.66s16.284-13.748,16.284-13.748l-3.583-.697Z" style="fill: #a7cc40; fill-rule: evenodd;"/>
            </g>
          </g>
          <ellipse cx="1418.42" cy="113.663" rx="21.327" ry="21.309" style="fill: #fff;"/>
          <g>
            <ellipse cx="1418.42" cy="113.663" rx="14.929" ry="14.916" style="fill: #6fbfbc;"/>
            <g style="clip-path: url(#clippath-10);">
              <path d="M1430.995,122.907c.358-.536.554-1.169.554-1.823h0c0-1.29-.758-2.502-2.027-3.041-.422-.179-.884-.25-1.342-.25h-9.147c-1.647,0-3.217-.699-4.318-1.922-1.267-1.407-2.462-2.733-3.37-3.741-1.066-1.184-2.585-1.859-4.178-1.859h-2.436s-4.59,0-8.779,0h-2.408c-1.748,0-3.384,1.013-4.031,2.636-.883,2.218.19,4.697,2.442,5.563.486.187,1.009.263,1.53.263h.996s4.762,14.285,4.762,14.285h22.862s11.399-9.623,11.399-9.623l-2.508-.488Z" style="fill: #a7cc40; fill-rule: evenodd;"/>
            </g>
          </g>
          <ellipse cx="1458.965" cy="62.847" rx="31.99" ry="31.963" style="fill: #fff;"/>
          <g>
            <ellipse cx="1458.965" cy="62.847" rx="25.592" ry="25.57" style="fill: #49a198;"/>
            <g style="clip-path: url(#clippath-11);">
              <path d="M1480.523,78.693c.613-.919.95-2.004.95-3.125h0c0-2.211-1.299-4.289-3.475-5.213-.724-.308-1.515-.428-2.301-.428h-15.68c-2.823,0-5.514-1.199-7.403-3.295-2.172-2.411-4.219-4.684-5.776-6.413-1.828-2.029-4.43-3.186-7.162-3.186h-4.177s-7.869,0-15.05,0h-4.128c-2.997,0-5.802,1.737-6.91,4.518-1.515,3.802.326,8.052,4.186,9.537.834.32,1.73.45,2.623.45h1.708s8.163,24.489,8.163,24.489h39.192s19.541-16.497,19.541-16.497l-4.3-.837Z" style="fill: #a7cc40; fill-rule: evenodd;"/>
            </g>
          </g>
        </g>
        <g>
          <path d="M668.396-59.634c1.06-1.058,1.657-2.524,1.657-4.018s-.597-2.987-1.657-4.045c-1.332-1.303-3.288-1.928-5.163-1.548-.354.082-.707.191-1.06.326-.326.137-.679.326-.978.516-.326.217-.598.461-.87.707-1.059,1.058-1.684,2.552-1.684,4.045s.625,2.96,1.684,4.018c.272.272.544.516.87.733.288.184.627.364.944.498-.425-.046-.845-.052-1.257-.004-2.54-.317-5.073,1.117-6.018,3.607-1.122,2.882.311,6.12,3.147,7.287-.184.024-.366.057-.545.098-2.772-.717-5.721.713-6.761,3.447-1.141,2.96.354,6.245,3.288,7.358.002,0,.005,0,.007.002l-.083.218s-.003-.002-.005-.002c-2.935-1.14-6.223.326-7.364,3.285-1.115,2.932.353,6.217,3.288,7.358.001,0,.003,0,.004.001l-.071.186c-2.958-1.131-6.238.36-7.379,3.289-1.113,2.932.354,6.244,3.289,7.358.003.001.007.002.01.003l-.071.185c-2.961-1.108-6.245.356-7.385,3.287-1.115,2.96.353,6.245,3.288,7.358.006.002.012.003.018.005l-.08.21c-2.933-1.134-6.242.331-7.355,3.287-1.14,2.929.324,6.209,3.279,7.353l-.014.037c-.021.055-.046.108-.068.163-2.822-1.196-6.125.096-7.382,2.899-1.279,2.822-.066,6.1,2.697,7.457-.036.069-.076.137-.113.206-2.693-1.478-6.066-.606-7.666,2.056-1.568,2.629-.757,6.027,1.823,7.699-.043.063-.087.124-.13.187-2.491-1.772-5.968-1.293-7.833,1.155-1.887,2.443-1.448,5.914.912,7.869-.05.058-.101.116-.151.174-2.288-2.052-5.782-1.966-7.907.265-2.153,2.203-2.133,5.697.003,7.907-.056.052-.112.105-.169.157-2.032-2.281-5.511-2.593-7.906-.652-2.369,1.967-2.741,5.441-.892,7.878-.062.045-.121.093-.183.138-1.75-2.524-5.177-3.228-7.783-1.555-2.586,1.677-3.352,5.102-1.765,7.717-.068.038-.133.082-.201.12-1.459-2.711-4.798-3.821-7.572-2.435v-.027c-2.772,1.385-3.907,4.673-2.643,7.487-.069.029-.141.054-.21.083-1.13-2.881-4.333-4.352-7.254-3.281-2.963,1.086-4.485,4.344-3.424,7.303.001.004.004.006.005.01l-.195.071c-1.06-2.959-4.348-4.479-7.309-3.42-2.96,1.085-4.481,4.365-3.399,7.322l-.187.068s0-.004-.001-.006c-1.087-2.959-4.374-4.479-7.336-3.394-2.963,1.087-4.485,4.344-3.397,7.304,0,.002.002.003.003.005l-.196.071c-1.088-2.956-4.346-4.474-7.307-3.416-2.96,1.085-4.481,4.368-3.424,7.326l-.188.068s-.001-.007-.002-.01c-1.087-2.959-4.347-4.479-7.309-3.394-2.761,1.012-4.241,3.911-3.552,6.697-.016.221-.021.442-.01.668l-.059.021c-.283-.781-.719-1.503-1.324-2.092-1.304-1.303-3.288-1.928-5.136-1.548-.353.082-.734.191-1.06.326-.353.135-.679.326-1.004.516-.3.217-.598.461-.843.707-1.087,1.086-1.685,2.552-1.685,4.045,0,.353.028.733.109,1.114.081.353.19.705.326,1.059.135.353.325.679.516.977.218.326.462.624.734.868.244.272.543.516.843.707.325.217.651.379,1.004.542.326.137.707.245,1.06.326.381.054.734.109,1.115.109,1.494,0,2.961-.624,4.022-1.684,1.087-1.058,1.685-2.524,1.685-4.018,0-.189-.037-.372-.055-.559.74,2.407,2.961,4.035,5.435,4.035.379,0,.76-.054,1.141-.109,2.772-.57,4.673-3.069,4.564-5.81.979,2.58,3.696,4.153,6.468,3.583,2.772-.542,4.673-3.04,4.592-5.783.951,2.58,3.669,4.127,6.44,3.583,2.772-.57,4.673-3.04,4.592-5.783.951,2.552,3.669,4.127,6.467,3.557,2.772-.542,4.674-3.041,4.566-5.783.978,2.578,3.695,4.127,6.467,3.583,2.772-.57,4.673-3.041,4.592-5.783.951,2.552,3.669,4.127,6.44,3.557,2.798-.544,4.673-3.041,4.592-5.783.978,2.578,3.669,4.127,6.467,3.583,2.907-.598,4.864-3.285,4.538-6.19,1.304,2.687,4.511,3.936,7.309,2.796,2.8-1.168,4.213-4.29,3.233-7.114,1.903,2.308,5.273,2.769,7.745,1.005,2.473-1.764,3.098-5.132,1.495-7.656,2.363,1.819,5.787,1.521,7.798-.787,1.984-2.281,1.822-5.702-.325-7.82,2.744,1.25,6.005.163,7.418-2.524,1.413-2.688.462-5.973-2.092-7.521,2.935.57,5.842-1.249,6.602-4.181.707-2.743-.706-5.539-3.206-6.652,2.744.245,5.326-1.493,6.032-4.236.707-2.741-.706-5.537-3.206-6.651,2.717.244,5.326-1.521,6.032-4.262.707-2.743-.706-5.539-3.233-6.626,2.745.245,5.326-1.519,6.033-4.262.706-2.741-.707-5.539-3.207-6.652,2.717.272,5.326-1.493,6.033-4.234.706-2.743-.707-5.539-3.207-6.652,2.717.244,5.299-1.521,6.005-4.236.707-2.741-.679-5.539-3.207-6.652,2.745.245,5.326-1.519,6.033-4.262.706-2.741-.707-5.511-3.207-6.624,2.717.244,5.326-1.521,6.005-4.262.734-2.743-.679-5.539-3.206-6.652,2.744.244,5.326-1.493,6.032-4.236.724-2.819-.768-5.638-3.395-6.692.235.027.47.067.705.067,1.494,0,2.961-.598,4.022-1.684Z" style="fill: #8dd44c;"/>
          <g>
            <path d="M829.097,153.656c-.354,0-.734-.054-1.115-.109-.353-.081-.707-.19-1.06-.326-.353-.135-.679-.325-.978-.516-.326-.216-.625-.461-.869-.733-1.06-1.058-1.685-2.524-1.685-4.018s.625-2.985,1.685-4.045c.244-.244.543-.489.869-.707.299-.19.625-.379.978-.516.353-.135.707-.244,1.06-.326.734-.135,1.494-.135,2.228,0,.381.082.734.191,1.06.326.353.137.679.326,1.006.516.299.217.597.463.869.707,1.06,1.059,1.657,2.552,1.657,4.045s-.597,2.96-1.657,4.018c-.272.272-.571.517-.869.733-.326.191-.653.38-1.006.516-.326.137-.679.245-1.06.326-.353.054-.734.109-1.113.109Z" style="fill: #8dd44c;"/>
            <path d="M879.883,166.634h0c-1.957-1.114-3.017-3.204-2.88-5.321h0c-1.278,1.928-3.669,2.959-6.059,2.389h0c-2.608-.598-4.376-2.932-4.402-5.484h0c-1.169,2.28-3.777,3.557-6.386,2.932h0c-2.608-.624-4.374-2.932-4.402-5.512h0c-1.168,2.308-3.776,3.585-6.385,2.96h0c-2.608-.626-4.376-2.932-4.402-5.512h0c-1.169,2.308-3.777,3.583-6.386,2.959h0c-3.07-.733-4.973-3.801-4.239-6.842h0c.734-3.068,3.804-4.967,6.875-4.234h0c2.608.597,4.374,2.931,4.374,5.484h0c1.169-2.281,3.804-3.557,6.412-2.932h0c2.608.597,4.374,2.932,4.374,5.484h0c1.169-2.281,3.805-3.557,6.414-2.932h0c2.608.597,4.374,2.932,4.374,5.484h0c1.169-2.281,3.804-3.557,6.412-2.932h0c2.745.651,4.566,3.176,4.376,5.919h0c1.629-2.471,4.945-3.313,7.581-1.792h0c2.744,1.547,3.695,5.05,2.119,7.764h0c-1.032,1.847-2.961,2.878-4.945,2.878h0c-.951,0-1.929-.244-2.826-.76Z" style="fill: #8dd44c;"/>
          </g>
          <g>
            <path d="M752.525,224.71c19.671,0,34.051-18.549,29.133-37.579l-60.81-235.314c-3.513-13.593-15.784-23.091-29.836-23.091h0c-14.051,0-26.323,9.497-29.836,23.091l-23.067,89.261c-4.242,16.416-17.507,28.962-34.144,32.295l-72.089,14.442c-32.304,6.472-55.551,34.818-55.551,67.738h0c0,38.155,30.957,69.086,69.144,69.086h45.205l-.018.072h161.868Z" style="fill: #54b7b7;"/>
            <g style="clip-path: url(#clippath-12);">
              <g>
                <g>
                  <polygon points="774.065 237.294 567.533 237.03 567.533 237.162 479.443 237.162 479.443 -58.822 775.22 -58.822 774.065 237.294" style="fill: #5ac4c3; fill-rule: evenodd;"/>
                  <g style="clip-path: url(#clippath-13);">
                    <polygon points="644.721 243.542 606.282 261.384 789.664 -136.525 821.173 -150.765 644.721 243.542" style="fill: #baeffc; fill-opacity: .176; fill-rule: evenodd;"/>
                    <polygon points="582.243 247.928 474.304 265.771 657.686 -132.138 758.695 -146.378 582.243 247.928" style="fill: #baeffc; fill-opacity: .176; fill-rule: evenodd;"/>
                    <polygon points="727.849 258.404 669.78 261.642 797.407 -16.644 820.115 55.986 727.849 258.404" style="fill: #baeffc; fill-opacity: .176; fill-rule: evenodd;"/>
                  </g>
                </g>
                <g>
                  <polygon points="663.044 -58.822 661.231 -58.822 658.491 -58.822 657.399 -58.822 657.399 237.162 658.274 237.162 659.289 237.162 660.086 237.162 662.826 237.162 663.919 237.162 663.919 -58.822 663.044 -58.822" style="fill: #4aa2b2;"/>
                  <polygon points="594.576 -58.822 591.837 -58.822 590.744 -58.822 590.744 237.162 591.619 237.162 592.634 237.162 593.432 237.162 596.171 237.162 597.264 237.162 597.264 -58.822 596.389 -58.822 594.576 -58.822" style="fill: #4aa2b2;"/>
                  <polygon points="527.915 -58.822 525.175 -58.822 524.09 -58.822 524.09 237.162 525.456 237.162 525.98 237.162 527.582 237.162 530.034 237.162 530.61 237.162 530.61 -58.822 529.731 -58.822 527.915 -58.822" style="fill: #4aa2b2;"/>
                  <polygon points="727.885 -58.822 725.146 -58.822 724.053 -58.822 724.053 237.162 724.928 237.162 725.943 237.162 726.741 237.162 729.48 237.162 730.573 237.162 730.573 -58.822 729.698 -58.822 727.885 -58.822" style="fill: #4aa2b2;"/>
                </g>
              </g>
              <g>
                <path d="M751.934,199.455l-.004-.011-59.154-230.29-23.628,96.186c-6.212,25.285-26.73,44.932-52.267,50.062l-74.104,14.881c-19.002,3.816-30.809,17.019-30.809,34.454v50.711c0,3.718.587,7.365,1.646,10.829,3.585,2.537,7.478,4.662,11.642,6.273l.799.275c5.58,1.696,11.32,2.702,17.108,3.007v.208l198.138.074,3.236-5.98c.197-.364.958-1.548,2.478-1.548.645,0,1.279-.066,1.916-.109.815-10.873,1.532-23.928,2.1-24.661.981-1.266,1.304-2.814.903-4.361ZM579.549,213.534l.264.071-.264-.071Z" style="fill: none;"/>
                <path d="M774.042,193.772l-60.778-236.585c-2.132-9.621-10.848-16.607-20.722-16.607-10.87,0-19.392,8.099-21.261,20.408l-24.296,98.915c-4.116,16.737-17.695,29.747-34.598,33.14l-74.104,14.881c-29.393,5.902-49.139,28.734-49.139,56.814v13.341c0,19.553,9.465,37.577,24.471,48.199-1.059-3.464-1.646-7.111-1.646-10.829v-50.711c0-17.435,11.806-30.638,30.809-34.454l74.104-14.881c25.537-5.13,46.055-24.777,52.267-50.062l23.628-96.186,59.154,230.29.004.011c.401,1.548.078,3.096-.903,4.361-.568.733-1.285,13.788-2.1,24.661,7.947-.536,15.212-4.336,20.14-10.693,5.324-6.86,7.133-15.612,4.971-24.012ZM691.048-37.594c0,.011.004.026.007.037-.004-.011-.007-.026-.007-.037Z" style="fill: #4aa2b2; opacity: .35;"/>
              </g>
            </g>
            <path d="M546.882,224.525c-6.088,0-11.961-.924-17.504-2.61-18.291-7.074-28.823-25.675-28.823-43.837v-13.341c0-22.847,15.689-40.757,39.974-45.634l74.104-14.881c21.22-4.261,38.269-20.59,43.432-41.599l24.296-98.918c.104-.419.186-.843.253-1.269.762-5.052,3.771-10.453,9.927-10.453,4.566,0,8.597,3.226,9.581,7.669.037.152.071.308.111.46l60.752,236.496c1.282,4.967.208,10.141-2.935,14.194-3.147,4.057-7.898,6.381-13.036,6.381-5.433,0-10.101,3.066-12.516,7.527h21.391c20.208,0,34.982-19.057,29.93-38.607l-62.472-241.749c-3.609-13.965-16.216-23.722-30.652-23.722s-27.043,9.757-30.652,23.722l-23.698,91.702c-4.358,16.865-17.985,29.754-35.078,33.178l-74.061,14.837c-33.188,6.648-57.07,35.77-57.07,69.59,0,39.199,31.803,70.975,71.035,70.975h33.787c-.19-.025-.358-.112-.554-.112h-29.523Z" style="fill: #f3ffff;"/>
          </g>
          <g>
            <g style="clip-path: url(#clippath-14);">
              <g>
                <g>
                  <polygon points="881.12 237.294 674.588 237.03 674.588 237.162 586.498 237.162 586.498 -58.822 882.275 -58.822 881.12 237.294" style="fill: #5ac4c3; fill-rule: evenodd;"/>
                  <g style="clip-path: url(#clippath-15);">
                    <polygon points="674.175 247.928 566.237 265.771 749.618 -132.138 850.627 -146.378 674.175 247.928" style="fill: #baeffc; fill-opacity: .176; fill-rule: evenodd;"/>
                    <polygon points="835.487 258.404 800.059 261.642 927.686 -16.644 927.752 55.986 835.487 258.404" style="fill: #baeffc; fill-opacity: .176; fill-rule: evenodd;"/>
                  </g>
                </g>
                <g>
                  <polygon points="770.099 -58.822 768.286 -58.822 765.546 -58.822 764.454 -58.822 764.454 237.162 765.329 237.162 766.344 237.162 767.141 237.162 769.881 237.162 770.974 237.162 770.974 -58.822 770.099 -58.822" style="fill: #4aa2b2;"/>
                  <polygon points="701.631 -58.822 698.892 -58.822 697.799 -58.822 697.799 237.162 698.674 237.162 699.689 237.162 700.487 237.162 703.226 237.162 704.319 237.162 704.319 -58.822 703.444 -58.822 701.631 -58.822" style="fill: #4aa2b2;"/>
                  <polygon points="634.97 -58.822 632.23 -58.822 631.145 -58.822 631.145 237.162 632.511 237.162 633.035 237.162 634.637 237.162 637.089 237.162 637.665 237.162 637.665 -58.822 636.786 -58.822 634.97 -58.822" style="fill: #4aa2b2;"/>
                  <polygon points="834.94 -58.822 832.201 -58.822 831.108 -58.822 831.108 237.162 831.983 237.162 832.998 237.162 833.796 237.162 836.535 237.162 837.628 237.162 837.628 -58.822 836.753 -58.822 834.94 -58.822" style="fill: #4aa2b2;"/>
                </g>
              </g>
              <g style="opacity: .35;">
                <path d="M687.894,256.41l-20.596-9.837s28.331-59.22,33.242-69.45l67.201-142.552c5.339-10.954,16.094-17.672,28.13-17.672,18.999,0,28.94,15.69,28.94,31.191l.082,187.744-22.825.007-.082-187.748c0-1.971-.442-8.389-6.115-8.389-3.284,0-6.104,1.763-7.545,4.722l-67.172,142.488c-4.945,10.297-33.261,69.494-33.261,69.494Z" style="fill: #4aa2b2;"/>
              </g>
            </g>
            <path d="M871.257,158.582l-42.155-10.631V38.252c0-18.231-14.452-33.43-32.695-33.81-11.752-.245-22.048,5.653-28.297,14.545l-109.46,151.835c-4.16,5.771-6.405,12.7-6.419,19.812-.036,18.809,15.214,34.077,34.039,34.077h46.34c-1.87,0-3.695-.22-5.494-.536-6.59-1.791-11.97-5.606-15.526-11.252-5.561-8.834-5.985-20.638-1.074-30.864l67.235-142.626c3.347-6.863,10.172-11.128,17.806-11.128,12.04,0,17.528,10.256,17.528,19.788l.082,156.23c0,5.715-2.272,10.988-5.896,14.915-4.161,3.417-9.482,5.473-15.276,5.474h30.542c4.136-6.317,6.564-13.848,6.564-21.944v-3.014h35.437c10.339,0,12.512,7.079,12.512,13.014,0,8.935-6.632,11.234-10.857,11.792-.429.04-.849.119-1.284.126-.277.018-.487.019-.723.026h.2c18.474,0,33.758-14.808,33.819-33.266.054-16.277-11.555-29.849-26.95-32.862Z" style="fill: #f3ffff;"/>
          </g>
        </g>
        <g>
          <path d="M611.199,661.07V94.613c0-9.071-7.354-16.425-16.425-16.425h0c-7.211,0-13.578,4.703-15.698,11.594l-6.816,22.153h0c-5.047,16.544-14.094,31.588-26.341,43.802l-39.085,38.981c-12.405,12.372-19.376,29.171-19.376,46.691v419.66h123.741Z" style="fill: #a6ede5; fill-rule: evenodd;"/>
          <path d="M611.728,656.253V152.777c0-4.663-3.78-8.443-8.443-8.443h0c-3.293,0-6.286,1.915-7.666,4.906h0c-10.406,22.553-25.746,42.48-44.887,58.309l-61.439,50.808c-16.721,13.828-26.401,34.394-26.401,56.092v341.803h148.836Z" style="fill: #57bdc2; fill-rule: evenodd;"/>
          <g style="clip-path: url(#clippath-17);">
            <path d="M586.58,71.266v6.923h2.311c8.79,0,15.916,7.126,15.916,15.916v10.311h6.922v-33.149h-25.148Z" style="fill: #57bdc2; fill-rule: evenodd;"/>
            <path d="M579.776,176.44s9.346-12.34,15.844-27.2c6.001-13.724,9.186-15.702,9.186-44.825,0-6.901,6.923-7.267,6.923-.188v72.213h-31.953Z" style="fill: #57bdc2; fill-rule: evenodd;"/>
          </g>
          <g>
            <path d="M463.157,660.805v-346.354c0-21.693,9.588-42.063,26.306-55.889l61.439-50.808c19.054-15.758,34.601-35.953,44.958-58.402,1.332-2.887,4.247-4.752,7.426-4.752,4.509,0,8.178,3.669,8.178,8.178v508.027h-148.307Z" style="fill: #f6ffff; fill-rule: evenodd;"/>
            <path d="M603.286,144.865c4.363,0,7.913,3.549,7.913,7.913v507.763h-147.776v-346.09c0-21.614,9.553-41.91,26.209-55.684l61.439-50.808c19.084-15.782,34.655-36.01,45.03-58.496,1.289-2.793,4.109-4.598,7.185-4.598M603.286,144.335c-3.293,0-6.286,1.915-7.666,4.906h0c-10.406,22.553-25.746,42.48-44.887,58.309l-61.439,50.808c-16.721,13.828-26.401,34.394-26.401,56.092v346.62h148.836V152.777c0-4.663-3.78-8.442-8.443-8.442h0Z" style="fill: #f6ffff;"/>
          </g>
          <g style="clip-path: url(#clippath-18);">
            <g>
              <path d="M605.071,104.15v-10.046c0-8.922-7.258-16.181-16.18-16.181h-2.046v-6.394h24.619v32.62h-6.393Z" style="fill: #f6ffff; fill-rule: evenodd;"/>
              <path d="M611.199,71.796v32.09h-5.863v-9.782c0-9.068-7.377-16.445-16.445-16.445h-1.781v-5.863h24.089M611.728,71.266h-25.148v6.922h2.311c8.79,0,15.915,7.125,15.915,15.916v10.312h6.922v-33.149h0Z" style="fill: #f6ffff;"/>
            </g>
            <g>
              <path d="M580.301,176.176c1.688-2.301,9.793-13.64,15.561-26.829.859-1.965,1.66-3.688,2.403-5.285,4.388-9.438,6.805-14.638,6.805-39.646,0-3.331,1.66-5.073,3.299-5.073,1.49,0,3.094,1.529,3.094,4.886v71.948h-31.163Z" style="fill: #f6ffff; fill-rule: evenodd;"/>
              <path d="M608.37,99.606h0c1.362,0,2.828,1.446,2.828,4.621v71.683h-30.377c2.207-3.048,9.8-13.918,15.283-26.458.858-1.961,1.642-3.648,2.401-5.28,4.404-9.473,6.83-14.691,6.83-39.757,0-3.157,1.527-4.809,3.035-4.809M608.37,99.077c-1.764,0-3.564,1.82-3.564,5.339,0,29.123-3.185,31.102-9.186,44.825-6.498,14.859-15.844,27.2-15.844,27.2h31.953v-72.213c0-3.47-1.663-5.151-3.358-5.151h0Z" style="fill: #f6ffff;"/>
            </g>
          </g>
          <g style="clip-path: url(#clippath-19);">
            <path d="M611.728,172.071l-5.372,11.644c-8.36,18.119-20.675,34.133-36.041,46.864l-81.021,67.13c-16.721,13.828-26.401,34.394-26.401,56.092v-35.484c0-21.698,9.68-42.265,26.401-56.092l81.021-67.13c15.365-12.731,27.681-28.745,36.041-46.864l5.372-11.644v35.484Z" style="fill: #e8f3fd; fill-rule: evenodd; mix-blend-mode: multiply;"/>
          </g>
        </g>
        <path d="M1522.572,298.263l-63.15-63.15c-4.975-4.975-11.722-7.77-18.757-7.77h-30.492c-28.099,0-50.878-22.779-50.878-50.878V-62.102c0-12.753-10.338-23.091-23.091-23.091h-184.35c-12.701,0-23.018,10.258-23.091,22.959l-1.423,248.128c-.076,13.304,5.138,26.094,14.494,35.553l188.902,190.98c4.975,4.975,7.769,11.722,7.769,18.757v102.907c0,6.937-2.615,13.7-7.567,18.557-16.914,16.589-5.311,45.241,18.284,45.482l106.272,1.084c7.129.073,13.987-2.727,19.028-7.768l48.049-48.049c4.975-4.975,7.769-11.722,7.769-18.757v-207.621c0-7.035-2.795-13.782-7.769-18.757Z" style="fill: #4aa280; fill-rule: evenodd; stroke: #4aa280; stroke-dasharray: 0 10; stroke-linecap: round; stroke-linejoin: round; stroke-width: 10px;"/>
        <g>
          <rect x="1225.488" y="110.097" width="8.056" height="98.607" transform="translate(2459.032 318.802) rotate(-180)" style="fill: #dcf8f1;"/>
          <ellipse cx="1185.229" cy="160.101" rx="26.183" ry="26.161" style="fill: #c7ebf7;"/>
          <ellipse cx="1185.229" cy="160.101" rx="20.141" ry="20.124" style="fill: #49a198;"/>
          <ellipse cx="1267.807" cy="158.088" rx="20.141" ry="20.124" style="fill: #c7ebf7;"/>
          <ellipse cx="1267.807" cy="158.088" rx="14.099" ry="14.087" style="fill: #6fbfbc;"/>
          <ellipse cx="1229.516" cy="110.097" rx="30.211" ry="30.186" style="fill: #c7ebf7;"/>
          <g>
            <ellipse cx="1229.516" cy="110.097" rx="24.169" ry="24.149" style="fill: #49a198;"/>
            <g style="clip-path: url(#clippath-22);">
              <path d="M1209.156,125.063c-.579-.868-.897-1.893-.897-2.951h0c0-2.088,1.227-4.05,3.282-4.924.684-.291,1.431-.404,2.173-.404h14.809c2.666,0,5.208-1.132,6.991-3.112,2.051-2.277,3.985-4.424,5.455-6.056,1.726-1.916,4.184-3.009,6.764-3.009h22.056c2.83,0,5.48,1.64,6.526,4.267,1.43,3.591-.308,7.605-3.954,9.007-.787.303-1.634.425-2.477.425h-1.613l-7.709,23.128h-37.013l-18.454-15.58,4.061-.79Z" style="fill: #a7cc40; fill-rule: evenodd;"/>
            </g>
          </g>
        </g>
        <path d="M65.183,147.603c-.798-.166-1.408-.783-1.529-1.546-.121-.764.272-1.512.985-1.875.607-.309,1.163-.593,1.584-.808.497-.254.85-.702.966-1.226.098-.444.227-1.031.368-1.671.166-.753.81-1.322,1.616-1.427.805-.105,1.601.276,1.995.955.335.578.642,1.108.874,1.509.274.474.752.813,1.309.929.47.098,1.093.228,1.771.369.798.166,1.408.783,1.529,1.547.121.763-.272,1.512-.985,1.875-.607.309-1.163.593-1.584.808-.497.254-.85.702-.966,1.226-.098.444-.227,1.031-.368,1.671-.166.752-.81,1.322-1.616,1.427-.805.105-1.601-.276-1.995-.955-.335-.578-.642-1.108-.874-1.509-.274-.474-.752-.813-1.309-.929-.47-.098-1.092-.228-1.771-.369Z" style="fill: #e3c341; fill-rule: evenodd;"/>
        <g style="opacity: .331;">
          <path d="M1191.593,65.044c1.232,0,2.231-1,2.231-2.236v-7.001c0-1.236-.999-2.236-2.231-2.236-1.232,0-2.231,1-2.231,2.236v7.001c0,1.236.999,2.236,2.231,2.236Z" style="fill: #00703a;"/>
          <path d="M1182.279,65.044c1.232,0,2.231-1,2.231-2.236v-4.667c0-1.236-.999-2.236-2.231-2.236s-2.231,1-2.231,2.236v4.667c0,1.236.999,2.236,2.231,2.236Z" style="fill: #00703a;"/>
          <path d="M1200.132,65.044c1.232,0,2.231-1,2.231-2.236v-4.667c0-1.236-.999-2.236-2.231-2.236-1.232,0-2.231,1-2.231,2.236v4.667c0,1.236.999,2.236,2.231,2.236Z" style="fill: #00703a;"/>
          <path d="M1166.463,83.522c1.232,0,2.231-1,2.231-2.236v-7.001c0-1.236-.999-2.236-2.231-2.236-1.232,0-2.231,1-2.231,2.236v7.001c0,1.236.999,2.236,2.231,2.236Z" style="fill: #00703a;"/>
          <path d="M1157.149,83.522c1.232,0,2.231-1,2.231-2.236v-4.669c0-1.236-.999-2.236-2.231-2.236s-2.231,1-2.231,2.236v4.669c0,1.236.999,2.236,2.231,2.236Z" style="fill: #00703a;"/>
          <path d="M1175,83.522c1.232,0,2.231-1,2.231-2.236v-4.669c0-1.236-.999-2.236-2.231-2.236-1.232,0-2.231,1-2.231,2.236v4.669c0,1.236.999,2.236,2.231,2.236Z" style="fill: #00703a;"/>
          <path d="M1157.83,44.816c1.232,0,2.231-1,2.231-2.236v-7.001c0-1.236-.999-2.236-2.231-2.236-1.232,0-2.231,1-2.231,2.236v7.001c0,1.236.999,2.236,2.231,2.236Z" style="fill: #00703a;"/>
          <path d="M1148.515,44.816c1.232,0,2.231-1,2.231-2.236v-4.669c0-1.236-.999-2.236-2.231-2.236s-2.231,1-2.231,2.236v4.669c0,1.236.999,2.236,2.231,2.236Z" style="fill: #00703a;"/>
          <path d="M1166.367,44.816c1.232,0,2.231-1,2.231-2.236v-4.669c0-1.236-.999-2.236-2.231-2.236s-2.231,1-2.231,2.236v4.669c0,1.236.999,2.236,2.231,2.236Z" style="fill: #00703a;"/>
        </g>
        <g>
          <rect x="1311.594" y="16.35" width="8.056" height="50.616" style="fill: #dcf8f1;"/>
          <rect x="1229.016" y="18.362" width="8.056" height="48.604" style="fill: #dcf8f1;"/>
          <rect x="1273.303" y="-31.641" width="8.056" height="98.607" transform="translate(2554.6622 35.3246) rotate(-180)" style="fill: #dcf8f1;"/>
          <ellipse cx="1233.044" cy="18.362" rx="26.183" ry="26.161" style="fill: #c7ebf7;"/>
          <g>
            <ellipse cx="1233.044" cy="18.362" rx="20.141" ry="20.124" style="fill: #49a198;"/>
            <g style="clip-path: url(#clippath-23);">
              <path d="M1216.078,30.833c-.482-.724-.747-1.577-.747-2.459h0c0-1.74,1.022-3.375,2.735-4.103.569-.242,1.192-.337,1.812-.337h12.34c2.222,0,4.34-.943,5.826-2.593,1.709-1.897,3.321-3.687,4.546-5.047,1.439-1.597,3.487-2.508,5.637-2.508h18.381c2.358,0,4.566,1.367,5.438,3.557,1.192,2.992-.256,6.337-3.294,7.505-.656.253-1.362.355-2.064.355h-1.344l-6.424,19.273h-30.844l-15.378-12.983,3.384-.659Z" style="fill: #a7cc40; fill-rule: evenodd;"/>
            </g>
          </g>
          <ellipse cx="1315.622" cy="16.35" rx="20.141" ry="20.124" style="fill: #c7ebf7;"/>
          <g>
            <ellipse cx="1315.622" cy="16.35" rx="14.099" ry="14.087" style="fill: #6fbfbc;"/>
            <g style="clip-path: url(#clippath-24);">
              <path d="M1303.746,25.08c-.338-.506-.523-1.104-.523-1.722h0c0-1.218.715-2.362,1.914-2.872.399-.169.835-.236,1.268-.236h8.638c1.555,0,3.038-.661,4.078-1.815,1.197-1.328,2.325-2.581,3.183-3.533,1.007-1.118,2.441-1.755,3.946-1.755h12.866c1.651,0,3.196.957,3.807,2.489.834,2.094-.18,4.436-2.306,5.254-.459.177-.953.248-1.445.248h-.941l-4.497,13.491h-21.591l-10.765-9.088,2.369-.461Z" style="fill: #a7cc40; fill-rule: evenodd;"/>
            </g>
          </g>
          <line x1="1206.861" y1="67.972" x2="1329.721" y2="67.972" style="fill: #4aa280; stroke: #4aa280; stroke-dasharray: 0 10; stroke-linecap: round; stroke-linejoin: round; stroke-width: 10px;"/>
        </g>
      </g>
    </g>
  </g>
</svg>