<?xml version="1.0" encoding="UTF-8"?>
<svg xmlns="http://www.w3.org/2000/svg" width="1500" height="145" xmlns:xlink="http://www.w3.org/1999/xlink" version="1.1" viewBox="0 0 1500 145">
  <!-- Generator: Adobe Illustrator 30.5.1, SVG Export Plug-In . SVG Version: 2.1.4 Build 3)  -->
  <defs>
    <clipPath id="clippath">
      <rect width="1500" height="145" style="fill: none;"/>
    </clipPath>
    <clipPath id="clippath-1">
      <ellipse cx="263.882" cy="107.831" rx="21.327" ry="21.309" style="fill: #49a198;"/>
    </clipPath>
    <clipPath id="clippath-2">
      <ellipse cx="176.443" cy="105.7" rx="14.929" ry="14.916" style="fill: #6fbfbc;"/>
    </clipPath>
    <clipPath id="clippath-3">
      <ellipse cx="216.989" cy="54.884" rx="25.592" ry="25.57" style="fill: #49a198;"/>
    </clipPath>
    <clipPath id="clippath-4">
      <ellipse cx="57.888" cy="126.629" rx="25.592" ry="25.57" style="fill: #49a198;"/>
    </clipPath>
    <clipPath id="clippath-5">
      <polygon points="993.673 451.393 912.728 451.138 912.728 484.333 827.568 484.333 827.568 267.014 994.789 185.27 993.673 451.393" style="clip-rule: evenodd; fill: none;"/>
    </clipPath>
    <clipPath id="clippath-6">
      <ellipse cx="943.359" cy="76.61" rx="21.327" ry="21.309" style="fill: #49a198;"/>
    </clipPath>
    <clipPath id="clippath-7">
      <ellipse cx="855.92" cy="74.479" rx="14.929" ry="14.916" style="fill: #6fbfbc;"/>
    </clipPath>
    <clipPath id="clippath-8">
      <ellipse cx="896.466" cy="23.663" rx="25.592" ry="25.57" style="fill: #49a198;"/>
    </clipPath>
    <clipPath id="clippath-11">
      <path d="M611.728,371.07V-127.859l-5.372,11.644c-8.36,18.119-20.675,34.133-36.041,46.864L489.294-2.221c-16.721,13.828-26.401,34.394-26.401,56.092v317.199h148.836Z" style="clip-rule: evenodd; fill: none;"/>
    </clipPath>
    <clipPath id="clippath-12">
      <path d="M677.821,47.008c-.096-.38-.011-.783.23-1.093.241-.309.611-.49,1.003-.49h6.723c.582,0,1.09.395,1.233.96.677,2.677,2.6,10.285,3.594,14.218.147.581.018,1.198-.351,1.67-.368.473-.934.749-1.534.749h-6.849s-2.955-11.691-4.049-16.015Z" style="clip-rule: evenodd; fill: none;"/>
    </clipPath>
    <clipPath id="clippath-15">
      <ellipse cx="1461.838" cy="136.895" rx="20.141" ry="20.124" style="fill: #49a198;"/>
    </clipPath>
    <clipPath id="clippath-16">
      <ellipse cx="1379.26" cy="134.882" rx="14.099" ry="14.087" style="fill: #6fbfbc;"/>
    </clipPath>
    <clipPath id="clippath-17">
      <ellipse cx="1417.551" cy="86.891" rx="24.169" ry="24.149" style="fill: #49a198;"/>
    </clipPath>
    <clipPath id="clippath-18">
      <path d="M986.646,19.62c0-11.768,9.548-21.309,21.327-21.309s21.327,9.54,21.327,21.309c0,11.769-9.548,21.309-21.327,21.309-11.779,0-21.327-9.54-21.327-21.309Z" style="clip-rule: evenodd; fill: #49a198;"/>
    </clipPath>
    <clipPath id="clippath-19">
      <path d="M1080.483,17.489c0-8.238,6.684-14.916,14.929-14.916s14.929,6.678,14.929,14.916c0,8.238-6.684,14.916-14.929,14.916-8.245,0-14.929-6.678-14.929-14.916Z" style="clip-rule: evenodd; fill: #6fbfbc;"/>
    </clipPath>
  </defs>
  <g style="isolation: isolate;">
    <g id="Details">
      <g style="clip-path: url(#clippath);">
        <rect x="-10.125" y="-2453.498" width="1520.249" height="3053.416" style="fill: #61d1d5;"/>
        <path d="M-31.619,658.82V-457.869h439.79c24.414,0,47.365,9.507,64.629,26.77l88.768,88.769c9.708,9.707,22.615,15.054,36.344,15.054h270.975c15.867,0,31.084,6.303,42.304,17.523l31.302,31.302c11.299,11.3,17.521,26.323,17.521,42.304v36.879c0,28.387,23.012,51.399,51.399,51.399h0c28.387,0,51.399-23.012,51.399-51.399v-159.383c0-50.478,40.92-91.398,91.398-91.398h173.96c50.397,0,91.398,41.002,91.398,91.399l.529,144.191c1.499,21.417,19.367,38.12,40.891,38.12h111.087V375.178h-238.168c-43.687,0-79.103-35.415-79.103-79.103v-63.47c0-29.481-23.899-53.381-53.381-53.381h-55.92c-29.481,0-53.381,23.899-53.381,53.381v100.962c0,21.13-8.229,40.994-23.169,55.934l-141.512,141.513c-18.283,18.283-42.592,28.353-68.448,28.353H-40.344c-13.73,0-28.235,72.685-28.235,72.685-17.263,17.263,290.517,26.77,266.104,26.77H-31.619Z" style="fill: #4eeae6;"/>
        <path d="M913.301,511.352l141.513-141.513c11.084-11.084,17.311-26.117,17.311-41.792v-100.962c0-40.527,32.854-73.381,73.381-73.381h55.92c40.527,0,73.381,32.854,73.381,73.381v63.47c0,32.641,26.461,59.102,59.102,59.102h218.168s0-505.586,0-505.586h-91.087c-32.307,0-59.01-25.192-60.888-57.445l-.532-144.867c0-39.432-31.966-71.399-71.398-71.399h-173.96c-39.432,0-71.399,31.966-71.399,71.399V-23.607c0,16.501-13.377,29.877-29.877,29.877h-83.042c-16.501,0-29.877-13.377-29.877-29.877v-212.129c0-10.563-4.196-20.693-11.665-28.161l-31.302-31.302c-7.469-7.469-17.599-11.665-28.161-11.665h-270.975c-18.936,0-37.097-7.522-50.486-20.912l-88.768-88.768c-13.39-13.39-31.551-20.912-50.487-20.912H-11.618v971.858h870.614c20.369,0,39.903-8.646,54.306-23.049Z" style="fill: #d6f0f0;"/>
        <path d="M-518.423,24.719l176.088,53.511c13.398-13.398,31.57-20.925,50.518-20.925H249.045c20.578,0,40.553,6.944,56.694,19.708l60.702,48.004c16.141,12.764,36.116,19.708,56.694,19.708h459.899c18.948,0,37.12,7.527,50.518,20.925l35.93,35.93c13.398,13.398,20.925,31.57,20.925,50.518v57.349c0,18.948-7.527,37.12-20.925,50.518l-64.521,64.521c-13.398,13.398-31.57,20.925-50.518,20.925h-501.716c-18.948,0-37.12-7.527-50.518-20.925l-49.313-49.313c-13.398-13.398-31.57-20.925-50.518-20.925H-142.156c-18.948,0-37.12,7.527-50.518,20.925l-83.526,83.526c-13.398,13.398-31.57,20.925-50.518,20.925h-91.99c-18.948,0-37.12-7.527-50.518-20.925l-43.108-43.108c-13.398-13.398-20.925-31.57-20.925-50.518v47.102c0-18.948,7.527-37.12,20.925-50.518l45.628-45.628c13.398-13.398,20.925-31.57,20.925-50.518v-37.519c0-18.948-7.527-37.12-20.925-50.518l-51.718-51.718c-13.444-13.444-20.975-31.692-20.925-50.705h0c.049-18.883,7.573-36.978,20.925-50.331Z" style="fill: #c2e6e4;"/>
        <g>
          <path d="M444.7-141.597l-7.082-7.082c-6.897-6.896-16.25-10.771-26.003-10.771h-165.681c-19.013,0-37.247-7.553-50.691-20.997l-24.496-24.496c-13.444-13.444-20.997-31.679-20.997-50.692h0c0-39.593-32.096-71.689-71.688-71.689H-5.367s0,382.286,0,382.286h-15.768v196.741h210.985c25.021,0,47.61-13.01,62.354-33.225.634-.869,1.338-1.693,2.108-2.463l53.343-53.343c3.921-3.921,6.123-9.238,6.123-14.783v-50.807c0-5.545-2.203-10.862-6.123-14.783l-21.212-21.212c-3.921-3.921-9.238-6.123-14.783-6.123h-105.067c-12.885,0-25.243-5.119-34.355-14.23l-21.072-21.072c-10.115-10.115-15.797-23.834-15.797-38.139h0c0-29.789,24.148-53.937,53.937-53.937h262.987c9.753,0,19.107-3.874,26.003-10.771l5.821-5.821c5.049-5.048,8.812-11.325,10.41-18.283,2.89-12.584-.984-25.465-9.827-34.307Z" style="fill: #4aa280; fill-rule: evenodd;"/>
          <path d="M-11.138,251.704h200.988c25.021,0,47.61-13.01,62.354-33.225.634-.869,1.338-1.693,2.108-2.463l53.343-53.344c3.921-3.92,6.123-9.238,6.123-14.783v-50.808c0-5.544-2.203-10.862-6.123-14.783l-21.212-21.212c-3.921-3.92-9.238-6.123-14.783-6.123h-105.067c-12.885,0-25.243-5.119-34.355-14.23l-21.072-21.072c-10.115-10.115-15.797-23.834-15.797-38.139,0-29.789,24.148-53.937,53.937-53.937h262.987c9.753,0,19.107-3.874,26.003-10.771l5.821-5.821c5.049-5.048,8.812-11.325,10.41-18.283,2.89-12.583-.984-25.465-9.827-34.308l-7.082-7.082c-6.897-6.896-16.25-10.771-26.003-10.771h-165.681c-19.013,0-37.247-7.553-50.691-20.997l-24.496-24.497c-13.444-13.444-20.997-31.678-20.997-50.691h0c0-39.593-32.096-71.689-71.688-71.689H-.368" style="fill: none; stroke: #4aa280; stroke-dasharray: 0 9.998; stroke-linecap: round; stroke-linejoin: round; stroke-width: 10px;"/>
        </g>
        <g>
          <rect x="172.178" y="105.7" width="8.531" height="53.596" transform="translate(352.886 264.996) rotate(-180)" style="fill: #dcf8f1;"/>
          <rect x="259.617" y="107.831" width="8.531" height="51.465" transform="translate(527.764 267.127) rotate(-180)" style="fill: #dcf8f1;"/>
          <rect x="212.723" y="54.884" width="8.531" height="104.412" style="fill: #dcf8f1;"/>
          <ellipse cx="263.882" cy="107.831" rx="27.725" ry="27.701" style="fill: #c7ebf7;"/>
          <g>
            <ellipse cx="263.882" cy="107.831" rx="21.327" ry="21.309" style="fill: #49a198;"/>
            <g style="clip-path: url(#clippath-1);">
              <path d="M281.848,121.036c.51-.766.791-1.67.791-2.604h0c0-1.843-1.082-3.574-2.896-4.344-.603-.257-1.263-.357-1.918-.357h-13.067c-2.353,0-4.595-.999-6.169-2.746-1.81-2.009-3.517-3.904-4.814-5.344-1.523-1.691-3.692-2.655-5.969-2.655h-3.481s-6.557,0-12.541,0h-3.441c-2.497,0-4.835,1.448-5.758,3.766-1.263,3.168.272,6.71,3.488,7.947.695.267,1.442.376,2.186.376h1.423s6.803,20.407,6.803,20.407h32.66s16.284-13.748,16.284-13.748l-3.583-.697Z" style="fill: #a7cc40; fill-rule: evenodd;"/>
            </g>
          </g>
          <ellipse cx="176.443" cy="105.7" rx="21.327" ry="21.309" style="fill: #c7ebf7;"/>
          <g>
            <ellipse cx="176.443" cy="105.7" rx="14.929" ry="14.916" style="fill: #6fbfbc;"/>
            <g style="clip-path: url(#clippath-2);">
              <path d="M189.019,114.944c.358-.536.554-1.169.554-1.823h0c0-1.29-.758-2.502-2.027-3.041-.422-.179-.884-.25-1.342-.25h-9.147c-1.647,0-3.217-.699-4.318-1.922-1.267-1.407-2.462-2.733-3.37-3.741-1.066-1.184-2.585-1.859-4.178-1.859h-2.436s-4.59,0-8.779,0h-2.408c-1.748,0-3.384,1.013-4.031,2.636-.883,2.218.19,4.697,2.442,5.563.486.187,1.009.263,1.53.263h.996s4.762,14.285,4.762,14.285h22.862s11.399-9.623,11.399-9.623l-2.508-.488Z" style="fill: #a7cc40; fill-rule: evenodd;"/>
            </g>
          </g>
          <ellipse cx="216.989" cy="54.884" rx="31.99" ry="31.963" style="fill: #c7ebf7;"/>
          <g>
            <ellipse cx="216.989" cy="54.884" rx="25.592" ry="25.57" style="fill: #49a198;"/>
            <g style="clip-path: url(#clippath-3);">
              <path d="M238.547,70.73c.613-.919.95-2.004.95-3.125h0c0-2.211-1.299-4.289-3.475-5.213-.724-.308-1.515-.428-2.301-.428h-15.68c-2.823,0-5.514-1.199-7.403-3.295-2.172-2.411-4.219-4.684-5.776-6.413-1.828-2.029-4.43-3.186-7.162-3.186h-4.177s-7.869,0-15.05,0h-4.128c-2.997,0-5.802,1.737-6.91,4.518-1.515,3.802.326,8.052,4.186,9.537.834.32,1.73.45,2.623.45h1.708s8.163,24.489,8.163,24.489h39.192s19.541-16.497,19.541-16.497l-4.3-.837Z" style="fill: #a7cc40; fill-rule: evenodd;"/>
            </g>
          </g>
        </g>
        <g>
          <rect x="53.623" y="126.629" width="8.531" height="104.412" transform="translate(115.776 357.67) rotate(-180)" style="fill: #dcf8f1;"/>
          <ellipse cx="57.888" cy="126.629" rx="31.99" ry="31.963" style="fill: #c7ebf7;"/>
          <g>
            <ellipse cx="57.888" cy="126.629" rx="25.592" ry="25.57" style="fill: #49a198;"/>
            <g style="clip-path: url(#clippath-4);">
              <path d="M36.33,142.475c-.613-.919-.95-2.004-.95-3.125h0c0-2.211,1.299-4.289,3.475-5.213.724-.308,1.515-.428,2.301-.428h15.68c2.823,0,5.514-1.199,7.403-3.295,2.172-2.411,4.219-4.684,5.776-6.413,1.828-2.029,4.43-3.186,7.162-3.186h23.354c2.997,0,5.802,1.737,6.91,4.518,1.515,3.802-.326,8.052-4.186,9.537-.834.32-1.73.45-2.623.45h-1.708l-8.163,24.489h-39.192l-19.541-16.497,4.3-.837Z" style="fill: #a7cc40; fill-rule: evenodd;"/>
            </g>
          </g>
        </g>
        <rect x="133.724" y="-5.989" width="127.303" height="12.543" rx="6.271" ry="6.271" style="fill: #c2e6e4;"/>
        <g style="clip-path: url(#clippath-5);">
          <polygon points="921.815 477.578 884.655 494.828 1061.938 110.152 1092.399 96.386 921.815 477.578" style="fill: #baeffc; fill-opacity: .176; fill-rule: evenodd;"/>
          <polygon points="847.067 481.819 764.613 499.069 941.896 114.393 1017.651 100.627 847.067 481.819" style="fill: #baeffc; fill-opacity: .176; fill-rule: evenodd;"/>
        </g>
        <g>
          <rect x="839.187" y="121.803" width="127.303" height="12.543" rx="6.271" ry="6.271" style="fill: #c2e6e4;"/>
          <g>
            <rect x="851.655" y="74.479" width="8.531" height="53.596" transform="translate(1711.8407 202.5533) rotate(-180)" style="fill: #a3d8d3;"/>
            <rect x="939.094" y="76.61" width="8.531" height="51.465" transform="translate(1886.7188 204.6841) rotate(-180)" style="fill: #a3d8d3;"/>
            <rect x="892.2" y="23.663" width="8.531" height="104.412" style="fill: #a3d8d3;"/>
            <ellipse cx="943.359" cy="76.61" rx="27.725" ry="27.701" style="fill: #fff;"/>
            <g>
              <ellipse cx="943.359" cy="76.61" rx="21.327" ry="21.309" style="fill: #49a198;"/>
              <g style="clip-path: url(#clippath-6);">
                <path d="M961.325,89.815c.51-.766.791-1.67.791-2.604h0c0-1.843-1.082-3.574-2.896-4.344-.603-.257-1.263-.357-1.918-.357h-13.067c-2.353,0-4.595-.999-6.169-2.746-1.81-2.009-3.517-3.904-4.814-5.344-1.523-1.691-3.692-2.655-5.969-2.655h-3.481s-6.557,0-12.541,0h-3.441c-2.497,0-4.835,1.448-5.758,3.766-1.263,3.168.272,6.71,3.488,7.947.695.267,1.442.376,2.186.376h1.423s6.803,20.407,6.803,20.407h32.66s16.284-13.748,16.284-13.748l-3.583-.697Z" style="fill: #a7cc40; fill-rule: evenodd;"/>
              </g>
            </g>
            <ellipse cx="855.92" cy="74.479" rx="21.327" ry="21.309" style="fill: #fff;"/>
            <g>
              <ellipse cx="855.92" cy="74.479" rx="14.929" ry="14.916" style="fill: #6fbfbc;"/>
              <g style="clip-path: url(#clippath-7);">
                <path d="M868.496,83.723c.358-.536.554-1.169.554-1.823h0c0-1.29-.758-2.502-2.027-3.041-.422-.179-.884-.25-1.342-.25h-9.147c-1.647,0-3.217-.699-4.318-1.922-1.267-1.407-2.462-2.733-3.37-3.741-1.066-1.184-2.585-1.859-4.178-1.859h-2.436s-4.59,0-8.779,0h-2.408c-1.748,0-3.384,1.013-4.031,2.636-.883,2.218.19,4.697,2.442,5.563.486.187,1.009.263,1.53.263h.996s4.762,14.285,4.762,14.285h22.862s11.399-9.623,11.399-9.623l-2.508-.488Z" style="fill: #a7cc40; fill-rule: evenodd;"/>
              </g>
            </g>
            <ellipse cx="896.466" cy="23.663" rx="31.99" ry="31.963" style="fill: #fff;"/>
            <g>
              <ellipse cx="896.466" cy="23.663" rx="25.592" ry="25.57" style="fill: #49a198;"/>
              <g style="clip-path: url(#clippath-8);">
                <path d="M918.024,39.509c.613-.919.95-2.004.95-3.125h0c0-2.211-1.299-4.289-3.475-5.213-.724-.308-1.515-.428-2.301-.428h-15.68c-2.823,0-5.514-1.199-7.403-3.295-2.172-2.411-4.219-4.684-5.776-6.413-1.828-2.029-4.43-3.186-7.162-3.186h-4.177s-7.869,0-15.05,0h-4.128c-2.997,0-5.802,1.737-6.91,4.518-1.515,3.802.326,8.052,4.186,9.537.834.32,1.73.45,2.623.45h1.708s8.163,24.489,8.163,24.489h39.192s19.541-16.497,19.541-16.497l-4.3-.837Z" style="fill: #a7cc40; fill-rule: evenodd;"/>
              </g>
            </g>
          </g>
        </g>
        <g>
          <path d="M611.199,371.07V-195.387c0-9.071-7.354-16.425-16.425-16.425h0c-7.211,0-13.578,4.703-15.698,11.594l-6.816,22.153h0c-5.047,16.544-14.094,31.588-26.341,43.802l-39.085,38.981c-12.405,12.372-19.376,29.171-19.376,46.691v419.66h123.741Z" style="fill: #a6ede5; fill-rule: evenodd;"/>
          <path d="M611.728,366.253V-137.223c0-4.663-3.78-8.443-8.443-8.443h0c-3.293,0-6.286,1.915-7.666,4.906h0c-10.406,22.553-25.746,42.48-44.887,58.309l-61.439,50.808c-16.721,13.828-26.401,34.394-26.401,56.092v341.803h148.836Z" style="fill: #57bdc2; fill-rule: evenodd;"/>
          <g>
            <path d="M463.157,370.805V24.45c0-21.693,9.588-42.063,26.306-55.889l61.439-50.808c19.054-15.758,34.601-35.953,44.958-58.402,1.332-2.887,4.247-4.752,7.426-4.752,4.509,0,8.178,3.669,8.178,8.178v508.027h-148.307Z" style="fill: #f6ffff; fill-rule: evenodd;"/>
            <path d="M603.286-145.135c4.363,0,7.913,3.549,7.913,7.913v507.763h-147.776V24.45c0-21.614,9.553-41.91,26.209-55.684l61.439-50.808c19.084-15.782,34.655-36.01,45.03-58.496,1.289-2.793,4.109-4.598,7.185-4.598M603.286-145.665c-3.293,0-6.286,1.915-7.666,4.906h0c-10.406,22.553-25.746,42.48-44.887,58.309l-61.439,50.808c-16.721,13.828-26.401,34.394-26.401,56.092v346.62h148.836V-137.223c0-4.663-3.78-8.442-8.443-8.442h0Z" style="fill: #f6ffff;"/>
          </g>
          <g style="clip-path: url(#clippath-11);">
            <path d="M609.081,371.07V-127.859l-2.724,11.644c-8.36,18.119-20.675,34.133-36.041,46.864L489.294-2.221c-16.721,13.828-26.401,34.394-26.401,56.092v317.199h146.188Z" style="fill: #5cc7c3; fill-rule: evenodd;"/>
            <g>
              <g>
                <line x1="471.845" y1="-4.106" x2="471.845" y2="647.355" style="fill: #e8f3fd; mix-blend-mode: multiply; stroke: #e8f3fd; stroke-miterlimit: 10; stroke-width: 2.326px;"/>
                <line x1="474.342" y1="-4.106" x2="474.342" y2="647.355" style="fill: none; stroke: #49a2ac; stroke-linecap: round; stroke-linejoin: round; stroke-width: 6.854px;"/>
                <line x1="508.688" y1="-34.392" x2="508.688" y2="647.355" style="fill: none; stroke: #49a2ac; stroke-linecap: round; stroke-linejoin: round; stroke-width: 6.854px;"/>
                <line x1="543.035" y1="647.355" x2="543.035" y2="-59.486" style="fill: none; stroke: #49a2ac; stroke-linecap: round; stroke-linejoin: round; stroke-width: 6.854px;"/>
                <line x1="577.382" y1="-87.177" x2="577.382" y2="647.355" style="fill: none; stroke: #49a2ac; stroke-linecap: round; stroke-linejoin: round; stroke-width: 6.854px;"/>
              </g>
              <path d="M611.728,56.073l-5.372,11.644c-8.36,18.119-20.675,34.133-36.041,46.864l-81.021,67.13c-16.721,13.828-26.401,34.394-26.401,56.092v-35.484c0-21.698,9.68-42.265,26.401-56.092l81.021-67.13c15.365-12.731,27.681-28.745,36.041-46.864l5.372-11.644v35.484Z" style="fill: #e8f3fd; fill-rule: evenodd; mix-blend-mode: multiply;"/>
              <polygon points="590.53 -130.528 590.53 584.101 608.601 584.101 608.601 -136.585 590.53 -130.528" style="fill: #e8f3fd; mix-blend-mode: multiply; stroke: #e8f3fd; stroke-miterlimit: 10; stroke-width: 2.326px;"/>
              <path d="M611.728-117.929l-5.372,11.644c-8.36,18.119-20.675,34.133-36.041,46.864L489.294,7.709c-16.721,13.828-26.401,34.394-26.401,56.092V28.317c0-21.698,9.68-42.265,26.401-56.092l81.021-67.13c15.365-12.731,27.681-28.745,36.041-46.864l5.372-11.644v35.484Z" style="fill: #e8f3fd; fill-rule: evenodd; mix-blend-mode: multiply;"/>
              <path d="M611.728-37.847l-5.372,11.644c-8.36,18.119-20.675,34.133-36.041,46.864l-81.021,67.13c-16.721,13.828-26.401,34.394-26.401,56.092v-35.484c0-21.698,9.68-42.265,26.401-56.092l81.021-67.13c15.365-12.731,27.681-28.745,36.041-46.864l5.372-11.644v35.484Z" style="fill: #c1f2fc; fill-opacity: .176; fill-rule: evenodd;"/>
              <path d="M611.728,133.146l-5.372,11.644c-8.36,18.119-20.675,34.133-36.041,46.864l-81.021,67.13c-16.721,13.828-26.401,34.394-26.401,56.092v-35.484c0-21.698,9.68-42.265,26.401-56.092l81.021-67.13c15.365-12.731,27.681-28.745,36.041-46.864l5.372-11.644v35.484Z" style="fill: #c1f2fc; fill-opacity: .176; fill-rule: evenodd;"/>
              <line x1="587.8" y1="121.605" x2="587.8" y2="206.299" style="fill: none; stroke: #5cc7c3; stroke-linecap: round; stroke-linejoin: round; stroke-width: 3.177px;"/>
              <rect x="454.894" y="1.7" width="15.788" height="379.523" style="fill: #e8f3fd; mix-blend-mode: multiply;"/>
              <g>
                <line x1="486.215" y1="-6.704" x2="486.215" y2="385.361" style="fill: none; stroke: #f6ffff; stroke-miterlimit: 10; stroke-width: 9.139px;"/>
                <line x1="555.064" y1="-65.229" x2="555.064" y2="385.361" style="fill: none; stroke: #f6ffff; stroke-miterlimit: 10; stroke-width: 9.139px;"/>
              </g>
              <g>
                <path d="M613.025,6.974c-1.37-.632-2.834-.76-4.207-.49-.34-.266-.704-.506-1.112-.695-2.856-1.325-6.261-.069-7.585,2.787-1.096,2.362-.407,5.082,1.487,6.708l-.182.394c-2.403-.55-4.984.492-6.264,2.769-1.391,2.49-.689,5.57,1.522,7.28-.023.046-.048.091-.071.137-2.52-1.2-5.587-.442-7.207,1.928-1.736,2.569-1.083,6.066,1.457,7.848-.015.021-.03.043-.045.064-2.442-1.906-5.983-1.508-7.924.906-1.988,2.468-1.622,6.055.844,8.043.06.048.128.081.189.127-.027.032-.054.065-.082.097-.055-.057-.095-.124-.152-.179-2.285-2.193-5.895-2.124-8.066.138h-.022c-2.171,2.285-2.103,5.895.16,8.088.109.104.232.179.346.273-.045.044-.087.089-.132.133-.09-.119-.159-.248-.259-.361-2.056-2.376-5.689-2.626-8.042-.547-2.376,2.077-2.627,5.687-.548,8.063.161.184.351.327.53.485-.062.053-.119.106-.181.159-.143-.235-.283-.471-.464-.689-2.01-2.445-5.597-2.787-8.042-.754-2.422,2.01-2.764,5.598-.754,8.041.192.227.416.41.633.6l-.172.143c-.147-.245-.295-.492-.483-.718-2.01-2.423-5.62-2.764-8.042-.754-2.444,2.01-2.788,5.62-.754,8.041.187.23.407.413.621.605l-.179.148c-.148-.25-.298-.5-.488-.731-2.01-2.421-5.62-2.764-8.042-.754-2.422,2.035-2.764,5.622-.754,8.066.187.226.408.406.623.596l-.181.15c-.149-.247-.298-.495-.487-.724-2.01-2.421-5.597-2.764-8.042-.752-2.422,2.01-2.764,5.596-.753,8.041.192.23.414.412.63.603l-.182.151c-.15-.25-.301-.5-.494-.732-2.011-2.421-5.598-2.764-8.042-.754-2.422,2.01-2.764,5.62-.754,8.043.194.232.418.418.637.612l-.179.149c-.147-.245-.293-.49-.481-.716-2.01-2.443-5.62-2.764-8.042-.754-2.444,2.01-2.764,5.598-.754,8.043.188.226.409.407.624.597l-.182.15c-.148-.248-.297-.496-.487-.725-2.011-2.421-5.621-2.764-8.042-.754-2.422,2.01-2.766,5.62-.754,8.043.189.231.411.415.626.608l-.188.156c-.148-.246-.296-.492-.484-.719-2.01-2.445-5.598-2.787-8.042-.754-2.422,2.01-2.764,5.598-.754,8.043.192.226.414.407.631.597l-.172.142c-.147-.245-.295-.491-.482-.717-2.01-2.423-5.62-2.764-8.041-.754-2.445,2.01-2.788,5.62-.754,8.041.187.229.406.412.619.604l-.152.126c-.185-.285-.387-.563-.628-.819-2.17-2.309-5.78-2.423-8.088-.252-2.285,2.171-2.398,5.781-.228,8.088.119.126.258.219.385.331-.024.023-.047.047-.071.07-.129-.126-.24-.264-.384-.379-2.444-1.988-6.032-1.622-8.019.846-1.984,2.441-1.622,6.016.81,8.006-.014.018-.03.036-.044.055-2.717-1.569-6.207-.679-7.803,2.037-1.519,2.582-.751,5.863,1.654,7.558-.037.068-.076.136-.113.204-2.829-.822-5.87.609-6.933,3.409-.995,2.617.054,5.514,2.364,6.917-.055.153-.107.308-.161.462-2.699-.005-5.102,1.91-5.607,4.64-.443,2.407.689,4.732,2.662,5.929-.085.412-.148.834-.226,1.249-.019.007-.041.01-.06.018-.342.138-.685.321-.983.527-.319.205-.617.433-.868.707-.274.252-.502.549-.708.868-.205.297-.388.64-.525.984-.16.341-.251.707-.342,1.073-.068.366-.114.754-.114,1.12s.046.754.114,1.118c.091.366.183.71.342,1.051.137.366.32.687.525,1.006.206.297.434.593.708.868.179.18.402.342.62.506-.177,2.337-.294,4.697-.294,7.097,0,3.802,3.082,6.885,6.884,6.885s6.884-3.083,6.884-6.885c0-20.85,7.925-38.887,22.32-50.79l81.022-67.131c18.342-15.196,30.031-29.578,37.899-46.633l5.373-11.642c1.594-3.452.087-7.543-3.366-9.137Z" style="fill: #8dd44c;"/>
                <path d="M604.872,2.703c.137.344.32.663.527.984.205.319.434.593.707.868.252.25.549.502.869.707.297.205.639.388.982.527.342.136.708.25,1.074.319s.731.114,1.119.114c1.486,0,2.971-.616,4.022-1.667.274-.274.502-.549.708-.868.205-.321.388-.64.525-.984.16-.341.251-.707.342-1.073.068-.366.114-.732.114-1.12,0-.366-.046-.754-.114-1.118-.091-.366-.183-.71-.342-1.075-.137-.341-.32-.663-.525-.982-.206-.297-.434-.593-.708-.868-.251-.252-.549-.502-.868-.71-.298-.205-.64-.388-.983-.524-.342-.138-.708-.252-1.074-.321-.731-.158-1.485-.158-2.216,0-.366.069-.732.183-1.074.321-.342.136-.685.319-.982.524-.32.207-.617.457-.869.71-.273.274-.502.571-.707.868-.206.319-.389.64-.527.982-.136.366-.251.71-.319,1.075-.091.364-.115.752-.115,1.118,0,.388.023.754.115,1.12.068.366.183.732.319,1.073Z" style="fill: #8dd44c;"/>
              </g>
              <path d="M610.14,47.649l-5.372,11.644c-8.36,18.119-20.675,34.133-36.041,46.864l-81.021,67.13c-16.721,13.828-26.401,34.394-26.401,56.092v-35.484c0-21.698,9.68-42.265,26.401-56.092l81.021-67.13c15.365-12.731,27.681-28.745,36.041-46.864l5.372-11.644v35.484Z" style="fill: #f6ffff; fill-rule: evenodd; stroke: #f6ffff; stroke-miterlimit: 10; stroke-width: 2.326px;"/>
              <polygon points="602.297 -130.528 602.297 584.101 613.746 584.101 613.746 -136.585 602.297 -130.528" style="fill: #f6ffff; stroke: #f6ffff; stroke-miterlimit: 10; stroke-width: 2.326px;"/>
            </g>
          </g>
        </g>
        <path d="M1522.572,8.263l-63.15-63.15c-4.975-4.975-11.722-7.77-18.757-7.77h-30.492c-28.099,0-50.878-22.779-50.878-50.878v-238.568c0-12.753-10.338-23.091-23.091-23.091h-184.35c-12.701,0-23.018,10.258-23.091,22.959l-1.423,248.128c-.076,13.304,5.138,26.094,14.494,35.553l188.902,190.98c4.975,4.975,7.769,11.722,7.769,18.757v102.907c0,6.937-2.615,13.7-7.567,18.557-16.914,16.589-5.311,45.241,18.284,45.482l106.272,1.084c7.129.073,13.987-2.727,19.028-7.768l48.049-48.049c4.975-4.975,7.769-11.722,7.769-18.757V27.02c0-7.035-2.795-13.782-7.769-18.757Z" style="fill: #4aa280; fill-rule: evenodd; stroke: #4aa280; stroke-dasharray: 0 10; stroke-linecap: round; stroke-linejoin: round; stroke-width: 10px;"/>
        <g style="opacity: .331;">
          <path d="M69.455,33.402c1.232,0,2.231-1,2.231-2.236v-7.001c0-1.236-.999-2.236-2.231-2.236-1.232,0-2.231,1-2.231,2.236v7.001c0,1.236.999,2.236,2.231,2.236Z" style="fill: #00703a;"/>
          <path d="M60.141,33.402c1.232,0,2.231-1,2.231-2.236v-4.667c0-1.236-.999-2.236-2.231-2.236-1.232,0-2.231,1-2.231,2.236v4.667c0,1.236.999,2.236,2.231,2.236Z" style="fill: #00703a;"/>
          <path d="M77.994,33.402c1.232,0,2.231-1,2.231-2.236v-4.667c0-1.236-.999-2.236-2.231-2.236-1.232,0-2.231,1-2.231,2.236v4.667c0,1.236.999,2.236,2.231,2.236Z" style="fill: #00703a;"/>
          <path d="M44.325,51.88c1.232,0,2.231-1,2.231-2.236v-7.001c0-1.236-.999-2.236-2.231-2.236-1.232,0-2.231,1-2.231,2.236v7.001c0,1.236.999,2.236,2.231,2.236Z" style="fill: #00703a;"/>
          <path d="M35.011,51.88c1.232,0,2.231-1,2.231-2.236v-4.669c0-1.236-.999-2.236-2.231-2.236-1.232,0-2.231,1-2.231,2.236v4.669c0,1.236.999,2.236,2.231,2.236Z" style="fill: #00703a;"/>
          <path d="M52.862,51.88c1.232,0,2.231-1,2.231-2.236v-4.669c0-1.236-.999-2.236-2.231-2.236-1.232,0-2.231,1-2.231,2.236v4.669c0,1.236.999,2.236,2.231,2.236Z" style="fill: #00703a;"/>
          <path d="M35.692,13.174c1.232,0,2.231-1,2.231-2.236V3.937c0-1.236-.999-2.236-2.231-2.236s-2.231,1-2.231,2.236v7.001c0,1.236.999,2.236,2.231,2.236Z" style="fill: #00703a;"/>
          <path d="M26.377,13.174c1.232,0,2.231-1,2.231-2.236v-4.669c0-1.236-.999-2.236-2.231-2.236-1.232,0-2.231,1-2.231,2.236v4.669c0,1.236.999,2.236,2.231,2.236Z" style="fill: #00703a;"/>
          <path d="M44.229,13.174c1.232,0,2.231-1,2.231-2.236v-4.669c0-1.236-.999-2.236-2.231-2.236-1.232,0-2.231,1-2.231,2.236v4.669c0,1.236.999,2.236,2.231,2.236Z" style="fill: #00703a;"/>
        </g>
        <g>
          <rect x="650.779" y="75.539" width="54.752" height="8.944" rx="4.472" ry="4.472" style="fill: #c2e6e4;"/>
          <g>
            <path d="M692.83,67.656l-.142.006-.141.009-.143.013-.14.016-.137.019-.137.023-.135.026-.135.029-.13.032-.134.037-.133.039-.129.042-.129.045-.126.048-.122.05-.125.055-.12.056-.12.06-.122.064-.118.066-.115.068-.113.07-.112.074-.109.075-.106.078-.108.083-.103.083-.102.087-.102.09-.099.092-.096.093-.088.09-.092.1-.093.104-.084.099-.083.104-.082.107-.08.11-.077.11-.073.112-.07.111-.067.114-.069.123-.064.119-.057.115-.057.123-.055.125-.049.122-.049.13-.046.13-.041.127-.038.129-.037.137-.033.132-.029.134-.027.136-.022.137-.02.139-.015.134-.012.143-.009.145-.006.146-.002.141.002.141.006.146.009.145.012.143.015.134.02.139.022.137.027.136.029.134.033.132.037.137.038.129.041.127.046.13.049.13.049.122.055.125.057.123.057.115.064.119.069.123.067.114.07.111.073.112.077.11.08.11.082.107.083.104.084.099.093.104.092.1.088.09.096.093.099.092.102.09.102.087.103.083.108.083.106.078.109.075.112.074.113.07.115.068.118.066.122.064.12.06.12.056.125.055.122.05.126.048.129.045.129.042.133.039.134.037.13.032.135.029.135.026.137.023.137.019.14.016.143.013.141.009.142.006.144.002.144-.002.142-.006.141-.009.143-.013.14-.016.137-.019.137-.023.135-.026.135-.029.13-.032.134-.037.133-.039.129-.042.129-.045.126-.048.122-.05.125-.055.12-.056.12-.06.122-.064.118-.066.115-.068.113-.07.112-.074.109-.075.106-.078.108-.083.103-.083.102-.087.102-.09.099-.092.096-.093.088-.09.092-.1.093-.104.084-.099.083-.104.082-.107.08-.11.077-.11.073-.112.07-.111.067-.114.069-.123.064-.119.057-.115.057-.123.055-.125.049-.122.049-.13.046-.13.041-.127.038-.129.037-.137.033-.132.029-.134.027-.136.022-.137.02-.139.015-.134.012-.143.009-.145.006-.146.002-.141-.002-.141-.006-.146-.009-.145-.012-.143-.015-.134-.02-.139-.022-.137-.027-.136-.029-.134-.033-.132-.037-.137-.038-.129-.041-.127-.046-.13-.049-.13-.049-.122-.055-.125-.057-.123-.057-.115-.064-.119-.069-.123-.067-.114-.07-.111-.073-.112-.077-.11-.08-.11-.082-.107-.083-.104-.084-.099-.093-.104-.092-.1-.088-.09-.096-.093-.099-.092-.102-.09-.102-.087-.103-.083-.108-.083-.106-.078-.109-.075-.112-.074-.113-.07-.115-.068-.118-.066-.122-.064-.12-.06-.12-.056-.125-.055-.122-.05-.126-.048-.129-.045-.129-.042-.133-.039-.134-.037-.13-.032-.135-.029-.135-.026-.137-.023-.137-.019-.14-.016-.143-.013-.141-.009-.142-.006-.144-.002-.144.002ZM693.165,65.804l.19.007.189.012.187.017.186.021.185.026.183.03.182.035.18.039.178.044.177.048.175.052.173.056.171.06.169.064.167.068.165.072.163.076.161.08.159.084.156.087.154.091.152.095.149.098.147.102.144.105.141.108.139.112.136.115.133.118.13.121.127.124.124.127.121.13.118.133.115.136.112.139.108.141.105.144.102.147.098.149.095.152.091.154.087.156.084.159.08.161.076.163.072.165.068.167.064.169.06.171.056.173.052.175.048.177.044.178.039.18.035.182.03.183.026.184.021.186.017.187.012.189.007.19.002.191-.002.191-.007.19-.012.189-.017.187-.021.186-.026.184-.03.183-.035.182-.039.18-.044.178-.048.177-.052.175-.056.173-.06.171-.064.169-.068.167-.072.165-.076.163-.08.161-.084.159-.087.156-.091.154-.095.152-.098.149-.102.147-.105.144-.108.141-.112.139-.115.136-.118.133-.121.13-.124.127-.127.124-.13.121-.133.118-.136.115-.139.112-.141.108-.144.105-.147.102-.149.098-.152.095-.154.091-.156.087-.159.084-.161.08-.163.076-.165.072-.167.068-.169.064-.171.06-.173.056-.175.052-.177.048-.178.044-.18.039-.182.035-.183.03-.185.026-.186.021-.187.017-.189.012-.19.007-.191.002-.191-.002-.19-.007-.189-.012-.187-.017-.186-.021-.185-.026-.183-.03-.182-.035-.18-.039-.178-.044-.177-.048-.175-.052-.173-.056-.171-.06-.169-.064-.167-.068-.165-.072-.163-.076-.161-.08-.159-.084-.156-.087-.154-.091-.152-.095-.149-.098-.147-.102-.144-.105-.141-.108-.139-.112-.136-.115-.133-.118-.13-.121-.127-.124-.124-.127-.121-.13-.118-.133-.115-.136-.112-.139-.108-.141-.105-.144-.102-.147-.098-.149-.095-.152-.091-.154-.087-.156-.084-.159-.08-.161-.076-.163-.072-.165-.068-.167-.064-.169-.06-.171-.056-.173-.052-.175-.048-.177-.044-.178-.039-.18-.035-.182-.03-.183-.026-.184-.021-.186-.017-.187-.012-.189-.007-.19-.002-.191.002-.191.007-.19.012-.189.017-.187.021-.186.026-.184.03-.183.035-.182.039-.18.044-.178.048-.177.052-.175.056-.173.06-.171.064-.169.068-.167.072-.165.076-.163.08-.161.084-.159.087-.156.091-.154.095-.152.098-.149.102-.147.105-.144.108-.141.112-.139.115-.136.118-.133.121-.13.124-.127.127-.124.13-.121.133-.118.136-.115.139-.112.141-.108.144-.105.147-.102.149-.098.152-.095.154-.091.156-.087.159-.084.161-.08.163-.076.165-.072.167-.068.169-.064.171-.06.173-.056.175-.052.177-.048.178-.044.18-.039.182-.035.183-.03.185-.026.186-.021.187-.017.189-.012.19-.007.191-.002.191.002Z" style="fill: #102120; fill-rule: evenodd;"/>
            <path d="M663.191,67.656l-.142.006-.141.009-.143.013-.14.016-.137.019-.137.023-.135.026-.135.029-.13.032-.134.037-.133.039-.129.042-.129.045-.126.048-.122.05-.125.055-.12.056-.12.06-.122.064-.118.066-.115.068-.113.07-.112.074-.109.075-.106.078-.108.083-.103.083-.102.087-.102.09-.099.092-.096.093-.088.09-.092.1-.093.104-.084.099-.083.104-.082.107-.08.11-.077.11-.073.112-.07.111-.067.114-.069.123-.064.119-.057.115-.057.123-.055.125-.049.122-.049.13-.046.13-.041.127-.038.129-.037.137-.033.132-.029.134-.027.136-.022.137-.02.139-.015.134-.012.143-.009.145-.006.146-.002.141.002.141.006.146.009.145.012.143.015.134.02.139.022.137.027.136.029.134.033.132.037.137.038.129.041.127.046.13.049.13.049.122.055.125.057.123.057.115.064.119.069.123.067.114.07.111.073.112.077.11.08.11.082.107.083.104.084.099.093.104.092.1.088.09.096.093.099.092.102.09.102.087.103.083.108.083.106.078.109.075.112.074.113.07.115.068.118.066.122.064.12.06.12.056.125.055.122.05.126.048.129.045.129.042.133.039.134.037.13.032.135.029.135.026.137.023.137.019.14.016.143.013.141.009.142.006.144.002.144-.002.142-.006.141-.009.143-.013.14-.016.137-.019.137-.023.135-.026.135-.029.13-.032.134-.037.133-.039.129-.042.129-.045.126-.048.122-.05.125-.055.12-.056.12-.06.122-.064.118-.066.115-.068.113-.07.112-.074.109-.075.106-.078.108-.083.103-.083.102-.087.102-.09.099-.092.096-.093.088-.09.092-.1.093-.104.084-.099.083-.104.082-.107.08-.11.077-.11.073-.112.07-.111.067-.114.069-.123.064-.119.057-.115.057-.123.055-.125.049-.122.049-.13.046-.13.041-.127.038-.129.037-.137.033-.132.029-.134.027-.136.022-.137.02-.139.015-.134.012-.143.009-.145.006-.146.002-.141-.002-.141-.006-.146-.009-.145-.012-.143-.015-.134-.02-.139-.022-.137-.027-.136-.029-.134-.033-.132-.037-.137-.038-.129-.041-.127-.046-.13-.049-.13-.049-.122-.055-.125-.057-.123-.057-.115-.064-.119-.069-.123-.067-.114-.07-.111-.073-.112-.077-.11-.08-.11-.082-.107-.083-.104-.084-.099-.093-.104-.092-.1-.088-.09-.096-.093-.099-.092-.102-.09-.102-.087-.103-.083-.108-.083-.106-.078-.109-.075-.112-.074-.113-.07-.115-.068-.118-.066-.122-.064-.12-.06-.12-.056-.125-.055-.122-.05-.126-.048-.129-.045-.129-.042-.133-.039-.134-.037-.13-.032-.135-.029-.135-.026-.137-.023-.137-.019-.14-.016-.143-.013-.141-.009-.142-.006-.144-.002-.144.002ZM663.527,65.804l.19.007.189.012.187.017.186.021.184.026.183.03.182.035.18.039.178.044.177.048.175.052.173.056.171.06.169.064.167.068.165.072.163.076.161.08.159.084.156.087.154.091.152.095.149.098.147.102.144.105.141.108.139.112.136.115.133.118.13.121.127.124.124.127.121.13.118.133.115.136.112.139.108.141.105.144.102.147.098.149.095.152.091.154.087.156.084.159.08.161.076.163.072.165.068.167.064.169.06.171.056.173.052.175.048.177.044.178.039.18.035.182.03.183.026.184.021.186.017.187.012.189.007.19.002.191-.002.191-.007.19-.012.189-.017.187-.021.186-.026.184-.03.183-.035.182-.039.18-.044.178-.048.177-.052.175-.056.173-.06.171-.064.169-.068.167-.072.165-.076.163-.08.161-.084.159-.087.156-.091.154-.095.152-.098.149-.102.147-.105.144-.108.141-.112.139-.115.136-.118.133-.121.13-.124.127-.127.124-.13.121-.133.118-.136.115-.139.112-.141.108-.144.105-.147.102-.149.098-.152.095-.154.091-.156.087-.159.084-.161.08-.163.076-.165.072-.167.068-.169.064-.171.06-.173.056-.175.052-.177.048-.178.044-.18.039-.182.035-.183.03-.184.026-.186.021-.187.017-.189.012-.19.007-.191.002-.191-.002-.19-.007-.189-.012-.187-.017-.186-.021-.184-.026-.183-.03-.182-.035-.18-.039-.178-.044-.177-.048-.175-.052-.173-.056-.171-.06-.169-.064-.167-.068-.165-.072-.163-.076-.161-.08-.159-.084-.156-.087-.154-.091-.152-.095-.149-.098-.147-.102-.144-.105-.141-.108-.139-.112-.136-.115-.133-.118-.13-.121-.127-.124-.124-.127-.121-.13-.118-.133-.115-.136-.112-.139-.108-.141-.105-.144-.102-.147-.098-.149-.095-.152-.091-.154-.087-.156-.084-.159-.08-.161-.076-.163-.072-.165-.068-.167-.064-.169-.06-.171-.056-.173-.052-.175-.048-.177-.044-.178-.039-.18-.035-.182-.03-.183-.026-.184-.021-.186-.017-.187-.012-.189-.007-.19-.002-.191.002-.191.007-.19.012-.189.017-.187.021-.186.026-.184.03-.183.035-.182.039-.18.044-.178.048-.177.052-.175.056-.173.06-.171.064-.169.068-.167.072-.165.076-.163.08-.161.084-.159.087-.156.091-.154.095-.152.098-.149.102-.147.105-.144.108-.141.112-.139.115-.136.118-.133.121-.13.124-.127.127-.124.13-.121.133-.118.136-.115.139-.112.141-.108.144-.105.147-.102.149-.098.152-.095.154-.091.156-.087.159-.084.161-.08.163-.076.165-.072.167-.068.169-.064.171-.06.173-.056.175-.052.177-.048.178-.044.18-.039.182-.035.183-.03.184-.026.186-.021.187-.017.189-.012.19-.007.191-.002.191.002Z" style="fill: #102120; fill-rule: evenodd;"/>
            <circle cx="663.336" cy="73.211" r="2.792" style="fill: #f3b342;"/>
            <path d="M692.988,70.419c1.541,0,2.792,1.251,2.792,2.792s-1.251,2.792-2.792,2.792-2.792-1.251-2.792-2.792,1.251-2.792,2.792-2.792Z" style="fill: #f3b342; fill-rule: evenodd;"/>
            <polygon points="693.83 72.827 692.144 73.595 687.748 63.949 667.966 63.949 667.966 62.096 688.939 62.096 693.83 72.827" style="fill: #f6f882; fill-rule: evenodd;"/>
            <rect x="671.671" y="30.606" width="18.524" height="12.967" rx="3.156" ry="3.156" style="fill: #d44b51;"/>
            <path d="M666.114,26.901h19.629c2.459,0,4.452,1.993,4.452,4.452v2.958h-18.639c-1.443,0-2.828-.573-3.848-1.594-1.021-1.021-1.594-2.405-1.594-3.848v-1.967Z" style="fill: #102120; fill-rule: evenodd;"/>
            <rect x="679.081" y="43.573" width="5.489" height="1.852" style="fill: #a5481c;"/>
            <path d="M677.821,47.008c-.096-.38-.011-.783.23-1.093.241-.309.611-.49,1.003-.49h6.723c.582,0,1.09.395,1.233.96.677,2.677,2.6,10.285,3.594,14.218.147.581.018,1.198-.351,1.67-.368.473-.934.749-1.534.749h-6.849s-2.955-11.691-4.049-16.015Z" style="fill: #f8e651; fill-rule: evenodd;"/>
            <g style="clip-path: url(#clippath-12);">
              <polygon points="680.933 63.023 693.068 63.023 692.048 59.318 680.933 59.318 680.933 63.023" style="fill: #22316e; fill-rule: evenodd;"/>
            </g>
            <rect x="675.376" y="59.318" width="12.967" height="3.705" style="fill: #d44b51;"/>
            <polygon points="680.933 63.023 689.363 63.023 688.343 59.318 680.933 59.318 680.933 63.023" style="fill: #22316e; fill-rule: evenodd;"/>
            <polygon points="672.598 71.359 678.155 71.359 680.933 59.318 675.376 59.318 672.598 71.359" style="fill: #d44b51; fill-rule: evenodd;"/>
            <rect x="668.893" y="69.506" width="9.262" height="1.852" style="fill: #22316e;"/>
            <rect x="673.541" y="36.095" width="1.835" height="3.773" rx=".306" ry=".306" style="fill: #0d1c1c;"/>
            <circle cx="681.196" cy="37.753" r="3.442" style="fill: #d44b51;"/>
            <path d="M683.227,48.609c.353-.353.55-.831.548-1.329-.002-.498-.202-.976-.557-1.326,0,0,0,0,0,0-.743-.733-1.938-.729-2.676.009-1.849,1.849-5.17,5.17-7.018,7.018-.736.736-.736,1.929,0,2.664,0,0,.001.001.002.002.353.353.832.552,1.332.552s.979-.199,1.332-.552c1.852-1.852,5.186-5.186,7.038-7.038Z" style="fill: #d44b51; fill-rule: evenodd;"/>
            <polygon points="675.376 57.466 670.453 57.466 664.199 73.547 662.473 72.875 669.186 55.613 675.376 55.613 675.376 57.466" style="fill: #f6f882; fill-rule: evenodd;"/>
            <polygon points="675.423 55.614 675.47 55.618 675.516 55.624 675.563 55.632 675.608 55.642 675.653 55.655 675.698 55.67 675.741 55.688 675.784 55.707 675.826 55.729 675.866 55.753 675.905 55.779 675.943 55.807 675.979 55.836 676.014 55.868 676.047 55.901 676.079 55.936 676.108 55.972 676.136 56.01 676.162 56.049 676.186 56.089 676.208 56.131 676.227 56.174 676.245 56.217 676.26 56.262 676.273 56.307 676.283 56.353 676.292 56.399 676.298 56.445 676.301 56.492 676.302 56.539 676.301 56.586 676.298 56.633 676.292 56.679 676.283 56.725 676.273 56.771 676.26 56.816 676.245 56.861 676.227 56.904 676.208 56.947 676.186 56.989 676.162 57.029 676.136 57.068 676.108 57.106 676.079 57.142 676.047 57.177 676.014 57.21 675.979 57.242 675.943 57.271 675.905 57.299 675.866 57.325 675.826 57.349 675.784 57.371 675.741 57.39 675.698 57.408 675.653 57.423 675.608 57.436 675.563 57.446 675.516 57.454 675.47 57.46 675.423 57.464 675.376 57.465 669.356 57.465 669.309 57.464 669.262 57.46 669.216 57.454 669.169 57.446 669.124 57.436 669.079 57.423 669.034 57.408 668.991 57.39 668.948 57.371 668.906 57.349 668.866 57.325 668.827 57.299 668.789 57.271 668.753 57.242 668.718 57.21 668.685 57.177 668.653 57.142 668.624 57.106 668.596 57.068 668.57 57.029 668.546 56.989 668.524 56.947 668.505 56.904 668.487 56.861 668.472 56.816 668.459 56.771 668.449 56.725 668.44 56.679 668.434 56.633 668.431 56.586 668.43 56.539 668.431 56.492 668.434 56.445 668.44 56.399 668.449 56.353 668.459 56.307 668.472 56.262 668.487 56.217 668.505 56.174 668.524 56.131 668.546 56.089 668.57 56.049 668.596 56.01 668.624 55.972 668.653 55.936 668.685 55.901 668.718 55.868 668.753 55.836 668.789 55.807 668.827 55.779 668.866 55.753 668.906 55.729 668.948 55.707 668.991 55.688 669.034 55.67 669.079 55.655 669.124 55.642 669.169 55.632 669.216 55.624 669.262 55.618 669.309 55.614 669.356 55.613 675.376 55.613 675.423 55.614" style="fill: #102120; fill-rule: evenodd;"/>
          </g>
        </g>
        <g>
          <g>
            <rect x="1417.966" y="-45.599" width="85.101" height="58.292" style="fill: #fff;"/>
            <rect x="1460.252" y="-45.599" width="10.704" height="58.292" style="fill: #e9f1f6; mix-blend-mode: multiply; opacity: .5;"/>
            <rect x="1497.714" y="-45.599" width="5.353" height="58.292" style="fill: #e9f1f6; mix-blend-mode: multiply; opacity: .5;"/>
            <g>
              <path d="M1465.339,12.693h-78.954v-77.144c0-10.46,4.145-20.492,11.528-27.889,7.421-7.397,17.448-11.552,27.91-11.552h.039c10.462,0,20.489,4.155,27.91,11.552,7.383,7.397,11.566,17.428,11.566,27.889V12.693Z" style="fill: #fff; fill-rule: evenodd;"/>
              <rect x="1413.377" y="-24.78" width="24.967" height="37.473" style="fill: #b3efe3;"/>
            </g>
            <rect x="1470.955" y="-24.78" width="26.758" height="32.161" style="fill: #b3efe3;"/>
          </g>
          <g>
            <line x1="1503.067" y1="12.693" x2="1503.067" y2="12.693" style="fill: none; stroke: #4aa280; stroke-linecap: round; stroke-linejoin: round; stroke-width: 10px;"/>
            <line x1="1493.257" y1="12.693" x2="1390.255" y2="12.693" style="fill: none; stroke: #4aa280; stroke-dasharray: 0 9.81; stroke-linecap: round; stroke-linejoin: round; stroke-width: 10px;"/>
            <line x1="1385.35" y1="12.693" x2="1385.35" y2="12.693" style="fill: none; stroke: #4aa280; stroke-linecap: round; stroke-linejoin: round; stroke-width: 10px;"/>
          </g>
        </g>
        <g>
          <g>
            <path d="M1428.845,18.419c0-2.959-2.39-5.347-5.352-5.347s-5.352,2.388-5.352,5.347c0-2.959-2.39-5.347-5.352-5.347s-5.352,2.388-5.352,5.347c0-2.959-2.39-5.347-5.352-5.347s-5.352,2.388-5.352,5.347c0-2.959-2.39-5.347-5.352-5.347s-5.352,2.388-5.352,5.347c0-2.959-2.39-5.347-5.352-5.347s-5.352,2.388-5.352,5.347v9.913h53.519v-9.913h-.001Z" style="fill: #8dd44c;"/>
            <rect x="1343.745" y="25.211" width="85.101" height="58.292" style="fill: #fff;"/>
            <rect x="1386.031" y="25.211" width="10.704" height="58.292" style="fill: #e9f1f6; mix-blend-mode: multiply; opacity: .5;"/>
            <rect x="1423.494" y="25.211" width="5.353" height="58.292" style="fill: #e9f1f6; mix-blend-mode: multiply; opacity: .5;"/>
            <g>
              <path d="M1391.119,83.503h-78.954V6.359c0-10.46,4.145-20.492,11.528-27.889,7.421-7.397,17.448-11.552,27.91-11.552h.039c10.462,0,20.489,4.155,27.91,11.552,7.383,7.397,11.566,17.428,11.566,27.889v77.144Z" style="fill: #fff; fill-rule: evenodd;"/>
              <g>
                <rect x="1312.164" y="46.03" width="15.791" height="18.737" style="fill: #b3efe3;"/>
                <rect x="1312.164" y="9.434" width="15.791" height="15.777" style="fill: #b3efe3;"/>
                <rect x="1339.157" y="46.03" width="24.967" height="37.473" style="fill: #b3efe3;"/>
                <rect x="1339.157" y="9.434" width="24.967" height="15.777" style="fill: #b3efe3;"/>
                <rect x="1375.327" y="46.03" width="15.791" height="18.737" style="fill: #b3efe3;"/>
                <rect x="1375.327" y="9.434" width="15.791" height="15.777" style="fill: #b3efe3;"/>
              </g>
              <g style="opacity: .35;">
                <rect x="1312.165" y="9.434" width="15.791" height="6.053" style="fill: #49a2e0;"/>
                <rect x="1339.158" y="9.434" width="24.967" height="6.053" style="fill: #49a2e0;"/>
                <rect x="1375.328" y="9.434" width="15.791" height="6.053" style="fill: #49a2e0;"/>
              </g>
              <g style="opacity: .35;">
                <rect x="1312.165" y="46.03" width="15.791" height="6.053" style="fill: #49a2e0;"/>
                <rect x="1339.158" y="46.03" width="24.967" height="6.053" style="fill: #49a2e0;"/>
                <rect x="1375.328" y="46.03" width="15.791" height="6.053" style="fill: #49a2e0;"/>
              </g>
            </g>
            <rect x="1396.735" y="46.03" width="26.758" height="32.161" style="fill: #b3efe3;"/>
            <rect x="1396.736" y="46.03" width="26.758" height="6.053" style="fill: #49a2e0;"/>
            <rect x="1391.119" y="25.306" width="37.728" height="6.053" style="fill: #e9f1f6; mix-blend-mode: multiply; opacity: .5;"/>
          </g>
          <g>
            <line x1="1428.847" y1="83.503" x2="1428.847" y2="83.503" style="fill: none; stroke: #4aa280; stroke-linecap: round; stroke-linejoin: round; stroke-width: 10px;"/>
            <line x1="1419.037" y1="83.503" x2="1316.035" y2="83.503" style="fill: none; stroke: #4aa280; stroke-dasharray: 0 9.81; stroke-linecap: round; stroke-linejoin: round; stroke-width: 10px;"/>
            <line x1="1311.13" y1="83.503" x2="1311.13" y2="83.503" style="fill: none; stroke: #4aa280; stroke-linecap: round; stroke-linejoin: round; stroke-width: 10px;"/>
          </g>
        </g>
        <g>
          <rect x="1375.232" y="134.882" width="8.056" height="50.616" transform="translate(2758.5202 320.3811) rotate(-180)" style="fill: #dcf8f1;"/>
          <rect x="1457.81" y="136.895" width="8.056" height="48.604" transform="translate(2923.676 322.3935) rotate(-180)" style="fill: #dcf8f1;"/>
          <rect x="1413.523" y="86.891" width="8.056" height="98.607" style="fill: #dcf8f1;"/>
          <ellipse cx="1461.838" cy="136.895" rx="26.183" ry="26.161" style="fill: #c7ebf7;"/>
          <g>
            <ellipse cx="1461.838" cy="136.895" rx="20.141" ry="20.124" style="fill: #49a198;"/>
            <g style="clip-path: url(#clippath-15);">
              <path d="M1478.805,149.366c.482-.724.747-1.577.747-2.459h0c0-1.74-1.022-3.375-2.735-4.103-.569-.242-1.192-.337-1.812-.337h-12.34c-2.222,0-4.34-.943-5.826-2.593-1.709-1.897-3.321-3.687-4.546-5.047-1.439-1.597-3.487-2.508-5.637-2.508h-3.287s-6.193,0-11.844,0h-3.249c-2.358,0-4.566,1.367-5.438,3.557-1.192,2.992.256,6.337,3.294,7.505.656.253,1.362.355,2.064.355h1.344s6.424,19.273,6.424,19.273h30.844s15.378-12.983,15.378-12.983l-3.384-.659Z" style="fill: #a7cc40; fill-rule: evenodd;"/>
            </g>
          </g>
          <ellipse cx="1379.26" cy="134.882" rx="20.141" ry="20.124" style="fill: #c7ebf7;"/>
          <g>
            <ellipse cx="1379.26" cy="134.882" rx="14.099" ry="14.087" style="fill: #6fbfbc;"/>
            <g style="clip-path: url(#clippath-16);">
              <path d="M1391.137,143.612c.338-.506.523-1.104.523-1.722h0c0-1.218-.715-2.362-1.914-2.872-.399-.169-.835-.236-1.268-.236h-8.638c-1.555,0-3.038-.661-4.078-1.815-1.197-1.328-2.325-2.581-3.183-3.533-1.007-1.118-2.441-1.755-3.946-1.755h-2.301s-4.335,0-8.291,0h-2.274c-1.651,0-3.196.957-3.807,2.489-.834,2.094.18,4.436,2.306,5.254.459.177.953.248,1.445.248h.941s4.497,13.491,4.497,13.491h21.591s10.765-9.088,10.765-9.088l-2.369-.461Z" style="fill: #a7cc40; fill-rule: evenodd;"/>
            </g>
          </g>
          <ellipse cx="1417.551" cy="86.891" rx="30.211" ry="30.186" style="fill: #c7ebf7;"/>
          <g>
            <ellipse cx="1417.551" cy="86.891" rx="24.169" ry="24.149" style="fill: #49a198;"/>
            <g style="clip-path: url(#clippath-17);">
              <path d="M1437.911,101.857c.579-.868.897-1.893.897-2.951h0c0-2.088-1.227-4.05-3.282-4.924-.684-.291-1.431-.404-2.173-.404h-14.809c-2.666,0-5.208-1.132-6.991-3.112-2.051-2.277-3.985-4.424-5.455-6.056-1.726-1.916-4.184-3.009-6.764-3.009h-3.944s-7.432,0-14.213,0h-3.898c-2.83,0-5.48,1.64-6.526,4.267-1.43,3.591.308,7.605,3.954,9.007.787.303,1.634.425,2.477.425h1.613s7.709,23.128,7.709,23.128h37.013s18.454-15.58,18.454-15.58l-4.061-.79Z" style="fill: #a7cc40; fill-rule: evenodd;"/>
            </g>
          </g>
        </g>
        <g>
          <rect x="984.841" y="64.814" width="127.303" height="12.543" rx="6.271" ry="6.271" transform="translate(2096.9862 142.1701) rotate(-180)" style="fill: #c2e6e4;"/>
          <g>
            <rect x="1091.146" y="17.489" width="8.531" height="53.596" style="fill: #a3d8d3;"/>
            <rect x="1003.707" y="19.62" width="8.531" height="51.465" style="fill: #a3d8d3;"/>
            <rect x="1050.601" y="-33.327" width="8.531" height="104.412" transform="translate(2109.7324 37.7581) rotate(-180)" style="fill: #a3d8d3;"/>
            <ellipse cx="1007.973" cy="19.62" rx="27.725" ry="27.701" style="fill: #fff;"/>
            <g>
              <path d="M986.646,19.62c0-11.768,9.548-21.309,21.327-21.309s21.327,9.54,21.327,21.309c0,11.769-9.548,21.309-21.327,21.309-11.779,0-21.327-9.54-21.327-21.309Z" style="fill: #49a198; fill-rule: evenodd;"/>
              <g style="clip-path: url(#clippath-18);">
                <path d="M990.007,32.825c-.51-.766-.791-1.67-.791-2.604h0c0-1.843,1.082-3.574,2.896-4.344.603-.257,1.263-.357,1.918-.357h13.067c2.353,0,4.595-.999,6.169-2.746,1.81-2.009,3.517-3.904,4.814-5.344,1.523-1.691,3.692-2.655,5.969-2.655h3.481s6.557,0,12.541,0h3.441c2.497,0,4.835,1.448,5.758,3.766,1.263,3.168-.272,6.71-3.488,7.947-.695.267-1.442.376-2.186.376h-1.423s-6.803,20.407-6.803,20.407h-32.66s-16.284-13.748-16.284-13.748l3.583-.697Z" style="fill: #a7cc40; fill-rule: evenodd;"/>
              </g>
            </g>
            <path d="M1116.738,17.489c0-11.768-9.548-21.309-21.327-21.309-11.779,0-21.327,9.54-21.327,21.309s9.548,21.309,21.327,21.309c11.778,0,21.327-9.54,21.327-21.309Z" style="fill: #fff; fill-rule: evenodd;"/>
            <g>
              <path d="M1080.483,17.489c0-8.238,6.684-14.916,14.929-14.916s14.929,6.678,14.929,14.916c0,8.238-6.684,14.916-14.929,14.916-8.245,0-14.929-6.678-14.929-14.916Z" style="fill: #6fbfbc; fill-rule: evenodd;"/>
              <g style="clip-path: url(#clippath-19);">
                <path d="M1082.836,26.733c-.358-.536-.554-1.169-.554-1.823h0c0-1.29.758-2.502,2.027-3.041.422-.179.884-.25,1.342-.25h9.147c1.647,0,3.217-.699,4.318-1.922,1.267-1.407,2.462-2.733,3.37-3.741,1.066-1.184,2.585-1.859,4.178-1.859h2.436s4.59,0,8.779,0h2.408c1.748,0,3.384,1.013,4.031,2.636.883,2.218-.19,4.697-2.442,5.563-.486.187-1.009.263-1.53.263h-.996l-4.762,14.285h-22.862s-11.399-9.623-11.399-9.623l2.508-.488Z" style="fill: #a7cc40; fill-rule: evenodd;"/>
              </g>
            </g>
          </g>
        </g>
        <g>
          <rect x="701.848" y="11.339" width="127.303" height="12.543" rx="6.271" ry="6.271" style="fill: #c2e6e4;"/>
          <g>
            <rect x="714.316" y="-35.985" width="8.531" height="53.596" transform="translate(1437.1618 -18.3748) rotate(-180)" style="fill: #a3d8d3;"/>
            <rect x="801.755" y="-33.854" width="8.531" height="51.465" transform="translate(1612.0399 -16.2439) rotate(-180)" style="fill: #a3d8d3;"/>
            <rect x="754.861" y="-86.801" width="8.531" height="104.412" style="fill: #a3d8d3;"/>
          </g>
        </g>
        <g>
          <rect x="1127.34" y="119.28" width="127.303" height="12.543" rx="6.271" ry="6.271" style="fill: #c2e6e4;"/>
          <g>
            <path d="M1248.805,60.049c0-2.932-2.369-5.299-5.303-5.299s-5.303,2.367-5.303,5.299c0-2.932-2.368-5.299-5.303-5.299s-5.303,2.367-5.303,5.299c0-2.932-2.368-5.299-5.303-5.299s-5.303,2.367-5.303,5.299c0-2.932-2.368-5.299-5.303-5.299s-5.303,2.367-5.303,5.299c0-2.932-2.368-5.299-5.303-5.299s-5.303,2.367-5.303,5.299v9.823h53.035v-9.823h-.001Z" style="fill: #8dd44c;"/>
            <rect x="1164.474" y="66.779" width="84.332" height="57.765" style="fill: #fff;"/>
            <rect x="1206.378" y="66.779" width="10.607" height="57.765" style="fill: #e9f1f6; mix-blend-mode: multiply; opacity: .5;"/>
            <rect x="1243.501" y="66.779" width="5.305" height="57.765" style="fill: #e9f1f6; mix-blend-mode: multiply; opacity: .5;"/>
            <g>
              <path d="M1211.419,124.545h-78.24V48.098c0-10.366,4.108-20.307,11.424-27.636,7.354-7.33,17.291-11.447,27.658-11.447h.038c10.367,0,20.304,4.117,27.658,11.447,7.316,7.33,11.462,17.27,11.462,27.636v76.447Z" style="fill: #fff; fill-rule: evenodd;"/>
              <g>
                <rect x="1133.178" y="87.41" width="15.648" height="18.567" style="fill: #b3efe3;"/>
                <rect x="1133.178" y="51.145" width="15.648" height="15.635" style="fill: #b3efe3;"/>
                <rect x="1159.927" y="87.41" width="24.742" height="37.134" style="fill: #b3efe3;"/>
                <rect x="1159.927" y="51.145" width="24.742" height="15.635" style="fill: #b3efe3;"/>
                <rect x="1195.77" y="87.41" width="15.648" height="18.567" style="fill: #b3efe3;"/>
                <rect x="1195.77" y="51.145" width="15.648" height="15.635" style="fill: #b3efe3;"/>
              </g>
              <g style="opacity: .35;">
                <rect x="1133.179" y="51.145" width="15.648" height="5.998" style="fill: #49a2e0;"/>
                <rect x="1159.928" y="51.145" width="24.742" height="5.998" style="fill: #49a2e0;"/>
                <rect x="1195.771" y="51.145" width="15.648" height="5.998" style="fill: #49a2e0;"/>
              </g>
              <g style="opacity: .35;">
                <rect x="1133.179" y="87.41" width="15.648" height="5.998" style="fill: #49a2e0;"/>
                <rect x="1159.928" y="87.41" width="24.742" height="5.998" style="fill: #49a2e0;"/>
                <rect x="1195.771" y="87.41" width="15.648" height="5.998" style="fill: #49a2e0;"/>
              </g>
            </g>
            <rect x="1216.984" y="87.41" width="26.516" height="31.87" style="fill: #b3efe3;"/>
            <rect x="1216.986" y="87.41" width="26.516" height="5.998" style="fill: #49a2e0;"/>
            <rect x="1211.419" y="66.873" width="37.387" height="5.998" style="fill: #fff;"/>
          </g>
        </g>
      </g>
    </g>
  </g>
</svg>