<?xml version="1.0" encoding="UTF-8"?>
<svg xmlns="http://www.w3.org/2000/svg" width="1500" height="145" xmlns:xlink="http://www.w3.org/1999/xlink" version="1.1" viewBox="0 0 1500 145">
  <!-- Generator: Adobe Illustrator 30.5.1, SVG Export Plug-In . SVG Version: 2.1.4 Build 3)  -->
  <defs>
    <clipPath id="clippath">
      <rect width="1500" height="145" style="fill: none;"/>
    </clipPath>
    <clipPath id="clippath-1">
      <ellipse cx="298.014" cy="-15.954" rx="21.327" ry="21.309" style="fill: #49a198;"/>
    </clipPath>
    <clipPath id="clippath-2">
      <ellipse cx="210.575" cy="-18.084" rx="14.929" ry="14.916" style="fill: #6fbfbc;"/>
    </clipPath>
    <clipPath id="clippath-5">
      <path d="M752.525,79.71c19.671,0,34.051-18.549,29.133-37.579l-60.81-235.314c-3.513-13.593-15.784-23.091-29.836-23.091h0c-14.051,0-26.323,9.497-29.836,23.091l-23.067,89.261c-4.242,16.416-17.507,28.962-34.144,32.295l-72.089,14.442c-32.304,6.472-55.551,34.818-55.551,67.738h0c0,38.155,30.957,69.086,69.144,69.086h45.205l-.018.072h161.868Z" style="fill: none;"/>
    </clipPath>
    <clipPath id="clippath-6">
      <polygon points="774.065 92.294 567.533 92.03 567.533 92.162 479.443 92.162 479.443 -203.822 775.22 -203.822 774.065 92.294" style="clip-rule: evenodd; fill: none;"/>
    </clipPath>
    <clipPath id="clippath-7">
      <path d="M871.258,13.582l-42.155-10.631v-109.381c0-18.335-14.477-33.819-32.825-34.131-11.698-.199-22.048,5.614-28.167,14.548h-.004s-98.636,166.58-98.636,166.58c-.007,21.616,17.529,39.143,39.164,39.143h155.504c18.449,0,33.916-14.663,34.069-33.096.136-16.352-11.5-30.009-26.949-33.032Z" style="fill: none;"/>
    </clipPath>
    <clipPath id="clippath-8">
      <polygon points="881.12 92.294 674.588 92.03 674.588 92.162 586.498 92.162 586.498 -203.822 882.275 -203.822 881.12 92.294" style="clip-rule: evenodd; fill: none;"/>
    </clipPath>
    <clipPath id="clippath-10">
      <path d="M611.728,512.118V-50.387c0-9.071-7.354-16.425-16.425-16.425h0c-7.211,0-13.578,4.703-15.698,11.594l-6.816,22.153h0c-5.047,16.544-14.094,31.588-26.341,43.802l-39.085,38.981c-12.405,12.372-19.376,29.171-19.376,46.691v415.708h123.741Z" style="clip-rule: evenodd; fill: none;"/>
    </clipPath>
    <clipPath id="clippath-11">
      <path d="M611.728,512.118V-50.387c0-9.071-7.354-16.425-16.425-16.425h0c-7.211,0-13.578,4.703-15.698,11.594l-6.816,22.153h0c-5.047,16.544-14.094,31.588-26.341,43.802l-39.085,38.981c-12.405,12.372-19.376,29.171-19.376,46.691v415.708h123.741Z" style="clip-rule: evenodd; fill: none;"/>
    </clipPath>
    <clipPath id="clippath-12">
      <path d="M611.728,516.07V17.141l-5.372,11.644c-8.36,18.119-20.675,34.133-36.041,46.864l-81.021,67.13c-16.721,13.828-26.401,34.394-26.401,56.092v317.199h148.836Z" style="clip-rule: evenodd; fill: none;"/>
    </clipPath>
    <clipPath id="clippath-13">
      <ellipse cx="1185.229" cy="15.101" rx="20.141" ry="20.124" style="fill: #49a198;"/>
    </clipPath>
    <clipPath id="clippath-14">
      <ellipse cx="1267.807" cy="13.088" rx="14.099" ry="14.087" style="fill: #6fbfbc;"/>
    </clipPath>
    <clipPath id="clippath-18">
      <path d="M1029.274,111.673c0-14.122,11.458-25.57,25.592-25.57s25.592,11.448,25.592,25.57-11.458,25.57-25.592,25.57c-14.134,0-25.592-11.448-25.592-25.57Z" style="clip-rule: evenodd; fill: #49a198;"/>
    </clipPath>
    <clipPath id="clippath-19">
      <ellipse cx="806.02" cy="111.146" rx="21.327" ry="21.309" style="fill: #49a198;"/>
    </clipPath>
    <clipPath id="clippath-20">
      <ellipse cx="718.581" cy="109.015" rx="14.929" ry="14.916" style="fill: #6fbfbc;"/>
    </clipPath>
    <clipPath id="clippath-21">
      <ellipse cx="759.126" cy="58.199" rx="25.592" ry="25.57" style="fill: #49a198;"/>
    </clipPath>
  </defs>
  <g style="isolation: isolate;">
    <g id="Details">
      <g style="clip-path: url(#clippath);">
        <rect x="-10.125" y="-2308.498" width="1520.249" height="3053.416" style="fill: #61d1d5;"/>
        <path d="M-31.619,803.82V-312.869h439.79c24.414,0,47.365,9.507,64.629,26.77l88.768,88.769c9.708,9.707,22.615,15.054,36.344,15.054h270.975c15.867,0,31.084,6.303,42.304,17.523l31.302,31.302c11.299,11.3,17.521,26.323,17.521,42.304v36.879c0,28.387,23.012,51.399,51.399,51.399h0c28.387,0,51.399-23.012,51.399-51.399v-159.383c0-50.478,40.92-91.398,91.398-91.398h173.96c50.397,0,91.398,41.002,91.398,91.399l.529,144.191c1.499,21.417,19.367,38.12,40.891,38.12h111.087v551.517h-238.168c-43.687,0-79.103-35.415-79.103-79.103v-63.47c0-29.481-23.899-53.381-53.381-53.381h-55.92c-29.481,0-53.381,23.899-53.381,53.381v100.962c0,21.13-8.229,40.994-23.169,55.934l-141.512,141.513c-18.283,18.283-42.592,28.353-68.448,28.353H-40.344c-13.73,0-28.235,72.685-28.235,72.685-17.263,17.263,290.517,26.77,266.104,26.77H-31.619Z" style="fill: #4eeae6;"/>
        <path d="M913.301,656.352l141.513-141.513c11.084-11.084,17.311-26.117,17.311-41.792v-100.962c0-40.527,32.854-73.381,73.381-73.381h55.92c40.527,0,73.381,32.854,73.381,73.381v63.47c0,32.641,26.461,59.102,59.102,59.102h218.168s0-505.586,0-505.586h-91.087c-32.307,0-59.01-25.192-60.888-57.445l-.532-144.867c0-39.432-31.966-71.399-71.398-71.399h-173.96c-39.432,0-71.399,31.966-71.399,71.399V121.393c0,16.501-13.377,29.877-29.877,29.877h-83.042c-16.501,0-29.877-13.377-29.877-29.877V-90.736c0-10.563-4.196-20.693-11.665-28.161l-31.302-31.302c-7.469-7.469-17.599-11.665-28.161-11.665h-270.975c-18.936,0-37.097-7.522-50.486-20.912l-88.768-88.768c-13.39-13.39-31.551-20.912-50.487-20.912H-11.618v971.858h870.614c20.369,0,39.903-8.646,54.306-23.049Z" style="fill: #d6f0f0;"/>
        <g>
          <path d="M444.7,3.403l-7.082-7.082c-6.897-6.896-16.25-10.771-26.003-10.771h-165.681c-19.013,0-37.247-7.553-50.691-20.997l-24.496-24.496c-13.444-13.444-20.997-31.679-20.997-50.692h0c0-39.593-32.096-71.689-71.688-71.689H-5.367s0,382.286,0,382.286h-15.768v196.741h210.985c25.021,0,47.61-13.01,62.354-33.225.634-.869,1.338-1.693,2.108-2.463l53.343-53.343c3.921-3.921,6.123-9.238,6.123-14.783v-50.807c0-5.545-2.203-10.862-6.123-14.783l-21.212-21.212c-3.921-3.921-9.238-6.123-14.783-6.123h-105.067c-12.885,0-25.243-5.119-34.355-14.23l-21.072-21.072c-10.115-10.115-15.797-23.834-15.797-38.139h0c0-29.789,24.148-53.937,53.937-53.937h262.987c9.753,0,19.107-3.874,26.003-10.771l5.821-5.821c5.049-5.048,8.812-11.325,10.41-18.283,2.89-12.584-.984-25.465-9.827-34.307Z" style="fill: #4aa280; fill-rule: evenodd;"/>
          <path d="M-11.138,396.704h200.988c25.021,0,47.61-13.01,62.354-33.225.634-.869,1.338-1.693,2.108-2.463l53.343-53.344c3.921-3.92,6.123-9.238,6.123-14.783v-50.808c0-5.544-2.203-10.862-6.123-14.783l-21.212-21.212c-3.921-3.92-9.238-6.123-14.783-6.123h-105.067c-12.885,0-25.243-5.119-34.355-14.23l-21.072-21.072c-10.115-10.115-15.797-23.834-15.797-38.139,0-29.789,24.148-53.937,53.937-53.937h262.987c9.753,0,19.107-3.874,26.003-10.771l5.821-5.821c5.049-5.048,8.812-11.325,10.41-18.283,2.89-12.583-.984-25.465-9.827-34.308l-7.082-7.082c-6.897-6.896-16.25-10.771-26.003-10.771h-165.681c-19.013,0-37.247-7.553-50.691-20.997l-24.496-24.497c-13.444-13.444-20.997-31.678-20.997-50.691h0c0-39.593-32.096-71.689-71.688-71.689H-.368" style="fill: none; stroke: #4aa280; stroke-dasharray: 0 9.998; stroke-linecap: round; stroke-linejoin: round; stroke-width: 10px;"/>
        </g>
        <g>
          <rect x="206.31" y="-18.084" width="8.531" height="53.596" transform="translate(421.15 17.427) rotate(-180)" style="fill: #dcf8f1;"/>
          <rect x="293.749" y="-15.954" width="8.531" height="51.465" transform="translate(596.028 19.558) rotate(-180)" style="fill: #dcf8f1;"/>
          <rect x="246.855" y="-68.901" width="8.531" height="104.412" style="fill: #dcf8f1;"/>
          <ellipse cx="298.014" cy="-15.954" rx="27.725" ry="27.701" style="fill: #c7ebf7;"/>
          <g>
            <ellipse cx="298.014" cy="-15.954" rx="21.327" ry="21.309" style="fill: #49a198;"/>
            <g style="clip-path: url(#clippath-1);">
              <path d="M315.979-2.749c.51-.766.791-1.67.791-2.604h0c0-1.843-1.082-3.574-2.896-4.344-.603-.257-1.263-.357-1.918-.357h-13.067c-2.353,0-4.595-.999-6.169-2.746-1.81-2.009-3.517-3.904-4.814-5.344-1.523-1.691-3.692-2.655-5.969-2.655h-3.481s-6.557,0-12.541,0h-3.441c-2.497,0-4.835,1.448-5.758,3.766-1.263,3.168.272,6.71,3.488,7.947.695.267,1.442.376,2.186.376h1.423s6.803,20.407,6.803,20.407h32.66s16.284-13.748,16.284-13.748l-3.583-.697Z" style="fill: #a7cc40; fill-rule: evenodd;"/>
            </g>
          </g>
          <ellipse cx="210.575" cy="-18.084" rx="21.327" ry="21.309" style="fill: #c7ebf7;"/>
          <g>
            <ellipse cx="210.575" cy="-18.084" rx="14.929" ry="14.916" style="fill: #6fbfbc;"/>
            <g style="clip-path: url(#clippath-2);">
              <path d="M223.15-8.841c.358-.536.554-1.169.554-1.823h0c0-1.29-.758-2.502-2.027-3.041-.422-.179-.884-.25-1.342-.25h-9.147c-1.647,0-3.217-.699-4.318-1.922-1.267-1.407-2.462-2.733-3.37-3.741-1.066-1.184-2.585-1.859-4.178-1.859h-2.436s-4.59,0-8.779,0h-2.408c-1.748,0-3.384,1.013-4.031,2.636-.883,2.218.19,4.697,2.442,5.563.486.187,1.009.263,1.53.263h.996s4.762,14.285,4.762,14.285h22.862s11.399-9.623,11.399-9.623l-2.508-.488Z" style="fill: #a7cc40; fill-rule: evenodd;"/>
            </g>
          </g>
          <line x1="314.586" y1="36.577" x2="195.646" y2="36.577" style="fill: none; stroke: #4aa280; stroke-dasharray: 0 16.581; stroke-linecap: round; stroke-linejoin: round; stroke-width: 16.581px;"/>
        </g>
        <g>
          <rect x="133.724" y="139.011" width="127.303" height="12.543" rx="6.271" ry="6.271" style="fill: #c2e6e4;"/>
          <g>
            <path d="M255.188,79.78c0-2.932-2.369-5.299-5.303-5.299s-5.303,2.367-5.303,5.299c0-2.932-2.368-5.299-5.303-5.299s-5.303,2.367-5.303,5.299c0-2.932-2.368-5.299-5.303-5.299s-5.303,2.367-5.303,5.299c0-2.932-2.368-5.299-5.303-5.299s-5.303,2.367-5.303,5.299c0-2.932-2.368-5.299-5.303-5.299s-5.303,2.367-5.303,5.299v9.823h53.035v-9.823h-.001Z" style="fill: #8dd44c;"/>
            <rect x="170.857" y="86.51" width="84.332" height="57.765" style="fill: #fff;"/>
            <rect x="212.761" y="86.51" width="10.607" height="57.765" style="fill: #e9f1f6; mix-blend-mode: multiply; opacity: .5;"/>
            <rect x="249.885" y="86.51" width="5.305" height="57.765" style="fill: #e9f1f6; mix-blend-mode: multiply; opacity: .5;"/>
            <g>
              <path d="M217.802,144.275h-78.24v-76.447c0-10.366,4.108-20.307,11.424-27.636,7.354-7.33,17.291-11.447,27.658-11.447h.038c10.367,0,20.304,4.117,27.658,11.447,7.316,7.33,11.462,17.27,11.462,27.636v76.447Z" style="fill: #fff; fill-rule: evenodd;"/>
              <g>
                <rect x="139.561" y="107.14" width="15.648" height="18.567" style="fill: #b3efe3;"/>
                <rect x="139.561" y="70.875" width="15.648" height="15.635" style="fill: #b3efe3;"/>
                <rect x="166.31" y="107.14" width="24.742" height="37.134" style="fill: #b3efe3;"/>
                <rect x="166.31" y="70.875" width="24.742" height="15.635" style="fill: #b3efe3;"/>
                <rect x="202.154" y="107.14" width="15.648" height="18.567" style="fill: #b3efe3;"/>
                <rect x="202.154" y="70.875" width="15.648" height="15.635" style="fill: #b3efe3;"/>
              </g>
              <g style="opacity: .35;">
                <rect x="139.562" y="70.875" width="15.648" height="5.998" style="fill: #49a2e0;"/>
                <rect x="166.312" y="70.875" width="24.742" height="5.998" style="fill: #49a2e0;"/>
                <rect x="202.154" y="70.875" width="15.648" height="5.998" style="fill: #49a2e0;"/>
              </g>
              <g style="opacity: .35;">
                <rect x="139.562" y="107.14" width="15.648" height="5.998" style="fill: #49a2e0;"/>
                <rect x="166.312" y="107.14" width="24.742" height="5.998" style="fill: #49a2e0;"/>
                <rect x="202.154" y="107.14" width="15.648" height="5.998" style="fill: #49a2e0;"/>
              </g>
            </g>
            <rect x="223.368" y="107.14" width="26.516" height="31.87" style="fill: #b3efe3;"/>
            <rect x="223.369" y="107.14" width="26.516" height="5.998" style="fill: #49a2e0;"/>
            <rect x="217.802" y="86.604" width="37.387" height="5.998" style="fill: #fff;"/>
          </g>
        </g>
        <g>
          <ellipse cx="896.466" cy="168.663" rx="31.99" ry="31.963" style="fill: #fff;"/>
          <ellipse cx="896.466" cy="168.663" rx="25.592" ry="25.57" style="fill: #49a198;"/>
        </g>
        <g>
          <rect x="1401.686" y="15.987" width="127.303" height="12.543" rx="6.271" ry="6.271" style="fill: #c2e6e4;"/>
          <g>
            <rect x="1414.154" y="-31.337" width="8.531" height="53.596" transform="translate(2836.8392 -9.0787) rotate(-180)" style="fill: #a3d8d3;"/>
            <rect x="1454.7" y="-82.153" width="8.531" height="104.412" style="fill: #a3d8d3;"/>
          </g>
        </g>
        <g>
          <rect x="472.138" y="64.413" width="434.255" height="30.593" rx="15.297" ry="15.297" style="fill: #c2e6e4;"/>
          <g>
            <path d="M829.103,2.951l46.734,11.059c10.807,2.566,14.818,10.262,14.818,10.262" style="fill: #8dd44c;"/>
            <g>
              <path d="M829.097,8.656c-.354,0-.734-.054-1.115-.109-.353-.081-.707-.19-1.06-.326-.353-.135-.679-.325-.978-.516-.326-.216-.625-.461-.869-.733-1.06-1.058-1.685-2.524-1.685-4.018s.625-2.985,1.685-4.045c.244-.244.543-.489.869-.707.299-.19.625-.379.978-.516.353-.135.707-.244,1.06-.326.734-.135,1.494-.135,2.228,0,.381.082.734.191,1.06.326.353.137.679.326,1.006.516.299.217.597.463.869.707,1.06,1.059,1.657,2.552,1.657,4.045s-.597,2.96-1.657,4.018c-.272.272-.571.517-.869.733-.326.191-.653.38-1.006.516-.326.137-.679.245-1.06.326-.353.054-.734.109-1.113.109Z" style="fill: #8dd44c;"/>
              <path d="M879.883,21.634h0c-1.957-1.114-3.017-3.204-2.88-5.321h0c-1.278,1.928-3.669,2.959-6.059,2.389h0c-2.608-.598-4.376-2.932-4.402-5.484h0c-1.169,2.28-3.777,3.557-6.386,2.932h0c-2.608-.624-4.374-2.932-4.402-5.512h0c-1.168,2.308-3.776,3.585-6.385,2.96h0c-2.608-.626-4.376-2.932-4.402-5.512h0c-1.169,2.308-3.777,3.583-6.386,2.959h0c-3.07-.733-4.973-3.801-4.239-6.842h0c.734-3.068,3.804-4.967,6.875-4.234h0c2.608.597,4.374,2.931,4.374,5.484h0c1.169-2.281,3.804-3.557,6.412-2.932h0c2.608.597,4.374,2.932,4.374,5.484h0c1.169-2.281,3.805-3.557,6.414-2.932h0c2.608.597,4.374,2.932,4.374,5.484h0c1.169-2.281,3.804-3.557,6.412-2.932h0c2.745.651,4.566,3.176,4.376,5.919h0c1.629-2.471,4.945-3.313,7.581-1.792h0c2.744,1.547,3.695,5.05,2.119,7.764h0c-1.032,1.847-2.961,2.878-4.945,2.878h0c-.951,0-1.929-.244-2.826-.76Z" style="fill: #8dd44c;"/>
              <path d="M890.643,29.969c-.353,0-.734-.028-1.115-.109-.353-.081-.706-.19-1.06-.326-.353-.135-.679-.325-.978-.516-.326-.217-.597-.461-.869-.705-1.06-1.087-1.685-2.552-1.685-4.046s.625-2.959,1.685-4.018c.272-.272.543-.516.869-.705.299-.217.625-.408.978-.544.354-.135.707-.244,1.06-.326.734-.135,1.494-.135,2.228,0,.381.082.734.191,1.088.326.325.135.679.326.978.544.299.19.597.433.869.705,1.06,1.059,1.658,2.525,1.658,4.018s-.598,2.987-1.658,4.046c-.272.244-.571.488-.869.705-.299.191-.653.38-.978.516-.354.137-.707.245-1.088.326-.353.081-.734.109-1.113.109Z" style="fill: #8dd44c;"/>
            </g>
            <g>
              <path d="M752.525,79.71c19.671,0,34.051-18.549,29.133-37.579l-60.81-235.314c-3.513-13.593-15.784-23.091-29.836-23.091h0c-14.051,0-26.323,9.497-29.836,23.091l-23.067,89.261c-4.242,16.416-17.507,28.962-34.144,32.295l-72.089,14.442c-32.304,6.472-55.551,34.818-55.551,67.738h0c0,38.155,30.957,69.086,69.144,69.086h45.205l-.018.072h161.868Z" style="fill: #54b7b7;"/>
              <g style="clip-path: url(#clippath-5);">
                <g>
                  <g>
                    <polygon points="774.065 92.294 567.533 92.03 567.533 92.162 479.443 92.162 479.443 -203.822 775.22 -203.822 774.065 92.294" style="fill: #5ac4c3; fill-rule: evenodd;"/>
                    <g style="clip-path: url(#clippath-6);">
                      <polygon points="644.721 98.542 606.282 116.384 789.664 -281.525 821.173 -295.765 644.721 98.542" style="fill: #baeffc; fill-opacity: .176; fill-rule: evenodd;"/>
                      <polygon points="582.243 102.928 474.304 120.771 657.686 -277.138 758.695 -291.378 582.243 102.928" style="fill: #baeffc; fill-opacity: .176; fill-rule: evenodd;"/>
                      <polygon points="727.849 113.404 669.78 116.642 797.407 -161.644 820.115 -89.014 727.849 113.404" style="fill: #baeffc; fill-opacity: .176; fill-rule: evenodd;"/>
                    </g>
                  </g>
                  <g>
                    <polygon points="663.044 -203.822 661.231 -203.822 658.491 -203.822 657.399 -203.822 657.399 92.162 658.274 92.162 659.289 92.162 660.086 92.162 662.826 92.162 663.919 92.162 663.919 -203.822 663.044 -203.822" style="fill: #4aa2b2;"/>
                    <polygon points="594.576 -203.822 591.837 -203.822 590.744 -203.822 590.744 92.162 591.619 92.162 592.634 92.162 593.432 92.162 596.171 92.162 597.264 92.162 597.264 -203.822 596.389 -203.822 594.576 -203.822" style="fill: #4aa2b2;"/>
                    <polygon points="527.915 -203.822 525.175 -203.822 524.09 -203.822 524.09 92.162 525.456 92.162 525.98 92.162 527.582 92.162 530.034 92.162 530.61 92.162 530.61 -203.822 529.731 -203.822 527.915 -203.822" style="fill: #4aa2b2;"/>
                    <polygon points="727.885 -203.822 725.146 -203.822 724.053 -203.822 724.053 92.162 724.928 92.162 725.943 92.162 726.741 92.162 729.48 92.162 730.573 92.162 730.573 -203.822 729.698 -203.822 727.885 -203.822" style="fill: #4aa2b2;"/>
                  </g>
                </g>
                <g>
                  <path d="M751.934,54.455l-.004-.011-59.154-230.29-23.628,96.186c-6.212,25.285-26.73,44.932-52.267,50.062l-74.104,14.881c-19.002,3.816-30.809,17.019-30.809,34.454v50.711c0,3.718.587,7.365,1.646,10.829,3.585,2.537,7.478,4.662,11.642,6.273l.799.275c5.58,1.696,11.32,2.702,17.108,3.007v.208l198.138.074,3.236-5.98c.197-.364.958-1.548,2.478-1.548.645,0,1.279-.066,1.916-.109.815-10.873,1.532-23.928,2.1-24.661.981-1.266,1.304-2.814.903-4.361ZM579.549,68.534l.264.071-.264-.071Z" style="fill: none;"/>
                  <path d="M774.042,48.772l-60.778-236.585c-2.132-9.621-10.848-16.607-20.722-16.607-10.87,0-19.392,8.099-21.261,20.408l-24.296,98.915c-4.116,16.737-17.695,29.747-34.598,33.14l-74.104,14.881c-29.393,5.902-49.139,28.734-49.139,56.814v13.341c0,19.553,9.465,37.577,24.471,48.199-1.059-3.464-1.646-7.111-1.646-10.829V19.737c0-17.435,11.806-30.638,30.809-34.454l74.104-14.881c25.537-5.13,46.055-24.777,52.267-50.062l23.628-96.186,59.154,230.29.004.011c.401,1.548.078,3.096-.903,4.361-.568.733-1.285,13.788-2.1,24.661,7.947-.536,15.212-4.336,20.14-10.693,5.324-6.86,7.133-15.612,4.971-24.012ZM691.048-182.594c0,.011.004.026.007.037-.004-.011-.007-.026-.007-.037Z" style="fill: #4aa2b2; opacity: .35;"/>
                </g>
              </g>
              <path d="M546.882,79.525c-6.088,0-11.961-.924-17.504-2.61-18.291-7.074-28.823-25.675-28.823-43.837v-13.341c0-22.847,15.689-40.757,39.974-45.634l74.104-14.881c21.22-4.261,38.269-20.59,43.432-41.599l24.296-98.918c.104-.419.186-.843.253-1.269.762-5.052,3.771-10.453,9.927-10.453,4.566,0,8.597,3.226,9.581,7.669.037.152.071.308.111.46l60.752,236.496c1.282,4.967.208,10.141-2.935,14.194-3.147,4.057-7.898,6.381-13.036,6.381-5.433,0-10.101,3.066-12.516,7.527h21.391c20.208,0,34.982-19.057,29.93-38.607l-62.472-241.749c-3.609-13.965-16.216-23.722-30.652-23.722s-27.043,9.757-30.652,23.722l-23.698,91.702c-4.358,16.865-17.985,29.754-35.078,33.178l-74.061,14.837c-33.188,6.648-57.07,35.77-57.07,69.59,0,39.199,31.803,70.975,71.035,70.975h33.787c-.19-.025-.358-.112-.554-.112h-29.523Z" style="fill: #f3ffff;"/>
            </g>
            <g>
              <g style="clip-path: url(#clippath-7);">
                <g>
                  <g>
                    <polygon points="881.12 92.294 674.588 92.03 674.588 92.162 586.498 92.162 586.498 -203.822 882.275 -203.822 881.12 92.294" style="fill: #5ac4c3; fill-rule: evenodd;"/>
                    <g style="clip-path: url(#clippath-8);">
                      <polygon points="674.175 102.928 566.237 120.771 749.618 -277.138 850.627 -291.378 674.175 102.928" style="fill: #baeffc; fill-opacity: .176; fill-rule: evenodd;"/>
                      <polygon points="835.487 113.404 800.059 116.642 927.686 -161.644 927.752 -89.014 835.487 113.404" style="fill: #baeffc; fill-opacity: .176; fill-rule: evenodd;"/>
                    </g>
                  </g>
                  <g>
                    <polygon points="770.099 -203.822 768.286 -203.822 765.546 -203.822 764.454 -203.822 764.454 92.162 765.329 92.162 766.344 92.162 767.141 92.162 769.881 92.162 770.974 92.162 770.974 -203.822 770.099 -203.822" style="fill: #4aa2b2;"/>
                    <polygon points="701.631 -203.822 698.892 -203.822 697.799 -203.822 697.799 92.162 698.674 92.162 699.689 92.162 700.487 92.162 703.226 92.162 704.319 92.162 704.319 -203.822 703.444 -203.822 701.631 -203.822" style="fill: #4aa2b2;"/>
                    <polygon points="634.97 -203.822 632.23 -203.822 631.145 -203.822 631.145 92.162 632.511 92.162 633.035 92.162 634.637 92.162 637.089 92.162 637.665 92.162 637.665 -203.822 636.786 -203.822 634.97 -203.822" style="fill: #4aa2b2;"/>
                    <polygon points="834.94 -203.822 832.201 -203.822 831.108 -203.822 831.108 92.162 831.983 92.162 832.998 92.162 833.796 92.162 836.535 92.162 837.628 92.162 837.628 -203.822 836.753 -203.822 834.94 -203.822" style="fill: #4aa2b2;"/>
                  </g>
                </g>
                <g style="opacity: .35;">
                  <path d="M687.894,111.41l-20.596-9.837s28.331-59.22,33.242-69.45l67.201-142.552c5.339-10.954,16.094-17.672,28.13-17.672,18.999,0,28.94,15.69,28.94,31.191l.082,187.744-22.825.007-.082-187.748c0-1.971-.442-8.389-6.115-8.389-3.284,0-6.104,1.763-7.545,4.722l-67.172,142.488c-4.945,10.297-33.261,69.494-33.261,69.494Z" style="fill: #4aa2b2;"/>
                  <path d="M865.952,118.904v-51.139c0-.705-.056-1.214-.119-1.559-.241-.03-.565-.052-.981-.052h-25.088c-1.163,7.027-3.782,13.756-7.742,19.799l-15.369-12.487c3.072-4.696,4.7-10.126,4.7-15.701v-14.417h43.499c14.533,0,23.925,9.584,23.925,24.417v51.013l-22.825.126Z" style="fill: #4aa2b2;"/>
                </g>
              </g>
              <path d="M871.257,13.582l-42.155-10.631v-109.699c0-18.231-14.452-33.43-32.695-33.81-11.752-.245-22.048,5.653-28.297,14.545l-109.46,151.835c-4.16,5.771-6.405,12.7-6.419,19.812-.036,18.809,15.214,34.077,34.039,34.077h46.34c-1.87,0-3.695-.22-5.494-.536-6.59-1.791-11.97-5.606-15.526-11.252-5.561-8.834-5.985-20.638-1.074-30.864l67.235-142.626c3.347-6.863,10.172-11.128,17.806-11.128,12.04,0,17.528,10.256,17.528,19.788l.082,156.23c0,5.715-2.272,10.988-5.896,14.915-4.161,3.417-9.482,5.473-15.276,5.474h30.542c4.136-6.317,6.564-13.848,6.564-21.944v-3.014h35.437c10.339,0,12.512,7.079,12.512,13.014,0,8.935-6.632,11.234-10.857,11.792-.429.04-.849.119-1.284.126-.277.018-.487.019-.723.026h.2c18.474,0,33.758-14.808,33.819-33.266.054-16.277-11.555-29.849-26.95-32.862Z" style="fill: #f3ffff;"/>
            </g>
            <polygon points="842.484 54.752 829.102 54.752 829.102 2.951 842.484 13.366 842.484 54.752" style="fill: #dff5f6;"/>
            <path d="M829.103,5.615c0,8.397,6.813,15.204,15.217,15.204h31.081c10.998,0,17.838,7.991,17.838,7.991,0,0-4.842-10.85-19.056-15.192-11.529-3.522-45.08-10.668-45.08-10.668v2.664Z" style="fill: #8dd44c;"/>
          </g>
        </g>
        <g>
          <path d="M611.199,516.07V-50.387c0-9.071-7.354-16.425-16.425-16.425h0c-7.211,0-13.578,4.703-15.698,11.594l-6.816,22.153h0c-5.047,16.544-14.094,31.588-26.341,43.802l-39.085,38.981c-12.405,12.372-19.376,29.171-19.376,46.691v419.66h123.741Z" style="fill: #a6ede5; fill-rule: evenodd;"/>
          <path d="M611.728,511.253V7.777c0-4.663-3.78-8.443-8.443-8.443h0c-3.293,0-6.286,1.915-7.666,4.906h0c-10.406,22.553-25.746,42.48-44.887,58.309l-61.439,50.808c-16.721,13.828-26.401,34.394-26.401,56.092v341.803h148.836Z" style="fill: #57bdc2; fill-rule: evenodd;"/>
          <g style="clip-path: url(#clippath-10);">
            <path d="M579.776,31.44s9.346-12.34,15.844-27.2c6.001-13.724,9.186-15.702,9.186-44.825,0-6.901,6.923-7.267,6.923-.188V31.44h-31.953Z" style="fill: #57bdc2; fill-rule: evenodd;"/>
          </g>
          <g>
            <path d="M463.157,515.805V169.45c0-21.693,9.588-42.063,26.306-55.889l61.439-50.808c19.054-15.758,34.601-35.953,44.958-58.402,1.332-2.887,4.247-4.752,7.426-4.752,4.509,0,8.178,3.669,8.178,8.178v508.027h-148.307Z" style="fill: #f6ffff; fill-rule: evenodd;"/>
            <path d="M603.286-.135c4.363,0,7.913,3.549,7.913,7.913v507.763h-147.776V169.45c0-21.614,9.553-41.91,26.209-55.684l61.439-50.808c19.084-15.782,34.655-36.01,45.03-58.496,1.289-2.793,4.109-4.598,7.185-4.598M603.286-.665c-3.293,0-6.286,1.915-7.666,4.906h0c-10.406,22.553-25.746,42.48-44.887,58.309l-61.439,50.808c-16.721,13.828-26.401,34.394-26.401,56.092v346.62h148.836V7.777c0-4.663-3.78-8.442-8.443-8.442h0Z" style="fill: #f6ffff;"/>
          </g>
          <g style="clip-path: url(#clippath-11);">
            <g>
              <path d="M580.301,31.176c1.688-2.301,9.793-13.64,15.561-26.829.859-1.965,1.66-3.688,2.403-5.285,4.388-9.438,6.805-14.638,6.805-39.646,0-3.331,1.66-5.073,3.299-5.073,1.49,0,3.094,1.529,3.094,4.886V31.176h-31.163Z" style="fill: #f6ffff; fill-rule: evenodd;"/>
              <path d="M608.37-45.394h0c1.362,0,2.828,1.446,2.828,4.621V30.911h-30.377c2.207-3.048,9.8-13.918,15.283-26.458.858-1.961,1.642-3.648,2.401-5.28,4.404-9.473,6.83-14.691,6.83-39.757,0-3.157,1.527-4.809,3.035-4.809M608.37-45.923c-1.764,0-3.564,1.82-3.564,5.339,0,29.123-3.185,31.102-9.186,44.825-6.498,14.859-15.844,27.2-15.844,27.2h31.953V-40.772c0-3.47-1.663-5.151-3.358-5.151h0Z" style="fill: #f6ffff;"/>
            </g>
          </g>
          <g style="clip-path: url(#clippath-12);">
            <path d="M609.081,516.07V17.141l-2.724,11.644c-8.36,18.119-20.675,34.133-36.041,46.864l-81.021,67.13c-16.721,13.828-26.401,34.394-26.401,56.092v317.199h146.188Z" style="fill: #5cc7c3; fill-rule: evenodd;"/>
            <g>
              <g>
                <line x1="471.845" y1="140.894" x2="471.845" y2="792.355" style="fill: #e8f3fd; mix-blend-mode: multiply; stroke: #e8f3fd; stroke-miterlimit: 10; stroke-width: 2.326px;"/>
                <line x1="474.342" y1="140.894" x2="474.342" y2="792.355" style="fill: none; stroke: #49a2ac; stroke-linecap: round; stroke-linejoin: round; stroke-width: 6.854px;"/>
                <line x1="508.688" y1="110.608" x2="508.688" y2="792.355" style="fill: none; stroke: #49a2ac; stroke-linecap: round; stroke-linejoin: round; stroke-width: 6.854px;"/>
                <line x1="543.035" y1="792.355" x2="543.035" y2="85.514" style="fill: none; stroke: #49a2ac; stroke-linecap: round; stroke-linejoin: round; stroke-width: 6.854px;"/>
                <line x1="577.382" y1="57.823" x2="577.382" y2="792.355" style="fill: none; stroke: #49a2ac; stroke-linecap: round; stroke-linejoin: round; stroke-width: 6.854px;"/>
              </g>
              <polygon points="590.53 14.472 590.53 729.101 608.601 729.101 608.601 8.415 590.53 14.472" style="fill: #e8f3fd; mix-blend-mode: multiply; stroke: #e8f3fd; stroke-miterlimit: 10; stroke-width: 2.326px;"/>
              <path d="M611.728,27.071l-5.372,11.644c-8.36,18.119-20.675,34.133-36.041,46.864l-81.021,67.13c-16.721,13.828-26.401,34.394-26.401,56.092v-35.484c0-21.698,9.68-42.265,26.401-56.092l81.021-67.13c15.365-12.731,27.681-28.745,36.041-46.864l5.372-11.644V27.071Z" style="fill: #e8f3fd; fill-rule: evenodd; mix-blend-mode: multiply;"/>
              <path d="M611.728,107.153l-5.372,11.644c-8.36,18.119-20.675,34.133-36.041,46.864l-81.021,67.13c-16.721,13.828-26.401,34.394-26.401,56.092v-35.484c0-21.698,9.68-42.265,26.401-56.092l81.021-67.13c15.365-12.731,27.681-28.745,36.041-46.864l5.372-11.644v35.484Z" style="fill: #c1f2fc; fill-opacity: .176; fill-rule: evenodd;"/>
              <g>
                <line x1="486.215" y1="138.296" x2="486.215" y2="530.361" style="fill: none; stroke: #f6ffff; stroke-miterlimit: 10; stroke-width: 9.139px;"/>
                <line x1="555.064" y1="79.771" x2="555.064" y2="530.361" style="fill: none; stroke: #f6ffff; stroke-miterlimit: 10; stroke-width: 9.139px;"/>
              </g>
              <path d="M604.872,147.703c.137.344.32.663.527.984.205.319.434.593.707.868.252.25.549.502.869.707.297.205.639.388.982.527.342.136.708.25,1.074.319s.731.114,1.119.114c1.486,0,2.971-.616,4.022-1.667.274-.274.502-.549.708-.868.205-.321.388-.64.525-.984.16-.341.251-.707.342-1.073.068-.366.114-.732.114-1.12,0-.366-.046-.754-.114-1.118-.091-.366-.183-.71-.342-1.075-.137-.341-.32-.663-.525-.982-.206-.297-.434-.593-.708-.868-.251-.252-.549-.502-.868-.71-.298-.205-.64-.388-.983-.524-.342-.138-.708-.252-1.074-.321-.731-.158-1.485-.158-2.216,0-.366.069-.732.183-1.074.321-.342.136-.685.319-.982.524-.32.207-.617.457-.869.71-.273.274-.502.571-.707.868-.206.319-.389.64-.527.982-.136.366-.251.71-.319,1.075-.091.364-.115.752-.115,1.118,0,.388.023.754.115,1.12.068.366.183.732.319,1.073Z" style="fill: #8dd44c;"/>
              <polygon points="602.297 14.472 602.297 729.101 613.746 729.101 613.746 8.415 602.297 14.472" style="fill: #f6ffff; stroke: #f6ffff; stroke-miterlimit: 10; stroke-width: 2.326px;"/>
            </g>
          </g>
        </g>
        <path d="M1522.572,153.263l-63.15-63.15c-4.975-4.975-11.722-7.77-18.757-7.77h-30.492c-28.099,0-50.878-22.779-50.878-50.878v-238.568c0-12.753-10.338-23.091-23.091-23.091h-184.35c-12.701,0-23.018,10.258-23.091,22.959l-1.423,248.128c-.076,13.304,5.138,26.094,14.494,35.553l188.902,190.98c4.975,4.975,7.769,11.722,7.769,18.757v102.907c0,6.937-2.615,13.7-7.567,18.557-16.914,16.589-5.311,45.241,18.284,45.482l106.272,1.084c7.129.073,13.987-2.727,19.028-7.768l48.049-48.049c4.975-4.975,7.769-11.722,7.769-18.757v-207.621c0-7.035-2.795-13.782-7.769-18.757Z" style="fill: #4aa280; fill-rule: evenodd; stroke: #4aa280; stroke-dasharray: 0 10; stroke-linecap: round; stroke-linejoin: round; stroke-width: 10px;"/>
        <g>
          <rect x="1263.779" y="13.088" width="8.056" height="50.616" style="fill: #dcf8f1;"/>
          <rect x="1181.201" y="15.101" width="8.056" height="48.604" style="fill: #dcf8f1;"/>
          <rect x="1225.488" y="-34.903" width="8.056" height="98.607" transform="translate(2459.032 28.802) rotate(-180)" style="fill: #dcf8f1;"/>
          <ellipse cx="1185.229" cy="15.101" rx="26.183" ry="26.161" style="fill: #c7ebf7;"/>
          <g>
            <ellipse cx="1185.229" cy="15.101" rx="20.141" ry="20.124" style="fill: #49a198;"/>
            <g style="clip-path: url(#clippath-13);">
              <path d="M1168.263,27.572c-.482-.724-.747-1.577-.747-2.459h0c0-1.74,1.022-3.375,2.735-4.103.569-.242,1.192-.337,1.812-.337h12.34c2.222,0,4.34-.943,5.826-2.593,1.709-1.897,3.321-3.687,4.546-5.047,1.439-1.597,3.487-2.508,5.637-2.508h18.381c2.358,0,4.566,1.367,5.438,3.557,1.192,2.992-.256,6.337-3.294,7.505-.656.253-1.362.355-2.064.355h-1.344l-6.424,19.273h-30.844l-15.378-12.983,3.384-.659Z" style="fill: #a7cc40; fill-rule: evenodd;"/>
            </g>
          </g>
          <ellipse cx="1267.807" cy="13.088" rx="20.141" ry="20.124" style="fill: #c7ebf7;"/>
          <g>
            <ellipse cx="1267.807" cy="13.088" rx="14.099" ry="14.087" style="fill: #6fbfbc;"/>
            <g style="clip-path: url(#clippath-14);">
              <path d="M1255.931,21.818c-.338-.506-.523-1.104-.523-1.722h0c0-1.218.715-2.362,1.914-2.872.399-.169.835-.236,1.268-.236h8.638c1.555,0,3.038-.661,4.078-1.815,1.197-1.328,2.325-2.581,3.183-3.533,1.007-1.118,2.441-1.755,3.946-1.755h12.866c1.651,0,3.196.957,3.807,2.489.834,2.094-.18,4.436-2.306,5.254-.459.177-.953.248-1.445.248h-.941l-4.497,13.491h-21.591l-10.765-9.088,2.369-.461Z" style="fill: #a7cc40; fill-rule: evenodd;"/>
            </g>
          </g>
          <line x1="1159.046" y1="64.711" x2="1281.906" y2="64.711" style="fill: #4aa280; stroke: #4aa280; stroke-dasharray: 0 10; stroke-linecap: round; stroke-linejoin: round; stroke-width: 10px;"/>
        </g>
        <g>
          <path d="M1327.711,69.716c-1.056.388-2.208.097-2.887-.729-.679-.827-.743-2.014-.158-2.976.316-.521.605-.996.842-1.386.408-.671.508-1.469.275-2.184-.135-.416-.3-.922-.481-1.476-.334-1.025.025-2.183.9-2.903s2.079-.849,3.02-.324c.509.284.974.544,1.355.757.656.367,1.458.422,2.194.151.428-.158.95-.349,1.521-.559,1.056-.388,2.208-.098,2.887.729s.743,2.014.158,2.976c-.316.52-.605.996-.842,1.386-.408.671-.508,1.469-.275,2.184.135.416.3.922.481,1.477.334,1.025-.025,2.184-.9,2.904-.874.72-2.079.849-3.02.324-.509-.284-.974-.544-1.355-.757-.656-.366-1.458-.421-2.194-.151-.428.158-.95.349-1.521.559Z" style="fill: #e8de4a; fill-rule: evenodd;"/>
          <path d="M1346.629,69.913c-.551.378-1.262.389-1.783.028-.521-.361-.741-1.018-.551-1.647.161-.535.309-1.025.42-1.396.132-.438.067-.901-.178-1.267-.207-.31-.481-.719-.78-1.166-.351-.525-.323-1.229.072-1.766.395-.536,1.072-.791,1.697-.639.532.13,1.02.249,1.389.339.436.106.908.016,1.292-.248.325-.223.754-.518,1.223-.839.551-.378,1.262-.389,1.783-.028.521.361.741,1.018.551,1.647-.161.535-.309,1.025-.42,1.396-.132.438-.067.901.178,1.267.207.31.481.719.78,1.166.351.525.323,1.229-.072,1.766-.395.536-1.072.791-1.697.639-.532-.13-1.02-.249-1.389-.339-.436-.106-.908-.016-1.292.248-.325.223-.754.518-1.223.839Z" style="fill: #e3c341; fill-rule: evenodd;"/>
          <path d="M1329.125,51.59c-.474.325-1.087.335-1.535.024-.449-.311-.638-.877-.475-1.418.139-.461.266-.883.362-1.202.114-.378.058-.776-.153-1.092-.179-.267-.415-.619-.672-1.004-.303-.452-.278-1.059.062-1.521.34-.462.923-.682,1.461-.55.458.112.878.214,1.196.292.376.091.782.014,1.113-.213.28-.192.65-.446,1.053-.723.474-.325,1.087-.335,1.536-.024.448.311.638.877.475,1.418-.139.461-.266.883-.362,1.202-.114.378-.058.776.153,1.092.178.267.415.619.672,1.004.303.452.278,1.059-.062,1.521-.34.462-.923.682-1.462.55-.458-.112-.878-.214-1.196-.292-.376-.092-.782-.014-1.113.213-.28.192-.65.446-1.054.723Z" style="fill: #e3c341; fill-rule: evenodd;"/>
        </g>
        <g>
          <path d="M45.262,18.918c-1.432-.699-2.263-2.162-2.083-3.667.18-1.505,1.332-2.733,2.888-3.078.842-.187,1.611-.358,2.242-.497,1.085-.241,2-.919,2.503-1.858.292-.545.649-1.21,1.039-1.938.721-1.346,2.257-2.114,3.85-1.925,1.593.189,2.906,1.294,3.29,2.771.208.799.398,1.528.554,2.127.268,1.03.997,1.903,1.996,2.391.581.283,1.288.629,2.062,1.007,1.432.699,2.263,2.162,2.084,3.667-.179,1.505-1.332,2.733-2.888,3.078-.842.187-1.611.357-2.242.497-1.085.241-2,.919-2.503,1.858-.292.546-.649,1.211-1.039,1.938-.721,1.346-2.257,2.114-3.85,1.925-1.593-.189-2.906-1.294-3.29-2.771-.208-.799-.398-1.528-.554-2.127-.268-1.03-.997-1.903-1.996-2.391-.581-.284-1.288-.629-2.062-1.007Z" style="fill: #e8de4a; fill-rule: evenodd;"/>
          <path d="M63.597,38.454c-.926-.193-1.634-.909-1.775-1.796-.141-.886.315-1.755,1.143-2.177.705-.359,1.351-.689,1.839-.938.578-.294.987-.815,1.121-1.424.113-.515.264-1.197.427-1.94.192-.874.941-1.535,1.876-1.657.935-.122,1.859.32,2.316,1.109.389.671.745,1.287,1.014,1.752.319.55.874.944,1.519,1.079.546.114,1.268.264,2.056.429.926.193,1.634.909,1.775,1.796.141.886-.315,1.755-1.143,2.177-.705.359-1.351.689-1.839.938-.578.294-.987.815-1.121,1.424-.113.515-.263,1.197-.427,1.94-.192.874-.941,1.535-1.876,1.657-.935.122-1.859-.32-2.316-1.109-.389-.671-.745-1.287-1.014-1.752-.319-.55-.874-.944-1.519-1.079-.546-.114-1.268-.264-2.056-.428Z" style="fill: #e3c341; fill-rule: evenodd;"/>
          <path d="M65.183,2.603c-.798-.166-1.408-.783-1.529-1.546-.121-.764.272-1.512.985-1.875.607-.309,1.163-.593,1.584-.808.497-.254.85-.702.966-1.226.098-.444.227-1.031.368-1.671.166-.753.81-1.322,1.616-1.427.805-.105,1.601.276,1.995.955.335.578.642,1.108.874,1.509.274.474.752.813,1.309.929.47.098,1.093.228,1.771.369.798.166,1.408.783,1.529,1.547.121.763-.272,1.512-.985,1.875-.607.309-1.163.593-1.584.808-.497.254-.85.702-.966,1.226-.098.444-.227,1.031-.368,1.671-.166.752-.81,1.322-1.616,1.427-.805.105-1.601-.276-1.995-.955-.335-.578-.642-1.108-.874-1.509-.274-.474-.752-.813-1.309-.929-.47-.098-1.092-.228-1.771-.369Z" style="fill: #e3c341; fill-rule: evenodd;"/>
        </g>
        <g>
          <path d="M357.935,48.127c-1.284.981-2.989,1.07-4.271.223-1.283-.846-1.873-2.449-1.479-4.017.213-.848.407-1.623.567-2.259.275-1.094.075-2.231-.548-3.113-.362-.513-.803-1.138-1.286-1.822-.893-1.265-.891-3.007.004-4.366.895-1.359,2.493-2.047,4.007-1.725.819.174,1.567.333,2.18.464,1.056.225,2.179-.04,3.075-.723.521-.398,1.155-.882,1.85-1.412,1.284-.981,2.988-1.07,4.271-.224,1.283.846,1.873,2.449,1.479,4.017-.213.848-.408,1.623-.567,2.259-.275,1.094-.075,2.231.548,3.113.362.513.803,1.138,1.286,1.822.893,1.265.891,3.007-.004,4.366-.895,1.359-2.494,2.047-4.007,1.725-.819-.174-1.566-.333-2.18-.464-1.056-.225-2.179.04-3.075.724-.521.398-1.155.882-1.85,1.413Z" style="fill: #e8de4a; fill-rule: evenodd;"/>
          <path d="M383.979,40.377c-.596.752-1.567,1.069-2.435.794-.868-.275-1.448-1.083-1.455-2.026-.006-.802-.011-1.538-.015-2.094-.005-.658-.29-1.265-.782-1.664-.416-.337-.965-.783-1.565-1.269-.705-.571-.964-1.55-.65-2.454.314-.904,1.135-1.54,2.058-1.596.785-.048,1.505-.091,2.049-.124.644-.039,1.253-.363,1.668-.888.351-.444.816-1.03,1.323-1.67.596-.752,1.567-1.069,2.435-.794.868.275,1.448,1.083,1.455,2.026.006.802.011,1.538.015,2.094.005.658.29,1.265.782,1.664.416.337.965.783,1.565,1.269.705.571.964,1.55.65,2.454-.314.904-1.135,1.54-2.058,1.596-.785.048-1.505.091-2.049.124-.644.039-1.253.363-1.668.888-.351.444-.816,1.03-1.323,1.67Z" style="fill: #ce6062; fill-rule: evenodd;"/>
          <path d="M352.191,22.653c-.513.648-1.35.921-2.097.684-.747-.237-1.247-.933-1.253-1.745-.005-.691-.009-1.324-.013-1.803-.004-.566-.25-1.09-.673-1.433-.358-.29-.832-.674-1.348-1.093-.607-.492-.83-1.335-.56-2.113.27-.778.977-1.327,1.772-1.375.676-.041,1.296-.078,1.765-.107.554-.034,1.079-.313,1.437-.765.303-.382.703-.887,1.139-1.439.513-.648,1.35-.921,2.097-.684.747.237,1.247.933,1.253,1.745.005.691.009,1.324.013,1.803.004.566.25,1.09.673,1.433.358.29.832.674,1.348,1.093.607.492.83,1.335.56,2.113-.27.778-.978,1.327-1.772,1.375-.676.041-1.296.078-1.765.107-.554.033-1.079.313-1.437.765-.303.382-.703.887-1.139,1.438Z" style="fill: #ce6062; fill-rule: evenodd;"/>
        </g>
        <g style="opacity: .331;">
          <path d="M1272.618,119.635c1.232,0,2.231-1,2.231-2.236v-7.001c0-1.236-.999-2.236-2.231-2.236-1.232,0-2.231,1-2.231,2.236v7.001c0,1.236.999,2.236,2.231,2.236Z" style="fill: #00703a;"/>
          <path d="M1263.304,119.635c1.232,0,2.231-1,2.231-2.236v-4.667c0-1.236-.999-2.236-2.231-2.236-1.232,0-2.231,1-2.231,2.236v4.667c0,1.236.999,2.236,2.231,2.236Z" style="fill: #00703a;"/>
          <path d="M1281.157,119.635c1.232,0,2.231-1,2.231-2.236v-4.667c0-1.236-.999-2.236-2.231-2.236-1.232,0-2.231,1-2.231,2.236v4.667c0,1.236.999,2.236,2.231,2.236Z" style="fill: #00703a;"/>
          <path d="M1247.488,138.113c1.232,0,2.231-1,2.231-2.236v-7.001c0-1.236-.999-2.236-2.231-2.236-1.232,0-2.231,1-2.231,2.236v7.001c0,1.236.999,2.236,2.231,2.236Z" style="fill: #00703a;"/>
          <path d="M1238.174,138.113c1.232,0,2.231-1,2.231-2.236v-4.669c0-1.236-.999-2.236-2.231-2.236-1.232,0-2.231,1-2.231,2.236v4.669c0,1.236.999,2.236,2.231,2.236Z" style="fill: #00703a;"/>
          <path d="M1256.025,138.113c1.232,0,2.231-1,2.231-2.236v-4.669c0-1.236-.999-2.236-2.231-2.236-1.232,0-2.231,1-2.231,2.236v4.669c0,1.236.999,2.236,2.231,2.236Z" style="fill: #00703a;"/>
          <path d="M1238.855,99.407c1.232,0,2.231-1,2.231-2.236v-7.001c0-1.236-.999-2.236-2.231-2.236-1.232,0-2.231,1-2.231,2.236v7.001c0,1.236.999,2.236,2.231,2.236Z" style="fill: #00703a;"/>
          <path d="M1229.539,99.407c1.232,0,2.231-1,2.231-2.236v-4.669c0-1.236-.999-2.236-2.231-2.236-1.232,0-2.231,1-2.231,2.236v4.669c0,1.236.999,2.236,2.231,2.236Z" style="fill: #00703a;"/>
          <path d="M1247.392,99.407c1.232,0,2.231-1,2.231-2.236v-4.669c0-1.236-.999-2.236-2.231-2.236-1.232,0-2.231,1-2.231,2.236v4.669c0,1.236.999,2.236,2.231,2.236Z" style="fill: #00703a;"/>
        </g>
        <g>
          <path d="M1503.066,92.609c0-2.959-2.39-5.347-5.352-5.347s-5.352,2.388-5.352,5.347c0-2.959-2.39-5.347-5.352-5.347s-5.352,2.388-5.352,5.347c0-2.959-2.39-5.347-5.352-5.347s-5.352,2.388-5.352,5.347c0-2.959-2.39-5.347-5.352-5.347s-5.352,2.388-5.352,5.347c0-2.959-2.39-5.347-5.352-5.347s-5.352,2.388-5.352,5.347v9.913h53.519v-9.913h-.001Z" style="fill: #8dd44c;"/>
          <rect x="1417.966" y="99.401" width="85.101" height="58.292" style="fill: #fff;"/>
          <rect x="1460.252" y="99.401" width="10.704" height="58.292" style="fill: #e9f1f6; mix-blend-mode: multiply; opacity: .5;"/>
          <rect x="1497.714" y="99.401" width="5.353" height="58.292" style="fill: #e9f1f6; mix-blend-mode: multiply; opacity: .5;"/>
          <g>
            <path d="M1465.339,157.693h-78.954v-77.144c0-10.46,4.145-20.492,11.528-27.889,7.421-7.397,17.448-11.552,27.91-11.552h.039c10.462,0,20.489,4.155,27.91,11.552,7.383,7.397,11.566,17.428,11.566,27.889v77.144Z" style="fill: #fff; fill-rule: evenodd;"/>
            <g>
              <rect x="1386.384" y="120.22" width="15.791" height="18.737" style="fill: #b3efe3;"/>
              <rect x="1386.384" y="83.624" width="15.791" height="15.777" style="fill: #b3efe3;"/>
              <rect x="1413.377" y="120.22" width="24.967" height="37.473" style="fill: #b3efe3;"/>
              <rect x="1413.377" y="83.624" width="24.967" height="15.777" style="fill: #b3efe3;"/>
              <rect x="1449.547" y="120.22" width="15.791" height="18.737" style="fill: #b3efe3;"/>
              <rect x="1449.547" y="83.624" width="15.791" height="15.777" style="fill: #b3efe3;"/>
            </g>
            <g style="opacity: .35;">
              <rect x="1386.385" y="83.624" width="15.791" height="6.053" style="fill: #49a2e0;"/>
              <rect x="1413.378" y="83.624" width="24.967" height="6.053" style="fill: #49a2e0;"/>
              <rect x="1449.548" y="83.624" width="15.791" height="6.053" style="fill: #49a2e0;"/>
            </g>
            <g style="opacity: .35;">
              <rect x="1386.385" y="120.22" width="15.791" height="6.053" style="fill: #49a2e0;"/>
              <rect x="1413.378" y="120.22" width="24.967" height="6.053" style="fill: #49a2e0;"/>
              <rect x="1449.548" y="120.22" width="15.791" height="6.053" style="fill: #49a2e0;"/>
            </g>
          </g>
          <rect x="1470.955" y="120.22" width="26.758" height="32.161" style="fill: #b3efe3;"/>
          <rect x="1470.956" y="120.22" width="26.758" height="6.053" style="fill: #49a2e0;"/>
          <rect x="1465.339" y="99.496" width="37.728" height="6.053" style="fill: #e9f1f6; mix-blend-mode: multiply; opacity: .5;"/>
        </g>
        <path d="M1391.119,228.503h-78.954v-77.144c0-10.46,4.145-20.492,11.528-27.889,7.421-7.397,17.448-11.552,27.91-11.552h.039c10.462,0,20.489,4.155,27.91,11.552,7.383,7.397,11.566,17.428,11.566,27.889v77.144Z" style="fill: #fff; fill-rule: evenodd;"/>
        <g>
          <rect x="1050.601" y="111.673" width="8.531" height="104.412" transform="translate(2109.7324 327.7581) rotate(-180)" style="fill: #a3d8d3;"/>
          <ellipse cx="1007.973" cy="164.62" rx="27.725" ry="27.701" style="fill: #fff;"/>
          <path d="M986.646,164.62c0-11.768,9.548-21.309,21.327-21.309s21.327,9.54,21.327,21.309c0,11.769-9.548,21.309-21.327,21.309-11.779,0-21.327-9.54-21.327-21.309Z" style="fill: #49a198; fill-rule: evenodd;"/>
          <path d="M1116.738,162.489c0-11.768-9.548-21.309-21.327-21.309-11.779,0-21.327,9.54-21.327,21.309s9.548,21.309,21.327,21.309c11.778,0,21.327-9.54,21.327-21.309Z" style="fill: #fff; fill-rule: evenodd;"/>
          <path d="M1086.856,111.673c0-17.652-14.322-31.963-31.99-31.963-17.668,0-31.99,14.311-31.99,31.963,0,17.653,14.322,31.963,31.99,31.963,17.668,0,31.99-14.31,31.99-31.963Z" style="fill: #fff; fill-rule: evenodd;"/>
          <g>
            <path d="M1029.274,111.673c0-14.122,11.458-25.57,25.592-25.57s25.592,11.448,25.592,25.57-11.458,25.57-25.592,25.57c-14.134,0-25.592-11.448-25.592-25.57Z" style="fill: #49a198; fill-rule: evenodd;"/>
            <g style="clip-path: url(#clippath-18);">
              <path d="M1033.308,127.519c-.613-.919-.95-2.004-.95-3.125h0c0-2.211,1.299-4.289,3.475-5.213.724-.308,1.515-.428,2.301-.428h15.68c2.823,0,5.514-1.199,7.403-3.295,2.172-2.411,4.219-4.684,5.776-6.413,1.828-2.029,4.43-3.186,7.162-3.186h23.354c2.997,0,5.802,1.737,6.91,4.518,1.515,3.802-.326,8.052-4.186,9.537-.834.32-1.73.45-2.623.45h-1.708l-8.163,24.489h-39.192s-19.541-16.497-19.541-16.497l4.3-.837Z" style="fill: #a7cc40; fill-rule: evenodd;"/>
            </g>
          </g>
        </g>
        <g>
          <rect x="714.316" y="109.015" width="8.531" height="53.596" transform="translate(1437.1618 271.6252) rotate(-180)" style="fill: #a3d8d3;"/>
          <rect x="801.755" y="111.146" width="8.531" height="51.465" transform="translate(1612.0399 273.7561) rotate(-180)" style="fill: #a3d8d3;"/>
          <rect x="754.861" y="58.199" width="8.531" height="104.412" style="fill: #a3d8d3;"/>
          <ellipse cx="806.02" cy="111.146" rx="27.725" ry="27.701" style="fill: #fff;"/>
          <g>
            <ellipse cx="806.02" cy="111.146" rx="21.327" ry="21.309" style="fill: #49a198;"/>
            <g style="clip-path: url(#clippath-19);">
              <path d="M823.985,124.351c.51-.766.791-1.67.791-2.604h0c0-1.843-1.082-3.574-2.896-4.344-.603-.257-1.263-.357-1.918-.357h-13.067c-2.353,0-4.595-.999-6.169-2.746-1.81-2.009-3.517-3.904-4.814-5.344-1.523-1.691-3.692-2.655-5.969-2.655h-3.481s-6.557,0-12.541,0h-3.441c-2.497,0-4.835,1.448-5.758,3.766-1.263,3.168.272,6.71,3.488,7.947.695.267,1.442.376,2.186.376h1.423s6.803,20.407,6.803,20.407h32.66s16.284-13.748,16.284-13.748l-3.583-.697Z" style="fill: #a7cc40; fill-rule: evenodd;"/>
            </g>
          </g>
          <ellipse cx="718.581" cy="109.015" rx="21.327" ry="21.309" style="fill: #fff;"/>
          <g>
            <ellipse cx="718.581" cy="109.015" rx="14.929" ry="14.916" style="fill: #6fbfbc;"/>
            <g style="clip-path: url(#clippath-20);">
              <path d="M731.157,118.258c.358-.536.554-1.169.554-1.823h0c0-1.29-.758-2.502-2.027-3.041-.422-.179-.884-.25-1.342-.25h-9.147c-1.647,0-3.217-.699-4.318-1.922-1.267-1.407-2.462-2.733-3.37-3.741-1.066-1.184-2.585-1.859-4.178-1.859h-2.436s-4.59,0-8.779,0h-2.408c-1.748,0-3.384,1.013-4.031,2.636-.883,2.218.19,4.697,2.442,5.563.486.187,1.009.263,1.53.263h.996s4.762,14.285,4.762,14.285h22.862s11.399-9.623,11.399-9.623l-2.508-.488Z" style="fill: #a7cc40; fill-rule: evenodd;"/>
            </g>
          </g>
          <ellipse cx="759.126" cy="58.199" rx="31.99" ry="31.963" style="fill: #fff;"/>
          <g>
            <ellipse cx="759.126" cy="58.199" rx="25.592" ry="25.57" style="fill: #49a198;"/>
            <g style="clip-path: url(#clippath-21);">
              <path d="M780.684,74.045c.613-.919.95-2.004.95-3.125h0c0-2.211-1.299-4.289-3.475-5.213-.724-.308-1.515-.428-2.301-.428h-15.68c-2.823,0-5.514-1.199-7.403-3.295-2.172-2.411-4.219-4.684-5.776-6.413-1.828-2.029-4.43-3.186-7.162-3.186h-4.177s-7.869,0-15.05,0h-4.128c-2.997,0-5.802,1.737-6.91,4.518-1.515,3.802.326,8.052,4.186,9.537.834.32,1.73.45,2.623.45h1.708s8.163,24.489,8.163,24.489h39.192s19.541-16.497,19.541-16.497l-4.3-.837Z" style="fill: #a7cc40; fill-rule: evenodd;"/>
            </g>
          </g>
        </g>
      </g>
    </g>
  </g>
</svg>