<?xml version="1.0" encoding="UTF-8"?>
<svg id="Details" xmlns="http://www.w3.org/2000/svg" width="1500" height="145" xmlns:xlink="http://www.w3.org/1999/xlink" version="1.1" viewBox="0 0 1500 145">
  <!-- Generator: Adobe Illustrator 30.5.1, SVG Export Plug-In . SVG Version: 2.1.4 Build 3)  -->
  <defs>
    <clipPath id="clippath">
      <rect width="1500" height="145" style="fill: none;"/>
    </clipPath>
  </defs>
  <g style="clip-path: url(#clippath);">
    <rect x="-10.125" y="-116.796" width="1520.249" height="1054.04" style="fill: #04d5d8;"/>
    <g>
      <path d="M-60.02-981.454v67.986l-64.171-2.883-1.792,39.963c-.108,2.404-10.846,243.188-16.497,484.383-3.348,142.921-4.31,258.88-2.859,344.657.903,53.395,2.697,94.684,5.484,126.229,3.991,45.167,10.164,88.418,41.434,121.123,21.827,22.829,51.065,35.402,82.328,35.402H114.056c48.191,0,93.12-14.221,130.819-38.683,29.514-19.15,61.956-33.454,96.319-41.001,257.482-56.55,368.43,231.382,700.989,241.357,4.51.32,9.061.489,13.651.489h574.186V-981.454H-60.02Z" style="fill: #4eeae6;"/>
      <path d="M1055.834,357.569c-83.307,0-151.081-67.774-151.081-151.081,0-6.11-4.972-11.081-11.082-11.081h-203.53c-110.838,0-201.011-90.173-201.011-201.012v-52.965c0-33.084-26.916-60-60-60h-54.062c-33.084,0-60,26.916-60,60V-5.605c0,110.839-90.173,201.012-201.011,201.012H-16.093c-20.238,0-39.208-8.185-53.416-23.045-20.311-21.243-26.389-50.48-30.5-97.002-2.703-30.587-4.448-70.946-5.335-123.384-1.441-85.238-.481-200.654,2.854-343.044,5.659-241.585,16.36-481.136,16.467-483.527l66.003,2.965v-69.823h1610.04V357.569h-534.186Z" style="fill: #ffed8b;"/>
      <path d="M824.217-871.453H-20.02h3.927S-60.873,125.406-16.093,125.406H114.056c72.356,0,131.011-58.656,131.011-131.011v-52.964c0-71.797,58.203-130,130-130h54.062c71.797,0,130,58.203,130,130V-5.605c0,72.355,58.656,131.011,131.011,131.011h203.53c44.78,0,81.081,36.301,81.081,81.081h0c0,44.78,36.301,81.082,81.081,81.082h464.186V-871.453h-695.803Z" style="fill: #77d629;"/>
    </g>
    <g style="opacity: .331;">
      <path d="M142.339,37.87c-1.232,0-2.231-1-2.231-2.236v-7.001c0-1.236.999-2.236,2.231-2.236s2.231,1,2.231,2.236v7.001c0,1.236-.999,2.236-2.231,2.236Z" style="fill: #00703a;"/>
      <path d="M151.653,37.87c-1.232,0-2.231-1-2.231-2.236v-4.667c0-1.236.999-2.236,2.231-2.236s2.231,1,2.231,2.236v4.667c0,1.236-.999,2.236-2.231,2.236Z" style="fill: #00703a;"/>
      <path d="M133.801,37.87c-1.232,0-2.231-1-2.231-2.236v-4.667c0-1.236.999-2.236,2.231-2.236s2.231,1,2.231,2.236v4.667c0,1.236-.999,2.236-2.231,2.236Z" style="fill: #00703a;"/>
      <path d="M167.469,56.348c-1.232,0-2.231-1-2.231-2.236v-7.001c0-1.236.999-2.236,2.231-2.236,1.232,0,2.231,1,2.231,2.236v7.001c0,1.236-.999,2.236-2.231,2.236Z" style="fill: #00703a;"/>
      <path d="M176.784,56.348c-1.232,0-2.231-1-2.231-2.236v-4.669c0-1.236.999-2.236,2.231-2.236,1.232,0,2.231,1,2.231,2.236v4.669c0,1.236-.999,2.236-2.231,2.236Z" style="fill: #00703a;"/>
      <path d="M158.932,56.348c-1.232,0-2.231-1-2.231-2.236v-4.669c0-1.236.999-2.236,2.231-2.236s2.231,1,2.231,2.236v4.669c0,1.236-.999,2.236-2.231,2.236Z" style="fill: #00703a;"/>
      <path d="M176.103,17.643c-1.232,0-2.231-1-2.231-2.236v-7.001c0-1.236.999-2.236,2.231-2.236,1.232,0,2.231,1,2.231,2.236v7.001c0,1.236-.999,2.236-2.231,2.236Z" style="fill: #00703a;"/>
      <path d="M185.418,17.643c-1.232,0-2.231-1-2.231-2.236v-4.669c0-1.236.999-2.236,2.231-2.236s2.231,1,2.231,2.236v4.669c0,1.236-.999,2.236-2.231,2.236Z" style="fill: #00703a;"/>
      <path d="M167.565,17.643c-1.232,0-2.231-1-2.231-2.236v-4.669c0-1.236.999-2.236,2.231-2.236s2.231,1,2.231,2.236v4.669c0,1.236-.999,2.236-2.231,2.236Z" style="fill: #00703a;"/>
    </g>
    <g style="opacity: .331;">
      <path d="M879.765,73.863c-1.232,0-2.231-1-2.231-2.236v-7.001c0-1.236.999-2.236,2.231-2.236,1.232,0,2.231,1,2.231,2.236v7.001c0,1.236-.999,2.236-2.231,2.236Z" style="fill: #00703a;"/>
      <path d="M889.079,73.863c-1.232,0-2.231-1-2.231-2.236v-4.667c0-1.236.999-2.236,2.231-2.236s2.231,1,2.231,2.236v4.667c0,1.236-.999,2.236-2.231,2.236Z" style="fill: #00703a;"/>
      <path d="M871.227,73.863c-1.232,0-2.231-1-2.231-2.236v-4.667c0-1.236.999-2.236,2.231-2.236s2.231,1,2.231,2.236v4.667c0,1.236-.999,2.236-2.231,2.236Z" style="fill: #00703a;"/>
      <path d="M904.896,92.341c-1.232,0-2.231-1-2.231-2.236v-7.001c0-1.236.999-2.236,2.231-2.236,1.232,0,2.231,1,2.231,2.236v7.001c0,1.236-.999,2.236-2.231,2.236Z" style="fill: #00703a;"/>
      <path d="M914.21,92.341c-1.232,0-2.231-1-2.231-2.236v-4.669c0-1.236.999-2.236,2.231-2.236s2.231,1,2.231,2.236v4.669c0,1.236-.999,2.236-2.231,2.236Z" style="fill: #00703a;"/>
      <path d="M896.358,92.341c-1.232,0-2.231-1-2.231-2.236v-4.669c0-1.236.999-2.236,2.231-2.236,1.232,0,2.231,1,2.231,2.236v4.669c0,1.236-.999,2.236-2.231,2.236Z" style="fill: #00703a;"/>
      <path d="M913.529,53.635c-1.232,0-2.231-1-2.231-2.236v-7.001c0-1.236.999-2.236,2.231-2.236s2.231,1,2.231,2.236v7.001c0,1.236-.999,2.236-2.231,2.236Z" style="fill: #00703a;"/>
      <path d="M922.844,53.635c-1.232,0-2.231-1-2.231-2.236v-4.669c0-1.236.999-2.236,2.231-2.236s2.231,1,2.231,2.236v4.669c0,1.236-.999,2.236-2.231,2.236Z" style="fill: #00703a;"/>
      <path d="M904.991,53.635c-1.232,0-2.231-1-2.231-2.236v-4.669c0-1.236.999-2.236,2.231-2.236s2.231,1,2.231,2.236v4.669c0,1.236-.999,2.236-2.231,2.236Z" style="fill: #00703a;"/>
    </g>
    <g style="opacity: .331;">
      <path d="M646.936,31.192c-1.232,0-2.231-1-2.231-2.236v-7.001c0-1.236.999-2.236,2.231-2.236s2.231,1,2.231,2.236v7.001c0,1.236-.999,2.236-2.231,2.236Z" style="fill: #00703a;"/>
      <path d="M656.25,31.192c-1.232,0-2.231-1-2.231-2.236v-4.667c0-1.236.999-2.236,2.231-2.236,1.232,0,2.231,1,2.231,2.236v4.667c0,1.236-.999,2.236-2.231,2.236Z" style="fill: #00703a;"/>
      <path d="M638.397,31.192c-1.232,0-2.231-1-2.231-2.236v-4.667c0-1.236.999-2.236,2.231-2.236s2.231,1,2.231,2.236v4.667c0,1.236-.999,2.236-2.231,2.236Z" style="fill: #00703a;"/>
      <path d="M672.066,49.67c-1.232,0-2.231-1-2.231-2.236v-7.001c0-1.236.999-2.236,2.231-2.236,1.232,0,2.231,1,2.231,2.236v7.001c0,1.236-.999,2.236-2.231,2.236Z" style="fill: #00703a;"/>
      <path d="M681.38,49.67c-1.232,0-2.231-1-2.231-2.236v-4.669c0-1.236.999-2.236,2.231-2.236s2.231,1,2.231,2.236v4.669c0,1.236-.999,2.236-2.231,2.236Z" style="fill: #00703a;"/>
      <path d="M663.529,49.67c-1.232,0-2.231-1-2.231-2.236v-4.669c0-1.236.999-2.236,2.231-2.236s2.231,1,2.231,2.236v4.669c0,1.236-.999,2.236-2.231,2.236Z" style="fill: #00703a;"/>
      <path d="M680.7,10.964c-1.232,0-2.231-1-2.231-2.236V1.727c0-1.236.999-2.236,2.231-2.236s2.231,1,2.231,2.236v7.001c0,1.236-.999,2.236-2.231,2.236Z" style="fill: #00703a;"/>
      <path d="M690.015,10.964c-1.232,0-2.231-1-2.231-2.236v-4.669c0-1.236.999-2.236,2.231-2.236s2.231,1,2.231,2.236v4.669c0,1.236-.999,2.236-2.231,2.236Z" style="fill: #00703a;"/>
      <path d="M672.162,10.964c-1.232,0-2.231-1-2.231-2.236v-4.669c0-1.236.999-2.236,2.231-2.236s2.231,1,2.231,2.236v4.669c0,1.236-.999,2.236-2.231,2.236Z" style="fill: #00703a;"/>
    </g>
    <g>
      <rect x="1311.41" y="47.029" width="78.222" height="12.412" rx="6.206" ry="6.206" style="opacity: .106;"/>
      <g>
        <g>
          <path d="M1358.506,50.462V11.278c0-.797-.646-1.443-1.443-1.443h-13.084c-.797,0-1.443.646-1.443,1.443v39.252c.52.107,1.018.299,1.398.671.513.532.817,1.274.817,2.034h.057c0-1.577,1.274-2.851,2.851-2.851s2.851,1.275,2.851,2.851h.038c0-1.577,1.274-2.851,2.851-2.851s2.851,1.275,2.851,2.851h.038c0-1.356.957-2.482,2.216-2.773Z" style="fill: #55571b;"/>
          <line x1="1354.766" y1="22.293" x2="1354.766" y2="39.549" style="fill: none; stroke: #374315; stroke-linecap: round; stroke-linejoin: round; stroke-width: 2.369px;"/>
          <line x1="1350.53" y1="30.466" x2="1350.53" y2="47.722" style="fill: none; stroke: #374315; stroke-linecap: round; stroke-linejoin: round; stroke-width: 2.369px;"/>
          <line x1="1346.293" y1="26.163" x2="1346.293" y2="43.419" style="fill: none; stroke: #374315; stroke-linecap: round; stroke-linejoin: round; stroke-width: 2.369px;"/>
        </g>
        <path d="M1423.061-13.392l-52.131-12.165c-12.866-3.002-26.248-3.03-39.127-.081l-53.728,12.303c-10.503,2.405-17.95,11.75-17.95,22.525h0c0,12.762,10.346,23.108,23.108,23.108h134.577c12.762,0,23.108-10.346,23.108-23.108v-.078c0-10.739-7.399-20.063-17.857-22.503Z" style="fill: #009c00; fill-rule: evenodd;"/>
        <path d="M1398.697,3.209c3.298,0,5.971,2.673,5.971,5.971h.45c0-3.298,2.673-5.971,5.971-5.971" style="fill: none; stroke: #007300; stroke-linecap: round; stroke-linejoin: round; stroke-width: 2.213px;"/>
        <path d="M1415.348,14.249c3.298,0,5.971,2.673,5.971,5.971h.45c0-3.298,2.673-5.971,5.971-5.971" style="fill: none; stroke: #007300; stroke-linecap: round; stroke-linejoin: round; stroke-width: 2.213px;"/>
        <path d="M1316.953,14.249c3.298,0,5.971,2.673,5.971,5.971h.45c0-3.298,2.673-5.971,5.971-5.971" style="fill: none; stroke: #007300; stroke-linecap: round; stroke-linejoin: round; stroke-width: 2.213px;"/>
        <path d="M1318.117-3.736c3.298,0,5.971,2.673,5.971,5.971" style="fill: none; stroke: #007300; stroke-linecap: round; stroke-linejoin: round; stroke-width: 2.213px;"/>
        <path d="M1348.796,16.322c3.298,0,5.971,2.673,5.971,5.971" style="fill: none; stroke: #007300; stroke-linecap: round; stroke-linejoin: round; stroke-width: 2.213px;"/>
        <path d="M1282.753-3.736c3.298,0,5.971,2.673,5.971,5.971h.45c0-3.298,2.673-5.971,5.971-5.971" style="fill: none; stroke: #007300; stroke-linecap: round; stroke-linejoin: round; stroke-width: 2.213px;"/>
        <path d="M1284.592,16.322c3.298,0,5.971,2.673,5.971,5.971h.45c0-3.298,2.673-5.971,5.971-5.971" style="fill: none; stroke: #007300; stroke-linecap: round; stroke-linejoin: round; stroke-width: 2.213px;"/>
        <path d="M1374.203,14.249c3.298,0,5.971,2.673,5.971,5.971h.45c0-3.298,2.673-5.971,5.971-5.971" style="fill: none; stroke: #007300; stroke-linecap: round; stroke-linejoin: round; stroke-width: 2.213px;"/>
        <path d="M1355.197-.751c3.298,0,5.971,2.673,5.971,5.971h.45c0-3.298,2.673-5.971,5.971-5.971" style="fill: none; stroke: #007300; stroke-linecap: round; stroke-linejoin: round; stroke-width: 2.213px;"/>
      </g>
    </g>
    <g>
      <rect x="62.521" y="43.859" width="45.49" height="12.412" rx="6.206" ry="6.206" style="opacity: .106;"/>
      <g>
        <rect x="52.606" y="12.11" width="29.775" height="5.402" rx="1.779" ry="1.779" transform="translate(13.217 -27.953) rotate(25.858)" style="fill: #55571b;"/>
        <path d="M113.976-51.839l-.708-2.3c-.254-.824-1.127-1.287-1.952-1.034l-10.219,3.143,2.035-4.811c.579-1.368-.061-2.947-1.43-3.526l-2.567-1.085c-1.368-.579-2.947.061-3.526,1.43l-10.223,24.171h-.283l-9.835-31.973c-.437-1.42-1.942-2.217-3.362-1.78l-2.664.819c-1.42.437-2.217,1.942-1.78,3.362l3.315,10.777-6.662-4.236c-.728-.463-1.693-.248-2.156.48l-1.291,2.031c-.463.728-.248,1.693.48,2.156l12.135,7.717,3.988,12.965V49.109c.52.107,1.018.299,1.397.671.513.532.817,1.274.817,2.034h.057c0-1.577,1.274-2.851,2.852-2.851s2.851,1.274,2.851,2.851h.038c0-1.577,1.273-2.851,2.851-2.851s2.852,1.274,2.852,2.851h.038c0-1.356.957-2.482,2.216-2.773V-33.456l5.043-11.923,14.658-4.509c.824-.254,1.287-1.127,1.034-1.952Z" style="fill: #55571b;"/>
        <line x1="89.502" y1="20.139" x2="89.502" y2="40.341" style="fill: none; stroke: #374315; stroke-linecap: round; stroke-linejoin: round; stroke-width: 2.369px;"/>
        <line x1="85.266" y1="31.259" x2="85.266" y2="44.64" style="fill: none; stroke: #374315; stroke-linecap: round; stroke-linejoin: round; stroke-width: 2.369px;"/>
        <line x1="81.029" y1="26.956" x2="81.029" y2="44.212" style="fill: none; stroke: #374315; stroke-linecap: round; stroke-linejoin: round; stroke-width: 2.369px;"/>
        <line x1="89.502" y1="7.169" x2="89.502" y2="15.172" style="fill: none; stroke: #374315; stroke-linecap: round; stroke-linejoin: round; stroke-width: 2.369px;"/>
        <line x1="85.266" y1="6.182" x2="85.266" y2="23.438" style="fill: none; stroke: #374315; stroke-linecap: round; stroke-linejoin: round; stroke-width: 2.369px;"/>
        <line x1="85.266" y1="-11.009" x2="85.266" y2=".477" style="fill: none; stroke: #374315; stroke-linecap: round; stroke-linejoin: round; stroke-width: 2.369px;"/>
        <line x1="81.029" y1="16.047" x2="81.029" y2="21.812" style="fill: none; stroke: #374315; stroke-linecap: round; stroke-linejoin: round; stroke-width: 2.369px;"/>
        <line x1="81.029" y1="5.033" x2="81.029" y2="10.797" style="fill: none; stroke: #374315; stroke-linecap: round; stroke-linejoin: round; stroke-width: 2.369px;"/>
        <line x1="89.502" y1="-18.994" x2="89.502" y2="1.208" style="fill: none; stroke: #374315; stroke-linecap: round; stroke-linejoin: round; stroke-width: 2.369px;"/>
        <line x1="81.029" y1="-5.571" x2="81.029" y2=".194" style="fill: none; stroke: #374315; stroke-linecap: round; stroke-linejoin: round; stroke-width: 2.369px;"/>
        <circle cx="101.554" cy="-2.798" r="12.591" style="fill: #009c00;"/>
        <circle cx="74.41" cy="14.243" r="13.766" style="fill: #009c00;"/>
        <circle cx="123.635" cy="-1.943" r="4.815" style="fill: #009c00;"/>
        <line x1="72.54" y1="6.908" x2="72.54" y2="8.543" style="fill: none; stroke: #ee6d38; stroke-linecap: round; stroke-miterlimit: 10; stroke-width: 2.213px;"/>
        <line x1="69.259" y1="9.162" x2="69.259" y2="10.797" style="fill: none; stroke: #ee6d38; stroke-linecap: round; stroke-miterlimit: 10; stroke-width: 2.213px;"/>
        <line x1="72.27" y1="12.347" x2="72.27" y2="13.982" style="fill: none; stroke: #ee6d38; stroke-linecap: round; stroke-miterlimit: 10; stroke-width: 2.213px;"/>
      </g>
    </g>
    <g>
      <rect x="1029.763" y="52.215" width="45.49" height="12.412" rx="6.206" ry="6.206" style="opacity: .106;"/>
      <g>
        <path d="M1084.424-5.591l-.617-1.737c-.329-.926-1.346-1.41-2.272-1.081l-7.027,2.495,2.611-4.522c.285-.494.116-1.126-.378-1.411l-1.378-.796c-.494-.285-1.126-.116-1.411.378l-4.756,8.237-12.366,4.391c-.926.329-1.41,1.346-1.081,2.272l.617,1.737c.329.926,1.346,1.41,2.272,1.081l24.705-8.773c.926-.329,1.41-1.346,1.081-2.272Z" style="fill: #55571b;"/>
        <rect x="1019.848" y="20.465" width="29.775" height="5.402" rx="1.779" ry="1.779" transform="translate(113.7 -448.966) rotate(25.858)" style="fill: #55571b;"/>
        <path d="M1081.219-43.484l-.708-2.3c-.254-.824-1.127-1.287-1.952-1.034l-10.219,3.143,2.035-4.811c.579-1.368-.061-2.947-1.43-3.526l-2.567-1.085c-1.368-.579-2.947.061-3.526,1.43l-10.223,24.171h-.283l-9.835-31.973c-.437-1.42-1.942-2.217-3.362-1.78l-2.664.819c-1.42.437-2.217,1.942-1.78,3.362l3.315,10.777-6.662-4.236c-.728-.463-1.693-.248-2.156.48l-1.291,2.031c-.463.728-.248,1.693.48,2.156l12.135,7.717,3.988,12.965V57.465c.52.107,1.018.299,1.397.671.513.532.817,1.274.817,2.034h.057c0-1.577,1.274-2.851,2.852-2.851s2.851,1.274,2.851,2.851h.038c0-1.577,1.273-2.851,2.851-2.851s2.852,1.274,2.852,2.851h.038c0-1.356.957-2.482,2.216-2.773V-25.101l5.043-11.923,14.658-4.509c.824-.254,1.287-1.127,1.034-1.952Z" style="fill: #55571b;"/>
        <line x1="1056.745" y1="28.495" x2="1056.745" y2="48.697" style="fill: none; stroke: #374315; stroke-linecap: round; stroke-linejoin: round; stroke-width: 2.369px;"/>
        <line x1="1052.508" y1="39.614" x2="1052.508" y2="52.995" style="fill: none; stroke: #374315; stroke-linecap: round; stroke-linejoin: round; stroke-width: 2.369px;"/>
        <line x1="1048.271" y1="35.312" x2="1048.271" y2="52.567" style="fill: none; stroke: #374315; stroke-linecap: round; stroke-linejoin: round; stroke-width: 2.369px;"/>
        <line x1="1056.745" y1="15.524" x2="1056.745" y2="23.527" style="fill: none; stroke: #374315; stroke-linecap: round; stroke-linejoin: round; stroke-width: 2.369px;"/>
        <line x1="1052.508" y1="14.538" x2="1052.508" y2="31.794" style="fill: none; stroke: #374315; stroke-linecap: round; stroke-linejoin: round; stroke-width: 2.369px;"/>
        <line x1="1052.508" y1="-2.654" x2="1052.508" y2="8.832" style="fill: none; stroke: #374315; stroke-linecap: round; stroke-linejoin: round; stroke-width: 2.369px;"/>
        <line x1="1048.271" y1="24.403" x2="1048.271" y2="30.167" style="fill: none; stroke: #374315; stroke-linecap: round; stroke-linejoin: round; stroke-width: 2.369px;"/>
        <line x1="1048.271" y1="13.388" x2="1048.271" y2="19.152" style="fill: none; stroke: #374315; stroke-linecap: round; stroke-linejoin: round; stroke-width: 2.369px;"/>
        <line x1="1056.745" y1="-10.639" x2="1056.745" y2="9.563" style="fill: none; stroke: #374315; stroke-linecap: round; stroke-linejoin: round; stroke-width: 2.369px;"/>
        <line x1="1048.271" y1="2.785" x2="1048.271" y2="8.549" style="fill: none; stroke: #374315; stroke-linecap: round; stroke-linejoin: round; stroke-width: 2.369px;"/>
        <circle cx="1068.796" cy="5.557" r="12.591" style="fill: #009c00;"/>
        <circle cx="1041.652" cy="22.598" r="13.766" style="fill: #009c00;"/>
        <circle cx="1056.745" cy="-3.612" r="6.721" style="fill: #009c00;"/>
        <circle cx="1024.171" cy="1.059" r="5.353" style="fill: #009c00;"/>
        <circle cx="1090.878" cy="6.412" r="4.815" style="fill: #009c00;"/>
        <line x1="1039.783" y1="15.263" x2="1039.783" y2="16.898" style="fill: none; stroke: #ee6d38; stroke-linecap: round; stroke-miterlimit: 10; stroke-width: 2.213px;"/>
        <line x1="1071.644" y1="-2.295" x2="1071.644" y2="-.66" style="fill: none; stroke: #ee6d38; stroke-linecap: round; stroke-miterlimit: 10; stroke-width: 2.213px;"/>
        <line x1="1068.555" y1="-.039" x2="1068.555" y2="1.597" style="fill: none; stroke: #ee6d38; stroke-linecap: round; stroke-miterlimit: 10; stroke-width: 2.213px;"/>
        <line x1="1071.644" y1="3.11" x2="1071.644" y2="4.745" style="fill: none; stroke: #ee6d38; stroke-linecap: round; stroke-miterlimit: 10; stroke-width: 2.213px;"/>
        <line x1="1075.144" y1=".779" x2="1075.144" y2="2.414" style="fill: none; stroke: #ee6d38; stroke-linecap: round; stroke-miterlimit: 10; stroke-width: 2.213px;"/>
        <line x1="1036.502" y1="17.517" x2="1036.502" y2="19.152" style="fill: none; stroke: #ee6d38; stroke-linecap: round; stroke-miterlimit: 10; stroke-width: 2.213px;"/>
        <line x1="1039.513" y1="20.702" x2="1039.513" y2="22.337" style="fill: none; stroke: #ee6d38; stroke-linecap: round; stroke-miterlimit: 10; stroke-width: 2.213px;"/>
      </g>
    </g>
    <g>
      <rect x="1356.506" y="117.489" width="98.503" height="36.939" style="fill: #c2ed00;"/>
      <path d="M1368.818,123.646h-12.313v-6.156c0-3.401,2.755-6.156,6.156-6.156s6.156,2.755,6.156,6.156v6.156Z" style="fill: #c2ed00; fill-rule: evenodd;"/>
      <path d="M1393.444,123.646h-12.313v-6.156c0-3.401,2.755-6.156,6.156-6.156s6.156,2.755,6.156,6.156v6.156Z" style="fill: #c2ed00; fill-rule: evenodd;"/>
      <path d="M1418.07,123.646h-12.313v-6.156c0-3.401,2.755-6.156,6.156-6.156s6.156,2.755,6.156,6.156v6.156Z" style="fill: #c2ed00; fill-rule: evenodd;"/>
      <path d="M1442.696,123.646h-12.313v-6.156c0-3.401,2.755-6.156,6.156-6.156s6.156,2.755,6.156,6.156v6.156Z" style="fill: #c2ed00; fill-rule: evenodd;"/>
      <path d="M1381.131,123.646h-12.313v-6.156c0-3.401,2.755-6.156,6.156-6.156s6.156,2.755,6.156,6.156v6.156Z" style="fill: #c2ed00; fill-rule: evenodd;"/>
      <path d="M1405.757,123.646h-12.313v-6.156c0-3.401,2.755-6.156,6.156-6.156s6.156,2.755,6.156,6.156v6.156Z" style="fill: #c2ed00; fill-rule: evenodd;"/>
      <path d="M1430.383,123.646h-12.313v-6.156c0-3.401,2.755-6.156,6.156-6.156s6.156,2.755,6.156,6.156v6.156Z" style="fill: #c2ed00; fill-rule: evenodd;"/>
      <path d="M1455.009,123.646h-12.313v-6.156c0-3.401,2.755-6.156,6.156-6.156s6.156,2.755,6.156,6.156v6.156Z" style="fill: #c2ed00; fill-rule: evenodd;"/>
      <path d="M1368.818,154.428h-12.313v-6.156c0-3.401,2.755-6.156,6.156-6.156s6.156,2.755,6.156,6.156v6.156Z" style="fill: #7eea00; fill-rule: evenodd;"/>
      <path d="M1381.131,154.428h-12.313v-6.156c0-3.401,2.755-6.156,6.156-6.156s6.156,2.755,6.156,6.156v6.156Z" style="fill: #7eea00; fill-rule: evenodd;"/>
      <path d="M1393.444,154.428h-12.313v-6.156c0-3.401,2.755-6.156,6.156-6.156s6.156,2.755,6.156,6.156v6.156Z" style="fill: #7eea00; fill-rule: evenodd;"/>
      <path d="M1405.757,154.428h-12.313v-6.156c0-3.401,2.755-6.156,6.156-6.156s6.156,2.755,6.156,6.156v6.156Z" style="fill: #7eea00; fill-rule: evenodd;"/>
      <path d="M1418.07,154.428h-12.313v-6.156c0-3.401,2.755-6.156,6.156-6.156s6.156,2.755,6.156,6.156v6.156Z" style="fill: #7eea00; fill-rule: evenodd;"/>
      <path d="M1442.696,154.428h-12.313v-6.156c0-3.401,2.755-6.156,6.156-6.156s6.156,2.755,6.156,6.156v6.156Z" style="fill: #7eea00; fill-rule: evenodd;"/>
      <path d="M1455.009,154.428h-12.313v-6.156c0-3.401,2.755-6.156,6.156-6.156s6.156,2.755,6.156,6.156v6.156Z" style="fill: #7eea00; fill-rule: evenodd;"/>
      <path d="M1430.383,154.428h-12.313v-6.156c0-3.401,2.755-6.156,6.156-6.156s6.156,2.755,6.156,6.156v6.156Z" style="fill: #7eea00; fill-rule: evenodd;"/>
      <rect x="1070.23" y="117.489" width="98.503" height="36.939" style="fill: #c2ed00;"/>
      <path d="M1082.543,123.646h-12.313v-6.156c0-3.401,2.756-6.156,6.156-6.156s6.156,2.755,6.156,6.156v6.156Z" style="fill: #c2ed00; fill-rule: evenodd;"/>
      <path d="M1107.169,123.646h-12.313v-6.156c0-3.401,2.756-6.156,6.156-6.156s6.156,2.755,6.156,6.156v6.156Z" style="fill: #c2ed00; fill-rule: evenodd;"/>
      <path d="M1131.795,123.646h-12.313v-6.156c0-3.401,2.756-6.156,6.156-6.156s6.156,2.755,6.156,6.156v6.156Z" style="fill: #c2ed00; fill-rule: evenodd;"/>
      <path d="M1156.42,123.646h-12.313v-6.156c0-3.401,2.756-6.156,6.156-6.156s6.156,2.755,6.156,6.156v6.156Z" style="fill: #c2ed00; fill-rule: evenodd;"/>
      <path d="M1094.856,123.646h-12.313v-6.156c0-3.401,2.756-6.156,6.156-6.156s6.156,2.755,6.156,6.156v6.156Z" style="fill: #c2ed00; fill-rule: evenodd;"/>
      <path d="M1119.482,123.646h-12.313v-6.156c0-3.401,2.756-6.156,6.156-6.156s6.156,2.755,6.156,6.156v6.156Z" style="fill: #c2ed00; fill-rule: evenodd;"/>
      <path d="M1144.107,123.646h-12.313v-6.156c0-3.401,2.756-6.156,6.156-6.156s6.156,2.755,6.156,6.156v6.156Z" style="fill: #c2ed00; fill-rule: evenodd;"/>
      <path d="M1168.733,123.646h-12.313v-6.156c0-3.401,2.756-6.156,6.156-6.156s6.156,2.755,6.156,6.156v6.156Z" style="fill: #c2ed00; fill-rule: evenodd;"/>
      <path d="M1082.543,154.428h-12.313v-6.156c0-3.401,2.756-6.156,6.156-6.156s6.156,2.755,6.156,6.156v6.156Z" style="fill: #7eea00; fill-rule: evenodd;"/>
      <path d="M1094.856,154.428h-12.313v-6.156c0-3.401,2.756-6.156,6.156-6.156s6.156,2.755,6.156,6.156v6.156Z" style="fill: #7eea00; fill-rule: evenodd;"/>
      <path d="M1107.169,154.428h-12.313v-6.156c0-3.401,2.756-6.156,6.156-6.156s6.156,2.755,6.156,6.156v6.156Z" style="fill: #7eea00; fill-rule: evenodd;"/>
      <path d="M1119.482,154.428h-12.313v-6.156c0-3.401,2.756-6.156,6.156-6.156s6.156,2.755,6.156,6.156v6.156Z" style="fill: #7eea00; fill-rule: evenodd;"/>
      <path d="M1131.795,154.428h-12.313v-6.156c0-3.401,2.756-6.156,6.156-6.156s6.156,2.755,6.156,6.156v6.156Z" style="fill: #7eea00; fill-rule: evenodd;"/>
      <path d="M1156.42,154.428h-12.313v-6.156c0-3.401,2.756-6.156,6.156-6.156s6.156,2.755,6.156,6.156v6.156Z" style="fill: #7eea00; fill-rule: evenodd;"/>
      <path d="M1168.733,154.428h-12.313v-6.156c0-3.401,2.756-6.156,6.156-6.156s6.156,2.755,6.156,6.156v6.156Z" style="fill: #7eea00; fill-rule: evenodd;"/>
      <path d="M1144.107,154.428h-12.313v-6.156c0-3.401,2.756-6.156,6.156-6.156s6.156,2.755,6.156,6.156v6.156Z" style="fill: #7eea00; fill-rule: evenodd;"/>
      <rect x="1214.907" y="117.489" width="98.503" height="36.939" style="fill: #c2ed00;"/>
      <path d="M1227.22,123.646h-12.313v-6.156c0-3.401,2.756-6.156,6.156-6.156s6.156,2.755,6.156,6.156v6.156Z" style="fill: #c2ed00; fill-rule: evenodd;"/>
      <path d="M1251.846,123.646h-12.313v-6.156c0-3.401,2.756-6.156,6.156-6.156s6.156,2.755,6.156,6.156v6.156Z" style="fill: #c2ed00; fill-rule: evenodd;"/>
      <path d="M1276.472,123.646h-12.313v-6.156c0-3.401,2.756-6.156,6.156-6.156s6.156,2.755,6.156,6.156v6.156Z" style="fill: #c2ed00; fill-rule: evenodd;"/>
      <path d="M1301.097,123.646h-12.313v-6.156c0-3.401,2.756-6.156,6.156-6.156s6.156,2.755,6.156,6.156v6.156Z" style="fill: #c2ed00; fill-rule: evenodd;"/>
      <path d="M1239.533,123.646h-12.313v-6.156c0-3.401,2.756-6.156,6.156-6.156s6.156,2.755,6.156,6.156v6.156Z" style="fill: #c2ed00; fill-rule: evenodd;"/>
      <path d="M1264.159,123.646h-12.313v-6.156c0-3.401,2.756-6.156,6.156-6.156s6.156,2.755,6.156,6.156v6.156Z" style="fill: #c2ed00; fill-rule: evenodd;"/>
      <path d="M1288.784,123.646h-12.313v-6.156c0-3.401,2.756-6.156,6.156-6.156s6.156,2.755,6.156,6.156v6.156Z" style="fill: #c2ed00; fill-rule: evenodd;"/>
      <path d="M1313.41,123.646h-12.313v-6.156c0-3.401,2.756-6.156,6.156-6.156s6.156,2.755,6.156,6.156v6.156Z" style="fill: #c2ed00; fill-rule: evenodd;"/>
      <path d="M1227.22,154.428h-12.313v-6.156c0-3.401,2.756-6.156,6.156-6.156s6.156,2.755,6.156,6.156v6.156Z" style="fill: #7eea00; fill-rule: evenodd;"/>
      <path d="M1239.533,154.428h-12.313v-6.156c0-3.401,2.756-6.156,6.156-6.156s6.156,2.755,6.156,6.156v6.156Z" style="fill: #7eea00; fill-rule: evenodd;"/>
      <path d="M1251.846,154.428h-12.313v-6.156c0-3.401,2.756-6.156,6.156-6.156s6.156,2.755,6.156,6.156v6.156Z" style="fill: #7eea00; fill-rule: evenodd;"/>
      <path d="M1264.159,154.428h-12.313v-6.156c0-3.401,2.756-6.156,6.156-6.156s6.156,2.755,6.156,6.156v6.156Z" style="fill: #7eea00; fill-rule: evenodd;"/>
      <path d="M1276.472,154.428h-12.313v-6.156c0-3.401,2.756-6.156,6.156-6.156s6.156,2.755,6.156,6.156v6.156Z" style="fill: #7eea00; fill-rule: evenodd;"/>
      <path d="M1301.097,154.428h-12.313v-6.156c0-3.401,2.756-6.156,6.156-6.156s6.156,2.755,6.156,6.156v6.156Z" style="fill: #7eea00; fill-rule: evenodd;"/>
      <path d="M1313.41,154.428h-12.313v-6.156c0-3.401,2.756-6.156,6.156-6.156s6.156,2.755,6.156,6.156v6.156Z" style="fill: #7eea00; fill-rule: evenodd;"/>
      <path d="M1288.784,154.428h-12.313v-6.156c0-3.401,2.756-6.156,6.156-6.156s6.156,2.755,6.156,6.156v6.156Z" style="fill: #7eea00; fill-rule: evenodd;"/>
    </g>
    <g style="opacity: .3;">
      <ellipse cx="532.864" cy="25.035" rx="1.966" ry="1.97" transform="translate(74.34 297.664) rotate(-33.425)" style="fill: #f2b052; opacity: .6;"/>
      <ellipse cx="526.044" cy="28.659" rx="1.966" ry="1.97" transform="translate(71.216 294.507) rotate(-33.425)" style="fill: #f2b052; opacity: .6;"/>
      <ellipse cx="525.344" cy="22.428" rx="1.966" ry="1.97" transform="translate(74.532 293.091) rotate(-33.425)" style="fill: #f2b052; opacity: .6;"/>
      <ellipse cx="510.409" cy="32.426" rx="1.966" ry="1.97" transform="translate(66.555 286.518) rotate(-33.425)" style="fill: #f2b052; opacity: .6;"/>
      <ellipse cx="519.803" cy="41.839" rx="1.966" ry="1.97" transform="translate(62.924 293.249) rotate(-33.425)" style="fill: #f2b052; opacity: .6;"/>
    </g>
    <g style="opacity: .3;">
      <ellipse cx="612.332" cy="136.889" rx="1.97" ry="1.966" transform="translate(11.038 316.151) rotate(-29.202)" style="fill: #f2b052; opacity: .6;"/>
      <ellipse cx="602.252" cy="145.564" rx="1.97" ry="1.966" transform="translate(5.524 312.336) rotate(-29.202)" style="fill: #f2b052; opacity: .6;"/>
    </g>
    <g style="opacity: .3;">
      <ellipse cx="211.873" cy="132.551" rx="1.966" ry="1.97" transform="translate(-6.758 253.63) rotate(-61.009)" style="fill: #f2b052; opacity: .6;"/>
      <ellipse cx="216.24" cy="126.181" rx="1.966" ry="1.97" transform="translate(1.063 254.167) rotate(-61.009)" style="fill: #f2b052; opacity: .6;"/>
      <ellipse cx="219.746" cy="131.38" rx="1.966" ry="1.97" transform="translate(-1.677 259.913) rotate(-61.009)" style="fill: #f2b052; opacity: .6;"/>
      <ellipse cx="228.353" cy="115.603" rx="1.966" ry="1.97" transform="translate(16.558 259.311) rotate(-61.009)" style="fill: #f2b052; opacity: .6;"/>
      <ellipse cx="215.668" cy="111.609" rx="1.966" ry="1.97" transform="translate(13.515 246.158) rotate(-61.009)" style="fill: #f2b052; opacity: .6;"/>
    </g>
    <g>
      <rect x="816.351" y="-84.871" width="11.567" height="145.022" style="fill: #72709c;"/>
      <circle cx="822.134" cy="60.151" r="9.142" style="fill: #77d629;"/>
    </g>
    <g>
      <rect x="942.038" y="-123.799" width="11.567" height="145.022" style="fill: #72709c;"/>
      <circle cx="947.822" cy="21.223" r="9.142" style="fill: #77d629;"/>
    </g>
  </g>
</svg>