<svg xmlns="http://www.w3.org/2000/svg" width="1500" height="145" xmlns:v="https://vecta.io/nano"><style><![CDATA[.B{fill-rule:evenodd}.C{fill:none}.D{fill:#8fc300}.E{clip-rule:evenodd}.F{fill:#a2d500}.G{fill:#314145}.H{fill:#436771}.I{fill:#c2ed00}.J{fill:#fff}.K{opacity:.5}.L{fill:#5aaa00}.M{fill:#00a6f2}.N{opacity:.7}.O{opacity:.106}.P{fill:#a25ba3}.Q{stroke-linecap:round}.R{fill:#4b917a}.S{fill:#d9c184}.T{fill:#e5dab5}.U{stroke:#fff}.V{opacity:.75}.W{fill:#d57c40}.X{fill:#374315}.Y{fill:#a6d320}.Z{fill:#8b6239}.a{fill:#d93f27}.b{fill:#081c1c}.c{stroke-linejoin:round}.d{fill:#eed64e}.e{fill:#9cd0d0}.f{stroke-width:2.622}.g{fill:#e2d19d}.h{stroke-miterlimit:10}.i{fill:#77d629}.j{fill:#d59b44}.k{fill:#6c4c46}.l{fill:#966854}.m{fill:#8c4906}.n{fill:#aacfca}.o{fill:#deeeeb}.p{fill:#83b4b2}.q{fill:#377863}.r{fill:#2b634f}.s{fill:#906a34}.t{fill:#a6a0cb}.u{fill:#f7cd4a}.v{fill:#3c7460}.w{stroke-width:3.933}.x{fill:#5cb8b0}.y{stroke:#5cb8b0}.z{stroke-width:3.882}.AA{stroke-dasharray:0 10}.AB{stroke-width:2.388}]]></style><defs><clipPath id="A"><path d="M0 0h1500v145H0z" class="C"/></clipPath><clipPath id="B"><path d="M516.584-12.76c-1.388-2.189-3.795-3.514-6.383-3.514a7.56 7.56 0 0 0-6.383 3.514l-19.141 30.187c0 10.368 11.437 18.785 25.524 18.785s25.524-8.417 25.524-18.785L516.584-12.76z" class="C E"/></clipPath><clipPath id="C"><path d="M515.987-20.875a7.56 7.56 0 0 0-12.706 0L488.196 2.537c0 8.57 9.606 15.528 21.438 15.528s21.438-6.958 21.438-15.528l-15.085-23.412z" class="C E"/></clipPath><clipPath id="D"><path d="M552.967 62.642h2.967v2.616h-2.967z" class="C"/></clipPath><clipPath id="E"><path d="M599.278 62.355h5.642v2.603h-5.642z" class="C"/></clipPath><clipPath id="F"><path d="M1524.616 112.476l-42.462-39.558a30.49 30.49 0 0 0-20.776-8.164h-6.88c-7.345 0-14.439 2.644-19.981 7.464l-46.319 40.258h136.419z" class="C E"/></clipPath><clipPath id="G"><path d="M1376.898 96.351c0-5.525 2.054-10.857 5.756-14.939l13.256-14.638-.252-21.694c-.019-1.069.388-2.099 1.143-2.858s1.764-1.186 2.829-1.186h8.663a9.49 9.49 0 0 1 6.531 2.585l31.338 29.547c2.19 2.061 2.907 5.248 1.802 8.048s-3.799 4.646-6.803 4.646h-11.028v18.234c0 2.245-.891 4.399-2.461 5.987-1.589 1.586-3.74 2.478-5.969 2.478h-44.807V96.349z" class="C E"/></clipPath><clipPath id="H"><path d="M1385.445 48.658h19.981v7.639h-12.365c-4.205 0-7.616-3.421-7.616-7.639h0z" class="C E"/></clipPath><clipPath id="I"><path d="M849.434 9.551c-1.692-2.668-4.627-4.284-7.781-4.284s-6.089 1.616-7.781 4.284L810.539 46.35c0 12.639 13.942 22.9 31.114 22.9s31.114-10.261 31.114-22.9L849.434 9.551z" class="C E"/></clipPath><clipPath id="J"><path d="M848.707-.341c-1.698-2.636-4.614-4.228-7.745-4.228s-6.047 1.592-7.745 4.228l-18.388 28.54c0 10.447 11.71 18.928 26.133 18.928s26.133-8.482 26.133-18.928L848.707-.341z" class="C E"/></clipPath><clipPath id="K"><path d="M845.914-15.666c-.949-1.428-2.548-2.287-4.26-2.287s-3.311.858-4.26 2.287L821.576 8.139c0 4.537 3.058 8.577 7.804 11.157 3.395 1.845 7.653 2.944 12.274 2.944 11.081 0 20.078-6.319 20.078-14.101l-15.818-23.805z" class="C E"/></clipPath><clipPath id="L"><path d="M784.895 9.551c-1.692-2.668-4.627-4.284-7.781-4.284s-6.089 1.616-7.781 4.284L746 46.35c0 12.639 13.942 22.9 31.114 22.9s31.114-10.261 31.114-22.9L784.895 9.551z" class="C E"/></clipPath><clipPath id="M"><path d="M784.168-.341c-1.698-2.636-4.614-4.228-7.745-4.228s-6.047 1.592-7.745 4.228l-18.388 28.54c0 10.447 11.71 18.928 26.133 18.928s26.133-8.482 26.133-18.928L784.168-.341z" class="C E"/></clipPath><clipPath id="N"><path d="M781.375-15.666c-.949-1.428-2.548-2.287-4.26-2.287s-3.311.858-4.26 2.287L757.037 8.139c0 4.537 3.058 8.577 7.804 11.157 3.395 1.845 7.653 2.944 12.274 2.944 11.081 0 20.078-6.319 20.078-14.101l-15.818-23.805z" class="C E"/></clipPath><clipPath id="O"><path d="M817.737 6.819c-1.909-3.011-5.221-4.835-8.781-4.835s-6.872 1.824-8.781 4.835l-26.332 41.529c0 14.263 15.734 25.843 35.113 25.843s35.113-11.58 35.113-25.843L817.737 6.819z" class="C E"/></clipPath><clipPath id="P"><path d="M816.916-4.344a10.4 10.4 0 0 0-17.48 0l-20.752 32.208c0 11.79 13.215 21.361 29.492 21.361s29.492-9.572 29.492-21.361L816.916-4.344z" class="C E"/></clipPath><clipPath id="Q"><path d="M813.764-21.639c-1.071-1.612-2.876-2.581-4.808-2.581a5.77 5.77 0 0 0-4.808 2.581L786.297 5.226c0 5.121 3.451 9.68 8.807 12.591 3.831 2.082 8.637 3.322 13.851 3.322 12.505 0 22.659-7.131 22.659-15.914L813.763-21.64z" class="C E"/></clipPath><clipPath id="R"><path d="M790.302-30.569H666.2V85.996c0 1.16.46 2.272 1.277 3.091a4.36 4.36 0 0 0 3.088 1.284h115.371a4.36 4.36 0 0 0 3.088-1.284c.818-.819 1.278-1.931 1.278-3.091V-30.569z" class="C E"/></clipPath><clipPath id="S"><rect x="62.277" y="145.278" width="47.978" height="4.451" rx="2.225" class="C"/></clipPath><clipPath id="T"><rect x="66.766" y="121.018" width="38.967" height="3.086" rx="1.543" class="C"/></clipPath><clipPath id="U"><path d="M289.368 114.571l-1.758 6.279h-45.019l-1.759-6.279h48.536z" class="C E"/></clipPath><clipPath id="V"><path d="M234.935 106.246c0-.885.718-1.603 1.603-1.603.425 0 .833.169 1.133.469a1.6 1.6 0 0 1 .47 1.133v.787c0 2.116-1.214 4.043-3.123 4.957l-.083.04v-5.784z" class="C E"/></clipPath><clipPath id="W"><path d="M232.869 114.142a2.91 2.91 0 0 1-1.39-2.15l-.214-1.809a1.89 1.89 0 0 1 .468-1.483 1.91 1.91 0 0 1 1.424-.637h.377c1.05 0 1.893.85 1.894 1.896v3.616c-.547-.233-1.184-.159-1.668.249h0c-.268.226-.561.331-.891.317z" class="C E"/></clipPath><clipPath id="X"><path d="M235.613 104.549c0-.278-.11-.545-.307-.741a1.05 1.05 0 0 0-.741-.307c-.278 0-.544.11-.741.307s-.307.463-.307.741v.84c0 .915.546 1.742 1.388 2.101l.579.247c.028.012.061.009.087-.008s.041-.046.041-.077v-3.104z" class="C E"/></clipPath><clipPath id="Y"><path d="M230.704 114.592h6.772l-.568 5.768c-.027.278-.261.49-.54.49h-4.556c-.279 0-.513-.212-.54-.49l-.568-5.768z" class="C E"/></clipPath><clipPath id="Z"><path d="M115.462 55.055l-14.503 25.74h74.899l14.095-25.74h-74.491z" class="C"/></clipPath><clipPath id="a"><path d="M816.601 122.659l-3.119 11.137h-13.623l-3.119-11.137h19.861z" class="E W"/></clipPath><clipPath id="b"><path d="M89.737 14.497a1.14 1.14 0 0 0-1.435.735L83.848 29.04l2.171.7 4.454-13.808a1.14 1.14 0 0 0-.735-1.435z" class="C E"/></clipPath><clipPath id="c"><path d="M89.041,14.138h1.102c.613,0,1.11.497,1.11,1.11v.364h-3.322v-.364c0-.613.497-1.11,1.11-1.11Z" transform="matrix(.951723 .306958 -.306958 .951723 8.891 -26.784)" class="C"/></clipPath><clipPath id="d"><path d="M86.641,26.424l-1.287-.415c-1.491-.481-3.104.345-3.584,1.836l3.464,1.049,3.243,1.114c.481-1.491-.345-3.104-1.836-3.584Z" class="C E"/></clipPath><clipPath id="e"><path d="M88.961 28.793c.262-.811-.184-1.68-.995-1.942l-3.854-1.243c-.811-.262-1.68.184-1.942.995l-.671 2.079 6.79 2.19.671-2.079z" class="C E"/></clipPath><clipPath id="f"><path d="M90.617 27.234c.11-.341-.077-.706-.418-.815l-7.815-2.521c-.34-.11-.706.077-.815.418l-.795 2.466 9.048 2.918.795-2.466z" class="C E"/></clipPath><clipPath id="g"><path d="M82.539,28.974h0c4.884,0,8.85,3.966,8.85,8.85v7.08h-17.7v-7.08c0-4.884,3.966-8.85,8.85-8.85Z" transform="matrix(.951723 .306958 -.306958 .951723 15.324 -23.553)" class="C"/></clipPath><clipPath id="h"><path d="M753.049 159.055a7.56 7.56 0 0 0-12.706 0l-15.085 23.412c0 8.57 9.606 15.528 21.438 15.528s21.438-6.958 21.438-15.528l-15.085-23.412z" class="C E"/></clipPath><clipPath id="i"><path d="M750.758 146.483c-.779-1.172-2.09-1.876-3.495-1.876s-2.716.704-3.495 1.876l-12.976 19.528c0 3.722 2.509 7.036 6.402 9.153 2.785 1.514 6.278 2.415 10.069 2.415 9.09 0 16.471-5.183 16.471-11.568l-12.976-19.528z" class="C E"/></clipPath><clipPath id="j"><path d="M687.16 150.502h0c-1.991-4.903-6.038-8.676-11.061-10.313a17.89 17.89 0 0 0-14.997 1.822h0l26.057 8.491z" class="C E"/></clipPath><path id="k" d="M927.839 102.446c1.232 0 2.231-1 2.231-2.236v-7.001c0-1.236-.999-2.236-2.231-2.236s-2.231 1-2.231 2.236v7.001c0 1.236.999 2.236 2.231 2.236z"/><path id="l" d="M918.525 102.446c1.232 0 2.231-1 2.231-2.236v-4.669c0-1.236-.999-2.236-2.231-2.236s-2.231 1-2.231 2.236v4.669c0 1.236.999 2.236 2.231 2.236z"/><path id="m" d="M520.919 16.056c-.368-1.196-1.636-1.868-2.83-1.499a2.27 2.27 0 0 0-1.495 2.836l.053.172c.368 1.196 1.636 1.868 2.83 1.499a2.27 2.27 0 0 0 1.495-2.836l-.053-.171z"/><path id="n" d="M515.022 18.23c-.134-1.245-1.25-2.147-2.492-2.013a2.27 2.27 0 0 0-2.008 2.498l.019.178c.134 1.245 1.25 2.146 2.492 2.013a2.27 2.27 0 0 0 2.008-2.498l-.019-.178z"/><path id="o" d="M847.937 43.611h-11.036v30.422a5.52 5.52 0 0 0 5.513 5.525h.01a5.52 5.52 0 0 0 5.513-5.525V43.611z"/><path id="p" d="M869.956 41.919c-.821-1.286-2.528-1.66-3.809-.836s-1.656 2.537-.835 3.822l5.904 9.248c.821 1.286 2.528 1.66 3.809.836s1.656-2.537.835-3.823l-5.904-9.248z"/><path id="q" d="M848.059-11.041c-1.751-2.118-4.353-3.344-7.098-3.345a9.21 9.21 0 0 0-7.098 3.342c-9.18 11.114-24.015 30.637-24.015 40.802 0 12.639 13.942 22.9 31.114 22.9s31.113-10.261 31.113-22.9c0-10.165-14.834-29.688-24.017-40.799z"/><path id="r" d="M830.993 63.973c.163-1.517 1.525-2.617 3.038-2.453s2.611 1.528 2.448 3.045l-.507 4.721a2.76 2.76 0 0 1-3.038 2.453c-1.514-.163-2.611-1.528-2.448-3.045l.507-4.721z"/><path id="s" d="M812.274 43.621c.822-1.285 2.53-1.659 3.812-.834s1.654 2.536.833 3.821l-4.928 7.699c-.822 1.285-2.53 1.658-3.812.834a2.77 2.77 0 0 1-.833-3.82l4.928-7.699z"/><path id="t" d="M843.722,52.658c0-1.526-1.237-2.765-2.759-2.765s-2.759,1.239-2.759,2.765v2.765c0,1.526,1.237,2.765,2.759,2.765s2.759-1.239,2.759-2.765v-2.765Z"/><path id="u" d="M853.264 57.859a2.76 2.76 0 0 0-3.077-2.404c-1.511.188-2.586 1.57-2.399 3.084l.339 2.744a2.76 2.76 0 0 0 3.077 2.404c1.511-.188 2.586-1.57 2.399-3.084l-.339-2.744z"/><path id="v" d="M828.856 57.859c.188-1.515 1.566-2.592 3.078-2.404s2.586 1.57 2.399 3.084l-.339 2.744a2.76 2.76 0 0 1-3.077 2.404c-1.511-.188-2.586-1.57-2.399-3.084l.339-2.744z"/><path id="w" d="M860.482 46.877a2.76 2.76 0 0 0-3.461-1.806 2.77 2.77 0 0 0-1.802 3.469l1.162 3.695a2.76 2.76 0 0 0 3.461 1.806 2.77 2.77 0 0 0 1.802-3.469l-1.162-3.695z"/><path id="x" d="M823.233 48.131a2.76 2.76 0 0 1 3.461-1.806 2.77 2.77 0 0 1 1.802 3.469l-1.162 3.695a2.76 2.76 0 0 1-3.461 1.806 2.77 2.77 0 0 1-1.802-3.469l1.162-3.695z"/><path id="y" d="M867.295 41.67c-.761-1.322-2.45-1.775-3.769-1.012a2.77 2.77 0 0 0-1.01 3.777l2.496 4.333c.762 1.322 2.45 1.775 3.769 1.012a2.77 2.77 0 0 0 1.01-3.778l-2.496-4.333z"/><path id="z" d="M816.447 41.521c.761-1.322 2.45-1.775 3.769-1.012a2.77 2.77 0 0 1 1.01 3.777l-2.496 4.333c-.762 1.322-2.45 1.775-3.769 1.012a2.77 2.77 0 0 1-1.01-3.778l2.496-4.333z"/><path id="AA" d="M826.875 25.561a2.77 2.77 0 0 0-1.01-3.778 2.76 2.76 0 0 0-3.769 1.012l-2.759 4.789a2.77 2.77 0 0 0 1.01 3.778 2.76 2.76 0 0 0 3.769-1.012l2.759-4.789z"/><path id="AB" d="M833.42 35.665a2.77 2.77 0 0 0-1.705-3.518 2.76 2.76 0 0 0-3.51 1.709l-.903 2.613a2.77 2.77 0 0 0 1.705 3.518 2.76 2.76 0 0 0 3.51-1.709l.903-2.613z"/><path id="AC" d="M845.178,33.301c0-1.526-1.237-2.765-2.759-2.765s-2.759,1.239-2.759,2.765v2.765c0,1.526,1.236,2.765,2.759,2.765s2.759-1.239,2.759-2.765v-2.765Z"/><path id="AD" d="M856.026 33.758a2.76 2.76 0 0 0-3.571-1.576 2.77 2.77 0 0 0-1.572 3.579l.999 2.578a2.76 2.76 0 0 0 3.571 1.576 2.77 2.77 0 0 0 1.572-3.579l-1-2.577z"/><path id="AE" d="M860.352 21.87c-.762-1.322-2.45-1.775-3.769-1.012a2.77 2.77 0 0 0-1.01 3.777l2.39 4.148c.761 1.322 2.45 1.775 3.769 1.012a2.77 2.77 0 0 0 1.01-3.777l-2.389-4.148z"/><path id="AF" d="M858.973-4.578c0-9.617-7.79-17.425-17.385-17.425h-.401c-9.596,0-17.385,7.808-17.385,17.425v.738c0,9.617,7.79,17.425,17.385,17.425h.401c9.595,0,17.385-7.808,17.385-17.425v-.738Z"/><path id="AG" d="M845.178 5.649c0-1.526-1.237-2.766-2.759-2.766s-2.759 1.239-2.759 2.766v2.765c0 1.526 1.236 2.765 2.759 2.765s2.759-1.239 2.759-2.765V5.649z"/><path id="AH" d="M852.387-3.662c-.766-1.319-2.456-1.768-3.772-1a2.77 2.77 0 0 0-.998 3.78l1.387 2.39c.765 1.32 2.456 1.768 3.772 1.001a2.77 2.77 0 0 0 .998-3.781l-1.387-2.39z"/><path id="AI" d="M838.203,22.022c0-1.526,1.237-2.765,2.759-2.765s2.759,1.239,2.759,2.765v.219c0,1.526-1.237,2.765-2.759,2.765s-2.759-1.239-2.759-2.765v-.219Z"/><path id="AJ" d="M823.547 15.286a2.76 2.76 0 0 1 3.594-1.522 2.77 2.77 0 0 1 1.519 3.602l-.082.203a2.76 2.76 0 0 1-3.594 1.522 2.77 2.77 0 0 1-1.519-3.602l.082-.203z"/><path id="AK" d="M859.278 15.259a2.76 2.76 0 0 0-3.594-1.522 2.77 2.77 0 0 0-1.519 3.602l.082.203a2.76 2.76 0 0 0 3.594 1.522 2.77 2.77 0 0 0 1.519-3.602l-.082-.203z"/><path id="AL" d="M819.462 8.485c.822-1.285 2.53-1.658 3.812-.834a2.77 2.77 0 0 1 .833 3.82l-.118.184c-.822 1.285-2.53 1.658-3.812.834a2.77 2.77 0 0 1-.833-3.82l.118-.184z"/><path id="AM" d="M812.625 28.859a2.76 2.76 0 0 1 3.812-.834 2.77 2.77 0 0 1 .833 3.821l-.118.184c-.822 1.285-2.53 1.659-3.812.834a2.77 2.77 0 0 1-.833-3.821l.118-.184z"/><path id="AN" d="M869.845 28.859a2.76 2.76 0 0 0-3.812-.834 2.77 2.77 0 0 0-.832 3.821l.118.184c.822 1.285 2.53 1.659 3.812.834a2.77 2.77 0 0 0 .832-3.821l-.118-.184z"/><path id="AO" d="M821.61 40.997c.822-1.285 2.53-1.659 3.812-.834a2.77 2.77 0 0 1 .832 3.821l-.118.184c-.822 1.285-2.53 1.658-3.812.834a2.77 2.77 0 0 1-.832-3.821l.118-.184z"/><path id="AP" d="M860.859 40.997c-.822-1.285-2.53-1.659-3.812-.834a2.77 2.77 0 0 0-.833 3.821l.118.184c.822 1.285 2.53 1.658 3.812.834a2.77 2.77 0 0 0 .833-3.821l-.118-.184z"/><path id="AQ" d="M867.86 54.929c-.859-1.261-2.577-1.585-3.834-.725s-1.581 2.582-.723 3.843l2.174 3.192a2.76 2.76 0 0 0 3.834.725 2.77 2.77 0 0 0 .723-3.843l-2.174-3.192z"/><path id="AR" d="M827.75 44.678a2.76 2.76 0 0 1 3.45-1.827 2.77 2.77 0 0 1 1.823 3.457l-.064.209a2.76 2.76 0 0 1-3.45 1.827 2.77 2.77 0 0 1-1.823-3.458l.064-.209z"/><path id="AS" d="M854.719 44.678a2.76 2.76 0 0 0-3.449-1.827 2.77 2.77 0 0 0-1.823 3.457l.064.209a2.76 2.76 0 0 0 3.45 1.827 2.77 2.77 0 0 0 1.823-3.458l-.064-.209z"/><path id="AT" d="M822.047 61.584a2.76 2.76 0 0 1 3.449-1.827 2.77 2.77 0 0 1 1.823 3.458l-1.098 3.566a2.76 2.76 0 0 1-3.449 1.827 2.77 2.77 0 0 1-1.823-3.457l1.098-3.566z"/><path id="AU" d="M834.939 47.329a2.76 2.76 0 0 1 3.038-2.453c1.514.163 2.611 1.528 2.448 3.045l-.023.217a2.76 2.76 0 0 1-3.038 2.453c-1.514-.163-2.611-1.528-2.448-3.045l.023-.217z"/><path id="AV" d="M847.53 47.329a2.76 2.76 0 0 0-3.038-2.453c-1.514.163-2.611 1.528-2.448 3.045l.023.217a2.76 2.76 0 0 0 3.038 2.453c1.514-.163 2.611-1.528 2.448-3.045l-.023-.217z"/><path id="AW" d="M815.936 35.884c.822-1.285 2.53-1.659 3.812-.834a2.77 2.77 0 0 1 .832 3.821l-.118.184c-.822 1.285-2.53 1.659-3.812.834s-1.654-2.536-.832-3.821l.118-.184z"/><path id="AX" d="M866.533 35.884c-.822-1.285-2.53-1.659-3.812-.834a2.77 2.77 0 0 0-.833 3.821l.118.184c.822 1.285 2.53 1.659 3.812.834a2.77 2.77 0 0 0 .833-3.821l-.118-.184z"/><path id="AY" d="M816.327 54.882c.822-1.285 2.53-1.658 3.812-.834a2.77 2.77 0 0 1 .832 3.821l-3.289 5.139c-.822 1.285-2.53 1.658-3.812.834a2.77 2.77 0 0 1-.832-3.82l3.289-5.139z"/><path id="AZ" d="M863.363 8.458c-.822-1.285-2.53-1.659-3.812-.834a2.77 2.77 0 0 0-.833 3.821l.118.184c.822 1.285 2.53 1.659 3.812.834s1.654-2.536.833-3.821l-.118-.184z"/><path id="Aa" d="M829.677 19.968c.249-1.506 1.671-2.525 3.173-2.276a2.77 2.77 0 0 1 2.271 3.18l-.036.216c-.249 1.506-1.671 2.525-3.173 2.276s-2.52-1.675-2.271-3.18l.036-.216z"/><path id="Ab" d="M853.148 19.94c-.249-1.506-1.671-2.525-3.173-2.276a2.77 2.77 0 0 0-2.271 3.18l.036.216c.249 1.506 1.671 2.525 3.173 2.276s2.52-1.675 2.271-3.18l-.036-.216z"/><path id="Ac" d="M875.861 51.167l-5.587-8.752-3.23-5.095c-.037-.433-.142-.862-.392-1.253l-.118-.184c-.246-.385-.584-.657-.954-.871l-.145-.229c.317-.617.589-1.248.817-1.893.868.511 1.974.554 2.878-.028a2.77 2.77 0 0 0 .832-3.821l-.118-.184c-.669-1.045-1.917-1.446-3.052-1.13l-7.238-11.234c0-.345-.057-.695-.194-1.033l-.082-.202c-.033-.08-.099-.133-.138-.209.565-.703 1.036-1.445 1.425-2.216.691.153 1.44.041 2.083-.372a2.77 2.77 0 0 0 .833-3.821l-.118-.184c-.507-.793-1.356-1.188-2.229-1.219l-15.219-22.904c-.949-1.429-2.548-2.287-4.261-2.287s-3.311.858-4.26 2.287l-15.23 22.921c-1.032-.142-2.101.294-2.7 1.23l-.118.184a2.77 2.77 0 0 0 .833 3.821c.776.499 1.691.512 2.489.196a12.1 12.1 0 0 0 1.027 1.757l-8.497 13.189c-.99-.088-1.996.331-2.57 1.227l-.118.184a2.77 2.77 0 0 0 .833 3.821c.749.482 1.628.511 2.406.232.257.695.559 1.374.919 2.035-.28.199-.532.447-.729.754l-.118.184c-.469.733-.51 1.591-.255 2.358l-3.806 6.001-4.412 6.893a2.77 2.77 0 0 0 .833 3.82c1.281.824 2.99.451 3.812-.834l.294-.459a20.45 20.45 0 0 0 2.299 3.759l-1.545 2.414a2.77 2.77 0 0 0 .832 3.82c1.282.824 2.99.451 3.812-.834l.872-1.362a29.04 29.04 0 0 0 2.841 2.056l-.446 1.449a2.77 2.77 0 0 0 1.823 3.457 2.76 2.76 0 0 0 3.45-1.827l.154-.499c1.344.56 2.755 1.038 4.214 1.448l-.104.965c-.163 1.517.934 2.882 2.448 3.045s2.875-.936 3.038-2.453l.046-.432c1.83.247 3.708.395 5.635.395 2.158 0 4.264-.163 6.299-.472.533.909 1.559 1.474 2.671 1.354 1.329-.144 2.335-1.213 2.451-2.499a37.34 37.34 0 0 0 2.363-.78c.674.934 1.881 1.39 3.041 1.031 1.39-.43 2.185-1.863 1.862-3.262 1.855-1.029 3.558-2.195 5.057-3.499l.079.116a2.76 2.76 0 0 0 3.834.725 2.77 2.77 0 0 0 .723-3.843l-.81-1.189a20.09 20.09 0 0 0 1.797-3.083l.194.305c.821 1.285 2.527 1.66 3.809.836s1.656-2.537.835-3.823z"/><path id="Ad" d="M811.289 55.467a3.12 3.12 0 0 0-3.114-3.121 3.12 3.12 0 0 0-3.114 3.121v3.121a3.12 3.12 0 0 0 3.114 3.121 3.12 3.12 0 0 0 3.114-3.121v-3.121z"/><path id="Ae" d="M823.701 46.461c-.507-1.646-2.251-2.57-3.893-2.062s-2.564 2.256-2.057 3.902l.072.236c.507 1.646 2.251 2.57 3.893 2.062s2.564-2.256 2.057-3.902l-.073-.236z"/><path id="Af" d="M837.033 36.537a3.11 3.11 0 0 0-4.302-.942 3.13 3.13 0 0 0-.94 4.312l.133.208a3.11 3.11 0 0 0 4.302.942 3.13 3.13 0 0 0 .94-4.312l-.133-.208z"/><path id="Ag" d="M677.066 86.224h7.27v30.519h-7.27z"/><path id="Ah" d="M677.066 86.224h7.27v6.949h-7.27z"/><path id="Ai" d="M662.549 83.085h131.403v7.286H662.549z"/><path id="Aj" d="M680.8 75.687h21.9v3.709h-21.9z"/><path id="Ak" d="M680.343-30.808h6.844v43.443h-6.844z"/><path id="Al" d="M83.844 151.944c-.293 2.131-2.257 3.621-4.388 3.328s-3.621-2.257-3.328-4.388 4.899-7.05 4.899-7.05 3.109 5.979 2.817 8.11z"/><path id="Am" d="M149.631,118.725c7.044,0,13.343,3.178,17.549,8.176,3.357-3.989,5.383-9.135,5.383-14.756,0-12.665-10.267-22.932-22.932-22.932s-22.932,10.267-22.932,22.932c0,5.621,2.026,10.768,5.383,14.756,4.207-4.998,10.506-8.176,17.549-8.176Z"/><path id="An" d="M167.18,126.901c-3.434-4.08-8.263-6.945-13.753-7.861v15.722c5.49-.916,10.319-3.781,13.753-7.861Z"/><path id="Ao" d="M132.082 126.901c3.434 4.08 8.263 6.945 13.753 7.861V119.04c-5.49.916-10.319 3.781-13.753 7.861z"/><path id="Ap" d="M149.631 118.725a23.06 23.06 0 0 0-3.796.315v31.192h7.592V119.04a23.06 23.06 0 0 0-3.796-.315z"/><path id="Aq" d="M293.038 125.517h-58.333v-4.666h58.333z"/><path id="Ar" d="M280.442 106.137v-.148l1.674-1.674a1.34 1.34 0 0 1 .949-.393h.126a.39.39 0 0 1 .276.666l-1.156 1.155a1.34 1.34 0 0 1-.949.393h-.92z"/><path id="As" d="M280.885 108.351v-.148l-1.674-1.674a1.34 1.34 0 0 0-.949-.393h-.126a.39.39 0 0 0-.276.666l1.156 1.155a1.34 1.34 0 0 0 .949.393h.92z"/><path id="At" d="M280.354 103.701h.591v11.447h-.591z"/><path id="Au" d="M285.521 104.55h.591v11.152h-.591z"/><path id="Av" d="M282.583 106.358h.591v9.301h-.591z"/><path id="Aw" d="M281.83 102.815c0-.062-.014-.122-.024-.182.053.022.111.035.172.035.245 0 .443-.198.443-.443s-.198-.443-.443-.443-.443.199-.443.443c0-.244-.198-.443-.443-.443s-.443.199-.443.443c0-.244-.198-.443-.443-.443s-.443.199-.443.443c0-.244-.198-.443-.443-.443s-.443.199-.443.443.198.443.443.443c.061 0 .119-.013.172-.035-.01.06-.024.12-.024.182a1.18 1.18 0 1 0 2.362 0z"/><path id="Ax" d="M287.145 102.667c-.245 0-.443.198-.443.443 0-.244-.198-.443-.443-.443s-.443.198-.443.443c0-.244-.198-.443-.443-.443s-.443.198-.443.443c0-.244-.198-.443-.443-.443s-.443.198-.443.443.198.443.443.443c.061 0 .119-.013.172-.035-.009.06-.024.12-.024.182a1.18 1.18 0 1 0 2.362 0c0-.062-.014-.122-.024-.182.053.022.111.035.172.035.245 0 .443-.199.443-.443s-.198-.443-.443-.443z"/><path id="Ay" d="M284.207 104.439c-.245 0-.443.198-.443.443 0-.244-.198-.443-.443-.443s-.443.198-.443.443c0-.244-.198-.443-.443-.443s-.443.198-.443.443c0-.244-.198-.443-.443-.443s-.443.198-.443.443.198.443.443.443c.061 0 .119-.013.172-.035-.009.06-.024.12-.024.182a1.18 1.18 0 1 0 2.362 0c0-.062-.014-.121-.024-.182.053.022.111.035.172.035.245 0 .443-.199.443-.443s-.198-.443-.443-.443z"/><path id="Az" d="M272.748 102.815c0-.062-.014-.122-.024-.182.053.022.111.035.172.035.245 0 .443-.198.443-.443s-.198-.443-.443-.443-.443.199-.443.443c0-.244-.198-.443-.443-.443s-.443.199-.443.443c0-.244-.198-.443-.443-.443s-.443.199-.443.443c0-.244-.198-.443-.443-.443s-.443.199-.443.443.198.443.443.443c.061 0 .119-.013.172-.035-.009.06-.024.12-.024.182a1.18 1.18 0 1 0 2.362 0z"/><path id="BA" d="M289.368 114.571l-1.758 6.279h-45.019l-1.759-6.279h48.536z"/><path id="BB" d="M268.648 136.303a.63.63 0 0 1 .184-.444c.118-.118.277-.184.444-.184h0c.302 0 .547.245.547.547v.04l.88 1.762h-.511a1.54 1.54 0 0 1-1.543-1.544v-.178z"/><path id="BC" d="M233.764,111.863c.068,0,.123.055.123.123s-.055.123-.123.123-.123-.055-.123-.123.055-.123.123-.123Z"/><path id="BD" d="M243.27 139.436h8.022v2.155h-8.022z"/><path id="BE" d="M225.29 50.675h56.526c1.309 0 2.122-1.422 1.458-2.55l-7.266-12.182a1.69 1.69 0 0 0-1.458-.834h-56.526c-1.309 0-2.122 1.422-1.458 2.55l7.266 12.182a1.69 1.69 0 0 0 1.458.834z"/><path id="BF" d="M108.279 86.208l20.453-36.363"/><path id="BG" d="M184.919 50.675h-56.526c-1.309 0-2.122-1.422-1.458-2.55l7.266-12.182a1.69 1.69 0 0 1 1.458-.834h56.526c1.309 0 2.122 1.422 1.458 2.55l-7.266 12.182a1.69 1.69 0 0 1-1.458.834z"/><path id="BH" d="M816.601 122.659l-3.119 11.137h-13.623l-3.119-11.137h19.861z"/><path id="BI" d="M92.237 38.384a9.16 9.16 0 0 1-5.112-4.121l-.908-1.563c-.821-1.414-2.137-2.475-3.693-2.977a6.62 6.62 0 0 0-8.333 4.269l-3.03 9.393 28.565 9.213 3.447-10.687-10.936-3.527z"/></defs><g clip-path="url(#A)"><path d="M-20.02-4094.135h1540.04V1180.02H-20.02z" fill="#00b365"/><path d="M1281.853-72.5c-30.509 0-55.242-24.733-55.242-55.242h0c0-30.509-24.733-55.242-55.242-55.242H870.748c-30.509 0-55.242-24.733-55.242-55.242h0c0-78.024-63.251-141.275-141.275-141.275H503.047c-79.431 0-143.822-64.391-143.822-143.822v-91.837c0-79.431-64.391-143.822-143.822-143.822H-20.02V740.873h558.114a472.11 472.11 0 0 0 331.059-135.529h0a472.11 472.11 0 0 1 331.059-135.529h319.809V-72.5h-238.167z" class="i"/><g opacity=".331" fill="#00703a"><path d="M952.97 83.967c1.232 0 2.231-1 2.231-2.236V74.73c0-1.236-.999-2.236-2.231-2.236s-2.231 1-2.231 2.236v7.001c0 1.236.999 2.236 2.231 2.236zm-9.314 0c1.232 0 2.231-1 2.231-2.236v-4.667c0-1.236-.999-2.236-2.231-2.236s-2.231 1-2.231 2.236v4.667c0 1.236.999 2.236 2.231 2.236zm17.852 0c1.232 0 2.231-1 2.231-2.236v-4.667c0-1.236-.999-2.236-2.231-2.236s-2.231 1-2.231 2.236v4.667c0 1.236.999 2.236 2.231 2.236z"/><use href="#k"/><use href="#l"/><path d="M936.377 102.446c1.232 0 2.231-1 2.231-2.236v-4.669c0-1.236-.999-2.236-2.231-2.236s-2.231 1-2.231 2.236v4.669c0 1.236.999 2.236 2.231 2.236zM919.206 63.74c1.232 0 2.231-1 2.231-2.236v-7.001c0-1.236-.999-2.236-2.231-2.236s-2.231 1-2.231 2.236v7.001c0 1.236.999 2.236 2.231 2.236zm-9.315 0c1.232 0 2.231-1 2.231-2.236v-4.669c0-1.236-.999-2.236-2.231-2.236s-2.231 1-2.231 2.236v4.669c0 1.236.999 2.236 2.231 2.236zm17.852 0c1.232 0 2.231-1 2.231-2.236v-4.669c0-1.236-.999-2.236-2.231-2.236s-2.231 1-2.231 2.236v4.669c0 1.236.999 2.236 2.231 2.236z"/></g><rect x="494.009" y="42.107" width="32.3" height="5.125" rx="2.563" class="O"/><g class="B"><path d="M515.355 15.181h-9.053v24.956a4.53 4.53 0 0 0 4.522 4.533h.008c2.498 0 4.522-2.029 4.522-4.533V15.181z" class="X"/><g class="D"><path d="M533.418 13.793a2.26 2.26 0 0 0-3.125-.686c-1.051.676-1.358 2.081-.685 3.135l4.844 7.587a2.26 2.26 0 0 0 3.125.686c1.051-.676 1.358-2.081.685-3.136l-4.844-7.586z"/><path d="M516.584-12.76c-1.388-2.189-3.795-3.514-6.383-3.514a7.56 7.56 0 0 0-6.383 3.514l-19.141 30.187c0 10.368 11.437 18.785 25.524 18.785s25.524-8.417 25.524-18.785L516.584-12.76z"/></g></g><g clip-path="url(#B)" class="B L"><path d="M515.455-29.652a7.56 7.56 0 0 0-11.645-.002c-7.531 9.117-19.7 25.132-19.7 33.471 0 10.368 11.437 18.785 25.524 18.785s25.523-8.417 25.523-18.785c0-8.339-12.169-24.354-19.702-33.469z"/></g><g class="B"><g class="D"><path d="M501.455 31.884c.134-1.245 1.251-2.146 2.492-2.013a2.27 2.27 0 0 1 2.008 2.498l-.416 3.873c-.134 1.245-1.25 2.146-2.492 2.013a2.27 2.27 0 0 1-2.008-2.498l.416-3.873zM486.1 15.189a2.26 2.26 0 0 1 3.127-.685c1.051.676 1.357 2.08.683 3.134l-4.043 6.316a2.26 2.26 0 0 1-3.127.684c-1.051-.676-1.357-2.08-.683-3.134l4.043-6.316z"/></g><g class="L"><path d="M511.897 22.602c0-1.252-1.014-2.268-2.263-2.268s-2.263 1.016-2.263 2.268v2.268c0 1.252 1.014 2.268 2.263 2.268s2.263-1.016 2.263-2.268v-2.268zm7.828 4.266c-.154-1.243-1.285-2.126-2.524-1.972a2.27 2.27 0 0 0-1.968 2.53l.278 2.251c.154 1.243 1.285 2.126 2.524 1.972a2.27 2.27 0 0 0 1.968-2.53l-.278-2.251zm-20.023 0c.154-1.243 1.285-2.126 2.525-1.972a2.27 2.27 0 0 1 1.968 2.53l-.278 2.251c-.154 1.243-1.285 2.126-2.524 1.972a2.27 2.27 0 0 1-1.968-2.53l.278-2.251zm25.944-9.008c-.375-1.194-1.647-1.858-2.839-1.482a2.27 2.27 0 0 0-1.478 2.845l.953 3.031c.376 1.194 1.647 1.858 2.839 1.482a2.27 2.27 0 0 0 1.478-2.845l-.953-3.031zm-30.556 1.029c.376-1.194 1.647-1.858 2.839-1.482a2.27 2.27 0 0 1 1.478 2.845l-.953 3.031c-.376 1.194-1.647 1.858-2.839 1.482a2.27 2.27 0 0 1-1.478-2.845l.953-3.031zm36.145-5.301c-.624-1.084-2.01-1.456-3.092-.83s-1.453 2.014-.828 3.099l2.047 3.554c.625 1.084 2.01 1.456 3.092.83s1.453-2.015.828-3.099l-2.048-3.554zm-41.712-.121c.624-1.084 2.01-1.456 3.092-.83s1.453 2.014.829 3.099l-2.048 3.554c-.625 1.084-2.01 1.456-3.092.83s-1.453-2.015-.828-3.099l2.048-3.554z"/></g><path d="M515.987-20.875a7.56 7.56 0 0 0-12.706 0L488.196 2.537c0 8.57 9.606 15.528 21.438 15.528s21.438-6.958 21.438-15.528l-15.085-23.412z" class="F"/></g><g clip-path="url(#C)" class="B D"><path d="M515.45-39.895c-1.437-1.733-3.568-2.735-5.816-2.735s-4.379,1.002-5.816,2.735c-6.348,7.667-15.622,19.989-15.622,26.554,0,8.57,9.606,15.528,21.438,15.528s21.438-6.958,21.438-15.528c0-6.565-9.273-18.887-15.622-26.554Z"/><path d="M498.078.374c.624-1.084.253-2.473-.829-3.099s-2.467-.254-3.092.83l-2.263 3.929c-.624 1.084-.253 2.473.828 3.099s2.467.254 3.092-.83l2.263-3.929zm5.368 8.288a2.27 2.27 0 0 0-1.398-2.886c-1.18-.41-2.47.218-2.879 1.402l-.74 2.143a2.27 2.27 0 0 0 1.398 2.886c1.18.409 2.47-.218 2.879-1.402l.74-2.144zm9.646-1.939c0-1.252-1.014-2.268-2.263-2.268s-2.263 1.016-2.263 2.268v2.268c0 1.252 1.014 2.268 2.263 2.268s2.263-1.016 2.263-2.268V6.723zm8.899.375a2.26 2.26 0 0 0-2.929-1.292c-1.164.454-1.742 1.769-1.29 2.936l.82 2.114c.452 1.167 1.765 1.746 2.93 1.292a2.27 2.27 0 0 0 1.29-2.936l-.82-2.114zm3.549-9.752c-.625-1.084-2.01-1.456-3.092-.83s-1.453 2.014-.828 3.099l1.96 3.403c.624 1.084 2.01 1.456 3.092.83s1.453-2.014.828-3.099l-1.96-3.403z"/></g><g class="B"><path d="M486.388 3.079a2.26 2.26 0 0 1 3.127-.684c1.051.676 1.357 2.08.683 3.134l-.097.151a2.26 2.26 0 0 1-3.127.685c-1.051-.676-1.357-2.08-.683-3.134l.097-.151z" class="Y"/><g class="F"><path d="M533.327 3.079a2.26 2.26 0 0 0-3.127-.684c-1.051.676-1.357 2.08-.683 3.134l.097.151a2.26 2.26 0 0 0 3.127.685c1.051-.676 1.357-2.08.683-3.134l-.097-.151zm-39.568 9.957a2.26 2.26 0 0 1 3.127-.685c1.051.676 1.357 2.08.683 3.134l-.097.151a2.26 2.26 0 0 1-3.127.684c-1.051-.676-1.357-2.08-.683-3.134l.097-.151zm32.197 0a2.26 2.26 0 0 0-3.127-.685c-1.051.676-1.357 2.08-.683 3.134l.097.151a2.26 2.26 0 0 0 3.127.684c1.051-.676 1.357-2.08.683-3.134l-.097-.151z"/></g><path d="M531.699 24.466a2.26 2.26 0 0 0-3.145-.594c-1.031.706-1.297 2.118-.593 3.152l1.783 2.618a2.26 2.26 0 0 0 3.145.594c1.032-.706 1.297-2.118.593-3.152l-1.783-2.618z" class="D"/><g class="F"><path d="M498.795 16.056c.368-1.196 1.636-1.868 2.83-1.499a2.27 2.27 0 0 1 1.495 2.836l-.053.172c-.368 1.196-1.636 1.868-2.83 1.499a2.27 2.27 0 0 1-1.495-2.836l.053-.171z"/><use href="#m"/></g><g class="D"><path d="M525.445 32.085c-.368-1.196-1.636-1.868-2.83-1.499a2.27 2.27 0 0 0-1.495 2.836l.053.172c.368 1.196 1.636 1.868 2.83 1.499a2.27 2.27 0 0 0 1.495-2.836l-.053-.171zm-31.328-2.161c.368-1.196 1.636-1.868 2.83-1.499a2.27 2.27 0 0 1 1.495 2.836l-.9 2.925c-.368 1.196-1.636 1.868-2.83 1.499a2.27 2.27 0 0 1-1.496-2.836l.901-2.925z"/></g><g class="F"><path d="M504.693 18.23c.134-1.245 1.25-2.147 2.492-2.013a2.27 2.27 0 0 1 2.008 2.498l-.019.178c-.134 1.245-1.25 2.146-2.492 2.013a2.27 2.27 0 0 1-2.008-2.498l.019-.178z"/><use href="#n"/></g><path d="M519.548 34.26c-.134-1.245-1.25-2.147-2.492-2.013a2.27 2.27 0 0 0-2.008 2.498l.019.178c.134 1.245 1.25 2.146 2.492 2.013a2.27 2.27 0 0 0 2.008-2.498l-.019-.178z" class="D"/><g class="F"><path d="M489.104 8.842a2.26 2.26 0 0 1 3.127-.685c1.051.676 1.357 2.08.683 3.134l-.097.151a2.26 2.26 0 0 1-3.127.685c-1.051-.676-1.357-2.08-.683-3.134l.097-.151zm41.506 0a2.26 2.26 0 0 0-3.127-.685c-1.051.676-1.357 2.08-.683 3.134l.097.151a2.26 2.26 0 0 0 3.127.685c1.051-.676 1.357-2.08.683-3.134l-.097-.151z"/></g><path d="M489.425 24.426a2.26 2.26 0 0 1 3.127-.684c1.051.676 1.357 2.08.683 3.134l-2.698 4.216a2.26 2.26 0 0 1-3.127.684c-1.051-.676-1.357-2.08-.683-3.134l2.698-4.216z" class="D"/></g><rect x="530.152" y="96.629" width="38.315" height="4.221" rx="2.108" class="O"/><rect x="578.547" y="96.629" width="38.315" height="4.221" rx="2.108" class="O"/><path d="M540.463 87.755a1.62 1.62 0 0 1-1.615-1.618V47.482c0-.894.723-1.618 1.615-1.618s1.615.725 1.615 1.618v38.655c0 .894-.723 1.618-1.615 1.618z" fill="#754c24"/><g class="Z"><path d="M536.643 57.728l-3.618 35.864"/><path d="M533.026 95.211a1.53 1.53 0 0 1-.164-.009c-.887-.089-1.533-.883-1.443-1.772l3.619-35.864c.089-.889.867-1.527 1.768-1.447.887.09 1.533.884 1.443 1.773l-3.619 35.864c-.083.833-.785 1.456-1.604 1.456zm11.356-37.491l3.619 35.865"/><path d="M547.999 95.203c-.819 0-1.521-.622-1.604-1.456l-3.619-35.864c-.09-.889.556-1.683 1.443-1.773.902-.087 1.679.558 1.768 1.447l3.619 35.864c.09.889-.556 1.683-1.443 1.772a1.53 1.53 0 0 1-.164.009z"/></g><path d="M547.901 85.317h-14.877a2.02 2.02 0 0 1 0-4.044h14.877a2.02 2.02 0 0 1 0 4.044z" fill="#a57c52"/><g class="Z"><path d="M544.858 64.509h-8.777a1.62 1.62 0 0 1-1.615-1.618c0-.893.723-1.618 1.615-1.618h8.777a1.62 1.62 0 0 1 1.615 1.618c0 .893-.723 1.618-1.615 1.618zm-2.423-12.405H538.4a1.62 1.62 0 0 1-1.615-1.618c0-.893.723-1.618 1.615-1.618h4.035a1.62 1.62 0 0 1 1.615 1.618c0 .893-.723 1.618-1.615 1.618z"/></g><path d="M529.454 52.271h21.775V81.18h-21.775z" class="a"/><g class="B"><path d="M559.665 64.816l-3.602 2.084 4.374 7.593c.574.997 1.846 1.339 2.841.763h0c.995-.576 1.335-1.85.761-2.847l-4.374-7.593z" class="M"/><path d="M559.665 64.816l-3.602 2.085 2.345 4.071 3.602-2.084-2.345-4.072z" fill="#ebf0b0"/><path d="M546.46 64.812l3.602 2.084-4.374 7.593c-.574.997-1.846 1.339-2.841.763h0c-.995-.576-1.335-1.85-.761-2.847l4.374-7.593z" class="M"/><path d="M546.46 64.812l3.602 2.085-2.345 4.071-3.602-2.084 2.345-4.072z" fill="#ebf0b0"/><path d="M541.51 79.121a3.4 3.4 0 0 0-3.394 3.401l2.565 15.877h6.411l-2.565-14.376c0-.578.468-1.047 1.044-1.047h.238c.965 0 1.749.786 1.749 1.753v13.669h5.129V84.817c0-3.145-2.547-5.698-5.685-5.698h-5.494z" class="M"/><path d="M541.51 79.121a3.4 3.4 0 0 0-3.394 3.401l1.817 11.246h6.334l-1.739-9.745c0-.578.468-1.047 1.044-1.047h.238c.965 0 1.749.786 1.749 1.753v13.669h5.129V84.817c0-3.145-2.547-5.698-5.685-5.698h-5.494z" fill="#c7b0f0"/><path d="M546.823 96.578l-8.709-.032-.418 1.853h9.474l-.347-1.821z" fill="#fcf2e2"/><g class="j"><path d="M554.67 61.377a1.49 1.49 0 0 1 1.049 1.821c-.212.793-1.026 1.264-1.817 1.051a1.49 1.49 0 0 1-1.049-1.821c.212-.793 1.026-1.263 1.817-1.051z"/></g></g><circle cx="554.451" cy="65.199" r="1.483" class="j"/><path d="M552.967 62.642h2.967v2.616h-2.967z" class="M"/><g clip-path="url(#D)"><path d="M552.051 60.118h5.005v4.131h-5.005z" fill="#008cc9"/></g><path d="M546.477 64.817h13.171v18.16h-13.171z" fill="#c7b0f0"/><g class="B"><path d="M544.519,54.33c-.015-1.621,1.286-2.949,2.903-2.963l11.786-.108c1.617-.015,2.942,1.289,2.956,2.909l.054,5.873c.015,1.621-1.286,2.948-2.903,2.963l-11.786.108c-1.617.015-2.942-1.289-2.956-2.909l-.053-5.873Z" class="M"/><path d="M550.393 57.758l1.907.109 3.98-4.852-5.928.155.041 4.588z" class="b"/><path d="M541.882 84.477a2.27 2.27 0 0 1 2.267-2.272h6.709v16.194h-8.976V84.477z" fill="#9b3b73"/><path d="M549.576 82.205h13.121a2.27 2.27 0 0 1 2.267 2.272v13.922h-15.387V82.205z" fill="#7c2e5c"/></g><g class="b"><path d="M558.847,56.658h1.003c.139,0,.251.113.251.251v2.6c0,.139-.113.252-.252.252h-1.003c-.139,0-.251-.113-.251-.251v-2.6c0-.139.113-.252.252-.252Z"/><g class="B"><path d="M562.162 53.894h0a4.49 4.49 0 0 0-4.526-4.454l-9.088.083a4.09 4.09 0 0 0-4.045 4.125l.114 13.707A4.64 4.64 0 0 0 546 70.621a4.61 4.61 0 0 0 3.282 1.327l4.025-.039-.163-17.933 9.018-.082z"/></g></g><path d="M552.947 57.567a2 2 0 1 1 0 4.002 2 2 0 1 1 0-4.002z" class="B M"/><path d="M589.499,87.077c-.887,0-1.606-.72-1.606-1.609v-38.456c0-.889.719-1.61,1.606-1.61s1.606.721,1.606,1.61v38.456c0,.889-.719,1.609-1.606,1.609Z" fill="#754c24"/><g class="Z"><path d="M585.699 57.205l-3.6 35.68"/><path d="M582.101 94.493c-.054 0-.108-.002-.164-.008a1.61 1.61 0 0 1-1.436-1.764l3.601-35.679c.09-.883.876-1.514 1.76-1.439a1.61 1.61 0 0 1 1.436 1.764l-3.601 35.679a1.61 1.61 0 0 1-1.597 1.447zm11.297-37.296l3.6 35.681"/><path d="M596.996 94.487a1.61 1.61 0 0 1-1.597-1.448l-3.599-35.68a1.61 1.61 0 0 1 1.437-1.763c.875-.081 1.67.555 1.759 1.44l3.599 35.68a1.61 1.61 0 0 1-1.437 1.763c-.054.006-.108.008-.162.008z"/></g><path d="M596.898 84.653h-14.799a2.01 2.01 0 1 1 0-4.026h14.799a2.01 2.01 0 1 1 0 4.026z" fill="#a57c52"/><g class="Z"><path d="M593.872 63.951h-8.732c-.887 0-1.606-.72-1.606-1.609s.719-1.609 1.606-1.609h8.732c.887 0 1.606.72 1.606 1.609s-.719 1.609-1.606 1.609zm-2.41-12.341h-4.015a1.61 1.61 0 0 1 0-3.22h4.015a1.61 1.61 0 0 1 0 3.22z"/></g><path d="M578.547 51.777h21.663v28.76h-21.663z" fill="#f1f1f1"/><g class="B"><path d="M608.785 64.519l-3.584 2.074 4.352 7.554a2.07 2.07 0 0 0 1.256.966c.53.142 1.095.068 1.569-.207s.822-.728.964-1.259.068-1.097-.207-1.573l-4.352-7.554z" class="P"/><path d="M608.785 64.519l-3.583 2.073 2.333 4.051 3.583-2.074-2.333-4.05z" class="a"/><path d="M595.648 64.515l3.584 2.074-4.351 7.554c-.571.992-1.837 1.332-2.826.759h0c-.99-.573-1.329-1.841-.757-2.833l4.351-7.554z" class="P"/><path d="M595.648 64.515l3.584 2.073-2.333 4.051-3.584-2.074 2.333-4.05z" class="a"/><path d="M590.723 78.804a3.38 3.38 0 0 0-3.376 3.374l2.551 15.75h6.379l-2.551-14.261a1.04 1.04 0 0 1 1.039-1.038h.237a1.74 1.74 0 0 1 1.74 1.739v13.56h5.103V84.456c0-3.12-2.534-5.652-5.656-5.652h-5.466z" class="P"/><path d="M596.01 96.117l-8.665-.032-.416 1.843h9.425l-.344-1.811z" fill="#fcf2e2"/></g><ellipse cx="602.099" cy="64.899" rx="2.821" ry="1.479" class="j"/><g clip-path="url(#E)"><path d="M597.535 61.047h9.52v4.11h-9.52z" fill="#784379"/></g><path d="M595.665 64.519h13.104v18.067h-13.104z" class="a"/><path d="M592.124 78.804h16.644v3.226h-16.644z" fill="#ff9b0d"/><g class="B"><path d="M610.11 53.965a2.92 2.92 0 0 0-2.908-2.928l-10.966-.026a2.92 2.92 0 0 0-2.921 2.915l-.013 5.843a2.92 2.92 0 0 0 2.908 2.928l10.967.026a2.92 2.92 0 0 0 2.921-2.915l.013-5.843z" class="P"/><path d="M593.316 53.807h0c-.012-2.403 1.911-4.367 4.309-4.398l9.128-.118a4.06 4.06 0 0 1 2.903 1.171 4.07 4.07 0 0 1 1.21 2.892l.016 10.14-9.304.053.013-6.379a3.38 3.38 0 0 0-.991-2.399 3.36 3.36 0 0 0-2.396-.986l-4.889.023z" class="b"/><path d="M602.484 57.306a1.99 1.99 0 0 0 0 3.982 1.99 1.99 0 0 0 0-3.982z" class="P"/><path d="M591.093 84.078a2.26 2.26 0 0 1 2.255-2.26h6.675v16.11h-8.93v-13.85z" fill="#9b3b73"/><path d="M598.748,81.818h13.053c1.246,0,2.255,1.012,2.255,2.26v13.85h-15.308v-16.11Z" fill="#7c2e5c"/></g><path d="M595.617 56.403h.998a.25.25 0 0 1 .25.25v2.587c0 .138-.112.251-.251.251h-.998a.25.25 0 0 1-.25-.25v-2.587a.25.25 0 0 1 .25-.25z" class="b"/><path d="M1524.616 112.476l-42.462-39.558a30.49 30.49 0 0 0-20.776-8.164h-6.88c-7.345 0-14.439 2.644-19.981 7.464l-46.319 40.258h136.419z" fill="#a59c83" class="B"/><g clip-path="url(#F)" class="B"><path d="M1496.068 48.425h-79.305v25.212c0 3.965 1.57 7.776 4.361 10.594 2.81 2.799 6.609 4.374 10.562 4.374h15.698c5.62 0 11.124-1.458 15.989-4.257l4.186-2.391c4.864-2.78 10.368-4.257 15.969-4.257h12.539V48.425z" fill="#b7ae97"/></g><g class="B"><path d="M1385.445 112.563h-21.861l-5.737-6.15c-1.299-1.411-1.667-3.47-.892-5.241s2.5-2.916 4.438-2.916h0c.795 0 1.551.315 2.112.875l4.826 4.848 11.415-11.446 5.698 20.03" class="k"/><path d="M1376.898 96.351c0-5.525 2.054-10.857 5.756-14.939l13.256-14.638-.252-21.694c-.019-1.069.388-2.099 1.143-2.858s1.764-1.186 2.829-1.186h8.663a9.49 9.49 0 0 1 6.531 2.585l31.338 29.547c2.19 2.061 2.907 5.248 1.802 8.048s-3.799 4.646-6.803 4.646h-11.028v18.234c0 2.245-.891 4.399-2.461 5.987-1.589 1.586-3.74 2.478-5.969 2.478h-44.807V96.349z" class="l"/></g><g clip-path="url(#G)" class="C Q c z"><path d="M1418.663 114.47h-21.861l-6.202-7.552a5.31 5.31 0 0 1-.698-5.626c.872-1.854 2.713-3.036 4.768-3.036h0a2.79 2.79 0 0 1 1.996.832l4.884 4.891 11.415-11.446" stroke="#6c4c46"/></g><g class="B"><path d="M1419.69 70.468a4.64 4.64 0 0 1 4.632-4.646 4.64 4.64 0 0 1 4.632 4.646v6.298a4.64 4.64 0 0 1-4.632 4.646 4.64 4.64 0 0 1-4.632-4.646v-6.298z" class="k"/><path d="M1402.713 83.045c-3.159-5.482-1.279-12.519 4.186-15.687s12.481-1.283 15.64 4.218l4.709 8.184c3.159 5.501 1.299 12.523-4.186 15.691-5.465 3.167-12.461 1.285-15.62-4.203l-4.729-8.203z" fill="#f49500"/></g><g stroke="#ffb311" class="C Q c z"><path d="M1417.539 66.717l-16.473 9.525m27.888 10.283l-16.473 9.546m10.562-23.737l-19.865 11.508m23.683-4.898l-19.884 11.507"/></g><path d="M1438.857 85.864h-21.958c-2.132 0-3.876-1.75-3.876-3.888v-.019c0-1.127.582-2.197 1.551-2.799l19.38-12.266" class="B l"/><path d="M1402.573 42.936h2.853v4.769h-2.853z" fill="#030202"/><g class="B"><path d="M1395.794 56.297h9.632a5.72 5.72 0 0 1-5.717 5.715h-3.915v-5.715z" class="k"/><g class="l"><path d="M1410.465 44.867s4.477-3.888 5.291-6.959c.485-1.788-.562-3.616-2.345-4.102-1.763-.467-3.605.583-4.07 2.371-.833 3.071 1.124 8.689 1.124 8.689zm-10.717 0s1.938-5.618 1.124-8.689a3.34 3.34 0 0 0-4.07-2.371c-1.783.486-2.829 2.313-2.364 4.102.833 3.071 5.31 6.959 5.31 6.959z"/></g><path d="M1385.445 48.658h19.981v7.639h-12.365c-4.205 0-7.616-3.421-7.616-7.639h0z" fill="#ceb6ad"/></g><g clip-path="url(#H)"><path d="M1384.49 48.666h3.804v4.988h-3.804z" fill="#030202"/></g><path d="M1532.157 112.563h-172.961" stroke="#77d629" stroke-width="10" class="Q c i AA"/><path d="M1143.506,79.863c16.208,0,29.367,13.159,29.367,29.367s-13.159,29.367-29.367,29.367-29.367-13.159-29.367-29.367,13.159-29.367,29.367-29.367Z" fill="#ff4b00" class="B"/><path d="M1138.255 104.877h10.504v89.657h-10.504z" fill="#393f6b"/><path d="M1123.08,130.321c-5.512-5.34-8.941-12.818-8.941-21.091,0-16.208,13.159-29.367,29.367-29.367s29.367,13.159,29.367,29.367c0,8.273-3.428,15.752-8.94,21.091-2.736-8.676-10.852-14.973-20.426-14.973s-17.69,6.297-20.426,14.973Z" fill="#ff8c00" class="B"/><rect x="941.246" y="18.426" width="37.107" height="5.888" rx="2.944" class="O"/><path d="M954.87-42.633h9.859v64.542h-9.859z" fill="#393f6b"/><g class="B"><use href="#o" class="X"/><g class="D"><use href="#p"/><path d="M849.434 9.551c-1.692-2.668-4.627-4.284-7.781-4.284s-6.089 1.616-7.781 4.284L810.539 46.35c0 12.639 13.942 22.9 31.114 22.9s31.114-10.261 31.114-22.9L849.434 9.551z"/></g></g><g clip-path="url(#I)" class="B L"><use href="#q"/></g><g class="B"><g class="D"><use href="#r"/><use href="#s"/></g><g class="L"><use href="#t"/><use href="#u"/><use href="#v"/><use href="#w"/><use href="#x"/><use href="#y"/><use href="#z"/></g><path d="M848.707-.341c-1.698-2.636-4.614-4.228-7.745-4.228s-6.047 1.592-7.745 4.228l-18.388 28.54c0 10.447 11.71 18.928 26.133 18.928s26.133-8.482 26.133-18.928L848.707-.341z" class="F"/></g><g clip-path="url(#J)" class="B D"><path d="M848.052-23.527c-1.752-2.112-4.35-3.334-7.09-3.334s-5.338,1.222-7.09,3.334c-7.739,9.346-19.043,24.367-19.043,32.37,0,10.447,11.71,18.928,26.133,18.928s26.133-8.482,26.133-18.928c0-8.003-11.304-23.024-19.043-32.37Z"/><use href="#AA"/><use href="#AB"/><use href="#AC"/><use href="#AD"/><use href="#AE"/></g><path d="M845.914-15.666c-.949-1.428-2.548-2.287-4.26-2.287s-3.311.858-4.26 2.287L821.576 8.139c0 4.537 3.058 8.577 7.804 11.157 3.395 1.845 7.653 2.944 12.274 2.944 11.081 0 20.078-6.319 20.078-14.101l-15.818-23.805z" class="B F"/><g clip-path="url(#K)" class="B"><use href="#AF" class="I"/><g class="F"><path d="M834.467 1.437a2.77 2.77 0 0 0-1.31-3.683 2.76 2.76 0 0 0-3.675 1.313L828.3 1.566a2.77 2.77 0 0 0 1.31 3.683 2.76 2.76 0 0 0 3.675-1.313l1.182-2.498z"/><use href="#AG"/><use href="#AH"/></g></g><g class="B"><g class="I"><use href="#AI"/><use href="#AJ"/><use href="#AK"/><use href="#AL"/></g><use href="#AM" class="Y"/><g class="F"><use href="#AN"/><use href="#AO"/><use href="#AP"/></g><use href="#AQ" class="D"/><g class="F"><use href="#AR"/><use href="#AS"/></g><g class="D"><path d="M860.237 64.218a2.76 2.76 0 0 0-3.449-1.827 2.77 2.77 0 0 0-1.823 3.457l.064.209a2.76 2.76 0 0 0 3.45 1.827 2.77 2.77 0 0 0 1.823-3.458l-.064-.209z"/><use href="#AT"/></g><g class="F"><use href="#AU"/><use href="#AV"/></g><path d="M853.048 66.869a2.76 2.76 0 0 0-3.038-2.453c-1.514.163-2.611 1.528-2.448 3.045l.023.217a2.76 2.76 0 0 0 3.038 2.453c1.514-.163 2.611-1.528 2.448-3.045l-.023-.217z" class="D"/><g class="F"><use href="#AW"/><use href="#AX"/></g><use href="#AY" class="D"/><g class="I"><use href="#AZ"/><use href="#Aa"/><use href="#Ab"/></g><use href="#Ac" fill="#548e00" opacity=".3"/><path d="M783.398 43.611h-11.036v30.422a5.52 5.52 0 0 0 5.513 5.525h.01a5.52 5.52 0 0 0 5.513-5.525V43.611z" class="X"/><g class="D"><path d="M805.417 41.919c-.821-1.286-2.528-1.66-3.809-.836s-1.656 2.537-.835 3.822l5.904 9.248c.821 1.286 2.528 1.66 3.809.836s1.656-2.537.835-3.823l-5.904-9.248z"/><path d="M784.895 9.551c-1.692-2.668-4.627-4.284-7.781-4.284s-6.089 1.616-7.781 4.284L746 46.35c0 12.639 13.942 22.9 31.114 22.9s31.114-10.261 31.114-22.9L784.895 9.551z"/></g></g><g clip-path="url(#L)" class="B L"><path d="M783.52-11.041c-1.751-2.118-4.353-3.344-7.098-3.345a9.21 9.21 0 0 0-7.098 3.342c-9.18 11.114-24.015 30.637-24.015 40.802 0 12.639 13.942 22.9 31.114 22.9s31.113-10.261 31.113-22.9c0-10.165-14.834-29.688-24.017-40.799z"/></g><g class="B"><g class="D"><path d="M766.453 63.973c.163-1.517 1.525-2.617 3.038-2.453s2.611 1.528 2.448 3.045l-.507 4.721a2.76 2.76 0 0 1-3.038 2.453c-1.514-.163-2.611-1.528-2.448-3.045l.507-4.721zm-18.718-20.352c.822-1.285 2.53-1.659 3.812-.834s1.654 2.536.833 3.821l-4.928 7.699c-.822 1.285-2.53 1.658-3.812.834a2.77 2.77 0 0 1-.833-3.82l4.928-7.699z"/></g><g class="L"><path d="M779.182 52.658c0-1.526-1.237-2.765-2.759-2.765s-2.759 1.239-2.759 2.765v2.765c0 1.526 1.237 2.765 2.759 2.765s2.759-1.239 2.759-2.765v-2.765zm9.543 5.201a2.76 2.76 0 0 0-3.077-2.404c-1.511.188-2.586 1.57-2.399 3.084l.339 2.744a2.76 2.76 0 0 0 3.077 2.404c1.511-.188 2.586-1.57 2.399-3.084l-.339-2.744zm-24.409 0c.188-1.515 1.566-2.592 3.078-2.404s2.586 1.57 2.399 3.084l-.339 2.744a2.76 2.76 0 0 1-3.077 2.404c-1.511-.188-2.586-1.57-2.399-3.084l.339-2.744zm31.627-10.982a2.76 2.76 0 0 0-3.461-1.806 2.77 2.77 0 0 0-1.802 3.469l1.162 3.695a2.76 2.76 0 0 0 3.461 1.806 2.77 2.77 0 0 0 1.802-3.469l-1.162-3.695z"/><path d="M758.694 48.131a2.76 2.76 0 0 1 3.461-1.806 2.77 2.77 0 0 1 1.802 3.469l-1.162 3.695a2.76 2.76 0 0 1-3.461 1.806 2.77 2.77 0 0 1-1.802-3.469l1.162-3.695zm44.062-6.461c-.761-1.322-2.45-1.775-3.769-1.012a2.77 2.77 0 0 0-1.01 3.777l2.496 4.333c.762 1.322 2.45 1.775 3.769 1.012a2.77 2.77 0 0 0 1.01-3.778l-2.496-4.333zm-50.848-.149c.761-1.322 2.45-1.775 3.769-1.012a2.77 2.77 0 0 1 1.01 3.777l-2.496 4.333c-.762 1.322-2.45 1.775-3.769 1.012a2.77 2.77 0 0 1-1.01-3.778l2.496-4.333z"/></g><path d="M784.168-.341c-1.698-2.636-4.614-4.228-7.745-4.228s-6.047 1.592-7.745 4.228l-18.388 28.54c0 10.447 11.71 18.928 26.133 18.928s26.133-8.482 26.133-18.928L784.168-.341z" class="F"/></g><g clip-path="url(#M)" class="B D"><path d="M783.513-23.527c-1.752-2.112-4.35-3.334-7.09-3.334s-5.338 1.222-7.09 3.334C761.594-14.181 750.29.84 750.29 8.843c0 10.447 11.71 18.928 26.133 18.928s26.133-8.482 26.133-18.928c0-8.003-11.304-23.024-19.043-32.37z"/><path d="M762.336 25.561a2.77 2.77 0 0 0-1.01-3.778 2.76 2.76 0 0 0-3.769 1.012l-2.759 4.789a2.77 2.77 0 0 0 1.01 3.778 2.76 2.76 0 0 0 3.769-1.012l2.759-4.789zm6.544 10.104a2.77 2.77 0 0 0-1.705-3.518 2.76 2.76 0 0 0-3.51 1.709l-.903 2.613a2.77 2.77 0 0 0 1.705 3.518 2.76 2.76 0 0 0 3.51-1.709l.903-2.613zm11.759-2.364c0-1.526-1.237-2.765-2.759-2.765s-2.759 1.239-2.759 2.765v2.765c0 1.526 1.236 2.765 2.759 2.765s2.759-1.239 2.759-2.765v-2.765zm10.848.457a2.76 2.76 0 0 0-3.571-1.576 2.77 2.77 0 0 0-1.572 3.579l.999 2.578a2.76 2.76 0 0 0 3.571 1.576 2.77 2.77 0 0 0 1.572-3.579l-1-2.577zm4.326-11.888c-.762-1.322-2.45-1.775-3.769-1.012a2.77 2.77 0 0 0-1.01 3.777l2.39 4.148c.761 1.322 2.45 1.775 3.769 1.012a2.77 2.77 0 0 0 1.01-3.777l-2.389-4.148z"/></g><path d="M781.375-15.666c-.949-1.428-2.548-2.287-4.26-2.287s-3.311.858-4.26 2.287L757.037 8.139c0 4.537 3.058 8.577 7.804 11.157 3.395 1.845 7.653 2.944 12.274 2.944 11.081 0 20.078-6.319 20.078-14.101l-15.818-23.805z" class="B F"/><g clip-path="url(#N)" class="B"><path d="M794.433-4.578c0-9.617-7.79-17.425-17.385-17.425h-.401c-9.596,0-17.385,7.808-17.385,17.425v.738c0,9.617,7.79,17.425,17.385,17.425h.401c9.595,0,17.385-7.808,17.385-17.425v-.738Z" class="I"/><g class="F"><path d="M769.928 1.437a2.77 2.77 0 0 0-1.31-3.683 2.76 2.76 0 0 0-3.675 1.313l-1.182 2.499a2.77 2.77 0 0 0 1.31 3.683 2.76 2.76 0 0 0 3.675-1.313l1.182-2.498zm10.711 4.212c0-1.526-1.237-2.766-2.759-2.766s-2.759 1.239-2.759 2.766v2.765c0 1.526 1.236 2.765 2.759 2.765s2.759-1.239 2.759-2.765V5.649zm7.209-9.311c-.766-1.319-2.456-1.768-3.772-1a2.77 2.77 0 0 0-.998 3.78l1.387 2.39c.765 1.32 2.456 1.768 3.772 1.001a2.77 2.77 0 0 0 .998-3.781l-1.387-2.39z"/></g></g><g class="B"><g class="I"><path d="M773.664 22.022c0-1.526 1.237-2.765 2.759-2.765s2.759 1.239 2.759 2.765v.219c0 1.526-1.237 2.765-2.759 2.765s-2.759-1.239-2.759-2.765v-.219zm-14.657-6.736a2.76 2.76 0 0 1 3.594-1.522 2.77 2.77 0 0 1 1.519 3.602l-.082.203a2.76 2.76 0 0 1-3.594 1.522 2.77 2.77 0 0 1-1.519-3.602l.082-.203zm35.732-.027a2.76 2.76 0 0 0-3.594-1.522 2.77 2.77 0 0 0-1.519 3.602l.082.203a2.76 2.76 0 0 0 3.594 1.522 2.77 2.77 0 0 0 1.519-3.602l-.082-.203zm-39.816-6.774c.822-1.285 2.53-1.658 3.812-.834a2.77 2.77 0 0 1 .833 3.82l-.118.184c-.822 1.285-2.53 1.658-3.812.834a2.77 2.77 0 0 1-.833-3.82l.118-.184z"/></g><path d="M748.086 28.859a2.76 2.76 0 0 1 3.812-.834 2.77 2.77 0 0 1 .833 3.821l-.118.184c-.822 1.285-2.53 1.659-3.812.834a2.77 2.77 0 0 1-.833-3.821l.118-.184z" class="Y"/><g class="F"><path d="M805.305 28.859a2.76 2.76 0 0 0-3.812-.834 2.77 2.77 0 0 0-.832 3.821l.118.184c.822 1.285 2.53 1.659 3.812.834a2.77 2.77 0 0 0 .832-3.821l-.118-.184zm-48.234 12.138c.822-1.285 2.53-1.659 3.812-.834a2.77 2.77 0 0 1 .832 3.821l-.118.184c-.822 1.285-2.53 1.658-3.812.834a2.77 2.77 0 0 1-.832-3.821l.118-.184zm39.249 0c-.822-1.285-2.53-1.659-3.812-.834a2.77 2.77 0 0 0-.833 3.821l.118.184c.822 1.285 2.53 1.658 3.812.834a2.77 2.77 0 0 0 .833-3.821l-.118-.184z"/></g><path d="M803.321 54.929c-.859-1.261-2.577-1.585-3.834-.725s-1.581 2.582-.723 3.843l2.174 3.192a2.76 2.76 0 0 0 3.834.725 2.77 2.77 0 0 0 .723-3.843l-2.174-3.192z" class="D"/><g class="F"><path d="M763.211 44.678a2.76 2.76 0 0 1 3.45-1.827 2.77 2.77 0 0 1 1.823 3.457l-.064.209a2.76 2.76 0 0 1-3.45 1.827 2.77 2.77 0 0 1-1.823-3.458l.064-.209zm26.969 0a2.76 2.76 0 0 0-3.449-1.827 2.77 2.77 0 0 0-1.823 3.457l.064.209a2.76 2.76 0 0 0 3.45 1.827 2.77 2.77 0 0 0 1.823-3.458l-.064-.209z"/></g><g class="D"><path d="M795.698 64.218a2.76 2.76 0 0 0-3.449-1.827 2.77 2.77 0 0 0-1.823 3.457l.064.209a2.76 2.76 0 0 0 3.45 1.827 2.77 2.77 0 0 0 1.823-3.458l-.064-.209zm-38.19-2.634a2.76 2.76 0 0 1 3.449-1.827 2.77 2.77 0 0 1 1.823 3.458l-1.098 3.566a2.76 2.76 0 0 1-3.449 1.827 2.77 2.77 0 0 1-1.823-3.457l1.098-3.566z"/></g><g class="F"><path d="M770.4 47.329a2.76 2.76 0 0 1 3.038-2.453c1.514.163 2.611 1.528 2.448 3.045l-.023.217a2.76 2.76 0 0 1-3.038 2.453c-1.514-.163-2.611-1.528-2.448-3.045l.023-.217zm12.591 0a2.76 2.76 0 0 0-3.038-2.453c-1.514.163-2.611 1.528-2.448 3.045l.023.217a2.76 2.76 0 0 0 3.038 2.453c1.514-.163 2.611-1.528 2.448-3.045l-.023-.217z"/></g><path d="M788.509 66.869a2.76 2.76 0 0 0-3.038-2.453c-1.514.163-2.611 1.528-2.448 3.045l.023.217a2.76 2.76 0 0 0 3.038 2.453c1.514-.163 2.611-1.528 2.448-3.045l-.023-.217z" class="D"/><g class="F"><path d="M751.397 35.884c.822-1.285 2.53-1.659 3.812-.834a2.77 2.77 0 0 1 .832 3.821l-.118.184c-.822 1.285-2.53 1.659-3.812.834a2.77 2.77 0 0 1-.832-3.821l.118-.184zm50.597 0c-.822-1.285-2.53-1.659-3.812-.834a2.77 2.77 0 0 0-.833 3.821l.118.184c.822 1.285 2.53 1.659 3.812.834a2.77 2.77 0 0 0 .833-3.821l-.118-.184z"/></g><path d="M751.788 54.882c.822-1.285 2.53-1.658 3.812-.834a2.77 2.77 0 0 1 .832 3.821l-3.289 5.139c-.822 1.285-2.53 1.658-3.812.834a2.77 2.77 0 0 1-.832-3.82l3.289-5.139z" class="D"/><g class="I"><path d="M798.823 8.458c-.822-1.285-2.53-1.659-3.812-.834a2.77 2.77 0 0 0-.833 3.821l.118.184c.822 1.285 2.53 1.659 3.812.834s1.654-2.536.833-3.821l-.118-.184zm-33.686 11.51c.249-1.506 1.671-2.525 3.173-2.276a2.77 2.77 0 0 1 2.271 3.18l-.036.216c-.249 1.506-1.671 2.525-3.173 2.276s-2.52-1.675-2.271-3.18l.036-.216zm23.472-.028c-.249-1.506-1.671-2.525-3.173-2.276a2.77 2.77 0 0 0-2.271 3.18l.036.216c.249 1.506 1.671 2.525 3.173 2.276s2.52-1.675 2.271-3.18l-.036-.216z"/></g><path d="M811.321 51.167l-5.587-8.752-3.23-5.095c-.037-.433-.142-.862-.392-1.253l-.118-.184c-.246-.385-.584-.657-.954-.871l-.145-.229c.317-.617.589-1.248.817-1.893.868.511 1.974.554 2.878-.028a2.77 2.77 0 0 0 .832-3.821l-.118-.184c-.669-1.045-1.917-1.446-3.052-1.13l-7.238-11.234c0-.345-.057-.695-.194-1.033l-.082-.202c-.033-.08-.099-.133-.138-.209.565-.703 1.036-1.445 1.425-2.216.691.153 1.44.041 2.083-.372a2.77 2.77 0 0 0 .833-3.821l-.118-.184c-.507-.793-1.356-1.188-2.229-1.219l-15.219-22.904c-.949-1.429-2.548-2.287-4.261-2.287s-3.311.858-4.26 2.287l-15.23 22.921c-1.032-.142-2.101.294-2.7 1.23l-.118.184a2.77 2.77 0 0 0 .833 3.821c.776.499 1.691.512 2.489.196a12.1 12.1 0 0 0 1.027 1.757l-8.497 13.189c-.99-.088-1.996.331-2.57 1.227l-.118.184a2.77 2.77 0 0 0 .833 3.821c.749.482 1.628.511 2.406.232.257.695.559 1.374.919 2.035-.28.199-.532.447-.729.754l-.118.184c-.469.733-.51 1.591-.255 2.358l-3.806 6.001-4.412 6.893a2.77 2.77 0 0 0 .833 3.82c1.281.824 2.99.451 3.812-.834l.294-.459a20.45 20.45 0 0 0 2.299 3.759l-1.545 2.414a2.77 2.77 0 0 0 .832 3.82c1.282.824 2.99.451 3.812-.834l.872-1.362a29.04 29.04 0 0 0 2.841 2.056l-.446 1.449a2.77 2.77 0 0 0 1.823 3.457 2.76 2.76 0 0 0 3.45-1.827l.154-.499c1.344.56 2.755 1.038 4.214 1.448l-.104.965c-.163 1.517.934 2.882 2.448 3.045s2.875-.936 3.038-2.453l.046-.432c1.83.247 3.708.395 5.635.395 2.158 0 4.264-.163 6.299-.472.533.909 1.559 1.474 2.671 1.354 1.329-.144 2.335-1.213 2.451-2.499a37.34 37.34 0 0 0 2.363-.78c.674.934 1.881 1.39 3.041 1.031 1.39-.43 2.185-1.863 1.862-3.262 1.855-1.029 3.558-2.195 5.057-3.499l.079.116a2.76 2.76 0 0 0 3.834.725 2.77 2.77 0 0 0 .723-3.843l-.81-1.189a20.09 20.09 0 0 0 1.797-3.083l.194.305c.821 1.285 2.527 1.66 3.809.836s1.656-2.537.835-3.823z" fill="#548e00" opacity=".3"/><path d="M816.047 45.257h-12.454v34.332a6.23 6.23 0 0 0 6.221 6.236h.012a6.23 6.23 0 0 0 6.221-6.236V45.257z" class="X"/><g class="D"><path d="M840.896 43.348c-.926-1.451-2.852-1.873-4.299-.943a3.13 3.13 0 0 0-.942 4.313l6.663 10.437c.926 1.451 2.852 1.873 4.299.943a3.13 3.13 0 0 0 .942-4.314l-6.663-10.437z"/><path d="M817.737 6.819c-1.909-3.011-5.221-4.835-8.781-4.835s-6.872 1.824-8.781 4.835l-26.332 41.529c0 14.263 15.734 25.843 35.113 25.843s35.113-11.58 35.113-25.843L817.737 6.819z"/></g></g><g clip-path="url(#O)" class="B L"><path d="M816.185-16.419a10.39 10.39 0 0 0-8.01-3.774c-3.097 0-6.034 1.382-8.011 3.772-10.36 12.542-27.101 34.574-27.101 46.046 0 14.263 15.734 25.843 35.113 25.843s35.113-11.58 35.113-25.843c0-11.471-16.741-33.504-27.104-46.043z"/></g><g class="B"><g class="D"><path d="M796.925 68.236a3.12 3.12 0 0 1 3.429-2.769 3.12 3.12 0 0 1 2.763 3.437l-.572 5.328a3.12 3.12 0 0 1-3.429 2.769 3.12 3.12 0 0 1-2.762-3.437l.572-5.328zM775.8 45.269a3.11 3.11 0 0 1 4.302-.942 3.13 3.13 0 0 1 .94 4.312l-5.562 8.689a3.11 3.11 0 0 1-4.302.941 3.13 3.13 0 0 1-.94-4.311l5.561-8.689z"/></g><g class="L"><use href="#Ad"/><path d="M822.058 61.336c-.211-1.709-1.767-2.925-3.473-2.713s-2.918 1.772-2.707 3.481l.383 3.097c.211 1.709 1.768 2.925 3.473 2.713s2.918-1.772 2.707-3.481l-.383-3.097zm-27.545 0c.212-1.709 1.768-2.925 3.473-2.713s2.918 1.772 2.707 3.481l-.383 3.097c-.211 1.709-1.768 2.925-3.473 2.713s-2.918-1.772-2.707-3.481l.383-3.097zm35.691-12.393c-.516-1.643-2.266-2.556-3.905-2.038s-2.55 2.272-2.034 3.914l1.311 4.17c.517 1.643 2.266 2.556 3.905 2.038s2.55-2.272 2.034-3.914l-1.311-4.17zm-42.036 1.415c.517-1.643 2.266-2.556 3.905-2.038s2.55 2.272 2.034 3.914l-1.311 4.17c-.517 1.642-2.266 2.556-3.905 2.038s-2.55-2.272-2.034-3.914l1.311-4.17zm49.725-7.291a3.11 3.11 0 0 0-4.253-1.142c-1.488.861-1.999 2.771-1.14 4.263l2.817 4.89a3.11 3.11 0 0 0 4.253 1.142c1.488-.861 1.999-2.771 1.14-4.263l-2.817-4.89zm-57.384-.168a3.11 3.11 0 0 1 4.253-1.142c1.488.861 1.999 2.771 1.14 4.263l-2.817 4.89a3.11 3.11 0 0 1-4.253 1.142c-1.488-.861-1.999-2.771-1.14-4.263l2.817-4.89z"/></g><path d="M816.916-4.344a10.4 10.4 0 0 0-17.48 0l-20.752 32.208c0 11.79 13.215 21.361 29.492 21.361s29.492-9.572 29.492-21.361L816.916-4.344z" class="F"/></g><g clip-path="url(#P)" class="B D"><path d="M816.177-30.51c-1.977-2.384-4.909-3.762-8.001-3.762s-6.025,1.379-8.001,3.762c-8.734,10.547-21.491,27.499-21.491,36.53,0,11.79,13.215,21.361,29.492,21.361s29.492-9.572,29.492-21.361c0-9.032-12.757-25.983-21.491-36.53Z"/><path d="M792.278 24.888c.859-1.492.348-3.402-1.14-4.263s-3.394-.349-4.253 1.142l-3.114 5.405c-.859 1.492-.349 3.402 1.14 4.263a3.11 3.11 0 0 0 4.253-1.142l3.114-5.405zm7.385 11.401c.562-1.628-.3-3.406-1.924-3.97s-3.399.301-3.961 1.928l-1.019 2.949c-.562 1.628.3 3.406 1.924 3.97s3.399-.301 3.961-1.928l1.019-2.949zm13.27-2.666a3.12 3.12 0 0 0-3.114-3.121 3.12 3.12 0 0 0-3.114 3.121v3.121a3.12 3.12 0 0 0 3.114 3.121 3.12 3.12 0 0 0 3.114-3.121v-3.121zm12.243.515c-.622-1.605-2.428-2.402-4.03-1.778s-2.396 2.434-1.774 4.039l1.128 2.909c.623 1.605 2.428 2.402 4.03 1.778s2.396-2.434 1.774-4.039l-1.128-2.909zm4.881-13.416a3.11 3.11 0 0 0-4.253-1.142c-1.488.861-1.999 2.771-1.14 4.263l2.697 4.681a3.11 3.11 0 0 0 4.253 1.142c1.488-.861 1.999-2.771 1.14-4.263l-2.696-4.681z"/></g><path d="M813.764-21.639c-1.071-1.612-2.876-2.581-4.808-2.581a5.77 5.77 0 0 0-4.808 2.581L786.297 5.226c0 5.121 3.451 9.68 8.807 12.591 3.831 2.082 8.637 3.322 13.851 3.322 12.505 0 22.659-7.131 22.659-15.914L813.763-21.64z" class="B F"/><g clip-path="url(#Q)" class="B"><path d="M828.501-9.126c0-10.853-8.792-19.665-19.62-19.665h-.452c-10.829,0-19.62,8.812-19.62,19.665v.832c0,10.853,8.791,19.665,19.62,19.665h.452c10.828,0,19.62-8.812,19.62-19.665v-.832Z" class="I"/><g class="F"><path d="M800.845-2.337c.736-1.556.074-3.419-1.479-4.157s-3.411-.074-4.148 1.482l-1.334 2.82c-.736 1.556-.074 3.419 1.479 4.157s3.411.074 4.148-1.482l1.334-2.819zm12.088 4.753a3.12 3.12 0 0 0-3.114-3.121 3.12 3.12 0 0 0-3.114 3.121v3.121a3.12 3.12 0 0 0 3.114 3.121 3.12 3.12 0 0 0 3.114-3.121V2.416z"/></g></g><g class="B"><g class="I"><path d="M805.062 20.893a3.12 3.12 0 0 1 3.114-3.121 3.12 3.12 0 0 1 3.114 3.121v.247a3.12 3.12 0 0 1-3.114 3.121 3.12 3.12 0 0 1-3.114-3.121v-.247zm-16.541-7.601c.646-1.596 2.464-2.365 4.056-1.718s2.36 2.47 1.714 4.065l-.092.229c-.646 1.596-2.464 2.365-4.056 1.718s-2.36-2.47-1.714-4.065l.093-.229zm40.324-.031c-.646-1.596-2.464-2.366-4.056-1.718s-2.36 2.469-1.714 4.065l.092.229c.646 1.596 2.464 2.366 4.056 1.718s2.36-2.469 1.714-4.065l-.093-.229zm-44.933-7.644a3.11 3.11 0 0 1 4.302-.941 3.13 3.13 0 0 1 .94 4.311l-.133.208a3.11 3.11 0 0 1-4.302.941 3.13 3.13 0 0 1-.94-4.311l.133-.208z"/></g><path d="M776.196 28.609c.928-1.449 2.856-1.871 4.302-.941a3.13 3.13 0 0 1 .94 4.312l-.133.208a3.11 3.11 0 0 1-4.302.942 3.13 3.13 0 0 1-.94-4.312l.133-.208z" class="Y"/><g class="F"><path d="M840.77 28.609c-.928-1.449-2.856-1.871-4.302-.941a3.13 3.13 0 0 0-.939 4.312l.133.208a3.11 3.11 0 0 0 4.302.942 3.13 3.13 0 0 0 .939-4.312l-.133-.208zm-54.434 13.698a3.11 3.11 0 0 1 4.302-.942 3.13 3.13 0 0 1 .939 4.312l-.133.208a3.11 3.11 0 0 1-4.302.941 3.13 3.13 0 0 1-.939-4.312l.133-.208zm44.294 0a3.11 3.11 0 0 0-4.302-.942 3.13 3.13 0 0 0-.94 4.312l.133.208a3.11 3.11 0 0 0 4.302.941 3.13 3.13 0 0 0 .94-4.312l-.133-.208z"/></g><path d="M838.531 58.03a3.11 3.11 0 0 0-4.327-.818 3.13 3.13 0 0 0-.816 4.337l2.453 3.602a3.11 3.11 0 0 0 4.327.818 3.13 3.13 0 0 0 .816-4.337l-2.453-3.602z" class="D"/><g class="F"><path d="M793.265 46.461c.507-1.646 2.251-2.57 3.893-2.062s2.564 2.256 2.057 3.902l-.072.236c-.507 1.646-2.251 2.57-3.893 2.062s-2.564-2.256-2.057-3.902l.072-.236z"/><use href="#Ae"/></g><g class="D"><path d="M829.928 68.513c-.507-1.646-2.251-2.57-3.893-2.062s-2.564 2.256-2.057 3.902l.072.236c.507 1.646 2.251 2.57 3.893 2.062s2.564-2.256 2.057-3.902l-.073-.236zm-43.099-2.973c.507-1.646 2.251-2.57 3.893-2.062s2.564 2.256 2.057 3.902l-1.239 4.025c-.507 1.646-2.251 2.57-3.893 2.062s-2.564-2.256-2.058-3.902l1.239-4.025z"/></g><g class="F"><path d="M801.378 49.453c.184-1.713 1.72-2.953 3.429-2.769a3.12 3.12 0 0 1 2.762 3.437l-.026.245a3.12 3.12 0 0 1-3.429 2.769 3.12 3.12 0 0 1-2.762-3.437l.026-.245zm14.21 0c-.184-1.713-1.72-2.953-3.429-2.769a3.12 3.12 0 0 0-2.762 3.437l.026.245a3.12 3.12 0 0 0 3.429 2.769 3.12 3.12 0 0 0 2.762-3.437l-.026-.245z"/></g><path d="M821.815 71.505c-.184-1.713-1.72-2.953-3.429-2.769a3.12 3.12 0 0 0-2.762 3.437l.026.245c.184 1.713 1.72 2.953 3.429 2.769a3.12 3.12 0 0 0 2.762-3.437l-.026-.245z" class="D"/><g class="F"><path d="M779.933 36.537a3.11 3.11 0 0 1 4.302-.942 3.13 3.13 0 0 1 .939 4.312l-.133.208a3.11 3.11 0 0 1-4.302.942 3.13 3.13 0 0 1-.939-4.312l.133-.208z"/><use href="#Af"/></g><path d="M780.374 57.977a3.11 3.11 0 0 1 4.302-.941 3.13 3.13 0 0 1 .939 4.312l-3.712 5.799a3.11 3.11 0 0 1-4.302.941c-1.446-.93-1.867-2.862-.939-4.311l3.712-5.8z" class="D"/><g class="I"><path d="M833.455 5.586a3.11 3.11 0 0 0-4.302-.942 3.13 3.13 0 0 0-.94 4.312l.133.208a3.11 3.11 0 0 0 4.302.942 3.13 3.13 0 0 0 .94-4.312l-.133-.208zm-38.016 12.989c.281-1.699 1.886-2.85 3.581-2.568s2.843 1.89 2.562 3.589l-.04.243c-.281 1.699-1.885 2.85-3.581 2.568a3.12 3.12 0 0 1-2.562-3.589l.04-.243zm26.489-.031c-.281-1.699-1.886-2.85-3.581-2.568s-2.843 1.89-2.562 3.589l.04.243c.281 1.699 1.885 2.85 3.581 2.568a3.12 3.12 0 0 0 2.562-3.589l-.04-.243z"/></g></g><rect x="658.583" y="28.888" width="140.809" height="103.85" rx="30.094" class="O"/><g class="B"><path d="M777.705 83.091h8.794V68.265c0-2.433-1.97-4.407-4.397-4.407s-4.397 1.974-4.397 4.407v14.826z" fill="#007b62"/><g fill="#009138"><path d="M748.39 55.043v-8.814h13.196a4.37 4.37 0 0 1 3.104 1.291 4.39 4.39 0 0 1 1.288 3.112v.009a4.41 4.41 0 0 1-1.288 3.116c-.822.824-1.939 1.287-3.104 1.287H748.39zm0-17.629V28.6h26.383a4.4 4.4 0 0 1 3.109 1.291c.827.829 1.288 1.948 1.288 3.116s-.462 2.292-1.288 3.116a4.38 4.38 0 0 1-3.109 1.291H748.39z"/></g></g><g class="m"><use href="#Ag"/><path d="M702.706 86.224h7.27v30.519h-7.27zm43.865 0h7.27v30.519h-7.27zm25.64 0h7.27v30.519h-7.27z"/></g><g fill="#783300"><use href="#Ah"/><path d="M702.706 86.224h7.27v6.949h-7.27zm43.865 0h7.27v6.949h-7.27zm25.64 0h7.27v6.949h-7.27zm-95.145 16.109h7.27v6.949h-7.27zm25.64 0h7.27v6.949h-7.27zm43.865 0h7.27v6.949h-7.27zm25.64 0h7.27v6.949h-7.27z"/></g><path d="M672.465 101.234h111.57v4.573h-111.57z" fill="#ac6521"/><g clip-path="url(#R)"><path d="M790.302 21.298H666.2v64.698c0 1.16.46 2.272 1.277 3.091a4.36 4.36 0 0 0 3.088 1.284h115.371a4.36 4.36 0 0 0 3.088-1.284c.818-.819 1.278-1.931 1.278-3.091V21.298z" fill="#b97f4a" class="B"/><g fill="#ac6521"><use href="#Ai"/><path d="M662.549 68.421h131.403v7.286H662.549zm0-14.669h131.403v7.286H662.549zm0-14.664h131.403v7.286H662.549zm0-14.568h131.403v7.286H662.549z"/></g><path d="M717.3 61.104h21.9v29.267h-21.9z" class="m"/><path d="M717.3 61.104h21.9v7.317h-21.9z" fill="#783300"/><g fill="#4dba9d"><path d="M753.801 57.446h21.9v21.95h-21.9zm-73.001 0h21.9v21.95h-21.9z"/></g><g class="J"><use href="#Aj"/><path d="M753.801 75.687h21.9v3.709h-21.9z"/></g><g fill="#289980"><path d="M753.801 57.395h21.9v3.709h-21.9zm-73.001 0h21.9v3.709h-21.9z"/></g><path d="M720.95 28.225h14.6v18.271h-14.6z" fill="#4dba9d"/><path d="M720.95 42.744h14.6v3.705h-14.6z" class="J"/><path d="M720.95 24.52h14.6v3.705h-14.6z" fill="#289980"/><path d="M662.549 17.209h131.403v7.312H662.549z" class="m"/><path d="M662.549-12.806h131.403v30.014H662.549z" fill="#b97f4a"/><path d="M662.549 12.636h131.403v4.573H662.549z" fill="#3c3a81"/><path d="M662.549-30.808h131.403v43.443H662.549z" fill="#5652a1"/><g fill="#4a488f"><path d="M662.549-3.37h131.403v4.573H662.549z"/><use href="#Ak" style="mix-blend-mode:multiply" opacity=".256"/><path style="mix-blend-mode:multiply" d="M710-30.808h6.844v43.443H710zm29.657 0h6.844v43.443h-6.844zm29.657 0h6.844v43.443h-6.844z" opacity=".256"/></g></g><rect x="65.815" y="120.002" width="40.901" height="57.998" rx="2.697" fill="#c8e3e1"/><path d="M65.782 129.847h40.934v4.095H65.782z" class="n"/><rect x="62.277" y="126.109" width="47.978" height="4.451" rx="2.225" class="o"/><rect x="70.696" y="140.212" width="19.092" height="18.682" rx="2.098" transform="matrix(.990696 .136096 -.136096 .990696 21.1 -9.529)" fill="#eff6f6"/><use href="#Al" fill="#6ab2c3"/><g clip-path="url(#S)"><rect x="70.014" y="140.212" width="19.092" height="18.682" rx="2.098" transform="matrix(.990696 .136096 -.136096 .990696 21.094 -9.436)" class="J"/><path d="M83.163 151.944c-.293 2.131-2.257 3.621-4.388 3.328s-3.621-2.257-3.328-4.388 4.899-7.05 4.899-7.05 3.109 5.979 2.817 8.11z" fill="#7fc3d9"/></g><g clip-path="url(#T)"><rect x="66.766" y="121.018" width="38.967" height="3.086" rx="1.543" class="n"/><rect x="66.766" y="122.384" width="38.967" height="3.086" rx="1.543" fill="#6ab2c3"/></g><path d="M100.337 124.104V81.07h4.451v43.034z" class="o"/><path d="M100.337 124.104v-1.662h4.451v1.662z" class="n"/><path d="M105.776 80.382h198.166v73.386H105.776z" class="N p"/><g class="d"><circle cx="148.611" cy="89.212" r="3.372"/><circle cx="170.193" cy="99.97" r="3.372"/></g><use href="#Am" class="q"/><g class="r"><use href="#An"/><use href="#Ao"/></g><use href="#Ap" class="s"/><g class="d"><circle cx="171.778" cy="118.725" r="3.372"/><circle cx="156.932" cy="98.03" r="3.372"/><circle cx="149.207" cy="108.056" r="3.372"/><circle cx="134.579" cy="94.282" r="3.372"/><circle cx="160.304" cy="121.389" r="3.372"/><circle cx="134.579" cy="114.646" r="3.372"/></g><path d="M234.728 155.649V120.85h3.598v34.799z" class="t"/><path d="M221.504 155.65v-34.799h13.229v34.799z" fill="#8892c5"/><path d="M289.44 155.65v-34.799h3.598v34.799z" class="t"/><path d="M276.211 155.649V120.85h13.229v34.799z" fill="#8892c5"/><use href="#Aq" fill="#ccc6dd"/><path d="M293.038 123.628h-58.333v-1.111h58.333z" class="t"/><path d="M293.038 148.185h-58.333v-4.666h58.333z" fill="#ccc6dd"/><g class="B G"><use href="#Ar"/><path d="M280.442 112.485v-.148l1.674-1.674a1.34 1.34 0 0 1 .949-.393h.126a.39.39 0 0 1 .276.666l-1.156 1.155a1.34 1.34 0 0 1-.949.393h-.92z"/><use href="#As"/></g><use href="#At" class="G"/><g class="B G"><path d="M285.609 106.986v-.148l1.674-1.674a1.34 1.34 0 0 1 .949-.393h.126a.39.39 0 0 1 .276.666l-1.156 1.155a1.34 1.34 0 0 1-.949.393h-.92zm0 4.576v-.148l1.674-1.674a1.34 1.34 0 0 1 .949-.393h.126a.39.39 0 0 1 .276.666l-1.156 1.155a1.34 1.34 0 0 1-.949.393h-.92zm.443-2.362v-.148l-1.674-1.674a1.34 1.34 0 0 0-.949-.393h-.126a.39.39 0 0 0-.276.666l1.156 1.155a1.34 1.34 0 0 0 .949.393h.92z"/></g><use href="#Au" class="G"/><g class="B H"><path d="M282.657 108.351v-.148l1.674-1.674a1.34 1.34 0 0 1 .949-.393h.126a.39.39 0 0 1 .276.666l-1.156 1.155a1.34 1.34 0 0 1-.949.393h-.92zm0 4.983v-.148l1.674-1.674a1.34 1.34 0 0 1 .949-.393h.126a.39.39 0 0 1 .276.666l-1.156 1.155a1.34 1.34 0 0 1-.949.393h-.92zm.443-2.362v-.148l-1.674-1.674a1.34 1.34 0 0 0-.949-.393h-.126a.39.39 0 0 0-.276.666l1.156 1.155a1.34 1.34 0 0 0 .949.393h.92z"/></g><use href="#Av" class="H"/><g class="B H"><path d="M271.36 106.137v-.148l1.674-1.674a1.34 1.34 0 0 1 .949-.393h.126a.39.39 0 0 1 .276.666l-1.156 1.155a1.34 1.34 0 0 1-.949.393h-.92zm0 6.348v-.148l1.674-1.674a1.34 1.34 0 0 1 .949-.393h.126a.39.39 0 0 1 .276.666l-1.156 1.155a1.34 1.34 0 0 1-.949.393h-.92zm.443-4.134v-.148l-1.674-1.674a1.34 1.34 0 0 0-.949-.393h-.126a.39.39 0 0 0-.276.666l1.156 1.155a1.34 1.34 0 0 0 .949.393h.92z"/></g><path d="M271.272 103.701h.591v11.447h-.591z" class="H"/><g class="B H"><path d="M276.527 106.986v-.148l1.674-1.674a1.34 1.34 0 0 1 .949-.393h.126a.39.39 0 0 1 .276.666l-1.156 1.155a1.34 1.34 0 0 1-.949.393h-.92zm0 4.576v-.148l1.674-1.674a1.34 1.34 0 0 1 .949-.393h.126a.39.39 0 0 1 .276.666l-1.156 1.155a1.34 1.34 0 0 1-.949.393h-.92zm.443-2.362v-.148l-1.674-1.674a1.34 1.34 0 0 0-.949-.393h-.126a.39.39 0 0 0-.276.666l1.156 1.155a1.34 1.34 0 0 0 .949.393h.92z"/></g><path d="M276.439 104.55h.591v11.152h-.591z" class="H"/><g class="B G"><path d="M273.575 108.351v-.148l1.674-1.674a1.34 1.34 0 0 1 .949-.393h.126a.39.39 0 0 1 .276.666l-1.156 1.155a1.34 1.34 0 0 1-.949.393h-.92zm0 4.983v-.148l1.674-1.674a1.34 1.34 0 0 1 .949-.393h.126a.39.39 0 0 1 .276.666l-1.156 1.155a1.34 1.34 0 0 1-.949.393h-.92zm.442-2.362v-.148l-1.674-1.674a1.34 1.34 0 0 0-.949-.393h-.126a.39.39 0 0 0-.276.666l1.156 1.155a1.34 1.34 0 0 0 .949.393h.92z"/></g><path d="M273.501 106.358h.591v9.301h-.591z" class="G"/><g class="B G"><path d="M262.432 106.137v-.148l1.674-1.674a1.34 1.34 0 0 1 .949-.393h.126a.39.39 0 0 1 .276.666l-1.156 1.155a1.34 1.34 0 0 1-.949.393h-.92zm0 6.348v-.148l1.674-1.674a1.34 1.34 0 0 1 .949-.393h.126a.39.39 0 0 1 .276.666l-1.156 1.155a1.34 1.34 0 0 1-.949.393h-.92zm.443-4.134v-.148l-1.674-1.674a1.34 1.34 0 0 0-.949-.393h-.126a.39.39 0 0 0-.276.666l1.156 1.155a1.34 1.34 0 0 0 .949.393h.92z"/></g><path d="M262.343 103.701h.591v11.447h-.591z" class="G"/><g class="B G"><path d="M267.599 106.986v-.148l1.674-1.674a1.34 1.34 0 0 1 .949-.393h.126a.39.39 0 0 1 .276.666l-1.156 1.155a1.34 1.34 0 0 1-.949.393h-.92zm0 4.576v-.148l1.674-1.674a1.34 1.34 0 0 1 .949-.393h.126a.39.39 0 0 1 .276.666l-1.156 1.155a1.34 1.34 0 0 1-.949.393h-.92zm.443-2.362v-.148l-1.674-1.674a1.34 1.34 0 0 0-.949-.393h-.126a.39.39 0 0 0-.276.666l1.156 1.155a1.34 1.34 0 0 0 .949.393h.92z"/></g><path d="M267.51 104.55h.591v11.152h-.591z" class="G"/><g class="B H"><path d="M264.646 108.351v-.148l1.674-1.674a1.34 1.34 0 0 1 .949-.393h.126a.39.39 0 0 1 .276.666l-1.156 1.155a1.34 1.34 0 0 1-.949.393h-.92zm0 4.983v-.148l1.674-1.674a1.34 1.34 0 0 1 .949-.393h.126a.39.39 0 0 1 .276.666l-1.156 1.155a1.34 1.34 0 0 1-.949.393h-.92zm.443-2.362v-.148l-1.674-1.674a1.34 1.34 0 0 0-.949-.393h-.126a.39.39 0 0 0-.276.666l1.156 1.155a1.34 1.34 0 0 0 .949.393h.92z"/></g><path d="M264.572 106.358h.591v9.301h-.591z" class="H"/><g class="B G"><path d="M243.959 106.137v-.148l1.674-1.674a1.34 1.34 0 0 1 .949-.393h.126a.39.39 0 0 1 .276.666l-1.156 1.155a1.34 1.34 0 0 1-.949.393h-.92zm0 6.348v-.148l1.674-1.674a1.34 1.34 0 0 1 .949-.393h.126a.39.39 0 0 1 .276.666l-1.156 1.155a1.34 1.34 0 0 1-.949.393h-.92zm.443-4.134v-.148l-1.674-1.674a1.34 1.34 0 0 0-.949-.393h-.126a.39.39 0 0 0-.276.666l1.156 1.155a1.34 1.34 0 0 0 .949.393h.92z"/></g><path d="M243.871 103.701h.591v11.447h-.591z" class="G"/><g class="B G"><path d="M249.127 106.986v-.148l1.674-1.674a1.34 1.34 0 0 1 .949-.393h.126a.39.39 0 0 1 .276.666l-1.156 1.155a1.34 1.34 0 0 1-.949.393h-.92zm0 4.576v-.148l1.674-1.674a1.34 1.34 0 0 1 .949-.393h.126a.39.39 0 0 1 .276.666l-1.156 1.155a1.34 1.34 0 0 1-.949.393h-.92zm.443-2.362v-.148l-1.674-1.674a1.34 1.34 0 0 0-.949-.393h-.126a.39.39 0 0 0-.276.666l1.156 1.155a1.34 1.34 0 0 0 .949.393h.92z"/></g><path d="M249.038 104.55h.591v11.152h-.591z" class="G"/><g class="B H"><path d="M246.174 108.351v-.148l1.674-1.674a1.34 1.34 0 0 1 .949-.393h.126a.39.39 0 0 1 .276.666l-1.156 1.155a1.34 1.34 0 0 1-.949.393h-.92zm0 4.983v-.148l1.674-1.674a1.34 1.34 0 0 1 .949-.393h.126a.39.39 0 0 1 .276.666l-1.156 1.155a1.34 1.34 0 0 1-.949.393h-.92zm.443-2.362v-.148l-1.674-1.674a1.34 1.34 0 0 0-.949-.393h-.126a.39.39 0 0 0-.276.666l1.156 1.155a1.34 1.34 0 0 0 .949.393h.92z"/></g><path d="M246.1 106.358h.591v9.301h-.591z" class="H"/><g class="B H"><path d="M253.35 106.137v-.148l1.674-1.674a1.34 1.34 0 0 1 .949-.393h.126a.39.39 0 0 1 .276.666l-1.156 1.155a1.34 1.34 0 0 1-.949.393h-.92zm0 6.348v-.148l1.674-1.674a1.34 1.34 0 0 1 .949-.393h.126a.39.39 0 0 1 .276.666l-1.156 1.155a1.34 1.34 0 0 1-.949.393h-.92zm.442-4.134v-.148l-1.674-1.674a1.34 1.34 0 0 0-.949-.393h-.126a.39.39 0 0 0-.276.666l1.156 1.155a1.34 1.34 0 0 0 .949.393h.92z"/></g><path d="M253.261 103.701h.591v11.447h-.591z" class="H"/><g class="B H"><path d="M258.517 106.986v-.148l1.674-1.674a1.34 1.34 0 0 1 .949-.393h.126a.39.39 0 0 1 .276.666l-1.156 1.155a1.34 1.34 0 0 1-.949.393h-.92zm0 4.576v-.148l1.674-1.674a1.34 1.34 0 0 1 .949-.393h.126a.39.39 0 0 1 .276.666l-1.156 1.155a1.34 1.34 0 0 1-.949.393h-.92zm.443-2.362v-.148l-1.674-1.674a1.34 1.34 0 0 0-.949-.393h-.126a.39.39 0 0 0-.276.666l1.156 1.155a1.34 1.34 0 0 0 .949.393h.92z"/></g><path d="M258.428 104.55h.591v11.152h-.591z" class="H"/><g class="B G"><path d="M255.564 108.351v-.148l1.674-1.674a1.34 1.34 0 0 1 .949-.393h.126a.39.39 0 0 1 .276.666l-1.156 1.155a1.34 1.34 0 0 1-.949.393h-.92zm0 4.983v-.148l1.674-1.674a1.34 1.34 0 0 1 .949-.393h.126a.39.39 0 0 1 .276.666l-1.156 1.155a1.34 1.34 0 0 1-.949.393h-.92zm.443-2.362v-.148l-1.674-1.674a1.34 1.34 0 0 0-.949-.393h-.126a.39.39 0 0 0-.276.666l1.156 1.155a1.34 1.34 0 0 0 .949.393h.92z"/></g><path d="M255.49 106.358h.591v9.301h-.591z" class="G"/><g fill="#9bd1df" class="B"><use href="#Aw"/><use href="#Ax"/><use href="#Ay"/><use href="#Az"/><path d="M278.063 102.667c-.245 0-.443.198-.443.443 0-.244-.198-.443-.443-.443s-.443.198-.443.443c0-.244-.198-.443-.443-.443s-.443.198-.443.443c0-.244-.198-.443-.443-.443s-.443.198-.443.443.198.443.443.443c.061 0 .119-.013.172-.035-.009.06-.024.12-.024.182a1.181 1.181 0 1 0 2.362 0c0-.062-.014-.122-.024-.182.053.022.111.035.172.035.245 0 .443-.199.443-.443s-.198-.443-.443-.443zm-2.938 1.772c-.245 0-.443.198-.443.443 0-.244-.198-.443-.443-.443s-.443.198-.443.443c0-.244-.198-.443-.443-.443s-.443.198-.443.443c0-.244-.198-.443-.443-.443s-.443.198-.443.443.198.443.443.443c.061 0 .119-.013.172-.035-.009.06-.024.12-.024.182a1.181 1.181 0 1 0 2.362 0c0-.062-.014-.121-.024-.182.053.022.111.035.172.035.245 0 .443-.199.443-.443s-.198-.443-.443-.443zm-11.305-1.624c0-.062-.014-.122-.024-.182.053.022.111.035.172.035.245 0 .443-.198.443-.443s-.198-.443-.443-.443-.443.199-.443.443c0-.244-.198-.443-.443-.443s-.443.199-.443.443c0-.244-.198-.443-.443-.443s-.443.199-.443.443c0-.244-.198-.443-.443-.443s-.443.199-.443.443.198.443.443.443c.061 0 .119-.013.172-.035-.01.06-.024.12-.024.182a1.181 1.181 0 1 0 2.362 0zm5.314-.148c-.245 0-.443.198-.443.443 0-.244-.198-.443-.443-.443s-.443.198-.443.443c0-.244-.198-.443-.443-.443s-.443.198-.443.443c0-.244-.198-.443-.443-.443s-.443.198-.443.443.198.443.443.443c.061 0 .119-.013.172-.035-.009.06-.024.12-.024.182a1.181 1.181 0 1 0 2.362 0c0-.062-.014-.122-.024-.182.053.022.111.035.172.035.245 0 .443-.199.443-.443s-.198-.443-.443-.443zm-2.938 1.772c-.245 0-.443.198-.443.443 0-.244-.198-.443-.443-.443s-.443.198-.443.443c0-.244-.198-.443-.443-.443s-.443.198-.443.443c0-.244-.198-.443-.443-.443s-.443.198-.443.443.198.443.443.443c.061 0 .119-.013.172-.035-.01.06-.024.12-.024.182a1.181 1.181 0 1 0 2.362 0c0-.062-.014-.121-.024-.182.053.022.111.035.172.035.245 0 .443-.199.443-.443s-.198-.443-.443-.443zm-20.849-1.624c0-.062-.014-.122-.024-.182.053.022.111.035.172.035.245 0 .443-.198.443-.443s-.198-.443-.443-.443-.443.199-.443.443c0-.244-.198-.443-.443-.443s-.443.199-.443.443c0-.244-.198-.443-.443-.443s-.443.199-.443.443c0-.244-.198-.443-.443-.443s-.443.199-.443.443.198.443.443.443c.061 0 .119-.013.172-.035-.009.06-.024.12-.024.182a1.181 1.181 0 1 0 2.362 0zm5.315-.148c-.245 0-.443.198-.443.443 0-.244-.198-.443-.443-.443s-.443.198-.443.443c0-.244-.198-.443-.443-.443s-.443.198-.443.443c0-.244-.198-.443-.443-.443s-.443.198-.443.443.198.443.443.443c.061 0 .119-.013.172-.035-.009.06-.024.12-.024.182a1.181 1.181 0 1 0 2.362 0c0-.062-.014-.122-.024-.182.053.022.111.035.172.035.245 0 .443-.199.443-.443s-.198-.443-.443-.443zm-2.938 1.772c-.245 0-.443.198-.443.443 0-.244-.198-.443-.443-.443s-.443.198-.443.443c0-.244-.198-.443-.443-.443s-.443.198-.443.443c0-.244-.198-.443-.443-.443s-.443.198-.443.443.198.443.443.443c.061 0 .119-.013.172-.035-.009.06-.024.12-.024.182a1.181 1.181 0 1 0 2.362 0c0-.062-.014-.121-.024-.182.053.022.111.035.172.035.245 0 .443-.199.443-.443s-.198-.443-.443-.443zm7.013-1.624c0-.062-.014-.122-.024-.182.053.022.111.035.172.035.245 0 .443-.198.443-.443s-.198-.443-.443-.443-.443.199-.443.443c0-.244-.198-.443-.443-.443s-.443.199-.443.443c0-.244-.198-.443-.443-.443s-.443.199-.443.443c0-.244-.198-.443-.443-.443s-.443.199-.443.443.198.443.443.443c.061 0 .119-.013.172-.035-.009.06-.024.12-.024.182a1.181 1.181 0 1 0 2.362 0zm5.315-.148c-.245 0-.443.198-.443.443 0-.244-.198-.443-.443-.443s-.443.198-.443.443c0-.244-.198-.443-.443-.443s-.443.198-.443.443c0-.244-.198-.443-.443-.443s-.443.198-.443.443.198.443.443.443c.061 0 .119-.013.172-.035-.009.06-.024.12-.024.182a1.181 1.181 0 1 0 2.362 0c0-.062-.014-.122-.024-.182.053.022.111.035.172.035.245 0 .443-.199.443-.443s-.198-.443-.443-.443zm-2.938 1.772c-.245 0-.443.198-.443.443 0-.244-.198-.443-.443-.443s-.443.198-.443.443c0-.244-.198-.443-.443-.443s-.443.198-.443.443c0-.244-.198-.443-.443-.443s-.443.198-.443.443.198.443.443.443c.061 0 .119-.013.172-.035-.009.06-.024.12-.024.182a1.181 1.181 0 1 0 2.362 0c0-.062-.014-.121-.024-.182.053.022.111.035.172.035.245 0 .443-.199.443-.443s-.198-.443-.443-.443z"/></g><g clip-path="url(#U)" class="B"><use href="#BA" fill="#f1d94b"/><use href="#BA" fill="#ece972" class="K"/><path d="M289.368 114.571l-.289 1.725h-47.957l-.29-1.725h48.536z" fill="#f1d94b"/></g><rect x="240.071" y="112.528" width="50.035" height="2.188" rx=".365" transform="matrix(-1 0 0 -1 530.177 227.245)" fill="#ece972"/><g class="B"><path d="M247.063 132.468c-.091-.123-.241-.195-.393-.195a.5.5 0 0 0-.397.195l-.658.859-1.071-.142c-.156-.02-.309.032-.417.142a.49.49 0 0 0-.143.417l.143 1.073-.861.659a.5.5 0 0 0 0 .79l.861.659-.143 1.073a.49.49 0 0 0 .143.417c.108.109.261.162.417.142l1.071-.142.658.859a.5.5 0 0 0 .397.195c.152 0 .302-.072.393-.195l.661-.859 1.071.142c.153.02.309-.032.417-.142a.5.5 0 0 0 .142-.417l-.142-1.073.858-.659a.5.5 0 0 0 .197-.395.5.5 0 0 0-.197-.395l-.858-.659.142-1.073c.02-.153-.034-.308-.142-.417a.5.5 0 0 0-.417-.142l-1.071.142-.661-.859z" fill="#6fb26a"/><path d="M244.334 134.122c-.091-.123-.237-.195-.393-.195a.5.5 0 0 0-.397.195l-.658.859-1.071-.142c-.153-.02-.309.032-.417.142a.5.5 0 0 0-.142.417l.142 1.073-.858.659c-.125.094-.197.24-.197.395a.49.49 0 0 0 .197.395l.858.659-.142 1.073c-.02.153.034.308.142.417s.265.162.417.141l1.071-.141.658.859a.5.5 0 0 0 .397.195c.156 0 .302-.072.393-.195l.661-.859 1.071.141a.5.5 0 0 0 .417-.141c.109-.109.163-.264.142-.417l-.142-1.073.858-.659c.125-.094.197-.24.197-.395a.49.49 0 0 0-.197-.395l-.858-.659.142-1.073a.5.5 0 0 0-.559-.559l-1.071.142-.661-.859z" fill="#a7ca5c"/><path d="M241.011,138.364c-.217.511-.325,1.06-.325,1.615,0,1.44.743,2.778,1.963,3.54h4.411c1.224-.761,1.966-2.1,1.966-3.54,0-.554-.112-1.103-.325-1.615h-7.69Z" class="J"/></g><circle cx="243.395" cy="136.601" r=".946" class="u"/><g class="B"><path d="M258.348 130.355a.84.84 0 0 0-1.664 0l-.33 2.532-2.021-1.558c-.335-.257-.805-.227-1.103.071a.84.84 0 0 0-.072 1.106l1.556 2.022-2.532.328a.84.84 0 0 0 0 1.664l2.532.328-1.556 2.022a.84.84 0 0 0 .072 1.106c.298.299.769.329 1.103.071l2.021-1.558.33 2.532a.84.84 0 0 0 1.664 0l.33-2.532 2.022 1.558a.84.84 0 0 0 1.175-1.177l-1.555-2.022 2.532-.328a.84.84 0 0 0 0-1.664l-2.532-.328 1.555-2.022a.84.84 0 0 0-1.175-1.177l-2.022 1.558-.33-2.532z" class="H"/><path d="M252.339 136.645c-.285.682-.434 1.414-.434 2.153 0 1.921.99 3.706 2.623 4.721h5.883a5.57 5.57 0 0 0 2.188-6.874h-10.26z" fill="#de6446"/><g fill="#3f7f83"><path d="M269.823 131.418a.44.44 0 0 1 .439-.44h0c.117 0 .229.046.311.129a.44.44 0 0 1 .128.311v6.607h-.88v-6.607z"/><use href="#BB"/><path d="M271.878 135.129a.63.63 0 0 0-.184-.444c-.118-.118-.277-.184-.444-.184h0c-.302 0-.547.245-.547.547v.04l-.88 1.762h.511a1.54 1.54 0 0 0 1.543-1.544v-.178z"/><path d="M268.648 132.78a.63.63 0 0 1 .184-.444c.118-.118.277-.184.444-.184h0c.302 0 .547.245.547.547v.04l.88 1.762h-.511a1.54 1.54 0 0 1-1.543-1.544v-.178z"/></g><g class="u"><path d="M269.585 127.556a.62.62 0 0 0-.759.759l.171.648-.171.648c-.056.214.005.442.161.598a.62.62 0 0 0 .598.161l.648-.171.648.171a.62.62 0 0 0 .759-.759l-.171-.648.171-.648c.056-.214-.005-.442-.161-.598a.62.62 0 0 0-.598-.161l-.648.171-.648-.171zm1.998 4.902a.35.35 0 0 0-.428.428l.096.365-.096.365a.35.35 0 0 0 .428.428l.365-.097.365.097c.121.032.249-.003.338-.091s.123-.217.09-.337l-.096-.365.096-.365a.35.35 0 0 0-.428-.428l-.365.096-.365-.096z"/></g><path d="M269.639 143.519a3.56 3.56 0 0 1-3.562-3.562v-2.019h7.999v2.019c0 .945-.376 1.851-1.043 2.519a3.56 3.56 0 0 1-2.519 1.043" fill="#928db1"/><path d="M281.961 133.559a1.27 1.27 0 0 0-2.434 0l-.122.427-.39-.214a1.27 1.27 0 0 0-1.723 1.72l.214.39-.427.124a1.27 1.27 0 0 0 0 2.434l.427.124-.214.39a1.27 1.27 0 0 0 1.723 1.72l.39-.214.122.427a1.27 1.27 0 0 0 2.434 0l.122-.427.39.214c.495.271 1.109.184 1.509-.214a1.27 1.27 0 0 0 .214-1.506l-.214-.39.427-.124a1.27 1.27 0 0 0 0-2.434l-.427-.124.214-.39a1.27 1.27 0 0 0-1.723-1.72l-.39.214-.122-.427z" fill="#a7ca5c"/><path d="M276.902 138.364a4.18 4.18 0 0 0-.325 1.615 4.17 4.17 0 0 0 1.966 3.54h4.408c1.224-.761 1.966-2.1 1.966-3.54 0-.554-.112-1.103-.325-1.615h-7.69z" fill="#de6446"/></g><g class="u"><circle cx="279.526" cy="136.304" r="1.187"/><circle cx="282.1" cy="133.964" r="1.017"/></g><path d="M234.935 106.246c0-.885.718-1.603 1.603-1.603.425 0 .833.169 1.133.469a1.6 1.6 0 0 1 .47 1.133v.787c0 2.116-1.214 4.043-3.123 4.957l-.083.04v-5.784z" fill="#458570" class="B"/><g clip-path="url(#V)" class="B v"><path d="M236.969 102.294c0-.136.11-.247.247-.247h0c.065 0 .128.026.174.072s.072.109.072.174v5.131c0 .065-.026.128-.072.174s-.109.072-.174.072h0c-.065 0-.128-.026-.174-.072s-.072-.109-.072-.174v-5.131zm-1.109 1.778c0-.119.097-.216.216-.216h0a.22.22 0 0 1 .153.063c.04.04.063.095.063.152v5.171c0 .057-.023.112-.063.152a.22.22 0 0 1-.153.063h0c-.119 0-.216-.097-.216-.216v-5.17z"/><path d="M236.997 104.412c-.128 0-.232-.104-.232-.232s.104-.232.232-.232.231.104.231.232-.104.232-.231.232zm0 .926c-.128 0-.232-.104-.232-.232s.104-.231.232-.231.231.104.231.231-.104.232-.231.232zm0 .926c-.128 0-.232-.104-.232-.232s.104-.231.232-.231.231.104.231.231-.104.232-.231.232zm0-2.778c-.128 0-.232-.104-.232-.231s.104-.232.232-.232.231.104.231.232-.104.231-.231.231zm0 3.704c-.128 0-.232-.104-.232-.231s.104-.232.232-.232.231.104.231.232-.104.231-.231.231zm-1.158-1.158c-.128 0-.232-.104-.232-.231s.104-.232.232-.232.232.104.232.232-.104.231-.232.231z"/><path d="M235.839 106.958c-.128 0-.232-.104-.232-.232s.104-.232.232-.232.232.104.232.232-.104.232-.232.232zm0 .926c-.128 0-.232-.104-.232-.232s.104-.231.232-.231.232.104.232.231-.104.232-.232.232zm0-2.778c-.128 0-.232-.104-.232-.231s.104-.232.232-.232.232.104.232.232-.104.231-.232.231zm0 3.704c-.128 0-.232-.104-.232-.232s.104-.231.232-.231.232.104.232.231-.104.232-.232.232z"/></g><g class="R"><circle cx="234.319" cy="108.226" r=".123"/><path d="M232.869 114.142a2.91 2.91 0 0 1-1.39-2.15l-.214-1.809a1.89 1.89 0 0 1 .468-1.483 1.91 1.91 0 0 1 1.424-.637h.377c1.05 0 1.893.85 1.894 1.896v3.616c-.547-.233-1.184-.159-1.668.249h0c-.268.226-.561.331-.891.317z" class="B"/></g><g clip-path="url(#W)" class="v"><g class="B"><path d="M233.764 106.893a.22.22 0 0 1 .063-.153c.04-.04.095-.063.152-.063h0c.119 0 .216.097.216.216v5.186c0 .119-.097.216-.216.216h0c-.057 0-.112-.023-.152-.063s-.063-.095-.063-.153v-5.186zm-1.171-1.821c0-.065.026-.128.072-.174s.109-.072.174-.072h0c.065 0 .128.026.174.072s.072.109.072.174v5.127c0 .065-.026.128-.072.174s-.109.072-.174.072h0c-.065 0-.128-.026-.174-.072s-.072-.109-.072-.174v-5.127z"/></g><circle cx="233.764" cy="108.041" r=".123"/><circle cx="233.764" cy="108.534" r=".123"/><circle cx="233.764" cy="109.027" r=".123"/><circle cx="233.764" cy="109.52" r=".123"/><circle cx="233.764" cy="110.013" r=".123"/><circle cx="233.764" cy="110.507" r=".123"/><circle cx="233.764" cy="111" r=".123"/><circle cx="233.764" cy="111.493" r=".123"/><use href="#BC" class="B"/><circle cx="233.764" cy="111.493" r=".123"/><use href="#BC" class="B"/><circle cx="232.593" cy="108.041" r=".123"/><circle cx="232.593" cy="108.534" r=".123"/><circle cx="232.593" cy="109.027" r=".123"/><circle cx="232.593" cy="109.52" r=".123"/><path d="M232.593,109.89c.068,0,.123.055.123.123s-.055.123-.123.123-.123-.055-.123-.123.055-.123.123-.123Z" class="B"/></g><g class="R"><circle cx="232.346" cy="108.226" r=".123"/><circle cx="231.791" cy="108.596" r=".123"/><circle cx="234.873" cy="108.596" r=".123"/><circle cx="231.483" cy="109.027" r=".123"/><circle cx="231.298" cy="109.582" r=".123"/><circle cx="231.236" cy="110.198" r=".123"/><circle cx="231.298" cy="110.815" r=".123"/><circle cx="231.36" cy="111.431" r=".123"/><path d="M231.483,111.925c.068,0,.123.055.123.123s-.055.123-.123.123-.123-.055-.123-.123.055-.123.123-.123Z" class="B"/><circle cx="231.606" cy="112.603" r=".123"/><circle cx="231.853" cy="113.157" r=".123"/><circle cx="232.161" cy="113.651" r=".123"/></g><g class="B"><g fill="#e1734e"><path d="M232.704 107.157a.83.83 0 0 0 0 1.178c.325.325.853.325 1.177 0s.325-.853 0-1.178l-.589.589-.589-.589zm3.335-3.44c-.325.325-.325.853 0 1.178s.853.325 1.177 0 .325-.853 0-1.178l-.589.589-.589-.589z"/></g><path d="M235.613 104.549c0-.278-.11-.545-.307-.741a1.05 1.05 0 0 0-.741-.307c-.278 0-.544.11-.741.307s-.307.463-.307.741v.84c0 .915.546 1.742 1.388 2.101l.579.247c.028.012.061.009.087-.008s.041-.046.041-.077v-3.104z" class="R"/></g><g clip-path="url(#X)" class="v"><path d="M234.689 100.734c0-.119.097-.216.216-.216h0a.22.22 0 0 1 .153.063c.04.04.063.095.063.153v5.175a.22.22 0 0 1-.216.216h0c-.119 0-.216-.097-.216-.216v-5.174z" class="B"/><circle cx="234.682" cy="103.972" r=".123"/><circle cx="234.682" cy="104.465" r=".123"/><circle cx="234.682" cy="104.958" r=".123"/><circle cx="234.682" cy="105.452" r=".123"/></g><g class="R"><circle cx="233.764" cy="103.849" r=".123"/><circle cx="235.367" cy="103.849" r=".123"/><circle cx="233.517" cy="104.342" r=".123"/></g><g fill="#458570"><circle cx="237.8" cy="105.229" r=".123"/><circle cx="238.155" cy="105.883" r=".123"/><circle cx="238.202" cy="106.561" r=".123"/><circle cx="238.202" cy="107.301" r=".123"/><circle cx="238.079" cy="108.102" r=".123"/><circle cx="237.908" cy="108.781" r=".123"/><circle cx="237.662" cy="109.335" r=".123"/><circle cx="237.339" cy="109.952" r=".123"/><circle cx="236.969" cy="110.445" r=".123"/><circle cx="236.6" cy="110.877" r=".123"/><circle cx="236.106" cy="111.308" r=".123"/><circle cx="234.873" cy="108.142" r=".123"/></g><g class="R"><circle cx="233.517" cy="104.958" r=".123"/><circle cx="233.517" cy="105.523" r=".123"/><circle cx="233.647" cy="106.191" r=".123"/><circle cx="234.01" cy="106.869" r=".123"/><circle cx="234.504" cy="106.746" r=".123"/></g><path d="M233.972 102.403a.83.83 0 0 0 0 1.178c.325.325.853.325 1.178 0s.325-.853 0-1.178l-.589.589-.589-.589z" fill="#e1734e" class="B"/><g clip-path="url(#Y)"><path d="M230.704 114.592h6.771l-.615 6.258h-5.541l-.615-6.258z" fill="#448a94" class="B"/><path d="M235.457 114.289h2.326v8.322h-2.326z" fill="#50a7b4"/></g><rect x="230.277" y="113.072" width="7.615" height="1.521" rx=".3" fill="#50a7b4"/><g class="d"><circle cx="202.143" cy="89.212" r="3.372"/><circle cx="223.725" cy="99.97" r="3.372"/></g><path d="M203.163,118.725c7.044,0,13.343,3.178,17.549,8.176,3.357-3.989,5.383-9.135,5.383-14.756,0-12.665-10.267-22.932-22.932-22.932s-22.932,10.267-22.932,22.932c0,5.621,2.026,10.768,5.383,14.756,4.207-4.998,10.506-8.176,17.549-8.176Z" class="q"/><g class="r"><path d="M220.713 126.901c-3.434-4.08-8.263-6.945-13.753-7.861v15.722c5.49-.916 10.319-3.781 13.753-7.861zm-35.099 0c3.434 4.08 8.263 6.945 13.753 7.861V119.04c-5.49.916-10.319 3.781-13.753 7.861z"/></g><path d="M203.163 118.725a23.06 23.06 0 0 0-3.796.315v31.192h7.592V119.04a23.06 23.06 0 0 0-3.796-.315z" class="s"/><g class="d"><circle cx="225.31" cy="118.725" r="3.372"/><circle cx="210.464" cy="98.03" r="3.372"/><circle cx="202.739" cy="108.056" r="3.372"/><circle cx="188.111" cy="94.282" r="3.372"/><circle cx="213.836" cy="121.389" r="3.372"/><circle cx="188.111" cy="114.646" r="3.372"/></g><path d="M170.935 80.382h76.346v73.386h-76.346z" class="N e"/><g fill="#459086" stroke="#459086" class="f"><circle cx="293.131" cy="55.055" r="2.709"/><circle cx="307.953" cy="80.795" r="2.709"/></g><path d="M156.779 141.591h154.969v9.466H156.779z" class="S"/><path d="M110.842 79.876v99.581h-8.022V79.876z" class="g"/><path d="M108.858 79.876v99.581h-6.039V79.876z" class="T"/><g class="S"><path d="M102.82 136.814h8.022v4.777h-8.022zm0-55.745h8.022v4.128h-8.022z"/></g><path d="M175.937 79.875v99.581h-8.022V79.875z" class="g"/><path d="M173.954 79.875v99.581h-6.039V79.875z" class="T"/><g class="S"><path d="M167.915 136.814h8.022v4.777h-8.022zm0-55.745h8.022v4.542h-8.022z"/></g><path d="M251.292 79.875v99.581h-8.022V79.875z" class="g"/><path d="M249.308 79.876v99.581h-6.039V79.876z" class="T"/><g class="S"><use href="#BD"/><path d="M243.27 81.069h8.022v2.155h-8.022z"/></g><path d="M307.953 79.875v61.715h-8.022V79.875z" class="g"/><path d="M305.97 79.876v61.715h-6.039V79.876z" class="T"/><g class="S"><path d="M299.931 139.436h8.022v2.155h-8.022zm0-58.367h8.022v2.155h-8.022z"/></g><path d="M100.959 141.591h154.969v9.466H100.959z" class="T"/><path d="M151.229 97.104H92.976l16.687-14.341h58.252l-16.686 14.341z" class="N e"/><path d="M109.663 111.446h58.252l-16.686-14.342H92.976l16.687 14.342z" class="N p"/><path d="M167.915 111.446h-59.049" stroke-width="3.961" class="C Q U h"/><path d="M129.965 31.154l-29.006 49.641h206.994l-29.005-49.641H129.965z" class="N p"/><g class="B e"><use href="#BE" class="K"/><path d="M239.225 75.717h56.526c1.309 0 2.122-1.422 1.458-2.55l-7.266-12.182a1.69 1.69 0 0 0-1.458-.834h-56.526c-1.309 0-2.122 1.422-1.458 2.55l7.266 12.182a1.69 1.69 0 0 0 1.458.834z" class="K"/></g><path d="M129.965 31.154l-29.006 49.641h149.798l28.191-49.641H129.965z" class="N e"/><g clip-path="url(#Z)"><path d="M115.462 55.055l-14.503 25.74h74.899l14.095-25.74h-74.491z" fill="#675fa3"/><g stroke="#444087" stroke-width="5.384" class="C h"><use href="#BF"/><path d="M121.296 86.208l20.453-36.363m-7.436 36.363l20.453-36.363m-7.436 36.363l20.453-36.363m-7.436 36.363l20.454-36.363"/></g><path d="M115.462 55.055l-14.503 25.74 88.994-25.74h-74.491z" opacity=".3" class="o"/></g><g class="C h"><path d="M129.965 31.154l-27.243 46.623a2.01 2.01 0 0 0 1.732 3.017h201.592c.845 0 1.372-.917.945-1.647l-28.043-47.993H129.965z" class="U w"/><path d="M250.757 80.795h55.424a1.02 1.02 0 0 0 .878-1.53l-28.112-48.11" stroke="#c1d7d6" class="AB"/><path d="M115.999 55.055h149.259" class="U w"/><g class="AB"><path d="M265.258 55.055h28.392" stroke="#c1d7d6"/><path d="M251.292 78.956l27.932-47.802" class="U"/></g></g><g class="f x y"><circle cx="250.757" cy="80.795" r="2.709"/><circle cx="265.258" cy="55.055" r="2.709"/><circle cx="278.704" cy="30.729" r="2.709"/></g><path d="M176.533 78.956l27.931-47.802" class="C U h w"/><g class="f x y"><circle cx="175.991" cy="80.795" r="2.709"/><circle cx="190.498" cy="55.055" r="2.709"/><circle cx="204.464" cy="30.729" r="2.709"/></g><g class="B J"><use href="#BG" class="K"/><path d="M258.894 50.675h-56.526c-1.309 0-2.122-1.422-1.458-2.55l7.266-12.182a1.69 1.69 0 0 1 1.458-.834h56.526c1.309 0 2.122 1.422 1.458 2.55l-7.266 12.182a1.69 1.69 0 0 1-1.458.834zm-13.936 25.042h-56.526c-1.309 0-2.122-1.422-1.458-2.55l7.266-12.182a1.69 1.69 0 0 1 1.458-.834h56.526c1.309 0 2.122 1.422 1.458 2.55l-7.266 12.182a1.69 1.69 0 0 1-1.458.834z" class="K"/></g><g class="f x y"><circle cx="101.486" cy="80.795" r="2.709"/><circle cx="115.725" cy="55.302" r="2.709"/><circle cx="129.965" cy="30.729" r="2.709"/></g><circle cx="789.984" cy="74.327" r="2.736" fill="#e68b3c"/><path d="M806.671 89.547c-5.716 0-10.828 2.579-14.242 6.635a18.53 18.53 0 0 1-4.369-11.975c0-10.278 8.332-18.611 18.611-18.611s18.611 8.332 18.611 18.611a18.53 18.53 0 0 1-4.369 11.975c-3.414-4.056-8.526-6.635-14.242-6.635z" class="q"/><g class="r"><path d="M792.429 96.182c2.787-3.311 6.706-5.637 11.161-6.38v12.759c-4.455-.743-8.374-3.068-11.161-6.38zm28.484 0c-2.787 3.311-6.706 5.637-11.161 6.38V89.803c4.455.743 8.374 3.069 11.161 6.38z"/></g><path d="M806.671 89.547a18.73 18.73 0 0 1 3.081.256v12.759 19.545h-6.161v-19.545-12.759a18.73 18.73 0 0 1 3.081-.256z" class="s"/><use href="#BH" class="B W"/><g clip-path="url(#a)" class="B"><g class="W"><use href="#BH"/><use href="#BH" class="K"/></g><path d="M816.601 122.659l-.514 3.06h-18.833l-.514-3.06h19.861z" fill="#c66a38"/></g><rect x="795.411" y="119.036" width="22.519" height="3.881" rx=".648" transform="matrix(-1 0 0 -1 1613.341 241.953)" class="W"/><path d="M795.411 134.366h25.104" stroke="#77d629" stroke-width="10" class="Q c i AA"/><g fill="#e68b3c"><circle cx="788.698" cy="89.547" r="2.736"/><circle cx="809.407" cy="78.153" r="2.736"/><circle cx="818.886" cy="69.71" r="2.736"/><circle cx="798.009" cy="91.709" r="2.736"/><circle cx="818.886" cy="86.237" r="2.736"/></g><path d="M89.737 14.497a1.14 1.14 0 0 0-1.435.735L83.848 29.04l2.171.7 4.454-13.808a1.14 1.14 0 0 0-.735-1.435z" fill="#1e0f1d" class="B"/><g clip-path="url(#b)" class="J"><path style="mix-blend-mode:overlay" d="M88.494 13.581l1.356.437-6.019 18.663-1.356-.437z"/></g><g class="J"><rect x="78.531" y="15.523" width="20.883" height="2.935" rx="1.467" transform="matrix(.951723 .306958 -.306958 .951723 9.511 -26.491)" class="K"/><path d="M82.633 13.404l6.692 2.158-.901 2.793-6.692-2.158zm11.592 3.739l2.793.901-.901 2.793-2.793-.901z" class="V"/></g><path d="M89.294 14.003l1.049.338a1.11 1.11 0 0 1 .716 1.397l-.112.346-3.162-1.02.112-.346a1.11 1.11 0 0 1 1.397-.716z" fill="#1e0f1d"/><g clip-path="url(#c)" class="J"><path style="mix-blend-mode:overlay" d="M87.216 15.368l.73-2.264 1.991.642-.73 2.264z"/></g><path d="M88.05 31.333l-3.008-1.966-3.7-.198.428-1.324 3.875-.349 2.832 2.512-.427 1.325z" fill="#dcb245" class="B"/><g clip-path="url(#d)"><path d="M88.961 28.793c.262-.811-.184-1.68-.995-1.942l-3.854-1.243c-.811-.262-1.68.184-1.942.995l-.671 2.079 6.79 2.19.671-2.079z" fill="#dcb245" class="B"/><g clip-path="url(#e)"><path d="M90.617 27.234c.11-.341-.077-.706-.418-.815l-7.815-2.521c-.34-.11-.706.077-.815.418l-.795 2.466 9.048 2.918.795-2.466z" fill="#fae54b" class="B"/><g clip-path="url(#f)"><path d="M77.843 27.502l2.071-6.42 7.051 2.274-2.071 6.42z" fill="#f0cc48"/></g></g></g><path d="M84.984 29.358h0c4.648 1.499 7.205 6.491 5.706 11.139l-2.173 6.738-16.845-5.433 2.173-6.738c1.499-4.648 6.491-7.205 11.139-5.706z" opacity=".35" class="J"/><g clip-path="url(#g)" class="B"><g class="V"><use href="#BI" fill="#67c0d7" class="V"/></g><g class="V"><path d="M88.818 41.146a9.16 9.16 0 0 1-5.112-4.121l-.908-1.563c-.821-1.414-2.137-2.475-3.693-2.977a6.62 6.62 0 0 0-8.333 4.269l-3.03 9.393 28.565 9.213 3.447-10.687-10.936-3.527z" fill="#67c0d7" class="V"/></g></g><path d="M82.267 29.302c.882 0 1.758.138 2.602.411 4.483 1.446 6.954 6.27 5.508 10.753l-2.04 6.324-16.261-5.245 2.04-6.324a8.53 8.53 0 0 1 8.151-5.919m0-.95c-4.01 0-7.761 2.567-9.054 6.577l-2.331 7.227 18.068 5.828 2.331-7.227c1.603-4.969-1.151-10.345-6.12-11.948h0a9.4 9.4 0 0 0-2.894-.457h0z" fill="#a6d5d8"/><g class="J"><circle cx="83.724" cy="33.142" r=".949" style="mix-blend-mode:overlay" class="K"/><circle cx="79.606" cy="33.176" r="1.661" style="mix-blend-mode:overlay" class="K"/><circle cx="85.926" cy="38.657" r="1.661" style="mix-blend-mode:overlay" class="K"/></g><path d="M95.513 46.145c.321-.996-.226-2.064-1.222-2.385l-11.244-3.627a1.44 1.44 0 0 0-1.814.929l-2.524 7.826c-.253.785.182 1.634.967 1.887l11.189 3.609c.996.321 2.064-.226 2.385-1.222l2.263-7.017z" fill="#14142c" class="B"/><rect x="88.014" y="47.606" width="6.824" height="2.285" rx="1.143" transform="matrix(.306958 -.951723 .951723 .306958 16.966 120.797)" fill="#9ac555"/><path d="M94.117 43.704l-24.024-7.749.801-.817a2.29 2.29 0 0 1 2.336-.576l19.154 6.178a2.29 2.29 0 0 1 1.56 1.832l.173 1.132z" fill="#f5c746" class="B"/><rect x="71.397" y="31.952" width="11.184" height="24.167" rx="2.184" transform="matrix(.306958 -.951723 .951723 .306958 11.446 103.79)" fill="#fae54b"/><rect x="72.181" y="33.03" width="8.92" height="24.167" rx="2.184" transform="matrix(.306958 -.951723 .951723 .306958 10.18 104.206)" fill="#f5c746"/><rect x="72.142" y="34.45" width="8.096" height="15.412" rx="2.184" transform="matrix(.306958 -.951723 .951723 .306958 12.682 101.727)" fill="#4d497f"/><rect x="72.903" y="35.495" width="5.899" height="15.412" rx="2.184" transform="matrix(.306958 -.951723 .951723 .306958 11.453 102.131)" fill="#14142c"/><g clip-path="url(#h)" class="B D"><path d="M752.512,140.034c-1.437-1.733-3.568-2.735-5.816-2.735s-4.379,1.002-5.816,2.735c-6.348,7.667-15.622,19.989-15.622,26.554,0,8.57,9.606,15.528,21.438,15.528s21.438-6.958,21.438-15.528c0-6.565-9.273-18.887-15.622-26.554Z"/></g><path d="M750.758 146.483c-.779-1.172-2.09-1.876-3.495-1.876s-2.716.704-3.495 1.876l-12.976 19.528c0 3.722 2.509 7.036 6.402 9.153 2.785 1.514 6.278 2.415 10.069 2.415 9.09 0 16.471-5.183 16.471-11.568l-12.976-19.528z" class="B F"/><g clip-path="url(#i)" class="B I"><path d="M761.47,155.579c0-7.889-6.391-14.294-14.262-14.294h-.329c-7.871,0-14.262,6.405-14.262,14.294v.605c0,7.889,6.39,14.294,14.262,14.294h.329c7.871,0,14.262-6.405,14.262-14.294v-.605Z"/></g><g class="B"><path d="M662.023 148.455l20.419 6.653 1.838-5.665-20.42-6.654-1.837 5.666z" fill="#3c376a"/><path d="M687.16 150.502h0c-1.991-4.903-6.038-8.676-11.061-10.313a17.89 17.89 0 0 0-14.997 1.822h0l26.057 8.491z" fill="#fb7e00"/></g><g clip-path="url(#j)" class="B"><path d="M667.98 138.904l16.406 5.346 1.412-4.353-16.406-5.346-1.412 4.353z" fill="#ca4400"/></g><g class="B"><path d="M661.103 142.011a1.02 1.02 0 0 0 .651 1.282l24.128 7.862c.532.174 1.105-.119 1.279-.653h0l-26.057-8.491z" fill="#da5a00"/><path d="M673.549 146.066l1.165.38 1.569-4.837-1.165-.379-1.569 4.836z" fill="#ef720b"/><path d="M647.626 142.813l-8.623-2.81c-.635-.207-.983-.891-.777-1.528h0a1.21 1.21 0 0 1 1.835-.625l3.308 2.276c.192.132.419.206.652.213l4.011.108c.808.022 1.368.817 1.118 1.587h0a1.21 1.21 0 0 1-1.525.778z" fill="#616080"/><path d="M643.795 139.928h0a.99.99 0 0 0-1.247.636l-.431 1.33 1.882.613.431-1.33c.169-.521-.115-1.08-.635-1.25z" fill="#171721"/><path d="M644.356 143.052l12.411 4.044a1.16 1.16 0 0 1 .743 1.462l-2.656 8.188c-.09.277-.309.492-.586.578s-.579.03-.809-.148l-10.926-8.503 1.823-5.621z" fill="#ca4400"/><g fill="#171721"><path d="M650.147 146.268c-.555-.181-1.015-.575-1.281-1.097l-.413-.812 5.334 1.738-.811.414c-.521.266-1.125.313-1.68.132-1.165-.38.017.006-1.149-.374z"/><path d="M649.21 144.866l3.667 1.195.079-.243-.378-.89c-.1-.236-.298-.417-.541-.496l-1.19-.388c-.243-.079-.51-.049-.729.083l-.828.496-.079.243z"/></g><path d="M644.394 142.934a.88.88 0 0 0-.053-.676.89.89 0 0 0-.515-.441l-1.213-.395c-.223-.073-.465-.053-.675.053a.89.89 0 0 0-.44.516l-.1.309-1.761 5.429-.1.309c-.073.224-.053.467.053.676s.292.368.515.441l1.213.395a.88.88 0 0 0 .675-.053.89.89 0 0 0 .44-.516l1.961-6.046z" fill="#ef720b"/></g></g></svg>