<svg xmlns="http://www.w3.org/2000/svg" width="1500" height="145" xmlns:v="https://vecta.io/nano"><style><![CDATA[.B{fill-rule:evenodd}.C{fill:none}.D{opacity:.6}.E{opacity:.25}.F{fill:#fff}.G{opacity:.5}.H{fill:#e79543}.I{stroke-dasharray:0 9.279}.J{fill:#839c2f}.K{stroke-linecap:round}.L{stroke-linejoin:round}.M{clip-rule:evenodd}.N{opacity:.75}.O{fill:#ec5b37}.P{fill:#61d2bf}.Q{fill:#3a8095}.R{fill:#0d1c1c}.S{stroke-width:9.003}.T{stroke-dasharray:0 9.009}.U{fill:#8cd541}.V{fill:#a0e360}.W{fill:#4e7b3f}.X{fill:#fbed97}.Y{fill:#f3f7f7}.Z{fill:#f8d748}.a{fill:#3d806f}.b{fill:#61d2c0}.c{fill:#3e8095}.d{fill:#e9f5f5}.e{fill:#8b46cc}.f{fill:#22316e}.g{fill:#cf622b}.h{fill:#bd3f6f}.i{fill:#418e73}.j{fill:#de5b8d}.k{fill:#bdce42}.l{fill:#f2b052}]]></style><defs><clipPath id="A"><path d="M0 0h1500v145H0z" class="C"/></clipPath><clipPath id="B"><path d="M917.661 198.916h79.531v-54.388l-39.765-39.735-39.767 39.735v54.388z" class="C"/></clipPath><clipPath id="C"><path d="M838.13 198.916h79.531v-54.388l-39.765-39.735-39.767 39.735v54.388z" class="C"/></clipPath><clipPath id="D"><path d="M997.193 198.916h79.531v-54.388l-39.765-39.735-39.767 39.735v54.388z" class="C"/></clipPath><clipPath id="E"><path d="M1235.177 112.303h225.554v88.272h-225.554z" class="C"/></clipPath><clipPath id="F"><path d="M1235.221 195.092h21.341l91.572-119.035v186.624h.007v-.005h-112.92v-67.584z" class="C M"/></clipPath><clipPath id="G"><path d="M1348.048 73.798l.014-11.07V46.744h112.724v215.937h-112.724v-13.174l-.014-175.709z" class="C M"/></clipPath><clipPath id="H"><path d="M115.296 34.207h22.918l6.211 69.687a5.31 5.31 0 0 1-5.28 5.885h-24.892a5.31 5.31 0 0 1-5.279-5.895l6.322-69.676z" class="C"/></clipPath><clipPath id="I"><path d="M126.698 32.147c0 8.104-3.221 15.878-8.958 21.61a30.6 30.6 0 0 1-21.632 8.95H65.342V42.504A30.55 30.55 0 0 1 74.3 20.891a30.62 30.62 0 0 1 21.632-8.95h30.766v20.207z" class="C M"/></clipPath><clipPath id="J"><path d="M126.698 32.147c0 8.104 3.221 15.878 8.958 21.61a30.6 30.6 0 0 0 21.632 8.95h30.766V42.504a30.55 30.55 0 0 0-8.958-21.613 30.62 30.62 0 0 0-21.632-8.95h-30.766v20.207z" class="C M"/></clipPath><clipPath id="K"><path d="M126.681 62.707l18.376-13.381c10.15-7.391 11.297-22.091 2.416-30.964l-6.428-6.423h-28.729l-6.428 6.423c-8.881 8.873-7.734 23.573 2.416 30.964l18.376 13.381z" class="C M"/></clipPath><path id="L" d="M838.13 110.648v61.586h39.767V70.913l-39.767 39.735z"/><path id="M" d="M877.897 172.234h39.764v-61.586l-39.764-39.735v101.321z"/><path id="N" d="M917.661 198.926h79.531V137.34l-39.765-39.735-39.767 39.735v61.586z"/><path id="O" d="M985.442 102.408h4.991v98.893h-4.991z"/><path id="P" d="M838.13 198.916h79.531v-54.388l-39.765-39.735-39.767 39.735v54.388z"/><path id="Q" d="M1460.877 10.467c0-.31-.031-.622-.094-.934a4.67 4.67 0 0 0-.28-.872c-.125-.281-.25-.561-.437-.811a4.03 4.03 0 0 0-.56-.716c-1.747-1.713-4.865-1.745-6.642 0-.84.87-1.339 2.083-1.34 3.327h-.051a4.67 4.67 0 1 0-9.353 0h-.051a4.73 4.73 0 0 0-.094-.928 4.67 4.67 0 0 0-.28-.872c-.124-.281-.249-.561-.436-.811a3.99 3.99 0 0 0-.561-.716c-1.746-1.713-4.865-1.745-6.641 0-.84.87-1.34 2.083-1.341 3.327h-.051a4.67 4.67 0 1 0-9.353 0h-.051a4.67 4.67 0 1 0-9.353 0h-.051a4.67 4.67 0 1 0-9.353 0h-.145c0-.308-.031-.618-.094-.928a4.67 4.67 0 0 0-.28-.872c-.124-.281-.25-.561-.437-.811-.155-.25-.343-.499-.56-.717-1.747-1.713-4.865-1.745-6.641 0a4.84 4.84 0 0 0-1.341 3.327h-.051a4.67 4.67 0 0 0-9.354 0h-.051a4.73 4.73 0 0 0-.094-.928c-.063-.28-.155-.592-.28-.872s-.25-.561-.437-.811c-.155-.25-.343-.499-.56-.717-1.747-1.713-4.865-1.745-6.642 0-.84.87-1.339 2.083-1.34 3.327h-.051a4.67 4.67 0 1 0-9.353 0h-.051a4.67 4.67 0 1 0-9.353 0h-.051a4.67 4.67 0 1 0-9.353 0h-.002v4.683h112.898v-4.667z"/><path id="R" d="M1324.59 103.021c-1.247 0-2.433-.497-3.336-1.371a4.83 4.83 0 0 1-1.341-3.303c0-1.246.499-2.461 1.341-3.333 1.777-1.745 4.895-1.713 6.641 0a3.99 3.99 0 0 1 .56.717c.187.249.312.529.437.811a4.67 4.67 0 0 1 .28.872 4.79 4.79 0 0 1 .094.934c0 1.215-.499 2.431-1.372 3.303a4.73 4.73 0 0 1-3.305 1.371z"/><path id="S" d="M1315.186 103.021h0a4.69 4.69 0 0 0 4.677-4.673h0a4.67 4.67 0 0 0-4.677-4.673h0a4.67 4.67 0 0 0-4.677 4.673 4.69 4.69 0 0 0 4.677 4.673z"/><path id="T" d="M478.151-22.637h117.118v148.463H478.151z"/><path id="U" d="M583.074 129.79h-16.883v-8.93h16.883z"/><path id="V" d="M560.294 52.479h117.118v148.463H560.294z"/><path id="W" d="M153.889 39.933c1.248 0 2.477-.609 3.211-1.729a3.83 3.83 0 0 0-1.103-5.306l-15.589-10.217c-1.773-1.167-4.149-.664-5.308 1.1a3.83 3.83 0 0 0 1.103 5.306l15.589 10.217a3.8 3.8 0 0 0 2.097.629z"/></defs><g clip-path="url(#A)"><path d="M-20.02-4964.135h1540.04V310.02H-20.02z" fill="#00b365"/><path d="M1524.024-580.654v230.187h-343.765a687.8 687.8 0 0 0-236.53 41.949l-46.863 17.162a687.82 687.82 0 0 1-236.53 41.949H-9.333v558.999H1572.97v-890.246h-48.946z" fill="#00e2e2"/><path d="M1212.211-12.49c-76.136 0-138.076 61.941-138.076 138.077 0 9.374-7.626 17-17 17H950.872c-9.374 0-17-7.626-17-17v-2.009c0-36.943-30.057-67-67-67h-75.775c-41.992 0-76.156-34.163-76.156-76.156v-85.988c0-34.188-27.813-62-62-62H508.009c-34.187 0-62 27.812-62 62v1.583c0 6.616-5.383 12-12 12H356.81c-41.355 0-75 33.645-75 75v1.615c0 6.616-5.383 12-12 12H-54.406v1900.227h125.29c19.299 0 35 15.701 35 35v28.562c0 46.869 38.131 85 85 85h282.678c46.869 0 85-38.131 85-85v-4.012c0-19.299 15.701-35 35-35H694.46c106.145 0 192.5-86.354 192.5-192.5 0-13.785 11.215-25 25-25h189.302c13.785 0 25 11.215 25 25v6.941c0 13.785-11.215 25-25 25h-1.646c-41.355 0-75 33.646-75 75.001v134.569c0 41.355 33.645 75 75 75h68.108c41.355 0 75-33.645 75-75 0-34.095 27.737-61.833 61.832-61.833h254.837V-12.49h-347.181z" fill="#1ef7f1"/><path d="M1047.659 562.12h0c0-51.28 41.571-92.851 92.85-92.851h57.665c32.387 0 58.642-26.255 58.642-58.642h0c0-32.387 26.255-58.642 58.642-58.642h218.932V12.51h-322.181c-62.45 0-113.076 50.626-113.076 113.076h0c0 23.196-18.804 42-42 42H950.871c-23.196 0-42-18.804-42-42v-2.009c0-23.196-18.804-42-42-42h-75.776c-55.867 0-101.156-45.289-101.156-101.156v-85.988c0-20.435-16.565-37-37-37H508.007c-20.435 0-37 16.565-37 37v1.583c0 20.435-16.565 37-37 37h-77.199c-27.614 0-50 22.386-50 50v1.615c0 20.435-16.565 37-37 37H-29.406v1850.227H70.883c33.137 0 60 26.863 60 60v28.561c0 33.137 26.863 60 60 60h282.678c33.137 0 60-26.863 60-60v-4.011c0-33.137 26.863-60 60-60h100.898c92.508 0 167.5-74.992 167.5-167.5h0c0-27.614 22.386-50 50-50h189.302c27.614 0 50 22.386 50 50v6.942c0 27.614-22.386 50-50 50h-1.647c-27.614 0-50 22.386-50 50v134.57c0 27.614 22.386 50 50 50h68.108c27.614 0 50-22.386 50-50h0c0-47.956 38.876-86.832 86.832-86.832h229.837v-328.037c0-39.064-31.668-70.732-70.732-70.732h-323.15c-50.932 0-92.285-41.008-92.845-91.807l-.006-830.892z" class="X"/><path d="M1212.211 73.512c-29.313 0-53.076 23.763-53.076 53.076h0c0 56.333-45.667 102-102 102H703.547c-40.652 0-73.606-32.955-73.606-73.606V-55.566c0-14.359-11.641-26-26-26h-56.442c-10.394 0-19.895 6.146-23.89 15.742-14.612 35.099-49.272 59.841-89.6 59.841h-46.653c-11.17 0-21.157 7.295-24.204 18.042-11.534 40.685-49.013 70.574-93.342 70.574H.489l-11.374 1742.34 115.314-.491c49.895 14.55 86.454 60.7 86.454 115.229v.695c.001 13.259 10.754 24.004 24.013 23.997l236.679-.131c11.698-.007 21.708-8.443 23.64-19.98 9.508-56.77 58.875-100.032 118.346-100.032h100.898c59.37 0 107.5-48.129 107.5-107.5h0c0-60.752 49.249-110 110-110h189.003c21.384 0 38.798-17.186 39.08-38.568h0c.246-18.686-12.768-34.942-31.062-38.758-28.801-6.009-55.263-20.244-76.552-41.532-28.243-28.244-44.073-65.595-44.746-105.431-.015-.883-.022-838.466-.022-839.351 0-40.828 15.899-79.212 44.769-108.081s67.254-44.769 108.082-44.769h28.622c14.589 0 27.327-10.069 30.48-24.313 11.76-53.123 59.237-92.972 115.846-92.972h312.76V73.512h-416.008z" fill="#62c244"/><g stroke="#62c244" stroke-width="10" class="C K L"><path d="M.489 82.633h0"/><path d="M.424 92.646l-11.277 1727.32" stroke-dasharray="0 10.014"/><path d="M1618.243 73.512H1212.21c-29.313 0-53.076 23.763-53.076 53.076h0c0 56.333-45.667 102-102 102H703.546c-40.652 0-73.606-32.955-73.606-73.606V-55.565c0-14.359-11.641-26-26-26h-56.442c-10.394 0-19.895 6.146-23.89 15.742-14.612 35.099-49.272 59.841-89.6 59.841h-46.653c-11.17 0-21.157 7.295-24.204 18.042-11.534 40.685-49.013 70.574-93.342 70.574H5.477" stroke-dasharray="0 9.976"/></g><use href="#L" class="F"/><use href="#M" class="Y"/><path d="M917.672 110.648v61.586h39.767V70.913l-39.767 39.735z" class="F"/><path d="M957.439 172.234h39.764v-61.586l-39.764-39.735v101.321z" class="Y"/><path d="M997.214 110.648v61.586h39.767V70.913l-39.767 39.735z" class="F"/><path d="M1036.981 172.234h39.764v-61.586l-39.764-39.735v101.321z" class="Y"/><use href="#N" class="F"/><path d="M917.661 198.916h79.532v-54.388l-39.765-39.735-39.767 39.735v54.388z" class="Z"/><g class="N F"><g clip-path="url(#B)"><use href="#O"/><path d="M970.187 102.408h4.991v98.893h-4.991zm-15.255 0h4.991v98.893h-4.991zm-15.256 0h4.991v98.893h-4.991zm-15.255 0h4.991v98.893h-4.991z"/></g></g><path d="M838.13 198.926h79.531V137.34l-39.765-39.735-39.767 39.735v61.586z" class="F"/><use href="#P" fill="#73c75e"/><g class="N F"><g clip-path="url(#C)"><path d="M905.911 102.408h4.991v98.893h-4.991zm-15.256 0h4.991v98.893h-4.991zm-15.255 0h4.991v98.893H875.4zm-15.255 0h4.991v98.893h-4.991zm-15.255 0h4.991v98.893h-4.991z"/></g></g><path style="mix-blend-mode:multiply" d="M957.426 104.693l-39.765 39.735v7.189l39.765-39.735 39.767 39.735v-7.189l-39.767-39.735z" class="G Z"/><path style="mix-blend-mode:multiply" d="M877.895 104.693l-39.765 39.735v7.189l39.765-39.735 39.766 39.735v-7.189l-39.766-39.735z" fill="#c5bdef" class="G"/><path d="M997.193 198.926h79.531V137.34l-39.765-39.735-39.767 39.735v61.586z" class="F"/><path d="M997.193 198.916h79.531v-54.388l-39.765-39.735-39.767 39.735v54.388z" fill="#5cc7c8"/><g class="N F"><g clip-path="url(#D)"><path d="M1064.973 102.408h4.991v98.893h-4.991zm-15.255 0h4.991v98.893h-4.991zm-15.255 0h4.991v98.893h-4.991zm-15.255 0h4.991v98.893h-4.991zm-15.256 0h4.991v98.893h-4.991z"/></g></g><path style="mix-blend-mode:multiply" d="M1036.957 104.693l-39.764 39.735v7.189l39.764-39.735 39.767 39.735v-7.189l-39.767-39.735z" fill="#c5bdef" class="G"/><path d="M1348.022 14.056h112.675v33.541h-112.675z" fill="#dd4524"/><g class="O"><path d="M1348.022 14.056h112.675v7.383h-112.675z"/><path d="M1355.411 14.056v40.523h-7.389V14.056zm105.205 0v40.523h-7.389V14.056z"/></g><use href="#Q" class="a"/><path d="M1235.221 71.717h112.675v33.541h-112.675z" fill="#dd4524"/><g class="O"><path d="M1235.221 71.717h112.675V79.1h-112.675z"/><path d="M1242.61 71.718v40.523h-7.389V71.718z"/></g><g class="a"><use href="#R"/><use href="#S"/><path d="M1343.399 103.021c-1.247 0-2.433-.497-3.336-1.371a4.83 4.83 0 0 1-1.341-3.303c0-1.246.499-2.461 1.341-3.333 1.777-1.745 4.895-1.713 6.641 0a3.99 3.99 0 0 1 .56.717c.187.249.312.529.437.811a4.67 4.67 0 0 1 .28.872 4.79 4.79 0 0 1 .094.934c0 1.215-.499 2.431-1.372 3.303a4.73 4.73 0 0 1-3.305 1.371zm-9.404 0h0a4.69 4.69 0 0 0 4.677-4.673h0a4.67 4.67 0 0 0-4.677-4.673h0a4.67 4.67 0 0 0-4.677 4.673 4.69 4.69 0 0 0 4.677 4.673z"/><path d="M1310.458 98.342a4.677 4.677 0 1 0-9.353 0h-.051a4.677 4.677 0 1 0-9.353 0h-.145c0-.308-.031-.618-.094-.928a4.67 4.67 0 0 0-.28-.872c-.124-.281-.25-.561-.437-.811-.155-.25-.343-.499-.56-.717-1.747-1.713-4.865-1.745-6.641 0a4.84 4.84 0 0 0-1.341 3.327h-.051a4.677 4.677 0 0 0-9.354 0h-.051a4.73 4.73 0 0 0-.094-.928c-.063-.28-.155-.592-.28-.872s-.25-.561-.437-.811c-.155-.25-.343-.499-.56-.717-1.747-1.713-4.865-1.745-6.642 0-.84.87-1.339 2.083-1.34 3.327h-.051a4.677 4.677 0 1 0-9.353 0h-.051a4.677 4.677 0 1 0-9.353 0h-.051a4.677 4.677 0 1 0-9.353 0h-.002v4.683h112.898V98.34h-37.618zm37.618-30.214c0-.31-.031-.622-.094-.934a4.67 4.67 0 0 0-.28-.872c-.125-.281-.25-.561-.437-.811a4.03 4.03 0 0 0-.56-.716c-1.747-1.713-4.865-1.745-6.642 0-.84.87-1.339 2.083-1.34 3.327h-.051a4.677 4.677 0 1 0-9.353 0h-.051a4.73 4.73 0 0 0-.094-.928 4.67 4.67 0 0 0-.28-.872c-.124-.281-.249-.561-.436-.811a3.99 3.99 0 0 0-.561-.716c-1.746-1.713-4.865-1.745-6.641 0-.84.87-1.34 2.083-1.341 3.327h-.051a4.677 4.677 0 1 0-9.353 0h-.051a4.677 4.677 0 1 0-9.353 0h-.051a4.677 4.677 0 1 0-9.353 0h-.145c0-.308-.031-.618-.094-.928a4.67 4.67 0 0 0-.28-.872c-.124-.281-.25-.561-.437-.811-.155-.25-.343-.499-.56-.717-1.747-1.713-4.865-1.745-6.641 0a4.84 4.84 0 0 0-1.341 3.327h-.051a4.677 4.677 0 0 0-9.354 0h-.051a4.73 4.73 0 0 0-.094-.928c-.063-.28-.155-.592-.28-.872s-.25-.561-.437-.811c-.155-.25-.343-.499-.56-.717-1.747-1.713-4.865-1.745-6.642 0-.84.87-1.339 2.083-1.34 3.327h-.051a4.677 4.677 0 1 0-9.353 0h-.051a4.677 4.677 0 1 0-9.353 0h-.051a4.677 4.677 0 1 0-9.353 0h-.002v4.683h112.898v-4.667z"/></g><path d="M1235.177 108.654h225.439v154.04h-225.439z" class="b"/><path d="M1235.177 112.303h225.554v88.272h-225.554z" class="E c"/><g clip-path="url(#E)" class="B d"><path d="M1259.179 108.654h-45.102l71.036 160.717h45.946l-71.88-160.717z" class="E"/></g><path d="M1235.177 103.021h225.554v14.094h-225.554z" class="O"/><path d="M1348.141 46.744l-112.92 148.349h112.92V46.744z" class="B e"/><g style="mix-blend-mode:multiply" class="E B c"><path d="M1348.134 76.057l-91.571 119.036h91.571V76.057z"/></g><path d="M1348.141 93.675l-79.143 102.88 79.143 21.071V93.675z" class="B b"/><g clip-path="url(#F)" class="B d"><path style="mix-blend-mode:overlay" d="M1370.705 59.167l-56.839.746 105.563 226.488 52.723-.407-101.447-226.827z" class="E"/><path d="M1266.034 60.688h-21.455l99.765 225.713h22.639L1266.034 60.688zm-70.64 0h-21.456l99.765 225.713h22.639L1195.394 60.688z" class="E"/><path style="mix-blend-mode:overlay" d="M1432.187 60.688h-21.455l99.765 225.713h22.639L1432.187 60.688z" class="E"/></g><path d="M1449.251 72.957h11.409v189.724h-11.409z" class="e"/><path d="M1348.062 46.744h112.724v216.017h-112.724" class="B b"/><g style="mix-blend-mode:multiply" class="E c"><path d="M1460.798 72.942h-107.105v-9.625h107.105z"/></g><g clip-path="url(#G)" class="B d"><path d="M1427.22 45.997l-56.839.747 105.563 226.488 52.723-.408L1427.22 45.997zm-107.645 1.521h-21.455l99.765 225.714h22.639L1319.575 47.518z" class="E"/></g><path d="M1359.322 46.744v.012h33.834v-.012h11.26v.012h56.376v16.589h-50.735v199.336h-11.26V63.345h-39.475v199.336h-11.26V46.744h11.26z" class="B O"/><path d="M1460.797 42.07a4.79 4.79 0 0 0-.094-.934 4.67 4.67 0 0 0-.28-.872c-.124-.281-.25-.561-.436-.811a3.99 3.99 0 0 0-.561-.716c-1.747-1.713-4.865-1.745-6.641 0-.84.87-1.34 2.083-1.341 3.327h-.051a4.67 4.67 0 1 0-9.353 0h-.051c0-.308-.031-.618-.094-.928a4.67 4.67 0 0 0-.28-.872c-.124-.281-.25-.561-.437-.811a4.03 4.03 0 0 0-.56-.716c-1.746-1.713-4.865-1.745-6.641 0a4.84 4.84 0 0 0-1.341 3.327h-.051a4.67 4.67 0 0 0-9.352 0h-.051a4.67 4.67 0 1 0-9.353 0h-.051a4.67 4.67 0 0 0-9.354 0h-.144a4.73 4.73 0 0 0-.094-.928c-.063-.28-.156-.592-.28-.872s-.25-.561-.437-.811a3.99 3.99 0 0 0-.561-.716c-1.746-1.713-4.864-1.745-6.641 0-.84.87-1.339 2.083-1.34 3.327h-.051a4.67 4.67 0 1 0-9.353 0h-.051c0-.308-.031-.618-.094-.928a4.67 4.67 0 0 0-.28-.872c-.125-.281-.25-.561-.437-.811-.156-.249-.343-.499-.561-.716-1.746-1.713-4.865-1.745-6.641 0-.84.87-1.339 2.083-1.34 3.327h-.051a4.67 4.67 0 1 0-9.353 0h-.051a4.67 4.67 0 0 0-9.354 0h-.051a4.67 4.67 0 1 0-9.353 0h-.002v4.683h112.898v-4.666z" class="a"/><use href="#T" fill="#83c83c"/><g stroke="#83c83c" class="C K L S"><path d="M595.269 125.825h0"/><path d="M586.26 125.825H482.656" class="T"/><path d="M478.151 125.825h0"/><g class="I"><path d="M478.151 116.547V-17.998m117.118 4.639v134.545"/></g></g><path d="M478.151 5.142h117.118v148.463H478.151z" class="U"/><g stroke="#8cd541" class="C K L S"><path d="M478.151 144.326V9.782" class="I"/><path d="M478.151 5.142h0"/><path d="M487.16 5.142h103.604" class="T"/><path d="M595.269 5.142h0"/><path d="M595.269 14.421v134.545" class="I"/></g><g class="P"><path d="M515.55 120.86h16.883v18.42H515.55zm-25.316 0h16.883v18.42h-16.883zm50.641 0h16.883v18.42h-16.883zm25.315 0h16.883v18.42H566.19z"/></g><use href="#U" class="E Q"/><path d="M566.19 93.131h16.883v18.42H566.19z" class="P"/><g class="Q"><path d="M583.074 102.061h-16.883v-8.93h16.883zm-42.199 18.799h16.883v8.93h-16.883zm-8.443 8.93h-16.883v-8.93h16.883z" class="E"/></g><path d="M490.234 93.181h67.524v18.42h-67.524z" class="P"/><path d="M557.757 102.112h-67.524v-8.93h67.524z" class="E Q"/><path d="M507.117 19.007h76.194v46.248h-76.194z" class="P"/><g class="Q"><path d="M583.311 27.936h-76.194v-8.93h76.194zM507.116 129.79h-16.883v-8.93h16.883z" class="E"/></g><path d="M520.159,134.675h0c0,2.548-2.088,4.605-4.609,4.605h0c-2.549,0-4.609-2.057-4.609-4.605h0c0-2.547,2.06-4.605,4.609-4.605,2.521,0,4.609,2.058,4.609,4.605Z" class="U"/><path d="M587.683,106.946h0c0,2.548-2.088,4.605-4.609,4.605h0c-2.549,0-4.609-2.057-4.609-4.605h0c0-2.547,2.06-4.605,4.609-4.605,2.521,0,4.609,2.058,4.609,4.605Z" class="V"/><g class="U"><path d="M511.726 60.699h0c0 2.548-2.088 4.605-4.609 4.605h0c-2.549 0-4.609-2.057-4.609-4.605h0c0-2.547 2.06-4.605 4.609-4.605 2.521 0 4.609 2.058 4.609 4.605zm0-9.26h0c0 2.548-2.088 4.605-4.609 4.605h0c-2.549 0-4.609-2.057-4.609-4.605h0c0-2.547 2.06-4.605 4.609-4.605 2.521 0 4.609 2.058 4.609 4.605zm0-9.259h0c0 2.548-2.088 4.605-4.609 4.605h0c-2.549 0-4.609-2.057-4.609-4.605h0c0-2.547 2.06-4.605 4.609-4.605 2.521 0 4.609 2.058 4.609 4.605z"/></g><path d="M562.367,125.465h0c0,2.548-2.088,4.605-4.609,4.605h0c-2.549,0-4.609-2.057-4.609-4.605h0c0-2.547,2.06-4.605,4.609-4.605,2.521,0,4.609,2.058,4.609,4.605Z" class="V"/><use href="#V" class="U"/><g stroke="#8cd541" class="C K L S"><path d="M560.294 191.663V57.118" class="I"/><path d="M560.294 52.479h0"/><path d="M569.303 52.479h103.604" class="T"/><path d="M677.411 52.479h0"/><path d="M677.411 61.758v134.544" class="I"/></g><path d="M560.294 80.258h117.118v148.463H560.294z" class="V"/><g stroke="#a0e360" class="C K L S"><path d="M560.294 219.442V84.898" class="I"/><path d="M560.294 80.258h0"/><path d="M569.303 80.258h103.604" class="T"/><path d="M677.411 80.258h0"/><path d="M677.411 89.537v134.545" class="I"/></g><path d="M589.259 94.123h76.194v46.248h-76.194z" class="P"/><path d="M665.453 103.052h-76.194v-8.93h76.194z" class="E Q"/><g class="V"><path d="M593.868 135.815h0c0 2.548-2.088 4.605-4.609 4.605h0c-2.549 0-4.609-2.057-4.609-4.605h0c0-2.547 2.06-4.605 4.609-4.605 2.521 0 4.609 2.058 4.609 4.605zm0-9.26h0c0 2.548-2.088 4.605-4.609 4.605h0c-2.549 0-4.609-2.057-4.609-4.605h0c0-2.547 2.06-4.605 4.609-4.605 2.521 0 4.609 2.058 4.609 4.605zm0-9.259h0c0 2.548-2.088 4.605-4.609 4.605h0c-2.549 0-4.609-2.057-4.609-4.605h0c0-2.547 2.06-4.605 4.609-4.605 2.521 0 4.609 2.058 4.609 4.605z"/></g><path d="M716.579 15.659c-.542-1.869.346-3.77 1.981-4.243s3.403.659 3.944 2.528l17.349 59.828-5.925 1.715-17.349-59.828z" fill="#3a4517" class="B"/><path d="M754.105 35.985a1.92 1.92 0 0 0 1.273-2.498c-5.245-14.314-20.768-22.324-35.643-18.018s-23.708 19.368-20.482 34.266c.235 1.083 1.347 1.739 2.413 1.431l52.439-15.181z" fill="#0000b7"/><path d="M743.419 39.079c-4.501-15.523-15.105-26.093-23.684-23.609s-11.884 17.08-7.383 32.603l31.066-8.994z" class="e"/><g class="X"><rect x="736.97" y="71.249" width="4.455" height="6.677" rx="2.227" transform="matrix(-.960556 .278086 -.278086 -.960556 1469.981 -59.324)"/><rect x="732.691" y="72.487" width="4.455" height="6.677" rx="2.227" transform="matrix(-.960556 .278086 -.278086 -.960556 1461.936 -55.705)"/></g><path d="M796.976,45.032c.542-1.869-.346-3.77-1.981-4.243s-3.403.659-3.944,2.528l-17.349,59.828,5.925,1.715,17.349-59.828Z" fill="#3a4517" class="B"/><path d="M759.449 65.358a1.92 1.92 0 0 1-1.273-2.498c5.245-14.314 20.768-22.324 35.643-18.018s23.708 19.368 20.482 34.266c-.235 1.083-1.347 1.739-2.413 1.431l-52.439-15.181z" class="O"/><path d="M770.136 68.452c4.501-15.523 15.105-26.093 23.684-23.609s11.884 17.08 7.383 32.603l-31.066-8.994z" class="Z"/><g class="X"><rect x="772.129" y="100.621" width="4.455" height="6.677" rx="2.227" transform="matrix(.960561 .278069 -.278069 .960561 59.451 -211.231)"/><rect x="776.409" y="101.86" width="4.455" height="6.677" rx="2.227" transform="matrix(.960556 .278086 -.278086 .960556 59.965 -212.374)"/></g><rect x="271.236" y="100.651" width="32.601" height="5.028" rx="2.514" fill="#6ea7a1" opacity=".2"/><g class="B"><path d="M272.407,79.51c-.605-.626-.588-1.624.039-2.229l5.641-5.423c.554-.532,1.434-.516,1.968.036l.255.263c.536.554.519,1.438-.036,1.973l-5.636,5.418c-.626.605-1.624.588-2.229-.039h0Z" class="H"/><path d="M275.602 73.143l3.131 3.357 2.681-2.589a2.19 2.19 0 0 0-.275-3.378l-.457-.316a1.88 1.88 0 0 0-2.407.224l-2.674 2.702z" fill="#225339"/><path d="M274.718 77.37l-5.385-6.09c-.308-.348-.834-.38-1.182-.072l-1.107.979a.84.84 0 0 0-.071 1.185l5.382 6.087a1.58 1.58 0 0 0 2.226.137h0c.652-.577.714-1.572.138-2.225z" class="H"/></g><path d="M288.349 85.55h-8.883v-2.576h8.883z" class="f"/><g class="B"><g class="H"><path d="M279.483 84.54l-.094 8.359a1.75 1.75 0 0 0 1.804 1.768h0a1.75 1.75 0 0 0 1.695-1.73l.09-8.359a1.75 1.75 0 0 0-1.802-1.766h0c-.936.029-1.683.791-1.693 1.727z"/><path d="M279.39 92.918v10.247h3.495V92.943c.007-.994-.815-1.793-1.809-1.758h0c-.936.033-1.68.797-1.686 1.734z"/></g><path d="M282.871 101.363h-4.716a1.27 1.27 0 0 0-1.269 1.269v.534h5.984v-1.803z" class="R"/><path d="M283.652 82.485l-4.102-1.081-.306.588c-.292.56-.426 1.189-.388 1.82l.185 8.385h4.106l.506-9.712z" class="f"/><g class="H"><path d="M285.036 84.605l2.394 8.01a1.75 1.75 0 0 0 2.247 1.153h0a1.75 1.75 0 0 0 1.105-2.155l-2.397-8.009a1.75 1.75 0 0 0-2.245-1.151h0a1.75 1.75 0 0 0-1.104 2.152z"/><path d="M287.634 93.064l5.568 8.602 2.934-1.899-5.555-8.581a1.75 1.75 0 0 0-2.474-.493h0c-.768.536-.977 1.582-.473 2.372z"/></g><path d="M295.147 98.238l-3.999 2.589c-.285.185-.485.475-.557.807s-.007.679.177.965l.293.453 5.074-3.285-.989-1.529z" class="R"/><path d="M284.165 82.583l3.738-2.006.435.501a3.49 3.49 0 0 1 .801 1.679l1.772 8.198-3.993.955-2.752-9.327z" class="f"/><path d="M281.891 70.818h4.485v-3.605l-4.485.639v2.966z" class="g"/><path d="M279.126 70.416a.54.54 0 0 1 .537-.517h8.692a.54.54 0 0 1 .537.517l.523 13.121h-10.813l.523-13.121z" fill="#2b663c"/><path d="M290.746,81.246c.852-.18,1.396-1.017,1.216-1.869l-1.638-7.652c-.161-.751-.899-1.231-1.651-1.072l-.358.076c-.754.16-1.236.901-1.074,1.655l1.637,7.645c.18.852,1.017,1.396,1.869,1.216h0Z" class="H"/><path d="M291.593 75.152l-4.474 1.028-.772-3.646a2.19 2.19 0 0 1 2.119-2.645l.556-.006a1.88 1.88 0 0 1 1.869 1.533l.703 3.736z" fill="#408f4d"/><path d="M291.987 79.721l.543 8.111c.031.463-.317.86-.78.891l-1.474.099a.84.84 0 0 1-.892-.783l-.543-8.107a1.58 1.58 0 0 1 1.468-1.679h0c.869-.058 1.62.598 1.678 1.467z" class="H"/><path d="M289.052 68.119l-1.175-.003V48.125l1.771.004a5.69 5.69 0 0 1 5.678 5.69v8.041a6.26 6.26 0 0 1-6.273 6.259z" class="R"/></g><ellipse cx="272.814" cy="60.156" rx="4.103" ry="4.136" class="g"/><rect x="272.414" y="52.671" width="20.874" height="15.495" rx="3.874" class="H"/><g class="B R"><path d="M284.387 59.853c0-.252.204-.456.456-.456h1.822c.252 0 .456.204.456.456l.012 4.086c0 .252-.204.456-.456.456h-1.822c-.252 0-.456-.204-.456-.456l-.012-4.086zm-9.291.085c0-.252.204-.456.456-.456h1.822c.252 0 .456.204.456.456l.012 4.086c0 .252-.204.456-.456.456h-1.822c-.252 0-.456-.204-.456-.456l-.012-4.086zm-6.639-10.072l.005-1.742h20.799a5.69 5.69 0 0 1 5.69 5.707l-.005 1.742h-20.799a5.69 5.69 0 0 1-5.69-5.707z"/><path d="M288.194 55.573l.006-7.448 7.091 5.612-.006 7.449-7.091-5.613z"/></g><ellipse cx="293.542" cy="60.854" rx="4.103" ry="4.136" class="H"/><path d="M293.542 59.475c-.755 0-1.368.618-1.368 1.379s.613 1.379 1.368 1.379 1.368-.618 1.368-1.379-.613-1.379-1.368-1.379z" class="B g"/><rect x="222.696" y="107.386" width="32.601" height="5.028" rx="2.514" fill="#6ea7a1" opacity=".2"/><g class="h"><path d="M237.285 75.395h3.741v2.527h-3.741z"/><g class="B"><path d="M243.311 99.402l1.08 9.374-3.819.419-1.074-9.34a1.92 1.92 0 0 1 1.76-2.141h0a1.92 1.92 0 0 1 2.053 1.687z"/></g></g><path d="M240.571,109.194l5.203-.568c.371-.041.743.068,1.034.302s.477.574.518.945l.064.589-6.602.721-.217-1.989Z" class="B i"/><path d="M242.618 89.118l-4.25.323-.23.883 1.36 9.531 3.841-.086-.721-10.651z" class="B h"/><g class="j B"><path d="M241.026 92.865l-.241 8.787c.058 1.092-.805 2.012-1.899 2.024h0a1.92 1.92 0 0 1-1.94-1.821l-.588-11.171 4.668 2.181z"/><path d="M239.693 103.51l-8.813 4.384-1.747-3.459 8.849-4.364a1.92 1.92 0 0 1 2.608.937h0a1.92 1.92 0 0 1-.898 2.501z"/></g><path d="M229.551 104.227l2.321 4.691a1.41 1.41 0 0 1-.637 1.886l-.531.263-2.946-5.952 1.793-.887z" class="B i"/><path d="M245.149 98.518h-10.535l1.159-19.298c.034-.811.701-1.45 1.513-1.45h2.722a3.54 3.54 0 0 1 3.523 3.212l1.617 17.536z" fill="#95ce64" class="B"/><path d="M245.149 98.518l-.949-10.552h-8.948l-.637 10.552h10.534z" class="B i"/><g class="j B"><path d="M233.195 88.892c.875.386 1.898-.011 2.284-.887l3.447-7.876a1.53 1.53 0 0 0-.785-2.015l-.368-.162a1.53 1.53 0 0 0-2.02.787l-3.444 7.869c-.386.875.011 1.898.887 2.284h0z"/><path d="M234.927 85.952l7.164 5.334a.92.92 0 0 1 .188 1.288l-.969 1.302a.92.92 0 0 1-1.291.187l-7.159-5.332c-.767-.571-.926-1.657-.355-2.424h0c.571-.767 1.656-.927 2.423-.356zm15.619-24.559a3.72 3.72 0 0 0-3.705-3.73l-14.538-.05a3.72 3.72 0 0 0-3.73 3.705l-.019 9.404a5.47 5.47 0 0 0 5.452 5.489l12.784.044a3.72 3.72 0 0 0 3.73-3.705l.025-11.157z"/></g><g class="R"><path d="M246.112 66.826h1.878c.241 0 .436.196.436.436v4.136a.44.44 0 0 1-.439.439h-1.872a.44.44 0 0 1-.439-.439v-4.136c0-.241.196-.436.436-.436z"/><g class="B"><path d="M226.173 61.424c1.307-3.333 4.43-5.326 7.754-5.315h17.482l-.011 2.468c-.007 1.678-.943 3.213-2.431 3.988l-7.166 3.709v15.59l-16.207-6.703.047-10.717c.003-1.029.157-2.062.532-3.02z"/></g></g><path d="M236.297 64.655l-.028 8.476c-2.32-.008-4.198-1.913-4.19-4.252s1.898-4.232 4.218-4.224z" class="B j"/><path d="M236.288 67.48l-.009 2.825a1.41 1.41 0 0 1-1.397-1.417c.003-.78.633-1.411 1.406-1.408z" class="B h"/><g fill="#95ce64"><rect x="238.993" y="65.261" width="5.25" height="2.026" rx=".434" transform="matrix(.99999 .004416 -.004416 .99999 .295 -1.065)"/><g class="B"><path d="M229.551 104.227l1.578-.775 1.679 3.483-1.538.766-1.719-3.474zm11.02 4.967l-.19-1.656 3.816-.445.194 1.683-3.82.418z"/></g></g><path d="M115.296 34.207h22.918l6.211 69.687a5.31 5.31 0 0 1-5.28 5.885h-24.892a5.31 5.31 0 0 1-5.279-5.895l6.322-69.676z" fill="#6a4c46"/><g clip-path="url(#H)" class="B"><path d="M126.681 75.174l18.735-13.642c10.348-7.535 11.518-22.522 2.464-31.569l-6.554-6.548h-29.29l-6.554 6.548c-9.054 9.047-7.885 24.034 2.464 31.569l18.735 13.642z" fill="#594238"/></g><path d="M126.698 32.147c0 8.104-3.221 15.878-8.958 21.61a30.6 30.6 0 0 1-21.632 8.95H65.342V42.504A30.55 30.55 0 0 1 74.3 20.891a30.62 30.62 0 0 1 21.632-8.95h30.766v20.207z" fill="#abbe3c" class="B"/><g clip-path="url(#I)"><path d="M126.698 11.94L58.229 70.462h68.469V11.94z" class="B J"/><path d="M62.935 59.033L124.258 8.95l4.848 5.936-61.322 50.083z" class="k"/><g class="B"><g class="W"><path d="M90.908 66.017h7.669V53.128c0-2.115-1.718-3.831-3.835-3.831s-3.835 1.716-3.835 3.831v12.889zm15.338.567h7.669V41.151a3.83 3.83 0 0 0-3.831-3.828h-.008a3.83 3.83 0 0 0-3.831 3.828v25.433z" class="G"/></g><g class="J"><path d="M65.343 41.227V33.97H77.05c.963 0 1.887.383 2.569 1.065a3.62 3.62 0 0 1 1.062 2.563h0c0 .966-.383 1.885-1.062 2.567s-1.607 1.061-2.569 1.061H65.343zm0-14.919v-7.663h23.012a3.83 3.83 0 0 1 3.831 3.828v.008a3.83 3.83 0 0 1-3.831 3.828H65.343z" class="N"/></g></g></g><path d="M126.698 32.147c0 8.104 3.221 15.878 8.958 21.61a30.6 30.6 0 0 0 21.632 8.95h30.766V42.504a30.55 30.55 0 0 0-8.958-21.613 30.62 30.62 0 0 0-21.632-8.95h-30.766v20.207z" fill="#abbe3c" class="B"/><g clip-path="url(#J)"><path d="M126.698 11.94l68.469 58.522h-68.469V11.94z" class="B J"/><path d="M124.275 14.91l4.844-5.939 61.357 50.04-4.844 5.939z" class="k"/><g class="B"><g class="W"><path d="M162.489 66.017h-7.669V53.128c0-2.115 1.718-3.831 3.835-3.831s3.835 1.716 3.835 3.831v12.889zm-15.339.567h-7.669v-25.43c0-1.015.403-1.989 1.124-2.709s1.695-1.123 2.711-1.123a3.84 3.84 0 0 1 2.711 1.123c.721.72 1.124 1.694 1.124 2.709v25.43z" class="G"/></g><g class="J"><path d="M188.054 41.634v-7.663h-11.508c-1.016 0-1.99.402-2.707 1.123a3.81 3.81 0 0 0-1.124 2.705v.008c0 1.015.403 1.989 1.124 2.709a3.83 3.83 0 0 0 2.707 1.119h11.508zm0-15.326v-7.663h-23.008a3.84 3.84 0 0 0-2.711 1.123c-.721.72-1.124 1.694-1.124 2.709a3.82 3.82 0 0 0 1.124 2.709 3.83 3.83 0 0 0 2.711 1.123h23.008z" class="N"/></g></g></g><path d="M126.681 62.707l18.376-13.381c10.15-7.391 11.297-22.091 2.416-30.964l-6.428-6.423h-28.729l-6.428 6.423c-8.881 8.873-7.734 23.573 2.416 30.964l18.376 13.381z" class="B k"/><g clip-path="url(#K)"><path d="M126.681 64.594H97.689V9.614h28.992z" class="J"/><path d="M122.862 6.405h7.669v66.829h-7.669z" fill="#d6e14c"/><g class="G J"><use href="#W"/></g><g class="G W"><path d="M99.509 39.933a3.8 3.8 0 0 0 2.097-.629l15.584-10.217c1.773-1.16 2.267-3.535 1.103-5.306-1.158-1.764-3.52-2.27-5.308-1.1L97.401 32.898c-1.773 1.16-2.267 3.535-1.103 5.306.734 1.12 1.962 1.729 3.211 1.729z"/></g><path d="M153.889 57.404c1.248 0 2.477-.609 3.211-1.729a3.83 3.83 0 0 0-1.103-5.306l-15.589-10.217c-1.773-1.167-4.149-.664-5.308 1.1a3.83 3.83 0 0 0 1.103 5.306l15.589 10.217a3.8 3.8 0 0 0 2.097.629z" class="G J"/><g class="G W"><path d="M99.509 57.404a3.8 3.8 0 0 0 2.097-.629l15.584-10.217c1.773-1.16 2.267-3.535 1.103-5.306-1.158-1.764-3.52-2.27-5.308-1.1L97.401 50.369c-1.773 1.16-2.267 3.535-1.103 5.306.734 1.12 1.962 1.729 3.211 1.729z"/></g></g><path d="M95.545 109.778l62.308-.68" fill="#62c244" stroke="#62c244" stroke-dasharray="0 10" stroke-width="10" class="K L"/><g opacity=".35" class="l"><circle cx="745.569" cy="114.504" r="2.427" transform="matrix(.541371 -.840784 .840784 .541371 245.666 679.378)" class="D"/><circle cx="736.387" cy="111.956" r="2.427" transform="matrix(.541371 -.840784 .840784 .541371 243.597 670.489)" class="D"/><circle cx="741.055" cy="105.796" r="2.427" transform="matrix(.541371 -.840784 .840784 .541371 250.917 671.588)" class="D"/><circle cx="719.194" cy="102.06" r="2.427" transform="matrix(.541371 -.840784 .840784 .541371 244.033 651.495)" class="D"/><circle cx="719.602" cy="118.438" r="2.427" transform="matrix(.541371 -.840784 .840784 .541371 230.45 659.349)" class="D"/></g><g opacity=".35" class="l"><circle cx="1138.414" cy="90.137" r="2.425" transform="matrix(.81188 -.583825 .583825 .81188 161.53 681.583)" class="D"/><circle cx="1132.678" cy="97.746" r="2.425" transform="matrix(.81188 -.583825 .583825 .81188 156.008 679.665)" class="D"/><circle cx="1128.658" cy="91.146" r="2.425" transform="matrix(.81188 -.583825 .583825 .81188 159.106 676.077)" class="D"/><circle cx="1117.169" cy="110.115" r="2.425" transform="matrix(.81188 -.583825 .583825 .81188 145.87 672.938)" class="D"/><circle cx="1132.556" cy="115.739" r="2.425" transform="matrix(.81188 -.583825 .583825 .81188 145.481 682.979)" class="D"/></g><g opacity=".35" class="l"><circle cx="339.023" cy="51.04" r="2.427" transform="matrix(.541371 -.840784 .840784 .541371 112.572 308.454)" class="D"/><circle cx="329.841" cy="48.492" r="2.427" transform="matrix(.541371 -.840784 .840784 .541371 110.503 299.565)" class="D"/><circle cx="334.509" cy="42.332" r="2.427" transform="matrix(.541371 -.840784 .840784 .541371 117.823 300.664)" class="D"/><circle cx="312.648" cy="38.596" r="2.427" transform="matrix(.541371 -.840784 .840784 .541371 110.938 280.571)" class="D"/><circle cx="313.056" cy="54.973" r="2.427" transform="matrix(.541371 -.840784 .840784 .541371 97.356 288.425)" class="D"/></g></g></svg>