<svg xmlns="http://www.w3.org/2000/svg" width="1500" height="145" xmlns:v="https://vecta.io/nano"><style><![CDATA[.B{fill:none}.C{opacity:.2}.D{opacity:.146}.E{fill:#4aa3bd}.F{fill:#2f6ea2}.G{fill:#f0f0f0}.H{stroke-linecap:round}.I{stroke-linejoin:round}.J{stroke-miterlimit:10}.K{opacity:.6}.L{stroke:#162141}.M{fill:#162141}.N{fill-rule:evenodd}.O{fill:#f1d949}.P{fill:#0c1b1c}.Q{fill:#39317c}.R{fill:#15343f}.S{stroke-width:3.827}.T{fill:#df632e}.U{stroke:#f0f0f0}.V{stroke-width:3.341}.W{fill:#dc9935}.X{stroke-dasharray:0 9.279}]]></style><defs><clipPath id="A"><path d="M0 0h1500v145H0z" class="B"/></clipPath><clipPath id="B"><path d="M135.896-4.769l-15.705-10.989v56.044h16.512c1.316,0,2.363-1.118,2.294-2.45l-2.111-40.811c-.037-.721-.403-1.384-.989-1.794Z" class="B"/></clipPath><clipPath id="C"><path d="M107.116-4.769L91.411-15.758v56.044h16.512c1.316 0 2.363-1.118 2.294-2.45l-2.111-40.811c-.037-.721-.403-1.384-.989-1.794z" class="B"/></clipPath><clipPath id="D"><path d="M78.192-4.769L62.487-15.758v56.044h16.512c1.316 0 2.363-1.118 2.294-2.45L79.182-2.975c-.037-.721-.403-1.384-.989-1.794z" class="B"/></clipPath><clipPath id="E"><path d="M216.976,52.264h-71.689v-3.723c0-12.678,10.141-22.955,22.65-22.955h35.179c2.977,0,5.622,1.925,6.573,4.783l7.287,21.895Z" class="B"/></clipPath><clipPath id="F"><path d="M157.54,52.264h59.435l-5.922-17.793h-37.04c-9.098,0-16.473,7.474-16.473,16.695v1.099Z" class="B"/></clipPath><clipPath id="G"><path d="M238.408,78.28H28.007l5.422-17.01c1.711-5.369,6.642-9.009,12.21-9.012l178.414-.069c2.771,0,5.254,1.736,6.238,4.361l8.118,21.73Z" class="B"/></clipPath><clipPath id="H"><path d="M169.11 71.461c-3.716 0-6.729 3.053-6.729 6.819s3.013 6.819 6.729 6.819 6.729-3.053 6.729-6.819-3.013-6.819-6.729-6.819zm0 9.841c-1.647 0-2.981-1.353-2.981-3.021s1.335-3.021 2.981-3.021 2.981 1.353 2.981 3.021-1.335 3.021-2.981 3.021z" class="B"/></clipPath><clipPath id="I"><path d="M191.469 71.461c-3.716 0-6.729 3.053-6.729 6.819s3.013 6.819 6.729 6.819 6.729-3.053 6.729-6.819-3.013-6.819-6.729-6.819zm0 9.841c-1.647 0-2.981-1.353-2.981-3.021s1.335-3.021 2.981-3.021 2.981 1.353 2.981 3.021-1.335 3.021-2.981 3.021z" class="B"/></clipPath><clipPath id="J"><path d="M213.733 71.461c-3.716 0-6.729 3.053-6.729 6.819s3.013 6.819 6.729 6.819 6.729-3.053 6.729-6.819-3.013-6.819-6.729-6.819zm0 9.841c-1.647 0-2.981-1.353-2.981-3.021s1.335-3.021 2.981-3.021 2.981 1.353 2.981 3.021-1.335 3.021-2.981 3.021z" class="B"/></clipPath><clipPath id="K"><path d="M272.176,78.349l-252.155-.068c-2.48,0-4.335,2.276-3.834,4.704l3.574,17.332c1.678,8.137,8.757,13.967,16.959,13.967h207.209c8.76,0,16.868-4.693,21.318-12.34l10.31-17.713c1.518-2.609-.363-5.882-3.381-5.882Z" class="B"/></clipPath><clipPath id="L"><path d="M649.21 43.105c3.933 2.271 5.28 7.3 3.009 11.233s-7.299 5.281-11.233 3.01-5.28-7.3-3.01-11.233 7.3-5.28 11.233-3.01z" class="B"/></clipPath><path id="M" d="M119.93 16.988h20.785v3.273H119.93z"/><path id="N" d="M121.136 41.231h18.498v-48.19h-1.695l-16.803 48.19z"/><path id="O" d="M118.181,48.704h3.775c1.69,0,3.062,1.372,3.062,3.062v3.365h-9.899v-3.365c0-1.69,1.372-3.062,3.062-3.062Z"/><path id="P" d="M91.15 16.988h20.785v3.273H91.15z"/><path id="Q" d="M62.225 16.988H83.01v3.273H62.225z"/><path id="R" d="M177.909 44.841v9.034"/><path id="S" d="M184.293 58.158h12.954v6.886h-12.954z"/><path id="T" d="M189.652 58.158h-2.724l-3.181 2.944.055 2.383 5.85-5.327z"/><path id="U" d="M184.233 58.126h13.014v3.45h-13.014z"/><path id="V" d="M130.966 58.158h-2.723l-3.182 2.944.055 2.383 5.85-5.327z"/><path id="W" d="M117.658 58.175h-2.72l-7.408 6.886h2.672l7.456-6.886z"/><path id="X" d="M169.11 71.461c-3.716 0-6.729 3.053-6.729 6.819s3.013 6.819 6.729 6.819 6.729-3.053 6.729-6.819-3.013-6.819-6.729-6.819zm0 9.841c-1.647 0-2.981-1.353-2.981-3.021s1.335-3.021 2.981-3.021 2.981 1.353 2.981 3.021-1.335 3.021-2.981 3.021z"/><path id="Y" d="M161.62 70.705l14.979 15.181"/><path id="Z" d="M1343.321 65.989l.937-.936-.937-.936a2.13 2.13 0 0 0-1.503-.622h-7.244a3.59 3.59 0 0 0-2.537 1.05l-.54.539.477.477a3.59 3.59 0 0 0 2.537 1.05h7.307c.564 0 1.105-.224 1.503-.622z"/><path id="a" d="M1346.809,63.013l-2.552,2.04,2.552,2.04c-.781-1.248-.781-2.832,0-4.08Z"/><path id="b" d="M1363.14 68.394h-7.244a3.59 3.59 0 0 0-2.537 1.05l-.539.539.477.477a3.59 3.59 0 0 0 2.537 1.05h7.307a2.13 2.13 0 0 0 1.504-.622l.936-.936-.936-.936a2.13 2.13 0 0 0-1.504-.622z"/><path id="c" d="M1365.581,69.952l2.552,2.04c-.781-1.248-.781-2.832,0-4.08l-2.552,2.04Z"/><path id="d" d="M1338.181 59.927l.936-.936-.936-.936a2.13 2.13 0 0 0-1.503-.622h-7.245a3.59 3.59 0 0 0-2.537 1.05l-.54.539.477.477a3.59 3.59 0 0 0 2.537 1.05h7.307c.564 0 1.105-.224 1.503-.622z"/><path id="e" d="M1341.67,56.952l-2.552,2.04,2.552,2.04c-.781-1.248-.781-2.832,0-4.08Z"/><path id="f" d="M1385.443 53.447h-7.245a3.59 3.59 0 0 0-2.537 1.05l-.54.539.477.477a3.59 3.59 0 0 0 2.537 1.05h7.307c.564 0 1.105-.224 1.503-.622l.936-.936-.936-.936a2.13 2.13 0 0 0-1.503-.622z"/><path id="g" d="M1362.535 55.756c-.399-.399-.94-.622-1.504-.622h-7.244a3.59 3.59 0 0 0-2.537 1.05l-.539.539.477.477a3.59 3.59 0 0 0 2.537 1.05h7.307a2.13 2.13 0 0 0 1.504-.622l.936-.936-.936-.936z"/><path id="h" d="M1363.471,56.692l2.552,2.04c-.781-1.248-.781-2.832,0-4.08l-2.552,2.04Z"/><path id="i" d="M1372.199 64.286l.936-.936-.936-.936a2.13 2.13 0 0 0-1.504-.622h-7.245a3.59 3.59 0 0 0-2.537 1.05l-.539.539.477.477a3.59 3.59 0 0 0 2.537 1.05h7.307a2.13 2.13 0 0 0 1.504-.622z"/><path id="j" d="M1375.688,61.31l-2.552,2.04,2.552,2.04c-.781-1.248-.781-2.832,0-4.08Z"/><path id="k" d="M1411.636 52.912h-7.244a3.59 3.59 0 0 0-2.537 1.05l-.539.539.477.477a3.59 3.59 0 0 0 2.537 1.05h7.307a2.13 2.13 0 0 0 1.504-.622l.937-.936-.937-.936a2.13 2.13 0 0 0-1.504-.622z"/><path id="l" d="M1391.826 82.047h-7.244a3.59 3.59 0 0 0-2.537 1.05l-.539.539.477.477a3.59 3.59 0 0 0 2.537 1.05h7.307a2.13 2.13 0 0 0 1.504-.622l.937-.936-.937-.936c-.399-.399-.94-.622-1.504-.622z"/><path id="m" d="M1342.167 51.544h7.307c.564 0 1.105-.224 1.503-.622l.937-.936-.937-.936a2.13 2.13 0 0 0-1.503-.622h-7.244a3.59 3.59 0 0 0-2.537 1.05l-.54.539.477.477a3.59 3.59 0 0 0 2.537 1.05z"/><path id="n" d="M1354.466,47.946l-2.552,2.04,2.552,2.04c-.781-1.248-.781-2.832,0-4.08Z"/><path id="o" d="M843.486 103.809a4.57 4.57 0 0 0-3.23-1.337h-9.222a2.71 2.71 0 0 0-1.914.792l-1.192 1.191 1.192 1.191a2.71 2.71 0 0 0 1.914.792h9.301a4.57 4.57 0 0 0 3.23-1.337l.608-.607-.687-.686z"/><path id="p" d="M831.32 111.875h-9.222a2.71 2.71 0 0 0-1.914.792l-1.192 1.191 1.192 1.191a2.71 2.71 0 0 0 1.914.792h9.301a4.57 4.57 0 0 0 3.23-1.337l.608-.607-.687-.686a4.57 4.57 0 0 0-3.23-1.337z"/></defs><g clip-path="url(#A)"><path d="M-20.02-4819.135h1540.04V455.02H-20.02z" fill="#00b365"/><path d="M1524.024-435.654v230.187h-343.765a687.8 687.8 0 0 0-236.53 41.949l-46.863 17.162a687.82 687.82 0 0 1-236.53 41.949H-9.333v558.999H1572.97v-890.246h-48.946z" fill="#00e2e2"/><path d="M1212.211 132.51c-76.136 0-138.076 61.941-138.076 138.077 0 9.374-7.626 17-17 17H950.872c-9.374 0-17-7.626-17-17v-2.009c0-36.943-30.057-67-67-67h-75.775c-41.992 0-76.156-34.163-76.156-76.156V39.434c0-34.188-27.813-62-62-62H508.009c-34.187 0-62 27.812-62 62v1.583c0 6.616-5.383 12-12 12H356.81c-41.355 0-75 33.645-75 75v1.615c0 6.616-5.383 12-12 12H-54.406v1900.227h125.29c19.299 0 35 15.701 35 35v28.562c0 46.869 38.131 85 85 85h282.678c46.869 0 85-38.131 85-85v-4.012c0-19.299 15.701-35 35-35H694.46c106.145 0 192.5-86.354 192.5-192.5 0-13.785 11.215-25 25-25h189.302c13.785 0 25 11.215 25 25v6.941c0 13.785-11.215 25-25 25h-1.646c-41.355 0-75 33.646-75 75.001v134.569c0 41.355 33.645 75 75 75h68.108c41.355 0 75-33.645 75-75 0-34.095 27.737-61.833 61.832-61.833h254.837V132.51h-347.181z" fill="#1ef7f1"/><path d="M1047.659 707.12h0c0-51.28 41.571-92.851 92.85-92.851h57.665c32.387 0 58.642-26.255 58.642-58.642h0c0-32.387 26.255-58.642 58.642-58.642h218.932V157.51h-322.181c-62.45 0-113.076 50.626-113.076 113.076h0c0 23.196-18.804 42-42 42H950.871c-23.196 0-42-18.804-42-42v-2.009c0-23.196-18.804-42-42-42h-75.776c-55.867 0-101.156-45.289-101.156-101.156V39.433c0-20.435-16.565-37-37-37H508.007c-20.435 0-37 16.565-37 37v1.583c0 20.435-16.565 37-37 37h-77.199c-27.614 0-50 22.386-50 50v1.615c0 20.435-16.565 37-37 37H-29.406v1850.227H70.883c33.137 0 60 26.863 60 60v28.561c0 33.137 26.863 60 60 60h282.678c33.137 0 60-26.863 60-60v-4.011c0-33.137 26.863-60 60-60h100.898c92.508 0 167.5-74.992 167.5-167.5h0c0-27.614 22.386-50 50-50h189.302c27.614 0 50 22.386 50 50v6.942c0 27.614-22.386 50-50 50h-1.647c-27.614 0-50 22.386-50 50v134.57c0 27.614 22.386 50 50 50h68.108c27.614 0 50-22.386 50-50h0c0-47.956 38.876-86.832 86.832-86.832h229.837v-328.037c0-39.064-31.668-70.732-70.732-70.732h-323.15c-50.932 0-92.285-41.008-92.845-91.807l-.006-830.892z" fill="#fbed97"/><path d="M1212.211 218.512c-29.313 0-53.076 23.763-53.076 53.076h0c0 56.333-45.667 102-102 102H703.547c-40.652 0-73.606-32.955-73.606-73.606V89.434c0-14.359-11.641-26-26-26h-56.442c-10.394 0-19.895 6.146-23.89 15.742-14.612 35.099-49.272 59.841-89.6 59.841h-46.653c-11.17 0-21.157 7.295-24.204 18.042-11.534 40.685-49.013 70.574-93.342 70.574H.489l-11.374 1742.34 115.314-.491c49.895 14.55 86.454 60.7 86.454 115.229v.695c.001 13.259 10.754 24.004 24.013 23.997l236.679-.131c11.698-.007 21.708-8.443 23.64-19.98 9.508-56.77 58.875-100.032 118.346-100.032h100.898c59.37 0 107.5-48.129 107.5-107.5h0c0-60.752 49.249-110 110-110h189.003c21.384 0 38.798-17.186 39.08-38.568h0c.246-18.686-12.768-34.942-31.062-38.758-28.801-6.009-55.263-20.244-76.552-41.532-28.243-28.244-44.073-65.595-44.746-105.431-.015-.883-.022-838.466-.022-839.351 0-40.828 15.899-79.212 44.769-108.081s67.254-44.769 108.082-44.769h28.622c14.589 0 27.327-10.069 30.48-24.313 11.76-53.123 59.237-92.972 115.846-92.972h312.76V218.511h-416.008z" fill="#62c244"/><path d="M1618.243 218.512H1212.21c-29.313 0-53.076 23.763-53.076 53.076h0c0 56.333-45.667 102-102 102H703.546c-40.652 0-73.606-32.955-73.606-73.606V89.435c0-14.359-11.641-26-26-26h-56.442c-10.394 0-19.895 6.146-23.89 15.742-14.612 35.099-49.272 59.841-89.6 59.841h-46.653c-11.17 0-21.157 7.295-24.204 18.042-11.534 40.685-49.013 70.574-93.342 70.574H5.477" stroke="#62c244" stroke-dasharray="0 9.976" stroke-width="10" class="B H I"/><path d="M478.151 122.363h117.118v148.463H478.151z" fill="#83c83c"/><g stroke="#83c83c" stroke-width="9.003" class="B H I"><path d="M478.151 261.547V127.002" class="X"/><path d="M478.151 122.363h0"/><path d="M487.16 122.363h103.604" stroke-dasharray="0 9.009"/><path d="M595.269 122.363h0"/><path d="M595.269 131.641v134.545" class="X"/></g><path d="M135.896-4.769l-15.705-10.989v56.044h16.512c1.316,0,2.363-1.118,2.294-2.45l-2.111-40.811c-.037-.721-.403-1.384-.989-1.794Z" class="Q"/><g clip-path="url(#B)" class="R"><use href="#M" style="mix-blend-mode:multiply" class="D"/><path style="mix-blend-mode:multiply" d="M119.93 23.663h20.785v3.273H119.93zm0 6.675h20.785v3.273H119.93zm0 6.675h20.785v3.273H119.93zm0-26.7h20.785v3.273H119.93zm0-6.675h20.785v3.273H119.93zm0-6.675h20.785V.236H119.93z" class="D"/><use href="#N" style="mix-blend-mode:multiply" class="D"/></g><path d="M120.069-15.41v66.155" class="B H I L S"/><use href="#O" class="M"/><path d="M107.116-4.769L91.411-15.758v56.044h16.512c1.316 0 2.363-1.118 2.294-2.45l-2.111-40.811c-.037-.721-.403-1.384-.989-1.794z" class="Q"/><g clip-path="url(#C)" class="R"><use href="#P" style="mix-blend-mode:multiply" class="D"/><path style="mix-blend-mode:multiply" d="M91.15 23.663h20.785v3.273H91.15zm0 6.675h20.785v3.273H91.15zm0 6.675h20.785v3.273H91.15zm0-26.7h20.785v3.273H91.15zm0-6.675h20.785v3.273H91.15zm0-6.675h20.785V.236H91.15z" class="D"/><path style="mix-blend-mode:multiply" d="M92.356 41.231h18.498v-48.19h-1.695l-16.803 48.19z" class="D"/></g><path d="M91.288-15.41v66.155" class="B H I L S"/><path d="M89.401,48.704h3.775c1.69,0,3.062,1.372,3.062,3.062v3.365h-9.899v-3.365c0-1.69,1.372-3.062,3.062-3.062Z" class="M"/><path d="M78.192-4.769L62.487-15.758v56.044h16.512c1.316 0 2.363-1.118 2.294-2.45L79.182-2.975c-.037-.721-.403-1.384-.989-1.794z" class="Q"/><g clip-path="url(#D)" class="R"><use href="#Q" style="mix-blend-mode:multiply" class="D"/><path style="mix-blend-mode:multiply" d="M62.225 23.663H83.01v3.273H62.225zm0 6.675H83.01v3.273H62.225zm0 6.675H83.01v3.273H62.225zm0-26.7H83.01v3.273H62.225zm0-6.675H83.01v3.273H62.225zm0-6.675H83.01V.236H62.225z" class="D"/><path style="mix-blend-mode:multiply" d="M63.432 41.231h18.497v-48.19h-1.695l-16.802 48.19z" class="D"/></g><path d="M62.364-15.41v66.155" class="B H I L S"/><path d="M60.477,48.704h3.775c1.69,0,3.062,1.372,3.062,3.062v3.365h-9.899v-3.365c0-1.69,1.372-3.062,3.062-3.062Z" class="M"/><path d="M216.976,52.264h-71.689v-3.723c0-12.678,10.141-22.955,22.65-22.955h35.179c2.977,0,5.622,1.925,6.573,4.783l7.287,21.895Z" fill="#fff"/><g clip-path="url(#E)"><path d="M214.492 54.613h-71.689V50.89c0-12.678 10.141-22.955 22.65-22.955h35.179c2.977 0 5.622 1.925 6.573 4.783l7.287 21.895z" fill="#f4f7fd"/></g><g clip-path="url(#F)"><path d="M154.959,52.264h62.017l-5.922-17.793h-39.622c-9.098,0-16.473,7.474-16.473,16.695v1.099Z" class="E"/><path d="M212.478 38.751h-53.281v-4.28h51.857l1.424 4.28z" class="C F"/><g class="G"><path d="M210.861 32.421l-6.961.167-10.269 21.229h7.105l10.125-21.396zm-24.894.459l-16.91.267-9.998 20.67h17.001l9.907-20.937zm7.933-.363l-3.12.505-10.06 20.795 3.218-.246 9.962-21.054zm23.436 3.507h-3.967l-8.606 17.793h4.153l8.42-17.793z" class="C"/></g></g><g stroke-width="3.299" class="B J L"><path d="M221.266 53.875v-4.742c0-2.356-1.889-4.263-4.213-4.255l-9.247.034-155.929-.034c-2.231 0-4.04 1.832-4.04 4.093v13.296m158.977-8.392v-8.962m-14.453.043v8.919"/><use href="#R"/><path d="M163.456 44.841v9.034m-14.452-9.034v9.034m-14.453-9.034v9.034m-14.452-9.034v9.034m-14.453-9.034v9.034m-14.452-9.034v9.034m-14.453-9.034v9.034m-14.452-9.034v9.034"/></g><path d="M238.408,78.28H28.007l5.422-17.01c1.711-5.369,6.642-9.009,12.21-9.012l178.414-.069c2.771,0,5.254,1.736,6.238,4.361l8.118,21.73Z" fill="#fff"/><g clip-path="url(#G)"><path d="M236.167,81.564H25.766l5.422-17.01c1.711-5.369,6.642-9.009,12.21-9.012l178.414-.069c2.771,0,5.254,1.736,6.238,4.361l8.118,21.73Z" fill="#e3eefc" opacity=".5"/></g><g class="E"><use href="#S"/><path d="M203.698 58.132h12.954v6.886h-12.954z"/><path d="M233.456 65.019h-10.152v-6.887l7.586.043 2.566 6.844z" class="N"/></g><g class="G"><path d="M215.776 58.132l-2.748-.006-7.323 6.919h2.605l7.466-6.913zm-6.151 0l-2.746.06-3.181 2.944.055 2.383 5.872-5.387zm-13.838.026h-2.719l-7.409 6.887h2.672l7.456-6.887z" class="C"/><use href="#T" class="C"/><path d="M231.826 60.67l-.68-1.814-6.781 6.163h2.605l4.856-4.349zm-3.563-2.392h-2.723l-2.236 2.07v2.911l4.959-4.981z" class="C"/></g><g class="F"><use href="#U" class="C"/><path d="M203.698 58.132h12.954v3.469h-12.954z" class="C"/><path d="M232.165 61.576h-8.891v-3.418h7.547l1.344 3.418z" class="C N"/></g><path d="M164.731 58.158h12.954v6.886h-12.954z" class="E"/><g class="G"><path d="M176.226 58.158h-2.72l-7.409 6.887h2.672l7.457-6.887zm-6.136 0h-2.724l-3.181 2.944.055 2.383 5.85-5.327z" class="C"/></g><path d="M164.671 58.126h13.014v3.45h-13.014z" class="C F"/><path d="M145.169 58.158h12.954v6.886h-12.954z" class="E"/><g class="G"><path d="M156.664 58.158h-2.72l-7.409 6.887h2.673l7.456-6.887zm-6.136 0h-2.724l-3.181 2.944.055 2.383 5.85-5.327z" class="C"/></g><path d="M145.109 58.126h13.014v3.45h-13.014z" class="C F"/><path d="M125.607 58.158h12.954v6.886h-12.954z" class="E"/><g class="G"><path d="M137.102 58.158h-2.72l-7.408 6.887h2.672l7.456-6.887z" class="C"/><use href="#V" class="C"/></g><path d="M125.547 58.126h13.014v3.45h-13.014z" class="C F"/><path d="M106.163 58.175h12.954v6.886h-12.954z" class="E"/><g class="G"><use href="#W" class="C"/><path d="M111.522 58.175h-2.723l-3.182 2.944.055 2.383 5.85-5.327z" class="C"/></g><path d="M106.103 58.142h13.014v3.45h-13.014z" class="C F"/><path d="M86.601 58.175h12.954v6.886H86.601z" class="E"/><g class="G"><path d="M98.096 58.175h-2.72l-7.408 6.886h2.672l7.456-6.886zm-6.135 0h-2.724l-3.181 2.944.054 2.383 5.851-5.327z" class="C"/></g><path d="M86.541 58.142h13.014v3.45H86.541z" class="C F"/><g clip-path="url(#H)"><use href="#X" class="T"/><g class="B J U V"><path d="M176.599 70.705L161.62 85.886"/><use href="#Y"/></g></g><g clip-path="url(#I)"><path d="M191.469 71.461c-3.716 0-6.729 3.053-6.729 6.819s3.013 6.819 6.729 6.819 6.729-3.053 6.729-6.819-3.013-6.819-6.729-6.819zm0 9.841c-1.647 0-2.981-1.353-2.981-3.021s1.335-3.021 2.981-3.021 2.981 1.353 2.981 3.021-1.335 3.021-2.981 3.021z" class="T"/><g class="B J U V"><path d="M198.959 70.705L183.98 85.886"/><path d="M183.98 70.705l14.979 15.181"/></g></g><g clip-path="url(#J)"><path d="M213.733 71.461c-3.716 0-6.729 3.053-6.729 6.819s3.013 6.819 6.729 6.819 6.729-3.053 6.729-6.819-3.013-6.819-6.729-6.819zm0 9.841c-1.647 0-2.981-1.353-2.981-3.021s1.335-3.021 2.981-3.021 2.981 1.353 2.981 3.021-1.335 3.021-2.981 3.021z" class="T"/><g class="B J U V"><path d="M221.222 70.705l-14.979 15.181"/><path d="M206.243 70.705l14.979 15.181"/></g></g><g clip-path="url(#K)"><path d="M272.176,78.349l-252.155-.068c-2.48,0-4.335,2.276-3.834,4.704l3.574,17.332c1.678,8.137,8.757,13.967,16.959,13.967h207.209c8.76,0,16.868-4.693,21.318-12.34l10.31-17.713c1.518-2.609-.363-5.882-3.381-5.882Z" class="M"/><path d="M12.621 87.205h280.695" stroke="#b13530" stroke-width="4.67" class="B J"/></g><path d="M266.709 104.182l-15.125-4.966a18.56 18.56 0 0 0-12.928.5l-3.143 1.309c-4.83 2.011-10.285 1.891-15.022-.332l-.118-.055c-4.842-2.272-10.428-2.345-15.328-.201l-1.09.477c-4.761 2.083-10.176 2.076-14.931-.02h0c-5.456-2.405-11.736-2.043-16.879.973l-.922.541c-1.943 1.139-4.252 1.482-6.442.956l-13.065-3.137a18.57 18.57 0 0 0-10.058.391l-4.434 1.437c-4.238 1.373-8.828 1.177-12.933-.553l-5.177-2.182a18.56 18.56 0 0 0-11.036-1.058l-14.121 2.975c-3.105.654-6.337.319-9.242-.957l-.524-.23c-4.251-1.868-9.15-1.523-13.098.922h0a8.71 8.71 0 0 1-6.639 1.061l-16.553-4.008c-2.51-.608-5.16-.071-7.235 1.465h0c-2.326 1.722-5.356 2.176-8.085 1.213l-12.16-4.293c-2.63-.929-5.546-.542-7.844 1.04l-5.081 3.499v10.032l22.006 9.708 115.606 11.974 110.276-2.589 11.326-25.889z" fill="#00e2e2"/><g opacity=".07" class="N"><use href="#Z"/><use href="#a"/><use href="#b"/><use href="#c"/><use href="#d"/><use href="#e"/><path d="M1380.713 40.61a3.59 3.59 0 0 0 2.537 1.05h7.307a2.13 2.13 0 0 0 1.504-.622l.936-.936-.936-.936a2.13 2.13 0 0 0-1.504-.622h-7.244a3.59 3.59 0 0 0-2.537 1.05l-.539.539.477.477z"/><path d="M1395.549,38.062l-2.552,2.04,2.552,2.04c-.781-1.248-.781-2.832,0-4.08Z"/><use href="#f"/><path d="M1387.883 55.005l2.552 2.04c-.781-1.248-.781-2.832 0-4.08l-2.552 2.04zm-17.786-7.252l.477.477a3.59 3.59 0 0 0 2.537 1.05h7.307c.564 0 1.105-.224 1.503-.622l.937-.936-.937-.936a2.13 2.13 0 0 0-1.503-.622h-7.244a3.59 3.59 0 0 0-2.537 1.05l-.54.539z"/><path d="M1385.41 45.681l-2.552 2.04 2.552 2.04c-.781-1.248-.781-2.832 0-4.08zm-14.779 33.536h-7.245a3.59 3.59 0 0 0-2.537 1.05l-.54.539.477.477a3.59 3.59 0 0 0 2.537 1.05h7.307a2.13 2.13 0 0 0 1.504-.622l.936-.936-.936-.936a2.13 2.13 0 0 0-1.504-.622z"/><path d="M1375.624 78.735l-2.552 2.04 2.552 2.04c-.781-1.248-.781-2.832 0-4.08zm-17.846-36.567a3.59 3.59 0 0 0 2.537 1.05h7.307c.564 0 1.105-.224 1.503-.622l.936-.936-.936-.936a2.13 2.13 0 0 0-1.503-.622h-7.245a3.59 3.59 0 0 0-2.537 1.05l-.54.539.477.477z"/><path d="M1372.614,39.62l-2.552,2.04,2.552,2.04c-.781-1.248-.781-2.832,0-4.08Z"/><use href="#g"/><use href="#h"/><path d="M1350.715 75.137h-7.245a3.59 3.59 0 0 0-2.537 1.05l-.54.539.477.477a3.59 3.59 0 0 0 2.537 1.05h7.307c.564 0 1.105-.224 1.503-.622l.936-.936-.936-.936a2.13 2.13 0 0 0-1.503-.622z"/><path d="M1355.707,74.655l-2.552,2.04,2.552,2.04c-.781-1.248-.781-2.832,0-4.08Z"/><use href="#i"/><use href="#j"/><path d="M1392.191 47.303l-.54.539.477.477a3.59 3.59 0 0 0 2.537 1.05h7.307c.564 0 1.105-.224 1.503-.622l.937-.936-.937-.936c-.399-.399-.94-.622-1.503-.622h-7.244a3.59 3.59 0 0 0-2.537 1.05z"/><path d="M1406.965,45.771l-2.552,2.04,2.552,2.04c-.781-1.248-.781-2.832,0-4.08Z"/><use href="#k"/><path d="M1416.629 52.43l-2.552 2.04 2.552 2.04c-.781-1.248-.781-2.832 0-4.08zm27.414-.137h-7.244a3.59 3.59 0 0 0-2.537 1.05l-.54.539.477.477a3.59 3.59 0 0 0 2.537 1.05h7.307c.564 0 1.105-.224 1.503-.622l.937-.936-.937-.936a2.13 2.13 0 0 0-1.503-.622z"/><path d="M1449.035 51.811l-2.552 2.04 2.552 2.04c-.781-1.248-.781-2.832 0-4.08zm-20.582 14.515l.937-.936-.937-.936c-.399-.399-.94-.622-1.503-.622h-7.244a3.59 3.59 0 0 0-2.537 1.05l-.54.539.477.477a3.59 3.59 0 0 0 2.537 1.05h7.307c.564 0 1.105-.224 1.503-.622z"/><path d="M1431.942 63.35l-2.552 2.04 2.552 2.04c-.781-1.248-.781-2.832 0-4.08zm2.028 7.868h-7.244a3.59 3.59 0 0 0-2.537 1.05l-.539.539.477.477a3.59 3.59 0 0 0 2.537 1.05h7.307a2.13 2.13 0 0 0 1.504-.622l.937-.936-.937-.936a2.13 2.13 0 0 0-1.504-.622z"/><path d="M1436.41 72.776l2.552 2.04c-.781-1.248-.781-2.832 0-4.08l-2.552 2.04zm-41.084-6.085h-7.244a3.59 3.59 0 0 0-2.537 1.05l-.539.539.477.477a3.59 3.59 0 0 0 2.537 1.05h7.307a2.13 2.13 0 0 0 1.504-.622l.937-.936-.937-.936a2.13 2.13 0 0 0-1.504-.622z"/><path d="M1397.766 68.249l2.552 2.04c-.781-1.248-.781-2.832 0-4.08l-2.552 2.04zm-14.866 5.185h-7.245a3.59 3.59 0 0 0-2.537 1.05l-.539.539.477.477a3.59 3.59 0 0 0 2.537 1.05h7.307a2.13 2.13 0 0 0 1.504-.622l.936-.936-.936-.936a2.13 2.13 0 0 0-1.504-.622z"/><path d="M1385.34,74.992l2.552,2.04c-.781-1.248-.781-2.832,0-4.08l-2.552,2.04Z"/><use href="#l"/><path d="M1394.267 83.605l2.552 2.04c-.781-1.248-.781-2.832 0-4.08l-2.552 2.04zm-8.745 6.83h-7.244a3.59 3.59 0 0 0-2.537 1.05l-.539.539.477.477a3.59 3.59 0 0 0 2.537 1.05h7.307a2.13 2.13 0 0 0 1.504-.622l.937-.936-.937-.936a2.13 2.13 0 0 0-1.504-.622z"/><path d="M1387.963 91.993l2.552 2.04c-.781-1.248-.781-2.832 0-4.08l-2.552 2.04zm17.186-16.519h-7.244a3.59 3.59 0 0 0-2.537 1.05l-.539.539.477.477a3.59 3.59 0 0 0 2.537 1.05h7.307a2.13 2.13 0 0 0 1.504-.622l.937-.936-.937-.936a2.13 2.13 0 0 0-1.504-.622z"/><path d="M1407.589 77.032l2.552 2.04c-.781-1.248-.781-2.832 0-4.08l-2.552 2.04zm-43.591 9.89h-7.244a3.59 3.59 0 0 0-2.537 1.05l-.539.539.477.477a3.59 3.59 0 0 0 2.537 1.05h7.307a2.13 2.13 0 0 0 1.504-.622l.937-.936-.937-.936c-.399-.399-.94-.622-1.504-.622z"/><path d="M1366.438,88.48l2.552,2.04c-.781-1.248-.781-2.832,0-4.08l-2.552,2.04Z"/><use href="#m"/><use href="#n"/><path d="M1263.239 65.989l.937-.936-.937-.936a2.13 2.13 0 0 0-1.503-.622h-7.244a3.59 3.59 0 0 0-2.537 1.05l-.54.539.477.477a3.59 3.59 0 0 0 2.537 1.05h7.307c.564 0 1.105-.224 1.503-.622z"/><path d="M1266.728 63.013l-2.552 2.04 2.552 2.04c-.781-1.248-.781-2.832 0-4.08zm16.331 5.381h-7.244a3.59 3.59 0 0 0-2.537 1.05l-.539.539.477.477a3.59 3.59 0 0 0 2.537 1.05h7.307a2.13 2.13 0 0 0 1.504-.622l.936-.936-.936-.936a2.13 2.13 0 0 0-1.504-.622z"/><path d="M1285.499 69.952l2.552 2.04c-.781-1.248-.781-2.832 0-4.08l-2.552 2.04zM1258.1 59.927l.936-.936-.936-.936a2.13 2.13 0 0 0-1.503-.622h-7.245a3.59 3.59 0 0 0-2.537 1.05l-.54.539.477.477a3.59 3.59 0 0 0 2.537 1.05h7.307c.564 0 1.105-.224 1.503-.622z"/><path d="M1261.589 56.952l-2.552 2.04 2.552 2.04c-.781-1.248-.781-2.832 0-4.08zm-62.948 9.037l.937-.936-.937-.936a2.13 2.13 0 0 0-1.503-.622h-7.244a3.59 3.59 0 0 0-2.537 1.05l-.54.539.477.477a3.59 3.59 0 0 0 2.537 1.05h7.307c.564 0 1.105-.224 1.503-.622z"/><path d="M1202.13 63.013l-2.552 2.04 2.552 2.04c-.781-1.248-.781-2.832 0-4.08zm-8.629-3.086l.936-.936-.936-.936a2.13 2.13 0 0 0-1.503-.622h-7.245a3.59 3.59 0 0 0-2.537 1.05l-.54.539.477.477a3.59 3.59 0 0 0 2.537 1.05h7.307c.564 0 1.105-.224 1.503-.622z"/><path d="M1196.99 56.952l-2.552 2.04 2.552 2.04c-.781-1.248-.781-2.832 0-4.08zm85.464-1.196c-.399-.399-.94-.622-1.504-.622h-7.244a3.59 3.59 0 0 0-2.537 1.05l-.539.539.477.477a3.59 3.59 0 0 0 2.537 1.05h7.307a2.13 2.13 0 0 0 1.504-.622l.936-.936-.936-.936z"/><path d="M1283.39 56.692l2.552 2.04c-.781-1.248-.781-2.832 0-4.08l-2.552 2.04zm8.728 7.594l.936-.936-.936-.936a2.13 2.13 0 0 0-1.504-.622h-7.245a3.59 3.59 0 0 0-2.537 1.05l-.539.539.477.477a3.59 3.59 0 0 0 2.537 1.05h7.307a2.13 2.13 0 0 0 1.504-.622z"/><path d="M1295.606 61.31l-2.552 2.04 2.552 2.04c-.781-1.248-.781-2.832 0-4.08zm-33.52-9.766h7.307c.564 0 1.105-.224 1.503-.622l.937-.936-.937-.936a2.13 2.13 0 0 0-1.503-.622h-7.244a3.59 3.59 0 0 0-2.537 1.05l-.54.539.477.477a3.59 3.59 0 0 0 2.537 1.05z"/><path d="M1274.385,47.946l-2.552,2.04,2.552,2.04c-.781-1.248-.781-2.832,0-4.08Z"/></g><g opacity=".07" class="N"><use href="#o"/><path d="M824.679,107.053l3.249-2.597-3.249-2.597c.994,1.589.994,3.605,0,5.194Z"/><use href="#p"/><path d="M815.742 116.455l3.249-2.597-3.249-2.597c.994 1.589.994 3.605 0 5.194zm16.777-31.926a4.57 4.57 0 0 0-3.23-1.337h-9.222a2.71 2.71 0 0 0-1.914.792l-1.192 1.191 1.192 1.191a2.71 2.71 0 0 0 1.914.792h9.301a4.57 4.57 0 0 0 3.23-1.337l.608-.607-.687-.686z"/><path d="M813.713 87.772l3.249-2.597-3.249-2.597c.994 1.589.994 3.605 0 5.194zm6.64 4.822h-9.222a2.71 2.71 0 0 0-1.914.792l-1.192 1.191 1.192 1.191a2.71 2.71 0 0 0 1.914.792h9.301a4.57 4.57 0 0 0 3.23-1.337l.608-.607-.687-.686a4.57 4.57 0 0 0-3.23-1.337z"/><path d="M804.776 97.174l3.249-2.597-3.249-2.597c.994 1.589.994 3.605 0 5.194zm56.174 17.881a4.57 4.57 0 0 0-3.23-1.337h-9.222a2.71 2.71 0 0 0-1.914.792l-1.192 1.191 1.192 1.191a2.71 2.71 0 0 0 1.914.792h9.301a4.57 4.57 0 0 0 3.23-1.337l.608-.607-.687-.686z"/><path d="M842.143 118.299l3.249-2.597-3.249-2.597c.994 1.589.994 3.605 0 5.194zm6.641 4.821h-9.222a2.71 2.71 0 0 0-1.914.792l-1.192 1.191 1.192 1.191a2.71 2.71 0 0 0 1.914.792h9.301a4.57 4.57 0 0 0 3.23-1.337l.608-.607-.687-.686a4.57 4.57 0 0 0-3.23-1.337z"/><path d="M833.206 127.701l3.249-2.597-3.249-2.597c.994 1.589.994 3.605 0 5.194zm-18.556-21.788a4.57 4.57 0 0 0-3.23-1.337h-9.222a2.71 2.71 0 0 0-1.914.792l-1.192 1.191 1.192 1.191a2.71 2.71 0 0 0 1.914.792h9.301a4.57 4.57 0 0 0 3.23-1.337l.608-.607-.687-.686z"/><path d="M795.843 109.157l3.249-2.597-3.249-2.597c.994 1.589.994 3.605 0 5.194zm6.641 4.821h-9.222a2.71 2.71 0 0 0-1.914.792l-1.192 1.191 1.192 1.191a2.71 2.71 0 0 0 1.914.792h9.301a4.57 4.57 0 0 0 3.23-1.337l.608-.607-.687-.686a4.57 4.57 0 0 0-3.23-1.337z"/><path d="M786.906,118.559l3.249-2.597-3.249-2.597c.994,1.589.994,3.605,0,5.194Z"/></g><g opacity=".35"><g fill="#f2b052"><circle cx="452.473" cy="110.695" r="2.427" transform="matrix(.541371 -.840784 .840784 .541371 114.447 431.199)" class="K"/><circle cx="443.29" cy="108.147" r="2.427" transform="matrix(.541371 -.840784 .840784 .541371 112.378 422.31)" class="K"/><circle cx="447.958" cy="101.987" r="2.427" transform="matrix(.541371 -.840784 .840784 .541371 119.698 423.41)" class="K"/><circle cx="426.098" cy="98.251" r="2.427" transform="matrix(.541371 -.840784 .840784 .541371 112.813 403.316)" class="K"/><circle cx="426.506" cy="114.628" r="2.427" transform="matrix(.541371 -.840784 .840784 .541371 99.23 411.171)" class="K"/></g></g><rect x="625.805" y="6.157" width="4.116" height="19.372" rx="2.058" transform="matrix(.900691 .434461 -.434461 .900691 69.237 -271.211)" class="W"/><rect x="603.646" y="10.992" width="4.116" height="19.372" rx="2.058" transform="matrix(.925983 -.377566 .377566 .925983 37.026 230.226)" class="O"/><path d="M654.108 33.237c0-1.984-1.61-3.594-3.594-3.594H585.83c-1.983 0-3.594 1.61-3.594 3.594s1.61 3.594 3.594 3.594h64.684c1.983 0 3.594-1.61 3.594-3.594z" fill="#f7e27e"/><g fill="#eecc5d"><path d="M546.825 29.742a3.26 3.26 0 0 1 2.843-1.659c1.177 0 2.264.633 2.843 1.659l5.017 8.888h-15.722l5.017-8.888zm121.282 2.022c.58-1.027 1.667-1.659 2.843-1.659s2.264.633 2.843 1.659l5.017 8.888h-15.722l5.017-8.888zM557.419 12.228c.58-1.027 1.667-1.659 2.843-1.659s2.264.633 2.843 1.659l5.017 8.888H552.4l5.017-8.888z"/><path d="M559.826 31.744a5.44 5.44 0 0 1 4.732-2.77 5.45 5.45 0 0 1 4.739 2.77l8.447 14.97h-26.372l8.454-14.97zm-54.472-2.942a5.44 5.44 0 0 1 8.771 0l8.801 12h-26.372l8.801-12z"/></g><path d="M657.154,57.869c0-2.232-1.811-4.043-4.043-4.043h-17.326c-2.231,0-4.043,1.811-4.043,4.043s1.812,4.043,4.043,4.043h17.326c2.232,0,4.043-1.811,4.043-4.043Z" fill="#f7e27e"/><path d="M649.21 43.105c3.933 2.271 5.28 7.3 3.009 11.233s-7.299 5.281-11.233 3.01-5.28-7.3-3.01-11.233 7.3-5.28 11.233-3.01z" fill="#8dd4cb"/><g clip-path="url(#L)"><path d="M643.723 56.607a10.5 10.5 0 0 1-2.818.815c-.359-.915-.586-1.866-.68-2.825l.009-.017a10.62 10.62 0 0 1 1.621-6.755 10.61 10.61 0 0 1 4.578-3.961l.009-.016c.897-.404 1.852-.684 2.839-.825a10.59 10.59 0 0 1 .68 2.825l.003.027a10.62 10.62 0 0 1-1.621 6.75c-1.134 1.776-2.744 3.137-4.599 3.971l-.021.009z" fill="#6758c4"/></g><g fill="#fff"><path d="M650.45 47.018a1.47 1.47 0 0 0-.686-.894c-.338-.195-.74-.248-1.117-.147h0a1.47 1.47 0 0 0-1.041 1.803l.515 1.923a1.47 1.47 0 0 0 .686.894c.338.195.74.248 1.117.147s.698-.348.894-.686a1.47 1.47 0 0 0 .147-1.117l-.515-1.922zm.427 5.353c-.074-.426-.479-.712-.905-.638h0c-.426.074-.712.479-.638.905.077.442.482.728.908.654a.78.78 0 0 0 .638-.905z" fill-opacity=".337"/></g><path d="M595.551 8.516h4.81v3.901h-4.81z" fill="#e7b73e"/><path d="M608.518,24.919c0-2.1-1.704-3.805-3.805-3.805h-11.257c-2.1,0-3.805,1.705-3.805,3.805s1.704,3.805,3.805,3.805h11.257c2.1,0,3.805-1.705,3.805-3.805Z" fill="#ec7662"/><path d="M604.453,14.323c.162-1.542-.958-2.794-2.5-2.794h-7.94c-1.542,0-2.924,1.252-3.086,2.794l-.587,5.588c-.162,1.542.958,2.794,2.5,2.794h7.94c1.542,0,2.924-1.252,3.086-2.794l.587-5.588Z" fill="#5ecbb4"/><rect x="594.528" y="10.992" width="4.116" height="19.372" rx="2.058" transform="matrix(.925983 -.377566 .377566 .925983 36.351 226.784)" class="O"/><path d="M611.06 1.596l-2.813-.945-1.043-3.063c-.168-.494-.436-.93-.764-1.308 1.081-.354 2.301-.838 2.81-1.347a2.03 2.03 0 1 0-2.871-2.871c-.561.562-1.092 1.989-1.452 3.14a3.93 3.93 0 0 0-1.467-.294H592.6c-.433 0-.852.071-1.246.202-.358-1.132-.874-2.495-1.42-3.041-.791-.791-2.074-.791-2.865 0a2.03 2.03 0 0 0 0 2.865c.477.477 1.581.931 2.607 1.277-.388.428-.693.939-.866 1.519l-.873 2.921-2.664.916c-1.701.584-2.843 2.185-2.843 3.985v.396c0 1.118.444 2.19 1.234 2.98a4.21 4.21 0 0 0 2.979 1.234h23.074a4.21 4.21 0 0 0 2.979-1.234c.79-.79 1.235-1.862 1.235-2.98v-.357c0-1.81-1.156-3.418-2.872-3.994z" class="P"/><path d="M606.941 2.721A2.48 2.48 0 0 0 604.46.242h-12.108a2.48 2.48 0 0 0-2.481 2.479v4.96a2.48 2.48 0 0 0 2.481 2.479h12.108a2.48 2.48 0 0 0 2.481-2.479v-4.96z" class="O"/><g class="P"><path d="M596.398 4.678c0-.22-.176-.395-.391-.395h-.786c-.22 0-.395.175-.395.395v2.579c0 .22.175.395.395.395h.786c.216 0 .391-.175.391-.395V4.678zm8.755 0c0-.22-.175-.395-.39-.395h-.786c-.22 0-.396.175-.396.395v2.579c0 .22.175.395.396.395h.786c.215 0 .39-.175.39-.395V4.678zm-12.249-6.144h11.459v4.331h-11.459z"/></g><circle cx="589.196" cy="5.392" r="2.471" class="O"/><path d="M633.739 4.023h4.81v3.902h-4.81z" class="W"/><path d="M625.582,20.425c0-2.1,1.704-3.805,3.805-3.805h11.257c2.1,0,3.805,1.705,3.805,3.805s-1.704,3.805-3.805,3.805h-11.257c-2.1,0-3.805-1.705-3.805-3.805Z" class="P"/><path d="M629.646,9.829c-.162-1.542.958-2.794,2.5-2.794h7.94c1.542,0,2.924,1.252,3.086,2.794l.586,5.588c.162,1.542-.958,2.794-2.5,2.794h-7.94c-1.542,0-2.924-1.252-3.086-2.794l-.587-5.588Z" fill="#b84e20"/><path d="M645.124-1.123c-.316 0-.617.065-.895.173v-1.674a2.77 2.77 0 0 0-2.765-2.765h-11.539a2.77 2.77 0 0 0-2.765 2.765v5.53c0 1.527 1.24 2.765 2.765 2.765h11.539c1.282 0 2.353-.88 2.665-2.066a2.45 2.45 0 0 0 .995.212 2.47 2.47 0 1 0 0-4.941z" fill="#f3b940"/><g class="P"><path d="M637.703.185c0-.22.175-.396.391-.396h.786c.22 0 .395.176.395.396v2.578c0 .22-.175.395-.395.395h-.786c-.215 0-.391-.175-.391-.395V.185zm-8.757 0c0-.22.175-.396.391-.396h.786c.22 0 .395.176.395.396v2.578c0 .22-.175.395-.395.395h-.786c-.216 0-.391-.175-.391-.395V.185z"/></g><rect x="635.615" y="6.157" width="4.116" height="19.372" rx="2.058" transform="matrix(.900691 .434461 -.434461 .900691 70.211 -275.473)" class="W"/><path d="M647.821 19.314h-2.695v1.669h-2.7v-1.894h-2.695v1.894h-2.693v-1.669h-2.695v1.669h-2.695l.003-13.346h-2.695v1.79h-2.7v-1.79h-2.696v1.79h-2.692v-1.79h-2.695v1.79h-.001v6.438h-2.691v-1.939h-2.696v1.939h-2.7v-1.939h-2.695l.005 7.184h-2.697v-1.796h-2.696v1.796h-2.7v-1.796h-2.695v1.796h-2.692v-1.796h-2.695v14.374l56.603.002-.002-14.376z" fill="#e7b73e"/><path d="M623.229 13.922h2.471v4.267h-2.471z" fill="#db9634"/></g></svg>