<svg xmlns="http://www.w3.org/2000/svg" width="1500" height="145" xmlns:v="https://vecta.io/nano"><style><![CDATA[.B{fill-rule:evenodd}.C{fill:none}.D{opacity:.5}.E{fill:#839d24}.F{opacity:.25}.G{clip-rule:evenodd}.H{stroke-linecap:round}.I{stroke-linejoin:round}.J{fill:#fff}.K{fill:#4d7c3d}.L{opacity:.75}.M{stroke:#62c244}.N{stroke-width:10}.O{fill:#bdd033}.P{fill:#62c244}.Q{fill:#cf622b}.R{stroke-miterlimit:10}.S{fill:#3e8095}.T{stroke-dasharray:0 10}.U{fill:#abc02e}.V{stroke-width:.31}.W{fill:#f3f7f7}.X{fill:#f8d748}.Y{stroke-width:4.751}.Z{opacity:.331}.a{fill:#00703a}.b{fill:#61d2c0}.c{fill:#e9f5f5}.d{fill:#d1f7f0}.e{fill:#b8edfa}.f{stroke-width:9.003}.g{stroke-dasharray:0 9.009}.h{stroke-dasharray:0 9.279}.i{fill:#61d2bf}.j{fill:#3a8095}.k{fill:#c3b1eb}]]></style><defs><clipPath id="A"><path d="M0 0h1500v145H0z" class="C"/></clipPath><clipPath id="B"><path d="M917.661 53.916h79.531V-.472l-39.765-39.735L917.661-.472v54.388z" class="C"/></clipPath><clipPath id="C"><path d="M838.13 53.916h79.531V-.472l-39.765-39.735L838.13-.472v54.388z" class="C"/></clipPath><clipPath id="D"><path d="M997.193 53.916h79.531V-.472l-39.765-39.735L997.193-.472v54.388z" class="C"/></clipPath><clipPath id="E"><path d="M1235.177-32.697h225.554v88.272h-225.554z" class="C"/></clipPath><clipPath id="F"><path d="M1235.221 50.092h21.341l91.572-119.035v186.624h.007v-.005h-112.92V50.092z" class="C G"/></clipPath><clipPath id="G"><path d="M1348.048-71.202l.014-11.07v-15.984h112.724v215.937h-112.724v-13.174l-.014-175.709z" class="C G"/></clipPath><clipPath id="H"><path d="M195.418 43.925h18.181l4.927 44.959c.273 2.492-1.68 4.668-4.189 4.668H194.59c-2.512 0-4.466-2.182-4.188-4.677l5.015-44.95z" class="C"/></clipPath><clipPath id="I"><path d="M204.464 42.291c0 6.428-2.555 12.596-7.106 17.143s-10.723 7.1-17.16 7.1h-24.406V50.507c0-6.432 2.555-12.599 7.106-17.146a24.29 24.29 0 0 1 17.16-7.1h24.406v16.03z" class="C G"/></clipPath><clipPath id="J"><path d="M204.464 42.291c0 6.428 2.555 12.596 7.106 17.143s10.723 7.1 17.16 7.1h24.406V50.507c0-6.432-2.555-12.599-7.106-17.146a24.29 24.29 0 0 0-17.16-7.1h-24.406v16.03z" class="C G"/></clipPath><clipPath id="K"><path d="M204.45 66.534l14.578-10.615c8.052-5.863 8.962-17.524 1.917-24.563l-5.099-5.095h-22.79l-5.099 5.095c-7.045 7.039-6.135 18.7 1.917 24.563l14.578 10.615z" class="C G"/></clipPath><clipPath id="L"><path d="M748.593 60.352h12.473l3.38 30.845a2.89 2.89 0 0 1-2.874 3.203h-13.548a2.89 2.89 0 0 1-2.873-3.208l3.441-30.839z" class="C"/></clipPath><clipPath id="M"><path d="M754.799 59.231a16.63 16.63 0 0 1-4.875 11.761c-3.122 3.12-7.357 4.871-11.773 4.871h-16.745V64.867c0-4.412 1.753-8.644 4.875-11.763a16.66 16.66 0 0 1 11.773-4.871h16.745v10.998z" class="C G"/></clipPath><clipPath id="N"><path d="M754.799 59.231a16.63 16.63 0 0 0 4.875 11.761c3.122 3.12 7.357 4.871 11.773 4.871h16.745V64.867c0-4.412-1.753-8.644-4.875-11.763a16.66 16.66 0 0 0-11.773-4.871h-16.745v10.998z" class="C G"/></clipPath><clipPath id="O"><path d="M754.79 75.864l10.001-7.282a11.12 11.12 0 0 0 1.315-16.852l-3.499-3.496h-15.636l-3.499 3.496a11.12 11.12 0 0 0 1.315 16.852l10.001 7.282z" class="C G"/></clipPath><clipPath id="P"><path d="M1184.754 82.414a4.97 4.97 0 0 1 2.189 2.579l4.821 12.959-3.632 2.724-5.242-13.105a1.63 1.63 0 0 0-.684-.797l-14.05-8.329.908-5.009 15.69 8.978z" class="C G"/></clipPath><clipPath id="Q"><path d="M1165.798 85.609a3.19 3.19 0 0 1-3.352 1.197l-11.542-2.936.908-4.475 11.016 2.893 13.5-19.749 1.816 6.356-12.346 16.713z" class="C G"/></clipPath><clipPath id="R"><path d="M869.508 99.802c0-1.063-.422-2.082-1.174-2.833s-1.772-1.174-2.836-1.174h-8.873c-.77 0-1.495-.362-1.956-.977l-2.89-3.85a2.03 2.03 0 0 0-1.622-.811h-16.349a2.03 2.03 0 0 0-1.584.761l-5.033 6.286v13.892a5.99 5.99 0 0 0 .809 3.006l3.584 6.177c.774 1.333 2.199 2.154 3.741 2.154h24.78l9.404-9.396V99.802z" class="C G"/></clipPath><path id="S" d="M877.897 27.234h39.764v-61.586l-39.764-39.735V27.234z"/><path id="T" d="M917.672-34.352v61.586h39.767V-74.087l-39.767 39.735z"/><path id="U" d="M985.442-42.592h4.991v98.893h-4.991z"/><path id="V" d="M974.131 53.916V26.103h-33.429v27.813"/><path id="W" d="M940.723 26.003h33.429v7.949h-33.429z"/><path id="X" d="M444.516 99.893c-1.232 0-2.231-1-2.231-2.236V92.99c0-1.236.999-2.236 2.231-2.236s2.231 1 2.231 2.236v4.667c0 1.236-.999 2.236-2.231 2.236z"/><path id="Y" d="M478.281,79.666c-1.232,0-2.231-1-2.231-2.236v-4.669c0-1.236.999-2.236,2.231-2.236s2.231,1,2.231,2.236v4.669c0,1.236-.999,2.236-2.231,2.236Z"/><path id="Z" d="M89.009 92.466c1.232 0 2.231-1 2.231-2.236v-7.001c0-1.236-.999-2.236-2.231-2.236s-2.231 1-2.231 2.236v7.001c0 1.236.999 2.236 2.231 2.236z"/><path id="a" d="M79.694,92.466c1.232,0,2.231-1,2.231-2.236v-4.667c0-1.236-.999-2.236-2.231-2.236s-2.231,1-2.231,2.236v4.667c0,1.236.999,2.236,2.231,2.236Z"/><path id="b" d="M54.564 110.944c1.232 0 2.231-1 2.231-2.236v-4.669c0-1.236-.999-2.236-2.231-2.236s-2.231 1-2.231 2.236v4.669c0 1.236.999 2.236 2.231 2.236z"/><path id="c" d="M1104.279 104.755c1.232 0 2.231-1 2.231-2.236V97.85c0-1.236-.999-2.236-2.231-2.236s-2.231 1-2.231 2.236v4.669c0 1.236.999 2.236 2.231 2.236z"/><path id="d" d="M1235.179 72.625h11.409v45.056h-11.409z"/><path id="e" d="M490.855 25.722h13.102v22.154h-13.102z"/><path id="f" d="M597.692 50.976h16.883v18.42h-16.883z"/><path id="g" d="M665.215 59.906h-16.883v-8.93h16.883z"/><path id="h" d="M226.034 48.468c.99 0 1.965-.483 2.547-1.371.923-1.405.531-3.289-.875-4.209l-12.366-8.105a3.04 3.04 0 0 0-4.211.873c-.923 1.405-.531 3.289.875 4.209l12.366 8.105c.515.338 1.093.499 1.664.499z"/><path id="i" d="M769.598 63.469c.679 0 1.348-.331 1.747-.941.633-.964.364-2.256-.601-2.888l-8.484-5.561c-.965-.635-2.258-.361-2.889.599s-.364 2.256.601 2.888l8.484 5.561a2.07 2.07 0 0 0 1.141.342z"/><path id="j" d="M740.001 63.469a2.07 2.07 0 0 0 1.141-.342l8.481-5.561c.965-.631 1.234-1.924.601-2.888s-1.916-1.235-2.889-.599l-8.481 5.561c-.965.631-1.234 1.924-.601 2.888.399.61 1.068.941 1.747.941z"/><path id="k" d="M1190.946 68.324a2.03 2.03 0 0 1 2.746-.832c.987.53 1.361 1.762.833 2.751a2.03 2.03 0 0 1-2.746.832c-.988-.529-1.361-1.762-.833-2.751z"/><path id="l" d="M293.857 52.886c0-.753.299-1.474.831-2.006a2.84 2.84 0 0 1 4.016 0c.532.532.831 1.253.831 2.006v10.408h-5.677V52.886z"/><path id="m" d="M288.179 56.671c0-.753.299-1.474.831-2.006a2.84 2.84 0 0 1 4.016 0c.532.532.831 1.253.831 2.006v6.624h-.946a4.73 4.73 0 0 1-4.731-4.731v-1.892z"/><path id="n" d="M308.308 24.843c0-.753.299-1.474.831-2.006a2.84 2.84 0 0 1 4.016 0c.532.532.831 1.253.831 2.006v10.408h-5.677V24.843z"/><path id="o" d="M529.49 103.929a3.09 3.09 0 0 0-.906-2.188c-.582-.582-1.369-.908-2.19-.908s-1.608.326-2.19.908-.906 1.367-.906 2.188v11.355h6.193v-11.355z"/></defs><g clip-path="url(#A)"><path d="M-20.02-5109.135h1540.04V165.02H-20.02z" fill="#00b365"/><path d="M1524.024-725.654v230.187h-343.765a687.8 687.8 0 0 0-236.53 41.949l-46.863 17.162a687.82 687.82 0 0 1-236.53 41.949H-9.333v558.999H1572.97v-890.246h-48.946z" fill="#00e2e2"/><path d="M1212.211-157.49c-76.136 0-138.076 61.941-138.076 138.077 0 9.374-7.626 17-17 17H950.872c-9.374 0-17-7.626-17-17v-2.009c0-36.943-30.057-67-67-67h-75.775c-41.992 0-76.156-34.163-76.156-76.156v-85.988c0-34.188-27.813-62-62-62H508.009c-34.187 0-62 27.812-62 62v1.583c0 6.616-5.383 12-12 12H356.81c-41.355 0-75 33.645-75 75v1.615c0 6.616-5.383 12-12 12H-54.406v1900.227h125.29c19.299 0 35 15.701 35 35v28.562c0 46.869 38.131 85 85 85h282.678c46.869 0 85-38.131 85-85v-4.012c0-19.299 15.701-35 35-35H694.46c106.145 0 192.5-86.354 192.5-192.5 0-13.785 11.215-25 25-25h189.302c13.785 0 25 11.215 25 25v6.941c0 13.785-11.215 25-25 25h-1.646c-41.355 0-75 33.646-75 75.001v134.569c0 41.355 33.645 75 75 75h68.108c41.355 0 75-33.645 75-75 0-34.095 27.737-61.833 61.832-61.833h254.837V-157.49h-347.181z" fill="#1ef7f1"/><path d="M1047.659 417.12h0c0-51.28 41.571-92.851 92.85-92.851h57.665c32.387 0 58.642-26.255 58.642-58.642h0c0-32.387 26.255-58.642 58.642-58.642h218.932V-132.49h-322.181c-62.45 0-113.076 50.626-113.076 113.076h0c0 23.196-18.804 42-42 42H950.871c-23.196 0-42-18.804-42-42v-2.009c0-23.196-18.804-42-42-42h-75.776c-55.867 0-101.156-45.289-101.156-101.156v-85.988c0-20.435-16.565-37-37-37H508.007c-20.435 0-37 16.565-37 37v1.583c0 20.435-16.565 37-37 37h-77.199c-27.614 0-50 22.386-50 50v1.615c0 20.435-16.565 37-37 37H-29.406v1850.227H70.883c33.137 0 60 26.863 60 60v28.561c0 33.137 26.863 60 60 60h282.678c33.137 0 60-26.863 60-60v-4.011c0-33.137 26.863-60 60-60h100.898c92.508 0 167.5-74.992 167.5-167.5h0c0-27.614 22.386-50 50-50h189.302c27.614 0 50 22.386 50 50v6.942c0 27.614-22.386 50-50 50h-1.647c-27.614 0-50 22.386-50 50v134.57c0 27.614 22.386 50 50 50h68.108c27.614 0 50-22.386 50-50h0c0-47.956 38.876-86.832 86.832-86.832h229.837v-328.037c0-39.064-31.668-70.732-70.732-70.732h-323.15c-50.932 0-92.285-41.008-92.845-91.807l-.006-830.892z" fill="#fbed97"/><path d="M1212.211-71.488c-29.313 0-53.076 23.763-53.076 53.076h0c0 56.333-45.667 102-102 102H703.547c-40.652 0-73.606-32.955-73.606-73.606v-210.547c0-14.359-11.641-26-26-26h-56.442c-10.394 0-19.895 6.146-23.89 15.742-14.612 35.099-49.272 59.841-89.6 59.841h-46.653c-11.17 0-21.157 7.295-24.204 18.042-11.534 40.685-49.013 70.574-93.342 70.574H.489l-11.374 1742.34 115.314-.491c49.895 14.55 86.454 60.7 86.454 115.229v.695c.001 13.259 10.754 24.004 24.013 23.997l236.679-.131c11.698-.007 21.708-8.443 23.64-19.98 9.508-56.77 58.875-100.032 118.346-100.032h100.898c59.37 0 107.5-48.129 107.5-107.5h0c0-60.752 49.249-110 110-110h189.003c21.384 0 38.798-17.186 39.08-38.568h0c.246-18.686-12.768-34.942-31.062-38.758-28.801-6.009-55.263-20.244-76.552-41.532-28.243-28.244-44.073-65.595-44.746-105.431-.015-.883-.022-838.466-.022-839.351 0-40.828 15.899-79.212 44.769-108.081s67.254-44.769 108.082-44.769h28.622c14.589 0 27.327-10.069 30.48-24.313 11.76-53.123 59.237-92.972 115.846-92.972h312.76V-71.488h-416.008z" class="P"/><g class="C H I M N"><path d="M.424-52.354l-11.277 1727.32" stroke-dasharray="0 10.014"/><path d="M-.878 1679.931l105.307-.449c49.895 14.55 86.454 60.7 86.454 115.229v.695c.001 13.259 10.754 24.004 24.013 23.997l236.679-.131c11.698-.006 21.708-8.443 23.64-19.98 9.508-56.77 58.875-100.032 118.346-100.032h100.898c59.37 0 107.5-48.129 107.5-107.5h0c0-60.751 49.249-110 110-110h189.003c21.384 0 38.798-17.186 39.08-38.567.246-18.686-12.768-34.942-31.062-38.758-28.801-6.009-55.263-20.245-76.552-41.533-28.243-28.244-44.073-65.594-44.746-105.431-.015-.882-.022-838.466-.022-839.351 0-40.828 15.899-79.212 44.769-108.081s67.254-44.769 108.082-44.769h28.623c14.589 0 27.327-10.069 30.48-24.313 11.76-53.123 59.237-92.972 115.846-92.972h307.757" stroke-dasharray="0 10.007"/><path d="M1618.243-71.488H1212.21c-29.313 0-53.076 23.763-53.076 53.076h0c0 56.333-45.667 102-102 102H703.546c-40.652 0-73.606-32.955-73.606-73.606v-210.547c0-14.359-11.641-26-26-26h-56.442c-10.394 0-19.895 6.146-23.89 15.742-14.612 35.099-49.272 59.841-89.6 59.841h-46.653c-11.17 0-21.157 7.295-24.204 18.042-11.534 40.685-49.013 70.574-93.342 70.574H5.477" stroke-dasharray="0 9.976"/></g><path d="M838.13-34.352v61.586h39.767V-74.087L838.13-34.352z" class="J"/><use href="#S" class="W"/><use href="#T" class="J"/><path d="M957.439 27.234h39.764v-61.586l-39.764-39.735V27.234z" class="W"/><path d="M997.214-34.352v61.586h39.767V-74.087l-39.767 39.735z" class="J"/><path d="M1036.981 27.234h39.764v-61.586l-39.764-39.735V27.234z" class="W"/><path d="M917.661 53.926h79.531V-7.66l-39.765-39.735L917.66-7.66v61.586z" class="J"/><path d="M917.661 53.916h79.532V-.472l-39.765-39.735L917.661-.472v54.388z" class="X"/><g class="L J"><g clip-path="url(#B)"><use href="#U"/><path d="M970.187-42.592h4.991v98.893h-4.991zm-15.255 0h4.991v98.893h-4.991zm-15.256 0h4.991v98.893h-4.991zm-15.255 0h4.991v98.893h-4.991z"/></g></g><use href="#V" class="X"/><path d="M838.13 53.926h79.531V-7.66l-39.765-39.735L838.129-7.66v61.586z" class="J"/><path d="M838.13 53.916h79.531V-.472l-39.765-39.735L838.13-.472v54.388z" fill="#73c75e"/><g class="L J"><g clip-path="url(#C)"><path d="M905.911-42.592h4.991v98.893h-4.991zm-15.256 0h4.991v98.893h-4.991zm-15.255 0h4.991v98.893H875.4zm-15.255 0h4.991v98.893h-4.991zm-15.255 0h4.991v98.893h-4.991z"/></g></g><path d="M894.599 53.916V26.103h-33.428v27.813" fill="#73c75e"/><g class="X"><path style="mix-blend-mode:multiply" d="M957.426-40.307L917.661-.572v7.189l39.765-39.735 39.767 39.735V-.572l-39.767-39.735z" class="D"/><use href="#W" style="mix-blend-mode:multiply" class="D"/></g><path d="M940.723 53.816V26.003h33.429v27.813" stroke="#fff" class="C R Y"/><g fill="#c5bdef"><path style="mix-blend-mode:multiply" d="M877.895-40.307L838.13-.572v7.189l39.765-39.735 39.766 39.735V-.572l-39.766-39.735zm-16.703 66.31h33.429v7.949h-33.429z" class="D"/></g><path d="M861.192 53.816V26.003h33.429v27.813" stroke="#fff" class="C R Y"/><path d="M997.193 53.926h79.531V-7.66l-39.765-39.735L997.192-7.66v61.586z" class="J"/><path d="M997.193 53.916h79.531V-.472l-39.765-39.735L997.193-.472v54.388z" fill="#5cc7c8"/><g class="L J"><g clip-path="url(#D)"><path d="M1064.973-42.592h4.991v98.893h-4.991zm-15.255 0h4.991v98.893h-4.991zm-15.255 0h4.991v98.893h-4.991zm-15.255 0h4.991v98.893h-4.991zm-15.256 0h4.991v98.893h-4.991z"/></g></g><path d="M1053.662 53.916V26.103h-33.429v27.813" fill="#5cc7c8"/><g fill="#c5bdef"><path style="mix-blend-mode:multiply" d="M1036.957-40.307L997.193-.572v7.189l39.764-39.735 39.767 39.735V-.572l-39.767-39.735zm-16.702 66.31h33.429v7.949h-33.429z" class="D"/></g><g class="C"><path d="M1020.255 53.816V26.003h33.428v27.813" stroke="#fff" class="R Y"/><path d="M807.286 55.507h300.304" stroke="#fbed97" stroke-dasharray="0 12.078" stroke-width="12.078" class="H I"/></g><g class="Z a"><path d="M435.202,99.893c-1.232,0-2.231-1-2.231-2.236v-7.001c0-1.236.999-2.236,2.231-2.236s2.231,1,2.231,2.236v7.001c0,1.236-.999,2.236-2.231,2.236Z"/><use href="#X"/><path d="M426.664 99.893c-1.232 0-2.231-1-2.231-2.236V92.99c0-1.236.999-2.236 2.231-2.236s2.231 1 2.231 2.236v4.667c0 1.236-.999 2.236-2.231 2.236zm33.669 18.478c-1.232 0-2.231-1-2.231-2.236v-7.001c0-1.236.999-2.236 2.231-2.236s2.231 1 2.231 2.236v7.001c0 1.236-.999 2.236-2.231 2.236zm9.314 0c-1.232 0-2.231-1-2.231-2.236v-4.669c0-1.236.999-2.236 2.231-2.236s2.231 1 2.231 2.236v4.669c0 1.236-.999 2.236-2.231 2.236zm-17.851 0c-1.232 0-2.231-1-2.231-2.236v-4.669c0-1.236.999-2.236 2.231-2.236s2.231 1 2.231 2.236v4.669c0 1.236-.999 2.236-2.231 2.236zm17.17-38.705c-1.232 0-2.231-1-2.231-2.236v-7.001c0-1.236.999-2.236 2.231-2.236s2.231 1 2.231 2.236v7.001c0 1.236-.999 2.236-2.231 2.236z"/><use href="#Y"/><path d="M460.429,79.666c-1.232,0-2.231-1-2.231-2.236v-4.669c0-1.236.999-2.236,2.231-2.236s2.231,1,2.231,2.236v4.669c0,1.236-.999,2.236-2.231,2.236Z"/></g><g class="Z a"><use href="#Z"/><use href="#a"/><path d="M97.547 92.466c1.232 0 2.231-1 2.231-2.236v-4.667c0-1.236-.999-2.236-2.231-2.236s-2.231 1-2.231 2.236v4.667c0 1.236.999 2.236 2.231 2.236zm-33.669 18.478c1.232 0 2.231-1 2.231-2.236v-7.001c0-1.236-.999-2.236-2.231-2.236s-2.231 1-2.231 2.236v7.001c0 1.236.999 2.236 2.231 2.236z"/><use href="#b"/><path d="M72.415 110.944c1.232 0 2.231-1 2.231-2.236v-4.669c0-1.236-.999-2.236-2.231-2.236s-2.231 1-2.231 2.236v4.669c0 1.236.999 2.236 2.231 2.236zm-17.17-38.706c1.232 0 2.231-1 2.231-2.236v-7.001c0-1.236-.999-2.236-2.231-2.236s-2.231 1-2.231 2.236v7.001c0 1.236.999 2.236 2.231 2.236zm-9.315 0c1.232 0 2.231-1 2.231-2.236v-4.669c0-1.236-.999-2.236-2.231-2.236s-2.231 1-2.231 2.236v4.669c0 1.236.999 2.236 2.231 2.236zm17.852 0c1.232 0 2.231-1 2.231-2.236v-4.669c0-1.236-.999-2.236-2.231-2.236s-2.231 1-2.231 2.236v4.669c0 1.236.999 2.236 2.231 2.236z"/></g><g class="Z a"><path d="M1147.358 124.983c1.232 0 2.231-1 2.231-2.236v-7.001c0-1.236-.999-2.236-2.231-2.236s-2.231 1-2.231 2.236v7.001c0 1.236.999 2.236 2.231 2.236zm-9.315 0c1.232 0 2.231-1 2.231-2.236v-4.667c0-1.236-.999-2.236-2.231-2.236s-2.231 1-2.231 2.236v4.667c0 1.236.999 2.236 2.231 2.236zm17.853 0c1.232 0 2.231-1 2.231-2.236v-4.667c0-1.236-.999-2.236-2.231-2.236s-2.231 1-2.231 2.236v4.667c0 1.236.999 2.236 2.231 2.236zm-158.703 1.167c1.232 0 2.231-1 2.231-2.236v-7.001c0-1.236-.999-2.236-2.231-2.236s-2.231 1-2.231 2.236v7.001c0 1.236.999 2.236 2.231 2.236zm-8.926 0c1.232 0 2.231-1 2.231-2.236v-4.669c0-1.236-.999-2.236-2.231-2.236s-2.231 1-2.231 2.236v4.669c0 1.236.999 2.236 2.231 2.236zm17.851 0c1.232 0 2.231-1 2.231-2.236v-4.669c0-1.236-.999-2.236-2.231-2.236s-2.231 1-2.231 2.236v4.669c0 1.236.999 2.236 2.231 2.236zm107.476-21.395c1.232 0 2.231-1 2.231-2.236v-7.001c0-1.236-.999-2.236-2.231-2.236s-2.231 1-2.231 2.236v7.001c0 1.236.999 2.236 2.231 2.236z"/><use href="#c"/><path d="M1122.131 104.755c1.232 0 2.231-1 2.231-2.236V97.85c0-1.236-.999-2.236-2.231-2.236s-2.231 1-2.231 2.236v4.669c0 1.236.999 2.236 2.231 2.236z"/></g><path d="M1235.177-36.346h225.439v154.04h-225.439z" class="b"/><path d="M1235.177-32.697h225.554v88.272h-225.554z" class="F S"/><g clip-path="url(#E)" class="B c"><path d="M1259.179-36.346h-45.102l71.036 160.717h45.946l-71.88-160.717z" class="F"/></g><path d="M1348.141-98.256l-112.92 148.349h112.92V-98.256z" fill="#8b46cc" class="B"/><g style="mix-blend-mode:multiply" class="F B S"><path d="M1348.134-68.943l-91.571 119.036h91.571V-68.943z"/></g><path d="M1348.141-51.325l-79.143,102.88,79.143,21.071V-51.325Z" class="B b"/><path d="M1460.66 83.53h-216.277V72.625h216.277z" class="F S"/><g clip-path="url(#F)" class="B c"><path style="mix-blend-mode:overlay" d="M1370.705-85.833l-56.839.746 105.563 226.488 52.723-.407-101.447-226.827z" class="F"/><path d="M1266.034-84.312h-21.455l99.765 225.713h22.639L1266.034-84.312zm-70.64 0h-21.456l99.765 225.713h22.639L1195.394-84.312z" class="F"/><path style="mix-blend-mode:overlay" d="M1432.187-84.312h-21.455l99.765 225.713h22.639L1432.187-84.312z" class="F"/></g><g fill="#8b46cc"><use href="#d"/><path d="M1377.894 72.625h11.409v45.056h-11.409zm-92.188 0h11.409v45.056h-11.409zm163.545-144.668h11.409v189.724h-11.409z"/></g><path d="M1235.177 50.092h225.497V72.62h-225.497z" fill="#f4cc45"/><path d="M1348.062-98.256h112.724v216.017h-112.724" class="B b"/><g style="mix-blend-mode:multiply" class="F S"><path d="M1460.798 10.65h-107.105V1.025h107.105zm0 40.567h-107.105v-9.625h107.105z"/></g><g clip-path="url(#G)" class="B c"><path d="M1427.22-99.003l-56.839.747 105.563 226.488 52.723-.408L1427.22-99.003zm-107.645 1.521h-21.455l99.765 225.714h22.639L1319.575-97.482z" class="F"/></g><path d="M1359.322-98.256v.012h33.834v-.012h11.26v.012h56.376v16.589h-50.735v199.336h-11.26V-81.655h-39.475v199.336h-11.26V-98.256h11.26z" fill="#ec5b37" class="B"/><g class="C H I M N"><path d="M1226.242 117.134h0"/><path d="M1236.4 117.134h228.553" stroke-dasharray="0 10.158"/><path d="M1470.032 117.134h0"/></g><path d="M484.304 5.072h104.813v42.804H484.304z" class="d"/><path d="M484.304 5.072h104.813v13.493H484.304z" class="e"/><g fill="#41549f"><use href="#e"/><path d="M517.058 25.722h13.102v22.154h-13.102zm26.203 0h13.102v22.154h-13.102zm26.203 0h13.102v22.154h-13.102z"/></g><path d="M478.151-139.858h117.118V8.605H478.151z" fill="#8cd541"/><g stroke="#8cd541" class="C H I f"><path d="M595.269 8.605h0"/><path d="M586.26 8.605H482.656" class="g"/><path d="M478.151 8.605h0"/><g class="h"><path d="M478.151-.674v-134.544m117.118 4.639V3.966"/></g></g><path d="M478.901 49.491l76.844-.838" class="H I M N P T"/><path d="M566.602 80.355h104.813v42.804H566.602z" class="d"/><path d="M566.602 80.355h104.813v13.493H566.602z" class="e"/><g fill="#41549f"><path d="M573.153 101.005h13.102v22.154h-13.102zm26.203 0h13.102v22.154h-13.102zm26.203 0h13.102v22.154h-13.102zm26.203 0h13.102v22.154h-13.102z"/></g><path d="M566.601 82.627h104.812v18.211H566.601z" class="d"/><path d="M566.601 81.362h104.812v13.204H566.601z" class="e"/><path d="M560.294-92.521h117.118V55.942H560.294z" fill="#8cd541"/><g stroke="#8cd541" class="C H I f"><path d="M677.411 55.941h0"/><path d="M668.402 55.941H564.798" class="g"/><path d="M560.294 55.941h0"/><g class="h"><path d="M560.294 46.663V-87.882m117.117 4.64V51.302"/></g></g><path d="M560.294-64.742h117.118V83.721H560.294z" fill="#a0e360"/><g stroke="#a0e360" class="C H I f"><path d="M677.411 83.721h0"/><path d="M668.402 83.721H564.798" class="g"/><path d="M560.294 83.721h0"/><g class="h"><path d="M560.294 74.442V-60.102m117.117 4.639V79.082"/></g></g><g class="i"><use href="#f"/><path d="M572.376 50.976h16.883v18.42h-16.883zm50.641 0H639.9v18.42h-16.883zm25.316 0h16.883v18.42h-16.883z"/></g><use href="#g" class="F j"/><path d="M648.333 23.247h16.883v18.42h-16.883z" class="i"/><g class="j"><path d="M665.215 32.177h-16.883v-8.93h16.883zm-42.198 18.799H639.9v8.93h-16.883zm-8.442 8.93h-16.883v-8.93h16.883z" class="F"/></g><path d="M572.376 23.297H639.9v18.42h-67.524z" class="i"/><g class="j"><path d="M639.9 32.228h-67.524v-8.93H639.9zm-50.641 27.678h-16.883v-8.93h16.883z" class="F"/></g><g fill="#a0e360"><path d="M602.301 64.791h0c0 2.548-2.088 4.605-4.609 4.605h0c-2.549 0-4.609-2.057-4.609-4.605h0c0-2.547 2.06-4.605 4.609-4.605 2.521 0 4.609 2.058 4.609 4.605zm67.524-27.729h0c0 2.548-2.088 4.605-4.609 4.605h0c-2.549 0-4.609-2.057-4.609-4.605h0c0-2.547 2.06-4.605 4.609-4.605 2.521 0 4.609 2.058 4.609 4.605zm-25.316 18.519h0c0 2.548-2.088 4.605-4.609 4.605h0c-2.549 0-4.609-2.057-4.609-4.605h0c0-2.547 2.06-4.605 4.609-4.605 2.521 0 4.609 2.058 4.609 4.605z"/></g><path d="M565.534 123.412l105.879-.839" class="H I M N P T"/><path d="M195.418 43.925h18.181l4.927 44.959c.273 2.492-1.68 4.668-4.189 4.668H194.59c-2.512 0-4.466-2.182-4.188-4.677l5.015-44.95z" fill="#6b4c46"/><g clip-path="url(#H)" class="B"><path d="M204.45 76.424l14.862-10.822c8.209-5.977 9.137-17.867 1.954-25.043l-5.199-5.195h-23.236l-5.199 5.195c-7.183 7.177-6.255 19.066 1.954 25.043l14.862 10.822z" fill="#594237"/></g><path d="M204.464 42.291c0 6.428-2.555 12.596-7.106 17.143s-10.723 7.1-17.16 7.1h-24.406V50.507c0-6.432 2.555-12.599 7.106-17.146a24.29 24.29 0 0 1 17.16-7.1h24.406v16.03z" class="B U"/><g clip-path="url(#I)"><path d="M204.464 26.261l-54.316 46.425h54.316V26.261z" class="B E"/><path d="M153.881 63.617l48.646-39.73 3.846 4.709-48.646 39.73z" class="O"/><g class="B"><g class="K"><path d="M176.072 69.16h6.084V58.935c0-1.678-1.363-3.039-3.042-3.039s-3.042 1.362-3.042 3.039V69.16zm12.168.45h6.084V49.434c0-1.678-1.36-3.036-3.039-3.036h-.006c-1.679 0-3.039 1.359-3.039 3.036V69.61z" class="D"/></g><g class="E"><path d="M155.791 49.494v-5.757h9.287c.764 0 1.497.304 2.038.845a2.88 2.88 0 0 1 .843 2.033h0a2.88 2.88 0 0 1-.843 2.036c-.542.541-1.275.842-2.038.842h-9.287zm0-11.835V31.58h18.255c1.679 0 3.039 1.359 3.039 3.036v.006c0 1.678-1.36 3.036-3.039 3.036h-18.255z" class="L"/></g></g></g><path d="M204.464 42.291c0 6.428 2.555 12.596 7.106 17.143s10.723 7.1 17.16 7.1h24.406V50.507c0-6.432-2.555-12.599-7.106-17.146a24.29 24.29 0 0 0-17.16-7.1h-24.406v16.03z" class="B U"/><g clip-path="url(#J)"><path d="M204.464 26.261l54.316 46.425h-54.316V26.261z" class="B E"/><path d="M202.541 28.617l3.843-4.712 48.673 39.696-3.843 4.712z" class="O"/><g class="B"><g class="K"><path d="M232.856 69.16h-6.084V58.935c0-1.678 1.363-3.039 3.042-3.039s3.042 1.362 3.042 3.039V69.16zm-12.168.45h-6.084V49.437c0-.805.319-1.577.891-2.149a3.05 3.05 0 0 1 2.151-.891c.806 0 1.582.322 2.151.891s.891 1.343.891 2.149V69.61z" class="D"/></g><g class="E"><path d="M253.137 49.817v-6.079h-9.129c-.806 0-1.579.319-2.148.891a3.02 3.02 0 0 0-.891 2.146v.006c0 .805.319 1.577.891 2.149a3.04 3.04 0 0 0 2.148.888h9.129zm0-12.158V31.58h-18.252c-.806 0-1.582.322-2.151.891s-.891 1.343-.891 2.149a3.03 3.03 0 0 0 .891 2.149 3.04 3.04 0 0 0 2.151.891h18.252z" class="L"/></g></g></g><path d="M204.45 66.534l14.578-10.615c8.052-5.863 8.962-17.524 1.917-24.563l-5.099-5.095h-22.79l-5.099 5.095c-7.045 7.039-6.135 18.7 1.917 24.563l14.578 10.615z" class="B O"/><g clip-path="url(#K)"><path d="M204.45 68.03h-22.999V24.415h22.999z" class="E"/><path d="M201.42 21.87h6.084v53.015h-6.084z" fill="#d6e23d"/><g class="D E"><use href="#h"/></g><g class="D K"><path d="M182.895,48.468c.57,0,1.149-.16,1.664-.499l12.362-8.105c1.406-.92,1.798-2.804.875-4.209-.919-1.399-2.792-1.801-4.211-.873l-12.362,8.105c-1.406.92-1.798,2.804-.875,4.209.582.888,1.557,1.371,2.547,1.371Z"/></g><path d="M226.034 62.327c.99 0 1.965-.483 2.547-1.371.923-1.405.531-3.289-.875-4.209l-12.366-8.105a3.04 3.04 0 0 0-4.211.873c-.923 1.405-.531 3.289.875 4.209l12.366 8.105c.515.338 1.093.499 1.664.499z" class="D E"/><g class="D K"><path d="M182.895,62.327c.57,0,1.149-.16,1.664-.499l12.362-8.105c1.406-.92,1.798-2.804.875-4.209-.919-1.399-2.792-1.801-4.211-.873l-12.362,8.105c-1.406.92-1.798,2.804-.875,4.209.582.888,1.557,1.371,2.547,1.371Z"/></g></g><path d="M179.75 93.552l49.429-.54" class="H I M N P T"/><path d="M748.593 60.352h12.473l3.38 30.845a2.89 2.89 0 0 1-2.874 3.203h-13.548a2.89 2.89 0 0 1-2.873-3.208l3.441-30.839z" fill="#6b4c46"/><g clip-path="url(#L)" class="B"><path d="M754.79 82.649l10.197-7.425c5.632-4.101 6.269-12.258 1.341-17.181l-3.567-3.564H746.82l-3.567 3.564c-4.928 4.924-4.291 13.081 1.341 17.181l10.197 7.425z" fill="#594237"/></g><path d="M754.799 59.231a16.63 16.63 0 0 1-4.875 11.761c-3.122 3.12-7.357 4.871-11.773 4.871h-16.745V64.867c0-4.412 1.753-8.644 4.875-11.763a16.66 16.66 0 0 1 11.773-4.871h16.745v10.998z" class="B U"/><g clip-path="url(#M)"><path d="M754.799 48.233l-37.264 31.851h37.264V48.233z" class="B E"/><path d="M720.092 73.859l33.375-27.257 2.638 3.23-33.375 27.257z" class="O"/><g class="B"><g class="K"><path d="M735.32 77.665h4.174V70.65c0-1.151-.935-2.085-2.087-2.085s-2.087.934-2.087 2.085v7.015zm8.348.309h4.174V64.132c0-1.151-.933-2.083-2.085-2.083h-.004c-1.152 0-2.085.932-2.085 2.083v13.842z" class="D"/></g><g class="E"><path d="M721.406 64.173v-3.95h6.372a1.98 1.98 0 0 1 1.398.58c.369.369.578.872.578 1.395h0a1.98 1.98 0 0 1-1.976 1.975h-6.372zm0-8.12v-4.171h12.525c1.152 0 2.085.932 2.085 2.083v.004c0 1.151-.933 2.083-2.085 2.083h-12.525z" class="L"/></g></g></g><path d="M754.799 59.231a16.63 16.63 0 0 0 4.875 11.761c3.122 3.12 7.357 4.871 11.773 4.871h16.745V64.867c0-4.412-1.753-8.644-4.875-11.763a16.66 16.66 0 0 0-11.773-4.871h-16.745v10.998z" class="B U"/><g clip-path="url(#N)"><path d="M754.799 48.233l37.265 31.851h-37.265V48.233z" class="B E"/><path d="M753.478 49.847l2.636-3.232 33.394 27.234-2.636 3.232z" class="O"/><g class="B"><g class="K"><path d="M774.279 77.665h-4.174V70.65c0-1.151.935-2.085 2.087-2.085s2.087.934 2.087 2.085v7.015zm-8.349.309h-4.174v-13.84a2.08 2.08 0 0 1 .612-1.474 2.09 2.09 0 0 1 2.952 0c.392.392.612.922.612 1.474v13.84z" class="D"/></g><g class="E"><path d="M788.192 64.394v-4.171h-6.263c-.553 0-1.083.219-1.473.611a2.09 2.09 0 0 0-.612 1.472v.004a2.08 2.08 0 0 0 .612 1.474c.39.39.92.609 1.473.609h6.263zm0-8.341v-4.171H775.67c-.553 0-1.085.221-1.476.611s-.612.922-.612 1.474.219 1.084.612 1.474a2.08 2.08 0 0 0 1.476.611h12.522z" class="L"/></g></g></g><path d="M754.79 75.864l10.001-7.282a11.12 11.12 0 0 0 1.315-16.852l-3.499-3.496h-15.636l-3.499 3.496a11.12 11.12 0 0 0 1.315 16.852l10.001 7.282z" class="B O"/><g clip-path="url(#O)"><path d="M754.79 76.891h-15.779V46.968h15.779z" class="E"/><path d="M752.711 45.221h4.174v36.372h-4.174z" fill="#d6e23d"/><g class="D E"><use href="#i"/></g><g class="D K"><use href="#j"/></g><path d="M769.598 72.978c.679 0 1.348-.331 1.747-.941.633-.964.364-2.256-.601-2.888l-8.484-5.561c-.965-.635-2.258-.361-2.889.599s-.364 2.256.601 2.888l8.484 5.561a2.07 2.07 0 0 0 1.141.342z" class="D E"/><g class="D K"><path d="M740.001 72.978a2.07 2.07 0 0 0 1.141-.342l8.481-5.561c.965-.631 1.234-1.924.601-2.888s-1.916-1.235-2.889-.599l-8.481 5.561c-.965.631-1.234 1.924-.601 2.888.399.61 1.068.941 1.747.941z"/></g></g><path d="M737.844 94.4l33.911-.37" class="H I M N P T"/><rect x="1181.074" y="97.756" width="16.301" height="5.028" rx="2.514" fill="#6ea7a1" opacity=".2"/><g class="B"><path d="M1177.687 62.78c.103 0 .202-.042.275-.114a.39.39 0 0 0 .113-.275v-3.267a.39.39 0 0 0-.387-.39l-11.912-.062v4.108h11.91z" class="k"/><g class="Q"><path d="M1167.806 60.747c0 1.121-.909 2.033-2.028 2.033s-2.029-.912-2.029-2.033.91-2.033 2.029-2.033 2.028.911 2.028 2.033z"/><path d="M1160.61 71.777a.39.39 0 0 0 .275.477l3.148.845a.39.39 0 0 0 .477-.274l3.143-11.512-3.96-1.063-3.083 11.528z"/><path d="M1165.127 62.738c-1.081-.291-1.724-1.406-1.435-2.49a2.03 2.03 0 0 1 2.485-1.437c1.081.291 1.724 1.406 1.434 2.49a2.03 2.03 0 0 1-2.484 1.437z"/></g></g><path d="M1178.336 62.056l1.539-7.207 4.825 1.03-1.539 7.207z" fill="#a5481c"/><g class="B"><path d="M1177.178 59.052a.65.65 0 0 1 .886-.238l8.382 4.827c.311.179.418.575.239.885l-8.438 14.69-9.516-5.504 8.447-14.66z" class="k"/><g class="Q"><path d="M1183.185 61.859c-.091-.049-.197-.06-.296-.03a.39.39 0 0 0-.231.19l-1.537 2.878a.39.39 0 0 0 .158.526l10.479 5.69 1.933-3.62-10.506-5.634z"/><use href="#k"/><path d="M1200.125 59.767a.39.39 0 0 0-.159-.527l-2.877-1.543a.39.39 0 0 0-.526.158l-5.67 10.489 3.616 1.939 5.615-10.517z"/><use href="#k"/><path d="M1184.754 82.414a4.97 4.97 0 0 1 2.189 2.579l4.821 12.959-3.632 2.724-5.242-13.105a1.63 1.63 0 0 0-.684-.797l-14.05-8.329.908-5.009 15.69 8.978z"/></g></g><g clip-path="url(#P)" class="B"><path d="M1182.562 80.836l-12.621-7.301-3.447 5.983 12.62 7.301 3.448-5.983z" fill="#f8e651"/></g><path d="M1165.798 85.609a3.19 3.19 0 0 1-3.352 1.197l-11.542-2.936.908-4.475 11.016 2.893 5.65-8.266 3.961 2.596-6.642 8.991z" class="B Q"/><g clip-path="url(#Q)" class="B"><path d="M1179.164 79.264l-12.99-7.514-3.385 5.875 12.99 7.514 3.385-5.875z" fill="#f8e651"/></g><path d="M1175.896,45.696h13.355c1.397,0,2.531,1.134,2.531,2.531v7.324c0,1.398-1.135,2.532-2.532,2.532h-13.354c-1.398,0-2.532-1.135-2.532-2.532v-7.323c0-1.398,1.135-2.532,2.532-2.532Z" class="Q"/><g class="B"><path d="M1193.86 47.406a5.19 5.19 0 0 0-1.52-3.669c-.973-.973-2.294-1.521-3.67-1.521h-14.713c-1.427 0-2.591 1.145-2.615 2.572l-.118 7.107-3.771-.067v3.328a3.54 3.54 0 0 0 3.538 3.538h4.211a4.65 4.65 0 0 0 4.083-2.424l2.123-3.892-.022-2.293c-.004-.338.129-.663.366-.903a1.27 1.27 0 0 1 .9-.375h11.208v-1.401z" fill="#102120"/><path d="M1179.607 49.631a3.02 3.02 0 0 1 0 6.042 3.02 3.02 0 0 1 0-6.042z" class="Q"/></g><rect x="1188.455" y="50.386" width="1.539" height="3.107" rx=".257" fill="#0d1c1c"/><g class="B"><path d="M1183.185 61.859c-.091-.049-.197-.06-.296-.03a.39.39 0 0 0-.231.19l-1.537 2.878a.39.39 0 0 0 .158.526l5.802 3.151 1.91-3.601-5.807-3.114z" class="k"/><g fill="#8a4cc9"><path d="M1193.344 96.918l-5.783 2.345.604 1.496 5.783-2.346-.604-1.495zm-41.537-11.063l1.563-6.05-1.559-.404-1.563 6.05 1.559.404z"/></g><path d="M869.508 113.186a6.12 6.12 0 0 0-6.12-6.115H831.9a6.12 6.12 0 0 0-6.12 6.115v5.388a6.12 6.12 0 0 0 6.12 6.115h31.488a6.12 6.12 0 0 0 6.12-6.115v-5.388z" fill="#409058" opacity=".35"/><path d="M869.508 99.802c0-1.063-.422-2.082-1.174-2.833s-1.772-1.174-2.836-1.174h-8.873c-.77 0-1.495-.362-1.956-.977l-2.89-3.85a2.03 2.03 0 0 0-1.622-.811h-16.349a2.03 2.03 0 0 0-1.584.761l-5.033 6.286v13.892a5.99 5.99 0 0 0 .809 3.006l3.584 6.177c.774 1.333 2.199 2.154 3.741 2.154h24.78l9.404-9.396V99.802z" fill="#a39c86"/></g><g clip-path="url(#R)" fill="#b5ae99" class="B"><path d="M851.17 83.111h-23.98v23.96h19.576c2.433 0 4.405-1.97 4.405-4.401V83.111zm28.212 5.638h-23.98v20.519c0 1.9 1.542 3.44 3.443 3.44h20.537v-23.96z"/></g><path d="M839.886 101.575c0-.412-.163-.806-.455-1.097a1.55 1.55 0 0 0-1.098-.454h-5.358a1.55 1.55 0 0 0-1.098.454c-.291.291-.455.686-.455 1.097v1.125a1.55 1.55 0 0 0 1.553 1.551h5.358a1.55 1.55 0 0 0 1.098-.454c.291-.291.455-.686.455-1.097v-1.125z" fill="#706b5b" opacity=".581" class="B"/><path d="M841.437 115.527h15.233c.857 0 1.553.696 1.553 1.553v1.124a1.55 1.55 0 0 1-1.551 1.551h-15.234c-.857 0-1.553-.696-1.553-1.553v-1.124a1.55 1.55 0 0 1 1.551-1.551z" fill="#7d7765" opacity=".581"/><g class="B R V"><g fill="#cb5a6e" stroke="#cb5a6e"><path d="M305.211 56.671c0-.753.299-1.474.831-2.006a2.84 2.84 0 0 1 4.016 0c.532.532.831 1.253.831 2.006v1.892a4.73 4.73 0 0 1-4.731 4.731h-.946V56.67z"/><use href="#l"/><path d="M299.534 52.886c0-.753.299-1.474.831-2.006a2.84 2.84 0 0 1 4.016 0c.532.532.831 1.253.831 2.006v10.408h-5.677V52.886z"/><use href="#m"/><path d="M319.663 28.628c0-.753.299-1.474.831-2.006a2.84 2.84 0 0 1 4.016 0c.532.532.831 1.253.831 2.006v1.892a4.73 4.73 0 0 1-4.731 4.731h-.946v-6.624z"/><use href="#n"/><path d="M313.985 24.843c0-.753.299-1.474.831-2.006a2.84 2.84 0 0 1 4.016 0c.532.532.831 1.253.831 2.006v10.408h-5.677V24.843zm-11.354 3.785c0-.753.299-1.474.831-2.006a2.84 2.84 0 0 1 4.016 0c.532.532.831 1.253.831 2.006v6.624h-.946a4.73 4.73 0 0 1-4.731-4.731v-1.892z"/></g><g fill="#d9df50" stroke="#d9df50"><path d="M510.91 108.058a3.09 3.09 0 0 0-.906-2.188c-.582-.582-1.369-.908-2.19-.908s-1.608.326-2.19.908a3.09 3.09 0 0 0-.906 2.188v2.064a5.16 5.16 0 0 0 5.161 5.161h1.032v-7.226zm12.387-8.258a3.09 3.09 0 0 0-.906-2.188c-.582-.582-1.369-.908-2.19-.908s-1.608.326-2.19.908a3.09 3.09 0 0 0-.906 2.188v15.484h6.193V99.8z"/><use href="#o"/><path d="M517.103 103.929a3.09 3.09 0 0 0-.906-2.188c-.582-.582-1.369-.908-2.19-.908s-1.608.326-2.19.908a3.09 3.09 0 0 0-.906 2.188v11.355h6.193v-11.355zm18.581 4.129a3.09 3.09 0 0 0-.906-2.188c-.582-.582-1.369-.908-2.19-.908s-1.608.326-2.19.908a3.09 3.09 0 0 0-.906 2.188v7.226h1.032a5.16 5.16 0 0 0 5.161-5.161v-2.064z"/></g></g></g></svg>