<svg xmlns="http://www.w3.org/2000/svg" width="1500" height="145" xmlns:v="https://vecta.io/nano"><style><![CDATA[.B{fill:#ff4b00}.C{fill-rule:evenodd}.D{opacity:.106}.E{fill:#ff8c00}.F{fill:#a6a6a6}.G{fill:#2d002f}.H{fill:#efefef}.I{fill:#393f6b}.J{fill:#898989}]]></style><defs><clipPath id="A"><path d="M0 0h1500v145H0z" fill="none"/></clipPath><clipPath id="B"><path d="M225.948,83.544l2.301,31.594h3.238l-.514-16.085c-.006-.196.028-.392.098-.575l4.385-11.386-9.509-3.548Z" fill="none"/></clipPath><clipPath id="C"><path d="M267.382 89.041s-1.948 6.375 2.361 9.527a1.25 1.25 0 0 1 .501 1.089l-1.068 15.481h-2.855s.066-10.183-2.473-15.205a1.4 1.4 0 0 0-.672-.632c-1.708-.79-7.928-4.164-7.928-11.374l11.769-2.229.366 3.343z" fill="none"/></clipPath><path id="D" d="M44.959 104.159c1.232 0 2.231-1 2.231-2.236v-4.669c0-1.236-.999-2.236-2.231-2.236s-2.231 1-2.231 2.236v4.669c0 1.236.999 2.236 2.231 2.236z"/><path id="E" d="M1209.983 102.733a4.72 4.72 0 0 0-3.341-1.387h-9.541c-.743 0-1.455.296-1.98.822l-1.233 1.236 1.233 1.236a2.8 2.8 0 0 0 1.98.822h9.623a4.72 4.72 0 0 0 3.341-1.387l.629-.63-.711-.712z"/><path id="F" d="M1197.396 111.103h-9.541c-.743 0-1.455.296-1.98.822l-1.233 1.236 1.233 1.236a2.8 2.8 0 0 0 1.98.822h9.623a4.72 4.72 0 0 0 3.341-1.387l.629-.63-.711-.712a4.72 4.72 0 0 0-3.341-1.387z"/></defs><g clip-path="url(#A)"><path d="M-20.02-4674.135h1540.04V600.02H-20.02z" fill="#00b365"/><path d="M869.153 25.344h0a472.11 472.11 0 0 1-331.059 135.529H-20.02V600.02h1540.04v-710.206h-319.809A472.11 472.11 0 0 0 869.152 25.343z" fill="#ffed8b"/><path d="M-20.02 600.02V272.088h588.094c68.168 0 134.72-13.095 197.807-38.922s119.715-63.159 168.313-110.961c39.291-38.646 85.074-68.829 136.077-89.709S1175.08 1.029 1230.192 1.029h289.828v598.99H-20.02z" fill="#1ef7f1"/><path d="M-20.02 600.02V302.088h588.094c72.086 0 142.462-13.848 209.172-41.158s126.594-66.788 177.985-117.337c36.499-35.899 79.028-63.938 126.406-83.333s97.359-29.23 148.555-29.23h289.828v568.991H-20.02z" fill="#00e2e2"/><path d="M1281.853-652.5c-30.509 0-55.242-24.733-55.242-55.242h0c0-30.509-24.733-55.242-55.242-55.242H870.748c-30.509 0-55.242-24.733-55.242-55.242h0c0-78.024-63.251-141.275-141.275-141.275H503.047c-79.431 0-143.822-64.391-143.822-143.822v-91.837c0-79.431-64.391-143.822-143.822-143.822H-20.02V160.873h558.114A472.11 472.11 0 0 0 869.153 25.344h0a472.11 472.11 0 0 1 331.059-135.529h319.809v-542.314h-238.167z" fill="#77d629"/><path d="M-10.01 160.873h548.104A472.11 472.11 0 0 0 869.153 25.344h0a472.11 472.11 0 0 1 331.059-135.529h314.804" fill="none" stroke="#77d629" stroke-dasharray="0 10.01" stroke-linecap="round" stroke-linejoin="round" stroke-width="10"/><g opacity=".331" fill="#00703a"><path d="M79.404 85.681c1.232 0 2.231-1 2.231-2.236v-7.001c0-1.236-.999-2.236-2.231-2.236s-2.231 1-2.231 2.236v7.001c0 1.236.999 2.236 2.231 2.236zm-9.314 0c1.232 0 2.231-1 2.231-2.236v-4.667c0-1.236-.999-2.236-2.231-2.236s-2.231 1-2.231 2.236v4.667c0 1.236.999 2.236 2.231 2.236zm17.852 0c1.232 0 2.231-1 2.231-2.236v-4.667c0-1.236-.999-2.236-2.231-2.236s-2.231 1-2.231 2.236v4.667c0 1.236.999 2.236 2.231 2.236zm-33.668 18.478c1.232 0 2.231-1 2.231-2.236v-7.001c0-1.236-.999-2.236-2.231-2.236s-2.231 1-2.231 2.236v7.001c0 1.236.999 2.236 2.231 2.236z"/><use href="#D"/><path d="M62.811 104.159c1.232 0 2.231-1 2.231-2.236v-4.669c0-1.236-.999-2.236-2.231-2.236s-2.231 1-2.231 2.236v4.669c0 1.236.999 2.236 2.231 2.236zM45.64 65.454c1.232 0 2.231-1 2.231-2.236v-7.001c0-1.236-.999-2.236-2.231-2.236s-2.231 1-2.231 2.236v7.001c0 1.236.999 2.236 2.231 2.236zm-9.315 0c1.232 0 2.231-1 2.231-2.236v-4.669c0-1.236-.999-2.236-2.231-2.236s-2.231 1-2.231 2.236v4.669c0 1.236.999 2.236 2.231 2.236zm17.853 0c1.232 0 2.231-1 2.231-2.236v-4.669c0-1.236-.999-2.236-2.231-2.236s-2.231 1-2.231 2.236v4.669c0 1.236.999 2.236 2.231 2.236z"/></g><rect x="506.339" y="43.205" width="37.107" height="5.888" rx="2.944" class="D"/><path d="M519.641-43.509h10.504v89.657h-10.504z" class="I"/><rect x="560.986" y="89.037" width="37.107" height="5.888" rx="2.944" class="D"/><path d="M579.54-22.69c16.208 0 29.367 13.159 29.367 29.367s-13.159 29.367-29.367 29.367-29.367-13.159-29.367-29.367S563.332-22.69 579.54-22.69z" class="B C"/><path d="M574.288 2.324h10.504v89.657h-10.504z" class="I"/><path d="M559.114,27.768c-5.512-5.34-8.941-12.818-8.941-21.091,0-16.208,13.159-29.367,29.367-29.367s29.367,13.159,29.367,29.367c0,8.273-3.428,15.752-8.94,21.091-2.736-8.676-10.852-14.973-20.426-14.973s-17.69,6.297-20.426,14.973Z" class="C E"/><rect x="144.298" y="110.799" width="37.107" height="5.888" rx="2.944" class="D"/><path d="M162.851 17.734c-15.75 0-28.537 12.787-28.537 28.537s12.787 28.537 28.537 28.537 28.537-12.787 28.537-28.537-12.787-28.537-28.537-28.537z" fill="#00775d" class="C"/><circle cx="178.248" cy="59.679" r="3.157" class="B"/><path d="M157.922 37.086h9.859v77.196h-9.859z" class="I"/><path d="M182.714 66.8c5.36-5.192 8.694-12.465 8.694-20.51 0-15.761-12.796-28.557-28.557-28.557s-28.557 12.796-28.557 28.557c0 8.045 3.334 15.317 8.694 20.51 2.661-8.436 10.552-14.56 19.863-14.56s17.202 6.124 19.863 14.56z" fill="#009166" class="C"/><circle cx="154.175" cy="32.96" r="3.157" class="E"/><circle cx="168.283" cy="26.646" r="3.157" class="B"/><circle cx="176.472" cy="41.248" r="3.157" class="E"/><g class="B"><circle cx="160.489" cy="42.267" r="3.157"/><circle cx="151.018" cy="20.891" r="3.157"/></g><circle cx="144.704" cy="40.736" r="3.157" class="E"/><circle cx="150.525" cy="56.522" r="3.157" class="B"/><g opacity=".073" class="C"><use href="#E"/><path d="M1190.526,106.099l3.361-2.695-3.361-2.695c1.028,1.649,1.028,3.741,0,5.39Z"/><use href="#F"/><path d="M1181.28,115.857l3.361-2.695-3.361-2.695c1.028,1.649,1.028,3.741,0,5.39Z"/></g><g opacity=".073" class="C"><path d="M1192.334 90.28a4.72 4.72 0 0 0-3.341-1.387h-9.541c-.743 0-1.455.296-1.98.822l-1.233 1.236 1.233 1.236a2.8 2.8 0 0 0 1.98.822h9.623a4.72 4.72 0 0 0 3.341-1.387l.629-.63-.711-.712z"/><path d="M1172.877 93.647l3.361-2.695-3.361-2.695c1.028 1.649 1.028 3.741 0 5.39zm6.87 5.004h-9.541c-.743 0-1.455.296-1.98.822l-1.233 1.236 1.233 1.236a2.8 2.8 0 0 0 1.98.822h9.623a4.72 4.72 0 0 0 3.341-1.387l.629-.63-.711-.712a4.72 4.72 0 0 0-3.341-1.387z"/><path d="M1163.631,103.404l3.361-2.695-3.361-2.695c1.028,1.649,1.028,3.741,0,5.39Z"/></g><rect x="218.568" y="111.328" width="66.451" height="5.36" rx="2.68" class="D"/><path d="M210.721,33.626l.344,1.039c3,3.133,5.857,12.234,5.857,12.234l2.29-.548s-4.93-12.349-6.719-13.859c-.84-.708-2.085.08-1.772,1.134Z" class="F"/><path d="M211.065,34.665l4.405,13.287,1.452-1.053s-2.857-9.101-5.857-12.234Z" class="J"/><g class="G"><path d="M279.638 94.583c.25-1.513-.485-5.795-.485-5.795l-.787.106c-.572.986-2.267 5.173-2.481 6.221l.568-.255-.141 1.198 1.346-.721 1.115.81c.179-.615.312-1.211.41-1.78l.455.216zM221.772 43.47s4.596.996 7.382 3.737h-1.114s3.412 2.044 4.945 3.576h-.975s4.666 3.552 5.293 4.666h-.836s2.608 2.916 5.152 6.375l-7.311 2.33-8.36-4.456-4.175-7.244V43.47z"/></g><g clip-path="url(#B)"><path d="M225.948,83.544l2.301,31.594h3.238l-.514-16.085c-.006-.196.028-.392.098-.575l4.385-11.386-9.509-3.548Z" fill="#939393"/><path d="M227.233 112.876h6.387v2.507h-6.387z"/></g><g clip-path="url(#C)"><path d="M267.382 89.041s-1.948 6.375 2.361 9.527a1.25 1.25 0 0 1 .501 1.089l-1.068 15.481h-2.855s.066-10.183-2.473-15.205a1.4 1.4 0 0 0-.672-.632c-1.708-.79-7.928-4.164-7.928-11.374l11.769-2.229.366 3.343z" fill="#939393"/><path d="M264.579 113.334h6.387v2.05h-6.387z"/></g><path d="M206.58 53.828l-.555-.426c.513-.961.634-2.033.64-2.801-2.415 1.266-4.417 2.514-4.557 3.234-.366 1.88 1.985 6.059 4.126 5.641l2.266-.517c.061-1.111-.245-3.355-1.921-5.131z" class="H"/><g class="G"><path d="M271.753 115.139h2.855l.156-2.262h-3.063l.052 2.262zm-40.496 0h3.238l-.072-2.263h-3.322l.156 2.263z"/></g><path d="M218.182,30.25l.034,1.094c1.983,3.858,2.128,13.396,2.128,13.396l2.351.128s-1.207-13.242-2.492-15.199c-.603-.918-2.022-.517-2.022.582Z" class="F"/><path d="M218.216,31.344l.436,13.992,1.692-.596s-.145-9.538-2.128-13.396Z" class="J"/><path d="M218.652,42.146s-2.52.557-3.669,2.089l.94.209s-1.115.764-1.776,2.889l2.442-1.104s-.305.476-.189,1.104l2.253-1.998v-3.189Z" class="G"/><path d="M279.356,90.105l-1.465-.202c.017-.126,1.718-12.643-.128-16.847l1.356-.595c2.012,4.586.311,17.113.238,17.644Z" class="F"/><path d="M215.446,61.852c1.322,5.61,5.401,19.769,13.887,25.24.741-12.926-13.874-25.229-13.887-25.24Z" class="H"/><path d="M275.176 98.569c-4.309-3.152-2.361-9.527-2.361-9.527l6.79-14.672s-1.045-14.055-13.893-14.055-6.999 1.567-31.443 1.567l-11.573-17.014-2.351-.128-1.692.596s-8.091 3.224-11.986 5.266c-.006.768-.127 1.84-.64 2.801l.555.426c1.676 1.776 1.921 5.131 1.921 5.131l6.441.546s.16.89.504 2.347c.014.012 14.629 12.315 13.887 25.24l1.768 25.784h3.321l-.441-13.822c-.006-.196.028-.392.098-.575l3.634-9.437s3.835-3.343 11.513-3.343 11.513 3.343 11.513 3.343c.598 6.442 6.251 9.512 7.868 10.26a1.4 1.4 0 0 1 .672.632c1.791 3.543 2.285 9.65 2.421 12.943h3.063l.912-13.218a1.25 1.25 0 0 0-.501-1.089z" class="F"/><path d="M237.714,89.041h23.026s-3.835-3.343-11.513-3.343-11.513,3.343-11.513,3.343Z" class="H"/><path d="M216.731 50.541c0 .573.388 1.107.953 1.202a1.15 1.15 0 0 0 1.345-1.132v-.914h-2.298v.844z" class="G"/><rect x="202.794" y="53.632" width="1.967" height="1.045" rx=".522" transform="matrix(.833635 -.552315 .552315 .833635 3.991 121.559)" class="J"/><circle cx="204.684" cy="59.047" r="2.874" class="B"/><path d="M203.678,56.015l.469.991c.27.57.903.873,1.516.724l.446-.108.052.117c.282.637.995.964,1.662.763l.15-.045-1.414-3.116h-1.724l-1.157.675Z" class="H"/></g></svg>