<svg xmlns="http://www.w3.org/2000/svg" width="1500" height="145" xmlns:v="https://vecta.io/nano"><style><![CDATA[.B{fill-rule:evenodd}.C{fill:#8fc300}.D{fill:none}.E{fill:#a2d500}.F{fill:#482c16}.G{fill:#b28047}.H{stroke-linecap:round}.I{stroke-linejoin:round}.J{clip-rule:evenodd}.K{stroke:#77d629}.L{fill:#ff4b00}.M{fill:#015454}.N{fill:#5aaa00}.O{fill:#ff8c00}.P{fill:#ddecee}.Q{fill:#77d629}.R{stroke-width:10}.S{fill:#f9dca7}.T{fill:#96e7e4}.U{stroke:#000}.V{stroke-width:.958}.W{fill:#ffd300}.X{fill:#e8e1ee}.Y{fill:#ccbcdb}.Z{stroke-dasharray:0 10}.a{fill:#374315}.b{fill:#a6d320}.c{stroke-dasharray:0 12.739}.d{stroke-width:12.739}]]></style><defs><clipPath id="A"><path d="M0 0h1500v145H0z" class="D"/></clipPath><clipPath id="B"><path d="M1340.225 66.359c-.313-.837.108-1.781.936-2.097l1.156-.442a1.61 1.61 0 0 1 2.076.946l.113.301c.052.14-.017.297-.156.35l-3.665 1.402c-.139.053-.293-.018-.346-.158l-.113-.301zm4.651-.302c-.052-.14-.207-.211-.346-.158l-3.665 1.402c-.139.053-.208.21-.156.35l.811 2.164a1.61 1.61 0 0 0 2.076.946l1.156-.442c.828-.317 1.249-1.261.936-2.097l-.811-2.164z" class="D"/></clipPath><clipPath id="C"><path d="M1344.872 72.407h0c5.176-1.98 11.013.68 12.973 5.91l8.289 22.127c.313.837-.108 1.781-.936 2.097l-15.81 6.047a1.61 1.61 0 0 1-2.076-.946l-8.289-22.127c-1.959-5.23.673-11.129 5.848-13.109z" class="D J"/></clipPath><clipPath id="D"><path d="M1351.902 85.494l11.368-4.348-2.421-6.464-11.368 4.348a3.48 3.48 0 0 0-1.988 4.455h0c.666 1.777 2.65 2.681 4.409 2.008z" class="D J"/></clipPath><clipPath id="E"><ellipse cx="1372.905" cy="93.881" rx="2.995" ry="3.027" class="D"/></clipPath><clipPath id="F"><ellipse cx="1351.47" cy="89.786" rx="1.845" ry="1.864" class="D"/></clipPath><clipPath id="G"><path d="M627.504-12.479c-1.418-2.237-3.879-3.592-6.523-3.592s-5.105 1.355-6.523 3.592l-19.562 30.851c0 10.596 11.688 19.199 26.085 19.199s26.085-8.603 26.085-19.199l-19.562-30.851z" class="D J"/></clipPath><clipPath id="H"><path d="M626.894-20.772c-1.424-2.21-3.869-3.544-6.493-3.544s-5.069 1.335-6.493 3.544L598.492 3.155c0 8.758 9.817 15.869 21.91 15.869s21.909-7.111 21.909-15.869l-15.416-23.927z" class="D J"/></clipPath><clipPath id="I"><path d="M573.396-12.479c-1.418-2.237-3.879-3.592-6.523-3.592s-5.105 1.355-6.523 3.592l-19.562 30.851c0 10.596 11.688 19.199 26.085 19.199s26.085-8.603 26.085-19.199l-19.562-30.851z" class="D J"/></clipPath><clipPath id="J"><path d="M572.786-20.772c-1.424-2.21-3.869-3.544-6.493-3.544s-5.069 1.335-6.493 3.544L544.384 3.155c0 8.758 9.817 15.869 21.91 15.869s21.909-7.111 21.909-15.869l-15.416-23.927z" class="D J"/></clipPath><clipPath id="K"><path d="M600.929-14.769a8.72 8.72 0 0 0-14.724 0l-22.076 34.817c0 11.958 13.191 21.666 29.438 21.666s29.438-9.708 29.438-21.666l-22.076-34.817z" class="D J"/></clipPath><clipPath id="L"><path d="M600.241-24.128c-1.607-2.494-4.366-4-7.327-4a8.72 8.72 0 0 0-7.328 4L568.188 2.875c0 9.884 11.079 17.909 24.726 17.909s24.725-8.025 24.725-17.909l-17.398-27.003z" class="D J"/></clipPath><path id="M" d="M428.611 51.532c-1.232 0-2.231-1-2.231-2.236v-4.667c0-1.236.999-2.236 2.231-2.236s2.231 1 2.231 2.236v4.667c0 1.236-.999 2.236-2.231 2.236z"/><path id="N" d="M453.742,70.01c-1.232,0-2.231-1-2.231-2.236v-4.669c0-1.236.999-2.236,2.231-2.236s2.231,1,2.231,2.236v4.669c0,1.236-.999,2.236-2.231,2.236Z"/><path id="O" d="M720.51 58.079c1.232 0 2.231-1 2.231-2.236v-7.001c0-1.236-.999-2.236-2.231-2.236s-2.231 1-2.231 2.236v7.001c0 1.236.999 2.236 2.231 2.236z"/><path id="P" d="M711.196 58.079c1.232 0 2.231-1 2.231-2.236v-4.667c0-1.236-.999-2.236-2.231-2.236s-2.231 1-2.231 2.236v4.667c0 1.236.999 2.236 2.231 2.236z"/><path id="Q" d="M686.065 76.557c1.232 0 2.231-1 2.231-2.236v-4.669c0-1.236-.999-2.236-2.231-2.236s-2.231 1-2.231 2.236v4.669c0 1.236.999 2.236 2.231 2.236z"/><path id="R" d="M677.431,37.851c1.232,0,2.231-1,2.231-2.236v-4.669c0-1.236-.999-2.236-2.231-2.236s-2.231,1-2.231,2.236v4.669c0,1.236.999,2.236,2.231,2.236Z"/><path id="S" d="M1340.225 66.359c-.313-.837.108-1.781.936-2.097l1.156-.442a1.61 1.61 0 0 1 2.076.946l.113.301c.052.14-.017.297-.156.35l-3.665 1.402c-.139.053-.293-.018-.346-.158l-.113-.301z"/><path id="T" d="M1345.929 68.803c.313.837-.108 1.781-.936 2.097l-1.156.442a1.61 1.61 0 0 1-2.076-.946l-.811-2.164c-.052-.14.017-.297.156-.35l3.665-1.402c.139-.053.293.018.346.158l.811 2.164z"/><path id="U" d="M1344.872 72.407h0c5.176-1.98 11.013.68 12.973 5.91l8.289 22.127c.313.837-.108 1.781-.936 2.097l-15.81 6.047a1.61 1.61 0 0 1-2.076-.946l-8.289-22.127c-1.959-5.23.673-11.129 5.848-13.109z"/><path id="V" d="M82.251 10.29c-2.498 0-4.528-2.03-4.528-4.528s2.03-4.528 4.528-4.528 4.528 2.03 4.528 4.528-2.03 4.528-4.528 4.528zm0-7.661a3.14 3.14 0 0 0-3.133 3.133c0 1.731 1.402 3.133 3.133 3.133s3.133-1.402 3.133-3.133-1.402-3.133-3.133-3.133z"/><path id="W" d="M184.708 80.839a.92.92 0 0 0-1.04-.236.95.95 0 0 0-.58.912l.093 2.746-1.989 1.863a.96.96 0 0 0-.229 1.059c.148.368.505.603.895.59l2.703-.094 1.831 2.021c.265.292.679.387 1.043.235a.95.95 0 0 0 .577-.911l-.09-2.747 1.987-1.862a.96.96 0 0 0 .232-1.06c-.148-.368-.508-.602-.898-.589l-2.7.093-1.834-2.02z"/><path id="X" d="M191.597 94.559c-1.142.69-3.136 2.654-2.199 4.258s3.587.763 4.729.073 1.673-2.322.975-3.518-2.362-1.503-3.505-.813z"/><path id="Y" d="M208.122 70.621c.006-1.111.664-2.11 1.67-2.538a2.69 2.69 0 0 1 2.956.571l3.469 3.429 4.837.034c1.093.008 2.074.679 2.496 1.705s.203 2.207-.56 3.004l-3.373 3.526-.035 4.92c-.006 1.111-.664 2.11-1.677 2.54-1.007.428-2.168.203-2.95-.573l-3.469-3.429-4.837-.035a2.73 2.73 0 0 1-2.502-1.702c-.421-1.026-.196-2.21.566-3.007l3.373-3.525.035-4.919z"/><path id="Z" d="M214.688 73.519a.92.92 0 0 1 1.04-.236.95.95 0 0 1 .58.912l-.093 2.746 1.989 1.863a.96.96 0 0 1 .229 1.059c-.148.368-.505.603-.895.59l-2.703-.094-1.831 2.021c-.265.292-.679.387-1.043.235a.95.95 0 0 1-.577-.911l.09-2.747-1.987-1.862a.96.96 0 0 1-.232-1.06c.148-.368.508-.602.898-.589l2.7.093 1.834-2.02z"/><path id="a" d="M207.799 87.239c1.142.69 3.136 2.654 2.199 4.258s-3.587.763-4.729.073-1.673-2.322-.975-3.518 2.362-1.503 3.505-.813z"/><path id="b" d="M168.755 53.558c-.549.848-.276 3.788-.276 3.788s2.796-.951 3.345-1.799a1.83 1.83 0 0 0-.54-2.53 1.83 1.83 0 0 0-2.53.54z"/><path id="c" d="M168.48 57.129c.588 0 1.148.12 1.656.337v7.798a4.23 4.23 0 0 1-1.656.337c-.588 0-1.148-.12-1.656-.337v-7.798a4.23 4.23 0 0 1 1.656-.337z"/><path id="d" d="M149.959 88.978c.588 0 1.148.12 1.656.337v7.798a4.23 4.23 0 0 1-1.656.337 4.21 4.21 0 0 1-1.656-.337v-7.798a4.23 4.23 0 0 1 1.656-.337z"/><path id="e" d="M626.249 16.076h-9.252v25.505c0 2.558 2.069 4.632 4.622 4.632h.009a4.63 4.63 0 0 0 4.622-4.632V16.076z"/><path id="f" d="M644.709 14.658a2.31 2.31 0 0 0-3.194-.701c-1.075.691-1.388 2.127-.7 3.204l4.95 7.754a2.31 2.31 0 0 0 3.194.701c1.075-.691 1.388-2.127.7-3.205l-4.95-7.753z"/><path id="g" d="M627.504-12.479c-1.418-2.237-3.879-3.592-6.523-3.592s-5.105 1.355-6.523 3.592l-19.562 30.851c0 10.596 11.688 19.199 26.085 19.199s26.085-8.603 26.085-19.199l-19.562-30.851z"/><path id="h" d="M626.351-29.743a7.72 7.72 0 0 0-5.95-2.804c-2.301 0-4.482 1.027-5.951 2.802-7.697 9.317-20.133 25.685-20.133 34.207 0 10.596 11.688 19.199 26.085 19.199s26.085-8.603 26.085-19.199c0-8.522-12.437-24.89-20.135-34.205z"/><path id="i" d="M612.043 33.147c.137-1.272 1.278-2.194 2.547-2.057a2.32 2.32 0 0 1 2.052 2.553l-.425 3.958c-.137 1.272-1.278 2.194-2.547 2.057a2.32 2.32 0 0 1-2.052-2.553l.425-3.958z"/><path id="j" d="M596.35 16.085a2.31 2.31 0 0 1 3.196-.7c1.075.691 1.387 2.126.698 3.203l-4.132 6.455a2.31 2.31 0 0 1-3.196.699c-1.075-.691-1.387-2.126-.698-3.203l4.131-6.455z"/><path id="k" d="M622.715,23.661c0-1.28-1.037-2.318-2.313-2.318s-2.313,1.039-2.313,2.318v2.318c0,1.28,1.037,2.318,2.313,2.318s2.313-1.039,2.313-2.318v-2.318Z"/><path id="l" d="M610.251 28.021c.157-1.27 1.313-2.173 2.58-2.015a2.32 2.32 0 0 1 2.011 2.586l-.285 2.301c-.157 1.27-1.313 2.173-2.58 2.015a2.32 2.32 0 0 1-2.011-2.586l.284-2.301z"/><path id="m" d="M636.766 18.814c-.384-1.22-1.684-1.899-2.901-1.514a2.32 2.32 0 0 0-1.511 2.908l.974 3.098c.384 1.22 1.684 1.899 2.901 1.514a2.32 2.32 0 0 0 1.511-2.908l-.974-3.098z"/><path id="n" d="M605.538 19.866c.384-1.22 1.684-1.899 2.901-1.514a2.32 2.32 0 0 1 1.511 2.908l-.974 3.098c-.384 1.22-1.684 1.899-2.901 1.514a2.32 2.32 0 0 1-1.511-2.908l.974-3.098z"/><path id="o" d="M642.478 14.449a2.31 2.31 0 0 0-3.16-.848c-1.106.64-1.485 2.059-.847 3.167l2.092 3.633c.638 1.108 2.054 1.488 3.16.849s1.485-2.059.847-3.167l-2.093-3.633z"/><path id="p" d="M599.848 14.324a2.31 2.31 0 0 1 3.16-.848c1.106.64 1.485 2.059.847 3.167l-2.093 3.633c-.638 1.108-2.054 1.488-3.16.849s-1.485-2.059-.847-3.167l2.093-3.633z"/><path id="q" d="M626.346-40.211c-1.469-1.771-3.647-2.795-5.944-2.795s-4.476,1.024-5.944,2.795c-6.488,7.835-15.965,20.429-15.965,27.138,0,8.758,9.817,15.869,21.91,15.869s21.909-7.111,21.909-15.869c0-6.71-9.477-19.303-15.965-27.138Z"/><path id="r" d="M608.591.944c.638-1.108.259-2.527-.847-3.167s-2.521-.259-3.16.849l-2.313 4.015c-.638 1.108-.259 2.527.847 3.167s2.521.259 3.16-.849l2.313-4.015z"/><path id="s" d="M614.078 9.414a2.32 2.32 0 0 0-1.429-2.949c-1.206-.418-2.525.223-2.942 1.432l-.757 2.191a2.32 2.32 0 0 0 1.429 2.949c1.206.418 2.525-.223 2.942-1.432l.757-2.191z"/><path id="t" d="M623.936,7.433c0-1.28-1.037-2.318-2.313-2.318s-2.313,1.039-2.313,2.318v2.318c0,1.28,1.036,2.318,2.313,2.318s2.313-1.039,2.313-2.318v-2.318Z"/><path id="u" d="M633.031 7.816c-.462-1.193-1.804-1.784-2.994-1.321s-1.78 1.808-1.318 3.001l.838 2.161c.462 1.192 1.804 1.784 2.994 1.321s1.78-1.808 1.318-3.001l-.838-2.161z"/><path id="v" d="M636.657-2.151a2.31 2.31 0 0 0-3.16-.848c-1.105.64-1.485 2.059-.847 3.167l2.003 3.477a2.31 2.31 0 0 0 3.16.848c1.106-.64 1.485-2.059.847-3.167l-2.003-3.477z"/><path id="w" d="M618.088-2.024c0-1.28,1.037-2.318,2.313-2.318s2.313,1.039,2.313,2.318v.183c0,1.28-1.037,2.318-2.313,2.318s-2.313-1.039-2.313-2.318v-.183Z"/><path id="x" d="M596.644 3.708a2.31 2.31 0 0 1 3.196-.699c1.075.691 1.387 2.126.698 3.203l-.099.154a2.31 2.31 0 0 1-3.196.7c-1.075-.691-1.387-2.126-.698-3.203l.099-.154z"/><path id="y" d="M644.616 3.708a2.31 2.31 0 0 0-3.196-.699c-1.075.691-1.387 2.126-.698 3.203l.099.154a2.31 2.31 0 0 0 3.196.7c1.075-.691 1.387-2.126.698-3.203l-.099-.154z"/><path id="z" d="M604.177 13.884a2.31 2.31 0 0 1 3.196-.7c1.075.691 1.387 2.126.698 3.203l-.099.154a2.31 2.31 0 0 1-3.196.699c-1.075-.691-1.387-2.126-.698-3.203l.099-.154z"/><path id="AA" d="M637.083 13.884a2.31 2.31 0 0 0-3.196-.7c-1.075.691-1.387 2.126-.698 3.203l.099.154a2.31 2.31 0 0 0 3.196.699c1.075-.691 1.387-2.126.698-3.203l-.099-.154z"/><path id="AB" d="M642.952 25.565a2.31 2.31 0 0 0-3.215-.607c-1.054.721-1.326 2.165-.606 3.222l1.823 2.676a2.31 2.31 0 0 0 3.214.607c1.054-.721 1.326-2.165.606-3.222l-1.822-2.676z"/><path id="AC" d="M609.325 16.97c.376-1.223 1.672-1.909 2.892-1.532a2.32 2.32 0 0 1 1.528 2.899l-.054.175c-.377 1.222-1.672 1.909-2.892 1.532a2.32 2.32 0 0 1-1.528-2.899l.054-.175z"/><path id="AD" d="M631.935 16.97c-.376-1.223-1.672-1.909-2.892-1.532a2.32 2.32 0 0 0-1.528 2.899l.054.175c.376 1.222 1.672 1.909 2.892 1.532a2.32 2.32 0 0 0 1.528-2.899l-.054-.175z"/><path id="AE" d="M604.543 31.144c.376-1.223 1.672-1.909 2.892-1.532a2.32 2.32 0 0 1 1.528 2.899l-.92 2.99c-.376 1.223-1.672 1.909-2.892 1.532a2.32 2.32 0 0 1-1.529-2.899l.92-2.99z"/><path id="AF" d="M615.352 19.193c.137-1.272 1.278-2.194 2.547-2.057a2.32 2.32 0 0 1 2.052 2.553l-.02.182c-.137 1.272-1.278 2.194-2.547 2.057a2.32 2.32 0 0 1-2.052-2.553l.02-.182z"/><path id="AG" d="M625.908 19.193c-.137-1.272-1.278-2.194-2.547-2.057a2.32 2.32 0 0 0-2.052 2.553l.02.182c.137 1.272 1.278 2.194 2.547 2.057a2.32 2.32 0 0 0 2.052-2.553l-.02-.182z"/><path id="AH" d="M599.42 9.598a2.31 2.31 0 0 1 3.196-.7c1.075.691 1.387 2.126.698 3.203l-.099.154a2.31 2.31 0 0 1-3.196.7c-1.074-.691-1.387-2.126-.698-3.203l.099-.154z"/><path id="AI" d="M641.839 9.598a2.31 2.31 0 0 0-3.196-.7c-1.075.691-1.387 2.126-.698 3.203l.099.154a2.31 2.31 0 0 0 3.196.7c1.075-.691 1.387-2.126.698-3.203l-.099-.154z"/><path id="AJ" d="M599.748 25.525a2.31 2.31 0 0 1 3.196-.699c1.075.691 1.387 2.126.698 3.203l-2.758 4.308a2.31 2.31 0 0 1-3.196.699c-1.075-.691-1.387-2.126-.698-3.203l2.758-4.309z"/><path id="AK" d="M605.93 18.465a2.61 2.61 0 0 0-3.264-1.729 2.62 2.62 0 0 0-1.725 3.271l.061.198a2.61 2.61 0 0 0 3.264 1.729 2.62 2.62 0 0 0 1.725-3.271l-.061-.198z"/><path id="AL" d="M599.128 20.974c-.154-1.436-1.442-2.476-2.875-2.321s-2.47 1.445-2.316 2.881l.022.206c.154 1.436 1.442 2.476 2.875 2.321s2.47-1.445 2.316-2.881l-.022-.206z"/></defs><g clip-path="url(#A)"><path d="M-20.02-4529.135h1540.04V745.02H-20.02z" fill="#00b365"/><path d="M869.153 170.344h0a472.11 472.11 0 0 1-331.059 135.529H-20.02V745.02h1540.04V34.814h-319.809a472.11 472.11 0 0 0-331.059 135.529z" fill="#ffed8b"/><path d="M1281.853-507.5c-30.509 0-55.242-24.733-55.242-55.242h0c0-30.509-24.733-55.242-55.242-55.242H870.748c-30.509 0-55.242-24.733-55.242-55.242h0c0-78.024-63.251-141.275-141.275-141.275H503.047c-79.431 0-143.822-64.391-143.822-143.822v-91.837c0-79.431-64.391-143.822-143.822-143.822H-20.02V305.873h558.114a472.11 472.11 0 0 0 331.059-135.529h0a472.11 472.11 0 0 1 331.059-135.529h319.809V-507.5h-238.167z" class="Q"/><path d="M-10.01 305.873h548.104a472.11 472.11 0 0 0 331.059-135.529h0a472.11 472.11 0 0 1 331.059-135.529h314.804" stroke-dasharray="0 10.01" class="D H I K R"/><g opacity=".331" fill="#00703a"><path d="M419.297,51.532c-1.232,0-2.231-1-2.231-2.236v-7.001c0-1.236.999-2.236,2.231-2.236s2.231,1,2.231,2.236v7.001c0,1.236-.999,2.236-2.231,2.236Z"/><use href="#M"/><path d="M410.759 51.532c-1.232 0-2.231-1-2.231-2.236v-4.667c0-1.236.999-2.236 2.231-2.236s2.231 1 2.231 2.236v4.667c0 1.236-.999 2.236-2.231 2.236zm33.669 18.478c-1.232 0-2.231-1-2.231-2.236v-7.001c0-1.236.999-2.236 2.231-2.236s2.231 1 2.231 2.236v7.001c0 1.236-.999 2.236-2.231 2.236z"/><use href="#N"/><path d="M435.891 70.01c-1.232 0-2.231-1-2.231-2.236v-4.669c0-1.236.999-2.236 2.231-2.236s2.231 1 2.231 2.236v4.669c0 1.236-.999 2.236-2.231 2.236zm17.17-38.706c-1.232 0-2.231-1-2.231-2.236v-7.001c0-1.236.999-2.236 2.231-2.236s2.231 1 2.231 2.236v7.001c0 1.236-.999 2.236-2.231 2.236zm9.315 0c-1.232 0-2.231-1-2.231-2.236v-4.669c0-1.236.999-2.236 2.231-2.236s2.231 1 2.231 2.236v4.669c0 1.236-.999 2.236-2.231 2.236zm-17.852 0c-1.232 0-2.231-1-2.231-2.236v-4.669c0-1.236.999-2.236 2.231-2.236s2.231 1 2.231 2.236v4.669c0 1.236-.999 2.236-2.231 2.236z"/></g><g opacity=".331" fill="#00703a"><use href="#O"/><use href="#P"/><path d="M729.048 58.079c1.232 0 2.231-1 2.231-2.236v-4.667c0-1.236-.999-2.236-2.231-2.236s-2.231 1-2.231 2.236v4.667c0 1.236.999 2.236 2.231 2.236zm-33.669 18.478c1.232 0 2.231-1 2.231-2.236V67.32c0-1.236-.999-2.236-2.231-2.236s-2.231 1-2.231 2.236v7.001c0 1.236.999 2.236 2.231 2.236z"/><use href="#Q"/><path d="M703.917 76.557c1.232 0 2.231-1 2.231-2.236v-4.669c0-1.236-.999-2.236-2.231-2.236s-2.231 1-2.231 2.236v4.669c0 1.236.999 2.236 2.231 2.236zm-17.171-38.706c1.232 0 2.231-1 2.231-2.236v-7.001c0-1.236-.999-2.236-2.231-2.236s-2.231 1-2.231 2.236v7.001c0 1.236.999 2.236 2.231 2.236z"/><use href="#R"/><path d="M695.284,37.851c1.232,0,2.231-1,2.231-2.236v-4.669c0-1.236-.999-2.236-2.231-2.236s-2.231,1-2.231,2.236v4.669c0,1.236.999,2.236,2.231,2.236Z"/></g><path d="M524.893,76.477c16.208,0,29.367,13.159,29.367,29.367s-13.159,29.367-29.367,29.367-29.367-13.159-29.367-29.367,13.159-29.367,29.367-29.367Z" class="B L"/><path d="M519.641 101.491h10.504v89.657h-10.504z" fill="#393f6b"/><g class="B"><path d="M504.466,126.935c-5.512-5.34-8.941-12.818-8.941-21.091,0-16.208,13.159-29.367,29.367-29.367s29.367,13.159,29.367,29.367c0,8.273-3.428,15.752-8.94,21.091-2.736-8.676-10.852-14.973-20.426-14.973s-17.69,6.297-20.426,14.973Z" class="O"/><path d="M579.54,122.31c16.208,0,29.367,13.159,29.367,29.367s-13.159,29.367-29.367,29.367-29.367-13.159-29.367-29.367,13.159-29.367,29.367-29.367Z" class="L"/><path d="M559.114,172.768c-5.512-5.34-8.941-12.818-8.941-21.091,0-16.208,13.159-29.367,29.367-29.367s29.367,13.159,29.367,29.367c0,8.273-3.428,15.752-8.94,21.091-2.736-8.676-10.852-14.973-20.426-14.973s-17.69,6.297-20.426,14.973Z" class="O"/></g><rect x="771.199" y="100.976" width="37.107" height="5.888" rx="2.944" opacity=".106"/><path d="M789.753 20.565c-15.75 0-28.537 12.787-28.537 28.537s12.787 28.537 28.537 28.537 28.537-12.787 28.537-28.537-12.787-28.537-28.537-28.537z" fill="#00775d" class="B"/><circle cx="805.149" cy="62.511" r="3.157" class="L"/><path d="M784.824 39.918h9.859v64.542h-9.859z" fill="#393f6b"/><path d="M809.616 69.632c5.36-5.192 8.694-12.465 8.694-20.51 0-15.761-12.796-28.557-28.557-28.557s-28.557 12.796-28.557 28.557c0 8.045 3.334 15.317 8.694 20.51 2.661-8.436 10.552-14.56 19.863-14.56s17.202 6.124 19.863 14.56z" fill="#009166" class="B"/><circle cx="781.077" cy="35.792" r="3.157" class="O"/><circle cx="795.185" cy="29.477" r="3.157" class="L"/><circle cx="803.374" cy="44.079" r="3.157" class="O"/><g class="L"><circle cx="787.391" cy="45.099" r="3.157"/><circle cx="777.92" cy="23.722" r="3.157"/><circle cx="817.778" cy="53.715" r="3.157"/></g><circle cx="771.605" cy="43.568" r="3.157" class="O"/><circle cx="777.426" cy="59.353" r="3.157" class="L"/><g fill="#2c2b48"><path d="M1344.814 73.854l1.05-.402-1.502-4.01-1.05.402 1.502 4.01zm-3.682-5.893l3.63-1.399-.463-1.229-3.629 1.399.462 1.229z"/></g><g clip-path="url(#B)"><g fill="#b2a1ca"><use href="#S"/><use href="#T"/></g><g class="X"><path d="M1341.993 65.691c-.313-.837.108-1.781.936-2.097l1.156-.442a1.61 1.61 0 0 1 2.076.946l.113.301c.052.14-.017.297-.156.35l-3.665 1.402c-.139.053-.293-.018-.346-.158l-.113-.301zm5.703 2.444c.313.837-.108 1.781-.936 2.097l-1.156.442a1.61 1.61 0 0 1-2.076-.946l-.811-2.164c-.052-.14.017-.297.156-.35l3.665-1.402c.139-.053.293.018.346.158l.811 2.164z"/></g></g><g clip-path="url(#C)"><g class="B"><use href="#U" class="X"/><use href="#U" class="Y"/><path d="M1349.979 70.767h0c5.176-1.98 11.013.68 12.973 5.91l8.289 22.127c.313.837-.108 1.781-.936 2.097l-15.81 6.047a1.61 1.61 0 0 1-2.076-.946l-8.289-22.127c-1.959-5.23.673-11.129 5.848-13.109z" class="X"/></g><g clip-path="url(#D)"><path d="M1351.902 85.494l11.368-4.348-2.421-6.464-11.368 4.348a3.48 3.48 0 0 0-1.988 4.455h0c.666 1.777 2.65 2.681 4.409 2.008z" fill="#7974a0" class="B"/><ellipse cx="1351.252" cy="82.048" rx="1.808" ry="1.827" fill="#2c2b48"/><ellipse cx="1351.252" cy="82.048" rx="1.808" ry="1.827" fill="#403d64"/><path d="M1350.612 80.339c.734-.281 1.523-.035 2.004.536l11.048-4.226.424 1.138-11.045 4.227c.013.75-.417 1.461-1.151 1.741-.934.357-1.977-.118-2.331-1.062s.117-1.998 1.051-2.355z" fill="#292d47"/></g></g><path d="M1338.19 112.554c0-1.111.893-2.013 1.992-2.013h43.53c1.1 0 1.993.902 1.993 2.013s-.893 2.013-1.993 2.013h-43.53c-1.1 0-1.992-.902-1.992-2.013z" fill="#f2b052" opacity=".3" class="B"/><path d="M1375.882,100.602c.892,2.975,2.627,5.65,4.951,7.67.839.729,1.553,1.592,2.082,2.574l.967,1.798c.082.152-.096.313-.236.213l-2.762-1.969c-3.298-2.35-5.758-5.793-6.927-9.696l-3.949-13.176,1.92-.61,3.955,13.197Z" fill="#414361"/><path d="M1345.576 101.204l13.711-5.205c.666-.252 1.359-.445 2.06-.571l1.69-.229c5.031 0 9.123 4.137 9.123 9.22 0 4.559-3.364 8.481-7.861 9.126l-16.483.092c-3.507 0-6.358-2.881-6.358-6.423a6.46 6.46 0 0 1 4.118-6.009z" fill="#343758"/><path d="M1345.954 102.217l14.634-5.556v.006a7.95 7.95 0 0 1 2.449-.386c4.44 0 8.052 3.65 8.052 8.136 0 4.329-3.364 7.878-7.589 8.122h0c-.159.009-15.682.014-15.682.014-2.914 0-5.285-2.396-5.285-5.34 0-2.282 1.424-4.233 3.421-4.996z" fill="#111" class="B"/><g fill="#343758"><ellipse cx="1363.037" cy="104.417" rx="5.624" ry="5.683"/><ellipse cx="1347.817" cy="107.213" rx="2.86" ry="2.89"/></g><path d="M1351.505 90.687l19.673 3.947.358-1.824-19.672-3.947-.359 1.824z" fill="#9e96c7" class="B"/><g clip-path="url(#E)"><ellipse cx="1372.905" cy="93.881" rx="2.995" ry="3.027" class="Y"/><ellipse cx="1372.905" cy="93.881" rx="1.21" ry="1.223" fill="#807ba0"/></g><g clip-path="url(#F)"><ellipse cx="1351.47" cy="89.786" rx="1.845" ry="1.864" class="Y"/><ellipse cx="1351.47" cy="89.786" rx=".771" ry=".779" fill="#807ba0"/></g><g fill="#111" class="B"><path d="M1361.26 103.878h.132c.028-.088.064-.173.105-.254l-.094-.095a.25.25 0 0 1 0-.35l.409-.413c.095-.096.251-.096.346 0l.094.095a1.6 1.6 0 0 1 .252-.106v-.134c0-.136.11-.247.245-.247h.578c.135 0 .245.111.245.247v.134c.087.029.171.065.252.106l.094-.095c.095-.096.251-.096.346 0l.409.413a.25.25 0 0 1 0 .35l-.094.095c.041.081.077.166.105.254h.132c.135 0 .245.111.245.247v.584c0 .136-.11.247-.245.247h-.132c-.028.088-.064.173-.105.254l.094.095a.25.25 0 0 1 0 .35l-.409.413c-.095.096-.251.096-.346 0l-.094-.095a1.6 1.6 0 0 1-.252.106v.134c0 .136-.11.247-.245.247h-.578c-.135 0-.245-.111-.245-.247v-.134c-.087-.029-.171-.065-.252-.106l-.094.095c-.095.096-.251.096-.346 0l-.409-.413a.25.25 0 0 1 0-.35l.094-.095c-.041-.081-.077-.166-.105-.254h-.132c-.135 0-.245-.111-.245-.247v-.584c0-.136.11-.247.245-.247zm-14.646 2.971h.089a1.13 1.13 0 0 1 .071-.172l-.064-.064a.17.17 0 0 1 0-.237l.276-.279c.064-.065.17-.065.234 0l.064.064c.055-.028.111-.053.17-.072v-.09c0-.092.075-.167.166-.167h.391c.091 0 .166.075.166.167v.09a1.11 1.11 0 0 1 .17.072l.064-.064c.064-.065.17-.065.234 0l.276.279a.17.17 0 0 1 0 .237l-.064.064a1.13 1.13 0 0 1 .071.172h.089c.091 0 .166.075.166.167v.395c0 .092-.075.167-.166.167h-.089a1.13 1.13 0 0 1-.071.172l.064.064a.17.17 0 0 1 0 .237l-.276.279c-.064.065-.17.065-.234 0l-.064-.064c-.055.028-.111.053-.17.072v.09c0 .092-.075.167-.166.167h-.391c-.091 0-.166-.075-.166-.167v-.09a1.11 1.11 0 0 1-.17-.072l-.064.064c-.064.065-.17.065-.234 0l-.276-.279a.17.17 0 0 1 0-.237l.064-.064a1.13 1.13 0 0 1-.071-.172h-.089c-.091 0-.166-.075-.166-.167v-.395c0-.092.075-.167.166-.167z"/></g><path d="M171.219 42.596h-40.377v-44.96h40.377z" fill="#e4813c"/><path d="M167.865 38.535h-33.669V15.89h33.669z" fill="#d75134"/><path d="M167.865 38.535h-33.669v-6.866h33.669z" class="P"/><path d="M171.219 5.092h-40.377V-.654h40.377z" fill="#d75134"/><path d="M174.368 42.597h-46.341" class="H I K Q R Z"/><path d="M173.001 20.448h-43.94V8.047h43.94z" fill="#c4dade"/><path d="M173.001 11.749h-43.94V8.047h43.94z" class="P"/><path d="M137.597 8.042a.97.97 0 0 1 .966-.966h3.414a.97.97 0 0 1 .966.966.97.97 0 0 1-.966.966h-.308v1.56a.77.77 0 0 1-.768.768.77.77 0 0 1-.768-.768v-1.56h-.493v2.942a.77.77 0 0 1-.768.768.77.77 0 0 1-.768-.768V8.876c-.297-.165-.508-.471-.508-.833z" fill="#e4d44b"/><path d="M119.741 11.078c-.628-.461-1.5-.314-1.947.307l-.802 1.102-2.247-.258 1.849-3.384c.551-1.012.181-2.289-.83-2.84a2.09 2.09 0 0 0-2.84.83l-9.81 17.967c-.551 1.012-.181 2.289.83 2.84.244.133.502.209.761.244.823.091 1.654-.307 2.079-1.075l6.517-11.945 4.18.481a1.41 1.41 0 0 0 1.291-.565l1.277-1.765c.454-.621.314-1.493-.307-1.947v.007z" fill="#623d1e"/><path d="M76.816 22.179L64.731 5.656c-.684-.928-1.989-1.137-2.924-.454a2.09 2.09 0 0 0-.454 2.924l.963 1.319h-3.377c-.774 0-1.395.628-1.395 1.396s.621 1.395 1.395 1.395h5.415l9.078 12.413a2.09 2.09 0 0 0 2.198.795c.251-.063.502-.174.726-.342a2.09 2.09 0 0 0 .454-2.924h.007z" class="F"/><path d="M109.84-5.744L88.859-26.579 67.878-5.744l4.186 34.524h33.59l4.186-34.524z" fill="#623d1e"/><circle cx="73.39" cy="4.526" r="3.831" class="F"/><path d="M73.39 9.055c-2.498 0-4.528-2.03-4.528-4.528s2.03-4.529 4.528-4.529 4.528 2.03 4.528 4.528-2.03 4.528-4.528 4.528zm0-7.661a3.14 3.14 0 0 0-3.133 3.133c0 1.731 1.402 3.133 3.133 3.133s3.133-1.402 3.133-3.133-1.402-3.133-3.133-3.133z" class="G"/><circle cx="79.425" cy="-1.9" r="3.831" class="F"/><path d="M79.425 2.629c-2.498 0-4.528-2.03-4.528-4.528s2.03-4.528 4.528-4.528 4.528 2.03 4.528 4.528-2.03 4.528-4.528 4.528zm0-7.662A3.14 3.14 0 0 0 76.292-1.9c0 1.731 1.402 3.133 3.133 3.133S82.558-.169 82.558-1.9s-1.402-3.133-3.133-3.133z" class="G"/><circle cx="87.498" cy="-1.425" r="3.321" class="F"/><path d="M87.498,2.601c-2.219,0-4.019-1.807-4.019-4.019s1.807-4.019,4.019-4.019,4.019,1.807,4.019,4.019-1.807,4.019-4.019,4.019ZM87.498-4.049c-1.451,0-2.624,1.179-2.624,2.624s1.179,2.624,2.624,2.624,2.624-1.179,2.624-2.624-1.179-2.624-2.624-2.624Z" class="G"/><circle cx="82.251" cy="5.761" r="3.831" class="F"/><use href="#V" class="G"/><circle cx="102.653" cy="5.761" r="3.831" class="F"/><path d="M102.653 10.29c-2.498 0-4.528-2.03-4.528-4.528s2.03-4.528 4.528-4.528 4.528 2.03 4.528 4.528-2.03 4.528-4.528 4.528zm0-7.661a3.14 3.14 0 0 0-3.133 3.133c0 1.731 1.402 3.133 3.133 3.133s3.133-1.402 3.133-3.133-1.402-3.133-3.133-3.133z" class="G"/><circle cx="96.576" cy="-1.425" r="3.831" class="F"/><path d="M96.576 3.103c-2.498 0-4.528-2.03-4.528-4.528s2.03-4.528 4.528-4.528 4.528 2.03 4.528 4.528-2.03 4.528-4.528 4.528zm0-7.661a3.14 3.14 0 0 0-3.133 3.133c0 1.731 1.402 3.133 3.133 3.133s3.133-1.402 3.133-3.133-1.402-3.133-3.133-3.133z" class="G"/><circle cx="104.858" cy="-1.9" r="3.831" class="F"/><path d="M104.858 2.629c-2.498 0-4.528-2.03-4.528-4.528s2.03-4.528 4.528-4.528 4.528 2.03 4.528 4.528-2.03 4.528-4.528 4.528zm0-7.662a3.14 3.14 0 0 0-3.133 3.133c0 1.731 1.402 3.133 3.133 3.133s3.133-1.402 3.133-3.133-1.402-3.133-3.133-3.133z" class="G"/><path d="M106.889 30.176h-36.06L66.412-6.253l22.447-22.293 22.447 22.293-4.417 36.429zm-33.59-2.791h31.113l3.956-32.62-19.509-19.376L69.35-5.235l3.956 32.62h-.007z" fill="#84582d"/><circle cx="97.406" cy="10.785" r="3.321" class="F"/><path d="M97.406,14.811c-2.219,0-4.019-1.807-4.019-4.019s1.807-4.019,4.019-4.019,4.026,1.807,4.026,4.019-1.807,4.019-4.026,4.019ZM97.406,8.162c-1.451,0-2.624,1.179-2.624,2.624s1.179,2.624,2.624,2.624,2.631-1.179,2.631-2.624-1.179-2.624-2.631-2.624Z" class="G"/><circle cx="87.205" cy="10.785" r="3.321" class="F"/><path d="M87.205,14.811c-2.219,0-4.019-1.807-4.019-4.019s1.807-4.019,4.019-4.019,4.026,1.807,4.026,4.019-1.807,4.019-4.026,4.019ZM87.205,8.162c-1.451,0-2.624,1.179-2.624,2.624s1.179,2.624,2.624,2.624,2.631-1.179,2.631-2.624-1.179-2.624-2.631-2.624Z" class="G"/><circle cx="77.22" cy="10.785" r="3.321" class="F"/><path d="M77.22,14.811c-2.219,0-4.019-1.807-4.019-4.019s1.807-4.019,4.019-4.019,4.019,1.807,4.019,4.019-1.807,4.019-4.019,4.019ZM77.22,8.162c-1.451,0-2.624,1.179-2.624,2.624s1.179,2.624,2.624,2.624,2.624-1.179,2.624-2.624-1.179-2.624-2.624-2.624Z" class="G"/><path d="M69.559 12.718H107.9v2.791H69.559z" fill="#84582d"/><circle cx="92.166" cy="5.761" r="3.831" class="F"/><path d="M92.166 10.29c-2.498 0-4.528-2.03-4.528-4.528s2.03-4.528 4.528-4.528 4.528 2.03 4.528 4.528-2.03 4.528-4.528 4.528zm0-7.661a3.14 3.14 0 0 0-3.133 3.133c0 1.731 1.402 3.133 3.133 3.133s3.133-1.402 3.133-3.133-1.402-3.133-3.133-3.133z" class="G"/><path d="M114.159.668c-.537 0-1.068-.202-1.479-.607L88.859-23.628 65.031.061c-.823.816-2.142.809-2.958-.007s-.809-2.142.007-2.958l25.3-25.161a2.1 2.1 0 0 1 2.951 0l25.3 25.153c.823.816.823 2.142.007 2.958a2.09 2.09 0 0 1-1.486.614l.007.007z" fill="#a8302d"/><path d="M110.395 30.082H67.173" class="H I K Q R Z"/><path d="M119.452 100.079H79.075v-44.96h40.377z" fill="#862f8a"/><path d="M116.098 96.018H82.429V73.373h33.669z" fill="#6d2d75"/><path d="M116.098 96.017H82.429v-6.866h33.669z" class="P"/><path d="M119.452 62.574H79.075v-5.746h40.377z" fill="#6d2d75"/><path d="M122.601 100.079H76.26" class="H I K Q R Z"/><path d="M121.234 57.322h-43.94V44.921h43.94z" class="P"/><path d="M121.234 48.623h-43.94v-3.702h43.94z" fill="#ecf5f6"/><path d="M121.234 77.93h-43.94V65.529h43.94z" fill="#c4dade"/><path d="M121.234 69.231h-43.94v-3.702h43.94z" class="P"/><path d="M114.254,89.167c0-.532-.435-.966-.966-.966h-3.414c-.531,0-.966.434-.966.966s.435.966.966.966h.308v1.56c0,.422.345.768.768.768s.768-.345.768-.768v-1.56h.493v2.942c0,.422.345.768.768.768s.768-.346.768-.768v-3.074c.297-.165.508-.471.508-.833Z" fill="#e4d44b"/><path d="M188.586,98.274c-.051,4.991-.495,9.635-.72,11.713h2.189c.24-2.233.669-6.795.713-11.691.087-8.252-4.48-13.325-4.676-13.532l-.8.754-.8.754c.044.044,4.174,4.673,4.094,12.001Z" class="M"/><path d="M191.274 77.941c-.006-1.111-.664-2.11-1.67-2.538a2.69 2.69 0 0 0-2.956.571l-3.469 3.429-4.837.034c-1.093.008-2.074.679-2.496 1.705s-.203 2.207.56 3.004l3.373 3.526.035 4.92c.006 1.111.664 2.11 1.677 2.54 1.007.428 2.168.203 2.95-.573l3.469-3.429 4.837-.035a2.73 2.73 0 0 0 2.502-1.702c.421-1.026.196-2.21-.566-3.007l-3.373-3.525-.035-4.919z" class="S"/><use href="#W" fill="#f9bd5d"/><g class="M"><use href="#X" class="B"/><path d="M210.81,90.954c.051,4.991.495,9.635.72,11.713h-2.189c-.24-2.233-.669-6.795-.713-11.691-.087-8.252,4.48-13.325,4.676-13.532l.8.754.8.754c-.044.044-4.174,4.673-4.094,12.001Z"/></g><use href="#Y" class="S"/><use href="#Z" fill="#f9bd5d"/><use href="#a" class="B M"/><path d="M216.692 103.425h-16.87l-4.787 8.827h-12.181" class="D H I K c d"/><path d="M277.903,109.417c.051,4.991.495,9.635.72,11.713h-2.189c-.24-2.233-.669-6.795-.713-11.691-.087-8.252,4.48-13.325,4.676-13.532l.8.754.8.754c-.044.044-4.174,4.673-4.094,12.001Z" class="M"/><path d="M275.215 89.085c.006-1.111.664-2.11 1.67-2.538a2.69 2.69 0 0 1 2.956.571l3.469 3.429 4.837.034c1.093.008 2.074.679 2.496 1.705s.203 2.207-.56 3.004l-3.373 3.526-.035 4.92c-.006 1.111-.664 2.11-1.677 2.54-1.007.428-2.168.203-2.95-.573l-3.469-3.429-4.837-.035a2.73 2.73 0 0 1-2.502-1.702c-.421-1.026-.196-2.21.566-3.007l3.373-3.525.035-4.919z" fill="#ef59e1"/><path d="M281.781 91.983a.92.92 0 0 1 1.04-.236.95.95 0 0 1 .58.912l-.093 2.746 1.989 1.863a.96.96 0 0 1 .229 1.059c-.148.368-.505.603-.895.59l-2.703-.094-1.831 2.021c-.265.292-.679.387-1.043.235a.95.95 0 0 1-.577-.911l.09-2.747-1.987-1.862a.96.96 0 0 1-.232-1.06c.148-.368.508-.602.898-.589l2.7.093 1.834-2.02z" class="S"/><g class="M"><path d="M274.892 105.703c1.142.69 3.136 2.654 2.199 4.258s-3.587.763-4.729.073-1.673-2.322-.975-3.518 2.362-1.503 3.505-.813z" class="B"/><path d="M255.679,102.097c-.051,4.991-.495,9.635-.72,11.713h2.189c.24-2.233.669-6.795.713-11.691.087-8.252-4.48-13.325-4.676-13.532l-.8.754-.8.754c.044.044,4.174,4.673,4.094,12.001Z"/></g><path d="M258.367 81.765c-.006-1.111-.664-2.11-1.67-2.538a2.69 2.69 0 0 0-2.956.571l-3.469 3.429-4.837.034c-1.093.008-2.074.679-2.496 1.705s-.203 2.207.56 3.004l3.373 3.526.035 4.92c.006 1.111.664 2.11 1.677 2.54 1.007.428 2.168.203 2.95-.573l3.469-3.429 4.837-.035a2.73 2.73 0 0 0 2.502-1.702c.422-1.026.196-2.21-.566-3.007l-3.373-3.525-.035-4.919z" fill="#ef59e1"/><path d="M251.801 84.663a.92.92 0 0 0-1.04-.236.95.95 0 0 0-.58.912l.093 2.746-1.989 1.863a.96.96 0 0 0-.229 1.059c.148.368.505.603.895.59l2.703-.094 1.831 2.021c.265.292.679.387 1.043.235a.95.95 0 0 0 .577-.911l-.09-2.747 1.987-1.862a.96.96 0 0 0 .232-1.06c-.148-.368-.508-.602-.898-.589l-2.7.093-1.834-2.02z" class="S"/><path d="M258.69 98.382c-1.142.69-3.136 2.654-2.199 4.258s3.587.763 4.729.073 1.673-2.322.975-3.518-2.362-1.503-3.505-.813z" class="B M"/><path d="M249.798 114.569h16.87l4.786 8.827h12.181" class="D H I K c d"/><use href="#b" class="T"/><path d="M172.069 61.365h2.659" class="D H I U V"/><g class="W"><path d="M172.715 61.365c0 1.751-1.063 3.254-2.579 3.899v-7.798c1.516.645 2.579 2.148 2.579 3.899zm-8.471 0c0-1.751 1.063-3.254 2.579-3.899v7.798c-1.516-.645-2.579-2.148-2.579-3.899z"/></g><use href="#c"/><path d="M150.235,85.406c-.549.848-.276,3.788-.276,3.788,0,0,2.796-.951,3.345-1.799s.308-1.98-.54-2.53-1.98-.308-2.53.54Z" class="T"/><path d="M153.548 93.214h2.659" class="D H I U V"/><g class="W"><path d="M154.195 93.214c0 1.751-1.063 3.254-2.579 3.899v-7.798c1.516.645 2.579 2.148 2.579 3.899zm-8.472 0c0-1.751 1.063-3.254 2.579-3.899v7.798c-1.516-.645-2.579-2.148-2.579-3.899z"/></g><use href="#d"/><path d="M148.015,63.125c-.549.848-.276,3.788-.276,3.788,0,0,2.796-.951,3.345-1.799s.308-1.98-.54-2.53-1.98-.308-2.53.54Z" class="T"/><path d="M151.328 70.933h2.66" class="D H I U V"/><g class="W"><path d="M151.975 70.933c0 1.751-1.063 3.254-2.579 3.899v-7.798c1.516.645 2.579 2.148 2.579 3.899zm-8.471 0c0-1.751 1.063-3.254 2.579-3.899v7.798c-1.516-.645-2.579-2.148-2.579-3.899z"/></g><path d="M147.739 66.697c.588 0 1.148.12 1.656.337v7.798a4.23 4.23 0 0 1-1.656.337 4.21 4.21 0 0 1-1.656-.337v-7.798a4.23 4.23 0 0 1 1.656-.337z"/><path d="M250.649 117.279c-.549.848-.276 3.788-.276 3.788s2.796-.951 3.345-1.799a1.83 1.83 0 0 0-.54-2.53 1.83 1.83 0 0 0-2.53.54z" class="T"/><path d="M253.962 125.086h2.66" class="D H I U V"/><g class="W"><path d="M254.609 125.086c0 1.751-1.063 3.254-2.579 3.899v-7.798c1.516.645 2.579 2.148 2.579 3.899zm-8.471 0c0-1.751 1.063-3.254 2.579-3.899v7.798c-1.516-.645-2.579-2.148-2.579-3.899z"/></g><path d="M250.373 120.85c.588 0 1.148.12 1.656.337v7.798a4.23 4.23 0 0 1-1.656.337c-.588 0-1.148-.12-1.656-.337v-7.798a4.23 4.23 0 0 1 1.656-.337z"/><rect x="551.865" y="42.564" width="84.853" height="13.464" rx="6.732" opacity=".106"/><g class="B"><use href="#e" class="a"/><g class="C"><use href="#f"/><use href="#g"/></g></g><g clip-path="url(#G)" class="B N"><use href="#h"/></g><g class="B"><g class="C"><use href="#i"/><use href="#j"/></g><g class="N"><use href="#k"/><path d="M630.715 28.021c-.157-1.27-1.313-2.173-2.58-2.015a2.32 2.32 0 0 0-2.011 2.586l.285 2.301c.157 1.27 1.313 2.173 2.58 2.015A2.32 2.32 0 0 0 631 30.322l-.285-2.301z"/><use href="#l"/><use href="#m"/><use href="#n"/><use href="#o"/><use href="#p"/></g><path d="M626.894-20.772c-1.424-2.21-3.869-3.544-6.493-3.544s-5.069 1.335-6.493 3.544L598.492 3.155c0 8.758 9.817 15.869 21.91 15.869s21.909-7.111 21.909-15.869l-15.416-23.927z" class="E"/></g><g clip-path="url(#H)" class="B C"><use href="#q"/><use href="#r"/><use href="#s"/><use href="#t"/><use href="#u"/><use href="#v"/></g><g class="B"><use href="#w" fill="#c2ed00"/><use href="#x" class="b"/><g class="E"><use href="#y"/><use href="#z"/><use href="#AA"/></g><use href="#AB" class="C"/><g class="E"><use href="#AC"/><use href="#AD"/></g><g class="C"><path d="M636.561 33.353c-.376-1.223-1.672-1.909-2.892-1.532a2.32 2.32 0 0 0-1.528 2.899l.054.175c.376 1.222 1.672 1.909 2.892 1.532a2.32 2.32 0 0 0 1.528-2.899l-.054-.175z"/><use href="#AE"/></g><g class="E"><use href="#AF"/><use href="#AG"/></g><path d="M630.534 35.575c-.137-1.272-1.278-2.194-2.547-2.057a2.32 2.32 0 0 0-2.052 2.553l.02.182c.137 1.272 1.278 2.194 2.547 2.057a2.32 2.32 0 0 0 2.052-2.553l-.02-.182z" class="C"/><g class="E"><use href="#AH"/><use href="#AI"/></g><use href="#AJ" class="C"/><path d="M649.659 22.411l-4.684-7.337-2.708-4.271c-.031-.363-.119-.723-.328-1.05l-.099-.154c-.206-.322-.49-.551-.799-.73l-.121-.192c.266-.517.494-1.046.685-1.587.728.428 1.655.465 2.413-.023 1.074-.691 1.387-2.126.698-3.203l-.099-.154c-.561-.876-1.607-1.213-2.559-.948l-6.068-9.418c0-.289-.048-.582-.163-.866l-.069-.17c-.027-.067-.083-.111-.115-.175a10.5 10.5 0 0 0 1.195-1.858c.58.128 1.207.035 1.746-.312 1.074-.691 1.387-2.126.698-3.203l-.099-.154c-.425-.665-1.136-.996-1.869-1.022l-12.76-19.203a4.29 4.29 0 0 0-7.144 0l-12.769 19.217c-.865-.119-1.762.247-2.264 1.031l-.099.154c-.689 1.077-.377 2.512.698 3.203.651.418 1.418.429 2.087.164.246.506.524 1.001.861 1.473L598.8 2.68c-.83-.074-1.674.277-2.155 1.029l-.099.154c-.689 1.077-.377 2.512.698 3.203.628.404 1.365.429 2.017.194a12.88 12.88 0 0 0 .771 1.706c-.235.167-.446.375-.611.632l-.099.154c-.393.614-.428 1.333-.214 1.976l-3.191 5.032-3.699 5.779c-.689 1.077-.377 2.512.698 3.203a2.31 2.31 0 0 0 3.196-.699l.246-.385c.519 1.099 1.159 2.154 1.927 3.151l-1.295 2.024c-.689 1.077-.377 2.512.698 3.203a2.31 2.31 0 0 0 3.196-.699l.731-1.142c.746.61 1.537 1.188 2.382 1.724l-.374 1.214a2.32 2.32 0 0 0 1.529 2.898c1.22.377 2.516-.309 2.892-1.532l.129-.418c1.127.469 2.309.87 3.533 1.214l-.087.809a2.32 2.32 0 0 0 2.052 2.553c1.269.137 2.411-.785 2.547-2.057l.039-.362a35.27 35.27 0 0 0 4.724.331c1.809 0 3.575-.137 5.281-.395a2.31 2.31 0 0 0 2.24 1.135c1.114-.12 1.958-1.017 2.055-2.095a31.46 31.46 0 0 0 1.981-.654c.565.783 1.577 1.165 2.549.865 1.165-.361 1.831-1.562 1.561-2.735 1.555-.863 2.983-1.841 4.24-2.933l.066.097a2.31 2.31 0 0 0 3.214.608c1.054-.721 1.326-2.165.606-3.222l-.679-.997c.588-.827 1.086-1.692 1.507-2.585l.163.255c.688 1.078 2.119 1.392 3.193.701s1.388-2.127.7-3.205z" fill="#548e00" opacity=".3"/><path d="M572.14 16.076h-9.252v25.505c0 2.558 2.069 4.632 4.622 4.632h.009a4.63 4.63 0 0 0 4.622-4.632V16.076z" class="a"/><g class="C"><path d="M590.601 14.658a2.31 2.31 0 0 0-3.194-.701c-1.075.691-1.388 2.127-.7 3.204l4.95 7.754a2.31 2.31 0 0 0 3.194.701c1.075-.691 1.388-2.127.7-3.205l-4.95-7.753z"/><path d="M573.396-12.479c-1.418-2.237-3.879-3.592-6.523-3.592s-5.105 1.355-6.523 3.592l-19.562 30.851c0 10.596 11.688 19.199 26.085 19.199s26.085-8.603 26.085-19.199l-19.562-30.851z"/></g></g><g clip-path="url(#I)" class="B N"><path d="M572.243-29.743a7.72 7.72 0 0 0-5.95-2.804c-2.301 0-4.482 1.027-5.951 2.802-7.697 9.317-20.133 25.685-20.133 34.207 0 10.596 11.688 19.199 26.085 19.199s26.085-8.603 26.085-19.199c0-8.522-12.437-24.89-20.135-34.205z"/></g><g class="B"><g class="C"><path d="M557.935 33.147c.137-1.272 1.278-2.194 2.547-2.057a2.32 2.32 0 0 1 2.052 2.553l-.425 3.958c-.137 1.272-1.278 2.194-2.547 2.057a2.32 2.32 0 0 1-2.052-2.553l.425-3.958zm-15.694-17.062a2.31 2.31 0 0 1 3.196-.7c1.075.691 1.387 2.126.698 3.203l-4.132 6.455a2.31 2.31 0 0 1-3.196.699c-1.075-.691-1.387-2.126-.698-3.203l4.131-6.455z"/></g><g class="N"><path d="M568.606 23.661c0-1.28-1.037-2.318-2.313-2.318a2.32 2.32 0 0 0-2.313 2.318v2.318c0 1.28 1.037 2.318 2.313 2.318a2.32 2.32 0 0 0 2.313-2.318v-2.318zm8 4.36c-.157-1.27-1.313-2.173-2.58-2.015a2.32 2.32 0 0 0-2.011 2.586l.285 2.301c.157 1.27 1.313 2.173 2.58 2.015a2.32 2.32 0 0 0 2.011-2.586l-.285-2.301zm-20.463 0c.157-1.27 1.313-2.173 2.58-2.015a2.32 2.32 0 0 1 2.011 2.586l-.285 2.301c-.157 1.27-1.313 2.173-2.58 2.015a2.32 2.32 0 0 1-2.011-2.586l.284-2.301zm26.515-9.207c-.384-1.22-1.684-1.899-2.901-1.514a2.32 2.32 0 0 0-1.511 2.908l.974 3.098c.384 1.22 1.684 1.899 2.901 1.514a2.32 2.32 0 0 0 1.511-2.908l-.974-3.098zm-31.229 1.052c.384-1.22 1.684-1.899 2.901-1.514a2.32 2.32 0 0 1 1.511 2.908l-.974 3.098c-.384 1.22-1.684 1.899-2.901 1.514a2.32 2.32 0 0 1-1.511-2.908l.974-3.098zm36.941-5.417a2.31 2.31 0 0 0-3.16-.848c-1.106.64-1.485 2.059-.847 3.167l2.092 3.633c.638 1.108 2.054 1.488 3.16.849s1.485-2.059.847-3.167l-2.093-3.633zm-42.63-.125a2.31 2.31 0 0 1 3.16-.848c1.106.64 1.485 2.059.847 3.167l-2.093 3.633c-.638 1.108-2.054 1.488-3.16.849s-1.485-2.059-.847-3.167l2.093-3.633z"/></g><path d="M572.786-20.772c-1.424-2.21-3.869-3.544-6.493-3.544s-5.069 1.335-6.493 3.544L544.384 3.155c0 8.758 9.817 15.869 21.91 15.869s21.909-7.111 21.909-15.869l-15.416-23.927z" class="E"/></g><g clip-path="url(#J)" class="B C"><path d="M572.237-40.211c-1.469-1.771-3.647-2.795-5.944-2.795s-4.476,1.024-5.944,2.795c-6.488,7.835-15.965,20.429-15.965,27.138,0,8.758,9.817,15.869,21.91,15.869s21.909-7.111,21.909-15.869c0-6.71-9.477-19.303-15.965-27.138Z"/><path d="M554.483.944c.638-1.108.259-2.527-.847-3.167s-2.521-.259-3.16.849l-2.313 4.015c-.638 1.108-.259 2.527.847 3.167s2.521.259 3.16-.849l2.313-4.015zm5.486 8.47a2.32 2.32 0 0 0-1.429-2.949c-1.206-.418-2.525.223-2.942 1.432l-.757 2.191a2.32 2.32 0 0 0 1.429 2.949c1.206.418 2.525-.223 2.942-1.432l.757-2.191zm9.858-1.981c0-1.28-1.037-2.318-2.313-2.318a2.32 2.32 0 0 0-2.313 2.318v2.318c0 1.28 1.036 2.318 2.313 2.318s2.313-1.039 2.313-2.318V7.433zm9.095.383c-.462-1.193-1.804-1.784-2.994-1.321s-1.78 1.808-1.318 3.001l.838 2.161c.462 1.192 1.804 1.784 2.994 1.321s1.78-1.808 1.318-3.001l-.838-2.161zm3.627-9.967a2.31 2.31 0 0 0-3.16-.848c-1.105.64-1.485 2.059-.847 3.167l2.003 3.477a2.31 2.31 0 0 0 3.16.848c1.106-.64 1.485-2.059.847-3.167l-2.003-3.477z"/></g><g class="B"><path d="M563.98-2.024c0-1.28,1.037-2.318,2.313-2.318s2.313,1.039,2.313,2.318v.183c0,1.28-1.037,2.318-2.313,2.318s-2.313-1.039-2.313-2.318v-.183Z" fill="#c2ed00"/><path d="M542.535 3.708a2.31 2.31 0 0 1 3.196-.699c1.075.691 1.387 2.126.698 3.203l-.099.154a2.31 2.31 0 0 1-3.196.7c-1.075-.691-1.387-2.126-.698-3.203l.099-.154z" class="b"/><g class="E"><path d="M590.507 3.708a2.31 2.31 0 0 0-3.196-.699c-1.075.691-1.387 2.126-.698 3.203l.099.154a2.31 2.31 0 0 0 3.196.7c1.075-.691 1.387-2.126.698-3.203l-.099-.154zm-40.438 10.176a2.31 2.31 0 0 1 3.196-.7c1.075.691 1.387 2.126.698 3.203l-.099.154a2.31 2.31 0 0 1-3.196.699c-1.075-.691-1.387-2.126-.698-3.203l.099-.154zm32.905 0a2.31 2.31 0 0 0-3.196-.7c-1.075.691-1.387 2.126-.698 3.203l.099.154a2.31 2.31 0 0 0 3.196.699c1.075-.691 1.387-2.126.698-3.203l-.099-.154z"/></g><path d="M588.844 25.565a2.31 2.31 0 0 0-3.215-.607c-1.054.721-1.326 2.165-.606 3.222l1.823 2.676a2.31 2.31 0 0 0 3.214.607c1.054-.721 1.326-2.165.606-3.222l-1.822-2.676z" class="C"/><g class="E"><path d="M555.216 16.97c.376-1.223 1.672-1.909 2.892-1.532a2.32 2.32 0 0 1 1.528 2.899l-.054.175c-.377 1.222-1.672 1.909-2.892 1.532a2.32 2.32 0 0 1-1.528-2.899l.054-.175zm22.61 0c-.376-1.223-1.672-1.909-2.892-1.532a2.32 2.32 0 0 0-1.528 2.899l.054.175c.376 1.222 1.672 1.909 2.892 1.532a2.32 2.32 0 0 0 1.528-2.899l-.054-.175z"/></g><g class="C"><path d="M582.453 33.353c-.376-1.223-1.672-1.909-2.892-1.532a2.32 2.32 0 0 0-1.528 2.899l.054.175c.376 1.222 1.672 1.909 2.892 1.532a2.32 2.32 0 0 0 1.528-2.899l-.054-.175zm-32.018-2.209c.376-1.223 1.672-1.909 2.892-1.532a2.32 2.32 0 0 1 1.528 2.899l-.92 2.99c-.376 1.223-1.672 1.909-2.892 1.532a2.32 2.32 0 0 1-1.529-2.899l.92-2.99z"/></g><g class="E"><path d="M561.243 19.193c.137-1.272 1.278-2.194 2.547-2.057a2.32 2.32 0 0 1 2.052 2.553l-.02.182c-.137 1.272-1.278 2.194-2.547 2.057a2.32 2.32 0 0 1-2.052-2.553l.02-.182zm10.557 0c-.137-1.272-1.278-2.194-2.547-2.057a2.32 2.32 0 0 0-2.052 2.553l.02.182c.137 1.272 1.278 2.194 2.547 2.057a2.32 2.32 0 0 0 2.052-2.553l-.02-.182z"/></g><path d="M576.426 35.575c-.137-1.272-1.278-2.194-2.547-2.057a2.32 2.32 0 0 0-2.052 2.553l.02.182c.137 1.272 1.278 2.194 2.547 2.057a2.32 2.32 0 0 0 2.052-2.553l-.02-.182z" class="C"/><g class="E"><path d="M545.312 9.598a2.31 2.31 0 0 1 3.196-.7c1.075.691 1.387 2.126.698 3.203l-.099.154a2.31 2.31 0 0 1-3.196.7c-1.074-.691-1.387-2.126-.698-3.203l.099-.154zm42.419 0a2.31 2.31 0 0 0-3.196-.7c-1.075.691-1.387 2.126-.698 3.203l.099.154a2.31 2.31 0 0 0 3.196.7c1.075-.691 1.387-2.126.698-3.203l-.099-.154z"/></g><path d="M545.639 25.525a2.31 2.31 0 0 1 3.196-.699c1.075.691 1.387 2.126.698 3.203l-2.758 4.308a2.31 2.31 0 0 1-3.196.699c-1.075-.691-1.387-2.126-.698-3.203l2.758-4.309z" class="C"/><path d="M595.551 22.411l-4.684-7.337-2.708-4.271c-.031-.363-.119-.723-.328-1.05l-.099-.154c-.206-.322-.49-.551-.799-.73l-.121-.192c.266-.517.494-1.046.685-1.587.728.428 1.655.465 2.413-.023 1.074-.691 1.387-2.126.698-3.203l-.099-.154c-.561-.876-1.607-1.213-2.559-.948l-6.068-9.418c0-.289-.048-.582-.163-.866l-.069-.17c-.027-.067-.083-.111-.115-.175a10.5 10.5 0 0 0 1.195-1.858c.58.128 1.207.035 1.746-.312 1.074-.691 1.387-2.126.698-3.203l-.099-.154c-.425-.665-1.136-.996-1.869-1.022l-12.76-19.203a4.29 4.29 0 0 0-7.144 0l-12.769 19.217c-.865-.119-1.762.247-2.264 1.031l-.099.154c-.689 1.077-.377 2.512.698 3.203.651.418 1.418.429 2.087.164.246.506.524 1.001.861 1.473L544.692 2.68c-.83-.074-1.674.277-2.155 1.029l-.099.154c-.689 1.077-.377 2.512.698 3.203.628.404 1.365.429 2.017.194a12.88 12.88 0 0 0 .771 1.706c-.235.167-.446.375-.611.632l-.099.154c-.393.614-.428 1.333-.214 1.976l-3.191 5.032-3.699 5.779c-.689 1.077-.377 2.512.698 3.203a2.31 2.31 0 0 0 3.196-.699l.246-.385c.519 1.099 1.159 2.154 1.927 3.151l-1.295 2.024c-.689 1.077-.377 2.512.698 3.203a2.31 2.31 0 0 0 3.196-.699l.731-1.142c.746.61 1.537 1.188 2.382 1.724l-.374 1.214a2.32 2.32 0 0 0 1.529 2.898c1.22.377 2.516-.309 2.892-1.532l.129-.418c1.127.469 2.309.87 3.533 1.214l-.087.809a2.32 2.32 0 0 0 2.052 2.553c1.269.137 2.411-.785 2.547-2.057l.039-.362a35.27 35.27 0 0 0 4.724.331c1.809 0 3.575-.137 5.281-.395a2.31 2.31 0 0 0 2.24 1.135c1.114-.12 1.958-1.017 2.055-2.095a31.46 31.46 0 0 0 1.981-.654c.565.783 1.577 1.165 2.549.865 1.165-.361 1.831-1.562 1.561-2.735 1.555-.863 2.983-1.841 4.24-2.933l.066.097a2.31 2.31 0 0 0 3.214.608c1.054-.721 1.326-2.165.606-3.222l-.679-.997c.588-.827 1.086-1.692 1.507-2.585l.163.255c.688 1.078 2.119 1.392 3.193.701s1.388-2.127.7-3.205z" fill="#548e00" opacity=".3"/><path d="M599.512 17.456H589.07V46.24c0 2.887 2.335 5.228 5.216 5.228h.01c2.881 0 5.216-2.341 5.216-5.228V17.456z" class="a"/><g class="C"><path d="M620.346 15.856c-.776-1.216-2.391-1.571-3.604-.791s-1.567 2.4-.79 3.616l5.586 8.75c.776 1.216 2.391 1.571 3.604.791s1.567-2.4.79-3.617l-5.586-8.75z"/><path d="M600.929-14.769a8.72 8.72 0 0 0-14.724 0l-22.076 34.817c0 11.958 13.191 21.666 29.438 21.666s29.438-9.708 29.438-21.666l-22.076-34.817z"/></g></g><g clip-path="url(#K)" class="B N"><path d="M599.628-34.252c-1.657-2.004-4.119-3.164-6.715-3.164s-5.059 1.159-6.716 3.162c-8.686 10.515-22.721 28.987-22.721 38.604 0 11.958 13.191 21.666 29.438 21.666s29.438-9.708 29.438-21.666c0-9.617-14.035-28.089-22.723-38.602z"/></g><g class="B"><g class="C"><path d="M583.481 36.722c.154-1.436 1.442-2.476 2.875-2.321s2.47 1.445 2.316 2.881l-.48 4.467c-.154 1.435-1.442 2.476-2.875 2.321s-2.47-1.445-2.316-2.881l.479-4.467zm-17.71-19.256a2.61 2.61 0 0 1 3.607-.789c1.213.78 1.565 2.399.788 3.615l-4.663 7.284a2.61 2.61 0 0 1-3.606.789 2.62 2.62 0 0 1-.788-3.615l4.663-7.284z"/></g><g class="N"><path d="M595.524 26.016c0-1.444-1.17-2.616-2.61-2.616s-2.611 1.172-2.611 2.616v2.616c0 1.444 1.17 2.616 2.611 2.616s2.61-1.172 2.61-2.616v-2.616zm9.028 4.921c-.177-1.433-1.482-2.452-2.911-2.275s-2.446 1.485-2.269 2.918l.321 2.596c.177 1.433 1.482 2.452 2.911 2.275s2.447-1.485 2.269-2.918l-.321-2.596zm-23.093 0c.177-1.433 1.482-2.452 2.912-2.275s2.446 1.485 2.269 2.918l-.321 2.596c-.177 1.433-1.482 2.452-2.911 2.275s-2.447-1.485-2.269-2.918l.321-2.596zm29.923-10.391a2.61 2.61 0 0 0-3.274-1.709 2.62 2.62 0 0 0-1.705 3.282l1.099 3.496a2.61 2.61 0 0 0 3.274 1.709 2.62 2.62 0 0 0 1.705-3.282l-1.099-3.496z"/><path d="M576.14 21.733a2.61 2.61 0 0 1 3.274-1.709 2.62 2.62 0 0 1 1.705 3.282l-1.099 3.496a2.61 2.61 0 0 1-3.274 1.709 2.62 2.62 0 0 1-1.705-3.282l1.099-3.496zm41.688-6.113a2.61 2.61 0 0 0-3.566-.958 2.62 2.62 0 0 0-.955 3.574l2.361 4.1a2.61 2.61 0 0 0 3.566.958 2.62 2.62 0 0 0 .955-3.574l-2.362-4.1zm-48.109-.141a2.61 2.61 0 0 1 3.566-.958 2.62 2.62 0 0 1 .956 3.574l-2.362 4.1a2.61 2.61 0 0 1-3.566.958 2.62 2.62 0 0 1-.955-3.574l2.362-4.1z"/></g><path d="M600.241-24.128c-1.607-2.494-4.366-4-7.327-4a8.72 8.72 0 0 0-7.328 4L568.188 2.875c0 9.884 11.079 17.909 24.726 17.909s24.725-8.025 24.725-17.909l-17.398-27.003z" class="E"/></g><g clip-path="url(#L)" class="B C"><path d="M599.622-46.066c-1.657-1.998-4.116-3.154-6.708-3.154s-5.051 1.156-6.708 3.154c-7.322 8.842-18.017 23.054-18.017 30.626 0 9.884 11.079 17.909 24.726 17.909S617.64-5.556 617.64-15.44c0-7.572-10.695-21.784-18.017-30.626z"/><path d="M579.585.379a2.62 2.62 0 0 0-.956-3.574 2.61 2.61 0 0 0-3.566.958l-2.61 4.531c-.72 1.251-.292 2.852.955 3.574a2.61 2.61 0 0 0 3.566-.958l2.611-4.531zm6.192 9.559a2.62 2.62 0 0 0-1.613-3.328 2.61 2.61 0 0 0-3.321 1.616l-.854 2.472a2.62 2.62 0 0 0 1.613 3.328c1.361.472 2.849-.252 3.321-1.616l.854-2.472zm11.125-2.236c0-1.444-1.17-2.616-2.61-2.616s-2.61 1.172-2.61 2.616v2.616c0 1.444 1.17 2.616 2.61 2.616s2.61-1.172 2.61-2.616V7.702zm10.264.432a2.61 2.61 0 0 0-3.379-1.491 2.62 2.62 0 0 0-1.487 3.386l.946 2.439a2.61 2.61 0 0 0 3.379 1.491 2.62 2.62 0 0 0 1.487-3.387l-.946-2.438zm4.093-11.248a2.61 2.61 0 0 0-3.566-.958 2.62 2.62 0 0 0-.955 3.574l2.261 3.924a2.61 2.61 0 0 0 3.566.958A2.62 2.62 0 0 0 613.52.81l-2.261-3.924z"/></g><g class="B"><path d="M566.103 3.499a2.61 2.61 0 0 1 3.607-.789 2.62 2.62 0 0 1 .788 3.615l-.111.174a2.61 2.61 0 0 1-3.607.789 2.62 2.62 0 0 1-.788-3.615l.111-.174z" class="b"/><g class="E"><path d="M620.24 3.499a2.61 2.61 0 0 0-3.607-.789 2.62 2.62 0 0 0-.787 3.615l.111.174a2.61 2.61 0 0 0 3.607.789 2.62 2.62 0 0 0 .787-3.615l-.111-.174zm-45.636 11.484a2.61 2.61 0 0 1 3.607-.789 2.62 2.62 0 0 1 .787 3.615l-.111.174a2.61 2.61 0 0 1-3.607.789 2.62 2.62 0 0 1-.787-3.615l.111-.174zm37.135 0a2.61 2.61 0 0 0-3.607-.789 2.62 2.62 0 0 0-.788 3.615l.111.174a2.61 2.61 0 0 0 3.607.789 2.62 2.62 0 0 0 .788-3.615l-.111-.174z"/></g><path d="M618.363 28.165a2.61 2.61 0 0 0-3.628-.686c-1.19.814-1.496 2.443-.684 3.636l2.057 3.02a2.61 2.61 0 0 0 3.628.686c1.19-.814 1.496-2.443.684-3.636l-2.057-3.02z" class="C"/><g class="E"><path d="M580.413 18.465a2.61 2.61 0 0 1 3.264-1.729 2.62 2.62 0 0 1 1.725 3.271l-.061.198a2.61 2.61 0 0 1-3.264 1.729 2.62 2.62 0 0 1-1.725-3.271l.061-.198z"/><use href="#AK"/></g><g class="C"><path d="M611.15 36.953a2.61 2.61 0 0 0-3.264-1.729 2.62 2.62 0 0 0-1.725 3.271l.061.198a2.61 2.61 0 0 0 3.264 1.729 2.62 2.62 0 0 0 1.725-3.271l-.061-.198zm-36.133-2.492a2.61 2.61 0 0 1 3.264-1.729 2.62 2.62 0 0 1 1.725 3.271l-1.038 3.374a2.61 2.61 0 0 1-3.264 1.729 2.62 2.62 0 0 1-1.725-3.271l1.039-3.374z"/></g><g class="E"><path d="M587.215 20.974c.154-1.436 1.442-2.476 2.875-2.321s2.47 1.445 2.316 2.881l-.022.206c-.154 1.436-1.442 2.476-2.875 2.321s-2.47-1.445-2.316-2.881l.022-.206z"/><use href="#AL"/></g><path d="M604.349 39.462c-.154-1.436-1.442-2.476-2.875-2.321s-2.47 1.445-2.316 2.881l.022.206c.154 1.436 1.442 2.476 2.875 2.321s2.47-1.445 2.316-2.881l-.022-.206z" class="C"/><g class="E"><path d="M569.236 10.146a2.61 2.61 0 0 1 3.607-.789 2.62 2.62 0 0 1 .787 3.615l-.111.174a2.61 2.61 0 0 1-3.607.789c-1.212-.78-1.565-2.399-.787-3.615l.111-.174zm47.871 0a2.61 2.61 0 0 0-3.606-.789 2.62 2.62 0 0 0-.788 3.615l.111.174a2.61 2.61 0 0 0 3.607.789 2.62 2.62 0 0 0 .788-3.615l-.112-.174z"/></g><path d="M569.605 28.12a2.61 2.61 0 0 1 3.607-.789 2.62 2.62 0 0 1 .787 3.615l-3.112 4.862a2.61 2.61 0 0 1-3.607.789 2.62 2.62 0 0 1-.787-3.615l3.112-4.862z" class="C"/></g></g></svg>