<svg xmlns="http://www.w3.org/2000/svg" width="1500" height="145" xmlns:v="https://vecta.io/nano"><style><![CDATA[.B{fill-rule:evenodd}.C{fill:none}.D{fill:#fff}.E{opacity:.188}.F{stroke-linejoin:round}.G{fill:#d2f5ff}.H{clip-rule:evenodd}.I{stroke-linecap:round}.J{stroke-width:2.734}]]></style><defs><clipPath id="A"><path d="M0 0h1500v145H0z" class="C"/></clipPath><clipPath id="B"><path d="M521.588 59.312h78.93l13.914 1.46a7.85 7.85 0 0 1 6.224 4.341c1.19 2.419 1.057 5.281-.355 7.579l-15.187 24.699c-1.219 1.986-3.383 3.195-5.713 3.195h-71.104a6.71 6.71 0 0 1-6.708-6.708V59.313z" class="C H"/></clipPath><clipPath id="C"><path d="M521.588 54.113c0-2.027.805-3.97 2.239-5.403s3.376-2.239 5.403-2.239h65.015a18.17 18.17 0 0 1 11.212 3.873l12.984 10.184c2.02 1.585 3.201 4.011 3.201 6.58s-1.181 4.996-3.201 6.58l-12.984 10.185c-3.2 2.508-7.147 3.872-11.212 3.872H529.23c-2.027 0-3.97-.805-5.403-2.239s-2.239-3.376-2.239-5.403v-25.99z" class="C H"/></clipPath><clipPath id="D"><rect x="525.974" y="30.881" width="65.775" height="31.183" rx="3.664" class="C"/></clipPath><path id="E" d="M660.871 65.554a4.72 4.72 0 0 1 3.341-1.387h9.541c.743 0 1.455.296 1.98.822l1.233 1.236-1.233 1.236a2.8 2.8 0 0 1-1.98.822h-9.623a4.72 4.72 0 0 1-3.341-1.387l-.629-.63.711-.712z"/><path id="F" d="M673.458 73.925h9.541c.743 0 1.455.296 1.98.822l1.233 1.236-1.233 1.236a2.8 2.8 0 0 1-1.98.822h-9.623a4.72 4.72 0 0 1-3.341-1.387l-.629-.63.711-.712a4.72 4.72 0 0 1 3.341-1.387z"/><path id="G" d="M281.467 85.734c.974-2.069.204-4.54-1.771-5.685s-4.493-.576-5.793 1.304l-16.301 23.605-28.531 2.358a4.39 4.39 0 0 0-4.022 4.381 4.39 4.39 0 0 0 4.022 4.379l28.531 2.358 16.301 23.605c1.3 1.88 3.818 2.447 5.793 1.304s2.745-3.616 1.771-5.683l-12.23-25.962 12.23-25.962z"/><path id="H" d="M667.171 53.809h-66.653"/><path id="I" d="M575.085 61.147h4.385v12.84h-4.385z"/><path id="J" d="M575.085 61.147h4.385v5.503h-4.385z"/></defs><g clip-path="url(#A)"><path d="M-20.02-4964.135h1540.04V310.02H-20.02z" fill="#00b365"/><path d="M869.153-264.656h0a472.11 472.11 0 0 1-331.059 135.529H-20.02V310.02h1540.04v-710.206h-319.809a472.11 472.11 0 0 0-331.059 135.529z" fill="#ffed8b"/><path d="M-20.02 310.02V-17.912h588.094c68.168 0 134.72-13.095 197.807-38.922s119.715-63.159 168.313-110.961c39.291-38.646 85.074-68.829 136.077-89.709s104.809-31.467 159.921-31.467h289.828v598.99H-20.02z" fill="#1ef7f1"/><path d="M-20.02 310.02V12.088h588.094c72.086 0 142.462-13.848 209.172-41.158S903.84-95.858 955.231-146.407c36.499-35.899 79.028-63.938 126.406-83.333s97.359-29.23 148.555-29.23h289.828v568.99H-20.02z" fill="#00e2e2"/><path d="M1122.821 181.466h0c-54.184 54.184-127.673 84.624-204.301 84.624H626.504a134.54 134.54 0 0 1-79.662-26.12h0c-23.094-16.969-51.003-26.12-79.661-26.12H-14.046v95.032h1528.091V96.842h-186.923c-76.628 0-150.117 30.44-204.301 84.624z" fill="#04d5d8" class="B"/><g opacity=".073" class="B"><use href="#E"/><path d="M680.328,68.921l-3.361-2.695,3.361-2.695c-1.028,1.649-1.028,3.741,0,5.39Z"/><use href="#F"/><path d="M689.574 78.678l-3.361-2.695 3.361-2.695c-1.028 1.649-1.028 3.741 0 5.39zM678.52 53.102a4.72 4.72 0 0 1 3.341-1.387h9.541c.743 0 1.455.296 1.98.822l1.233 1.236-1.233 1.236a2.8 2.8 0 0 1-1.98.822h-9.623a4.72 4.72 0 0 1-3.341-1.387l-.629-.63.711-.712z"/><path d="M697.977 56.468l-3.361-2.695 3.361-2.695c-1.028 1.649-1.028 3.741 0 5.39zm-6.87 5.004h9.541c.743 0 1.455.296 1.98.822l1.233 1.236-1.233 1.236a2.8 2.8 0 0 1-1.98.822h-9.623a4.72 4.72 0 0 1-3.341-1.387l-.629-.63.711-.712a4.72 4.72 0 0 1 3.341-1.387z"/><path d="M707.223 66.226l-3.361-2.695 3.361-2.695c-1.028 1.649-1.028 3.741 0 5.39zm-8.535 8.375a4.72 4.72 0 0 1 3.341-1.387h9.541c.743 0 1.455.296 1.98.822l1.233 1.236-1.233 1.236a2.8 2.8 0 0 1-1.98.822h-9.623a4.72 4.72 0 0 1-3.341-1.387l-.629-.63.711-.712z"/><path d="M718.145 77.967l-3.361-2.695 3.361-2.695c-1.028 1.649-1.028 3.741 0 5.39zm-6.87 5.004h9.541c.743 0 1.455.296 1.98.822l1.233 1.236-1.233 1.236a2.8 2.8 0 0 1-1.98.822h-9.623a4.72 4.72 0 0 1-3.341-1.387l-.629-.63.711-.712a4.72 4.72 0 0 1 3.341-1.387z"/><path d="M727.391 87.725l-3.361-2.695 3.361-2.695c-1.028 1.649-1.028 3.741 0 5.39zm-11.054-25.576a4.72 4.72 0 0 1 3.341-1.387h9.541c.743 0 1.455.296 1.98.822l1.233 1.236-1.233 1.236a2.8 2.8 0 0 1-1.98.822h-9.623a4.72 4.72 0 0 1-3.341-1.387l-.629-.63.711-.712z"/><path d="M735.794 65.515l-3.361-2.695 3.361-2.695c-1.028 1.649-1.028 3.741 0 5.39zm-6.87 5.004h9.541c.743 0 1.455.296 1.98.822l1.233 1.236-1.233 1.236a2.8 2.8 0 0 1-1.98.822h-9.623a4.72 4.72 0 0 1-3.341-1.387l-.629-.63.711-.712a4.72 4.72 0 0 1 3.341-1.387z"/><path d="M745.04,75.272l-3.361-2.695,3.361-2.695c-1.028,1.649-1.028,3.741,0,5.39Z"/></g><g opacity=".073" class="B"><path d="M200.461 49.926a4.72 4.72 0 0 1 3.341-1.387h9.541c.743 0 1.455.296 1.98.822l1.233 1.236-1.233 1.236a2.8 2.8 0 0 1-1.98.822h-9.623a4.72 4.72 0 0 1-3.341-1.387l-.629-.63.711-.712z"/><path d="M219.918 53.293l-3.361-2.695 3.361-2.695c-1.028 1.649-1.028 3.741 0 5.39zm-6.87 5.003h9.541c.743 0 1.455.296 1.98.822l1.233 1.236-1.233 1.236a2.8 2.8 0 0 1-1.98.822h-9.623a4.72 4.72 0 0 1-3.341-1.387l-.629-.63.711-.712a4.72 4.72 0 0 1 3.341-1.387z"/><path d="M229.164 63.05l-3.361-2.695 3.361-2.695c-1.028 1.649-1.028 3.741 0 5.39zM218.11 37.474a4.72 4.72 0 0 1 3.341-1.387h9.541c.743 0 1.455.296 1.98.822l1.233 1.236-1.233 1.236a2.8 2.8 0 0 1-1.98.822h-9.623a4.72 4.72 0 0 1-3.341-1.387l-.629-.63.711-.712z"/><path d="M237.567 40.84l-3.361-2.695 3.361-2.695c-1.028 1.649-1.028 3.741 0 5.39zm-6.87 5.004h9.541c.743 0 1.455.296 1.98.822l1.233 1.236-1.233 1.236a2.8 2.8 0 0 1-1.98.822h-9.623a4.72 4.72 0 0 1-3.341-1.387l-.629-.63.711-.712a4.72 4.72 0 0 1 3.341-1.387z"/><path d="M246.813 50.597l-3.361-2.695 3.361-2.695c-1.028 1.649-1.028 3.741 0 5.39zm-8.535 8.376a4.72 4.72 0 0 1 3.341-1.387h9.541c.743 0 1.455.296 1.98.822l1.233 1.236-1.233 1.236a2.8 2.8 0 0 1-1.98.822h-9.623a4.72 4.72 0 0 1-3.341-1.387l-.629-.63.711-.712z"/><path d="M257.735 62.339l-3.361-2.695 3.361-2.695c-1.028 1.649-1.028 3.741 0 5.39zm-6.87 5.004h9.541c.743 0 1.455.296 1.98.822l1.233 1.236-1.233 1.236a2.8 2.8 0 0 1-1.98.822h-9.623a4.72 4.72 0 0 1-3.341-1.387l-.629-.63.711-.712a4.72 4.72 0 0 1 3.341-1.387z"/><path d="M266.981 72.096l-3.361-2.695 3.361-2.695c-1.028 1.649-1.028 3.741 0 5.39zM255.927 46.52a4.72 4.72 0 0 1 3.341-1.387h9.541c.743 0 1.455.296 1.98.822l1.233 1.236-1.233 1.236a2.8 2.8 0 0 1-1.98.822h-9.623a4.72 4.72 0 0 1-3.341-1.387l-.629-.63.711-.712z"/><path d="M275.385 49.887l-3.361-2.695 3.361-2.695c-1.028 1.649-1.028 3.741 0 5.39zm-6.871 5.004h9.541c.743 0 1.455.296 1.98.822l1.233 1.236-1.233 1.236a2.8 2.8 0 0 1-1.98.822h-9.623a4.72 4.72 0 0 1-3.341-1.387l-.629-.63.711-.712a4.72 4.72 0 0 1 3.341-1.387z"/><path d="M284.63,59.644l-3.361-2.695,3.361-2.695c-1.028,1.649-1.028,3.741,0,5.39Z"/></g><path d="M195.57 121.222c-1.161-1.969-3.637-2.725-5.695-1.737s-3.006 3.389-2.185 5.522l10.327 26.763-14.118 24.905a4.39 4.39 0 0 0 7.238 4.932l18.014-22.25 28.686-.179c2.285-.016 4.172-1.777 4.34-4.053s-1.443-4.304-3.699-4.664l-28.341-4.513-14.568-24.726z" class="B D"/><path d="M258.703 113.009h6.98v87.508h-6.98z" fill="#72709c"/><use href="#G" class="B D"/><path d="M149.753 98.156h6.98v87.508h-6.98z" fill="#72709c"/><path d="M172.517 70.881c.974-2.069.204-4.54-1.771-5.685s-4.493-.576-5.793 1.304l-16.301 23.605-28.531 2.358a4.39 4.39 0 0 0-4.022 4.381 4.39 4.39 0 0 0 4.022 4.379l28.531 2.358 16.301 23.605c1.3 1.88 3.818 2.447 5.793 1.304s2.745-3.616 1.771-5.683l-12.23-25.962 12.23-25.962z" class="B D"/><rect x="514.916" y="55.644" width="101.368" height="53.08" rx="13.761" style="mix-blend-mode:multiply" fill="#00c5c1" opacity=".4"/><path d="M560.67 93.195h-22.563" opacity=".412" stroke="#fff" stroke-width="6.769" class="C F I"/><path d="M521.588 59.312h78.93l13.914 1.46a7.85 7.85 0 0 1 6.224 4.341c1.19 2.419 1.057 5.281-.355 7.579l-15.187 24.699c-1.219 1.986-3.383 3.195-5.713 3.195h-71.104a6.71 6.71 0 0 1-6.708-6.708V59.313z" class="B D"/><g clip-path="url(#B)" class="B"><path d="M521.588 51.975h78.93l16.047 6.473c3.223 1.3 5.571 4.143 6.238 7.553a10.27 10.27 0 0 1-2.933 9.347l-12.823 12.424c-3.625 3.511-8.474 5.475-13.521 5.475h-65.23a6.71 6.71 0 0 1-6.708-6.708V51.975z" fill="#de3900"/></g><path d="M521.588 54.113c0-2.027.805-3.97 2.239-5.403s3.376-2.239 5.403-2.239h65.015a18.17 18.17 0 0 1 11.212 3.873l12.984 10.184c2.02 1.585 3.201 4.011 3.201 6.58s-1.181 4.996-3.201 6.58l-12.984 10.185c-3.2 2.508-7.147 3.872-11.212 3.872H529.23c-2.027 0-3.97-.805-5.403-2.239s-2.239-3.376-2.239-5.403v-25.99z" fill="#d4f6ff" class="B"/><g clip-path="url(#C)"><path d="M600.519 34.549h24.556V92.33h-24.556z" fill="#f54a00"/><g stroke="#4a4693" class="C F J"><use href="#H" style="mix-blend-mode:multiply" class="E"/><path style="mix-blend-mode:multiply" d="M667.171 60.229h-66.653m66.653 6.421h-66.653m66.653 6.42h-66.653m66.653 6.419h-66.653" class="E"/></g></g><path d="M529.393 55.644h58.935c1.888 0 3.421 1.533 3.421 3.421v20.674c0 1.888-1.533 3.421-3.421 3.421h-58.933c-1.888 0-3.421-1.533-3.421-3.421V59.064c0-1.887 1.532-3.42 3.42-3.42z" fill="#85e0f0"/><path d="M525.974 54.727h65.775v14.675h-65.775z" fill="#76d0e0"/><path d="M532.112 57.478h53.497v19.26h-53.497z" fill="#00b5bd"/><path d="M532.112 76.739h53.497v6.42h-53.497z" fill="#00ced6"/><use href="#I" class="D"/><use href="#J" class="G"/><path d="M556.668 61.147h4.385v12.84h-4.385z" class="D"/><path d="M556.668 61.147h4.385v5.503h-4.385z" class="G"/><path d="M538.251 61.147h4.385v12.84h-4.385z" class="D"/><path d="M538.251 61.147h4.385v5.503h-4.385z" class="G"/><rect x="525.974" y="30.881" width="65.775" height="31.183" rx="3.664" fill="#de3900"/><g clip-path="url(#D)"><path d="M518.957 56.56h74.545v23.846h-74.545z" fill="#bf2c00"/><rect x="525.974" y="30.881" width="64.02" height="29.348" rx="3.448" fill="#f54a00"/><g stroke="#4a4693" class="C F I"><g class="J"><path style="mix-blend-mode:multiply" d="M590.872 44.637h-66.653m66.653-8.254h-66.653m66.653 17.426h-66.653" class="E"/></g><g stroke-width="5.467"><path style="mix-blend-mode:multiply" d="M547.022 17.123v69.705m22.802-69.705v69.705" class="E"/></g></g><path style="mix-blend-mode:multiply" d="M525.688 30.881l66.061 31.435h-66.061V30.881z" fill="#564fa5" opacity=".148" class="B"/></g></g></svg>