<?xml version="1.0" encoding="UTF-8"?>
<svg id="Layer_1" data-name="Layer 1" xmlns="http://www.w3.org/2000/svg" width="164" height="164" viewBox="0 0 164 164">
  <defs>
    <style>
      .cls-1 {
        fill: #fd9a0d;
      }

      .cls-1, .cls-2, .cls-3, .cls-4, .cls-5, .cls-6 {
        fill-rule: evenodd;
      }

      .cls-7 {
        fill: none;
        stroke: #fddc48;
        stroke-miterlimit: 10;
        stroke-width: 8.029px;
      }

      .cls-2 {
        fill: #eb7e08;
      }

      .cls-3 {
        fill: #fddc48;
      }

      .cls-8, .cls-6 {
        fill: #071c1c;
      }

      .cls-9 {
        fill: #fff;
      }

      .cls-10, .cls-4 {
        fill: #f4c700;
      }

      .cls-5 {
        fill: #f8f365;
      }

      .cls-11 {
        fill: #44a1fa;
      }
    </style>
  </defs>
  <rect class="cls-11" x="-3.765" y="-3.765" width="171.529" height="171.529"/>
  <g>
    <path class="cls-5" d="M45.28,135.128c-8.647,0-16.875-3.723-22.582-10.219-5.707-6.497-8.339-15.137-7.225-23.711,1.598-12.295,3.381-26.015,4.894-37.665,2.075-15.972,14.88-28.41,30.906-30.019,2.893-.291,5.518-.555,7.562-.76,2.761-.278,5.285-1.68,6.977-3.88.548-.712,1.147-1.491,1.762-2.289,3.846-4.998,9.794-7.926,16.1-7.926h.001c6.306,0,12.254,2.928,16.1,7.926.617.801,1.218,1.583,1.768,2.297,1.688,2.194,4.206,3.596,6.96,3.876,1.835.187,4.14.422,6.683.68,16.096,1.638,28.754,14.488,30.15,30.606,1.035,11.946,2.252,25.993,3.329,38.433.727,8.392-2.1,16.703-7.793,22.91-5.693,6.207-13.729,9.741-22.152,9.741H45.28Z"/>
    <g>
      <path class="cls-1" d="M106.13,45.085h-48.285c-12.128,0-22.288,9.181-23.513,21.247l-3.231,31.823c-1.414,13.925,9.517,26.021,23.513,26.021h54.746c13.997,0,24.927-12.096,23.513-26.021l-3.231-31.823c-1.225-12.066-11.385-21.247-23.513-21.247Z"/>
      <path class="cls-2" d="M91.978,106.129c-.016,5.543-4.526,10.023-10.066,10.006-5.544-.016-10.023-4.523-10.006-10.066l20.072.059Z"/>
      <g>
        <g>
          <rect class="cls-9" x="32.343" y="72.06" width="40.396" height="31.419" rx="7.633" ry="7.633" transform="translate(-35.383 140.052) rotate(-89.831)"/>
          <rect class="cls-8" x="36.642" y="74.167" width="31.824" height="18.926" rx="3.787" ry="3.787" transform="translate(-31.231 135.937) rotate(-89.831)"/>
        </g>
        <g>
          <rect class="cls-9" x="90.693" y="72.232" width="40.396" height="31.419" rx="7.633" ry="7.633" transform="translate(22.623 198.573) rotate(-89.831)"/>
          <rect class="cls-8" x="94.991" y="74.339" width="31.824" height="18.926" rx="3.787" ry="3.787" transform="translate(26.775 194.458) rotate(-89.831)"/>
        </g>
      </g>
      <g>
        <path class="cls-6" d="M110.098,45.202h-56.709c-11.993,0-22.302,8.503-24.582,20.277l-.943,22.373,39.829-29.589,13.292.039.783-.777.783.781,13.292.039,39.797,29.824-.953-22.653c-2.265-11.792-12.583-20.315-24.59-20.315Z"/>
        <path class="cls-6" d="M52.895,86.338c15.972.047,28.922-12.862,28.931-28.832l-28.917-.085-.013,28.918Z"/>
        <path class="cls-6" d="M110.58,86.507c-15.967-.047-28.845-13.032-28.755-29.002l28.917.085-.163,28.917Z"/>
      </g>
    </g>
    <g>
      <g>
        <path class="cls-4" d="M39.077,184.792s13.235-33.643,18.344-46.628c.913-2.324,3.402-3.619,5.83-3.036,3.142.754,6.886,1.652,6.886,1.652l-10.474,53.573-20.585-5.561Z"/>
        <path class="cls-4" d="M124.161,184.792s-13.235-33.643-18.344-46.628c-.913-2.324-3.402-3.619-5.83-3.036-3.142.754-6.886,1.652-6.886,1.652l10.474,53.573,20.585-5.561Z"/>
      </g>
      <g>
        <path class="cls-5" d="M100.043,135.128h-36.481l-5.386,60.561c-.209,2.348,1.641,4.37,3.999,4.37h38.887c2.348,0,4.195-2.006,4.001-4.346l-5.02-60.585Z"/>
        <line class="cls-7" x1="81.546" y1="135.007" x2="81.546" y2="203.281"/>
        <polygon class="cls-3" points="100.043 135.128 63.562 135.128 62.859 142.898 100.687 142.898 100.043 135.128"/>
      </g>
    </g>
    <path class="cls-10" d="M108.554,130.507h-53.105c-8.719,0-17.053-3.732-22.871-10.24-5.81-6.516-8.57-15.223-7.582-23.883l3.489-30.633c1.592-13.858,13.306-24.306,27.246-24.306h52.54c13.949,0,25.655,10.448,27.238,24.306l3.497,30.633c.988,8.66-1.772,17.367-7.582,23.879-5.818,6.512-14.152,10.244-22.871,10.244ZM55.731,49.473c-9.856,0-18.143,7.39-19.265,17.191l-3.489,30.63c-.737,6.394,1.302,12.819,5.59,17.63,4.289,4.798,10.444,7.554,16.881,7.554h53.105c6.437,0,12.592-2.756,16.881-7.558,4.289-4.806,6.327-11.232,5.59-17.626l-3.497-30.63c-1.113-9.801-9.393-17.191-19.257-17.191h-52.54Z"/>
    <polygon class="cls-2" points="73.74 130.507 90.249 130.507 90.286 122.502 73.777 122.454 73.74 130.507"/>
  </g>
</svg>