<?xml version="1.0" encoding="UTF-8"?>
<svg id="Layer_1" data-name="Layer 1" xmlns="http://www.w3.org/2000/svg" width="164" height="164" xmlns:xlink="http://www.w3.org/1999/xlink" viewBox="0 0 164 164">
  <defs>
    <style>
      .cls-1 {
        fill: #53b699;
      }

      .cls-2, .cls-3 {
        fill: #a35ba4;
      }

      .cls-4 {
        fill: #ff6a29;
      }

      .cls-5, .cls-6 {
        fill: #784379;
      }

      .cls-5, .cls-7, .cls-3, .cls-8 {
        fill-rule: evenodd;
      }

      .cls-9, .cls-8 {
        fill: #071c1c;
      }

      .cls-10 {
        fill: #fff;
      }

      .cls-11 {
        clip-rule: evenodd;
        fill: none;
      }

      .cls-12 {
        fill: #303248;
      }

      .cls-7 {
        fill: #ffae2a;
      }

      .cls-13 {
        fill: #ff9218;
      }

      .cls-14 {
        fill: #ff9c0d;
      }

      .cls-15 {
        fill: #f5cc28;
      }

      .cls-16 {
        clip-path: url(#clippath);
      }
    </style>
    <clipPath id="clippath">
      <path class="cls-11" d="M150.028,152.025c7.249,12.557,2.941,28.636-9.615,35.886-12.557,7.249-28.636,2.941-35.886-9.615-7.249-12.556-2.941-28.636,9.616-35.886,12.556-7.249,28.636-2.941,35.885,9.615Z"/>
    </clipPath>
  </defs>
  <rect class="cls-1" x="-3.765" y="-3.765" width="171.529" height="171.529"/>
  <g>
    <path class="cls-9" d="M156.974,129.038c0-14.425-8.785-26.794-21.295-32.055v-4.676c10.083-4.977,17.036-15.333,17.036-27.34s-6.953-22.363-17.036-27.34v-6.976c0-13.148-10.673-23.823-23.819-23.823h-63.125c-13.146,0-23.819,10.675-23.819,23.823v6.976c-10.083,4.977-17.036,15.333-17.036,27.34s6.953,22.363,17.036,27.34v4.676c-12.51,5.261-21.295,17.631-21.295,32.055s8.785,26.794,21.295,32.056v6.303c-6.448,11.249-4.9,25.833,4.708,35.442,11.304,11.306,29.495,11.471,41.032.548h19.284c11.537,10.923,29.728,10.758,41.032-.548,9.608-9.609,11.156-24.193,4.708-35.442v-6.303c12.51-5.261,21.295-17.631,21.295-32.056Z"/>
    <g>
      <path class="cls-7" d="M150.028,152.025c7.249,12.557,2.941,28.636-9.615,35.886-12.557,7.249-28.636,2.941-35.886-9.615-7.249-12.556-2.941-28.636,9.616-35.886,12.556-7.249,28.636-2.941,35.885,9.615Z"/>
      <g class="cls-16">
        <g>
          <path class="cls-13" d="M128.088,164.663l3.449,5.974c1.452-.765,2.954-1.435,4.533-1.888,2.254-.646,4.601-.956,6.946-.919,2.446.038,4.885.453,7.207,1.223.968.321,1.906.725,2.826,1.166,1.167-5.937.314-12.291-2.885-17.955l-22.076,12.399Z"/>
          <g>
            <path class="cls-4" d="M133.35,143.928c-.73,2.907-2.051,5.659-3.87,8.041-1.048,1.374-2.259,2.622-3.601,3.712-.671.545-1.379,1.04-2.109,1.503l-8.77-15.19c-.278.148-.562.27-.837.428s-.523.344-.79.511l8.772,15.193c-1.422.743-2.921,1.34-4.471,1.758-2.328.628-4.757.867-7.163.71-1.989-.13-3.959-.529-5.841-1.183-.575-.2-1.143-.423-1.7-.669-.252-.112-.502-.229-.75-.349-.036-.018-.036-.018-.071-.037-.062-.033-.121-.071-.182-.105-.17.624-.3,1.258-.424,1.893,2.603,1.25,5.43,2.03,8.306,2.283,2.602.229,5.24.031,7.777-.591,1.897-.465,3.723-1.186,5.451-2.096l3.372,5.841,3.434,5.948c-.034.022-.073.036-.107.058-1.924,1.226-3.672,2.725-5.172,4.445-1.791,2.053-3.223,4.414-4.223,6.948-.639,1.618-1.101,3.306-1.378,5.023-.076.474-.139.951-.186,1.429-.018.18-.034.359-.048.539,0,.004,0,.011-.001.015.613.21,1.228.416,1.855.58,0-.096,0-.193.007-.289.074-1.048.221-2.091.442-3.119.361-1.677.916-3.313,1.652-4.863,1.033-2.175,2.422-4.179,4.102-5.906,1.198-1.232,2.552-2.305,4.002-3.226l8.766,15.184c.278-.148.563-.27.838-.429.275-.158.523-.344.79-.511l-8.775-15.199c.707-.369,1.433-.703,2.175-.994,1.581-.62,3.232-1.056,4.913-1.295,2.937-.418,5.953-.234,8.819.529,1.477.393,2.91.948,4.275,1.635.168-.617.296-1.243.419-1.871-.92-.441-1.858-.845-2.826-1.166-2.322-.77-4.761-1.185-7.207-1.223-2.345-.037-4.692.273-6.946.919-1.579.453-3.08,1.123-4.533,1.888l-3.449-5.974-3.377-5.85c.815-.514,1.605-1.066,2.353-1.673,1.537-1.249,2.917-2.691,4.098-4.281,1.876-2.526,3.243-5.421,4.009-8.472.333-1.324.519-2.679.623-4.04-.604-.206-1.209-.409-1.827-.571-.08,1.4-.277,2.793-.618,4.153Z"/>
            <path class="cls-4" d="M154.709,169.389l-.221,1.114c-.129.662-.266,1.321-.444,1.974l-.473,1.73-1.604-.808c-1.301-.656-2.644-1.169-3.988-1.527-2.667-.713-5.515-.882-8.236-.496-1.564.223-3.108.63-4.584,1.209-.218.086-.433.175-.647.266l8.692,15.058-1.493.937c-.175.117-.352.235-.539.344-.203.117-.398.215-.596.309l-1.544.805-8.68-15.035c-.905.665-1.733,1.384-2.472,2.146-1.573,1.616-2.862,3.469-3.827,5.512-.688,1.447-1.209,2.977-1.544,4.544-.203.948-.344,1.928-.413,2.914l-.126,1.768-1.722-.163c-.662-.175-1.306-.392-1.951-.61l-.994-.341.054-1.745c.054-.513.117-1.02.201-1.524.289-1.813.782-3.604,1.461-5.326,1.069-2.71,2.575-5.191,4.481-7.374,1.309-1.501,2.793-2.842,4.423-4.002l-5.426-9.402c-1.493.69-3.008,1.226-4.521,1.596-2.699.662-5.475.871-8.256.627-3.054-.266-6.019-1.083-8.809-2.421l-1.023-.49.215-1.112c.132-.673.272-1.341.45-2l.496-1.831,2.515,1.367c.519.229,1.049.435,1.584.622,1.773.613,3.61.986,5.46,1.106,2.26.149,4.509-.074,6.687-.659.934-.252,1.868-.582,2.787-.983l-8.692-15.058,1.51-.943c.172-.115.344-.226.524-.332.203-.117.398-.215.596-.309l1.544-.805,8.689,15.04c.238-.175.473-.355.705-.541,1.249-1.014,2.378-2.18,3.355-3.458,1.685-2.209,2.934-4.804,3.613-7.512.307-1.218.501-2.524.579-3.879l.103-1.793,1.736.458c.65.172,1.289.384,1.925.599l1.077.37-.089,1.134c-.123,1.596-.341,2.997-.662,4.283-.808,3.217-2.278,6.326-4.254,8.99-1.261,1.696-2.724,3.223-4.352,4.544-.427.35-.868.679-1.318.994l5.446,9.437c1.255-.596,2.404-1.04,3.55-1.367,2.392-.688,4.873-1.017,7.371-.977,2.601.04,5.174.476,7.646,1.298.925.307,1.905.71,2.999,1.235l1.026.493Z"/>
          </g>
        </g>
      </g>
    </g>
    <path class="cls-3" d="M159.75,170.043l-3.124-8.959c-.539-1.547-1.735-2.751-3.286-3.279-10.701-3.642-51.392-17.368-56.007-18.915l-6.148,6.856,55.169,21.455c.023.053.019.11.046.162l6.286,12.203v6.795c0,1.491,1.208,2.699,2.699,2.699h.164c1.491,0,2.7-1.208,2.7-2.699l1.943-10.557c.354-1.926.202-3.911-.443-5.761Z"/>
    <path class="cls-12" d="M139.187,156.353h11.416c1.142,0,2.07.927,2.07,2.07v4.139c0,1.142-.927,2.07-2.07,2.07h-11.415c-1.142,0-2.07-.927-2.07-2.07v-4.139c0-1.142.927-2.069,2.069-2.069Z" transform="translate(-56.481 239.232) rotate(-69.28)"/>
    <path class="cls-3" d="M66.9,138.875h-4.817c-2.273,0-4.224,1.619-4.644,3.853-2.664,14.175-11.77,62.616-11.77,62.616l11.394.845,9.836-67.313Z"/>
    <rect class="cls-6" x="71.78" y="118.959" width="17.036" height="19.917"/>
    <path class="cls-2" d="M61.142,40.92h38.343c10.582,0,19.173,8.591,19.173,19.173v51.103c0,10.583-8.592,19.175-19.175,19.175h-38.343c-10.582,0-19.173-8.591-19.173-19.173v-51.103c0-10.583,8.592-19.175,19.175-19.175Z"/>
    <path class="cls-5" d="M91.964,113.333c0,6.428-5.21,11.638-11.637,11.638s-11.637-5.211-11.637-11.638h23.274Z"/>
    <rect class="cls-15" x="63.262" y="138.89" width="34.072" height="72.413"/>
    <path class="cls-10" d="M84.977,150.543v22.3h-6.308v-17.426h-4.142v-4.874h10.449Z"/>
    <g>
      <g>
        <rect class="cls-10" x="50.485" y="74.996" width="21.295" height="34.077" rx="5.324" ry="5.324"/>
        <path class="cls-9" d="M58.948,80.587h4.369c1.763,0,3.194,1.431,3.194,3.194v16.506c0,1.763-1.431,3.195-3.195,3.195h-4.369c-1.763,0-3.194-1.431-3.194-3.194v-16.506c0-1.763,1.431-3.195,3.195-3.195Z"/>
      </g>
      <g>
        <rect class="cls-10" x="88.845" y="74.996" width="21.295" height="34.077" rx="5.324" ry="5.324"/>
        <path class="cls-9" d="M97.308,80.587h4.369c1.763,0,3.194,1.431,3.194,3.194v16.506c0,1.763-1.431,3.195-3.195,3.195h-4.369c-1.763,0-3.194-1.431-3.194-3.194v-16.507c0-1.763,1.431-3.194,3.194-3.194Z"/>
      </g>
    </g>
    <g>
      <path class="cls-9" d="M106.919,22.344c4.937-.021,9.682,1.396,13.184,3.937,3.501,2.541,5.47,5.998,5.47,9.604,0,12.734-.054,35.667-.054,35.667h-19.312c-9.588,0-17.362-5.676-17.362-12.679V22.422s8.989-.038,18.074-.078Z"/>
      <path class="cls-8" d="M30.475,32.521c0-2.46,1.215-4.82,3.377-6.56,2.162-1.74,5.095-2.717,8.153-2.717h12.768v39.032c0,2.46-1.215,4.82-3.377,6.559-2.162,1.74-5.095,2.717-8.153,2.717h-12.767v-39.032Z"/>
      <rect class="cls-9" x="54.773" y="6.843" width="51.108" height="38.336"/>
    </g>
    <rect class="cls-14" x="38.537" y="58.86" width="83.58" height="17.038" rx="4.605" ry="4.605"/>
    <path class="cls-3" d="M69.308,155.871h-7.715l.489-16.981h9.697v14.51c0,1.365-1.106,2.471-2.471,2.471Z"/>
    <path class="cls-3" d="M91.288,155.871h6.054s0-7.731,0-7.731l2.777-5.462-2.777-3.788h-8.527s0,14.509,0,14.509c0,1.366,1.107,2.473,2.473,2.473Z"/>
  </g>
</svg>