<?xml version="1.0" encoding="UTF-8"?>
<svg id="Layer_1" data-name="Layer 1" xmlns="http://www.w3.org/2000/svg" width="164" height="164" xmlns:xlink="http://www.w3.org/1999/xlink" viewBox="0 0 164 164">
  <defs>
    <style>
      .cls-1, .cls-2 {
        fill: none;
      }

      .cls-3 {
        fill: #ffef5c;
      }

      .cls-3, .cls-4, .cls-5, .cls-6, .cls-7, .cls-8, .cls-9, .cls-10, .cls-11, .cls-12, .cls-13, .cls-14 {
        fill-rule: evenodd;
      }

      .cls-4, .cls-15 {
        fill: #f3b818;
      }

      .cls-5, .cls-16 {
        fill: #fff;
      }

      .cls-17 {
        fill: #8fdff1;
      }

      .cls-6 {
        fill: #1e3272;
      }

      .cls-7, .cls-18 {
        fill: #ad272d;
      }

      .cls-8, .cls-19 {
        fill: #ed1c24;
      }

      .cls-9 {
        fill: #bf387c;
      }

      .cls-10, .cls-20 {
        fill: #284498;
      }

      .cls-21 {
        clip-path: url(#clippath-1);
      }

      .cls-22 {
        clip-path: url(#clippath-3);
      }

      .cls-23 {
        clip-path: url(#clippath-5);
      }

      .cls-24, .cls-14 {
        fill: #071c1c;
      }

      .cls-25, .cls-12 {
        fill: #ff9f00;
      }

      .cls-11, .cls-26 {
        fill: #f9da11;
      }

      .cls-2 {
        clip-rule: evenodd;
      }

      .cls-27 {
        fill: #303248;
      }

      .cls-28 {
        opacity: .5;
      }

      .cls-13 {
        fill: #155757;
      }

      .cls-29 {
        clip-path: url(#clippath);
      }
    </style>
    <clipPath id="clippath">
      <polygon class="cls-2" points="99.67 137.983 65.423 137.983 57.164 203.377 80.67 203.377 81.609 190.708 83.484 190.708 84.423 203.377 107.929 203.377 99.67 137.983"/>
    </clipPath>
    <clipPath id="clippath-1">
      <path class="cls-2" d="M65.096,137.983h-4.342c-3.371,0-6.255,2.358-6.877,5.671-2.456,13.097-6.986,37.47-6.986,37.47l11.986,1.176,6.219-44.317Z"/>
    </clipPath>
    <clipPath id="clippath-3">
      <path class="cls-2" d="M98.904,137.983h4.342c3.371,0,6.255,2.358,6.877,5.671,2.456,13.097,6.986,37.47,6.986,37.47l-11.986,1.176-6.219-44.317Z"/>
    </clipPath>
    <clipPath id="clippath-5">
      <path class="cls-1" d="M155.678,66.176H8.322h10.456c3.512,0,6.536-2.479,7.225-5.923l1.751-8.757c1.895-9.477,7.45-17.825,15.459-23.235h0c6.072-4.101,13.232-6.292,20.559-6.292h36.458c7.327,0,14.487,2.191,20.559,6.292h0c8.009,5.41,13.563,13.758,15.459,23.235l1.751,8.757c.689,3.444,3.713,5.923,7.225,5.923h10.456Z"/>
    </clipPath>
  </defs>
  <rect class="cls-17" x="-3.765" y="-3.765" width="171.529" height="171.529"/>
  <g>
    <g>
      <g>
        <path class="cls-14" d="M-6.414,103.967c0-10.82,6.642-20.53,16.727-24.454.916-.357,1.82-.709,2.695-1.049,5.837-2.272,10.47-6.863,12.798-12.679,1.331-3.331,2.883-7.214,4.403-11.007,4.092-10.231,13.999-16.939,25.018-16.939h53.546c11.019,0,20.926,6.709,25.022,16.939,1.516,3.793,3.069,7.676,4.4,11.007,2.328,5.816,6.961,10.407,12.802,12.679.871.34,1.775.692,2.695,1.049,10.081,3.924,16.723,13.635,16.723,24.454h0c0,14.653-11.879,26.531-26.53,26.531H20.117c-14.651,0-26.53-11.878-26.53-26.53h0Z"/>
        <path class="cls-14" d="M67.56,128.855l-11.264-4.388v13.516s.928,0,2.257,0c2.41-.001,4.719-.967,6.411-2.682,1.692-1.715,2.627-4.036,2.597-6.445h0Z"/>
        <path class="cls-14" d="M95.388,128.855l11.265-4.388v13.516s-.932,0-2.26,0c-2.406-.001-4.715-.967-6.407-2.682-1.695-1.715-2.627-4.036-2.597-6.445h0Z"/>
        <path class="cls-14" d="M56.176,128.855l-11.261-4.388v13.516s.928,0,2.257,0c2.41-.001,4.719-.967,6.411-2.682,1.692-1.715,2.627-4.036,2.593-6.445h0Z"/>
        <path class="cls-14" d="M106.769,128.855l11.264-4.388v13.516s-.932,0-2.257,0c-2.41-.001-4.719-.967-6.411-2.682-1.692-1.715-2.627-4.036-2.597-6.445h0Z"/>
        <path class="cls-14" d="M44.795,128.855l-11.261-4.388v13.516s.928,0,2.257,0c2.41-.001,4.715-.967,6.411-2.682,1.692-1.715,2.627-4.036,2.593-6.445h0Z"/>
        <path class="cls-14" d="M118.149,128.855l11.265-4.388v13.516s-.932,0-2.257,0c-2.41-.001-4.719-.967-6.411-2.682-1.692-1.715-2.627-4.036-2.597-6.445h0Z"/>
        <path class="cls-14" d="M33.415,128.855l-11.261-4.388v13.516s.928,0,2.257,0c2.41-.001,4.715-.967,6.411-2.682,1.692-1.715,2.627-4.036,2.593-6.445h0Z"/>
        <path class="cls-14" d="M129.53,128.855l11.264-4.388v13.516s-.932,0-2.257,0c-2.41-.001-4.719-.967-6.411-2.682-1.692-1.715-2.627-4.036-2.597-6.445h0Z"/>
      </g>
      <rect class="cls-15" x="72.691" y="130.498" width="19.708" height="7.485"/>
      <g>
        <polygon class="cls-6" points="99.67 137.983 65.423 137.983 57.164 203.377 80.67 203.377 81.609 190.708 83.484 190.708 84.423 203.377 107.929 203.377 99.67 137.983"/>
        <g class="cls-29">
          <circle class="cls-20" cx="85.789" cy="163.796" r="6.885"/>
          <path class="cls-13" d="M80.228,134.735c0-.573-.468-1.039-1.04-1.039h-6.639c-.573,0-1.04.466-1.04,1.039s.468,1.039,1.04,1.039h6.639c.573,0,1.04-.466,1.04-1.039Z"/>
          <polygon class="cls-3" points="92.537 156.695 94.4 159.842 97.971 160.643 95.553 163.389 95.894 167.032 92.537 165.582 89.176 167.032 89.517 163.389 87.103 160.643 90.673 159.842 92.537 156.695"/>
          <polygon class="cls-9" points="72.919 140.635 75.838 145.565 81.43 146.82 77.646 151.122 78.177 156.827 72.919 154.556 67.658 156.827 68.193 151.122 64.405 146.82 69.997 145.565 72.919 140.635"/>
          <path class="cls-5" d="M90.082,145.468c1.344,0,2.436,1.092,2.436,2.437s-1.093,2.437-2.436,2.437-2.44-1.092-2.44-2.437,1.093-2.437,2.44-2.437Z"/>
          <path class="cls-10" d="M71.546,124.982c.906,0,1.643.736,1.643,1.642s-.737,1.643-1.643,1.643-1.643-.736-1.643-1.643.737-1.642,1.643-1.642Z"/>
          <circle class="cls-16" cx="94.805" cy="133.533" r="1.643"/>
        </g>
      </g>
      <path class="cls-11" d="M131.195,89.242c0-8.212-6.643-14.88-14.827-14.88H48.725c-8.185,0-14.831,6.667-14.831,14.88v30.119c0,8.212,6.646,14.88,14.831,14.88h67.643c8.185,0,14.827-6.667,14.827-14.88v-30.119Z"/>
      <g>
        <circle class="cls-26" cx="137.801" cy="102.43" r="13.098"/>
        <circle class="cls-15" cx="137.801" cy="102.43" r="4.386"/>
        <circle class="cls-26" cx="27.292" cy="102.43" r="13.098"/>
        <path class="cls-4" d="M27.292,98.045c2.421,0,4.386,1.965,4.386,4.386s-1.965,4.386-4.386,4.386-4.386-1.965-4.386-4.386,1.965-4.386,4.386-4.386Z"/>
      </g>
      <path class="cls-4" d="M91.9,121.142c0,5.167-4.188,9.356-9.356,9.356s-9.356-4.189-9.356-9.356h18.712Z"/>
      <rect class="cls-24" x="49.507" y="70.62" width="65.33" height="22.454"/>
      <polygon class="cls-11" points="82.627 94.229 76.729 99.287 70.827 94.229 76.729 81.586 82.627 94.229"/>
      <g>
        <rect class="cls-16" x="45.121" y="93.074" width="22.43" height="29.939" rx="5.657" ry="5.657"/>
        <rect class="cls-24" x="49.75" y="97.986" width="13.171" height="20.115" rx="2.807" ry="2.807"/>
      </g>
      <g>
        <rect class="cls-16" x="97.526" y="93.074" width="22.43" height="29.939" rx="5.657" ry="5.657"/>
        <rect class="cls-24" x="102.156" y="97.986" width="13.171" height="20.115" rx="2.807" ry="2.807"/>
      </g>
      <g>
        <g>
          <path class="cls-7" d="M65.096,137.983h-4.342c-3.371,0-6.255,2.358-6.877,5.671-2.456,13.097-6.986,37.47-6.986,37.47l11.986,1.176,6.219-44.317Z"/>
          <g class="cls-21">
            <path class="cls-12" d="M48.046,154.239c.148-.977,1.062-1.649,2.039-1.5l12.359,1.485c.977.148,1.649,1.062,1.5,2.039l-.954,5.583c-.149.977-1.062,1.649-2.039,1.5l-12.359-1.485c-.977-.148-1.649-1.062-1.5-2.039l.954-5.583Z"/>
          </g>
        </g>
        <polygon class="cls-8" points="69.006 137.996 61.652 137.996 52.872 210.319 69.006 210.319 69.006 137.996"/>
      </g>
      <g>
        <g>
          <path class="cls-7" d="M98.904,137.983h4.342c3.371,0,6.255,2.358,6.877,5.671,2.456,13.097,6.986,37.47,6.986,37.47l-11.986,1.176-6.219-44.317Z"/>
          <g class="cls-22">
            <path class="cls-12" d="M115.954,154.239c-.148-.977-1.062-1.649-2.039-1.5l-12.359,1.485c-.977.148-1.649,1.062-1.5,2.039l.954,5.583c.149.977,1.062,1.649,2.039,1.5l12.359-1.485c.977-.148,1.649-1.062,1.5-2.039l-.954-5.583Z"/>
          </g>
        </g>
        <polygon class="cls-8" points="94.994 137.996 102.348 137.996 111.128 210.319 94.994 210.319 94.994 137.996"/>
      </g>
    </g>
    <g>
      <rect class="cls-19" x="8.322" y="66.176" width="147.356" height="14.736" rx="6.483" ry="6.483"/>
      <path class="cls-19" d="M155.678,66.176H8.322h10.456c3.512,0,6.536-2.479,7.225-5.923l1.751-8.757c1.895-9.477,7.45-17.825,15.459-23.235h0c6.072-4.101,13.232-6.292,20.559-6.292h36.458c7.327,0,14.487,2.191,20.559,6.292h0c8.009,5.41,13.563,13.758,15.459,23.235l1.751,8.757c.689,3.444,3.713,5.923,7.225,5.923h10.456Z"/>
      <g class="cls-28">
        <g class="cls-23">
          <rect class="cls-18" x="8.322" y="51.44" width="147.356" height="14.736" rx="6.483" ry="6.483"/>
        </g>
      </g>
      <path class="cls-27" d="M41.996,66.176c2.273,0,4.23-1.605,4.676-3.834l1.134-5.668c1.227-6.134,4.822-11.537,10.006-15.039h0c3.93-2.654,8.564-4.073,13.306-4.073h21.765c4.742,0,9.376,1.418,13.306,4.073h0c5.184,3.501,8.779,8.905,10.006,15.039l1.134,5.668c.446,2.229,2.403,3.834,4.676,3.834H41.996Z"/>
      <path class="cls-25" d="M52.517,66.176c1.54,0,2.866-1.087,3.169-2.598l.768-3.84c.831-4.156,3.267-7.818,6.78-10.19h0c2.663-1.799,5.803-2.76,9.017-2.76h19.499c3.213,0,6.354.961,9.017,2.76h0c3.513,2.372,5.949,6.034,6.78,10.19l.768,3.84c.302,1.51,1.628,2.598,3.169,2.598h-58.965Z"/>
      <rect class="cls-25" x="70.7" y="21.969" width="23.167" height="30.535"/>
    </g>
  </g>
</svg>