<svg xmlns="http://www.w3.org/2000/svg" width="1500" height="145" xmlns:v="https://vecta.io/nano"><style><![CDATA[.B{fill-rule:evenodd}.C{opacity:.21}]]></style><defs><clipPath id="A"><path d="M0 0h1500v145H0z" fill="none"/></clipPath><clipPath id="B"><path d="M334.13-668.3h0c0 34.984 28.36 63.345 63.345 63.345h118.218c34.984 0 63.345 28.36 63.345 63.345v36.621c0 34.984 28.36 63.345 63.345 63.345h108.664c45.971 0 83.238 37.267 83.238 83.238h0c0 45.971-37.267 83.239-83.238 83.239h-85.044c-26.821 0-48.565 21.743-48.565 48.565v204.276c0 38.66-31.34 70-70 70H271.54c-29.554 0-53.512-23.958-53.512-53.512h0c0-66.303-53.749-120.053-120.053-120.053H-3.445v-605.753h274.23c34.984 0 63.345 28.36 63.345 63.345z" fill="none"/></clipPath><path id="C" d="M588.622 8.835h21.187c1.896 0 3.438 1.542 3.438 3.438v8.147c0 1.896-1.542 3.438-3.438 3.438h-21.187c-1.896 0-3.438-1.542-3.438-3.438v-8.147c0-1.896 1.542-3.438 3.438-3.438zm21.187 13.108c.84 0 1.523-.683 1.523-1.523v-8.147c0-.84-.683-1.523-1.523-1.523h-21.187c-.84 0-1.523.683-1.523 1.523v8.147c0 .84.683 1.523 1.523 1.523h21.187z"/><path id="D" d="M614.77 8.835h21.187c1.896 0 3.438 1.542 3.438 3.438v8.147c0 1.896-1.542 3.438-3.438 3.438H614.77c-1.895 0-3.437-1.542-3.437-3.438v-8.147c0-1.896 1.542-3.438 3.437-3.438zm21.187 13.108c.84 0 1.523-.683 1.523-1.523v-8.147c0-.84-.683-1.523-1.523-1.523H614.77c-.84 0-1.523.683-1.523 1.523v8.147c0 .84.683 1.523 1.523 1.523h21.187z"/><path id="E" d="M693.246 8.835h21.187c1.895 0 3.437 1.542 3.437 3.438v8.147c0 1.896-1.542 3.438-3.437 3.438h-21.187c-1.896 0-3.438-1.542-3.438-3.438v-8.147c0-1.896 1.542-3.438 3.438-3.438zm21.187 13.108c.84 0 1.523-.683 1.523-1.523v-8.147c0-.84-.683-1.523-1.523-1.523h-21.187c-.84 0-1.523.683-1.523 1.523v8.147c0 .84.683 1.523 1.523 1.523h21.187z"/><path id="F" d="M719.393 8.835h21.187c1.896 0 3.438 1.542 3.438 3.438v8.147c0 1.896-1.542 3.438-3.438 3.438h-21.187c-1.896 0-3.438-1.542-3.438-3.438v-8.147c0-1.896 1.542-3.438 3.438-3.438zm21.188 13.108c.84 0 1.523-.683 1.523-1.523v-8.147c0-.84-.683-1.523-1.523-1.523h-21.187c-.84 0-1.523.683-1.523 1.523v8.147c0 .84.683 1.523 1.523 1.523h21.187z"/><path id="G" d="M627.827 21.943h21.187c1.896 0 3.438 1.542 3.438 3.438v8.147c0 1.896-1.542 3.438-3.438 3.438h-21.187c-1.896 0-3.438-1.542-3.438-3.438v-8.147c0-1.896 1.542-3.438 3.438-3.438zm21.186 13.108c.84 0 1.523-.683 1.523-1.523v-8.147c0-.84-.683-1.523-1.523-1.523h-21.187c-.84 0-1.523.683-1.523 1.523v8.147c0 .84.683 1.523 1.523 1.523h21.187z"/><path id="H" d="M601.678 48.159h21.187c1.896 0 3.438 1.542 3.438 3.438v8.147c0 1.896-1.542 3.438-3.438 3.438h-21.187c-1.896 0-3.438-1.542-3.438-3.438v-8.147c0-1.896 1.542-3.438 3.438-3.438zm21.188 13.109c.84 0 1.523-.683 1.523-1.523v-8.147c0-.84-.683-1.523-1.523-1.523h-21.187c-.84 0-1.523.683-1.523 1.523v8.147c0 .84.683 1.523 1.523 1.523h21.187z"/><path id="I" d="M627.827 48.159h21.187c1.896 0 3.438 1.542 3.438 3.438v8.147c0 1.896-1.542 3.438-3.438 3.438h-21.187c-1.896 0-3.438-1.542-3.438-3.438v-8.147c0-1.896 1.542-3.438 3.438-3.438zm21.186 13.109c.84 0 1.523-.683 1.523-1.523v-8.147c0-.84-.683-1.523-1.523-1.523h-21.187c-.84 0-1.523.683-1.523 1.523v8.147c0 .84.683 1.523 1.523 1.523h21.187z"/><path id="J" d="M706.302 48.159h21.187c1.896 0 3.438 1.542 3.438 3.438v8.147c0 1.896-1.542 3.438-3.438 3.438h-21.187c-1.896 0-3.438-1.542-3.438-3.438v-8.147c0-1.896 1.542-3.438 3.438-3.438zm21.187 13.109c.84 0 1.523-.683 1.523-1.523v-8.147c0-.84-.683-1.523-1.523-1.523h-21.187c-.84 0-1.523.683-1.523 1.523v8.147c0 .84.683 1.523 1.523 1.523h21.187z"/><path id="K" d="M379.391 8.835h21.187c1.895 0 3.437 1.542 3.437 3.438v8.147c0 1.896-1.542 3.438-3.437 3.438h-21.187c-1.896 0-3.438-1.542-3.438-3.438v-8.147c0-1.896 1.542-3.438 3.438-3.438zm21.188 13.108c.84 0 1.523-.683 1.523-1.523v-8.147c0-.84-.683-1.523-1.523-1.523h-21.187c-.84 0-1.523.683-1.523 1.523v8.147c0 .84.683 1.523 1.523 1.523h21.187z"/><path id="L" d="M405.539 8.835h21.187c1.896 0 3.438 1.542 3.438 3.438v8.147c0 1.896-1.542 3.438-3.438 3.438h-21.187c-1.896 0-3.438-1.542-3.438-3.438v-8.147c0-1.896 1.542-3.438 3.438-3.438zm21.188 13.108c.84 0 1.523-.683 1.523-1.523v-8.147c0-.84-.683-1.523-1.523-1.523H405.54c-.84 0-1.523.683-1.523 1.523v8.147c0 .84.683 1.523 1.523 1.523h21.187z"/><path id="M" d="M431.691 8.835h21.187c1.896 0 3.438 1.542 3.438 3.438v8.147c0 1.896-1.542 3.438-3.438 3.438h-21.187c-1.895 0-3.437-1.542-3.437-3.438v-8.147c0-1.896 1.542-3.438 3.437-3.438zm21.188 13.108c.84 0 1.523-.683 1.523-1.523v-8.147c0-.84-.683-1.523-1.523-1.523h-21.187c-.84 0-1.523.683-1.523 1.523v8.147c0 .84.683 1.523 1.523 1.523h21.187z"/><path id="N" d="M457.84 8.835h21.187c1.896 0 3.438 1.542 3.438 3.438v8.147c0 1.896-1.542 3.438-3.438 3.438H457.84c-1.896 0-3.438-1.542-3.438-3.438v-8.147c0-1.896 1.542-3.438 3.438-3.438zm21.187 13.108c.84 0 1.523-.683 1.523-1.523v-8.147c0-.84-.683-1.523-1.523-1.523H457.84c-.84 0-1.523.683-1.523 1.523v8.147c0 .84.683 1.523 1.523 1.523h21.187z"/><path id="O" d="M536.28 8.835h21.187c1.896 0 3.438 1.542 3.438 3.438v8.147c0 1.896-1.542 3.438-3.438 3.438H536.28c-1.896 0-3.438-1.542-3.438-3.438v-8.147c0-1.896 1.542-3.438 3.438-3.438zm21.188 13.108c.84 0 1.523-.683 1.523-1.523v-8.147c0-.84-.683-1.523-1.523-1.523h-21.187c-.84 0-1.523.683-1.523 1.523v8.147c0 .84.683 1.523 1.523 1.523h21.187z"/><path id="P" d="M418.596 21.943h21.187c1.896 0 3.438 1.542 3.438 3.438v8.147c0 1.896-1.542 3.438-3.438 3.438h-21.187c-1.895 0-3.437-1.542-3.437-3.438v-8.147c0-1.896 1.542-3.438 3.437-3.438zm21.187 13.108c.84 0 1.523-.683 1.523-1.523v-8.147c0-.84-.683-1.523-1.523-1.523h-21.187c-.84 0-1.523.683-1.523 1.523v8.147c0 .84.683 1.523 1.523 1.523h21.187z"/><path id="Q" d="M418.596 48.159h21.187c1.896 0 3.438 1.542 3.438 3.438v8.147c0 1.896-1.542 3.438-3.438 3.438h-21.187c-1.895 0-3.437-1.542-3.437-3.438v-8.147c0-1.896 1.542-3.438 3.437-3.438zm21.187 13.109c.84 0 1.523-.683 1.523-1.523v-8.147c0-.84-.683-1.523-1.523-1.523h-21.187c-.84 0-1.523.683-1.523 1.523v8.147c0 .84.683 1.523 1.523 1.523h21.187z"/><path id="R" d="M65.555 8.835h21.187c1.896 0 3.438 1.542 3.438 3.438v8.147c0 1.896-1.542 3.438-3.438 3.438H65.555c-1.896 0-3.438-1.542-3.438-3.438v-8.147c0-1.896 1.542-3.438 3.438-3.438zm21.187 13.108c.84 0 1.523-.683 1.523-1.523v-8.147c0-.84-.683-1.523-1.523-1.523H65.555c-.84 0-1.523.683-1.523 1.523v8.147c0 .84.683 1.523 1.523 1.523h21.187z"/><path id="S" d="M91.703 8.835h21.187c1.896 0 3.438 1.542 3.438 3.438v8.147c0 1.896-1.542 3.438-3.438 3.438H91.703c-1.895 0-3.437-1.542-3.437-3.438v-8.147c0-1.896 1.542-3.438 3.437-3.438zm21.187 13.108c.84 0 1.523-.683 1.523-1.523v-8.147c0-.84-.683-1.523-1.523-1.523H91.703c-.84 0-1.523.683-1.523 1.523v8.147c0 .84.683 1.523 1.523 1.523h21.187z"/><path id="T" d="M248.65 8.835h21.187c1.896 0 3.438 1.542 3.438 3.438v8.147c0 1.896-1.542 3.438-3.438 3.438H248.65c-1.896 0-3.438-1.542-3.438-3.438v-8.147c0-1.896 1.542-3.438 3.438-3.438zm21.187 13.108c.84 0 1.523-.683 1.523-1.523v-8.147c0-.84-.683-1.523-1.523-1.523H248.65c-.84 0-1.523.683-1.523 1.523v8.147c0 .84.683 1.523 1.523 1.523h21.187z"/><path id="U" d="M209.383 48.159h21.187c1.896 0 3.438 1.542 3.438 3.438v8.147c0 1.896-1.542 3.438-3.438 3.438h-21.187c-1.895 0-3.437-1.542-3.437-3.438v-8.147c0-1.896 1.542-3.438 3.437-3.438zm21.188 13.109c.84 0 1.523-.683 1.523-1.523v-8.147c0-.84-.683-1.523-1.523-1.523h-21.187c-.84 0-1.523.683-1.523 1.523v8.147c0 .84.683 1.523 1.523 1.523h21.187z"/><path id="V" d="M65.51 8.835h21.187c1.896 0 3.438 1.542 3.438 3.438v8.147c0 1.896-1.542 3.438-3.438 3.438H65.51c-1.896 0-3.438-1.542-3.438-3.438v-8.147c0-1.896 1.542-3.438 3.438-3.438zm21.187 13.108c.84 0 1.523-.683 1.523-1.523v-8.147c0-.84-.683-1.523-1.523-1.523H65.51c-.84 0-1.523.683-1.523 1.523v8.147c0 .84.683 1.523 1.523 1.523h21.187z"/><path id="W" d="M39.362 8.835h21.187c1.896 0 3.438 1.542 3.438 3.438v8.147c0 1.896-1.542 3.438-3.438 3.438H39.362c-1.896 0-3.438-1.542-3.438-3.438v-8.147c0-1.896 1.542-3.438 3.438-3.438zm21.187 13.108c.84 0 1.523-.683 1.523-1.523v-8.147c0-.84-.683-1.523-1.523-1.523H39.362c-.84 0-1.523.683-1.523 1.523v8.147c0 .84.683 1.523 1.523 1.523h21.187z"/><path id="X" d="M771.659 8.835h21.187c1.896 0 3.438 1.542 3.438 3.438v8.147c0 1.896-1.542 3.438-3.438 3.438h-21.187c-1.896 0-3.438-1.542-3.438-3.438v-8.147c0-1.896 1.542-3.438 3.438-3.438zm21.188 13.108c.84 0 1.523-.683 1.523-1.523v-8.147c0-.84-.683-1.523-1.523-1.523H771.66c-.84 0-1.523.683-1.523 1.523v8.147c0 .84.683 1.523 1.523 1.523h21.187z"/><path id="Y" d="M87.948 62.953c1.232 0 2.231-1 2.231-2.236v-7.001c0-1.236-.999-2.236-2.231-2.236s-2.231 1-2.231 2.236v7.001c0 1.236.999 2.236 2.231 2.236z"/><path id="Z" d="M78.634 62.953c1.232 0 2.231-1 2.231-2.236V56.05c0-1.236-.999-2.236-2.231-2.236s-2.231 1-2.231 2.236v4.667c0 1.236.999 2.236 2.231 2.236z"/><path id="a" d="M53.503 81.432c1.232 0 2.231-1 2.231-2.236v-4.669c0-1.236-.999-2.236-2.231-2.236s-2.231 1-2.231 2.236v4.669c0 1.236.999 2.236 2.231 2.236z"/><path id="b" d="M44.869,42.726c1.232,0,2.231-1,2.231-2.236v-4.669c0-1.236-.999-2.236-2.231-2.236s-2.231,1-2.231,2.236v4.669c0,1.236.999,2.236,2.231,2.236Z"/><path id="c" d="M945.93 67.815c1.232 0 2.231-1 2.231-2.236v-4.667c0-1.236-.999-2.236-2.231-2.236s-2.231 1-2.231 2.236v4.667c0 1.236.999 2.236 2.231 2.236z"/><path id="d" d="M1013.491 109.241h500.625v10.217h-500.625z"/><path id="e" d="M1049.25 83.699l35.759 25.542h-71.518l35.759-25.542z"/><path id="f" d="M1192.286 27.506l35.759 25.542v56.193l-35.759-25.542V27.506z"/><path id="g" d="M1049.25 50.494l35.759 25.542v10.217l-35.759-25.542V50.494z"/><path id="h" d="M1192.286 27.506l-35.759 25.542v56.193l35.759-25.542V27.506z"/><path id="i" d="M1023.708 119.458h10.217v40.867h-10.217z"/><path id="j" d="M1023.708 119.458h10.217v10.217h-10.217z"/><path id="k" d="M1478.357 50.494l-35.759 25.542v10.217l35.759-25.542V50.494z"/><path id="l" d="M1033.925 38.454l-5.109 3.647v56.193l5.109-3.648V38.454z"/><path id="m" d="M1176.96 38.454l-5.108 3.647v56.193l5.108-3.648V38.454z"/><path id="n" d="M1064.575 38.454l5.109 3.647v56.193l-5.109-3.648V38.454z"/><path id="o" d="M1136.093 38.454l5.108 3.647v56.193l-5.108-3.648V38.454z"/></defs><g clip-path="url(#A)"><path d="M-25.02-4530.264V432.197h237.861c9.772,0,17.722-7.951,17.722-17.723,0-42.856,34.866-77.722,77.723-77.722h171.209c14.715,0,26.688-11.972,26.688-26.688,0-47.8,38.888-86.688,86.687-86.688h299.076c47.8,0,86.688,38.888,86.688,86.688v46.302c0,25.271,20.56,45.831,45.831,45.831,53.412,0,96.866,43.454,96.866,96.865v21.344c0,20.328,16.538,36.866,36.865,36.866h189.184c52.124,0,94.529,42.406,94.529,94.53,0,19.04,15.49,34.53,34.53,34.53h38.58v-5216.596H-25.02Z" fill="#00b365"/><g stroke="#77d629" stroke-dasharray="0 10" stroke-linecap="round" stroke-linejoin="round" stroke-width="10"><path d="M1515.02-1562.543H-25.02v750.899h-58.425v765.752H97.974c22.098 0 40.063 17.896 40.053 39.993-.033 73.646 59.873 133.572 133.513 133.572h275.897c82.843 0 150-67.157 150-150v-142.005c0-14.449 11.714-26.163 26.163-26.163h68.735c79.273 0 143.536-64.263 143.536-143.536v-65.221c0-72.355 58.656-131.011 131.654-131.011h3.289c70.215 0 127.131-56.928 127.117-127.143l-.01-49.045c-.015-72.351 58.633-131.011 130.985-131.011h186.115v-725.081z" fill="#77d629"/><path d="M334.13-668.3h0c0 34.984 28.36 63.345 63.345 63.345h118.218c34.984 0 63.345 28.36 63.345 63.345v36.621c0 34.984 28.36 63.345 63.345 63.345h108.664c45.971 0 83.238 37.267 83.238 83.238h0c0 45.971-37.267 83.239-83.238 83.239h-85.044c-26.821 0-48.565 21.743-48.565 48.565v204.276c0 38.66-31.34 70-70 70H271.54c-29.554 0-53.512-23.958-53.512-53.512h0c0-66.303-53.749-120.053-120.053-120.053H-3.445v-605.753h274.23c34.984 0 63.345 28.36 63.345 63.345z" fill="#d1f2f1"/></g><g opacity=".2"><g clip-path="url(#B)" fill="#97cec8"><path d="M601.678-4.273h21.187c1.896,0,3.438,1.542,3.438,3.438V7.312c0,1.896-1.542,3.438-3.438,3.438h-21.187c-1.896,0-3.438-1.542-3.438-3.438V-.836c0-1.896,1.542-3.438,3.438-3.438ZM622.866,8.835c.84,0,1.523-.683,1.523-1.523V-.836c0-.84-.683-1.523-1.523-1.523h-21.187c-.84,0-1.523.683-1.523,1.523V7.312c0,.84.683,1.523,1.523,1.523h21.187Z"/><path d="M627.827-4.273h21.187c1.896,0,3.438,1.542,3.438,3.438V7.312c0,1.896-1.542,3.438-3.438,3.438h-21.187c-1.896,0-3.438-1.542-3.438-3.438V-.836c0-1.896,1.542-3.438,3.438-3.438ZM649.013,8.835c.84,0,1.523-.683,1.523-1.523V-.836c0-.84-.683-1.523-1.523-1.523h-21.187c-.84,0-1.523.683-1.523,1.523V7.312c0,.84.683,1.523,1.523,1.523h21.187Z"/><path d="M654.001-4.273h21.187c1.896,0,3.438,1.542,3.438,3.438V7.312c0,1.896-1.542,3.438-3.438,3.438h-21.187c-1.896,0-3.438-1.542-3.438-3.438V-.836c0-1.896,1.542-3.438,3.438-3.438ZM675.189,8.835c.84,0,1.523-.683,1.523-1.523V-.836c0-.84-.683-1.523-1.523-1.523h-21.187c-.84,0-1.523.683-1.523,1.523V7.312c0,.84.683,1.523,1.523,1.523h21.187Z"/><path d="M680.15-4.273h21.187c1.896 0 3.438 1.542 3.438 3.438v8.147c0 1.896-1.542 3.438-3.438 3.438H680.15c-1.896 0-3.438-1.542-3.438-3.438V-.836c0-1.896 1.542-3.438 3.438-3.438zm21.187 13.108c.84 0 1.523-.683 1.523-1.523V-.836c0-.84-.683-1.523-1.523-1.523H680.15c-.84 0-1.523.683-1.523 1.523v8.148c0 .84.683 1.523 1.523 1.523h21.187z"/><path d="M706.302-4.273h21.187c1.896,0,3.438,1.542,3.438,3.438V7.312c0,1.896-1.542,3.438-3.438,3.438h-21.187c-1.896,0-3.438-1.542-3.438-3.438V-.836c0-1.896,1.542-3.438,3.438-3.438ZM727.489,8.835c.84,0,1.523-.683,1.523-1.523V-.836c0-.84-.683-1.523-1.523-1.523h-21.187c-.84,0-1.523.683-1.523,1.523V7.312c0,.84.683,1.523,1.523,1.523h21.187Z"/><path d="M732.45-4.273h21.187c1.896 0 3.438 1.542 3.438 3.438v8.147c0 1.896-1.542 3.438-3.438 3.438H732.45c-1.895 0-3.437-1.542-3.437-3.438V-.836c0-1.896 1.542-3.438 3.437-3.438zm21.187 13.108c.84 0 1.523-.683 1.523-1.523V-.836c0-.84-.683-1.523-1.523-1.523H732.45c-.84 0-1.523.683-1.523 1.523v8.148c0 .84.683 1.523 1.523 1.523h21.187z"/><path d="M758.625-4.273h21.187c1.896,0,3.438,1.542,3.438,3.438V7.312c0,1.896-1.542,3.438-3.438,3.438h-21.187c-1.896,0-3.438-1.542-3.438-3.438V-.836c0-1.896,1.542-3.438,3.438-3.438ZM779.813,8.835c.84,0,1.523-.683,1.523-1.523V-.836c0-.84-.683-1.523-1.523-1.523h-21.187c-.84,0-1.523.683-1.523,1.523V7.312c0,.84.683,1.523,1.523,1.523h21.187Z"/><use href="#C"/><use href="#D"/><path d="M640.945 8.835h21.187c1.896 0 3.438 1.542 3.438 3.438v8.147c0 1.896-1.542 3.438-3.438 3.438h-21.187c-1.896 0-3.438-1.542-3.438-3.438v-8.147c0-1.896 1.542-3.438 3.438-3.438zm21.187 13.108c.84 0 1.523-.683 1.523-1.523v-8.147c0-.84-.683-1.523-1.523-1.523h-21.187c-.84 0-1.523.683-1.523 1.523v8.147c0 .84.683 1.523 1.523 1.523h21.187z"/><path d="M667.093,8.835h21.187c1.896,0,3.438,1.542,3.438,3.438v8.147c0,1.896-1.542,3.438-3.438,3.438h-21.187c-1.896,0-3.438-1.542-3.438-3.438v-8.147c0-1.896,1.542-3.438,3.438-3.438ZM688.28,21.943c.84,0,1.523-.683,1.523-1.523v-8.147c0-.84-.683-1.523-1.523-1.523h-21.187c-.84,0-1.523.683-1.523,1.523v8.147c0,.84.683,1.523,1.523,1.523h21.187Z"/><use href="#E"/><use href="#F"/><path d="M745.569 8.835h21.187c1.896 0 3.438 1.542 3.438 3.438v8.147c0 1.896-1.542 3.438-3.438 3.438h-21.187c-1.896 0-3.438-1.542-3.438-3.438v-8.147c0-1.896 1.542-3.438 3.438-3.438zm21.187 13.108c.84 0 1.523-.683 1.523-1.523v-8.147c0-.84-.683-1.523-1.523-1.523h-21.187c-.84 0-1.523.683-1.523 1.523v8.147c0 .84.683 1.523 1.523 1.523h21.187zm-165.078 0h21.187c1.896 0 3.438 1.542 3.438 3.438v8.147c0 1.896-1.542 3.438-3.438 3.438h-21.187c-1.896 0-3.438-1.542-3.438-3.438v-8.147c0-1.896 1.542-3.438 3.438-3.438zm21.188 13.108c.84 0 1.523-.683 1.523-1.523v-8.147c0-.84-.683-1.523-1.523-1.523h-21.187c-.84 0-1.523.683-1.523 1.523v8.147c0 .84.683 1.523 1.523 1.523h21.187z"/><use href="#G"/><path d="M654.001 21.943h21.187c1.896 0 3.438 1.542 3.438 3.438v8.147c0 1.896-1.542 3.438-3.438 3.438h-21.187c-1.896 0-3.438-1.542-3.438-3.438v-8.147c0-1.896 1.542-3.438 3.438-3.438zm21.188 13.108c.84 0 1.523-.683 1.523-1.523v-8.147c0-.84-.683-1.523-1.523-1.523h-21.187c-.84 0-1.523.683-1.523 1.523v8.147c0 .84.683 1.523 1.523 1.523h21.187z"/><path d="M680.15 21.943h21.187c1.896 0 3.438 1.542 3.438 3.438v8.147c0 1.896-1.542 3.438-3.438 3.438H680.15c-1.896 0-3.438-1.542-3.438-3.438v-8.147c0-1.896 1.542-3.438 3.438-3.438zm21.187 13.108c.84 0 1.523-.683 1.523-1.523v-8.147c0-.84-.683-1.523-1.523-1.523H680.15c-.84 0-1.523.683-1.523 1.523v8.147c0 .84.683 1.523 1.523 1.523h21.187z"/><path d="M706.302 21.943h21.187c1.896 0 3.438 1.542 3.438 3.438v8.147c0 1.896-1.542 3.438-3.438 3.438h-21.187c-1.896 0-3.438-1.542-3.438-3.438v-8.147c0-1.896 1.542-3.438 3.438-3.438zm21.187 13.108c.84 0 1.523-.683 1.523-1.523v-8.147c0-.84-.683-1.523-1.523-1.523h-21.187c-.84 0-1.523.683-1.523 1.523v8.147c0 .84.683 1.523 1.523 1.523h21.187z"/><path d="M732.45 21.943h21.187c1.896 0 3.438 1.542 3.438 3.438v8.147c0 1.896-1.542 3.438-3.438 3.438H732.45c-1.895 0-3.437-1.542-3.437-3.438v-8.147c0-1.896 1.542-3.438 3.437-3.438zm21.187 13.108c.84 0 1.523-.683 1.523-1.523v-8.147c0-.84-.683-1.523-1.523-1.523H732.45c-.84 0-1.523.683-1.523 1.523v8.147c0 .84.683 1.523 1.523 1.523h21.187z"/><path d="M758.625 21.943h21.187c1.896 0 3.438 1.542 3.438 3.438v8.147c0 1.896-1.542 3.438-3.438 3.438h-21.187c-1.896 0-3.438-1.542-3.438-3.438v-8.147c0-1.896 1.542-3.438 3.438-3.438zm21.188 13.108c.84 0 1.523-.683 1.523-1.523v-8.147c0-.84-.683-1.523-1.523-1.523h-21.187c-.84 0-1.523.683-1.523 1.523v8.147c0 .84.683 1.523 1.523 1.523h21.187zm-191.191 0h21.187c1.896 0 3.438 1.542 3.438 3.438v8.147c0 1.896-1.542 3.438-3.438 3.438h-21.187c-1.896 0-3.438-1.542-3.438-3.438v-8.147c0-1.896 1.542-3.438 3.438-3.438zm21.187 13.108c.84 0 1.523-.683 1.523-1.523v-8.147c0-.84-.683-1.523-1.523-1.523h-21.187c-.84 0-1.523.683-1.523 1.523v8.147c0 .84.683 1.523 1.523 1.523h21.187z"/><path d="M614.77 35.051h21.187c1.896 0 3.438 1.542 3.438 3.438v8.147c0 1.896-1.542 3.438-3.438 3.438H614.77c-1.895 0-3.437-1.542-3.437-3.438v-8.147c0-1.896 1.542-3.438 3.437-3.438zm21.187 13.108c.84 0 1.523-.683 1.523-1.523v-8.147c0-.84-.683-1.523-1.523-1.523H614.77c-.84 0-1.523.683-1.523 1.523v8.147c0 .84.683 1.523 1.523 1.523h21.187z"/><path d="M640.945 35.051h21.187c1.896 0 3.438 1.542 3.438 3.438v8.147c0 1.896-1.542 3.438-3.438 3.438h-21.187c-1.896 0-3.438-1.542-3.438-3.438v-8.147c0-1.896 1.542-3.438 3.438-3.438zm21.187 13.108c.84 0 1.523-.683 1.523-1.523v-8.147c0-.84-.683-1.523-1.523-1.523h-21.187c-.84 0-1.523.683-1.523 1.523v8.147c0 .84.683 1.523 1.523 1.523h21.187z"/><path d="M667.093,35.051h21.187c1.896,0,3.438,1.542,3.438,3.438v8.147c0,1.896-1.542,3.438-3.438,3.438h-21.187c-1.896,0-3.438-1.542-3.438-3.438v-8.147c0-1.896,1.542-3.438,3.438-3.438ZM688.28,48.159c.84,0,1.523-.683,1.523-1.523v-8.147c0-.84-.683-1.523-1.523-1.523h-21.187c-.84,0-1.523.683-1.523,1.523v8.147c0,.84.683,1.523,1.523,1.523h21.187Z"/><path d="M693.246 35.051h21.187c1.895 0 3.437 1.542 3.437 3.438v8.147c0 1.896-1.542 3.438-3.437 3.438h-21.187c-1.896 0-3.438-1.542-3.438-3.438v-8.147c0-1.896 1.542-3.438 3.438-3.438zm21.187 13.108c.84 0 1.523-.683 1.523-1.523v-8.147c0-.84-.683-1.523-1.523-1.523h-21.187c-.84 0-1.523.683-1.523 1.523v8.147c0 .84.683 1.523 1.523 1.523h21.187z"/><path d="M719.393 35.051h21.187c1.896 0 3.438 1.542 3.438 3.438v8.147c0 1.896-1.542 3.438-3.438 3.438h-21.187c-1.896 0-3.438-1.542-3.438-3.438v-8.147c0-1.896 1.542-3.438 3.438-3.438zm21.188 13.108c.84 0 1.523-.683 1.523-1.523v-8.147c0-.84-.683-1.523-1.523-1.523h-21.187c-.84 0-1.523.683-1.523 1.523v8.147c0 .84.683 1.523 1.523 1.523h21.187z"/><path d="M745.569 35.051h21.187c1.896 0 3.438 1.542 3.438 3.438v8.147c0 1.896-1.542 3.438-3.438 3.438h-21.187c-1.896 0-3.438-1.542-3.438-3.438v-8.147c0-1.896 1.542-3.438 3.438-3.438zm21.187 13.108c.84 0 1.523-.683 1.523-1.523v-8.147c0-.84-.683-1.523-1.523-1.523h-21.187c-.84 0-1.523.683-1.523 1.523v8.147c0 .84.683 1.523 1.523 1.523h21.187z"/><use href="#H"/><use href="#I"/><path d="M654.001 48.159h21.187c1.896 0 3.438 1.542 3.438 3.438v8.147c0 1.896-1.542 3.438-3.438 3.438h-21.187c-1.896 0-3.438-1.542-3.438-3.438v-8.147c0-1.896 1.542-3.438 3.438-3.438zm21.188 13.109c.84 0 1.523-.683 1.523-1.523v-8.147c0-.84-.683-1.523-1.523-1.523h-21.187c-.84 0-1.523.683-1.523 1.523v8.147c0 .84.683 1.523 1.523 1.523h21.187z"/><path d="M680.15 48.159h21.187c1.896 0 3.438 1.542 3.438 3.438v8.147c0 1.896-1.542 3.438-3.438 3.438H680.15c-1.896 0-3.438-1.542-3.438-3.438v-8.147c0-1.896 1.542-3.438 3.438-3.438zm21.187 13.109c.84 0 1.523-.683 1.523-1.523v-8.147c0-.84-.683-1.523-1.523-1.523H680.15c-.84 0-1.523.683-1.523 1.523v8.147c0 .84.683 1.523 1.523 1.523h21.187z"/><use href="#J"/><path d="M732.45 48.159h21.187c1.896 0 3.438 1.542 3.438 3.438v8.147c0 1.896-1.542 3.438-3.438 3.438H732.45c-1.895 0-3.437-1.542-3.437-3.438v-8.147c0-1.896 1.542-3.438 3.437-3.438zm21.187 13.109c.84 0 1.523-.683 1.523-1.523v-8.147c0-.84-.683-1.523-1.523-1.523H732.45c-.84 0-1.523.683-1.523 1.523v8.147c0 .84.683 1.523 1.523 1.523h21.187z"/><path d="M758.625 48.159h21.187c1.896 0 3.438 1.542 3.438 3.438v8.147c0 1.896-1.542 3.438-3.438 3.438h-21.187c-1.896 0-3.438-1.542-3.438-3.438v-8.147c0-1.896 1.542-3.438 3.438-3.438zm21.188 13.109c.84 0 1.523-.683 1.523-1.523v-8.147c0-.84-.683-1.523-1.523-1.523h-21.187c-.84 0-1.523.683-1.523 1.523v8.147c0 .84.683 1.523 1.523 1.523h21.187zm-191.191 0h21.187c1.896 0 3.438 1.542 3.438 3.438v8.147c0 1.896-1.542 3.438-3.438 3.438h-21.187c-1.896 0-3.438-1.542-3.438-3.438v-8.147c0-1.896 1.542-3.438 3.438-3.438zm21.187 13.108c.84 0 1.523-.683 1.523-1.523v-8.147c0-.84-.683-1.523-1.523-1.523h-21.187c-.84 0-1.523.683-1.523 1.523v8.147c0 .84.683 1.523 1.523 1.523h21.187z"/><path d="M614.77 61.268h21.187c1.896 0 3.438 1.542 3.438 3.438v8.147c0 1.896-1.542 3.438-3.438 3.438H614.77c-1.895 0-3.437-1.542-3.437-3.438v-8.147c0-1.896 1.542-3.438 3.437-3.438zm21.187 13.108c.84 0 1.523-.683 1.523-1.523v-8.147c0-.84-.683-1.523-1.523-1.523H614.77c-.84 0-1.523.683-1.523 1.523v8.147c0 .84.683 1.523 1.523 1.523h21.187z"/><path d="M640.945 61.268h21.187c1.896 0 3.438 1.542 3.438 3.438v8.147c0 1.896-1.542 3.438-3.438 3.438h-21.187c-1.896 0-3.438-1.542-3.438-3.438v-8.147c0-1.896 1.542-3.438 3.438-3.438zm21.187 13.108c.84 0 1.523-.683 1.523-1.523v-8.147c0-.84-.683-1.523-1.523-1.523h-21.187c-.84 0-1.523.683-1.523 1.523v8.147c0 .84.683 1.523 1.523 1.523h21.187z"/><path d="M667.093,61.268h21.187c1.896,0,3.438,1.542,3.438,3.438v8.147c0,1.896-1.542,3.438-3.438,3.438h-21.187c-1.896,0-3.438-1.542-3.438-3.438v-8.147c0-1.896,1.542-3.438,3.438-3.438ZM688.28,74.376c.84,0,1.523-.683,1.523-1.523v-8.147c0-.84-.683-1.523-1.523-1.523h-21.187c-.84,0-1.523.683-1.523,1.523v8.147c0,.84.683,1.523,1.523,1.523h21.187Z"/><path d="M693.246 61.268h21.187c1.895 0 3.437 1.542 3.437 3.438v8.147c0 1.896-1.542 3.438-3.437 3.438h-21.187c-1.896 0-3.438-1.542-3.438-3.438v-8.147c0-1.896 1.542-3.438 3.438-3.438zm21.187 13.108c.84 0 1.523-.683 1.523-1.523v-8.147c0-.84-.683-1.523-1.523-1.523h-21.187c-.84 0-1.523.683-1.523 1.523v8.147c0 .84.683 1.523 1.523 1.523h21.187z"/><path d="M719.393 61.268h21.187c1.896 0 3.438 1.542 3.438 3.438v8.147c0 1.896-1.542 3.438-3.438 3.438h-21.187c-1.896 0-3.438-1.542-3.438-3.438v-8.147c0-1.896 1.542-3.438 3.438-3.438zm21.188 13.108c.84 0 1.523-.683 1.523-1.523v-8.147c0-.84-.683-1.523-1.523-1.523h-21.187c-.84 0-1.523.683-1.523 1.523v8.147c0 .84.683 1.523 1.523 1.523h21.187z"/><path d="M745.569 61.268h21.187c1.896 0 3.438 1.542 3.438 3.438v8.147c0 1.896-1.542 3.438-3.438 3.438h-21.187c-1.896 0-3.438-1.542-3.438-3.438v-8.147c0-1.896 1.542-3.438 3.438-3.438zm21.187 13.108c.84 0 1.523-.683 1.523-1.523v-8.147c0-.84-.683-1.523-1.523-1.523h-21.187c-.84 0-1.523.683-1.523 1.523v8.147c0 .84.683 1.523 1.523 1.523h21.187zM340.125-4.273h21.187c1.895 0 3.437 1.542 3.437 3.438v8.147c0 1.896-1.542 3.438-3.437 3.438h-21.187c-1.896 0-3.438-1.542-3.438-3.438V-.836c0-1.896 1.542-3.438 3.438-3.438zm21.187 13.108c.84 0 1.523-.683 1.523-1.523V-.836c0-.84-.683-1.523-1.523-1.523h-21.187c-.84 0-1.523.683-1.523 1.523v8.148c0 .84.683 1.523 1.523 1.523h21.187z"/><path d="M366.272-4.273h21.187c1.896,0,3.438,1.542,3.438,3.438V7.312c0,1.896-1.542,3.438-3.438,3.438h-21.187c-1.896,0-3.438-1.542-3.438-3.438V-.836c0-1.896,1.542-3.438,3.438-3.438ZM387.46,8.835c.84,0,1.523-.683,1.523-1.523V-.836c0-.84-.683-1.523-1.523-1.523h-21.187c-.84,0-1.523.683-1.523,1.523V7.312c0,.84.683,1.523,1.523,1.523h21.187Z"/><path d="M392.448-4.273h21.187c1.896,0,3.438,1.542,3.438,3.438V7.312c0,1.896-1.542,3.438-3.438,3.438h-21.187c-1.896,0-3.438-1.542-3.438-3.438V-.836c0-1.896,1.542-3.438,3.438-3.438ZM413.635,8.835c.84,0,1.523-.683,1.523-1.523V-.836c0-.84-.683-1.523-1.523-1.523h-21.187c-.84,0-1.523.683-1.523,1.523V7.312c0,.84.683,1.523,1.523,1.523h21.187Z"/><path d="M418.596-4.273h21.187c1.896,0,3.438,1.542,3.438,3.438V7.312c0,1.896-1.542,3.438-3.438,3.438h-21.187c-1.895,0-3.437-1.542-3.437-3.438V-.836c0-1.896,1.542-3.438,3.437-3.438ZM439.783,8.835c.84,0,1.523-.683,1.523-1.523V-.836c0-.84-.683-1.523-1.523-1.523h-21.187c-.84,0-1.523.683-1.523,1.523V7.312c0,.84.683,1.523,1.523,1.523h21.187Z"/><path d="M444.748-4.273h21.187c1.896,0,3.438,1.542,3.438,3.438V7.312c0,1.896-1.542,3.438-3.438,3.438h-21.187c-1.896,0-3.438-1.542-3.438-3.438V-.836c0-1.896,1.542-3.438,3.438-3.438ZM465.935,8.835c.84,0,1.523-.683,1.523-1.523V-.836c0-.84-.683-1.523-1.523-1.523h-21.187c-.84,0-1.523.683-1.523,1.523V7.312c0,.84.683,1.523,1.523,1.523h21.187Z"/><path d="M470.896-4.273h21.187c1.896,0,3.438,1.542,3.438,3.438V7.312c0,1.896-1.542,3.438-3.438,3.438h-21.187c-1.896,0-3.438-1.542-3.438-3.438V-.836c0-1.896,1.542-3.438,3.438-3.438ZM492.084,8.835c.84,0,1.523-.683,1.523-1.523V-.836c0-.84-.683-1.523-1.523-1.523h-21.187c-.84,0-1.523.683-1.523,1.523V7.312c0,.84.683,1.523,1.523,1.523h21.187Z"/><path d="M497.072-4.273h21.187c1.896,0,3.438,1.542,3.438,3.438V7.312c0,1.896-1.542,3.438-3.438,3.438h-21.187c-1.896,0-3.438-1.542-3.438-3.438V-.836c0-1.896,1.542-3.438,3.438-3.438ZM518.258,8.835c.84,0,1.523-.683,1.523-1.523V-.836c0-.84-.683-1.523-1.523-1.523h-21.187c-.84,0-1.523.683-1.523,1.523V7.312c0,.84.683,1.523,1.523,1.523h21.187Z"/><path d="M523.22-4.273h21.187c1.896 0 3.438 1.542 3.438 3.438v8.147c0 1.896-1.542 3.438-3.438 3.438H523.22c-1.896 0-3.438-1.542-3.438-3.438V-.836c0-1.896 1.542-3.438 3.438-3.438zm21.187 13.108c.84 0 1.523-.683 1.523-1.523V-.836c0-.84-.683-1.523-1.523-1.523H523.22c-.84 0-1.523.683-1.523 1.523v8.148c0 .84.683 1.523 1.523 1.523h21.187z"/><path d="M549.337-4.273h21.187c1.896,0,3.438,1.542,3.438,3.438V7.312c0,1.896-1.542,3.438-3.438,3.438h-21.187c-1.896,0-3.438-1.542-3.438-3.438V-.836c0-1.896,1.542-3.438,3.438-3.438ZM570.524,8.835c.84,0,1.523-.683,1.523-1.523V-.836c0-.84-.683-1.523-1.523-1.523h-21.187c-.84,0-1.523.683-1.523,1.523V7.312c0,.84.683,1.523,1.523,1.523h21.187Z"/><path d="M575.485-4.273h21.187c1.896 0 3.438 1.542 3.438 3.438v8.147c0 1.896-1.542 3.438-3.438 3.438h-21.187c-1.896 0-3.438-1.542-3.438-3.438V-.836c0-1.896 1.542-3.438 3.438-3.438zm21.187 13.108c.84 0 1.523-.683 1.523-1.523V-.836c0-.84-.683-1.523-1.523-1.523h-21.187c-.84 0-1.523.683-1.523 1.523v8.148c0 .84.683 1.523 1.523 1.523h21.187zm-269.604 0h21.187c1.896 0 3.438 1.542 3.438 3.438v8.147c0 1.896-1.542 3.438-3.438 3.438h-21.187c-1.896 0-3.438-1.542-3.438-3.438v-8.147c0-1.896 1.542-3.438 3.438-3.438zm21.187 13.108c.84 0 1.523-.683 1.523-1.523v-8.147c0-.84-.683-1.523-1.523-1.523h-21.187c-.84 0-1.523.683-1.523 1.523v8.147c0 .84.683 1.523 1.523 1.523h21.187z"/><path d="M353.216 8.835h21.187c1.896 0 3.438 1.542 3.438 3.438v8.147c0 1.896-1.542 3.438-3.438 3.438h-21.187c-1.896 0-3.438-1.542-3.438-3.438v-8.147c0-1.896 1.542-3.438 3.438-3.438zm21.187 13.108c.84 0 1.523-.683 1.523-1.523v-8.147c0-.84-.683-1.523-1.523-1.523h-21.187c-.84 0-1.523.683-1.523 1.523v8.147c0 .84.683 1.523 1.523 1.523h21.187zM588.577 8.835h21.187c1.896 0 3.438 1.542 3.438 3.438v8.147c0 1.896-1.542 3.438-3.438 3.438h-21.187c-1.896 0-3.438-1.542-3.438-3.438v-8.147c0-1.896 1.542-3.438 3.438-3.438zm21.187 13.108c.84 0 1.523-.683 1.523-1.523v-8.147c0-.84-.683-1.523-1.523-1.523h-21.187c-.84 0-1.523.683-1.523 1.523v8.147c0 .84.683 1.523 1.523 1.523h21.187z"/><use href="#K"/><use href="#L"/><use href="#M"/><use href="#N"/><path d="M484.015 8.835h21.187c1.896 0 3.438 1.542 3.438 3.438v8.147c0 1.896-1.542 3.438-3.438 3.438h-21.187c-1.896 0-3.438-1.542-3.438-3.438v-8.147c0-1.896 1.542-3.438 3.438-3.438zm21.187 13.108c.84 0 1.523-.683 1.523-1.523v-8.147c0-.84-.683-1.523-1.523-1.523h-21.187c-.84 0-1.523.683-1.523 1.523v8.147c0 .84.683 1.523 1.523 1.523h21.187z"/><path d="M510.163,8.835h21.187c1.896,0,3.438,1.542,3.438,3.438v8.147c0,1.896-1.542,3.438-3.438,3.438h-21.187c-1.896,0-3.438-1.542-3.438-3.438v-8.147c0-1.896,1.542-3.438,3.438-3.438ZM531.35,21.943c.84,0,1.523-.683,1.523-1.523v-8.147c0-.84-.683-1.523-1.523-1.523h-21.187c-.84,0-1.523.683-1.523,1.523v8.147c0,.84.683,1.523,1.523,1.523h21.187Z"/><use href="#O"/><path d="M562.429 8.835h21.187c1.896 0 3.438 1.542 3.438 3.438v8.147c0 1.896-1.542 3.438-3.438 3.438h-21.187c-1.896 0-3.438-1.542-3.438-3.438v-8.147c0-1.896 1.542-3.438 3.438-3.438zm21.187 13.108c.84 0 1.523-.683 1.523-1.523v-8.147c0-.84-.683-1.523-1.523-1.523h-21.187c-.84 0-1.523.683-1.523 1.523v8.147c0 .84.683 1.523 1.523 1.523h21.187zm-243.491 0h21.187c1.895 0 3.437 1.542 3.437 3.438v8.147c0 1.896-1.542 3.438-3.437 3.438h-21.187c-1.896 0-3.438-1.542-3.438-3.438v-8.147c0-1.896 1.542-3.438 3.438-3.438zm21.187 13.108c.84 0 1.523-.683 1.523-1.523v-8.147c0-.84-.683-1.523-1.523-1.523h-21.187c-.84 0-1.523.683-1.523 1.523v8.147c0 .84.683 1.523 1.523 1.523h21.187z"/><path d="M366.272,21.943h21.187c1.896,0,3.438,1.542,3.438,3.438v8.147c0,1.896-1.542,3.438-3.438,3.438h-21.187c-1.896,0-3.438-1.542-3.438-3.438v-8.147c0-1.896,1.542-3.438,3.438-3.438ZM387.46,35.051c.84,0,1.523-.683,1.523-1.523v-8.147c0-.84-.683-1.523-1.523-1.523h-21.187c-.84,0-1.523.683-1.523,1.523v8.147c0,.84.683,1.523,1.523,1.523h21.187Z"/><path d="M392.448 21.943h21.187c1.896 0 3.438 1.542 3.438 3.438v8.147c0 1.896-1.542 3.438-3.438 3.438h-21.187c-1.896 0-3.438-1.542-3.438-3.438v-8.147c0-1.896 1.542-3.438 3.438-3.438zm21.187 13.108c.84 0 1.523-.683 1.523-1.523v-8.147c0-.84-.683-1.523-1.523-1.523h-21.187c-.84 0-1.523.683-1.523 1.523v8.147c0 .84.683 1.523 1.523 1.523h21.187z"/><use href="#P"/><path d="M444.748 21.943h21.187c1.896 0 3.438 1.542 3.438 3.438v8.147c0 1.896-1.542 3.438-3.438 3.438h-21.187c-1.896 0-3.438-1.542-3.438-3.438v-8.147c0-1.896 1.542-3.438 3.438-3.438zm21.187 13.108c.84 0 1.523-.683 1.523-1.523v-8.147c0-.84-.683-1.523-1.523-1.523h-21.187c-.84 0-1.523.683-1.523 1.523v8.147c0 .84.683 1.523 1.523 1.523h21.187z"/><path d="M470.896 21.943h21.187c1.896 0 3.438 1.542 3.438 3.438v8.147c0 1.896-1.542 3.438-3.438 3.438h-21.187c-1.896 0-3.438-1.542-3.438-3.438v-8.147c0-1.896 1.542-3.438 3.438-3.438zm21.188 13.108c.84 0 1.523-.683 1.523-1.523v-8.147c0-.84-.683-1.523-1.523-1.523h-21.187c-.84 0-1.523.683-1.523 1.523v8.147c0 .84.683 1.523 1.523 1.523h21.187z"/><path d="M497.072 21.943h21.187c1.896 0 3.438 1.542 3.438 3.438v8.147c0 1.896-1.542 3.438-3.438 3.438h-21.187c-1.896 0-3.438-1.542-3.438-3.438v-8.147c0-1.896 1.542-3.438 3.438-3.438zm21.186 13.108c.84 0 1.523-.683 1.523-1.523v-8.147c0-.84-.683-1.523-1.523-1.523h-21.187c-.84 0-1.523.683-1.523 1.523v8.147c0 .84.683 1.523 1.523 1.523h21.187z"/><path d="M523.22 21.943h21.187c1.896 0 3.438 1.542 3.438 3.438v8.147c0 1.896-1.542 3.438-3.438 3.438H523.22c-1.896 0-3.438-1.542-3.438-3.438v-8.147c0-1.896 1.542-3.438 3.438-3.438zm21.187 13.108c.84 0 1.523-.683 1.523-1.523v-8.147c0-.84-.683-1.523-1.523-1.523H523.22c-.84 0-1.523.683-1.523 1.523v8.147c0 .84.683 1.523 1.523 1.523h21.187z"/><path d="M549.337 21.943h21.187c1.896 0 3.438 1.542 3.438 3.438v8.147c0 1.896-1.542 3.438-3.438 3.438h-21.187c-1.896 0-3.438-1.542-3.438-3.438v-8.147c0-1.896 1.542-3.438 3.438-3.438zm21.187 13.108c.84 0 1.523-.683 1.523-1.523v-8.147c0-.84-.683-1.523-1.523-1.523h-21.187c-.84 0-1.523.683-1.523 1.523v8.147c0 .84.683 1.523 1.523 1.523h21.187z"/><path d="M575.485 21.943h21.187c1.896 0 3.438 1.542 3.438 3.438v8.147c0 1.896-1.542 3.438-3.438 3.438h-21.187c-1.896 0-3.438-1.542-3.438-3.438v-8.147c0-1.896 1.542-3.438 3.438-3.438zm21.187 13.108c.84 0 1.523-.683 1.523-1.523v-8.147c0-.84-.683-1.523-1.523-1.523h-21.187c-.84 0-1.523.683-1.523 1.523v8.147c0 .84.683 1.523 1.523 1.523h21.187zm-269.604 0h21.187c1.896 0 3.438 1.542 3.438 3.438v8.147c0 1.896-1.542 3.438-3.438 3.438h-21.187c-1.896 0-3.438-1.542-3.438-3.438v-8.147c0-1.896 1.542-3.438 3.438-3.438zm21.187 13.108c.84 0 1.523-.683 1.523-1.523v-8.147c0-.84-.683-1.523-1.523-1.523h-21.187c-.84 0-1.523.683-1.523 1.523v8.147c0 .84.683 1.523 1.523 1.523h21.187z"/><path d="M353.216 35.051h21.187c1.896 0 3.438 1.542 3.438 3.438v8.147c0 1.896-1.542 3.438-3.438 3.438h-21.187c-1.896 0-3.438-1.542-3.438-3.438v-8.147c0-1.896 1.542-3.438 3.438-3.438zm21.187 13.108c.84 0 1.523-.683 1.523-1.523v-8.147c0-.84-.683-1.523-1.523-1.523h-21.187c-.84 0-1.523.683-1.523 1.523v8.147c0 .84.683 1.523 1.523 1.523h21.187zm214.174-13.108h21.187c1.896 0 3.438 1.542 3.438 3.438v8.147c0 1.896-1.542 3.438-3.438 3.438h-21.187c-1.896 0-3.438-1.542-3.438-3.438v-8.147c0-1.896 1.542-3.438 3.438-3.438zm21.187 13.108c.84 0 1.523-.683 1.523-1.523v-8.147c0-.84-.683-1.523-1.523-1.523h-21.187c-.84 0-1.523.683-1.523 1.523v8.147c0 .84.683 1.523 1.523 1.523h21.187z"/><path d="M379.391 35.051h21.187c1.895 0 3.437 1.542 3.437 3.438v8.147c0 1.896-1.542 3.438-3.437 3.438h-21.187c-1.896 0-3.438-1.542-3.438-3.438v-8.147c0-1.896 1.542-3.438 3.438-3.438zm21.188 13.108c.84 0 1.523-.683 1.523-1.523v-8.147c0-.84-.683-1.523-1.523-1.523h-21.187c-.84 0-1.523.683-1.523 1.523v8.147c0 .84.683 1.523 1.523 1.523h21.187z"/><path d="M405.539 35.051h21.187c1.896 0 3.438 1.542 3.438 3.438v8.147c0 1.896-1.542 3.438-3.438 3.438h-21.187c-1.896 0-3.438-1.542-3.438-3.438v-8.147c0-1.896 1.542-3.438 3.438-3.438zm21.188 13.108c.84 0 1.523-.683 1.523-1.523v-8.147c0-.84-.683-1.523-1.523-1.523H405.54c-.84 0-1.523.683-1.523 1.523v8.147c0 .84.683 1.523 1.523 1.523h21.187z"/><path d="M431.691 35.051h21.187c1.896 0 3.438 1.542 3.438 3.438v8.147c0 1.896-1.542 3.438-3.438 3.438h-21.187c-1.895 0-3.437-1.542-3.437-3.438v-8.147c0-1.896 1.542-3.438 3.437-3.438zm21.188 13.108c.84 0 1.523-.683 1.523-1.523v-8.147c0-.84-.683-1.523-1.523-1.523h-21.187c-.84 0-1.523.683-1.523 1.523v8.147c0 .84.683 1.523 1.523 1.523h21.187z"/><path d="M457.84 35.051h21.187c1.896 0 3.438 1.542 3.438 3.438v8.147c0 1.896-1.542 3.438-3.438 3.438H457.84c-1.896 0-3.438-1.542-3.438-3.438v-8.147c0-1.896 1.542-3.438 3.438-3.438zm21.187 13.108c.84 0 1.523-.683 1.523-1.523v-8.147c0-.84-.683-1.523-1.523-1.523H457.84c-.84 0-1.523.683-1.523 1.523v8.147c0 .84.683 1.523 1.523 1.523h21.187z"/><path d="M484.015 35.051h21.187c1.896 0 3.438 1.542 3.438 3.438v8.147c0 1.896-1.542 3.438-3.438 3.438h-21.187c-1.896 0-3.438-1.542-3.438-3.438v-8.147c0-1.896 1.542-3.438 3.438-3.438zm21.187 13.108c.84 0 1.523-.683 1.523-1.523v-8.147c0-.84-.683-1.523-1.523-1.523h-21.187c-.84 0-1.523.683-1.523 1.523v8.147c0 .84.683 1.523 1.523 1.523h21.187z"/><path d="M510.163,35.051h21.187c1.896,0,3.438,1.542,3.438,3.438v8.147c0,1.896-1.542,3.438-3.438,3.438h-21.187c-1.896,0-3.438-1.542-3.438-3.438v-8.147c0-1.896,1.542-3.438,3.438-3.438ZM531.35,48.159c.84,0,1.523-.683,1.523-1.523v-8.147c0-.84-.683-1.523-1.523-1.523h-21.187c-.84,0-1.523.683-1.523,1.523v8.147c0,.84.683,1.523,1.523,1.523h21.187Z"/><path d="M536.28 35.051h21.187c1.896 0 3.438 1.542 3.438 3.438v8.147c0 1.896-1.542 3.438-3.438 3.438H536.28c-1.896 0-3.438-1.542-3.438-3.438v-8.147c0-1.896 1.542-3.438 3.438-3.438zm21.188 13.108c.84 0 1.523-.683 1.523-1.523v-8.147c0-.84-.683-1.523-1.523-1.523h-21.187c-.84 0-1.523.683-1.523 1.523v8.147c0 .84.683 1.523 1.523 1.523h21.187z"/><path d="M562.429 35.051h21.187c1.896 0 3.438 1.542 3.438 3.438v8.147c0 1.896-1.542 3.438-3.438 3.438h-21.187c-1.896 0-3.438-1.542-3.438-3.438v-8.147c0-1.896 1.542-3.438 3.438-3.438zm21.187 13.108c.84 0 1.523-.683 1.523-1.523v-8.147c0-.84-.683-1.523-1.523-1.523h-21.187c-.84 0-1.523.683-1.523 1.523v8.147c0 .84.683 1.523 1.523 1.523h21.187zm-243.491 0h21.187c1.895 0 3.437 1.542 3.437 3.438v8.147c0 1.896-1.542 3.438-3.437 3.438h-21.187c-1.896 0-3.438-1.542-3.438-3.438v-8.147c0-1.896 1.542-3.438 3.438-3.438zm21.187 13.109c.84 0 1.523-.683 1.523-1.523v-8.147c0-.84-.683-1.523-1.523-1.523h-21.187c-.84 0-1.523.683-1.523 1.523v8.147c0 .84.683 1.523 1.523 1.523h21.187z"/><path d="M366.272,48.159h21.187c1.896,0,3.438,1.542,3.438,3.438v8.147c0,1.896-1.542,3.438-3.438,3.438h-21.187c-1.896,0-3.438-1.542-3.438-3.438v-8.147c0-1.896,1.542-3.438,3.438-3.438ZM387.46,61.268c.84,0,1.523-.683,1.523-1.523v-8.147c0-.84-.683-1.523-1.523-1.523h-21.187c-.84,0-1.523.683-1.523,1.523v8.147c0,.84.683,1.523,1.523,1.523h21.187Z"/><path d="M392.448 48.159h21.187c1.896 0 3.438 1.542 3.438 3.438v8.147c0 1.896-1.542 3.438-3.438 3.438h-21.187c-1.896 0-3.438-1.542-3.438-3.438v-8.147c0-1.896 1.542-3.438 3.438-3.438zm21.187 13.109c.84 0 1.523-.683 1.523-1.523v-8.147c0-.84-.683-1.523-1.523-1.523h-21.187c-.84 0-1.523.683-1.523 1.523v8.147c0 .84.683 1.523 1.523 1.523h21.187z"/><use href="#Q"/><path d="M444.748 48.159h21.187c1.896 0 3.438 1.542 3.438 3.438v8.147c0 1.896-1.542 3.438-3.438 3.438h-21.187c-1.896 0-3.438-1.542-3.438-3.438v-8.147c0-1.896 1.542-3.438 3.438-3.438zm21.187 13.109c.84 0 1.523-.683 1.523-1.523v-8.147c0-.84-.683-1.523-1.523-1.523h-21.187c-.84 0-1.523.683-1.523 1.523v8.147c0 .84.683 1.523 1.523 1.523h21.187z"/><path d="M470.896 48.159h21.187c1.896 0 3.438 1.542 3.438 3.438v8.147c0 1.896-1.542 3.438-3.438 3.438h-21.187c-1.896 0-3.438-1.542-3.438-3.438v-8.147c0-1.896 1.542-3.438 3.438-3.438zm21.188 13.109c.84 0 1.523-.683 1.523-1.523v-8.147c0-.84-.683-1.523-1.523-1.523h-21.187c-.84 0-1.523.683-1.523 1.523v8.147c0 .84.683 1.523 1.523 1.523h21.187z"/><path d="M497.072 48.159h21.187c1.896 0 3.438 1.542 3.438 3.438v8.147c0 1.896-1.542 3.438-3.438 3.438h-21.187c-1.896 0-3.438-1.542-3.438-3.438v-8.147c0-1.896 1.542-3.438 3.438-3.438zm21.186 13.109c.84 0 1.523-.683 1.523-1.523v-8.147c0-.84-.683-1.523-1.523-1.523h-21.187c-.84 0-1.523.683-1.523 1.523v8.147c0 .84.683 1.523 1.523 1.523h21.187z"/><path d="M523.22 48.159h21.187c1.896 0 3.438 1.542 3.438 3.438v8.147c0 1.896-1.542 3.438-3.438 3.438H523.22c-1.896 0-3.438-1.542-3.438-3.438v-8.147c0-1.896 1.542-3.438 3.438-3.438zm21.187 13.109c.84 0 1.523-.683 1.523-1.523v-8.147c0-.84-.683-1.523-1.523-1.523H523.22c-.84 0-1.523.683-1.523 1.523v8.147c0 .84.683 1.523 1.523 1.523h21.187z"/><path d="M549.337 48.159h21.187c1.896 0 3.438 1.542 3.438 3.438v8.147c0 1.896-1.542 3.438-3.438 3.438h-21.187c-1.896 0-3.438-1.542-3.438-3.438v-8.147c0-1.896 1.542-3.438 3.438-3.438zm21.187 13.109c.84 0 1.523-.683 1.523-1.523v-8.147c0-.84-.683-1.523-1.523-1.523h-21.187c-.84 0-1.523.683-1.523 1.523v8.147c0 .84.683 1.523 1.523 1.523h21.187z"/><path d="M575.485 48.159h21.187c1.896 0 3.438 1.542 3.438 3.438v8.147c0 1.896-1.542 3.438-3.438 3.438h-21.187c-1.896 0-3.438-1.542-3.438-3.438v-8.147c0-1.896 1.542-3.438 3.438-3.438zm21.187 13.109c.84 0 1.523-.683 1.523-1.523v-8.147c0-.84-.683-1.523-1.523-1.523h-21.187c-.84 0-1.523.683-1.523 1.523v8.147c0 .84.683 1.523 1.523 1.523h21.187zm-269.604 0h21.187c1.896 0 3.438 1.542 3.438 3.438v8.147c0 1.896-1.542 3.438-3.438 3.438h-21.187c-1.896 0-3.438-1.542-3.438-3.438v-8.147c0-1.896 1.542-3.438 3.438-3.438zm21.187 13.108c.84 0 1.523-.683 1.523-1.523v-8.147c0-.84-.683-1.523-1.523-1.523h-21.187c-.84 0-1.523.683-1.523 1.523v8.147c0 .84.683 1.523 1.523 1.523h21.187z"/><path d="M353.216 61.268h21.187c1.896 0 3.438 1.542 3.438 3.438v8.147c0 1.896-1.542 3.438-3.438 3.438h-21.187c-1.896 0-3.438-1.542-3.438-3.438v-8.147c0-1.896 1.542-3.438 3.438-3.438zm21.187 13.108c.84 0 1.523-.683 1.523-1.523v-8.147c0-.84-.683-1.523-1.523-1.523h-21.187c-.84 0-1.523.683-1.523 1.523v8.147c0 .84.683 1.523 1.523 1.523h21.187zm214.174-13.108h21.187c1.896 0 3.438 1.542 3.438 3.438v8.147c0 1.896-1.542 3.438-3.438 3.438h-21.187c-1.896 0-3.438-1.542-3.438-3.438v-8.147c0-1.896 1.542-3.438 3.438-3.438zm21.187 13.108c.84 0 1.523-.683 1.523-1.523v-8.147c0-.84-.683-1.523-1.523-1.523h-21.187c-.84 0-1.523.683-1.523 1.523v8.147c0 .84.683 1.523 1.523 1.523h21.187z"/><path d="M379.391 61.268h21.187c1.895 0 3.437 1.542 3.437 3.438v8.147c0 1.896-1.542 3.438-3.437 3.438h-21.187c-1.896 0-3.438-1.542-3.438-3.438v-8.147c0-1.896 1.542-3.438 3.438-3.438zm21.188 13.108c.84 0 1.523-.683 1.523-1.523v-8.147c0-.84-.683-1.523-1.523-1.523h-21.187c-.84 0-1.523.683-1.523 1.523v8.147c0 .84.683 1.523 1.523 1.523h21.187z"/><path d="M405.539 61.268h21.187c1.896 0 3.438 1.542 3.438 3.438v8.147c0 1.896-1.542 3.438-3.438 3.438h-21.187c-1.896 0-3.438-1.542-3.438-3.438v-8.147c0-1.896 1.542-3.438 3.438-3.438zm21.188 13.108c.84 0 1.523-.683 1.523-1.523v-8.147c0-.84-.683-1.523-1.523-1.523H405.54c-.84 0-1.523.683-1.523 1.523v8.147c0 .84.683 1.523 1.523 1.523h21.187z"/><path d="M431.691 61.268h21.187c1.896 0 3.438 1.542 3.438 3.438v8.147c0 1.896-1.542 3.438-3.438 3.438h-21.187c-1.895 0-3.437-1.542-3.437-3.438v-8.147c0-1.896 1.542-3.438 3.437-3.438zm21.188 13.108c.84 0 1.523-.683 1.523-1.523v-8.147c0-.84-.683-1.523-1.523-1.523h-21.187c-.84 0-1.523.683-1.523 1.523v8.147c0 .84.683 1.523 1.523 1.523h21.187z"/><path d="M457.84 61.268h21.187c1.896 0 3.438 1.542 3.438 3.438v8.147c0 1.896-1.542 3.438-3.438 3.438H457.84c-1.896 0-3.438-1.542-3.438-3.438v-8.147c0-1.896 1.542-3.438 3.438-3.438zm21.187 13.108c.84 0 1.523-.683 1.523-1.523v-8.147c0-.84-.683-1.523-1.523-1.523H457.84c-.84 0-1.523.683-1.523 1.523v8.147c0 .84.683 1.523 1.523 1.523h21.187z"/><path d="M484.015 61.268h21.187c1.896 0 3.438 1.542 3.438 3.438v8.147c0 1.896-1.542 3.438-3.438 3.438h-21.187c-1.896 0-3.438-1.542-3.438-3.438v-8.147c0-1.896 1.542-3.438 3.438-3.438zm21.187 13.108c.84 0 1.523-.683 1.523-1.523v-8.147c0-.84-.683-1.523-1.523-1.523h-21.187c-.84 0-1.523.683-1.523 1.523v8.147c0 .84.683 1.523 1.523 1.523h21.187z"/><path d="M510.163,61.268h21.187c1.896,0,3.438,1.542,3.438,3.438v8.147c0,1.896-1.542,3.438-3.438,3.438h-21.187c-1.896,0-3.438-1.542-3.438-3.438v-8.147c0-1.896,1.542-3.438,3.438-3.438ZM531.35,74.376c.84,0,1.523-.683,1.523-1.523v-8.147c0-.84-.683-1.523-1.523-1.523h-21.187c-.84,0-1.523.683-1.523,1.523v8.147c0,.84.683,1.523,1.523,1.523h21.187Z"/><path d="M536.28 61.268h21.187c1.896 0 3.438 1.542 3.438 3.438v8.147c0 1.896-1.542 3.438-3.438 3.438H536.28c-1.896 0-3.438-1.542-3.438-3.438v-8.147c0-1.896 1.542-3.438 3.438-3.438zm21.188 13.108c.84 0 1.523-.683 1.523-1.523v-8.147c0-.84-.683-1.523-1.523-1.523h-21.187c-.84 0-1.523.683-1.523 1.523v8.147c0 .84.683 1.523 1.523 1.523h21.187z"/><path d="M562.429 61.268h21.187c1.896 0 3.438 1.542 3.438 3.438v8.147c0 1.896-1.542 3.438-3.438 3.438h-21.187c-1.896 0-3.438-1.542-3.438-3.438v-8.147c0-1.896 1.542-3.438 3.438-3.438zm21.187 13.108c.84 0 1.523-.683 1.523-1.523v-8.147c0-.84-.683-1.523-1.523-1.523h-21.187c-.84 0-1.523.683-1.523 1.523v8.147c0 .84.683 1.523 1.523 1.523h21.187zM78.611-4.273h21.187c1.896 0 3.438 1.542 3.438 3.438v8.147c0 1.896-1.542 3.438-3.438 3.438H78.611c-1.896 0-3.438-1.542-3.438-3.438V-.836c0-1.896 1.542-3.438 3.438-3.438zM99.799 8.835c.84 0 1.523-.683 1.523-1.523V-.836c0-.84-.683-1.523-1.523-1.523H78.612c-.84 0-1.523.683-1.523 1.523v8.148c0 .84.683 1.523 1.523 1.523h21.187z"/><path d="M104.76-4.273h21.187c1.896 0 3.438 1.542 3.438 3.438v8.147c0 1.896-1.542 3.438-3.438 3.438H104.76c-1.896 0-3.438-1.542-3.438-3.438V-.836c0-1.896 1.542-3.438 3.438-3.438zm21.187 13.108c.84 0 1.523-.683 1.523-1.523V-.836c0-.84-.683-1.523-1.523-1.523H104.76c-.84 0-1.523.683-1.523 1.523v8.148c0 .84.683 1.523 1.523 1.523h21.187z"/><path d="M130.935-4.273h21.187c1.896,0,3.438,1.542,3.438,3.438V7.312c0,1.896-1.542,3.438-3.438,3.438h-21.187c-1.896,0-3.438-1.542-3.438-3.438V-.836c0-1.896,1.542-3.438,3.438-3.438ZM152.122,8.835c.84,0,1.523-.683,1.523-1.523V-.836c0-.84-.683-1.523-1.523-1.523h-21.187c-.84,0-1.523.683-1.523,1.523V7.312c0,.84.683,1.523,1.523,1.523h21.187Z"/><path d="M157.083-4.273h21.187c1.896,0,3.438,1.542,3.438,3.438V7.312c0,1.896-1.542,3.438-3.438,3.438h-21.187c-1.896,0-3.438-1.542-3.438-3.438V-.836c0-1.896,1.542-3.438,3.438-3.438ZM178.27,8.835c.84,0,1.523-.683,1.523-1.523V-.836c0-.84-.683-1.523-1.523-1.523h-21.187c-.84,0-1.523.683-1.523,1.523V7.312c0,.84.683,1.523,1.523,1.523h21.187Z"/><path d="M183.235-4.273h21.187c1.896,0,3.438,1.542,3.438,3.438V7.312c0,1.896-1.542,3.438-3.438,3.438h-21.187c-1.896,0-3.438-1.542-3.438-3.438V-.836c0-1.896,1.542-3.438,3.438-3.438ZM204.423,8.835c.84,0,1.523-.683,1.523-1.523V-.836c0-.84-.683-1.523-1.523-1.523h-21.187c-.84,0-1.523.683-1.523,1.523V7.312c0,.84.683,1.523,1.523,1.523h21.187Z"/><path d="M209.383-4.273h21.187c1.896,0,3.438,1.542,3.438,3.438V7.312c0,1.896-1.542,3.438-3.438,3.438h-21.187c-1.895,0-3.437-1.542-3.437-3.438V-.836c0-1.896,1.542-3.438,3.437-3.438ZM230.571,8.835c.84,0,1.523-.683,1.523-1.523V-.836c0-.84-.683-1.523-1.523-1.523h-21.187c-.84,0-1.523.683-1.523,1.523V7.312c0,.84.683,1.523,1.523,1.523h21.187Z"/><path d="M235.559-4.273h21.187c1.896,0,3.438,1.542,3.438,3.438V7.312c0,1.896-1.542,3.438-3.438,3.438h-21.187c-1.896,0-3.438-1.542-3.438-3.438V-.836c0-1.896,1.542-3.438,3.438-3.438ZM256.746,8.835c.84,0,1.523-.683,1.523-1.523V-.836c0-.84-.683-1.523-1.523-1.523h-21.187c-.84,0-1.523.683-1.523,1.523V7.312c0,.84.683,1.523,1.523,1.523h21.187Z"/><path d="M261.706-4.273h21.187c1.896,0,3.438,1.542,3.438,3.438V7.312c0,1.896-1.542,3.438-3.438,3.438h-21.187c-1.895,0-3.437-1.542-3.437-3.438V-.836c0-1.896,1.542-3.438,3.437-3.438ZM282.894,8.835c.84,0,1.523-.683,1.523-1.523V-.836c0-.84-.683-1.523-1.523-1.523h-21.187c-.84,0-1.523.683-1.523,1.523V7.312c0,.84.683,1.523,1.523,1.523h21.187Z"/><path d="M287.824-4.273h21.187c1.896,0,3.438,1.542,3.438,3.438V7.312c0,1.896-1.542,3.438-3.438,3.438h-21.187c-1.896,0-3.438-1.542-3.438-3.438V-.836c0-1.896,1.542-3.438,3.438-3.438ZM309.011,8.835c.84,0,1.523-.683,1.523-1.523V-.836c0-.84-.683-1.523-1.523-1.523h-21.187c-.84,0-1.523.683-1.523,1.523V7.312c0,.84.683,1.523,1.523,1.523h21.187Z"/><path d="M313.972-4.273h21.187c1.896,0,3.438,1.542,3.438,3.438V7.312c0,1.896-1.542,3.438-3.438,3.438h-21.187c-1.896,0-3.438-1.542-3.438-3.438V-.836c0-1.896,1.542-3.438,3.438-3.438ZM335.16,8.835c.84,0,1.523-.683,1.523-1.523V-.836c0-.84-.683-1.523-1.523-1.523h-21.187c-.84,0-1.523.683-1.523,1.523V7.312c0,.84.683,1.523,1.523,1.523h21.187Z"/><use href="#R"/><use href="#S"/><path d="M327.064 8.835h21.187c1.896 0 3.438 1.542 3.438 3.438v8.147c0 1.896-1.542 3.438-3.438 3.438h-21.187c-1.896 0-3.438-1.542-3.438-3.438v-8.147c0-1.896 1.542-3.438 3.438-3.438zm21.187 13.108c.84 0 1.523-.683 1.523-1.523v-8.147c0-.84-.683-1.523-1.523-1.523h-21.187c-.84 0-1.523.683-1.523 1.523v8.147c0 .84.683 1.523 1.523 1.523h21.187zM117.878 8.835h21.187c1.896 0 3.438 1.542 3.438 3.438v8.147c0 1.896-1.542 3.438-3.438 3.438h-21.187c-1.896 0-3.438-1.542-3.438-3.438v-8.147c0-1.896 1.542-3.438 3.438-3.438zm21.188 13.108c.84 0 1.523-.683 1.523-1.523v-8.147c0-.84-.683-1.523-1.523-1.523h-21.187c-.84 0-1.523.683-1.523 1.523v8.147c0 .84.683 1.523 1.523 1.523h21.187z"/><path d="M144.027 8.835h21.187c1.896 0 3.438 1.542 3.438 3.438v8.147c0 1.896-1.542 3.438-3.438 3.438h-21.187c-1.896 0-3.438-1.542-3.438-3.438v-8.147c0-1.896 1.542-3.438 3.438-3.438zm21.186 13.108c.84 0 1.523-.683 1.523-1.523v-8.147c0-.84-.683-1.523-1.523-1.523h-21.187c-.84 0-1.523.683-1.523 1.523v8.147c0 .84.683 1.523 1.523 1.523h21.187z"/><path d="M170.179 8.835h21.187c1.895 0 3.437 1.542 3.437 3.438v8.147c0 1.896-1.542 3.438-3.437 3.438h-21.187c-1.896 0-3.438-1.542-3.438-3.438v-8.147c0-1.896 1.542-3.438 3.438-3.438zm21.187 13.108c.84 0 1.523-.683 1.523-1.523v-8.147c0-.84-.683-1.523-1.523-1.523h-21.187c-.84 0-1.523.683-1.523 1.523v8.147c0 .84.683 1.523 1.523 1.523h21.187z"/><path d="M196.327 8.835h21.187c1.896 0 3.438 1.542 3.438 3.438v8.147c0 1.896-1.542 3.438-3.438 3.438h-21.187c-1.896 0-3.438-1.542-3.438-3.438v-8.147c0-1.896 1.542-3.438 3.438-3.438zm21.187 13.108c.84 0 1.523-.683 1.523-1.523v-8.147c0-.84-.683-1.523-1.523-1.523h-21.187c-.84 0-1.523.683-1.523 1.523v8.147c0 .84.683 1.523 1.523 1.523h21.187z"/><path d="M222.502 8.835h21.187c1.895 0 3.437 1.542 3.437 3.438v8.147c0 1.896-1.542 3.438-3.437 3.438h-21.187c-1.896 0-3.438-1.542-3.438-3.438v-8.147c0-1.896 1.542-3.438 3.438-3.438zm21.187 13.108c.84 0 1.523-.683 1.523-1.523v-8.147c0-.84-.683-1.523-1.523-1.523h-21.187c-.84 0-1.523.683-1.523 1.523v8.147c0 .84.683 1.523 1.523 1.523h21.187z"/><use href="#T"/><path d="M274.767 8.835h21.187c1.896 0 3.438 1.542 3.438 3.438v8.147c0 1.896-1.542 3.438-3.438 3.438h-21.187c-1.896 0-3.438-1.542-3.438-3.438v-8.147c0-1.896 1.542-3.438 3.438-3.438zm21.188 13.108c.84 0 1.523-.683 1.523-1.523v-8.147c0-.84-.683-1.523-1.523-1.523h-21.187c-.84 0-1.523.683-1.523 1.523v8.147c0 .84.683 1.523 1.523 1.523h21.187z"/><path d="M300.916 8.835h21.187c1.895 0 3.437 1.542 3.437 3.438v8.147c0 1.896-1.542 3.438-3.437 3.438h-21.187c-1.896 0-3.438-1.542-3.438-3.438v-8.147c0-1.896 1.542-3.438 3.438-3.438zm21.187 13.108c.84 0 1.523-.683 1.523-1.523v-8.147c0-.84-.683-1.523-1.523-1.523h-21.187c-.84 0-1.523.683-1.523 1.523v8.147c0 .84.683 1.523 1.523 1.523h21.187zm-243.492 0h21.187c1.896 0 3.438 1.542 3.438 3.438v8.147c0 1.896-1.542 3.438-3.438 3.438H78.611c-1.896 0-3.438-1.542-3.438-3.438v-8.147c0-1.896 1.542-3.438 3.438-3.438zm21.188 13.108c.84 0 1.523-.683 1.523-1.523v-8.147c0-.84-.683-1.523-1.523-1.523H78.612c-.84 0-1.523.683-1.523 1.523v8.147c0 .84.683 1.523 1.523 1.523h21.187z"/><path d="M104.76 21.943h21.187c1.896 0 3.438 1.542 3.438 3.438v8.147c0 1.896-1.542 3.438-3.438 3.438H104.76c-1.896 0-3.438-1.542-3.438-3.438v-8.147c0-1.896 1.542-3.438 3.438-3.438zm21.187 13.108c.84 0 1.523-.683 1.523-1.523v-8.147c0-.84-.683-1.523-1.523-1.523H104.76c-.84 0-1.523.683-1.523 1.523v8.147c0 .84.683 1.523 1.523 1.523h21.187z"/><path d="M130.935 21.943h21.187c1.896 0 3.438 1.542 3.438 3.438v8.147c0 1.896-1.542 3.438-3.438 3.438h-21.187c-1.896 0-3.438-1.542-3.438-3.438v-8.147c0-1.896 1.542-3.438 3.438-3.438zm21.187 13.108c.84 0 1.523-.683 1.523-1.523v-8.147c0-.84-.683-1.523-1.523-1.523h-21.187c-.84 0-1.523.683-1.523 1.523v8.147c0 .84.683 1.523 1.523 1.523h21.187z"/><path d="M157.083,21.943h21.187c1.896,0,3.438,1.542,3.438,3.438v8.147c0,1.896-1.542,3.438-3.438,3.438h-21.187c-1.896,0-3.438-1.542-3.438-3.438v-8.147c0-1.896,1.542-3.438,3.438-3.438ZM178.27,35.051c.84,0,1.523-.683,1.523-1.523v-8.147c0-.84-.683-1.523-1.523-1.523h-21.187c-.84,0-1.523.683-1.523,1.523v8.147c0,.84.683,1.523,1.523,1.523h21.187Z"/><path d="M183.235 21.943h21.187c1.896 0 3.438 1.542 3.438 3.438v8.147c0 1.896-1.542 3.438-3.438 3.438h-21.187c-1.896 0-3.438-1.542-3.438-3.438v-8.147c0-1.896 1.542-3.438 3.438-3.438zm21.188 13.108c.84 0 1.523-.683 1.523-1.523v-8.147c0-.84-.683-1.523-1.523-1.523h-21.187c-.84 0-1.523.683-1.523 1.523v8.147c0 .84.683 1.523 1.523 1.523h21.187z"/><path d="M209.383 21.943h21.187c1.896 0 3.438 1.542 3.438 3.438v8.147c0 1.896-1.542 3.438-3.438 3.438h-21.187c-1.895 0-3.437-1.542-3.437-3.438v-8.147c0-1.896 1.542-3.438 3.437-3.438zm21.188 13.108c.84 0 1.523-.683 1.523-1.523v-8.147c0-.84-.683-1.523-1.523-1.523h-21.187c-.84 0-1.523.683-1.523 1.523v8.147c0 .84.683 1.523 1.523 1.523h21.187z"/><path d="M235.559 21.943h21.187c1.896 0 3.438 1.542 3.438 3.438v8.147c0 1.896-1.542 3.438-3.438 3.438h-21.187c-1.896 0-3.438-1.542-3.438-3.438v-8.147c0-1.896 1.542-3.438 3.438-3.438zm21.187 13.108c.84 0 1.523-.683 1.523-1.523v-8.147c0-.84-.683-1.523-1.523-1.523h-21.187c-.84 0-1.523.683-1.523 1.523v8.147c0 .84.683 1.523 1.523 1.523h21.187z"/><path d="M261.706 21.943h21.187c1.896 0 3.438 1.542 3.438 3.438v8.147c0 1.896-1.542 3.438-3.438 3.438h-21.187c-1.895 0-3.437-1.542-3.437-3.438v-8.147c0-1.896 1.542-3.438 3.437-3.438zm21.188 13.108c.84 0 1.523-.683 1.523-1.523v-8.147c0-.84-.683-1.523-1.523-1.523h-21.187c-.84 0-1.523.683-1.523 1.523v8.147c0 .84.683 1.523 1.523 1.523h21.187z"/><path d="M287.824 21.943h21.187c1.896 0 3.438 1.542 3.438 3.438v8.147c0 1.896-1.542 3.438-3.438 3.438h-21.187c-1.896 0-3.438-1.542-3.438-3.438v-8.147c0-1.896 1.542-3.438 3.438-3.438zm21.187 13.108c.84 0 1.523-.683 1.523-1.523v-8.147c0-.84-.683-1.523-1.523-1.523h-21.187c-.84 0-1.523.683-1.523 1.523v8.147c0 .84.683 1.523 1.523 1.523h21.187z"/><path d="M313.972 21.943h21.187c1.896 0 3.438 1.542 3.438 3.438v8.147c0 1.896-1.542 3.438-3.438 3.438h-21.187c-1.896 0-3.438-1.542-3.438-3.438v-8.147c0-1.896 1.542-3.438 3.438-3.438zm21.188 13.108c.84 0 1.523-.683 1.523-1.523v-8.147c0-.84-.683-1.523-1.523-1.523h-21.187c-.84 0-1.523.683-1.523 1.523v8.147c0 .84.683 1.523 1.523 1.523h21.187zm-269.605 0h21.187c1.896 0 3.438 1.542 3.438 3.438v8.147c0 1.896-1.542 3.438-3.438 3.438H65.555c-1.896 0-3.438-1.542-3.438-3.438v-8.147c0-1.896 1.542-3.438 3.438-3.438zm21.187 13.108c.84 0 1.523-.683 1.523-1.523v-8.147c0-.84-.683-1.523-1.523-1.523H65.555c-.84 0-1.523.683-1.523 1.523v8.147c0 .84.683 1.523 1.523 1.523h21.187z"/><path d="M91.703 35.051h21.187c1.896 0 3.438 1.542 3.438 3.438v8.147c0 1.896-1.542 3.438-3.438 3.438H91.703c-1.895 0-3.437-1.542-3.437-3.438v-8.147c0-1.896 1.542-3.438 3.437-3.438zm21.187 13.108c.84 0 1.523-.683 1.523-1.523v-8.147c0-.84-.683-1.523-1.523-1.523H91.703c-.84 0-1.523.683-1.523 1.523v8.147c0 .84.683 1.523 1.523 1.523h21.187zm214.174-13.108h21.187c1.896 0 3.438 1.542 3.438 3.438v8.147c0 1.896-1.542 3.438-3.438 3.438h-21.187c-1.896 0-3.438-1.542-3.438-3.438v-8.147c0-1.896 1.542-3.438 3.438-3.438zm21.187 13.108c.84 0 1.523-.683 1.523-1.523v-8.147c0-.84-.683-1.523-1.523-1.523h-21.187c-.84 0-1.523.683-1.523 1.523v8.147c0 .84.683 1.523 1.523 1.523h21.187z"/><path d="M117.878 35.051h21.187c1.896 0 3.438 1.542 3.438 3.438v8.147c0 1.896-1.542 3.438-3.438 3.438h-21.187c-1.896 0-3.438-1.542-3.438-3.438v-8.147c0-1.896 1.542-3.438 3.438-3.438zm21.188 13.108c.84 0 1.523-.683 1.523-1.523v-8.147c0-.84-.683-1.523-1.523-1.523h-21.187c-.84 0-1.523.683-1.523 1.523v8.147c0 .84.683 1.523 1.523 1.523h21.187z"/><path d="M144.027 35.051h21.187c1.896 0 3.438 1.542 3.438 3.438v8.147c0 1.896-1.542 3.438-3.438 3.438h-21.187c-1.896 0-3.438-1.542-3.438-3.438v-8.147c0-1.896 1.542-3.438 3.438-3.438zm21.186 13.108c.84 0 1.523-.683 1.523-1.523v-8.147c0-.84-.683-1.523-1.523-1.523h-21.187c-.84 0-1.523.683-1.523 1.523v8.147c0 .84.683 1.523 1.523 1.523h21.187z"/><path d="M170.179 35.051h21.187c1.895 0 3.437 1.542 3.437 3.438v8.147c0 1.896-1.542 3.438-3.437 3.438h-21.187c-1.896 0-3.438-1.542-3.438-3.438v-8.147c0-1.896 1.542-3.438 3.438-3.438zm21.187 13.108c.84 0 1.523-.683 1.523-1.523v-8.147c0-.84-.683-1.523-1.523-1.523h-21.187c-.84 0-1.523.683-1.523 1.523v8.147c0 .84.683 1.523 1.523 1.523h21.187z"/><path d="M196.327 35.051h21.187c1.896 0 3.438 1.542 3.438 3.438v8.147c0 1.896-1.542 3.438-3.438 3.438h-21.187c-1.896 0-3.438-1.542-3.438-3.438v-8.147c0-1.896 1.542-3.438 3.438-3.438zm21.187 13.108c.84 0 1.523-.683 1.523-1.523v-8.147c0-.84-.683-1.523-1.523-1.523h-21.187c-.84 0-1.523.683-1.523 1.523v8.147c0 .84.683 1.523 1.523 1.523h21.187z"/><path d="M222.502 35.051h21.187c1.895 0 3.437 1.542 3.437 3.438v8.147c0 1.896-1.542 3.438-3.437 3.438h-21.187c-1.896 0-3.438-1.542-3.438-3.438v-8.147c0-1.896 1.542-3.438 3.438-3.438zm21.187 13.108c.84 0 1.523-.683 1.523-1.523v-8.147c0-.84-.683-1.523-1.523-1.523h-21.187c-.84 0-1.523.683-1.523 1.523v8.147c0 .84.683 1.523 1.523 1.523h21.187z"/><path d="M248.65 35.051h21.187c1.896 0 3.438 1.542 3.438 3.438v8.147c0 1.896-1.542 3.438-3.438 3.438H248.65c-1.896 0-3.438-1.542-3.438-3.438v-8.147c0-1.896 1.542-3.438 3.438-3.438zm21.187 13.108c.84 0 1.523-.683 1.523-1.523v-8.147c0-.84-.683-1.523-1.523-1.523H248.65c-.84 0-1.523.683-1.523 1.523v8.147c0 .84.683 1.523 1.523 1.523h21.187z"/><path d="M274.767 35.051h21.187c1.896 0 3.438 1.542 3.438 3.438v8.147c0 1.896-1.542 3.438-3.438 3.438h-21.187c-1.896 0-3.438-1.542-3.438-3.438v-8.147c0-1.896 1.542-3.438 3.438-3.438zm21.188 13.108c.84 0 1.523-.683 1.523-1.523v-8.147c0-.84-.683-1.523-1.523-1.523h-21.187c-.84 0-1.523.683-1.523 1.523v8.147c0 .84.683 1.523 1.523 1.523h21.187z"/><path d="M300.916 35.051h21.187c1.895 0 3.437 1.542 3.437 3.438v8.147c0 1.896-1.542 3.438-3.437 3.438h-21.187c-1.896 0-3.438-1.542-3.438-3.438v-8.147c0-1.896 1.542-3.438 3.438-3.438zm21.187 13.108c.84 0 1.523-.683 1.523-1.523v-8.147c0-.84-.683-1.523-1.523-1.523h-21.187c-.84 0-1.523.683-1.523 1.523v8.147c0 .84.683 1.523 1.523 1.523h21.187zm-243.492 0h21.187c1.896 0 3.438 1.542 3.438 3.438v8.147c0 1.896-1.542 3.438-3.438 3.438H78.611c-1.896 0-3.438-1.542-3.438-3.438v-8.147c0-1.896 1.542-3.438 3.438-3.438zm21.188 13.109c.84 0 1.523-.683 1.523-1.523v-8.147c0-.84-.683-1.523-1.523-1.523H78.612c-.84 0-1.523.683-1.523 1.523v8.147c0 .84.683 1.523 1.523 1.523h21.187z"/><path d="M104.76 48.159h21.187c1.896 0 3.438 1.542 3.438 3.438v8.147c0 1.896-1.542 3.438-3.438 3.438H104.76c-1.896 0-3.438-1.542-3.438-3.438v-8.147c0-1.896 1.542-3.438 3.438-3.438zm21.187 13.109c.84 0 1.523-.683 1.523-1.523v-8.147c0-.84-.683-1.523-1.523-1.523H104.76c-.84 0-1.523.683-1.523 1.523v8.147c0 .84.683 1.523 1.523 1.523h21.187z"/><path d="M130.935 48.159h21.187c1.896 0 3.438 1.542 3.438 3.438v8.147c0 1.896-1.542 3.438-3.438 3.438h-21.187c-1.896 0-3.438-1.542-3.438-3.438v-8.147c0-1.896 1.542-3.438 3.438-3.438zm21.187 13.109c.84 0 1.523-.683 1.523-1.523v-8.147c0-.84-.683-1.523-1.523-1.523h-21.187c-.84 0-1.523.683-1.523 1.523v8.147c0 .84.683 1.523 1.523 1.523h21.187z"/><path d="M157.083,48.159h21.187c1.896,0,3.438,1.542,3.438,3.438v8.147c0,1.896-1.542,3.438-3.438,3.438h-21.187c-1.896,0-3.438-1.542-3.438-3.438v-8.147c0-1.896,1.542-3.438,3.438-3.438ZM178.27,61.268c.84,0,1.523-.683,1.523-1.523v-8.147c0-.84-.683-1.523-1.523-1.523h-21.187c-.84,0-1.523.683-1.523,1.523v8.147c0,.84.683,1.523,1.523,1.523h21.187Z"/><path d="M183.235 48.159h21.187c1.896 0 3.438 1.542 3.438 3.438v8.147c0 1.896-1.542 3.438-3.438 3.438h-21.187c-1.896 0-3.438-1.542-3.438-3.438v-8.147c0-1.896 1.542-3.438 3.438-3.438zm21.188 13.109c.84 0 1.523-.683 1.523-1.523v-8.147c0-.84-.683-1.523-1.523-1.523h-21.187c-.84 0-1.523.683-1.523 1.523v8.147c0 .84.683 1.523 1.523 1.523h21.187z"/><use href="#U"/><path d="M235.559 48.159h21.187c1.896 0 3.438 1.542 3.438 3.438v8.147c0 1.896-1.542 3.438-3.438 3.438h-21.187c-1.896 0-3.438-1.542-3.438-3.438v-8.147c0-1.896 1.542-3.438 3.438-3.438zm21.187 13.109c.84 0 1.523-.683 1.523-1.523v-8.147c0-.84-.683-1.523-1.523-1.523h-21.187c-.84 0-1.523.683-1.523 1.523v8.147c0 .84.683 1.523 1.523 1.523h21.187z"/><path d="M261.706 48.159h21.187c1.896 0 3.438 1.542 3.438 3.438v8.147c0 1.896-1.542 3.438-3.438 3.438h-21.187c-1.895 0-3.437-1.542-3.437-3.438v-8.147c0-1.896 1.542-3.438 3.437-3.438zm21.188 13.109c.84 0 1.523-.683 1.523-1.523v-8.147c0-.84-.683-1.523-1.523-1.523h-21.187c-.84 0-1.523.683-1.523 1.523v8.147c0 .84.683 1.523 1.523 1.523h21.187z"/><path d="M287.824 48.159h21.187c1.896 0 3.438 1.542 3.438 3.438v8.147c0 1.896-1.542 3.438-3.438 3.438h-21.187c-1.896 0-3.438-1.542-3.438-3.438v-8.147c0-1.896 1.542-3.438 3.438-3.438zm21.187 13.109c.84 0 1.523-.683 1.523-1.523v-8.147c0-.84-.683-1.523-1.523-1.523h-21.187c-.84 0-1.523.683-1.523 1.523v8.147c0 .84.683 1.523 1.523 1.523h21.187z"/><path d="M313.972 48.159h21.187c1.896 0 3.438 1.542 3.438 3.438v8.147c0 1.896-1.542 3.438-3.438 3.438h-21.187c-1.896 0-3.438-1.542-3.438-3.438v-8.147c0-1.896 1.542-3.438 3.438-3.438zm21.188 13.109c.84 0 1.523-.683 1.523-1.523v-8.147c0-.84-.683-1.523-1.523-1.523h-21.187c-.84 0-1.523.683-1.523 1.523v8.147c0 .84.683 1.523 1.523 1.523h21.187zm-269.605 0h21.187c1.896 0 3.438 1.542 3.438 3.438v8.147c0 1.896-1.542 3.438-3.438 3.438H65.555c-1.896 0-3.438-1.542-3.438-3.438v-8.147c0-1.896 1.542-3.438 3.438-3.438zm21.187 13.108c.84 0 1.523-.683 1.523-1.523v-8.147c0-.84-.683-1.523-1.523-1.523H65.555c-.84 0-1.523.683-1.523 1.523v8.147c0 .84.683 1.523 1.523 1.523h21.187z"/><path d="M91.703 61.268h21.187c1.896 0 3.438 1.542 3.438 3.438v8.147c0 1.896-1.542 3.438-3.438 3.438H91.703c-1.895 0-3.437-1.542-3.437-3.438v-8.147c0-1.896 1.542-3.438 3.437-3.438zm21.187 13.108c.84 0 1.523-.683 1.523-1.523v-8.147c0-.84-.683-1.523-1.523-1.523H91.703c-.84 0-1.523.683-1.523 1.523v8.147c0 .84.683 1.523 1.523 1.523h21.187zm214.174-13.108h21.187c1.896 0 3.438 1.542 3.438 3.438v8.147c0 1.896-1.542 3.438-3.438 3.438h-21.187c-1.896 0-3.438-1.542-3.438-3.438v-8.147c0-1.896 1.542-3.438 3.438-3.438zm21.187 13.108c.84 0 1.523-.683 1.523-1.523v-8.147c0-.84-.683-1.523-1.523-1.523h-21.187c-.84 0-1.523.683-1.523 1.523v8.147c0 .84.683 1.523 1.523 1.523h21.187z"/><path d="M117.878 61.268h21.187c1.896 0 3.438 1.542 3.438 3.438v8.147c0 1.896-1.542 3.438-3.438 3.438h-21.187c-1.896 0-3.438-1.542-3.438-3.438v-8.147c0-1.896 1.542-3.438 3.438-3.438zm21.188 13.108c.84 0 1.523-.683 1.523-1.523v-8.147c0-.84-.683-1.523-1.523-1.523h-21.187c-.84 0-1.523.683-1.523 1.523v8.147c0 .84.683 1.523 1.523 1.523h21.187z"/><path d="M144.027 61.268h21.187c1.896 0 3.438 1.542 3.438 3.438v8.147c0 1.896-1.542 3.438-3.438 3.438h-21.187c-1.896 0-3.438-1.542-3.438-3.438v-8.147c0-1.896 1.542-3.438 3.438-3.438zm21.186 13.108c.84 0 1.523-.683 1.523-1.523v-8.147c0-.84-.683-1.523-1.523-1.523h-21.187c-.84 0-1.523.683-1.523 1.523v8.147c0 .84.683 1.523 1.523 1.523h21.187z"/><path d="M170.179 61.268h21.187c1.895 0 3.437 1.542 3.437 3.438v8.147c0 1.896-1.542 3.438-3.437 3.438h-21.187c-1.896 0-3.438-1.542-3.438-3.438v-8.147c0-1.896 1.542-3.438 3.438-3.438zm21.187 13.108c.84 0 1.523-.683 1.523-1.523v-8.147c0-.84-.683-1.523-1.523-1.523h-21.187c-.84 0-1.523.683-1.523 1.523v8.147c0 .84.683 1.523 1.523 1.523h21.187z"/><path d="M196.327 61.268h21.187c1.896 0 3.438 1.542 3.438 3.438v8.147c0 1.896-1.542 3.438-3.438 3.438h-21.187c-1.896 0-3.438-1.542-3.438-3.438v-8.147c0-1.896 1.542-3.438 3.438-3.438zm21.187 13.108c.84 0 1.523-.683 1.523-1.523v-8.147c0-.84-.683-1.523-1.523-1.523h-21.187c-.84 0-1.523.683-1.523 1.523v8.147c0 .84.683 1.523 1.523 1.523h21.187z"/><path d="M222.502 61.268h21.187c1.895 0 3.437 1.542 3.437 3.438v8.147c0 1.896-1.542 3.438-3.437 3.438h-21.187c-1.896 0-3.438-1.542-3.438-3.438v-8.147c0-1.896 1.542-3.438 3.438-3.438zm21.187 13.108c.84 0 1.523-.683 1.523-1.523v-8.147c0-.84-.683-1.523-1.523-1.523h-21.187c-.84 0-1.523.683-1.523 1.523v8.147c0 .84.683 1.523 1.523 1.523h21.187z"/><path d="M248.65 61.268h21.187c1.896 0 3.438 1.542 3.438 3.438v8.147c0 1.896-1.542 3.438-3.438 3.438H248.65c-1.896 0-3.438-1.542-3.438-3.438v-8.147c0-1.896 1.542-3.438 3.438-3.438zm21.187 13.108c.84 0 1.523-.683 1.523-1.523v-8.147c0-.84-.683-1.523-1.523-1.523H248.65c-.84 0-1.523.683-1.523 1.523v8.147c0 .84.683 1.523 1.523 1.523h21.187z"/><path d="M274.767 61.268h21.187c1.896 0 3.438 1.542 3.438 3.438v8.147c0 1.896-1.542 3.438-3.438 3.438h-21.187c-1.896 0-3.438-1.542-3.438-3.438v-8.147c0-1.896 1.542-3.438 3.438-3.438zm21.188 13.108c.84 0 1.523-.683 1.523-1.523v-8.147c0-.84-.683-1.523-1.523-1.523h-21.187c-.84 0-1.523.683-1.523 1.523v8.147c0 .84.683 1.523 1.523 1.523h21.187z"/><path d="M300.916 61.268h21.187c1.895 0 3.437 1.542 3.437 3.438v8.147c0 1.896-1.542 3.438-3.437 3.438h-21.187c-1.896 0-3.438-1.542-3.438-3.438v-8.147c0-1.896 1.542-3.438 3.438-3.438zm21.187 13.108c.84 0 1.523-.683 1.523-1.523v-8.147c0-.84-.683-1.523-1.523-1.523h-21.187c-.84 0-1.523.683-1.523 1.523v8.147c0 .84.683 1.523 1.523 1.523h21.187zM.153-4.273H21.34c1.896 0 3.438 1.542 3.438 3.438v8.147c0 1.896-1.542 3.438-3.438 3.438H.153c-1.896 0-3.438-1.542-3.438-3.438V-.836c0-1.896 1.542-3.438 3.438-3.438zM21.34 8.835c.84 0 1.523-.683 1.523-1.523V-.836c0-.84-.683-1.523-1.523-1.523H.153c-.84 0-1.523.683-1.523 1.523v8.148c0 .84.683 1.523 1.523 1.523H21.34z"/><path d="M26.27-4.273h21.187c1.896 0 3.438 1.542 3.438 3.438v8.147c0 1.896-1.542 3.438-3.438 3.438H26.27c-1.896 0-3.438-1.542-3.438-3.438V-.836c0-1.896 1.542-3.438 3.438-3.438zM47.458 8.835c.84 0 1.523-.683 1.523-1.523V-.836c0-.84-.683-1.523-1.523-1.523H26.271c-.84 0-1.523.683-1.523 1.523v8.148c0 .84.683 1.523 1.523 1.523h21.187z"/><path d="M52.419-4.273h21.187c1.896 0 3.438 1.542 3.438 3.438v8.147c0 1.896-1.542 3.438-3.438 3.438H52.419c-1.896 0-3.438-1.542-3.438-3.438V-.836c0-1.896 1.542-3.438 3.438-3.438zM73.605 8.835c.84 0 1.523-.683 1.523-1.523V-.836c0-.84-.683-1.523-1.523-1.523H52.418c-.84 0-1.523.683-1.523 1.523v8.148c0 .84.683 1.523 1.523 1.523h21.187z"/><use href="#V"/><path d="M13.214,8.835h21.187c1.896,0,3.438,1.542,3.438,3.438v8.147c0,1.896-1.542,3.438-3.438,3.438H13.214c-1.896,0-3.438-1.542-3.438-3.438v-8.147c0-1.896,1.542-3.438,3.438-3.438ZM34.401,21.943c.84,0,1.523-.683,1.523-1.523v-8.147c0-.84-.683-1.523-1.523-1.523H13.214c-.84,0-1.523.683-1.523,1.523v8.147c0,.84.683,1.523,1.523,1.523h21.187Z"/><use href="#W"/><path d="M.153 21.943H21.34c1.896 0 3.438 1.542 3.438 3.438v8.147c0 1.896-1.542 3.438-3.438 3.438H.153c-1.896 0-3.438-1.542-3.438-3.438v-8.147c0-1.896 1.542-3.438 3.438-3.438zM21.34 35.051c.84 0 1.523-.683 1.523-1.523v-8.147c0-.84-.683-1.523-1.523-1.523H.153c-.84 0-1.523.683-1.523 1.523v8.147c0 .84.683 1.523 1.523 1.523H21.34z"/><path d="M26.27 21.943h21.187c1.896 0 3.438 1.542 3.438 3.438v8.147c0 1.896-1.542 3.438-3.438 3.438H26.27c-1.896 0-3.438-1.542-3.438-3.438v-8.147c0-1.896 1.542-3.438 3.438-3.438zm21.188 13.108c.84 0 1.523-.683 1.523-1.523v-8.147c0-.84-.683-1.523-1.523-1.523H26.271c-.84 0-1.523.683-1.523 1.523v8.147c0 .84.683 1.523 1.523 1.523h21.187z"/><path d="M52.419 21.943h21.187c1.896 0 3.438 1.542 3.438 3.438v8.147c0 1.896-1.542 3.438-3.438 3.438H52.419c-1.896 0-3.438-1.542-3.438-3.438v-8.147c0-1.896 1.542-3.438 3.438-3.438zm21.186 13.108c.84 0 1.523-.683 1.523-1.523v-8.147c0-.84-.683-1.523-1.523-1.523H52.418c-.84 0-1.523.683-1.523 1.523v8.147c0 .84.683 1.523 1.523 1.523h21.187z"/><path d="M65.51 35.051h21.187c1.896 0 3.438 1.542 3.438 3.438v8.147c0 1.896-1.542 3.438-3.438 3.438H65.51c-1.896 0-3.438-1.542-3.438-3.438v-8.147c0-1.896 1.542-3.438 3.438-3.438zm21.187 13.108c.84 0 1.523-.683 1.523-1.523v-8.147c0-.84-.683-1.523-1.523-1.523H65.51c-.84 0-1.523.683-1.523 1.523v8.147c0 .84.683 1.523 1.523 1.523h21.187zM13.214 35.051h21.187c1.896 0 3.438 1.542 3.438 3.438v8.147c0 1.896-1.542 3.438-3.438 3.438H13.214c-1.896 0-3.438-1.542-3.438-3.438v-8.147c0-1.896 1.542-3.438 3.438-3.438zm21.187 13.108c.84 0 1.523-.683 1.523-1.523v-8.147c0-.84-.683-1.523-1.523-1.523H13.214c-.84 0-1.523.683-1.523 1.523v8.147c0 .84.683 1.523 1.523 1.523h21.187z"/><path d="M39.362 35.051h21.187c1.896 0 3.438 1.542 3.438 3.438v8.147c0 1.896-1.542 3.438-3.438 3.438H39.362c-1.896 0-3.438-1.542-3.438-3.438v-8.147c0-1.896 1.542-3.438 3.438-3.438zm21.187 13.108c.84 0 1.523-.683 1.523-1.523v-8.147c0-.84-.683-1.523-1.523-1.523H39.362c-.84 0-1.523.683-1.523 1.523v8.147c0 .84.683 1.523 1.523 1.523h21.187zm-60.396 0H21.34c1.896 0 3.438 1.542 3.438 3.438v8.147c0 1.896-1.542 3.438-3.438 3.438H.153c-1.896 0-3.438-1.542-3.438-3.438v-8.147c0-1.896 1.542-3.438 3.438-3.438zM21.34 61.268c.84 0 1.523-.683 1.523-1.523v-8.147c0-.84-.683-1.523-1.523-1.523H.153c-.84 0-1.523.683-1.523 1.523v8.147c0 .84.683 1.523 1.523 1.523H21.34z"/><path d="M26.27 48.159h21.187c1.896 0 3.438 1.542 3.438 3.438v8.147c0 1.896-1.542 3.438-3.438 3.438H26.27c-1.896 0-3.438-1.542-3.438-3.438v-8.147c0-1.896 1.542-3.438 3.438-3.438zm21.188 13.109c.84 0 1.523-.683 1.523-1.523v-8.147c0-.84-.683-1.523-1.523-1.523H26.271c-.84 0-1.523.683-1.523 1.523v8.147c0 .84.683 1.523 1.523 1.523h21.187z"/><path d="M52.419 48.159h21.187c1.896 0 3.438 1.542 3.438 3.438v8.147c0 1.896-1.542 3.438-3.438 3.438H52.419c-1.896 0-3.438-1.542-3.438-3.438v-8.147c0-1.896 1.542-3.438 3.438-3.438zm21.186 13.109c.84 0 1.523-.683 1.523-1.523v-8.147c0-.84-.683-1.523-1.523-1.523H52.418c-.84 0-1.523.683-1.523 1.523v8.147c0 .84.683 1.523 1.523 1.523h21.187z"/><path d="M65.51 61.268h21.187c1.896 0 3.438 1.542 3.438 3.438v8.147c0 1.896-1.542 3.438-3.438 3.438H65.51c-1.896 0-3.438-1.542-3.438-3.438v-8.147c0-1.896 1.542-3.438 3.438-3.438zm21.187 13.108c.84 0 1.523-.683 1.523-1.523v-8.147c0-.84-.683-1.523-1.523-1.523H65.51c-.84 0-1.523.683-1.523 1.523v8.147c0 .84.683 1.523 1.523 1.523h21.187zM13.214 61.268h21.187c1.896 0 3.438 1.542 3.438 3.438v8.147c0 1.896-1.542 3.438-3.438 3.438H13.214c-1.896 0-3.438-1.542-3.438-3.438v-8.147c0-1.896 1.542-3.438 3.438-3.438zm21.187 13.108c.84 0 1.523-.683 1.523-1.523v-8.147c0-.84-.683-1.523-1.523-1.523H13.214c-.84 0-1.523.683-1.523 1.523v8.147c0 .84.683 1.523 1.523 1.523h21.187z"/><path d="M39.362 61.268h21.187c1.896 0 3.438 1.542 3.438 3.438v8.147c0 1.896-1.542 3.438-3.438 3.438H39.362c-1.896 0-3.438-1.542-3.438-3.438v-8.147c0-1.896 1.542-3.438 3.438-3.438zm21.187 13.108c.84 0 1.523-.683 1.523-1.523v-8.147c0-.84-.683-1.523-1.523-1.523H39.362c-.84 0-1.523.683-1.523 1.523v8.147c0 .84.683 1.523 1.523 1.523h21.187zM837.057-4.273h21.187c1.896 0 3.438 1.542 3.438 3.438v8.147c0 1.896-1.542 3.438-3.438 3.438h-21.187c-1.896 0-3.438-1.542-3.438-3.438V-.836c0-1.896 1.542-3.438 3.438-3.438zm21.187 13.108c.84 0 1.523-.683 1.523-1.523V-.836c0-.84-.683-1.523-1.523-1.523h-21.187c-.84 0-1.523.683-1.523 1.523v8.148c0 .84.683 1.523 1.523 1.523h21.187z"/><path d="M863.206-4.273h21.187c1.896,0,3.438,1.542,3.438,3.438V7.312c0,1.896-1.542,3.438-3.438,3.438h-21.187c-1.896,0-3.438-1.542-3.438-3.438V-.836c0-1.896,1.542-3.438,3.438-3.438ZM884.392,8.835c.84,0,1.523-.683,1.523-1.523V-.836c0-.84-.683-1.523-1.523-1.523h-21.187c-.84,0-1.523.683-1.523,1.523V7.312c0,.84.683,1.523,1.523,1.523h21.187Z"/><path d="M889.38-4.273h21.187c1.896 0 3.438 1.542 3.438 3.438v8.147c0 1.896-1.542 3.438-3.438 3.438H889.38c-1.896 0-3.438-1.542-3.438-3.438V-.836c0-1.896 1.542-3.438 3.438-3.438zm21.188 13.108c.84 0 1.523-.683 1.523-1.523V-.836c0-.84-.683-1.523-1.523-1.523h-21.187c-.84 0-1.523.683-1.523 1.523v8.148c0 .84.683 1.523 1.523 1.523h21.187z"/><path d="M915.529-4.273h21.187c1.896,0,3.438,1.542,3.438,3.438V7.312c0,1.896-1.542,3.438-3.438,3.438h-21.187c-1.896,0-3.438-1.542-3.438-3.438V-.836c0-1.896,1.542-3.438,3.438-3.438ZM936.716,8.835c.84,0,1.523-.683,1.523-1.523V-.836c0-.84-.683-1.523-1.523-1.523h-21.187c-.84,0-1.523.683-1.523,1.523V7.312c0,.84.683,1.523,1.523,1.523h21.187Z"/><path d="M941.681-4.273h21.187c1.896,0,3.438,1.542,3.438,3.438V7.312c0,1.896-1.542,3.438-3.438,3.438h-21.187c-1.896,0-3.438-1.542-3.438-3.438V-.836c0-1.896,1.542-3.438,3.438-3.438ZM962.868,8.835c.84,0,1.523-.683,1.523-1.523V-.836c0-.84-.683-1.523-1.523-1.523h-21.187c-.84,0-1.523.683-1.523,1.523V7.312c0,.84.683,1.523,1.523,1.523h21.187Z"/><path d="M967.829-4.273h21.187c1.896,0,3.438,1.542,3.438,3.438V7.312c0,1.896-1.542,3.438-3.438,3.438h-21.187c-1.895,0-3.437-1.542-3.437-3.438V-.836c0-1.896,1.542-3.438,3.437-3.438ZM989.016,8.835c.84,0,1.523-.683,1.523-1.523V-.836c0-.84-.683-1.523-1.523-1.523h-21.187c-.84,0-1.523.683-1.523,1.523V7.312c0,.84.683,1.523,1.523,1.523h21.187Z"/><path d="M994.004-4.273h21.187c1.896 0 3.438 1.542 3.438 3.438v8.147c0 1.896-1.542 3.438-3.438 3.438h-21.187c-1.896 0-3.438-1.542-3.438-3.438V-.836c0-1.896 1.542-3.438 3.438-3.438zm21.188 13.108c.84 0 1.523-.683 1.523-1.523V-.836c0-.84-.683-1.523-1.523-1.523h-21.187c-.84 0-1.523.683-1.523 1.523v8.148c0 .84.683 1.523 1.523 1.523h21.187zm-191.191 0h21.187c1.896 0 3.438 1.542 3.438 3.438v8.147c0 1.896-1.542 3.438-3.438 3.438h-21.187c-1.896 0-3.438-1.542-3.438-3.438v-8.147c0-1.896 1.542-3.438 3.438-3.438zm21.187 13.108c.84 0 1.523-.683 1.523-1.523v-8.147c0-.84-.683-1.523-1.523-1.523h-21.187c-.84 0-1.523.683-1.523 1.523v8.147c0 .84.683 1.523 1.523 1.523h21.187z"/><path d="M850.148 8.835h21.187c1.896 0 3.438 1.542 3.438 3.438v8.147c0 1.896-1.542 3.438-3.438 3.438h-21.187c-1.895 0-3.437-1.542-3.437-3.438v-8.147c0-1.896 1.542-3.438 3.437-3.438zm21.188 13.108c.84 0 1.523-.683 1.523-1.523v-8.147c0-.84-.683-1.523-1.523-1.523h-21.187c-.84 0-1.523.683-1.523 1.523v8.147c0 .84.683 1.523 1.523 1.523h21.187z"/><path d="M876.324 8.835h21.187c1.896 0 3.438 1.542 3.438 3.438v8.147c0 1.896-1.542 3.438-3.438 3.438h-21.187c-1.896 0-3.438-1.542-3.438-3.438v-8.147c0-1.896 1.542-3.438 3.438-3.438zm21.187 13.108c.84 0 1.523-.683 1.523-1.523v-8.147c0-.84-.683-1.523-1.523-1.523h-21.187c-.84 0-1.523.683-1.523 1.523v8.147c0 .84.683 1.523 1.523 1.523h21.187z"/><path d="M902.472 8.835h21.187c1.896 0 3.438 1.542 3.438 3.438v8.147c0 1.896-1.542 3.438-3.438 3.438h-21.187c-1.896 0-3.438-1.542-3.438-3.438v-8.147c0-1.896 1.542-3.438 3.438-3.438zm21.187 13.108c.84 0 1.523-.683 1.523-1.523v-8.147c0-.84-.683-1.523-1.523-1.523h-21.187c-.84 0-1.523.683-1.523 1.523v8.147c0 .84.683 1.523 1.523 1.523h21.187z"/><path d="M928.625 8.835h21.187c1.895 0 3.437 1.542 3.437 3.438v8.147c0 1.896-1.542 3.438-3.437 3.438h-21.187c-1.896 0-3.438-1.542-3.438-3.438v-8.147c0-1.896 1.542-3.438 3.438-3.438zm21.187 13.108c.84 0 1.523-.683 1.523-1.523v-8.147c0-.84-.683-1.523-1.523-1.523h-21.187c-.84 0-1.523.683-1.523 1.523v8.147c0 .84.683 1.523 1.523 1.523h21.187z"/><path d="M954.772,8.835h21.187c1.896,0,3.438,1.542,3.438,3.438v8.147c0,1.896-1.542,3.438-3.438,3.438h-21.187c-1.896,0-3.438-1.542-3.438-3.438v-8.147c0-1.896,1.542-3.438,3.438-3.438ZM975.96,21.943c.84,0,1.523-.683,1.523-1.523v-8.147c0-.84-.683-1.523-1.523-1.523h-21.187c-.84,0-1.523.683-1.523,1.523v8.147c0,.84.683,1.523,1.523,1.523h21.187Z"/><path d="M980.948 8.835h21.187c1.896 0 3.438 1.542 3.438 3.438v8.147c0 1.896-1.542 3.438-3.438 3.438h-21.187c-1.896 0-3.438-1.542-3.438-3.438v-8.147c0-1.896 1.542-3.438 3.438-3.438zm21.187 13.108c.84 0 1.523-.683 1.523-1.523v-8.147c0-.84-.683-1.523-1.523-1.523h-21.187c-.84 0-1.523.683-1.523 1.523v8.147c0 .84.683 1.523 1.523 1.523h21.187zm-165.078 0h21.187c1.896 0 3.438 1.542 3.438 3.438v8.147c0 1.896-1.542 3.438-3.438 3.438h-21.187c-1.896 0-3.438-1.542-3.438-3.438v-8.147c0-1.896 1.542-3.438 3.438-3.438zm21.187 13.108c.84 0 1.523-.683 1.523-1.523v-8.147c0-.84-.683-1.523-1.523-1.523h-21.187c-.84 0-1.523.683-1.523 1.523v8.147c0 .84.683 1.523 1.523 1.523h21.187z"/><path d="M863.206 21.943h21.187c1.896 0 3.438 1.542 3.438 3.438v8.147c0 1.896-1.542 3.438-3.438 3.438h-21.187c-1.896 0-3.438-1.542-3.438-3.438v-8.147c0-1.896 1.542-3.438 3.438-3.438zm21.186 13.108c.84 0 1.523-.683 1.523-1.523v-8.147c0-.84-.683-1.523-1.523-1.523h-21.187c-.84 0-1.523.683-1.523 1.523v8.147c0 .84.683 1.523 1.523 1.523h21.187z"/><path d="M889.38 21.943h21.187c1.896 0 3.438 1.542 3.438 3.438v8.147c0 1.896-1.542 3.438-3.438 3.438H889.38c-1.896 0-3.438-1.542-3.438-3.438v-8.147c0-1.896 1.542-3.438 3.438-3.438zm21.188 13.108c.84 0 1.523-.683 1.523-1.523v-8.147c0-.84-.683-1.523-1.523-1.523h-21.187c-.84 0-1.523.683-1.523 1.523v8.147c0 .84.683 1.523 1.523 1.523h21.187z"/><path d="M915.529 21.943h21.187c1.896 0 3.438 1.542 3.438 3.438v8.147c0 1.896-1.542 3.438-3.438 3.438h-21.187c-1.896 0-3.438-1.542-3.438-3.438v-8.147c0-1.896 1.542-3.438 3.438-3.438zm21.187 13.108c.84 0 1.523-.683 1.523-1.523v-8.147c0-.84-.683-1.523-1.523-1.523h-21.187c-.84 0-1.523.683-1.523 1.523v8.147c0 .84.683 1.523 1.523 1.523h21.187z"/><path d="M941.681 21.943h21.187c1.896 0 3.438 1.542 3.438 3.438v8.147c0 1.896-1.542 3.438-3.438 3.438h-21.187c-1.896 0-3.438-1.542-3.438-3.438v-8.147c0-1.896 1.542-3.438 3.438-3.438zm21.187 13.108c.84 0 1.523-.683 1.523-1.523v-8.147c0-.84-.683-1.523-1.523-1.523h-21.187c-.84 0-1.523.683-1.523 1.523v8.147c0 .84.683 1.523 1.523 1.523h21.187z"/><path d="M967.829 21.943h21.187c1.896 0 3.438 1.542 3.438 3.438v8.147c0 1.896-1.542 3.438-3.438 3.438h-21.187c-1.895 0-3.437-1.542-3.437-3.438v-8.147c0-1.896 1.542-3.438 3.437-3.438zm21.187 13.108c.84 0 1.523-.683 1.523-1.523v-8.147c0-.84-.683-1.523-1.523-1.523h-21.187c-.84 0-1.523.683-1.523 1.523v8.147c0 .84.683 1.523 1.523 1.523h21.187z"/><path d="M994.004 21.943h21.187c1.896 0 3.438 1.542 3.438 3.438v8.147c0 1.896-1.542 3.438-3.438 3.438h-21.187c-1.896 0-3.438-1.542-3.438-3.438v-8.147c0-1.896 1.542-3.438 3.438-3.438zm21.188 13.108c.84 0 1.523-.683 1.523-1.523v-8.147c0-.84-.683-1.523-1.523-1.523h-21.187c-.84 0-1.523.683-1.523 1.523v8.147c0 .84.683 1.523 1.523 1.523h21.187zm-191.191 0h21.187c1.896 0 3.438 1.542 3.438 3.438v8.147c0 1.896-1.542 3.438-3.438 3.438h-21.187c-1.896 0-3.438-1.542-3.438-3.438v-8.147c0-1.896 1.542-3.438 3.438-3.438zm21.187 13.108c.84 0 1.523-.683 1.523-1.523v-8.147c0-.84-.683-1.523-1.523-1.523h-21.187c-.84 0-1.523.683-1.523 1.523v8.147c0 .84.683 1.523 1.523 1.523h21.187z"/><path d="M850.148 35.051h21.187c1.896 0 3.438 1.542 3.438 3.438v8.147c0 1.896-1.542 3.438-3.438 3.438h-21.187c-1.895 0-3.437-1.542-3.437-3.438v-8.147c0-1.896 1.542-3.438 3.437-3.438zm21.188 13.108c.84 0 1.523-.683 1.523-1.523v-8.147c0-.84-.683-1.523-1.523-1.523h-21.187c-.84 0-1.523.683-1.523 1.523v8.147c0 .84.683 1.523 1.523 1.523h21.187z"/><path d="M876.324 35.051h21.187c1.896 0 3.438 1.542 3.438 3.438v8.147c0 1.896-1.542 3.438-3.438 3.438h-21.187c-1.896 0-3.438-1.542-3.438-3.438v-8.147c0-1.896 1.542-3.438 3.438-3.438zm21.187 13.108c.84 0 1.523-.683 1.523-1.523v-8.147c0-.84-.683-1.523-1.523-1.523h-21.187c-.84 0-1.523.683-1.523 1.523v8.147c0 .84.683 1.523 1.523 1.523h21.187z"/><path d="M902.472 35.051h21.187c1.896 0 3.438 1.542 3.438 3.438v8.147c0 1.896-1.542 3.438-3.438 3.438h-21.187c-1.896 0-3.438-1.542-3.438-3.438v-8.147c0-1.896 1.542-3.438 3.438-3.438zm21.187 13.108c.84 0 1.523-.683 1.523-1.523v-8.147c0-.84-.683-1.523-1.523-1.523h-21.187c-.84 0-1.523.683-1.523 1.523v8.147c0 .84.683 1.523 1.523 1.523h21.187z"/><path d="M928.625 35.051h21.187c1.895 0 3.437 1.542 3.437 3.438v8.147c0 1.896-1.542 3.438-3.437 3.438h-21.187c-1.896 0-3.438-1.542-3.438-3.438v-8.147c0-1.896 1.542-3.438 3.438-3.438zm21.187 13.108c.84 0 1.523-.683 1.523-1.523v-8.147c0-.84-.683-1.523-1.523-1.523h-21.187c-.84 0-1.523.683-1.523 1.523v8.147c0 .84.683 1.523 1.523 1.523h21.187z"/><path d="M954.772,35.051h21.187c1.896,0,3.438,1.542,3.438,3.438v8.147c0,1.896-1.542,3.438-3.438,3.438h-21.187c-1.896,0-3.438-1.542-3.438-3.438v-8.147c0-1.896,1.542-3.438,3.438-3.438ZM975.96,48.159c.84,0,1.523-.683,1.523-1.523v-8.147c0-.84-.683-1.523-1.523-1.523h-21.187c-.84,0-1.523.683-1.523,1.523v8.147c0,.84.683,1.523,1.523,1.523h21.187Z"/><path d="M980.948 35.051h21.187c1.896 0 3.438 1.542 3.438 3.438v8.147c0 1.896-1.542 3.438-3.438 3.438h-21.187c-1.896 0-3.438-1.542-3.438-3.438v-8.147c0-1.896 1.542-3.438 3.438-3.438zm21.187 13.108c.84 0 1.523-.683 1.523-1.523v-8.147c0-.84-.683-1.523-1.523-1.523h-21.187c-.84 0-1.523.683-1.523 1.523v8.147c0 .84.683 1.523 1.523 1.523h21.187zm-165.078 0h21.187c1.896 0 3.438 1.542 3.438 3.438v8.147c0 1.896-1.542 3.438-3.438 3.438h-21.187c-1.896 0-3.438-1.542-3.438-3.438v-8.147c0-1.896 1.542-3.438 3.438-3.438zm21.187 13.109c.84 0 1.523-.683 1.523-1.523v-8.147c0-.84-.683-1.523-1.523-1.523h-21.187c-.84 0-1.523.683-1.523 1.523v8.147c0 .84.683 1.523 1.523 1.523h21.187z"/><path d="M863.206 48.159h21.187c1.896 0 3.438 1.542 3.438 3.438v8.147c0 1.896-1.542 3.438-3.438 3.438h-21.187c-1.896 0-3.438-1.542-3.438-3.438v-8.147c0-1.896 1.542-3.438 3.438-3.438zm21.186 13.109c.84 0 1.523-.683 1.523-1.523v-8.147c0-.84-.683-1.523-1.523-1.523h-21.187c-.84 0-1.523.683-1.523 1.523v8.147c0 .84.683 1.523 1.523 1.523h21.187z"/><path d="M889.38 48.159h21.187c1.896 0 3.438 1.542 3.438 3.438v8.147c0 1.896-1.542 3.438-3.438 3.438H889.38c-1.896 0-3.438-1.542-3.438-3.438v-8.147c0-1.896 1.542-3.438 3.438-3.438zm21.188 13.109c.84 0 1.523-.683 1.523-1.523v-8.147c0-.84-.683-1.523-1.523-1.523h-21.187c-.84 0-1.523.683-1.523 1.523v8.147c0 .84.683 1.523 1.523 1.523h21.187z"/><path d="M915.529 48.159h21.187c1.896 0 3.438 1.542 3.438 3.438v8.147c0 1.896-1.542 3.438-3.438 3.438h-21.187c-1.896 0-3.438-1.542-3.438-3.438v-8.147c0-1.896 1.542-3.438 3.438-3.438zm21.187 13.109c.84 0 1.523-.683 1.523-1.523v-8.147c0-.84-.683-1.523-1.523-1.523h-21.187c-.84 0-1.523.683-1.523 1.523v8.147c0 .84.683 1.523 1.523 1.523h21.187z"/><path d="M941.681 48.159h21.187c1.896 0 3.438 1.542 3.438 3.438v8.147c0 1.896-1.542 3.438-3.438 3.438h-21.187c-1.896 0-3.438-1.542-3.438-3.438v-8.147c0-1.896 1.542-3.438 3.438-3.438zm21.187 13.109c.84 0 1.523-.683 1.523-1.523v-8.147c0-.84-.683-1.523-1.523-1.523h-21.187c-.84 0-1.523.683-1.523 1.523v8.147c0 .84.683 1.523 1.523 1.523h21.187z"/><path d="M967.829 48.159h21.187c1.896 0 3.438 1.542 3.438 3.438v8.147c0 1.896-1.542 3.438-3.438 3.438h-21.187c-1.895 0-3.437-1.542-3.437-3.438v-8.147c0-1.896 1.542-3.438 3.437-3.438zm21.187 13.109c.84 0 1.523-.683 1.523-1.523v-8.147c0-.84-.683-1.523-1.523-1.523h-21.187c-.84 0-1.523.683-1.523 1.523v8.147c0 .84.683 1.523 1.523 1.523h21.187z"/><path d="M994.004 48.159h21.187c1.896 0 3.438 1.542 3.438 3.438v8.147c0 1.896-1.542 3.438-3.438 3.438h-21.187c-1.896 0-3.438-1.542-3.438-3.438v-8.147c0-1.896 1.542-3.438 3.438-3.438zm21.188 13.109c.84 0 1.523-.683 1.523-1.523v-8.147c0-.84-.683-1.523-1.523-1.523h-21.187c-.84 0-1.523.683-1.523 1.523v8.147c0 .84.683 1.523 1.523 1.523h21.187zm-191.191 0h21.187c1.896 0 3.438 1.542 3.438 3.438v8.147c0 1.896-1.542 3.438-3.438 3.438h-21.187c-1.896 0-3.438-1.542-3.438-3.438v-8.147c0-1.896 1.542-3.438 3.438-3.438zm21.187 13.108c.84 0 1.523-.683 1.523-1.523v-8.147c0-.84-.683-1.523-1.523-1.523h-21.187c-.84 0-1.523.683-1.523 1.523v8.147c0 .84.683 1.523 1.523 1.523h21.187z"/><path d="M850.148 61.268h21.187c1.896 0 3.438 1.542 3.438 3.438v8.147c0 1.896-1.542 3.438-3.438 3.438h-21.187c-1.895 0-3.437-1.542-3.437-3.438v-8.147c0-1.896 1.542-3.438 3.437-3.438zm21.188 13.108c.84 0 1.523-.683 1.523-1.523v-8.147c0-.84-.683-1.523-1.523-1.523h-21.187c-.84 0-1.523.683-1.523 1.523v8.147c0 .84.683 1.523 1.523 1.523h21.187z"/><path d="M876.324 61.268h21.187c1.896 0 3.438 1.542 3.438 3.438v8.147c0 1.896-1.542 3.438-3.438 3.438h-21.187c-1.896 0-3.438-1.542-3.438-3.438v-8.147c0-1.896 1.542-3.438 3.438-3.438zm21.187 13.108c.84 0 1.523-.683 1.523-1.523v-8.147c0-.84-.683-1.523-1.523-1.523h-21.187c-.84 0-1.523.683-1.523 1.523v8.147c0 .84.683 1.523 1.523 1.523h21.187z"/><path d="M902.472 61.268h21.187c1.896 0 3.438 1.542 3.438 3.438v8.147c0 1.896-1.542 3.438-3.438 3.438h-21.187c-1.896 0-3.438-1.542-3.438-3.438v-8.147c0-1.896 1.542-3.438 3.438-3.438zm21.187 13.108c.84 0 1.523-.683 1.523-1.523v-8.147c0-.84-.683-1.523-1.523-1.523h-21.187c-.84 0-1.523.683-1.523 1.523v8.147c0 .84.683 1.523 1.523 1.523h21.187z"/><path d="M928.625 61.268h21.187c1.895 0 3.437 1.542 3.437 3.438v8.147c0 1.896-1.542 3.438-3.437 3.438h-21.187c-1.896 0-3.438-1.542-3.438-3.438v-8.147c0-1.896 1.542-3.438 3.438-3.438zm21.187 13.108c.84 0 1.523-.683 1.523-1.523v-8.147c0-.84-.683-1.523-1.523-1.523h-21.187c-.84 0-1.523.683-1.523 1.523v8.147c0 .84.683 1.523 1.523 1.523h21.187z"/><path d="M954.772,61.268h21.187c1.896,0,3.438,1.542,3.438,3.438v8.147c0,1.896-1.542,3.438-3.438,3.438h-21.187c-1.896,0-3.438-1.542-3.438-3.438v-8.147c0-1.896,1.542-3.438,3.438-3.438ZM975.96,74.376c.84,0,1.523-.683,1.523-1.523v-8.147c0-.84-.683-1.523-1.523-1.523h-21.187c-.84,0-1.523.683-1.523,1.523v8.147c0,.84.683,1.523,1.523,1.523h21.187Z"/><path d="M980.948 61.268h21.187c1.896 0 3.438 1.542 3.438 3.438v8.147c0 1.896-1.542 3.438-3.438 3.438h-21.187c-1.896 0-3.438-1.542-3.438-3.438v-8.147c0-1.896 1.542-3.438 3.438-3.438zm21.187 13.108c.84 0 1.523-.683 1.523-1.523v-8.147c0-.84-.683-1.523-1.523-1.523h-21.187c-.84 0-1.523.683-1.523 1.523v8.147c0 .84.683 1.523 1.523 1.523h21.187zM758.598-4.273h21.187c1.896 0 3.438 1.542 3.438 3.438v8.147c0 1.896-1.542 3.438-3.438 3.438h-21.187c-1.896 0-3.438-1.542-3.438-3.438V-.836c0-1.896 1.542-3.438 3.438-3.438zm21.188 13.108c.84 0 1.523-.683 1.523-1.523V-.836c0-.84-.683-1.523-1.523-1.523h-21.187c-.84 0-1.523.683-1.523 1.523v8.148c0 .84.683 1.523 1.523 1.523h21.187z"/><path d="M784.716-4.273h21.187c1.896,0,3.438,1.542,3.438,3.438V7.312c0,1.896-1.542,3.438-3.438,3.438h-21.187c-1.896,0-3.438-1.542-3.438-3.438V-.836c0-1.896,1.542-3.438,3.438-3.438ZM805.903,8.835c.84,0,1.523-.683,1.523-1.523V-.836c0-.84-.683-1.523-1.523-1.523h-21.187c-.84,0-1.523.683-1.523,1.523V7.312c0,.84.683,1.523,1.523,1.523h21.187Z"/><path d="M810.864-4.273h21.187c1.896,0,3.438,1.542,3.438,3.438V7.312c0,1.896-1.542,3.438-3.438,3.438h-21.187c-1.896,0-3.438-1.542-3.438-3.438V-.836c0-1.896,1.542-3.438,3.438-3.438ZM832.051,8.835c.84,0,1.523-.683,1.523-1.523V-.836c0-.84-.683-1.523-1.523-1.523h-21.187c-.84,0-1.523.683-1.523,1.523V7.312c0,.84.683,1.523,1.523,1.523h21.187Z"/><path d="M823.956 8.835h21.187c1.896 0 3.438 1.542 3.438 3.438v8.147c0 1.896-1.542 3.438-3.438 3.438h-21.187c-1.896 0-3.438-1.542-3.438-3.438v-8.147c0-1.896 1.542-3.438 3.438-3.438zm21.187 13.108c.84 0 1.523-.683 1.523-1.523v-8.147c0-.84-.683-1.523-1.523-1.523h-21.187c-.84 0-1.523.683-1.523 1.523v8.147c0 .84.683 1.523 1.523 1.523h21.187z"/><use href="#X"/><path d="M797.808 8.835h21.187c1.896 0 3.438 1.542 3.438 3.438v8.147c0 1.896-1.542 3.438-3.438 3.438h-21.187c-1.896 0-3.438-1.542-3.438-3.438v-8.147c0-1.896 1.542-3.438 3.438-3.438zm21.187 13.108c.84 0 1.523-.683 1.523-1.523v-8.147c0-.84-.683-1.523-1.523-1.523h-21.187c-.84 0-1.523.683-1.523 1.523v8.147c0 .84.683 1.523 1.523 1.523h21.187zm-60.397 0h21.187c1.896 0 3.438 1.542 3.438 3.438v8.147c0 1.896-1.542 3.438-3.438 3.438h-21.187c-1.896 0-3.438-1.542-3.438-3.438v-8.147c0-1.896 1.542-3.438 3.438-3.438zm21.188 13.108c.84 0 1.523-.683 1.523-1.523v-8.147c0-.84-.683-1.523-1.523-1.523h-21.187c-.84 0-1.523.683-1.523 1.523v8.147c0 .84.683 1.523 1.523 1.523h21.187z"/><path d="M784.716 21.943h21.187c1.896 0 3.438 1.542 3.438 3.438v8.147c0 1.896-1.542 3.438-3.438 3.438h-21.187c-1.896 0-3.438-1.542-3.438-3.438v-8.147c0-1.896 1.542-3.438 3.438-3.438zm21.187 13.108c.84 0 1.523-.683 1.523-1.523v-8.147c0-.84-.683-1.523-1.523-1.523h-21.187c-.84 0-1.523.683-1.523 1.523v8.147c0 .84.683 1.523 1.523 1.523h21.187z"/><path d="M810.864 21.943h21.187c1.896 0 3.438 1.542 3.438 3.438v8.147c0 1.896-1.542 3.438-3.438 3.438h-21.187c-1.896 0-3.438-1.542-3.438-3.438v-8.147c0-1.896 1.542-3.438 3.438-3.438zm21.187 13.108c.84 0 1.523-.683 1.523-1.523v-8.147c0-.84-.683-1.523-1.523-1.523h-21.187c-.84 0-1.523.683-1.523 1.523v8.147c0 .84.683 1.523 1.523 1.523h21.187z"/><path d="M823.956 35.051h21.187c1.896 0 3.438 1.542 3.438 3.438v8.147c0 1.896-1.542 3.438-3.438 3.438h-21.187c-1.896 0-3.438-1.542-3.438-3.438v-8.147c0-1.896 1.542-3.438 3.438-3.438zm21.187 13.108c.84 0 1.523-.683 1.523-1.523v-8.147c0-.84-.683-1.523-1.523-1.523h-21.187c-.84 0-1.523.683-1.523 1.523v8.147c0 .84.683 1.523 1.523 1.523h21.187zm-73.484-13.108h21.187c1.896 0 3.438 1.542 3.438 3.438v8.147c0 1.896-1.542 3.438-3.438 3.438h-21.187c-1.896 0-3.438-1.542-3.438-3.438v-8.147c0-1.896 1.542-3.438 3.438-3.438zm21.188 13.108c.84 0 1.523-.683 1.523-1.523v-8.147c0-.84-.683-1.523-1.523-1.523H771.66c-.84 0-1.523.683-1.523 1.523v8.147c0 .84.683 1.523 1.523 1.523h21.187z"/><path d="M797.808 35.051h21.187c1.896 0 3.438 1.542 3.438 3.438v8.147c0 1.896-1.542 3.438-3.438 3.438h-21.187c-1.896 0-3.438-1.542-3.438-3.438v-8.147c0-1.896 1.542-3.438 3.438-3.438zm21.187 13.108c.84 0 1.523-.683 1.523-1.523v-8.147c0-.84-.683-1.523-1.523-1.523h-21.187c-.84 0-1.523.683-1.523 1.523v8.147c0 .84.683 1.523 1.523 1.523h21.187zm-60.397 0h21.187c1.896 0 3.438 1.542 3.438 3.438v8.147c0 1.896-1.542 3.438-3.438 3.438h-21.187c-1.896 0-3.438-1.542-3.438-3.438v-8.147c0-1.896 1.542-3.438 3.438-3.438zm21.188 13.109c.84 0 1.523-.683 1.523-1.523v-8.147c0-.84-.683-1.523-1.523-1.523h-21.187c-.84 0-1.523.683-1.523 1.523v8.147c0 .84.683 1.523 1.523 1.523h21.187z"/><path d="M784.716 48.159h21.187c1.896 0 3.438 1.542 3.438 3.438v8.147c0 1.896-1.542 3.438-3.438 3.438h-21.187c-1.896 0-3.438-1.542-3.438-3.438v-8.147c0-1.896 1.542-3.438 3.438-3.438zm21.187 13.109c.84 0 1.523-.683 1.523-1.523v-8.147c0-.84-.683-1.523-1.523-1.523h-21.187c-.84 0-1.523.683-1.523 1.523v8.147c0 .84.683 1.523 1.523 1.523h21.187z"/><path d="M810.864 48.159h21.187c1.896 0 3.438 1.542 3.438 3.438v8.147c0 1.896-1.542 3.438-3.438 3.438h-21.187c-1.896 0-3.438-1.542-3.438-3.438v-8.147c0-1.896 1.542-3.438 3.438-3.438zm21.187 13.109c.84 0 1.523-.683 1.523-1.523v-8.147c0-.84-.683-1.523-1.523-1.523h-21.187c-.84 0-1.523.683-1.523 1.523v8.147c0 .84.683 1.523 1.523 1.523h21.187z"/><path d="M823.956 61.268h21.187c1.896 0 3.438 1.542 3.438 3.438v8.147c0 1.896-1.542 3.438-3.438 3.438h-21.187c-1.896 0-3.438-1.542-3.438-3.438v-8.147c0-1.896 1.542-3.438 3.438-3.438zm21.187 13.108c.84 0 1.523-.683 1.523-1.523v-8.147c0-.84-.683-1.523-1.523-1.523h-21.187c-.84 0-1.523.683-1.523 1.523v8.147c0 .84.683 1.523 1.523 1.523h21.187zm-73.484-13.108h21.187c1.896 0 3.438 1.542 3.438 3.438v8.147c0 1.896-1.542 3.438-3.438 3.438h-21.187c-1.896 0-3.438-1.542-3.438-3.438v-8.147c0-1.896 1.542-3.438 3.438-3.438zm21.188 13.108c.84 0 1.523-.683 1.523-1.523v-8.147c0-.84-.683-1.523-1.523-1.523H771.66c-.84 0-1.523.683-1.523 1.523v8.147c0 .84.683 1.523 1.523 1.523h21.187z"/><path d="M797.808 61.268h21.187c1.896 0 3.438 1.542 3.438 3.438v8.147c0 1.896-1.542 3.438-3.438 3.438h-21.187c-1.896 0-3.438-1.542-3.438-3.438v-8.147c0-1.896 1.542-3.438 3.438-3.438zm21.187 13.108c.84 0 1.523-.683 1.523-1.523v-8.147c0-.84-.683-1.523-1.523-1.523h-21.187c-.84 0-1.523.683-1.523 1.523v8.147c0 .84.683 1.523 1.523 1.523h21.187z"/></g></g><g opacity=".331" fill="#00703a"><use href="#Y"/><use href="#Z"/><path d="M96.486 62.953c1.232 0 2.231-1 2.231-2.236V56.05c0-1.236-.999-2.236-2.231-2.236s-2.231 1-2.231 2.236v4.667c0 1.236.999 2.236 2.231 2.236zM62.817 81.432c1.232 0 2.231-1 2.231-2.236v-7.001c0-1.236-.999-2.236-2.231-2.236s-2.231 1-2.231 2.236v7.001c0 1.236.999 2.236 2.231 2.236z"/><use href="#a"/><path d="M71.355 81.432c1.232 0 2.231-1 2.231-2.236v-4.669c0-1.236-.999-2.236-2.231-2.236s-2.231 1-2.231 2.236v4.669c0 1.236.999 2.236 2.231 2.236zM54.184 42.726c1.232 0 2.231-1 2.231-2.236v-7.001c0-1.236-.999-2.236-2.231-2.236s-2.231 1-2.231 2.236v7.001c0 1.236.999 2.236 2.231 2.236z"/><use href="#b"/><path d="M62.722,42.726c1.232,0,2.231-1,2.231-2.236v-4.669c0-1.236-.999-2.236-2.231-2.236s-2.231,1-2.231,2.236v4.669c0,1.236.999,2.236,2.231,2.236Z"/></g><g opacity=".331" fill="#00703a"><path d="M955.244 67.815c1.232 0 2.231-1 2.231-2.236v-7.001c0-1.236-.999-2.236-2.231-2.236s-2.231 1-2.231 2.236v7.001c0 1.236.999 2.236 2.231 2.236z"/><use href="#c"/><path d="M963.782 67.815c1.232 0 2.231-1 2.231-2.236v-4.667c0-1.236-.999-2.236-2.231-2.236s-2.231 1-2.231 2.236v4.667c0 1.236.999 2.236 2.231 2.236zm-33.669 18.479c1.232 0 2.231-1 2.231-2.236v-7.001c0-1.236-.999-2.236-2.231-2.236s-2.231 1-2.231 2.236v7.001c0 1.236.999 2.236 2.231 2.236zm-9.314 0c1.232 0 2.231-1 2.231-2.236v-4.669c0-1.236-.999-2.236-2.231-2.236s-2.231 1-2.231 2.236v4.669c0 1.236.999 2.236 2.231 2.236zm17.852 0c1.232 0 2.231-1 2.231-2.236v-4.669c0-1.236-.999-2.236-2.231-2.236s-2.231 1-2.231 2.236v4.669c0 1.236.999 2.236 2.231 2.236zM921.48 47.588c1.232 0 2.231-1 2.231-2.236v-7.001c0-1.236-.999-2.236-2.231-2.236s-2.231 1-2.231 2.236v7.001c0 1.236.999 2.236 2.231 2.236zm-9.315 0c1.232 0 2.231-1 2.231-2.236v-4.669c0-1.236-.999-2.236-2.231-2.236s-2.231 1-2.231 2.236v4.669c0 1.236.999 2.236 2.231 2.236zm17.852 0c1.232 0 2.231-1 2.231-2.236v-4.669c0-1.236-.999-2.236-2.231-2.236s-2.231 1-2.231 2.236v4.669c0 1.236.999 2.236 2.231 2.236z"/></g><path d="M1013.491 119.458h500.625v143.036h-500.625z" fill="#fff"/><use href="#d" fill="#9fc0d6"/><path d="M1013.491 53.048h500.625v56.193h-500.625z" fill="#56569c"/><g fill="#fff" class="B"><use href="#e"/><path d="M1120.768 83.699l35.759 25.542h-71.518l35.759-25.542z"/><path d="M1192.286 83.699l35.759 25.542h-71.518l35.759-25.542z"/><path d="M1263.803 83.699l35.759 25.542h-71.517l35.758-25.542z"/><path d="M1335.321 83.699l35.759 25.542h-71.518l35.759-25.542z"/><path d="M1406.839 83.699l35.759 25.542h-71.518l35.759-25.542z"/><path d="M1478.357 83.699l35.759 25.542h-71.518l35.759-25.542z"/></g><g fill="#56569c" class="B"><use href="#f"/><path d="M1263.803 27.506l35.759 25.542v56.193l-35.759-25.542V27.506zm71.518 0l35.759 25.542v56.193l-35.759-25.542V27.506zm71.518 0l35.759 25.542v56.193l-35.759-25.542V27.506zm71.518 0l35.759 25.542v56.193l-35.759-25.542V27.506zm-357.589 0l35.759 25.542v56.193l-35.759-25.542V27.506zm-71.518 0l35.759 25.542v56.193l-35.759-25.542V27.506z"/></g><g fill="#4a4c8b" class="B"><use href="#g"/><path d="M1120.768 50.494l35.759 25.542v10.217l-35.759-25.542V50.494zm71.518 0l35.759 25.542v10.217l-35.759-25.542V50.494zm71.517 0l35.759 25.542v10.217l-35.759-25.542V50.494zm71.518 0l35.759 25.542v10.217l-35.759-25.542V50.494zm71.518 0l35.759 25.542v10.217l-35.759-25.542V50.494zm71.518 0l35.759 25.542v10.217l-35.759-25.542V50.494z"/></g><g fill="#3c3e7c" class="B"><use href="#h"/><path d="M1263.803 27.506l-35.758 25.542v56.193l35.758-25.542V27.506zm71.518 0l-35.759 25.542v56.193l35.759-25.542V27.506zm71.518 0l-35.759 25.542v56.193l35.759-25.542V27.506zm71.518 0l-35.759 25.542v56.193l35.759-25.542V27.506zm-357.589 0l-35.759 25.542v56.193l35.759-25.542V27.506zm-71.518 0l-35.759 25.542v56.193l35.759-25.542V27.506z"/></g><path d="M1013.491 119.458h500.625v40.867h-500.625z" fill="#fff"/><g fill="#e2ecf2"><use href="#i"/><path d="M1064.575 119.458h10.217v40.867h-10.217zm40.868 0h10.217v40.867h-10.217zm40.867 0h10.217v40.867h-10.217zm40.867 0h10.217v40.867h-10.217zm40.868 0h10.217v40.867h-10.217zm40.867 0h10.217v40.867h-10.217zm40.867 0h10.217v40.867h-10.217zm40.868 0h10.217v40.867h-10.217zm40.867 0h10.217v40.867h-10.217zm40.867 0h10.217v40.867h-10.217zm40.868 0h10.217v40.867h-10.217zm-429.107 0h10.217v40.867h-10.217zm40.867 0h10.217v40.867h-10.217zm40.867 0h10.217v40.867h-10.217zm40.868 0h10.217v40.867h-10.217zm40.867 0h10.217v40.867h-10.217zm40.867 0h10.217v40.867h-10.217zm40.868 0h10.217v40.867h-10.217zm40.867 0h10.217v40.867h-10.217zm40.867 0h10.217v40.867h-10.217zm40.868 0h10.217v40.867h-10.217zm40.867 0h10.217v40.867h-10.217zm40.867 0h10.217v40.867h-10.217z"/><path d="M1013.491 119.458h500.625v10.217h-500.625z"/></g><g fill="#c7dbe7"><use href="#j"/><path d="M1064.575 119.458h10.217v10.217h-10.217zm40.868 0h10.217v10.217h-10.217zm40.867 0h10.217v10.217h-10.217zm40.867 0h10.217v10.217h-10.217zm40.868 0h10.217v10.217h-10.217zm40.867 0h10.217v10.217h-10.217zm40.867 0h10.217v10.217h-10.217zm40.868 0h10.217v10.217h-10.217zm40.867 0h10.217v10.217h-10.217zm40.867 0h10.217v10.217h-10.217zm40.868 0h10.217v10.217h-10.217zm-429.107 0h10.217v10.217h-10.217zm40.867 0h10.217v10.217h-10.217zm40.867 0h10.217v10.217h-10.217zm40.868 0h10.217v10.217h-10.217zm40.867 0h10.217v10.217h-10.217zm40.867 0h10.217v10.217h-10.217zm40.868 0h10.217v10.217h-10.217zm40.867 0h10.217v10.217h-10.217zm40.867 0h10.217v10.217h-10.217zm40.868 0h10.217v10.217h-10.217zm40.867 0h10.217v10.217h-10.217zm40.867 0h10.217v10.217h-10.217z"/></g><path d="M1105.443 119.458h30.651v40.867h-30.651z" fill="#628b9a"/><path d="M1105.443 119.458h30.651v10.217h-30.651z" fill="#3a6371"/><path d="M1411.948 119.458h61.301v40.867h-61.301z" fill="#628b9a"/><path d="M1411.948 119.458h61.301v10.217h-61.301z" fill="#3a6371"/><g fill="#32346f" class="B"><use href="#k"/><path d="M1406.839 50.494l-35.759 25.542v10.217l35.759-25.542V50.494zm-71.518 0l-35.759 25.542v10.217l35.759-25.542V50.494zm-71.518 0l-35.758 25.542v10.217l35.758-25.542V50.494zm-71.517 0l-35.759 25.542v10.217l35.759-25.542V50.494zm-71.518 0l-35.759 25.542v10.217l35.759-25.542V50.494zm-71.518 0l-35.759 25.542v10.217l35.759-25.542V50.494z"/><use href="#l" style="mix-blend-mode:multiply" class="C"/><path style="mix-blend-mode:multiply" d="M1105.443 38.454l-5.109 3.647v56.193l5.109-3.648V38.454z" class="C"/><use href="#m" style="mix-blend-mode:multiply" class="C"/><path style="mix-blend-mode:multiply" d="M1248.478 38.454l-5.108 3.647v56.193l5.108-3.648V38.454zm71.518 0l-5.108 3.647v56.193l5.108-3.648V38.454zm71.518 0l-5.108 3.647v56.193l5.108-3.648V38.454zm71.518 0l-5.109 3.647v56.193l5.109-3.648V38.454z" class="C"/><use href="#n" style="mix-blend-mode:multiply" class="C"/><use href="#o" style="mix-blend-mode:multiply" class="C"/><path style="mix-blend-mode:multiply" d="M1207.611 38.454l5.108 3.647v56.193l-5.108-3.648V38.454zm71.518 0l5.108 3.647v56.193l-5.108-3.648V38.454zm71.518 0l5.108 3.647v56.193l-5.108-3.648V38.454zm71.517 0l5.109 3.647v56.193l-5.109-3.648V38.454zm71.518 0l5.109 3.647v56.193l-5.109-3.648V38.454z" class="C"/></g></g></svg>