<svg xmlns="http://www.w3.org/2000/svg" width="1500" height="145" xmlns:v="https://vecta.io/nano"><style><![CDATA[.B{fill-rule:evenodd}.C{fill-opacity:.176}.D{fill:none}.E{opacity:.3}.F{fill:#280d2f}.G{stroke-linecap:round}.H{stroke-linejoin:round}.I{stroke-width:4.85}.J{fill:#00e2e2}.K{fill:#72709c}.L{clip-rule:evenodd}]]></style><defs><clipPath id="A"><path d="M0 0h1500v145H0z" class="D"/></clipPath><clipPath id="B"><path d="M34.742 33.927h192.223v30.291H34.742z" class="D"/></clipPath><clipPath id="C"><path d="M126.404 55.089c1.635 0 3.093-1.022 3.648-2.559l6.286-17.409a1.81 1.81 0 0 1 1.7-1.194h35.131a1.8 1.8 0 0 1 1.278.53 1.81 1.81 0 0 1 .53 1.278v16.444a2.91 2.91 0 0 0 2.91 2.91h9.684a43.47 43.47 0 0 1 30.261 12.263h0a22.22 22.22 0 0 1 6.752 15.952h0a22.22 22.22 0 0 1-6.752 15.952h0a43.47 43.47 0 0 1-30.261 12.263h-71.342a82.36 82.36 0 0 1-26.951-4.535l-48.01-16.627V76.249l48.01-16.627c8.668-3.002 17.777-4.535 26.951-4.535h10.176z" class="D L"/></clipPath><clipPath id="D"><path d="M34.742 64.218h192.223v47.301H34.742z" class="D"/></clipPath><clipPath id="E"><path d="M126.404 55.089c1.635 0 3.093-1.022 3.648-2.559l6.286-17.409a1.81 1.81 0 0 1 1.7-1.194h35.131a1.8 1.8 0 0 1 1.278.53 1.81 1.81 0 0 1 .53 1.278v16.444a2.91 2.91 0 0 0 2.91 2.91h9.684a43.47 43.47 0 0 1 30.261 12.263h0a22.22 22.22 0 0 1 6.752 15.952h0a22.22 22.22 0 0 1-6.752 15.952h0a43.47 43.47 0 0 1-30.261 12.263h-71.342a82.36 82.36 0 0 1-26.951-4.535l-48.01-16.627V76.249l48.01-16.627c8.668-3.002 17.777-4.535 26.951-4.535h10.176z" class="D L"/></clipPath><path id="F" d="M1342.575-40.008c.974-2.069.204-4.54-1.771-5.685s-4.493-.576-5.793 1.304l-16.301 23.605-28.531 2.358a4.39 4.39 0 0 0-4.022 4.381 4.39 4.39 0 0 0 4.022 4.379l28.531 2.358 16.301 23.605c1.3 1.88 3.818 2.447 5.793 1.304s2.745-3.616 1.771-5.683l-12.23-25.962 12.23-25.962z"/><path id="G" d="M61.208 88.944c-2.224 6.803-8.047 11.334-14.567 11.334h-.524V85.435h16.238l-1.147 3.509z"/><path id="H" d="M61.208 77.665c-2.224-6.803-8.047-11.334-14.567-11.334h-.524v14.843h16.238l-1.147-3.509z"/><path id="I" d="M126.404 55.089c1.635 0 3.093-1.022 3.648-2.559l6.286-17.409a1.81 1.81 0 0 1 1.7-1.194h35.131a1.8 1.8 0 0 1 1.278.53 1.81 1.81 0 0 1 .53 1.278v16.444a2.91 2.91 0 0 0 2.91 2.91h9.684a43.47 43.47 0 0 1 30.261 12.263h0a22.22 22.22 0 0 1 6.752 15.952h0a22.22 22.22 0 0 1-6.752 15.952h0a43.47 43.47 0 0 1-30.261 12.263h-71.342a82.36 82.36 0 0 1-26.951-4.535l-48.01-16.627V76.249l48.01-16.627c8.668-3.002 17.777-4.535 26.951-4.535h10.176z"/><path id="J" d="M103.573 53.641h0c0 4.534 1.801 8.882 5.007 12.088s7.554 5.007 12.088 5.007h64.12c9.494 0 17.191-7.696 17.191-17.191v-.002"/><path id="K" d="M175.55,40.915h-14.289c-1.361,0-2.464,1.103-2.464,2.464v.004c0,1.361,1.103,2.464,2.464,2.464h14.289v-4.931Z"/><path id="L" d="M115.055 115.708h-29.78l40.263-85.222 27.732-.24-38.215 85.462z"/><path id="M" d="M184.887 115.708h-29.78l40.263-85.222 27.733-.24-38.216 85.462z"/><path id="N" d="M139.861 115.708h-14.229l40.263-85.222 12.182-.24-38.216 85.462z"/><path id="O" d="M62.447 115.708H48.219l40.263-85.222 12.181-.24-38.216 85.462z"/><path id="P" d="M40.298 111.52h191.076V64.568h-15.7l3.577 4.203c1.942 2.282 3.369 4.955 4.186 7.837l.824 2.91c.214.756.323 1.537.323 2.322h0a8.52 8.52 0 0 1-8.519 8.519H40.298v21.162z"/><path id="Q" d="M103.958 116.469h0c0-4.534 1.801-8.882 5.007-12.088s7.554-5.007 12.088-5.007h64.12c9.494 0 17.191 7.696 17.191 17.191v.002"/><path id="R" d="M116.28 59.718h6.615a6.78 6.78 0 0 0 6.405-4.535l5.17-15.028c.259-.716.934-1.195 1.696-1.195l28.958.014a1.8 1.8 0 0 1 1.278.53c.34.339.53.799.53 1.278V52.93a6.79 6.79 0 0 0 6.789 6.789h18.152c8.659 0 17.102 2.703 24.151 7.732 5.276 3.764 8.439 9.806 8.55 16.272l.011-.417a22.22 22.22 0 0 0-6.752-15.952h0a43.47 43.47 0 0 0-30.262-12.263h-9.684a2.91 2.91 0 0 1-2.91-2.91V35.737c0-.48-.19-.939-.53-1.278s-.798-.53-1.278-.53h-35.131a1.81 1.81 0 0 0-1.7 1.194l-6.286 17.409c-.555 1.537-2.013 2.559-3.648 2.559h-10.176c-9.174 0-18.283 1.533-26.951 4.535l-48.01 16.627v2.975l47.854-15.277c8.78-2.803 17.942-4.23 27.159-4.23z"/><path id="S" d="M34.704 96.641c0 2.009 1.628 3.637 3.637 3.637h0c.965 0 1.89-.383 2.572-1.065s1.065-1.607 1.065-2.572V86.335h-2.667v3.377a1.39 1.39 0 0 1-.736 1.226l-2.256 1.203a3.05 3.05 0 0 0-1.615 2.692v1.807z"/><path id="T" d="M41.978,78.455h-2.667v8.365c0,.354.14.693.391.943.25.25.589.391.943.391s.693-.14.943-.391c.25-.25.391-.589.391-.943v-8.365Z"/><path id="U" d="M39.311 79.182h-.001a4.12 4.12 0 0 0-4.121 4.121v.002a4.12 4.12 0 0 0 4.121 4.121h.001v-8.244z"/><path id="V" d="M34.704 69.968a3.64 3.64 0 0 1 3.637-3.637h0c2.009 0 3.637 1.628 3.637 3.637v8.487h-2.667v-1.647c0-.459-.253-.88-.657-1.096l-2.334-1.245a3.05 3.05 0 0 1-1.615-2.692v-1.807z"/></defs><g clip-path="url(#A)"><path d="M1441.91 71.802c0-52.124-42.405-94.53-94.529-94.53h-189.184c-20.327 0-36.865-16.538-36.865-36.866v-21.344c0-53.412-43.454-96.865-96.866-96.865-25.271 0-45.831-20.56-45.831-45.831v-46.302c0-47.8-38.888-86.688-86.688-86.688H592.871c-47.8 0-86.687 38.888-86.687 86.688 0 14.716-11.972 26.688-26.688 26.688H308.287c-42.856 0-77.723 34.866-77.723 77.722 0 9.772-7.95 17.723-17.722 17.723H-25.02v311.694h1540.04v-57.559h-38.58c-19.04 0-34.53-15.49-34.53-34.53z" fill="#ffed8b" stroke="#00b365" stroke-dasharray="0 10" stroke-width="10" class="G H"/><path d="M-25.02-5110.264V-147.803h237.861c9.772,0,17.722-7.951,17.722-17.723,0-42.856,34.866-77.722,77.723-77.722h171.209c14.715,0,26.688-11.972,26.688-26.688,0-47.8,38.888-86.688,86.687-86.688h299.076c47.8,0,86.688,38.888,86.688,86.688v46.302c0,25.271,20.56,45.831,45.831,45.831,53.412,0,96.866,43.454,96.866,96.865v21.344c0,20.328,16.538,36.866,36.865,36.866h189.184c52.124,0,94.529,42.406,94.529,94.53,0,19.04,15.49,34.53,34.53,34.53h38.58v-5216.596H-25.02Z" fill="#00b365"/><path d="M1451.182 145c-41.035-16.579-49.272-51.816-49.272-72.068 0-30.067-24.462-54.529-54.529-54.529h-189.184c-42.384 0-76.865-34.482-76.865-76.866v-21.345c0-31.355-25.51-56.865-56.866-56.865-47.327 0-85.831-38.503-85.831-85.83v-46.303c0-25.743-20.944-46.688-46.688-46.688H592.87c-25.744 0-46.688 20.944-46.688 46.688 0 36.772-29.916 66.688-66.688 66.688H308.285c-20.8 0-37.723 16.922-37.723 37.722 0 31.828-25.894 57.723-57.722 57.723H-25.02V165.02h1476.202s.029-.041 0-20.02z" fill="#1ef7f1"/><g class="J"><path d="M0-70.164h162.459a93.97 93.97 0 0 1 66.447 27.523l22.903 22.903a93.97 93.97 0 0 0 66.447 27.523h164.036a93.97 93.97 0 0 1 66.447 27.523h0a93.97 93.97 0 0 0 66.447 27.523h119.436a93.97 93.97 0 0 1 66.447 27.523l54.645 54.645H0V-70.164z"/><rect x="1257.021" y="110.576" width="20.877" height="9.489" rx="4.745"/></g><path d="M1263.97 27.813h6.98v87.508h-6.98z" class="K"/><path d="M1256.679-4.52c-1.161-1.969-3.637-2.725-5.695-1.737s-3.006 3.389-2.185 5.522l10.327 26.763-14.118 24.905a4.39 4.39 0 0 0 7.238 4.932l18.014-22.25 28.686-.179c2.285-.016 4.172-1.777 4.34-4.053s-1.443-4.304-3.699-4.664l-28.341-4.513-14.568-24.726z" fill="#fff" class="B"/><rect x="1312.862" y="70.03" width="20.877" height="9.489" rx="4.745" class="J"/><path d="M1319.811-12.734h6.98v87.508h-6.98z" class="K"/><use href="#F" fill="#fff" class="B"/><rect x="1203.913" y="55.177" width="20.877" height="9.489" rx="4.745" class="J"/><path d="M1210.861-27.587h6.98v87.508h-6.98z" class="K"/><path d="M1233.625-54.861c.974-2.069.204-4.54-1.771-5.685s-4.493-.576-5.793 1.304l-16.301 23.605-28.531 2.358a4.39 4.39 0 0 0-4.022 4.381 4.39 4.39 0 0 0 4.022 4.379l28.531 2.358 16.301 23.605c1.3 1.88 3.818 2.447 5.793 1.304s2.745-3.616 1.771-5.683l-12.23-25.962 12.23-25.962z" fill="#fff" class="B"/><g clip-path="url(#B)"><g class="B F"><use href="#G"/><use href="#H"/></g><use href="#I" fill="#332e66" class="B"/><g clip-path="url(#C)"><g class="D G H I"><path d="M179.077 50.07h-52.904" stroke="#262351"/><use href="#J" stroke="#292555"/></g><use href="#K" class="B F"/><g opacity=".5" fill="#c0f2fd" class="B C"><use href="#L" class="E"/><use href="#M" class="E"/><use href="#N" class="E"/><use href="#O" class="E"/></g><use href="#P" fill="#292555" class="B"/><use href="#Q" stroke="#332e66" class="D G H I"/></g><use href="#R" style="mix-blend-mode:overlay" fill="#fff" class="C"/><g class="B"><g fill="#262351"><use href="#S"/><use href="#T"/></g><use href="#U" class="F"/><use href="#V" fill="#40387c"/></g></g><g fill="#00bcbc" class="B"><path d="M216.267 60.101l4.266-3.808a2.86 2.86 0 0 1 4.621 1.241h0c.643 1.958-.934 3.933-2.986 3.739l-5.693-.538c-.316-.03-.445-.422-.208-.633zm6.964-7.203l2.511-2.242a1.79 1.79 0 0 1 2.89.776h0a1.79 1.79 0 0 1-1.867 2.338l-3.351-.317a.32.32 0 0 1-.182-.555zm-4.813 1.682l-.102-3.559c-.039-1.363 1.333-2.318 2.597-1.809h0c1.265.509 1.591 2.149.619 3.104l-2.54 2.495a.34.34 0 0 1-.574-.231z"/></g><g class="E"><g clip-path="url(#D)"><g class="B F"><use href="#G"/><use href="#H"/></g><use href="#I" fill="#332e66" class="B"/><g clip-path="url(#E)"><g class="D G H I"><path d="M179.077 50.07h-52.904" stroke="#262351"/><use href="#J" stroke="#292555"/></g><use href="#K" class="B F"/><g opacity=".5" fill="#c0f2fd" class="B C"><use href="#L" class="E"/><use href="#M" class="E"/><use href="#N" class="E"/><use href="#O" class="E"/></g><use href="#P" fill="#292555" class="B"/><use href="#Q" stroke="#332e66" class="D G H I"/></g><use href="#R" style="mix-blend-mode:overlay" fill="#fff" class="C"/><g class="B"><g fill="#262351"><use href="#S"/><use href="#T"/></g><use href="#U" class="F"/><use href="#V" fill="#40387c"/></g></g></g></g></svg>