<svg xmlns="http://www.w3.org/2000/svg" width="1500" height="145" xmlns:v="https://vecta.io/nano"><style><![CDATA[.B{fill-rule:evenodd}.C{fill:none}.D{fill:#8fc300}.E{clip-rule:evenodd}.F{fill:#a2d500}.G{stroke-linejoin:round}.H{stroke-linecap:round}.I{fill:#5aaa00}.J{fill:#6c32e1}.K{fill:#fff}.L{fill:#91d4f1}.M{fill:#ce622b}.N{fill:#f5c844}.O{fill:#f0a039}.P{opacity:.188}.Q{opacity:.106}.R{fill:#374315}.S{fill:#de5c94}.T{fill:#0d1c1c}.U{fill:#0f2120}.V{fill:#d2f5ff}.W{fill:#009c00}.X{stroke:#007300}.Y{fill:#5697be}.Z{stroke-width:2.734}.a{stroke-width:2.213}]]></style><defs><clipPath id="A"><path d="M0 0h1500v145H0z" class="C"/></clipPath><clipPath id="B"><path d="M502.259 49.567h-11.043 0v3.312 3.313h4.417v-3.313h2.209v3.313h4.417v-3.313h0v-3.312z" class="C E"/></clipPath><clipPath id="C"><path d="M426.989 41.391a11.32 11.32 0 0 1 0-15.986 11.32 11.32 0 0 1 15.986 0 11.32 11.32 0 0 1 0 15.986 11.32 11.32 0 0 1-15.986 0zM439.26 29.12a6.06 6.06 0 0 0-8.557 0 6.06 6.06 0 0 0 0 8.556 6.06 6.06 0 0 0 8.556 0 6.06 6.06 0 0 0 0-8.557z" class="C"/></clipPath><clipPath id="D"><path d="M523.315,145.112h5.113c.632,0,1.238.251,1.685.698l1.012,1.012c.447.447,1.053.698,1.685.698h7.626v6.31l2.81,2.173,6.322-2.62,1.778-19.212-2.272-27.908-11.546-3.26-15.27-.198-5.537,4.692-5.186,12.14.79,12.656,4.89,6.224,6.1,6.594Z" class="C"/></clipPath><clipPath id="E"><path d="M492.922 141.39h7.359c.932 0 1.826.37 2.486 1.03h0c.659.659 1.553 1.03 2.486 1.03h2.014l7.834-13.348 5.4-16.976-8.966-4.411-11.841-2.823c-.015 0-13.897 3.47-13.897 3.47l-10.94 10.308c0 .279-.059 12.648.412 13.11s9.823 7.296 9.823 7.296l7.83 1.316z" class="C E"/></clipPath><clipPath id="F"><path d="M495.441 126.406c0-.171.068-.335.189-.456s.285-.189.456-.189h9.343a.64.64 0 0 1 .455.189c.121.121.189.285.189.456v13.39h-10.632v-13.39z" class="C E"/></clipPath><clipPath id="G"><rect x="494.525" y="134.976" width="12.464" height="5.098" rx=".764" class="C"/></clipPath><clipPath id="H"><circle cx="519.422" cy="100.791" r="6.66" class="C"/></clipPath><clipPath id="I"><path d="M465.458,161.68h4.227c.704,0,1.38.28,1.878.778l.056.056c.498.498,1.174.778,1.878.778h1.567c.704,0,1.38.28,1.878.778h0c.498.498,1.174.778,1.878.778h2.246l5.568,2.068,5.47-5.599-4.117-13.811-3.66-11.646-10.692-1.353-8.538,1-11.578,2.117-4.47,7.176-.941,9.94,7.705,10.534,5.353.995,4.294-4.588Z" class="C E"/></clipPath><clipPath id="J"><path d="M801.648 21.007h78.93l13.914 1.46a7.85 7.85 0 0 1 6.224 4.341c1.19 2.419 1.057 5.281-.355 7.579l-15.187 24.699c-1.219 1.986-3.383 3.195-5.713 3.195h-71.104a6.71 6.71 0 0 1-6.708-6.708V21.008z" class="C E"/></clipPath><clipPath id="K"><path d="M801.648 15.807c0-2.027.805-3.97 2.239-5.403s3.376-2.239 5.403-2.239h65.015a18.17 18.17 0 0 1 11.212 3.873l12.984 10.184c2.02 1.585 3.201 4.011 3.201 6.58s-1.181 4.996-3.201 6.58l-12.984 10.185c-3.2 2.508-7.147 3.872-11.212 3.872H809.29c-2.027 0-3.97-.805-5.403-2.239s-2.239-3.376-2.239-5.403v-25.99z" class="C E"/></clipPath><clipPath id="L"><rect x="806.034" y="-7.425" width="65.775" height="31.183" rx="3.664" class="C"/></clipPath><clipPath id="M"><path d="M1453.925-30.943c-1.418-2.237-3.879-3.592-6.523-3.592s-5.105 1.355-6.523 3.592L1421.317-.092c0 10.596 11.688 19.199 26.085 19.199s26.085-8.603 26.085-19.199l-19.562-30.851z" class="C E"/></clipPath><clipPath id="N"><path d="M1399.816-30.943c-1.418-2.237-3.879-3.592-6.523-3.592s-5.105 1.355-6.523 3.592L1367.208-.092c0 10.596 11.688 19.199 26.085 19.199s26.085-8.603 26.085-19.199l-19.562-30.851z" class="C E"/></clipPath><clipPath id="O"><path d="M1427.35-33.233a8.72 8.72 0 0 0-14.724 0L1390.55 1.584c0 11.958 13.191 21.666 29.438 21.666s29.438-9.708 29.438-21.666l-22.076-34.817z" class="C E"/></clipPath><clipPath id="P"><path d="M1094.52-29.746c-1.388-2.189-3.795-3.514-6.383-3.514a7.56 7.56 0 0 0-6.383 3.514L1062.613.441c0 10.368 11.437 18.785 25.524 18.785s25.524-8.417 25.524-18.785l-19.141-30.187z" class="C E"/></clipPath><clipPath id="Q"><path d="M170.476 116.292a2.37 2.37 0 0 1 2.366-2.367h11.588a3.46 3.46 0 0 1 3.457 3.457v9.279c0 1.307-1.059 2.366-2.366 2.366h-12.678c-1.307 0-2.366-1.06-2.366-2.366v-10.369z" class="C E"/></clipPath><clipPath id="R"><path d="M173.472 130.189h11.398l-2.211 12.779h-11.741l2.554-12.779z" class="C E"/></clipPath><clipPath id="S"><path d="M175.029 152.261h-5.861l1.78-9.293h6.246l-2.165 9.293z" class="C E"/></clipPath><clipPath id="T"><path d="M171.333 142.968h11.326v2.904h-11.326z" class="C"/></clipPath><clipPath id="U"><path d="M131.545 140.354a3.78 3.78 0 0 1 3.775 3.775 3.78 3.78 0 0 1-3.775 3.775 3.78 3.78 0 0 1-3.775-3.775 3.78 3.78 0 0 1 3.775-3.775zm0-3.776c4.167 0 7.551 3.383 7.551 7.551s-3.383 7.551-7.551 7.551-7.551-3.383-7.551-7.551 3.383-7.551 7.551-7.551z" class="C E"/></clipPath><path id="V" d="M450.365,24.37h-15.334c-.892,0-1.616-.724-1.616-1.616s.724-1.616,1.616-1.616h15.334c.892,0,1.616.724,1.616,1.616s-.724,1.616-1.616,1.616Z"/><path id="W" d="M442.999,34.743c-.892,0-1.616-.724-1.616-1.616V15.538c0-.892.724-1.616,1.616-1.616s1.616.724,1.616,1.616v17.589c0,.892-.724,1.616-1.616,1.616Z"/><path id="X" d="M528.353 116.385c1.434.485 2.203 2.043 1.719 3.479a2.74 2.74 0 0 1-3.473 1.723c-1.434-.485-2.203-2.043-1.719-3.479a2.74 2.74 0 0 1 3.473-1.723z"/><path id="Y" d="M498.095 133.826l1.245.509-2.723 6.657-1.245-.509z"/><path id="Z" d="M521.191 97.727h-3.538l-1.769 3.064 1.769 3.064h3.538l1.769-3.064-1.769-3.064z"/><path id="a" d="M947.231 15.504h-66.653"/><path id="b" d="M855.145 22.841h4.385v12.84h-4.385z"/><path id="c" d="M855.145 22.842h4.385v5.503h-4.385z"/><path id="d" d="M1053.832 139.964h0c1.074-.312 1.697-1.447 1.386-2.523l-.566-1.956a2.04 2.04 0 0 0-2.518-1.39h0c-1.074.312-1.697 1.447-1.386 2.523l.566 1.956a2.04 2.04 0 0 0 2.518 1.39z"/><path id="e" d="M87.948 59.546c1.232 0 2.231-1 2.231-2.236v-7.001c0-1.236-.999-2.236-2.231-2.236s-2.231 1-2.231 2.236v7.001c0 1.236.999 2.236 2.231 2.236z"/><path id="f" d="M53.503 78.024c1.232 0 2.231-1 2.231-2.236v-4.669c0-1.236-.999-2.236-2.231-2.236s-2.231 1-2.231 2.236v4.669c0 1.236.999 2.236 2.231 2.236z"/><path id="g" d="M1318.464 46.39l-52.131-12.165a86.87 86.87 0 0 0-39.127-.081l-53.728 12.303a23.11 23.11 0 0 0-17.95 22.525h0c0 12.762 10.346 23.108 23.108 23.108h134.577c12.762 0 23.108-10.346 23.108-23.108v-.078a23.11 23.11 0 0 0-17.857-22.503z"/><path id="h" d="M1294.1 62.992a5.97 5.97 0 0 1 5.971 5.971h.45a5.97 5.97 0 0 1 5.971-5.971"/><path id="i" d="M1483.354,89.089c2.647,0,4.793,2.146,4.793,4.793h.361c0-2.647,2.146-4.793,4.793-4.793"/><path id="j" d="M1452.669-2.388h-9.252v25.505c0 2.558 2.069 4.632 4.622 4.632h.009a4.63 4.63 0 0 0 4.622-4.632V-2.388z"/><path id="k" d="M1471.13-3.806a2.31 2.31 0 0 0-3.194-.701c-1.075.691-1.388 2.127-.7 3.204l4.95 7.754a2.31 2.31 0 0 0 3.194.701c1.075-.691 1.388-2.127.7-3.205l-4.95-7.753z"/><path id="l" d="M1452.772-48.207a7.72 7.72 0 0 0-5.95-2.804c-2.301 0-4.482 1.027-5.951 2.802-7.697 9.317-20.133 25.685-20.133 34.207 0 10.596 11.688 19.199 26.085 19.199s26.085-8.603 26.085-19.199c0-8.522-12.437-24.89-20.135-34.205z"/><path id="m" d="M1438.464 14.684c.137-1.272 1.278-2.194 2.547-2.057a2.32 2.32 0 0 1 2.052 2.553l-.425 3.958c-.137 1.272-1.278 2.194-2.547 2.057a2.32 2.32 0 0 1-2.052-2.553l.425-3.958z"/><path id="n" d="M1422.77-2.379a2.31 2.31 0 0 1 3.196-.7c1.075.691 1.387 2.126.698 3.203l-4.132 6.455a2.31 2.31 0 0 1-3.196.699c-1.075-.691-1.387-2.126-.698-3.203l4.131-6.455z"/><path id="o" d="M1449.135,5.197c0-1.28-1.037-2.318-2.313-2.318s-2.313,1.039-2.313,2.318v2.318c0,1.28,1.037,2.318,2.313,2.318s2.313-1.039,2.313-2.318v-2.318Z"/><path id="p" d="M1457.135 9.557c-.157-1.27-1.313-2.173-2.58-2.015a2.32 2.32 0 0 0-2.011 2.586l.285 2.301c.157 1.27 1.313 2.173 2.58 2.015a2.32 2.32 0 0 0 2.011-2.586l-.285-2.301z"/><path id="q" d="M1436.672 9.557c.157-1.27 1.313-2.173 2.58-2.015a2.32 2.32 0 0 1 2.011 2.586l-.285 2.301c-.157 1.27-1.313 2.173-2.58 2.015a2.32 2.32 0 0 1-2.011-2.586l.284-2.301z"/><path id="r" d="M1463.187.35c-.384-1.22-1.684-1.899-2.901-1.514a2.32 2.32 0 0 0-1.511 2.908l.974 3.098c.384 1.22 1.684 1.899 2.901 1.514a2.32 2.32 0 0 0 1.511-2.908l-.974-3.098z"/><path id="s" d="M1431.958 1.402c.384-1.22 1.684-1.899 2.901-1.514a2.32 2.32 0 0 1 1.511 2.908l-.974 3.098c-.384 1.22-1.684 1.899-2.901 1.514a2.32 2.32 0 0 1-1.511-2.908l.974-3.098z"/><path id="t" d="M1468.899-4.015a2.31 2.31 0 0 0-3.16-.848c-1.106.64-1.485 2.059-.847 3.167l2.092 3.633c.638 1.108 2.054 1.488 3.16.849s1.485-2.059.847-3.167l-2.093-3.633z"/><path id="u" d="M1426.269-4.139a2.31 2.31 0 0 1 3.16-.848c1.106.64 1.485 2.059.847 3.167l-2.093 3.633c-.638 1.108-2.054 1.488-3.16.849s-1.485-2.059-.847-3.167l2.093-3.633z"/><path id="v" d="M1453.315-39.236c-1.424-2.21-3.869-3.544-6.493-3.544s-5.069 1.335-6.493 3.544l-15.416 23.927c0 8.758 9.817 15.869 21.91 15.869s21.909-7.111 21.909-15.869l-15.416-23.927z"/><path id="w" d="M1469.373 7.102a2.31 2.31 0 0 0-3.215-.607c-1.054.721-1.326 2.165-.606 3.222l1.823 2.676a2.31 2.31 0 0 0 3.214.607c1.054-.721 1.326-2.165.606-3.222l-1.822-2.676z"/><path id="x" d="M1435.745-1.493c.376-1.223 1.672-1.909 2.892-1.532a2.32 2.32 0 0 1 1.528 2.899l-.054.175c-.377 1.222-1.672 1.909-2.892 1.532a2.32 2.32 0 0 1-1.528-2.899l.054-.175z"/><path id="y" d="M1458.355-1.493c-.376-1.223-1.672-1.909-2.892-1.532a2.32 2.32 0 0 0-1.528 2.899l.054.175c.376 1.222 1.672 1.909 2.892 1.532a2.32 2.32 0 0 0 1.528-2.899l-.054-.175z"/><path id="z" d="M1430.964 12.681c.376-1.223 1.672-1.909 2.892-1.532a2.32 2.32 0 0 1 1.528 2.899l-.92 2.99c-.376 1.223-1.672 1.909-2.892 1.532a2.32 2.32 0 0 1-1.529-2.899l.92-2.99z"/><path id="AA" d="M1441.772.729c.137-1.272 1.278-2.194 2.547-2.057a2.32 2.32 0 0 1 2.052 2.553l-.02.182c-.137 1.272-1.278 2.194-2.547 2.057a2.32 2.32 0 0 1-2.052-2.553l.02-.182z"/><path id="AB" d="M1452.328.729c-.137-1.272-1.278-2.194-2.547-2.057a2.32 2.32 0 0 0-2.052 2.553l.02.182c.137 1.272 1.278 2.194 2.547 2.057a2.32 2.32 0 0 0 2.052-2.553l-.02-.182z"/><path id="AC" d="M1426.168 7.062a2.31 2.31 0 0 1 3.196-.699c1.075.691 1.387 2.126.698 3.203l-2.758 4.308a2.31 2.31 0 0 1-3.196.699c-1.075-.691-1.387-2.126-.698-3.203l2.758-4.309z"/><path id="AD" d="M1476.08 3.948l-4.684-7.337-2.708-4.271c-.031-.363-.119-.723-.328-1.05l-.099-.154c-.206-.322-.49-.551-.799-.73l-.121-.192c.266-.517.494-1.046.685-1.587.728.428 1.655.465 2.413-.023 1.074-.691 1.387-2.126.698-3.203l-.099-.154c-.561-.876-1.607-1.213-2.559-.948l-6.068-9.418c0-.289-.048-.582-.163-.866l-.069-.17c-.027-.067-.083-.111-.115-.175a10.5 10.5 0 0 0 1.195-1.858c.58.128 1.207.035 1.746-.312 1.074-.691 1.387-2.126.698-3.203l-.099-.154c-.425-.665-1.136-.996-1.869-1.022l-12.76-19.203a4.29 4.29 0 0 0-7.144 0l-12.769 19.217c-.865-.119-1.762.247-2.264 1.031l-.099.154c-.689 1.077-.377 2.512.698 3.203.651.418 1.418.429 2.087.164.246.506.524 1.001.861 1.473l-7.124 11.057c-.83-.074-1.674.277-2.155 1.029l-.099.154c-.689 1.077-.377 2.512.698 3.203.628.404 1.365.429 2.017.194a12.88 12.88 0 0 0 .771 1.706c-.235.167-.446.375-.611.632l-.099.154c-.393.614-.428 1.333-.214 1.976l-3.191 5.032-3.699 5.779c-.689 1.077-.377 2.512.698 3.203a2.31 2.31 0 0 0 3.196-.699l.246-.385c.519 1.099 1.159 2.154 1.927 3.151l-1.295 2.024c-.689 1.077-.377 2.512.698 3.203a2.31 2.31 0 0 0 3.196-.699l.731-1.142c.746.61 1.537 1.188 2.382 1.724l-.374 1.214a2.32 2.32 0 0 0 1.529 2.898c1.22.377 2.516-.309 2.892-1.532l.129-.418c1.127.469 2.309.87 3.533 1.214l-.087.809a2.32 2.32 0 0 0 2.052 2.553c1.269.137 2.411-.785 2.547-2.057l.039-.362a35.27 35.27 0 0 0 4.724.331c1.809 0 3.575-.137 5.281-.395a2.31 2.31 0 0 0 2.24 1.135c1.114-.12 1.958-1.017 2.055-2.095a31.46 31.46 0 0 0 1.981-.654c.565.783 1.577 1.165 2.549.865 1.165-.361 1.831-1.562 1.561-2.735 1.555-.863 2.983-1.841 4.24-2.933l.066.097a2.31 2.31 0 0 0 3.214.608c1.054-.721 1.326-2.165.606-3.222l-.679-.997c.588-.827 1.086-1.692 1.507-2.585l.163.255c.688 1.078 2.119 1.392 3.193.701s1.388-2.127.7-3.205z"/><path id="AE" d="M1425.548 2.51c-.154-1.436-1.442-2.476-2.875-2.321s-2.47 1.445-2.316 2.881l.022.206c.154 1.436 1.442 2.476 2.875 2.321s2.47-1.445 2.316-2.881l-.022-.206z"/><path id="AF" d="M1098.856-.93c-.368-1.196-1.636-1.868-2.83-1.499a2.27 2.27 0 0 0-1.495 2.836l.053.172c.368 1.196 1.636 1.868 2.83 1.499a2.27 2.27 0 0 0 1.495-2.836l-.053-.171z"/><path id="AG" d="M1092.958 1.244c-.134-1.245-1.25-2.147-2.492-2.013a2.27 2.27 0 0 0-2.008 2.498l.019.178c.134 1.245 1.25 2.146 2.492 2.013a2.27 2.27 0 0 0 2.008-2.498l-.019-.178z"/><path id="AH" d="M171.069 142.774a.64.64 0 0 1 .638-.638.64.64 0 0 1 .638.638.64.64 0 0 1 .804.41.64.64 0 0 1-.41.804.64.64 0 0 1-.141.891.64.64 0 0 1-.891-.141.64.64 0 0 1-.891.141.64.64 0 0 1-.141-.891.64.64 0 0 1-.41-.804.64.64 0 0 1 .804-.41z"/></defs><g clip-path="url(#A)"><path d="M1441.91 361.802c0-52.124-42.405-94.53-94.529-94.53h-189.184c-20.327 0-36.865-16.538-36.865-36.866v-21.344c0-53.412-43.454-96.865-96.866-96.865-25.271 0-45.831-20.56-45.831-45.831V20.064c0-47.8-38.888-86.688-86.688-86.688H592.871c-47.8 0-86.687 38.888-86.687 86.688 0 14.716-11.972 26.688-26.688 26.688H308.287c-42.856 0-77.723 34.866-77.723 77.722 0 9.772-7.95 17.723-17.722 17.723H-25.02V453.89h1540.04v-57.559h-38.58c-19.04 0-34.53-15.49-34.53-34.53z" fill="#ffed8b" stroke="#00b365" stroke-dasharray="0 10" stroke-width="10" class="G H"/><path d="M-25.02-4820.264V142.197h237.861c9.772,0,17.722-7.951,17.722-17.723,0-42.856,34.866-77.722,77.723-77.722h171.209c14.715,0,26.688-11.972,26.688-26.688,0-47.8,38.888-86.688,86.687-86.688h299.076c47.8,0,86.688,38.888,86.688,86.688v46.302c0,25.271,20.56,45.831,45.831,45.831,53.412,0,96.866,43.454,96.866,96.865v21.344c0,20.328,16.538,36.866,36.865,36.866h189.184c52.124,0,94.529,42.406,94.529,94.53,0,19.04,15.49,34.53,34.53,34.53h38.58v-5216.596H-25.02Z" fill="#00b365"/><path d="M1451.182 435c-41.035-16.579-49.272-51.816-49.272-72.068 0-30.067-24.462-54.529-54.529-54.529h-189.184c-42.384 0-76.865-34.482-76.865-76.866v-21.345c0-31.355-25.51-56.865-56.866-56.865-47.327 0-85.831-38.503-85.831-85.83V21.193c0-25.743-20.944-46.688-46.688-46.688H592.87c-25.744 0-46.688 20.944-46.688 46.688 0 36.772-29.916 66.688-66.688 66.688H308.285c-20.8 0-37.723 16.922-37.723 37.722 0 31.828-25.894 57.723-57.722 57.723H-25.02V455.02h1476.202s.029-.041 0-20.02z" fill="#1ef7f1"/><g fill="#f1aa3c"><use href="#V"/><path d="M496.818,24.37h-15.334c-.892,0-1.616-.724-1.616-1.616s.724-1.616,1.616-1.616h15.334c.892,0,1.616.724,1.616,1.616s-.724,1.616-1.616,1.616Z"/></g><path d="M448.486-9.568h34.877v40.289h-34.877z" fill="#cb3c35"/><path d="M448.486-9.568h34.877V1.008h-34.877z" fill="#b72f2d"/><g class="N"><path d="M435.031,34.743c-.892,0-1.616-.724-1.616-1.616V14.937c0-.892.724-1.616,1.616-1.616h18.641c.892,0,1.616.724,1.616,1.616s-.724,1.616-1.616,1.616h-17.025v16.574c0,.892-.724,1.616-1.616,1.616Z"/><use href="#W"/><path d="M496.818 34.743c-.892 0-1.616-.724-1.616-1.616V16.553h-17.025c-.892 0-1.616-.724-1.616-1.616s.724-1.616 1.616-1.616h18.641c.892 0 1.616.724 1.616 1.616v18.19c0 .892-.724 1.616-1.616 1.616z"/><path d="M488.851,34.743c-.892,0-1.616-.724-1.616-1.616V15.538c0-.892.724-1.616,1.616-1.616s1.616.724,1.616,1.616v17.589c0,.892-.724,1.616-1.616,1.616Z"/></g><g fill="#604421"><path d="M480.075 68.587c-.413 0-.827-.158-1.143-.473l-29.258-29.259c-.631-.631-.631-1.654 0-2.285s1.654-.631 2.285 0l29.258 29.259c.631.631.631 1.654 0 2.285a1.61 1.61 0 0 1-1.143.473z"/><path d="M450.817 68.587c-.413 0-.827-.158-1.143-.473-.631-.631-.631-1.654 0-2.285l29.258-29.259c.631-.631 1.654-.631 2.285 0s.631 1.654 0 2.285l-29.258 29.259a1.61 1.61 0 0 1-1.143.473z"/></g><g fill="#76542b"><rect x="430.822" y="48.386" width="39.989" height="4.66" rx=".808" transform="matrix(0 1 -1 0 501.532 -400.1)"/><rect x="461.039" y="48.386" width="39.989" height="4.66" rx=".808" transform="matrix(0 1 -1 0 531.749 -430.317)"/></g><rect x="431.818" y="30.233" width="68.214" height="4.66" rx=".808" fill="#a47648"/><g class="L"><path d="M491.216 49.567h4.417v11.042h-4.417z"/><path d="M493.425,58.4c-1.219,0-2.208.99-2.208,2.209s.99,2.208,2.208,2.208,2.208-.989,2.208-2.208-.99-2.209-2.208-2.209Z" class="B"/><path d="M491.216 60.609h4.417v7.389h-4.417zm6.626-11.042h4.417v11.042h-4.417z"/><path d="M500.05,58.4c-1.219,0-2.208.99-2.208,2.209s.99,2.208,2.208,2.208,2.209-.989,2.209-2.208-.99-2.209-2.209-2.209Z" class="B"/><path d="M497.842 60.609h4.417v7.389h-4.417z"/><path d="M497.842 67.998h6.625v1.767h-6.625zm-8.834 0h6.625v1.767h-6.625z"/></g><g class="B"><path d="M486.247 21.877a2.9 2.9 0 0 1 2.897-2.897h14.523a2.9 2.9 0 0 1 2.897 2.897V44.25h-20.318V21.877z" fill="#0d2523"/><path d="M499.119 36.565c-.045-.109-.044-.231.001-.339s.132-.194.241-.239l2.246-.918c.109-.045.231-.044.339.001s.194.132.239.241l4.095 10.015-3.066 1.254-4.095-10.015z" class="L"/><path d="M499.119 36.565c-.093-.227.016-.485.243-.578l2.246-.918c.227-.093.485.016.578.243l1.337 3.269-3.066 1.254-1.337-3.269z" class="N"/><path d="M494.256 36.565c.045-.109.044-.231-.001-.339s-.132-.194-.241-.239l-2.246-.918c-.109-.045-.231-.044-.339.001s-.194.132-.239.241l-4.095 10.015 3.066 1.254 4.095-10.015z" class="L"/><path d="M494.256 36.565c.093-.227-.016-.485-.243-.578l-2.246-.918c-.227-.093-.485.016-.578.243l-1.337 3.269 3.066 1.254 1.337-3.269z" class="N"/><path d="M491.216 35.661c0-.178.071-.348.196-.474a.67.67 0 0 1 .473-.196h9.704c.178 0 .348.07.473.196a.67.67 0 0 1 .197.474v13.906h-11.042V35.661z" fill="#f9de50"/></g><path d="M494.529 32.783h4.417v2.208h-4.417z" fill="#4090cc"/><g class="B L"><path d="M489.726 25.327c0-.529.21-1.037.584-1.411s.882-.585 1.411-.585h10.474c.529 0 1.037.21 1.411.585s.584.882.584 1.411v5.46c0 .529-.21 1.037-.584 1.411s-.882.585-1.411.585h-10.474c-.529 0-1.037-.21-1.411-.585s-.584-.882-.584-1.411v-5.46z"/><path d="M488.658 26.312c-1.298-.032-2.378.996-2.41 2.294s.995 2.378 2.293 2.41 2.378-.995 2.41-2.294-.995-2.378-2.293-2.41z"/></g><g fill="#0d2523" class="B"><path d="M489.715 26.586h2.26a1.45 1.45 0 0 0 1.45-1.45v-1.862h-3.71v3.313zm8.473 0h6.942v-3.313h-8.392v1.862a1.45 1.45 0 0 0 1.45 1.45z"/></g><g fill="#091d1e"><rect x="493.811" y="27.382" width="1.437" height="2.901" rx=".24"/><rect x="499.994" y="27.382" width="1.437" height="2.901" rx=".24"/></g><g class="L"><circle cx="488.501" cy="45.977" r="1.656"/><path d="M498.79 42.404c.135-.072.235-.194.28-.341a.57.57 0 0 0-.043-.439l-1.014-1.907a.58.58 0 0 0-.78-.238l-9.434 5.02 1.556 2.925 9.435-5.021z" class="B"/><circle cx="504.704" cy="45.907" r="1.656"/><path d="M509.594 52.879c.062.14.066.298.011.441s-.164.257-.304.319l-1.974.876a.58.58 0 0 1-.441.011c-.142-.055-.257-.165-.32-.304l-3.325-7.585 3.029-1.343 3.325 7.586z" class="B"/></g><g clip-path="url(#B)" class="B"><path d="M502.259 49.567h-11.043 0v3.312 3.313h4.417v-3.313h2.209v3.313h4.417v-3.313h0v-3.312z" fill="#ef9035"/></g><path d="M506.578 70.719c0-2.697 2.17-4.886 4.867-4.886h0a4.89 4.89 0 0 1 4.886 4.886h0c0 2.68-2.189 4.869-4.886 4.869h0a4.87 4.87 0 0 1-4.867-4.869zm-9.771 0a4.89 4.89 0 0 1 4.886-4.886h0a4.89 4.89 0 0 1 4.886 4.886h0c0 2.68-2.189 4.869-4.886 4.869h0c-2.697 0-4.886-2.189-4.886-4.869zm-9.755 0a4.89 4.89 0 0 1 4.886-4.886h0c2.68 0 4.869 2.189 4.869 4.886h0c0 2.68-2.189 4.869-4.869 4.869h0c-2.697 0-4.886-2.189-4.886-4.869zm-9.755 0c0-2.697 2.172-4.886 4.869-4.886h0a4.89 4.89 0 0 1 4.886 4.886h0c0 2.68-2.189 4.869-4.886 4.869h0a4.87 4.87 0 0 1-4.869-4.869zm-9.772 0a4.89 4.89 0 0 1 4.886-4.886h0a4.89 4.89 0 0 1 4.886 4.886h0c0 2.68-2.189 4.869-4.886 4.869h0c-2.697 0-4.886-2.189-4.886-4.869zm-9.753 0a4.89 4.89 0 0 1 4.886-4.886h0c2.697 0 4.867 2.189 4.867 4.886h0a4.87 4.87 0 0 1-4.867 4.869h0c-2.697 0-4.886-2.189-4.886-4.869zm-9.755 0c0-2.697 2.189-4.886 4.869-4.886h0a4.89 4.89 0 0 1 4.886 4.886h0c0 2.68-2.189 4.869-4.886 4.869h0c-2.68 0-4.869-2.189-4.869-4.869zm-9.771 0a4.89 4.89 0 0 1 4.886-4.886h0a4.89 4.89 0 0 1 4.886 4.886h0c0 2.68-2.189 4.869-4.886 4.869h0c-2.697 0-4.886-2.189-4.886-4.869zm-9.755 0a4.89 4.89 0 0 1 4.886-4.886h0c2.697 0 4.869 2.189 4.869 4.886h0a4.87 4.87 0 0 1-4.869 4.869h0c-2.697 0-4.886-2.189-4.886-4.869z" fill="#fbed97"/><path d="M426.989 41.391a11.32 11.32 0 0 1 0-15.986 11.32 11.32 0 0 1 15.986 0 11.32 11.32 0 0 1 0 15.986 11.32 11.32 0 0 1-15.986 0zM439.26 29.12a6.06 6.06 0 0 0-8.557 0 6.06 6.06 0 0 0 0 8.556 6.06 6.06 0 0 0 8.556 0 6.06 6.06 0 0 0 0-8.557z" fill="#cb3c35"/><g clip-path="url(#C)" class="K"><path d="M444.917 20.169l3.225 3.225-23.165 23.165-3.225-3.225z"/><path d="M448.141 43.333l-3.225 3.225-23.165-23.165 3.225-3.225z"/></g><path d="M433.373 19.305h3.274v9.856h-3.274z" class="N"/><path d="M272.807 53.414c.471-1.625-.301-3.279-1.722-3.69s-2.957.573-3.428 2.198l-15.077 52.031 5.149 1.492 15.077-52.031z" fill="#d68d57" class="B"/><path d="M240.195 71.092a1.67 1.67 0 0 1-1.106-2.172c4.558-12.449 18.048-19.415 30.975-15.67s20.603 16.843 17.799 29.8a1.67 1.67 0 0 1-2.097 1.244l-45.571-13.203z" fill="#00e2e2"/><path d="M249.482 73.782c3.912-13.5 13.127-22.692 20.582-20.532s10.328 14.854 6.416 28.354l-26.998-7.822z" fill="#0f2d3e"/><g fill="#fbed97"><rect x="251.214" y="101.759" width="3.872" height="5.807" rx="1.935" transform="matrix(.960503 .27827 -.27827 .960503 39.123 -66.31)"/><rect x="254.933" y="102.836" width="3.872" height="5.807" rx="1.935" transform="matrix(.960503 .27827 -.27827 .960503 39.57 -67.303)"/></g><path d="M446.769 146.638h-22.021" stroke="#8dfff9" stroke-width="4.401" class="C G H"/><g clip-path="url(#D)"><g class="O"><path d="M536.421 131.867c-.661-.685-.648-1.773.039-2.438h0c.334-.323.774-.497 1.235-.491a1.73 1.73 0 0 1 1.22.529l7.927 8.214-2.486 2.409-7.935-8.222z"/><path d="M544.407 137.638c.687-.665 1.781-.647 2.445.041s.645 1.784-.041 2.449-1.781.647-2.445-.041-.646-1.784.041-2.449z"/><path d="M540.984 152.051l2.898-13.197 3.378.742-2.898 13.197z"/></g><path d="M540.432 130.383c.064-.848-.574-1.585-1.401-1.647l-10.035-.755c-.862-.065-1.603.569-1.667 1.417l-1.475 19.614 13.103.985 1.475-19.614z" fill="#212f70"/><path d="M531.25 128.149l.234-3.109 4.827.363-.234 3.109z" class="O"/><path d="M531.38 126.421l.104-1.382 4.827.363-.104 1.382z" fill="#dc802f"/><g class="O"><use href="#X"/><path d="M541.028 112.07a2.27 2.27 0 0 0-2.121-2.411l-7.052-.451a2.27 2.27 0 0 0-2.411 2.121l-.749 11.717a2.27 2.27 0 0 0 2.121 2.411l7.052.451a2.27 2.27 0 0 0 2.411-2.121l.75-11.717z"/><path d="M543.306 117.351c1.434.485 2.203 2.043 1.719 3.479a2.74 2.74 0 0 1-3.473 1.723c-1.434-.485-2.203-2.043-1.719-3.479a2.74 2.74 0 0 1 3.473-1.723z"/></g><g class="U"><path d="M543.497 109.835c.041-.645-.175-1.281-.603-1.766a2.44 2.44 0 0 0-1.675-.823l-11.35-.726a2.44 2.44 0 0 0-2.59 2.278l-.29 4.53 16.218 1.037.29-4.53zm-6.702 8.837l1.006.063-.192 2.733-1.006-.063.192-2.733zm-5.744-.432l1.006.063-.192 2.733-1.006-.063.192-2.733z"/></g><g class="O"><path d="M535.677 130.443c.458-.032.91.118 1.256.414a1.75 1.75 0 0 1 .59 1.191h0a1.73 1.73 0 0 1-1.602 1.846l-11.407.801-.237-3.451 11.4-.8z"/><path d="M526.118 132.855c.066.953-.655 1.78-1.609 1.847a1.73 1.73 0 0 1-1.846-1.604c-.065-.953.655-1.78 1.609-1.847s1.78.651 1.845 1.604z"/><path d="M518.426 120.794l3.275-1.127 4.389 12.753-3.275 1.127z"/></g></g><g clip-path="url(#E)"><g fill="#cbd0df"><path d="M495.441 139.795h4.253v6.379h-4.253zm6.379 0h4.253v6.379h-4.253z"/><path d="M495.441 139.795h10.632v3.19h-10.632z"/></g><g class="B"><path d="M490.657 113.134a2.79 2.79 0 0 1 2.79-2.79h13.983a2.79 2.79 0 0 1 2.79 2.79v21.542h-19.563v-21.542z" class="U"/><g class="J"><path d="M504.285 129.486c-.11.028-.226.011-.323-.047s-.167-.152-.195-.262l-.573-2.265c-.028-.11-.011-.226.047-.323s.152-.167.262-.195l10.1-2.554.782 3.092-10.1 2.554z"/></g></g><circle cx="513.809" cy="125.385" r="1.595" class="J"/><g class="B J"><path d="M514.834 114.948a.55.55 0 0 1 .676-.398l2.014.52c.142.037.265.129.339.256a.56.56 0 0 1 .059.421l-2.572 9.963-3.089-.797 2.573-9.964zm-17.003 13.483c.093-.066.155-.165.174-.276s-.007-.226-.073-.319l-1.35-1.906c-.066-.093-.165-.155-.276-.174s-.226.007-.319.073l-8.502 6.022 1.844 2.603 8.502-6.022z"/></g><circle cx="488.408" cy="133.151" r="1.595" class="J"/><g class="B"><path d="M486.328 122.873a.56.56 0 0 0-.289-.312.55.55 0 0 0-.424-.016l-1.951.721c-.138.051-.25.155-.312.289a.56.56 0 0 0-.016.425l3.571 9.65 2.992-1.107-3.572-9.651z" class="J"/><path d="M495.441 126.406c0-.171.068-.335.189-.456s.285-.189.456-.189h9.343a.64.64 0 0 1 .455.189c.121.121.189.285.189.456v13.39h-10.632v-13.39z" fill="#cbd0df"/></g><path d="M498.631 123.635h4.253v2.126h-4.253z" fill="#5a27d2"/><g class="B"><g class="J"><path d="M494.006 116.456a1.92 1.92 0 0 1 1.922-1.921h10.085a1.92 1.92 0 0 1 1.921 1.921v5.257a1.92 1.92 0 0 1-1.921 1.921h-10.085a1.92 1.92 0 0 1-1.922-1.921v-5.257z"/><path d="M492.978 117.404a2.27 2.27 0 0 0-2.321 2.209c-.031 1.25.958 2.289 2.208 2.32s2.29-.958 2.321-2.209-.958-2.289-2.208-2.32z"/></g><g class="U"><path d="M493.995 117.668h2.176c.771 0 1.396-.625 1.396-1.396v-1.793h-3.572v3.19zm8.159 0h6.684v-3.19h-8.08v1.793c0 .771.625 1.396 1.396 1.396z"/></g></g><g fill="#0c1c1c"><rect x="497.939" y="118.435" width="1.383" height="2.793" rx=".231"/><rect x="503.893" y="118.435" width="1.383" height="2.793" rx=".231"/></g><g clip-path="url(#F)" class="J"><path d="M502.883 122.51h4.014c.708 0 1.283.575 1.283 1.283v4.451c0 .708-.575 1.283-1.283 1.283h-2.731c-.708 0-1.283-.575-1.283-1.283v-5.734h0zm-5.536 7.018h-2.731c-.708 0-1.283-.575-1.283-1.283v-4.451c0-.708.575-1.283 1.283-1.283h4.014v5.734c0 .708-.575 1.283-1.283 1.283z"/></g><rect x="494.525" y="134.976" width="12.464" height="5.098" rx=".764" fill="#d537a8"/><g clip-path="url(#G)" fill="#ead4a9"><use href="#Y"/><path d="M501.455 133.827l1.245.509-2.723 6.657-1.245-.509zm3.36 0l1.245.509-2.723 6.657-1.245-.509z"/></g></g><g clip-path="url(#H)"><circle cx="519.422" cy="100.791" r="6.66" fill="#d748b1"/><g stroke="#901c76" stroke-miterlimit="10" stroke-width=".843" class="C"><use href="#Z"/><path d="M526.501 94.663h-3.538l-1.769 3.064 1.769 3.064h3.538l1.769-3.064-1.769-3.064z"/><path d="M521.191 91.599h-3.538l-1.769 3.064 1.769 3.064h3.538l1.769-3.064-1.769-3.064z"/><path d="M515.881 94.663h-3.538l-1.769 3.064 1.769 3.064h3.538l1.769-3.064-1.769-3.064z"/><path d="M515.881 100.791h-3.538l-1.769 3.064 1.769 3.064h3.538l1.769-3.064-1.769-3.064z"/><path d="M521.191 103.855h-3.538l-1.769 3.064 1.769 3.064h3.538l1.769-3.064-1.769-3.064z"/><path d="M526.501 100.791h-3.538l-1.769 3.064 1.769 3.064h3.538l1.769-3.064-1.769-3.064z"/></g></g><g clip-path="url(#I)"><rect x="460.804" y="139.289" width="16.478" height="13.182" rx="3.209" fill="#f1d84b"/><g fill="#0c1b1c"><path d="M464.628 139.07h10.238a3.45 3.45 0 0 1 2.42 1.004c.644.635 1.004 1.506 1.004 2.426v6.525c0 .921-.36 1.79-1.004 2.426a3.45 3.45 0 0 1-2.42 1.004h-3.803a3.77 3.77 0 0 1-2.654-1.104 3.73 3.73 0 0 1-1.098-2.644v-2.177l-2.684-7.46z"/><path d="M482.773 140.069c0-.66-.264-1.295-.728-1.764-.469-.464-1.103-.73-1.767-.73h0c-.659 0-1.297.265-1.761.73a2.5 2.5 0 0 0-.734 1.764v9.892a4.99 4.99 0 0 0 4.99 4.992h0v-14.884z"/></g><path d="M468.747 143.598a2.93 2.93 0 1 0 0 5.864 2.93 2.93 0 1 0 0-5.864z" fill="#f1d84b"/><path d="M460.452 143.066a3.99 3.99 0 0 1 3.993-3.99h3.188v4.403h-7.181v-.412z" fill="#0c1b1c"/></g><rect x="794.977" y="17.338" width="101.368" height="53.08" rx="13.761" style="mix-blend-mode:multiply" fill="#00c5c1" opacity=".4"/><path d="M840.73 54.89h-22.563" opacity=".412" stroke="#fff" stroke-width="6.769" class="C G H"/><path d="M801.648 21.007h78.93l13.914 1.46a7.85 7.85 0 0 1 6.224 4.341c1.19 2.419 1.057 5.281-.355 7.579l-15.187 24.699c-1.219 1.986-3.383 3.195-5.713 3.195h-71.104a6.71 6.71 0 0 1-6.708-6.708V21.008z" class="B K"/><g clip-path="url(#J)" class="B"><path d="M801.648 13.67h78.93l16.047 6.473c3.223 1.3 5.571 4.143 6.238 7.553a10.27 10.27 0 0 1-2.933 9.347l-12.823 12.424c-3.625 3.511-8.474 5.475-13.521 5.475h-65.23a6.71 6.71 0 0 1-6.708-6.708V13.67z" fill="#de3900"/></g><path d="M801.648 15.807c0-2.027.805-3.97 2.239-5.403s3.376-2.239 5.403-2.239h65.015a18.17 18.17 0 0 1 11.212 3.873l12.984 10.184c2.02 1.585 3.201 4.011 3.201 6.58s-1.181 4.996-3.201 6.58l-12.984 10.185c-3.2 2.508-7.147 3.872-11.212 3.872H809.29c-2.027 0-3.97-.805-5.403-2.239s-2.239-3.376-2.239-5.403v-25.99z" fill="#d4f6ff" class="B"/><g clip-path="url(#K)"><path d="M880.579-3.757h24.556v57.781h-24.556z" fill="#f54a00"/><g stroke="#4a4693" class="C G Z"><use href="#a" style="mix-blend-mode:multiply" class="P"/><path style="mix-blend-mode:multiply" d="M947.231 21.924h-66.653m66.653 6.421h-66.653m66.653 6.419h-66.653m66.653 6.42h-66.653" class="P"/></g></g><path d="M809.454 17.338h58.935c1.888 0 3.421 1.533 3.421 3.421v20.674c0 1.888-1.533 3.421-3.421 3.421h-58.935c-1.887 0-3.42-1.532-3.42-3.42V20.758c0-1.887 1.532-3.42 3.42-3.42z" fill="#85e0f0"/><path d="M806.034 16.421h65.775v14.675h-65.775z" fill="#76d0e0"/><path d="M812.172 19.172h53.497v19.26h-53.497z" fill="#00b5bd"/><path d="M812.172 38.434h53.497v6.42h-53.497z" fill="#00ced6"/><use href="#b" class="K"/><use href="#c" class="V"/><path d="M836.728 22.841h4.385v12.84h-4.385z" class="K"/><path d="M836.728 22.842h4.385v5.503h-4.385z" class="V"/><path d="M818.311 22.841h4.385v12.84h-4.385z" class="K"/><path d="M818.311 22.842h4.385v5.503h-4.385z" class="V"/><rect x="806.034" y="-7.425" width="65.775" height="31.183" rx="3.664" fill="#de3900"/><g clip-path="url(#L)"><path d="M799.018 18.255h74.545v23.846h-74.545z" fill="#bf2c00"/><rect x="806.034" y="-7.425" width="64.02" height="29.348" rx="3.448" fill="#f54a00"/><g stroke="#4a4693" class="C G H"><g class="Z"><path style="mix-blend-mode:multiply" d="M870.932 6.332h-66.653m66.653 9.172h-66.653" class="P"/></g><g stroke-width="5.467"><path style="mix-blend-mode:multiply" d="M827.082-21.182v69.704m22.802-69.704v69.704" class="P"/></g></g><path style="mix-blend-mode:multiply" d="M805.748-7.425l66.061 31.436h-66.061V-7.425z" fill="#564fa5" opacity=".148" class="B"/></g><path d="M1032.348 83.1c-.494-1.71.315-3.45 1.807-3.883s3.104.603 3.599 2.313l15.829 54.754-5.406 1.57-15.829-54.754z" fill="#37450c" class="B"/><path d="M1066.585 101.702a1.76 1.76 0 0 0 1.162-2.286c-4.785-13.1-18.948-20.431-32.519-16.49s-21.63 17.725-18.686 31.36c.214.991 1.229 1.592 2.201 1.309l47.842-13.893z" fill="#f1879e"/><path d="M1056.835 104.533c-4.107-14.206-13.781-23.88-21.608-21.607s-10.842 15.632-6.736 29.838l28.343-8.231z" fill="#fbbed0"/><g fill="#ffec8a" class="B"><use href="#d"/><path d="M1049.928 141.098h0c1.074-.312 1.697-1.447 1.386-2.523l-.566-1.956a2.04 2.04 0 0 0-2.518-1.39h0c-1.074.312-1.697 1.447-1.386 2.523l.566 1.956a2.04 2.04 0 0 0 2.518 1.39z"/></g><path d="M93.053 128.406l.125.105c.125.11.17.193.277.329.31.44.381.964.208 1.428.026.124-.024.208-.071.292l-.076.131-16.835 29.157-4.042.018 17.853-30.92.076-.131c.071-.127.147-.257.287-.34.402-.367.959-.521 1.532-.378.161.043.246.06.388.138l.142.081c.069.045.066.05.135.089z" fill="#f2c100"/><path d="M106.528 154.634c6.919-11.982 2.815-27.298-9.167-34.216a25.05 25.05 0 0 0-34.216 9.168l43.383 25.048z" fill="#0ff"/><path d="M38.361,141.204c0-1.361,1.105-2.465,2.465-2.465h10.24c1.36,0,2.465,1.104,2.465,2.465v4.93c0,1.361-1.105,2.465-2.465,2.465h-10.24c-1.36,0-2.465-1.104-2.465-2.465v-4.93Z" fill="#f79712"/><g fill="#071c1c"><path d="M45.7 138.424h5.741a2.62 2.62 0 0 1 1.839.763c.49.483.763 1.144.763 1.844v4.959c0 .7-.274 1.361-.763 1.844s-1.15.763-1.839.763h-2.89c-.756 0-1.481-.305-2.017-.839a2.84 2.84 0 0 1-.834-2.009v-7.324zm12.146.76c0-.502-.201-.984-.553-1.341a1.91 1.91 0 0 0-1.343-.554h0a1.9 1.9 0 0 0-1.339.554c-.357.357-.558.839-.558 1.341v7.518c0 2.097 1.699 3.794 3.793 3.794h0v-11.311z"/></g><path d="M46.79,141.865c-1.231,0-2.228.997-2.228,2.228s.997,2.228,2.228,2.228,2.228-.998,2.228-2.228-.997-2.228-2.228-2.228Z" fill="#f79712"/><g fill="#071c1c"><path d="M36.729 141.461c0-1.673 1.357-3.033 3.035-3.033h6.18v3.346H36.73v-.313zm3.898 2.352a.33.33 0 0 1 .33-.334h.664c.186 0 .334.148.334.334v2.177c0 .186-.148.334-.334.334h-.664a.33.33 0 0 1-.33-.334v-2.177z"/></g><g opacity=".331" fill="#00703a"><use href="#e"/><path d="M78.634 59.546c1.232 0 2.231-1 2.231-2.236v-4.667c0-1.236-.999-2.236-2.231-2.236s-2.231 1-2.231 2.236v4.667c0 1.236.999 2.236 2.231 2.236zm17.852 0c1.232 0 2.231-1 2.231-2.236v-4.667c0-1.236-.999-2.236-2.231-2.236s-2.231 1-2.231 2.236v4.667c0 1.236.999 2.236 2.231 2.236zM62.817 78.024c1.232 0 2.231-1 2.231-2.236v-7.001c0-1.236-.999-2.236-2.231-2.236s-2.231 1-2.231 2.236v7.001c0 1.236.999 2.236 2.231 2.236z"/><use href="#f"/><path d="M71.355 78.024c1.232 0 2.231-1 2.231-2.236v-4.669c0-1.236-.999-2.236-2.231-2.236s-2.231 1-2.231 2.236v4.669c0 1.236.999 2.236 2.231 2.236zM54.184 39.319c1.232 0 2.231-1 2.231-2.236v-7.001c0-1.236-.999-2.236-2.231-2.236s-2.231 1-2.231 2.236v7.001c0 1.236.999 2.236 2.231 2.236zm-9.315 0c1.232 0 2.231-1 2.231-2.236v-4.669c0-1.236-.999-2.236-2.231-2.236s-2.231 1-2.231 2.236v4.669c0 1.236.999 2.236 2.231 2.236zm17.853 0c1.232 0 2.231-1 2.231-2.236v-4.669c0-1.236-.999-2.236-2.231-2.236s-2.231 1-2.231 2.236v4.669c0 1.236.999 2.236 2.231 2.236z"/></g><rect x="1206.813" y="106.811" width="78.222" height="12.412" rx="6.206" class="Q"/><path d="M1253.909 110.244V71.061c0-.797-.646-1.443-1.443-1.443h-13.084c-.797 0-1.443.646-1.443 1.443v39.252c.52.107 1.018.299 1.398.671a2.96 2.96 0 0 1 .817 2.034h.057a2.85 2.85 0 1 1 5.702 0h.038a2.85 2.85 0 1 1 5.702 0h.038c0-1.356.957-2.482 2.216-2.773z" fill="#55571b"/><g stroke="#374315" stroke-width="2.369" class="C G H"><path d="M1250.169 82.075v17.256m-4.237-9.083v17.256m-4.236-21.558v17.256"/></g><use href="#g" class="B W"/><g class="C G H X a"><use href="#h"/><path d="M1240.988 41.07a5.97 5.97 0 0 1 5.971 5.971h.45a5.97 5.97 0 0 1 5.971-5.971m57.37 32.961a5.97 5.97 0 0 1 5.971 5.971h.45a5.97 5.97 0 0 1 5.971-5.971m-110.787 0a5.97 5.97 0 0 1 5.971 5.971h.45a5.97 5.97 0 0 1 5.971-5.971"/><path d="M1213.52 56.046a5.97 5.97 0 0 1 5.971 5.971m57.633-9.865a5.97 5.97 0 0 1 5.971-5.971m-38.897 29.923a5.97 5.97 0 0 1 5.971 5.971m-72.013-26.029a5.97 5.97 0 0 1 5.971 5.971h.45a5.97 5.97 0 0 1 5.971-5.971m-10.553 20.058a5.97 5.97 0 0 1 5.971 5.971h.45a5.97 5.97 0 0 1 5.971-5.971m77.218-2.073a5.97 5.97 0 0 1 5.971 5.971h.45a5.97 5.97 0 0 1 5.971-5.971m-31.397-15a5.97 5.97 0 0 1 5.971 5.971h.45a5.97 5.97 0 0 1 5.971-5.971"/></g><path d="M1415.652 143.579l-52.131-12.165a86.87 86.87 0 0 0-39.127-.081l-53.728 12.303a23.11 23.11 0 0 0-17.95 22.525h0c0 12.762 10.346 23.108 23.108 23.108h134.577c12.762 0 23.108-10.346 23.108-23.108v-.078a23.11 23.11 0 0 0-17.857-22.503z" class="B W"/><g class="C G H X a"><path d="M1338.177 138.258a5.97 5.97 0 0 1 5.971 5.971h.45a5.97 5.97 0 0 1 5.971-5.971m23.744 11.083a5.97 5.97 0 0 1 5.971-5.971"/></g><rect x="1399.918" y="115.403" width="62.793" height="9.964" rx="4.982" class="Q"/><path d="M1437.724 118.159V86.705a1.16 1.16 0 0 0-1.158-1.158h-10.503a1.16 1.16 0 0 0-1.158 1.158v31.509c.417.086.817.24 1.122.539.412.427.656 1.022.656 1.633h.046c0-1.266 1.022-2.289 2.289-2.289s2.289 1.023 2.289 2.289h.031c0-1.266 1.022-2.289 2.289-2.289s2.289 1.023 2.289 2.289h.031c0-1.088.768-1.993 1.779-2.226z" fill="#55571b"/><g stroke="#374315" stroke-width="1.902" class="C G H"><path d="M1434.722 95.546v13.852m-3.401-7.291v13.852m-3.401-17.306v13.852"/></g><path d="M1489.546 66.9l-41.848-9.765c-10.328-2.41-21.071-2.432-31.409-.065l-43.131 9.876c-8.431 1.931-14.41 9.432-14.41 18.082h0c0 10.245 8.305 18.55 18.55 18.55h108.032c10.245 0 18.55-8.305 18.55-18.55v-.063a18.55 18.55 0 0 0-14.335-18.065z" class="B W"/><g stroke-width="1.777" class="C G H X"><path d="M1469.988 80.227c2.647 0 4.793 2.146 4.793 4.793h.361c0-2.647 2.146-4.793 4.793-4.793m-52.583-17.598c2.647 0 4.793 2.146 4.793 4.793h.361c0-2.647 2.146-4.793 4.793-4.793"/><use href="#i"/><path d="M1404.367 89.089c2.647 0 4.793 2.146 4.793 4.793h.361c0-2.647 2.146-4.793 4.793-4.793m-9.012-14.438c2.647 0 4.793 2.146 4.793 4.793m46.265-7.918c0-2.647 2.146-4.793 4.793-4.793m-31.224 24.02c2.647 0 4.793 2.146 4.793 4.793m-57.808-20.895c2.647 0 4.793 2.146 4.793 4.793h.361c0-2.647 2.146-4.793 4.793-4.793m-8.471 16.102c2.647 0 4.793 2.146 4.793 4.793h.361c0-2.647 2.146-4.793 4.793-4.793m61.988-1.664c2.647 0 4.793 2.146 4.793 4.793h.361c0-2.647 2.146-4.793 4.793-4.793m-25.204-12.041c2.647 0 4.793 2.146 4.793 4.793h.361c0-2.647 2.146-4.793 4.793-4.793"/></g><rect x="1378.286" y="24.1" width="84.853" height="13.464" rx="6.732" class="Q"/><g class="B"><use href="#j" class="R"/><g class="D"><use href="#k"/><path d="M1453.925-30.943c-1.418-2.237-3.879-3.592-6.523-3.592s-5.105 1.355-6.523 3.592L1421.317-.092c0 10.596 11.688 19.199 26.085 19.199s26.085-8.603 26.085-19.199l-19.562-30.851z"/></g></g><g clip-path="url(#M)" class="B I"><use href="#l"/></g><g class="B"><g class="D"><use href="#m"/><use href="#n"/></g><g class="I"><use href="#o"/><use href="#p"/><use href="#q"/><use href="#r"/><use href="#s"/><use href="#t"/><use href="#u"/></g><use href="#v" class="F"/><use href="#w" class="D"/><g class="F"><use href="#x"/><use href="#y"/></g><g class="D"><path d="M1462.981 14.889c-.376-1.223-1.672-1.909-2.892-1.532a2.32 2.32 0 0 0-1.528 2.899l.054.175c.376 1.222 1.672 1.909 2.892 1.532a2.32 2.32 0 0 0 1.528-2.899l-.054-.175z"/><use href="#z"/></g><g class="F"><use href="#AA"/><use href="#AB"/></g><g class="D"><path d="M1456.955 17.112c-.137-1.272-1.278-2.194-2.547-2.057a2.32 2.32 0 0 0-2.052 2.553l.02.182c.137 1.272 1.278 2.194 2.547 2.057a2.32 2.32 0 0 0 2.052-2.553l-.02-.182z"/><use href="#AC"/></g><use href="#AD" fill="#548e00" opacity=".3"/><path d="M1398.561-2.388h-9.252v25.505c0 2.558 2.069 4.632 4.622 4.632h.009a4.63 4.63 0 0 0 4.622-4.632V-2.388z" class="R"/><g class="D"><path d="M1417.021-3.806a2.31 2.31 0 0 0-3.194-.701c-1.075.691-1.388 2.127-.7 3.204l4.95 7.754a2.31 2.31 0 0 0 3.194.701c1.075-.691 1.388-2.127.7-3.205l-4.95-7.753z"/><path d="M1399.816-30.943c-1.418-2.237-3.879-3.592-6.523-3.592s-5.105 1.355-6.523 3.592L1367.208-.092c0 10.596 11.688 19.199 26.085 19.199s26.085-8.603 26.085-19.199l-19.562-30.851z"/></g></g><g clip-path="url(#N)" class="B I"><path d="M1398.663-48.207a7.72 7.72 0 0 0-5.95-2.804c-2.301 0-4.482 1.027-5.951 2.802-7.697 9.317-20.133 25.685-20.133 34.207 0 10.596 11.688 19.199 26.085 19.199s26.085-8.603 26.085-19.199c0-8.522-12.437-24.89-20.135-34.205z"/></g><g class="B"><g class="D"><path d="M1384.355 14.684c.137-1.272 1.278-2.194 2.547-2.057a2.32 2.32 0 0 1 2.052 2.553l-.425 3.958c-.137 1.272-1.278 2.194-2.547 2.057a2.32 2.32 0 0 1-2.052-2.553l.425-3.958zm-15.693-17.063a2.31 2.31 0 0 1 3.196-.7c1.075.691 1.387 2.126.698 3.203l-4.132 6.455a2.31 2.31 0 0 1-3.196.699c-1.075-.691-1.387-2.126-.698-3.203l4.131-6.455z"/></g><g class="I"><path d="M1395.027 5.197c0-1.28-1.037-2.318-2.313-2.318a2.32 2.32 0 0 0-2.313 2.318v2.318c0 1.28 1.037 2.318 2.313 2.318a2.32 2.32 0 0 0 2.313-2.318V5.197zm8 4.36c-.157-1.27-1.313-2.173-2.58-2.015a2.32 2.32 0 0 0-2.011 2.586l.285 2.301c.157 1.27 1.313 2.173 2.58 2.015a2.32 2.32 0 0 0 2.011-2.586l-.285-2.301zm-20.464 0c.157-1.27 1.313-2.173 2.58-2.015a2.32 2.32 0 0 1 2.011 2.586l-.285 2.301c-.157 1.27-1.313 2.173-2.58 2.015a2.32 2.32 0 0 1-2.011-2.586l.284-2.301zM1409.079.35c-.384-1.22-1.684-1.899-2.901-1.514a2.32 2.32 0 0 0-1.511 2.908l.974 3.098c.384 1.22 1.684 1.899 2.901 1.514a2.32 2.32 0 0 0 1.511-2.908l-.974-3.098zm-31.229 1.052c.384-1.22 1.684-1.899 2.901-1.514a2.32 2.32 0 0 1 1.511 2.908l-.974 3.098c-.384 1.22-1.684 1.899-2.901 1.514a2.32 2.32 0 0 1-1.511-2.908l.974-3.098zm36.94-5.417a2.31 2.31 0 0 0-3.16-.848c-1.106.64-1.485 2.059-.847 3.167l2.092 3.633c.638 1.108 2.054 1.488 3.16.849s1.485-2.059.847-3.167l-2.093-3.633zm-42.629-.124a2.31 2.31 0 0 1 3.16-.848c1.106.64 1.485 2.059.847 3.167l-2.093 3.633c-.638 1.108-2.054 1.488-3.16.849s-1.485-2.059-.847-3.167l2.093-3.633z"/></g><path d="M1399.207-39.236c-1.424-2.21-3.869-3.544-6.493-3.544s-5.069 1.335-6.493 3.544l-15.416 23.927c0 8.758 9.817 15.869 21.91 15.869s21.909-7.111 21.909-15.869l-15.416-23.927z" class="F"/><path d="M1415.264 7.102a2.31 2.31 0 0 0-3.215-.607c-1.054.721-1.326 2.165-.606 3.222l1.823 2.676a2.31 2.31 0 0 0 3.214.607c1.054-.721 1.326-2.165.606-3.222l-1.822-2.676z" class="D"/><g class="F"><path d="M1381.637-1.493c.376-1.223 1.672-1.909 2.892-1.532a2.32 2.32 0 0 1 1.528 2.899l-.054.175c-.377 1.222-1.672 1.909-2.892 1.532a2.32 2.32 0 0 1-1.528-2.899l.054-.175zm22.61 0c-.376-1.223-1.672-1.909-2.892-1.532a2.32 2.32 0 0 0-1.528 2.899l.054.175c.376 1.222 1.672 1.909 2.892 1.532a2.32 2.32 0 0 0 1.528-2.899l-.054-.175z"/></g><g class="D"><path d="M1408.873 14.889c-.376-1.223-1.672-1.909-2.892-1.532a2.32 2.32 0 0 0-1.528 2.899l.054.175c.376 1.222 1.672 1.909 2.892 1.532a2.32 2.32 0 0 0 1.528-2.899l-.054-.175zm-32.018-2.208c.376-1.223 1.672-1.909 2.892-1.532a2.32 2.32 0 0 1 1.528 2.899l-.92 2.99c-.376 1.223-1.672 1.909-2.892 1.532a2.32 2.32 0 0 1-1.529-2.899l.92-2.99z"/></g><g class="F"><path d="M1387.664.729c.137-1.272 1.278-2.194 2.547-2.057a2.32 2.32 0 0 1 2.052 2.553l-.02.182c-.137 1.272-1.278 2.194-2.547 2.057a2.32 2.32 0 0 1-2.052-2.553l.02-.182zm10.556 0c-.137-1.272-1.278-2.194-2.547-2.057a2.32 2.32 0 0 0-2.052 2.553l.02.182c.137 1.272 1.278 2.194 2.547 2.057a2.32 2.32 0 0 0 2.052-2.553l-.02-.182z"/></g><g class="D"><path d="M1402.846 17.112c-.137-1.272-1.278-2.194-2.547-2.057a2.32 2.32 0 0 0-2.052 2.553l.02.182c.137 1.272 1.278 2.194 2.547 2.057a2.32 2.32 0 0 0 2.052-2.553l-.02-.182zm-30.786-10.05a2.31 2.31 0 0 1 3.196-.699c1.075.691 1.387 2.126.698 3.203l-2.758 4.308a2.31 2.31 0 0 1-3.196.699c-1.075-.691-1.387-2.126-.698-3.203l2.758-4.309z"/></g><path d="M1421.972 3.948l-4.684-7.337-2.708-4.271c-.031-.363-.119-.723-.328-1.05l-.099-.154c-.206-.322-.49-.551-.799-.73l-.121-.192c.266-.517.494-1.046.685-1.587.728.428 1.655.465 2.413-.023 1.074-.691 1.387-2.126.698-3.203l-.099-.154c-.561-.876-1.607-1.213-2.559-.948l-6.068-9.418c0-.289-.048-.582-.163-.866l-.069-.17c-.027-.067-.083-.111-.115-.175a10.5 10.5 0 0 0 1.195-1.858c.58.128 1.207.035 1.746-.312 1.074-.691 1.387-2.126.698-3.203l-.099-.154c-.425-.665-1.136-.996-1.869-1.022l-12.76-19.203a4.29 4.29 0 0 0-7.144 0l-12.769 19.217c-.865-.119-1.762.247-2.264 1.031l-.099.154c-.689 1.077-.377 2.512.698 3.203.651.418 1.418.429 2.087.164.246.506.524 1.001.861 1.473l-7.124 11.057c-.83-.074-1.674.277-2.155 1.029l-.099.154c-.689 1.077-.377 2.512.698 3.203.628.404 1.365.429 2.017.194a12.88 12.88 0 0 0 .771 1.706c-.235.167-.446.375-.611.632l-.099.154c-.393.614-.428 1.333-.214 1.976l-3.191 5.032-3.699 5.779c-.689 1.077-.377 2.512.698 3.203a2.31 2.31 0 0 0 3.196-.699l.246-.385c.519 1.099 1.159 2.154 1.927 3.151l-1.295 2.024c-.689 1.077-.377 2.512.698 3.203a2.31 2.31 0 0 0 3.196-.699l.731-1.142c.746.61 1.537 1.188 2.382 1.724l-.374 1.214a2.32 2.32 0 0 0 1.529 2.898c1.22.377 2.516-.309 2.892-1.532l.129-.418c1.127.469 2.309.87 3.533 1.214l-.087.809a2.32 2.32 0 0 0 2.052 2.553c1.269.137 2.411-.785 2.547-2.057l.039-.362a35.27 35.27 0 0 0 4.724.331c1.809 0 3.575-.137 5.281-.395a2.31 2.31 0 0 0 2.24 1.135c1.114-.12 1.958-1.017 2.055-2.095a31.46 31.46 0 0 0 1.981-.654c.565.783 1.577 1.165 2.549.865 1.165-.361 1.831-1.562 1.561-2.735 1.555-.863 2.983-1.841 4.24-2.933l.066.097a2.31 2.31 0 0 0 3.214.608c1.054-.721 1.326-2.165.606-3.222l-.679-.997c.588-.827 1.086-1.692 1.507-2.585l.163.255c.688 1.078 2.119 1.392 3.193.701s1.388-2.127.7-3.205z" fill="#548e00" opacity=".3"/><path d="M1425.933-1.007h-10.442v28.784c0,2.887,2.335,5.228,5.216,5.228h.01c2.881,0,5.216-2.341,5.216-5.228V-1.007Z" class="R"/><g class="D"><path d="M1446.766-2.608c-.776-1.216-2.391-1.571-3.604-.791s-1.567 2.4-.79 3.616l5.586 8.75c.776 1.216 2.391 1.571 3.604.791s1.567-2.4.79-3.617l-5.586-8.75z"/><path d="M1427.35-33.233a8.72 8.72 0 0 0-14.724 0L1390.55 1.584c0 11.958 13.191 21.666 29.438 21.666s29.438-9.708 29.438-21.666l-22.076-34.817z"/></g></g><g clip-path="url(#O)" class="B I"><path d="M1426.049-52.716c-1.657-2.004-4.119-3.164-6.715-3.164s-5.059 1.159-6.716 3.162c-8.686 10.515-22.721 28.987-22.721 38.604 0 11.958 13.191 21.666 29.438 21.666s29.438-9.708 29.438-21.666c0-9.617-14.035-28.089-22.723-38.602z"/></g><g class="B"><g class="D"><path d="M1409.902 18.258c.154-1.436 1.442-2.476 2.875-2.321s2.47 1.445 2.316 2.881l-.48 4.467c-.154 1.435-1.442 2.476-2.875 2.321s-2.47-1.445-2.316-2.881l.479-4.467zM1392.191-.997a2.61 2.61 0 0 1 3.607-.789c1.213.78 1.565 2.399.788 3.615l-4.663 7.284a2.61 2.61 0 0 1-3.606.789 2.62 2.62 0 0 1-.788-3.615l4.663-7.284z"/></g><g class="I"><path d="M1421.945 7.552c0-1.444-1.17-2.616-2.61-2.616s-2.611 1.172-2.611 2.616v2.616c0 1.444 1.17 2.616 2.611 2.616s2.61-1.172 2.61-2.616V7.552zm9.028 4.921c-.177-1.433-1.482-2.452-2.911-2.275s-2.446 1.485-2.269 2.918l.321 2.596c.177 1.433 1.482 2.452 2.911 2.275s2.447-1.485 2.269-2.918l-.321-2.596zm-23.094 0c.177-1.433 1.482-2.452 2.912-2.275s2.446 1.485 2.269 2.918l-.321 2.596c-.177 1.433-1.482 2.452-2.911 2.275s-2.447-1.485-2.269-2.918l.321-2.596zm29.924-10.391a2.61 2.61 0 0 0-3.274-1.709 2.62 2.62 0 0 0-1.705 3.282l1.099 3.496a2.61 2.61 0 0 0 3.274 1.709 2.62 2.62 0 0 0 1.705-3.282l-1.099-3.496z"/><path d="M1402.56 3.269a2.61 2.61 0 0 1 3.274-1.709 2.62 2.62 0 0 1 1.705 3.282l-1.099 3.496a2.61 2.61 0 0 1-3.274 1.709 2.62 2.62 0 0 1-1.705-3.282l1.099-3.496zm41.688-6.113a2.61 2.61 0 0 0-3.566-.958 2.62 2.62 0 0 0-.955 3.574l2.361 4.1a2.61 2.61 0 0 0 3.566.958 2.62 2.62 0 0 0 .955-3.574l-2.362-4.1zm-48.109-.14a2.61 2.61 0 0 1 3.566-.958 2.62 2.62 0 0 1 .956 3.574l-2.362 4.1a2.61 2.61 0 0 1-3.566.958 2.62 2.62 0 0 1-.955-3.574l2.362-4.1z"/></g><g class="F"><path d="M1426.662-42.592c-1.607-2.494-4.366-4-7.327-4a8.72 8.72 0 0 0-7.328 4l-17.398 27.003c0 9.884 11.079 17.909 24.726 17.909s24.725-8.025 24.725-17.909l-17.398-27.003z"/><path d="M1401.024-3.481a2.61 2.61 0 0 1 3.607-.789 2.62 2.62 0 0 1 .787 3.615l-.111.174a2.61 2.61 0 0 1-3.607.789 2.62 2.62 0 0 1-.787-3.615l.111-.174zm37.136 0a2.61 2.61 0 0 0-3.607-.789 2.62 2.62 0 0 0-.788 3.615l.111.174a2.61 2.61 0 0 0 3.607.789 2.62 2.62 0 0 0 .788-3.615l-.111-.174z"/></g><path d="M1444.783 9.701a2.61 2.61 0 0 0-3.628-.686c-1.19.814-1.496 2.443-.684 3.636l2.057 3.02a2.61 2.61 0 0 0 3.628.686c1.19-.814 1.496-2.443.684-3.636l-2.057-3.02z" class="D"/><g class="F"><path d="M1406.834.002a2.61 2.61 0 0 1 3.264-1.729 2.62 2.62 0 0 1 1.725 3.271l-.061.198a2.61 2.61 0 0 1-3.264 1.729A2.62 2.62 0 0 1 1406.773.2l.061-.198zm25.516 0a2.61 2.61 0 0 0-3.264-1.729 2.62 2.62 0 0 0-1.725 3.271l.061.198a2.61 2.61 0 0 0 3.264 1.729A2.62 2.62 0 0 0 1432.411.2l-.061-.198z"/></g><g class="D"><path d="M1437.571 18.49a2.61 2.61 0 0 0-3.264-1.729 2.62 2.62 0 0 0-1.725 3.271l.061.198a2.61 2.61 0 0 0 3.264 1.729 2.62 2.62 0 0 0 1.725-3.271l-.061-.198zm-36.133-2.492a2.61 2.61 0 0 1 3.264-1.729 2.62 2.62 0 0 1 1.725 3.271l-1.038 3.374a2.61 2.61 0 0 1-3.264 1.729 2.62 2.62 0 0 1-1.725-3.271l1.039-3.374z"/></g><g class="F"><path d="M1413.636 2.51c.154-1.436 1.442-2.476 2.875-2.321s2.47 1.445 2.316 2.881l-.022.206c-.154 1.436-1.442 2.476-2.875 2.321s-2.47-1.445-2.316-2.881l.022-.206z"/><use href="#AE"/></g><g class="D"><path d="M1430.769 20.998c-.154-1.436-1.442-2.476-2.875-2.321s-2.47 1.445-2.316 2.881l.022.206c.154 1.436 1.442 2.476 2.875 2.321s2.47-1.445 2.316-2.881l-.022-.206zm-34.743-11.342a2.61 2.61 0 0 1 3.607-.789 2.62 2.62 0 0 1 .787 3.615l-3.112 4.862a2.61 2.61 0 0 1-3.607.789 2.62 2.62 0 0 1-.787-3.615l3.112-4.862z"/></g></g><rect x="1071.946" y="25.121" width="32.3" height="5.125" rx="2.563" class="Q"/><g class="B"><path d="M1093.292-1.805h-9.053v24.956a4.53 4.53 0 0 0 4.522 4.533h.008c2.498 0 4.522-2.029 4.522-4.533V-1.805z" class="R"/><g class="D"><path d="M1111.355-3.193a2.26 2.26 0 0 0-3.125-.686c-1.051.676-1.358 2.081-.685 3.135l4.844 7.587a2.26 2.26 0 0 0 3.125.686c1.051-.676 1.358-2.081.685-3.136l-4.844-7.586z"/><path d="M1094.52-29.746c-1.388-2.189-3.795-3.514-6.383-3.514a7.56 7.56 0 0 0-6.383 3.514L1062.613.441c0 10.368 11.437 18.785 25.524 18.785s25.524-8.417 25.524-18.785l-19.141-30.187z"/></g></g><g clip-path="url(#P)" class="B I"><path d="M1093.392-46.638a7.56 7.56 0 0 0-11.645-.002c-7.531 9.117-19.7 25.132-19.7 33.471 0 10.368 11.437 18.785 25.524 18.785s25.523-8.417 25.523-18.785c0-8.339-12.169-24.354-19.702-33.469z"/></g><g class="B"><g class="D"><path d="M1079.392 14.898c.134-1.245 1.251-2.146 2.492-2.013a2.27 2.27 0 0 1 2.008 2.498l-.416 3.873c-.134 1.245-1.25 2.146-2.492 2.013a2.27 2.27 0 0 1-2.008-2.498l.416-3.873zm-15.355-16.695a2.26 2.26 0 0 1 3.127-.685c1.051.676 1.357 2.08.683 3.134l-4.043 6.316a2.26 2.26 0 0 1-3.127.684c-1.051-.676-1.357-2.08-.683-3.134l4.043-6.316z"/></g><g class="I"><path d="M1089.834 5.616c0-1.252-1.014-2.268-2.263-2.268s-2.263 1.016-2.263 2.268v2.268c0 1.252 1.014 2.268 2.263 2.268s2.263-1.016 2.263-2.268V5.616zm7.828 4.266c-.154-1.243-1.285-2.126-2.524-1.972a2.27 2.27 0 0 0-1.968 2.53l.278 2.251c.154 1.243 1.285 2.126 2.524 1.972a2.27 2.27 0 0 0 1.968-2.53l-.278-2.251zm-20.023 0c.154-1.243 1.285-2.126 2.525-1.972a2.27 2.27 0 0 1 1.968 2.53l-.278 2.251c-.154 1.243-1.285 2.126-2.524 1.972a2.27 2.27 0 0 1-1.968-2.53l.278-2.251zm25.944-9.008c-.375-1.194-1.647-1.858-2.839-1.482a2.27 2.27 0 0 0-1.478 2.845l.953 3.031c.376 1.194 1.647 1.858 2.839 1.482a2.27 2.27 0 0 0 1.478-2.845l-.953-3.031zm-30.556 1.029c.376-1.194 1.647-1.858 2.839-1.482a2.27 2.27 0 0 1 1.478 2.845l-.953 3.031c-.376 1.194-1.647 1.858-2.839 1.482a2.27 2.27 0 0 1-1.478-2.845l.953-3.031zm36.145-5.301c-.624-1.084-2.01-1.456-3.092-.83s-1.453 2.014-.828 3.099l2.047 3.554c.625 1.084 2.01 1.456 3.092.83s1.453-2.015.828-3.099l-2.048-3.554zm-41.712-.121c.624-1.084 2.01-1.456 3.092-.83s1.453 2.014.829 3.099l-2.048 3.554c-.625 1.084-2.01 1.456-3.092.83s-1.453-2.015-.828-3.099l2.048-3.554z"/></g><path d="M1093.924-37.861a7.56 7.56 0 0 0-12.706 0l-15.085 23.412c0 8.57 9.606 15.528 21.438 15.528s21.438-6.958 21.438-15.528l-15.085-23.412z" class="F"/><path d="M1109.636 7.48a2.26 2.26 0 0 0-3.145-.594c-1.031.706-1.297 2.118-.593 3.152l1.783 2.618a2.26 2.26 0 0 0 3.145.594c1.032-.706 1.297-2.118.593-3.152l-1.783-2.618z" class="D"/><g class="F"><path d="M1076.732-.93c.368-1.196 1.636-1.868 2.83-1.499a2.27 2.27 0 0 1 1.495 2.836l-.053.172c-.368 1.196-1.636 1.868-2.83 1.499a2.27 2.27 0 0 1-1.495-2.836l.053-.171z"/><use href="#AF"/></g><g class="D"><path d="M1103.382 15.099c-.368-1.196-1.636-1.868-2.83-1.499a2.27 2.27 0 0 0-1.495 2.836l.053.172c.368 1.196 1.636 1.868 2.83 1.499a2.27 2.27 0 0 0 1.495-2.836l-.053-.171zm-31.328-2.161c.368-1.196 1.636-1.868 2.83-1.499a2.27 2.27 0 0 1 1.495 2.836l-.9 2.925c-.368 1.196-1.636 1.868-2.83 1.499a2.27 2.27 0 0 1-1.496-2.836l.901-2.925z"/></g><g class="F"><path d="M1082.63 1.244c.134-1.245 1.25-2.147 2.492-2.013a2.27 2.27 0 0 1 2.008 2.498l-.019.178c-.134 1.245-1.25 2.146-2.492 2.013a2.27 2.27 0 0 1-2.008-2.498l.019-.178z"/><use href="#AG"/></g><g class="D"><path d="M1097.485 17.274c-.134-1.245-1.25-2.147-2.492-2.013a2.27 2.27 0 0 0-2.008 2.498l.019.178c.134 1.245 1.25 2.146 2.492 2.013a2.27 2.27 0 0 0 2.008-2.498l-.019-.178zm-30.123-9.834a2.26 2.26 0 0 1 3.127-.684c1.051.676 1.357 2.08.683 3.134l-2.698 4.216a2.26 2.26 0 0 1-3.127.684c-1.051-.676-1.357-2.08-.683-3.134l2.698-4.216z"/></g></g><path d="M176.85 128.447h5.808v2.323h-5.808z" fill="#b34879"/><g class="B S"><path d="M167.613 137.334c-.828.478-1.888.194-2.366-.634a1.72 1.72 0 0 1 .62-2.348l6.74-3.935c.401-.234.879-.299 1.328-.18a1.74 1.74 0 0 1 1.064.815c.482.835.196 1.903-.639 2.385l-6.747 3.896z"/><path d="M168.296 136.348c-.248.924-1.197 1.472-2.121 1.225a1.72 1.72 0 0 1-1.222-2.099l1.985-7.554c.118-.449.41-.833.812-1.066s.88-.297 1.328-.177c.932.25 1.485 1.207 1.236 2.138l-2.018 7.532zm2.18-20.056a2.37 2.37 0 0 1 2.366-2.367h11.588a3.46 3.46 0 0 1 3.457 3.457v9.279c0 1.307-1.059 2.366-2.366 2.366h-12.678c-1.307 0-2.366-1.06-2.366-2.366v-10.369z"/></g><g clip-path="url(#Q)" class="B"><path d="M175.872 118.725l11.398 11.398 4.198-4.2-1.199-7.198-.6-2.4-11.398.6-2.399 1.8z" fill="#9c3d69"/></g><rect x="173.365" y="122.057" width="1.743" height="3.485" rx=".291" class="T"/><g class="B"><path d="M181.864 120.611a3.3 3.3 0 0 0-3.299 3.299 3.3 3.3 0 0 0 3.299 3.299 3.3 3.3 0 0 0 3.299-3.299 3.3 3.3 0 0 0-3.299-3.299z" class="S"/><path d="M181.857 122.71a1.2 1.2 0 1 0 0 2.4 1.2 1.2 0 1 0 0-2.4z" fill="#9c3d69" opacity=".656"/><path d="M169.692 125.864l2.333 2.333-2.492 1.326-1.167-1.167 1.326-2.492z" class="K"/><path d="M173.472 130.189h11.398l-2.211 12.779h-11.741l2.554-12.779z" class="S"/></g><g clip-path="url(#R)" class="B"><path d="M189.167 141.516c0-.802-.651-1.452-1.452-1.452h-8.822a.88.88 0 0 0-.88.88v1.144a.88.88 0 0 0 .88.88h8.822a1.45 1.45 0 0 0 1.452-1.452zm1.161 0c0 1.444-1.17 2.614-2.614 2.614h-8.822c-.541 0-1.061-.215-1.444-.598a2.04 2.04 0 0 1-.598-1.444v-1.144a2.04 2.04 0 0 1 2.042-2.042h8.822c1.443 0 2.614 1.17 2.614 2.614z" fill="#b34879"/></g><g class="B"><g class="S"><path d="M186.539 131.69c-.233-.885-1.032-1.501-1.947-1.501h-1.933l2.904 11.036h3.485l-2.509-9.535z"/><path d="M189.167 141.516c0-.802-.651-1.452-1.452-1.452h-8.822a.88.88 0 0 0-.88.88v1.144a.88.88 0 0 0 .88.88h8.822a1.45 1.45 0 0 0 1.452-1.452zm-16.073 13.802l8.123 9.072-3.852 2.326-8.051-9.191a2.94 2.94 0 0 1-.677-2.493l2.311-12.064h5.084l-2.938 12.35z"/><path d="M178.786 167.363h3.873l-.01-24.395h-4.927l1.064 24.395z"/></g><path d="M175.029 152.261h-5.861l1.78-9.293h6.246l-2.165 9.293z" fill="#d2dd50"/></g><g clip-path="url(#S)" class="B Y"><use href="#AH"/></g><g fill="#d2dd50"><path d="M177.431 152.261h5.228l-.01-9.293h-4.927l-.291 9.293z" class="B"/><path d="M171.333 142.968h11.326v2.904h-11.326z"/></g><g clip-path="url(#T)" class="B Y"><use href="#AH"/></g><g class="B"><path d="M178.557 143.916a.64.64 0 0 1 .638-.638.64.64 0 0 1 .638.638.64.64 0 0 1 .804.41.64.64 0 0 1-.41.804.64.64 0 0 1-.141.891.64.64 0 0 1-.891-.141.64.64 0 0 1-.891.141.64.64 0 0 1-.141-.891.64.64 0 0 1-.41-.804.64.64 0 0 1 .804-.41z" class="Y"/><path d="M167.557 117.123a3.2 3.2 0 0 0 3.197 3.196l13.935-.004a3.2 3.2 0 0 0 3.198-3.198 3.2 3.2 0 0 0-3.198-3.196l-17.132.005v3.197z" class="T"/><path d="M131.545 140.354a3.78 3.78 0 0 1 3.775 3.775 3.78 3.78 0 0 1-3.775 3.775 3.78 3.78 0 0 1-3.775-3.775 3.78 3.78 0 0 1 3.775-3.775zm0-3.776c4.167 0 7.551 3.383 7.551 7.551s-3.383 7.551-7.551 7.551-7.551-3.383-7.551-7.551 3.383-7.551 7.551-7.551z" fill="#f5e24c"/></g><g clip-path="url(#U)" fill="#f0bb40"><circle cx="127.479" cy="144.71" r="1.743"/><circle cx="130.964" cy="137.74" r="1.743"/></g><g class="B"><g class="M"><path d="M144.304 166.201h-4.052l.006-21.024 4.618-.467.028 2.209-.6 19.282zm-13.705-23.45a1.08 1.08 0 0 0 1.069 1.226h1.273a1.08 1.08 0 0 0 1.068-.928l1.531-10.854a1.76 1.76 0 0 0-1.742-2.004h-.109a1.57 1.57 0 0 0-1.554 1.355l-1.536 11.206z"/></g><path d="M143.486 130.189h-10.198v13.94l11.691-1.161-1.493-12.779z" fill="#e98695"/><g class="M"><path d="M139.677 130.189h-4.647v3.485c0 .616.245 1.207.681 1.643s1.027.68 1.643.68 1.207-.245 1.643-.68.681-1.027.681-1.643v-3.485z"/></g></g><path d="M133.288 142.968h11.617v3.485h-11.617z" class="M"/><path d="M144.904 142.968h-11.616v1.742l4.646 1.743h2.318l4.652-1.743v-1.742z" fill="#e98695" class="B"/><path d="M138.268 118.83h5.829a2.55 2.55 0 0 1 2.55 2.55v5.099a2.55 2.55 0 0 1-2.549 2.549h-5.829a2.55 2.55 0 0 1-2.549-2.549v-5.099a2.55 2.55 0 0 1 2.549-2.549z" class="M"/><g class="T"><rect x="143.162" y="122.638" width="1.714" height="3.485" rx=".286"/><g class="B"><path d="M148.382 118.504c-.005-1.567-1.277-2.835-2.844-2.835h-8.475v5.228h11.326l-.007-2.392z"/></g></g><path d="M144.015 142.005c.176.861.817 1.552 1.662 1.793s1.754-.011 2.356-.651l5.758-6.119a1.04 1.04 0 0 0-.027-1.454l-1.112-1.097a1.04 1.04 0 0 0-1.507.048l-4.167 4.667-1.484-7.435a1.95 1.95 0 0 0-1.912-1.568h-1.98l2.411 11.816z" class="B M"/><path d="M142 130.189h-9.621a3.74 3.74 0 0 1-3.739-3.739v-6.346a4.44 4.44 0 0 1 4.437-4.437h8.913l.01 14.521z" class="B T"/><path d="M198.317,117.264c-.471-1.625.301-3.279,1.722-3.69s2.957.573,3.428,2.198l15.077,52.031-5.149,1.492-15.077-52.031Z" fill="#d68d57" class="B"/><path d="M230.928 134.941a1.67 1.67 0 0 0 1.106-2.172c-4.558-12.449-18.048-19.415-30.975-15.67s-20.603 16.843-17.799 29.8a1.67 1.67 0 0 0 2.097 1.244l45.571-13.203z" fill="#00e2e2"/><path d="M221.642 137.632c-3.912-13.5-13.127-22.692-20.582-20.532s-10.328 14.854-6.416 28.354l26.998-7.822z" fill="#0f2d3e"/></g></svg>