<svg xmlns="http://www.w3.org/2000/svg" width="1500" height="145" xmlns:v="https://vecta.io/nano"><style><![CDATA[.B{fill-rule:evenodd}.C{fill:#a2d500}.D{fill:#8fc300}.E{fill:none}.F{clip-rule:evenodd}.G{fill:#c2ed00}.H{fill:#5aaa00}.I{fill:#374315}.J{fill:#a6d320}.K{stroke-linecap:round}.L{fill:#628b9a}.M{fill:#548e00}.N{fill:#3a6371}.O{stroke-linejoin:round}.P{fill:#e2ecf2}.Q{fill:#d85d27}.R{stroke-dasharray:0 10}.S{stroke-miterlimit:1.5}]]></style><defs><clipPath id="A"><path d="M0 0h1500v145H0z" class="E"/></clipPath><clipPath id="B"><path d="M801.648 160.807c0-2.027.805-3.97 2.239-5.403s3.376-2.239 5.403-2.239h65.015a18.17 18.17 0 0 1 11.212 3.873l12.984 10.184c2.02 1.585 3.201 4.011 3.201 6.58s-1.181 4.996-3.201 6.58l-12.984 10.185c-3.2 2.508-7.147 3.872-11.212 3.872H809.29c-2.027 0-3.97-.805-5.403-2.239s-2.239-3.376-2.239-5.403v-25.99z" class="E F"/></clipPath><clipPath id="C"><rect x="806.034" y="137.575" width="65.775" height="31.183" rx="3.664" class="E"/></clipPath><clipPath id="D"><path d="M140.337 56.529c-1.418-2.237-3.879-3.592-6.523-3.592s-5.105 1.355-6.523 3.592L107.729 87.38c0 10.596 11.688 19.199 26.085 19.199s26.085-8.603 26.085-19.199l-19.562-30.851z" class="E F"/></clipPath><clipPath id="E"><path d="M139.727 48.236c-1.424-2.21-3.869-3.544-6.493-3.544s-5.069 1.335-6.493 3.544l-15.416 23.927c0 8.758 9.817 15.869 21.91 15.869s21.909-7.111 21.909-15.869l-15.416-23.927z" class="E F"/></clipPath><clipPath id="F"><path d="M137.386 35.388a4.29 4.29 0 0 0-7.144 0l-13.261 19.958c0 3.804 2.564 7.191 6.543 9.354 2.846 1.547 6.416 2.468 10.29 2.468 9.29 0 16.833-5.297 16.833-11.822l-13.261-19.958z" class="E F"/></clipPath><clipPath id="G"><path d="M86.229 56.529c-1.418-2.237-3.879-3.592-6.523-3.592s-5.105 1.355-6.523 3.592L53.621 87.38c0 10.596 11.688 19.199 26.085 19.199s26.085-8.603 26.085-19.199L86.229 56.529z" class="E F"/></clipPath><clipPath id="H"><path d="M85.619 48.236c-1.424-2.21-3.869-3.544-6.493-3.544s-5.069 1.335-6.493 3.544L57.217 72.163c0 8.758 9.817 15.869 21.91 15.869s21.909-7.111 21.909-15.869L85.62 48.236z" class="E F"/></clipPath><clipPath id="I"><path d="M83.277 35.388a4.29 4.29 0 0 0-7.144 0L62.872 55.346c0 3.804 2.564 7.191 6.543 9.354 2.846 1.547 6.416 2.468 10.29 2.468 9.29 0 16.833-5.297 16.833-11.822L83.277 35.388z" class="E F"/></clipPath><clipPath id="J"><path d="M113.762 54.239a8.72 8.72 0 0 0-14.724 0L76.962 89.056c0 11.958 13.191 21.666 29.438 21.666s29.438-9.708 29.438-21.666l-22.076-34.817z" class="E F"/></clipPath><clipPath id="K"><path d="M113.074 44.88c-1.607-2.494-4.366-4-7.327-4a8.72 8.72 0 0 0-7.328 4L81.021 71.883c0 9.884 11.079 17.909 24.726 17.909s24.725-8.025 24.725-17.909L113.074 44.88z" class="E F"/></clipPath><clipPath id="L"><path d="M110.431 30.38a4.84 4.84 0 0 0-8.062 0L87.403 52.903c0 4.293 2.893 8.115 7.384 10.556 3.212 1.746 7.241 2.785 11.613 2.785 10.484 0 18.997-5.978 18.997-13.342l-14.966-22.523z" class="E F"/></clipPath><clipPath id="M"><path d="M1453.925 114.057c-1.418-2.237-3.879-3.592-6.523-3.592s-5.105 1.355-6.523 3.592l-19.562 30.851c0 10.596 11.688 19.199 26.085 19.199s26.085-8.603 26.085-19.199l-19.562-30.851z" class="E F"/></clipPath><clipPath id="N"><path d="M1453.315 105.764c-1.424-2.21-3.869-3.544-6.493-3.544s-5.069 1.335-6.493 3.544l-15.416 23.927c0 8.758 9.817 15.869 21.91 15.869s21.909-7.111 21.909-15.869l-15.416-23.927z" class="E F"/></clipPath><clipPath id="O"><path d="M1450.973 92.916a4.29 4.29 0 0 0-7.144 0l-13.261 19.958c0 3.804 2.564 7.191 6.543 9.354 2.846 1.547 6.416 2.468 10.29 2.468 9.29 0 16.833-5.297 16.833-11.822l-13.261-19.958z" class="E F"/></clipPath><clipPath id="P"><path d="M1399.816 114.057c-1.418-2.237-3.879-3.592-6.523-3.592s-5.105 1.355-6.523 3.592l-19.562 30.851c0 10.596 11.688 19.199 26.085 19.199s26.085-8.603 26.085-19.199l-19.562-30.851z" class="E F"/></clipPath><clipPath id="Q"><path d="M1399.207 105.764c-1.424-2.21-3.869-3.544-6.493-3.544s-5.069 1.335-6.493 3.544l-15.416 23.927c0 8.758 9.817 15.869 21.91 15.869s21.909-7.111 21.909-15.869l-15.416-23.927z" class="E F"/></clipPath><clipPath id="R"><path d="M1396.865 92.916a4.29 4.29 0 0 0-7.144 0l-13.261 19.958c0 3.804 2.564 7.191 6.543 9.354 2.846 1.547 6.416 2.468 10.29 2.468 9.29 0 16.833-5.297 16.833-11.822l-13.261-19.958z" class="E F"/></clipPath><clipPath id="S"><path d="M1427.35 111.767a8.72 8.72 0 0 0-14.724 0l-22.076 34.817c0 11.958 13.191 21.666 29.438 21.666s29.438-9.708 29.438-21.666l-22.076-34.817z" class="E F"/></clipPath><clipPath id="T"><path d="M1426.662 102.408c-1.607-2.494-4.366-4-7.327-4a8.72 8.72 0 0 0-7.328 4l-17.398 27.003c0 9.884 11.079 17.909 24.726 17.909s24.725-8.025 24.725-17.909l-17.398-27.003z" class="E F"/></clipPath><clipPath id="U"><path d="M1424.019 87.909a4.84 4.84 0 0 0-8.062 0l-14.966 22.523c0 4.293 2.893 8.115 7.384 10.556 3.212 1.746 7.241 2.785 11.613 2.785 10.484 0 18.997-5.978 18.997-13.342l-14.966-22.523z" class="E F"/></clipPath><clipPath id="V"><path d="M1094.52 115.254c-1.388-2.189-3.795-3.514-6.383-3.514a7.56 7.56 0 0 0-6.383 3.514l-19.141 30.187c0 10.368 11.437 18.785 25.524 18.785s25.524-8.417 25.524-18.785l-19.141-30.187z" class="E F"/></clipPath><clipPath id="W"><path d="M1093.924 107.139a7.56 7.56 0 0 0-12.706 0l-15.085 23.412c0 8.57 9.606 15.528 21.438 15.528s21.438-6.958 21.438-15.528l-15.085-23.412z" class="E F"/></clipPath><clipPath id="X"><path d="M1091.632 94.568c-.779-1.172-2.09-1.876-3.495-1.876s-2.716.704-3.495 1.876l-12.976 19.528c0 3.722 2.509 7.036 6.402 9.153 2.785 1.514 6.278 2.415 10.069 2.415 9.09 0 16.471-5.183 16.471-11.568l-12.976-19.528z" class="E F"/></clipPath><clipPath id="Y"><path d="M574.92 72.5h36.586v34.606H574.92z" class="E"/></clipPath><clipPath id="Z"><path d="M587.072 76.735l-1.519 10.914h13.302a3.78 3.78 0 0 0 3.781-3.781v-4.344a2.53 2.53 0 0 0-1.183-2.142c-.736-.463-1.659-.516-2.443-.14l-5.864 2.815-6.074-3.321z" class="E F"/></clipPath><path id="a" d="M741.167 110.809h0c1.074-.312 1.697-1.447 1.386-2.523l-.566-1.956a2.04 2.04 0 0 0-2.518-1.39h0c-1.074.312-1.697 1.447-1.386 2.523l.566 1.956a2.04 2.04 0 0 0 2.518 1.39z"/><path id="b" d="M789.71 108.193h0c-1.074-.312-1.697-1.447-1.386-2.523l.566-1.956a2.04 2.04 0 0 1 2.518-1.39h0c1.074.312 1.697 1.447 1.386 2.523l-.566 1.956a2.04 2.04 0 0 1-2.518 1.39z"/><path id="c" d="M251.363 60.051c-1.232 0-2.231-1-2.231-2.236v-7.001c0-1.236.999-2.236 2.231-2.236s2.231 1 2.231 2.236v7.001c0 1.236-.999 2.236-2.231 2.236z"/><path id="d" d="M285.807,78.529c-1.232,0-2.231-1-2.231-2.236v-4.669c0-1.236.999-2.236,2.231-2.236s2.231,1,2.231,2.236v4.669c0,1.236-.999,2.236-2.231,2.236Z"/><path id="e" d="M294.442 39.824c-1.232 0-2.231-1-2.231-2.236v-4.669c0-1.236.999-2.236 2.231-2.236s2.231 1 2.231 2.236v4.669c0 1.236-.999 2.236-2.231 2.236z"/><path id="f" d="M139.081 85.084h-9.252v25.505c0 2.558 2.069 4.632 4.622 4.632h.009a4.63 4.63 0 0 0 4.622-4.632V85.084z"/><path id="g" d="M157.542 83.666a2.31 2.31 0 0 0-3.194-.701c-1.075.691-1.388 2.127-.7 3.204l4.95 7.754a2.31 2.31 0 0 0 3.194.701c1.075-.691 1.388-2.127.7-3.205l-4.95-7.753z"/><path id="h" d="M139.184 39.265a7.72 7.72 0 0 0-5.95-2.804c-2.301 0-4.482 1.027-5.951 2.802-7.697 9.317-20.133 25.685-20.133 34.207 0 10.596 11.688 19.199 26.085 19.199s26.085-8.603 26.085-19.199c0-8.522-12.437-24.89-20.135-34.205z"/><path id="i" d="M124.876 102.155c.137-1.272 1.278-2.194 2.547-2.057a2.32 2.32 0 0 1 2.052 2.553l-.425 3.958c-.137 1.272-1.278 2.194-2.547 2.057a2.32 2.32 0 0 1-2.052-2.553l.425-3.958z"/><path id="j" d="M109.183 85.093a2.31 2.31 0 0 1 3.196-.7c1.075.691 1.387 2.126.698 3.203l-4.132 6.455a2.31 2.31 0 0 1-3.196.699c-1.075-.691-1.387-2.126-.698-3.203l4.131-6.455z"/><path id="k" d="M135.547,92.669c0-1.28-1.037-2.318-2.313-2.318s-2.313,1.039-2.313,2.318v2.318c0,1.28,1.037,2.318,2.313,2.318s2.313-1.039,2.313-2.318v-2.318Z"/><path id="l" d="M143.547 97.029c-.157-1.27-1.313-2.173-2.58-2.015a2.32 2.32 0 0 0-2.011 2.586l.285 2.301c.157 1.27 1.313 2.173 2.58 2.015a2.32 2.32 0 0 0 2.011-2.586l-.285-2.301z"/><path id="m" d="M123.084 97.029c.157-1.27 1.313-2.173 2.58-2.015a2.32 2.32 0 0 1 2.011 2.586l-.285 2.301c-.157 1.27-1.313 2.173-2.58 2.015a2.32 2.32 0 0 1-2.011-2.586l.284-2.301z"/><path id="n" d="M149.599 87.822c-.384-1.22-1.684-1.899-2.901-1.514a2.32 2.32 0 0 0-1.511 2.908l.974 3.098c.384 1.22 1.684 1.899 2.901 1.514a2.32 2.32 0 0 0 1.511-2.908l-.974-3.098z"/><path id="o" d="M118.371 88.874c.384-1.22 1.684-1.899 2.901-1.514a2.32 2.32 0 0 1 1.511 2.908l-.974 3.098c-.384 1.22-1.684 1.899-2.901 1.514a2.32 2.32 0 0 1-1.511-2.908l.974-3.098z"/><path id="p" d="M155.311 83.457a2.31 2.31 0 0 0-3.16-.848c-1.106.64-1.485 2.059-.847 3.167l2.092 3.633c.638 1.108 2.054 1.488 3.16.849s1.485-2.059.847-3.167l-2.093-3.633z"/><path id="q" d="M112.681 83.332a2.31 2.31 0 0 1 3.16-.848c1.106.64 1.485 2.059.847 3.167l-2.093 3.633c-.638 1.108-2.054 1.488-3.16.849s-1.485-2.059-.847-3.167l2.093-3.633z"/><path id="r" d="M139.727 48.236c-1.424-2.21-3.869-3.544-6.493-3.544s-5.069 1.335-6.493 3.544l-15.416 23.927c0 8.758 9.817 15.869 21.91 15.869s21.909-7.111 21.909-15.869l-15.416-23.927z"/><path id="s" d="M139.178,28.797c-1.469-1.771-3.647-2.795-5.944-2.795s-4.476,1.024-5.944,2.795c-6.488,7.835-15.965,20.429-15.965,27.138,0,8.758,9.817,15.869,21.91,15.869s21.909-7.111,21.909-15.869c0-6.71-9.477-19.303-15.965-27.138Z"/><path id="t" d="M121.424 69.952c.638-1.108.259-2.527-.847-3.167s-2.521-.259-3.16.849l-2.313 4.015c-.638 1.108-.259 2.527.847 3.167s2.521.259 3.16-.849l2.313-4.015z"/><path id="u" d="M126.911 78.422a2.32 2.32 0 0 0-1.429-2.949c-1.206-.418-2.525.223-2.942 1.432l-.757 2.191a2.32 2.32 0 0 0 1.429 2.949c1.206.418 2.525-.223 2.942-1.432l.757-2.191z"/><path id="v" d="M136.768,76.441c0-1.28-1.037-2.318-2.313-2.318s-2.313,1.039-2.313,2.318v2.318c0,1.28,1.036,2.318,2.313,2.318s2.313-1.039,2.313-2.318v-2.318Z"/><path id="w" d="M145.864 76.824c-.462-1.193-1.804-1.784-2.994-1.321s-1.78 1.808-1.318 3.001l.838 2.161c.462 1.192 1.804 1.784 2.994 1.321s1.78-1.808 1.318-3.001l-.838-2.161z"/><path id="x" d="M149.49 66.857a2.31 2.31 0 0 0-3.16-.848c-1.105.64-1.485 2.059-.847 3.167l2.003 3.477a2.31 2.31 0 0 0 3.16.848c1.106-.64 1.485-2.059.847-3.167l-2.003-3.477z"/><path id="y" d="M137.386 35.388a4.29 4.29 0 0 0-7.144 0l-13.261 19.958c0 3.804 2.564 7.191 6.543 9.354 2.846 1.547 6.416 2.468 10.29 2.468 9.29 0 16.833-5.297 16.833-11.822l-13.261-19.958z"/><path id="z" d="M148.334,44.684c0-8.063-6.531-14.609-14.576-14.609h-.336c-8.045,0-14.576,6.546-14.576,14.609v.618c0,8.063,6.531,14.609,14.576,14.609h.336c8.044,0,14.576-6.546,14.576-14.609v-.618Z"/><path id="AA" d="M134.556 44.609a2.32 2.32 0 0 0-1.605-2.857c-1.229-.344-2.507.377-2.85 1.609l-.186.667a2.32 2.32 0 0 0 1.605 2.857c1.23.344 2.507-.377 2.85-1.609l.186-.667z"/><path id="AB" d="M127.789 49.727a2.32 2.32 0 0 0-1.099-3.088 2.31 2.31 0 0 0-3.081 1.101l-.991 2.095a2.32 2.32 0 0 0 1.099 3.088 2.31 2.31 0 0 0 3.081-1.101l.991-2.095z"/><path id="AC" d="M136.768,53.258c0-1.28-1.037-2.319-2.313-2.319s-2.313,1.039-2.313,2.319v2.318c0,1.279,1.036,2.318,2.313,2.318s2.313-1.039,2.313-2.318v-2.318Z"/><path id="AD" d="M142.813 45.452a2.31 2.31 0 0 0-3.162-.839c-1.104.643-1.478 2.063-.837 3.169l1.163 2.004a2.31 2.31 0 0 0 3.162.839c1.104-.643 1.478-2.063.837-3.17l-1.163-2.004z"/><path id="AE" d="M130.921,66.984c0-1.28,1.037-2.318,2.313-2.318s2.313,1.039,2.313,2.318v.183c0,1.28-1.037,2.318-2.313,2.318s-2.313-1.039-2.313-2.318v-.183Z"/><path id="AF" d="M118.633 61.337c.48-1.186 1.83-1.757 3.013-1.276a2.32 2.32 0 0 1 1.273 3.02l-.069.17c-.48 1.186-1.83 1.757-3.013 1.276a2.32 2.32 0 0 1-1.273-3.02l.069-.17z"/><path id="AG" d="M148.59 61.314c-.48-1.186-1.83-1.757-3.013-1.276a2.32 2.32 0 0 0-1.273 3.02l.069.17c.48 1.186 1.83 1.757 3.013 1.276a2.32 2.32 0 0 0 1.273-3.02l-.069-.17z"/><path id="AH" d="M115.209 55.636a2.31 2.31 0 0 1 3.196-.699c1.075.691 1.387 2.126.698 3.203l-.099.154a2.31 2.31 0 0 1-3.196.699c-1.075-.691-1.387-2.126-.698-3.203l.099-.154z"/><path id="AI" d="M109.477 72.716a2.31 2.31 0 0 1 3.196-.699c1.075.691 1.387 2.126.698 3.203l-.099.154a2.31 2.31 0 0 1-3.196.7c-1.075-.691-1.387-2.126-.698-3.203l.099-.154z"/><path id="AJ" d="M157.448 72.716a2.31 2.31 0 0 0-3.196-.699c-1.075.691-1.387 2.126-.698 3.203l.099.154a2.31 2.31 0 0 0 3.196.7c1.075-.691 1.387-2.126.698-3.203l-.099-.154z"/><path id="AK" d="M117.01 82.893a2.31 2.31 0 0 1 3.196-.7c1.075.691 1.387 2.126.698 3.203l-.099.154a2.31 2.31 0 0 1-3.196.699c-1.075-.691-1.387-2.126-.698-3.203l.099-.154z"/><path id="AL" d="M149.915 82.893a2.31 2.31 0 0 0-3.196-.7c-1.075.691-1.387 2.126-.698 3.203l.099.154a2.31 2.31 0 0 0 3.196.699c1.075-.691 1.387-2.126.698-3.203l-.099-.154z"/><path id="AM" d="M155.785 94.573a2.31 2.31 0 0 0-3.215-.607c-1.054.721-1.326 2.165-.606 3.222l1.823 2.676a2.31 2.31 0 0 0 3.214.607c1.054-.721 1.326-2.165.606-3.222l-1.822-2.676z"/><path id="AN" d="M122.157 85.978c.376-1.223 1.672-1.909 2.892-1.532a2.32 2.32 0 0 1 1.528 2.899l-.054.175c-.377 1.222-1.672 1.909-2.892 1.532a2.32 2.32 0 0 1-1.528-2.899l.054-.175z"/><path id="AO" d="M144.768 85.978c-.376-1.223-1.672-1.909-2.892-1.532a2.32 2.32 0 0 0-1.528 2.899l.054.175c.376 1.222 1.672 1.909 2.892 1.532a2.32 2.32 0 0 0 1.528-2.899l-.054-.175z"/><path id="AP" d="M117.376 100.152c.376-1.223 1.672-1.909 2.892-1.532a2.32 2.32 0 0 1 1.528 2.899l-.92 2.99c-.376 1.223-1.672 1.909-2.892 1.532a2.32 2.32 0 0 1-1.529-2.899l.92-2.99z"/><path id="AQ" d="M128.185 88.201c.137-1.272 1.278-2.194 2.547-2.057a2.32 2.32 0 0 1 2.052 2.553l-.02.182c-.137 1.272-1.278 2.194-2.547 2.057a2.32 2.32 0 0 1-2.052-2.553l.02-.182z"/><path id="AR" d="M138.741 88.201c-.137-1.272-1.278-2.194-2.547-2.057a2.32 2.32 0 0 0-2.052 2.553l.02.182c.137 1.272 1.278 2.194 2.547 2.057a2.32 2.32 0 0 0 2.052-2.553l-.02-.182z"/><path id="AS" d="M112.253 78.606a2.31 2.31 0 0 1 3.196-.7c1.075.691 1.387 2.126.698 3.203l-.099.154a2.31 2.31 0 0 1-3.196.7c-1.074-.691-1.387-2.126-.698-3.203l.099-.154z"/><path id="AT" d="M154.672 78.606a2.31 2.31 0 0 0-3.196-.7c-1.075.691-1.387 2.126-.698 3.203l.099.154a2.31 2.31 0 0 0 3.196.7c1.075-.691 1.387-2.126.698-3.203l-.099-.154z"/><path id="AU" d="M112.581 94.533a2.31 2.31 0 0 1 3.196-.699c1.075.691 1.387 2.126.698 3.203l-2.758 4.308a2.31 2.31 0 0 1-3.196.699c-1.075-.691-1.387-2.126-.698-3.203l2.758-4.309z"/><path id="AV" d="M123.772 65.262c.209-1.262 1.401-2.117 2.66-1.908a2.32 2.32 0 0 1 1.904 2.666l-.03.181c-.209 1.262-1.401 2.117-2.66 1.908a2.32 2.32 0 0 1-1.904-2.666l.03-.181z"/><path id="AW" d="M143.451 65.239c-.209-1.262-1.401-2.117-2.66-1.908a2.32 2.32 0 0 0-1.904 2.666l.03.181c.209 1.262 1.401 2.117 2.66 1.908a2.32 2.32 0 0 0 1.904-2.666l-.03-.181z"/><path id="AX" d="M162.492 91.419l-4.684-7.337-2.708-4.271c-.031-.363-.119-.723-.328-1.05l-.099-.154c-.206-.322-.49-.551-.799-.73l-.121-.192c.266-.517.494-1.046.685-1.587.728.428 1.655.465 2.413-.023 1.074-.691 1.387-2.126.698-3.203l-.099-.154c-.561-.876-1.607-1.213-2.559-.948l-6.068-9.418c0-.289-.048-.582-.163-.866l-.069-.17c-.027-.067-.083-.111-.115-.175a10.5 10.5 0 0 0 1.195-1.858c.58.128 1.207.035 1.746-.312 1.074-.691 1.387-2.126.698-3.203l-.099-.154c-.425-.665-1.136-.996-1.869-1.022l-12.76-19.203a4.29 4.29 0 0 0-7.144 0l-12.769 19.217c-.865-.119-1.762.247-2.264 1.031l-.099.154c-.689 1.077-.377 2.512.698 3.203.651.418 1.418.429 2.087.164.246.506.524 1.001.861 1.473l-7.124 11.057c-.83-.074-1.674.277-2.155 1.029l-.099.154c-.689 1.077-.377 2.512.698 3.203.628.404 1.365.429 2.017.194a12.88 12.88 0 0 0 .771 1.706c-.235.167-.446.375-.611.632l-.099.154c-.393.614-.428 1.333-.214 1.976l-3.191 5.032-3.699 5.779c-.689 1.077-.377 2.512.698 3.203a2.31 2.31 0 0 0 3.196-.699l.246-.385c.519 1.099 1.159 2.154 1.927 3.151l-1.295 2.024c-.689 1.077-.377 2.512.698 3.203a2.31 2.31 0 0 0 3.196-.699l.731-1.142c.746.61 1.537 1.188 2.382 1.724l-.374 1.214a2.32 2.32 0 0 0 1.529 2.898c1.22.377 2.516-.309 2.892-1.532l.129-.418c1.127.469 2.309.87 3.533 1.214l-.087.809a2.32 2.32 0 0 0 2.052 2.553c1.269.137 2.411-.785 2.547-2.057l.039-.362a35.27 35.27 0 0 0 4.724.331c1.809 0 3.575-.137 5.281-.395a2.31 2.31 0 0 0 2.24 1.135c1.114-.12 1.958-1.017 2.055-2.095a31.46 31.46 0 0 0 1.981-.654c.565.783 1.577 1.165 2.549.865 1.165-.361 1.831-1.562 1.561-2.735 1.555-.863 2.983-1.841 4.24-2.933l.066.097a2.31 2.31 0 0 0 3.214.608c1.054-.721 1.326-2.165.606-3.222l-.679-.997c.588-.827 1.086-1.692 1.507-2.585l.163.255c.688 1.078 2.119 1.392 3.193.701s1.388-2.127.7-3.205z"/><path id="AY" d="M133.179 84.864c-.776-1.216-2.391-1.571-3.604-.791s-1.567 2.4-.79 3.616l5.586 8.75c.776 1.216 2.391 1.571 3.604.791s1.567-2.4.79-3.617l-5.586-8.75z"/><path id="AZ" d="M112.461 34.756c-1.657-2.004-4.119-3.164-6.715-3.164s-5.059 1.159-6.716 3.162c-8.686 10.515-22.721 28.987-22.721 38.604 0 11.958 13.191 21.666 29.438 21.666s29.438-9.708 29.438-21.666c0-9.617-14.035-28.089-22.723-38.602z"/><path id="Aa" d="M78.604 86.474a2.61 2.61 0 0 1 3.607-.789c1.213.78 1.565 2.399.788 3.615l-4.663 7.284a2.61 2.61 0 0 1-3.606.789 2.62 2.62 0 0 1-.788-3.615l4.663-7.284z"/><path id="Ab" d="M130.661 84.628a2.61 2.61 0 0 0-3.566-.958 2.62 2.62 0 0 0-.955 3.574l2.361 4.1a2.61 2.61 0 0 0 3.566.958 2.62 2.62 0 0 0 .955-3.574l-2.362-4.1z"/><path id="Ac" d="M82.552 84.487a2.61 2.61 0 0 1 3.566-.958 2.62 2.62 0 0 1 .956 3.574l-2.362 4.1a2.61 2.61 0 0 1-3.566.958 2.62 2.62 0 0 1-.955-3.574l2.362-4.1z"/><path id="Ad" d="M92.418 69.387a2.62 2.62 0 0 0-.956-3.574 2.61 2.61 0 0 0-3.566.958l-2.61 4.531c-.72 1.251-.292 2.852.955 3.574a2.61 2.61 0 0 0 3.566-.958l2.611-4.531z"/><path id="Ae" d="M98.61 78.946a2.62 2.62 0 0 0-1.613-3.328 2.61 2.61 0 0 0-3.321 1.616l-.854 2.472a2.62 2.62 0 0 0 1.613 3.328c1.361.472 2.849-.252 3.321-1.616l.854-2.472z"/><path id="Af" d="M119.999 77.142a2.61 2.61 0 0 0-3.379-1.491 2.62 2.62 0 0 0-1.487 3.386l.946 2.439a2.61 2.61 0 0 0 3.379 1.491 2.62 2.62 0 0 0 1.487-3.387l-.946-2.438z"/><path id="Ag" d="M124.092 65.895a2.61 2.61 0 0 0-3.566-.958 2.62 2.62 0 0 0-.955 3.574l2.261 3.924a2.61 2.61 0 0 0 3.566.958 2.62 2.62 0 0 0 .955-3.574l-2.261-3.924z"/><path id="Ah" d="M107.238 40.787a2.62 2.62 0 0 0-1.811-3.224 2.61 2.61 0 0 0-3.216 1.816l-.21.753a2.62 2.62 0 0 0 1.811 3.224 2.61 2.61 0 0 0 3.216-1.816l.21-.753z"/><path id="Ai" d="M99.601 46.562a2.62 2.62 0 0 0-1.24-3.485 2.61 2.61 0 0 0-3.477 1.242l-1.119 2.364a2.62 2.62 0 0 0 1.24 3.485 2.61 2.61 0 0 0 3.477-1.243l1.119-2.364z"/><path id="Aj" d="M116.556 41.738a2.61 2.61 0 0 0-3.569-.946 2.62 2.62 0 0 0-.944 3.577l1.312 2.262a2.61 2.61 0 0 0 3.569.947 2.62 2.62 0 0 0 .944-3.577l-1.312-2.262z"/><path id="Ak" d="M89.269 59.665a2.61 2.61 0 0 1 3.4-1.44 2.62 2.62 0 0 1 1.437 3.408l-.078.192a2.61 2.61 0 0 1-3.401 1.44 2.62 2.62 0 0 1-1.437-3.408l.078-.192z"/><path id="Al" d="M123.076 59.639a2.61 2.61 0 0 0-3.4-1.44 2.62 2.62 0 0 0-1.437 3.408l.078.192a2.61 2.61 0 0 0 3.401 1.44 2.62 2.62 0 0 0 1.437-3.408l-.078-.192z"/><path id="Am" d="M85.404 53.231a2.61 2.61 0 0 1 3.606-.789 2.62 2.62 0 0 1 .788 3.615l-.111.174a2.61 2.61 0 0 1-3.607.789c-1.213-.779-1.565-2.399-.788-3.615l.112-.174z"/><path id="An" d="M78.935 72.507a2.61 2.61 0 0 1 3.607-.789 2.62 2.62 0 0 1 .788 3.615l-.111.174a2.61 2.61 0 0 1-3.607.789 2.62 2.62 0 0 1-.788-3.615l.111-.174z"/><path id="Ao" d="M133.073 72.507a2.61 2.61 0 0 0-3.607-.789 2.62 2.62 0 0 0-.787 3.615l.111.174a2.61 2.61 0 0 0 3.607.789 2.62 2.62 0 0 0 .787-3.615l-.111-.174z"/><path id="Ap" d="M87.437 83.991a2.61 2.61 0 0 1 3.607-.789 2.62 2.62 0 0 1 .787 3.615l-.111.174a2.61 2.61 0 0 1-3.607.789 2.62 2.62 0 0 1-.787-3.615l.111-.174z"/><path id="Aq" d="M124.572 83.991a2.61 2.61 0 0 0-3.607-.789 2.62 2.62 0 0 0-.788 3.615l.111.174a2.61 2.61 0 0 0 3.607.789 2.62 2.62 0 0 0 .788-3.615l-.111-.174z"/><path id="Ar" d="M93.246 87.473a2.61 2.61 0 0 1 3.264-1.729 2.62 2.62 0 0 1 1.725 3.271l-.061.198a2.61 2.61 0 0 1-3.264 1.729 2.62 2.62 0 0 1-1.725-3.271l.061-.198z"/><path id="As" d="M118.762 87.473a2.61 2.61 0 0 0-3.264-1.729 2.62 2.62 0 0 0-1.725 3.271l.061.198a2.61 2.61 0 0 0 3.264 1.729 2.62 2.62 0 0 0 1.725-3.271l-.061-.198z"/><path id="At" d="M111.961 89.982c-.154-1.436-1.442-2.476-2.875-2.321s-2.47 1.445-2.316 2.881l.022.206c.154 1.436 1.442 2.476 2.875 2.321s2.47-1.445 2.316-2.881l-.022-.206z"/><path id="Au" d="M82.068 79.154a2.61 2.61 0 0 1 3.607-.789 2.62 2.62 0 0 1 .787 3.615l-.111.174a2.61 2.61 0 0 1-3.607.789c-1.212-.78-1.565-2.399-.787-3.615l.111-.174z"/><path id="Av" d="M129.94 79.154a2.61 2.61 0 0 0-3.606-.789 2.62 2.62 0 0 0-.788 3.615l.111.174a2.61 2.61 0 0 0 3.607.789 2.62 2.62 0 0 0 .788-3.615l-.112-.174z"/><path id="Aw" d="M126.94 53.205a2.61 2.61 0 0 0-3.606-.789 2.62 2.62 0 0 0-.788 3.615l.111.174a2.61 2.61 0 0 0 3.607.789c1.213-.78 1.565-2.399.788-3.615l-.112-.174z"/><path id="Ax" d="M95.068 64.095c.236-1.425 1.581-2.389 3.002-2.153s2.384 1.585 2.148 3.009l-.034.204c-.235 1.425-1.581 2.389-3.002 2.153s-2.384-1.585-2.148-3.009l.034-.204z"/><path id="Ay" d="M117.276 64.069c-.236-1.425-1.581-2.389-3.002-2.153s-2.384 1.585-2.148 3.009l.034.204c.235 1.425 1.581 2.389 3.002 2.153s2.384-1.585 2.148-3.009l-.034-.204z"/><path id="Az" d="M1013.491 76.626h500.625v40.867h-500.625z"/><path id="BA" d="M1023.708 76.626h10.217v40.867h-10.217z"/><path id="BB" d="M1013.491 76.626h500.625v10.217h-500.625z"/><path id="BC" d="M1023.708 25.542h10.217v10.217h-10.217z"/><path id="BD" d="M1452.669 142.612h-9.252v25.505c0 2.558 2.069 4.632 4.622 4.632h.009a4.63 4.63 0 0 0 4.622-4.632v-25.505z"/><path id="BE" d="M1453.925 114.057c-1.418-2.237-3.879-3.592-6.523-3.592s-5.105 1.355-6.523 3.592l-19.562 30.851c0 10.596 11.688 19.199 26.085 19.199s26.085-8.603 26.085-19.199l-19.562-30.851z"/><path id="BF" d="M1452.766,86.325c-1.469-1.771-3.647-2.795-5.944-2.795s-4.476,1.024-5.944,2.795c-6.488,7.835-15.965,20.429-15.965,27.138,0,8.758,9.817,15.869,21.91,15.869s21.909-7.111,21.909-15.869c0-6.71-9.477-19.303-15.965-27.138Z"/><path id="BG" d="M1450.356,133.969c0-1.28-1.037-2.318-2.313-2.318s-2.313,1.039-2.313,2.318v2.318c0,1.28,1.036,2.318,2.313,2.318s2.313-1.039,2.313-2.318v-2.318Z"/><path id="BH" d="M1461.921,102.212c0-8.063-6.531-14.609-14.576-14.609h-.336c-8.045,0-14.576,6.546-14.576,14.609v.618c0,8.063,6.531,14.609,14.576,14.609h.336c8.044,0,14.576-6.546,14.576-14.609v-.618Z"/><path id="BI" d="M1450.356,110.786c0-1.28-1.037-2.319-2.313-2.319s-2.313,1.039-2.313,2.319v2.318c0,1.279,1.036,2.318,2.313,2.318s2.313-1.039,2.313-2.318v-2.318Z"/><path id="BJ" d="M1444.509,124.513c0-1.28,1.037-2.318,2.313-2.318s2.313,1.039,2.313,2.318v.183c0,1.28-1.037,2.318-2.313,2.318s-2.313-1.039-2.313-2.318v-.183Z"/><path id="BK" d="M1108.547 136.856a2.26 2.26 0 0 0-3.127-.685c-1.051.676-1.357 2.08-.683 3.134l.097.151a2.26 2.26 0 0 0 3.127.685c1.051-.676 1.357-2.08.683-3.134l-.097-.151z"/><path id="BL" d="M583.776 89.031a3.5 3.5 0 1 1-3.5-6.062l3.5 6.062z"/><path id="BM" d="M582.151 89.031a3.5 3.5 0 1 0 3.5-6.062l-3.5 6.062z"/><path id="BN" d="M593.526 99.5h2.5a5.75 5.75 0 0 1 4.599 2.3l1.275 1.7"/></defs><g clip-path="url(#A)"><path d="M1441.91 506.802c0-52.124-42.405-94.53-94.529-94.53h-189.184c-20.327 0-36.865-16.538-36.865-36.866v-21.344c0-53.412-43.454-96.865-96.866-96.865-25.271 0-45.831-20.56-45.831-45.831v-46.302c0-47.8-38.888-86.688-86.688-86.688H592.871c-47.8 0-86.687 38.888-86.687 86.688 0 14.716-11.972 26.688-26.688 26.688H308.287c-42.856 0-77.723 34.866-77.723 77.722 0 9.772-7.95 17.723-17.722 17.723H-25.02V598.89h1540.04v-57.559h-38.58c-19.04 0-34.53-15.49-34.53-34.53z" fill="#ffed8b" stroke="#00b365" stroke-width="10" class="K O R"/><path d="M-25.02-4675.264V287.197h237.861c9.772,0,17.722-7.951,17.722-17.723,0-42.856,34.866-77.722,77.723-77.722h171.209c14.715,0,26.688-11.972,26.688-26.688,0-47.8,38.888-86.688,86.687-86.688h299.076c47.8,0,86.688,38.888,86.688,86.688v46.302c0,25.271,20.56,45.831,45.831,45.831,53.412,0,96.866,43.454,96.866,96.865v21.344c0,20.328,16.538,36.866,36.865,36.866h189.184c52.124,0,94.529,42.406,94.529,94.53,0,19.04,15.49,34.53,34.53,34.53h38.58v-5216.596H-25.02Z" fill="#00b365"/><path d="M1451.182 580c-41.035-16.579-49.272-51.816-49.272-72.068 0-30.067-24.462-54.529-54.529-54.529h-189.184c-42.384 0-76.865-34.482-76.865-76.866v-21.345c0-31.355-25.51-56.865-56.866-56.865-47.327 0-85.831-38.503-85.831-85.83v-46.303c0-25.743-20.944-46.688-46.688-46.688H592.87c-25.744 0-46.688 20.944-46.688 46.688 0 36.772-29.916 66.688-66.688 66.688H308.285c-20.8 0-37.723 16.922-37.723 37.722 0 31.828-25.894 57.723-57.722 57.723H-25.02v271.694h1476.202s.029-.041 0-20.02z" fill="#1ef7f1"/><path d="M448.486 135.432h34.877v40.289h-34.877z" fill="#cb3c35"/><path d="M448.486 135.432h34.877v10.576h-34.877z" fill="#b72f2d"/><path d="M495.497 136.522h-59.144a.81.81 0 0 1-.719-1.176l1.597-3.119a.81.81 0 0 1 .719-.44h55.951a.81.81 0 0 1 .719.44l1.597 3.119a.81.81 0 0 1-.719 1.176z" fill="#db9a9c"/><g clip-path="url(#B)"><path d="M880.579 141.243h24.556v57.781h-24.556z" fill="#f54a00"/></g><rect x="806.034" y="137.575" width="65.775" height="31.183" rx="3.664" fill="#de3900"/><g clip-path="url(#C)"><rect x="806.034" y="137.575" width="64.02" height="29.348" rx="3.448" fill="#f54a00"/><g stroke="#4a4693" class="E K O"><path style="mix-blend-mode:multiply" d="M870.932 143.078h-66.653" opacity=".188" stroke-width="2.734"/><g stroke-width="5.467"><path style="mix-blend-mode:multiply" d="M827.082 123.818v69.704m22.802-69.704v69.704" opacity=".188"/></g></g><path style="mix-blend-mode:multiply" d="M805.748 137.575l66.061 31.436h-66.061v-31.436z" fill="#564fa5" opacity=".148" class="B"/></g><path d="M719.683 53.944c-.494-1.71.315-3.45 1.807-3.883s3.104.603 3.599 2.313l15.829 54.754-5.406 1.57-15.829-54.754z" fill="#37450c" class="B"/><path d="M753.919 72.547a1.76 1.76 0 0 0 1.162-2.286c-4.785-13.1-18.948-20.431-32.519-16.49s-21.63 17.725-18.686 31.36c.214.991 1.229 1.592 2.201 1.309l47.842-13.893z" fill="#00a1f3"/><path d="M744.17 75.378c-4.107-14.206-13.781-23.88-21.608-21.607s-10.842 15.632-6.736 29.838l28.343-8.231z" fill="#002984"/><g class="B"><g fill="#ffec8a"><use href="#a"/><path d="M737.263 111.943h0c1.074-.312 1.697-1.447 1.386-2.523l-.566-1.956a2.04 2.04 0 0 0-2.518-1.39h0c-1.074.312-1.697 1.447-1.386 2.523l.566 1.956a2.04 2.04 0 0 0 2.518 1.39z"/></g><path d="M811.195 51.328c.494-1.71-.315-3.45-1.807-3.883s-3.104.603-3.599 2.313l-15.829 54.754 5.406 1.57 15.829-54.754z" fill="#37450c"/></g><path d="M776.958 69.931a1.76 1.76 0 0 1-1.162-2.286c4.785-13.1 18.948-20.431 32.519-16.49s21.63 17.725 18.686 31.36c-.214.991-1.229 1.592-2.201 1.309l-47.842-13.893z" fill="#64008d"/><path d="M786.708 72.762c4.107-14.206 13.781-23.88 21.608-21.607s10.842 15.632 6.736 29.838l-28.343-8.231z" fill="#8786ff"/><g fill="#ffec8a" class="B"><use href="#b"/><path d="M793.614 109.327h0c-1.074-.312-1.697-1.447-1.386-2.523l.566-1.956a2.04 2.04 0 0 1 2.518-1.39h0c1.074.312 1.697 1.447 1.386 2.523l-.566 1.956a2.04 2.04 0 0 1-2.518 1.39z"/></g><g opacity=".331" fill="#00703a"><use href="#c"/><path d="M260.677 60.051c-1.232 0-2.231-1-2.231-2.236v-4.667c0-1.236.999-2.236 2.231-2.236s2.231 1 2.231 2.236v4.667c0 1.236-.999 2.236-2.231 2.236zm-17.853 0c-1.232 0-2.231-1-2.231-2.236v-4.667c0-1.236.999-2.236 2.231-2.236s2.231 1 2.231 2.236v4.667c0 1.236-.999 2.236-2.231 2.236zm33.669 18.478c-1.232 0-2.231-1-2.231-2.236v-7.001c0-1.236.999-2.236 2.231-2.236s2.231 1 2.231 2.236v7.001c0 1.236-.999 2.236-2.231 2.236z"/><use href="#d"/><path d="M267.956 78.529c-1.232 0-2.231-1-2.231-2.236v-4.669c0-1.236.999-2.236 2.231-2.236s2.231 1 2.231 2.236v4.669c0 1.236-.999 2.236-2.231 2.236zm17.17-38.705c-1.232 0-2.231-1-2.231-2.236v-7.001c0-1.236.999-2.236 2.231-2.236s2.231 1 2.231 2.236v7.001c0 1.236-.999 2.236-2.231 2.236z"/><use href="#e"/><path d="M276.589 39.824c-1.232 0-2.231-1-2.231-2.236v-4.669c0-1.236.999-2.236 2.231-2.236s2.231 1 2.231 2.236v4.669c0 1.236-.999 2.236-2.231 2.236z"/></g><rect x="64.698" y="111.572" width="84.853" height="13.464" rx="6.732" opacity=".106"/><g class="B"><use href="#f" class="I"/><g class="D"><use href="#g"/><path d="M140.337 56.529c-1.418-2.237-3.879-3.592-6.523-3.592s-5.105 1.355-6.523 3.592L107.729 87.38c0 10.596 11.688 19.199 26.085 19.199s26.085-8.603 26.085-19.199l-19.562-30.851z"/></g></g><g clip-path="url(#D)" class="B H"><use href="#h"/></g><g class="B"><g class="D"><use href="#i"/><use href="#j"/></g><g class="H"><use href="#k"/><use href="#l"/><use href="#m"/><use href="#n"/><use href="#o"/><use href="#p"/><use href="#q"/></g><use href="#r" class="C"/></g><g clip-path="url(#E)" class="B D"><use href="#s"/><use href="#t"/><use href="#u"/><use href="#v"/><use href="#w"/><use href="#x"/></g><use href="#y" class="B C"/><g clip-path="url(#F)" class="B"><use href="#z" class="G"/><g class="C"><use href="#AA"/><use href="#AB"/><use href="#AC"/><use href="#AD"/></g></g><g class="B"><g class="G"><use href="#AE"/><use href="#AF"/><use href="#AG"/><use href="#AH"/></g><use href="#AI" class="J"/><g class="C"><use href="#AJ"/><use href="#AK"/><use href="#AL"/></g><use href="#AM" class="D"/><g class="C"><use href="#AN"/><use href="#AO"/></g><g class="D"><path d="M149.394 102.361c-.376-1.223-1.672-1.909-2.892-1.532a2.32 2.32 0 0 0-1.528 2.899l.054.175c.376 1.222 1.672 1.909 2.892 1.532a2.32 2.32 0 0 0 1.528-2.899l-.054-.175z"/><use href="#AP"/></g><g class="C"><use href="#AQ"/><use href="#AR"/></g><path d="M143.367 104.583c-.137-1.272-1.278-2.194-2.547-2.057a2.32 2.32 0 0 0-2.052 2.553l.02.182c.137 1.272 1.278 2.194 2.547 2.057a2.32 2.32 0 0 0 2.052-2.553l-.02-.182z" class="D"/><g class="C"><use href="#AS"/><use href="#AT"/></g><use href="#AU" class="D"/><g class="G"><path d="M152.014 55.613a2.31 2.31 0 0 0-3.196-.7c-1.075.691-1.387 2.126-.698 3.203l.099.154a2.31 2.31 0 0 0 3.196.7c1.075-.691 1.387-2.126.698-3.203l-.099-.154z"/><use href="#AV"/><use href="#AW"/></g><use href="#AX" opacity=".3" class="M"/><path d="M84.973 85.084h-9.252v25.505c0 2.558 2.069 4.632 4.622 4.632h.009a4.63 4.63 0 0 0 4.622-4.632V85.084z" class="I"/><g class="D"><path d="M103.434 83.666a2.31 2.31 0 0 0-3.194-.701c-1.075.691-1.388 2.127-.7 3.204l4.95 7.754a2.31 2.31 0 0 0 3.194.701c1.075-.691 1.388-2.127.7-3.205l-4.95-7.753z"/><path d="M86.229 56.529c-1.418-2.237-3.879-3.592-6.523-3.592s-5.105 1.355-6.523 3.592L53.621 87.38c0 10.596 11.688 19.199 26.085 19.199s26.085-8.603 26.085-19.199L86.229 56.529z"/></g></g><g clip-path="url(#G)" class="B H"><path d="M85.076 39.265a7.72 7.72 0 0 0-5.95-2.804c-2.301 0-4.482 1.027-5.951 2.802-7.697 9.317-20.133 25.685-20.133 34.207 0 10.596 11.688 19.199 26.085 19.199s26.085-8.603 26.085-19.199c0-8.522-12.437-24.89-20.135-34.205z"/></g><g class="B"><g class="D"><path d="M70.767 102.155c.137-1.272 1.278-2.194 2.547-2.057a2.32 2.32 0 0 1 2.052 2.553l-.425 3.958c-.137 1.272-1.278 2.194-2.547 2.057a2.32 2.32 0 0 1-2.052-2.553l.425-3.958zM55.074 85.093a2.31 2.31 0 0 1 3.196-.7c1.075.691 1.387 2.126.698 3.203l-4.132 6.455a2.31 2.31 0 0 1-3.196.699c-1.075-.691-1.387-2.126-.698-3.203l4.131-6.455z"/></g><g class="H"><path d="M81.439 92.669c0-1.28-1.037-2.318-2.313-2.318a2.32 2.32 0 0 0-2.313 2.318v2.318c0 1.28 1.037 2.318 2.313 2.318a2.32 2.32 0 0 0 2.313-2.318v-2.318zm8 4.36c-.157-1.27-1.313-2.173-2.58-2.015a2.32 2.32 0 0 0-2.011 2.586l.285 2.301c.157 1.27 1.313 2.173 2.58 2.015a2.32 2.32 0 0 0 2.011-2.586l-.285-2.301zm-20.463 0c.157-1.27 1.313-2.173 2.58-2.015a2.32 2.32 0 0 1 2.011 2.586l-.285 2.301c-.157 1.27-1.313 2.173-2.58 2.015a2.32 2.32 0 0 1-2.011-2.586l.284-2.301zm26.515-9.207c-.384-1.22-1.684-1.899-2.901-1.514a2.32 2.32 0 0 0-1.511 2.908l.974 3.098c.384 1.22 1.684 1.899 2.901 1.514a2.32 2.32 0 0 0 1.511-2.908l-.974-3.098zm-31.229 1.052c.384-1.22 1.684-1.899 2.901-1.514a2.32 2.32 0 0 1 1.511 2.908l-.974 3.098c-.384 1.22-1.684 1.899-2.901 1.514a2.32 2.32 0 0 1-1.511-2.908l.974-3.098zm36.94-5.417a2.31 2.31 0 0 0-3.16-.848c-1.106.64-1.485 2.059-.847 3.167l2.092 3.633c.638 1.108 2.054 1.488 3.16.849s1.485-2.059.847-3.167l-2.093-3.633zm-42.629-.125a2.31 2.31 0 0 1 3.16-.848c1.106.64 1.485 2.059.847 3.167l-2.093 3.633c-.638 1.108-2.054 1.488-3.16.849s-1.485-2.059-.847-3.167l2.093-3.633z"/></g><path d="M85.619 48.236c-1.424-2.21-3.869-3.544-6.493-3.544s-5.069 1.335-6.493 3.544L57.217 72.163c0 8.758 9.817 15.869 21.91 15.869s21.909-7.111 21.909-15.869L85.62 48.236z" class="C"/></g><g clip-path="url(#H)" class="B D"><path d="M85.07,28.797c-1.469-1.771-3.647-2.795-5.944-2.795s-4.476,1.024-5.944,2.795c-6.488,7.835-15.965,20.429-15.965,27.138,0,8.758,9.817,15.869,21.91,15.869s21.909-7.111,21.909-15.869c0-6.71-9.477-19.303-15.965-27.138Z"/><path d="M67.315 69.952c.638-1.108.259-2.527-.847-3.167s-2.521-.259-3.16.849l-2.313 4.015c-.638 1.108-.259 2.527.847 3.167s2.521.259 3.16-.849l2.313-4.015zm5.487 8.47a2.32 2.32 0 0 0-1.429-2.949c-1.206-.418-2.525.223-2.942 1.432l-.757 2.191a2.32 2.32 0 0 0 1.429 2.949c1.206.418 2.525-.223 2.942-1.432l.757-2.191zm9.858-1.981c0-1.28-1.037-2.318-2.313-2.318a2.32 2.32 0 0 0-2.313 2.318v2.318c0 1.28 1.036 2.318 2.313 2.318s2.313-1.039 2.313-2.318v-2.318zm9.095.383c-.462-1.193-1.804-1.784-2.994-1.321s-1.78 1.808-1.318 3.001l.838 2.161c.462 1.192 1.804 1.784 2.994 1.321s1.78-1.808 1.318-3.001l-.838-2.161zm3.627-9.967a2.31 2.31 0 0 0-3.16-.848c-1.105.64-1.485 2.059-.847 3.167l2.003 3.477a2.31 2.31 0 0 0 3.16.848c1.106-.64 1.485-2.059.847-3.167l-2.003-3.477z"/></g><path d="M83.277 35.388a4.29 4.29 0 0 0-7.144 0L62.872 55.346c0 3.804 2.564 7.191 6.543 9.354 2.846 1.547 6.416 2.468 10.29 2.468 9.29 0 16.833-5.297 16.833-11.822L83.277 35.388z" class="B C"/><g clip-path="url(#I)" class="B"><path d="M94.225,44.684c0-8.063-6.531-14.609-14.576-14.609h-.336c-8.045,0-14.576,6.546-14.576,14.609v.618c0,8.063,6.531,14.609,14.576,14.609h.336c8.044,0,14.576-6.546,14.576-14.609v-.618Z" class="G"/><g class="C"><path d="M80.448 44.609a2.32 2.32 0 0 0-1.605-2.857c-1.229-.344-2.507.377-2.85 1.609l-.186.667a2.32 2.32 0 0 0 1.605 2.857c1.23.344 2.507-.377 2.85-1.609l.186-.667zm-6.768 5.118a2.32 2.32 0 0 0-1.099-3.088A2.31 2.31 0 0 0 69.5 47.74l-.991 2.095a2.32 2.32 0 0 0 1.099 3.088 2.31 2.31 0 0 0 3.081-1.101l.991-2.095zm8.98 3.531a2.32 2.32 0 0 0-2.313-2.319 2.32 2.32 0 0 0-2.313 2.319v2.318c0 1.279 1.036 2.318 2.313 2.318s2.313-1.039 2.313-2.318v-2.318zm6.044-7.806a2.31 2.31 0 0 0-3.162-.839c-1.104.643-1.478 2.063-.837 3.169l1.163 2.004a2.31 2.31 0 0 0 3.162.839c1.104-.643 1.478-2.063.837-3.17l-1.163-2.004z"/></g></g><g class="B"><g class="G"><path d="M76.813 66.984c0-1.28 1.037-2.318 2.313-2.318a2.32 2.32 0 0 1 2.313 2.318v.183c0 1.28-1.037 2.318-2.313 2.318a2.32 2.32 0 0 1-2.313-2.318v-.183zm-12.288-5.647c.48-1.186 1.83-1.757 3.013-1.276a2.32 2.32 0 0 1 1.273 3.02l-.069.17c-.48 1.186-1.83 1.757-3.013 1.276a2.32 2.32 0 0 1-1.273-3.02l.069-.17zm29.956-.023c-.48-1.186-1.83-1.757-3.013-1.276a2.32 2.32 0 0 0-1.273 3.02l.069.17c.48 1.186 1.83 1.757 3.013 1.276a2.32 2.32 0 0 0 1.273-3.02l-.069-.17zM61.1 55.636a2.31 2.31 0 0 1 3.196-.699c1.075.691 1.387 2.126.698 3.203l-.099.154a2.31 2.31 0 0 1-3.196.699c-1.075-.691-1.387-2.126-.698-3.203l.099-.154z"/></g><path d="M55.368 72.716a2.31 2.31 0 0 1 3.196-.699c1.075.691 1.387 2.126.698 3.203l-.099.154a2.31 2.31 0 0 1-3.196.7c-1.075-.691-1.387-2.126-.698-3.203l.099-.154z" class="J"/><g class="C"><path d="M103.34 72.716a2.31 2.31 0 0 0-3.196-.699c-1.075.691-1.387 2.126-.698 3.203l.099.154a2.31 2.31 0 0 0 3.196.7c1.075-.691 1.387-2.126.698-3.203l-.099-.154zM62.901 82.893a2.31 2.31 0 0 1 3.196-.7c1.075.691 1.387 2.126.698 3.203l-.099.154a2.31 2.31 0 0 1-3.196.699c-1.075-.691-1.387-2.126-.698-3.203l.099-.154zm32.906 0a2.31 2.31 0 0 0-3.196-.7c-1.075.691-1.387 2.126-.698 3.203l.099.154a2.31 2.31 0 0 0 3.196.699c1.075-.691 1.387-2.126.698-3.203l-.099-.154z"/></g><path d="M101.677 94.573a2.31 2.31 0 0 0-3.215-.607c-1.054.721-1.326 2.165-.606 3.222l1.823 2.676a2.31 2.31 0 0 0 3.214.607c1.054-.721 1.326-2.165.606-3.222l-1.822-2.676z" class="D"/><g class="C"><path d="M68.049 85.978c.376-1.223 1.672-1.909 2.892-1.532a2.32 2.32 0 0 1 1.528 2.899l-.054.175c-.377 1.222-1.672 1.909-2.892 1.532a2.32 2.32 0 0 1-1.528-2.899l.054-.175zm22.61 0c-.376-1.223-1.672-1.909-2.892-1.532a2.32 2.32 0 0 0-1.528 2.899l.054.175c.376 1.222 1.672 1.909 2.892 1.532a2.32 2.32 0 0 0 1.528-2.899l-.054-.175z"/></g><g class="D"><path d="M95.285 102.361c-.376-1.223-1.672-1.909-2.892-1.532a2.32 2.32 0 0 0-1.528 2.899l.054.175c.376 1.222 1.672 1.909 2.892 1.532a2.32 2.32 0 0 0 1.528-2.899l-.054-.175zm-32.017-2.209c.376-1.223 1.672-1.909 2.892-1.532a2.32 2.32 0 0 1 1.528 2.899l-.92 2.99c-.376 1.223-1.672 1.909-2.892 1.532a2.32 2.32 0 0 1-1.529-2.899l.92-2.99z"/></g><g class="C"><path d="M74.076 88.201c.137-1.272 1.278-2.194 2.547-2.057a2.32 2.32 0 0 1 2.052 2.553l-.02.182c-.137 1.272-1.278 2.194-2.547 2.057a2.32 2.32 0 0 1-2.052-2.553l.02-.182zm10.556 0c-.137-1.272-1.278-2.194-2.547-2.057a2.32 2.32 0 0 0-2.052 2.553l.02.182c.137 1.272 1.278 2.194 2.547 2.057a2.32 2.32 0 0 0 2.052-2.553l-.02-.182z"/></g><path d="M89.258 104.583c-.137-1.272-1.278-2.194-2.547-2.057a2.32 2.32 0 0 0-2.052 2.553l.02.182c.137 1.272 1.278 2.194 2.547 2.057a2.32 2.32 0 0 0 2.052-2.553l-.02-.182z" class="D"/><g class="C"><path d="M58.145 78.606a2.31 2.31 0 0 1 3.196-.7c1.075.691 1.387 2.126.698 3.203l-.099.154a2.31 2.31 0 0 1-3.196.7c-1.074-.691-1.387-2.126-.698-3.203l.099-.154zm42.419 0a2.31 2.31 0 0 0-3.196-.7c-1.075.691-1.387 2.126-.698 3.203l.099.154a2.31 2.31 0 0 0 3.196.7c1.075-.691 1.387-2.126.698-3.203l-.099-.154z"/></g><path d="M58.472 94.533a2.31 2.31 0 0 1 3.196-.699c1.075.691 1.387 2.126.698 3.203l-2.758 4.308a2.31 2.31 0 0 1-3.196.699c-1.075-.691-1.387-2.126-.698-3.203l2.758-4.309z" class="D"/><g class="G"><path d="M97.906 55.613a2.31 2.31 0 0 0-3.196-.7c-1.075.691-1.387 2.126-.698 3.203l.099.154a2.31 2.31 0 0 0 3.196.7c1.075-.691 1.387-2.126.698-3.203l-.099-.154zm-28.242 9.649c.209-1.262 1.401-2.117 2.66-1.908a2.32 2.32 0 0 1 1.904 2.666l-.03.181c-.209 1.262-1.401 2.117-2.66 1.908a2.32 2.32 0 0 1-1.904-2.666l.03-.181zm19.678-.023c-.209-1.262-1.401-2.117-2.66-1.908a2.32 2.32 0 0 0-1.904 2.666l.03.181c.209 1.262 1.401 2.117 2.66 1.908a2.32 2.32 0 0 0 1.904-2.666l-.03-.181z"/></g><path d="M108.384 91.419l-4.684-7.337-2.708-4.271c-.031-.363-.119-.723-.328-1.05l-.099-.154c-.206-.322-.49-.551-.799-.73l-.121-.192c.266-.517.494-1.046.685-1.587.728.428 1.655.465 2.413-.023 1.074-.691 1.387-2.126.698-3.203l-.099-.154c-.561-.876-1.607-1.213-2.559-.948l-6.068-9.418c0-.289-.048-.582-.163-.866l-.069-.17c-.027-.067-.083-.111-.115-.175a10.5 10.5 0 0 0 1.195-1.858c.58.128 1.207.035 1.746-.312 1.074-.691 1.387-2.126.698-3.203l-.099-.154c-.425-.665-1.136-.996-1.869-1.022l-12.76-19.203a4.29 4.29 0 0 0-7.144 0L63.366 54.606c-.865-.119-1.762.247-2.264 1.031l-.099.154c-.689 1.077-.377 2.512.698 3.203.651.418 1.418.429 2.087.164.246.506.524 1.001.861 1.473l-7.124 11.057c-.83-.074-1.674.277-2.155 1.029l-.099.154c-.689 1.077-.377 2.512.698 3.203.628.404 1.365.429 2.017.194a12.88 12.88 0 0 0 .771 1.706c-.235.167-.446.375-.611.632l-.099.154c-.393.614-.428 1.333-.214 1.976l-3.191 5.032-3.699 5.779c-.689 1.077-.377 2.512.698 3.203a2.31 2.31 0 0 0 3.196-.699l.246-.385c.519 1.099 1.159 2.154 1.927 3.151l-1.295 2.024c-.689 1.077-.377 2.512.698 3.203a2.31 2.31 0 0 0 3.196-.699l.731-1.142c.746.61 1.537 1.188 2.382 1.724l-.374 1.214a2.32 2.32 0 0 0 1.529 2.898c1.22.377 2.516-.309 2.892-1.532l.129-.418c1.127.469 2.309.87 3.533 1.214l-.087.809a2.32 2.32 0 0 0 2.052 2.553c1.269.137 2.411-.785 2.547-2.057l.039-.362a35.27 35.27 0 0 0 4.724.331c1.809 0 3.575-.137 5.281-.395a2.31 2.31 0 0 0 2.24 1.135c1.114-.12 1.958-1.017 2.055-2.095a31.46 31.46 0 0 0 1.981-.654c.565.783 1.577 1.165 2.549.865 1.165-.361 1.831-1.562 1.561-2.735 1.555-.863 2.983-1.841 4.24-2.933l.066.097a2.31 2.31 0 0 0 3.214.608c1.054-.721 1.326-2.165.606-3.222l-.679-.997c.588-.827 1.086-1.692 1.507-2.585l.163.255c.688 1.078 2.119 1.392 3.193.701s1.388-2.127.7-3.205z" opacity=".3" class="M"/><path d="M112.345 86.464h-10.442v28.784c0 2.887 2.335 5.228 5.216 5.228h.01c2.881 0 5.216-2.341 5.216-5.228V86.464z" class="I"/><g class="D"><use href="#AY"/><path d="M113.762 54.239a8.72 8.72 0 0 0-14.724 0L76.962 89.056c0 11.958 13.191 21.666 29.438 21.666s29.438-9.708 29.438-21.666l-22.076-34.817z"/></g></g><g clip-path="url(#J)" class="B H"><use href="#AZ"/></g><g class="B"><g class="D"><path d="M96.314 105.73c.154-1.436 1.442-2.476 2.875-2.321s2.47 1.445 2.316 2.881l-.48 4.467c-.154 1.435-1.442 2.476-2.875 2.321s-2.47-1.445-2.316-2.881l.479-4.467z"/><use href="#Aa"/></g><g class="H"><path d="M108.357 95.024c0-1.444-1.17-2.616-2.61-2.616s-2.611 1.172-2.611 2.616v2.616c0 1.444 1.17 2.616 2.611 2.616s2.61-1.172 2.61-2.616v-2.616zm9.028 4.921c-.177-1.433-1.482-2.452-2.911-2.275s-2.446 1.485-2.269 2.918l.321 2.596c.177 1.433 1.482 2.452 2.911 2.275s2.447-1.485 2.269-2.918l-.321-2.596zm-23.093 0c.177-1.433 1.482-2.452 2.912-2.275s2.446 1.485 2.269 2.918l-.321 2.596c-.177 1.433-1.482 2.452-2.911 2.275s-2.447-1.485-2.269-2.918l.321-2.596zm29.923-10.391a2.61 2.61 0 0 0-3.274-1.709 2.62 2.62 0 0 0-1.705 3.282l1.099 3.496a2.61 2.61 0 0 0 3.274 1.709 2.62 2.62 0 0 0 1.705-3.282l-1.099-3.496zm-35.243 1.187a2.61 2.61 0 0 1 3.274-1.709 2.62 2.62 0 0 1 1.705 3.282l-1.099 3.496a2.61 2.61 0 0 1-3.274 1.709 2.62 2.62 0 0 1-1.705-3.282l1.099-3.496z"/><use href="#Ab"/><use href="#Ac"/></g><path d="M113.074 44.88c-1.607-2.494-4.366-4-7.327-4a8.72 8.72 0 0 0-7.328 4L81.021 71.883c0 9.884 11.079 17.909 24.726 17.909s24.725-8.025 24.725-17.909L113.074 44.88z" class="C"/></g><g clip-path="url(#K)" class="B D"><path d="M112.455,22.942c-1.657-1.998-4.116-3.154-6.708-3.154s-5.051,1.156-6.708,3.154c-7.322,8.842-18.017,23.054-18.017,30.626,0,9.884,11.079,17.909,24.726,17.909s24.725-8.025,24.725-17.909c0-7.572-10.695-21.784-18.017-30.626Z"/><use href="#Ad"/><use href="#Ae"/><path d="M109.735 76.71c0-1.444-1.17-2.616-2.61-2.616s-2.61 1.172-2.61 2.616v2.616c0 1.444 1.17 2.616 2.61 2.616s2.61-1.172 2.61-2.616V76.71z"/><use href="#Af"/><use href="#Ag"/></g><path d="M110.431 30.38a4.84 4.84 0 0 0-8.062 0L87.403 52.903c0 4.293 2.893 8.115 7.384 10.556 3.212 1.746 7.241 2.785 11.613 2.785 10.484 0 18.997-5.978 18.997-13.342l-14.966-22.523z" class="B C"/><g clip-path="url(#L)" class="B"><path d="M122.787,40.871c0-9.099-7.371-16.486-16.449-16.486h-.379c-9.079,0-16.449,7.387-16.449,16.486v.698c0,9.099,7.37,16.486,16.449,16.486h.379c9.078,0,16.449-7.387,16.449-16.486v-.698Z" class="G"/><g class="C"><use href="#Ah"/><use href="#Ai"/><path d="M109.735,50.548c0-1.444-1.17-2.617-2.61-2.617s-2.61,1.173-2.61,2.617v2.616c0,1.444,1.17,2.616,2.61,2.616s2.61-1.173,2.61-2.616v-2.616Z"/><use href="#Aj"/></g></g><g class="B"><g class="G"><path d="M103.136,66.038c0-1.444,1.17-2.616,2.611-2.616s2.61,1.172,2.61,2.616v.207c0,1.444-1.17,2.616-2.61,2.616s-2.611-1.172-2.611-2.616v-.207Z"/><use href="#Ak"/><use href="#Al"/><use href="#Am"/></g><use href="#An" class="J"/><g class="C"><use href="#Ao"/><use href="#Ap"/><use href="#Aq"/></g><path d="M131.196 97.173a2.61 2.61 0 0 0-3.628-.686c-1.19.814-1.496 2.443-.684 3.636l2.057 3.02a2.61 2.61 0 0 0 3.628.686c1.19-.814 1.496-2.443.684-3.636l-2.057-3.02z" class="D"/><g class="C"><use href="#Ar"/><use href="#As"/></g><g class="D"><path d="M123.983 105.961a2.61 2.61 0 0 0-3.264-1.729 2.62 2.62 0 0 0-1.725 3.271l.061.198a2.61 2.61 0 0 0 3.264 1.729 2.62 2.62 0 0 0 1.725-3.271l-.061-.198zm-36.133-2.492a2.61 2.61 0 0 1 3.264-1.729 2.62 2.62 0 0 1 1.725 3.271l-1.038 3.374a2.61 2.61 0 0 1-3.264 1.729 2.62 2.62 0 0 1-1.725-3.271l1.039-3.374z"/></g><g class="C"><path d="M100.048 89.982c.154-1.436 1.442-2.476 2.875-2.321s2.47 1.445 2.316 2.881l-.022.206c-.154 1.436-1.442 2.476-2.875 2.321s-2.47-1.445-2.316-2.881l.022-.206z"/><use href="#At"/></g><path d="M117.181 108.47c-.154-1.436-1.442-2.476-2.875-2.321s-2.47 1.445-2.316 2.881l.022.206c.154 1.436 1.442 2.476 2.875 2.321s2.47-1.445 2.316-2.881l-.022-.206z" class="D"/><g class="C"><use href="#Au"/><use href="#Av"/></g><path d="M82.438 97.128a2.61 2.61 0 0 1 3.607-.789 2.62 2.62 0 0 1 .787 3.615l-3.112 4.862a2.61 2.61 0 0 1-3.607.789 2.62 2.62 0 0 1-.787-3.615l3.112-4.862z" class="D"/><g class="G"><use href="#Aw"/><use href="#Ax"/><use href="#Ay"/></g></g><g fill="#fff"><path d="M1013.491-25.542h500.625v143.036h-500.625z"/><use href="#Az"/></g><g class="P"><use href="#BA"/><path d="M1064.575 76.626h10.217v40.867h-10.217zm40.868 0h10.217v40.867h-10.217zm40.867 0h10.217v40.867h-10.217zm40.867 0h10.217v40.867h-10.217zm40.868 0h10.217v40.867h-10.217zm40.867 0h10.217v40.867h-10.217zm40.867 0h10.217v40.867h-10.217zm40.868 0h10.217v40.867h-10.217zm40.867 0h10.217v40.867h-10.217zm40.867 0h10.217v40.867h-10.217zm40.868 0h10.217v40.867h-10.217zm-429.107 0h10.217v40.867h-10.217zm40.867 0h10.217v40.867h-10.217zm40.867 0h10.217v40.867h-10.217zm40.868 0h10.217v40.867h-10.217zm40.867 0h10.217v40.867h-10.217zm40.867 0h10.217v40.867h-10.217zm40.868 0h10.217v40.867h-10.217zm40.867 0h10.217v40.867h-10.217zm40.867 0h10.217v40.867h-10.217zm40.868 0h10.217v40.867h-10.217zm40.867 0h10.217v40.867h-10.217zm40.867 0h10.217v40.867h-10.217z"/><use href="#BB"/></g><g fill="#9fc0d6"><path d="M1013.491 66.409h500.625v10.217h-500.625zm0-51.084h500.625v10.217h-500.625z"/></g><path d="M1013.491 25.542h500.625v40.867h-500.625z" fill="#fff"/><g class="P"><path d="M1023.708 25.542h10.217v40.867h-10.217zm40.867 0h10.217v40.867h-10.217zm40.868 0h10.217v40.867h-10.217zm40.867 0h10.217v40.867h-10.217zm40.867 0h10.217v40.867h-10.217zm40.868 0h10.217v40.867h-10.217zm40.867 0h10.217v40.867h-10.217zm40.867 0h10.217v40.867h-10.217zm40.868 0h10.217v40.867h-10.217zm40.867 0h10.217v40.867h-10.217zm40.867 0h10.217v40.867h-10.217zm40.868 0h10.217v40.867h-10.217zm-429.107 0h10.217v40.867h-10.217zm40.867 0h10.217v40.867h-10.217zm40.867 0h10.217v40.867h-10.217zm40.868 0h10.217v40.867h-10.217zm40.867 0h10.217v40.867h-10.217zm40.867 0h10.217v40.867h-10.217zm40.868 0h10.217v40.867h-10.217zm40.867 0h10.217v40.867h-10.217zm40.867 0h10.217v40.867h-10.217zm40.868 0h10.217v40.867h-10.217zm40.867 0h10.217v40.867h-10.217zm40.867 0h10.217v40.867h-10.217z"/><path d="M1013.491 25.542h500.625v10.217h-500.625z"/></g><g fill="#c7dbe7"><use href="#BC"/><path d="M1064.575 25.542h10.217v10.217h-10.217zm40.868 0h10.217v10.217h-10.217zm40.867 0h10.217v10.217h-10.217zm40.867 0h10.217v10.217h-10.217zm40.868 0h10.217v10.217h-10.217zm40.867 0h10.217v10.217h-10.217zm40.867 0h10.217v10.217h-10.217zm40.868 0h10.217v10.217h-10.217zm40.867 0h10.217v10.217h-10.217zm40.867 0h10.217v10.217h-10.217zm40.868 0h10.217v10.217h-10.217zm-429.107 0h10.217v10.217h-10.217zm40.867 0h10.217v10.217h-10.217zm40.867 0h10.217v10.217h-10.217zm40.868 0h10.217v10.217h-10.217zm40.867 0h10.217v10.217h-10.217zm40.867 0h10.217v10.217h-10.217zm40.868 0h10.217v10.217h-10.217zm40.867 0h10.217v10.217h-10.217zm40.867 0h10.217v10.217h-10.217zm40.868 0h10.217v10.217h-10.217zm40.867 0h10.217v10.217h-10.217zm40.867 0h10.217v10.217h-10.217z"/></g><path d="M1054.358 25.542h81.735v40.867h-81.735z" class="L"/><path d="M1054.358 25.542h81.735v10.217h-81.735z" class="N"/><path d="M1279.129 25.542h51.084v40.867h-51.084z" class="L"/><path d="M1279.129 25.542h51.084v10.217h-51.084z" class="N"/><g fill="#c7dbe7"><path d="M1023.708 76.626h10.217v10.217h-10.217zm40.867 0h10.217v10.217h-10.217zm40.868 0h10.217v10.217h-10.217zm40.867 0h10.217v10.217h-10.217zm40.867 0h10.217v10.217h-10.217zm40.868 0h10.217v10.217h-10.217zm40.867 0h10.217v10.217h-10.217zm40.867 0h10.217v10.217h-10.217zm40.868 0h10.217v10.217h-10.217zm40.867 0h10.217v10.217h-10.217zm40.867 0h10.217v10.217h-10.217zm40.868 0h10.217v10.217h-10.217zm-429.107 0h10.217v10.217h-10.217zm40.867 0h10.217v10.217h-10.217zm40.867 0h10.217v10.217h-10.217zm40.868 0h10.217v10.217h-10.217zm40.867 0h10.217v10.217h-10.217zm40.867 0h10.217v10.217h-10.217zm40.868 0h10.217v10.217h-10.217zm40.867 0h10.217v10.217h-10.217zm40.867 0h10.217v10.217h-10.217zm40.868 0h10.217v10.217h-10.217zm40.867 0h10.217v10.217h-10.217zm40.867 0h10.217v10.217h-10.217z"/></g><path d="M1217.828 76.626h61.301v40.867h-61.301z" class="L"/><path d="M1217.828 76.626h61.301v10.217h-61.301z" class="N"/><path d="M1391.514 76.626h30.651v40.867h-30.651z" class="L"/><path d="M1391.514 76.626h30.651v10.217h-30.651z" class="N"/><path d="M1013.491-25.542h500.625v40.867h-500.625z" fill="#fff"/><g class="P"><path d="M1023.708-25.542h10.217v40.867h-10.217zm40.867 0h10.217v40.867h-10.217zm40.868 0h10.217v40.867h-10.217zm40.867 0h10.217v40.867h-10.217zm40.867 0h10.217v40.867h-10.217zm40.868 0h10.217v40.867h-10.217zm40.867 0h10.217v40.867h-10.217zm40.867 0h10.217v40.867h-10.217zm40.868 0h10.217v40.867h-10.217zm40.867 0h10.217v40.867h-10.217zm40.867 0h10.217v40.867h-10.217zm40.868 0h10.217v40.867h-10.217zm-429.107 0h10.217v40.867h-10.217zm40.867 0h10.217v40.867h-10.217zm40.867 0h10.217v40.867h-10.217zm40.868 0h10.217v40.867h-10.217zm40.867 0h10.217v40.867h-10.217zm40.867 0h10.217v40.867h-10.217zm40.868 0h10.217v40.867h-10.217zm40.867 0h10.217v40.867h-10.217zm40.867 0h10.217v40.867h-10.217zm40.868 0h10.217v40.867h-10.217zm40.867 0h10.217v40.867h-10.217zm40.867 0h10.217v40.867h-10.217z"/></g><g class="L"><path d="M1105.443-25.542h30.651v40.867h-30.651zm306.505 0h61.301v40.867h-61.301z"/></g><g stroke="#00b365" stroke-width="10" fill="#77d629" class="K O R"><path d="M1013.491 117.494h204.337m66.409 0h230.783"/></g><g class="B"><use href="#BD" class="I"/><g class="D"><path d="M1471.13 141.194a2.31 2.31 0 0 0-3.194-.701c-1.075.691-1.388 2.127-.7 3.204l4.95 7.754a2.31 2.31 0 0 0 3.194.701c1.075-.691 1.388-2.127.7-3.205l-4.95-7.753z"/><use href="#BE"/></g></g><g clip-path="url(#M)" class="B H"><path d="M1452.772 96.793a7.72 7.72 0 0 0-5.95-2.804c-2.301 0-4.482 1.027-5.951 2.802-7.697 9.317-20.133 25.685-20.133 34.207 0 10.596 11.688 19.199 26.085 19.199s26.085-8.603 26.085-19.199c0-8.522-12.437-24.89-20.135-34.205z"/></g><g class="B"><path d="M1422.77 142.621a2.31 2.31 0 0 1 3.196-.7c1.075.691 1.387 2.126.698 3.203l-4.132 6.455a2.31 2.31 0 0 1-3.196.699c-1.075-.691-1.387-2.126-.698-3.203l4.131-6.455z" class="D"/><g class="H"><path d="M1463.187 145.35c-.384-1.22-1.684-1.899-2.901-1.514a2.32 2.32 0 0 0-1.511 2.908l.974 3.098c.384 1.22 1.684 1.899 2.901 1.514a2.32 2.32 0 0 0 1.511-2.908l-.974-3.098zm-31.229 1.052c.384-1.22 1.684-1.899 2.901-1.514a2.32 2.32 0 0 1 1.511 2.908l-.974 3.098c-.384 1.22-1.684 1.899-2.901 1.514a2.32 2.32 0 0 1-1.511-2.908l.974-3.098zm36.941-5.417a2.31 2.31 0 0 0-3.16-.848c-1.106.64-1.485 2.059-.847 3.167l2.092 3.633c.638 1.108 2.054 1.488 3.16.849s1.485-2.059.847-3.167l-2.093-3.633zm-42.63-.124a2.31 2.31 0 0 1 3.16-.848c1.106.64 1.485 2.059.847 3.167l-2.093 3.633c-.638 1.108-2.054 1.488-3.16.849s-1.485-2.059-.847-3.167l2.093-3.633z"/></g><path d="M1453.315 105.764c-1.424-2.21-3.869-3.544-6.493-3.544s-5.069 1.335-6.493 3.544l-15.416 23.927c0 8.758 9.817 15.869 21.91 15.869s21.909-7.111 21.909-15.869l-15.416-23.927z" class="C"/></g><g clip-path="url(#N)" class="B D"><use href="#BF"/><path d="M1435.012 127.48c.638-1.108.259-2.527-.847-3.167s-2.521-.259-3.16.849l-2.313 4.015c-.638 1.108-.259 2.527.847 3.167s2.521.259 3.16-.849l2.313-4.015zm5.486 8.47a2.32 2.32 0 0 0-1.429-2.949c-1.206-.418-2.525.223-2.942 1.432l-.757 2.191a2.32 2.32 0 0 0 1.429 2.949c1.206.418 2.525-.223 2.942-1.432l.757-2.191z"/><use href="#BG"/><path d="M1459.451 134.352c-.462-1.193-1.804-1.784-2.994-1.321s-1.78 1.808-1.318 3.001l.838 2.161c.462 1.192 1.804 1.784 2.994 1.321s1.78-1.808 1.318-3.001l-.838-2.161zm3.627-9.967a2.31 2.31 0 0 0-3.16-.848c-1.105.64-1.485 2.059-.847 3.167l2.003 3.477a2.31 2.31 0 0 0 3.16.848c1.106-.64 1.485-2.059.847-3.167l-2.003-3.477z"/></g><path d="M1450.973 92.916a4.29 4.29 0 0 0-7.144 0l-13.261 19.958c0 3.804 2.564 7.191 6.543 9.354 2.846 1.547 6.416 2.468 10.29 2.468 9.29 0 16.833-5.297 16.833-11.822l-13.261-19.958z" class="B C"/><g clip-path="url(#O)" class="B"><use href="#BH" class="G"/><g class="C"><path d="M1448.144 102.137a2.32 2.32 0 0 0-1.605-2.857c-1.229-.344-2.507.377-2.85 1.609l-.186.667a2.32 2.32 0 0 0 1.605 2.857c1.23.344 2.507-.377 2.85-1.609l.186-.667zm-6.768 5.118a2.32 2.32 0 0 0-1.099-3.088 2.31 2.31 0 0 0-3.081 1.101l-.991 2.095a2.32 2.32 0 0 0 1.099 3.088 2.31 2.31 0 0 0 3.081-1.101l.991-2.095z"/><use href="#BI"/><path d="M1456.4 102.98a2.31 2.31 0 0 0-3.162-.839c-1.104.643-1.478 2.063-.837 3.169l1.163 2.004a2.31 2.31 0 0 0 3.162.839c1.104-.643 1.478-2.063.837-3.17l-1.163-2.004z"/></g></g><g class="B"><g class="G"><use href="#BJ"/><path d="M1432.221 118.866c.48-1.186 1.83-1.757 3.013-1.276a2.32 2.32 0 0 1 1.273 3.02l-.069.17c-.48 1.186-1.83 1.757-3.013 1.276a2.32 2.32 0 0 1-1.273-3.02l.069-.17zm29.956-.023c-.48-1.186-1.83-1.757-3.013-1.276a2.32 2.32 0 0 0-1.273 3.02l.069.17c.48 1.186 1.83 1.757 3.013 1.276a2.32 2.32 0 0 0 1.273-3.02l-.069-.17zm-33.38-5.679a2.31 2.31 0 0 1 3.196-.699c1.075.691 1.387 2.126.698 3.203l-.099.154a2.31 2.31 0 0 1-3.196.699c-1.075-.691-1.387-2.126-.698-3.203l.099-.154z"/></g><path d="M1423.064 130.245a2.31 2.31 0 0 1 3.196-.699c1.075.691 1.387 2.126.698 3.203l-.099.154a2.31 2.31 0 0 1-3.196.7c-1.075-.691-1.387-2.126-.698-3.203l.099-.154z" class="J"/><g class="C"><path d="M1471.036 130.245a2.31 2.31 0 0 0-3.196-.699c-1.075.691-1.387 2.126-.698 3.203l.099.154a2.31 2.31 0 0 0 3.196.7c1.075-.691 1.387-2.126.698-3.203l-.099-.154zm-40.438 10.176a2.31 2.31 0 0 1 3.196-.7c1.075.691 1.387 2.126.698 3.203l-.099.154a2.31 2.31 0 0 1-3.196.699c-1.075-.691-1.387-2.126-.698-3.203l.099-.154zm32.905 0a2.31 2.31 0 0 0-3.196-.7c-1.075.691-1.387 2.126-.698 3.203l.099.154a2.31 2.31 0 0 0 3.196.699c1.075-.691 1.387-2.126.698-3.203l-.099-.154zm-27.758 3.086c.376-1.223 1.672-1.909 2.892-1.532a2.32 2.32 0 0 1 1.528 2.899l-.054.175c-.377 1.222-1.672 1.909-2.892 1.532a2.32 2.32 0 0 1-1.528-2.899l.054-.175zm22.61 0c-.376-1.223-1.672-1.909-2.892-1.532a2.32 2.32 0 0 0-1.528 2.899l.054.175c.376 1.222 1.672 1.909 2.892 1.532a2.32 2.32 0 0 0 1.528-2.899l-.054-.175zm-16.583 2.222c.137-1.272 1.278-2.194 2.547-2.057a2.32 2.32 0 0 1 2.052 2.553l-.02.182c-.137 1.272-1.278 2.194-2.547 2.057a2.32 2.32 0 0 1-2.052-2.553l.02-.182zm10.556 0c-.137-1.272-1.278-2.194-2.547-2.057a2.32 2.32 0 0 0-2.052 2.553l.02.182c.137 1.272 1.278 2.194 2.547 2.057a2.32 2.32 0 0 0 2.052-2.553l-.02-.182zm-26.487-9.594a2.31 2.31 0 0 1 3.196-.7c1.075.691 1.387 2.126.698 3.203l-.099.154a2.31 2.31 0 0 1-3.196.7c-1.074-.691-1.387-2.126-.698-3.203l.099-.154zm42.419 0a2.31 2.31 0 0 0-3.196-.7c-1.075.691-1.387 2.126-.698 3.203l.099.154a2.31 2.31 0 0 0 3.196.7c1.075-.691 1.387-2.126.698-3.203l-.099-.154z"/></g><g class="G"><path d="M1465.602 113.141a2.31 2.31 0 0 0-3.196-.7c-1.075.691-1.387 2.126-.698 3.203l.099.154a2.31 2.31 0 0 0 3.196.7c1.075-.691 1.387-2.126.698-3.203l-.099-.154zm-28.242 9.649c.209-1.262 1.401-2.117 2.66-1.908a2.32 2.32 0 0 1 1.904 2.666l-.03.181c-.209 1.262-1.401 2.117-2.66 1.908a2.32 2.32 0 0 1-1.904-2.666l.03-.181zm19.678-.023c-.209-1.262-1.401-2.117-2.66-1.908a2.32 2.32 0 0 0-1.904 2.666l.03.181c.209 1.262 1.401 2.117 2.66 1.908a2.32 2.32 0 0 0 1.904-2.666l-.03-.181z"/></g><path d="M1476.08 148.948l-4.684-7.337-2.708-4.271c-.031-.363-.119-.723-.328-1.05l-.099-.154c-.206-.322-.49-.551-.799-.73l-.121-.192c.266-.517.494-1.046.685-1.587.728.428 1.655.465 2.413-.023 1.074-.691 1.387-2.126.698-3.203l-.099-.154c-.561-.876-1.607-1.213-2.559-.948l-6.068-9.418c0-.289-.048-.582-.163-.866l-.069-.17c-.027-.067-.083-.111-.115-.175a10.5 10.5 0 0 0 1.195-1.858c.58.128 1.207.035 1.746-.312 1.074-.691 1.387-2.126.698-3.203l-.099-.154c-.425-.665-1.136-.996-1.869-1.022l-12.76-19.203a4.29 4.29 0 0 0-7.144 0l-12.769 19.217c-.865-.119-1.762.247-2.264 1.031l-.099.154c-.689 1.077-.377 2.512.698 3.203.651.418 1.418.429 2.087.164.246.506.524 1.001.861 1.473l-7.124 11.057c-.83-.074-1.674.277-2.155 1.029l-.099.154c-.689 1.077-.377 2.512.698 3.203.628.404 1.365.429 2.017.194a12.88 12.88 0 0 0 .771 1.706c-.235.167-.446.375-.611.632l-.099.154c-.393.614-.428 1.333-.214 1.976l-3.191 5.032-3.699 5.779c-.689 1.077-.377 2.512.698 3.203a2.31 2.31 0 0 0 3.196-.699l.246-.385c.519 1.099 1.159 2.154 1.927 3.151l-1.295 2.024c-.689 1.077-.377 2.512.698 3.203a2.31 2.31 0 0 0 3.196-.699l.731-1.142c.746.61 1.537 1.188 2.382 1.724l-.374 1.214a2.32 2.32 0 0 0 1.529 2.898c1.22.377 2.516-.309 2.892-1.532l.129-.418c1.127.469 2.309.87 3.533 1.214l-.087.809a2.32 2.32 0 0 0 2.052 2.553c1.269.137 2.411-.785 2.547-2.057l.039-.362a35.27 35.27 0 0 0 4.724.331c1.809 0 3.575-.137 5.281-.395a2.31 2.31 0 0 0 2.24 1.135c1.114-.12 1.958-1.017 2.055-2.095a31.46 31.46 0 0 0 1.981-.654c.565.783 1.577 1.165 2.549.865 1.165-.361 1.831-1.562 1.561-2.735 1.555-.863 2.983-1.841 4.24-2.933l.066.097a2.31 2.31 0 0 0 3.214.608c1.054-.721 1.326-2.165.606-3.222l-.679-.997c.588-.827 1.086-1.692 1.507-2.585l.163.255c.688 1.078 2.119 1.392 3.193.701s1.388-2.127.7-3.205z" opacity=".3" class="M"/><path d="M1398.561 142.612h-9.252v25.505c0 2.558 2.069 4.632 4.622 4.632h.009a4.63 4.63 0 0 0 4.622-4.632v-25.505z" class="I"/><g class="D"><path d="M1417.021 141.194a2.31 2.31 0 0 0-3.194-.701c-1.075.691-1.388 2.127-.7 3.204l4.95 7.754a2.31 2.31 0 0 0 3.194.701c1.075-.691 1.388-2.127.7-3.205l-4.95-7.753z"/><path d="M1399.816 114.057c-1.418-2.237-3.879-3.592-6.523-3.592s-5.105 1.355-6.523 3.592l-19.562 30.851c0 10.596 11.688 19.199 26.085 19.199s26.085-8.603 26.085-19.199l-19.562-30.851z"/></g></g><g clip-path="url(#P)" class="B H"><path d="M1398.663 96.793a7.72 7.72 0 0 0-5.95-2.804c-2.301 0-4.482 1.027-5.951 2.802-7.697 9.317-20.133 25.685-20.133 34.207 0 10.596 11.688 19.199 26.085 19.199s26.085-8.603 26.085-19.199c0-8.522-12.437-24.89-20.135-34.205z"/></g><g class="B"><path d="M1368.662 142.621a2.31 2.31 0 0 1 3.196-.7c1.075.691 1.387 2.126.698 3.203l-4.132 6.455a2.31 2.31 0 0 1-3.196.699c-1.075-.691-1.387-2.126-.698-3.203l4.131-6.455z" class="D"/><g class="H"><path d="M1409.079 145.35c-.384-1.22-1.684-1.899-2.901-1.514a2.32 2.32 0 0 0-1.511 2.908l.974 3.098c.384 1.22 1.684 1.899 2.901 1.514a2.32 2.32 0 0 0 1.511-2.908l-.974-3.098zm-31.229 1.052c.384-1.22 1.684-1.899 2.901-1.514a2.32 2.32 0 0 1 1.511 2.908l-.974 3.098c-.384 1.22-1.684 1.899-2.901 1.514a2.32 2.32 0 0 1-1.511-2.908l.974-3.098zm36.94-5.417a2.31 2.31 0 0 0-3.16-.848c-1.106.64-1.485 2.059-.847 3.167l2.092 3.633c.638 1.108 2.054 1.488 3.16.849s1.485-2.059.847-3.167l-2.093-3.633zm-42.629-.124a2.31 2.31 0 0 1 3.16-.848c1.106.64 1.485 2.059.847 3.167l-2.093 3.633c-.638 1.108-2.054 1.488-3.16.849s-1.485-2.059-.847-3.167l2.093-3.633z"/></g><path d="M1399.207 105.764c-1.424-2.21-3.869-3.544-6.493-3.544s-5.069 1.335-6.493 3.544l-15.416 23.927c0 8.758 9.817 15.869 21.91 15.869s21.909-7.111 21.909-15.869l-15.416-23.927z" class="C"/></g><g clip-path="url(#Q)" class="B D"><path d="M1398.658,86.325c-1.469-1.771-3.647-2.795-5.944-2.795s-4.476,1.024-5.944,2.795c-6.488,7.835-15.965,20.429-15.965,27.138,0,8.758,9.817,15.869,21.91,15.869s21.909-7.111,21.909-15.869c0-6.71-9.477-19.303-15.965-27.138Z"/><path d="M1380.903 127.48c.638-1.108.259-2.527-.847-3.167s-2.521-.259-3.16.849l-2.313 4.015c-.638 1.108-.259 2.527.847 3.167s2.521.259 3.16-.849l2.313-4.015zm5.487 8.47a2.32 2.32 0 0 0-1.429-2.949c-1.206-.418-2.525.223-2.942 1.432l-.757 2.191a2.32 2.32 0 0 0 1.429 2.949c1.206.418 2.525-.223 2.942-1.432l.757-2.191zm9.858-1.981c0-1.28-1.037-2.318-2.313-2.318a2.32 2.32 0 0 0-2.313 2.318v2.318c0 1.28 1.036 2.318 2.313 2.318s2.313-1.039 2.313-2.318v-2.318zm9.095.383c-.462-1.193-1.804-1.784-2.994-1.321s-1.78 1.808-1.318 3.001l.838 2.161c.462 1.192 1.804 1.784 2.994 1.321s1.78-1.808 1.318-3.001l-.838-2.161zm3.626-9.967a2.31 2.31 0 0 0-3.16-.848c-1.105.64-1.485 2.059-.847 3.167l2.003 3.477a2.31 2.31 0 0 0 3.16.848c1.106-.64 1.485-2.059.847-3.167l-2.003-3.477z"/></g><path d="M1396.865 92.916a4.29 4.29 0 0 0-7.144 0l-13.261 19.958c0 3.804 2.564 7.191 6.543 9.354 2.846 1.547 6.416 2.468 10.29 2.468 9.29 0 16.833-5.297 16.833-11.822l-13.261-19.958z" class="B C"/><g clip-path="url(#R)" class="B"><path d="M1407.813,102.212c0-8.063-6.531-14.609-14.576-14.609h-.336c-8.045,0-14.576,6.546-14.576,14.609v.618c0,8.063,6.531,14.609,14.576,14.609h.336c8.044,0,14.576-6.546,14.576-14.609v-.618Z" class="G"/><g class="C"><path d="M1394.036 102.137a2.32 2.32 0 0 0-1.605-2.857c-1.229-.344-2.507.377-2.85 1.609l-.186.667a2.32 2.32 0 0 0 1.605 2.857c1.23.344 2.507-.377 2.85-1.609l.186-.667zm-6.768 5.118a2.32 2.32 0 0 0-1.099-3.088 2.31 2.31 0 0 0-3.081 1.101l-.991 2.095a2.32 2.32 0 0 0 1.099 3.088 2.31 2.31 0 0 0 3.081-1.101l.991-2.095zm8.98 3.531a2.32 2.32 0 0 0-2.313-2.319 2.32 2.32 0 0 0-2.313 2.319v2.318c0 1.279 1.036 2.318 2.313 2.318s2.313-1.039 2.313-2.318v-2.318zm6.044-7.806a2.31 2.31 0 0 0-3.162-.839c-1.104.643-1.478 2.063-.837 3.169l1.163 2.004a2.31 2.31 0 0 0 3.162.839c1.104-.643 1.478-2.063.837-3.17l-1.163-2.004z"/></g></g><g class="B"><g class="G"><path d="M1390.4 124.513c0-1.28 1.037-2.318 2.313-2.318a2.32 2.32 0 0 1 2.313 2.318v.183c0 1.28-1.037 2.318-2.313 2.318a2.32 2.32 0 0 1-2.313-2.318v-.183zm-12.287-5.647c.48-1.186 1.83-1.757 3.013-1.276a2.32 2.32 0 0 1 1.273 3.02l-.069.17c-.48 1.186-1.83 1.757-3.013 1.276a2.32 2.32 0 0 1-1.273-3.02l.069-.17zm29.956-.023c-.48-1.186-1.83-1.757-3.013-1.276a2.32 2.32 0 0 0-1.273 3.02l.069.17c.48 1.186 1.83 1.757 3.013 1.276a2.32 2.32 0 0 0 1.273-3.02l-.069-.17zm-33.381-5.679a2.31 2.31 0 0 1 3.196-.699c1.075.691 1.387 2.126.698 3.203l-.099.154a2.31 2.31 0 0 1-3.196.699c-1.075-.691-1.387-2.126-.698-3.203l.099-.154z"/></g><path d="M1368.956 130.245a2.31 2.31 0 0 1 3.196-.699c1.075.691 1.387 2.126.698 3.203l-.099.154a2.31 2.31 0 0 1-3.196.7c-1.075-.691-1.387-2.126-.698-3.203l.099-.154z" class="J"/><g class="C"><path d="M1416.928 130.245a2.31 2.31 0 0 0-3.196-.699c-1.075.691-1.387 2.126-.698 3.203l.099.154a2.31 2.31 0 0 0 3.196.7c1.075-.691 1.387-2.126.698-3.203l-.099-.154zm-40.439 10.176a2.31 2.31 0 0 1 3.196-.7c1.075.691 1.387 2.126.698 3.203l-.099.154a2.31 2.31 0 0 1-3.196.699c-1.075-.691-1.387-2.126-.698-3.203l.099-.154zm32.906 0a2.31 2.31 0 0 0-3.196-.7c-1.075.691-1.387 2.126-.698 3.203l.099.154a2.31 2.31 0 0 0 3.196.699c1.075-.691 1.387-2.126.698-3.203l-.099-.154zm-27.758 3.086c.376-1.223 1.672-1.909 2.892-1.532a2.32 2.32 0 0 1 1.528 2.899l-.054.175c-.377 1.222-1.672 1.909-2.892 1.532a2.32 2.32 0 0 1-1.528-2.899l.054-.175zm22.61 0c-.376-1.223-1.672-1.909-2.892-1.532a2.32 2.32 0 0 0-1.528 2.899l.054.175c.376 1.222 1.672 1.909 2.892 1.532a2.32 2.32 0 0 0 1.528-2.899l-.054-.175zm-16.583 2.222c.137-1.272 1.278-2.194 2.547-2.057a2.32 2.32 0 0 1 2.052 2.553l-.02.182c-.137 1.272-1.278 2.194-2.547 2.057a2.32 2.32 0 0 1-2.052-2.553l.02-.182zm10.556 0c-.137-1.272-1.278-2.194-2.547-2.057a2.32 2.32 0 0 0-2.052 2.553l.02.182c.137 1.272 1.278 2.194 2.547 2.057a2.32 2.32 0 0 0 2.052-2.553l-.02-.182zm-26.488-9.594a2.31 2.31 0 0 1 3.196-.7c1.075.691 1.387 2.126.698 3.203l-.099.154a2.31 2.31 0 0 1-3.196.7c-1.074-.691-1.387-2.126-.698-3.203l.099-.154zm42.419 0a2.31 2.31 0 0 0-3.196-.7c-1.075.691-1.387 2.126-.698 3.203l.099.154a2.31 2.31 0 0 0 3.196.7c1.075-.691 1.387-2.126.698-3.203l-.099-.154z"/></g><g class="G"><path d="M1411.493 113.141a2.31 2.31 0 0 0-3.196-.7c-1.075.691-1.387 2.126-.698 3.203l.099.154a2.31 2.31 0 0 0 3.196.7c1.075-.691 1.387-2.126.698-3.203l-.099-.154zm-28.241 9.649c.209-1.262 1.401-2.117 2.66-1.908a2.32 2.32 0 0 1 1.904 2.666l-.03.181c-.209 1.262-1.401 2.117-2.66 1.908a2.32 2.32 0 0 1-1.904-2.666l.03-.181zm19.678-.023c-.209-1.262-1.401-2.117-2.66-1.908a2.32 2.32 0 0 0-1.904 2.666l.03.181c.209 1.262 1.401 2.117 2.66 1.908a2.32 2.32 0 0 0 1.904-2.666l-.03-.181z"/></g><path d="M1421.972 148.948l-4.684-7.337-2.708-4.271c-.031-.363-.119-.723-.328-1.05l-.099-.154c-.206-.322-.49-.551-.799-.73l-.121-.192c.266-.517.494-1.046.685-1.587.728.428 1.655.465 2.413-.023 1.074-.691 1.387-2.126.698-3.203l-.099-.154c-.561-.876-1.607-1.213-2.559-.948l-6.068-9.418c0-.289-.048-.582-.163-.866l-.069-.17c-.027-.067-.083-.111-.115-.175a10.5 10.5 0 0 0 1.195-1.858c.58.128 1.207.035 1.746-.312 1.074-.691 1.387-2.126.698-3.203l-.099-.154c-.425-.665-1.136-.996-1.869-1.022l-12.76-19.203a4.29 4.29 0 0 0-7.144 0l-12.769 19.217c-.865-.119-1.762.247-2.264 1.031l-.099.154c-.689 1.077-.377 2.512.698 3.203.651.418 1.418.429 2.087.164.246.506.524 1.001.861 1.473l-7.124 11.057c-.83-.074-1.674.277-2.155 1.029l-.099.154c-.689 1.077-.377 2.512.698 3.203.628.404 1.365.429 2.017.194a12.88 12.88 0 0 0 .771 1.706c-.235.167-.446.375-.611.632l-.099.154c-.393.614-.428 1.333-.214 1.976l-3.191 5.032-3.699 5.779c-.689 1.077-.377 2.512.698 3.203a2.31 2.31 0 0 0 3.196-.699l.246-.385c.519 1.099 1.159 2.154 1.927 3.151l-1.295 2.024c-.689 1.077-.377 2.512.698 3.203a2.31 2.31 0 0 0 3.196-.699l.731-1.142c.746.61 1.537 1.188 2.382 1.724l-.374 1.214a2.32 2.32 0 0 0 1.529 2.898c1.22.377 2.516-.309 2.892-1.532l.129-.418c1.127.469 2.309.87 3.533 1.214l-.087.809a2.32 2.32 0 0 0 2.052 2.553c1.269.137 2.411-.785 2.547-2.057l.039-.362a35.27 35.27 0 0 0 4.724.331c1.809 0 3.575-.137 5.281-.395a2.31 2.31 0 0 0 2.24 1.135c1.114-.12 1.958-1.017 2.055-2.095a31.46 31.46 0 0 0 1.981-.654c.565.783 1.577 1.165 2.549.865 1.165-.361 1.831-1.562 1.561-2.735 1.555-.863 2.983-1.841 4.24-2.933l.066.097a2.31 2.31 0 0 0 3.214.608c1.054-.721 1.326-2.165.606-3.222l-.679-.997c.588-.827 1.086-1.692 1.507-2.585l.163.255c.688 1.078 2.119 1.392 3.193.701s1.388-2.127.7-3.205z" opacity=".3" class="M"/><path d="M1425.933,143.993h-10.442v28.784c0,2.887,2.335,5.228,5.216,5.228h.01c2.881,0,5.216-2.341,5.216-5.228v-28.784Z" class="I"/><g class="D"><path d="M1446.766 142.392c-.776-1.216-2.391-1.571-3.604-.791s-1.567 2.4-.79 3.616l5.586 8.75c.776 1.216 2.391 1.571 3.604.791s1.567-2.4.79-3.617l-5.586-8.75z"/><path d="M1427.35 111.767a8.72 8.72 0 0 0-14.724 0l-22.076 34.817c0 11.958 13.191 21.666 29.438 21.666s29.438-9.708 29.438-21.666l-22.076-34.817z"/></g></g><g clip-path="url(#S)" class="B H"><path d="M1426.049 92.284c-1.657-2.004-4.119-3.164-6.715-3.164s-5.059 1.159-6.716 3.162c-8.686 10.515-22.721 28.987-22.721 38.604 0 11.958 13.191 21.666 29.438 21.666s29.438-9.708 29.438-21.666c0-9.617-14.035-28.089-22.723-38.602z"/></g><g class="B"><path d="M1392.191 144.003a2.61 2.61 0 0 1 3.607-.789c1.213.78 1.565 2.399.788 3.615l-4.663 7.284a2.61 2.61 0 0 1-3.606.789 2.62 2.62 0 0 1-.788-3.615l4.663-7.284z" class="D"/><g class="H"><path d="M1444.248 142.156a2.61 2.61 0 0 0-3.566-.958 2.62 2.62 0 0 0-.955 3.574l2.361 4.1a2.61 2.61 0 0 0 3.566.958 2.62 2.62 0 0 0 .955-3.574l-2.362-4.1zm-48.109-.14a2.61 2.61 0 0 1 3.566-.958 2.62 2.62 0 0 1 .956 3.574l-2.362 4.1a2.61 2.61 0 0 1-3.566.958 2.62 2.62 0 0 1-.955-3.574l2.362-4.1z"/></g><path d="M1426.662 102.408c-1.607-2.494-4.366-4-7.327-4a8.72 8.72 0 0 0-7.328 4l-17.398 27.003c0 9.884 11.079 17.909 24.726 17.909s24.725-8.025 24.725-17.909l-17.398-27.003z" class="C"/></g><g clip-path="url(#T)" class="B D"><path d="M1426.042,80.471c-1.657-1.998-4.116-3.154-6.708-3.154s-5.051,1.156-6.708,3.154c-7.322,8.842-18.017,23.054-18.017,30.626,0,9.884,11.079,17.909,24.726,17.909s24.725-8.025,24.725-17.909c0-7.572-10.695-21.784-18.017-30.626Z"/><path d="M1406.006 126.915a2.62 2.62 0 0 0-.956-3.574 2.61 2.61 0 0 0-3.566.958l-2.61 4.531c-.72 1.251-.292 2.852.955 3.574a2.61 2.61 0 0 0 3.566-.958l2.611-4.531zm6.192 9.559a2.62 2.62 0 0 0-1.613-3.328 2.61 2.61 0 0 0-3.321 1.616l-.854 2.472a2.62 2.62 0 0 0 1.613 3.328c1.361.472 2.849-.252 3.321-1.616l.854-2.472zm11.125-2.236c0-1.444-1.17-2.616-2.61-2.616s-2.61 1.172-2.61 2.616v2.616c0 1.444 1.17 2.616 2.61 2.616s2.61-1.172 2.61-2.616v-2.616zm10.264.432a2.61 2.61 0 0 0-3.379-1.491 2.62 2.62 0 0 0-1.487 3.386l.946 2.439a2.61 2.61 0 0 0 3.379 1.491 2.62 2.62 0 0 0 1.487-3.387l-.946-2.438zm4.092-11.247a2.61 2.61 0 0 0-3.566-.958 2.62 2.62 0 0 0-.955 3.574l2.261 3.924a2.61 2.61 0 0 0 3.566.958 2.62 2.62 0 0 0 .955-3.574l-2.261-3.924z"/></g><path d="M1424.019 87.909a4.84 4.84 0 0 0-8.062 0l-14.966 22.523c0 4.293 2.893 8.115 7.384 10.556 3.212 1.746 7.241 2.785 11.613 2.785 10.484 0 18.997-5.978 18.997-13.342l-14.966-22.523z" class="B C"/><g clip-path="url(#U)" class="B"><path d="M1436.374,98.399c0-9.099-7.371-16.486-16.449-16.486h-.379c-9.079,0-16.449,7.387-16.449,16.486v.698c0,9.099,7.37,16.486,16.449,16.486h.379c9.078,0,16.449-7.387,16.449-16.486v-.698Z" class="G"/><g class="C"><path d="M1420.826 98.315a2.62 2.62 0 0 0-1.811-3.224 2.61 2.61 0 0 0-3.216 1.816l-.21.753a2.62 2.62 0 0 0 1.811 3.224 2.61 2.61 0 0 0 3.216-1.816l.21-.753zm-7.637 5.776a2.62 2.62 0 0 0-1.24-3.485 2.61 2.61 0 0 0-3.477 1.242l-1.119 2.364a2.62 2.62 0 0 0 1.24 3.485 2.61 2.61 0 0 0 3.477-1.243l1.119-2.364zm10.134 3.985c0-1.444-1.17-2.617-2.61-2.617s-2.61 1.173-2.61 2.617v2.616c0 1.444 1.17 2.616 2.61 2.616s2.61-1.173 2.61-2.616v-2.616zm6.821-8.81a2.61 2.61 0 0 0-3.569-.946 2.62 2.62 0 0 0-.944 3.577l1.312 2.262a2.61 2.61 0 0 0 3.569.947 2.62 2.62 0 0 0 .944-3.577l-1.312-2.262z"/></g></g><g class="B"><g class="G"><path d="M1416.724 123.566c0-1.444 1.17-2.616 2.611-2.616s2.61 1.172 2.61 2.616v.207c0 1.444-1.17 2.616-2.61 2.616s-2.611-1.172-2.611-2.616v-.207zm-13.867-6.372a2.61 2.61 0 0 1 3.4-1.44 2.62 2.62 0 0 1 1.437 3.408l-.078.192a2.61 2.61 0 0 1-3.401 1.44 2.62 2.62 0 0 1-1.437-3.408l.078-.192zm33.806-.026a2.61 2.61 0 0 0-3.4-1.44 2.62 2.62 0 0 0-1.437 3.408l.078.192a2.61 2.61 0 0 0 3.401 1.44 2.62 2.62 0 0 0 1.437-3.408l-.078-.192zm-37.671-6.409a2.61 2.61 0 0 1 3.606-.789 2.62 2.62 0 0 1 .788 3.615l-.111.174a2.61 2.61 0 0 1-3.607.789c-1.213-.779-1.565-2.399-.788-3.615l.112-.174z"/></g><path d="M1392.523 130.035a2.61 2.61 0 0 1 3.607-.789 2.62 2.62 0 0 1 .788 3.615l-.111.174a2.61 2.61 0 0 1-3.607.789 2.62 2.62 0 0 1-.788-3.615l.111-.174z" class="J"/><g class="C"><path d="M1446.661 130.035a2.61 2.61 0 0 0-3.607-.789 2.62 2.62 0 0 0-.787 3.615l.111.174a2.61 2.61 0 0 0 3.607.789 2.62 2.62 0 0 0 .787-3.615l-.111-.174zm-45.637 11.484a2.61 2.61 0 0 1 3.607-.789 2.62 2.62 0 0 1 .787 3.615l-.111.174a2.61 2.61 0 0 1-3.607.789 2.62 2.62 0 0 1-.787-3.615l.111-.174zm37.136 0a2.61 2.61 0 0 0-3.607-.789 2.62 2.62 0 0 0-.788 3.615l.111.174a2.61 2.61 0 0 0 3.607.789 2.62 2.62 0 0 0 .788-3.615l-.111-.174zm-31.326 3.483a2.61 2.61 0 0 1 3.264-1.729 2.62 2.62 0 0 1 1.725 3.271l-.061.198a2.61 2.61 0 0 1-3.264 1.729 2.62 2.62 0 0 1-1.725-3.271l.061-.198zm25.516 0a2.61 2.61 0 0 0-3.264-1.729 2.62 2.62 0 0 0-1.725 3.271l.061.198a2.61 2.61 0 0 0 3.264 1.729 2.62 2.62 0 0 0 1.725-3.271l-.061-.198zm-36.694-8.32a2.61 2.61 0 0 1 3.607-.789 2.62 2.62 0 0 1 .787 3.615l-.111.174a2.61 2.61 0 0 1-3.607.789c-1.212-.78-1.565-2.399-.787-3.615l.111-.174zm47.871 0a2.61 2.61 0 0 0-3.606-.789 2.62 2.62 0 0 0-.788 3.615l.111.174a2.61 2.61 0 0 0 3.607.789 2.62 2.62 0 0 0 .788-3.615l-.112-.174z"/></g><g class="G"><path d="M1440.528 110.733a2.61 2.61 0 0 0-3.606-.789 2.62 2.62 0 0 0-.788 3.615l.111.174a2.61 2.61 0 0 0 3.607.789c1.213-.78 1.565-2.399.788-3.615l-.112-.174zm-31.872 10.89c.236-1.425 1.581-2.389 3.002-2.153s2.384 1.585 2.148 3.009l-.034.204c-.235 1.425-1.581 2.389-3.002 2.153s-2.384-1.585-2.148-3.009l.034-.204zm22.208-.026c-.236-1.425-1.581-2.389-3.002-2.153s-2.384 1.585-2.148 3.009l.034.204c.235 1.425 1.581 2.389 3.002 2.153s2.384-1.585 2.148-3.009l-.034-.204z"/></g><path d="M1093.292 143.195h-9.053v24.956a4.53 4.53 0 0 0 4.522 4.533h.008c2.498 0 4.522-2.029 4.522-4.533v-24.956z" class="I"/><g class="D"><path d="M1111.355 141.807a2.26 2.26 0 0 0-3.125-.686c-1.051.676-1.358 2.081-.685 3.135l4.844 7.587a2.26 2.26 0 0 0 3.125.686c1.051-.676 1.358-2.081.685-3.136l-4.844-7.586z"/><path d="M1094.52 115.254c-1.388-2.189-3.795-3.514-6.383-3.514a7.56 7.56 0 0 0-6.383 3.514l-19.141 30.187c0 10.368 11.437 18.785 25.524 18.785s25.524-8.417 25.524-18.785l-19.141-30.187z"/></g></g><g clip-path="url(#V)" class="B H"><path d="M1093.392 98.362a7.56 7.56 0 0 0-11.645-.002c-7.531 9.117-19.7 25.132-19.7 33.471 0 10.368 11.437 18.785 25.524 18.785s25.523-8.417 25.523-18.785c0-8.339-12.169-24.354-19.702-33.469z"/></g><g class="B"><path d="M1064.037 143.203a2.26 2.26 0 0 1 3.127-.685c1.051.676 1.357 2.08.683 3.134l-4.043 6.316a2.26 2.26 0 0 1-3.127.684c-1.051-.676-1.357-2.08-.683-3.134l4.043-6.316z" class="D"/><g class="H"><path d="M1103.583 145.874c-.375-1.194-1.647-1.858-2.839-1.482a2.27 2.27 0 0 0-1.478 2.845l.953 3.031c.376 1.194 1.647 1.858 2.839 1.482a2.27 2.27 0 0 0 1.478-2.845l-.953-3.031zm5.589-4.272c-.624-1.084-2.01-1.456-3.092-.83s-1.453 2.014-.828 3.099l2.047 3.554c.625 1.084 2.01 1.456 3.092.83s1.453-2.015.828-3.099l-2.048-3.554zm-41.712-.121c.624-1.084 2.01-1.456 3.092-.83s1.453 2.014.829 3.099l-2.048 3.554c-.625 1.084-2.01 1.456-3.092.83s-1.453-2.015-.828-3.099l2.048-3.554z"/></g><path d="M1093.924 107.139a7.56 7.56 0 0 0-12.706 0l-15.085 23.412c0 8.57 9.606 15.528 21.438 15.528s21.438-6.958 21.438-15.528l-15.085-23.412z" class="C"/></g><g clip-path="url(#W)" class="B D"><path d="M1093.387,88.119c-1.437-1.733-3.568-2.735-5.816-2.735s-4.379,1.002-5.816,2.735c-6.348,7.667-15.622,19.989-15.622,26.554,0,8.57,9.606,15.528,21.438,15.528s21.438-6.958,21.438-15.528c0-6.565-9.273-18.887-15.622-26.554Z"/><path d="M1076.014 128.388c.624-1.084.253-2.473-.829-3.099s-2.467-.254-3.092.83l-2.263 3.929c-.624 1.084-.253 2.473.828 3.099s2.467.254 3.092-.83l2.263-3.929zm5.369 8.288a2.27 2.27 0 0 0-1.398-2.886c-1.18-.41-2.47.218-2.879 1.402l-.74 2.143a2.27 2.27 0 0 0 1.398 2.886c1.18.409 2.47-.218 2.879-1.402l.74-2.144zm9.646-1.939c0-1.252-1.014-2.268-2.263-2.268s-2.263 1.016-2.263 2.268v2.268c0 1.252 1.014 2.268 2.263 2.268s2.263-1.016 2.263-2.268v-2.268zm8.899.375a2.26 2.26 0 0 0-2.929-1.292c-1.164.454-1.742 1.769-1.29 2.936l.82 2.114c.452 1.167 1.765 1.746 2.93 1.292a2.27 2.27 0 0 0 1.29-2.936l-.82-2.114zm3.548-9.752c-.625-1.084-2.01-1.456-3.092-.83s-1.453 2.014-.828 3.099l1.96 3.403c.624 1.084 2.01 1.456 3.092.83s1.453-2.014.828-3.099l-1.96-3.403z"/></g><path d="M1091.632 94.568c-.779-1.172-2.09-1.876-3.495-1.876s-2.716.704-3.495 1.876l-12.976 19.528c0 3.722 2.509 7.036 6.402 9.153 2.785 1.514 6.278 2.415 10.069 2.415 9.09 0 16.471-5.183 16.471-11.568l-12.976-19.528z" class="B C"/><g clip-path="url(#X)" class="B"><path d="M1102.345,103.664c0-7.889-6.391-14.294-14.262-14.294h-.329c-7.871,0-14.262,6.405-14.262,14.294v.605c0,7.889,6.39,14.294,14.262,14.294h.329c7.871,0,14.262-6.405,14.262-14.294v-.605Z" class="G"/><g class="C"><path d="M1088.864 103.591a2.27 2.27 0 0 0-1.571-2.795c-1.203-.337-2.453.369-2.789 1.574l-.182.652a2.27 2.27 0 0 0 1.571 2.795c1.203.337 2.453-.369 2.789-1.574l.182-.652zm-6.622 5.007c.535-1.131.054-2.485-1.075-3.022s-2.479-.054-3.015 1.077l-.97 2.05c-.535 1.131-.054 2.485 1.075 3.022s2.479.054 3.015-1.077l.97-2.049zm8.787 3.456c0-1.252-1.014-2.269-2.263-2.269s-2.263 1.017-2.263 2.269v2.268c0 1.252 1.014 2.268 2.263 2.268s2.263-1.017 2.263-2.268v-2.268zm5.914-7.639a2.26 2.26 0 0 0-3.094-.82c-1.08.629-1.447 2.019-.819 3.101l1.138 1.961c.628 1.082 2.014 1.45 3.094.821s1.447-2.019.819-3.101l-1.137-1.961z"/></g></g><g class="B"><g class="G"><path d="M1085.307 125.484c0-1.252 1.014-2.268 2.263-2.268s2.263 1.016 2.263 2.268v.18c0 1.252-1.014 2.268-2.263 2.268s-2.263-1.016-2.263-2.268v-.18zm-12.023-5.525c.47-1.16 1.791-1.719 2.948-1.249a2.27 2.27 0 0 1 1.246 2.955l-.067.166c-.47 1.16-1.791 1.719-2.948 1.249s-1.715-1.795-1.246-2.955l.067-.166zm29.311-.022c-.47-1.16-1.791-1.72-2.948-1.249a2.27 2.27 0 0 0-1.246 2.955l.067.166c.47 1.16 1.791 1.72 2.948 1.249s1.715-1.795 1.246-2.955l-.067-.166zm-32.662-5.557a2.26 2.26 0 0 1 3.127-.684c1.051.676 1.357 2.08.683 3.134l-.097.151a2.26 2.26 0 0 1-3.127.684c-1.051-.676-1.357-2.08-.683-3.134l.097-.151z"/></g><path d="M1064.324 131.093a2.26 2.26 0 0 1 3.127-.684c1.051.676 1.357 2.08.683 3.134l-.097.151a2.26 2.26 0 0 1-3.127.685c-1.051-.676-1.357-2.08-.683-3.134l.097-.151z" class="J"/><g class="C"><path d="M1111.263 131.093a2.26 2.26 0 0 0-3.127-.684c-1.051.676-1.357 2.08-.683 3.134l.097.151a2.26 2.26 0 0 0 3.127.685c1.051-.676 1.357-2.08.683-3.134l-.097-.151zm-39.568 9.957a2.26 2.26 0 0 1 3.127-.685c1.051.676 1.357 2.08.683 3.134l-.097.151a2.26 2.26 0 0 1-3.127.684c-1.051-.676-1.357-2.08-.683-3.134l.097-.151zm32.198 0a2.26 2.26 0 0 0-3.127-.685c-1.051.676-1.357 2.08-.683 3.134l.097.151a2.26 2.26 0 0 0 3.127.684c1.051-.676 1.357-2.08.683-3.134l-.097-.151zm-27.161 3.02c.368-1.196 1.636-1.868 2.83-1.499a2.27 2.27 0 0 1 1.495 2.836l-.053.172c-.368 1.196-1.636 1.868-2.83 1.499a2.27 2.27 0 0 1-1.495-2.836l.053-.171zm22.124 0c-.368-1.196-1.636-1.868-2.83-1.499a2.27 2.27 0 0 0-1.495 2.836l.053.172c.368 1.196 1.636 1.868 2.83 1.499a2.27 2.27 0 0 0 1.495-2.836l-.053-.171zm-16.226 2.174c.134-1.245 1.25-2.147 2.492-2.013a2.27 2.27 0 0 1 2.008 2.498l-.019.178c-.134 1.245-1.25 2.146-2.492 2.013a2.27 2.27 0 0 1-2.008-2.498l.019-.178zm10.328 0c-.134-1.245-1.25-2.147-2.492-2.013a2.27 2.27 0 0 0-2.008 2.498l.019.178c.134 1.245 1.25 2.146 2.492 2.013a2.27 2.27 0 0 0 2.008-2.498l-.019-.178zm-25.917-9.388a2.26 2.26 0 0 1 3.127-.685c1.051.676 1.357 2.08.683 3.134l-.097.151a2.26 2.26 0 0 1-3.127.685c-1.051-.676-1.357-2.08-.683-3.134l.097-.151z"/><use href="#BK"/></g><g class="G"><path d="M1105.946 114.358a2.26 2.26 0 0 0-3.127-.685c-1.051.676-1.357 2.08-.683 3.134l.097.151a2.26 2.26 0 0 0 3.127.685c1.051-.676 1.357-2.08.683-3.134l-.097-.151zm-27.634 9.441c.204-1.235 1.371-2.071 2.603-1.867a2.27 2.27 0 0 1 1.863 2.609l-.029.177c-.204 1.235-1.371 2.072-2.603 1.867a2.27 2.27 0 0 1-1.863-2.609l.029-.177zm19.255-.022c-.204-1.235-1.371-2.072-2.603-1.867a2.27 2.27 0 0 0-1.863 2.609l.029.177c.204 1.235 1.371 2.071 2.603 1.867a2.27 2.27 0 0 0 1.863-2.609l-.029-.177z"/></g></g><rect x="570.502" y="99.272" width="44.666" height="9.101" rx="4.551" fill="#f7e07c"/><g clip-path="url(#Y)"><path d="M576.526 72.5h32v32h-32z" fill="#14142a" opacity="0"/><g fill="#af4c1e" class="B"><path d="M581.526 92.476a4.02 4.02 0 0 0 4.024 4.023 2 2 0 0 0 1.976-2v1a1 1 0 0 0-1-1h-.895c-1.163 0-2.105-.943-2.105-2.105v-3.895h-2v3.976z"/><use href="#BL"/><use href="#BM"/></g><path d="M591.526 99.5h-2.501a5.75 5.75 0 0 0-4.599 2.3l-1.275 1.7" stroke="#d85d27" stroke-width="2" class="E K S"/><g class="Q"><rect x="584.526" y="90.5" width="16" height="10" rx="3.807"/><path d="M584.526 95.5h3V97h-3zm13 0h3V97h-3z"/></g><path d="M600.526 96.5h-16v.282a3.72 3.72 0 0 0 3.718 3.718h8.564a3.72 3.72 0 0 0 3.718-3.718V96.5z" fill="#da792d" class="B"/><g fill="#14142a"><path d="M593.526 91.5h3v1h-3zm-7 0h3v1h-3z"/></g><g stroke-width="2" stroke="#da792d" class="E K S"><path d="M587.901 99.5H584.4a5.75 5.75 0 0 0-4.599 2.3l-1.275 1.7"/><use href="#BN"/><path d="M599.526 99.5h2.5a5.75 5.75 0 0 1 4.599 2.3l1.275 1.7"/></g><path d="M603.151 89.031a3.5 3.5 0 1 1-3.5-6.062l3.5 6.062z" class="B Q"/><rect x="598.461" y="77.778" width="5.694" height="9.87" rx="1.618" fill="#a7a7af"/><path d="M587.072 76.735l-1.519 10.914h13.302a3.78 3.78 0 0 0 3.781-3.781v-4.344a2.53 2.53 0 0 0-1.183-2.142c-.736-.463-1.659-.516-2.443-.14l-5.864 2.815-6.074-3.321z" fill="#e4ca43" class="B"/><g clip-path="url(#Z)" class="B"><g fill="#b34d1f"><path d="M597.193 81.289a.95.95 0 0 0-.347-1.296l-4.932-2.847a.95.95 0 0 0-1.296.347.95.95 0 0 0 .347 1.296l4.931 2.847a.95.95 0 0 0 1.296-.347zm.107 3.849a.95.95 0 0 0-.347-1.297l-4.932-2.847a.95.95 0 0 0-1.296.347.95.95 0 0 0 .347 1.296l4.932 2.847a.95.95 0 0 0 1.296-.347z" opacity=".233"/></g><path d="M594.854,83.283c2.41,0,4.366,1.956,4.366,4.366s-1.956,4.366-4.366,4.366-4.366-1.956-4.366-4.366,1.956-4.366,4.366-4.366Z" fill="#f6eeb9"/></g><g class="B"><path d="M588.211 78.917a2.66 2.66 0 0 0-2.657-2.657 2.66 2.66 0 0 0-2.657 2.657v6.074a2.66 2.66 0 0 0 2.657 2.657 2.66 2.66 0 0 0 2.657-2.657v-6.074z" fill="#a7a7af"/><path d="M586.692,78.917c0-.629-.51-1.139-1.139-1.139s-1.139.51-1.139,1.139v6.074c0,.629.51,1.139,1.139,1.139s1.139-.51,1.139-1.139v-6.074Z" fill="#757582"/><g class="Q"><path d="M603.526 92.476a4.02 4.02 0 0 1-4.024 4.023h-.977a1 1 0 0 1-.999-.999h0a1 1 0 0 1 1-1.001h.895c1.163 0 2.105-.943 2.105-2.105v-3.895h2v3.976z"/><path d="M601.526 89.031a3.5 3.5 0 1 0 3.5-6.062l-3.5 6.062z"/></g></g></g></g></svg>