<?xml version="1.0" encoding="UTF-8"?>
<svg id="Details" xmlns="http://www.w3.org/2000/svg" width="1500" height="145" xmlns:xlink="http://www.w3.org/1999/xlink" version="1.1" viewBox="0 0 1500 145">
  <!-- Generator: Adobe Illustrator 30.5.1, SVG Export Plug-In . SVG Version: 2.1.4 Build 3)  -->
  <defs>
    <clipPath id="clippath">
      <rect width="1500" height="145" style="fill: none;"/>
    </clipPath>
    <clipPath id="clippath-1">
      <path d="M540.354,32.137h18.181s4.927,44.959,4.927,44.959c.273,2.492-1.68,4.668-4.189,4.668h-19.747c-2.512,0-4.466-2.182-4.188-4.677l5.015-44.95Z" style="fill: none;"/>
    </clipPath>
    <clipPath id="clippath-2">
      <path d="M549.399,30.503c0,6.428-2.555,12.596-7.106,17.143-4.551,4.547-10.723,7.1-17.16,7.1-12.189,0-24.406,0-24.406,0,0,0,0-7.501,0-16.027,0-6.432,2.555-12.599,7.106-17.146,4.551-4.544,10.723-7.1,17.16-7.1,12.189,0,24.406,0,24.406,0,0,0,0,7.501,0,16.03Z" style="clip-rule: evenodd; fill: none;"/>
    </clipPath>
    <clipPath id="clippath-3">
      <path d="M549.399,30.503c0,6.428,2.555,12.596,7.106,17.143,4.551,4.547,10.723,7.1,17.16,7.1,12.189,0,24.406,0,24.406,0,0,0,0-7.501,0-16.027,0-6.432-2.555-12.599-7.106-17.146-4.551-4.544-10.723-7.1-17.16-7.1-12.189,0-24.406,0-24.406,0,0,0,0,7.501,0,16.03Z" style="clip-rule: evenodd; fill: none;"/>
    </clipPath>
    <clipPath id="clippath-5">
      <path d="M549.386,54.746l14.578-10.615c8.052-5.863,8.962-17.524,1.917-24.563l-5.099-5.095h-22.79s-5.099,5.095-5.099,5.095c-7.045,7.039-6.135,18.7,1.917,24.563l14.578,10.615Z" style="clip-rule: evenodd; fill: none;"/>
    </clipPath>
    <clipPath id="clippath-6">
      <path d="M788.666-30.814h18.181s4.927,44.959,4.927,44.959c.273,2.492-1.68,4.668-4.189,4.668h-19.747c-2.512,0-4.466-2.182-4.188-4.677l5.015-44.95Z" style="fill: none;"/>
    </clipPath>
    <clipPath id="clippath-7">
      <path d="M797.698-8.205l14.578-10.615c8.052-5.863,8.962-17.524,1.917-24.563l-5.099-5.095h-22.79s-5.099,5.095-5.099,5.095c-7.045,7.039-6.135,18.7,1.917,24.563l14.578,10.615Z" style="clip-rule: evenodd; fill: none;"/>
    </clipPath>
    <clipPath id="clippath-8">
      <path d="M881.599,47.327h18.181s4.927,44.959,4.927,44.959c.273,2.492-1.68,4.668-4.189,4.668h-19.747c-2.512,0-4.466-2.182-4.188-4.677l5.015-44.95Z" style="fill: none;"/>
    </clipPath>
    <clipPath id="clippath-9">
      <path d="M890.645,45.693c0,6.428-2.555,12.596-7.106,17.143-4.551,4.547-10.723,7.1-17.16,7.1-12.189,0-24.406,0-24.406,0,0,0,0-7.501,0-16.027,0-6.432,2.555-12.599,7.106-17.146,4.551-4.544,10.723-7.1,17.16-7.1,12.189,0,24.406,0,24.406,0,0,0,0,7.501,0,16.03Z" style="clip-rule: evenodd; fill: none;"/>
    </clipPath>
    <clipPath id="clippath-10">
      <path d="M890.645,45.693c0,6.428,2.555,12.596,7.106,17.143,4.551,4.547,10.723,7.1,17.16,7.1,12.189,0,24.406,0,24.406,0,0,0,0-7.501,0-16.027,0-6.432-2.555-12.599-7.106-17.146-4.551-4.544-10.723-7.1-17.16-7.1-12.189,0-24.406,0-24.406,0,0,0,0,7.501,0,16.03Z" style="clip-rule: evenodd; fill: none;"/>
    </clipPath>
    <clipPath id="clippath-12">
      <path d="M890.631,69.936l14.578-10.615c8.052-5.863,8.962-17.524,1.917-24.563l-5.099-5.095h-22.79s-5.099,5.095-5.099,5.095c-7.045,7.039-6.135,18.7,1.917,24.563l14.578,10.615Z" style="clip-rule: evenodd; fill: none;"/>
    </clipPath>
    <clipPath id="clippath-13">
      <path d="M544.571,141.446h18.181s4.927,44.959,4.927,44.959c.273,2.492-1.68,4.668-4.189,4.668h-19.747c-2.512,0-4.466-2.182-4.188-4.677l5.015-44.95Z" style="fill: none;"/>
    </clipPath>
    <clipPath id="clippath-14">
      <path d="M553.616,139.813c0,6.428-2.555,12.596-7.106,17.143-4.551,4.547-10.723,7.1-17.16,7.1-12.189,0-24.406,0-24.406,0,0,0,0-7.501,0-16.027,0-6.432,2.555-12.599,7.106-17.146,4.551-4.544,10.723-7.1,17.16-7.1,12.189,0,24.406,0,24.406,0,0,0,0,7.501,0,16.03Z" style="clip-rule: evenodd; fill: none;"/>
    </clipPath>
    <clipPath id="clippath-15">
      <path d="M553.616,139.813c0,6.428,2.555,12.596,7.106,17.143,4.551,4.547,10.723,7.1,17.16,7.1,12.189,0,24.406,0,24.406,0,0,0,0-7.501,0-16.027,0-6.432-2.555-12.599-7.106-17.146-4.551-4.544-10.723-7.1-17.16-7.1-12.189,0-24.406,0-24.406,0,0,0,0,7.501,0,16.03Z" style="clip-rule: evenodd; fill: none;"/>
    </clipPath>
    <clipPath id="clippath-17">
      <path d="M553.603,164.055l14.578-10.615c8.052-5.863,8.962-17.524,1.917-24.563l-5.099-5.095h-22.79s-5.099,5.095-5.099,5.095c-7.045,7.039-6.135,18.7,1.917,24.563l14.578,10.615Z" style="clip-rule: evenodd; fill: none;"/>
    </clipPath>
    <clipPath id="clippath-18">
      <path d="M160.922,127.938h18.181s4.927,44.959,4.927,44.959c.273,2.492-1.68,4.668-4.189,4.668h-19.747c-2.512,0-4.466-2.182-4.188-4.677l5.015-44.95Z" style="fill: none;"/>
    </clipPath>
    <clipPath id="clippath-19">
      <path d="M169.968,126.304c0,6.428-2.555,12.596-7.106,17.143-4.551,4.547-10.723,7.1-17.16,7.1-12.189,0-24.406,0-24.406,0,0,0,0-7.501,0-16.027,0-6.432,2.555-12.599,7.106-17.146,4.551-4.544,10.723-7.1,17.16-7.1,12.189,0,24.406,0,24.406,0,0,0,0,7.501,0,16.03Z" style="clip-rule: evenodd; fill: none;"/>
    </clipPath>
    <clipPath id="clippath-20">
      <path d="M169.968,126.304c0,6.428,2.555,12.596,7.106,17.143,4.551,4.547,10.723,7.1,17.16,7.1,12.189,0,24.406,0,24.406,0,0,0,0-7.501,0-16.027,0-6.432-2.555-12.599-7.106-17.146-4.551-4.544-10.723-7.1-17.16-7.1-12.189,0-24.406,0-24.406,0,0,0,0,7.501,0,16.03Z" style="clip-rule: evenodd; fill: none;"/>
    </clipPath>
    <clipPath id="clippath-22">
      <path d="M169.954,150.546l14.578-10.615c8.052-5.863,8.962-17.524,1.917-24.563l-5.099-5.095h-22.79s-5.099,5.095-5.099,5.095c-7.045,7.039-6.135,18.7,1.917,24.563l14.578,10.615Z" style="clip-rule: evenodd; fill: none;"/>
    </clipPath>
    <clipPath id="clippath-23">
      <path d="M636.738-29.643h20.878s5.658,51.627,5.658,51.627c.314,2.861-1.929,5.361-4.81,5.361h-22.676c-2.885,0-5.128-2.506-4.809-5.37l5.759-51.618Z" style="fill: none;"/>
    </clipPath>
    <clipPath id="clippath-24">
      <path d="M647.125-31.519c0,7.382-2.934,14.464-8.16,19.685-5.226,5.222-12.314,8.153-19.706,8.153-13.997,0-28.026,0-28.026,0,0,0,0-8.614,0-18.404,0-7.385,2.934-14.467,8.16-19.689,5.226-5.218,12.314-8.153,19.706-8.153,13.997,0,28.026,0,28.026,0,0,0,0,8.614,0,18.408Z" style="clip-rule: evenodd; fill: none;"/>
    </clipPath>
    <clipPath id="clippath-25">
      <path d="M647.125-31.519c0,7.382,2.934,14.464,8.16,19.685,5.226,5.222,12.314,8.153,19.706,8.153,13.997,0,28.026,0,28.026,0,0,0,0-8.614,0-18.404,0-7.385-2.934-14.467-8.16-19.689-5.226-5.218-12.314-8.153-19.706-8.153-13.997,0-28.026,0-28.026,0,0,0,0,8.614,0,18.408Z" style="clip-rule: evenodd; fill: none;"/>
    </clipPath>
    <clipPath id="clippath-26">
      <path d="M647.109-3.68l16.74-12.189c9.246-6.733,10.291-20.124,2.201-28.207l-5.856-5.851h-26.171s-5.856,5.851-5.856,5.851c-8.09,8.083-7.045,21.474,2.201,28.207l16.74,12.189Z" style="clip-rule: evenodd; fill: none;"/>
    </clipPath>
    <clipPath id="clippath-27">
      <path d="M133.893-29.396s-34.07-30.162-41.357-36.612h-2.719c-7.287,6.45-41.357,36.612-41.357,36.612V4.477c0,.796.317,1.559.879,2.121.565.565,1.329.881,2.126.881h79.423c.797,0,1.56-.316,2.126-.881.563-.562.88-1.325.88-2.121V-29.396Z" style="clip-rule: evenodd; fill: none;"/>
    </clipPath>
    <clipPath id="clippath-28">
      <path d="M102.08,36.607h18.181s4.927,44.959,4.927,44.959c.273,2.492-1.68,4.668-4.189,4.668h-19.747c-2.512,0-4.466-2.182-4.188-4.677l5.015-44.95Z" style="fill: none;"/>
    </clipPath>
    <clipPath id="clippath-29">
      <path d="M111.126,34.973c0,6.428-2.555,12.596-7.106,17.143-4.551,4.547-10.723,7.1-17.16,7.1-12.189,0-24.406,0-24.406,0,0,0,0-7.501,0-16.027,0-6.432,2.555-12.599,7.106-17.146,4.551-4.544,10.723-7.1,17.16-7.1,12.189,0,24.406,0,24.406,0,0,0,0,7.501,0,16.03Z" style="clip-rule: evenodd; fill: none;"/>
    </clipPath>
    <clipPath id="clippath-30">
      <path d="M111.126,34.973c0,6.428,2.555,12.596,7.106,17.143,4.551,4.547,10.723,7.1,17.16,7.1,12.189,0,24.406,0,24.406,0,0,0,0-7.501,0-16.027,0-6.432-2.555-12.599-7.106-17.146-4.551-4.544-10.723-7.1-17.16-7.1h-24.406s0,7.501,0,16.03Z" style="clip-rule: evenodd; fill: none;"/>
    </clipPath>
    <clipPath id="clippath-32">
      <path d="M111.112,59.216l14.578-10.615c8.052-5.863,8.962-17.524,1.917-24.563l-5.099-5.095h-22.79s-5.099,5.095-5.099,5.095c-7.045,7.039-6.135,18.7,1.917,24.563l14.578,10.615Z" style="clip-rule: evenodd; fill: none;"/>
    </clipPath>
    <clipPath id="clippath-34">
      <path d="M257.091-2.099h18.181s4.927,44.959,4.927,44.959c.273,2.492-1.68,4.668-4.189,4.668h-19.747c-2.512,0-4.466-2.182-4.188-4.677l5.015-44.95Z" style="fill: none;"/>
    </clipPath>
    <clipPath id="clippath-35">
      <path d="M266.136-3.733c0,6.428-2.555,12.596-7.106,17.143-4.551,4.547-10.723,7.1-17.16,7.1-12.189,0-24.406,0-24.406,0,0,0,0-7.501,0-16.027,0-6.432,2.555-12.599,7.106-17.146,4.551-4.544,10.723-7.1,17.16-7.1,12.189,0,24.406,0,24.406,0,0,0,0,7.501,0,16.03Z" style="clip-rule: evenodd; fill: none;"/>
    </clipPath>
    <clipPath id="clippath-36">
      <path d="M266.136-3.733c0,6.428,2.555,12.596,7.106,17.143,4.551,4.547,10.723,7.1,17.16,7.1,12.189,0,24.406,0,24.406,0,0,0,0-7.501,0-16.027,0-6.432-2.555-12.599-7.106-17.146-4.551-4.544-10.723-7.1-17.16-7.1-12.189,0-24.406,0-24.406,0,0,0,0,7.501,0,16.03Z" style="clip-rule: evenodd; fill: none;"/>
    </clipPath>
    <clipPath id="clippath-38">
      <path d="M266.123,20.509l14.578-10.615c8.052-5.863,8.962-17.524,1.917-24.563l-5.099-5.095h-22.79s-5.099,5.095-5.099,5.095c-7.045,7.039-6.135,18.7,1.917,24.563l14.578,10.615Z" style="clip-rule: evenodd; fill: none;"/>
    </clipPath>
  </defs>
  <g style="clip-path: url(#clippath);">
    <rect x="-10.125" y="-568.498" width="1520.249" height="3053.416" style="fill: #61d1d5;"/>
    <path d="M1209.742-873.582c-76.136,0-138.076,61.941-138.076,138.077,0,9.374-7.626,17-17,17h-106.263c-9.374,0-17-7.626-17-17v-2.009c0-36.943-30.057-67-67-67h-75.775c-41.992,0-76.156-34.163-76.156-76.156v-85.988c0-34.188-27.813-62-62-62h-144.932c-34.187,0-62,27.812-62,62v1.583c0,6.616-5.383,12-12,12h-77.199c-41.355,0-75,33.645-75,75v1.615c0,6.616-5.383,12-12,12H-56.875v1900.227h125.29c19.299,0,35,15.701,35,35v28.562c0,46.869,38.131,85,85,85h282.678c46.869,0,85-38.131,85-85v-4.012c0-19.299,15.701-35,35-35h100.898c106.145,0,192.5-86.354,192.5-192.5,0-13.785,11.215-25,25-25h189.302c13.785,0,25,11.215,25,25v6.941c0,13.785-11.215,25-25,25h-1.646c-41.355,0-75,33.646-75,75.001v134.569c0,41.355,33.645,75,75,75h68.108c41.355,0,75-33.645,75-75,0-34.095,27.737-61.833,61.832-61.833h254.837V-873.582h-347.181Z" style="fill: #7ee6e4;"/>
    <path d="M1045.191-298.972h0c0-51.28,41.571-92.851,92.85-92.851h57.665c32.387,0,58.642-26.255,58.642-58.642h0c0-32.387,26.255-58.642,58.642-58.642h218.932v-339.474h-322.181c-62.45,0-113.076,50.626-113.076,113.076h0c0,23.196-18.804,42-42,42h-106.262c-23.196,0-42-18.804-42-42v-2.009c0-23.196-18.804-42-42-42h-75.776c-55.867,0-101.156-45.289-101.156-101.156v-85.988c0-20.435-16.565-37-37-37h-144.932c-20.435,0-37,16.565-37,37v1.583c0,20.435-16.565,37-37,37h-77.199c-27.614,0-50,22.386-50,50v1.615c0,20.435-16.565,37-37,37H-31.875V1010.767h100.289c33.137,0,60,26.863,60,60v28.561c0,33.137,26.863,60,60,60h282.678c33.137,0,60-26.863,60-60v-4.011c0-33.137,26.863-60,60-60h100.898c92.508,0,167.5-74.992,167.5-167.5h0c0-27.614,22.386-50,50-50h189.302c27.614,0,50,22.386,50,50v6.942c0,27.614-22.386,50-50,50h-1.647c-27.614,0-50,22.386-50,50v134.57c0,27.614,22.386,50,50,50h68.108c27.614,0,50-22.386,50-50h0c0-47.956,38.876-86.832,86.832-86.832h229.837v-328.037c0-39.064-31.668-70.732-70.732-70.732h-323.15c-50.932,0-92.285-41.008-92.845-91.807-.004-.347-.006-830.544-.006-830.892Z" style="fill: #fbed97;"/>
    <g>
      <path d="M1209.742-788.581c-29.313,0-53.076,23.763-53.076,53.076h0c0,56.333-45.667,102-102,102h-353.588c-40.652,0-73.606-32.955-73.606-73.606v-210.547c0-14.359-11.641-26-26-26h-56.442c-10.394,0-19.895,6.146-23.89,15.742-14.612,35.099-49.272,59.841-89.6,59.841h-46.653c-11.17,0-21.157,7.295-24.204,18.042-11.534,40.685-49.013,70.574-93.342,70.574H-1.979L-13.354,962.88l115.314-.491c49.895,14.55,86.454,60.7,86.454,115.229v.695c.001,13.259,10.754,24.004,24.013,23.997l236.679-.131c11.698-.007,21.708-8.443,23.64-19.98,9.508-56.77,58.875-100.032,118.346-100.032h100.898c59.37,0,107.5-48.129,107.5-107.5h0c0-60.752,49.249-110,110-110h189.003c21.384,0,38.798-17.186,39.08-38.568h0c.246-18.686-12.768-34.942-31.062-38.758-28.801-6.009-55.263-20.244-76.552-41.532-28.243-28.244-44.073-65.595-44.746-105.431-.015-.883-.022-838.466-.022-839.351,0-40.828,15.899-79.212,44.769-108.081,28.87-28.869,67.254-44.769,108.082-44.769h28.622c14.589,0,27.327-10.069,30.48-24.313,11.76-53.123,59.237-92.972,115.846-92.972h312.76v-219.474h-416.008Z" style="fill: #62c244;"/>
      <g>
        <line x1="-2.045" y1="-769.447" x2="-13.321" y2="957.874" style="fill: none; stroke: #62c244; stroke-dasharray: 0 10.014; stroke-linecap: round; stroke-linejoin: round; stroke-width: 10px;"/>
        <path d="M-3.347,962.838l105.307-.449c49.895,14.55,86.454,60.7,86.454,115.229v.695c.001,13.259,10.754,24.004,24.013,23.997l236.679-.131c11.698-.007,21.708-8.443,23.64-19.98,9.508-56.77,58.875-100.032,118.346-100.032h100.898c59.37,0,107.5-48.129,107.5-107.5h0c0-60.751,49.249-110,110-110h189.003c21.384,0,38.798-17.186,39.08-38.568.246-18.686-12.768-34.942-31.062-38.758-28.801-6.009-55.263-20.244-76.552-41.532-28.243-28.244-44.073-65.594-44.746-105.431-.015-.882-.022-838.466-.022-839.351,0-40.828,15.899-79.212,44.769-108.081,28.87-28.869,67.254-44.769,108.082-44.769h28.623c14.589,0,27.327-10.069,30.48-24.313,11.76-53.123,59.237-92.972,115.846-92.972h307.757" style="fill: none; stroke: #62c244; stroke-dasharray: 0 10.007; stroke-linecap: round; stroke-linejoin: round; stroke-width: 10px;"/>
      </g>
    </g>
    <g>
      <path d="M914.223-458.219v250.57c0,30.12-24.417,54.537-54.537,54.537h-80.08c-29.292,0-53.038,23.746-53.038,53.038V53.831c0,29.292-23.746,53.038-53.038,53.038h-183.486c-37.785,0-68.416,30.631-68.416,68.416h0c0,37.785-30.631,68.416-68.416,68.416h-33.231c-37.785,0-68.416-30.631-68.416-68.416v-84.054c0-37.785-30.631-68.416-68.416-68.416H5.265c-15.114,0-27.366-12.252-27.366-27.366v-713.411h290.764c35.899,0,65,29.101,65,65v20.473c0,35.899,29.101,65,65,65h257.533c15.114,0,27.366,12.252,27.366,27.366h0c0,15.114,12.252,27.366,27.366,27.366h148.757c30.12,0,54.537,24.417,54.537,54.537Z" style="fill: #52ab35;"/>
      <path d="M-12.116-717.962h280.778c35.898,0,65,29.101,65,65v20.473c0,35.898,29.101,65,65,65h257.533c15.114,0,27.366,12.252,27.366,27.366s12.252,27.366,27.366,27.366h148.757c30.12,0,54.537,24.417,54.537,54.537v250.57c0,30.12-24.417,54.537-54.537,54.537h-80.08c-29.292,0-53.038,23.746-53.038,53.038V53.831c0,29.292-23.746,53.038-53.038,53.038h-183.486c-37.785,0-68.416,30.631-68.416,68.416s-30.631,68.416-68.416,68.416h-33.231c-37.785,0-68.416-30.631-68.416-68.416v-84.054c0-37.785-30.631-68.416-68.416-68.416H5.265c-15.114,0-27.366-12.252-27.366-27.366v-708.418" style="fill: none; stroke: #52ab35; stroke-dasharray: 0 9.986; stroke-linecap: round; stroke-linejoin: round; stroke-width: 10px;"/>
    </g>
    <g>
      <g>
        <g>
          <g>
            <path d="M540.354,32.137h18.181s4.927,44.959,4.927,44.959c.273,2.492-1.68,4.668-4.189,4.668h-19.747c-2.512,0-4.466-2.182-4.188-4.677l5.015-44.95Z" style="fill: #6b4c46;"/>
            <g style="clip-path: url(#clippath-1);">
              <path d="M549.386,64.636l14.862-10.822c8.209-5.977,9.137-17.867,1.954-25.043l-5.199-5.195h-23.236s-5.199,5.195-5.199,5.195c-7.183,7.177-6.255,19.066,1.954,25.043l14.862,10.822Z" style="fill: #594237; fill-rule: evenodd;"/>
            </g>
          </g>
          <g>
            <g>
              <path d="M549.399,30.503c0,6.428-2.555,12.596-7.106,17.143-4.551,4.547-10.723,7.1-17.16,7.1-12.189,0-24.406,0-24.406,0,0,0,0-7.501,0-16.027,0-6.432,2.555-12.599,7.106-17.146,4.551-4.544,10.723-7.1,17.16-7.1,12.189,0,24.406,0,24.406,0,0,0,0,7.501,0,16.03Z" style="fill: #abc02e; fill-rule: evenodd;"/>
              <g style="clip-path: url(#clippath-2);">
                <polygon points="549.399 14.473 495.084 60.898 549.399 60.898 549.399 14.473" style="fill: #839d24; fill-rule: evenodd;"/>
                <rect x="493.659" y="31.281" width="62.808" height="6.08" transform="translate(96.682 339.867) rotate(-39.239)" style="fill: #bdd033;"/>
                <path d="M521.007,57.372h6.084s0-6.31,0-10.225c0-1.678-1.363-3.039-3.042-3.039-1.679,0-3.042,1.362-3.042,3.039,0,3.915,0,10.225,0,10.225Z" style="fill: #4d7c3d; fill-rule: evenodd; opacity: .5;"/>
                <path d="M533.175,57.822h6.084s0-13.881,0-20.176c0-1.678-1.36-3.036-3.039-3.036h-.006c-1.679,0-3.039,1.359-3.039,3.036,0,6.295,0,20.176,0,20.176Z" style="fill: #4d7c3d; fill-rule: evenodd; opacity: .5;"/>
                <path d="M500.727,37.706v-5.757s5.689,0,9.287,0c.764,0,1.497.304,2.038.845.538.538.843,1.27.843,2.033h0c0,.766-.304,1.495-.843,2.036-.542.541-1.275.842-2.038.842-3.599,0-9.287,0-9.287,0Z" style="fill: #839d24; fill-rule: evenodd; opacity: .75;"/>
                <path d="M500.727,25.871v-6.079s12.372,0,18.255,0c1.679,0,3.039,1.359,3.039,3.036v.006c0,1.678-1.36,3.036-3.039,3.036-5.883,0-18.255,0-18.255,0Z" style="fill: #839d24; fill-rule: evenodd; opacity: .75;"/>
              </g>
            </g>
            <g>
              <path d="M549.399,30.503c0,6.428,2.555,12.596,7.106,17.143,4.551,4.547,10.723,7.1,17.16,7.1,12.189,0,24.406,0,24.406,0,0,0,0-7.501,0-16.027,0-6.432-2.555-12.599-7.106-17.146-4.551-4.544-10.723-7.1-17.16-7.1-12.189,0-24.406,0-24.406,0,0,0,0,7.501,0,16.03Z" style="fill: #abc02e; fill-rule: evenodd;"/>
              <g style="clip-path: url(#clippath-3);">
                <polygon points="549.399 14.473 603.715 60.898 549.399 60.898 549.399 14.473" style="fill: #839d24; fill-rule: evenodd;"/>
                <rect x="570.696" y="2.917" width="6.08" height="62.808" transform="translate(184.526 457.247) rotate(-50.801)" style="fill: #bdd033;"/>
                <path d="M577.792,57.372h-6.084s0-6.31,0-10.225c0-1.678,1.363-3.039,3.042-3.039,1.679,0,3.042,1.362,3.042,3.039,0,3.915,0,10.225,0,10.225Z" style="fill: #4d7c3d; fill-rule: evenodd; opacity: .5;"/>
                <path d="M565.624,57.822h-6.084s0-13.878,0-20.173c0-.805.319-1.577.891-2.149.569-.568,1.345-.891,2.151-.891s1.582.322,2.151.891c.572.571.891,1.343.891,2.149,0,6.295,0,20.173,0,20.173Z" style="fill: #4d7c3d; fill-rule: evenodd; opacity: .5;"/>
                <path d="M598.072,38.029v-6.079s-5.524,0-9.129,0c-.806,0-1.579.319-2.148.891-.572.568-.891,1.34-.891,2.146v.006c0,.805.319,1.577.891,2.149.569.568,1.342.888,2.148.888,3.605,0,9.129,0,9.129,0Z" style="fill: #839d24; fill-rule: evenodd; opacity: .75;"/>
                <path d="M598.072,25.871v-6.079s-12.369,0-18.252,0c-.806,0-1.582.322-2.151.891-.572.571-.891,1.343-.891,2.149,0,.805.319,1.581.891,2.149.569.571,1.345.891,2.151.891,5.883,0,18.252,0,18.252,0Z" style="fill: #839d24; fill-rule: evenodd; opacity: .75;"/>
              </g>
            </g>
            <g>
              <path d="M549.386,54.746l14.578-10.615c8.052-5.863,8.962-17.524,1.917-24.563l-5.099-5.095h-22.79s-5.099,5.095-5.099,5.095c-7.045,7.039-6.135,18.7,1.917,24.563l14.578,10.615Z" style="fill: #bdd033; fill-rule: evenodd;"/>
              <g style="clip-path: url(#clippath-5);">
                <rect x="526.387" y="12.628" width="22.999" height="43.615" transform="translate(1075.7729 68.8701) rotate(-180)" style="fill: #839d24;"/>
                <rect x="546.356" y="10.082" width="6.084" height="53.015" style="fill: #d6e23d;"/>
                <g>
                  <g style="opacity: .5;">
                    <path d="M570.969,36.68c.99,0,1.965-.483,2.547-1.371.923-1.405.531-3.289-.875-4.209l-12.366-8.105c-1.406-.926-3.292-.526-4.211.873-.923,1.405-.531,3.289.875,4.209l12.366,8.105c.515.338,1.093.499,1.664.499Z" style="fill: #839d24;"/>
                  </g>
                  <g style="opacity: .5;">
                    <path d="M527.83,36.68c.57,0,1.149-.16,1.664-.499l12.362-8.105c1.406-.92,1.798-2.804.875-4.209-.919-1.399-2.792-1.801-4.211-.873l-12.362,8.105c-1.406.92-1.798,2.804-.875,4.209.582.888,1.557,1.371,2.547,1.371Z" style="fill: #4d7c3d;"/>
                  </g>
                  <path d="M570.969,50.539c.99,0,1.965-.483,2.547-1.371.923-1.405.531-3.289-.875-4.209l-12.366-8.105c-1.406-.926-3.292-.526-4.211.873-.923,1.405-.531,3.289.875,4.209l12.366,8.105c.515.338,1.093.499,1.664.499Z" style="fill: #839d24; opacity: .5;"/>
                  <g style="opacity: .5;">
                    <path d="M527.83,50.539c.57,0,1.149-.16,1.664-.499l12.362-8.105c1.406-.92,1.798-2.804.875-4.209-.919-1.399-2.792-1.801-4.211-.873l-12.362,8.105c-1.406.92-1.798,2.804-.875,4.209.582.888,1.557,1.371,2.547,1.371Z" style="fill: #4d7c3d;"/>
                  </g>
                </g>
              </g>
            </g>
          </g>
        </g>
        <line x1="524.686" y1="81.764" x2="574.114" y2="81.224" style="fill: #52ab35; stroke: #52ab35; stroke-dasharray: 0 10; stroke-linecap: round; stroke-linejoin: round; stroke-width: 10px;"/>
      </g>
      <g>
        <g>
          <g>
            <path d="M788.666-30.814h18.181s4.927,44.959,4.927,44.959c.273,2.492-1.68,4.668-4.189,4.668h-19.747c-2.512,0-4.466-2.182-4.188-4.677l5.015-44.95Z" style="fill: #6b4c46;"/>
            <g style="clip-path: url(#clippath-6);">
              <path d="M797.698,1.685l14.862-10.822c8.209-5.977,9.137-17.867,1.954-25.043l-5.199-5.195h-23.236s-5.199,5.195-5.199,5.195c-7.183,7.177-6.255,19.066,1.954,25.043l14.862,10.822Z" style="fill: #594237; fill-rule: evenodd;"/>
            </g>
          </g>
          <g style="clip-path: url(#clippath-7);">
            <rect x="794.668" y="-52.869" width="6.084" height="53.015" style="fill: #d6e23d;"/>
          </g>
        </g>
        <line x1="772.997" y1="18.813" x2="822.426" y2="18.273" style="fill: #62c244; stroke: #62c244; stroke-dasharray: 0 10; stroke-linecap: round; stroke-linejoin: round; stroke-width: 10px;"/>
      </g>
      <g>
        <g>
          <g>
            <path d="M881.599,47.327h18.181s4.927,44.959,4.927,44.959c.273,2.492-1.68,4.668-4.189,4.668h-19.747c-2.512,0-4.466-2.182-4.188-4.677l5.015-44.95Z" style="fill: #6b4c46;"/>
            <g style="clip-path: url(#clippath-8);">
              <path d="M890.631,79.826l14.862-10.822c8.209-5.977,9.137-17.867,1.954-25.043l-5.199-5.195h-23.236s-5.199,5.195-5.199,5.195c-7.183,7.177-6.255,19.066,1.954,25.043l14.862,10.822Z" style="fill: #594237; fill-rule: evenodd;"/>
            </g>
          </g>
          <g>
            <g>
              <path d="M890.645,45.693c0,6.428-2.555,12.596-7.106,17.143-4.551,4.547-10.723,7.1-17.16,7.1-12.189,0-24.406,0-24.406,0,0,0,0-7.501,0-16.027,0-6.432,2.555-12.599,7.106-17.146,4.551-4.544,10.723-7.1,17.16-7.1,12.189,0,24.406,0,24.406,0,0,0,0,7.501,0,16.03Z" style="fill: #abc02e; fill-rule: evenodd;"/>
              <g style="clip-path: url(#clippath-9);">
                <polygon points="890.645 29.663 836.329 76.088 890.645 76.088 890.645 29.663" style="fill: #839d24; fill-rule: evenodd;"/>
                <rect x="834.904" y="46.471" width="62.808" height="6.08" transform="translate(164.017 559.147) rotate(-39.239)" style="fill: #bdd033;"/>
                <path d="M862.252,72.562h6.084s0-6.31,0-10.225c0-1.678-1.363-3.039-3.042-3.039-1.679,0-3.042,1.362-3.042,3.039,0,3.915,0,10.225,0,10.225Z" style="fill: #4d7c3d; fill-rule: evenodd; opacity: .5;"/>
                <path d="M874.421,73.012h6.084s0-13.881,0-20.176c0-1.678-1.36-3.036-3.039-3.036h-.006c-1.679,0-3.039,1.359-3.039,3.036,0,6.295,0,20.176,0,20.176Z" style="fill: #4d7c3d; fill-rule: evenodd; opacity: .5;"/>
                <path d="M841.972,52.897v-5.757s5.689,0,9.287,0c.764,0,1.497.304,2.038.845.538.538.843,1.27.843,2.033h0c0,.766-.304,1.495-.843,2.036-.542.541-1.275.842-2.038.842-3.599,0-9.287,0-9.287,0Z" style="fill: #839d24; fill-rule: evenodd; opacity: .75;"/>
                <path d="M841.972,41.061v-6.079s12.372,0,18.255,0c1.679,0,3.039,1.359,3.039,3.036v.006c0,1.678-1.36,3.036-3.039,3.036-5.883,0-18.255,0-18.255,0Z" style="fill: #839d24; fill-rule: evenodd; opacity: .75;"/>
              </g>
            </g>
            <g>
              <path d="M890.645,45.693c0,6.428,2.555,12.596,7.106,17.143,4.551,4.547,10.723,7.1,17.16,7.1,12.189,0,24.406,0,24.406,0,0,0,0-7.501,0-16.027,0-6.432-2.555-12.599-7.106-17.146-4.551-4.544-10.723-7.1-17.16-7.1-12.189,0-24.406,0-24.406,0,0,0,0,7.501,0,16.03Z" style="fill: #abc02e; fill-rule: evenodd;"/>
              <g style="clip-path: url(#clippath-10);">
                <polygon points="890.645 29.663 944.96 76.088 890.645 76.088 890.645 29.663" style="fill: #839d24; fill-rule: evenodd;"/>
                <rect x="911.941" y="18.107" width="6.08" height="62.808" transform="translate(298.326 727.286) rotate(-50.801)" style="fill: #bdd033;"/>
                <path d="M919.037,72.562h-6.084s0-6.31,0-10.225c0-1.678,1.363-3.039,3.042-3.039,1.679,0,3.042,1.362,3.042,3.039,0,3.915,0,10.225,0,10.225Z" style="fill: #4d7c3d; fill-rule: evenodd; opacity: .5;"/>
                <path d="M906.869,73.012h-6.084s0-13.878,0-20.173c0-.805.319-1.577.891-2.149.569-.568,1.345-.891,2.151-.891s1.582.322,2.151.891c.572.571.891,1.343.891,2.149,0,6.295,0,20.173,0,20.173Z" style="fill: #4d7c3d; fill-rule: evenodd; opacity: .5;"/>
                <path d="M939.317,53.219v-6.079s-5.524,0-9.129,0c-.806,0-1.579.319-2.148.891-.572.568-.891,1.34-.891,2.146v.006c0,.805.319,1.577.891,2.149.569.568,1.342.888,2.148.888,3.605,0,9.129,0,9.129,0Z" style="fill: #839d24; fill-rule: evenodd; opacity: .75;"/>
                <path d="M939.317,41.061v-6.079s-12.369,0-18.252,0c-.806,0-1.582.322-2.151.891-.572.571-.891,1.343-.891,2.149,0,.805.319,1.581.891,2.149.569.571,1.345.891,2.151.891,5.883,0,18.252,0,18.252,0Z" style="fill: #839d24; fill-rule: evenodd; opacity: .75;"/>
              </g>
            </g>
            <g>
              <path d="M890.631,69.936l14.578-10.615c8.052-5.863,8.962-17.524,1.917-24.563l-5.099-5.095h-22.79s-5.099,5.095-5.099,5.095c-7.045,7.039-6.135,18.7,1.917,24.563l14.578,10.615Z" style="fill: #bdd033; fill-rule: evenodd;"/>
              <g style="clip-path: url(#clippath-12);">
                <rect x="867.633" y="27.818" width="22.999" height="43.615" transform="translate(1758.2639 99.2506) rotate(-180)" style="fill: #839d24;"/>
                <rect x="887.601" y="25.272" width="6.084" height="53.015" style="fill: #d6e23d;"/>
                <g>
                  <g style="opacity: .5;">
                    <path d="M912.215,51.87c.99,0,1.965-.483,2.547-1.371.923-1.405.531-3.289-.875-4.209l-12.366-8.105c-1.406-.926-3.292-.526-4.211.873-.923,1.405-.531,3.289.875,4.209l12.366,8.105c.515.338,1.093.499,1.664.499Z" style="fill: #839d24;"/>
                  </g>
                  <g style="opacity: .5;">
                    <path d="M869.076,51.87c.57,0,1.149-.16,1.664-.499l12.362-8.105c1.406-.92,1.798-2.804.875-4.209-.919-1.399-2.792-1.801-4.211-.873l-12.362,8.105c-1.406.92-1.798,2.804-.875,4.209.582.888,1.557,1.371,2.547,1.371Z" style="fill: #4d7c3d;"/>
                  </g>
                  <path d="M912.215,65.729c.99,0,1.965-.483,2.547-1.371.923-1.405.531-3.289-.875-4.209l-12.366-8.105c-1.406-.926-3.292-.526-4.211.873-.923,1.405-.531,3.289.875,4.209l12.366,8.105c.515.338,1.093.499,1.664.499Z" style="fill: #839d24; opacity: .5;"/>
                  <g style="opacity: .5;">
                    <path d="M869.076,65.729c.57,0,1.149-.16,1.664-.499l12.362-8.105c1.406-.92,1.798-2.804.875-4.209-.919-1.399-2.792-1.801-4.211-.873l-12.362,8.105c-1.406.92-1.798,2.804-.875,4.209.582.888,1.557,1.371,2.547,1.371Z" style="fill: #4d7c3d;"/>
                  </g>
                </g>
              </g>
            </g>
          </g>
        </g>
        <line x1="865.931" y1="96.954" x2="915.36" y2="96.414" style="fill: #62c244; stroke: #62c244; stroke-dasharray: 0 10; stroke-linecap: round; stroke-linejoin: round; stroke-width: 10px;"/>
      </g>
      <g>
        <g>
          <path d="M544.571,141.446h18.181s4.927,44.959,4.927,44.959c.273,2.492-1.68,4.668-4.189,4.668h-19.747c-2.512,0-4.466-2.182-4.188-4.677l5.015-44.95Z" style="fill: #6b4c46;"/>
          <g style="clip-path: url(#clippath-13);">
            <path d="M553.603,173.945l14.862-10.822c8.209-5.977,9.137-17.867,1.954-25.043l-5.199-5.195h-23.236s-5.199,5.195-5.199,5.195c-7.183,7.177-6.255,19.066,1.954,25.043l14.862,10.822Z" style="fill: #594237; fill-rule: evenodd;"/>
          </g>
        </g>
        <g>
          <g>
            <path d="M553.616,139.813c0,6.428-2.555,12.596-7.106,17.143-4.551,4.547-10.723,7.1-17.16,7.1-12.189,0-24.406,0-24.406,0,0,0,0-7.501,0-16.027,0-6.432,2.555-12.599,7.106-17.146,4.551-4.544,10.723-7.1,17.16-7.1,12.189,0,24.406,0,24.406,0,0,0,0,7.501,0,16.03Z" style="fill: #abc02e; fill-rule: evenodd;"/>
            <g style="clip-path: url(#clippath-14);">
              <polygon points="553.616 123.782 499.301 170.207 553.616 170.207 553.616 123.782" style="fill: #839d24; fill-rule: evenodd;"/>
              <rect x="497.876" y="140.591" width="62.808" height="6.08" transform="translate(28.489 367.182) rotate(-39.239)" style="fill: #bdd033;"/>
              <path d="M537.392,167.131h6.084s0-13.881,0-20.176c0-1.678-1.36-3.036-3.039-3.036h-.006c-1.679,0-3.039,1.359-3.039,3.036,0,6.295,0,20.176,0,20.176Z" style="fill: #4d7c3d; fill-rule: evenodd; opacity: .5;"/>
              <path d="M504.944,147.016v-5.757s5.689,0,9.287,0c.764,0,1.497.304,2.038.845.538.538.843,1.27.843,2.033h0c0,.766-.304,1.495-.843,2.036-.542.541-1.275.842-2.038.842-3.599,0-9.287,0-9.287,0Z" style="fill: #839d24; fill-rule: evenodd; opacity: .75;"/>
              <path d="M504.944,135.18v-6.079s12.372,0,18.255,0c1.679,0,3.039,1.359,3.039,3.036v.006c0,1.678-1.36,3.036-3.039,3.036-5.883,0-18.255,0-18.255,0Z" style="fill: #839d24; fill-rule: evenodd; opacity: .75;"/>
            </g>
          </g>
          <g>
            <path d="M553.616,139.813c0,6.428,2.555,12.596,7.106,17.143,4.551,4.547,10.723,7.1,17.16,7.1,12.189,0,24.406,0,24.406,0,0,0,0-7.501,0-16.027,0-6.432-2.555-12.599-7.106-17.146-4.551-4.544-10.723-7.1-17.16-7.1-12.189,0-24.406,0-24.406,0,0,0,0,7.501,0,16.03Z" style="fill: #abc02e; fill-rule: evenodd;"/>
            <g style="clip-path: url(#clippath-15);">
              <polygon points="553.616 123.782 607.932 170.207 553.616 170.207 553.616 123.782" style="fill: #839d24; fill-rule: evenodd;"/>
              <rect x="574.913" y="112.227" width="6.08" height="62.808" transform="translate(101.368 500.739) rotate(-50.801)" style="fill: #bdd033;"/>
              <path d="M569.841,167.131h-6.084s0-13.878,0-20.173c0-.805.319-1.577.891-2.149.569-.568,1.345-.891,2.151-.891s1.582.322,2.151.891c.572.571.891,1.343.891,2.149,0,6.295,0,20.173,0,20.173Z" style="fill: #4d7c3d; fill-rule: evenodd; opacity: .5;"/>
              <path d="M602.289,147.338v-6.079s-5.524,0-9.129,0c-.806,0-1.579.319-2.148.891-.572.568-.891,1.34-.891,2.146v.006c0,.805.319,1.577.891,2.149.569.568,1.342.888,2.148.888,3.605,0,9.129,0,9.129,0Z" style="fill: #839d24; fill-rule: evenodd; opacity: .75;"/>
              <path d="M602.289,135.18v-6.079s-12.369,0-18.252,0c-.806,0-1.582.322-2.151.891-.572.571-.891,1.343-.891,2.149,0,.805.319,1.581.891,2.149.569.571,1.345.891,2.151.891,5.883,0,18.252,0,18.252,0Z" style="fill: #839d24; fill-rule: evenodd; opacity: .75;"/>
            </g>
          </g>
          <g>
            <path d="M553.603,164.055l14.578-10.615c8.052-5.863,8.962-17.524,1.917-24.563l-5.099-5.095h-22.79s-5.099,5.095-5.099,5.095c-7.045,7.039-6.135,18.7,1.917,24.563l14.578,10.615Z" style="fill: #bdd033; fill-rule: evenodd;"/>
            <g style="clip-path: url(#clippath-17);">
              <rect x="530.604" y="121.937" width="22.999" height="43.615" transform="translate(1084.2069 287.4895) rotate(-180)" style="fill: #839d24;"/>
              <rect x="550.573" y="119.392" width="6.084" height="53.015" style="fill: #d6e23d;"/>
              <g>
                <g style="opacity: .5;">
                  <path d="M575.186,145.989c.99,0,1.965-.483,2.547-1.371.923-1.405.531-3.289-.875-4.209l-12.366-8.105c-1.406-.926-3.292-.526-4.211.873-.923,1.405-.531,3.289.875,4.209l12.366,8.105c.515.338,1.093.499,1.664.499Z" style="fill: #839d24;"/>
                </g>
                <g style="opacity: .5;">
                  <path d="M532.047,145.989c.57,0,1.149-.16,1.664-.499l12.362-8.105c1.406-.92,1.798-2.804.875-4.209-.919-1.399-2.792-1.801-4.211-.873l-12.362,8.105c-1.406.92-1.798,2.804-.875,4.209.582.888,1.557,1.371,2.547,1.371Z" style="fill: #4d7c3d;"/>
                </g>
              </g>
            </g>
          </g>
        </g>
      </g>
      <g>
        <g>
          <path d="M160.922,127.938h18.181s4.927,44.959,4.927,44.959c.273,2.492-1.68,4.668-4.189,4.668h-19.747c-2.512,0-4.466-2.182-4.188-4.677l5.015-44.95Z" style="fill: #6b4c46;"/>
          <g style="clip-path: url(#clippath-18);">
            <path d="M169.954,160.436l14.862-10.822c8.209-5.977,9.137-17.867,1.954-25.043l-5.199-5.195h-23.236s-5.199,5.195-5.199,5.195c-7.183,7.177-6.255,19.066,1.954,25.043l14.862,10.822Z" style="fill: #594237; fill-rule: evenodd;"/>
          </g>
        </g>
        <g>
          <g>
            <path d="M169.968,126.304c0,6.428-2.555,12.596-7.106,17.143-4.551,4.547-10.723,7.1-17.16,7.1-12.189,0-24.406,0-24.406,0,0,0,0-7.501,0-16.027,0-6.432,2.555-12.599,7.106-17.146,4.551-4.544,10.723-7.1,17.16-7.1,12.189,0,24.406,0,24.406,0,0,0,0,7.501,0,16.03Z" style="fill: #abc02e; fill-rule: evenodd;"/>
            <g style="clip-path: url(#clippath-19);">
              <polygon points="169.968 110.273 115.652 156.698 169.968 156.698 169.968 110.273" style="fill: #839d24; fill-rule: evenodd;"/>
              <rect x="114.227" y="127.082" width="62.808" height="6.08" transform="translate(-49.472 121.459) rotate(-39.239)" style="fill: #bdd033;"/>
              <path d="M141.575,153.172h6.084s0-6.31,0-10.225c0-1.678-1.363-3.039-3.042-3.039-1.679,0-3.042,1.362-3.042,3.039,0,3.915,0,10.225,0,10.225Z" style="fill: #4d7c3d; fill-rule: evenodd; opacity: .5;"/>
              <path d="M153.744,153.622h6.084s0-13.881,0-20.176c0-1.678-1.36-3.036-3.039-3.036h-.006c-1.679,0-3.039,1.359-3.039,3.036,0,6.295,0,20.176,0,20.176Z" style="fill: #4d7c3d; fill-rule: evenodd; opacity: .5;"/>
              <path d="M121.295,133.507v-5.757s5.689,0,9.287,0c.764,0,1.497.304,2.038.845.538.538.843,1.27.843,2.033h0c0,.766-.304,1.495-.843,2.036-.542.541-1.275.842-2.038.842-3.599,0-9.287,0-9.287,0Z" style="fill: #839d24; fill-rule: evenodd; opacity: .75;"/>
              <path d="M121.295,121.671v-6.079s12.372,0,18.255,0c1.679,0,3.039,1.359,3.039,3.036v.006c0,1.678-1.36,3.036-3.039,3.036-5.883,0-18.255,0-18.255,0Z" style="fill: #839d24; fill-rule: evenodd; opacity: .75;"/>
            </g>
          </g>
          <g>
            <path d="M169.968,126.304c0,6.428,2.555,12.596,7.106,17.143,4.551,4.547,10.723,7.1,17.16,7.1,12.189,0,24.406,0,24.406,0,0,0,0-7.501,0-16.027,0-6.432-2.555-12.599-7.106-17.146-4.551-4.544-10.723-7.1-17.16-7.1-12.189,0-24.406,0-24.406,0,0,0,0,7.501,0,16.03Z" style="fill: #abc02e; fill-rule: evenodd;"/>
            <g style="clip-path: url(#clippath-20);">
              <polygon points="169.968 110.273 224.283 156.698 169.968 156.698 169.968 110.273" style="fill: #839d24; fill-rule: evenodd;"/>
              <rect x="191.264" y="98.718" width="6.08" height="62.808" transform="translate(-29.338 198.459) rotate(-50.801)" style="fill: #bdd033;"/>
              <path d="M198.36,153.172h-6.084s0-6.31,0-10.225c0-1.678,1.363-3.039,3.042-3.039,1.679,0,3.042,1.362,3.042,3.039,0,3.915,0,10.225,0,10.225Z" style="fill: #4d7c3d; fill-rule: evenodd; opacity: .5;"/>
              <path d="M186.192,153.622h-6.084s0-13.878,0-20.173c0-.805.319-1.577.891-2.149.569-.568,1.345-.891,2.151-.891s1.582.322,2.151.891c.572.571.891,1.343.891,2.149,0,6.295,0,20.173,0,20.173Z" style="fill: #4d7c3d; fill-rule: evenodd; opacity: .5;"/>
              <path d="M218.64,133.829v-6.079s-5.524,0-9.129,0c-.806,0-1.579.319-2.148.891-.572.568-.891,1.34-.891,2.146v.006c0,.805.319,1.577.891,2.149.569.568,1.342.888,2.148.888,3.605,0,9.129,0,9.129,0Z" style="fill: #839d24; fill-rule: evenodd; opacity: .75;"/>
              <path d="M218.64,121.671v-6.079s-12.369,0-18.252,0c-.806,0-1.582.322-2.151.891-.572.571-.891,1.343-.891,2.149,0,.805.319,1.581.891,2.149.569.571,1.345.891,2.151.891,5.883,0,18.252,0,18.252,0Z" style="fill: #839d24; fill-rule: evenodd; opacity: .75;"/>
            </g>
          </g>
          <g>
            <path d="M169.954,150.546l14.578-10.615c8.052-5.863,8.962-17.524,1.917-24.563l-5.099-5.095h-22.79s-5.099,5.095-5.099,5.095c-7.045,7.039-6.135,18.7,1.917,24.563l14.578,10.615Z" style="fill: #bdd033; fill-rule: evenodd;"/>
            <g style="clip-path: url(#clippath-22);">
              <rect x="146.956" y="108.428" width="22.999" height="43.615" transform="translate(316.91 260.472) rotate(-180)" style="fill: #839d24;"/>
              <rect x="166.924" y="105.883" width="6.084" height="53.015" style="fill: #d6e23d;"/>
              <g>
                <g style="opacity: .5;">
                  <path d="M191.538,132.48c.99,0,1.965-.483,2.547-1.371.923-1.405.531-3.289-.875-4.209l-12.366-8.105c-1.406-.926-3.292-.526-4.211.873-.923,1.405-.531,3.289.875,4.209l12.366,8.105c.515.338,1.093.499,1.664.499Z" style="fill: #839d24;"/>
                </g>
                <g style="opacity: .5;">
                  <path d="M148.399,132.48c.57,0,1.149-.16,1.664-.499l12.362-8.105c1.406-.92,1.798-2.804.875-4.209-.919-1.399-2.792-1.801-4.211-.873l-12.362,8.105c-1.406.92-1.798,2.804-.875,4.209.582.888,1.557,1.371,2.547,1.371Z" style="fill: #4d7c3d;"/>
                </g>
                <path d="M191.538,146.34c.99,0,1.965-.483,2.547-1.371.923-1.405.531-3.289-.875-4.209l-12.366-8.105c-1.406-.926-3.292-.526-4.211.873-.923,1.405-.531,3.289.875,4.209l12.366,8.105c.515.338,1.093.499,1.664.499Z" style="fill: #839d24; opacity: .5;"/>
                <g style="opacity: .5;">
                  <path d="M148.399,146.34c.57,0,1.149-.16,1.664-.499l12.362-8.105c1.406-.92,1.798-2.804.875-4.209-.919-1.399-2.792-1.801-4.211-.873l-12.362,8.105c-1.406.92-1.798,2.804-.875,4.209.582.888,1.557,1.371,2.547,1.371Z" style="fill: #4d7c3d;"/>
                </g>
              </g>
            </g>
          </g>
        </g>
      </g>
      <g>
        <g>
          <g>
            <path d="M636.738-29.643h20.878s5.658,51.627,5.658,51.627c.314,2.861-1.929,5.361-4.81,5.361h-22.676c-2.885,0-5.128-2.506-4.809-5.37l5.759-51.618Z" style="fill: #6b4c46;"/>
            <g style="clip-path: url(#clippath-23);">
              <path d="M647.109,7.677l17.067-12.427c9.427-6.864,10.492-20.517,2.244-28.758l-5.97-5.965h-26.682s-5.97,5.965-5.97,5.965c-8.248,8.241-7.183,21.894,2.244,28.758l17.067,12.427Z" style="fill: #594237; fill-rule: evenodd;"/>
            </g>
          </g>
          <g>
            <g style="clip-path: url(#clippath-24);">
              <polygon points="647.125 -49.927 584.753 3.384 647.125 3.384 647.125 -49.927" style="fill: #839d24; fill-rule: evenodd;"/>
            </g>
            <g style="clip-path: url(#clippath-25);">
              <polygon points="647.125 -49.927 709.497 3.384 647.125 3.384 647.125 -49.927" style="fill: #839d24; fill-rule: evenodd;"/>
            </g>
            <g style="clip-path: url(#clippath-26);">
              <rect x="643.63" y="-54.968" width="6.987" height="60.878" style="fill: #d6e23d;"/>
            </g>
          </g>
        </g>
        <line x1="618.745" y1="27.345" x2="675.506" y2="26.726" style="fill: #52ab35; stroke: #52ab35; stroke-dasharray: 0 10; stroke-linecap: round; stroke-linejoin: round; stroke-width: 10px;"/>
      </g>
      <g>
        <path d="M304.351,57.338c0-.916-.744-1.66-1.661-1.661-.916-.001-1.66.743-1.659,1.659l.003,6.642c.001.916.745,1.66,1.661,1.661.917,0,1.661-.744,1.66-1.66l-.004-6.641Z" style="fill: #c32944; fill-rule: evenodd;"/>
        <path d="M306.014,62.319c.917,0,1.66-.743,1.659-1.659,0-.917-.744-1.66-1.661-1.661l-6.641-.004c-.917,0-1.661.744-1.66,1.66.001.916.746,1.66,1.661,1.661l6.642.003Z" style="fill: #c32944; fill-rule: evenodd;"/>
        <path d="M289.224,59.988c0-.916-.744-1.66-1.661-1.661-.916-.001-1.66.743-1.659,1.659l.003,6.642c.001.916.745,1.66,1.661,1.661.917,0,1.661-.744,1.66-1.66l-.004-6.641Z" style="fill: #c32944; fill-rule: evenodd;"/>
        <path d="M290.887,64.97c.917,0,1.66-.743,1.659-1.659,0-.917-.744-1.66-1.661-1.661l-6.641-.004c-.917,0-1.661.744-1.66,1.66.001.916.746,1.66,1.661,1.661l6.642.003Z" style="fill: #c32944; fill-rule: evenodd;"/>
      </g>
      <g>
        <path d="M663.136,58.484c-.647-.648-1.7-.648-2.349,0-.648.647-.648,1.699,0,2.347l4.698,4.694c.648.647,1.7.647,2.349,0,.648-.648.648-1.7,0-2.348l-4.698-4.693Z" style="fill: #c32944; fill-rule: evenodd;"/>
        <path d="M667.834,60.83c.648-.648.648-1.7,0-2.347-.648-.648-1.7-.648-2.349,0l-4.698,4.693c-.648.648-.648,1.7,0,2.348.648.647,1.701.647,2.349,0l4.698-4.694Z" style="fill: #c32944; fill-rule: evenodd;"/>
        <path d="M654.313,71.055c-.647-.648-1.7-.648-2.349,0-.648.647-.648,1.699,0,2.347l4.698,4.694c.648.647,1.7.647,2.349,0,.648-.648.648-1.7,0-2.348l-4.698-4.693Z" style="fill: #c32944; fill-rule: evenodd;"/>
        <path d="M659.012,73.401c.648-.648.648-1.7,0-2.347-.648-.648-1.7-.648-2.349,0l-4.698,4.693c-.648.648-.648,1.7,0,2.348.648.647,1.701.647,2.349,0l4.698-4.694Z" style="fill: #c32944; fill-rule: evenodd;"/>
      </g>
      <g>
        <g>
          <path d="M133.893-29.396s-34.07-30.162-41.357-36.612h-2.719c-7.287,6.45-41.357,36.612-41.357,36.612V4.477c0,.796.317,1.559.879,2.121.565.565,1.329.881,2.126.881h79.423c.797,0,1.56-.316,2.126-.881.563-.562.88-1.325.88-2.121V-29.396Z" style="fill: #fbeb8c; fill-rule: evenodd;"/>
          <g style="clip-path: url(#clippath-27);">
            <rect x="45.947" y="-.052" width="90.459" height="7.532" style="fill: #f2d861;"/>
          </g>
          <rect x="83.638" y="-12.605" width="15.076" height="20.085" style="fill: #434032;"/>
        </g>
        <line x1="43.577" y1="7.48" x2="139.407" y2="7.48" style="fill: #52ab35; stroke: #52ab35; stroke-dasharray: 0 10; stroke-linecap: round; stroke-linejoin: round; stroke-width: 10px;"/>
      </g>
      <g>
        <g>
          <g>
            <path d="M102.08,36.607h18.181s4.927,44.959,4.927,44.959c.273,2.492-1.68,4.668-4.189,4.668h-19.747c-2.512,0-4.466-2.182-4.188-4.677l5.015-44.95Z" style="fill: #6b4c46;"/>
            <g style="clip-path: url(#clippath-28);">
              <path d="M111.112,69.106l14.862-10.822c8.209-5.977,9.137-17.867,1.954-25.043l-5.199-5.195h-23.236s-5.199,5.195-5.199,5.195c-7.183,7.177-6.255,19.066,1.954,25.043l14.862,10.822Z" style="fill: #594237; fill-rule: evenodd;"/>
            </g>
          </g>
          <g>
            <g>
              <path d="M111.126,34.973c0,6.428-2.555,12.596-7.106,17.143-4.551,4.547-10.723,7.1-17.16,7.1-12.189,0-24.406,0-24.406,0,0,0,0-7.501,0-16.027,0-6.432,2.555-12.599,7.106-17.146,4.551-4.544,10.723-7.1,17.16-7.1,12.189,0,24.406,0,24.406,0,0,0,0,7.501,0,16.03Z" style="fill: #abc02e; fill-rule: evenodd;"/>
              <g style="clip-path: url(#clippath-29);">
                <polygon points="111.126 18.943 56.81 65.368 111.126 65.368 111.126 18.943" style="fill: #839d24; fill-rule: evenodd;"/>
                <rect x="55.385" y="35.752" width="62.808" height="6.08" transform="translate(-4.968 63.645) rotate(-39.239)" style="fill: #bdd033;"/>
                <path d="M82.733,61.842h6.084s0-6.31,0-10.225c0-1.678-1.363-3.039-3.042-3.039-1.679,0-3.042,1.362-3.042,3.039,0,3.915,0,10.225,0,10.225Z" style="fill: #4d7c3d; fill-rule: evenodd; opacity: .5;"/>
                <path d="M94.901,62.292h6.084s0-13.881,0-20.176c0-1.678-1.36-3.036-3.039-3.036h-.006c-1.679,0-3.039,1.359-3.039,3.036,0,6.295,0,20.176,0,20.176Z" style="fill: #4d7c3d; fill-rule: evenodd; opacity: .5;"/>
                <path d="M62.453,42.177v-5.757s5.689,0,9.287,0c.764,0,1.497.304,2.038.845.538.538.843,1.27.843,2.033h0c0,.766-.304,1.495-.843,2.036-.542.541-1.275.842-2.038.842-3.599,0-9.287,0-9.287,0Z" style="fill: #839d24; fill-rule: evenodd; opacity: .75;"/>
                <path d="M62.453,30.341v-6.079s12.372,0,18.255,0c1.679,0,3.039,1.359,3.039,3.036v.006c0,1.678-1.36,3.036-3.039,3.036-5.883,0-18.255,0-18.255,0Z" style="fill: #839d24; fill-rule: evenodd; opacity: .75;"/>
              </g>
            </g>
            <g>
              <path d="M111.126,34.973c0,6.428,2.555,12.596,7.106,17.143,4.551,4.547,10.723,7.1,17.16,7.1,12.189,0,24.406,0,24.406,0,0,0,0-7.501,0-16.027,0-6.432-2.555-12.599-7.106-17.146-4.551-4.544-10.723-7.1-17.16-7.1h-24.406s0,7.501,0,16.03Z" style="fill: #abc02e; fill-rule: evenodd;"/>
              <g style="clip-path: url(#clippath-30);">
                <polygon points="111.126 18.943 165.441 65.368 111.126 65.368 111.126 18.943" style="fill: #839d24; fill-rule: evenodd;"/>
                <rect x="132.422" y="7.388" width="6.08" height="62.808" transform="translate(19.786 119.251) rotate(-50.801)" style="fill: #bdd033;"/>
                <path d="M139.518,61.842h-6.084s0-6.31,0-10.225c0-1.678,1.363-3.039,3.042-3.039,1.679,0,3.042,1.362,3.042,3.039,0,3.915,0,10.225,0,10.225Z" style="fill: #4d7c3d; fill-rule: evenodd; opacity: .5;"/>
                <path d="M127.35,62.292h-6.084s0-13.878,0-20.173c0-.805.319-1.577.891-2.149.569-.568,1.345-.891,2.151-.891.806,0,1.582.322,2.151.891.572.571.891,1.343.891,2.149,0,6.295,0,20.173,0,20.173Z" style="fill: #4d7c3d; fill-rule: evenodd; opacity: .5;"/>
                <path d="M159.798,42.499v-6.079s-5.524,0-9.129,0c-.806,0-1.579.319-2.148.891-.572.568-.891,1.34-.891,2.146v.006c0,.805.319,1.577.891,2.149.569.568,1.342.888,2.148.888,3.605,0,9.129,0,9.129,0Z" style="fill: #839d24; fill-rule: evenodd; opacity: .75;"/>
                <path d="M159.798,30.341v-6.079s-12.369,0-18.252,0c-.806,0-1.582.322-2.151.891-.572.571-.891,1.343-.891,2.149,0,.805.319,1.581.891,2.149.569.571,1.345.891,2.151.891,5.883,0,18.252,0,18.252,0Z" style="fill: #839d24; fill-rule: evenodd; opacity: .75;"/>
              </g>
            </g>
            <g>
              <path d="M111.112,59.216l14.578-10.615c8.052-5.863,8.962-17.524,1.917-24.563l-5.099-5.095h-22.79s-5.099,5.095-5.099,5.095c-7.045,7.039-6.135,18.7,1.917,24.563l14.578,10.615Z" style="fill: #bdd033; fill-rule: evenodd;"/>
              <g style="clip-path: url(#clippath-32);">
                <rect x="88.113" y="17.098" width="22.999" height="43.615" transform="translate(199.225 77.811) rotate(-180)" style="fill: #839d24;"/>
                <rect x="108.082" y="14.553" width="6.084" height="53.015" style="fill: #d6e23d;"/>
                <g>
                  <g style="opacity: .5;">
                    <path d="M132.696,41.15c.99,0,1.965-.483,2.547-1.371.923-1.405.531-3.289-.875-4.209l-12.366-8.105c-1.406-.926-3.292-.526-4.211.873-.923,1.405-.531,3.289.875,4.209l12.366,8.105c.515.338,1.093.499,1.664.499Z" style="fill: #839d24;"/>
                  </g>
                  <g style="opacity: .5;">
                    <path d="M89.556,41.15c.57,0,1.149-.16,1.664-.499l12.362-8.105c1.406-.92,1.798-2.804.875-4.209-.919-1.399-2.792-1.801-4.211-.873l-12.362,8.105c-1.406.92-1.798,2.804-.875,4.209.582.888,1.557,1.371,2.547,1.371Z" style="fill: #4d7c3d;"/>
                  </g>
                  <path d="M132.696,55.01c.99,0,1.965-.483,2.547-1.371.923-1.405.531-3.289-.875-4.209l-12.366-8.105c-1.406-.926-3.292-.526-4.211.873-.923,1.405-.531,3.289.875,4.209l12.366,8.105c.515.338,1.093.499,1.664.499Z" style="fill: #839d24; opacity: .5;"/>
                  <g style="opacity: .5;">
                    <path d="M89.556,55.01c.57,0,1.149-.16,1.664-.499l12.362-8.105c1.406-.92,1.798-2.804.875-4.209-.919-1.399-2.792-1.801-4.211-.873l-12.362,8.105c-1.406.92-1.798,2.804-.875,4.209.582.888,1.557,1.371,2.547,1.371Z" style="fill: #4d7c3d;"/>
                  </g>
                </g>
              </g>
            </g>
          </g>
        </g>
        <line x1="86.412" y1="86.234" x2="135.84" y2="85.695" style="fill: #62c244; stroke: #62c244; stroke-dasharray: 0 10; stroke-linecap: round; stroke-linejoin: round; stroke-width: 10px;"/>
      </g>
      <g>
        <path d="M188.359-37.773h18.181s4.927,44.959,4.927,44.959c.273,2.492-1.68,4.668-4.189,4.668h-19.747c-2.512,0-4.466-2.182-4.188-4.677l5.015-44.95Z" style="fill: #6b4c46;"/>
        <line x1="172.691" y1="11.853" x2="222.12" y2="11.314" style="fill: #52ab35; stroke: #52ab35; stroke-dasharray: 0 10; stroke-linecap: round; stroke-linejoin: round; stroke-width: 10px;"/>
      </g>
      <g>
        <g>
          <g>
            <path d="M257.091-2.099h18.181s4.927,44.959,4.927,44.959c.273,2.492-1.68,4.668-4.189,4.668h-19.747c-2.512,0-4.466-2.182-4.188-4.677l5.015-44.95Z" style="fill: #6b4c46;"/>
            <g style="clip-path: url(#clippath-34);">
              <path d="M266.123,30.4l14.862-10.822c8.209-5.977,9.137-17.867,1.954-25.043l-5.199-5.195h-23.236s-5.199,5.195-5.199,5.195c-7.183,7.177-6.255,19.066,1.954,25.043l14.862,10.822Z" style="fill: #594237; fill-rule: evenodd;"/>
            </g>
          </g>
          <g>
            <g>
              <path d="M266.136-3.733c0,6.428-2.555,12.596-7.106,17.143-4.551,4.547-10.723,7.1-17.16,7.1-12.189,0-24.406,0-24.406,0,0,0,0-7.501,0-16.027,0-6.432,2.555-12.599,7.106-17.146,4.551-4.544,10.723-7.1,17.16-7.1,12.189,0,24.406,0,24.406,0,0,0,0,7.501,0,16.03Z" style="fill: #abc02e; fill-rule: evenodd;"/>
              <g style="clip-path: url(#clippath-35);">
                <polygon points="266.136 -19.764 211.821 26.661 266.136 26.661 266.136 -19.764" style="fill: #839d24; fill-rule: evenodd;"/>
                <rect x="210.396" y="-2.955" width="62.808" height="6.08" transform="translate(54.467 152.97) rotate(-39.239)" style="fill: #bdd033;"/>
                <path d="M237.744,23.136h6.084s0-6.31,0-10.225c0-1.678-1.363-3.039-3.042-3.039-1.679,0-3.042,1.362-3.042,3.039,0,3.915,0,10.225,0,10.225Z" style="fill: #4d7c3d; fill-rule: evenodd; opacity: .5;"/>
                <path d="M249.912,23.585h6.084s0-13.881,0-20.176c0-1.678-1.36-3.036-3.039-3.036h-.006c-1.679,0-3.039,1.359-3.039,3.036,0,6.295,0,20.176,0,20.176Z" style="fill: #4d7c3d; fill-rule: evenodd; opacity: .5;"/>
                <path d="M217.464,3.47V-2.287s5.689,0,9.287,0c.764,0,1.497.304,2.038.845.538.538.843,1.27.843,2.033h0c0,.766-.304,1.495-.843,2.036-.542.541-1.275.842-2.038.842-3.599,0-9.287,0-9.287,0Z" style="fill: #839d24; fill-rule: evenodd; opacity: .75;"/>
              </g>
            </g>
            <g>
              <path d="M266.136-3.733c0,6.428,2.555,12.596,7.106,17.143,4.551,4.547,10.723,7.1,17.16,7.1,12.189,0,24.406,0,24.406,0,0,0,0-7.501,0-16.027,0-6.432-2.555-12.599-7.106-17.146-4.551-4.544-10.723-7.1-17.16-7.1-12.189,0-24.406,0-24.406,0,0,0,0,7.501,0,16.03Z" style="fill: #abc02e; fill-rule: evenodd;"/>
              <g style="clip-path: url(#clippath-36);">
                <polygon points="266.136 -19.764 320.452 26.661 266.136 26.661 266.136 -19.764" style="fill: #839d24; fill-rule: evenodd;"/>
                <rect x="287.433" y="-31.319" width="6.08" height="62.808" transform="translate(106.822 225.134) rotate(-50.801)" style="fill: #bdd033;"/>
                <path d="M294.529,23.136h-6.084s0-6.31,0-10.225c0-1.678,1.363-3.039,3.042-3.039,1.679,0,3.042,1.362,3.042,3.039,0,3.915,0,10.225,0,10.225Z" style="fill: #4d7c3d; fill-rule: evenodd; opacity: .5;"/>
                <path d="M282.361,23.585h-6.084s0-13.878,0-20.173c0-.805.319-1.577.891-2.149.569-.568,1.345-.891,2.151-.891.806,0,1.582.322,2.151.891.572.571.891,1.343.891,2.149,0,6.295,0,20.173,0,20.173Z" style="fill: #4d7c3d; fill-rule: evenodd; opacity: .5;"/>
                <path d="M314.809,3.792V-2.287s-5.524,0-9.129,0c-.806,0-1.579.319-2.148.891-.572.568-.891,1.34-.891,2.146v.006c0,.805.319,1.577.891,2.149.569.568,1.342.888,2.148.888,3.605,0,9.129,0,9.129,0Z" style="fill: #839d24; fill-rule: evenodd; opacity: .75;"/>
              </g>
            </g>
            <g>
              <path d="M266.123,20.509l14.578-10.615c8.052-5.863,8.962-17.524,1.917-24.563l-5.099-5.095h-22.79s-5.099,5.095-5.099,5.095c-7.045,7.039-6.135,18.7,1.917,24.563l14.578,10.615Z" style="fill: #bdd033; fill-rule: evenodd;"/>
              <g style="clip-path: url(#clippath-38);">
                <rect x="243.124" y="-21.609" width="22.999" height="43.615" transform="translate(509.247 .398) rotate(-180)" style="fill: #839d24;"/>
                <rect x="263.093" y="-24.154" width="6.084" height="53.015" style="fill: #d6e23d;"/>
                <g>
                  <g style="opacity: .5;">
                    <path d="M287.706,2.443c.99,0,1.965-.483,2.547-1.371.923-1.405.531-3.289-.875-4.209l-12.366-8.105c-1.406-.926-3.292-.526-4.211.873-.923,1.405-.531,3.289.875,4.209l12.366,8.105c.515.338,1.093.499,1.664.499Z" style="fill: #839d24;"/>
                  </g>
                  <g style="opacity: .5;">
                    <path d="M244.567,2.443c.57,0,1.149-.16,1.664-.499l12.362-8.105c1.406-.92,1.798-2.804.875-4.209-.919-1.399-2.792-1.801-4.211-.873l-12.362,8.105c-1.406.92-1.798,2.804-.875,4.209.582.888,1.557,1.371,2.547,1.371Z" style="fill: #4d7c3d;"/>
                  </g>
                  <path d="M287.706,16.303c.99,0,1.965-.483,2.547-1.371.923-1.405.531-3.289-.875-4.209l-12.366-8.105c-1.406-.926-3.292-.526-4.211.873-.923,1.405-.531,3.289.875,4.209l12.366,8.105c.515.338,1.093.499,1.664.499Z" style="fill: #839d24; opacity: .5;"/>
                  <g style="opacity: .5;">
                    <path d="M244.567,16.303c.57,0,1.149-.16,1.664-.499l12.362-8.105c1.406-.92,1.798-2.804.875-4.209-.919-1.399-2.792-1.801-4.211-.873l-12.362,8.105c-1.406.92-1.798,2.804-.875,4.209.582.888,1.557,1.371,2.547,1.371Z" style="fill: #4d7c3d;"/>
                  </g>
                </g>
              </g>
            </g>
          </g>
        </g>
        <line x1="241.423" y1="47.527" x2="290.851" y2="46.988" style="fill: #52ab35; stroke: #52ab35; stroke-dasharray: 0 10; stroke-linecap: round; stroke-linejoin: round; stroke-width: 10px;"/>
      </g>
    </g>
  </g>
</svg>