<?xml version="1.0" encoding="UTF-8"?>
<svg id="Details" xmlns="http://www.w3.org/2000/svg" width="1500" height="145" xmlns:xlink="http://www.w3.org/1999/xlink" version="1.1" viewBox="0 0 1500 145">
  <!-- Generator: Adobe Illustrator 30.5.1, SVG Export Plug-In . SVG Version: 2.1.4 Build 3)  -->
  <defs>
    <clipPath id="clippath">
      <rect width="1500" height="145" style="fill: none;"/>
    </clipPath>
    <clipPath id="clippath-1">
      <path d="M1290.718,199.069l18.376-13.381c10.15-7.391,11.297-22.091,2.416-30.964l-6.428-6.423h-28.729s-6.428,6.423-6.428,6.423c-8.881,8.873-7.734,23.573,2.416,30.964l18.376,13.381Z" style="clip-rule: evenodd; fill: none;"/>
    </clipPath>
    <clipPath id="clippath-2">
      <polygon points="644.605 37.409 509.33 37.409 509.33 -44.648 576.968 -73.219 644.605 -44.648 644.605 37.409" style="fill: none;"/>
    </clipPath>
    <clipPath id="clippath-4">
      <polygon points="591.031 37.409 562.844 37.409 562.843 -2.671 591.092 -2.671 591.031 37.409" style="fill: none;"/>
    </clipPath>
    <clipPath id="clippath-5">
      <polygon points="552.628 17.212 524.441 17.212 524.44 -2.758 552.689 -2.758 552.628 17.212" style="fill: none;"/>
    </clipPath>
    <clipPath id="clippath-6">
      <polygon points="629.434 17.212 601.247 17.212 601.246 -2.758 629.495 -2.758 629.434 17.212" style="fill: none;"/>
    </clipPath>
  </defs>
  <g style="clip-path: url(#clippath);">
    <rect x="-10.125" y="-551.796" width="1520.249" height="1054.04" style="fill: #04d5d8;"/>
    <g>
      <path d="M781.313,61.582c.505-.504,1.088-1.087,1.088-1.087,0,0-.584-.583-1.088-1.087-.463-.463-1.092-.723-1.747-.723h-8.419c-1.106,0-2.166.439-2.949,1.22-.344.344-.627.627-.627.627,0,0,.246.246.555.554.782.781,1.843,1.22,2.949,1.22h8.492c.656,0,1.284-.26,1.747-.723Z" style="fill: #3ebaba; fill-rule: evenodd;"/>
      <path d="M785.368,58.124l-2.966,2.371,2.966,2.371c-.907-1.451-.907-3.291,0-4.742Z" style="fill: #3ebaba; fill-rule: evenodd;"/>
      <path d="M804.348,64.377h-8.419c-1.106,0-2.166.439-2.949,1.22-.344.344-.627.627-.627.627l.555.554c.782.781,1.843,1.22,2.948,1.22h8.492c.655,0,1.284-.26,1.748-.723.505-.504,1.088-1.087,1.088-1.087,0,0-.583-.583-1.088-1.087-.463-.463-1.092-.723-1.748-.723Z" style="fill: #3ebaba; fill-rule: evenodd;"/>
      <path d="M807.183,66.188l2.966,2.371c-.907-1.451-.907-3.291,0-4.742l-2.966,2.371Z" style="fill: #3ebaba; fill-rule: evenodd;"/>
      <path d="M775.34,54.537c.505-.504,1.088-1.087,1.088-1.087,0,0-.583-.583-1.088-1.087-.463-.463-1.092-.723-1.747-.723h-8.42c-1.106,0-2.166.439-2.948,1.22-.344.344-.627.627-.627.627,0,0,.246.246.555.554.782.781,1.843,1.22,2.949,1.22h8.492c.655,0,1.284-.26,1.747-.723Z" style="fill: #3ebaba; fill-rule: evenodd;"/>
      <path d="M779.395,51.079l-2.966,2.371,2.966,2.371c-.908-1.451-.908-3.291,0-4.742Z" style="fill: #3ebaba; fill-rule: evenodd;"/>
      <path d="M824.77,32.087c.782.781,1.843,1.22,2.948,1.22h8.492c.655,0,1.284-.26,1.748-.723.505-.504,1.088-1.087,1.088-1.087,0,0-.583-.583-1.088-1.087-.463-.463-1.092-.723-1.748-.723h-8.419c-1.106,0-2.166.439-2.949,1.22-.344.344-.627.627-.627.627l.555.554Z" style="fill: #3ebaba; fill-rule: evenodd;"/>
      <path d="M842.012,29.126l-2.966,2.371,2.966,2.371c-.907-1.451-.907-3.291,0-4.742Z" style="fill: #3ebaba; fill-rule: evenodd;"/>
      <path d="M830.267,47.006h-8.42c-1.106,0-2.166.439-2.948,1.22-.344.344-.627.627-.627.627l.555.554c.782.781,1.843,1.22,2.949,1.22h8.492c.655,0,1.284-.26,1.747-.723.505-.504,1.088-1.087,1.088-1.087,0,0-.583-.583-1.088-1.087-.463-.463-1.092-.723-1.747-.723Z" style="fill: #3ebaba; fill-rule: evenodd;"/>
      <path d="M833.103,48.817l2.966,2.371c-.908-1.451-.908-3.291,0-4.742l-2.966,2.371Z" style="fill: #3ebaba; fill-rule: evenodd;"/>
      <path d="M812.432,40.388l.555.554c.782.781,1.843,1.22,2.949,1.22h8.492c.656,0,1.284-.26,1.747-.723.505-.504,1.088-1.087,1.088-1.087,0,0-.584-.583-1.088-1.087-.463-.463-1.092-.723-1.747-.723h-8.419c-1.106,0-2.166.439-2.949,1.22-.344.344-.627.627-.627.627Z" style="fill: #3ebaba; fill-rule: evenodd;"/>
      <path d="M830.229,37.981l-2.966,2.371,2.966,2.371c-.907-1.451-.907-3.291,0-4.742Z" style="fill: #3ebaba; fill-rule: evenodd;"/>
      <path d="M813.053,76.956h-8.42c-1.106,0-2.166.439-2.948,1.22-.344.344-.627.627-.627.627,0,0,.246.246.555.554.782.781,1.843,1.22,2.949,1.22h8.492c.655,0,1.284-.26,1.748-.723.505-.504,1.088-1.087,1.088-1.087,0,0-.584-.583-1.088-1.087-.463-.463-1.092-.723-1.748-.723Z" style="fill: #3ebaba; fill-rule: evenodd;"/>
      <path d="M818.855,76.395l-2.966,2.371,2.966,2.371c-.908-1.451-.908-3.291,0-4.742Z" style="fill: #3ebaba; fill-rule: evenodd;"/>
      <path d="M798.116,33.897c.782.781,1.843,1.22,2.949,1.22h8.492c.655,0,1.284-.26,1.747-.723.505-.504,1.088-1.087,1.088-1.087,0,0-.583-.583-1.088-1.087-.463-.463-1.092-.723-1.747-.723h-8.42c-1.106,0-2.166.439-2.948,1.22-.344.344-.627.627-.627.627l.555.554Z" style="fill: #3ebaba; fill-rule: evenodd;"/>
      <path d="M815.358,30.936l-2.966,2.371,2.966,2.371c-.907-1.451-.907-3.291,0-4.742Z" style="fill: #3ebaba; fill-rule: evenodd;"/>
      <path d="M803.644,49.689c-.463-.463-1.092-.723-1.748-.723h-8.419c-1.106,0-2.166.439-2.949,1.22-.344.344-.627.627-.627.627,0,0,.246.246.555.554.782.781,1.843,1.22,2.948,1.22h8.492c.655,0,1.284-.26,1.748-.723.505-.504,1.088-1.087,1.088-1.087,0,0-.583-.583-1.088-1.087Z" style="fill: #3ebaba; fill-rule: evenodd;"/>
      <path d="M804.732,50.777l2.966,2.371c-.907-1.451-.907-3.291,0-4.742l-2.966,2.371Z" style="fill: #3ebaba; fill-rule: evenodd;"/>
      <path d="M789.907,72.214h-8.42c-1.106,0-2.166.439-2.948,1.22-.344.344-.627.627-.627.627l.555.554c.782.781,1.843,1.22,2.949,1.22h8.492c.655,0,1.284-.26,1.747-.723.505-.504,1.088-1.087,1.088-1.087,0,0-.583-.583-1.088-1.087-.463-.463-1.092-.723-1.747-.723Z" style="fill: #3ebaba; fill-rule: evenodd;"/>
      <path d="M795.709,71.654l-2.966,2.371,2.966,2.371c-.908-1.451-.908-3.291,0-4.742Z" style="fill: #3ebaba; fill-rule: evenodd;"/>
      <path d="M814.875,59.603c.505-.504,1.088-1.087,1.088-1.087,0,0-.583-.583-1.088-1.087-.463-.463-1.092-.723-1.748-.723h-8.42c-1.106,0-2.166.439-2.948,1.22-.344.344-.627.627-.627.627,0,0,.246.246.555.554.782.781,1.843,1.22,2.948,1.22h8.492c.655,0,1.284-.26,1.748-.723Z" style="fill: #3ebaba; fill-rule: evenodd;"/>
      <path d="M818.93,56.144l-2.966,2.371,2.966,2.371c-.907-1.451-.907-3.291,0-4.742Z" style="fill: #3ebaba; fill-rule: evenodd;"/>
      <path d="M838.11,39.866c-.344.344-.627.627-.627.627l.555.554c.782.781,1.843,1.22,2.949,1.22h8.492c.655,0,1.284-.26,1.747-.723.505-.504,1.088-1.087,1.088-1.087,0,0-.584-.583-1.088-1.087-.463-.463-1.092-.723-1.747-.723h-8.419c-1.106,0-2.167.439-2.949,1.22Z" style="fill: #3ebaba; fill-rule: evenodd;"/>
      <path d="M855.279,38.085l-2.966,2.371,2.966,2.371c-.907-1.451-.907-3.291,0-4.742Z" style="fill: #3ebaba; fill-rule: evenodd;"/>
      <path d="M860.709,46.384h-8.419c-1.106,0-2.166.439-2.949,1.22-.344.344-.627.627-.627.627,0,0,.246.246.555.554.782.781,1.843,1.22,2.948,1.22h8.492c.656,0,1.284-.26,1.748-.723.505-.504,1.088-1.087,1.088-1.087,0,0-.584-.583-1.088-1.087-.463-.463-1.092-.723-1.748-.723Z" style="fill: #3ebaba; fill-rule: evenodd;"/>
      <path d="M866.511,45.824l-2.966,2.371,2.966,2.371c-.907-1.451-.907-3.291,0-4.742Z" style="fill: #3ebaba; fill-rule: evenodd;"/>
      <path d="M898.371,45.665h-8.419c-1.106,0-2.166.439-2.949,1.22-.344.344-.627.627-.627.627l.555.554c.782.781,1.843,1.22,2.949,1.22h8.492c.656,0,1.284-.26,1.747-.723.505-.504,1.088-1.087,1.088-1.087,0,0-.584-.583-1.088-1.088-.463-.463-1.092-.723-1.747-.723Z" style="fill: #3ebaba; fill-rule: evenodd;"/>
      <path d="M904.173,45.105l-2.966,2.371,2.966,2.371c-.907-1.451-.907-3.291,0-4.742Z" style="fill: #3ebaba; fill-rule: evenodd;"/>
      <path d="M880.253,61.973c.505-.504,1.088-1.087,1.088-1.087,0,0-.584-.583-1.088-1.087-.463-.463-1.092-.723-1.747-.723h-8.419c-1.106,0-2.167.439-2.949,1.22-.344.344-.627.627-.627.627,0,0,.246.246.555.554.782.781,1.843,1.22,2.949,1.22h8.492c.655,0,1.284-.26,1.747-.723Z" style="fill: #3ebaba; fill-rule: evenodd;"/>
      <path d="M884.307,58.515l-2.966,2.371,2.966,2.371c-.907-1.451-.907-3.291,0-4.742Z" style="fill: #3ebaba; fill-rule: evenodd;"/>
      <path d="M886.664,67.659h-8.419c-1.106,0-2.166.439-2.949,1.22-.344.344-.627.627-.627.627,0,0,.246.246.555.554.782.781,1.843,1.22,2.948,1.22h8.492c.656,0,1.284-.26,1.748-.723.505-.504,1.088-1.087,1.088-1.087,0,0-.584-.583-1.088-1.087-.463-.463-1.092-.723-1.748-.723Z" style="fill: #3ebaba; fill-rule: evenodd;"/>
      <path d="M889.5,69.469l2.966,2.371c-.907-1.451-.907-3.291,0-4.742l-2.966,2.371Z" style="fill: #3ebaba; fill-rule: evenodd;"/>
      <path d="M841.753,62.398h-8.419c-1.106,0-2.167.439-2.949,1.22-.344.344-.627.627-.627.627l.555.554c.782.781,1.843,1.22,2.948,1.22h8.492c.656,0,1.284-.26,1.748-.723.505-.504,1.088-1.087,1.088-1.087,0,0-.584-.583-1.088-1.087-.463-.463-1.092-.723-1.748-.723Z" style="fill: #3ebaba; fill-rule: evenodd;"/>
      <path d="M844.589,64.208l2.966,2.371c-.907-1.451-.907-3.291,0-4.742l-2.966,2.371Z" style="fill: #3ebaba; fill-rule: evenodd;"/>
      <path d="M827.312,70.234h-8.42c-1.106,0-2.166.439-2.948,1.22-.344.344-.627.627-.627.627l.555.554c.782.781,1.843,1.22,2.948,1.22h8.492c.655,0,1.284-.26,1.748-.723.505-.504,1.088-1.087,1.088-1.087,0,0-.584-.583-1.088-1.087-.463-.463-1.092-.723-1.748-.723Z" style="fill: #3ebaba; fill-rule: evenodd;"/>
      <path d="M830.147,72.045l2.966,2.371c-.907-1.451-.907-3.291,0-4.742l-2.966,2.371Z" style="fill: #3ebaba; fill-rule: evenodd;"/>
      <path d="M837.686,80.245h-8.419c-1.106,0-2.167.439-2.949,1.22-.344.344-.627.627-.627.627,0,0,.246.246.555.554.782.781,1.843,1.22,2.948,1.22h8.492c.656,0,1.284-.26,1.748-.723.505-.504,1.088-1.087,1.088-1.087,0,0-.584-.583-1.088-1.087-.463-.463-1.092-.723-1.748-.723Z" style="fill: #3ebaba; fill-rule: evenodd;"/>
      <path d="M840.522,82.055l2.966,2.371c-.907-1.451-.907-3.291,0-4.742l-2.966,2.371Z" style="fill: #3ebaba; fill-rule: evenodd;"/>
      <path d="M830.36,89.992h-8.419c-1.106,0-2.166.439-2.949,1.22-.344.344-.627.627-.627.627l.555.554c.782.781,1.843,1.22,2.948,1.22h8.492c.656,0,1.284-.26,1.748-.723.505-.504,1.088-1.087,1.088-1.087,0,0-.584-.583-1.088-1.088-.463-.463-1.092-.723-1.748-.723Z" style="fill: #3ebaba; fill-rule: evenodd;"/>
      <path d="M833.196,91.803l2.966,2.371c-.907-1.451-.907-3.291,0-4.742l-2.966,2.371Z" style="fill: #3ebaba; fill-rule: evenodd;"/>
      <path d="M853.169,72.605h-8.419c-1.106,0-2.167.439-2.949,1.22-.344.344-.627.627-.627.627,0,0,.246.246.555.554.782.781,1.843,1.22,2.948,1.22h8.492c.656,0,1.284-.26,1.748-.723.505-.504,1.088-1.087,1.088-1.087,0,0-.584-.583-1.088-1.087-.463-.463-1.092-.723-1.748-.723Z" style="fill: #3ebaba; fill-rule: evenodd;"/>
      <path d="M856.005,74.416l2.966,2.371c-.907-1.451-.907-3.291,0-4.742l-2.966,2.371Z" style="fill: #3ebaba; fill-rule: evenodd;"/>
      <path d="M805.344,85.91h-8.419c-1.106,0-2.166.439-2.949,1.22-.344.344-.627.627-.627.627l.555.554c.782.781,1.843,1.22,2.948,1.22h8.492c.656,0,1.284-.26,1.748-.723.505-.504,1.088-1.087,1.088-1.087,0,0-.584-.583-1.088-1.087-.463-.463-1.092-.723-1.748-.723Z" style="fill: #3ebaba; fill-rule: evenodd;"/>
      <path d="M808.18,87.721l2.966,2.371c-.907-1.451-.907-3.291,0-4.742l-2.966,2.371Z" style="fill: #3ebaba; fill-rule: evenodd;"/>
      <path d="M779.973,44.794h8.492c.656,0,1.284-.26,1.747-.723.505-.504,1.088-1.087,1.088-1.087,0,0-.584-.583-1.088-1.087-.463-.463-1.092-.723-1.747-.723h-8.419c-1.106,0-2.166.439-2.949,1.22-.344.344-.627.627-.627.627,0,0,.246.246.555.554.782.781,1.843,1.22,2.949,1.22Z" style="fill: #3ebaba; fill-rule: evenodd;"/>
      <path d="M794.266,40.612l-2.966,2.371,2.966,2.371c-.908-1.451-.908-3.291,0-4.742Z" style="fill: #3ebaba; fill-rule: evenodd;"/>
    </g>
    <path d="M776.611,179.833c-12.682,0-23-10.309-23-22.982s10.318-22.981,23-22.981h11.581c12.684,0,23.002,10.309,23.002,22.981s-10.318,22.982-23.002,22.982h-11.581Z" style="fill: #7ee6e4; fill-rule: evenodd;"/>
    <path d="M1209.742,141.418c-76.136,0-138.076,61.941-138.076,138.077,0,9.374-7.626,17-17,17h-106.263c-9.374,0-17-7.626-17-17v-2.009c0-36.943-30.057-67-67-67h-75.775c-41.992,0-76.156-34.163-76.156-76.156V48.342c0-34.188-27.813-62-62-62h-144.932c-34.187,0-62,27.812-62,62v1.583c0,6.616-5.383,12-12,12h-77.199c-41.355,0-75,33.645-75,75v1.615c0,6.616-5.383,12-12,12H-56.875v1900.227h125.29c19.299,0,35,15.701,35,35v28.562c0,46.869,38.131,85,85,85h282.678c46.869,0,85-38.131,85-85v-4.012c0-19.299,15.701-35,35-35h100.898c106.145,0,192.5-86.354,192.5-192.5,0-13.785,11.215-25,25-25h189.302c13.785,0,25,11.215,25,25v6.941c0,13.785-11.215,25-25,25h-1.646c-41.355,0-75,33.646-75,75.001v134.569c0,41.355,33.645,75,75,75h68.108c41.355,0,75-33.645,75-75,0-34.095,27.737-61.833,61.832-61.833h254.837V141.418h-347.181Z" style="fill: #7ee6e4;"/>
    <path d="M1045.191,716.028h0c0-51.28,41.571-92.851,92.85-92.851h57.665c32.387,0,58.642-26.255,58.642-58.642h0c0-32.387,26.255-58.642,58.642-58.642h218.932V166.418h-322.181c-62.45,0-113.076,50.626-113.076,113.076h0c0,23.196-18.804,42-42,42h-106.262c-23.196,0-42-18.804-42-42v-2.009c0-23.196-18.804-42-42-42h-75.776c-55.867,0-101.156-45.289-101.156-101.156V48.342c0-20.435-16.565-37-37-37h-144.932c-20.435,0-37,16.565-37,37v1.583c0,20.435-16.565,37-37,37h-77.199c-27.614,0-50,22.386-50,50v1.615c0,20.435-16.565,37-37,37H-31.875v1850.227h100.289c33.137,0,60,26.863,60,60v28.561c0,33.137,26.863,60,60,60h282.678c33.137,0,60-26.863,60-60v-4.011c0-33.137,26.863-60,60-60h100.898c92.508,0,167.5-74.992,167.5-167.5h0c0-27.614,22.386-50,50-50h189.302c27.614,0,50,22.386,50,50v6.942c0,27.614-22.386,50-50,50h-1.647c-27.614,0-50,22.386-50,50v134.57c0,27.614,22.386,50,50,50h68.108c27.614,0,50-22.386,50-50h0c0-47.956,38.876-86.832,86.832-86.832h229.837v-328.037c0-39.064-31.668-70.732-70.732-70.732h-323.15c-50.932,0-92.285-41.008-92.845-91.807-.004-.347-.006-830.544-.006-830.892Z" style="fill: #fbed97;"/>
    <g>
      <path d="M1209.742,226.419c-29.313,0-53.076,23.763-53.076,53.076h0c0,56.333-45.667,102-102,102h-353.588c-40.652,0-73.606-32.955-73.606-73.606V97.342c0-14.359-11.641-26-26-26h-56.442c-10.394,0-19.895,6.146-23.89,15.742-14.612,35.099-49.272,59.841-89.6,59.841h-46.653c-11.17,0-21.157,7.295-24.204,18.042-11.534,40.685-49.013,70.574-93.342,70.574H-1.979l-11.374,1742.34,115.314-.491c49.895,14.55,86.454,60.7,86.454,115.229v.695c.001,13.259,10.754,24.004,24.013,23.997l236.679-.131c11.698-.007,21.708-8.443,23.64-19.98,9.508-56.77,58.875-100.032,118.346-100.032h100.898c59.37,0,107.5-48.129,107.5-107.5h0c0-60.752,49.249-110,110-110h189.003c21.384,0,38.798-17.186,39.08-38.568h0c.246-18.686-12.768-34.942-31.062-38.758-28.801-6.009-55.263-20.244-76.552-41.532-28.243-28.244-44.073-65.595-44.746-105.431-.015-.883-.022-838.466-.022-839.351,0-40.828,15.899-79.212,44.769-108.081,28.87-28.869,67.254-44.769,108.082-44.769h28.622c14.589,0,27.327-10.069,30.48-24.313,11.76-53.123,59.237-92.972,115.846-92.972h312.76v-219.474h-416.008Z" style="fill: #62c244;"/>
      <path d="M1615.775,226.419h-406.033c-29.313,0-53.076,23.763-53.076,53.076h0c0,56.333-45.667,102-102,102h-353.588c-40.652,0-73.606-32.955-73.606-73.606V97.342c0-14.359-11.641-26-26-26h-56.442c-10.394,0-19.895,6.146-23.89,15.742-14.612,35.099-49.272,59.841-89.6,59.841h-46.653c-11.17,0-21.157,7.295-24.204,18.042-11.534,40.685-49.013,70.574-93.342,70.574H3.009" style="fill: none; stroke: #62c244; stroke-dasharray: 0 9.976; stroke-linecap: round; stroke-linejoin: round; stroke-width: 10px;"/>
    </g>
    <g style="clip-path: url(#clippath-1);">
      <rect x="1286.898" y="142.767" width="7.669" height="66.829" style="fill: #d6e14c;"/>
    </g>
    <g>
      <path d="M151.541,142.217c.096-.036.101-.028.198-.062.21-.054.338-.031.57-.035.731.036,1.445.462,1.958,1.145.175.095.259.242.346.389.042.073.084.147.131.228l32.538,56.356-5.083-.017-31.258-54.143c-.047-.081-.089-.156-.131-.228-.128-.221-.259-.449-.296-.713-.272-.887-.188-1.762.286-2.363.141-.168.207-.261.378-.37.086-.051.178-.101.178-.101.094-.043.099-.036.185-.085Z" style="fill: #e9c242;"/>
      <path d="M198.749,147.188c-10.681-18.499-34.331-24.836-52.828-14.155-18.5,10.681-24.835,34.328-14.154,52.827l66.982-38.672Z" style="fill: #b74f25;"/>
    </g>
    <g>
      <g>
        <g>
          <polygon points="644.605 37.409 509.33 37.409 509.415 -42.051 576.968 -70.621 644.605 -42.051 644.605 37.409" style="fill: #fff;"/>
          <g style="clip-path: url(#clippath-2);">
            <g style="opacity: .55;">
              <line x1="511.099" y1="37.409" x2="511.05" y2="-73.754" style="fill: none; stroke: #f9ea9b; stroke-linecap: round; stroke-miterlimit: 10; stroke-width: 5.197px;"/>
              <line x1="525.737" y1="37.409" x2="525.707" y2="-73.754" style="fill: none; stroke: #f9ea9b; stroke-linecap: round; stroke-miterlimit: 10; stroke-width: 5.197px;"/>
              <line x1="540.374" y1="37.409" x2="540.364" y2="-73.754" style="fill: none; stroke: #f9ea9b; stroke-linecap: round; stroke-miterlimit: 10; stroke-width: 5.197px;"/>
              <line x1="555.011" y1="37.409" x2="555.022" y2="-73.754" style="fill: none; stroke: #f9ea9b; stroke-linecap: round; stroke-miterlimit: 10; stroke-width: 5.197px;"/>
              <line x1="569.649" y1="37.409" x2="569.679" y2="-73.754" style="fill: none; stroke: #f9ea9b; stroke-linecap: round; stroke-miterlimit: 10; stroke-width: 5.197px;"/>
              <line x1="584.286" y1="37.409" x2="584.336" y2="-73.754" style="fill: none; stroke: #f9ea9b; stroke-linecap: round; stroke-miterlimit: 10; stroke-width: 5.197px;"/>
              <line x1="598.924" y1="37.409" x2="598.994" y2="-73.754" style="fill: none; stroke: #f9ea9b; stroke-linecap: round; stroke-miterlimit: 10; stroke-width: 5.197px;"/>
              <line x1="613.561" y1="37.409" x2="613.651" y2="-73.754" style="fill: none; stroke: #f9ea9b; stroke-linecap: round; stroke-miterlimit: 10; stroke-width: 5.197px;"/>
              <line x1="628.198" y1="37.409" x2="628.309" y2="-73.754" style="fill: none; stroke: #f9ea9b; stroke-linecap: round; stroke-miterlimit: 10; stroke-width: 5.197px;"/>
              <line x1="642.836" y1="37.409" x2="642.966" y2="-73.754" style="fill: none; stroke: #f9ea9b; stroke-linecap: round; stroke-miterlimit: 10; stroke-width: 5.197px;"/>
            </g>
          </g>
          <g>
            <g>
              <polygon points="591.031 37.409 562.844 37.409 562.843 -2.671 591.092 -2.671 591.031 37.409" style="fill: #f8d748;"/>
              <g style="clip-path: url(#clippath-4);">
                <polygon points="593.572 4.254 560.303 4.254 559.546 -4.564 594.403 -4.564 593.572 4.254" style="fill: #f1a83b;"/>
              </g>
            </g>
            <g>
              <rect x="566.207" y="1.225" width="8.94" height="14.664" style="fill: #f3b840;"/>
              <rect x="578.788" y="1.225" width="8.94" height="14.664" style="fill: #f3b840;"/>
            </g>
            <g>
              <rect x="566.207" y="19.317" width="8.94" height="18.092" style="fill: #f3b840;"/>
              <rect x="578.788" y="19.317" width="8.94" height="18.092" style="fill: #f3b840;"/>
            </g>
          </g>
          <g>
            <rect x="524.441" y="17.212" width="28.248" height="8.487" style="fill: #fff;"/>
            <rect x="601.247" y="17.212" width="28.248" height="8.487" style="fill: #fff;"/>
            <g>
              <g>
                <g>
                  <g>
                    <polygon points="552.628 17.212 524.441 17.212 524.44 -2.758 552.689 -2.758 552.628 17.212" style="fill: #f8d748;"/>
                    <g style="clip-path: url(#clippath-5);">
                      <polygon points="555.169 4.167 521.9 4.167 521.143 -7.248 556 -7.248 555.169 4.167" style="fill: #f3b840;"/>
                    </g>
                  </g>
                  <g>
                    <rect x="527.804" y="1.138" width="8.94" height="15.289" style="fill: #fff;"/>
                    <rect x="540.385" y="1.138" width="8.94" height="15.289" style="fill: #fff;"/>
                  </g>
                </g>
                <g>
                  <rect x="524.44" y="17.212" width="28.249" height="8.487" style="fill: none; stroke: #f3b840; stroke-miterlimit: 10; stroke-width: 2.721px;"/>
                  <line x1="531.502" y1="17.212" x2="531.502" y2="25.699" style="fill: none; stroke: #f3b840; stroke-miterlimit: 10; stroke-width: 2.721px;"/>
                  <line x1="538.564" y1="17.212" x2="538.564" y2="25.699" style="fill: none; stroke: #f3b840; stroke-miterlimit: 10; stroke-width: 2.721px;"/>
                  <line x1="545.627" y1="17.212" x2="545.627" y2="25.699" style="fill: none; stroke: #f3b840; stroke-miterlimit: 10; stroke-width: 2.721px;"/>
                </g>
              </g>
              <rect x="527.804" y="11.057" width="8.94" height="4.832" style="fill: #61d2c0;"/>
              <rect x="540.385" y="11.057" width="8.94" height="4.832" style="fill: #61d2c0;"/>
            </g>
            <g>
              <g>
                <g>
                  <g>
                    <polygon points="629.434 17.212 601.247 17.212 601.246 -2.758 629.495 -2.758 629.434 17.212" style="fill: #f8d748;"/>
                    <g style="clip-path: url(#clippath-6);">
                      <polygon points="631.976 4.167 598.706 4.167 597.95 -7.248 632.806 -7.248 631.976 4.167" style="fill: #f3b840;"/>
                    </g>
                  </g>
                  <g>
                    <rect x="604.61" y="1.138" width="8.94" height="15.289" style="fill: #fff;"/>
                    <rect x="617.192" y="1.138" width="8.94" height="15.289" style="fill: #fff;"/>
                  </g>
                </g>
                <g>
                  <rect x="601.246" y="17.212" width="28.249" height="8.487" style="fill: none; stroke: #f3b840; stroke-miterlimit: 10; stroke-width: 2.721px;"/>
                  <line x1="608.309" y1="17.212" x2="608.309" y2="25.699" style="fill: none; stroke: #f3b840; stroke-miterlimit: 10; stroke-width: 2.721px;"/>
                  <line x1="615.371" y1="17.212" x2="615.371" y2="25.699" style="fill: none; stroke: #f3b840; stroke-miterlimit: 10; stroke-width: 2.721px;"/>
                  <line x1="622.433" y1="17.212" x2="622.433" y2="25.699" style="fill: none; stroke: #f3b840; stroke-miterlimit: 10; stroke-width: 2.721px;"/>
                </g>
              </g>
              <rect x="604.61" y="11.057" width="8.94" height="4.832" style="fill: #61d2c0;"/>
            </g>
          </g>
          <rect x="617.152" y="11.057" width="8.94" height="4.832" style="fill: #61d2c0;"/>
        </g>
        <g>
          <g>
            <line x1="508.607" y1="38.392" x2="508.607" y2="50.358" style="fill: none; stroke: #7615f5; stroke-miterlimit: 10; stroke-width: 5.197px;"/>
            <line x1="528.227" y1="38.392" x2="528.227" y2="50.358" style="fill: none; stroke: #7615f5; stroke-miterlimit: 10; stroke-width: 5.197px;"/>
            <line x1="544.474" y1="38.392" x2="544.474" y2="50.358" style="fill: none; stroke: #7615f5; stroke-miterlimit: 10; stroke-width: 5.197px;"/>
            <line x1="609.461" y1="38.392" x2="609.461" y2="50.358" style="fill: none; stroke: #7615f5; stroke-miterlimit: 10; stroke-width: 5.197px;"/>
            <line x1="625.708" y1="38.392" x2="625.708" y2="50.358" style="fill: none; stroke: #7615f5; stroke-miterlimit: 10; stroke-width: 5.197px;"/>
            <line x1="645.328" y1="38.392" x2="645.328" y2="50.358" style="fill: none; stroke: #7615f5; stroke-miterlimit: 10; stroke-width: 5.197px;"/>
          </g>
          <path d="M645.328,35.805h-136.721c-1.436,0-2.6,1.163-2.6,2.597v2.583h141.92v-2.583c0-1.434-1.164-2.597-2.6-2.597Z" style="fill: #7615f5;"/>
        </g>
        <g>
          <path d="M566.111,35.791h21.776c1.434,0,2.598,1.164,2.598,2.598v4.532h-26.973v-4.532c0-1.434,1.164-2.598,2.598-2.598Z" style="fill: #a05cf8;"/>
          <path d="M560.624,42.922h32.75c1.434,0,2.598,1.164,2.598,2.598v4.838h-37.947v-4.838c0-1.434,1.164-2.598,2.598-2.598Z" style="fill: #a05cf8;"/>
          <rect x="563.512" y="40.985" width="26.973" height="1.936" style="fill: #7a2ec1; opacity: .5;"/>
          <rect x="558.025" y="48.125" width="37.947" height="2.233" style="fill: #7a2ec1; opacity: .5;"/>
        </g>
      </g>
      <g>
        <line x1="651.516" y1="50.358" x2="651.516" y2="50.358" style="fill: none; stroke: #fbed97; stroke-linecap: round; stroke-linejoin: round; stroke-width: 10px;"/>
        <line x1="641.66" y1="50.358" x2="498.753" y2="50.358" style="fill: none; stroke: #fbed97; stroke-dasharray: 0 9.856; stroke-linecap: round; stroke-linejoin: round; stroke-width: 10px;"/>
        <line x1="493.825" y1="50.358" x2="493.825" y2="50.358" style="fill: none; stroke: #fbed97; stroke-linecap: round; stroke-linejoin: round; stroke-width: 10px;"/>
      </g>
    </g>
    <g style="opacity: .35;">
      <g>
        <circle cx="459.873" cy="111.238" r="2.832" transform="translate(272.229 545.573) rotate(-80.232)" style="fill: #f2b052; opacity: .6;"/>
        <circle cx="448.852" cy="112.69" r="2.832" transform="translate(261.648 535.917) rotate(-80.232)" style="fill: #f2b052; opacity: .6;"/>
        <circle cx="451.055" cy="103.947" r="2.832" transform="translate(272.092 530.829) rotate(-80.232)" style="fill: #f2b052; opacity: .6;"/>
        <circle cx="425.879" cy="109.904" r="2.832" transform="translate(245.318 510.964) rotate(-80.232)" style="fill: #f2b052; opacity: .6;"/>
        <circle cx="433.785" cy="127.302" r="2.832" transform="translate(234.736 533.202) rotate(-80.232)" style="fill: #f2b052; opacity: .6;"/>
      </g>
    </g>
  </g>
</svg>