<?xml version="1.0" encoding="UTF-8"?>
<svg xmlns="http://www.w3.org/2000/svg" width="1500" height="145" xmlns:xlink="http://www.w3.org/1999/xlink" version="1.1" viewBox="0 0 1500 145">
  <!-- Generator: Adobe Illustrator 30.5.1, SVG Export Plug-In . SVG Version: 2.1.4 Build 3)  -->
  <defs>
    <clipPath id="clippath">
      <rect width="1500" height="145" style="fill: none;"/>
    </clipPath>
    <clipPath id="clippath-1">
      <path d="M855.883,101.152c12.773,0,23.123,10.088,23.123,22.531v28.33c0,12.443-10.35,22.529-23.123,22.529-4.913,0-9.891,0-14.165,0-7.467,0-14.525,3.36-19.111,9.102-2.669,3.357-5.699,7.159-8.384,10.516-4.585,5.742-11.643,9.1-19.111,9.1-15.409,0-42.479,0-59.952,0-9.187,0-16.638-7.254-16.638-16.205v-14.627c0-5.787-2.358-11.336-6.55-15.426-4.209-4.092-9.907-6.391-15.835-6.391h-2.047c-6.55,0-12.822-2.534-17.457-7.045-4.634-4.512-7.238-10.63-7.238-17.011v-1.345c0-13.285,11.054-24.058,24.695-24.058,40.858,0,121.983,0,161.793,0Z" style="clip-rule: evenodd; fill: none;"/>
    </clipPath>
    <clipPath id="clippath-2">
      <path d="M976.213,38.688h22.918s6.211,69.687,6.211,69.687c.344,3.141-2.118,5.885-5.28,5.885h-24.892c-3.167,0-5.63-2.751-5.279-5.895l6.322-69.676Z" style="fill: none;"/>
    </clipPath>
    <clipPath id="clippath-3">
      <path d="M987.615,36.629c0,8.104-3.221,15.878-8.958,21.61-5.737,5.732-13.517,8.95-21.632,8.95-15.366,0-30.766,0-30.766,0,0,0,0-9.456,0-20.203,0-8.107,3.221-15.881,8.958-21.613,5.737-5.728,13.517-8.95,21.632-8.95,15.366,0,30.766,0,30.766,0,0,0,0,9.456,0,20.207Z" style="clip-rule: evenodd; fill: none;"/>
    </clipPath>
    <clipPath id="clippath-4">
      <path d="M987.615,36.629c0,8.104,3.221,15.878,8.958,21.61,5.737,5.732,13.517,8.95,21.632,8.95,15.366,0,30.766,0,30.766,0,0,0,0-9.456,0-20.203,0-8.107-3.221-15.881-8.958-21.613-5.737-5.728-13.517-8.95-21.632-8.95-15.366,0-30.766,0-30.766,0,0,0,0,9.456,0,20.207Z" style="clip-rule: evenodd; fill: none;"/>
    </clipPath>
    <clipPath id="clippath-6">
      <path d="M987.598,67.189l18.376-13.381c10.15-7.391,11.297-22.091,2.416-30.964l-6.428-6.423h-28.729s-6.428,6.423-6.428,6.423c-8.881,8.873-7.734,23.573,2.416,30.964l18.376,13.381Z" style="clip-rule: evenodd; fill: none;"/>
    </clipPath>
    <clipPath id="clippath-7">
      <path d="M598.062,115.669h18.181s4.927,44.959,4.927,44.959c.273,2.492-1.68,4.668-4.189,4.668h-19.747c-2.512,0-4.466-2.182-4.188-4.677l5.015-44.95Z" style="fill: none;"/>
    </clipPath>
    <clipPath id="clippath-8">
      <path d="M607.107,114.035c0,6.428-2.555,12.596-7.106,17.143-4.551,4.547-10.723,7.1-17.16,7.1-12.189,0-24.406,0-24.406,0,0,0,0-7.501,0-16.027,0-6.432,2.555-12.599,7.106-17.146,4.551-4.544,10.723-7.1,17.16-7.1,12.189,0,24.406,0,24.406,0,0,0,0,7.501,0,16.03Z" style="clip-rule: evenodd; fill: none;"/>
    </clipPath>
    <clipPath id="clippath-9">
      <path d="M607.107,114.035c0,6.428,2.555,12.596,7.106,17.143,4.551,4.547,10.723,7.1,17.16,7.1,12.189,0,24.406,0,24.406,0,0,0,0-7.501,0-16.027,0-6.432-2.555-12.599-7.106-17.146-4.551-4.544-10.723-7.1-17.16-7.1-12.189,0-24.406,0-24.406,0,0,0,0,7.501,0,16.03Z" style="clip-rule: evenodd; fill: none;"/>
    </clipPath>
    <clipPath id="clippath-11">
      <path d="M607.094,138.278l14.578-10.615c8.052-5.863,8.962-17.524,1.917-24.563l-5.099-5.095h-22.79s-5.099,5.095-5.099,5.095c-7.045,7.039-6.135,18.7,1.917,24.563l14.578,10.615Z" style="clip-rule: evenodd; fill: none;"/>
    </clipPath>
    <clipPath id="clippath-12">
      <path d="M308.292,133.046h18.181s4.927,44.959,4.927,44.959c.273,2.492-1.68,4.668-4.189,4.668h-19.747c-2.512,0-4.466-2.182-4.188-4.677l5.015-44.95Z" style="fill: none;"/>
    </clipPath>
    <clipPath id="clippath-13">
      <path d="M317.337,131.412c0,6.428-2.555,12.596-7.106,17.143-4.551,4.547-10.723,7.1-17.16,7.1-12.189,0-24.406,0-24.406,0,0,0,0-7.501,0-16.027,0-6.432,2.555-12.599,7.106-17.146,4.551-4.544,10.723-7.1,17.16-7.1,12.189,0,24.406,0,24.406,0,0,0,0,7.501,0,16.03Z" style="clip-rule: evenodd; fill: none;"/>
    </clipPath>
    <clipPath id="clippath-14">
      <path d="M317.337,131.412c0,6.428,2.555,12.596,7.106,17.143,4.551,4.547,10.723,7.1,17.16,7.1,12.189,0,24.406,0,24.406,0,0,0,0-7.501,0-16.027,0-6.432-2.555-12.599-7.106-17.146-4.551-4.544-10.723-7.1-17.16-7.1-12.189,0-24.406,0-24.406,0,0,0,0,7.501,0,16.03Z" style="clip-rule: evenodd; fill: none;"/>
    </clipPath>
    <clipPath id="clippath-16">
      <path d="M317.324,155.654l14.578-10.615c8.052-5.863,8.962-17.524,1.917-24.563l-5.099-5.095h-22.79s-5.099,5.095-5.099,5.095c-7.045,7.039-6.135,18.7,1.917,24.563l14.578,10.615Z" style="clip-rule: evenodd; fill: none;"/>
    </clipPath>
    <clipPath id="clippath-18">
      <path d="M111.121,64.127c-4.731-9.919-14.748-16.236-25.744-16.236h-.002c-3.052,0-5.527,2.472-5.527,5.522v18.358l34.673-.515s-1.501-3.146-3.401-7.13Z" style="clip-rule: evenodd; fill: none;"/>
    </clipPath>
    <clipPath id="clippath-19">
      <path d="M182.554,90.872c2.549,0,4.907-1.349,6.198-3.545s1.322-4.911.082-7.136c-4.946-8.867-11.993-21.501-17.231-30.893-4.386-7.863-12.689-12.737-21.698-12.737h-18.393c-2.073,0-4.009,1.037-5.155,2.763-1.146,1.727-1.351,3.912-.546,5.82,6.459,15.307,19.296,45.727,19.296,45.727h37.447Z" style="clip-rule: evenodd; fill: none;"/>
    </clipPath>
    <clipPath id="clippath-20">
      <path d="M79.849,90.323v-19.67h117.217c20.518,0,40.444,6.879,56.585,19.537.425.333.833.653,1.223.959,2.96,2.321,4.69,5.873,4.69,9.633v2.493c0,1.993-1.42,3.704-3.38,4.073,0,0,0,0-.002,0-24.567,4.629-49.512,6.962-74.512,6.969-16.304.004-35.173.009-50.688.013-19.772.005-38.517-8.796-51.133-24.006,0,0,0,0,0,0Z" style="clip-rule: evenodd; fill: none;"/>
    </clipPath>
    <clipPath id="clippath-21">
      <rect x="169.707" y="94.285" width="15.516" height="20.052" style="fill: none;"/>
    </clipPath>
    <clipPath id="clippath-22">
      <rect x="69.542" y="67.407" width="203.931" height="32.103" style="fill: none;"/>
    </clipPath>
    <clipPath id="clippath-23">
      <path d="M248.164,78.348h-28.643c-2.219,0-4.017,1.797-4.017,4.014h0c0,1.065.423,2.086,1.177,2.838.753.753,1.775,1.176,2.84,1.176h30.612l-1.969-8.028Z" style="clip-rule: evenodd; fill: none;"/>
    </clipPath>
    <clipPath id="clippath-24">
      <path d="M185.735,81.665c0-1.832-1.486-3.317-3.32-3.317s-3.32,1.485-3.32,3.317v1.876c0,1.832,1.486,3.317,3.32,3.317,1.833,0,3.32-1.485,3.32-3.317v-1.876Z" style="clip-rule: evenodd; fill: none;"/>
    </clipPath>
    <clipPath id="clippath-25">
      <rect x="165.342" y="78.348" width="6.639" height="8.51" rx="3.317" ry="3.317" style="fill: none;"/>
    </clipPath>
    <clipPath id="clippath-26">
      <rect x="151.589" y="78.348" width="6.64" height="8.51" rx="3.317" ry="3.317" style="fill: none;"/>
    </clipPath>
    <clipPath id="clippath-27">
      <rect x="137.836" y="78.348" width="6.64" height="8.51" rx="3.317" ry="3.317" style="fill: none;"/>
    </clipPath>
    <clipPath id="clippath-28">
      <path d="M106.189,89.959c.82,0,1.578.434,1.994,1.14.415.706.425,1.58.026,2.295-.068.122-.137.246-.208.373-5.484,9.832-15.866,15.926-27.131,15.926h-.003c-1.984,0-3.839-.985-4.948-2.629-1.109-1.644-1.328-3.731-.585-5.569,2.194-5.422,4.669-11.536,4.669-11.536h26.186Z" style="clip-rule: evenodd; fill: none;"/>
    </clipPath>
    <clipPath id="clippath-29">
      <path d="M208.403,137.44c2.935,1.54,4.525,4.952,3.57,8.36-.483,1.725-1.675,3.162-3.176,4.142-6.989,4.564-16.217,10.589-23.549,15.375-7.543,4.924-17.161,5.381-25.138,1.195l-16.274-8.539c-1.106-.58-2.079-1.432-2.674-2.529-1.473-2.717-.765-5.89,1.411-7.733,8.759-7.416,23.371-19.788,29.654-25.107,1.831-1.55,4.414-1.829,6.538-.714l29.637,15.551Z" style="clip-rule: evenodd; fill: none;"/>
    </clipPath>
    <clipPath id="clippath-30">
      <path d="M76.586,109.042h18.181s4.927,44.959,4.927,44.959c.273,2.492-1.68,4.668-4.189,4.668h-19.747c-2.512,0-4.466-2.182-4.188-4.677l5.015-44.95Z" style="fill: none;"/>
    </clipPath>
    <clipPath id="clippath-31">
      <path d="M85.632,107.408c0,6.428-2.555,12.596-7.106,17.143-4.551,4.547-10.723,7.1-17.16,7.1-12.189,0-24.406,0-24.406,0,0,0,0-7.501,0-16.027,0-6.432,2.555-12.599,7.106-17.146,4.551-4.544,10.723-7.1,17.16-7.1,12.189,0,24.406,0,24.406,0,0,0,0,7.501,0,16.03Z" style="clip-rule: evenodd; fill: none;"/>
    </clipPath>
    <clipPath id="clippath-32">
      <path d="M85.632,107.408c0,6.428,2.555,12.596,7.106,17.143,4.551,4.547,10.723,7.1,17.16,7.1,12.189,0,24.406,0,24.406,0,0,0,0-7.501,0-16.027,0-6.432-2.555-12.599-7.106-17.146-4.551-4.544-10.723-7.1-17.16-7.1-12.189,0-24.406,0-24.406,0,0,0,0,7.501,0,16.03Z" style="clip-rule: evenodd; fill: none;"/>
    </clipPath>
    <clipPath id="clippath-34">
      <path d="M85.618,131.65l14.578-10.615c8.052-5.863,8.962-17.524,1.917-24.563l-5.099-5.095h-22.79s-5.099,5.095-5.099,5.095c-7.045,7.039-6.135,18.7,1.917,24.563l14.578,10.615Z" style="clip-rule: evenodd; fill: none;"/>
    </clipPath>
    <clipPath id="clippath-35">
      <path d="M152.358,497.439c-1.779,0-3.476-.747-4.677-2.059-1.201-1.312-1.795-3.067-1.637-4.838,3.407-38.159,19.938-223.283,23.823-266.785.465-5.207,4.828-9.165,10.06-9.165h21.874c5.254,0,9.632,4.024,10.068,9.256l4.279,51.31h15.559c2.848,0,5.445,1.596,6.719,4.141,2.146,4.288,5.408,10.807,7.035,14.058.657,1.312,1.038,2.745,1.119,4.21.774,13.926,4.928,88.628,4.928,88.628,0,0,17.113,4.885,27.528,7.858,4.64,1.324,7.831,5.559,7.831,10.38v86.672c0,1.68-.668,3.291-1.857,4.478-1.189,1.188-2.801,1.855-4.482,1.855-13.722,0-117.739,0-128.171,0Z" style="clip-rule: evenodd; fill: none;"/>
    </clipPath>
  </defs>
  <g style="isolation: isolate;">
    <g id="Details">
      <g style="clip-path: url(#clippath);">
        <rect x="-10.125" y="-986.796" width="1520.249" height="1054.04" style="fill: #04d5d8;"/>
        <rect x="-10.125" y="11.502" width="1520.249" height="3053.416" style="fill: #61d1d5;"/>
        <path d="M1209.742-293.582c-76.136,0-138.076,61.941-138.076,138.077,0,9.374-7.626,17-17,17h-106.263c-9.374,0-17-7.626-17-17v-2.009c0-36.943-30.057-67-67-67h-75.775c-41.992,0-76.156-34.163-76.156-76.156v-85.988c0-34.188-27.813-62-62-62h-144.932c-34.187,0-62,27.812-62,62v1.583c0,6.616-5.383,12-12,12h-77.199c-41.355,0-75,33.645-75,75v1.615c0,6.616-5.383,12-12,12H-56.875v1900.227h125.29c19.299,0,35,15.701,35,35v28.562c0,46.869,38.131,85,85,85h282.678c46.869,0,85-38.131,85-85v-4.012c0-19.299,15.701-35,35-35h100.898c106.145,0,192.5-86.354,192.5-192.5,0-13.785,11.215-25,25-25h189.302c13.785,0,25,11.215,25,25v6.941c0,13.785-11.215,25-25,25h-1.646c-41.355,0-75,33.646-75,75.001v134.569c0,41.355,33.645,75,75,75h68.108c41.355,0,75-33.645,75-75,0-34.095,27.737-61.833,61.832-61.833h254.837V-293.582h-347.181Z" style="fill: #7ee6e4;"/>
        <path d="M1045.191,281.028h0c0-51.28,41.571-92.851,92.85-92.851h57.665c32.387,0,58.642-26.255,58.642-58.642h0c0-32.387,26.255-58.642,58.642-58.642h218.932v-339.474h-322.181c-62.45,0-113.076,50.626-113.076,113.076h0c0,23.196-18.804,42-42,42h-106.262c-23.196,0-42-18.804-42-42v-2.009c0-23.196-18.804-42-42-42h-75.776c-55.867,0-101.156-45.289-101.156-101.156v-85.988c0-20.435-16.565-37-37-37h-144.932c-20.435,0-37,16.565-37,37v1.583c0,20.435-16.565,37-37,37h-77.199c-27.614,0-50,22.386-50,50v1.615c0,20.435-16.565,37-37,37H-31.875v1850.227h100.289c33.137,0,60,26.863,60,60v28.561c0,33.137,26.863,60,60,60h282.678c33.137,0,60-26.863,60-60v-4.011c0-33.137,26.863-60,60-60h100.898c92.508,0,167.5-74.992,167.5-167.5h0c0-27.614,22.386-50,50-50h189.302c27.614,0,50,22.386,50,50v6.942c0,27.614-22.386,50-50,50h-1.647c-27.614,0-50,22.386-50,50v134.57c0,27.614,22.386,50,50,50h68.108c27.614,0,50-22.386,50-50h0c0-47.956,38.876-86.832,86.832-86.832h229.837v-328.037c0-39.064-31.668-70.732-70.732-70.732h-323.15c-50.932,0-92.285-41.008-92.845-91.807-.004-.347-.006-830.544-.006-830.892Z" style="fill: #fbed97;"/>
        <g>
          <path d="M1209.742-208.581c-29.313,0-53.076,23.763-53.076,53.076h0c0,56.333-45.667,102-102,102h-353.588c-40.652,0-73.606-32.955-73.606-73.606v-210.547c0-14.359-11.641-26-26-26h-56.442c-10.394,0-19.895,6.146-23.89,15.742-14.612,35.099-49.272,59.841-89.6,59.841h-46.653c-11.17,0-21.157,7.295-24.204,18.042-11.534,40.685-49.013,70.574-93.342,70.574H-1.979l-11.374,1742.34,115.314-.491c49.895,14.55,86.454,60.7,86.454,115.229v.695c.001,13.259,10.754,24.004,24.013,23.997l236.679-.131c11.698-.007,21.708-8.443,23.64-19.98,9.508-56.77,58.875-100.032,118.346-100.032h100.898c59.37,0,107.5-48.129,107.5-107.5h0c0-60.752,49.249-110,110-110h189.003c21.384,0,38.798-17.186,39.08-38.568h0c.246-18.686-12.768-34.942-31.062-38.758-28.801-6.009-55.263-20.244-76.552-41.532-28.243-28.244-44.073-65.595-44.746-105.431-.015-.883-.022-838.466-.022-839.351,0-40.828,15.899-79.212,44.769-108.081,28.87-28.869,67.254-44.769,108.082-44.769h28.622c14.589,0,27.327-10.069,30.48-24.313,11.76-53.123,59.237-92.972,115.846-92.972h312.76v-219.474h-416.008Z" style="fill: #62c244;"/>
          <g>
            <line x1="-2.045" y1="-189.447" x2="-13.321" y2="1537.874" style="fill: none; stroke: #62c244; stroke-dasharray: 0 10.014; stroke-linecap: round; stroke-linejoin: round; stroke-width: 10px;"/>
            <path d="M-3.347,1542.838l105.307-.449c49.895,14.55,86.454,60.7,86.454,115.229v.695c.001,13.259,10.754,24.004,24.013,23.997l236.679-.131c11.698-.007,21.708-8.443,23.64-19.98,9.508-56.77,58.875-100.032,118.346-100.032h100.898c59.37,0,107.5-48.129,107.5-107.5h0c0-60.751,49.249-110,110-110h189.003c21.384,0,38.798-17.186,39.08-38.568.246-18.686-12.768-34.942-31.062-38.758-28.801-6.009-55.263-20.244-76.552-41.532-28.243-28.244-44.073-65.594-44.746-105.431-.015-.882-.022-838.466-.022-839.351,0-40.828,15.899-79.212,44.769-108.081,28.87-28.869,67.254-44.769,108.082-44.769h28.623c14.589,0,27.327-10.069,30.48-24.313,11.76-53.123,59.237-92.972,115.846-92.972h307.757" style="fill: none; stroke: #62c244; stroke-dasharray: 0 10.007; stroke-linecap: round; stroke-linejoin: round; stroke-width: 10px;"/>
          </g>
        </g>
        <g>
          <path d="M914.223,121.781v250.57c0,30.12-24.417,54.537-54.537,54.537h-80.08c-29.292,0-53.038,23.746-53.038,53.038v153.905c0,29.292-23.746,53.038-53.038,53.038h-183.486c-37.785,0-68.416,30.631-68.416,68.416h0c0,37.785-30.631,68.416-68.416,68.416h-33.231c-37.785,0-68.416-30.631-68.416-68.416v-84.054c0-37.785-30.631-68.416-68.416-68.416H5.265c-15.114,0-27.366-12.252-27.366-27.366V-137.962h290.764c35.899,0,65,29.101,65,65v20.473c0,35.899,29.101,65,65,65h257.533c15.114,0,27.366,12.252,27.366,27.366h0c0,15.114,12.252,27.366,27.366,27.366h148.757c30.12,0,54.537,24.417,54.537,54.537Z" style="fill: #52ab35;"/>
          <path d="M-12.116-137.962h280.778c35.898,0,65,29.101,65,65v20.473c0,35.898,29.101,65,65,65h257.533c15.114,0,27.366,12.252,27.366,27.366s12.252,27.366,27.366,27.366h148.757c30.12,0,54.537,24.417,54.537,54.537v250.57c0,30.12-24.417,54.537-54.537,54.537h-80.08c-29.292,0-53.038,23.746-53.038,53.038v153.905c0,29.292-23.746,53.038-53.038,53.038h-183.486c-37.785,0-68.416,30.631-68.416,68.416s-30.631,68.416-68.416,68.416h-33.231c-37.785,0-68.416-30.631-68.416-68.416v-84.054c0-37.785-30.631-68.416-68.416-68.416H5.265c-15.114,0-27.366-12.252-27.366-27.366V-132.969" style="fill: none; stroke: #52ab35; stroke-dasharray: 0 9.986; stroke-linecap: round; stroke-linejoin: round; stroke-width: 10px;"/>
        </g>
        <g>
          <g style="clip-path: url(#clippath-1);">
            <path d="M855.883,101.152c12.773,0,23.123,10.088,23.123,22.531v28.33c0,12.443-10.35,22.529-23.123,22.529-4.913,0-9.891,0-14.165,0-7.467,0-14.525,3.36-19.111,9.102-2.669,3.357-5.699,7.159-8.384,10.516-4.585,5.742-11.643,9.1-19.111,9.1-15.409,0-42.479,0-59.952,0-9.187,0-16.638-7.254-16.638-16.205v-14.627c0-5.787-2.358-11.336-6.55-15.426-4.209-4.092-9.907-6.391-15.835-6.391h-2.047c-6.55,0-12.822-2.534-17.457-7.045-4.634-4.512-7.238-10.63-7.238-17.011v-1.345c0-13.285,11.054-24.058,24.695-24.058,40.858,0,121.983,0,161.793,0Z" style="fill: #5fcdc5; fill-rule: evenodd;"/>
            <path d="M855.883,109.45c12.773,0,23.123,10.088,23.123,22.531v28.33c0,12.443-10.35,22.529-23.123,22.529-4.913,0-9.891,0-14.165,0-7.467,0-14.525,3.36-19.111,9.102-2.669,3.357-5.699,7.159-8.384,10.516-4.585,5.742-11.643,9.1-19.111,9.1-15.409,0-42.479,0-59.952,0-9.187,0-16.638-7.254-16.638-16.205v-14.627c0-5.787-2.358-11.336-6.55-15.426-4.209-4.092-9.907-6.391-15.835-6.391h-2.047c-6.55,0-12.822-2.534-17.457-7.045-4.634-4.512-7.238-10.63-7.238-17.011v-1.345c0-13.285,11.054-24.058,24.695-24.058,40.858,0,121.983,0,161.793,0Z" style="fill: #69e3de; fill-rule: evenodd;"/>
          </g>
          <line x1="861.304" y1="134.952" x2="850.004" y2="134.952" style="fill: none; mix-blend-mode: overlay; stroke: #fff; stroke-linecap: round; stroke-linejoin: round; stroke-width: 3.233px;"/>
          <line x1="825.768" y1="134.952" x2="839.016" y2="134.952" style="fill: none; mix-blend-mode: overlay; stroke: #fff; stroke-linecap: round; stroke-linejoin: round; stroke-width: 3.233px;"/>
          <line x1="845.092" y1="120.96" x2="849.775" y2="120.96" style="fill: none; mix-blend-mode: overlay; stroke: #fff; stroke-linecap: round; stroke-linejoin: round; stroke-width: 3.233px;"/>
        </g>
        <g style="opacity: .331;">
          <path d="M1118.245,72.035c-1.232,0-2.231-1-2.231-2.236v-7.001c0-1.236.999-2.236,2.231-2.236s2.231,1,2.231,2.236v7.001c0,1.236-.999,2.236-2.231,2.236Z" style="fill: #00703a;"/>
          <path d="M1127.559,72.035c-1.232,0-2.231-1-2.231-2.236v-4.667c0-1.236.999-2.236,2.231-2.236s2.231,1,2.231,2.236v4.667c0,1.236-.999,2.236-2.231,2.236Z" style="fill: #00703a;"/>
          <path d="M1109.707,72.035c-1.232,0-2.231-1-2.231-2.236v-4.667c0-1.236.999-2.236,2.231-2.236s2.231,1,2.231,2.236v4.667c0,1.236-.999,2.236-2.231,2.236Z" style="fill: #00703a;"/>
          <path d="M1143.376,90.514c-1.232,0-2.231-1-2.231-2.236v-7.001c0-1.236.999-2.236,2.231-2.236,1.232,0,2.231,1,2.231,2.236v7.001c0,1.236-.999,2.236-2.231,2.236Z" style="fill: #00703a;"/>
          <path d="M1152.69,90.514c-1.232,0-2.231-1-2.231-2.236v-4.669c0-1.236.999-2.236,2.231-2.236,1.232,0,2.231,1,2.231,2.236v4.669c0,1.236-.999,2.236-2.231,2.236Z" style="fill: #00703a;"/>
          <path d="M1134.839,90.514c-1.232,0-2.231-1-2.231-2.236v-4.669c0-1.236.999-2.236,2.231-2.236s2.231,1,2.231,2.236v4.669c0,1.236-.999,2.236-2.231,2.236Z" style="fill: #00703a;"/>
          <path d="M1152.009,51.808c-1.232,0-2.231-1-2.231-2.236v-7.001c0-1.236.999-2.236,2.231-2.236,1.232,0,2.231,1,2.231,2.236v7.001c0,1.236-.999,2.236-2.231,2.236Z" style="fill: #00703a;"/>
          <path d="M1161.324,51.808c-1.232,0-2.231-1-2.231-2.236v-4.669c0-1.236.999-2.236,2.231-2.236s2.231,1,2.231,2.236v4.669c0,1.236-.999,2.236-2.231,2.236Z" style="fill: #00703a;"/>
          <path d="M1143.472,51.808c-1.232,0-2.231-1-2.231-2.236v-4.669c0-1.236.999-2.236,2.231-2.236s2.231,1,2.231,2.236v4.669c0,1.236-.999,2.236-2.231,2.236Z" style="fill: #00703a;"/>
        </g>
        <g>
          <g>
            <g>
              <path d="M976.213,38.688h22.918s6.211,69.687,6.211,69.687c.344,3.141-2.118,5.885-5.28,5.885h-24.892c-3.167,0-5.63-2.751-5.279-5.895l6.322-69.676Z" style="fill: #6a4c46;"/>
              <g style="clip-path: url(#clippath-2);">
                <path d="M987.598,79.656l18.735-13.642c10.348-7.535,11.518-22.522,2.464-31.569l-6.554-6.548h-29.29s-6.554,6.548-6.554,6.548c-9.054,9.047-7.885,24.034,2.464,31.569l18.735,13.642Z" style="fill: #594238; fill-rule: evenodd;"/>
              </g>
            </g>
            <g>
              <g>
                <path d="M987.615,36.629c0,8.104-3.221,15.878-8.958,21.61-5.737,5.732-13.517,8.95-21.632,8.95-15.366,0-30.766,0-30.766,0,0,0,0-9.456,0-20.203,0-8.107,3.221-15.881,8.958-21.613,5.737-5.728,13.517-8.95,21.632-8.95,15.366,0,30.766,0,30.766,0,0,0,0,9.456,0,20.207Z" style="fill: #abbe3c; fill-rule: evenodd;"/>
                <g style="clip-path: url(#clippath-3);">
                  <polygon points="987.615 16.421 919.146 74.943 987.615 74.943 987.615 16.421" style="fill: #839c2f; fill-rule: evenodd;"/>
                  <rect x="917.35" y="37.61" width="79.175" height="7.664" transform="translate(189.557 614.655) rotate(-39.239)" style="fill: #bdce42;"/>
                  <path d="M951.825,70.499h7.669s0-7.954,0-12.889c0-2.115-1.718-3.831-3.835-3.831-2.117,0-3.835,1.716-3.835,3.831,0,4.935,0,12.889,0,12.889Z" style="fill: #4e7b3f; fill-rule: evenodd; opacity: .5;"/>
                  <path d="M967.163,71.066h7.669s0-17.498,0-25.433c0-2.115-1.714-3.828-3.831-3.828h-.008c-2.117,0-3.831,1.713-3.831,3.828,0,7.935,0,25.433,0,25.433Z" style="fill: #4e7b3f; fill-rule: evenodd; opacity: .5;"/>
                  <path d="M926.26,45.709v-7.257s7.171,0,11.707,0c.963,0,1.887.383,2.569,1.065.679.678,1.062,1.602,1.062,2.563h0c0,.966-.383,1.885-1.062,2.567-.683.682-1.607,1.061-2.569,1.061-4.536,0-11.707,0-11.707,0Z" style="fill: #839c2f; fill-rule: evenodd; opacity: .75;"/>
                  <path d="M926.26,30.789v-7.663s15.596,0,23.012,0c2.117,0,3.831,1.713,3.831,3.828v.008c0,2.115-1.714,3.828-3.831,3.828-7.416,0-23.012,0-23.012,0Z" style="fill: #839c2f; fill-rule: evenodd; opacity: .75;"/>
                </g>
              </g>
              <g>
                <path d="M987.615,36.629c0,8.104,3.221,15.878,8.958,21.61,5.737,5.732,13.517,8.95,21.632,8.95,15.366,0,30.766,0,30.766,0,0,0,0-9.456,0-20.203,0-8.107-3.221-15.881-8.958-21.613-5.737-5.728-13.517-8.95-21.632-8.95-15.366,0-30.766,0-30.766,0,0,0,0,9.456,0,20.207Z" style="fill: #abbe3c; fill-rule: evenodd;"/>
                <g style="clip-path: url(#clippath-4);">
                  <polygon points="987.615 16.421 1056.084 74.943 987.615 74.943 987.615 16.421" style="fill: #839c2f; fill-rule: evenodd;"/>
                  <rect x="1014.461" y="1.855" width="7.664" height="79.175" transform="translate(342.596 804.378) rotate(-50.801)" style="fill: #bdce42;"/>
                  <path d="M1023.406,70.499h-7.669s0-7.954,0-12.889c0-2.115,1.718-3.831,3.835-3.831s3.835,1.716,3.835,3.831c0,4.935,0,12.889,0,12.889Z" style="fill: #4e7b3f; fill-rule: evenodd; opacity: .5;"/>
                  <path d="M1008.067,71.066h-7.669s0-17.495,0-25.43c0-1.015.403-1.989,1.124-2.709.717-.716,1.695-1.123,2.711-1.123,1.016,0,1.994.406,2.711,1.123.721.72,1.124,1.694,1.124,2.709,0,7.935,0,25.43,0,25.43Z" style="fill: #4e7b3f; fill-rule: evenodd; opacity: .5;"/>
                  <path d="M1048.971,46.115v-7.663s-6.964,0-11.508,0c-1.016,0-1.99.402-2.707,1.123-.721.716-1.124,1.69-1.124,2.705v.008c0,1.015.403,1.989,1.124,2.709.717.716,1.691,1.119,2.707,1.119,4.544,0,11.508,0,11.508,0Z" style="fill: #839c2f; fill-rule: evenodd; opacity: .75;"/>
                  <path d="M1048.971,30.789v-7.663s-15.592,0-23.008,0c-1.016,0-1.994.406-2.711,1.123-.721.72-1.124,1.694-1.124,2.709,0,1.015.403,1.992,1.124,2.709.717.72,1.695,1.123,2.711,1.123,7.416,0,23.008,0,23.008,0Z" style="fill: #839c2f; fill-rule: evenodd; opacity: .75;"/>
                </g>
              </g>
              <g>
                <path d="M987.598,67.189l18.376-13.381c10.15-7.391,11.297-22.091,2.416-30.964l-6.428-6.423h-28.729s-6.428,6.423-6.428,6.423c-8.881,8.873-7.734,23.573,2.416,30.964l18.376,13.381Z" style="fill: #bdce42; fill-rule: evenodd;"/>
                <g style="clip-path: url(#clippath-6);">
                  <rect x="958.607" y="14.096" width="28.992" height="54.98" transform="translate(1946.2049 83.1711) rotate(-180)" style="fill: #839c2f;"/>
                  <rect x="983.779" y="10.887" width="7.669" height="66.829" style="fill: #d6e14c;"/>
                  <g>
                    <g style="opacity: .5;">
                      <path d="M1014.806,44.415c1.248,0,2.477-.609,3.211-1.729,1.163-1.771.669-4.146-1.103-5.306l-15.589-10.217c-1.773-1.167-4.149-.664-5.308,1.1-1.163,1.771-.669,4.146,1.103,5.306l15.589,10.217c.649.427,1.378.629,2.097.629Z" style="fill: #839c2f;"/>
                    </g>
                    <g style="opacity: .5;">
                      <path d="M960.426,44.415c.719,0,1.448-.202,2.097-.629l15.584-10.217c1.773-1.16,2.267-3.535,1.103-5.306-1.158-1.764-3.52-2.27-5.308-1.1l-15.584,10.217c-1.773,1.16-2.267,3.535-1.103,5.306.734,1.12,1.962,1.729,3.211,1.729Z" style="fill: #4e7b3f;"/>
                    </g>
                    <path d="M1014.806,61.886c1.248,0,2.477-.609,3.211-1.729,1.163-1.771.669-4.146-1.103-5.306l-15.589-10.217c-1.773-1.167-4.149-.664-5.308,1.1-1.163,1.771-.669,4.146,1.103,5.306l15.589,10.217c.649.427,1.378.629,2.097.629Z" style="fill: #839c2f; opacity: .5;"/>
                    <g style="opacity: .5;">
                      <path d="M960.426,61.886c.719,0,1.448-.202,2.097-.629l15.584-10.217c1.773-1.16,2.267-3.535,1.103-5.306-1.158-1.764-3.52-2.27-5.308-1.1l-15.584,10.217c-1.773,1.16-2.267,3.535-1.103,5.306.734,1.12,1.962,1.729,3.211,1.729Z" style="fill: #4e7b3f;"/>
                    </g>
                  </g>
                </g>
              </g>
            </g>
          </g>
          <line x1="956.462" y1="114.26" x2="1018.77" y2="113.58" style="fill: #62c244; stroke: #62c244; stroke-dasharray: 0 10; stroke-linecap: round; stroke-linejoin: round; stroke-width: 10px;"/>
        </g>
        <g>
          <path d="M630.434,44.731c0-.822-.326-1.608-.906-2.188-.582-.582-1.369-.908-2.19-.908s-1.608.326-2.19.908c-.58.58-.906,1.367-.906,2.188v2.064c0,2.851,2.31,5.161,5.161,5.161h1.032v-7.226Z" style="fill: #d9df50; fill-rule: evenodd; stroke: #d9df50; stroke-miterlimit: 10; stroke-width: .31px;"/>
          <path d="M642.821,36.473c0-.822-.326-1.608-.906-2.188-.582-.582-1.369-.908-2.19-.908s-1.608.326-2.19.908c-.58.58-.906,1.367-.906,2.188v15.484h6.193v-15.484Z" style="fill: #d9df50; fill-rule: evenodd; stroke: #d9df50; stroke-miterlimit: 10; stroke-width: .31px;"/>
          <path d="M649.015,40.602c0-.822-.326-1.608-.906-2.188-.582-.582-1.369-.908-2.19-.908s-1.608.326-2.19.908c-.58.58-.906,1.367-.906,2.188v11.355h6.193v-11.355Z" style="fill: #d9df50; fill-rule: evenodd; stroke: #d9df50; stroke-miterlimit: 10; stroke-width: .31px;"/>
          <path d="M636.628,40.602c0-.822-.326-1.608-.906-2.188-.582-.582-1.369-.908-2.19-.908s-1.608.326-2.19.908c-.58.58-.906,1.367-.906,2.188v11.355h6.193v-11.355Z" style="fill: #d9df50; fill-rule: evenodd; stroke: #d9df50; stroke-miterlimit: 10; stroke-width: .31px;"/>
          <path d="M655.208,44.731c0-.822-.326-1.608-.906-2.188-.582-.582-1.369-.908-2.19-.908s-1.608.326-2.19.908c-.58.58-.906,1.367-.906,2.188v7.226h1.032c2.851,0,5.161-2.31,5.161-5.161v-2.064Z" style="fill: #d9df50; fill-rule: evenodd; stroke: #d9df50; stroke-miterlimit: 10; stroke-width: .31px;"/>
        </g>
        <g style="opacity: .35;">
          <g>
            <circle cx="1225.944" cy="123.668" r="2.829" transform="translate(90.254 601.623) rotate(-28.584)" style="fill: #f2b052; opacity: .6;"/>
            <circle cx="1218.202" cy="131.644" r="2.829" transform="translate(85.494 598.891) rotate(-28.584)" style="fill: #f2b052; opacity: .6;"/>
            <circle cx="1214.505" cy="123.422" r="2.829" transform="translate(88.978 596.12) rotate(-28.584)" style="fill: #f2b052; opacity: .6;"/>
            <circle cx="1198.458" cy="143.714" r="2.829" transform="translate(77.313 590.915) rotate(-28.584)" style="fill: #f2b052; opacity: .6;"/>
          </g>
        </g>
        <g>
          <rect x="713.977" y="-21.087" width="97.769" height="47.926" style="fill: #ce6062;"/>
          <rect x="759.986" width="7.668" height="7.668" style="fill: #63ceec;"/>
          <rect x="759.986" width="7.668" height="5.751" style="fill: #53afa9;"/>
          <rect x="750.4" y="15.336" width="7.668" height="7.668" style="fill: #e0908e;"/>
          <rect x="750.4" y="15.336" width="7.668" height="3.834" style="fill: #f3b3b5;"/>
          <path d="M790.194-4.352c.362-.363.566-.857.564-1.371-.002-.514-.211-1.006-.577-1.366,0,0,0,0-.002-.001-.773-.759-2.013-.753-2.778.013-2.598,2.597-8.176,8.174-10.768,10.768-.366.366-.571.862-.571,1.379s.205,1.013.571,1.379c0,0,0,.001.002.002.761.761,1.996.761,2.757,0,2.601-2.601,8.203-8.204,10.803-10.802Z" style="fill: #dccf47; fill-rule: evenodd;"/>
          <g>
            <path d="M795.392,2.876c-2.048,0-3.799-1.463-4.155-3.48-.369-2.09-.842-4.775-1.246-7.064h-2.594c-.36,0-.7.159-.932.434-.23.275-.328.638-.264.992.671,3.805,2.454,13.91,2.454,13.91h9.671s-.376-2.128-.846-4.793h-2.088Z" style="fill: #22316e;"/>
            <path d="M795.385,2.876h2.096c-.363-2.059-.783-4.439-1.132-6.417-.422-2.392-2.499-4.127-4.928-4.127h-1.429c.404,2.29.878,4.978,1.247,7.069.355,2.013,2.103,3.475,4.147,3.475Z" style="fill: #f6e658;"/>
          </g>
          <rect x="786.951" y="7.668" width="11.376" height="3.834" style="fill: #22316e;"/>
          <path d="M786.951,7.668h-3.838c-2.116,0-3.83,1.715-3.83,3.83v.004c0,2.118,1.716,3.834,3.834,3.834h3.834v-7.668Z" style="fill: #f6e658; fill-rule: evenodd;"/>
          <rect x="785.034" y="11.502" width="13.419" height="3.834" style="fill: #f6e658;"/>
          <path d="M802.243,19.17h-.002c-2.091,0-3.788-1.696-3.788-3.788v-3.88h3.79v7.668Z" style="fill: #102120; fill-rule: evenodd;"/>
          <path d="M790.261-4.352c.364-.363.567-.857.566-1.371-.004-.514-.211-1.006-.577-1.366-.002,0-.002,0-.002-.001-.773-.759-2.013-.753-2.78.013-2.598,2.597-8.174,8.174-10.768,10.768-.366.366-.571.862-.571,1.379s.205,1.013.571,1.379c0,0,.002.001.002.002.761.761,1.996.761,2.757,0,2.601-2.601,8.205-8.204,10.803-10.802Z" style="fill: #f6e658; fill-rule: evenodd;"/>
          <path d="M738.898-6.453c0-.322-.128-.631-.357-.859-.226-.228-.537-.356-.859-.356h-6.175c-.606,0-1.185.24-1.612.668-.429.428-.669,1.008-.669,1.613V7.668h9.671V-6.453Z" style="fill: #fff; fill-rule: evenodd;"/>
          <rect x="729.309" y="7.668" width="11.545" height="3.834" style="fill: #346470;"/>
          <path d="M740.773,7.668h3.838c2.114,0,3.828,1.715,3.83,3.83v.004c0,2.118-1.718,3.834-3.834,3.834h-3.834v-7.668Z" style="fill: #4ba2da; fill-rule: evenodd;"/>
          <rect x="729.271" y="11.502" width="13.419" height="3.834" style="fill: #4ba2da;"/>
          <path d="M725.479,19.17h.004c2.091,0,3.788-1.696,3.788-3.788v-3.88h-3.792v7.668Z" style="fill: #102120; fill-rule: evenodd;"/>
          <path d="M731.161-5.708c0-.519.207-1.016.575-1.382.368-.366.866-.569,1.386-.566h.002c1.074.007,1.94.88,1.94,1.953V3.801c0,1.077-.872,1.95-1.95,1.95h-.004c-.516,0-1.012-.206-1.378-.571-.364-.366-.571-.862-.571-1.379V-5.708Z" style="fill: #4ba2da; fill-rule: evenodd;"/>
          <path d="M733.122,5.751c-.52,0-1.016-.207-1.382-.575-.364-.368-.569-.867-.566-1.385h0c.008-1.075.88-1.942,1.953-1.942h9.503c1.077,0,1.95.873,1.95,1.95v.003c0,.517-.205,1.013-.569,1.379-.366.366-.863.571-1.38.571h-9.509Z" style="fill: #4ba2da; fill-rule: evenodd;"/>
        </g>
        <g>
          <g>
            <g>
              <path d="M598.062,115.669h18.181s4.927,44.959,4.927,44.959c.273,2.492-1.68,4.668-4.189,4.668h-19.747c-2.512,0-4.466-2.182-4.188-4.677l5.015-44.95Z" style="fill: #6b4c46;"/>
              <g style="clip-path: url(#clippath-7);">
                <path d="M607.094,148.168l14.862-10.822c8.209-5.977,9.137-17.867,1.954-25.043l-5.199-5.195h-23.236s-5.199,5.195-5.199,5.195c-7.183,7.177-6.255,19.066,1.954,25.043l14.862,10.822Z" style="fill: #594237; fill-rule: evenodd;"/>
              </g>
            </g>
            <g>
              <g>
                <path d="M607.107,114.035c0,6.428-2.555,12.596-7.106,17.143-4.551,4.547-10.723,7.1-17.16,7.1-12.189,0-24.406,0-24.406,0,0,0,0-7.501,0-16.027,0-6.432,2.555-12.599,7.106-17.146,4.551-4.544,10.723-7.1,17.16-7.1,12.189,0,24.406,0,24.406,0,0,0,0,7.501,0,16.03Z" style="fill: #abc02e; fill-rule: evenodd;"/>
                <g style="clip-path: url(#clippath-8);">
                  <polygon points="607.107 98.005 552.792 144.43 607.107 144.43 607.107 98.005" style="fill: #839d24; fill-rule: evenodd;"/>
                  <rect x="551.367" y="114.814" width="62.808" height="6.08" transform="translate(56.855 395.205) rotate(-39.239)" style="fill: #bdd033;"/>
                  <path d="M578.715,140.904h6.084s0-6.31,0-10.225c0-1.678-1.363-3.039-3.042-3.039-1.679,0-3.042,1.362-3.042,3.039,0,3.915,0,10.225,0,10.225Z" style="fill: #4d7c3d; fill-rule: evenodd; opacity: .5;"/>
                  <path d="M590.883,141.354h6.084s0-13.881,0-20.176c0-1.678-1.36-3.036-3.039-3.036h-.006c-1.679,0-3.039,1.359-3.039,3.036,0,6.295,0,20.176,0,20.176Z" style="fill: #4d7c3d; fill-rule: evenodd; opacity: .5;"/>
                  <path d="M558.435,121.239v-5.757s5.689,0,9.287,0c.764,0,1.497.304,2.038.845.538.538.843,1.27.843,2.033h0c0,.766-.304,1.495-.843,2.036-.542.541-1.275.842-2.038.842-3.599,0-9.287,0-9.287,0Z" style="fill: #839d24; fill-rule: evenodd; opacity: .75;"/>
                  <path d="M558.435,109.403v-6.079s12.372,0,18.255,0c1.679,0,3.039,1.359,3.039,3.036v.006c0,1.678-1.36,3.036-3.039,3.036-5.883,0-18.255,0-18.255,0Z" style="fill: #839d24; fill-rule: evenodd; opacity: .75;"/>
                </g>
              </g>
              <g>
                <path d="M607.107,114.035c0,6.428,2.555,12.596,7.106,17.143,4.551,4.547,10.723,7.1,17.16,7.1,12.189,0,24.406,0,24.406,0,0,0,0-7.501,0-16.027,0-6.432-2.555-12.599-7.106-17.146-4.551-4.544-10.723-7.1-17.16-7.1-12.189,0-24.406,0-24.406,0,0,0,0,7.501,0,16.03Z" style="fill: #abc02e; fill-rule: evenodd;"/>
                <g style="clip-path: url(#clippath-9);">
                  <polygon points="607.107 98.005 661.423 144.43 607.107 144.43 607.107 98.005" style="fill: #839d24; fill-rule: evenodd;"/>
                  <rect x="628.404" y="86.449" width="6.08" height="62.808" transform="translate(141.028 532.706) rotate(-50.801)" style="fill: #bdd033;"/>
                  <path d="M635.5,140.904h-6.084s0-6.31,0-10.225c0-1.678,1.363-3.039,3.042-3.039,1.679,0,3.042,1.362,3.042,3.039,0,3.915,0,10.225,0,10.225Z" style="fill: #4d7c3d; fill-rule: evenodd; opacity: .5;"/>
                  <path d="M623.332,141.354h-6.084s0-13.878,0-20.173c0-.805.319-1.577.891-2.149.569-.568,1.345-.891,2.151-.891s1.582.322,2.151.891c.572.571.891,1.343.891,2.149,0,6.295,0,20.173,0,20.173Z" style="fill: #4d7c3d; fill-rule: evenodd; opacity: .5;"/>
                  <path d="M655.78,121.561v-6.079s-5.524,0-9.129,0c-.806,0-1.579.319-2.148.891-.572.568-.891,1.34-.891,2.146v.006c0,.805.319,1.577.891,2.149.569.568,1.342.888,2.148.888,3.605,0,9.129,0,9.129,0Z" style="fill: #839d24; fill-rule: evenodd; opacity: .75;"/>
                  <path d="M655.78,109.403v-6.079s-12.369,0-18.252,0c-.806,0-1.582.322-2.151.891-.572.571-.891,1.343-.891,2.149,0,.805.319,1.581.891,2.149.569.571,1.345.891,2.151.891,5.883,0,18.252,0,18.252,0Z" style="fill: #839d24; fill-rule: evenodd; opacity: .75;"/>
                </g>
              </g>
              <g>
                <path d="M607.094,138.278l14.578-10.615c8.052-5.863,8.962-17.524,1.917-24.563l-5.099-5.095h-22.79s-5.099,5.095-5.099,5.095c-7.045,7.039-6.135,18.7,1.917,24.563l14.578,10.615Z" style="fill: #bdd033; fill-rule: evenodd;"/>
                <g style="clip-path: url(#clippath-11);">
                  <rect x="584.095" y="96.16" width="22.999" height="43.615" transform="translate(1191.1892 235.9349) rotate(-180)" style="fill: #839d24;"/>
                  <rect x="604.064" y="93.615" width="6.084" height="53.015" style="fill: #d6e23d;"/>
                  <g>
                    <g style="opacity: .5;">
                      <path d="M628.678,120.212c.99,0,1.965-.483,2.547-1.371.923-1.405.531-3.289-.875-4.209l-12.366-8.105c-1.406-.926-3.292-.526-4.211.873-.923,1.405-.531,3.289.875,4.209l12.366,8.105c.515.338,1.093.499,1.664.499Z" style="fill: #839d24;"/>
                    </g>
                    <g style="opacity: .5;">
                      <path d="M585.538,120.212c.57,0,1.149-.16,1.664-.499l12.362-8.105c1.406-.92,1.798-2.804.875-4.209-.919-1.399-2.792-1.801-4.211-.873l-12.362,8.105c-1.406.92-1.798,2.804-.875,4.209.582.888,1.557,1.371,2.547,1.371Z" style="fill: #4d7c3d;"/>
                    </g>
                    <path d="M628.678,134.072c.99,0,1.965-.483,2.547-1.371.923-1.405.531-3.289-.875-4.209l-12.366-8.105c-1.406-.926-3.292-.526-4.211.873-.923,1.405-.531,3.289.875,4.209l12.366,8.105c.515.338,1.093.499,1.664.499Z" style="fill: #839d24; opacity: .5;"/>
                    <g style="opacity: .5;">
                      <path d="M585.538,134.072c.57,0,1.149-.16,1.664-.499l12.362-8.105c1.406-.92,1.798-2.804.875-4.209-.919-1.399-2.792-1.801-4.211-.873l-12.362,8.105c-1.406.92-1.798,2.804-.875,4.209.582.888,1.557,1.371,2.547,1.371Z" style="fill: #4d7c3d;"/>
                    </g>
                  </g>
                </g>
              </g>
            </g>
          </g>
          <g>
            <g>
              <path d="M308.292,133.046h18.181s4.927,44.959,4.927,44.959c.273,2.492-1.68,4.668-4.189,4.668h-19.747c-2.512,0-4.466-2.182-4.188-4.677l5.015-44.95Z" style="fill: #6b4c46;"/>
              <g style="clip-path: url(#clippath-12);">
                <path d="M317.324,165.545l14.862-10.822c8.209-5.977,9.137-17.867,1.954-25.043l-5.199-5.195h-23.236s-5.199,5.195-5.199,5.195c-7.183,7.177-6.255,19.066,1.954,25.043l14.862,10.822Z" style="fill: #594237; fill-rule: evenodd;"/>
              </g>
            </g>
            <g>
              <g>
                <path d="M317.337,131.412c0,6.428-2.555,12.596-7.106,17.143-4.551,4.547-10.723,7.1-17.16,7.1-12.189,0-24.406,0-24.406,0,0,0,0-7.501,0-16.027,0-6.432,2.555-12.599,7.106-17.146,4.551-4.544,10.723-7.1,17.16-7.1,12.189,0,24.406,0,24.406,0,0,0,0,7.501,0,16.03Z" style="fill: #abc02e; fill-rule: evenodd;"/>
                <g style="clip-path: url(#clippath-13);">
                  <polygon points="317.337 115.381 263.022 161.806 317.337 161.806 317.337 115.381" style="fill: #839d24; fill-rule: evenodd;"/>
                  <rect x="261.597" y="132.19" width="62.808" height="6.08" transform="translate(-19.474 215.829) rotate(-39.239)" style="fill: #bdd033;"/>
                  <path d="M301.113,158.73h6.084s0-13.881,0-20.176c0-1.678-1.36-3.036-3.039-3.036h-.006c-1.679,0-3.039,1.359-3.039,3.036,0,6.295,0,20.176,0,20.176Z" style="fill: #4d7c3d; fill-rule: evenodd; opacity: .5;"/>
                  <path d="M268.665,138.615v-5.757s5.689,0,9.287,0c.764,0,1.497.304,2.038.845.538.538.843,1.27.843,2.033h0c0,.766-.304,1.495-.843,2.036-.542.541-1.275.842-2.038.842-3.599,0-9.287,0-9.287,0Z" style="fill: #839d24; fill-rule: evenodd; opacity: .75;"/>
                  <path d="M268.665,126.78v-6.079s12.372,0,18.255,0c1.679,0,3.039,1.359,3.039,3.036v.006c0,1.678-1.36,3.036-3.039,3.036-5.883,0-18.255,0-18.255,0Z" style="fill: #839d24; fill-rule: evenodd; opacity: .75;"/>
                </g>
              </g>
              <g>
                <path d="M317.337,131.412c0,6.428,2.555,12.596,7.106,17.143,4.551,4.547,10.723,7.1,17.16,7.1,12.189,0,24.406,0,24.406,0,0,0,0-7.501,0-16.027,0-6.432-2.555-12.599-7.106-17.146-4.551-4.544-10.723-7.1-17.16-7.1-12.189,0-24.406,0-24.406,0,0,0,0,7.501,0,16.03Z" style="fill: #abc02e; fill-rule: evenodd;"/>
                <g style="clip-path: url(#clippath-14);">
                  <polygon points="317.337 115.381 371.653 161.806 317.337 161.806 317.337 115.381" style="fill: #839d24; fill-rule: evenodd;"/>
                  <rect x="338.634" y="103.826" width="6.08" height="62.808" transform="translate(20.932 314.543) rotate(-50.801)" style="fill: #bdd033;"/>
                  <path d="M333.561,158.73h-6.084s0-13.878,0-20.173c0-.805.319-1.577.891-2.149.569-.568,1.345-.891,2.151-.891.806,0,1.582.322,2.151.891.572.571.891,1.343.891,2.149,0,6.295,0,20.173,0,20.173Z" style="fill: #4d7c3d; fill-rule: evenodd; opacity: .5;"/>
                  <path d="M366.01,138.937v-6.079s-5.524,0-9.129,0c-.806,0-1.579.319-2.148.891-.572.568-.891,1.34-.891,2.146v.006c0,.805.319,1.577.891,2.149.569.568,1.342.888,2.148.888,3.605,0,9.129,0,9.129,0Z" style="fill: #839d24; fill-rule: evenodd; opacity: .75;"/>
                  <path d="M366.01,126.78v-6.079s-12.369,0-18.252,0c-.806,0-1.582.322-2.151.891-.572.571-.891,1.343-.891,2.149,0,.805.319,1.581.891,2.149.569.571,1.345.891,2.151.891,5.883,0,18.252,0,18.252,0Z" style="fill: #839d24; fill-rule: evenodd; opacity: .75;"/>
                </g>
              </g>
              <g>
                <path d="M317.324,155.654l14.578-10.615c8.052-5.863,8.962-17.524,1.917-24.563l-5.099-5.095h-22.79s-5.099,5.095-5.099,5.095c-7.045,7.039-6.135,18.7,1.917,24.563l14.578,10.615Z" style="fill: #bdd033; fill-rule: evenodd;"/>
                <g style="clip-path: url(#clippath-16);">
                  <rect x="294.325" y="113.536" width="22.999" height="43.615" transform="translate(611.649 270.688) rotate(-180)" style="fill: #839d24;"/>
                  <rect x="314.294" y="110.991" width="6.084" height="53.015" style="fill: #d6e23d;"/>
                  <g>
                    <g style="opacity: .5;">
                      <path d="M338.907,137.588c.99,0,1.965-.483,2.547-1.371.923-1.405.531-3.289-.875-4.209l-12.366-8.105c-1.406-.926-3.292-.526-4.211.873-.923,1.405-.531,3.289.875,4.209l12.366,8.105c.515.338,1.093.499,1.664.499Z" style="fill: #839d24;"/>
                    </g>
                    <g style="opacity: .5;">
                      <path d="M295.768,137.588c.57,0,1.149-.16,1.664-.499l12.362-8.105c1.406-.92,1.798-2.804.875-4.209-.919-1.399-2.792-1.801-4.211-.873l-12.362,8.105c-1.406.92-1.798,2.804-.875,4.209.582.888,1.557,1.371,2.547,1.371Z" style="fill: #4d7c3d;"/>
                    </g>
                    <path d="M338.907,151.448c.99,0,1.965-.483,2.547-1.371.923-1.405.531-3.289-.875-4.209l-12.366-8.105c-1.406-.926-3.292-.526-4.211.873-.923,1.405-.531,3.289.875,4.209l12.366,8.105c.515.338,1.093.499,1.664.499Z" style="fill: #839d24; opacity: .5;"/>
                    <g style="opacity: .5;">
                      <path d="M295.768,151.448c.57,0,1.149-.16,1.664-.499l12.362-8.105c1.406-.92,1.798-2.804.875-4.209-.919-1.399-2.792-1.801-4.211-.873l-12.362,8.105c-1.406.92-1.798,2.804-.875,4.209.582.888,1.557,1.371,2.547,1.371Z" style="fill: #4d7c3d;"/>
                    </g>
                  </g>
                </g>
              </g>
            </g>
          </g>
          <g>
            <path d="M238.662-37.983h18.181s4.927,44.959,4.927,44.959c.273,2.492-1.68,4.668-4.189,4.668h-19.747c-2.512,0-4.466-2.182-4.188-4.677l5.015-44.95Z" style="fill: #6b4c46;"/>
            <line x1="222.994" y1="11.644" x2="272.422" y2="11.105" style="fill: #52ab35; stroke: #52ab35; stroke-dasharray: 0 10; stroke-linecap: round; stroke-linejoin: round; stroke-width: 10px;"/>
          </g>
          <g>
            <path d="M111.121,64.127c-4.731-9.919-14.748-16.236-25.744-16.236h-.002c-3.052,0-5.527,2.472-5.527,5.522v18.358l34.673-.515s-1.501-3.146-3.401-7.13Z" style="fill: #8dd6f9; fill-rule: evenodd;"/>
            <g style="clip-path: url(#clippath-18);">
              <path d="M113.916,70.653s-1.228-2.651-2.845-6.144c-4.691-10.132-14.846-16.617-26.018-16.617h-5.204" style="fill: none; stroke: #fff; stroke-linecap: round; stroke-linejoin: round; stroke-width: 18.747px;"/>
            </g>
            <path d="M182.554,90.872c2.549,0,4.907-1.349,6.198-3.545s1.322-4.911.082-7.136c-4.946-8.867-11.993-21.501-17.231-30.893-4.386-7.863-12.689-12.737-21.698-12.737h-18.393c-2.073,0-4.009,1.037-5.155,2.763-1.146,1.727-1.351,3.912-.546,5.82,6.459,15.307,19.296,45.727,19.296,45.727h37.447Z" style="fill: #77bbe0; fill-rule: evenodd;"/>
            <g style="clip-path: url(#clippath-19);">
              <line x1="138.864" y1="76.076" x2="122.189" y2="36.562" style="fill: none; stroke: #5093ba; stroke-linecap: round; stroke-linejoin: round; stroke-width: 18.747px;"/>
              <path d="M122.447,47.892h17.47c1.755,0,3.178,1.422,3.178,3.175v.418c0,1.754,1.423,3.175,3.178,3.175h4.7c1.755,0,3.178-1.422,3.178-3.175v-3.81c0-1.754,1.423-3.175,3.178-3.175h.536c1.755,0,3.178,1.422,3.178,3.175h0c0,1.754,1.423,3.175,3.178,3.175h6.357c1.771,0,3.201-1.447,3.178-3.217l-.157-12.022c-.019-1.433-.996-2.676-2.385-3.033l-19.041-4.902c-.385-.099-.775-.126-1.17-.078-3.205.393-18.48,2.274-19.618,2.584-1.271.346-10.054,7.852-10.054,8.776" style="fill: #4ba481; fill-rule: evenodd;"/>
            </g>
            <path d="M79.849,90.323v-19.67h117.217c20.518,0,40.444,6.879,56.585,19.537.425.333.833.653,1.223.959,2.96,2.321,4.69,5.873,4.69,9.633v2.493c0,1.993-1.42,3.704-3.38,4.073,0,0,0,0-.002,0-24.567,4.629-49.512,6.962-74.512,6.969-16.304.004-35.173.009-50.688.013-19.772.005-38.517-8.796-51.133-24.006,0,0,0,0,0,0Z" style="fill: #fff; fill-rule: evenodd;"/>
            <g style="clip-path: url(#clippath-20);">
              <rect x="120.224" y="107.468" width="73.928" height="13.739" rx="6.777" ry="6.777" style="fill: none; stroke: #c9bccf; stroke-linecap: round; stroke-linejoin: round; stroke-width: 2.812px;"/>
              <g style="clip-path: url(#clippath-21);">
                <rect x="120.224" y="107.468" width="73.928" height="13.739" rx="6.777" ry="6.777" style="fill: none; stroke: #a58ead; stroke-linecap: round; stroke-linejoin: round; stroke-width: 2.812px;"/>
              </g>
              <path d="M108.376,99.503h-19.578v15.679h3.886c8.666,0,15.692-7.02,15.692-15.679h0Z" style="fill: #c9bccf; fill-rule: evenodd;"/>
              <rect x="69.542" y="67.407" width="203.931" height="32.103" style="fill: #8dd6f9;"/>
              <g style="clip-path: url(#clippath-22);">
                <path d="M207.804,84.709c0-4.125-3.347-7.469-7.476-7.469h-.003c-4.129,0-7.476,3.344-7.476,7.469v19.97h14.954v-19.97Z" style="fill: #8dd6f9; fill-rule: evenodd;"/>
                <path d="M200.287,81.924h-.038s-.038.002-.038.002l-.036.002-.037.002-.036.002-.033.003-.034.003-.036.004-.041.005-.03.004-.032.005-.042.007-.028.005-.036.007-.041.008-.022.005-.034.008-.045.011-.028.007-.028.007-.037.01-.031.009-.03.009-.035.011-.034.011-.035.012-.034.012-.028.01-.027.011-.026.011-.033.013-.033.014-.033.015-.038.018-.025.012-.024.012-.031.016-.031.016-.03.016-.031.017-.03.017-.022.013-.038.022-.028.018-.028.018-.028.018-.022.014-.026.019-.027.019-.04.029-.026.019-.012.009-.039.031-.025.02-.017.013-.038.032-.025.021-.015.013-.023.022-.029.026-.028.027-.023.022-.023.023-.027.028-.018.019-.027.028-.023.024-.017.019-.025.029-.022.025-.029.035-.017.02-.012.015-.027.036-.023.031-.024.032-.015.021-.014.021-.025.037-.015.021-.013.021-.023.034-.023.039-.016.026-.013.022-.015.027-.013.023-.02.037-.023.045-.014.028-.005.01-.019.039-.013.029-.014.032-.019.044-.005.011-.012.03-.019.049-.011.03-.006.015-.011.031-.016.048-.01.035-.006.016-.009.033-.014.052-.006.018-.008.035-.008.037-.005.021-.011.054-.005.02-.004.022-.009.056-.007.038-.003.024-.004.024-.005.041-.005.042-.004.042-.003.026v.027s-.004.044-.004.044l-.002.045-.002.045v15.344h5.577v-15.361s-.003-.045-.003-.045v-.028s-.003-.027-.003-.027l-.003-.043-.004-.043-.002-.026-.003-.025-.006-.041-.005-.041-.007-.04-.006-.038-.004-.022-.008-.039-.007-.037-.004-.021-.008-.037-.009-.037-.008-.035-.009-.034-.005-.02-.01-.033-.015-.049-.01-.035-.006-.016-.011-.031-.016-.047-.011-.03-.007-.018-.012-.03-.017-.041-.012-.029-.015-.032-.013-.029-.011-.025-.02-.039-.013-.027-.016-.031-.013-.024-.013-.023-.023-.04-.021-.036-.016-.026-.016-.026-.013-.022-.014-.022-.023-.034-.026-.037-.023-.033-.015-.02-.015-.02-.023-.031-.02-.024-.021-.027-.024-.03-.021-.024-.022-.025-.017-.019-.026-.029-.023-.024-.026-.028-.027-.028-.018-.019-.023-.023-.023-.022-.028-.027-.02-.018-.024-.022-.034-.029-.024-.021-.021-.018-.025-.021-.034-.027-.023-.018-.021-.015-.035-.025-.032-.023-.019-.013-.027-.019-.03-.02-.028-.018-.036-.023-.028-.017-.022-.013-.03-.018-.038-.021-.023-.013-.03-.016-.031-.016-.024-.012-.032-.015-.031-.015-.032-.015-.034-.015-.026-.011-.033-.014-.033-.013-.027-.011-.034-.012-.034-.012-.028-.01-.029-.01-.036-.011-.035-.011-.036-.01-.036-.01-.023-.006-.028-.007-.045-.011-.034-.008-.022-.005-.038-.007-.038-.007-.031-.005-.038-.006-.032-.005-.035-.005-.041-.005-.031-.003-.035-.003-.036-.003-.035-.002-.036-.002-.037-.002h-.037s-.038-.002-.038-.002h-.04s-.039,0-.039,0ZM200.425,77.24l.097.002.096.003.096.004.096.005.095.007.095.008.095.009.094.01.094.011.094.012.093.014.093.015.092.016.092.017.092.018.091.019.09.02.091.021.089.022.09.024.088.025.089.026.088.027.087.028.087.029.086.03.086.031.085.032.085.033.084.034.084.035.083.036.083.037.083.038.082.039.082.04.081.041.081.042.08.043.079.044.079.045.078.045.078.046.077.047.076.048.075.049.075.05.074.051.074.052.073.052.072.053.071.054.071.055.07.056.069.057.068.058.068.058.068.059.067.06.067.061.065.061.065.062.064.063.063.064.063.065.061.065.061.066.06.067.059.067.058.068.058.069.056.07.056.07.054.071.054.072.053.072.053.073.052.074.051.074.051.075.049.075.048.076.048.077.046.077.046.078.044.078.044.079.042.08.042.08.04.081.04.081.038.082.038.082.037.083.036.083.036.084.034.085.033.085.032.086.031.086.03.086.029.087.028.087.026.088.026.088.024.089.023.089.023.09.022.09.02.091.02.091.018.091.017.092.016.092.015.093.014.093.012.093.011.094.01.094.008.094.008.095.007.095.006.095.004.096.003.096.002.096v.097s0,19.97,0,19.97h-14.954v-20.067l.002-.096.003-.096.005-.096.006-.095.007-.095.007-.095.009-.094.009-.094.012-.094.012-.093.013-.093.015-.093.016-.092.017-.092.018-.091.02-.091.021-.091.021-.09.023-.09.024-.089.024-.089.025-.088.027-.088.028-.087.028-.087.03-.086.031-.086.032-.086.033-.085.035-.085.035-.084.036-.083.038-.083.038-.082.039-.082.039-.081.041-.081.041-.08.043-.08.043-.079.045-.078.045-.078.047-.077.047-.077.048-.076.05-.075.05-.075.051-.074.052-.074.053-.073.053-.072.054-.072.055-.071.055-.07.057-.07.057-.069.059-.068.059-.067.059-.067.061-.066.062-.065.062-.065.063-.064.064-.063.065-.062.066-.061.066-.061.067-.06.068-.059.068-.058.069-.058.069-.057.07-.056.07-.055.072-.054.072-.053.073-.052.073-.052.074-.051.075-.05.076-.049.076-.048.077-.047.077-.046.078-.045.079-.045.08-.044.08-.043.08-.042.081-.041.082-.04.083-.039.083-.038.083-.037.083-.036.084-.035.084-.034.085-.033.085-.032.086-.031.087-.03.087-.029.087-.028.088-.027.088-.026.089-.025.089-.024.09-.022.09-.021.091-.02.091-.019.091-.018.092-.017.093-.016.092-.015.094-.014.093-.012.094-.011.094-.01.095-.009.095-.008.096-.007.095-.005.096-.004.097-.003.096-.002h.098s.003,0,.003,0h.097Z" style="fill: #77bbe0; fill-rule: evenodd;"/>
                <path d="M108.376,92.459h-19.578v23.826c10.813,0,19.578-8.758,19.578-19.561v-4.265Z" style="fill: #77bbe0; fill-rule: evenodd;"/>
              </g>
              <path d="M248.164,78.348h-28.643c-2.219,0-4.017,1.797-4.017,4.014h0c0,1.065.423,2.086,1.177,2.838.753.753,1.775,1.176,2.84,1.176h30.612l-1.969-8.028Z" style="fill: #361136; fill-rule: evenodd;"/>
              <g style="clip-path: url(#clippath-23);">
                <path d="M250.325,75.814h-27.76c-.995,1.63-1.031,3.669-.097,5.333.935,1.664,2.697,2.695,4.607,2.695h25.218l-1.969-8.028Z" style="fill: #551851; fill-rule: evenodd;"/>
              </g>
              <path d="M219.521,78.348h-.103s-.103.005-.103.005l-.102.006-.102.009-.1.012-.1.014-.099.016-.098.019-.098.021-.098.024-.096.026-.095.028-.094.03-.093.033-.092.035-.09.037-.09.039-.088.041-.087.043-.086.045-.084.047-.083.049-.083.051-.081.053-.08.055-.078.057-.077.059-.075.061-.073.062-.072.064-.071.066-.068.067-.068.069-.066.07-.064.072-.063.074-.06.075-.059.077-.056.078-.055.079-.053.081-.052.082-.049.083-.048.085-.045.086-.043.087-.041.088-.039.089-.038.091-.035.092-.033.093-.03.094-.028.095-.026.096-.023.097-.022.098-.019.098-.017.099-.013.1-.012.101-.008.102-.007.102-.004.103-.002.104h0s0,.1,0,.1l.004.099.007.099.008.099.011.098.013.098.016.097.018.097.021.096.023.096.025.095.027.094.03.093.032.093.034.092.037.091.038.09.041.089.043.088.045.087.047.086.05.085.052.084.053.082.055.081.058.08.059.079.062.077.064.076.066.074.068.073.069.071.071.07.073.068.074.066.076.064.078.062.078.06.081.058.081.056.083.053.084.051.084.049.086.047.087.045.088.043.089.041.09.039.091.036.092.034.093.032.093.03.095.027.095.025.096.023.096.02.098.018.098.016.098.013.098.011.098.009.099.006.099.004h.099s30.612.001,30.612.001l-1.969-8.028h-28.643ZM248.36,75.544l.196.021.194.034.191.048.187.061.183.074.177.087.17.099.163.11.156.121.145.132.137.142.127.151.114.159.104.167.092.174.08.18.067.185.053.189,1.97,8.028.039.192.027.194.012.195v.196l-.015.195-.027.194-.041.191-.055.188-.068.184-.08.179-.093.173-.104.166-.115.158-.126.15-.137.141-.145.131-.155.12-.163.109-.17.098-.175.086-.182.073-.187.06-.19.047-.193.034-.194.02-.196.007h-30.631l-.155-.002-.167-.007-.167-.01-.166-.015-.167-.018-.168-.023-.165-.026-.165-.031-.163-.035-.167-.04-.158-.042-.161-.046-.162-.052-.156-.054-.155-.058-.153-.061-.152-.065-.15-.068-.148-.072-.157-.081-.149-.083-.137-.08-.142-.086-.143-.092-.141-.097-.134-.097-.135-.103-.129-.103-.127-.106-.129-.115-.121-.112-.125-.121-.124-.127-.112-.121-.106-.12-.113-.133-.105-.133-.098-.127-.102-.141-.094-.138-.087-.134-.09-.145-.09-.154-.08-.147-.07-.136-.074-.15-.069-.152-.066-.151-.067-.166-.056-.155-.053-.154-.049-.155-.047-.158-.044-.169-.038-.158-.035-.16-.032-.17-.028-.172-.021-.16-.019-.161-.015-.173-.01-.172-.006-.16-.003-.172.003-.175.006-.175.012-.174.013-.162.021-.186.026-.173.024-.15.032-.173.038-.173.038-.16.047-.171.048-.159.052-.159.055-.157.058-.154.065-.157.067-.153.071-.152.07-.142.078-.148.085-.151.081-.137.088-.141.09-.136.09-.131.1-.138.102-.133.1-.124.106-.125.111-.125.106-.113.113-.117.117-.114.122-.114.129-.114.122-.102.121-.097.13-.1.134-.098.132-.091.142-.094.145-.09.138-.081.143-.08.15-.079.143-.071.149-.07.155-.068.152-.062.159-.061.165-.058.152-.049.163-.049.169-.045.158-.039.166-.036.17-.033.173-.028.167-.023.17-.019.174-.016.175-.011.173-.007.157-.002h28.66l.197.007Z" style="fill: #fff; fill-rule: evenodd;"/>
              <path d="M216.331,114.245c0-1.797-.715-3.521-1.987-4.792-1.272-1.271-2.997-1.985-4.796-1.985h-5.111c-1.799,0-3.524.714-4.796,1.985-1.272,1.271-1.986,2.995-1.986,4.792v.185c0,1.797.715,3.521,1.986,4.792,1.272,1.271,2.998,1.985,4.796,1.985h5.111c1.799,0,3.524-.714,4.796-1.985,1.272-1.271,1.987-2.995,1.987-4.792v-.185Z" style="fill: none; stroke: #c9bccf; stroke-linecap: round; stroke-linejoin: round; stroke-width: 2.812px;"/>
              <rect x="252.213" y="85.008" width="14.702" height="36.979" style="fill: #fff;"/>
              <rect x="252.213" y="85.008" width="14.702" height="36.979" style="fill: none; stroke: #c9bccf; stroke-linecap: round; stroke-linejoin: round; stroke-width: 4.687px;"/>
            </g>
            <path d="M185.735,81.665c0-1.832-1.486-3.317-3.32-3.317s-3.32,1.485-3.32,3.317v1.876c0,1.832,1.486,3.317,3.32,3.317,1.833,0,3.32-1.485,3.32-3.317v-1.876Z" style="fill: #361136; fill-rule: evenodd;"/>
            <g style="clip-path: url(#clippath-24);">
              <polygon points="182.416 74.846 178.791 78.459 186.379 86.023 190.004 82.41 182.416 74.846" style="fill: #551851; fill-rule: evenodd;"/>
            </g>
            <path d="M182.329,78.349l-.084.003-.085.005-.083.007-.083.009-.083.012-.083.014-.082.016-.081.018-.08.019-.079.021-.079.023-.078.025-.076.027-.076.029-.075.031-.074.032-.073.034-.072.036-.071.037-.069.039-.069.041-.068.042-.068.044-.066.045-.064.047-.064.048-.062.05-.061.051-.059.053-.059.054-.056.056-.056.057-.054.058-.053.059-.052.061-.05.062-.049.063-.047.064-.046.066-.044.067-.042.068-.04.069-.039.07-.038.071-.036.072-.035.073-.032.074-.031.075-.028.076-.027.077-.025.077-.023.078-.022.079-.02.08-.017.081-.016.081-.013.082-.012.083-.009.083-.008.084-.006.085-.003.085v.086s0,1.876,0,1.876v.086s.004.085.004.085l.006.085.008.084.009.083.012.083.013.082.016.081.017.081.02.08.022.079.023.078.025.077.027.077.028.076.031.075.032.074.035.073.036.072.038.071.039.07.04.069.042.068.044.067.046.066.047.064.049.063.05.062.052.061.053.06.054.058.056.057.056.056.059.054.059.053.061.051.062.05.064.049.064.047.066.046.068.044.068.042.069.041.069.039.071.037.072.036.073.034.074.032.075.031.076.029.076.027.078.025.079.023.079.021.08.019.081.018.082.016.083.014.083.012.083.01.083.007.085.005.084.003h.086s.086,0,.086,0l.084-.003.085-.005.083-.007.083-.01.083-.012.083-.014.082-.016.081-.018.08-.019.079-.021.079-.023.078-.025.076-.027.076-.029.075-.031.074-.032.073-.034.072-.036.071-.037.069-.039.069-.041.068-.042.068-.044.066-.046.064-.047.064-.049.062-.05.061-.051.059-.053.059-.054.056-.056.056-.057.054-.058.053-.06.052-.061.05-.062.049-.063.047-.064.046-.066.044-.067.042-.068.04-.069.039-.07.038-.071.036-.072.035-.073.032-.074.031-.075.028-.076.027-.077.025-.077.023-.078.022-.079.02-.08.017-.081.016-.081.013-.082.012-.083.009-.083.008-.084.006-.085.003-.085v-.086s0-1.876,0-1.876v-.086s-.004-.085-.004-.085l-.006-.085-.008-.084-.009-.083-.012-.083-.013-.082-.016-.081-.017-.081-.02-.08-.022-.079-.023-.078-.025-.077-.027-.077-.028-.076-.031-.075-.032-.074-.035-.073-.036-.072-.038-.071-.039-.07-.04-.069-.042-.068-.044-.067-.046-.066-.047-.064-.049-.063-.05-.062-.052-.061-.053-.059-.054-.058-.056-.057-.056-.056-.059-.054-.059-.053-.061-.051-.062-.05-.064-.048-.064-.047-.066-.045-.068-.044-.068-.042-.069-.041-.069-.039-.071-.037-.072-.036-.073-.034-.074-.032-.075-.031-.076-.029-.076-.027-.078-.025-.079-.023-.079-.021-.08-.019-.081-.018-.082-.016-.083-.014-.083-.012-.083-.009-.083-.007-.085-.005-.084-.003h-.086s-.086,0-.086,0ZM182.579,75.539l.15.006.155.009.158.014.148.017.156.021.156.026.151.029.148.032.145.036.147.04.147.044.14.045.144.051.144.055.136.056.134.059.14.065.13.065.131.068.134.075.127.075.126.079.124.081.115.08.12.087.118.091.109.087.114.096.119.105.108.102.099.097.099.102.102.109.095.107.101.118.096.121.077.1.09.121.087.127.085.129.079.128.068.115.074.131.069.133.068.134.062.134.059.134.056.139.053.139.053.152.044.137.043.14.04.153.038.155.03.143.028.141.028.17.019.142.02.156.012.156.011.156.005.156.003.128v1.932l-.003.128-.005.156-.011.156-.012.156-.02.156-.019.142-.028.17-.028.141-.03.143-.038.155-.04.153-.043.14-.044.139-.054.151-.053.137-.055.136-.059.135-.063.136-.068.134-.069.133-.074.131-.068.115-.079.128-.085.129-.087.127-.09.121-.077.1-.096.121-.101.118-.098.111-.098.104-.096.099-.107.104-.104.097-.119.106-.114.095-.104.084-.123.094-.12.087-.115.08-.124.082-.126.079-.127.075-.134.075-.131.068-.13.065-.14.065-.134.059-.143.058-.138.052-.138.049-.146.047-.147.044-.147.04-.145.036-.148.032-.151.029-.156.026-.156.022-.148.017-.158.014-.155.009-.157.006h-.143s-.029.001-.029.001h-.141s-.157-.008-.157-.008l-.156-.009-.156-.014-.15-.017-.155-.022-.158-.026-.149-.029-.146-.032-.148-.036-.148-.04-.147-.044-.145-.047-.139-.049-.137-.052-.143-.058-.141-.061-.132-.062-.132-.065-.129-.068-.129-.071-.139-.083-.118-.075-.118-.077-.122-.085-.121-.087-.122-.094-.113-.09-.113-.096-.104-.093-.106-.097-.113-.111-.097-.099-.098-.104-.106-.12-.092-.109-.09-.111-.091-.119-.082-.111-.089-.127-.083-.129-.074-.117-.074-.126-.074-.131-.07-.133-.067-.134-.064-.136-.058-.135-.056-.136-.057-.15-.048-.138-.046-.139-.045-.154-.038-.139-.035-.141-.035-.156-.029-.155-.023-.142-.023-.156-.018-.156-.014-.156-.009-.156-.007-.156v-.142s0-1.904,0-1.904v-.142s.007-.155.007-.155l.009-.156.014-.156.018-.156.023-.156.023-.142.029-.155.035-.156.035-.141.038-.139.045-.154.045-.137.048-.139.058-.152.057-.139.059-.134.062-.134.067-.134.07-.133.074-.131.074-.126.074-.117.083-.129.089-.127.082-.111.091-.119.09-.111.092-.109.103-.116.101-.109.1-.102.106-.104.11-.101.104-.092.113-.096.117-.093.117-.091.121-.087.122-.085.118-.077.118-.075.139-.083.129-.072.129-.068.132-.065.132-.062.141-.061.136-.056.143-.055.145-.051.139-.045.147-.044.148-.04.148-.036.146-.032.149-.029.158-.026.155-.021.15-.017.156-.014.156-.009.149-.006.142-.002h.043l.142.002Z" style="fill: #fff; fill-rule: evenodd;"/>
            <rect x="165.342" y="78.348" width="6.639" height="8.51" rx="3.317" ry="3.317" style="fill: #361136;"/>
            <g style="clip-path: url(#clippath-25);">
              <polygon points="168.662 74.846 165.038 78.459 172.626 86.023 176.25 82.41 168.662 74.846" style="fill: #551851; fill-rule: evenodd;"/>
            </g>
            <path d="M168.577,78.349l-.085.003-.084.005-.084.007-.083.009-.083.012-.083.014-.081.016-.081.018-.081.019-.079.021-.079.023-.077.025-.077.027-.076.029-.075.031-.074.032-.073.034-.072.036-.07.037-.07.039-.069.041-.068.042-.067.044-.066.045-.065.047-.064.048-.062.05-.061.051-.059.053-.058.054-.057.056-.056.057-.053.058-.053.059-.052.061-.05.062-.049.063-.047.064-.045.066-.044.067-.043.068-.04.069-.039.07-.037.071-.036.072-.034.073-.032.074-.031.075-.029.076-.027.077-.025.077-.023.078-.021.079-.02.08-.018.081-.016.081-.014.082-.012.083-.009.083-.007.084-.005.085-.003.085v.086s-.001,1.876-.001,1.876v.086s.004.085.004.085l.005.085.007.084.009.083.012.083.014.082.016.081.018.081.02.08.021.079.023.078.025.077.027.077.029.076.031.075.032.074.034.073.036.072.037.071.039.07.04.069.043.068.044.067.045.066.047.064.049.063.05.062.052.061.053.06.053.058.056.057.057.056.058.054.059.053.061.051.062.05.064.049.065.047.066.046.067.044.068.042.069.041.07.039.07.037.072.036.073.034.074.032.075.031.076.029.077.027.077.025.079.023.079.021.081.019.081.018.081.016.083.014.083.012.083.01.084.007.084.005.085.003h.085s.086,0,.086,0l.085-.003.084-.005.083-.007.083-.01.083-.012.082-.014.082-.016.081-.018.08-.019.08-.021.078-.023.078-.025.077-.027.076-.029.074-.031.074-.032.073-.034.072-.036.071-.037.07-.039.068-.041.068-.042.067-.044.066-.046.065-.047.063-.049.062-.05.061-.051.06-.053.058-.054.057-.056.055-.057.054-.058.053-.06.052-.061.05-.062.049-.063.047-.064.046-.066.044-.067.042-.068.04-.069.039-.07.038-.071.036-.072.035-.073.032-.074.031-.075.029-.076.026-.077.025-.077.023-.078.022-.079.02-.08.018-.081.015-.081.014-.082.011-.083.009-.083.008-.084.006-.085.003-.085v-.086s0-1.876,0-1.876v-.086s-.004-.085-.004-.085l-.006-.085-.008-.084-.009-.083-.011-.083-.014-.082-.015-.081-.018-.081-.02-.08-.022-.079-.023-.078-.025-.077-.026-.077-.029-.076-.031-.075-.032-.074-.035-.073-.036-.072-.038-.071-.039-.07-.04-.069-.042-.068-.044-.067-.046-.066-.047-.064-.049-.063-.05-.062-.052-.061-.053-.059-.054-.058-.055-.057-.057-.056-.058-.054-.06-.053-.061-.051-.062-.05-.063-.048-.065-.047-.066-.045-.067-.044-.068-.042-.068-.041-.07-.039-.071-.037-.072-.036-.073-.034-.074-.032-.074-.031-.076-.029-.077-.027-.078-.025-.078-.023-.08-.021-.08-.019-.081-.018-.082-.016-.082-.014-.083-.012-.083-.009-.083-.007-.084-.005-.085-.003h-.085s0-.001,0-.001h-.085ZM168.825,75.539l.149.006.156.009.157.014.15.017.154.021.158.026.148.029.146.032.149.036.147.04.147.044.139.045.145.051.143.055.136.056.141.061.132.062.132.065.129.068.129.072.14.083.118.075.117.077.122.085.121.087.118.091.116.093.113.096.103.092.11.101.107.104.099.102.102.109.102.116.092.109.09.111.091.119.082.111.089.127.084.129.073.117.075.126.073.131.07.133.067.134.063.134.058.134.057.139.058.152.048.139.045.137.045.154.038.139.035.141.035.156.029.155.023.142.023.156.018.156.014.156.009.156.007.155v.142s0,1.904,0,1.904v.142s-.007.156-.007.156l-.009.156-.014.156-.018.156-.023.156-.023.142-.029.155-.035.156-.035.141-.038.139-.045.154-.046.139-.048.138-.057.15-.055.136-.059.135-.064.136-.067.134-.07.133-.073.131-.075.126-.073.117-.084.129-.089.127-.082.111-.091.119-.09.111-.092.109-.106.12-.098.104-.096.099-.114.111-.106.097-.104.093-.113.096-.112.09-.123.094-.121.087-.122.085-.117.077-.118.075-.14.083-.129.071-.129.068-.132.065-.132.062-.141.061-.143.058-.137.052-.139.049-.145.047-.147.044-.147.04-.149.036-.146.032-.148.029-.158.026-.154.022-.15.017-.157.014-.156.009-.156.006h-.142s-.029.001-.029.001h-.143s-.156-.008-.156-.008l-.156-.009-.158-.014-.147-.017-.157-.022-.156-.026-.15-.029-.149-.032-.145-.036-.147-.04-.147-.044-.146-.047-.138-.049-.137-.052-.143-.058-.135-.059-.14-.065-.13-.065-.131-.068-.134-.075-.126-.075-.126-.079-.123-.082-.115-.08-.121-.087-.122-.094-.104-.084-.114-.095-.119-.106-.104-.097-.107-.104-.096-.099-.098-.104-.098-.111-.101-.118-.096-.121-.077-.1-.09-.121-.087-.127-.086-.129-.079-.128-.068-.115-.074-.131-.07-.133-.067-.134-.063-.136-.059-.135-.056-.136-.052-.137-.054-.151-.044-.139-.043-.14-.041-.153-.038-.155-.03-.143-.028-.141-.028-.17-.021-.156-.016-.142-.013-.142-.012-.17-.005-.156-.003-.128v-1.932l.003-.128.005-.156.012-.17.013-.142.016-.142.021-.156.028-.17.028-.141.03-.143.038-.155.041-.153.043-.14.044-.137.054-.152.053-.139.057-.139.059-.134.062-.134.067-.134.07-.133.074-.131.068-.115.079-.128.086-.129.087-.127.09-.121.077-.1.096-.121.101-.118.095-.107.102-.109.1-.102.099-.097.108-.102.119-.105.114-.096.109-.087.118-.091.121-.087.115-.08.123-.081.126-.079.126-.075.134-.075.131-.068.13-.065.14-.065.135-.059.136-.056.143-.055.144-.051.14-.045.147-.044.147-.04.145-.036.149-.032.15-.029.156-.026.157-.021.147-.017.158-.014.156-.009.149-.006.143-.002h.042l.142.002Z" style="fill: #fff; fill-rule: evenodd;"/>
            <rect x="151.589" y="78.348" width="6.64" height="8.51" rx="3.317" ry="3.317" style="fill: #361136;"/>
            <g style="clip-path: url(#clippath-26);">
              <polygon points="154.909 74.846 151.284 78.459 158.873 86.023 162.497 82.41 154.909 74.846" style="fill: #551851; fill-rule: evenodd;"/>
            </g>
            <path d="M154.823,78.349l-.085.003-.085.005-.084.007-.083.009-.083.012-.082.014-.081.016-.081.018-.08.019-.079.021-.078.023-.078.025-.077.027-.076.029-.075.031-.074.032-.073.034-.072.036-.071.037-.07.039-.069.041-.068.042-.067.044-.066.045-.065.047-.063.048-.062.05-.061.051-.06.053-.058.054-.057.056-.056.057-.054.058-.053.059-.051.061-.05.062-.049.063-.047.064-.045.066-.044.067-.042.068-.041.069-.039.07-.038.071-.036.072-.034.073-.032.074-.031.075-.029.076-.027.077-.025.077-.023.078-.021.079-.02.08-.018.081-.016.081-.014.082-.012.083-.01.083-.007.084-.005.085-.003.085v.086s-.001,1.876-.001,1.876v.086s.004.085.004.085l.005.085.007.084.01.083.012.083.014.082.016.081.018.081.02.08.021.079.023.078.025.077.027.077.029.076.031.075.032.074.034.073.036.072.038.071.039.07.041.069.042.068.044.067.045.066.047.064.049.063.05.062.051.061.053.06.054.058.056.057.057.056.058.054.06.053.061.051.062.05.063.049.065.047.066.046.067.044.068.042.069.041.07.039.071.037.072.036.073.034.074.032.075.031.076.029.077.027.078.025.078.023.079.021.08.019.081.018.081.016.082.014.083.012.083.01.084.007.085.005.085.003h.086s.086,0,.086,0l.085-.003.085-.005.084-.007.083-.01.083-.012.082-.014.081-.016.081-.018.08-.019.079-.021.078-.023.078-.025.077-.027.076-.029.075-.031.074-.032.073-.034.072-.036.071-.037.07-.039.069-.041.068-.042.067-.044.066-.046.065-.047.063-.049.062-.05.061-.051.06-.053.058-.054.057-.056.056-.057.054-.058.053-.06.051-.061.05-.062.049-.063.047-.064.046-.066.044-.067.042-.068.041-.069.039-.07.038-.071.036-.072.034-.073.032-.074.031-.075.029-.076.027-.077.025-.077.023-.078.021-.079.02-.08.018-.081.016-.081.014-.082.012-.083.01-.083.007-.084.005-.085.003-.085v-.086s.001-1.876.001-1.876v-.086s-.004-.085-.004-.085l-.005-.085-.007-.084-.01-.083-.012-.083-.014-.082-.016-.081-.018-.081-.02-.08-.021-.079-.023-.078-.025-.077-.027-.077-.029-.076-.031-.075-.032-.074-.034-.073-.036-.072-.038-.071-.039-.07-.041-.069-.042-.068-.044-.067-.046-.066-.047-.064-.049-.063-.05-.062-.051-.061-.053-.059-.054-.058-.056-.057-.057-.056-.058-.054-.06-.053-.061-.051-.062-.05-.063-.048-.065-.047-.066-.045-.067-.044-.068-.042-.069-.041-.07-.039-.071-.037-.072-.036-.073-.034-.074-.032-.075-.031-.076-.029-.077-.027-.078-.025-.078-.023-.079-.021-.08-.019-.081-.018-.081-.016-.082-.014-.083-.012-.083-.009-.084-.007-.085-.005-.085-.003h-.086s0-.001,0-.001h-.086ZM155.072,75.539l.149.006.155.009.156.014.15.017.157.022.154.026.15.029.148.032.146.036.148.04.147.044.139.045.145.051.144.055.136.056.135.059.133.062.138.068.136.072.128.072.126.075.126.079.123.081.115.08.121.087.118.091.109.087.114.096.119.105.108.102.099.097.1.102.102.109.095.107.101.118.096.121.077.1.09.121.087.127.086.129.078.128.068.115.074.131.07.133.067.134.062.134.059.134.057.139.053.139.049.139.05.15.045.154.037.139.035.141.035.156.029.155.026.156.019.142.019.156.013.156.011.156.005.156.003.128v1.932l-.003.128-.005.156-.011.156-.013.156-.019.156-.019.142-.026.156-.029.155-.035.156-.035.141-.037.139-.045.154-.05.152-.049.138-.052.137-.056.136-.059.135-.063.136-.067.134-.07.133-.074.131-.068.115-.078.128-.086.129-.087.127-.09.121-.077.1-.096.121-.101.118-.098.111-.098.104-.096.099-.107.104-.104.097-.119.106-.114.095-.104.084-.122.094-.121.087-.115.08-.123.082-.126.079-.126.075-.128.072-.136.072-.138.068-.133.062-.135.059-.142.058-.137.052-.138.049-.146.047-.147.044-.148.04-.146.036-.148.032-.15.029-.154.026-.157.022-.15.017-.156.014-.155.009-.156.006h-.156s-.156,0-.156,0l-.156-.006-.155-.009-.156-.014-.15-.017-.157-.022-.154-.026-.147-.028-.149-.032-.152-.037-.147-.04-.139-.042-.147-.047-.143-.051-.137-.052-.148-.061-.134-.059-.128-.059-.138-.068-.129-.068-.129-.071-.139-.083-.118-.075-.118-.077-.129-.09-.112-.082-.116-.088-.119-.096-.113-.096-.104-.093-.113-.104-.105-.104-.09-.091-.106-.112-.106-.12-.092-.109-.09-.111-.091-.119-.088-.121-.081-.117-.079-.119-.08-.128-.075-.126-.074-.131-.07-.133-.067-.134-.063-.136-.059-.135-.056-.136-.057-.15-.048-.138-.046-.139-.045-.154-.038-.139-.035-.141-.035-.156-.029-.155-.024-.142-.023-.156-.018-.156-.014-.156-.009-.156-.006-.156v-.142s-.001-1.904-.001-1.904v-.142s.008-.155.008-.155l.009-.156.014-.156.018-.156.023-.156.024-.142.029-.155.035-.156.035-.141.038-.139.045-.154.045-.137.048-.139.058-.152.057-.139.059-.134.062-.134.067-.134.07-.133.074-.131.075-.126.08-.128.079-.119.081-.117.088-.121.091-.119.09-.111.092-.109.102-.116.109-.117.094-.094.098-.097.117-.109.104-.092.113-.096.124-.099.112-.085.112-.082.129-.09.118-.077.118-.075.139-.083.129-.072.129-.068.138-.068.128-.06.134-.059.142-.058.144-.055.149-.052.14-.045.139-.042.147-.04.152-.037.149-.032.147-.028.154-.026.157-.022.15-.017.156-.014.155-.009.149-.006.163-.002.163.002Z" style="fill: #fff; fill-rule: evenodd;"/>
            <rect x="137.836" y="78.348" width="6.64" height="8.51" rx="3.317" ry="3.317" style="fill: #361136;"/>
            <g style="clip-path: url(#clippath-27);">
              <polygon points="141.155 74.846 137.531 78.459 145.119 86.023 148.743 82.41 141.155 74.846" style="fill: #551851; fill-rule: evenodd;"/>
            </g>
            <path d="M141.069,78.349l-.085.003-.085.005-.084.007-.083.009-.083.012-.082.014-.081.016-.081.018-.08.019-.079.021-.078.023-.078.025-.077.027-.076.029-.075.031-.074.032-.073.034-.072.036-.071.037-.07.039-.069.041-.068.042-.067.044-.066.045-.065.047-.063.048-.062.05-.061.051-.06.053-.058.054-.057.056-.056.057-.054.058-.053.059-.051.061-.05.062-.049.063-.047.064-.046.066-.044.067-.042.068-.041.069-.039.07-.038.071-.036.072-.034.073-.032.074-.031.075-.029.076-.027.077-.025.077-.023.078-.021.079-.02.08-.018.081-.016.081-.014.082-.012.083-.01.083-.007.084-.005.085-.003.085v.086s-.001,1.876-.001,1.876v.086s.004.085.004.085l.005.085.007.084.01.083.012.083.014.082.016.081.018.081.02.08.021.079.023.078.025.077.027.077.029.076.031.075.032.074.034.073.036.072.038.071.039.07.041.069.042.068.044.067.046.066.047.064.049.063.05.062.051.061.053.06.054.058.056.057.057.056.058.054.06.053.061.051.062.05.063.049.065.047.066.046.067.044.068.042.069.041.07.039.071.037.072.036.073.034.074.032.075.031.076.029.077.027.078.025.078.023.079.021.08.019.081.018.081.016.082.014.083.012.083.01.084.007.085.005.085.003h.086s.086,0,.086,0l.085-.003.085-.005.084-.007.083-.01.083-.012.082-.014.081-.016.081-.018.08-.019.079-.021.078-.023.078-.025.077-.027.076-.029.075-.031.074-.032.073-.034.072-.036.071-.037.07-.039.069-.041.068-.042.067-.044.066-.046.065-.047.063-.049.062-.05.061-.051.06-.053.058-.054.057-.056.056-.057.054-.058.053-.06.051-.061.05-.062.049-.063.047-.064.045-.066.044-.067.042-.068.041-.069.039-.07.038-.071.036-.072.034-.073.032-.074.031-.075.029-.076.027-.077.025-.077.023-.078.021-.079.02-.08.018-.081.016-.081.014-.082.012-.083.01-.083.007-.084.005-.085.003-.085v-.086s.001-1.876.001-1.876v-.086s-.004-.085-.004-.085l-.005-.085-.007-.084-.01-.083-.012-.083-.014-.082-.016-.081-.018-.081-.02-.08-.021-.079-.023-.078-.025-.077-.027-.077-.029-.076-.031-.075-.032-.074-.034-.073-.036-.072-.038-.071-.039-.07-.041-.069-.042-.068-.044-.067-.045-.066-.047-.064-.049-.063-.05-.062-.051-.061-.053-.059-.054-.058-.056-.057-.057-.056-.058-.054-.06-.053-.061-.051-.062-.05-.063-.048-.065-.047-.066-.045-.067-.044-.068-.042-.069-.041-.07-.039-.071-.037-.072-.036-.073-.034-.074-.032-.075-.031-.076-.029-.077-.027-.078-.025-.078-.023-.079-.021-.08-.019-.081-.018-.081-.016-.082-.014-.083-.012-.083-.009-.084-.007-.085-.005-.085-.003h-.086s0-.001,0-.001h-.086ZM141.318,75.539l.148.006.158.009.156.014.149.017.155.021.158.026.149.029.146.032.148.036.148.04.147.044.139.045.145.051.144.055.136.056.14.061.132.062.126.062.137.071.134.075.133.079.118.075.118.077.122.085.121.087.118.091.116.093.113.096.104.092.11.101.106.104.1.102.102.109.102.116.092.109.09.111.091.119.081.111.089.127.084.129.073.117.075.126.074.131.07.133.067.134.062.134.059.134.057.139.053.139.054.152.048.15.037.127.043.153.036.155.032.142.029.155.024.142.022.156.018.156.014.156.009.156.006.155v.142s.001,1.904.001,1.904v.142s-.008.156-.008.156l-.009.156-.014.156-.018.156-.022.156-.024.142-.029.155-.032.142-.036.155-.043.153-.037.127-.049.153-.054.151-.052.137-.056.136-.059.135-.063.136-.067.134-.07.133-.074.131-.075.126-.073.117-.084.129-.089.127-.081.111-.091.119-.09.111-.092.109-.106.12-.098.104-.096.099-.114.111-.106.097-.104.093-.113.096-.112.09-.122.094-.121.087-.122.085-.118.077-.118.075-.133.079-.134.075-.137.072-.126.062-.132.062-.14.061-.142.058-.137.052-.138.049-.146.047-.147.044-.148.04-.148.036-.146.032-.149.029-.158.026-.155.022-.149.017-.156.014-.158.009-.155.006h-.141s-.029.001-.029.001h-.143s-.155-.008-.155-.008l-.157-.009-.156-.014-.149-.017-.155-.022-.158-.026-.149-.029-.146-.032-.149-.036-.148-.04-.147-.044-.146-.047-.138-.049-.137-.052-.142-.058-.135-.059-.139-.065-.131-.065-.131-.068-.134-.075-.126-.075-.126-.079-.123-.082-.115-.08-.121-.087-.122-.094-.104-.084-.114-.095-.119-.106-.104-.097-.107-.104-.096-.099-.098-.104-.106-.12-.092-.109-.09-.111-.091-.119-.081-.111-.089-.127-.084-.129-.073-.117-.075-.126-.074-.131-.07-.133-.067-.134-.063-.136-.059-.135-.056-.136-.052-.137-.054-.151-.044-.139-.043-.14-.041-.153-.038-.155-.03-.143-.028-.141-.028-.17-.021-.156-.016-.142-.014-.156-.009-.156-.006-.142-.003-.142v-1.932l.003-.142.006-.141.009-.156.014-.156.016-.142.021-.156.028-.17.028-.141.03-.143.038-.155.041-.153.043-.14.044-.137.054-.152.053-.139.057-.139.059-.134.062-.134.067-.134.07-.133.074-.131.075-.126.073-.117.084-.129.089-.127.081-.111.091-.119.09-.111.092-.109.102-.116.102-.109.1-.102.099-.097.108-.102.119-.105.114-.096.109-.087.118-.091.121-.087.115-.08.123-.081.126-.079.126-.075.134-.075.131-.068.131-.065.139-.065.135-.059.136-.056.144-.055.145-.051.139-.045.147-.044.148-.04.149-.036.146-.032.149-.029.158-.026.155-.021.149-.017.156-.014.157-.009.148-.006.143-.002h.043l.141.002Z" style="fill: #fff; fill-rule: evenodd;"/>
            <path d="M106.189,89.959c.82,0,1.578.434,1.994,1.14.415.706.425,1.58.026,2.295-.068.122-.137.246-.208.373-5.484,9.832-15.866,15.926-27.131,15.926h-.003c-1.984,0-3.839-.985-4.948-2.629-1.109-1.644-1.328-3.731-.585-5.569,2.194-5.422,4.669-11.536,4.669-11.536h26.186Z" style="fill: #8dd6f9; fill-rule: evenodd;"/>
            <g style="clip-path: url(#clippath-28);">
              <path d="M65.505,109.694h8.122c15.737,0,30.24-8.513,37.901-22.248,0,0,0,0,0,0" style="fill: none; stroke: #fff; stroke-linecap: round; stroke-linejoin: round; stroke-width: 18.747px;"/>
            </g>
            <path d="M208.403,137.44c2.935,1.54,4.525,4.952,3.57,8.36-.483,1.725-1.675,3.162-3.176,4.142-6.989,4.564-16.217,10.589-23.549,15.375-7.543,4.924-17.161,5.381-25.138,1.195l-16.274-8.539c-1.106-.58-2.079-1.432-2.674-2.529-1.473-2.717-.765-5.89,1.411-7.733,8.645-7.32,22.992-19.467,29.405-24.896,1.982-1.678,4.777-1.98,7.077-.774l29.348,15.4Z" style="fill: #8dd6f9; fill-rule: evenodd;"/>
            <g style="clip-path: url(#clippath-29);">
              <path d="M135.574,153.637s2.953,1.549,7.2,3.778c18.679,9.801,41.206,8.729,58.869-2.802,12.114-7.91,23.482-15.331,23.482-15.331" style="fill: none; stroke: #fff; stroke-linecap: round; stroke-linejoin: round; stroke-width: 18.747px;"/>
            </g>
            <rect x="111.471" y="102.004" width="14.468" height="25.891" rx="7.231" ry="7.231" style="fill: #52aa35;"/>
            <rect x="125.939" y="102.004" width="14.468" height="25.891" rx="7.231" ry="7.231" style="fill: #52aa35;"/>
            <rect x="199.454" y="102.004" width="14.468" height="25.891" rx="7.231" ry="7.231" style="fill: #52aa35;"/>
            <rect x="213.922" y="102.004" width="14.468" height="25.891" rx="7.231" ry="7.231" style="fill: #52aa35;"/>
            <rect x="151.025" y="125.306" width="10.431" height="18.679" rx="5.215" ry="5.215" transform="translate(-49.976 130.725) rotate(-39.665)" style="fill: #52aa35;"/>
            <rect x="159.054" y="118.648" width="10.431" height="18.679" rx="5.215" ry="5.215" transform="translate(-43.878 134.318) rotate(-39.665)" style="fill: #52aa35;"/>
            <rect x="228.39" y="102.004" width="14.468" height="25.891" rx="7.231" ry="7.231" style="fill: #52aa35;"/>
            <rect x="242.858" y="102.004" width="14.468" height="25.891" rx="7.231" ry="7.231" style="fill: #52aa35;"/>
          </g>
          <g>
            <g>
              <path d="M76.586,109.042h18.181s4.927,44.959,4.927,44.959c.273,2.492-1.68,4.668-4.189,4.668h-19.747c-2.512,0-4.466-2.182-4.188-4.677l5.015-44.95Z" style="fill: #6b4c46;"/>
              <g style="clip-path: url(#clippath-30);">
                <path d="M85.618,141.541l14.862-10.822c8.209-5.977,9.137-17.867,1.954-25.043l-5.199-5.195h-23.236s-5.199,5.195-5.199,5.195c-7.183,7.177-6.255,19.066,1.954,25.043l14.862,10.822Z" style="fill: #594237; fill-rule: evenodd;"/>
              </g>
            </g>
            <g>
              <g>
                <path d="M85.632,107.408c0,6.428-2.555,12.596-7.106,17.143-4.551,4.547-10.723,7.1-17.16,7.1-12.189,0-24.406,0-24.406,0,0,0,0-7.501,0-16.027,0-6.432,2.555-12.599,7.106-17.146,4.551-4.544,10.723-7.1,17.16-7.1,12.189,0,24.406,0,24.406,0,0,0,0,7.501,0,16.03Z" style="fill: #abc02e; fill-rule: evenodd;"/>
                <g style="clip-path: url(#clippath-31);">
                  <polygon points="85.632 91.377 31.316 137.802 85.632 137.802 85.632 91.377" style="fill: #839d24; fill-rule: evenodd;"/>
                  <rect x="29.891" y="108.186" width="62.808" height="6.08" transform="translate(-56.535 63.852) rotate(-39.239)" style="fill: #bdd033;"/>
                  <path d="M57.239,134.277h6.084s0-6.31,0-10.225c0-1.678-1.363-3.039-3.042-3.039-1.679,0-3.042,1.362-3.042,3.039,0,3.915,0,10.225,0,10.225Z" style="fill: #4d7c3d; fill-rule: evenodd; opacity: .5;"/>
                  <path d="M69.408,134.726h6.084s0-13.881,0-20.176c0-1.678-1.36-3.036-3.039-3.036h-.006c-1.679,0-3.039,1.359-3.039,3.036,0,6.295,0,20.176,0,20.176Z" style="fill: #4d7c3d; fill-rule: evenodd; opacity: .5;"/>
                  <path d="M36.959,114.611v-5.757s5.689,0,9.287,0c.764,0,1.497.304,2.038.845.538.538.843,1.27.843,2.033h0c0,.766-.304,1.495-.843,2.036-.542.541-1.275.842-2.038.842-3.599,0-9.287,0-9.287,0Z" style="fill: #839d24; fill-rule: evenodd; opacity: .75;"/>
                  <path d="M36.959,102.776v-6.079s12.372,0,18.255,0c1.679,0,3.039,1.359,3.039,3.036v.006c0,1.678-1.36,3.036-3.039,3.036-5.883,0-18.255,0-18.255,0Z" style="fill: #839d24; fill-rule: evenodd; opacity: .75;"/>
                </g>
              </g>
              <g>
                <path d="M85.632,107.408c0,6.428,2.555,12.596,7.106,17.143,4.551,4.547,10.723,7.1,17.16,7.1,12.189,0,24.406,0,24.406,0,0,0,0-7.501,0-16.027,0-6.432-2.555-12.599-7.106-17.146-4.551-4.544-10.723-7.1-17.16-7.1-12.189,0-24.406,0-24.406,0,0,0,0,7.501,0,16.03Z" style="fill: #abc02e; fill-rule: evenodd;"/>
                <g style="clip-path: url(#clippath-32);">
                  <polygon points="85.632 91.377 139.947 137.802 85.632 137.802 85.632 91.377" style="fill: #839d24; fill-rule: evenodd;"/>
                  <rect x="106.928" y="79.822" width="6.08" height="62.808" transform="translate(-45.729 126.149) rotate(-50.801)" style="fill: #bdd033;"/>
                  <path d="M114.024,134.277h-6.084s0-6.31,0-10.225c0-1.678,1.363-3.039,3.042-3.039,1.679,0,3.042,1.362,3.042,3.039,0,3.915,0,10.225,0,10.225Z" style="fill: #4d7c3d; fill-rule: evenodd; opacity: .5;"/>
                  <path d="M101.856,134.726h-6.084s0-13.878,0-20.173c0-.805.319-1.577.891-2.149.569-.568,1.345-.891,2.151-.891.806,0,1.582.322,2.151.891.572.571.891,1.343.891,2.149,0,6.295,0,20.173,0,20.173Z" style="fill: #4d7c3d; fill-rule: evenodd; opacity: .5;"/>
                  <path d="M134.304,114.933v-6.079s-5.524,0-9.129,0c-.806,0-1.579.319-2.148.891-.572.568-.891,1.34-.891,2.146v.006c0,.805.319,1.577.891,2.149.569.568,1.342.888,2.148.888,3.605,0,9.129,0,9.129,0Z" style="fill: #839d24; fill-rule: evenodd; opacity: .75;"/>
                  <path d="M134.304,102.776v-6.079s-12.369,0-18.252,0c-.806,0-1.582.322-2.151.891-.572.571-.891,1.343-.891,2.149,0,.805.319,1.581.891,2.149.569.571,1.345.891,2.151.891,5.883,0,18.252,0,18.252,0Z" style="fill: #839d24; fill-rule: evenodd; opacity: .75;"/>
                </g>
              </g>
              <g>
                <path d="M85.618,131.65l14.578-10.615c8.052-5.863,8.962-17.524,1.917-24.563l-5.099-5.095h-22.79s-5.099,5.095-5.099,5.095c-7.045,7.039-6.135,18.7,1.917,24.563l14.578,10.615Z" style="fill: #bdd033; fill-rule: evenodd;"/>
                <g style="clip-path: url(#clippath-34);">
                  <rect x="62.62" y="89.532" width="22.999" height="43.615" transform="translate(148.238 222.68) rotate(-180)" style="fill: #839d24;"/>
                  <rect x="82.588" y="86.987" width="6.084" height="53.015" style="fill: #d6e23d;"/>
                  <g>
                    <g style="opacity: .5;">
                      <path d="M107.202,113.584c.99,0,1.965-.483,2.547-1.371.923-1.405.531-3.289-.875-4.209l-12.366-8.105c-1.406-.926-3.292-.526-4.211.873-.923,1.405-.531,3.289.875,4.209l12.366,8.105c.515.338,1.093.499,1.664.499Z" style="fill: #839d24;"/>
                    </g>
                    <g style="opacity: .5;">
                      <path d="M64.063,113.584c.57,0,1.149-.16,1.664-.499l12.362-8.105c1.406-.92,1.798-2.804.875-4.209-.919-1.399-2.792-1.801-4.211-.873l-12.362,8.105c-1.406.92-1.798,2.804-.875,4.209.582.888,1.557,1.371,2.547,1.371Z" style="fill: #4d7c3d;"/>
                    </g>
                    <path d="M107.202,127.444c.99,0,1.965-.483,2.547-1.371.923-1.405.531-3.289-.875-4.209l-12.366-8.105c-1.406-.926-3.292-.526-4.211.873-.923,1.405-.531,3.289.875,4.209l12.366,8.105c.515.338,1.093.499,1.664.499Z" style="fill: #839d24; opacity: .5;"/>
                    <g style="opacity: .5;">
                      <path d="M64.063,127.444c.57,0,1.149-.16,1.664-.499l12.362-8.105c1.406-.92,1.798-2.804.875-4.209-.919-1.399-2.792-1.801-4.211-.873l-12.362,8.105c-1.406.92-1.798,2.804-.875,4.209.582.888,1.557,1.371,2.547,1.371Z" style="fill: #4d7c3d;"/>
                    </g>
                  </g>
                </g>
              </g>
            </g>
          </g>
          <g style="clip-path: url(#clippath-35);">
            <path d="M130.067,229.764v-43.743c0-5.068,4.112-9.177,9.184-9.177h1.685c5.072,0,9.184-4.109,9.184-9.177v-31.164c0-5.068,4.112-9.177,9.184-9.177h7.342c5.072,0,9.184-4.109,9.184-9.177v-19.766c0-5.068,4.112-9.177,9.184-9.177h23.025c5.072,0,9.184,4.109,9.184,9.177l-.002,101.381c0,4.918,3.989,8.905,8.912,8.905h.231c5.118,0,9.231-4.069,9.231-9.138,0-8.621,0-21.473-.001-30.093,0-5.068,4.112-9.137,9.184-9.137h23.025c5.072,0,9.184,4.109,9.184,9.177v22.383c0,5.068,4.112,9.177,9.184,9.177h4.656c5.072,0,9.184,4.109,9.184,9.177v230.973c0,5.068-4.112,9.177-9.184,9.177h-9.557c-5.072,0-9.184-4.109-9.184-9.177v-22.383c0-5.068-4.112-9.177-9.184-9.177h-23.844c-11.159,0-20.206-9.039-20.206-20.189v-46.071c0-5.068-4.112-9.177-9.184-9.177h-5.2c-5.072,0-9.184-4.109-9.184-9.177v-22.462c0-5.068-4.112-9.177-9.184-9.177h.249c-5.072,0-9.184,4.109-9.184,9.177v64.923c0,5.068-4.112,9.177-9.184,9.177h-3.432c-5.072,0-9.184,4.109-9.184,9.177l-2.698,31.164c0,5.068-4.112,9.177-9.184,9.177h-7.073c-5.072,0-9.184,4.109-9.184,9.177v43.743c0,5.068-4.112,9.177-9.184,9.177h-4.229c-5.072,0-9.184-4.109-9.184-9.177v-230.973c0-5.068,4.112-9.177,9.184-9.177h7.073c5.072,0,9.184-4.109,9.184-9.177Z" style="fill: #3d8850; fill-rule: evenodd;"/>
          </g>
        </g>
      </g>
    </g>
  </g>
</svg>