<?xml version="1.0" encoding="UTF-8"?>
<svg xmlns="http://www.w3.org/2000/svg" width="1500" height="145" xmlns:xlink="http://www.w3.org/1999/xlink" version="1.1" viewBox="0 0 1500 145">
  <!-- Generator: Adobe Illustrator 30.5.1, SVG Export Plug-In . SVG Version: 2.1.4 Build 3)  -->
  <defs>
    <clipPath id="clippath">
      <rect width="1500" height="145" style="fill: none;"/>
    </clipPath>
    <clipPath id="clippath-1">
      <path d="M855.883-43.848c12.773,0,23.123,10.088,23.123,22.531V7.013c0,12.443-10.35,22.529-23.123,22.529-4.913,0-9.891,0-14.165,0-7.467,0-14.525,3.36-19.111,9.102-2.669,3.357-5.699,7.159-8.384,10.516-4.585,5.742-11.643,9.1-19.111,9.1-15.409,0-42.479,0-59.952,0-9.187,0-16.638-7.254-16.638-16.205v-14.627c0-5.787-2.358-11.336-6.55-15.426-4.209-4.092-9.907-6.391-15.835-6.391h-2.047c-6.55,0-12.822-2.534-17.457-7.045-4.634-4.512-7.238-10.63-7.238-17.011v-1.345c0-13.285,11.054-24.058,24.695-24.058,40.858,0,121.983,0,161.793,0Z" style="clip-rule: evenodd; fill: none;"/>
    </clipPath>
    <clipPath id="clippath-2">
      <path d="M598.062-29.331h18.181s4.927,44.959,4.927,44.959c.273,2.492-1.68,4.668-4.189,4.668h-19.747c-2.512,0-4.466-2.182-4.188-4.677l5.015-44.95Z" style="fill: none;"/>
    </clipPath>
    <clipPath id="clippath-3">
      <path d="M607.094-6.722l14.578-10.615c8.052-5.863,8.962-17.524,1.917-24.563l-5.099-5.095h-22.79s-5.099,5.095-5.099,5.095c-7.045,7.039-6.135,18.7,1.917,24.563l14.578,10.615Z" style="clip-rule: evenodd; fill: none;"/>
    </clipPath>
    <clipPath id="clippath-4">
      <path d="M308.292-11.954h18.181s4.927,44.959,4.927,44.959c.273,2.492-1.68,4.668-4.189,4.668h-19.747c-2.512,0-4.466-2.182-4.188-4.677l5.015-44.95Z" style="fill: none;"/>
    </clipPath>
    <clipPath id="clippath-5">
      <path d="M317.337-13.588c0,6.428-2.555,12.596-7.106,17.143-4.551,4.547-10.723,7.1-17.16,7.1-12.189,0-24.406,0-24.406,0,0,0,0-7.501,0-16.027,0-6.432,2.555-12.599,7.106-17.146,4.551-4.544,10.723-7.1,17.16-7.1,12.189,0,24.406,0,24.406,0,0,0,0,7.501,0,16.03Z" style="clip-rule: evenodd; fill: none;"/>
    </clipPath>
    <clipPath id="clippath-6">
      <path d="M317.337-13.588c0,6.428,2.555,12.596,7.106,17.143,4.551,4.547,10.723,7.1,17.16,7.1,12.189,0,24.406,0,24.406,0,0,0,0-7.501,0-16.027,0-6.432-2.555-12.599-7.106-17.146-4.551-4.544-10.723-7.1-17.16-7.1-12.189,0-24.406,0-24.406,0,0,0,0,7.501,0,16.03Z" style="clip-rule: evenodd; fill: none;"/>
    </clipPath>
    <clipPath id="clippath-8">
      <path d="M317.324,10.654L331.901.04c8.052-5.863,8.962-17.524,1.917-24.563l-5.099-5.095h-22.79s-5.099,5.095-5.099,5.095c-7.045,7.039-6.135,18.7,1.917,24.563l14.578,10.615Z" style="clip-rule: evenodd; fill: none;"/>
    </clipPath>
    <clipPath id="clippath-9">
      <path d="M208.403-7.56c2.935,1.54,4.525,4.952,3.57,8.36-.483,1.725-1.675,3.162-3.176,4.142-6.989,4.564-16.217,10.589-23.549,15.375-7.543,4.924-17.161,5.381-25.138,1.195l-16.274-8.539c-1.106-.58-2.079-1.432-2.674-2.529-1.473-2.717-.765-5.89,1.411-7.733,8.759-7.416,23.371-19.788,29.654-25.107,1.831-1.55,4.414-1.829,6.538-.714l29.637,15.551Z" style="clip-rule: evenodd; fill: none;"/>
    </clipPath>
    <clipPath id="clippath-11">
      <path d="M110.422,149.162h18.181s4.927,44.959,4.927,44.959c.273,2.492-1.68,4.668-4.189,4.668h-19.747c-2.512,0-4.466-2.182-4.188-4.677l5.015-44.95Z" style="fill: none;"/>
    </clipPath>
    <clipPath id="clippath-12">
      <path d="M119.468,147.528c0,6.428-2.555,12.596-7.106,17.143-4.551,4.547-10.723,7.1-17.16,7.1-12.189,0-24.406,0-24.406,0,0,0,0-7.501,0-16.027,0-6.432,2.555-12.599,7.106-17.146,4.551-4.544,10.723-7.1,17.16-7.1,12.189,0,24.406,0,24.406,0,0,0,0,7.501,0,16.03Z" style="clip-rule: evenodd; fill: none;"/>
    </clipPath>
    <clipPath id="clippath-13">
      <path d="M119.468,147.528c0,6.428,2.555,12.596,7.106,17.143,4.551,4.547,10.723,7.1,17.16,7.1,12.189,0,24.406,0,24.406,0,0,0,0-7.501,0-16.027,0-6.432-2.555-12.599-7.106-17.146-4.551-4.544-10.723-7.1-17.16-7.1-12.189,0-24.406,0-24.406,0,0,0,0,7.501,0,16.03Z" style="clip-rule: evenodd; fill: none;"/>
    </clipPath>
    <clipPath id="clippath-15">
      <path d="M119.454,171.77l14.578-10.615c8.052-5.863,8.962-17.524,1.917-24.563l-5.099-5.095h-22.79s-5.099,5.095-5.099,5.095c-7.045,7.039-6.135,18.7,1.917,24.563l14.578,10.615Z" style="clip-rule: evenodd; fill: none;"/>
    </clipPath>
    <clipPath id="clippath-16">
      <path d="M152.358,352.439c-1.779,0-3.476-.747-4.677-2.059-1.201-1.312-1.795-3.067-1.637-4.838,3.407-38.159,19.938-223.283,23.823-266.785.465-5.207,4.828-9.165,10.06-9.165h21.874c5.254,0,9.632,4.024,10.068,9.256l4.279,51.31h15.559c2.848,0,5.445,1.596,6.719,4.141,2.146,4.288,5.408,10.807,7.035,14.058.657,1.312,1.038,2.745,1.119,4.21.774,13.926,4.928,88.628,4.928,88.628,0,0,17.113,4.885,27.528,7.858,4.64,1.324,7.831,5.559,7.831,10.38v86.672c0,1.68-.668,3.291-1.857,4.478-1.189,1.188-2.801,1.855-4.482,1.855-13.722,0-117.739,0-128.171,0Z" style="clip-rule: evenodd; fill: none;"/>
    </clipPath>
    <clipPath id="clippath-17">
      <path d="M665.831,145.532s-34.07-30.162-41.357-36.612h-2.719c-7.287,6.45-41.357,36.612-41.357,36.612v33.873c0,.796.317,1.559.879,2.121.565.565,1.329.881,2.126.881h79.423c.797,0,1.56-.316,2.126-.881.563-.562.88-1.325.88-2.121v-33.873Z" style="clip-rule: evenodd; fill: none;"/>
    </clipPath>
    <clipPath id="clippath-18">
      <path d="M800.207,145.532s-34.07-30.162-41.357-36.612h-2.719c-7.287,6.45-41.357,36.612-41.357,36.612v33.873c0,.796.317,1.559.879,2.121.565.565,1.329.881,2.126.881h79.423c.797,0,1.56-.316,2.126-.881.563-.562.88-1.325.88-2.121v-33.873Z" style="clip-rule: evenodd; fill: none;"/>
    </clipPath>
    <clipPath id="clippath-19">
      <path d="M1438.852,30.873s3.446-3.535,5.118-5.305c.106-.112.274-.138.408-.064.135.074.203.229.166.379-.425,1.695-1.166,4.653-1.489,5.941-.104.413-.104.845,0,1.258.323,1.288,1.064,4.245,1.489,5.941.037.149-.031.305-.166.379-.135.074-.303.047-.408-.064-1.672-1.769-5.118-5.549-5.118-5.549l-.294-1.432.294-1.481Z" style="clip-rule: evenodd; fill: #61d1d5;"/>
    </clipPath>
    <clipPath id="clippath-20">
      <path d="M1419.39,50.335s3.446-3.535,5.118-5.305c.106-.112.274-.138.408-.064.135.074.203.229.166.379-.425,1.695-1.166,4.653-1.489,5.941-.104.413-.104.845,0,1.258.323,1.288,1.064,4.245,1.489,5.941.037.149-.031.305-.166.379-.135.074-.303.047-.408-.064-1.672-1.769-5.118-5.549-5.118-5.549l-.294-1.432.294-1.481Z" style="clip-rule: evenodd; fill: #61d1d5;"/>
    </clipPath>
    <clipPath id="clippath-21">
      <path d="M1462.983,51.148s2.556-2.622,3.796-3.934c.078-.083.203-.103.303-.048.1.055.151.17.123.281-.315,1.257-.865,3.451-1.104,4.406-.077.306-.077.627,0,.933.239.955.789,3.149,1.104,4.406.028.111-.023.226-.123.281-.1.055-.225.035-.303-.048-1.24-1.312-3.796-4.116-3.796-4.116l-.218-1.062.218-1.099Z" style="clip-rule: evenodd; fill: #61d1d5;"/>
    </clipPath>
  </defs>
  <g style="isolation: isolate;">
    <g id="Details">
      <g style="clip-path: url(#clippath);">
        <rect x="-10.125" y="-133.498" width="1520.249" height="3053.416" style="fill: #61d1d5;"/>
        <path d="M1209.742-438.582c-76.136,0-138.076,61.941-138.076,138.077,0,9.374-7.626,17-17,17h-106.263c-9.374,0-17-7.626-17-17v-2.009c0-36.943-30.057-67-67-67h-75.775c-41.992,0-76.156-34.163-76.156-76.156v-85.988c0-34.188-27.813-62-62-62h-144.932c-34.187,0-62,27.812-62,62v1.583c0,6.616-5.383,12-12,12h-77.199c-41.355,0-75,33.645-75,75v1.615c0,6.616-5.383,12-12,12H-56.875v1900.227h125.29c19.299,0,35,15.701,35,35v28.562c0,46.869,38.131,85,85,85h282.678c46.869,0,85-38.131,85-85v-4.012c0-19.299,15.701-35,35-35h100.898c106.145,0,192.5-86.354,192.5-192.5,0-13.785,11.215-25,25-25h189.302c13.785,0,25,11.215,25,25v6.941c0,13.785-11.215,25-25,25h-1.646c-41.355,0-75,33.646-75,75.001v134.569c0,41.355,33.645,75,75,75h68.108c41.355,0,75-33.645,75-75,0-34.095,27.737-61.833,61.832-61.833h254.837V-438.582h-347.181Z" style="fill: #7ee6e4;"/>
        <path d="M1045.191,136.028h0c0-51.28,41.571-92.851,92.85-92.851h57.665c32.387,0,58.642-26.255,58.642-58.642h0c0-32.387,26.255-58.642,58.642-58.642h218.932v-339.474h-322.181c-62.45,0-113.076,50.626-113.076,113.076h0c0,23.196-18.804,42-42,42h-106.262c-23.196,0-42-18.804-42-42v-2.009c0-23.196-18.804-42-42-42h-75.776c-55.867,0-101.156-45.289-101.156-101.156v-85.988c0-20.435-16.565-37-37-37h-144.932c-20.435,0-37,16.565-37,37v1.583c0,20.435-16.565,37-37,37h-77.199c-27.614,0-50,22.386-50,50v1.615c0,20.435-16.565,37-37,37H-31.875v1850.227h100.289c33.137,0,60,26.863,60,60v28.561c0,33.137,26.863,60,60,60h282.678c33.137,0,60-26.863,60-60v-4.011c0-33.137,26.863-60,60-60h100.898c92.508,0,167.5-74.992,167.5-167.5h0c0-27.614,22.386-50,50-50h189.302c27.614,0,50,22.386,50,50v6.942c0,27.614-22.386,50-50,50h-1.647c-27.614,0-50,22.386-50,50v134.57c0,27.614,22.386,50,50,50h68.108c27.614,0,50-22.386,50-50h0c0-47.956,38.876-86.832,86.832-86.832h229.837v-328.037c0-39.064-31.668-70.732-70.732-70.732h-323.15c-50.932,0-92.285-41.008-92.845-91.807-.004-.347-.006-830.544-.006-830.892Z" style="fill: #fbed97;"/>
        <g>
          <path d="M1209.742-353.581c-29.313,0-53.076,23.763-53.076,53.076h0c0,56.333-45.667,102-102,102h-353.588c-40.652,0-73.606-32.955-73.606-73.606v-210.547c0-14.359-11.641-26-26-26h-56.442c-10.394,0-19.895,6.146-23.89,15.742-14.612,35.099-49.272,59.841-89.6,59.841h-46.653c-11.17,0-21.157,7.295-24.204,18.042-11.534,40.685-49.013,70.574-93.342,70.574H-1.979l-11.374,1742.34,115.314-.491c49.895,14.55,86.454,60.7,86.454,115.229v.695c.001,13.259,10.754,24.004,24.013,23.997l236.679-.131c11.698-.007,21.708-8.443,23.64-19.98,9.508-56.77,58.875-100.032,118.346-100.032h100.898c59.37,0,107.5-48.129,107.5-107.5h0c0-60.752,49.249-110,110-110h189.003c21.384,0,38.798-17.186,39.08-38.568h0c.246-18.686-12.768-34.942-31.062-38.758-28.801-6.009-55.263-20.244-76.552-41.532-28.243-28.244-44.073-65.595-44.746-105.431-.015-.883-.022-838.466-.022-839.351,0-40.828,15.899-79.212,44.769-108.081,28.87-28.869,67.254-44.769,108.082-44.769h28.622c14.589,0,27.327-10.069,30.48-24.313,11.76-53.123,59.237-92.972,115.846-92.972h312.76v-219.474h-416.008Z" style="fill: #62c244;"/>
          <g>
            <line x1="-2.045" y1="-334.447" x2="-13.321" y2="1392.874" style="fill: none; stroke: #62c244; stroke-dasharray: 0 10.014; stroke-linecap: round; stroke-linejoin: round; stroke-width: 10px;"/>
            <path d="M-3.347,1397.838l105.307-.449c49.895,14.55,86.454,60.7,86.454,115.229v.695c.001,13.259,10.754,24.004,24.013,23.997l236.679-.131c11.698-.007,21.708-8.443,23.64-19.98,9.508-56.77,58.875-100.032,118.346-100.032h100.898c59.37,0,107.5-48.129,107.5-107.5h0c0-60.751,49.249-110,110-110h189.003c21.384,0,38.798-17.186,39.08-38.568.246-18.686-12.768-34.942-31.062-38.758-28.801-6.009-55.263-20.244-76.552-41.532-28.243-28.244-44.073-65.594-44.746-105.431-.015-.882-.022-838.466-.022-839.351,0-40.828,15.899-79.212,44.769-108.081,28.87-28.869,67.254-44.769,108.082-44.769h28.623c14.589,0,27.327-10.069,30.48-24.313,11.76-53.123,59.237-92.972,115.846-92.972h307.757" style="fill: none; stroke: #62c244; stroke-dasharray: 0 10.007; stroke-linecap: round; stroke-linejoin: round; stroke-width: 10px;"/>
          </g>
        </g>
        <g>
          <path d="M914.223-23.219v250.57c0,30.12-24.417,54.537-54.537,54.537h-80.08c-29.292,0-53.038,23.746-53.038,53.038v153.905c0,29.292-23.746,53.038-53.038,53.038h-183.486c-37.785,0-68.416,30.631-68.416,68.416h0c0,37.785-30.631,68.416-68.416,68.416h-33.231c-37.785,0-68.416-30.631-68.416-68.416v-84.054c0-37.785-30.631-68.416-68.416-68.416H5.265c-15.114,0-27.366-12.252-27.366-27.366V-282.962h290.764c35.899,0,65,29.101,65,65v20.473c0,35.899,29.101,65,65,65h257.533c15.114,0,27.366,12.252,27.366,27.366h0c0,15.114,12.252,27.366,27.366,27.366h148.757c30.12,0,54.537,24.417,54.537,54.537Z" style="fill: #52ab35;"/>
          <path d="M-12.116-282.962h280.778c35.898,0,65,29.101,65,65v20.473c0,35.898,29.101,65,65,65h257.533c15.114,0,27.366,12.252,27.366,27.366s12.252,27.366,27.366,27.366h148.757c30.12,0,54.537,24.417,54.537,54.537v250.57c0,30.12-24.417,54.537-54.537,54.537h-80.08c-29.292,0-53.038,23.746-53.038,53.038v153.905c0,29.292-23.746,53.038-53.038,53.038h-183.486c-37.785,0-68.416,30.631-68.416,68.416s-30.631,68.416-68.416,68.416h-33.231c-37.785,0-68.416-30.631-68.416-68.416v-84.054c0-37.785-30.631-68.416-68.416-68.416H5.265c-15.114,0-27.366-12.252-27.366-27.366V-277.969" style="fill: none; stroke: #52ab35; stroke-dasharray: 0 9.986; stroke-linecap: round; stroke-linejoin: round; stroke-width: 10px;"/>
        </g>
        <g>
          <g style="clip-path: url(#clippath-1);">
            <path d="M855.883-43.848c12.773,0,23.123,10.088,23.123,22.531V7.013c0,12.443-10.35,22.529-23.123,22.529-4.913,0-9.891,0-14.165,0-7.467,0-14.525,3.36-19.111,9.102-2.669,3.357-5.699,7.159-8.384,10.516-4.585,5.742-11.643,9.1-19.111,9.1-15.409,0-42.479,0-59.952,0-9.187,0-16.638-7.254-16.638-16.205v-14.627c0-5.787-2.358-11.336-6.55-15.426-4.209-4.092-9.907-6.391-15.835-6.391h-2.047c-6.55,0-12.822-2.534-17.457-7.045-4.634-4.512-7.238-10.63-7.238-17.011v-1.345c0-13.285,11.054-24.058,24.695-24.058,40.858,0,121.983,0,161.793,0Z" style="fill: #5fcdc5; fill-rule: evenodd;"/>
            <path d="M855.883-35.55c12.773,0,23.123,10.088,23.123,22.531V15.311c0,12.443-10.35,22.529-23.123,22.529-4.913,0-9.891,0-14.165,0-7.467,0-14.525,3.36-19.111,9.102-2.669,3.357-5.699,7.159-8.384,10.516-4.585,5.742-11.643,9.1-19.111,9.1-15.409,0-42.479,0-59.952,0-9.187,0-16.638-7.254-16.638-16.205v-14.627c0-5.787-2.358-11.336-6.55-15.426-4.209-4.092-9.907-6.391-15.835-6.391h-2.047c-6.55,0-12.822-2.534-17.457-7.045-4.634-4.512-7.238-10.63-7.238-17.011v-1.345c0-13.285,11.054-24.058,24.695-24.058,40.858,0,121.983,0,161.793,0Z" style="fill: #69e3de; fill-rule: evenodd;"/>
          </g>
          <line x1="745.231" y1="30.052" x2="756.531" y2="30.052" style="fill: none; mix-blend-mode: overlay; stroke: #fff; stroke-linecap: round; stroke-linejoin: round; stroke-width: 3.233px;"/>
          <line x1="789.102" y1="14.736" x2="793.769" y2="14.736" style="fill: none; mix-blend-mode: overlay; stroke: #fff; stroke-linecap: round; stroke-linejoin: round; stroke-width: 3.233px;"/>
          <line x1="780.767" y1="30.052" x2="767.519" y2="30.052" style="fill: none; mix-blend-mode: overlay; stroke: #fff; stroke-linecap: round; stroke-linejoin: round; stroke-width: 3.233px;"/>
          <line x1="809.359" y1="14.736" x2="810.145" y2="14.736" style="fill: none; mix-blend-mode: overlay; stroke: #fff; stroke-linecap: round; stroke-linejoin: round; stroke-width: 3.233px;"/>
          <line x1="761.443" y1="44.044" x2="756.76" y2="44.044" style="fill: none; mix-blend-mode: overlay; stroke: #fff; stroke-linecap: round; stroke-linejoin: round; stroke-width: 3.233px;"/>
          <g style="mix-blend-mode: overlay;">
            <line x1="765.195" y1="13.369" x2="760.528" y2="13.369" style="fill: none; stroke: #fff; stroke-linecap: round; stroke-linejoin: round; stroke-width: 3.233px;"/>
            <line x1="744.938" y1="13.369" x2="744.152" y2="13.369" style="fill: none; stroke: #fff; stroke-linecap: round; stroke-linejoin: round; stroke-width: 3.233px;"/>
          </g>
        </g>
        <g style="opacity: .331;">
          <path d="M844.033,88.383c-1.232,0-2.231-1-2.231-2.236v-7.001c0-1.236.999-2.236,2.231-2.236s2.231,1,2.231,2.236v7.001c0,1.236-.999,2.236-2.231,2.236Z" style="fill: #00703a;"/>
          <path d="M853.348,88.383c-1.232,0-2.231-1-2.231-2.236v-4.667c0-1.236.999-2.236,2.231-2.236s2.231,1,2.231,2.236v4.667c0,1.236-.999,2.236-2.231,2.236Z" style="fill: #00703a;"/>
          <path d="M835.495,88.383c-1.232,0-2.231-1-2.231-2.236v-4.667c0-1.236.999-2.236,2.231-2.236s2.231,1,2.231,2.236v4.667c0,1.236-.999,2.236-2.231,2.236Z" style="fill: #00703a;"/>
          <path d="M869.164,106.861c-1.232,0-2.231-1-2.231-2.236v-7.001c0-1.236.999-2.236,2.231-2.236,1.232,0,2.231,1,2.231,2.236v7.001c0,1.236-.999,2.236-2.231,2.236Z" style="fill: #00703a;"/>
          <path d="M878.478,106.861c-1.232,0-2.231-1-2.231-2.236v-4.669c0-1.236.999-2.236,2.231-2.236,1.232,0,2.231,1,2.231,2.236v4.669c0,1.236-.999,2.236-2.231,2.236Z" style="fill: #00703a;"/>
          <path d="M860.627,106.861c-1.232,0-2.231-1-2.231-2.236v-4.669c0-1.236.999-2.236,2.231-2.236s2.231,1,2.231,2.236v4.669c0,1.236-.999,2.236-2.231,2.236Z" style="fill: #00703a;"/>
          <path d="M877.797,68.155c-1.232,0-2.231-1-2.231-2.236v-7.001c0-1.236.999-2.236,2.231-2.236,1.232,0,2.231,1,2.231,2.236v7.001c0,1.236-.999,2.236-2.231,2.236Z" style="fill: #00703a;"/>
          <path d="M887.112,68.155c-1.232,0-2.231-1-2.231-2.236v-4.669c0-1.236.999-2.236,2.231-2.236s2.231,1,2.231,2.236v4.669c0,1.236-.999,2.236-2.231,2.236Z" style="fill: #00703a;"/>
          <path d="M869.26,68.155c-1.232,0-2.231-1-2.231-2.236v-4.669c0-1.236.999-2.236,2.231-2.236s2.231,1,2.231,2.236v4.669c0,1.236-.999,2.236-2.231,2.236Z" style="fill: #00703a;"/>
        </g>
        <g style="opacity: .331;">
          <path d="M457.512,54.25c1.232,0,2.231-1,2.231-2.236v-7.001c0-1.236-.999-2.236-2.231-2.236-1.232,0-2.231,1-2.231,2.236v7.001c0,1.236.999,2.236,2.231,2.236Z" style="fill: #00703a;"/>
          <path d="M448.198,54.25c1.232,0,2.231-1,2.231-2.236v-4.667c0-1.236-.999-2.236-2.231-2.236-1.232,0-2.231,1-2.231,2.236v4.667c0,1.236.999,2.236,2.231,2.236Z" style="fill: #00703a;"/>
          <path d="M466.05,54.25c1.232,0,2.231-1,2.231-2.236v-4.667c0-1.236-.999-2.236-2.231-2.236-1.232,0-2.231,1-2.231,2.236v4.667c0,1.236.999,2.236,2.231,2.236Z" style="fill: #00703a;"/>
          <path d="M432.381,72.728c1.232,0,2.231-1,2.231-2.236v-7.001c0-1.236-.999-2.236-2.231-2.236-1.232,0-2.231,1-2.231,2.236v7.001c0,1.236.999,2.236,2.231,2.236Z" style="fill: #00703a;"/>
          <path d="M423.067,72.728c1.232,0,2.231-1,2.231-2.236v-4.669c0-1.236-.999-2.236-2.231-2.236-1.232,0-2.231,1-2.231,2.236v4.669c0,1.236.999,2.236,2.231,2.236Z" style="fill: #00703a;"/>
          <path d="M440.918,72.728c1.232,0,2.231-1,2.231-2.236v-4.669c0-1.236-.999-2.236-2.231-2.236-1.232,0-2.231,1-2.231,2.236v4.669c0,1.236.999,2.236,2.231,2.236Z" style="fill: #00703a;"/>
          <path d="M423.748,34.022c1.232,0,2.231-1,2.231-2.236v-7.001c0-1.236-.999-2.236-2.231-2.236-1.232,0-2.231,1-2.231,2.236v7.001c0,1.236.999,2.236,2.231,2.236Z" style="fill: #00703a;"/>
          <path d="M414.433,34.022c1.232,0,2.231-1,2.231-2.236v-4.669c0-1.236-.999-2.236-2.231-2.236s-2.231,1-2.231,2.236v4.669c0,1.236.999,2.236,2.231,2.236Z" style="fill: #00703a;"/>
          <path d="M432.285,34.022c1.232,0,2.231-1,2.231-2.236v-4.669c0-1.236-.999-2.236-2.231-2.236-1.232,0-2.231,1-2.231,2.236v4.669c0,1.236.999,2.236,2.231,2.236Z" style="fill: #00703a;"/>
        </g>
        <g>
          <path d="M957.369,40.413c0-.822-.326-1.608-.906-2.188-.582-.582-1.369-.908-2.19-.908s-1.608.326-2.19.908c-.58.58-.906,1.367-.906,2.188v2.064c0,2.851,2.31,5.161,5.161,5.161h1.032v-7.226Z" style="fill: #d9df50; fill-rule: evenodd; stroke: #d9df50; stroke-miterlimit: 10; stroke-width: .31px;"/>
          <path d="M969.756,32.155c0-.822-.326-1.608-.906-2.188-.582-.582-1.369-.908-2.19-.908s-1.608.326-2.19.908c-.58.58-.906,1.367-.906,2.188v15.484h6.193v-15.484Z" style="fill: #d9df50; fill-rule: evenodd; stroke: #d9df50; stroke-miterlimit: 10; stroke-width: .31px;"/>
          <path d="M975.95,36.284c0-.822-.326-1.608-.906-2.188-.582-.582-1.369-.908-2.19-.908s-1.608.326-2.19.908c-.58.58-.906,1.367-.906,2.188v11.355h6.193v-11.355Z" style="fill: #d9df50; fill-rule: evenodd; stroke: #d9df50; stroke-miterlimit: 10; stroke-width: .31px;"/>
          <path d="M963.563,36.284c0-.822-.326-1.608-.906-2.188-.582-.582-1.369-.908-2.19-.908s-1.608.326-2.19.908c-.58.58-.906,1.367-.906,2.188v11.355h6.193v-11.355Z" style="fill: #d9df50; fill-rule: evenodd; stroke: #d9df50; stroke-miterlimit: 10; stroke-width: .31px;"/>
          <path d="M982.143,40.413c0-.822-.326-1.608-.906-2.188-.582-.582-1.369-.908-2.19-.908s-1.608.326-2.19.908c-.58.58-.906,1.367-.906,2.188v7.226h1.032c2.851,0,5.161-2.31,5.161-5.161v-2.064Z" style="fill: #d9df50; fill-rule: evenodd; stroke: #d9df50; stroke-miterlimit: 10; stroke-width: .31px;"/>
        </g>
        <g style="opacity: .35;">
          <g>
            <circle cx="1198.458" cy="-1.286" r="2.829" transform="translate(146.688 573.242) rotate(-28.584)" style="fill: #f2b052; opacity: .6;"/>
            <circle cx="1215.453" cy="7.452" r="2.829" transform="translate(144.579 582.439) rotate(-28.584)" style="fill: #f2b052; opacity: .6;"/>
          </g>
        </g>
        <g>
          <g>
            <g>
              <g>
                <path d="M598.062-29.331h18.181s4.927,44.959,4.927,44.959c.273,2.492-1.68,4.668-4.189,4.668h-19.747c-2.512,0-4.466-2.182-4.188-4.677l5.015-44.95Z" style="fill: #6b4c46;"/>
                <g style="clip-path: url(#clippath-2);">
                  <path d="M607.094,3.168l14.862-10.822c8.209-5.977,9.137-17.867,1.954-25.043l-5.199-5.195h-23.236s-5.199,5.195-5.199,5.195c-7.183,7.177-6.255,19.066,1.954,25.043l14.862,10.822Z" style="fill: #594237; fill-rule: evenodd;"/>
                </g>
              </g>
              <g style="clip-path: url(#clippath-3);">
                <rect x="604.064" y="-51.385" width="6.084" height="53.015" style="fill: #d6e23d;"/>
              </g>
            </g>
            <line x1="582.394" y1="20.296" x2="631.822" y2="19.757" style="fill: #52ab35; stroke: #52ab35; stroke-dasharray: 0 10; stroke-linecap: round; stroke-linejoin: round; stroke-width: 10px;"/>
          </g>
          <g>
            <g>
              <g>
                <path d="M308.292-11.954h18.181s4.927,44.959,4.927,44.959c.273,2.492-1.68,4.668-4.189,4.668h-19.747c-2.512,0-4.466-2.182-4.188-4.677l5.015-44.95Z" style="fill: #6b4c46;"/>
                <g style="clip-path: url(#clippath-4);">
                  <path d="M317.324,20.545l14.862-10.822c8.209-5.977,9.137-17.867,1.954-25.043l-5.199-5.195h-23.236s-5.199,5.195-5.199,5.195c-7.183,7.177-6.255,19.066,1.954,25.043l14.862,10.822Z" style="fill: #594237; fill-rule: evenodd;"/>
                </g>
              </g>
              <g>
                <g>
                  <path d="M317.337-13.588c0,6.428-2.555,12.596-7.106,17.143-4.551,4.547-10.723,7.1-17.16,7.1-12.189,0-24.406,0-24.406,0,0,0,0-7.501,0-16.027,0-6.432,2.555-12.599,7.106-17.146,4.551-4.544,10.723-7.1,17.16-7.1,12.189,0,24.406,0,24.406,0,0,0,0,7.501,0,16.03Z" style="fill: #abc02e; fill-rule: evenodd;"/>
                  <g style="clip-path: url(#clippath-5);">
                    <polygon points="317.337 -29.619 263.022 16.806 317.337 16.806 317.337 -29.619" style="fill: #839d24; fill-rule: evenodd;"/>
                    <rect x="261.597" y="-12.81" width="62.808" height="6.08" transform="translate(72.246 183.135) rotate(-39.239)" style="fill: #bdd033;"/>
                    <path d="M288.945,13.281h6.084s0-6.31,0-10.225c0-1.678-1.363-3.039-3.042-3.039-1.679,0-3.042,1.362-3.042,3.039,0,3.915,0,10.225,0,10.225Z" style="fill: #4d7c3d; fill-rule: evenodd; opacity: .5;"/>
                    <path d="M301.113,13.73h6.084s0-13.881,0-20.176c0-1.678-1.36-3.036-3.039-3.036h-.006c-1.679,0-3.039,1.359-3.039,3.036,0,6.295,0,20.176,0,20.176Z" style="fill: #4d7c3d; fill-rule: evenodd; opacity: .5;"/>
                  </g>
                </g>
                <g>
                  <path d="M317.337-13.588c0,6.428,2.555,12.596,7.106,17.143,4.551,4.547,10.723,7.1,17.16,7.1,12.189,0,24.406,0,24.406,0,0,0,0-7.501,0-16.027,0-6.432-2.555-12.599-7.106-17.146-4.551-4.544-10.723-7.1-17.16-7.1-12.189,0-24.406,0-24.406,0,0,0,0,7.501,0,16.03Z" style="fill: #abc02e; fill-rule: evenodd;"/>
                  <g style="clip-path: url(#clippath-6);">
                    <polygon points="317.337 -29.619 371.653 16.806 317.337 16.806 317.337 -29.619" style="fill: #839d24; fill-rule: evenodd;"/>
                    <rect x="338.634" y="-41.174" width="6.08" height="62.808" transform="translate(133.3 261.185) rotate(-50.801)" style="fill: #bdd033;"/>
                    <path d="M345.73,13.281h-6.084s0-6.31,0-10.225c0-1.678,1.363-3.039,3.042-3.039,1.679,0,3.042,1.362,3.042,3.039,0,3.915,0,10.225,0,10.225Z" style="fill: #4d7c3d; fill-rule: evenodd; opacity: .5;"/>
                    <path d="M333.561,13.73h-6.084s0-13.878,0-20.173c0-.805.319-1.577.891-2.149.569-.568,1.345-.891,2.151-.891.806,0,1.582.322,2.151.891.572.571.891,1.343.891,2.149,0,6.295,0,20.173,0,20.173Z" style="fill: #4d7c3d; fill-rule: evenodd; opacity: .5;"/>
                  </g>
                </g>
                <g>
                  <path d="M317.324,10.654L331.901.04c8.052-5.863,8.962-17.524,1.917-24.563l-5.099-5.095h-22.79s-5.099,5.095-5.099,5.095c-7.045,7.039-6.135,18.7,1.917,24.563l14.578,10.615Z" style="fill: #bdd033; fill-rule: evenodd;"/>
                  <g style="clip-path: url(#clippath-8);">
                    <rect x="294.325" y="-31.464" width="22.999" height="43.615" transform="translate(611.649 -19.312) rotate(-180)" style="fill: #839d24;"/>
                    <rect x="314.294" y="-34.009" width="6.084" height="53.015" style="fill: #d6e23d;"/>
                    <g>
                      <path d="M338.907,6.448c.99,0,1.965-.483,2.547-1.371.923-1.405.531-3.289-.875-4.209l-12.366-8.105c-1.406-.926-3.292-.526-4.211.873-.923,1.405-.531,3.289.875,4.209l12.366,8.105c.515.338,1.093.499,1.664.499Z" style="fill: #839d24; opacity: .5;"/>
                      <g style="opacity: .5;">
                        <path d="M295.768,6.448c.57,0,1.149-.16,1.664-.499l12.362-8.105c1.406-.92,1.798-2.804.875-4.209-.919-1.399-2.792-1.801-4.211-.873l-12.362,8.105c-1.406.92-1.798,2.804-.875,4.209.582.888,1.557,1.371,2.547,1.371Z" style="fill: #4d7c3d;"/>
                      </g>
                    </g>
                  </g>
                </g>
              </g>
            </g>
            <line x1="292.623" y1="37.672" x2="342.052" y2="37.133" style="fill: #52ab35; stroke: #52ab35; stroke-dasharray: 0 10; stroke-linecap: round; stroke-linejoin: round; stroke-width: 10px;"/>
          </g>
          <g>
            <path d="M695.679,88.321c0-.916-.744-1.66-1.661-1.661-.916-.001-1.66.743-1.659,1.659l.003,6.642c.001.916.745,1.66,1.661,1.661.917,0,1.661-.744,1.66-1.66l-.004-6.641Z" style="fill: #c32944; fill-rule: evenodd;"/>
            <path d="M697.342,93.302c.917,0,1.66-.743,1.659-1.659,0-.917-.744-1.66-1.661-1.661l-6.641-.004c-.917,0-1.661.744-1.66,1.66.001.916.746,1.66,1.661,1.661l6.642.003Z" style="fill: #c32944; fill-rule: evenodd;"/>
            <path d="M680.551,90.971c0-.916-.744-1.66-1.661-1.661-.916-.001-1.66.743-1.659,1.659l.003,6.642c.001.916.745,1.66,1.661,1.661.917,0,1.661-.744,1.66-1.66l-.004-6.641Z" style="fill: #c32944; fill-rule: evenodd;"/>
            <path d="M682.214,95.953c.917,0,1.66-.743,1.659-1.659,0-.917-.744-1.66-1.661-1.661l-6.641-.004c-.917,0-1.661.744-1.66,1.66.001.916.746,1.66,1.661,1.661l6.642.003Z" style="fill: #c32944; fill-rule: evenodd;"/>
          </g>
          <g>
            <path d="M115.468,52.613c.647-.648,1.7-.648,2.349,0,.648.647.648,1.699,0,2.347l-4.698,4.694c-.648.647-1.7.647-2.349,0-.648-.648-.648-1.7,0-2.348l4.698-4.693Z" style="fill: #f9e840; fill-rule: evenodd;"/>
            <path d="M110.77,54.96c-.648-.648-.648-1.7,0-2.347.648-.648,1.7-.648,2.349,0l4.698,4.693c.648.648.648,1.7,0,2.348-.648.647-1.701.647-2.349,0l-4.698-4.694Z" style="fill: #f9e840; fill-rule: evenodd;"/>
            <path d="M124.291,65.184c.647-.648,1.7-.648,2.349,0,.648.647.648,1.699,0,2.347l-4.698,4.694c-.648.647-1.7.647-2.349,0-.648-.648-.648-1.7,0-2.348l4.698-4.693Z" style="fill: #f9e840; fill-rule: evenodd;"/>
            <path d="M119.592,67.531c-.648-.648-.648-1.7,0-2.347.648-.648,1.7-.648,2.349,0l4.698,4.693c.648.648.648,1.7,0,2.348-.648.647-1.701.647-2.349,0l-4.698-4.694Z" style="fill: #f9e840; fill-rule: evenodd;"/>
          </g>
          <g>
            <path d="M208.403-7.56c2.935,1.54,4.525,4.952,3.57,8.36-.483,1.725-1.675,3.162-3.176,4.142-6.989,4.564-16.217,10.589-23.549,15.375-7.543,4.924-17.161,5.381-25.138,1.195l-16.274-8.539c-1.106-.58-2.079-1.432-2.674-2.529-1.473-2.717-.765-5.89,1.411-7.733,8.645-7.32,22.992-19.467,29.405-24.896,1.982-1.678,4.777-1.98,7.077-.774l29.348,15.4Z" style="fill: #8dd6f9; fill-rule: evenodd;"/>
            <g style="clip-path: url(#clippath-9);">
              <path d="M135.574,8.637s2.953,1.549,7.2,3.778c18.679,9.801,41.206,8.729,58.869-2.802,12.114-7.91,23.482-15.331,23.482-15.331" style="fill: none; stroke: #fff; stroke-linecap: round; stroke-linejoin: round; stroke-width: 18.747px;"/>
            </g>
            <rect x="161.547" y="15.023" width="10.435" height="18.673" rx="5.215" ry="5.215" style="fill: #52aa35;"/>
            <rect x="171.982" y="15.023" width="10.435" height="18.673" rx="5.215" ry="5.215" style="fill: #52aa35;"/>
          </g>
          <g>
            <path d="M76.586-35.958h18.181s4.927,44.959,4.927,44.959c.273,2.492-1.68,4.668-4.189,4.668h-19.747c-2.512,0-4.466-2.182-4.188-4.677l5.015-44.95Z" style="fill: #6b4c46;"/>
            <line x1="60.918" y1="13.668" x2="110.347" y2="13.129" style="fill: #52ab35; stroke: #52ab35; stroke-dasharray: 0 10; stroke-linecap: round; stroke-linejoin: round; stroke-width: 10px;"/>
          </g>
          <g>
            <g style="clip-path: url(#clippath-11);">
              <path d="M119.454,181.66l14.862-10.822c8.209-5.977,9.137-17.867,1.954-25.043l-5.199-5.195h-23.236s-5.199,5.195-5.199,5.195c-7.183,7.177-6.255,19.066,1.954,25.043l14.862,10.822Z" style="fill: #594237; fill-rule: evenodd;"/>
            </g>
            <g>
              <g>
                <path d="M119.468,147.528c0,6.428-2.555,12.596-7.106,17.143-4.551,4.547-10.723,7.1-17.16,7.1-12.189,0-24.406,0-24.406,0,0,0,0-7.501,0-16.027,0-6.432,2.555-12.599,7.106-17.146,4.551-4.544,10.723-7.1,17.16-7.1,12.189,0,24.406,0,24.406,0,0,0,0,7.501,0,16.03Z" style="fill: #abc02e; fill-rule: evenodd;"/>
                <g style="clip-path: url(#clippath-12);">
                  <polygon points="119.468 131.497 65.152 177.922 119.468 177.922 119.468 131.497" style="fill: #839d24; fill-rule: evenodd;"/>
                  <rect x="63.727" y="148.306" width="62.808" height="6.08" transform="translate(-74.284 94.301) rotate(-39.239)" style="fill: #bdd033;"/>
                  <path d="M70.795,142.895v-6.079s12.372,0,18.255,0c1.679,0,3.039,1.359,3.039,3.036v.006c0,1.678-1.36,3.036-3.039,3.036-5.883,0-18.255,0-18.255,0Z" style="fill: #839d24; fill-rule: evenodd; opacity: .75;"/>
                </g>
              </g>
              <g>
                <path d="M119.468,147.528c0,6.428,2.555,12.596,7.106,17.143,4.551,4.547,10.723,7.1,17.16,7.1,12.189,0,24.406,0,24.406,0,0,0,0-7.501,0-16.027,0-6.432-2.555-12.599-7.106-17.146-4.551-4.544-10.723-7.1-17.16-7.1-12.189,0-24.406,0-24.406,0,0,0,0,7.501,0,16.03Z" style="fill: #abc02e; fill-rule: evenodd;"/>
                <g style="clip-path: url(#clippath-13);">
                  <polygon points="119.468 131.497 173.783 177.922 119.468 177.922 119.468 131.497" style="fill: #839d24; fill-rule: evenodd;"/>
                  <rect x="140.764" y="119.942" width="6.08" height="62.808" transform="translate(-64.369 167.133) rotate(-50.801)" style="fill: #bdd033;"/>
                  <path d="M168.14,142.895v-6.079s-12.369,0-18.252,0c-.806,0-1.582.322-2.151.891-.572.571-.891,1.343-.891,2.149,0,.805.319,1.581.891,2.149.569.571,1.345.891,2.151.891,5.883,0,18.252,0,18.252,0Z" style="fill: #839d24; fill-rule: evenodd; opacity: .75;"/>
                </g>
              </g>
              <g>
                <path d="M119.454,171.77l14.578-10.615c8.052-5.863,8.962-17.524,1.917-24.563l-5.099-5.095h-22.79s-5.099,5.095-5.099,5.095c-7.045,7.039-6.135,18.7,1.917,24.563l14.578,10.615Z" style="fill: #bdd033; fill-rule: evenodd;"/>
                <g style="clip-path: url(#clippath-15);">
                  <rect x="96.455" y="129.652" width="22.999" height="43.615" transform="translate(215.909 302.92) rotate(-180)" style="fill: #839d24;"/>
                  <rect x="116.424" y="127.107" width="6.084" height="53.015" style="fill: #d6e23d;"/>
                  <g>
                    <g style="opacity: .5;">
                      <path d="M141.038,153.704c.99,0,1.965-.483,2.547-1.371.923-1.405.531-3.289-.875-4.209l-12.366-8.105c-1.406-.926-3.292-.526-4.211.873-.923,1.405-.531,3.289.875,4.209l12.366,8.105c.515.338,1.093.499,1.664.499Z" style="fill: #839d24;"/>
                    </g>
                    <g style="opacity: .5;">
                      <path d="M97.898,153.704c.57,0,1.149-.16,1.664-.499l12.362-8.105c1.406-.92,1.798-2.804.875-4.209-.919-1.399-2.792-1.801-4.211-.873l-12.362,8.105c-1.406.92-1.798,2.804-.875,4.209.582.888,1.557,1.371,2.547,1.371Z" style="fill: #4d7c3d;"/>
                    </g>
                  </g>
                </g>
              </g>
            </g>
          </g>
          <g>
            <g>
              <path d="M231.754,129.978l-3.805-4.896c-.212-.595-.437-1.318-.614-1.981-.212-.79-.386-1.586-.525-2.376-.274-1.578-.366-3.139-.214-4.517l.006-.059h0c.19-1.73-1.058-3.285-2.789-3.475-1.73-.19-3.287,1.057-3.478,2.786-.246,2.237-.079,4.332.26,6.331.175.999.391,1.978.649,2.942.269.986.534,1.865.935,2.932h0s.305.606.305.606c.104.204.258.386.458.526l5.977,4.162c.727.505,1.729.508,2.466-.064.907-.704,1.072-2.01.367-2.917Z" style="fill: #da781e;"/>
              <path d="M211.89,128.724h0c-.238-1.597-.762-2.884-1.336-4.088-.292-.598-.606-1.171-.937-1.731-.347-.574-.652-1.068-1.109-1.688l-.095-.129c-.121-.161-.259-.313-.414-.454-1.299-1.176-3.307-1.077-4.484.222-1.177,1.298-1.078,3.304.222,4.48.278.252.66.668.971,1.025.323.373.633.757.916,1.142.508.689.921,1.401,1.172,2.005l-.395,2.831c-.119.862.332,1.737,1.165,2.115,1.015.46,2.211.011,2.672-1.003l1.599-3.522c.098-.218.142-.468.111-.722l-.058-.481Z" style="fill: #da781e;"/>
              <path d="M213.423,115.172l-6.23,2.793-2.707,1.214c-1.893.849-2.739,3.071-1.89,4.963l.35.78c.656,1.461,2.373,2.114,3.836,1.458h0c.498-.223,1.05-.302,1.591-.226l3.543.496c2.604.365,5.258-.013,7.657-1.088h0c5.22-2.341,7.553-8.467,5.21-13.683h0c-.372-.828-1.345-1.198-2.174-.826l-9.187,4.119Z" style="fill: #de8521;"/>
              <path d="M223.184,131.883l-3.765-5.458c-.013-.622-.006-1.297.023-1.92.041-.911.129-1.808.268-2.66.141-.848.339-1.655.597-2.325.251-.67.586-1.17.804-1.368l.022-.02c.012-.011.023-.021.035-.032,1.266-1.194,1.324-3.187.13-4.452-1.195-1.265-3.19-1.323-4.456-.13-1.271,1.198-1.939,2.525-2.418,3.741-.469,1.228-.739,2.407-.933,3.56-.187,1.152-.295,2.279-.345,3.397-.048,1.14-.057,2.174.013,3.409h0s.087.603.087.603c.072.492.318.96.731,1.302l6.172,5.127c.698.579,1.722.652,2.505.113.944-.65,1.182-1.942.531-2.885Z" style="fill: #e59f46;"/>
              <path d="M225.864,104.876h-.339c-4.553,0-8.245,3.688-8.245,8.238h0c0,1.586.151,3.168.452,4.725l.118.612c.15.78.833,1.343,1.628,1.343h12.433c.795,0,1.478-.563,1.628-1.343l.118-.612c.3-1.557.452-3.139.452-4.725h0c0-4.55-3.691-8.238-8.245-8.238Z" style="fill: #de8521;"/>
              <rect x="223.767" y="106.954" width="8.372" height="10.812" rx="4.184" ry="4.184" transform="translate(-.36 .734)" style="fill: #e9b679;"/>
              <circle cx="230.582" cy="111.587" r="1.151" style="fill: #6b3b0a;"/>
              <circle cx="226.74" cy="111.628" r="1.151" style="fill: #6b3b0a;"/>
              <path d="M180.624,133.797c-5.209,0-10.025-1.263-10.316-1.341-.734-.196-1.169-.95-.974-1.683.197-.734.952-1.167,1.684-.974.096.026,9.655,2.529,15.696.374,4.322-1.54,7.159-3.741,9.903-5.869,2.145-1.663,4.362-3.383,7.225-4.755.684-.329,1.507-.04,1.836.645.329.684.039,1.506-.646,1.834-2.597,1.245-4.603,2.801-6.726,4.448-2.915,2.261-5.93,4.599-10.667,6.287-2.155.767-4.626,1.033-7.015,1.033Z" style="fill: #de8521;"/>
              <path d="M208.938,124.823c-.035-.594-.068-1.12-.155-1.782l-.019-.15c-.029-.21-.079-.42-.153-.628-.584-1.653-2.398-2.52-4.052-1.936-1.654.583-2.522,2.396-1.938,4.048.125.353.259.85.37,1.282.112.446.215.896.295,1.332.156.802.228,1.613.219,2.15l-1.766,3.282c-.427.794-.279,1.808.42,2.441.823.746,2.096.685,2.843-.138l3.065-3.374c.124-.138.225-.308.283-.497l.111-.363h0c.23-.756.333-1.422.409-2.065.074-.644.095-1.244.106-1.843.009-.598-.008-1.178-.038-1.758Z" style="fill: #e59f46;"/>
            </g>
            <path d="M152.358,352.439c-1.779,0-3.476-.747-4.677-2.059-1.201-1.312-1.795-3.067-1.637-4.838,3.407-38.159,19.938-223.283,23.823-266.785.465-5.207,4.828-9.165,10.06-9.165h21.874c5.254,0,9.632,4.024,10.068,9.256l4.279,51.31h15.559c2.848,0,5.445,1.596,6.719,4.141,2.146,4.288,5.408,10.807,7.035,14.058.657,1.312,1.038,2.745,1.119,4.21.774,13.926,4.928,88.628,4.928,88.628,0,0,17.113,4.885,27.528,7.858,4.64,1.324,7.831,5.559,7.831,10.38v86.672c0,1.68-.668,3.291-1.857,4.478-1.189,1.188-2.801,1.855-4.482,1.855-13.722,0-117.739,0-128.171,0Z" style="fill: #787186; fill-rule: evenodd;"/>
            <g style="clip-path: url(#clippath-16);">
              <path d="M130.067,84.764v-43.743c0-5.068,4.112-9.177,9.184-9.177h1.685c5.072,0,9.184-4.109,9.184-9.177V-8.497c0-5.068,4.112-9.177,9.184-9.177h7.342c5.072,0,9.184-4.109,9.184-9.177v-19.766c0-5.068,4.112-9.177,9.184-9.177h23.025c5.072,0,9.184,4.109,9.184,9.177l-.002,101.381c0,4.918,3.989,8.905,8.912,8.905h.231c5.118,0,9.231-4.069,9.231-9.138,0-8.621,0-21.473-.001-30.093,0-5.068,4.112-9.137,9.184-9.137h23.025c5.072,0,9.184,4.109,9.184,9.177v22.383c0,5.068,4.112,9.177,9.184,9.177h4.656c5.072,0,9.184,4.109,9.184,9.177v230.973c0,5.068-4.112,9.177-9.184,9.177h-9.557c-5.072,0-9.184-4.109-9.184-9.177v-22.383c0-5.068-4.112-9.177-9.184-9.177h-23.844c-11.159,0-20.206-9.039-20.206-20.189v-46.071c0-5.068-4.112-9.177-9.184-9.177h-5.2c-5.072,0-9.184-4.109-9.184-9.177v-22.462c0-5.068-4.112-9.177-9.184-9.177h.249c-5.072,0-9.184,4.109-9.184,9.177v64.923c0,5.068-4.112,9.177-9.184,9.177h-3.432c-5.072,0-9.184,4.109-9.184,9.177l-2.698,31.164c0,5.068-4.112,9.177-9.184,9.177h-7.073c-5.072,0-9.184,4.109-9.184,9.177v43.743c0,5.068-4.112,9.177-9.184,9.177h-4.229c-5.072,0-9.184-4.109-9.184-9.177V103.117c0-5.068,4.112-9.177,9.184-9.177h7.073c5.072,0,9.184-4.109,9.184-9.177Z" style="fill: #3d8850; fill-rule: evenodd;"/>
              <path d="M214.915,150.284c-5.58,0-10.103-4.519-10.103-10.094s4.523-10.094,10.103-10.094c16.639,0,47.988,0,47.988,0v20.189s-31.349,0-47.988,0Z" style="fill: #2d693a; fill-rule: evenodd;"/>
            </g>
          </g>
          <g>
            <path d="M665.831,145.532s-34.07-30.162-41.357-36.612h-2.719c-7.287,6.45-41.357,36.612-41.357,36.612v33.873c0,.796.317,1.559.879,2.121.565.565,1.329.881,2.126.881h79.423c.797,0,1.56-.316,2.126-.881.563-.562.88-1.325.88-2.121v-33.873Z" style="fill: #fbeb8c; fill-rule: evenodd;"/>
            <g style="clip-path: url(#clippath-17);">
              <rect x="577.885" y="144.749" width="90.459" height="7.532" style="fill: #f2d861;"/>
              <rect x="577.885" y="129.685" width="90.459" height="7.532" style="fill: #f2d861;"/>
              <rect x="577.885" y="114.621" width="90.459" height="7.532" style="fill: #f2d861;"/>
              <polyline points="576.629 151.899 623.115 113.366 670.06 152.28" style="fill: none; stroke: #cfb43a; stroke-linejoin: bevel; stroke-width: 7.535px;"/>
            </g>
            <rect x="618.089" y="129.718" width="10.051" height="12.553" style="fill: #6dbaa1;"/>
            <rect x="618.089" y="139.692" width="10.051" height="2.546" style="fill: #fff;"/>
            <rect x="618.089" y="127.172" width="10.051" height="2.546" style="fill: #4e9980;"/>
            <line x1="577.194" y1="146.004" x2="623.115" y2="107.592" style="fill: none; stroke: #6a8c40; stroke-linecap: round; stroke-linejoin: round; stroke-width: 9.042px;"/>
            <line x1="577.194" y1="134.706" x2="623.115" y2="96.294" style="fill: none; stroke: #6a8c40; stroke-linecap: round; stroke-linejoin: round; stroke-width: 9.042px;"/>
            <line x1="577.194" y1="123.408" x2="623.115" y2="84.996" style="fill: none; stroke: #6a8c40; stroke-linecap: round; stroke-linejoin: round; stroke-width: 9.042px;"/>
            <line x1="669.035" y1="146.004" x2="623.115" y2="107.592" style="fill: none; stroke: #6a8c40; stroke-linecap: round; stroke-linejoin: round; stroke-width: 9.042px;"/>
            <line x1="669.035" y1="134.706" x2="623.115" y2="96.294" style="fill: none; stroke: #6a8c40; stroke-linecap: round; stroke-linejoin: round; stroke-width: 9.042px;"/>
            <line x1="669.035" y1="123.408" x2="623.115" y2="84.996" style="fill: none; stroke: #6a8c40; stroke-linecap: round; stroke-linejoin: round; stroke-width: 9.042px;"/>
            <rect x="619.283" y="78.217" width="7.664" height="40.672" rx="3.826" ry="3.826" style="fill: #507524;"/>
          </g>
          <g>
            <path d="M800.207,145.532s-34.07-30.162-41.357-36.612h-2.719c-7.287,6.45-41.357,36.612-41.357,36.612v33.873c0,.796.317,1.559.879,2.121.565.565,1.329.881,2.126.881h79.423c.797,0,1.56-.316,2.126-.881.563-.562.88-1.325.88-2.121v-33.873Z" style="fill: #fbeb8c; fill-rule: evenodd;"/>
            <g style="clip-path: url(#clippath-18);">
              <rect x="712.262" y="144.749" width="90.459" height="7.532" style="fill: #f2d861;"/>
              <rect x="712.262" y="129.685" width="90.459" height="7.532" style="fill: #f2d861;"/>
              <rect x="712.262" y="114.621" width="90.459" height="7.532" style="fill: #f2d861;"/>
              <polyline points="711.005 151.899 757.491 113.366 804.436 152.28" style="fill: none; stroke: #cfb43a; stroke-linejoin: bevel; stroke-width: 7.535px;"/>
            </g>
            <rect x="752.465" y="129.718" width="10.051" height="12.553" style="fill: #6dbaa1;"/>
            <rect x="752.465" y="139.692" width="10.051" height="2.546" style="fill: #fff;"/>
            <rect x="752.465" y="127.172" width="10.051" height="2.546" style="fill: #4e9980;"/>
            <line x1="711.57" y1="146.004" x2="757.491" y2="107.592" style="fill: none; stroke: #6a8c40; stroke-linecap: round; stroke-linejoin: round; stroke-width: 9.042px;"/>
            <line x1="711.57" y1="134.706" x2="757.491" y2="96.294" style="fill: none; stroke: #6a8c40; stroke-linecap: round; stroke-linejoin: round; stroke-width: 9.042px;"/>
            <line x1="711.57" y1="123.408" x2="757.491" y2="84.996" style="fill: none; stroke: #6a8c40; stroke-linecap: round; stroke-linejoin: round; stroke-width: 9.042px;"/>
            <line x1="803.411" y1="146.004" x2="757.491" y2="107.592" style="fill: none; stroke: #6a8c40; stroke-linecap: round; stroke-linejoin: round; stroke-width: 9.042px;"/>
            <line x1="803.411" y1="134.706" x2="757.491" y2="96.294" style="fill: none; stroke: #6a8c40; stroke-linecap: round; stroke-linejoin: round; stroke-width: 9.042px;"/>
            <line x1="803.411" y1="123.408" x2="757.491" y2="84.996" style="fill: none; stroke: #6a8c40; stroke-linecap: round; stroke-linejoin: round; stroke-width: 9.042px;"/>
            <path d="M757.485,78.217h.012c2.112,0,3.826,1.714,3.826,3.826v33.016c0,2.113-1.716,3.829-3.829,3.829h-.008c-2.112,0-3.826-1.714-3.826-3.826v-33.02c0-2.112,1.714-3.826,3.826-3.826Z" style="fill: #507524;"/>
          </g>
        </g>
        <g>
          <path d="M1125.369,98.163h8.76c2.106,0,3.816,1.71,3.816,3.816h0c0,2.104-1.708,3.813-3.813,3.813h-8.763c-2.104,0-3.813-1.708-3.813-3.813v-.003c0-2.104,1.708-3.813,3.813-3.813Z" style="opacity: .073;"/>
          <path d="M1129.751,72.199c0,.677-.269,1.327-.749,1.806-.479.479-1.129.748-1.807.748h-.003c-1.411,0-2.556-1.143-2.556-2.554,0-1.376,0-3.06,0-4.392,0-1.385.816-2.639,2.083-3.202,1.736-.771,4.17-1.851,5.735-2.546.195-.087.426-.033.564.131.137.165.15.4.028.578-.826,1.213-1.998,2.936-2.699,3.965-.388.57-.596,1.244-.596,1.933,0,.929,0,2.317,0,3.533Z" style="fill: #6da090; fill-rule: evenodd;"/>
          <path d="M1145.431,71.492h-9.358s0,3.133,0,3.133c0,0,3.505,0,6.224,0,1.731,0,3.134-1.401,3.134-3.131v-.002Z" style="fill: #6da090; fill-rule: evenodd;"/>
          <path d="M1140.677,71.492c-1.834,4.413-6.145,7.289-10.927,7.289-4.781,0-9.092-2.876-10.926-7.289h21.852Z" style="fill: #fff; fill-rule: evenodd;"/>
          <path d="M1118.398,73.587c0-.573-.466-1.039-1.04-1.039h-3.119c-.574,0-1.04.465-1.04,1.039,0,.573.466,1.039,1.04,1.039h3.119c.574,0,1.04-.465,1.04-1.039Z" style="fill: #f0a039; fill-rule: evenodd;"/>
          <path d="M1129.751,77.306c0-.677-.269-1.327-.749-1.806s-1.129-.748-1.807-.748h-.003c-1.411,0-2.556,1.144-2.556,2.554,0,1.376,0,3.061,0,4.392s.816,2.64,2.083,3.202c1.736.771,4.17,1.852,5.735,2.546.195.087.426.034.564-.131.137-.164.15-.4.028-.578-.826-1.213-1.998-2.936-2.699-3.965-.388-.57-.596-1.243-.596-1.933,0-.929,0-2.317,0-3.533Z" style="fill: #6da090; fill-rule: evenodd;"/>
          <path d="M1125.676,73.067c0-.86-.699-1.558-1.56-1.558h-6.238c-.861,0-1.56.698-1.56,1.558,0,.86.699,1.558,1.56,1.558h6.238c.861,0,1.56-.698,1.56-1.558Z" style="fill: #fff; fill-rule: evenodd;"/>
          <rect x="1117.358" y="72.548" width="1.04" height="1.039" style="fill: #6e82a4;"/>
        </g>
        <g>
          <path d="M1417.824,34.758l.486,4.242s-3.878,3.074-5.309,4.209c-.097.077-.229.091-.341.038-.111-.054-.182-.166-.182-.29v-2.359c0-.312.124-.611.345-.832,1.182-1.184,5.001-5.007,5.001-5.007Z" style="fill: #61d1d5; fill-rule: evenodd;"/>
          <path d="M1416.616,30.073c-1.008-.099-1.776-.945-1.776-1.957v-3.13c0-.095-.061-.18-.152-.209-.091-.029-.19.003-.246.08-1.018,1.411-3.639,5.042-3.639,5.042l5.813.174s0,0,0,0Z" style="fill: #61d1d5; fill-rule: evenodd;"/>
          <path d="M1432.628,34.904s.895,1.25,1.517,2.118c.082.114.227.162.361.119.133-.043.224-.167.224-.307v-.878c0-.563.379-1.056.924-1.2h0s-3.026.147-3.026.147Z" style="fill: #61d1d5; fill-rule: evenodd;"/>
          <path d="M1432.628,30.789s.895-1.25,1.517-2.118c.082-.114.227-.162.361-.119.133.043.224.167.224.306v1.007c0,.245.097.48.271.653.173.173.408.271.654.271h-3.026Z" style="fill: #61d1d5; fill-rule: evenodd;"/>
          <path d="M1440.067,33.793l-38.244-.978v.967c0,.634.252,1.241.701,1.689.119.119.25.25.392.391,3.581,3.572,8.774,5.008,13.684,3.784,9.296-2.318,23.467-5.851,23.467-5.851Z" style="fill: #61d1d5; fill-rule: evenodd;"/>
          <polygon points="1403.294 34.506 1402.559 33.626 1404.03 33.626 1403.294 34.506" style="fill: #61d1d5; fill-rule: evenodd;"/>
          <path d="M1440.067,30.873s-17.999-.81-21.116-.951c-.305-.014-.61-.021-.915-.021h-18.618c-.418,0-.795.25-.955.633-.16.383-.071.824.225,1.118,0,0,0,0,0,0,1.379,1.366,3.249,2.134,5.198,2.134h36.181v-2.913Z" style="fill: #61d1d5; fill-rule: evenodd;"/>
          <path d="M1406.53,31.154c0-.074-.03-.146-.082-.199-.053-.053-.124-.082-.199-.082h-3.439c-.075,0-.146.03-.199.082-.053.053-.082.124-.082.199v.409c0,.074.03.146.082.199.053.053.124.082.199.082h3.439c.075,0,.146-.03.199-.082.053-.053.082-.124.082-.199v-.409Z" style="fill: #61d1d5; fill-rule: evenodd;"/>
          <polygon points="1400.45 30.621 1400.459 30.621 1400.467 30.621 1400.475 30.622 1400.483 30.623 1400.492 30.624 1400.5 30.625 1400.508 30.627 1400.516 30.628 1400.524 30.63 1400.532 30.632 1400.54 30.634 1400.548 30.636 1400.556 30.639 1400.564 30.642 1400.572 30.645 1400.58 30.648 1400.587 30.651 1400.595 30.654 1400.602 30.658 1400.61 30.661 1400.617 30.665 1400.624 30.669 1400.631 30.674 1400.639 30.678 1400.645 30.683 1400.652 30.687 1400.659 30.692 1400.666 30.697 1400.672 30.702 1400.679 30.708 1400.685 30.713 1400.691 30.719 1400.697 30.724 1400.703 30.73 1400.708 30.736 1400.714 30.742 1400.72 30.749 1400.725 30.755 1400.73 30.761 1400.735 30.768 1400.74 30.775 1400.745 30.782 1400.749 30.789 1400.754 30.796 1400.758 30.803 1400.762 30.81 1400.766 30.817 1400.769 30.825 1400.773 30.832 1400.776 30.84 1400.78 30.847 1400.783 30.855 1400.786 30.863 1400.788 30.871 1400.791 30.879 1400.793 30.887 1400.795 30.895 1400.797 30.903 1400.799 30.911 1400.801 30.919 1400.802 30.927 1400.803 30.935 1400.804 30.943 1400.805 30.952 1400.806 30.96 1400.806 30.968 1400.806 30.977 1400.807 30.985 1400.806 30.993 1400.806 31.001 1400.806 31.01 1400.805 31.018 1400.804 31.026 1400.803 31.034 1400.802 31.043 1400.801 31.051 1400.799 31.059 1400.797 31.067 1400.795 31.075 1400.793 31.083 1400.791 31.091 1400.788 31.099 1400.786 31.107 1400.783 31.115 1400.78 31.122 1400.776 31.13 1400.773 31.138 1400.769 31.145 1400.766 31.152 1400.762 31.16 1400.758 31.167 1400.754 31.174 1400.749 31.181 1400.745 31.188 1400.74 31.195 1400.735 31.202 1400.73 31.208 1400.725 31.215 1400.72 31.221 1400.714 31.227 1400.708 31.233 1400.703 31.239 1400.697 31.245 1400.691 31.251 1400.685 31.257 1400.679 31.262 1400.672 31.267 1400.666 31.272 1400.659 31.277 1400.652 31.282 1400.645 31.287 1400.639 31.292 1400.631 31.296 1400.624 31.3 1400.617 31.304 1400.61 31.308 1400.602 31.312 1400.595 31.315 1400.587 31.319 1400.58 31.322 1400.572 31.325 1400.564 31.328 1400.556 31.331 1400.548 31.333 1400.54 31.336 1400.532 31.338 1400.524 31.34 1400.516 31.341 1400.508 31.343 1400.5 31.344 1400.492 31.346 1400.483 31.347 1400.475 31.348 1400.467 31.348 1400.459 31.349 1400.45 31.349 1400.442 31.349 1399.964 31.349 1399.956 31.349 1399.947 31.349 1399.939 31.348 1399.931 31.348 1399.923 31.347 1399.914 31.346 1399.906 31.344 1399.898 31.343 1399.89 31.341 1399.882 31.34 1399.874 31.338 1399.866 31.336 1399.858 31.333 1399.85 31.331 1399.842 31.328 1399.834 31.325 1399.826 31.322 1399.819 31.319 1399.811 31.315 1399.804 31.312 1399.796 31.308 1399.789 31.304 1399.782 31.3 1399.775 31.296 1399.768 31.292 1399.761 31.287 1399.754 31.282 1399.747 31.277 1399.741 31.272 1399.734 31.267 1399.728 31.262 1399.721 31.257 1399.715 31.251 1399.709 31.245 1399.703 31.239 1399.698 31.233 1399.692 31.227 1399.687 31.221 1399.681 31.215 1399.676 31.208 1399.671 31.202 1399.666 31.195 1399.662 31.188 1399.657 31.181 1399.653 31.174 1399.648 31.167 1399.644 31.16 1399.64 31.152 1399.637 31.145 1399.633 31.138 1399.63 31.13 1399.627 31.122 1399.623 31.115 1399.621 31.107 1399.618 31.099 1399.615 31.091 1399.613 31.083 1399.611 31.075 1399.609 31.067 1399.607 31.059 1399.606 31.051 1399.604 31.043 1399.603 31.034 1399.602 31.026 1399.601 31.018 1399.6 31.01 1399.6 31.001 1399.6 30.993 1399.6 30.985 1399.6 30.977 1399.6 30.968 1399.6 30.96 1399.601 30.952 1399.602 30.943 1399.603 30.935 1399.604 30.927 1399.606 30.919 1399.607 30.911 1399.609 30.903 1399.611 30.895 1399.613 30.887 1399.615 30.879 1399.618 30.871 1399.621 30.863 1399.623 30.855 1399.627 30.847 1399.63 30.84 1399.633 30.832 1399.637 30.825 1399.64 30.817 1399.644 30.81 1399.648 30.803 1399.653 30.796 1399.657 30.789 1399.662 30.782 1399.666 30.775 1399.671 30.768 1399.676 30.761 1399.681 30.755 1399.687 30.749 1399.692 30.742 1399.698 30.736 1399.703 30.73 1399.709 30.724 1399.715 30.719 1399.721 30.713 1399.728 30.708 1399.734 30.702 1399.741 30.697 1399.747 30.692 1399.754 30.687 1399.761 30.683 1399.768 30.678 1399.775 30.674 1399.782 30.669 1399.789 30.665 1399.796 30.661 1399.804 30.658 1399.811 30.654 1399.819 30.651 1399.826 30.648 1399.834 30.645 1399.842 30.642 1399.85 30.639 1399.858 30.636 1399.866 30.634 1399.874 30.632 1399.882 30.63 1399.89 30.628 1399.898 30.627 1399.906 30.625 1399.914 30.624 1399.923 30.623 1399.931 30.622 1399.939 30.621 1399.947 30.621 1399.956 30.621 1399.964 30.621 1400.442 30.621 1400.45 30.621" style="fill: #61d1d5; fill-rule: evenodd;"/>
          <path d="M1411.871,33.191c-.201,0-.364-.163-.364-.364v-1.589c0-.201.163-.364.364-.364s.364.163.364.364v1.589c0,.201-.163.364-.364.364Z" style="fill: #61d1d5;"/>
          <path d="M1413.329,33.191c-.201,0-.364-.163-.364-.364v-1.589c0-.201.163-.364.364-.364s.364.163.364.364v1.589c0,.201-.163.364-.364.364Z" style="fill: #61d1d5;"/>
          <path d="M1414.787,33.191c-.201,0-.364-.163-.364-.364v-1.589c0-.201.163-.364.364-.364s.364.163.364.364v1.589c0,.201-.163.364-.364.364Z" style="fill: #61d1d5;"/>
          <rect x="1403.245" y="30.873" width="2.43" height="1.214" rx=".281" ry=".281" style="fill: #61d1d5;"/>
          <path d="M1438.852,30.873s3.446-3.535,5.118-5.305c.106-.112.274-.138.408-.064.135.074.203.229.166.379-.425,1.695-1.166,4.653-1.489,5.941-.104.413-.104.845,0,1.258.323,1.288,1.064,4.245,1.489,5.941.037.149-.031.305-.166.379-.135.074-.303.047-.408-.064-1.672-1.769-5.118-5.549-5.118-5.549l-.294-1.432.294-1.481Z" style="fill: #61d1d5; fill-rule: evenodd;"/>
          <g>
            <path d="M1438.852,30.873s3.446-3.535,5.118-5.305c.106-.112.274-.138.408-.064.135.074.203.229.166.379-.425,1.695-1.166,4.653-1.489,5.941-.104.413-.104.845,0,1.258.323,1.288,1.064,4.245,1.489,5.941.037.149-.031.305-.166.379-.135.074-.303.047-.408-.064-1.672-1.769-5.118-5.549-5.118-5.549l-.294-1.432.294-1.481Z" style="fill: #61d1d5; fill-rule: evenodd;"/>
            <g style="clip-path: url(#clippath-19);">
              <rect x="1432.968" y="33.786" width="14.982" height="6.001" style="fill: #61d1d5;"/>
              <rect x="1432.968" y="25.111" width="14.982" height="5.762" style="fill: #61d1d5;"/>
            </g>
          </g>
          <polygon points="1407.217 34.373 1406.726 33.786 1407.707 33.786 1407.217 34.373" style="fill: #61d1d5; fill-rule: evenodd;"/>
          <polygon points="1405.255 34.373 1404.765 33.786 1405.746 33.786 1405.255 34.373" style="fill: #61d1d5; fill-rule: evenodd;"/>
          <polygon points="1404.275 34.373 1403.784 33.786 1404.765 33.786 1404.275 34.373" style="fill: #61d1d5; fill-rule: evenodd;"/>
          <polygon points="1406.236 34.373 1405.746 33.786 1406.726 33.786 1406.236 34.373" style="fill: #61d1d5; fill-rule: evenodd;"/>
          <polygon points="1408.197 34.373 1407.707 33.786 1408.687 33.786 1408.197 34.373" style="fill: #61d1d5; fill-rule: evenodd;"/>
          <polygon points="1409.178 34.373 1408.687 33.786 1409.668 33.786 1409.178 34.373" style="fill: #61d1d5; fill-rule: evenodd;"/>
          <path d="M1404.946,30.873h-.972v.931c0,.156.127.283.283.283h.406c.156,0,.283-.127.283-.283v-.931Z" style="fill: #61d1d5; fill-rule: evenodd;"/>
          <path d="M1418.796,34.758l-.486,4.242s3.878,3.074,5.309,4.209c.097.077.229.091.34.038.112-.054.182-.166.182-.29v-2.359c0-.312-.124-.611-.345-.832-1.182-1.184-5.001-5.007-5.001-5.007Z" style="fill: #61d1d5; fill-rule: evenodd;"/>
        </g>
        <g>
          <path d="M1398.362,54.22l.486,4.242s-3.878,3.074-5.309,4.209c-.097.077-.229.091-.341.038-.111-.054-.182-.166-.182-.29v-2.359c0-.312.124-.611.345-.832,1.182-1.184,5.001-5.007,5.001-5.007Z" style="fill: #61d1d5; fill-rule: evenodd;"/>
          <path d="M1397.154,49.535c-1.008-.099-1.776-.945-1.776-1.957v-3.13c0-.095-.061-.18-.152-.209-.091-.029-.19.003-.246.08-1.018,1.411-3.639,5.042-3.639,5.042l5.813.174s0,0,0,0Z" style="fill: #61d1d5; fill-rule: evenodd;"/>
          <path d="M1413.166,54.366s.895,1.25,1.517,2.118c.082.114.227.162.361.119.133-.043.224-.167.224-.307v-.878c0-.563.379-1.056.924-1.2h0s-3.026.147-3.026.147Z" style="fill: #61d1d5; fill-rule: evenodd;"/>
          <path d="M1413.166,50.251s.895-1.25,1.517-2.118c.082-.114.227-.162.361-.119.133.043.224.167.224.306v1.007c0,.245.097.48.271.653.173.173.408.271.654.271h-3.026Z" style="fill: #61d1d5; fill-rule: evenodd;"/>
          <path d="M1420.605,53.255l-38.244-.978v.967c0,.634.252,1.241.701,1.689.119.119.25.25.392.391,3.581,3.572,8.774,5.008,13.684,3.784,9.296-2.318,23.467-5.851,23.467-5.851Z" style="fill: #61d1d5; fill-rule: evenodd;"/>
          <polygon points="1383.832 53.968 1383.097 53.088 1384.567 53.088 1383.832 53.968" style="fill: #61d1d5; fill-rule: evenodd;"/>
          <path d="M1420.605,50.335s-17.999-.81-21.116-.951c-.305-.014-.61-.021-.915-.021h-18.618c-.418,0-.795.25-.955.633-.16.383-.071.824.225,1.118,0,0,0,0,0,0,1.379,1.366,3.249,2.134,5.198,2.134h36.181v-2.913Z" style="fill: #61d1d5; fill-rule: evenodd;"/>
          <path d="M1387.068,50.616c0-.074-.03-.146-.082-.199-.053-.053-.124-.082-.199-.082h-3.439c-.075,0-.146.03-.199.082-.053.053-.082.124-.082.199v.409c0,.074.03.146.082.199.053.053.124.082.199.082h3.439c.075,0,.146-.03.199-.082.053-.053.082-.124.082-.199v-.409Z" style="fill: #61d1d5; fill-rule: evenodd;"/>
          <polygon points="1380.988 50.083 1380.997 50.083 1381.005 50.084 1381.013 50.084 1381.021 50.085 1381.03 50.086 1381.038 50.087 1381.046 50.089 1381.054 50.09 1381.062 50.092 1381.07 50.094 1381.078 50.096 1381.086 50.098 1381.094 50.101 1381.102 50.104 1381.11 50.107 1381.118 50.11 1381.125 50.113 1381.133 50.116 1381.14 50.12 1381.148 50.124 1381.155 50.127 1381.162 50.131 1381.169 50.136 1381.176 50.14 1381.183 50.145 1381.19 50.149 1381.197 50.154 1381.204 50.159 1381.21 50.164 1381.216 50.17 1381.223 50.175 1381.229 50.181 1381.235 50.186 1381.241 50.192 1381.246 50.198 1381.252 50.204 1381.258 50.211 1381.263 50.217 1381.268 50.224 1381.273 50.23 1381.278 50.237 1381.283 50.244 1381.287 50.251 1381.291 50.258 1381.296 50.265 1381.3 50.272 1381.304 50.279 1381.307 50.287 1381.311 50.294 1381.314 50.302 1381.318 50.309 1381.321 50.317 1381.324 50.325 1381.326 50.333 1381.329 50.341 1381.331 50.349 1381.333 50.357 1381.335 50.365 1381.337 50.373 1381.339 50.381 1381.34 50.389 1381.341 50.397 1381.342 50.405 1381.343 50.414 1381.344 50.422 1381.344 50.43 1381.344 50.439 1381.345 50.447 1381.344 50.455 1381.344 50.463 1381.344 50.472 1381.343 50.48 1381.342 50.488 1381.341 50.496 1381.34 50.505 1381.339 50.513 1381.337 50.521 1381.335 50.529 1381.333 50.537 1381.331 50.545 1381.329 50.553 1381.326 50.561 1381.324 50.569 1381.321 50.577 1381.318 50.584 1381.314 50.592 1381.311 50.6 1381.307 50.607 1381.304 50.614 1381.3 50.622 1381.296 50.629 1381.291 50.636 1381.287 50.643 1381.283 50.65 1381.278 50.657 1381.273 50.664 1381.268 50.67 1381.263 50.677 1381.258 50.683 1381.252 50.689 1381.246 50.695 1381.241 50.701 1381.235 50.707 1381.229 50.713 1381.223 50.719 1381.216 50.724 1381.21 50.729 1381.204 50.735 1381.197 50.74 1381.19 50.744 1381.183 50.749 1381.176 50.754 1381.169 50.758 1381.162 50.762 1381.155 50.766 1381.148 50.77 1381.14 50.774 1381.133 50.778 1381.125 50.781 1381.118 50.784 1381.11 50.787 1381.102 50.79 1381.094 50.793 1381.086 50.795 1381.078 50.798 1381.07 50.8 1381.062 50.802 1381.054 50.803 1381.046 50.805 1381.038 50.806 1381.03 50.808 1381.021 50.809 1381.013 50.81 1381.005 50.81 1380.997 50.811 1380.988 50.811 1380.98 50.811 1380.502 50.811 1380.494 50.811 1380.485 50.811 1380.477 50.81 1380.469 50.81 1380.461 50.809 1380.452 50.808 1380.444 50.806 1380.436 50.805 1380.428 50.803 1380.42 50.802 1380.412 50.8 1380.404 50.798 1380.396 50.795 1380.388 50.793 1380.38 50.79 1380.372 50.787 1380.364 50.784 1380.357 50.781 1380.349 50.778 1380.342 50.774 1380.334 50.77 1380.327 50.766 1380.32 50.762 1380.313 50.758 1380.306 50.754 1380.299 50.749 1380.292 50.744 1380.285 50.74 1380.278 50.735 1380.272 50.729 1380.266 50.724 1380.259 50.719 1380.253 50.713 1380.247 50.707 1380.241 50.701 1380.236 50.695 1380.23 50.689 1380.225 50.683 1380.219 50.677 1380.214 50.67 1380.209 50.664 1380.204 50.657 1380.2 50.65 1380.195 50.643 1380.191 50.636 1380.186 50.629 1380.182 50.622 1380.178 50.614 1380.175 50.607 1380.171 50.6 1380.168 50.592 1380.164 50.584 1380.161 50.577 1380.159 50.569 1380.156 50.561 1380.153 50.553 1380.151 50.545 1380.149 50.537 1380.147 50.529 1380.145 50.521 1380.144 50.513 1380.142 50.505 1380.141 50.496 1380.14 50.488 1380.139 50.48 1380.138 50.472 1380.138 50.463 1380.138 50.455 1380.138 50.447 1380.138 50.439 1380.138 50.43 1380.138 50.422 1380.139 50.414 1380.14 50.405 1380.141 50.397 1380.142 50.389 1380.144 50.381 1380.145 50.373 1380.147 50.365 1380.149 50.357 1380.151 50.349 1380.153 50.341 1380.156 50.333 1380.159 50.325 1380.161 50.317 1380.164 50.309 1380.168 50.302 1380.171 50.294 1380.175 50.287 1380.178 50.279 1380.182 50.272 1380.186 50.265 1380.191 50.258 1380.195 50.251 1380.2 50.244 1380.204 50.237 1380.209 50.23 1380.214 50.224 1380.219 50.217 1380.225 50.211 1380.23 50.204 1380.236 50.198 1380.241 50.192 1380.247 50.186 1380.253 50.181 1380.259 50.175 1380.266 50.17 1380.272 50.164 1380.278 50.159 1380.285 50.154 1380.292 50.149 1380.299 50.145 1380.306 50.14 1380.313 50.136 1380.32 50.131 1380.327 50.127 1380.334 50.124 1380.342 50.12 1380.349 50.116 1380.357 50.113 1380.364 50.11 1380.372 50.107 1380.38 50.104 1380.388 50.101 1380.396 50.098 1380.404 50.096 1380.412 50.094 1380.42 50.092 1380.428 50.09 1380.436 50.089 1380.444 50.087 1380.452 50.086 1380.461 50.085 1380.469 50.084 1380.477 50.084 1380.485 50.083 1380.494 50.083 1380.502 50.083 1380.98 50.083 1380.988 50.083" style="fill: #61d1d5; fill-rule: evenodd;"/>
          <path d="M1392.409,52.653c-.201,0-.364-.163-.364-.364v-1.589c0-.201.163-.364.364-.364s.364.163.364.364v1.589c0,.201-.163.364-.364.364Z" style="fill: #61d1d5;"/>
          <path d="M1393.867,52.653c-.201,0-.364-.163-.364-.364v-1.589c0-.201.163-.364.364-.364s.364.163.364.364v1.589c0,.201-.163.364-.364.364Z" style="fill: #61d1d5;"/>
          <path d="M1395.325,52.653c-.201,0-.364-.163-.364-.364v-1.589c0-.201.163-.364.364-.364s.364.163.364.364v1.589c0,.201-.163.364-.364.364Z" style="fill: #61d1d5;"/>
          <rect x="1383.783" y="50.335" width="2.43" height="1.214" rx=".281" ry=".281" style="fill: #61d1d5;"/>
          <path d="M1419.39,50.335s3.446-3.535,5.118-5.305c.106-.112.274-.138.408-.064.135.074.203.229.166.379-.425,1.695-1.166,4.653-1.489,5.941-.104.413-.104.845,0,1.258.323,1.288,1.064,4.245,1.489,5.941.037.149-.031.305-.166.379-.135.074-.303.047-.408-.064-1.672-1.769-5.118-5.549-5.118-5.549l-.294-1.432.294-1.481Z" style="fill: #61d1d5; fill-rule: evenodd;"/>
          <g>
            <path d="M1419.39,50.335s3.446-3.535,5.118-5.305c.106-.112.274-.138.408-.064.135.074.203.229.166.379-.425,1.695-1.166,4.653-1.489,5.941-.104.413-.104.845,0,1.258.323,1.288,1.064,4.245,1.489,5.941.037.149-.031.305-.166.379-.135.074-.303.047-.408-.064-1.672-1.769-5.118-5.549-5.118-5.549l-.294-1.432.294-1.481Z" style="fill: #61d1d5; fill-rule: evenodd;"/>
            <g style="clip-path: url(#clippath-20);">
              <rect x="1413.506" y="53.248" width="14.982" height="6.001" style="fill: #61d1d5;"/>
              <rect x="1413.506" y="44.573" width="14.982" height="5.762" style="fill: #61d1d5;"/>
            </g>
          </g>
          <polygon points="1387.754 53.835 1387.264 53.248 1388.245 53.248 1387.754 53.835" style="fill: #61d1d5; fill-rule: evenodd;"/>
          <polygon points="1385.793 53.835 1385.303 53.248 1386.284 53.248 1385.793 53.835" style="fill: #61d1d5; fill-rule: evenodd;"/>
          <polygon points="1384.813 53.835 1384.322 53.248 1385.303 53.248 1384.813 53.835" style="fill: #61d1d5; fill-rule: evenodd;"/>
          <polygon points="1386.774 53.835 1386.284 53.248 1387.264 53.248 1386.774 53.835" style="fill: #61d1d5; fill-rule: evenodd;"/>
          <polygon points="1388.735 53.835 1388.245 53.248 1389.225 53.248 1388.735 53.835" style="fill: #61d1d5; fill-rule: evenodd;"/>
          <polygon points="1389.716 53.835 1389.225 53.248 1390.206 53.248 1389.716 53.835" style="fill: #61d1d5; fill-rule: evenodd;"/>
          <path d="M1385.484,50.335h-.972v.931c0,.156.127.283.283.283h.406c.156,0,.283-.127.283-.283v-.931Z" style="fill: #61d1d5; fill-rule: evenodd;"/>
          <path d="M1399.334,54.22l-.486,4.242s3.878,3.074,5.309,4.209c.097.077.229.091.34.038.112-.054.182-.166.182-.29v-2.359c0-.312-.124-.611-.345-.832-1.182-1.184-5.001-5.007-5.001-5.007Z" style="fill: #61d1d5; fill-rule: evenodd;"/>
        </g>
        <g>
          <path d="M1447.387,54.03l.36,3.146s-2.876,2.28-3.938,3.122c-.072.057-.17.068-.253.028-.083-.04-.135-.123-.135-.215v-1.75c0-.232.092-.454.256-.617.877-.878,3.709-3.713,3.709-3.713Z" style="fill: #61d1d5; fill-rule: evenodd;"/>
          <path d="M1446.491,50.555c-.747-.073-1.317-.701-1.317-1.451v-2.322c0-.071-.046-.133-.113-.155-.067-.022-.141.002-.182.06-.755,1.046-2.699,3.739-2.699,3.739l4.311.129s0,0,0,0Z" style="fill: #61d1d5; fill-rule: evenodd;"/>
          <path d="M1458.367,54.138s.664.927,1.125,1.571c.061.084.169.12.267.088.099-.032.166-.124.166-.227v-.651c0-.418.281-.783.686-.89h0s-2.244.109-2.244.109Z" style="fill: #61d1d5; fill-rule: evenodd;"/>
          <path d="M1458.367,51.086s.664-.927,1.125-1.571c.061-.084.169-.12.267-.088.099.032.166.124.166.227v.747c0,.182.072.356.201.484.129.128.303.201.485.201h-2.244Z" style="fill: #61d1d5; fill-rule: evenodd;"/>
          <path d="M1463.884,53.314l-28.366-.725v.717c0,.47.187.92.52,1.252.088.088.186.185.291.29,2.656,2.649,6.508,3.714,10.149,2.806,6.895-1.719,17.406-4.34,17.406-4.34Z" style="fill: #61d1d5; fill-rule: evenodd;"/>
          <polygon points="1436.61 53.843 1436.064 53.19 1437.155 53.19 1436.61 53.843" style="fill: #61d1d5; fill-rule: evenodd;"/>
          <path d="M1463.884,51.148s-13.35-.601-15.662-.705c-.226-.01-.452-.015-.679-.015h-13.809c-.31,0-.59.185-.708.47-.119.284-.053.611.167.829,0,0,0,0,0,0,1.023,1.013,2.41,1.582,3.855,1.582h26.835v-2.161Z" style="fill: #61d1d5; fill-rule: evenodd;"/>
          <path d="M1439.01,51.357c0-.055-.022-.108-.061-.147-.039-.039-.092-.061-.147-.061h-2.551c-.055,0-.108.022-.147.061-.039.039-.061.092-.061.147v.304c0,.055.022.108.061.147.039.039.092.061.147.061h2.551c.055,0,.108-.022.147-.061.039-.039.061-.092.061-.147v-.304Z" style="fill: #61d1d5; fill-rule: evenodd;"/>
          <polygon points="1434.501 50.961 1434.507 50.962 1434.513 50.962 1434.519 50.962 1434.525 50.963 1434.531 50.964 1434.537 50.965 1434.543 50.966 1434.549 50.967 1434.555 50.968 1434.561 50.97 1434.567 50.971 1434.573 50.973 1434.579 50.975 1434.585 50.977 1434.591 50.979 1434.596 50.981 1434.602 50.984 1434.608 50.986 1434.613 50.989 1434.619 50.992 1434.624 50.994 1434.63 50.997 1434.635 51.001 1434.64 51.004 1434.645 51.007 1434.65 51.011 1434.655 51.014 1434.66 51.018 1434.665 51.022 1434.67 51.026 1434.674 51.03 1434.679 51.034 1434.683 51.038 1434.688 51.043 1434.692 51.047 1434.696 51.052 1434.7 51.056 1434.704 51.061 1434.708 51.066 1434.712 51.071 1434.715 51.076 1434.719 51.081 1434.722 51.086 1434.725 51.091 1434.729 51.096 1434.732 51.102 1434.734 51.107 1434.737 51.113 1434.74 51.118 1434.742 51.124 1434.745 51.129 1434.747 51.135 1434.749 51.141 1434.751 51.147 1434.753 51.153 1434.755 51.159 1434.756 51.164 1434.758 51.17 1434.759 51.176 1434.76 51.182 1434.761 51.189 1434.762 51.195 1434.763 51.201 1434.764 51.207 1434.764 51.213 1434.764 51.219 1434.765 51.225 1434.765 51.231 1434.765 51.238 1434.764 51.244 1434.764 51.25 1434.764 51.256 1434.763 51.262 1434.762 51.268 1434.761 51.274 1434.76 51.28 1434.759 51.286 1434.758 51.292 1434.756 51.298 1434.755 51.304 1434.753 51.31 1434.751 51.316 1434.749 51.322 1434.747 51.328 1434.745 51.333 1434.742 51.339 1434.74 51.345 1434.737 51.35 1434.734 51.356 1434.732 51.361 1434.729 51.366 1434.725 51.372 1434.722 51.377 1434.719 51.382 1434.715 51.387 1434.712 51.392 1434.708 51.397 1434.704 51.402 1434.7 51.407 1434.696 51.411 1434.692 51.416 1434.688 51.42 1434.683 51.425 1434.679 51.429 1434.674 51.433 1434.67 51.437 1434.665 51.441 1434.66 51.445 1434.655 51.448 1434.65 51.452 1434.645 51.456 1434.64 51.459 1434.635 51.462 1434.63 51.465 1434.624 51.468 1434.619 51.471 1434.613 51.474 1434.608 51.477 1434.602 51.479 1434.596 51.482 1434.591 51.484 1434.585 51.486 1434.579 51.488 1434.573 51.49 1434.567 51.491 1434.561 51.493 1434.555 51.495 1434.549 51.496 1434.543 51.497 1434.537 51.498 1434.531 51.499 1434.525 51.5 1434.519 51.5 1434.513 51.501 1434.507 51.501 1434.501 51.501 1434.494 51.501 1434.14 51.501 1434.134 51.501 1434.128 51.501 1434.121 51.501 1434.115 51.5 1434.109 51.5 1434.103 51.499 1434.097 51.498 1434.091 51.497 1434.085 51.496 1434.079 51.495 1434.073 51.493 1434.067 51.491 1434.061 51.49 1434.055 51.488 1434.049 51.486 1434.044 51.484 1434.038 51.482 1434.032 51.479 1434.027 51.477 1434.021 51.474 1434.015 51.471 1434.01 51.468 1434.005 51.465 1433.999 51.462 1433.994 51.459 1433.989 51.456 1433.984 51.452 1433.979 51.448 1433.974 51.445 1433.969 51.441 1433.965 51.437 1433.96 51.433 1433.955 51.429 1433.951 51.425 1433.947 51.42 1433.942 51.416 1433.938 51.411 1433.934 51.407 1433.93 51.402 1433.926 51.397 1433.923 51.392 1433.919 51.387 1433.915 51.382 1433.912 51.377 1433.909 51.372 1433.906 51.366 1433.903 51.361 1433.9 51.356 1433.897 51.35 1433.894 51.345 1433.892 51.339 1433.889 51.333 1433.887 51.328 1433.885 51.322 1433.883 51.316 1433.881 51.31 1433.88 51.304 1433.878 51.298 1433.876 51.292 1433.875 51.286 1433.874 51.28 1433.873 51.274 1433.872 51.268 1433.871 51.262 1433.871 51.256 1433.87 51.25 1433.87 51.244 1433.87 51.238 1433.87 51.231 1433.87 51.225 1433.87 51.219 1433.87 51.213 1433.871 51.207 1433.871 51.201 1433.872 51.195 1433.873 51.189 1433.874 51.182 1433.875 51.176 1433.876 51.17 1433.878 51.164 1433.88 51.159 1433.881 51.153 1433.883 51.147 1433.885 51.141 1433.887 51.135 1433.889 51.129 1433.892 51.124 1433.894 51.118 1433.897 51.113 1433.9 51.107 1433.903 51.102 1433.906 51.096 1433.909 51.091 1433.912 51.086 1433.915 51.081 1433.919 51.076 1433.923 51.071 1433.926 51.066 1433.93 51.061 1433.934 51.056 1433.938 51.052 1433.942 51.047 1433.947 51.043 1433.951 51.038 1433.955 51.034 1433.96 51.03 1433.965 51.026 1433.969 51.022 1433.974 51.018 1433.979 51.014 1433.984 51.011 1433.989 51.007 1433.994 51.004 1433.999 51.001 1434.005 50.997 1434.01 50.994 1434.015 50.992 1434.021 50.989 1434.027 50.986 1434.032 50.984 1434.038 50.981 1434.044 50.979 1434.049 50.977 1434.055 50.975 1434.061 50.973 1434.067 50.971 1434.073 50.97 1434.079 50.968 1434.085 50.967 1434.091 50.966 1434.097 50.965 1434.103 50.964 1434.109 50.963 1434.115 50.962 1434.121 50.962 1434.128 50.962 1434.134 50.961 1434.14 50.961 1434.494 50.961 1434.501 50.961" style="fill: #61d1d5; fill-rule: evenodd;"/>
          <path d="M1442.971,52.867c-.149,0-.27-.121-.27-.27v-1.179c0-.149.121-.27.27-.27s.27.121.27.27v1.179c0,.149-.121.27-.27.27Z" style="fill: #61d1d5;"/>
          <path d="M1444.053,52.867c-.149,0-.27-.121-.27-.27v-1.179c0-.149.121-.27.27-.27s.27.121.27.27v1.179c0,.149-.121.27-.27.27Z" style="fill: #61d1d5;"/>
          <path d="M1445.134,52.867c-.149,0-.27-.121-.27-.27v-1.179c0-.149.121-.27.27-.27s.27.121.27.27v1.179c0,.149-.121.27-.27.27Z" style="fill: #61d1d5;"/>
          <rect x="1436.573" y="51.148" width="1.802" height=".9" rx=".208" ry=".208" style="fill: #61d1d5;"/>
          <path d="M1462.983,51.148s2.556-2.622,3.796-3.934c.078-.083.203-.103.303-.048.1.055.151.17.123.281-.315,1.257-.865,3.451-1.104,4.406-.077.306-.077.627,0,.933.239.955.789,3.149,1.104,4.406.028.111-.023.226-.123.281-.1.055-.225.035-.303-.048-1.24-1.312-3.796-4.116-3.796-4.116l-.218-1.062.218-1.099Z" style="fill: #61d1d5; fill-rule: evenodd;"/>
          <g>
            <path d="M1462.983,51.148s2.556-2.622,3.796-3.934c.078-.083.203-.103.303-.048.1.055.151.17.123.281-.315,1.257-.865,3.451-1.104,4.406-.077.306-.077.627,0,.933.239.955.789,3.149,1.104,4.406.028.111-.023.226-.123.281-.1.055-.225.035-.303-.048-1.24-1.312-3.796-4.116-3.796-4.116l-.218-1.062.218-1.099Z" style="fill: #61d1d5; fill-rule: evenodd;"/>
            <g style="clip-path: url(#clippath-21);">
              <rect x="1458.619" y="53.309" width="11.112" height="4.451" style="fill: #61d1d5;"/>
              <rect x="1458.619" y="46.875" width="11.112" height="4.274" style="fill: #61d1d5;"/>
            </g>
          </g>
          <polygon points="1439.519 53.745 1439.155 53.309 1439.883 53.309 1439.519 53.745" style="fill: #61d1d5; fill-rule: evenodd;"/>
          <polygon points="1438.064 53.745 1437.701 53.309 1438.428 53.309 1438.064 53.745" style="fill: #61d1d5; fill-rule: evenodd;"/>
          <polygon points="1437.337 53.745 1436.973 53.309 1437.701 53.309 1437.337 53.745" style="fill: #61d1d5; fill-rule: evenodd;"/>
          <polygon points="1438.792 53.745 1438.428 53.309 1439.155 53.309 1438.792 53.745" style="fill: #61d1d5; fill-rule: evenodd;"/>
          <polygon points="1440.246 53.745 1439.883 53.309 1440.61 53.309 1440.246 53.745" style="fill: #61d1d5; fill-rule: evenodd;"/>
          <polygon points="1440.974 53.745 1440.61 53.309 1441.337 53.309 1440.974 53.745" style="fill: #61d1d5; fill-rule: evenodd;"/>
          <path d="M1437.835,51.148h-.721v.691c0,.116.094.21.21.21h.301c.116,0,.21-.094.21-.21v-.691Z" style="fill: #61d1d5; fill-rule: evenodd;"/>
          <path d="M1448.108,54.03l-.36,3.146s2.876,2.28,3.938,3.122c.072.057.17.068.253.028.083-.04.135-.123.135-.215v-1.75c0-.232-.092-.454-.256-.617-.877-.878-3.71-3.713-3.71-3.713Z" style="fill: #61d1d5; fill-rule: evenodd;"/>
        </g>
      </g>
    </g>
  </g>
</svg>