<?xml version="1.0" encoding="UTF-8"?>
<svg id="Details" xmlns="http://www.w3.org/2000/svg" width="1500" height="145" xmlns:xlink="http://www.w3.org/1999/xlink" version="1.1" viewBox="0 0 1500 145">
  <!-- Generator: Adobe Illustrator 30.5.1, SVG Export Plug-In . SVG Version: 2.1.4 Build 3)  -->
  <defs>
    <clipPath id="clippath">
      <rect width="1500" height="145" style="fill: none;"/>
    </clipPath>
    <clipPath id="clippath-1">
      <path d="M1033.689-12.5s10.358-1.723,15.452-2.651c.322-.059.643.107.781.404.138.297.059.649-.193.858-2.865,2.372-7.862,6.509-10.038,8.31-.698.577-1.242,1.318-1.585,2.156-1.07,2.614-3.527,8.618-4.936,12.06-.124.303-.437.484-.761.441-.324-.043-.578-.3-.619-.625-.634-5.139-1.774-15.958-1.774-15.958l1.301-2.826,2.37-2.169Z" style="clip-rule: evenodd; fill: none;"/>
    </clipPath>
    <clipPath id="clippath-2">
      <path d="M838.372,45.848h22.918s6.211,69.687,6.211,69.687c.344,3.141-2.118,5.885-5.28,5.885h-24.892c-3.167,0-5.63-2.751-5.279-5.895l6.322-69.676Z" style="fill: none;"/>
    </clipPath>
    <clipPath id="clippath-3">
      <path d="M849.775,43.788c0,8.104-3.221,15.878-8.958,21.61-5.737,5.732-13.517,8.95-21.632,8.95-15.366,0-30.766,0-30.766,0,0,0,0-9.456,0-20.203,0-8.107,3.221-15.881,8.958-21.613,5.737-5.728,13.517-8.95,21.632-8.95,15.366,0,30.766,0,30.766,0,0,0,0,9.456,0,20.207Z" style="clip-rule: evenodd; fill: none;"/>
    </clipPath>
    <clipPath id="clippath-4">
      <path d="M849.775,43.788c0,8.104,3.221,15.878,8.958,21.61,5.737,5.732,13.517,8.95,21.632,8.95,15.366,0,30.766,0,30.766,0,0,0,0-9.456,0-20.203,0-8.107-3.221-15.881-8.958-21.613-5.737-5.728-13.517-8.95-21.632-8.95-15.366,0-30.766,0-30.766,0,0,0,0,9.456,0,20.207Z" style="clip-rule: evenodd; fill: none;"/>
    </clipPath>
    <clipPath id="clippath-6">
      <path d="M849.758,74.348l18.376-13.381c10.15-7.391,11.297-22.091,2.416-30.964l-6.428-6.423h-28.729s-6.428,6.423-6.428,6.423c-8.881,8.873-7.734,23.573,2.416,30.964l18.376,13.381Z" style="clip-rule: evenodd; fill: none;"/>
    </clipPath>
    <clipPath id="clippath-7">
      <path d="M506.355-26.927h22.918s6.211,69.687,6.211,69.687c.344,3.141-2.118,5.885-5.28,5.885h-24.892c-3.167,0-5.63-2.751-5.279-5.895l6.322-69.676Z" style="fill: none;"/>
    </clipPath>
    <clipPath id="clippath-8">
      <path d="M517.758-28.987c0,8.104-3.221,15.878-8.958,21.61-5.737,5.732-13.517,8.95-21.632,8.95-15.366,0-30.766,0-30.766,0,0,0,0-9.456,0-20.203,0-8.107,3.221-15.881,8.958-21.613,5.737-5.728,13.517-8.95,21.632-8.95,15.366,0,30.766,0,30.766,0,0,0,0,9.456,0,20.207Z" style="clip-rule: evenodd; fill: none;"/>
    </clipPath>
    <clipPath id="clippath-9">
      <path d="M517.758-28.987c0,8.104,3.221,15.878,8.958,21.61,5.737,5.732,13.517,8.95,21.632,8.95,15.366,0,30.766,0,30.766,0,0,0,0-9.456,0-20.203,0-8.107-3.221-15.881-8.958-21.613-5.737-5.728-13.517-8.95-21.632-8.95-15.366,0-30.766,0-30.766,0,0,0,0,9.456,0,20.207Z" style="clip-rule: evenodd; fill: none;"/>
    </clipPath>
    <clipPath id="clippath-11">
      <path d="M517.741,1.573l18.376-13.381c10.15-7.391,11.297-22.091,2.416-30.964l-6.428-6.423h-28.729s-6.428,6.423-6.428,6.423c-8.881,8.873-7.734,23.573,2.416,30.964l18.376,13.381Z" style="clip-rule: evenodd; fill: none;"/>
    </clipPath>
    <clipPath id="clippath-12">
      <path d="M967.187,79.669h16.963s4.597,41.568,4.597,41.568c.255,2.325-1.567,4.356-3.908,4.356h-18.424c-2.344,0-4.167-2.036-3.907-4.363l4.679-41.56Z" style="fill: none;"/>
    </clipPath>
    <clipPath id="clippath-13">
      <path d="M975.626,78.144c0,5.998-2.384,11.752-6.63,15.994-4.246,4.242-10.005,6.624-16.01,6.624h-22.771s0-6.999,0-14.953c0-6.001,2.384-11.754,6.63-15.997,4.246-4.24,10.005-6.624,16.01-6.624,11.373,0,22.771,0,22.771,0,0,0,0,6.999,0,14.956Z" style="clip-rule: evenodd; fill: none;"/>
    </clipPath>
    <clipPath id="clippath-14">
      <path d="M975.626,78.144c0,5.998,2.384,11.752,6.63,15.994,4.246,4.242,10.005,6.624,16.01,6.624,11.373,0,22.771,0,22.771,0,0,0,0-6.999,0-14.953,0-6.001-2.384-11.754-6.63-15.997-4.246-4.24-10.005-6.624-16.01-6.624-11.373,0-22.771,0-22.771,0,0,0,0,6.999,0,14.956Z" style="clip-rule: evenodd; fill: none;"/>
    </clipPath>
    <clipPath id="clippath-16">
      <path d="M975.614,100.763l13.601-9.903c7.512-5.47,8.361-16.35,1.788-22.918l-4.758-4.754h-21.263s-4.758,4.754-4.758,4.754c-6.573,6.567-5.724,17.447,1.788,22.918l13.601,9.903Z" style="clip-rule: evenodd; fill: none;"/>
    </clipPath>
    <clipPath id="clippath-17">
      <path d="M556.56,77.332h16.963s4.597,41.568,4.597,41.568c.255,2.325-1.567,4.356-3.908,4.356h-18.424c-2.344,0-4.167-2.036-3.907-4.363l4.679-41.56Z" style="fill: none;"/>
    </clipPath>
    <clipPath id="clippath-18">
      <path d="M565,75.807c0,5.998-2.384,11.752-6.63,15.994-4.246,4.242-10.005,6.624-16.01,6.624-11.373,0-22.771,0-22.771,0,0,0,0-6.999,0-14.953,0-6.001,2.384-11.754,6.63-15.997,4.246-4.24,10.005-6.624,16.01-6.624,11.373,0,22.771,0,22.771,0,0,0,0,6.999,0,14.956Z" style="clip-rule: evenodd; fill: none;"/>
    </clipPath>
    <clipPath id="clippath-19">
      <path d="M565,75.807c0,5.998,2.384,11.752,6.63,15.994,4.246,4.242,10.005,6.624,16.01,6.624h22.771s0-6.999,0-14.953c0-6.001-2.384-11.754-6.63-15.997-4.246-4.24-10.005-6.624-16.01-6.624-11.373,0-22.771,0-22.771,0,0,0,0,6.999,0,14.956Z" style="clip-rule: evenodd; fill: none;"/>
    </clipPath>
    <clipPath id="clippath-21">
      <path d="M564.987,98.426l13.601-9.903c7.512-5.47,8.361-16.35,1.788-22.918l-4.758-4.754h-21.263s-4.758,4.754-4.758,4.754c-6.573,6.567-5.724,17.447,1.788,22.918l13.601,9.903Z" style="clip-rule: evenodd; fill: none;"/>
    </clipPath>
    <clipPath id="clippath-22">
      <path d="M238.662,107.017h18.181s4.927,44.959,4.927,44.959c.273,2.492-1.68,4.668-4.189,4.668h-19.747c-2.512,0-4.466-2.182-4.188-4.677l5.015-44.95Z" style="fill: none;"/>
    </clipPath>
    <clipPath id="clippath-23">
      <path d="M247.708,105.384c0,6.428-2.555,12.596-7.106,17.143-4.551,4.547-10.723,7.1-17.16,7.1-12.189,0-24.406,0-24.406,0,0,0,0-7.501,0-16.027,0-6.432,2.555-12.599,7.106-17.146,4.551-4.544,10.723-7.1,17.16-7.1,12.189,0,24.406,0,24.406,0,0,0,0,7.501,0,16.03Z" style="clip-rule: evenodd; fill: none;"/>
    </clipPath>
    <clipPath id="clippath-24">
      <path d="M247.708,105.384c0,6.428,2.555,12.596,7.106,17.143,4.551,4.547,10.723,7.1,17.16,7.1,12.189,0,24.406,0,24.406,0,0,0,0-7.501,0-16.027,0-6.432-2.555-12.599-7.106-17.146-4.551-4.544-10.723-7.1-17.16-7.1-12.189,0-24.406,0-24.406,0,0,0,0,7.501,0,16.03Z" style="clip-rule: evenodd; fill: none;"/>
    </clipPath>
    <clipPath id="clippath-26">
      <path d="M247.694,129.626l14.578-10.615c8.052-5.863,8.962-17.524,1.917-24.563l-5.099-5.095h-22.79s-5.099,5.095-5.099,5.095c-7.045,7.039-6.135,18.7,1.917,24.563l14.578,10.615Z" style="clip-rule: evenodd; fill: none;"/>
    </clipPath>
    <clipPath id="clippath-27">
      <path d="M103.085-16.475h12.473s3.38,30.845,3.38,30.845c.187,1.709-1.153,3.203-2.874,3.203h-13.548c-1.723,0-3.064-1.497-2.873-3.208l3.441-30.839Z" style="fill: none;"/>
    </clipPath>
    <clipPath id="clippath-28">
      <path d="M109.291-17.596c0,4.41-1.753,8.641-4.875,11.761-3.122,3.12-7.357,4.871-11.773,4.871-8.363,0-16.745,0-16.745,0,0,0,0-5.147,0-10.996,0-4.412,1.753-8.644,4.875-11.763,3.122-3.118,7.357-4.871,11.773-4.871,8.363,0,16.745,0,16.745,0,0,0,0,5.147,0,10.998Z" style="clip-rule: evenodd; fill: none;"/>
    </clipPath>
    <clipPath id="clippath-29">
      <path d="M109.291-17.596c0,4.41,1.753,8.641,4.875,11.761,3.122,3.12,7.357,4.871,11.773,4.871,8.363,0,16.745,0,16.745,0,0,0,0-5.147,0-10.996,0-4.412-1.753-8.644-4.875-11.763-3.122-3.118-7.357-4.871-11.773-4.871-8.363,0-16.745,0-16.745,0,0,0,0,5.147,0,10.998Z" style="clip-rule: evenodd; fill: none;"/>
    </clipPath>
    <clipPath id="clippath-30">
      <path d="M109.282-.963l10.001-7.282c5.524-4.022,6.149-12.023,1.315-16.852l-3.499-3.496h-15.636s-3.499,3.496-3.499,3.496c-4.833,4.829-4.209,12.83,1.315,16.852l10.001,7.282Z" style="clip-rule: evenodd; fill: none;"/>
    </clipPath>
    <clipPath id="clippath-31">
      <path d="M142.774,23.214h12.473s3.38,30.845,3.38,30.845c.187,1.709-1.153,3.203-2.874,3.203h-13.548c-1.723,0-3.064-1.497-2.873-3.208l3.441-30.839Z" style="fill: none;"/>
    </clipPath>
    <clipPath id="clippath-32">
      <path d="M148.98,22.093c0,4.41-1.753,8.641-4.875,11.761-3.122,3.12-7.357,4.871-11.773,4.871h-16.745s0-5.147,0-10.996c0-4.412,1.753-8.644,4.875-11.763,3.122-3.118,7.357-4.871,11.773-4.871,8.363,0,16.745,0,16.745,0,0,0,0,5.147,0,10.998Z" style="clip-rule: evenodd; fill: none;"/>
    </clipPath>
    <clipPath id="clippath-33">
      <path d="M148.98,22.093c0,4.41,1.753,8.641,4.875,11.761,3.122,3.12,7.357,4.871,11.773,4.871h16.745s0-5.147,0-10.996c0-4.412-1.753-8.644-4.875-11.763-3.122-3.118-7.357-4.871-11.773-4.871-8.363,0-16.745,0-16.745,0,0,0,0,5.147,0,10.998Z" style="clip-rule: evenodd; fill: none;"/>
    </clipPath>
    <clipPath id="clippath-35">
      <path d="M148.971,38.726l10.001-7.282c5.524-4.022,6.149-12.023,1.315-16.852l-3.499-3.496h-15.636s-3.499,3.496-3.499,3.496c-4.833,4.829-4.209,12.83,1.315,16.852l10.001,7.282Z" style="clip-rule: evenodd; fill: none;"/>
    </clipPath>
    <clipPath id="clippath-36">
      <path d="M156.323,96.053h12.473s3.38,30.845,3.38,30.845c.187,1.709-1.153,3.203-2.874,3.203h-13.548c-1.723,0-3.064-1.497-2.873-3.208l3.441-30.839Z" style="fill: none;"/>
    </clipPath>
    <clipPath id="clippath-37">
      <path d="M162.529,94.932c0,4.41-1.753,8.641-4.875,11.761-3.122,3.12-7.357,4.871-11.773,4.871-8.363,0-16.745,0-16.745,0,0,0,0-5.147,0-10.996,0-4.412,1.753-8.644,4.875-11.763,3.122-3.118,7.357-4.871,11.773-4.871,8.363,0,16.745,0,16.745,0,0,0,0,5.147,0,10.998Z" style="clip-rule: evenodd; fill: none;"/>
    </clipPath>
    <clipPath id="clippath-38">
      <path d="M162.529,94.932c0,4.41,1.753,8.641,4.875,11.761,3.122,3.12,7.357,4.871,11.773,4.871,8.363,0,16.745,0,16.745,0,0,0,0-5.147,0-10.996,0-4.412-1.753-8.644-4.875-11.763-3.122-3.118-7.357-4.871-11.773-4.871h-16.745s0,5.147,0,10.998Z" style="clip-rule: evenodd; fill: none;"/>
    </clipPath>
    <clipPath id="clippath-40">
      <path d="M162.519,111.564l10.001-7.282c5.524-4.022,6.149-12.023,1.315-16.852l-3.499-3.496h-15.636s-3.499,3.496-3.499,3.496c-4.833,4.829-4.209,12.83,1.315,16.852l10.001,7.282Z" style="clip-rule: evenodd; fill: none;"/>
    </clipPath>
  </defs>
  <g style="clip-path: url(#clippath);">
    <rect x="-10.125" y="-841.796" width="1520.249" height="1054.04" style="fill: #04d5d8;"/>
    <g>
      <g>
        <path d="M1033.689-12.5s10.358-1.723,15.452-2.651c.322-.059.643.107.781.404.138.297.059.649-.193.858-2.865,2.372-7.862,6.509-10.038,8.31-.698.577-1.242,1.318-1.585,2.156-1.07,2.614-3.527,8.618-4.936,12.06-.124.303-.437.484-.761.441-.324-.043-.578-.3-.619-.625-.634-5.139-1.774-15.958-1.774-15.958l1.301-2.826,2.37-2.169Z" style="fill: #9494b6; fill-rule: evenodd;"/>
        <g style="clip-path: url(#clippath-1);">
          <rect x="1022.604" y="-16.263" width="12.769" height="31.852" transform="translate(419.838 828.972) rotate(-53.683)" style="fill: #8989af;"/>
        </g>
      </g>
      <path d="M1013.18-31.024h-21.012c-2.883,0-5.649-1.145-7.687-3.184h0c-2.039-2.039-4.804-3.184-7.687-3.184h-14.581l7.513,18.466,23.166,14.978,38.943,18.283,20.066-16.847,4.013-17.521-42.734-10.991Z" style="fill: #61d1d5;"/>
    </g>
    <path d="M1209.742-148.582c-76.136,0-138.076,61.941-138.076,138.077,0,9.374-7.626,17-17,17h-106.263c-9.374,0-17-7.626-17-17v-2.009c0-36.943-30.057-67-67-67h-75.775c-41.992,0-76.156-34.163-76.156-76.156v-85.988c0-34.188-27.813-62-62-62h-144.932c-34.187,0-62,27.812-62,62v1.583c0,6.616-5.383,12-12,12h-77.199c-41.355,0-75,33.645-75,75v1.615c0,6.616-5.383,12-12,12H-56.875v1900.227h125.29c19.299,0,35,15.701,35,35v28.562c0,46.869,38.131,85,85,85h282.678c46.869,0,85-38.131,85-85v-4.012c0-19.299,15.701-35,35-35h100.898c106.145,0,192.5-86.354,192.5-192.5,0-13.785,11.215-25,25-25h189.302c13.785,0,25,11.215,25,25v6.941c0,13.785-11.215,25-25,25h-1.646c-41.355,0-75,33.646-75,75.001v134.569c0,41.355,33.645,75,75,75h68.108c41.355,0,75-33.645,75-75,0-34.095,27.737-61.833,61.832-61.833h254.837V-148.582h-347.181Z" style="fill: #7ee6e4;"/>
    <path d="M1045.191,426.028h0c0-51.28,41.571-92.851,92.85-92.851h57.665c32.387,0,58.642-26.255,58.642-58.642h0c0-32.387,26.255-58.642,58.642-58.642h218.932V-123.582h-322.181c-62.45,0-113.076,50.626-113.076,113.076h0c0,23.196-18.804,42-42,42h-106.262c-23.196,0-42-18.804-42-42v-2.009c0-23.196-18.804-42-42-42h-75.776c-55.867,0-101.156-45.289-101.156-101.156v-85.988c0-20.435-16.565-37-37-37h-144.932c-20.435,0-37,16.565-37,37v1.583c0,20.435-16.565,37-37,37h-77.199c-27.614,0-50,22.386-50,50v1.615c0,20.435-16.565,37-37,37H-31.875v1850.227h100.289c33.137,0,60,26.863,60,60v28.561c0,33.137,26.863,60,60,60h282.678c33.137,0,60-26.863,60-60v-4.011c0-33.137,26.863-60,60-60h100.898c92.508,0,167.5-74.992,167.5-167.5h0c0-27.614,22.386-50,50-50h189.302c27.614,0,50,22.386,50,50v6.942c0,27.614-22.386,50-50,50h-1.647c-27.614,0-50,22.386-50,50v134.57c0,27.614,22.386,50,50,50h68.108c27.614,0,50-22.386,50-50h0c0-47.956,38.876-86.832,86.832-86.832h229.837v-328.037c0-39.064-31.668-70.732-70.732-70.732h-323.15c-50.932,0-92.285-41.008-92.845-91.807-.004-.347-.006-830.544-.006-830.892Z" style="fill: #fbed97;"/>
    <g>
      <path d="M1209.742-63.581c-29.313,0-53.076,23.763-53.076,53.076h0c0,56.333-45.667,102-102,102h-353.588c-40.652,0-73.606-32.955-73.606-73.606v-210.547c0-14.359-11.641-26-26-26h-56.442c-10.394,0-19.895,6.146-23.89,15.742-14.612,35.099-49.272,59.841-89.6,59.841h-46.653c-11.17,0-21.157,7.295-24.204,18.042-11.534,40.685-49.013,70.574-93.342,70.574H-1.979l-11.374,1742.34,115.314-.491c49.895,14.55,86.454,60.7,86.454,115.229v.695c.001,13.259,10.754,24.004,24.013,23.997l236.679-.131c11.698-.007,21.708-8.443,23.64-19.98,9.508-56.77,58.875-100.032,118.346-100.032h100.898c59.37,0,107.5-48.129,107.5-107.5h0c0-60.752,49.249-110,110-110h189.003c21.384,0,38.798-17.186,39.08-38.568h0c.246-18.686-12.768-34.942-31.062-38.758-28.801-6.009-55.263-20.244-76.552-41.532-28.243-28.244-44.073-65.595-44.746-105.431-.015-.883-.022-838.466-.022-839.351,0-40.828,15.899-79.212,44.769-108.081,28.87-28.869,67.254-44.769,108.082-44.769h28.622c14.589,0,27.327-10.069,30.48-24.313,11.76-53.123,59.237-92.972,115.846-92.972h312.76V-63.581h-416.008Z" style="fill: #62c244;"/>
      <g>
        <line x1="-2.045" y1="-44.447" x2="-13.321" y2="1682.874" style="fill: none; stroke: #62c244; stroke-dasharray: 0 10.014; stroke-linecap: round; stroke-linejoin: round; stroke-width: 10px;"/>
        <path d="M1615.775-63.581h-406.033c-29.313,0-53.076,23.763-53.076,53.076h0c0,56.333-45.667,102-102,102h-353.588c-40.652,0-73.606-32.955-73.606-73.606v-210.547c0-14.359-11.641-26-26-26h-56.442c-10.394,0-19.895,6.146-23.89,15.742-14.612,35.099-49.272,59.841-89.6,59.841h-46.653c-11.17,0-21.157,7.295-24.204,18.042-11.534,40.685-49.013,70.574-93.342,70.574H3.009" style="fill: none; stroke: #62c244; stroke-dasharray: 0 9.976; stroke-linecap: round; stroke-linejoin: round; stroke-width: 10px;"/>
      </g>
    </g>
    <g>
      <path d="M914.223,266.781v250.57c0,30.12-24.417,54.537-54.537,54.537h-80.08c-29.292,0-53.038,23.746-53.038,53.038v153.905c0,29.292-23.746,53.038-53.038,53.038h-183.486c-37.785,0-68.416,30.631-68.416,68.416h0c0,37.785-30.631,68.416-68.416,68.416h-33.231c-37.785,0-68.416-30.631-68.416-68.416v-84.054c0-37.785-30.631-68.416-68.416-68.416H5.265c-15.114,0-27.366-12.252-27.366-27.366V7.038h290.764c35.899,0,65,29.101,65,65v20.473c0,35.899,29.101,65,65,65h257.533c15.114,0,27.366,12.252,27.366,27.366h0c0,15.114,12.252,27.366,27.366,27.366h148.757c30.12,0,54.537,24.417,54.537,54.537Z" style="fill: #52ab35;"/>
      <path d="M-12.116,7.038h280.778c35.898,0,65,29.101,65,65v20.473c0,35.898,29.101,65,65,65h257.533c15.114,0,27.366,12.252,27.366,27.366s12.252,27.366,27.366,27.366h148.757c30.12,0,54.537,24.417,54.537,54.537v250.57c0,30.12-24.417,54.537-54.537,54.537h-80.08c-29.292,0-53.038,23.746-53.038,53.038v153.905c0,29.292-23.746,53.038-53.038,53.038h-183.486c-37.785,0-68.416,30.631-68.416,68.416s-30.631,68.416-68.416,68.416h-33.231c-37.785,0-68.416-30.631-68.416-68.416v-84.054c0-37.785-30.631-68.416-68.416-68.416H5.265c-15.114,0-27.366-12.252-27.366-27.366V12.031" style="fill: none; stroke: #52ab35; stroke-dasharray: 0 9.986; stroke-linecap: round; stroke-linejoin: round; stroke-width: 10px;"/>
    </g>
    <g>
      <path d="M1663.858,20.112h-403.068c-28.933,0-52.388,23.455-52.388,52.388h0c0,28.933,23.455,52.388,52.388,52.388h410.887" style="fill: #52ab35;"/>
      <path d="M1653.873,20.112h-393.084c-28.933,0-52.388,23.455-52.388,52.388s23.455,52.388,52.388,52.388h405.895" style="fill: none; stroke: #52ab35; stroke-dasharray: 0 9.985; stroke-linecap: round; stroke-linejoin: round; stroke-width: 10px;"/>
    </g>
    <g style="opacity: .331;">
      <path d="M1427.363,75.911c-1.232,0-2.231-1-2.231-2.236v-7.001c0-1.236.999-2.236,2.231-2.236s2.231,1,2.231,2.236v7.001c0,1.236-.999,2.236-2.231,2.236Z" style="fill: #00703a;"/>
      <path d="M1436.677,75.911c-1.232,0-2.231-1-2.231-2.236v-4.667c0-1.236.999-2.236,2.231-2.236s2.231,1,2.231,2.236v4.667c0,1.236-.999,2.236-2.231,2.236Z" style="fill: #00703a;"/>
      <path d="M1418.824,75.911c-1.232,0-2.231-1-2.231-2.236v-4.667c0-1.236.999-2.236,2.231-2.236s2.231,1,2.231,2.236v4.667c0,1.236-.999,2.236-2.231,2.236Z" style="fill: #00703a;"/>
      <path d="M1452.493,94.39c-1.232,0-2.231-1-2.231-2.236v-7.001c0-1.236.999-2.236,2.231-2.236,1.232,0,2.231,1,2.231,2.236v7.001c0,1.236-.999,2.236-2.231,2.236Z" style="fill: #00703a;"/>
      <path d="M1461.808,94.39c-1.232,0-2.231-1-2.231-2.236v-4.669c0-1.236.999-2.236,2.231-2.236,1.232,0,2.231,1,2.231,2.236v4.669c0,1.236-.999,2.236-2.231,2.236Z" style="fill: #00703a;"/>
      <path d="M1443.956,94.39c-1.232,0-2.231-1-2.231-2.236v-4.669c0-1.236.999-2.236,2.231-2.236s2.231,1,2.231,2.236v4.669c0,1.236-.999,2.236-2.231,2.236Z" style="fill: #00703a;"/>
      <path d="M1461.127,55.684c-1.232,0-2.231-1-2.231-2.236v-7.001c0-1.236.999-2.236,2.231-2.236,1.232,0,2.231,1,2.231,2.236v7.001c0,1.236-.999,2.236-2.231,2.236Z" style="fill: #00703a;"/>
      <path d="M1470.442,55.684c-1.232,0-2.231-1-2.231-2.236v-4.669c0-1.236.999-2.236,2.231-2.236s2.231,1,2.231,2.236v4.669c0,1.236-.999,2.236-2.231,2.236Z" style="fill: #00703a;"/>
      <path d="M1452.589,55.684c-1.232,0-2.231-1-2.231-2.236v-4.669c0-1.236.999-2.236,2.231-2.236s2.231,1,2.231,2.236v4.669c0,1.236-.999,2.236-2.231,2.236Z" style="fill: #00703a;"/>
    </g>
    <g style="opacity: .331;">
      <path d="M85.319,77.953c1.232,0,2.231-1,2.231-2.236v-7.001c0-1.236-.999-2.236-2.231-2.236-1.232,0-2.231,1-2.231,2.236v7.001c0,1.236.999,2.236,2.231,2.236Z" style="fill: #00703a;"/>
      <path d="M76.005,77.953c1.232,0,2.231-1,2.231-2.236v-4.667c0-1.236-.999-2.236-2.231-2.236s-2.231,1-2.231,2.236v4.667c0,1.236.999,2.236,2.231,2.236Z" style="fill: #00703a;"/>
      <path d="M93.857,77.953c1.232,0,2.231-1,2.231-2.236v-4.667c0-1.236-.999-2.236-2.231-2.236-1.232,0-2.231,1-2.231,2.236v4.667c0,1.236.999,2.236,2.231,2.236Z" style="fill: #00703a;"/>
      <path d="M60.188,96.432c1.232,0,2.231-1,2.231-2.236v-7.001c0-1.236-.999-2.236-2.231-2.236-1.232,0-2.231,1-2.231,2.236v7.001c0,1.236.999,2.236,2.231,2.236Z" style="fill: #00703a;"/>
      <path d="M50.874,96.432c1.232,0,2.231-1,2.231-2.236v-4.669c0-1.236-.999-2.236-2.231-2.236s-2.231,1-2.231,2.236v4.669c0,1.236.999,2.236,2.231,2.236Z" style="fill: #00703a;"/>
      <path d="M68.726,96.432c1.232,0,2.231-1,2.231-2.236v-4.669c0-1.236-.999-2.236-2.231-2.236-1.232,0-2.231,1-2.231,2.236v4.669c0,1.236.999,2.236,2.231,2.236Z" style="fill: #00703a;"/>
      <path d="M51.555,57.726c1.232,0,2.231-1,2.231-2.236v-7.001c0-1.236-.999-2.236-2.231-2.236-1.232,0-2.231,1-2.231,2.236v7.001c0,1.236.999,2.236,2.231,2.236Z" style="fill: #00703a;"/>
      <path d="M42.24,57.726c1.232,0,2.231-1,2.231-2.236v-4.669c0-1.236-.999-2.236-2.231-2.236-1.232,0-2.231,1-2.231,2.236v4.669c0,1.236.999,2.236,2.231,2.236Z" style="fill: #00703a;"/>
      <path d="M60.092,57.726c1.232,0,2.231-1,2.231-2.236v-4.669c0-1.236-.999-2.236-2.231-2.236-1.232,0-2.231,1-2.231,2.236v4.669c0,1.236.999,2.236,2.231,2.236Z" style="fill: #00703a;"/>
    </g>
    <g style="opacity: .331;">
      <path d="M430.055,97.306c-1.232,0-2.231-1-2.231-2.236v-7.001c0-1.236.999-2.236,2.231-2.236s2.231,1,2.231,2.236v7.001c0,1.236-.999,2.236-2.231,2.236Z" style="fill: #00703a;"/>
      <path d="M439.369,97.306c-1.232,0-2.231-1-2.231-2.236v-4.667c0-1.236.999-2.236,2.231-2.236s2.231,1,2.231,2.236v4.667c0,1.236-.999,2.236-2.231,2.236Z" style="fill: #00703a;"/>
      <path d="M421.517,97.306c-1.232,0-2.231-1-2.231-2.236v-4.667c0-1.236.999-2.236,2.231-2.236s2.231,1,2.231,2.236v4.667c0,1.236-.999,2.236-2.231,2.236Z" style="fill: #00703a;"/>
      <path d="M455.186,115.784c-1.232,0-2.231-1-2.231-2.236v-7.001c0-1.236.999-2.236,2.231-2.236,1.232,0,2.231,1,2.231,2.236v7.001c0,1.236-.999,2.236-2.231,2.236Z" style="fill: #00703a;"/>
      <path d="M464.5,115.784c-1.232,0-2.231-1-2.231-2.236v-4.669c0-1.236.999-2.236,2.231-2.236,1.232,0,2.231,1,2.231,2.236v4.669c0,1.236-.999,2.236-2.231,2.236Z" style="fill: #00703a;"/>
      <path d="M446.648,115.784c-1.232,0-2.231-1-2.231-2.236v-4.669c0-1.236.999-2.236,2.231-2.236s2.231,1,2.231,2.236v4.669c0,1.236-.999,2.236-2.231,2.236Z" style="fill: #00703a;"/>
      <path d="M463.819,77.079c-1.232,0-2.231-1-2.231-2.236v-7.001c0-1.236.999-2.236,2.231-2.236,1.232,0,2.231,1,2.231,2.236v7.001c0,1.236-.999,2.236-2.231,2.236Z" style="fill: #00703a;"/>
      <path d="M473.134,77.079c-1.232,0-2.231-1-2.231-2.236v-4.669c0-1.236.999-2.236,2.231-2.236s2.231,1,2.231,2.236v4.669c0,1.236-.999,2.236-2.231,2.236Z" style="fill: #00703a;"/>
      <path d="M455.282,77.079c-1.232,0-2.231-1-2.231-2.236v-4.669c0-1.236.999-2.236,2.231-2.236s2.231,1,2.231,2.236v4.669c0,1.236-.999,2.236-2.231,2.236Z" style="fill: #00703a;"/>
    </g>
    <g>
      <g>
        <g>
          <path d="M838.372,45.848h22.918s6.211,69.687,6.211,69.687c.344,3.141-2.118,5.885-5.28,5.885h-24.892c-3.167,0-5.63-2.751-5.279-5.895l6.322-69.676Z" style="fill: #6a4c46;"/>
          <g style="clip-path: url(#clippath-2);">
            <path d="M849.758,86.815l18.735-13.642c10.348-7.535,11.518-22.522,2.464-31.569l-6.554-6.548h-29.29s-6.554,6.548-6.554,6.548c-9.054,9.047-7.885,24.034,2.464,31.569l18.735,13.642Z" style="fill: #594238; fill-rule: evenodd;"/>
          </g>
        </g>
        <g>
          <g>
            <path d="M849.775,43.788c0,8.104-3.221,15.878-8.958,21.61-5.737,5.732-13.517,8.95-21.632,8.95-15.366,0-30.766,0-30.766,0,0,0,0-9.456,0-20.203,0-8.107,3.221-15.881,8.958-21.613,5.737-5.728,13.517-8.95,21.632-8.95,15.366,0,30.766,0,30.766,0,0,0,0,9.456,0,20.207Z" style="fill: #abbe3c; fill-rule: evenodd;"/>
            <g style="clip-path: url(#clippath-3);">
              <polygon points="849.775 23.581 781.306 82.103 849.775 82.103 849.775 23.581" style="fill: #839c2f; fill-rule: evenodd;"/>
              <rect x="779.51" y="44.769" width="79.175" height="7.664" transform="translate(153.947 529.078) rotate(-39.239)" style="fill: #bdce42;"/>
              <path d="M813.984,77.658h7.669s0-7.954,0-12.889c0-2.115-1.718-3.831-3.835-3.831-2.117,0-3.835,1.716-3.835,3.831,0,4.935,0,12.889,0,12.889Z" style="fill: #4e7b3f; fill-rule: evenodd; opacity: .5;"/>
              <path d="M829.323,78.225h7.669s0-17.498,0-25.433c0-2.115-1.714-3.828-3.831-3.828h-.008c-2.117,0-3.831,1.713-3.831,3.828,0,7.935,0,25.433,0,25.433Z" style="fill: #4e7b3f; fill-rule: evenodd; opacity: .5;"/>
              <path d="M788.419,52.869v-7.257s7.171,0,11.707,0c.963,0,1.887.383,2.569,1.065.679.678,1.062,1.602,1.062,2.563h0c0,.966-.383,1.885-1.062,2.567-.683.682-1.607,1.061-2.569,1.061-4.536,0-11.707,0-11.707,0Z" style="fill: #839c2f; fill-rule: evenodd; opacity: .75;"/>
              <path d="M788.419,37.949v-7.663s15.596,0,23.012,0c2.117,0,3.831,1.713,3.831,3.828v.008c0,2.115-1.714,3.828-3.831,3.828-7.416,0-23.012,0-23.012,0Z" style="fill: #839c2f; fill-rule: evenodd; opacity: .75;"/>
            </g>
          </g>
          <g>
            <path d="M849.775,43.788c0,8.104,3.221,15.878,8.958,21.61,5.737,5.732,13.517,8.95,21.632,8.95,15.366,0,30.766,0,30.766,0,0,0,0-9.456,0-20.203,0-8.107-3.221-15.881-8.958-21.613-5.737-5.728-13.517-8.95-21.632-8.95-15.366,0-30.766,0-30.766,0,0,0,0,9.456,0,20.207Z" style="fill: #abbe3c; fill-rule: evenodd;"/>
            <g style="clip-path: url(#clippath-4);">
              <polygon points="849.775 23.581 918.244 82.103 849.775 82.103 849.775 23.581" style="fill: #839c2f; fill-rule: evenodd;"/>
              <rect x="876.62" y="9.014" width="7.664" height="79.175" transform="translate(286.325 700.193) rotate(-50.801)" style="fill: #bdce42;"/>
              <path d="M885.565,77.658h-7.669s0-7.954,0-12.889c0-2.115,1.718-3.831,3.835-3.831s3.835,1.716,3.835,3.831c0,4.935,0,12.889,0,12.889Z" style="fill: #4e7b3f; fill-rule: evenodd; opacity: .5;"/>
              <path d="M870.227,78.225h-7.669s0-17.495,0-25.43c0-1.015.403-1.989,1.124-2.709.717-.716,1.695-1.123,2.711-1.123,1.016,0,1.994.406,2.711,1.123.721.72,1.124,1.694,1.124,2.709,0,7.935,0,25.43,0,25.43Z" style="fill: #4e7b3f; fill-rule: evenodd; opacity: .5;"/>
              <path d="M911.13,53.275v-7.663s-6.964,0-11.508,0c-1.016,0-1.99.402-2.707,1.123-.721.716-1.124,1.69-1.124,2.705v.008c0,1.015.403,1.989,1.124,2.709.717.716,1.691,1.119,2.707,1.119,4.544,0,11.508,0,11.508,0Z" style="fill: #839c2f; fill-rule: evenodd; opacity: .75;"/>
              <path d="M911.13,37.949v-7.663s-15.592,0-23.008,0c-1.016,0-1.994.406-2.711,1.123-.721.72-1.124,1.694-1.124,2.709,0,1.015.403,1.992,1.124,2.709.717.72,1.695,1.123,2.711,1.123,7.416,0,23.008,0,23.008,0Z" style="fill: #839c2f; fill-rule: evenodd; opacity: .75;"/>
            </g>
          </g>
          <g>
            <path d="M849.758,74.348l18.376-13.381c10.15-7.391,11.297-22.091,2.416-30.964l-6.428-6.423h-28.729s-6.428,6.423-6.428,6.423c-8.881,8.873-7.734,23.573,2.416,30.964l18.376,13.381Z" style="fill: #bdce42; fill-rule: evenodd;"/>
            <g style="clip-path: url(#clippath-6);">
              <rect x="820.766" y="21.255" width="28.992" height="54.98" transform="translate(1670.5239 97.49) rotate(-180)" style="fill: #839c2f;"/>
              <rect x="845.938" y="18.046" width="7.669" height="66.829" style="fill: #d6e14c;"/>
              <g>
                <g style="opacity: .5;">
                  <path d="M876.965,51.574c1.248,0,2.477-.609,3.211-1.729,1.163-1.771.669-4.146-1.103-5.306l-15.589-10.217c-1.773-1.167-4.149-.664-5.308,1.1-1.163,1.771-.669,4.146,1.103,5.306l15.589,10.217c.649.427,1.378.629,2.097.629Z" style="fill: #839c2f;"/>
                </g>
                <g style="opacity: .5;">
                  <path d="M822.585,51.574c.719,0,1.448-.202,2.097-.629l15.584-10.217c1.773-1.16,2.267-3.535,1.103-5.306-1.158-1.764-3.52-2.27-5.308-1.1l-15.584,10.217c-1.773,1.16-2.267,3.535-1.103,5.306.734,1.12,1.962,1.729,3.211,1.729Z" style="fill: #4e7b3f;"/>
                </g>
                <path d="M876.965,69.045c1.248,0,2.477-.609,3.211-1.729,1.163-1.771.669-4.146-1.103-5.306l-15.589-10.217c-1.773-1.167-4.149-.664-5.308,1.1-1.163,1.771-.669,4.146,1.103,5.306l15.589,10.217c.649.427,1.378.629,2.097.629Z" style="fill: #839c2f; opacity: .5;"/>
                <g style="opacity: .5;">
                  <path d="M822.585,69.045c.719,0,1.448-.202,2.097-.629l15.584-10.217c1.773-1.16,2.267-3.535,1.103-5.306-1.158-1.764-3.52-2.27-5.308-1.1l-15.584,10.217c-1.773,1.16-2.267,3.535-1.103,5.306.734,1.12,1.962,1.729,3.211,1.729Z" style="fill: #4e7b3f;"/>
                </g>
              </g>
            </g>
          </g>
        </g>
      </g>
      <line x1="818.621" y1="121.419" x2="880.93" y2="120.739" style="fill: #62c244; stroke: #62c244; stroke-dasharray: 0 10; stroke-linecap: round; stroke-linejoin: round; stroke-width: 10px;"/>
    </g>
    <g>
      <g>
        <g>
          <path d="M506.355-26.927h22.918s6.211,69.687,6.211,69.687c.344,3.141-2.118,5.885-5.28,5.885h-24.892c-3.167,0-5.63-2.751-5.279-5.895l6.322-69.676Z" style="fill: #6a4c46;"/>
          <g style="clip-path: url(#clippath-7);">
            <path d="M517.741,14.04l18.735-13.642c10.348-7.535,11.518-22.522,2.464-31.569l-6.554-6.548h-29.29s-6.554,6.548-6.554,6.548c-9.054,9.047-7.885,24.034,2.464,31.569l18.735,13.642Z" style="fill: #594238; fill-rule: evenodd;"/>
          </g>
        </g>
        <g>
          <g>
            <path d="M517.758-28.987c0,8.104-3.221,15.878-8.958,21.61-5.737,5.732-13.517,8.95-21.632,8.95-15.366,0-30.766,0-30.766,0,0,0,0-9.456,0-20.203,0-8.107,3.221-15.881,8.958-21.613,5.737-5.728,13.517-8.95,21.632-8.95,15.366,0,30.766,0,30.766,0,0,0,0,9.456,0,20.207Z" style="fill: #abbe3c; fill-rule: evenodd;"/>
            <g style="clip-path: url(#clippath-8);">
              <polygon points="517.758 -49.194 449.289 9.328 517.758 9.328 517.758 -49.194" style="fill: #839c2f; fill-rule: evenodd;"/>
              <rect x="447.493" y="-28.006" width="79.175" height="7.664" transform="translate(125.118 302.652) rotate(-39.239)" style="fill: #bdce42;"/>
              <path d="M481.967,4.883h7.669s0-7.954,0-12.889c0-2.115-1.718-3.831-3.835-3.831-2.117,0-3.835,1.716-3.835,3.831,0,4.935,0,12.889,0,12.889Z" style="fill: #4e7b3f; fill-rule: evenodd; opacity: .5;"/>
              <path d="M497.306,5.45h7.669s0-17.498,0-25.433c0-2.115-1.714-3.828-3.831-3.828h-.008c-2.117,0-3.831,1.713-3.831,3.828,0,7.935,0,25.433,0,25.433Z" style="fill: #4e7b3f; fill-rule: evenodd; opacity: .5;"/>
            </g>
          </g>
          <g>
            <path d="M517.758-28.987c0,8.104,3.221,15.878,8.958,21.61,5.737,5.732,13.517,8.95,21.632,8.95,15.366,0,30.766,0,30.766,0,0,0,0-9.456,0-20.203,0-8.107-3.221-15.881-8.958-21.613-5.737-5.728-13.517-8.95-21.632-8.95-15.366,0-30.766,0-30.766,0,0,0,0,9.456,0,20.207Z" style="fill: #abbe3c; fill-rule: evenodd;"/>
            <g style="clip-path: url(#clippath-9);">
              <polygon points="517.758 -49.194 586.227 9.328 517.758 9.328 517.758 -49.194" style="fill: #839c2f; fill-rule: evenodd;"/>
              <rect x="544.603" y="-63.761" width="7.664" height="79.175" transform="translate(220.547 416.116) rotate(-50.801)" style="fill: #bdce42;"/>
              <path d="M553.548,4.883h-7.669s0-7.954,0-12.889c0-2.115,1.718-3.831,3.835-3.831s3.835,1.716,3.835,3.831c0,4.935,0,12.889,0,12.889Z" style="fill: #4e7b3f; fill-rule: evenodd; opacity: .5;"/>
              <path d="M538.209,5.45h-7.669s0-17.495,0-25.43c0-1.015.403-1.989,1.124-2.709.717-.716,1.695-1.123,2.711-1.123,1.016,0,1.994.406,2.711,1.123.721.72,1.124,1.694,1.124,2.709,0,7.935,0,25.43,0,25.43Z" style="fill: #4e7b3f; fill-rule: evenodd; opacity: .5;"/>
            </g>
          </g>
          <g>
            <path d="M517.741,1.573l18.376-13.381c10.15-7.391,11.297-22.091,2.416-30.964l-6.428-6.423h-28.729s-6.428,6.423-6.428,6.423c-8.881,8.873-7.734,23.573,2.416,30.964l18.376,13.381Z" style="fill: #bdce42; fill-rule: evenodd;"/>
            <g style="clip-path: url(#clippath-11);">
              <rect x="488.749" y="-51.52" width="28.992" height="54.98" transform="translate(1006.4896 -48.0602) rotate(-180)" style="fill: #839c2f;"/>
              <rect x="513.921" y="-54.729" width="7.669" height="66.829" style="fill: #d6e14c;"/>
            </g>
          </g>
        </g>
      </g>
      <line x1="486.604" y1="48.644" x2="548.912" y2="47.964" style="fill: #62c244; stroke: #62c244; stroke-dasharray: 0 10; stroke-linecap: round; stroke-linejoin: round; stroke-width: 10px;"/>
    </g>
    <g>
      <g>
        <g>
          <path d="M967.187,79.669h16.963s4.597,41.568,4.597,41.568c.255,2.325-1.567,4.356-3.908,4.356h-18.424c-2.344,0-4.167-2.036-3.907-4.363l4.679-41.56Z" style="fill: #6a4c46;"/>
          <g style="clip-path: url(#clippath-12);">
            <path d="M975.614,109.99l13.867-10.097c7.659-5.577,8.525-16.669,1.823-23.365l-4.851-4.846h-21.679s-4.851,4.846-4.851,4.846c-6.701,6.696-5.836,17.788,1.823,23.365l13.867,10.097Z" style="fill: #594238; fill-rule: evenodd;"/>
          </g>
        </g>
        <g>
          <g>
            <path d="M975.626,78.144c0,5.998-2.384,11.752-6.63,15.994-4.246,4.242-10.005,6.624-16.01,6.624h-22.771s0-6.999,0-14.953c0-6.001,2.384-11.754,6.63-15.997,4.246-4.24,10.005-6.624,16.01-6.624,11.373,0,22.771,0,22.771,0,0,0,0,6.999,0,14.956Z" style="fill: #abbe3c; fill-rule: evenodd;"/>
            <g style="clip-path: url(#clippath-13);">
              <polygon points="975.626 63.188 924.95 106.502 975.626 106.502 975.626 63.188" style="fill: #839c2f; fill-rule: evenodd;"/>
              <rect x="923.621" y="78.87" width="58.6" height="5.673" transform="translate(163.181 621.193) rotate(-39.239)" style="fill: #bdce42;"/>
              <path d="M949.136,103.213h5.676s0-5.887,0-9.54c0-1.565-1.272-2.836-2.838-2.836-1.567,0-2.838,1.27-2.838,2.836,0,3.653,0,9.54,0,9.54Z" style="fill: #4e7b3f; fill-rule: evenodd; opacity: .5;"/>
              <path d="M960.489,103.632h5.676s0-12.951,0-18.824c0-1.565-1.269-2.833-2.835-2.833h-.006c-1.567,0-2.835,1.268-2.835,2.833,0,5.873,0,18.824,0,18.824Z" style="fill: #4e7b3f; fill-rule: evenodd; opacity: .5;"/>
              <path d="M930.215,84.865v-5.371s5.307,0,8.665,0c.712,0,1.396.284,1.902.788.502.502.786,1.185.786,1.897h0c0,.715-.284,1.395-.786,1.9-.505.505-1.189.786-1.902.786-3.358,0-8.665,0-8.665,0Z" style="fill: #839c2f; fill-rule: evenodd; opacity: .75;"/>
              <path d="M930.215,73.822v-5.672s11.543,0,17.032,0c1.567,0,2.835,1.268,2.835,2.833v.006c0,1.565-1.269,2.833-2.835,2.833-5.489,0-17.032,0-17.032,0Z" style="fill: #839c2f; fill-rule: evenodd; opacity: .75;"/>
            </g>
          </g>
          <g>
            <path d="M975.626,78.144c0,5.998,2.384,11.752,6.63,15.994,4.246,4.242,10.005,6.624,16.01,6.624,11.373,0,22.771,0,22.771,0,0,0,0-6.999,0-14.953,0-6.001-2.384-11.754-6.63-15.997-4.246-4.24-10.005-6.624-16.01-6.624-11.373,0-22.771,0-22.771,0,0,0,0,6.999,0,14.956Z" style="fill: #abbe3c; fill-rule: evenodd;"/>
            <g style="clip-path: url(#clippath-14);">
              <polygon points="975.626 63.188 1026.303 106.502 975.626 106.502 975.626 63.188" style="fill: #839c2f; fill-rule: evenodd;"/>
              <rect x="995.496" y="52.407" width="5.673" height="58.6" transform="translate(304.048 803.726) rotate(-50.801)" style="fill: #bdce42;"/>
              <path d="M1002.116,103.213h-5.676s0-5.887,0-9.54c0-1.565,1.272-2.836,2.838-2.836,1.567,0,2.838,1.27,2.838,2.836,0,3.653,0,9.54,0,9.54Z" style="fill: #4e7b3f; fill-rule: evenodd; opacity: .5;"/>
              <path d="M990.764,103.632h-5.676v-18.821c0-.751.298-1.472.832-2.005.531-.53,1.254-.831,2.007-.831s1.476.301,2.007.831c.534.533.832,1.253.832,2.005,0,5.873,0,18.821,0,18.821Z" style="fill: #4e7b3f; fill-rule: evenodd; opacity: .5;"/>
              <path d="M1021.038,85.166v-5.672s-5.154,0-8.518,0c-.752,0-1.473.298-2.004.831-.534.53-.832,1.251-.832,2.002v.006c0,.751.298,1.472.832,2.005.531.53,1.252.828,2.004.828,3.363,0,8.518,0,8.518,0Z" style="fill: #839c2f; fill-rule: evenodd; opacity: .75;"/>
              <path d="M1021.038,73.822v-5.672s-11.54,0-17.029,0c-.752,0-1.476.301-2.007.831-.534.533-.832,1.253-.832,2.005,0,.751.298,1.475.832,2.005.531.533,1.254.831,2.007.831,5.489,0,17.029,0,17.029,0Z" style="fill: #839c2f; fill-rule: evenodd; opacity: .75;"/>
            </g>
          </g>
          <g>
            <path d="M975.614,100.763l13.601-9.903c7.512-5.47,8.361-16.35,1.788-22.918l-4.758-4.754h-21.263s-4.758,4.754-4.758,4.754c-6.573,6.567-5.724,17.447,1.788,22.918l13.601,9.903Z" style="fill: #bdce42; fill-rule: evenodd;"/>
            <g style="clip-path: url(#clippath-16);">
              <rect x="954.156" y="61.467" width="21.458" height="40.693" transform="translate(1929.7699 163.6258) rotate(-180)" style="fill: #839c2f;"/>
              <rect x="972.787" y="59.092" width="5.676" height="49.462" style="fill: #d6e14c;"/>
              <g>
                <g style="opacity: .5;">
                  <path d="M995.751,83.907c.924,0,1.833-.45,2.376-1.279.861-1.311.495-3.068-.817-3.927l-11.538-7.562c-1.312-.864-3.071-.491-3.928.814-.861,1.311-.495,3.068.817,3.927l11.538,7.562c.48.316,1.02.465,1.552.465Z" style="fill: #839c2f;"/>
                </g>
                <g style="opacity: .5;">
                  <path d="M955.503,83.907c.532,0,1.072-.15,1.552-.465l11.534-7.562c1.312-.858,1.678-2.616.817-3.927-.857-1.305-2.605-1.68-3.928-.814l-11.534,7.562c-1.312.858-1.678,2.616-.817,3.927.543.829,1.452,1.279,2.376,1.279Z" style="fill: #4e7b3f;"/>
                </g>
                <path d="M995.751,96.838c.924,0,1.833-.45,2.376-1.279.861-1.311.495-3.068-.817-3.927l-11.538-7.562c-1.312-.864-3.071-.491-3.928.814-.861,1.311-.495,3.068.817,3.927l11.538,7.562c.48.316,1.02.465,1.552.465Z" style="fill: #839c2f; opacity: .5;"/>
                <g style="opacity: .5;">
                  <path d="M955.503,96.838c.532,0,1.072-.15,1.552-.465l11.534-7.562c1.312-.858,1.678-2.616.817-3.927-.857-1.305-2.605-1.68-3.928-.814l-11.534,7.562c-1.312.858-1.678,2.616-.817,3.927.543.829,1.452,1.279,2.376,1.279Z" style="fill: #4e7b3f;"/>
                </g>
              </g>
            </g>
          </g>
        </g>
      </g>
      <line x1="952.569" y1="125.592" x2="998.685" y2="125.088" style="fill: #62c244; stroke: #62c244; stroke-dasharray: 0 10; stroke-linecap: round; stroke-linejoin: round; stroke-width: 10px;"/>
    </g>
    <g>
      <g>
        <g>
          <path d="M556.56,77.332h16.963s4.597,41.568,4.597,41.568c.255,2.325-1.567,4.356-3.908,4.356h-18.424c-2.344,0-4.167-2.036-3.907-4.363l4.679-41.56Z" style="fill: #6a4c46;"/>
          <g style="clip-path: url(#clippath-17);">
            <path d="M564.987,107.653l13.867-10.097c7.659-5.577,8.525-16.669,1.823-23.365l-4.851-4.846h-21.679s-4.851,4.846-4.851,4.846c-6.701,6.696-5.836,17.788,1.823,23.365l13.867,10.097Z" style="fill: #594238; fill-rule: evenodd;"/>
          </g>
        </g>
        <g>
          <g>
            <path d="M565,75.807c0,5.998-2.384,11.752-6.63,15.994-4.246,4.242-10.005,6.624-16.01,6.624-11.373,0-22.771,0-22.771,0,0,0,0-6.999,0-14.953,0-6.001,2.384-11.754,6.63-15.997,4.246-4.24,10.005-6.624,16.01-6.624,11.373,0,22.771,0,22.771,0,0,0,0,6.999,0,14.956Z" style="fill: #abbe3c; fill-rule: evenodd;"/>
            <g style="clip-path: url(#clippath-18);">
              <polygon points="565 60.851 514.323 104.165 565 104.165 565 60.851" style="fill: #839c2f; fill-rule: evenodd;"/>
              <rect x="512.994" y="76.533" width="58.6" height="5.673" transform="translate(72.071 360.924) rotate(-39.239)" style="fill: #bdce42;"/>
              <path d="M538.51,100.876h5.676s0-5.887,0-9.54c0-1.565-1.272-2.836-2.838-2.836-1.567,0-2.838,1.27-2.838,2.836,0,3.653,0,9.54,0,9.54Z" style="fill: #4e7b3f; fill-rule: evenodd; opacity: .5;"/>
              <path d="M549.863,101.296h5.676s0-12.951,0-18.824c0-1.565-1.269-2.833-2.835-2.833h-.006c-1.567,0-2.835,1.268-2.835,2.833,0,5.873,0,18.824,0,18.824Z" style="fill: #4e7b3f; fill-rule: evenodd; opacity: .5;"/>
              <path d="M519.588,82.528v-5.371s5.307,0,8.665,0c.712,0,1.396.284,1.902.788.502.502.786,1.185.786,1.897h0c0,.715-.284,1.395-.786,1.9-.505.505-1.189.786-1.902.786-3.358,0-8.665,0-8.665,0Z" style="fill: #839c2f; fill-rule: evenodd; opacity: .75;"/>
              <path d="M519.588,71.486v-5.672s11.543,0,17.032,0c1.567,0,2.835,1.268,2.835,2.833v.006c0,1.565-1.269,2.833-2.835,2.833-5.489,0-17.032,0-17.032,0Z" style="fill: #839c2f; fill-rule: evenodd; opacity: .75;"/>
            </g>
          </g>
          <g>
            <path d="M565,75.807c0,5.998,2.384,11.752,6.63,15.994,4.246,4.242,10.005,6.624,16.01,6.624h22.771s0-6.999,0-14.953c0-6.001-2.384-11.754-6.63-15.997-4.246-4.24-10.005-6.624-16.01-6.624-11.373,0-22.771,0-22.771,0,0,0,0,6.999,0,14.956Z" style="fill: #abbe3c; fill-rule: evenodd;"/>
            <g style="clip-path: url(#clippath-19);">
              <polygon points="565 60.851 615.676 104.165 565 104.165 565 60.851" style="fill: #839c2f; fill-rule: evenodd;"/>
              <rect x="584.869" y="50.07" width="5.673" height="58.6" transform="translate(154.756 484.65) rotate(-50.801)" style="fill: #bdce42;"/>
              <path d="M591.49,100.876h-5.676s0-5.887,0-9.54c0-1.565,1.272-2.836,2.838-2.836,1.567,0,2.838,1.27,2.838,2.836,0,3.653,0,9.54,0,9.54Z" style="fill: #4e7b3f; fill-rule: evenodd; opacity: .5;"/>
              <path d="M580.137,101.296h-5.676v-18.821c0-.751.298-1.472.832-2.005.531-.53,1.254-.831,2.007-.831s1.476.301,2.007.831c.534.533.832,1.253.832,2.005,0,5.873,0,18.821,0,18.821Z" style="fill: #4e7b3f; fill-rule: evenodd; opacity: .5;"/>
              <path d="M610.411,82.829v-5.672s-5.154,0-8.518,0c-.752,0-1.473.298-2.004.831-.534.53-.832,1.251-.832,2.002v.006c0,.751.298,1.472.832,2.005.531.53,1.252.828,2.004.828,3.363,0,8.518,0,8.518,0Z" style="fill: #839c2f; fill-rule: evenodd; opacity: .75;"/>
              <path d="M610.411,71.486v-5.672s-11.54,0-17.029,0c-.752,0-1.476.301-2.007.831-.534.533-.832,1.253-.832,2.005,0,.751.298,1.475.832,2.005.531.533,1.254.831,2.007.831,5.489,0,17.029,0,17.029,0Z" style="fill: #839c2f; fill-rule: evenodd; opacity: .75;"/>
            </g>
          </g>
          <g>
            <path d="M564.987,98.426l13.601-9.903c7.512-5.47,8.361-16.35,1.788-22.918l-4.758-4.754h-21.263s-4.758,4.754-4.758,4.754c-6.573,6.567-5.724,17.447,1.788,22.918l13.601,9.903Z" style="fill: #bdce42; fill-rule: evenodd;"/>
            <g style="clip-path: url(#clippath-21);">
              <rect x="543.529" y="59.13" width="21.458" height="40.693" transform="translate(1108.5166 158.9521) rotate(-180)" style="fill: #839c2f;"/>
              <rect x="562.16" y="56.755" width="5.676" height="49.462" style="fill: #d6e14c;"/>
              <g>
                <g style="opacity: .5;">
                  <path d="M585.125,81.57c.924,0,1.833-.45,2.376-1.279.861-1.311.495-3.068-.817-3.927l-11.538-7.562c-1.312-.864-3.071-.491-3.928.814-.861,1.311-.495,3.068.817,3.927l11.538,7.562c.48.316,1.02.465,1.552.465Z" style="fill: #839c2f;"/>
                </g>
                <g style="opacity: .5;">
                  <path d="M544.876,81.57c.532,0,1.072-.15,1.552-.465l11.534-7.562c1.312-.858,1.678-2.616.817-3.927-.857-1.305-2.605-1.68-3.928-.814l-11.534,7.562c-1.312.858-1.678,2.616-.817,3.927.543.829,1.452,1.279,2.376,1.279Z" style="fill: #4e7b3f;"/>
                </g>
                <path d="M585.125,94.501c.924,0,1.833-.45,2.376-1.279.861-1.311.495-3.068-.817-3.927l-11.538-7.562c-1.312-.864-3.071-.491-3.928.814-.861,1.311-.495,3.068.817,3.927l11.538,7.562c.48.316,1.02.465,1.552.465Z" style="fill: #839c2f; opacity: .5;"/>
                <g style="opacity: .5;">
                  <path d="M544.876,94.501c.532,0,1.072-.15,1.552-.465l11.534-7.562c1.312-.858,1.678-2.616.817-3.927-.857-1.305-2.605-1.68-3.928-.814l-11.534,7.562c-1.312.858-1.678,2.616-.817,3.927.543.829,1.452,1.279,2.376,1.279Z" style="fill: #4e7b3f;"/>
                </g>
              </g>
            </g>
          </g>
        </g>
      </g>
      <line x1="541.942" y1="123.255" x2="588.059" y2="122.752" style="fill: #62c244; stroke: #62c244; stroke-dasharray: 0 10; stroke-linecap: round; stroke-linejoin: round; stroke-width: 10px;"/>
    </g>
    <g>
      <path d="M236.218,44.003c0-.822-.326-1.608-.906-2.188-.582-.582-1.369-.908-2.19-.908s-1.608.326-2.19.908c-.58.58-.906,1.367-.906,2.188v2.064c0,2.851,2.31,5.161,5.161,5.161h1.032v-7.226Z" style="fill: #d9df50; fill-rule: evenodd; stroke: #d9df50; stroke-miterlimit: 10; stroke-width: .31px;"/>
      <path d="M248.605,35.745c0-.822-.326-1.608-.906-2.188-.582-.582-1.369-.908-2.19-.908s-1.608.326-2.19.908c-.58.58-.906,1.367-.906,2.188v15.484h6.193v-15.484Z" style="fill: #d9df50; fill-rule: evenodd; stroke: #d9df50; stroke-miterlimit: 10; stroke-width: .31px;"/>
      <path d="M254.798,39.874c0-.822-.326-1.608-.906-2.188-.582-.582-1.369-.908-2.19-.908s-1.608.326-2.19.908c-.58.58-.906,1.367-.906,2.188v11.355h6.193v-11.355Z" style="fill: #d9df50; fill-rule: evenodd; stroke: #d9df50; stroke-miterlimit: 10; stroke-width: .31px;"/>
      <path d="M242.411,39.874c0-.822-.326-1.608-.906-2.188-.582-.582-1.369-.908-2.19-.908s-1.608.326-2.19.908c-.58.58-.906,1.367-.906,2.188v11.355h6.193v-11.355Z" style="fill: #d9df50; fill-rule: evenodd; stroke: #d9df50; stroke-miterlimit: 10; stroke-width: .31px;"/>
      <path d="M260.991,44.003c0-.822-.326-1.608-.906-2.188-.582-.582-1.369-.908-2.19-.908s-1.608.326-2.19.908c-.58.58-.906,1.367-.906,2.188v7.226h1.032c2.851,0,5.161-2.31,5.161-5.161v-2.064Z" style="fill: #d9df50; fill-rule: evenodd; stroke: #d9df50; stroke-miterlimit: 10; stroke-width: .31px;"/>
    </g>
    <g>
      <path d="M1152.034,92.76c0-.822-.326-1.608-.906-2.188-.582-.582-1.369-.908-2.19-.908s-1.608.326-2.19.908c-.58.58-.906,1.367-.906,2.188v2.064c0,2.851,2.31,5.161,5.161,5.161h1.032v-7.226Z" style="fill: #d9df50; fill-rule: evenodd; stroke: #d9df50; stroke-miterlimit: 10; stroke-width: .31px;"/>
      <path d="M1164.421,84.502c0-.822-.326-1.608-.906-2.188-.582-.582-1.369-.908-2.19-.908s-1.608.326-2.19.908c-.58.58-.906,1.367-.906,2.188v15.484h6.193v-15.484Z" style="fill: #d9df50; fill-rule: evenodd; stroke: #d9df50; stroke-miterlimit: 10; stroke-width: .31px;"/>
      <path d="M1170.614,88.631c0-.822-.326-1.608-.906-2.188-.582-.582-1.369-.908-2.19-.908s-1.608.326-2.19.908c-.58.58-.906,1.367-.906,2.188v11.355h6.193v-11.355Z" style="fill: #d9df50; fill-rule: evenodd; stroke: #d9df50; stroke-miterlimit: 10; stroke-width: .31px;"/>
      <path d="M1158.228,88.631c0-.822-.326-1.608-.906-2.188-.582-.582-1.369-.908-2.19-.908s-1.608.326-2.19.908c-.58.58-.906,1.367-.906,2.188v11.355h6.193v-11.355Z" style="fill: #d9df50; fill-rule: evenodd; stroke: #d9df50; stroke-miterlimit: 10; stroke-width: .31px;"/>
      <path d="M1176.808,92.76c0-.822-.326-1.608-.906-2.188-.582-.582-1.369-.908-2.19-.908s-1.608.326-2.19.908c-.58.58-.906,1.367-.906,2.188v7.226h1.032c2.851,0,5.161-2.31,5.161-5.161v-2.064Z" style="fill: #d9df50; fill-rule: evenodd; stroke: #d9df50; stroke-miterlimit: 10; stroke-width: .31px;"/>
    </g>
    <g style="opacity: .35;">
      <g>
        <circle cx="751.041" cy="22.509" r="2.829" transform="translate(80.77 362.077) rotate(-28.584)" style="fill: #f2b052; opacity: .6;"/>
        <circle cx="743.299" cy="30.485" r="2.829" transform="translate(76.011 359.345) rotate(-28.584)" style="fill: #f2b052; opacity: .6;"/>
        <circle cx="739.602" cy="22.262" r="2.829" transform="translate(79.494 356.574) rotate(-28.584)" style="fill: #f2b052; opacity: .6;"/>
        <circle cx="723.555" cy="42.554" r="2.829" transform="translate(67.83 351.37) rotate(-28.584)" style="fill: #f2b052; opacity: .6;"/>
        <circle cx="740.55" cy="51.293" r="2.829" transform="translate(65.72 360.566) rotate(-28.584)" style="fill: #f2b052; opacity: .6;"/>
      </g>
    </g>
    <g style="opacity: .35;">
      <g>
        <circle cx="1106.733" cy="5.502" r="2.829" transform="translate(132.261 530.184) rotate(-28.584)" style="fill: #f2b052; opacity: .6;"/>
        <circle cx="1123.728" cy="14.24" r="2.829" transform="translate(130.151 539.381) rotate(-28.584)" style="fill: #f2b052; opacity: .6;"/>
      </g>
    </g>
    <g>
      <rect x="713.977" y="123.913" width="97.769" height="47.926" style="fill: #ce6062;"/>
      <rect x="748.483" y="133.498" width="7.668" height="7.668" style="fill: #e2893b;"/>
      <rect x="748.483" y="133.498" width="7.668" height="5.751" style="fill: #e6ad44;"/>
      <rect x="779.156" y="118.161" width="23.004" height="17.253" rx="4.2" ry="4.2" style="fill: #102120;"/>
      <rect x="786.824" y="135.415" width="5.681" height="1.917" style="fill: #d5a03a;"/>
      <rect x="779.156" y="121.996" width="13.419" height="13.419" rx="3.267" ry="3.267" style="fill: #f6e658;"/>
      <path d="M790.658,118.161h-8.813c-2.544,0-4.607,2.063-4.607,4.607v3.061h13.419v-7.668Z" style="fill: #102120; fill-rule: evenodd;"/>
      <path d="M802.16,121.996h-13.419v15.336h9.76c2.021,0,3.66-1.638,3.66-3.66v-11.676Z" style="fill: #102120; fill-rule: evenodd;"/>
      <path d="M790.194,140.648c.362-.363.566-.857.564-1.371-.002-.514-.211-1.006-.577-1.366,0,0,0,0-.002-.001-.773-.759-2.013-.753-2.778.013-2.598,2.597-8.176,8.174-10.768,10.768-.366.366-.571.862-.571,1.379s.205,1.013.571,1.379c0,0,0,.001.002.002.761.761,1.996.761,2.757,0,2.601-2.601,8.203-8.204,10.803-10.802Z" style="fill: #dccf47; fill-rule: evenodd;"/>
      <g>
        <path d="M795.392,147.876c-2.048,0-3.799-1.463-4.155-3.48-.369-2.09-.842-4.775-1.246-7.064h-2.594c-.36,0-.7.159-.932.434-.23.275-.328.638-.264.992.671,3.805,2.454,13.91,2.454,13.91h9.671s-.376-2.128-.846-4.793h-2.088Z" style="fill: #22316e;"/>
        <path d="M795.385,147.876h2.096c-.363-2.059-.783-4.439-1.132-6.417-.422-2.392-2.499-4.127-4.928-4.127h-1.429c.404,2.29.878,4.978,1.247,7.069.355,2.013,2.103,3.475,4.147,3.475Z" style="fill: #f6e658;"/>
      </g>
      <path d="M783.451,127.676h1.267c.175,0,.316.142.316.316v3.271c0,.175-.142.317-.317.317h-1.266c-.175,0-.317-.142-.317-.317v-3.27c0-.175.142-.317.317-.317Z" style="fill: #0d1c1c;"/>
      <path d="M789.013,125.83c-1.967,0-3.564,1.596-3.564,3.563s1.597,3.563,3.564,3.563,3.562-1.596,3.562-3.563-1.597-3.563-3.562-3.563Z" style="fill: #f6e658; fill-rule: evenodd;"/>
      <path d="M790.261,140.648c.364-.363.567-.857.566-1.371-.004-.514-.211-1.006-.577-1.366-.002,0-.002,0-.002-.001-.773-.759-2.013-.753-2.78.013-2.598,2.597-8.174,8.174-10.768,10.768-.366.366-.571.862-.571,1.379s.205,1.013.571,1.379c0,0,.002.001.002.002.761.761,1.996.761,2.757,0,2.601-2.601,8.205-8.204,10.803-10.802Z" style="fill: #f6e658; fill-rule: evenodd;"/>
      <rect x="727.396" y="121.996" width="17.253" height="13.419" rx="3.267" ry="3.267" style="fill: #4ba2da;"/>
      <path d="M723.562,125.83h18.398c1.221,0,2.392-.485,3.257-1.349.865-.864,1.35-2.036,1.35-3.258v-3.061h-17.855c-1.365,0-2.674.543-3.64,1.508-.966.966-1.509,2.276-1.509,3.641v2.519Z" style="fill: #102120; fill-rule: evenodd;"/>
      <path d="M723.562,128.293c0,3.933,3.188,7.121,7.122,7.121h.477v-17.253h-2.977c-2.552,0-4.622,2.069-4.622,4.622v5.51Z" style="fill: #102120; fill-rule: evenodd;"/>
      <rect x="731.23" y="135.415" width="5.751" height="1.917" style="fill: #3a7fa2;"/>
      <path d="M738.898,138.547c0-.322-.128-.631-.357-.859-.226-.228-.537-.356-.859-.356h-6.175c-.606,0-1.185.24-1.612.668-.429.428-.669,1.008-.669,1.613v13.055h9.671v-14.121Z" style="fill: #fff; fill-rule: evenodd;"/>
      <path d="M739.215,127.676h1.267c.175,0,.316.142.316.316v3.271c0,.175-.142.317-.317.317h-1.265c-.176,0-.318-.143-.318-.318v-3.269c0-.175.142-.317.317-.317Z" style="fill: #0d1c1c;"/>
      <path d="M730.958,125.83c1.967,0,3.564,1.596,3.564,3.563s-1.597,3.563-3.564,3.563-3.562-1.596-3.562-3.563,1.597-3.563,3.562-3.563Z" style="fill: #4ba2da; fill-rule: evenodd;"/>
      <path d="M731.161,139.292c0-.519.207-1.016.575-1.382.368-.366.866-.569,1.386-.566h.002c1.074.007,1.94.88,1.94,1.953v9.504c0,1.077-.872,1.95-1.95,1.95h-.004c-.516,0-1.012-.206-1.378-.571-.364-.366-.571-.862-.571-1.379v-9.509Z" style="fill: #4ba2da; fill-rule: evenodd;"/>
    </g>
    <g>
      <g>
        <g>
          <path d="M238.662,107.017h18.181s4.927,44.959,4.927,44.959c.273,2.492-1.68,4.668-4.189,4.668h-19.747c-2.512,0-4.466-2.182-4.188-4.677l5.015-44.95Z" style="fill: #6b4c46;"/>
          <g style="clip-path: url(#clippath-22);">
            <path d="M247.694,139.516l14.862-10.822c8.209-5.977,9.137-17.867,1.954-25.043l-5.199-5.195h-23.236s-5.199,5.195-5.199,5.195c-7.183,7.177-6.255,19.066,1.954,25.043l14.862,10.822Z" style="fill: #594237; fill-rule: evenodd;"/>
          </g>
        </g>
        <g>
          <g>
            <path d="M247.708,105.384c0,6.428-2.555,12.596-7.106,17.143-4.551,4.547-10.723,7.1-17.16,7.1-12.189,0-24.406,0-24.406,0,0,0,0-7.501,0-16.027,0-6.432,2.555-12.599,7.106-17.146,4.551-4.544,10.723-7.1,17.16-7.1,12.189,0,24.406,0,24.406,0,0,0,0,7.501,0,16.03Z" style="fill: #abc02e; fill-rule: evenodd;"/>
            <g style="clip-path: url(#clippath-23);">
              <polygon points="247.708 89.353 193.392 135.778 247.708 135.778 247.708 89.353" style="fill: #839d24; fill-rule: evenodd;"/>
              <rect x="191.967" y="106.162" width="62.808" height="6.08" transform="translate(-18.71 165.916) rotate(-39.239)" style="fill: #bdd033;"/>
              <path d="M219.315,132.252h6.084s0-6.31,0-10.225c0-1.678-1.363-3.039-3.042-3.039-1.679,0-3.042,1.362-3.042,3.039,0,3.915,0,10.225,0,10.225Z" style="fill: #4d7c3d; fill-rule: evenodd; opacity: .5;"/>
              <path d="M231.483,132.702h6.084s0-13.881,0-20.176c0-1.678-1.36-3.036-3.039-3.036h-.006c-1.679,0-3.039,1.359-3.039,3.036,0,6.295,0,20.176,0,20.176Z" style="fill: #4d7c3d; fill-rule: evenodd; opacity: .5;"/>
              <path d="M199.035,112.587v-5.757s5.689,0,9.287,0c.764,0,1.497.304,2.038.845.538.538.843,1.27.843,2.033h0c0,.766-.304,1.495-.843,2.036-.542.541-1.275.842-2.038.842-3.599,0-9.287,0-9.287,0Z" style="fill: #839d24; fill-rule: evenodd; opacity: .75;"/>
              <path d="M199.035,100.751v-6.079s12.372,0,18.255,0c1.679,0,3.039,1.359,3.039,3.036v.006c0,1.678-1.36,3.036-3.039,3.036-5.883,0-18.255,0-18.255,0Z" style="fill: #839d24; fill-rule: evenodd; opacity: .75;"/>
            </g>
          </g>
          <g>
            <path d="M247.708,105.384c0,6.428,2.555,12.596,7.106,17.143,4.551,4.547,10.723,7.1,17.16,7.1,12.189,0,24.406,0,24.406,0,0,0,0-7.501,0-16.027,0-6.432-2.555-12.599-7.106-17.146-4.551-4.544-10.723-7.1-17.16-7.1-12.189,0-24.406,0-24.406,0,0,0,0,7.501,0,16.03Z" style="fill: #abc02e; fill-rule: evenodd;"/>
            <g style="clip-path: url(#clippath-24);">
              <polygon points="247.708 89.353 302.023 135.778 247.708 135.778 247.708 89.353" style="fill: #839d24; fill-rule: evenodd;"/>
              <rect x="269.004" y="77.798" width="6.08" height="62.808" transform="translate(15.481 251.005) rotate(-50.801)" style="fill: #bdd033;"/>
              <path d="M276.1,132.252h-6.084s0-6.31,0-10.225c0-1.678,1.363-3.039,3.042-3.039,1.679,0,3.042,1.362,3.042,3.039,0,3.915,0,10.225,0,10.225Z" style="fill: #4d7c3d; fill-rule: evenodd; opacity: .5;"/>
              <path d="M263.932,132.702h-6.084s0-13.878,0-20.173c0-.805.319-1.577.891-2.149.569-.568,1.345-.891,2.151-.891.806,0,1.582.322,2.151.891.572.571.891,1.343.891,2.149,0,6.295,0,20.173,0,20.173Z" style="fill: #4d7c3d; fill-rule: evenodd; opacity: .5;"/>
              <path d="M296.38,112.909v-6.079s-5.524,0-9.129,0c-.806,0-1.579.319-2.148.891-.572.568-.891,1.34-.891,2.146v.006c0,.805.319,1.577.891,2.149.569.568,1.342.888,2.148.888,3.605,0,9.129,0,9.129,0Z" style="fill: #839d24; fill-rule: evenodd; opacity: .75;"/>
              <path d="M296.38,100.751v-6.079s-12.369,0-18.252,0c-.806,0-1.582.322-2.151.891-.572.571-.891,1.343-.891,2.149,0,.805.319,1.581.891,2.149.569.571,1.345.891,2.151.891,5.883,0,18.252,0,18.252,0Z" style="fill: #839d24; fill-rule: evenodd; opacity: .75;"/>
            </g>
          </g>
          <g>
            <path d="M247.694,129.626l14.578-10.615c8.052-5.863,8.962-17.524,1.917-24.563l-5.099-5.095h-22.79s-5.099,5.095-5.099,5.095c-7.045,7.039-6.135,18.7,1.917,24.563l14.578,10.615Z" style="fill: #bdd033; fill-rule: evenodd;"/>
            <g style="clip-path: url(#clippath-26);">
              <rect x="224.695" y="87.508" width="22.999" height="43.615" transform="translate(472.39 218.632) rotate(-180)" style="fill: #839d24;"/>
              <rect x="244.664" y="84.963" width="6.084" height="53.015" style="fill: #d6e23d;"/>
              <g>
                <g style="opacity: .5;">
                  <path d="M269.278,111.56c.99,0,1.965-.483,2.547-1.371.923-1.405.531-3.289-.875-4.209l-12.366-8.105c-1.406-.926-3.292-.526-4.211.873-.923,1.405-.531,3.289.875,4.209l12.366,8.105c.515.338,1.093.499,1.664.499Z" style="fill: #839d24;"/>
                </g>
                <g style="opacity: .5;">
                  <path d="M226.139,111.56c.57,0,1.149-.16,1.664-.499l12.362-8.105c1.406-.92,1.798-2.804.875-4.209-.919-1.399-2.792-1.801-4.211-.873l-12.362,8.105c-1.406.92-1.798,2.804-.875,4.209.582.888,1.557,1.371,2.547,1.371Z" style="fill: #4d7c3d;"/>
                </g>
                <path d="M269.278,125.42c.99,0,1.965-.483,2.547-1.371.923-1.405.531-3.289-.875-4.209l-12.366-8.105c-1.406-.926-3.292-.526-4.211.873-.923,1.405-.531,3.289.875,4.209l12.366,8.105c.515.338,1.093.499,1.664.499Z" style="fill: #839d24; opacity: .5;"/>
                <g style="opacity: .5;">
                  <path d="M226.139,125.42c.57,0,1.149-.16,1.664-.499l12.362-8.105c1.406-.92,1.798-2.804.875-4.209-.919-1.399-2.792-1.801-4.211-.873l-12.362,8.105c-1.406.92-1.798,2.804-.875,4.209.582.888,1.557,1.371,2.547,1.371Z" style="fill: #4d7c3d;"/>
                </g>
              </g>
            </g>
          </g>
        </g>
      </g>
      <g>
        <g>
          <g>
            <path d="M103.085-16.475h12.473s3.38,30.845,3.38,30.845c.187,1.709-1.153,3.203-2.874,3.203h-13.548c-1.723,0-3.064-1.497-2.873-3.208l3.441-30.839Z" style="fill: #6b4c46;"/>
            <g style="clip-path: url(#clippath-27);">
              <path d="M109.282,5.822l10.197-7.425c5.632-4.101,6.269-12.258,1.341-17.181l-3.567-3.564h-15.941s-3.567,3.564-3.567,3.564c-4.928,4.924-4.291,13.081,1.341,17.181l10.197,7.425Z" style="fill: #594237; fill-rule: evenodd;"/>
            </g>
          </g>
          <g>
            <g style="clip-path: url(#clippath-28);">
              <polygon points="109.291 -28.594 72.027 3.257 109.291 3.257 109.291 -28.594" style="fill: #839d24; fill-rule: evenodd;"/>
              <rect x="71.049" y="-17.062" width="43.091" height="4.171" transform="translate(30.351 55.194) rotate(-39.239)" style="fill: #bdd033;"/>
              <path d="M89.812.838h4.174s0-4.329,0-7.015c0-1.151-.935-2.085-2.087-2.085-1.152,0-2.087.934-2.087,2.085,0,2.686,0,7.015,0,7.015Z" style="fill: #4d7c3d; fill-rule: evenodd; opacity: .5;"/>
              <path d="M98.16,1.147h4.174s0-9.524,0-13.842c0-1.151-.933-2.083-2.085-2.083h-.004c-1.152,0-2.085.932-2.085,2.083,0,4.319,0,13.842,0,13.842Z" style="fill: #4d7c3d; fill-rule: evenodd; opacity: .5;"/>
            </g>
            <g style="clip-path: url(#clippath-29);">
              <polygon points="109.291 -28.594 146.556 3.257 109.291 3.257 109.291 -28.594" style="fill: #839d24; fill-rule: evenodd;"/>
              <rect x="123.902" y="-36.522" width="4.171" height="43.091" transform="translate(57.967 92.124) rotate(-50.801)" style="fill: #bdd033;"/>
              <path d="M128.771.838h-4.174s0-4.329,0-7.015c0-1.151.935-2.085,2.087-2.085,1.152,0,2.087.934,2.087,2.085,0,2.686,0,7.015,0,7.015Z" style="fill: #4d7c3d; fill-rule: evenodd; opacity: .5;"/>
              <path d="M120.422,1.147h-4.174s0-9.522,0-13.84c0-.553.219-1.082.612-1.474.39-.39.922-.611,1.476-.611.553,0,1.085.221,1.476.611.392.392.612.922.612,1.474,0,4.319,0,13.84,0,13.84Z" style="fill: #4d7c3d; fill-rule: evenodd; opacity: .5;"/>
            </g>
            <g style="clip-path: url(#clippath-30);">
              <rect x="93.503" y="-29.86" width="15.779" height="29.923" transform="translate(202.785 -29.796) rotate(-180)" style="fill: #839d24;"/>
              <rect x="107.203" y="-31.606" width="4.174" height="36.372" style="fill: #d6e23d;"/>
            </g>
          </g>
        </g>
        <line x1="92.336" y1="17.573" x2="126.247" y2="17.203" style="fill: #52ab35; stroke: #52ab35; stroke-dasharray: 0 10; stroke-linecap: round; stroke-linejoin: round; stroke-width: 10px;"/>
      </g>
      <g>
        <g>
          <g>
            <path d="M142.774,23.214h12.473s3.38,30.845,3.38,30.845c.187,1.709-1.153,3.203-2.874,3.203h-13.548c-1.723,0-3.064-1.497-2.873-3.208l3.441-30.839Z" style="fill: #6b4c46;"/>
            <g style="clip-path: url(#clippath-31);">
              <path d="M148.971,45.511l10.197-7.425c5.632-4.101,6.269-12.258,1.341-17.181l-3.567-3.564h-15.941s-3.567,3.564-3.567,3.564c-4.928,4.924-4.291,13.081,1.341,17.181l10.197,7.425Z" style="fill: #594237; fill-rule: evenodd;"/>
            </g>
          </g>
          <g>
            <g>
              <path d="M148.98,22.093c0,4.41-1.753,8.641-4.875,11.761-3.122,3.12-7.357,4.871-11.773,4.871h-16.745s0-5.147,0-10.996c0-4.412,1.753-8.644,4.875-11.763,3.122-3.118,7.357-4.871,11.773-4.871,8.363,0,16.745,0,16.745,0,0,0,0,5.147,0,10.998Z" style="fill: #abc02e; fill-rule: evenodd;"/>
              <g style="clip-path: url(#clippath-32);">
                <polygon points="148.98 11.095 111.716 42.946 148.98 42.946 148.98 11.095" style="fill: #839d24; fill-rule: evenodd;"/>
                <rect x="110.738" y="22.627" width="43.091" height="4.171" transform="translate(14.195 89.248) rotate(-39.239)" style="fill: #bdd033;"/>
                <path d="M129.501,40.527h4.174s0-4.329,0-7.015c0-1.151-.935-2.085-2.087-2.085-1.152,0-2.087.934-2.087,2.085,0,2.686,0,7.015,0,7.015Z" style="fill: #4d7c3d; fill-rule: evenodd; opacity: .5;"/>
                <path d="M137.849,40.836h4.174s0-9.524,0-13.842c0-1.151-.933-2.083-2.085-2.083h-.004c-1.152,0-2.085.932-2.085,2.083,0,4.319,0,13.842,0,13.842Z" style="fill: #4d7c3d; fill-rule: evenodd; opacity: .5;"/>
                <path d="M115.587,27.035v-3.95s3.903,0,6.372,0c.524,0,1.027.209,1.398.58.369.369.578.872.578,1.395h0c0,.525-.209,1.026-.578,1.397-.372.371-.874.578-1.398.578-2.469,0-6.372,0-6.372,0Z" style="fill: #839d24; fill-rule: evenodd; opacity: .75;"/>
                <path d="M115.587,18.915v-4.171h12.525c1.152,0,2.085.932,2.085,2.083v.004c0,1.151-.933,2.083-2.085,2.083-4.036,0-12.525,0-12.525,0Z" style="fill: #839d24; fill-rule: evenodd; opacity: .75;"/>
              </g>
            </g>
            <g>
              <path d="M148.98,22.093c0,4.41,1.753,8.641,4.875,11.761,3.122,3.12,7.357,4.871,11.773,4.871h16.745s0-5.147,0-10.996c0-4.412-1.753-8.644-4.875-11.763-3.122-3.118-7.357-4.871-11.773-4.871-8.363,0-16.745,0-16.745,0,0,0,0,5.147,0,10.998Z" style="fill: #abc02e; fill-rule: evenodd;"/>
              <g style="clip-path: url(#clippath-33);">
                <polygon points="148.98 11.095 186.245 42.946 148.98 42.946 148.98 11.095" style="fill: #839d24; fill-rule: evenodd;"/>
                <rect x="163.591" y="3.167" width="4.171" height="43.091" transform="translate(41.815 137.485) rotate(-50.801)" style="fill: #bdd033;"/>
                <path d="M168.46,40.527h-4.174s0-4.329,0-7.015c0-1.151.935-2.085,2.087-2.085,1.152,0,2.087.934,2.087,2.085,0,2.686,0,7.015,0,7.015Z" style="fill: #4d7c3d; fill-rule: evenodd; opacity: .5;"/>
                <path d="M160.111,40.836h-4.174s0-9.522,0-13.84c0-.553.219-1.082.612-1.474.39-.39.922-.611,1.476-.611.553,0,1.085.221,1.476.611.392.392.612.922.612,1.474,0,4.319,0,13.84,0,13.84Z" style="fill: #4d7c3d; fill-rule: evenodd; opacity: .5;"/>
                <path d="M182.373,27.256v-4.171s-3.79,0-6.263,0c-.553,0-1.083.219-1.473.611-.392.39-.612.92-.612,1.472v.004c0,.553.219,1.082.612,1.474.39.39.92.609,1.473.609,2.473,0,6.263,0,6.263,0Z" style="fill: #839d24; fill-rule: evenodd; opacity: .75;"/>
                <path d="M182.373,18.915v-4.171s-8.486,0-12.522,0c-.553,0-1.085.221-1.476.611-.392.392-.612.922-.612,1.474,0,.553.219,1.084.612,1.474.39.392.922.611,1.476.611h12.522Z" style="fill: #839d24; fill-rule: evenodd; opacity: .75;"/>
              </g>
            </g>
            <g>
              <path d="M148.971,38.726l10.001-7.282c5.524-4.022,6.149-12.023,1.315-16.852l-3.499-3.496h-15.636s-3.499,3.496-3.499,3.496c-4.833,4.829-4.209,12.83,1.315,16.852l10.001,7.282Z" style="fill: #bdd033; fill-rule: evenodd;"/>
              <g style="clip-path: url(#clippath-35);">
                <rect x="133.192" y="9.829" width="15.779" height="29.923" transform="translate(282.163 49.582) rotate(-180)" style="fill: #839d24;"/>
                <rect x="146.892" y="8.083" width="4.174" height="36.372" style="fill: #d6e23d;"/>
                <g>
                  <g style="opacity: .5;">
                    <path d="M163.779,26.331c.679,0,1.348-.331,1.747-.941.633-.964.364-2.256-.601-2.888l-8.484-5.561c-.965-.635-2.258-.361-2.889.599-.633.964-.364,2.256.601,2.888l8.484,5.561c.353.232.75.342,1.141.342Z" style="fill: #839d24;"/>
                  </g>
                  <g style="opacity: .5;">
                    <path d="M134.182,26.331c.391,0,.788-.11,1.141-.342l8.481-5.561c.965-.631,1.234-1.924.601-2.888-.63-.96-1.916-1.235-2.889-.599l-8.481,5.561c-.965.631-1.234,1.924-.601,2.888.399.61,1.068.941,1.747.941Z" style="fill: #4d7c3d;"/>
                  </g>
                  <path d="M163.779,35.84c.679,0,1.348-.331,1.747-.941.633-.964.364-2.256-.601-2.888l-8.484-5.561c-.965-.635-2.258-.361-2.889.599-.633.964-.364,2.256.601,2.888l8.484,5.561c.353.232.75.342,1.141.342Z" style="fill: #839d24; opacity: .5;"/>
                  <g style="opacity: .5;">
                    <path d="M134.182,35.84c.391,0,.788-.11,1.141-.342l8.481-5.561c.965-.631,1.234-1.924.601-2.888-.63-.96-1.916-1.235-2.889-.599l-8.481,5.561c-.965.631-1.234,1.924-.601,2.888.399.61,1.068.941,1.747.941Z" style="fill: #4d7c3d;"/>
                  </g>
                </g>
              </g>
            </g>
          </g>
        </g>
        <line x1="132.025" y1="57.262" x2="165.936" y2="56.892" style="fill: #52ab35; stroke: #52ab35; stroke-dasharray: 0 10; stroke-linecap: round; stroke-linejoin: round; stroke-width: 10px;"/>
      </g>
      <g>
        <g>
          <g>
            <path d="M156.323,96.053h12.473s3.38,30.845,3.38,30.845c.187,1.709-1.153,3.203-2.874,3.203h-13.548c-1.723,0-3.064-1.497-2.873-3.208l3.441-30.839Z" style="fill: #6b4c46;"/>
            <g style="clip-path: url(#clippath-36);">
              <path d="M162.519,118.35l10.197-7.425c5.632-4.101,6.269-12.258,1.341-17.181l-3.567-3.564h-15.941s-3.567,3.564-3.567,3.564c-4.928,4.924-4.291,13.081,1.341,17.181l10.197,7.425Z" style="fill: #594237; fill-rule: evenodd;"/>
            </g>
          </g>
          <g>
            <g>
              <path d="M162.529,94.932c0,4.41-1.753,8.641-4.875,11.761-3.122,3.12-7.357,4.871-11.773,4.871-8.363,0-16.745,0-16.745,0,0,0,0-5.147,0-10.996,0-4.412,1.753-8.644,4.875-11.763,3.122-3.118,7.357-4.871,11.773-4.871,8.363,0,16.745,0,16.745,0,0,0,0,5.147,0,10.998Z" style="fill: #abc02e; fill-rule: evenodd;"/>
              <g style="clip-path: url(#clippath-37);">
                <polygon points="162.529 83.934 125.264 115.785 162.529 115.785 162.529 83.934" style="fill: #839d24; fill-rule: evenodd;"/>
                <rect x="124.287" y="95.466" width="43.091" height="4.171" transform="translate(-28.824 114.242) rotate(-39.239)" style="fill: #bdd033;"/>
                <path d="M143.049,113.366h4.174s0-4.329,0-7.015c0-1.151-.935-2.085-2.087-2.085-1.152,0-2.087.934-2.087,2.085,0,2.686,0,7.015,0,7.015Z" style="fill: #4d7c3d; fill-rule: evenodd; opacity: .5;"/>
                <path d="M151.398,113.675h4.174s0-9.524,0-13.842c0-1.151-.933-2.083-2.085-2.083h-.004c-1.152,0-2.085.932-2.085,2.083,0,4.319,0,13.842,0,13.842Z" style="fill: #4d7c3d; fill-rule: evenodd; opacity: .5;"/>
                <path d="M129.136,99.874v-3.95s3.903,0,6.372,0c.524,0,1.027.209,1.398.58.369.369.578.872.578,1.395h0c0,.525-.209,1.026-.578,1.397-.372.371-.874.578-1.398.578-2.469,0-6.372,0-6.372,0Z" style="fill: #839d24; fill-rule: evenodd; opacity: .75;"/>
                <path d="M129.136,91.754v-4.171h12.525c1.152,0,2.085.932,2.085,2.083v.004c0,1.151-.933,2.083-2.085,2.083-4.036,0-12.525,0-12.525,0Z" style="fill: #839d24; fill-rule: evenodd; opacity: .75;"/>
              </g>
            </g>
            <g>
              <path d="M162.529,94.932c0,4.41,1.753,8.641,4.875,11.761,3.122,3.12,7.357,4.871,11.773,4.871,8.363,0,16.745,0,16.745,0,0,0,0-5.147,0-10.996,0-4.412-1.753-8.644-4.875-11.763-3.122-3.118-7.357-4.871-11.773-4.871h-16.745s0,5.147,0,10.998Z" style="fill: #abc02e; fill-rule: evenodd;"/>
              <g style="clip-path: url(#clippath-38);">
                <polygon points="162.529 83.934 199.793 115.785 162.529 115.785 162.529 83.934" style="fill: #839d24; fill-rule: evenodd;"/>
                <rect x="177.14" y="76.006" width="4.171" height="43.091" transform="translate(-9.647 174.788) rotate(-50.801)" style="fill: #bdd033;"/>
                <path d="M182.008,113.366h-4.174s0-4.329,0-7.015c0-1.151.935-2.085,2.087-2.085,1.152,0,2.087.934,2.087,2.085,0,2.686,0,7.015,0,7.015Z" style="fill: #4d7c3d; fill-rule: evenodd; opacity: .5;"/>
                <path d="M173.66,113.675h-4.174s0-9.522,0-13.84c0-.553.219-1.082.612-1.474.39-.39.922-.611,1.476-.611.553,0,1.085.221,1.476.611.392.392.612.922.612,1.474,0,4.319,0,13.84,0,13.84Z" style="fill: #4d7c3d; fill-rule: evenodd; opacity: .5;"/>
                <path d="M195.922,100.095v-4.171s-3.79,0-6.263,0c-.553,0-1.083.219-1.473.611-.392.39-.612.92-.612,1.472v.004c0,.553.219,1.082.612,1.474.39.39.92.609,1.473.609,2.473,0,6.263,0,6.263,0Z" style="fill: #839d24; fill-rule: evenodd; opacity: .75;"/>
                <path d="M195.922,91.754v-4.171s-8.486,0-12.522,0c-.553,0-1.085.221-1.476.611-.392.392-.612.922-.612,1.474,0,.553.219,1.084.612,1.474.39.392.922.611,1.476.611,4.036,0,12.522,0,12.522,0Z" style="fill: #839d24; fill-rule: evenodd; opacity: .75;"/>
              </g>
            </g>
            <g>
              <path d="M162.519,111.564l10.001-7.282c5.524-4.022,6.149-12.023,1.315-16.852l-3.499-3.496h-15.636s-3.499,3.496-3.499,3.496c-4.833,4.829-4.209,12.83,1.315,16.852l10.001,7.282Z" style="fill: #bdd033; fill-rule: evenodd;"/>
              <g style="clip-path: url(#clippath-40);">
                <rect x="146.741" y="82.668" width="15.779" height="29.923" transform="translate(309.26 195.26) rotate(-180)" style="fill: #839d24;"/>
                <rect x="160.441" y="80.922" width="4.174" height="36.372" style="fill: #d6e23d;"/>
                <g>
                  <g style="opacity: .5;">
                    <path d="M177.327,99.17c.679,0,1.348-.331,1.747-.941.633-.964.364-2.256-.601-2.888l-8.484-5.561c-.965-.635-2.258-.361-2.889.599-.633.964-.364,2.256.601,2.888l8.484,5.561c.353.232.75.342,1.141.342Z" style="fill: #839d24;"/>
                  </g>
                  <g style="opacity: .5;">
                    <path d="M147.731,99.17c.391,0,.788-.11,1.141-.342l8.481-5.561c.965-.631,1.234-1.924.601-2.888-.63-.96-1.916-1.235-2.889-.599l-8.481,5.561c-.965.631-1.234,1.924-.601,2.888.399.61,1.068.941,1.747.941Z" style="fill: #4d7c3d;"/>
                  </g>
                  <path d="M177.327,108.679c.679,0,1.348-.331,1.747-.941.633-.964.364-2.256-.601-2.888l-8.484-5.561c-.965-.635-2.258-.361-2.889.599-.633.964-.364,2.256.601,2.888l8.484,5.561c.353.232.75.342,1.141.342Z" style="fill: #839d24; opacity: .5;"/>
                  <g style="opacity: .5;">
                    <path d="M147.731,108.679c.391,0,.788-.11,1.141-.342l8.481-5.561c.965-.631,1.234-1.924.601-2.888-.63-.96-1.916-1.235-2.889-.599l-8.481,5.561c-.965.631-1.234,1.924-.601,2.888.399.61,1.068.941,1.747.941Z" style="fill: #4d7c3d;"/>
                  </g>
                </g>
              </g>
            </g>
          </g>
        </g>
        <line x1="145.573" y1="130.101" x2="179.485" y2="129.731" style="fill: #52ab35; stroke: #52ab35; stroke-dasharray: 0 10; stroke-linecap: round; stroke-linejoin: round; stroke-width: 10px;"/>
      </g>
    </g>
  </g>
</svg>