<?xml version="1.0" encoding="UTF-8"?>
<svg xmlns="http://www.w3.org/2000/svg" width="1500" height="145" xmlns:xlink="http://www.w3.org/1999/xlink" version="1.1" viewBox="0 0 1500 145">
  <!-- Generator: Adobe Illustrator 30.5.1, SVG Export Plug-In . SVG Version: 2.1.4 Build 3)  -->
  <defs>
    <clipPath id="clippath">
      <rect width="1500" height="145" style="fill: none;"/>
    </clipPath>
    <clipPath id="clippath-4">
      <polygon points="993.673 161.393 912.728 161.138 912.728 194.333 827.568 194.333 827.568 -22.986 994.789 -104.73 993.673 161.393" style="clip-rule: evenodd; fill: none;"/>
    </clipPath>
    <clipPath id="clippath-7">
      <path d="M611.728,81.07v-498.929l-5.372,11.644c-8.36,18.119-20.675,34.133-36.041,46.864l-81.021,67.13c-16.721,13.828-26.401,34.394-26.401,56.092V81.07h148.836Z" style="clip-rule: evenodd; fill: none;"/>
    </clipPath>
  </defs>
  <g style="isolation: isolate;">
    <g id="Details">
      <g style="clip-path: url(#clippath);">
        <rect x="-10.125" y="-2743.498" width="1520.249" height="3053.416" style="fill: #61d1d5;"/>
        <path d="M-31.619,368.82V-747.869h439.79c24.414,0,47.365,9.507,64.629,26.77l88.768,88.769c9.708,9.707,22.615,15.054,36.344,15.054h270.975c15.867,0,31.084,6.303,42.304,17.523l31.302,31.302c11.299,11.3,17.521,26.323,17.521,42.304v36.879c0,28.387,23.012,51.399,51.399,51.399h0c28.387,0,51.399-23.012,51.399-51.399v-159.383c0-50.478,40.92-91.398,91.398-91.398h173.96c50.397,0,91.398,41.002,91.398,91.399l.529,144.191c1.499,21.417,19.367,38.12,40.891,38.12h111.087V85.178h-238.168c-43.687,0-79.103-35.415-79.103-79.103v-63.47c0-29.481-23.899-53.381-53.381-53.381h-55.92c-29.481,0-53.381,23.899-53.381,53.381V43.567c0,21.13-8.229,40.994-23.169,55.934l-141.512,141.513c-18.283,18.283-42.592,28.353-68.448,28.353H-40.344c-13.73,0-28.235,72.685-28.235,72.685-17.263,17.263,290.517,26.77,266.104,26.77H-31.619Z" style="fill: #4eeae6;"/>
        <path d="M913.301,221.352l141.513-141.513c11.084-11.084,17.311-26.117,17.311-41.792V-62.914c0-40.527,32.854-73.381,73.381-73.381h55.92c40.527,0,73.381,32.854,73.381,73.381V.556c0,32.641,26.461,59.102,59.102,59.102h218.168s0-505.586,0-505.586h-91.087c-32.307,0-59.01-25.192-60.888-57.445l-.532-144.867c0-39.432-31.966-71.399-71.398-71.399h-173.96c-39.432,0-71.399,31.966-71.399,71.399v334.633c0,16.501-13.377,29.877-29.877,29.877h-83.042c-16.501,0-29.877-13.377-29.877-29.877v-212.129c0-10.563-4.196-20.693-11.665-28.161l-31.302-31.302c-7.469-7.469-17.599-11.665-28.161-11.665h-270.975c-18.936,0-37.097-7.522-50.486-20.912l-88.768-88.768c-13.39-13.39-31.551-20.912-50.487-20.912H-11.618V244.401h870.614c20.369,0,39.903-8.646,54.306-23.049Z" style="fill: #d6f0f0;"/>
        <path d="M-518.423-265.281l176.088,53.511c13.398-13.398,31.57-20.925,50.518-20.925H249.045c20.578,0,40.553,6.944,56.694,19.708l60.702,48.004c16.141,12.764,36.116,19.708,56.694,19.708h459.899c18.948,0,37.12,7.527,50.518,20.925l35.93,35.93c13.398,13.398,20.925,31.57,20.925,50.518V19.446c0,18.948-7.527,37.12-20.925,50.518l-64.521,64.521c-13.398,13.398-31.57,20.925-50.518,20.925h-501.716c-18.948,0-37.12-7.527-50.518-20.925l-49.313-49.313c-13.398-13.398-31.57-20.925-50.518-20.925H-142.156c-18.948,0-37.12,7.527-50.518,20.925l-83.526,83.526c-13.398,13.398-31.57,20.925-50.518,20.925h-91.99c-18.948,0-37.12-7.527-50.518-20.925l-43.108-43.108c-13.398-13.398-20.925-31.57-20.925-50.518v47.102c0-18.948,7.527-37.12,20.925-50.518l45.628-45.628c13.398-13.398,20.925-31.57,20.925-50.518v-37.519c0-18.948-7.527-37.12-20.925-50.518l-51.718-51.718c-13.444-13.444-20.975-31.692-20.925-50.705h0c.049-18.883,7.573-36.978,20.925-50.331Z" style="fill: #c2e6e4;"/>
        <rect x="455.471" y="73.028" width="163.246" height="16.084" rx="8.042" ry="8.042" style="fill: #a7d8d5;"/>
        <g>
          <rect x="121.347" y="5.546" width="127.303" height="12.543" rx="6.271" ry="6.271" style="fill: #a7d8d5;"/>
          <g>
            <rect x="158.481" y="-46.955" width="84.332" height="57.765" style="fill: #fff;"/>
            <rect x="200.384" y="-46.955" width="10.607" height="57.765" style="fill: #e9f1f6; mix-blend-mode: multiply; opacity: .5;"/>
            <rect x="237.508" y="-46.955" width="5.305" height="57.765" style="fill: #e9f1f6; mix-blend-mode: multiply; opacity: .5;"/>
            <g>
              <path d="M205.426,10.811h-78.24v-76.447c0-10.366,4.108-20.307,11.424-27.636,7.354-7.33,17.291-11.447,27.658-11.447h.038c10.367,0,20.304,4.117,27.658,11.447,7.316,7.33,11.462,17.27,11.462,27.636V10.811Z" style="fill: #fff; fill-rule: evenodd;"/>
              <rect x="153.934" y="-26.324" width="24.742" height="37.134" style="fill: #b3efe3;"/>
            </g>
            <rect x="210.991" y="-26.324" width="26.516" height="31.87" style="fill: #b3efe3;"/>
          </g>
        </g>
        <g>
          <path d="M137.868,126.001c0-2.932-2.369-5.299-5.303-5.299s-5.303,2.367-5.303,5.299c0-2.932-2.368-5.299-5.303-5.299s-5.303,2.367-5.303,5.299c0-2.932-2.368-5.299-5.303-5.299s-5.303,2.367-5.303,5.299c0-2.932-2.368-5.299-5.303-5.299s-5.303,2.367-5.303,5.299c0-2.932-2.368-5.299-5.303-5.299s-5.303,2.367-5.303,5.299v9.823h53.035v-9.823h-.001Z" style="fill: #8dd44c;"/>
          <rect x="53.537" y="132.731" width="84.332" height="57.765" style="fill: #fff;"/>
          <rect x="95.441" y="132.731" width="10.607" height="57.765" style="fill: #e9f1f6; mix-blend-mode: multiply; opacity: .5;"/>
          <rect x="132.564" y="132.731" width="5.305" height="57.765" style="fill: #e9f1f6; mix-blend-mode: multiply; opacity: .5;"/>
          <g>
            <path d="M100.482,190.496H22.242v-76.447c0-10.366,4.108-20.307,11.424-27.636,7.354-7.33,17.291-11.447,27.658-11.447h.038c10.367,0,20.304,4.117,27.658,11.447,7.316,7.33,11.462,17.27,11.462,27.636v76.447Z" style="fill: #fff; fill-rule: evenodd;"/>
            <g>
              <rect x="22.241" y="117.097" width="15.648" height="15.635" style="fill: #b3efe3;"/>
              <rect x="48.99" y="117.097" width="24.742" height="15.635" style="fill: #b3efe3;"/>
              <rect x="84.833" y="117.097" width="15.648" height="15.635" style="fill: #b3efe3;"/>
            </g>
            <g style="opacity: .35;">
              <rect x="22.242" y="117.097" width="15.648" height="5.998" style="fill: #49a2e0;"/>
              <rect x="48.991" y="117.097" width="24.742" height="5.998" style="fill: #49a2e0;"/>
              <rect x="84.834" y="117.097" width="15.648" height="5.998" style="fill: #49a2e0;"/>
            </g>
          </g>
          <rect x="100.482" y="132.825" width="37.387" height="5.998" style="fill: #fff;"/>
        </g>
        <g>
          <rect x="141.606" y="142.965" width="127.303" height="12.543" rx="6.271" ry="6.271" style="fill: #c2e6e4;"/>
          <g>
            <path d="M263.07,83.733c0-2.932-2.369-5.299-5.303-5.299s-5.303,2.367-5.303,5.299c0-2.932-2.368-5.299-5.303-5.299s-5.303,2.367-5.303,5.299c0-2.932-2.368-5.299-5.303-5.299s-5.303,2.367-5.303,5.299c0-2.932-2.368-5.299-5.303-5.299s-5.303,2.367-5.303,5.299c0-2.932-2.368-5.299-5.303-5.299s-5.303,2.367-5.303,5.299v9.823h53.035v-9.823h-.001Z" style="fill: #8dd44c;"/>
            <rect x="178.739" y="90.464" width="84.332" height="57.765" style="fill: #fff;"/>
            <rect x="220.643" y="90.464" width="10.607" height="57.765" style="fill: #e9f1f6; mix-blend-mode: multiply; opacity: .5;"/>
            <rect x="257.767" y="90.464" width="5.305" height="57.765" style="fill: #e9f1f6; mix-blend-mode: multiply; opacity: .5;"/>
            <g>
              <path d="M225.684,148.229h-78.24v-76.447c0-10.366,4.108-20.307,11.424-27.636,7.354-7.33,17.291-11.447,27.658-11.447h.038c10.367,0,20.304,4.117,27.658,11.447,7.316,7.33,11.462,17.27,11.462,27.636v76.447Z" style="fill: #fff; fill-rule: evenodd;"/>
              <g>
                <rect x="147.443" y="111.094" width="15.648" height="18.567" style="fill: #b3efe3;"/>
                <rect x="147.443" y="74.829" width="15.648" height="15.635" style="fill: #b3efe3;"/>
                <rect x="174.192" y="111.094" width="24.742" height="37.134" style="fill: #b3efe3;"/>
                <rect x="174.192" y="74.829" width="24.742" height="15.635" style="fill: #b3efe3;"/>
                <rect x="210.036" y="111.094" width="15.648" height="18.567" style="fill: #b3efe3;"/>
                <rect x="210.036" y="74.829" width="15.648" height="15.635" style="fill: #b3efe3;"/>
              </g>
              <g style="opacity: .35;">
                <rect x="147.444" y="74.829" width="15.648" height="5.998" style="fill: #49a2e0;"/>
                <rect x="174.194" y="74.829" width="24.742" height="5.998" style="fill: #49a2e0;"/>
                <rect x="210.036" y="74.829" width="15.648" height="5.998" style="fill: #49a2e0;"/>
              </g>
              <g style="opacity: .35;">
                <rect x="147.444" y="111.094" width="15.648" height="5.998" style="fill: #49a2e0;"/>
                <rect x="174.194" y="111.094" width="24.742" height="5.998" style="fill: #49a2e0;"/>
                <rect x="210.036" y="111.094" width="15.648" height="5.998" style="fill: #49a2e0;"/>
              </g>
            </g>
            <rect x="231.25" y="111.094" width="26.516" height="31.87" style="fill: #b3efe3;"/>
            <rect x="231.251" y="111.094" width="26.516" height="5.998" style="fill: #49a2e0;"/>
            <rect x="225.684" y="90.558" width="37.387" height="5.998" style="fill: #fff;"/>
          </g>
        </g>
        <g>
          <line x1="1410.9" y1="103.773" x2="1448.56" y2="103.773" style="fill: none; stroke: #8ee8e8; stroke-linecap: round; stroke-linejoin: round; stroke-width: 7px;"/>
          <line x1="1440.538" y1="119.006" x2="1461.745" y2="119.006" style="fill: none; stroke: #8ee8e8; stroke-linecap: round; stroke-linejoin: round; stroke-width: 7px;"/>
          <line x1="1420.823" y1="122.591" x2="1410.9" y2="122.591" style="fill: none; stroke: #8ee8e8; stroke-linecap: round; stroke-linejoin: round; stroke-width: 7px;"/>
        </g>
        <g>
          <g>
            <polygon points="993.673 161.393 912.728 161.138 912.728 194.333 827.568 194.333 827.568 -22.986 994.789 -104.73 993.673 161.393" style="fill: #5ac4c3; fill-rule: evenodd;"/>
            <g style="clip-path: url(#clippath-4);">
              <polygon points="921.815 187.578 884.655 204.828 1061.938 -179.848 1092.399 -193.614 921.815 187.578" style="fill: #baeffc; fill-opacity: .176; fill-rule: evenodd;"/>
              <polygon points="847.067 191.819 764.613 209.069 941.896 -175.607 1017.651 -189.373 847.067 191.819" style="fill: #baeffc; fill-opacity: .176; fill-rule: evenodd;"/>
              <polygon points="999.462 201.946 943.324 205.077 1066.707 -63.954 1088.659 6.26 999.462 201.946" style="fill: #baeffc; fill-opacity: .176; fill-rule: evenodd;"/>
            </g>
          </g>
          <g>
            <path d="M955.655,70.289l-2.648,1.227c-.646.3-1.06.949-1.06,1.658v40.544c0,.624.318,1.205.846,1.541.296.189.639.285.982.285.261,0,.525-.057.771-.171l2.648-1.23c.642-.3,1.056-.945,1.056-1.655v-40.54c0-.624-.318-1.202-.842-1.541-.528-.332-1.189-.374-1.752-.118Z" style="fill: #4aa2b2;"/>
            <path d="M955.651,119.584l-2.648,1.23c-.642.3-1.056.945-1.056,1.655v33.961c0,1.009.817,1.826,1.827,1.826h2.648c1.01,0,1.827-.817,1.827-1.826v-35.191c0-.624-.318-1.205-.846-1.541-.521-.332-1.181-.378-1.752-.114Z" style="fill: #4aa2b2;"/>
            <path d="M957.404-82.604c-.521-.335-1.181-.378-1.752-.114l-2.648,1.23c-.642.3-1.056.945-1.056,1.655V15.252c0,.624.318,1.205.846,1.541.296.189.639.285.982.285.261,0,.525-.057.771-.171l2.648-1.23c.642-.3,1.056-.945,1.056-1.655v-95.085c0-.624-.318-1.205-.846-1.541Z" style="fill: #4aa2b2;"/>
            <path d="M955.655,21.119l-2.648,1.227c-.646.3-1.06.949-1.06,1.658v40.419c0,.624.318,1.205.846,1.541.296.189.639.285.982.285.261,0,.525-.057.771-.171l2.648-1.23c.642-.3,1.056-.945,1.056-1.655V22.777c0-.624-.318-1.202-.842-1.541-.528-.332-1.189-.374-1.752-.118Z" style="fill: #4aa2b2;"/>
            <path d="M913.281-63.05l-2.648,1.23c-.642.3-1.056.945-1.056,1.655V34.92c0,.624.318,1.205.846,1.541.296.189.639.285.982.285.261,0,.525-.057.771-.171l2.648-1.23c.642-.3,1.056-.945,1.056-1.655V-61.396c0-.624-.318-1.205-.846-1.541-.525-.335-1.185-.378-1.752-.114Z" style="fill: #4aa2b2;"/>
            <path d="M913.285,40.786l-2.648,1.227c-.646.3-1.06.949-1.06,1.658v40.419c0,.624.318,1.205.846,1.541.296.189.639.285.982.285.261,0,.525-.057.771-.171l2.648-1.23c.642-.3,1.056-.945,1.056-1.655v-40.415c0-.624-.318-1.202-.842-1.541-.528-.332-1.192-.374-1.752-.118Z" style="fill: #4aa2b2;"/>
            <path d="M870.901-43.344l-2.648,1.245c-.639.3-1.049.945-1.049,1.651V57.665c0,.813.539,1.53,1.321,1.755.168.05.339.071.507.071.617,0,1.206-.314,1.549-.856.625-.995,1.424-1.965,2.37-2.881.357-.346.557-.817.557-1.312V-41.692c0-.624-.321-1.205-.849-1.541-.521-.332-1.189-.378-1.756-.111Z" style="fill: #4aa2b2;"/>
            <path d="M913.281,89.957l-2.648,1.23c-.642.3-1.056.945-1.056,1.655v43.614c0,.813.539,1.53,1.324,1.755.168.05.336.071.503.071.617,0,1.21-.314,1.549-.859.614-.981,1.413-1.947,2.37-2.874.357-.346.557-.817.557-1.312v-41.624c0-.624-.318-1.205-.846-1.541-.525-.335-1.185-.378-1.752-.114Z" style="fill: #4aa2b2;"/>
          </g>
          <g style="opacity: .35;">
            <polygon points="870.355 77.861 872.95 60.367 995.232 3.527 994.789 19.947 870.355 77.861" style="fill: #4aa2b2;"/>
            <polygon points="870.355 127.339 870.355 111.125 995.232 53.006 994.789 69.425 870.355 127.339" style="fill: #4aa2b2;"/>
            <polygon points="915.88 154.604 915.323 139.162 995.232 101.458 994.789 117.878 915.88 154.604" style="fill: #4aa2b2;"/>
          </g>
          <path d="M1002.422-112.271c-.521-.335-1.181-.374-1.752-.114l-167.481,77.949c-6.71,3.123-11,9.849-11,17.245v211.523s11.6,0,11.6,0V-17.189c0-.724.125-1.462.382-2.254.646-1.993,2.077-3.63,3.93-4.49l153.568-71.477V-9.094c0,2.881-1.692,5.528-4.308,6.744l-111.787,51.888c-1.842.856-3.58,2.065-5.165,3.591-1.156,1.12-2.142,2.318-2.927,3.566-1.913,3.046-2.923,6.537-2.923,10.096v127.542s11.6,0,11.6,0v-78.372c0-.717.125-1.459.382-2.257.471-1.455,1.424-2.735,3.012-3.891.293-.214.578-.439.91-.596l111.205-51.62v31.771c0,2.893-1.68,5.524-4.306,6.743l-69.419,32.225c-1.856.863-3.591,2.068-5.161,3.588-1.171,1.134-2.156,2.332-2.927,3.563-1.913,3.049-2.927,6.54-2.927,10.099v48.747s11.6,0,11.6,0v-28.139h73.14v28.139s11.6,0,11.6,0V-110.73c0-.624-.318-1.205-.846-1.541ZM991.668,8.427v31.65c0,2.881-1.692,5.528-4.308,6.744l-111.202,51.617v-31.646c0-2.881,1.688-5.531,4.304-6.744l111.205-51.62ZM991.668,106.892v47.712s-73.14,0-73.14,0v-9.019c0-2.881,1.688-5.524,4.304-6.74l68.835-31.953Z" style="fill: #fff;"/>
        </g>
        <g>
          <path d="M611.199,81.07V-485.387c0-9.071-7.354-16.425-16.425-16.425h0c-7.211,0-13.578,4.703-15.698,11.594l-6.816,22.153h0c-5.047,16.544-14.094,31.588-26.341,43.802l-39.085,38.981c-12.405,12.372-19.376,29.171-19.376,46.691V81.07h123.741Z" style="fill: #a6ede5; fill-rule: evenodd;"/>
          <path d="M611.728,76.253v-503.475c0-4.663-3.78-8.443-8.443-8.443h0c-3.293,0-6.286,1.915-7.666,4.906h0c-10.406,22.553-25.746,42.48-44.887,58.309l-61.439,50.808c-16.721,13.828-26.401,34.394-26.401,56.092V76.253h148.836Z" style="fill: #57bdc2; fill-rule: evenodd;"/>
          <g>
            <path d="M463.157,80.805v-346.354c0-21.693,9.588-42.063,26.306-55.889l61.439-50.808c19.054-15.758,34.601-35.953,44.958-58.402,1.332-2.887,4.247-4.752,7.426-4.752,4.509,0,8.178,3.669,8.178,8.178V80.805h-148.307Z" style="fill: #f6ffff; fill-rule: evenodd;"/>
            <path d="M603.286-435.135c4.363,0,7.913,3.549,7.913,7.913V80.54h-147.776v-346.09c0-21.614,9.553-41.91,26.209-55.684l61.439-50.808c19.084-15.782,34.655-36.01,45.03-58.496,1.289-2.793,4.109-4.598,7.185-4.598M603.286-435.665c-3.293,0-6.286,1.915-7.666,4.906h0c-10.406,22.553-25.746,42.48-44.887,58.309l-61.439,50.808c-16.721,13.828-26.401,34.394-26.401,56.092V81.07h148.836v-508.292c0-4.663-3.78-8.442-8.443-8.442h0Z" style="fill: #f6ffff;"/>
          </g>
          <g style="clip-path: url(#clippath-7);">
            <path d="M609.081,81.07v-498.929l-2.724,11.644c-8.36,18.119-20.675,34.133-36.041,46.864l-81.021,67.13c-16.721,13.828-26.401,34.394-26.401,56.092V81.07h146.188Z" style="fill: #5cc7c3; fill-rule: evenodd;"/>
            <g>
              <g>
                <line x1="471.845" y1="-294.106" x2="471.845" y2="357.355" style="fill: #e8f3fd; mix-blend-mode: multiply; stroke: #e8f3fd; stroke-miterlimit: 10; stroke-width: 2.326px;"/>
                <line x1="474.342" y1="-294.106" x2="474.342" y2="357.355" style="fill: none; stroke: #49a2ac; stroke-linecap: round; stroke-linejoin: round; stroke-width: 6.854px;"/>
                <line x1="508.688" y1="-324.392" x2="508.688" y2="357.355" style="fill: none; stroke: #49a2ac; stroke-linecap: round; stroke-linejoin: round; stroke-width: 6.854px;"/>
                <line x1="543.035" y1="357.355" x2="543.035" y2="-349.486" style="fill: none; stroke: #49a2ac; stroke-linecap: round; stroke-linejoin: round; stroke-width: 6.854px;"/>
                <line x1="577.382" y1="-377.177" x2="577.382" y2="357.355" style="fill: none; stroke: #49a2ac; stroke-linecap: round; stroke-linejoin: round; stroke-width: 6.854px;"/>
                <rect x="563.967" y="37.035" width="23.225" height="44.034" style="fill: #49a2ac;"/>
              </g>
              <polygon points="590.53 -420.528 590.53 294.101 608.601 294.101 608.601 -426.585 590.53 -420.528" style="fill: #e8f3fd; mix-blend-mode: multiply; stroke: #e8f3fd; stroke-miterlimit: 10; stroke-width: 2.326px;"/>
              <path d="M611.728-156.854l-5.372,11.644c-8.36,18.119-20.675,34.133-36.041,46.864l-81.021,67.13c-16.721,13.828-26.401,34.394-26.401,56.092V-10.609c0-21.698,9.68-42.265,26.401-56.092l81.021-67.13c15.365-12.731,27.681-28.745,36.041-46.864l5.372-11.644v35.484Z" style="fill: #c1f2fc; fill-opacity: .176; fill-rule: evenodd;"/>
              <path d="M611.728,14.139l-5.372,11.644c-8.36,18.119-20.675,34.133-36.041,46.864l-81.021,67.13c-16.721,13.828-26.401,34.394-26.401,56.092v-35.484c0-21.698,9.68-42.265,26.401-56.092l81.021-67.13c15.365-12.731,27.681-28.745,36.041-46.864l5.372-11.644V14.139Z" style="fill: #c1f2fc; fill-opacity: .176; fill-rule: evenodd;"/>
              <path d="M611.728,99.635l-5.372,11.644c-8.36,18.119-20.675,34.133-36.041,46.864l-81.021,67.13c-16.721,13.828-26.401,34.394-26.401,56.092v-35.484c0-21.698,9.68-42.265,26.401-56.092l81.021-67.13c15.365-12.731,27.681-28.745,36.041-46.864l5.372-11.644v35.484Z" style="fill: #5ecbcc; fill-rule: evenodd;"/>
              <polygon points="519.636 134.29 519.636 53.821 531.085 43.101 531.085 125.092 519.636 134.29" style="fill: none; stroke: #5cc7c3; stroke-linecap: round; stroke-linejoin: round; stroke-width: 3.177px;"/>
              <line x1="587.8" y1="-.634" x2="587.8" y2="84.06" style="fill: none; stroke: #5cc7c3; stroke-linecap: round; stroke-linejoin: round; stroke-width: 3.177px;"/>
              <rect x="454.894" y="-288.3" width="15.788" height="379.523" style="fill: #e8f3fd; mix-blend-mode: multiply;"/>
              <path d="M611.728-62.934l-5.372,11.644c-8.36,18.119-20.675,34.133-36.041,46.864l-81.021,67.13c-16.721,13.828-26.401,34.394-26.401,56.092v-35.484c0-21.698,9.68-42.265,26.401-56.092l81.021-67.13c15.365-12.731,27.681-28.745,36.041-46.864l5.372-11.644v35.484Z" style="fill: #e8f3fd; fill-rule: evenodd; mix-blend-mode: multiply;"/>
              <g>
                <line x1="486.215" y1="-296.704" x2="486.215" y2="95.361" style="fill: none; stroke: #f6ffff; stroke-miterlimit: 10; stroke-width: 9.139px;"/>
                <line x1="555.064" y1="-355.229" x2="555.064" y2="95.361" style="fill: none; stroke: #f6ffff; stroke-miterlimit: 10; stroke-width: 9.139px;"/>
              </g>
              <g>
                <path d="M462.893,73.324c0-21.698,8.091-42.265,24.813-56.092l81.021-67.13c15.365-12.731,27.681-26.097,36.041-44.216l5.372-11.644" style="fill: none; fill-rule: evenodd; stroke: #a0dd88; stroke-linecap: round; stroke-linejoin: round; stroke-width: 13.769px;"/>
                <g>
                  <path d="M459.726,67.379c-1.508,0-2.993-.593-4.044-1.667-1.073-1.051-1.668-2.537-1.668-4.045,0-.366.023-.732.114-1.12.069-.366.161-.707.32-1.051.137-.341.32-.685.525-1.004.206-.297.434-.596.708-.846,2.125-2.149,5.94-2.149,8.066,0,1.073,1.051,1.668,2.512,1.668,4.021s-.595,2.97-1.668,4.045c-1.052,1.073-2.537,1.667-4.022,1.667Z" style="fill: #8dd44c;"/>
                  <path d="M459.726,55.864c-3.107-.571-5.141-3.563-4.569-6.649h0c.571-3.106,3.564-5.141,6.671-4.569h0c3.085.571,5.141,3.565,4.547,6.671h0c-.503,2.742-2.902,4.661-5.598,4.661h0c-.342,0-.708-.045-1.051-.114ZM461.852,44.579c-2.947-1.142-4.41-4.433-3.29-7.381h0c1.119-2.947,4.432-4.433,7.38-3.291h0c2.947,1.12,4.409,4.411,3.29,7.358h0c-.869,2.285-3.039,3.677-5.347,3.677h0c-.663,0-1.37-.114-2.033-.364ZM465.987,33.84c-2.72-1.6-3.633-5.096-2.034-7.813h0c1.599-2.72,5.095-3.632,7.813-2.035h0c2.719,1.6,3.632,5.096,2.034,7.813h0c-1.074,1.805-2.971,2.811-4.935,2.811h0c-.983,0-1.988-.252-2.878-.776ZM471.835,23.947c-2.467-1.988-2.832-5.598-.844-8.043h0c1.987-2.443,5.575-2.831,8.019-.846h0c2.468,1.988,2.834,5.598.846,8.043h0c-1.12,1.394-2.764,2.124-4.432,2.124h0c-1.257,0-2.536-.433-3.588-1.278ZM479.078,15.036c-2.171-2.307-2.057-5.917.228-8.088h0c2.308-2.146,5.918-2.055,8.088.252h0c2.147,2.285,2.057,5.917-.251,8.066h0c-1.097,1.051-2.513,1.553-3.907,1.553h0c-1.531,0-3.039-.593-4.158-1.783ZM487.554,7.292c-2.011-2.423-1.691-6.031.754-8.043h0c2.421-2.01,6.031-1.667,8.041.754h0c2.011,2.445,1.669,6.033-.753,8.043h0c-1.074.89-2.376,1.325-3.656,1.325h0c-1.645,0-3.268-.71-4.386-2.079ZM496.373-.02c-2.01-2.445-1.668-6.031.754-8.041h0c2.444-2.012,6.032-1.691,8.042.754h0c2.01,2.421,1.69,6.031-.754,8.041h0c-1.051.89-2.354,1.303-3.632,1.303h0c-1.645,0-3.268-.687-4.41-2.057ZM505.215-7.331c-2.011-2.443-1.668-6.031.754-8.063h0c2.421-2.012,6.031-1.669,8.042.752h0c2.01,2.445,1.668,6.033-.754,8.066h0c-1.074.868-2.354,1.303-3.633,1.303h0c-1.644,0-3.266-.71-4.409-2.057ZM514.056-14.665c-2.01-2.421-1.69-6.031.754-8.041h0c2.422-2.01,6.032-1.669,8.042.754h0c2.011,2.421,1.668,6.031-.754,8.041h0c-1.073.892-2.353,1.325-3.655,1.325h0c-1.622,0-3.268-.707-4.388-2.079ZM522.875-21.976c-2.01-2.443-1.668-6.031.754-8.041h0c2.444-2.033,6.031-1.691,8.042.754h0c2.033,2.421,1.69,6.031-.754,8.041h0c-1.051.868-2.354,1.303-3.633,1.303h0c-1.644,0-3.266-.707-4.409-2.057ZM531.717-29.31c-2.011-2.421-1.669-6.031.753-8.041h0c2.445-2.01,6.032-1.669,8.042.754h0c2.011,2.421,1.691,6.031-.754,8.041h0c-1.051.892-2.353,1.325-3.632,1.325h0c-1.644,0-3.266-.707-4.409-2.079ZM540.558-36.619c-2.01-2.423-1.69-6.033.754-8.043h0c2.422-2.01,6.032-1.691,8.042.754h0c2.01,2.421,1.668,6.031-.754,8.043h0c-1.073.89-2.353,1.301-3.656,1.301h0c-1.622,0-3.266-.685-4.386-2.055ZM549.4-43.953c-2.034-2.423-1.69-6.033.754-8.043h0c2.422-2.01,6.032-1.667,8.042.754h0c2.01,2.445,1.668,6.031-.754,8.041h0c-1.074.892-2.376,1.325-3.656,1.325h0c-1.644,0-3.266-.707-4.386-2.077ZM558.219-51.264c-2.01-2.423-1.668-6.033.754-8.043h0c2.445-2.01,6.032-1.667,8.042.754h0c2.01,2.423,1.691,6.033-.754,8.043h0c-1.051.89-2.353,1.301-3.632,1.301h0c-1.645,0-3.268-.685-4.41-2.055ZM567.13-58.507c-2.079-2.376-1.828-5.986.548-8.066h0c2.376-2.079,5.986-1.827,8.042.549h0c2.079,2.376,1.851,5.986-.525,8.063h0c-1.097.937-2.422,1.417-3.77,1.417h0c-1.576,0-3.153-.663-4.295-1.963ZM575.766-66.07c-2.262-2.193-2.33-5.803-.16-8.063h0c2.193-2.285,5.803-2.354,8.088-.161h0c2.261,2.193,2.353,5.803.16,8.088h0c-1.12,1.165-2.627,1.736-4.113,1.736h0c-1.439,0-2.856-.524-3.975-1.6ZM583.739-74.341c-2.467-1.988-2.832-5.573-.844-8.019h0c1.965-2.468,5.575-2.834,8.019-.846h0c2.445,1.966,2.834,5.576.846,8.019h0c-1.12,1.394-2.764,2.126-4.432,2.126h0c-1.28,0-2.536-.435-3.588-1.281ZM590.959-83.272c-2.627-1.76-3.312-5.301-1.531-7.929h0c1.759-2.604,5.3-3.289,7.928-1.531h0c2.604,1.76,3.29,5.324,1.531,7.927h0c-1.12,1.647-2.902,2.514-4.752,2.514h0c-1.097,0-2.193-.321-3.176-.982ZM597.379-92.777c-2.764-1.531-3.747-5.004-2.217-7.769h0c1.554-2.764,5.027-3.746,7.769-2.216h0c2.764,1.553,3.746,5.027,2.216,7.767v.025c-1.051,1.872-2.993,2.923-5.003,2.923h0c-.937,0-1.896-.228-2.764-.73ZM602.908-102.831c-2.856-1.325-4.112-4.705-2.787-7.586h0c1.324-2.856,4.729-4.112,7.585-2.787h0c2.856,1.325,4.112,4.73,2.788,7.586h0c-.961,2.079-3.017,3.313-5.186,3.313h0c-.8,0-1.622-.161-2.4-.527Z" style="fill: #8dd44c;"/>
                </g>
              </g>
              <path d="M610.14-71.358l-5.372,11.644c-8.36,18.119-20.675,34.133-36.041,46.864l-81.021,67.13c-16.721,13.828-26.401,34.394-26.401,56.092v-35.484c0-21.698,9.68-42.265,26.401-56.092l81.021-67.13c15.365-12.731,27.681-28.745,36.041-46.864l5.372-11.644v35.484Z" style="fill: #f6ffff; fill-rule: evenodd; stroke: #f6ffff; stroke-miterlimit: 10; stroke-width: 2.326px;"/>
              <polygon points="602.297 -420.528 602.297 294.101 613.746 294.101 613.746 -426.585 602.297 -420.528" style="fill: #f6ffff; stroke: #f6ffff; stroke-miterlimit: 10; stroke-width: 2.326px;"/>
            </g>
          </g>
        </g>
        <path d="M1522.572-281.737l-63.15-63.15c-4.975-4.975-11.722-7.77-18.757-7.77h-30.492c-28.099,0-50.878-22.779-50.878-50.878v-238.568c0-12.753-10.338-23.091-23.091-23.091h-184.35c-12.701,0-23.018,10.258-23.091,22.959l-1.423,248.128c-.076,13.304,5.138,26.094,14.494,35.553l188.902,190.98c4.975,4.975,7.769,11.722,7.769,18.757V-45.909c0,6.937-2.615,13.7-7.567,18.557-16.914,16.589-5.311,45.241,18.284,45.482l106.272,1.084c7.129.073,13.987-2.727,19.028-7.768l48.049-48.049c4.975-4.975,7.769-11.722,7.769-18.757v-207.621c0-7.035-2.795-13.782-7.769-18.757Z" style="fill: #4aa280; fill-rule: evenodd; stroke: #4aa280; stroke-dasharray: 0 10; stroke-linecap: round; stroke-linejoin: round; stroke-width: 10px;"/>
        <g>
          <rect x="767.104" y="128.089" width="4.908" height="3.313" style="fill: #a03a20;"/>
          <rect x="760.311" y="113.182" width="19.876" height="14.907" rx="3.629" ry="3.629" style="fill: #102120;"/>
          <rect x="760.311" y="116.494" width="18.22" height="11.594" rx="2.822" ry="2.822" style="fill: #ce4a27;"/>
          <path d="M770.249,113.182h-7.614c-2.198,0-3.981,1.782-3.981,3.981v2.645h11.594v-6.625Z" style="fill: #102120; fill-rule: evenodd;"/>
          <rect x="770.249" y="116.494" width="9.938" height="23.189" style="fill: #102120;"/>
          <polygon points="758.709 138.857 758.787 138.865 758.865 138.882 758.94 138.905 759.012 138.936 759.082 138.973 759.147 139.017 759.208 139.067 759.264 139.122 759.315 139.183 759.359 139.248 759.398 139.317 759.429 139.389 759.454 139.464 759.471 139.541 759.48 139.619 759.483 139.698 759.478 139.777 759.465 139.854 759.445 139.931 759.418 140.005 759.384 140.076 759.343 140.143 759.296 140.207 759.243 140.265 759.186 140.319 759.123 140.366 759.056 140.408 758.985 140.442 739.937 148.725 739.863 148.753 739.787 148.773 739.709 148.787 739.631 148.793 739.552 148.791 739.474 148.783 739.397 148.766 739.321 148.743 739.249 148.712 739.18 148.675 739.114 148.631 739.053 148.581 738.997 148.526 738.946 148.465 738.902 148.4 738.864 148.331 738.832 148.259 738.808 148.184 738.791 148.107 738.781 148.029 738.779 147.95 738.784 147.871 738.796 147.794 738.816 147.717 738.843 147.643 738.878 147.572 738.918 147.505 738.965 147.441 739.018 147.383 739.076 147.329 739.139 147.282 739.206 147.24 739.276 147.205 758.325 138.923 758.398 138.896 758.474 138.875 758.552 138.861 758.63 138.855 758.709 138.857" style="fill: #6f6f6f; fill-rule: evenodd;"/>
          <path d="M766.894,141.34c.45,0,.881-.179,1.198-.498.317-.319.494-.751.491-1.201h0c-.005-.926-.756-1.673-1.681-1.673h-6.563c-.93,0-1.685.754-1.685,1.685v.003c0,.93.754,1.685,1.685,1.685h6.555Z" style="fill: #ce4a27; fill-rule: evenodd;"/>
          <polygon points="765.28 129.745 770.249 129.745 773.562 134.714 773.562 142.996 765.28 142.996 765.28 129.745" style="fill: #f0e071; fill-rule: evenodd;"/>
          <rect x="765.28" y="142.996" width="8.282" height="3.313" style="fill: #22316e;"/>
          <polygon points="768.593 157.903 770.504 144.652 765.535 144.652 763.624 157.903 768.593 157.903" style="fill: #22316e; fill-rule: evenodd;"/>
          <polygon points="778.531 152.934 778.531 149.621 774.652 149.621 773.404 144.652 768.435 144.652 770.514 152.934 778.531 152.934" style="fill: #22316e; fill-rule: evenodd;"/>
          <rect x="763.639" y="121.403" width="1.641" height="3.373" rx=".274" ry=".274" style="fill: #0d1c1c;"/>
          <circle cx="770.652" cy="122.885" r="3.078" style="fill: #ce4a27;"/>
          <path d="M771.918,130.579c-.222-.385-.589-.665-1.018-.777-.429-.113-.886-.05-1.269.176,0,0,0,0-.001,0-.806.476-1.079,1.512-.611,2.323,1.587,2.748,4.994,8.65,6.579,11.395.223.387.591.669,1.023.785.431.116.891.055,1.278-.168,0,0,.001,0,.002-.001.806-.465,1.082-1.495.616-2.301-1.589-2.752-5.012-8.681-6.599-11.431Z" style="fill: #ce4a27; fill-rule: evenodd;"/>
          <polygon points="738.778 149.621 738.778 138.027 733.809 142.996 730.497 142.996 730.497 149.621 738.778 149.621" style="fill: #f0e071; fill-rule: evenodd;"/>
          <rect x="732.153" y="144.622" width="1.641" height="3.373" rx=".274" ry=".274" style="fill: #0d1c1c;"/>
        </g>
      </g>
    </g>
  </g>
</svg>