<?xml version="1.0" encoding="UTF-8"?>
<svg xmlns="http://www.w3.org/2000/svg" width="1500" height="145" xmlns:xlink="http://www.w3.org/1999/xlink" version="1.1" viewBox="0 0 1500 145">
  <!-- Generator: Adobe Illustrator 30.5.1, SVG Export Plug-In . SVG Version: 2.1.4 Build 3)  -->
  <defs>
    <clipPath id="clippath">
      <rect width="1500" height="145" style="fill: none;"/>
    </clipPath>
    <clipPath id="clippath-1">
      <ellipse cx="10.994" cy="34.576" rx="21.327" ry="21.309" style="fill: #49a198;"/>
    </clipPath>
    <clipPath id="clippath-2">
      <ellipse cx="98.433" cy="32.445" rx="14.929" ry="14.916" style="fill: #6fbfbc;"/>
    </clipPath>
    <clipPath id="clippath-3">
      <ellipse cx="57.888" cy="-18.371" rx="25.592" ry="25.57" style="fill: #49a198;"/>
    </clipPath>
    <clipPath id="clippath-5">
      <polygon points="993.673 306.393 912.728 306.138 912.728 339.333 827.568 339.333 827.568 122.014 994.789 40.27 993.673 306.393" style="clip-rule: evenodd; fill: none;"/>
    </clipPath>
    <clipPath id="clippath-6">
      <rect x="641.874" y="36.401" width="111.908" height="46.132" style="fill: none;"/>
    </clipPath>
    <clipPath id="clippath-7">
      <path d="M700.481,75.457h-16.947s-.31,4.077-.822,10.771c-.056.749.203,1.49.711,2.035.511.553,1.23.868,1.982.868h13.204c.752,0,1.471-.315,1.982-.868.511-.545.767-1.286.711-2.035-.512-6.694-.822-10.771-.822-10.771Z" style="fill: none;"/>
    </clipPath>
    <clipPath id="clippath-8">
      <rect x="645.77" y="32.843" width="104.305" height="53.248" style="fill: none;"/>
    </clipPath>
    <clipPath id="clippath-9">
      <path d="M760.004,34.636l-6.215-6.21h-5.171c-1.073,0-1.942.869-1.942,1.94v58.201c0,1.072.869,1.94,1.942,1.94h5.171l6.215-6.209c0-16.365,0-33.297,0-49.662Z" style="clip-rule: evenodd; fill: none;"/>
    </clipPath>
    <clipPath id="clippath-10">
      <path d="M635.707,34.636l6.216-6.21h5.171c1.073,0,1.942.869,1.942,1.94v58.201c0,1.072-.869,1.94-1.942,1.94h-5.171l-6.215-6.21c0-16.365,0-33.297,0-49.662Z" style="clip-rule: evenodd; fill: none;"/>
    </clipPath>
    <clipPath id="clippath-13">
      <path d="M611.728,226.07v-498.929l-5.372,11.644c-8.36,18.119-20.675,34.133-36.041,46.864l-81.021,67.13c-16.721,13.828-26.401,34.394-26.401,56.092V226.07h148.836Z" style="clip-rule: evenodd; fill: none;"/>
    </clipPath>
    <clipPath id="clippath-14">
      <ellipse cx="1461.838" cy="-8.105" rx="20.141" ry="20.124" style="fill: #49a198;"/>
    </clipPath>
    <clipPath id="clippath-15">
      <ellipse cx="1379.26" cy="-10.118" rx="14.099" ry="14.087" style="fill: #6fbfbc;"/>
    </clipPath>
  </defs>
  <g style="isolation: isolate;">
    <g id="Details">
      <g style="clip-path: url(#clippath);">
        <rect x="-10.125" y="-2598.498" width="1520.249" height="3053.416" style="fill: #61d1d5;"/>
        <path d="M-31.619,513.82V-602.869h439.79c24.414,0,47.365,9.507,64.629,26.77l88.768,88.769c9.708,9.707,22.615,15.054,36.344,15.054h270.975c15.867,0,31.084,6.303,42.304,17.523l31.302,31.302c11.299,11.3,17.521,26.323,17.521,42.304v36.879c0,28.387,23.012,51.399,51.399,51.399h0c28.387,0,51.399-23.012,51.399-51.399v-159.383c0-50.478,40.92-91.398,91.398-91.398h173.96c50.397,0,91.398,41.002,91.398,91.399l.529,144.191c1.499,21.417,19.367,38.12,40.891,38.12h111.087V230.178h-238.168c-43.687,0-79.103-35.415-79.103-79.103v-63.47c0-29.481-23.899-53.381-53.381-53.381h-55.92c-29.481,0-53.381,23.899-53.381,53.381v100.962c0,21.13-8.229,40.994-23.169,55.934l-141.512,141.513c-18.283,18.283-42.592,28.353-68.448,28.353H-40.344c-13.73,0-28.235,72.685-28.235,72.685-17.263,17.263,290.517,26.77,266.104,26.77H-31.619Z" style="fill: #4eeae6;"/>
        <path d="M913.301,366.352l141.513-141.513c11.084-11.084,17.311-26.117,17.311-41.792v-100.962c0-40.527,32.854-73.381,73.381-73.381h55.92c40.527,0,73.381,32.854,73.381,73.381v63.47c0,32.641,26.461,59.102,59.102,59.102h218.168s0-505.586,0-505.586h-91.087c-32.307,0-59.01-25.192-60.888-57.445l-.532-144.867c0-39.432-31.966-71.399-71.398-71.399h-173.96c-39.432,0-71.399,31.966-71.399,71.399V-168.607c0,16.501-13.377,29.877-29.877,29.877h-83.042c-16.501,0-29.877-13.377-29.877-29.877v-212.129c0-10.563-4.196-20.693-11.665-28.161l-31.302-31.302c-7.469-7.469-17.599-11.665-28.161-11.665h-270.975c-18.936,0-37.097-7.522-50.486-20.912l-88.768-88.768c-13.39-13.39-31.551-20.912-50.487-20.912H-11.618V389.401h870.614c20.369,0,39.903-8.646,54.306-23.049Z" style="fill: #d6f0f0;"/>
        <path d="M-518.423-120.281l176.088,53.511c13.398-13.398,31.57-20.925,50.518-20.925H249.045c20.578,0,40.553,6.944,56.694,19.708l60.702,48.004C382.581-7.219,402.556-.275,423.134-.275h459.899c18.948,0,37.12,7.527,50.518,20.925l35.93,35.93c13.398,13.398,20.925,31.57,20.925,50.518v57.349c0,18.948-7.527,37.12-20.925,50.518l-64.521,64.521c-13.398,13.398-31.57,20.925-50.518,20.925h-501.716c-18.948,0-37.12-7.527-50.518-20.925l-49.313-49.313c-13.398-13.398-31.57-20.925-50.518-20.925H-142.156c-18.948,0-37.12,7.527-50.518,20.925l-83.526,83.526c-13.398,13.398-31.57,20.925-50.518,20.925h-91.99c-18.948,0-37.12-7.527-50.518-20.925l-43.108-43.108c-13.398-13.398-20.925-31.57-20.925-50.518v47.102c0-18.948,7.527-37.12,20.925-50.518l45.628-45.628c13.398-13.398,20.925-31.57,20.925-50.518v-37.519c0-18.948-7.527-37.12-20.925-50.518l-51.718-51.718c-13.444-13.444-20.975-31.692-20.925-50.705h0c.049-18.883,7.573-36.978,20.925-50.331Z" style="fill: #c2e6e4;"/>
        <g>
          <path d="M444.7-286.597l-7.082-7.082c-6.897-6.896-16.25-10.771-26.003-10.771h-165.681c-19.013,0-37.247-7.553-50.691-20.997l-24.496-24.496c-13.444-13.444-20.997-31.679-20.997-50.692h0c0-39.593-32.096-71.689-71.688-71.689H-5.367s0,382.286,0,382.286h-15.768V106.704h210.985c25.021,0,47.61-13.01,62.354-33.225.634-.869,1.338-1.693,2.108-2.463l53.343-53.343c3.921-3.921,6.123-9.238,6.123-14.783v-50.807c0-5.545-2.203-10.862-6.123-14.783l-21.212-21.212c-3.921-3.921-9.238-6.123-14.783-6.123h-105.067c-12.885,0-25.243-5.119-34.355-14.23l-21.072-21.072c-10.115-10.115-15.797-23.834-15.797-38.139h0c0-29.789,24.148-53.937,53.937-53.937h262.987c9.753,0,19.107-3.874,26.003-10.771l5.821-5.821c5.049-5.048,8.812-11.325,10.41-18.283,2.89-12.584-.984-25.465-9.827-34.307Z" style="fill: #4aa280; fill-rule: evenodd;"/>
          <path d="M-11.138,106.704h200.988c25.021,0,47.61-13.01,62.354-33.225.634-.869,1.338-1.693,2.108-2.463l53.343-53.344c3.921-3.92,6.123-9.238,6.123-14.783v-50.808c0-5.544-2.203-10.862-6.123-14.783l-21.212-21.212c-3.921-3.92-9.238-6.123-14.783-6.123h-105.067c-12.885,0-25.243-5.119-34.355-14.23l-21.072-21.072c-10.115-10.115-15.797-23.834-15.797-38.139,0-29.789,24.148-53.937,53.937-53.937h262.987c9.753,0,19.107-3.874,26.003-10.771l5.821-5.821c5.049-5.048,8.812-11.325,10.41-18.283,2.89-12.583-.984-25.465-9.827-34.308l-7.082-7.082c-6.897-6.896-16.25-10.771-26.003-10.771h-165.681c-19.013,0-37.247-7.553-50.691-20.997l-24.496-24.497c-13.444-13.444-20.997-31.678-20.997-50.691h0c0-39.593-32.096-71.689-71.688-71.689H-.368" style="fill: none; stroke: #4aa280; stroke-dasharray: 0 9.998; stroke-linecap: round; stroke-linejoin: round; stroke-width: 10px;"/>
        </g>
        <g>
          <rect x="172.178" y="-39.3" width="8.531" height="53.596" transform="translate(352.886 -25.004) rotate(-180)" style="fill: #dcf8f1;"/>
          <rect x="259.617" y="-37.169" width="8.531" height="51.465" transform="translate(527.764 -22.873) rotate(-180)" style="fill: #dcf8f1;"/>
          <rect x="212.723" y="-90.116" width="8.531" height="104.412" style="fill: #dcf8f1;"/>
          <line x1="291.607" y1="15.362" x2="161.515" y2="15.362" style="fill: none; stroke: #4aa280; stroke-dasharray: 0 16.581; stroke-linecap: round; stroke-linejoin: round; stroke-width: 16.581px;"/>
        </g>
        <g>
          <rect x="94.168" y="32.445" width="8.531" height="53.596" style="fill: #dcf8f1;"/>
          <rect x="6.729" y="34.576" width="8.531" height="51.465" style="fill: #dcf8f1;"/>
          <rect x="53.623" y="-18.371" width="8.531" height="104.412" transform="translate(115.776 67.67) rotate(-180)" style="fill: #dcf8f1;"/>
          <ellipse cx="10.994" cy="34.576" rx="27.725" ry="27.701" style="fill: #c7ebf7;"/>
          <g>
            <ellipse cx="10.994" cy="34.576" rx="21.327" ry="21.309" style="fill: #49a198;"/>
            <g style="clip-path: url(#clippath-1);">
              <path d="M-6.971,47.781c-.51-.766-.791-1.67-.791-2.604h0c0-1.843,1.082-3.574,2.896-4.344.603-.257,1.263-.357,1.918-.357h13.067c2.353,0,4.595-.999,6.169-2.746,1.81-2.009,3.517-3.904,4.814-5.344,1.523-1.691,3.692-2.655,5.969-2.655h19.463c2.497,0,4.835,1.448,5.758,3.766,1.263,3.168-.272,6.71-3.488,7.947-.695.267-1.442.376-2.186.376h-1.423l-6.803,20.407H5.73l-16.284-13.748,3.583-.697Z" style="fill: #a7cc40; fill-rule: evenodd;"/>
            </g>
          </g>
          <ellipse cx="98.433" cy="32.445" rx="21.327" ry="21.309" style="fill: #c7ebf7;"/>
          <g>
            <ellipse cx="98.433" cy="32.445" rx="14.929" ry="14.916" style="fill: #6fbfbc;"/>
            <g style="clip-path: url(#clippath-2);">
              <path d="M85.858,41.689c-.358-.536-.554-1.169-.554-1.823h0c0-1.29.758-2.502,2.027-3.041.422-.179.884-.25,1.342-.25h9.147c1.647,0,3.217-.699,4.318-1.922,1.267-1.407,2.462-2.733,3.37-3.741,1.066-1.184,2.585-1.859,4.178-1.859h13.624c1.748,0,3.384,1.013,4.031,2.636.883,2.218-.19,4.697-2.442,5.563-.486.187-1.009.263-1.53.263h-.996l-4.762,14.285h-22.862l-11.399-9.623,2.508-.488Z" style="fill: #a7cc40; fill-rule: evenodd;"/>
            </g>
          </g>
          <ellipse cx="57.888" cy="-18.371" rx="31.99" ry="31.963" style="fill: #c7ebf7;"/>
          <g>
            <ellipse cx="57.888" cy="-18.371" rx="25.592" ry="25.57" style="fill: #49a198;"/>
            <g style="clip-path: url(#clippath-3);">
              <path d="M36.33-2.525c-.613-.919-.95-2.004-.95-3.125h0c0-2.211,1.299-4.289,3.475-5.213.724-.308,1.515-.428,2.301-.428h15.68c2.823,0,5.514-1.199,7.403-3.295,2.172-2.411,4.219-4.684,5.776-6.413,1.828-2.029,4.43-3.186,7.162-3.186h23.354c2.997,0,5.802,1.737,6.91,4.518,1.515,3.802-.326,8.052-4.186,9.537-.834.32-1.73.45-2.623.45h-1.708l-8.163,24.489h-39.192L32.03-1.688l4.3-.837Z" style="fill: #a7cc40; fill-rule: evenodd;"/>
            </g>
          </g>
          <line x1="-16.73" y1="87.107" x2="113.362" y2="87.107" style="fill: none; stroke: #4aa280; stroke-dasharray: 0 16.581; stroke-linecap: round; stroke-linejoin: round; stroke-width: 16.581px;"/>
        </g>
        <g>
          <path d="M242.811,91.315c0-2.932-2.369-5.299-5.303-5.299s-5.303,2.367-5.303,5.299c0-2.932-2.368-5.299-5.303-5.299s-5.303,2.367-5.303,5.299c0-2.932-2.368-5.299-5.303-5.299s-5.303,2.367-5.303,5.299c0-2.932-2.368-5.299-5.303-5.299s-5.303,2.367-5.303,5.299c0-2.932-2.368-5.299-5.303-5.299s-5.303,2.367-5.303,5.299v9.823h53.035v-9.823h-.001Z" style="fill: #8dd44c;"/>
          <rect x="158.481" y="98.045" width="84.332" height="57.765" style="fill: #fff;"/>
          <rect x="200.384" y="98.045" width="10.607" height="57.765" style="fill: #e9f1f6; mix-blend-mode: multiply; opacity: .5;"/>
          <rect x="237.508" y="98.045" width="5.305" height="57.765" style="fill: #e9f1f6; mix-blend-mode: multiply; opacity: .5;"/>
          <g>
            <path d="M205.426,155.811h-78.24v-76.447c0-10.366,4.108-20.307,11.424-27.636,7.354-7.33,17.291-11.447,27.658-11.447h.038c10.367,0,20.304,4.117,27.658,11.447,7.316,7.33,11.462,17.27,11.462,27.636v76.447Z" style="fill: #fff; fill-rule: evenodd;"/>
            <g>
              <rect x="127.185" y="118.676" width="15.648" height="18.567" style="fill: #b3efe3;"/>
              <rect x="127.185" y="82.411" width="15.648" height="15.635" style="fill: #b3efe3;"/>
              <rect x="153.934" y="118.676" width="24.742" height="37.134" style="fill: #b3efe3;"/>
              <rect x="153.934" y="82.411" width="24.742" height="15.635" style="fill: #b3efe3;"/>
              <rect x="189.777" y="118.676" width="15.648" height="18.567" style="fill: #b3efe3;"/>
              <rect x="189.777" y="82.411" width="15.648" height="15.635" style="fill: #b3efe3;"/>
            </g>
            <g style="opacity: .35;">
              <rect x="127.185" y="82.411" width="15.648" height="5.998" style="fill: #49a2e0;"/>
              <rect x="153.935" y="82.411" width="24.742" height="5.998" style="fill: #49a2e0;"/>
              <rect x="189.778" y="82.411" width="15.648" height="5.998" style="fill: #49a2e0;"/>
            </g>
            <g style="opacity: .35;">
              <rect x="127.185" y="118.676" width="15.648" height="5.998" style="fill: #49a2e0;"/>
              <rect x="153.935" y="118.676" width="24.742" height="5.998" style="fill: #49a2e0;"/>
              <rect x="189.778" y="118.676" width="15.648" height="5.998" style="fill: #49a2e0;"/>
            </g>
          </g>
          <rect x="210.991" y="118.676" width="26.516" height="31.87" style="fill: #b3efe3;"/>
          <rect x="210.992" y="118.676" width="26.516" height="5.998" style="fill: #49a2e0;"/>
          <rect x="205.426" y="98.139" width="37.387" height="5.998" style="fill: #fff;"/>
        </g>
        <g>
          <line x1="1191.395" y1="86.712" x2="1153.736" y2="86.712" style="fill: none; stroke: #8ee8e8; stroke-linecap: round; stroke-linejoin: round; stroke-width: 7px;"/>
          <line x1="1161.758" y1="71.478" x2="1140.55" y2="71.478" style="fill: none; stroke: #8ee8e8; stroke-linecap: round; stroke-linejoin: round; stroke-width: 7px;"/>
          <line x1="1181.472" y1="67.894" x2="1191.395" y2="67.894" style="fill: none; stroke: #8ee8e8; stroke-linecap: round; stroke-linejoin: round; stroke-width: 7px;"/>
        </g>
        <g>
          <path d="M943.249,66.38c0-3.018-2.469-5.512-5.517-5.512-3.046,0-5.517,2.494-5.517,5.512,0,.004.001.008.001.013h-.003s.001-.008.001-.013c0-3.018-2.469-5.512-5.515-5.512s-5.517,2.494-5.517,5.512c0,.004.001.008.001.013h-.003s.001-.008.001-.013c0-3.018-2.469-5.512-5.517-5.512-3.048,0-5.517,2.494-5.517,5.512,0,.004.001.008.001.013h-.003s.001-.008.001-.013c0-3.018-2.469-5.512-5.517-5.512s-5.515,2.494-5.515,5.512c0,.004.001.008.001.013h-.003s.001-.008.001-.013c0-3.018-2.469-5.512-5.517-5.512s-5.517,2.494-5.517,5.512c0,.004.001.008.001.013h-.003s.001-.008.001-.013c0-3.018-2.469-5.512-5.517-5.512s-5.517,2.494-5.517,5.512c0,.004.001.008.001.013h-.003s.001-.008.001-.013c0-3.018-2.469-5.512-5.515-5.512s-5.517,2.494-5.517,5.512c0,.004.001.008.001.013h-.003s.001-.008.001-.013c0-3.018-2.469-5.512-5.517-5.512-3.048,0-5.517,2.494-5.517,5.512,0,.004.001.008.001.013h-.003s.001-.008.001-.013c0-3.018-2.469-5.512-5.517-5.512s-5.515,2.494-5.515,5.512c0,.004.001.008.001.013h-.02v9.998h99.31s0-9.962,0-9.962c0-.017.005-.033.005-.049Z" style="fill: #8cce52;"/>
          <path d="M933.662,71.358h-93.536c-1.706,0-3.093,1.386-3.093,3.089v42.741s96.629-45.83,96.629-45.83Z" style="fill: #a3d8d3;"/>
          <g>
            <path d="M1001.44,34.27l-13.116,6.088c-.064.031-.121.072-.186.103l13.302-6.191h0Z" style="fill: none;"/>
            <polygon points="876.332 92.361 834.206 112.106 987.679 40.675 876.332 92.361" style="fill: none;"/>
            <g>
              <polygon points="993.673 306.393 912.728 306.138 912.728 339.333 827.568 339.333 827.568 122.014 994.789 40.27 993.673 306.393" style="fill: #5ac4c3; fill-rule: evenodd;"/>
              <g style="clip-path: url(#clippath-5);">
                <polygon points="921.815 332.578 884.655 349.828 1061.938 -34.848 1092.399 -48.614 921.815 332.578" style="fill: #baeffc; fill-opacity: .176; fill-rule: evenodd;"/>
                <polygon points="847.067 336.819 764.613 354.069 941.896 -30.607 1017.651 -44.373 847.067 336.819" style="fill: #baeffc; fill-opacity: .176; fill-rule: evenodd;"/>
                <polygon points="999.462 346.946 943.324 350.077 1066.707 81.046 1088.659 151.26 999.462 346.946" style="fill: #baeffc; fill-opacity: .176; fill-rule: evenodd;"/>
              </g>
            </g>
            <g>
              <path d="M957.404,62.396c-.521-.335-1.181-.378-1.752-.114l-2.648,1.23c-.642.3-1.056.945-1.056,1.655v95.085c0,.624.318,1.205.846,1.541.296.189.639.285.982.285.261,0,.525-.057.771-.171l2.648-1.23c.642-.3,1.056-.945,1.056-1.655V63.937c0-.624-.318-1.205-.846-1.541Z" style="fill: #4aa2b2;"/>
              <path d="M913.281,81.95l-2.648,1.23c-.642.3-1.056.945-1.056,1.655v95.085c0,.624.318,1.205.846,1.541.296.189.639.285.982.285.261,0,.525-.057.771-.171l2.648-1.23c.642-.3,1.056-.945,1.056-1.655v-95.085c0-.624-.318-1.205-.846-1.541-.525-.335-1.185-.378-1.752-.114Z" style="fill: #4aa2b2;"/>
              <path d="M870.901,101.656l-2.648,1.245c-.639.3-1.049.945-1.049,1.651v98.113c0,.813.539,1.53,1.321,1.755.168.05.339.071.507.071.617,0,1.206-.314,1.549-.856.625-.995,1.424-1.965,2.37-2.881.357-.346.557-.817.557-1.312v-96.133c0-.624-.321-1.205-.849-1.541-.521-.332-1.189-.378-1.756-.111Z" style="fill: #4aa2b2;"/>
            </g>
            <g style="opacity: .35;">
              <polygon points="828.271 138.361 827.568 122.475 995.232 44.441 994.789 60.861 828.271 138.361" style="fill: #4aa2b2;"/>
            </g>
            <path d="M1002.422,32.729c-.521-.335-1.181-.374-1.752-.114l-167.481,77.949c-6.71,3.123-11,9.849-11,17.245v211.523s11.6,0,11.6,0V127.811c0-.724.125-1.462.382-2.254.646-1.993,2.077-3.63,3.93-4.49l153.568-71.477v86.316c0,2.881-1.692,5.528-4.308,6.744l-111.787,51.888c-1.842.856-3.58,2.065-5.165,3.591-1.156,1.12-2.142,2.318-2.927,3.566-1.913,3.046-2.923,6.537-2.923,10.096v127.542s11.6,0,11.6,0v-78.372c0-.717.125-1.459.382-2.257.471-1.455,1.424-2.735,3.012-3.891.293-.214.578-.439.91-.596l111.205-51.62v31.771c0,2.893-1.68,5.524-4.306,6.743l-69.419,32.225c-1.856.863-3.591,2.068-5.161,3.588-1.171,1.134-2.156,2.332-2.927,3.563-1.913,3.049-2.927,6.54-2.927,10.099v48.747s11.6,0,11.6,0v-28.139h73.14v28.139s11.6,0,11.6,0V34.27c0-.624-.318-1.205-.846-1.541ZM991.668,153.427v31.65c0,2.881-1.692,5.528-4.308,6.744l-111.202,51.617v-31.646c0-2.881,1.688-5.531,4.304-6.744l111.205-51.62ZM991.668,251.892v47.712s-73.14,0-73.14,0v-9.019c0-2.881,1.688-5.524,4.304-6.74l68.835-31.953Z" style="fill: #fff;"/>
          </g>
        </g>
        <g>
          <rect x="655.085" y="99.941" width="9.068" height="4.563" rx="2.281" ry="2.281" style="fill: #a1cac6;"/>
          <rect x="731.558" y="99.941" width="9.068" height="4.563" rx="2.281" ry="2.281" style="fill: #a1cac6;"/>
          <g>
            <rect x="657.677" y="32.843" width="3.884" height="69.379" style="fill: #fff;"/>
            <rect x="734.15" y="32.843" width="3.884" height="69.379" style="fill: #fff;"/>
          </g>
          <g>
            <g>
              <rect x="645.77" y="32.843" width="104.305" height="53.248" style="fill: #a0fbe9; opacity: .75;"/>
              <g style="clip-path: url(#clippath-6);">
                <g>
                  <g>
                    <path d="M697.569,69.122c-.612-.541-.984-1.303-1.031-2.118-.048-.815.232-1.615.776-2.224l.003-.003c1.141-1.275,3.098-1.389,4.38-.257,2.568,2.268,7.213,6.384,9.78,8.651,1.279,1.13,1.399,3.081.268,4.359l-.003.003c-.543.614-1.308.987-2.126,1.037-.818.05-1.623-.226-2.237-.769-2.575-2.274-7.237-6.405-9.811-8.678Z" style="fill: #c25091; fill-rule: evenodd;"/>
                    <rect x="711.645" y="67.068" width="6.052" height="16.506" rx="3.026" ry="3.026" transform="translate(672.809 792.73) rotate(-92.677)" style="fill: #c25091;"/>
                    <g>
                      <path d="M697.463,64.6c-1.265,1.325-1.215,3.426.111,4.69,1.326,1.263,3.429,1.214,4.694-.111,1.265-1.325,1.215-3.426-.11-4.689-1.326-1.264-3.429-1.214-4.694.11Z" style="fill: #df752f; fill-rule: evenodd;"/>
                      <polygon points="708.815 70.348 703.389 74.94 697.444 69.166 702.157 64.49 708.815 70.348" style="fill: #df752f; fill-rule: evenodd;"/>
                    </g>
                  </g>
                  <rect x="689.58" y="59.939" width="6.416" height="4.748" style="fill: #9f367b;"/>
                  <path d="M699.576,63.583h-15.138s-1.215,15.951-1.726,22.645c-.056.749.203,1.49.711,2.035.511.553,1.23.868,1.982.868h13.204c.752,0,1.471-.315,1.982-.868.511-.545.767-1.286.711-2.035-.512-6.694-1.726-22.645-1.726-22.645Z" style="fill: #dd8230;"/>
                  <g style="clip-path: url(#clippath-7);">
                    <rect x="682.145" y="82.294" width="19.676" height="8.854" style="fill: #eedbb5;"/>
                    <rect x="682.145" y="80.581" width="19.676" height="2.035" style="fill: #0c1b1c;"/>
                  </g>
                  <path d="M682.668,64.541c.621-.531,1.428-.792,2.243-.726.814.066,1.569.453,2.097,1.077,0,.001,0,0,0,0,1.105,1.306.95,3.261-.351,4.372-2.605,2.226-6.984,5.992-9.588,8.217-1.297,1.109-3.248.956-4.358-.34l-.003-.003c-.533-.622-.796-1.431-.733-2.247.064-.816.45-1.574,1.073-2.106,2.612-2.232,7.009-6.013,9.619-8.244Z" style="fill: #c25091; fill-rule: evenodd;"/>
                  <rect x="676.522" y="69.656" width="6.054" height="16.502" rx="3.027" ry="3.027" transform="translate(278.872 632.266) rotate(-60.682)" style="fill: #c25091;"/>
                  <g>
                    <path d="M687.165,64.667c1.213,1.372,1.082,3.47-.292,4.682-1.373,1.211-3.473,1.081-4.686-.291s-1.082-3.47.291-4.682c1.374-1.212,3.474-1.081,4.686.291Z" style="fill: #df752f; fill-rule: evenodd;"/>
                    <polygon points="675.6 69.974 680.844 74.771 687.008 69.23 682.479 64.376 675.6 69.974" style="fill: #df752f; fill-rule: evenodd;"/>
                  </g>
                  <g>
                    <circle cx="706.686" cy="51.126" r="3.971" style="fill: #9f367b;"/>
                    <path d="M701.37,41.549c-.192-1.651.994-3.146,2.646-3.338,1.652-.192,3.149.993,3.341,2.644l.821,7.062c.192,1.651-.994,3.146-2.646,3.338-1.652.192-3.149-.993-3.341-2.644l-.821-7.062Z" style="fill: #0c1b1c; fill-rule: evenodd;"/>
                    <path d="M705.775,43.009c-.273-2.436-2.477-4.191-4.913-3.918l-18.433,2.064c-2.436.273-4.196,2.472-3.923,4.907l1.289,11.492c.273,2.436,2.477,4.191,4.913,3.918l18.433-2.064c2.436-.273,4.196-2.471,3.923-4.907l-1.289-11.492Z" style="fill: #c25091;"/>
                    <path d="M674.864,38.849c-.189-1.623.976-3.092,2.601-3.281,7.617-.883,31.013-3.582,31.013-3.582,0,0,.74,6.056,1.185,9.697.087.71-.113,1.426-.557,1.988-.443.562-1.092.925-1.804,1.007-7.433.862-31.34,3.62-31.34,3.62,0,0-.672-5.786-1.098-9.45Z" style="fill: #0c1b1c; fill-rule: evenodd;"/>
                    <path d="M675.68,46.105c-.192-1.651.994-3.146,2.646-3.338,1.652-.192,3.149.993,3.341,2.644l.639,5.497c.192,1.651-.994,3.146-2.646,3.338-1.652.192-3.149-.993-3.341-2.644l-.639-5.497Z" style="fill: #0c1b1c; fill-rule: evenodd;"/>
                    <circle cx="678.126" cy="54.323" r="3.971" style="fill: #c25091;"/>
                    <circle cx="678.126" cy="54.323" r="1.488" style="fill: #9f367b;"/>
                    <g>
                      <g>
                        <path d="M688.572,47.905h2.987c.734,0,1.329.596,1.329,1.329v5.851c0,.734-.596,1.33-1.33,1.33h-2.987c-.734,0-1.331-.596-1.331-1.331v-5.849c0-.735.597-1.331,1.331-1.331Z" transform="translate(-1.519 77.1) rotate(-6.388)" style="fill: #fff;"/>
                        <path d="M688.957,49.346h1.416c.441,0,.798.358.798.798v4.122c0,.44-.358.798-.798.798h-1.418c-.44,0-.798-.357-.798-.798v-4.122c0-.441.358-.799.799-.799Z" transform="translate(-1.526 77.056) rotate(-6.388)" style="fill: #0c1b1c;"/>
                      </g>
                      <g>
                        <path d="M700.001,46.625h2.987c.734,0,1.331.596,1.331,1.331v5.85c0,.734-.596,1.33-1.33,1.33h-2.988c-.734,0-1.329-.596-1.329-1.329v-5.851c0-.734.596-1.33,1.33-1.33Z" transform="translate(-1.306 78.364) rotate(-6.388)" style="fill: #fff;"/>
                        <path d="M700.387,48.066h1.416c.441,0,.798.358.798.798v4.121c0,.441-.358.799-.799.799h-1.417c-.44,0-.798-.357-.798-.798v-4.122c0-.441.358-.799.799-.799Z" transform="translate(-1.313 78.32) rotate(-6.388)" style="fill: #0c1b1c;"/>
                      </g>
                    </g>
                    <path d="M696.544,58.32c.512-.057.979-.322,1.299-.737.32-.415.465-.945.406-1.474l-.048-.429c-.009-.081-.079-.139-.157-.13l-3.578.401c-.078.009-.134.081-.125.162l.048.429c.059.529.32,1.014.724,1.348.404.334.918.489,1.43.432h0Z" style="fill: #9f367b;"/>
                  </g>
                  <rect x="692.97" y="63.583" width="1.924" height="16.998" style="fill: #df752f;"/>
                </g>
              </g>
              <g style="clip-path: url(#clippath-8);">
                <polygon points="701.264 95.916 666.429 95.916 700.104 24.698 733.227 24.497 701.264 95.916" style="fill: #bff1fc; fill-opacity: .176; fill-rule: evenodd;"/>
                <polygon points="732.531 95.916 716.4 95.916 750.075 24.698 764.494 24.497 732.531 95.916" style="fill: #bff1fc; fill-opacity: .176; fill-rule: evenodd;"/>
                <polygon points="644.632 95.916 635.707 95.916 669.382 24.698 676.594 24.497 644.632 95.916" style="fill: #bff1fc; fill-opacity: .176; fill-rule: evenodd;"/>
              </g>
              <g>
                <g>
                  <path d="M760.004,34.636l-6.215-6.21h-5.171c-1.073,0-1.942.869-1.942,1.94v58.201c0,1.072.869,1.94,1.942,1.94h5.171l6.215-6.209c0-16.365,0-33.297,0-49.662Z" style="fill: #fff; fill-rule: evenodd;"/>
                  <g style="clip-path: url(#clippath-9);">
                    <rect x="753.782" y="26.768" width="8.178" height="66.867" style="fill: #a3d8d3;"/>
                  </g>
                </g>
                <g>
                  <path d="M635.707,34.636l6.216-6.21h5.171c1.073,0,1.942.869,1.942,1.94v58.201c0,1.072-.869,1.94-1.942,1.94h-5.171l-6.215-6.21c0-16.365,0-33.297,0-49.662Z" style="fill: #fff; fill-rule: evenodd;"/>
                  <g style="clip-path: url(#clippath-10);">
                    <rect x="635.1" y="25.731" width="6.774" height="67.473" style="fill: #a3d8d3;"/>
                  </g>
                </g>
              </g>
            </g>
            <g>
              <path d="M644.564,80.184h1.772c.489,0,.886.397.886.886v6.24c0,.488-.397.885-.885.885h-1.772c-.489,0-.886-.397-.886-.886v-6.24c0-.488.397-.885.885-.885Z" style="fill: #a3d8d3;"/>
              <path d="M644.564,73.675h1.772c.489,0,.886.397.886.886v2.218c0,.488-.397.885-.885.885h-1.772c-.489,0-.886-.397-.886-.886v-2.218c0-.488.397-.885.885-.885Z" style="fill: #a3d8d3;"/>
              <path d="M644.564,68.116h1.772c.489,0,.886.397.886.886v2.218c0,.488-.397.885-.885.885h-1.772c-.489,0-.886-.397-.886-.886v-2.218c0-.488.397-.885.885-.885Z" style="fill: #a3d8d3;"/>
            </g>
          </g>
        </g>
        <g>
          <path d="M611.199,226.07V-340.387c0-9.071-7.354-16.425-16.425-16.425h0c-7.211,0-13.578,4.703-15.698,11.594l-6.816,22.153h0c-5.047,16.544-14.094,31.588-26.341,43.802l-39.085,38.981c-12.405,12.372-19.376,29.171-19.376,46.691V226.07h123.741Z" style="fill: #a6ede5; fill-rule: evenodd;"/>
          <path d="M611.728,221.253v-503.475c0-4.663-3.78-8.443-8.443-8.443h0c-3.293,0-6.286,1.915-7.666,4.906h0c-10.406,22.553-25.746,42.48-44.887,58.309l-61.439,50.808c-16.721,13.828-26.401,34.394-26.401,56.092V221.253h148.836Z" style="fill: #57bdc2; fill-rule: evenodd;"/>
          <g>
            <path d="M463.157,225.805V-120.55c0-21.693,9.588-42.063,26.306-55.889l61.439-50.808c19.054-15.758,34.601-35.953,44.958-58.402,1.332-2.887,4.247-4.752,7.426-4.752,4.509,0,8.178,3.669,8.178,8.178V225.805h-148.307Z" style="fill: #f6ffff; fill-rule: evenodd;"/>
            <path d="M603.286-290.135c4.363,0,7.913,3.549,7.913,7.913V225.54h-147.776V-120.55c0-21.614,9.553-41.91,26.209-55.684l61.439-50.808c19.084-15.782,34.655-36.01,45.03-58.496,1.289-2.793,4.109-4.598,7.185-4.598M603.286-290.665c-3.293,0-6.286,1.915-7.666,4.906h0c-10.406,22.553-25.746,42.48-44.887,58.309l-61.439,50.808c-16.721,13.828-26.401,34.394-26.401,56.092V226.07h148.836v-508.292c0-4.663-3.78-8.442-8.443-8.442h0Z" style="fill: #f6ffff;"/>
          </g>
          <g style="clip-path: url(#clippath-13);">
            <path d="M609.081,226.07v-498.929l-2.724,11.644c-8.36,18.119-20.675,34.133-36.041,46.864l-81.021,67.13c-16.721,13.828-26.401,34.394-26.401,56.092V226.07h146.188Z" style="fill: #5cc7c3; fill-rule: evenodd;"/>
            <g>
              <g>
                <line x1="471.845" y1="-149.106" x2="471.845" y2="502.355" style="fill: #e8f3fd; mix-blend-mode: multiply; stroke: #e8f3fd; stroke-miterlimit: 10; stroke-width: 2.326px;"/>
                <line x1="474.342" y1="-149.106" x2="474.342" y2="502.355" style="fill: none; stroke: #49a2ac; stroke-linecap: round; stroke-linejoin: round; stroke-width: 6.854px;"/>
                <line x1="508.688" y1="-179.392" x2="508.688" y2="502.355" style="fill: none; stroke: #49a2ac; stroke-linecap: round; stroke-linejoin: round; stroke-width: 6.854px;"/>
                <line x1="543.035" y1="502.355" x2="543.035" y2="-204.486" style="fill: none; stroke: #49a2ac; stroke-linecap: round; stroke-linejoin: round; stroke-width: 6.854px;"/>
                <line x1="577.382" y1="-232.177" x2="577.382" y2="502.355" style="fill: none; stroke: #49a2ac; stroke-linecap: round; stroke-linejoin: round; stroke-width: 6.854px;"/>
              </g>
              <path d="M611.728-88.927l-5.372,11.644c-8.36,18.119-20.675,34.133-36.041,46.864l-81.021,67.13c-16.721,13.828-26.401,34.394-26.401,56.092v-35.484c0-21.698,9.68-42.265,26.401-56.092l81.021-67.13c15.365-12.731,27.681-28.745,36.041-46.864l5.372-11.644v35.484Z" style="fill: #e8f3fd; fill-rule: evenodd; mix-blend-mode: multiply;"/>
              <polygon points="590.53 -275.528 590.53 439.101 608.601 439.101 608.601 -281.585 590.53 -275.528" style="fill: #e8f3fd; mix-blend-mode: multiply; stroke: #e8f3fd; stroke-miterlimit: 10; stroke-width: 2.326px;"/>
              <path d="M611.728-11.854l-5.372,11.644c-8.36,18.119-20.675,34.133-36.041,46.864l-81.021,67.13c-16.721,13.828-26.401,34.394-26.401,56.092v-35.484c0-21.698,9.68-42.265,26.401-56.092l81.021-67.13c15.365-12.731,27.681-28.745,36.041-46.864l5.372-11.644V-11.854Z" style="fill: #c1f2fc; fill-opacity: .176; fill-rule: evenodd;"/>
              <path d="M611.728,159.139l-5.372,11.644c-8.36,18.119-20.675,34.133-36.041,46.864l-81.021,67.13c-16.721,13.828-26.401,34.394-26.401,56.092v-35.484c0-21.698,9.68-42.265,26.401-56.092l81.021-67.13c15.365-12.731,27.681-28.745,36.041-46.864l5.372-11.644v35.484Z" style="fill: #c1f2fc; fill-opacity: .176; fill-rule: evenodd;"/>
              <line x1="587.8" y1="-23.395" x2="587.8" y2="61.299" style="fill: none; stroke: #5cc7c3; stroke-linecap: round; stroke-linejoin: round; stroke-width: 3.177px;"/>
              <line x1="587.8" y1="144.366" x2="587.8" y2="229.06" style="fill: none; stroke: #5cc7c3; stroke-linecap: round; stroke-linejoin: round; stroke-width: 3.177px;"/>
              <rect x="454.894" y="-143.3" width="15.788" height="379.523" style="fill: #e8f3fd; mix-blend-mode: multiply;"/>
              <path d="M611.728,82.066l-5.372,11.644c-8.36,18.119-20.675,34.133-36.041,46.864l-81.021,67.13c-16.721,13.828-26.401,34.394-26.401,56.092v-35.484c0-21.698,9.68-42.265,26.401-56.092l81.021-67.13c15.365-12.731,27.681-28.745,36.041-46.864l5.372-11.644v35.484Z" style="fill: #e8f3fd; fill-rule: evenodd; mix-blend-mode: multiply;"/>
              <g>
                <line x1="486.215" y1="-151.704" x2="486.215" y2="240.361" style="fill: none; stroke: #f6ffff; stroke-miterlimit: 10; stroke-width: 9.139px;"/>
                <line x1="555.064" y1="-210.229" x2="555.064" y2="240.361" style="fill: none; stroke: #f6ffff; stroke-miterlimit: 10; stroke-width: 9.139px;"/>
              </g>
              <path d="M613.025-138.026c-1.37-.632-2.834-.76-4.207-.49-.34-.266-.704-.506-1.112-.695-2.856-1.325-6.261-.069-7.585,2.787-1.096,2.362-.407,5.082,1.487,6.708l-.182.394c-2.403-.55-4.984.492-6.264,2.769-1.391,2.49-.689,5.57,1.522,7.28-.023.046-.048.091-.071.137-2.52-1.2-5.587-.442-7.207,1.928-1.736,2.569-1.083,6.066,1.457,7.848-.015.021-.03.043-.045.064-2.442-1.906-5.983-1.508-7.924.906-1.988,2.468-1.622,6.055.844,8.043.06.048.128.081.189.127-.027.032-.054.065-.082.097-.055-.057-.095-.124-.152-.179-2.285-2.193-5.895-2.124-8.066.138h-.022c-2.171,2.285-2.103,5.895.16,8.088.109.104.232.179.346.273-.045.044-.087.089-.132.133-.09-.119-.159-.248-.259-.361-2.056-2.376-5.689-2.626-8.042-.547-2.376,2.077-2.627,5.687-.548,8.063.161.184.351.327.53.485-.062.053-.119.106-.181.159-.143-.235-.283-.471-.464-.689-2.01-2.445-5.597-2.787-8.042-.754-2.422,2.01-2.764,5.598-.754,8.041.192.227.416.41.633.6l-.172.143c-.147-.245-.295-.492-.483-.718-2.01-2.423-5.62-2.764-8.042-.754-2.444,2.01-2.788,5.62-.754,8.041.187.23.407.413.621.605l-.179.148c-.148-.25-.298-.5-.488-.731-2.01-2.421-5.62-2.764-8.042-.754-2.422,2.035-2.764,5.622-.754,8.066.187.226.408.406.623.596l-.181.15c-.149-.247-.298-.495-.487-.724-2.01-2.421-5.597-2.764-8.042-.752-2.422,2.01-2.764,5.596-.753,8.041.192.23.414.412.63.603l-.182.151c-.15-.25-.301-.5-.494-.732-2.011-2.421-5.598-2.764-8.042-.754-2.422,2.01-2.764,5.62-.754,8.043.194.232.418.418.637.612l-.179.149c-.147-.245-.293-.49-.481-.716-2.01-2.443-5.62-2.764-8.042-.754-2.444,2.01-2.764,5.598-.754,8.043.188.226.409.407.624.597l-.182.15c-.148-.248-.297-.496-.487-.725-2.011-2.421-5.621-2.764-8.042-.754-2.422,2.01-2.766,5.62-.754,8.043.189.231.411.415.626.608l-.188.156c-.148-.246-.296-.492-.484-.719-2.01-2.445-5.598-2.787-8.042-.754-2.422,2.01-2.764,5.598-.754,8.043.192.226.414.407.631.597l-.172.142c-.147-.245-.295-.491-.482-.717-2.01-2.423-5.62-2.764-8.041-.754-2.445,2.01-2.788,5.62-.754,8.041.187.229.406.412.619.604l-.152.126c-.185-.285-.387-.563-.628-.819-2.17-2.309-5.78-2.423-8.088-.252-2.285,2.171-2.398,5.781-.228,8.088.119.126.258.219.385.331-.024.023-.047.047-.071.07-.129-.126-.24-.264-.384-.379-2.444-1.988-6.032-1.622-8.019.846-1.984,2.441-1.622,6.016.81,8.006-.014.018-.03.036-.044.055-2.717-1.569-6.207-.679-7.803,2.037-1.519,2.582-.751,5.863,1.654,7.558-.037.068-.076.136-.113.204-2.829-.822-5.87.609-6.933,3.409-.995,2.617.054,5.514,2.364,6.917-.055.153-.107.308-.161.462-2.699-.005-5.102,1.91-5.607,4.64-.443,2.407.689,4.732,2.662,5.929-.085.412-.148.834-.226,1.249-.019.007-.041.01-.06.018-.342.138-.685.321-.983.527-.319.205-.617.433-.868.707-.274.252-.502.549-.708.868-.205.297-.388.64-.525.984-.16.341-.251.707-.342,1.073-.068.366-.114.754-.114,1.12s.046.754.114,1.118c.091.366.183.71.342,1.051.137.366.32.687.525,1.006.206.297.434.593.708.868.179.18.402.342.62.506-.177,2.337-.294,4.697-.294,7.097,0,3.802,3.082,6.885,6.884,6.885s6.884-3.083,6.884-6.885c0-20.85,7.925-38.887,22.32-50.79l81.022-67.131c18.342-15.196,30.031-29.578,37.899-46.633l5.373-11.642c1.594-3.452.087-7.543-3.366-9.137Z" style="fill: #8dd44c;"/>
              <g>
                <path d="M462.893,218.324c0-21.698,8.091-42.265,24.813-56.092l81.021-67.13c15.365-12.731,27.681-26.097,36.041-44.216l5.372-11.644" style="fill: none; fill-rule: evenodd; stroke: #a0dd88; stroke-linecap: round; stroke-linejoin: round; stroke-width: 13.769px;"/>
                <g>
                  <path d="M459.726,200.864c-3.107-.571-5.141-3.563-4.569-6.649h0c.571-3.106,3.564-5.141,6.671-4.569h0c3.085.571,5.141,3.565,4.547,6.671h0c-.503,2.742-2.902,4.661-5.598,4.661h0c-.342,0-.708-.045-1.051-.114ZM461.852,189.579c-2.947-1.142-4.41-4.433-3.29-7.381h0c1.119-2.947,4.432-4.433,7.38-3.291h0c2.947,1.12,4.409,4.411,3.29,7.358h0c-.869,2.285-3.039,3.677-5.347,3.677h0c-.663,0-1.37-.114-2.033-.364ZM465.987,178.84c-2.72-1.6-3.633-5.096-2.034-7.813h0c1.599-2.72,5.095-3.632,7.813-2.035h0c2.719,1.6,3.632,5.096,2.034,7.813h0c-1.074,1.805-2.971,2.811-4.935,2.811h0c-.983,0-1.988-.252-2.878-.776ZM471.835,168.947c-2.467-1.988-2.832-5.598-.844-8.043h0c1.987-2.443,5.575-2.831,8.019-.846h0c2.468,1.988,2.834,5.598.846,8.043h0c-1.12,1.394-2.764,2.124-4.432,2.124h0c-1.257,0-2.536-.433-3.588-1.278ZM479.078,160.036c-2.171-2.307-2.057-5.917.228-8.088h0c2.308-2.146,5.918-2.055,8.088.252h0c2.147,2.285,2.057,5.917-.251,8.066h0c-1.097,1.051-2.513,1.553-3.907,1.553h0c-1.531,0-3.039-.593-4.158-1.783ZM487.554,152.292c-2.011-2.423-1.691-6.031.754-8.043h0c2.421-2.01,6.031-1.667,8.041.754h0c2.011,2.445,1.669,6.033-.753,8.043h0c-1.074.89-2.376,1.325-3.656,1.325h0c-1.645,0-3.268-.71-4.386-2.079ZM496.373,144.98c-2.01-2.445-1.668-6.031.754-8.041h0c2.444-2.012,6.032-1.691,8.042.754h0c2.01,2.421,1.69,6.031-.754,8.041h0c-1.051.89-2.354,1.303-3.632,1.303h0c-1.645,0-3.268-.687-4.41-2.057ZM505.215,137.669c-2.011-2.443-1.668-6.031.754-8.063h0c2.421-2.012,6.031-1.669,8.042.752h0c2.01,2.445,1.668,6.033-.754,8.066h0c-1.074.868-2.354,1.303-3.633,1.303h0c-1.644,0-3.266-.71-4.409-2.057ZM514.056,130.335c-2.01-2.421-1.69-6.031.754-8.041h0c2.422-2.01,6.032-1.669,8.042.754h0c2.011,2.421,1.668,6.031-.754,8.041h0c-1.073.892-2.353,1.325-3.655,1.325h0c-1.622,0-3.268-.707-4.388-2.079ZM522.875,123.024c-2.01-2.443-1.668-6.031.754-8.041h0c2.444-2.033,6.031-1.691,8.042.754h0c2.033,2.421,1.69,6.031-.754,8.041h0c-1.051.868-2.354,1.303-3.633,1.303h0c-1.644,0-3.266-.707-4.409-2.057ZM531.717,115.69c-2.011-2.421-1.669-6.031.753-8.041h0c2.445-2.01,6.032-1.669,8.042.754h0c2.011,2.421,1.691,6.031-.754,8.041h0c-1.051.892-2.353,1.325-3.632,1.325h0c-1.644,0-3.266-.707-4.409-2.079ZM540.558,108.381c-2.01-2.423-1.69-6.033.754-8.043h0c2.422-2.01,6.032-1.691,8.042.754h0c2.01,2.421,1.668,6.031-.754,8.043h0c-1.073.89-2.353,1.301-3.656,1.301h0c-1.622,0-3.266-.685-4.386-2.055ZM549.4,101.047c-2.034-2.423-1.69-6.033.754-8.043h0c2.422-2.01,6.032-1.667,8.042.754h0c2.01,2.445,1.668,6.031-.754,8.041h0c-1.074.892-2.376,1.325-3.656,1.325h0c-1.644,0-3.266-.707-4.386-2.077ZM558.219,93.736c-2.01-2.423-1.668-6.033.754-8.043h0c2.445-2.01,6.032-1.667,8.042.754h0c2.01,2.423,1.691,6.033-.754,8.043h0c-1.051.89-2.353,1.301-3.632,1.301h0c-1.645,0-3.268-.685-4.41-2.055ZM567.13,86.493c-2.079-2.376-1.828-5.986.548-8.066h0c2.376-2.079,5.986-1.827,8.042.549h0c2.079,2.376,1.851,5.986-.525,8.063h0c-1.097.937-2.422,1.417-3.77,1.417h0c-1.576,0-3.153-.663-4.295-1.963ZM575.766,78.93c-2.262-2.193-2.33-5.803-.16-8.063h0c2.193-2.285,5.803-2.354,8.088-.161h0c2.261,2.193,2.353,5.803.16,8.088h0c-1.12,1.165-2.627,1.736-4.113,1.736h0c-1.439,0-2.856-.524-3.975-1.6ZM583.739,70.659c-2.467-1.988-2.832-5.573-.844-8.019h0c1.965-2.468,5.575-2.834,8.019-.846h0c2.445,1.966,2.834,5.576.846,8.019h0c-1.12,1.394-2.764,2.126-4.432,2.126h0c-1.28,0-2.536-.435-3.588-1.281ZM590.959,61.728c-2.627-1.76-3.312-5.301-1.531-7.929h0c1.759-2.604,5.3-3.289,7.928-1.531h0c2.604,1.76,3.29,5.324,1.531,7.927h0c-1.12,1.647-2.902,2.514-4.752,2.514h0c-1.097,0-2.193-.321-3.176-.982ZM597.379,52.223c-2.764-1.531-3.747-5.004-2.217-7.769h0c1.554-2.764,5.027-3.746,7.769-2.216h0c2.764,1.553,3.746,5.027,2.216,7.767v.025c-1.051,1.872-2.993,2.923-5.003,2.923h0c-.937,0-1.896-.228-2.764-.73ZM602.908,42.169c-2.856-1.325-4.112-4.705-2.787-7.586h0c1.324-2.856,4.729-4.112,7.585-2.787h0c2.856,1.325,4.112,4.73,2.788,7.586h0c-.961,2.079-3.017,3.313-5.186,3.313h0c-.8,0-1.622-.161-2.4-.527Z" style="fill: #8dd44c;"/>
                  <path d="M610.15,32.232c-1.507,0-2.993-.596-4.044-1.669-.273-.25-.502-.549-.707-.868-.206-.297-.389-.64-.527-.982-.136-.344-.251-.71-.319-1.075-.091-.364-.115-.73-.115-1.118,0-.366.023-.732.115-1.098.068-.366.16-.732.319-1.073.137-.344.32-.685.527-.982.205-.321.434-.618.707-.87.252-.272.549-.502.869-.707.297-.205.639-.388.982-.527.342-.158.708-.25,1.074-.341.731-.138,1.485-.138,2.216,0,.366.091.732.183,1.074.341.342.138.685.321.983.527.319.205.617.435.868.707.274.252.502.549.708.87.205.297.388.638.525.982.16.341.251.707.342,1.073.068.366.091.732.091,1.098,0,.388-.023.754-.091,1.118-.091.366-.183.732-.342,1.075-.137.341-.32.685-.525.982-.206.319-.434.618-.708.868-1.051,1.073-2.536,1.669-4.022,1.669Z" style="fill: #8dd44c;"/>
                </g>
              </g>
              <path d="M610.14-97.351l-5.372,11.644c-8.36,18.119-20.675,34.133-36.041,46.864l-81.021,67.13c-16.721,13.828-26.401,34.394-26.401,56.092v-35.484c0-21.698,9.68-42.265,26.401-56.092l81.021-67.13c15.365-12.731,27.681-28.745,36.041-46.864l5.372-11.644v35.484Z" style="fill: #f6ffff; fill-rule: evenodd; stroke: #f6ffff; stroke-miterlimit: 10; stroke-width: 2.326px;"/>
              <path d="M610.14,73.642l-5.372,11.644c-8.36,18.119-20.675,34.133-36.041,46.864l-81.021,67.13c-16.721,13.828-26.401,34.394-26.401,56.092v-35.484c0-21.698,9.68-42.265,26.401-56.092l81.021-67.13c15.365-12.731,27.681-28.745,36.041-46.864l5.372-11.644v35.484Z" style="fill: #f6ffff; fill-rule: evenodd; stroke: #f6ffff; stroke-miterlimit: 10; stroke-width: 2.326px;"/>
              <polygon points="602.297 -275.528 602.297 439.101 613.746 439.101 613.746 -281.585 602.297 -275.528" style="fill: #f6ffff; stroke: #f6ffff; stroke-miterlimit: 10; stroke-width: 2.326px;"/>
            </g>
          </g>
        </g>
        <path d="M1522.572-136.737l-63.15-63.15c-4.975-4.975-11.722-7.77-18.757-7.77h-30.492c-28.099,0-50.878-22.779-50.878-50.878v-238.568c0-12.753-10.338-23.091-23.091-23.091h-184.35c-12.701,0-23.018,10.258-23.091,22.959l-1.423,248.128c-.076,13.304,5.138,26.094,14.494,35.553l188.902,190.98c4.975,4.975,7.769,11.722,7.769,18.757v102.907c0,6.937-2.615,13.7-7.567,18.557-16.914,16.589-5.311,45.241,18.284,45.482l106.272,1.084c7.129.073,13.987-2.727,19.028-7.768l48.049-48.049c4.975-4.975,7.769-11.722,7.769-18.757V-117.98c0-7.035-2.795-13.782-7.769-18.757Z" style="fill: #4aa280; fill-rule: evenodd; stroke: #4aa280; stroke-dasharray: 0 10; stroke-linecap: round; stroke-linejoin: round; stroke-width: 10px;"/>
        <g>
          <path d="M769.461,41.173c0-2.293,1.859-4.151,4.152-4.151h11.091c2.293,0,4.152,1.859,4.152,4.151v10.767c0,.824.668,1.492,1.492,1.492h-22.378c.824,0,1.492-.668,1.492-1.492v-10.767Z" style="fill: #102120; fill-rule: evenodd;"/>
          <path d="M787.364,78.795c0-.791-.315-1.55-.874-2.11-.559-.56-1.319-.874-2.11-.874h-9.697c-.791,0-1.55.314-2.11.874-.559.56-.874,1.319-.874,2.11s.315,1.55.874,2.11c.559.56,1.319.874,2.11.874h9.697c.791,0,1.55-.314,2.11-.874.559-.56.874-1.319.874-2.11Z" style="fill: #a1cac6; fill-rule: evenodd;"/>
          <rect x="776.92" y="48.957" width="4.421" height="4.476" style="fill: #7b3262;"/>
          <rect x="770.953" y="40.005" width="16.411" height="10.443" rx="2.542" ry="2.542" style="fill: #993576;"/>
          <path d="M779.904,38.513h-8.951v4.476h5.592c1.856,0,3.36-1.504,3.36-3.36v-1.116Z" style="fill: #102120; fill-rule: evenodd;"/>
          <path d="M787.364,38.513h-7.459v1.116c0,1.856,1.504,3.36,3.36,3.36h4.1v-4.476Z" style="fill: #102120; fill-rule: evenodd;"/>
          <path d="M775.429,53.454c0-.4-.16-.783-.445-1.065-.283-.282-.668-.438-1.068-.434h-.002c-.843.008-1.523.694-1.523,1.537v11.851c0,.402.161.788.445,1.073.285.285.671.444,1.073.444h.003c.838,0,1.517-.679,1.517-1.517v-11.888Z" style="fill: #993576; fill-rule: evenodd;"/>
          <rect x="773.937" y="51.94" width="10.443" height="11.935" style="fill: #dbfd59;"/>
          <rect x="773.937" y="63.876" width="10.417" height="2.984" style="fill: #ef9240;"/>
          <rect x="773.937" y="65.368" width="4.476" height="11.935" style="fill: #ef9240;"/>
          <rect x="773.937" y="75.811" width="4.476" height="4.476" style="fill: #22316e;"/>
          <rect x="779.904" y="72.827" width="4.476" height="4.476" style="fill: #22316e;"/>
          <rect x="779.904" y="65.368" width="4.476" height="7.459" style="fill: #ef9240;"/>
          <path d="M774.197,44.426h.986c.136,0,.246.11.246.246v2.546c0,.136-.111.247-.247.247h-.984c-.137,0-.248-.111-.248-.248v-2.544c0-.136.111-.247.247-.247Z" style="fill: #0d1c1c;"/>
          <path d="M783.135,44.426h.984c.137,0,.248.111.248.248v2.544c0,.136-.111.247-.247.247h-.986c-.136,0-.246-.11-.246-.246v-2.546c0-.136.111-.247.247-.247Z" style="fill: #0d1c1c;"/>
          <path d="M769.249,43.412c-1.529,0-2.772,1.242-2.772,2.773s1.243,2.773,2.772,2.773,2.773-1.242,2.773-2.773-1.243-2.773-2.773-2.773Z" style="fill: #993576; fill-rule: evenodd;"/>
          <path d="M789.067,43.412c-1.531,0-2.773,1.242-2.773,2.773s1.243,2.773,2.773,2.773,2.772-1.242,2.772-2.773-1.243-2.773-2.772-2.773Z" style="fill: #993576; fill-rule: evenodd;"/>
          <path d="M785.872,53.454c0-.4-.16-.783-.445-1.065-.283-.282-.668-.438-1.068-.434h-.002c-.843.008-1.523.694-1.523,1.537v11.851c0,.402.161.788.445,1.073.285.285.671.444,1.073.444h.003c.838,0,1.517-.679,1.517-1.517v-11.888Z" style="fill: #993576; fill-rule: evenodd;"/>
        </g>
        <g>
          <path d="M285.202,100.328c-.197-.788.282-1.587,1.071-1.785l7.089-1.755c.696-.172,1.4.251,1.574.947l.083.332c.175.698-.251,1.405-.949,1.578l-7.083,1.753c-.788.197-1.587-.282-1.785-1.071h0Z" style="fill: #de5b8d; fill-rule: evenodd;"/>
          <rect x="263.817" y="121.839" width="42.903" height="4.271" rx="2.136" ry="2.136" style="fill: #c2e6e4;"/>
          <g>
            <g>
              <path d="M277.485,121.81s-2.42-.009-4.628,0c-.067,0-.135.005-.2.019-.786.166-1.269.826-1.266,1.534v.089c.002.311.254.562.565.562l4.314-.005c.235,0,.445-.146.527-.366l.688-1.832Z" style="fill: #4c187e; fill-rule: evenodd;"/>
              <g>
                <path d="M280.08,106.016l-3.465,7.963c-.412.948.048,2.049,1.012,2.421h0c.909.351,1.932-.078,2.321-.971l3.462-7.965c.412-.947-.048-2.046-1.012-2.417h0c-.908-.35-1.93.077-2.318.969Z" style="fill: #f0c844; fill-rule: evenodd;"/>
                <path d="M276.545,114.135l-2.877,7.671,3.818.004,2.443-6.359c.374-.962-.129-2.042-1.106-2.376h0c-.921-.314-1.925.153-2.278,1.06Z" style="fill: #f0c844; fill-rule: evenodd;"/>
              </g>
            </g>
            <g>
              <path d="M288.246,121.81s-2.061-.01-4.295,0c-.845.129-1.369.814-1.366,1.552v.256c.002.218.179.395.398.395l5.225-.006c.25,0,.438-.23.388-.475l-.35-1.722Z" style="fill: #4c187e; fill-rule: evenodd;"/>
              <g>
                <path d="M283.335,109.077l-.513,5.456c-.09,1.03.696,1.927,1.728,1.974h0c.973.044,1.808-.687,1.893-1.657l.51-5.456c.09-1.028-.695-1.925-1.726-1.971h0c-.972-.044-1.805.686-1.89,1.655Z" style="fill: #f0c844; fill-rule: evenodd;"/>
                <path d="M282.891,115.402l1.65,6.407,3.705.002-1.829-7.275c-.247-1.002-1.279-1.598-2.27-1.309h0c-.934.272-1.488,1.231-1.256,2.176Z" style="fill: #f0c844; fill-rule: evenodd;"/>
              </g>
            </g>
            <g>
              <path d="M275.39,104.721c-.717-.143-1.183-.841-1.04-1.558l1.179-5.752,2.612.284s-1.194,5.985-1.194,5.985c-.143.717-.841,1.183-1.558,1.04h0Z" style="fill: #f0c844; fill-rule: evenodd;"/>
              <path d="M274.95,102.332c-1.869,1.225-4.272,2.801-5.711,3.744-.326.214-.416.648-.202.974.21.321.47.717.68,1.038.214.326.65.415.977.202l5.708-3.742c.612-.401.783-1.222.382-1.834h0c-.401-.612-1.221-.783-1.833-.382Z" style="fill: #f0c844; fill-rule: evenodd;"/>
              <g>
                <path d="M274.762,100.13l3.768.82,1.053-5.272s-1.534,0-2.71,0c-.767,0-1.424.551-1.557,1.306-.231,1.313-.554,3.145-.554,3.145Z" style="fill: #f08371; fill-rule: evenodd;"/>
                <polygon points="274.762 100.13 278.53 100.95 278.795 99.623 274.984 98.869 274.762 100.13" style="fill: #fff; fill-rule: evenodd;"/>
              </g>
            </g>
            <polygon points="279.396 96.104 283.163 96.104 282.516 93.66 278.748 93.66 279.396 96.104" style="fill: #e9a53a; fill-rule: evenodd;"/>
            <polygon points="288.146 105.888 279.529 105.888 276.855 95.678 284.954 95.678 288.146 105.888" style="fill: #f08371; fill-rule: evenodd;"/>
            <g>
              <rect x="271.907" y="82.627" width="15.709" height="11.661" rx="2.915" ry="2.915" transform="translate(-.226 .719)" style="fill: #f0c844;"/>
              <rect x="273.595" y="86.806" width="2.335" height="4.243" rx=".343" ry=".343" transform="translate(-.189 .587)" style="fill: #0d1c1c;"/>
              <path d="M290.521,82.669c-1.023-2.614-3.471-4.179-6.077-4.172l-11.091.028c-1.625.004-2.939,1.325-2.935,2.95v.011c.002.633.517,1.144,1.149,1.143,1.126-.002.629.001,2.644-.002.724-.001,1.367.467,1.584,1.157.148.472.309.985.462,1.474.405,1.294,1.605,2.172,2.961,2.168l3.485-.011.014,5.533c.002.905.738,1.637,1.643,1.634l1.632-.002c2.745-.007,4.965-2.238,4.958-4.983l-.012-4.559c-.002-.807-.122-1.617-.416-2.369Z" style="fill: #abb9e2; fill-rule: evenodd;"/>
              <circle cx="290.772" cy="90.917" r="3.666" style="fill: #abb9e2;"/>
              <circle cx="272.314" cy="81.422" r="4.193" style="fill: #abb9e2;"/>
              <g>
                <ellipse cx="282.814" cy="88.043" rx="3.485" ry="3.514" transform="translate(-.225 .726)" style="fill: #f0c844;"/>
                <path d="M282.811,86.872c-.641.002-1.16.528-1.159,1.174.002.646.524,1.17,1.165,1.168.641-.002,1.16-.528,1.159-1.174-.002-.646-.524-1.17-1.165-1.168Z" style="fill: #e9a53a; fill-rule: evenodd;"/>
              </g>
            </g>
            <path d="M287.283,113.938h-11.408l3.654-8.049h8.617v1.465c0,.701-.054,1.4-.162,2.093l-.7,4.491Z" style="fill: #86308a; fill-rule: evenodd;"/>
            <polygon points="279.529 105.888 279.191 104.644 287.707 104.644 288.146 105.888 279.529 105.888" style="fill: #fff; fill-rule: evenodd;"/>
            <g>
              <path d="M288.444,105.425c.72-.132,1.196-.821,1.065-1.541l-1.304-7.133s-2.587.578-2.587.578l1.285,7.031c.132.72.821,1.196,1.541,1.065h0Z" style="fill: #f0c844; fill-rule: evenodd;"/>
              <g>
                <path d="M289.209,100.13l-3.796.832-1.055-5.284s1.564,0,2.741,0c.767,0,1.424.551,1.557,1.306.231,1.313.554,3.145.554,3.145Z" style="fill: #f08371; fill-rule: evenodd;"/>
                <polygon points="289.209 100.13 285.413 100.962 285.147 99.628 288.987 98.869 289.209 100.13" style="fill: #fff; fill-rule: evenodd;"/>
              </g>
              <path d="M288.741,102.916c-2.035-.924-4.652-2.111-6.219-2.822-.355-.161-.77-.005-.931.35-.159.349-.355.781-.513,1.13-.161.355-.003.772.352.933l6.215,2.821c.666.302,1.451.007,1.754-.659h0c.302-.666.008-1.451-.658-1.753Z" style="fill: #f0c844; fill-rule: evenodd;"/>
            </g>
            <g>
              <path d="M281.063,95.678c0,.957-.76,1.733-1.698,1.733s-1.698-.776-1.698-1.733h3.396Z" style="fill: #fff; fill-rule: evenodd;"/>
              <path d="M284.459,95.678c0,.957-.76,1.733-1.698,1.733s-1.698-.776-1.698-1.733h3.396Z" style="fill: #fff; fill-rule: evenodd;"/>
            </g>
            <path d="M271.685,108.274l-1.408-.489c-.069-.024-.142-.036-.215-.036h-.569c-.363,0-.656-.294-.656-.656v-.378c0-.378.306-.684.684-.684h.495c.073,0,.146.012.215.036l1.885.654c.264.092.441.341.441.62v.314c0,.451-.445.768-.872.62Z" style="fill: #683818; fill-rule: evenodd;"/>
            <rect x="260.52" y="114.346" width="17.944" height="1.313" rx=".656" ry=".656" transform="translate(384.495 -154.49) rotate(90)" style="fill: #683818;"/>
          </g>
          <g>
            <rect x="293.611" y="94.326" width="3.178" height="2.147" transform="translate(590.399 190.798) rotate(-180)" style="fill: #bd3f6f;"/>
            <g>
              <path d="M291.67,114.72l-.918,7.963,3.244.356.913-7.934c.109-.921-.57-1.748-1.495-1.818h0c-.871-.067-1.64.565-1.744,1.433Z" style="fill: #bd3f6f; fill-rule: evenodd;"/>
              <path d="M293.997,123.038s-2.754-.301-4.42-.483c-.315-.034-.631.058-.879.256s-.406.487-.44.803l-.055.5,5.608.613.185-1.689Z" style="fill: #418e73; fill-rule: evenodd;"/>
              <polygon points="292.258 105.984 295.868 106.258 296.063 107.008 294.909 115.105 291.645 115.031 292.258 105.984" style="fill: #bd3f6f; fill-rule: evenodd;"/>
            </g>
            <g>
              <path d="M293.611,109.167l.205,7.465c-.049.927.684,1.709,1.613,1.719h0c.875.009,1.602-.673,1.648-1.547l.5-9.49-3.965,1.853Z" style="fill: #de5b8d; fill-rule: evenodd;"/>
              <path d="M294.743,118.209l7.486,3.725,1.484-2.938-7.517-3.707c-.83-.413-1.838-.051-2.216.796h0c-.356.798-.02,1.735.762,2.125Z" style="fill: #de5b8d; fill-rule: evenodd;"/>
              <path d="M303.359,118.818s-1.229,2.483-1.972,3.985c-.141.284-.163.613-.061.913s.318.548.603.689l.451.223,2.502-5.056-1.523-.754Z" style="fill: #418e73; fill-rule: evenodd;"/>
            </g>
            <path d="M290.108,113.969h8.949s-.985-16.393-.985-16.393c-.029-.689-.596-1.232-1.285-1.232h-2.313c-1.553,0-2.85,1.183-2.993,2.729l-1.374,14.897Z" style="fill: #95ce64; fill-rule: evenodd;"/>
            <polygon points="290.108 113.969 290.914 105.005 298.515 105.005 299.057 113.969 290.108 113.969" style="fill: #418e73; fill-rule: evenodd;"/>
            <g>
              <path d="M300.263,105.792c-.744.328-1.612-.01-1.94-.753l-2.928-6.69c-.288-.657.011-1.423.667-1.712l.313-.138c.658-.29,1.427.01,1.716.669l2.926,6.685c.328.744-.01,1.612-.753,1.94h0Z" style="fill: #de5b8d; fill-rule: evenodd;"/>
              <path d="M298.792,103.294c-1.991,1.483-4.552,3.389-6.085,4.531-.348.259-.418.746-.16,1.094.255.342.569.764.823,1.106.259.348.749.418,1.097.159l6.082-4.529c.652-.485.787-1.407.301-2.059h0c-.485-.652-1.406-.787-2.058-.302Z" style="fill: #de5b8d; fill-rule: evenodd;"/>
            </g>
            <g>
              <g>
                <path d="M285.523,82.432c-.006-1.744,1.403-3.163,3.147-3.168l12.35-.043c1.744-.006,3.163,1.403,3.168,3.147l.016,7.989c.009,2.567-2.065,4.654-4.632,4.663l-10.86.037c-1.744.006-3.163-1.403-3.168-3.147l-.021-9.478Z" style="fill: #de5b8d; fill-rule: evenodd;"/>
                <path d="M287.697,87.046h1.593c.205,0,.371.166.371.371v3.514c0,.206-.167.373-.373.373h-1.59c-.206,0-.373-.167-.373-.373v-3.511c0-.206.167-.373.373-.373Z" style="fill: #0d1c1c;"/>
                <path d="M306.228,82.458c-1.11-2.832-3.763-4.525-6.586-4.515h-14.851s.009,2.096.009,2.096c.006,1.425.801,2.73,2.065,3.388l6.088,3.151v13.243s13.768-5.694,13.768-5.694l-.04-9.104c-.003-.874-.133-1.752-.452-2.566Z" style="fill: #0d1c1c; fill-rule: evenodd;"/>
                <path d="M297.627,85.202l.024,7.2c1.971-.007,3.566-1.625,3.559-3.612-.007-1.987-1.612-3.595-3.583-3.588Z" style="fill: #de5b8d; fill-rule: evenodd;"/>
                <path d="M297.635,87.602l.008,2.4c.657-.002,1.189-.542,1.186-1.204-.002-.662-.537-1.198-1.194-1.196Z" style="fill: #bd3f6f; fill-rule: evenodd;"/>
              </g>
              <rect x="290.878" y="85.718" width="4.46" height="1.721" rx=".368" ry=".368" transform="translate(586.595 171.863) rotate(179.747)" style="fill: #95ce64;"/>
            </g>
            <polygon points="303.359 118.818 302.018 118.16 300.591 121.119 301.898 121.769 303.359 118.818" style="fill: #95ce64; fill-rule: evenodd;"/>
            <polygon points="293.997 123.038 294.158 121.631 290.917 121.253 290.752 122.683 293.997 123.038" style="fill: #95ce64; fill-rule: evenodd;"/>
          </g>
        </g>
        <g>
          <rect x="1375.232" y="-10.118" width="8.056" height="50.616" transform="translate(2758.5202 30.3811) rotate(-180)" style="fill: #dcf8f1;"/>
          <rect x="1457.81" y="-8.105" width="8.056" height="48.604" transform="translate(2923.676 32.3935) rotate(-180)" style="fill: #dcf8f1;"/>
          <rect x="1413.523" y="-58.109" width="8.056" height="98.607" style="fill: #dcf8f1;"/>
          <ellipse cx="1461.838" cy="-8.105" rx="26.183" ry="26.161" style="fill: #c7ebf7;"/>
          <g>
            <ellipse cx="1461.838" cy="-8.105" rx="20.141" ry="20.124" style="fill: #49a198;"/>
            <g style="clip-path: url(#clippath-14);">
              <path d="M1478.805,4.366c.482-.724.747-1.577.747-2.459h0c0-1.74-1.022-3.375-2.735-4.103-.569-.242-1.192-.337-1.812-.337h-12.34c-2.222,0-4.34-.943-5.826-2.593-1.709-1.897-3.321-3.687-4.546-5.047-1.439-1.597-3.487-2.508-5.637-2.508h-3.287s-6.193,0-11.844,0h-3.249c-2.358,0-4.566,1.367-5.438,3.557-1.192,2.992.256,6.337,3.294,7.505.656.253,1.362.355,2.064.355h1.344s6.424,19.273,6.424,19.273h30.844s15.378-12.983,15.378-12.983l-3.384-.659Z" style="fill: #a7cc40; fill-rule: evenodd;"/>
            </g>
          </g>
          <ellipse cx="1379.26" cy="-10.118" rx="20.141" ry="20.124" style="fill: #c7ebf7;"/>
          <g>
            <ellipse cx="1379.26" cy="-10.118" rx="14.099" ry="14.087" style="fill: #6fbfbc;"/>
            <g style="clip-path: url(#clippath-15);">
              <path d="M1391.137-1.388c.338-.506.523-1.104.523-1.722h0c0-1.218-.715-2.362-1.914-2.872-.399-.169-.835-.236-1.268-.236h-8.638c-1.555,0-3.038-.661-4.078-1.815-1.197-1.328-2.325-2.581-3.183-3.533-1.007-1.118-2.441-1.755-3.946-1.755h-2.301s-4.335,0-8.291,0h-2.274c-1.651,0-3.196.957-3.807,2.489-.834,2.094.18,4.436,2.306,5.254.459.177.953.248,1.445.248h.941s4.497,13.491,4.497,13.491h21.591s10.765-9.088,10.765-9.088l-2.369-.461Z" style="fill: #a7cc40; fill-rule: evenodd;"/>
            </g>
          </g>
          <line x1="1488.021" y1="41.505" x2="1365.161" y2="41.505" style="fill: #4aa280; stroke: #4aa280; stroke-dasharray: 0 10; stroke-linecap: round; stroke-linejoin: round; stroke-width: 10px;"/>
        </g>
        <g>
          <g>
            <path d="M1466.897,73.392c0-2.959-2.39-5.347-5.352-5.347s-5.352,2.388-5.352,5.347c0-2.959-2.39-5.347-5.352-5.347s-5.352,2.388-5.352,5.347c0-2.959-2.39-5.347-5.352-5.347s-5.352,2.388-5.352,5.347c0-2.959-2.39-5.347-5.352-5.347s-5.352,2.388-5.352,5.347c0-2.959-2.39-5.347-5.352-5.347s-5.352,2.388-5.352,5.347v9.913h53.519v-9.913h-.001Z" style="fill: #8dd44c;"/>
            <rect x="1381.797" y="80.184" width="85.101" height="58.292" style="fill: #fff;"/>
            <rect x="1424.083" y="80.184" width="10.704" height="58.292" style="fill: #e9f1f6; mix-blend-mode: multiply; opacity: .5;"/>
            <rect x="1461.545" y="80.184" width="5.353" height="58.292" style="fill: #e9f1f6; mix-blend-mode: multiply; opacity: .5;"/>
            <g>
              <path d="M1429.17,138.476h-78.954V61.332c0-10.46,4.145-20.492,11.528-27.889,7.421-7.397,17.448-11.552,27.91-11.552h.039c10.462,0,20.489,4.155,27.91,11.552,7.383,7.397,11.566,17.428,11.566,27.889v77.144Z" style="fill: #fff; fill-rule: evenodd;"/>
              <g>
                <rect x="1350.215" y="101.003" width="15.791" height="18.737" style="fill: #b3efe3;"/>
                <rect x="1350.215" y="64.407" width="15.791" height="15.777" style="fill: #b3efe3;"/>
                <rect x="1377.208" y="101.003" width="24.967" height="37.473" style="fill: #b3efe3;"/>
                <rect x="1377.208" y="64.407" width="24.967" height="15.777" style="fill: #b3efe3;"/>
                <rect x="1413.378" y="101.003" width="15.791" height="18.737" style="fill: #b3efe3;"/>
                <rect x="1413.378" y="64.407" width="15.791" height="15.777" style="fill: #b3efe3;"/>
              </g>
              <g style="opacity: .35;">
                <rect x="1350.216" y="64.407" width="15.791" height="6.053" style="fill: #49a2e0;"/>
                <rect x="1377.209" y="64.407" width="24.967" height="6.053" style="fill: #49a2e0;"/>
                <rect x="1413.379" y="64.407" width="15.791" height="6.053" style="fill: #49a2e0;"/>
              </g>
              <g style="opacity: .35;">
                <rect x="1350.216" y="101.003" width="15.791" height="6.053" style="fill: #49a2e0;"/>
                <rect x="1377.209" y="101.003" width="24.967" height="6.053" style="fill: #49a2e0;"/>
                <rect x="1413.379" y="101.003" width="15.791" height="6.053" style="fill: #49a2e0;"/>
              </g>
            </g>
            <rect x="1434.786" y="101.003" width="26.758" height="32.161" style="fill: #b3efe3;"/>
            <rect x="1434.787" y="101.003" width="26.758" height="6.053" style="fill: #49a2e0;"/>
            <rect x="1429.17" y="80.279" width="37.728" height="6.053" style="fill: #e9f1f6; mix-blend-mode: multiply; opacity: .5;"/>
          </g>
          <g>
            <line x1="1466.898" y1="138.476" x2="1466.898" y2="138.476" style="fill: none; stroke: #4aa280; stroke-linecap: round; stroke-linejoin: round; stroke-width: 10px;"/>
            <line x1="1457.088" y1="138.476" x2="1354.086" y2="138.476" style="fill: none; stroke: #4aa280; stroke-dasharray: 0 9.81; stroke-linecap: round; stroke-linejoin: round; stroke-width: 10px;"/>
            <line x1="1349.182" y1="138.476" x2="1349.182" y2="138.476" style="fill: none; stroke: #4aa280; stroke-linecap: round; stroke-linejoin: round; stroke-width: 10px;"/>
          </g>
        </g>
      </g>
    </g>
  </g>
</svg>