<?xml version="1.0" encoding="UTF-8"?>
<svg id="Details" xmlns="http://www.w3.org/2000/svg" width="1500" height="145" xmlns:xlink="http://www.w3.org/1999/xlink" version="1.1" viewBox="0 0 1500 145">
  <!-- Generator: Adobe Illustrator 30.5.1, SVG Export Plug-In . SVG Version: 2.1.4 Build 3)  -->
  <defs>
    <clipPath id="clippath">
      <rect width="1500" height="145" style="fill: none;"/>
    </clipPath>
    <clipPath id="clippath-1">
      <path d="M986.31,95.83s9.446-3.049,13.117-4.234c.201-.065.421.007.544.179.124.171.122.403-.003.573-1.147,1.56-3.109,4.23-4.111,5.593-1.329,1.808-1.069,4.328.601,5.827,0,0,0,0,0,0l-10.148-7.938Z" style="clip-rule: evenodd; fill: none;"/>
    </clipPath>
    <clipPath id="clippath-2">
      <path d="M1033.689,132.5s10.358-1.723,15.452-2.651c.322-.059.643.107.781.404.138.297.059.649-.193.858-2.865,2.372-7.862,6.509-10.038,8.31-.698.577-1.242,1.318-1.585,2.156-1.07,2.614-3.527,8.618-4.936,12.06-.124.303-.437.484-.761.441-.324-.043-.578-.3-.619-.625-.634-5.139-1.774-15.958-1.774-15.958l1.301-2.826,2.37-2.169Z" style="clip-rule: evenodd; fill: none;"/>
    </clipPath>
    <clipPath id="clippath-3">
      <path d="M506.355,118.073h22.918s6.211,69.687,6.211,69.687c.344,3.141-2.118,5.885-5.28,5.885h-24.892c-3.167,0-5.63-2.751-5.279-5.895l6.322-69.676Z" style="fill: none;"/>
    </clipPath>
    <clipPath id="clippath-4">
      <path d="M517.758,116.013c0,8.104-3.221,15.878-8.958,21.61-5.737,5.732-13.517,8.95-21.632,8.95-15.366,0-30.766,0-30.766,0,0,0,0-9.456,0-20.203,0-8.107,3.221-15.881,8.958-21.613,5.737-5.728,13.517-8.95,21.632-8.95,15.366,0,30.766,0,30.766,0,0,0,0,9.456,0,20.207Z" style="clip-rule: evenodd; fill: none;"/>
    </clipPath>
    <clipPath id="clippath-5">
      <path d="M517.758,116.013c0,8.104,3.221,15.878,8.958,21.61,5.737,5.732,13.517,8.95,21.632,8.95,15.366,0,30.766,0,30.766,0,0,0,0-9.456,0-20.203,0-8.107-3.221-15.881-8.958-21.613-5.737-5.728-13.517-8.95-21.632-8.95-15.366,0-30.766,0-30.766,0,0,0,0,9.456,0,20.207Z" style="clip-rule: evenodd; fill: none;"/>
    </clipPath>
    <clipPath id="clippath-7">
      <path d="M517.741,146.573l18.376-13.381c10.15-7.391,11.297-22.091,2.416-30.964l-6.428-6.423h-28.729s-6.428,6.423-6.428,6.423c-8.881,8.873-7.734,23.573,2.416,30.964l18.376,13.381Z" style="clip-rule: evenodd; fill: none;"/>
    </clipPath>
    <clipPath id="clippath-8">
      <path d="M1279.332,25.569h22.918s6.211,69.687,6.211,69.687c.344,3.141-2.118,5.885-5.28,5.885h-24.892c-3.167,0-5.63-2.751-5.279-5.895l6.322-69.676Z" style="fill: none;"/>
    </clipPath>
    <clipPath id="clippath-9">
      <path d="M1290.735,23.509c0,8.104-3.221,15.878-8.958,21.61-5.737,5.732-13.517,8.95-21.632,8.95-15.366,0-30.766,0-30.766,0,0,0,0-9.456,0-20.203,0-8.107,3.221-15.881,8.958-21.613,5.737-5.728,13.517-8.95,21.632-8.95,15.366,0,30.766,0,30.766,0,0,0,0,9.456,0,20.207Z" style="clip-rule: evenodd; fill: none;"/>
    </clipPath>
    <clipPath id="clippath-10">
      <path d="M1290.735,23.509c0,8.104,3.221,15.878,8.958,21.61,5.737,5.732,13.517,8.95,21.632,8.95,15.366,0,30.766,0,30.766,0,0,0,0-9.456,0-20.203,0-8.107-3.221-15.881-8.958-21.613-5.737-5.728-13.517-8.95-21.632-8.95-15.366,0-30.766,0-30.766,0,0,0,0,9.456,0,20.207Z" style="clip-rule: evenodd; fill: none;"/>
    </clipPath>
    <clipPath id="clippath-12">
      <path d="M1290.718,54.069l18.376-13.381c10.15-7.391,11.297-22.091,2.416-30.964l-6.428-6.423h-28.729s-6.428,6.423-6.428,6.423c-8.881,8.873-7.734,23.573,2.416,30.964l18.376,13.381Z" style="clip-rule: evenodd; fill: none;"/>
    </clipPath>
    <clipPath id="clippath-13">
      <path d="M1362.353,80.495h16.963s4.597,41.568,4.597,41.568c.255,2.325-1.567,4.356-3.908,4.356h-18.424c-2.344,0-4.167-2.036-3.907-4.363l4.679-41.56Z" style="fill: none;"/>
    </clipPath>
    <clipPath id="clippath-14">
      <path d="M1370.793,78.971c0,5.998-2.384,11.752-6.63,15.994-4.246,4.242-10.005,6.624-16.01,6.624-11.373,0-22.771,0-22.771,0,0,0,0-6.999,0-14.953,0-6.001,2.384-11.754,6.63-15.997,4.246-4.24,10.005-6.624,16.01-6.624,11.373,0,22.771,0,22.771,0,0,0,0,6.999,0,14.956Z" style="clip-rule: evenodd; fill: none;"/>
    </clipPath>
    <clipPath id="clippath-15">
      <path d="M1370.793,78.971c0,5.998,2.384,11.752,6.63,15.994,4.246,4.242,10.005,6.624,16.01,6.624h22.771s0-6.999,0-14.953c0-6.001-2.384-11.754-6.63-15.997-4.246-4.24-10.005-6.624-16.01-6.624-11.373,0-22.771,0-22.771,0,0,0,0,6.999,0,14.956Z" style="clip-rule: evenodd; fill: none;"/>
    </clipPath>
    <clipPath id="clippath-17">
      <path d="M1370.78,101.589l13.601-9.903c7.512-5.47,8.361-16.35,1.788-22.918l-4.758-4.754h-21.263s-4.758,4.754-4.758,4.754c-6.573,6.567-5.724,17.447,1.788,22.918l13.601,9.903Z" style="clip-rule: evenodd; fill: none;"/>
    </clipPath>
    <clipPath id="clippath-18">
      <path d="M103.085,128.525h12.473s3.38,30.845,3.38,30.845c.187,1.709-1.153,3.203-2.874,3.203h-13.548c-1.723,0-3.064-1.497-2.873-3.208l3.441-30.839Z" style="fill: none;"/>
    </clipPath>
    <clipPath id="clippath-19">
      <path d="M109.291,127.404c0,4.41-1.753,8.641-4.875,11.761-3.122,3.12-7.357,4.871-11.773,4.871-8.363,0-16.745,0-16.745,0,0,0,0-5.147,0-10.996,0-4.412,1.753-8.644,4.875-11.763,3.122-3.118,7.357-4.871,11.773-4.871,8.363,0,16.745,0,16.745,0,0,0,0,5.147,0,10.998Z" style="clip-rule: evenodd; fill: none;"/>
    </clipPath>
    <clipPath id="clippath-20">
      <path d="M109.291,127.404c0,4.41,1.753,8.641,4.875,11.761,3.122,3.12,7.357,4.871,11.773,4.871,8.363,0,16.745,0,16.745,0,0,0,0-5.147,0-10.996,0-4.412-1.753-8.644-4.875-11.763-3.122-3.118-7.357-4.871-11.773-4.871-8.363,0-16.745,0-16.745,0,0,0,0,5.147,0,10.998Z" style="clip-rule: evenodd; fill: none;"/>
    </clipPath>
    <clipPath id="clippath-22">
      <path d="M109.282,144.037l10.001-7.282c5.524-4.022,6.149-12.023,1.315-16.852l-3.499-3.496h-15.636s-3.499,3.496-3.499,3.496c-4.833,4.829-4.209,12.83,1.315,16.852l10.001,7.282Z" style="clip-rule: evenodd; fill: none;"/>
    </clipPath>
  </defs>
  <g style="clip-path: url(#clippath);">
    <rect x="-10.125" y="-696.796" width="1520.249" height="1054.04" style="fill: #04d5d8;"/>
    <g>
      <path d="M776.611,34.833c-12.682,0-23-10.309-23-22.982s10.318-22.981,23-22.981h11.581c12.684,0,23.002,10.309,23.002,22.981s-10.318,22.982-23.002,22.982h-11.581Z" style="fill: #7ee6e4; fill-rule: evenodd;"/>
      <rect x="768.311" y="3.558" width="28.182" height="16.587" rx="8.293" ry="8.293" style="fill: #fbed97;"/>
    </g>
    <g>
      <g>
        <g>
          <path d="M992.771,112.682l-4.513,7.885s-10.517.388-14.399.531c-.263.01-.508-.132-.631-.364-.123-.232-.102-.515.053-.727.867-1.18,2.2-2.993,2.973-4.045.393-.535.983-.892,1.639-.993,3.517-.541,14.877-2.287,14.877-2.287Z" style="fill: #8989af; fill-rule: evenodd;"/>
          <path d="M986.31,95.83s9.446-3.049,13.117-4.234c.201-.065.421.007.544.179.124.171.122.403-.003.573-1.147,1.56-3.109,4.23-4.111,5.593-1.329,1.808-1.069,4.328.601,5.827,0,0,0,0,0,0l-10.148-7.938Z" style="fill: #9494b6; fill-rule: evenodd;"/>
          <g style="clip-path: url(#clippath-1);">
            <rect x="990.097" y="88.981" width="3.571" height="19.675" transform="translate(324.813 839.504) rotate(-53.683)" style="fill: #8989af;"/>
          </g>
          <path d="M1017.946,131.575s-.042,3.271-.071,5.542c-.003.298.185.564.468.658.282.094.593-.004.77-.244.36-.489.75-1.021,1.106-1.505.71-.966,1.981-1.333,3.096-.894h0s-5.368-3.559-5.368-3.559Z" style="fill: #8989af; fill-rule: evenodd;"/>
          <path d="M1023.133,124.519s3.109-1.016,5.269-1.722c.283-.092.593.008.768.25.174.241.173.567-.003.807-.411.56-.866,1.178-1.27,1.727-.309.42-.438.945-.359,1.461.078.515.359.978.779,1.287h0l-5.183-3.81Z" style="fill: #8989af; fill-rule: evenodd;"/>
          <path d="M1032.09,139.037l-64.283-49.833-1.218,1.657c-.798,1.086-1.132,2.445-.927,3.778.054.353.114.743.179,1.163,1.634,10.634,8.72,19.635,18.674,23.718,18.846,7.731,47.576,19.517,47.576,19.517Z" style="fill: #c5c5e0; fill-rule: evenodd;"/>
          <polygon points="968.435 95.493 968.178 91.339 972.476 94.499 968.435 95.493" style="fill: #f4f4f4; fill-rule: evenodd;"/>
          <path d="M1035.77,134.029s-29.813-24.053-34.976-28.219c-.505-.407-1.019-.803-1.542-1.187-4.102-3.015-23.233-17.077-31.894-23.443-.716-.526-1.677-.572-2.434-.116-.757.456-1.161,1.324-1.023,2.199,0,0,0,0,0,0,.641,4.079,2.877,7.749,6.216,10.203,15.786,11.603,61.981,45.558,61.981,45.558l3.672-4.995Z" style="fill: #9494b6; fill-rule: evenodd;"/>
          <polygon points="968.221 83.712 968.235 83.723 968.248 83.735 968.261 83.746 968.275 83.758 968.287 83.77 968.3 83.783 968.312 83.795 968.324 83.808 968.336 83.821 968.347 83.835 968.358 83.849 968.369 83.863 968.379 83.877 968.389 83.892 968.399 83.906 968.408 83.921 968.417 83.936 968.426 83.952 968.434 83.967 968.442 83.983 968.45 83.999 968.457 84.015 968.464 84.031 968.471 84.048 968.477 84.064 968.483 84.081 968.488 84.098 968.493 84.114 968.498 84.131 968.502 84.149 968.506 84.166 968.509 84.183 968.512 84.2 968.515 84.218 968.517 84.235 968.519 84.253 968.521 84.271 968.522 84.288 968.522 84.306 968.523 84.323 968.522 84.341 968.522 84.359 968.521 84.376 968.52 84.394 968.518 84.411 968.516 84.429 968.513 84.446 968.51 84.464 968.507 84.481 968.503 84.498 968.499 84.516 968.495 84.533 968.49 84.55 968.484 84.566 968.479 84.583 968.473 84.6 968.466 84.616 968.46 84.632 968.452 84.649 968.445 84.664 968.437 84.68 968.429 84.696 968.42 84.711 968.411 84.726 968.402 84.741 968.392 84.756 968.382 84.771 968.372 84.785 968.361 84.799 968.35 84.813 968.339 84.827 968.328 84.84 968.316 84.853 968.304 84.866 968.291 84.878 968.279 84.891 968.266 84.903 968.252 84.914 968.239 84.926 968.225 84.937 968.211 84.947 968.197 84.958 968.182 84.968 968.168 84.978 968.153 84.987 968.137 84.996 968.122 85.005 968.107 85.013 968.091 85.021 968.075 85.029 968.059 85.036 968.043 85.043 968.026 85.049 968.01 85.055 967.993 85.061 967.976 85.067 967.959 85.072 967.942 85.076 967.925 85.081 967.908 85.084 967.891 85.088 967.873 85.091 967.856 85.094 967.838 85.096 967.821 85.098 967.803 85.099 967.786 85.1 967.768 85.101 967.75 85.101 967.733 85.101 967.715 85.1 967.697 85.1 967.68 85.098 967.662 85.096 967.645 85.094 967.627 85.092 967.61 85.089 967.593 85.085 967.575 85.082 967.558 85.078 967.541 85.073 967.524 85.068 967.507 85.063 967.491 85.057 967.474 85.051 967.458 85.045 967.441 85.038 967.425 85.031 967.409 85.023 967.394 85.016 967.378 85.007 967.363 84.999 967.347 84.99 967.332 84.98 967.318 84.971 967.303 84.961 967.289 84.951 966.47 84.349 966.456 84.338 966.442 84.327 966.428 84.316 966.415 84.304 966.402 84.292 966.389 84.28 966.376 84.268 966.364 84.255 966.352 84.242 966.341 84.229 966.329 84.215 966.318 84.202 966.308 84.188 966.297 84.173 966.287 84.159 966.277 84.144 966.268 84.129 966.259 84.114 966.25 84.099 966.242 84.083 966.234 84.067 966.226 84.052 966.219 84.036 966.212 84.019 966.206 84.003 966.199 83.986 966.194 83.97 966.188 83.953 966.183 83.936 966.179 83.919 966.174 83.902 966.171 83.885 966.167 83.867 966.164 83.85 966.161 83.832 966.159 83.815 966.157 83.797 966.156 83.78 966.155 83.762 966.154 83.745 966.154 83.727 966.154 83.709 966.154 83.692 966.155 83.674 966.157 83.657 966.158 83.639 966.161 83.621 966.163 83.604 966.166 83.587 966.169 83.569 966.173 83.552 966.177 83.535 966.182 83.518 966.187 83.501 966.192 83.484 966.198 83.467 966.204 83.451 966.21 83.434 966.217 83.418 966.224 83.402 966.231 83.386 966.239 83.37 966.248 83.355 966.256 83.339 966.265 83.324 966.274 83.309 966.284 83.294 966.294 83.28 966.304 83.265 966.315 83.251 966.326 83.237 966.337 83.224 966.349 83.21 966.36 83.197 966.373 83.185 966.385 83.172 966.398 83.16 966.411 83.148 966.424 83.136 966.437 83.125 966.451 83.114 966.465 83.103 966.48 83.093 966.494 83.083 966.509 83.073 966.524 83.064 966.539 83.055 966.554 83.046 966.57 83.037 966.585 83.029 966.601 83.022 966.617 83.015 966.634 83.008 966.65 83.001 966.667 82.995 966.683 82.989 966.7 82.984 966.717 82.979 966.734 82.974 966.751 82.97 966.768 82.966 966.786 82.963 966.803 82.96 966.82 82.957 966.838 82.955 966.855 82.953 966.873 82.951 966.891 82.95 966.908 82.95 966.926 82.949 966.944 82.949 966.961 82.95 966.979 82.951 966.996 82.952 967.014 82.954 967.031 82.956 967.049 82.959 967.066 82.962 967.084 82.965 967.101 82.969 967.118 82.973 967.135 82.977 967.152 82.982 967.169 82.987 967.186 82.993 967.202 82.999 967.219 83.006 967.235 83.012 967.251 83.02 967.267 83.027 967.283 83.035 967.298 83.043 967.314 83.052 967.329 83.061 967.344 83.07 967.359 83.08 967.373 83.09 967.388 83.1 968.207 83.702 968.221 83.712" style="fill: #240227; fill-rule: evenodd;"/>
          <g>
            <line x1="985.214" y1="97.831" x2="983.721" y2="99.861" style="fill: none; stroke: #8989af; stroke-linecap: round; stroke-linejoin: round; stroke-width: 2.454px;"/>
            <line x1="989.224" y1="100.778" x2="987.732" y2="102.809" style="fill: none; stroke: #8989af; stroke-linecap: round; stroke-linejoin: round; stroke-width: 2.454px;"/>
            <line x1="993.234" y1="103.726" x2="991.742" y2="105.756" style="fill: none; stroke: #8989af; stroke-linecap: round; stroke-linejoin: round; stroke-width: 2.454px;"/>
          </g>
          <path d="M1033.689,132.5s10.358-1.723,15.452-2.651c.322-.059.643.107.781.404.138.297.059.649-.193.858-2.865,2.372-7.862,6.509-10.038,8.31-.698.577-1.242,1.318-1.585,2.156-1.07,2.614-3.527,8.618-4.936,12.06-.124.303-.437.484-.761.441-.324-.043-.578-.3-.619-.625-.634-5.139-1.774-15.958-1.774-15.958l1.301-2.826,2.37-2.169Z" style="fill: #9494b6; fill-rule: evenodd;"/>
          <g style="clip-path: url(#clippath-2);">
            <rect x="1022.604" y="128.737" width="12.769" height="31.852" transform="translate(303.004 888.095) rotate(-53.683)" style="fill: #8989af;"/>
            <rect x="1033.942" y="113.658" width="12.261" height="31.852" transform="translate(319.673 890.877) rotate(-53.683)" style="fill: #8989af;"/>
          </g>
          <polygon points="974.462 99.304 974.291 96.534 977.156 98.64 974.462 99.304" style="fill: #f4f4f4; fill-rule: evenodd;"/>
          <polygon points="971.596 97.197 971.425 94.428 974.291 96.534 971.596 97.197" style="fill: #f4f4f4; fill-rule: evenodd;"/>
          <polygon points="977.327 101.41 977.156 98.64 980.022 100.747 977.327 101.41" style="fill: #f4f4f4; fill-rule: evenodd;"/>
          <g>
            <path d="M978.964,93.131c.108-.147.154-.332.126-.513-.028-.181-.126-.343-.273-.452-1.452-1.067-5.346-3.93-6.798-4.997-.147-.108-.332-.154-.513-.126-.181.028-.343.126-.452.273l-.595.81c-.108.147-.154.332-.126.513.028.181.126.343.273.452,1.452,1.067,5.346,3.93,6.798,4.997.147.108.332.154.513.126.181-.028.343-.126.452-.273l.595-.81Z" style="fill: #7c7ca6; fill-rule: evenodd;"/>
            <rect x="972.907" y="87.787" width="2.981" height="5.961" rx=".69" ry=".69" transform="translate(324.17 822.132) rotate(-53.683)" style="fill: #fbec65;"/>
            <path d="M976.24,90.273l-1.921-1.412s-.832,1.132-1.354,1.842c-.227.309-.161.744.148.971l.802.589c.309.227.744.161.971-.148.522-.71,1.354-1.842,1.354-1.842Z" style="fill: #240227; fill-rule: evenodd;"/>
          </g>
          <path d="M994.436,113.906l-6.178,6.661s2.769,10.153,3.791,13.902c.069.254.277.445.536.493.259.048.522-.056.678-.268.867-1.18,2.2-2.993,2.973-4.045.393-.535.558-1.204.459-1.861-.534-3.518-2.258-14.882-2.258-14.882Z" style="fill: #c5c5e0; fill-rule: evenodd;"/>
        </g>
        <path d="M1013.18,113.976h-21.012c-2.883,0-5.649-1.145-7.687-3.184h0c-2.039-2.039-4.804-3.184-7.687-3.184h-14.581l7.513,18.466,23.166,14.978,38.943,18.283,20.066-16.847,4.013-17.521-42.734-10.991Z" style="fill: #61d1d5;"/>
      </g>
      <path d="M1014.452,111.405c-.495.618-2.858,1.277-2.858,1.277,0,0,.126-2.451.62-3.069s1.397-.718,2.014-.223.718,1.397.223,2.014Z" style="fill: #d6f0f0;"/>
      <path d="M1008.366,108.534c.028.616,1.214,2.117,1.214,2.117,0,0,1.046-1.602,1.018-2.219s-.55-1.094-1.167-1.066-1.094.55-1.066,1.167Z" style="fill: #d6f0f0;"/>
      <path d="M966.16,107.848c.729.308,3.122-.239,3.122-.239,0,0-1.279-2.095-2.008-2.402s-1.57.034-1.877.764c-.308.729.034,1.57.764,1.877Z" style="fill: #d6f0f0;"/>
      <path d="M972.073,104.713c-.076.612-1.376,2.016-1.376,2.016,0,0-.918-1.679-.842-2.291s.634-1.047,1.246-.972,1.047.634.972,1.246Z" style="fill: #d6f0f0;"/>
    </g>
    <path d="M1209.742-3.582c-76.136,0-138.076,61.941-138.076,138.077,0,9.374-7.626,17-17,17h-106.263c-9.374,0-17-7.626-17-17v-2.009c0-36.943-30.057-67-67-67h-75.775c-41.992,0-76.156-34.163-76.156-76.156v-85.988c0-34.188-27.813-62-62-62h-144.932c-34.187,0-62,27.812-62,62v1.583c0,6.616-5.383,12-12,12h-77.199c-41.355,0-75,33.645-75,75v1.615c0,6.616-5.383,12-12,12H-56.875v1900.227h125.29c19.299,0,35,15.701,35,35v28.562c0,46.869,38.131,85,85,85h282.678c46.869,0,85-38.131,85-85v-4.012c0-19.299,15.701-35,35-35h100.898c106.145,0,192.5-86.354,192.5-192.5,0-13.785,11.215-25,25-25h189.302c13.785,0,25,11.215,25,25v6.941c0,13.785-11.215,25-25,25h-1.646c-41.355,0-75,33.646-75,75.001v134.569c0,41.355,33.645,75,75,75h68.108c41.355,0,75-33.645,75-75,0-34.095,27.737-61.833,61.832-61.833h254.837V-3.582h-347.181Z" style="fill: #7ee6e4;"/>
    <path d="M1045.191,571.028h0c0-51.28,41.571-92.851,92.85-92.851h57.665c32.387,0,58.642-26.255,58.642-58.642h0c0-32.387,26.255-58.642,58.642-58.642h218.932V21.418h-322.181c-62.45,0-113.076,50.626-113.076,113.076h0c0,23.196-18.804,42-42,42h-106.262c-23.196,0-42-18.804-42-42v-2.009c0-23.196-18.804-42-42-42h-75.776c-55.867,0-101.156-45.289-101.156-101.156v-85.988c0-20.435-16.565-37-37-37h-144.932c-20.435,0-37,16.565-37,37v1.583c0,20.435-16.565,37-37,37h-77.199c-27.614,0-50,22.386-50,50v1.615c0,20.435-16.565,37-37,37H-31.875v1850.227h100.289c33.137,0,60,26.863,60,60v28.561c0,33.137,26.863,60,60,60h282.678c33.137,0,60-26.863,60-60v-4.011c0-33.137,26.863-60,60-60h100.898c92.508,0,167.5-74.992,167.5-167.5h0c0-27.614,22.386-50,50-50h189.302c27.614,0,50,22.386,50,50v6.942c0,27.614-22.386,50-50,50h-1.647c-27.614,0-50,22.386-50,50v134.57c0,27.614,22.386,50,50,50h68.108c27.614,0,50-22.386,50-50h0c0-47.956,38.876-86.832,86.832-86.832h229.837v-328.037c0-39.064-31.668-70.732-70.732-70.732h-323.15c-50.932,0-92.285-41.008-92.845-91.807-.004-.347-.006-830.544-.006-830.892Z" style="fill: #fbed97;"/>
    <g>
      <path d="M1209.742,81.419c-29.313,0-53.076,23.763-53.076,53.076h0c0,56.333-45.667,102-102,102h-353.588c-40.652,0-73.606-32.955-73.606-73.606V-47.658c0-14.359-11.641-26-26-26h-56.442c-10.394,0-19.895,6.146-23.89,15.742C506.528-22.817,471.868,1.925,431.54,1.925h-46.653c-11.17,0-21.157,7.295-24.204,18.042-11.534,40.685-49.013,70.574-93.342,70.574H-1.979l-11.374,1742.34,115.314-.491c49.895,14.55,86.454,60.7,86.454,115.229v.695c.001,13.259,10.754,24.004,24.013,23.997l236.679-.131c11.698-.007,21.708-8.443,23.64-19.98,9.508-56.77,58.875-100.032,118.346-100.032h100.898c59.37,0,107.5-48.129,107.5-107.5h0c0-60.752,49.249-110,110-110h189.003c21.384,0,38.798-17.186,39.08-38.568h0c.246-18.686-12.768-34.942-31.062-38.758-28.801-6.009-55.263-20.244-76.552-41.532-28.243-28.244-44.073-65.595-44.746-105.431-.015-.883-.022-838.466-.022-839.351,0-40.828,15.899-79.212,44.769-108.081,28.87-28.869,67.254-44.769,108.082-44.769h28.622c14.589,0,27.327-10.069,30.48-24.313,11.76-53.123,59.237-92.972,115.846-92.972h312.76V81.419h-416.008Z" style="fill: #62c244;"/>
      <g>
        <line x1="-1.979" y1="90.54" x2="-1.979" y2="90.54" style="fill: none; stroke: #62c244; stroke-linecap: round; stroke-linejoin: round; stroke-width: 10px;"/>
        <line x1="-2.045" y1="100.553" x2="-13.321" y2="1827.874" style="fill: none; stroke: #62c244; stroke-dasharray: 0 10.014; stroke-linecap: round; stroke-linejoin: round; stroke-width: 10px;"/>
        <path d="M1615.775,81.419h-406.033c-29.313,0-53.076,23.763-53.076,53.076h0c0,56.333-45.667,102-102,102h-353.588c-40.652,0-73.606-32.955-73.606-73.606V-47.658c0-14.359-11.641-26-26-26h-56.442c-10.394,0-19.895,6.146-23.89,15.742C506.528-22.817,471.868,1.925,431.54,1.925h-46.653c-11.17,0-21.157,7.295-24.204,18.042-11.534,40.685-49.013,70.574-93.342,70.574H3.009" style="fill: none; stroke: #62c244; stroke-dasharray: 0 9.976; stroke-linecap: round; stroke-linejoin: round; stroke-width: 10px;"/>
      </g>
    </g>
    <g style="opacity: .331;">
      <path d="M406.478,57.783c-1.232,0-2.231-1-2.231-2.236v-7.001c0-1.236.999-2.236,2.231-2.236s2.231,1,2.231,2.236v7.001c0,1.236-.999,2.236-2.231,2.236Z" style="fill: #00703a;"/>
      <path d="M415.792,57.783c-1.232,0-2.231-1-2.231-2.236v-4.667c0-1.236.999-2.236,2.231-2.236s2.231,1,2.231,2.236v4.667c0,1.236-.999,2.236-2.231,2.236Z" style="fill: #00703a;"/>
      <path d="M397.939,57.783c-1.232,0-2.231-1-2.231-2.236v-4.667c0-1.236.999-2.236,2.231-2.236s2.231,1,2.231,2.236v4.667c0,1.236-.999,2.236-2.231,2.236Z" style="fill: #00703a;"/>
      <path d="M431.608,76.261c-1.232,0-2.231-1-2.231-2.236v-7.001c0-1.236.999-2.236,2.231-2.236,1.232,0,2.231,1,2.231,2.236v7.001c0,1.236-.999,2.236-2.231,2.236Z" style="fill: #00703a;"/>
      <path d="M440.922,76.261c-1.232,0-2.231-1-2.231-2.236v-4.669c0-1.236.999-2.236,2.231-2.236,1.232,0,2.231,1,2.231,2.236v4.669c0,1.236-.999,2.236-2.231,2.236Z" style="fill: #00703a;"/>
      <path d="M423.071,76.261c-1.232,0-2.231-1-2.231-2.236v-4.669c0-1.236.999-2.236,2.231-2.236s2.231,1,2.231,2.236v4.669c0,1.236-.999,2.236-2.231,2.236Z" style="fill: #00703a;"/>
      <path d="M440.241,37.555c-1.232,0-2.231-1-2.231-2.236v-7.001c0-1.236.999-2.236,2.231-2.236,1.232,0,2.231,1,2.231,2.236v7.001c0,1.236-.999,2.236-2.231,2.236Z" style="fill: #00703a;"/>
      <path d="M449.557,37.555c-1.232,0-2.231-1-2.231-2.236v-4.669c0-1.236.999-2.236,2.231-2.236s2.231,1,2.231,2.236v4.669c0,1.236-.999,2.236-2.231,2.236Z" style="fill: #00703a;"/>
      <path d="M431.704,37.555c-1.232,0-2.231-1-2.231-2.236v-4.669c0-1.236.999-2.236,2.231-2.236s2.231,1,2.231,2.236v4.669c0,1.236-.999,2.236-2.231,2.236Z" style="fill: #00703a;"/>
    </g>
    <g>
      <g>
        <path d="M506.355,118.073h22.918s6.211,69.687,6.211,69.687c.344,3.141-2.118,5.885-5.28,5.885h-24.892c-3.167,0-5.63-2.751-5.279-5.895l6.322-69.676Z" style="fill: #6a4c46;"/>
        <g style="clip-path: url(#clippath-3);">
          <path d="M517.741,159.04l18.735-13.642c10.348-7.535,11.518-22.522,2.464-31.569l-6.554-6.548h-29.29s-6.554,6.548-6.554,6.548c-9.054,9.047-7.885,24.034,2.464,31.569l18.735,13.642Z" style="fill: #594238; fill-rule: evenodd;"/>
        </g>
      </g>
      <g>
        <g>
          <path d="M517.758,116.013c0,8.104-3.221,15.878-8.958,21.61-5.737,5.732-13.517,8.95-21.632,8.95-15.366,0-30.766,0-30.766,0,0,0,0-9.456,0-20.203,0-8.107,3.221-15.881,8.958-21.613,5.737-5.728,13.517-8.95,21.632-8.95,15.366,0,30.766,0,30.766,0,0,0,0,9.456,0,20.207Z" style="fill: #abbe3c; fill-rule: evenodd;"/>
          <g style="clip-path: url(#clippath-4);">
            <polygon points="517.758 95.806 449.289 154.328 517.758 154.328 517.758 95.806" style="fill: #839c2f; fill-rule: evenodd;"/>
            <rect x="447.493" y="116.994" width="79.175" height="7.664" transform="translate(33.398 335.346) rotate(-39.239)" style="fill: #bdce42;"/>
            <path d="M481.967,149.883h7.669s0-7.954,0-12.889c0-2.115-1.718-3.831-3.835-3.831-2.117,0-3.835,1.716-3.835,3.831,0,4.935,0,12.889,0,12.889Z" style="fill: #4e7b3f; fill-rule: evenodd; opacity: .5;"/>
            <path d="M497.306,150.45h7.669s0-17.498,0-25.433c0-2.115-1.714-3.828-3.831-3.828h-.008c-2.117,0-3.831,1.713-3.831,3.828,0,7.935,0,25.433,0,25.433Z" style="fill: #4e7b3f; fill-rule: evenodd; opacity: .5;"/>
            <path d="M456.402,125.094v-7.257s7.171,0,11.707,0c.963,0,1.887.383,2.569,1.065.679.678,1.062,1.602,1.062,2.563h0c0,.966-.383,1.885-1.062,2.567-.683.682-1.607,1.061-2.569,1.061-4.536,0-11.707,0-11.707,0Z" style="fill: #839c2f; fill-rule: evenodd; opacity: .75;"/>
            <path d="M456.402,110.174v-7.663s15.596,0,23.012,0c2.117,0,3.831,1.713,3.831,3.828v.008c0,2.115-1.714,3.828-3.831,3.828-7.416,0-23.012,0-23.012,0Z" style="fill: #839c2f; fill-rule: evenodd; opacity: .75;"/>
          </g>
        </g>
        <g>
          <path d="M517.758,116.013c0,8.104,3.221,15.878,8.958,21.61,5.737,5.732,13.517,8.95,21.632,8.95,15.366,0,30.766,0,30.766,0,0,0,0-9.456,0-20.203,0-8.107-3.221-15.881-8.958-21.613-5.737-5.728-13.517-8.95-21.632-8.95-15.366,0-30.766,0-30.766,0,0,0,0,9.456,0,20.207Z" style="fill: #abbe3c; fill-rule: evenodd;"/>
          <g style="clip-path: url(#clippath-5);">
            <polygon points="517.758 95.806 586.227 154.328 517.758 154.328 517.758 95.806" style="fill: #839c2f; fill-rule: evenodd;"/>
            <rect x="544.603" y="81.239" width="7.664" height="79.175" transform="translate(108.179 469.473) rotate(-50.801)" style="fill: #bdce42;"/>
            <path d="M553.548,149.883h-7.669s0-7.954,0-12.889c0-2.115,1.718-3.831,3.835-3.831s3.835,1.716,3.835,3.831c0,4.935,0,12.889,0,12.889Z" style="fill: #4e7b3f; fill-rule: evenodd; opacity: .5;"/>
            <path d="M538.209,150.45h-7.669s0-17.495,0-25.43c0-1.015.403-1.989,1.124-2.709.717-.716,1.695-1.123,2.711-1.123,1.016,0,1.994.406,2.711,1.123.721.72,1.124,1.694,1.124,2.709,0,7.935,0,25.43,0,25.43Z" style="fill: #4e7b3f; fill-rule: evenodd; opacity: .5;"/>
            <path d="M579.113,125.5v-7.663s-6.964,0-11.508,0c-1.016,0-1.99.402-2.707,1.123-.721.716-1.124,1.69-1.124,2.705v.008c0,1.015.403,1.989,1.124,2.709.717.716,1.691,1.119,2.707,1.119,4.544,0,11.508,0,11.508,0Z" style="fill: #839c2f; fill-rule: evenodd; opacity: .75;"/>
            <path d="M579.113,110.174v-7.663s-15.592,0-23.008,0c-1.016,0-1.994.406-2.711,1.123-.721.72-1.124,1.694-1.124,2.709,0,1.015.403,1.992,1.124,2.709.717.72,1.695,1.123,2.711,1.123,7.416,0,23.008,0,23.008,0Z" style="fill: #839c2f; fill-rule: evenodd; opacity: .75;"/>
          </g>
        </g>
        <g>
          <path d="M517.741,146.573l18.376-13.381c10.15-7.391,11.297-22.091,2.416-30.964l-6.428-6.423h-28.729s-6.428,6.423-6.428,6.423c-8.881,8.873-7.734,23.573,2.416,30.964l18.376,13.381Z" style="fill: #bdce42; fill-rule: evenodd;"/>
          <g style="clip-path: url(#clippath-7);">
            <rect x="488.749" y="93.48" width="28.992" height="54.98" transform="translate(1006.4896 241.9398) rotate(-180)" style="fill: #839c2f;"/>
            <rect x="513.921" y="90.271" width="7.669" height="66.829" style="fill: #d6e14c;"/>
            <g>
              <g style="opacity: .5;">
                <path d="M544.948,123.799c1.248,0,2.477-.609,3.211-1.729,1.163-1.771.669-4.146-1.103-5.306l-15.589-10.217c-1.773-1.167-4.149-.664-5.308,1.1-1.163,1.771-.669,4.146,1.103,5.306l15.589,10.217c.649.427,1.378.629,2.097.629Z" style="fill: #839c2f;"/>
              </g>
              <g style="opacity: .5;">
                <path d="M490.568,123.799c.719,0,1.448-.202,2.097-.629l15.584-10.217c1.773-1.16,2.267-3.535,1.103-5.306-1.158-1.764-3.52-2.27-5.308-1.1l-15.584,10.217c-1.773,1.16-2.267,3.535-1.103,5.306.734,1.12,1.962,1.729,3.211,1.729Z" style="fill: #4e7b3f;"/>
              </g>
              <path d="M544.948,141.27c1.248,0,2.477-.609,3.211-1.729,1.163-1.771.669-4.146-1.103-5.306l-15.589-10.217c-1.773-1.167-4.149-.664-5.308,1.1-1.163,1.771-.669,4.146,1.103,5.306l15.589,10.217c.649.427,1.378.629,2.097.629Z" style="fill: #839c2f; opacity: .5;"/>
              <g style="opacity: .5;">
                <path d="M490.568,141.27c.719,0,1.448-.202,2.097-.629l15.584-10.217c1.773-1.16,2.267-3.535,1.103-5.306-1.158-1.764-3.52-2.27-5.308-1.1l-15.584,10.217c-1.773,1.16-2.267,3.535-1.103,5.306.734,1.12,1.962,1.729,3.211,1.729Z" style="fill: #4e7b3f;"/>
              </g>
            </g>
          </g>
        </g>
      </g>
    </g>
    <g>
      <g>
        <g>
          <path d="M1279.332,25.569h22.918s6.211,69.687,6.211,69.687c.344,3.141-2.118,5.885-5.28,5.885h-24.892c-3.167,0-5.63-2.751-5.279-5.895l6.322-69.676Z" style="fill: #6a4c46;"/>
          <g style="clip-path: url(#clippath-8);">
            <path d="M1290.718,66.536l18.735-13.642c10.348-7.535,11.518-22.522,2.464-31.569l-6.554-6.548h-29.29s-6.554,6.548-6.554,6.548c-9.054,9.047-7.885,24.034,2.464,31.569l18.735,13.642Z" style="fill: #594238; fill-rule: evenodd;"/>
          </g>
        </g>
        <g>
          <g>
            <path d="M1290.735,23.509c0,8.104-3.221,15.878-8.958,21.61-5.737,5.732-13.517,8.95-21.632,8.95-15.366,0-30.766,0-30.766,0,0,0,0-9.456,0-20.203,0-8.107,3.221-15.881,8.958-21.613,5.737-5.728,13.517-8.95,21.632-8.95,15.366,0,30.766,0,30.766,0,0,0,0,9.456,0,20.207Z" style="fill: #abbe3c; fill-rule: evenodd;"/>
            <g style="clip-path: url(#clippath-9);">
              <polygon points="1290.735 3.302 1222.266 61.824 1290.735 61.824 1290.735 3.302" style="fill: #839c2f; fill-rule: evenodd;"/>
              <rect x="1220.47" y="24.49" width="79.175" height="7.664" transform="translate(266.203 803.435) rotate(-39.239)" style="fill: #bdce42;"/>
              <path d="M1254.944,57.379h7.669s0-7.954,0-12.889c0-2.115-1.718-3.831-3.835-3.831-2.117,0-3.835,1.716-3.835,3.831,0,4.935,0,12.889,0,12.889Z" style="fill: #4e7b3f; fill-rule: evenodd; opacity: .5;"/>
              <path d="M1270.283,57.946h7.669s0-17.498,0-25.433c0-2.115-1.714-3.828-3.831-3.828h-.008c-2.117,0-3.831,1.713-3.831,3.828v25.433Z" style="fill: #4e7b3f; fill-rule: evenodd; opacity: .5;"/>
              <path d="M1229.38,32.589v-7.257s7.171,0,11.707,0c.963,0,1.887.383,2.569,1.065.679.678,1.062,1.602,1.062,2.563h0c0,.966-.383,1.885-1.062,2.567-.683.682-1.607,1.061-2.569,1.061-4.536,0-11.707,0-11.707,0Z" style="fill: #839c2f; fill-rule: evenodd; opacity: .75;"/>
              <path d="M1229.38,17.67v-7.663s15.596,0,23.012,0c2.117,0,3.831,1.713,3.831,3.828v.008c0,2.115-1.714,3.828-3.831,3.828-7.416,0-23.012,0-23.012,0Z" style="fill: #839c2f; fill-rule: evenodd; opacity: .75;"/>
            </g>
          </g>
          <g>
            <path d="M1290.735,23.509c0,8.104,3.221,15.878,8.958,21.61,5.737,5.732,13.517,8.95,21.632,8.95,15.366,0,30.766,0,30.766,0,0,0,0-9.456,0-20.203,0-8.107-3.221-15.881-8.958-21.613-5.737-5.728-13.517-8.95-21.632-8.95-15.366,0-30.766,0-30.766,0,0,0,0,9.456,0,20.207Z" style="fill: #abbe3c; fill-rule: evenodd;"/>
            <g style="clip-path: url(#clippath-10);">
              <polygon points="1290.735 3.302 1359.204 61.824 1290.735 61.824 1290.735 3.302" style="fill: #839c2f; fill-rule: evenodd;"/>
              <rect x="1317.581" y="-11.265" width="7.664" height="79.175" transform="translate(464.3053 1034.4537) rotate(-50.8007)" style="fill: #bdce42;"/>
              <path d="M1326.526,57.379h-7.669s0-7.954,0-12.889c0-2.115,1.718-3.831,3.835-3.831,2.117,0,3.835,1.716,3.835,3.831,0,4.935,0,12.889,0,12.889Z" style="fill: #4e7b3f; fill-rule: evenodd; opacity: .5;"/>
              <path d="M1311.187,57.946h-7.669s0-17.495,0-25.43c0-1.015.403-1.989,1.124-2.709.717-.716,1.695-1.123,2.711-1.123,1.016,0,1.994.406,2.711,1.123.721.72,1.124,1.694,1.124,2.709,0,7.935,0,25.43,0,25.43Z" style="fill: #4e7b3f; fill-rule: evenodd; opacity: .5;"/>
              <path d="M1352.091,32.996v-7.663s-6.964,0-11.508,0c-1.016,0-1.99.402-2.707,1.123-.721.716-1.124,1.69-1.124,2.705v.008c0,1.015.403,1.989,1.124,2.709.717.716,1.691,1.119,2.707,1.119,4.544,0,11.508,0,11.508,0Z" style="fill: #839c2f; fill-rule: evenodd; opacity: .75;"/>
              <path d="M1352.091,17.67v-7.663s-15.592,0-23.008,0c-1.016,0-1.994.406-2.711,1.123-.721.72-1.124,1.694-1.124,2.709,0,1.015.403,1.992,1.124,2.709.717.72,1.695,1.123,2.711,1.123,7.416,0,23.008,0,23.008,0Z" style="fill: #839c2f; fill-rule: evenodd; opacity: .75;"/>
            </g>
          </g>
          <g>
            <path d="M1290.718,54.069l18.376-13.381c10.15-7.391,11.297-22.091,2.416-30.964l-6.428-6.423h-28.729s-6.428,6.423-6.428,6.423c-8.881,8.873-7.734,23.573,2.416,30.964l18.376,13.381Z" style="fill: #bdce42; fill-rule: evenodd;"/>
            <g style="clip-path: url(#clippath-12);">
              <rect x="1261.726" y=".976" width="28.992" height="54.98" transform="translate(2552.4445 56.9315) rotate(-180)" style="fill: #839c2f;"/>
              <rect x="1286.898" y="-2.233" width="7.669" height="66.829" style="fill: #d6e14c;"/>
              <g>
                <g style="opacity: .5;">
                  <path d="M1317.926,31.295c1.248,0,2.477-.609,3.211-1.729,1.163-1.771.669-4.146-1.103-5.306l-15.589-10.217c-1.773-1.167-4.149-.664-5.308,1.1-1.163,1.771-.669,4.146,1.103,5.306l15.589,10.217c.649.427,1.378.629,2.097.629Z" style="fill: #839c2f;"/>
                </g>
                <g style="opacity: .5;">
                  <path d="M1263.546,31.295c.719,0,1.448-.202,2.097-.629l15.584-10.217c1.773-1.16,2.267-3.535,1.103-5.306-1.158-1.764-3.52-2.27-5.308-1.1l-15.584,10.217c-1.773,1.16-2.267,3.535-1.103,5.306.734,1.12,1.962,1.729,3.211,1.729Z" style="fill: #4e7b3f;"/>
                </g>
                <path d="M1317.926,48.766c1.248,0,2.477-.609,3.211-1.729,1.163-1.771.669-4.146-1.103-5.306l-15.589-10.217c-1.773-1.167-4.149-.664-5.308,1.1-1.163,1.771-.669,4.146,1.103,5.306l15.589,10.217c.649.427,1.378.629,2.097.629Z" style="fill: #839c2f; opacity: .5;"/>
                <g style="opacity: .5;">
                  <path d="M1263.546,48.766c.719,0,1.448-.202,2.097-.629l15.584-10.217c1.773-1.16,2.267-3.535,1.103-5.306-1.158-1.764-3.52-2.27-5.308-1.1l-15.584,10.217c-1.773,1.16-2.267,3.535-1.103,5.306.734,1.12,1.962,1.729,3.211,1.729Z" style="fill: #4e7b3f;"/>
                </g>
              </g>
            </g>
          </g>
        </g>
      </g>
      <line x1="1259.581" y1="101.14" x2="1321.89" y2="100.46" style="fill: #62c244; stroke: #62c244; stroke-dasharray: 0 10; stroke-linecap: round; stroke-linejoin: round; stroke-width: 10px;"/>
    </g>
    <g>
      <g>
        <g>
          <path d="M1362.353,80.495h16.963s4.597,41.568,4.597,41.568c.255,2.325-1.567,4.356-3.908,4.356h-18.424c-2.344,0-4.167-2.036-3.907-4.363l4.679-41.56Z" style="fill: #6a4c46;"/>
          <g style="clip-path: url(#clippath-13);">
            <path d="M1370.78,110.816l13.867-10.097c7.659-5.577,8.525-16.669,1.823-23.365l-4.851-4.846h-21.679s-4.851,4.846-4.851,4.846c-6.701,6.696-5.836,17.788,1.823,23.365l13.867,10.097Z" style="fill: #594238; fill-rule: evenodd;"/>
          </g>
        </g>
        <g>
          <g>
            <path d="M1370.793,78.971c0,5.998-2.384,11.752-6.63,15.994-4.246,4.242-10.005,6.624-16.01,6.624-11.373,0-22.771,0-22.771,0,0,0,0-6.999,0-14.953,0-6.001,2.384-11.754,6.63-15.997,4.246-4.24,10.005-6.624,16.01-6.624,11.373,0,22.771,0,22.771,0,0,0,0,6.999,0,14.956Z" style="fill: #abbe3c; fill-rule: evenodd;"/>
            <g style="clip-path: url(#clippath-14);">
              <polygon points="1370.793 64.014 1320.117 107.329 1370.793 107.329 1370.793 64.014" style="fill: #839c2f; fill-rule: evenodd;"/>
              <rect x="1318.787" y="79.697" width="58.6" height="5.673" transform="translate(251.761 871.342) rotate(-39.239)" style="fill: #bdce42;"/>
              <path d="M1344.303,104.039h5.676s0-5.887,0-9.54c0-1.565-1.272-2.836-2.838-2.836-1.567,0-2.838,1.27-2.838,2.836,0,3.653,0,9.54,0,9.54Z" style="fill: #4e7b3f; fill-rule: evenodd; opacity: .5;"/>
              <path d="M1355.656,104.459h5.676s0-12.951,0-18.824c0-1.565-1.269-2.833-2.835-2.833h-.006c-1.567,0-2.835,1.268-2.835,2.833,0,5.873,0,18.824,0,18.824Z" style="fill: #4e7b3f; fill-rule: evenodd; opacity: .5;"/>
              <path d="M1325.381,85.691v-5.371s5.307,0,8.665,0c.712,0,1.396.284,1.902.788.502.502.786,1.185.786,1.897h0c0,.715-.284,1.395-.786,1.9-.505.505-1.189.786-1.902.786-3.358,0-8.665,0-8.665,0Z" style="fill: #839c2f; fill-rule: evenodd; opacity: .75;"/>
              <path d="M1325.381,74.649v-5.672s11.543,0,17.032,0c1.567,0,2.835,1.268,2.835,2.833v.006c0,1.565-1.269,2.833-2.835,2.833-5.489,0-17.032,0-17.032,0Z" style="fill: #839c2f; fill-rule: evenodd; opacity: .75;"/>
            </g>
          </g>
          <g>
            <path d="M1370.793,78.971c0,5.998,2.384,11.752,6.63,15.994,4.246,4.242,10.005,6.624,16.01,6.624h22.771s0-6.999,0-14.953c0-6.001-2.384-11.754-6.63-15.997-4.246-4.24-10.005-6.624-16.01-6.624-11.373,0-22.771,0-22.771,0,0,0,0,6.999,0,14.956Z" style="fill: #abbe3c; fill-rule: evenodd;"/>
            <g style="clip-path: url(#clippath-15);">
              <polygon points="1370.793 64.014 1421.469 107.329 1370.793 107.329 1370.793 64.014" style="fill: #839c2f; fill-rule: evenodd;"/>
              <rect x="1390.662" y="53.233" width="5.673" height="58.6" transform="translate(448.8206 1110.2653) rotate(-50.8007)" style="fill: #bdce42;"/>
              <path d="M1397.283,104.039h-5.676s0-5.887,0-9.54c0-1.565,1.272-2.836,2.838-2.836,1.567,0,2.838,1.27,2.838,2.836,0,3.653,0,9.54,0,9.54Z" style="fill: #4e7b3f; fill-rule: evenodd; opacity: .5;"/>
              <path d="M1385.93,104.459h-5.676s0-12.948,0-18.821c0-.751.298-1.472.832-2.005.531-.53,1.254-.831,2.007-.831s1.476.301,2.007.831c.534.533.832,1.253.832,2.005,0,5.873,0,18.821,0,18.821Z" style="fill: #4e7b3f; fill-rule: evenodd; opacity: .5;"/>
              <path d="M1416.204,85.992v-5.672s-5.154,0-8.518,0c-.752,0-1.473.298-2.004.831-.534.53-.832,1.251-.832,2.002v.006c0,.751.298,1.472.832,2.005.531.53,1.252.828,2.004.828,3.363,0,8.518,0,8.518,0Z" style="fill: #839c2f; fill-rule: evenodd; opacity: .75;"/>
              <path d="M1416.204,74.649v-5.672s-11.54,0-17.029,0c-.752,0-1.476.301-2.007.831-.534.533-.832,1.253-.832,2.005,0,.751.298,1.475.832,2.005.531.533,1.254.831,2.007.831,5.489,0,17.029,0,17.029,0Z" style="fill: #839c2f; fill-rule: evenodd; opacity: .75;"/>
            </g>
          </g>
          <g>
            <path d="M1370.78,101.589l13.601-9.903c7.512-5.47,8.361-16.35,1.788-22.918l-4.758-4.754h-21.263s-4.758,4.754-4.758,4.754c-6.573,6.567-5.724,17.447,1.788,22.918l13.601,9.903Z" style="fill: #bdce42; fill-rule: evenodd;"/>
            <g style="clip-path: url(#clippath-17);">
              <rect x="1349.323" y="62.293" width="21.458" height="40.693" transform="translate(2720.1029 165.2786) rotate(-180)" style="fill: #839c2f;"/>
              <rect x="1367.953" y="59.918" width="5.676" height="49.462" style="fill: #d6e14c;"/>
              <g>
                <g style="opacity: .5;">
                  <path d="M1390.918,84.733c.924,0,1.833-.45,2.376-1.279.861-1.311.495-3.068-.817-3.927l-11.538-7.562c-1.312-.864-3.071-.491-3.928.814-.861,1.311-.495,3.068.817,3.927l11.538,7.562c.48.316,1.02.465,1.552.465Z" style="fill: #839c2f;"/>
                </g>
                <g style="opacity: .5;">
                  <path d="M1350.669,84.733c.532,0,1.072-.15,1.552-.465l11.534-7.562c1.312-.858,1.678-2.616.817-3.927-.857-1.305-2.605-1.68-3.928-.814l-11.534,7.562c-1.312.858-1.678,2.616-.817,3.927.543.829,1.452,1.279,2.376,1.279Z" style="fill: #4e7b3f;"/>
                </g>
                <path d="M1390.918,97.664c.924,0,1.833-.45,2.376-1.279.861-1.311.495-3.068-.817-3.927l-11.538-7.562c-1.312-.864-3.071-.491-3.928.814-.861,1.311-.495,3.068.817,3.927l11.538,7.562c.48.316,1.02.465,1.552.465Z" style="fill: #839c2f; opacity: .5;"/>
                <g style="opacity: .5;">
                  <path d="M1350.669,97.664c.532,0,1.072-.15,1.552-.465l11.534-7.562c1.312-.858,1.678-2.616.817-3.927-.857-1.305-2.605-1.68-3.928-.814l-11.534,7.562c-1.312.858-1.678,2.616-.817,3.927.543.829,1.452,1.279,2.376,1.279Z" style="fill: #4e7b3f;"/>
                </g>
              </g>
            </g>
          </g>
        </g>
      </g>
      <line x1="1347.735" y1="126.418" x2="1393.852" y2="125.915" style="fill: #62c244; stroke: #62c244; stroke-dasharray: 0 10; stroke-linecap: round; stroke-linejoin: round; stroke-width: 10px;"/>
    </g>
    <g>
      <rect x="160.685" y="48.583" width="108.764" height="29.826" rx="14.913" ry="14.913" style="fill: #f2b052; opacity: .3;"/>
      <rect x="189.805" y="44.065" width="58.117" height="20.079" style="fill: #fff;"/>
      <path d="M151.541-2.783c.096-.036.101-.028.198-.062.21-.054.338-.031.57-.035.731.036,1.445.462,1.958,1.145.175.095.259.242.346.389.042.073.084.147.131.228l32.538,56.356-5.083-.017L150.941,1.079c-.047-.081-.089-.156-.131-.228-.128-.221-.259-.449-.296-.713-.272-.887-.188-1.762.286-2.363.141-.168.207-.261.378-.37.086-.051.178-.101.178-.101.094-.043.099-.036.185-.085Z" style="fill: #e9c242;"/>
      <path d="M198.749,2.188c-10.681-18.499-34.331-24.836-52.828-14.155-18.5,10.681-24.835,34.328-14.154,52.827L198.749,2.188Z" style="fill: #b74f25;"/>
      <path d="M178.518,37.911c.285.019.367.057.518.12.563.227.948.803.961,1.423v2.567h-1.897v-2.213h-3.161v2.213h-1.897v-2.567c.025-.822.72-1.524,1.543-1.543,1.315,0,2.623-.032,3.932,0Z" style="fill: #6791ea;"/>
      <g>
        <g>
          <path d="M179.557,41.449c-.647.144-1.14.695-1.14,1.384v1.222c0,.466-.185.914-.517,1.245-.326.331-.775.514-1.242.514h-6.617c.094.38.157.633.157.633,0,0-1.245.714-2.415,1.378-1.246.715-2.011,2.036-2.011,3.465v1.606c0,1.328,1.075,2.403,2.402,2.403h9.37c.898,0,1.764-.361,2.408-.999.632-.638.993-1.505.993-2.402v-8.675c0-.857-.593-1.572-1.388-1.772Z" style="fill: #6791ea;"/>
          <path d="M177.901,45.299c.332-.33.517-.779.517-1.245v-1.222c0-.689.493-1.24,1.14-1.384-.143-.036-.291-.061-.446-.061h-7.593c-.626,0-1.207.285-1.593.777-.38.487-.519,1.125-.367,1.726.182.717.36,1.429.482,1.921h6.617c.467,0,.916-.183,1.242-.514Z" style="fill: #4a7be4;"/>
        </g>
        <path d="M174.623,50.469c0-.562-.461-1.024-1.024-1.024h-5.532c-.569,0-1.03.461-1.03,1.024v2.061c0,.563.462,1.025,1.03,1.025h5.532c.563,0,1.024-.462,1.024-1.025v-2.061Z" style="fill: #4a7be4;"/>
      </g>
      <g>
        <path d="M156.956,58.091c.805.805,1.646,1.645,2.45,2.45,1.706,1.706,4.157,2.274,6.371,1.643.72-1.912.709-4.037-.063-5.933-.029.419-.184.832-.503,1.152-.706.706-1.853.703-2.555,0l-2.556-2.555c-.706-.706-.705-1.85,0-2.556.32-.319.732-.474,1.151-.504-1.898-.772-4.024-.781-5.938-.06-.632,2.21-.063,4.658,1.642,6.362Z" style="fill: #d3526d;"/>
        <polygon points="163.934 65.069 163.934 65.07 163.934 65.069 163.934 65.069" style="fill: #d3526d;"/>
        <path d="M156.628,64.743c-1.157-1.157-2.508-2.508-3.679-3.679-1.637-1.637-2.217-4.04-1.542-6.233-2.096,3.157-1.754,7.455,1.029,10.239,2.77,2.77,7.04,3.12,10.193,1.057-2.095.709-4.419.198-6.001-1.384Z" style="fill: #d3526d;"/>
        <path d="M160.101,54.849l2.556,2.555c.703.703,1.85.706,2.555,0,.32-.32.474-.733.503-1.152-.397-.975-.99-1.889-1.781-2.68-.792-.792-1.706-1.386-2.682-1.782-.418.03-.831.185-1.151.504-.705.705-.706,1.849,0,2.556Z" style="fill: #b53655;"/>
        <path d="M162.999,66.005h0s.935-.935.935-.935c-.405.405-.844.755-1.305,1.057.123-.042.249-.072.37-.122Z" style="fill: #b99ecb; fill-opacity: .359;"/>
        <path d="M165.778,62.185c-2.214.632-4.666.063-6.371-1.643-.805-.805-1.645-1.645-2.45-2.45-1.705-1.704-2.274-4.153-1.642-6.362-1.048.396-2.035.998-2.878,1.842-.392.392-.734.815-1.029,1.259-.675,2.194-.095,4.597,1.542,6.233,1.171,1.171,2.522,2.522,3.679,3.679,1.581,1.582,3.906,2.093,6.001,1.384.461-.302.9-.652,1.305-1.057h0c.845-.846,1.448-1.835,1.843-2.885Z" style="fill: #b53655;"/>
      </g>
      <g>
        <rect x="203.628" y="50.799" width="6.484" height="5.764" style="fill: #e68436;"/>
        <path d="M196.87,42.534c-1.724,0-3.122,1.4-3.122,3.123v9.05c0,1.723,1.398,3.123,3.122,3.123h6.244c1.723,0,3.122-1.4,3.122-3.123v-9.05c0-1.723-1.398-3.123-3.122-3.123h-6.244Z" style="fill: #e99a3b;"/>
        <path d="M206.247,54.715c0-1.189-.468-2.327-1.309-3.161-.841-.841-1.979-1.315-3.167-1.315h-10.381v4.855c0,.809.322,1.587.892,2.156.569.569,1.346.892,2.155.892h11.811v-3.427Z" style="fill: #0c1c1c;"/>
        <path d="M197.387,41.382h-2.042c-2.188,0-3.964,1.781-3.964,3.961v9.948h6.006v-13.909Z" style="fill: #0c1c1c;"/>
        <path d="M200.208,48.975c1.558,0,2.822,1.263,2.822,2.822s-1.263,2.822-2.822,2.822-2.822-1.263-2.822-2.822,1.264-2.822,2.822-2.822Z" style="fill: #e99a3b;"/>
        <path d="M200.176,45.414c-.235,0-.422.188-.422.418v.84c0,.236.187.423.422.423h2.757c.235,0,.422-.187.422-.423v-.84c0-.23-.187-.418-.422-.418h-2.757Z" style="fill: #0c1c1c;"/>
        <path d="M242.282,41.629c-.465-.828-1.276-1.397-2.213-1.554-.936-.157-1.889.122-2.594.755t-.002.001c-.947.844-1.118,2.259-.404,3.306,2.76,4.043,9.132,13.378,9.132,13.378l8.036.003h0c-.001-.752-.298-1.469-.829-2.001-.532-.531-1.25-.828-2.001-.83-.962.002-1.802.002-1.802.002,0,0-4.62-8.24-7.324-13.06Z" style="fill: #e68436;"/>
        <path d="M226.839,46.759c-1.38.796-1.85,2.559-1.055,3.937.795,1.378,2.557,1.851,3.937,1.055l11.113-6.416c1.38-.796,1.85-2.559,1.055-3.937-.795-1.377-2.557-1.851-3.937-1.055l-11.113,6.416Z" style="fill: #e68436;"/>
        <path d="M234.371,52.766c-.654,0-1.187.532-1.187,1.187v2.375c0,.656.532,1.187,1.187,1.187h23.802c.654,0,1.187-.532,1.187-1.187v-2.375c0-.655-.532-1.187-1.187-1.187h-23.802Z" style="fill: #e99a3b;"/>
        <path d="M259.344,49.885h0c-1.59,0-2.881,1.289-2.881,2.882v3.602h2.881v-6.484Z" style="fill: #e99a3b;"/>
        <path d="M234.691,57.52l-1.898-14.231-10.115,4.111v.059l-.02-.058s-5.328.167-9.69.301c-3.115.1-5.592,2.654-5.592,5.773v.188c0,1.022.407,2.003,1.131,2.726.724.724,1.705,1.131,2.729,1.131,2.859,0,23.454,0,23.454,0Z" style="fill: #b74f25;"/>
        <rect x="199.924" y="33.169" width="11.38" height="2.529" style="fill: #fff;"/>
        <path d="M212.253,34.117c0-1.221-.992-2.213-2.213-2.213s-2.213.992-2.213,2.213v3.477h4.426v-3.477Z" style="fill: #e99a3b;"/>
        <path d="M210.03,34.437l-2.213,3.161,6.354,5.842s-1.966,5.051-3.225,8.282c-.234.595-.152,1.264.203,1.789.36.525.961.841,1.593.841h.007c.582,0,1.113-.354,1.334-.898.892-2.2,3.18-7.821,4.116-10.116.247-.601.089-1.29-.385-1.732-2.124-1.96-7.783-7.169-7.783-7.169Z" style="fill: #e99a3b;"/>
      </g>
    </g>
    <g style="opacity: .35;">
      <g>
        <circle cx="1134.22" cy="130.456" r="2.829" transform="translate(75.827 558.565) rotate(-28.584)" style="fill: #f2b052; opacity: .6;"/>
        <circle cx="1126.477" cy="138.432" r="2.829" transform="translate(71.067 555.833) rotate(-28.584)" style="fill: #f2b052; opacity: .6;"/>
        <circle cx="1122.78" cy="130.21" r="2.829" transform="translate(74.55 553.062) rotate(-28.584)" style="fill: #f2b052; opacity: .6;"/>
      </g>
    </g>
    <g>
      <rect x="657.428" y="104.404" width="60.971" height="23.814" style="fill: #f3b3b5;"/>
      <path d="M706.639,103.267c0-2.544,2.065-4.608,4.608-4.608h21.444c2.543,0,4.608,2.064,4.608,4.608,0,2.543-2.065,4.607-4.608,4.607h-21.444c-2.543,0-4.608-2.064-4.608-4.607Z" style="fill: #f2b052; opacity: .3;"/>
      <g>
        <path d="M712.746,101.973c.556,1.4,1.914,2.315,3.422,2.315h10.564c1.508,0,2.86-.915,3.422-2.315,1.388-3.475,3.858-9.649,3.858-9.649h-25.126s2.465,6.174,3.859,9.649Z" style="fill: #e39640;"/>
        <path d="M721.362,84.845c-3.532.066-6.725,3.075-6.795,6.796v2.626s2.994,0,2.994,0c0-2.243-.032-4.762,1.933-5.905,2.31-1.346,5.825.365,5.842,3.368v2.537s2.994,0,2.994,0c0-1.675.135-3.35-.404-4.864-.964-2.692-3.505-4.577-6.563-4.559Z" style="fill: #e39640;"/>
      </g>
      <g>
        <rect x="679.344" y="94.815" width="7.737" height="7.892" style="fill: #3a7fa2;"/>
        <path d="M682.281,81.845c0-.91.365-1.783,1.009-2.427.644-.644,1.523-1.009,2.433-1.009h0c.916,0,1.789.365,2.432,1.009.644.644,1.009,1.517,1.009,2.427,0,4.815,0,12.967,0,12.967h-6.883s0-8.152,0-12.967Z" style="fill: #0c1c1c;"/>
        <path d="M688.15,100.454h2.286c1.293,0,2.378.969,2.524,2.252.554,4.878,1.814,15.965,1.814,15.965h-4.554s-2.07-18.217-2.07-18.217Z" style="fill: #3a7fa2;"/>
        <rect x="690.431" y="116.858" width="6.831" height="1.822" style="fill: #3a7fa2;"/>
        <path d="M668.104,105.019c-.619,0-1.202-.301-1.566-.802-.364-.501-.465-1.147-.274-1.73,1.048-3.252,2.833-8.79,3.689-11.468.301-.911,1.147-1.521,2.113-1.512h.046c.71,0,1.366.355,1.776.929.401.574.51,1.312.274,1.977-1.13,3.242-2.797,8.052-2.797,8.052h8.653v4.554s-7.706,0-11.914,0Z" style="fill: #4ba2da;"/>
        <path d="M673.483,89.003c0-1.72,1.398-3.117,3.117-3.117h13.226c1.719,0,3.117,1.396,3.117,3.117v6.234c0,1.72-1.398,3.117-3.117,3.117h-13.226c-1.719,0-3.117-1.396-3.117-3.117v-6.234Z" style="fill: #4ba2da;"/>
        <path d="M686.771,91.642c0-.303.241-.545.538-.545h1.083c.303,0,.545.241.545.545v3.553c0,.303-.242.545-.545.545h-1.083c-.297,0-.538-.242-.538-.545v-3.553Z" style="fill: #0c1c1c;"/>
        <path d="M676.871,91.642c0-.303.241-.545.538-.545h1.083c.303,0,.544.241.544.545v3.553c0,.303-.242.545-.544.545h-1.083c-.297,0-.538-.242-.538-.545v-3.553Z" style="fill: #0c1c1c;"/>
        <path d="M693.412,89.118c-1.727,0-3.128,1.4-3.128,3.128,0,1.728,1.4,3.128,3.128,3.128s3.128-1.4,3.128-3.128c0-1.728-1.4-3.128-3.128-3.128Z" style="fill: #4ba2da;"/>
        <path d="M677.033,83.647s9.569,0,14.356,0c1.47,0,2.665,1.188,2.665,2.664,0,1.387,0,2.801,0,2.801,0,0-9.199,0-14.066,0-.789,0-1.536-.307-2.093-.868-.55-.553-.862-1.305-.862-2.084v-2.513Z" style="fill: #0c1c1c;"/>
        <rect x="674.847" y="83.646" width="6.509" height="2.692" style="fill: #0c1c1c;"/>
        <path d="M677.023,83.647s-1.115,0-2.288,0c-.706,0-1.384.28-1.884.778-.5.499-.78,1.182-.78,1.886,0,1.387,0,2.801,0,2.801h1.999c1.631,0,2.952-1.318,2.952-2.951v-2.513Z" style="fill: #0c1c1c;"/>
        <path d="M677.419,100.462h11.591s.93,12.225,1.322,17.355c.043.574-.156,1.142-.544,1.56-.391.424-.942.665-1.518.665-2.741,0-7.369,0-10.11,0-.576,0-1.126-.241-1.518-.665-.391-.418-.587-.986-.544-1.56.392-5.13,1.322-17.355,1.322-17.355Z" style="fill: #ce6062;"/>
        <path d="M679.343,100.46c0,2.135,1.733,3.869,3.869,3.869s3.868-1.733,3.868-3.869h-7.737Z" style="fill: #4ba2da;"/>
        <path d="M676.923,116.205c.961-.961,2.513-.96,3.471-.002.131.131.263.263.394.394.958.959.96,2.51-.001,3.472-2.174,2.173-5.621,5.62-5.621,5.62l6.648,6.728-3.553,3.494s-4.27-4.27-7.37-7.37c-.836-.835-1.307-1.969-1.305-3.154-.001-1.181.467-2.314,1.305-3.151,1.966-1.966,4.416-4.416,6.032-6.032Z" style="fill: #4ba2da;"/>
        <path d="M678.893,131.645l3.079.826-2.066,7.712s-.176-.047-.431-.115c-.704-.189-1.297-.649-1.665-1.283-.361-.622-.461-1.378-.273-2.076.598-2.232,1.356-5.063,1.356-5.063Z" style="fill: #4ba2da;"/>
        <path d="M685.588,116.205c.961-.961,2.513-.96,3.472-.002.131.131.263.263.394.394.959.959.96,2.51-.001,3.472-2.173,2.173-5.621,5.62-5.621,5.62l6.648,6.728-3.553,3.494s-4.27-4.27-7.37-7.37c-.836-.835-1.307-1.969-1.304-3.154-.002-1.181.467-2.314,1.304-3.151,1.966-1.966,4.416-4.416,6.032-6.032Z" style="fill: #4ba2da;"/>
        <path d="M687.555,131.645l3.079.826-2.066,7.712s-.176-.047-.431-.115c-.704-.189-1.297-.649-1.665-1.283-.361-.622-.461-1.378-.273-2.076.598-2.232,1.357-5.063,1.357-5.063Z" style="fill: #4ba2da;"/>
      </g>
    </g>
    <g>
      <g>
        <path d="M103.085,128.525h12.473s3.38,30.845,3.38,30.845c.187,1.709-1.153,3.203-2.874,3.203h-13.548c-1.723,0-3.064-1.497-2.873-3.208l3.441-30.839Z" style="fill: #6b4c46;"/>
        <g style="clip-path: url(#clippath-18);">
          <path d="M109.282,150.822l10.197-7.425c5.632-4.101,6.269-12.258,1.341-17.181l-3.567-3.564h-15.941s-3.567,3.564-3.567,3.564c-4.928,4.924-4.291,13.081,1.341,17.181l10.197,7.425Z" style="fill: #594237; fill-rule: evenodd;"/>
        </g>
      </g>
      <g>
        <g>
          <path d="M109.291,127.404c0,4.41-1.753,8.641-4.875,11.761-3.122,3.12-7.357,4.871-11.773,4.871-8.363,0-16.745,0-16.745,0,0,0,0-5.147,0-10.996,0-4.412,1.753-8.644,4.875-11.763,3.122-3.118,7.357-4.871,11.773-4.871,8.363,0,16.745,0,16.745,0,0,0,0,5.147,0,10.998Z" style="fill: #abc02e; fill-rule: evenodd;"/>
          <g style="clip-path: url(#clippath-19);">
            <polygon points="109.291 116.406 72.027 148.257 109.291 148.257 109.291 116.406" style="fill: #839d24; fill-rule: evenodd;"/>
            <rect x="71.049" y="127.938" width="43.091" height="4.171" transform="translate(-61.368 87.889) rotate(-39.239)" style="fill: #bdd033;"/>
            <path d="M89.812,145.838h4.174s0-4.329,0-7.015c0-1.151-.935-2.085-2.087-2.085-1.152,0-2.087.934-2.087,2.085,0,2.686,0,7.015,0,7.015Z" style="fill: #4d7c3d; fill-rule: evenodd; opacity: .5;"/>
            <path d="M98.16,146.147h4.174s0-9.524,0-13.842c0-1.151-.933-2.083-2.085-2.083h-.004c-1.152,0-2.085.932-2.085,2.083,0,4.319,0,13.842,0,13.842Z" style="fill: #4d7c3d; fill-rule: evenodd; opacity: .5;"/>
            <path d="M75.898,132.346v-3.95s3.903,0,6.372,0c.524,0,1.027.209,1.398.58.369.369.578.872.578,1.395h0c0,.525-.209,1.026-.578,1.397-.372.371-.874.578-1.398.578-2.469,0-6.372,0-6.372,0Z" style="fill: #839d24; fill-rule: evenodd; opacity: .75;"/>
            <path d="M75.898,124.226v-4.171s8.488,0,12.525,0c1.152,0,2.085.932,2.085,2.083v.004c0,1.151-.933,2.083-2.085,2.083h-12.525Z" style="fill: #839d24; fill-rule: evenodd; opacity: .75;"/>
          </g>
        </g>
        <g>
          <path d="M109.291,127.404c0,4.41,1.753,8.641,4.875,11.761,3.122,3.12,7.357,4.871,11.773,4.871,8.363,0,16.745,0,16.745,0,0,0,0-5.147,0-10.996,0-4.412-1.753-8.644-4.875-11.763-3.122-3.118-7.357-4.871-11.773-4.871-8.363,0-16.745,0-16.745,0,0,0,0,5.147,0,10.998Z" style="fill: #abc02e; fill-rule: evenodd;"/>
          <g style="clip-path: url(#clippath-20);">
            <polygon points="109.291 116.406 146.556 148.257 109.291 148.257 109.291 116.406" style="fill: #839d24; fill-rule: evenodd;"/>
            <rect x="123.902" y="108.478" width="4.171" height="43.091" transform="translate(-54.401 145.481) rotate(-50.801)" style="fill: #bdd033;"/>
            <path d="M128.771,145.838h-4.174s0-4.329,0-7.015c0-1.151.935-2.085,2.087-2.085,1.152,0,2.087.934,2.087,2.085,0,2.686,0,7.015,0,7.015Z" style="fill: #4d7c3d; fill-rule: evenodd; opacity: .5;"/>
            <path d="M120.422,146.147h-4.174s0-9.522,0-13.84c0-.553.219-1.082.612-1.474.39-.39.922-.611,1.476-.611.553,0,1.085.221,1.476.611.392.392.612.922.612,1.474,0,4.319,0,13.84,0,13.84Z" style="fill: #4d7c3d; fill-rule: evenodd; opacity: .5;"/>
            <path d="M142.684,132.567v-4.171s-3.79,0-6.263,0c-.553,0-1.083.219-1.473.611-.392.39-.612.92-.612,1.472v.004c0,.553.219,1.082.612,1.474.39.39.92.609,1.473.609,2.473,0,6.263,0,6.263,0Z" style="fill: #839d24; fill-rule: evenodd; opacity: .75;"/>
            <path d="M142.684,124.226v-4.171s-8.486,0-12.522,0c-.553,0-1.085.221-1.476.611-.392.392-.612.922-.612,1.474,0,.553.219,1.084.612,1.474.39.392.922.611,1.476.611h12.522Z" style="fill: #839d24; fill-rule: evenodd; opacity: .75;"/>
          </g>
        </g>
        <g>
          <path d="M109.282,144.037l10.001-7.282c5.524-4.022,6.149-12.023,1.315-16.852l-3.499-3.496h-15.636s-3.499,3.496-3.499,3.496c-4.833,4.829-4.209,12.83,1.315,16.852l10.001,7.282Z" style="fill: #bdd033; fill-rule: evenodd;"/>
          <g style="clip-path: url(#clippath-22);">
            <rect x="93.503" y="115.14" width="15.779" height="29.923" transform="translate(202.785 260.204) rotate(-180)" style="fill: #839d24;"/>
            <rect x="107.203" y="113.394" width="4.174" height="36.372" style="fill: #d6e23d;"/>
            <g>
              <g style="opacity: .5;">
                <path d="M124.09,131.642c.679,0,1.348-.331,1.747-.941.633-.964.364-2.256-.601-2.888l-8.484-5.561c-.965-.635-2.258-.361-2.889.599-.633.964-.364,2.256.601,2.888l8.484,5.561c.353.232.75.342,1.141.342Z" style="fill: #839d24;"/>
              </g>
              <g style="opacity: .5;">
                <path d="M94.493,131.642c.391,0,.788-.11,1.141-.342l8.481-5.561c.965-.631,1.234-1.924.601-2.888-.63-.96-1.916-1.235-2.889-.599l-8.481,5.561c-.965.631-1.234,1.924-.601,2.888.399.61,1.068.941,1.747.941Z" style="fill: #4d7c3d;"/>
              </g>
              <path d="M124.09,141.151c.679,0,1.348-.331,1.747-.941.633-.964.364-2.256-.601-2.888l-8.484-5.561c-.965-.635-2.258-.361-2.889.599-.633.964-.364,2.256.601,2.888l8.484,5.561c.353.232.75.342,1.141.342Z" style="fill: #839d24; opacity: .5;"/>
              <g style="opacity: .5;">
                <path d="M94.493,141.151c.391,0,.788-.11,1.141-.342l8.481-5.561c.965-.631,1.234-1.924.601-2.888-.63-.96-1.916-1.235-2.889-.599l-8.481,5.561c-.965.631-1.234,1.924-.601,2.888.399.61,1.068.941,1.747.941Z" style="fill: #4d7c3d;"/>
              </g>
            </g>
          </g>
        </g>
      </g>
    </g>
    <g style="opacity: .35;">
      <g>
        <circle cx="683.165" cy="42.709" r="2.832" transform="translate(525.176 708.726) rotate(-80.232)" style="fill: #f2b052; opacity: .6;"/>
        <circle cx="672.145" cy="44.16" r="2.832" transform="translate(514.594 699.07) rotate(-80.232)" style="fill: #f2b052; opacity: .6;"/>
        <circle cx="674.348" cy="35.418" r="2.832" transform="translate(525.039 693.981) rotate(-80.232)" style="fill: #f2b052; opacity: .6;"/>
        <circle cx="649.172" cy="41.374" r="2.832" transform="translate(498.265 674.117) rotate(-80.232)" style="fill: #f2b052; opacity: .6;"/>
        <circle cx="657.078" cy="58.773" r="2.832" transform="translate(487.683 696.355) rotate(-80.232)" style="fill: #f2b052; opacity: .6;"/>
      </g>
    </g>
    <g style="opacity: .35;">
      <g>
        <circle cx="76.093" cy="63.723" r="2.832" transform="translate(-21.359 82.534) rotate(-50.869)" style="fill: #f2b052; opacity: .6;"/>
        <circle cx="65.777" cy="59.584" r="2.832" transform="translate(-21.954 73.004) rotate(-50.869)" style="fill: #f2b052; opacity: .6;"/>
        <circle cx="71.984" cy="53.045" r="2.832" transform="translate(-14.592 75.406) rotate(-50.869)" style="fill: #f2b052; opacity: .6;"/>
        <circle cx="47.122" cy="45.892" r="2.832" transform="translate(-18.215 53.482) rotate(-50.869)" style="fill: #f2b052; opacity: .6;"/>
        <circle cx="45.481" cy="64.931" r="2.832" transform="translate(-33.589 59.233) rotate(-50.869)" style="fill: #f2b052; opacity: .6;"/>
      </g>
    </g>
  </g>
</svg>