<?xml version="1.0" encoding="UTF-8"?>
<svg xmlns="http://www.w3.org/2000/svg" width="1500" height="145" xmlns:xlink="http://www.w3.org/1999/xlink" version="1.1" viewBox="0 0 1500 145">
  <!-- Generator: Adobe Illustrator 30.5.1, SVG Export Plug-In . SVG Version: 2.1.4 Build 3)  -->
  <defs>
    <clipPath id="clippath">
      <rect width="1500" height="145" style="fill: none;"/>
    </clipPath>
    <clipPath id="clippath-3">
      <polygon points="993.673 16.393 912.728 16.138 912.728 49.333 827.568 49.333 827.568 -167.986 994.789 -249.73 993.673 16.393" style="clip-rule: evenodd; fill: none;"/>
    </clipPath>
    <clipPath id="clippath-4">
      <path d="M611.728-63.93v-498.929l-5.372,11.644c-8.36,18.119-20.675,34.133-36.041,46.864l-81.021,67.13c-16.721,13.828-26.401,34.394-26.401,56.092V-63.93h148.836Z" style="clip-rule: evenodd; fill: none;"/>
    </clipPath>
  </defs>
  <g style="isolation: isolate;">
    <g id="Details">
      <g style="clip-path: url(#clippath);">
        <rect x="-10.125" y="-2888.498" width="1520.249" height="3053.416" style="fill: #61d1d5;"/>
        <path d="M-31.619,223.82V-892.869h439.79c24.414,0,47.365,9.507,64.629,26.77l88.768,88.769c9.708,9.707,22.615,15.054,36.344,15.054h270.975c15.867,0,31.084,6.303,42.304,17.523l31.302,31.302c11.299,11.3,17.521,26.323,17.521,42.304v36.879c0,28.387,23.012,51.399,51.399,51.399h0c28.387,0,51.399-23.012,51.399-51.399v-159.383c0-50.478,40.92-91.398,91.398-91.398h173.96c50.397,0,91.398,41.002,91.398,91.399l.529,144.191c1.499,21.417,19.367,38.12,40.891,38.12h111.087V-59.822h-238.168c-43.687,0-79.103-35.415-79.103-79.103v-63.47c0-29.481-23.899-53.381-53.381-53.381h-55.92c-29.481,0-53.381,23.899-53.381,53.381v100.962c0,21.13-8.229,40.994-23.169,55.934l-141.512,141.513c-18.283,18.283-42.592,28.353-68.448,28.353H-40.344c-13.73,0-28.235,72.685-28.235,72.685-17.263,17.263,290.517,26.77,266.104,26.77H-31.619Z" style="fill: #4eeae6;"/>
        <path d="M913.301,76.352l141.513-141.513c11.084-11.084,17.311-26.117,17.311-41.792v-100.962c0-40.527,32.854-73.381,73.381-73.381h55.92c40.527,0,73.381,32.854,73.381,73.381v63.47c0,32.641,26.461,59.102,59.102,59.102h218.168s0-505.586,0-505.586h-91.087c-32.307,0-59.01-25.192-60.888-57.445l-.532-144.867c0-39.432-31.966-71.399-71.398-71.399h-173.96c-39.432,0-71.399,31.966-71.399,71.399v334.633c0,16.501-13.377,29.877-29.877,29.877h-83.042c-16.501,0-29.877-13.377-29.877-29.877v-212.129c0-10.563-4.196-20.693-11.665-28.161l-31.302-31.302c-7.469-7.469-17.599-11.665-28.161-11.665h-270.975c-18.936,0-37.097-7.522-50.486-20.912l-88.768-88.768c-13.39-13.39-31.551-20.912-50.487-20.912H-11.618V99.401h870.614c20.369,0,39.903-8.646,54.306-23.049Z" style="fill: #d6f0f0;"/>
        <path d="M-518.423-410.281l176.088,53.511c13.398-13.398,31.57-20.925,50.518-20.925H249.045c20.578,0,40.553,6.944,56.694,19.708l60.702,48.004c16.141,12.764,36.116,19.708,56.694,19.708h459.899c18.948,0,37.12,7.527,50.518,20.925l35.93,35.93c13.398,13.398,20.925,31.57,20.925,50.518v57.349c0,18.948-7.527,37.12-20.925,50.518l-64.521,64.521c-13.398,13.398-31.57,20.925-50.518,20.925h-501.716c-18.948,0-37.12-7.527-50.518-20.925l-49.313-49.313c-13.398-13.398-31.57-20.925-50.518-20.925H-142.156c-18.948,0-37.12,7.527-50.518,20.925l-83.526,83.526c-13.398,13.398-31.57,20.925-50.518,20.925h-91.99c-18.948,0-37.12-7.527-50.518-20.925l-43.108-43.108c-13.398-13.398-20.925-31.57-20.925-50.518V-22.827c0-18.948,7.527-37.12,20.925-50.518l45.628-45.628c13.398-13.398,20.925-31.57,20.925-50.518v-37.519c0-18.948-7.527-37.12-20.925-50.518l-51.718-51.718c-13.444-13.444-20.975-31.692-20.925-50.705h0c.049-18.883,7.573-36.978,20.925-50.331Z" style="fill: #c2e6e4;"/>
        <path d="M802.765,49.333h0c0,4.441,3.6,8.042,8.042,8.042h121.553l16.094-16.084h-137.647c-4.441,0-8.042,3.601-8.042,8.042Z" style="fill: #a7d8d5;"/>
        <g>
          <rect x="16.403" y="40.232" width="127.303" height="12.543" rx="6.271" ry="6.271" style="fill: #c2e6e4;"/>
          <g>
            <rect x="53.537" y="-12.269" width="84.332" height="57.765" style="fill: #fff;"/>
            <rect x="95.441" y="-12.269" width="10.607" height="57.765" style="fill: #e9f1f6; mix-blend-mode: multiply; opacity: .5;"/>
            <rect x="132.564" y="-12.269" width="5.305" height="57.765" style="fill: #e9f1f6; mix-blend-mode: multiply; opacity: .5;"/>
            <g>
              <path d="M100.482,45.496H22.242V-30.95c0-10.366,4.108-20.307,11.424-27.636,7.354-7.33,17.291-11.447,27.658-11.447h.038c10.367,0,20.304,4.117,27.658,11.447,7.316,7.33,11.462,17.27,11.462,27.636V45.496Z" style="fill: #fff; fill-rule: evenodd;"/>
              <g>
                <rect x="22.241" y="8.362" width="15.648" height="18.567" style="fill: #b3efe3;"/>
                <rect x="48.99" y="8.362" width="24.742" height="37.134" style="fill: #b3efe3;"/>
                <rect x="84.833" y="8.362" width="15.648" height="18.567" style="fill: #b3efe3;"/>
              </g>
              <g style="opacity: .35;">
                <rect x="22.242" y="8.362" width="15.648" height="5.998" style="fill: #49a2e0;"/>
                <rect x="48.991" y="8.362" width="24.742" height="5.998" style="fill: #49a2e0;"/>
                <rect x="84.834" y="8.362" width="15.648" height="5.998" style="fill: #49a2e0;"/>
              </g>
            </g>
            <rect x="106.047" y="8.362" width="26.516" height="31.87" style="fill: #b3efe3;"/>
            <rect x="106.049" y="8.362" width="26.516" height="5.998" style="fill: #49a2e0;"/>
          </g>
        </g>
        <g>
          <rect x="141.606" y="-2.035" width="127.303" height="12.543" rx="6.271" ry="6.271" style="fill: #c2e6e4;"/>
          <g>
            <rect x="178.739" y="-54.536" width="84.332" height="57.765" style="fill: #fff;"/>
            <rect x="220.643" y="-54.536" width="10.607" height="57.765" style="fill: #e9f1f6; mix-blend-mode: multiply; opacity: .5;"/>
            <rect x="257.767" y="-54.536" width="5.305" height="57.765" style="fill: #e9f1f6; mix-blend-mode: multiply; opacity: .5;"/>
            <g>
              <path d="M225.684,3.229h-78.24v-76.447c0-10.366,4.108-20.307,11.424-27.636,7.354-7.33,17.291-11.447,27.658-11.447h.038c10.367,0,20.304,4.117,27.658,11.447,7.316,7.33,11.462,17.27,11.462,27.636V3.229Z" style="fill: #fff; fill-rule: evenodd;"/>
              <rect x="174.192" y="-33.906" width="24.742" height="37.134" style="fill: #b3efe3;"/>
            </g>
          </g>
        </g>
        <g>
          <rect x="982.106" y="44.006" width="31.171" height="10.654" rx="5.327" ry="5.327" style="fill: #4eeae6;"/>
          <g>
            <rect x="993.496" y="19.368" width="0" height="17.043" style="fill: none;"/>
            <rect x="916.699" y="19.368" width="0" height="17.043" style="fill: none;"/>
            <g>
              <polygon points="993.673 16.393 912.728 16.138 912.728 49.333 827.568 49.333 827.568 -167.986 994.789 -249.73 993.673 16.393" style="fill: #5ac4c3; fill-rule: evenodd;"/>
              <g style="clip-path: url(#clippath-3);">
                <polygon points="921.815 42.578 884.655 59.828 1061.938 -324.848 1092.399 -338.614 921.815 42.578" style="fill: #baeffc; fill-opacity: .176; fill-rule: evenodd;"/>
                <polygon points="847.067 46.819 764.613 64.069 941.896 -320.607 1017.651 -334.373 847.067 46.819" style="fill: #baeffc; fill-opacity: .176; fill-rule: evenodd;"/>
                <polygon points="999.462 56.946 943.324 60.077 1066.707 -208.954 1088.659 -138.74 999.462 56.946" style="fill: #baeffc; fill-opacity: .176; fill-rule: evenodd;"/>
              </g>
            </g>
            <path d="M955.651-25.416l-2.648,1.23c-.642.3-1.056.945-1.056,1.655V11.43c0,1.009.817,1.826,1.827,1.826h2.648c1.01,0,1.827-.817,1.827-1.826V-23.761c0-.624-.318-1.205-.846-1.541-.521-.332-1.181-.378-1.752-.114Z" style="fill: #4aa2b2;"/>
            <g style="opacity: .35;">
              <polygon points="915.88 9.604 915.323 -5.838 995.232 -43.542 994.789 -27.122 915.88 9.604" style="fill: #4aa2b2;"/>
            </g>
            <path d="M1002.422-257.271c-.521-.335-1.181-.374-1.752-.114l-167.481,77.949c-6.71,3.123-11,9.849-11,17.245V49.333s11.6,0,11.6,0v-211.522c0-.724.125-1.462.382-2.254.646-1.993,2.077-3.63,3.93-4.49l153.568-71.477v86.316c0,2.881-1.692,5.528-4.308,6.744l-111.787,51.888c-1.842.856-3.58,2.065-5.165,3.591-1.156,1.12-2.142,2.318-2.927,3.566-1.913,3.046-2.923,6.537-2.923,10.096V49.333s11.6,0,11.6,0V-29.039c0-.717.125-1.459.382-2.257.471-1.455,1.424-2.735,3.012-3.891.293-.214.578-.439.91-.596l111.205-51.62v31.771c0,2.893-1.68,5.524-4.306,6.743l-69.419,32.225c-1.856.863-3.591,2.068-5.161,3.588-1.171,1.134-2.156,2.332-2.927,3.563-1.913,3.049-2.927,6.54-2.927,10.099v48.747s11.6,0,11.6,0v-28.139h73.14v28.139s11.6,0,11.6,0V-255.73c0-.624-.318-1.205-.846-1.541ZM991.668-136.573v31.65c0,2.881-1.692,5.528-4.308,6.744l-111.202,51.617v-31.646c0-2.881,1.688-5.531,4.304-6.744l111.205-51.62ZM991.668-38.108V9.604s-73.14,0-73.14,0V.585c0-2.881,1.688-5.524,4.304-6.74l68.835-31.953Z" style="fill: #fff;"/>
          </g>
        </g>
        <g style="clip-path: url(#clippath-4);">
          <g>
            <g>
              <line x1="471.845" y1="-439.106" x2="471.845" y2="212.355" style="fill: #e8f3fd; mix-blend-mode: multiply; stroke: #e8f3fd; stroke-miterlimit: 10; stroke-width: 2.326px;"/>
              <line x1="474.342" y1="-439.106" x2="474.342" y2="212.355" style="fill: none; stroke: #49a2ac; stroke-linecap: round; stroke-linejoin: round; stroke-width: 6.854px;"/>
              <line x1="508.688" y1="-469.392" x2="508.688" y2="212.355" style="fill: none; stroke: #49a2ac; stroke-linecap: round; stroke-linejoin: round; stroke-width: 6.854px;"/>
              <line x1="543.035" y1="212.355" x2="543.035" y2="-494.486" style="fill: none; stroke: #49a2ac; stroke-linecap: round; stroke-linejoin: round; stroke-width: 6.854px;"/>
              <line x1="577.382" y1="-522.177" x2="577.382" y2="212.355" style="fill: none; stroke: #49a2ac; stroke-linecap: round; stroke-linejoin: round; stroke-width: 6.854px;"/>
            </g>
            <polygon points="590.53 -565.528 590.53 149.101 608.601 149.101 608.601 -571.585 590.53 -565.528" style="fill: #e8f3fd; mix-blend-mode: multiply; stroke: #e8f3fd; stroke-miterlimit: 10; stroke-width: 2.326px;"/>
            <path d="M611.728-130.861l-5.372,11.644c-8.36,18.119-20.675,34.133-36.041,46.864L489.294-5.224c-16.721,13.828-26.401,34.394-26.401,56.092V15.384c0-21.698,9.68-42.265,26.401-56.092l81.021-67.13c15.365-12.731,27.681-28.745,36.041-46.864l5.372-11.644v35.484Z" style="fill: #c1f2fc; fill-opacity: .176; fill-rule: evenodd;"/>
            <path d="M611.728-45.365l-5.372,11.644c-8.36,18.119-20.675,34.133-36.041,46.864l-81.021,67.13c-16.721,13.828-26.401,34.394-26.401,56.092v-35.484c0-21.698,9.68-42.265,26.401-56.092l81.021-67.13c15.365-12.731,27.681-28.745,36.041-46.864l5.372-11.644v35.484Z" style="fill: #5ecbcc; fill-rule: evenodd;"/>
            <path d="M611.728,40.131l-5.372,11.644c-8.36,18.119-20.675,34.133-36.041,46.864l-81.021,67.13c-16.721,13.828-26.401,34.394-26.401,56.092v-35.484c0-21.698,9.68-42.265,26.401-56.092l81.021-67.13c15.365-12.731,27.681-28.745,36.041-46.864l5.372-11.644v35.484Z" style="fill: #5ecbcc; fill-rule: evenodd;"/>
            <path d="M611.728,125.628l-5.372,11.644c-8.36,18.119-20.675,34.133-36.041,46.864l-81.021,67.13c-16.721,13.828-26.401,34.394-26.401,56.092v-35.484c0-21.698,9.68-42.265,26.401-56.092l81.021-67.13c15.365-12.731,27.681-28.745,36.041-46.864l5.372-11.644v35.484Z" style="fill: #5ecbcc; fill-rule: evenodd;"/>
            <polygon points="602.297 -565.528 602.297 149.101 613.746 149.101 613.746 -571.585 602.297 -565.528" style="fill: #f6ffff; stroke: #f6ffff; stroke-miterlimit: 10; stroke-width: 2.326px;"/>
          </g>
        </g>
        <g>
          <path d="M781.844,12.903c0-.915-.742-1.656-1.656-1.656h-44.722c-.915,0-1.656.742-1.656,1.656s.742,1.656,1.656,1.656h44.722c.915,0,1.656-.742,1.656-1.656Z" style="fill: #a7d8d5; fill-rule: evenodd;"/>
          <polygon points="758.709 -6.143 758.787 -6.135 758.865 -6.118 758.94 -6.095 759.012 -6.064 759.082 -6.027 759.147 -5.983 759.208 -5.933 759.264 -5.878 759.315 -5.817 759.359 -5.752 759.398 -5.683 759.429 -5.611 759.454 -5.536 759.471 -5.459 759.48 -5.381 759.483 -5.302 759.478 -5.223 759.465 -5.146 759.445 -5.069 759.418 -4.995 759.384 -4.924 759.343 -4.857 759.296 -4.793 759.243 -4.735 759.186 -4.681 759.123 -4.634 759.056 -4.592 758.985 -4.558 739.937 3.725 739.863 3.753 739.787 3.773 739.709 3.787 739.631 3.793 739.552 3.791 739.474 3.783 739.397 3.766 739.321 3.743 739.249 3.712 739.18 3.675 739.114 3.631 739.053 3.581 738.997 3.526 738.946 3.465 738.902 3.4 738.864 3.331 738.832 3.259 738.808 3.184 738.791 3.107 738.781 3.029 738.779 2.95 738.784 2.871 738.796 2.794 738.816 2.717 738.843 2.643 738.878 2.572 738.918 2.505 738.965 2.441 739.018 2.383 739.076 2.329 739.139 2.282 739.206 2.24 739.276 2.205 758.325 -6.077 758.398 -6.104 758.474 -6.125 758.552 -6.139 758.63 -6.145 758.709 -6.143" style="fill: #6f6f6f; fill-rule: evenodd;"/>
          <rect x="765.28" y="-2.004" width="8.282" height="3.313" style="fill: #22316e;"/>
          <polygon points="768.593 12.903 770.504 -.348 765.535 -.348 763.624 12.903 768.593 12.903" style="fill: #22316e; fill-rule: evenodd;"/>
          <polygon points="778.531 7.934 778.531 4.621 774.652 4.621 773.404 -.348 768.435 -.348 770.514 7.934 778.531 7.934" style="fill: #22316e; fill-rule: evenodd;"/>
          <rect x="738.778" y="2.965" width="13.251" height="6.625" style="fill: #f0e071;"/>
          <rect x="743.747" y="2.965" width="13.251" height="1.656" style="fill: #f0e071;"/>
          <polygon points="738.778 4.621 738.778 -6.973 733.809 -2.004 730.497 -2.004 730.497 4.621 738.778 4.621" style="fill: #f0e071; fill-rule: evenodd;"/>
          <rect x="732.153" y="-.378" width="1.641" height="3.373" rx=".274" ry=".274" style="fill: #0d1c1c;"/>
          <rect x="738.778" y="1.309" width="1.656" height="4.969" style="fill: #cf622b;"/>
          <polygon points="752.029 6.278 748.717 6.278 750.373 12.903 753.686 12.903 752.029 6.278" style="fill: #f0e071; fill-rule: evenodd;"/>
          <rect x="738.778" y="6.278" width="3.313" height="6.625" style="fill: #f0e071;"/>
          <rect x="776.875" y="4.621" width="1.656" height="6.625" style="fill: #102120;"/>
          <rect x="760.311" y="11.247" width="8.282" height="1.656" style="fill: #102120;"/>
        </g>
      </g>
    </g>
  </g>
</svg>