<?xml version="1.0" encoding="UTF-8"?>
<svg id="Details" xmlns="http://www.w3.org/2000/svg" width="1500" height="145" xmlns:xlink="http://www.w3.org/1999/xlink" version="1.1" viewBox="0 0 1500 145">
  <!-- Generator: Adobe Illustrator 30.5.1, SVG Export Plug-In . SVG Version: 2.1.4 Build 3)  -->
  <defs>
    <clipPath id="clippath">
      <rect width="1500" height="145" style="fill: none;"/>
    </clipPath>
    <clipPath id="clippath-1">
      <path d="M110.422,4.162h18.181s4.927,44.959,4.927,44.959c.273,2.492-1.68,4.668-4.189,4.668h-19.747c-2.512,0-4.466-2.182-4.188-4.677l5.015-44.95Z" style="fill: none;"/>
    </clipPath>
    <clipPath id="clippath-2">
      <path d="M119.468,2.528c0,6.428-2.555,12.596-7.106,17.143-4.551,4.547-10.723,7.1-17.16,7.1-12.189,0-24.406,0-24.406,0,0,0,0-7.501,0-16.027,0-6.432,2.555-12.599,7.106-17.146,4.551-4.544,10.723-7.1,17.16-7.1,12.189,0,24.406,0,24.406,0,0,0,0,7.501,0,16.03Z" style="clip-rule: evenodd; fill: none;"/>
    </clipPath>
    <clipPath id="clippath-3">
      <path d="M119.468,2.528c0,6.428,2.555,12.596,7.106,17.143,4.551,4.547,10.723,7.1,17.16,7.1,12.189,0,24.406,0,24.406,0,0,0,0-7.501,0-16.027,0-6.432-2.555-12.599-7.106-17.146-4.551-4.544-10.723-7.1-17.16-7.1-12.189,0-24.406,0-24.406,0,0,0,0,7.501,0,16.03Z" style="clip-rule: evenodd; fill: none;"/>
    </clipPath>
    <clipPath id="clippath-5">
      <path d="M119.454,26.77l14.578-10.615c8.052-5.863,8.962-17.524,1.917-24.563l-5.099-5.095h-22.79s-5.099,5.095-5.099,5.095c-7.045,7.039-6.135,18.7,1.917,24.563l14.578,10.615Z" style="clip-rule: evenodd; fill: none;"/>
    </clipPath>
    <clipPath id="clippath-6">
      <path d="M152.358,207.439c-1.779,0-3.476-.747-4.677-2.059-1.201-1.312-1.795-3.067-1.637-4.838,3.407-38.159,19.938-223.283,23.823-266.785.465-5.207,4.828-9.165,10.06-9.165h21.874c5.254,0,9.632,4.024,10.068,9.256l4.279,51.31h15.559c2.848,0,5.445,1.596,6.719,4.141,2.146,4.288,5.408,10.807,7.035,14.058.657,1.312,1.038,2.745,1.119,4.21.774,13.926,4.928,88.628,4.928,88.628,0,0,17.113,4.885,27.528,7.858,4.64,1.324,7.831,5.559,7.831,10.38v86.672c0,1.68-.668,3.291-1.857,4.478-1.189,1.188-2.801,1.855-4.482,1.855-13.722,0-117.739,0-128.171,0Z" style="clip-rule: evenodd; fill: none;"/>
    </clipPath>
    <clipPath id="clippath-7">
      <path d="M665.831.532s-34.07-30.162-41.357-36.612h-2.719c-7.287,6.45-41.357,36.612-41.357,36.612v33.873c0,.796.317,1.559.879,2.121.565.565,1.329.881,2.126.881h79.423c.797,0,1.56-.316,2.126-.881.563-.562.88-1.325.88-2.121V.532Z" style="clip-rule: evenodd; fill: none;"/>
    </clipPath>
    <clipPath id="clippath-8">
      <path d="M561.031,43.792h18.181s4.927,44.959,4.927,44.959c.273,2.492-1.68,4.668-4.189,4.668h-19.747c-2.512,0-4.466-2.182-4.188-4.677l5.015-44.95Z" style="fill: none;"/>
    </clipPath>
    <clipPath id="clippath-9">
      <path d="M570.077,42.158c0,6.428-2.555,12.596-7.106,17.143-4.551,4.547-10.723,7.1-17.16,7.1-12.189,0-24.406,0-24.406,0,0,0,0-7.501,0-16.027,0-6.432,2.555-12.599,7.106-17.146,4.551-4.544,10.723-7.1,17.16-7.1,12.189,0,24.406,0,24.406,0,0,0,0,7.501,0,16.03Z" style="clip-rule: evenodd; fill: none;"/>
    </clipPath>
    <clipPath id="clippath-10">
      <path d="M570.077,42.158c0,6.428,2.555,12.596,7.106,17.143,4.551,4.547,10.723,7.1,17.16,7.1,12.189,0,24.406,0,24.406,0,0,0,0-7.501,0-16.027,0-6.432-2.555-12.599-7.106-17.146-4.551-4.544-10.723-7.1-17.16-7.1-12.189,0-24.406,0-24.406,0,0,0,0,7.501,0,16.03Z" style="clip-rule: evenodd; fill: none;"/>
    </clipPath>
    <clipPath id="clippath-12">
      <path d="M570.063,66.401l14.578-10.615c8.052-5.863,8.962-17.524,1.917-24.563l-5.099-5.095h-22.79s-5.099,5.095-5.099,5.095c-7.045,7.039-6.135,18.7,1.917,24.563l14.578,10.615Z" style="clip-rule: evenodd; fill: none;"/>
    </clipPath>
    <clipPath id="clippath-13">
      <path d="M800.207.532s-34.07-30.162-41.357-36.612h-2.719c-7.287,6.45-41.357,36.612-41.357,36.612v33.873c0,.796.317,1.559.879,2.121.565.565,1.329.881,2.126.881h79.423c.797,0,1.56-.316,2.126-.881.563-.562.88-1.325.88-2.121V.532Z" style="clip-rule: evenodd; fill: none;"/>
    </clipPath>
    <clipPath id="clippath-14">
      <path d="M725.485,43.792h18.181s4.927,44.959,4.927,44.959c.273,2.492-1.68,4.668-4.189,4.668h-19.747c-2.512,0-4.466-2.182-4.188-4.677l5.015-44.95Z" style="fill: none;"/>
    </clipPath>
    <clipPath id="clippath-15">
      <path d="M734.53,42.158c0,6.428-2.555,12.596-7.106,17.143-4.551,4.547-10.723,7.1-17.16,7.1-12.189,0-24.406,0-24.406,0,0,0,0-7.501,0-16.027,0-6.432,2.555-12.599,7.106-17.146,4.551-4.544,10.723-7.1,17.16-7.1,12.189,0,24.406,0,24.406,0,0,0,0,7.501,0,16.03Z" style="clip-rule: evenodd; fill: none;"/>
    </clipPath>
    <clipPath id="clippath-16">
      <path d="M734.53,42.158c0,6.428,2.555,12.596,7.106,17.143,4.551,4.547,10.723,7.1,17.16,7.1,12.189,0,24.406,0,24.406,0,0,0,0-7.501,0-16.027,0-6.432-2.555-12.599-7.106-17.146-4.551-4.544-10.723-7.1-17.16-7.1-12.189,0-24.406,0-24.406,0,0,0,0,7.501,0,16.03Z" style="clip-rule: evenodd; fill: none;"/>
    </clipPath>
    <clipPath id="clippath-18">
      <path d="M734.517,66.401l14.578-10.615c8.052-5.863,8.962-17.524,1.917-24.563l-5.099-5.095h-22.79s-5.099,5.095-5.099,5.095c-7.045,7.039-6.135,18.7,1.917,24.563l14.578,10.615Z" style="clip-rule: evenodd; fill: none;"/>
    </clipPath>
    <clipPath id="clippath-19">
      <path d="M646.734,92.675h18.181s4.927,44.959,4.927,44.959c.273,2.492-1.68,4.668-4.189,4.668h-19.747c-2.512,0-4.466-2.182-4.188-4.677l5.015-44.95Z" style="fill: none;"/>
    </clipPath>
    <clipPath id="clippath-20">
      <path d="M655.78,91.041c0,6.428-2.555,12.596-7.106,17.143-4.551,4.547-10.723,7.1-17.16,7.1-12.189,0-24.406,0-24.406,0,0,0,0-7.501,0-16.027,0-6.432,2.555-12.599,7.106-17.146,4.551-4.544,10.723-7.1,17.16-7.1,12.189,0,24.406,0,24.406,0,0,0,0,7.501,0,16.03Z" style="clip-rule: evenodd; fill: none;"/>
    </clipPath>
    <clipPath id="clippath-21">
      <path d="M655.78,91.041c0,6.428,2.555,12.596,7.106,17.143,4.551,4.547,10.723,7.1,17.16,7.1,12.189,0,24.406,0,24.406,0,0,0,0-7.501,0-16.027,0-6.432-2.555-12.599-7.106-17.146-4.551-4.544-10.723-7.1-17.16-7.1-12.189,0-24.406,0-24.406,0,0,0,0,7.501,0,16.03Z" style="clip-rule: evenodd; fill: none;"/>
    </clipPath>
    <clipPath id="clippath-23">
      <path d="M655.766,115.284l14.578-10.615c8.052-5.863,8.962-17.524,1.917-24.563l-5.099-5.095h-22.79s-5.099,5.095-5.099,5.095c-7.045,7.039-6.135,18.7,1.917,24.563l14.578,10.615Z" style="clip-rule: evenodd; fill: none;"/>
    </clipPath>
    <clipPath id="clippath-24">
      <path d="M87.912,108.97c.852.488,1.507,1.259,1.849,2.179,1.21,3.253,4.072,10.948,4.072,10.948l-3.068,2.301s-3.589-8.973-4.428-11.071c-.113-.282-.316-.519-.578-.673-2.118-1.256-11.87-7.036-11.87-7.036l.767-4.231s9.668,5.532,13.255,7.585Z" style="clip-rule: evenodd; fill: none;"/>
    </clipPath>
    <clipPath id="clippath-25">
      <path d="M71.898,111.67c-.65.881-1.77,1.281-2.832,1.011-3.222-.819-9.75-2.48-9.75-2.48l.767-3.78,9.306,2.444,11.405-16.684,1.534,5.37s-7.57,10.249-10.43,14.12Z" style="clip-rule: evenodd; fill: none;"/>
    </clipPath>
  </defs>
  <g style="clip-path: url(#clippath);">
    <rect x="-10.125" y="-278.498" width="1520.249" height="3053.416" style="fill: #61d1d5;"/>
    <path d="M1209.742-583.582c-76.136,0-138.076,61.941-138.076,138.077,0,9.374-7.626,17-17,17h-106.263c-9.374,0-17-7.626-17-17v-2.009c0-36.943-30.057-67-67-67h-75.775c-41.992,0-76.156-34.163-76.156-76.156v-85.988c0-34.188-27.813-62-62-62h-144.932c-34.187,0-62,27.812-62,62v1.583c0,6.616-5.383,12-12,12h-77.199c-41.355,0-75,33.645-75,75v1.615c0,6.616-5.383,12-12,12H-56.875v1900.227h125.29c19.299,0,35,15.701,35,35v28.562c0,46.869,38.131,85,85,85h282.678c46.869,0,85-38.131,85-85v-4.012c0-19.299,15.701-35,35-35h100.898c106.145,0,192.5-86.354,192.5-192.5,0-13.785,11.215-25,25-25h189.302c13.785,0,25,11.215,25,25v6.941c0,13.785-11.215,25-25,25h-1.646c-41.355,0-75,33.646-75,75.001v134.569c0,41.355,33.645,75,75,75h68.108c41.355,0,75-33.645,75-75,0-34.095,27.737-61.833,61.832-61.833h254.837V-583.582h-347.181Z" style="fill: #7ee6e4;"/>
    <path d="M1045.191-8.972h0c0-51.28,41.571-92.851,92.85-92.851h57.665c32.387,0,58.642-26.255,58.642-58.642h0c0-32.387,26.255-58.642,58.642-58.642h218.932v-339.474h-322.181c-62.45,0-113.076,50.626-113.076,113.076h0c0,23.196-18.804,42-42,42h-106.262c-23.196,0-42-18.804-42-42v-2.009c0-23.196-18.804-42-42-42h-75.776c-55.867,0-101.156-45.289-101.156-101.156v-85.988c0-20.435-16.565-37-37-37h-144.932c-20.435,0-37,16.565-37,37v1.583c0,20.435-16.565,37-37,37h-77.199c-27.614,0-50,22.386-50,50v1.615c0,20.435-16.565,37-37,37H-31.875v1850.227h100.289c33.137,0,60,26.863,60,60v28.561c0,33.137,26.863,60,60,60h282.678c33.137,0,60-26.863,60-60v-4.011c0-33.137,26.863-60,60-60h100.898c92.508,0,167.5-74.992,167.5-167.5h0c0-27.614,22.386-50,50-50h189.302c27.614,0,50,22.386,50,50v6.942c0,27.614-22.386,50-50,50h-1.647c-27.614,0-50,22.386-50,50v134.57c0,27.614,22.386,50,50,50h68.108c27.614,0,50-22.386,50-50h0c0-47.956,38.876-86.832,86.832-86.832h229.837v-328.037c0-39.064-31.668-70.732-70.732-70.732h-323.15c-50.932,0-92.285-41.008-92.845-91.807-.004-.347-.006-830.544-.006-830.892Z" style="fill: #fbed97;"/>
    <g>
      <path d="M1209.742-498.581c-29.313,0-53.076,23.763-53.076,53.076h0c0,56.333-45.667,102-102,102h-353.588c-40.652,0-73.606-32.955-73.606-73.606v-210.547c0-14.359-11.641-26-26-26h-56.442c-10.394,0-19.895,6.146-23.89,15.742-14.612,35.099-49.272,59.841-89.6,59.841h-46.653c-11.17,0-21.157,7.295-24.204,18.042-11.534,40.685-49.013,70.574-93.342,70.574H-1.979l-11.374,1742.34,115.314-.491c49.895,14.55,86.454,60.7,86.454,115.229v.695c.001,13.259,10.754,24.004,24.013,23.997l236.679-.131c11.698-.007,21.708-8.443,23.64-19.98,9.508-56.77,58.875-100.032,118.346-100.032h100.898c59.37,0,107.5-48.129,107.5-107.5h0c0-60.752,49.249-110,110-110h189.003c21.384,0,38.798-17.186,39.08-38.568h0c.246-18.686-12.768-34.942-31.062-38.758-28.801-6.009-55.263-20.244-76.552-41.532-28.243-28.244-44.073-65.595-44.746-105.431-.015-.883-.022-838.466-.022-839.351,0-40.828,15.899-79.212,44.769-108.081,28.87-28.869,67.254-44.769,108.082-44.769h28.622c14.589,0,27.327-10.069,30.48-24.313,11.76-53.123,59.237-92.972,115.846-92.972h312.76v-219.474h-416.008Z" style="fill: #62c244;"/>
      <g>
        <line x1="-2.045" y1="-479.447" x2="-13.321" y2="1247.874" style="fill: none; stroke: #62c244; stroke-dasharray: 0 10.014; stroke-linecap: round; stroke-linejoin: round; stroke-width: 10px;"/>
        <path d="M-3.347,1252.838l105.307-.449c49.895,14.55,86.454,60.7,86.454,115.229v.695c.001,13.259,10.754,24.004,24.013,23.997l236.679-.131c11.698-.007,21.708-8.443,23.64-19.98,9.508-56.77,58.875-100.032,118.346-100.032h100.898c59.37,0,107.5-48.129,107.5-107.5h0c0-60.751,49.249-110,110-110h189.003c21.384,0,38.798-17.186,39.08-38.568.246-18.686-12.768-34.942-31.062-38.758-28.801-6.009-55.263-20.244-76.552-41.532-28.243-28.244-44.073-65.594-44.746-105.431-.015-.882-.022-838.466-.022-839.351,0-40.828,15.899-79.212,44.769-108.081,28.87-28.869,67.254-44.769,108.082-44.769h28.623c14.589,0,27.327-10.069,30.48-24.313,11.76-53.123,59.237-92.972,115.846-92.972h307.757" style="fill: none; stroke: #62c244; stroke-dasharray: 0 10.007; stroke-linecap: round; stroke-linejoin: round; stroke-width: 10px;"/>
      </g>
    </g>
    <g>
      <path d="M914.223-168.219V82.351c0,30.12-24.417,54.537-54.537,54.537h-80.08c-29.292,0-53.038,23.746-53.038,53.038v153.905c0,29.292-23.746,53.038-53.038,53.038h-183.486c-37.785,0-68.416,30.631-68.416,68.416h0c0,37.785-30.631,68.416-68.416,68.416h-33.231c-37.785,0-68.416-30.631-68.416-68.416v-84.054c0-37.785-30.631-68.416-68.416-68.416H5.265c-15.114,0-27.366-12.252-27.366-27.366V-427.962h290.764c35.899,0,65,29.101,65,65v20.473c0,35.899,29.101,65,65,65h257.533c15.114,0,27.366,12.252,27.366,27.366h0c0,15.114,12.252,27.366,27.366,27.366h148.757c30.12,0,54.537,24.417,54.537,54.537Z" style="fill: #52ab35;"/>
      <path d="M-12.116-427.962h280.778c35.898,0,65,29.101,65,65v20.473c0,35.898,29.101,65,65,65h257.533c15.114,0,27.366,12.252,27.366,27.366s12.252,27.366,27.366,27.366h148.757c30.12,0,54.537,24.417,54.537,54.537V82.351c0,30.12-24.417,54.537-54.537,54.537h-80.08c-29.292,0-53.038,23.746-53.038,53.038v153.905c0,29.292-23.746,53.038-53.038,53.038h-183.486c-37.785,0-68.416,30.631-68.416,68.416s-30.631,68.416-68.416,68.416h-33.231c-37.785,0-68.416-30.631-68.416-68.416v-84.054c0-37.785-30.631-68.416-68.416-68.416H5.265c-15.114,0-27.366-12.252-27.366-27.366V-422.969" style="fill: none; stroke: #52ab35; stroke-dasharray: 0 9.986; stroke-linecap: round; stroke-linejoin: round; stroke-width: 10px;"/>
    </g>
    <g style="opacity: .331;">
      <path d="M320.52,52.875c1.232,0,2.231-1,2.231-2.236v-7.001c0-1.236-.999-2.236-2.231-2.236-1.232,0-2.231,1-2.231,2.236v7.001c0,1.236.999,2.236,2.231,2.236Z" style="fill: #00703a;"/>
      <path d="M311.206,52.875c1.232,0,2.231-1,2.231-2.236v-4.667c0-1.236-.999-2.236-2.231-2.236-1.232,0-2.231,1-2.231,2.236v4.667c0,1.236.999,2.236,2.231,2.236Z" style="fill: #00703a;"/>
      <path d="M329.058,52.875c1.232,0,2.231-1,2.231-2.236v-4.667c0-1.236-.999-2.236-2.231-2.236-1.232,0-2.231,1-2.231,2.236v4.667c0,1.236.999,2.236,2.231,2.236Z" style="fill: #00703a;"/>
      <path d="M295.39,71.353c1.232,0,2.231-1,2.231-2.236v-7.001c0-1.236-.999-2.236-2.231-2.236-1.232,0-2.231,1-2.231,2.236v7.001c0,1.236.999,2.236,2.231,2.236Z" style="fill: #00703a;"/>
      <path d="M286.075,71.353c1.232,0,2.231-1,2.231-2.236v-4.669c0-1.236-.999-2.236-2.231-2.236s-2.231,1-2.231,2.236v4.669c0,1.236.999,2.236,2.231,2.236Z" style="fill: #00703a;"/>
      <path d="M303.927,71.353c1.232,0,2.231-1,2.231-2.236v-4.669c0-1.236-.999-2.236-2.231-2.236-1.232,0-2.231,1-2.231,2.236v4.669c0,1.236.999,2.236,2.231,2.236Z" style="fill: #00703a;"/>
      <path d="M286.756,32.648c1.232,0,2.231-1,2.231-2.236v-7.001c0-1.236-.999-2.236-2.231-2.236s-2.231,1-2.231,2.236v7.001c0,1.236.999,2.236,2.231,2.236Z" style="fill: #00703a;"/>
      <path d="M277.441,32.648c1.232,0,2.231-1,2.231-2.236v-4.669c0-1.236-.999-2.236-2.231-2.236-1.232,0-2.231,1-2.231,2.236v4.669c0,1.236.999,2.236,2.231,2.236Z" style="fill: #00703a;"/>
      <path d="M295.294,32.648c1.232,0,2.231-1,2.231-2.236v-4.669c0-1.236-.999-2.236-2.231-2.236-1.232,0-2.231,1-2.231,2.236v4.669c0,1.236.999,2.236,2.231,2.236Z" style="fill: #00703a;"/>
    </g>
    <g>
      <g>
        <rect x="497.768" y="126.584" width="35.002" height="4.041" rx="2.02" ry="2.02" style="fill: #52aa35;"/>
        <g>
          <line x1="527.693" y1="93.618" x2="527.693" y2="128.14" style="fill: none; stroke: #dac97b; stroke-miterlimit: 10; stroke-width: 1.844px;"/>
          <rect x="504.44" y="110.248" width="4.082" height="10.229" style="fill: #dc5b8a;"/>
          <rect x="504.44" y="120.477" width="4.082" height="6.845" style="fill: #dc5b8a;"/>
          <rect x="510.564" y="110.248" width="4.082" height="10.229" style="fill: #dc5b8a;"/>
          <rect x="510.564" y="120.477" width="4.082" height="6.845" style="fill: #dc5b8a;"/>
          <rect x="510.564" y="127.322" width="6.124" height="1.637" style="fill: #dc5b8a;"/>
          <rect x="502.399" y="127.322" width="6.124" height="1.637" style="fill: #dc5b8a;"/>
          <path d="M499.848,84.597c0-1.482,1.199-2.684,2.678-2.684h13.423c1.479,0,2.678,1.202,2.678,2.684v20.726h-18.779v-20.726Z" style="fill: #102220; fill-rule: evenodd;"/>
          <path d="M504.741,96.791c.097-.049.209-.059.312-.025.103.033.189.107.239.203.267.523.754,1.479,1.021,2.002.049.097.058.209.025.313-.033.104-.106.19-.203.24-1.716.88-8.904,4.563-8.904,4.563l-1.394-2.732s7.188-3.684,8.904-4.563Z" style="fill: #dc5b8a; fill-rule: evenodd;"/>
          <path d="M512.611,99.387c-.089-.063-.148-.159-.166-.266-.018-.107.008-.217.072-.306.341-.477.966-1.35,1.308-1.828.064-.089.159-.149.267-.167.107-.018.217.008.306.071,1.567,1.122,8.132,5.821,8.132,5.821l-1.786,2.496s-6.565-4.699-8.132-5.821Z" style="fill: #dc5b8a; fill-rule: evenodd;"/>
          <path d="M506.014,106.115c.123.069.214.185.253.32.039.136.022.282-.047.406-.273.49-.699,1.257-.972,1.748-.069.123-.184.215-.32.254-.136.038-.282.022-.405-.047-1.856-1.037-8.629-4.818-8.629-4.818l1.49-2.68s6.773,3.782,8.629,4.818Z" style="fill: #dc5b8a; fill-rule: evenodd;"/>
          <path d="M497.977,103.384c.411-.74.146-1.675-.592-2.086-.738-.412-1.671-.146-2.082.594-.411.74-.146,1.675.592,2.086.738.412,1.671.147,2.082-.594Z" style="fill: #dc5b8a; fill-rule: evenodd;"/>
          <g>
            <circle cx="521.612" cy="103.93" r="1.534" transform="translate(.695 211.29) rotate(-22.914)" style="fill: #dc5b8a;"/>
            <path d="M528.521,96.583c.111-.087.253-.126.394-.109.14.017.268.089.355.201.344.441.884,1.132,1.229,1.574.086.111.126.253.108.393-.017.14-.09.268-.202.355-1.68,1.307-7.81,6.081-7.81,6.081l-1.885-2.414s6.131-4.774,7.811-6.082Z" style="fill: #dc5b8a; fill-rule: evenodd;"/>
          </g>
          <path d="M504.44,97.366c0-.165.065-.323.181-.439.116-.116.273-.181.437-.181h8.969c.165,0,.321.065.437.181.116.116.182.274.182.439v12.883h-10.206v-12.883Z" style="fill: #dc5b8a; fill-rule: evenodd;"/>
          <rect x="507.502" y="94.699" width="4.082" height="2.046" style="fill: #dc5b8a;"/>
          <rect x="507.502" y="94.699" width="4.082" height="1.023" style="fill: #ba3f6f;"/>
          <path d="M503.062,87.793c0-.49.194-.96.54-1.307.346-.347.815-.542,1.304-.542h9.681c.489,0,.958.195,1.305.542.346.346.54.817.54,1.307v5.058c0,.49-.194.96-.54,1.307-.346.347-.816.542-1.305.542h-9.681c-.489,0-.958-.195-1.304-.542-.346-.346-.54-.817-.54-1.307v-5.058Z" style="fill: #dc5b8a; fill-rule: evenodd;"/>
          <path d="M502.076,88.705c-1.2-.03-2.198.923-2.228,2.125-.03,1.202.92,2.203,2.12,2.233,1.2.03,2.198-.922,2.228-2.125.03-1.202-.92-2.203-2.12-2.233Z" style="fill: #dc5b8a; fill-rule: evenodd;"/>
          <path d="M503.052,88.959h2.089c.74,0,1.34-.602,1.34-1.344v-1.725h-3.429v3.069Z" style="fill: #102220; fill-rule: evenodd;"/>
          <path d="M510.884,88.959h6.416v-3.069h-7.757v1.725c0,.742.6,1.344,1.34,1.344Z" style="fill: #102220; fill-rule: evenodd;"/>
          <path d="M507.06,89.697h.884c.122,0,.222.099.222.222v2.243c0,.122-.099.222-.222.222h-.884c-.122,0-.221-.099-.221-.221v-2.243c0-.123.1-.222.222-.222Z" style="fill: #0d1c1c;"/>
          <rect x="512.553" y="89.697" width="1.328" height="2.687" rx=".222" ry=".222" style="fill: #0d1c1c;"/>
          <g>
            <polygon points="503.616 116.554 516.055 119.682 514.646 110.248 504.44 110.248 503.616 116.554" style="fill: #62c244; fill-rule: evenodd;"/>
            <g>
              <line x1="503.616" y1="116.554" x2="503.616" y2="116.554" style="fill: none; stroke: #62c244; stroke-linecap: round; stroke-linejoin: round; stroke-width: 1.844px;"/>
              <line x1="505.393" y1="117.001" x2="515.167" y2="119.459" style="fill: none; stroke: #62c244; stroke-dasharray: 0 1.832; stroke-linecap: round; stroke-linejoin: round; stroke-width: 1.844px;"/>
              <line x1="516.055" y1="119.682" x2="516.055" y2="119.682" style="fill: none; stroke: #62c244; stroke-linecap: round; stroke-linejoin: round; stroke-width: 1.844px;"/>
              <line x1="515.773" y1="117.795" x2="514.787" y2="111.191" style="fill: none; stroke: #62c244; stroke-dasharray: 0 1.908; stroke-linecap: round; stroke-linejoin: round; stroke-width: 1.844px;"/>
              <line x1="514.646" y1="110.248" x2="514.646" y2="110.248" style="fill: none; stroke: #62c244; stroke-linecap: round; stroke-linejoin: round; stroke-width: 1.844px;"/>
              <line x1="512.945" y1="110.248" x2="505.291" y2="110.248" style="fill: none; stroke: #62c244; stroke-dasharray: 0 1.701; stroke-linecap: round; stroke-linejoin: round; stroke-width: 1.844px;"/>
              <line x1="504.44" y1="110.248" x2="504.44" y2="110.248" style="fill: none; stroke: #62c244; stroke-linecap: round; stroke-linejoin: round; stroke-width: 1.844px;"/>
              <line x1="504.166" y1="112.35" x2="503.754" y2="115.503" style="fill: none; stroke: #62c244; stroke-dasharray: 0 2.12; stroke-linecap: round; stroke-linejoin: round; stroke-width: 1.844px;"/>
            </g>
          </g>
          <circle cx="527.693" cy="92.384" r="1.809" style="fill: none; stroke: #dac97b; stroke-miterlimit: 10; stroke-width: 1.844px;"/>
        </g>
      </g>
      <g>
        <g>
          <g>
            <path d="M110.422,4.162h18.181s4.927,44.959,4.927,44.959c.273,2.492-1.68,4.668-4.189,4.668h-19.747c-2.512,0-4.466-2.182-4.188-4.677l5.015-44.95Z" style="fill: #6b4c46;"/>
            <g style="clip-path: url(#clippath-1);">
              <path d="M119.454,36.66l14.862-10.822c8.209-5.977,9.137-17.867,1.954-25.043l-5.199-5.195h-23.236s-5.199,5.195-5.199,5.195c-7.183,7.177-6.255,19.066,1.954,25.043l14.862,10.822Z" style="fill: #594237; fill-rule: evenodd;"/>
            </g>
          </g>
          <g>
            <g>
              <path d="M119.468,2.528c0,6.428-2.555,12.596-7.106,17.143-4.551,4.547-10.723,7.1-17.16,7.1-12.189,0-24.406,0-24.406,0,0,0,0-7.501,0-16.027,0-6.432,2.555-12.599,7.106-17.146,4.551-4.544,10.723-7.1,17.16-7.1,12.189,0,24.406,0,24.406,0,0,0,0,7.501,0,16.03Z" style="fill: #abc02e; fill-rule: evenodd;"/>
              <g style="clip-path: url(#clippath-2);">
                <polygon points="119.468 -13.503 65.152 32.922 119.468 32.922 119.468 -13.503" style="fill: #839d24; fill-rule: evenodd;"/>
                <rect x="63.727" y="3.306" width="62.808" height="6.08" transform="translate(17.436 61.606) rotate(-39.239)" style="fill: #bdd033;"/>
                <path d="M91.075,29.396h6.084s0-6.31,0-10.225c0-1.678-1.363-3.039-3.042-3.039-1.679,0-3.042,1.362-3.042,3.039,0,3.915,0,10.225,0,10.225Z" style="fill: #4d7c3d; fill-rule: evenodd; opacity: .5;"/>
                <path d="M103.243,29.846h6.084s0-13.881,0-20.176c0-1.678-1.36-3.036-3.039-3.036h-.006c-1.679,0-3.039,1.359-3.039,3.036,0,6.295,0,20.176,0,20.176Z" style="fill: #4d7c3d; fill-rule: evenodd; opacity: .5;"/>
                <path d="M70.795,9.731V3.974s5.689,0,9.287,0c.764,0,1.497.304,2.038.845.538.538.843,1.27.843,2.033h0c0,.766-.304,1.495-.843,2.036-.542.541-1.275.842-2.038.842-3.599,0-9.287,0-9.287,0Z" style="fill: #839d24; fill-rule: evenodd; opacity: .75;"/>
              </g>
            </g>
            <g>
              <path d="M119.468,2.528c0,6.428,2.555,12.596,7.106,17.143,4.551,4.547,10.723,7.1,17.16,7.1,12.189,0,24.406,0,24.406,0,0,0,0-7.501,0-16.027,0-6.432-2.555-12.599-7.106-17.146-4.551-4.544-10.723-7.1-17.16-7.1-12.189,0-24.406,0-24.406,0,0,0,0,7.501,0,16.03Z" style="fill: #abc02e; fill-rule: evenodd;"/>
              <g style="clip-path: url(#clippath-3);">
                <polygon points="119.468 -13.503 173.783 32.922 119.468 32.922 119.468 -13.503" style="fill: #839d24; fill-rule: evenodd;"/>
                <rect x="140.764" y="-25.058" width="6.08" height="62.808" transform="translate(47.999 113.776) rotate(-50.801)" style="fill: #bdd033;"/>
                <path d="M147.86,29.396h-6.084s0-6.31,0-10.225c0-1.678,1.363-3.039,3.042-3.039,1.679,0,3.042,1.362,3.042,3.039,0,3.915,0,10.225,0,10.225Z" style="fill: #4d7c3d; fill-rule: evenodd; opacity: .5;"/>
                <path d="M135.692,29.846h-6.084s0-13.878,0-20.173c0-.805.319-1.577.891-2.149.569-.568,1.345-.891,2.151-.891.806,0,1.582.322,2.151.891.572.571.891,1.343.891,2.149,0,6.295,0,20.173,0,20.173Z" style="fill: #4d7c3d; fill-rule: evenodd; opacity: .5;"/>
                <path d="M168.14,10.053V3.974s-5.524,0-9.129,0c-.806,0-1.579.319-2.148.891-.572.568-.891,1.34-.891,2.146v.006c0,.805.319,1.577.891,2.149.569.568,1.342.888,2.148.888,3.605,0,9.129,0,9.129,0Z" style="fill: #839d24; fill-rule: evenodd; opacity: .75;"/>
              </g>
            </g>
            <g>
              <path d="M119.454,26.77l14.578-10.615c8.052-5.863,8.962-17.524,1.917-24.563l-5.099-5.095h-22.79s-5.099,5.095-5.099,5.095c-7.045,7.039-6.135,18.7,1.917,24.563l14.578,10.615Z" style="fill: #bdd033; fill-rule: evenodd;"/>
              <g style="clip-path: url(#clippath-5);">
                <rect x="96.455" y="-15.348" width="22.999" height="43.615" transform="translate(215.909 12.92) rotate(-180)" style="fill: #839d24;"/>
                <rect x="116.424" y="-17.893" width="6.084" height="53.015" style="fill: #d6e23d;"/>
                <g>
                  <g style="opacity: .5;">
                    <path d="M141.038,8.704c.99,0,1.965-.483,2.547-1.371.923-1.405.531-3.289-.875-4.209l-12.366-8.105c-1.406-.926-3.292-.526-4.211.873-.923,1.405-.531,3.289.875,4.209l12.366,8.105c.515.338,1.093.499,1.664.499Z" style="fill: #839d24;"/>
                  </g>
                  <g style="opacity: .5;">
                    <path d="M97.898,8.704c.57,0,1.149-.16,1.664-.499L111.924.1c1.406-.92,1.798-2.804.875-4.209-.919-1.399-2.792-1.801-4.211-.873l-12.362,8.105c-1.406.92-1.798,2.804-.875,4.209.582.888,1.557,1.371,2.547,1.371Z" style="fill: #4d7c3d;"/>
                  </g>
                  <path d="M141.038,22.564c.99,0,1.965-.483,2.547-1.371.923-1.405.531-3.289-.875-4.209l-12.366-8.105c-1.406-.926-3.292-.526-4.211.873-.923,1.405-.531,3.289.875,4.209l12.366,8.105c.515.338,1.093.499,1.664.499Z" style="fill: #839d24; opacity: .5;"/>
                  <g style="opacity: .5;">
                    <path d="M97.898,22.564c.57,0,1.149-.16,1.664-.499l12.362-8.105c1.406-.92,1.798-2.804.875-4.209-.919-1.399-2.792-1.801-4.211-.873l-12.362,8.105c-1.406.92-1.798,2.804-.875,4.209.582.888,1.557,1.371,2.547,1.371Z" style="fill: #4d7c3d;"/>
                  </g>
                </g>
              </g>
            </g>
          </g>
        </g>
        <line x1="94.754" y1="53.788" x2="144.182" y2="53.249" style="fill: #52ab35; stroke: #52ab35; stroke-dasharray: 0 10; stroke-linecap: round; stroke-linejoin: round; stroke-width: 10px;"/>
      </g>
      <g>
        <path d="M152.358,207.439c-1.779,0-3.476-.747-4.677-2.059-1.201-1.312-1.795-3.067-1.637-4.838,3.407-38.159,19.938-223.283,23.823-266.785.465-5.207,4.828-9.165,10.06-9.165h21.874c5.254,0,9.632,4.024,10.068,9.256l4.279,51.31h15.559c2.848,0,5.445,1.596,6.719,4.141,2.146,4.288,5.408,10.807,7.035,14.058.657,1.312,1.038,2.745,1.119,4.21.774,13.926,4.928,88.628,4.928,88.628,0,0,17.113,4.885,27.528,7.858,4.64,1.324,7.831,5.559,7.831,10.38v86.672c0,1.68-.668,3.291-1.857,4.478-1.189,1.188-2.801,1.855-4.482,1.855-13.722,0-117.739,0-128.171,0Z" style="fill: #787186; fill-rule: evenodd;"/>
        <path d="M181.904,126.293c0-5.575,4.523-10.094,10.103-10.094,5.58,0,10.103,4.519,10.103,10.094,0,23.178,0,81.147,0,81.147h-20.206s0-57.969,0-81.147Z" style="fill: #675e7e; fill-rule: evenodd;"/>
        <g style="clip-path: url(#clippath-6);">
          <path d="M130.067-60.236v-43.743c0-5.068,4.112-9.177,9.184-9.177h1.685c5.072,0,9.184-4.109,9.184-9.177v-31.164c0-5.068,4.112-9.177,9.184-9.177h7.342c5.072,0,9.184-4.109,9.184-9.177v-19.766c0-5.068,4.112-9.177,9.184-9.177h23.025c5.072,0,9.184,4.109,9.184,9.177l-.002,101.381c0,4.918,3.989,8.905,8.912,8.905h.231c5.118,0,9.231-4.069,9.231-9.138,0-8.621,0-21.473-.001-30.093,0-5.068,4.112-9.137,9.184-9.137h23.025c5.072,0,9.184,4.109,9.184,9.177v22.383c0,5.068,4.112,9.177,9.184,9.177h4.656c5.072,0,9.184,4.109,9.184,9.177v230.973c0,5.068-4.112,9.177-9.184,9.177h-9.557c-5.072,0-9.184-4.109-9.184-9.177v-22.383c0-5.068-4.112-9.177-9.184-9.177h-23.844c-11.159,0-20.206-9.039-20.206-20.189v-46.071c0-5.068-4.112-9.177-9.184-9.177h-5.2c-5.072,0-9.184-4.109-9.184-9.177V12.554c0-5.068-4.112-9.177-9.184-9.177h.249c-5.072,0-9.184,4.109-9.184,9.177v64.923c0,5.068-4.112,9.177-9.184,9.177h-3.432c-5.072,0-9.184,4.109-9.184,9.177l-2.698,31.164c0,5.068-4.112,9.177-9.184,9.177h-7.073c-5.072,0-9.184,4.109-9.184,9.177v43.743c0,5.068-4.112,9.177-9.184,9.177h-4.229c-5.072,0-9.184-4.109-9.184-9.177V-41.883c0-5.068,4.112-9.177,9.184-9.177h7.073c5.072,0,9.184-4.109,9.184-9.177Z" style="fill: #3d8850; fill-rule: evenodd;"/>
          <path d="M214.915,5.284c-5.58,0-10.103-4.519-10.103-10.094s4.523-10.094,10.103-10.094c16.639,0,47.988,0,47.988,0V5.284s-31.349,0-47.988,0Z" style="fill: #2d693a; fill-rule: evenodd;"/>
          <path d="M242.683,93.707c-5.371-1.512-8.498-7.087-6.984-12.454,1.513-5.366,7.093-8.49,12.464-6.978,16.016,4.509,46.19,13.003,46.19,13.003l-5.48,19.432s-30.174-8.495-46.19-13.003Z" style="fill: #2d693a; fill-rule: evenodd;"/>
        </g>
      </g>
      <g>
        <g>
          <path d="M665.831.532s-34.07-30.162-41.357-36.612h-2.719c-7.287,6.45-41.357,36.612-41.357,36.612v33.873c0,.796.317,1.559.879,2.121.565.565,1.329.881,2.126.881h79.423c.797,0,1.56-.316,2.126-.881.563-.562.88-1.325.88-2.121V.532Z" style="fill: #fbeb8c; fill-rule: evenodd;"/>
          <g style="clip-path: url(#clippath-7);">
            <rect x="577.885" y="-.251" width="90.459" height="7.532" style="fill: #f2d861;"/>
            <rect x="577.885" y="29.876" width="90.459" height="7.532" style="fill: #f2d861;"/>
            <rect x="577.885" y="14.812" width="90.459" height="7.532" style="fill: #f2d861;"/>
            <polyline points="576.629 6.899 623.115 -31.634 670.06 7.28" style="fill: none; stroke: #cfb43a; stroke-linejoin: bevel; stroke-width: 7.535px;"/>
          </g>
          <rect x="615.576" y="17.323" width="15.076" height="20.085" style="fill: #434032;"/>
          <rect x="615.576" y="17.323" width="15.076" height="5.021" style="fill: #14130f;"/>
          <rect x="640.704" y="14.812" width="15.076" height="15.064" style="fill: #6dbaa1;"/>
          <rect x="590.449" y="14.812" width="15.076" height="15.064" style="fill: #6dbaa1;"/>
          <rect x="590.449" y="27.33" width="15.076" height="2.546" style="fill: #fff;"/>
          <rect x="640.704" y="27.33" width="15.076" height="2.546" style="fill: #fff;"/>
          <rect x="640.704" y="14.777" width="15.076" height="2.546" style="fill: #4e9980;"/>
          <rect x="590.449" y="14.777" width="15.076" height="2.546" style="fill: #4e9980;"/>
          <line x1="577.194" y1="1.004" x2="623.115" y2="-37.408" style="fill: none; stroke: #6a8c40; stroke-linecap: round; stroke-linejoin: round; stroke-width: 9.042px;"/>
          <line x1="669.035" y1="1.004" x2="623.115" y2="-37.408" style="fill: none; stroke: #6a8c40; stroke-linecap: round; stroke-linejoin: round; stroke-width: 9.042px;"/>
        </g>
        <line x1="575.515" y1="37.408" x2="671.345" y2="37.408" style="fill: #52ab35; stroke: #52ab35; stroke-dasharray: 0 10; stroke-linecap: round; stroke-linejoin: round; stroke-width: 10px;"/>
      </g>
      <g>
        <g>
          <g>
            <path d="M561.031,43.792h18.181s4.927,44.959,4.927,44.959c.273,2.492-1.68,4.668-4.189,4.668h-19.747c-2.512,0-4.466-2.182-4.188-4.677l5.015-44.95Z" style="fill: #6b4c46;"/>
            <g style="clip-path: url(#clippath-8);">
              <path d="M570.063,76.291l14.862-10.822c8.209-5.977,9.137-17.867,1.954-25.043l-5.199-5.195h-23.236s-5.199,5.195-5.199,5.195c-7.183,7.177-6.255,19.066,1.954,25.043l14.862,10.822Z" style="fill: #594237; fill-rule: evenodd;"/>
            </g>
          </g>
          <g>
            <g>
              <path d="M570.077,42.158c0,6.428-2.555,12.596-7.106,17.143-4.551,4.547-10.723,7.1-17.16,7.1-12.189,0-24.406,0-24.406,0,0,0,0-7.501,0-16.027,0-6.432,2.555-12.599,7.106-17.146,4.551-4.544,10.723-7.1,17.16-7.1,12.189,0,24.406,0,24.406,0,0,0,0,7.501,0,16.03Z" style="fill: #abc02e; fill-rule: evenodd;"/>
              <g style="clip-path: url(#clippath-9);">
                <polygon points="570.077 26.128 515.761 72.552 570.077 72.552 570.077 26.128" style="fill: #839d24; fill-rule: evenodd;"/>
                <rect x="514.336" y="42.936" width="62.808" height="6.08" transform="translate(93.972 355.575) rotate(-39.239)" style="fill: #bdd033;"/>
                <path d="M541.684,69.027h6.084s0-6.31,0-10.225c0-1.678-1.363-3.039-3.042-3.039-1.679,0-3.042,1.362-3.042,3.039,0,3.915,0,10.225,0,10.225Z" style="fill: #4d7c3d; fill-rule: evenodd; opacity: .5;"/>
                <path d="M553.852,69.477h6.084s0-13.881,0-20.176c0-1.678-1.36-3.036-3.039-3.036h-.006c-1.679,0-3.039,1.359-3.039,3.036,0,6.295,0,20.176,0,20.176Z" style="fill: #4d7c3d; fill-rule: evenodd; opacity: .5;"/>
                <path d="M521.404,49.361v-5.757s5.689,0,9.287,0c.764,0,1.497.304,2.038.845.538.538.843,1.27.843,2.033h0c0,.766-.304,1.495-.843,2.036-.542.541-1.275.842-2.038.842-3.599,0-9.287,0-9.287,0Z" style="fill: #839d24; fill-rule: evenodd; opacity: .75;"/>
                <path d="M521.404,37.526v-6.079s12.372,0,18.255,0c1.679,0,3.039,1.359,3.039,3.036v.006c0,1.678-1.36,3.036-3.039,3.036-5.883,0-18.255,0-18.255,0Z" style="fill: #839d24; fill-rule: evenodd; opacity: .75;"/>
              </g>
            </g>
            <g>
              <path d="M570.077,42.158c0,6.428,2.555,12.596,7.106,17.143,4.551,4.547,10.723,7.1,17.16,7.1,12.189,0,24.406,0,24.406,0,0,0,0-7.501,0-16.027,0-6.432-2.555-12.599-7.106-17.146-4.551-4.544-10.723-7.1-17.16-7.1-12.189,0-24.406,0-24.406,0,0,0,0,7.501,0,16.03Z" style="fill: #abc02e; fill-rule: evenodd;"/>
              <g style="clip-path: url(#clippath-10);">
                <polygon points="570.077 26.128 624.392 72.552 570.077 72.552 570.077 26.128" style="fill: #839d24; fill-rule: evenodd;"/>
                <rect x="591.373" y="14.572" width="6.08" height="62.808" transform="translate(183.103 477.56) rotate(-50.801)" style="fill: #bdd033;"/>
                <path d="M598.469,69.027h-6.084s0-6.31,0-10.225c0-1.678,1.363-3.039,3.042-3.039,1.679,0,3.042,1.362,3.042,3.039,0,3.915,0,10.225,0,10.225Z" style="fill: #4d7c3d; fill-rule: evenodd; opacity: .5;"/>
                <path d="M586.301,69.477h-6.084s0-13.878,0-20.173c0-.805.319-1.577.891-2.149.569-.568,1.345-.891,2.151-.891s1.582.322,2.151.891c.572.571.891,1.343.891,2.149,0,6.295,0,20.173,0,20.173Z" style="fill: #4d7c3d; fill-rule: evenodd; opacity: .5;"/>
                <path d="M618.749,49.684v-6.079s-5.524,0-9.129,0c-.806,0-1.579.319-2.148.891-.572.568-.891,1.34-.891,2.146v.006c0,.805.319,1.577.891,2.149.569.568,1.342.888,2.148.888,3.605,0,9.129,0,9.129,0Z" style="fill: #839d24; fill-rule: evenodd; opacity: .75;"/>
                <path d="M618.749,37.526v-6.079s-12.369,0-18.252,0c-.806,0-1.582.322-2.151.891-.572.571-.891,1.343-.891,2.149,0,.805.319,1.581.891,2.149.569.571,1.345.891,2.151.891,5.883,0,18.252,0,18.252,0Z" style="fill: #839d24; fill-rule: evenodd; opacity: .75;"/>
              </g>
            </g>
            <g>
              <path d="M570.063,66.401l14.578-10.615c8.052-5.863,8.962-17.524,1.917-24.563l-5.099-5.095h-22.79s-5.099,5.095-5.099,5.095c-7.045,7.039-6.135,18.7,1.917,24.563l14.578,10.615Z" style="fill: #bdd033; fill-rule: evenodd;"/>
              <g style="clip-path: url(#clippath-12);">
                <rect x="547.064" y="24.282" width="22.999" height="43.615" transform="translate(1117.1273 92.18) rotate(-180)" style="fill: #839d24;"/>
                <rect x="567.033" y="21.737" width="6.084" height="53.015" style="fill: #d6e23d;"/>
                <g>
                  <g style="opacity: .5;">
                    <path d="M591.647,48.334c.99,0,1.965-.483,2.547-1.371.923-1.405.531-3.289-.875-4.209l-12.366-8.105c-1.406-.926-3.292-.526-4.211.873-.923,1.405-.531,3.289.875,4.209l12.366,8.105c.515.338,1.093.499,1.664.499Z" style="fill: #839d24;"/>
                  </g>
                  <g style="opacity: .5;">
                    <path d="M548.507,48.334c.57,0,1.149-.16,1.664-.499l12.362-8.105c1.406-.92,1.798-2.804.875-4.209-.919-1.399-2.792-1.801-4.211-.873l-12.362,8.105c-1.406.92-1.798,2.804-.875,4.209.582.888,1.557,1.371,2.547,1.371Z" style="fill: #4d7c3d;"/>
                  </g>
                  <path d="M591.647,62.194c.99,0,1.965-.483,2.547-1.371.923-1.405.531-3.289-.875-4.209l-12.366-8.105c-1.406-.926-3.292-.526-4.211.873-.923,1.405-.531,3.289.875,4.209l12.366,8.105c.515.338,1.093.499,1.664.499Z" style="fill: #839d24; opacity: .5;"/>
                  <g style="opacity: .5;">
                    <path d="M548.507,62.194c.57,0,1.149-.16,1.664-.499l12.362-8.105c1.406-.92,1.798-2.804.875-4.209-.919-1.399-2.792-1.801-4.211-.873l-12.362,8.105c-1.406.92-1.798,2.804-.875,4.209.582.888,1.557,1.371,2.547,1.371Z" style="fill: #4d7c3d;"/>
                  </g>
                </g>
              </g>
            </g>
          </g>
        </g>
        <line x1="545.363" y1="93.419" x2="594.791" y2="92.879" style="fill: #52ab35; stroke: #52ab35; stroke-dasharray: 0 10; stroke-linecap: round; stroke-linejoin: round; stroke-width: 10px;"/>
      </g>
      <g>
        <g>
          <path d="M800.207.532s-34.07-30.162-41.357-36.612h-2.719c-7.287,6.45-41.357,36.612-41.357,36.612v33.873c0,.796.317,1.559.879,2.121.565.565,1.329.881,2.126.881h79.423c.797,0,1.56-.316,2.126-.881.563-.562.88-1.325.88-2.121V.532Z" style="fill: #fbeb8c; fill-rule: evenodd;"/>
          <g style="clip-path: url(#clippath-13);">
            <rect x="712.262" y="-.251" width="90.459" height="7.532" style="fill: #f2d861;"/>
            <rect x="712.262" y="29.876" width="90.459" height="7.532" style="fill: #f2d861;"/>
            <rect x="712.262" y="14.812" width="90.459" height="7.532" style="fill: #f2d861;"/>
            <polyline points="711.005 6.899 757.491 -31.634 804.436 7.28" style="fill: none; stroke: #cfb43a; stroke-linejoin: bevel; stroke-width: 7.535px;"/>
          </g>
          <rect x="749.953" y="17.323" width="15.076" height="20.085" style="fill: #434032;"/>
          <rect x="749.953" y="17.323" width="15.076" height="5.021" style="fill: #14130f;"/>
          <rect x="775.08" y="14.812" width="15.076" height="15.064" style="fill: #6dbaa1;"/>
          <rect x="724.825" y="14.812" width="15.076" height="15.064" style="fill: #6dbaa1;"/>
          <rect x="724.825" y="27.33" width="15.076" height="2.546" style="fill: #fff;"/>
          <rect x="775.08" y="27.33" width="15.076" height="2.546" style="fill: #fff;"/>
          <rect x="775.08" y="14.777" width="15.076" height="2.546" style="fill: #4e9980;"/>
          <rect x="724.825" y="14.777" width="15.076" height="2.546" style="fill: #4e9980;"/>
          <line x1="711.57" y1="1.004" x2="757.491" y2="-37.408" style="fill: none; stroke: #6a8c40; stroke-linecap: round; stroke-linejoin: round; stroke-width: 9.042px;"/>
          <line x1="803.411" y1="1.004" x2="757.491" y2="-37.408" style="fill: none; stroke: #6a8c40; stroke-linecap: round; stroke-linejoin: round; stroke-width: 9.042px;"/>
        </g>
        <line x1="709.891" y1="37.408" x2="805.721" y2="37.408" style="fill: #52ab35; stroke: #52ab35; stroke-dasharray: 0 10; stroke-linecap: round; stroke-linejoin: round; stroke-width: 10px;"/>
      </g>
      <g>
        <g>
          <g>
            <path d="M725.485,43.792h18.181s4.927,44.959,4.927,44.959c.273,2.492-1.68,4.668-4.189,4.668h-19.747c-2.512,0-4.466-2.182-4.188-4.677l5.015-44.95Z" style="fill: #6b4c46;"/>
            <g style="clip-path: url(#clippath-14);">
              <path d="M734.517,76.291l14.862-10.822c8.209-5.977,9.137-17.867,1.954-25.043l-5.199-5.195h-23.236s-5.199,5.195-5.199,5.195c-7.183,7.177-6.255,19.066,1.954,25.043l14.862,10.822Z" style="fill: #594237; fill-rule: evenodd;"/>
            </g>
          </g>
          <g>
            <g>
              <path d="M734.53,42.158c0,6.428-2.555,12.596-7.106,17.143-4.551,4.547-10.723,7.1-17.16,7.1-12.189,0-24.406,0-24.406,0,0,0,0-7.501,0-16.027,0-6.432,2.555-12.599,7.106-17.146,4.551-4.544,10.723-7.1,17.16-7.1,12.189,0,24.406,0,24.406,0,0,0,0,7.501,0,16.03Z" style="fill: #abc02e; fill-rule: evenodd;"/>
              <g style="clip-path: url(#clippath-15);">
                <polygon points="734.53 26.128 680.215 72.552 734.53 72.552 734.53 26.128" style="fill: #839d24; fill-rule: evenodd;"/>
                <rect x="678.79" y="42.936" width="62.808" height="6.08" transform="translate(131.053 459.6) rotate(-39.239)" style="fill: #bdd033;"/>
                <path d="M706.138,69.027h6.084s0-6.31,0-10.225c0-1.678-1.363-3.039-3.042-3.039-1.679,0-3.042,1.362-3.042,3.039,0,3.915,0,10.225,0,10.225Z" style="fill: #4d7c3d; fill-rule: evenodd; opacity: .5;"/>
                <path d="M718.306,69.477h6.084s0-13.881,0-20.176c0-1.678-1.36-3.036-3.039-3.036h-.006c-1.679,0-3.039,1.359-3.039,3.036,0,6.295,0,20.176,0,20.176Z" style="fill: #4d7c3d; fill-rule: evenodd; opacity: .5;"/>
                <path d="M685.858,49.361v-5.757s5.689,0,9.287,0c.764,0,1.497.304,2.038.845.538.538.843,1.27.843,2.033h0c0,.766-.304,1.495-.843,2.036-.542.541-1.275.842-2.038.842-3.599,0-9.287,0-9.287,0Z" style="fill: #839d24; fill-rule: evenodd; opacity: .75;"/>
                <path d="M685.858,37.526v-6.079s12.372,0,18.255,0c1.679,0,3.039,1.359,3.039,3.036v.006c0,1.678-1.36,3.036-3.039,3.036-5.883,0-18.255,0-18.255,0Z" style="fill: #839d24; fill-rule: evenodd; opacity: .75;"/>
              </g>
            </g>
            <g>
              <path d="M734.53,42.158c0,6.428,2.555,12.596,7.106,17.143,4.551,4.547,10.723,7.1,17.16,7.1,12.189,0,24.406,0,24.406,0,0,0,0-7.501,0-16.027,0-6.432-2.555-12.599-7.106-17.146-4.551-4.544-10.723-7.1-17.16-7.1-12.189,0-24.406,0-24.406,0,0,0,0,7.501,0,16.03Z" style="fill: #abc02e; fill-rule: evenodd;"/>
              <g style="clip-path: url(#clippath-16);">
                <polygon points="734.53 26.128 788.846 72.552 734.53 72.552 734.53 26.128" style="fill: #839d24; fill-rule: evenodd;"/>
                <rect x="755.827" y="14.572" width="6.08" height="62.808" transform="translate(243.619 605.004) rotate(-50.801)" style="fill: #bdd033;"/>
                <path d="M762.923,69.027h-6.084s0-6.31,0-10.225c0-1.678,1.363-3.039,3.042-3.039,1.679,0,3.042,1.362,3.042,3.039,0,3.915,0,10.225,0,10.225Z" style="fill: #4d7c3d; fill-rule: evenodd; opacity: .5;"/>
                <path d="M750.755,69.477h-6.084s0-13.878,0-20.173c0-.805.319-1.577.891-2.149.569-.568,1.345-.891,2.151-.891s1.582.322,2.151.891c.572.571.891,1.343.891,2.149,0,6.295,0,20.173,0,20.173Z" style="fill: #4d7c3d; fill-rule: evenodd; opacity: .5;"/>
                <path d="M783.203,49.684v-6.079s-5.524,0-9.129,0c-.806,0-1.579.319-2.148.891-.572.568-.891,1.34-.891,2.146v.006c0,.805.319,1.577.891,2.149.569.568,1.342.888,2.148.888,3.605,0,9.129,0,9.129,0Z" style="fill: #839d24; fill-rule: evenodd; opacity: .75;"/>
                <path d="M783.203,37.526v-6.079s-12.369,0-18.252,0c-.806,0-1.582.322-2.151.891-.572.571-.891,1.343-.891,2.149,0,.805.319,1.581.891,2.149.569.571,1.345.891,2.151.891,5.883,0,18.252,0,18.252,0Z" style="fill: #839d24; fill-rule: evenodd; opacity: .75;"/>
              </g>
            </g>
            <g>
              <path d="M734.517,66.401l14.578-10.615c8.052-5.863,8.962-17.524,1.917-24.563l-5.099-5.095h-22.79s-5.099,5.095-5.099,5.095c-7.045,7.039-6.135,18.7,1.917,24.563l14.578,10.615Z" style="fill: #bdd033; fill-rule: evenodd;"/>
              <g style="clip-path: url(#clippath-18);">
                <rect x="711.518" y="24.282" width="22.999" height="43.615" transform="translate(1446.0351 92.18) rotate(-180)" style="fill: #839d24;"/>
                <rect x="731.487" y="21.737" width="6.084" height="53.015" style="fill: #d6e23d;"/>
                <g>
                  <g style="opacity: .5;">
                    <path d="M756.1,48.334c.99,0,1.965-.483,2.547-1.371.923-1.405.531-3.289-.875-4.209l-12.366-8.105c-1.406-.926-3.292-.526-4.211.873-.923,1.405-.531,3.289.875,4.209l12.366,8.105c.515.338,1.093.499,1.664.499Z" style="fill: #839d24;"/>
                  </g>
                  <g style="opacity: .5;">
                    <path d="M712.961,48.334c.57,0,1.149-.16,1.664-.499l12.362-8.105c1.406-.92,1.798-2.804.875-4.209-.919-1.399-2.792-1.801-4.211-.873l-12.362,8.105c-1.406.92-1.798,2.804-.875,4.209.582.888,1.557,1.371,2.547,1.371Z" style="fill: #4d7c3d;"/>
                  </g>
                  <path d="M756.1,62.194c.99,0,1.965-.483,2.547-1.371.923-1.405.531-3.289-.875-4.209l-12.366-8.105c-1.406-.926-3.292-.526-4.211.873-.923,1.405-.531,3.289.875,4.209l12.366,8.105c.515.338,1.093.499,1.664.499Z" style="fill: #839d24; opacity: .5;"/>
                  <g style="opacity: .5;">
                    <path d="M712.961,62.194c.57,0,1.149-.16,1.664-.499l12.362-8.105c1.406-.92,1.798-2.804.875-4.209-.919-1.399-2.792-1.801-4.211-.873l-12.362,8.105c-1.406.92-1.798,2.804-.875,4.209.582.888,1.557,1.371,2.547,1.371Z" style="fill: #4d7c3d;"/>
                  </g>
                </g>
              </g>
            </g>
          </g>
        </g>
        <line x1="709.817" y1="93.419" x2="759.245" y2="92.879" style="fill: #52ab35; stroke: #52ab35; stroke-dasharray: 0 10; stroke-linecap: round; stroke-linejoin: round; stroke-width: 10px;"/>
      </g>
      <g>
        <g>
          <g>
            <path d="M646.734,92.675h18.181s4.927,44.959,4.927,44.959c.273,2.492-1.68,4.668-4.189,4.668h-19.747c-2.512,0-4.466-2.182-4.188-4.677l5.015-44.95Z" style="fill: #6b4c46;"/>
            <g style="clip-path: url(#clippath-19);">
              <path d="M655.766,125.174l14.862-10.822c8.209-5.977,9.137-17.867,1.954-25.043l-5.199-5.195h-23.236s-5.199,5.195-5.199,5.195c-7.183,7.177-6.255,19.066,1.954,25.043l14.862,10.822Z" style="fill: #594237; fill-rule: evenodd;"/>
            </g>
          </g>
          <g>
            <g>
              <path d="M655.78,91.041c0,6.428-2.555,12.596-7.106,17.143-4.551,4.547-10.723,7.1-17.16,7.1-12.189,0-24.406,0-24.406,0,0,0,0-7.501,0-16.027,0-6.432,2.555-12.599,7.106-17.146,4.551-4.544,10.723-7.1,17.16-7.1,12.189,0,24.406,0,24.406,0,0,0,0,7.501,0,16.03Z" style="fill: #abc02e; fill-rule: evenodd;"/>
              <g style="clip-path: url(#clippath-20);">
                <polygon points="655.78 75.011 601.464 121.436 655.78 121.436 655.78 75.011" style="fill: #839d24; fill-rule: evenodd;"/>
                <rect x="600.039" y="91.819" width="62.808" height="6.08" transform="translate(82.375 420.808) rotate(-39.239)" style="fill: #bdd033;"/>
                <path d="M627.387,117.91h6.084s0-6.31,0-10.225c0-1.678-1.363-3.039-3.042-3.039-1.679,0-3.042,1.362-3.042,3.039,0,3.915,0,10.225,0,10.225Z" style="fill: #4d7c3d; fill-rule: evenodd; opacity: .5;"/>
                <path d="M639.556,118.36h6.084s0-13.881,0-20.176c0-1.678-1.36-3.036-3.039-3.036h-.006c-1.679,0-3.039,1.359-3.039,3.036,0,6.295,0,20.176,0,20.176Z" style="fill: #4d7c3d; fill-rule: evenodd; opacity: .5;"/>
                <path d="M607.107,98.244v-5.757s5.689,0,9.287,0c.764,0,1.497.304,2.038.845.538.538.843,1.27.843,2.033h0c0,.766-.304,1.495-.843,2.036-.542.541-1.275.842-2.038.842-3.599,0-9.287,0-9.287,0Z" style="fill: #839d24; fill-rule: evenodd; opacity: .75;"/>
                <path d="M607.107,86.409v-6.079h18.255c1.679,0,3.039,1.359,3.039,3.036v.006c0,1.678-1.36,3.036-3.039,3.036-5.883,0-18.255,0-18.255,0Z" style="fill: #839d24; fill-rule: evenodd; opacity: .75;"/>
              </g>
            </g>
            <g>
              <path d="M655.78,91.041c0,6.428,2.555,12.596,7.106,17.143,4.551,4.547,10.723,7.1,17.16,7.1,12.189,0,24.406,0,24.406,0,0,0,0-7.501,0-16.027,0-6.432-2.555-12.599-7.106-17.146-4.551-4.544-10.723-7.1-17.16-7.1-12.189,0-24.406,0-24.406,0,0,0,0,7.501,0,16.03Z" style="fill: #abc02e; fill-rule: evenodd;"/>
              <g style="clip-path: url(#clippath-21);">
                <polygon points="655.78 75.011 710.096 121.436 655.78 121.436 655.78 75.011" style="fill: #839d24; fill-rule: evenodd;"/>
                <rect x="677.076" y="63.455" width="6.08" height="62.808" transform="translate(176.758 561.964) rotate(-50.801)" style="fill: #bdd033;"/>
                <path d="M684.172,117.91h-6.084s0-6.31,0-10.225c0-1.678,1.363-3.039,3.042-3.039,1.679,0,3.042,1.362,3.042,3.039,0,3.915,0,10.225,0,10.225Z" style="fill: #4d7c3d; fill-rule: evenodd; opacity: .5;"/>
                <path d="M672.004,118.36h-6.084s0-13.878,0-20.173c0-.805.319-1.577.891-2.149.569-.568,1.345-.891,2.151-.891s1.582.322,2.151.891c.572.571.891,1.343.891,2.149,0,6.295,0,20.173,0,20.173Z" style="fill: #4d7c3d; fill-rule: evenodd; opacity: .5;"/>
                <path d="M704.453,98.567v-6.079s-5.524,0-9.129,0c-.806,0-1.579.319-2.148.891-.572.568-.891,1.34-.891,2.146v.006c0,.805.319,1.577.891,2.149.569.568,1.342.888,2.148.888,3.605,0,9.129,0,9.129,0Z" style="fill: #839d24; fill-rule: evenodd; opacity: .75;"/>
                <path d="M704.453,86.409v-6.079s-12.369,0-18.252,0c-.806,0-1.582.322-2.151.891-.572.571-.891,1.343-.891,2.149,0,.805.319,1.581.891,2.149.569.571,1.345.891,2.151.891,5.883,0,18.252,0,18.252,0Z" style="fill: #839d24; fill-rule: evenodd; opacity: .75;"/>
              </g>
            </g>
            <g>
              <path d="M655.766,115.284l14.578-10.615c8.052-5.863,8.962-17.524,1.917-24.563l-5.099-5.095h-22.79s-5.099,5.095-5.099,5.095c-7.045,7.039-6.135,18.7,1.917,24.563l14.578,10.615Z" style="fill: #bdd033; fill-rule: evenodd;"/>
              <g style="clip-path: url(#clippath-23);">
                <rect x="632.768" y="73.166" width="22.999" height="43.615" transform="translate(1288.534 189.9463) rotate(-180)" style="fill: #839d24;"/>
                <rect x="652.736" y="70.62" width="6.084" height="53.015" style="fill: #d6e23d;"/>
                <g>
                  <g style="opacity: .5;">
                    <path d="M677.35,97.218c.99,0,1.965-.483,2.547-1.371.923-1.405.531-3.289-.875-4.209l-12.366-8.105c-1.406-.926-3.292-.526-4.211.873-.923,1.405-.531,3.289.875,4.209l12.366,8.105c.515.338,1.093.499,1.664.499Z" style="fill: #839d24;"/>
                  </g>
                  <g style="opacity: .5;">
                    <path d="M634.211,97.218c.57,0,1.149-.16,1.664-.499l12.362-8.105c1.406-.92,1.798-2.804.875-4.209-.919-1.399-2.792-1.801-4.211-.873l-12.362,8.105c-1.406.92-1.798,2.804-.875,4.209.582.888,1.557,1.371,2.547,1.371Z" style="fill: #4d7c3d;"/>
                  </g>
                  <path d="M677.35,111.077c.99,0,1.965-.483,2.547-1.371.923-1.405.531-3.289-.875-4.209l-12.366-8.105c-1.406-.926-3.292-.526-4.211.873-.923,1.405-.531,3.289.875,4.209l12.366,8.105c.515.338,1.093.499,1.664.499Z" style="fill: #839d24; opacity: .5;"/>
                  <g style="opacity: .5;">
                    <path d="M634.211,111.077c.57,0,1.149-.16,1.664-.499l12.362-8.105c1.406-.92,1.798-2.804.875-4.209-.919-1.399-2.792-1.801-4.211-.873l-12.362,8.105c-1.406.92-1.798,2.804-.875,4.209.582.888,1.557,1.371,2.547,1.371Z" style="fill: #4d7c3d;"/>
                  </g>
                </g>
              </g>
            </g>
          </g>
        </g>
        <line x1="631.066" y1="142.302" x2="665.654" y2="141.762" style="fill: #52ab35; stroke: #52ab35; stroke-dasharray: 0 10; stroke-linecap: round; stroke-linejoin: round; stroke-width: 10px;"/>
      </g>
    </g>
    <g>
      <rect x="83.862" y="121.636" width="14.989" height="4.248" rx="2.124" ry="2.124" transform="translate(182.713 247.52) rotate(-180)" style="fill: #3d9156; opacity: .33;"/>
      <g>
        <path d="M81.942,92.384c.087,0,.17-.035.232-.097.061-.061.096-.146.096-.232,0-.654,0-2.108,0-2.76,0-.181-.146-.328-.327-.329-1.764-.009-10.063-.052-10.063-.052v3.47s8.294,0,10.062,0Z" style="fill: #1a30c3; fill-rule: evenodd;"/>
        <path d="M73.594,90.666c0,.947-.768,1.717-1.714,1.717-.946,0-1.714-.77-1.714-1.717,0-.948.769-1.717,1.714-1.717.946,0,1.714.769,1.714,1.717Z" style="fill: #d1621f; fill-rule: evenodd;"/>
        <path d="M67.515,99.984c-.047.175.057.355.232.403.63.169,2.03.545,2.659.714.175.047.355-.057.403-.232.466-1.704,2.655-9.726,2.655-9.726l-3.345-.898s-2.147,8.03-2.604,9.739Z" style="fill: #f9e840; fill-rule: evenodd;"/>
        <path d="M71.331,92.348c-.914-.245-1.457-1.187-1.212-2.103.245-.915,1.185-1.46,2.1-1.214.914.245,1.457,1.188,1.211,2.103-.245.915-1.185,1.46-2.099,1.214Z" style="fill: #f9e840; fill-rule: evenodd;"/>
        <rect x="82.07" y="87.079" width="6.226" height="4.169" transform="translate(-19.804 153.847) rotate(-77.946)" style="fill: #e5d034;"/>
        <path d="M81.512,89.234c.151-.262.486-.352.749-.201,1.425.821,5.656,3.257,7.081,4.078.262.151.353.486.202.748-1.336,2.327-7.129,12.41-7.129,12.41l-8.039-4.65s5.798-10.061,7.136-12.385Z" style="fill: #1a30c3; fill-rule: evenodd;"/>
        <path d="M86.587,91.605c-.077-.041-.166-.051-.25-.025-.084.025-.154.083-.195.16-.308.576-.992,1.858-1.299,2.432-.085.16-.025.357.133.444,1.55.841,8.853,4.807,8.853,4.807l1.633-3.058s-7.316-3.924-8.876-4.76Z" style="fill: #f9e840; fill-rule: evenodd;"/>
        <path d="M93.143,97.068c.446-.835,1.485-1.15,2.32-.703.834.448,1.15,1.489.703,2.324-.446.835-1.485,1.15-2.32.703-.835-.447-1.15-1.489-.703-2.324Z" style="fill: #d1621f; fill-rule: evenodd;"/>
        <path d="M100.897,89.839c.086-.16.025-.359-.134-.445-.575-.308-1.856-.995-2.43-1.303-.16-.085-.358-.025-.444.133-.84,1.554-4.79,8.861-4.79,8.861l3.055,1.638s3.911-7.326,4.744-8.885Z" style="fill: #f9e840; fill-rule: evenodd;"/>
        <path d="M93.143,97.068c.446-.835,1.485-1.15,2.32-.703.834.448,1.15,1.489.703,2.324-.446.835-1.485,1.15-2.32.703-.835-.447-1.15-1.489-.703-2.324Z" style="fill: #f9e840; fill-rule: evenodd;"/>
        <path d="M87.912,108.97c.852.488,1.507,1.259,1.849,2.179,1.21,3.253,4.072,10.948,4.072,10.948l-3.068,2.301s-3.589-8.973-4.428-11.071c-.113-.282-.316-.519-.578-.673-2.118-1.256-11.87-7.036-11.87-7.036l.767-4.231s9.668,5.532,13.255,7.585Z" style="fill: #f9e840; fill-rule: evenodd;"/>
        <g style="clip-path: url(#clippath-24);">
          <polygon points="86.06 107.637 75.398 101.469 72.485 106.524 83.147 112.692 86.06 107.637" style="fill: #e93823; fill-rule: evenodd;"/>
        </g>
        <path d="M71.898,111.67c-.65.881-1.77,1.281-2.832,1.011-3.222-.819-9.75-2.48-9.75-2.48l.767-3.78,9.306,2.444,4.774-6.983,3.347,2.193s-2.751,3.725-5.611,7.596Z" style="fill: #f9e840; fill-rule: evenodd;"/>
        <g style="clip-path: url(#clippath-25);">
          <polygon points="83.189 106.309 72.215 99.962 69.356 104.925 80.33 111.272 83.189 106.309" style="fill: #e93823; fill-rule: evenodd;"/>
        </g>
        <rect x="78.289" y="77.951" width="15.56" height="10.465" rx="2.139" ry="2.139" style="fill: #f9e840;"/>
        <path d="M95.605,79.395c0-1.163-.462-2.277-1.284-3.1-.822-.822-1.938-1.285-3.101-1.285-3.891,0-9.414,0-12.43,0-1.206,0-2.188.967-2.209,2.173-.04,2.422-.1,6.004-.1,6.004l-3.186-.057s0,1.391,0,2.811c0,1.651,1.338,2.989,2.989,2.989,1.161,0,2.469,0,3.558,0,1.438,0,2.762-.785,3.45-2.048.821-1.504,1.793-3.288,1.793-3.288,0,0-.011-1.071-.018-1.937-.003-.285.109-.56.309-.762.201-.203.475-.317.76-.317,2.689,0,9.469,0,9.469,0v-1.184Z" style="fill: #0f2220; fill-rule: evenodd;"/>
        <path d="M83.564,81.275c1.406,0,2.547,1.144,2.547,2.552,0,1.409-1.141,2.552-2.547,2.552-1.405,0-2.547-1.143-2.547-2.552,0-1.408,1.141-2.552,2.547-2.552Z" style="fill: #f9e840; fill-rule: evenodd;"/>
        <rect x="91.038" y="81.913" width="1.3" height="2.625" rx=".217" ry=".217" style="fill: #0d1c1c;"/>
        <path d="M86.587,91.605c-.077-.041-.166-.051-.25-.025-.084.025-.154.083-.195.16-.308.576-.992,1.858-1.299,2.432-.085.16-.025.357.133.444,1.55.841,4.902,2.662,4.902,2.662l1.614-3.042s-3.345-1.794-4.905-2.63Z" style="fill: #1a30c3; fill-rule: evenodd;"/>
        <polygon points="95.169 121.224 90.283 123.205 90.793 124.468 95.679 122.487 95.169 121.224" style="fill: #1a30c3; fill-rule: evenodd;"/>
        <polygon points="60.078 111.877 61.398 106.766 60.081 106.425 58.761 111.536 60.078 111.877" style="fill: #1a30c3; fill-rule: evenodd;"/>
      </g>
    </g>
    <g>
      <path d="M1093.389,51.074c.389-.389.839-.838.839-.838,0,0-.45-.449-.839-.838-.357-.357-.841-.557-1.346-.557h-6.488c-.852,0-1.669.338-2.272.94-.265.265-.483.483-.483.483,0,0,.19.189.427.427.603.602,1.42.94,2.272.94h6.544c.505,0,.989-.2,1.346-.557Z" style="fill: #61d1d5; fill-rule: evenodd;"/>
      <path d="M1096.513,48.409l-2.286,1.827,2.286,1.827c-.699-1.118-.699-2.536,0-3.654Z" style="fill: #61d1d5; fill-rule: evenodd;"/>
      <path d="M1111.139,53.228h-6.488c-.852,0-1.669.338-2.272.94-.265.265-.483.483-.483.483l.427.427c.603.602,1.42.94,2.272.94h6.544c.505,0,.99-.2,1.347-.557.389-.389.839-.838.839-.838,0,0-.45-.449-.839-.838-.357-.357-.842-.557-1.347-.557Z" style="fill: #61d1d5; fill-rule: evenodd;"/>
      <path d="M1113.324,54.623l2.286,1.827c-.699-1.118-.699-2.536,0-3.654l-2.286,1.827Z" style="fill: #61d1d5; fill-rule: evenodd;"/>
      <path d="M1088.786,45.645c.389-.389.839-.838.839-.838,0,0-.45-.449-.839-.838-.357-.357-.841-.557-1.346-.557h-6.488c-.852,0-1.669.338-2.272.94-.265.265-.483.483-.483.483,0,0,.19.189.427.427.603.602,1.42.94,2.272.94h6.544c.505,0,.989-.2,1.346-.557Z" style="fill: #61d1d5; fill-rule: evenodd;"/>
      <path d="M1091.911,42.98l-2.286,1.827,2.286,1.827c-.699-1.118-.699-2.536,0-3.654Z" style="fill: #61d1d5; fill-rule: evenodd;"/>
      <path d="M1126.876,28.345c.603.602,1.42.94,2.272.94h6.544c.505,0,.99-.2,1.347-.557.389-.389.839-.838.839-.838,0,0-.45-.449-.839-.838-.357-.357-.842-.557-1.347-.557h-6.488c-.852,0-1.669.338-2.272.94-.265.265-.483.483-.483.483l.427.427Z" style="fill: #61d1d5; fill-rule: evenodd;"/>
      <path d="M1140.162,26.064l-2.286,1.827,2.286,1.827c-.699-1.118-.699-2.536,0-3.654Z" style="fill: #61d1d5; fill-rule: evenodd;"/>
      <path d="M1131.112,39.842h-6.488c-.852,0-1.669.338-2.272.94-.265.265-.483.483-.483.483l.427.427c.603.602,1.42.94,2.272.94h6.544c.505,0,.989-.2,1.346-.557.389-.389.839-.838.839-.838,0,0-.45-.449-.839-.838-.357-.357-.841-.557-1.346-.557Z" style="fill: #61d1d5; fill-rule: evenodd;"/>
      <path d="M1133.297,41.237l2.286,1.827c-.699-1.118-.699-2.536,0-3.654l-2.286,1.827Z" style="fill: #61d1d5; fill-rule: evenodd;"/>
      <path d="M1117.369,34.742l.427.427c.603.602,1.42.94,2.272.94h6.544c.505,0,.989-.2,1.346-.557.389-.389.839-.838.839-.838,0,0-.45-.449-.839-.838-.357-.357-.841-.557-1.346-.557h-6.488c-.852,0-1.669.338-2.272.94-.265.265-.483.483-.483.483Z" style="fill: #61d1d5; fill-rule: evenodd;"/>
      <path d="M1131.083,32.887l-2.286,1.827,2.286,1.827c-.699-1.118-.699-2.536,0-3.654Z" style="fill: #61d1d5; fill-rule: evenodd;"/>
      <path d="M1117.847,62.921h-6.488c-.852,0-1.669.338-2.272.94-.265.265-.483.483-.483.483,0,0,.19.189.427.427.603.602,1.42.94,2.272.94h6.544c.505,0,.99-.2,1.347-.557.389-.389.839-.838.839-.838,0,0-.45-.449-.839-.838-.357-.357-.842-.557-1.347-.557Z" style="fill: #61d1d5; fill-rule: evenodd;"/>
      <path d="M1122.318,62.489l-2.286,1.827,2.286,1.827c-.699-1.118-.699-2.536,0-3.654Z" style="fill: #61d1d5; fill-rule: evenodd;"/>
      <path d="M1106.336,29.741c.602.602,1.42.94,2.272.94h6.544c.505,0,.989-.2,1.346-.557.389-.389.839-.838.839-.838,0,0-.45-.449-.839-.838-.357-.357-.841-.557-1.346-.557h-6.488c-.852,0-1.669.338-2.272.94-.265.265-.483.483-.483.483l.427.427Z" style="fill: #61d1d5; fill-rule: evenodd;"/>
      <path d="M1119.623,27.459l-2.286,1.827,2.286,1.827c-.699-1.118-.699-2.536,0-3.654Z" style="fill: #61d1d5; fill-rule: evenodd;"/>
      <path d="M1110.597,41.91c-.357-.357-.842-.557-1.347-.557h-6.488c-.852,0-1.669.338-2.272.94-.265.265-.483.483-.483.483l.427.427c.603.602,1.42.94,2.272.94h6.544c.505,0,.99-.201,1.347-.557.389-.389.839-.838.839-.838,0,0-.45-.449-.839-.838Z" style="fill: #61d1d5; fill-rule: evenodd;"/>
      <path d="M1111.435,42.748l2.286,1.827c-.699-1.118-.699-2.536,0-3.654l-2.286,1.827Z" style="fill: #61d1d5; fill-rule: evenodd;"/>
      <path d="M1100.011,59.267h-6.488c-.852,0-1.669.338-2.272.94-.265.265-.483.483-.483.483l.427.427c.602.602,1.42.94,2.272.94h6.544c.505,0,.989-.2,1.346-.557.389-.389.839-.838.839-.838,0,0-.45-.449-.839-.838-.357-.357-.841-.557-1.346-.557Z" style="fill: #61d1d5; fill-rule: evenodd;"/>
      <path d="M1104.482,58.835l-2.286,1.827,2.286,1.827c-.699-1.118-.699-2.536,0-3.654Z" style="fill: #61d1d5; fill-rule: evenodd;"/>
      <path d="M1119.251,49.549c.389-.389.839-.838.839-.838,0,0-.45-.449-.839-.838-.357-.357-.842-.557-1.347-.557h-6.488c-.852,0-1.669.338-2.272.94-.265.265-.483.483-.483.483,0,0,.19.189.427.427.602.602,1.42.94,2.272.94h6.544c.505,0,.99-.2,1.347-.557Z" style="fill: #61d1d5; fill-rule: evenodd;"/>
      <path d="M1122.376,46.884l-2.286,1.827,2.286,1.827c-.699-1.118-.699-2.536,0-3.654Z" style="fill: #61d1d5; fill-rule: evenodd;"/>
      <path d="M1137.155,34.34c-.265.265-.483.483-.483.483l.427.427c.603.602,1.42.94,2.272.94h6.544c.505,0,.989-.201,1.346-.557.389-.389.839-.838.839-.838,0,0-.45-.449-.839-.838-.357-.357-.841-.557-1.346-.557h-6.488c-.852,0-1.67.338-2.272.94Z" style="fill: #61d1d5; fill-rule: evenodd;"/>
      <path d="M1150.386,32.968l-2.286,1.827,2.286,1.827c-.699-1.118-.699-2.536,0-3.654Z" style="fill: #61d1d5; fill-rule: evenodd;"/>
      <path d="M1154.57,39.362h-6.488c-.852,0-1.669.338-2.272.94-.265.265-.483.483-.483.483,0,0,.19.189.427.427.603.602,1.42.94,2.272.94h6.544c.505,0,.99-.2,1.347-.557.389-.389.839-.838.839-.838,0,0-.45-.449-.839-.838-.357-.357-.841-.557-1.347-.557Z" style="fill: #61d1d5; fill-rule: evenodd;"/>
      <path d="M1159.041,38.931l-2.286,1.827,2.286,1.827c-.699-1.118-.699-2.536,0-3.654Z" style="fill: #61d1d5; fill-rule: evenodd;"/>
      <path d="M1183.592,38.809h-6.488c-.852,0-1.669.338-2.272.94-.265.265-.483.483-.483.483l.427.427c.603.602,1.42.94,2.272.94h6.544c.505,0,.989-.201,1.346-.557.389-.389.839-.838.839-.838l-.839-.838c-.357-.357-.841-.557-1.346-.557Z" style="fill: #61d1d5; fill-rule: evenodd;"/>
      <path d="M1188.062,38.377l-2.286,1.827,2.286,1.827c-.699-1.118-.699-2.536,0-3.654Z" style="fill: #61d1d5; fill-rule: evenodd;"/>
      <path d="M1169.63,51.376c.389-.389.839-.838.839-.838,0,0-.45-.449-.839-.838-.357-.357-.841-.557-1.346-.557h-6.488c-.852,0-1.67.338-2.272.94-.265.265-.483.483-.483.483l.427.427c.603.602,1.42.94,2.272.94h6.544c.505,0,.989-.2,1.346-.557Z" style="fill: #61d1d5; fill-rule: evenodd;"/>
      <path d="M1172.754,48.711l-2.286,1.827,2.286,1.827c-.699-1.118-.699-2.536,0-3.654Z" style="fill: #61d1d5; fill-rule: evenodd;"/>
      <path d="M1174.571,55.757h-6.488c-.852,0-1.669.338-2.272.94-.265.265-.483.483-.483.483,0,0,.19.189.427.427.603.602,1.42.94,2.272.94h6.544c.505,0,.99-.2,1.347-.557.389-.389.839-.838.839-.838,0,0-.45-.449-.839-.838-.357-.357-.841-.557-1.347-.557Z" style="fill: #61d1d5; fill-rule: evenodd;"/>
      <path d="M1176.756,57.152l2.286,1.827c-.699-1.118-.699-2.536,0-3.654l-2.286,1.827Z" style="fill: #61d1d5; fill-rule: evenodd;"/>
      <path d="M1139.962,51.702h-6.488c-.852,0-1.67.338-2.272.94-.265.265-.483.483-.483.483l.427.427c.603.602,1.42.94,2.272.94h6.544c.505,0,.99-.2,1.347-.557.389-.389.839-.838.839-.838,0,0-.45-.449-.839-.838-.357-.357-.841-.557-1.347-.557Z" style="fill: #61d1d5; fill-rule: evenodd;"/>
      <path d="M1142.148,53.098l2.286,1.827c-.699-1.118-.699-2.536,0-3.654l-2.286,1.827Z" style="fill: #61d1d5; fill-rule: evenodd;"/>
      <path d="M1128.834,57.741h-6.488c-.852,0-1.669.338-2.272.94-.265.265-.483.483-.483.483,0,0,.19.189.427.427.602.602,1.42.94,2.272.94h6.544c.505,0,.99-.2,1.347-.557.389-.389.839-.838.839-.838,0,0-.45-.449-.839-.838-.357-.357-.842-.557-1.347-.557Z" style="fill: #61d1d5; fill-rule: evenodd;"/>
      <path d="M1131.02,59.137l2.286,1.827c-.699-1.118-.699-2.536,0-3.654l-2.286,1.827Z" style="fill: #61d1d5; fill-rule: evenodd;"/>
      <path d="M1136.829,65.455h-6.488c-.852,0-1.67.338-2.272.94-.265.265-.483.483-.483.483l.427.427c.603.602,1.42.94,2.272.94h6.544c.505,0,.99-.201,1.347-.557.389-.389.839-.838.839-.838,0,0-.45-.449-.839-.838-.357-.357-.841-.557-1.347-.557Z" style="fill: #61d1d5; fill-rule: evenodd;"/>
      <path d="M1139.014,66.85l2.286,1.827c-.699-1.118-.699-2.536,0-3.654l-2.286,1.827Z" style="fill: #61d1d5; fill-rule: evenodd;"/>
      <path d="M1131.183,72.966h-6.488c-.852,0-1.669.338-2.272.94-.265.265-.483.483-.483.483l.427.427c.603.602,1.42.94,2.272.94h6.544c.505,0,.99-.201,1.347-.557.389-.389.839-.838.839-.838,0,0-.45-.449-.839-.838-.357-.357-.841-.557-1.347-.557Z" style="fill: #61d1d5; fill-rule: evenodd;"/>
      <path d="M1133.369,74.362l2.286,1.827c-.699-1.118-.699-2.536,0-3.654l-2.286,1.827Z" style="fill: #61d1d5; fill-rule: evenodd;"/>
      <path d="M1148.76,59.568h-6.488c-.852,0-1.67.338-2.272.94-.265.265-.483.483-.483.483,0,0,.19.189.427.427.603.602,1.42.94,2.272.94h6.544c.505,0,.99-.2,1.347-.557.389-.389.839-.838.839-.838,0,0-.45-.449-.839-.838-.357-.357-.841-.557-1.347-.557Z" style="fill: #61d1d5; fill-rule: evenodd;"/>
      <path d="M1150.945,60.964l2.286,1.827c-.699-1.118-.699-2.536,0-3.654l-2.286,1.827Z" style="fill: #61d1d5; fill-rule: evenodd;"/>
      <path d="M1111.907,69.821h-6.488c-.852,0-1.669.338-2.272.94-.265.265-.483.483-.483.483l.427.427c.603.602,1.42.94,2.272.94h6.544c.505,0,.99-.2,1.347-.557.389-.389.839-.838.839-.838,0,0-.45-.449-.839-.838-.357-.357-.841-.557-1.347-.557Z" style="fill: #61d1d5; fill-rule: evenodd;"/>
      <path d="M1114.092,71.216l2.286,1.827c-.699-1.118-.699-2.536,0-3.654l-2.286,1.827Z" style="fill: #61d1d5; fill-rule: evenodd;"/>
      <path d="M1092.356,38.137h6.544c.505,0,.989-.2,1.346-.557.389-.389.839-.838.839-.838,0,0-.45-.449-.839-.838-.357-.357-.841-.557-1.346-.557h-6.488c-.852,0-1.669.338-2.272.94-.265.265-.483.483-.483.483,0,0,.19.189.427.427.603.602,1.42.94,2.272.94Z" style="fill: #61d1d5; fill-rule: evenodd;"/>
      <path d="M1103.37,34.915l-2.286,1.827,2.286,1.827c-.699-1.118-.699-2.536,0-3.654Z" style="fill: #61d1d5; fill-rule: evenodd;"/>
    </g>
  </g>
</svg>