<svg xmlns="http://www.w3.org/2000/svg" width="1500" height="145" xmlns:v="https://vecta.io/nano"><style><![CDATA[.B{fill-rule:evenodd}.C{fill:none}.D{clip-rule:evenodd}.E{opacity:.5}.F{fill:#408f43}.G{fill:#59c1bf}.H{stroke-linecap:round}.I{stroke-linejoin:round}.J{fill:#fff}.K{fill:#50b06d}.L{fill:#4ba582}.M{fill:#357963}.N{fill:#3c8778}.O{fill:#41927e}.P{fill:#377e6c}.Q{fill:#52b496}.R{opacity:.25}.S{fill:#51b133}.T{fill:#361136}.U{fill:#551851}.V{opacity:.775}.W{fill:#409058}.X{fill:#675d7e}.Y{fill:#9692a4}.Z{fill:#4aa22e}.a{fill:#74dddc}.b{stroke:#50b06d}.c{fill:#b0adb9}.d{fill:#777087}.e{fill:#8ed8fa}.f{stroke-width:12.69}.g{fill:#5ac4c3}.h{fill:#d8cfd9}.i{fill:#8d5527}.j{fill:#703711}.k{fill:#eaf6f6}.l{fill:#f1e54c}.m{stroke-width:3.407}.n{stroke-miterlimit:10}.o{stroke-width:3.051}]]></style><defs><clipPath id="A"><path d="M0 0h1500v145H0z" class="C"/></clipPath><clipPath id="B"><path d="M180.217 145.626l-2.934-8.127-2.934 8.127-2.218 18.001a5.18 5.18 0 0 0 1.263 4.068 5.19 5.19 0 0 0 3.887 1.75h.004a5.19 5.19 0 0 0 3.887-1.75 5.18 5.18 0 0 0 1.263-4.068l-2.218-18.001z" class="C D"/></clipPath><clipPath id="C"><path d="M183.971 133.312c0-2.844-1.131-5.572-3.144-7.584a10.74 10.74 0 0 0-7.59-3.141h-14.324v4.813c0 2.844 1.131 5.572 3.144 7.584s4.743 3.141 7.59 3.141h14.324v-4.813z" class="C D"/></clipPath><clipPath id="D"><path d="M177.283 146.044c1.457 2.444 3.826 4.209 6.585 4.908l13.886 3.516 1.183-4.665a10.72 10.72 0 0 0-1.183-8.123c-1.457-2.444-3.826-4.209-6.585-4.908l-13.886-3.516v12.788z" class="C D"/></clipPath><clipPath id="E"><path d="M177.283 146.044c-1.457 2.444-3.826 4.209-6.585 4.908l-13.886 3.516-1.183-4.665a10.72 10.72 0 0 1 1.183-8.123c1.457-2.444 3.826-4.209 6.585-4.908l13.886-3.516v12.788z" class="C D"/></clipPath><clipPath id="F"><path d="M125.281 27.775l-2.934-8.127-2.934 8.127-2.218 18.001a5.18 5.18 0 0 0 1.263 4.068 5.19 5.19 0 0 0 3.887 1.75h.004a5.19 5.19 0 0 0 3.887-1.75 5.18 5.18 0 0 0 1.263-4.068l-2.218-18.001z" class="C D"/></clipPath><clipPath id="G"><path d="M129.035 15.461c0-2.844-1.131-5.572-3.144-7.584a10.74 10.74 0 0 0-7.59-3.141h-14.324v4.813c0 2.844 1.131 5.572 3.144 7.584a10.74 10.74 0 0 0 7.59 3.141h14.324v-4.813z" class="C D"/></clipPath><clipPath id="H"><path d="M122.347 28.193c1.457 2.444 3.826 4.209 6.585 4.908l13.886 3.516 1.183-4.665a10.72 10.72 0 0 0-1.183-8.123c-1.457-2.444-3.826-4.209-6.585-4.908l-13.886-3.516v12.788z" class="C D"/></clipPath><clipPath id="I"><path d="M122.347 28.193c-1.457 2.444-3.826 4.209-6.585 4.908l-13.886 3.516-1.183-4.665a10.72 10.72 0 0 1 1.183-8.123c1.457-2.444 3.826-4.209 6.585-4.908l13.886-3.516v12.788z" class="C D"/></clipPath><clipPath id="J"><path d="M232.656 129.56c-3.202-6.714-9.983-10.99-17.427-10.99h-.001a3.74 3.74 0 0 0-3.741 3.738v12.427l23.471-.349-2.302-4.826z" class="C D"/></clipPath><clipPath id="K"><path d="M281.011 147.665a4.87 4.87 0 0 0 4.196-2.399 4.86 4.86 0 0 0 .055-4.831l-11.664-20.912a16.82 16.82 0 0 0-14.688-8.622h-12.451a4.19 4.19 0 0 0-3.49 1.87c-.776 1.169-.915 2.648-.37 3.94l13.062 30.954h25.349z" class="C D"/></clipPath><clipPath id="L"><path d="M211.487 147.293v-13.315h79.347c13.889 0 27.378 4.657 38.304 13.225l.828.649c2.004 1.571 3.174 3.976 3.174 6.521v1.688c0 1.349-.961 2.507-2.288 2.757-16.631 3.134-33.517 4.713-50.44 4.717l-34.312.009c-13.384.003-26.073-5.954-34.613-16.25z" class="C D"/></clipPath><clipPath id="M"><path d="M204.511 131.781h138.046v21.732H204.511z" class="C"/></clipPath><clipPath id="N"><path d="M325.424 139.187h-19.389a2.72 2.72 0 0 0-2.719 2.717h0a2.71 2.71 0 0 0 .797 1.921 2.72 2.72 0 0 0 1.923.796h20.722l-1.333-5.434z" class="C D"/></clipPath><clipPath id="O"><path d="M283.164 141.432c0-1.24-1.006-2.245-2.247-2.245s-2.247 1.005-2.247 2.245v1.27c0 1.24 1.006 2.245 2.247 2.245s2.247-1.005 2.247-2.245v-1.27z" class="C D"/></clipPath><clipPath id="P"><rect x="269.36" y="139.187" width="4.494" height="5.76" rx="2.245" class="C"/></clipPath><clipPath id="Q"><rect x="260.05" y="139.187" width="4.494" height="5.76" rx="2.245" class="C"/></clipPath><clipPath id="R"><rect x="250.74" y="139.187" width="4.494" height="5.76" rx="2.245" class="C"/></clipPath><clipPath id="S"><path d="M229.318 147.047c.555 0 1.069.294 1.35.772s.288 1.069.018 1.554l-.141.252a21.03 21.03 0 0 1-18.365 10.781h-.002a4.04 4.04 0 0 1-3.349-1.78c-.751-1.113-.899-2.525-.396-3.77l3.16-7.809h17.726z" class="C D"/></clipPath><clipPath id="T"><path d="M67.402 136.188l-2.489-2.951a.81.81 0 0 0-.619-.288h-5.921c-.215 0-.42.085-.572.237l-2.884 2.882h0a7.14 7.14 0 0 0 6.668 4.584h.027c2.721 0 5.1-1.834 5.789-4.464h0z" class="D G"/></clipPath><clipPath id="U"><path d="M54.918 136.177h2.146l.278.291a5.41 5.41 0 0 0 7.728.09l.381-.381h2.11v5.065H54.917v-5.065z" class="D G"/></clipPath><clipPath id="V"><path d="M59.014 132.949l1.383-1.843h2.766l.142.142a1.1 1.1 0 0 1 0 1.559l-.142.142h-4.15" class="D G"/></clipPath><clipPath id="W"><path d="M67.402 136.188l1.456 1.362h0a1.84 1.84 0 0 0 0-2.724l-1.456 1.362z" class="D G"/></clipPath><clipPath id="X"><path d="M1285.639-6.372h96.432a43.67 43.67 0 0 1 30.87 12.776c8.185 8.178 12.787 19.274 12.787 30.84v247.752a43.61 43.61 0 0 1-12.787 30.843 43.68 43.68 0 0 1-30.87 12.776h-72.664c-11.576 0-22.681-4.598-30.87-12.776a43.61 43.61 0 0 1-12.784-30.843v-39.284c0-11.442-4.5-22.426-12.529-30.582l-80.094-81.386c-8.028-8.155-12.529-19.14-12.529-30.582V37.244c0-11.566 4.598-22.662 12.787-30.84a43.66 43.66 0 0 1 30.866-12.776h81.383z" class="C D"/></clipPath><clipPath id="Y"><path d="M1361.304-4.729h-14.984l-4.061 37.054c-.225 2.054 1.385 3.848 3.452 3.848h16.275a3.47 3.47 0 0 0 3.451-3.854l-4.133-37.047z" class="C"/></clipPath><clipPath id="Z"><path d="M1353.849-5.906c0 5.402 2.147 10.584 5.971 14.405s9.01 5.966 14.419 5.966h20.508V.998c0-5.404-2.147-10.586-5.971-14.407a20.41 20.41 0 0 0-14.419-5.966h-20.508v13.469z" class="C D"/></clipPath><clipPath id="a"><path d="M1353.849-5.906c0 5.402-2.147 10.584-5.971 14.405s-9.01 5.966-14.419 5.966h-20.508V.998c0-5.404 2.147-10.586 5.971-14.407a20.41 20.41 0 0 1 14.419-5.966h20.508v13.469z" class="C D"/></clipPath><clipPath id="b"><path d="M1353.86 14.465l-12.249-8.919c-6.766-4.926-7.53-14.725-1.611-20.64l4.285-4.281h19.15l4.285 4.281c5.92 5.915 5.155 15.714-1.611 20.64l-12.249 8.919z" class="C D"/></clipPath><clipPath id="c"><path d="M1323.713 51.555h-27.839l-.036-22.631h-26.588v-48.135h54.463v70.766z" class="C D"/></clipPath><clipPath id="d"><path d="M1382.052 74.945V25.044l-49.943 49.901v49.901h49.943 41.621V74.945h-41.621z" class="C"/></clipPath><clipPath id="e"><path transform="matrix(-1 0 0 -1 2680.771 194.038)" d="M1332.086 80.352h16.599v33.334h-16.599z" class="C"/></clipPath><clipPath id="f"><path d="M1357.08 80.352h16.599v39.814c0 2.583-2.097 4.68-4.68 4.68h-7.238c-2.583 0-4.68-2.097-4.68-4.68V80.352h0z" transform="matrix(-1 0 0 -1 2730.759 205.198)" class="C"/></clipPath><clipPath id="g"><path transform="matrix(-1 0 0 -1 2805.824 194.038)" d="M1382.064 80.352h41.695v33.334h-41.695z" class="C"/></clipPath><clipPath id="h"><path d="M1395.449 43.415c-.373-.373-.881-1.108-1.359-1.001-.665.149-1.249.522-1.728 1.001q-.054.054 0 0c-.131.131.023-.022-.512.511-1.088 1.087-1.133 2.822-.135 3.963.071.081.198.081.274.005l.978-.977c.811.387 1.809.254 2.481-.418a2.18 2.18 0 0 0 0-3.084z" class="C"/></clipPath><clipPath id="i"><path d="M604.46 134.562c0-29.399-23.854-53.233-53.278-53.233s-53.278 23.834-53.278 53.233H604.46z" class="C D"/></clipPath><clipPath id="j"><path d="M634.309 50.288h-19.853l-5.38 49.093a4.6 4.6 0 0 0 4.574 5.098h21.563a4.6 4.6 0 0 0 4.573-5.107l-5.477-49.084z" class="C"/></clipPath><clipPath id="k"><path d="M624.431 48.728a26.98 26.98 0 0 0 7.911 19.085 27.03 27.03 0 0 0 19.104 7.905h27.172V57.875a26.98 26.98 0 0 0-7.911-19.088 27.04 27.04 0 0 0-19.104-7.905h-27.172v17.846z" class="C D"/></clipPath><clipPath id="l"><path d="M624.431 48.728a26.98 26.98 0 0 1-7.911 19.085 27.03 27.03 0 0 1-19.104 7.905h-27.172V57.875a26.98 26.98 0 0 1 7.911-19.088 27.04 27.04 0 0 1 19.104-7.905h27.172v17.846z" class="C D"/></clipPath><clipPath id="m"><path d="M624.447 75.718l-16.229-11.817c-8.964-6.527-9.977-19.51-2.134-27.346l5.677-5.672h25.373l5.677 5.672c7.843 7.837 6.83 20.819-2.134 27.346l-16.229 11.817z" class="C D"/></clipPath><clipPath id="n"><path d="M678.649,192.615c0-29.402-23.854-53.235-53.278-53.235s-53.278,23.834-53.278,53.235h106.556Z" class="C D"/></clipPath><path id="o" d="M836.25 70.742l1.685-1.684-1.685-1.684a3.83 3.83 0 0 0-2.706-1.12h-13.038c-1.712 0-3.355.68-4.566 1.889l-.971.97.859.858a6.46 6.46 0 0 0 4.566 1.89h13.15a3.83 3.83 0 0 0 2.706-1.12z"/><path id="p" d="M921.304 59.08h-13.037a6.46 6.46 0 0 0-4.566 1.89l-.971.97.859.858a6.46 6.46 0 0 0 4.566 1.89h13.149a3.83 3.83 0 0 0 2.706-1.12l1.686-1.684-1.686-1.684a3.83 3.83 0 0 0-2.706-1.12z"/><path id="q" d="M858.806 98.114h-13.038a6.46 6.46 0 0 0-4.566 1.89l-.971.97.859.858a6.46 6.46 0 0 0 4.566 1.89h13.15a3.83 3.83 0 0 0 2.706-1.12l1.685-1.684-1.685-1.684a3.83 3.83 0 0 0-2.706-1.12z"/><path id="r" d="M166.5 80.114a2.48 2.48 0 0 1-2.482-2.479v-7.763a2.48 2.48 0 1 1 4.964 0v7.763a2.48 2.48 0 0 1-2.482 2.479z"/><path id="s" d="M176.86 80.114a2.48 2.48 0 0 1-2.482-2.479v-5.174a2.48 2.48 0 1 1 4.964 0v5.174a2.48 2.48 0 0 1-2.482 2.479z"/><path id="t" d="M204.813 100.603a2.48 2.48 0 0 1-2.482-2.479v-5.177a2.48 2.48 0 1 1 4.964 0v5.177a2.48 2.48 0 0 1-2.482 2.479z"/><path id="u" d="M171.848 165.923l2.501-20.297 2.934-9.096 2.934 9.096 2.501 20.297a3.14 3.14 0 0 1-3.117 3.521h-4.636a3.14 3.14 0 0 1-3.117-3.521z"/><path id="v" d="M173.85 160.066l3.433-2.836 3.433 2.836a1.66 1.66 0 0 0 2.706-1.159l1.43-20.334h-15.138l1.43 20.334a1.66 1.66 0 0 0 2.706 1.159z"/><path id="w" d="M155.296 127.847v2.547h5.795c.338 0 .662-.134.901-.373s.373-.563.373-.9h0c0-.338-.134-.662-.373-.901s-.563-.373-.901-.373h-5.795z"/><path id="x" d="M155.001 133.083v2.689h13.513c.742 0 1.344-.601 1.344-1.343v-.003c0-.742-.602-1.343-1.344-1.343h-13.513z"/><path id="y" d="M177.283 146.044c1.457 2.444 3.856 4.217 6.616 4.916l13.855 3.508 1.183-4.665a10.72 10.72 0 0 0-1.183-8.123c-1.457-2.444-3.826-4.209-6.585-4.908l-13.886-3.516v12.788z"/><path id="z" d="M179.284 152.733l-2.609-.661 2.194-8.652c.182-.719.914-1.154 1.633-.972h.003c.72.183 1.155.914.973 1.633l-2.194 8.652z"/><path id="AA" d="M200.834 144.42l.661-2.607-9.186-2.326c-.72-.182-1.451.253-1.633.972v.003c-.183.719.253 1.45.972 1.632l9.186 2.326z"/><path id="AB" d="M177.283 146.044c-1.457 2.444-3.856 4.217-6.616 4.916l-13.855 3.508-1.183-4.665a10.72 10.72 0 0 1 1.183-8.123c1.457-2.444 3.826-4.209 6.585-4.908l13.886-3.516v12.788z"/><path id="AC" d="M175.281 152.733l2.609-.661-2.194-8.652c-.182-.719-.914-1.154-1.633-.972h-.003c-.72.183-1.155.914-.973 1.633l2.194 8.652z"/><path id="AD" d="M153.731 144.42l-.661-2.607 9.186-2.326c.72-.182 1.451.253 1.633.972v.003c.183.719-.253 1.45-.972 1.632l-9.186 2.326z"/><path id="AE" d="M193.708 141.246c.149-.091.291-.199.422-.326a2.4 2.4 0 0 0 .059-3.4l-1.708-1.768.289.016c1.329.072 2.463-.944 2.534-2.271s-.947-2.461-2.273-2.532l-6.41-.346c-.99-.052-1.912.504-2.32 1.402s-.229 1.959.458 2.67l5.968 6.17a2.41 2.41 0 0 0 2.981.385z"/><path id="AF" d="M186.472 132.117c.271-.165.511-.384.701-.647.417-.578.556-1.311.38-2.002l-1.158-4.534c-.328-1.287-1.639-2.064-2.927-1.736-1.283.321-2.067 1.637-1.737 2.924l.444 1.743-3.022.212a2.41 2.41 0 0 0-2.233 2.568c.094 1.326 1.245 2.325 2.57 2.231l5.9-.415c.388-.028.758-.148 1.083-.345z"/><path id="AG" d="M201.499 136.351a1.02 1.02 0 0 1-.499-.132 1.01 1.01 0 0 1-.377-1.373c.52-.918 1.679-3.702.801-5.543-.331-.692-1.118-.877-1.725-.752-.364.076-1.216.382-1.258 1.583-.02.557-.504.969-1.044.972a1.01 1.01 0 0 1-.973-1.043c.063-1.768 1.187-3.136 2.864-3.483 1.642-.341 3.268.421 3.954 1.856 1.515 3.171-.771 7.236-.869 7.407a1.01 1.01 0 0 1-.876.508z"/><path id="AH" d="M193.721 141.238c1.136-.691 1.497-2.169.806-3.305l-1.981-3.255 1.763.095c1.321.072 2.459-.946 2.533-2.274s-.947-2.459-2.276-2.53l-6.32-.339c-.891-.049-1.738.402-2.195 1.167s-.454 1.723.01 2.485l4.353 7.151c.691 1.136 2.171 1.496 3.308.805z"/><path id="AI" d="M182.256 134.993l7.05-4.285c.676-.411 1.108-1.129 1.152-1.92l.342-6.076a2.4 2.4 0 0 0-2.267-2.535c-1.324-.074-2.464.937-2.538 2.266l-.272 4.813-5.969 3.627c-1.136.691-1.497 2.169-.806 3.305s2.171 1.496 3.308.805z"/><path id="AJ" d="M328.164 143.695h9.952v25.032h-9.952z"/><path id="AK" d="M280.917 136.816l-2.453 2.446 5.136 5.12 2.454-2.446-5.137-5.12z"/><path id="AL" d="M151.558 42.188a2.07 2.07 0 0 0-2.925 0l-1.463 1.461-1.462-1.461a2.07 2.07 0 0 0-2.926 0c-.808.805-.808 2.116 0 2.922l1.463 1.461-1.463 1.461c-.808.807-.808 2.117 0 2.922a2.07 2.07 0 0 0 2.926 0l1.462-1.461 1.463 1.461a2.07 2.07 0 0 0 2.925 0c.807-.805.807-2.116 0-2.922l-1.462-1.461 1.462-1.461c.807-.807.807-2.117 0-2.922z"/><path id="AM" d="M67.402 136.188l-2.489-2.951a.81.81 0 0 0-.619-.288h-5.921c-.215 0-.42.085-.572.237l-2.884 2.882h0a7.14 7.14 0 0 0 6.668 4.584h.027c2.721 0 5.1-1.834 5.789-4.464h0z"/><path id="AN" d="M54.918 136.177h2.146l.278.291a5.41 5.41 0 0 0 7.728.09l.381-.381h2.11v5.065H54.917v-5.065z"/><path id="AO" d="M63.847 135.647h1.099v5.595h-1.099z"/><path id="AP" d="M59.014 132.949l1.383-1.843h2.766l.142.142a1.1 1.1 0 0 1 0 1.559l-.142.142h-4.15"/><path id="AQ" d="M67.402 136.188l1.456 1.362h0a1.84 1.84 0 0 0 0-2.724l-1.456 1.362z"/><path id="AR" d="M1353.86 22.056l-12.249-8.919c-6.766-4.926-7.53-14.725-1.611-20.64l4.285-4.281h19.15l4.285 4.281c5.92 5.915 5.155 15.714-1.611 20.64l-12.249 8.919z"/><path id="AS" d="M1400.995 155.285a2.32 2.32 0 0 0 2.321-2.319v-7.262a2.32 2.32 0 1 0-4.642 0v7.262a2.32 2.32 0 0 0 2.321 2.319z"/><path id="AT" d="M1356.17 147.533a2.32 2.32 0 0 0 2.321-2.319v-4.843a2.32 2.32 0 1 0-4.642 0v4.843a2.32 2.32 0 0 0 2.321 2.319z"/><path id="AU" d="M1308.523 48.823c0-2.31 1.875-4.181 4.185-4.181s4.185 1.872 4.185 4.181v4.174h-8.37v-4.174z"/><path id="AV" d="M1391.359 69.474a2.34 2.34 0 1 0-4.682 0v2.335h4.682v-2.335z"/><path id="AW" d="M1386.734 69.47a2.34 2.34 0 1 0-4.682 0v2.335h4.682V69.47z"/><path id="AX" d="M1369.822 66.443h24.169v2.518h-24.169z"/><path id="AY" d="M1402.481 58.615h-3.377a.63.63 0 0 1-.629-.629.63.63 0 0 1 .629-.629h3.377a.63.63 0 0 1 .629.629.63.63 0 0 1-.629.629z"/><path id="AZ" d="M1401.002 58.615a.63.63 0 0 1-.629-.629v-1.478a.63.63 0 0 1 .629-.629.63.63 0 0 1 .629.629v1.478a.63.63 0 0 1-.629.629z"/><path id="Aa" d="M1401.069,56.924h0c-.512,0-.927-.415-.927-.926l-.622-3.375,2.963.51-.487,2.864c0,.512-.415.926-.927.926Z"/><path id="Ab" d="M399.803 81.329h46.906v8.521h-46.906z"/><path id="Ac" d="M463.765 98.372h46.907v8.521h-46.907z"/><path id="Ad" d="M624.447 85.776l-16.229-11.817c-8.964-6.527-9.977-19.51-2.134-27.346l5.677-5.672h25.373l5.677 5.672c7.843 7.837 6.83 20.819-2.134 27.346l-16.229 11.817z"/><path id="Ae" d="M648.444 55.605a3.36 3.36 0 0 1-1.852-.555l-13.763-9.024a3.38 3.38 0 1 1 3.713-5.658l13.763 9.024a3.38 3.38 0 0 1 .975 4.686c-.648.989-1.733 1.527-2.835 1.527z"/><path id="Af" d="M698.548 99.756c1.699 0 3.076-1.375 3.076-3.073v-9.622c0-1.699-1.377-3.073-3.076-3.073s-3.076 1.375-3.076 3.073v9.622c0 1.699 1.377 3.073 3.076 3.073z"/><path id="Ag" d="M685.708 99.756c1.699 0 3.076-1.375 3.076-3.073V90.27c0-1.699-1.377-3.073-3.076-3.073s-3.076 1.375-3.076 3.073v6.413c0 1.699 1.377 3.073 3.076 3.073z"/><path id="Ah" d="M651.062 125.151c1.699 0 3.076-1.375 3.076-3.073v-6.416c0-1.699-1.377-3.073-3.076-3.073s-3.076 1.375-3.076 3.073v6.416c0 1.699 1.377 3.073 3.076 3.073z"/><path id="Ai" d="M528.59 64.392c1.699 0 3.076-1.375 3.076-3.073v-6.413c0-1.699-1.377-3.073-3.076-3.073s-3.076 1.375-3.076 3.073v6.413c0 1.699 1.377 3.073 3.076 3.073z"/></defs><g clip-path="url(#A)"><path d="M-11.618-1540.128h1523.237v2573.025H-11.618z" fill="#61d1d5"/><path d="M1682.204 305.595a88.54 88.54 0 0 0-68.363-32.124h-99.121V126.886h-14.384c-22.663 0-41.036-18.372-41.036-41.036V33.618c0-21.744-8.476-42.189-23.867-57.568s-35.854-23.846-57.619-23.846h-177.815c-21.766 0-42.229 8.469-57.61 23.841-15.396 15.375-23.874 35.822-23.874 57.574v65.918c0 21.49 8.307 41.761 23.383 57.079l16.139 16.399c15.866 16.122 15.691 42.042-.386 57.953-26.308 26.036-90.657 24.395-114.095 2.198-15.284-14.474-32.709-32.517-61.304-32.517H868.954c-23.811 0-46.2 9.264-63.051 26.093l-80.526 80.463c-1.197 1.195-2.819 1.867-4.51 1.867h-98.666c-40.185 0-75.581 27.072-86.076 65.841l-37.034 136.866c-7.198 26.596-1.49 55.534 15.273 77.412s43.229 34.938 70.801 34.938h77.643c11.636 0 149.632 120.916 149.632 120.916 4.813 4.813 4.19 12.738-1.256 16.821-3.878 2.908-69.317 70.079-79.233 82.634-17.516 22.178-16.971 53.63 1.305 75.185 0 0 14.789 18.045 18.428 21.601 9.72 9.497 22.857 14.685 36.447 14.685h8.224c9.006 16.001 26.166 26.832 45.81 26.832h35.226c27.597 0 53.541-10.738 73.054-30.234l1.177-1.174c19.513-19.498 30.26-45.422 30.26-72.995v-1.928c0-6.15 4.985-11.135 11.135-11.135h147.779c12.525 0 22.672 10.173 22.648 22.698 0 23.724 9.236 46.024 26.011 62.801l14.396 14.395c16.772 16.772 39.073 26.01 62.794 26.01h124.272c23.552 0 46.139-9.356 62.793-26.01l149.232-149.232c12.687-12.688 21.149-28.713 24.473-46.343l73.694-390.93c4.913-26.061-1.978-52.715-18.903-73.131z" class="a"/><g class="B G"><path d="M845.5 81.651l1.686-1.684-1.686-1.684a3.83 3.83 0 0 0-2.706-1.12h-13.037a6.46 6.46 0 0 0-4.566 1.89l-.971.97.859.858a6.46 6.46 0 0 0 4.566 1.89h13.149a3.83 3.83 0 0 0 2.706-1.12z"/><path d="M851.778 76.295l-4.593 3.671 4.593 3.671c-1.405-2.246-1.405-5.096 0-7.343zm29.39 9.684h-13.037c-1.713 0-3.355.68-4.566 1.889l-.971.97.859.858a6.46 6.46 0 0 0 4.566 1.89h13.149a3.83 3.83 0 0 0 2.706-1.12l1.686-1.684-1.686-1.684a3.83 3.83 0 0 0-2.706-1.12z"/><path d="M885.559,88.783l4.593,3.671c-1.405-2.246-1.405-5.096,0-7.343l-4.593,3.671Z"/><use href="#o"/><path d="M842.528 65.387l-4.593 3.671 4.593 3.671c-1.405-2.246-1.405-5.096 0-7.343zm74.83-27.52h13.149a3.83 3.83 0 0 0 2.706-1.12l1.685-1.684-1.685-1.684a3.83 3.83 0 0 0-2.706-1.12h-13.038a6.46 6.46 0 0 0-4.565 1.89l-.971.97.859.858a6.46 6.46 0 0 0 4.566 1.89z"/><path d="M939.491,31.392l-4.593,3.671,4.593,3.671c-1.405-2.246-1.405-5.096,0-7.343Z"/><use href="#p"/><path d="M925.696 61.884l4.593 3.671c-1.405-2.246-1.405-5.096 0-7.343l-4.593 3.671zm-32.009-13.052l.859.858a6.46 6.46 0 0 0 4.566 1.89h13.15a3.83 3.83 0 0 0 2.706-1.12l1.685-1.684-1.685-1.684a3.83 3.83 0 0 0-2.706-1.12h-13.038a6.46 6.46 0 0 0-4.566 1.89l-.971.97z"/><path d="M921.246 45.104l-4.593 3.671 4.593 3.671c-1.405-2.246-1.405-5.096 0-7.343zm-26.598 60.353H881.61a6.46 6.46 0 0 0-4.565 1.89l-.971.97.859.858a6.46 6.46 0 0 0 4.566 1.89h13.149a3.83 3.83 0 0 0 2.706-1.12l1.686-1.684-1.686-1.684a3.83 3.83 0 0 0-2.706-1.12z"/><path d="M899.04 108.26l4.593 3.671c-1.405-2.246-1.405-5.096 0-7.343l-4.593 3.671zm-22.956-67.589h13.149a3.83 3.83 0 0 0 2.706-1.12l1.685-1.684-1.685-1.684a3.83 3.83 0 0 0-2.706-1.12h-13.038a6.46 6.46 0 0 0-4.566 1.89l-.971.97.859.858a6.46 6.46 0 0 0 4.566 1.89z"/><path d="M898.217 34.195l-4.593 3.671 4.593 3.671c-1.405-2.246-1.405-5.096 0-7.343zm-20.845 27.92h-13.037a6.46 6.46 0 0 0-4.566 1.89l-.971.97.859.858a6.46 6.46 0 0 0 4.566 1.89h13.149a3.83 3.83 0 0 0 2.706-1.12l1.686-1.684-1.686-1.684a3.83 3.83 0 0 0-2.706-1.12z"/><path d="M881.764,64.919l4.593,3.671c-1.405-2.246-1.405-5.096,0-7.343l-4.593,3.671Z"/><use href="#q"/><path d="M867.79 97.246l-4.593 3.671 4.593 3.671c-1.405-2.246-1.405-5.096 0-7.343zm26.974-23.148h-13.038a6.46 6.46 0 0 0-4.565 1.89l-.971.97.859.858a6.46 6.46 0 0 0 4.566 1.89h13.149a3.83 3.83 0 0 0 2.706-1.12l1.686-1.684-1.686-1.684a3.83 3.83 0 0 0-2.706-1.12z"/><path d="M899.155 76.901l4.593 3.671c-1.405-2.246-1.405-5.096 0-7.343l-4.593 3.671zm34.293-28.878l-.971.97.859.858a6.46 6.46 0 0 0 4.566 1.89h13.149a3.83 3.83 0 0 0 2.706-1.12l1.686-1.684-1.686-1.684a3.83 3.83 0 0 0-2.706-1.12h-13.037a6.46 6.46 0 0 0-4.566 1.89z"/><path d="M960.035 45.266l-4.593 3.671 4.593 3.671c-1.405-2.246-1.405-5.096 0-7.343zm-9.195 14.74l-.971.97.859.858a6.46 6.46 0 0 0 4.566 1.89h13.149a3.83 3.83 0 0 0 2.706-1.12l1.685-1.684-1.685-1.684a3.83 3.83 0 0 0-2.706-1.12h-13.038c-1.712 0-3.354.68-4.566 1.89z"/><path d="M977.427 57.249l-4.593 3.671 4.593 3.671c-1.405-2.246-1.405-5.096 0-7.343zm39.404 3.472a6.46 6.46 0 0 0 4.566 1.89h13.15a3.83 3.83 0 0 0 2.706-1.12l1.685-1.684-1.685-1.684a3.83 3.83 0 0 0-2.706-1.12h-13.038c-1.712 0-3.354.68-4.566 1.89l-.971.97.859.858z"/><path d="M1043.531 56.136l-4.593 3.671 4.593 3.671c-1.405-2.246-1.405-5.096 0-7.343zm-17.579 26.121l1.685-1.684-1.685-1.684a3.83 3.83 0 0 0-2.706-1.12h-13.038c-1.712 0-3.354.68-4.566 1.89l-.971.97.859.858a6.46 6.46 0 0 0 4.565 1.89h13.15a3.83 3.83 0 0 0 2.706-1.12z"/><path d="M1032.23 76.901l-4.593 3.671 4.593 3.671c-1.405-2.246-1.405-5.096 0-7.343zm3.65 14.159h-13.038a6.46 6.46 0 0 0-4.566 1.89l-.971.97.859.858a6.46 6.46 0 0 0 4.566 1.89h13.15c1.015 0 1.988-.403 2.705-1.12l1.686-1.684-1.686-1.684c-.717-.717-1.691-1.12-2.705-1.12z"/><path d="M1044.864 90.193l-4.593 3.671 4.593 3.671c-1.405-2.246-1.405-5.096 0-7.343zm-103.068-2.792l1.685-1.684-1.685-1.684a3.83 3.83 0 0 0-2.706-1.12h-13.038c-1.712 0-3.355.68-4.566 1.889l-.971.97.859.858a6.46 6.46 0 0 0 4.566 1.89h13.15a3.83 3.83 0 0 0 2.706-1.12z"/><path d="M948.074 82.046l-4.593 3.671 4.593 3.671c-1.405-2.246-1.405-5.096 0-7.343zm22.473-10.025h-13.038a6.46 6.46 0 0 0-4.566 1.89l-.971.97.859.858a6.46 6.46 0 0 0 4.566 1.89h13.15a3.83 3.83 0 0 0 2.706-1.12l1.685-1.684-1.685-1.684a3.83 3.83 0 0 0-2.706-1.12z"/><path d="M974.938 74.825l4.593 3.671c-1.405-2.246-1.405-5.096 0-7.343l-4.593 3.671zm-58.21 20.224H903.69c-1.712 0-3.354.68-4.566 1.89l-.971.97.859.858a6.46 6.46 0 0 0 4.565 1.89h13.15a3.83 3.83 0 0 0 2.706-1.12l1.686-1.684-1.686-1.684a3.83 3.83 0 0 0-2.706-1.12z"/><path d="M921.119 97.853l4.593 3.671c-1.405-2.246-1.405-5.096 0-7.343l-4.593 3.671zm25.296 12.696h-13.038a6.46 6.46 0 0 0-4.565 1.89l-.971.97.859.858a6.46 6.46 0 0 0 4.566 1.89h13.149a3.83 3.83 0 0 0 2.706-1.12l1.685-1.684-1.685-1.684a3.83 3.83 0 0 0-2.706-1.12z"/><path d="M950.806 113.353l4.593 3.671c-1.405-2.246-1.405-5.096 0-7.343l-4.593 3.671zm5.962-14.633H943.73a6.46 6.46 0 0 0-4.566 1.89l-.971.97.859.858a6.46 6.46 0 0 0 4.566 1.89h13.15c1.015 0 1.988-.403 2.705-1.12l1.686-1.684-1.686-1.684c-.717-.717-1.691-1.12-2.705-1.12z"/><path d="M961.159 101.524l4.593 3.671c-1.405-2.246-1.405-5.096 0-7.343l-4.593 3.671zm-78.448 17.798h-13.038a6.46 6.46 0 0 0-4.565 1.889l-.971.97.859.858a6.46 6.46 0 0 0 4.566 1.89h13.149a3.83 3.83 0 0 0 2.706-1.12l1.685-1.684-1.685-1.684a3.83 3.83 0 0 0-2.706-1.12z"/><path d="M887.102 122.126l4.593 3.671c-1.405-2.246-1.405-5.096 0-7.343l-4.593 3.671zm-43.678-66.472h13.15a3.83 3.83 0 0 0 2.706-1.12l1.685-1.684-1.685-1.684a3.83 3.83 0 0 0-2.706-1.12h-13.038c-1.713 0-3.355.68-4.566 1.889l-.971.97.859.858a6.46 6.46 0 0 0 4.566 1.89z"/><path d="M865.557,49.179l-4.593,3.671,4.593,3.671c-1.405-2.246-1.405-5.096,0-7.343Z"/></g><path d="M361.191,61.978l-41.742-41.739c-15.418-15.419-35.918-23.91-57.722-23.91h-51.432l-33.483-33.482c-15.639-15.64-36.508-24.151-58.662-23.904-19.947.223-39.295,7.813-54.023,21.266C46.959-24.108,37.453-2.488,37.46,20.595c.008,21.811,8.509,42.312,23.937,57.729l19.076,19.062v94.411l-42.874,42.834c-26.023,26.011-29.838,66.849-9.096,97.253l.154.227c14.569,21.319,38.724,34.047,64.615,34.047h145.691c5.559,0,8.699,6.269,5.473,10.795-4.395,6.166-6.813,13.831-6.32,22.068,1.098,18.355,16.863,32.411,35.251,32.411h16.625c19.05,0,34.547-15.484,34.547-34.518,0-8.138-2.835-15.625-7.57-21.53-3.216-4.01-1.183-9.934,3.847-10.996,36.673-7.744,64.285-40.331,64.285-79.261V119.703c0-21.806-8.491-42.306-23.909-57.725Z" class="B a"/><path d="M121.735 96.735v95.707c-.005 10.539-4.199 20.648-11.657 28.102l-43.309 43.269c-12.025 12.018-13.76 30.895-4.125 44.898l.081.118c6.887 10.079 18.342 16.067 30.549 16.067h210.763c21.981 0 39.803-17.803 39.803-39.77V119.703a40.37 40.37 0 0 0-11.825-28.547l-41.741-41.741c-7.571-7.571-17.84-11.825-28.547-11.825h-51.801a40.37 40.37 0 0 1-28.547-11.825L147.637-7.977c-15.766-15.766-41.328-15.766-57.095 0h0c-15.771 15.771-15.76 41.348.018 57.112l19.518 19.503c7.457 7.451 11.651 17.559 11.657 28.097z" class="K"/><path d="M121.735 96.735v95.707c-.005 10.54-4.199 20.647-11.657 28.103l-43.309 43.269c-12.025 12.019-13.76 30.895-4.125 44.898l.081.118c6.887 10.079 18.342 16.067 30.549 16.067h210.763c21.981 0 39.803-17.804 39.803-39.77V119.703c0-10.708-4.253-20.976-11.825-28.547l-41.741-41.741c-7.571-7.571-17.84-11.825-28.547-11.825h-51.801a40.37 40.37 0 0 1-28.547-11.825L147.637-7.978c-15.766-15.766-41.328-15.766-57.095 0h0c-15.771 15.771-15.76 41.348.018 57.113l19.518 19.502c7.457 7.451 11.651 17.559 11.657 28.097z" stroke-dasharray="0 14.948" stroke-width="15.019" class="C H I b"/><g class="W"><use href="#r" class="E"/><use href="#s" class="E"/><path d="M157.003 80.114a2.48 2.48 0 0 1-2.482-2.479v-5.174a2.482 2.482 0 1 1 4.964 0v5.174a2.48 2.48 0 0 1-2.482 2.479zm37.45 20.489a2.48 2.48 0 0 1-2.482-2.479v-7.763a2.482 2.482 0 1 1 4.964 0v7.763a2.48 2.48 0 0 1-2.482 2.479z" class="E"/><use href="#t" class="E"/><path d="M184.957 100.603a2.48 2.48 0 0 1-2.482-2.479v-5.177a2.482 2.482 0 1 1 4.964 0v5.177a2.48 2.48 0 0 1-2.482 2.479zm19.099-42.918a2.48 2.48 0 0 1-2.482-2.479v-7.763a2.482 2.482 0 1 1 4.964 0v7.763a2.48 2.48 0 0 1-2.482 2.479zm10.361 0a2.48 2.48 0 0 1-2.482-2.479v-5.177a2.482 2.482 0 1 1 4.964 0v5.177a2.48 2.48 0 0 1-2.482 2.479zm-19.858 0a2.48 2.48 0 0 1-2.482-2.479v-5.177a2.482 2.482 0 1 1 4.964 0v5.177a2.48 2.48 0 0 1-2.482 2.479z" class="E"/></g><path d="M226.569,67.973l-.724,4.336c-.038.23.003.466.116.67l2.011,3.599" stroke="#675d7e" class="C H I m"/><rect x="226.1" y="62.096" width="5.886" height="7.016" rx="2.942" transform="matrix(.998354 .057355 -.057355 .998354 4.139 -13.028)" class="c"/><path d="M219.205,72.275l1.18,2.125c.092.166.136.354.127.543l-.157,2.658" stroke="#5d5276" class="C H n o"/><rect x="220.276" y="64.615" width="6.439" height="11.712" rx="3.22" transform="matrix(.397148 .917755 -.917755 .397148 199.408 -162.63)" class="d"/><g class="C H"><g class="n"><path d="M221.803,72.059l1.085,2.449c.061.137.09.286.087.435v2.921" stroke="#675d7e" class="o"/><g stroke="#9692a4" class="m"><path d="M228.677,68.226l-.792,4.453c-.041.229-.003.465.108.669l2.337,4.31"/></g></g><path d="M219.069 70.286h0a9.27 9.27 0 0 0-3.04 6.009l-.009.092" stroke="#9692a4" stroke-width="1.526" class="I"/></g><use href="#u" fill="#928070" class="B"/><g clip-path="url(#B)" class="B"><use href="#v" fill="#7d715d"/></g><path d="M183.971 133.312c0-2.844-1.131-5.572-3.144-7.584s-4.775-3.141-7.622-3.141h-14.293v4.813c0 2.844 1.131 5.572 3.144 7.584s4.743 3.141 7.59 3.141h14.324v-4.813z" class="B N"/><g clip-path="url(#C)"><g class="B"><path d="M183.971 138.125l-27.778-16.896h27.778v16.896z" class="L"/><g class="O"><path d="M173.205 121.425h2.691v5.171c0 .743-.602 1.345-1.346 1.345s-1.346-.602-1.346-1.345v-5.171zm5.81.057h2.691v8.925c0 .742-.602 1.343-1.344 1.343h-.003c-.742 0-1.344-.601-1.344-1.343v-8.925z"/></g><g class="P"><use href="#w"/><use href="#x"/></g></g><path d="M156.826 120.043l28.968 17.527-1.335 2.337-28.898-17.49 1.265-2.374z" class="Q"/></g><g class="B L"><path d="M197.753 141.679c-1.457-2.444-3.826-4.209-6.585-4.908l-13.886-3.516-13.886 3.516a10.73 10.73 0 0 0-6.585 4.908c-1.457 2.444-1.883 5.366-1.183 8.123l1.183 4.666 13.855-3.508c2.76-.699 5.159-2.472 6.616-4.916 1.457 2.444 3.856 4.217 6.616 4.916l13.855 3.508 1.183-4.666a10.72 10.72 0 0 0-1.183-8.123z"/><use href="#y"/></g><g clip-path="url(#D)"><g class="B"><path d="M177.283 133.255l22.772 23.195-26.926-6.817 4.154-16.378z" class="N"/><use href="#z" class="P"/><use href="#AA" class="O"/></g><path d="M199.151 157.445l-23.772-24.099 1.869-1.938 23.712 24.046-1.809 1.991z" class="Q"/></g><use href="#AB" class="B L"/><g clip-path="url(#E)"><g class="B"><path d="M177.283 133.255L154.51 156.45l26.926-6.817-4.153-16.378z" class="N"/><use href="#AC" class="P"/><use href="#AD" class="O"/></g><path d="M155.414 157.445l23.772-24.099-1.868-1.938-23.713 24.046 1.809 1.991z" class="Q"/></g><use href="#AE" fill="#5d5276"/><use href="#AF" class="X"/><use href="#AG" class="Y"/><path d="M197.348,133.246h0c1.648-1.897,1.423-4.859-.504-6.617l-5.706-5.207c-1.927-1.758-4.825-1.646-6.473.251h0c-1.648,1.897-1.423,4.859.504,6.617l5.706,5.207c1.927,1.758,4.825,1.646,6.473-.251Z" class="d"/><use href="#AH" class="X"/><rect x="179.392" y="114.528" width="8.143" height="10.157" rx="4.071" transform="matrix(-.854568 .51934 -.51934 -.854568 402.363 126.538)" class="c"/><use href="#AI" class="Y"/><path d="M116.912 48.072l2.501-20.297 2.934-9.096 2.934 9.096 2.501 20.297a3.14 3.14 0 0 1-3.117 3.521h-4.636a3.14 3.14 0 0 1-3.117-3.521z" fill="#928070" class="B"/><g clip-path="url(#F)" class="B"><path d="M118.914 42.216l3.433-2.836 3.433 2.836a1.66 1.66 0 0 0 2.706-1.159l1.43-20.334h-15.138l1.43 20.334a1.66 1.66 0 0 0 2.706 1.159z" fill="#7d715d"/></g><path d="M129.035 15.461c0-2.844-1.131-5.572-3.144-7.584s-4.775-3.141-7.622-3.141h-14.293v4.813c0 2.844 1.131 5.572 3.144 7.584a10.74 10.74 0 0 0 7.59 3.141h14.324v-4.813z" class="B N"/><g clip-path="url(#G)"><g class="B"><path d="M129.035 20.274L101.258 3.379h27.777v16.895z" class="L"/><g class="O"><path d="M118.269 3.574h2.691v5.171c0 .743-.602 1.345-1.346 1.345s-1.346-.602-1.346-1.345V3.574zm5.81.057h2.691v8.925c0 .742-.602 1.343-1.344 1.343h-.003c-.742 0-1.344-.601-1.344-1.343V3.631z"/></g><g class="P"><path d="M100.36 9.996v2.547h5.795c.338 0 .662-.134.901-.373s.373-.563.373-.9h0c0-.338-.134-.662-.373-.901s-.563-.373-.901-.373h-5.795zm-.295 5.236v2.689h13.513c.742 0 1.344-.601 1.344-1.343v-.003c0-.742-.602-1.343-1.344-1.343h-13.513z"/></g></g><path d="M101.89 2.192l28.968 17.527-1.335 2.337-28.897-17.49 1.264-2.374z" class="Q"/></g><g class="B L"><path d="M142.817 23.828c-1.457-2.444-3.826-4.209-6.585-4.908l-13.886-3.516-13.886 3.516a10.73 10.73 0 0 0-6.585 4.908c-1.457 2.444-1.883 5.366-1.183 8.123l1.183 4.666 13.855-3.508c2.76-.699 5.159-2.472 6.616-4.916 1.457 2.444 3.856 4.217 6.616 4.916l13.855 3.508L144 31.951a10.72 10.72 0 0 0-1.183-8.123z"/><path d="M122.347 28.193c1.457 2.444 3.856 4.217 6.616 4.916l13.855 3.508 1.183-4.665a10.72 10.72 0 0 0-1.183-8.123c-1.457-2.444-3.826-4.209-6.585-4.908l-13.886-3.516v12.788z"/></g><g clip-path="url(#H)"><g class="B"><path d="M122.347 15.405L145.12 38.6l-26.927-6.818 4.154-16.377z" class="N"/><g class="P"><path d="M129.447 36.672l-2.609-.661 1.271-5.012c.183-.72.915-1.156 1.635-.973s1.156.914.974 1.634l-1.271 5.012zm-5.099-1.789l-2.609-.661 2.194-8.652c.182-.719.914-1.154 1.633-.972h.003c.72.183 1.155.914.973 1.633l-2.194 8.652z"/></g><g class="O"><path d="M147.973 32.496l.626-2.469-5.617-1.422a1.28 1.28 0 0 0-.965.14c-.29.173-.5.454-.583.781h0a1.28 1.28 0 0 0 .14.965c.173.29.454.5.782.583l5.617 1.422zm-2.075-5.927l.661-2.607-9.186-2.326c-.72-.182-1.451.253-1.633.972v.003c-.183.719.253 1.45.972 1.632l9.186 2.326z"/></g></g><path d="M144.215 39.595l-23.771-24.1 1.868-1.937 23.712 24.046-1.809 1.991z" class="Q"/></g><path d="M122.347 28.193c-1.457 2.444-3.856 4.217-6.616 4.916l-13.855 3.508-1.183-4.665a10.72 10.72 0 0 1 1.183-8.123c1.457-2.444 3.826-4.209 6.585-4.908l13.886-3.516v12.788z" class="B L"/><g clip-path="url(#I)"><g class="B"><path d="M122.347 15.405L99.574 38.6l26.926-6.818-4.153-16.377z" class="N"/><g class="P"><path d="M115.246 36.672l2.609-.661-1.271-5.012c-.183-.72-.915-1.156-1.635-.973s-1.156.914-.974 1.634l1.271 5.012zm5.1-1.789l2.609-.661-2.194-8.652c-.182-.719-.914-1.154-1.633-.972h-.003c-.72.183-1.155.914-.973 1.633l2.194 8.652z"/></g><g class="O"><path d="M96.72 32.496l-.626-2.469 5.617-1.422a1.28 1.28 0 0 1 .965.14c.29.173.5.454.583.781h0a1.28 1.28 0 0 1-.14.965c-.173.29-.454.5-.782.583l-5.617 1.422zm2.075-5.927l-.661-2.607 9.186-2.326c.72-.182 1.451.253 1.633.972v.003c.183.719-.253 1.45-.972 1.632l-9.186 2.326z"/></g></g><path d="M100.478 39.595l23.772-24.1-1.868-1.937-23.713 24.046 1.809 1.991z" class="Q"/></g><path d="M138.772 23.395c.149-.091.291-.199.422-.326a2.4 2.4 0 0 0 .059-3.4l-1.708-1.768.289.016c1.329.072 2.463-.944 2.534-2.271s-.947-2.461-2.273-2.532l-6.41-.346c-.99-.052-1.912.504-2.32 1.402s-.229 1.959.458 2.67l5.968 6.17a2.41 2.41 0 0 0 2.981.385z" fill="#5d5276"/><path d="M131.536 14.266c.271-.165.511-.384.701-.647.417-.578.556-1.311.38-2.002l-1.158-4.534c-.328-1.287-1.639-2.064-2.927-1.736-1.283.321-2.067 1.637-1.737 2.924l.444 1.743-3.022.212a2.41 2.41 0 0 0-2.233 2.568c.094 1.326 1.245 2.325 2.57 2.231l5.9-.415c.388-.028.758-.148 1.083-.345z" class="X"/><path d="M146.563 18.5a1.02 1.02 0 0 1-.499-.132 1.01 1.01 0 0 1-.377-1.373c.52-.918 1.679-3.702.801-5.543-.331-.692-1.118-.877-1.725-.752-.364.076-1.216.382-1.258 1.583-.02.557-.504.969-1.044.972a1.01 1.01 0 0 1-.973-1.043c.063-1.768 1.187-3.136 2.864-3.483 1.642-.341 3.268.421 3.954 1.856 1.515 3.171-.771 7.236-.869 7.407a1.01 1.01 0 0 1-.876.508z" class="Y"/><path d="M142.412,15.396h0c1.648-1.897,1.423-4.859-.504-6.617l-5.706-5.207c-1.927-1.758-4.825-1.646-6.473.251h0c-1.648,1.897-1.423,4.859.504,6.617l5.706,5.207c1.927,1.758,4.825,1.646,6.473-.251Z" class="d"/><path d="M138.786 23.387c1.136-.691 1.497-2.169.806-3.305l-1.981-3.255 1.763.095c1.321.072 2.459-.946 2.533-2.274s-.947-2.459-2.276-2.53l-6.32-.339c-.891-.049-1.738.402-2.195 1.167s-.454 1.723.01 2.485l4.353 7.151c.691 1.136 2.171 1.496 3.308.805z" class="X"/><rect x="124.456" y="-3.322" width="8.143" height="10.157" rx="4.071" transform="matrix(-.854568 .51934 -.51934 -.854568 239.276 -63.493)" class="c"/><path d="M127.32 17.142l7.05-4.285c.676-.411 1.108-1.129 1.152-1.92l.342-6.076a2.4 2.4 0 0 0-2.267-2.535c-1.324-.074-2.464.937-2.538 2.266l-.272 4.813-5.969 3.627c-1.136.691-1.497 2.169-.806 3.305s2.171 1.496 3.308.805z" class="Y"/><g class="K"><rect x="115.374" y="46.572" width="6.833" height="12.227" rx="3.415"/><rect x="122.207" y="46.572" width="6.833" height="12.227" rx="3.415"/></g><path d="M232.656 129.56c-3.202-6.714-9.983-10.99-17.427-10.99h-.001a3.74 3.74 0 0 0-3.741 3.738v12.427l23.471-.349-2.302-4.826z" class="B e"/><g clip-path="url(#J)" class="C H I f"><path d="M234.548 133.978l-1.926-4.159c-3.175-6.858-10.049-11.249-17.612-11.249h-3.523" stroke="#fff"/></g><path d="M281.011 147.665a4.87 4.87 0 0 0 4.196-2.399 4.86 4.86 0 0 0 .055-4.831l-11.664-20.912a16.82 16.82 0 0 0-14.688-8.622h-12.451a4.19 4.19 0 0 0-3.49 1.87c-.776 1.169-.915 2.648-.37 3.94l13.062 30.954h25.349z" fill="#78bde1" class="B"/><g clip-path="url(#K)"><path d="M251.436 137.649l-11.287-26.748" stroke="#5094bb" class="C H I f"/><path d="M240.323 118.57h11.826a2.15 2.15 0 0 1 2.151 2.149v.283a2.15 2.15 0 0 0 2.151 2.149h3.181a2.15 2.15 0 0 0 2.151-2.149v-2.579a2.15 2.15 0 0 1 2.151-2.149h.363a2.15 2.15 0 0 1 2.151 2.149h0a2.15 2.15 0 0 0 2.151 2.149h4.303a2.15 2.15 0 0 0 2.151-2.178l-.106-8.138a2.15 2.15 0 0 0-1.614-2.053l-12.889-3.318c-.261-.067-.525-.086-.792-.053l-13.28 1.749c-.861.234-6.806 5.315-6.806 5.94" class="B L"/></g><path d="M211.487 147.293v-13.315h79.347c13.889 0 27.378 4.657 38.304 13.225l.828.649c2.004 1.571 3.174 3.976 3.174 6.521v1.688c0 1.349-.961 2.507-2.288 2.757-16.631 3.134-33.517 4.713-50.44 4.717l-34.312.009c-13.384.003-26.073-5.954-34.613-16.25z" class="B J"/><g clip-path="url(#L)"><path d="M204.511 131.781h138.046v21.732H204.511z" class="e"/><g clip-path="url(#M)" class="B"><path d="M298.103 143.492a5.06 5.06 0 0 0-5.06-5.056h-.002a5.06 5.06 0 0 0-5.06 5.056v13.518h10.123v-13.518z" class="e"/><path d="M293.015 141.608h-.025l-.025.001h-.024l-.025.002-.024.002-.022.002-.023.002-.024.003-.028.003-.02.003-.022.003-.029.005-.019.003-.024.005-.028.005-.015.003-.023.005-.03.007-.019.005-.019.005-.025.007-.021.006-.02.006-.023.007-.023.008-.023.008-.023.008-.019.007-.018.007-.018.007-.022.009-.022.009-.022.01-.026.012-.017.008-.017.008-.021.011-.021.011-.02.011-.021.011-.02.011-.015.009-.025.015-.019.012-.019.012-.019.012-.015.01-.018.013-.018.013-.027.02-.018.013-.008.006-.027.021-.017.014-.011.009-.026.022-.017.014-.01.009-.016.015-.02.018-.019.018-.016.015-.016.016-.018.019-.012.013-.018.019-.015.016-.011.013-.017.02-.015.017-.02.023-.011.013-.008.01-.018.024-.016.021-.017.022-.01.014-.01.014-.017.025-.01.014-.009.014-.015.023-.016.026-.011.018-.009.015-.01.018-.009.015-.013.025-.016.031-.01.019-.003.007-.013.027-.009.019-.01.022-.013.03-.003.008-.008.02-.013.033-.008.021-.004.01-.008.021-.011.032-.007.024-.004.011-.006.022-.01.035-.004.012-.006.023-.006.025-.003.014-.008.037-.003.014-.003.015-.006.038-.004.026-.002.016-.003.016-.003.028-.003.028-.003.029-.002.018v.018l-.003.03v.03l-.003.031v10.387h3.775V143.44l-.002-.031v-.019l-.004-.048-.003-.029v-.017l-.007-.045-.003-.028-.004-.027-.004-.026-.003-.015-.005-.026-.005-.025-.003-.014-.006-.025-.006-.025-.006-.023-.006-.023-.003-.013-.007-.023-.01-.033-.007-.023-.004-.011-.008-.021-.011-.032-.008-.021-.005-.012-.008-.02-.011-.028-.008-.02-.01-.022-.009-.019-.008-.017-.013-.026-.009-.019-.011-.021-.009-.016-.009-.016-.015-.027-.014-.024-.011-.018-.011-.018-.009-.015-.01-.015-.015-.023-.018-.025-.015-.022-.01-.014-.01-.014-.016-.021-.013-.017-.014-.018-.017-.02-.014-.016-.015-.017-.011-.013-.018-.02-.015-.016-.018-.019-.018-.019-.012-.013-.016-.016-.016-.015-.019-.018-.013-.012-.017-.015-.023-.02-.017-.014-.014-.012-.017-.014-.023-.018-.015-.012-.014-.01-.023-.017-.022-.016-.013-.009-.018-.013-.02-.013-.019-.012-.024-.016-.019-.012-.015-.009-.02-.012-.025-.014-.015-.009-.02-.011-.021-.011-.017-.008-.022-.01-.021-.01-.022-.01-.023-.01-.018-.008-.022-.009-.022-.009-.018-.007-.023-.008-.023-.008-.019-.007-.02-.007-.024-.008-.023-.007-.024-.007-.024-.007-.016-.004-.019-.005-.03-.007-.023-.005-.015-.003-.026-.005-.026-.005-.021-.004-.025-.004-.022-.003-.023-.003-.028-.003-.021-.002-.023-.002-.024-.002-.023-.002h-.024l-.025-.002h-.025l-.025-.001h-.027-.027zm.093-3.171h.065l.065.003.065.003.065.004.064.004.064.005.064.006.063.007.063.008.063.008.063.009.063.01.062.011.062.011.062.012.062.013.061.014.062.015.06.015.061.016.06.017.06.017.06.018.059.019.059.019.058.02.058.021.058.022.058.022.057.023.057.024.056.024.056.025.056.026.055.026.055.027.055.028.055.028.054.029.053.029.053.03.053.031.053.031.052.032.051.033.051.033.051.034.05.034.05.035.05.036.049.036.048.037.048.037.048.038.047.038.046.039.046.039.046.04.045.041.045.041.044.042.044.042.043.043.043.043.043.044.041.044.041.045.041.045.04.046.039.046.039.047.038.047.038.048.037.048.037.048.036.049.036.049.035.05.034.05.034.051.033.051.032.051.032.052.031.052.031.053.03.053.03.054.029.054.029.054.027.055.027.055.026.055.026.056.025.056.024.057.024.057.023.057.022.058.022.058.021.058.02.059.02.059.019.059.018.06.018.06.016.06.016.06.015.061.015.061.013.061.013.062.012.062.011.062.011.062.01.063.01.063.008.063.008.063.007.064.006.064.006.064.004.064.004.065.003.065.002.065v.065l.002.065v13.518h-10.123v-13.649l.003-.065.003-.065.004-.065.004-.064.005-.064.006-.064.006-.064.008-.063.008-.063.009-.063.01-.063.011-.062.011-.062.012-.062.013-.062.014-.061.014-.061.015-.061.017-.06.017-.06.017-.06.018-.06.019-.059.019-.059.02-.059.021-.058.022-.058.022-.058.023-.057.023-.057.024-.057.025-.056.025-.056.027-.055.027-.055.028-.055.028-.054.029-.054.029-.054.03-.053.03-.053.032-.052.032-.052.032-.051.034-.051.034-.051.034-.05.035-.05.036-.049.036-.049.037-.048.037-.048.037-.048.039-.047.039-.047.04-.046.04-.046.04-.045.041-.045.042-.044.042-.044.043-.043.043-.043.044-.042.044-.042.044-.041.045-.041.046-.04.046-.039.047-.039.047-.038.048-.038.048-.037.049-.037.049-.036.05-.036.05-.035.05-.034.051-.034.051-.033.051-.033.052-.032.052-.031.053-.031.053-.03.054-.029.054-.029.054-.028.055-.028.055-.027.056-.026.056-.026.056-.025.056-.024.057-.024.057-.023.058-.022.058-.022.058-.021.059-.02.059-.019.059-.019.06-.018.06-.017.06-.017.06-.016.061-.015.061-.015.062-.014.062-.013.062-.012.062-.011.063-.011.062-.01.063-.009.063-.008.063-.008.063-.007.064-.006.064-.005.065-.004.064-.004.065-.003.065-.002h.065l.066-.002h.067z" fill="#78bde1"/></g><path d="M325.424 139.187h-19.389a2.72 2.72 0 0 0-2.719 2.717h0a2.71 2.71 0 0 0 .797 1.921 2.72 2.72 0 0 0 1.923.796h20.722l-1.333-5.434z" class="B T"/><g clip-path="url(#N)" class="B U"><path d="M326.887 137.472h-18.791a3.57 3.57 0 0 0-.065 3.61c.633 1.127 1.826 1.824 3.119 1.824h17.071l-1.333-5.434z"/></g><g class="J"><path d="M306.034 139.187h-.07l-.07.004-.069.004-.069.006-.068.008-.068.01-.067.011-.067.013-.066.014-.066.016-.065.018-.064.019-.063.021-.063.022-.062.024-.061.025-.061.026-.06.028-.059.029-.058.031-.057.032-.056.033-.056.035-.055.036-.054.037-.053.038-.052.04-.051.041-.05.042-.049.043-.048.044-.046.046-.046.047-.044.048-.043.049-.043.05-.041.051-.04.052-.038.053-.037.054-.036.055-.035.056-.033.056-.032.057-.03.058-.029.059-.028.06-.027.061-.025.061-.023.062-.022.063-.02.063-.019.064-.018.065-.016.065-.015.066-.013.067-.011.067-.009.068-.008.068-.006.069-.004.069-.003.07v.07l-.001.067.003.067.004.067.006.067.008.066.009.066.011.066.012.065.014.065.015.065.017.064.018.064.02.063.022.063.023.062.025.062.026.061.028.06.029.06.03.059.032.058.034.057.035.057.036.056.037.055.039.054.04.053.042.052.043.051.044.05.046.049.047.048.048.047.05.046.05.044.051.043.053.042.053.04.055.039.055.038.056.036.057.035.057.033.058.032.059.031.06.029.06.028.061.026.062.025.062.023.063.022.063.02.064.019.064.017.065.015.065.014.066.012.066.011.066.009.067.007.067.006.067.004.067.002h.067 20.722l-1.333-5.434h-19.389zm19.522-1.898l.133.014.131.023.129.032.126.041.124.05.12.059.115.067.11.075.105.082.098.089.093.096.086.102.077.108.07.113.062.118.054.122.045.125.036.128 1.334 5.434.027.13.018.131.008.132v.132l-.01.132-.018.131-.028.13-.037.127-.046.124-.054.121-.063.117-.07.112-.078.107-.085.101-.093.095-.098.088-.105.081-.11.074-.115.066-.119.058-.123.05-.126.041-.129.032-.131.023-.131.014-.133.005h-20.84l-.113-.006-.113-.007-.112-.01-.113-.012-.114-.016-.112-.018-.112-.021-.11-.023-.113-.027-.107-.028-.109-.031-.11-.035-.105-.036-.105-.039-.103-.041-.103-.044-.102-.046-.1-.049-.106-.055-.101-.056-.093-.054-.096-.059-.096-.062-.095-.065-.091-.065-.091-.07-.088-.07-.086-.072-.088-.078-.082-.076-.084-.082-.084-.086-.076-.082-.072-.081-.076-.09-.071-.09-.066-.086-.069-.096-.063-.093-.059-.091-.061-.098-.061-.104-.054-.1-.048-.092-.05-.102-.047-.103-.044-.102-.045-.112-.038-.105-.036-.104-.033-.105-.032-.107-.03-.115-.025-.107-.023-.108-.022-.115-.019-.117-.014-.108-.013-.109-.01-.117-.007-.117-.004-.109-.002-.117.002-.119.004-.118.008-.118.009-.11.014-.126.018-.117.017-.102.022-.117.026-.117.026-.108.032-.116.032-.108.035-.108.037-.106.039-.104.044-.106.045-.103.048-.103.048-.096.053-.1.058-.102.055-.092.06-.096.061-.092.061-.088.068-.093.069-.09.068-.084.072-.085.075-.085.072-.076.077-.079.079-.077.083-.077.088-.077.083-.069.082-.066.088-.068.091-.066.089-.062.096-.063.098-.061.093-.055.097-.054.102-.053.096-.048.101-.047.105-.046.103-.042.108-.041.112-.039.103-.033.11-.033.114-.03.107-.026.112-.024.115-.022.117-.019.113-.016.115-.013.118-.011.119-.007.117-.004h.106l19.401-.001.133.005z" class="B"/><use href="#AJ"/></g><use href="#AJ" stroke="#c9bed0" stroke-width="3.173" class="C I"/></g><path d="M283.164 141.432c0-1.24-1.006-2.245-2.247-2.245s-2.247 1.005-2.247 2.245v1.27c0 1.24 1.006 2.245 2.247 2.245s2.247-1.005 2.247-2.245v-1.27z" class="B T"/><g clip-path="url(#O)" class="B U"><use href="#AK"/></g><path d="M280.859 139.187l-.057.002-.058.004-.056.005-.056.006-.056.008-.056.009-.055.011-.055.012-.054.013-.053.014-.053.016-.053.017-.051.018-.051.02-.051.021-.05.022-.05.023-.049.024-.048.025-.047.026-.047.028-.046.029-.046.03-.044.031-.043.032-.043.033-.042.034-.041.035-.04.036-.04.037-.038.038-.038.039-.037.039-.036.04-.035.041-.034.042-.033.043-.032.044-.031.044-.03.045-.029.046-.027.047-.027.047-.025.048-.024.049-.023.049-.022.05-.021.051-.019.051-.018.052-.017.052-.016.053-.015.054-.013.054-.011.055-.011.055-.009.055-.008.056-.006.056-.005.057-.004.057-.002.058v.058 1.27.058l.003.058.004.057.005.057.006.056.008.056.009.055.011.055.011.055.013.054.015.054.016.053.017.052.018.052.019.051.021.051.022.05.023.049.024.049.025.048.027.047.027.047.029.046.03.045.031.044.032.044.033.043.034.042.035.041.036.04.037.039.038.039.038.038.04.037.04.036.041.035.042.034.043.033.043.032.044.031.046.03.046.029.047.028.047.027.048.025.049.024.05.023.05.022.051.021.051.019.051.018.053.017.053.016.053.014.054.013.055.012.055.011.056.009.056.008.056.006.056.005.058.004.057.002h.058.058l.057-.002.058-.004.056-.005.056-.006.056-.008.056-.009.055-.011.055-.012.054-.013.053-.014.053-.016.053-.017.051-.018.051-.019.051-.021.05-.022.05-.023.049-.024.048-.025.047-.027.047-.028.046-.029.046-.03.044-.031.043-.032.043-.033.042-.034.041-.035.04-.036.04-.037.038-.038.038-.039.037-.039.036-.04.035-.041.034-.042.033-.043.032-.044.031-.044.03-.045.029-.046.027-.047.027-.047.025-.048.024-.049.023-.049.022-.05.021-.051.019-.051.018-.052.017-.052.016-.053.015-.054.013-.054.011-.055.011-.055.009-.055.008-.056.006-.056.005-.057.004-.057.002-.058v-.058-1.27-.058l-.003-.058-.004-.057-.005-.057-.006-.056-.008-.056-.009-.055-.011-.055-.011-.055-.013-.054-.015-.054-.016-.053-.017-.052-.018-.052-.019-.051-.021-.051-.022-.05-.023-.049-.024-.049-.025-.048-.027-.047-.027-.047-.029-.046-.03-.045-.031-.044-.032-.044-.033-.043-.034-.042-.035-.041-.036-.04-.037-.039-.038-.039-.038-.038-.04-.037-.04-.036-.041-.035-.042-.034-.043-.033-.043-.032-.044-.031-.046-.03-.046-.029-.047-.028-.047-.026-.048-.025-.049-.024-.05-.023-.05-.022-.051-.021-.051-.02-.051-.018-.053-.017-.053-.016-.053-.014-.054-.013-.055-.012-.055-.011-.056-.009-.056-.008-.056-.006-.056-.005-.058-.004-.057-.002h-.058-.058zm.169-1.902l.102.004.105.006.107.01.1.011.105.015.105.018.102.02.1.022.098.024.1.027.1.03.095.031.098.034.098.037.092.038.091.04.095.044.088.044.089.046.091.051.086.051.085.053.084.055.078.054.081.059.08.061.074.059.077.065.081.071.073.069.067.066.067.069.069.074.064.072.069.08.065.082.052.068.061.082.059.086.058.087.053.087.046.078.05.089.047.09.046.091.042.09.04.091.038.094.036.094.036.103.03.093.029.095.027.103.026.105.02.096.019.095.019.115.013.096.013.106.008.106.008.106.003.105.002.087v1.308l-.002.086-.003.105-.008.106-.008.106-.013.106-.013.096-.019.115-.019.095-.02.096-.026.105-.027.103-.029.095-.03.094-.037.102-.036.093-.037.092-.04.091-.043.092-.046.091-.047.09-.05.089-.046.078-.053.087-.058.087-.059.086-.061.082-.052.068-.065.082-.069.08-.067.075-.067.071-.065.067-.072.071-.07.066-.081.072-.077.065-.07.057-.083.064-.081.059-.078.054-.084.055-.085.053-.086.051-.091.051-.089.046-.088.044-.095.044-.091.04-.096.039-.093.035-.093.033-.099.032-.1.03-.1.027-.098.024-.1.022-.102.02-.105.018-.105.015-.1.011-.107.01-.105.006-.106.004h-.096-.115l-.106-.005-.105-.006-.105-.01-.102-.011-.105-.015-.107-.018-.101-.02-.099-.021-.1-.025-.1-.027-.1-.03-.098-.032-.094-.033-.093-.035-.096-.039-.095-.041-.09-.042-.09-.044-.088-.046-.088-.048-.094-.056-.08-.051-.08-.052-.083-.057-.082-.059-.083-.064-.076-.061-.076-.065-.07-.063-.072-.066-.077-.075-.065-.067-.067-.071-.072-.081-.062-.074-.061-.075-.062-.081-.055-.075-.06-.086-.056-.088-.05-.079-.05-.085-.05-.089-.048-.09-.045-.091-.043-.092-.039-.091-.038-.092-.039-.102-.032-.094-.031-.094-.03-.104-.025-.094-.023-.095-.023-.106-.02-.105-.016-.096-.015-.105-.012-.106-.01-.106-.006-.106-.004-.105v-.096-1.289-.096l.005-.105.006-.106.01-.106.012-.106.015-.105.016-.096.02-.105.023-.106.023-.096.025-.094.03-.104.03-.093.032-.094.039-.103.039-.094.04-.091.042-.09.045-.091.048-.09.05-.089.05-.085.05-.079.056-.088.06-.086.055-.075.062-.081.061-.075.062-.074.07-.078.069-.074.068-.069.072-.07.074-.069.07-.062.076-.065.079-.063.079-.061.082-.059.083-.057.08-.052.08-.051.094-.056.088-.048.088-.046.09-.044.09-.042.095-.041.092-.038.097-.037.098-.034.094-.031.1-.03.1-.027.1-.025.099-.021.101-.02.107-.018.105-.015.102-.011.105-.01.105-.006.101-.004h.096l.029-.001h.096z" class="B J"/><rect x="269.36" y="139.187" width="4.494" height="5.76" rx="2.245" class="T"/><g clip-path="url(#P)" class="B U"><path d="M271.607 136.816l-2.453 2.446 5.136 5.12 2.454-2.446-5.137-5.12z"/></g><path d="M271.549 139.187l-.058.002-.057.004-.057.005-.056.006-.056.008-.056.009-.055.011-.055.012-.055.013-.053.014-.053.016-.052.017-.052.018-.051.02-.051.021-.05.022-.05.023-.049.024-.048.025-.048.026-.047.028-.046.029-.045.03-.044.031-.044.032-.043.033-.042.034-.041.035-.04.036-.039.037-.039.038-.038.039-.036.039-.036.04-.035.041-.034.042-.033.043-.032.044-.03.044-.03.045-.029.046-.027.047-.027.047-.025.048-.024.049-.023.049-.022.05-.021.051-.019.051-.018.052-.017.052-.016.053-.015.054-.013.054-.012.055-.011.055-.009.055-.008.056-.006.056-.005.057-.004.057-.002.058v.058 1.27.058l.003.058.004.057.005.057.006.056.008.056.009.055.011.055.012.055.013.054.015.054.016.053.017.052.018.052.019.051.021.051.022.05.023.049.024.049.025.048.027.047.027.047.029.046.03.045.03.044.032.044.033.043.034.042.035.041.036.04.036.039.038.039.039.038.039.037.04.036.041.035.042.034.043.033.044.032.044.031.045.03.046.029.047.028.048.027.048.025.049.024.05.023.05.022.051.021.051.019.052.018.052.017.053.016.053.014.055.013.055.012.055.011.056.009.056.008.056.006.057.005.057.004.058.002h.058.058l.058-.002.057-.004.056-.005.056-.006.056-.008.055-.009.055-.011.055-.012.054-.013.054-.014.053-.016.053-.017.052-.018.051-.019.05-.021.05-.022.05-.023.049-.024.048-.025.048-.027.046-.028.046-.029.045-.03.044-.031.044-.032.043-.033.042-.034.041-.035.041-.036.039-.037.039-.038.037-.039.037-.039.036-.04.035-.041.034-.042.033-.043.032-.044.031-.044.03-.045.029-.046.027-.047.027-.047.025-.048.024-.049.023-.049.022-.05.021-.051.02-.051.018-.052.017-.052.016-.053.015-.054.013-.054.012-.055.01-.055.01-.055.008-.056.006-.056.005-.057.004-.057.002-.058v-.058-1.27-.058l-.003-.058-.004-.057-.005-.057-.006-.056-.008-.056-.01-.055-.01-.055-.012-.055-.013-.054-.015-.054-.016-.053-.017-.052-.018-.052-.02-.051-.021-.051-.022-.05-.023-.049-.024-.049-.025-.048-.027-.047-.027-.047-.029-.046-.03-.045-.031-.044-.032-.044-.033-.043-.034-.042-.035-.041-.036-.04-.037-.039-.037-.039-.039-.038-.039-.037-.041-.036-.041-.035-.042-.034-.043-.033-.044-.032-.044-.031-.045-.03-.046-.029-.046-.028-.048-.026-.048-.025-.049-.024-.05-.023-.05-.022-.05-.021-.051-.02-.052-.018-.053-.017-.053-.016-.054-.014-.054-.013-.055-.012-.055-.011-.055-.009-.056-.008-.056-.006-.056-.005-.057-.004-.058-.002h-.058-.058zm.168-1.902l.101.004.105.006.106.01.102.011.104.015.107.018.1.02.099.021.101.025.1.027.1.03.094.031.098.034.097.037.092.038.095.041.09.042.09.044.088.046.088.048.095.056.08.051.079.052.083.057.082.059.08.061.079.063.077.065.07.062.074.069.072.07.067.069.069.074.069.078.062.074.061.075.062.081.055.075.06.086.057.088.05.079.051.085.05.089.048.09.045.091.043.09.039.091.039.094.039.103.032.094.03.093.03.104.025.094.023.096.023.106.02.105.016.096.015.105.012.106.01.106.006.106.004.105v.096 1.289.096l-.005.105-.006.106-.01.106-.012.106-.015.105-.016.096-.02.105-.023.106-.023.095-.025.094-.03.104-.031.094-.032.094-.039.102-.037.092-.04.091-.043.092-.045.091-.048.09-.05.089-.051.085-.05.079-.057.088-.06.086-.055.075-.062.081-.061.075-.062.074-.072.081-.067.071-.065.067-.077.075-.072.066-.07.063-.076.065-.076.061-.083.064-.082.059-.083.057-.079.052-.08.051-.095.056-.088.048-.088.046-.09.044-.09.042-.095.041-.096.039-.093.035-.094.033-.098.032-.1.03-.1.027-.101.025-.099.021-.1.02-.107.018-.104.015-.102.011-.106.01-.105.006-.105.004h-.096-.116l-.105-.005-.105-.006-.107-.01-.1-.011-.106-.015-.105-.018-.102-.02-.101-.022-.098-.024-.1-.027-.1-.03-.099-.032-.093-.033-.093-.035-.096-.039-.091-.04-.095-.044-.088-.044-.089-.046-.091-.051-.086-.051-.085-.053-.084-.055-.078-.054-.082-.059-.083-.064-.071-.057-.077-.065-.08-.072-.071-.066-.072-.071-.065-.067-.067-.071-.067-.075-.068-.08-.065-.082-.052-.068-.061-.082-.059-.086-.058-.087-.053-.087-.046-.078-.05-.089-.048-.09-.045-.091-.043-.092-.04-.091-.038-.092-.035-.093-.036-.102-.03-.094-.029-.095-.028-.103-.026-.105-.02-.096-.019-.095-.019-.115-.014-.105-.011-.096-.009-.096-.008-.115-.003-.105-.002-.086v-1.308l.002-.087.003-.105.008-.115.009-.096.011-.096.014-.105.019-.115.019-.095.02-.096.026-.105.028-.103.029-.095.03-.093.036-.103.036-.094.038-.094.04-.091.042-.09.045-.091.048-.09.05-.089.046-.078.053-.087.058-.087.059-.086.061-.082.052-.068.065-.082.068-.08.064-.072.069-.074.068-.069.067-.066.073-.069.08-.071.077-.065.074-.059.08-.061.082-.059.078-.054.084-.055.085-.053.086-.051.091-.051.089-.046.088-.044.095-.044.091-.04.092-.038.097-.037.098-.034.095-.031.1-.03.1-.027.098-.024.101-.022.102-.02.105-.018.106-.015.1-.011.107-.01.105-.006.101-.004h.096l.029-.001h.096z" class="B J"/><rect x="260.05" y="139.187" width="4.494" height="5.76" rx="2.245" class="T"/><g clip-path="url(#Q)" class="B U"><path d="M262.297 136.816l-2.453 2.446 5.136 5.12 2.454-2.446-5.137-5.12z"/></g><path d="M262.239 139.187l-.058.002-.057.004-.057.005-.056.006-.056.008-.056.009-.055.011-.055.012-.054.013-.054.014-.053.016-.052.017-.052.018-.051.02-.051.021-.05.022-.049.023-.049.024-.048.025-.047.026-.047.028-.046.029-.045.03-.044.031-.044.032-.043.033-.042.034-.041.035-.04.036-.039.037-.039.038-.038.039-.037.039-.036.04-.035.041-.034.042-.033.043-.032.044-.031.044-.03.045-.029.046-.028.047-.026.047-.025.048-.024.049-.023.049-.022.05-.021.051-.02.051-.018.052-.017.052-.016.053-.014.054-.013.054-.012.055-.011.055-.009.055-.008.056-.006.056-.005.057-.004.057-.002.058v.058 1.27.058l.003.058.004.057.005.057.006.056.008.056.009.055.011.055.012.055.013.054.014.054.016.053.017.052.018.052.02.051.021.051.022.05.023.049.024.049.025.048.026.047.028.047.029.046.03.045.031.044.032.044.033.043.034.042.035.041.036.04.037.039.038.039.039.038.039.037.04.036.041.035.042.034.043.033.044.032.044.031.045.03.046.029.047.028.047.027.048.025.049.024.049.023.05.022.051.021.051.019.052.018.052.017.053.016.054.014.054.013.055.012.055.011.056.009.056.008.056.006.057.005.057.004.058.002h.058.058l.058-.002.057-.004.057-.005.056-.006.056-.008.056-.009.055-.011.055-.012.054-.013.054-.014.053-.016.052-.017.052-.018.051-.019.051-.021.05-.022.049-.023.049-.024.048-.025.047-.027.047-.028.046-.029.045-.03.044-.031.044-.032.043-.033.042-.034.041-.035.04-.036.039-.037.039-.038.038-.039.037-.039.036-.04.035-.041.034-.042.033-.043.032-.044.031-.044.03-.045.029-.046.028-.047.027-.047.025-.048.024-.049.023-.049.022-.05.021-.051.019-.051.018-.052.017-.052.016-.053.015-.054.013-.054.012-.055.011-.055.009-.055.008-.056.006-.056.005-.057.004-.057.002-.058v-.058-1.27-.058l-.003-.058-.004-.057-.005-.057-.006-.056-.008-.056-.009-.055-.011-.055-.012-.055-.013-.054-.015-.054-.016-.053-.017-.052-.018-.052-.019-.051-.021-.051-.022-.05-.023-.049-.024-.049-.025-.048-.027-.047-.028-.047-.029-.046-.03-.045-.031-.044-.032-.044-.033-.043-.034-.042-.035-.041-.036-.04-.037-.039-.038-.039-.039-.038-.039-.037-.04-.036-.041-.035-.042-.034-.043-.033-.044-.032-.044-.031-.045-.03-.046-.029-.047-.028-.047-.026-.048-.025-.049-.024-.049-.023-.05-.022-.051-.021-.051-.02-.052-.018-.052-.017-.053-.016-.054-.014-.054-.013-.055-.012-.055-.011-.056-.009-.056-.008-.056-.006-.057-.005-.057-.004-.058-.002h-.058-.058zm.169-1.902l.101.004.105.006.106.01.102.011.106.015.104.017.102.02.1.022.099.024.1.027.099.03.094.031.098.034.097.037.092.038.091.04.09.042.094.046.092.049.087.049.086.051.085.053.084.055.078.054.082.059.08.061.074.059.077.065.08.071.073.069.067.066.068.069.069.074.064.072.068.08.065.082.052.068.061.082.059.086.058.087.053.087.046.078.05.089.048.09.045.091.042.09.04.091.038.094.036.094.033.094.034.102.031.104.025.094.024.096.023.106.02.105.017.105.013.096.013.106.009.106.007.106.003.105.002.087v1.308l-.002.086-.003.105-.007.106-.009.106-.013.106-.013.096-.017.105-.02.105-.023.106-.024.095-.025.094-.031.104-.034.103-.033.093-.035.093-.038.092-.04.091-.043.092-.045.091-.048.09-.05.089-.046.078-.053.087-.058.087-.059.086-.061.082-.052.068-.065.082-.068.08-.067.075-.067.071-.065.067-.072.071-.071.066-.08.072-.077.065-.071.057-.083.064-.082.059-.078.054-.084.055-.085.053-.086.051-.087.049-.092.049-.094.046-.09.042-.091.04-.096.039-.093.035-.094.033-.099.032-.099.03-.1.027-.099.024-.1.022-.102.02-.104.017-.106.015-.102.011-.106.01-.105.006-.106.004h-.106-.106l-.106-.004-.105-.006-.106-.01-.102-.011-.106-.015-.104-.017-.1-.019-.101-.022-.103-.025-.099-.027-.094-.028-.099-.032-.096-.034-.093-.035-.1-.041-.091-.04-.087-.04-.093-.046-.088-.046-.087-.048-.094-.056-.08-.051-.08-.052-.087-.061-.076-.056-.079-.06-.08-.065-.077-.065-.07-.063-.077-.071-.071-.071-.061-.062-.072-.076-.072-.081-.062-.074-.061-.075-.062-.081-.06-.082-.055-.079-.053-.08-.054-.087-.051-.085-.05-.089-.048-.09-.045-.091-.043-.092-.04-.091-.038-.092-.039-.102-.032-.094-.031-.094-.031-.104-.025-.094-.023-.095-.023-.106-.02-.105-.016-.096-.015-.105-.012-.106-.01-.106-.006-.106-.004-.105v-.096-1.289-.096l.005-.105.006-.106.01-.106.012-.106.015-.105.016-.096.02-.105.023-.106.023-.096.025-.094.031-.104.031-.093.032-.094.039-.103.038-.094.04-.091.042-.09.045-.091.048-.09.05-.089.051-.085.054-.087.053-.08.055-.079.06-.082.062-.081.061-.075.062-.074.069-.078.074-.079.063-.064.066-.065.079-.074.07-.062.077-.065.084-.067.076-.058.076-.056.087-.061.08-.052.08-.051.094-.056.087-.048.088-.046.093-.046.087-.04.091-.04.096-.039.097-.037.101-.035.095-.03.094-.028.099-.027.103-.025.101-.022.1-.019.104-.017.106-.015.102-.011.106-.01.105-.006.101-.004.11-.002.11.002z" class="B J"/><rect x="250.74" y="139.187" width="4.494" height="5.76" rx="2.245" class="T"/><g clip-path="url(#R)" class="B U"><path d="M252.987 136.816l-2.453 2.446 5.136 5.12 2.454-2.446-5.137-5.12z"/></g><path d="M252.929 139.187l-.058.002-.057.004-.057.005-.056.006-.056.008-.056.009-.055.011-.055.012-.054.013-.054.014-.053.016-.052.017-.052.018-.051.02-.051.021-.05.022-.049.023-.049.024-.048.025-.047.026-.047.028-.046.029-.045.03-.044.031-.044.032-.043.033-.042.034-.041.035-.04.036-.039.037-.039.038-.038.039-.037.039-.036.04-.035.041-.034.042-.033.043-.032.044-.031.044-.03.045-.029.046-.028.047-.027.047-.025.048-.024.049-.023.049-.022.05-.021.051-.019.051-.018.052-.017.052-.016.053-.015.054-.013.054-.012.055-.011.055-.009.055-.008.056-.006.056-.005.057-.004.057-.002.058v.058 1.27.058l.003.058.004.057.005.057.006.056.008.056.009.055.011.055.012.055.013.054.015.054.016.053.017.052.018.052.019.051.021.051.022.05.023.049.024.049.025.048.027.047.028.047.029.046.03.045.031.044.032.044.033.043.034.042.035.041.036.04.037.039.038.039.039.038.039.037.04.036.041.035.042.034.043.033.044.032.044.031.045.03.046.029.047.028.047.027.048.025.049.024.049.023.05.022.051.021.051.019.052.018.052.017.053.016.054.014.054.013.055.012.055.011.056.009.056.008.056.006.057.005.057.004.058.002h.058.058l.058-.002.057-.004.057-.005.056-.006.056-.008.056-.009.055-.011.055-.012.054-.013.054-.014.053-.016.052-.017.052-.018.051-.019.051-.021.05-.022.049-.023.049-.024.048-.025.047-.027.047-.028.046-.029.045-.03.044-.031.044-.032.043-.033.042-.034.041-.035.04-.036.039-.037.039-.038.038-.039.037-.039.036-.04.035-.041.034-.042.033-.043.032-.044.031-.044.03-.045.029-.046.028-.047.026-.047.025-.048.024-.049.023-.049.022-.05.021-.051.02-.051.018-.052.017-.052.016-.053.014-.054.013-.054.012-.055.011-.055.009-.055.008-.056.006-.056.005-.057.004-.057.002-.058v-.058-1.27-.058l-.003-.058-.004-.057-.005-.057-.006-.056-.008-.056-.009-.055-.011-.055-.012-.055-.013-.054-.014-.054-.016-.053-.017-.052-.018-.052-.02-.051-.021-.051-.022-.05-.023-.049-.024-.049-.025-.048-.026-.047-.028-.047-.029-.046-.03-.045-.031-.044-.032-.044-.033-.043-.034-.042-.035-.041-.036-.04-.037-.039-.038-.039-.039-.038-.039-.037-.04-.036-.041-.035-.042-.034-.043-.033-.044-.032-.044-.031-.045-.03-.046-.029-.047-.028-.047-.026-.048-.025-.049-.024-.049-.023-.05-.022-.051-.021-.051-.02-.052-.018-.052-.017-.053-.016-.054-.014-.054-.013-.055-.012-.055-.011-.056-.009-.056-.008-.056-.006-.057-.005-.057-.004-.058-.002h-.058-.058zm.168-1.902l.1.004.107.006.106.01.101.011.105.015.107.018.101.02.099.021.1.025.1.027.099.03.094.031.098.034.097.037.092.038.095.041.09.042.085.042.093.048.091.051.09.053.08.051.08.052.082.057.082.059.08.061.079.063.077.065.07.062.074.069.072.07.068.069.069.074.069.078.062.074.061.075.062.081.055.075.06.086.057.088.05.079.051.085.05.089.048.09.045.091.042.09.04.091.038.094.036.094.036.103.032.102.025.086.029.103.025.105.021.096.02.105.016.096.015.105.012.106.01.106.006.106.004.105v.096 1.289.096l-.005.105-.006.106-.01.106-.012.106-.015.105-.016.096-.02.105-.021.096-.025.105-.029.103-.025.086-.033.103-.036.102-.035.093-.038.092-.04.091-.043.092-.045.091-.048.09-.05.089-.051.085-.05.079-.057.088-.06.086-.055.075-.062.081-.061.075-.062.074-.072.081-.066.071-.065.067-.077.075-.071.066-.07.063-.077.065-.076.061-.083.064-.082.059-.082.057-.08.052-.08.051-.09.053-.091.051-.093.048-.085.042-.09.042-.095.041-.096.039-.093.035-.094.033-.099.032-.099.03-.1.027-.1.025-.099.021-.101.02-.107.018-.105.015-.101.011-.106.01-.107.006-.105.004h-.096-.02-.097l-.105-.005-.106-.006-.106-.01-.101-.011-.105-.015-.107-.018-.101-.02-.099-.021-.101-.025-.1-.027-.099-.03-.099-.032-.094-.033-.093-.035-.096-.039-.091-.04-.094-.044-.089-.044-.089-.046-.091-.051-.086-.051-.085-.053-.084-.055-.078-.054-.082-.059-.083-.064-.07-.057-.077-.065-.08-.072-.071-.066-.072-.071-.065-.067-.067-.071-.072-.081-.062-.074-.061-.075-.062-.081-.055-.075-.06-.086-.057-.088-.05-.079-.051-.085-.05-.089-.048-.09-.045-.091-.043-.092-.04-.091-.038-.092-.035-.093-.036-.102-.03-.094-.029-.095-.028-.103-.026-.105-.02-.096-.019-.095-.019-.115-.014-.105-.011-.096-.01-.106-.006-.106-.004-.096-.002-.096v-1.308l.002-.096.004-.096.006-.106.01-.106.011-.096.014-.105.019-.115.019-.095.02-.096.026-.105.028-.103.029-.095.03-.093.036-.103.036-.094.038-.094.04-.091.042-.09.045-.091.048-.09.05-.089.051-.085.05-.079.057-.088.06-.086.055-.075.062-.081.061-.075.062-.074.069-.078.069-.074.068-.069.067-.066.073-.069.08-.071.077-.065.074-.059.08-.061.082-.059.078-.054.084-.055.085-.053.086-.051.091-.051.089-.046.089-.044.094-.044.091-.04.092-.038.097-.037.098-.034.094-.031.099-.03.1-.027.101-.025.099-.021.101-.02.107-.018.105-.015.101-.011.106-.01.106-.006.1-.004h.097l.029-.001h.096z" class="B J"/><g clip-path="url(#S)" class="C H I f"><path d="M201.778 160.405h5.498c10.653 0 20.47-5.763 25.656-15.06" stroke="#fff"/></g><g class="B"><g fill="#f7d651"><use href="#AL"/><path d="M134.152 59.404a2.07 2.07 0 0 0-2.925 0l-1.463 1.461-1.462-1.461a2.07 2.07 0 0 0-2.926 0c-.808.805-.808 2.116 0 2.922l1.463 1.461-1.463 1.461c-.808.807-.808 2.117 0 2.922a2.07 2.07 0 0 0 2.926 0l1.462-1.461 1.463 1.461a2.07 2.07 0 0 0 2.925 0c.807-.805.807-2.116 0-2.922l-1.462-1.461 1.462-1.461c.807-.807.807-2.117 0-2.922z"/></g><g class="G"><use href="#AM"/><use href="#AM"/></g></g><g clip-path="url(#T)" class="G"><g class="B"><use href="#AN"/><use href="#AN"/></g><g clip-path="url(#U)"><path d="M66.303 135.647h1.099v3.898h-1.099z"/><use href="#AO"/><path d="M58.934 135.647h1.099v5.595h-1.099zm2.457 0h1.099v5.595h-1.099zm-4.913 0h1.099v5.595h-1.099z"/></g></g><g class="B G"><path d="M58.429 138.123c-1.023 0-1.853-.829-1.853-1.852s.83-1.852 1.853-1.852v3.703zm-3.414-2.788c-.405 0-.734.328-.734.733s.329.733.734.733.734-.328.734-.733-.329-.733-.734-.733z"/><path d="M55.015,135.823c-.135,0-.245.11-.245.244s.11.245.245.245.245-.11.245-.245-.11-.244-.245-.244Z"/><use href="#AP"/><use href="#AP"/></g><g clip-path="url(#V)" class="B G"><path d="M61.954 130.172l.016.002.016.004.015.005.015.008.014.008.013.01.011.012.011.012.009.014.008.014.006.015.004.016.003.016.001.016v.016l-.003.017-.004.015-.005.016-.007.014-.009.014-3.004 4.288-.01.013-.011.012-.013.01-.013.009-.015.008-.015.006-.016.005-.016.003-.016.001-.016-.001-.017-.002-.015-.004-.016-.006-.015-.007-.013-.008-.013-.011-.012-.011-.011-.012-.009-.014-.007-.014-.006-.015-.005-.016-.003-.016-.001-.016.001-.017.002-.016.004-.016.005-.015.008-.015.008-.014 3.004-4.287.01-.013.012-.012.012-.011.014-.009.014-.007.015-.006.016-.005.016-.003.016-.001.017.001zm.975 0l.016.002.016.004.015.005.015.008.014.008.013.01.012.012.01.012.009.014.008.014.006.015.005.016.002.016.002.016-.001.016-.002.017-.004.015-.006.016-.007.014-.009.014-3.004 4.288-.01.013-.011.012-.013.01-.013.009-.015.008-.015.006-.015.005-.017.003-.016.001-.016-.001-.016-.002-.016-.004-.016-.006-.014-.007-.014-.008-.013-.011-.012-.011-.01-.012-.009-.014-.008-.014-.006-.015-.005-.016-.002-.016-.002-.016.001-.017.002-.016.004-.016.006-.015.007-.015.009-.014 3.004-4.287.01-.013.011-.012.013-.011.013-.009.015-.007.015-.006.015-.005.016-.003.017-.001.016.001zm.975 0l.017.002.015.004.016.005.014.008.014.008.013.01.012.012.01.012.01.014.007.014.006.015.005.016.003.016.001.016-.001.016-.002.017-.004.015-.006.016-.007.014-.008.014-3.004 4.288-.01.013-.012.012-.012.01-.014.009-.014.008-.015.006-.016.005-.016.003-.016.001-.017-.001-.016-.002-.016-.004-.015-.006-.015-.007-.014-.008-.013-.011-.011-.011-.011-.012-.009-.014-.008-.014-.006-.015-.004-.016-.003-.016-.001-.016v-.017l.003-.016.004-.016.005-.015.007-.015.009-.014 3.004-4.287.01-.013.011-.012.013-.011.013-.009.015-.007.015-.006.016-.005.016-.003.016-.001.016.001z"/></g><g class="B G"><path d="M67.402 136.188l1.922 1.798a2.43 2.43 0 0 0 0-3.596l-1.922 1.798z"/><use href="#AQ"/><use href="#AQ"/></g><g clip-path="url(#W)" class="G"><path d="M66.232 136.177h5.852v3.898h-5.852z"/></g><g clip-path="url(#X)" class="B"><path d="M1285.639-6.372h96.432a43.67 43.67 0 0 1 30.87 12.776c8.185 8.178 12.787 19.274 12.787 30.84v247.752a43.61 43.61 0 0 1-12.787 30.843 43.68 43.68 0 0 1-30.87 12.776h-72.664c-11.576 0-22.681-4.598-30.87-12.776a43.61 43.61 0 0 1-12.784-30.843v-39.284c0-11.442-4.5-22.426-12.529-30.582l-80.094-81.386c-8.028-8.155-12.529-19.14-12.529-30.582V37.244c0-11.566 4.598-22.662 12.787-30.84a43.66 43.66 0 0 1 30.866-12.776h81.383z" fill="#fcf4c7"/><path d="M1138.009 20.705l170.078 169.934a45.01 45.01 0 0 1 13.203 31.844v35.781c0 8.98 3.571 17.59 9.923 23.941a33.9 33.9 0 0 0 23.961 9.918h93.758l-19.637 41.619h-196.372l-85.094-116.831-9.819-196.206z" fill="#fcf5da"/></g><path d="M1412.94 6.404a43.67 43.67 0 0 0-30.87-12.776h-143.169c-4.734 0-7.249 5.723-3.937 9.106l.082.083 80.094 81.386a43.6 43.6 0 0 1 12.529 30.582v39.284a43.6 43.6 0 0 0 12.784 30.843 43.69 43.69 0 0 0 30.87 12.776h26.325c15.509 0 28.081-12.572 28.081-28.081V37.244c0-11.566-4.602-22.662-12.787-30.84z" class="K"/><path d="M1412.94 6.404a43.67 43.67 0 0 0-30.87-12.776h-143.169c-4.734 0-7.249 5.723-3.937 9.106l.082.083 80.094 81.386c8.028 8.156 12.528 19.14 12.528 30.582v39.284c0 11.569 4.599 22.662 12.784 30.843a43.69 43.69 0 0 0 30.87 12.776h26.324c15.509 0 28.081-12.572 28.081-28.081V37.244c0-11.566-4.602-22.662-12.787-30.84z" stroke-dasharray="0 13.94" stroke-width="14.05" class="C H I b"/><path d="M1361.304-4.729h-14.984l-4.061 37.054c-.225 2.054 1.385 3.848 3.452 3.848h16.275a3.47 3.47 0 0 0 3.451-3.854l-4.133-37.047z" fill="#b38150"/><g clip-path="url(#Y)" class="B"><use href="#AR" style="mix-blend-mode:multiply" fill="#6a6863" class="R"/></g><path d="M1353.849-5.906c0 5.402 2.147 10.584 5.971 14.405s9.01 5.966 14.419 5.966h20.508V.998c0-5.404-2.147-10.586-5.971-14.407a20.41 20.41 0 0 0-14.419-5.966h-20.508v13.469z" class="B Z"/><g clip-path="url(#Z)"><path d="M1353.849-19.376l45.64 39.01h-45.64v-39.01z" class="B F"/><path d="M1352.253-17.404l3.232-3.957 40.876 33.384-3.232 3.957z" class="S"/><g class="B"><g class="M"><path d="M1377.706 16.671h-5.112V8.079c0-1.41 1.145-2.554 2.556-2.554s2.556 1.144 2.556 2.554v8.592zm-10.224.378h-5.112V.096a2.55 2.55 0 0 1 2.554-2.551h.005c1.411 0 2.554 1.142 2.554 2.551v16.953z"/></g><path d="M1394.748.147V-4.69h-7.804a2.42 2.42 0 0 0-2.421 2.419h0c0 .644.256 1.257.708 1.711a2.42 2.42 0 0 0 1.713.707h7.804z" class="F"/></g></g><path d="M1353.849-5.906c0 5.402-2.147 10.584-5.971 14.405s-9.01 5.966-14.419 5.966h-20.508V.998c0-5.404 2.147-10.586 5.971-14.407a20.41 20.41 0 0 1 14.419-5.966h20.508v13.469z" class="B Z"/><g clip-path="url(#a)"><path d="M1353.849-19.376l-45.64 39.01h45.64v-39.01z" class="B F"/><path d="M1311.34 12.006l40.899-33.355 3.229 3.959-40.899 33.355z" class="S"/><g class="B"><g class="M"><path d="M1329.991 16.671h5.112V8.079c0-1.41-1.145-2.554-2.556-2.554s-2.556 1.144-2.556 2.554v8.592zm10.225.378h5.112V.099a2.55 2.55 0 0 0-.749-1.806 2.56 2.56 0 0 0-1.807-.748c-.677 0-1.329.271-1.807.748a2.55 2.55 0 0 0-.749 1.806V17.05z"/></g><path d="M1312.95.418V-4.69h7.671c.677 0 1.327.268 1.805.748a2.54 2.54 0 0 1 .749 1.803v.005a2.55 2.55 0 0 1-2.554 2.552h-7.671z" class="F"/></g></g><path d="M1353.86 14.465l-12.249-8.919c-6.766-4.926-7.53-14.725-1.611-20.64l4.285-4.281h19.15l4.285 4.281c5.92 5.915 5.155 15.714-1.611 20.64l-12.249 8.919z" class="B S"/><g clip-path="url(#b)"><path d="M1353.86-20.926h19.325v36.649h-19.325z" class="F"/><path d="M1351.294-23.065h5.112v44.547h-5.112z" fill="#5ebe3e"/><path d="M1335.724 10.93c-.832 0-1.651-.406-2.14-1.152a2.55 2.55 0 0 1 .736-3.537l10.391-6.811c1.182-.778 2.766-.442 3.538.733a2.55 2.55 0 0 1-.736 3.537l-10.391 6.811a2.54 2.54 0 0 1-1.398.419z" class="F"/><path d="M1371.973 10.93a2.54 2.54 0 0 1-1.398-.419L1360.187 3.7a2.55 2.55 0 0 1-.736-3.537 2.55 2.55 0 0 1 3.538-.733l10.388 6.811a2.55 2.55 0 0 1 .736 3.537c-.489.747-1.308 1.152-2.14 1.152z" class="M"/></g><path d="M1367.646 27.235a5.01 5.01 0 0 0-4.995 4.99 5.01 5.01 0 0 0-4.995-4.99 5.01 5.01 0 0 0-4.995 4.99 5.01 5.01 0 0 0-4.995-4.99 5.01 5.01 0 0 0-4.995 4.99 5.01 5.01 0 0 0-4.995-4.99 5.01 5.01 0 0 0-4.995 4.99l4.515 3.948 11.615 1.244 16.647-.823 7.181-4.37a5.01 5.01 0 0 0-4.995-4.99z" class="B K"/><g class="W"><use href="#AS" class="E"/><path d="M1365.863 147.533a2.32 2.32 0 0 0 2.321-2.319v-7.262a2.32 2.32 0 1 0-4.642 0v7.262a2.32 2.32 0 0 0 2.321 2.319z" class="E"/><use href="#AT" class="E"/><path d="M1374.746 147.533a2.32 2.32 0 0 0 2.321-2.319v-4.843a2.32 2.32 0 1 0-4.642 0v4.843a2.32 2.32 0 0 0 2.321 2.319z" class="E"/></g><path d="M1323.713 51.555h-27.839l-.036-22.631h-26.588v-48.135h54.463v70.766z" class="B g"/><g clip-path="url(#c)" fill="#baeffc" class="B"><path style="mix-blend-mode:overlay" d="M1305.013-24.844l-15.923.097 35.199 78.19 3.382-27.624-22.658-50.663zm-29.854 0l-7.73.097 34.805 79.826 8.517-.342-35.592-79.581z" class="R"/></g><g class="h"><path style="mix-blend-mode:multiply" d="M1270.518 11.19h25.964v5.067h-25.964zm25.32 20.268h25.391v5.067h-25.391z" class="E"/></g><path d="M1293.338 48.385h30.427v3.17h-30.427z" fill="#a7692a"/><g class="i"><path d="M1267.982-19.211h5.071v90.936h-5.071zm25.356 0h5.071v70.767h-5.071z"/></g><path d="M1293.338-11.611h5.071v58.269h-5.071z" class="j"/><g class="i"><path d="M1318.694-19.211h5.071v70.767h-5.071zm-49.84 25.334h29.555v5.067h-29.555z"/><path d="M1268.854 26.391h54.04v5.067h-54.04z"/></g><g class="B"><g class="K"><use href="#AU"/><path d="M1316.834 48.815c0-2.309 1.875-4.181 4.185-4.181s4.185 1.872 4.185 4.181v4.174h-8.37v-4.174zm-16.623.008c0-2.31 1.875-4.181 4.185-4.181s4.185 1.872 4.185 4.181v4.174h-8.37v-4.174z"/><path d="M1291.899,48.823c0-2.434,2.083-4.382,4.563-4.165,2.198.193,3.807,2.178,3.807,4.382v3.915c0,.023-.019.042-.042.042h-8.286c-.023,0-.042-.019-.042-.042v-4.132Z"/></g><path d="M1266.333,70.581c0-2.434,2.083-4.382,4.563-4.165,2.198.193,3.807,2.178,3.807,4.382v3.915c0,.023-.019.042-.042.042h-8.286c-.023,0-.042-.019-.042-.042v-4.132Z" fill="#fcf4c7"/><g fill="#bfd042"><use href="#AV"/><use href="#AW"/><path d="M1395.983 69.474a2.34 2.34 0 1 0-4.682 0v2.335h4.682v-2.335z"/><path d="M1400.608 69.474a2.341 2.341 0 1 0-4.682 0v2.335h4.682v-2.335zm9.25 0a2.341 2.341 0 1 0-4.682 0v2.335h4.682v-2.335z"/><path d="M1405.233 69.47a2.341 2.341 0 1 0-4.682 0v2.335h4.682V69.47zm9.249.004a2.341 2.341 0 1 0-4.682 0v2.335h4.682v-2.335z"/><path d="M1419.107 69.474a2.34 2.34 0 1 0-4.682 0v2.335h4.682v-2.335z"/><path d="M1423.732 69.474a2.34 2.34 0 1 0-4.682 0v2.335h4.682v-2.335z"/></g></g><g fill="#703716"><path d="M1408.402 58.382h11.122v3.119h-11.122z"/><path d="M1408.602 71.999h-3.122V61.501h-30.439v-3.119h33.561v13.617z"/><path d="M1391.959 71.999h-3.121V61.501h-13.797v-3.119h16.918v13.617zm31.773 0h-3.122V61.501h-13.569v-3.119h16.691v13.617z"/></g><path d="M1382.052 74.945V25.044l-49.943 49.901v49.901h49.943 41.68V74.945h-41.68z" class="i"/><g clip-path="url(#d)"><g fill="#a7692a"><path d="M1398.673 71.796h-22.663V61.091h22.663zm-31.361 53.05h-15.665V75.232h15.665zm50.315 0h-26.904V81.453h26.904z"/></g><g class="j"><path d="M1349.646 85.991h30.117v2.518h-30.117zm13.979-33.4h10.913v2.518h-10.913zm-54.796 63.861h30.117v2.518h-30.117zm92.013 0h23.542v2.518h-23.542zm-59.004-57.891h23.542v2.518h-23.542z" class="E"/><use href="#AX"/><path d="M1330.622 67.446h24.169v2.518h-24.169zm4.689 34.81h24.169v2.518h-24.169zm26.283 16.714h24.169v2.518h-24.169zm0-27.98h24.169v2.518h-24.169z"/></g></g><path d="M1332.086 80.352h16.599v33.334h-16.599z" class="g"/><g class="E B k"><g clip-path="url(#e)"><path style="mix-blend-mode:overlay" d="M1352.428 67.75l7.418-3.443-24.039 53.118-7.426 4.092 24.047-53.767zm-26.379 8.151l17.516.164-21.185 45.452-15.383-3.018 19.052-42.598z" class="R"/></g></g><path style="mix-blend-mode:multiply" d="M1332.086 80.352h16.599v7.215h-16.599z" class="E h"/><path d="M1373.679 124.846h-16.599V85.032c0-2.583 2.097-4.68 4.68-4.68h7.238c2.583 0 4.68 2.097 4.68 4.68v39.814h0z" fill="#213e70"/><g class="E B k"><g clip-path="url(#f)"><path style="mix-blend-mode:overlay" d="M1374.714 78.388l5.458-3.443-23.733 54.462-5.772 2.748 24.047-53.767zm11.687 13.126l7.418-3.443-25.384 54.462-6.08 2.748 24.046-53.767zm-35.358-15.613l17.515.164-21.184 45.452-15.383-3.018 19.052-42.598z" class="R"/></g></g><path d="M1361.76,80.352h7.238c2.583,0,4.68,2.097,4.68,4.68v2.535h-16.599v-2.535c0-2.583,2.097-4.68,4.68-4.68Z" style="mix-blend-mode:multiply" fill="#bdc8d8"/><path d="M1382.064 80.352h41.695v33.334h-41.695z" class="g"/><g class="E B k"><g clip-path="url(#g)"><path style="mix-blend-mode:overlay" d="M1452.365 67.75l7.417-3.443-25.384 54.462-6.08 2.748 24.047-53.767zm-30.463 0l7.418-3.443-24.072 54.462-7.392 2.748 24.046-53.767zm17.416 0l10.664-3.443-25.384 54.462-9.327 2.748 24.047-53.767zm-45.587 8.151l17.516.164-21.185 45.452-15.382-3.018 19.051-42.598z" class="R"/></g></g><path style="mix-blend-mode:multiply" d="M1382.064 80.352h41.695v7.215h-41.695z" class="E h"/><g class="j"><path d="M1382.052 71.796h41.68v3.149h-41.68zm0-46.774l-49.943 49.923v4.88l49.943-49.923v-4.88z"/></g><g class="B K"><path d="M1341.083 123.739a2.34 2.34 0 1 0-4.682 0v2.335h4.682v-2.335z"/><path d="M1336.4 123.734a2.341 2.341 0 1 0-4.682 0v2.335h4.682v-2.335zm9.365.005a2.341 2.341 0 1 0-4.682 0v2.335h4.682v-2.335z"/><path d="M1350.447 123.739a2.34 2.34 0 1 0-4.682 0v2.335h4.682v-2.335z"/><path d="M1355.129 123.739a2.341 2.341 0 1 0-4.682 0v2.335h4.682v-2.335zm39.018 0a2.341 2.341 0 1 0-4.682 0v2.335h4.682v-2.335z"/><path d="M1389.465 123.734a2.34 2.34 0 1 0-4.682 0v2.335h4.682v-2.335z"/><path d="M1384.783 123.734a2.34 2.34 0 1 0-4.682 0v2.335h4.682v-2.335z"/><path d="M1380.101 123.734a2.341 2.341 0 1 0-4.682 0v2.335h4.682v-2.335zm18.728.005a2.341 2.341 0 1 0-4.682 0v2.335h4.682v-2.335z"/><path d="M1403.512 123.739a2.341 2.341 0 1 0-4.682 0v2.335h4.682v-2.335zm14.046 0a2.341 2.341 0 1 0-4.682 0v2.335h4.682v-2.335z"/><path d="M1412.876 123.734a2.34 2.34 0 1 0-4.682 0v2.335h4.682v-2.335z"/><path d="M1408.194 123.734a2.341 2.341 0 1 0-4.682 0v2.335h4.682v-2.335zm14.046.005a2.341 2.341 0 1 0-4.682 0v2.335h4.682v-2.335z"/><path d="M1426.922 123.739a2.34 2.34 0 1 0-4.682 0v2.335h4.682v-2.335z"/></g><path d="M1403.602 56.008h0a.86.86 0 0 1 1.149.385l2.443 4.901a.86.86 0 0 1-.385 1.151h0a.86.86 0 0 1-1.149-.385l-2.443-4.902a.86.86 0 0 1 .385-1.151z" class="l"/><path d="M1404.202 55.313h0a.86.86 0 0 1 1.171.313l2.74 4.742a.86.86 0 0 1-.314 1.172h0a.86.86 0 0 1-1.171-.313l-2.74-4.742a.86.86 0 0 1 .314-1.172z" fill="#eab73f"/><path d="M1404.087 55.263h0a.86.86 0 0 1 1.212-.001l3.875 3.872a.86.86 0 0 1 .001 1.213h0a.86.86 0 0 1-1.212.001l-3.875-3.872a.86.86 0 0 1-.001-1.213z" class="l"/><path d="M1404.468 55.256h0c.262-.394.793-.501 1.187-.24l4.565 3.031a.86.86 0 0 1 .24 1.189h0a.86.86 0 0 1-1.188.24l-4.565-3.031a.86.86 0 0 1-.24-1.189z" fill="#eab73f"/><g fill="#aeaeae"><use href="#AY"/><use href="#AZ"/></g><use href="#Aa" fill="#377d90"/><g fill="#c0cbd0"><path d="M1401.19 58.615h-3.377a.63.63 0 0 1-.629-.629.63.63 0 0 1 .629-.629h3.377a.63.63 0 0 1 .629.629.63.63 0 0 1-.629.629z"/><path d="M1399.71 58.615a.63.63 0 0 1-.629-.629v-1.478a.63.63 0 0 1 .629-.629.63.63 0 0 1 .629.629v1.478a.63.63 0 0 1-.629.629z"/></g><path d="M1399.778,56.924h0c-.512,0-.927-.415-.927-.926l-.622-3.375,2.963.51-.487,2.864c0,.512-.415.926-.927.926Z" fill="#50b0cc"/><path d="M1406.32 56.222l-4.83-8.989c-.257-.427-.867-1.127-1.177-1.467-.585-.642-2.47-2.525-4.461-3.276-1.155-.436-2.512-.003-3.302.757-.545.524-.985 1.47-.773 2.321s1.629 1.526 2.479 1.756l.03.008c.63.17 1.07.749 1.028 1.394-.078 1.193.575 2.273 1.621 3.08l7.413 6.087a1.31 1.31 0 0 0 1.972-1.671z" fill="#4192b5"/><path d="M1406.705 55.588l-4.66-1.677a9.17 9.17 0 0 1-5.486-5.421h0c-.78-2.092 1.489-4.011 3.424-2.896l2.523 1.452a9.17 9.17 0 0 1 4.072 4.894l.986 2.796a.67.67 0 0 1-.859.852z" fill="#c32944"/><circle cx="1393.906" cy="44.957" r="2.182" class="J"/><path d="M1393.635 46.257l.242.241a1.11 1.11 0 0 0 1.572 0h0l-1.084 1.083c-.568.567-1.488.567-2.055 0l1.326-1.325z" fill="#6e7f95"/><g fill="#999fbd"><path d="M1392.362 44.985a1.11 1.11 0 0 1 0-1.571h0c-.131.131.023-.023-.512.511-1.088 1.087-1.133 2.822-.135 3.963.071.081.198.081.274.005l1.642-1.64-1.269-1.268z"/><circle cx="1393.425" cy="44.25" r=".665"/></g><circle cx="1393.425" cy="44.25" r=".412" fill="#2b2220"/><g clip-path="url(#h)" class="l"><path d="M1391.029,46.748l-1.01.071c-.83.058-1.55-.567-1.608-1.397l-.071-1.01c-.058-.83.568-1.549,1.398-1.607l3.93-.275s-1.378.799-1.3,1.772l.059.839c.058.83-.568,1.549-1.398,1.607Z"/></g><rect x="1125.076" y="24.529" width="21.086" height="9.815" rx="4.905" opacity=".073"/><path d="M1135.619-2.306a3.28 3.28 0 0 1 .963-2.323 3.29 3.29 0 0 1 2.325-.962h.004a3.29 3.29 0 0 1 3.288 3.285v5.651c0 1.782-1.05 3.396-2.679 4.119l-7.379 3.276a.62.62 0 0 1-.725-.168c-.177-.211-.193-.515-.036-.743l3.473-5.102c.499-.734.767-1.6.767-2.487v-4.546z" fill="#6da090" class="B"/><path d="M493.515,89.788c1.699,0,3.076-1.375,3.076-3.073v-6.416c0-1.699-1.377-3.073-3.076-3.073s-3.076,1.375-3.076,3.073v6.416c0,1.699,1.377,3.073,3.076,3.073Z" class="E W"/><g class="B"><path d="M559.018 249.489c-37.899 0-73.115-21.997-89.72-56.042l-30.305-62.157c-18.656-38.265-10.952-84.157 19.157-114.226l8.176-8.169 75.484-75.447c18.9-18.862 43.961-29.23 70.607-29.23s51.706 10.365 70.565 29.186l62.951 62.915c18.847 18.809 29.24 43.857 29.24 70.5v82.949c0 26.636-10.391 51.68-29.26 70.522-18.861 18.831-43.916 29.198-70.555 29.198H559.017z" class="a"/><path d="M484.039 109.332c-9.284-19.042-5.455-41.87 9.544-56.848l83.69-83.646c19.426-19.388 50.864-19.388 70.291 0l62.919 62.879a49.61 49.61 0 0 1 14.57 35.103v82.948c0 13.167-5.247 25.792-14.57 35.103a49.7 49.7 0 0 1-35.124 14.54H559.017c-18.993 0-36.338-10.832-44.664-27.902l-30.315-62.177z" class="K"/></g><path d="M484.039 109.332c-9.284-19.042-5.455-41.87 9.544-56.848l83.69-83.646c19.426-19.388 50.864-19.388 70.291 0l62.919 62.879a49.61 49.61 0 0 1 14.57 35.103v82.948c0 13.167-5.247 25.792-14.57 35.103s-21.942 14.54-35.124 14.54H559.017c-18.993 0-36.338-10.832-44.664-27.902l-30.315-62.178z" stroke-dasharray="0 18.756" stroke-width="18.615" class="C H I b"/><path d="M604.46 134.562c0-29.399-23.854-53.233-53.278-53.233s-53.278 23.834-53.278 53.233H604.46z" class="B J"/><g clip-path="url(#i)" fill="#7ddbbc"><use href="#Ab" class="V"/><path d="M399.803 98.372h46.906v8.521h-46.906zm0 17.041h46.906v8.521h-46.906z" class="V"/><use href="#Ac" class="V"/><path d="M463.765 115.413h46.907v8.521h-46.907zm63.965-17.041h46.906v8.521H527.73zm0 17.041h46.906v8.521H527.73zm63.963-17.041H638.6v8.521h-46.907zm0 17.041H638.6v8.521h-46.907zm63.962-17.041h46.906v8.521h-46.906zm0 17.041h46.906v8.521h-46.906z" class="V"/></g><path d="M634.309 50.288h-19.853l-5.38 49.093a4.6 4.6 0 0 0 4.574 5.098h21.563a4.6 4.6 0 0 0 4.573-5.107l-5.477-49.084z" fill="#b38150"/><g clip-path="url(#j)" class="B"><use href="#Ad" style="mix-blend-mode:multiply" fill="#6a6863" class="R"/></g><path d="M624.431 48.728a26.98 26.98 0 0 0 7.911 19.085 27.03 27.03 0 0 0 19.104 7.905h27.172V57.875a26.98 26.98 0 0 0-7.911-19.088 27.04 27.04 0 0 0-19.104-7.905h-27.172v17.846z" class="B Z"/><g clip-path="url(#k)"><path d="M624.431 30.882l60.47 51.685h-60.47V30.882z" class="B F"/><path d="M622.309 33.488l4.282-5.243 54.157 44.231-4.282 5.243z" class="S"/><g class="B"><g class="M"><path d="M656.041 78.642h-6.773V67.259c0-1.868 1.517-3.384 3.387-3.384s3.387 1.516 3.387 3.384v11.383zm-13.547.5h-6.773V56.68a3.38 3.38 0 0 1 3.383-3.38h.007a3.38 3.38 0 0 1 3.383 3.38v22.462z"/></g><g class="F"><path d="M678.619 56.748v-6.409h-10.34a3.21 3.21 0 0 0-2.269.941c-.599.599-.938 1.414-.938 2.264h0a3.21 3.21 0 0 0 3.207 3.204h10.34zm0-13.177v-6.768h-20.324a3.38 3.38 0 0 0-3.383 3.38v.007a3.38 3.38 0 0 0 3.383 3.38h20.324z"/></g></g></g><path d="M624.431 48.728a26.98 26.98 0 0 1-7.911 19.085 27.03 27.03 0 0 1-19.104 7.905h-27.172V57.875a26.98 26.98 0 0 1 7.911-19.088 27.04 27.04 0 0 1 19.104-7.905h27.172v17.846z" class="B Z"/><g clip-path="url(#l)"><path d="M624.431 30.882l-60.469 51.685h60.469V30.882z" class="B F"/><path d="M568.107 72.455l54.188-44.193 4.278 5.246-54.188 44.193z" class="S"/><g class="B"><g class="M"><path d="M592.822 78.642h6.773V67.259c0-1.868-1.517-3.384-3.387-3.384s-3.387 1.516-3.387 3.384v11.383zm13.547.5h6.773V56.683a3.38 3.38 0 0 0-.992-2.392 3.39 3.39 0 0 0-2.394-.991c-.897 0-1.761.359-2.394.991a3.38 3.38 0 0 0-.992 2.392v22.459z"/></g><g class="F"><path d="M570.244 57.107v-6.768h10.164a3.37 3.37 0 0 1 2.391.991c.637.633.992 1.492.992 2.389v.007a3.38 3.38 0 0 1-3.383 3.38h-10.164zm0-13.536v-6.768h20.32c.897 0 1.761.359 2.394.991a3.38 3.38 0 0 1 .992 2.392c0 .896-.356 1.76-.992 2.392a3.38 3.38 0 0 1-2.394.991h-20.32z"/></g></g></g><path d="M624.447 75.718l-16.229-11.817c-8.964-6.527-9.977-19.51-2.134-27.346l5.677-5.672h25.373l5.677 5.672c7.843 7.837 6.83 20.819-2.134 27.346l-16.229 11.817z" class="B S"/><g clip-path="url(#m)"><path d="M624.447 28.828h25.604v48.557h-25.604z" class="F"/><path d="M621.046 25.994h6.773v59.021h-6.773z" fill="#5ebe3e"/><path d="M600.417 55.605c-1.102 0-2.187-.538-2.835-1.527a3.38 3.38 0 0 1 .975-4.686l13.767-9.024c1.565-1.031 3.665-.586 4.688.972a3.38 3.38 0 0 1-.975 4.686L602.27 55.05a3.36 3.36 0 0 1-1.852.555z" class="F"/><use href="#Ae" class="M"/><path d="M600.417 71.035c-1.102 0-2.187-.538-2.835-1.527a3.38 3.38 0 0 1 .975-4.686l13.767-9.024c1.565-1.031 3.665-.586 4.688.972a3.38 3.38 0 0 1-.975 4.686L602.27 70.48a3.36 3.36 0 0 1-1.852.555z" class="F"/><path d="M648.444 71.035a3.36 3.36 0 0 1-1.852-.555l-13.763-9.024a3.38 3.38 0 1 1 3.713-5.658l13.763 9.024a3.38 3.38 0 0 1 .975 4.686c-.648.989-1.733 1.527-2.835 1.527z" class="M"/></g><path d="M642.712,92.637c-3.64,0-6.618,2.975-6.618,6.612,0-3.637-2.978-6.612-6.618-6.612s-6.618,2.975-6.618,6.612c0-3.637-2.978-6.612-6.618-6.612s-6.618,2.975-6.618,6.612c0-3.637-2.978-6.612-6.618-6.612s-6.618,2.975-6.618,6.612l5.982,5.231,15.388,1.649,22.056-1.09,9.515-5.79c0-3.637-2.978-6.612-6.618-6.612Z" class="B K"/><g class="W"><use href="#Af" class="E"/><use href="#Ag" class="E"/><path d="M710.32 99.756c1.699 0 3.076-1.375 3.076-3.073V90.27c0-1.699-1.377-3.073-3.076-3.073s-3.076 1.375-3.076 3.073v6.413c0 1.699 1.377 3.073 3.076 3.073zm-46.417 25.395c1.699 0 3.076-1.375 3.076-3.073v-9.622c0-1.699-1.377-3.073-3.076-3.073s-3.076 1.375-3.076 3.073v9.622c0 1.699 1.377 3.073 3.076 3.073z" class="E"/><use href="#Ah" class="E"/><path d="M675.673 125.151c1.699 0 3.076-1.375 3.076-3.073v-6.416c0-1.699-1.377-3.073-3.076-3.073s-3.076 1.375-3.076 3.073v6.416c0 1.699 1.377 3.073 3.076 3.073zM541.43 64.392c1.699 0 3.076-1.375 3.076-3.073v-9.622c0-1.699-1.377-3.073-3.076-3.073s-3.076 1.375-3.076 3.073v9.622c0 1.699 1.377 3.073 3.076 3.073z" class="E"/><use href="#Ai" class="E"/><path d="M553.202 64.392c1.699 0 3.076-1.375 3.076-3.073v-6.413c0-1.699-1.377-3.073-3.076-3.073s-3.076 1.375-3.076 3.073v6.413c0 1.699 1.377 3.073 3.076 3.073z" class="E"/></g><path d="M678.649,192.615c0-29.402-23.854-53.235-53.278-53.235s-53.278,23.834-53.278,53.235h106.556Z" class="B J"/><g clip-path="url(#n)"><path d="M473.992 139.381h46.906v8.521h-46.906z" fill="#7ddbbc" class="V"/></g><g fill="#f8d749" class="B"><path d="M549.773 145.409c-1.213-1.214-3.186-1.214-4.401 0a3.11 3.11 0 0 0 0 4.397l8.804 8.796a3.12 3.12 0 0 0 4.401 0 3.11 3.11 0 0 0 0-4.399l-8.804-8.794z"/><path d="M558.577 149.807a3.11 3.11 0 0 0 0-4.397c-1.215-1.214-3.186-1.214-4.401 0l-8.804 8.794a3.11 3.11 0 0 0 0 4.399 3.12 3.12 0 0 0 4.401 0l8.804-8.796z"/></g></g></svg>