<svg xmlns="http://www.w3.org/2000/svg" width="1500" height="145" xmlns:v="https://vecta.io/nano"><style><![CDATA[.B{fill-rule:evenodd}.C{fill:none}.D{fill:#408f43}.E{clip-rule:evenodd}.F{fill:#50b06d}.G{fill:#51b133}.H{fill:#357963}.I{fill:#61d1d5}.J{fill:#74dddc}.K{opacity:.5}.L{fill:#4aa22e}.M{fill:#59c1bf}.N{stroke-linecap:round}.O{stroke-linejoin:round}.P{fill:#fcf4c7}.Q{fill:#777087}.R{fill:#b08153}.S{stroke:#50b06d}.T{fill:#8d5527}.U{fill:#5ebe3e}.V{fill:#f1e54c}.W{fill:#41927e}.X{opacity:.256}.Y{stroke-width:3.407}.Z{stroke-miterlimit:10}.a{stroke-width:3.051}]]></style><defs><clipPath id="A"><path d="M0 0h1500v145H0z" class="C"/></clipPath><clipPath id="B"><path d="M1078.476 97.277c0 .229.172.422.4.449l7.319.853c.448.052.841.321 1.053.718a1.37 1.37 0 0 1 .007 1.273h0c-1.417 2.736-1.393 5.994.064 8.708l.52.968c.195.363.129.812-.163 1.103l-.905.905a.44.44 0 0 0-.096.483c.069.165.23.273.409.273h5.507c2.619 0 5.067-1.303 6.528-3.476l1.707-2.54a2.7 2.7 0 0 1 2.239-1.192h1.524c.228 0 .447-.091.609-.252a.86.86 0 0 0 .252-.609h0c0-.228-.091-.447-.252-.609s-.381-.252-.609-.252h-1.524a2.7 2.7 0 0 1-2.239-1.192l-1.707-2.54c-1.461-2.173-3.909-3.476-6.528-3.476h-13.71c-.224 0-.405.181-.405.405h0z" class="E I"/></clipPath><clipPath id="C"><path d="M959.998 93.708h26.671l.034-21.681h25.472V25.912h-52.177v67.796z" class="C E"/></clipPath><clipPath id="D"><path d="M904.172 6.013h-15.486l-4.197 38.294a3.59 3.59 0 0 0 3.568 3.976h16.82a3.59 3.59 0 0 0 3.567-3.983l-4.272-38.287z" class="C"/></clipPath><clipPath id="E"><path d="M896.467 4.796c0 5.582 2.219 10.938 6.171 14.887a21.08 21.08 0 0 0 14.902 6.166h21.194V11.931c0-5.585-2.219-10.941-6.171-14.889s-9.312-6.166-14.902-6.166h-21.194v13.92z" class="C E"/></clipPath><clipPath id="F"><path d="M896.467 4.796c0 5.582-2.219 10.938-6.171 14.887a21.08 21.08 0 0 1-14.902 6.166H854.2V11.931c0-5.585 2.219-10.941 6.171-14.889s9.312-6.166 14.902-6.166h21.194v13.92z" class="C E"/></clipPath><clipPath id="G"><path d="M896.478 25.848l-12.659-9.218c-6.992-5.091-7.782-15.218-1.665-21.331l4.428-4.425h19.791l4.428 4.425c6.118 6.113 5.328 16.239-1.665 21.331l-12.659 9.218z" class="C E"/></clipPath><clipPath id="H"><path d="M928.335 73.648h-15.486l-4.197 38.294a3.59 3.59 0 0 0 3.568 3.976h16.82a3.59 3.59 0 0 0 3.567-3.983l-4.272-38.287z" class="C"/></clipPath><clipPath id="I"><path d="M920.63 72.431c0 5.582 2.219 10.938 6.171 14.887a21.08 21.08 0 0 0 14.902 6.166h21.194V79.566c0-5.585-2.219-10.941-6.171-14.889s-9.312-6.166-14.902-6.166H920.63v13.921z" class="C E"/></clipPath><clipPath id="J"><path d="M920.63 72.431c0 5.582-2.219 10.938-6.171 14.887a21.08 21.08 0 0 1-14.902 6.166h-21.194V79.566c0-5.585 2.219-10.941 6.171-14.889s9.312-6.166 14.902-6.166h21.194v13.921z" class="C E"/></clipPath><clipPath id="K"><path d="M920.642 93.483l-12.659-9.218c-6.992-5.091-7.782-15.218-1.665-21.331l4.428-4.425h19.791l4.428 4.425c6.118 6.113 5.328 16.239-1.665 21.331l-12.659 9.218z" class="C E"/></clipPath><clipPath id="L"><path d="M999.173 2.211c-.453-.452-1.07-1.344-1.649-1.215-.808.18-1.516.633-2.097 1.215q-.066.066 0 0c-.159.159.027-.027-.621.621-1.321 1.32-1.375 3.426-.164 4.81a.23.23 0 0 0 .333.006l1.187-1.186c.985.47 2.196.308 3.011-.507 1.035-1.034 1.035-2.71 0-3.743z" class="C"/></clipPath><clipPath id="M"><path d="M881.392 42.211c-1.565 0-3.027-.776-3.903-2.07s-1.057-2.94-.474-4.391L891.273.136a5.69 5.69 0 0 1 5.297-3.573h20.381a5.71 5.71 0 0 1 5.491 4.139l4.528 15.833 17.451 4.982a5.69 5.69 0 0 1 3.626 3.116l10.16 22.331c.662 1.459.54 3.154-.328 4.501s-2.361 2.161-3.966 2.161H919.13a8.65 8.65 0 0 1-6.114-2.53l-6.356-6.353a8.65 8.65 0 0 0-6.114-2.53h-19.152z" class="C E"/></clipPath><clipPath id="N"><path d="M976.799 7.095a2.79 2.79 0 0 0 2.308-1.224 2.78 2.78 0 0 0 .28-2.596l-8.428-21.052a3.37 3.37 0 0 0-3.133-2.116h-12.049c-1.508 0-2.832.998-3.247 2.447l-.668 2.614-5.628 2.644c-.652.306-1.174.834-1.473 1.49l-6.276 13.787c-.392.862-.319 1.865.194 2.661a2.79 2.79 0 0 0 2.345 1.278l35.775.069z" class="C E"/></clipPath><clipPath id="O"><path d="M864.496 103.983h-82.471v77.221a2.9 2.9 0 0 0 .849 2.048c.546.545 1.283.851 2.052.851h76.669a2.9 2.9 0 0 0 2.901-2.899v-77.221z" class="C E"/></clipPath><clipPath id="P"><path d="M758.648 153.47a23.28 23.28 0 0 0 6.826 16.467 23.32 23.32 0 0 0 16.484 6.82h23.444v-15.395c0-6.178-2.455-12.102-6.826-16.47a23.33 23.33 0 0 0-16.484-6.82h-23.444v15.398z" class="C E"/></clipPath><clipPath id="Q"><path d="M758.648 153.47a23.28 23.28 0 0 1-6.826 16.467 23.32 23.32 0 0 1-16.484 6.82h-23.444v-15.395c0-6.178 2.455-12.102 6.826-16.47a23.33 23.33 0 0 1 16.484-6.82h23.444v15.398z" class="C E"/></clipPath><clipPath id="R"><path d="M758.661 176.757l-14.003-10.196c-7.734-5.632-8.609-16.833-1.841-23.595l4.898-4.894h21.892l4.898 4.894c6.767 6.762 5.893 17.963-1.841 23.595l-14.003 10.196z" class="C E"/></clipPath><clipPath id="S"><path d="M739.746 103.983h-82.471v77.221a2.9 2.9 0 0 0 .849 2.048c.546.545 1.283.851 2.052.851h76.669a2.9 2.9 0 0 0 2.901-2.899v-77.221z" class="C E"/></clipPath><clipPath id="T"><path d="M195.988 22.092c-.552 0-1.079-.232-1.451-.639s-.557-.952-.508-1.501l7.392-82.781c.144-1.616 1.498-2.844 3.122-2.844h6.787c1.63 0 2.989 1.249 3.124 2.872l1.328 15.921h4.828c.884 0 1.69.495 2.085 1.285l2.183 4.362c.204.407.322.852.347 1.306l1.529 27.5 8.542 2.438a3.35 3.35 0 0 1 2.43 3.221v26.893c0 .521-.207 1.021-.576 1.39s-.869.576-1.391.576h-39.77z" class="C E"/></clipPath><clipPath id="U"><path d="M1285.639-296.372h96.432a43.67 43.67 0 0 1 30.87 12.776c8.185 8.178 12.787 19.274 12.787 30.84V-5.003a43.61 43.61 0 0 1-12.787 30.843 43.68 43.68 0 0 1-30.87 12.776h-72.664c-11.576 0-22.681-4.598-30.87-12.776a43.61 43.61 0 0 1-12.784-30.843v-39.284c0-11.442-4.5-22.426-12.529-30.582l-80.094-81.386c-8.028-8.155-12.529-19.14-12.529-30.582v-65.919c0-11.566 4.598-22.662 12.787-30.84a43.66 43.66 0 0 1 30.866-12.776h81.383z" class="C E"/></clipPath><clipPath id="V"><path d="M452.708 106.809c0 .136-.102.251-.237.266l-4.344.506c-.266.031-.499.19-.625.426s-.127.518-.004.756h0a5.54 5.54 0 0 1-.038 5.169l-.309.575c-.116.216-.076.482.097.655l.537.537c.075.075.098.188.057.286s-.136.162-.243.162h-3.269a4.67 4.67 0 0 1-3.874-2.063l-1.013-1.507a1.6 1.6 0 0 0-1.329-.708h-.905a.51.51 0 0 1-.511-.511h0a.51.51 0 0 1 .511-.511h.905a1.6 1.6 0 0 0 1.329-.708l1.013-1.507a4.67 4.67 0 0 1 3.874-2.063h8.137a.24.24 0 0 1 .241.24h0z" class="E M"/></clipPath><path id="W" d="M1078.476 97.277c0 .229.172.422.4.449l7.319.853c.448.052.841.321 1.053.718a1.37 1.37 0 0 1 .007 1.273h0c-1.417 2.736-1.393 5.994.064 8.708l.52.968c.195.363.129.812-.163 1.103l-.905.905a.44.44 0 0 0-.096.483c.069.165.23.273.409.273h5.507c2.619 0 5.067-1.303 6.528-3.476l1.707-2.54a2.7 2.7 0 0 1 2.239-1.192h1.524c.228 0 .447-.091.609-.252a.86.86 0 0 0 .252-.609h0c0-.228-.091-.447-.252-.609s-.381-.252-.609-.252h-1.524a2.7 2.7 0 0 1-2.239-1.192l-1.707-2.54c-1.461-2.173-3.909-3.476-6.528-3.476h-13.71c-.224 0-.405.181-.405.405h0z"/><path id="X" d="M975.229,20.032c0-2.11-1.713-3.821-3.824-3.821s-3.824,1.711-3.824,3.821v3.814h7.649v-3.814Z"/><path id="Y" d="M967.597,20.025c0-2.11-1.713-3.821-3.824-3.821s-3.824,1.711-3.824,3.821v3.814h7.649v-3.814Z"/><path id="Z" d="M974.551 91.09a4.01 4.01 0 0 0-4.009-4.006 4.01 4.01 0 0 0-4.009 4.006v3.999h8.019V91.09z"/><path id="a" d="M990.477 91.09a4.01 4.01 0 0 0-4.371-3.99c-2.105.185-3.647 2.087-3.647 4.198v3.75a.04.04 0 0 0 .04.04h7.938a.04.04 0 0 0 .04-.04v-3.959z"/><path id="b" d="M904.172 6.013h-15.486l-4.197 38.294a3.59 3.59 0 0 0 3.568 3.976h16.82a3.59 3.59 0 0 0 3.567-3.983l-4.272-38.287z"/><path id="c" d="M896.478 33.694l-12.659-9.218c-6.992-5.091-7.782-15.218-1.665-21.331l4.428-4.425h19.791l4.428 4.425c6.118 6.113 5.328 16.239-1.665 21.331l-12.659 9.218z"/><path id="d" d="M894.814-7.089l3.34-4.089 42.244 34.502-3.34 4.089z"/><path id="e" d="M938.734.773v-5.279h-15.853a2.64 2.64 0 0 0-2.639 2.637v.005a2.64 2.64 0 0 0 2.639 2.637h15.853z"/><path id="f" d="M852.534 23.305l42.268-34.472 3.337 4.092-42.268 34.472z"/><path id="g" d="M877.735 10.16a2.64 2.64 0 0 1-2.212-1.191c-.801-1.22-.461-2.856.76-3.655l10.739-7.039a2.64 2.64 0 0 1 3.656.758c.801 1.22.461 2.856-.76 3.655l-10.739 7.039a2.62 2.62 0 0 1-1.445.433z"/><path id="h" d="M915.197 10.16a2.62 2.62 0 0 1-1.445-.433l-10.735-7.039c-1.221-.799-1.562-2.435-.76-3.655s2.425-1.564 3.656-.758l10.735 7.039c1.221.799 1.562 2.435.76 3.655a2.64 2.64 0 0 1-2.212 1.191z"/><path id="i" d="M1007.709,20.661h-4.099c-.422,0-.764-.341-.764-.763s.342-.763.764-.763h4.099c.422,0,.764.341.764.763s-.342.763-.764.763Z"/><path id="j" d="M1005.913,20.661c-.422,0-.764-.341-.764-.763v-1.794c0-.422.342-.763.764-.763s.764.341.764.763v1.794c0,.422-.342.763-.764.763Z"/><path id="k" d="M1005.995,18.61h0c-.622,0-1.125-.503-1.125-1.124l-.755-4.096,3.596.619-.591,3.477c0,.621-.504,1.124-1.125,1.124Z"/><path id="l" d="M834.806 69.4a2.54 2.54 0 0 0 2.54-2.538v-7.947a2.54 2.54 0 0 0-5.08 0v7.947a2.54 2.54 0 0 0 2.54 2.538z"/><path id="m" d="M824.2 69.4a2.54 2.54 0 0 0 2.54-2.538v-5.297a2.54 2.54 0 0 0-5.08 0v5.297a2.54 2.54 0 0 0 2.54 2.538z"/><path id="n" d="M795.586 90.375a2.54 2.54 0 0 0 2.54-2.538v-5.299a2.54 2.54 0 0 0-5.08 0v5.299a2.54 2.54 0 0 0 2.54 2.538z"/><path id="o" d="M864.496 138.343h-82.471v42.861a2.9 2.9 0 0 0 .849 2.048c.546.545 1.283.851 2.052.851h76.669a2.9 2.9 0 0 0 2.901-2.899v-42.861z"/><path id="p" d="M779.599 115.751h87.322v19.884h-87.322z"/><path id="q" d="M779.599 132.605h87.322v3.029h-87.322z"/><path id="r" d="M791.424 103.825h4.548v28.78h-4.548z"/><path id="s" d="M755.09 65.885c-.827-.827-2.172-.827-3 0a2.12 2.12 0 0 0 0 2.997l6.001 5.996c.828.826 2.172.826 3 0a2.12 2.12 0 0 0 0-2.999l-6.001-5.994z"/><path id="t" d="M761.091 68.882a2.12 2.12 0 0 0 0-2.997c-.828-.827-2.172-.827-3 0l-6.001 5.994a2.12 2.12 0 0 0 0 2.999c.828.826 2.173.826 3 0l6.001-5.996z"/><path id="u" d="M452.708 106.809c0 .136-.102.251-.237.266l-4.344.506c-.266.031-.499.19-.625.426s-.127.518-.004.756h0a5.54 5.54 0 0 1-.038 5.169l-.309.575c-.116.216-.076.482.097.655l.537.537c.075.075.098.188.057.286s-.136.162-.243.162h-3.269a4.67 4.67 0 0 1-3.874-2.063l-1.013-1.507a1.6 1.6 0 0 0-1.329-.708h-.905a.51.51 0 0 1-.511-.511h0a.51.51 0 0 1 .511-.511h.905a1.6 1.6 0 0 0 1.329-.708l1.013-1.507a4.67 4.67 0 0 1 3.874-2.063h8.137a.24.24 0 0 1 .241.24h0z"/></defs><g clip-path="url(#A)"><path d="M-11.618-1830.128h1523.237V742.897H-11.618z" class="I"/><path d="M1682.204 15.595a88.54 88.54 0 0 0-68.363-32.124h-99.121v-146.584h-14.384c-22.663 0-41.036-18.372-41.036-41.036v-52.232c0-21.744-8.476-42.189-23.867-57.568s-35.854-23.846-57.619-23.846h-177.815c-21.766 0-42.229 8.469-57.61 23.841-15.396 15.375-23.874 35.822-23.874 57.574v65.918c0 21.49 8.307 41.761 23.383 57.079l16.139 16.399c15.866 16.122 15.691 42.042-.386 57.953-26.308 26.036-90.657 24.395-114.095 2.198-15.284-14.474-32.709-32.517-61.304-32.517H868.954c-23.811 0-46.2 9.264-63.051 26.093l-80.526 80.463c-1.197 1.195-2.819 1.867-4.51 1.867h-98.666c-40.185 0-75.581 27.072-86.076 65.841L499.091 221.78c-7.198 26.596-1.49 55.534 15.273 77.412s43.229 34.938 70.801 34.938h77.643c11.636 0 149.632 120.916 149.632 120.916 4.813 4.813 4.19 12.738-1.256 16.821-3.878 2.908-69.317 70.079-79.233 82.634-17.516 22.178-16.971 53.63 1.305 75.185 0 0 14.789 18.045 18.428 21.601 9.72 9.497 22.857 14.685 36.447 14.685h8.224c9.006 16.001 26.166 26.832 45.81 26.832h35.226c27.597 0 53.541-10.738 73.054-30.234l1.177-1.174c19.513-19.498 30.26-45.422 30.26-72.995v-1.928c0-6.15 4.985-11.135 11.135-11.135h147.779c12.525 0 22.672 10.173 22.648 22.698 0 23.724 9.236 46.024 26.011 62.801l14.396 14.395c16.772 16.772 39.073 26.01 62.794 26.01h124.272c23.552 0 46.139-9.356 62.793-26.01L1602.942 526c12.687-12.688 21.149-28.713 24.473-46.343l73.694-390.93c4.913-26.061-1.978-52.715-18.903-73.131z" class="J"/><path d="M1613.841 80.754h-184.105a38.81 38.81 0 0 0-27.439 11.365l-70.229 70.229c-7.277 7.277-17.147 11.365-27.439 11.365h-76.817a38.81 38.81 0 0 0-27.439 11.365l-20.052 20.052c-7.277 7.277-11.365 17.147-11.365 27.439v3.655a38.81 38.81 0 0 0 11.365 27.439l63.144 63.144c7.277 7.277 11.365 17.147 11.365 27.439v12.1a38.81 38.81 0 0 0 11.365 27.439l30.533 30.533c7.277 7.277 11.365 17.147 11.365 27.439h0a38.81 38.81 0 0 1-11.365 27.439l-71.921 71.921c-7.277 7.277-11.365 17.147-11.365 27.439v19.487a38.81 38.81 0 0 0 11.365 27.439l14.396 14.396c7.277 7.277 17.147 11.365 27.439 11.365h124.271a38.81 38.81 0 0 0 27.439-11.365l149.232-149.232a38.81 38.81 0 0 0 10.694-20.25l73.695-343.647c4.504-23.891-13.82-45.992-38.132-45.992z" class="I"/><path d="M1023.664 18.73c7.242 14.853 4.255 32.66-7.445 44.343l-65.28 65.245c-15.153 15.123-39.675 15.123-54.829 0l-49.079-49.047c-7.272-7.259-11.365-17.111-11.365-27.381v-64.701c0-10.27 4.093-20.118 11.365-27.381a38.77 38.77 0 0 1 27.398-11.342h90.749a38.77 38.77 0 0 1 34.839 21.764l23.646 48.5z" class="B F"/><path d="M1023.664 18.73c7.242 14.853 4.255 32.66-7.445 44.343l-65.28 65.245c-15.153 15.124-39.675 15.124-54.829 0l-49.079-49.047c-7.272-7.259-11.365-17.111-11.365-27.381v-64.701c0-10.27 4.093-20.118 11.365-27.381a38.77 38.77 0 0 1 27.398-11.342h90.749a38.77 38.77 0 0 1 34.839 21.764l23.646 48.5z" stroke-dasharray="0 15.755" stroke-width="15.625" class="C N O S"/><g class="B"><path d="M982.308-2.494l1.416-1.415a2 2 0 0 0 0-2.831c-.782-.781-2.051-.781-2.833 0l-1.417 1.416-1.417-1.416c-.781-.781-2.051-.781-2.833 0a2 2 0 0 0 0 2.831l1.416 1.415-1.416 1.415c-.782.781-.782 2.05 0 2.832a2.01 2.01 0 0 0 2.833 0l1.417-1.416 1.417 1.416a2.01 2.01 0 0 0 2.833 0c.782-.782.782-2.051 0-2.832l-1.416-1.415z" fill="#f8d749"/><path d="M725.659,121.081v-3.806c.703-.056,1.263-.629,1.263-1.345s-.559-1.289-1.263-1.345v-.127c0-.754-.613-1.366-1.368-1.366s-1.368.612-1.368,1.366v1.472h-3.788v-1.472c0-.754-.613-1.366-1.368-1.366s-1.368.612-1.368,1.366v.127c-.703.056-1.263.629-1.263,1.345s.559,1.289,1.263,1.345v3.806h-13.257c0,9.693,7.728,17.564,17.36,17.845v9.172c0,.29.236.526.526.526s.526-.236.526-.526v-9.172c9.633-.281,17.36-8.152,17.36-17.845h-13.257Z" class="M"/><g class="I"><use href="#W"/><use href="#W"/></g></g><g clip-path="url(#B)" class="I"><circle cx="1097.912" cy="104.925" r="2.697"/><circle cx="1089.94" cy="113.01" r="2.022"/><circle cx="1091.421" cy="101.882" r="1.348"/><circle cx="1096.009" cy="97.829" r="2.117"/><circle cx="1079.15" cy="97.514" r="1.348"/><circle cx="1082.522" cy="96.166" r="1.348"/><circle cx="1085.894" cy="98.861" r="1.348"/><circle cx="1089.94" cy="97.514" r="1.348"/><circle cx="1091.963" cy="107.62" r="2.36"/><circle cx="1096.683" cy="110.989" r="2.022"/><circle cx="1087.242" cy="104.925" r="2.022"/><path d="M1102.82 102.246h6.609v5.39h-6.609z"/></g><g class="B I"><path d="M1082.502 101.179a.41.41 0 0 1 .188-.506.41.41 0 0 1 .528.114l3.119 4.155-3.119 4.155a.41.41 0 0 1-.528.114c-.18-.099-.26-.314-.188-.506l.708-1.888c.454-1.209.454-2.541 0-3.75l-.708-1.888zm15.41 2.417c-.742 0-1.346.603-1.346 1.345s.604 1.345 1.346 1.345 1.346-.603 1.346-1.345-.603-1.345-1.346-1.345z"/><path d="M1097.912 103.596c.744 0 1.346.602 1.346 1.345s-.602 1.345-1.346 1.345v-2.69z"/></g><g fill="#bfd042" class="B"><use href="#X"/><use href="#Y"/><path d="M982.861,20.032c0-2.11-1.713-3.821-3.824-3.821s-3.824,1.711-3.824,3.821v3.814h7.649v-3.814Z"/><path d="M990.493 20.032c0-2.11-1.713-3.821-3.824-3.821s-3.824 1.711-3.824 3.821v3.814h7.649v-3.814zm15.264 0c0-2.11-1.713-3.821-3.824-3.821s-3.824 1.711-3.824 3.821v3.814h7.649v-3.814z"/><path d="M998.125 20.025c0-2.11-1.713-3.821-3.824-3.821s-3.824 1.711-3.824 3.821v3.814h7.649v-3.814zm15.264.007c0-2.11-1.713-3.821-3.824-3.821s-3.824 1.711-3.824 3.821v3.814h7.649v-3.814z"/></g><path d="M959.998 93.708h26.671l.034-21.681h25.472V25.912h-52.177v67.796z" fill="#5ac4c3" class="B"/><g clip-path="url(#C)" fill="#baeffc" class="B"><path style="mix-blend-mode:overlay" d="M977.914 20.516l15.254.093-33.722 74.907-3.24-26.464 21.708-48.536zm28.6 0l7.406.093-33.345 76.475-8.159-.328 34.098-76.24z" opacity=".25"/></g><g fill="#d8cfd9"><path style="mix-blend-mode:multiply" d="M986.086 55.037h24.874v4.854h-24.874zm-23.709 19.417h24.325v4.854h-24.325zm0-41.26h48.583v4.854h-48.583z" class="K"/></g><path d="M959.948 21.058h53.441v4.854h-53.441z" fill="#a7692a"/><path d="M960.017 25.912h53.372v7.281h-53.372z" class="T"/><path d="M959.948 90.671h29.15v3.037h-29.15z" fill="#a7692a"/><g class="T"><path d="M1008.531 25.912h4.858v87.118h-4.858zm-24.291 0h4.858v67.795h-4.858z"/></g><path d="M984.24 33.194h4.858v55.823h-4.858z" fill="#703711"/><g class="T"><path d="M959.948 25.912h4.858v67.795h-4.858zm24.292 24.271h28.315v4.854H984.24z"/><path d="M960.783 69.6h51.771v4.854h-51.771z"/></g><g class="B F"><use href="#Z"/><path d="M966.588 91.083a4.01 4.01 0 0 0-4.009-4.006 4.01 4.01 0 0 0-4.009 4.006v3.999h8.019v-3.999zm15.926.007a4.01 4.01 0 0 0-4.009-4.006 4.01 4.01 0 0 0-4.009 4.006v3.999h8.019V91.09z"/><use href="#a"/></g><path d="M1014.969 111.935a4.01 4.01 0 0 0-4.371-3.99c-2.105.185-3.647 2.087-3.647 4.198v3.75a.04.04 0 0 0 .04.04h7.938a.04.04 0 0 0 .04-.04v-3.959z" class="B J"/><use href="#b" fill="#b38150"/><g clip-path="url(#D)" class="B"><use href="#c" style="mix-blend-mode:multiply" fill="#6a6863" opacity=".25"/></g><path d="M896.467 4.796c0 5.582 2.219 10.938 6.171 14.887a21.08 21.08 0 0 0 14.902 6.166h21.194V11.931c0-5.585-2.219-10.941-6.171-14.889s-9.312-6.166-14.902-6.166h-21.194v13.92z" class="B L"/><g clip-path="url(#E)"><path d="M896.467-9.125l47.167 40.316h-47.167V-9.125z" class="B D"/><use href="#d" class="G"/><g class="B"><g class="H"><path d="M921.123 28.129h-5.283V19.25a2.642 2.642 0 1 1 5.284 0v8.879zm-10.567.39h-5.283v-17.52a2.64 2.64 0 0 1 2.639-2.637h.005a2.64 2.64 0 0 1 2.639 2.637V28.52z"/></g><g class="D"><path d="M938.734 11.051V6.052h-8.065c-.663 0-1.3.264-1.77.734s-.732 1.103-.732 1.766h0a2.5 2.5 0 0 0 2.502 2.499h8.065z"/><use href="#e"/></g></g></g><path d="M896.467 4.796c0 5.582-2.219 10.938-6.171 14.887a21.08 21.08 0 0 1-14.902 6.166H854.2V11.931c0-5.585 2.219-10.941 6.171-14.889s9.312-6.166 14.902-6.166h21.194v13.92z" class="B L"/><g clip-path="url(#F)"><path d="M896.467-9.125l-47.168 40.316h47.168V-9.125z" class="B D"/><use href="#f" class="G"/><g class="B"><g class="H"><path d="M871.811 28.129h5.283V19.25a2.642 2.642 0 1 0-5.284 0v8.879zm10.567.39h5.283V11.001c0-.699-.277-1.37-.774-1.866a2.64 2.64 0 0 0-1.868-.773 2.65 2.65 0 0 0-1.868.773c-.497.496-.774 1.167-.774 1.866v17.518z"/></g><g class="D"><path d="M854.199 11.331V6.052h7.928a2.63 2.63 0 0 1 1.865.773c.497.494.774 1.164.774 1.863v.005c0 .699-.277 1.37-.774 1.866s-1.165.771-1.865.771h-7.928zm0-10.558v-5.279h15.85a2.65 2.65 0 0 1 1.868.773c.497.496.774 1.167.774 1.866a2.63 2.63 0 0 1-.774 1.866c-.494.496-1.168.773-1.868.773h-15.85z"/></g></g></g><path d="M896.478 25.848l-12.659-9.218c-6.992-5.091-7.782-15.218-1.665-21.331l4.428-4.425h19.791l4.428 4.425c6.118 6.113 5.328 16.239-1.665 21.331l-12.659 9.218z" class="B G"/><g clip-path="url(#G)"><path d="M896.478-10.727h19.972v37.875h-19.972z" class="D"/><path d="M893.826-12.937h5.283v46.038h-5.283z" class="U"/><use href="#g" class="D"/><use href="#h" class="H"/><path d="M877.735 22.195a2.64 2.64 0 0 1-2.212-1.191c-.801-1.22-.461-2.856.76-3.655l10.739-7.039a2.64 2.64 0 0 1 3.656.758c.801 1.22.461 2.856-.76 3.655l-10.739 7.039a2.62 2.62 0 0 1-1.445.433z" class="D"/><path d="M915.197 22.195a2.62 2.62 0 0 1-1.445-.433l-10.735-7.039c-1.221-.799-1.562-2.435-.76-3.655s2.425-1.564 3.656-.758l10.735 7.039c1.221.799 1.562 2.435.76 3.655a2.64 2.64 0 0 1-2.212 1.191z" class="H"/></g><path d="M910.726,39.046c-2.839,0-5.162,2.321-5.162,5.157,0-2.837-2.323-5.157-5.162-5.157s-5.162,2.321-5.162,5.157c0-2.837-2.323-5.157-5.162-5.157s-5.162,2.321-5.162,5.157c0-2.837-2.323-5.157-5.162-5.157s-5.162,2.321-5.162,5.157l4.666,4.08,12.003,1.286,17.205-.85,7.422-4.516c0-2.837-2.323-5.157-5.162-5.157Z" class="B F"/><path d="M928.335 73.648h-15.486l-4.197 38.294a3.59 3.59 0 0 0 3.568 3.976h16.82a3.59 3.59 0 0 0 3.567-3.983l-4.272-38.287z" fill="#b38150"/><g clip-path="url(#H)" class="B"><path d="M920.642 101.329l-12.659-9.218c-6.992-5.091-7.782-15.218-1.665-21.331l4.428-4.425h19.791l4.428 4.425c6.118 6.113 5.328 16.239-1.665 21.331l-12.659 9.218z" style="mix-blend-mode:multiply" fill="#6a6863" opacity=".25"/></g><path d="M920.63 72.431c0 5.582 2.219 10.938 6.171 14.887a21.08 21.08 0 0 0 14.902 6.166h21.194V79.566c0-5.585-2.219-10.941-6.171-14.889s-9.312-6.166-14.902-6.166H920.63v13.921z" class="B L"/><g clip-path="url(#I)"><path d="M920.63 58.51l47.167 40.315H920.63V58.51z" class="B D"/><path d="M918.978 60.545l3.34-4.089 42.244 34.502-3.34 4.089z" class="G"/><g class="B"><g class="H"><path d="M945.286 95.764h-5.283v-8.879a2.642 2.642 0 1 1 5.284 0v8.879zm-10.567.39h-5.283V78.633a2.64 2.64 0 0 1 2.639-2.637h.005a2.64 2.64 0 0 1 2.639 2.637v17.521z"/></g><g class="D"><path d="M962.897 78.686v-4.999h-8.065c-.663 0-1.3.264-1.77.734s-.732 1.103-.732 1.766h0a2.5 2.5 0 0 0 2.502 2.499h8.065zm0-10.278v-5.279h-15.853a2.64 2.64 0 0 0-2.639 2.637v.005a2.64 2.64 0 0 0 2.639 2.637h15.853z"/></g></g></g><path d="M920.63 72.431c0 5.582-2.219 10.938-6.171 14.887a21.08 21.08 0 0 1-14.902 6.166h-21.194V79.566c0-5.585 2.219-10.941 6.171-14.889s9.312-6.166 14.902-6.166h21.194v13.921z" class="B L"/><g clip-path="url(#J)"><path d="M920.63 58.51l-47.168 40.315h47.168V58.51z" class="B D"/><path d="M876.696 90.941l42.268-34.472 3.337 4.092-42.268 34.472z" class="G"/><g class="B"><g class="H"><path d="M895.974 95.764h5.283v-8.879a2.642 2.642 0 1 0-5.284 0v8.879zm10.567.39h5.283V78.636c0-.699-.277-1.37-.774-1.866a2.64 2.64 0 0 0-1.868-.773 2.65 2.65 0 0 0-1.868.773c-.497.496-.774 1.167-.774 1.866v17.518z"/></g><g class="D"><path d="M878.363 78.966v-5.279h7.928a2.63 2.63 0 0 1 1.865.773c.497.494.774 1.164.774 1.863v.005c0 .699-.277 1.37-.774 1.866s-1.165.771-1.865.771h-7.928zm0-10.558v-5.279h15.85a2.65 2.65 0 0 1 1.868.773c.497.496.774 1.167.774 1.866a2.63 2.63 0 0 1-.774 1.866c-.494.496-1.168.773-1.868.773h-15.85z"/></g></g></g><path d="M920.642 93.483l-12.659-9.218c-6.992-5.091-7.782-15.218-1.665-21.331l4.428-4.425h19.791l4.428 4.425c6.118 6.113 5.328 16.239-1.665 21.331l-12.659 9.218z" class="B G"/><g clip-path="url(#K)"><path d="M920.642 56.908h19.972v37.875h-19.972z" class="D"/><path d="M917.989 54.697h5.283v46.038h-5.283z" class="U"/><path d="M901.898 77.795a2.64 2.64 0 0 1-2.212-1.191c-.801-1.22-.461-2.856.76-3.655l10.739-7.039a2.64 2.64 0 0 1 3.656.758c.801 1.22.461 2.856-.76 3.655l-10.739 7.039a2.62 2.62 0 0 1-1.445.433z" class="D"/><path d="M939.36 77.795a2.62 2.62 0 0 1-1.445-.433l-10.735-7.039c-1.221-.799-1.562-2.435-.76-3.655s2.425-1.564 3.656-.758l10.735 7.039c1.221.799 1.562 2.435.76 3.655a2.64 2.64 0 0 1-2.212 1.191z" class="H"/><path d="M901.898 89.83a2.64 2.64 0 0 1-2.212-1.191c-.801-1.22-.461-2.856.76-3.655l10.739-7.039a2.64 2.64 0 0 1 3.656.758c.801 1.22.461 2.856-.76 3.655l-10.739 7.039a2.62 2.62 0 0 1-1.445.433z" class="D"/><path d="M939.36 89.83a2.62 2.62 0 0 1-1.445-.433l-10.735-7.039c-1.221-.799-1.562-2.435-.76-3.655s2.425-1.564 3.656-.758l10.735 7.039c1.221.799 1.562 2.435.76 3.655a2.64 2.64 0 0 1-2.212 1.191z" class="H"/></g><path d="M934.889,106.68c-2.839,0-5.162,2.321-5.162,5.157,0-2.837-2.323-5.157-5.162-5.157s-5.162,2.321-5.162,5.157c0-2.837-2.323-5.157-5.162-5.157s-5.162,2.321-5.162,5.157c0-2.837-2.323-5.157-5.162-5.157s-5.162,2.321-5.162,5.157l4.666,4.08,12.003,1.286,17.205-.85,7.422-4.516c0-2.837-2.323-5.157-5.162-5.157Z" class="B F"/><path d="M1009.068 17.496h.001a1.04 1.04 0 0 1 1.395.467l2.965 5.95a1.04 1.04 0 0 1-.467 1.396h-.001a1.04 1.04 0 0 1-1.395-.467l-2.965-5.95a1.04 1.04 0 0 1 .467-1.396z" class="V"/><path d="M1009.797 16.655h0a1.04 1.04 0 0 1 1.421.38l3.326 5.755c.288.498.117 1.136-.381 1.424h0a1.04 1.04 0 0 1-1.421-.38l-3.326-5.756a1.04 1.04 0 0 1 .381-1.422z" fill="#eab73f"/><path d="M1009.656 16.591h0a1.04 1.04 0 0 1 1.471-.001l4.704 4.7c.407.406.407 1.067.001 1.474h0a1.04 1.04 0 0 1-1.471.001l-4.704-4.7c-.407-.406-.407-1.067-.001-1.474z" class="V"/><path d="M1010.122 16.585h0a1.04 1.04 0 0 1 1.442-.291l5.541 3.679c.479.318.61.965.292 1.444h0a1.04 1.04 0 0 1-1.442.291l-5.541-3.679c-.479-.318-.61-.965-.292-1.444z" fill="#eab73f"/><g fill="#aeaeae"><use href="#i"/><use href="#j"/></g><use href="#k" fill="#377d90"/><g fill="#c0cbd0"><path d="M1006.141,20.661h-4.099c-.422,0-.764-.341-.764-.763s.342-.763.764-.763h4.099c.422,0,.764.341.764.763s-.342.763-.764.763Z"/><path d="M1004.345,20.661c-.422,0-.764-.341-.764-.763v-1.794c0-.422.342-.763.764-.763s.764.341.764.763v1.794c0,.422-.342.763-.764.763Z"/></g><path d="M1004.427,18.61h0c-.622,0-1.125-.503-1.125-1.124l-.755-4.096,3.596.619-.591,3.477c0,.621-.504,1.124-1.125,1.124Z" fill="#50b0cc"/><path d="M1012.368 17.757l-5.863-10.911c-.311-.519-1.052-1.368-1.429-1.781-.711-.779-2.999-3.065-5.414-3.977-1.402-.529-3.049-.003-4.008.919-.661.636-1.196 1.785-.939 2.817s1.977 1.852 3.01 2.131l.036.01c.765.207 1.299.909 1.248 1.692-.095 1.448.698 2.759 1.967 3.738 2.467 1.904 8.998 7.389 8.998 7.389.622.529 1.544.5 2.133-.065a1.59 1.59 0 0 0 .261-1.962z" fill="#4192b5"/><path d="M1012.835,16.987l-5.656-2.036c-3.08-1.109-5.516-3.515-6.659-6.581h0c-.947-2.539,1.807-4.868,4.156-3.515l3.062,1.763c2.305,1.327,4.058,3.434,4.942,5.941l1.197,3.393c.228.646-.398,1.267-1.043,1.035Z" fill="#c32944"/><circle cx="997.3" cy="4.083" r="2.649" fill="#fff"/><path d="M996.972 5.662l.293.293a1.35 1.35 0 0 0 1.908 0h0l-1.316 1.315c-.689.688-1.806.688-2.495 0l1.609-1.608z" fill="#6e7f95"/><g fill="#999fbd"><path d="M995.426 4.118a1.35 1.35 0 0 1 0-1.907h0c-.159.159.027-.027-.621.621-1.321 1.32-1.375 3.426-.164 4.81a.23.23 0 0 0 .333.006l1.993-1.991-1.541-1.539z"/><circle cx="996.716" cy="3.225" r=".807"/></g><circle cx="996.716" cy="3.225" r=".501" fill="#2b2220"/><g clip-path="url(#L)" class="V"><path d="M993.808 6.257l-1.227.086a1.83 1.83 0 0 1-1.952-1.696l-.086-1.226a1.83 1.83 0 0 1 1.697-1.951l4.771-.333s-1.673.969-1.577 2.151l.071 1.018a1.83 1.83 0 0 1-1.697 1.951z"/></g><path d="M934.72 173.531a41.36 41.36 0 0 0-29.246 12.114l-30.29 30.291a41.36 41.36 0 0 1-29.246 12.114h-46.781a41.36 41.36 0 0 0-29.246 12.114l-4.359 4.359a41.36 41.36 0 0 1-29.246 12.114h-57.734a41.36 41.36 0 0 1-29.246-12.114l-31.772-31.772a41.36 41.36 0 0 1-12.114-29.246v-47.806a41.36 41.36 0 0 1 12.114-29.246l18.38-18.38c7.376-7.377 11.67-17.253 12.074-27.638h-25.807a47.77 47.77 0 0 0-46.114 35.272l-37.036 136.874c-3.882 14.342-.856 29.672 8.184 41.47s23.061 18.719 37.931 18.719h244.215a47.8 47.8 0 0 0 33.78-13.981l103.937-103.852c-3.407-.904-6.959-1.406-10.603-1.406h-21.773z" class="P"/><path d="M982.252-47.988H868.953a47.8 47.8 0 0 0-33.78 13.977l-80.529 80.464c-8.961 8.953-21.113 13.981-33.78 13.981h-72.858c-.404 10.385-4.698 20.262-12.074 27.638l-18.38 18.38a41.36 41.36 0 0 0-12.114 29.246v47.806a41.36 41.36 0 0 0 12.114 29.246l31.772 31.772a41.36 41.36 0 0 0 29.246 12.114h57.734a41.36 41.36 0 0 0 29.246-12.114l4.359-4.359a41.36 41.36 0 0 1 29.246-12.114h46.781a41.36 41.36 0 0 0 29.246-12.114l30.29-30.291a41.36 41.36 0 0 1 29.246-12.114h21.773c3.644 0 7.196.502 10.603 1.406l48.937-48.893a47.72 47.72 0 0 0 13.993-33.752V-.259c0-26.358-21.388-47.729-47.773-47.729z" class="F"/><g stroke-width="15.375" class="C N O S"><path d="M648.007 60.435h0"/><path d="M644.665 75.194c-2.05 4.762-4.996 9.141-8.733 12.878l-18.38 18.38a41.36 41.36 0 0 0-12.114 29.246v47.806a41.36 41.36 0 0 0 12.114 29.246l31.772 31.772c7.757 7.756 18.277 12.114 29.246 12.114h57.734a41.36 41.36 0 0 0 29.246-12.114l4.359-4.36c7.757-7.756 18.277-12.114 29.246-12.114h46.781a41.36 41.36 0 0 0 29.246-12.114l30.29-30.291c7.757-7.756 18.277-12.114 29.246-12.114h21.773c1.046 0 2.085.042 3.115.122" stroke-dasharray="0 15.214"/><path d="M978.031 164.011l38.001-37.967a47.72 47.72 0 0 0 13.993-33.751V-.259c0-26.358-21.388-47.729-47.773-47.729H868.953a47.8 47.8 0 0 0-33.78 13.977l-80.529 80.464c-8.961 8.953-21.112 13.981-33.78 13.981h-65.133" stroke-dasharray="0 15.457"/></g><path d="M881.392 42.211c-1.565 0-3.027-.776-3.903-2.07s-1.057-2.94-.474-4.391L891.273.136a5.69 5.69 0 0 1 5.297-3.573h20.381a5.71 5.71 0 0 1 5.491 4.139l4.528 15.833 17.451 4.982a5.69 5.69 0 0 1 3.626 3.116l10.16 22.331c.662 1.459.54 3.154-.328 4.501s-2.361 2.161-3.966 2.161H919.13a8.65 8.65 0 0 1-6.114-2.53l-6.356-6.353a8.65 8.65 0 0 0-6.114-2.53h-19.152z" class="B Q"/><g clip-path="url(#M)" class="B"><path d="M912.553 36.505a5.71 5.71 0 1 0-11.422 0v17.119h11.422V36.505z" fill="#675d7e"/><path d="M960.978 6.02V-4.593a4.57 4.57 0 0 0-4.569-4.565h-11.911a4.57 4.57 0 0 1-4.569-4.565v-.02a4.57 4.57 0 0 0-4.569-4.565h-11.911a4.57 4.57 0 0 1-4.569-4.565v-4.034a4.57 4.57 0 0 0-4.569-4.565h-14.262a4.57 4.57 0 0 0-4.569 4.565v4.034a4.57 4.57 0 0 1-4.569 4.565H879a4.57 4.57 0 0 0-4.569 4.565V-.726a4.57 4.57 0 0 1-4.569 4.565h-11.911a4.57 4.57 0 0 0-4.569 4.565v35.898a4.57 4.57 0 0 0 4.569 4.565l11.906-.99a4.57 4.57 0 0 0 4.569-4.565l3.749-13.016c0-.616 1.068-.213 1.29-.749a4.57 4.57 0 0 1 4.226-2.826h6.02a8.12 8.12 0 0 0 8.121-8.114h0a5.05 5.05 0 0 1 5.053-5.049h2.924c3.423 0 6.198 2.773 6.198 6.193v1.106a8 8 0 0 0 8.002 7.995h13a4.57 4.57 0 0 1 4.569 4.565v1.307c0 4.323 3.507 7.827 7.834 7.827h7.88a4.57 4.57 0 0 1 4.068 2.485c.32.624 3.379 4.012 3.379 4.012 0 2.521.324 4.565 2.847 4.565h13.872a4.57 4.57 0 0 0 4.569-4.565V15.15a4.57 4.57 0 0 0-4.569-4.565h-11.911a4.57 4.57 0 0 1-4.569-4.565z" fill="#4ba582"/><path d="M923.359 3.637c-3.033-.866-6.193.887-7.061 3.918s.889 6.189 3.922 7.055l16.473 4.705 3.139-10.973-16.473-4.705z" class="W"/></g><path d="M976.799 7.095a2.79 2.79 0 0 0 2.308-1.224 2.78 2.78 0 0 0 .28-2.596l-8.429-21.056c-.513-1.281-1.751-2.112-3.132-2.112h-12.049c-1.508 0-2.832.998-3.247 2.447l-.668 2.614-5.227 2.945c-.952.272-1.734.942-2.144 1.842l-6.007 13.119c-.392.862-.319 1.865.194 2.661a2.79 2.79 0 0 0 2.345 1.278l35.775.083z" class="B Q"/><g clip-path="url(#N)" class="B"><path d="M929.746-14.301v-6.274a2.7 2.7 0 0 1 2.701-2.699h7.042a2.7 2.7 0 0 0 2.701-2.699v-.012a2.7 2.7 0 0 1 2.701-2.699h7.042a2.7 2.7 0 0 0 2.701-2.699v-2.385a2.7 2.7 0 0 1 2.701-2.699h8.432a2.7 2.7 0 0 1 2.701 2.699v2.385a2.7 2.7 0 0 0 2.701 2.699h7.042a2.7 2.7 0 0 1 2.701 2.699v7.695a2.7 2.7 0 0 0 2.701 2.699h7.042a2.7 2.7 0 0 1 2.701 2.699V8.332a2.7 2.7 0 0 1-2.701 2.699l-7.039-.585a2.7 2.7 0 0 1-2.701-2.699L978.699.052c0-.364-.632-.126-.762-.443-.405-.981-1.371-1.671-2.498-1.671h-3.559a4.8 4.8 0 0 1-4.801-4.797h0c0-1.649-1.338-2.985-2.988-2.985h-5.536c-2.024 0-3.665 1.639-3.665 3.661v.654a4.73 4.73 0 0 1-4.731 4.727h-8.206a2.7 2.7 0 0 0-2.603 1.976c-.064.23-3.42 1.496-3.42 1.496a4.63 4.63 0 0 1-4.632 4.628h2.991c-1.048 0-1.957.597-2.405 1.469-.189.369-1.998 2.372-1.998 2.372 0 1.491-.191 2.699-1.683 2.699h-8.201a2.7 2.7 0 0 1-2.701-2.699V-8.903a2.7 2.7 0 0 1 2.701-2.699h7.042a2.7 2.7 0 0 0 2.701-2.699z" fill="#4ba582"/></g><g fill="#409058"><use href="#l" class="K"/><use href="#m" class="K"/><path d="M844.528 69.4a2.54 2.54 0 0 0 2.54-2.538v-5.297a2.54 2.54 0 0 0-5.08 0v5.297a2.54 2.54 0 0 0 2.54 2.538zm-38.337 20.975a2.54 2.54 0 0 0 2.54-2.538V79.89a2.54 2.54 0 0 0-5.08 0v7.947a2.54 2.54 0 0 0 2.54 2.538z" class="K"/><use href="#n" class="K"/><path d="M815.912 90.375a2.54 2.54 0 0 0 2.54-2.538v-5.299a2.54 2.54 0 0 0-5.08 0v5.299a2.54 2.54 0 0 0 2.54 2.538zM796.361 46.44a2.54 2.54 0 0 0 2.54-2.538v-7.947a2.54 2.54 0 0 0-5.08 0v7.947a2.54 2.54 0 0 0 2.54 2.538zm-10.607 0a2.54 2.54 0 0 0 2.54-2.538v-5.299a2.54 2.54 0 0 0-5.08 0v5.299a2.54 2.54 0 0 0 2.54 2.538zm20.328 0a2.54 2.54 0 0 0 2.54-2.538v-5.299a2.54 2.54 0 0 0-5.08 0v5.299a2.54 2.54 0 0 0 2.54 2.538zm160.515 51.152a2.54 2.54 0 0 0 2.54-2.538v-7.947a2.54 2.54 0 0 0-5.08 0v7.947a2.54 2.54 0 0 0 2.54 2.538zm-10.606 0a2.54 2.54 0 0 0 2.54-2.538v-5.297a2.54 2.54 0 0 0-5.08 0v5.297a2.54 2.54 0 0 0 2.54 2.538zm20.328 0a2.54 2.54 0 0 0 2.54-2.538v-5.297a2.54 2.54 0 0 0-5.08 0v5.297a2.54 2.54 0 0 0 2.54 2.538zm-38.337 20.975a2.54 2.54 0 0 0 2.54-2.538v-7.947a2.54 2.54 0 0 0-5.08 0v7.947a2.54 2.54 0 0 0 2.54 2.538zm-10.605 0a2.54 2.54 0 0 0 2.54-2.538v-5.299a2.54 2.54 0 0 0-5.08 0v5.299a2.54 2.54 0 0 0 2.54 2.538zm20.326 0a2.54 2.54 0 0 0 2.54-2.538v-5.299a2.54 2.54 0 0 0-5.08 0v5.299a2.54 2.54 0 0 0 2.54 2.538z" class="K"/></g><g clip-path="url(#O)"><use href="#o" class="B R"/><path d="M779.599 140.478h87.322v4.827h-87.322z" fill="#a26831"/><path d="M818.409 142.933h9.702v12.104h-9.702z" fill="#6cb89e"/><path d="M818.409 140.478h9.702v2.454h-9.702z" fill="#4d9780"/><path d="M779.599 135.634h87.322v4.844h-87.322z" fill="#834d1b"/><use href="#p" class="R"/><use href="#q" fill="#3c3a7e"/><path d="M779.599 103.825h87.322v28.78h-87.322z" fill="#55529c"/><g fill="#4a488a"><path d="M779.599 122.002h87.322v3.029h-87.322zm0-11.108h87.322v3.029h-87.322z"/><use href="#r" style="mix-blend-mode:multiply" class="X"/><path style="mix-blend-mode:multiply" d="M811.132 103.825h4.548v28.78h-4.548zm19.708 0h4.548v28.78h-4.548zm19.708 0h4.548v28.78h-4.548z" class="X"/></g></g><path d="M758.648 153.47a23.28 23.28 0 0 0 6.826 16.467 23.32 23.32 0 0 0 16.484 6.82h23.444v-15.395c0-6.178-2.455-12.102-6.826-16.47a23.33 23.33 0 0 0-16.484-6.82h-23.444v15.398z" class="B L"/><g clip-path="url(#P)"><path d="M758.648 138.071l52.174 44.595h-52.174v-44.595z" class="B D"/><path d="M756.817 140.323l3.694-4.523 46.728 38.163-3.694 4.523z" class="G"/><path d="M805.402,149.02v-5.839h-17.536c-1.613,0-2.919,1.305-2.919,2.917v.006c0,1.612,1.306,2.917,2.919,2.917h17.536Z" class="B D"/></g><path d="M758.648 153.47a23.28 23.28 0 0 1-6.826 16.467 23.32 23.32 0 0 1-16.484 6.82h-23.444v-15.395c0-6.178 2.455-12.102 6.826-16.47a23.33 23.33 0 0 1 16.484-6.82h23.444v15.398z" class="B L"/><g clip-path="url(#Q)"><path d="M758.648 138.071l-52.175 44.595h52.175v-44.595z" class="B D"/><path d="M710.049 173.943l46.755-38.131 3.691 4.526-46.755 38.131z" class="G"/><path d="M711.894 149.02v-5.839h17.533c.774 0 1.52.309 2.066.855s.856 1.29.856 2.064a2.91 2.91 0 0 1-.856 2.064c-.546.549-1.292.855-2.066.855h-17.533z" class="B D"/></g><path d="M758.661 176.757l-14.003-10.196c-7.734-5.632-8.609-16.833-1.841-23.595l4.898-4.894h21.892l4.898 4.894c6.767 6.762 5.893 17.963-1.841 23.595l-14.003 10.196z" class="B G"/><g clip-path="url(#R)"><path d="M758.661 136.299h22.092v41.896h-22.092z" class="D"/><path d="M755.727 133.854h5.844v50.925h-5.844z" class="U"/></g><g clip-path="url(#S)"><path d="M739.746 138.343h-82.471v42.861a2.9 2.9 0 0 0 .849 2.048c.546.545 1.283.851 2.052.851h76.669a2.9 2.9 0 0 0 2.901-2.899v-42.861z" class="B R"/><path d="M654.849 140.478h87.322v4.827h-87.322z" fill="#a26831"/><path d="M693.659 142.933h9.702v12.104h-9.702z" fill="#6cb89e"/><path d="M693.659 140.478h9.702v2.454h-9.702z" fill="#4d9780"/><path d="M654.849 135.634h87.322v4.844h-87.322z" fill="#834d1b"/><path d="M654.849 115.751h87.322v19.884h-87.322z" class="R"/><path d="M654.849 132.605h87.322v3.029h-87.322z" fill="#3c3a7e"/><path d="M654.849 103.825h87.322v28.78h-87.322z" fill="#55529c"/><g fill="#4a488a"><path d="M654.849 122.002h87.322v3.029h-87.322zm0-11.108h87.322v3.029h-87.322z"/><path style="mix-blend-mode:multiply" d="M666.674 103.825h4.548v28.78h-4.548zm19.708 0h4.548v28.78h-4.548zm19.708 0h4.548v28.78h-4.548zm19.708 0h4.548v28.78h-4.548z" class="X"/></g></g><g class="B"><g fill="#f8d749"><use href="#s"/><use href="#t"/><path d="M740.959 79.323c-.827-.827-2.172-.827-3 0a2.12 2.12 0 0 0 0 2.997l6.001 5.996c.828.826 2.172.826 3 0a2.12 2.12 0 0 0 0-2.999l-6.001-5.994z"/><path d="M746.96 82.32a2.12 2.12 0 0 0 0-2.997c-.828-.827-2.172-.827-3 0l-6.001 5.994a2.12 2.12 0 0 0 0 2.999c.828.826 2.173.826 3 0l6.001-5.996zm18.373 2.8c-.827-.827-2.172-.827-3 0a2.12 2.12 0 0 0 0 2.997l6.001 5.996c.828.826 2.172.826 3 0a2.12 2.12 0 0 0 0-2.999l-6.001-5.994z"/><path d="M771.334 88.118a2.12 2.12 0 0 0 0-2.997c-.828-.827-2.172-.827-3 0l-6.001 5.994a2.12 2.12 0 0 0 0 2.999c.828.826 2.173.826 3 0l6.001-5.996z"/></g><g class="W"><path d="M917.588,148.889c0-2.303-1.868-4.17-4.174-4.17h-.004c-2.305,0-4.174,1.867-4.174,4.17v15.299h8.351v-15.299Z"/><path d="M909.237,148.889c0-2.303-1.87-4.17-4.174-4.17h-.005c-2.305,0-4.174,1.867-4.174,4.17v15.299h8.352v-15.299Z"/></g><path d="M1138.024,55.95c-17.819,0-32.316-14.485-32.316-32.291s14.497-32.289,32.316-32.289h16.272c17.821,0,32.318,14.485,32.318,32.289s-14.497,32.291-32.318,32.291h-16.272Z" class="J"/></g><rect x="1126.363" y="12.008" width="39.596" height="23.305" rx="11.652" class="F"/><path d="M162.118,160.152c-19.048,0-34.545-15.484-34.545-34.518s15.497-34.516,34.545-34.516h17.394c19.05,0,34.547,15.484,34.547,34.516s-15.497,34.518-34.547,34.518h-17.394Z" class="B J"/><rect x="149.652" y="113.179" width="42.327" height="24.912" rx="12.456" class="P"/><path d="M447.321,26.911c-19.048,0-34.545-15.484-34.545-34.518s15.497-34.516,34.545-34.516h17.394c19.05,0,34.547,15.484,34.547,34.516s-15.497,34.518-34.547,34.518h-17.394Z" class="B J"/><rect x="434.856" y="-20.062" width="42.327" height="24.912" rx="12.456" class="P"/><path d="M361.191-228.022l-41.742-41.739c-15.418-15.419-35.918-23.91-57.722-23.91h-51.432l-33.483-33.482c-15.639-15.64-36.508-24.151-58.662-23.904-19.947.223-39.295 7.813-54.023 21.266-17.168 15.682-26.674 37.302-26.667 60.385.008 21.811 8.509 42.312 23.937 57.729l19.076 19.062v94.411L37.599-55.37C11.577-29.359 7.762 11.479 28.504 41.883l.154.227c14.569 21.319 38.724 34.047 64.615 34.047h145.691c5.559 0 8.699 6.269 5.473 10.795-4.395 6.166-6.813 13.831-6.32 22.068 1.098 18.355 16.863 32.411 35.251 32.411h16.625c19.05 0 34.547-15.484 34.547-34.518 0-8.138-2.835-15.625-7.57-21.53-3.216-4.01-1.183-9.934 3.847-10.996 36.673-7.744 64.285-40.331 64.285-79.261v-165.424c0-21.806-8.491-42.306-23.909-57.725z" class="B J"/><path d="M121.735-193.265v95.707c-.005 10.539-4.199 20.648-11.657 28.102L66.769-26.187c-12.025 12.018-13.76 30.895-4.125 44.898l.081.118c6.887 10.079 18.342 16.067 30.549 16.067h210.763c21.981 0 39.803-17.803 39.803-39.77v-165.424a40.37 40.37 0 0 0-11.825-28.547l-41.741-41.741c-7.571-7.571-17.84-11.825-28.547-11.825h-51.801a40.37 40.37 0 0 1-28.547-11.825l-33.742-33.742c-15.766-15.766-41.328-15.766-57.095 0h0c-15.771 15.771-15.76 41.348.018 57.112l19.518 19.503c7.457 7.451 11.651 17.559 11.657 28.097z" class="F"/><path d="M121.735-193.265v95.707c-.005 10.54-4.199 20.647-11.657 28.103L66.769-26.186c-12.025 12.019-13.76 30.895-4.125 44.898l.081.118c6.887 10.079 18.342 16.067 30.549 16.067h210.763c21.981 0 39.803-17.804 39.803-39.77v-165.424c0-10.708-4.253-20.976-11.825-28.547l-41.741-41.741c-7.571-7.571-17.84-11.825-28.547-11.825h-51.801a40.37 40.37 0 0 1-28.547-11.825l-33.742-33.742c-15.766-15.766-41.328-15.766-57.095 0h0c-15.771 15.771-15.76 41.348.018 57.113l19.518 19.502c7.457 7.451 11.651 17.559 11.657 28.097z" stroke-dasharray="0 14.948" stroke-width="15.019" class="C N O S"/><rect x="260.133" y="94.458" width="42.327" height="24.912" rx="12.456" class="F"/><g class="C N"><path d="M323.3-5.249l-.724,4.336c-.038.23.003.466.116.67l2.011,3.599" stroke="#675d7e" class="O Y"/><path d="M315.936-.946l1.18,2.125c.092.166.136.354.127.543l-.157,2.658" stroke="#5d5276" class="Z a"/></g><rect x="317.006" y="-8.607" width="6.439" height="11.712" rx="3.22" transform="matrix(.397148 .917755 -.917755 .397148 190.522 -295.546)" class="Q"/><g class="C N"><g class="Z"><path d="M318.534-1.163l1.085,2.449c.061.137.09.286.087.435v2.921" stroke="#675d7e" class="a"/><g stroke="#9692a4" class="Y"><path d="M325.407-4.996l-.792,4.453c-.041.229-.003.465.108.669l2.337,4.31"/></g></g><path d="M315.799-2.936h0a9.27 9.27 0 0 0-3.04 6.009l-.009.092" stroke="#9692a4" stroke-width="1.526" class="O"/></g><g class="B"><path d="M195.988 22.092c-.552 0-1.079-.232-1.451-.639s-.557-.952-.508-1.501l7.392-82.781c.144-1.616 1.498-2.844 3.122-2.844h6.787c1.63 0 2.989 1.249 3.124 2.872l1.328 15.921h4.828c.884 0 1.69.495 2.085 1.285l2.183 4.362c.204.407.322.852.347 1.306l1.529 27.5 8.542 2.438a3.35 3.35 0 0 1 2.43 3.221v26.893c0 .521-.207 1.021-.576 1.39s-.869.576-1.391.576h-39.77z" fill="#9692a4"/><g class="Q"><path d="M224.019 10.282c0-1.73 1.403-3.132 3.135-3.132s3.135 1.402 3.135 3.132v11.81h-6.27v-11.81zM205.155-3.087c0-1.73 1.403-3.132 3.135-3.132s3.135 1.402 3.135 3.132v25.179h-6.27V-3.087z"/></g></g><g clip-path="url(#T)" class="B W"><path d="M189.071-60.965v-13.573a2.85 2.85 0 0 1 2.85-2.847h.523a2.85 2.85 0 0 0 2.85-2.847v-9.67a2.85 2.85 0 0 1 2.85-2.847h2.278a2.85 2.85 0 0 0 2.85-2.847v-6.133a2.85 2.85 0 0 1 2.85-2.847h7.144a2.85 2.85 0 0 1 2.85 2.847v31.457c0 1.526 1.237 2.763 2.764 2.763h.072c1.588 0 2.864-1.263 2.864-2.836v-9.338c0-1.573 1.276-2.835 2.85-2.835h7.144a2.85 2.85 0 0 1 2.85 2.847v6.945a2.85 2.85 0 0 0 2.85 2.847h1.445a2.85 2.85 0 0 1 2.85 2.847v71.67a2.85 2.85 0 0 1-2.85 2.847h-2.966a2.85 2.85 0 0 1-2.85-2.847v-6.945a2.85 2.85 0 0 0-2.85-2.847h-7.399a6.27 6.27 0 0 1-6.27-6.264v-14.295a2.85 2.85 0 0 0-2.85-2.847h-1.614a2.85 2.85 0 0 1-2.85-2.847v-6.97a2.85 2.85 0 0 0-2.85-2.847h.077a2.85 2.85 0 0 0-2.85 2.847v20.145a2.85 2.85 0 0 1-2.85 2.847h-1.065a2.85 2.85 0 0 0-2.85 2.847l-.837 9.67a2.85 2.85 0 0 1-2.85 2.847h-2.195a2.85 2.85 0 0 0-2.85 2.847v13.573a2.85 2.85 0 0 1-2.85 2.847h-1.312a2.85 2.85 0 0 1-2.85-2.847V-55.27a2.85 2.85 0 0 1 2.85-2.847h2.195a2.85 2.85 0 0 0 2.85-2.847z"/></g><g class="F"><rect x="229.436" y="16.992" width="5.688" height="10.18" rx="2.843" transform="matrix(-1 0 0 -1 464.561 44.165)"/><rect x="223.748" y="16.992" width="5.688" height="10.18" rx="2.843" transform="matrix(-1 0 0 -1 453.184 44.165)"/><rect x="196.048" y="16.992" width="5.688" height="10.18" rx="2.843" transform="matrix(-1 0 0 -1 397.784 44.165)"/><rect x="190.359" y="16.992" width="5.688" height="10.18" rx="2.843" transform="matrix(-1 0 0 -1 386.407 44.165)"/><rect x="207.425" y="16.992" width="5.688" height="10.18" rx="2.843" transform="matrix(-1 0 0 -1 420.538 44.165)"/><rect x="201.736" y="16.992" width="5.688" height="10.18" rx="2.843" transform="matrix(-1 0 0 -1 409.161 44.165)"/></g><g clip-path="url(#U)" class="B"><path d="M1285.639-296.372h96.432a43.67 43.67 0 0 1 30.87 12.776c8.185 8.178 12.787 19.274 12.787 30.84V-5.003a43.61 43.61 0 0 1-12.787 30.843 43.68 43.68 0 0 1-30.87 12.776h-72.664c-11.576 0-22.681-4.598-30.87-12.776a43.61 43.61 0 0 1-12.784-30.843v-39.284c0-11.442-4.5-22.426-12.529-30.582l-80.094-81.386c-8.028-8.155-12.529-19.14-12.529-30.582v-65.919c0-11.566 4.598-22.662 12.787-30.84a43.66 43.66 0 0 1 30.866-12.776h81.383z" class="P"/><path d="M1138.009-269.295l170.078 169.934a45.01 45.01 0 0 1 13.203 31.844v35.782c0 8.98 3.571 17.59 9.923 23.941a33.9 33.9 0 0 0 23.961 9.918h93.758l-19.637 41.619h-196.372l-85.094-116.831-9.819-196.206z" fill="#fcf5da"/></g><g class="B M"><path d="M520.653 55.243a4.57 4.57 0 0 0-3.23-1.337h-9.222a2.71 2.71 0 0 0-1.914.792l-1.192 1.191 1.192 1.191a2.71 2.71 0 0 0 1.914.792h9.301a4.57 4.57 0 0 0 3.23-1.337l.608-.607-.687-.686z"/><path d="M501.846 58.487l3.249-2.597-3.249-2.597c.994 1.589.994 3.605 0 5.194zm6.64 4.821h-9.222a2.71 2.71 0 0 0-1.914.792l-1.192 1.191 1.192 1.191a2.71 2.71 0 0 0 1.914.792h9.301a4.57 4.57 0 0 0 3.23-1.337l.608-.607-.687-.686a4.57 4.57 0 0 0-3.23-1.337z"/><path d="M492.909,67.889l3.249-2.597-3.249-2.597c.994,1.589.994,3.605,0,5.194Z"/><use href="#u"/><use href="#u"/></g><g clip-path="url(#V)" class="M"><circle cx="441.172" cy="111.348" r="1.6"/><circle cx="445.904" cy="116.147" r="1.2"/><circle cx="445.025" cy="109.542" r=".8"/><circle cx="442.302" cy="107.136" r="1.257"/><circle cx="452.308" cy="106.949" r=".8"/><circle cx="450.307" cy="106.149" r=".8"/><circle cx="448.305" cy="107.749" r=".8"/><circle cx="445.904" cy="106.949" r=".8"/><circle cx="444.703" cy="112.948" r="1.4"/><circle cx="441.901" cy="114.947" r="1.2"/><circle cx="447.505" cy="111.348" r="1.2"/><path d="M434.337 109.758h3.922v3.199h-3.922z"/></g><g class="B"><g class="M"><path d="M450.319 109.125c.043-.114-.005-.242-.112-.301s-.24-.03-.313.068l-1.851 2.466 1.851 2.466c.073.097.207.126.313.068s.154-.187.112-.3l-.42-1.12a3.17 3.17 0 0 1 0-2.226l.42-1.12zm-9.147 1.434a.8.8 0 0 1 .799.798.8.8 0 0 1-.799.798.8.8 0 0 1-.799-.798.8.8 0 0 1 .799-.798z"/><path d="M441.172 110.559a.8.8 0 0 0-.799.798.8.8 0 0 0 .799.798v-1.596z"/></g><path d="M686.355 14.045a5.36 5.36 0 0 1 5.361-5.357h12.303a5.36 5.36 0 0 1 5.361 5.357v.004a5.36 5.36 0 0 1-5.361 5.357h-12.303a5.36 5.36 0 0 1-5.361-5.357v-.004z" opacity=".073"/></g></g></svg>