<svg xmlns="http://www.w3.org/2000/svg" width="1500" height="145" xmlns:v="https://vecta.io/nano"><style><![CDATA[.B{fill-rule:evenodd}.C{fill:none}.D{fill:#408f43}.E{clip-rule:evenodd}.F{fill:#59c1bf}.G{stroke-linecap:round}.H{stroke-linejoin:round}.I{fill:#fff}.J{fill:#51b133}.K{fill:#357963}.L{fill:#61d1d5}.M{fill:#834d1b}.N{fill:#6f3711}.O{fill:#a26831}.P{fill:#6cb89e}.Q{fill:#4aa22e}.R{stroke:#50b06d}.S{fill:#a68fae}.T{fill:#50b06d}.U{fill:#dc8430}.V{stroke-width:2.731}]]></style><defs><clipPath id="A"><path d="M0 0h1500v145H0z" class="C"/></clipPath><clipPath id="B"><path d="M1326.278 23.405h81.176v79.198h-81.176z" class="C"/></clipPath><clipPath id="C"><path d="M1329.798 102.603c6.264 0 11.574-4.602 12.459-10.797l3.939-27.551h43.863l3.938 27.551c.886 6.195 6.196 10.797 12.46 10.797h21.269c13.626 0 24.673 11.037 24.673 24.652s-11.046 24.652-24.673 24.652h-71.598a111.33 111.33 0 0 1-64.169-20.352l-9.979-7.039v-21.913h47.816z" class="C E"/></clipPath><clipPath id="D"><path d="M1368.128,76.071c4.065,0,7.365,3.297,7.365,7.359s-3.3,7.359-7.365,7.359-7.364-3.297-7.364-7.359,3.3-7.359,7.364-7.359Z" class="C E"/></clipPath><clipPath id="E"><circle cx="1379.558" cy="36.78" r="3.489" transform="matrix(.999999 -.001187 .001187 .999999 -.042 1.627)" class="C"/></clipPath><clipPath id="F"><path d="M864.496-41.017h-82.471v77.221a2.9 2.9 0 0 0 .849 2.048c.546.545 1.283.851 2.052.851h76.669a2.9 2.9 0 0 0 2.901-2.899v-77.221z" class="C E"/></clipPath><clipPath id="G"><path d="M767.17 9.816h-17.13l-4.642 42.359a3.97 3.97 0 0 0 3.946 4.398h18.605a3.97 3.97 0 0 0 3.946-4.406L767.17 9.816z" class="C"/></clipPath><clipPath id="H"><path d="M758.648 8.47a23.28 23.28 0 0 0 6.826 16.467 23.32 23.32 0 0 0 16.484 6.82h23.444V16.362c0-6.178-2.455-12.102-6.826-16.47a23.33 23.33 0 0 0-16.484-6.82h-23.444V8.47z" class="C E"/></clipPath><clipPath id="I"><path d="M758.648 8.47a23.28 23.28 0 0 1-6.826 16.467 23.32 23.32 0 0 1-16.484 6.82h-23.444V16.362c0-6.178 2.455-12.102 6.826-16.47a23.33 23.33 0 0 1 16.484-6.82h23.444V8.47z" class="C E"/></clipPath><clipPath id="J"><path d="M758.661 31.757l-14.003-10.196c-7.734-5.632-8.609-16.833-1.841-23.595l4.898-4.894h21.892l4.898 4.894c6.767 6.762 5.893 17.963-1.841 23.595l-14.003 10.196z" class="C E"/></clipPath><clipPath id="K"><path d="M739.746-41.017h-82.471v77.221a2.9 2.9 0 0 0 .849 2.048c.546.545 1.283.851 2.052.851h76.669a2.9 2.9 0 0 0 2.901-2.899v-77.221z" class="C E"/></clipPath><clipPath id="L"><path d="M216.478,146.878h-14.045l-3.806,34.732c-.211,1.925,1.298,3.606,3.236,3.606h15.255c1.941,0,3.45-1.686,3.235-3.613l-3.874-34.725Z" class="C"/></clipPath><clipPath id="M"><path d="M209.489 145.775a19.09 19.09 0 0 0 5.597 13.502 19.12 19.12 0 0 0 13.516 5.592h19.223v-12.623a19.09 19.09 0 0 0-5.597-13.504 19.13 19.13 0 0 0-13.516-5.592h-19.223v12.626z" class="C E"/></clipPath><clipPath id="N"><path d="M209.489 145.775a19.09 19.09 0 0 1-5.597 13.502 19.12 19.12 0 0 1-13.516 5.592h-19.223v-12.623a19.09 19.09 0 0 1 5.597-13.504 19.13 19.13 0 0 1 13.516-5.592h19.223v12.626z" class="C E"/></clipPath><clipPath id="O"><path d="M209.5 164.869l-11.482-8.36c-6.342-4.618-7.059-13.802-1.51-19.346l4.016-4.013h17.95l4.016 4.013c5.549 5.544 4.832 14.729-1.51 19.346l-11.482 8.36z" class="C E"/></clipPath><clipPath id="P"><path d="M1272.303 74.257l7.19-7.453c.149-.157.384-.194.574-.091s.285.322.233.532l-2.092 8.347c-.145.58-.145 1.187 0 1.767l2.092 8.347c.053.21-.043.428-.233.532s-.425.067-.574-.091l-7.19-7.796-.413-2.013.413-2.081z" class="E F"/></clipPath><path id="Q" d="M1129.332 118.032l-1.685-1.684 1.685-1.684a3.83 3.83 0 0 1 2.706-1.12h13.038c1.712 0 3.355.68 4.566 1.889l.971.97-.859.858a6.46 6.46 0 0 1-4.566 1.89h-13.15a3.83 3.83 0 0 1-2.706-1.12z"/><path id="R" d="M1044.278 106.37h13.037a6.46 6.46 0 0 1 4.566 1.89l.971.97-.859.858a6.46 6.46 0 0 1-4.566 1.89h-13.149a3.83 3.83 0 0 1-2.706-1.12l-1.686-1.684 1.686-1.684a3.83 3.83 0 0 1 2.706-1.12z"/><path id="S" d="M1385.522,143.365c.574,0,1.039.465,1.039,1.039s-.465,1.039-1.039,1.039-1.039-.465-1.039-1.039.465-1.039,1.039-1.039Z"/><path id="T" d="M789.246 36.355h4.831v20.218h-4.831z"/><path id="U" d="M789.246 36.355h4.831v4.603h-4.831z"/><path id="V" d="M864.496-6.657h-82.471v42.861a2.9 2.9 0 0 0 .849 2.048c.546.545 1.283.851 2.052.851h76.669a2.9 2.9 0 0 0 2.901-2.899V-6.657z"/><path id="W" d="M779.599 34.275h87.322v4.827h-87.322z"/><path id="X" d="M791.727 17.29h14.554v14.541h-14.554z"/><path id="Y" d="M791.727 29.375h14.554v2.457h-14.554z"/><path id="Z" d="M758.661 40.435l-14.003-10.196c-7.734-5.632-8.609-16.833-1.841-23.595l4.898-4.894h21.892l4.898 4.894c6.767 6.762 5.893 17.963-1.841 23.595l-14.003 10.196z"/><path id="a" d="M737.928 14.403c-.951 0-1.887-.464-2.447-1.317-.887-1.35-.51-3.159.841-4.043l11.879-7.786a2.92 2.92 0 0 1 4.045.838c.887 1.35.51 3.159-.841 4.043l-11.879 7.786a2.9 2.9 0 0 1-1.598.479z"/><path id="b" d="M779.366 14.403a2.9 2.9 0 0 1-1.598-.479l-11.875-7.786c-1.351-.884-1.727-2.693-.841-4.043.883-1.344 2.682-1.73 4.045-.838l11.875 7.786c1.351.884 1.727 2.693.841 4.043a2.92 2.92 0 0 1-2.447 1.317z"/><path id="c" d="M209.5 171.985l-11.482-8.36c-6.342-4.618-7.059-13.802-1.51-19.346l4.016-4.013h17.95l4.016 4.013c5.549 5.544 4.832 14.729-1.51 19.346l-11.482 8.36z"/><path id="d" d="M1234.394,77.513c-.283,0-.512-.229-.512-.512v-2.233c0-.282.229-.512.512-.512s.512.229.512.512v2.233c0,.282-.229.512-.512.512Z"/><path id="e" d="M1272.303 74.257l7.19-7.453c.149-.157.384-.194.574-.091s.285.322.233.532l-2.092 8.347c-.145.58-.145 1.187 0 1.767l2.092 8.347c.053.21-.043.428-.233.532s-.425.067-.574-.091l-7.19-7.796-.413-2.013.413-2.081z"/><path id="f" d="M1227.855 79.175l-.689-.825h1.378l-.689.825z"/></defs><g clip-path="url(#A)"><path d="M-11.618-1975.128h1523.237V597.897H-11.618z" class="L"/><path d="M1682.204-129.405a88.54 88.54 0 0 0-68.363-32.124h-99.121v-146.584h-14.384c-22.663 0-41.036-18.372-41.036-41.036v-52.232c0-21.744-8.476-42.189-23.867-57.568s-35.854-23.846-57.619-23.846h-177.815c-21.766 0-42.229 8.469-57.61 23.841-15.396 15.375-23.874 35.822-23.874 57.574v65.918c0 21.49 8.307 41.761 23.383 57.079l16.139 16.399c15.866 16.122 15.691 42.042-.386 57.953-26.308 26.036-90.657 24.395-114.095 2.198-15.284-14.474-32.709-32.517-61.304-32.517H868.954c-23.811 0-46.2 9.264-63.051 26.093l-80.526 80.463c-1.197 1.195-2.819 1.867-4.51 1.867h-98.666c-40.185 0-75.581 27.072-86.076 65.841L499.091 76.78c-7.198 26.596-1.49 55.534 15.273 77.412s43.229 34.938 70.801 34.938h77.643c11.636 0 149.632 120.916 149.632 120.916 4.813 4.813 4.19 12.738-1.256 16.821-3.878 2.908-69.317 70.079-79.233 82.634-17.516 22.178-16.971 53.63 1.305 75.185 0 0 14.789 18.045 18.428 21.601 9.72 9.497 22.857 14.685 36.447 14.685h8.224c9.006 16.001 26.166 26.832 45.81 26.832h35.226c27.597 0 53.541-10.738 73.054-30.234l1.177-1.174c19.513-19.498 30.26-45.422 30.26-72.995v-1.928c0-6.15 4.985-11.135 11.135-11.135h147.779c12.525 0 22.672 10.173 22.648 22.698 0 23.724 9.236 46.024 26.011 62.801l14.396 14.395c16.772 16.772 39.073 26.01 62.794 26.01h124.272c23.552 0 46.139-9.356 62.793-26.01L1602.942 381c12.687-12.688 21.149-28.713 24.473-46.343l73.694-390.93c4.913-26.061-1.978-52.715-18.903-73.131z" fill="#74dddc"/><path d="M1613.841-64.246h-184.105a38.81 38.81 0 0 0-27.439 11.365l-70.229 70.229c-7.277 7.277-17.147 11.365-27.439 11.365h-76.817a38.81 38.81 0 0 0-27.439 11.365l-20.052 20.052c-7.277 7.277-11.365 17.147-11.365 27.439v3.655a38.81 38.81 0 0 0 11.365 27.439l63.144 63.144c7.277 7.277 11.365 17.147 11.365 27.439v12.1a38.81 38.81 0 0 0 11.365 27.439l30.533 30.533c7.277 7.277 11.365 17.147 11.365 27.439h0a38.81 38.81 0 0 1-11.365 27.439l-71.921 71.921c-7.277 7.277-11.365 17.147-11.365 27.439v19.487a38.81 38.81 0 0 0 11.365 27.439l14.396 14.396c7.277 7.277 17.147 11.365 27.439 11.365h124.271a38.81 38.81 0 0 0 27.439-11.365l149.232-149.232a38.81 38.81 0 0 0 10.694-20.25l73.695-343.647c4.504-23.891-13.82-45.992-38.132-45.992z" class="L"/><path d="M1023.664-126.27c7.242 14.853 4.255 32.66-7.445 44.343l-65.28 65.245c-15.153 15.124-39.675 15.124-54.829 0l-49.079-49.047c-7.272-7.259-11.365-17.111-11.365-27.381v-64.701c0-10.27 4.093-20.118 11.365-27.381a38.77 38.77 0 0 1 27.398-11.342h90.749a38.77 38.77 0 0 1 34.839 21.764l23.646 48.5z" stroke-dasharray="0 15.755" stroke-width="15.625" class="C G H R"/><g class="B"><path d="M725.659-23.919v-3.806c.703-.056,1.263-.629,1.263-1.345s-.559-1.289-1.263-1.345v-.127c0-.754-.613-1.366-1.368-1.366s-1.368.612-1.368,1.366v1.472h-3.788v-1.472c0-.754-.613-1.366-1.368-1.366s-1.368.612-1.368,1.366v.127c-.703.056-1.263.629-1.263,1.345s.559,1.289,1.263,1.345v3.806h-13.257c0,9.693,7.728,17.564,17.36,17.845V3.099c0,.29.236.526.526.526s.526-.236.526-.526V-6.074c9.633-.281,17.36-8.152,17.36-17.845h-13.257Z" class="F"/><g class="L"><path d="M1120.083 128.941l-1.686-1.684 1.686-1.684a3.83 3.83 0 0 1 2.706-1.12h13.037a6.46 6.46 0 0 1 4.566 1.89l.971.97-.859.858a6.46 6.46 0 0 1-4.566 1.89h-13.149a3.83 3.83 0 0 1-2.706-1.12z"/><path d="M1113.805 123.585l4.593 3.671-4.593 3.671c1.405-2.246 1.405-5.096 0-7.343zm-29.39 9.684h13.037c1.713 0 3.355.68 4.566 1.889l.971.97-.859.858a6.46 6.46 0 0 1-4.566 1.89h-13.149a3.83 3.83 0 0 1-2.706-1.12l-1.686-1.684 1.686-1.684a3.83 3.83 0 0 1 2.706-1.12z"/><path d="M1080.023,136.072l-4.593,3.671c1.405-2.246,1.405-5.096,0-7.343l4.593,3.671Z"/><use href="#Q"/><path d="M1123.054 112.677l4.593 3.671-4.593 3.671c1.405-2.246 1.405-5.096 0-7.343zm-74.829-27.52h-13.149a3.83 3.83 0 0 1-2.706-1.12l-1.685-1.684 1.685-1.684a3.83 3.83 0 0 1 2.706-1.12h13.038a6.46 6.46 0 0 1 4.565 1.89l.971.97-.859.858a6.46 6.46 0 0 1-4.566 1.89z"/><path d="M1026.092,78.682l4.593,3.671-4.593,3.671c1.405-2.246,1.405-5.096,0-7.343Z"/><use href="#R"/><path d="M1039.887 109.174l-4.593 3.671c1.405-2.246 1.405-5.096 0-7.343l4.593 3.671zm32.008-13.052l-.859.858a6.46 6.46 0 0 1-4.566 1.89h-13.15a3.83 3.83 0 0 1-2.706-1.12l-1.685-1.684 1.685-1.684a3.83 3.83 0 0 1 2.706-1.12h13.038a6.46 6.46 0 0 1 4.566 1.89l.971.97z"/><path d="M1044.337 92.394l4.593 3.671-4.593 3.671c1.405-2.246 1.405-5.096 0-7.343zm45.162-4.434h-13.149a3.83 3.83 0 0 1-2.706-1.12l-1.685-1.684 1.685-1.684a3.83 3.83 0 0 1 2.706-1.12h13.038a6.46 6.46 0 0 1 4.566 1.89l.971.97-.859.858a6.46 6.46 0 0 1-4.566 1.89z"/><path d="M1067.366 81.485l4.593 3.671-4.593 3.671c1.405-2.246 1.405-5.096 0-7.343zm20.845 27.92h13.037a6.46 6.46 0 0 1 4.566 1.89l.971.97-.859.858a6.46 6.46 0 0 1-4.566 1.89h-13.149a3.83 3.83 0 0 1-2.706-1.12l-1.686-1.684 1.686-1.684a3.83 3.83 0 0 1 2.706-1.12z"/><path d="M1083.819 112.209l-4.593 3.671c1.405-2.246 1.405-5.096 0-7.343l4.593 3.671zm13.973 32.327l4.593 3.671-4.593 3.671c1.405-2.246 1.405-5.096 0-7.343zm-26.973-23.148h13.038a6.46 6.46 0 0 1 4.565 1.89l.971.97-.859.858a6.46 6.46 0 0 1-4.566 1.89h-13.149a3.83 3.83 0 0 1-2.706-1.12l-1.686-1.684 1.686-1.684a3.83 3.83 0 0 1 2.706-1.12z"/><path d="M1066.427 124.191l-4.593 3.671c1.405-2.246 1.405-5.096 0-7.343l4.593 3.671zm-34.293-28.878l.971.97-.859.858a6.46 6.46 0 0 1-4.566 1.89h-13.149a3.83 3.83 0 0 1-2.706-1.12l-1.686-1.684 1.686-1.684a3.83 3.83 0 0 1 2.706-1.12h13.037a6.46 6.46 0 0 1 4.566 1.89z"/><path d="M1005.547 92.556l4.593 3.671-4.593 3.671c1.405-2.246 1.405-5.096 0-7.343zm9.196 14.74l.971.97-.859.858a6.46 6.46 0 0 1-4.566 1.89H997.14a3.83 3.83 0 0 1-2.706-1.12l-1.685-1.684 1.685-1.684a3.83 3.83 0 0 1 2.706-1.12h13.038c1.712 0 3.354.68 4.566 1.89z"/><path d="M988.155 104.539l4.593 3.671-4.593 3.671c1.405-2.246 1.405-5.096 0-7.343zm-39.404 3.472a6.46 6.46 0 0 1-4.566 1.89h-13.15a3.83 3.83 0 0 1-2.706-1.12l-1.685-1.684 1.685-1.684a3.83 3.83 0 0 1 2.706-1.12h13.038c1.712 0 3.354.68 4.566 1.89l.971.97-.859.858z"/><path d="M922.051 103.426l4.593 3.671-4.593 3.671c1.405-2.246 1.405-5.096 0-7.343zm17.58 26.121l-1.685-1.684 1.685-1.684a3.83 3.83 0 0 1 2.706-1.12h13.038c1.712 0 3.354.68 4.566 1.89l.971.97-.859.858a6.46 6.46 0 0 1-4.565 1.89h-13.15a3.83 3.83 0 0 1-2.706-1.12z"/><path d="M933.352 124.191l4.593 3.671-4.593 3.671c1.405-2.246 1.405-5.096 0-7.343zm-3.649 14.159h13.038a6.46 6.46 0 0 1 4.566 1.89l.971.97-.859.858a6.46 6.46 0 0 1-4.566 1.89h-13.15c-1.015 0-1.988-.403-2.705-1.12l-1.686-1.684 1.686-1.684c.717-.717 1.691-1.12 2.705-1.12z"/><path d="M920.719 137.483l4.593 3.671-4.593 3.671c1.405-2.246 1.405-5.096 0-7.343zm103.068-2.792l-1.685-1.684 1.685-1.684a3.83 3.83 0 0 1 2.706-1.12h13.038c1.712 0 3.355.68 4.566 1.889l.971.97-.859.858a6.46 6.46 0 0 1-4.566 1.89h-13.15a3.83 3.83 0 0 1-2.706-1.12z"/><path d="M1017.509 129.336l4.593 3.671-4.593 3.671c1.405-2.246 1.405-5.096 0-7.343zm-22.473-10.025h13.038a6.46 6.46 0 0 1 4.566 1.89l.971.97-.859.858a6.46 6.46 0 0 1-4.566 1.89h-13.15a3.83 3.83 0 0 1-2.706-1.12l-1.685-1.684 1.685-1.684a3.83 3.83 0 0 1 2.706-1.12z"/><path d="M990.645 122.115l-4.593 3.671c1.405-2.246 1.405-5.096 0-7.343l4.593 3.671zm58.21 20.224h13.038c1.712 0 3.354.68 4.566 1.89l.971.97-.859.858a6.46 6.46 0 0 1-4.565 1.89h-13.15a3.83 3.83 0 0 1-2.706-1.12l-1.686-1.684 1.686-1.684a3.83 3.83 0 0 1 2.706-1.12z"/><path d="M1044.464 145.142l-4.593 3.671c1.405-2.246 1.405-5.096 0-7.343l4.593 3.671zm77.695-42.198h-13.15a3.83 3.83 0 0 1-2.706-1.12l-1.685-1.684 1.685-1.684a3.83 3.83 0 0 1 2.706-1.12h13.038c1.713 0 3.355.68 4.566 1.889l.971.97-.859.858a6.46 6.46 0 0 1-4.566 1.89z"/><path d="M1100.025,96.469l4.593,3.671-4.593,3.671c1.405-2.246,1.405-5.096,0-7.343Z"/></g></g><g clip-path="url(#B)"><path d="M1329.798 102.603c6.264 0 11.574-4.602 12.459-10.797l3.939-27.551h43.863l3.938 27.551c.886 6.195 6.196 10.797 12.46 10.797h21.269c13.626 0 24.673 11.037 24.673 24.652s-11.046 24.652-24.673 24.652h-71.598a111.33 111.33 0 0 1-64.169-20.352l-9.979-7.039v-21.913h47.816z" fill="#dad1dd" class="B"/><g clip-path="url(#C)"><path d="M1275.471 125.543h181.179v26.964h-181.179z" class="S"/><g fill="#8c7692" class="B"><use href="#S"/><path d="M1399.232 143.365a1.04 1.04 0 0 1 1.039 1.039 1.04 1.04 0 0 1-1.039 1.039 1.04 1.04 0 0 1-1.039-1.039 1.04 1.04 0 0 1 1.039-1.039zm13.71 0a1.04 1.04 0 0 1 1.04 1.039 1.04 1.04 0 0 1-1.04 1.039 1.04 1.04 0 0 1-1.039-1.039 1.04 1.04 0 0 1 1.039-1.039zm13.71 0a1.04 1.04 0 0 1 1.04 1.039 1.04 1.04 0 0 1-1.04 1.039 1.04 1.04 0 0 1-1.039-1.039 1.04 1.04 0 0 1 1.039-1.039zm13.711 0a1.04 1.04 0 0 1 1.039 1.039 1.04 1.04 0 0 1-1.039 1.039 1.04 1.04 0 0 1-1.04-1.039 1.04 1.04 0 0 1 1.04-1.039z"/></g><path d="M1429.88,112.505c.756,0,1.371.614,1.371,1.369s-.615,1.37-1.371,1.37-1.371-.614-1.371-1.37.614-1.369,1.371-1.369Z" fill="#9882a0" class="B"/><g class="C G H"><g stroke="#9882a0"><path d="M1423.259 81.867v18.386c0 5.294 2.105 10.371 5.852 14.115s8.828 5.847 14.126 5.847h18.402" class="V"/><path d="M1453.597 125.543h-172.785" stroke-width="4.552"/></g><g class="V"><g stroke="#8c7692"><path d="M1378.097 156.701h0c0-4.704 1.87-9.214 5.198-12.539s7.842-5.194 12.549-5.194h57.359m-95.031 17.733h0c0-4.704-1.87-9.214-5.198-12.539s-7.842-5.194-12.549-5.194h-57.36"/></g><path d="M1340.002 84.663h71.277" stroke="#6f5675"/></g></g></g><g class="B"><path d="M1368.128,73.021c5.75,0,10.418,4.664,10.418,10.409s-4.668,10.409-10.418,10.409-10.417-4.664-10.417-10.409,4.668-10.409,10.417-10.409Z" class="I"/><path d="M1368.128,76.071c4.065,0,7.365,3.297,7.365,7.359s-3.3,7.359-7.365,7.359-7.364-3.297-7.364-7.359,3.3-7.359,7.364-7.359Z" fill="#27032a"/></g><g clip-path="url(#D)"><path d="M1357.582 72.524l9.452-9.445 21.369 21.385-9.452 9.445z" fill="#551851"/></g><g class="S"><path d="M1345.644 58.777h44.965a2.74 2.74 0 0 1 2.74 2.74h0a2.74 2.74 0 0 1-2.737 2.739h-44.967a2.74 2.74 0 0 1-2.737-2.737v-.003a2.74 2.74 0 0 1 2.738-2.738z"/><rect x="1332.489" y="97.125" width="71.278" height="5.478" rx="2.737"/></g><g fill="#6f5675"><path d="M1378.546 58.776a2.74 2.74 0 0 0-2.74-2.737h-15.356a2.74 2.74 0 0 0-2.74 2.737h0 20.835 0z" class="B"/><rect x="1361.549" y="41.711" width="13.159" height="2.738" rx="1.369"/></g><g fill="#dad1dd"><path d="M1363.194 44.45h9.869v11.588h-9.869z"/><g class="B"><path d="M1379.254 31.85h-6.192c-5.45 0-9.868 4.415-9.868 9.86v.002h16.06V31.85z"/></g></g><path d="M1379.558,31.85c2.723,0,4.935,2.21,4.935,4.931s-2.212,4.931-4.935,4.931-4.934-2.21-4.934-4.931,2.211-4.931,4.934-4.931Z" class="B I"/><circle cx="1379.558" cy="36.78" r="3.489" transform="matrix(.999999 -.001187 .001187 .999999 -.042 1.627)" fill="#551851"/><g clip-path="url(#E)"><path d="M1375.092 31.187l4.478-4.474 10.122 10.13-4.478 4.474z" fill="#623160"/></g><circle cx="1384.324" cy="79.868" r="1.37" class="S"/><circle cx="1350.857" cy="79.868" r="1.37" fill="#9882a0"/></g><path d="M1411.843 102.611l-2.062-.846a13.75 13.75 0 0 0-8.075-.73l-4.322.916a13.75 13.75 0 0 1-6.125-.096l-5.85-1.432c-2.429-.595-4.975-.516-7.363.228l-1.841.574c-2.886.899-5.989.822-8.827-.219h0a13.76 13.76 0 0 0-8.258-.383l-3.481.922a13.75 13.75 0 0 1-7.907-.259l-1.493-.502c-2.466-.829-5.116-.943-7.644-.326l-8.798 2.145-7.338-.318 9.886 8.477 73.183-.59 7.082-2.506-.768-5.054z" class="B L"/><path d="M934.72 28.531a41.36 41.36 0 0 0-29.246 12.114l-30.29 30.291a41.36 41.36 0 0 1-29.246 12.114h-46.781a41.36 41.36 0 0 0-29.246 12.114l-4.359 4.359a41.36 41.36 0 0 1-29.246 12.114h-57.734a41.36 41.36 0 0 1-29.246-12.114l-31.772-31.772a41.36 41.36 0 0 1-12.114-29.246V-9.301a41.36 41.36 0 0 1 12.114-29.246l18.38-18.38c7.376-7.377 11.67-17.253 12.074-27.638h-25.807a47.77 47.77 0 0 0-46.114 35.272L539.051 87.581c-3.882 14.342-.856 29.672 8.184 41.47s23.061 18.719 37.931 18.719h244.215a47.8 47.8 0 0 0 33.78-13.981L967.098 29.937c-3.407-.904-6.959-1.406-10.603-1.406h-21.773z" fill="#fcf4c7"/><path d="M982.252-192.988H868.953a47.8 47.8 0 0 0-33.78 13.977l-80.529 80.464c-8.961 8.953-21.113 13.981-33.78 13.981h-72.858c-.404 10.385-4.698 20.262-12.074 27.638l-18.38 18.38a41.36 41.36 0 0 0-12.114 29.246v47.806a41.36 41.36 0 0 0 12.114 29.246l31.772 31.772a41.36 41.36 0 0 0 29.246 12.114h57.734a41.36 41.36 0 0 0 29.246-12.114l4.359-4.359a41.36 41.36 0 0 1 29.246-12.114h46.781a41.36 41.36 0 0 0 29.246-12.114l30.29-30.291a41.36 41.36 0 0 1 29.246-12.114h21.773c3.644 0 7.196.502 10.603 1.406l48.937-48.893a47.72 47.72 0 0 0 13.993-33.752v-92.552c0-26.358-21.388-47.729-47.773-47.729z" class="T"/><g stroke-width="15.375" class="C G H R"><path d="M644.665-69.806c-2.05 4.762-4.996 9.141-8.733 12.878l-18.38 18.38a41.36 41.36 0 0 0-12.114 29.246v47.806a41.36 41.36 0 0 0 12.114 29.246l31.772 31.772c7.757 7.756 18.277 12.114 29.246 12.114h57.734a41.36 41.36 0 0 0 29.246-12.114l4.359-4.36c7.757-7.756 18.277-12.114 29.246-12.114h46.781a41.36 41.36 0 0 0 29.246-12.114l30.29-30.291c7.757-7.756 18.277-12.114 29.246-12.114h21.773c1.046 0 2.085.042 3.115.122" stroke-dasharray="0 15.214"/><path d="M967.096 29.937h0"/><path d="M978.031 19.011l38.001-37.967a47.72 47.72 0 0 0 13.993-33.751v-92.552c0-26.358-21.388-47.729-47.773-47.729H868.953a47.8 47.8 0 0 0-33.78 13.977l-80.529 80.464c-8.961 8.953-21.112 13.981-33.78 13.981h-65.133" stroke-dasharray="0 15.457"/></g><g class="M"><use href="#T"/><path d="M806.284 36.355h4.831v20.218h-4.831zm29.151 0h4.831v20.218h-4.831zm17.039 0h4.831v20.218h-4.831z"/></g><g class="N"><use href="#U"/><path d="M806.284 36.355h4.831v4.603h-4.831zm29.151 0h4.831v4.603h-4.831zm17.039 0h4.831v4.603h-4.831zm-63.228 10.672h4.831v4.603h-4.831zm17.038 0h4.831v4.603h-4.831zm29.151 0h4.831v4.603h-4.831zm17.039 0h4.831v4.603h-4.831z"/></g><path d="M786.189 46.299h74.143v3.029h-74.143z" class="O"/><g clip-path="url(#F)"><use href="#V" fill="#b08153" class="B"/><g class="O"><use href="#W"/><path d="M779.599 24.561h87.322v4.827h-87.322zm0-9.718h87.322v4.827h-87.322zm0-9.714h87.322v4.827h-87.322zm0-9.651h87.322V.305h-87.322z"/></g><path d="M815.983 19.714h14.554v19.389h-14.554z" class="M"/><path d="M815.983 19.714h14.554v4.847h-14.554z" class="N"/><g class="P"><path d="M840.24 17.29h14.554v14.541H840.24z"/><use href="#X"/></g><g class="I"><use href="#Y"/><path d="M840.24 29.375h14.554v2.457H840.24z"/></g><g fill="#4d9780"><path d="M840.24 17.257h14.554v2.457H840.24zm-48.513 0h14.554v2.457h-14.554z"/></g><path d="M818.409-2.067h9.702v12.104h-9.702z" class="P"/><path d="M818.409 7.551h9.702v2.454h-9.702z" class="I"/></g><path d="M767.17 9.816h-17.13l-4.642 42.359a3.97 3.97 0 0 0 3.946 4.398h18.605a3.97 3.97 0 0 0 3.946-4.406L767.17 9.816z" fill="#b38150"/><path d="M778.736 47.814a5.8 5.8 0 0 0-5.784 5.779 5.8 5.8 0 0 0-5.784-5.779 5.8 5.8 0 0 0-5.784 5.779 5.8 5.8 0 0 0-5.784-5.779 5.8 5.8 0 0 0-5.784 5.779 5.8 5.8 0 0 0-5.784-5.779 5.8 5.8 0 0 0-5.784 5.779l5.228 4.572 13.449 1.441 19.277-.952 8.316-5.06a5.8 5.8 0 0 0-5.784-5.779z" class="B T"/><g clip-path="url(#G)" class="B"><use href="#Z" style="mix-blend-mode:multiply" fill="#6a6863" opacity=".25"/></g><path d="M758.648 8.47a23.28 23.28 0 0 0 6.826 16.467 23.32 23.32 0 0 0 16.484 6.82h23.444V16.362c0-6.178-2.455-12.102-6.826-16.47a23.33 23.33 0 0 0-16.484-6.82h-23.444V8.47z" class="B Q"/><g clip-path="url(#H)"><path d="M758.648-6.929l52.174 44.595h-52.174V-6.929z" class="B D"/><path d="M756.818-4.678l3.694-4.523 46.728 38.163-3.694 4.523z" class="J"/><g class="B"><g class="K"><path d="M785.921 34.279h-5.844v-9.822c0-1.612 1.309-2.92 2.922-2.92s2.922 1.308 2.922 2.92v9.822zm-11.689.433h-5.844V15.331c0-1.612 1.306-2.917 2.919-2.917h.006c1.613 0 2.919 1.305 2.919 2.917v19.381z"/></g><g class="D"><path d="M805.402 15.389v-5.53h-8.921a2.77 2.77 0 0 0-1.958.812c-.517.517-.809 1.22-.809 1.953h0a2.77 2.77 0 0 0 .809 1.956c.52.52 1.224.809 1.958.809h8.921zm0-11.369v-5.839h-17.536c-1.613 0-2.919 1.305-2.919 2.917v.006c0 1.612 1.306 2.917 2.919 2.917h17.536z"/></g></g></g><path d="M758.648 8.47a23.28 23.28 0 0 1-6.826 16.467 23.32 23.32 0 0 1-16.484 6.82h-23.444V16.362c0-6.178 2.455-12.102 6.826-16.47a23.33 23.33 0 0 1 16.484-6.82h23.444V8.47z" class="B Q"/><g clip-path="url(#I)"><path d="M758.648-6.929l-52.175 44.595h52.175V-6.929z" class="B D"/><path d="M710.05 28.943l46.755-38.131 3.691 4.526-46.755 38.131z" class="J"/><g class="B"><g class="K"><path d="M731.374 34.279h5.844v-9.822c0-1.612-1.309-2.92-2.922-2.92s-2.922 1.308-2.922 2.92v9.822zm11.689.433h5.844V15.334c0-.774-.307-1.515-.856-2.064a2.92 2.92 0 0 0-2.066-.855c-.774 0-1.52.309-2.066.855s-.856 1.29-.856 2.064v19.378z"/></g><g class="D"><path d="M711.894 15.699V9.86h8.769a2.91 2.91 0 0 1 2.063.855c.549.546.856 1.288.856 2.061v.006c0 .774-.307 1.515-.856 2.064a2.92 2.92 0 0 1-2.063.853h-8.769zm0-11.679v-5.839h17.533c.774 0 1.52.309 2.066.855s.856 1.29.856 2.064a2.91 2.91 0 0 1-.856 2.064c-.546.549-1.292.855-2.066.855h-17.533z"/></g></g></g><path d="M758.661 31.757l-14.003-10.196c-7.734-5.632-8.609-16.833-1.841-23.595l4.898-4.894h21.892l4.898 4.894c6.767 6.762 5.893 17.963-1.841 23.595l-14.003 10.196z" class="B J"/><g clip-path="url(#J)"><path d="M758.661-8.701h22.092v41.896h-22.092z" class="D"/><path d="M755.727-11.146h5.844v50.925h-5.844z" fill="#5ebe3e"/><use href="#a" class="D"/><use href="#b" class="K"/><path d="M737.928 27.716c-.951 0-1.887-.464-2.447-1.317-.887-1.35-.51-3.159.841-4.043l11.879-7.786a2.92 2.92 0 0 1 4.045.838c.887 1.35.51 3.159-.841 4.043l-11.879 7.786a2.9 2.9 0 0 1-1.598.479z" class="D"/><path d="M779.366 27.716a2.9 2.9 0 0 1-1.598-.479l-11.875-7.786c-1.351-.884-1.727-2.693-.841-4.043.883-1.344 2.682-1.73 4.045-.838l11.875 7.786c1.351.884 1.727 2.693.841 4.043a2.92 2.92 0 0 1-2.447 1.317z" class="K"/></g><g class="M"><path d="M664.496 36.355h4.831v20.218h-4.831zm17.038 0h4.831v20.218h-4.831zm29.151 0h4.831v20.218h-4.831zm17.039 0h4.831v20.218h-4.831z"/></g><g class="N"><path d="M664.496 36.355h4.831v4.603h-4.831zm17.038 0h4.831v4.603h-4.831zm29.151 0h4.831v4.603h-4.831zm17.039 0h4.831v4.603h-4.831zm-63.228 10.672h4.831v4.603h-4.831zm17.038 0h4.831v4.603h-4.831zm29.151 0h4.831v4.603h-4.831zm17.039 0h4.831v4.603h-4.831z"/></g><path d="M661.439 46.299h74.143v3.029h-74.143z" class="O"/><g clip-path="url(#K)"><path d="M739.746-6.657h-82.471v42.861a2.9 2.9 0 0 0 .849 2.048c.546.545 1.283.851 2.052.851h76.669a2.9 2.9 0 0 0 2.901-2.899V-6.657z" fill="#b08153" class="B"/><g class="O"><path d="M654.849 34.275h87.322v4.827h-87.322zm0-9.714h87.322v4.827h-87.322zm0-9.718h87.322v4.827h-87.322zm0-9.714h87.322v4.827h-87.322zm0-9.651h87.322V.305h-87.322z"/></g><path d="M691.233 19.714h14.554v19.389h-14.554z" class="M"/><path d="M691.233 19.714h14.554v4.847h-14.554z" class="N"/><g class="P"><path d="M715.489 17.29h14.554v14.541h-14.554zm-48.512 0h14.554v14.541h-14.554z"/></g><g class="I"><path d="M666.977 29.375h14.554v2.457h-14.554zm48.512 0h14.554v2.457h-14.554z"/></g><g fill="#4d9780"><path d="M715.489 17.257h14.554v2.457h-14.554zm-48.512 0h14.554v2.457h-14.554z"/></g><path d="M693.659-2.067h9.702v12.104h-9.702z" class="P"/><path d="M693.659 7.551h9.702v2.454h-9.702z" class="I"/></g><g class="B"><g fill="#41927e"><path d="M900.885 9.45c0-1.105-.44-2.166-1.222-2.949a4.18 4.18 0 0 0-2.951-1.221h-.003c-1.108 0-2.17.44-2.951 1.221s-1.222 1.844-1.222 2.949v4.459a5.28 5.28 0 0 0 1.546 3.734 5.29 5.29 0 0 0 3.737 1.545h3.068V9.451zm16.703-5.561c0-2.303-1.868-4.17-4.174-4.17h-.004c-2.305 0-4.174 1.867-4.174 4.17v15.299h8.351V3.889z"/><path d="M909.237 3.889c0-2.303-1.87-4.17-4.174-4.17h-.005c-2.305 0-4.174 1.867-4.174 4.17v15.299h8.352V3.889zM925.94 9.45a4.17 4.17 0 0 0-1.224-2.949c-.782-.781-1.844-1.221-2.95-1.221h-.005a4.18 4.18 0 0 0-2.951 1.221c-.782.783-1.222 1.844-1.222 2.949v9.737h3.069a5.29 5.29 0 0 0 3.735-1.545c.99-.991 1.548-2.333 1.548-3.734V9.449z"/></g><g fill="#c32944"><path d="M637.736 32.067l1.818-1.816a2.57 2.57 0 0 0 0-3.632c-1.003-1.003-2.631-1.003-3.635 0l-1.818 1.816-1.818-1.816c-1.002-1.003-2.631-1.003-3.635 0a2.57 2.57 0 0 0 0 3.632l1.818 1.816-1.818 1.816a2.57 2.57 0 0 0 0 3.634c1.004 1.001 2.633 1.001 3.635 0l1.818-1.817 1.818 1.817c1.004 1.001 2.631 1.001 3.635 0a2.57 2.57 0 0 0 0-3.634l-1.818-1.816zm14.229 18.013a2.57 2.57 0 0 0-3.635 0l-1.818 1.816-1.818-1.816c-1.002-1.003-2.631-1.003-3.635 0s-1.004 2.629 0 3.632l1.818 1.816-1.818 1.816a2.57 2.57 0 0 0 0 3.634c1.003 1.001 2.633 1.001 3.635 0l1.818-1.817 1.818 1.817c1.003 1.001 2.631 1.001 3.635 0a2.57 2.57 0 0 0 0-3.634l-1.818-1.816 1.818-1.816c1.004-1.003 1.004-2.631 0-3.632z"/></g><g fill="#74dddc"><path d="M162.118 15.152c-19.048 0-34.545-15.484-34.545-34.518s15.497-34.516 34.545-34.516h17.394c19.05 0 34.547 15.484 34.547 34.516s-15.497 34.518-34.547 34.518h-17.394zm-24.12 281.06c-26.388 0-50.909-15.316-62.471-39.021l-21.101-43.278c-12.99-26.65-7.624-58.605 13.341-79.538l3.534-3.531 54.716-54.689c13.16-13.134 30.609-20.353 49.163-20.353a69.1 69.1 0 0 1 49.134 20.322l43.833 43.806c13.123 13.096 20.36 30.537 20.36 49.091v57.757c0 18.545-7.235 35.982-20.373 49.102-13.135 13.113-30.58 20.332-49.127 20.332H138z"/></g><path d="M85.791 198.621a34.54 34.54 0 0 1 6.645-39.583l58.273-58.242c13.526-13.5 35.416-13.5 48.943 0l43.81 43.782c6.491 6.48 10.145 15.274 10.145 24.442v57.756a34.55 34.55 0 0 1-10.145 24.442c-6.492 6.48-15.278 10.124-24.457 10.124h-81.008c-13.225 0-25.302-7.542-31.099-19.428L85.79 198.62z" class="T"/></g><path d="M85.791 198.622a34.54 34.54 0 0 1 6.645-39.583l58.273-58.242c13.526-13.5 35.416-13.5 48.943 0l43.81 43.782c6.491 6.48 10.145 15.274 10.145 24.442v57.756a34.55 34.55 0 0 1-10.145 24.442c-6.492 6.48-15.278 10.124-24.457 10.124h-81.008c-13.225 0-25.302-7.542-31.099-19.428L85.79 198.622z" stroke-dasharray="0 14.434" stroke-width="14.581" class="C G H R"/><g clip-path="url(#L)" class="B"><use href="#c" style="mix-blend-mode:multiply" fill="#6a6863" opacity=".25"/></g><path d="M209.489 145.775a19.09 19.09 0 0 0 5.597 13.502 19.12 19.12 0 0 0 13.516 5.592h19.223v-12.623a19.09 19.09 0 0 0-5.597-13.504 19.13 19.13 0 0 0-13.516-5.592h-19.223v12.626z" class="B Q"/><g clip-path="url(#M)"><path d="M209.489 133.149l42.78 36.565h-42.78v-36.565z" class="B D"/><path d="M207.986 134.993l3.029-3.709 38.314 31.292-3.029 3.709z" class="J"/><path d="M247.825,142.126v-4.788h-14.378c-1.323,0-2.394,1.07-2.394,2.392v.005c0,1.321,1.071,2.392,2.394,2.392h14.378Z" class="B D"/></g><path d="M209.489 145.775a19.09 19.09 0 0 1-5.597 13.502 19.12 19.12 0 0 1-13.516 5.592h-19.223v-12.623a19.09 19.09 0 0 1 5.597-13.504 19.13 19.13 0 0 1 13.516-5.592h19.223v12.626z" class="B Q"/><g clip-path="url(#N)"><path d="M209.489 133.149l-42.779 36.565h42.779v-36.565z" class="B D"/><path d="M169.64 162.561l38.336-31.265 3.027 3.711-38.336 31.265z" class="J"/><path d="M171.154 142.126v-4.788h14.376c.635 0 1.246.254 1.694.701s.702 1.058.702 1.693a2.39 2.39 0 0 1-2.396 2.394h-14.376z" class="B D"/></g><path d="M209.5 164.869l-11.482-8.36c-6.342-4.618-7.059-13.802-1.51-19.346l4.016-4.013h17.95l4.016 4.013c5.549 5.544 4.832 14.729-1.51 19.346l-11.482 8.36z" class="B J"/><g clip-path="url(#O)"><path d="M209.5 131.696h18.114v34.352H209.5z" class="D"/><path d="M207.095 129.691h4.792v41.755h-4.792z" fill="#5ebe3e"/><path d="M192.501 150.64c-.78 0-1.547-.38-2.006-1.08a2.39 2.39 0 0 1 .689-3.315l9.74-6.384c1.108-.729 2.593-.415 3.316.687a2.39 2.39 0 0 1-.689 3.315l-9.74 6.384c-.406.267-.861.393-1.31.393z" class="D"/><path d="M226.478 150.64c-.449 0-.905-.126-1.31-.393l-9.737-6.384a2.39 2.39 0 0 1 2.627-4.002l9.737 6.384a2.39 2.39 0 0 1 .689 3.315c-.459.7-1.226 1.08-2.006 1.08z" class="K"/></g><g fill="#d8782d"><path d="M244.553 142.942l-3.784-4.868-.61-1.97-.522-2.362c-.272-1.569-.364-3.122-.213-4.491l.006-.059h0c.189-1.72-1.052-3.267-2.773-3.456s-3.269 1.051-3.458 2.771c-.245 2.225-.079 4.308.259 6.295l.646 2.925.93 2.915h0l.303.603c.103.203.256.384.456.523l5.944 4.139c.723.502 1.719.505 2.452-.063.902-.7 1.066-1.999.365-2.9zm-19.751-1.247h0c-.236-1.588-.758-2.868-1.328-4.065l-.932-1.721-1.103-1.679-.094-.128c-.12-.16-.257-.312-.411-.451a3.16 3.16 0 0 0-4.458.22 3.15 3.15 0 0 0 .22 4.454c.276.25.656.664.966 1.019l.911 1.136c.505.686.916 1.393 1.165 1.993l-.393 2.815a2.01 2.01 0 0 0 1.159 2.103c1.009.457 2.199.011 2.656-.998l1.59-3.502c.097-.216.141-.466.11-.718l-.058-.479z"/></g><path d="M226.326 128.219l-6.194 2.778-2.691 1.207a3.73 3.73 0 0 0-1.879 4.934l.348.776c.652 1.453 2.36 2.102 3.814 1.45h0c.496-.222 1.044-.3 1.582-.225l3.523.493c2.589.362 5.228-.013 7.613-1.082h0c5.191-2.327 7.51-8.419 5.181-13.605h0a1.64 1.64 0 0 0-2.162-.822l-9.135 4.096z" class="U"/><path d="M236.032 144.836l-3.744-5.427.023-1.909c.041-.906.129-1.797.266-2.645s.337-1.646.594-2.312c.25-.666.582-1.164.799-1.36l.022-.02.035-.032a3.13 3.13 0 0 0 .129-4.427c-1.188-1.258-3.172-1.316-4.431-.129s-1.928 2.511-2.405 3.72c-.466 1.221-.735 2.394-.928 3.54-.186 1.145-.293 2.267-.344 3.377l.013 3.39h0l.086.599a2.06 2.06 0 0 0 .727 1.295l6.137 5.098c.694.576 1.712.649 2.491.112a2.06 2.06 0 0 0 .528-2.869z" fill="#e39f4f"/><path d="M238.697 117.982h-.337c-4.528 0-8.198 3.667-8.198 8.191h0a24.77 24.77 0 0 0 .449 4.698l.118.609a1.65 1.65 0 0 0 1.619 1.335h12.362a1.65 1.65 0 0 0 1.619-1.335l.118-.609a24.77 24.77 0 0 0 .449-4.698h0c0-4.524-3.67-8.191-8.198-8.191z" class="U"/><rect x="235.142" y="120.048" width="8.324" height="10.751" rx="4.16" transform="matrix(.999995 -.003211 .003211 .999995 -.402 .77)" fill="#e8b67e"/><g fill="#6a3b11"><circle cx="241.277" cy="124.655" r="1.145"/><circle cx="237.457" cy="124.696" r="1.145"/></g><path d="M193.713 146.739c-5.179 0-9.968-1.256-10.258-1.333-.73-.195-1.163-.944-.968-1.673a1.37 1.37 0 0 1 1.675-.968c.095.026 9.6 2.514 15.607.372 4.297-1.531 7.118-3.72 9.847-5.836 2.133-1.654 4.337-3.364 7.184-4.728.68-.328 1.498-.04 1.825.642s.039 1.497-.642 1.824c-2.582 1.238-4.577 2.785-6.688 4.423-2.899 2.248-5.896 4.573-10.606 6.252-2.142.763-4.6 1.027-6.975 1.027z" class="U"/><path d="M221.866 137.816l-.154-1.771-.019-.15a3.2 3.2 0 0 0-.152-.625 3.16 3.16 0 0 0-4.029-1.925c-1.645.58-2.507 2.382-1.927 4.025.124.351.258.845.368 1.274l.293 1.325c.155.797.227 1.604.218 2.138l-1.756 3.263a2 2 0 0 0 3.244 2.29l3.047-3.355a1.32 1.32 0 0 0 .281-.494l.11-.361h0c.229-.751.331-1.414.406-2.054s.094-1.237.105-1.833l-.038-1.748z" fill="#e39f4f"/><rect x="125.762" y="144.302" width="4.86" height="25.794" rx="2.427" fill="#51742a"/><g class="B"><path d="M50.908 154.454a3.03 3.03 0 0 1-.889 2.143c-.569.568-1.34.888-2.145.888h-.004a3.03 3.03 0 0 1-3.033-3.031v-5.213a4.16 4.16 0 0 1 2.472-3.8l6.807-3.022a.57.57 0 0 1 .669.155c.163.196.178.475.033.686l-3.204 4.707c-.46.677-.707 1.476-.707 2.295v4.194z" fill="#6da090"/><g class="F"><path d="M1242.759 79.715l.683 5.96-7.46 5.914c-.136.108-.322.129-.479.053s-.256-.234-.256-.407V87.92c0-.439.174-.859.484-1.17l7.027-7.034zm-1.697-6.582c-1.416-.139-2.495-1.328-2.495-2.749v-4.398c0-.134-.086-.252-.214-.293a.31.31 0 0 0-.345.113l-5.112 7.084 8.167.244zm22.497 6.788l2.131 2.976c.115.16.319.227.507.167a.45.45 0 0 0 .314-.431V81.4c0-.791.533-1.484 1.299-1.686h0l-4.251.206z"/><path d="M1263.559 74.139l2.131-2.976a.45.45 0 0 1 .507-.167c.187.06.314.234.314.431v1.415a1.3 1.3 0 0 0 1.298 1.298h-4.251zm10.452 4.221l-53.733-1.374v1.358c0 .89.354 1.744.985 2.372l.55.549a20.28 20.28 0 0 0 19.226 5.316l32.972-8.221z"/><path d="M1222.344 79.361l-1.034-1.237h2.067l-1.033 1.237z"/><path d="M1274.011 74.257l-29.669-1.336-1.286-.029h-26.158c-.587 0-1.117.351-1.342.89a1.43 1.43 0 0 0 .316 1.57 10.38 10.38 0 0 0 7.304 2.998h50.835v-4.094z"/><path d="M1226.89 74.652c0-.105-.042-.205-.116-.279s-.175-.116-.279-.116h-4.832c-.105 0-.205.042-.279.116s-.116.174-.116.279v.575c0 .105.042.205.116.279s.175.116.279.116h4.832c.105 0 .205-.042.279-.116s.116-.174.116-.279v-.575zm-8.542-.749h.012l.012.001.011.001.012.001.011.001.012.002.011.002.012.002.011.003.012.002.011.003.011.004.011.003.011.004.011.004.011.004.011.005.01.005.011.005.01.005.011.005.01.006.01.006.01.006.009.007.01.006.009.007.01.007.009.007.009.008.009.007.008.008.009.008.008.009.008.008.008.009.007.008.008.009.007.009.007.01.007.009.007.01.006.009.006.01.006.01.006.011.005.01.006.01.005.011.004.01.005.011.004.011.004.011.004.011.004.011.003.011.003.011.003.012.002.011.002.012.002.011.002.012.001.011.002.012.001.011v.012l.001.012v.011.012l-.001.011v.012l-.001.012-.002.011-.001.012-.002.011-.002.012-.002.011-.002.012-.003.011-.003.011-.003.011-.004.012-.004.011-.004.01-.004.011-.005.011-.004.011-.005.01-.006.011-.005.01-.006.01-.006.01-.006.01-.006.01-.007.009-.007.01-.007.009-.007.009-.008.009-.007.009-.008.008-.008.009-.008.008-.009.008-.008.008-.009.008-.009.007-.009.007-.01.007-.009.007-.01.007-.009.006-.01.006-.01.006-.01.006-.011.006-.01.005-.011.005-.01.005-.011.004-.011.004-.011.004-.011.004-.011.004-.011.003-.011.003-.012.003-.011.002-.012.002-.011.002-.012.002-.011.002-.012.001-.011.001h-.012l-.012.001h-.011-.672-.012l-.011-.001h-.012l-.012-.001-.011-.001-.012-.002-.011-.002-.012-.002-.011-.002-.012-.002-.011-.003-.011-.003-.011-.003-.011-.004-.011-.004-.011-.004-.011-.004-.011-.004-.011-.005-.01-.005-.011-.005-.01-.006-.01-.006-.01-.006-.01-.006-.01-.006-.009-.007-.01-.007-.009-.007-.009-.007-.009-.007-.009-.008-.009-.008-.008-.008-.008-.008-.008-.009-.008-.008-.008-.009-.007-.009-.007-.009-.008-.009-.006-.01-.007-.009-.006-.01-.007-.01-.006-.01-.005-.01-.006-.01-.005-.011-.005-.01-.005-.011-.004-.011-.005-.011-.004-.01-.003-.011-.004-.012-.003-.011-.003-.011-.003-.011-.002-.012-.003-.011-.002-.012-.001-.011-.002-.012-.001-.011-.001-.012-.001-.012v-.011-.012-.011-.012l.001-.012.001-.011.001-.012.002-.011.001-.012.002-.011.003-.012.002-.011.003-.012.003-.011.003-.011.004-.011.003-.011.004-.011.005-.011.004-.011.005-.01.005-.011.005-.01.006-.01.005-.011.006-.01.007-.01.006-.009.007-.01.006-.009.008-.01.007-.009.007-.009.008-.008.008-.009.008-.008.008-.009.008-.008.009-.008.009-.007.009-.008.009-.007.009-.007.01-.007.009-.006.01-.007.01-.006.01-.006.01-.006.01-.005.011-.005.01-.005.011-.005.011-.005.011-.004.011-.004.011-.004.011-.003.011-.004.011-.003.011-.002.012-.003.011-.002.012-.002.011-.002.012-.001.011-.001.012-.001.012-.001h.011.012.672.011z"/></g></g><use href="#d" class="F"/><path d="M1236.443 77.513a.51.51 0 0 1-.512-.512v-2.233c0-.282.229-.512.512-.512a.51.51 0 0 1 .512.512v2.233c0 .282-.229.512-.512.512zm2.048 0a.51.51 0 0 1-.512-.512v-2.233c0-.282.229-.512.512-.512a.51.51 0 0 1 .512.512v2.233c0 .282-.229.512-.512.512z" class="F"/><rect x="1222.274" y="74.257" width="3.414" height="1.706" rx=".395" class="F"/><g class="B F"><use href="#e"/><use href="#e"/></g><g clip-path="url(#P)" class="F"><path d="M1264.037 78.35h21.049v8.431h-21.049zm0-12.189h21.049v8.095h-21.049z"/></g><g class="B F"><use href="#f"/><path d="M1225.099 79.175l-.689-.825h1.378l-.689.825z"/><path d="M1223.722 79.175l-.689-.825h1.377l-.688.825zm2.755 0l-.689-.825h1.378l-.689.825zm2.756 0l-.689-.825h1.378l-.689.825z"/><path d="M1230.61 79.175l-.688-.825h1.377l-.689.825zm-5.946-4.918h-1.366v1.308c0 .22.178.398.398.398h.57c.22 0 .398-.178.398-.398v-1.308zm19.461 5.458l-.683 5.96 7.46 5.914a.45.45 0 0 0 .478.053c.157-.076.256-.234.256-.407V87.92c0-.439-.174-.859-.484-1.17l-7.027-7.034z"/></g></g></svg>