<svg xmlns="http://www.w3.org/2000/svg" width="1500" height="145" xmlns:v="https://vecta.io/nano"><style><![CDATA[.B{opacity:.6}.C{opacity:.3}.D{fill:#0c1c1c}.E{fill-rule:evenodd}.F{fill:#f2b052}.G{fill:none}.H{fill:#e99a3b}.I{fill:#102120}.J{fill:#4aa2eb}.K{fill:#ef915b}.L{fill:#e68436}.M{fill:#f2da3b}.N{fill:#f7e550}.O{fill:#fae54f}.P{fill:#f0f5f6}.Q{fill:#b74f25}.R{fill:#6791ea}.S{fill:#dd9a26}.T{stroke-linecap:round}.U{stroke-linejoin:round}.V{stroke-dasharray:0 9.953}]]></style><defs><clipPath id="A"><path d="M0 0h1500v145H0z" class="G"/></clipPath><clipPath id="B"><rect x="185.793" y="147.644" width="56.038" height="33.25" rx="4.999" transform="matrix(.993175 .116636 -.116636 .993175 20.621 -23.819)" class="G"/></clipPath><clipPath id="C"><path d="M548.682 31.265c-6.823-11.819-21.93-15.866-33.749-9.043s-15.865 21.931-9.043 33.749l42.791-24.706z" class="G"/></clipPath><clipPath id="D"><path d="M1426.853 122.719a8.07 8.07 0 0 1 2.952 11.019 8.07 8.07 0 0 1-11.019 2.953 8.07 8.07 0 0 1-2.952-11.019 8.07 8.07 0 0 1 11.019-2.952z" class="G"/></clipPath><path id="E" d="M235.759 155.317a2.5 2.5 0 0 1-2.191-2.774l4.543-38.682a2.5 2.5 0 0 1 2.774-2.191 2.5 2.5 0 0 1 2.191 2.774l-4.543 38.682a2.5 2.5 0 0 1-2.774 2.191z"/><path id="F" d="M194.666 126.815c-1.47-.173-2.804.881-2.977 2.351s.881 2.804 2.351 2.977 2.804-.881 2.977-2.351-.881-2.804-2.351-2.977z"/><path id="G" d="M190.284 183.103a2.5 2.5 0 0 1-2.191-2.774l4.421-37.642a2.5 2.5 0 0 1 2.774-2.191 2.5 2.5 0 0 1 2.191 2.774l-4.421 37.642a2.5 2.5 0 0 1-2.774 2.191z"/><path id="H" d="M467.175 12.081c0-.232-.185-.417-.412-.417h-.829c-.232 0-.417.185-.417.417V14.8c0 .232.185.417.417.417h.829c.227 0 .412-.185.412-.417v-2.719z"/><path id="I" d="M566.712 49.342a.27.27 0 0 0-.27-.273h-.543c-.152 0-.273.121-.273.273v1.78c0 .152.121.273.273.273h.543a.27.27 0 0 0 .27-.273v-1.78z"/><path id="J" d="M1269.221 139.939a3.2 3.2 0 0 1 5.578 0l4.922 8.719h-15.423l4.922-8.719z"/></defs><g clip-path="url(#A)"><path d="M-11.618-1250.128h1523.237v2573.025H-11.618z" fill="#61d1d5"/><path d="M1659.972-165.217l-30.731-923.973H-94.167L-106.414.839h94.796v150.188h329.873c25.26 0 49.807-6.887 71.138-19.616 18.697-11.157 39.934-17.346 61.707-17.346h537.967c26.226 0 51.377 10.418 69.921 28.962h0c18.544 18.544 43.696 28.962 69.921 28.962h452.344v-57.925h40.01l38.709-279.282z" fill="#fcf4c7"/><path d="M986.919-78.341l31.264-31.264a75.22 75.22 0 0 0 22.032-53.189v-56.802a75.22 75.22 0 0 1 22.032-53.189l162.74-162.74c14.107-14.106 33.24-22.032 53.189-22.032h321.662l-18.962-570.108H-44.725l-11.124 990.03h575.797a50 50 0 0 0 35.355-14.645l20.557-20.557a50 50 0 0 1 35.355-14.645h56.379c13.261 0 25.979 5.268 35.355 14.645l82.139 82.139a75 75 0 0 0 53.033 21.967h126.765v-56.42a75.22 75.22 0 0 1 22.032-53.189z" fill="#8cce52"/><g stroke="#8cce52" stroke-width="10" class="G T U"><path d="M-45.841-37.635h565.789a50 50 0 0 0 35.355-14.645l20.557-20.557a50 50 0 0 1 35.355-14.645h56.379c13.261 0 25.979 5.268 35.355 14.645l82.139 82.139a75 75 0 0 0 53.033 21.967h121.761" stroke-dasharray="0 10.008"/><path d="M964.887 31.27h0"/><path d="M964.887 21.316v-46.467a75.22 75.22 0 0 1 22.032-53.189l31.264-31.264a75.22 75.22 0 0 0 22.032-53.189v-56.802a75.22 75.22 0 0 1 22.032-53.189l162.74-162.74c14.107-14.106 33.24-22.032 53.189-22.032h316.686" class="V"/></g><path d="M1038.415 31.27a75 75 0 0 1 53.033 21.967l.386.387a75 75 0 0 0 53.033 21.967h432.848l32.142-231.902-10.019-301.244h-321.662a75.22 75.22 0 0 0-53.189 22.032l-162.74 162.74a75.22 75.22 0 0 0-22.032 53.189v56.802a75.22 75.22 0 0 1-22.032 53.189l-31.264 31.264a75.22 75.22 0 0 0-22.032 53.189v56.42h73.528zm-28.25-27.282l-.046.015.046-.015z" fill="#4aa280"/><g stroke-width="10" stroke="#4aa280" class="G T U"><path d="M1589.885-457.556h-311.709a75.22 75.22 0 0 0-53.189 22.032l-162.74 162.74a75.22 75.22 0 0 0-22.032 53.189v56.802a75.22 75.22 0 0 1-22.032 53.189L986.919-78.34a75.22 75.22 0 0 0-22.032 53.189v51.444" class="V"/><path d="M964.887 31.27h0"/><path d="M974.963 31.27h63.451a75 75 0 0 1 53.033 21.967l.386.387a75 75 0 0 0 53.033 21.967h427.81" stroke-dasharray="0 10.076"/><path d="M1010.165 3.988h0m-.046.015h0"/></g><g fill="#c7dae0"><use href="#E"/><path d="M194.536 150.475a2.5 2.5 0 0 1-2.191-2.774l4.543-38.682a2.5 2.5 0 0 1 2.774-2.191 2.5 2.5 0 0 1 2.191 2.774l-4.543 38.682a2.5 2.5 0 0 1-2.774 2.191z"/></g><g class="E"><path d="M220.214 127.071c.181-1.544 1.58-2.649 3.125-2.468l14.016 1.646c1.545.181 2.649 1.581 2.468 3.125l-2.536 21.592-19.608-2.303 2.536-21.592z" class="I"/><path d="M223.647 140.54a.43.43 0 0 1 .607.051l1.519 1.804c.073.087.109.2.1.313s-.064.219-.151.293l-8.041 6.774-2.074-2.461 8.04-6.774z" class="J"/><path d="M223.647 140.54a.43.43 0 0 1 .607.052l1.519 1.804a.43.43 0 0 1-.052.606l-2.625 2.211-2.074-2.461 2.625-2.211z" class="N"/><path d="M232.74 144.614a.43.43 0 0 1-.378-.478l.275-2.341a.43.43 0 0 1 .478-.378l10.442 1.226-.375 3.197-10.442-1.226z" class="J"/></g><circle cx="243.37" cy="144.241" r="1.61" fill="#4fae8d"/><g class="E"><path d="M232.74 144.614c-.236-.028-.405-.242-.378-.478l.275-2.341c.028-.236.242-.405.478-.378l3.408.4-.375 3.197-3.408-.4z" class="N"/><g class="J"><path d="M245.142 133.802a.56.56 0 0 1 .282-.323c.133-.066.286-.076.427-.028l1.988.672c.14.048.257.149.323.282s.076.287.029.428l-3.327 9.837-3.05-1.031 3.328-9.837z"/><path d="M243.855 142.63a1.61 1.61 0 0 0-2.041 1.009 1.61 1.61 0 0 0 1.009 2.04 1.61 1.61 0 1 0 1.032-3.05z"/></g><path d="M223.447 140.936a.65.65 0 0 1 .722-.57l9.365 1.1c.172.02.327.107.434.243a.65.65 0 0 1 .136.48l-1.576 13.421-10.657-1.252 1.576-13.421z" class="N"/></g><path d="M226.718 140.665l.25-2.131 4.263.501-.25 2.131z" fill="#3d89c3"/><g class="E"><g class="J"><path d="M223.18 130.795c.06-.51.32-.977.724-1.295a1.94 1.94 0 0 1 1.428-.405l10.108 1.187a1.94 1.94 0 0 1 1.7 2.151l-.619 5.269c-.06.51-.32.977-.724 1.295s-.918.464-1.428.405l-10.108-1.187c-.511-.06-.977-.32-1.295-.724s-.464-.917-.404-1.428l.619-5.269z"/><path d="M222.038 131.624a2.29 2.29 0 0 0-2.586 1.941 2.29 2.29 0 0 0 1.94 2.586 2.29 2.29 0 0 0 2.586-1.941 2.29 2.29 0 0 0-1.94-2.586z"/></g><g class="I"><path d="M223.026 132.008l2.181.256a1.41 1.41 0 0 0 1.564-1.235l.211-1.797-3.581-.421-.375 3.197zm8.178.961l6.699.787.375-3.197-8.099-.951-.211 1.797a1.41 1.41 0 0 0 1.235 1.564z"/></g></g><g fill="#0d1c1c"><rect x="226.009" y="134.024" width="2.818" height="1.396" rx=".233" transform="matrix(.116636 -.993175 .993175 .116636 67.089 344.873)"/><rect x="231.976" y="134.725" width="2.818" height="1.396" rx=".233" transform="matrix(.116636 -.993175 .993175 .116636 71.664 351.419)"/></g><rect x="199.929" y="117.935" width="8.66" height="18.762" rx="2.108" transform="matrix(.116636 -.993175 .993175 .116636 53.986 315.329)" class="I"/><g fill="#eccb4d" class="E"><use href="#F"/><path d="M213.301 129.003c-1.47-.173-2.804.881-2.977 2.351s.881 2.804 2.351 2.977 2.804-.881 2.977-2.351-.881-2.804-2.351-2.977z"/></g><rect x="198.786" y="122.961" width="10.103" height="15.876" rx="2.459" transform="matrix(.116636 -.993175 .993175 .116636 50.055 318.077)" class="O"/><path d="M200.928 137.095l.168-1.433 4.248.499-.168 1.433z" fill="#eccb4d"/><g class="E O"><path d="M208.881 138.454a1.45 1.45 0 0 0-2.049-.222h0c-.633.515-.734 1.443-.225 2.081l5.086 6.504a1.47 1.47 0 0 0 .983.544c.387.044.775-.068 1.079-.311h.002a1.47 1.47 0 0 0 .233-2.064l-5.109-6.532zm-9.555-.071a1.45 1.45 0 0 0-1.284-1.611h-.001c-.811-.088-1.541.494-1.636 1.304l-1.337 11.386a1.47 1.47 0 0 0 .306 1.081c.241.305.594.503.981.548h.002a1.47 1.47 0 0 0 1.629-1.286l1.342-11.422z"/></g><path d="M196.716 148.227l1.347-11.467 10.034 1.178-1.347 11.467z" fill="#ee8f44"/><g fill="#0d1c1c"><path d="M198.608 132.224l.287-2.445a.24.24 0 0 1 .265-.209l.946.111a.24.24 0 0 1 .209.265l-.287 2.445c-.015.131-.134.224-.264.209l-.946-.111c-.131-.015-.224-.134-.209-.264zm8.587 1.008l.287-2.445c.015-.131.134-.224.264-.209l.946.111c.131.015.224.134.209.264l-.287 2.445a.24.24 0 0 1-.265.209l-.946-.111a.24.24 0 0 1-.209-.265z"/></g><path d="M216.948 124.446l-13.104-1.539-.31 2.643c-.2 1.707 1.021 3.253 2.728 3.454l6.922.813c1.707.2 3.253-1.021 3.454-2.728l.31-2.643z" class="E I"/><path d="M271.307,55.614c3.256-7.028,5.503-14.664,6.455-22.775,3.731-31.772-12.958-61.211-39.676-75.258l-10.905,92.851,44.125,5.182Z" fill="#fbee86"/><path d="M182.054,21.598c-.953,8.112-.536,16.06,1.003,23.651l44.125,5.182,10.905-92.851h0c-29.245,7.475-52.301,32.246-56.033,64.018Z" fill="#fae74d"/><path d="M183.056,45.249c1.089,5.372,2.724,10.571,4.908,15.498l4.113,10.716,32.19,3.781,2.914-24.812-44.125-5.182Z" class="P"/><path d="M224.267,75.244l32.189,3.781,6.484-9.471c3.267-4.287,6.061-8.965,8.366-13.939l-44.125-5.182-2.914,24.812Z" fill="#fff"/><path d="M230.641,116.734l13.137,1.543c2.659.312,5.272-.876,6.785-3.085l23.356-34.116-17.462-2.051-25.816,37.709Z" fill="#254da8"/><path d="M289.59,57.761l-18.284-2.147c-2.304,4.974-5.099,9.652-8.366,13.939l-6.484,9.471,17.462,2.051,10.306-15.054c1.983-2.602,3.764-5.371,5.365-8.261Z" class="P"/><path d="M224.267 75.244l-4.719 40.187 11.093 1.303 25.816-37.709-32.19-3.781z" fill="#618fd6"/><path d="M238.315-42.485l-.228.065h0c26.718 14.048 43.407 43.486 39.676 75.258-.953 8.112-3.199 15.748-6.455 22.775l18.284 2.147a67.56 67.56 0 0 0 8.031-24.925c4.366-37.174-22.175-70.839-59.307-75.321z" fill="#f6cf46"/><path d="M192.078 71.463l16.376 42.665 11.094 1.303 4.719-40.187-32.189-3.781z" fill="#4a75c5"/><path d="M187.965,60.748c-2.185-4.927-3.819-10.126-4.908-15.498l-18.293-2.148c.888,3.184,1.988,6.288,3.315,9.28l6.537,17.032,17.462,2.051-4.113-10.716Z" class="P"/><path d="M192.078 71.463l-17.462-2.051 14.816 38.599a7.2 7.2 0 0 0 5.885 4.573l13.137 1.543-16.376-42.665z" fill="#254da8"/><path d="M182.054 21.598c3.731-31.772 26.788-56.543 56.033-64.018-.076-.04-.149-.087-.225-.126-1.334-.152-2.678-.275-4.038-.351-34.768-1.933-65.835 23.55-70.841 58.01a67.66 67.66 0 0 0 1.781 27.988l18.293 2.148c-1.539-7.591-1.956-15.539-1.003-23.651z" fill="#f6cf46"/><g fill="#ddebf0"><path d="M230.347 119.216c-.389-.046-.772-.183-1.118-.42a2.5 2.5 0 0 1-.65-3.474l32.301-47.181c7.93-10.411 12.884-22.684 14.4-35.594 3.788-32.254-14.526-63.371-44.538-75.674a2.5 2.5 0 1 1 1.895-4.627c32.079 13.151 51.656 46.412 47.607 80.883-1.621 13.798-6.917 26.917-15.314 37.938l-32.227 47.078c-.543.794-1.463 1.175-2.356 1.07z"/><path d="M208.165 116.611c-.893-.105-1.7-.689-2.044-1.587l-20.49-53.381c-5.568-12.55-7.68-26.538-6.06-40.336 4.048-34.471 30.798-62.29 65.049-67.652a2.5 2.5 0 1 1 .774 4.94c-32.044 5.016-57.07 31.043-60.858 63.295-1.516 12.91.459 25.996 5.713 37.844l20.538 53.499a2.5 2.5 0 0 1-1.437 3.229c-.391.151-.796.195-1.185.15z"/><path d="M289.319 60.246L164.455 45.581a2.5 2.5 0 0 1-2.191-2.774 2.5 2.5 0 0 1 2.774-2.191l124.864 14.665a2.5 2.5 0 0 1 2.191 2.774 2.5 2.5 0 0 1-2.774 2.191zm-15.692 23.312l-99.303-11.663a2.5 2.5 0 0 1-2.191-2.774 2.5 2.5 0 0 1 2.774-2.191l99.303 11.663a2.5 2.5 0 0 1 2.191 2.774 2.5 2.5 0 0 1-2.774 2.191z"/><path d="M219.257 117.914a2.5 2.5 0 0 1-2.191-2.774l19.173-163.245a2.5 2.5 0 0 1 2.774-2.191 2.5 2.5 0 0 1 2.191 2.774l-19.173 163.245a2.5 2.5 0 0 1-2.774 2.191z"/></g><g clip-path="url(#B)"><path d="M187.925 144.487l55.656 6.536-3.878 33.023-55.656-6.536z" fill="#b98232"/><rect x="188.553" y="124.146" width="56.038" height="33.25" rx="4.999" transform="matrix(.993175 .116636 -.116636 .993175 17.899 -24.301)" fill="#cc983f"/><g style="mix-blend-mode:multiply" class="C K"><use href="#G"/></g><g style="mix-blend-mode:multiply" class="C K"><path d="M200.532 184.307a2.5 2.5 0 0 1-2.191-2.774l4.421-37.642a2.5 2.5 0 0 1 2.774-2.191 2.5 2.5 0 0 1 2.191 2.774l-4.421 37.642a2.5 2.5 0 0 1-2.774 2.191z"/></g><g style="mix-blend-mode:multiply" class="C K"><path d="M210.779 185.51a2.5 2.5 0 0 1-2.191-2.774l4.421-37.642a2.5 2.5 0 0 1 2.774-2.191 2.5 2.5 0 0 1 2.191 2.774l-4.421 37.642a2.5 2.5 0 0 1-2.774 2.191z"/></g><g style="mix-blend-mode:multiply" class="C K"><path d="M221.027 186.714a2.5 2.5 0 0 1-2.191-2.774l4.421-37.642a2.5 2.5 0 0 1 2.774-2.191 2.5 2.5 0 0 1 2.191 2.774l-4.421 37.642a2.5 2.5 0 0 1-2.774 2.191z"/></g></g><path d="M213.754 147.055c.307-.245.504-.602.547-.992a1.47 1.47 0 0 0-.318-1.087c-.505-.626-1.421-.727-2.049-.226l-4.514 3.598a1.47 1.47 0 0 0-.544.983c-.044.387.068.775.311 1.08v.002a1.48 1.48 0 0 0 .985.544c.387.044.775-.068 1.08-.311l4.504-3.59z" class="E O"/><rect x="46.657" y="110.835" width="84.171" height="23.082" rx="11.541" class="C F"/><path d="M69.192 107.338h44.976v15.539H69.192z" fill="#fff"/><path d="M39.58 71.083c.075-.028.078-.022.153-.048.162-.042.262-.024.441-.027.566.028 1.118.357 1.516.886.136.074.201.187.268.301l.101.177 25.18 43.613-3.933-.013-24.19-41.901-.101-.177c-.099-.171-.201-.348-.229-.551-.21-.686-.145-1.364.222-1.829.109-.13.161-.202.292-.287l.138-.078c.073-.033.076-.028.143-.066z" fill="#e9c242"/><path d="M76.114 74.93c-8.266-14.316-26.568-19.22-40.883-10.954s-19.219 26.566-10.953 40.882L76.114 74.93z" class="Q"/><path d="M61.602 105.462v-1.693c-.01-.48-.308-.925-.744-1.101-.117-.049-.181-.078-.401-.093-1.013-.024-2.025 0-3.043 0a1.25 1.25 0 0 0-1.194 1.194v1.497h-1.179a1.56 1.56 0 0 0-1.517 1.938l.373 1.487.121.49-1.869 1.066a3.09 3.09 0 0 0-1.556 2.682v1.243a1.86 1.86 0 0 0 1.859 1.859h7.251c.695 0 1.365-.279 1.864-.773a2.65 2.65 0 0 0 .768-1.859v-6.713a1.4 1.4 0 0 0-.734-1.223zm-3.914-.196v-1.223h2.446v1.223h-2.446z" class="R"/><path d="M57.443,112.294c0-.435-.357-.792-.793-.792h-4.281c-.44,0-.797.357-.797.792v1.595c0,.436.357.793.797.793h4.281c.436,0,.793-.357.793-.793v-1.595Z" fill="#4a7be4"/><g fill="#d3526d"><path d="M43.771 118.193l1.896 1.896c1.32 1.32 3.217 1.76 4.931 1.271.557-1.48.549-3.124-.048-4.591-.023.324-.142.644-.39.891a1.4 1.4 0 0 1-1.978 0l-1.978-1.977a1.4 1.4 0 0 1 0-1.978 1.38 1.38 0 0 1 .89-.39c-1.469-.597-3.114-.605-4.595-.046a5.01 5.01 0 0 0 1.271 4.924zm5.4 5.4h0 0 0zm-5.654-.253l-2.847-2.847a4.82 4.82 0 0 1-1.193-4.824c-1.622 2.443-1.358 5.77.796 7.924 2.144 2.144 5.448 2.415 7.888.818-1.621.549-3.42.153-4.644-1.071z"/></g><path d="M46.205 115.683l1.978 1.977a1.4 1.4 0 0 0 1.978 0 1.38 1.38 0 0 0 .39-.891 6.25 6.25 0 0 0-1.379-2.074 6.27 6.27 0 0 0-2.076-1.379c-.324.023-.643.143-.89.39a1.4 1.4 0 0 0 0 1.978z" fill="#b53655"/><path d="M48.448 124.317h0l.723-.724c-.314.313-.653.585-1.01.818l.286-.094z" fill="#b99ecb" fill-opacity=".359"/><path d="M50.598 121.36c-1.714.489-3.611.049-4.931-1.271l-1.896-1.896a5.01 5.01 0 0 1-1.271-4.924c-.811.306-1.575.773-2.227 1.426a6.3 6.3 0 0 0-.796.975 4.82 4.82 0 0 0 1.193 4.824l2.847 2.847c1.224 1.224 3.023 1.62 4.644 1.071a6.38 6.38 0 0 0 1.01-.818h0c.654-.655 1.121-1.42 1.427-2.233z" fill="#b53655"/><path d="M79.89 112.549h5.018v4.461H79.89z" class="L"/><path d="M74.66 106.153a2.42 2.42 0 0 0-2.416 2.417v7.004a2.42 2.42 0 0 0 2.416 2.417h4.832a2.42 2.42 0 0 0 2.416-2.417v-7.004a2.42 2.42 0 0 0-2.416-2.417H74.66z" class="H"/><g class="D"><path d="M81.916,115.58c0-.92-.362-1.801-1.013-2.446-.651-.651-1.531-1.018-2.451-1.018h-8.034v3.757c0,.626.249,1.228.69,1.668.44.44,1.042.69,1.668.69h9.14v-2.652Z"/><path d="M75.06,105.261h-1.58c-1.693,0-3.068,1.378-3.068,3.066v7.698h4.648v-10.764Z"/></g><path d="M77.243,111.138c1.206,0,2.184.978,2.184,2.184s-.978,2.184-2.184,2.184-2.184-.978-2.184-2.184.978-2.184,2.184-2.184Z" class="H"/><path d="M77.218,108.382c-.182,0-.327.145-.327.324v.65c0,.182.145.327.327.327h2.134c.182,0,.327-.145.327-.327v-.65c0-.178-.145-.324-.327-.324h-2.134Z" class="D"/><g class="L"><path d="M109.804 105.452a2.42 2.42 0 0 0-1.712-1.203c-.724-.122-1.462.094-2.007.584q0 0-.001 0c-.732.653-.865 1.748-.313 2.558l7.067 10.353 6.219.002h0a2.19 2.19 0 0 0-.642-1.549c-.411-.411-.967-.641-1.549-.642l-1.394.001-5.668-10.107z"/><path d="M97.852 109.423a2.23 2.23 0 0 0-.817 3.046 2.23 2.23 0 0 0 3.046.816l8.6-4.965a2.23 2.23 0 1 0-2.229-3.863l-8.6 4.965z"/></g><g class="H"><path d="M103.681 114.072a.92.92 0 0 0-.918.919v1.838a.92.92 0 0 0 .918.919h18.42a.92.92 0 0 0 .918-.919v-1.838a.92.92 0 0 0-.918-.919h-18.42z"/><path d="M123.008 111.842h0a2.23 2.23 0 0 0-2.23 2.23v2.788h2.23v-5.018z"/></g><path d="M103.929 117.75l-1.469-11.013-7.827 3.181v.045l-.015-.045-7.499.233a4.47 4.47 0 0 0-4.328 4.468v.145c0 .791.315 1.55.875 2.11s1.319.875 2.112.875h18.151z" class="Q"/><path d="M77.023 98.906h8.807v1.957h-8.807z" fill="#fff"/><g class="H"><path d="M86.564,99.639c0-.945-.768-1.712-1.712-1.712s-1.712.768-1.712,1.712v2.691h3.425v-2.691Z"/><path d="M84.844 99.887l-1.712 2.446 4.918 4.521-2.496 6.409c-.181.46-.118.979.157 1.385a1.5 1.5 0 0 0 1.233.651h.005c.45 0 .861-.274 1.032-.695l3.185-7.828a1.21 1.21 0 0 0-.298-1.341l-6.023-5.548z"/></g><path d="M452.351 21.847c-.095 1.861-1.623 3.346-3.508 3.346h-5.87v14.876h46.655V21.847h-37.277z" fill="#5ec8a2"/><path d="M452.351 21.847c.003-.061.018-.118.018-.179a3.53 3.53 0 0 0-3.526-3.526h-16.409a3.53 3.53 0 0 0-3.526 3.526 3.53 3.53 0 0 0 3.526 3.526h10.539v-3.346h9.378z" fill="#f7e27e"/><path d="M452.351 21.847h-9.378v3.346h5.87a3.52 3.52 0 0 0 3.508-3.346z" fill="#53b68c"/><path d="M446.302 13.293v-.522c-.054-2.847-2.497-5.15-5.2-5.2a5.25 5.25 0 0 0-5.022 3.488c-.252.707-.305 1.463-.313 2.234h-4.345l2.952 7.384a2.82 2.82 0 0 0 2.619 1.772h8.084c1.154 0 2.193-.701 2.619-1.772l2.953-7.384h-4.346zm-8.24-.453c.012-2.298 2.703-3.607 4.47-2.577 1.075.625 1.365 1.791 1.445 3.03h-5.915v-.453z" fill="#e49636"/><path d="M466.938 14.509h5.92v6.039h-5.92z" fill="#7c4b81"/><path d="M470.611 4.585c0-.696-.28-1.364-.772-1.857s-1.165-.772-1.861-.772h0c-.701 0-1.369.279-1.861.772s-.772 1.16-.772 1.857v9.922h5.267V4.585z" fill="#0c1b1c"/><path d="M466.12 18.824h-1.749a1.94 1.94 0 0 0-1.931 1.723l-1.231 10.829h-2.062v1.394h5.227v-.007h.162l1.584-13.939z" fill="#7c4b81"/><g fill="#965d9d"><path d="M481.459 22.317c.474 0 .92-.23 1.199-.613a1.47 1.47 0 0 0 .209-1.324l-2.823-8.775a1.68 1.68 0 0 0-1.617-1.157h-.035c-.543 0-1.045.272-1.359.711a1.67 1.67 0 0 0-.209 1.513l2.14 6.161h-6.621v3.485h9.117z"/><path d="M474.958,7.677h-10.12c-1.315,0-2.385,1.068-2.385,2.385v.124c-.118-.018-.236-.036-.359-.036-1.322,0-2.393,1.072-2.393,2.394s1.072,2.394,2.393,2.394c.125,0,.246-.018.366-.037.037,1.284,1.086,2.317,2.378,2.317h10.12c1.315,0,2.385-1.068,2.385-2.385v-4.77c0-1.316-1.069-2.385-2.385-2.385Z"/></g><g fill="#0c1b1c"><use href="#H"/><path d="M474.751 12.081c0-.232-.185-.417-.412-.417h-.829c-.232 0-.417.185-.417.417V14.8c0 .232.185.417.417.417h.829c.227 0 .412-.185.412-.417v-2.719zm-.125-6.118H463.64c-1.125 0-2.039.909-2.039 2.038v2.143h10.764c.604 0 1.175-.235 1.602-.664.421-.423.66-.998.66-1.595V5.962z"/><path d="M471.319 5.962h4.981v2.06h-4.981z"/><path d="M474.634,5.963h1.751c.54,0,1.059.214,1.441.595.382.382.597.905.597,1.443v2.143h-1.53c-1.248,0-2.259-1.009-2.259-2.258v-1.923Z"/></g><path d="M474.331 18.83h-8.869l-1.011 13.28a1.58 1.58 0 0 0 1.578 1.703h7.736a1.58 1.58 0 0 0 1.161-.509 1.57 1.57 0 0 0 .416-1.194l-1.011-13.28z" fill="#e49636"/><g fill="#965d9d"><path d="M472.859 18.829a2.96 2.96 0 0 1-5.92 0h5.92zm6.467 16.663l-4.616-4.616c-.735-.735-1.923-.734-2.656-.001l-.302.302a1.88 1.88 0 0 0 .001 2.657l4.301 4.301-5.087 5.148.007.007-.127.034 1.581 5.901.33-.088c.539-.144.993-.496 1.274-.982.277-.476.353-1.054.209-1.589l-.246-.918 5.331-5.331c.64-.639 1-1.506.998-2.413s-.357-1.771-.998-2.411zm-11.96 10.154l5.329-5.33c.64-.639 1-1.506.998-2.413a3.4 3.4 0 0 0-.998-2.411l-4.616-4.616c-.735-.735-1.923-.734-2.656-.001l-.302.302a1.88 1.88 0 0 0 0 2.657l4.301 4.301-5.087 5.148.007.007-.126.034 1.581 5.901.33-.088c.539-.144.993-.496 1.274-.982.277-.476.353-1.054.209-1.589l-.246-.92z"/></g><rect x="512.208" y="66.397" width="80.926" height="22.192" rx="11.096" class="C F"/><path d="M518.473 28.181c.065-.021.068-.015.131-.034.136-.029.223-.006.378.002.489.063.988.406 1.364.925.121.078.187.189.249.299l.099.172 22.286 38.603-3.246-.012-21.47-37.188-.099-.172c-.097-.166-.196-.338-.233-.529-.225-.656-.213-1.287.075-1.699.085-.115.124-.178.235-.248l.111-.065c.061-.027.065-.021.119-.053z" fill="#e9c242"/><path d="M548.682 31.265c-6.823-11.819-21.93-15.866-33.749-9.043s-15.865 21.931-9.043 33.749l42.791-24.706z" class="R"/><g clip-path="url(#C)"><path d="M515.117 21.483c12.81 1.962 24.46 10.763 29.735 22.765 4.108 9.346 4.272 20.491.563 29.854-.136.344-.693.611-1.15.538-3.333-.532-6.62-1.511-9.694-2.887-.981-.438-2.859-1.416-4.425-2.376-11.906-7.297-19.289-21.195-18.452-35.362l.103-1.398c-.049-.37.006-.394.022-.551.382-3.416 1.201-6.769 2.477-9.992.099-.248.2-.633.821-.591zm.306 1.567a37.75 37.75 0 0 0-2.225 9.319s-.175 2.127-.167 4.066c.048 14.127 8.733 27.858 21.848 33.873 0 0 1.043.513 1.88.841a37.63 37.63 0 0 0 7.409 2.052l.088.015c5.161-13.459 1.829-29.775-8.835-40.155a37.76 37.76 0 0 0-19.874-10.088s-.058-.093-.122.077z" fill="#5480e3"/></g><path d="M553.765 59.459h35.657v12.343h-35.657z" fill="#fff"/><path d="M523.996 65.716h-10.088a4.75 4.75 0 0 1-1.478-.23l-1.783-.58a4.79 4.79 0 0 0-3.044.037l-1.435.507c-.522.176-1.044.266-1.565.266H488.34v12.343h9.827c.479 0 .914-.107 1.348-.313l.522-.264a2.97 2.97 0 0 1 2.653 0l.522.264c.435.206.87.313 1.348.313h19.437V65.716z" class="Q"/><g fill="#90d5cc"><path d="M526.034,58.065c.142.012.177.027.256.059.279.114.46.358.468.697v1.677h-.929v-1.504h-2.219v1.504h-.929v-1.677c.024-1.004,1.905-.791,3.353-.756Z"/><path d="M526.593 60.106c-.383.01-.692.319-.692.705v1.183a.86.86 0 0 1-.861.863h-4.355l.099.394-1.232.705c-.94.539-1.523 1.539-1.523 2.625v1.004a1.18 1.18 0 0 0 1.176 1.177h6.6a1.67 1.67 0 0 0 1.669-1.669v-6.088c0-.494-.394-.889-.882-.898z"/></g><g fill="#59afa8"><path d="M525.901 61.994v-1.183c0-.387.309-.695.692-.705l-5.328-.003c-.303 0-.591.142-.779.381a.99.99 0 0 0-.181.846l.381 1.526h4.355a.86.86 0 0 0 .861-.863zm-2.362 3.762a.64.64 0 0 0-.638-.638h-3.443a.64.64 0 0 0-.641.638v1.283a.64.64 0 0 0 .641.638h3.443a.64.64 0 0 0 .638-.638v-1.283z"/></g><path d="M536.836 67.568c-.287.727-.99 1.202-1.771 1.202h-7.627a1.91 1.91 0 0 1-1.771-1.202l-2.663-6.653h16.495l-2.663 6.653z" fill="#e39640"/><path d="M523.947 63.271h14.616l-.791 1.964h-13.086l-.739-1.964z" fill="#e1803a"/><path d="M531.306,56.214c2.245.039,4.245,1.964,4.259,4.305v1.673h-1.552c0-1.453.039-3.052-1.145-3.908-1.601-1.155-4.358-.012-4.372,2.243v1.665h-1.552c0-1.076-.095-2.148.251-3.122.604-1.685,2.202-2.867,4.111-2.855Z" fill="#e39640"/><g class="L"><path d="M574.846,65.657c-.422,0-.766.343-.766.766v1.533c0,.423.343.766.766.766h15.367c.422,0,.766-.343.766-.766v-1.533c0-.423-.344-.766-.766-.766h-15.367Z"/><path d="M590.975 63.797h0a1.86 1.86 0 0 0-1.86 1.861v2.325h1.86v-4.186z"/></g><path d="M578.585 44.705a2.43 2.43 0 0 0-2.257-3.332H563.82a4.78 4.78 0 0 0-4.436 3.006l-2.895 7.249a2.43 2.43 0 0 0 2.257 3.332h12.508a4.78 4.78 0 0 0 4.436-3.006l2.895-7.249z" fill="#f3c546"/><path d="M566.79,52.946c0-1.113-.902-2.015-2.015-2.015h-3.411c-1.113,0-2.015.903-2.015,2.015s.902,2.015,2.015,2.015h3.411c1.113,0,2.015-.903,2.015-2.015Z" class="D"/><path d="M566.169 52.015h3.721v4.186h-3.721z" class="L"/><g class="H"><path d="M574.224,47.209c0-1.112-.903-2.015-2.015-2.015h-8.372c-1.112,0-2.015.903-2.015,2.015v4.031c0,1.112.904,2.015,2.015,2.015h8.372c1.112,0,2.015-.903,2.015-2.015v-4.031Z"/><path d="M560.931 47.749c1.006 0 1.822.816 1.822 1.822a1.82 1.82 0 1 1-3.643 0 1.82 1.82 0 0 1 1.821-1.822z"/></g><g class="D"><path d="M565.544 45.194h6.821v2.481h-6.821z"/><use href="#I"/><path d="M572.371 49.342a.27.27 0 0 0-.27-.273h-.543c-.152 0-.273.121-.273.273v1.78c0 .152.121.273.273.273h.543a.27.27 0 0 0 .27-.273v-1.78z"/></g><path d="M571.898 57.088c-.119-1.47-1.348-2.603-2.823-2.603h-2.305a1.89 1.89 0 0 0-1.887 1.761l-.584 8.252c-.068.966.269 1.914.927 2.621s1.582 1.109 2.55 1.109h.868a2.53 2.53 0 0 0 1.638-.606l2.307-1.974-.69-8.562z" class="R"/><g class="H"><path d="M579.807 59.935a1.88 1.88 0 0 0-1.307-.684 1.87 1.87 0 0 0-1.395.474h0c-.385.345-.611.831-.625 1.347s.183 1.014.547 1.377l6.275 6.275h5.185v-.077a1.74 1.74 0 0 0-1.748-1.748c-.654 0-1.242-.002-1.242-.002l-5.69-6.963z"/><path d="M568.702 64.429a1.86 1.86 0 1 0 1.86 3.222l8.648-4.993a1.86 1.86 0 1 0-1.86-3.222l-8.648 4.993zm-1.285-7.43c.298-.517.299-1.154 0-1.668a1.66 1.66 0 0 0-1.445-.834h-.133c-.595-.002-1.146.318-1.445.834l-5.978 10.355-2.791-.057v1.891l5.702.028 6.091-10.549z"/></g><path d="M564.309,64.418l13.023-4.961v9.268h-9.612c-.905,0-1.77-.36-2.412-.998-.639-.642-.998-1.507-.998-2.412v-.896Z" fill="#b94e98"/><g class="C F"><ellipse cx="620.398" cy="59.714" rx="1.966" ry="1.97" class="B"/><ellipse cx="628.086" cy="60.447" rx="1.966" ry="1.97" class="B"/><ellipse cx="625.238" cy="66.033" rx="1.966" ry="1.97" class="B"/><ellipse cx="643.209" cy="65.915" rx="1.966" ry="1.97" class="B"/><ellipse cx="640.555" cy="52.884" rx="1.966" ry="1.97" class="B"/></g><g class="C F"><ellipse cx="320.414" cy="96.448" rx="1.966" ry="1.97" class="B"/><ellipse cx="328.102" cy="97.18" rx="1.966" ry="1.97" class="B"/><ellipse cx="325.254" cy="102.766" rx="1.966" ry="1.97" class="B"/><ellipse cx="343.225" cy="102.649" rx="1.966" ry="1.97" class="B"/><ellipse cx="340.571" cy="89.617" rx="1.966" ry="1.97" class="B"/></g><g class="C F"><ellipse cx="310.973" cy="4.259" rx="1.966" ry="1.97" class="B"/><ellipse cx="318.661" cy="4.992" rx="1.966" ry="1.97" class="B"/><ellipse cx="315.813" cy="10.578" rx="1.966" ry="1.97" class="B"/><ellipse cx="333.785" cy="10.46" rx="1.966" ry="1.97" class="B"/></g><rect x="1346.7" y="116.802" width="4.037" height="19.003" rx="2.019" transform="matrix(.900691 .434461 -.434461 .900691 188.815 -573.424)" class="S"/><rect x="1324.962" y="121.546" width="4.037" height="19.003" rx="2.019" transform="matrix(.925983 -.377566 .377566 .925983 48.742 510.729)" class="M"/><path d="M1374.465 143.368a3.53 3.53 0 0 0-3.525-3.526h-63.454a3.53 3.53 0 0 0-3.525 3.526 3.53 3.53 0 0 0 3.525 3.525h63.454c1.946 0 3.525-1.579 3.525-3.525z" fill="#f8e37e"/><g fill="#efcd5d"><use href="#J"/><path d="M1388.198 141.922a3.2 3.2 0 0 1 5.578 0l4.922 8.719h-15.423l4.922-8.719zm-95.842-25.778c.569-1.007 1.635-1.628 2.789-1.628a3.2 3.2 0 0 1 2.789 1.628l4.922 8.719h-15.423l4.922-8.719zm-10.381 25.759c.946-1.676 2.72-2.717 4.642-2.717s3.703 1.041 4.649 2.717l8.286 14.685h-25.871l8.293-14.685zm-53.436-24.628c1.006-1.371 2.602-2.182 4.302-2.182s3.296.811 4.302 2.182l8.634 11.772h-25.871l8.633-11.772z"/></g><path d="M1434.645 137.202a3.97 3.97 0 0 0-3.966-3.966h-16.996a3.97 3.97 0 0 0-3.966 3.966 3.97 3.97 0 0 0 3.966 3.966h16.996a3.97 3.97 0 0 0 3.966-3.966z" fill="#f8e37e"/><path d="M1426.853 122.719a8.07 8.07 0 0 1 2.952 11.019 8.07 8.07 0 0 1-11.019 2.953 8.07 8.07 0 0 1-2.952-11.019 8.07 8.07 0 0 1 11.019-2.952z" fill="#8dd5cc"/><g clip-path="url(#D)"><path d="M1421.469 135.964a10.35 10.35 0 0 1-2.764.8 10.35 10.35 0 0 1-.667-2.771l.009-.016a10.42 10.42 0 0 1 6.081-10.512l.009-.016c.88-.396 1.816-.671 2.785-.809.352.897.574 1.831.667 2.772l.003.027c.223 2.284-.312 4.62-1.591 6.622-1.113 1.742-2.692 3.078-4.512 3.896l-.021.009z" fill="#6758c5"/></g><g fill="#fff"><path d="M1428.069 126.557a1.44 1.44 0 0 0-.673-.877c-.332-.192-.726-.243-1.096-.144h0a1.44 1.44 0 0 0-.877.673c-.192.332-.243.726-.144 1.096l.506 1.886c.099.37.341.685.673.877s.726.243 1.096.144.685-.341.877-.673.243-.726.144-1.096l-.505-1.886zm.419 5.251a.77.77 0 0 0-.887-.626h0a.77.77 0 0 0-.626.888c.076.433.472.713.89.641s.699-.47.626-.887z" fill-opacity=".337"/></g><path d="M1317.021 119.117h4.718v3.827h-4.718z" fill="#e8b936"/><path d="M1329.741,135.208c0-2.06-1.672-3.733-3.732-3.733h-11.043c-2.06,0-3.732,1.672-3.732,3.733s1.672,3.732,3.732,3.732h11.043c2.06,0,3.732-1.672,3.732-3.732Z" fill="#ed7663"/><path d="M1325.754,124.813c.159-1.513-.94-2.741-2.452-2.741h-7.789c-1.512,0-2.869,1.228-3.027,2.741l-.575,5.482c-.159,1.513.939,2.741,2.452,2.741h7.789c1.513,0,2.869-1.228,3.028-2.741l.575-5.482Z" fill="#5accb5"/><rect x="1316.018" y="121.546" width="4.037" height="19.003" rx="2.019" transform="matrix(.925983 -.377566 .377566 .925983 48.08 507.351)" class="M"/><path d="M1332.235 112.328l-2.759-.927-1.023-3.005c-.165-.484-.428-.912-.749-1.283 1.06-.347 2.258-.822 2.757-1.321.777-.777.777-2.039 0-2.817s-2.04-.777-2.817 0c-.551.551-1.072 1.951-1.425 3.08-.45-.181-.933-.289-1.439-.289h-10.654c-.424 0-.836.07-1.223.198-.351-1.11-.858-2.448-1.393-2.983-.776-.776-2.035-.776-2.81 0a1.99 1.99 0 0 0 0 2.811c.468.468 1.551.913 2.558 1.253a3.86 3.86 0 0 0-.849 1.49l-.857 2.865-2.613.899c-1.669.573-2.789 2.144-2.789 3.909v.388a4.14 4.14 0 0 0 1.21 2.923 4.13 4.13 0 0 0 2.923 1.211h22.636a4.13 4.13 0 0 0 2.923-1.211c.775-.775 1.211-1.827 1.211-2.923v-.351c0-1.776-1.134-3.353-2.817-3.918z" class="D"/><path d="M1328.194 113.432c0-1.343-1.089-2.432-2.434-2.432h-11.878c-1.345 0-2.433 1.09-2.433 2.432v4.865a2.43 2.43 0 0 0 2.433 2.432h11.878c1.345 0 2.434-1.09 2.434-2.432v-4.865z" class="M"/><g class="D"><path d="M1317.852 115.352c0-.216-.172-.388-.384-.388h-.771c-.216 0-.387.172-.387.388v2.53c0 .216.172.388.387.388h.771c.212 0 .384-.172.384-.388v-2.53zm8.589 0c0-.216-.172-.388-.383-.388h-.771c-.216 0-.388.172-.388.388v2.53c0 .216.172.388.388.388h.771c.211 0 .383-.172.383-.388v-2.53zm-12.016-6.028h11.241v4.249h-11.241z"/></g><circle cx="1310.787" cy="116.052" r="2.424" class="M"/><path d="M1354.483 114.709h4.718v3.827h-4.718z" class="S"/><path d="M1346.481,130.799c0-2.06,1.672-3.732,3.732-3.732h11.043c2.06,0,3.732,1.672,3.732,3.732s-1.672,3.733-3.732,3.733h-11.043c-2.06,0-3.732-1.672-3.732-3.733Z" class="D"/><path d="M1350.469,120.405c-.159-1.513.94-2.741,2.452-2.741h7.789c1.512,0,2.869,1.228,3.027,2.741l.575,5.482c.159,1.513-.939,2.741-2.452,2.741h-7.789c-1.513,0-2.869-1.228-3.028-2.741l-.575-5.482Z" fill="#b94f1c"/><path d="M1365.652,109.661c-.31,0-.605.064-.878.17v-1.642c0-1.497-1.217-2.712-2.713-2.712h-11.32c-1.496,0-2.713,1.215-2.713,2.712v5.425c0,1.498,1.217,2.712,2.713,2.712h11.32c1.258,0,2.308-.863,2.614-2.027.299.132.628.208.977.208,1.338,0,2.424-1.085,2.424-2.424s-1.085-2.423-2.424-2.423Z" fill="#f3ba35"/><g class="D"><path d="M1358.372 110.944c0-.216.172-.388.383-.388h.771c.216 0 .388.172.388.388v2.529c0 .216-.172.387-.388.387h-.771c-.211 0-.383-.172-.383-.387v-2.529zm-8.59 0c0-.216.172-.388.383-.388h.771c.216 0 .388.172.388.388v2.529c0 .216-.172.387-.388.387h-.771c-.212 0-.383-.172-.383-.387v-2.529zm15.672-6.556a3.68 3.68 0 0 0-2.605-1.079h-1.856c-.083-.759-.405-1.473-.95-2.018a3.37 3.37 0 0 0-2.382-.987h-8.749v.464a5.52 5.52 0 0 0 .454 2.192c-.505.246-.98.557-1.385.961-.957.957-1.495 2.256-1.495 3.61v2.67h7.232c1.471 0 2.882-.584 3.922-1.625.636-.636 1.077-1.418 1.343-2.26h.28v.575c0 1.617 1.31 2.927 2.926 2.927h4.345v-2.824c0-.977-.388-1.914-1.079-2.605z"/></g><rect x="1356.324" y="116.802" width="4.037" height="19.003" rx="2.019" transform="matrix(.900691 .434461 -.434461 .900691 189.772 -577.606)" class="S"/><path d="M1368.298 129.709h-2.644v1.638h-2.649v-1.859h-2.644v1.859h-2.641v-1.638h-2.644v1.638h-2.644l.003-13.092h-2.644v1.756h-2.649v-1.756h-2.644v1.756h-2.641v-1.756h-2.644v1.756h-.001v6.315h-2.64v-1.902h-2.644v1.902h-2.649v-1.902h-2.644l.005 7.048h-2.646v-1.763h-2.644v1.763h-2.649v-1.763h-2.644v1.763h-2.641v-1.763h-2.644l.001 14.101 55.526.002-.001-14.103z" fill="#e8b936"/><path d="M1344.173 124.42h2.424v4.186h-2.424z" fill="#dc9728"/><g class="C F"><ellipse cx="773.333" cy="80.471" rx="1.966" ry="1.97" class="B"/><ellipse cx="781.02" cy="81.204" rx="1.966" ry="1.97" class="B"/><ellipse cx="778.173" cy="86.79" rx="1.966" ry="1.97" class="B"/><ellipse cx="796.144" cy="86.672" rx="1.966" ry="1.97" class="B"/><ellipse cx="793.49" cy="73.641" rx="1.966" ry="1.97" class="B"/></g><g class="C F"><ellipse cx="1044.769" cy="63.411" rx="1.966" ry="1.97" transform="matrix(.834608 -.550845 .550845 .834608 137.865 585.99)" class="B"/><ellipse cx="1037.949" cy="67.035" rx="1.966" ry="1.97" transform="matrix(.834608 -.550845 .550845 .834608 134.741 582.832)" class="B"/><ellipse cx="1037.248" cy="60.804" rx="1.966" ry="1.97" transform="matrix(.834608 -.550845 .550845 .834608 138.057 581.416)" class="B"/><ellipse cx="1022.314" cy="70.802" rx="1.966" ry="1.97" transform="matrix(.834608 -.550845 .550845 .834608 130.08 574.843)" class="B"/><ellipse cx="1031.708" cy="80.215" rx="1.966" ry="1.97" transform="matrix(.834608 -.550845 .550845 .834608 126.448 581.574)" class="B"/></g></g></svg>