<svg xmlns="http://www.w3.org/2000/svg" width="1500" height="145" xmlns:v="https://vecta.io/nano"><style><![CDATA[.B{opacity:.6}.C{fill:none}.D{fill:#00a7f3}.E{stroke-linecap:round}.F{stroke-linejoin:round}.G{fill-rule:evenodd}.H{stroke-width:10}.I{fill:#008dca}.J{fill:#00b365}.K{stroke:#00b365}.L{stroke-dasharray:0 10.097}.M{fill:#f2b052}.N{fill:#303248}.O{fill:#071c1c}]]></style><defs><clipPath id="A"><path d="M0 0h1500v145H0z" class="C"/></clipPath><clipPath id="B"><path d="M913.301 1560.214l141.513-141.513c11.084-11.084 17.311-26.117 17.311-41.792v-100.962c0-40.527 32.854-73.381 73.381-73.381h55.92c40.527 0 73.381 32.854 73.381 73.381v63.47c0 32.641 26.461 59.102 59.102 59.102h218.168V614.67h-91.087c-32.307 0-59.01-25.192-60.888-57.445l-.532-144.867c0-39.432-31.966-71.399-71.398-71.399h-173.96c-39.432 0-71.399 31.966-71.399 71.399v334.633c0 16.501-13.377 29.877-29.877 29.877h-83.042c-16.501 0-29.877-13.377-29.877-29.877V534.862c0-10.563-4.196-20.693-11.665-28.161l-31.302-31.302c-7.469-7.469-17.599-11.665-28.161-11.665H597.914c-18.936 0-37.097-7.522-50.486-20.912l-88.768-88.768a71.4 71.4 0 0 0-50.487-20.912H-11.618v1349.02h209.143c18.936 0 37.096-7.522 50.486-20.912l57.63-57.63c13.39-13.39 31.55-20.912 50.486-20.912h502.868a76.8 76.8 0 0 0 54.306-22.494z" class="C"/></clipPath><clipPath id="C"><path d="M1310.87,122.172c0-3.648,2.935-6.609,6.551-6.609h14.327c3.616,0,6.552,2.961,6.552,6.609v11.164c0,3.648-2.936,6.609-6.552,6.609h-14.327c-3.616,0-6.551-2.961-6.551-6.609v-11.164Z" class="C"/></clipPath><path id="D" d="M1262.117 108.574h18.707c1.895 0 3.437 1.542 3.437 3.438v8.147c0 1.896-1.542 3.438-3.437 3.438h-21.187c-1.896 0-3.438-1.542-3.438-3.438v-5.667c0-3.263 2.655-5.918 5.918-5.918zm18.707 13.109c.84 0 1.523-.683 1.523-1.523v-8.147c0-.84-.683-1.523-1.523-1.523h-18.707a4.01 4.01 0 0 0-4.004 4.004v5.667c0 .84.683 1.523 1.523 1.523h21.187z"/><path id="E" d="M1285.785 108.574h21.187c1.896 0 3.438 1.542 3.438 3.438v8.147c0 1.896-1.542 3.438-3.438 3.438h-21.187c-1.896 0-3.438-1.542-3.438-3.438v-8.147c0-1.896 1.542-3.438 3.438-3.438zm21.187 13.109c.84 0 1.523-.683 1.523-1.523v-8.147c0-.84-.683-1.523-1.523-1.523h-21.187c-.84 0-1.523.683-1.523 1.523v8.147c0 .84.683 1.523 1.523 1.523h21.187z"/><path id="F" d="M1338.108 108.574h21.187c1.896 0 3.438 1.542 3.438 3.438v8.147c0 1.896-1.542 3.438-3.438 3.438h-21.187c-1.895 0-3.437-1.542-3.437-3.438v-8.147c0-1.896 1.542-3.438 3.437-3.438zm21.187 13.109c.84 0 1.523-.683 1.523-1.523v-8.147c0-.84-.683-1.523-1.523-1.523h-21.187c-.84 0-1.523.683-1.523 1.523v8.147c0 .84.683 1.523 1.523 1.523h21.187z"/><path id="G" d="M1364.261 108.574h21.187c1.896 0 3.438 1.542 3.438 3.438v8.147c0 1.896-1.542 3.438-3.438 3.438h-21.187c-1.896 0-3.438-1.542-3.438-3.438v-8.147c0-1.896 1.542-3.438 3.438-3.438zm21.186 13.109c.84 0 1.523-.683 1.523-1.523v-8.147c0-.84-.683-1.523-1.523-1.523h-21.187c-.84 0-1.523.683-1.523 1.523v8.147c0 .84.683 1.523 1.523 1.523h21.187z"/><path id="H" d="M1390.408 108.574h21.187c1.896 0 3.438 1.542 3.438 3.438v8.147c0 1.896-1.542 3.438-3.438 3.438h-21.187c-1.896 0-3.438-1.542-3.438-3.438v-8.147c0-1.896 1.542-3.438 3.438-3.438zm21.188 13.109c.84 0 1.523-.683 1.523-1.523v-8.147c0-.84-.683-1.523-1.523-1.523h-21.187c-.84 0-1.523.683-1.523 1.523v8.147c0 .84.683 1.523 1.523 1.523h21.187z"/><path id="I" d="M1494.997 108.574h18.707c3.263 0 5.918 2.655 5.918 5.918v5.667c0 1.896-1.542 3.438-3.438 3.438h-21.187c-1.896 0-3.438-1.542-3.438-3.438v-8.147c0-1.896 1.542-3.438 3.438-3.438zm21.187 13.109c.84 0 1.523-.683 1.523-1.523v-5.667a4.01 4.01 0 0 0-4.003-4.004h-18.707c-.84 0-1.523.683-1.523 1.523v8.147c0 .84.683 1.523 1.523 1.523h21.187z"/><path id="J" d="M1246.58 121.683h21.187c1.896 0 3.438 1.542 3.438 3.438v8.147c0 1.896-1.542 3.438-3.438 3.438h-21.187c-1.896 0-3.438-1.542-3.438-3.438v-8.147c0-1.896 1.542-3.438 3.438-3.438zm21.187 13.108c.84 0 1.523-.683 1.523-1.523v-8.147c0-.84-.683-1.523-1.523-1.523h-21.187c-.84 0-1.523.683-1.523 1.523v8.147c0 .84.683 1.523 1.523 1.523h21.187z"/><path id="K" d="M1298.903 121.683h21.187c1.895 0 3.437 1.542 3.437 3.438v8.147c0 1.896-1.542 3.438-3.437 3.438h-21.187c-1.896 0-3.438-1.542-3.438-3.438v-8.147c0-1.896 1.542-3.438 3.438-3.438zm21.188 13.108c.84 0 1.523-.683 1.523-1.523v-8.147c0-.84-.683-1.523-1.523-1.523h-21.187c-.84 0-1.523.683-1.523 1.523v8.147c0 .84.683 1.523 1.523 1.523h21.187z"/><path id="L" d="M1325.051 121.683h21.187c1.896 0 3.438 1.542 3.438 3.438v8.147c0 1.896-1.542 3.438-3.438 3.438h-21.187c-1.896 0-3.438-1.542-3.438-3.438v-8.147c0-1.896 1.542-3.438 3.438-3.438zm21.188 13.108c.84 0 1.523-.683 1.523-1.523v-8.147c0-.84-.683-1.523-1.523-1.523h-21.187c-.84 0-1.523.683-1.523 1.523v8.147c0 .84.683 1.523 1.523 1.523h21.187z"/><path id="M" d="M1351.203 121.683h21.187c1.896 0 3.438 1.542 3.438 3.438v8.147c0 1.896-1.542 3.438-3.438 3.438h-21.187c-1.895 0-3.437-1.542-3.437-3.438v-8.147c0-1.896 1.542-3.438 3.437-3.438zm21.188 13.108c.84 0 1.523-.683 1.523-1.523v-8.147c0-.84-.683-1.523-1.523-1.523h-21.187c-.84 0-1.523.683-1.523 1.523v8.147c0 .84.683 1.523 1.523 1.523h21.187z"/><path id="N" d="M1259.637 134.791h21.187c1.895 0 3.437 1.542 3.437 3.438v8.147c0 1.896-1.542 3.438-3.437 3.438h-21.187c-1.896 0-3.438-1.542-3.438-3.438v-8.147c0-1.896 1.542-3.438 3.438-3.438zm21.187 13.108c.84 0 1.523-.683 1.523-1.523v-8.147c0-.84-.683-1.523-1.523-1.523h-21.187c-.84 0-1.523.683-1.523 1.523v8.147c0 .84.683 1.523 1.523 1.523h21.187z"/><path id="O" d="M1338.108 134.791h21.187c1.896 0 3.438 1.542 3.438 3.438v8.147c0 1.896-1.542 3.438-3.438 3.438h-21.187c-1.895 0-3.437-1.542-3.437-3.438v-8.147c0-1.896 1.542-3.438 3.437-3.438zm21.187 13.108c.84 0 1.523-.683 1.523-1.523v-8.147c0-.84-.683-1.523-1.523-1.523h-21.187c-.84 0-1.523.683-1.523 1.523v8.147c0 .84.683 1.523 1.523 1.523h21.187z"/><path id="P" d="M1364.261 134.791h21.187c1.896 0 3.438 1.542 3.438 3.438v8.147c0 1.896-1.542 3.438-3.438 3.438h-21.187c-1.896 0-3.438-1.542-3.438-3.438v-8.147c0-1.896 1.542-3.438 3.438-3.438zm21.186 13.108c.84 0 1.523-.683 1.523-1.523v-8.147c0-.84-.683-1.523-1.523-1.523h-21.187c-.84 0-1.523.683-1.523 1.523v8.147c0 .84.683 1.523 1.523 1.523h21.187z"/><path id="Q" d="M1000.604 108.574h18.707c1.896 0 3.438 1.542 3.438 3.438v8.147c0 1.896-1.542 3.438-3.438 3.438h-21.187c-1.896 0-3.438-1.542-3.438-3.438v-5.667c0-3.263 2.655-5.918 5.918-5.918zm18.707 13.109c.84 0 1.523-.683 1.523-1.523v-8.147c0-.84-.683-1.523-1.523-1.523h-18.707a4.01 4.01 0 0 0-4.004 4.004v5.667c0 .84.683 1.523 1.523 1.523h21.187z"/><path id="R" d="M1128.895 108.574h21.187c1.896 0 3.438 1.542 3.438 3.438v8.147c0 1.896-1.542 3.438-3.438 3.438h-21.187c-1.895 0-3.437-1.542-3.437-3.438v-8.147c0-1.896 1.542-3.438 3.437-3.438zm21.188 13.109c.84 0 1.523-.683 1.523-1.523v-8.147c0-.84-.683-1.523-1.523-1.523h-21.187c-.84 0-1.523.683-1.523 1.523v8.147c0 .84.683 1.523 1.523 1.523h21.187z"/><path id="S" d="M1233.484 108.574h18.707c3.263 0 5.918 2.655 5.918 5.918v5.667c0 1.896-1.542 3.438-3.438 3.438h-21.187c-1.896 0-3.438-1.542-3.438-3.438v-8.147c0-1.896 1.542-3.438 3.438-3.438zm21.188 13.109c.84 0 1.523-.683 1.523-1.523v-5.667a4.01 4.01 0 0 0-4.004-4.004h-18.707c-.84 0-1.523.683-1.523 1.523v8.147c0 .84.683 1.523 1.523 1.523h21.187z"/><path id="T" d="M1467.322-51.373a8.58 8.58 0 0 0-8.576-8.576h-105.977a8.58 8.58 0 0 0-8.576 8.576v69.039a8.58 8.58 0 0 0 8.576 8.576h105.977a8.58 8.58 0 0 0 8.576-8.576v-69.039z"/><path id="U" d="M1356.506-87.653h98.503V10.85h-98.503z"/></defs><g clip-path="url(#A)"><path d="M-11.618-1916.127h1523.237V947.512H-11.618z" fill="#04d5d8"/><g opacity=".2"><g clip-path="url(#B)" fill="#97cec8"><use href="#D"/><use href="#E"/><path d="M1311.96 108.574h21.187c1.896 0 3.438 1.542 3.438 3.438v8.147c0 1.896-1.542 3.438-3.438 3.438h-21.187c-1.896 0-3.438-1.542-3.438-3.438v-8.147c0-1.896 1.542-3.438 3.438-3.438zm21.187 13.109c.84 0 1.523-.683 1.523-1.523v-8.147c0-.84-.683-1.523-1.523-1.523h-21.187c-.84 0-1.523.683-1.523 1.523v8.147c0 .84.683 1.523 1.523 1.523h21.187z"/><use href="#F"/><use href="#G"/><use href="#H"/><path d="M1416.584 108.574h21.187c1.896 0 3.438 1.542 3.438 3.438v8.147c0 1.896-1.542 3.438-3.438 3.438h-21.187c-1.896 0-3.438-1.542-3.438-3.438v-8.147c0-1.896 1.542-3.438 3.438-3.438zm21.187 13.109c.84 0 1.523-.683 1.523-1.523v-8.147c0-.84-.683-1.523-1.523-1.523h-21.187c-.84 0-1.523.683-1.523 1.523v8.147c0 .84.683 1.523 1.523 1.523h21.187z"/><path d="M1442.732 108.574h21.187c1.896 0 3.438 1.542 3.438 3.438v8.147c0 1.896-1.542 3.438-3.438 3.438h-21.187c-1.896 0-3.438-1.542-3.438-3.438v-8.147c0-1.896 1.542-3.438 3.438-3.438zm21.187 13.109c.84 0 1.523-.683 1.523-1.523v-8.147c0-.84-.683-1.523-1.523-1.523h-21.187c-.84 0-1.523.683-1.523 1.523v8.147c0 .84.683 1.523 1.523 1.523h21.187z"/><path d="M1468.849 108.574h21.187c1.896 0 3.438 1.542 3.438 3.438v8.147c0 1.896-1.542 3.438-3.438 3.438h-21.187c-1.896 0-3.438-1.542-3.438-3.438v-8.147c0-1.896 1.542-3.438 3.438-3.438zm21.187 13.109c.84 0 1.523-.683 1.523-1.523v-8.147c0-.84-.683-1.523-1.523-1.523h-21.187c-.84 0-1.523.683-1.523 1.523v8.147c0 .84.683 1.523 1.523 1.523h21.187z"/><use href="#I"/><use href="#J"/><path d="M1272.728 121.683h21.187c1.896 0 3.438 1.542 3.438 3.438v8.147c0 1.896-1.542 3.438-3.438 3.438h-21.187c-1.896 0-3.438-1.542-3.438-3.438v-8.147c0-1.896 1.542-3.438 3.438-3.438zm21.187 13.108c.84 0 1.523-.683 1.523-1.523v-8.147c0-.84-.683-1.523-1.523-1.523h-21.187c-.84 0-1.523.683-1.523 1.523v8.147c0 .84.683 1.523 1.523 1.523h21.187z"/><use href="#K"/><use href="#L"/><use href="#M"/><path d="M1377.352 121.683h21.187c1.896 0 3.438 1.542 3.438 3.438v8.147c0 1.896-1.542 3.438-3.438 3.438h-21.187c-1.896 0-3.438-1.542-3.438-3.438v-8.147c0-1.896 1.542-3.438 3.438-3.438zm21.187 13.108c.84 0 1.523-.683 1.523-1.523v-8.147c0-.84-.683-1.523-1.523-1.523h-21.187c-.84 0-1.523.683-1.523 1.523v8.147c0 .84.683 1.523 1.523 1.523h21.187z"/><path d="M1403.527 121.683h21.187c1.896 0 3.438 1.542 3.438 3.438v8.147c0 1.896-1.542 3.438-3.438 3.438h-21.187c-1.896 0-3.438-1.542-3.438-3.438v-8.147c0-1.896 1.542-3.438 3.438-3.438zm21.187 13.108c.84 0 1.523-.683 1.523-1.523v-8.147c0-.84-.683-1.523-1.523-1.523h-21.187c-.84 0-1.523.683-1.523 1.523v8.147c0 .84.683 1.523 1.523 1.523h21.187z"/><path d="M1429.675 121.683h21.187c1.896 0 3.438 1.542 3.438 3.438v8.147c0 1.896-1.542 3.438-3.438 3.438h-21.187c-1.896 0-3.438-1.542-3.438-3.438v-8.147c0-1.896 1.542-3.438 3.438-3.438zm21.188 13.108c.84 0 1.523-.683 1.523-1.523v-8.147c0-.84-.683-1.523-1.523-1.523h-21.187c-.84 0-1.523.683-1.523 1.523v8.147c0 .84.683 1.523 1.523 1.523h21.187z"/><path d="M1455.792 121.683h21.187c1.896 0 3.438 1.542 3.438 3.438v8.147c0 1.896-1.542 3.438-3.438 3.438h-21.187c-1.896 0-3.438-1.542-3.438-3.438v-8.147c0-1.896 1.542-3.438 3.438-3.438zm21.188 13.108c.84 0 1.523-.683 1.523-1.523v-8.147c0-.84-.683-1.523-1.523-1.523h-21.187c-.84 0-1.523.683-1.523 1.523v8.147c0 .84.683 1.523 1.523 1.523h21.187z"/><path d="M1481.941 121.683h21.187c1.896 0 3.438 1.542 3.438 3.438v8.147c0 1.896-1.542 3.438-3.438 3.438h-21.187c-1.896 0-3.438-1.542-3.438-3.438v-8.147c0-1.896 1.542-3.438 3.438-3.438zm21.187 13.108c.84 0 1.523-.683 1.523-1.523v-8.147c0-.84-.683-1.523-1.523-1.523h-21.187c-.84 0-1.523.683-1.523 1.523v8.147c0 .84.683 1.523 1.523 1.523h21.187z"/><use href="#N"/><path d="M1285.785 134.791h21.187c1.896 0 3.438 1.542 3.438 3.438v8.147c0 1.896-1.542 3.438-3.438 3.438h-21.187c-1.896 0-3.438-1.542-3.438-3.438v-8.147c0-1.896 1.542-3.438 3.438-3.438zm21.187 13.108c.84 0 1.523-.683 1.523-1.523v-8.147c0-.84-.683-1.523-1.523-1.523h-21.187c-.84 0-1.523.683-1.523 1.523v8.147c0 .84.683 1.523 1.523 1.523h21.187z"/><path d="M1311.96 134.791h21.187c1.896 0 3.438 1.542 3.438 3.438v8.147c0 1.896-1.542 3.438-3.438 3.438h-21.187c-1.896 0-3.438-1.542-3.438-3.438v-8.147c0-1.896 1.542-3.438 3.438-3.438zm21.187 13.108c.84 0 1.523-.683 1.523-1.523v-8.147c0-.84-.683-1.523-1.523-1.523h-21.187c-.84 0-1.523.683-1.523 1.523v8.147c0 .84.683 1.523 1.523 1.523h21.187z"/><use href="#O"/><use href="#P"/><path d="M1390.408 134.791h21.187c1.896 0 3.438 1.542 3.438 3.438v8.147c0 1.896-1.542 3.438-3.438 3.438h-21.187c-1.896 0-3.438-1.542-3.438-3.438v-8.147c0-1.896 1.542-3.438 3.438-3.438zm21.188 13.108c.84 0 1.523-.683 1.523-1.523v-8.147c0-.84-.683-1.523-1.523-1.523h-21.187c-.84 0-1.523.683-1.523 1.523v8.147c0 .84.683 1.523 1.523 1.523h21.187z"/><path d="M1416.584 134.791h21.187c1.896 0 3.438 1.542 3.438 3.438v8.147c0 1.896-1.542 3.438-3.438 3.438h-21.187c-1.896 0-3.438-1.542-3.438-3.438v-8.147c0-1.896 1.542-3.438 3.438-3.438zm21.187 13.108c.84 0 1.523-.683 1.523-1.523v-8.147c0-.84-.683-1.523-1.523-1.523h-21.187c-.84 0-1.523.683-1.523 1.523v8.147c0 .84.683 1.523 1.523 1.523h21.187z"/><path d="M1442.732 134.791h21.187c1.896 0 3.438 1.542 3.438 3.438v8.147c0 1.896-1.542 3.438-3.438 3.438h-21.187c-1.896 0-3.438-1.542-3.438-3.438v-8.147c0-1.896 1.542-3.438 3.438-3.438zm21.187 13.108c.84 0 1.523-.683 1.523-1.523v-8.147c0-.84-.683-1.523-1.523-1.523h-21.187c-.84 0-1.523.683-1.523 1.523v8.147c0 .84.683 1.523 1.523 1.523h21.187z"/><path d="M1468.849 134.791h21.187c1.896 0 3.438 1.542 3.438 3.438v8.147c0 1.896-1.542 3.438-3.438 3.438h-21.187c-1.896 0-3.438-1.542-3.438-3.438v-8.147c0-1.896 1.542-3.438 3.438-3.438zm21.187 13.108c.84 0 1.523-.683 1.523-1.523v-8.147c0-.84-.683-1.523-1.523-1.523h-21.187c-.84 0-1.523.683-1.523 1.523v8.147c0 .84.683 1.523 1.523 1.523h21.187z"/><path d="M1494.997 134.791h21.187c1.896 0 3.438 1.542 3.438 3.438v8.147c0 1.896-1.542 3.438-3.438 3.438h-21.187c-1.896 0-3.438-1.542-3.438-3.438v-8.147c0-1.896 1.542-3.438 3.438-3.438zm21.187 13.108c.84 0 1.523-.683 1.523-1.523v-8.147c0-.84-.683-1.523-1.523-1.523h-21.187c-.84 0-1.523.683-1.523 1.523v8.147c0 .84.683 1.523 1.523 1.523h21.187z"/><use href="#Q"/><path d="M1024.272 108.574h21.187c1.896 0 3.438 1.542 3.438 3.438v8.147c0 1.896-1.542 3.438-3.438 3.438h-21.187c-1.896 0-3.438-1.542-3.438-3.438v-8.147c0-1.896 1.542-3.438 3.438-3.438zm21.187 13.109c.84 0 1.523-.683 1.523-1.523v-8.147c0-.84-.683-1.523-1.523-1.523h-21.187c-.84 0-1.523.683-1.523 1.523v8.147c0 .84.683 1.523 1.523 1.523h21.187z"/><path d="M1050.447 108.574h21.187c1.896 0 3.438 1.542 3.438 3.438v8.147c0 1.896-1.542 3.438-3.438 3.438h-21.187c-1.896 0-3.438-1.542-3.438-3.438v-8.147c0-1.896 1.542-3.438 3.438-3.438zm21.187 13.109c.84 0 1.523-.683 1.523-1.523v-8.147c0-.84-.683-1.523-1.523-1.523h-21.187c-.84 0-1.523.683-1.523 1.523v8.147c0 .84.683 1.523 1.523 1.523h21.187z"/><path d="M1076.595 108.574h21.187c1.896 0 3.438 1.542 3.438 3.438v8.147c0 1.896-1.542 3.438-3.438 3.438h-21.187c-1.896 0-3.438-1.542-3.438-3.438v-8.147c0-1.896 1.542-3.438 3.438-3.438zm21.187 13.109c.84 0 1.523-.683 1.523-1.523v-8.147c0-.84-.683-1.523-1.523-1.523h-21.187c-.84 0-1.523.683-1.523 1.523v8.147c0 .84.683 1.523 1.523 1.523h21.187z"/><path d="M1102.747 108.574h21.187c1.896 0 3.438 1.542 3.438 3.438v8.147c0 1.896-1.542 3.438-3.438 3.438h-21.187c-1.896 0-3.438-1.542-3.438-3.438v-8.147c0-1.896 1.542-3.438 3.438-3.438zm21.188 13.109c.84 0 1.523-.683 1.523-1.523v-8.147c0-.84-.683-1.523-1.523-1.523h-21.187c-.84 0-1.523.683-1.523 1.523v8.147c0 .84.683 1.523 1.523 1.523h21.187z"/><use href="#R"/><path d="M1155.071 108.574h21.187c1.896 0 3.438 1.542 3.438 3.438v8.147c0 1.896-1.542 3.438-3.438 3.438h-21.187c-1.896 0-3.438-1.542-3.438-3.438v-8.147c0-1.896 1.542-3.438 3.438-3.438zm21.187 13.109c.84 0 1.523-.683 1.523-1.523v-8.147c0-.84-.683-1.523-1.523-1.523h-21.187c-.84 0-1.523.683-1.523 1.523v8.147c0 .84.683 1.523 1.523 1.523h21.187z"/><path d="M1181.219 108.574h21.187c1.896 0 3.438 1.542 3.438 3.438v8.147c0 1.896-1.542 3.438-3.438 3.438h-21.187c-1.895 0-3.437-1.542-3.437-3.438v-8.147c0-1.896 1.542-3.438 3.437-3.438zm21.187 13.109c.84 0 1.523-.683 1.523-1.523v-8.147c0-.84-.683-1.523-1.523-1.523h-21.187c-.84 0-1.523.683-1.523 1.523v8.147c0 .84.683 1.523 1.523 1.523h21.187z"/><path d="M1207.336 108.574h21.187c1.896 0 3.438 1.542 3.438 3.438v8.147c0 1.896-1.542 3.438-3.438 3.438h-21.187c-1.896 0-3.438-1.542-3.438-3.438v-8.147c0-1.896 1.542-3.438 3.438-3.438zm21.187 13.109c.84 0 1.523-.683 1.523-1.523v-8.147c0-.84-.683-1.523-1.523-1.523h-21.187c-.84 0-1.523.683-1.523 1.523v8.147c0 .84.683 1.523 1.523 1.523h21.187z"/><use href="#S"/><path d="M985.067 121.683h21.187c1.896 0 3.438 1.542 3.438 3.438v8.147c0 1.896-1.542 3.438-3.438 3.438h-21.187c-1.896 0-3.438-1.542-3.438-3.438v-8.147c0-1.896 1.542-3.438 3.438-3.438zm21.187 13.108c.84 0 1.523-.683 1.523-1.523v-8.147c0-.84-.683-1.523-1.523-1.523h-21.187c-.84 0-1.523.683-1.523 1.523v8.147c0 .84.683 1.523 1.523 1.523h21.187z"/><path d="M1011.215 121.683h21.187c1.896 0 3.438 1.542 3.438 3.438v8.147c0 1.896-1.542 3.438-3.438 3.438h-21.187c-1.895 0-3.437-1.542-3.437-3.438v-8.147c0-1.896 1.542-3.438 3.437-3.438zm21.187 13.108c.84 0 1.523-.683 1.523-1.523v-8.147c0-.84-.683-1.523-1.523-1.523h-21.187c-.84 0-1.523.683-1.523 1.523v8.147c0 .84.683 1.523 1.523 1.523h21.187zm214.174-13.108h21.187c1.896 0 3.438 1.542 3.438 3.438v8.147c0 1.896-1.542 3.438-3.438 3.438h-21.187c-1.896 0-3.438-1.542-3.438-3.438v-8.147c0-1.896 1.542-3.438 3.438-3.438zm21.187 13.108c.84 0 1.523-.683 1.523-1.523v-8.147c0-.84-.683-1.523-1.523-1.523h-21.187c-.84 0-1.523.683-1.523 1.523v8.147c0 .84.683 1.523 1.523 1.523h21.187z"/><path d="M1037.39 121.683h21.187c1.896 0 3.438 1.542 3.438 3.438v8.147c0 1.896-1.542 3.438-3.438 3.438h-21.187c-1.896 0-3.438-1.542-3.438-3.438v-8.147c0-1.896 1.542-3.438 3.438-3.438zm21.188 13.108c.84 0 1.523-.683 1.523-1.523v-8.147c0-.84-.683-1.523-1.523-1.523h-21.187c-.84 0-1.523.683-1.523 1.523v8.147c0 .84.683 1.523 1.523 1.523h21.187z"/><path d="M1063.539 121.683h21.187c1.896 0 3.438 1.542 3.438 3.438v8.147c0 1.896-1.542 3.438-3.438 3.438h-21.187c-1.896 0-3.438-1.542-3.438-3.438v-8.147c0-1.896 1.542-3.438 3.438-3.438zm21.187 13.108c.84 0 1.523-.683 1.523-1.523v-8.147c0-.84-.683-1.523-1.523-1.523h-21.187c-.84 0-1.523.683-1.523 1.523v8.147c0 .84.683 1.523 1.523 1.523h21.187z"/><path d="M1089.691 121.683h21.187c1.895 0 3.437 1.542 3.437 3.438v8.147c0 1.896-1.542 3.438-3.437 3.438h-21.187c-1.896 0-3.438-1.542-3.438-3.438v-8.147c0-1.896 1.542-3.438 3.438-3.438zm21.187 13.108c.84 0 1.523-.683 1.523-1.523v-8.147c0-.84-.683-1.523-1.523-1.523h-21.187c-.84 0-1.523.683-1.523 1.523v8.147c0 .84.683 1.523 1.523 1.523h21.187z"/><path d="M1115.839 121.683h21.187c1.896 0 3.438 1.542 3.438 3.438v8.147c0 1.896-1.542 3.438-3.438 3.438h-21.187c-1.896 0-3.438-1.542-3.438-3.438v-8.147c0-1.896 1.542-3.438 3.438-3.438zm21.187 13.108c.84 0 1.523-.683 1.523-1.523v-8.147c0-.84-.683-1.523-1.523-1.523h-21.187c-.84 0-1.523.683-1.523 1.523v8.147c0 .84.683 1.523 1.523 1.523h21.187z"/><path d="M1142.014 121.683h21.187c1.895 0 3.437 1.542 3.437 3.438v8.147c0 1.896-1.542 3.438-3.437 3.438h-21.187c-1.896 0-3.438-1.542-3.438-3.438v-8.147c0-1.896 1.542-3.438 3.438-3.438zm21.188 13.108c.84 0 1.523-.683 1.523-1.523v-8.147c0-.84-.683-1.523-1.523-1.523h-21.187c-.84 0-1.523.683-1.523 1.523v8.147c0 .84.683 1.523 1.523 1.523h21.187z"/><path d="M1168.162 121.683h21.187c1.896 0 3.438 1.542 3.438 3.438v8.147c0 1.896-1.542 3.438-3.438 3.438h-21.187c-1.896 0-3.438-1.542-3.438-3.438v-8.147c0-1.896 1.542-3.438 3.438-3.438zm21.187 13.108c.84 0 1.523-.683 1.523-1.523v-8.147c0-.84-.683-1.523-1.523-1.523h-21.187c-.84 0-1.523.683-1.523 1.523v8.147c0 .84.683 1.523 1.523 1.523h21.187z"/><path d="M1194.279 121.683h21.187c1.896 0 3.438 1.542 3.438 3.438v8.147c0 1.896-1.542 3.438-3.438 3.438h-21.187c-1.896 0-3.438-1.542-3.438-3.438v-8.147c0-1.896 1.542-3.438 3.438-3.438zm21.188 13.108c.84 0 1.523-.683 1.523-1.523v-8.147c0-.84-.683-1.523-1.523-1.523h-21.187c-.84 0-1.523.683-1.523 1.523v8.147c0 .84.683 1.523 1.523 1.523h21.187z"/><path d="M1220.428 121.683h21.187c1.895 0 3.437 1.542 3.437 3.438v8.147c0 1.896-1.542 3.438-3.437 3.438h-21.187c-1.896 0-3.438-1.542-3.438-3.438v-8.147c0-1.896 1.542-3.438 3.438-3.438zm21.187 13.108c.84 0 1.523-.683 1.523-1.523v-8.147c0-.84-.683-1.523-1.523-1.523h-21.187c-.84 0-1.523.683-1.523 1.523v8.147c0 .84.683 1.523 1.523 1.523h21.187zm-243.491 0h21.187c1.896 0 3.438 1.542 3.438 3.438v8.147c0 1.896-1.542 3.438-3.438 3.438h-21.187c-1.896 0-3.438-1.542-3.438-3.438v-8.147c0-1.896 1.542-3.438 3.438-3.438zm21.187 13.108c.84 0 1.523-.683 1.523-1.523v-8.147c0-.84-.683-1.523-1.523-1.523h-21.187c-.84 0-1.523.683-1.523 1.523v8.147c0 .84.683 1.523 1.523 1.523h21.187z"/><path d="M1024.272 134.791h21.187c1.896 0 3.438 1.542 3.438 3.438v8.147c0 1.896-1.542 3.438-3.438 3.438h-21.187c-1.896 0-3.438-1.542-3.438-3.438v-8.147c0-1.896 1.542-3.438 3.438-3.438zm21.187 13.108c.84 0 1.523-.683 1.523-1.523v-8.147c0-.84-.683-1.523-1.523-1.523h-21.187c-.84 0-1.523.683-1.523 1.523v8.147c0 .84.683 1.523 1.523 1.523h21.187z"/><path d="M1050.447 134.791h21.187c1.896 0 3.438 1.542 3.438 3.438v8.147c0 1.896-1.542 3.438-3.438 3.438h-21.187c-1.896 0-3.438-1.542-3.438-3.438v-8.147c0-1.896 1.542-3.438 3.438-3.438zm21.187 13.108c.84 0 1.523-.683 1.523-1.523v-8.147c0-.84-.683-1.523-1.523-1.523h-21.187c-.84 0-1.523.683-1.523 1.523v8.147c0 .84.683 1.523 1.523 1.523h21.187z"/><path d="M1076.595 134.791h21.187c1.896 0 3.438 1.542 3.438 3.438v8.147c0 1.896-1.542 3.438-3.438 3.438h-21.187c-1.896 0-3.438-1.542-3.438-3.438v-8.147c0-1.896 1.542-3.438 3.438-3.438zm21.187 13.108c.84 0 1.523-.683 1.523-1.523v-8.147c0-.84-.683-1.523-1.523-1.523h-21.187c-.84 0-1.523.683-1.523 1.523v8.147c0 .84.683 1.523 1.523 1.523h21.187z"/><path d="M1102.747 134.791h21.187c1.896 0 3.438 1.542 3.438 3.438v8.147c0 1.896-1.542 3.438-3.438 3.438h-21.187c-1.896 0-3.438-1.542-3.438-3.438v-8.147c0-1.896 1.542-3.438 3.438-3.438zm21.188 13.108c.84 0 1.523-.683 1.523-1.523v-8.147c0-.84-.683-1.523-1.523-1.523h-21.187c-.84 0-1.523.683-1.523 1.523v8.147c0 .84.683 1.523 1.523 1.523h21.187z"/><path d="M1128.895 134.791h21.187c1.896 0 3.438 1.542 3.438 3.438v8.147c0 1.896-1.542 3.438-3.438 3.438h-21.187c-1.895 0-3.437-1.542-3.437-3.438v-8.147c0-1.896 1.542-3.438 3.437-3.438zm21.188 13.108c.84 0 1.523-.683 1.523-1.523v-8.147c0-.84-.683-1.523-1.523-1.523h-21.187c-.84 0-1.523.683-1.523 1.523v8.147c0 .84.683 1.523 1.523 1.523h21.187z"/><path d="M1155.071 134.791h21.187c1.896 0 3.438 1.542 3.438 3.438v8.147c0 1.896-1.542 3.438-3.438 3.438h-21.187c-1.896 0-3.438-1.542-3.438-3.438v-8.147c0-1.896 1.542-3.438 3.438-3.438zm21.187 13.108c.84 0 1.523-.683 1.523-1.523v-8.147c0-.84-.683-1.523-1.523-1.523h-21.187c-.84 0-1.523.683-1.523 1.523v8.147c0 .84.683 1.523 1.523 1.523h21.187z"/><path d="M1181.219 134.791h21.187c1.896 0 3.438 1.542 3.438 3.438v8.147c0 1.896-1.542 3.438-3.438 3.438h-21.187c-1.895 0-3.437-1.542-3.437-3.438v-8.147c0-1.896 1.542-3.438 3.437-3.438zm21.187 13.108c.84 0 1.523-.683 1.523-1.523v-8.147c0-.84-.683-1.523-1.523-1.523h-21.187c-.84 0-1.523.683-1.523 1.523v8.147c0 .84.683 1.523 1.523 1.523h21.187z"/><path d="M1207.336 134.791h21.187c1.896 0 3.438 1.542 3.438 3.438v8.147c0 1.896-1.542 3.438-3.438 3.438h-21.187c-1.896 0-3.438-1.542-3.438-3.438v-8.147c0-1.896 1.542-3.438 3.438-3.438zm21.187 13.108c.84 0 1.523-.683 1.523-1.523v-8.147c0-.84-.683-1.523-1.523-1.523h-21.187c-.84 0-1.523.683-1.523 1.523v8.147c0 .84.683 1.523 1.523 1.523h21.187z"/><path d="M1233.484 134.791h21.187c1.896 0 3.438 1.542 3.438 3.438v8.147c0 1.896-1.542 3.438-3.438 3.438h-21.187c-1.896 0-3.438-1.542-3.438-3.438v-8.147c0-1.896 1.542-3.438 3.438-3.438zm21.188 13.108c.84 0 1.523-.683 1.523-1.523v-8.147c0-.84-.683-1.523-1.523-1.523h-21.187c-.84 0-1.523.683-1.523 1.523v8.147c0 .84.683 1.523 1.523 1.523h21.187zM739.05 108.574h18.707c1.895 0 3.437 1.542 3.437 3.438v8.147c0 1.896-1.542 3.438-3.437 3.438H736.57c-1.896 0-3.438-1.542-3.438-3.438v-5.667c0-3.263 2.655-5.918 5.918-5.918zm18.707 13.109c.84 0 1.523-.683 1.523-1.523v-8.147c0-.84-.683-1.523-1.523-1.523H739.05a4.01 4.01 0 0 0-4.004 4.004v5.667c0 .84.683 1.523 1.523 1.523h21.187z"/><path d="M762.718 108.574h21.187c1.896 0 3.438 1.542 3.438 3.438v8.147c0 1.896-1.542 3.438-3.438 3.438h-21.187c-1.896 0-3.438-1.542-3.438-3.438v-8.147c0-1.896 1.542-3.438 3.438-3.438zm21.187 13.109c.84 0 1.523-.683 1.523-1.523v-8.147c0-.84-.683-1.523-1.523-1.523h-21.187c-.84 0-1.523.683-1.523 1.523v8.147c0 .84.683 1.523 1.523 1.523h21.187z"/><path d="M788.893 108.574h21.187c1.896 0 3.438 1.542 3.438 3.438v8.147c0 1.896-1.542 3.438-3.438 3.438h-21.187c-1.896 0-3.438-1.542-3.438-3.438v-8.147c0-1.896 1.542-3.438 3.438-3.438zm21.188 13.109c.84 0 1.523-.683 1.523-1.523v-8.147c0-.84-.683-1.523-1.523-1.523h-21.187c-.84 0-1.523.683-1.523 1.523v8.147c0 .84.683 1.523 1.523 1.523h21.187z"/><path d="M815.041 108.574h21.187c1.896 0 3.438 1.542 3.438 3.438v8.147c0 1.896-1.542 3.438-3.438 3.438h-21.187c-1.895 0-3.437-1.542-3.437-3.438v-8.147c0-1.896 1.542-3.438 3.437-3.438zm21.187 13.109c.84 0 1.523-.683 1.523-1.523v-8.147c0-.84-.683-1.523-1.523-1.523h-21.187c-.84 0-1.523.683-1.523 1.523v8.147c0 .84.683 1.523 1.523 1.523h21.187z"/><path d="M841.194 108.574h21.187c1.896 0 3.438 1.542 3.438 3.438v8.147c0 1.896-1.542 3.438-3.438 3.438h-21.187c-1.896 0-3.438-1.542-3.438-3.438v-8.147c0-1.896 1.542-3.438 3.438-3.438zm21.187 13.109c.84 0 1.523-.683 1.523-1.523v-8.147c0-.84-.683-1.523-1.523-1.523h-21.187c-.84 0-1.523.683-1.523 1.523v8.147c0 .84.683 1.523 1.523 1.523h21.187z"/><path d="M867.342 108.574h21.187c1.896 0 3.438 1.542 3.438 3.438v8.147c0 1.896-1.542 3.438-3.438 3.438h-21.187c-1.896 0-3.438-1.542-3.438-3.438v-8.147c0-1.896 1.542-3.438 3.438-3.438zm21.187 13.109c.84 0 1.523-.683 1.523-1.523v-8.147c0-.84-.683-1.523-1.523-1.523h-21.187c-.84 0-1.523.683-1.523 1.523v8.147c0 .84.683 1.523 1.523 1.523h21.187z"/><path d="M893.517 108.574h21.187c1.896 0 3.438 1.542 3.438 3.438v8.147c0 1.896-1.542 3.438-3.438 3.438h-21.187c-1.896 0-3.438-1.542-3.438-3.438v-8.147c0-1.896 1.542-3.438 3.438-3.438zm21.187 13.109c.84 0 1.523-.683 1.523-1.523v-8.147c0-.84-.683-1.523-1.523-1.523h-21.187c-.84 0-1.523.683-1.523 1.523v8.147c0 .84.683 1.523 1.523 1.523h21.187z"/><path d="M919.665 108.574h21.187c1.896 0 3.438 1.542 3.438 3.438v8.147c0 1.896-1.542 3.438-3.438 3.438h-21.187c-1.896 0-3.438-1.542-3.438-3.438v-8.147c0-1.896 1.542-3.438 3.438-3.438zm21.187 13.109c.84 0 1.523-.683 1.523-1.523v-8.147c0-.84-.683-1.523-1.523-1.523h-21.187c-.84 0-1.523.683-1.523 1.523v8.147c0 .84.683 1.523 1.523 1.523h21.187z"/><path d="M945.782 108.574h21.187c1.896 0 3.438 1.542 3.438 3.438v8.147c0 1.896-1.542 3.438-3.438 3.438h-21.187c-1.896 0-3.438-1.542-3.438-3.438v-8.147c0-1.896 1.542-3.438 3.438-3.438zm21.188 13.109c.84 0 1.523-.683 1.523-1.523v-8.147c0-.84-.683-1.523-1.523-1.523h-21.187c-.84 0-1.523.683-1.523 1.523v8.147c0 .84.683 1.523 1.523 1.523h21.187z"/><path d="M971.931 108.574h18.707c3.263 0 5.918 2.655 5.918 5.918v5.667c0 1.896-1.542 3.438-3.438 3.438h-21.187c-1.896 0-3.438-1.542-3.438-3.438v-8.147c0-1.896 1.542-3.438 3.438-3.438zm21.187 13.109c.84 0 1.523-.683 1.523-1.523v-5.667a4.01 4.01 0 0 0-4.003-4.004h-18.707c-.84 0-1.523.683-1.523 1.523v8.147c0 .84.683 1.523 1.523 1.523h21.187zm-269.605 0H744.7c1.896 0 3.438 1.542 3.438 3.438v8.147c0 1.896-1.542 3.438-3.438 3.438h-21.187c-1.896 0-3.438-1.542-3.438-3.438v-8.147c0-1.896 1.542-3.438 3.438-3.438zm21.187 13.108c.84 0 1.523-.683 1.523-1.523v-8.147c0-.84-.683-1.523-1.523-1.523h-21.187c-.84 0-1.523.683-1.523 1.523v8.147c0 .84.683 1.523 1.523 1.523H744.7z"/><path d="M749.661 121.683h21.187c1.896 0 3.438 1.542 3.438 3.438v8.147c0 1.896-1.542 3.438-3.438 3.438h-21.187c-1.896 0-3.438-1.542-3.438-3.438v-8.147c0-1.896 1.542-3.438 3.438-3.438zm21.188 13.108c.84 0 1.523-.683 1.523-1.523v-8.147c0-.84-.683-1.523-1.523-1.523h-21.187c-.84 0-1.523.683-1.523 1.523v8.147c0 .84.683 1.523 1.523 1.523h21.187zm214.173-13.108h21.187c1.896 0 3.438 1.542 3.438 3.438v8.147c0 1.896-1.542 3.438-3.438 3.438h-21.187c-1.896 0-3.438-1.542-3.438-3.438v-8.147c0-1.896 1.542-3.438 3.438-3.438zm21.188 13.108c.84 0 1.523-.683 1.523-1.523v-8.147c0-.84-.683-1.523-1.523-1.523h-21.187c-.84 0-1.523.683-1.523 1.523v8.147c0 .84.683 1.523 1.523 1.523h21.187z"/><path d="M775.837 121.683h21.187c1.895 0 3.437 1.542 3.437 3.438v8.147c0 1.896-1.542 3.438-3.437 3.438h-21.187c-1.896 0-3.438-1.542-3.438-3.438v-8.147c0-1.896 1.542-3.438 3.438-3.438zm21.187 13.108c.84 0 1.523-.683 1.523-1.523v-8.147c0-.84-.683-1.523-1.523-1.523h-21.187c-.84 0-1.523.683-1.523 1.523v8.147c0 .84.683 1.523 1.523 1.523h21.187z"/><path d="M801.984 121.683h21.187c1.896 0 3.438 1.542 3.438 3.438v8.147c0 1.896-1.542 3.438-3.438 3.438h-21.187c-1.896 0-3.438-1.542-3.438-3.438v-8.147c0-1.896 1.542-3.438 3.438-3.438zm21.188 13.108c.84 0 1.523-.683 1.523-1.523v-8.147c0-.84-.683-1.523-1.523-1.523h-21.187c-.84 0-1.523.683-1.523 1.523v8.147c0 .84.683 1.523 1.523 1.523h21.187z"/><path d="M828.137 121.683h21.187c1.896 0 3.438 1.542 3.438 3.438v8.147c0 1.896-1.542 3.438-3.438 3.438h-21.187c-1.895 0-3.437-1.542-3.437-3.438v-8.147c0-1.896 1.542-3.438 3.437-3.438zm21.187 13.108c.84 0 1.523-.683 1.523-1.523v-8.147c0-.84-.683-1.523-1.523-1.523h-21.187c-.84 0-1.523.683-1.523 1.523v8.147c0 .84.683 1.523 1.523 1.523h21.187z"/><path d="M854.285 121.683h21.187c1.896 0 3.438 1.542 3.438 3.438v8.147c0 1.896-1.542 3.438-3.438 3.438h-21.187c-1.896 0-3.438-1.542-3.438-3.438v-8.147c0-1.896 1.542-3.438 3.438-3.438zm21.188 13.108c.84 0 1.523-.683 1.523-1.523v-8.147c0-.84-.683-1.523-1.523-1.523h-21.187c-.84 0-1.523.683-1.523 1.523v8.147c0 .84.683 1.523 1.523 1.523h21.187z"/><path d="M880.461 121.683h21.187c1.896 0 3.438 1.542 3.438 3.438v8.147c0 1.896-1.542 3.438-3.438 3.438h-21.187c-1.896 0-3.438-1.542-3.438-3.438v-8.147c0-1.896 1.542-3.438 3.438-3.438zm21.186 13.108c.84 0 1.523-.683 1.523-1.523v-8.147c0-.84-.683-1.523-1.523-1.523H880.46c-.84 0-1.523.683-1.523 1.523v8.147c0 .84.683 1.523 1.523 1.523h21.187z"/><path d="M906.608 121.683h21.187c1.896 0 3.438 1.542 3.438 3.438v8.147c0 1.896-1.542 3.438-3.438 3.438h-21.187c-1.896 0-3.438-1.542-3.438-3.438v-8.147c0-1.896 1.542-3.438 3.438-3.438zm21.188 13.108c.84 0 1.523-.683 1.523-1.523v-8.147c0-.84-.683-1.523-1.523-1.523h-21.187c-.84 0-1.523.683-1.523 1.523v8.147c0 .84.683 1.523 1.523 1.523h21.187z"/><path d="M932.726 121.683h21.187c1.896 0 3.438 1.542 3.438 3.438v8.147c0 1.896-1.542 3.438-3.438 3.438h-21.187c-1.896 0-3.438-1.542-3.438-3.438v-8.147c0-1.896 1.542-3.438 3.438-3.438zm21.187 13.108c.84 0 1.523-.683 1.523-1.523v-8.147c0-.84-.683-1.523-1.523-1.523h-21.187c-.84 0-1.523.683-1.523 1.523v8.147c0 .84.683 1.523 1.523 1.523h21.187z"/><path d="M958.874 121.683h21.187c1.896 0 3.438 1.542 3.438 3.438v8.147c0 1.896-1.542 3.438-3.438 3.438h-21.187c-1.896 0-3.438-1.542-3.438-3.438v-8.147c0-1.896 1.542-3.438 3.438-3.438zm21.187 13.108c.84 0 1.523-.683 1.523-1.523v-8.147c0-.84-.683-1.523-1.523-1.523h-21.187c-.84 0-1.523.683-1.523 1.523v8.147c0 .84.683 1.523 1.523 1.523h21.187zm-243.491 0h21.187c1.895 0 3.437 1.542 3.437 3.438v8.147c0 1.896-1.542 3.438-3.437 3.438H736.57c-1.896 0-3.438-1.542-3.438-3.438v-8.147c0-1.896 1.542-3.438 3.438-3.438zm21.187 13.108c.84 0 1.523-.683 1.523-1.523v-8.147c0-.84-.683-1.523-1.523-1.523H736.57c-.84 0-1.523.683-1.523 1.523v8.147c0 .84.683 1.523 1.523 1.523h21.187z"/><path d="M762.718 134.791h21.187c1.896 0 3.438 1.542 3.438 3.438v8.147c0 1.896-1.542 3.438-3.438 3.438h-21.187c-1.896 0-3.438-1.542-3.438-3.438v-8.147c0-1.896 1.542-3.438 3.438-3.438zm21.187 13.108c.84 0 1.523-.683 1.523-1.523v-8.147c0-.84-.683-1.523-1.523-1.523h-21.187c-.84 0-1.523.683-1.523 1.523v8.147c0 .84.683 1.523 1.523 1.523h21.187z"/><path d="M788.893 134.791h21.187c1.896 0 3.438 1.542 3.438 3.438v8.147c0 1.896-1.542 3.438-3.438 3.438h-21.187c-1.896 0-3.438-1.542-3.438-3.438v-8.147c0-1.896 1.542-3.438 3.438-3.438zm21.188 13.108c.84 0 1.523-.683 1.523-1.523v-8.147c0-.84-.683-1.523-1.523-1.523h-21.187c-.84 0-1.523.683-1.523 1.523v8.147c0 .84.683 1.523 1.523 1.523h21.187z"/><path d="M815.041 134.791h21.187c1.896 0 3.438 1.542 3.438 3.438v8.147c0 1.896-1.542 3.438-3.438 3.438h-21.187c-1.895 0-3.437-1.542-3.437-3.438v-8.147c0-1.896 1.542-3.438 3.437-3.438zm21.187 13.108c.84 0 1.523-.683 1.523-1.523v-8.147c0-.84-.683-1.523-1.523-1.523h-21.187c-.84 0-1.523.683-1.523 1.523v8.147c0 .84.683 1.523 1.523 1.523h21.187z"/><path d="M841.194 134.791h21.187c1.896 0 3.438 1.542 3.438 3.438v8.147c0 1.896-1.542 3.438-3.438 3.438h-21.187c-1.896 0-3.438-1.542-3.438-3.438v-8.147c0-1.896 1.542-3.438 3.438-3.438zm21.187 13.108c.84 0 1.523-.683 1.523-1.523v-8.147c0-.84-.683-1.523-1.523-1.523h-21.187c-.84 0-1.523.683-1.523 1.523v8.147c0 .84.683 1.523 1.523 1.523h21.187z"/><path d="M867.342 134.791h21.187c1.896 0 3.438 1.542 3.438 3.438v8.147c0 1.896-1.542 3.438-3.438 3.438h-21.187c-1.896 0-3.438-1.542-3.438-3.438v-8.147c0-1.896 1.542-3.438 3.438-3.438zm21.187 13.108c.84 0 1.523-.683 1.523-1.523v-8.147c0-.84-.683-1.523-1.523-1.523h-21.187c-.84 0-1.523.683-1.523 1.523v8.147c0 .84.683 1.523 1.523 1.523h21.187z"/><path d="M893.517 134.791h21.187c1.896 0 3.438 1.542 3.438 3.438v8.147c0 1.896-1.542 3.438-3.438 3.438h-21.187c-1.896 0-3.438-1.542-3.438-3.438v-8.147c0-1.896 1.542-3.438 3.438-3.438zm21.187 13.108c.84 0 1.523-.683 1.523-1.523v-8.147c0-.84-.683-1.523-1.523-1.523h-21.187c-.84 0-1.523.683-1.523 1.523v8.147c0 .84.683 1.523 1.523 1.523h21.187z"/><path d="M919.665 134.791h21.187c1.896 0 3.438 1.542 3.438 3.438v8.147c0 1.896-1.542 3.438-3.438 3.438h-21.187c-1.896 0-3.438-1.542-3.438-3.438v-8.147c0-1.896 1.542-3.438 3.438-3.438zm21.187 13.108c.84 0 1.523-.683 1.523-1.523v-8.147c0-.84-.683-1.523-1.523-1.523h-21.187c-.84 0-1.523.683-1.523 1.523v8.147c0 .84.683 1.523 1.523 1.523h21.187z"/><path d="M945.782 134.791h21.187c1.896 0 3.438 1.542 3.438 3.438v8.147c0 1.896-1.542 3.438-3.438 3.438h-21.187c-1.896 0-3.438-1.542-3.438-3.438v-8.147c0-1.896 1.542-3.438 3.438-3.438zm21.188 13.108c.84 0 1.523-.683 1.523-1.523v-8.147c0-.84-.683-1.523-1.523-1.523h-21.187c-.84 0-1.523.683-1.523 1.523v8.147c0 .84.683 1.523 1.523 1.523h21.187z"/><path d="M971.931 134.791h21.187c1.896 0 3.438 1.542 3.438 3.438v8.147c0 1.896-1.542 3.438-3.438 3.438h-21.187c-1.896 0-3.438-1.542-3.438-3.438v-8.147c0-1.896 1.542-3.438 3.438-3.438zm21.187 13.108c.84 0 1.523-.683 1.523-1.523v-8.147c0-.84-.683-1.523-1.523-1.523h-21.187c-.84 0-1.523.683-1.523 1.523v8.147c0 .84.683 1.523 1.523 1.523h21.187zm-269.623-26.216h21.187c1.896 0 3.438 1.542 3.438 3.438v8.147c0 1.896-1.542 3.438-3.438 3.438h-21.187c-1.895 0-3.437-1.542-3.437-3.438v-8.147c0-1.896 1.542-3.438 3.437-3.438zm21.188 13.108c.84 0 1.523-.683 1.523-1.523v-8.147c0-.84-.683-1.523-1.523-1.523h-21.187c-.84 0-1.523.683-1.523 1.523v8.147c0 .84.683 1.523 1.523 1.523h21.187zm-162.58-26.217h18.707c1.896 0 3.438 1.542 3.438 3.438v8.147c0 1.896-1.542 3.438-3.438 3.438h-21.187c-1.896 0-3.438-1.542-3.438-3.438v-5.667c0-3.263 2.655-5.918 5.918-5.918zm18.707 13.109c.84 0 1.523-.683 1.523-1.523v-8.147c0-.84-.683-1.523-1.523-1.523h-18.707a4.01 4.01 0 0 0-4.004 4.004v5.667c0 .84.683 1.523 1.523 1.523h21.187z"/><path d="M605.771 108.574h21.187c1.896 0 3.438 1.542 3.438 3.438v8.147c0 1.896-1.542 3.438-3.438 3.438h-21.187c-1.896 0-3.438-1.542-3.438-3.438v-8.147c0-1.896 1.542-3.438 3.438-3.438zm21.186 13.109c.84 0 1.523-.683 1.523-1.523v-8.147c0-.84-.683-1.523-1.523-1.523H605.77c-.84 0-1.523.683-1.523 1.523v8.147c0 .84.683 1.523 1.523 1.523h21.187z"/><path d="M631.945 108.574h21.187c1.896 0 3.438 1.542 3.438 3.438v8.147c0 1.896-1.542 3.438-3.438 3.438h-21.187c-1.896 0-3.438-1.542-3.438-3.438v-8.147c0-1.896 1.542-3.438 3.438-3.438zm21.188 13.109c.84 0 1.523-.683 1.523-1.523v-8.147c0-.84-.683-1.523-1.523-1.523h-21.187c-.84 0-1.523.683-1.523 1.523v8.147c0 .84.683 1.523 1.523 1.523h21.187z"/><path d="M658.094 108.574h21.187c1.896 0 3.438 1.542 3.438 3.438v8.147c0 1.896-1.542 3.438-3.438 3.438h-21.187c-1.896 0-3.438-1.542-3.438-3.438v-8.147c0-1.896 1.542-3.438 3.438-3.438zm21.187 13.109c.84 0 1.523-.683 1.523-1.523v-8.147c0-.84-.683-1.523-1.523-1.523h-21.187c-.84 0-1.523.683-1.523 1.523v8.147c0 .84.683 1.523 1.523 1.523h21.187z"/><path d="M684.246 108.574h21.187c1.896 0 3.438 1.542 3.438 3.438v8.147c0 1.896-1.542 3.438-3.438 3.438h-21.187c-1.896 0-3.438-1.542-3.438-3.438v-8.147c0-1.896 1.542-3.438 3.438-3.438zm21.188 13.109c.84 0 1.523-.683 1.523-1.523v-8.147c0-.84-.683-1.523-1.523-1.523h-21.187c-.84 0-1.523.683-1.523 1.523v8.147c0 .84.683 1.523 1.523 1.523h21.187z"/><path d="M710.394 108.574h21.187c1.896 0 3.438 1.542 3.438 3.438v8.147c0 1.896-1.542 3.438-3.438 3.438h-21.187c-1.895 0-3.437-1.542-3.437-3.438v-8.147c0-1.896 1.542-3.438 3.437-3.438zm21.187 13.109c.84 0 1.523-.683 1.523-1.523v-8.147c0-.84-.683-1.523-1.523-1.523h-21.187c-.84 0-1.523.683-1.523 1.523v8.147c0 .84.683 1.523 1.523 1.523h21.187zm-165.015 0h21.187c1.896 0 3.438 1.542 3.438 3.438v8.147c0 1.896-1.542 3.438-3.438 3.438h-21.187c-1.896 0-3.438-1.542-3.438-3.438v-8.147c0-1.896 1.542-3.438 3.438-3.438zm21.187 13.108c.84 0 1.523-.683 1.523-1.523v-8.147c0-.84-.683-1.523-1.523-1.523h-21.187c-.84 0-1.523.683-1.523 1.523v8.147c0 .84.683 1.523 1.523 1.523h21.187z"/><path d="M592.714 121.683h21.187c1.896 0 3.438 1.542 3.438 3.438v8.147c0 1.896-1.542 3.438-3.438 3.438h-21.187c-1.895 0-3.437-1.542-3.437-3.438v-8.147c0-1.896 1.542-3.438 3.437-3.438zm21.187 13.108c.84 0 1.523-.683 1.523-1.523v-8.147c0-.84-.683-1.523-1.523-1.523h-21.187c-.84 0-1.523.683-1.523 1.523v8.147c0 .84.683 1.523 1.523 1.523h21.187z"/><path d="M618.889 121.683h21.187c1.896 0 3.438 1.542 3.438 3.438v8.147c0 1.896-1.542 3.438-3.438 3.438h-21.187c-1.896 0-3.438-1.542-3.438-3.438v-8.147c0-1.896 1.542-3.438 3.438-3.438zm21.187 13.108c.84 0 1.523-.683 1.523-1.523v-8.147c0-.84-.683-1.523-1.523-1.523h-21.187c-.84 0-1.523.683-1.523 1.523v8.147c0 .84.683 1.523 1.523 1.523h21.187z"/><path d="M645.037 121.683h21.187c1.896 0 3.438 1.542 3.438 3.438v8.147c0 1.896-1.542 3.438-3.438 3.438h-21.187c-1.896 0-3.438-1.542-3.438-3.438v-8.147c0-1.896 1.542-3.438 3.438-3.438zm21.187 13.108c.84 0 1.523-.683 1.523-1.523v-8.147c0-.84-.683-1.523-1.523-1.523h-21.187c-.84 0-1.523.683-1.523 1.523v8.147c0 .84.683 1.523 1.523 1.523h21.187z"/><path d="M671.19 121.683h21.187c1.895 0 3.437 1.542 3.437 3.438v8.147c0 1.896-1.542 3.438-3.437 3.438H671.19c-1.896 0-3.438-1.542-3.438-3.438v-8.147c0-1.896 1.542-3.438 3.438-3.438zm21.187 13.108c.84 0 1.523-.683 1.523-1.523v-8.147c0-.84-.683-1.523-1.523-1.523H671.19c-.84 0-1.523.683-1.523 1.523v8.147c0 .84.683 1.523 1.523 1.523h21.187z"/><path d="M697.337 121.683h21.187c1.896 0 3.438 1.542 3.438 3.438v8.147c0 1.896-1.542 3.438-3.438 3.438h-21.187c-1.896 0-3.438-1.542-3.438-3.438v-8.147c0-1.896 1.542-3.438 3.438-3.438zm21.188 13.108c.84 0 1.523-.683 1.523-1.523v-8.147c0-.84-.683-1.523-1.523-1.523h-21.187c-.84 0-1.523.683-1.523 1.523v8.147c0 .84.683 1.523 1.523 1.523h21.187zm-138.903 0h21.187c1.896 0 3.438 1.542 3.438 3.438v8.147c0 1.896-1.542 3.438-3.438 3.438h-21.187c-1.896 0-3.438-1.542-3.438-3.438v-8.147c0-1.896 1.542-3.438 3.438-3.438zm21.188 13.108c.84 0 1.523-.683 1.523-1.523v-8.147c0-.84-.683-1.523-1.523-1.523h-21.187c-.84 0-1.523.683-1.523 1.523v8.147c0 .84.683 1.523 1.523 1.523h21.187z"/><path d="M605.771 134.791h21.187c1.896 0 3.438 1.542 3.438 3.438v8.147c0 1.896-1.542 3.438-3.438 3.438h-21.187c-1.896 0-3.438-1.542-3.438-3.438v-8.147c0-1.896 1.542-3.438 3.438-3.438zm21.186 13.108c.84 0 1.523-.683 1.523-1.523v-8.147c0-.84-.683-1.523-1.523-1.523H605.77c-.84 0-1.523.683-1.523 1.523v8.147c0 .84.683 1.523 1.523 1.523h21.187z"/><path d="M631.945 134.791h21.187c1.896 0 3.438 1.542 3.438 3.438v8.147c0 1.896-1.542 3.438-3.438 3.438h-21.187c-1.896 0-3.438-1.542-3.438-3.438v-8.147c0-1.896 1.542-3.438 3.438-3.438zm21.188 13.108c.84 0 1.523-.683 1.523-1.523v-8.147c0-.84-.683-1.523-1.523-1.523h-21.187c-.84 0-1.523.683-1.523 1.523v8.147c0 .84.683 1.523 1.523 1.523h21.187z"/><path d="M658.094 134.791h21.187c1.896 0 3.438 1.542 3.438 3.438v8.147c0 1.896-1.542 3.438-3.438 3.438h-21.187c-1.896 0-3.438-1.542-3.438-3.438v-8.147c0-1.896 1.542-3.438 3.438-3.438zm21.187 13.108c.84 0 1.523-.683 1.523-1.523v-8.147c0-.84-.683-1.523-1.523-1.523h-21.187c-.84 0-1.523.683-1.523 1.523v8.147c0 .84.683 1.523 1.523 1.523h21.187z"/><path d="M684.246 134.791h21.187c1.896 0 3.438 1.542 3.438 3.438v8.147c0 1.896-1.542 3.438-3.438 3.438h-21.187c-1.896 0-3.438-1.542-3.438-3.438v-8.147c0-1.896 1.542-3.438 3.438-3.438zm21.188 13.108c.84 0 1.523-.683 1.523-1.523v-8.147c0-.84-.683-1.523-1.523-1.523h-21.187c-.84 0-1.523.683-1.523 1.523v8.147c0 .84.683 1.523 1.523 1.523h21.187z"/><path d="M710.394 134.791h21.187c1.896 0 3.438 1.542 3.438 3.438v8.147c0 1.896-1.542 3.438-3.438 3.438h-21.187c-1.895 0-3.437-1.542-3.437-3.438v-8.147c0-1.896 1.542-3.438 3.437-3.438zm21.187 13.108c.84 0 1.523-.683 1.523-1.523v-8.147c0-.84-.683-1.523-1.523-1.523h-21.187c-.84 0-1.523.683-1.523 1.523v8.147c0 .84.683 1.523 1.523 1.523h21.187zm-411.032-39.325h18.707c1.895 0 3.437 1.542 3.437 3.438v8.147c0 1.896-1.542 3.438-3.437 3.438h-21.187c-1.896 0-3.438-1.542-3.438-3.438v-5.667c0-3.263 2.655-5.918 5.918-5.918zm18.707 13.109c.84 0 1.523-.683 1.523-1.523v-8.147c0-.84-.683-1.523-1.523-1.523h-18.707a4.01 4.01 0 0 0-4.004 4.004v5.667c0 .84.683 1.523 1.523 1.523h21.187z"/><path d="M344.216 108.574h21.187c1.896 0 3.438 1.542 3.438 3.438v8.147c0 1.896-1.542 3.438-3.438 3.438h-21.187c-1.896 0-3.438-1.542-3.438-3.438v-8.147c0-1.896 1.542-3.438 3.438-3.438zm21.188 13.109c.84 0 1.523-.683 1.523-1.523v-8.147c0-.84-.683-1.523-1.523-1.523h-21.187c-.84 0-1.523.683-1.523 1.523v8.147c0 .84.683 1.523 1.523 1.523h21.187z"/><path d="M370.392 108.574h21.187c1.896 0 3.438 1.542 3.438 3.438v8.147c0 1.896-1.542 3.438-3.438 3.438h-21.187c-1.896 0-3.438-1.542-3.438-3.438v-8.147c0-1.896 1.542-3.438 3.438-3.438zm21.187 13.109c.84 0 1.523-.683 1.523-1.523v-8.147c0-.84-.683-1.523-1.523-1.523h-21.187c-.84 0-1.523.683-1.523 1.523v8.147c0 .84.683 1.523 1.523 1.523h21.187z"/><path d="M396.54 108.574h21.187c1.896 0 3.438 1.542 3.438 3.438v8.147c0 1.896-1.542 3.438-3.438 3.438H396.54c-1.895 0-3.437-1.542-3.437-3.438v-8.147c0-1.896 1.542-3.438 3.437-3.438zm21.187 13.109c.84 0 1.523-.683 1.523-1.523v-8.147c0-.84-.683-1.523-1.523-1.523H396.54c-.84 0-1.523.683-1.523 1.523v8.147c0 .84.683 1.523 1.523 1.523h21.187z"/><path d="M422.692 108.574h21.187c1.896 0 3.438 1.542 3.438 3.438v8.147c0 1.896-1.542 3.438-3.438 3.438h-21.187c-1.896 0-3.438-1.542-3.438-3.438v-8.147c0-1.896 1.542-3.438 3.438-3.438zm21.187 13.109c.84 0 1.523-.683 1.523-1.523v-8.147c0-.84-.683-1.523-1.523-1.523h-21.187c-.84 0-1.523.683-1.523 1.523v8.147c0 .84.683 1.523 1.523 1.523h21.187z"/><path d="M448.84 108.574h21.187c1.896 0 3.438 1.542 3.438 3.438v8.147c0 1.896-1.542 3.438-3.438 3.438H448.84c-1.896 0-3.438-1.542-3.438-3.438v-8.147c0-1.896 1.542-3.438 3.438-3.438zm21.188 13.109c.84 0 1.523-.683 1.523-1.523v-8.147c0-.84-.683-1.523-1.523-1.523h-21.187c-.84 0-1.523.683-1.523 1.523v8.147c0 .84.683 1.523 1.523 1.523h21.187z"/><path d="M475.016 108.574h21.187c1.896 0 3.438 1.542 3.438 3.438v8.147c0 1.896-1.542 3.438-3.438 3.438h-21.187c-1.896 0-3.438-1.542-3.438-3.438v-8.147c0-1.896 1.542-3.438 3.438-3.438zm21.186 13.109c.84 0 1.523-.683 1.523-1.523v-8.147c0-.84-.683-1.523-1.523-1.523h-21.187c-.84 0-1.523.683-1.523 1.523v8.147c0 .84.683 1.523 1.523 1.523h21.187z"/><path d="M501.164 108.574h21.187c1.896 0 3.438 1.542 3.438 3.438v8.147c0 1.896-1.542 3.438-3.438 3.438h-21.187c-1.896 0-3.438-1.542-3.438-3.438v-8.147c0-1.896 1.542-3.438 3.438-3.438zm21.187 13.109c.84 0 1.523-.683 1.523-1.523v-8.147c0-.84-.683-1.523-1.523-1.523h-21.187c-.84 0-1.523.683-1.523 1.523v8.147c0 .84.683 1.523 1.523 1.523h21.187z"/><path d="M527.281 108.574h21.187c1.896 0 3.438 1.542 3.438 3.438v8.147c0 1.896-1.542 3.438-3.438 3.438h-21.187c-1.896 0-3.438-1.542-3.438-3.438v-8.147c0-1.896 1.542-3.438 3.438-3.438zm21.187 13.109c.84 0 1.523-.683 1.523-1.523v-8.147c0-.84-.683-1.523-1.523-1.523h-21.187c-.84 0-1.523.683-1.523 1.523v8.147c0 .84.683 1.523 1.523 1.523h21.187z"/><path d="M553.429 108.574h18.707c3.263 0 5.918 2.655 5.918 5.918v5.667c0 1.896-1.542 3.438-3.438 3.438h-21.187c-1.896 0-3.438-1.542-3.438-3.438v-8.147c0-1.896 1.542-3.438 3.438-3.438zm21.187 13.109c.84 0 1.523-.683 1.523-1.523v-5.667a4.01 4.01 0 0 0-4.003-4.004h-18.707c-.84 0-1.523.683-1.523 1.523v8.147c0 .84.683 1.523 1.523 1.523h21.187zm-269.604 0h21.187c1.896 0 3.438 1.542 3.438 3.438v8.147c0 1.896-1.542 3.438-3.438 3.438h-21.187c-1.896 0-3.438-1.542-3.438-3.438v-8.147c0-1.896 1.542-3.438 3.438-3.438zm21.187 13.108c.84 0 1.523-.683 1.523-1.523v-8.147c0-.84-.683-1.523-1.523-1.523h-21.187c-.84 0-1.523.683-1.523 1.523v8.147c0 .84.683 1.523 1.523 1.523h21.187z"/><path d="M331.16 121.683h21.187c1.896 0 3.438 1.542 3.438 3.438v8.147c0 1.896-1.542 3.438-3.438 3.438H331.16c-1.896 0-3.438-1.542-3.438-3.438v-8.147c0-1.896 1.542-3.438 3.438-3.438zm21.187 13.108c.84 0 1.523-.683 1.523-1.523v-8.147c0-.84-.683-1.523-1.523-1.523H331.16c-.84 0-1.523.683-1.523 1.523v8.147c0 .84.683 1.523 1.523 1.523h21.187zm214.174-13.108h21.187c1.896 0 3.438 1.542 3.438 3.438v8.147c0 1.896-1.542 3.438-3.438 3.438h-21.187c-1.896 0-3.438-1.542-3.438-3.438v-8.147c0-1.896 1.542-3.438 3.438-3.438zm21.187 13.108c.84 0 1.523-.683 1.523-1.523v-8.147c0-.84-.683-1.523-1.523-1.523h-21.187c-.84 0-1.523.683-1.523 1.523v8.147c0 .84.683 1.523 1.523 1.523h21.187z"/><path d="M357.335 121.683h21.187c1.895 0 3.437 1.542 3.437 3.438v8.147c0 1.896-1.542 3.438-3.437 3.438h-21.187c-1.896 0-3.438-1.542-3.438-3.438v-8.147c0-1.896 1.542-3.438 3.438-3.438zm21.188 13.108c.84 0 1.523-.683 1.523-1.523v-8.147c0-.84-.683-1.523-1.523-1.523h-21.187c-.84 0-1.523.683-1.523 1.523v8.147c0 .84.683 1.523 1.523 1.523h21.187z"/><path d="M383.483 121.683h21.187c1.896 0 3.438 1.542 3.438 3.438v8.147c0 1.896-1.542 3.438-3.438 3.438h-21.187c-1.896 0-3.438-1.542-3.438-3.438v-8.147c0-1.896 1.542-3.438 3.438-3.438zm21.188 13.108c.84 0 1.523-.683 1.523-1.523v-8.147c0-.84-.683-1.523-1.523-1.523h-21.187c-.84 0-1.523.683-1.523 1.523v8.147c0 .84.683 1.523 1.523 1.523h21.187z"/><path d="M409.635 121.683h21.187c1.896 0 3.438 1.542 3.438 3.438v8.147c0 1.896-1.542 3.438-3.438 3.438h-21.187c-1.895 0-3.437-1.542-3.437-3.438v-8.147c0-1.896 1.542-3.438 3.437-3.438zm21.188 13.108c.84 0 1.523-.683 1.523-1.523v-8.147c0-.84-.683-1.523-1.523-1.523h-21.187c-.84 0-1.523.683-1.523 1.523v8.147c0 .84.683 1.523 1.523 1.523h21.187z"/><path d="M435.784 121.683h21.187c1.896 0 3.438 1.542 3.438 3.438v8.147c0 1.896-1.542 3.438-3.438 3.438h-21.187c-1.896 0-3.438-1.542-3.438-3.438v-8.147c0-1.896 1.542-3.438 3.438-3.438zm21.187 13.108c.84 0 1.523-.683 1.523-1.523v-8.147c0-.84-.683-1.523-1.523-1.523h-21.187c-.84 0-1.523.683-1.523 1.523v8.147c0 .84.683 1.523 1.523 1.523h21.187z"/><path d="M461.959 121.683h21.187c1.896 0 3.438 1.542 3.438 3.438v8.147c0 1.896-1.542 3.438-3.438 3.438h-21.187c-1.896 0-3.438-1.542-3.438-3.438v-8.147c0-1.896 1.542-3.438 3.438-3.438zm21.187 13.108c.84 0 1.523-.683 1.523-1.523v-8.147c0-.84-.683-1.523-1.523-1.523h-21.187c-.84 0-1.523.683-1.523 1.523v8.147c0 .84.683 1.523 1.523 1.523h21.187z"/><path d="M488.107 121.683h21.187c1.896 0 3.438 1.542 3.438 3.438v8.147c0 1.896-1.542 3.438-3.438 3.438h-21.187c-1.896 0-3.438-1.542-3.438-3.438v-8.147c0-1.896 1.542-3.438 3.438-3.438zm21.187 13.108c.84 0 1.523-.683 1.523-1.523v-8.147c0-.84-.683-1.523-1.523-1.523h-21.187c-.84 0-1.523.683-1.523 1.523v8.147c0 .84.683 1.523 1.523 1.523h21.187z"/><path d="M514.224 121.683h21.187c1.896 0 3.438 1.542 3.438 3.438v8.147c0 1.896-1.542 3.438-3.438 3.438h-21.187c-1.896 0-3.438-1.542-3.438-3.438v-8.147c0-1.896 1.542-3.438 3.438-3.438zm21.188 13.108c.84 0 1.523-.683 1.523-1.523v-8.147c0-.84-.683-1.523-1.523-1.523h-21.187c-.84 0-1.523.683-1.523 1.523v8.147c0 .84.683 1.523 1.523 1.523h21.187z"/><path d="M540.373 121.683h21.187c1.896 0 3.438 1.542 3.438 3.438v8.147c0 1.896-1.542 3.438-3.438 3.438h-21.187c-1.896 0-3.438-1.542-3.438-3.438v-8.147c0-1.896 1.542-3.438 3.438-3.438zm21.187 13.108c.84 0 1.523-.683 1.523-1.523v-8.147c0-.84-.683-1.523-1.523-1.523h-21.187c-.84 0-1.523.683-1.523 1.523v8.147c0 .84.683 1.523 1.523 1.523h21.187zm-243.491 0h21.187c1.895 0 3.437 1.542 3.437 3.438v8.147c0 1.896-1.542 3.438-3.437 3.438h-21.187c-1.896 0-3.438-1.542-3.438-3.438v-8.147c0-1.896 1.542-3.438 3.438-3.438zm21.187 13.108c.84 0 1.523-.683 1.523-1.523v-8.147c0-.84-.683-1.523-1.523-1.523h-21.187c-.84 0-1.523.683-1.523 1.523v8.147c0 .84.683 1.523 1.523 1.523h21.187z"/><path d="M344.216 134.791h21.187c1.896 0 3.438 1.542 3.438 3.438v8.147c0 1.896-1.542 3.438-3.438 3.438h-21.187c-1.896 0-3.438-1.542-3.438-3.438v-8.147c0-1.896 1.542-3.438 3.438-3.438zm21.188 13.108c.84 0 1.523-.683 1.523-1.523v-8.147c0-.84-.683-1.523-1.523-1.523h-21.187c-.84 0-1.523.683-1.523 1.523v8.147c0 .84.683 1.523 1.523 1.523h21.187z"/><path d="M370.392 134.791h21.187c1.896 0 3.438 1.542 3.438 3.438v8.147c0 1.896-1.542 3.438-3.438 3.438h-21.187c-1.896 0-3.438-1.542-3.438-3.438v-8.147c0-1.896 1.542-3.438 3.438-3.438zm21.187 13.108c.84 0 1.523-.683 1.523-1.523v-8.147c0-.84-.683-1.523-1.523-1.523h-21.187c-.84 0-1.523.683-1.523 1.523v8.147c0 .84.683 1.523 1.523 1.523h21.187z"/><path d="M396.54 134.791h21.187c1.896 0 3.438 1.542 3.438 3.438v8.147c0 1.896-1.542 3.438-3.438 3.438H396.54c-1.895 0-3.437-1.542-3.437-3.438v-8.147c0-1.896 1.542-3.438 3.437-3.438zm21.187 13.108c.84 0 1.523-.683 1.523-1.523v-8.147c0-.84-.683-1.523-1.523-1.523H396.54c-.84 0-1.523.683-1.523 1.523v8.147c0 .84.683 1.523 1.523 1.523h21.187z"/><path d="M422.692 134.791h21.187c1.896 0 3.438 1.542 3.438 3.438v8.147c0 1.896-1.542 3.438-3.438 3.438h-21.187c-1.896 0-3.438-1.542-3.438-3.438v-8.147c0-1.896 1.542-3.438 3.438-3.438zm21.187 13.108c.84 0 1.523-.683 1.523-1.523v-8.147c0-.84-.683-1.523-1.523-1.523h-21.187c-.84 0-1.523.683-1.523 1.523v8.147c0 .84.683 1.523 1.523 1.523h21.187z"/><path d="M448.84 134.791h21.187c1.896 0 3.438 1.542 3.438 3.438v8.147c0 1.896-1.542 3.438-3.438 3.438H448.84c-1.896 0-3.438-1.542-3.438-3.438v-8.147c0-1.896 1.542-3.438 3.438-3.438zm21.188 13.108c.84 0 1.523-.683 1.523-1.523v-8.147c0-.84-.683-1.523-1.523-1.523h-21.187c-.84 0-1.523.683-1.523 1.523v8.147c0 .84.683 1.523 1.523 1.523h21.187z"/><path d="M475.016 134.791h21.187c1.896 0 3.438 1.542 3.438 3.438v8.147c0 1.896-1.542 3.438-3.438 3.438h-21.187c-1.896 0-3.438-1.542-3.438-3.438v-8.147c0-1.896 1.542-3.438 3.438-3.438zm21.186 13.108c.84 0 1.523-.683 1.523-1.523v-8.147c0-.84-.683-1.523-1.523-1.523h-21.187c-.84 0-1.523.683-1.523 1.523v8.147c0 .84.683 1.523 1.523 1.523h21.187z"/><path d="M501.164 134.791h21.187c1.896 0 3.438 1.542 3.438 3.438v8.147c0 1.896-1.542 3.438-3.438 3.438h-21.187c-1.896 0-3.438-1.542-3.438-3.438v-8.147c0-1.896 1.542-3.438 3.438-3.438zm21.187 13.108c.84 0 1.523-.683 1.523-1.523v-8.147c0-.84-.683-1.523-1.523-1.523h-21.187c-.84 0-1.523.683-1.523 1.523v8.147c0 .84.683 1.523 1.523 1.523h21.187z"/><path d="M527.281 134.791h21.187c1.896 0 3.438 1.542 3.438 3.438v8.147c0 1.896-1.542 3.438-3.438 3.438h-21.187c-1.896 0-3.438-1.542-3.438-3.438v-8.147c0-1.896 1.542-3.438 3.438-3.438zm21.187 13.108c.84 0 1.523-.683 1.523-1.523v-8.147c0-.84-.683-1.523-1.523-1.523h-21.187c-.84 0-1.523.683-1.523 1.523v8.147c0 .84.683 1.523 1.523 1.523h21.187z"/><path d="M553.429 134.791h21.187c1.896 0 3.438 1.542 3.438 3.438v8.147c0 1.896-1.542 3.438-3.438 3.438h-21.187c-1.896 0-3.438-1.542-3.438-3.438v-8.147c0-1.896 1.542-3.438 3.438-3.438zm21.187 13.108c.84 0 1.523-.683 1.523-1.523v-8.147c0-.84-.683-1.523-1.523-1.523h-21.187c-.84 0-1.523.683-1.523 1.523v8.147c0 .84.683 1.523 1.523 1.523h21.187zm-515.58-39.325h18.707c1.896 0 3.438 1.542 3.438 3.438v8.147c0 1.896-1.542 3.438-3.438 3.438H56.556c-1.896 0-3.438-1.542-3.438-3.438v-5.667c0-3.263 2.655-5.918 5.918-5.918zm18.707 13.109c.84 0 1.523-.683 1.523-1.523v-8.147c0-.84-.683-1.523-1.523-1.523H59.036a4.01 4.01 0 0 0-4.004 4.004v5.667c0 .84.683 1.523 1.523 1.523h21.187z"/><path d="M82.704 108.574h21.187c1.896 0 3.438 1.542 3.438 3.438v8.147c0 1.896-1.542 3.438-3.438 3.438H82.704c-1.896 0-3.438-1.542-3.438-3.438v-8.147c0-1.896 1.542-3.438 3.438-3.438zm21.187 13.109c.84 0 1.523-.683 1.523-1.523v-8.147c0-.84-.683-1.523-1.523-1.523H82.704c-.84 0-1.523.683-1.523 1.523v8.147c0 .84.683 1.523 1.523 1.523h21.187z"/><path d="M108.879 108.574h21.187c1.896 0 3.438 1.542 3.438 3.438v8.147c0 1.896-1.542 3.438-3.438 3.438h-21.187c-1.896 0-3.438-1.542-3.438-3.438v-8.147c0-1.896 1.542-3.438 3.438-3.438zm21.187 13.109c.84 0 1.523-.683 1.523-1.523v-8.147c0-.84-.683-1.523-1.523-1.523h-21.187c-.84 0-1.523.683-1.523 1.523v8.147c0 .84.683 1.523 1.523 1.523h21.187z"/><path d="M135.027 108.574h21.187c1.896 0 3.438 1.542 3.438 3.438v8.147c0 1.896-1.542 3.438-3.438 3.438h-21.187c-1.896 0-3.438-1.542-3.438-3.438v-8.147c0-1.896 1.542-3.438 3.438-3.438zm21.187 13.109c.84 0 1.523-.683 1.523-1.523v-8.147c0-.84-.683-1.523-1.523-1.523h-21.187c-.84 0-1.523.683-1.523 1.523v8.147c0 .84.683 1.523 1.523 1.523h21.187z"/><path d="M161.179 108.574h21.187c1.896 0 3.438 1.542 3.438 3.438v8.147c0 1.896-1.542 3.438-3.438 3.438h-21.187c-1.896 0-3.438-1.542-3.438-3.438v-8.147c0-1.896 1.542-3.438 3.438-3.438zm21.188 13.109c.84 0 1.523-.683 1.523-1.523v-8.147c0-.84-.683-1.523-1.523-1.523H161.18c-.84 0-1.523.683-1.523 1.523v8.147c0 .84.683 1.523 1.523 1.523h21.187z"/><path d="M187.327 108.574h21.187c1.896 0 3.438 1.542 3.438 3.438v8.147c0 1.896-1.542 3.438-3.438 3.438h-21.187c-1.895 0-3.437-1.542-3.437-3.438v-8.147c0-1.896 1.542-3.438 3.437-3.438zm21.188 13.109c.84 0 1.523-.683 1.523-1.523v-8.147c0-.84-.683-1.523-1.523-1.523h-21.187c-.84 0-1.523.683-1.523 1.523v8.147c0 .84.683 1.523 1.523 1.523h21.187z"/><path d="M213.503 108.574h21.187c1.896 0 3.438 1.542 3.438 3.438v8.147c0 1.896-1.542 3.438-3.438 3.438h-21.187c-1.896 0-3.438-1.542-3.438-3.438v-8.147c0-1.896 1.542-3.438 3.438-3.438zm21.187 13.109c.84 0 1.523-.683 1.523-1.523v-8.147c0-.84-.683-1.523-1.523-1.523h-21.187c-.84 0-1.523.683-1.523 1.523v8.147c0 .84.683 1.523 1.523 1.523h21.187z"/><path d="M239.65 108.574h21.187c1.896 0 3.438 1.542 3.438 3.438v8.147c0 1.896-1.542 3.438-3.438 3.438H239.65c-1.895 0-3.437-1.542-3.437-3.438v-8.147c0-1.896 1.542-3.438 3.437-3.438zm21.188 13.109c.84 0 1.523-.683 1.523-1.523v-8.147c0-.84-.683-1.523-1.523-1.523h-21.187c-.84 0-1.523.683-1.523 1.523v8.147c0 .84.683 1.523 1.523 1.523h21.187z"/><path d="M265.768 108.574h21.187c1.896 0 3.438 1.542 3.438 3.438v8.147c0 1.896-1.542 3.438-3.438 3.438h-21.187c-1.896 0-3.438-1.542-3.438-3.438v-8.147c0-1.896 1.542-3.438 3.438-3.438zm21.187 13.109c.84 0 1.523-.683 1.523-1.523v-8.147c0-.84-.683-1.523-1.523-1.523h-21.187c-.84 0-1.523.683-1.523 1.523v8.147c0 .84.683 1.523 1.523 1.523h21.187z"/><path d="M291.916 108.574h18.707c3.263 0 5.918 2.655 5.918 5.918v5.667c0 1.896-1.542 3.438-3.438 3.438h-21.187c-1.896 0-3.438-1.542-3.438-3.438v-8.147c0-1.896 1.542-3.438 3.438-3.438zm21.188 13.109c.84 0 1.523-.683 1.523-1.523v-5.667a4.01 4.01 0 0 0-4.004-4.004h-18.707c-.84 0-1.523.683-1.523 1.523v8.147c0 .84.683 1.523 1.523 1.523h21.187zm-269.605 0h21.187c1.896 0 3.438 1.542 3.438 3.438v8.147c0 1.896-1.542 3.438-3.438 3.438H43.499c-1.896 0-3.438-1.542-3.438-3.438v-8.147c0-1.896 1.542-3.438 3.438-3.438zm21.187 13.108c.84 0 1.523-.683 1.523-1.523v-8.147c0-.84-.683-1.523-1.523-1.523H43.499c-.84 0-1.523.683-1.523 1.523v8.147c0 .84.683 1.523 1.523 1.523h21.187z"/><path d="M69.647 121.683h21.187c1.896 0 3.438 1.542 3.438 3.438v8.147c0 1.896-1.542 3.438-3.438 3.438H69.647c-1.895 0-3.437-1.542-3.437-3.438v-8.147c0-1.896 1.542-3.438 3.437-3.438zm21.187 13.108c.84 0 1.523-.683 1.523-1.523v-8.147c0-.84-.683-1.523-1.523-1.523H69.647c-.84 0-1.523.683-1.523 1.523v8.147c0 .84.683 1.523 1.523 1.523h21.187zm214.174-13.108h21.187c1.896 0 3.438 1.542 3.438 3.438v8.147c0 1.896-1.542 3.438-3.438 3.438h-21.187c-1.896 0-3.438-1.542-3.438-3.438v-8.147c0-1.896 1.542-3.438 3.438-3.438zm21.187 13.108c.84 0 1.523-.683 1.523-1.523v-8.147c0-.84-.683-1.523-1.523-1.523h-21.187c-.84 0-1.523.683-1.523 1.523v8.147c0 .84.683 1.523 1.523 1.523h21.187z"/><path d="M95.822 121.683h21.187c1.896 0 3.438 1.542 3.438 3.438v8.147c0 1.896-1.542 3.438-3.438 3.438H95.822c-1.896 0-3.438-1.542-3.438-3.438v-8.147c0-1.896 1.542-3.438 3.438-3.438zm21.188 13.108c.84 0 1.523-.683 1.523-1.523v-8.147c0-.84-.683-1.523-1.523-1.523H95.823c-.84 0-1.523.683-1.523 1.523v8.147c0 .84.683 1.523 1.523 1.523h21.187z"/><path d="M121.971 121.683h21.187c1.896 0 3.438 1.542 3.438 3.438v8.147c0 1.896-1.542 3.438-3.438 3.438h-21.187c-1.896 0-3.438-1.542-3.438-3.438v-8.147c0-1.896 1.542-3.438 3.438-3.438zm21.186 13.108c.84 0 1.523-.683 1.523-1.523v-8.147c0-.84-.683-1.523-1.523-1.523H121.97c-.84 0-1.523.683-1.523 1.523v8.147c0 .84.683 1.523 1.523 1.523h21.187z"/><path d="M148.123 121.683h21.187c1.895 0 3.437 1.542 3.437 3.438v8.147c0 1.896-1.542 3.438-3.437 3.438h-21.187c-1.896 0-3.438-1.542-3.438-3.438v-8.147c0-1.896 1.542-3.438 3.438-3.438zm21.187 13.108c.84 0 1.523-.683 1.523-1.523v-8.147c0-.84-.683-1.523-1.523-1.523h-21.187c-.84 0-1.523.683-1.523 1.523v8.147c0 .84.683 1.523 1.523 1.523h21.187z"/><path d="M174.271 121.683h21.187c1.896 0 3.438 1.542 3.438 3.438v8.147c0 1.896-1.542 3.438-3.438 3.438h-21.187c-1.896 0-3.438-1.542-3.438-3.438v-8.147c0-1.896 1.542-3.438 3.438-3.438zm21.187 13.108c.84 0 1.523-.683 1.523-1.523v-8.147c0-.84-.683-1.523-1.523-1.523h-21.187c-.84 0-1.523.683-1.523 1.523v8.147c0 .84.683 1.523 1.523 1.523h21.187z"/><path d="M200.446 121.683h21.187c1.895 0 3.437 1.542 3.437 3.438v8.147c0 1.896-1.542 3.438-3.437 3.438h-21.187c-1.896 0-3.438-1.542-3.438-3.438v-8.147c0-1.896 1.542-3.438 3.438-3.438zm21.188 13.108c.84 0 1.523-.683 1.523-1.523v-8.147c0-.84-.683-1.523-1.523-1.523h-21.187c-.84 0-1.523.683-1.523 1.523v8.147c0 .84.683 1.523 1.523 1.523h21.187z"/><path d="M226.594 121.683h21.187c1.896 0 3.438 1.542 3.438 3.438v8.147c0 1.896-1.542 3.438-3.438 3.438h-21.187c-1.896 0-3.438-1.542-3.438-3.438v-8.147c0-1.896 1.542-3.438 3.438-3.438zm21.187 13.108c.84 0 1.523-.683 1.523-1.523v-8.147c0-.84-.683-1.523-1.523-1.523h-21.187c-.84 0-1.523.683-1.523 1.523v8.147c0 .84.683 1.523 1.523 1.523h21.187z"/><path d="M252.711 121.683h21.187c1.896 0 3.438 1.542 3.438 3.438v8.147c0 1.896-1.542 3.438-3.438 3.438h-21.187c-1.896 0-3.438-1.542-3.438-3.438v-8.147c0-1.896 1.542-3.438 3.438-3.438zm21.188 13.108c.84 0 1.523-.683 1.523-1.523v-8.147c0-.84-.683-1.523-1.523-1.523h-21.187c-.84 0-1.523.683-1.523 1.523v8.147c0 .84.683 1.523 1.523 1.523h21.187z"/><path d="M278.86 121.683h21.187c1.895 0 3.437 1.542 3.437 3.438v8.147c0 1.896-1.542 3.438-3.437 3.438H278.86c-1.896 0-3.438-1.542-3.438-3.438v-8.147c0-1.896 1.542-3.438 3.438-3.438zm21.187 13.108c.84 0 1.523-.683 1.523-1.523v-8.147c0-.84-.683-1.523-1.523-1.523H278.86c-.84 0-1.523.683-1.523 1.523v8.147c0 .84.683 1.523 1.523 1.523h21.187zm-243.492 0h21.187c1.896 0 3.438 1.542 3.438 3.438v8.147c0 1.896-1.542 3.438-3.438 3.438H56.555c-1.896 0-3.438-1.542-3.438-3.438v-8.147c0-1.896 1.542-3.438 3.438-3.438zm21.188 13.108c.84 0 1.523-.683 1.523-1.523v-8.147c0-.84-.683-1.523-1.523-1.523H56.556c-.84 0-1.523.683-1.523 1.523v8.147c0 .84.683 1.523 1.523 1.523h21.187z"/><path d="M82.704 134.791h21.187c1.896 0 3.438 1.542 3.438 3.438v8.147c0 1.896-1.542 3.438-3.438 3.438H82.704c-1.896 0-3.438-1.542-3.438-3.438v-8.147c0-1.896 1.542-3.438 3.438-3.438zm21.187 13.108c.84 0 1.523-.683 1.523-1.523v-8.147c0-.84-.683-1.523-1.523-1.523H82.704c-.84 0-1.523.683-1.523 1.523v8.147c0 .84.683 1.523 1.523 1.523h21.187z"/><path d="M108.879 134.791h21.187c1.896 0 3.438 1.542 3.438 3.438v8.147c0 1.896-1.542 3.438-3.438 3.438h-21.187c-1.896 0-3.438-1.542-3.438-3.438v-8.147c0-1.896 1.542-3.438 3.438-3.438zm21.187 13.108c.84 0 1.523-.683 1.523-1.523v-8.147c0-.84-.683-1.523-1.523-1.523h-21.187c-.84 0-1.523.683-1.523 1.523v8.147c0 .84.683 1.523 1.523 1.523h21.187z"/><path d="M135.027 134.791h21.187c1.896 0 3.438 1.542 3.438 3.438v8.147c0 1.896-1.542 3.438-3.438 3.438h-21.187c-1.896 0-3.438-1.542-3.438-3.438v-8.147c0-1.896 1.542-3.438 3.438-3.438zm21.187 13.108c.84 0 1.523-.683 1.523-1.523v-8.147c0-.84-.683-1.523-1.523-1.523h-21.187c-.84 0-1.523.683-1.523 1.523v8.147c0 .84.683 1.523 1.523 1.523h21.187z"/><path d="M161.179 134.791h21.187c1.896 0 3.438 1.542 3.438 3.438v8.147c0 1.896-1.542 3.438-3.438 3.438h-21.187c-1.896 0-3.438-1.542-3.438-3.438v-8.147c0-1.896 1.542-3.438 3.438-3.438zm21.188 13.108c.84 0 1.523-.683 1.523-1.523v-8.147c0-.84-.683-1.523-1.523-1.523H161.18c-.84 0-1.523.683-1.523 1.523v8.147c0 .84.683 1.523 1.523 1.523h21.187z"/><path d="M187.327 134.791h21.187c1.896 0 3.438 1.542 3.438 3.438v8.147c0 1.896-1.542 3.438-3.438 3.438h-21.187c-1.895 0-3.437-1.542-3.437-3.438v-8.147c0-1.896 1.542-3.438 3.437-3.438zm21.188 13.108c.84 0 1.523-.683 1.523-1.523v-8.147c0-.84-.683-1.523-1.523-1.523h-21.187c-.84 0-1.523.683-1.523 1.523v8.147c0 .84.683 1.523 1.523 1.523h21.187z"/><path d="M213.503 134.791h21.187c1.896 0 3.438 1.542 3.438 3.438v8.147c0 1.896-1.542 3.438-3.438 3.438h-21.187c-1.896 0-3.438-1.542-3.438-3.438v-8.147c0-1.896 1.542-3.438 3.438-3.438zm21.187 13.108c.84 0 1.523-.683 1.523-1.523v-8.147c0-.84-.683-1.523-1.523-1.523h-21.187c-.84 0-1.523.683-1.523 1.523v8.147c0 .84.683 1.523 1.523 1.523h21.187z"/><path d="M239.65 134.791h21.187c1.896 0 3.438 1.542 3.438 3.438v8.147c0 1.896-1.542 3.438-3.438 3.438H239.65c-1.895 0-3.437-1.542-3.437-3.438v-8.147c0-1.896 1.542-3.438 3.437-3.438zm21.188 13.108c.84 0 1.523-.683 1.523-1.523v-8.147c0-.84-.683-1.523-1.523-1.523h-21.187c-.84 0-1.523.683-1.523 1.523v8.147c0 .84.683 1.523 1.523 1.523h21.187z"/><path d="M265.768 134.791h21.187c1.896 0 3.438 1.542 3.438 3.438v8.147c0 1.896-1.542 3.438-3.438 3.438h-21.187c-1.896 0-3.438-1.542-3.438-3.438v-8.147c0-1.896 1.542-3.438 3.438-3.438zm21.187 13.108c.84 0 1.523-.683 1.523-1.523v-8.147c0-.84-.683-1.523-1.523-1.523h-21.187c-.84 0-1.523.683-1.523 1.523v8.147c0 .84.683 1.523 1.523 1.523h21.187z"/><path d="M291.916 134.791h21.187c1.896 0 3.438 1.542 3.438 3.438v8.147c0 1.896-1.542 3.438-3.438 3.438h-21.187c-1.896 0-3.438-1.542-3.438-3.438v-8.147c0-1.896 1.542-3.438 3.438-3.438zm21.188 13.108c.84 0 1.523-.683 1.523-1.523v-8.147c0-.84-.683-1.523-1.523-1.523h-21.187c-.84 0-1.523.683-1.523 1.523v8.147c0 .84.683 1.523 1.523 1.523h21.187zm-335.007-39.325H-.716c1.896 0 3.438 1.542 3.438 3.438v8.147c0 1.896-1.542 3.438-3.438 3.438h-21.187c-1.896 0-3.438-1.542-3.438-3.438v-8.147c0-1.896 1.542-3.438 3.438-3.438zm21.187 13.109c.84 0 1.523-.683 1.523-1.523v-8.147c0-.84-.683-1.523-1.523-1.523h-21.187c-.84 0-1.523.683-1.523 1.523v8.147c0 .84.683 1.523 1.523 1.523H-.716z"/><path d="M4.214 108.574h21.187c1.896 0 3.438 1.542 3.438 3.438v8.147c0 1.896-1.542 3.438-3.438 3.438H4.214c-1.896 0-3.438-1.542-3.438-3.438v-8.147c0-1.896 1.542-3.438 3.438-3.438zm21.188 13.109c.84 0 1.523-.683 1.523-1.523v-8.147c0-.84-.683-1.523-1.523-1.523H4.214c-.84 0-1.523.683-1.523 1.523v8.147c0 .84.683 1.523 1.523 1.523h21.187z"/><path d="M30.363 108.574H49.07c3.263 0 5.918 2.655 5.918 5.918v5.667c0 1.896-1.542 3.438-3.438 3.438H30.363c-1.896 0-3.438-1.542-3.438-3.438v-8.147c0-1.896 1.542-3.438 3.438-3.438zm21.186 13.109c.84 0 1.523-.683 1.523-1.523v-5.667a4.01 4.01 0 0 0-4.003-4.004H30.362c-.84 0-1.523.683-1.523 1.523v8.147c0 .84.683 1.523 1.523 1.523h21.187z"/><path d="M43.454 121.683h21.187c1.896 0 3.438 1.542 3.438 3.438v8.147c0 1.896-1.542 3.438-3.438 3.438H43.454c-1.896 0-3.438-1.542-3.438-3.438v-8.147c0-1.896 1.542-3.438 3.438-3.438zm21.188 13.108c.84 0 1.523-.683 1.523-1.523v-8.147c0-.84-.683-1.523-1.523-1.523H43.455c-.84 0-1.523.683-1.523 1.523v8.147c0 .84.683 1.523 1.523 1.523h21.187zm-73.484-13.108h21.187c1.896 0 3.438 1.542 3.438 3.438v8.147c0 1.896-1.542 3.438-3.438 3.438H-8.842c-1.896 0-3.438-1.542-3.438-3.438v-8.147c0-1.896 1.542-3.438 3.438-3.438zm21.187 13.108c.84 0 1.523-.683 1.523-1.523v-8.147c0-.84-.683-1.523-1.523-1.523H-8.842c-.84 0-1.523.683-1.523 1.523v8.147c0 .84.683 1.523 1.523 1.523h21.187z"/><path d="M17.306 121.683h21.187c1.896 0 3.438 1.542 3.438 3.438v8.147c0 1.896-1.542 3.438-3.438 3.438H17.306c-1.896 0-3.438-1.542-3.438-3.438v-8.147c0-1.896 1.542-3.438 3.438-3.438zm21.187 13.108c.84 0 1.523-.683 1.523-1.523v-8.147c0-.84-.683-1.523-1.523-1.523H17.306c-.84 0-1.523.683-1.523 1.523v8.147c0 .84.683 1.523 1.523 1.523h21.187zm-60.396 0H-.716c1.896 0 3.438 1.542 3.438 3.438v8.147c0 1.896-1.542 3.438-3.438 3.438h-21.187c-1.896 0-3.438-1.542-3.438-3.438v-8.147c0-1.896 1.542-3.438 3.438-3.438zm21.187 13.108c.84 0 1.523-.683 1.523-1.523v-8.147c0-.84-.683-1.523-1.523-1.523h-21.187c-.84 0-1.523.683-1.523 1.523v8.147c0 .84.683 1.523 1.523 1.523H-.716z"/><path d="M4.214 134.791h21.187c1.896 0 3.438 1.542 3.438 3.438v8.147c0 1.896-1.542 3.438-3.438 3.438H4.214c-1.896 0-3.438-1.542-3.438-3.438v-8.147c0-1.896 1.542-3.438 3.438-3.438zm21.188 13.108c.84 0 1.523-.683 1.523-1.523v-8.147c0-.84-.683-1.523-1.523-1.523H4.214c-.84 0-1.523.683-1.523 1.523v8.147c0 .84.683 1.523 1.523 1.523h21.187z"/><path d="M30.363 134.791H51.55c1.896 0 3.438 1.542 3.438 3.438v8.147c0 1.896-1.542 3.438-3.438 3.438H30.363c-1.896 0-3.438-1.542-3.438-3.438v-8.147c0-1.896 1.542-3.438 3.438-3.438zm21.186 13.108c.84 0 1.523-.683 1.523-1.523v-8.147c0-.84-.683-1.523-1.523-1.523H30.362c-.84 0-1.523.683-1.523 1.523v8.147c0 .84.683 1.523 1.523 1.523h21.187z"/></g></g><g stroke="#8ee8e8" stroke-width="7" class="C E F"><path d="M82.181 38.359h-37.66m8.022-15.234H31.335m40.923-3.584h9.923"/></g><path d="M-60.02-1223.534v67.986l-64.171-2.883-1.792 39.963-16.497 484.383c-3.348 142.921-4.31 258.88-2.859 344.657.903 53.395 2.697 94.684 5.484 126.229 3.991 45.167 10.164 88.418 41.434 121.123C-76.594-19.247-47.356-6.674-16.093-6.674h130.149c48.191 0 93.12-14.221 130.819-38.683 29.514-19.15 61.956-33.454 96.319-41.001 257.482-56.55 368.43 231.382 700.989 241.357a192.82 192.82 0 0 0 13.651.489h574.186v-1379.022H-60.02z" fill="#4eeae6"/><path d="M1055.834 115.488c-83.307 0-151.081-67.774-151.081-151.081 0-6.11-4.972-11.081-11.082-11.081h-203.53c-110.838 0-201.011-90.173-201.011-201.012v-52.965c0-33.084-26.916-60-60-60h-54.062c-33.084 0-60 26.916-60 60v52.965c0 110.839-90.173 201.012-201.011 201.012h-130.15c-20.238 0-39.208-8.185-53.416-23.045-20.311-21.243-26.389-50.48-30.5-97.002-2.703-30.587-4.448-70.946-5.335-123.384-1.441-85.238-.481-200.654 2.854-343.044l16.467-483.527 66.003 2.965v-69.823h1610.04V115.488h-534.186z" fill="#ffed8b"/><path d="M824.217-1113.534H-20.02h3.927s-44.78 996.86 0 996.86h130.149c72.356 0 131.011-58.656 131.011-131.011v-52.964c0-71.797 58.203-130 130-130h54.062c71.797 0 130 58.203 130 130v52.964c0 72.355 58.656 131.011 131.011 131.011h203.53c44.78 0 81.081 36.301 81.081 81.081h0c0 44.78 36.301 81.082 81.081 81.082h464.186v-1159.023H824.215z" fill="#77d629" stroke="#77d629" stroke-dasharray="0 10" class="E F H"/><path d="M1181.046-51.373a8.57 8.57 0 0 0-2.512-6.064 8.58 8.58 0 0 0-6.064-2.512h-105.977a8.58 8.58 0 0 0-6.064 2.512c-1.608 1.607-2.512 3.789-2.512 6.064v69.039a8.57 8.57 0 0 0 2.512 6.064c1.609 1.607 3.79 2.512 6.064 2.512h105.977a8.58 8.58 0 0 0 6.064-2.512c1.608-1.607 2.512-3.789 2.512-6.064v-69.039z" class="G J"/><path d="M1181.046-51.373a8.57 8.57 0 0 0-2.512-6.064 8.58 8.58 0 0 0-6.064-2.512h-105.977a8.58 8.58 0 0 0-6.064 2.512c-1.608 1.607-2.512 3.789-2.512 6.064v69.039a8.57 8.57 0 0 0 2.512 6.064 8.58 8.58 0 0 0 6.064 2.512h105.977a8.58 8.58 0 0 0 6.064-2.512c1.608-1.607 2.512-3.789 2.512-6.064v-69.039z" class="C E F H K L"/><path d="M1325.723-51.373a8.58 8.58 0 0 0-8.576-8.576H1211.17a8.58 8.58 0 0 0-6.064 2.512c-1.608 1.607-2.512 3.789-2.512 6.064v69.039a8.57 8.57 0 0 0 2.512 6.064 8.58 8.58 0 0 0 6.064 2.512h105.977a8.58 8.58 0 0 0 8.576-8.576v-69.039z" class="G J"/><path d="M1325.723-51.373a8.58 8.58 0 0 0-8.576-8.576H1211.17a8.58 8.58 0 0 0-6.064 2.512c-1.608 1.607-2.512 3.789-2.512 6.064v69.039c0 2.275.904 4.457 2.512 6.064a8.58 8.58 0 0 0 6.064 2.512h105.977a8.58 8.58 0 0 0 8.576-8.576v-69.039z" class="C E F H K L"/><use href="#T" class="G J"/><use href="#T" class="C E F H K L"/><g fill="#e3feff"><use href="#U"/><path d="M1070.23-87.653h98.503V10.85h-98.503zm144.677 0h98.503V10.85h-98.503z"/></g><g opacity=".3" class="M"><ellipse cx="971.507" cy="49.131" rx="1.97" ry="1.966" transform="matrix(.872905 -.48789 .48789 .872905 99.504 480.236)" class="B"/><ellipse cx="968.396" cy="42.063" rx="1.97" ry="1.966" transform="matrix(.872905 -.48789 .48789 .872905 102.558 477.82)" class="B"/><ellipse cx="974.662" cy="41.824" rx="1.97" ry="1.966" transform="matrix(.872905 -.48789 .48789 .872905 103.471 480.846)" class="B"/><ellipse cx="965.791" cy="26.194" rx="1.97" ry="1.966" transform="matrix(.872905 -.48789 .48789 .872905 109.969 474.532)" class="B"/><ellipse cx="955.711" cy="34.869" rx="1.97" ry="1.966" transform="matrix(.872905 -.48789 .48789 .872905 104.455 470.717)" class="B"/></g><g opacity=".3" class="M"><ellipse cx="1416.69" cy="81.109" rx="1.97" ry="1.966" transform="matrix(.275822 -.961209 .961209 .275822 947.966 1420.47)" class="B"/><ellipse cx="1423.878" cy="83.934" rx="1.97" ry="1.966" transform="matrix(.275822 -.961209 .961209 .275822 950.456 1429.424)" class="B"/><ellipse cx="1419.6" cy="88.518" rx="1.97" ry="1.966" transform="matrix(.275822 -.961209 .961209 .275822 942.952 1428.632)" class="B"/><ellipse cx="1436.907" cy="93.362" rx="1.97" ry="1.966" transform="matrix(.275822 -.961209 .961209 .275822 950.829 1448.775)" class="B"/><ellipse cx="1437.949" cy="80.104" rx="1.97" ry="1.966" transform="matrix(.275822 -.961209 .961209 .275822 964.327 1440.176)" class="B"/></g><g opacity=".3" class="M"><ellipse cx="1127.322" cy="81.109" rx="1.97" ry="1.966" transform="matrix(.275822 -.961209 .961209 .275822 738.413 1142.327)" class="B"/><ellipse cx="1134.509" cy="83.934" rx="1.97" ry="1.966" transform="matrix(.275822 -.961209 .961209 .275822 740.903 1151.281)" class="B"/><ellipse cx="1130.231" cy="88.518" rx="1.97" ry="1.966" transform="matrix(.275822 -.961209 .961209 .275822 733.399 1150.488)" class="B"/><ellipse cx="1147.538" cy="93.362" rx="1.97" ry="1.966" transform="matrix(.275822 -.961209 .961209 .275822 741.276 1170.632)" class="B"/><ellipse cx="1148.581" cy="80.104" rx="1.97" ry="1.966" transform="matrix(.275822 -.961209 .961209 .275822 754.774 1162.033)" class="B"/></g><g stroke-width="7" stroke="#d7f9f8" class="C E F"><path d="M841.774 39.624h-37.66m8.022-15.233h-21.208m40.922-3.585h9.924"/></g><path d="M1322.489 137.561h4.001v3.931h-4.001z" class="I"/><g class="D"><path d="M1306.587 140.869c.507.399.825.993.874 1.637l.019.255c.072.931-.597 1.755-1.524 1.877l-.566.074a1.94 1.94 0 0 1-1.451-.397c-.411-.323-.674-.797-.731-1.317l-.044-.401c-.062-.565.247-1.107.765-1.34l.219-.1a.69.69 0 0 1 .616-.7l.284-.03a2.11 2.11 0 0 1 1.539.442"/><path d="M1305.601 142.868c.502-.047.872-.492.825-.995s-.493-.872-.995-.825l-1.84.172c-.501.047-.871.493-.824.995s.493.872.994.824l1.84-.172z"/></g><g class="G"><path d="M1319.076 144.284a1.95 1.95 0 0 0 1.909-1.72l.153-1.284-12.482-.237.041 3.315 10.379-.074z" class="N"/><g class="D"><path d="M1306.679 144.387l.113-3.355 1.864.012.041 3.314-2.018.029z"/></g></g><path d="M1342.046 140.869c-.507.399-.825.993-.874 1.637l-.019.255c-.072.931.597 1.755 1.524 1.877l.566.074a1.94 1.94 0 0 0 1.451-.397c.411-.323.674-.797.731-1.317l.044-.401c.062-.565-.247-1.107-.765-1.34l-.219-.1a.69.69 0 0 0-.616-.7l-.284-.03a2.11 2.11 0 0 0-1.539.442" class="D"/><path d="M1343.032 142.868c-.502-.047-.872-.492-.825-.995s.493-.872.995-.825l1.84.172c.501.047.871.493.824.995s-.493.872-.994.824l-1.84-.172z" class="D"/><g class="G"><path d="M1329.558 144.284a1.95 1.95 0 0 1-1.909-1.72l-.153-1.284 12.482-.237-.041 3.315-10.379-.074z" class="N"/><path d="M1341.954 144.387l-.113-3.355-1.864.012-.04 3.314 2.017.029z" class="D"/></g><path d="M1319.771 141.274h8.919l.798 10h-10.514l.797-10z" class="N"/><path d="M1320.961 142.274h6.539v2h-6.539z" class="O"/><path d="M1310.87,122.172c0-3.648,2.935-6.609,6.551-6.609h14.327c3.616,0,6.552,2.961,6.552,6.609v11.164c0,3.648-2.936,6.609-6.552,6.609h-14.327c-3.616,0-6.551-2.961-6.551-6.609v-11.164Z" class="D"/><g clip-path="url(#C)"><g class="I"><path d="M1339.26 141.976l-18.413-21.892 1.855-.536 16.607.536-.049 21.892z"/><path d="M1312.105 116.731a4.13 4.13 0 0 1 2.935-1.227h18.824c1.1 0 2.156.441 2.935 1.227s1.28 1.85 1.28 2.961v.384h-27.254v-.384c0-1.111.502-2.176 1.28-2.961"/></g><path d="M1311.631 138.929c-.606 0-1.188-.249-1.616-.693s-.668-1.046-.668-1.673v-.509c0-.096.074-.173.167-.173h4.237c.092 0 .168.077.168.173v.509c0 .627-.241 1.229-.669 1.673s-1.01.693-1.616.693h-.001z" fill="#006793"/></g><path d="M1330.518 127.275c-2.097 0-3.795 1.699-3.795 3.795s1.699 3.795 3.795 3.795 3.794-1.699 3.794-3.795-1.699-3.795-3.794-3.795" class="D"/><g class="I"><path d="M1330.518 129.799a1.271 1.271 0 1 0 0 2.542 1.271 1.271 0 1 0 0-2.542m-2.893-7.941h5.822v2.386h-5.822z"/></g><g class="O"><path d="M1325.764 123.545c-1.067 1.951-3.114 3.164-5.338 3.164h-13.747v-4.698a6.45 6.45 0 0 1 6.448-6.448h18.061-.001c-.652 0-1.253.356-1.566.928l-3.857 7.054z" class="G"/><path d="M1329.216,112.515h-18.318c0,.808.325,1.583.904,2.155.58.572,1.366.893,2.185.893l8.057,2.032,8.034-2.032h2.228c0-1.683-1.384-3.048-3.09-3.048"/></g><rect x="1313.918" y="126.723" width="5.016" height="9.167" rx="1.432" fill="#fff"/><rect x="1313.918" y="128.227" width="2.611" height="6.159" rx=".859" class="O"/><g class="I"><path d="M1313.918 128.156c0-.791.642-1.432 1.432-1.432h2.151c.791 0 1.432.642 1.432 1.432v1.221h-5.016v-1.221zm5.015 6.302c0 .791-.642 1.432-1.432 1.432h-2.151c-.791 0-1.432-.642-1.432-1.432v-.647h5.016v.647z"/></g></g></svg>