<svg xmlns="http://www.w3.org/2000/svg" width="1500" height="145" xmlns:v="https://vecta.io/nano"><style><![CDATA[.B{fill-rule:evenodd}.C{fill:none}.D{fill:#408f43}.E{opacity:.3}.F{fill:#ef915b}.G{clip-rule:evenodd}.H{fill:#357963}.I{fill:#4aa2eb}.J{fill:#74dddc}.K{fill:#50b06d}.L{stroke:#50b06d}.M{stroke-linecap:round}.N{stroke-linejoin:round}.O{fill:#51b133}.P{fill:#f7e550}.Q{fill:#ee8f44}]]></style><defs><clipPath id="A"><path d="M0 0h1500v145H0z" class="C"/></clipPath><clipPath id="B"><path d="M1285.639 138.628h96.432a43.67 43.67 0 0 1 30.87 12.776c8.185 8.178 12.787 19.274 12.787 30.84v247.752a43.61 43.61 0 0 1-12.787 30.843 43.68 43.68 0 0 1-30.87 12.776h-72.664c-11.576 0-22.681-4.598-30.87-12.776a43.61 43.61 0 0 1-12.784-30.843v-39.284c0-11.442-4.5-22.426-12.529-30.582l-80.094-81.386c-8.028-8.155-12.529-19.14-12.529-30.582v-65.919c0-11.566 4.598-22.662 12.787-30.84a43.66 43.66 0 0 1 30.866-12.776h81.383z" class="C G"/></clipPath><clipPath id="C"><path d="M1361.304 140.271h-14.984l-4.061 37.054c-.225 2.054 1.385 3.848 3.452 3.848h16.275a3.47 3.47 0 0 0 3.451-3.854l-4.133-37.047z" class="C"/></clipPath><clipPath id="D"><path d="M1353.849 139.094c0 5.402 2.147 10.584 5.971 14.405s9.01 5.966 14.419 5.966h20.508v-13.467c0-5.404-2.147-10.586-5.971-14.407a20.41 20.41 0 0 0-14.419-5.966h-20.508v13.47z" class="C G"/></clipPath><clipPath id="E"><path d="M1353.849 139.094c0 5.402-2.147 10.584-5.971 14.405s-9.01 5.966-14.419 5.966h-20.508v-13.467c0-5.404 2.147-10.586 5.971-14.407a20.41 20.41 0 0 1 14.419-5.966h20.508v13.47z" class="C G"/></clipPath><clipPath id="F"><path d="M1353.86 159.465l-12.249-8.919c-6.766-4.926-7.53-14.725-1.611-20.64l4.285-4.281h19.15l4.285 4.281c5.92 5.915 5.155 15.714-1.611 20.64l-12.249 8.919z" class="C G"/></clipPath><clipPath id="G"><path d="M1323.713 196.555h-27.839l-.036-22.631h-26.588v-48.135h54.463v70.766z" class="C G"/></clipPath><clipPath id="H"><rect x="185.793" y="2.644" width="56.038" height="33.25" rx="4.999" transform="matrix(.993175 .116636 -.116636 .993175 3.707 -24.808)" class="C"/></clipPath><path id="I" d="M1353.86 167.056l-12.249-8.919c-6.766-4.926-7.53-14.725-1.611-20.64l4.285-4.281h19.15l4.285 4.281c5.92 5.915 5.155 15.714-1.611 20.64l-12.249 8.919z"/><path id="J" d="M1335.724 144.284c-.832 0-1.651-.406-2.14-1.152a2.55 2.55 0 0 1 .736-3.537l10.391-6.811c1.182-.778 2.766-.442 3.538.733a2.55 2.55 0 0 1-.736 3.537l-10.391 6.811a2.54 2.54 0 0 1-1.398.419z"/><path id="K" d="M1371.973 144.284a2.54 2.54 0 0 1-1.398-.419l-10.388-6.811a2.55 2.55 0 1 1 2.802-4.27l10.388 6.811a2.55 2.55 0 0 1 .736 3.537c-.489.747-1.308 1.152-2.14 1.152z"/><path id="L" d="M1307.815 119.65a3.99 3.99 0 1 1 7.984 0v3.982h-7.984v-3.982z"/><path id="M" d="M1293.338 125.789h5.071v70.767h-5.071z"/><path id="N" d="M1031.195 33.673a4.57 4.57 0 0 0-3.23-1.337h-9.222a2.71 2.71 0 0 0-1.914.792l-1.192 1.191 1.192 1.191a2.71 2.71 0 0 0 1.914.792h9.301a4.57 4.57 0 0 0 3.23-1.337l.608-.607-.687-.686z"/><path id="O" d="M1019.029 41.738h-9.222a2.71 2.71 0 0 0-1.914.792l-1.192 1.191 1.192 1.191a2.71 2.71 0 0 0 1.914.792h9.301a4.57 4.57 0 0 0 3.23-1.337l.608-.607-.687-.686a4.57 4.57 0 0 0-3.23-1.337z"/><path id="P" d="M195.2 16.127l1.347-11.467 4.3.505-1.347 11.467z"/><path id="Q" d="M192.334 15.791l.168-1.433 7.167.842-.168 1.433z"/><path id="R" d="M190.284 38.103a2.5 2.5 0 0 1-2.191-2.774l4.421-37.642a2.5 2.5 0 0 1 2.774-2.191 2.5 2.5 0 0 1 2.191 2.774l-4.421 37.642a2.5 2.5 0 0 1-2.774 2.191z"/><path id="S" d="M243.812 26.012l-63.045-7.404a2.5 2.5 0 0 1-2.191-2.774 2.5 2.5 0 0 1 2.774-2.191l63.045 7.404a2.5 2.5 0 0 1 2.191 2.774 2.5 2.5 0 0 1-2.774 2.191z"/><path id="T" d="M1269.221-5.061a3.2 3.2 0 0 1 5.578 0l4.922 8.719h-15.423l4.922-8.719z"/></defs><g clip-path="url(#A)"><path d="M-11.618-1395.128h1523.237v2573.025H-11.618z" fill="#61d1d5"/><path d="M1682.204 450.595a88.54 88.54 0 0 0-68.363-32.124h-99.121V271.887h-14.384c-22.663 0-41.036-18.372-41.036-41.036v-52.232c0-21.744-8.476-42.189-23.867-57.568s-35.854-23.846-57.619-23.846h-177.815c-21.766 0-42.229 8.469-57.61 23.841-15.396 15.375-23.874 35.822-23.874 57.574v65.918c0 21.49 8.307 41.761 23.383 57.079l16.139 16.399c15.866 16.122 15.691 42.042-.386 57.953-26.308 26.036-90.657 24.395-114.095 2.198-15.284-14.474-32.709-32.517-61.304-32.517H868.954c-23.811 0-46.2 9.264-63.051 26.093l-80.526 80.463c-1.197 1.195-2.819 1.867-4.51 1.867h-98.666c-40.185 0-75.581 27.072-86.076 65.841L499.091 656.78c-7.198 26.596-1.49 55.534 15.273 77.412s43.229 34.938 70.801 34.938h77.643c11.636 0 149.632 120.916 149.632 120.916 4.813 4.813 4.19 12.738-1.256 16.821-3.878 2.908-69.317 70.079-79.233 82.634-17.516 22.178-16.971 53.63 1.305 75.185 0 0 14.789 18.045 18.428 21.601 9.72 9.497 22.857 14.685 36.447 14.685h8.224c9.006 16.001 26.166 26.832 45.81 26.832h35.226c27.597 0 53.541-10.738 73.054-30.234l1.177-1.174c19.513-19.498 30.26-45.422 30.26-72.995v-1.928c0-6.15 4.985-11.135 11.135-11.135h147.779c12.525 0 22.672 10.173 22.648 22.698 0 23.724 9.236 46.024 26.011 62.801l14.396 14.395c16.772 16.772 39.073 26.01 62.794 26.01h124.272c23.552 0 46.139-9.356 62.793-26.01L1602.942 961c12.687-12.688 21.149-28.713 24.473-46.343l73.694-390.93c4.913-26.061-1.978-52.715-18.903-73.131z" class="J"/><path d="M1659.972-310.217l-30.731-923.973H-94.167l-12.248 1090.029h94.797V6.027h329.873c25.26 0 49.807-6.887 71.138-19.616 18.697-11.157 39.934-17.346 61.707-17.346h537.967c26.226 0 51.377 10.418 69.921 28.962h0c18.544 18.544 43.696 28.962 69.921 28.962h452.344v-57.924h40.01l38.709-279.282z" fill="#fcf4c7"/><path d="M361.191 206.978l-41.742-41.739c-15.418-15.419-35.918-23.91-57.722-23.91h-51.432l-33.483-33.482c-15.639-15.64-36.508-24.151-58.662-23.904-19.947.223-39.295 7.813-54.023 21.266-17.168 15.682-26.674 37.302-26.667 60.385.008 21.811 8.509 42.312 23.937 57.729l19.076 19.062v94.411L37.599 379.63c-26.023 26.011-29.838 66.849-9.096 97.253l.154.227c14.569 21.319 38.724 34.047 64.615 34.047h145.691c5.559 0 8.699 6.269 5.473 10.795-4.395 6.166-6.813 13.831-6.32 22.068 1.098 18.355 16.863 32.411 35.251 32.411h16.625c19.05 0 34.547-15.484 34.547-34.518 0-8.138-2.835-15.625-7.57-21.53-3.216-4.01-1.183-9.934 3.847-10.996 36.673-7.744 64.285-40.331 64.285-79.261V264.702c0-21.806-8.491-42.306-23.909-57.725z" class="B J"/><path d="M121.735 241.735v95.707c-.005 10.539-4.199 20.648-11.657 28.102l-43.309 43.269c-12.025 12.018-13.76 30.895-4.125 44.898l.081.118c6.887 10.079 18.342 16.067 30.549 16.067h210.763c21.981 0 39.803-17.803 39.803-39.77V264.702a40.37 40.37 0 0 0-11.825-28.547l-41.741-41.741c-7.571-7.571-17.84-11.825-28.547-11.825h-51.801a40.37 40.37 0 0 1-28.547-11.825l-33.742-33.742c-15.766-15.766-41.328-15.766-57.095 0h0c-15.771 15.771-15.76 41.348.018 57.112l19.518 19.503c7.457 7.451 11.651 17.559 11.657 28.097z" class="K"/><path d="M121.735 241.735v95.707c-.005 10.54-4.199 20.647-11.657 28.103l-43.309 43.269c-12.025 12.019-13.76 30.895-4.125 44.898l.081.118c6.887 10.079 18.342 16.067 30.549 16.067h210.763c21.981 0 39.803-17.804 39.803-39.77V264.703c0-10.708-4.253-20.976-11.825-28.547l-41.741-41.741c-7.571-7.571-17.84-11.825-28.547-11.825h-51.801a40.37 40.37 0 0 1-28.547-11.825l-33.742-33.742c-15.766-15.766-41.328-15.766-57.095 0h0c-15.771 15.771-15.76 41.348.018 57.113l19.518 19.502c7.457 7.451 11.651 17.559 11.657 28.097z" stroke-dasharray="0 14.948" stroke-width="15.019" class="C L M N"/><rect x="124.456" y="141.678" width="8.143" height="10.157" rx="4.071" transform="matrix(-.854568 .51934 -.51934 -.854568 314.58 205.419)" fill="#b0adb9"/><g clip-path="url(#B)" class="B"><path d="M1285.639 138.628h96.432a43.67 43.67 0 0 1 30.87 12.776c8.185 8.178 12.787 19.274 12.787 30.84v247.752a43.61 43.61 0 0 1-12.787 30.843 43.68 43.68 0 0 1-30.87 12.776h-72.664c-11.576 0-22.681-4.598-30.87-12.776a43.61 43.61 0 0 1-12.784-30.843v-39.284c0-11.442-4.5-22.426-12.529-30.582l-80.094-81.386c-8.028-8.155-12.529-19.14-12.529-30.582v-65.919c0-11.566 4.598-22.662 12.787-30.84a43.66 43.66 0 0 1 30.866-12.776h81.383z" fill="#fcf4c7"/></g><path d="M1412.94 151.404a43.67 43.67 0 0 0-30.87-12.776h-143.169c-4.734 0-7.249 5.723-3.937 9.106l.082.083 80.094 81.386a43.6 43.6 0 0 1 12.529 30.582v39.284a43.6 43.6 0 0 0 12.784 30.843 43.69 43.69 0 0 0 30.87 12.776h26.325c15.509 0 28.081-12.572 28.081-28.081V182.244c0-11.566-4.602-22.662-12.787-30.84z" class="K"/><path d="M1412.94 151.404a43.67 43.67 0 0 0-30.87-12.776h-143.169c-4.734 0-7.249 5.723-3.937 9.106l.082.083 80.094 81.386c8.028 8.156 12.528 19.14 12.528 30.582v39.284c0 11.569 4.599 22.662 12.784 30.843a43.69 43.69 0 0 0 30.87 12.776h26.324c15.509 0 28.081-12.572 28.081-28.081V182.244c0-11.566-4.602-22.662-12.787-30.84z" stroke-dasharray="0 13.94" stroke-width="14.05" class="C L M N"/><path d="M1361.304 140.271h-14.984l-4.061 37.054c-.225 2.054 1.385 3.848 3.452 3.848h16.275a3.47 3.47 0 0 0 3.451-3.854l-4.133-37.047z" fill="#b38150"/><g clip-path="url(#C)" class="B"><use href="#I" style="mix-blend-mode:multiply" fill="#6a6863" opacity=".25"/></g><path d="M1353.849 139.094c0 5.402 2.147 10.584 5.971 14.405s9.01 5.966 14.419 5.966h20.508v-13.467c0-5.404-2.147-10.586-5.971-14.407a20.41 20.41 0 0 0-14.419-5.966h-20.508v13.47z" fill="#4aa22e" class="B"/><g clip-path="url(#D)"><path d="M1353.849 125.624l45.64 39.01h-45.64v-39.01z" class="B D"/><path d="M1352.253 127.597l3.232-3.957 40.876 33.384-3.232 3.957z" class="O"/><g class="B"><path d="M1367.482 162.049h-5.112v-16.953a2.55 2.55 0 0 1 2.554-2.551h.005c1.411 0 2.554 1.142 2.554 2.551v16.953z" class="H"/><g class="D"><path d="M1394.748 145.147v-4.837h-7.804a2.42 2.42 0 0 0-2.421 2.419h0c0 .644.256 1.257.708 1.711a2.42 2.42 0 0 0 1.713.707h7.804zm0-9.945v-5.108h-15.34c-1.411 0-2.554 1.142-2.554 2.551v.005a2.55 2.55 0 0 0 2.554 2.551h15.34z"/></g></g></g><path d="M1353.849 139.094c0 5.402-2.147 10.584-5.971 14.405s-9.01 5.966-14.419 5.966h-20.508v-13.467c0-5.404 2.147-10.586 5.971-14.407a20.41 20.41 0 0 1 14.419-5.966h20.508v13.47z" fill="#4aa22e" class="B"/><g clip-path="url(#E)"><path d="M1353.849 125.624l-45.64 39.01h45.64v-39.01z" class="B D"/><path d="M1311.339 157.007l40.899-33.355 3.229 3.959-40.899 33.355z" class="O"/><g class="B"><path d="M1340.216 162.049h5.112v-16.951a2.55 2.55 0 0 0-.749-1.806 2.56 2.56 0 0 0-1.807-.748c-.677 0-1.329.271-1.807.748a2.55 2.55 0 0 0-.749 1.806v16.951z" class="H"/><g class="D"><path d="M1312.95 145.418v-5.108h7.671c.677 0 1.327.268 1.805.748a2.54 2.54 0 0 1 .749 1.803v.005a2.55 2.55 0 0 1-2.554 2.552h-7.671zm0-10.216v-5.108h15.337c.677 0 1.329.271 1.807.748a2.55 2.55 0 0 1 .749 1.806c0 .677-.268 1.328-.749 1.806a2.55 2.55 0 0 1-1.807.748h-15.337z"/></g></g></g><path d="M1353.86 159.465l-12.249-8.919c-6.766-4.926-7.53-14.725-1.611-20.64l4.285-4.281h19.15l4.285 4.281c5.92 5.915 5.155 15.714-1.611 20.64l-12.249 8.919z" class="B O"/><g clip-path="url(#F)"><path d="M1353.86 124.074h19.325v36.649h-19.325z" class="D"/><path d="M1351.294 121.935h5.112v44.547h-5.112z" fill="#5ebe3e"/><use href="#J" class="D"/><use href="#K" class="H"/><path d="M1335.724 155.93c-.832 0-1.651-.406-2.14-1.152a2.55 2.55 0 0 1 .736-3.537l10.391-6.811c1.182-.778 2.766-.442 3.538.733a2.55 2.55 0 0 1-.736 3.537l-10.391 6.811a2.54 2.54 0 0 1-1.398.419z" class="D"/><path d="M1371.973 155.93a2.54 2.54 0 0 1-1.398-.419l-10.388-6.811a2.55 2.55 0 1 1 2.802-4.27l10.388 6.811a2.55 2.55 0 0 1 .736 3.537c-.489.747-1.308 1.152-2.14 1.152z" class="H"/></g><g class="B"><g fill="#bfd042"><use href="#L"/><path d="M1315.781 119.643a3.992 3.992 0 1 1 7.984 0v3.982h-7.984v-3.982zm-15.933.007a3.992 3.992 0 1 1 7.984 0v3.982h-7.984v-3.982z"/><path d="M1291.882 119.65a3.992 3.992 0 1 1 7.984 0v3.982h-7.984v-3.982zm-15.933 0a3.992 3.992 0 1 1 7.984 0v3.982h-7.984v-3.982z"/><path d="M1283.915 119.643a3.992 3.992 0 1 1 7.984 0v3.982h-7.984v-3.982zm-15.933.007a3.992 3.992 0 1 1 7.984 0v3.982h-7.984v-3.982z"/></g><path d="M1323.713 196.555h-27.839l-.036-22.631h-26.588v-48.135h54.463v70.766z" fill="#5ac4c3"/></g><g clip-path="url(#G)" fill="#baeffc" class="B"><path style="mix-blend-mode:overlay" d="M1305.013 120.156l-15.923.097 35.199 78.19 3.382-27.624-22.658-50.663zm-29.854 0l-7.73.097 34.805 79.826 8.517-.342-35.592-79.581z" opacity=".25"/></g><path style="mix-blend-mode:multiply" d="M1270.518 133.389h50.712v5.067h-50.712z" fill="#d8cfd9" opacity=".5"/><path d="M1267.982 120.722h55.783v5.067h-55.783z" fill="#a7692a"/><g fill="#8d5527"><path d="M1267.983 125.789h55.711v7.6h-55.711z"/><path d="M1267.982 125.789h5.071v90.936h-5.071z"/><use href="#M"/></g><path d="M1293.338 133.389h5.071v58.269h-5.071z" fill="#703711"/><path d="M1318.694 125.789h5.071v70.767h-5.071z" fill="#8d5527"/><g class="B"><g fill="#6da090"><path d="M1135.619 136.123c0 .871.346 1.707.963 2.323a3.29 3.29 0 0 0 2.325.962h.004c1.815 0 3.288-1.47 3.288-3.285v-5.651c0-1.782-1.05-3.395-2.679-4.119l-7.379-3.276a.62.62 0 0 0-.725.168c-.177.213-.193.515-.036.743l3.473 5.102c.499.734.767 1.6.767 2.487v4.546zm-20.175-.909h12.04v4.031h-8.008a4.03 4.03 0 0 1-4.032-4.029v-.003z"/></g><path d="M1121.56,135.214c2.36,5.678,7.906,9.378,14.058,9.378s11.699-3.7,14.057-9.378h-28.115Z" fill="#fff"/><path d="M1150.225 137.908a1.34 1.34 0 0 1 1.338-1.337h4.013a1.34 1.34 0 0 1 1.338 1.337 1.34 1.34 0 0 1-1.338 1.337h-4.013a1.34 1.34 0 0 1-1.338-1.337z" fill="#f0a039"/><path d="M1135.619 142.694a3.28 3.28 0 0 1 .963-2.323 3.29 3.29 0 0 1 2.325-.962h.004a3.29 3.29 0 0 1 3.288 3.285v5.651c0 1.782-1.05 3.396-2.679 4.119l-7.379 3.276a.62.62 0 0 1-.725-.168c-.177-.211-.193-.515-.036-.743l3.473-5.102c.499-.734.767-1.6.767-2.487v-4.546z" fill="#6da090"/><path d="M1140.861,137.24c0-1.107.899-2.005,2.007-2.005h8.026c1.108,0,2.007.898,2.007,2.005s-.899,2.005-2.007,2.005h-8.026c-1.108,0-2.007-.898-2.007-2.005Z" fill="#fff"/></g><path d="M1150.225 136.572h1.338v1.337h-1.338z" fill="#6e82a4"/><g class="B"><g fill="#59c1bf"><use href="#N"/><path d="M1012.388,36.916l3.249-2.597-3.249-2.597c.994,1.589.994,3.605,0,5.194Z"/><use href="#O"/><path d="M1003.451 46.318l3.249-2.597-3.249-2.597c.994 1.589.994 3.605 0 5.194zm16.777-31.926a4.57 4.57 0 0 0-3.23-1.337h-9.222a2.71 2.71 0 0 0-1.914.792l-1.192 1.191 1.192 1.191a2.71 2.71 0 0 0 1.914.792h9.301a4.57 4.57 0 0 0 3.23-1.337l.608-.607-.687-.686z"/><path d="M1001.422 17.636l3.249-2.597-3.249-2.597c.994 1.589.994 3.605 0 5.194zm6.64 4.821h-9.222a2.71 2.71 0 0 0-1.914.792l-1.192 1.191 1.192 1.191a2.71 2.71 0 0 0 1.914.792h9.301a4.57 4.57 0 0 0 3.23-1.337l.608-.607-.687-.686a4.57 4.57 0 0 0-3.23-1.337z"/><path d="M992.485 27.037l3.249-2.597-3.249-2.597c.994 1.589.994 3.605 0 5.194zm56.174 17.881a4.57 4.57 0 0 0-3.23-1.337h-9.222a2.71 2.71 0 0 0-1.914.792l-1.192 1.191 1.192 1.191a2.71 2.71 0 0 0 1.914.792h9.301a4.57 4.57 0 0 0 3.23-1.337l.608-.607-.687-.686z"/><path d="M1029.852 48.162l3.249-2.597-3.249-2.597c.994 1.589.994 3.605 0 5.194zm6.641 4.822h-9.222a2.71 2.71 0 0 0-1.914.792l-1.192 1.191 1.192 1.191a2.71 2.71 0 0 0 1.914.792h9.301a4.57 4.57 0 0 0 3.23-1.337l.608-.607-.687-.686a4.57 4.57 0 0 0-3.23-1.337z"/><path d="M1020.915 57.564l3.249-2.597-3.249-2.597c.994 1.589.994 3.605 0 5.194zm-18.556-21.788a4.57 4.57 0 0 0-3.23-1.337h-9.222a2.71 2.71 0 0 0-1.914.792l-1.192 1.191 1.192 1.191a2.71 2.71 0 0 0 1.914.792h9.301a4.57 4.57 0 0 0 3.23-1.337l.608-.607-.687-.686z"/><path d="M983.552 39.02l3.249-2.597-3.249-2.597c.994 1.589.994 3.605 0 5.194zm6.641 4.822h-9.222a2.71 2.71 0 0 0-1.914.792l-1.192 1.191 1.192 1.191a2.71 2.71 0 0 0 1.914.792h9.301a4.57 4.57 0 0 0 3.23-1.337l.608-.607-.687-.686a4.57 4.57 0 0 0-3.23-1.337z"/><path d="M974.615,48.422l3.249-2.597-3.249-2.597c.994,1.589.994,3.605,0,5.194Z"/></g><path d="M559.018 394.489c-37.899 0-73.115-21.997-89.72-56.042l-30.305-62.157c-18.656-38.265-10.952-84.157 19.157-114.226l8.176-8.169 75.484-75.447c18.9-18.862 43.961-29.23 70.607-29.23s51.706 10.365 70.565 29.186l62.951 62.915c18.847 18.809 29.24 43.857 29.24 70.5v82.949c0 26.636-10.391 51.68-29.26 70.522-18.861 18.831-43.916 29.198-70.555 29.198H559.017z" class="J"/><path d="M484.039 254.332c-9.284-19.042-5.455-41.87 9.544-56.848l83.69-83.646c19.426-19.388 50.864-19.388 70.291 0l62.919 62.879a49.61 49.61 0 0 1 14.57 35.103v82.948c0 13.167-5.247 25.792-14.57 35.103a49.7 49.7 0 0 1-35.124 14.54H559.017c-18.993 0-36.338-10.832-44.664-27.902l-30.315-62.177z" class="K"/></g><path d="M484.039 254.332c-9.284-19.042-5.455-41.87 9.544-56.848l83.69-83.646c19.426-19.388 50.864-19.388 70.291 0l62.919 62.879a49.61 49.61 0 0 1 14.57 35.103v82.948c0 13.167-5.247 25.792-14.57 35.103-9.323 9.306-21.942 14.54-35.124 14.54H559.017c-18.993 0-36.338-10.832-44.664-27.902l-30.315-62.178z" stroke-dasharray="0 18.756" stroke-width="18.615" class="C L M N"/><g fill="#c7dae0"><path d="M235.759 10.317a2.5 2.5 0 0 1-2.191-2.774l4.543-38.682a2.5 2.5 0 0 1 2.774-2.191 2.5 2.5 0 0 1 2.191 2.774l-4.543 38.682a2.5 2.5 0 0 1-2.774 2.191zm-41.223-4.842a2.5 2.5 0 0 1-2.191-2.774l4.543-38.682a2.5 2.5 0 0 1 2.774-2.191 2.5 2.5 0 0 1 2.191 2.774L197.31 3.284a2.5 2.5 0 0 1-2.774 2.191z"/></g><path d="M221.494 12.553l.375-3.197 10.657 1.252-.375 3.197z" fill="#469b7d"/><g class="B"><path d="M220.214-17.929c.181-1.544 1.58-2.649 3.125-2.468l14.016 1.646c1.545.181 2.649 1.581 2.468 3.125l-2.536 21.592-19.608-2.303 2.536-21.592z" fill="#102120"/><path d="M223.647-4.46a.43.43 0 0 1 .607.051l1.519 1.804c.073.087.109.2.1.313s-.064.219-.151.293l-8.041 6.774-2.074-2.461 8.04-6.774z" class="I"/><path d="M223.647-4.46a.43.43 0 0 1 .607.052l1.519 1.804a.43.43 0 0 1-.052.606L223.096.213l-2.074-2.461 2.625-2.211z" class="P"/><path d="M232.74-.386a.43.43 0 0 1-.288-.161.43.43 0 0 1-.09-.317l.275-2.341a.43.43 0 0 1 .478-.378l10.442 1.226-.375 3.197L232.74-.386z" class="I"/></g><circle cx="243.37" cy="-.759" r="1.61" fill="#4fae8d"/><g class="B"><path d="M232.74-.386c-.236-.028-.405-.242-.378-.478l.275-2.341c.028-.236.242-.405.478-.378l3.408.4-.375 3.197-3.408-.4z" class="P"/><path d="M243.855-2.37a1.61 1.61 0 0 0-2.041 1.009 1.61 1.61 0 0 0 1.009 2.04 1.61 1.61 0 0 0 2.041-1.009 1.61 1.61 0 0 0-1.009-2.041z" class="I"/><path d="M223.447-4.064a.65.65 0 0 1 .722-.57l9.365 1.1c.172.02.327.107.434.243a.65.65 0 0 1 .136.48l-1.576 13.421-10.657-1.252 1.576-13.421z" class="P"/></g><g opacity=".254" class="B"><path d="M210.969 17.98a1.44 1.44 0 0 0-.301-1.063c-.237-.3-.584-.494-.964-.539l-18.634-2.189c-.38-.045-.763.064-1.063.301s-.494.584-.539.964.064.763.301 1.063.584.494.964.539l18.634 2.189c.38.045.763-.064 1.063-.301s.494-.584.539-.964z" fill="#515151"/></g><g fill="#fae54f" class="B"><path d="M208.881-6.546a1.45 1.45 0 0 0-2.049-.222h0c-.633.515-.734 1.443-.225 2.081l5.086 6.504a1.47 1.47 0 0 0 .983.544c.387.044.775-.068 1.079-.311h.002a1.47 1.47 0 0 0 .233-2.064l-5.109-6.532zm-9.555-.071a1.45 1.45 0 0 0-1.284-1.611h-.001c-.811-.088-1.541.494-1.636 1.304l-1.337 11.386a1.47 1.47 0 0 0 .306 1.081c.241.305.594.503.981.548h.002a1.47 1.47 0 0 0 1.629-1.286l1.342-11.422z"/></g><path d="M196.715 3.227l1.347-11.467 10.034 1.178-1.347 11.467z" class="Q"/><g fill="#7bd7c2"><path d="M196.377 6.094l.337-2.867 10.008 1.175-.337 2.867z"/><use href="#P"/></g><use href="#Q" class="Q"/><path d="M200.934 16.802l1.347-11.467 4.3.505-1.347 11.467z" fill="#7bd7c2"/><path d="M200.934 16.802l.168-1.433 7.167.842-.168 1.433z" class="Q"/><g clip-path="url(#H)"><path d="M187.924-.512l55.656 6.536-3.878 33.023-55.656-6.536z" fill="#b98232"/><rect x="188.553" y="-20.854" width="56.038" height="33.25" rx="4.999" transform="matrix(.993175 .116636 -.116636 .993175 .985 -25.291)" fill="#cc983f"/><g style="mix-blend-mode:multiply" class="E F"><use href="#R"/></g><g style="mix-blend-mode:multiply" class="E F"><path d="M200.532 39.307a2.5 2.5 0 0 1-2.191-2.774l4.421-37.642a2.5 2.5 0 0 1 2.774-2.191 2.5 2.5 0 0 1 2.191 2.774l-4.421 37.642a2.5 2.5 0 0 1-2.774 2.191z"/></g><g style="mix-blend-mode:multiply" class="E F"><path d="M210.779 40.51a2.5 2.5 0 0 1-2.191-2.774L213.009.094a2.5 2.5 0 0 1 2.774-2.191 2.5 2.5 0 0 1 2.191 2.774l-4.421 37.642a2.5 2.5 0 0 1-2.774 2.191z"/></g><g style="mix-blend-mode:multiply" class="E F"><path d="M221.027 41.714a2.5 2.5 0 0 1-2.191-2.774l4.421-37.642a2.5 2.5 0 0 1 2.774-2.191 2.5 2.5 0 0 1 2.191 2.774l-4.421 37.642a2.5 2.5 0 0 1-2.774 2.191z"/></g><g style="mix-blend-mode:multiply" class="E F"><path d="M231.275 42.917a2.5 2.5 0 0 1-2.191-2.774l4.421-37.642A2.5 2.5 0 0 1 236.279.31a2.5 2.5 0 0 1 2.191 2.774l-4.421 37.642a2.5 2.5 0 0 1-2.774 2.191z"/></g><g style="mix-blend-mode:multiply" class="E F"><use href="#S"/></g><g style="mix-blend-mode:multiply" class="E F"><path d="M242.7 35.48l-63.045-7.404a2.5 2.5 0 0 1-2.191-2.774 2.5 2.5 0 0 1 2.774-2.191l63.045 7.404a2.5 2.5 0 0 1 2.191 2.774 2.5 2.5 0 0 1-2.774 2.191z"/></g></g><g class="B"><path d="M213.754 2.055c.307-.245.504-.602.547-.992a1.47 1.47 0 0 0-.318-1.087c-.505-.626-1.421-.727-2.049-.226l-4.514 3.598a1.47 1.47 0 0 0-.544.983c-.044.387.068.775.311 1.08v.002a1.48 1.48 0 0 0 .985.544c.387.044.775-.068 1.08-.311l4.504-3.59z" fill="#fae54f"/><g class="I"><path d="M227.286 4.639a.56.56 0 0 1 .383.693l-.582 2.017a.56.56 0 0 1-.693.383l-9.978-2.879.892-3.092 9.977 2.878z"/><path d="M218.409 3.753a1.61 1.61 0 0 0-1.1-1.992 1.61 1.61 0 0 0-1.993 1.1 1.61 1.61 0 0 0 1.1 1.992 1.61 1.61 0 0 0 1.992-1.1z"/></g></g><rect x="211.955" y="74.154" width="63.205" height="25.521" rx="12.76" fill="#59c1bf"/><path d="M1374.465-1.632a3.53 3.53 0 0 0-3.525-3.526h-63.454a3.53 3.53 0 0 0-3.525 3.526 3.53 3.53 0 0 0 3.525 3.525h63.454c1.946 0 3.525-1.579 3.525-3.525z" fill="#f8e37e"/><g fill="#efcd5d"><use href="#T"/><path d="M1388.198-3.078a3.2 3.2 0 0 1 5.578 0l4.922 8.719h-15.423l4.922-8.719zm-106.223-.019c.946-1.676 2.72-2.717 4.642-2.717s3.703 1.041 4.649 2.717l8.286 14.685h-25.871l8.293-14.685z"/></g></g></svg>