<svg xmlns="http://www.w3.org/2000/svg" width="1500" height="145" xmlns:v="https://vecta.io/nano"><style><![CDATA[.B{fill-rule:evenodd}.C{fill:none}.D{fill:#408f43}.E{clip-rule:evenodd}.F{fill:#357963}.G{fill:#51b133}.H{fill:#74dddc}.I{stroke-linecap:round}.J{stroke-linejoin:round}.K{fill:#50b06d}.L{fill:#4aa22e}.M{fill:#8989af}.N{fill:#61d1d5}.O{fill:#9494b6}]]></style><defs><clipPath id="A"><path d="M0 0h1500v145H0z" class="C"/></clipPath><clipPath id="B"><path d="M1326.278-121.595h81.176v79.198h-81.176z" class="C"/></clipPath><clipPath id="C"><path d="M1329.798-42.397c6.264 0 11.574-4.602 12.459-10.797l3.939-27.551h43.863l3.938 27.551c.886 6.195 6.196 10.797 12.46 10.797h21.269c13.626 0 24.673 11.037 24.673 24.652s-11.046 24.652-24.673 24.652h-71.598a111.33 111.33 0 0 1-64.169-20.352l-9.979-7.039v-21.913h47.816z" class="C E"/></clipPath><clipPath id="D"><path d="M216.367,66.986h-13.823l-3.746,34.183c-.208,1.895,1.277,3.55,3.185,3.55h15.014c1.91,0,3.396-1.659,3.184-3.556l-3.813-34.177Z" class="C"/></clipPath><clipPath id="E"><path d="M209.49 65.9c0 4.983 1.981 9.764 5.509 13.289s8.312 5.504 13.302 5.504h18.919V72.269c0-4.986-1.981-9.766-5.509-13.291a18.83 18.83 0 0 0-13.302-5.504H209.49V65.9z" class="C E"/></clipPath><clipPath id="F"><path d="M209.49 65.9c0 4.983-1.981 9.764-5.509 13.289s-8.312 5.504-13.302 5.504H171.76V72.269c0-4.986 1.981-9.766 5.509-13.291a18.83 18.83 0 0 1 13.302-5.504h18.919V65.9z" class="C E"/></clipPath><clipPath id="G"><path d="M209.5 84.692l-11.3-8.228c-6.242-4.545-6.947-13.585-1.486-19.041l3.953-3.95h17.667l3.953 3.95c5.461 5.457 4.756 14.496-1.486 19.041l-11.3 8.228z" class="C E"/></clipPath><clipPath id="H"><path d="M216.478,1.878h-14.045l-3.806,34.732c-.211,1.925,1.298,3.606,3.236,3.606h15.255c1.941,0,3.45-1.686,3.235-3.613l-3.874-34.725Z" class="C"/></clipPath><clipPath id="I"><path d="M209.489.775a19.09 19.09 0 0 0 5.597 13.502 19.12 19.12 0 0 0 13.516 5.592h19.223V7.246a19.09 19.09 0 0 0-5.597-13.504 19.13 19.13 0 0 0-13.516-5.592h-19.223V.775z" class="C E"/></clipPath><clipPath id="J"><path d="M209.489.775a19.09 19.09 0 0 1-5.597 13.502 19.12 19.12 0 0 1-13.516 5.592h-19.223V7.246a19.09 19.09 0 0 1 5.597-13.504 19.13 19.13 0 0 1 13.516-5.592h19.223V.775z" class="C E"/></clipPath><clipPath id="K"><path d="M209.5 19.869l-11.482-8.36c-6.342-4.618-7.059-13.802-1.51-19.346l4.016-4.013h17.95l4.016 4.013c5.549 5.544 4.832 14.729-1.51 19.346l-11.482 8.36z" class="C E"/></clipPath><clipPath id="L"><path d="M155.283 41.993l-26.229-23.22h-1.724l-26.229 23.22v21.483a1.9 1.9 0 0 0 .558 1.345 1.91 1.91 0 0 0 1.348.559h50.37c.505 0 .99-.201 1.348-.559s.558-.841.558-1.345V41.993z" class="C E"/></clipPath><clipPath id="M"><path d="M570.151 82.313l10.951-3.534c.168-.054.351.006.454.149s.102.336-.002.478l-3.432 4.669a3.64 3.64 0 0 0 .501 4.865l-8.472-6.627z" class="C E"/></clipPath><clipPath id="N"><path d="M609.707 112.927l12.9-2.213a.6.6 0 0 1 .491 1.053l-8.38 6.938c-.582.482-1.037 1.1-1.323 1.8l-4.121 10.069a.6.6 0 0 1-1.151-.154l-1.481-13.323 1.087-2.359 1.979-1.811z" class="C E"/></clipPath><path id="O" d="M1385.522-1.635c.574,0,1.039.465,1.039,1.039s-.465,1.039-1.039,1.039-1.039-.465-1.039-1.039.465-1.039,1.039-1.039Z"/><path id="P" d="M209.5 91.696l-11.3-8.228c-6.242-4.545-6.947-13.585-1.486-19.041l3.953-3.95h17.667l3.953 3.95c5.461 5.457 4.756 14.496-1.486 19.041l-11.3 8.228z"/><path id="Q" d="M192.769 70.688c-.768 0-1.523-.374-1.974-1.063-.715-1.089-.411-2.549.679-3.263l9.586-6.283c1.09-.718 2.552-.408 3.264.676s.411 2.549-.679 3.263l-9.586 6.283a2.34 2.34 0 0 1-1.29.387z"/><path id="R" d="M226.21 70.688a2.34 2.34 0 0 1-1.29-.387l-9.583-6.283c-1.09-.713-1.394-2.174-.679-3.263s2.165-1.396 3.264-.676l9.583 6.283c1.09.713 1.394 2.174.679 3.263-.451.689-1.207 1.063-1.974 1.063z"/><path id="S" d="M209.5 26.985l-11.482-8.36c-6.342-4.618-7.059-13.802-1.51-19.346l4.016-4.013h17.95l4.016 4.013c5.549 5.544 4.832 14.729-1.51 19.346l-11.482 8.36z"/><path id="T" d="M192.501 5.64c-.78 0-1.547-.38-2.006-1.08a2.39 2.39 0 0 1 .689-3.315l9.74-6.384c1.108-.729 2.593-.415 3.316.687a2.39 2.39 0 0 1-.689 3.315l-9.74 6.384c-.406.267-.861.393-1.31.393z"/><path id="U" d="M151.395 102.971a2.14 2.14 0 0 1-2.142-2.14v-4.468a2.14 2.14 0 1 1 4.284 0v4.468a2.14 2.14 0 0 1-2.142 2.14z"/><path id="V" d="M99.508 41.496h57.369v4.777H99.508z"/><path id="W" d="M107.476 58.988h9.562v1.614h-9.562z"/><path id="X" d="M99.07 42.292l29.122-24.361"/><path id="Y" d="M557.867 83.454l-.143-2.312 2.393 1.758-2.25.554z"/><path id="Z" d="M1079.359 132.342l-3.211 2.567 3.211 2.567a4.84 4.84 0 0 1 0-5.134z"/></defs><g clip-path="url(#A)"><path d="M-11.618-2120.128h1523.237V452.897H-11.618z" class="N"/><path d="M1682.204-274.405a88.54 88.54 0 0 0-68.363-32.124h-99.121v-146.584h-14.384c-22.663 0-41.036-18.372-41.036-41.036v-52.232c0-21.744-8.476-42.189-23.867-57.568s-35.854-23.846-57.619-23.846h-177.815c-21.766 0-42.229 8.469-57.61 23.841-15.396 15.375-23.874 35.822-23.874 57.574v65.918c0 21.49 8.307 41.761 23.383 57.079l16.139 16.399c15.866 16.122 15.691 42.042-.386 57.953-26.308 26.036-90.657 24.395-114.095 2.198-15.284-14.474-32.709-32.517-61.304-32.517H868.954c-23.811 0-46.2 9.264-63.051 26.093l-80.526 80.463c-1.197 1.195-2.819 1.867-4.51 1.867h-98.666c-40.185 0-75.581 27.072-86.076 65.841L499.091-68.22c-7.198 26.596-1.49 55.534 15.273 77.412s43.229 34.938 70.801 34.938h77.643c11.636 0 149.632 120.916 149.632 120.916 4.813 4.813 4.19 12.738-1.256 16.821-3.878 2.908-69.317 70.079-79.233 82.634-17.516 22.178-16.971 53.63 1.305 75.185 0 0 14.789 18.045 18.428 21.601 9.72 9.497 22.857 14.685 36.447 14.685h8.224c9.006 16.001 26.166 26.832 45.81 26.832h35.226c27.597 0 53.541-10.738 73.054-30.234l1.177-1.174c19.513-19.498 30.26-45.422 30.26-72.995v-1.928c0-6.15 4.985-11.135 11.135-11.135h147.779c12.525 0 22.672 10.173 22.648 22.698 0 23.724 9.236 46.024 26.011 62.801l14.396 14.395c16.772 16.772 39.073 26.01 62.794 26.01h124.272c23.552 0 46.139-9.356 62.793-26.01L1602.942 236c12.687-12.688 21.149-28.713 24.473-46.343l73.694-390.93c4.913-26.061-1.978-52.715-18.903-73.131z" class="H"/><g class="N"><path d="M1613.841-209.246h-184.105a38.81 38.81 0 0 0-27.439 11.365l-70.229 70.229c-7.277 7.277-17.147 11.365-27.439 11.365h-76.817a38.81 38.81 0 0 0-27.439 11.365l-20.052 20.052c-7.277 7.277-11.365 17.147-11.365 27.439v3.655a38.81 38.81 0 0 0 11.365 27.439l63.144 63.144c7.277 7.277 11.365 17.147 11.365 27.439v12.1a38.81 38.81 0 0 0 11.365 27.439l30.533 30.533c7.277 7.277 11.365 17.147 11.365 27.439h0a38.81 38.81 0 0 1-11.365 27.439l-71.921 71.921c-7.277 7.277-11.365 17.147-11.365 27.439v19.487a38.81 38.81 0 0 0 11.365 27.439l14.396 14.396c7.277 7.277 17.147 11.365 27.439 11.365h124.271a38.81 38.81 0 0 0 27.439-11.365l149.232-149.232a38.81 38.81 0 0 0 10.694-20.25l73.695-343.647c4.504-23.891-13.82-45.992-38.132-45.992zM1268.516 164.08l-38.739 38.739a17.65 17.65 0 0 1-12.48 5.17h-44.822c-11.714 0-22.948 4.653-31.231 12.936h0c-8.283 8.283-19.517 12.936-31.231 12.936h-72.618c-14.725 0-28.847-5.85-39.26-16.262l-27.95-27.95a55.52 55.52 0 0 1-16.262-39.26h0c0-14.725 5.85-28.847 16.262-39.26l26.632-26.632a55.52 55.52 0 0 1 39.26-16.262h111.291c11.714 0 22.948 4.653 31.231 12.936l47.609 47.609a17.65 17.65 0 0 0 12.48 5.17h17.348c9.748 0 17.65 7.902 17.65 17.65h0a17.65 17.65 0 0 1-5.17 12.48z"/><g class="B"><path d="M1070.934 7.747h13.038a6.46 6.46 0 0 1 4.565 1.89l.971.97-.859.858a6.46 6.46 0 0 1-4.566 1.89h-13.149a3.83 3.83 0 0 1-2.706-1.12l-1.686-1.684 1.686-1.684a3.83 3.83 0 0 1 2.706-1.12z"/><path d="M1066.543 10.55l-4.593 3.671c1.405-2.246 1.405-5.096 0-7.343l4.593 3.671zM1106.776.404h13.038a6.46 6.46 0 0 1 4.566 1.89l.971.97-.859.858a6.46 6.46 0 0 1-4.566 1.89h-13.15a3.83 3.83 0 0 1-2.706-1.12l-1.685-1.684 1.685-1.684a3.83 3.83 0 0 1 2.706-1.12z"/><path d="M1097.792-.464l4.593 3.671-4.593 3.671c1.405-2.246 1.405-5.096 0-7.343zm-48.937-2.197h13.038c1.712 0 3.354.68 4.566 1.89l.971.97-.859.858a6.46 6.46 0 0 1-4.565 1.89h-13.15a3.83 3.83 0 0 1-2.706-1.12l-1.686-1.684 1.686-1.684a3.83 3.83 0 0 1 2.706-1.12z"/><path d="M1044.464.142l-4.593 3.671c1.405-2.246 1.405-5.096 0-7.343l4.593 3.671zm-25.296 12.697h13.038a6.46 6.46 0 0 1 4.565 1.89l.971.97-.859.858a6.46 6.46 0 0 1-4.566 1.89h-13.149a3.83 3.83 0 0 1-2.706-1.12l-1.685-1.684 1.685-1.684a3.83 3.83 0 0 1 2.706-1.12z"/><path d="M1014.777 15.643l-4.593 3.671c1.405-2.246 1.405-5.096 0-7.343l4.593 3.671zm-5.962-14.633h13.038a6.46 6.46 0 0 1 4.566 1.89l.971.97-.859.858a6.46 6.46 0 0 1-4.566 1.89h-13.15c-1.015 0-1.988-.403-2.705-1.12l-1.686-1.684 1.686-1.684c.717-.717 1.691-1.12 2.705-1.12z"/><path d="M1004.424 3.814l-4.593 3.671c1.405-2.246 1.405-5.096 0-7.343l4.593 3.671zm78.448 17.798h13.038a6.46 6.46 0 0 1 4.565 1.889l.971.97-.859.858a6.46 6.46 0 0 1-4.566 1.89h-13.149a3.83 3.83 0 0 1-2.706-1.12l-1.685-1.684 1.685-1.684a3.83 3.83 0 0 1 2.706-1.12z"/><path d="M1078.481,24.416l-4.593,3.671c1.405-2.246,1.405-5.096,0-7.343l4.593,3.671Z"/></g></g><g clip-path="url(#B)"><path d="M1329.798-42.397c6.264 0 11.574-4.602 12.459-10.797l3.939-27.551h43.863l3.938 27.551c.886 6.195 6.196 10.797 12.46 10.797h21.269c13.626 0 24.673 11.037 24.673 24.652s-11.046 24.652-24.673 24.652h-71.598a111.33 111.33 0 0 1-64.169-20.352l-9.979-7.039v-21.913h47.816z" fill="#dad1dd" class="B"/><g clip-path="url(#C)"><path d="M1275.471-19.457h181.179V7.507h-181.179z" fill="#a68fae"/><g fill="#8c7692" class="B"><use href="#O"/><path d="M1399.232-1.635a1.04 1.04 0 0 1 1.039 1.039 1.04 1.04 0 0 1-1.039 1.039 1.04 1.04 0 0 1-1.039-1.039 1.04 1.04 0 0 1 1.039-1.039zm13.71 0a1.04 1.04 0 0 1 1.04 1.039 1.04 1.04 0 0 1-1.04 1.039 1.04 1.04 0 0 1-1.039-1.039 1.04 1.04 0 0 1 1.039-1.039zm13.71 0a1.04 1.04 0 0 1 1.04 1.039 1.04 1.04 0 0 1-1.04 1.039 1.04 1.04 0 0 1-1.039-1.039 1.04 1.04 0 0 1 1.039-1.039zm13.711 0a1.04 1.04 0 0 1 1.039 1.039 1.04 1.04 0 0 1-1.039 1.039 1.04 1.04 0 0 1-1.04-1.039 1.04 1.04 0 0 1 1.04-1.039z"/></g><g stroke="#8c7692" stroke-width="2.731" class="C I J"><path d="M1378.097 11.701h0c0-4.704 1.87-9.214 5.198-12.539s7.842-5.194 12.549-5.194h57.359m-95.031 17.733h0c0-4.704-1.87-9.214-5.198-12.539s-7.842-5.194-12.549-5.194h-57.36"/></g></g></g><path d="M934.72-116.469a41.36 41.36 0 0 0-29.246 12.114l-30.29 30.291a41.36 41.36 0 0 1-29.246 12.114h-46.781a41.36 41.36 0 0 0-29.246 12.114l-4.359 4.359a41.36 41.36 0 0 1-29.246 12.114h-57.734a41.36 41.36 0 0 1-29.246-12.114l-31.772-31.772a41.36 41.36 0 0 1-12.114-29.246v-47.806a41.36 41.36 0 0 1 12.114-29.246l18.38-18.38c7.376-7.377 11.67-17.253 12.074-27.638h-25.807a47.77 47.77 0 0 0-46.114 35.272L539.051-57.419c-3.882 14.342-.856 29.672 8.184 41.47S570.296 2.77 585.166 2.77h244.215a47.8 47.8 0 0 0 33.78-13.981l103.937-103.852c-3.407-.904-6.959-1.406-10.603-1.406h-21.773z" fill="#fcf4c7"/><path d="M334.858,101.512c-17.819,0-32.316-14.485-32.316-32.291s14.497-32.289,32.316-32.289h16.272c17.821,0,32.318,14.485,32.318,32.289s-14.497,32.291-32.318,32.291h-16.272Z" class="B H"/><rect x="323.196" y="57.57" width="39.596" height="23.305" rx="11.652" class="K"/><g class="B"><path d="M137.998 151.212c-26.388 0-50.909-15.316-62.471-39.021L54.426 68.913c-12.99-26.65-7.624-58.605 13.341-79.538l3.534-3.531 54.716-54.689c13.16-13.134 30.609-20.353 49.163-20.353a69.1 69.1 0 0 1 49.134 20.322l43.833 43.806c13.123 13.096 20.36 30.537 20.36 49.091v57.757c0 18.545-7.235 35.982-20.373 49.102-13.135 13.113-30.58 20.332-49.127 20.332H138z" class="H"/><path d="M85.791 53.621a34.54 34.54 0 0 1 6.645-39.583l58.273-58.242c13.526-13.5 35.416-13.5 48.943 0l43.81 43.782c6.491 6.48 10.145 15.274 10.145 24.442v57.756a34.55 34.55 0 0 1-10.145 24.442c-6.492 6.48-15.278 10.124-24.457 10.124h-81.008c-13.225 0-25.302-7.542-31.099-19.428L85.79 53.62z" class="K"/></g><path d="M85.791 53.622a34.54 34.54 0 0 1 6.645-39.583l58.273-58.242c13.526-13.5 35.416-13.5 48.943 0l43.81 43.782c6.491 6.48 10.145 15.274 10.145 24.442v57.756a34.55 34.55 0 0 1-10.145 24.442c-6.492 6.48-15.278 10.124-24.457 10.124h-81.008c-13.225 0-25.302-7.542-31.099-19.428L85.79 53.622z" stroke="#50b06d" stroke-dasharray="0 14.434" stroke-width="14.581" class="C I J"/><path d="M216.367,66.986h-13.823l-3.746,34.183c-.208,1.895,1.277,3.55,3.185,3.55h15.014c1.91,0,3.396-1.659,3.184-3.556l-3.813-34.177Z" fill="#b38150"/><g clip-path="url(#D)" class="B"><use href="#P" style="mix-blend-mode:multiply" fill="#6a6863" opacity=".25"/></g><path d="M209.49 65.9c0 4.983 1.981 9.764 5.509 13.289s8.312 5.504 13.302 5.504h18.919V72.269c0-4.986-1.981-9.766-5.509-13.291a18.83 18.83 0 0 0-13.302-5.504H209.49V65.9z" class="B L"/><g clip-path="url(#E)"><path d="M209.49 53.474l42.104 35.987H209.49V53.474z" class="B D"/><path d="M208.011 55.288l2.981-3.65 37.71 30.798-2.981 3.65z" class="G"/><g class="B"><g class="F"><path d="M231.499 86.728h-4.716v-7.926a2.36 2.36 0 0 1 2.358-2.356 2.36 2.36 0 0 1 2.358 2.356v7.926zm-9.433.349h-4.716v-15.64c0-1.301 1.054-2.354 2.356-2.354h.005c1.302 0 2.356 1.053 2.356 2.354v15.64z"/></g><g class="D"><path d="M247.22 71.484v-4.463h-7.199a2.24 2.24 0 0 0-1.58.655 2.23 2.23 0 0 0-.653 1.576h0a2.24 2.24 0 0 0 .653 1.579c.42.419.988.653 1.58.653h7.199zm0-9.175v-4.712h-14.151c-1.302 0-2.356 1.053-2.356 2.354v.005c0 1.301 1.054 2.354 2.356 2.354h14.151z"/></g></g></g><path d="M209.49 65.9c0 4.983-1.981 9.764-5.509 13.289s-8.312 5.504-13.302 5.504H171.76V72.269c0-4.986 1.981-9.766 5.509-13.291a18.83 18.83 0 0 1 13.302-5.504h18.919V65.9z" class="B L"/><g clip-path="url(#F)"><path d="M209.49 53.474l-42.105 35.987h42.105V53.474z" class="B D"/><path d="M170.27 82.42l37.731-30.772 2.979 3.652-37.731 30.772z" class="G"/><g class="B"><g class="F"><path d="M187.48 86.728h4.716v-7.926a2.36 2.36 0 0 0-2.358-2.356 2.36 2.36 0 0 0-2.358 2.356v7.926zm9.433.349h4.716V71.439c0-.624-.248-1.223-.691-1.666a2.36 2.36 0 0 0-1.667-.69c-.625 0-1.226.25-1.667.69s-.691 1.041-.691 1.666v15.638z"/></g><g class="D"><path d="M171.759 71.734v-4.712h7.077c.625 0 1.224.247 1.665.69s.691 1.039.691 1.663v.005c0 .624-.248 1.223-.691 1.666a2.35 2.35 0 0 1-1.665.688h-7.077zm0-9.425v-4.712h14.149c.625 0 1.226.25 1.667.69s.691 1.041.691 1.666a2.35 2.35 0 0 1-2.358 2.356h-14.149z"/></g></g></g><path d="M209.5 84.692l-11.3-8.228c-6.242-4.545-6.947-13.585-1.486-19.041l3.953-3.95h17.667l3.953 3.95c5.461 5.457 4.756 14.496-1.486 19.041l-11.3 8.228z" class="B G"/><g clip-path="url(#G)"><path d="M209.5 52.043h17.828v33.81H209.5z" class="D"/><path d="M207.133 50.07h4.716v41.096h-4.716z" fill="#5ebe3e"/><use href="#Q" class="D"/><use href="#R" class="F"/><path d="M192.769 81.432c-.768 0-1.523-.374-1.974-1.063-.715-1.089-.411-2.549.679-3.263l9.586-6.283c1.09-.718 2.552-.408 3.264.676s.411 2.549-.679 3.263l-9.586 6.283a2.34 2.34 0 0 1-1.29.387z" class="D"/><path d="M226.21 81.432a2.34 2.34 0 0 1-1.29-.387l-9.583-6.283c-1.09-.713-1.394-2.174-.679-3.263s2.165-1.396 3.264-.676l9.583 6.283c1.09.713 1.394 2.174.679 3.263-.451.689-1.207 1.063-1.974 1.063z" class="F"/></g><path d="M222.218 96.473c-2.534 0-4.608 2.072-4.608 4.604a4.62 4.62 0 0 0-4.608-4.604 4.62 4.62 0 0 0-4.608 4.604c0-2.532-2.074-4.604-4.608-4.604s-4.608 2.072-4.608 4.604a4.62 4.62 0 0 0-4.608-4.604 4.62 4.62 0 0 0-4.608 4.604l4.165 3.642 10.715 1.148 15.358-.759 6.625-4.031c0-2.532-2.074-4.604-4.608-4.604z" class="B K"/><path d="M216.478,1.878h-14.045l-3.806,34.732c-.211,1.925,1.298,3.606,3.236,3.606h15.255c1.941,0,3.45-1.686,3.235-3.613l-3.874-34.725Z" fill="#b38150"/><g clip-path="url(#H)" class="B"><use href="#S" style="mix-blend-mode:multiply" fill="#6a6863" opacity=".25"/></g><path d="M209.489.775a19.09 19.09 0 0 0 5.597 13.502 19.12 19.12 0 0 0 13.516 5.592h19.223V7.246a19.09 19.09 0 0 0-5.597-13.504 19.13 19.13 0 0 0-13.516-5.592h-19.223V.775z" class="B L"/><g clip-path="url(#I)"><path d="M209.489-11.851l42.78 36.565h-42.78v-36.565z" class="B D"/><path d="M207.988-10.008l3.029-3.709 38.314 31.292-3.029 3.709z" class="G"/><g class="B"><g class="F"><path d="M231.852 21.937h-4.792v-8.053c0-1.321 1.073-2.394 2.396-2.394s2.396 1.072 2.396 2.394v8.053zm-9.584.354h-4.792V6.4c0-1.321 1.071-2.392 2.394-2.392h.005c1.323 0 2.394 1.07 2.394 2.392v15.891z"/></g><path d="M247.825 6.448V1.914h-7.315a2.27 2.27 0 0 0-2.269 2.268h0c0 .603.24 1.178.664 1.604a2.27 2.27 0 0 0 1.605.663h7.315z" class="D"/></g></g><path d="M209.489.775a19.09 19.09 0 0 1-5.597 13.502 19.12 19.12 0 0 1-13.516 5.592h-19.223V7.246a19.09 19.09 0 0 1 5.597-13.504 19.13 19.13 0 0 1 13.516-5.592h19.223V.775z" class="B L"/><g clip-path="url(#J)"><path d="M209.489-11.851L166.71 24.714h42.779v-36.565z" class="B D"/><path d="M169.641 17.56l38.336-31.265 3.027 3.711-38.336 31.265z" class="G"/><g class="B"><g class="F"><path d="M187.127 21.937h4.792v-8.053c0-1.321-1.073-2.394-2.396-2.394s-2.396 1.072-2.396 2.394v8.053zm9.584.354h4.792V6.403c0-.634-.252-1.242-.702-1.693a2.4 2.4 0 0 0-1.694-.701c-.635 0-1.246.254-1.694.701s-.702 1.058-.702 1.693v15.889z"/></g><path d="M171.154 6.702V1.914h7.19c.635 0 1.243.251 1.692.701s.702 1.056.702 1.69v.005c0 .634-.252 1.242-.702 1.693a2.39 2.39 0 0 1-1.692.699h-7.19z" class="D"/></g></g><path d="M209.5 19.869l-11.482-8.36c-6.342-4.618-7.059-13.802-1.51-19.346l4.016-4.013h17.95l4.016 4.013c5.549 5.544 4.832 14.729-1.51 19.346l-11.482 8.36z" class="B G"/><g clip-path="url(#K)"><path d="M209.5-13.304h18.114v34.352H209.5z" class="D"/><path d="M207.095-15.309h4.792v41.755h-4.792z" fill="#5ebe3e"/><use href="#T" class="D"/><path d="M226.478 5.64c-.449 0-.905-.126-1.31-.393l-9.737-6.384a2.39 2.39 0 0 1-.689-3.315 2.39 2.39 0 0 1 3.316-.687l9.737 6.384a2.39 2.39 0 0 1 .689 3.315c-.459.7-1.226 1.08-2.006 1.08z" class="F"/><path d="M192.501 16.556c-.78 0-1.547-.38-2.006-1.08a2.39 2.39 0 0 1 .689-3.315l9.74-6.384c1.108-.729 2.593-.415 3.316.687a2.39 2.39 0 0 1-.689 3.315l-9.74 6.384c-.406.267-.861.393-1.31.393z" class="D"/><path d="M226.478 16.556c-.449 0-.905-.126-1.31-.393l-9.737-6.384a2.39 2.39 0 1 1 2.627-4.002l9.737 6.384a2.39 2.39 0 0 1 .689 3.315c-.459.7-1.226 1.08-2.006 1.08z" class="F"/></g><path d="M222.422,31.838c-2.575,0-4.682,2.105-4.682,4.678,0-2.573-2.107-4.678-4.682-4.678s-4.682,2.105-4.682,4.678c0-2.573-2.107-4.678-4.682-4.678s-4.682,2.105-4.682,4.678c0-2.573-2.107-4.678-4.682-4.678s-4.682,2.105-4.682,4.678l4.232,3.701,10.887,1.166,15.604-.771,6.731-4.096c0-2.573-2.107-4.678-4.682-4.678Z" class="B K"/><g fill="#d8782d"><path d="M244.553-2.058l-3.784-4.868-.61-1.97-.522-2.362c-.272-1.569-.364-3.122-.213-4.491l.006-.059h0c.189-1.72-1.052-3.267-2.773-3.456s-3.269 1.051-3.458 2.771c-.245 2.225-.079 4.308.259 6.295l.646 2.925.93 2.915h0l.303.603c.103.203.256.384.456.523l5.944 4.139c.723.502 1.719.505 2.452-.063.902-.7 1.066-1.999.365-2.9zm-19.751-1.247h0c-.236-1.588-.758-2.868-1.328-4.065l-.932-1.721-1.103-1.679-.094-.128c-.12-.16-.257-.312-.411-.451a3.16 3.16 0 0 0-4.458.22 3.15 3.15 0 0 0 .22 4.454c.276.25.656.664.966 1.019l.911 1.136c.505.686.916 1.393 1.165 1.993l-.393 2.815a2.01 2.01 0 0 0 1.159 2.103c1.009.457 2.199.011 2.656-.998l1.59-3.502c.097-.216.141-.466.11-.718l-.058-.479z"/></g><path d="M236.032-.164l-3.744-5.427.023-1.909c.041-.906.129-1.797.266-2.645s.337-1.646.594-2.312c.25-.666.582-1.164.799-1.36l.022-.02.035-.032a3.13 3.13 0 0 0 .129-4.427c-1.188-1.258-3.172-1.316-4.431-.129-1.264 1.192-1.928 2.511-2.405 3.72-.466 1.221-.735 2.394-.928 3.54-.186 1.145-.293 2.267-.344 3.377l.013 3.39h0l.086.599a2.06 2.06 0 0 0 .727 1.295l6.137 5.098c.694.576 1.712.649 2.491.112a2.06 2.06 0 0 0 .528-2.869z" fill="#e39f4f"/><path d="M193.713 1.739c-5.179 0-9.968-1.256-10.258-1.333-.73-.195-1.163-.944-.968-1.673a1.37 1.37 0 0 1 1.675-.968c.095.026 9.6 2.514 15.607.372 4.297-1.531 7.118-3.72 9.847-5.836 2.133-1.654 4.337-3.364 7.184-4.728.68-.328 1.498-.04 1.825.642s.039 1.497-.642 1.824c-2.582 1.238-4.577 2.785-6.688 4.423-2.899 2.248-5.896 4.573-10.606 6.252-2.142.763-4.6 1.027-6.975 1.027z" fill="#dc8430"/><path d="M221.866-7.184l-.154-1.771-.019-.15a3.2 3.2 0 0 0-.152-.625 3.16 3.16 0 0 0-4.029-1.925c-1.645.58-2.507 2.382-1.927 4.025.124.351.258.845.368 1.274l.293 1.325c.155.797.227 1.604.218 2.138L214.708.37a2 2 0 0 0 .418 2.427 2 2 0 0 0 2.826-.137l3.047-3.355a1.32 1.32 0 0 0 .281-.494l.11-.361h0c.229-.751.331-1.414.406-2.054s.094-1.237.105-1.833l-.038-1.748z" fill="#e39f4f"/><g fill="#409058"><path d="M142.827 102.971a2.14 2.14 0 0 1-2.142-2.14v-6.699a2.14 2.14 0 1 1 4.284 0v6.699a2.14 2.14 0 0 1-2.142 2.14z" opacity=".5"/><use href="#U" opacity=".5"/><path d="M134.258 102.971a2.14 2.14 0 0 1-2.142-2.14v-4.468a2.14 2.14 0 1 1 4.284 0v4.468a2.14 2.14 0 0 1-2.142 2.14z" opacity=".5"/></g><path d="M155.283 41.993l-26.229-23.22h-1.724l-26.229 23.22v21.483a1.9 1.9 0 0 0 .558 1.345 1.91 1.91 0 0 0 1.348.559h50.37c.505 0 .99-.201 1.348-.559s.558-.841.558-1.345V41.993z" fill="#faea92" class="B"/><g clip-path="url(#L)"><g fill="#f1d66a"><use href="#V"/><path d="M99.508 60.603h57.369v4.777H99.508zm0-28.66h57.369v4.777H99.508zm0-9.554h57.369v4.777H99.508zm0 28.66h57.369v4.777H99.508z"/></g><path d="M98.711 46.031l29.481-24.438 29.773 24.68" stroke="#ceb245" stroke-linejoin="bevel" stroke-width="4.779" class="C"/></g><path d="M123.412 52.642h9.562V65.38h-9.562z" fill="#434033"/><path d="M123.412 52.642h9.562v3.184h-9.562z" fill="#14130f"/><g fill="#6fbaa1"><path d="M139.348 51.049h9.562v9.553h-9.562zm-31.872 0h9.562v9.553h-9.562zm17.529-19.086h6.374v7.961h-6.374z"/></g><g fill="#fff"><path d="M125.005 38.289h6.374v1.614h-6.374z"/><use href="#W"/><path d="M139.348 58.988h9.562v1.614h-9.562z"/></g><g fill="#519980"><path d="M139.348 51.027h9.562v1.614h-9.562zm-31.872 0h9.562v1.614h-9.562zm17.529-20.678h6.374v1.614h-6.374z"/></g><g stroke="#6b8b44" stroke-width="5.734" class="C I J"><use href="#X"/><path d="M99.07 35.127l29.122-24.361M99.07 27.962l29.122-24.361m29.123 38.691l-29.123-24.361"/><path d="M157.315 35.127l-29.123-24.361m29.123 17.196L128.192 3.601"/></g><rect x="125.762" y="-.698" width="4.86" height="25.794" rx="2.427" fill="#51742a"/><rect x="41.182" y="40.272" width="19.452" height="9.054" rx="4.525" opacity=".073"/><g class="B"><g fill="#6da090"><path d="M50.908 9.454a3.03 3.03 0 0 1-.889 2.143c-.569.568-1.34.888-2.145.888h-.004a3.03 3.03 0 0 1-3.033-3.031V4.241a4.16 4.16 0 0 1 2.472-3.8l6.807-3.022a.57.57 0 0 1 .669.155c.163.196.178.475.033.686l-3.204 4.707c-.46.677-.707 1.476-.707 2.295v4.194zm18.612-.839H58.413v3.719H65.8a3.72 3.72 0 0 0 3.72-3.716v-.002z"/></g><path d="M63.878 8.615c-2.177 5.238-7.294 8.651-12.969 8.651a14.04 14.04 0 0 1-12.968-8.651h25.937z" fill="#fff"/><path d="M37.433 11.101c0-.681-.553-1.233-1.234-1.233h-3.702c-.681 0-1.234.552-1.234 1.233s.553 1.233 1.234 1.233h3.702c.681 0 1.234-.552 1.234-1.233z" fill="#f0a039"/><path d="M50.908 15.515a3.03 3.03 0 0 0-.889-2.143c-.569-.568-1.34-.888-2.145-.888h-.004c-1.675 0-3.033 1.358-3.033 3.031v5.213a4.16 4.16 0 0 0 2.472 3.8l6.807 3.022a.57.57 0 0 0 .702-.841l-3.204-4.707c-.46-.677-.707-1.476-.707-2.295v-4.194z" fill="#6da090"/><path d="M46.072 10.484a1.85 1.85 0 0 0-1.851-1.85h-7.405a1.85 1.85 0 1 0 0 3.7h7.405a1.85 1.85 0 0 0 1.851-1.85z" fill="#fff"/></g><path d="M36.199 9.868h1.234v1.233h-1.234z" fill="#6e82a4"/><path d="M133.978 203.566c16.2-16.2 37.739-25.122 60.65-25.123h52.167a17.17 17.17 0 0 0 12.225-5.064l9.468-9.468c33.443-33.443 87.858-33.443 121.301 0 16.201 16.201 25.122 37.739 25.123 60.651v46.847c-.001 22.911-8.923 44.45-25.123 60.65l-50.639 50.639c-16.2 16.2-37.739 25.122-60.65 25.123h-40.503c-22.982-.001-45.363-9.437-61.407-25.887l-49.966-51.236c-32.609-33.438-32.27-87.509.757-120.535l6.597-6.597z" class="H"/><g class="B"><path d="M575.545 96.382l-3.768 6.583-12.022.443c-.219.008-.424-.11-.527-.304s-.085-.43.045-.607l2.482-3.377a2.09 2.09 0 0 1 1.369-.829l12.421-1.909z" class="M"/><path d="M570.151 82.313l10.951-3.534c.168-.054.351.006.454.149s.102.336-.002.478l-3.432 4.669a3.64 3.64 0 0 0 .501 4.865l-8.472-6.627z" class="O"/></g><g clip-path="url(#M)" class="M"><path d="M567.303 81.144l1.766-2.402 13.235 9.728-1.766 2.402z"/></g><g class="B"><g class="M"><path d="M596.564 112.155l-.059 4.627c-.003.249.155.471.39.55s.495-.003.643-.203l.924-1.256c.593-.806 1.653-1.113 2.585-.746h0l-4.482-2.971zm4.33-5.891l4.399-1.438c.236-.077.495.007.641.208a.57.57 0 0 1-.002.674l-1.06 1.442a1.64 1.64 0 0 0 .35 2.294h0l-4.328-3.181z"/></g><path d="M608.372 118.385l-53.668-41.604-1.017 1.384c-.667.907-.945 2.041-.774 3.154l.149.971a25.61 25.61 0 0 0 15.59 19.802l39.72 16.294z" fill="#c5c5e0"/><path d="M555.228 82.031l-.215-3.468 3.589 2.638-3.374.83z" fill="#f4f4f4"/><path d="M611.445 114.204l-29.201-23.559-1.287-.991-26.628-19.572c-.598-.44-1.4-.478-2.032-.097a1.81 1.81 0 0 0-.854 1.836 13.11 13.11 0 0 0 5.19 8.519l51.746 38.035 3.065-4.17z" class="O"/><path d="M555.049 72.196l.012.009.011.009.011.01.011.01.011.01.01.01.011.011.009.011.01.011.01.011.009.012.009.011.009.012.008.012.008.013.008.012.007.013.008.013.007.013.006.013.007.013.006.013.006.014.005.014.005.013.005.014.004.014.005.014.003.015.004.014.003.014.003.015.003.014.002.015.002.014.001.015.002.015v.014l.001.015v.015.015.014l-.001.015-.001.015-.002.014-.001.015-.003.015-.002.014-.003.015-.003.014-.003.014-.004.015-.004.014-.005.014-.004.014-.005.014-.006.013-.005.014-.006.013-.007.014-.006.013-.007.013-.007.013-.008.012-.007.013-.009.012-.008.012-.008.012-.009.012-.009.012-.01.011-.009.011-.01.011-.01.011-.011.01-.01.011-.011.009-.011.01-.012.01-.011.009-.012.009-.012.008-.012.009-.012.008-.013.008-.012.007-.013.008-.013.007-.013.006-.013.007-.014.006-.013.006-.014.005-.014.005-.014.005-.014.004-.014.005-.014.003-.014.004-.015.003-.014.003-.015.003-.014.002-.015.002-.015.001-.014.002h-.015l-.015.001h-.014-.015-.015l-.015-.001-.014-.001-.015-.002-.015-.001-.014-.003-.015-.002-.014-.003-.014-.003-.015-.003-.014-.004-.014-.004-.014-.005-.014-.004-.014-.005-.014-.006-.013-.005-.014-.006-.013-.007-.013-.006-.013-.007-.013-.007-.013-.008-.012-.008-.013-.008-.012-.008-.012-.008-.684-.503-.011-.009-.012-.009-.011-.009-.011-.01-.011-.01-.011-.01-.011-.01-.01-.011-.01-.011-.009-.011-.01-.011-.009-.012-.009-.011-.009-.012-.008-.012-.008-.013-.008-.012-.008-.013-.007-.013-.007-.013-.006-.013-.007-.013-.006-.013-.006-.014-.005-.014-.005-.013-.005-.014-.005-.014-.004-.015-.004-.014-.003-.014-.003-.014-.003-.015-.003-.014-.002-.015-.002-.015-.002-.014-.001-.015-.001-.015v-.014-.015-.015-.014l.001-.015.001-.015.001-.015.002-.014.002-.015.003-.014.003-.015.003-.014.003-.014.004-.015.004-.014.004-.014.005-.014.005-.014.006-.013.005-.014.006-.013.006-.014.007-.013.007-.013.007-.013.008-.012.007-.013.008-.012.009-.013.008-.011.009-.012.009-.012.01-.011.009-.011.01-.011.01-.011.011-.01.01-.011.011-.01.011-.009.011-.01.012-.009.012-.009.012-.009.012-.008.012-.008.012-.008.013-.007.013-.008.013-.007.013-.006.013-.007.014-.006.013-.006.014-.005.014-.005.014-.005.014-.005.014-.004.014-.004.014-.003.015-.003.014-.003.015-.003.014-.002.015-.002.014-.001.015-.002.015-.001h.015.014.015.015l.014.001.015.001.015.002.014.001.015.003.014.002.015.003.014.003.015.003.014.004.014.004.014.005.014.004.014.005.014.006.013.005.014.006.013.007.013.006.013.007.013.007.013.008.012.007.013.008.012.009.012.008.683.503.012.009z" fill="#240227"/></g><g stroke="#8989af" stroke-width="2.049" class="C I J"><path d="M569.236 83.983l-1.246 1.695m4.594.766l-1.245 1.695m4.594.766l-1.246 1.695"/></g><path d="M609.707 112.927l12.9-2.213a.6.6 0 0 1 .491 1.053l-8.38 6.938c-.582.482-1.037 1.1-1.323 1.8l-4.121 10.069a.6.6 0 0 1-1.151-.154l-1.481-13.323 1.087-2.359 1.979-1.811z" class="B O"/><g clip-path="url(#N)" class="M"><path d="M591.912 119.501l6.313-8.589 21.427 15.75-6.313 8.589zm9.379-12.76l6.062-8.248 21.427 15.75-6.062 8.248z"/></g><g class="B"><g fill="#f4f4f4"><path d="M560.26 85.213l-.143-2.313 2.392 1.759-2.249.554z"/><use href="#Y"/><path d="M562.652 86.971l-.143-2.312 2.393 1.758-2.25.554z"/></g><path d="M564.019 80.059a.58.58 0 0 0 .105-.428c-.023-.151-.105-.287-.228-.377l-5.675-4.172a.58.58 0 0 0-.428-.105c-.151.023-.287.105-.377.228l-.497.676a.58.58 0 0 0-.105.428c.023.151.105.287.228.377l5.675 4.172a.58.58 0 0 0 .428.105c.151-.023.287-.105.377-.228l.497-.676z" fill="#7c7ca6"/></g><rect x="558.962" y="75.598" width="2.488" height="4.977" rx=".576" transform="matrix(.592252 -.805753 .805753 .592252 165.504 483.226)" fill="#fbec65"/><g class="B"><path d="M561.745 77.673l-1.604-1.179-1.13 1.538a.58.58 0 0 0 .124.811l.669.492a.58.58 0 0 0 .811-.124l1.13-1.538z" fill="#240227"/><path d="M576.935 97.404l-5.158 5.561 3.165 11.606c.058.212.232.372.447.412s.436-.047.566-.224l2.482-3.377c.328-.447.466-1.006.383-1.554l-1.885-12.424z" fill="#c5c5e0"/></g><path d="M592.585,97.462h-17.542c-2.407,0-4.716-.956-6.418-2.658h0c-1.702-1.702-4.011-2.658-6.418-2.658h-12.174l6.272,15.417,19.341,12.505,32.513,15.264,16.753-14.065,3.351-14.628-35.678-9.176Z" class="N"/><g fill="#d6f0f0"><path d="M593.647 95.315c-.413.516-2.386 1.067-2.386 1.067s.105-2.046.518-2.562 1.166-.599 1.682-.186.599 1.166.186 1.682zm-5.081-2.396c.023.515 1.014 1.768 1.014 1.768s.873-1.337.85-1.852-.459-.913-.974-.89-.913.459-.89.974zm-35.237-.573c.609.257 2.606-.2 2.606-.2s-1.067-1.749-1.676-2.005-1.311.029-1.567.638.029 1.311.638 1.567zm4.936-2.617c-.063.511-1.149 1.683-1.149 1.683s-.766-1.401-.703-1.913.529-.874 1.041-.811.874.529.811 1.041z"/></g><g fill="#59c1bf" class="B"><path d="M1060.692 135.548c.847.846 1.995 1.321 3.192 1.321h9.194a2.68 2.68 0 0 0 1.892-.783l1.178-1.177-1.178-1.177a2.68 2.68 0 0 0-1.892-.783h-9.116c-1.197 0-2.346.475-3.192 1.321l-.679.678.601.6z"/><use href="#Z"/><path d="M1047.334 144.535l.601.6c.847.846 1.995 1.321 3.192 1.321h9.194a2.68 2.68 0 0 0 1.892-.783l1.178-1.177-1.178-1.177a2.68 2.68 0 0 0-1.892-.783h-9.116c-1.197 0-2.346.475-3.192 1.321l-.679.678z"/><path d="M1066.602 141.929l-3.211 2.567 3.211 2.567a4.84 4.84 0 0 1 0-5.134zm-34.769-4.421c.846.846 1.995 1.321 3.192 1.321h9.194a2.68 2.68 0 0 0 1.892-.783l1.178-1.177-1.178-1.177a2.68 2.68 0 0 0-1.892-.783h-9.116c-1.197 0-2.345.475-3.192 1.321l-.679.678.601.6z"/><path d="M1050.501 134.302l-3.211 2.567 3.211 2.567a4.84 4.84 0 0 1 0-5.134zm24.633 9.668l-.679.678.601.6c.847.846 1.995 1.321 3.192 1.321h9.194a2.68 2.68 0 0 0 1.892-.783l1.178-1.177-1.178-1.177a2.68 2.68 0 0 0-1.892-.783h-9.116c-1.197 0-2.346.475-3.192 1.321z"/><path d="M1093.724 142.042l-3.211 2.567 3.211 2.567a4.84 4.84 0 0 1 0-5.134zm-66.058 2.736l-3.211 2.567 3.211 2.567a4.84 4.84 0 0 1 0-5.134z"/></g></g></svg>