<svg xmlns="http://www.w3.org/2000/svg" width="1500" height="145" xmlns:v="https://vecta.io/nano"><style><![CDATA[.B{opacity:.6}.C{fill:none}.D{stroke-linecap:round}.E{stroke-linejoin:round}.F{opacity:.331}.G{fill:#00703a}.H{opacity:.106}.I{fill:#55571b}.J{stroke:#374315}.K{stroke-width:2.369}.L{fill:#009c00}.M{stroke-width:2.213}.N{fill-rule:evenodd}.O{stroke-miterlimit:10}]]></style><defs><clipPath id="A"><path d="M0 0h1500v145H0z" class="C"/></clipPath><path id="B" d="M151.653,85.789c-1.232,0-2.231-1-2.231-2.236v-4.667c0-1.236.999-2.236,2.231-2.236s2.231,1,2.231,2.236v4.667c0,1.236-.999,2.236-2.231,2.236Z"/><path id="C" d="M167.469 104.268c-1.232 0-2.231-1-2.231-2.236v-7.001c0-1.236.999-2.236 2.231-2.236s2.231 1 2.231 2.236v7.001c0 1.236-.999 2.236-2.231 2.236z"/><path id="D" d="M176.784 104.268c-1.232 0-2.231-1-2.231-2.236v-4.669c0-1.236.999-2.236 2.231-2.236s2.231 1 2.231 2.236v4.669c0 1.236-.999 2.236-2.231 2.236z"/><path id="E" d="M185.418,65.562c-1.232,0-2.231-1-2.231-2.236v-4.669c0-1.236.999-2.236,2.231-2.236s2.231,1,2.231,2.236v4.669c0,1.236-.999,2.236-2.231,2.236Z"/><path id="F" d="M1179.854 96.693c-1.232 0-2.231-1-2.231-2.236V89.79c0-1.236.999-2.236 2.231-2.236s2.231 1 2.231 2.236v4.667c0 1.236-.999 2.236-2.231 2.236z"/><path id="G" d="M1213.619 76.465c-1.232 0-2.231-1-2.231-2.236V69.56c0-1.236.999-2.236 2.231-2.236s2.231 1 2.231 2.236v4.669c0 1.236-.999 2.236-2.231 2.236z"/><path id="H" d="M681.38,97.589c-1.232,0-2.231-1-2.231-2.236v-4.669c0-1.236.999-2.236,2.231-2.236s2.231,1,2.231,2.236v4.669c0,1.236-.999,2.236-2.231,2.236Z"/><path id="I" d="M690.015,58.884c-1.232,0-2.231-1-2.231-2.236v-4.669c0-1.236.999-2.236,2.231-2.236s2.231,1,2.231,2.236v4.669c0,1.236-.999,2.236-2.231,2.236Z"/><path id="J" d="M1398.697 51.129a5.97 5.97 0 0 1 5.971 5.971h.45a5.97 5.97 0 0 1 5.971-5.971"/><path id="K" d="M117.181 33.973l-.617-1.737a1.78 1.78 0 0 0-2.272-1.081l-7.027 2.495 2.611-4.522c.285-.494.116-1.126-.378-1.411l-1.378-.796c-.494-.285-1.126-.116-1.411.378l-4.756 8.237-12.366 4.391a1.78 1.78 0 0 0-1.081 2.272l.617 1.737a1.78 1.78 0 0 0 2.272 1.081l24.705-8.773a1.78 1.78 0 0 0 1.081-2.272z"/></defs><g clip-path="url(#A)"><path d="M-11.618-1626.127h1523.237v2863.639H-11.618z" fill="#04d5d8"/><path d="M-60.02-933.534v67.986l-64.171-2.883-1.792 39.963-16.497 484.383c-3.348 142.921-4.31 258.88-2.859 344.657.903 53.395 2.697 94.684 5.484 126.229 3.991 45.167 10.164 88.418 41.434 121.123 21.827 22.829 51.065 35.402 82.328 35.402h130.149c48.191 0 93.12-14.221 130.819-38.683 29.514-19.15 61.956-33.454 96.319-41.001 257.482-56.55 368.43 231.382 700.989 241.357a192.82 192.82 0 0 0 13.651.489h574.186V-933.534H-60.02z" fill="#4eeae6"/><path d="M1055.834 405.488c-83.307 0-151.081-67.774-151.081-151.081 0-6.11-4.972-11.081-11.082-11.081h-203.53c-110.838 0-201.011-90.173-201.011-201.012V-10.65c0-33.084-26.916-60-60-60h-54.062c-33.084 0-60 26.916-60 60v52.965c0 110.839-90.173 201.012-201.011 201.012h-130.15c-20.238 0-39.208-8.185-53.416-23.045-20.311-21.243-26.389-50.48-30.5-97.002-2.703-30.587-4.448-70.946-5.335-123.384-1.441-85.238-.481-200.654 2.854-343.044l16.467-483.527 66.003 2.965v-69.823h1610.04V405.488h-534.186z" fill="#ffed8b"/><path d="M824.217-823.534H-20.02h3.927s-44.78 996.86 0 996.86h130.149c72.356 0 131.011-58.656 131.011-131.011V-10.65c0-71.797 58.203-130 130-130h54.062c71.797 0 130 58.203 130 130v52.964c0 72.355 58.656 131.011 131.011 131.011h203.53c44.78 0 81.081 36.301 81.081 81.081h0c0 44.78 36.301 81.082 81.081 81.082h464.186V-823.534H824.215z" fill="#77d629" stroke="#77d629" stroke-dasharray="0 10" stroke-width="10" class="D E"/><rect x="1354.221" y="-2.604" width="11.367" height="8.551" rx="4.188" fill="#a59c83"/><g class="F G"><path d="M142.339,85.789c-1.232,0-2.231-1-2.231-2.236v-7.001c0-1.236.999-2.236,2.231-2.236s2.231,1,2.231,2.236v7.001c0,1.236-.999,2.236-2.231,2.236Z"/><use href="#B"/><path d="M133.801,85.789c-1.232,0-2.231-1-2.231-2.236v-4.667c0-1.236.999-2.236,2.231-2.236s2.231,1,2.231,2.236v4.667c0,1.236-.999,2.236-2.231,2.236Z"/><use href="#C"/><use href="#D"/><path d="M158.932 104.268c-1.232 0-2.231-1-2.231-2.236v-4.669c0-1.236.999-2.236 2.231-2.236s2.231 1 2.231 2.236v4.669c0 1.236-.999 2.236-2.231 2.236zm17.171-38.706c-1.232 0-2.231-1-2.231-2.236v-7.001c0-1.236.999-2.236 2.231-2.236s2.231 1 2.231 2.236v7.001c0 1.236-.999 2.236-2.231 2.236z"/><use href="#E"/><path d="M167.565,65.562c-1.232,0-2.231-1-2.231-2.236v-4.669c0-1.236.999-2.236,2.231-2.236s2.231,1,2.231,2.236v4.669c0,1.236-.999,2.236-2.231,2.236Z"/></g><g class="F G"><path d="M1170.54 96.693c-1.232 0-2.231-1-2.231-2.236v-7.001c0-1.236.999-2.236 2.231-2.236s2.231 1 2.231 2.236v7.001c0 1.236-.999 2.236-2.231 2.236z"/><use href="#F"/><path d="M1162.001 96.693c-1.232 0-2.231-1-2.231-2.236V89.79c0-1.236.999-2.236 2.231-2.236s2.231 1 2.231 2.236v4.667c0 1.236-.999 2.236-2.231 2.236zm33.669 18.478c-1.232 0-2.231-1-2.231-2.236v-7.001c0-1.236.999-2.236 2.231-2.236s2.231 1 2.231 2.236v7.001c0 1.236-.999 2.236-2.231 2.236zm9.314 0c-1.232 0-2.231-1-2.231-2.236v-4.669c0-1.236.999-2.236 2.231-2.236s2.231 1 2.231 2.236v4.669c0 1.236-.999 2.236-2.231 2.236zm-17.851 0c-1.232 0-2.231-1-2.231-2.236v-4.669c0-1.236.999-2.236 2.231-2.236s2.231 1 2.231 2.236v4.669c0 1.236-.999 2.236-2.231 2.236zm17.171-38.706c-1.232 0-2.231-1-2.231-2.236v-7.001c0-1.236.999-2.236 2.231-2.236s2.231 1 2.231 2.236v7.001c0 1.236-.999 2.236-2.231 2.236z"/><use href="#G"/><path d="M1195.766 76.465c-1.232 0-2.231-1-2.231-2.236V69.56c0-1.236.999-2.236 2.231-2.236s2.231 1 2.231 2.236v4.669c0 1.236-.999 2.236-2.231 2.236z"/></g><g class="F G"><path d="M646.936 79.111c-1.232 0-2.231-1-2.231-2.236v-7.001c0-1.236.999-2.236 2.231-2.236s2.231 1 2.231 2.236v7.001c0 1.236-.999 2.236-2.231 2.236zm9.314 0c-1.232 0-2.231-1-2.231-2.236v-4.667c0-1.236.999-2.236 2.231-2.236s2.231 1 2.231 2.236v4.667c0 1.236-.999 2.236-2.231 2.236zm-17.853 0c-1.232 0-2.231-1-2.231-2.236v-4.667c0-1.236.999-2.236 2.231-2.236s2.231 1 2.231 2.236v4.667c0 1.236-.999 2.236-2.231 2.236zm33.669 18.478c-1.232 0-2.231-1-2.231-2.236v-7.001c0-1.236.999-2.236 2.231-2.236s2.231 1 2.231 2.236v7.001c0 1.236-.999 2.236-2.231 2.236z"/><use href="#H"/><path d="M663.529 97.589c-1.232 0-2.231-1-2.231-2.236v-4.669c0-1.236.999-2.236 2.231-2.236s2.231 1 2.231 2.236v4.669c0 1.236-.999 2.236-2.231 2.236zM680.7 58.884c-1.232 0-2.231-1-2.231-2.236v-7.001c0-1.236.999-2.236 2.231-2.236s2.231 1 2.231 2.236v7.001c0 1.236-.999 2.236-2.231 2.236z"/><use href="#I"/><path d="M672.162,58.884c-1.232,0-2.231-1-2.231-2.236v-4.669c0-1.236.999-2.236,2.231-2.236s2.231,1,2.231,2.236v4.669c0,1.236-.999,2.236-2.231,2.236Z"/></g><g fill="#72709c"><path d="M942.038-75.88h11.567V69.142h-11.567zM816.351-36.952h11.567V108.07h-11.567z"/></g><path d="M804.268-90.535a7.3 7.3 0 0 0-9.438-2.879 7.25 7.25 0 0 0-3.62 9.15l17.115 44.352-23.397 41.273c-1.864 3.286-.887 7.462 2.246 9.596s7.374 1.515 9.75-1.422l29.854-36.873 47.539-.296c3.787-.026 6.914-2.945 7.192-6.717s-2.391-7.133-6.13-7.729l-46.968-7.479-24.142-40.977z" fill="#fff" class="N"/><rect x="1311.41" y="94.948" width="78.222" height="12.412" rx="6.206" class="H"/><path d="M1358.506 98.381V59.198c0-.797-.646-1.443-1.443-1.443h-13.084c-.797 0-1.443.646-1.443 1.443V98.45c.52.107 1.018.299 1.398.671a2.96 2.96 0 0 1 .817 2.034h.057a2.85 2.85 0 1 1 5.702 0h.038a2.85 2.85 0 1 1 5.702 0h.038c0-1.356.957-2.482 2.216-2.773z" class="I"/><g class="C D E J K"><path d="M1354.766 70.212v17.256m-4.236-9.083v17.256m-4.237-21.558v17.256"/></g><path d="M1423.061 34.527l-52.131-12.165a86.87 86.87 0 0 0-39.127-.081l-53.728 12.303a23.11 23.11 0 0 0-17.95 22.525h0c0 12.762 10.346 23.108 23.108 23.108h134.577c12.762 0 23.108-10.346 23.108-23.108v-.078a23.11 23.11 0 0 0-17.857-22.503z" class="L N"/><g stroke="#007300" class="C D E M"><use href="#J"/><path d="M1345.586 29.207a5.97 5.97 0 0 1 5.971 5.971h.45a5.97 5.97 0 0 1 5.971-5.971m57.37 32.961a5.97 5.97 0 0 1 5.971 5.971h.45a5.97 5.97 0 0 1 5.971-5.971m-110.787 0a5.97 5.97 0 0 1 5.971 5.971h.45a5.97 5.97 0 0 1 5.971-5.971"/><path d="M1318.117 44.183a5.97 5.97 0 0 1 5.971 5.971m57.633-9.865a5.97 5.97 0 0 1 5.971-5.971m-38.896 29.923a5.97 5.97 0 0 1 5.971 5.971m-72.014-26.029a5.97 5.97 0 0 1 5.971 5.971h.45a5.97 5.97 0 0 1 5.971-5.971m-10.553 20.058a5.97 5.97 0 0 1 5.971 5.971h.45a5.97 5.97 0 0 1 5.971-5.971m77.219-2.073a5.97 5.97 0 0 1 5.971 5.971h.45a5.97 5.97 0 0 1 5.971-5.971m-31.398-15a5.97 5.97 0 0 1 5.971 5.971h.45a5.97 5.97 0 0 1 5.971-5.971"/></g><rect x="62.521" y="91.779" width="45.49" height="12.412" rx="6.206" class="H"/><circle cx="112.981" cy="25.904" r="13.125" fill="#008400"/><g class="I"><use href="#K"/><rect x="52.606" y="60.029" width="29.775" height="5.402" rx="1.779" transform="matrix(.899878 .436142 -.436142 .899878 34.116 -23.156)"/><path d="M113.976-3.92l-.708-2.3c-.254-.824-1.127-1.287-1.952-1.034l-10.219 3.143 2.035-4.811a2.69 2.69 0 0 0-1.43-3.526l-2.567-1.085a2.69 2.69 0 0 0-3.526 1.43L85.386 12.068h-.283l-9.835-31.973a2.69 2.69 0 0 0-3.362-1.78l-2.664.819a2.69 2.69 0 0 0-1.78 3.362l3.315 10.777-6.662-4.236a1.56 1.56 0 0 0-2.156.48l-1.291 2.031a1.56 1.56 0 0 0 .48 2.156l12.135 7.717 3.988 12.965V97.03c.52.107 1.018.299 1.397.671a2.96 2.96 0 0 1 .817 2.034h.057a2.85 2.85 0 1 1 5.703 0h.038a2.85 2.85 0 1 1 5.703 0h.038c0-1.356.957-2.482 2.216-2.773V14.463L98.283 2.54l14.658-4.509c.824-.254 1.287-1.127 1.034-1.952z"/></g><g class="C D E J K"><path d="M89.502 68.059v20.202m-4.236-9.083v13.381m-4.237-17.683v17.256m8.473-37.044v8.003m-4.236-8.989v17.256m0-34.448v11.487m-4.237 15.57v5.764m0-16.779v5.764m8.473-29.791v20.202m-8.473-28.296v17.256m0 4.262v5.764m4.237-21.507v5.764m4.236-13.83v4.379m-4.236-4.786v4.379"/></g><g class="L"><circle cx="101.554" cy="45.122" r="12.591"/><circle cx="96.458" cy="12.779" r="13.125"/><circle cx="77.465" cy="7.76" r="13.125"/><circle cx="65.55" cy="-12.7" r="22.853"/><circle cx="72.215" cy="25.904" r="11.007"/><circle cx="74.41" cy="62.162" r="13.766"/><circle cx="89.502" cy="35.953" r="6.721"/><circle cx="56.928" cy="40.623" r="5.353"/><circle cx="123.635" cy="45.976" r="4.815"/><circle cx="56.311" cy="16.803" r="5.353"/><circle cx="107.267" cy="-8.222" r="13.434"/></g><g stroke="#ee6d38" class="C D M O"><path d="M72.54 54.827v1.635m31.861-19.193v1.635m-3.088.621v1.636m3.088 1.513v1.635m3.5-3.966v1.635M75.577 17.723v1.635m-3.307.554v1.635m3.307 1.372v1.635M96.458 9.336v1.635m-4.787 1.808v1.635M69.259 57.081v1.635m3.011 1.55v1.636"/></g><rect x="1029.763" y="100.134" width="45.49" height="12.412" rx="6.206" class="H"/><g fill="#008400"><circle cx="1058.914" cy="-10.135" r="13.125"/><circle cx="1080.223" cy="34.259" r="13.125"/></g><g class="I"><path d="M1084.424 42.328l-.617-1.737a1.78 1.78 0 0 0-2.272-1.081l-7.027 2.495 2.611-4.522c.285-.494.116-1.126-.378-1.411l-1.378-.796c-.494-.285-1.126-.116-1.411.378l-4.756 8.237-12.366 4.391a1.78 1.78 0 0 0-1.081 2.272l.617 1.737a1.78 1.78 0 0 0 2.272 1.081l24.705-8.773a1.78 1.78 0 0 0 1.081-2.272z"/><rect x="1019.848" y="68.384" width="29.775" height="5.402" rx="1.779" transform="matrix(.899878 .436142 -.436142 .899878 134.6 -444.169)"/><path d="M1081.219 4.435l-.708-2.3c-.254-.824-1.127-1.287-1.952-1.034l-10.219 3.143 2.035-4.811a2.69 2.69 0 0 0-1.43-3.526l-2.567-1.085a2.69 2.69 0 0 0-3.526 1.43l-10.223 24.171h-.283l-9.835-31.973a2.69 2.69 0 0 0-3.362-1.78l-2.664.819a2.69 2.69 0 0 0-1.78 3.362l3.315 10.777-6.662-4.236a1.56 1.56 0 0 0-2.156.48l-1.291 2.031a1.56 1.56 0 0 0 .48 2.156l12.135 7.717 3.988 12.965v82.644c.52.107 1.018.299 1.397.671a2.96 2.96 0 0 1 .817 2.034h.057a2.85 2.85 0 1 1 5.703 0h.038a2.85 2.85 0 1 1 5.703 0h.038c0-1.356.957-2.482 2.216-2.773V22.819l5.043-11.923 14.658-4.509c.824-.254 1.287-1.127 1.034-1.952z"/></g><g class="C D E J K"><path d="M1056.745 76.414v20.202m-4.237-9.082v13.38m-4.237-17.683v17.256m8.474-37.044v8.004m-4.237-8.99v17.256m0-34.447v11.486m-4.237 15.57v5.764m0-16.779v5.765m8.474-29.792v20.202m-8.474-28.296v17.256m0 4.262v5.764m4.237-21.507v5.764m4.237-13.829v4.378m-4.237-4.786v4.379"/></g><g class="L"><circle cx="1068.796" cy="53.477" r="12.591"/><circle cx="1063.701" cy="21.134" r="13.125"/><circle cx="1044.708" cy="16.115" r="13.125"/><circle cx="1032.792" cy="-4.345" r="22.853"/><circle cx="1039.458" cy="34.259" r="11.007"/><circle cx="1041.652" cy="70.517" r="13.766"/><circle cx="1056.745" cy="44.308" r="6.721"/><circle cx="1024.171" cy="48.978" r="5.353"/><circle cx="1090.878" cy="54.331" r="4.815"/><circle cx="1023.553" cy="25.159" r="5.353"/><circle cx="1074.51" cy=".133" r="13.434"/></g><g stroke="#ee6d38" class="C D M O"><path d="M1039.783 63.182v1.635m31.861-19.193v1.636m-3.089.621v1.635m3.089 1.513v1.635m3.5-3.966v1.636m-32.324-24.256v1.635m-3.307.554v1.635m3.307 1.372v1.635m33.25-33.593V.951m-3.165 1.221v1.636m-9.204 13.883v1.635m-4.787 1.808v1.635m-22.412 42.667v1.636m3.011 1.55v1.635"/></g><g opacity=".3"><g fill="#f2b052"><ellipse cx="288.226" cy="21.827" rx="1.966" ry="1.97" transform="matrix(.834608 -.550845 .550845 .834608 35.647 162.377)" class="B"/><ellipse cx="281.406" cy="25.45" rx="1.966" ry="1.97" transform="matrix(.834608 -.550845 .550845 .834608 32.523 159.219)" class="B"/><ellipse cx="280.706" cy="19.219" rx="1.966" ry="1.97" transform="matrix(.834608 -.550845 .550845 .834608 35.839 157.803)" class="B"/><ellipse cx="265.771" cy="29.217" rx="1.966" ry="1.97" transform="matrix(.834608 -.550845 .550845 .834608 27.862 151.23)" class="B"/><ellipse cx="275.165" cy="38.631" rx="1.966" ry="1.97" transform="matrix(.834608 -.550845 .550845 .834608 24.23 157.961)" class="B"/></g></g><g opacity=".3"><g fill="#f2b052"><ellipse cx="532.864" cy="72.955" rx="1.966" ry="1.97" transform="matrix(.834608 -.550845 .550845 .834608 47.944 305.59)" class="B"/><ellipse cx="526.044" cy="76.578" rx="1.966" ry="1.97" transform="matrix(.834608 -.550845 .550845 .834608 44.82 302.432)" class="B"/><ellipse cx="525.344" cy="70.347" rx="1.966" ry="1.97" transform="matrix(.834608 -.550845 .550845 .834608 48.136 301.016)" class="B"/><ellipse cx="510.409" cy="80.345" rx="1.966" ry="1.97" transform="matrix(.834608 -.550845 .550845 .834608 40.159 294.443)" class="B"/><ellipse cx="519.803" cy="89.759" rx="1.966" ry="1.97" transform="matrix(.834608 -.550845 .550845 .834608 36.528 301.174)" class="B"/></g></g></g></svg>