<svg xmlns="http://www.w3.org/2000/svg" width="1500" height="145" xmlns:v="https://vecta.io/nano"><style><![CDATA[.B{fill-rule:evenodd}.C{fill:none}.D{fill:#408f43}.E{clip-rule:evenodd}.F{fill:#51b133}.G{fill:#357963}.H{opacity:.5}.I{fill:#4aa22e}.J{stroke-linejoin:round}.K{opacity:.25}.L{fill:#50b06d}.M{stroke-linecap:round}.N{fill:#787394}.O{fill:#c1bfc9}.P{fill:#5ebe3e}.Q{fill:#9bdceb}.R{fill:#b38150}.S{fill:#6a6863}.T{fill:#fff}.U{fill:#55529c}.V{opacity:.188}.W{fill:#d8f2fb}.X{fill:#6d6a8b}.Y{fill:#b3b0bc}.Z{fill:#4bc4c4}.a{stroke:#50b06d}.b{stroke-width:10}.c{fill:#3d8950}.d{fill:#409058}.e{stroke:#4a488a}.f{stroke-width:3.59}.g{fill:#50b0b8}.h{stroke-miterlimit:10}.i{fill:#625d76}.j{fill:#a4a0b1}.k{fill:#83809b}.l{stroke-width:.809}.m{fill:#74dddc}.n{fill:#fcf4c7}.o{fill:#2d693b}.p{fill:#dc8430}.q{stroke-width:3.441}.r{stroke-width:7.179}]]></style><defs><clipPath id="A"><path d="M0 0h1500v145H0z" class="C"/></clipPath><clipPath id="B"><path d="M1266.115 8.503h-14.894l-4.036 36.831a3.45 3.45 0 0 0 3.431 3.824h16.177a3.45 3.45 0 0 0 3.431-3.831l-4.109-36.825z" class="C"/></clipPath><clipPath id="C"><path d="M1258.705 7.333a20.24 20.24 0 0 0 5.935 14.318c3.801 3.798 8.956 5.93 14.333 5.93h20.385V14.195c0-5.372-2.134-10.523-5.935-14.321a20.29 20.29 0 0 0-14.333-5.93h-20.385V7.333z" class="C E"/></clipPath><clipPath id="D"><path d="M1258.705 7.333a20.24 20.24 0 0 1-5.935 14.318c-3.801 3.798-8.956 5.93-14.333 5.93h-20.385V14.195c0-5.372 2.134-10.523 5.935-14.321a20.29 20.29 0 0 1 14.333-5.93h20.385V7.333z" class="C E"/></clipPath><clipPath id="E"><path d="M1258.716 27.581l-12.176-8.866c-6.725-4.897-7.485-14.637-1.601-20.516l4.259-4.256h19.035l4.259 4.256c5.884 5.879 5.124 15.619-1.601 20.516l-12.176 8.866z" class="C E"/></clipPath><clipPath id="F"><path d="M1368.823-19.723h-14.894l-4.036 36.831a3.45 3.45 0 0 0 3.431 3.824h16.177a3.45 3.45 0 0 0 3.431-3.831l-4.109-36.825z" class="C"/></clipPath><clipPath id="G"><path d="M1361.412-20.894a20.24 20.24 0 0 0 5.935 14.318c3.801 3.798 8.956 5.93 14.333 5.93h20.385v-13.386c0-5.372-2.134-10.523-5.935-14.321a20.29 20.29 0 0 0-14.333-5.93h-20.385v13.389z" class="C E"/></clipPath><clipPath id="H"><path d="M1361.412-20.894a20.24 20.24 0 0 1-5.935 14.318c-3.801 3.798-8.956 5.93-14.333 5.93h-20.385v-13.386c0-5.372 2.134-10.523 5.935-14.321a20.29 20.29 0 0 1 14.333-5.93h20.385v13.389z" class="C E"/></clipPath><clipPath id="I"><path d="M1361.423-.645l-12.176-8.866c-6.725-4.897-7.485-14.637-1.601-20.516l4.259-4.256h19.035l4.259 4.256c5.884 5.879 5.124 15.619-1.601 20.516l-12.176 8.866z" class="C E"/></clipPath><clipPath id="J"><path d="M1267.19,81.627h-9.474l-2.568,23.429c-.142,1.298.875,2.433,2.183,2.433h10.29c1.309,0,2.327-1.137,2.182-2.437l-2.614-23.424Z" class="C"/></clipPath><clipPath id="K"><path d="M1262.476 80.883a12.88 12.88 0 0 0 3.775 9.108c2.418 2.416 5.697 3.772 9.117 3.772h12.967v-8.515c0-3.417-1.358-6.694-3.775-9.109s-5.697-3.772-9.117-3.772h-12.967v8.517z" class="C E"/></clipPath><clipPath id="L"><path d="M1262.476 80.883a12.88 12.88 0 0 1-3.775 9.108c-2.418 2.416-5.697 3.772-9.117 3.772h-12.967v-8.515c0-3.417 1.358-6.694 3.775-9.109s5.697-3.772 9.117-3.772h12.967v8.517z" class="C E"/></clipPath><clipPath id="M"><path d="M1262.483 93.763l-7.745-5.639a8.61 8.61 0 0 1-1.018-13.05l2.709-2.707h12.108l2.709 2.707a8.61 8.61 0 0 1-1.018 13.05l-7.745 5.639z" class="C E"/></clipPath><clipPath id="N"><path d="M1317.502 154.207a2.99 2.99 0 0 1-2.204-.97 2.98 2.98 0 0 1-.771-2.279l11.225-125.706c.219-2.453 2.275-4.319 4.74-4.319h10.307a4.76 4.76 0 0 1 4.744 4.361l2.016 24.176h7.331c1.342 0 2.566.752 3.166 1.951l3.315 6.624c.309.618.489 1.293.527 1.984l2.322 41.76 12.971 3.703c2.186.624 3.69 2.62 3.69 4.891v40.839c0 .791-.315 1.551-.875 2.11s-1.32.874-2.112.874h-60.393z" class="C E"/></clipPath><clipPath id="O"><path d="M1374.304,144.534h-9.474l-2.568,23.429c-.142,1.298.875,2.433,2.183,2.433h10.29c1.309,0,2.327-1.137,2.182-2.437l-2.614-23.424Z" class="C"/></clipPath><clipPath id="P"><path d="M1369.59 143.79a12.88 12.88 0 0 0 3.775 9.108c2.418 2.416 5.697 3.772 9.117 3.772h12.967v-8.515c0-3.417-1.358-6.694-3.775-9.109s-5.697-3.772-9.117-3.772h-12.967v8.517z" class="C E"/></clipPath><clipPath id="Q"><path d="M1369.59 143.79a12.88 12.88 0 0 1-3.775 9.108c-2.418 2.416-5.697 3.772-9.117 3.772h-12.967v-8.515c0-3.417 1.358-6.694 3.775-9.109s5.697-3.772 9.117-3.772h12.967v8.517z" class="C E"/></clipPath><clipPath id="R"><path d="M1369.597 156.67l-7.745-5.639a8.61 8.61 0 0 1-1.018-13.05l2.709-2.707h12.108l2.709 2.707a8.61 8.61 0 0 1-1.018 13.05l-7.745 5.639z" class="C E"/></clipPath><clipPath id="S"><path d="M1305.986,126.579h-9.474l-2.568,23.429c-.142,1.298.875,2.433,2.183,2.433h10.29c1.309,0,2.327-1.137,2.182-2.437l-2.614-23.424Z" class="C"/></clipPath><clipPath id="T"><path d="M1301.272 125.835a12.88 12.88 0 0 0 3.775 9.108c2.417 2.416 5.697 3.772 9.117 3.772h12.967V130.2c0-3.417-1.358-6.694-3.775-9.109s-5.697-3.772-9.117-3.772h-12.967v8.517z" class="C E"/></clipPath><clipPath id="U"><path d="M1301.272 125.835a12.88 12.88 0 0 1-3.775 9.108c-2.418 2.416-5.697 3.772-9.117 3.772h-12.967V130.2c0-3.417 1.358-6.694 3.775-9.109s5.697-3.772 9.117-3.772h12.967v8.517z" class="C E"/></clipPath><clipPath id="V"><path d="M1301.28 138.715l-7.745-5.639a8.61 8.61 0 0 1-1.018-13.05l2.709-2.707h12.108l2.709 2.707a8.61 8.61 0 0 1-1.018 13.05l-7.745 5.639z" class="C E"/></clipPath><clipPath id="W"><path d="M750.829,40.504h-13.317l-3.609,32.931c-.2,1.825,1.231,3.42,3.068,3.42h14.464c1.84,0,3.271-1.598,3.067-3.426l-3.674-32.925Z" class="C"/></clipPath><clipPath id="X"><path d="M744.203 39.458c0 4.801 1.908 9.406 5.307 12.802a18.13 18.13 0 0 0 12.815 5.302h18.226V45.593c0-4.803-1.908-9.409-5.307-12.804a18.14 18.14 0 0 0-12.815-5.302h-18.226v11.971z" class="C E"/></clipPath><clipPath id="Y"><path d="M744.203 39.458c0 4.801-1.908 9.406-5.307 12.802a18.13 18.13 0 0 1-12.815 5.302h-18.226V45.593c0-4.803 1.908-9.409 5.307-12.804a18.14 18.14 0 0 1 12.815-5.302h18.226v11.971z" class="C E"/></clipPath><clipPath id="Z"><path d="M744.213 57.562l-10.887-7.927c-6.013-4.378-6.693-13.087-1.432-18.344l3.808-3.805h17.02l3.808 3.805c5.261 5.257 4.582 13.965-1.432 18.344l-10.887 7.927z" class="C E"/></clipPath><clipPath id="a"><path d="M713.851 78.608l-34.425-30.475h-2.263l-34.425 30.475v28.196c0 .662.263 1.298.732 1.766s1.106.734 1.769.734h66.11a2.5 2.5 0 0 0 1.769-.734c.469-.468.732-1.103.732-1.766V78.608z" class="C E"/></clipPath><clipPath id="b"><path d="M747.488 102.237h-13.107l-3.552 32.411a3.04 3.04 0 0 0 3.02 3.366h14.236c1.811 0 3.22-1.573 3.019-3.371l-3.616-32.406z" class="C"/></clipPath><clipPath id="c"><path d="M740.967 101.207a17.81 17.81 0 0 0 5.223 12.6c3.345 3.342 7.882 5.219 12.613 5.219h17.939v-11.78a17.81 17.81 0 0 0-5.223-12.602c-3.345-3.34-7.882-5.219-12.613-5.219h-17.939v11.782z" class="C E"/></clipPath><clipPath id="d"><path d="M740.967 101.207a17.81 17.81 0 0 1-5.223 12.6c-3.345 3.342-7.882 5.219-12.613 5.219h-17.939v-11.78a17.81 17.81 0 0 1 5.223-12.602c3.345-3.34 7.882-5.219 12.613-5.219h17.939v11.782z" class="C E"/></clipPath><clipPath id="e"><path d="M740.976 119.026l-10.715-7.802c-5.918-4.309-6.587-12.88-1.409-18.054l3.748-3.745h16.751l3.748 3.745c5.178 5.174 4.509 13.745-1.409 18.054l-10.715 7.802z" class="C E"/></clipPath><clipPath id="f"><path d="M889.575 4.337c-21.708 0-39.305 13.553-39.305 30.273s17.598 30.273 39.305 30.273S928.88 51.329 928.88 34.61 911.282 4.337 889.575 4.337z" class="C E"/></clipPath><clipPath id="g"><path d="M876.102 30.844h28.384v30.608h-28.384z" class="C"/></clipPath><clipPath id="h"><path d="M876.093 12.216v47.329l28.403-.526V12.216h-28.403z" class="C E"/></clipPath><clipPath id="i"><path d="M889.575-20.339c-20.418,0-36.97,11.789-36.97,26.333s16.552,26.333,36.969,26.333,36.97-11.789,36.97-26.333-16.552-26.333-36.969-26.333Z" class="C E"/></clipPath><clipPath id="j"><path d="M870.326,107.506c-21.708,0-39.305,13.553-39.305,30.273s17.598,30.273,39.305,30.273,39.305-13.554,39.305-30.273-17.598-30.273-39.305-30.273Z" class="C E"/></clipPath><clipPath id="k"><path d="M856.853 134.013h28.384v30.608h-28.384z" class="C"/></clipPath><clipPath id="l"><path d="M856.844 115.385v47.329l28.403-.527v-46.802h-28.403z" class="C E"/></clipPath><clipPath id="m"><path d="M870.326,82.829c-20.418,0-36.97,11.789-36.97,26.333s16.552,26.333,36.969,26.333,36.97-11.789,36.97-26.333-16.552-26.333-36.969-26.333Z" class="C E"/></clipPath><clipPath id="n"><path d="M80.787 110.532c.643 0 1.254-.283 1.669-.775a2.19 2.19 0 0 0 .487-1.775l-6.218-37.661c-.21-1.28-1.314-2.208-2.611-2.208h-8.805a2.65 2.65 0 0 0-2.6 2.145l-4.456 23.063-9.267 2.648-5.214 11.472c-.308.677-.25 1.463.152 2.088s1.095 1.003 1.838 1.003h35.025z" class="C E"/></clipPath><clipPath id="o"><path d="M28.572 180.201c1.664 0 2.969-1.427 2.822-3.084l-.108-1.209-5.771-64.683c-.125-1.4-1.298-2.474-2.704-2.474h-5.888a2.72 2.72 0 0 0-2.709 2.492l-1.151 13.816h-4.19c-.764 0-1.462.431-1.804 1.114l-1.893 3.786c-.177.353-.279.739-.301 1.134l-1.326 23.864-7.406 2.116c-1.247.356-2.107 1.496-2.107 2.793v23.292c0 .339.084.678.267.964.319.499.864.79 1.439.79H8.708c.819 0 1.484-.664 1.484-1.484v-1.743c0-.819.664-1.484 1.484-1.484h16.897z" class="C E"/></clipPath><clipPath id="p"><path d="M41.605 133.616v-5.883a1.88 1.88 0 0 1 1.881-1.881h18.812a1.88 1.88 0 0 1 1.881 1.881v5.883a2.11 2.11 0 0 1-2.112 2.112H43.718a2.11 2.11 0 0 1-2.112-2.112z" class="C E"/></clipPath><clipPath id="q"><rect x="90.642" y="78.393" width="19.378" height="10.93" rx="4.455" class="C"/></clipPath><clipPath id="r"><rect x="84.003" y="82.54" width="32.656" height="18.419" rx="7.507" class="C"/></clipPath><clipPath id="s"><rect x="87.174" y="85.824" width="26.313" height="11.851" rx="4.978" class="C"/></clipPath><clipPath id="t"><rect x="85.059" y="97.67" width="30.545" height="17.232" rx="7.149" class="C"/></clipPath><clipPath id="u"><rect x="90.643" y="101.574" width="19.375" height="9.472" rx="2.227" class="C"/></clipPath><clipPath id="v"><path d="M108.064 107.793l.476-.478a5.68 5.68 0 0 0 1.586-3.122l.159-1.007c0-.429-.351-.78-.78-.78h-2.088l.186.809c.206.895.252 1.82.135 2.731l-.204 1.587c-.038.296.32.471.531.26z" class="C"/></clipPath><clipPath id="w"><path d="M105.334,104.738l-.711.372c-.208.109-.457-.042-.457-.277v-3.09h2.868l-.472,1.521c-.197.635-.639,1.165-1.228,1.473Z" class="C"/></clipPath><clipPath id="x"><rect x="100.601" y="101.744" width="2.868" height="3.605" rx=".78" class="C"/></clipPath><clipPath id="y"><rect x="97.192" y="101.744" width="2.868" height="3.605" rx=".78" class="C"/></clipPath><clipPath id="z"><path d="M95.328 104.738l.711.372c.208.109.457-.042.457-.277v-3.09h-2.868l.472 1.521c.197.635.639 1.165 1.228 1.473z" class="C"/></clipPath><clipPath id="AA"><path d="M92.597 107.793l-.476-.478a5.68 5.68 0 0 1-1.586-3.122l-.159-1.007c0-.429.351-.78.78-.78h2.088l-.186.809c-.206.895-.252 1.82-.135 2.731l.204 1.587c.038.296-.32.471-.531.26z" class="C"/></clipPath><clipPath id="AB"><path d="M42.532 157.436c0 5.479-2.178 10.736-6.057 14.611a20.69 20.69 0 0 1-14.626 6.052H1.047v-13.66c0-5.482 2.178-10.738 6.057-14.614s9.14-6.052 14.626-6.052h20.802v13.663z" class="C E"/></clipPath><clipPath id="AC"><path d="M42.532 157.436c0 5.479 2.178 10.736 6.057 14.611a20.69 20.69 0 0 0 14.626 6.052h20.802v-13.66c0-5.482-2.178-10.738-6.057-14.614s-9.14-6.052-14.626-6.052H42.532v13.663z" class="C E"/></clipPath><clipPath id="AD"><path d="M42.521 178.099l12.425-9.047c6.863-4.997 7.639-14.937 1.634-20.936l-4.346-4.343H32.809l-4.346 4.343c-6.005 6-5.229 15.939 1.634 20.936l12.425 9.047z" class="C E"/></clipPath><clipPath id="AE"><path d="M447.517 116.468c0 .185-.139.34-.322.362l-5.898.688c-.361.042-.678.258-.848.579s-.172.704-.005 1.026h0a7.52 7.52 0 0 1-.052 7.017l-.419.78c-.157.293-.104.654.131.889l.729.729c.102.102.133.256.078.389s-.185.22-.33.22h-4.438c-2.111 0-4.083-1.05-5.26-2.801l-1.376-2.047c-.404-.601-1.08-.961-1.804-.961h-1.228c-.184 0-.36-.073-.491-.203s-.203-.306-.203-.49h0c0-.184.073-.36.203-.49s.307-.203.491-.203h1.228c.724 0 1.4-.36 1.804-.961l1.376-2.047c1.177-1.751 3.149-2.801 5.26-2.801h11.047c.18 0 .327.146.327.326h0z" class="E Z"/></clipPath><path id="AF" d="M1266.115 8.503h-14.894l-4.036 36.831a3.45 3.45 0 0 0 3.431 3.824h16.177a3.45 3.45 0 0 0 3.431-3.831l-4.109-36.825z"/><path id="AG" d="M1258.716 35.127l-12.176-8.866c-6.725-4.897-7.485-14.637-1.601-20.516l4.259-4.256h19.035l4.259 4.256c5.884 5.879 5.124 15.619-1.601 20.516l-12.176 8.866z"/><path id="AH" d="M1257.118-4.096l3.212-3.933 40.631 33.184-3.212 3.933z"/><path id="AI" d="M1282.419 29.774h-5.082v-8.54a2.54 2.54 0 1 1 5.082 0v8.54z"/><path id="AJ" d="M1234.99 29.774h5.082v-8.54a2.54 2.54 0 1 0-5.082 0v8.54z"/><path id="AK" d="M1240.689 12.492a2.54 2.54 0 0 1-2.127-1.145c-.771-1.173-.443-2.747.731-3.515l10.329-6.77a2.54 2.54 0 0 1 3.517.729c.771 1.173.443 2.747-.731 3.515l-10.329 6.77a2.52 2.52 0 0 1-1.39.416z"/><path id="AL" d="M1276.72 12.492a2.53 2.53 0 0 1-1.39-.416l-10.325-6.77c-1.174-.769-1.502-2.342-.731-3.515s2.332-1.504 3.517-.729l10.325 6.77c1.174.769 1.502 2.342.731 3.515a2.54 2.54 0 0 1-2.127 1.145z"/><path id="AM" d="M1272.419 40.274a4.98 4.98 0 0 0-4.965 4.96 4.98 4.98 0 0 0-4.965-4.96 4.98 4.98 0 0 0-4.965 4.96 4.98 4.98 0 0 0-4.965-4.96 4.98 4.98 0 0 0-4.965 4.96 4.98 4.98 0 0 0-4.965-4.96 4.98 4.98 0 0 0-4.965 4.96l4.488 3.924 11.545 1.237 16.547-.818 7.138-4.344a4.98 4.98 0 0 0-4.965-4.96z"/><path id="AN" d="M1262.483 98.563l-7.745-5.639a8.61 8.61 0 0 1-1.018-13.05l2.709-2.707h12.108l2.709 2.707a8.61 8.61 0 0 1-1.018 13.05l-7.745 5.639z"/><path id="AO" d="M1262.476 80.883a12.88 12.88 0 0 0 3.775 9.108c2.418 2.416 5.697 3.772 9.117 3.772h12.967v-8.515c0-3.417-1.358-6.694-3.775-9.109s-5.697-3.772-9.117-3.772h-12.967v8.517z"/><path id="AP" d="M1261.47 73.616l2.043-2.502 25.846 21.108-2.043 2.502z"/><path id="AQ" d="M1288.335 84.71v-3.059h-4.934a1.53 1.53 0 0 0-1.531 1.529h0c0 .407.162.794.448 1.082s.677.447 1.083.447h4.934z"/><path id="AR" d="M1262.476 80.883a12.88 12.88 0 0 1-3.775 9.108c-2.418 2.416-5.697 3.772-9.117 3.772h-12.967v-8.515c0-3.417 1.358-6.694 3.775-9.109s5.697-3.772 9.117-3.772h12.967v8.517z"/><path id="AS" d="M1235.599 92.21l25.86-21.09 2.041 2.503-25.86 21.09z"/><path id="AT" d="M1236.617 84.881v-3.23h4.85a1.61 1.61 0 0 1 1.141.473c.304.302.474.712.474 1.14v.003c0 .428-.17.838-.474 1.142s-.713.472-1.141.472h-4.85z"/><path id="AU" d="M1236.617 78.422v-3.23h9.697a1.62 1.62 0 0 1 1.143.473c.304.304.474.714.474 1.142a1.61 1.61 0 0 1-1.617 1.615h-9.697z"/><path id="AV" d="M1262.483 71.386h12.219v23.172h-12.219z"/><path id="AW" d="M1251.016 84.165c-.526 0-1.044-.257-1.353-.729-.49-.746-.282-1.747.465-2.236l6.57-4.306c.747-.492 1.749-.28 2.237.464s.282 1.747-.465 2.236l-6.57 4.306c-.274.18-.581.265-.884.265z"/><path id="AX" d="M1273.935 84.165c-.303 0-.61-.085-.884-.265l-6.568-4.306c-.747-.489-.955-1.49-.465-2.236s1.484-.957 2.237-.464l6.568 4.306c.747.489.955 1.49.465 2.236-.309.472-.827.729-1.353.729z"/><path id="AY" d="M1379.17 45.15c1.3 0 2.355-1.052 2.355-2.353v-4.912c0-1.3-1.054-2.353-2.355-2.353s-2.355 1.052-2.355 2.353v4.912c0 1.3 1.054 2.353 2.355 2.353z"/><path id="AZ" d="M659.09 85.247a2.03 2.03 0 0 1-2.031-2.029v-6.352a2.03 2.03 0 1 1 4.062 0v6.352a2.03 2.03 0 0 1-2.031 2.029z"/><path id="Aa" d="M667.214 85.247a2.03 2.03 0 0 1-2.031-2.029v-4.236a2.03 2.03 0 1 1 4.062 0v4.236a2.03 2.03 0 0 1-2.031 2.029z"/><path id="Ab" d="M744.213 64.309l-10.887-7.927c-6.013-4.378-6.693-13.087-1.432-18.344l3.808-3.805h17.02l3.808 3.805c5.261 5.257 4.582 13.965-1.432 18.344l-10.887 7.927z"/><path id="Ac" d="M728.094 44.071a2.27 2.27 0 0 1-1.248-4.167l9.235-6.053a2.27 2.27 0 0 1 3.144.652 2.27 2.27 0 0 1-.654 3.143l-9.235 6.053a2.25 2.25 0 0 1-1.242.372z"/><path id="Ad" d="M760.31 44.071c-.426 0-.858-.12-1.242-.372l-9.232-6.053a2.27 2.27 0 0 1-.654-3.143c.686-1.045 2.085-1.345 3.144-.652l9.232 6.053a2.27 2.27 0 0 1-1.248 4.167z"/><path id="Ae" d="M640.646 77.956h75.296v6.269h-75.296z"/><path id="Af" d="M651.104 100.915h12.549v2.119h-12.549z"/><path id="Ag" d="M640.071 79.001l38.223-31.974"/><path id="Ah" d="M716.517 79.001l-38.223-31.974"/><path id="Ai" d="M740.976 125.666l-10.715-7.802c-5.918-4.309-6.587-12.88-1.409-18.054l3.748-3.745h16.751l3.748 3.745c5.178 5.174 4.509 13.745-1.409 18.054l-10.715 7.802z"/><path id="Aj" d="M725.113 105.747c-.728 0-1.444-.355-1.872-1.008-.678-1.033-.39-2.417.643-3.094l9.089-5.957c1.034-.681 2.419-.387 3.095.641s.39 2.417-.643 3.094l-9.089 5.957a2.22 2.22 0 0 1-1.223.367z"/><path id="Ak" d="M756.82 105.747a2.22 2.22 0 0 1-1.223-.367l-9.086-5.957a2.23 2.23 0 1 1 2.452-3.735l9.086 5.957a2.23 2.23 0 0 1 .643 3.094c-.428.653-1.144 1.008-1.872 1.008z"/><path id="Al" d="M919.129,75.502h-5.861c-2.455,0-4.444-1.989-4.444-4.444s1.989-4.444,4.444-4.444h5.861c2.455,0,4.444,1.989,4.444,4.444s-1.989,4.444-4.444,4.444Z"/><path id="Am" d="M874.082 33.91h2.826v16.267h-2.826z"/><path id="An" d="M871.093 29.947h5.242v21.897h-5.242z"/><path id="Ao" d="M889.575-17.131c-20.418,0-36.97,11.789-36.97,26.333s16.552,26.333,36.969,26.333,36.97-11.789,36.97-26.333-16.552-26.333-36.969-26.333Z"/><path id="Ap" d="M159.409 61.28c1.3 0 2.355-1.052 2.355-2.353v-7.366c0-1.3-1.054-2.353-2.355-2.353s-2.355 1.052-2.355 2.353v7.366c0 1.3 1.054 2.353 2.355 2.353z"/><path id="Aq" d="M41.605 135.031v-5.883a1.88 1.88 0 0 1 1.881-1.881h18.812a1.88 1.88 0 0 1 1.881 1.881v5.883a2.11 2.11 0 0 1-2.112 2.112H43.718a2.11 2.11 0 0 1-2.112-2.112z"/><path id="Ar" d="M85.431 108.836h13.056a.78.78 0 0 1 .778.778v13.947c0 2.229-1.81 4.04-4.04 4.04h-6.532c-2.229 0-4.04-1.81-4.04-4.04v-13.947a.78.78 0 0 1 .778-.778z"/><path id="As" d="M77.369 137.463h.17a7.31 7.31 0 0 1-7.284-7.284v-16.621c0-3.71 3.035-6.745 6.745-6.745h.909c3.71 0 6.745 3.035 6.745 6.745v16.621a7.31 7.31 0 0 1-7.284 7.284z"/><path id="At" d="M84.654 123.421a7.33 7.33 0 0 1-7.307 7.307h.216a7.33 7.33 0 0 1-7.307-7.307v7.298c0 3.725 3.02 6.745 6.745 6.745h.909c3.725 0 6.745-3.02 6.745-6.745v-7.298z"/><path id="Au" d="M514.229 50.865l4.411-3.526-4.411-3.526a6.65 6.65 0 0 1 0 7.052z"/><path id="Av" d="M447.517 116.468c0 .185-.139.34-.322.362l-5.898.688c-.361.042-.678.258-.848.579s-.172.704-.005 1.026h0a7.52 7.52 0 0 1-.052 7.017l-.419.78c-.157.293-.104.654.131.889l.729.729c.102.102.133.256.078.389s-.185.22-.33.22h-4.438c-2.111 0-4.083-1.05-5.26-2.801l-1.376-2.047c-.404-.601-1.08-.961-1.804-.961h-1.228c-.184 0-.36-.073-.491-.203s-.203-.306-.203-.49h0c0-.184.073-.36.203-.49s.307-.203.491-.203h1.228c.724 0 1.4-.36 1.804-.961l1.376-2.047c1.177-1.751 3.149-2.801 5.26-2.801h11.047c.18 0 .327.146.327.326h0z"/></defs><g clip-path="url(#A)"><path d="M-10.125-3159.564h1520.249V889.918H-10.125z" fill="#61d1d5"/><g class="m"><path d="M1172.429 239.462l-20.009-41.039c-10.45-21.425-32.608-35.269-56.45-35.269h-76.809c-16.754 0-32.517 6.522-44.39 18.373-.97.969-1.905 1.965-2.803 2.985-9.542 10.837-26.115 11.655-36.325 1.445l-55.726-55.726c-12.044-12.044-12.04-31.573.009-43.612l12.071-12.061c14.691-14.679 22.946-34.595 22.946-55.363v-22.12c0-43.161-35.145-78.276-78.342-78.276h-15.766c-20.692 0-40.932 8.406-55.532 23.062l-46.47 46.66a12.17 12.17 0 0 1-8.625 3.583h-32.93c-20.769 0-40.689 8.246-55.38 22.927l-1.411 1.41c-14.682 14.672-22.931 34.577-22.931 55.333v15.639a81.06 81.06 0 0 0 22.94 56.505l.004.004c7.912 8.138 7.819 21.363-.207 29.389l-74.465 74.466a48.03 48.03 0 0 0-14.068 33.962v39.141c0 12.738 5.06 24.955 14.068 33.962l89.383 89.383c5.589 5.589 1.539 15.039-6.365 15.001h-.295a63.88 63.88 0 0 0-29.817 7.417l-80.898 42.89c-23.681 12.554-37.02 38.813-33.191 65.343l7.337 50.842a63.46 63.46 0 0 0 61.63 54.557l90.975 1.976 1.398.015c17.54 0 34.478-7.349 46.471-20.165 7.296-7.795 12.451-17.285 15.108-27.464 1.908-7.31 9.153-11.946 16.573-10.526a35.52 35.52 0 0 0 6.68.63h3.435c6.614 0 13.228-2.055 18.921-5.776 6.022 3.342 12.894 5.009 19.893 4.766 9.683-.336 18.919-4.422 26.003-11.506l3.612-3.614c7.216-7.214 11.191-16.811 11.191-27.018v-6.836c0-3.224-.403-6.399-1.183-9.462-2.149-8.433 4.443-16.587 13.145-16.62l21.046-.078c6.26-.023 12.088 2.842 16.218 7.546 4.746 5.406 11.704 8.825 19.45 8.825h13.034c14.275 0 25.887-11.603 25.887-25.865s-11.612-25.863-25.887-25.863h-13.034a9.64 9.64 0 0 1-9.602-9.46l-.852-65.238c-.344-26.306 9.431-51.739 27.304-71.043l39.062-42.19c9.688-10.464 26.053-10.545 36.101-.427l.199.199 41.557 41.531c11.867 11.844 27.634 18.366 44.396 18.366s32.529-6.523 44.419-18.391l49.156-49.131 6.079-6.074c18.959-18.932 23.809-47.829 12.061-71.922z" class="B"/><path d="M1453.143 307.454c-.262 36.175-22.061 68.417-55.535 82.139a89.26 89.26 0 0 1-97.211-19.522l-46.55-46.551c-16.903-16.903-26.209-39.372-26.209-63.271v-74.884c0-3.83-1.491-7.431-4.199-10.139l-24.103-24.102c-16.901-16.903-26.207-39.372-26.207-63.27V27.542c0-3.83-1.491-7.431-4.199-10.139l-39.993-39.993c-16.899-16.898-26.207-39.369-26.207-63.27v-8.384c0-49.338 40.14-89.478 89.478-89.478a14.24 14.24 0 0 0 10.137-4.199l63.55-63.552c16.901-16.899 39.37-26.205 63.271-26.205h38.113c49.338 0 89.478 40.135 89.478 89.467l-3.614 495.666z"/></g><path d="M1264.103-35.361v-74.57c0-6.757 2.684-13.238 7.462-18.015s7.462-11.258 7.462-18.015v-24.816c0-6.757-2.684-13.238-7.462-18.015l-7.608-7.608-35.045 35.045c-9.735 9.735-22.938 15.203-36.704 15.203h0c-28.668 0-51.908 23.24-51.908 51.908v8.384a51.91 51.91 0 0 0 15.203 36.704l39.994 39.994c9.735 9.734 15.203 22.937 15.203 36.704v22.741l30.605-30.605c14.597-14.597 22.798-34.395 22.798-55.038z" class="n"/><path d="M1292.461-224.906l-28.505 28.505 7.608 7.608c4.778 4.778 7.462 11.258 7.462 18.015v24.816c0 6.757-2.684 13.238-7.462 18.015s-7.462 11.258-7.462 18.015v74.571c0 20.643-8.201 40.441-22.798 55.038l-30.605 30.605v37.571c0 13.767 5.469 26.97 15.204 36.704l24.103 24.103c9.735 9.734 15.204 22.938 15.204 36.704v74.884a51.91 51.91 0 0 0 15.203 36.704l46.552 46.552c32.571 32.571 88.275 9.736 88.611-36.326l3.61-495.003c.21-28.815-23.091-52.287-51.907-52.287h-38.113a51.91 51.91 0 0 0-36.705 15.204z" class="L"/><g class="C J M a b"><path d="M1271.147-189.211l.418.418c4.778 4.778 7.462 11.258 7.462 18.016v24.816c0 6.757-2.684 13.237-7.462 18.015s-7.462 11.258-7.462 18.016v74.57c0 20.643-8.201 40.441-22.798 55.038l-27.01 27.01" stroke-dasharray="0 10.169"/><path d="M1210.7 50.283h0"/><path d="M1210.7 60.307v27.547c0 13.767 5.469 26.97 15.204 36.704l24.103 24.103c9.735 9.734 15.203 22.938 15.203 36.704v74.885a51.91 51.91 0 0 0 15.203 36.704l46.552 46.552c32.571 32.571 88.275 9.736 88.611-36.326l3.61-495.002c.21-28.815-23.091-52.287-51.907-52.287h-38.113a51.91 51.91 0 0 0-36.705 15.204l-24.961 24.96" stroke-dasharray="0 10.024"/></g><use href="#AF" class="R"/><g clip-path="url(#B)" class="B S"><use href="#AG" style="mix-blend-mode:multiply" class="K"/></g><path d="M1258.705 7.333a20.24 20.24 0 0 0 5.935 14.318c3.801 3.798 8.956 5.93 14.333 5.93h20.385V14.195c0-5.372-2.134-10.523-5.935-14.321a20.29 20.29 0 0 0-14.333-5.93h-20.385V7.333z" class="B I"/><g clip-path="url(#C)"><path d="M1258.705-6.056l45.366 38.775h-45.366V-6.056z" class="B D"/><use href="#AH" class="F"/><g class="B"><g class="G"><use href="#AI"/><path d="M1272.256,30.15h-5.082V13.299c0-1.401,1.136-2.536,2.538-2.536h.005c1.402,0,2.538,1.135,2.538,2.536v16.852Z"/></g><g class="D"><path d="M1299.358 13.349V8.541h-7.757c-.638 0-1.25.254-1.702.706a2.4 2.4 0 0 0-.704 1.698h0a2.41 2.41 0 0 0 .704 1.701c.452.452 1.065.703 1.702.703h7.757zm0-9.885v-5.078h-15.247c-1.402 0-2.538 1.135-2.538 2.536v.005c0 1.401 1.136 2.536 2.538 2.536h15.247z"/></g></g></g><path d="M1258.705 7.333a20.24 20.24 0 0 1-5.935 14.318c-3.801 3.798-8.956 5.93-14.333 5.93h-20.385V14.195c0-5.372 2.134-10.523 5.935-14.321a20.29 20.29 0 0 1 14.333-5.93h20.385V7.333z" class="B I"/><g clip-path="url(#D)"><path d="M1258.705-6.056l-45.367 38.775h45.367V-6.056z" class="B D"/><path d="M1216.45 25.138l40.654-33.156 3.209 3.935-40.654 33.156z" class="F"/><g class="B"><g class="G"><use href="#AJ"/><path d="M1245.154 30.15h5.082V13.301c0-.673-.267-1.318-.744-1.795s-1.123-.744-1.796-.744-1.321.269-1.796.744-.744 1.122-.744 1.795V30.15z"/></g><g class="D"><path d="M1218.052 13.618V8.541h7.625a2.53 2.53 0 0 1 1.794.744c.478.475.744 1.12.744 1.792v.005c0 .673-.267 1.318-.744 1.795a2.53 2.53 0 0 1-1.794.741h-7.625zm0-10.154v-5.078h15.245c.673 0 1.321.269 1.796.744a2.54 2.54 0 0 1 .744 1.795c0 .673-.267 1.32-.744 1.795a2.55 2.55 0 0 1-1.796.744h-15.245z"/></g></g></g><path d="M1258.716 27.581l-12.176-8.866c-6.725-4.897-7.485-14.637-1.601-20.516l4.259-4.256h19.035l4.259 4.256c5.884 5.879 5.124 15.619-1.601 20.516l-12.176 8.866z" class="B F"/><g clip-path="url(#E)"><path d="M1258.716-7.597h19.209v36.429h-19.209z" class="D"/><path d="M1256.165-9.723h5.082v44.28h-5.082z" class="P"/><use href="#AK" class="D"/><use href="#AL" class="G"/><path d="M1240.689 24.068a2.54 2.54 0 0 1-2.127-1.145c-.771-1.173-.443-2.747.731-3.515l10.329-6.77a2.54 2.54 0 0 1 3.517.729c.771 1.173.443 2.747-.731 3.515l-10.329 6.77a2.52 2.52 0 0 1-1.39.416z" class="D"/><path d="M1276.72 24.068a2.53 2.53 0 0 1-1.39-.416l-10.325-6.77c-1.174-.769-1.502-2.342-.731-3.515s2.332-1.504 3.517-.729l10.325 6.77c1.174.769 1.502 2.342.731 3.515a2.54 2.54 0 0 1-2.127 1.145z" class="G"/></g><use href="#AM" class="B L"/><path d="M1368.823-19.723h-14.894l-4.036 36.831a3.45 3.45 0 0 0 3.431 3.824h16.177a3.45 3.45 0 0 0 3.431-3.831l-4.109-36.825z" class="R"/><g clip-path="url(#F)" class="B S"><path d="M1361.423 6.901l-12.176-8.866c-6.725-4.897-7.485-14.637-1.601-20.516l4.259-4.256h19.035l4.259 4.256c5.884 5.879 5.124 15.619-1.601 20.516l-12.176 8.866z" style="mix-blend-mode:multiply" class="K"/></g><g clip-path="url(#G)"><path d="M1361.412-34.282l45.366 38.775h-45.366v-38.775z" class="B D"/><path d="M1359.827-32.323l3.212-3.933 40.631 33.184-3.212 3.933z" class="F"/><g class="B G"><path d="M1385.126 1.548h-5.082v-8.54a2.541 2.541 0 1 1 5.082 0v8.54zm-10.163.376h-5.082v-16.852c0-1.401 1.136-2.536 2.538-2.536h.005c1.402 0 2.538 1.135 2.538 2.536V1.924z"/></g></g><g clip-path="url(#H)"><path d="M1361.412-34.282l-45.366 38.775h45.366v-38.775z" class="B D"/><path d="M1319.159-3.089l40.654-33.156 3.209 3.935L1322.368.846z" class="F"/><g class="B G"><path d="M1337.698 1.548h5.082v-8.54a2.541 2.541 0 1 0-5.082 0v8.54zm10.163.376h5.082v-16.849c0-.673-.267-1.318-.744-1.795a2.54 2.54 0 0 0-1.796-.744c-.673 0-1.321.269-1.796.744a2.54 2.54 0 0 0-.744 1.795V1.924z"/></g></g><g clip-path="url(#I)"><path d="M1361.423-35.824h19.209V.605h-19.209z" class="D"/><path d="M1358.873-37.95h5.082V6.33h-5.082z" class="P"/></g><path d="M1375.127 12.048a4.98 4.98 0 0 0-4.965 4.96 4.98 4.98 0 0 0-4.965-4.96 4.98 4.98 0 0 0-4.965 4.96 4.98 4.98 0 0 0-4.965-4.96 4.98 4.98 0 0 0-4.965 4.96 4.98 4.98 0 0 0-4.965-4.96 4.98 4.98 0 0 0-4.965 4.96l4.488 3.924 11.545 1.237 16.547-.818 7.138-4.344a4.98 4.98 0 0 0-4.965-4.96z" class="B L"/><path d="M1267.19,81.627h-9.474l-2.568,23.429c-.142,1.298.875,2.433,2.183,2.433h10.29c1.309,0,2.327-1.137,2.182-2.437l-2.614-23.424Z" class="R"/><g clip-path="url(#J)" class="B S"><use href="#AN" style="mix-blend-mode:multiply" class="K"/></g><use href="#AO" class="B I"/><g clip-path="url(#K)"><path d="M1262.476 72.366l28.858 24.665h-28.858V72.366z" class="B D"/><use href="#AP" class="F"/><g class="B"><g class="G"><path d="M1277.561 95.158h-3.232v-5.432c0-.891.724-1.615 1.616-1.615s1.616.723 1.616 1.615v5.432zm-6.465.239h-3.232V84.678c0-.891.722-1.613 1.615-1.613h.003c.892 0 1.615.722 1.615 1.613v10.719z"/></g><g class="D"><use href="#AQ"/><path d="M1288.335,78.422v-3.23h-9.699c-.892,0-1.615.722-1.615,1.613v.003c0,.891.722,1.613,1.615,1.613h9.699Z"/></g></g></g><use href="#AR" class="B I"/><g clip-path="url(#L)"><path d="M1262.476 72.366l-28.858 24.665h28.858V72.366z" class="B D"/><use href="#AS" class="F"/><g class="B"><g class="G"><path d="M1247.391 95.158h3.232v-5.432c0-.891-.724-1.615-1.616-1.615s-1.616.723-1.616 1.615v5.432zm6.465.239h3.232V84.679c0-.428-.17-.838-.474-1.142a1.62 1.62 0 0 0-2.286 0c-.304.304-.474.714-.474 1.142v10.718z"/></g><g class="D"><use href="#AT"/><use href="#AU"/></g></g></g><path d="M1262.483 93.763l-7.745-5.639a8.61 8.61 0 0 1-1.018-13.05l2.709-2.707h12.108l2.709 2.707a8.61 8.61 0 0 1-1.018 13.05l-7.745 5.639z" class="B F"/><g clip-path="url(#M)"><use href="#AV" class="D"/><path d="M1260.861 70.034h3.232V98.2h-3.232z" class="P"/><use href="#AW" class="D"/><use href="#AX" class="G"/><path d="M1251.016 91.528c-.526 0-1.044-.257-1.353-.729-.49-.746-.282-1.747.465-2.236l6.57-4.306c.747-.492 1.749-.28 2.237.464s.282 1.747-.465 2.236l-6.57 4.306c-.274.18-.581.265-.884.265z" class="D"/><path d="M1273.935 91.528c-.303 0-.61-.085-.884-.265l-6.568-4.306c-.747-.489-.955-1.49-.465-2.236s1.484-.957 2.237-.464l6.568 4.306c.747.489.955 1.49.465 2.236-.309.472-.827.729-1.353.729z" class="G"/></g><g class="B"><path d="M1271.2,101.837c-1.737,0-3.158,1.42-3.158,3.155,0-1.735-1.421-3.155-3.158-3.155s-3.158,1.42-3.158,3.155c0-1.735-1.421-3.155-3.158-3.155s-3.158,1.42-3.158,3.155c0-1.735-1.421-3.155-3.158-3.155s-3.158,1.42-3.158,3.155l2.855,2.496,7.344.787,10.526-.52,4.541-2.763c0-1.735-1.421-3.155-3.158-3.155Z" class="L"/><path d="M1317.502 154.207a2.99 2.99 0 0 1-2.204-.97 2.98 2.98 0 0 1-.771-2.279l11.225-125.706c.219-2.453 2.275-4.319 4.74-4.319h10.307a4.76 4.76 0 0 1 4.744 4.361l2.016 24.176h7.331c1.342 0 2.566.752 3.166 1.951l3.315 6.624c.309.618.489 1.293.527 1.984l2.322 41.76 12.971 3.703c2.186.624 3.69 2.62 3.69 4.891v40.839c0 .791-.315 1.551-.875 2.11s-1.32.874-2.112.874h-60.393z" fill="#777087"/><g fill="#675d7e"><path d="M1360.069 136.273a4.76 4.76 0 0 1 9.52 0v17.934h-9.521v-17.934zm-28.645-20.302a4.76 4.76 0 0 1 9.52 0v38.235h-9.521v-38.235z"/></g></g><g clip-path="url(#N)" class="B"><path d="M1306.999 28.081V7.47c0-2.388 1.938-4.324 4.328-4.324h.794c2.39 0 4.328-1.936 4.328-4.324v-14.684c0-2.388 1.938-4.324 4.328-4.324h3.459c2.39 0 4.328-1.936 4.328-4.324v-9.313c0-2.388 1.938-4.324 4.328-4.324h10.849c2.39 0 4.328 1.936 4.328 4.324v47.769c-.001 2.317 1.879 4.196 4.198 4.196h.109c2.412 0 4.35-1.917 4.349-4.306V-.344c0-2.388 1.938-4.305 4.328-4.305h10.849c2.39 0 4.328 1.936 4.328 4.324v10.547c0 2.388 1.938 4.324 4.328 4.324h2.194c2.39 0 4.328 1.936 4.328 4.324v108.832c0 2.388-1.938 4.324-4.328 4.324h-4.503c-2.39 0-4.328-1.936-4.328-4.324v-10.547c0-2.388-1.938-4.324-4.328-4.324h-11.235a9.52 9.52 0 0 1-9.521-9.513V81.61c0-2.388-1.938-4.324-4.328-4.324h-2.45c-2.39 0-4.328-1.936-4.328-4.324V62.378c0-2.388-1.938-4.324-4.328-4.324h.117c-2.39 0-4.328 1.936-4.328 4.324v30.591c0 2.388-1.938 4.324-4.328 4.324h-1.617c-2.39 0-4.328 1.936-4.328 4.324l-1.271 14.684c0 2.388-1.938 4.324-4.328 4.324h-3.333c-2.39 0-4.328 1.936-4.328 4.324v20.611c0 2.388-1.938 4.324-4.328 4.324h-1.993c-2.39 0-4.328-1.936-4.328-4.324V36.729c0-2.388 1.938-4.324 4.328-4.324h3.333c2.39 0 4.328-1.936 4.328-4.324z" class="c"/><g class="o"><path d="M1346.978 58.954a4.76 4.76 0 0 1-4.76-4.756 4.76 4.76 0 0 1 4.76-4.756h22.612v9.513h-22.612zm13.084 41.663c-2.531-.712-4.004-3.339-3.291-5.868a4.76 4.76 0 0 1 5.873-3.288l21.764 6.127-2.582 9.156-21.764-6.127z"/></g></g><path d="M1374.304,144.534h-9.474l-2.568,23.429c-.142,1.298.875,2.433,2.183,2.433h10.29c1.309,0,2.327-1.137,2.182-2.437l-2.614-23.424Z" class="R"/><g clip-path="url(#O)" class="B S"><path d="M1369.597 161.47l-7.745-5.639a8.61 8.61 0 0 1-1.018-13.05l2.709-2.707h12.108l2.709 2.707a8.61 8.61 0 0 1-1.018 13.05l-7.745 5.639z" style="mix-blend-mode:multiply" class="K"/></g><path d="M1369.59 143.79a12.88 12.88 0 0 0 3.775 9.108c2.418 2.416 5.697 3.772 9.117 3.772h12.967v-8.515c0-3.417-1.358-6.694-3.775-9.109s-5.697-3.772-9.117-3.772h-12.967v8.517z" class="B I"/><g clip-path="url(#P)"><path d="M1369.59 135.273l28.857 24.665h-28.857v-24.665z" class="B D"/><path d="M1368.583 136.523l2.043-2.502 25.846 21.108-2.043 2.502z" class="F"/><g class="B D"><path d="M1395.449 147.617v-3.059h-4.934a1.53 1.53 0 0 0-1.531 1.529h0c0 .407.162.794.448 1.082s.677.447 1.083.447h4.934zm0-6.288v-3.23h-9.699c-.892 0-1.615.722-1.615 1.613v.003c0 .891.722 1.613 1.615 1.613h9.699z"/></g></g><path d="M1369.59 143.79a12.88 12.88 0 0 1-3.775 9.108c-2.418 2.416-5.697 3.772-9.117 3.772h-12.967v-8.515c0-3.417 1.358-6.694 3.775-9.109s5.697-3.772 9.117-3.772h12.967v8.517z" class="B I"/><g clip-path="url(#Q)"><path d="M1369.59 135.273l-28.858 24.665h28.858v-24.665z" class="B D"/><path d="M1342.713 155.118l25.86-21.09 2.041 2.503-25.86 21.09z" class="F"/><g class="B D"><path d="M1343.73 147.788v-3.23h4.85a1.61 1.61 0 0 1 1.141.473c.304.302.474.712.474 1.14v.003c0 .428-.17.838-.474 1.142a1.61 1.61 0 0 1-1.141.472h-4.85zm0-6.459v-3.23h9.697a1.62 1.62 0 0 1 1.143.473c.304.304.474.714.474 1.142a1.61 1.61 0 0 1-1.617 1.615h-9.697z"/></g></g><path d="M1369.597 156.67l-7.745-5.639a8.61 8.61 0 0 1-1.018-13.05l2.709-2.707h12.108l2.709 2.707a8.61 8.61 0 0 1-1.018 13.05l-7.745 5.639z" class="B F"/><g clip-path="url(#R)"><path d="M1369.597 134.293h12.219v23.172h-12.219z" class="D"/><path d="M1367.974 132.94h3.232v28.166h-3.232z" class="P"/><path d="M1358.13 147.071c-.526 0-1.044-.257-1.353-.729-.49-.746-.282-1.747.465-2.236l6.57-4.306c.747-.492 1.749-.28 2.237.464s.282 1.747-.465 2.236l-6.57 4.306c-.274.18-.581.265-.884.265z" class="D"/><path d="M1381.049 147.071c-.303 0-.61-.085-.884-.265l-6.568-4.306c-.747-.489-.955-1.49-.465-2.236s1.484-.957 2.237-.464l6.568 4.306c.747.489.955 1.49.465 2.236-.309.472-.827.729-1.353.729z" class="G"/></g><path d="M1305.986,126.579h-9.474l-2.568,23.429c-.142,1.298.875,2.433,2.183,2.433h10.29c1.309,0,2.327-1.137,2.182-2.437l-2.614-23.424Z" class="R"/><g clip-path="url(#S)" class="B S"><path d="M1301.28 143.515l-7.745-5.639a8.61 8.61 0 0 1-1.018-13.05l2.709-2.707h12.108l2.709 2.707a8.61 8.61 0 0 1-1.018 13.05l-7.745 5.639z" style="mix-blend-mode:multiply" class="K"/></g><path d="M1301.272 125.835a12.88 12.88 0 0 0 3.775 9.108c2.417 2.416 5.697 3.772 9.117 3.772h12.967V130.2c0-3.417-1.358-6.694-3.775-9.109s-5.697-3.772-9.117-3.772h-12.967v8.517z" class="B I"/><g clip-path="url(#T)"><path d="M1301.272 117.318l28.858 24.665h-28.858v-24.665z" class="B D"/><path d="M1300.266 118.569l2.043-2.502 25.846 21.108-2.043 2.502z" class="F"/><g class="B"><g class="G"><path d="M1316.357 140.11h-3.232v-5.432c0-.891.724-1.615 1.616-1.615s1.616.723 1.616 1.615v5.432zm-6.465.239h-3.232V129.63c0-.891.722-1.613 1.615-1.613h.003c.892 0 1.615.722 1.615 1.613v10.719z"/></g><g class="D"><path d="M1327.132 129.662v-3.059h-4.934a1.53 1.53 0 0 0-1.531 1.529h0c0 .407.162.794.448 1.082s.677.447 1.083.447h4.934zm0-6.288v-3.23h-9.699c-.892 0-1.615.722-1.615 1.613v.003c0 .891.722 1.613 1.615 1.613h9.699z"/></g></g></g><path d="M1301.272 125.835a12.88 12.88 0 0 1-3.775 9.108c-2.418 2.416-5.697 3.772-9.117 3.772h-12.967V130.2c0-3.417 1.358-6.694 3.775-9.109s5.697-3.772 9.117-3.772h12.967v8.517z" class="B I"/><g clip-path="url(#U)"><path d="M1301.272 117.318l-28.857 24.665h28.857v-24.665z" class="B D"/><path d="M1274.395 137.163l25.86-21.09 2.041 2.503-25.86 21.09z" class="F"/><g class="B"><g class="G"><path d="M1286.188 140.11h3.232v-5.432c0-.891-.724-1.615-1.616-1.615s-1.616.723-1.616 1.615v5.432zm6.465.239h3.232v-10.718c0-.428-.17-.838-.474-1.142a1.62 1.62 0 0 0-2.286 0c-.304.304-.474.714-.474 1.142v10.718z"/></g><g class="D"><path d="M1275.413 129.833v-3.23h4.85a1.61 1.61 0 0 1 1.141.473c.304.302.474.712.474 1.14v.003c0 .428-.17.838-.474 1.142a1.61 1.61 0 0 1-1.141.472h-4.85zm0-6.459v-3.23h9.697a1.62 1.62 0 0 1 1.143.473c.304.304.474.714.474 1.142a1.61 1.61 0 0 1-1.617 1.615h-9.697z"/></g></g></g><path d="M1301.28 138.715l-7.745-5.639a8.61 8.61 0 0 1-1.018-13.05l2.709-2.707h12.108l2.709 2.707a8.61 8.61 0 0 1-1.018 13.05l-7.745 5.639z" class="B F"/><g clip-path="url(#V)"><path d="M1301.28 116.338h12.219v23.172h-12.219z" class="D"/><path d="M1299.657 114.986h3.232v28.166h-3.232z" class="P"/><path d="M1289.812 129.117c-.526 0-1.044-.257-1.353-.729-.49-.746-.282-1.747.465-2.236l6.57-4.306c.747-.492 1.749-.28 2.237.464s.282 1.747-.465 2.236l-6.57 4.306c-.274.18-.581.265-.884.265z" class="D"/><path d="M1312.732 129.117c-.303 0-.61-.085-.884-.265l-6.568-4.306c-.747-.489-.955-1.49-.465-2.236s1.484-.957 2.237-.464l6.568 4.306c.747.489.955 1.49.465 2.236-.309.472-.827.729-1.353.729z" class="G"/><path d="M1289.812 136.48c-.526 0-1.044-.257-1.353-.729-.49-.746-.282-1.747.465-2.236l6.57-4.306c.747-.492 1.749-.28 2.237.464s.282 1.747-.465 2.236l-6.57 4.306c-.274.18-.581.265-.884.265z" class="D"/><path d="M1312.732 136.48c-.303 0-.61-.085-.884-.265l-6.568-4.306c-.747-.489-.955-1.49-.465-2.236s1.484-.957 2.237-.464l6.568 4.306c.747.489.955 1.49.465 2.236-.309.472-.827.729-1.353.729z" class="G"/></g><g class="d"><path d="M1388.591,45.15c1.3,0,2.355-1.052,2.355-2.353v-7.366c0-1.3-1.054-2.353-2.355-2.353s-2.355,1.052-2.355,2.353v7.366c0,1.3,1.054,2.353,2.355,2.353Z" class="H"/><use href="#AY" class="H"/><path d="M1398.012 45.15c1.3 0 2.355-1.052 2.355-2.353v-4.912c0-1.3-1.054-2.353-2.355-2.353s-2.355 1.052-2.355 2.353v4.912c0 1.3 1.054 2.353 2.355 2.353zm-104.107 14.2c1.3 0 2.355-1.052 2.355-2.353v-7.366c0-1.3-1.054-2.353-2.355-2.353s-2.355 1.052-2.355 2.353v7.366c0 1.3 1.054 2.353 2.355 2.353zm-9.422 0c1.3 0 2.355-1.052 2.355-2.353v-4.912c0-1.3-1.054-2.353-2.355-2.353s-2.355 1.052-2.355 2.353v4.912c0 1.3 1.054 2.353 2.355 2.353zm18.843 0c1.3 0 2.355-1.052 2.355-2.353v-4.912c0-1.3-1.054-2.353-2.355-2.353s-2.355 1.052-2.355 2.353v4.912c0 1.3 1.054 2.353 2.355 2.353z" class="H"/></g><path d="M1107.679,124.682c-14.273,0-25.885-11.602-25.885-25.865s11.612-25.863,25.885-25.863h13.034c14.275,0,25.887,11.602,25.887,25.863s-11.612,25.865-25.887,25.865h-13.034Z" class="B m"/><rect x="1098.339" y="89.484" width="31.716" height="18.667" rx="9.333" class="L"/><path d="M836.602-48.139h-15.765a45.27 45.27 0 0 0-32.076 13.321l-46.475 46.663c-1.129 1.134-2.316 2.197-3.548 3.196v42.326l35.955 35.925h51.759l9.707-9.698L868.6 51.18c8.486-8.479 13.254-19.98 13.254-31.971V-2.925c0-24.971-20.26-45.214-45.252-45.214z" class="n"/><path d="M738.738 57.367V15.041c-8.028 6.516-18.09 10.125-28.529 10.125h-32.915a45.27 45.27 0 0 0-31.998 13.243l-1.396 1.395c-8.486 8.479-13.254 19.98-13.254 31.971v16.798c0 11.992 4.768 23.492 13.254 31.971l15.158 15.145c8.486 8.479 19.997 13.243 31.998 13.243h60.965a45.27 45.27 0 0 0 31.998-13.243l42.433-42.397h-51.759l-35.955-35.925z" class="L"/><g class="C J M a b"><path d="M738.738 57.368h0"/><path d="M738.738 46.786V20.332" stroke-dasharray="0 10.582"/><path d="M738.738 15.041h0"/><path d="M730.287 20.467c-6.184 3.062-13.045 4.699-20.078 4.699h-32.915a45.27 45.27 0 0 0-31.998 13.243l-1.396 1.395c-8.486 8.479-13.254 19.98-13.254 31.971v16.798c0 11.991 4.768 23.492 13.254 31.971l15.158 15.145c8.486 8.479 19.997 13.243 31.998 13.243h60.965a45.27 45.27 0 0 0 31.998-13.243l38.87-38.837" stroke-dasharray="0 10.062"/><path d="M826.452 93.292h0"/><path d="M816.194 93.292h-41.501l-32.326-32.299" stroke-dasharray="0 10.259"/></g><g class="d"><use href="#AZ" class="H"/><use href="#Aa" class="H"/><path d="M650.966 85.247a2.03 2.03 0 0 1-2.031-2.029v-4.236a2.03 2.03 0 1 1 4.062 0v4.236a2.03 2.03 0 0 1-2.031 2.029z" class="H"/></g><path d="M750.829,40.504h-13.317l-3.609,32.931c-.2,1.825,1.231,3.42,3.068,3.42h14.464c1.84,0,3.271-1.598,3.067-3.426l-3.674-32.925Z" class="R"/><g clip-path="url(#W)" class="B S"><use href="#Ab" style="mix-blend-mode:multiply" class="K"/></g><path d="M744.203 39.458c0 4.801 1.908 9.406 5.307 12.802a18.13 18.13 0 0 0 12.815 5.302h18.226V45.593c0-4.803-1.908-9.409-5.307-12.804a18.14 18.14 0 0 0-12.815-5.302h-18.226v11.971z" class="B I"/><g clip-path="url(#X)"><path d="M744.203 27.487l40.562 34.669h-40.562V27.487z" class="B D"/><path d="M742.781 29.237l2.872-3.516 36.329 29.67-2.872 3.516z" class="F"/><g class="B"><g class="G"><path d="M765.406 59.523h-4.544v-7.636c0-1.253 1.018-2.27 2.272-2.27s2.272 1.017 2.272 2.27v7.636zm-9.087.336h-4.544V44.792a2.27 2.27 0 0 1 2.269-2.268h.005a2.27 2.27 0 0 1 2.269 2.268v15.067z"/></g><g class="D"><path d="M780.551 44.837v-4.299h-6.936c-.57 0-1.118.227-1.522.631a2.15 2.15 0 0 0-.629 1.519h0c0 .572.227 1.117.629 1.521a2.15 2.15 0 0 0 1.522.629h6.936zm0-8.838v-4.54h-13.633a2.27 2.27 0 0 0-2.269 2.268v.005A2.27 2.27 0 0 0 766.918 36h13.633z"/></g></g></g><path d="M744.203 39.458c0 4.801-1.908 9.406-5.307 12.802a18.13 18.13 0 0 1-12.815 5.302h-18.226V45.593c0-4.803 1.908-9.409 5.307-12.804a18.14 18.14 0 0 1 12.815-5.302h18.226v11.971z" class="B I"/><g clip-path="url(#Y)"><path d="M744.203 27.487L703.64 62.156h40.563V27.487z" class="B D"/><path d="M706.421 55.375l36.349-29.645 2.869 3.518-36.349 29.645z" class="F"/><g class="B"><g class="G"><path d="M722.999 59.523h4.544v-7.636c0-1.253-1.018-2.27-2.272-2.27s-2.272 1.017-2.272 2.27v7.636zm9.087.336h4.544V44.794a2.27 2.27 0 0 0-.666-1.605 2.28 2.28 0 0 0-3.212 0 2.27 2.27 0 0 0-.666 1.605v15.065z"/></g><g class="D"><path d="M707.854 45.078v-4.54h6.818a2.26 2.26 0 0 1 2.27 2.268v.005a2.27 2.27 0 0 1-2.27 2.268h-6.818zm0-9.079v-4.54h13.631a2.28 2.28 0 0 1 1.606.665 2.27 2.27 0 0 1 .666 1.605c0 .602-.239 1.18-.666 1.605s-1.004.665-1.606.665h-13.631z"/></g></g></g><path d="M744.213 57.562l-10.887-7.927c-6.013-4.378-6.693-13.087-1.432-18.344l3.808-3.805h17.02l3.808 3.805c5.261 5.257 4.582 13.965-1.432 18.344l-10.887 7.927z" class="B F"/><g clip-path="url(#Z)"><path d="M744.213 26.109h17.175V58.68h-17.175z" class="D"/><path d="M741.932 24.208h4.544v39.591h-4.544z" class="P"/><use href="#Ac" class="D"/><use href="#Ad" class="G"/><path d="M728.094 54.421a2.27 2.27 0 0 1-1.248-4.167l9.235-6.053a2.27 2.27 0 0 1 3.144.652 2.27 2.27 0 0 1-.654 3.143l-9.235 6.053a2.25 2.25 0 0 1-1.242.372z" class="D"/><path d="M760.31 54.421c-.426 0-.858-.12-1.242-.372l-9.232-6.053a2.27 2.27 0 0 1-.654-3.143c.686-1.045 2.085-1.345 3.144-.652l9.232 6.053a2.27 2.27 0 0 1-1.248 4.167z" class="G"/></g><path d="M756.465,68.911c-2.441,0-4.439,1.996-4.439,4.435,0-2.439-1.998-4.435-4.439-4.435s-4.439,1.996-4.439,4.435c0-2.439-1.998-4.435-4.439-4.435s-4.439,1.996-4.439,4.435c0-2.439-1.998-4.435-4.439-4.435s-4.439,1.996-4.439,4.435l4.012,3.509,10.322,1.106,14.795-.731,6.382-3.884c0-2.439-1.998-4.435-4.439-4.435Z" class="B L"/><g fill="#d8782d"><path d="M777.448 36.772l-3.587-4.616-.579-1.868-.495-2.24c-.258-1.488-.345-2.96-.202-4.259l.006-.055h0a2.97 2.97 0 0 0-2.629-3.277c-1.631-.179-3.099.997-3.279 2.627-.232 2.109-.075 4.085.246 5.968l.612 2.773.881 2.764h0l.287.572c.098.192.243.364.432.496l5.635 3.924c.686.476 1.63.479 2.325-.06a1.96 1.96 0 0 0 .346-2.75zm-18.727-1.183h0c-.224-1.505-.718-2.719-1.259-3.854l-.884-1.632-1.046-1.592-.089-.122c-.114-.152-.244-.295-.39-.428-1.225-1.109-3.117-1.015-4.227.209a2.99 2.99 0 0 0 .209 4.223c.262.237.622.63.916.966l.864 1.077c.478.65.869 1.321 1.105 1.89l-.372 2.669c-.113.812.313 1.637 1.099 1.994.957.434 2.085.01 2.519-.946l1.508-3.321a1.29 1.29 0 0 0 .105-.681l-.055-.454z"/></g><path d="M760.166 22.812l-5.873 2.634-2.552 1.144a3.54 3.54 0 0 0-1.782 4.679l.33.736a2.74 2.74 0 0 0 3.616 1.375h0a2.73 2.73 0 0 1 1.5-.213l3.341.468a13.18 13.18 0 0 0 7.219-1.026h0a9.76 9.76 0 0 0 4.912-12.9h0a1.55 1.55 0 0 0-2.049-.779l-8.661 3.884z" class="p"/><path d="M769.369 38.568l-3.55-5.146.022-1.81a21.84 21.84 0 0 1 .252-2.508c.133-.8.32-1.561.563-2.192.237-.631.552-1.103.758-1.29l.021-.019.033-.031a2.97 2.97 0 0 0 .122-4.198c-1.126-1.193-3.007-1.248-4.201-.122s-1.828 2.381-2.28 3.527c-.442 1.158-.697 2.27-.88 3.357-.177 1.086-.278 2.149-.326 3.202l.013 3.214h0l.082.568c.067.464.3.905.689 1.228l5.819 4.833c.658.546 1.624.615 2.362.107.89-.613 1.114-1.831.501-2.72z" fill="#e39f4f"/><path d="M771.896 13.106h-.32a7.77 7.77 0 0 0-7.773 7.766h0c0 1.495.143 2.987.426 4.455l.111.577c.142.735.786 1.266 1.535 1.266h11.721c.749 0 1.393-.531 1.535-1.266l.111-.577c.283-1.468.426-2.96.426-4.455h0a7.77 7.77 0 0 0-7.773-7.766z" class="p"/><rect x="768.526" y="15.065" width="7.893" height="10.194" rx="3.945" transform="matrix(.999995 -.003211 .003211 .999995 -.061 2.484)" fill="#e8b67e"/><g fill="#6a3b11"><circle cx="774.342" cy="19.433" r="1.085"/><circle cx="770.721" cy="19.471" r="1.085"/></g><path d="M729.244 40.372c-4.911 0-9.452-1.191-9.726-1.264-.692-.185-1.102-.895-.918-1.587a1.3 1.3 0 0 1 1.588-.918c.09.024 9.103 2.384 14.798.353 4.075-1.452 6.75-3.527 9.337-5.534 2.022-1.568 4.113-3.189 6.811-4.483.644-.311 1.421-.038 1.731.608s.037 1.419-.609 1.729c-2.449 1.174-4.34 2.641-6.342 4.193-2.748 2.132-5.591 4.336-10.056 5.928-2.031.723-4.362.974-6.614.974z" class="p"/><path d="M755.938 31.912l-.146-1.68-.018-.142c-.027-.198-.075-.396-.144-.592-.55-1.558-2.261-2.375-3.82-1.826a2.99 2.99 0 0 0-1.827 3.817c.118.333.245.801.349 1.208l.278 1.256c.147.756.215 1.521.207 2.027l-1.665 3.094c-.403.749-.263 1.704.396 2.301a1.9 1.9 0 0 0 2.68-.13l2.889-3.181a1.25 1.25 0 0 0 .266-.469l.105-.342h0a10.7 10.7 0 0 0 .385-1.947c.07-.607.089-1.172.1-1.738l-.036-1.657z" fill="#e39f4f"/><g class="d"><path d="M684.569 131.557a2.03 2.03 0 0 1-2.031-2.029v-6.352a2.031 2.031 0 1 1 4.062 0v6.352a2.03 2.03 0 0 1-2.031 2.029zm8.124 0a2.03 2.03 0 0 1-2.031-2.029v-4.236a2.031 2.031 0 1 1 4.062 0v4.236a2.03 2.03 0 0 1-2.031 2.029zm-16.249 0a2.03 2.03 0 0 1-2.031-2.029v-4.236a2.031 2.031 0 1 1 4.062 0v4.236a2.03 2.03 0 0 1-2.031 2.029z" class="H"/></g><path d="M713.851 78.608l-34.425-30.475h-2.263l-34.425 30.475v28.196c0 .662.263 1.298.732 1.766s1.106.734 1.769.734h66.11a2.5 2.5 0 0 0 1.769-.734c.469-.468.732-1.103.732-1.766V78.608z" fill="#faea92" class="B"/><g clip-path="url(#a)"><g fill="#f1d66a"><use href="#Ae"/><path d="M640.646 103.034h75.296v6.269h-75.296zm0-37.617h75.296v6.269h-75.296zm0-12.538h75.296v6.269h-75.296zm0 37.616h75.296v6.269h-75.296z"/></g><path d="M639.6 83.908l38.694-32.074 39.077 32.391" stroke="#ceb245" stroke-linejoin="bevel" stroke-width="6.272" class="C"/></g><path d="M672.019 92.585h12.549v16.718h-12.549z" fill="#434033"/><path d="M672.019 92.585h12.549v4.18h-12.549z" fill="#14130f"/><g fill="#6fbaa1"><path d="M692.935 90.495h12.549v12.539h-12.549zm-41.831 0h12.549v12.539h-12.549zm23.007-25.051h8.366v10.449h-8.366z"/></g><g class="T"><path d="M674.111 73.747h8.366v2.119h-8.366z"/><use href="#Af"/><path d="M692.935 100.915h12.549v2.119h-12.549z"/></g><g fill="#519980"><path d="M692.935 90.466h12.549v2.119h-12.549zm-41.831 0h12.549v2.119h-12.549zm23.007-27.14h8.366v2.119h-8.366z"/></g><g stroke="#6b8b44" stroke-width="7.526" class="C J M"><use href="#Ag"/><path d="M640.071 69.597l38.223-31.974m-38.223 22.57l38.223-31.974"/><use href="#Ah"/><path d="M716.517 69.597l-38.223-31.974m38.223 22.57l-38.223-31.974"/></g><rect x="675.104" y="22.577" width="6.379" height="33.855" rx="3.185" fill="#51742a"/><path d="M747.488 102.237h-13.107l-3.552 32.411a3.04 3.04 0 0 0 3.02 3.366h14.236c1.811 0 3.22-1.573 3.019-3.371l-3.616-32.406z" class="R"/><g clip-path="url(#b)" class="B S"><use href="#Ai" style="mix-blend-mode:multiply" class="K"/></g><path d="M740.967 101.207a17.81 17.81 0 0 0 5.223 12.6c3.345 3.342 7.882 5.219 12.613 5.219h17.939v-11.78a17.81 17.81 0 0 0-5.223-12.602c-3.345-3.34-7.882-5.219-12.613-5.219h-17.939v11.782z" class="B I"/><g clip-path="url(#c)"><path d="M740.967 89.425l39.922 34.123h-39.922V89.425z" class="B D"/><path d="M739.567 91.149l2.827-3.461 35.755 29.201-2.827 3.461z" class="F"/><g class="B"><g class="G"><path d="M761.835 120.956h-4.472v-7.515c0-1.233 1.002-2.234 2.236-2.234s2.236 1.001 2.236 2.234v7.515zm-8.944.331h-4.472v-14.829c0-1.233.999-2.232 2.234-2.232h.005c1.234 0 2.234.999 2.234 2.232v14.829z"/></g><g class="D"><path d="M776.741 106.502v-4.231h-6.826a2.12 2.12 0 0 0-1.498.621c-.396.395-.619.934-.619 1.495h0c0 .563.224 1.099.619 1.497a2.11 2.11 0 0 0 1.498.619h6.826zm0-8.699v-4.468h-13.418c-1.234 0-2.234.999-2.234 2.232v.004c0 1.233.999 2.232 2.234 2.232h13.418z"/></g></g></g><path d="M740.967 101.207a17.81 17.81 0 0 1-5.223 12.6c-3.345 3.342-7.882 5.219-12.613 5.219h-17.939v-11.78a17.81 17.81 0 0 1 5.223-12.602c3.345-3.34 7.882-5.219 12.613-5.219h17.939v11.782z" class="B I"/><g clip-path="url(#d)"><path d="M740.967 89.425l-39.923 34.123h39.923V89.425z" class="B D"/><path d="M703.781 116.874l35.775-29.176 2.824 3.463-35.775 29.176z" class="F"/><g class="B"><g class="G"><path d="M720.098 120.956h4.472v-7.515c0-1.233-1.002-2.234-2.236-2.234s-2.236 1.001-2.236 2.234v7.515zm8.944.331h4.472V106.46a2.23 2.23 0 0 0-.655-1.579 2.24 2.24 0 0 0-3.162 0 2.23 2.23 0 0 0-.655 1.579v14.827z"/></g><g class="D"><path d="M705.192 106.739v-4.468h6.71a2.23 2.23 0 0 1 1.579.655c.42.418.655.985.655 1.577v.004a2.23 2.23 0 0 1-2.234 2.231h-6.71zm0-8.936v-4.468h13.415a2.24 2.24 0 0 1 1.581.655 2.23 2.23 0 0 1 .655 1.579c0 .592-.235 1.162-.655 1.579a2.23 2.23 0 0 1-1.581.655h-13.415z"/></g></g></g><path d="M740.976 119.026l-10.715-7.802c-5.918-4.309-6.587-12.88-1.409-18.054l3.748-3.745h16.751l3.748 3.745c5.178 5.174 4.509 13.745-1.409 18.054l-10.715 7.802z" class="B F"/><g clip-path="url(#e)"><path d="M740.976 88.069h16.904v32.057h-16.904z" class="D"/><path d="M738.732 86.198h4.472v38.966h-4.472z" class="P"/><use href="#Aj" class="D"/><use href="#Ak" class="G"/><path d="M725.113 115.934c-.728 0-1.444-.355-1.872-1.008-.678-1.033-.39-2.417.643-3.094l9.089-5.957c1.034-.681 2.419-.387 3.095.641s.39 2.417-.643 3.094l-9.089 5.957a2.22 2.22 0 0 1-1.223.367z" class="D"/><path d="M756.82 115.934a2.22 2.22 0 0 1-1.223-.367l-9.086-5.957a2.23 2.23 0 1 1 2.452-3.735l9.086 5.957a2.23 2.23 0 0 1 .643 3.094c-.428.653-1.144 1.008-1.872 1.008z" class="G"/></g><path d="M753.035 130.196a4.38 4.38 0 0 0-4.369 4.365 4.38 4.38 0 0 0-4.369-4.365 4.38 4.38 0 0 0-4.369 4.365 4.38 4.38 0 0 0-4.369-4.365 4.38 4.38 0 0 0-4.369 4.365 4.38 4.38 0 0 0-4.369-4.365 4.38 4.38 0 0 0-4.369 4.365l3.949 3.453 10.159 1.088 14.562-.72 6.282-3.822a4.38 4.38 0 0 0-4.369-4.365z" class="B L"/><g opacity=".412" class="T"><use href="#Al"/></g><g opacity=".412" class="T"><path d="M865.881,75.502h-5.861c-2.455,0-4.444-1.989-4.444-4.444s1.989-4.444,4.444-4.444h5.861c2.455,0,4.444,1.989,4.444,4.444s-1.989,4.444-4.444,4.444Z"/></g><g fill="#2e2f5c"><path d="M860.55 47.768h4.801v23.289h-4.801zm53.248 0h4.801v23.289h-4.801z"/></g><path d="M889.575,7.413c-21.708,0-39.305,13.553-39.305,30.273s17.598,30.273,39.305,30.273,39.305-13.554,39.305-30.273-17.598-30.273-39.305-30.273Z" class="B U"/><g clip-path="url(#f)"><path d="M845.792 18.529h87.565v49.698h-87.565z" fill="#424181"/><g class="C J e f"><path style="mix-blend-mode:multiply" d="M845.792 26.524h87.565m-87.565 8.427h87.565m-87.565 8.428h87.565m-87.565 8.427h87.565m-87.565 8.427h87.565" class="V"/></g></g><g class="B"><path d="M889.575 5.29c-20.136 0-36.459 12.572-36.459 28.081s16.323 28.081 36.459 28.081 36.459-12.572 36.459-28.081S909.711 5.29 889.575 5.29z" class="W"/><path d="M853.116,23.681c0,15.015,16.323,27.187,36.459,27.187s36.459-12.172,36.459-27.187-16.323-27.187-36.459-27.187-36.459,12.172-36.459,27.187Z" class="Q"/><path d="M856.805,24.066c0,11.902,14.671,21.55,32.771,21.55s32.771-9.648,32.771-21.55-14.672-21.55-32.771-21.55-32.771,9.648-32.771,21.55Z" class="H g"/></g><g clip-path="url(#g)" class="B Q"><path d="M853.116,33.539c0,15.416,16.323,27.913,36.46,27.913s36.46-12.497,36.46-27.912-16.323-27.913-36.46-27.913-36.46,12.497-36.46,27.912Z"/></g><g class="B"><path d="M878.113,18.817v40.595s5.454-2.844,12.181-2.844h0c6.727,0,12.181,2.844,12.181,2.844V18.817h-24.362Z" class="H g"/><path d="M876.102,59.473l2.011-1.09s5.454-2.844,12.181-2.844h0c6.727,0,12.181,2.844,12.181,2.844l2.011.635-6.567.394-16.297.642-5.521-.581Z" fill="#7f7db4" class="H"/><g class="Q"><path d="M860.55 36.97l-5.201-6.35V11.163h5.201V36.97zm63.25-6.35l-5.201 6.35V11.163h5.201V30.62z"/></g><g class="W"><path d="M856.211 35.577l-3.095-2.568V3.385h3.095v32.192zm69.823-2.568l-3.096 2.568V3.385h3.096v29.624z"/></g></g><g class="Q"><use href="#Am"/><path d="M903.731 33.91h2.826v16.267h-2.826z"/></g><g class="W"><use href="#An"/><path d="M904.304 29.947h5.242v21.897h-5.242z"/></g><path d="M901.055 15.657v40.84c-2.345.647-6.314 1.515-10.761 1.515-4.703 0-8.49-.625-10.761-1.123V15.657h21.522m3.441-3.441h-28.403v47.329s5.674 1.907 14.202 1.907c7.843 0 14.202-2.434 14.202-2.434V12.216h0z" class="T"/><path d="M890.294 60.59V29.863" stroke="#fff" class="C h q"/><g opacity=".35" class="B T"><g clip-path="url(#h)"><path d="M887.256 61.388h-11.154l16.521-38.333h11.154l-16.521 38.333z"/></g></g><rect x="894.417" y="45.254" width=".992" height="2.431" rx=".496" stroke="#fff" stroke-width="1.72" class="C h"/><g class="B"><path d="M889.575-10.334c-20.136,0-36.459,10.749-36.459,24.01s16.323,24.01,36.459,24.01,36.459-10.75,36.459-24.01-16.323-24.01-36.459-24.01Z" style="mix-blend-mode:multiply" fill="#cbdcec"/><use href="#Ao" fill="#312d4d"/><path d="M889.575-20.339c-20.418,0-36.97,11.789-36.97,26.333s16.552,26.333,36.969,26.333,36.97-11.789,36.97-26.333-16.552-26.333-36.969-26.333Z" class="U"/></g><g clip-path="url(#i)"><g class="C J M e"><g class="r"><path style="mix-blend-mode:multiply" d="M904.553-38.934v91.497m-29.956-91.497v91.497" class="V"/></g><g class="f"><path style="mix-blend-mode:multiply" d="M846.368 6.046h87.566m-87.566 12.04h87.566" class="V"/></g></g><path style="mix-blend-mode:multiply" d="M932.003-12.011l-86.787 41.263 82.289 10.345 4.498-51.608z" opacity=".148" class="B U"/></g><path d="M870.326,110.581c-21.708,0-39.305,13.553-39.305,30.273s17.598,30.273,39.305,30.273,39.305-13.554,39.305-30.273-17.598-30.273-39.305-30.273Z" class="B U"/><g clip-path="url(#j)"><path d="M826.543 121.698h87.565v49.698h-87.565z" fill="#424181"/><g class="C J e f"><path style="mix-blend-mode:multiply" d="M826.543 129.693h87.565m-87.565 8.427h87.565m-87.565 8.428h87.565" class="V"/></g></g><g class="B"><path d="M870.326,108.458c-20.136,0-36.459,12.572-36.459,28.081s16.323,28.081,36.459,28.081,36.459-12.572,36.459-28.081-16.323-28.081-36.459-28.081Z" class="W"/><path d="M833.867,126.85c0,15.015,16.323,27.187,36.459,27.187s36.459-12.172,36.459-27.187-16.323-27.187-36.459-27.187-36.459,12.172-36.459,27.187Z" class="Q"/><path d="M837.556,127.235c0,11.902,14.671,21.55,32.771,21.55s32.771-9.648,32.771-21.55-14.672-21.55-32.771-21.55-32.771,9.648-32.771,21.55Z" class="H g"/></g><g clip-path="url(#k)" class="B Q"><path d="M833.867,136.708c0,15.416,16.323,27.913,36.46,27.913s36.46-12.497,36.46-27.912-16.323-27.913-36.46-27.913-36.46,12.497-36.46,27.912Z"/></g><g class="B"><path d="M858.864,121.986v40.595s5.454-2.844,12.181-2.844h0c6.727,0,12.181,2.844,12.181,2.844v-40.595h-24.362Z" class="H g"/><g class="Q"><path d="M841.301 140.139l-5.201-6.35v-19.458h5.201v25.808zm63.25-6.35l-5.201 6.35v-25.808h5.201v19.458z"/></g><g class="W"><path d="M836.962 138.745l-3.095-2.568v-29.624h3.095v32.192zm69.823-2.568l-3.096 2.568v-32.192h3.096v29.624z"/></g></g><g class="Q"><path d="M854.833 137.079h2.826v16.267h-2.826zm29.649 0h2.826v16.267h-2.826z"/></g><g class="W"><path d="M851.844 133.116h5.242v21.897h-5.242zm33.211 0h5.242v21.897h-5.242z"/></g><path d="M881.806 118.826v40.84c-2.345.647-6.314 1.515-10.761 1.515-4.703 0-8.49-.625-10.761-1.123v-41.231h21.522m3.441-3.442h-28.403v47.329s5.674 1.907 14.202 1.907c7.843 0 14.202-2.434 14.202-2.434v-46.803h0z" class="T"/><path d="M871.045 163.758v-30.726" stroke="#fff" class="C h q"/><g opacity=".35" class="B T"><g clip-path="url(#l)"><path d="M868.007 164.557h-11.154l16.521-38.333h11.153l-16.52 38.333z"/></g></g><g class="B"><path d="M870.326,92.834c-20.136,0-36.459,10.749-36.459,24.01s16.323,24.01,36.459,24.01,36.459-10.75,36.459-24.01-16.323-24.01-36.459-24.01Z" style="mix-blend-mode:multiply" fill="#cbdcec"/><path d="M870.326,86.037c-20.418,0-36.97,11.789-36.97,26.333s16.552,26.333,36.969,26.333,36.97-11.789,36.97-26.333-16.552-26.333-36.969-26.333Z" fill="#312d4d"/><path d="M870.326,82.829c-20.418,0-36.97,11.789-36.97,26.333s16.552,26.333,36.969,26.333,36.97-11.789,36.97-26.333-16.552-26.333-36.969-26.333Z" class="U"/></g><g clip-path="url(#m)"><g class="C J M e"><g class="r"><path style="mix-blend-mode:multiply" d="M885.304 64.235v91.497m-29.956-91.497v91.497" class="V"/></g><g class="f"><path style="mix-blend-mode:multiply" d="M827.119 109.215h87.566M827.119 98.38h87.566m-87.566-10.834h87.566m-87.566 33.709h87.566" class="V"/></g></g><path style="mix-blend-mode:multiply" d="M912.754 91.157l-86.787 41.264 82.289 10.345 4.498-51.609z" opacity=".148" class="B U"/></g><path d="M334.273-105.842l97.829-97.746c10.027-10.014 15.549-23.331 15.549-37.496v-16.205c0-29.236-23.806-53.021-53.066-53.021h-62.502a38.86 38.86 0 0 1-27.654-11.446l-26.386-26.362c-2.871-26.548-25.436-47.284-52.757-47.284h-9.701c-14.176 0-27.502 5.515-37.525 15.528l-74.212 74.153c-15.349 15.333-23.801 35.719-23.801 57.406v48.459c0 21.687 8.452 42.075 23.798 57.406l36.634 36.602c2.266 3.228 5.371 5.791 8.914 7.824 10.304 5.911 12.152 19.86 3.66 28.167l-.298.293-213.243 198.696 32.859 157.902H249.77c16.737 0 33.057-5.862 45.951-16.504 16.864-13.915 26.464-34.494 26.271-56.371-.352-39.812-33.483-71.575-73.296-71.575h-18.117c-1.647 0-3.202-.599-4.417-1.695l-.485-.551c-2.331-2.601-2.23-6.568.229-9.028l16.323-16.322a28.12 28.12 0 0 1 19.885-8.236h26.98a84.85 84.85 0 0 0 12.193-.88c4.391-.638 8.269 2.887 8.186 7.323l-.007.72c.002 21.638 18.082 38.951 39.72 38.951h13.628c21.287 0 39.548-17.404 39.689-38.691a38.73 38.73 0 0 0-3.44-16.263c-2.694-5.954 1.665-12.697 8.2-12.697h.005c20.954 0 38.64-17.14 38.947-38.092.321-21.912-11.607-31.781-22.878-36.217-5.747-2.262-7.441-9.676-3.282-14.243 6.531-7.172 10.426-16.783 10.133-27.291-.579-20.832-18.863-37.849-39.703-37.849h-14.366a38.73 38.73 0 0 0-22.601 7.246c-9.114 6.516-21.57 5.601-29.492-2.322l-5.63-5.63-.3-.299c-9.554-9.461-6.386-25.529 6.096-30.525 4.322-1.73 7.923-3.679 10.081-5.836z" class="m"/><rect x="381.312" y="38.129" width="36.779" height="21.647" rx="10.823" transform="matrix(-1 0 0 -1 799.404 97.904)" class="L"/><g class="n"><rect x="333.744" y="103.512" width="44.482" height="26.18" rx="13.09" transform="matrix(-1 0 0 -1 711.97 233.205)"/><path d="M328.869-16.239l-30.364-30.364a56.25 56.25 0 0 0-39.775-16.476h-38.518l-43.953 43.953a19.31 19.31 0 0 0-5.656 13.655V15.97c0 5.121 2.035 10.033 5.656 13.655l11.185 11.186c7.542 7.542 7.542 19.769 0 27.31l-77.846 77.846a19.31 19.31 0 0 0-5.655 13.655v26.017l3.961 49.773a18.46 18.46 0 0 0 1.695 1.97l15.481 15.481a19.31 19.31 0 0 0 13.655 5.656h28.9c5.122 0 10.033-2.035 13.655-5.656l8.639-8.639c7.542-7.541 19.769-7.541 27.31 0a19.31 19.31 0 0 0 13.655 5.656h39.165c2.701 0 5.336.58 7.761 1.645h0c9.801-8.088 16.048-20.328 16.048-34.027 0-24.353-19.742-44.096-44.096-44.096h-19.191a34.74 34.74 0 0 1-24.561-10.173h0c-.459-.459-.863-.95-1.291-1.428-12.218-13.637-11.814-34.585 1.289-47.691l16.322-16.321a56.25 56.25 0 0 1 39.776-16.476h26.98c14.919 0 29.227-5.927 39.776-16.476s16.476-24.857 16.476-39.776v-1.523c0-14.919-5.927-29.227-16.476-39.776z"/></g><path d="M270.056 249.879h-39.165a19.31 19.31 0 0 1-13.655-5.656c-7.542-7.541-19.769-7.541-27.31 0l-8.639 8.639a19.31 19.31 0 0 1-13.655 5.656h-28.9c-5.122 0-10.033-2.035-13.655-5.656l-15.481-15.481c-.618-.617-1.177-1.28-1.695-1.97l-3.961-49.773v-26.017a19.31 19.31 0 0 1 5.655-13.655l77.846-77.846c7.542-7.541 7.542-19.768 0-27.31l-11.185-11.186c-3.621-3.621-5.656-8.534-5.656-13.655v-21.44c0-5.122 2.035-10.033 5.656-13.655l43.953-43.953h-8.175a56.25 56.25 0 0 0-39.775 16.476L33.953 82.27-29.721 141.6l24.97 119.994h254.52a43.91 43.91 0 0 0 28.048-10.069c-2.425-1.065-5.061-1.645-7.761-1.645z" class="L"/><g class="C J M a b"><path d="M210.26-63.05c-14.274.451-27.869 6.318-37.999 16.448l-198.342 184.81" stroke-dasharray="0 9.952"/><path d="M268.047 249.879h-37.155a19.31 19.31 0 0 1-13.655-5.656c-7.542-7.542-19.769-7.542-27.31 0l-8.639 8.638c-3.621 3.622-8.533 5.656-13.655 5.656h-28.899c-5.122 0-10.033-2.035-13.655-5.656l-15.481-15.48c-.618-.617-1.177-1.28-1.695-1.97l-3.961-49.773v-26.017a19.31 19.31 0 0 1 5.655-13.654l77.846-77.846c7.542-7.542 7.542-19.768 0-27.31l-11.185-11.186c-3.621-3.621-5.656-8.534-5.656-13.655V-5.471a19.31 19.31 0 0 1 5.656-13.654l40.418-40.419" stroke-dasharray="0 9.997"/></g><g class="d"><use href="#Ap" class="H"/><path d="M149.988 61.28c1.3 0 2.355-1.052 2.355-2.353v-4.912c0-1.3-1.054-2.353-2.355-2.353s-2.355 1.052-2.355 2.353v4.912c0 1.3 1.054 2.353 2.355 2.353zm18.843 0c1.3 0 2.355-1.052 2.355-2.353v-4.912c0-1.3-1.054-2.353-2.355-2.353s-2.355 1.052-2.355 2.353v4.912c0 1.3 1.054 2.353 2.355 2.353zm-67.244 4.764c1.3 0 2.355-1.052 2.355-2.353v-7.366c0-1.3-1.054-2.353-2.355-2.353s-2.355 1.052-2.355 2.353v7.366c0 1.3 1.054 2.353 2.355 2.353zm-9.422 0c1.3 0 2.355-1.052 2.355-2.353v-4.912c0-1.3-1.054-2.353-2.355-2.353s-2.355 1.052-2.355 2.353v4.912c0 1.3 1.054 2.353 2.355 2.353zm18.843 0c1.3 0 2.355-1.052 2.355-2.353v-4.912c0-1.3-1.054-2.353-2.355-2.353s-2.355 1.052-2.355 2.353v4.912c0 1.3 1.054 2.353 2.355 2.353zm23.639-29.745c1.3 0 2.355-1.052 2.355-2.353V26.58c0-1.3-1.054-2.353-2.355-2.353s-2.355 1.052-2.355 2.353v7.366c0 1.3 1.054 2.353 2.355 2.353zm-9.421 0c1.3 0 2.355-1.052 2.355-2.353v-4.912c0-1.3-1.054-2.353-2.355-2.353s-2.355 1.052-2.355 2.353v4.912c0 1.3 1.054 2.353 2.355 2.353zm18.843 0c1.3 0 2.355-1.052 2.355-2.353v-4.912c0-1.3-1.054-2.353-2.355-2.353s-2.355 1.052-2.355 2.353v4.912c0 1.3 1.054 2.353 2.355 2.353z" class="H"/></g><path d="M80.787 110.532c.643 0 1.254-.283 1.669-.775a2.19 2.19 0 0 0 .487-1.775l-6.218-37.661c-.21-1.28-1.314-2.208-2.611-2.208h-8.805a2.65 2.65 0 0 0-2.6 2.145l-4.456 23.063-9.267 2.648-5.214 11.472c-.308.677-.25 1.463.152 2.088s1.095 1.003 1.838 1.003h35.025z" class="B N"/><g clip-path="url(#n)" class="B o"><path d="M80.951 63.472l-3.278 12.273a2.72 2.72 0 0 0-2.721-2.721h-2.121a2.72 2.72 0 0 1-2.721-2.721V41.905a2.72 2.72 0 0 0-2.721-2.721h-5.406a2.72 2.72 0 0 0-2.721 2.721v20.859a2.72 2.72 0 0 1-2.721 2.721h-.347a2.72 2.72 0 0 0-2.721 2.721h0a2.72 2.72 0 0 1-2.721 2.721h-4.451a2.72 2.72 0 0 0-2.721 2.721v.41a2.72 2.72 0 0 1-2.721 2.721h-2.807a2.72 2.72 0 0 0-2.721 2.721v30.073a2.72 2.72 0 0 0 2.721 2.721h2.807a2.72 2.72 0 0 0 2.721-2.721v-.41a2.72 2.72 0 0 1 2.721-2.721h5.406a2.72 2.72 0 0 0 2.721-2.721v-3.917a2.65 2.65 0 0 1 2.648-2.648h4.525a2.72 2.72 0 0 0 2.721-2.721V81.689a2.72 2.72 0 0 1 2.721-2.721h.34a2.72 2.72 0 0 1 2.721 2.721v3.65a2.72 2.72 0 0 0 2.721 2.721h4.529a2.72 2.72 0 0 1 2.721 2.721l2.498 10.927h5.629a2.72 2.72 0 0 0 2.721-2.721V68.914a2.72 2.72 0 0 0-2.721-2.721h-4.529a2.72 2.72 0 0 1-2.721-2.721z"/></g><path d="M59.36 105.54a2.65 2.65 0 0 1 2.648-2.648 2.65 2.65 0 0 1 2.648 2.648v4.992H59.36v-4.992z" class="B X"/><path d="M43.503 110.18h40.5" stroke-dasharray="0 10" class="J L M a b"/><rect x="74.354" y="103.433" width="51.949" height="33.277" rx="3.223" class="i"/><path d="M38.932 135.807h122.792a2.7 2.7 0 0 1 2.698 2.698v15.422a2.7 2.7 0 0 1-2.698 2.698H36.235v-18.119a2.7 2.7 0 0 1 2.698-2.698z" fill="#827ea1"/><g class="N"><path d="M161.724 158.619h-30.31c-1.574 0-3.108.501-4.378 1.43l-7.496 5.48a7.42 7.42 0 0 1-4.378 1.43h-76.23a2.7 2.7 0 0 1-2.698-2.698v-22.886a2.7 2.7 0 0 1 2.698-2.698h122.792a2.7 2.7 0 0 1 2.698 2.698v14.547a2.7 2.7 0 0 1-2.698 2.698zM31.393 177.117l-.108-1.209-1.08-12.107-.524-5.868-.266-3.073c0-.176-.019-.348-.054-.513l-3.847-43.121c-.125-1.4-1.298-2.474-2.704-2.474h-5.888a2.72 2.72 0 0 0-2.709 2.492l-1.15 13.799v.017H8.872c-.764 0-1.462.431-1.804 1.114l-1.893 3.786c-.083.166-.149.34-.198.519-.056.2-.091.406-.103.615L3.867 149.22l-.319 5.738h0l-7.406 2.117c-1.247.356-2.107 1.496-2.107 2.793v12.37 10.922c0 .339.084.678.267.964.319.499.864.79 1.439.79H8.707c.819 0 1.484-.664 1.484-1.484v-1.743c0-.819.664-1.484 1.484-1.484h16.897c1.664 0 2.969-1.427 2.822-3.084z"/></g><g clip-path="url(#o)" class="B"><path d="M36.221 112.836v-11.779a2.47 2.47 0 0 0-2.471-2.471h-.453a2.47 2.47 0 0 1-2.471-2.471v-8.391a2.47 2.47 0 0 0-2.471-2.471H26.38a2.47 2.47 0 0 1-2.471-2.471V77.46a2.47 2.47 0 0 0-2.471-2.471h-6.195a2.47 2.47 0 0 0-2.471 2.471v27.298a2.4 2.4 0 0 1-2.397 2.398h-.062c-1.377 0-2.483-1.096-2.483-2.461v-8.103c0-1.365-1.106-2.46-2.471-2.46H-.835a2.47 2.47 0 0 0-2.471 2.471v6.027a2.47 2.47 0 0 1-2.471 2.471H-7.03a2.47 2.47 0 0 0-2.471 2.471v62.193a2.47 2.47 0 0 0 2.471 2.471h2.571a2.47 2.47 0 0 0 2.471-2.471v-6.027a2.47 2.47 0 0 1 2.471-2.471h6.415a5.44 5.44 0 0 0 5.436-5.436v-12.405a2.47 2.47 0 0 1 2.471-2.471h1.399a2.47 2.47 0 0 0 2.471-2.471v-6.048a2.47 2.47 0 0 1 2.471-2.471h-.067a2.47 2.47 0 0 1 2.471 2.471v17.481a2.47 2.47 0 0 0 2.471 2.471h.923a2.47 2.47 0 0 1 2.471 2.471l1.265 8.391c0 1.365.567 2.471 1.931 2.471h1.903a2.47 2.47 0 0 1 2.471 2.471v11.778a2.47 2.47 0 0 0 2.471 2.471h1.138a2.47 2.47 0 0 0 2.471-2.471v-62.193a2.47 2.47 0 0 0-2.471-2.471h-1.903a2.47 2.47 0 0 1-2.471-2.471z" class="c"/><path d="M13.394 130.478a2.72 2.72 0 0 0 2.718-2.718 2.72 2.72 0 0 0-2.718-2.718H.483v5.436h12.911z" class="o"/></g><g class="B"><path d="M36.549 136.678c.46-.823 1.313-1.306 2.217-1.306h45.26 0 77.863c.904 0 1.757.483 2.217 1.307.215.385.315.824.315 1.265v5.168c0-1.398-1.126-2.532-2.524-2.532h-21.635c-.627 0-1.141.513-1.141 1.141v3.214c0 .994-.764 1.849-1.757 1.896-1.06.05-1.935-.795-1.935-1.844v-3.954c0-.7-.564-1.268-1.264-1.268h-23.197a1.27 1.27 0 0 0-1.271 1.274v.282a1.92 1.92 0 0 1-1.918 1.918H83.09c-.881 0-1.596-.715-1.596-1.596h0c0-.881-.715-1.596-1.596-1.596H58.033c-1.316 0-2.383 1.067-2.383 2.383v.588c0 .699-.567 1.266-1.266 1.266l-15.618.016a2.53 2.53 0 0 0-1.79.742c-.475.475-.742 1.119-.742 1.791v-8.89c0-.441.099-.88.315-1.264z" class="c"/><use href="#Aq" class="X"/><path d="M41.605 133.616v-5.883a1.88 1.88 0 0 1 1.881-1.881h18.812a1.88 1.88 0 0 1 1.881 1.881v5.883a2.11 2.11 0 0 1-2.112 2.112H43.718a2.11 2.11 0 0 1-2.112-2.112z" class="N"/></g><g clip-path="url(#p)" class="B X"><path d="M53.614,132.269c0-.803.652-1.455,1.455-1.455s1.455.651,1.455,1.455v4.369h-2.91v-4.369Z"/></g><path d="M44.381 134.785a1.41 1.41 0 0 1 1.409-1.409h.004a1.41 1.41 0 0 1 1.409 1.409v.943h-2.822s0 .126 0-.943z" class="B X"/><path d="M63.71 126.321c-.301-.3-.708-.469-1.133-.469h-8.374a1.35 1.35 0 0 1-1.35-1.35h0a1.35 1.35 0 0 0-1.35-1.35h-3.248a1.35 1.35 0 0 0-1.35 1.35h0a1.35 1.35 0 0 1-1.35 1.35h-2.347c-.425 0-.832.169-1.133.469a1.6 1.6 0 0 0-.469 1.133v5.816a1.6 1.6 0 0 1 .469-1.133c.301-.3.708-.469 1.133-.469l6.173-.01a.8.8 0 0 0 .801-.801v-1.14c0-.662.533-1.198 1.194-1.198h5.809c.665 0 1.203.539 1.203 1.205v.725a1.21 1.21 0 0 0 1.209 1.209h.192a1.21 1.21 0 0 0 1.209-1.209v-.72a1.21 1.21 0 0 1 1.209-1.209h.375c.885 0 1.597.717 1.597 1.602v-2.667c0-.425-.169-.832-.469-1.133z" class="c"/><rect x="82.307" y="106.549" width="36.048" height="25.081" rx="4.68" class="H N"/><g fill="#8682a4"><use href="#Ar"/><path d="M102.175 108.836h13.056a.78.78 0 0 1 .778.778v13.947c0 2.229-1.81 4.04-4.04 4.04h-6.532c-2.229 0-4.04-1.81-4.04-4.04v-13.947a.78.78 0 0 1 .778-.778z"/></g><g fill="#8f8ca9"><path d="M88.932 111.908h8.929c.03 0 .055.024.055.055v10.84a3.32 3.32 0 0 1-3.317 3.317h-6.676a3.32 3.32 0 0 1-3.317-3.317v-6.57a4.33 4.33 0 0 1 4.325-4.325zm18.139 0h4.638a4.33 4.33 0 0 1 4.325 4.325v6.57a3.32 3.32 0 0 1-3.317 3.317h-6.656a3.32 3.32 0 0 1-3.317-3.317v-6.57a4.33 4.33 0 0 1 4.325-4.325z"/></g><rect x="70.255" y="103.433" width="14.398" height="33.277" rx="6.745" fill="#8f8ca2"/><g class="j"><rect x="71.603" y="108.134" width="14.398" height="33.277" rx="6.745" style="mix-blend-mode:multiply" opacity=".15"/><rect x="114.593" y="108.134" width="14.398" height="33.277" rx="6.745" style="mix-blend-mode:multiply" opacity=".15"/></g><rect x="70.255" y="107.649" width="14.398" height="33.277" rx="6.745" class="X"/><use href="#As" class="k"/><use href="#At" class="N"/><rect x="116.003" y="103.433" width="14.398" height="33.277" rx="6.745" fill="#8f8ca2"/><rect x="116.003" y="107.649" width="14.398" height="33.277" rx="6.745" class="X"/><path d="M123.117 137.463h.17a7.31 7.31 0 0 1-7.284-7.284v-16.621c0-3.71 3.035-6.745 6.745-6.745h.909c3.71 0 6.745 3.035 6.745 6.745v16.621a7.31 7.31 0 0 1-7.284 7.284z" class="k"/><path d="M130.401 123.421a7.33 7.33 0 0 1-7.307 7.307h.216a7.33 7.33 0 0 1-7.307-7.307v7.298c0 3.725 3.02 6.745 6.745 6.745h.909c3.725 0 6.745-3.02 6.745-6.745v-7.298z" class="N"/><path d="M103.204,131.63h-5.746.83c.436,0,.851-.188,1.139-.516l.904-1.03.904,1.03c.288.328.703.516,1.139.516h.83Z" class="i"/><rect x="85.059" y="99.518" width="30.545" height="17.232" rx="7.149" style="mix-blend-mode:multiply" opacity=".15" class="j"/><rect x="90.642" y="78.393" width="19.378" height="10.93" rx="4.455" class="k"/><g clip-path="url(#q)" class="N"><rect x="90.642" y="79.693" width="19.378" height="10.285" rx="4.455"/></g><path d="M105.487 88.401H95.184a4.55 4.55 0 0 1-4.533-4.533v1.052c0 2.421 1.981 4.402 4.402 4.402h10.564c2.421 0 4.402-1.981 4.402-4.402v-1.052a4.55 4.55 0 0 1-4.533 4.533z" fill="#6b667d"/><path d="M103.098,78.393h-.869c-1.262,0-2.284,1.023-2.284,2.284h0c0,.645-.523,1.168-1.168,1.168s-6.123-.003-6.593-.003c-.409,0-.801.162-1.09.452s-.451.681-.451,1.09v-.944c0-2.235,1.812-4.047,4.047-4.047h8.409Z" fill="#4ba586" class="B"/><rect x="84.003" y="82.54" width="32.656" height="18.419" rx="7.507" class="k"/><g clip-path="url(#r)" class="N"><rect x="84.003" y="83.645" width="32.656" height="18.419" rx="7.507"/></g><path d="M109.019 99.407H91.657c-4.202 0-7.639-3.438-7.639-7.639v1.773c0 4.08 3.339 7.419 7.419 7.419h17.803c4.08 0 7.419-3.339 7.419-7.419v-1.773c0 4.202-3.438 7.639-7.639 7.639z" fill="#6b667d"/><rect x="87.174" y="85.824" width="26.313" height="11.851" rx="4.978" class="O"/><g clip-path="url(#s)" class="Y"><rect x="87.174" y="87.063" width="26.313" height="11.851" rx="4.978"/></g><rect x="85.059" y="97.67" width="30.545" height="17.232" rx="7.149" class="j"/><g clip-path="url(#t)" class="Y"><rect x="85.059" y="96.217" width="30.545" height="17.232" rx="7.149"/></g><g stroke="#787387" class="C J M l"><path d="M97.564 93.905h5.534m-5.534-1.389h5.534m-10.503-4.289h15.472"/></g><rect x="90.643" y="101.574" width="19.375" height="9.472" rx="2.227" class="i"/><g clip-path="url(#u)"><g class="Y"><rect x="97.192" y="101.744" width="2.868" height="3.605" rx=".78"/><rect x="100.601" y="101.744" width="2.868" height="3.605" rx=".78"/><path d="M92.597 107.793l-.476-.478a5.68 5.68 0 0 1-1.586-3.122l-.159-1.007c0-.429.351-.78.78-.78h2.088l-.186.809c-.206.895-.252 1.82-.135 2.731l.204 1.587c.038.296-.32.471-.531.26zm15.467 0l.476-.478a5.68 5.68 0 0 0 1.586-3.122l.159-1.007c0-.429-.351-.78-.78-.78h-2.088l.186.809c.206.895.252 1.82.135 2.731l-.204 1.587c-.038.296.32.471.531.26zm-2.73-3.055l-.711.372c-.208.109-.457-.042-.457-.277v-3.09h2.868l-.472 1.521c-.197.635-.639 1.165-1.228 1.473zm-10.006 0l.711.372c.208.109.457-.042.457-.277v-3.09h-2.868l.472 1.521c.197.635.639 1.165 1.228 1.473z"/></g><g clip-path="url(#v)" class="O"><rect x="107.033" y="101.361" width="3.637" height="2.381" rx=".78" style="mix-blend-mode:multiply" class="K"/></g><g clip-path="url(#w)" class="O"><rect x="103.624" y="101.361" width="3.637" height="2.381" rx=".78" style="mix-blend-mode:multiply" class="K"/></g><g clip-path="url(#x)" class="O"><rect x="100.219" y="101.361" width="3.637" height="2.381" rx=".78" style="mix-blend-mode:multiply" class="K"/></g><g clip-path="url(#y)" class="O"><rect x="96.81" y="101.361" width="3.637" height="2.381" rx=".78" style="mix-blend-mode:multiply" class="K"/></g><g clip-path="url(#z)" class="O"><rect x="93.401" y="101.361" width="3.637" height="2.381" rx=".78" style="mix-blend-mode:multiply" class="K"/></g><g clip-path="url(#AA)" class="O"><rect x="89.992" y="101.361" width="3.637" height="2.381" rx=".78" style="mix-blend-mode:multiply" class="K"/></g><g fill="#86829b"><rect x="89.992" y="100.683" width="3.637" height="2.381" rx=".78"/><rect x="93.401" y="100.683" width="3.637" height="2.381" rx=".78"/><rect x="96.81" y="100.683" width="3.637" height="2.381" rx=".78"/><rect x="100.219" y="100.683" width="3.637" height="2.381" rx=".78"/><rect x="103.624" y="100.683" width="3.637" height="2.381" rx=".78"/><rect x="107.033" y="100.683" width="3.637" height="2.381" rx=".78"/></g><g class="O"><rect x="100.533" y="108.223" width="2.146" height="2.697" rx=".584" transform="matrix(-1 0 0 -1 203.212 219.143)"/><rect x="103.082" y="108.223" width="2.146" height="2.697" rx=".584" transform="matrix(-1 0 0 -1 208.309 219.143)"/><rect x="97.983" y="108.223" width="2.146" height="2.697" rx=".584" transform="matrix(-1 0 0 -1 198.112 219.143)"/><rect x="95.434" y="108.223" width="2.146" height="2.697" rx=".584" transform="matrix(-1 0 0 -1 193.015 219.143)"/></g><g class="Y"><rect x="100.533" y="108.794" width="2.146" height="2.697" rx=".584" transform="matrix(-1 0 0 -1 203.212 220.285)"/><rect x="103.082" y="108.794" width="2.146" height="2.697" rx=".584" transform="matrix(-1 0 0 -1 208.309 220.285)"/><rect x="97.983" y="108.794" width="2.146" height="2.697" rx=".584" transform="matrix(-1 0 0 -1 198.112 220.285)"/><rect x="95.434" y="108.794" width="2.146" height="2.697" rx=".584" transform="matrix(-1 0 0 -1 193.015 220.285)"/><path d="M106.116 106.891l.356.357a4.24 4.24 0 0 1 1.186 2.335l.119.753c0 .321-.263.584-.584.584h-1.562l.139-.605c.154-.67.188-1.361.101-2.043l-.153-1.187c-.028-.221.24-.353.397-.195zm-11.57 0l-.356.357a4.24 4.24 0 0 0-1.186 2.335l-.119.753c0 .321.263.584.584.584h1.562l-.139-.605c-.154-.67-.188-1.361-.101-2.043l.153-1.187c.028-.221-.24-.353-.397-.195z"/></g><g fill="#86829b"><rect x="105.344" y="109.933" width="2.72" height="1.781" rx=".584" transform="matrix(-1 0 0 -1 213.409 221.646)"/><rect x="102.794" y="109.933" width="2.72" height="1.781" rx=".584" transform="matrix(-1 0 0 -1 208.309 221.646)"/><rect x="100.244" y="109.933" width="2.72" height="1.781" rx=".584" transform="matrix(-1 0 0 -1 203.209 221.646)"/><rect x="97.694" y="109.933" width="2.72" height="1.781" rx=".584" transform="matrix(-1 0 0 -1 198.109 221.646)"/><rect x="95.147" y="109.933" width="2.72" height="1.781" rx=".584" transform="matrix(-1 0 0 -1 193.015 221.646)"/><rect x="92.597" y="109.933" width="2.72" height="1.781" rx=".584" transform="matrix(-1 0 0 -1 187.915 221.646)"/></g></g><g stroke="#787387" class="C"><rect x="90.643" y="101.574" width="19.375" height="9.472" rx="2.227" stroke-width=".674" class="h"/><path d="M96.882 112.313h6.898" class="J M l"/></g><path d="M92.207 98.988h16.247c3.932 0 7.149 3.217 7.149 7.149v-1.524c0-3.818-3.124-6.943-6.943-6.943H92c-3.818 0-6.943 3.124-6.943 6.943v1.524c0-3.932 3.217-7.149 7.149-7.149z" class="O"/><g class="Y"><circle cx="96.596" cy="97.962" r="2.936"/><circle cx="104.065" cy="97.962" r="2.936"/><path d="M94.52 100.038c-1.147-1.147-1.147-3.006 0-4.152s3.006-1.147 4.152 0h3.317c1.147-1.147 3.006-1.147 4.152 0s1.147 3.006 0 4.152" stroke="#86829b" class="J M l"/></g><g class="N"><circle cx="96.596" cy="97.962" r="1.147"/><circle cx="104.065" cy="97.962" r="1.147"/></g><g class="j"><circle cx="92.422" cy="92.633" r="2.66"/><circle cx="108.24" cy="92.633" r="2.66"/></g><g class="N"><circle cx="92.422" cy="91.983" r="2.66"/><circle cx="108.24" cy="91.983" r="2.66"/></g><g class="i"><circle cx="92.422" cy="91.983" r="1.14"/><circle cx="108.24" cy="91.983" r="1.14"/></g><path d="M99.027 99.518h2.56" stroke="#86829b" class="C J M l"/><path d="M42.532 157.436c0 5.479-2.178 10.736-6.057 14.611a20.69 20.69 0 0 1-14.626 6.052H1.047v-13.66c0-5.482 2.178-10.738 6.057-14.614s9.14-6.052 14.626-6.052h20.802v13.663z" class="B I"/><g clip-path="url(#AB)"><path d="M42.532 143.773l-46.295 39.569h46.295v-39.569z" class="B D"/><path d="M-.579 175.613l41.463-33.863 3.278 4.014-41.463 33.863z" class="F"/></g><path d="M42.532 157.436c0 5.479 2.178 10.736 6.057 14.611a20.69 20.69 0 0 0 14.626 6.052h20.802v-13.66c0-5.482-2.178-10.738-6.057-14.614s-9.14-6.052-14.626-6.052H42.532v13.663z" class="B I"/><g clip-path="url(#AC)"><path d="M42.532 143.773l46.295 39.569H42.532v-39.569z" class="B D"/><path d="M40.895 145.78l3.275-4.016 41.486 33.834-3.275 4.016z" class="F"/></g><path d="M42.521 178.099l12.425-9.047c6.863-4.997 7.639-14.937 1.634-20.936l-4.346-4.343H32.809l-4.346 4.343c-6.005 6-5.229 15.939 1.634 20.936l12.425 9.047z" class="B F"/><g clip-path="url(#AD)"><path d="M42.521 179.375H22.918V142.2h19.603z" class="D"/><path d="M39.938 140.031h5.186v45.186h-5.186z" class="P"/></g><g class="B Z"><path d="M539.762 46.461c-1.163-1.162-2.74-1.815-4.385-1.815h-12.52c-.975 0-1.909.387-2.599 1.076l-1.619 1.617 1.619 1.617c.689.689 1.624 1.076 2.599 1.076h12.628c1.645 0 3.222-.653 4.385-1.815l.825-.824-.933-.932z"/><use href="#Au"/><path d="M523.244 57.411h-12.52a3.68 3.68 0 0 0-2.599 1.075l-1.618 1.617 1.618 1.617c.689.689 1.624 1.076 2.599 1.076h12.628c1.645 0 3.222-.653 4.385-1.815l.825-.824-.933-.932c-1.163-1.162-2.74-1.815-4.385-1.815z"/><path d="M502.096 63.629l4.411-3.526-4.411-3.526a6.65 6.65 0 0 1 0 7.052z"/><use href="#Av"/><use href="#Av"/></g><g clip-path="url(#AE)" class="Z"><circle cx="431.855" cy="122.631" r="2.173"/><circle cx="438.279" cy="129.146" r="1.629"/><circle cx="437.086" cy="120.179" r="1.086"/><circle cx="433.389" cy="116.913" r="1.706"/><circle cx="446.974" cy="116.659" r="1.086"/><circle cx="444.257" cy="115.573" r="1.086"/><circle cx="441.54" cy="117.745" r="1.086"/><circle cx="438.279" cy="116.659" r="1.086"/><circle cx="436.649" cy="124.803" r="1.901"/><circle cx="432.845" cy="127.517" r="1.629"/><circle cx="440.453" cy="122.631" r="1.629"/><path d="M422.575 120.472h5.325v4.343h-5.325z"/></g><g class="B Z"><path d="M444.273 119.612c.058-.155-.007-.329-.152-.408s-.326-.04-.425.092l-2.513 3.348 2.513 3.348c.099.132.28.171.425.092s.21-.253.152-.408l-.571-1.521c-.366-.974-.366-2.047 0-3.021l.571-1.521zm-12.418 1.948c.598 0 1.085.486 1.085 1.084s-.486 1.084-1.085 1.084-1.085-.486-1.085-1.084.486-1.084 1.085-1.084z"/><path d="M431.855,121.56c-.599,0-1.085.485-1.085,1.084s.485,1.084,1.085,1.084v-2.167Z"/></g></g></svg>