<svg xmlns="http://www.w3.org/2000/svg" width="1500" height="145" xmlns:v="https://vecta.io/nano"><style><![CDATA[.B{fill-rule:evenodd}.C{fill:none}.D{fill:#408f43}.E{clip-rule:evenodd}.F{fill:#59c1bf}.G{fill:#51b133}.H{fill:#357963}.I{fill:#50b06d}.J{fill:#4aa22e}.K{stroke-linecap:round}.L{stroke-linejoin:round}.M{stroke:#50b06d}.N{fill:#dc5b8b}.O{fill:#74dddc}.P{fill:#fcf4c7}.Q{stroke-width:10}.R{fill:#5ebe3e}.S{fill:#b38150}.T{fill:#6a6863}.U{stroke-width:1.879}]]></style><defs><clipPath id="A"><path d="M0 0h1500v145H0z" class="C"/></clipPath><clipPath id="B"><path d="M1199.288 53.371l6.714-6.959c.139-.147.359-.181.536-.085s.267.301.217.497l-1.954 7.793c-.136.542-.136 1.108 0 1.65l1.954 7.793c.049.196-.04.4-.217.497s-.397.062-.536-.085l-6.714-7.28-.386-1.879.386-1.943z" class="E F"/></clipPath><clipPath id="C"><path d="M1169.003 84.146l6.714-6.959c.139-.147.359-.181.536-.085s.267.301.217.497l-1.954 7.793c-.136.542-.136 1.108 0 1.65l1.954 7.793c.049.196-.04.4-.217.497s-.397.062-.536-.085l-6.714-7.28-.386-1.879.386-1.943z" class="E F"/></clipPath><clipPath id="D"><path d="M1258.705 152.333a20.24 20.24 0 0 0 5.935 14.318c3.801 3.798 8.956 5.93 14.333 5.93h20.385v-13.386c0-5.372-2.134-10.523-5.935-14.321a20.29 20.29 0 0 0-14.333-5.93h-20.385v13.389z" class="C E"/></clipPath><clipPath id="E"><path d="M1258.705 152.333a20.24 20.24 0 0 1-5.935 14.318c-3.801 3.798-8.956 5.93-14.333 5.93h-20.385v-13.386c0-5.372 2.134-10.523 5.935-14.321a20.29 20.29 0 0 1 14.333-5.93h20.385v13.389z" class="C E"/></clipPath><clipPath id="F"><path d="M1258.716 172.581l-12.176-8.866c-6.725-4.897-7.485-14.637-1.601-20.516l4.259-4.256h19.035l4.259 4.256c5.884 5.879 5.124 15.619-1.601 20.516l-12.176 8.866z" class="C E"/></clipPath><clipPath id="G"><path d="M1368.823 125.277h-14.894l-4.036 36.831a3.45 3.45 0 0 0 3.431 3.824h16.177a3.45 3.45 0 0 0 3.431-3.831l-4.109-36.825z" class="C"/></clipPath><clipPath id="H"><path d="M1361.412 124.106a20.24 20.24 0 0 0 5.935 14.318c3.801 3.798 8.956 5.93 14.333 5.93h20.385v-13.386c0-5.372-2.134-10.523-5.935-14.321a20.29 20.29 0 0 0-14.333-5.93h-20.385v13.389z" class="C E"/></clipPath><clipPath id="I"><path d="M1361.412 124.106a20.24 20.24 0 0 1-5.935 14.318c-3.801 3.798-8.956 5.93-14.333 5.93h-20.385v-13.386c0-5.372 2.134-10.523 5.935-14.321a20.29 20.29 0 0 1 14.333-5.93h20.385v13.389z" class="C E"/></clipPath><clipPath id="J"><path d="M1361.423 144.355l-12.176-8.866c-6.725-4.897-7.485-14.637-1.601-20.516l4.259-4.256h19.035l4.259 4.256c5.884 5.879 5.124 15.619-1.601 20.516l-12.176 8.866z" class="C E"/></clipPath><clipPath id="K"><path d="M1317.502 299.207a2.99 2.99 0 0 1-2.204-.97 2.98 2.98 0 0 1-.771-2.279l11.225-125.706c.219-2.453 2.275-4.319 4.74-4.319h10.307a4.76 4.76 0 0 1 4.744 4.361l2.016 24.176h7.331c1.342 0 2.566.752 3.166 1.951l3.315 6.624c.309.618.489 1.293.527 1.984l2.322 41.76 12.971 3.703c2.186.624 3.69 2.62 3.69 4.891v40.839c0 .791-.315 1.551-.875 2.11s-1.32.874-2.112.874h-60.393z" class="C E"/></clipPath><clipPath id="L"><path d="M1322.354 44.801h-14.894l-4.036 36.831a3.45 3.45 0 0 0 3.431 3.824h16.177a3.45 3.45 0 0 0 3.431-3.831l-4.109-36.825z" class="C"/></clipPath><clipPath id="M"><path d="M1314.944 43.63a20.24 20.24 0 0 0 5.935 14.318c3.801 3.798 8.956 5.93 14.333 5.93h20.385V50.492c0-5.372-2.134-10.523-5.935-14.321a20.29 20.29 0 0 0-14.333-5.93h-20.385V43.63z" class="C E"/></clipPath><clipPath id="N"><path d="M1314.944 43.63a20.24 20.24 0 0 1-5.935 14.318c-3.801 3.798-8.956 5.93-14.333 5.93h-20.385V50.492c0-5.372 2.134-10.523 5.935-14.321a20.29 20.29 0 0 1 14.333-5.93h20.385V43.63z" class="C E"/></clipPath><clipPath id="O"><path d="M1314.955 63.879l-12.176-8.866c-6.725-4.897-7.485-14.637-1.601-20.516l4.259-4.256h19.035l4.259 4.256c5.884 5.879 5.124 15.619-1.601 20.516l-12.176 8.866z" class="C E"/></clipPath><clipPath id="P"><path d="M588.788-6.728a4.03 4.03 0 0 1-3.334-1.768 4.02 4.02 0 0 1-.405-3.751l12.177-30.417c.741-1.85 2.53-3.052 4.524-3.052h17.407c2.178 0 4.092 1.442 4.69 3.535l3.867 13.523 14.904 4.255a4.86 4.86 0 0 1 3.097 2.661l8.677 19.072c.566 1.246.461 2.694-.28 3.844a4.03 4.03 0 0 1-3.387 1.846h-29.707c-1.958 0-3.836-.777-5.222-2.16l-5.429-5.426a7.39 7.39 0 0 0-5.222-2.16h-16.357z" class="C E"/></clipPath><clipPath id="Q"><path d="M889.575,124.661c-20.418,0-36.97,11.789-36.97,26.333s16.552,26.333,36.969,26.333,36.97-11.789,36.97-26.333-16.552-26.333-36.969-26.333Z" class="C E"/></clipPath><clipPath id="R"><path d="M146.686 101.212H158.2l3.12 28.471c.173 1.578-1.064 2.956-2.653 2.956h-12.505a2.67 2.67 0 0 1-2.652-2.962l3.176-28.466z" class="C"/></clipPath><clipPath id="S"><path d="M152.415 100.307c0 4.151-1.65 8.132-4.588 11.068a15.67 15.67 0 0 1-11.08 4.584h-15.758v-10.348a15.65 15.65 0 0 1 4.588-11.07 15.68 15.68 0 0 1 11.08-4.584h15.758v10.35z" class="C E"/></clipPath><clipPath id="T"><path d="M152.415 100.307c0 4.151 1.65 8.132 4.588 11.068a15.67 15.67 0 0 0 11.08 4.584h15.758v-10.348a15.65 15.65 0 0 0-4.588-11.07 15.68 15.68 0 0 0-11.08-4.584h-15.758v10.35z" class="C E"/></clipPath><clipPath id="U"><path d="M152.406 115.96l9.412-6.853c5.199-3.785 5.786-11.315 1.238-15.859l-3.292-3.29h-14.715l-3.292 3.29c-4.549 4.545-3.961 12.074 1.238 15.859l9.412 6.853z" class="C E"/></clipPath><path id="V" d="M1171.702 58.467l.638 5.565-6.965 5.522a.42.42 0 0 1-.447.049c-.146-.071-.239-.218-.239-.38v-3.095a1.55 1.55 0 0 1 .452-1.092l6.561-6.568z"/><path id="W" d="M1170.117 52.322a2.58 2.58 0 0 1-2.33-2.567v-4.107c0-.125-.081-.236-.2-.274s-.249.004-.322.106l-4.773 6.614 7.625.228z"/><path id="X" d="M1191.123 58.66l1.99 2.779c.107.149.298.212.473.156s.294-.219.294-.402v-1.152a1.63 1.63 0 0 1 1.213-1.574h0l-3.97.192z"/><path id="Y" d="M1191.123 53.261l1.99-2.779c.107-.149.298-.212.473-.156s.294.219.294.402v1.322c0 .321.128.63.355.857s.536.355.858.355h-3.97z"/><path id="Z" d="M1200.882 57.202l-50.172-1.283v1.268c0 .831.331 1.628.92 2.215l.514.513c4.698 4.686 11.511 6.57 17.952 4.964l30.787-7.676z"/><path id="a" d="M1200.882 53.371l-27.702-1.247a26.69 26.69 0 0 0-1.2-.027h-24.425c-.549 0-1.043.328-1.253.831s-.093 1.082.295 1.466c1.81 1.792 4.262 2.799 6.819 2.799h47.465v-3.822z"/><path id="b" d="M1156.885 53.74a.37.37 0 0 0-.369-.369h-4.512a.37.37 0 0 0-.369.369v.537a.37.37 0 0 0 .369.369h4.512a.37.37 0 0 0 .369-.369v-.537z"/><path id="c" d="M1163.891 56.412a.48.48 0 0 1-.478-.478v-2.085a.48.48 0 0 1 .478-.478.48.48 0 0 1 .478.478v2.085a.48.48 0 0 1-.478.478z"/><path id="d" d="M1152.943 53.371h2.451a.37.37 0 0 1 .369.369v.855a.37.37 0 0 1-.368.368h-2.451a.37.37 0 0 1-.369-.369v-.855a.37.37 0 0 1 .368-.368z"/><path id="e" d="M1199.288 53.371l6.714-6.959c.139-.147.359-.181.536-.085s.267.301.217.497l-1.954 7.793c-.136.542-.136 1.108 0 1.65l1.954 7.793c.049.196-.04.4-.217.497s-.397.062-.536-.085l-6.714-7.28-.386-1.879.386-1.943z"/><path id="f" d="M1157.785 57.963l-.643-.77h1.286l-.643.77z"/><path id="g" d="M1156.499 57.963l-.644-.77h1.287l-.643.77z"/><path id="h" d="M1154.806 53.371h-1.275v1.221a.37.37 0 0 0 .371.371h.532a.37.37 0 0 0 .371-.371v-1.221z"/><path id="i" d="M1172.977 58.467l-.638 5.565 6.965 5.522a.42.42 0 0 0 .447.049c.146-.071.239-.218.239-.38v-3.095a1.55 1.55 0 0 0-.452-1.092l-6.561-6.568z"/><path id="j" d="M1127.5 88.738l-.643-.77h1.287l-.644.77z"/><path id="k" d="M1258.705 152.333a20.24 20.24 0 0 0 5.935 14.318c3.801 3.798 8.956 5.93 14.333 5.93h20.385v-13.386c0-5.372-2.134-10.523-5.935-14.321a20.29 20.29 0 0 0-14.333-5.93h-20.385v13.389z"/><path id="l" d="M1257.117 140.905l3.212-3.933 40.631 33.184-3.212 3.933z"/><path id="m" d="M1258.705 152.333a20.24 20.24 0 0 1-5.935 14.318c-3.801 3.798-8.956 5.93-14.333 5.93h-20.385v-13.386c0-5.372 2.134-10.523 5.935-14.321a20.29 20.29 0 0 1 14.333-5.93h20.385v13.389z"/><path id="n" d="M1216.449 170.138l40.654-33.156 3.209 3.935-40.654 33.156z"/><path id="o" d="M1218.052 148.464v-5.077h15.245c.673 0 1.321.269 1.796.744s.744 1.122.744 1.795-.267 1.32-.744 1.795-1.123.744-1.796.744h-15.245z"/><path id="p" d="M1258.716 172.581l-12.176-8.866c-6.725-4.897-7.485-14.637-1.601-20.516l4.259-4.256h19.035l4.259 4.256c5.884 5.879 5.124 15.619-1.601 20.516l-12.176 8.866z"/><path id="q" d="M1368.823 125.277h-14.894l-4.036 36.831a3.45 3.45 0 0 0 3.431 3.824h16.177a3.45 3.45 0 0 0 3.431-3.831l-4.109-36.825z"/><path id="r" d="M1385.126 146.548h-5.082v-8.54a2.54 2.54 0 1 1 5.082 0v8.54z"/><path id="s" d="M1402.065 130.123v-4.808h-7.757c-.638 0-1.25.254-1.702.706a2.4 2.4 0 0 0-.704 1.698h0a2.41 2.41 0 0 0 .704 1.701c.452.452 1.065.703 1.702.703h7.757z"/><path id="t" d="M1337.698 146.548h5.082v-8.54a2.54 2.54 0 1 0-5.082 0v8.54z"/><path id="u" d="M1320.759 130.392v-5.077h7.625a2.53 2.53 0 0 1 1.794.744c.478.475.744 1.12.744 1.792v.005c0 .673-.267 1.318-.744 1.795s-1.12.741-1.794.741h-7.625z"/><path id="v" d="M1343.396 129.265a2.54 2.54 0 0 1-2.127-1.145c-.771-1.173-.443-2.747.731-3.515l10.329-6.77a2.54 2.54 0 0 1 3.517.729c.771 1.173.443 2.747-.731 3.515l-10.329 6.77a2.52 2.52 0 0 1-1.39.416z"/><path id="w" d="M1379.427 129.265a2.53 2.53 0 0 1-1.39-.416l-10.325-6.77c-1.174-.769-1.502-2.342-.731-3.515s2.332-1.504 3.517-.729l10.325 6.77c1.174.769 1.502 2.342.731 3.515a2.54 2.54 0 0 1-2.127 1.145z"/><path id="x" d="M1328.658 76.572a4.98 4.98 0 0 0-4.965 4.96 4.98 4.98 0 0 0-4.965-4.96 4.98 4.98 0 0 0-4.965 4.96 4.98 4.98 0 0 0-4.965-4.96 4.98 4.98 0 0 0-4.965 4.96 4.98 4.98 0 0 0-4.965-4.96 4.98 4.98 0 0 0-4.965 4.96l4.488 3.924 11.545 1.237 16.547-.818 7.138-4.344a4.98 4.98 0 0 0-4.965-4.96z"/><path id="y" d="M1303.368 100.694c-.66-.66-1.732-.66-2.393 0a1.69 1.69 0 0 0 0 2.391l4.787 4.783c.661.659 1.732.659 2.393 0a1.69 1.69 0 0 0 0-2.392l-4.787-4.782z"/><path id="z" d="M1308.155 103.085a1.69 1.69 0 0 0 0-2.391c-.661-.66-1.732-.66-2.393 0l-4.787 4.782a1.69 1.69 0 0 0 0 2.392c.661.659 1.733.659 2.393 0l4.787-4.783z"/><path id="AA" d="M1182.545 52.895h4.159v10.422h-4.159z"/><path id="AB" d="M1379.17 30.061c1.3 0 2.355-1.052 2.355-2.353v-7.366c0-1.3-1.054-2.353-2.355-2.353s-2.355 1.052-2.355 2.353v7.366c0 1.3 1.054 2.353 2.355 2.353z"/><path id="AC" d="M1369.748 30.061c1.3 0 2.355-1.052 2.355-2.353v-4.912c0-1.3-1.054-2.353-2.355-2.353s-2.355 1.052-2.355 2.353v4.912c0 1.3 1.054 2.353 2.355 2.353z"/><path id="AD" d="M152.406 121.793l9.412-6.853c5.199-3.785 5.786-11.315 1.238-15.859l-3.292-3.29h-14.715l-3.292 3.29c-4.549 4.545-3.961 12.074 1.238 15.859l9.412 6.853z"/><path id="AE" d="M166.341 104.295c.639 0 1.268-.312 1.644-.885a1.96 1.96 0 0 0-.565-2.718l-7.984-5.233c-.908-.598-2.125-.34-2.719.563a1.96 1.96 0 0 0 .565 2.718l7.984 5.233c.332.218.706.322 1.074.322z"/><path id="AF" d="M138.489 104.295c.368 0 .742-.103 1.074-.322l7.982-5.233a1.96 1.96 0 0 0-2.154-3.281l-7.982 5.233a1.96 1.96 0 0 0 1.079 3.603z"/></defs><g clip-path="url(#A)"><path d="M-10.125-3014.564h1520.249v4049.482H-10.125z" fill="#61d1d5"/><g class="B"><path d="M1172.429 384.462l-20.009-41.039c-10.45-21.425-32.608-35.269-56.45-35.269h-76.809c-16.754 0-32.517 6.522-44.39 18.373-.97.969-1.905 1.965-2.803 2.985-9.542 10.837-26.115 11.655-36.325 1.445l-55.726-55.726c-12.044-12.044-12.04-31.573.009-43.612l12.071-12.061c14.691-14.679 22.946-34.595 22.946-55.363v-22.12c0-43.161-35.145-78.276-78.342-78.276h-15.766c-20.692 0-40.932 8.406-55.532 23.062l-46.47 46.66a12.17 12.17 0 0 1-8.625 3.583h-32.93c-20.769 0-40.689 8.246-55.38 22.927l-1.411 1.41c-14.682 14.672-22.931 34.577-22.931 55.333v15.639a81.06 81.06 0 0 0 22.94 56.505l.004.004c7.912 8.138 7.819 21.363-.207 29.389l-74.465 74.466a48.03 48.03 0 0 0-14.068 33.962v39.141c0 12.738 5.06 24.955 14.068 33.962l89.383 89.383c5.589 5.589 1.539 15.039-6.365 15.001h-.295a63.88 63.88 0 0 0-29.817 7.417l-80.898 42.89c-23.681 12.554-37.02 38.813-33.191 65.343l7.337 50.842a63.46 63.46 0 0 0 61.63 54.557l90.975 1.976 1.398.015c17.54 0 34.478-7.349 46.471-20.165 7.296-7.795 12.451-17.285 15.108-27.464 1.908-7.31 9.153-11.946 16.573-10.526a35.52 35.52 0 0 0 6.68.63h3.435c6.614 0 13.228-2.055 18.921-5.776 6.022 3.342 12.894 5.009 19.893 4.766 9.683-.336 18.919-4.422 26.003-11.506l3.612-3.614c7.216-7.214 11.191-16.811 11.191-27.018v-6.836c0-3.224-.403-6.399-1.183-9.462-2.149-8.433 4.443-16.587 13.145-16.62l21.046-.078c6.26-.023 12.088 2.842 16.218 7.546 4.746 5.406 11.704 8.825 19.45 8.825h13.034c14.275 0 25.887-11.603 25.887-25.865s-11.612-25.863-25.887-25.863h-13.034a9.64 9.64 0 0 1-9.602-9.46l-.852-65.238c-.344-26.306 9.431-51.739 27.304-71.043l39.062-42.19c9.688-10.464 26.053-10.545 36.101-.427l.199.199 41.557 41.531c11.867 11.844 27.634 18.366 44.396 18.366s32.529-6.523 44.419-18.391l49.156-49.131 6.079-6.074c18.959-18.932 23.809-47.829 12.061-71.922z" class="O"/><g class="F"><use href="#V"/><use href="#W"/><use href="#X"/><use href="#Y"/><use href="#Z"/><path d="M1152.639 58.137l-.965-1.155h1.93l-.965 1.155z"/><use href="#a"/><use href="#b"/><path d="M1148.909 53.04l.011.001h.01l.011.001.011.001.011.002.011.001.01.002.011.002.011.002.01.003.011.003.01.003.011.003.01.004.01.003.01.004.01.005.01.004.01.005.01.005.009.005.01.005.009.006.009.005.01.006.009.007.008.006.009.006.009.007.008.007.008.007.008.008.008.007.008.008.007.008.008.008.007.008.007.008.007.009.006.009.006.008.007.009.006.009.005.01.006.009.005.009.005.01.005.01.005.01.004.01.005.01.004.01.003.01.004.01.003.011.003.01.003.01.003.011.002.011.002.01.002.011.002.011.001.011.001.01.001.011v.011l.001.011v.011.011l-.001.011v.01l-.001.011-.001.011-.001.011-.002.011-.002.01-.002.011-.002.011-.003.01-.003.011-.003.01-.003.011-.004.01-.003.01-.004.01-.005.01-.004.01-.005.01-.005.01-.005.009-.005.01-.006.009-.005.009-.006.009-.007.009-.006.009-.006.009-.007.008-.007.009-.007.008-.008.008-.007.008-.008.008-.008.007-.008.007-.008.008-.008.006-.009.007-.009.007-.008.006-.009.006-.01.006-.009.006-.009.006-.01.005-.009.005-.01.005-.01.005-.01.004-.01.004-.01.004-.01.004-.01.004-.011.003-.01.003-.011.003-.01.002-.011.003-.011.002-.01.002-.011.001-.011.002-.011.001-.011.001h-.01l-.011.001h-.011-.627-.011l-.011-.001h-.011l-.011-.001-.011-.001-.01-.002-.011-.001-.011-.002-.011-.002-.01-.003-.011-.002-.01-.003-.011-.003-.01-.003-.01-.004-.011-.004-.01-.004-.01-.004-.01-.004-.01-.005-.009-.005-.01-.005-.009-.005-.01-.006-.009-.006-.009-.006-.009-.006-.009-.006-.009-.007-.008-.007-.008-.006-.009-.008-.008-.007-.008-.007-.007-.008-.008-.008-.007-.008-.007-.008-.007-.009-.007-.008-.007-.009-.006-.009-.006-.009-.006-.009-.006-.009-.005-.009-.006-.01-.005-.009-.005-.01-.004-.01-.005-.01-.004-.01-.004-.01-.004-.01-.003-.01-.004-.011-.003-.01-.003-.011-.002-.01-.003-.011-.002-.011-.001-.01-.002-.011-.001-.011-.002-.011v-.011l-.001-.01v-.011l-.001-.011.001-.011v-.011l.001-.011v-.011l.002-.01.001-.011.002-.011.001-.011.002-.01.003-.011.002-.011.003-.01.003-.01.004-.011.003-.01.004-.01.004-.01.004-.01.005-.01.004-.01.005-.01.005-.01.006-.009.005-.009.006-.01.006-.009.006-.009.006-.008.007-.009.007-.009.007-.008.007-.008.007-.008.008-.008.007-.008.008-.007.008-.008.009-.007.008-.007.008-.007.009-.006.009-.006.009-.007.009-.006.009-.005.01-.006.009-.005.01-.005.009-.005.01-.005.01-.004.01-.005.01-.004.011-.003.01-.004.01-.003.011-.003.01-.003.011-.003.01-.002.011-.002.011-.002.011-.001.01-.002.011-.001.011-.001h.011l.011-.001h.011.627.011z"/></g></g><use href="#c" class="F"/><path d="M1165.804 56.412a.48.48 0 0 1-.478-.478v-2.085a.48.48 0 0 1 .478-.478.48.48 0 0 1 .478.478v2.085a.48.48 0 0 1-.478.478zm1.913 0a.48.48 0 0 1-.478-.478v-2.085a.48.48 0 0 1 .478-.478.48.48 0 0 1 .478.478v2.085a.48.48 0 0 1-.478.478z" class="F"/><use href="#d" class="F"/><g class="B F"><use href="#e"/><use href="#e"/></g><g clip-path="url(#B)" class="F"><path d="M1191.569 57.193h19.654v7.872h-19.654zm0-11.381h19.654v7.559h-19.654z"/></g><g class="B F"><use href="#f"/><path d="M1155.212 57.963l-.643-.77h1.286l-.643.77z"/><path d="M1153.926 57.963l-.643-.77h1.286l-.643.77z"/><use href="#g"/><path d="M1159.072 57.963l-.644-.77h1.287l-.643.77z"/><path d="M1160.358 57.963l-.643-.77h1.286l-.643.77z"/><use href="#h"/><use href="#i"/><path d="M1141.417 89.242l.638 5.565-6.965 5.522a.42.42 0 0 1-.447.049c-.146-.071-.239-.218-.239-.38v-3.095a1.55 1.55 0 0 1 .452-1.092l6.561-6.568zm-1.585-6.146a2.58 2.58 0 0 1-2.33-2.567v-4.107c0-.125-.081-.236-.2-.274s-.249.004-.322.106l-4.773 6.614 7.625.228zm21.006 6.339l1.99 2.779c.107.149.298.212.473.156s.294-.219.294-.402v-1.152a1.63 1.63 0 0 1 1.213-1.574h0l-3.97.192zm0-5.399l1.99-2.779c.107-.149.298-.212.473-.156s.294.219.294.402v1.322c0 .321.128.63.355.857s.536.355.858.355h-3.97z"/><path d="M1170.597 87.977l-50.172-1.283v1.268c0 .831.331 1.628.92 2.215l.514.513c4.698 4.686 11.511 6.57 17.952 4.964l30.787-7.676z"/><path d="M1122.355 88.912l-.965-1.155h1.929l-.964 1.155z"/><path d="M1170.597 84.146l-27.702-1.247a26.69 26.69 0 0 0-1.2-.027h-24.425c-.549 0-1.043.328-1.253.831s-.093 1.082.295 1.466c1.81 1.792 4.262 2.799 6.819 2.799h47.465v-3.822z"/><path d="M1126.6 84.514a.37.37 0 0 0-.369-.369h-4.512a.37.37 0 0 0-.369.369v.537a.37.37 0 0 0 .369.369h4.512a.37.37 0 0 0 .369-.369v-.537zm-7.976-.699h.011l.011.001.011.001.01.001.011.001.011.002.011.002.01.002.011.002.011.003.01.003.011.003.01.003.01.003.01.004.011.004.01.004.009.005.01.005.01.004.01.006.009.005.01.005.009.006.009.006.009.006.009.007.008.006.009.007.008.007.008.007.008.007.008.008.008.008.008.008.007.008.007.008.007.008.007.009.006.008.007.009.006.009.006.009.006.009.005.01.006.009.005.01.005.01.004.009.005.01.004.01.004.01.004.011.003.01.003.01.004.011.002.01.003.011.002.01.002.011.002.011.002.011.001.01.001.011.001.011.001.011v.011.011.011.01l-.001.011-.001.011-.001.011-.001.011-.002.01-.002.011-.002.011-.002.01-.003.011-.002.011-.004.01-.003.01-.003.011-.004.01-.004.01-.004.01-.005.01-.004.01-.005.009-.005.01-.006.01-.005.009-.006.009-.006.009-.006.009-.007.009-.006.009-.007.008-.007.009-.007.008-.007.008-.008.008-.008.007-.008.008-.008.007-.008.007-.008.007-.009.007-.008.007-.009.006-.009.006-.009.006-.009.006-.01.005-.009.006-.01.005-.01.005-.01.004-.009.005-.01.004-.011.004-.01.004-.01.003-.01.004-.011.003-.01.003-.011.002-.011.002-.01.003-.011.001-.011.002-.011.001-.01.001-.011.001-.011.001h-.011-.011-.627-.011-.011l-.011-.001-.011-.001-.01-.001-.011-.001-.011-.002-.011-.001-.01-.003-.011-.002-.011-.002-.01-.003-.011-.003-.01-.004-.01-.003-.01-.004-.011-.004-.01-.004-.01-.005-.009-.004-.01-.005-.01-.005-.009-.006-.01-.005-.009-.006-.009-.006-.009-.006-.009-.006-.008-.007-.009-.007-.008-.007-.008-.007-.008-.007-.008-.008-.008-.007-.008-.008-.007-.008-.007-.008-.007-.009-.007-.008-.006-.009-.007-.009-.006-.009-.006-.009-.006-.009-.005-.009-.006-.01-.005-.01-.005-.009-.004-.01-.005-.01-.004-.01-.004-.01-.004-.01-.003-.011-.003-.01-.004-.01-.002-.011-.003-.011-.002-.01-.002-.011-.002-.011-.002-.01-.001-.011-.001-.011-.001-.011-.001-.011v-.01-.011-.011-.011l.001-.011.001-.011.001-.011.001-.01.002-.011.002-.011.002-.011.002-.01.003-.011.002-.01.004-.011.003-.01.003-.01.004-.011.004-.01.004-.01.005-.01.004-.009.005-.01.005-.01.006-.009.005-.01.006-.009.006-.009.006-.009.007-.009.006-.008.007-.009.007-.008.007-.008.007-.008.008-.008.008-.008.008-.008.008-.007.008-.007.008-.007.009-.007.008-.006.009-.007.009-.006.009-.006.009-.006.01-.005.009-.005.01-.006.01-.004.009-.005.01-.005.01-.004.011-.004.01-.004.01-.003.01-.003.011-.003.01-.003.011-.003.011-.002.01-.002.011-.002.011-.002.011-.001.01-.001.011-.001.011-.001h.011.011.627.011z"/></g><path d="M1133.607 87.186a.48.48 0 0 1-.478-.478v-2.085a.48.48 0 0 1 .478-.478.48.48 0 0 1 .478.478v2.085a.48.48 0 0 1-.478.478zm1.912 0a.48.48 0 0 1-.478-.478v-2.085a.48.48 0 0 1 .478-.478.48.48 0 0 1 .478.478v2.085a.48.48 0 0 1-.478.478zm1.913 0a.48.48 0 0 1-.478-.478v-2.085a.48.48 0 0 1 .478-.478.48.48 0 0 1 .478.478v2.085a.48.48 0 0 1-.478.478zm-14.774-3.04h2.451a.37.37 0 0 1 .369.369v.855a.37.37 0 0 1-.368.368h-2.451a.37.37 0 0 1-.369-.369v-.855a.37.37 0 0 1 .368-.368z" class="F"/><g class="B F"><path d="M1169.003 84.146l6.714-6.959c.139-.147.359-.181.536-.085s.267.301.217.497l-1.954 7.793c-.136.542-.136 1.108 0 1.65l1.954 7.793c.049.196-.04.4-.217.497s-.397.062-.536-.085l-6.714-7.28-.386-1.879.386-1.943z"/><path d="M1169.003 84.146l6.714-6.959c.139-.147.359-.181.536-.085s.267.301.217.497l-1.954 7.793c-.136.542-.136 1.108 0 1.65l1.954 7.793c.049.196-.04.4-.217.497s-.397.062-.536-.085l-6.714-7.28-.386-1.879.386-1.943z"/></g><g clip-path="url(#C)" class="F"><path d="M1161.284 87.968h19.654v7.872h-19.654zm0-11.381h19.654v7.559h-19.654z"/></g><g class="B F"><use href="#j"/><path d="M1124.927 88.738l-.643-.77h1.287l-.644.77z"/><path d="M1123.641 88.738l-.643-.77h1.286l-.643.77zm2.573 0l-.643-.77h1.286l-.643.77zm2.573 0l-.643-.77h1.286l-.643.77z"/><path d="M1130.073 88.738l-.643-.77h1.287l-.644.77zm-5.552-4.592h-1.275v1.221a.37.37 0 0 0 .371.371h.532a.37.37 0 0 0 .371-.371v-1.221zm18.171 5.096l-.638 5.565 6.965 5.522a.42.42 0 0 0 .447.049c.146-.071.239-.218.239-.38v-3.095a1.55 1.55 0 0 0-.452-1.092l-6.561-6.568z"/></g><path d="M1453.143 452.454c-.262 36.175-22.061 68.417-55.535 82.139a89.26 89.26 0 0 1-97.211-19.522l-46.55-46.551c-16.903-16.903-26.209-39.372-26.209-63.271v-74.884c0-3.83-1.491-7.431-4.199-10.139l-24.103-24.102c-16.901-16.903-26.207-39.372-26.207-63.27v-60.312c0-3.83-1.491-7.431-4.199-10.139l-39.993-39.993c-16.899-16.898-26.207-39.369-26.207-63.27v-8.384c0-49.338 40.14-89.478 89.478-89.478a14.24 14.24 0 0 0 10.137-4.199l63.55-63.552c16.901-16.899 39.37-26.205 63.271-26.205h38.113c49.338 0 89.478 40.135 89.478 89.467l-3.614 495.666z" class="O"/><path d="M1264.103 109.639v-74.57c0-6.757 2.684-13.238 7.462-18.015s7.462-11.258 7.462-18.015v-24.816c0-6.757-2.684-13.238-7.462-18.015l-7.608-7.608-35.045 35.045c-9.735 9.735-22.938 15.203-36.704 15.203h0c-28.668 0-51.908 23.24-51.908 51.908v8.384a51.91 51.91 0 0 0 15.203 36.704l39.994 39.994c9.735 9.734 15.203 22.937 15.203 36.704v22.741l30.605-30.605c14.597-14.597 22.798-34.395 22.798-55.038z" class="P"/><path d="M1292.461-79.906l-28.505 28.505 7.608 7.608c4.778 4.778 7.462 11.258 7.462 18.015V-.962c0 6.757-2.684 13.238-7.462 18.015s-7.462 11.258-7.462 18.015v74.57c0 20.643-8.201 40.441-22.798 55.038l-30.605 30.605v37.571c0 13.767 5.469 26.97 15.204 36.704l24.103 24.103c9.735 9.734 15.204 22.938 15.204 36.704v74.884a51.91 51.91 0 0 0 15.203 36.704l46.552 46.552c32.571 32.571 88.275 9.736 88.611-36.326l3.61-495.003c.21-28.815-23.091-52.287-51.907-52.287h-38.113a51.91 51.91 0 0 0-36.705 15.204z" class="I"/><g class="C K L M Q"><path d="M1271.147-44.211l.418.418c4.778 4.778 7.462 11.258 7.462 18.016V-.961c0 6.757-2.684 13.237-7.462 18.015s-7.462 11.258-7.462 18.016v74.57c0 20.643-8.201 40.441-22.798 55.038l-27.01 27.01" stroke-dasharray="0 10.169"/><path d="M1210.7 205.307v27.547c0 13.767 5.469 26.97 15.204 36.704l24.103 24.103c9.735 9.734 15.203 22.938 15.203 36.704v74.885a51.91 51.91 0 0 0 15.203 36.704l46.552 46.552c32.571 32.571 88.275 9.736 88.611-36.326l3.61-495.002c.21-28.815-23.091-52.287-51.907-52.287h-38.113a51.91 51.91 0 0 0-36.705 15.204l-24.961 24.96" stroke-dasharray="0 10.024"/></g><use href="#k" class="B J"/><g clip-path="url(#D)"><path d="M1258.705 138.944l45.366 38.775h-45.366v-38.775z" class="B D"/><use href="#l" class="G"/><path d="M1299.358,148.464v-5.077h-15.247c-1.402,0-2.538,1.135-2.538,2.536v.005c0,1.401,1.136,2.536,2.538,2.536h15.247Z" class="B D"/></g><use href="#m" class="B J"/><g clip-path="url(#E)"><path d="M1258.705 138.944l-45.367 38.775h45.367v-38.775z" class="B D"/><use href="#n" class="G"/><use href="#o" class="B D"/></g><use href="#p" class="B G"/><g clip-path="url(#F)"><path d="M1258.716 137.403h19.209v36.429h-19.209z" class="D"/><path d="M1256.165 135.277h5.082v44.28h-5.082z" class="R"/></g><use href="#q" class="S"/><g clip-path="url(#G)" class="B T"><path d="M1361.423 151.901l-12.176-8.866c-6.725-4.897-7.485-14.637-1.601-20.516l4.259-4.256h19.035l4.259 4.256c5.884 5.879 5.124 15.619-1.601 20.516l-12.176 8.866z" style="mix-blend-mode:multiply" opacity=".25"/></g><path d="M1361.412 124.106a20.24 20.24 0 0 0 5.935 14.318c3.801 3.798 8.956 5.93 14.333 5.93h20.385v-13.386c0-5.372-2.134-10.523-5.935-14.321a20.29 20.29 0 0 0-14.333-5.93h-20.385v13.389z" class="B J"/><g clip-path="url(#H)"><path d="M1361.412 110.718l45.366 38.775h-45.366v-38.775z" class="B D"/><path d="M1359.826 112.678l3.212-3.933 40.631 33.184-3.212 3.933z" class="G"/><g class="B"><g class="H"><use href="#r"/><path d="M1374.963,146.924h-5.082v-16.852c0-1.401,1.136-2.536,2.538-2.536h.005c1.402,0,2.538,1.135,2.538,2.536v16.852Z"/></g><g class="D"><use href="#s"/><path d="M1402.065,120.238v-5.077h-15.247c-1.402,0-2.538,1.135-2.538,2.536v.005c0,1.401,1.136,2.536,2.538,2.536h15.247Z"/></g></g></g><path d="M1361.412 124.106a20.24 20.24 0 0 1-5.935 14.318c-3.801 3.798-8.956 5.93-14.333 5.93h-20.385v-13.386c0-5.372 2.134-10.523 5.935-14.321a20.29 20.29 0 0 1 14.333-5.93h20.385v13.389z" class="B J"/><g clip-path="url(#I)"><path d="M1361.412 110.718l-45.366 38.775h45.366v-38.775z" class="B D"/><path d="M1319.158 141.911l40.654-33.156 3.209 3.935-40.654 33.156z" class="G"/><g class="B"><g class="H"><use href="#t"/><path d="M1347.861 146.924h5.082v-16.849c0-.673-.267-1.318-.744-1.795s-1.123-.744-1.796-.744-1.321.269-1.796.744-.744 1.122-.744 1.795v16.849z"/></g><g class="D"><use href="#u"/><path d="M1320.759 120.238v-5.077h15.245c.673 0 1.321.269 1.796.744s.744 1.122.744 1.795-.267 1.32-.744 1.795-1.123.744-1.796.744h-15.245z"/></g></g></g><path d="M1361.423 144.355l-12.176-8.866c-6.725-4.897-7.485-14.637-1.601-20.516l4.259-4.256h19.035l4.259 4.256c5.884 5.879 5.124 15.619-1.601 20.516l-12.176 8.866z" class="B G"/><g clip-path="url(#J)"><path d="M1361.423 109.176h19.209v36.429h-19.209z" class="D"/><path d="M1358.873 107.05h5.082v44.28h-5.082z" class="R"/><use href="#v" class="D"/><use href="#w" class="H"/><path d="M1343.396 140.842a2.54 2.54 0 0 1-2.127-1.145c-.771-1.173-.443-2.747.731-3.515l10.329-6.77a2.54 2.54 0 0 1 3.517.729c.771 1.173.443 2.747-.731 3.515l-10.329 6.77a2.52 2.52 0 0 1-1.39.416z" class="D"/><path d="M1379.427 140.842a2.53 2.53 0 0 1-1.39-.416l-10.325-6.77c-1.174-.769-1.502-2.342-.731-3.515s2.332-1.504 3.517-.729l10.325 6.77c1.174.769 1.502 2.342.731 3.515a2.54 2.54 0 0 1-2.127 1.145z" class="H"/></g><g clip-path="url(#K)" class="B"><path d="M1306.999 173.081V152.47c0-2.388 1.938-4.324 4.328-4.324h.794c2.39 0 4.328-1.936 4.328-4.324v-14.684c0-2.388 1.938-4.324 4.328-4.324h3.459c2.39 0 4.328-1.936 4.328-4.324v-9.313c0-2.388 1.938-4.324 4.328-4.324h10.849c2.39 0 4.328 1.936 4.328 4.324v47.769c-.001 2.317 1.879 4.196 4.198 4.196h.109c2.412 0 4.35-1.917 4.349-4.306v-14.18c0-2.388 1.938-4.305 4.328-4.305h10.849c2.39 0 4.328 1.936 4.328 4.324v10.547c0 2.388 1.938 4.324 4.328 4.324h2.194c2.39 0 4.328 1.936 4.328 4.324v108.832c0 2.388-1.938 4.324-4.328 4.324h-4.503c-2.39 0-4.328-1.936-4.328-4.324v-10.547c0-2.388-1.938-4.324-4.328-4.324h-11.235a9.52 9.52 0 0 1-9.521-9.513V226.61c0-2.388-1.938-4.324-4.328-4.324h-2.45c-2.39 0-4.328-1.936-4.328-4.324v-10.584c0-2.388-1.938-4.324-4.328-4.324h.117c-2.39 0-4.328 1.936-4.328 4.324v30.591c0 2.388-1.938 4.324-4.328 4.324h-1.617c-2.39 0-4.328 1.936-4.328 4.324l-1.271 14.684c0 2.388-1.938 4.324-4.328 4.324h-3.333c-2.39 0-4.328 1.936-4.328 4.324v20.611c0 2.388-1.938 4.324-4.328 4.324h-1.993c-2.39 0-4.328-1.936-4.328-4.324V181.728c0-2.388 1.938-4.324 4.328-4.324h3.333c2.39 0 4.328-1.936 4.328-4.324z" fill="#3d8950"/></g><path d="M1322.354 44.801h-14.894l-4.036 36.831a3.45 3.45 0 0 0 3.431 3.824h16.177a3.45 3.45 0 0 0 3.431-3.831l-4.109-36.825z" class="S"/><g clip-path="url(#L)" class="B T"><path d="M1314.955 71.425l-12.176-8.866c-6.725-4.897-7.485-14.637-1.601-20.516l4.259-4.256h19.035l4.259 4.256c5.884 5.879 5.124 15.619-1.601 20.516l-12.176 8.866z" style="mix-blend-mode:multiply" opacity=".25"/></g><path d="M1314.944 43.63a20.24 20.24 0 0 0 5.935 14.318c3.801 3.798 8.956 5.93 14.333 5.93h20.385V50.492c0-5.372-2.134-10.523-5.935-14.321a20.29 20.29 0 0 0-14.333-5.93h-20.385V43.63z" class="B J"/><g clip-path="url(#M)"><path d="M1314.944 30.241l45.366 38.776h-45.366V30.241z" class="B D"/><path d="M1313.358 32.202l3.212-3.933 40.631 33.184-3.212 3.933z" class="G"/><g class="B"><g class="H"><path d="M1338.658 66.072h-5.082v-8.54a2.541 2.541 0 1 1 5.082 0v8.54zm-10.163.376h-5.082V49.596c0-1.401 1.136-2.536 2.538-2.536h.005c1.402 0 2.538 1.135 2.538 2.536v16.852z"/></g><g class="D"><path d="M1355.597 49.647v-4.808h-7.757c-.638 0-1.25.254-1.702.706a2.4 2.4 0 0 0-.704 1.698h0a2.41 2.41 0 0 0 .704 1.701c.452.452 1.065.703 1.702.703h7.757zm0-9.886v-5.077h-15.247c-1.402 0-2.538 1.135-2.538 2.536v.005c0 1.401 1.136 2.536 2.538 2.536h15.247z"/></g></g></g><path d="M1314.944 43.63a20.24 20.24 0 0 1-5.935 14.318c-3.801 3.798-8.956 5.93-14.333 5.93h-20.385V50.492c0-5.372 2.134-10.523 5.935-14.321a20.29 20.29 0 0 1 14.333-5.93h20.385V43.63z" class="B J"/><g clip-path="url(#N)"><path d="M1314.944 30.241l-45.367 38.776h45.367V30.241z" class="B D"/><path d="M1272.689 61.434l40.654-33.156 3.209 3.935-40.654 33.156z" class="G"/><g class="B"><g class="H"><path d="M1291.229 66.072h5.082v-8.54a2.541 2.541 0 1 0-5.082 0v8.54zm10.164.376h5.082V49.599c0-.673-.267-1.318-.744-1.795a2.54 2.54 0 0 0-1.796-.744c-.673 0-1.321.269-1.796.744a2.54 2.54 0 0 0-.744 1.795v16.849z"/></g><g class="D"><path d="M1274.291 49.916v-5.077h7.625a2.53 2.53 0 0 1 1.794.744c.478.475.744 1.12.744 1.792v.005c0 .673-.267 1.318-.744 1.795a2.53 2.53 0 0 1-1.794.741h-7.625zm0-10.155v-5.077h15.245c.673 0 1.321.269 1.796.744a2.54 2.54 0 0 1 .744 1.795c0 .673-.267 1.32-.744 1.795a2.55 2.55 0 0 1-1.796.744h-15.245z"/></g></g></g><path d="M1314.955 63.879l-12.176-8.866c-6.725-4.897-7.485-14.637-1.601-20.516l4.259-4.256h19.035l4.259 4.256c5.884 5.879 5.124 15.619-1.601 20.516l-12.176 8.866z" class="B G"/><g clip-path="url(#O)"><path d="M1314.955 28.7h19.209v36.429h-19.209z" class="D"/><path d="M1312.404 26.574h5.082v44.28h-5.082z" class="R"/><path d="M1296.928 48.789a2.54 2.54 0 0 1-2.127-1.145c-.771-1.173-.443-2.747.731-3.515l10.329-6.77a2.54 2.54 0 0 1 3.517.729c.771 1.173.443 2.747-.731 3.515l-10.329 6.77a2.52 2.52 0 0 1-1.39.416z" class="D"/><path d="M1332.959 48.789a2.53 2.53 0 0 1-1.39-.416l-10.325-6.77c-1.174-.769-1.502-2.342-.731-3.515s2.332-1.504 3.517-.729l10.325 6.77c1.174.769 1.502 2.342.731 3.515a2.54 2.54 0 0 1-2.127 1.145z" class="H"/><path d="M1296.928 60.365a2.54 2.54 0 0 1-2.127-1.145c-.771-1.173-.443-2.747.731-3.515l10.329-6.77a2.54 2.54 0 0 1 3.517.729c.771 1.173.443 2.747-.731 3.515l-10.329 6.77a2.52 2.52 0 0 1-1.39.416z" class="D"/><path d="M1332.959 60.365a2.53 2.53 0 0 1-1.39-.416l-10.325-6.77c-1.174-.769-1.502-2.342-.731-3.515s2.332-1.504 3.517-.729l10.325 6.77c1.174.769 1.502 2.342.731 3.515a2.54 2.54 0 0 1-2.127 1.145z" class="H"/></g><use href="#x" class="B I"/><path d="M1327.807-33.649h-14.894l-4.036 36.831a3.45 3.45 0 0 0 3.431 3.824h16.177a3.45 3.45 0 0 0 3.431-3.831l-4.109-36.825z" class="S"/><g class="B"><path d="M1334.111-1.878a4.98 4.98 0 0 0-4.965 4.96 4.98 4.98 0 0 0-4.965-4.96 4.98 4.98 0 0 0-4.965 4.96 4.98 4.98 0 0 0-4.965-4.96 4.98 4.98 0 0 0-4.965 4.96 4.98 4.98 0 0 0-4.965-4.96 4.98 4.98 0 0 0-4.965 4.96l4.488 3.924 11.545 1.237 16.547-.818 7.138-4.344a4.98 4.98 0 0 0-4.965-4.96z" class="I"/><g fill="#c32944"><use href="#y"/><use href="#z"/><path d="M1294.379 113.502c-.66-.66-1.732-.66-2.393 0a1.69 1.69 0 0 0 0 2.391l4.787 4.783c.661.659 1.732.659 2.393 0a1.69 1.69 0 0 0 0-2.392l-4.787-4.782z"/><path d="M1299.166 115.893a1.69 1.69 0 0 0 0-2.391c-.661-.66-1.732-.66-2.393 0l-4.787 4.782a1.69 1.69 0 0 0 0 2.392c.661.659 1.733.659 2.393 0l4.787-4.783z"/></g></g><rect x="1175.747" y="69.539" width="23.668" height="4.117" rx="2.056" fill="#ebdfa5"/><path d="M1206.236 35.951v35.174" stroke="#dbca7b" stroke-miterlimit="10" class="C U"/><g class="N"><use href="#AA"/><path d="M1182.545 63.317h4.159v6.974h-4.159zm6.239-10.422h4.159v10.422h-4.159z"/><path d="M1188.784 63.317h4.159v6.974h-4.159z"/><path d="M1188.784 70.291h6.239v1.668h-6.239zm-8.319 0h6.239v1.668h-6.239z"/></g><g class="B"><path d="M1177.865 26.76c0-1.51 1.222-2.735 2.728-2.735h13.676c1.507 0 2.729 1.225 2.729 2.735v21.117h-19.133V26.76z" fill="#102120"/><g class="N"><path d="M1182.851 39.184a.42.42 0 0 1 .561.181l1.04 2.039c.05.098.06.213.025.318a.42.42 0 0 1-.207.244l-9.072 4.649-1.42-2.784 9.072-4.649zm8.018 2.645a.42.42 0 0 1-.096-.583l1.333-1.862c.065-.09.162-.151.272-.17a.42.42 0 0 1 .311.072l8.286 5.93-1.82 2.543-8.286-5.93z"/><path d="M1184.148 48.685c.126.07.218.188.258.326a.55.55 0 0 1-.048.414l-.99 1.781a.54.54 0 0 1-.326.258c-.138.039-.287.022-.413-.048l-8.792-4.909 1.518-2.731 8.792 4.909z"/><path d="M1175.959 45.902c.419-.754.149-1.707-.603-2.126a1.56 1.56 0 0 0-2.122.605c-.419.754-.149 1.707.604 2.126a1.56 1.56 0 0 0 2.122-.605z"/></g></g><circle cx="1200.04" cy="46.458" r="1.563" transform="matrix(.92109 -.389349 .389349 .92109 76.607 470.901)" class="N"/><g class="B N"><path d="M1207.08 38.972c.114-.089.258-.128.401-.111a.54.54 0 0 1 .361.205l1.252 1.603c.088.114.128.258.11.401s-.092.273-.206.362l-7.957 6.196-1.92-2.46 7.958-6.196zm-24.535.798a.63.63 0 0 1 .631-.632h9.138c.168 0 .327.066.445.185s.185.279.185.447v13.126h-10.399V39.77z"/></g><path d="M1185.664 37.053h4.159v2.084h-4.159z" class="N"/><path d="M1185.664 37.053h4.159v1.042h-4.159z" fill="#bb3f6f"/><g class="B"><g class="N"><path d="M1181.141 30.016c0-.499.198-.979.55-1.331s.83-.552 1.329-.552h9.863c.498 0 .976.198 1.329.552s.55.832.55 1.331v5.153c0 .499-.198.979-.55 1.331s-.831.552-1.329.552h-9.863c-.498 0-.976-.198-1.329-.552s-.55-.832-.55-1.331v-5.153z"/><path d="M1180.136 30.945a2.22 2.22 0 1 0-.11 4.44 2.22 2.22 0 1 0 .11-4.44z"/></g><g fill="#102120"><path d="M1181.13 31.204h2.128a1.37 1.37 0 0 0 1.366-1.369v-1.758h-3.494v3.127zm7.98 0h6.537v-3.127h-7.903v1.758c0 .756.611 1.369 1.366 1.369z"/></g></g><g fill="#0d1c1c"><rect x="1184.988" y="31.956" width="1.353" height="2.738" rx=".226"/><rect x="1190.811" y="31.956" width="1.353" height="2.738" rx=".226"/></g><path d="M1181.705 59.32l12.674 3.187-1.436-9.612h-10.398l-.84 6.425z" class="B I"/><g class="C U"><g class="K L M"><path d="M1181.705 59.32h0"/><path d="M1183.515 59.775l9.958 2.505" stroke-dasharray="0 1.867"/><path d="M1194.379 62.507h0"/><path d="M1194.091 60.585l-1.004-6.729" stroke-dasharray="0 1.944"/><path d="M1192.943 52.894h0"/><path d="M1191.21 52.894h-7.799" stroke-dasharray="0 1.733"/><path d="M1182.545 52.894h0"/><path d="M1182.265 55.037l-.42 3.212" stroke-dasharray="0 2.16"/></g><circle cx="1206.236" cy="34.694" r="1.843" stroke="#dbca7b"/></g><g fill="#409058"><use href="#AB" opacity=".5"/><use href="#AC" opacity=".5"/><path d="M1388.591 30.061c1.3 0 2.355-1.052 2.355-2.353v-4.912c0-1.3-1.054-2.353-2.355-2.353s-2.355 1.052-2.355 2.353v4.912c0 1.3 1.054 2.353 2.355 2.353zm4.924 57.055c1.3 0 2.355-1.052 2.355-2.353v-7.366c0-1.3-1.054-2.353-2.355-2.353s-2.355 1.052-2.355 2.353v7.366c0 1.3 1.054 2.353 2.355 2.353zm-9.422 0c1.3 0 2.355-1.052 2.355-2.353v-4.912c0-1.3-1.054-2.353-2.355-2.353s-2.355 1.052-2.355 2.353v4.912c0 1.3 1.054 2.353 2.355 2.353zm18.843 0c1.3 0 2.355-1.052 2.355-2.353v-4.912c0-1.3-1.054-2.353-2.355-2.353s-2.355 1.052-2.355 2.353v4.912c0 1.3 1.054 2.353 2.355 2.353zm-55.237 9.736c1.3 0 2.355-1.052 2.355-2.353v-7.366c0-1.3-1.054-2.353-2.355-2.353s-2.355 1.052-2.355 2.353v7.366c0 1.3 1.054 2.353 2.355 2.353zm-9.422 0c1.3 0 2.355-1.052 2.355-2.353v-4.912c0-1.3-1.054-2.353-2.355-2.353s-2.355 1.052-2.355 2.353v4.912c0 1.3 1.054 2.353 2.355 2.353zm18.843 0c1.3 0 2.355-1.052 2.355-2.353v-4.912c0-1.3-1.054-2.353-2.355-2.353s-2.355 1.052-2.355 2.353v4.912c0 1.3 1.054 2.353 2.355 2.353z" opacity=".5"/></g><path d="M630.68 64.491c-23.834.002-47.052-9.786-63.697-26.853l-49.229-50.48c-16.446-16.865-25.421-39.124-25.274-62.679s9.402-45.699 26.059-62.355l6.5-6.5c16.802-16.804 39.144-26.059 62.909-26.059h51.402c3.311 0 6.548-1.342 8.887-3.681l9.33-9.33c16.797-16.797 39.135-26.047 62.9-26.047 4.826 0 9.687.395 14.447 1.175 18.476 3.031 35.239 11.631 48.479 24.872 16.805 16.805 26.06 39.148 26.06 62.914v46.157c0 23.765-9.255 46.108-26.06 62.913l-49.892 49.893c-8.481 8.481-18.433 15.065-29.58 19.569-10.652 4.306-21.868 6.49-33.334 6.49h-39.906z" class="O"/><path d="M711.909-101.456h0c-13.116 13.116-20.484 30.905-20.484 49.453v79.06c6.553-2.648 12.58-6.594 17.674-11.689l52.241-52.241a53.16 53.16 0 0 0 15.57-37.589v-48.329c0-14.099-5.601-27.62-15.57-37.59h0c-8.174-8.174-18.349-13.115-28.947-14.852v24.324c0 18.548-7.368 36.337-20.484 49.453z" class="P"/><path d="M686.161-160.381l-9.768 9.768a53.16 53.16 0 0 1-37.589 15.57h-53.817a53.16 53.16 0 0 0-37.589 15.57l-6.806 6.806c-20.576 20.576-20.785 53.871-.469 74.704l51.545 52.855a53.16 53.16 0 0 0 38.058 16.045h41.784c6.893 0 13.645-1.347 19.915-3.881v-79.059c0-18.549 7.368-36.337 20.484-49.453h0c13.116-13.116 20.484-30.905 20.484-49.453v-24.324c-16.32-2.675-33.646 2.266-46.232 14.852z" class="I"/><g class="C K L M Q"><path d="M691.425 27.057h0"/><path d="M691.425,16.903V-52.003c0-18.549,7.368-36.337,20.484-49.453h0c13.116-13.116,20.484-30.905,20.484-49.453v-19.247" stroke-dasharray="0 10.154"/><path d="M722.382-175.92c-13.145.333-26.188 5.507-36.22 15.54l-9.768 9.768a53.16 53.16 0 0 1-37.589 15.57h-53.817a53.16 53.16 0 0 0-37.589 15.57l-6.806 6.806c-20.576 20.576-20.785 53.871-.469 74.704l51.545 52.855a53.16 53.16 0 0 0 38.058 16.045h41.784c5.186 0 10.292-.763 15.173-2.219" stroke-dasharray="0 10.051"/></g><path d="M588.788-6.728a4.03 4.03 0 0 1-3.334-1.768 4.02 4.02 0 0 1-.405-3.751l12.177-30.417c.741-1.85 2.53-3.052 4.524-3.052h17.407c2.178 0 4.092 1.442 4.69 3.535l3.867 13.523 14.904 4.255a4.86 4.86 0 0 1 3.097 2.661l8.677 19.072c.566 1.246.461 2.694-.28 3.844a4.03 4.03 0 0 1-3.387 1.846h-29.707c-1.958 0-3.836-.777-5.222-2.16l-5.429-5.426a7.39 7.39 0 0 0-5.222-2.16h-16.357z" fill="#777087" class="B"/><g clip-path="url(#P)" class="B"><path d="M615.402-11.602c0-2.692-2.183-4.873-4.878-4.873s-4.878,2.182-4.878,4.873V3.019h9.755v-14.62Z" fill="#675d7e"/><path d="M656.761-37.638v-9.064a3.9 3.9 0 0 0-3.902-3.899h-10.173a3.9 3.9 0 0 1-3.902-3.899v-.017a3.9 3.9 0 0 0-3.902-3.899h-10.173a3.9 3.9 0 0 1-3.902-3.899v-3.445a3.9 3.9 0 0 0-3.902-3.899h-12.181a3.9 3.9 0 0 0-3.902 3.899v3.445a3.9 3.9 0 0 1-3.902 3.899h-10.173a3.9 3.9 0 0 0-3.902 3.899V-43.4a3.9 3.9 0 0 1-3.902 3.899H568.77a3.9 3.9 0 0 0-3.902 3.899v30.66a3.9 3.9 0 0 0 3.902 3.899l10.168-.845a3.9 3.9 0 0 0 3.902-3.899l3.202-11.116c0-.526.912-.182 1.101-.64.585-1.417 1.98-2.414 3.609-2.414h5.141c3.831 0 6.936-3.103 6.936-6.93h0c0-2.382 1.932-4.312 4.316-4.312h2.497c2.924 0 5.294 2.368 5.294 5.289v.945c0 3.771 3.06 6.829 6.834 6.829h11.103a3.9 3.9 0 0 1 3.902 3.899v1.117a6.69 6.69 0 0 0 6.691 6.685h6.73a3.9 3.9 0 0 1 3.474 2.122c.273.533 2.886 3.427 2.886 3.427 0 2.153.277 3.899 2.432 3.899h11.847a3.9 3.9 0 0 0 3.902-3.899v-28.953a3.9 3.9 0 0 0-3.902-3.899h-10.173a3.9 3.9 0 0 1-3.902-3.899z" fill="#4ba582"/></g><path d="M836.602 96.861h-15.765a45.27 45.27 0 0 0-32.076 13.321l-46.475 46.663c-1.129 1.134-2.316 2.197-3.548 3.196v42.326l35.955 35.925h51.759l9.707-9.698L868.6 196.18c8.486-8.479 13.254-19.98 13.254-31.971v-22.133c0-24.971-20.26-45.214-45.252-45.214z" class="P"/><g class="B"><path d="M853.116,168.681c0,15.015,16.323,27.187,36.459,27.187s36.459-12.172,36.459-27.187-16.323-27.187-36.459-27.187-36.459,12.172-36.459,27.187Z" fill="#9bdceb"/><path d="M889.575,134.666c-20.136,0-36.459,10.749-36.459,24.01s16.323,24.01,36.459,24.01,36.459-10.75,36.459-24.01-16.323-24.01-36.459-24.01Z" style="mix-blend-mode:multiply" fill="#cbdcec"/><path d="M889.575,127.869c-20.418,0-36.97,11.789-36.97,26.333s16.552,26.333,36.969,26.333,36.97-11.789,36.97-26.333-16.552-26.333-36.969-26.333Z" fill="#312d4d"/><path d="M889.575,124.661c-20.418,0-36.97,11.789-36.97,26.333s16.552,26.333,36.969,26.333,36.97-11.789,36.97-26.333-16.552-26.333-36.969-26.333Z" fill="#55529c"/></g><g clip-path="url(#Q)"><g stroke="#4a488a" class="C K L"><g stroke-width="7.179"><path style="mix-blend-mode:multiply" d="M904.553 106.066v91.497m-29.956-91.497v91.497" opacity=".188"/></g><g stroke-width="3.59"><path style="mix-blend-mode:multiply" d="M846.368 140.212h87.566m-87.566-10.835h87.566" opacity=".188"/></g></g><path style="mix-blend-mode:multiply" d="M932.003 132.989l-86.787 41.263 82.289 10.345 4.498-51.608z" fill="#55529c" opacity=".148" class="B"/></g><path d="M334.273 39.158l97.829-97.746c10.027-10.014 15.549-23.331 15.549-37.496v-16.205c0-29.236-23.806-53.021-53.066-53.021h-62.502a38.86 38.86 0 0 1-27.654-11.446l-26.386-26.362c-2.871-26.548-25.436-47.284-52.757-47.284h-9.701c-14.176 0-27.502 5.515-37.525 15.528l-74.212 74.153c-15.349 15.333-23.801 35.719-23.801 57.406v48.459c0 21.687 8.452 42.075 23.798 57.406l36.634 36.602c2.266 3.228 5.371 5.791 8.914 7.824 10.304 5.911 12.152 19.86 3.66 28.167l-.298.293-213.243 198.696 32.859 157.902H249.77c16.737 0 33.057-5.862 45.951-16.504 16.864-13.915 26.464-34.494 26.271-56.371-.352-39.812-33.483-71.575-73.296-71.575h-18.117c-1.647 0-3.202-.599-4.417-1.695l-.485-.551c-2.331-2.601-2.23-6.568.229-9.028l16.323-16.322a28.12 28.12 0 0 1 19.885-8.236h26.98a84.85 84.85 0 0 0 12.193-.88c4.391-.638 8.269 2.887 8.186 7.323l-.007.72c.002 21.638 18.082 38.951 39.72 38.951h13.628c21.287 0 39.548-17.404 39.689-38.691a38.73 38.73 0 0 0-3.44-16.263c-2.694-5.954 1.665-12.697 8.2-12.697h.005c20.954 0 38.64-17.14 38.947-38.092.321-21.912-11.607-31.781-22.878-36.217-5.747-2.262-7.441-9.676-3.282-14.243 6.531-7.172 10.426-16.783 10.133-27.291-.579-20.832-18.863-37.849-39.703-37.849h-14.366a38.73 38.73 0 0 0-22.601 7.246c-9.114 6.516-21.57 5.601-29.492-2.322l-5.63-5.63-.3-.299c-9.554-9.461-6.386-25.529 6.096-30.525 4.322-1.73 7.923-3.679 10.081-5.836z" class="O"/><path d="M170.891-180.951l-43.647 43.61a48.1 48.1 0 0 0-14.106 34.026v48.459a48.1 48.1 0 0 0 14.106 34.026l36.64 36.609c3.746 3.743 8.827 5.846 14.125 5.846h118.744c5.298 0 10.379-2.103 14.125-5.846l67.264-67.207a19.95 19.95 0 0 0 5.851-14.113v-16.205c0-11.023-8.944-19.959-19.976-19.959h-62.502a72.23 72.23 0 0 1-51.053-21.129l-29.916-29.891a19.95 19.95 0 0 1-5.851-14.113h0c0-11.023-8.944-19.959-19.976-19.959h-9.702c-5.298 0-10.379 2.103-14.125 5.846z" class="B I"/><path d="M170.891-180.951l-43.647 43.61a48.1 48.1 0 0 0-14.106 34.026v48.459a48.1 48.1 0 0 0 14.106 34.026l36.64 36.609c3.746 3.743 8.827 5.846 14.125 5.846h118.744c5.298 0 10.379-2.103 14.125-5.846l67.264-67.207a19.95 19.95 0 0 0 5.851-14.113v-16.205c0-11.023-8.944-19.959-19.976-19.959h-62.502a72.23 72.23 0 0 1-51.053-21.129l-29.916-29.891a19.95 19.95 0 0 1-5.851-14.113c0-11.023-8.944-19.959-19.976-19.959h-9.702c-5.298 0-10.379 2.103-14.125 5.846z" stroke-dasharray="0 9.998" class="C K L M Q"/><g fill="#f8d749" class="B"><path d="M204.284-3.885a1.7 1.7 0 0 0-2.398 0l-1.199 1.198-1.2-1.198a1.7 1.7 0 0 0-2.398 0c-.662.66-.662 1.734 0 2.396l1.199 1.198-1.199 1.198c-.662.661-.662 1.736 0 2.397a1.7 1.7 0 0 0 2.398 0l1.2-1.198 1.199 1.198a1.7 1.7 0 0 0 2.398 0c.662-.661.662-1.736 0-2.397l-1.199-1.198 1.199-1.198c.662-.661.662-1.736 0-2.396zm18.284 8.228l1.199-1.198c.662-.661.662-1.736 0-2.396a1.7 1.7 0 0 0-2.398 0l-1.2 1.198-1.2-1.198a1.7 1.7 0 0 0-2.398 0c-.662.66-.662 1.734 0 2.396l1.199 1.198-1.199 1.198c-.662.661-.662 1.736 0 2.397a1.7 1.7 0 0 0 2.398 0l1.2-1.199 1.2 1.199a1.7 1.7 0 0 0 2.398 0c.662-.661.662-1.736 0-2.397l-1.199-1.198z"/></g><rect x="357.845" y="102.958" width="51.68" height="30.417" rx="15.208" transform="matrix(-1 0 0 -1 767.37 236.334)" class="I"/><path d="M328.869 128.761l-30.364-30.364a56.25 56.25 0 0 0-39.775-16.476h-38.518l-43.953 43.953a19.31 19.31 0 0 0-5.656 13.655v21.441c0 5.121 2.035 10.033 5.656 13.655l11.185 11.186c7.542 7.542 7.542 19.769 0 27.31l-77.846 77.846a19.31 19.31 0 0 0-5.655 13.655v26.017l3.961 49.773a18.46 18.46 0 0 0 1.695 1.97l15.481 15.481a19.31 19.31 0 0 0 13.655 5.656h28.9c5.122 0 10.033-2.035 13.655-5.656l8.639-8.639c7.542-7.541 19.769-7.541 27.31 0a19.31 19.31 0 0 0 13.655 5.656h39.165c2.701 0 5.336.58 7.761 1.645h0c9.801-8.088 16.048-20.328 16.048-34.027 0-24.353-19.742-44.096-44.096-44.096h-19.191a34.74 34.74 0 0 1-24.561-10.173h0c-.459-.459-.863-.95-1.291-1.428-12.218-13.637-11.814-34.585 1.289-47.691l16.322-16.321a56.25 56.25 0 0 1 39.776-16.476h26.98c14.919 0 29.227-5.927 39.776-16.476s16.476-24.857 16.476-39.776v-1.523c0-14.919-5.927-29.227-16.476-39.776z" class="P"/><path d="M270.056 394.879h-39.165a19.31 19.31 0 0 1-13.655-5.656c-7.542-7.541-19.769-7.541-27.31 0l-8.639 8.639a19.31 19.31 0 0 1-13.655 5.656h-28.9c-5.122 0-10.033-2.035-13.655-5.656l-15.481-15.481c-.618-.617-1.177-1.28-1.695-1.97l-3.961-49.773v-26.017a19.31 19.31 0 0 1 5.655-13.655l77.846-77.846c7.542-7.541 7.542-19.768 0-27.31l-11.185-11.186c-3.621-3.621-5.656-8.534-5.656-13.655v-21.441c0-5.122 2.035-10.033 5.656-13.655l43.953-43.953h-8.175a56.25 56.25 0 0 0-39.775 16.476L33.953 227.27-29.721 286.6l24.97 119.994h254.52a43.91 43.91 0 0 0 28.048-10.069c-2.425-1.065-5.061-1.645-7.761-1.645z" class="I"/><g class="C K L M Q"><path d="M220.211 81.922h0"/><path d="M210.26 81.95c-14.274.451-27.869 6.318-37.999 16.448l-198.342 184.81" stroke-dasharray="0 9.952"/><path d="M268.047 394.879h-37.155a19.31 19.31 0 0 1-13.655-5.656c-7.542-7.542-19.769-7.542-27.31 0l-8.639 8.638c-3.621 3.622-8.533 5.656-13.655 5.656h-28.899c-5.122 0-10.033-2.035-13.655-5.656l-15.481-15.48c-.618-.617-1.177-1.28-1.695-1.97l-3.961-49.773v-26.017a19.31 19.31 0 0 1 5.655-13.654l77.846-77.846c7.542-7.542 7.542-19.768 0-27.31l-11.185-11.186c-3.621-3.621-5.656-8.534-5.656-13.655v-21.441a19.31 19.31 0 0 1 5.656-13.654l40.418-40.419" stroke-dasharray="0 9.997"/></g><path d="M146.686 101.212H158.2l3.12 28.471c.173 1.578-1.064 2.956-2.653 2.956h-12.505a2.67 2.67 0 0 1-2.652-2.962l3.176-28.466z" class="S"/><g clip-path="url(#R)" class="B T"><use href="#AD" style="mix-blend-mode:multiply" opacity=".25"/></g><path d="M152.415 100.307c0 4.151-1.65 8.132-4.588 11.068a15.67 15.67 0 0 1-11.08 4.584h-15.758v-10.348a15.65 15.65 0 0 1 4.588-11.07 15.68 15.68 0 0 1 11.08-4.584h15.758v10.35z" class="B J"/><g clip-path="url(#S)"><path d="M152.415 89.957l-35.069 29.975h35.069V89.957z" class="B D"/><path d="M119.757 114.077l31.408-25.651 2.483 3.041-31.408 25.651z" class="G"/><g class="B"><g class="H"><path d="M134.083 117.655h3.928v-6.602c0-1.083-.88-1.962-1.964-1.962s-1.964.879-1.964 1.962v6.602zm7.856.291h3.928v-13.027a1.96 1.96 0 0 0-1.962-1.96h-.004a1.96 1.96 0 0 0-1.962 1.96v13.027z"/></g><g class="D"><path d="M120.989 104.958v-3.717h5.996a1.86 1.86 0 0 1 1.316.546c.348.347.544.82.544 1.313h0a1.86 1.86 0 0 1-.544 1.315c-.35.349-.823.544-1.316.544h-5.996zm0-7.642v-3.925h11.787a1.96 1.96 0 0 1 1.962 1.96v.004a1.96 1.96 0 0 1-1.962 1.96h-11.787z"/></g></g></g><path d="M152.415 100.307c0 4.151 1.65 8.132 4.588 11.068a15.67 15.67 0 0 0 11.08 4.584h15.758v-10.348a15.65 15.65 0 0 0-4.588-11.07 15.68 15.68 0 0 0-11.08-4.584h-15.758v10.35z" class="B J"/><g clip-path="url(#T)"><path d="M152.415 89.957l35.069 29.975h-35.069V89.957z" class="B D"/><path d="M151.174 91.477l2.481-3.042 31.426 25.63-2.481 3.042z" class="G"/><g class="B"><g class="H"><path d="M170.746 117.655h-3.928v-6.602c0-1.083.88-1.962 1.964-1.962s1.964.879 1.964 1.962v6.602zm-7.856.291h-3.928v-13.025a1.96 1.96 0 0 1 .575-1.387c.367-.367.868-.575 1.389-.575a1.97 1.97 0 0 1 1.389.575 1.96 1.96 0 0 1 .575 1.387v13.025z"/></g><g class="D"><path d="M183.84 105.166v-3.925h-5.894a1.96 1.96 0 0 0-1.387.575 1.95 1.95 0 0 0-.575 1.386v.004a1.96 1.96 0 0 0 1.962 1.96h5.894zm0-7.85v-3.925h-11.785a1.97 1.97 0 0 0-1.389.575 1.96 1.96 0 0 0-.575 1.387c0 .52.206 1.02.575 1.387a1.96 1.96 0 0 0 1.389.575h11.785z"/></g></g></g><path d="M152.406 115.96l9.412-6.853c5.199-3.785 5.786-11.315 1.238-15.859l-3.292-3.29h-14.715l-3.292 3.29c-4.549 4.545-3.961 12.074 1.238 15.859l9.412 6.853z" class="B G"/><g clip-path="url(#U)"><path d="M152.406 116.926h-14.849v-28.16h14.849z" class="D"/><path d="M150.45 87.123h3.928v34.229h-3.928z" class="R"/><use href="#AE" class="D"/><use href="#AF" class="H"/><path d="M166.341 113.244c.639 0 1.268-.312 1.644-.885a1.96 1.96 0 0 0-.565-2.718l-7.984-5.233c-.908-.598-2.125-.34-2.719.563a1.96 1.96 0 0 0 .565 2.718l7.984 5.233c.332.218.706.322 1.074.322z" class="D"/><path d="M138.489 113.244c.368 0 .742-.103 1.074-.322l7.982-5.233a1.96 1.96 0 0 0-2.154-3.281l-7.982 5.233a1.96 1.96 0 0 0 1.079 3.603z" class="H"/></g><path d="M139.821 132.64h25.338" stroke-dasharray="0 11.617" stroke-width="11.617" class="I K L M"/></g></svg>