<svg xmlns="http://www.w3.org/2000/svg" width="1500" height="145" xmlns:v="https://vecta.io/nano"><style><![CDATA[.B{fill:none}.C{opacity:.2}.D{opacity:.6}.E{opacity:.146}.F{fill:#4aa3bd}.G{fill:#2f6ea2}.H{fill:#f0f0f0}.I{stroke-linecap:round}.J{stroke-linejoin:round}.K{stroke-miterlimit:10}.L{stroke:#162141}.M{fill:#162141}.N{fill-rule:evenodd}.O{fill:#f2b052}.P{fill:#39317c}.Q{fill:#15343f}.R{stroke-width:4.561}.S{fill:#df632e}.T{stroke:#f0f0f0}.U{stroke-width:3.982}]]></style><defs><clipPath id="A"><path d="M0 0h1500v145H0z" class="B"/></clipPath><clipPath id="B"><path d="M285.667-10.435c11.835-20.498 4.816-46.695-15.682-58.53s-46.697-4.816-58.531 15.682l74.213 42.848z" class="B"/></clipPath><clipPath id="C"><path d="M737.172-7.953l-18.717-13.096v66.79h19.678c1.568 0 2.816-1.332 2.734-2.92l-2.516-48.637c-.044-.859-.48-1.649-1.178-2.138z" class="B"/></clipPath><clipPath id="D"><path d="M702.873-7.953l-18.717-13.096v66.79h19.678c1.568 0 2.816-1.332 2.734-2.92l-2.516-48.637c-.044-.859-.48-1.649-1.178-2.138z" class="B"/></clipPath><clipPath id="E"><path d="M668.402-7.953l-18.717-13.096v66.79h19.678c1.568 0 2.816-1.332 2.734-2.92l-2.516-48.637c-.044-.859-.48-1.649-1.178-2.138z" class="B"/></clipPath><clipPath id="F"><path d="M833.8,60.016h-85.437v-4.437c0-15.109,12.085-27.357,26.994-27.357h41.925c3.548,0,6.7,2.294,7.833,5.701l8.685,26.093Z" class="B"/></clipPath><clipPath id="G"><path d="M762.967 60.016H833.8l-7.058-21.206h-44.144c-10.842 0-19.632 8.908-19.632 19.896v1.309z" class="B"/></clipPath><clipPath id="H"><path d="M859.342,91.022h-250.75l6.461-20.272c2.04-6.399,7.916-10.736,14.551-10.74l212.628-.083c3.302,0,6.261,2.068,7.434,5.197l9.675,25.898Z" class="B"/></clipPath><clipPath id="I"><path d="M776.755 82.894c-4.429 0-8.019 3.639-8.019 8.127s3.59 8.127 8.019 8.127 8.019-3.639 8.019-8.127-3.59-8.127-8.019-8.127zm0 11.728c-1.962 0-3.553-1.612-3.553-3.601s1.591-3.601 3.553-3.601 3.553 1.612 3.553 3.601-1.591 3.601-3.553 3.601z" class="B"/></clipPath><clipPath id="J"><path d="M803.403 82.894c-4.429 0-8.019 3.639-8.019 8.127s3.59 8.127 8.019 8.127 8.019-3.639 8.019-8.127-3.59-8.127-8.019-8.127zm0 11.728c-1.962 0-3.553-1.612-3.553-3.601s1.591-3.601 3.553-3.601 3.553 1.612 3.553 3.601-1.591 3.601-3.553 3.601z" class="B"/></clipPath><clipPath id="K"><path d="M829.935 82.894c-4.429 0-8.019 3.639-8.019 8.127s3.59 8.127 8.019 8.127 8.019-3.639 8.019-8.127-3.59-8.127-8.019-8.127zm0 11.728c-1.962 0-3.553-1.612-3.553-3.601s1.591-3.601 3.553-3.601 3.553 1.612 3.553 3.601-1.591 3.601-3.553 3.601z" class="B"/></clipPath><clipPath id="L"><path d="M899.587,91.104l-300.511-.08c-2.955,0-5.166,2.712-4.569,5.606l4.26,20.655c2,9.698,10.436,16.645,20.212,16.645h246.945c10.44,0,20.102-5.593,25.407-14.706l12.287-21.11c1.81-3.109-.433-7.01-4.03-7.01Z" class="B"/></clipPath><path id="M" d="M338.885 46.583c1.232 0 2.231-1 2.231-2.236v-7.001c0-1.236-.999-2.236-2.231-2.236s-2.231 1-2.231 2.236v7.001c0 1.236.999 2.236 2.231 2.236z"/><path id="N" d="M329.571 46.583c1.232 0 2.231-1 2.231-2.236V39.68c0-1.236-.999-2.236-2.231-2.236s-2.231 1-2.231 2.236v4.667c0 1.236.999 2.236 2.231 2.236z"/><path id="O" d="M304.441 65.061c1.232 0 2.231-1 2.231-2.236v-4.669c0-1.236-.999-2.236-2.231-2.236s-2.231 1-2.231 2.236v4.669c0 1.236.999 2.236 2.231 2.236z"/><path id="P" d="M295.806 26.355c1.232 0 2.231-1 2.231-2.236V19.45c0-1.236-.999-2.236-2.231-2.236s-2.231 1-2.231 2.236v4.669c0 1.236.999 2.236 2.231 2.236z"/><path id="Q" d="M291.829 111.962a7.15 7.15 0 0 0-2.096-5.063c-1.345-1.342-3.161-2.097-5.065-2.097h0c-1.904 0-3.72.755-5.065 2.097a7.15 7.15 0 0 0-2.096 5.063v6.897a7.15 7.15 0 0 0 2.096 5.063c1.345 1.342 3.161 2.097 5.065 2.097h0a7.16 7.16 0 0 0 5.065-2.097 7.15 7.15 0 0 0 2.096-5.063v-6.897z"/><path id="R" d="M737.172-7.953l-18.717-13.096v66.79h19.678c1.568 0 2.816-1.332 2.734-2.92l-2.516-48.637c-.044-.859-.48-1.649-1.178-2.138z"/><path id="S" d="M718.144 17.975h24.771v3.901h-24.771z"/><path id="T" d="M719.582 46.867h22.045v-57.431h-2.02l-20.025 57.431z"/><path id="U" d="M716.06 55.774h4.499a3.65 3.65 0 0 1 3.649 3.649v4.01h-11.797v-4.01a3.65 3.65 0 0 1 3.649-3.649z"/><path id="V" d="M787.241 51.169v10.768"/><path id="W" d="M817.977 67.01h15.438v8.207h-15.438z"/><path id="X" d="M808.549 67.041h-3.242l-8.829 8.207h3.185l8.886-8.207z"/><path id="Y" d="M794.778 67.002h15.509v4.112h-15.509z"/><path id="Z" d="M777.923 67.041h-3.246l-3.791 3.508.065 2.841 6.972-6.349z"/><path id="a" d="M761.922 67.041h-3.241l-8.829 8.207h3.184l8.886-8.207z"/><path id="b" d="M715.436 67.061h-3.241l-8.829 8.206h3.184l8.886-8.206z"/><path id="c" d="M708.124 67.061h-3.246l-3.791 3.508.065 2.84 6.972-6.348z"/><path id="d" d="M776.755 82.894c-4.429 0-8.019 3.639-8.019 8.127s3.59 8.127 8.019 8.127 8.019-3.639 8.019-8.127-3.59-8.127-8.019-8.127zm0 11.728c-1.962 0-3.553-1.612-3.553-3.601s1.591-3.601 3.553-3.601 3.553 1.612 3.553 3.601-1.591 3.601-3.553 3.601z"/><path id="e" d="M785.681 81.994l-17.851 18.092"/><path id="f" d="M767.83 81.994l17.851 18.092"/><path id="g" d="M975.567 42.789a4.57 4.57 0 0 0-3.23-1.337h-9.222a2.71 2.71 0 0 0-1.914.792l-1.192 1.191 1.192 1.191a2.71 2.71 0 0 0 1.914.792h9.301a4.57 4.57 0 0 0 3.23-1.337l.608-.607-.687-.686z"/><path id="h" d="M963.401 50.854h-9.222a2.71 2.71 0 0 0-1.914.792l-1.192 1.191 1.192 1.191a2.71 2.71 0 0 0 1.914.792h9.301a4.57 4.57 0 0 0 3.23-1.337l.608-.607-.687-.686a4.57 4.57 0 0 0-3.23-1.337z"/></defs><g clip-path="url(#A)"><path d="M-10.125-2579.564h1520.249v4049.482H-10.125z" fill="#61d1d5"/><path d="M1209.742-1888.582c-76.136 0-138.076 61.941-138.076 138.077 0 9.374-7.626 17-17 17H948.403c-9.374 0-17-7.626-17-17v-2.009c0-36.943-30.057-67-67-67h-75.775c-41.992 0-76.156-34.163-76.156-76.156v-85.988c0-34.188-27.813-62-62-62H505.54c-34.187 0-62 27.812-62 62v1.583c0 6.616-5.383 12-12 12h-77.199c-41.355 0-75 33.645-75 75v1.615c0 6.616-5.383 12-12 12H-56.875V20.767h125.29c19.299 0 35 15.701 35 35v28.562c0 46.869 38.131 85 85 85h282.678c46.869 0 85-38.131 85-85v-4.012c0-19.299 15.701-35 35-35h100.898c106.145 0 192.5-86.354 192.5-192.5 0-13.785 11.215-25 25-25h189.302c13.785 0 25 11.215 25 25v6.941c0 13.785-11.215 25-25 25h-1.646c-41.355 0-75 33.646-75 75.001V94.328c0 41.355 33.645 75 75 75h68.108c41.355 0 75-33.645 75-75 0-34.095 27.737-61.833 61.832-61.833h254.837v-1921.077h-347.181z" fill="#7ee6e4"/><path d="M1045.191-1313.972h0c0-51.28 41.571-92.851 92.85-92.851h57.665c32.387 0 58.642-26.255 58.642-58.642h0c0-32.387 26.255-58.642 58.642-58.642h218.932v-339.474h-322.181c-62.45 0-113.076 50.626-113.076 113.076h0c0 23.196-18.804 42-42 42H948.403c-23.196 0-42-18.804-42-42v-2.009c0-23.196-18.804-42-42-42h-75.776c-55.867 0-101.156-45.289-101.156-101.156v-85.988c0-20.435-16.565-37-37-37H505.539c-20.435 0-37 16.565-37 37v1.583c0 20.435-16.565 37-37 37H354.34c-27.614 0-50 22.386-50 50v1.615c0 20.435-16.565 37-37 37H-31.875V-4.233H68.414c33.137 0 60 26.863 60 60v28.561c0 33.137 26.863 60 60 60h282.678c33.137 0 60-26.863 60-60v-4.011c0-33.137 26.863-60 60-60H691.99c92.508 0 167.5-74.992 167.5-167.5h0c0-27.614 22.386-50 50-50h189.302c27.614 0 50 22.386 50 50v6.942c0 27.614-22.386 50-50 50h-1.647c-27.614 0-50 22.386-50 50V94.328c0 27.614 22.386 50 50 50h68.108c27.614 0 50-22.386 50-50h0c0-47.956 38.876-86.832 86.832-86.832h229.837v-328.037c0-39.064-31.668-70.732-70.732-70.732h-323.15c-50.932 0-92.285-41.008-92.845-91.807l-.006-830.892z" fill="#fbed97"/><path d="M1209.742-1803.581c-29.313 0-53.076 23.763-53.076 53.076h0c0 56.333-45.667 102-102 102H701.078c-40.652 0-73.606-32.955-73.606-73.606v-210.547c0-14.359-11.641-26-26-26H545.03c-10.394 0-19.895 6.146-23.89 15.742-14.612 35.099-49.272 59.841-89.6 59.841h-46.653c-11.17 0-21.157 7.295-24.204 18.042-11.534 40.685-49.013 70.574-93.342 70.574H-1.979L-13.354-52.12l115.314-.491c49.895 14.55 86.454 60.7 86.454 115.229v.695c.001 13.259 10.754 24.004 24.013 23.997l236.679-.131c11.698-.007 21.708-8.443 23.64-19.98 9.508-56.77 58.875-100.032 118.346-100.032H691.99c59.37 0 107.5-48.129 107.5-107.5h0c0-60.752 49.249-110 110-110h189.003c21.384 0 38.798-17.186 39.08-38.568h0c.246-18.686-12.768-34.942-31.062-38.758-28.801-6.009-55.263-20.244-76.552-41.532-28.243-28.244-44.073-65.595-44.746-105.431-.015-.883-.022-838.466-.022-839.351 0-40.828 15.899-79.212 44.769-108.081s67.254-44.769 108.082-44.769h28.622c14.589 0 27.327-10.069 30.48-24.313 11.76-53.123 59.237-92.972 115.846-92.972h312.76v-219.474h-416.008z" fill="#62c244"/><path d="M-3.347-52.162l105.307-.449c49.895 14.55 86.454 60.7 86.454 115.229v.695c.001 13.259 10.754 24.004 24.013 23.997l236.679-.131c11.698-.007 21.708-8.443 23.64-19.98 9.508-56.77 58.875-100.032 118.346-100.032H691.99c59.37 0 107.5-48.129 107.5-107.5h0c0-60.751 49.249-110 110-110h189.003c21.384 0 38.798-17.186 39.08-38.568.246-18.686-12.768-34.942-31.062-38.758-28.801-6.009-55.263-20.244-76.552-41.532-28.243-28.244-44.073-65.594-44.746-105.431-.015-.882-.022-838.466-.022-839.351 0-40.828 15.899-79.212 44.769-108.081s67.254-44.769 108.082-44.769h28.623c14.589 0 27.327-10.069 30.48-24.313 11.76-53.123 59.237-92.972 115.846-92.972h307.757" stroke="#62c244" stroke-dasharray="0 10.007" stroke-width="10" class="B I J"/><g opacity=".331" fill="#00703a"><use href="#M"/><use href="#N"/><path d="M347.424 46.583c1.232 0 2.231-1 2.231-2.236V39.68c0-1.236-.999-2.236-2.231-2.236s-2.231 1-2.231 2.236v4.667c0 1.236.999 2.236 2.231 2.236zm-33.669 18.478c1.232 0 2.231-1 2.231-2.236v-7.001c0-1.236-.999-2.236-2.231-2.236s-2.231 1-2.231 2.236v7.001c0 1.236.999 2.236 2.231 2.236z"/><use href="#O"/><path d="M322.292 65.061c1.232 0 2.231-1 2.231-2.236v-4.669c0-1.236-.999-2.236-2.231-2.236s-2.231 1-2.231 2.236v4.669c0 1.236.999 2.236 2.231 2.236zm-17.171-38.706c1.232 0 2.231-1 2.231-2.236v-7.001c0-1.236-.999-2.236-2.231-2.236s-2.231 1-2.231 2.236v7.001c0 1.236.999 2.236 2.231 2.236z"/><use href="#P"/><path d="M313.659 26.355c1.232 0 2.231-1 2.231-2.236V19.45c0-1.236-.999-2.236-2.231-2.236s-2.231 1-2.231 2.236v4.669c0 1.236.999 2.236 2.231 2.236z"/></g><g opacity=".35" class="O"><circle cx="1351.817" cy="101.356" r="2.427" transform="matrix(.541371 -.840784 .840784 .541371 534.763 1183.07)" class="D"/><circle cx="1342.634" cy="98.808" r="2.427" transform="matrix(.541371 -.840784 .840784 .541371 532.695 1174.181)" class="D"/><circle cx="1347.302" cy="92.648" r="2.427" transform="matrix(.541371 -.840784 .840784 .541371 540.014 1175.281)" class="D"/><circle cx="1325.442" cy="88.912" r="2.427" transform="matrix(.541371 -.840784 .840784 .541371 533.13 1155.187)" class="D"/><circle cx="1325.85" cy="105.289" r="2.427" transform="matrix(.541371 -.840784 .840784 .541371 519.547 1163.042)" class="D"/></g><g opacity=".35" class="O"><circle cx="1158.181" cy="90.741" r="2.427" transform="matrix(.541371 -.840784 .840784 .541371 454.882 1015.396)" class="D"/><circle cx="1148.999" cy="88.193" r="2.427" transform="matrix(.541371 -.840784 .840784 .541371 452.813 1006.508)" class="D"/><circle cx="1153.667" cy="82.033" r="2.427" transform="matrix(.541371 -.840784 .840784 .541371 460.133 1007.607)" class="D"/><circle cx="1131.806" cy="78.297" r="2.427" transform="matrix(.541371 -.840784 .840784 .541371 453.248 987.514)" class="D"/><circle cx="1132.215" cy="94.674" r="2.427" transform="matrix(.541371 -.840784 .840784 .541371 439.666 995.368)" class="D"/></g><path d="M1198.148 62.435h-27.345" stroke="#fbed97" stroke-dasharray="0 6.534" stroke-width="6.534" class="B I J"/><path d="M337.638 126.944c0-2.043-1.658-3.701-3.701-3.701H188.678c-2.043 0-3.701 1.658-3.701 3.701s1.658 3.701 3.701 3.701h145.259c2.042 0 3.701-1.658 3.701-3.701z" opacity=".3" class="O"/><g fill="#b74f25"><use href="#Q"/><path d="M310.333 111.962a7.15 7.15 0 0 0-2.096-5.063c-1.345-1.342-3.161-2.097-5.065-2.097h0c-1.904 0-3.72.755-5.065 2.097a7.15 7.15 0 0 0-2.096 5.063v6.897a7.15 7.15 0 0 0 2.096 5.063c1.345 1.342 3.161 2.097 5.065 2.097h0a7.16 7.16 0 0 0 5.065-2.097 7.15 7.15 0 0 0 2.096-5.063v-6.897zm18.948 0a7.15 7.15 0 0 0-2.096-5.063c-1.345-1.342-3.161-2.097-5.065-2.097h0c-1.904 0-3.72.755-5.065 2.097a7.15 7.15 0 0 0-2.096 5.063v6.897a7.15 7.15 0 0 0 2.096 5.063c1.345 1.342 3.161 2.097 5.065 2.097h0a7.16 7.16 0 0 0 5.065-2.097 7.15 7.15 0 0 0 2.096-5.063v-6.897zm-116.096 0a7.15 7.15 0 0 0-2.096-5.063c-1.345-1.342-3.161-2.097-5.065-2.097h0c-1.904 0-3.72.755-5.065 2.097a7.15 7.15 0 0 0-2.096 5.063v6.897a7.15 7.15 0 0 0 2.096 5.063c1.345 1.342 3.161 2.097 5.065 2.097h0a7.16 7.16 0 0 0 5.065-2.097 7.15 7.15 0 0 0 2.096-5.063v-6.897z"/></g><path d="M238.486-12.662l14.935-23.205-3.319-2.072-15.304,23.619V24.239h3.688V-12.662Z" fill="#fff"/><g clip-path="url(#B)"><path d="M240.335 3.739c-4.766 2.134-9.833 3.613-15.073 4.362a56.62 56.62 0 0 1-3.64-15.113l.05-.087c-1.219-12.462 1.692-25.21 8.671-36.133a56.78 56.78 0 0 1 24.49-21.189l.05-.087c4.797-2.161 9.906-3.657 15.186-4.412 1.918 4.892 3.133 9.982 3.64 15.113l.015.147c1.214 12.455-1.7 25.193-8.675 36.109-6.065 9.497-14.678 16.782-24.601 21.241l-.113.05z" fill="#ed9338"/></g><g fill="#fff"><path d="M232.647 24.244h2.776L220.14 126.019h-2.776l15.283-101.775zm24.504 0h-2.775l15.282 101.775h2.776L257.151 24.244z"/><path d="M232.166 37.196h25.444v2.776h-25.444zm1.389-12.955h22.668v2.776h-22.668z"/><path d="M232.626 10.371h24.518v14.341h-24.518zm-2.77 39.771h30.07v2.776h-30.07zm-1.849 12.955h33.771v2.776h-33.771zm-1.857 12.954h37.471v2.776H226.15zm-1.849 12.955h41.172v2.776h-41.172zm-1.849 12.955h44.873v2.776h-44.873zm-2.776 12.954h50.425v2.776h-50.425z"/></g><g fill="#e99a3b"><path d="M255.296-6.82c0-1.8-1.462-3.26-3.26-3.26h-13.835c-1.798 0-3.26 1.46-3.26 3.26v6.521c0 1.8 1.462 3.26 3.26 3.26h13.835c1.798 0 3.26-1.46 3.26-3.26V-6.82zM228.005 9.44c-1.279 0-2.314-1.036-2.314-2.313s1.036-2.314 2.314-2.314h10.239c1.279 0 2.315 1.036 2.315 2.314s-1.036 2.313-2.315 2.313h-10.239z"/><path d="M230.086 8.226c-.638 1.105-2.054 1.485-3.16.846s-1.485-2.055-.847-3.16l5.466-9.467c.638-1.105 2.054-1.485 3.16-.847s1.485 2.055.847 3.16l-5.466 9.467zm31.752 1.214c1.279 0 2.314-1.036 2.314-2.313s-1.036-2.314-2.314-2.314h-10.239c-1.279 0-2.315 1.036-2.315 2.314s1.036 2.313 2.315 2.313h10.239z"/><path d="M259.77 8.303c.636 1.102 2.053 1.484 3.159.845s1.484-2.056.848-3.158l-5.514-9.55c-.636-1.102-2.053-1.483-3.159-.845s-1.484 2.056-.848 3.158l5.514 9.55z"/></g><path d="M252.056,4.812h-13.878l-1.386,14.34h16.654l-1.39-14.34Z" fill="#f1d84b"/><path d="M253.448 19.151h-16.654l-.236 2.491c-.057.605.142 1.21.552 1.66s.991.707 1.6.707h12.824c.609 0 1.19-.256 1.601-.707a2.18 2.18 0 0 0 .552-1.66l-.24-2.491z" fill="#b74f25"/><g fill="#e99a3b"><path d="M253.448 23.249c0-.859-.341-1.678-.949-2.285a3.24 3.24 0 0 0-2.289-.951h0c-1.789 0-3.238 1.449-3.238 3.236v13.946h6.477V23.249zm-10.177 0c0-.859-.341-1.678-.949-2.285a3.24 3.24 0 0 0-2.29-.951h0c-1.789 0-3.238 1.449-3.238 3.236v13.946h6.477V23.249z"/><path d="M254.276 41.357a3.7 3.7 0 0 0-1.354-5.056l-4.007-2.313-1.85 3.205 7.211 4.164h0zm-18.213 0a3.7 3.7 0 0 1 1.354-5.056l4.007-2.313 1.85 3.205-7.211 4.164h0z"/></g><g fill="#0c1c1c"><circle cx="239.108" cy="-3.975" r="4.164"/><circle cx="251.137" cy="-3.975" r="4.164"/></g><use href="#R" class="P"/><g clip-path="url(#C)" class="Q"><use href="#S" style="mix-blend-mode:multiply" class="E"/><path style="mix-blend-mode:multiply" d="M718.144 25.93h24.771v3.901h-24.771zm0 7.955h24.771v3.901h-24.771zm0 7.955h24.771v3.901h-24.771zm0-31.82h24.771v3.901h-24.771zm0-7.955h24.771v3.901h-24.771z" class="E"/><use href="#T" style="mix-blend-mode:multiply" class="E"/></g><path d="M718.309-20.635v78.841" class="B I J L R"/><use href="#U" class="M"/><path d="M702.873-7.953l-18.717-13.096v66.79h19.678c1.568 0 2.816-1.332 2.734-2.92l-2.516-48.637c-.044-.859-.48-1.649-1.178-2.138z" class="P"/><g clip-path="url(#D)" class="Q"><path style="mix-blend-mode:multiply" d="M683.845 17.975h24.771v3.901h-24.771zm0 7.955h24.771v3.901h-24.771zm0 7.955h24.771v3.901h-24.771zm0 7.955h24.771v3.901h-24.771zm0-31.82h24.771v3.901h-24.771zm0-7.955h24.771v3.901h-24.771z" class="E"/><path style="mix-blend-mode:multiply" d="M685.282 46.867h22.045v-57.431h-2.02l-20.025 57.431z" class="E"/></g><path d="M684.01-20.635v78.841" class="B I J L R"/><path d="M681.761 55.774h4.499a3.65 3.65 0 0 1 3.649 3.649v4.01h-11.797v-4.01a3.65 3.65 0 0 1 3.649-3.649z" class="M"/><path d="M668.402-7.953l-18.717-13.096v66.79h19.678c1.568 0 2.816-1.332 2.734-2.92l-2.516-48.637c-.044-.859-.48-1.649-1.178-2.138z" class="P"/><g clip-path="url(#E)" class="Q"><path style="mix-blend-mode:multiply" d="M649.374 17.975h24.771v3.901h-24.771zm0 7.955h24.771v3.901h-24.771zm0 7.955h24.771v3.901h-24.771zm0 7.955h24.771v3.901h-24.771zm0-31.82h24.771v3.901h-24.771zm0-7.955h24.771v3.901h-24.771z" class="E"/><path style="mix-blend-mode:multiply" d="M650.811 46.867h22.045v-57.431h-2.02l-20.025 57.431z" class="E"/></g><path d="M649.539-20.635v78.841" class="B I J L R"/><path d="M647.29 55.774h4.499a3.65 3.65 0 0 1 3.649 3.649v4.01h-11.797v-4.01a3.65 3.65 0 0 1 3.649-3.649z" class="M"/><path d="M833.8,60.016h-85.437v-4.437c0-15.109,12.085-27.357,26.994-27.357h41.925c3.548,0,6.7,2.294,7.833,5.701l8.685,26.093Z" fill="#fff"/><g clip-path="url(#F)"><path d="M830.841,62.816h-85.437v-4.437c0-15.109,12.085-27.357,26.994-27.357h41.925c3.548,0,6.7,2.294,7.833,5.701l8.685,26.093Z" fill="#f4f7fd"/></g><g clip-path="url(#G)"><path d="M759.891,60.016h73.91l-7.058-21.206h-47.22c-10.842,0-19.632,8.908-19.632,19.896v1.309Z" class="F"/><path d="M828.44 43.912h-63.498v-5.101h61.8l1.698 5.101z" class="C G"/><g class="H"><path d="M826.513 36.368l-8.296.199-12.238 25.301h8.467l12.067-25.5zm-29.667.547l-20.153.319-11.916 24.634h20.261l11.808-24.953zm9.454-.432l-3.719.601-11.989 24.784 3.835-.294L806.3 36.483zm27.93 4.179h-4.727l-10.258 21.206h4.95l10.035-21.206z" class="C"/></g></g><g stroke-width="3.932" class="B K L"><path d="M838.913 61.937v-5.651c0-2.808-2.251-5.081-5.021-5.071l-11.02.04-185.831-.04c-2.659 0-4.815 2.183-4.815 4.878v15.845m189.463-10.001V51.255m-17.224.052v10.63"/><use href="#V"/><path d="M770.017 51.169v10.768m-17.224-10.768v10.768m-17.224-10.768v10.768m-17.224-10.768v10.768m-17.224-10.768v10.768m-17.224-10.768v10.768m-17.224-10.768v10.768m-17.224-10.768v10.768"/></g><path d="M859.342,91.022h-250.75l6.461-20.272c2.04-6.399,7.916-10.736,14.551-10.74l212.628-.083c3.302,0,6.261,2.068,7.434,5.197l9.675,25.898Z" fill="#fff"/><g clip-path="url(#H)"><path d="M856.672,94.935h-250.75l6.461-20.272c2.04-6.399,7.916-10.736,14.551-10.74l212.628-.083c3.302,0,6.261,2.068,7.434,5.197l9.675,25.898Z" fill="#e3eefc" opacity=".5"/></g><g class="F"><path d="M794.85 67.041h15.438v8.207H794.85z"/><use href="#W"/><path d="M853.441 75.217h-12.099V67.01l9.042.051 3.057 8.156z" class="N"/></g><g class="H"><path d="M832.37 67.01l-3.275-.008-8.727 8.246h3.105l8.897-8.238zm-7.33 0l-3.272.072-3.791 3.508.065 2.84 6.998-6.42z" class="C"/><use href="#X" class="C"/><path d="M801.237 67.041h-3.247l-3.791 3.508.066 2.841 6.972-6.349zm50.261 2.994l-.81-2.162-8.081 7.344h3.105l5.786-5.182zm-4.245-2.851h-3.246l-2.665 2.466v3.47l5.911-5.936z" class="C"/></g><g class="G"><use href="#Y" class="C"/><path d="M817.977 67.01h15.438v4.134h-15.438z" class="C"/><path d="M851.903 71.114h-10.597v-4.073h8.995l1.602 4.073z" class="C N"/></g><path d="M771.537 67.041h15.438v8.207h-15.438z" class="F"/><g class="H"><path d="M785.236 67.041h-3.242l-8.829 8.207h3.185l8.886-8.207z" class="C"/><use href="#Z" class="C"/></g><path d="M771.465 67.002h15.509v4.112h-15.509z" class="C G"/><path d="M748.223 67.041h15.438v8.207h-15.438z" class="F"/><g class="H"><use href="#a" class="C"/><path d="M754.61 67.041h-3.246l-3.791 3.508.065 2.841 6.972-6.349z" class="C"/></g><path d="M748.152 67.002h15.509v4.112h-15.509z" class="C G"/><path d="M724.91 67.041h15.438v8.207H724.91z" class="F"/><g class="H"><path d="M738.609 67.041h-3.241l-8.829 8.207h3.184l8.886-8.207zm-7.312 0h-3.246l-3.791 3.508.065 2.841 6.972-6.349z" class="C"/></g><path d="M724.839 67.002h15.509v4.112h-15.509z" class="C G"/><path d="M701.737 67.061h15.438v8.207h-15.438z" class="F"/><g class="H"><use href="#b" class="C"/><use href="#c" class="C"/></g><path d="M701.666 67.022h15.509v4.112h-15.509z" class="C G"/><path d="M678.424 67.061h15.438v8.207h-15.438z" class="F"/><g class="H"><path d="M692.123 67.061h-3.241l-8.829 8.206h3.184l8.886-8.206zm-7.312 0h-3.246l-3.791 3.508.065 2.84 6.972-6.348z" class="C"/></g><path d="M678.353 67.022h15.509v4.112h-15.509z" class="C G"/><g clip-path="url(#I)"><use href="#d" class="S"/><g class="B K T U"><use href="#e"/><use href="#f"/></g></g><g clip-path="url(#J)"><path d="M803.403 82.894c-4.429 0-8.019 3.639-8.019 8.127s3.59 8.127 8.019 8.127 8.019-3.639 8.019-8.127-3.59-8.127-8.019-8.127zm0 11.728c-1.962 0-3.553-1.612-3.553-3.601s1.591-3.601 3.553-3.601 3.553 1.612 3.553 3.601-1.591 3.601-3.553 3.601z" class="S"/><g class="B K T U"><path d="M812.328 81.994l-17.851 18.092"/><path d="M794.477 81.994l17.851 18.092"/></g></g><g clip-path="url(#K)"><path d="M829.935 82.894c-4.429 0-8.019 3.639-8.019 8.127s3.59 8.127 8.019 8.127 8.019-3.639 8.019-8.127-3.59-8.127-8.019-8.127zm0 11.728c-1.962 0-3.553-1.612-3.553-3.601s1.591-3.601 3.553-3.601 3.553 1.612 3.553 3.601-1.591 3.601-3.553 3.601z" class="S"/><g class="B K T U"><path d="M838.861 81.994l-17.851 18.092"/><path d="M821.01 81.994l17.851 18.092"/></g></g><g clip-path="url(#L)"><path d="M899.587,91.104l-300.511-.08c-2.955,0-5.166,2.712-4.569,5.606l4.26,20.655c2,9.698,10.436,16.645,20.212,16.645h246.945c10.44,0,20.102-5.593,25.407-14.706l12.287-21.11c1.81-3.109-.433-7.01-4.03-7.01Z" class="M"/><path d="M590.257 101.658H924.78" stroke="#b13530" stroke-width="5.565" class="B K"/></g><path d="M893.071 121.89l-18.026-5.919c-5.041-1.655-10.509-1.444-15.407.596l-3.746 1.56c-5.757 2.397-12.257 2.253-17.902-.395l-.141-.066c-5.77-2.707-12.428-2.795-18.267-.239l-1.299.568c-5.674 2.483-12.128 2.474-17.795-.024h0c-6.502-2.867-13.986-2.435-20.116 1.159l-1.099.644c-2.316 1.358-5.067 1.766-7.678 1.139l-15.57-3.739c-3.962-.951-8.11-.79-11.987.466l-5.284 1.712a22.12 22.12 0 0 1-15.413-.659l-6.17-2.6a22.12 22.12 0 0 0-13.153-1.261l-16.829 3.545c-3.7.78-7.552.381-11.014-1.141l-.625-.275c-5.067-2.226-10.905-1.816-15.61 1.099h0c-2.362 1.463-5.212 1.919-7.913 1.265l-19.727-4.777c-2.991-.724-6.149-.085-8.622 1.746h0c-2.772 2.052-6.383 2.594-9.636 1.445l-14.492-5.116c-3.135-1.107-6.61-.646-9.348 1.24l-6.055 4.17v11.956l26.226 11.57 137.775 14.27 131.423-3.085 13.499-30.854z" fill="#61d1d5"/><path d="M530.081-46.023c-.542-1.869.346-3.77 1.981-4.243s3.403.659 3.944 2.528l17.349 59.828-5.925 1.715-17.349-59.828z" fill="#3a4517" class="N"/><g fill="#fbed97"><rect x="550.472" y="9.566" width="4.455" height="6.677" rx="2.227" transform="matrix(-.960556 .278086 -.278086 -.960556 1087.188 -128.395)"/><rect x="546.193" y="10.805" width="4.455" height="6.677" rx="2.227" transform="matrix(-.960556 .278086 -.278086 -.960556 1079.143 -124.776)"/></g><g fill="#4bc4c4" class="N"><use href="#g"/><path d="M956.76,46.033l3.249-2.597-3.249-2.597c.994,1.589.994,3.605,0,5.194Z"/><use href="#h"/><path d="M947.823 55.435l3.249-2.597-3.249-2.597c.994 1.589.994 3.605 0 5.194zm16.778-31.927a4.57 4.57 0 0 0-3.23-1.337h-9.222a2.71 2.71 0 0 0-1.914.792l-1.192 1.191 1.192 1.191a2.71 2.71 0 0 0 1.914.792h9.301a4.57 4.57 0 0 0 3.23-1.337l.608-.607-.687-.686z"/><path d="M945.794 26.752l3.249-2.597-3.249-2.597c.994 1.589.994 3.605 0 5.194zm6.64 4.822h-9.222a2.71 2.71 0 0 0-1.914.792l-1.192 1.191 1.192 1.191a2.71 2.71 0 0 0 1.914.792h9.301a4.57 4.57 0 0 0 3.23-1.337l.608-.607-.687-.686a4.57 4.57 0 0 0-3.23-1.337z"/><path d="M936.857 36.154l3.249-2.597-3.249-2.597c.994 1.589.994 3.605 0 5.194zm56.174 17.881a4.57 4.57 0 0 0-3.23-1.337h-9.222a2.71 2.71 0 0 0-1.914.792l-1.192 1.191 1.192 1.191a2.71 2.71 0 0 0 1.914.792h9.301a4.57 4.57 0 0 0 3.23-1.337l.608-.607-.687-.686z"/><path d="M974.224 57.279l3.249-2.597-3.249-2.597c.994 1.589.994 3.605 0 5.194zm6.641 4.821h-9.222a2.71 2.71 0 0 0-1.914.792l-1.192 1.191 1.192 1.191a2.71 2.71 0 0 0 1.914.792h9.301a4.57 4.57 0 0 0 3.23-1.337l.608-.607-.687-.686a4.57 4.57 0 0 0-3.23-1.337z"/><path d="M965.288 66.68l3.249-2.597-3.249-2.597c.994 1.589.994 3.605 0 5.194zm-18.557-21.787a4.57 4.57 0 0 0-3.23-1.337h-9.222a2.71 2.71 0 0 0-1.914.792l-1.192 1.191 1.192 1.191a2.71 2.71 0 0 0 1.914.792h9.301a4.57 4.57 0 0 0 3.23-1.337l.608-.607-.687-.686z"/><path d="M927.924 48.137l3.249-2.597-3.249-2.597c.994 1.589.994 3.605 0 5.194zm6.641 4.821h-9.222a2.71 2.71 0 0 0-1.914.792l-1.192 1.191 1.192 1.191a2.71 2.71 0 0 0 1.914.792h9.301a4.57 4.57 0 0 0 3.23-1.337l.608-.607-.687-.686a4.57 4.57 0 0 0-3.23-1.337z"/><path d="M918.988,57.539l3.249-2.597-3.249-2.597c.994,1.589.994,3.605,0,5.194Z"/></g></g></svg>