<svg xmlns="http://www.w3.org/2000/svg" width="1500" height="145" xmlns:v="https://vecta.io/nano"><style><![CDATA[.B{fill:none}.C{opacity:.6}.D{stroke-miterlimit:10}.E{stroke-linecap:round}.F{fill:#f8d748}.G{fill:#f3b840}.H{fill-rule:evenodd}.I{stroke-linejoin:round}.J{stroke-width:5.197}.K{stroke-width:2.721}]]></style><defs><clipPath id="A"><path d="M0 0h1500v145H0z" class="B"/></clipPath><clipPath id="B"><path d="M-25.02-439.442h72.959c48.772 0 88.31-39.538 88.31-88.31h0c0-48.772 39.538-88.31 88.31-88.31h35.71c48.772 0 88.31-39.538 88.31-88.31v-78.843c0-62.376 50.565-112.941 112.941-112.941h0c62.376 0 112.941-50.565 112.941-112.941v-164.894c0-62.376-50.565-112.941-112.941-112.941h-40.531c-83.654 0-151.469-67.815-151.469-151.469v-120.847c0-33.137-26.863-60-60-60H-25.02v1179.804z" class="B"/></clipPath><clipPath id="C"><path d="M1290.718 199.069l18.376-13.381c10.15-7.391 11.297-22.091 2.416-30.964l-6.428-6.423h-28.729l-6.428 6.423c-8.881 8.873-7.734 23.573 2.416 30.964l18.376 13.381z" clip-rule="evenodd" class="B"/></clipPath><clipPath id="D"><path d="M644.605 37.409H509.33v-82.057l67.638-28.571 67.637 28.571v82.057z" class="B"/></clipPath><clipPath id="E"><path d="M591.031 37.409h-28.187l-.001-40.08h28.249l-.061 40.08z" class="B"/></clipPath><clipPath id="F"><path d="M552.628 17.212h-28.187l-.001-19.97h28.249l-.061 19.97z" class="B"/></clipPath><clipPath id="G"><path d="M629.434 17.212h-28.187l-.001-19.97h28.249l-.061 19.97z" class="B"/></clipPath><path id="H" d="M295.674-5.886v8.148c0 1.896-1.542 3.438-3.438 3.438h-21.187c-1.896 0-3.438-1.542-3.438-3.438v-8.148c0-1.896 1.542-3.438 3.438-3.438h21.187c1.896 0 3.438 1.542 3.438 3.438zm-3.438 9.671c.84 0 1.523-.683 1.523-1.523v-8.148c0-.84-.683-1.523-1.523-1.523h-21.187c-.84 0-1.523.683-1.523 1.523v8.148c0 .84.683 1.523 1.523 1.523h21.187z"/><path id="I" d="M269.526-5.886v8.148c0 1.896-1.542 3.438-3.438 3.438h-21.187c-1.896 0-3.438-1.542-3.438-3.438v-8.148c0-1.896 1.542-3.438 3.438-3.438h21.187c1.896 0 3.438 1.542 3.438 3.438zm-3.437 9.671c.84 0 1.523-.683 1.523-1.523v-8.148c0-.84-.683-1.523-1.523-1.523h-21.187c-.84 0-1.523.683-1.523 1.523v8.148c0 .84.683 1.523 1.523 1.523h21.187z"/><path id="J" d="M243.351-5.886v8.148c0 1.896-1.542 3.438-3.438 3.438h-21.187c-1.895 0-3.437-1.542-3.437-3.438v-8.148c0-1.896 1.542-3.438 3.437-3.438h21.187c1.896 0 3.438 1.542 3.438 3.438zm-3.438 9.671c.84 0 1.523-.683 1.523-1.523v-8.148c0-.84-.683-1.523-1.523-1.523h-21.187c-.84 0-1.523.683-1.523 1.523v8.148c0 .84.683 1.523 1.523 1.523h21.187z"/><path id="K" d="M191.05-5.886v8.148c0 1.896-1.542 3.438-3.437 3.438h-21.187c-1.896 0-3.438-1.542-3.438-3.438v-8.148c0-1.896 1.542-3.438 3.438-3.438h21.187c1.895 0 3.437 1.542 3.437 3.438zm-3.437 9.671c.84 0 1.523-.683 1.523-1.523v-8.148c0-.84-.683-1.523-1.523-1.523h-21.187c-.84 0-1.523.683-1.523 1.523v8.148c0 .84.683 1.523 1.523 1.523h21.187z"/><path id="L" d="M256.47 7.223v8.147c0 1.896-1.542 3.438-3.438 3.438h-21.187c-1.896 0-3.438-1.542-3.438-3.438V7.223c0-1.896 1.542-3.438 3.438-3.438h21.187c1.896 0 3.438 1.542 3.438 3.438zm-3.438 9.67c.84 0 1.523-.683 1.523-1.523V7.223c0-.84-.683-1.523-1.523-1.523h-21.187c-.84 0-1.523.683-1.523 1.523v8.147c0 .84.683 1.523 1.523 1.523h21.187z"/><path id="M" d="M204.146 7.223v8.147c0 1.896-1.542 3.438-3.437 3.438h-21.187c-1.896 0-3.438-1.542-3.438-3.438V7.223c0-1.896 1.542-3.438 3.438-3.438h21.187c1.895 0 3.437 1.542 3.437 3.438zm-3.437 9.67c.84 0 1.523-.683 1.523-1.523V7.223c0-.84-.683-1.523-1.523-1.523h-21.187c-.84 0-1.523.683-1.523 1.523v8.147c0 .84.683 1.523 1.523 1.523h21.187z"/><path id="N" d="M295.674 20.331v8.147c0 1.896-1.542 3.438-3.438 3.438h-21.187c-1.896 0-3.438-1.542-3.438-3.438v-8.147c0-1.896 1.542-3.438 3.438-3.438h21.187c1.896 0 3.438 1.542 3.438 3.438zm-3.438 9.67c.84 0 1.523-.683 1.523-1.523v-8.147c0-.84-.683-1.523-1.523-1.523h-21.187c-.84 0-1.523.683-1.523 1.523v8.147c0 .84.683 1.523 1.523 1.523h21.187z"/><path id="O" d="M269.526 20.331v8.147c0 1.896-1.542 3.438-3.438 3.438h-21.187c-1.896 0-3.438-1.542-3.438-3.438v-8.147c0-1.896 1.542-3.438 3.438-3.438h21.187c1.896 0 3.438 1.542 3.438 3.438zm-3.437 9.67c.84 0 1.523-.683 1.523-1.523v-8.147c0-.84-.683-1.523-1.523-1.523h-21.187c-.84 0-1.523.683-1.523 1.523v8.147c0 .84.683 1.523 1.523 1.523h21.187z"/><path id="P" d="M243.351 20.331v8.147c0 1.896-1.542 3.438-3.438 3.438h-21.187c-1.895 0-3.437-1.542-3.437-3.438v-8.147c0-1.896 1.542-3.438 3.437-3.438h21.187c1.896 0 3.438 1.542 3.438 3.438zm-3.438 9.67c.84 0 1.523-.683 1.523-1.523v-8.147c0-.84-.683-1.523-1.523-1.523h-21.187c-.84 0-1.523.683-1.523 1.523v8.147c0 .84.683 1.523 1.523 1.523h21.187z"/><path id="Q" d="M191.05 20.331v8.147c0 1.896-1.542 3.438-3.437 3.438h-21.187c-1.896 0-3.438-1.542-3.438-3.438v-8.147c0-1.896 1.542-3.438 3.438-3.438h21.187c1.895 0 3.437 1.542 3.437 3.438zm-3.437 9.67c.84 0 1.523-.683 1.523-1.523v-8.147c0-.84-.683-1.523-1.523-1.523h-21.187c-.84 0-1.523.683-1.523 1.523v8.147c0 .84.683 1.523 1.523 1.523h21.187z"/><path id="R" d="M295.674 46.547v8.147c0 1.896-1.542 3.438-3.438 3.438h-21.187c-1.896 0-3.438-1.542-3.438-3.438v-8.147c0-1.896 1.542-3.438 3.438-3.438h21.187c1.896 0 3.438 1.542 3.438 3.438zm-3.438 9.671c.84 0 1.523-.683 1.523-1.523v-8.147c0-.84-.683-1.523-1.523-1.523h-21.187c-.84 0-1.523.683-1.523 1.523v8.147c0 .84.683 1.523 1.523 1.523h21.187z"/><path id="S" d="M269.526 46.547v8.147c0 1.896-1.542 3.438-3.438 3.438h-21.187c-1.896 0-3.438-1.542-3.438-3.438v-8.147c0-1.896 1.542-3.438 3.438-3.438h21.187c1.896 0 3.438 1.542 3.438 3.438zm-3.437 9.671c.84 0 1.523-.683 1.523-1.523v-8.147c0-.84-.683-1.523-1.523-1.523h-21.187c-.84 0-1.523.683-1.523 1.523v8.147c0 .84.683 1.523 1.523 1.523h21.187z"/><path id="T" d="M243.351 46.547v8.147c0 1.896-1.542 3.438-3.438 3.438h-21.187c-1.895 0-3.437-1.542-3.437-3.438v-8.147c0-1.896 1.542-3.438 3.437-3.438h21.187c1.896 0 3.438 1.542 3.438 3.438zm-3.438 9.671c.84 0 1.523-.683 1.523-1.523v-8.147c0-.84-.683-1.523-1.523-1.523h-21.187c-.84 0-1.523.683-1.523 1.523v8.147c0 .84.683 1.523 1.523 1.523h21.187z"/><path id="U" d="M191.05 46.547v8.147c0 1.896-1.542 3.438-3.437 3.438h-21.187c-1.896 0-3.438-1.542-3.438-3.438v-8.147c0-1.896 1.542-3.438 3.438-3.438h21.187c1.895 0 3.437 1.542 3.437 3.438zm-3.437 9.671c.84 0 1.523-.683 1.523-1.523v-8.147c0-.84-.683-1.523-1.523-1.523h-21.187c-.84 0-1.523.683-1.523 1.523v8.147c0 .84.683 1.523 1.523 1.523h21.187z"/><path id="V" d="M785.368 58.124l-2.966 2.371 2.966 2.371a4.47 4.47 0 0 1 0-4.742z"/><path id="W" d="M807.183 66.188l2.966 2.371a4.47 4.47 0 0 1 0-4.742l-2.966 2.371z"/><path id="X" d="M830.267 47.006h-8.42a4.17 4.17 0 0 0-2.948 1.22l-.627.627.555.554c.782.781 1.843 1.22 2.949 1.22h8.492a2.47 2.47 0 0 0 1.747-.723l1.088-1.087-1.088-1.087a2.47 2.47 0 0 0-1.747-.723z"/><path id="Y" d="M860.709 46.384h-8.419c-1.106 0-2.166.439-2.949 1.22l-.627.627.555.554c.782.781 1.843 1.22 2.948 1.22h8.492c.656 0 1.284-.26 1.748-.723l1.088-1.087-1.088-1.087a2.47 2.47 0 0 0-1.748-.723z"/><path id="Z" d="M841.753 62.398h-8.419c-1.106 0-2.167.439-2.949 1.22l-.627.627.555.554c.782.781 1.843 1.22 2.948 1.22h8.492c.656 0 1.284-.26 1.748-.723l1.088-1.087-1.088-1.087a2.47 2.47 0 0 0-1.748-.723z"/><path id="a" d="M552.628 17.212h-28.187l-.001-19.97h28.249l-.061 19.97z"/><path id="b" d="M527.804 1.138h8.94v15.289h-8.94z"/><path id="c" d="M531.502 17.212v8.487"/><path id="d" d="M527.804 11.057h8.94v4.832h-8.94z"/><path id="e" d="M508.607 38.392v11.966"/></defs><g clip-path="url(#A)"><path d="M-10.125-549.564h1520.249v4049.482H-10.125z" fill="#61d1d5"/><g opacity=".2"><g clip-path="url(#B)" fill="#97cec8"><path d="M34.121-5.886V2.262c0,1.896-1.542,3.438-3.438,3.438H9.495c-1.896,0-3.438-1.542-3.438-3.438V-5.886c0-1.896,1.542-3.438,3.438-3.438h21.187c1.896,0,3.438,1.542,3.438,3.438ZM30.683,3.785c.84,0,1.523-.683,1.523-1.523V-5.886c0-.84-.683-1.523-1.523-1.523H9.495c-.84,0-1.523.683-1.523,1.523V2.262c0,.84.683,1.523,1.523,1.523h21.187Z"/><path d="M7.972-5.886v8.148C7.972 4.158 6.43 5.7 4.535 5.7h-21.187c-1.896 0-3.438-1.542-3.438-3.438v-8.148c0-1.896 1.542-3.438 3.438-3.438H4.535c1.895 0 3.437 1.542 3.437 3.438zM4.535 3.785c.84 0 1.523-.683 1.523-1.523v-8.148c0-.84-.683-1.523-1.523-1.523h-21.187c-.84 0-1.523.683-1.523 1.523v8.148c0 .84.683 1.523 1.523 1.523H4.535z"/><path d="M21.064 7.223v8.147c0 1.896-1.542 3.438-3.438 3.438H-3.561c-1.896 0-3.438-1.542-3.438-3.438V7.223c0-1.896 1.542-3.438 3.438-3.438h21.187c1.896 0 3.438 1.542 3.438 3.438zm-3.438 9.67c.84 0 1.523-.683 1.523-1.523V7.223c0-.84-.683-1.523-1.523-1.523H-3.561c-.84 0-1.523.683-1.523 1.523v8.147c0 .84.683 1.523 1.523 1.523h21.187z"/><path d="M34.121 20.331v8.147c0 1.896-1.542 3.438-3.438 3.438H9.495c-1.896 0-3.438-1.542-3.438-3.438v-8.147c0-1.896 1.542-3.438 3.438-3.438h21.187c1.896 0 3.438 1.542 3.438 3.438zm-3.438 9.67c.84 0 1.523-.683 1.523-1.523v-8.147c0-.84-.683-1.523-1.523-1.523H9.495c-.84 0-1.523.683-1.523 1.523v8.147c0 .84.683 1.523 1.523 1.523h21.187z"/><path d="M7.972 20.331v8.147c0 1.896-1.542 3.438-3.437 3.438h-21.187c-1.896 0-3.438-1.542-3.438-3.438v-8.147c0-1.896 1.542-3.438 3.438-3.438H4.535c1.895 0 3.437 1.542 3.437 3.438zm-3.437 9.67c.84 0 1.523-.683 1.523-1.523v-8.147c0-.84-.683-1.523-1.523-1.523h-21.187c-.84 0-1.523.683-1.523 1.523v8.147c0 .84.683 1.523 1.523 1.523H4.535z"/><path d="M21.064 33.439v8.147c0 1.896-1.542 3.438-3.438 3.438H-3.561c-1.896 0-3.438-1.542-3.438-3.438v-8.147c0-1.896 1.542-3.438 3.438-3.438h21.187c1.896 0 3.438 1.542 3.438 3.438zm-3.438 9.67c.84 0 1.523-.683 1.523-1.523v-8.147c0-.84-.683-1.523-1.523-1.523H-3.561c-.84 0-1.523.683-1.523 1.523v8.147c0 .84.683 1.523 1.523 1.523h21.187z"/><path d="M34.121 46.547v8.147c0 1.896-1.542 3.438-3.438 3.438H9.495c-1.896 0-3.438-1.542-3.438-3.438v-8.147c0-1.896 1.542-3.438 3.438-3.438h21.187c1.896 0 3.438 1.542 3.438 3.438zm-3.438 9.671c.84 0 1.523-.683 1.523-1.523v-8.147c0-.84-.683-1.523-1.523-1.523H9.495c-.84 0-1.523.683-1.523 1.523v8.147c0 .84.683 1.523 1.523 1.523h21.187z"/><path d="M7.972,46.547v8.147c0,1.896-1.542,3.438-3.437,3.438h-21.187c-1.896,0-3.438-1.542-3.438-3.438v-8.147c0-1.896,1.542-3.438,3.438-3.438H4.535c1.895,0,3.437,1.542,3.437,3.438ZM4.535,56.218c.84,0,1.523-.683,1.523-1.523v-8.147c0-.84-.683-1.523-1.523-1.523h-21.187c-.84,0-1.523.683-1.523,1.523v8.147c0,.84.683,1.523,1.523,1.523H4.535Z"/><use href="#H"/><use href="#I"/><path d="M34.166-5.886V2.262c0,1.896-1.542,3.438-3.438,3.438H9.54c-1.896,0-3.438-1.542-3.438-3.438V-5.886c0-1.896,1.542-3.438,3.438-3.438h21.187c1.896,0,3.438,1.542,3.438,3.438ZM30.728,3.785c.84,0,1.523-.683,1.523-1.523V-5.886c0-.84-.683-1.523-1.523-1.523H9.54c-.84,0-1.523.683-1.523,1.523V2.262c0,.84.683,1.523,1.523,1.523h21.187Z"/><use href="#J"/><path d="M217.203-5.886v8.148c0 1.896-1.542 3.438-3.438 3.438h-21.187c-1.896 0-3.438-1.542-3.438-3.438v-8.148c0-1.896 1.542-3.438 3.438-3.438h21.187c1.896 0 3.438 1.542 3.438 3.438zm-3.438 9.671c.84 0 1.523-.683 1.523-1.523v-8.148c0-.84-.683-1.523-1.523-1.523h-21.187c-.84 0-1.523.683-1.523 1.523v8.148c0 .84.683 1.523 1.523 1.523h21.187z"/><use href="#K"/><path d="M164.903-5.886v8.148c0 1.896-1.542 3.438-3.438 3.438h-21.187c-1.896 0-3.438-1.542-3.438-3.438v-8.148c0-1.896 1.542-3.438 3.438-3.438h21.187c1.896 0 3.438 1.542 3.438 3.438zm-3.438 9.671c.84 0 1.523-.683 1.523-1.523v-8.148c0-.84-.683-1.523-1.523-1.523h-21.187c-.84 0-1.523.683-1.523 1.523v8.148c0 .84.683 1.523 1.523 1.523h21.187z"/><path d="M138.727-5.886v8.148c0 1.896-1.542 3.438-3.438 3.438h-21.187c-1.896 0-3.438-1.542-3.438-3.438v-8.148c0-1.896 1.542-3.438 3.438-3.438h21.187c1.896 0 3.438 1.542 3.438 3.438zm-3.438 9.671c.84 0 1.523-.683 1.523-1.523v-8.148c0-.84-.683-1.523-1.523-1.523h-21.187c-.84 0-1.523.683-1.523 1.523v8.148c0 .84.683 1.523 1.523 1.523h21.187z"/><path d="M112.579-5.886v8.148c0 1.896-1.542 3.438-3.438 3.438H87.954c-1.896 0-3.438-1.542-3.438-3.438v-8.148c0-1.896 1.542-3.438 3.438-3.438h21.187c1.896 0 3.438 1.542 3.438 3.438zm-3.438 9.671c.84 0 1.523-.683 1.523-1.523v-8.148c0-.84-.683-1.523-1.523-1.523H87.954c-.84 0-1.523.683-1.523 1.523v8.148c0 .84.683 1.523 1.523 1.523h21.187z"/><path d="M86.462-5.886v8.148c0 1.896-1.542 3.438-3.438 3.438H61.837c-1.896 0-3.438-1.542-3.438-3.438v-8.148c0-1.896 1.542-3.438 3.438-3.438h21.187c1.896 0 3.438 1.542 3.438 3.438zm-3.438 9.671c.84 0 1.523-.683 1.523-1.523v-8.148c0-.84-.683-1.523-1.523-1.523H61.837c-.84 0-1.523.683-1.523 1.523v8.148c0 .84.683 1.523 1.523 1.523h21.187z"/><path d="M60.313-5.886v8.148c0 1.896-1.542 3.438-3.438 3.438H35.688c-1.896 0-3.438-1.542-3.438-3.438v-8.148c0-1.896 1.542-3.438 3.438-3.438h21.187c1.896 0 3.438 1.542 3.438 3.438zm-3.437 9.671c.84 0 1.523-.683 1.523-1.523v-8.148c0-.84-.683-1.523-1.523-1.523H35.689c-.84 0-1.523.683-1.523 1.523v8.148c0 .84.683 1.523 1.523 1.523h21.187zm225.742 3.438v8.147c0 1.896-1.542 3.438-3.438 3.438h-21.187c-1.895 0-3.437-1.542-3.437-3.438V7.223c0-1.896 1.542-3.438 3.437-3.438h21.187c1.896 0 3.438 1.542 3.438 3.438zm-3.438 9.67c.84 0 1.523-.683 1.523-1.523V7.223c0-.84-.683-1.523-1.523-1.523h-21.187c-.84 0-1.523.683-1.523 1.523v8.147c0 .84.683 1.523 1.523 1.523h21.187z"/><use href="#L"/><path d="M230.295 7.223v8.147c0 1.896-1.542 3.438-3.438 3.438H205.67c-1.896 0-3.438-1.542-3.438-3.438V7.223c0-1.896 1.542-3.438 3.438-3.438h21.187c1.896 0 3.438 1.542 3.438 3.438zm-3.438 9.67c.84 0 1.523-.683 1.523-1.523V7.223c0-.84-.683-1.523-1.523-1.523H205.67c-.84 0-1.523.683-1.523 1.523v8.147c0 .84.683 1.523 1.523 1.523h21.187z"/><use href="#M"/><path d="M177.994 7.223v8.147c0 1.896-1.542 3.438-3.438 3.438h-21.187c-1.896 0-3.438-1.542-3.438-3.438V7.223c0-1.896 1.542-3.438 3.438-3.438h21.187c1.896 0 3.438 1.542 3.438 3.438zm-3.438 9.67c.84 0 1.523-.683 1.523-1.523V7.223c0-.84-.683-1.523-1.523-1.523h-21.187c-.84 0-1.523.683-1.523 1.523v8.147c0 .84.683 1.523 1.523 1.523h21.187z"/><path d="M151.846 7.223v8.147c0 1.896-1.542 3.438-3.438 3.438h-21.187c-1.896 0-3.438-1.542-3.438-3.438V7.223c0-1.896 1.542-3.438 3.438-3.438h21.187c1.896 0 3.438 1.542 3.438 3.438zm-3.438 9.67c.84 0 1.523-.683 1.523-1.523V7.223c0-.84-.683-1.523-1.523-1.523h-21.187c-.84 0-1.523.683-1.523 1.523v8.147c0 .84.683 1.523 1.523 1.523h21.187z"/><path d="M125.671 7.223v8.147c0 1.896-1.542 3.438-3.438 3.438h-21.187c-1.896 0-3.438-1.542-3.438-3.438V7.223c0-1.896 1.542-3.438 3.438-3.438h21.187c1.896 0 3.438 1.542 3.438 3.438zm-3.438 9.67c.84 0 1.523-.683 1.523-1.523V7.223c0-.84-.683-1.523-1.523-1.523h-21.187c-.84 0-1.523.683-1.523 1.523v8.147c0 .84.683 1.523 1.523 1.523h21.187z"/><path d="M99.523 7.223v8.147c0 1.896-1.542 3.438-3.438 3.438H74.898c-1.896 0-3.438-1.542-3.438-3.438V7.223c0-1.896 1.542-3.438 3.438-3.438h21.187c1.896 0 3.438 1.542 3.438 3.438zm-3.438 9.67c.84 0 1.523-.683 1.523-1.523V7.223c0-.84-.683-1.523-1.523-1.523H74.898c-.84 0-1.523.683-1.523 1.523v8.147c0 .84.683 1.523 1.523 1.523h21.187z"/><path d="M73.406 7.223v8.147c0 1.896-1.542 3.438-3.438 3.438H48.781c-1.896 0-3.438-1.542-3.438-3.438V7.223c0-1.896 1.542-3.438 3.438-3.438h21.187c1.896 0 3.438 1.542 3.438 3.438zm-3.438 9.67c.84 0 1.523-.683 1.523-1.523V7.223c0-.84-.683-1.523-1.523-1.523H48.781c-.84 0-1.523.683-1.523 1.523v8.147c0 .84.683 1.523 1.523 1.523h21.187z"/><path d="M47.257 7.223v8.147c0 1.896-1.542 3.438-3.438 3.438H22.632c-1.896 0-3.438-1.542-3.438-3.438V7.223c0-1.896 1.542-3.438 3.438-3.438h21.187c1.896 0 3.438 1.542 3.438 3.438zm-3.438 9.67c.84 0 1.523-.683 1.523-1.523V7.223c0-.84-.683-1.523-1.523-1.523H22.632c-.84 0-1.523.683-1.523 1.523v8.147c0 .84.683 1.523 1.523 1.523h21.187z"/><use href="#N"/><use href="#O"/><path d="M34.166 20.331v8.147c0 1.896-1.542 3.438-3.438 3.438H9.54c-1.896 0-3.438-1.542-3.438-3.438v-8.147c0-1.896 1.542-3.438 3.438-3.438h21.187c1.896 0 3.438 1.542 3.438 3.438zm-3.438 9.67c.84 0 1.523-.683 1.523-1.523v-8.147c0-.84-.683-1.523-1.523-1.523H9.54c-.84 0-1.523.683-1.523 1.523v8.147c0 .84.683 1.523 1.523 1.523h21.187z"/><use href="#P"/><path d="M217.203 20.331v8.147c0 1.896-1.542 3.438-3.438 3.438h-21.187c-1.896 0-3.438-1.542-3.438-3.438v-8.147c0-1.896 1.542-3.438 3.438-3.438h21.187c1.896 0 3.438 1.542 3.438 3.438zm-3.438 9.67c.84 0 1.523-.683 1.523-1.523v-8.147c0-.84-.683-1.523-1.523-1.523h-21.187c-.84 0-1.523.683-1.523 1.523v8.147c0 .84.683 1.523 1.523 1.523h21.187z"/><use href="#Q"/><path d="M164.903 20.331v8.147c0 1.896-1.542 3.438-3.438 3.438h-21.187c-1.896 0-3.438-1.542-3.438-3.438v-8.147c0-1.896 1.542-3.438 3.438-3.438h21.187c1.896 0 3.438 1.542 3.438 3.438zm-3.438 9.67c.84 0 1.523-.683 1.523-1.523v-8.147c0-.84-.683-1.523-1.523-1.523h-21.187c-.84 0-1.523.683-1.523 1.523v8.147c0 .84.683 1.523 1.523 1.523h21.187z"/><path d="M138.727 20.331v8.147c0 1.896-1.542 3.438-3.438 3.438h-21.187c-1.896 0-3.438-1.542-3.438-3.438v-8.147c0-1.896 1.542-3.438 3.438-3.438h21.187c1.896 0 3.438 1.542 3.438 3.438zm-3.438 9.67c.84 0 1.523-.683 1.523-1.523v-8.147c0-.84-.683-1.523-1.523-1.523h-21.187c-.84 0-1.523.683-1.523 1.523v8.147c0 .84.683 1.523 1.523 1.523h21.187z"/><path d="M112.579 20.331v8.147c0 1.896-1.542 3.438-3.438 3.438H87.954c-1.896 0-3.438-1.542-3.438-3.438v-8.147c0-1.896 1.542-3.438 3.438-3.438h21.187c1.896 0 3.438 1.542 3.438 3.438zm-3.438 9.67c.84 0 1.523-.683 1.523-1.523v-8.147c0-.84-.683-1.523-1.523-1.523H87.954c-.84 0-1.523.683-1.523 1.523v8.147c0 .84.683 1.523 1.523 1.523h21.187z"/><path d="M86.462 20.331v8.147c0 1.896-1.542 3.438-3.438 3.438H61.837c-1.896 0-3.438-1.542-3.438-3.438v-8.147c0-1.896 1.542-3.438 3.438-3.438h21.187c1.896 0 3.438 1.542 3.438 3.438zm-3.438 9.67c.84 0 1.523-.683 1.523-1.523v-8.147c0-.84-.683-1.523-1.523-1.523H61.837c-.84 0-1.523.683-1.523 1.523v8.147c0 .84.683 1.523 1.523 1.523h21.187z"/><path d="M60.313 20.331v8.147c0 1.896-1.542 3.438-3.438 3.438H35.688c-1.896 0-3.438-1.542-3.438-3.438v-8.147c0-1.896 1.542-3.438 3.438-3.438h21.187c1.896 0 3.438 1.542 3.438 3.438zm-3.437 9.67c.84 0 1.523-.683 1.523-1.523v-8.147c0-.84-.683-1.523-1.523-1.523H35.689c-.84 0-1.523.683-1.523 1.523v8.147c0 .84.683 1.523 1.523 1.523h21.187zm225.742 3.438v8.147c0 1.896-1.542 3.438-3.438 3.438h-21.187c-1.895 0-3.437-1.542-3.437-3.438v-8.147c0-1.896 1.542-3.438 3.437-3.438h21.187c1.896 0 3.438 1.542 3.438 3.438zm-3.438 9.67c.84 0 1.523-.683 1.523-1.523v-8.147c0-.84-.683-1.523-1.523-1.523h-21.187c-.84 0-1.523.683-1.523 1.523v8.147c0 .84.683 1.523 1.523 1.523h21.187z"/><path d="M256.47 33.439v8.147c0 1.896-1.542 3.438-3.438 3.438h-21.187c-1.896 0-3.438-1.542-3.438-3.438v-8.147c0-1.896 1.542-3.438 3.438-3.438h21.187c1.896 0 3.438 1.542 3.438 3.438zm-3.438 9.67c.84 0 1.523-.683 1.523-1.523v-8.147c0-.84-.683-1.523-1.523-1.523h-21.187c-.84 0-1.523.683-1.523 1.523v8.147c0 .84.683 1.523 1.523 1.523h21.187z"/><path d="M230.295 33.439v8.147c0 1.896-1.542 3.438-3.438 3.438H205.67c-1.896 0-3.438-1.542-3.438-3.438v-8.147c0-1.896 1.542-3.438 3.438-3.438h21.187c1.896 0 3.438 1.542 3.438 3.438zm-3.438 9.67c.84 0 1.523-.683 1.523-1.523v-8.147c0-.84-.683-1.523-1.523-1.523H205.67c-.84 0-1.523.683-1.523 1.523v8.147c0 .84.683 1.523 1.523 1.523h21.187z"/><path d="M204.146 33.439v8.147c0 1.896-1.542 3.438-3.437 3.438h-21.187c-1.896 0-3.438-1.542-3.438-3.438v-8.147c0-1.896 1.542-3.438 3.438-3.438h21.187c1.895 0 3.437 1.542 3.437 3.438zm-3.437 9.67c.84 0 1.523-.683 1.523-1.523v-8.147c0-.84-.683-1.523-1.523-1.523h-21.187c-.84 0-1.523.683-1.523 1.523v8.147c0 .84.683 1.523 1.523 1.523h21.187z"/><path d="M177.994 33.439v8.147c0 1.896-1.542 3.438-3.438 3.438h-21.187c-1.896 0-3.438-1.542-3.438-3.438v-8.147c0-1.896 1.542-3.438 3.438-3.438h21.187c1.896 0 3.438 1.542 3.438 3.438zm-3.438 9.67c.84 0 1.523-.683 1.523-1.523v-8.147c0-.84-.683-1.523-1.523-1.523h-21.187c-.84 0-1.523.683-1.523 1.523v8.147c0 .84.683 1.523 1.523 1.523h21.187z"/><path d="M151.846 33.439v8.147c0 1.896-1.542 3.438-3.438 3.438h-21.187c-1.896 0-3.438-1.542-3.438-3.438v-8.147c0-1.896 1.542-3.438 3.438-3.438h21.187c1.896 0 3.438 1.542 3.438 3.438zm-3.438 9.67c.84 0 1.523-.683 1.523-1.523v-8.147c0-.84-.683-1.523-1.523-1.523h-21.187c-.84 0-1.523.683-1.523 1.523v8.147c0 .84.683 1.523 1.523 1.523h21.187z"/><path d="M125.671 33.439v8.147c0 1.896-1.542 3.438-3.438 3.438h-21.187c-1.896 0-3.438-1.542-3.438-3.438v-8.147c0-1.896 1.542-3.438 3.438-3.438h21.187c1.896 0 3.438 1.542 3.438 3.438zm-3.438 9.67c.84 0 1.523-.683 1.523-1.523v-8.147c0-.84-.683-1.523-1.523-1.523h-21.187c-.84 0-1.523.683-1.523 1.523v8.147c0 .84.683 1.523 1.523 1.523h21.187z"/><path d="M99.523 33.439v8.147c0 1.896-1.542 3.438-3.438 3.438H74.898c-1.896 0-3.438-1.542-3.438-3.438v-8.147c0-1.896 1.542-3.438 3.438-3.438h21.187c1.896 0 3.438 1.542 3.438 3.438zm-3.438 9.67c.84 0 1.523-.683 1.523-1.523v-8.147c0-.84-.683-1.523-1.523-1.523H74.898c-.84 0-1.523.683-1.523 1.523v8.147c0 .84.683 1.523 1.523 1.523h21.187z"/><path d="M73.406 33.439v8.147c0 1.896-1.542 3.438-3.438 3.438H48.781c-1.896 0-3.438-1.542-3.438-3.438v-8.147c0-1.896 1.542-3.438 3.438-3.438h21.187c1.896 0 3.438 1.542 3.438 3.438zm-3.438 9.67c.84 0 1.523-.683 1.523-1.523v-8.147c0-.84-.683-1.523-1.523-1.523H48.781c-.84 0-1.523.683-1.523 1.523v8.147c0 .84.683 1.523 1.523 1.523h21.187z"/><path d="M47.257 33.439v8.147c0 1.896-1.542 3.438-3.438 3.438H22.632c-1.896 0-3.438-1.542-3.438-3.438v-8.147c0-1.896 1.542-3.438 3.438-3.438h21.187c1.896 0 3.438 1.542 3.438 3.438zm-3.438 9.67c.84 0 1.523-.683 1.523-1.523v-8.147c0-.84-.683-1.523-1.523-1.523H22.632c-.84 0-1.523.683-1.523 1.523v8.147c0 .84.683 1.523 1.523 1.523h21.187z"/><use href="#R"/><use href="#S"/><path d="M34.166 46.547v8.147c0 1.896-1.542 3.438-3.438 3.438H9.54c-1.896 0-3.438-1.542-3.438-3.438v-8.147c0-1.896 1.542-3.438 3.438-3.438h21.187c1.896 0 3.438 1.542 3.438 3.438zm-3.438 9.671c.84 0 1.523-.683 1.523-1.523v-8.147c0-.84-.683-1.523-1.523-1.523H9.54c-.84 0-1.523.683-1.523 1.523v8.147c0 .84.683 1.523 1.523 1.523h21.187z"/><use href="#T"/><path d="M217.203 46.547v8.147c0 1.896-1.542 3.438-3.438 3.438h-21.187c-1.896 0-3.438-1.542-3.438-3.438v-8.147c0-1.896 1.542-3.438 3.438-3.438h21.187c1.896 0 3.438 1.542 3.438 3.438zm-3.438 9.671c.84 0 1.523-.683 1.523-1.523v-8.147c0-.84-.683-1.523-1.523-1.523h-21.187c-.84 0-1.523.683-1.523 1.523v8.147c0 .84.683 1.523 1.523 1.523h21.187z"/><use href="#U"/><path d="M164.903 46.547v8.147c0 1.896-1.542 3.438-3.438 3.438h-21.187c-1.896 0-3.438-1.542-3.438-3.438v-8.147c0-1.896 1.542-3.438 3.438-3.438h21.187c1.896 0 3.438 1.542 3.438 3.438zm-3.438 9.671c.84 0 1.523-.683 1.523-1.523v-8.147c0-.84-.683-1.523-1.523-1.523h-21.187c-.84 0-1.523.683-1.523 1.523v8.147c0 .84.683 1.523 1.523 1.523h21.187z"/><path d="M138.727 46.547v8.147c0 1.896-1.542 3.438-3.438 3.438h-21.187c-1.896 0-3.438-1.542-3.438-3.438v-8.147c0-1.896 1.542-3.438 3.438-3.438h21.187c1.896 0 3.438 1.542 3.438 3.438zm-3.438 9.671c.84 0 1.523-.683 1.523-1.523v-8.147c0-.84-.683-1.523-1.523-1.523h-21.187c-.84 0-1.523.683-1.523 1.523v8.147c0 .84.683 1.523 1.523 1.523h21.187z"/><path d="M112.579 46.547v8.147c0 1.896-1.542 3.438-3.438 3.438H87.954c-1.896 0-3.438-1.542-3.438-3.438v-8.147c0-1.896 1.542-3.438 3.438-3.438h21.187c1.896 0 3.438 1.542 3.438 3.438zm-3.438 9.671c.84 0 1.523-.683 1.523-1.523v-8.147c0-.84-.683-1.523-1.523-1.523H87.954c-.84 0-1.523.683-1.523 1.523v8.147c0 .84.683 1.523 1.523 1.523h21.187z"/><path d="M86.462 46.547v8.147c0 1.896-1.542 3.438-3.438 3.438H61.837c-1.896 0-3.438-1.542-3.438-3.438v-8.147c0-1.896 1.542-3.438 3.438-3.438h21.187c1.896 0 3.438 1.542 3.438 3.438zm-3.438 9.671c.84 0 1.523-.683 1.523-1.523v-8.147c0-.84-.683-1.523-1.523-1.523H61.837c-.84 0-1.523.683-1.523 1.523v8.147c0 .84.683 1.523 1.523 1.523h21.187z"/><path d="M60.313 46.547v8.147c0 1.896-1.542 3.438-3.438 3.438H35.688c-1.896 0-3.438-1.542-3.438-3.438v-8.147c0-1.896 1.542-3.438 3.438-3.438h21.187c1.896 0 3.438 1.542 3.438 3.438zm-3.437 9.671c.84 0 1.523-.683 1.523-1.523v-8.147c0-.84-.683-1.523-1.523-1.523H35.689c-.84 0-1.523.683-1.523 1.523v8.147c0 .84.683 1.523 1.523 1.523h21.187zM557.187-5.886v8.148c0 1.896-1.542 3.438-3.438 3.438h-21.187c-1.896 0-3.438-1.542-3.438-3.438v-8.148c0-1.896 1.542-3.438 3.438-3.438h21.187c1.896 0 3.438 1.542 3.438 3.438zm-3.437 9.671c.84 0 1.523-.683 1.523-1.523v-8.148c0-.84-.683-1.523-1.523-1.523h-21.187c-.84 0-1.523.683-1.523 1.523v8.148c0 .84.683 1.523 1.523 1.523h21.187z"/><path d="M531.039-5.886v8.148c0 1.896-1.542 3.438-3.437 3.438h-21.187c-1.896 0-3.438-1.542-3.438-3.438v-8.148c0-1.896 1.542-3.438 3.438-3.438h21.187c1.895 0 3.437 1.542 3.437 3.438zm-3.437 9.671c.84 0 1.523-.683 1.523-1.523v-8.148c0-.84-.683-1.523-1.523-1.523h-21.187c-.84 0-1.523.683-1.523 1.523v8.148c0 .84.683 1.523 1.523 1.523h21.187zM295.679-5.886v8.148c0 1.896-1.542 3.438-3.438 3.438h-21.187c-1.896 0-3.438-1.542-3.438-3.438v-8.148c0-1.896 1.542-3.438 3.438-3.438h21.187c1.896 0 3.438 1.542 3.438 3.438zm-3.438 9.671c.84 0 1.523-.683 1.523-1.523v-8.148c0-.84-.683-1.523-1.523-1.523h-21.187c-.84 0-1.523.683-1.523 1.523v8.148c0 .84.683 1.523 1.523 1.523h21.187z"/><path d="M504.864-5.886v8.148c0 1.896-1.542 3.438-3.438 3.438h-21.187c-1.896 0-3.438-1.542-3.438-3.438v-8.148c0-1.896 1.542-3.438 3.438-3.438h21.187c1.896 0 3.438 1.542 3.438 3.438zm-3.438 9.671c.84 0 1.523-.683 1.523-1.523v-8.148c0-.84-.683-1.523-1.523-1.523h-21.187c-.84 0-1.523.683-1.523 1.523v8.148c0 .84.683 1.523 1.523 1.523h21.187z"/><path d="M478.716-5.886v8.148c0 1.896-1.542 3.438-3.438 3.438h-21.187c-1.896 0-3.438-1.542-3.438-3.438v-8.148c0-1.896 1.542-3.438 3.438-3.438h21.187c1.896 0 3.438 1.542 3.438 3.438zm-3.438 9.671c.84 0 1.523-.683 1.523-1.523v-8.148c0-.84-.683-1.523-1.523-1.523h-21.187c-.84 0-1.523.683-1.523 1.523v8.148c0 .84.683 1.523 1.523 1.523h21.187z"/><path d="M452.564-5.886v8.148c0 1.896-1.542 3.438-3.438 3.438h-21.187c-1.895 0-3.437-1.542-3.437-3.438v-8.148c0-1.896 1.542-3.438 3.437-3.438h21.187c1.896 0 3.438 1.542 3.438 3.438zm-3.438 9.671c.84 0 1.523-.683 1.523-1.523v-8.148c0-.84-.683-1.523-1.523-1.523h-21.187c-.84 0-1.523.683-1.523 1.523v8.148c0 .84.683 1.523 1.523 1.523h21.187z"/><path d="M426.416-5.886v8.148c0 1.896-1.542 3.438-3.438 3.438h-21.187c-1.896 0-3.438-1.542-3.438-3.438v-8.148c0-1.896 1.542-3.438 3.438-3.438h21.187c1.896 0 3.438 1.542 3.438 3.438zm-3.438 9.671c.84 0 1.523-.683 1.523-1.523v-8.148c0-.84-.683-1.523-1.523-1.523h-21.187c-.84 0-1.523.683-1.523 1.523v8.148c0 .84.683 1.523 1.523 1.523h21.187z"/><path d="M400.24-5.886v8.148c0 1.896-1.542 3.438-3.438 3.438h-21.187c-1.895 0-3.437-1.542-3.437-3.438v-8.148c0-1.896 1.542-3.438 3.437-3.438h21.187c1.896 0 3.438 1.542 3.438 3.438zm-3.438 9.671c.84 0 1.523-.683 1.523-1.523v-8.148c0-.84-.683-1.523-1.523-1.523h-21.187c-.84 0-1.523.683-1.523 1.523v8.148c0 .84.683 1.523 1.523 1.523h21.187z"/><path d="M374.092-5.886v8.148c0 1.896-1.542 3.438-3.438 3.438h-21.187c-1.896 0-3.438-1.542-3.438-3.438v-8.148c0-1.896 1.542-3.438 3.438-3.438h21.187c1.896 0 3.438 1.542 3.438 3.438zm-3.437 9.671c.84 0 1.523-.683 1.523-1.523v-8.148c0-.84-.683-1.523-1.523-1.523h-21.187c-.84 0-1.523.683-1.523 1.523v8.148c0 .84.683 1.523 1.523 1.523h21.187z"/><path d="M347.975-5.886v8.148c0 1.896-1.542 3.438-3.438 3.438H323.35c-1.896 0-3.438-1.542-3.438-3.438v-8.148c0-1.896 1.542-3.438 3.438-3.438h21.187c1.896 0 3.438 1.542 3.438 3.438zm-3.438 9.671c.84 0 1.523-.683 1.523-1.523v-8.148c0-.84-.683-1.523-1.523-1.523H323.35c-.84 0-1.523.683-1.523 1.523v8.148c0 .84.683 1.523 1.523 1.523h21.187z"/><path d="M321.827-5.886v8.148c0 1.896-1.542 3.438-3.438 3.438h-21.187c-1.895 0-3.437-1.542-3.437-3.438v-8.148c0-1.896 1.542-3.438 3.437-3.438h21.187c1.896 0 3.438 1.542 3.438 3.438zm-3.438 9.671c.84 0 1.523-.683 1.523-1.523v-8.148c0-.84-.683-1.523-1.523-1.523h-21.187c-.84 0-1.523.683-1.523 1.523v8.148c0 .84.683 1.523 1.523 1.523h21.187zm225.742 3.438v8.147c0 1.896-1.542 3.438-3.438 3.438h-21.187c-1.896 0-3.438-1.542-3.438-3.438V7.223c0-1.896 1.542-3.438 3.438-3.438h21.187c1.896 0 3.438 1.542 3.438 3.438zm-3.438 9.67c.84 0 1.523-.683 1.523-1.523V7.223c0-.84-.683-1.523-1.523-1.523h-21.187c-.84 0-1.523.683-1.523 1.523v8.147c0 .84.683 1.523 1.523 1.523h21.187z"/><path d="M517.982 7.223v8.147c0 1.896-1.542 3.438-3.438 3.438h-21.187c-1.896 0-3.438-1.542-3.438-3.438V7.223c0-1.896 1.542-3.438 3.438-3.438h21.187c1.896 0 3.438 1.542 3.438 3.438zm-3.437 9.67c.84 0 1.523-.683 1.523-1.523V7.223c0-.84-.683-1.523-1.523-1.523h-21.187c-.84 0-1.523.683-1.523 1.523v8.147c0 .84.683 1.523 1.523 1.523h21.187z"/><path d="M491.808 7.223v8.147c0 1.896-1.542 3.438-3.438 3.438h-21.187c-1.896 0-3.438-1.542-3.438-3.438V7.223c0-1.896 1.542-3.438 3.438-3.438h21.187c1.896 0 3.438 1.542 3.438 3.438zm-3.438 9.67c.84 0 1.523-.683 1.523-1.523V7.223c0-.84-.683-1.523-1.523-1.523h-21.187c-.84 0-1.523.683-1.523 1.523v8.147c0 .84.683 1.523 1.523 1.523h21.187z"/><path d="M465.659 7.223v8.147c0 1.896-1.542 3.438-3.438 3.438h-21.187c-1.896 0-3.438-1.542-3.438-3.438V7.223c0-1.896 1.542-3.438 3.438-3.438h21.187c1.896 0 3.438 1.542 3.438 3.438zm-3.438 9.67c.84 0 1.523-.683 1.523-1.523V7.223c0-.84-.683-1.523-1.523-1.523h-21.187c-.84 0-1.523.683-1.523 1.523v8.147c0 .84.683 1.523 1.523 1.523h21.187z"/><path d="M439.507 7.223v8.147c0 1.896-1.542 3.438-3.438 3.438h-21.187c-1.896 0-3.438-1.542-3.438-3.438V7.223c0-1.896 1.542-3.438 3.438-3.438h21.187c1.896 0 3.438 1.542 3.438 3.438zm-3.438 9.67c.84 0 1.523-.683 1.523-1.523V7.223c0-.84-.683-1.523-1.523-1.523h-21.187c-.84 0-1.523.683-1.523 1.523v8.147c0 .84.683 1.523 1.523 1.523h21.187z"/><path d="M413.359 7.223v8.147c0 1.896-1.542 3.438-3.437 3.438h-21.187c-1.896 0-3.438-1.542-3.438-3.438V7.223c0-1.896 1.542-3.438 3.438-3.438h21.187c1.895 0 3.437 1.542 3.437 3.438zm-3.438 9.67c.84 0 1.523-.683 1.523-1.523V7.223c0-.84-.683-1.523-1.523-1.523h-21.187c-.84 0-1.523.683-1.523 1.523v8.147c0 .84.683 1.523 1.523 1.523h21.187z"/><path d="M387.184 7.223v8.147c0 1.896-1.542 3.438-3.438 3.438h-21.187c-1.896 0-3.438-1.542-3.438-3.438V7.223c0-1.896 1.542-3.438 3.438-3.438h21.187c1.896 0 3.438 1.542 3.438 3.438zm-3.438 9.67c.84 0 1.523-.683 1.523-1.523V7.223c0-.84-.683-1.523-1.523-1.523h-21.187c-.84 0-1.523.683-1.523 1.523v8.147c0 .84.683 1.523 1.523 1.523h21.187z"/><path d="M361.035 7.223v8.147c0 1.896-1.542 3.438-3.437 3.438h-21.187c-1.896 0-3.438-1.542-3.438-3.438V7.223c0-1.896 1.542-3.438 3.438-3.438h21.187c1.895 0 3.437 1.542 3.437 3.438zm-3.437 9.67c.84 0 1.523-.683 1.523-1.523V7.223c0-.84-.683-1.523-1.523-1.523h-21.187c-.84 0-1.523.683-1.523 1.523v8.147c0 .84.683 1.523 1.523 1.523h21.187z"/><path d="M334.919 7.223v8.147c0 1.896-1.542 3.438-3.438 3.438h-21.187c-1.896 0-3.438-1.542-3.438-3.438V7.223c0-1.896 1.542-3.438 3.438-3.438h21.187c1.896 0 3.438 1.542 3.438 3.438zm-3.438 9.67c.84 0 1.523-.683 1.523-1.523V7.223c0-.84-.683-1.523-1.523-1.523h-21.187c-.84 0-1.523.683-1.523 1.523v8.147c0 .84.683 1.523 1.523 1.523h21.187z"/><path d="M308.77 7.223v8.147c0 1.896-1.542 3.438-3.438 3.438h-21.187c-1.896 0-3.438-1.542-3.438-3.438V7.223c0-1.896 1.542-3.438 3.438-3.438h21.187c1.896 0 3.438 1.542 3.438 3.438zm-3.438 9.67c.84 0 1.523-.683 1.523-1.523V7.223c0-.84-.683-1.523-1.523-1.523h-21.187c-.84 0-1.523.683-1.523 1.523v8.147c0 .84.683 1.523 1.523 1.523h21.187zm251.855 3.438v8.147c0 1.896-1.542 3.438-3.438 3.438h-21.187c-1.896 0-3.438-1.542-3.438-3.438v-8.147c0-1.896 1.542-3.438 3.438-3.438h21.187c1.896 0 3.438 1.542 3.438 3.438zm-3.437 9.67c.84 0 1.523-.683 1.523-1.523v-8.147c0-.84-.683-1.523-1.523-1.523h-21.187c-.84 0-1.523.683-1.523 1.523v8.147c0 .84.683 1.523 1.523 1.523h21.187z"/><path d="M531.039 20.331v8.147c0 1.896-1.542 3.438-3.437 3.438h-21.187c-1.896 0-3.438-1.542-3.438-3.438v-8.147c0-1.896 1.542-3.438 3.438-3.438h21.187c1.895 0 3.437 1.542 3.437 3.438zm-3.437 9.67c.84 0 1.523-.683 1.523-1.523v-8.147c0-.84-.683-1.523-1.523-1.523h-21.187c-.84 0-1.523.683-1.523 1.523v8.147c0 .84.683 1.523 1.523 1.523h21.187zm-231.923-9.67v8.147c0 1.896-1.542 3.438-3.438 3.438h-21.187c-1.896 0-3.438-1.542-3.438-3.438v-8.147c0-1.896 1.542-3.438 3.438-3.438h21.187c1.896 0 3.438 1.542 3.438 3.438zm-3.438 9.67c.84 0 1.523-.683 1.523-1.523v-8.147c0-.84-.683-1.523-1.523-1.523h-21.187c-.84 0-1.523.683-1.523 1.523v8.147c0 .84.683 1.523 1.523 1.523h21.187z"/><path d="M504.864 20.331v8.147c0 1.896-1.542 3.438-3.438 3.438h-21.187c-1.896 0-3.438-1.542-3.438-3.438v-8.147c0-1.896 1.542-3.438 3.438-3.438h21.187c1.896 0 3.438 1.542 3.438 3.438zm-3.438 9.67c.84 0 1.523-.683 1.523-1.523v-8.147c0-.84-.683-1.523-1.523-1.523h-21.187c-.84 0-1.523.683-1.523 1.523v8.147c0 .84.683 1.523 1.523 1.523h21.187z"/><path d="M478.716 20.331v8.147c0 1.896-1.542 3.438-3.438 3.438h-21.187c-1.896 0-3.438-1.542-3.438-3.438v-8.147c0-1.896 1.542-3.438 3.438-3.438h21.187c1.896 0 3.438 1.542 3.438 3.438zm-3.438 9.67c.84 0 1.523-.683 1.523-1.523v-8.147c0-.84-.683-1.523-1.523-1.523h-21.187c-.84 0-1.523.683-1.523 1.523v8.147c0 .84.683 1.523 1.523 1.523h21.187z"/><path d="M452.564 20.331v8.147c0 1.896-1.542 3.438-3.438 3.438h-21.187c-1.895 0-3.437-1.542-3.437-3.438v-8.147c0-1.896 1.542-3.438 3.437-3.438h21.187c1.896 0 3.438 1.542 3.438 3.438zm-3.438 9.67c.84 0 1.523-.683 1.523-1.523v-8.147c0-.84-.683-1.523-1.523-1.523h-21.187c-.84 0-1.523.683-1.523 1.523v8.147c0 .84.683 1.523 1.523 1.523h21.187z"/><path d="M426.416 20.331v8.147c0 1.896-1.542 3.438-3.438 3.438h-21.187c-1.896 0-3.438-1.542-3.438-3.438v-8.147c0-1.896 1.542-3.438 3.438-3.438h21.187c1.896 0 3.438 1.542 3.438 3.438zm-3.438 9.67c.84 0 1.523-.683 1.523-1.523v-8.147c0-.84-.683-1.523-1.523-1.523h-21.187c-.84 0-1.523.683-1.523 1.523v8.147c0 .84.683 1.523 1.523 1.523h21.187z"/><path d="M400.24 20.331v8.147c0 1.896-1.542 3.438-3.438 3.438h-21.187c-1.895 0-3.437-1.542-3.437-3.438v-8.147c0-1.896 1.542-3.438 3.437-3.438h21.187c1.896 0 3.438 1.542 3.438 3.438zm-3.438 9.67c.84 0 1.523-.683 1.523-1.523v-8.147c0-.84-.683-1.523-1.523-1.523h-21.187c-.84 0-1.523.683-1.523 1.523v8.147c0 .84.683 1.523 1.523 1.523h21.187z"/><path d="M374.092 20.331v8.147c0 1.896-1.542 3.438-3.438 3.438h-21.187c-1.896 0-3.438-1.542-3.438-3.438v-8.147c0-1.896 1.542-3.438 3.438-3.438h21.187c1.896 0 3.438 1.542 3.438 3.438zm-3.437 9.67c.84 0 1.523-.683 1.523-1.523v-8.147c0-.84-.683-1.523-1.523-1.523h-21.187c-.84 0-1.523.683-1.523 1.523v8.147c0 .84.683 1.523 1.523 1.523h21.187z"/><path d="M347.975 20.331v8.147c0 1.896-1.542 3.438-3.438 3.438H323.35c-1.896 0-3.438-1.542-3.438-3.438v-8.147c0-1.896 1.542-3.438 3.438-3.438h21.187c1.896 0 3.438 1.542 3.438 3.438zm-3.438 9.67c.84 0 1.523-.683 1.523-1.523v-8.147c0-.84-.683-1.523-1.523-1.523H323.35c-.84 0-1.523.683-1.523 1.523v8.147c0 .84.683 1.523 1.523 1.523h21.187z"/><path d="M321.827 20.331v8.147c0 1.896-1.542 3.438-3.438 3.438h-21.187c-1.895 0-3.437-1.542-3.437-3.438v-8.147c0-1.896 1.542-3.438 3.437-3.438h21.187c1.896 0 3.438 1.542 3.438 3.438zm-3.438 9.67c.84 0 1.523-.683 1.523-1.523v-8.147c0-.84-.683-1.523-1.523-1.523h-21.187c-.84 0-1.523.683-1.523 1.523v8.147c0 .84.683 1.523 1.523 1.523h21.187zm225.742 3.438v8.147c0 1.896-1.542 3.438-3.438 3.438h-21.187c-1.896 0-3.438-1.542-3.438-3.438v-8.147c0-1.896 1.542-3.438 3.438-3.438h21.187c1.896 0 3.438 1.542 3.438 3.438zm-3.438 9.67c.84 0 1.523-.683 1.523-1.523v-8.147c0-.84-.683-1.523-1.523-1.523h-21.187c-.84 0-1.523.683-1.523 1.523v8.147c0 .84.683 1.523 1.523 1.523h21.187z"/><path d="M517.982 33.439v8.147c0 1.896-1.542 3.438-3.438 3.438h-21.187c-1.896 0-3.438-1.542-3.438-3.438v-8.147c0-1.896 1.542-3.438 3.438-3.438h21.187c1.896 0 3.438 1.542 3.438 3.438zm-3.437 9.67c.84 0 1.523-.683 1.523-1.523v-8.147c0-.84-.683-1.523-1.523-1.523h-21.187c-.84 0-1.523.683-1.523 1.523v8.147c0 .84.683 1.523 1.523 1.523h21.187z"/><path d="M491.808 33.439v8.147c0 1.896-1.542 3.438-3.438 3.438h-21.187c-1.896 0-3.438-1.542-3.438-3.438v-8.147c0-1.896 1.542-3.438 3.438-3.438h21.187c1.896 0 3.438 1.542 3.438 3.438zm-3.438 9.67c.84 0 1.523-.683 1.523-1.523v-8.147c0-.84-.683-1.523-1.523-1.523h-21.187c-.84 0-1.523.683-1.523 1.523v8.147c0 .84.683 1.523 1.523 1.523h21.187z"/><path d="M465.659 33.439v8.147c0 1.896-1.542 3.438-3.438 3.438h-21.187c-1.896 0-3.438-1.542-3.438-3.438v-8.147c0-1.896 1.542-3.438 3.438-3.438h21.187c1.896 0 3.438 1.542 3.438 3.438zm-3.438 9.67c.84 0 1.523-.683 1.523-1.523v-8.147c0-.84-.683-1.523-1.523-1.523h-21.187c-.84 0-1.523.683-1.523 1.523v8.147c0 .84.683 1.523 1.523 1.523h21.187z"/><path d="M439.507 33.439v8.147c0 1.896-1.542 3.438-3.438 3.438h-21.187c-1.896 0-3.438-1.542-3.438-3.438v-8.147c0-1.896 1.542-3.438 3.438-3.438h21.187c1.896 0 3.438 1.542 3.438 3.438zm-3.438 9.67c.84 0 1.523-.683 1.523-1.523v-8.147c0-.84-.683-1.523-1.523-1.523h-21.187c-.84 0-1.523.683-1.523 1.523v8.147c0 .84.683 1.523 1.523 1.523h21.187z"/><path d="M413.359 33.439v8.147c0 1.896-1.542 3.438-3.437 3.438h-21.187c-1.896 0-3.438-1.542-3.438-3.438v-8.147c0-1.896 1.542-3.438 3.438-3.438h21.187c1.895 0 3.437 1.542 3.437 3.438zm-3.438 9.67c.84 0 1.523-.683 1.523-1.523v-8.147c0-.84-.683-1.523-1.523-1.523h-21.187c-.84 0-1.523.683-1.523 1.523v8.147c0 .84.683 1.523 1.523 1.523h21.187z"/><path d="M387.184 33.439v8.147c0 1.896-1.542 3.438-3.438 3.438h-21.187c-1.896 0-3.438-1.542-3.438-3.438v-8.147c0-1.896 1.542-3.438 3.438-3.438h21.187c1.896 0 3.438 1.542 3.438 3.438zm-3.438 9.67c.84 0 1.523-.683 1.523-1.523v-8.147c0-.84-.683-1.523-1.523-1.523h-21.187c-.84 0-1.523.683-1.523 1.523v8.147c0 .84.683 1.523 1.523 1.523h21.187z"/><path d="M361.035 33.439v8.147c0 1.896-1.542 3.438-3.437 3.438h-21.187c-1.896 0-3.438-1.542-3.438-3.438v-8.147c0-1.896 1.542-3.438 3.438-3.438h21.187c1.895 0 3.437 1.542 3.437 3.438zm-3.437 9.67c.84 0 1.523-.683 1.523-1.523v-8.147c0-.84-.683-1.523-1.523-1.523h-21.187c-.84 0-1.523.683-1.523 1.523v8.147c0 .84.683 1.523 1.523 1.523h21.187z"/><path d="M334.919 33.439v8.147c0 1.896-1.542 3.438-3.438 3.438h-21.187c-1.896 0-3.438-1.542-3.438-3.438v-8.147c0-1.896 1.542-3.438 3.438-3.438h21.187c1.896 0 3.438 1.542 3.438 3.438zm-3.438 9.67c.84 0 1.523-.683 1.523-1.523v-8.147c0-.84-.683-1.523-1.523-1.523h-21.187c-.84 0-1.523.683-1.523 1.523v8.147c0 .84.683 1.523 1.523 1.523h21.187z"/><path d="M308.77 33.439v8.147c0 1.896-1.542 3.438-3.438 3.438h-21.187c-1.896 0-3.438-1.542-3.438-3.438v-8.147c0-1.896 1.542-3.438 3.438-3.438h21.187c1.896 0 3.438 1.542 3.438 3.438zm-3.438 9.67c.84 0 1.523-.683 1.523-1.523v-8.147c0-.84-.683-1.523-1.523-1.523h-21.187c-.84 0-1.523.683-1.523 1.523v8.147c0 .84.683 1.523 1.523 1.523h21.187zm251.855 3.438v8.147c0 1.896-1.542 3.438-3.438 3.438h-21.187c-1.896 0-3.438-1.542-3.438-3.438v-8.147c0-1.896 1.542-3.438 3.438-3.438h21.187c1.896 0 3.438 1.542 3.438 3.438zm-3.437 9.671c.84 0 1.523-.683 1.523-1.523v-8.147c0-.84-.683-1.523-1.523-1.523h-21.187c-.84 0-1.523.683-1.523 1.523v8.147c0 .84.683 1.523 1.523 1.523h21.187z"/><path d="M531.039 46.547v8.147c0 1.896-1.542 3.438-3.437 3.438h-21.187c-1.896 0-3.438-1.542-3.438-3.438v-8.147c0-1.896 1.542-3.438 3.438-3.438h21.187c1.895 0 3.437 1.542 3.437 3.438zm-3.437 9.671c.84 0 1.523-.683 1.523-1.523v-8.147c0-.84-.683-1.523-1.523-1.523h-21.187c-.84 0-1.523.683-1.523 1.523v8.147c0 .84.683 1.523 1.523 1.523h21.187zm-231.923-9.671v8.147c0 1.896-1.542 3.438-3.438 3.438h-21.187c-1.896 0-3.438-1.542-3.438-3.438v-8.147c0-1.896 1.542-3.438 3.438-3.438h21.187c1.896 0 3.438 1.542 3.438 3.438zm-3.438 9.671c.84 0 1.523-.683 1.523-1.523v-8.147c0-.84-.683-1.523-1.523-1.523h-21.187c-.84 0-1.523.683-1.523 1.523v8.147c0 .84.683 1.523 1.523 1.523h21.187z"/><path d="M504.864 46.547v8.147c0 1.896-1.542 3.438-3.438 3.438h-21.187c-1.896 0-3.438-1.542-3.438-3.438v-8.147c0-1.896 1.542-3.438 3.438-3.438h21.187c1.896 0 3.438 1.542 3.438 3.438zm-3.438 9.671c.84 0 1.523-.683 1.523-1.523v-8.147c0-.84-.683-1.523-1.523-1.523h-21.187c-.84 0-1.523.683-1.523 1.523v8.147c0 .84.683 1.523 1.523 1.523h21.187z"/><path d="M478.716 46.547v8.147c0 1.896-1.542 3.438-3.438 3.438h-21.187c-1.896 0-3.438-1.542-3.438-3.438v-8.147c0-1.896 1.542-3.438 3.438-3.438h21.187c1.896 0 3.438 1.542 3.438 3.438zm-3.438 9.671c.84 0 1.523-.683 1.523-1.523v-8.147c0-.84-.683-1.523-1.523-1.523h-21.187c-.84 0-1.523.683-1.523 1.523v8.147c0 .84.683 1.523 1.523 1.523h21.187z"/><path d="M452.564 46.547v8.147c0 1.896-1.542 3.438-3.438 3.438h-21.187c-1.895 0-3.437-1.542-3.437-3.438v-8.147c0-1.896 1.542-3.438 3.437-3.438h21.187c1.896 0 3.438 1.542 3.438 3.438zm-3.438 9.671c.84 0 1.523-.683 1.523-1.523v-8.147c0-.84-.683-1.523-1.523-1.523h-21.187c-.84 0-1.523.683-1.523 1.523v8.147c0 .84.683 1.523 1.523 1.523h21.187z"/><path d="M426.416 46.547v8.147c0 1.896-1.542 3.438-3.438 3.438h-21.187c-1.896 0-3.438-1.542-3.438-3.438v-8.147c0-1.896 1.542-3.438 3.438-3.438h21.187c1.896 0 3.438 1.542 3.438 3.438zm-3.438 9.671c.84 0 1.523-.683 1.523-1.523v-8.147c0-.84-.683-1.523-1.523-1.523h-21.187c-.84 0-1.523.683-1.523 1.523v8.147c0 .84.683 1.523 1.523 1.523h21.187z"/><path d="M400.24 46.547v8.147c0 1.896-1.542 3.438-3.438 3.438h-21.187c-1.895 0-3.437-1.542-3.437-3.438v-8.147c0-1.896 1.542-3.438 3.437-3.438h21.187c1.896 0 3.438 1.542 3.438 3.438zm-3.438 9.671c.84 0 1.523-.683 1.523-1.523v-8.147c0-.84-.683-1.523-1.523-1.523h-21.187c-.84 0-1.523.683-1.523 1.523v8.147c0 .84.683 1.523 1.523 1.523h21.187z"/><path d="M374.092 46.547v8.147c0 1.896-1.542 3.438-3.438 3.438h-21.187c-1.896 0-3.438-1.542-3.438-3.438v-8.147c0-1.896 1.542-3.438 3.438-3.438h21.187c1.896 0 3.438 1.542 3.438 3.438zm-3.437 9.671c.84 0 1.523-.683 1.523-1.523v-8.147c0-.84-.683-1.523-1.523-1.523h-21.187c-.84 0-1.523.683-1.523 1.523v8.147c0 .84.683 1.523 1.523 1.523h21.187z"/><path d="M347.975 46.547v8.147c0 1.896-1.542 3.438-3.438 3.438H323.35c-1.896 0-3.438-1.542-3.438-3.438v-8.147c0-1.896 1.542-3.438 3.438-3.438h21.187c1.896 0 3.438 1.542 3.438 3.438zm-3.438 9.671c.84 0 1.523-.683 1.523-1.523v-8.147c0-.84-.683-1.523-1.523-1.523H323.35c-.84 0-1.523.683-1.523 1.523v8.147c0 .84.683 1.523 1.523 1.523h21.187z"/><path d="M321.827 46.547v8.147c0 1.896-1.542 3.438-3.438 3.438h-21.187c-1.895 0-3.437-1.542-3.437-3.438v-8.147c0-1.896 1.542-3.438 3.437-3.438h21.187c1.896 0 3.438 1.542 3.438 3.438zm-3.438 9.671c.84 0 1.523-.683 1.523-1.523v-8.147c0-.84-.683-1.523-1.523-1.523h-21.187c-.84 0-1.523.683-1.523 1.523v8.147c0 .84.683 1.523 1.523 1.523h21.187zM557.232-5.886v8.148c0 1.896-1.542 3.438-3.438 3.438h-21.187c-1.896 0-3.438-1.542-3.438-3.438v-8.148c0-1.896 1.542-3.438 3.438-3.438h21.187c1.896 0 3.438 1.542 3.438 3.438zm-3.438 9.671c.84 0 1.523-.683 1.523-1.523v-8.148c0-.84-.683-1.523-1.523-1.523h-21.187c-.84 0-1.523.683-1.523 1.523v8.148c0 .84.683 1.523 1.523 1.523h21.187zm55.735-9.671v8.148c0 1.896-1.542 3.438-3.438 3.438h-21.187c-1.896 0-3.438-1.542-3.438-3.438v-8.148c0-1.896 1.542-3.438 3.438-3.438h21.187c1.896 0 3.438 1.542 3.438 3.438zm-3.438 9.671c.84 0 1.523-.683 1.523-1.523v-8.148c0-.84-.683-1.523-1.523-1.523h-21.187c-.84 0-1.523.683-1.523 1.523v8.148c0 .84.683 1.523 1.523 1.523h21.187z"/><path d="M583.38-5.886v8.148c0 1.896-1.542 3.438-3.438 3.438h-21.187c-1.896 0-3.438-1.542-3.438-3.438v-8.148c0-1.896 1.542-3.438 3.438-3.438h21.187c1.896 0 3.438 1.542 3.438 3.438zm-3.438 9.671c.84 0 1.523-.683 1.523-1.523v-8.148c0-.84-.683-1.523-1.523-1.523h-21.187c-.84 0-1.523.683-1.523 1.523v8.148c0 .84.683 1.523 1.523 1.523h21.187zm42.648 3.438v8.147c0 1.896-1.542 3.438-3.438 3.438h-21.187c-1.896 0-3.438-1.542-3.438-3.438V7.223c0-1.896 1.542-3.438 3.438-3.438h21.187c1.896 0 3.438 1.542 3.438 3.438zm-3.438 9.67c.84 0 1.523-.683 1.523-1.523V7.223c0-.84-.683-1.523-1.523-1.523h-21.187c-.84 0-1.523.683-1.523 1.523v8.147c0 .84.683 1.523 1.523 1.523h21.187z"/><path d="M596.472 7.223v8.147c0 1.896-1.542 3.438-3.438 3.438h-21.187c-1.896 0-3.438-1.542-3.438-3.438V7.223c0-1.896 1.542-3.438 3.438-3.438h21.187c1.896 0 3.438 1.542 3.438 3.438zm-3.438 9.67c.84 0 1.523-.683 1.523-1.523V7.223c0-.84-.683-1.523-1.523-1.523h-21.187c-.84 0-1.523.683-1.523 1.523v8.147c0 .84.683 1.523 1.523 1.523h21.187z"/><path d="M570.324 7.223v8.147c0 1.896-1.542 3.438-3.438 3.438h-21.187c-1.896 0-3.438-1.542-3.438-3.438V7.223c0-1.896 1.542-3.438 3.438-3.438h21.187c1.896 0 3.438 1.542 3.438 3.438zm-3.438 9.67c.84 0 1.523-.683 1.523-1.523V7.223c0-.84-.683-1.523-1.523-1.523h-21.187c-.84 0-1.523.683-1.523 1.523v8.147c0 .84.683 1.523 1.523 1.523h21.187z"/><path d="M557.232 20.331v8.147c0 1.896-1.542 3.438-3.438 3.438h-21.187c-1.896 0-3.438-1.542-3.438-3.438v-8.147c0-1.896 1.542-3.438 3.438-3.438h21.187c1.896 0 3.438 1.542 3.438 3.438zm-3.438 9.67c.84 0 1.523-.683 1.523-1.523v-8.147c0-.84-.683-1.523-1.523-1.523h-21.187c-.84 0-1.523.683-1.523 1.523v8.147c0 .84.683 1.523 1.523 1.523h21.187zm55.735-9.67v8.147c0 1.896-1.542 3.438-3.438 3.438h-21.187c-1.896 0-3.438-1.542-3.438-3.438v-8.147c0-1.896 1.542-3.438 3.438-3.438h21.187c1.896 0 3.438 1.542 3.438 3.438zm-3.438 9.67c.84 0 1.523-.683 1.523-1.523v-8.147c0-.84-.683-1.523-1.523-1.523h-21.187c-.84 0-1.523.683-1.523 1.523v8.147c0 .84.683 1.523 1.523 1.523h21.187z"/><path d="M583.38 20.331v8.147c0 1.896-1.542 3.438-3.438 3.438h-21.187c-1.896 0-3.438-1.542-3.438-3.438v-8.147c0-1.896 1.542-3.438 3.438-3.438h21.187c1.896 0 3.438 1.542 3.438 3.438zm-3.438 9.67c.84 0 1.523-.683 1.523-1.523v-8.147c0-.84-.683-1.523-1.523-1.523h-21.187c-.84 0-1.523.683-1.523 1.523v8.147c0 .84.683 1.523 1.523 1.523h21.187zm42.648 3.438v8.147c0 1.896-1.542 3.438-3.438 3.438h-21.187c-1.896 0-3.438-1.542-3.438-3.438v-8.147c0-1.896 1.542-3.438 3.438-3.438h21.187c1.896 0 3.438 1.542 3.438 3.438zm-3.438 9.67c.84 0 1.523-.683 1.523-1.523v-8.147c0-.84-.683-1.523-1.523-1.523h-21.187c-.84 0-1.523.683-1.523 1.523v8.147c0 .84.683 1.523 1.523 1.523h21.187z"/><path d="M596.472 33.439v8.147c0 1.896-1.542 3.438-3.438 3.438h-21.187c-1.896 0-3.438-1.542-3.438-3.438v-8.147c0-1.896 1.542-3.438 3.438-3.438h21.187c1.896 0 3.438 1.542 3.438 3.438zm-3.438 9.67c.84 0 1.523-.683 1.523-1.523v-8.147c0-.84-.683-1.523-1.523-1.523h-21.187c-.84 0-1.523.683-1.523 1.523v8.147c0 .84.683 1.523 1.523 1.523h21.187z"/><path d="M570.324 33.439v8.147c0 1.896-1.542 3.438-3.438 3.438h-21.187c-1.896 0-3.438-1.542-3.438-3.438v-8.147c0-1.896 1.542-3.438 3.438-3.438h21.187c1.896 0 3.438 1.542 3.438 3.438zm-3.438 9.67c.84 0 1.523-.683 1.523-1.523v-8.147c0-.84-.683-1.523-1.523-1.523h-21.187c-.84 0-1.523.683-1.523 1.523v8.147c0 .84.683 1.523 1.523 1.523h21.187z"/><path d="M557.232 46.547v8.147c0 1.896-1.542 3.438-3.438 3.438h-21.187c-1.896 0-3.438-1.542-3.438-3.438v-8.147c0-1.896 1.542-3.438 3.438-3.438h21.187c1.896 0 3.438 1.542 3.438 3.438zm-3.438 9.671c.84 0 1.523-.683 1.523-1.523v-8.147c0-.84-.683-1.523-1.523-1.523h-21.187c-.84 0-1.523.683-1.523 1.523v8.147c0 .84.683 1.523 1.523 1.523h21.187zm55.735-9.671v8.147c0 1.896-1.542 3.438-3.438 3.438h-21.187c-1.896 0-3.438-1.542-3.438-3.438v-8.147c0-1.896 1.542-3.438 3.438-3.438h21.187c1.896 0 3.438 1.542 3.438 3.438zm-3.438 9.671c.84 0 1.523-.683 1.523-1.523v-8.147c0-.84-.683-1.523-1.523-1.523h-21.187c-.84 0-1.523.683-1.523 1.523v8.147c0 .84.683 1.523 1.523 1.523h21.187z"/><path d="M583.38 46.547v8.147c0 1.896-1.542 3.438-3.438 3.438h-21.187c-1.896 0-3.438-1.542-3.438-3.438v-8.147c0-1.896 1.542-3.438 3.438-3.438h21.187c1.896 0 3.438 1.542 3.438 3.438zm-3.438 9.671c.84 0 1.523-.683 1.523-1.523v-8.147c0-.84-.683-1.523-1.523-1.523h-21.187c-.84 0-1.523.683-1.523 1.523v8.147c0 .84.683 1.523 1.523 1.523h21.187z"/></g></g><g fill="#3ebaba" class="H"><path d="M781.313 61.582l1.088-1.087-1.088-1.087a2.47 2.47 0 0 0-1.747-.723h-8.419c-1.106 0-2.166.439-2.949 1.22l-.627.627.555.554c.782.781 1.843 1.22 2.949 1.22h8.492a2.47 2.47 0 0 0 1.747-.723z"/><use href="#V"/><path d="M804.348 64.377h-8.419c-1.106 0-2.166.439-2.949 1.22l-.627.627.555.554c.782.781 1.843 1.22 2.948 1.22h8.492c.655 0 1.284-.26 1.748-.723l1.088-1.087-1.088-1.087a2.47 2.47 0 0 0-1.748-.723z"/><use href="#W"/><path d="M775.34 54.537l1.088-1.087-1.088-1.087a2.47 2.47 0 0 0-1.747-.723h-8.42a4.17 4.17 0 0 0-2.948 1.22l-.627.627.555.554c.782.781 1.843 1.22 2.949 1.22h8.492a2.47 2.47 0 0 0 1.747-.723z"/><path d="M779.395 51.079l-2.966 2.371 2.966 2.371a4.47 4.47 0 0 1 0-4.742zm45.375-18.992c.782.781 1.843 1.22 2.948 1.22h8.492c.655 0 1.284-.26 1.748-.723l1.088-1.087-1.088-1.087a2.47 2.47 0 0 0-1.748-.723h-8.419c-1.106 0-2.166.439-2.949 1.22l-.627.627.555.554z"/><path d="M842.012 29.126l-2.966 2.371 2.966 2.371a4.47 4.47 0 0 1 0-4.742z"/><use href="#X"/><path d="M833.103 48.817l2.966 2.371a4.47 4.47 0 0 1 0-4.742l-2.966 2.371zm-20.671-8.429l.555.554c.782.781 1.843 1.22 2.949 1.22h8.492a2.47 2.47 0 0 0 1.747-.723l1.088-1.087-1.088-1.087a2.47 2.47 0 0 0-1.747-.723h-8.419c-1.106 0-2.166.439-2.949 1.22l-.627.627z"/><path d="M830.229 37.981l-2.966 2.371 2.966 2.371a4.47 4.47 0 0 1 0-4.742zm-17.176 38.975h-8.42a4.17 4.17 0 0 0-2.948 1.22l-.627.627.555.554c.782.781 1.843 1.22 2.949 1.22h8.492c.655 0 1.284-.26 1.748-.723l1.088-1.087-1.088-1.087a2.47 2.47 0 0 0-1.748-.723z"/><path d="M818.855 76.395l-2.966 2.371 2.966 2.371a4.47 4.47 0 0 1 0-4.742zm-20.739-42.498c.782.781 1.843 1.22 2.949 1.22h8.492a2.47 2.47 0 0 0 1.747-.723l1.088-1.087-1.088-1.087a2.47 2.47 0 0 0-1.747-.723h-8.42a4.17 4.17 0 0 0-2.948 1.22l-.627.627.555.554z"/><path d="M815.358 30.936l-2.966 2.371 2.966 2.371a4.47 4.47 0 0 1 0-4.742zm-11.714 18.753a2.47 2.47 0 0 0-1.748-.723h-8.419c-1.106 0-2.166.439-2.949 1.22l-.627.627.555.554c.782.781 1.843 1.22 2.948 1.22h8.492c.655 0 1.284-.26 1.748-.723l1.088-1.087-1.088-1.087z"/><path d="M804.732 50.777l2.966 2.371a4.47 4.47 0 0 1 0-4.742l-2.966 2.371zm-14.825 21.437h-8.42a4.17 4.17 0 0 0-2.948 1.22l-.627.627.555.554c.782.781 1.843 1.22 2.949 1.22h8.492a2.47 2.47 0 0 0 1.747-.723l1.088-1.087-1.088-1.087a2.47 2.47 0 0 0-1.747-.723z"/><path d="M795.709 71.654l-2.966 2.371 2.966 2.371a4.47 4.47 0 0 1 0-4.742zm19.166-12.051l1.088-1.087-1.088-1.087a2.47 2.47 0 0 0-1.748-.723h-8.42a4.17 4.17 0 0 0-2.948 1.22l-.627.627.555.554c.782.781 1.843 1.22 2.948 1.22h8.492c.655 0 1.284-.26 1.748-.723z"/><path d="M818.93 56.144l-2.966 2.371 2.966 2.371a4.47 4.47 0 0 1 0-4.742zm19.18-16.278l-.627.627.555.554c.782.781 1.843 1.22 2.949 1.22h8.492a2.47 2.47 0 0 0 1.747-.723l1.088-1.087-1.088-1.087a2.47 2.47 0 0 0-1.747-.723h-8.419c-1.106 0-2.167.439-2.949 1.22z"/><path d="M855.279 38.085l-2.966 2.371 2.966 2.371a4.47 4.47 0 0 1 0-4.742z"/><use href="#Y"/><path d="M866.511 45.824l-2.966 2.371 2.966 2.371a4.47 4.47 0 0 1 0-4.742zm31.86-.159h-8.419c-1.106 0-2.166.439-2.949 1.22l-.627.627.555.554c.782.781 1.843 1.22 2.949 1.22h8.492a2.47 2.47 0 0 0 1.747-.723l1.088-1.087-1.088-1.088a2.47 2.47 0 0 0-1.747-.723z"/><path d="M904.173 45.105l-2.966 2.371 2.966 2.371a4.47 4.47 0 0 1 0-4.742zm-23.92 16.868l1.088-1.087-1.088-1.087a2.47 2.47 0 0 0-1.747-.723h-8.419c-1.106 0-2.167.439-2.949 1.22l-.627.627.555.554c.782.781 1.843 1.22 2.949 1.22h8.492a2.47 2.47 0 0 0 1.747-.723z"/><path d="M884.307 58.515l-2.966 2.371 2.966 2.371a4.47 4.47 0 0 1 0-4.742zm2.357 9.144h-8.419c-1.106 0-2.166.439-2.949 1.22l-.627.627.555.554c.782.781 1.843 1.22 2.948 1.22h8.492c.656 0 1.284-.26 1.748-.723l1.088-1.087-1.088-1.087a2.47 2.47 0 0 0-1.748-.723z"/><path d="M889.5 69.469l2.966 2.371a4.47 4.47 0 0 1 0-4.742l-2.966 2.371z"/><use href="#Z"/><path d="M844.589 64.208l2.966 2.371a4.47 4.47 0 0 1 0-4.742l-2.966 2.371zm-17.277 6.026h-8.42a4.17 4.17 0 0 0-2.948 1.22l-.627.627.555.554c.782.781 1.843 1.22 2.948 1.22h8.492c.655 0 1.284-.26 1.748-.723l1.088-1.087-1.088-1.087a2.47 2.47 0 0 0-1.748-.723z"/><path d="M830.147 72.045l2.966 2.371a4.47 4.47 0 0 1 0-4.742l-2.966 2.371zm7.539 8.2h-8.419c-1.106 0-2.167.439-2.949 1.22l-.627.627.555.554c.782.781 1.843 1.22 2.948 1.22h8.492c.656 0 1.284-.26 1.748-.723l1.088-1.087-1.088-1.087a2.47 2.47 0 0 0-1.748-.723z"/><path d="M840.522 82.055l2.966 2.371a4.47 4.47 0 0 1 0-4.742l-2.966 2.371zm-10.162 7.937h-8.419c-1.106 0-2.166.439-2.949 1.22l-.627.627.555.554c.782.781 1.843 1.22 2.948 1.22h8.492c.656 0 1.284-.26 1.748-.723l1.088-1.087-1.088-1.088a2.47 2.47 0 0 0-1.748-.723z"/><path d="M833.196 91.803l2.966 2.371a4.47 4.47 0 0 1 0-4.742l-2.966 2.371zm19.973-19.198h-8.419c-1.106 0-2.167.439-2.949 1.22l-.627.627.555.554c.782.781 1.843 1.22 2.948 1.22h8.492c.656 0 1.284-.26 1.748-.723l1.088-1.087-1.088-1.087a2.47 2.47 0 0 0-1.748-.723z"/><path d="M856.005 74.416l2.966 2.371a4.47 4.47 0 0 1 0-4.742l-2.966 2.371zM805.344 85.91h-8.419c-1.106 0-2.166.439-2.949 1.22l-.627.627.555.554c.782.781 1.843 1.22 2.948 1.22h8.492c.656 0 1.284-.26 1.748-.723l1.088-1.087-1.088-1.087a2.47 2.47 0 0 0-1.748-.723z"/><path d="M808.18 87.721l2.966 2.371a4.47 4.47 0 0 1 0-4.742l-2.966 2.371zm-28.207-42.927h8.492a2.47 2.47 0 0 0 1.747-.723l1.088-1.087-1.088-1.087a2.47 2.47 0 0 0-1.747-.723h-8.419c-1.106 0-2.166.439-2.949 1.22l-.627.627.555.554c.782.781 1.843 1.22 2.949 1.22z"/><path d="M794.266 40.612l-2.966 2.371 2.966 2.371a4.47 4.47 0 0 1 0-4.742z"/></g><g fill="#7ee6e4"><path d="M776.611,179.833c-12.682,0-23-10.309-23-22.982s10.318-22.981,23-22.981h11.581c12.684,0,23.002,10.309,23.002,22.981s-10.318,22.982-23.002,22.982h-11.581Z" class="H"/><path d="M1209.742 141.418c-76.136 0-138.076 61.941-138.076 138.077 0 9.374-7.626 17-17 17H948.403c-9.374 0-17-7.626-17-17v-2.009c0-36.943-30.057-67-67-67h-75.775c-41.992 0-76.156-34.163-76.156-76.156V48.342c0-34.188-27.813-62-62-62H505.54c-34.187 0-62 27.812-62 62v1.583c0 6.616-5.383 12-12 12h-77.199c-41.355 0-75 33.645-75 75v1.615c0 6.616-5.383 12-12 12H-56.875v1900.227h125.29c19.299 0 35 15.701 35 35v28.562c0 46.869 38.131 85 85 85h282.678c46.869 0 85-38.131 85-85v-4.012c0-19.299 15.701-35 35-35h100.898c106.145 0 192.5-86.354 192.5-192.5 0-13.785 11.215-25 25-25h189.302c13.785 0 25 11.215 25 25v6.941c0 13.785-11.215 25-25 25h-1.646c-41.355 0-75 33.646-75 75.001v134.569c0 41.355 33.645 75 75 75h68.108c41.355 0 75-33.645 75-75 0-34.095 27.737-61.833 61.832-61.833h254.837V141.418h-347.181z"/></g><path d="M1045.191 716.028h0c0-51.28 41.571-92.851 92.85-92.851h57.665c32.387 0 58.642-26.255 58.642-58.642h0c0-32.387 26.255-58.642 58.642-58.642h218.932V166.418h-322.181c-62.45 0-113.076 50.626-113.076 113.076h0c0 23.196-18.804 42-42 42H948.403c-23.196 0-42-18.804-42-42v-2.009c0-23.196-18.804-42-42-42h-75.776c-55.867 0-101.156-45.289-101.156-101.156V48.342c0-20.435-16.565-37-37-37H505.539c-20.435 0-37 16.565-37 37v1.583c0 20.435-16.565 37-37 37H354.34c-27.614 0-50 22.386-50 50v1.615c0 20.435-16.565 37-37 37H-31.875v1850.227H68.414c33.137 0 60 26.863 60 60v28.561c0 33.137 26.863 60 60 60h282.678c33.137 0 60-26.863 60-60v-4.011c0-33.137 26.863-60 60-60H691.99c92.508 0 167.5-74.992 167.5-167.5h0c0-27.614 22.386-50 50-50h189.302c27.614 0 50 22.386 50 50v6.942c0 27.614-22.386 50-50 50h-1.647c-27.614 0-50 22.386-50 50v134.57c0 27.614 22.386 50 50 50h68.108c27.614 0 50-22.386 50-50h0c0-47.956 38.876-86.832 86.832-86.832h229.837V1709.46c0-39.064-31.668-70.732-70.732-70.732h-323.15c-50.932 0-92.285-41.008-92.845-91.807l-.006-830.892z" fill="#fbed97"/><path d="M1209.742 226.419c-29.313 0-53.076 23.763-53.076 53.076h0c0 56.333-45.667 102-102 102H701.078c-40.652 0-73.606-32.955-73.606-73.606V97.342c0-14.359-11.641-26-26-26H545.03c-10.394 0-19.895 6.146-23.89 15.742-14.612 35.099-49.272 59.841-89.6 59.841h-46.653c-11.17 0-21.157 7.295-24.204 18.042-11.534 40.685-49.013 70.574-93.342 70.574H-1.979l-11.374 1742.34 115.314-.491c49.895 14.55 86.454 60.7 86.454 115.229v.695c.001 13.259 10.754 24.004 24.013 23.997l236.679-.131c11.698-.007 21.708-8.443 23.64-19.98 9.508-56.77 58.875-100.032 118.346-100.032h100.898c59.37 0 107.5-48.129 107.5-107.5h0c0-60.752 49.249-110 110-110h189.003c21.384 0 38.798-17.186 39.08-38.568h0c.246-18.686-12.768-34.942-31.062-38.758-28.801-6.009-55.263-20.244-76.552-41.532-28.243-28.244-44.073-65.595-44.746-105.431-.015-.883-.022-838.466-.022-839.351 0-40.828 15.899-79.212 44.769-108.081s67.254-44.769 108.082-44.769h28.622c14.589 0 27.327-10.069 30.48-24.313 11.76-53.123 59.237-92.972 115.846-92.972h312.76V226.419h-416.008z" fill="#62c244"/><path d="M1615.775 226.419h-406.033c-29.313 0-53.076 23.763-53.076 53.076h0c0 56.333-45.667 102-102 102H701.078c-40.652 0-73.606-32.955-73.606-73.606V97.342c0-14.359-11.641-26-26-26H545.03c-10.394 0-19.895 6.146-23.89 15.742-14.612 35.099-49.272 59.841-89.6 59.841h-46.653c-11.17 0-21.157 7.295-24.204 18.042-11.534 40.685-49.013 70.574-93.342 70.574H3.009" stroke="#62c244" stroke-dasharray="0 9.976" stroke-width="10" class="B E I"/><g clip-path="url(#C)"><path d="M1286.898 142.767h7.669v66.829h-7.669z" fill="#d6e14c"/></g><path d="M151.541 142.217c.096-.036.101-.028.198-.062.21-.054.338-.031.57-.035.731.036 1.445.462 1.958 1.145.175.095.259.242.346.389l.131.228 32.538 56.356-5.083-.017-31.258-54.143-.131-.228c-.128-.221-.259-.449-.296-.713-.272-.887-.188-1.762.286-2.363.141-.168.207-.261.378-.37l.178-.101c.094-.043.099-.036.185-.085z" fill="#e9c242"/><path d="M198.749 147.188c-10.681-18.499-34.331-24.836-52.828-14.155s-24.835 34.328-14.154 52.827l66.982-38.672z" fill="#b74f25"/><path d="M644.605 37.409H509.33l.085-79.46 67.553-28.57 67.637 28.57v79.46z" fill="#fff"/><g clip-path="url(#D)" class="B D E J"><g opacity=".55" stroke="#f9ea9b"><path d="M511.099 37.409l-.049-111.163m14.687 111.163l-.03-111.163m14.667 111.163l-.01-111.163m14.647 111.163l.011-111.163m14.627 111.163l.03-111.163m14.607 111.163l.05-111.163m14.588 111.163l.07-111.163m14.567 111.163l.09-111.163m14.547 111.163l.111-111.163m14.527 111.163l.13-111.163"/></g></g><path d="M591.031 37.409h-28.187l-.001-40.08h28.249l-.061 40.08z" class="F"/><g clip-path="url(#E)"><path d="M593.572 4.254h-33.269l-.757-8.818h34.857l-.831 8.818z" fill="#f1a83b"/></g><g class="G"><path d="M566.207 1.225h8.94v14.664h-8.94zm12.581 0h8.94v14.664h-8.94zm-12.581 18.092h8.94v18.092h-8.94zm12.581 0h8.94v18.092h-8.94z"/></g><g fill="#fff"><path d="M524.441 17.212h28.248v8.487h-28.248zm76.806 0h28.248v8.487h-28.248z"/></g><use href="#a" class="F"/><g clip-path="url(#F)" class="G"><path d="M555.169 4.167H521.9l-.757-11.415H556l-.831 11.415z"/></g><g fill="#fff"><use href="#b"/><path d="M540.385 1.138h8.94v15.289h-8.94z"/></g><g stroke="#f3b840" class="B D K"><path d="M524.44 17.212h28.249v8.487H524.44z"/><use href="#c"/><path d="M538.564 17.212v8.487m7.063-8.487v8.487"/></g><g fill="#61d2c0"><use href="#d"/><path d="M540.385 11.057h8.94v4.832h-8.94z"/></g><path d="M629.434 17.212h-28.187l-.001-19.97h28.249l-.061 19.97z" class="F"/><g clip-path="url(#G)" class="G"><path d="M631.976 4.167h-33.27l-.756-11.415h34.856l-.83 11.415z"/></g><g fill="#fff"><path d="M604.61 1.138h8.94v15.289h-8.94zm12.582 0h8.94v15.289h-8.94z"/></g><g stroke="#f3b840" class="B D K"><path d="M601.246 17.212h28.249v8.487h-28.249z"/><path d="M608.309 17.212v8.487m7.062-8.487v8.487m7.062-8.487v8.487"/></g><g fill="#61d2c0"><path d="M604.61 11.057h8.94v4.832h-8.94zm12.542 0h8.94v4.832h-8.94z"/></g><g stroke="#7615f5" class="B D J"><use href="#e"/><path d="M528.227 38.392v11.966m16.247-11.966v11.966m64.987-11.966v11.966m16.247-11.966v11.966m19.62-11.966v11.966"/></g><path d="M645.328 35.805H508.607a2.6 2.6 0 0 0-2.6 2.597v2.583h141.92v-2.583a2.6 2.6 0 0 0-2.6-2.597z" fill="#7615f5"/><g fill="#a05cf8"><path d="M566.111 35.791h21.776a2.6 2.6 0 0 1 2.598 2.598v4.532h-26.973v-4.532a2.6 2.6 0 0 1 2.598-2.598z"/><path d="M560.624 42.922h32.75a2.6 2.6 0 0 1 2.598 2.598v4.838h-37.947V45.52a2.6 2.6 0 0 1 2.598-2.598z"/></g><g fill="#7a2ec1"><path d="M563.512 40.985h26.973v1.936h-26.973zm-5.487 7.14h37.947v2.233h-37.947z" opacity=".5"/></g><g stroke-width="10" stroke="#fbed97" class="B E I"><path d="M651.516 50.358h0"/><path d="M641.66 50.358H498.753" stroke-dasharray="0 9.856"/><path d="M493.825 50.358h0"/></g><g opacity=".35"><g fill="#f2b052"><circle cx="459.873" cy="111.238" r="2.832" transform="matrix(.169659 -.985503 .985503 .169659 272.229 545.573)" class="C"/><circle cx="448.852" cy="112.69" r="2.832" transform="matrix(.169659 -.985503 .985503 .169659 261.648 535.917)" class="C"/><circle cx="451.055" cy="103.947" r="2.832" transform="matrix(.169659 -.985503 .985503 .169659 272.092 530.829)" class="C"/><circle cx="425.879" cy="109.904" r="2.832" transform="matrix(.169659 -.985503 .985503 .169659 245.318 510.964)" class="C"/><circle cx="433.785" cy="127.302" r="2.832" transform="matrix(.169659 -.985503 .985503 .169659 234.736 533.202)" class="C"/></g></g></g></svg>