<svg xmlns="http://www.w3.org/2000/svg" width="1500" height="145" xmlns:v="https://vecta.io/nano"><style><![CDATA[.B{fill-rule:evenodd}.C{fill:none}.D{opacity:.5}.E{clip-rule:evenodd}.F{fill:#839c2f}.G{fill:#839d24}.H{opacity:.75}.I{fill:#4e7b3f}.J{fill:#4d7c3d}.K{stroke-linecap:round}.L{stroke-linejoin:round}.M{fill:#bdce42}.N{fill:#bdd033}.O{stroke-width:10}.P{fill:#abbe3c}.Q{stroke-dasharray:0 10}.R{opacity:.6}.S{fill:#abc02e}.T{fill:#ff9c0d}.U{fill:#62c244}.V{stroke:#62c244}.W{fill:#52ab35}.X{stroke:#52ab35}.Y{fill:#071c1c}.Z{fill:#ed7e07}.a{fill:#00703a}.b{fill:#6a4c46}.c{fill:#594238}.d{fill:#d6e14c}.e{fill:#6b4c46}.f{fill:#594237}.g{fill:#d6e23d}.h{opacity:.331}.i{fill:#102120}.j{fill:#f6e658}.k{fill:#281805}.l{fill:#0d9171}.m{stroke-width:.931}]]></style><defs><clipPath id="A"><path d="M0 0h1500v145H0z" class="C"/></clipPath><clipPath id="B"><path d="M1033.689-12.5l15.452-2.651a.72.72 0 0 1 .588 1.262l-10.038 8.31a5.5 5.5 0 0 0-1.585 2.156l-4.936 12.06a.72.72 0 0 1-1.38-.184l-1.774-15.958 1.301-2.826 2.37-2.169z" class="C E"/></clipPath><clipPath id="C"><path d="M838.372 45.848h22.918l6.211 69.687a5.31 5.31 0 0 1-5.28 5.885h-24.892a5.31 5.31 0 0 1-5.279-5.895l6.322-69.676z" class="C"/></clipPath><clipPath id="D"><path d="M849.775 43.788c0 8.104-3.221 15.878-8.958 21.61a30.6 30.6 0 0 1-21.632 8.95h-30.766V54.145a30.55 30.55 0 0 1 8.958-21.613 30.62 30.62 0 0 1 21.632-8.95h30.766v20.207z" class="C E"/></clipPath><clipPath id="E"><path d="M849.775 43.788c0 8.104 3.221 15.878 8.958 21.61a30.6 30.6 0 0 0 21.632 8.95h30.766V54.145a30.55 30.55 0 0 0-8.958-21.613 30.62 30.62 0 0 0-21.632-8.95h-30.766v20.207z" class="C E"/></clipPath><clipPath id="F"><path d="M849.758 74.348l18.376-13.381c10.15-7.391 11.297-22.091 2.416-30.964l-6.428-6.423h-28.729l-6.428 6.423c-8.881 8.873-7.734 23.573 2.416 30.964l18.376 13.381z" class="C E"/></clipPath><clipPath id="G"><path d="M506.355-26.927h22.918l6.211 69.687a5.31 5.31 0 0 1-5.28 5.885h-24.892a5.31 5.31 0 0 1-5.279-5.895l6.322-69.676z" class="C"/></clipPath><clipPath id="H"><path d="M517.758-28.987c0 8.104-3.221 15.878-8.958 21.61a30.6 30.6 0 0 1-21.632 8.95h-30.766V-18.63a30.55 30.55 0 0 1 8.958-21.613 30.62 30.62 0 0 1 21.632-8.95h30.766v20.207z" class="C E"/></clipPath><clipPath id="I"><path d="M517.758-28.987c0 8.104 3.221 15.878 8.958 21.61a30.6 30.6 0 0 0 21.632 8.95h30.766V-18.63a30.55 30.55 0 0 0-8.958-21.613 30.62 30.62 0 0 0-21.632-8.95h-30.766v20.207z" class="C E"/></clipPath><clipPath id="J"><path d="M517.741 1.573l18.376-13.381c10.15-7.391 11.297-22.091 2.416-30.964l-6.428-6.423h-28.729l-6.428 6.423c-8.881 8.873-7.734 23.573 2.416 30.964L517.74 1.573z" class="C E"/></clipPath><clipPath id="K"><path d="M967.187 79.669h16.963l4.597 41.568a3.93 3.93 0 0 1-3.908 4.356h-18.424a3.93 3.93 0 0 1-3.907-4.363l4.679-41.56z" class="C"/></clipPath><clipPath id="L"><path d="M975.626 78.144a22.61 22.61 0 0 1-6.63 15.994 22.65 22.65 0 0 1-16.01 6.624h-22.771V85.809a22.61 22.61 0 0 1 6.63-15.997 22.66 22.66 0 0 1 16.01-6.624h22.771v14.956z" class="C E"/></clipPath><clipPath id="M"><path d="M975.626 78.144a22.61 22.61 0 0 0 6.63 15.994 22.65 22.65 0 0 0 16.01 6.624h22.771V85.809a22.61 22.61 0 0 0-6.63-15.997 22.66 22.66 0 0 0-16.01-6.624h-22.771v14.956z" class="C E"/></clipPath><clipPath id="N"><path d="M975.614 100.763l13.601-9.903c7.512-5.47 8.361-16.35 1.788-22.918l-4.758-4.754h-21.263l-4.758 4.754c-6.573 6.567-5.724 17.447 1.788 22.918l13.601 9.903z" class="C E"/></clipPath><clipPath id="O"><path d="M556.56 77.332h16.963l4.597 41.568a3.93 3.93 0 0 1-3.908 4.356h-18.424a3.93 3.93 0 0 1-3.907-4.363l4.679-41.56z" class="C"/></clipPath><clipPath id="P"><path d="M565 75.807a22.61 22.61 0 0 1-6.63 15.994 22.65 22.65 0 0 1-16.01 6.624h-22.771V83.472a22.61 22.61 0 0 1 6.63-15.997 22.66 22.66 0 0 1 16.01-6.624H565v14.956z" class="C E"/></clipPath><clipPath id="Q"><path d="M565 75.807a22.61 22.61 0 0 0 6.63 15.994 22.65 22.65 0 0 0 16.01 6.624h22.771V83.472a22.61 22.61 0 0 0-6.63-15.997 22.66 22.66 0 0 0-16.01-6.624H565v14.956z" class="C E"/></clipPath><clipPath id="R"><path d="M564.987 98.426l13.601-9.903c7.512-5.47 8.361-16.35 1.788-22.918l-4.758-4.754h-21.263l-4.758 4.754c-6.573 6.567-5.724 17.447 1.788 22.918l13.601 9.903z" class="C E"/></clipPath><clipPath id="S"><path d="M238.662 107.017h18.181l4.927 44.959c.273 2.492-1.68 4.668-4.189 4.668h-19.747c-2.512 0-4.466-2.182-4.188-4.677l5.015-44.95z" class="C"/></clipPath><clipPath id="T"><path d="M247.708 105.384c0 6.428-2.555 12.596-7.106 17.143s-10.723 7.1-17.16 7.1h-24.406V113.6c0-6.432 2.555-12.599 7.106-17.146a24.29 24.29 0 0 1 17.16-7.1h24.406v16.03z" class="C E"/></clipPath><clipPath id="U"><path d="M247.708 105.384c0 6.428 2.555 12.596 7.106 17.143s10.723 7.1 17.16 7.1h24.406V113.6c0-6.432-2.555-12.599-7.106-17.146a24.29 24.29 0 0 0-17.16-7.1h-24.406v16.03z" class="C E"/></clipPath><clipPath id="V"><path d="M247.694 129.626l14.578-10.615c8.052-5.863 8.962-17.524 1.917-24.563l-5.099-5.095H236.3l-5.099 5.095c-7.045 7.039-6.135 18.7 1.917 24.563l14.578 10.615z" class="C E"/></clipPath><clipPath id="W"><path d="M103.085-16.475h12.473l3.38 30.845a2.89 2.89 0 0 1-2.874 3.203h-13.548a2.89 2.89 0 0 1-2.873-3.208l3.441-30.839z" class="C"/></clipPath><clipPath id="X"><path d="M109.291-17.596a16.63 16.63 0 0 1-4.875 11.761c-3.122 3.12-7.357 4.871-11.773 4.871H75.898V-11.96c0-4.412 1.753-8.644 4.875-11.763a16.66 16.66 0 0 1 11.773-4.871h16.745v10.998z" class="C E"/></clipPath><clipPath id="Y"><path d="M109.291-17.596a16.63 16.63 0 0 0 4.875 11.761c3.122 3.12 7.357 4.871 11.773 4.871h16.745V-11.96c0-4.412-1.753-8.644-4.875-11.763a16.66 16.66 0 0 0-11.773-4.871h-16.745v10.998z" class="C E"/></clipPath><clipPath id="Z"><path d="M109.282-.963l10.001-7.282a11.12 11.12 0 0 0 1.315-16.852l-3.499-3.496h-15.636l-3.499 3.496a11.12 11.12 0 0 0 1.315 16.852L109.28-.963z" class="C E"/></clipPath><clipPath id="a"><path d="M142.774 23.214h12.473l3.38 30.845a2.89 2.89 0 0 1-2.874 3.203h-13.548a2.89 2.89 0 0 1-2.873-3.208l3.441-30.839z" class="C"/></clipPath><clipPath id="b"><path d="M148.98 22.093a16.63 16.63 0 0 1-4.875 11.761c-3.122 3.12-7.357 4.871-11.773 4.871h-16.745V27.729c0-4.412 1.753-8.644 4.875-11.763a16.66 16.66 0 0 1 11.773-4.871h16.745v10.998z" class="C E"/></clipPath><clipPath id="c"><path d="M148.98 22.093a16.63 16.63 0 0 0 4.875 11.761c3.122 3.12 7.357 4.871 11.773 4.871h16.745V27.729c0-4.412-1.753-8.644-4.875-11.763a16.66 16.66 0 0 0-11.773-4.871H148.98v10.998z" class="C E"/></clipPath><clipPath id="d"><path d="M148.971 38.726l10.001-7.282a11.12 11.12 0 0 0 1.315-16.852l-3.499-3.496h-15.636l-3.499 3.496a11.12 11.12 0 0 0 1.315 16.852l10.001 7.282z" class="C E"/></clipPath><clipPath id="e"><path d="M156.323 96.053h12.473l3.38 30.845a2.89 2.89 0 0 1-2.874 3.203h-13.548a2.89 2.89 0 0 1-2.873-3.208l3.441-30.839z" class="C"/></clipPath><clipPath id="f"><path d="M162.529 94.932a16.63 16.63 0 0 1-4.875 11.761c-3.122 3.12-7.357 4.871-11.773 4.871h-16.745v-10.996c0-4.412 1.753-8.644 4.875-11.763a16.66 16.66 0 0 1 11.773-4.871h16.745v10.998z" class="C E"/></clipPath><clipPath id="g"><path d="M162.529 94.932a16.63 16.63 0 0 0 4.875 11.761c3.122 3.12 7.357 4.871 11.773 4.871h16.745v-10.996c0-4.412-1.753-8.644-4.875-11.763a16.66 16.66 0 0 0-11.773-4.871h-16.745v10.998z" class="C E"/></clipPath><clipPath id="h"><path d="M162.519 111.564l10.001-7.282a11.12 11.12 0 0 0 1.315-16.852l-3.499-3.496H154.7l-3.499 3.496a11.12 11.12 0 0 0 1.315 16.852l10.001 7.282z" class="C E"/></clipPath><clipPath id="i"><path d="M1303.505,29.865h0c.417-.931-.113-2.085-1.106-2.319l-13.346-3.069.327,3.23,12.248,3.068c.764.191,1.555-.193,1.877-.911Z" class="C E"/></clipPath><clipPath id="j"><path d="M1285.174 22.842l-1.88 7.776.526.127c.331.08.677 0 .92-.216l.129-.114 3.052-2.636 1.289.312c.218.053.447.016.638-.1a.84.84 0 0 0 .38-.522l.58-2.398c.11-.453-.169-.908-.622-1.018l-5.012-1.212z" class="C E"/></clipPath><clipPath id="k"><path d="M1304.731 16.931a1.75 1.75 0 0 0-.329-2.323l-2.3-1.924c-.357-.298-.816-.442-1.28-.401s-.89.265-1.188.621l-5.354 6.402 5.662 4.735 4.79-7.11z" class="C E"/></clipPath><clipPath id="l"><path d="M1315.261 23.164l-12.453-5.912a1.4 1.4 0 0 1-.706-1.774l.012-.03c.141-.364.428-.653.791-.797s.77-.131 1.122.038l12.396 5.918-1.161 2.557z" class="C E"/></clipPath><clipPath id="m"><path d="M1313.336 4.262a8.75 8.75 0 0 0-8.75-8.75h-5.62a8.75 8.75 0 0 0-8.75 8.75h0a8.75 8.75 0 0 0 8.75 8.751h5.62a8.75 8.75 0 0 0 8.75-8.75h0z" class="C E"/></clipPath><clipPath id="n"><path d="M1313.304 1.923c-.005-1.969-1.603-3.563-3.572-3.563h-10.921c-.949 0-1.859.378-2.529 1.049a3.57 3.57 0 0 0-1.043 2.532l.023 8.855c.005 1.969 1.603 3.563 3.572 3.563h10.921c.949 0 1.859-.378 2.529-1.049s1.045-1.583 1.043-2.532l-.023-8.855z" class="C E"/></clipPath><clipPath id="o"><path d="M1312.052-4.438h-2.569a4.85 4.85 0 0 0-3.375 1.366l-16.171 15.653h0a4.53 4.53 0 0 1-4.686-4.467l-.02-15.954a5.79 5.79 0 0 1 5.792-5.8q0 0 .002 0c1.562 0 3.084.489 4.354 1.399l.694.497a12.56 12.56 0 0 0 5.915 2.272l6.185.695c2.209.248 3.879 2.116 3.879 4.339h0z" class="C E"/></clipPath><clipPath id="p"><rect x="1305.211" y="2.86" width="5.036" height="9" rx="1.512" class="C"/></clipPath><path id="q" d="M1436.677,75.911c-1.232,0-2.231-1-2.231-2.236v-4.667c0-1.236.999-2.236,2.231-2.236s2.231,1,2.231,2.236v4.667c0,1.236-.999,2.236-2.231,2.236Z"/><path id="r" d="M1452.493 94.39c-1.232 0-2.231-1-2.231-2.236v-7.001c0-1.236.999-2.236 2.231-2.236s2.231 1 2.231 2.236v7.001c0 1.236-.999 2.236-2.231 2.236z"/><path id="s" d="M1461.808 94.39c-1.232 0-2.231-1-2.231-2.236v-4.669c0-1.236.999-2.236 2.231-2.236s2.231 1 2.231 2.236v4.669c0 1.236-.999 2.236-2.231 2.236z"/><path id="t" d="M1470.442,55.684c-1.232,0-2.231-1-2.231-2.236v-4.669c0-1.236.999-2.236,2.231-2.236s2.231,1,2.231,2.236v4.669c0,1.236-.999,2.236-2.231,2.236Z"/><path id="u" d="M85.319 77.953c1.232 0 2.231-1 2.231-2.236v-7.001c0-1.236-.999-2.236-2.231-2.236s-2.231 1-2.231 2.236v7.001c0 1.236.999 2.236 2.231 2.236z"/><path id="v" d="M76.005 77.953c1.232 0 2.231-1 2.231-2.236V71.05c0-1.236-.999-2.236-2.231-2.236s-2.231 1-2.231 2.236v4.667c0 1.236.999 2.236 2.231 2.236z"/><path id="w" d="M68.726 96.432c1.232 0 2.231-1 2.231-2.236v-4.669c0-1.236-.999-2.236-2.231-2.236s-2.231 1-2.231 2.236v4.669c0 1.236.999 2.236 2.231 2.236z"/><path id="x" d="M439.369,97.306c-1.232,0-2.231-1-2.231-2.236v-4.667c0-1.236.999-2.236,2.231-2.236s2.231,1,2.231,2.236v4.667c0,1.236-.999,2.236-2.231,2.236Z"/><path id="y" d="M473.134,77.079c-1.232,0-2.231-1-2.231-2.236v-4.669c0-1.236.999-2.236,2.231-2.236s2.231,1,2.231,2.236v4.669c0,1.236-.999,2.236-2.231,2.236Z"/><path id="z" d="M838.372 45.848h22.918l6.211 69.687a5.31 5.31 0 0 1-5.28 5.885h-24.892a5.31 5.31 0 0 1-5.279-5.895l6.322-69.676z"/><path id="AA" d="M847.348 26.548l4.844-5.939 61.357 50.04-4.844 5.939z"/><path id="AB" d="M876.965 51.574c1.248 0 2.477-.609 3.211-1.729a3.83 3.83 0 0 0-1.103-5.306l-15.589-10.217c-1.773-1.167-4.149-.664-5.308 1.1a3.83 3.83 0 0 0 1.103 5.306l15.589 10.217a3.8 3.8 0 0 0 2.097.629z"/><path id="AC" d="M967.187 79.669h16.963l4.597 41.568a3.93 3.93 0 0 1-3.908 4.356h-18.424a3.93 3.93 0 0 1-3.907-4.363l4.679-41.56z"/><path id="AD" d="M975.614 109.99l13.867-10.097c7.659-5.577 8.525-16.669 1.823-23.365l-4.851-4.846h-21.679l-4.851 4.846c-6.701 6.696-5.836 17.788 1.823 23.365l13.867 10.097z"/><path id="AE" d="M928.428 98.036l45.387-37.068 3.588 4.394-45.387 37.068z"/><path id="AF" d="M949.136 103.213h5.676v-9.54a2.84 2.84 0 0 0-2.838-2.836 2.84 2.84 0 0 0-2.838 2.836v9.54z"/><path id="AG" d="M930.215 84.865v-5.371h8.665c.712 0 1.396.284 1.902.788s.786 1.185.786 1.897h0a2.69 2.69 0 0 1-.786 1.9c-.505.505-1.189.786-1.902.786h-8.665z"/><path id="AH" d="M973.83 65.383l3.585-4.396 45.412 37.036-3.585 4.396z"/><path id="AI" d="M1002.116 103.213h-5.676v-9.54a2.84 2.84 0 0 1 2.838-2.836 2.84 2.84 0 0 1 2.838 2.836v9.54z"/><path id="AJ" d="M1021.038 85.166v-5.672h-8.518c-.752 0-1.473.298-2.004.831a2.82 2.82 0 0 0-.832 2.002v.006a2.83 2.83 0 0 0 .832 2.005c.531.53 1.252.828 2.004.828h8.518z"/><path id="AK" d="M975.614 100.763l13.601-9.903c7.512-5.47 8.361-16.35 1.788-22.918l-4.758-4.754h-21.263l-4.758 4.754c-6.573 6.567-5.724 17.447 1.788 22.918l13.601 9.903z"/><path id="AL" d="M955.503 83.907a2.82 2.82 0 0 0 1.552-.465l11.534-7.562c1.312-.858 1.678-2.616.817-3.927a2.83 2.83 0 0 0-3.928-.814l-11.534 7.562c-1.312.858-1.678 2.616-.817 3.927.543.829 1.452 1.279 2.376 1.279z"/><path id="AM" d="M236.218 44.003a3.09 3.09 0 0 0-.906-2.188c-.582-.582-1.369-.908-2.19-.908s-1.608.326-2.19.908-.906 1.367-.906 2.188v2.064a5.16 5.16 0 0 0 5.161 5.161h1.032v-7.226z"/><path id="AN" d="M254.798 39.874a3.09 3.09 0 0 0-.906-2.188c-.582-.582-1.369-.908-2.19-.908s-1.608.326-2.19.908-.906 1.367-.906 2.188v11.355h6.193V39.874z"/><path id="AO" d="M260.991 44.003a3.09 3.09 0 0 0-.906-2.188c-.582-.582-1.369-.908-2.19-.908s-1.608.326-2.19.908-.906 1.367-.906 2.188v7.226h1.032a5.16 5.16 0 0 0 5.161-5.161v-2.064z"/><path id="AP" d="M1170.614 88.631a3.09 3.09 0 0 0-.906-2.188c-.582-.582-1.369-.908-2.19-.908s-1.608.326-2.19.908-.906 1.367-.906 2.188v11.355h6.193V88.631z"/><path id="AQ" d="M269.278 111.56c.99 0 1.965-.483 2.547-1.371.923-1.405.531-3.289-.875-4.209l-12.366-8.105a3.04 3.04 0 0 0-4.211.873c-.923 1.405-.531 3.289.875 4.209l12.366 8.105c.515.338 1.093.499 1.664.499z"/><path id="AR" d="M103.085-16.475h12.473l3.38 30.845a2.89 2.89 0 0 1-2.874 3.203h-13.548a2.89 2.89 0 0 1-2.873-3.208l3.441-30.839z"/><path id="AS" d="M109.282 5.822l10.197-7.425c5.632-4.101 6.269-12.258 1.341-17.181l-3.567-3.564h-15.941l-3.567 3.564c-4.928 4.924-4.291 13.081 1.341 17.181l10.197 7.425z"/><path id="AT" d="M107.972-26.977l2.636-3.232 33.394 27.234-2.636 3.232z"/><path id="AU" d="M120.422 1.147h-4.174v-13.84a2.08 2.08 0 0 1 .612-1.474 2.09 2.09 0 0 1 1.476-.611c.553 0 1.085.221 1.476.611s.612.922.612 1.474v13.84z"/><path id="AV" d="M129.501 40.527h4.174v-7.015c0-1.151-.935-2.085-2.087-2.085s-2.087.934-2.087 2.085v7.015z"/><path id="AW" d="M115.587 27.035v-3.95h6.372a1.98 1.98 0 0 1 1.398.58c.369.369.578.872.578 1.395h0a1.98 1.98 0 0 1-1.976 1.975h-6.372z"/><path id="AX" d="M115.587 18.915v-4.171h12.525c1.152 0 2.085.932 2.085 2.083v.004c0 1.151-.933 2.083-2.085 2.083h-12.525z"/><path id="AY" d="M168.46 40.527h-4.174v-7.015c0-1.151.935-2.085 2.087-2.085s2.087.934 2.087 2.085v7.015z"/><path id="AZ" d="M182.373 27.256v-4.171h-6.263c-.553 0-1.083.219-1.473.611s-.612.92-.612 1.472v.004a2.08 2.08 0 0 0 .612 1.474c.39.39.92.609 1.473.609h6.263z"/><path id="Aa" d="M163.779 26.331c.679 0 1.348-.331 1.747-.941.633-.964.364-2.256-.601-2.888l-8.484-5.561c-.965-.635-2.258-.361-2.889.599s-.364 2.256.601 2.888l8.484 5.561a2.07 2.07 0 0 0 1.141.342z"/><path id="Ab" d="M134.182 26.331a2.07 2.07 0 0 0 1.141-.342l8.481-5.561c.965-.631 1.234-1.924.601-2.888s-1.916-1.235-2.889-.599l-8.481 5.561c-.965.631-1.234 1.924-.601 2.888.399.61 1.068.941 1.747.941z"/><path id="Ac" d="M1294.113 3.498c-.131-.131-.308-.204-.493-.204s-.361.073-.492.204h0a.7.7 0 0 0 0 .984l6.4 6.4.985-.985-6.4-6.4z"/><path id="Ad" d="M1296.597 1.014c-.131-.131-.308-.204-.493-.204s-.361.073-.492.204h0a.7.7 0 0 0-.204.492.7.7 0 0 0 .204.492l6.4 6.4.985-.985-6.4-6.4z"/></defs><g clip-path="url(#A)"><path d="M-10.125-839.564h1520.249v4049.482H-10.125z" fill="#61d1d5"/><path d="M1033.689-12.5l15.452-2.651a.72.72 0 0 1 .588 1.262l-10.038 8.31a5.5 5.5 0 0 0-1.585 2.156l-4.936 12.06a.72.72 0 0 1-1.38-.184l-1.774-15.958 1.301-2.826 2.37-2.169z" fill="#9494b6" class="B"/><g clip-path="url(#B)"><path d="M1012.374-4.626l7.562-10.289 25.665 18.864-7.562 10.289z" fill="#8989af"/></g><path d="M1013.18-31.024h-21.012a10.87 10.87 0 0 1-7.687-3.184h0a10.87 10.87 0 0 0-7.687-3.184h-14.581l7.513 18.466 23.166 14.978 38.943 18.283 20.066-16.847 4.013-17.521-42.734-10.991z" fill="#61d1d5"/><path d="M1209.742-148.582c-76.136 0-138.076 61.941-138.076 138.077 0 9.374-7.626 17-17 17H948.403c-9.374 0-17-7.626-17-17v-2.009c0-36.943-30.057-67-67-67h-75.775c-41.992 0-76.156-34.163-76.156-76.156v-85.988c0-34.188-27.813-62-62-62H505.54c-34.187 0-62 27.812-62 62v1.583c0 6.616-5.383 12-12 12h-77.199c-41.355 0-75 33.645-75 75v1.615c0 6.616-5.383 12-12 12H-56.875v1900.227h125.29c19.299 0 35 15.701 35 35v28.562c0 46.869 38.131 85 85 85h282.678c46.869 0 85-38.131 85-85v-4.012c0-19.299 15.701-35 35-35h100.898c106.145 0 192.5-86.354 192.5-192.5 0-13.785 11.215-25 25-25h189.302c13.785 0 25 11.215 25 25v6.941c0 13.785-11.215 25-25 25h-1.646c-41.355 0-75 33.646-75 75.001v134.569c0 41.355 33.645 75 75 75h68.108c41.355 0 75-33.645 75-75 0-34.095 27.737-61.833 61.832-61.833h254.837V-148.582h-347.181z" fill="#7ee6e4"/><path d="M1045.191 426.028h0c0-51.28 41.571-92.851 92.85-92.851h57.665c32.387 0 58.642-26.255 58.642-58.642h0c0-32.387 26.255-58.642 58.642-58.642h218.932v-339.475h-322.181c-62.45 0-113.076 50.626-113.076 113.076h0c0 23.196-18.804 42-42 42H948.403c-23.196 0-42-18.804-42-42v-2.009c0-23.196-18.804-42-42-42h-75.776c-55.867 0-101.156-45.289-101.156-101.156v-85.988c0-20.435-16.565-37-37-37H505.539c-20.435 0-37 16.565-37 37v1.583c0 20.435-16.565 37-37 37H354.34c-27.614 0-50 22.386-50 50v1.615c0 20.435-16.565 37-37 37H-31.875v1850.227H68.414c33.137 0 60 26.863 60 60v28.561c0 33.137 26.863 60 60 60h282.678c33.137 0 60-26.863 60-60v-4.011c0-33.137 26.863-60 60-60H691.99c92.508 0 167.5-74.992 167.5-167.5h0c0-27.614 22.386-50 50-50h189.302c27.614 0 50 22.386 50 50v6.942c0 27.614-22.386 50-50 50h-1.647c-27.614 0-50 22.386-50 50v134.57c0 27.614 22.386 50 50 50h68.108c27.614 0 50-22.386 50-50h0c0-47.956 38.876-86.832 86.832-86.832h229.837v-328.037c0-39.064-31.668-70.732-70.732-70.732h-323.15c-50.932 0-92.285-41.008-92.845-91.807l-.006-830.892z" fill="#fbed97"/><path d="M1209.742-63.581c-29.313 0-53.076 23.763-53.076 53.076h0c0 56.333-45.667 102-102 102H701.078c-40.652 0-73.606-32.955-73.606-73.606v-210.547c0-14.359-11.641-26-26-26H545.03c-10.394 0-19.895 6.146-23.89 15.742-14.612 35.099-49.272 59.841-89.6 59.841h-46.653c-11.17 0-21.157 7.295-24.204 18.042-11.534 40.685-49.013 70.574-93.342 70.574H-1.979l-11.374 1742.34 115.314-.491c49.895 14.55 86.454 60.7 86.454 115.229v.695c.001 13.259 10.754 24.004 24.013 23.997l236.679-.131c11.698-.007 21.708-8.443 23.64-19.98 9.508-56.77 58.875-100.032 118.346-100.032h100.898c59.37 0 107.5-48.129 107.5-107.5h0c0-60.752 49.249-110 110-110h189.003c21.384 0 38.798-17.186 39.08-38.568h0c.246-18.686-12.768-34.942-31.062-38.758-28.801-6.009-55.263-20.244-76.552-41.532-28.243-28.244-44.073-65.595-44.746-105.431-.015-.883-.022-838.466-.022-839.351 0-40.828 15.899-79.212 44.769-108.081s67.254-44.769 108.082-44.769h28.622c14.589 0 27.327-10.069 30.48-24.313 11.76-53.123 59.237-92.972 115.846-92.972h312.76V-63.581h-416.008z" class="U"/><g class="C K L O V"><path d="M-2.045-44.447l-11.276 1727.321" stroke-dasharray="0 10.014"/><path d="M1615.775-63.581h-406.033c-29.313 0-53.076 23.763-53.076 53.076h0c0 56.333-45.667 102-102 102H701.078c-40.652 0-73.606-32.955-73.606-73.606v-210.547c0-14.359-11.641-26-26-26H545.03c-10.394 0-19.895 6.146-23.89 15.742-14.612 35.099-49.272 59.841-89.6 59.841h-46.653c-11.17 0-21.157 7.295-24.204 18.042-11.534 40.685-49.013 70.574-93.342 70.574H3.009" stroke-dasharray="0 9.976"/></g><path d="M914.223 266.781v250.57c0 30.12-24.417 54.537-54.537 54.537h-80.08c-29.292 0-53.038 23.746-53.038 53.038v153.905c0 29.292-23.746 53.038-53.038 53.038H490.044c-37.785 0-68.416 30.631-68.416 68.416h0c0 37.785-30.631 68.416-68.416 68.416h-33.231c-37.785 0-68.416-30.631-68.416-68.416v-84.054c0-37.785-30.631-68.416-68.416-68.416H5.265c-15.114 0-27.366-12.252-27.366-27.366V7.038h290.764c35.899 0 65 29.101 65 65v20.473c0 35.899 29.101 65 65 65h257.533c15.114 0 27.366 12.252 27.366 27.366h0c0 15.114 12.252 27.366 27.366 27.366h148.757c30.12 0 54.537 24.417 54.537 54.537z" class="W"/><path d="M-12.116 7.038h280.778c35.898 0 65 29.101 65 65v20.473c0 35.898 29.101 65 65 65h257.533c15.114 0 27.366 12.252 27.366 27.366s12.252 27.366 27.366 27.366h148.757c30.12 0 54.537 24.417 54.537 54.537v250.57c0 30.12-24.417 54.537-54.537 54.537h-80.08c-29.292 0-53.038 23.746-53.038 53.038V778.83c0 29.292-23.746 53.038-53.038 53.038H490.042c-37.785 0-68.416 30.631-68.416 68.416S390.995 968.7 353.21 968.7h-33.231c-37.785 0-68.416-30.631-68.416-68.416V816.23c0-37.785-30.631-68.416-68.416-68.416H5.265c-15.114 0-27.366-12.252-27.366-27.366V12.031" stroke-dasharray="0 9.986" class="C K L O X"/><path d="M1663.858 20.112H1260.79c-28.933 0-52.388 23.455-52.388 52.388h0c0 28.933 23.455 52.388 52.388 52.388h410.887" class="W"/><path d="M1653.873,20.112h-393.084c-28.933,0-52.388,23.455-52.388,52.388s23.455,52.388,52.388,52.388h405.895" stroke-dasharray="0 9.985" class="C K L O X"/><g class="a h"><path d="M1427.363,75.911c-1.232,0-2.231-1-2.231-2.236v-7.001c0-1.236.999-2.236,2.231-2.236s2.231,1,2.231,2.236v7.001c0,1.236-.999,2.236-2.231,2.236Z"/><use href="#q"/><path d="M1418.824,75.911c-1.232,0-2.231-1-2.231-2.236v-4.667c0-1.236.999-2.236,2.231-2.236s2.231,1,2.231,2.236v4.667c0,1.236-.999,2.236-2.231,2.236Z"/><use href="#r"/><use href="#s"/><path d="M1443.956 94.39c-1.232 0-2.231-1-2.231-2.236v-4.669c0-1.236.999-2.236 2.231-2.236s2.231 1 2.231 2.236v4.669c0 1.236-.999 2.236-2.231 2.236zm17.171-38.706c-1.232 0-2.231-1-2.231-2.236v-7.001c0-1.236.999-2.236 2.231-2.236s2.231 1 2.231 2.236v7.001c0 1.236-.999 2.236-2.231 2.236z"/><use href="#t"/><path d="M1452.589,55.684c-1.232,0-2.231-1-2.231-2.236v-4.669c0-1.236.999-2.236,2.231-2.236s2.231,1,2.231,2.236v4.669c0,1.236-.999,2.236-2.231,2.236Z"/></g><g class="a h"><use href="#u"/><use href="#v"/><path d="M93.857 77.953c1.232 0 2.231-1 2.231-2.236V71.05c0-1.236-.999-2.236-2.231-2.236s-2.231 1-2.231 2.236v4.667c0 1.236.999 2.236 2.231 2.236zM60.188 96.432c1.232 0 2.231-1 2.231-2.236v-7.001c0-1.236-.999-2.236-2.231-2.236s-2.231 1-2.231 2.236v7.001c0 1.236.999 2.236 2.231 2.236zm-9.314 0c1.232 0 2.231-1 2.231-2.236v-4.669c0-1.236-.999-2.236-2.231-2.236s-2.231 1-2.231 2.236v4.669c0 1.236.999 2.236 2.231 2.236z"/><use href="#w"/><path d="M51.555 57.726c1.232 0 2.231-1 2.231-2.236v-7.001c0-1.236-.999-2.236-2.231-2.236s-2.231 1-2.231 2.236v7.001c0 1.236.999 2.236 2.231 2.236zm-9.315 0c1.232 0 2.231-1 2.231-2.236v-4.669c0-1.236-.999-2.236-2.231-2.236s-2.231 1-2.231 2.236v4.669c0 1.236.999 2.236 2.231 2.236zm17.852 0c1.232 0 2.231-1 2.231-2.236v-4.669c0-1.236-.999-2.236-2.231-2.236s-2.231 1-2.231 2.236v4.669c0 1.236.999 2.236 2.231 2.236z"/></g><g class="a h"><path d="M430.055,97.306c-1.232,0-2.231-1-2.231-2.236v-7.001c0-1.236.999-2.236,2.231-2.236s2.231,1,2.231,2.236v7.001c0,1.236-.999,2.236-2.231,2.236Z"/><use href="#x"/><path d="M421.517 97.306c-1.232 0-2.231-1-2.231-2.236v-4.667c0-1.236.999-2.236 2.231-2.236s2.231 1 2.231 2.236v4.667c0 1.236-.999 2.236-2.231 2.236zm33.669 18.478c-1.232 0-2.231-1-2.231-2.236v-7.001c0-1.236.999-2.236 2.231-2.236s2.231 1 2.231 2.236v7.001c0 1.236-.999 2.236-2.231 2.236zm9.314 0c-1.232 0-2.231-1-2.231-2.236v-4.669c0-1.236.999-2.236 2.231-2.236s2.231 1 2.231 2.236v4.669c0 1.236-.999 2.236-2.231 2.236zm-17.852 0c-1.232 0-2.231-1-2.231-2.236v-4.669c0-1.236.999-2.236 2.231-2.236s2.231 1 2.231 2.236v4.669c0 1.236-.999 2.236-2.231 2.236zm17.171-38.705c-1.232 0-2.231-1-2.231-2.236v-7.001c0-1.236.999-2.236 2.231-2.236s2.231 1 2.231 2.236v7.001c0 1.236-.999 2.236-2.231 2.236z"/><use href="#y"/><path d="M455.282,77.079c-1.232,0-2.231-1-2.231-2.236v-4.669c0-1.236.999-2.236,2.231-2.236s2.231,1,2.231,2.236v4.669c0,1.236-.999,2.236-2.231,2.236Z"/></g><use href="#z" class="b"/><g clip-path="url(#C)" class="B c"><path d="M849.758 86.815l18.735-13.642c10.348-7.535 11.518-22.522 2.464-31.569l-6.554-6.548h-29.29l-6.554 6.548c-9.054 9.047-7.885 24.034 2.464 31.569l18.735 13.642z"/></g><path d="M849.775 43.788c0 8.104-3.221 15.878-8.958 21.61a30.6 30.6 0 0 1-21.632 8.95h-30.766V54.145a30.55 30.55 0 0 1 8.958-21.613 30.62 30.62 0 0 1 21.632-8.95h30.766v20.207z" class="B P"/><g clip-path="url(#D)"><path d="M849.775 23.581l-68.469 58.522h68.469V23.581z" class="B F"/><path d="M786.007 70.668l61.322-50.083 4.848 5.936-61.322 50.083z" class="M"/><g class="B"><g class="I"><path d="M813.984 77.658h7.669V64.769c0-2.115-1.718-3.831-3.835-3.831s-3.835 1.716-3.835 3.831v12.889zm15.339.567h7.669V52.792a3.83 3.83 0 0 0-3.831-3.828h-.008a3.83 3.83 0 0 0-3.831 3.828v25.433z" class="D"/></g><g class="F"><path d="M788.419 52.869v-7.257h11.707c.963 0 1.887.383 2.569 1.065a3.62 3.62 0 0 1 1.062 2.563h0c0 .966-.383 1.885-1.062 2.567s-1.607 1.061-2.569 1.061h-11.707zm0-14.92v-7.663h23.012a3.83 3.83 0 0 1 3.831 3.828v.008a3.83 3.83 0 0 1-3.831 3.828h-23.012z" class="H"/></g></g></g><path d="M849.775 43.788c0 8.104 3.221 15.878 8.958 21.61a30.6 30.6 0 0 0 21.632 8.95h30.766V54.145a30.55 30.55 0 0 0-8.958-21.613 30.62 30.62 0 0 0-21.632-8.95h-30.766v20.207z" class="B P"/><g clip-path="url(#E)"><path d="M849.775 23.581l68.469 58.522h-68.469V23.581z" class="B F"/><use href="#AA" class="M"/><g class="B"><g class="I"><path d="M885.565 77.658h-7.669V64.769c0-2.115 1.718-3.831 3.835-3.831s3.835 1.716 3.835 3.831v12.889zm-15.338.567h-7.669v-25.43c0-1.015.403-1.989 1.124-2.709s1.695-1.123 2.711-1.123a3.84 3.84 0 0 1 2.711 1.123c.721.72 1.124 1.694 1.124 2.709v25.43z" class="D"/></g><g class="F"><path d="M911.13 53.275v-7.663h-11.508c-1.016 0-1.99.402-2.707 1.123a3.81 3.81 0 0 0-1.124 2.705v.008c0 1.015.403 1.989 1.124 2.709a3.83 3.83 0 0 0 2.707 1.119h11.508zm0-15.326v-7.663h-23.008a3.84 3.84 0 0 0-2.711 1.123c-.721.72-1.124 1.694-1.124 2.709a3.82 3.82 0 0 0 1.124 2.709 3.83 3.83 0 0 0 2.711 1.123h23.008z" class="H"/></g></g></g><path d="M849.758 74.348l18.376-13.381c10.15-7.391 11.297-22.091 2.416-30.964l-6.428-6.423h-28.729l-6.428 6.423c-8.881 8.873-7.734 23.573 2.416 30.964l18.376 13.381z" class="B M"/><g clip-path="url(#F)"><path d="M849.758 76.235h-28.992v-54.98h28.992z" class="F"/><path d="M845.938 18.046h7.669v66.829h-7.669z" class="d"/><g class="D F"><use href="#AB"/></g><g class="D I"><path d="M822.585 51.574a3.8 3.8 0 0 0 2.097-.629l15.584-10.217c1.773-1.16 2.267-3.535 1.103-5.306-1.158-1.764-3.52-2.27-5.308-1.1l-15.584 10.217c-1.773 1.16-2.267 3.535-1.103 5.306.734 1.12 1.962 1.729 3.211 1.729z"/></g><path d="M876.965 69.045c1.248 0 2.477-.609 3.211-1.729a3.83 3.83 0 0 0-1.103-5.306l-15.589-10.217c-1.773-1.167-4.149-.664-5.308 1.1a3.83 3.83 0 0 0 1.103 5.306l15.589 10.217a3.8 3.8 0 0 0 2.097.629z" class="D F"/><g class="D I"><path d="M822.585 69.045a3.8 3.8 0 0 0 2.097-.629l15.584-10.217c1.773-1.16 2.267-3.535 1.103-5.306-1.158-1.764-3.52-2.27-5.308-1.1L820.477 62.01c-1.773 1.16-2.267 3.535-1.103 5.306.734 1.12 1.962 1.729 3.211 1.729z"/></g></g><path d="M818.621 121.419l62.309-.68" class="K L O Q U V"/><path d="M506.355-26.927h22.918l6.211 69.687a5.31 5.31 0 0 1-5.28 5.885h-24.892a5.31 5.31 0 0 1-5.279-5.895l6.322-69.676z" class="b"/><g clip-path="url(#G)" class="B c"><path d="M517.741 14.04L536.476.398c10.348-7.535 11.518-22.522 2.464-31.569l-6.554-6.548h-29.29l-6.554 6.548c-9.054 9.047-7.885 24.034 2.464 31.569l18.735 13.642z"/></g><path d="M517.758-28.987c0 8.104-3.221 15.878-8.958 21.61a30.6 30.6 0 0 1-21.632 8.95h-30.766V-18.63a30.55 30.55 0 0 1 8.958-21.613 30.62 30.62 0 0 1 21.632-8.95h30.766v20.207z" class="B P"/><g clip-path="url(#H)"><path d="M517.758-49.194L449.289 9.328h68.469v-58.522z" class="B F"/><path d="M453.992-2.104l61.322-50.083 4.848 5.936L458.84 3.832z" class="M"/><g class="B I"><path d="M481.967 4.883h7.669V-8.006c0-2.115-1.718-3.831-3.835-3.831s-3.835 1.716-3.835 3.831V4.883zm15.339.567h7.669v-25.433a3.83 3.83 0 0 0-3.831-3.828h-.008a3.83 3.83 0 0 0-3.831 3.828V5.45z" class="D"/></g></g><path d="M517.758-28.987c0 8.104 3.221 15.878 8.958 21.61a30.6 30.6 0 0 0 21.632 8.95h30.766V-18.63a30.55 30.55 0 0 0-8.958-21.613 30.62 30.62 0 0 0-21.632-8.95h-30.766v20.207z" class="B P"/><g clip-path="url(#I)"><path d="M517.758-49.194l68.469 58.522h-68.469v-58.522z" class="B F"/><path d="M515.333-46.225l4.844-5.939 61.357 50.04-4.844 5.939z" class="M"/><g class="B I"><path d="M553.548 4.883h-7.669V-8.006c0-2.115 1.718-3.831 3.835-3.831s3.835 1.716 3.835 3.831V4.883zm-15.339.567h-7.669v-25.43c0-1.015.403-1.989 1.124-2.709s1.695-1.123 2.711-1.123a3.84 3.84 0 0 1 2.711 1.123c.721.72 1.124 1.694 1.124 2.709V5.45z" class="D"/></g></g><path d="M517.741 1.573l18.376-13.381c10.15-7.391 11.297-22.091 2.416-30.964l-6.428-6.423h-28.729l-6.428 6.423c-8.881 8.873-7.734 23.573 2.416 30.964L517.74 1.573z" class="B M"/><g clip-path="url(#J)"><path d="M517.741 3.46h-28.992v-54.98h28.992z" class="F"/><path d="M513.921-54.729h7.669V12.1h-7.669z" class="d"/></g><path d="M486.604 48.644l62.308-.68" class="K L O Q U V"/><use href="#AC" class="b"/><g clip-path="url(#K)" class="B c"><use href="#AD"/></g><path d="M975.626 78.144a22.61 22.61 0 0 1-6.63 15.994 22.65 22.65 0 0 1-16.01 6.624h-22.771V85.809a22.61 22.61 0 0 1 6.63-15.997 22.66 22.66 0 0 1 16.01-6.624h22.771v14.956z" class="B P"/><g clip-path="url(#L)"><path d="M975.626 63.188l-50.676 43.314h50.676V63.188z" class="B F"/><use href="#AE" class="M"/><g class="B"><g class="I"><use href="#AF" class="D"/><path d="M960.489 103.632h5.676V84.808c0-1.565-1.269-2.833-2.835-2.833h-.006c-1.567 0-2.835 1.268-2.835 2.833v18.824z" class="D"/></g><g class="F"><use href="#AG" class="H"/><path d="M930.215 73.822V68.15h17.032c1.567 0 2.835 1.268 2.835 2.833v.006c0 1.565-1.269 2.833-2.835 2.833h-17.032z" class="H"/></g></g></g><path d="M975.626 78.144a22.61 22.61 0 0 0 6.63 15.994 22.65 22.65 0 0 0 16.01 6.624h22.771V85.809a22.61 22.61 0 0 0-6.63-15.997 22.66 22.66 0 0 0-16.01-6.624h-22.771v14.956z" class="B P"/><g clip-path="url(#M)"><path d="M975.626 63.188l50.677 43.314h-50.677V63.188z" class="B F"/><use href="#AH" class="M"/><g class="B"><g class="I"><use href="#AI" class="D"/><path d="M990.764 103.632h-5.676V84.811a2.83 2.83 0 0 1 .832-2.005c.531-.53 1.254-.831 2.007-.831s1.476.301 2.007.831a2.83 2.83 0 0 1 .832 2.005v18.821z" class="D"/></g><g class="F"><use href="#AJ" class="H"/><path d="M1021.038 73.822V68.15h-17.029c-.752 0-1.476.301-2.007.831a2.83 2.83 0 0 0-.832 2.005c0 .751.298 1.475.832 2.005s1.254.831 2.007.831h17.029z" class="H"/></g></g></g><use href="#AK" class="B M"/><g clip-path="url(#N)"><path d="M975.614 102.159h-21.458V61.466h21.458z" class="F"/><path d="M972.787 59.092h5.676v49.462h-5.676z" class="d"/><g class="D F"><path d="M995.751,83.907c.924,0,1.833-.45,2.376-1.279.861-1.311.495-3.068-.817-3.927l-11.538-7.562c-1.312-.864-3.071-.491-3.928.814-.861,1.311-.495,3.068.817,3.927l11.538,7.562c.48.316,1.02.465,1.552.465Z"/></g><g class="D I"><use href="#AL"/></g><path d="M995.751,96.838c.924,0,1.833-.45,2.376-1.279.861-1.311.495-3.068-.817-3.927l-11.538-7.562c-1.312-.864-3.071-.491-3.928.814-.861,1.311-.495,3.068.817,3.927l11.538,7.562c.48.316,1.02.465,1.552.465Z" class="D F"/><g class="D I"><path d="M955.503 96.838a2.82 2.82 0 0 0 1.552-.465l11.534-7.562c1.312-.858 1.678-2.616.817-3.927a2.83 2.83 0 0 0-3.928-.814l-11.534 7.562c-1.312.858-1.678 2.616-.817 3.927.543.829 1.452 1.279 2.376 1.279z"/></g></g><path d="M952.569 125.592l46.116-.504" class="K L O Q U V"/><path d="M556.56 77.332h16.963l4.597 41.568a3.93 3.93 0 0 1-3.908 4.356h-18.424a3.93 3.93 0 0 1-3.907-4.363l4.679-41.56z" class="b"/><g clip-path="url(#O)" class="B c"><path d="M564.987 107.653l13.867-10.097c7.659-5.577 8.525-16.669 1.823-23.365l-4.851-4.846h-21.679l-4.851 4.846c-6.701 6.696-5.836 17.788 1.823 23.365l13.867 10.097z"/></g><path d="M565 75.807a22.61 22.61 0 0 1-6.63 15.994 22.65 22.65 0 0 1-16.01 6.624h-22.771V83.472a22.61 22.61 0 0 1 6.63-15.997 22.66 22.66 0 0 1 16.01-6.624H565v14.956z" class="B P"/><g clip-path="url(#P)"><path d="M565 60.851l-50.677 43.314H565V60.851z" class="B F"/><path d="M517.804 95.702l45.387-37.068 3.588 4.394-45.387 37.068z" class="M"/><g class="B"><g class="I"><path d="M538.51 100.876h5.676v-9.54a2.84 2.84 0 0 0-2.838-2.836 2.84 2.84 0 0 0-2.838 2.836v9.54zm11.353.42h5.676V82.472c0-1.565-1.269-2.833-2.835-2.833h-.006c-1.567 0-2.835 1.268-2.835 2.833v18.824z" class="D"/></g><g class="F"><path d="M519.588 82.528v-5.371h8.665c.712 0 1.396.284 1.902.788a2.67 2.67 0 0 1 .786 1.897h0a2.69 2.69 0 0 1-.786 1.9c-.505.505-1.189.786-1.902.786h-8.665zm0-11.042v-5.672h17.032c1.567 0 2.835 1.268 2.835 2.833v.006c0 1.565-1.269 2.833-2.835 2.833h-17.032z" class="H"/></g></g></g><path d="M565 75.807a22.61 22.61 0 0 0 6.63 15.994 22.65 22.65 0 0 0 16.01 6.624h22.771V83.472a22.61 22.61 0 0 0-6.63-15.997 22.66 22.66 0 0 0-16.01-6.624H565v14.956z" class="B P"/><g clip-path="url(#Q)"><path d="M565 60.851l50.676 43.314H565V60.851z" class="B F"/><path d="M563.204 63.048l3.585-4.396 45.412 37.036-3.585 4.396z" class="M"/><g class="B"><g class="I"><path d="M591.49 100.876h-5.676v-9.54a2.84 2.84 0 0 1 2.838-2.836 2.84 2.84 0 0 1 2.838 2.836v9.54zm-11.353.42h-5.676V82.475a2.83 2.83 0 0 1 .832-2.005c.531-.53 1.254-.831 2.007-.831s1.476.301 2.007.831a2.83 2.83 0 0 1 .832 2.005v18.821z" class="D"/></g><g class="F"><path d="M610.411 82.829v-5.672h-8.518c-.752 0-1.473.298-2.004.831a2.82 2.82 0 0 0-.832 2.002v.006a2.83 2.83 0 0 0 .832 2.005c.531.53 1.252.828 2.004.828h8.518zm0-11.343v-5.672h-17.029c-.752 0-1.476.301-2.007.831a2.83 2.83 0 0 0-.832 2.005c0 .751.298 1.475.832 2.005a2.85 2.85 0 0 0 2.007.831h17.029z" class="H"/></g></g></g><path d="M564.987 98.426l13.601-9.903c7.512-5.47 8.361-16.35 1.788-22.918l-4.758-4.754h-21.263l-4.758 4.754c-6.573 6.567-5.724 17.447 1.788 22.918l13.601 9.903z" class="B M"/><g clip-path="url(#R)"><path d="M564.988 99.822H543.53V59.129h21.458z" class="F"/><path d="M562.16 56.755h5.676v49.462h-5.676z" class="d"/><g class="D F"><path d="M585.125,81.57c.924,0,1.833-.45,2.376-1.279.861-1.311.495-3.068-.817-3.927l-11.538-7.562c-1.312-.864-3.071-.491-3.928.814-.861,1.311-.495,3.068.817,3.927l11.538,7.562c.48.316,1.02.465,1.552.465Z"/></g><g class="D I"><path d="M544.876 81.57a2.82 2.82 0 0 0 1.552-.465l11.534-7.562c1.312-.858 1.678-2.616.817-3.927a2.83 2.83 0 0 0-3.928-.814l-11.534 7.562c-1.312.858-1.678 2.616-.817 3.927.543.829 1.452 1.279 2.376 1.279z"/></g><path d="M585.125,94.501c.924,0,1.833-.45,2.376-1.279.861-1.311.495-3.068-.817-3.927l-11.538-7.562c-1.312-.864-3.071-.491-3.928.814-.861,1.311-.495,3.068.817,3.927l11.538,7.562c.48.316,1.02.465,1.552.465Z" class="D F"/><g class="D I"><path d="M544.876 94.501a2.82 2.82 0 0 0 1.552-.465l11.534-7.562c1.312-.858 1.678-2.616.817-3.927a2.83 2.83 0 0 0-3.928-.814l-11.534 7.562c-1.312.858-1.678 2.616-.817 3.927.543.829 1.452 1.279 2.376 1.279z"/></g></g><path d="M541.942 123.255l46.117-.503" class="K L O Q U V"/><g fill="#d9df50" stroke="#d9df50" stroke-miterlimit="10" stroke-width=".31" class="B"><use href="#AM"/><path d="M248.605 35.745a3.09 3.09 0 0 0-.906-2.188c-.582-.582-1.369-.908-2.19-.908s-1.608.326-2.19.908-.906 1.367-.906 2.188v15.484h6.193V35.745z"/><use href="#AN"/><path d="M242.411 39.874a3.09 3.09 0 0 0-.906-2.188c-.582-.582-1.369-.908-2.19-.908s-1.608.326-2.19.908-.906 1.367-.906 2.188v11.355h6.193V39.874z"/><use href="#AO"/><path d="M1152.034 92.76a3.09 3.09 0 0 0-.906-2.188c-.582-.582-1.369-.908-2.19-.908s-1.608.326-2.19.908a3.09 3.09 0 0 0-.906 2.188v2.064a5.16 5.16 0 0 0 5.161 5.161h1.032v-7.226zm12.387-8.258a3.09 3.09 0 0 0-.906-2.188c-.582-.582-1.369-.908-2.19-.908s-1.608.326-2.19.908a3.09 3.09 0 0 0-.906 2.188v15.484h6.193V84.502z"/><use href="#AP"/><path d="M1158.228 88.631a3.09 3.09 0 0 0-.906-2.188c-.582-.582-1.369-.908-2.19-.908s-1.608.326-2.19.908a3.09 3.09 0 0 0-.906 2.188v11.355h6.193V88.631zm18.58 4.129a3.09 3.09 0 0 0-.906-2.188c-.582-.582-1.369-.908-2.19-.908s-1.608.326-2.19.908a3.09 3.09 0 0 0-.906 2.188v7.226h1.032a5.16 5.16 0 0 0 5.161-5.161v-2.064z"/></g><g opacity=".35"><g fill="#f2b052"><circle cx="751.041" cy="22.509" r="2.829" transform="matrix(.878117 -.478447 .478447 .878117 80.77 362.077)" class="R"/><circle cx="743.299" cy="30.485" r="2.829" transform="matrix(.878117 -.478447 .478447 .878117 76.011 359.345)" class="R"/><circle cx="739.602" cy="22.262" r="2.829" transform="matrix(.878117 -.478447 .478447 .878117 79.494 356.574)" class="R"/><circle cx="723.555" cy="42.554" r="2.829" transform="matrix(.878117 -.478447 .478447 .878117 67.83 351.37)" class="R"/><circle cx="740.55" cy="51.293" r="2.829" transform="matrix(.878117 -.478447 .478447 .878117 65.72 360.566)" class="R"/></g></g><g opacity=".35"><g fill="#f2b052"><circle cx="1106.733" cy="5.502" r="2.829" transform="matrix(.878117 -.478447 .478447 .878117 132.261 530.184)" class="R"/><circle cx="1123.728" cy="14.24" r="2.829" transform="matrix(.878117 -.478447 .478447 .878117 130.151 539.381)" class="R"/></g></g><path d="M713.977 123.913h97.769v47.926h-97.769z" fill="#ce6062"/><path d="M748.483 133.498h7.668v7.668h-7.668z" fill="#e2893b"/><path d="M748.483 133.498h7.668v5.751h-7.668z" fill="#e6ad44"/><rect x="779.156" y="118.161" width="23.004" height="17.253" rx="4.2" class="i"/><path d="M786.824 135.415h5.681v1.917h-5.681z" fill="#d5a03a"/><rect x="779.156" y="121.996" width="13.419" height="13.419" rx="3.267" class="j"/><g class="B"><g class="i"><path d="M790.658 118.161h-8.813a4.61 4.61 0 0 0-4.607 4.607v3.061h13.419v-7.668z"/><path d="M802.16 121.996h-13.419v15.336h9.76a3.66 3.66 0 0 0 3.66-3.66v-11.676z"/></g><path d="M790.194 140.648c.362-.363.566-.857.564-1.371a1.93 1.93 0 0 0-.577-1.366c-.775-.76-2.015-.754-2.78.012l-10.768 10.768a1.95 1.95 0 0 0 0 2.758 1.95 1.95 0 0 0 2.759.002l10.803-10.802z" fill="#dccf47"/></g><path d="M795.392 147.876c-2.048 0-3.799-1.463-4.155-3.48l-1.246-7.064h-2.594a1.22 1.22 0 0 0-.932.434 1.21 1.21 0 0 0-.264.992l2.454 13.91h9.671l-.846-4.793h-2.088z" fill="#22316e"/><path d="M795.385 147.876h2.096l-1.132-6.417c-.422-2.392-2.499-4.127-4.928-4.127h-1.429l1.247 7.069c.355 2.013 2.103 3.475 4.147 3.475z" class="j"/><path d="M783.451,127.676h1.267c.175,0,.316.142.316.316v3.271c0,.175-.142.317-.317.317h-1.266c-.175,0-.317-.142-.317-.317v-3.27c0-.175.142-.317.317-.317Z" fill="#0d1c1c"/><g class="B j"><path d="M789.013 125.83c-1.967 0-3.564 1.596-3.564 3.563s1.597 3.563 3.564 3.563 3.562-1.596 3.562-3.563-1.597-3.563-3.562-3.563zm1.248 14.818a1.93 1.93 0 0 0 .566-1.371c-.004-.514-.211-1.006-.577-1.366-.775-.76-2.015-.754-2.782.012L776.7 148.691a1.95 1.95 0 0 0 2.759 2.76l10.803-10.802z"/></g><rect x="727.396" y="121.996" width="17.253" height="13.419" rx="3.267" fill="#4ba2da"/><g class="B i"><path d="M723.562 125.83h18.398a4.61 4.61 0 0 0 3.257-1.349c.865-.864 1.35-2.036 1.35-3.258v-3.061h-17.855a5.15 5.15 0 0 0-5.149 5.149v2.519z"/><path d="M723.562,128.293c0,3.933,3.188,7.121,7.122,7.121h.477v-17.253h-2.977c-2.552,0-4.622,2.069-4.622,4.622v5.51Z"/></g><path d="M731.23 135.415h5.751v1.917h-5.751z" fill="#3a7fa2"/><path d="M738.898 138.547a1.21 1.21 0 0 0-1.216-1.215h-6.175c-.606 0-1.185.24-1.612.668s-.669 1.008-.669 1.613v13.055h9.671v-14.121z" fill="#fff" class="B"/><path d="M739.215,127.676h1.267c.175,0,.316.142.316.316v3.271c0,.175-.142.317-.317.317h-1.265c-.176,0-.318-.143-.318-.318v-3.269c0-.175.142-.317.317-.317Z" fill="#0d1c1c"/><g fill="#4ba2da" class="B"><path d="M730.958 125.83c1.967 0 3.564 1.596 3.564 3.563s-1.597 3.563-3.564 3.563-3.562-1.596-3.562-3.563 1.597-3.563 3.562-3.563zm.203 13.462a1.95 1.95 0 0 1 .575-1.382c.368-.366.866-.569 1.386-.566h.002c1.074.007 1.94.88 1.94 1.953v9.504a1.95 1.95 0 0 1-1.95 1.95h-.004c-.516 0-1.012-.206-1.378-.571a1.96 1.96 0 0 1-.571-1.379v-9.509z"/></g><path d="M238.662 107.017h18.181l4.927 44.959c.273 2.492-1.68 4.668-4.189 4.668h-19.747c-2.512 0-4.466-2.182-4.188-4.677l5.015-44.95z" class="e"/><g clip-path="url(#S)" class="B f"><path d="M247.694 139.516l14.862-10.822c8.209-5.977 9.137-17.867 1.954-25.043l-5.199-5.195h-23.236l-5.199 5.195c-7.183 7.177-6.255 19.066 1.954 25.043l14.862 10.822z"/></g><path d="M247.708 105.384c0 6.428-2.555 12.596-7.106 17.143s-10.723 7.1-17.16 7.1h-24.406V113.6c0-6.432 2.555-12.599 7.106-17.146a24.29 24.29 0 0 1 17.16-7.1h24.406v16.03z" class="B S"/><g clip-path="url(#T)"><path d="M247.708 89.353l-54.316 46.425h54.316V89.353z" class="B G"/><path d="M197.125 126.71l48.646-39.73 3.846 4.709-48.646 39.73z" class="N"/><g class="B"><g class="J"><path d="M219.315 132.252h6.084v-10.225c0-1.678-1.363-3.039-3.042-3.039s-3.042 1.362-3.042 3.039v10.225zm12.168.45h6.084v-20.176c0-1.678-1.36-3.036-3.039-3.036h-.006c-1.679 0-3.039 1.359-3.039 3.036v20.176z" class="D"/></g><g class="G"><path d="M199.035 112.587v-5.757h9.287c.764 0 1.497.304 2.038.845a2.88 2.88 0 0 1 .843 2.033h0a2.88 2.88 0 0 1-.843 2.036c-.542.541-1.275.842-2.038.842h-9.287zm0-11.836v-6.079h18.255c1.679 0 3.039 1.359 3.039 3.036v.006c0 1.678-1.36 3.036-3.039 3.036h-18.255z" class="H"/></g></g></g><path d="M247.708 105.384c0 6.428 2.555 12.596 7.106 17.143s10.723 7.1 17.16 7.1h24.406V113.6c0-6.432-2.555-12.599-7.106-17.146a24.29 24.29 0 0 0-17.16-7.1h-24.406v16.03z" class="B S"/><g clip-path="url(#U)"><path d="M247.708 89.353l54.315 46.425h-54.315V89.353z" class="B G"/><path d="M245.786 91.708l3.843-4.712 48.673 39.696-3.843 4.712z" class="N"/><g class="B"><g class="J"><path d="M276.1 132.252h-6.084v-10.225c0-1.678 1.363-3.039 3.042-3.039s3.042 1.362 3.042 3.039v10.225zm-12.168.45h-6.084v-20.173c0-.805.319-1.577.891-2.149a3.05 3.05 0 0 1 2.151-.891c.806 0 1.582.322 2.151.891s.891 1.343.891 2.149v20.173z" class="D"/></g><g class="G"><path d="M296.38 112.909v-6.079h-9.129c-.806 0-1.579.319-2.148.891a3.02 3.02 0 0 0-.891 2.146v.006c0 .805.319 1.577.891 2.149a3.04 3.04 0 0 0 2.148.888h9.129zm0-12.158v-6.079h-18.252c-.806 0-1.582.322-2.151.891s-.891 1.343-.891 2.149a3.03 3.03 0 0 0 .891 2.149 3.04 3.04 0 0 0 2.151.891h18.252z" class="H"/></g></g></g><path d="M247.694 129.626l14.578-10.615c8.052-5.863 8.962-17.524 1.917-24.563l-5.099-5.095H236.3l-5.099 5.095c-7.045 7.039-6.135 18.7 1.917 24.563l14.578 10.615z" class="B N"/><g clip-path="url(#V)"><path d="M247.695 131.124h-22.999V87.509h22.999z" class="G"/><path d="M244.664 84.963h6.084v53.015h-6.084z" class="g"/><g class="D G"><use href="#AQ"/></g><g class="D J"><path d="M226.139,111.56c.57,0,1.149-.16,1.664-.499l12.362-8.105c1.406-.92,1.798-2.804.875-4.209-.919-1.399-2.792-1.801-4.211-.873l-12.362,8.105c-1.406.92-1.798,2.804-.875,4.209.582.888,1.557,1.371,2.547,1.371Z"/></g><path d="M269.278 125.42c.99 0 1.965-.483 2.547-1.371.923-1.405.531-3.289-.875-4.209l-12.366-8.105a3.04 3.04 0 0 0-4.211.873c-.923 1.405-.531 3.289.875 4.209l12.366 8.105c.515.338 1.093.499 1.664.499z" class="D G"/><g class="D J"><path d="M226.139,125.42c.57,0,1.149-.16,1.664-.499l12.362-8.105c1.406-.92,1.798-2.804.875-4.209-.919-1.399-2.792-1.801-4.211-.873l-12.362,8.105c-1.406.92-1.798,2.804-.875,4.209.582.888,1.557,1.371,2.547,1.371Z"/></g></g><use href="#AR" class="e"/><g clip-path="url(#W)" class="B f"><use href="#AS"/></g><g clip-path="url(#X)"><path d="M109.291-28.594L72.027 3.257h37.264v-31.851z" class="B G"/><path d="M74.587-2.963l33.375-27.257 2.638 3.23L77.225.267z" class="N"/><g class="B J"><path d="M89.812.838h4.174v-7.015c0-1.151-.935-2.085-2.087-2.085s-2.087.934-2.087 2.085V.838zm8.348.309h4.174v-13.842c0-1.151-.933-2.083-2.085-2.083h-.004c-1.152 0-2.085.932-2.085 2.083V1.147z" class="D"/></g></g><g clip-path="url(#Y)"><path d="M109.291-28.594l37.265 31.851h-37.265v-31.851z" class="B G"/><use href="#AT" class="N"/><g class="B J"><path d="M128.771.838h-4.174v-7.015c0-1.151.935-2.085 2.087-2.085s2.087.934 2.087 2.085V.838z" class="D"/><use href="#AU" class="D"/></g></g><g clip-path="url(#Z)"><path d="M109.282.064H93.503v-29.923h15.779z" class="G"/><path d="M107.203-31.606h4.174V4.766h-4.174z" class="g"/></g><path d="M92.336 17.573l33.911-.37" class="K L O Q W X"/><path d="M142.774 23.214h12.473l3.38 30.845a2.89 2.89 0 0 1-2.874 3.203h-13.548a2.89 2.89 0 0 1-2.873-3.208l3.441-30.839z" class="e"/><g clip-path="url(#a)" class="B f"><path d="M148.971 45.511l10.197-7.425c5.632-4.101 6.269-12.258 1.341-17.181l-3.567-3.564h-15.941l-3.567 3.564c-4.928 4.924-4.291 13.081 1.341 17.181l10.197 7.425z"/></g><path d="M148.98 22.093a16.63 16.63 0 0 1-4.875 11.761c-3.122 3.12-7.357 4.871-11.773 4.871h-16.745V27.729c0-4.412 1.753-8.644 4.875-11.763a16.66 16.66 0 0 1 11.773-4.871h16.745v10.998z" class="B S"/><g clip-path="url(#b)"><path d="M148.98 11.095l-37.264 31.851h37.264V11.095z" class="B G"/><path d="M114.276 36.725l33.375-27.257 2.638 3.23-33.375 27.257z" class="N"/><g class="B"><g class="J"><use href="#AV" class="D"/><path d="M137.849 40.836h4.174V26.994c0-1.151-.933-2.083-2.085-2.083h-.004c-1.152 0-2.085.932-2.085 2.083v13.842z" class="D"/></g><g class="G"><use href="#AW" class="H"/><use href="#AX" class="H"/></g></g></g><path d="M148.98 22.093a16.63 16.63 0 0 0 4.875 11.761c3.122 3.12 7.357 4.871 11.773 4.871h16.745V27.729c0-4.412-1.753-8.644-4.875-11.763a16.66 16.66 0 0 0-11.773-4.871H148.98v10.998z" class="B S"/><g clip-path="url(#c)"><path d="M148.98 11.095l37.265 31.851H148.98V11.095z" class="B G"/><path d="M147.661 12.711l2.636-3.232 33.394 27.234-2.636 3.232z" class="N"/><g class="B"><g class="J"><use href="#AY" class="D"/><path d="M160.111 40.836h-4.174v-13.84a2.08 2.08 0 0 1 .612-1.474 2.09 2.09 0 0 1 1.476-.611c.553 0 1.085.221 1.476.611s.612.922.612 1.474v13.84z" class="D"/></g><g class="G"><use href="#AZ" class="H"/><path d="M182.373 18.915v-4.171h-12.522c-.553 0-1.085.221-1.476.611s-.612.922-.612 1.474.219 1.084.612 1.474a2.08 2.08 0 0 0 1.476.611h12.522z" class="H"/></g></g></g><path d="M148.971 38.726l10.001-7.282a11.12 11.12 0 0 0 1.315-16.852l-3.499-3.496h-15.636l-3.499 3.496a11.12 11.12 0 0 0 1.315 16.852l10.001 7.282z" class="B N"/><g clip-path="url(#d)"><path d="M148.971 39.753h-15.779V9.83h15.779z" class="G"/><path d="M146.892 8.083h4.174v36.372h-4.174z" class="g"/><g class="D G"><use href="#Aa"/></g><g class="D J"><use href="#Ab"/></g><path d="M163.779 35.84c.679 0 1.348-.331 1.747-.941.633-.964.364-2.256-.601-2.888l-8.484-5.561c-.965-.635-2.258-.361-2.889.599s-.364 2.256.601 2.888l8.484 5.561a2.07 2.07 0 0 0 1.141.342z" class="D G"/><g class="D J"><path d="M134.182 35.84a2.07 2.07 0 0 0 1.141-.342l8.481-5.561c.965-.631 1.234-1.924.601-2.888s-1.916-1.235-2.889-.599l-8.481 5.561c-.965.631-1.234 1.924-.601 2.888.399.61 1.068.941 1.747.941z"/></g></g><path d="M132.025 57.262l33.911-.37" class="K L O Q W X"/><path d="M156.323 96.053h12.473l3.38 30.845a2.89 2.89 0 0 1-2.874 3.203h-13.548a2.89 2.89 0 0 1-2.873-3.208l3.441-30.839z" class="e"/><g clip-path="url(#e)" class="B f"><path d="M162.519 118.35l10.197-7.425c5.632-4.101 6.269-12.258 1.341-17.181l-3.567-3.564h-15.941l-3.567 3.564c-4.928 4.924-4.291 13.081 1.341 17.181l10.197 7.425z"/></g><path d="M162.529 94.932a16.63 16.63 0 0 1-4.875 11.761c-3.122 3.12-7.357 4.871-11.773 4.871h-16.745v-10.996c0-4.412 1.753-8.644 4.875-11.763a16.66 16.66 0 0 1 11.773-4.871h16.745v10.998z" class="B S"/><g clip-path="url(#f)"><path d="M162.529 83.934l-37.265 31.851h37.265V83.934z" class="B G"/><path d="M127.826 109.563L161.2 82.306l2.638 3.23-33.375 27.257z" class="N"/><g class="B"><g class="J"><path d="M143.049 113.366h4.174v-7.015c0-1.151-.935-2.085-2.087-2.085s-2.087.934-2.087 2.085v7.015zm8.349.309h4.174V99.833c0-1.151-.933-2.083-2.085-2.083h-.004c-1.152 0-2.085.932-2.085 2.083v13.842z" class="D"/></g><g class="G"><path d="M129.136 99.874v-3.95h6.372a1.98 1.98 0 0 1 1.398.58c.369.369.578.872.578 1.395h0a1.98 1.98 0 0 1-1.976 1.975h-6.372zm0-8.12v-4.171h12.525c1.152 0 2.085.932 2.085 2.083v.004c0 1.151-.933 2.083-2.085 2.083h-12.525z" class="H"/></g></g></g><path d="M162.529 94.932a16.63 16.63 0 0 0 4.875 11.761c3.122 3.12 7.357 4.871 11.773 4.871h16.745v-10.996c0-4.412-1.753-8.644-4.875-11.763a16.66 16.66 0 0 0-11.773-4.871h-16.745v10.998z" class="B S"/><g clip-path="url(#g)"><path d="M162.529 83.934l37.264 31.851h-37.264V83.934z" class="B G"/><path d="M161.21 85.549l2.636-3.232 33.394 27.234-2.636 3.232z" class="N"/><g class="B"><g class="J"><path d="M182.008 113.366h-4.174v-7.015c0-1.151.935-2.085 2.087-2.085s2.087.934 2.087 2.085v7.015zm-8.348.309h-4.174v-13.84a2.08 2.08 0 0 1 .612-1.474 2.09 2.09 0 0 1 1.476-.611c.553 0 1.085.221 1.476.611s.612.922.612 1.474v13.84z" class="D"/></g><g class="G"><path d="M195.922 100.095v-4.171h-6.263c-.553 0-1.083.219-1.473.611a2.09 2.09 0 0 0-.612 1.472v.004a2.08 2.08 0 0 0 .612 1.474c.39.39.92.609 1.473.609h6.263zm0-8.341v-4.171H183.4c-.553 0-1.085.221-1.476.611s-.612.922-.612 1.474.219 1.084.612 1.474a2.08 2.08 0 0 0 1.476.611h12.522z" class="H"/></g></g></g><path d="M162.519 111.564l10.001-7.282a11.12 11.12 0 0 0 1.315-16.852l-3.499-3.496H154.7l-3.499 3.496a11.12 11.12 0 0 0 1.315 16.852l10.001 7.282z" class="B N"/><g clip-path="url(#h)"><path d="M162.519 112.592H146.74V82.669h15.779z" class="G"/><path d="M160.441 80.922h4.174v36.372h-4.174z" class="g"/><g class="D G"><path d="M177.327 99.17c.679 0 1.348-.331 1.747-.941.633-.964.364-2.256-.601-2.888l-8.484-5.561c-.965-.635-2.258-.361-2.889.599s-.364 2.256.601 2.888l8.484 5.561a2.07 2.07 0 0 0 1.141.342z"/></g><g class="D J"><path d="M147.731 99.17a2.07 2.07 0 0 0 1.141-.342l8.481-5.561c.965-.631 1.234-1.924.601-2.888s-1.916-1.235-2.889-.599l-8.481 5.561c-.965.631-1.234 1.924-.601 2.888.399.61 1.068.941 1.747.941z"/></g><path d="M177.327 108.679c.679 0 1.348-.331 1.747-.941.633-.964.364-2.256-.601-2.888l-8.484-5.561c-.965-.635-2.258-.361-2.889.599s-.364 2.256.601 2.888l8.484 5.561a2.07 2.07 0 0 0 1.141.342z" class="D G"/><g class="D J"><path d="M147.731 108.679a2.07 2.07 0 0 0 1.141-.342l8.481-5.561c.965-.631 1.234-1.924.601-2.888s-1.916-1.235-2.889-.599l-8.481 5.561c-.965.631-1.234 1.924-.601 2.888.399.61 1.068.941 1.747.941z"/></g></g><path d="M145.573 130.101l33.912-.37" class="K L O Q W X"/><rect x="1253.93" y="79.095" width="97.703" height="15.929" rx="7.964" opacity=".3" class="a"/><path d="M1247.702,27.414s-15.662,15.788-21.796,14.999c-3.132-.403-5.054-1.719-6.184-2.912-.623-.657-1.739-.246-1.74.66-.002,3.472,1.323,8.987,9.589,9.701,12.181,1.052,21.294-14.722,21.294-14.722l-1.164-7.726Z" fill="#28211e"/><path d="M1287.468,77.86s12.838,7.99,13.057,9.472v1.131h-6.835v-2.454l-6.835-3.578.613-4.572Z" fill="#e8c091"/><path d="M1319.935 51.603l-12.356 4.82 1.665 3.242 18.12 1.499 1.738-5.346-9.167-4.215z" fill="#442c0c"/><path d="M1332.581 68.302l-.849 5.362c-.015.775-.096 1.545-.217 2.309l4.755-3.222.645-6.536a9.17 9.17 0 0 0-.454-3.886 9.18 9.18 0 0 0-4.846-5.356l-2.511-1.155-1.738 5.346.437.036c3.528.49 5.115 2.672 4.781 7.103z" class="k"/><path d="M1331.515 75.973c-.171 1.079-.434 2.143-.812 3.171l-.916 2.494-.985 2.681a1.57 1.57 0 0 0 .177 1.427l.615.901c.646.946 2.054.904 2.644-.078l.538-.896.481-.802a1.52 1.52 0 0 0 .139-.301l1.77-5.183c.419-1.226.694-2.496.822-3.786l.281-2.851-4.755 3.222z" fill="#e8c091"/><path d="M1277.018 48.744l3.33 24.625-10.341-4.207-1.314-16.474 1.489-6.573 6.836 2.629z" class="k"/><g fill="#ffdbab"><path d="M1302.436 75.713l-3.313-4.113a1.31 1.31 0 0 0-1.278-.463l-3.567.713c-1.113.223-1.437 1.657-.528 2.336l7.352 5.493a4.37 4.37 0 0 0 3.804.704l2.095-.593-1.389-5.043-3.177.965zm-16.207 9.033c.14.346.459.588.831.629l3.534.388c.799.088 1.379-.744 1.019-1.464l-2.602-5.204-4.522 1.35 1.74 4.301z"/></g><path d="M1352.081 23.295l1.472 1.472s-.436-1.256.876-2.191c.805-.573 1.653-.687 2.439-.572l-10.865-14.29a7.28 7.28 0 0 0-4.65-2.784l-7.811-1.246c-.552-.088-.908.568-.533.983l1.368 1.512-32.73 15.379-38.372-2.598a13.55 13.55 0 0 0-8.052 2.002l-3.034 1.881c-3.984 2.47-6.407 6.824-6.407 11.511h0c0 4.346 2.086 8.429 5.608 10.975l11.48 8.301v8.051h9.07V49.555l24.581 8.15 11.002 10.026 7.343-2.651-3.491-6.191c16.825-3.155 15.248-22.872 15.248-22.872l8.255-10.862c1.029-1.354 2.826-1.869 4.416-1.265l5.456 2.073 5.192-2.956a1.78 1.78 0 0 1 2.14.288z" fill="#60441b"/><g fill="#442c0c"><path d="M1311.126 71.014c.747.681.468 1.917-.499 2.211l-5.014 1.523 1.389 5.043 5.698-1.611a6.74 6.74 0 0 0 4.392-3.909c.789-1.911.657-4.078-.358-5.879l-1.868-3.312-7.343 2.651 3.603 3.283zm-48.255-5.848c0 2.198 1.229 4.212 3.184 5.217l18.138 9.328.297.734 4.522-1.35-.97-1.94c-.385-.77-.983-1.412-1.723-1.851l-13.235-7.851a2.33 2.33 0 0 1-1.142-2.005v-3.766h-9.07v3.485zm88.235-36.136c.472.879 1.428 1.405 2.42 1.304 3.77-.384 4.293-2.066 4.344-2.767.018-.249.059-.493.144-.728l.355-.986a2.49 2.49 0 0 0-.361-2.35l-1.14-1.5a3.26 3.26 0 0 0-2.439.572c-1.313.934-.876 2.191-.876 2.191l-1.472-1.471a1.78 1.78 0 0 0-2.14-.288l-5.192 2.956 5.048 1.918a2.49 2.49 0 0 1 1.309 1.149z"/></g><g stroke="#35260f" class="C K L m"><path d="M1343.874 5.617l-6.479 3.972m-3.411-3.412l13.9 15.269-20.571-12.356m20.571 15.048l-3.135 1.825"/><path d="M1337.395 9.589l-.936 14.549"/></g><path d="M1296.806 34.853s-1.885 10.738-.285 22.852l-3.815-1.265s-1.333-7.39-.457-18.607 4.557-2.979 4.557-2.979z" class="k"/><path d="M1274.52 19.211l-4.91 6.553a2.7 2.7 0 0 0 .847 3.976l20.214 11.246a2.7 2.7 0 0 0 3.401-.651l10.553-12.915a2.7 2.7 0 0 0 .604-1.54l.384-6.187-31.093-.482z" fill="#7834c1"/><path d="M1346.542,12.129h-1.371c-.326,0-.6.187-.753.451h-.65c-.237,0-.431.194-.431.431s.194.431.431.431h.65c.153.264.427.451.753.451h1.371c.485,0,.882-.397.882-.882s-.397-.882-.882-.882Z" class="Y"/><g class="C L m"><path d="M1349.123,24.63s-15.389,12.277-32.04-1.788" stroke="#35260f" class="K"/><circle cx="1349.123" cy="22.822" r="1.807" stroke="#d8d8d8"/></g><path d="M1299.23 12.458h4v4h-4z" class="Z"/><path d="M1303.505,29.865h0c.417-.931-.113-2.085-1.106-2.319l-13.346-3.069.327,3.23,12.248,3.068c.764.191,1.555-.193,1.877-.911Z" class="B T"/><g clip-path="url(#i)" class="B"><path d="M1289.052 24.477l.355 3.505 5.256 1.251.843-4.088-6.454-.668z" fill="#ffef5c"/></g><path d="M1285.174 22.842l-1.88 7.776.526.127c.331.08.677 0 .92-.216l.129-.114 3.052-2.636 1.289.312c.218.053.447.016.638-.1a.84.84 0 0 0 .38-.522l.58-2.398c.11-.453-.169-.908-.622-1.018l-5.012-1.212z" class="B l"/><g clip-path="url(#j)" fill="#2d4145" class="B"><path d="M1284.83 27.258a.87.87 0 0 1 .135.707l-.784 3.244c-.257.334-.687.485-1.096.386l-.024-.006 1.233-5.098.538.766zm.59-2.683a1.3 1.3 0 0 0 .554-.784l.408-1.686-.972-.235-.779 3.22.789-.515zm3.489 4.096a1 1 0 0 0 1.207-.737l.89-3.682a1 1 0 0 0-.737-1.207h0l-1.36 5.626z"/></g><g class="B"><path d="M1302.951,30.455h0c.808-.623.887-1.89.123-2.566l-6.815-5.962-3.103,1.427,7.711,7.015c.582.53,1.461.566,2.084.085Z" class="T"/><path d="M1291.204 24.972l9.4 2.161-.234-2.646-6.822-4.585-2.344 5.07z" class="Y"/><path d="M1304.731 16.931a1.75 1.75 0 0 0-.329-2.323l-2.3-1.924c-.357-.298-.816-.442-1.28-.401s-.89.265-1.188.621l-6.162 7.394 6.47 3.742 4.79-7.11z" fill="#fff"/></g><g clip-path="url(#k)" class="B"><path d="M1304.765 17.633l-.252 1.651 1.036 1.34-1.659.238-.939 1.369-.773-1.504-1.616-.494 1.181-1.166-.06-1.675 1.503.782 1.579-.541z" fill="#ffe81c"/></g><g class="B"><path d="M1300.942 23.902l-5.058-4.229-2.33.658 6.4 5.352.988-1.781z" class="l"/><path d="M1300.015 27.095l-.602-3.062a1.3 1.3 0 0 1 .716-1.426h.002c.523-.25 1.149-.099 1.501.362l1.874 2.458-3.491 1.668z" fill="#0a7359"/><g class="l"><path d="M1300.17 22.779a1.07 1.07 0 0 0-1.429-.505h-.002c-.558.267-.816.918-.593 1.495l2.106 5.43 2.431-1.161-2.512-5.258zm-3.589-2.527l-.983-.822c-1.329-1.112-3.364-.438-3.768 1.247l-.876 4.238 4.378 1.007 1.249-5.67z"/></g><g class="T"><path d="M1315.261 23.164l-12.453-5.912a1.4 1.4 0 0 1-.706-1.774l.012-.03c.141-.364.428-.653.791-.797s.77-.131 1.122.038l12.396 5.918-1.161 2.557z"/><path d="M1316.201 20.055l.545-.067a2.19 2.19 0 0 1 1.588.426l.772.584c.099.075.124.212.058.317l-.274.435.024.035.493.362c.473.347.575 1.01.228 1.479-.21.285-.538.415-.868.41-.42.435-.97.725-1.578.799-.71.087-1.426-.114-1.987-.559-.963-.765-1.161-2.139-.453-3.133l.277-.389c.276-.388.702-.641 1.175-.699z"/></g></g><g clip-path="url(#l)"><path d="M1300.112 17.591l1.651-4.277 6.62 2.555-1.651 4.277z" fill="#f1e1c9"/></g><path d="M1298.85 4.075h4.181v3.411h-4.181z" class="Z"/><path d="M1313.336 4.262a8.75 8.75 0 0 0-8.75-8.75h-5.62a8.75 8.75 0 0 0-8.75 8.75h0a8.75 8.75 0 0 0 8.75 8.751h5.62a8.75 8.75 0 0 0 8.75-8.75h0z" class="B T"/><g clip-path="url(#m)" class="B Z"><path d="M1312.926 9.77c-.245 0-.481-.097-.654-.271s-.271-.409-.271-.654h0c0-.051.02-.099.056-.134a.19.19 0 0 1 .134-.056h2.316a.19.19 0 0 1 .134.056c.035.036.055.084.055.134h0c0 .246-.097.481-.27.654s-.409.271-.654.271h-.846z"/></g><path d="M1313.304 1.923c-.005-1.969-1.603-3.563-3.572-3.563h-10.921c-.949 0-1.859.378-2.529 1.049a3.57 3.57 0 0 0-1.043 2.532l.023 8.855c.005 1.969 1.603 3.563 3.572 3.563h10.921c.949 0 1.859-.378 2.529-1.049s1.045-1.583 1.043-2.532l-.023-8.855z" class="B T"/><g clip-path="url(#n)" class="B Z"><path d="M1315.836 11.36a2.5 2.5 0 1 1-5 0h5z"/></g><g class="B"><g class="Y"><path d="M1301.215-4.229h-11.985V9.378c0 1.321.525 2.588 1.459 3.523a4.98 4.98 0 0 0 3.523 1.459h0v-2.302c.45 1.374 1.732 2.302 3.177 2.302h3.841l-.015-18.589z"/><path d="M1301.132 14.36h-4.065c-.765 0-1.514-.212-2.165-.613l-4.847-2.982h0a16.22 16.22 0 0 1 16.216-16.217h4.817l.964 3.532-10.828 8.028-.092 8.251z"/></g><path d="M1312.052-4.438h-2.569a4.85 4.85 0 0 0-3.375 1.366l-16.171 15.653h0a4.53 4.53 0 0 1-4.686-4.467l-.02-15.954a5.79 5.79 0 0 1 5.792-5.8q0 0 .002 0c1.562 0 3.084.489 4.354 1.399l.694.497a12.56 12.56 0 0 0 5.915 2.272l6.185.695c2.209.248 3.879 2.116 3.879 4.339h0z" fill="#c9460f"/></g><g clip-path="url(#o)" fill="#aa390d" class="B"><path d="M1291.629 5.982a.7.7 0 0 0-.492-.204c-.185 0-.362.073-.493.204h0a.7.7 0 0 0 0 .984l6.4 6.4.985-.985-6.4-6.4z"/><use href="#Ac"/><use href="#Ad"/><path d="M1299.081-1.47c-.131-.131-.308-.204-.493-.204s-.361.073-.492.204h0a.7.7 0 0 0-.204.492.7.7 0 0 0 .204.492l6.4 6.4.985-.985-6.4-6.4zm2.484-2.484c-.131-.131-.308-.204-.493-.204s-.361.073-.492.204h0a.7.7 0 0 0 0 .984l6.4 6.4.985-.985-6.4-6.4zm2.986-2.289a.7.7 0 0 0-.463-.265c-.183-.024-.368.027-.514.14h0a.7.7 0 0 0-.125.976l5.533 7.162 1.102-.851-5.533-7.162zm-15.178 14.33a.69.69 0 0 0-.492-.204.69.69 0 0 0-.492.204h0c-.131.131-.204.308-.204.492s.073.362.204.492l6.4 6.4.984-.985-6.4-6.4z"/></g><g class="B"><path d="M1310.084 4.232v-8.67h2.248a2.13 2.13 0 0 1 2.128 2.128v4.414c0 .565-.224 1.106-.623 1.505a2.13 2.13 0 0 1-1.505.623h-2.248z" class="Y"/><path d="M1300.688 2.491a3.6 3.6 0 0 1 3.595 3.586 3.58 3.58 0 0 1-3.577 3.586 3.6 3.6 0 0 1-3.595-3.586 3.58 3.58 0 0 1 3.577-3.586z" class="T"/><path d="M1300.694 4.876c.663 0 1.202.538 1.204 1.201a1.2 1.2 0 0 1-1.198 1.201c-.663 0-1.202-.538-1.204-1.201a1.2 1.2 0 0 1 1.198-1.201z" class="Z"/></g><rect x="1305.211" y="2.86" width="5.036" height="9" rx="1.512" fill="#fff"/><g clip-path="url(#p)" class="Y"><rect x="1307.729" y="2.893" width="2.518" height="7.09" rx=".844"/></g></g></svg>