<svg xmlns="http://www.w3.org/2000/svg" width="1500" height="145" xmlns:v="https://vecta.io/nano"><style><![CDATA[.B{fill-rule:evenodd}.C{opacity:.5}.D{fill:none}.E{fill:#839c2f}.F{clip-rule:evenodd}.G{opacity:.6}.H{fill:#4e7b3f}.I{opacity:.75}.J{fill:#bdce42}.K{fill:#839d24}.L{fill:#abbe3c}.M{fill:#f2b052}.N{fill:#0c1c1c}.O{fill:#8989af}.P{stroke-linecap:round}.Q{stroke-linejoin:round}.R{fill:#e99a3b}.S{fill:#4d7c3d}.T{fill:#9494b6}.U{fill:#62c244}.V{stroke:#62c244}.W{stroke-width:10}.X{fill:#6a4c46}.Y{fill:#594238}.Z{fill:#d6e14c}.a{fill:#4ba2da}.b{fill:#bdd033}.c{stroke-dasharray:0 10}]]></style><defs><clipPath id="A"><path d="M0 0h1500v145H0z" class="D"/></clipPath><clipPath id="B"><path d="M986.31 95.83l13.117-4.234c.201-.065.421.007.544.179s.122.403-.003.573l-4.111 5.593a4.36 4.36 0 0 0 .601 5.827L986.31 95.83z" class="D F"/></clipPath><clipPath id="C"><path d="M1033.689 132.5l15.452-2.651a.72.72 0 0 1 .588 1.262l-10.038 8.31a5.5 5.5 0 0 0-1.585 2.156l-4.936 12.06a.72.72 0 0 1-1.38-.184l-1.774-15.958 1.301-2.826 2.37-2.169z" class="D F"/></clipPath><clipPath id="D"><path d="M506.355 118.073h22.918l6.211 69.687a5.31 5.31 0 0 1-5.28 5.885h-24.892a5.31 5.31 0 0 1-5.279-5.895l6.322-69.676z" class="D"/></clipPath><clipPath id="E"><path d="M517.758 116.013c0 8.104-3.221 15.878-8.958 21.61a30.6 30.6 0 0 1-21.632 8.95h-30.766V126.37a30.55 30.55 0 0 1 8.958-21.613 30.62 30.62 0 0 1 21.632-8.95h30.766v20.207z" class="D F"/></clipPath><clipPath id="F"><path d="M517.758 116.013c0 8.104 3.221 15.878 8.958 21.61a30.6 30.6 0 0 0 21.632 8.95h30.766V126.37a30.55 30.55 0 0 0-8.958-21.613 30.62 30.62 0 0 0-21.632-8.95h-30.766v20.207z" class="D F"/></clipPath><clipPath id="G"><path d="M517.741 146.573l18.376-13.381c10.15-7.391 11.297-22.091 2.416-30.964l-6.428-6.423h-28.729l-6.428 6.423c-8.881 8.873-7.734 23.573 2.416 30.964l18.376 13.381z" class="D F"/></clipPath><clipPath id="H"><path d="M1279.332 25.569h22.918l6.211 69.687a5.31 5.31 0 0 1-5.28 5.885h-24.892a5.31 5.31 0 0 1-5.279-5.895l6.322-69.676z" class="D"/></clipPath><clipPath id="I"><path d="M1290.735 23.509c0 8.104-3.221 15.878-8.958 21.61a30.6 30.6 0 0 1-21.632 8.95h-30.766V33.866a30.55 30.55 0 0 1 8.958-21.613 30.62 30.62 0 0 1 21.632-8.95h30.766V23.51z" class="D F"/></clipPath><clipPath id="J"><path d="M1290.735 23.509c0 8.104 3.221 15.878 8.958 21.61a30.6 30.6 0 0 0 21.632 8.95h30.766V33.866a30.55 30.55 0 0 0-8.958-21.613 30.62 30.62 0 0 0-21.632-8.95h-30.766V23.51z" class="D F"/></clipPath><clipPath id="K"><path d="M1290.718 54.069l18.376-13.381c10.15-7.391 11.297-22.091 2.416-30.964l-6.428-6.423h-28.729l-6.428 6.423c-8.881 8.873-7.734 23.573 2.416 30.964l18.376 13.381z" class="D F"/></clipPath><clipPath id="L"><path d="M1362.353 80.495h16.963l4.597 41.568a3.93 3.93 0 0 1-3.908 4.356h-18.424a3.93 3.93 0 0 1-3.907-4.363l4.679-41.56z" class="D"/></clipPath><clipPath id="M"><path d="M1370.793 78.971a22.61 22.61 0 0 1-6.63 15.994 22.65 22.65 0 0 1-16.01 6.624h-22.771V86.636a22.61 22.61 0 0 1 6.63-15.997 22.66 22.66 0 0 1 16.01-6.624h22.771v14.956z" class="D F"/></clipPath><clipPath id="N"><path d="M1370.793 78.971a22.61 22.61 0 0 0 6.63 15.994 22.65 22.65 0 0 0 16.01 6.624h22.771V86.636a22.61 22.61 0 0 0-6.63-15.997 22.66 22.66 0 0 0-16.01-6.624h-22.771v14.956z" class="D F"/></clipPath><clipPath id="O"><path d="M1370.78 101.589l13.601-9.903c7.512-5.47 8.361-16.35 1.788-22.918l-4.758-4.754h-21.263l-4.758 4.754c-6.573 6.567-5.724 17.447 1.788 22.918l13.601 9.903z" class="D F"/></clipPath><clipPath id="P"><path d="M103.085 128.525h12.473l3.38 30.845a2.89 2.89 0 0 1-2.874 3.203h-13.548a2.89 2.89 0 0 1-2.873-3.208l3.441-30.839z" class="D"/></clipPath><clipPath id="Q"><path d="M109.291 127.404a16.63 16.63 0 0 1-4.875 11.761c-3.122 3.12-7.357 4.871-11.773 4.871H75.898V133.04c0-4.412 1.753-8.644 4.875-11.763a16.66 16.66 0 0 1 11.773-4.871h16.745v10.998z" class="D F"/></clipPath><clipPath id="R"><path d="M109.291 127.404a16.63 16.63 0 0 0 4.875 11.761c3.122 3.12 7.357 4.871 11.773 4.871h16.745V133.04c0-4.412-1.753-8.644-4.875-11.763a16.66 16.66 0 0 0-11.773-4.871h-16.745v10.998z" class="D F"/></clipPath><clipPath id="S"><path d="M109.282 144.037l10.001-7.282a11.12 11.12 0 0 0 1.315-16.852l-3.499-3.496h-15.636l-3.499 3.496a11.12 11.12 0 0 0 1.315 16.852l10.001 7.282z" class="D F"/></clipPath><clipPath id="T"><path d="M1312.052 140.562h-2.569a4.85 4.85 0 0 0-3.375 1.366l-16.171 15.653h0a4.53 4.53 0 0 1-4.686-4.467l-.02-15.954a5.79 5.79 0 0 1 5.792-5.8q0 0 .002 0c1.562 0 3.084.489 4.354 1.399l.694.497a12.56 12.56 0 0 0 5.915 2.272l6.185.695c2.209.248 3.879 2.116 3.879 4.339h0z" class="D F"/></clipPath><path id="U" d="M415.792 57.783c-1.232 0-2.231-1-2.231-2.236V50.88c0-1.236.999-2.236 2.231-2.236s2.231 1 2.231 2.236v4.667c0 1.236-.999 2.236-2.231 2.236z"/><path id="V" d="M431.608 76.261c-1.232 0-2.231-1-2.231-2.236v-7.001c0-1.236.999-2.236 2.231-2.236s2.231 1 2.231 2.236v7.001c0 1.236-.999 2.236-2.231 2.236z"/><path id="W" d="M449.557 37.555c-1.232 0-2.231-1-2.231-2.236V30.65c0-1.236.999-2.236 2.231-2.236s2.231 1 2.231 2.236v4.669c0 1.236-.999 2.236-2.231 2.236z"/><path id="X" d="M506.355 118.073h22.918l6.211 69.687a5.31 5.31 0 0 1-5.28 5.885h-24.892a5.31 5.31 0 0 1-5.279-5.895l6.322-69.676z"/><path id="Y" d="M517.741 159.04l18.735-13.642c10.348-7.535 11.518-22.522 2.464-31.569l-6.554-6.548h-29.29l-6.554 6.548c-9.054 9.047-7.885 24.034 2.464 31.569l18.735 13.642z"/><path id="Z" d="M456.402 125.094v-7.257h11.707c.963 0 1.887.383 2.569 1.065s1.062 1.602 1.062 2.563h0c0 .966-.383 1.885-1.062 2.567s-1.607 1.061-2.569 1.061h-11.707z"/><path id="a" d="M456.402 110.174v-7.663h23.012a3.83 3.83 0 0 1 3.831 3.828v.008a3.83 3.83 0 0 1-3.831 3.828h-23.012z"/><path id="b" d="M515.333 98.774l4.844-5.939 61.357 50.04-4.844 5.939z"/><path id="c" d="M538.209 150.45h-7.669v-25.43c0-1.015.403-1.989 1.124-2.709s1.695-1.123 2.711-1.123a3.84 3.84 0 0 1 2.711 1.123c.721.72 1.124 1.694 1.124 2.709v25.43z"/><path id="d" d="M579.113 125.5v-7.663h-11.508c-1.016 0-1.99.402-2.707 1.123a3.81 3.81 0 0 0-1.124 2.705v.008c0 1.015.403 1.989 1.124 2.709a3.83 3.83 0 0 0 2.707 1.119h11.508z"/><path id="e" d="M579.113 110.174v-7.663h-23.008a3.84 3.84 0 0 0-2.711 1.123c-.721.72-1.124 1.694-1.124 2.709a3.82 3.82 0 0 0 1.124 2.709 3.83 3.83 0 0 0 2.711 1.123h23.008z"/><path id="f" d="M517.741 146.573l18.376-13.381c10.15-7.391 11.297-22.091 2.416-30.964l-6.428-6.423h-28.729l-6.428 6.423c-8.881 8.873-7.734 23.573 2.416 30.964l18.376 13.381z"/><path id="g" d="M544.948 123.799c1.248 0 2.477-.609 3.211-1.729a3.83 3.83 0 0 0-1.103-5.306l-15.589-10.217c-1.773-1.167-4.149-.664-5.308 1.1a3.83 3.83 0 0 0 1.103 5.306l15.589 10.217a3.8 3.8 0 0 0 2.097.629z"/><path id="h" d="M490.568 123.799a3.8 3.8 0 0 0 2.097-.629l15.584-10.217c1.773-1.16 2.267-3.535 1.103-5.306-1.158-1.764-3.52-2.27-5.308-1.1l-15.584 10.217c-1.773 1.16-2.267 3.535-1.103 5.306.734 1.12 1.962 1.729 3.211 1.729z"/><path id="i" d="M1350.669 84.733a2.82 2.82 0 0 0 1.552-.465l11.534-7.562c1.312-.858 1.678-2.616.817-3.927a2.83 2.83 0 0 0-3.928-.814l-11.534 7.562c-1.312.858-1.678 2.616-.817 3.927.543.829 1.452 1.279 2.376 1.279z"/><path id="j" d="M124.09 131.642c.679 0 1.348-.331 1.747-.941.633-.964.364-2.256-.601-2.888l-8.484-5.561c-.965-.635-2.258-.361-2.889.599s-.364 2.256.601 2.888l8.484 5.561a2.07 2.07 0 0 0 1.141.342z"/><path id="k" d="M94.493 131.642a2.07 2.07 0 0 0 1.141-.342l8.481-5.561c.965-.631 1.234-1.924.601-2.888s-1.916-1.235-2.889-.599l-8.481 5.561c-.965.631-1.234 1.924-.601 2.888.399.61 1.068.941 1.747.941z"/><path id="l" d="M1299.081 143.53c-.131-.131-.308-.204-.493-.204s-.361.073-.492.204h0a.7.7 0 0 0 0 .984l6.4 6.4.985-.985-6.4-6.4z"/></defs><g clip-path="url(#A)"><path d="M-10.125-694.564h1520.249v4049.482H-10.125z" fill="#61d1d5"/><path d="M776.611,34.833c-12.682,0-23-10.309-23-22.982s10.318-22.981,23-22.981h11.581c12.684,0,23.002,10.309,23.002,22.981s-10.318,22.982-23.002,22.982h-11.581Z" fill="#7ee6e4" class="B"/><rect x="768.311" y="3.558" width="28.182" height="16.587" rx="8.293" fill="#fbed97"/><g class="B"><path d="M992.771 112.682l-4.513 7.885-14.399.531c-.263.01-.508-.132-.631-.364a.69.69 0 0 1 .053-.727l2.973-4.045c.393-.535.983-.892 1.639-.993l14.877-2.287z" class="O"/><path d="M986.31 95.83l13.117-4.234c.201-.065.421.007.544.179s.122.403-.003.573l-4.111 5.593a4.36 4.36 0 0 0 .601 5.827L986.31 95.83z" class="T"/></g><g clip-path="url(#B)" class="O"><path d="M982.897 94.43l2.115-2.877 15.853 11.653-2.115 2.877z"/></g><g class="B"><g class="O"><path d="M1017.946 131.575l-.071 5.542c-.003.298.185.564.468.658s.593-.004.77-.244l1.106-1.505a2.64 2.64 0 0 1 3.096-.894h0l-5.368-3.559zm5.187-7.056l5.269-1.722c.283-.092.593.008.768.25s.173.567-.003.807l-1.27 1.727c-.309.42-.438.945-.359 1.461s.359.978.779 1.287h0l-5.183-3.81z"/></g><path d="M1032.09 139.037l-64.283-49.833-1.218 1.657c-.798 1.086-1.132 2.445-.927 3.778l.179 1.163a30.67 30.67 0 0 0 18.674 23.718l47.576 19.517z" fill="#c5c5e0"/><path d="M968.435 95.493l-.257-4.154 4.298 3.16-4.041.994z" fill="#f4f4f4"/><path d="M1035.77 134.029l-34.976-28.219-1.542-1.187-31.894-23.443a2.2 2.2 0 0 0-2.434-.116 2.17 2.17 0 0 0-1.023 2.199c.641 4.079 2.877 7.749 6.216 10.203l61.981 45.558 3.672-4.995z" class="T"/><path d="M968.221 83.712l.014.011.013.012.013.011.014.012.012.012.013.013.012.012.012.013.012.013.011.014.011.014.011.014.01.014.01.015.01.014.009.015.009.015.009.016.008.015.008.016.008.016.007.016.007.016.007.017.006.016.006.017.005.017.005.016.005.017.004.018.004.017.003.017.003.017.003.018.002.017.002.018.002.018.001.017v.018l.001.017-.001.018v.018l-.001.017-.001.018-.002.017-.002.018-.003.017-.003.018-.003.017-.004.017-.004.018-.004.017-.005.017-.006.016-.005.017-.006.017-.007.016-.006.016-.008.017-.007.015-.008.016-.008.016-.009.015-.009.015-.009.015-.01.015-.01.015-.01.014-.011.014-.011.014-.011.014-.011.013-.012.013-.012.013-.013.012-.012.013-.013.012-.014.011-.013.012-.014.011-.014.01-.014.011-.015.01-.014.01-.015.009-.016.009-.015.009-.015.008-.016.008-.016.008-.016.007-.016.007-.017.006-.016.006-.017.006-.017.006-.017.005-.017.004-.017.005-.017.003-.017.004-.018.003-.017.003-.018.002-.017.002-.018.001-.017.001-.018.001h-.018-.017l-.018-.001h-.018l-.017-.002-.018-.002-.017-.002-.018-.002-.017-.003-.017-.004-.018-.003-.017-.004-.017-.005-.017-.005-.017-.005-.016-.006-.017-.006-.016-.006-.017-.007-.016-.007-.016-.008-.015-.007-.016-.009-.015-.008-.016-.009-.015-.01-.014-.009-.015-.01-.014-.01-.819-.602-.014-.011-.014-.011-.014-.011-.013-.012-.013-.012-.013-.012-.013-.012-.012-.013-.012-.013-.011-.013-.012-.014-.011-.013-.01-.014-.011-.015-.01-.014-.01-.015-.009-.015-.009-.015-.009-.015-.008-.016-.008-.016-.008-.015-.007-.016-.007-.017-.006-.016-.007-.017-.005-.016-.006-.017-.005-.017-.004-.017-.005-.017-.003-.017-.004-.018-.003-.017-.003-.018-.002-.017-.002-.018-.001-.017-.001-.018-.001-.017v-.018-.018-.017l.001-.018.002-.017.001-.018.003-.018.002-.017.003-.017.003-.018.004-.017.004-.017.005-.017.005-.017.005-.017.006-.017.006-.016.006-.017.007-.016.007-.016.007-.016.008-.016.009-.015.008-.016.009-.015.009-.015.01-.015.01-.014.01-.015.011-.014.011-.014.011-.013.012-.014.011-.013.013-.012.012-.013.013-.012.013-.012.013-.012.013-.011.014-.011.014-.011.015-.01.014-.01.015-.01.015-.009.015-.009.015-.009.016-.009.015-.008.016-.007.016-.007.017-.007.016-.007.017-.006.016-.006.017-.005.017-.005.017-.005.017-.004.017-.004.018-.003.017-.003.017-.003.018-.002.017-.002.018-.002.018-.001h.017l.018-.001h.018l.017.001.018.001.017.001.018.002.017.002.018.003.017.003.018.003.017.004.017.004.017.004.017.005.017.005.017.006.016.006.017.007.016.006.016.008.016.007.016.008.015.008.016.009.015.009.015.009.015.01.014.01.015.01.819.602.014.01z" fill="#240227"/></g><g stroke="#8989af" stroke-width="2.454" class="D P Q"><path d="M985.214 97.831l-1.493 2.03m5.503.917l-1.492 2.031m5.502.917l-1.492 2.03"/></g><path d="M1033.689 132.5l15.452-2.651a.72.72 0 0 1 .588 1.262l-10.038 8.31a5.5 5.5 0 0 0-1.585 2.156l-4.936 12.06a.72.72 0 0 1-1.38-.184l-1.774-15.958 1.301-2.826 2.37-2.169z" class="B T"/><g clip-path="url(#C)" class="O"><path d="M1012.374 140.374l7.562-10.289 25.665 18.864-7.562 10.289zm11.234-15.284l7.262-9.879 25.665 18.864-7.262 9.879z"/></g><g class="B"><g fill="#f4f4f4"><path d="M974.462 99.304l-.171-2.77 2.865 2.106-2.694.664z"/><path d="M971.596 97.197l-.171-2.769 2.866 2.106-2.695.663zm5.731 4.213l-.171-2.77 2.866 2.107-2.695.663z"/></g><path d="M978.964 93.131a.69.69 0 0 0 .126-.513c-.028-.181-.126-.343-.273-.452l-6.798-4.997a.69.69 0 0 0-.513-.126c-.181.028-.343.126-.452.273l-.595.81a.69.69 0 0 0-.126.513c.028.181.126.343.273.452l6.798 4.997a.69.69 0 0 0 .513.126c.181-.028.343-.126.452-.273l.595-.81z" fill="#7c7ca6"/></g><rect x="972.907" y="87.787" width="2.981" height="5.961" rx=".69" transform="matrix(.592252 -.805753 .805753 .592252 324.17 822.132)" fill="#fbec65"/><g class="B"><path d="M976.24 90.273l-1.921-1.412-1.354 1.842c-.227.309-.161.744.148.971l.802.589c.309.227.744.161.971-.148l1.354-1.842z" fill="#240227"/><path d="M994.436 113.906l-6.178 6.661 3.791 13.902c.069.254.277.445.536.493s.522-.056.678-.268l2.973-4.045a2.51 2.51 0 0 0 .459-1.861l-2.258-14.882z" fill="#c5c5e0"/></g><path d="M1013.18 113.976h-21.012a10.87 10.87 0 0 1-7.687-3.184h0a10.87 10.87 0 0 0-7.687-3.184h-14.581l7.513 18.466 23.166 14.978 38.943 18.283 20.066-16.847 4.013-17.521-42.734-10.991z" fill="#61d1d5"/><g fill="#d6f0f0"><path d="M1014.452 111.405c-.495.618-2.858 1.277-2.858 1.277s.126-2.451.62-3.069 1.397-.718 2.014-.223.718 1.397.223 2.014zm-6.086-2.871c.028.616 1.214 2.117 1.214 2.117s1.046-1.602 1.018-2.219-.55-1.094-1.167-1.066-1.094.55-1.066 1.167zm-42.206-.686c.729.308 3.122-.239 3.122-.239s-1.279-2.095-2.008-2.402-1.57.034-1.877.764a1.43 1.43 0 0 0 .764 1.877zm5.913-3.135c-.076.612-1.376 2.016-1.376 2.016s-.918-1.679-.842-2.291a1.12 1.12 0 0 1 1.246-.972 1.12 1.12 0 0 1 .972 1.246z"/></g><path d="M1209.742-3.582c-76.136 0-138.076 61.941-138.076 138.077 0 9.374-7.626 17-17 17H948.403c-9.374 0-17-7.626-17-17v-2.009c0-36.943-30.057-67-67-67h-75.775c-41.992 0-76.156-34.163-76.156-76.156v-85.988c0-34.188-27.813-62-62-62H505.54c-34.187 0-62 27.812-62 62v1.583c0 6.616-5.383 12-12 12h-77.199c-41.355 0-75 33.645-75 75v1.615c0 6.616-5.383 12-12 12H-56.875v1900.227h125.29c19.299 0 35 15.701 35 35v28.562c0 46.869 38.131 85 85 85h282.678c46.869 0 85-38.131 85-85v-4.012c0-19.299 15.701-35 35-35h100.898c106.145 0 192.5-86.354 192.5-192.5 0-13.785 11.215-25 25-25h189.302c13.785 0 25 11.215 25 25v6.941c0 13.785-11.215 25-25 25h-1.646c-41.355 0-75 33.646-75 75.001v134.569c0 41.355 33.645 75 75 75h68.108c41.355 0 75-33.645 75-75 0-34.095 27.737-61.833 61.832-61.833h254.837V-3.582h-347.181z" fill="#7ee6e4"/><path d="M1045.191 571.028h0c0-51.28 41.571-92.851 92.85-92.851h57.665c32.387 0 58.642-26.255 58.642-58.642h0c0-32.387 26.255-58.642 58.642-58.642h218.932V21.418h-322.181c-62.45 0-113.076 50.626-113.076 113.076h0c0 23.196-18.804 42-42 42H948.403c-23.196 0-42-18.804-42-42v-2.009c0-23.196-18.804-42-42-42h-75.776c-55.867 0-101.156-45.289-101.156-101.156v-85.988c0-20.435-16.565-37-37-37H505.539c-20.435 0-37 16.565-37 37v1.583c0 20.435-16.565 37-37 37H354.34c-27.614 0-50 22.386-50 50v1.615c0 20.435-16.565 37-37 37H-31.875v1850.227H68.414c33.137 0 60 26.863 60 60v28.561c0 33.137 26.863 60 60 60h282.678c33.137 0 60-26.863 60-60v-4.011c0-33.137 26.863-60 60-60H691.99c92.508 0 167.5-74.992 167.5-167.5h0c0-27.614 22.386-50 50-50h189.302c27.614 0 50 22.386 50 50v6.942c0 27.614-22.386 50-50 50h-1.647c-27.614 0-50 22.386-50 50v134.57c0 27.614 22.386 50 50 50h68.108c27.614 0 50-22.386 50-50h0c0-47.956 38.876-86.832 86.832-86.832h229.837v-328.037c0-39.064-31.668-70.732-70.732-70.732h-323.15c-50.932 0-92.285-41.008-92.845-91.807l-.006-830.892z" fill="#fbed97"/><path d="M1209.742 81.419c-29.313 0-53.076 23.763-53.076 53.076h0c0 56.333-45.667 102-102 102H701.078c-40.652 0-73.606-32.955-73.606-73.606V-47.658c0-14.359-11.641-26-26-26H545.03c-10.394 0-19.895 6.146-23.89 15.742-14.612 35.099-49.272 59.841-89.6 59.841h-46.653c-11.17 0-21.157 7.295-24.204 18.042-11.534 40.685-49.013 70.574-93.342 70.574H-1.979l-11.374 1742.34 115.314-.491c49.895 14.55 86.454 60.7 86.454 115.229v.695c.001 13.259 10.754 24.004 24.013 23.997l236.679-.131c11.698-.007 21.708-8.443 23.64-19.98 9.508-56.77 58.875-100.032 118.346-100.032h100.898c59.37 0 107.5-48.129 107.5-107.5h0c0-60.752 49.249-110 110-110h189.003c21.384 0 38.798-17.186 39.08-38.568h0c.246-18.686-12.768-34.942-31.062-38.758-28.801-6.009-55.263-20.244-76.552-41.532-28.243-28.244-44.073-65.595-44.746-105.431-.015-.883-.022-838.466-.022-839.351 0-40.828 15.899-79.212 44.769-108.081s67.254-44.769 108.082-44.769h28.622c14.589 0 27.327-10.069 30.48-24.313 11.76-53.123 59.237-92.972 115.846-92.972h312.76V81.419h-416.008z" class="U"/><g class="D P Q V W"><path d="M-1.979 90.54h0"/><path d="M-2.045 100.553l-11.276 1727.321" stroke-dasharray="0 10.014"/><path d="M1615.775 81.419h-406.033c-29.313 0-53.076 23.763-53.076 53.076h0c0 56.333-45.667 102-102 102H701.078c-40.652 0-73.606-32.955-73.606-73.606V-47.658c0-14.359-11.641-26-26-26H545.03c-10.394 0-19.895 6.146-23.89 15.742-14.612 35.099-49.272 59.841-89.6 59.841h-46.653c-11.17 0-21.157 7.295-24.204 18.042-11.534 40.685-49.013 70.574-93.342 70.574H3.009" stroke-dasharray="0 9.976"/></g><g opacity=".331" fill="#00703a"><path d="M406.478,57.783c-1.232,0-2.231-1-2.231-2.236v-7.001c0-1.236.999-2.236,2.231-2.236s2.231,1,2.231,2.236v7.001c0,1.236-.999,2.236-2.231,2.236Z"/><use href="#U"/><path d="M397.939 57.783c-1.232 0-2.231-1-2.231-2.236V50.88c0-1.236.999-2.236 2.231-2.236s2.231 1 2.231 2.236v4.667c0 1.236-.999 2.236-2.231 2.236z"/><use href="#V"/><path d="M440.922 76.261c-1.232 0-2.231-1-2.231-2.236v-4.669c0-1.236.999-2.236 2.231-2.236s2.231 1 2.231 2.236v4.669c0 1.236-.999 2.236-2.231 2.236zm-17.851 0c-1.232 0-2.231-1-2.231-2.236v-4.669c0-1.236.999-2.236 2.231-2.236s2.231 1 2.231 2.236v4.669c0 1.236-.999 2.236-2.231 2.236zm17.17-38.706c-1.232 0-2.231-1-2.231-2.236v-7.001c0-1.236.999-2.236 2.231-2.236s2.231 1 2.231 2.236v7.001c0 1.236-.999 2.236-2.231 2.236z"/><use href="#W"/><path d="M431.704 37.555c-1.232 0-2.231-1-2.231-2.236V30.65c0-1.236.999-2.236 2.231-2.236s2.231 1 2.231 2.236v4.669c0 1.236-.999 2.236-2.231 2.236z"/></g><use href="#X" class="X"/><g clip-path="url(#D)" class="B Y"><use href="#Y"/></g><path d="M517.758 116.013c0 8.104-3.221 15.878-8.958 21.61a30.6 30.6 0 0 1-21.632 8.95h-30.766V126.37a30.55 30.55 0 0 1 8.958-21.613 30.62 30.62 0 0 1 21.632-8.95h30.766v20.207z" class="B L"/><g clip-path="url(#E)"><path d="M517.758 95.806l-68.469 58.522h68.469V95.806z" class="B E"/><path d="M453.993 142.895l61.322-50.083 4.848 5.936-61.322 50.083z" class="J"/><g class="B"><g class="H"><path d="M481.967 149.883h7.669v-12.889c0-2.115-1.718-3.831-3.835-3.831s-3.835 1.716-3.835 3.831v12.889zm15.339.567h7.669v-25.433a3.83 3.83 0 0 0-3.831-3.828h-.008a3.83 3.83 0 0 0-3.831 3.828v25.433z" class="C"/></g><g class="E"><use href="#Z" class="I"/><use href="#a" class="I"/></g></g></g><path d="M517.758 116.013c0 8.104 3.221 15.878 8.958 21.61a30.6 30.6 0 0 0 21.632 8.95h30.766V126.37a30.55 30.55 0 0 0-8.958-21.613 30.62 30.62 0 0 0-21.632-8.95h-30.766v20.207z" class="B L"/><g clip-path="url(#F)"><path d="M517.758 95.806l68.469 58.522h-68.469V95.806z" class="B E"/><use href="#b" class="J"/><g class="B"><g class="H"><path d="M553.548 149.883h-7.669v-12.889c0-2.115 1.718-3.831 3.835-3.831s3.835 1.716 3.835 3.831v12.889z" class="C"/><use href="#c" class="C"/></g><g class="E"><use href="#d" class="I"/><use href="#e" class="I"/></g></g></g><use href="#f" class="B J"/><g clip-path="url(#G)"><path d="M517.741 148.46h-28.992V93.48h28.992z" class="E"/><path d="M513.921 90.271h7.669V157.1h-7.669z" class="Z"/><g class="C E"><use href="#g"/></g><g class="C H"><use href="#h"/></g><path d="M544.948 141.27c1.248 0 2.477-.609 3.211-1.729a3.83 3.83 0 0 0-1.103-5.306l-15.589-10.217c-1.773-1.167-4.149-.664-5.308 1.1a3.83 3.83 0 0 0 1.103 5.306l15.589 10.217a3.8 3.8 0 0 0 2.097.629z" class="C E"/><g class="C H"><path d="M490.568 141.27a3.8 3.8 0 0 0 2.097-.629l15.584-10.217c1.773-1.16 2.267-3.535 1.103-5.306-1.158-1.764-3.52-2.27-5.308-1.1l-15.584 10.217c-1.773 1.16-2.267 3.535-1.103 5.306.734 1.12 1.962 1.729 3.211 1.729z"/></g></g><path d="M1279.332 25.569h22.918l6.211 69.687a5.31 5.31 0 0 1-5.28 5.885h-24.892a5.31 5.31 0 0 1-5.279-5.895l6.322-69.676z" class="X"/><g clip-path="url(#H)" class="B Y"><path d="M1290.718 66.536l18.735-13.642c10.348-7.535 11.518-22.522 2.464-31.569l-6.554-6.548h-29.29l-6.554 6.548c-9.054 9.047-7.885 24.034 2.464 31.569l18.735 13.642z"/></g><path d="M1290.735 23.509c0 8.104-3.221 15.878-8.958 21.61a30.6 30.6 0 0 1-21.632 8.95h-30.766V33.866a30.55 30.55 0 0 1 8.958-21.613 30.62 30.62 0 0 1 21.632-8.95h30.766V23.51z" class="B L"/><g clip-path="url(#I)"><path d="M1290.735 3.302l-68.469 58.522h68.469V3.302z" class="B E"/><path d="M1226.966 50.386L1288.288.304l4.848 5.936-61.322 50.083z" class="J"/><g class="B"><g class="H"><path d="M1254.944 57.379h7.669V44.49c0-2.115-1.718-3.831-3.835-3.831s-3.835 1.716-3.835 3.831v12.889zm15.339.567h7.669V32.513a3.83 3.83 0 0 0-3.831-3.828h-.008a3.83 3.83 0 0 0-3.831 3.828v25.433z" class="C"/></g><g class="E"><path d="M1229.38 32.589v-7.257h11.707c.963 0 1.887.383 2.569 1.065a3.62 3.62 0 0 1 1.062 2.563h0c0 .966-.383 1.885-1.062 2.567s-1.607 1.061-2.569 1.061h-11.707zm0-14.919v-7.663h23.012a3.83 3.83 0 0 1 3.831 3.828v.008a3.83 3.83 0 0 1-3.831 3.828h-23.012z" class="I"/></g></g></g><path d="M1290.735 23.509c0 8.104 3.221 15.878 8.958 21.61a30.6 30.6 0 0 0 21.632 8.95h30.766V33.866a30.55 30.55 0 0 0-8.958-21.613 30.62 30.62 0 0 0-21.632-8.95h-30.766V23.51z" class="B L"/><g clip-path="url(#J)"><path d="M1290.735 3.302l68.469 58.522h-68.469V3.302z" class="B E"/><path d="M1288.307 6.268l4.844-5.939 61.357 50.04-4.844 5.939z" class="J"/><g class="B"><g class="H"><path d="M1326.526 57.379h-7.669V44.49c0-2.115 1.718-3.831 3.835-3.831s3.835 1.716 3.835 3.831v12.889zm-15.339.567h-7.669v-25.43c0-1.015.403-1.989 1.124-2.709s1.695-1.123 2.711-1.123a3.84 3.84 0 0 1 2.711 1.123c.721.72 1.124 1.694 1.124 2.709v25.43z" class="C"/></g><g class="E"><path d="M1352.091 32.996v-7.663h-11.508c-1.016 0-1.99.402-2.707 1.123a3.81 3.81 0 0 0-1.124 2.705v.008c0 1.015.403 1.989 1.124 2.709a3.83 3.83 0 0 0 2.707 1.119h11.508zm0-15.326v-7.663h-23.008a3.84 3.84 0 0 0-2.711 1.123c-.721.72-1.124 1.694-1.124 2.709a3.82 3.82 0 0 0 1.124 2.709 3.83 3.83 0 0 0 2.711 1.123h23.008z" class="I"/></g></g></g><path d="M1290.718 54.069l18.376-13.381c10.15-7.391 11.297-22.091 2.416-30.964l-6.428-6.423h-28.729l-6.428 6.423c-8.881 8.873-7.734 23.573 2.416 30.964l18.376 13.381z" class="B J"/><g clip-path="url(#K)"><path d="M1290.719 55.955h-28.992V.975h28.992z" class="E"/><path d="M1286.898-2.233h7.669v66.829h-7.669z" class="Z"/><g class="C E"><path d="M1317.926 31.295c1.248 0 2.477-.609 3.211-1.729a3.83 3.83 0 0 0-1.103-5.306l-15.589-10.217c-1.773-1.167-4.149-.664-5.308 1.1a3.83 3.83 0 0 0 1.103 5.306l15.589 10.217a3.8 3.8 0 0 0 2.097.629z"/></g><g class="C H"><path d="M1263.546 31.295a3.8 3.8 0 0 0 2.097-.629l15.584-10.217c1.773-1.16 2.267-3.535 1.103-5.306-1.158-1.764-3.52-2.27-5.308-1.1l-15.584 10.217c-1.773 1.16-2.267 3.535-1.103 5.306.734 1.12 1.962 1.729 3.211 1.729z"/></g><path d="M1317.926 48.766c1.248 0 2.477-.609 3.211-1.729a3.83 3.83 0 0 0-1.103-5.306l-15.589-10.217c-1.773-1.167-4.149-.664-5.308 1.1a3.83 3.83 0 0 0 1.103 5.306l15.589 10.217a3.8 3.8 0 0 0 2.097.629z" class="C E"/><g class="C H"><path d="M1263.546 48.766a3.8 3.8 0 0 0 2.097-.629l15.584-10.217c1.773-1.16 2.267-3.535 1.103-5.306-1.158-1.764-3.52-2.27-5.308-1.1l-15.584 10.217c-1.773 1.16-2.267 3.535-1.103 5.306.734 1.12 1.962 1.729 3.211 1.729z"/></g></g><path d="M1259.581 101.14l62.309-.68" class="P Q U V W c"/><path d="M1362.353 80.495h16.963l4.597 41.568a3.93 3.93 0 0 1-3.908 4.356h-18.424a3.93 3.93 0 0 1-3.907-4.363l4.679-41.56z" class="X"/><g clip-path="url(#L)" class="B Y"><path d="M1370.78 110.816l13.867-10.097c7.659-5.577 8.525-16.669 1.823-23.365l-4.851-4.846h-21.679l-4.851 4.846c-6.701 6.696-5.836 17.788 1.823 23.365l13.867 10.097z"/></g><path d="M1370.793 78.971a22.61 22.61 0 0 1-6.63 15.994 22.65 22.65 0 0 1-16.01 6.624h-22.771V86.636a22.61 22.61 0 0 1 6.63-15.997 22.66 22.66 0 0 1 16.01-6.624h22.771v14.956z" class="B L"/><g clip-path="url(#M)"><path d="M1370.793 64.014l-50.676 43.315h50.676V64.014z" class="B E"/><path d="M1323.593 98.861l45.387-37.068 3.588 4.394-45.387 37.068z" class="J"/><g class="B"><g class="H"><path d="M1344.303 104.039h5.676v-9.54a2.84 2.84 0 0 0-2.838-2.836 2.84 2.84 0 0 0-2.838 2.836v9.54zm11.353.42h5.676V85.635c0-1.565-1.269-2.833-2.835-2.833h-.006c-1.567 0-2.835 1.268-2.835 2.833v18.824z" class="C"/></g><g class="E"><path d="M1325.381 85.691V80.32h8.665c.712 0 1.396.284 1.902.788a2.67 2.67 0 0 1 .786 1.897h0a2.69 2.69 0 0 1-.786 1.9c-.505.505-1.189.786-1.902.786h-8.665zm0-11.042v-5.672h17.032c1.567 0 2.835 1.268 2.835 2.833v.006c0 1.565-1.269 2.833-2.835 2.833h-17.032z" class="I"/></g></g></g><path d="M1370.793 78.971a22.61 22.61 0 0 0 6.63 15.994 22.65 22.65 0 0 0 16.01 6.624h22.771V86.636a22.61 22.61 0 0 0-6.63-15.997 22.66 22.66 0 0 0-16.01-6.624h-22.771v14.956z" class="B L"/><g clip-path="url(#N)"><path d="M1370.793 64.014l50.676 43.315h-50.676V64.014z" class="B E"/><path d="M1368.995 66.208l3.585-4.396 45.412 37.036-3.585 4.396z" class="J"/><g class="B"><g class="H"><path d="M1397.283 104.039h-5.676v-9.54a2.84 2.84 0 0 1 2.838-2.836 2.84 2.84 0 0 1 2.838 2.836v9.54zm-11.353.42h-5.676V85.638a2.83 2.83 0 0 1 .832-2.005c.531-.53 1.254-.831 2.007-.831s1.476.301 2.007.831a2.83 2.83 0 0 1 .832 2.005v18.821z" class="C"/></g><g class="E"><path d="M1416.204 85.992V80.32h-8.518c-.752 0-1.473.298-2.004.831a2.82 2.82 0 0 0-.832 2.002v.006a2.83 2.83 0 0 0 .832 2.005c.531.53 1.252.828 2.004.828h8.518zm0-11.343v-5.672h-17.029c-.752 0-1.476.301-2.007.831a2.83 2.83 0 0 0-.832 2.005c0 .751.298 1.475.832 2.005a2.85 2.85 0 0 0 2.007.831h17.029z" class="I"/></g></g></g><path d="M1370.78 101.589l13.601-9.903c7.512-5.47 8.361-16.35 1.788-22.918l-4.758-4.754h-21.263l-4.758 4.754c-6.573 6.567-5.724 17.447 1.788 22.918l13.601 9.903z" class="B J"/><g clip-path="url(#O)"><path d="M1370.78 102.986h-21.458V62.293h21.458z" class="E"/><path d="M1367.953 59.918h5.676v49.462h-5.676z" class="Z"/><g class="C E"><path d="M1390.918,84.733c.924,0,1.833-.45,2.376-1.279.861-1.311.495-3.068-.817-3.927l-11.538-7.562c-1.312-.864-3.071-.491-3.928.814-.861,1.311-.495,3.068.817,3.927l11.538,7.562c.48.316,1.02.465,1.552.465Z"/></g><g class="C H"><use href="#i"/></g><path d="M1390.918,97.664c.924,0,1.833-.45,2.376-1.279.861-1.311.495-3.068-.817-3.927l-11.538-7.562c-1.312-.864-3.071-.491-3.928.814-.861,1.311-.495,3.068.817,3.927l11.538,7.562c.48.316,1.02.465,1.552.465Z" class="C E"/><g class="C H"><path d="M1350.669 97.664a2.82 2.82 0 0 0 1.552-.465l11.534-7.562c1.312-.858 1.678-2.616.817-3.927a2.83 2.83 0 0 0-3.928-.814l-11.534 7.562c-1.312.858-1.678 2.616-.817 3.927.543.829 1.452 1.279 2.376 1.279z"/></g></g><path d="M1347.735 126.418l46.117-.503" class="P Q U V W c"/><rect x="160.685" y="48.583" width="108.764" height="29.826" rx="14.913" opacity=".3" class="M"/><path d="M189.805 44.065h58.117v20.079h-58.117z" fill="#fff"/><path d="M151.541-2.783c.096-.036.101-.028.198-.062.21-.054.338-.031.57-.035.731.036 1.445.462 1.958 1.145.175.095.259.242.346.389l.131.228 32.538 56.356-5.083-.017-31.258-54.142-.131-.228c-.128-.221-.259-.449-.296-.713-.272-.887-.188-1.762.286-2.363.141-.168.207-.261.378-.37l.178-.101c.094-.043.099-.036.185-.085z" fill="#e9c242"/><path d="M198.749 2.188c-10.681-18.499-34.331-24.836-52.828-14.155s-24.835 34.328-14.154 52.827l66.982-38.672z" fill="#b74f25"/><g fill="#6791ea"><path d="M178.518 37.911c.285.019.367.057.518.12.563.227.948.803.961 1.423v2.567H178.1v-2.213h-3.161v2.213h-1.897v-2.567c.025-.822.72-1.524 1.543-1.543h3.932z"/><path d="M179.557 41.449c-.647.144-1.14.695-1.14 1.384v1.222c0 .466-.185.914-.517 1.245a1.74 1.74 0 0 1-1.242.514h-6.617l.157.633-2.415 1.378c-1.246.715-2.011 2.036-2.011 3.465v1.606a2.4 2.4 0 0 0 2.402 2.403h9.37c.898 0 1.764-.361 2.408-.999.632-.638.993-1.505.993-2.402v-8.675c0-.857-.593-1.572-1.388-1.772z"/></g><g fill="#4a7be4"><path d="M177.901 45.299c.332-.33.517-.779.517-1.245v-1.222c0-.689.493-1.24 1.14-1.384-.143-.036-.291-.061-.446-.061h-7.593c-.626 0-1.207.285-1.593.777a2.01 2.01 0 0 0-.367 1.726l.482 1.921h6.617a1.74 1.74 0 0 0 1.242-.514zm-3.278 5.17a1.03 1.03 0 0 0-1.024-1.024h-5.532a1.03 1.03 0 0 0-1.03 1.024v2.061a1.03 1.03 0 0 0 1.03 1.025h5.532a1.03 1.03 0 0 0 1.024-1.025v-2.061z"/></g><g fill="#d3526d"><path d="M156.956 58.091l2.45 2.45c1.706 1.706 4.157 2.274 6.371 1.643.72-1.912.709-4.037-.063-5.933-.029.419-.184.832-.503 1.152a1.81 1.81 0 0 1-2.555 0l-2.556-2.555a1.81 1.81 0 0 1 0-2.556c.32-.319.732-.474 1.151-.504-1.898-.772-4.024-.781-5.938-.06a6.47 6.47 0 0 0 1.642 6.362zm6.978 6.978v.001-.001h0zm-7.306-.326l-3.679-3.679c-1.637-1.637-2.217-4.04-1.542-6.233-2.096 3.157-1.754 7.455 1.029 10.239 2.77 2.77 7.04 3.12 10.193 1.057-2.095.709-4.419.198-6.001-1.384z"/></g><path d="M160.101 54.849l2.556 2.555a1.81 1.81 0 0 0 2.555 0c.32-.32.474-.733.503-1.152-.397-.975-.99-1.889-1.781-2.68s-1.706-1.386-2.682-1.782c-.418.03-.831.185-1.151.504a1.81 1.81 0 0 0 0 2.556z" fill="#b53655"/><path d="M162.999 66.005h0l.935-.935c-.405.405-.844.755-1.305 1.057l.37-.122z" fill="#b99ecb" fill-opacity=".359"/><path d="M165.778 62.185c-2.214.632-4.666.063-6.371-1.643l-2.45-2.45a6.47 6.47 0 0 1-1.642-6.362c-1.048.396-2.035.998-2.878 1.842a8.18 8.18 0 0 0-1.029 1.259c-.675 2.194-.095 4.597 1.542 6.233l3.679 3.679c1.581 1.582 3.906 2.093 6.001 1.384.461-.302.9-.652 1.305-1.057h0c.845-.846 1.448-1.835 1.843-2.885z" fill="#b53655"/><path d="M203.628 50.799h6.484v5.764h-6.484z" fill="#e68436"/><path d="M196.87,42.534c-1.724,0-3.122,1.4-3.122,3.123v9.05c0,1.723,1.398,3.123,3.122,3.123h6.244c1.723,0,3.122-1.4,3.122-3.123v-9.05c0-1.723-1.398-3.123-3.122-3.123h-6.244Z" class="R"/><g class="N"><path d="M206.247 54.715c0-1.189-.468-2.327-1.309-3.161a4.48 4.48 0 0 0-3.167-1.315H191.39v4.855a3.05 3.05 0 0 0 3.047 3.048h11.811v-3.427z"/><path d="M197.387 41.382h-2.042a3.97 3.97 0 0 0-3.964 3.961v9.948h6.006V41.382z"/></g><path d="M200.208 48.975c1.558 0 2.822 1.263 2.822 2.822a2.82 2.82 0 1 1-5.644 0c0-1.559 1.264-2.822 2.822-2.822z" class="R"/><path d="M200.176 45.414a.42.42 0 0 0-.422.418v.84a.42.42 0 0 0 .422.423h2.757a.42.42 0 0 0 .422-.423v-.84a.42.42 0 0 0-.422-.418h-2.757z" class="N"/><g fill="#e68436"><path d="M242.282 41.629c-.465-.828-1.276-1.397-2.213-1.554a3.11 3.11 0 0 0-2.594.755q0 0-.002.001c-.947.844-1.118 2.259-.404 3.306l9.132 13.378 8.036.003h0c-.001-.752-.298-1.469-.829-2.001a2.84 2.84 0 0 0-2.001-.83l-1.802.002-7.324-13.06z"/><path d="M226.839 46.759c-1.38.796-1.85 2.559-1.055 3.937s2.557 1.851 3.937 1.055l11.113-6.416c1.38-.796 1.85-2.559 1.055-3.937s-2.557-1.851-3.937-1.055l-11.113 6.416z"/></g><g class="R"><path d="M234.371 52.766a1.19 1.19 0 0 0-1.187 1.187v2.375c0 .656.532 1.187 1.187 1.187h23.802a1.19 1.19 0 0 0 1.187-1.187v-2.375a1.19 1.19 0 0 0-1.187-1.187h-23.802z"/><path d="M259.344 49.885h0a2.88 2.88 0 0 0-2.881 2.882v3.602h2.881v-6.484z"/></g><path d="M234.691 57.52l-1.898-14.231-10.115 4.111v.059l-.02-.058-9.69.301a5.78 5.78 0 0 0-5.592 5.773v.188c0 1.022.407 2.003 1.131 2.726a3.86 3.86 0 0 0 2.729 1.131h23.454z" fill="#b74f25"/><path d="M199.924 33.169h11.38v2.529h-11.38z" fill="#fff"/><g class="R"><path d="M212.253,34.117c0-1.221-.992-2.213-2.213-2.213s-2.213.992-2.213,2.213v3.477h4.426v-3.477Z"/><path d="M210.03 34.437l-2.213 3.161 6.354 5.842-3.225 8.282c-.234.595-.152 1.264.203 1.789a1.94 1.94 0 0 0 1.593.841h.007c.582 0 1.113-.354 1.334-.898l4.116-10.116a1.56 1.56 0 0 0-.385-1.732l-7.783-7.169z"/></g><g opacity=".35" class="M"><circle cx="1134.22" cy="130.456" r="2.829" transform="matrix(.878117 -.478447 .478447 .878117 75.827 558.565)" class="G"/><circle cx="1126.477" cy="138.432" r="2.829" transform="matrix(.878117 -.478447 .478447 .878117 71.067 555.833)" class="G"/><circle cx="1122.78" cy="130.21" r="2.829" transform="matrix(.878117 -.478447 .478447 .878117 74.55 553.062)" class="G"/></g><path d="M657.428 104.404h60.971v23.814h-60.971z" fill="#f3b3b5"/><path d="M706.639 103.267a4.61 4.61 0 0 1 4.608-4.608h21.444a4.61 4.61 0 0 1 4.608 4.608 4.61 4.61 0 0 1-4.608 4.607h-21.444a4.61 4.61 0 0 1-4.608-4.607z" opacity=".3" class="M"/><g fill="#e39640"><path d="M712.746 101.973a3.68 3.68 0 0 0 3.422 2.315h10.564c1.508 0 2.86-.915 3.422-2.315l3.858-9.649h-25.126l3.859 9.649z"/><path d="M721.362 84.845c-3.532.066-6.725 3.075-6.795 6.796v2.626h2.994c0-2.243-.032-4.762 1.933-5.905 2.31-1.346 5.825.365 5.842 3.368v2.537h2.994c0-1.675.135-3.35-.404-4.864-.964-2.692-3.505-4.577-6.563-4.559z"/></g><path d="M679.344 94.815h7.737v7.892h-7.737z" fill="#3a7fa2"/><path d="M682.281 81.845c0-.91.365-1.783 1.009-2.427a3.45 3.45 0 0 1 2.433-1.009h0c.916 0 1.789.365 2.432 1.009s1.009 1.517 1.009 2.427v12.967h-6.883V81.845z" class="N"/><g fill="#3a7fa2"><path d="M688.15 100.454h2.286a2.54 2.54 0 0 1 2.524 2.252l1.814 15.965h-4.554l-2.07-18.217z"/><path d="M690.431 116.858h6.831v1.822h-6.831z"/></g><g class="a"><path d="M668.104 105.019a1.94 1.94 0 0 1-1.566-.802 1.93 1.93 0 0 1-.274-1.73l3.689-11.468c.301-.911 1.147-1.521 2.113-1.512h.046a2.19 2.19 0 0 1 1.776.929c.401.574.51 1.312.274 1.977l-2.797 8.052h8.653v4.554h-11.914z"/><path d="M673.483 89.003a3.12 3.12 0 0 1 3.117-3.117h13.226a3.12 3.12 0 0 1 3.117 3.117v6.234a3.12 3.12 0 0 1-3.117 3.117H676.6a3.12 3.12 0 0 1-3.117-3.117v-6.234z"/></g><g class="N"><path d="M686.771 91.642a.54.54 0 0 1 .538-.545h1.083a.54.54 0 0 1 .545.545v3.553a.54.54 0 0 1-.545.545h-1.083a.54.54 0 0 1-.538-.545v-3.553zm-9.9 0a.54.54 0 0 1 .538-.545h1.083a.54.54 0 0 1 .544.545v3.553a.54.54 0 0 1-.544.545h-1.083a.54.54 0 0 1-.538-.545v-3.553z"/></g><path d="M693.412 89.118a3.13 3.13 0 0 0-3.128 3.128 3.13 3.13 0 0 0 3.128 3.128 3.13 3.13 0 0 0 3.128-3.128 3.13 3.13 0 0 0-3.128-3.128z" class="a"/><g class="N"><path d="M677.033 83.647h14.356c1.47 0 2.665 1.188 2.665 2.664v2.801h-14.066c-.789 0-1.536-.307-2.093-.868-.55-.553-.862-1.305-.862-2.084v-2.513z"/><path d="M674.847 83.646h6.509v2.692h-6.509z"/><path d="M677.023 83.647h-2.288a2.67 2.67 0 0 0-2.664 2.664v2.801h1.999a2.95 2.95 0 0 0 2.952-2.951v-2.513z"/></g><path d="M677.419 100.462h11.591l1.322 17.355a2.07 2.07 0 0 1-.544 1.56c-.391.424-.942.665-1.518.665h-10.11c-.576 0-1.126-.241-1.518-.665a2.06 2.06 0 0 1-.544-1.56l1.322-17.355z" fill="#ce6062"/><g class="a"><path d="M679.343 100.46a3.87 3.87 0 0 0 3.869 3.869 3.87 3.87 0 0 0 3.868-3.869h-7.737zm-2.42 15.745c.961-.961 2.513-.96 3.471-.002l.394.394c.958.959.96 2.51-.001 3.472l-5.621 5.62 6.648 6.728-3.553 3.494-7.37-7.37c-.836-.835-1.307-1.969-1.305-3.154a4.45 4.45 0 0 1 1.305-3.151l6.032-6.032z"/><path d="M678.893 131.645l3.079.826-2.066 7.712-.431-.115c-.704-.189-1.297-.649-1.665-1.283a2.74 2.74 0 0 1-.273-2.076l1.356-5.063zm6.695-15.44c.961-.961 2.513-.96 3.472-.002l.394.394c.959.959.96 2.51-.001 3.472l-5.621 5.62 6.648 6.728-3.553 3.494-7.37-7.37a4.44 4.44 0 0 1-1.304-3.154c-.002-1.181.467-2.314 1.304-3.151l6.032-6.032z"/><path d="M687.555 131.645l3.079.826-2.066 7.712-.431-.115c-.704-.189-1.297-.649-1.665-1.283a2.74 2.74 0 0 1-.273-2.076l1.357-5.063z"/></g><path d="M103.085 128.525h12.473l3.38 30.845a2.89 2.89 0 0 1-2.874 3.203h-13.548a2.89 2.89 0 0 1-2.873-3.208l3.441-30.839z" fill="#6b4c46"/><g clip-path="url(#P)" class="B"><path d="M109.282 150.822l10.197-7.425c5.632-4.101 6.269-12.258 1.341-17.181l-3.567-3.564h-15.941l-3.567 3.564c-4.928 4.924-4.291 13.081 1.341 17.181l10.197 7.425z" fill="#594237"/></g><path d="M109.291 127.404a16.63 16.63 0 0 1-4.875 11.761c-3.122 3.12-7.357 4.871-11.773 4.871H75.898V133.04c0-4.412 1.753-8.644 4.875-11.763a16.66 16.66 0 0 1 11.773-4.871h16.745v10.998z" fill="#abc02e" class="B"/><g clip-path="url(#Q)"><path d="M109.291 116.406l-37.264 31.851h37.264v-31.851z" class="B K"/><path d="M74.588 142.036l33.375-27.257 2.638 3.23-33.375 27.257z" class="b"/><g class="B"><g class="S"><path d="M89.812 145.838h4.174v-7.015c0-1.151-.935-2.085-2.087-2.085s-2.087.934-2.087 2.085v7.015zm8.348.309h4.174v-13.842c0-1.151-.933-2.083-2.085-2.083h-.004c-1.152 0-2.085.932-2.085 2.083v13.842z" class="C"/></g><g class="K"><path d="M75.898 132.346v-3.95h6.372a1.98 1.98 0 0 1 1.398.58c.369.369.578.872.578 1.395h0a1.98 1.98 0 0 1-1.976 1.975h-6.372zm0-8.12v-4.171h12.525c1.152 0 2.085.932 2.085 2.083v.004c0 1.151-.933 2.083-2.085 2.083H75.898z" class="I"/></g></g></g><path d="M109.291 127.404a16.63 16.63 0 0 0 4.875 11.761c3.122 3.12 7.357 4.871 11.773 4.871h16.745V133.04c0-4.412-1.753-8.644-4.875-11.763a16.66 16.66 0 0 0-11.773-4.871h-16.745v10.998z" fill="#abc02e" class="B"/><g clip-path="url(#R)"><path d="M109.291 116.406l37.265 31.851h-37.265v-31.851z" class="B K"/><path d="M107.973 118.022l2.636-3.232 33.394 27.234-2.636 3.232z" class="b"/><g class="B"><g class="S"><path d="M128.771 145.838h-4.174v-7.015c0-1.151.935-2.085 2.087-2.085s2.087.934 2.087 2.085v7.015zm-8.349.309h-4.174v-13.84a2.08 2.08 0 0 1 .612-1.474 2.09 2.09 0 0 1 1.476-.611c.553 0 1.085.221 1.476.611s.612.922.612 1.474v13.84z" class="C"/></g><g class="K"><path d="M142.684 132.567v-4.171h-6.263c-.553 0-1.083.219-1.473.611a2.09 2.09 0 0 0-.612 1.472v.004a2.08 2.08 0 0 0 .612 1.474c.39.39.92.609 1.473.609h6.263zm0-8.341v-4.171h-12.522c-.553 0-1.085.221-1.476.611s-.612.922-.612 1.474.219 1.084.612 1.474a2.08 2.08 0 0 0 1.476.611h12.522z" class="I"/></g></g></g><path d="M109.282 144.037l10.001-7.282a11.12 11.12 0 0 0 1.315-16.852l-3.499-3.496h-15.636l-3.499 3.496a11.12 11.12 0 0 0 1.315 16.852l10.001 7.282z" class="B b"/><g clip-path="url(#S)"><path d="M109.282 145.064H93.503v-29.923h15.779z" class="K"/><path d="M107.203 113.394h4.174v36.372h-4.174z" fill="#d6e23d"/><g class="C K"><use href="#j"/></g><g class="C S"><use href="#k"/></g><path d="M124.09 141.151c.679 0 1.348-.331 1.747-.941.633-.964.364-2.256-.601-2.888l-8.484-5.561c-.965-.635-2.258-.361-2.889.599s-.364 2.256.601 2.888l8.484 5.561a2.07 2.07 0 0 0 1.141.342z" class="C K"/><g class="C S"><path d="M94.493 141.151a2.07 2.07 0 0 0 1.141-.342l8.481-5.561c.965-.631 1.234-1.924.601-2.888s-1.916-1.235-2.889-.599l-8.481 5.561c-.965.631-1.234 1.924-.601 2.888.399.61 1.068.941 1.747.941z"/></g></g><g opacity=".35" class="M"><circle cx="683.165" cy="42.709" r="2.832" transform="matrix(.169659 -.985503 .985503 .169659 525.176 708.726)" class="G"/><circle cx="672.145" cy="44.16" r="2.832" transform="matrix(.169659 -.985503 .985503 .169659 514.594 699.07)" class="G"/><circle cx="674.348" cy="35.418" r="2.832" transform="matrix(.169659 -.985503 .985503 .169659 525.039 693.981)" class="G"/><circle cx="649.172" cy="41.374" r="2.832" transform="matrix(.169659 -.985503 .985503 .169659 498.265 674.117)" class="G"/><circle cx="657.078" cy="58.773" r="2.832" transform="matrix(.169659 -.985503 .985503 .169659 487.683 696.355)" class="G"/></g><g opacity=".35" class="M"><circle cx="76.093" cy="63.723" r="2.832" transform="matrix(.631096 -.775705 .775705 .631096 -21.359 82.534)" class="G"/><circle cx="65.777" cy="59.584" r="2.832" transform="matrix(.631096 -.775705 .775705 .631096 -21.954 73.004)" class="G"/><circle cx="71.984" cy="53.045" r="2.832" transform="matrix(.631096 -.775705 .775705 .631096 -14.592 75.406)" class="G"/><circle cx="47.122" cy="45.892" r="2.832" transform="matrix(.631096 -.775705 .775705 .631096 -18.215 53.482)" class="G"/><circle cx="45.481" cy="64.931" r="2.832" transform="matrix(.631096 -.775705 .775705 .631096 -33.589 59.233)" class="G"/></g><g class="B"><g fill="#ff9c0d"><path d="M1313.336 149.262a8.75 8.75 0 0 0-8.75-8.75h-5.62a8.75 8.75 0 0 0-8.75 8.75h0a8.75 8.75 0 0 0 8.75 8.751h5.62a8.75 8.75 0 0 0 8.75-8.75h0z"/><path d="M1313.304 146.923c-.005-1.969-1.603-3.563-3.572-3.563h-10.921c-.949 0-1.859.378-2.529 1.049a3.57 3.57 0 0 0-1.043 2.532l.023 8.855c.005 1.969 1.603 3.563 3.572 3.563h10.921c.949 0 1.859-.378 2.529-1.049s1.045-1.583 1.043-2.532l-.023-8.855z"/></g><g fill="#071c1c"><path d="M1301.215 140.771h-11.985v13.607c0 1.321.525 2.588 1.459 3.523a4.98 4.98 0 0 0 3.523 1.459h0v-2.302c.45 1.374 1.732 2.302 3.177 2.302h3.841l-.015-18.589z"/><path d="M1301.132 159.36h-4.065c-.765 0-1.514-.212-2.165-.613l-4.847-2.982h0a16.22 16.22 0 0 1 16.216-16.217h4.817l.964 3.532-10.828 8.028-.092 8.251z"/></g><path d="M1312.052 140.562h-2.569a4.85 4.85 0 0 0-3.375 1.366l-16.171 15.653h0a4.53 4.53 0 0 1-4.686-4.467l-.02-15.954a5.79 5.79 0 0 1 5.792-5.8q0 0 .002 0c1.562 0 3.084.489 4.354 1.399l.694.497a12.56 12.56 0 0 0 5.915 2.272l6.185.695c2.209.248 3.879 2.116 3.879 4.339h0z" fill="#c9460f"/></g><g clip-path="url(#T)" fill="#aa390d" class="B"><use href="#l"/><path d="M1301.565 141.046c-.131-.131-.308-.204-.493-.204s-.361.073-.492.204h0a.7.7 0 0 0 0 .984l6.4 6.4.985-.985-6.4-6.4zm2.986-2.289a.7.7 0 0 0-.463-.265c-.183-.024-.368.027-.514.14h0a.7.7 0 0 0-.125.976l5.533 7.162 1.102-.851-5.533-7.162zm4.34-.525a.7.7 0 0 0-.325-.423c-.159-.092-.349-.117-.528-.069h0a.7.7 0 0 0-.423.324c-.092.16-.117.35-.069.528l.876 3.268 1.345-.36-.876-3.268z"/></g><path d="M1310.084 149.232v-8.67h2.248a2.13 2.13 0 0 1 2.128 2.128v4.413c0 .565-.224 1.106-.623 1.505a2.13 2.13 0 0 1-1.505.623h-2.248z" fill="#071c1c" class="B"/></g></svg>