<svg xmlns="http://www.w3.org/2000/svg" width="1500" height="145" xmlns:v="https://vecta.io/nano"><style><![CDATA[.B{fill-rule:evenodd}.C{fill:none}.D{fill:#408f43}.E{clip-rule:evenodd}.F{fill:#357963}.G{fill:#51b133}.H{fill:#4aa22e}.I{stroke-linejoin:round}.J{stroke-linecap:round}.K{fill:#439657}.L{fill:#66dd48}.M{opacity:.5}.N{fill:#50b06d}.O{fill:#b38150}.P{fill:#6a6863}.Q{opacity:.25}.R{fill:#5ebe3e}.S{opacity:.188}.T{stroke:#fff}.U{fill:#55529c}.V{fill:#74dddc}.W{stroke:#50b06d}.X{fill:#49468d}.Y{fill:#9bdceb}.Z{stroke-width:10}.a{fill:#fcf4c7}.b{opacity:.412}.c{stroke:#4a488a}.d{stroke-width:3.59}.e{fill:#d8f2fb}.f{stroke-dasharray:0 10}.g{stroke-width:4.523}.h{stroke-miterlimit:10}.i{stroke-width:7.179}]]></style><defs><clipPath id="A"><path d="M0 0h1500v145H0z" class="C"/></clipPath><clipPath id="B"><path d="M629.495 55.711h13.107l3.552 32.411a3.04 3.04 0 0 1-3.02 3.366h-14.236c-1.811 0-3.22-1.573-3.019-3.371l3.616-32.406z" class="C"/></clipPath><clipPath id="C"><path d="M636.017 54.681a17.81 17.81 0 0 1-5.223 12.6c-3.345 3.342-7.882 5.219-12.613 5.219h-17.939V60.72a17.81 17.81 0 0 1 5.223-12.602c3.345-3.34 7.882-5.219 12.613-5.219h17.939v11.782z" class="C E"/></clipPath><clipPath id="D"><path d="M636.017 54.681a17.81 17.81 0 0 0 5.223 12.6c3.345 3.342 7.882 5.219 12.613 5.219h17.939V60.72a17.81 17.81 0 0 0-5.223-12.602c-3.345-3.34-7.882-5.219-12.613-5.219h-17.939v11.782z" class="C E"/></clipPath><clipPath id="E"><path d="M636.007 72.499l10.715-7.802c5.918-4.309 6.587-12.88 1.409-18.054l-3.748-3.745h-16.751l-3.748 3.745c-5.178 5.174-4.509 13.745 1.409 18.054l10.715 7.802z" class="C E"/></clipPath><clipPath id="F"><path d="M488.68-10.02h17.836a9.17 9.17 0 0 1 6.486 2.687h0c1.72 1.72 4.053 2.687 6.486 2.687h9.109a9.17 9.17 0 0 1 6.486 2.687l1.283 1.283c1.72 1.72 4.053 2.687 6.486 2.687h13.483l7.734-45.408-22.753-6.983-59.339 15.919 6.701 24.443z" class="C E"/></clipPath><clipPath id="G"><path d="M495.758-3.729l44.997-27.516 8.441-4.018c1.628-.775 3.538-.66 5.062.305s2.443 2.642 2.439 4.444l-.048 19.375a4.48 4.48 0 0 1-2.143 3.813L513.97 17.461c-2.112 1.291-4.871.626-6.163-1.486L495.757-3.73z" class="C E"/></clipPath><clipPath id="H"><rect x="490.555" y="-34.461" width="43.953" height="20.837" rx="2.449" transform="matrix(.853132 -.521695 .521695 .853132 87.815 263.851)" class="C"/></clipPath><clipPath id="I"><path d="M488.68-10.02h17.836a9.17 9.17 0 0 1 6.486 2.687h0c1.72 1.72 4.053 2.687 6.486 2.687h9.109a9.17 9.17 0 0 1 6.486 2.687l1.283 1.283c1.72 1.72 4.053 2.687 6.486 2.687h13.483l7.734 20.512-22.753-6.983-59.339 15.919 6.701-41.477z" class="C E"/></clipPath><clipPath id="J"><path d="M495.758-3.729l44.997-27.516 8.441-4.018c1.628-.775 3.538-.66 5.062.305s2.443 2.642 2.439 4.444l-.048 19.375a4.48 4.48 0 0 1-2.143 3.813L513.97 17.461c-2.112 1.291-4.871.626-6.163-1.486L495.757-3.73z" class="C E"/></clipPath><clipPath id="K"><rect x="490.555" y="-34.461" width="43.953" height="20.837" rx="2.449" transform="matrix(.853132 -.521695 .521695 .853132 87.815 263.851)" class="C"/></clipPath><clipPath id="L"><path d="M64.58 121.924h13.107l3.552 32.411a3.04 3.04 0 0 1-3.02 3.366H63.983c-1.811 0-3.22-1.573-3.019-3.371l3.616-32.406z" class="C"/></clipPath><clipPath id="M"><path d="M71.101 120.894a17.81 17.81 0 0 1-5.223 12.6c-3.345 3.342-7.882 5.219-12.613 5.219H35.326v-11.78a17.81 17.81 0 0 1 5.223-12.602c3.345-3.34 7.882-5.219 12.613-5.219h17.939v11.782z" class="C E"/></clipPath><clipPath id="N"><path d="M71.101 120.894a17.81 17.81 0 0 0 5.223 12.6c3.345 3.342 7.882 5.219 12.613 5.219h17.939v-11.78a17.81 17.81 0 0 0-5.223-12.602c-3.345-3.34-7.882-5.219-12.613-5.219H71.101v11.782z" class="C E"/></clipPath><clipPath id="O"><path d="M71.091 138.713l10.715-7.802c5.918-4.309 6.587-12.88 1.409-18.054l-3.748-3.745H62.716l-3.748 3.745c-5.178 5.174-4.509 13.745 1.409 18.054l10.715 7.802z" class="C E"/></clipPath><clipPath id="P"><path d="M217.745 70.681h13.107l3.552 32.411a3.04 3.04 0 0 1-3.02 3.366h-14.236c-1.811 0-3.22-1.573-3.019-3.371l3.616-32.406z" class="C"/></clipPath><clipPath id="Q"><path d="M224.266 69.651a17.81 17.81 0 0 1-5.223 12.6c-3.345 3.342-7.882 5.219-12.613 5.219h-17.939V75.69a17.81 17.81 0 0 1 5.223-12.602c3.345-3.34 7.882-5.219 12.613-5.219h17.939v11.782z" class="C E"/></clipPath><clipPath id="R"><path d="M224.266 69.651a17.81 17.81 0 0 0 5.223 12.6c3.345 3.342 7.882 5.219 12.613 5.219h17.939V75.69a17.81 17.81 0 0 0-5.223-12.602c-3.345-3.34-7.882-5.219-12.613-5.219h-17.939v11.782z" class="C E"/></clipPath><clipPath id="S"><path d="M224.256 87.47l10.715-7.802c5.918-4.309 6.587-12.88 1.409-18.054l-3.748-3.745h-16.751l-3.748 3.745c-5.178 5.174-4.509 13.745 1.409 18.054l10.715 7.802z" class="C E"/></clipPath><clipPath id="T"><path d="M182.299 131.658h13.107l3.552 32.411a3.04 3.04 0 0 1-3.02 3.366h-14.236c-1.811 0-3.22-1.573-3.019-3.371l3.616-32.406z" class="C"/></clipPath><clipPath id="U"><path d="M188.82 130.628a17.81 17.81 0 0 1-5.223 12.6c-3.345 3.342-7.882 5.219-12.613 5.219h-17.939v-11.78a17.81 17.81 0 0 1 5.223-12.602c3.345-3.34 7.882-5.219 12.613-5.219h17.939v11.782z" class="C E"/></clipPath><clipPath id="V"><path d="M188.82 130.628a17.81 17.81 0 0 0 5.223 12.6c3.345 3.342 7.882 5.219 12.613 5.219h17.939v-11.78a17.81 17.81 0 0 0-5.223-12.602c-3.345-3.34-7.882-5.219-12.613-5.219H188.82v11.782z" class="C E"/></clipPath><clipPath id="W"><path d="M188.81 148.446l10.715-7.802c5.918-4.309 6.587-12.88 1.409-18.054l-3.748-3.745h-16.751l-3.748 3.745c-5.178 5.174-4.509 13.745 1.409 18.054l10.715 7.802z" class="C E"/></clipPath><clipPath id="X"><path d="M312.284,3.252c-21.708,0-39.305,13.553-39.305,30.273s17.598,30.273,39.305,30.273,39.305-13.554,39.305-30.273-17.598-30.273-39.305-30.273Z" class="C E"/></clipPath><clipPath id="Y"><path d="M298.811 29.758h28.384v30.608h-28.384z" class="C"/></clipPath><clipPath id="Z"><path d="M298.802 11.13v47.329l28.403-.526V11.13h-28.403z" class="C E"/></clipPath><clipPath id="a"><path d="M312.284-21.425c-20.418,0-36.97,11.789-36.97,26.333s16.552,26.333,36.969,26.333,36.97-11.789,36.97-26.333-16.552-26.333-36.969-26.333Z" class="C E"/></clipPath><clipPath id="b"><path d="M1091.851 124.545h-13.107l-3.552 32.411a3.04 3.04 0 0 0 3.02 3.366h14.236c1.811 0 3.22-1.573 3.019-3.371l-3.616-32.406z" class="C"/></clipPath><clipPath id="c"><path d="M1085.33 123.515a17.81 17.81 0 0 0 5.223 12.6c3.345 3.342 7.882 5.219 12.613 5.219h17.939v-11.78a17.81 17.81 0 0 0-5.223-12.602c-3.345-3.34-7.882-5.219-12.613-5.219h-17.939v11.782z" class="C E"/></clipPath><clipPath id="d"><path d="M1085.33 123.515a17.81 17.81 0 0 1-5.223 12.6c-3.345 3.342-7.882 5.219-12.613 5.219h-17.939v-11.78a17.81 17.81 0 0 1 5.223-12.602c3.345-3.34 7.882-5.219 12.613-5.219h17.939v11.782z" class="C E"/></clipPath><clipPath id="e"><path d="M1085.34 141.334l-10.715-7.802c-5.918-4.309-6.587-12.88-1.409-18.054l3.748-3.745h16.751l3.748 3.745c5.178 5.174 4.509 13.745-1.409 18.054l-10.715 7.802z" class="C E"/></clipPath><clipPath id="f"><path d="M1150.221 67.239h-13.107l-3.552 32.411a3.04 3.04 0 0 0 3.02 3.366h14.236c1.811 0 3.22-1.573 3.019-3.371l-3.616-32.406z" class="C"/></clipPath><clipPath id="g"><path d="M1143.699 66.209a17.81 17.81 0 0 0 5.223 12.6c3.345 3.342 7.882 5.219 12.613 5.219h17.939v-11.78a17.81 17.81 0 0 0-5.223-12.602c-3.345-3.34-7.882-5.219-12.613-5.219h-17.939v11.782z" class="C E"/></clipPath><clipPath id="h"><path d="M1143.699 66.209a17.81 17.81 0 0 1-5.223 12.6c-3.345 3.342-7.882 5.219-12.613 5.219h-17.939v-11.78a17.81 17.81 0 0 1 5.223-12.602c3.345-3.34 7.882-5.219 12.613-5.219h17.939v11.782z" class="C E"/></clipPath><clipPath id="i"><path d="M1143.709 84.028l-10.715-7.802c-5.918-4.309-6.587-12.88-1.409-18.054l3.748-3.745h16.751l3.748 3.745c5.178 5.174 4.509 13.745-1.409 18.054l-10.715 7.802z" class="C E"/></clipPath><clipPath id="j"><path d="M1172.563 116.917h-13.107l-3.552 32.411a3.04 3.04 0 0 0 3.02 3.366h14.236c1.811 0 3.22-1.573 3.019-3.371l-3.616-32.406z" class="C"/></clipPath><clipPath id="k"><path d="M1166.042 115.887a17.81 17.81 0 0 0 5.223 12.6c3.345 3.342 7.882 5.219 12.613 5.219h17.939v-11.78a17.81 17.81 0 0 0-5.223-12.602c-3.345-3.34-7.882-5.219-12.613-5.219h-17.939v11.782z" class="C E"/></clipPath><clipPath id="l"><path d="M1166.042 115.887a17.81 17.81 0 0 1-5.223 12.6c-3.345 3.342-7.882 5.219-12.613 5.219h-17.939v-11.78a17.81 17.81 0 0 1 5.223-12.602c3.345-3.34 7.882-5.219 12.613-5.219h17.939v11.782z" class="C E"/></clipPath><clipPath id="m"><path d="M1166.052 133.705l-10.715-7.802c-5.918-4.309-6.587-12.88-1.409-18.054l3.748-3.745h16.751l3.748 3.745c5.178 5.174 4.509 13.745-1.409 18.054l-10.715 7.802z" class="C E"/></clipPath><clipPath id="n"><path d="M1275.615,128.993c-20.418,0-36.97,11.789-36.97,26.333s16.552,26.333,36.969,26.333,36.97-11.789,36.97-26.333-16.552-26.333-36.969-26.333Z" class="C E"/></clipPath><path id="o" d="M606.891 117.108c0-.63.25-1.235.696-1.68s1.05-.696 1.68-.696h7.92c.63 0 1.235.25 1.68.696a2.38 2.38 0 0 1 .696 1.68c0 .63-.25 1.235-.696 1.68a2.38 2.38 0 0 1-1.68.696h-7.92c-.63 0-1.234-.25-1.68-.696s-.696-1.05-.696-1.68z"/><path id="p" d="M607.337 109.67c.619-.619 1.621-.619 2.24 0l2.048 2.048v-4.114c0-.875.708-1.584 1.584-1.584s1.584.709 1.584 1.584v4.115l2.067-2.067c.619-.619 1.621-.619 2.24 0s.619 1.621 0 2.24l-4.752 4.752a1.58 1.58 0 0 1-1.12.464c-.021 0-.024-.002-.027-.002-.414.002-.82-.153-1.129-.462l-4.734-4.734c-.619-.619-.619-1.622 0-2.24z"/><path id="q" d="M629.495 55.711h13.107l3.552 32.411a3.04 3.04 0 0 1-3.02 3.366h-14.236c-1.811 0-3.22-1.573-3.019-3.371l3.616-32.406z"/><path id="r" d="M636.007 79.14l10.715-7.802c5.918-4.309 6.587-12.88 1.409-18.054l-3.748-3.745h-16.751l-3.748 3.745c-5.178 5.174-4.509 13.745 1.409 18.054l10.715 7.802z"/><path id="s" d="M598.835 70.353l35.755-29.201 2.827 3.461-35.755 29.201z"/><path id="t" d="M615.148 74.43h4.472v-7.515c0-1.233-1.002-2.234-2.236-2.234s-2.236 1.001-2.236 2.234v7.515z"/><path id="u" d="M600.242 59.976v-4.231h6.826a2.12 2.12 0 0 1 1.498.621c.396.395.619.934.619 1.495h0c0 .563-.224 1.099-.619 1.497s-.937.619-1.498.619h-6.826z"/><path id="v" d="M600.242 51.276v-4.468h13.418c1.234 0 2.234.999 2.234 2.232v.004c0 1.233-.999 2.232-2.234 2.232h-13.418z"/><path id="w" d="M634.602 44.628l2.824-3.463 35.775 29.176-2.824 3.463z"/><path id="x" d="M656.885 74.43h-4.472v-7.515c0-1.233 1.002-2.234 2.236-2.234s2.236 1.001 2.236 2.234v7.515z"/><path id="y" d="M671.791 60.212v-4.468h-6.71a2.23 2.23 0 0 0-1.579.655c-.42.418-.655.985-.655 1.577v.004a2.23 2.23 0 0 0 2.234 2.231h6.71z"/><path id="z" d="M671.791 51.276v-4.468h-13.415a2.24 2.24 0 0 0-1.581.655 2.23 2.23 0 0 0-.655 1.579c0 .592.235 1.162.655 1.579a2.23 2.23 0 0 0 1.581.655h13.415z"/><path id="AA" d="M633.78 39.672h4.472v38.966h-4.472z"/><path id="AB" d="M651.871 59.221c.728 0 1.444-.355 1.872-1.008.678-1.033.39-2.417-.643-3.094l-9.089-5.957c-1.034-.681-2.419-.387-3.095.641-.678 1.033-.39 2.417.643 3.094l9.089 5.957a2.22 2.22 0 0 0 1.223.367z"/><path id="AC" d="M620.163 59.221a2.22 2.22 0 0 0 1.223-.367l9.086-5.957a2.23 2.23 0 1 0-2.452-3.735l-9.086 5.957a2.23 2.23 0 0 0-.643 3.094c.428.653 1.144 1.008 1.872 1.008z"/><path id="AD" d="M529.851 1.963l-12.864 7.866"/><path id="AE" d="M495.758-3.729l44.997-27.516 8.441-4.018c1.628-.775 3.538-.66 5.062.305s2.443 2.642 2.439 4.444l-.048 19.375a4.48 4.48 0 0 1-2.143 3.813L513.97 17.461c-2.112 1.291-4.871.626-6.163-1.486L495.757-3.73z"/><path id="AF" d="M493.201-7.912l44.997-27.516 11.405-1.904c2.29-.382 4.62.42 6.189 2.131s2.166 4.102 1.586 6.351l-2.979 11.553c-.842 3.265-2.922 6.075-5.8 7.835l-37.187 22.74c-2.112 1.291-4.871.627-6.163-1.486L493.2-7.913z"/><path id="AG" d="M566.314-19.075l-8.676 5.04c-.872.506-1.989.211-2.494-.66l-.12-.207c-.506-.871-1.623-1.167-2.494-.66l-2.334 1.356c-.872.506-1.168 1.623-.662 2.494l1.099 1.892c.506.871.209 1.988-.662 2.494l-.266.155c-.872.506-1.989.211-2.494-.66h0c-.506-.871-1.623-1.167-2.494-.66l-3.157 1.834c-.88.511-1.172 1.642-.65 2.514l3.546 5.925c.423.706 1.267 1.042 2.06.819l10.871-3.058c.22-.062.421-.161.604-.299l8.998-6.943c.531-.539 2.728-6.8 2.462-7.259"/><path id="AH" d="M493.946-6.693a5.1 5.1 0 0 1-.607-3.861c.317-1.317 1.144-2.453 2.3-3.16l37.064-22.665a12.14 12.14 0 0 1 7.742-1.7l10.952 1.279a5.59 5.59 0 0 1 4.587 7.502l-3.852 10.333a12.15 12.15 0 0 1-5.042 6.116L510.026 9.816a5.1 5.1 0 0 1-3.86.607c-1.317-.317-2.453-1.144-3.16-2.3l-9.06-14.817z"/><path id="AI" d="M498.928-8.544l33.598-20.545c1.077-.658 2.484-.319 3.143.758l7.207 11.785c.658 1.077.319 2.484-.758 3.143L508.52 7.142c-1.076.658-2.484.318-3.141-.757l-7.208-11.787c-.658-1.076-.318-2.484.757-3.141z"/><path id="AJ" d="M496.658-7.875l37.498-22.93 5.116 8.366L501.774.491z"/><path id="AK" d="M501.116-8.448l30.498-18.65 6.714 10.98-30.498 18.65z"/><path id="AL" d="M507.831 2.534l30.498-18.65 2.238 3.66-30.498 18.65z"/><path id="AM" d="M519.852 4.917c-.615 0-1.216-.31-1.56-.873l-24.3-39.738a1.83 1.83 0 0 1 .605-2.512 1.83 1.83 0 0 1 2.511.605l24.3 39.738a1.83 1.83 0 0 1-.605 2.512c-.297.181-.627.268-.951.268z"/><path id="AN" d="M73.81 92.573a2.03 2.03 0 0 0 2.031-2.029v-6.352a2.03 2.03 0 1 0-4.062 0v6.352a2.03 2.03 0 0 0 2.031 2.029z"/><path id="AO" d="M65.686 92.573a2.03 2.03 0 0 0 2.031-2.029v-4.236a2.03 2.03 0 1 0-4.062 0v4.236a2.03 2.03 0 0 0 2.031 2.029z"/><path id="AP" d="M71.091 145.353l10.715-7.802c5.918-4.309 6.587-12.88 1.409-18.054l-3.748-3.745H62.716l-3.748 3.745c-5.178 5.174-4.509 13.745 1.409 18.054l10.715 7.802z"/><path id="AQ" d="M71.101 109.112l-39.922 34.122h39.922v-34.122z"/><path id="AR" d="M59.176 140.974h4.472v-14.829c0-1.233-.999-2.232-2.234-2.232h-.005c-1.234 0-2.234.999-2.234 2.232v14.829z"/><path id="AS" d="M86.955 125.434c.728 0 1.444-.355 1.872-1.008.678-1.033.39-2.417-.643-3.094l-9.089-5.957c-1.034-.681-2.419-.387-3.095.641s-.39 2.417.643 3.094l9.089 5.957a2.22 2.22 0 0 0 1.223.367z"/><path id="AT" d="M188.82 130.628a17.81 17.81 0 0 1-5.223 12.6c-3.345 3.342-7.882 5.219-12.613 5.219h-17.939v-11.78a17.81 17.81 0 0 1 5.223-12.602c3.345-3.34 7.882-5.219 12.613-5.219h17.939v11.782z"/><path id="AU" d="M312.284-18.217c-20.418,0-36.97,11.789-36.97,26.333s16.552,26.333,36.969,26.333,36.97-11.789,36.97-26.333-16.552-26.333-36.969-26.333Z"/><path id="AV" d="M1250.528 115.88a2.03 2.03 0 0 1-2.031-2.029v-4.236a2.03 2.03 0 1 1 4.062 0v4.236a2.03 2.03 0 0 1-2.031 2.029z"/><path id="AW" d="M1091.851 124.545h-13.107l-3.552 32.411a3.04 3.04 0 0 0 3.02 3.366h14.236c1.811 0 3.22-1.573 3.019-3.371l-3.616-32.406z"/><path id="AX" d="M1085.34 147.974l-10.715-7.802c-5.918-4.309-6.587-12.88-1.409-18.054l3.748-3.745h16.751l3.748 3.745c5.178 5.174 4.509 13.745-1.409 18.054l-10.715 7.802z"/><path id="AY" d="M1085.33 123.515a17.81 17.81 0 0 0 5.223 12.6c3.345 3.342 7.882 5.219 12.613 5.219h17.939v-11.78a17.81 17.81 0 0 0-5.223-12.602c-3.345-3.34-7.882-5.219-12.613-5.219h-17.939v11.782z"/><path id="AZ" d="M1083.934 113.458l2.827-3.461 35.755 29.201-2.827 3.461z"/><path id="Aa" d="M1121.105 128.81v-4.231h-6.826a2.12 2.12 0 0 0-1.498.621c-.396.395-.619.934-.619 1.495h0c0 .563.224 1.099.619 1.497s.937.619 1.498.619h6.826z"/><path id="Ab" d="M1048.146 139.183l35.775-29.176 2.824 3.463-35.775 29.176z"/><path id="Ac" d="M1073.405 143.595h4.472v-14.827a2.23 2.23 0 0 0-.655-1.579 2.24 2.24 0 0 0-3.162 0 2.23 2.23 0 0 0-.655 1.579v14.827z"/><path id="Ad" d="M1049.556 129.047v-4.468h6.71a2.23 2.23 0 0 1 1.579.655c.42.418.655.985.655 1.577v.004a2.23 2.23 0 0 1-2.234 2.231h-6.71z"/><path id="Ae" d="M1085.34 110.377h16.904v32.057h-16.904z"/><path id="Af" d="M1069.476 128.055c-.728 0-1.444-.355-1.872-1.008-.678-1.033-.39-2.417.643-3.094l9.089-5.957c1.034-.681 2.419-.387 3.095.641s.39 2.417-.643 3.094l-9.089 5.957a2.22 2.22 0 0 1-1.223.367z"/><path id="Ag" d="M1101.183 128.055a2.22 2.22 0 0 1-1.223-.367l-9.086-5.957a2.23 2.23 0 1 1 2.452-3.735l9.086 5.957a2.23 2.23 0 0 1 .643 3.094c-.428.653-1.144 1.008-1.872 1.008z"/><path id="Ah" d="M1155.768 95.198a4.38 4.38 0 0 0-4.369 4.365 4.38 4.38 0 0 0-4.369-4.365 4.38 4.38 0 0 0-4.369 4.365 4.38 4.38 0 0 0-4.369-4.365 4.38 4.38 0 0 0-4.369 4.365 4.38 4.38 0 0 0-4.369-4.365 4.38 4.38 0 0 0-4.369 4.365l3.949 3.453 10.159 1.088 14.562-.72 6.282-3.822a4.38 4.38 0 0 0-4.369-4.365z"/></defs><g clip-path="url(#A)"><path d="M-10.125-3594.564h1520.249V454.918H-10.125z" fill="#61d1d5"/><path d="M1172.429-195.538l-20.009-41.039c-10.45-21.425-32.608-35.269-56.45-35.269h-76.809c-16.754 0-32.517 6.522-44.39 18.373-.97.969-1.905 1.965-2.803 2.985-9.542 10.837-26.115 11.655-36.325 1.445l-55.726-55.726c-12.044-12.044-12.04-31.573.009-43.612l12.071-12.061c14.691-14.679 22.946-34.595 22.946-55.363v-22.12c0-43.161-35.145-78.276-78.342-78.276h-15.766c-20.692 0-40.932 8.406-55.532 23.062l-46.47 46.66a12.17 12.17 0 0 1-8.625 3.583h-32.93c-20.769 0-40.689 8.246-55.38 22.927l-1.411 1.41c-14.682 14.672-22.931 34.577-22.931 55.333v15.639a81.06 81.06 0 0 0 22.94 56.505l.004.004c7.912 8.138 7.819 21.363-.207 29.389l-74.465 74.466a48.03 48.03 0 0 0-14.068 33.962v39.141c0 12.738 5.06 24.955 14.068 33.962l89.383 89.383c5.589 5.589 1.539 15.039-6.365 15.001h-.295a63.88 63.88 0 0 0-29.817 7.417l-80.898 42.89c-23.681 12.554-37.02 38.813-33.191 65.343l7.337 50.842a63.46 63.46 0 0 0 61.63 54.557l90.975 1.976 1.398.015c17.54 0 34.478-7.349 46.471-20.165 7.296-7.795 12.451-17.285 15.108-27.464 1.908-7.31 9.153-11.946 16.573-10.526a35.52 35.52 0 0 0 6.68.63h3.435c6.614 0 13.228-2.055 18.921-5.776 6.022 3.342 12.894 5.009 19.893 4.766 9.683-.336 18.919-4.422 26.003-11.506l3.612-3.614c7.216-7.214 11.191-16.811 11.191-27.018v-6.836c0-3.224-.403-6.399-1.183-9.462-2.149-8.433 4.443-16.587 13.145-16.62l21.046-.078c6.26-.023 12.088 2.842 16.218 7.546 4.746 5.406 11.704 8.825 19.45 8.825h13.034c14.275 0 25.887-11.603 25.887-25.865S909.857 78.24 895.582 78.24h-13.034a9.64 9.64 0 0 1-9.602-9.46l-.852-65.238c-.344-26.306 9.431-51.739 27.304-71.043l39.062-42.19c9.688-10.464 26.053-10.545 36.101-.427l.199.199 41.557 41.531c11.867 11.844 27.634 18.366 44.396 18.366s32.529-6.523 44.419-18.391l49.156-49.131 6.079-6.074c18.959-18.932 23.809-47.829 12.061-71.922z" class="B V"/><path d="M614.061 60.55l-80.898 42.89c-11.544 6.12-18 18.831-16.133 31.762l7.338 50.844a30.95 30.95 0 0 0 29.957 26.519l90.975 1.976c18.16.394 32.753-14.863 31.551-32.987h0c-.743-11.198 4.632-21.925 14.054-28.022 12.395-8.021 32.782-29.484 15.158-45.605l-58.781-44.673c-9.601-7.297-22.566-8.352-33.221-2.703z" class="I J N W Z f"/><use href="#o" class="B K"/><use href="#p" class="L"/><path d="M626.83 117.108c0-.63.25-1.235.696-1.68s1.05-.696 1.68-.696h7.92c.63 0 1.235.25 1.68.696a2.38 2.38 0 0 1 .696 1.68c0 .63-.25 1.235-.696 1.68a2.38 2.38 0 0 1-1.68.696h-7.92c-.63 0-1.234-.25-1.68-.696s-.696-1.05-.696-1.68z" class="B K"/><path d="M627.276 109.67c.619-.619 1.621-.619 2.24 0l2.048 2.048v-4.114c0-.875.708-1.584 1.584-1.584s1.584.709 1.584 1.584v4.115l2.067-2.067c.619-.619 1.621-.619 2.24 0s.619 1.621 0 2.24l-4.752 4.752a1.58 1.58 0 0 1-1.12.464c-.021 0-.024-.002-.027-.002-.414.002-.82-.153-1.129-.462l-4.734-4.734c-.619-.619-.619-1.622 0-2.24z" class="L"/><path d="M586.952 117.108c0-.63.25-1.235.696-1.68s1.05-.696 1.68-.696h7.92c.63 0 1.235.25 1.68.696a2.38 2.38 0 0 1 .696 1.68c0 .63-.25 1.235-.696 1.68a2.38 2.38 0 0 1-1.68.696h-7.92c-.63 0-1.234-.25-1.68-.696s-.696-1.05-.696-1.68z" class="B K"/><path d="M587.398 109.67c.619-.619 1.621-.619 2.24 0l2.048 2.048v-4.114c0-.875.708-1.584 1.584-1.584s1.584.709 1.584 1.584v4.115l2.067-2.067c.619-.619 1.621-.619 2.24 0s.619 1.621 0 2.24l-4.752 4.752a1.58 1.58 0 0 1-1.12.464c-.021 0-.024-.002-.027-.002-.414.002-.82-.153-1.129-.462l-4.734-4.734c-.619-.619-.619-1.622 0-2.24z" class="L"/><path d="M567.013 117.108c0-.63.25-1.235.696-1.68s1.05-.696 1.68-.696h7.92c.63 0 1.235.25 1.68.696s.696 1.05.696 1.68-.25 1.235-.696 1.68-1.05.696-1.68.696h-7.92c-.63 0-1.234-.25-1.68-.696s-.696-1.05-.696-1.68z" class="B K"/><path d="M567.459 109.67c.619-.619 1.621-.619 2.24 0l2.048 2.048v-4.114c0-.875.708-1.584 1.584-1.584s1.584.709 1.584 1.584v4.115l2.067-2.067c.619-.619 1.621-.619 2.24 0s.619 1.621 0 2.24l-4.752 4.752a1.58 1.58 0 0 1-1.12.464c-.021 0-.024-.002-.027-.002-.414.002-.82-.153-1.129-.462l-4.734-4.734c-.619-.619-.619-1.622 0-2.24z" class="L"/><path d="M547.074 117.108c0-.63.25-1.235.696-1.68s1.05-.696 1.68-.696h7.92c.63 0 1.235.25 1.68.696s.696 1.05.696 1.68-.25 1.235-.696 1.68a2.38 2.38 0 0 1-1.68.696h-7.92c-.63 0-1.234-.25-1.68-.696s-.696-1.05-.696-1.68z" class="B K"/><path d="M547.52 109.67c.619-.619 1.621-.619 2.24 0l2.048 2.048v-4.114c0-.875.708-1.584 1.584-1.584s1.584.709 1.584 1.584v4.115l2.067-2.067c.619-.619 1.621-.619 2.24 0s.619 1.621 0 2.24l-4.752 4.752a1.58 1.58 0 0 1-1.12.464c-.021 0-.024-.002-.027-.002-.414.002-.82-.153-1.129-.462l-4.734-4.734c-.619-.619-.619-1.622 0-2.24z" class="L"/><path d="M616.291 132.182c0-.63.25-1.235.696-1.68s1.05-.696 1.68-.696h7.92c.63 0 1.235.25 1.68.696a2.38 2.38 0 0 1 .696 1.68c0 .63-.25 1.235-.696 1.68a2.38 2.38 0 0 1-1.68.696h-7.92c-.63 0-1.234-.25-1.68-.696s-.696-1.05-.696-1.68z" class="B K"/><path d="M616.737 124.744c.619-.619 1.621-.619 2.24 0l2.048 2.048v-4.114c0-.875.708-1.584 1.584-1.584s1.584.709 1.584 1.584v4.115l2.067-2.067c.619-.619 1.621-.619 2.24 0s.619 1.621 0 2.24l-4.752 4.752a1.58 1.58 0 0 1-1.12.464c-.021 0-.024-.002-.027-.002-.414.002-.82-.153-1.129-.462l-4.734-4.734c-.619-.619-.619-1.622 0-2.24z" class="L"/><path d="M596.44 132.182c0-.63.25-1.235.696-1.68s1.05-.696 1.68-.696h7.92c.63 0 1.235.25 1.68.696a2.38 2.38 0 0 1 .696 1.68c0 .63-.25 1.235-.696 1.68a2.38 2.38 0 0 1-1.68.696h-7.92c-.63 0-1.234-.25-1.68-.696s-.696-1.05-.696-1.68z" class="B K"/><path d="M596.886 124.744c.619-.619 1.621-.619 2.24 0l2.048 2.048v-4.114c0-.875.708-1.584 1.584-1.584s1.584.709 1.584 1.584v4.115l2.067-2.067c.619-.619 1.621-.619 2.24 0s.619 1.621 0 2.24l-4.752 4.752a1.58 1.58 0 0 1-1.12.464c-.021 0-.024-.002-.027-.002-.414.002-.82-.153-1.129-.462l-4.734-4.734c-.619-.619-.619-1.622 0-2.24z" class="L"/><path d="M576.589 132.182c0-.63.25-1.235.696-1.68s1.05-.696 1.68-.696h7.92c.63 0 1.235.25 1.68.696a2.38 2.38 0 0 1 .696 1.68c0 .63-.25 1.235-.696 1.68a2.38 2.38 0 0 1-1.68.696h-7.92c-.63 0-1.234-.25-1.68-.696s-.696-1.05-.696-1.68z" class="B K"/><path d="M577.035 124.744c.619-.619 1.621-.619 2.24 0l2.048 2.048v-4.114c0-.875.708-1.584 1.584-1.584s1.584.709 1.584 1.584v4.115l2.067-2.067c.619-.619 1.621-.619 2.24 0s.619 1.621 0 2.24l-4.752 4.752a1.58 1.58 0 0 1-1.12.464c-.021 0-.024-.002-.027-.002-.414.002-.82-.153-1.129-.462l-4.734-4.734c-.619-.619-.619-1.622 0-2.24z" class="L"/><path d="M556.737 132.182c0-.63.25-1.235.696-1.68s1.05-.696 1.68-.696h7.92c.63 0 1.235.25 1.68.696a2.38 2.38 0 0 1 .696 1.68c0 .63-.25 1.235-.696 1.68s-1.05.696-1.68.696h-7.92c-.63 0-1.234-.25-1.68-.696s-.696-1.05-.696-1.68z" class="B K"/><path d="M557.183 124.744c.619-.619 1.621-.619 2.24 0l2.048 2.048v-4.114c0-.875.708-1.584 1.584-1.584s1.584.709 1.584 1.584v4.115l2.067-2.067c.619-.619 1.621-.619 2.24 0s.619 1.621 0 2.24l-4.752 4.752a1.58 1.58 0 0 1-1.12.464c-.021 0-.024-.002-.027-.002-.414.002-.82-.153-1.129-.462l-4.734-4.734c-.619-.619-.619-1.622 0-2.24z" class="L"/><path d="M752.377 135.042l-4.356-4.279c-1.695-1.665-1.719-4.389-.054-6.084l.676-.688c1.587-1.615 1.65-4.185.144-5.876l-11.163-12.538a4.3 4.3 0 0 1-.839-1.426c1.575.625 3.27.951 4.997.935l7.008-.062a13.25 13.25 0 0 1 9.401 3.797l16.063 15.781c.411.404.782.84 1.134 1.289l9.087 9.615c1.263 1.337 1.974 3.102 1.991 4.941l.065 7.369c.017 1.933-.734 3.793-2.089 5.172l-4.221 4.297a7.29 7.29 0 0 1-10.305.091l-3.078-3.024c-1.379-1.355-3.239-2.106-5.172-2.089l-.852.008c-2.019.018-3.981-.753-5.404-2.186a11.13 11.13 0 0 1-3.168-6.66 2.41 2.41 0 0 0-.536-1.27c.194-.371.425-.723.724-1.027 1.665-1.695 1.641-4.419-.054-6.084z" fill="#a96b3f"/><g fill="#bb7f50"><path d="M691.406 119.841l-11.057-10.863c-2.883-2.832-2.949-7.436-.193-10.358l1.035-1.053 3.39-3.402-.019-.029 1.178-1.199c2.462-2.506 5.819-3.932 9.332-3.963l19.069-.169a13.25 13.25 0 0 1 9.401 3.797l8.841 8.686a13.24 13.24 0 0 0 4.403 2.861c.183.518.463 1.004.839 1.426l11.163 12.538c1.506 1.692 1.443 4.261-.144 5.877l-.676.688c-1.665 1.695-1.641 4.419.054 6.085l4.355 4.279c1.707 1.677 1.672 4.388.02 6.119-.282.296-.503.636-.69.992-.397-.489-.974-.825-1.637-.891l-6.714-.674a2.48 2.48 0 0 0-2.569 1.599l-1.628 4.39a3.97 3.97 0 0 0 .03 2.837l1.333 3.377c.524 1.326.296 2.832-.598 3.943l-2.143 2.667a3.97 3.97 0 0 1-3.059 1.483l-3.702.033a3.97 3.97 0 0 1-2.817-1.138l-2.951-2.899a3.97 3.97 0 0 1-.746-4.651l2.775-5.381a1.34 1.34 0 0 0-1.2-1.949 1.34 1.34 0 0 1-1.012-2.222c1.333-1.504.407-3.884-1.593-4.085-5.958-.599-12.484.391-19.255-.29-5.969-.6-10.548-7.245-10.602-13.244h0c-.017-1.964-.814-3.841-2.215-5.217z"/><path d="M681.191 97.567l3.371-3.431.019.029-3.39 3.402z"/></g><rect x="690.397" y="93.853" width="27.594" height="9.636" rx="4.818" transform="matrix(-1 0 0 -1 1408.388 197.342)" fill="#a16236"/><g fill="#bb7f50"><rect x="714.769" y="140.51" width="6.918" height="3.924" rx="1.962" transform="matrix(-1 0 0 -1 1436.457 284.944)"/><rect x="742.695" y="142.87" width="4.592" height="2.605" rx="1.302" transform="matrix(-1 0 0 -1 1489.982 288.345)"/></g><use href="#q" class="O"/><g clip-path="url(#B)" class="B P"><use href="#r" style="mix-blend-mode:multiply" class="Q"/></g><path d="M636.017 54.681a17.81 17.81 0 0 1-5.223 12.6c-3.345 3.342-7.882 5.219-12.613 5.219h-17.939V60.72a17.81 17.81 0 0 1 5.223-12.602c3.345-3.34 7.882-5.219 12.613-5.219h17.939v11.782z" class="B H"/><g clip-path="url(#C)"><path d="M636.017 42.899l-39.922 34.122h39.922V42.899z" class="B D"/><use href="#s" class="G"/><g class="B"><g class="F"><use href="#t"/><path d="M624.092 74.76h4.472V59.931c0-1.233-.999-2.232-2.234-2.232h-.005c-1.234 0-2.234.999-2.234 2.232V74.76z"/></g><g class="D"><use href="#u"/><use href="#v"/></g></g></g><path d="M636.017 54.681a17.81 17.81 0 0 0 5.223 12.6c3.345 3.342 7.882 5.219 12.613 5.219h17.939V60.72a17.81 17.81 0 0 0-5.223-12.602c-3.345-3.34-7.882-5.219-12.613-5.219h-17.939v11.782z" class="B H"/><g clip-path="url(#D)"><path d="M636.017 42.899l39.922 34.122h-39.922V42.899z" class="B D"/><use href="#w" class="G"/><g class="B"><g class="F"><use href="#x"/><path d="M647.942 74.76h-4.472V59.933a2.23 2.23 0 0 1 .655-1.579 2.24 2.24 0 0 1 3.162 0 2.23 2.23 0 0 1 .655 1.579V74.76z"/></g><g class="D"><use href="#y"/><use href="#z"/></g></g></g><path d="M636.007 72.499l10.715-7.802c5.918-4.309 6.587-12.88 1.409-18.054l-3.748-3.745h-16.751l-3.748 3.745c-5.178 5.174-4.509 13.745 1.409 18.054l10.715 7.802z" class="B G"/><g clip-path="url(#E)"><path d="M636.007 73.599h-16.904V41.542h16.904z" class="D"/><use href="#AA" class="R"/><use href="#AB" class="D"/><use href="#AC" class="F"/><path d="M651.871 69.408c.728 0 1.444-.355 1.872-1.008.678-1.033.39-2.417-.643-3.094l-9.089-5.957c-1.034-.681-2.419-.387-3.095.641-.678 1.033-.39 2.417.643 3.094l9.089 5.957a2.22 2.22 0 0 0 1.223.367z" class="D"/><path d="M620.163 69.408a2.22 2.22 0 0 0 1.223-.367l9.086-5.957a2.23 2.23 0 1 0-2.452-3.735l-9.086 5.957a2.23 2.23 0 0 0-.643 3.094c.428.653 1.144 1.008 1.872 1.008z" class="F"/></g><g class="B"><path d="M623.948 83.67a4.38 4.38 0 0 1 4.369 4.365 4.38 4.38 0 0 1 4.369-4.365 4.38 4.38 0 0 1 4.369 4.365 4.38 4.38 0 0 1 4.369-4.365 4.38 4.38 0 0 1 4.369 4.365 4.38 4.38 0 0 1 4.369-4.365 4.38 4.38 0 0 1 4.369 4.365l-3.949 3.453-10.159 1.088-14.562-.72-6.282-3.822a4.38 4.38 0 0 1 4.369-4.365z" class="N"/><path d="M548.513,24.273c-14.273,0-25.885-11.602-25.885-25.865s11.612-25.863,25.885-25.863h13.034c14.275,0,25.887,11.602,25.887,25.863s-11.612,25.865-25.887,25.865h-13.034Z" class="V"/></g><rect x="539.172" y="-10.925" width="31.716" height="18.667" rx="9.333" class="a"/><g clip-path="url(#F)"><use href="#AD" class="C I J T b g"/><use href="#AE" fill="#fff" class="B"/><g clip-path="url(#G)" class="B"><use href="#AF" fill="#cc4721"/><use href="#AG" opacity=".2" class="X"/></g><use href="#AH" fill="#daf4fd" class="B"/><use href="#AI" fill="#99dded"/><use href="#AJ" fill="#8bcddd"/><use href="#AK" fill="#51b1ba"/><use href="#AL" fill="#5dcad3"/><g clip-path="url(#H)" class="X"><g class="S"><use href="#AM"/></g></g></g><g opacity=".2"><g clip-path="url(#I)"><use href="#AD" class="C I J T b g"/><use href="#AE" fill="#fff" class="B"/><g clip-path="url(#J)" class="B"><use href="#AF" fill="#cc4721"/><use href="#AG" opacity=".2" class="X"/></g><use href="#AH" fill="#daf4fd" class="B"/><use href="#AI" fill="#99dded"/><use href="#AJ" fill="#8bcddd"/><use href="#AK" fill="#51b1ba"/><use href="#AL" fill="#5dcad3"/><g clip-path="url(#K)" class="X"><g class="S"><use href="#AM"/></g></g></g></g><path d="M331.142 148.054c19.853-19.852 30.787-46.248 30.787-74.326V55.464c0-28.077-10.933-54.473-30.787-74.325l-61.246-61.247c-19.854-19.853-46.25-30.787-74.325-30.787h-20.813c-28.137 0-55.403 10.724-75.354 30.563C79.188-60.229 68.169-33.424 68.396-4.944c.069 8.609-3.384 17.039-9.472 23.128L9.113 67.997c-19.746 19.746-31.424 46.357-31.663 74.28-.243 28.422 10.712 55.18 30.783 75.25l21.246 21.247a105.12 105.12 0 0 0 74.328 30.789h62.287c22.601 0 44.106-7.096 61.992-20.215l61.732-59.971 41.324-41.323z" class="V"/><path d="M305.414 6.867l-61.245-61.245a68.73 68.73 0 0 0-48.598-20.13h-22.066c-38.171 0-69.03 31.106-68.725 69.276h0c.147 18.418-7.104 36.123-20.128 49.146L71.101 57.466l39.045 39.044c19.764 19.764 51.808 19.764 71.572 0h0c19.764-19.764 51.808-19.764 71.572 0l38.97 38.97 13.154-13.154c12.889-12.889 20.13-30.37 20.13-48.597V55.465a68.73 68.73 0 0 0-20.13-48.598z" class="a"/><path d="M181.718 96.51h0c-19.764 19.764-51.808 19.764-71.572 0L71.101 57.466 33.962 94.605c-26.84 26.84-26.84 70.355 0 97.195l21.248 21.248a68.73 68.73 0 0 0 48.598 20.13h62.288a68.73 68.73 0 0 0 48.598-20.13l77.568-77.568-38.97-38.97c-19.764-19.764-51.808-19.764-71.572 0z" class="N"/><g class="C I J W Z"><path d="M71.101 57.465h0"/><path d="M64.023 64.543L33.962 94.604c-26.84 26.84-26.84 70.355 0 97.195l21.248 21.248a68.73 68.73 0 0 0 48.598 20.13h62.288a68.73 68.73 0 0 0 48.598-20.13l74.029-74.029" stroke-dasharray="0 10.01"/><path d="M292.26 135.48h0"/><path d="M285.208 128.428L253.29 96.51c-19.764-19.764-51.808-19.764-71.572 0h0c-19.764 19.764-51.808 19.764-71.572 0L74.628 60.992" stroke-dasharray="0 9.973"/></g><g fill="#409058"><use href="#AN" class="M"/><use href="#AO" class="M"/><path d="M81.935 92.573a2.03 2.03 0 0 0 2.031-2.029v-4.236a2.031 2.031 0 1 0-4.062 0v4.236a2.03 2.03 0 0 0 2.031 2.029zm178.106 46.278a2.03 2.03 0 0 0 2.031-2.029v-6.352a2.031 2.031 0 1 0-4.062 0v6.352a2.03 2.03 0 0 0 2.031 2.029zm-8.125 0a2.03 2.03 0 0 0 2.031-2.029v-4.236a2.031 2.031 0 1 0-4.062 0v4.236a2.03 2.03 0 0 0 2.031 2.029zm16.249 0a2.03 2.03 0 0 0 2.031-2.029v-4.236a2.031 2.031 0 1 0-4.062 0v4.236a2.03 2.03 0 0 0 2.031 2.029z" class="M"/></g><path d="M64.58 121.924h13.107l3.552 32.411a3.04 3.04 0 0 1-3.02 3.366H63.983c-1.811 0-3.22-1.573-3.019-3.371l3.616-32.406z" class="O"/><g clip-path="url(#L)" class="B P"><use href="#AP" style="mix-blend-mode:multiply" class="Q"/></g><path d="M71.101 120.894a17.81 17.81 0 0 1-5.223 12.6c-3.345 3.342-7.882 5.219-12.613 5.219H35.326v-11.78a17.81 17.81 0 0 1 5.223-12.602c3.345-3.34 7.882-5.219 12.613-5.219h17.939v11.782z" class="B H"/><g clip-path="url(#M)"><use href="#AQ" class="B D"/><path d="M33.924 136.569l35.755-29.201 2.827 3.461-35.755 29.201z" class="G"/><g class="B"><g class="F"><path d="M50.232 140.643h4.472v-7.515c0-1.233-1.002-2.234-2.236-2.234s-2.236 1.001-2.236 2.234v7.515z"/><use href="#AR"/></g><g class="D"><path d="M35.326 126.189v-4.231h6.826a2.12 2.12 0 0 1 1.498.621c.396.395.619.934.619 1.495h0c0 .563-.224 1.099-.619 1.497a2.11 2.11 0 0 1-1.498.619h-6.826zm0-8.699v-4.468h13.418c1.234 0 2.234.999 2.234 2.232v.004c0 1.233-.999 2.232-2.234 2.232H35.326z"/></g></g></g><path d="M71.101 120.894a17.81 17.81 0 0 0 5.223 12.6c3.345 3.342 7.882 5.219 12.613 5.219h17.939v-11.78a17.81 17.81 0 0 0-5.223-12.602c-3.345-3.34-7.882-5.219-12.613-5.219H71.101v11.782z" class="B H"/><g clip-path="url(#N)"><path d="M71.101 109.112l39.922 34.122H71.101v-34.122z" class="B D"/><path d="M69.689 110.843l2.824-3.463 35.775 29.176-2.824 3.463z" class="G"/><g class="B"><g class="F"><path d="M91.969 140.643h-4.472v-7.515c0-1.233 1.002-2.234 2.236-2.234s2.236 1.001 2.236 2.234v7.515zm-8.943.331h-4.472v-14.827a2.23 2.23 0 0 1 .655-1.579 2.24 2.24 0 0 1 3.162 0 2.23 2.23 0 0 1 .655 1.579v14.827z"/></g><g class="D"><path d="M106.875 126.426v-4.468h-6.71a2.23 2.23 0 0 0-1.579.655c-.42.418-.655.985-.655 1.577v.004a2.23 2.23 0 0 0 2.234 2.231h6.71zm0-8.936v-4.468H93.46a2.24 2.24 0 0 0-1.581.655 2.23 2.23 0 0 0-.655 1.579c0 .592.235 1.162.655 1.579a2.23 2.23 0 0 0 1.581.655h13.415z"/></g></g></g><path d="M71.091 138.713l10.715-7.802c5.918-4.309 6.587-12.88 1.409-18.054l-3.748-3.745H62.716l-3.748 3.745c-5.178 5.174-4.509 13.745 1.409 18.054l10.715 7.802z" class="B G"/><g clip-path="url(#O)"><path d="M71.091 139.813H54.187v-32.057h16.904z" class="D"/><path d="M68.864 105.885h4.472v38.966h-4.472z" class="R"/><use href="#AS" class="D"/><path d="M55.248 125.434a2.22 2.22 0 0 0 1.223-.367l9.086-5.957a2.23 2.23 0 1 0-2.452-3.735l-9.086 5.957a2.23 2.23 0 0 0-.643 3.094c.428.653 1.144 1.008 1.872 1.008z" class="F"/><path d="M86.955 135.621c.728 0 1.444-.355 1.872-1.008.678-1.033.39-2.417-.643-3.094l-9.089-5.957c-1.034-.681-2.419-.387-3.095.641s-.39 2.417.643 3.094l9.089 5.957a2.22 2.22 0 0 0 1.223.367z" class="D"/><path d="M55.248 135.621a2.22 2.22 0 0 0 1.223-.367l9.086-5.957a2.23 2.23 0 1 0-2.452-3.735l-9.086 5.957a2.23 2.23 0 0 0-.643 3.094c.428.653 1.144 1.008 1.872 1.008z" class="F"/></g><path d="M217.745 70.681h13.107l3.552 32.411a3.04 3.04 0 0 1-3.02 3.366h-14.236c-1.811 0-3.22-1.573-3.019-3.371l3.616-32.406z" class="O"/><g clip-path="url(#P)" class="B P"><path d="M224.256 94.11l10.715-7.802c5.918-4.309 6.587-12.88 1.409-18.054l-3.748-3.745h-16.751l-3.748 3.745c-5.178 5.174-4.509 13.745 1.409 18.054l10.715 7.802z" style="mix-blend-mode:multiply" class="Q"/></g><path d="M224.266 69.651a17.81 17.81 0 0 1-5.223 12.6c-3.345 3.342-7.882 5.219-12.613 5.219h-17.939V75.69a17.81 17.81 0 0 1 5.223-12.602c3.345-3.34 7.882-5.219 12.613-5.219h17.939v11.782z" class="B H"/><g clip-path="url(#Q)"><path d="M224.266 57.869l-39.922 34.122h39.922V57.869z" class="B D"/><path d="M187.087 85.326l35.755-29.201 2.827 3.461-35.755 29.201z" class="G"/><g class="B"><g class="F"><path d="M203.398 89.4h4.472v-7.515c0-1.233-1.002-2.234-2.236-2.234s-2.236 1.001-2.236 2.234V89.4zm8.944.331h4.472V74.902c0-1.233-.999-2.232-2.234-2.232h-.005c-1.234 0-2.234.999-2.234 2.232v14.829z"/></g><g class="D"><path d="M188.492 74.946v-4.231h6.826a2.12 2.12 0 0 1 1.498.621c.396.395.619.934.619 1.495h0c0 .563-.224 1.099-.619 1.497a2.11 2.11 0 0 1-1.498.619h-6.826zm0-8.699v-4.468h13.418c1.234 0 2.234.999 2.234 2.232v.004c0 1.233-.999 2.232-2.234 2.232h-13.418z"/></g></g></g><path d="M224.266 69.651a17.81 17.81 0 0 0 5.223 12.6c3.345 3.342 7.882 5.219 12.613 5.219h17.939V75.69a17.81 17.81 0 0 0-5.223-12.602c-3.345-3.34-7.882-5.219-12.613-5.219h-17.939v11.782z" class="B H"/><g clip-path="url(#R)"><path d="M224.266 57.869l39.922 34.122h-39.922V57.869z" class="B D"/><path d="M222.853 59.6l2.824-3.463 35.775 29.176-2.824 3.463z" class="G"/><g class="B"><g class="F"><path d="M245.135 89.4h-4.472v-7.515c0-1.233 1.002-2.234 2.236-2.234s2.236 1.001 2.236 2.234V89.4zm-8.944.331h-4.472V74.904a2.23 2.23 0 0 1 .655-1.579 2.24 2.24 0 0 1 3.162 0 2.23 2.23 0 0 1 .655 1.579v14.827z"/></g><g class="D"><path d="M260.041 75.183v-4.468h-6.71a2.23 2.23 0 0 0-1.579.655c-.42.418-.655.985-.655 1.577v.004a2.23 2.23 0 0 0 2.234 2.231h6.71zm0-8.936v-4.468h-13.415a2.24 2.24 0 0 0-1.581.655 2.23 2.23 0 0 0-.655 1.579c0 .592.235 1.162.655 1.579a2.23 2.23 0 0 0 1.581.655h13.415z"/></g></g></g><path d="M224.256 87.47l10.715-7.802c5.918-4.309 6.587-12.88 1.409-18.054l-3.748-3.745h-16.751l-3.748 3.745c-5.178 5.174-4.509 13.745 1.409 18.054l10.715 7.802z" class="B G"/><g clip-path="url(#S)"><path d="M224.257 88.57h-16.904V56.513h16.904z" class="D"/><path d="M222.029 54.642h4.472v38.966h-4.472z" class="R"/><path d="M240.12 74.191c.728 0 1.444-.355 1.872-1.008.678-1.033.39-2.417-.643-3.094l-9.089-5.957c-1.034-.681-2.419-.387-3.095.641s-.39 2.417.643 3.094l9.089 5.957a2.22 2.22 0 0 0 1.223.367z" class="D"/><path d="M208.413 74.191a2.22 2.22 0 0 0 1.223-.367l9.086-5.957a2.23 2.23 0 1 0-2.452-3.735l-9.086 5.957a2.23 2.23 0 0 0-.643 3.094c.428.653 1.144 1.008 1.872 1.008z" class="F"/><path d="M240.12 84.378c.728 0 1.444-.355 1.872-1.008.678-1.033.39-2.417-.643-3.094l-9.089-5.957c-1.034-.681-2.419-.387-3.095.641s-.39 2.417.643 3.094l9.089 5.957a2.22 2.22 0 0 0 1.223.367z" class="D"/><path d="M208.413 84.378a2.22 2.22 0 0 0 1.223-.367l9.086-5.957a2.23 2.23 0 1 0-2.452-3.735l-9.086 5.957a2.23 2.23 0 0 0-.643 3.094c.428.653 1.144 1.008 1.872 1.008z" class="F"/></g><path d="M209.93 106.458h28.845" stroke-dasharray="0 13.225" stroke-width="13.225" class="I J N W"/><path d="M182.299 131.658h13.107l3.552 32.411a3.04 3.04 0 0 1-3.02 3.366h-14.236c-1.811 0-3.22-1.573-3.019-3.371l3.616-32.406z" class="O"/><g clip-path="url(#T)" class="B P"><path d="M188.81 155.087l10.715-7.802c5.918-4.309 6.587-12.88 1.409-18.054l-3.748-3.745h-16.751l-3.748 3.745c-5.178 5.174-4.509 13.745 1.409 18.054l10.715 7.802z" style="mix-blend-mode:multiply" class="Q"/></g><use href="#AT" class="B H"/><g clip-path="url(#U)"><path d="M188.82 118.846l-39.922 34.122h39.922v-34.122z" class="B D"/><path d="M151.642 146.303l35.755-29.201 2.827 3.461-35.755 29.201z" class="G"/><g class="B"><g class="F"><path d="M167.952 150.376h4.472v-7.515c0-1.233-1.002-2.234-2.236-2.234s-2.236 1.001-2.236 2.234v7.515zm8.944.331h4.472v-14.829c0-1.233-.999-2.232-2.234-2.232h-.005c-1.234 0-2.234.999-2.234 2.232v14.829z"/></g><g class="D"><path d="M153.046 135.922v-4.231h6.826a2.12 2.12 0 0 1 1.498.621c.396.395.619.934.619 1.495h0c0 .563-.224 1.099-.619 1.497a2.11 2.11 0 0 1-1.498.619h-6.826zm0-8.699v-4.468h13.418c1.234 0 2.234.999 2.234 2.232v.004c0 1.233-.999 2.232-2.234 2.232h-13.418z"/></g></g></g><path d="M188.82 130.628a17.81 17.81 0 0 0 5.223 12.6c3.345 3.342 7.882 5.219 12.613 5.219h17.939v-11.78a17.81 17.81 0 0 0-5.223-12.602c-3.345-3.34-7.882-5.219-12.613-5.219H188.82v11.782z" class="B H"/><g clip-path="url(#V)"><path d="M188.82 118.846l39.923 34.122H188.82v-34.122z" class="B D"/><path d="M187.407 120.577l2.824-3.463 35.775 29.176-2.824 3.463z" class="G"/><g class="B"><g class="F"><path d="M209.689 150.376h-4.472v-7.515c0-1.233 1.002-2.234 2.236-2.234s2.236 1.001 2.236 2.234v7.515zm-8.944.331h-4.472V135.88a2.23 2.23 0 0 1 .655-1.579 2.24 2.24 0 0 1 3.162 0 2.23 2.23 0 0 1 .655 1.579v14.827z"/></g><g class="D"><path d="M224.595 136.159v-4.468h-6.71a2.23 2.23 0 0 0-1.579.655c-.42.418-.655.985-.655 1.577v.004a2.23 2.23 0 0 0 2.234 2.231h6.71zm0-8.936v-4.468H211.18a2.24 2.24 0 0 0-1.581.655 2.23 2.23 0 0 0-.655 1.579c0 .592.235 1.162.655 1.579a2.23 2.23 0 0 0 1.581.655h13.415z"/></g></g></g><path d="M188.81 148.446l10.715-7.802c5.918-4.309 6.587-12.88 1.409-18.054l-3.748-3.745h-16.751l-3.748 3.745c-5.178 5.174-4.509 13.745 1.409 18.054l10.715 7.802z" class="B G"/><g clip-path="url(#W)"><path d="M188.811 149.547h-16.904V117.49h16.904z" class="D"/><path d="M186.583 115.619h4.472v38.966h-4.472z" class="R"/><path d="M204.674 135.168c.728 0 1.444-.355 1.872-1.008.678-1.033.39-2.417-.643-3.094l-9.089-5.957c-1.034-.681-2.419-.387-3.095.641s-.39 2.417.643 3.094l9.089 5.957a2.22 2.22 0 0 0 1.223.367z" class="D"/><path d="M172.967 135.168a2.22 2.22 0 0 0 1.223-.367l9.086-5.957a2.23 2.23 0 1 0-2.452-3.735l-9.086 5.957a2.23 2.23 0 0 0-.643 3.094c.428.653 1.144 1.008 1.872 1.008z" class="F"/><path d="M204.674 145.355c.728 0 1.444-.355 1.872-1.008.678-1.033.39-2.417-.643-3.094l-9.089-5.957c-1.034-.681-2.419-.387-3.095.641s-.39 2.417.643 3.094l9.089 5.957a2.22 2.22 0 0 0 1.223.367z" class="D"/><path d="M172.967 145.355a2.22 2.22 0 0 0 1.223-.367l9.086-5.957a2.23 2.23 0 1 0-2.452-3.735l-9.086 5.957a2.23 2.23 0 0 0-.643 3.094c.428.653 1.144 1.008 1.872 1.008z" class="F"/></g><path d="M335.447 69.971h5.861" stroke-width="8.889" class="C I J T b"/><g fill="#2e2f5c"><path d="M283.259 46.682h4.801v23.289h-4.801zm53.248 0h4.801v23.289h-4.801z"/></g><path d="M312.284,6.327c-21.708,0-39.305,13.553-39.305,30.273s17.598,30.273,39.305,30.273,39.305-13.554,39.305-30.273-17.598-30.273-39.305-30.273Z" class="B U"/><g clip-path="url(#X)"><path d="M268.501 17.443h87.565v49.698h-87.565z" fill="#424181"/><g class="C I c d"><path style="mix-blend-mode:multiply" d="M268.501 25.438h87.565m-87.565 8.427h87.565m-87.565 8.428h87.565m-87.565 8.427h87.565m-87.565 8.427h87.565" class="S"/></g></g><g class="B"><path d="M312.284 4.204c-20.136 0-36.459 12.572-36.459 28.081s16.323 28.081 36.459 28.081 36.459-12.572 36.459-28.081S332.42 4.204 312.284 4.204z" class="e"/><path d="M275.825 22.595c0 15.015 16.323 27.187 36.459 27.187s36.459-12.172 36.459-27.187S332.42-4.592 312.284-4.592 275.825 7.58 275.825 22.595z" class="Y"/><path d="M279.514,22.98c0,11.902,14.671,21.55,32.771,21.55s32.771-9.648,32.771-21.55-14.672-21.55-32.771-21.55-32.771,9.648-32.771,21.55Z" fill="#50b0b8" class="M"/></g><g clip-path="url(#Y)" class="B Y"><path d="M275.825,32.453c0,15.416,16.323,27.913,36.46,27.913s36.46-12.497,36.46-27.912-16.323-27.913-36.46-27.913-36.46,12.497-36.46,27.912Z"/></g><g class="B"><path d="M300.822,17.731v40.595s5.454-2.844,12.181-2.844h0c6.727,0,12.181,2.844,12.181,2.844V17.731h-24.362Z" fill="#50b0b8" class="M"/><path d="M298.811,58.387l2.011-1.09s5.454-2.844,12.181-2.844h0c6.727,0,12.181,2.844,12.181,2.844l2.011.635-6.567.394-16.297.642-5.521-.581Z" fill="#7f7db4" class="M"/><g class="Y"><path d="M283.259 35.884l-5.201-6.35V10.077h5.201v25.807zm63.25-6.35l-5.201 6.35V10.077h5.201v19.457z"/></g><g class="e"><path d="M278.92 34.491l-3.096-2.568V2.299h3.096v32.192zm69.823-2.568l-3.096 2.568V2.299h3.096v29.624z"/></g></g><g class="Y"><path d="M296.791 32.825h2.826v16.267h-2.826zm29.649 0h2.826v16.267h-2.826z"/></g><g class="e"><path d="M293.802 28.861h5.242v21.897h-5.242zm33.211 0h5.242v21.897h-5.242z"/></g><path d="M323.764 14.571v40.84c-2.344.648-6.314 1.515-10.761 1.515-4.703 0-8.49-.625-10.761-1.123V14.571h21.522m3.441-3.441h-28.403v47.33s5.674 1.907 14.202 1.907c7.843 0 14.202-2.434 14.202-2.434V11.13h0z" fill="#fff"/><path d="M313.003 59.504V28.777" stroke-width="3.441" class="C T h"/><g opacity=".35" class="B"><g clip-path="url(#Z)"><path d="M309.965 60.302h-11.154l16.521-38.333h11.153l-16.52 38.333z" fill="#fff"/></g></g><rect x="317.125" y="44.168" width=".992" height="2.431" rx=".496" stroke-width="1.72" class="C T h"/><g class="B"><path d="M312.284-11.42c-20.136,0-36.459,10.749-36.459,24.01s16.323,24.01,36.459,24.01,36.459-10.75,36.459-24.01-16.323-24.01-36.459-24.01Z" style="mix-blend-mode:multiply" fill="#cbdcec"/><use href="#AU" fill="#312d4d"/><path d="M312.284-21.425c-20.418,0-36.97,11.789-36.97,26.333s16.552,26.333,36.969,26.333,36.97-11.789,36.97-26.333-16.552-26.333-36.969-26.333Z" class="U"/></g><g clip-path="url(#a)"><g class="C I J c"><g class="i"><path style="mix-blend-mode:multiply" d="M327.261-40.02v91.497M297.306-40.02v91.497" class="S"/></g><g class="d"><path style="mix-blend-mode:multiply" d="M269.077 4.96h87.565M269.077 17h87.565" class="S"/></g></g><path style="mix-blend-mode:multiply" d="M354.712-13.097l-86.788 41.263 82.289 10.345 4.499-51.608z" opacity=".148" class="B U"/></g><path d="M131.285 49.475a3.36 3.36 0 0 1-3.349 3.195h-5.604v14.201h44.539V49.475h-35.586z" fill="#5ec8a2"/><path d="M131.285 49.475c.003-.058.017-.113.017-.171a3.37 3.37 0 0 0-3.366-3.366h-15.665a3.37 3.37 0 0 0-3.366 3.366 3.37 3.37 0 0 0 3.366 3.366h10.061v-3.195h8.953z" fill="#f7e27e"/><path d="M131.285 49.475h-8.953v3.195h5.604a3.36 3.36 0 0 0 3.349-3.195z" fill="#53b68c"/><path d="M125.511 41.309v-.498c-.051-2.718-2.384-4.916-4.964-4.964a5.01 5.01 0 0 0-4.794 3.33c-.24.675-.291 1.396-.299 2.132h-4.148l2.819 7.049c.411 1.022 1.398 1.691 2.5 1.691h7.717a2.69 2.69 0 0 0 2.5-1.691l2.819-7.049h-4.149zm-7.866-.432c.012-2.193 2.58-3.443 4.267-2.46 1.027.597 1.303 1.709 1.38 2.893h-5.647v-.433z" fill="#e49636"/><path d="M145.21 42.47h5.652v5.765h-5.652z" fill="#7c4b81"/><path d="M148.717 32.996c0-.665-.267-1.302-.737-1.773a2.52 2.52 0 0 0-1.777-.737h0c-.669 0-1.307.267-1.777.737a2.51 2.51 0 0 0-.737 1.773v9.472h5.028v-9.472z" fill="#0c1b1c"/><path d="M144.43 46.589h-1.67c-.945 0-1.737.707-1.844 1.645l-1.175 10.338h-1.969v1.331h4.99v-.007h.155l1.512-13.307z" fill="#7c4b81"/><g fill="#965d9d"><path d="M159.073 49.924a1.42 1.42 0 0 0 1.144-.585c.266-.366.34-.838.2-1.264l-2.695-8.377c-.22-.665-.838-1.111-1.544-1.104h-.034c-.519 0-.998.259-1.297.679-.293.419-.373.958-.2 1.444l2.043 5.882h-6.321v3.327h8.703z"/><path d="M152.867 35.948h-9.661a2.28 2.28 0 0 0-2.277 2.277v.118c-.113-.017-.226-.035-.343-.035-1.262 0-2.285 1.023-2.285 2.285s1.023 2.285 2.285 2.285c.12 0 .235-.018.35-.035.035 1.226 1.037 2.212 2.27 2.212h9.661a2.28 2.28 0 0 0 2.277-2.277v-4.554a2.28 2.28 0 0 0-2.277-2.277z"/></g><g fill="#0c1b1c"><path d="M145.437 40.152c0-.222-.176-.398-.393-.398h-.791c-.221 0-.398.176-.398.398v2.596c0 .222.177.398.398.398h.791c.217 0 .393-.177.393-.398v-2.596zm7.232 0c0-.222-.176-.398-.393-.398h-.791c-.221 0-.398.176-.398.398v2.596c0 .222.176.398.398.398h.791c.217 0 .393-.177.393-.398v-2.596zm-.119-5.84h-10.487c-1.074 0-1.947.868-1.947 1.946v2.046h10.275a2.14 2.14 0 0 0 1.529-.634c.402-.404.63-.953.63-1.522v-1.836z"/><path d="M149.393 34.311h4.755v1.967h-4.755z"/><path d="M152.558,34.312h1.672c.516,0,1.011.204,1.376.568.365.364.57.864.57,1.378v2.046h-1.461c-1.191,0-2.157-.963-2.157-2.156v-1.836Z"/></g><path d="M152.269 46.595h-8.467l-.966 12.678a1.51 1.51 0 0 0 1.507 1.625h7.386a1.51 1.51 0 0 0 1.109-.486 1.5 1.5 0 0 0 .397-1.139l-.966-12.678z" fill="#e49636"/><g fill="#965d9d"><path d="M150.863 46.594a2.83 2.83 0 0 1-2.826 2.826 2.83 2.83 0 0 1-2.826-2.826h5.652zm6.174 15.907l-4.406-4.406a1.79 1.79 0 0 0-2.536-.001l-.288.288a1.79 1.79 0 0 0 .001 2.536l4.106 4.105-4.856 4.915.006.006-.121.032 1.509 5.633.315-.084c.514-.138.948-.474 1.216-.937.264-.454.337-1.006.2-1.517l-.235-.876 5.089-5.089a3.25 3.25 0 0 0 .953-2.304c0-.862-.341-1.69-.953-2.302zm-11.417 9.694l5.088-5.088a3.25 3.25 0 0 0 0-4.606l-4.406-4.406a1.79 1.79 0 0 0-2.536-.001l-.288.288c-.7.7-.701 1.834 0 2.536l4.106 4.105-4.856 4.915.007.007-.12.032 1.509 5.633.315-.084c.514-.138.948-.474 1.216-.937.264-.454.337-1.006.2-1.517l-.235-.878z"/></g><path d="M835.702 242.304l78.808 78.808c6.734 6.734 15.866 10.516 25.389 10.516h91.182a89.85 89.85 0 0 1 63.534 26.317h0a89.85 89.85 0 0 0 63.534 26.317h147.728a112.95 112.95 0 0 0 79.867-33.082l56.86-56.86a112.95 112.95 0 0 0 33.082-79.867h0a112.95 112.95 0 0 0-33.082-79.867l-54.178-54.178a112.95 112.95 0 0 0-79.867-33.082h-226.402c-23.83 0-46.684 9.466-63.534 26.317l-96.851 96.851c-6.734 6.734-15.866 10.516-25.389 10.516h-35.291c-19.83 0-35.905 16.075-35.905 35.905h0a35.91 35.91 0 0 0 10.516 25.389z" class="V"/><path d="M1354.702 195.173l-69.637-69.637h-76.312l-47.581 47.581v45.427l-28.45 28.45h-36.471l16.194 16.194c4.479 4.479 10.554 6.996 16.889 6.996h64.455a23.88 23.88 0 0 0 16.889-6.996l13.889-13.889c9.328-9.328 9.328-24.451 0-33.778l-3.14-3.14c-9.328-9.328-9.328-24.451 0-33.778h0a23.89 23.89 0 0 1 33.779 0l24.139 24.139c9.328 9.328 9.328 24.451 0 33.778l-2.032 2.032c-9.328 9.328-9.328 24.451 0 33.778l12.072 12.072 65.318-65.318v-23.909z" class="a"/><path d="M1323.713 308.837h38.813c6.335 0 12.41-2.516 16.89-6.996l50.464-50.464c4.479-4.479 6.996-10.554 6.996-16.889v-22.756a23.88 23.88 0 0 0-6.996-16.889l-87.219-87.219c-4.479-4.479-10.554-6.996-16.889-6.996h-21.094a23.88 23.88 0 0 1-16.889-6.996l-5.126-5.126c-4.479-4.479-10.554-6.996-16.889-6.996h-133.77c-6.237 0-12.225 2.439-16.687 6.796l-53.078 51.831c-4.602 4.494-7.197 10.656-7.197 17.089v38.663a23.88 23.88 0 0 0 6.996 16.889l34.215 34.215h36.471l28.45-28.45v-45.427l47.581-47.581h76.312l69.637 69.637v23.909l-65.318 65.318 17.44 17.441c4.479 4.479 10.554 6.996 16.889 6.996z" class="I J N W Z f"/><g fill="#409058"><path d="M1242.403 115.88a2.03 2.03 0 0 1-2.031-2.029v-6.352a2.03 2.03 0 1 1 4.062 0v6.352a2.03 2.03 0 0 1-2.031 2.029z" class="M"/><use href="#AV" class="M"/><path d="M1234.279 115.88a2.03 2.03 0 0 1-2.031-2.029v-4.236a2.03 2.03 0 1 1 4.062 0v4.236a2.03 2.03 0 0 1-2.031 2.029z" class="M"/></g><use href="#AW" class="O"/><g clip-path="url(#b)" class="B P"><use href="#AX" style="mix-blend-mode:multiply" class="Q"/></g><use href="#AY" class="B H"/><g clip-path="url(#c)"><path d="M1085.33 111.733l39.922 34.122h-39.922v-34.122z" class="B D"/><use href="#AZ" class="G"/><g class="B"><g class="F"><path d="M1106.199 143.264h-4.472v-7.515c0-1.233 1.002-2.234 2.236-2.234s2.236 1.001 2.236 2.234v7.515zm-8.944.331h-4.472v-14.829c0-1.233.999-2.232 2.234-2.232h.005c1.234 0 2.234.999 2.234 2.232v14.829z"/></g><g class="D"><use href="#Aa"/><path d="M1121.105,120.111v-4.468h-13.418c-1.234,0-2.234.999-2.234,2.232v.004c0,1.233.999,2.232,2.234,2.232h13.418Z"/></g></g></g><path d="M1085.33 123.515a17.81 17.81 0 0 1-5.223 12.6c-3.345 3.342-7.882 5.219-12.613 5.219h-17.939v-11.78a17.81 17.81 0 0 1 5.223-12.602c3.345-3.34 7.882-5.219 12.613-5.219h17.939v11.782z" class="B H"/><g clip-path="url(#d)"><path d="M1085.33 111.733l-39.922 34.122h39.922v-34.122z" class="B D"/><use href="#Ab" class="G"/><g class="B"><g class="F"><path d="M1064.462,143.264h4.472v-7.515c0-1.233-1.002-2.234-2.236-2.234s-2.236,1.001-2.236,2.234v7.515Z"/><use href="#Ac"/></g><g class="D"><use href="#Ad"/><path d="M1049.556,120.111v-4.468h13.415c.593,0,1.163.237,1.581.655.42.42.655.987.655,1.579s-.235,1.162-.655,1.579c-.418.42-.988.655-1.581.655h-13.415Z"/></g></g></g><path d="M1085.34 141.334l-10.715-7.802c-5.918-4.309-6.587-12.88-1.409-18.054l3.748-3.745h16.751l3.748 3.745c5.178 5.174 4.509 13.745-1.409 18.054l-10.715 7.802z" class="B G"/><g clip-path="url(#e)"><use href="#Ae" class="D"/><path d="M1083.095 108.506h4.472v38.966h-4.472z" class="R"/><use href="#Af" class="D"/><use href="#Ag" class="F"/><path d="M1069.476 138.242c-.728 0-1.444-.355-1.872-1.008-.678-1.033-.39-2.417.643-3.094l9.089-5.957c1.034-.681 2.419-.387 3.095.641s.39 2.417-.643 3.094l-9.089 5.957a2.22 2.22 0 0 1-1.223.367z" class="D"/><path d="M1101.183 138.242a2.22 2.22 0 0 1-1.223-.367l-9.086-5.957a2.23 2.23 0 1 1 2.452-3.735l9.086 5.957a2.23 2.23 0 0 1 .643 3.094c-.428.653-1.144 1.008-1.872 1.008z" class="F"/></g><path d="M1150.221 67.239h-13.107l-3.552 32.411a3.04 3.04 0 0 0 3.02 3.366h14.236c1.811 0 3.22-1.573 3.019-3.371l-3.616-32.406z" class="O"/><g clip-path="url(#f)" class="B P"><path d="M1143.709 90.668l-10.715-7.802c-5.918-4.309-6.587-12.88-1.409-18.054l3.748-3.745h16.751l3.748 3.745c5.178 5.174 4.509 13.745-1.409 18.054l-10.715 7.802z" style="mix-blend-mode:multiply" class="Q"/></g><path d="M1143.699 66.209a17.81 17.81 0 0 0 5.223 12.6c3.345 3.342 7.882 5.219 12.613 5.219h17.939v-11.78a17.81 17.81 0 0 0-5.223-12.602c-3.345-3.34-7.882-5.219-12.613-5.219h-17.939v11.782z" class="B H"/><g clip-path="url(#g)"><path d="M1143.699 54.427l39.922 34.122h-39.922V54.427z" class="B D"/><path d="M1142.303 56.152l2.827-3.461 35.755 29.201-2.827 3.461z" class="G"/><g class="B"><g class="F"><path d="M1164.568 85.958h-4.472v-7.515c0-1.233 1.002-2.234 2.236-2.234s2.236 1.001 2.236 2.234v7.515zm-8.944.33h-4.472V71.459c0-1.233.999-2.232 2.234-2.232h.005c1.234 0 2.234.999 2.234 2.232v14.829z"/></g><g class="D"><path d="M1179.474 71.504v-4.231h-6.826a2.12 2.12 0 0 0-1.498.621c-.396.395-.619.934-.619 1.495h0c0 .563.224 1.099.619 1.497a2.11 2.11 0 0 0 1.498.619h6.826zm0-8.7v-4.468h-13.418c-1.234 0-2.234.999-2.234 2.232v.004c0 1.233.999 2.232 2.234 2.232h13.418z"/></g></g></g><path d="M1143.699 66.209a17.81 17.81 0 0 1-5.223 12.6c-3.345 3.342-7.882 5.219-12.613 5.219h-17.939v-11.78a17.81 17.81 0 0 1 5.223-12.602c3.345-3.34 7.882-5.219 12.613-5.219h17.939v11.782z" class="B H"/><g clip-path="url(#h)"><path d="M1143.699 54.427l-39.922 34.122h39.922V54.427z" class="B D"/><path d="M1106.515 81.877L1142.29 52.7l2.824 3.463-35.775 29.176z" class="G"/><g class="B"><g class="F"><path d="M1122.831 85.958h4.472v-7.515c0-1.233-1.002-2.234-2.236-2.234s-2.236 1.001-2.236 2.234v7.515zm8.943.33h4.472V71.461a2.23 2.23 0 0 0-.655-1.579 2.24 2.24 0 0 0-3.162 0 2.23 2.23 0 0 0-.655 1.579v14.827z"/></g><g class="D"><path d="M1107.925 71.74v-4.468h6.71a2.23 2.23 0 0 1 1.579.655c.42.418.655.985.655 1.577v.004a2.23 2.23 0 0 1-2.234 2.231h-6.71zm0-8.936v-4.468h13.415a2.24 2.24 0 0 1 1.581.655 2.23 2.23 0 0 1 .655 1.579c0 .592-.235 1.162-.655 1.579a2.23 2.23 0 0 1-1.581.655h-13.415z"/></g></g></g><path d="M1143.709 84.028l-10.715-7.802c-5.918-4.309-6.587-12.88-1.409-18.054l3.748-3.745h16.751l3.748 3.745c5.178 5.174 4.509 13.745-1.409 18.054l-10.715 7.802z" class="B G"/><g clip-path="url(#i)"><path d="M1143.709 53.071h16.904v32.057h-16.904z" class="D"/><path d="M1141.464 51.2h4.472v38.966h-4.472z" class="R"/><path d="M1127.845 70.749c-.728 0-1.444-.355-1.872-1.008-.678-1.033-.39-2.417.643-3.094l9.089-5.957c1.034-.681 2.419-.387 3.095.641.678 1.033.39 2.417-.643 3.094l-9.089 5.957a2.22 2.22 0 0 1-1.223.367z" class="D"/><path d="M1159.553 70.749a2.22 2.22 0 0 1-1.223-.367l-9.086-5.957a2.23 2.23 0 1 1 2.452-3.735l9.086 5.957a2.23 2.23 0 0 1 .643 3.094c-.428.653-1.144 1.008-1.872 1.008z" class="F"/><path d="M1127.845 80.936c-.728 0-1.444-.355-1.872-1.008-.678-1.033-.39-2.417.643-3.094l9.089-5.957c1.034-.681 2.419-.387 3.095.641s.39 2.417-.643 3.094l-9.089 5.957a2.22 2.22 0 0 1-1.223.367z" class="D"/><path d="M1159.553 80.936a2.22 2.22 0 0 1-1.223-.367l-9.086-5.957a2.23 2.23 0 1 1 2.452-3.735l9.086 5.957a2.23 2.23 0 0 1 .643 3.094c-.428.653-1.144 1.008-1.872 1.008z" class="F"/></g><use href="#Ah" class="B N"/><path d="M1172.563 116.917h-13.107l-3.552 32.411a3.04 3.04 0 0 0 3.02 3.366h14.236c1.811 0 3.22-1.573 3.019-3.371l-3.616-32.406z" class="O"/><g clip-path="url(#j)" class="B P"><path d="M1166.052 140.346l-10.715-7.802c-5.918-4.309-6.587-12.88-1.409-18.054l3.748-3.745h16.751l3.748 3.745c5.178 5.174 4.509 13.745-1.409 18.054l-10.715 7.802z" style="mix-blend-mode:multiply" class="Q"/></g><path d="M1166.042 115.887a17.81 17.81 0 0 0 5.223 12.6c3.345 3.342 7.882 5.219 12.613 5.219h17.939v-11.78a17.81 17.81 0 0 0-5.223-12.602c-3.345-3.34-7.882-5.219-12.613-5.219h-17.939v11.782z" class="B H"/><g clip-path="url(#k)"><path d="M1166.042 104.105l39.922 34.122h-39.922v-34.122z" class="B D"/><path d="M1164.646 105.83l2.827-3.461 35.755 29.201-2.827 3.461z" class="G"/><g class="B"><g class="F"><path d="M1186.91 135.636h-4.472v-7.515c0-1.233 1.002-2.234 2.236-2.234s2.236 1.001 2.236 2.234v7.515zm-8.943.33h-4.472v-14.829c0-1.233.999-2.232 2.234-2.232h.005c1.234 0 2.234.999 2.234 2.232v14.829z"/></g><g class="D"><path d="M1201.816 121.181v-4.231h-6.826a2.12 2.12 0 0 0-1.498.621c-.396.395-.619.934-.619 1.495h0c0 .563.224 1.099.619 1.497a2.11 2.11 0 0 0 1.498.619h6.826zm0-8.699v-4.468h-13.418c-1.234 0-2.234.999-2.234 2.232v.004c0 1.233.999 2.232 2.234 2.232h13.418z"/></g></g></g><path d="M1166.042 115.887a17.81 17.81 0 0 1-5.223 12.6c-3.345 3.342-7.882 5.219-12.613 5.219h-17.939v-11.78a17.81 17.81 0 0 1 5.223-12.602c3.345-3.34 7.882-5.219 12.613-5.219h17.939v11.782z" class="B H"/><g clip-path="url(#l)"><path d="M1166.042 104.105l-39.922 34.122h39.922v-34.122z" class="B D"/><path d="M1128.858 131.555l35.775-29.176 2.824 3.463-35.775 29.176z" class="G"/><g class="B"><g class="F"><path d="M1145.173 135.636h4.472v-7.515c0-1.233-1.002-2.234-2.236-2.234s-2.236 1.001-2.236 2.234v7.515zm8.944.33h4.472v-14.827a2.23 2.23 0 0 0-.655-1.579 2.24 2.24 0 0 0-3.162 0 2.23 2.23 0 0 0-.655 1.579v14.827z"/></g><g class="D"><path d="M1130.267 121.418v-4.468h6.71a2.23 2.23 0 0 1 1.579.655c.42.418.655.985.655 1.577v.004a2.23 2.23 0 0 1-2.234 2.231h-6.71zm0-8.936v-4.468h13.415a2.24 2.24 0 0 1 1.581.655 2.23 2.23 0 0 1 .655 1.579c0 .592-.235 1.162-.655 1.579a2.23 2.23 0 0 1-1.581.655h-13.415z"/></g></g></g><path d="M1166.052 133.705l-10.715-7.802c-5.918-4.309-6.587-12.88-1.409-18.054l3.748-3.745h16.751l3.748 3.745c5.178 5.174 4.509 13.745-1.409 18.054l-10.715 7.802z" class="B G"/><g clip-path="url(#m)"><path d="M1166.052 102.749h16.904v32.057h-16.904z" class="D"/><path d="M1163.807 100.878h4.472v38.966h-4.472z" class="R"/><path d="M1150.188 120.427c-.728 0-1.444-.355-1.872-1.008-.678-1.033-.39-2.417.643-3.094l9.089-5.957c1.034-.681 2.419-.387 3.095.641s.39 2.417-.643 3.094l-9.089 5.957a2.22 2.22 0 0 1-1.223.367z" class="D"/><path d="M1181.895 120.427a2.22 2.22 0 0 1-1.223-.367l-9.086-5.957a2.23 2.23 0 1 1 2.452-3.735l9.086 5.957a2.23 2.23 0 0 1 .643 3.094c-.428.653-1.144 1.008-1.872 1.008z" class="F"/><path d="M1150.188 130.614c-.728 0-1.444-.355-1.872-1.008-.678-1.033-.39-2.417.643-3.094l9.089-5.957c1.034-.681 2.419-.387 3.095.641s.39 2.417-.643 3.094l-9.089 5.957a2.22 2.22 0 0 1-1.223.367z" class="D"/><path d="M1181.895 130.614a2.22 2.22 0 0 1-1.223-.367l-9.086-5.957a2.23 2.23 0 1 1 2.452-3.735l9.086 5.957a2.23 2.23 0 0 1 .643 3.094c-.428.653-1.144 1.008-1.872 1.008z" class="F"/></g><g class="B"><path d="M1178.111 144.875a4.38 4.38 0 0 0-4.369 4.365 4.38 4.38 0 0 0-4.369-4.365 4.38 4.38 0 0 0-4.369 4.365 4.38 4.38 0 0 0-4.369-4.365 4.38 4.38 0 0 0-4.369 4.365 4.38 4.38 0 0 0-4.369-4.365 4.38 4.38 0 0 0-4.369 4.365l3.949 3.453 10.159 1.088 14.562-.72 6.282-3.822a4.38 4.38 0 0 0-4.369-4.365z" class="N"/><path d="M1275.615,138.998c-20.136,0-36.459,10.749-36.459,24.01s16.323,24.01,36.459,24.01,36.459-10.75,36.459-24.01-16.323-24.01-36.459-24.01Z" style="mix-blend-mode:multiply" fill="#cbdcec"/><path d="M1275.615,132.201c-20.418,0-36.97,11.789-36.97,26.333s16.552,26.333,36.969,26.333,36.97-11.789,36.97-26.333-16.552-26.333-36.969-26.333Z" fill="#312d4d"/><path d="M1275.615,128.993c-20.418,0-36.97,11.789-36.97,26.333s16.552,26.333,36.969,26.333,36.97-11.789,36.97-26.333-16.552-26.333-36.969-26.333Z" class="U"/></g><g clip-path="url(#n)"><g class="C I J c"><g class="i"><path style="mix-blend-mode:multiply" d="M1290.593 110.398v91.497m-29.956-91.497v91.497" class="S"/></g><g class="d"><path style="mix-blend-mode:multiply" d="M1232.408 144.544h87.566m-87.566-10.835h87.566" class="S"/></g></g><path style="mix-blend-mode:multiply" d="M1318.043 137.321l-86.787 41.263 82.289 10.345 4.498-51.608z" opacity=".148" class="B U"/></g><rect x="873.21" y="94.771" width="31.716" height="18.667" rx="9.333" class="N"/></g></svg>