<svg xmlns="http://www.w3.org/2000/svg" width="1500" height="145" xmlns:v="https://vecta.io/nano"><style><![CDATA[.B{fill:none}.C{fill-rule:evenodd}.D{fill:#fff}.E{clip-rule:evenodd}.F{fill:#9bdceb}.G{opacity:.5}.H{stroke-linejoin:round}.I{opacity:.412}.J{stroke:#4a488a}.K{opacity:.188}.L{fill:#d8f2fb}.M{fill:#50b0b8}.N{stroke:#fff}.O{stroke-miterlimit:10}.P{fill:#74dddc}.Q{stroke-linecap:round}.R{stroke-width:3.59}.S{stroke-width:3.441}.T{stroke-width:1.72}.U{stroke-width:7.179}]]></style><defs><clipPath id="A"><path d="M0 0h1500v145H0z" class="B"/></clipPath><clipPath id="B"><path d="M1093.766-40.489c-21.708,0-39.305,13.553-39.305,30.273s17.598,30.273,39.305,30.273,39.305-13.554,39.305-30.273-17.598-30.273-39.305-30.273Z" class="B E"/></clipPath><clipPath id="C"><path d="M1080.293-13.983h28.384v30.608h-28.384z" class="B"/></clipPath><clipPath id="D"><path d="M1080.284-32.611v47.329l28.403-.526v-46.803h-28.403z" class="B E"/></clipPath><clipPath id="E"><path d="M1093.766-65.166c-20.418,0-36.97,11.789-36.97,26.333s16.552,26.333,36.969,26.333,36.97-11.789,36.97-26.333-16.552-26.333-36.969-26.333Z" class="B E"/></clipPath><clipPath id="F"><path d="M1197.005-40.489c-21.708,0-39.305,13.553-39.305,30.273s17.598,30.273,39.305,30.273,39.305-13.554,39.305-30.273-17.598-30.273-39.305-30.273Z" class="B E"/></clipPath><clipPath id="G"><path d="M1183.532-13.983h28.384v30.608h-28.384z" class="B"/></clipPath><clipPath id="H"><path d="M1183.523-32.611v47.329l28.403-.526v-46.803h-28.403z" class="B E"/></clipPath><clipPath id="I"><path d="M1197.005-65.166c-20.418,0-36.97,11.789-36.97,26.333s16.552,26.333,36.969,26.333,36.97-11.789,36.97-26.333-16.552-26.333-36.969-26.333Z" class="B E"/></clipPath><path id="J" d="M1123.32,30.675h-5.861c-2.455,0-4.444-1.989-4.444-4.444s1.989-4.444,4.444-4.444h5.861c2.455,0,4.444,1.989,4.444,4.444s-1.989,4.444-4.444,4.444Z"/><path id="K" d="M1064.741 2.941h4.801V26.23h-4.801z"/><path id="L" d="M1093.766-37.414c-21.708,0-39.305,13.553-39.305,30.273s17.598,30.273,39.305,30.273,39.305-13.554,39.305-30.273-17.598-30.273-39.305-30.273Z"/><path id="M" d="M1049.983-26.297h87.565v49.698h-87.565z"/><path id="N" d="M1093.766-39.537c-20.136,0-36.459,12.572-36.459,28.081s16.323,28.081,36.459,28.081,36.459-12.572,36.459-28.081-16.323-28.081-36.459-28.081Z"/><path id="O" d="M1057.307-21.146c0,15.015,16.323,27.187,36.459,27.187s36.459-12.172,36.459-27.187-16.323-27.187-36.459-27.187-36.459,12.172-36.459,27.187Z"/><path id="P" d="M1060.996-20.76c0,11.902,14.671,21.55,32.771,21.55s32.771-9.648,32.771-21.55-14.672-21.55-32.771-21.55-32.771,9.648-32.771,21.55Z"/><path id="Q" d="M1057.307-11.287c0,15.416,16.323,27.913,36.46,27.913s36.46-12.497,36.46-27.912-16.323-27.913-36.46-27.913-36.46,12.497-36.46,27.912Z"/><path id="R" d="M1082.304-26.01V14.585s5.454-2.844,12.181-2.844h0c6.727,0,12.181,2.844,12.181,2.844V-26.01h-24.362Z"/><path id="S" d="M1080.293,14.646l2.011-1.09s5.454-2.844,12.181-2.844h0c6.727,0,12.181,2.844,12.181,2.844l2.011.635-6.567.394-16.297.642-5.521-.581Z"/><path id="T" d="M1078.273-10.916h2.826V5.351h-2.826z"/><path id="U" d="M1075.284-14.879h5.242V7.018h-5.242z"/><path id="V" d="M1105.246-29.17v40.84c-2.344.648-6.314 1.515-10.761 1.515-4.703 0-8.49-.625-10.761-1.123V-29.17h21.522m3.441-3.441h-28.403v47.329s5.674 1.907 14.202 1.907c7.843 0 14.202-2.434 14.202-2.434v-46.803h0z"/><path id="W" d="M1091.447 16.561h-11.154l16.521-38.333h11.153l-16.52 38.333z"/></defs><g clip-path="url(#A)"><path d="M-10.125-3884.564h1520.249V164.918H-10.125z" fill="#61d1d5"/><path d="M155.91 51.098c-14.273 0-25.885-11.602-25.885-25.865S141.637-.63 155.91-.63h13.034c14.275 0 25.887 11.602 25.887 25.863s-11.612 25.865-25.887 25.865H155.91z" class="C P"/><rect x="146.569" y="15.901" width="31.716" height="18.667" rx="9.333" fill="#fcf4c7"/><path d="M835.702-47.696l78.808 78.808c6.734 6.734 15.866 10.516 25.389 10.516h91.182a89.85 89.85 0 0 1 63.534 26.317h0a89.85 89.85 0 0 0 63.534 26.317h147.728a112.95 112.95 0 0 0 79.867-33.082l56.86-56.86a112.95 112.95 0 0 0 33.082-79.867h0a112.95 112.95 0 0 0-33.082-79.867l-54.178-54.178a112.95 112.95 0 0 0-79.867-33.082h-226.402c-23.83 0-46.684 9.466-63.534 26.317l-96.851 96.851c-6.734 6.734-15.866 10.516-25.389 10.516h-35.291c-19.83 0-35.905 16.075-35.905 35.905h0a35.91 35.91 0 0 0 10.516 25.389z" class="P"/><path d="M1323.713 18.837h38.813c6.335 0 12.41-2.516 16.89-6.996l50.464-50.464c4.479-4.479 6.996-10.554 6.996-16.889v-22.756a23.88 23.88 0 0 0-6.996-16.889l-87.219-87.219c-4.479-4.479-10.554-6.996-16.889-6.996h-21.094a23.88 23.88 0 0 1-16.889-6.996l-5.126-5.126c-4.479-4.479-10.554-6.996-16.889-6.996h-133.77c-6.237 0-12.225 2.439-16.687 6.796l-53.078 51.831c-4.602 4.494-7.197 10.656-7.197 17.089v38.663a23.88 23.88 0 0 0 6.996 16.889l34.215 34.215h36.471l28.45-28.45v-45.427l47.581-47.581h76.312l69.637 69.637v23.909l-65.318 65.318 17.44 17.441c4.479 4.479 10.554 6.996 16.889 6.996z" fill="#50b06d" stroke="#50b06d" stroke-dasharray="0 10" stroke-width="10" class="H Q"/><g class="I D"><use href="#J"/></g><g class="I D"><path d="M1070.072,30.675h-5.861c-2.455,0-4.444-1.989-4.444-4.444s1.989-4.444,4.444-4.444h5.861c2.455,0,4.444,1.989,4.444,4.444s-1.989,4.444-4.444,4.444Z"/></g><g fill="#2e2f5c"><use href="#K"/><path d="M1117.989 2.941h4.801V26.23h-4.801z"/></g><use href="#L" fill="#55529c" class="C"/><g clip-path="url(#B)"><use href="#M" fill="#424181"/><g class="B H J R"><path style="mix-blend-mode:multiply" d="M1049.983-1.447h87.565m-87.565 8.426h87.565m-87.565 8.427h87.565" class="K"/></g></g><g class="C"><use href="#N" class="L"/><use href="#O" class="F"/><use href="#P" class="G M"/></g><g clip-path="url(#C)" class="C F"><use href="#Q"/></g><g class="C"><use href="#R" class="G M"/><use href="#S" fill="#7f7db4" class="G"/></g><g class="F"><use href="#T"/><path d="M1107.922-10.916h2.826V5.351h-2.826z"/></g><g class="L"><use href="#U"/><path d="M1108.495-14.879h5.242V7.018h-5.242z"/></g><use href="#V" class="D"/><path d="M1094.485 15.763v-30.726" class="B N O S"/><g opacity=".35" class="C D"><g clip-path="url(#D)"><use href="#W"/></g></g><rect x="1098.607" y=".427" width=".992" height="2.431" rx=".496" class="B N O T"/><g clip-path="url(#E)" class="B H J Q U"><path style="mix-blend-mode:multiply" d="M1108.743-83.761V7.737m-29.955-91.498V7.737" class="K"/></g><g class="I D"><path d="M1226.559,30.675h-5.861c-2.455,0-4.444-1.989-4.444-4.444s1.989-4.444,4.444-4.444h5.861c2.455,0,4.444,1.989,4.444,4.444s-1.989,4.444-4.444,4.444Z"/></g><g class="I D"><path d="M1173.311,30.675h-5.861c-2.455,0-4.444-1.989-4.444-4.444s1.989-4.444,4.444-4.444h5.861c2.455,0,4.444,1.989,4.444,4.444s-1.989,4.444-4.444,4.444Z"/></g><g fill="#2e2f5c"><path d="M1167.98 2.941h4.801V26.23h-4.801zm53.248 0h4.801V26.23h-4.801z"/></g><path d="M1197.005-37.414c-21.708,0-39.305,13.553-39.305,30.273s17.598,30.273,39.305,30.273,39.305-13.554,39.305-30.273-17.598-30.273-39.305-30.273Z" fill="#55529c" class="C"/><g clip-path="url(#F)"><path d="M1153.222-26.297h87.565v49.698h-87.565z" fill="#424181"/><g class="B H J R"><path style="mix-blend-mode:multiply" d="M1153.222-1.447h87.565m-87.565 8.426h87.565m-87.565 8.427h87.565" class="K"/></g></g><g class="C"><path d="M1197.005-39.537c-20.136,0-36.459,12.572-36.459,28.081s16.323,28.081,36.459,28.081,36.459-12.572,36.459-28.081-16.323-28.081-36.459-28.081Z" class="L"/><path d="M1160.546-21.146c0,15.015,16.323,27.187,36.459,27.187s36.459-12.172,36.459-27.187-16.323-27.187-36.459-27.187-36.459,12.172-36.459,27.187Z" class="F"/><path d="M1164.235-20.76c0,11.902,14.671,21.55,32.771,21.55s32.771-9.648,32.771-21.55-14.672-21.55-32.771-21.55-32.771,9.648-32.771,21.55Z" class="G M"/></g><g clip-path="url(#G)" class="C F"><path d="M1160.546-11.287c0,15.416,16.323,27.913,36.46,27.913s36.46-12.497,36.46-27.912-16.323-27.913-36.46-27.913-36.46,12.497-36.46,27.912Z"/></g><g class="C"><path d="M1185.543-26.01V14.585s5.454-2.844,12.181-2.844h0c6.727,0,12.181,2.844,12.181,2.844V-26.01h-24.362Z" class="G M"/><path d="M1183.532,14.646l2.011-1.09s5.454-2.844,12.181-2.844h0c6.727,0,12.181,2.844,12.181,2.844l2.011.635-6.567.394-16.297.642-5.521-.581Z" fill="#7f7db4" class="G"/></g><g class="F"><path d="M1181.512-10.916h2.826V5.351h-2.826zm29.649 0h2.826V5.351h-2.826z"/></g><g class="L"><path d="M1178.523-14.879h5.242V7.018h-5.242zm33.211 0h5.242V7.018h-5.242z"/></g><path d="M1208.485-29.17v40.84c-2.344.648-6.314 1.515-10.761 1.515-4.703 0-8.49-.625-10.761-1.123V-29.17h21.522m3.441-3.441h-28.403v47.329s5.674 1.907 14.202 1.907c7.843 0 14.202-2.434 14.202-2.434v-46.803h0z" class="D"/><path d="M1197.724 15.763v-30.726" class="B N O S"/><g opacity=".35" class="C D"><g clip-path="url(#H)"><path d="M1194.686 16.561h-11.154l16.521-38.333h11.153l-16.52 38.333z"/></g></g><rect x="1201.846" y=".427" width=".992" height="2.431" rx=".496" class="B N O T"/><g clip-path="url(#I)" class="B H J Q U"><path style="mix-blend-mode:multiply" d="M1211.982-83.761V7.737m-29.955-91.498V7.737" class="K"/></g><rect x="954.292" y="66.788" width="96.888" height="44.231" rx="22.115" class="P"/></g></svg>