<svg xmlns="http://www.w3.org/2000/svg" width="1500" height="145" xmlns:v="https://vecta.io/nano"><style><![CDATA[.B{fill-rule:evenodd}.C{fill:none}.D{fill:#839d24}.E{opacity:.5}.F{clip-rule:evenodd}.G{fill:#4d7c3d}.H{fill:#bdd033}.I{stroke-linecap:round}.J{stroke-linejoin:round}.K{opacity:.75}.L{stroke-width:10}.M{fill:#abc02e}.N{fill:#52ab35}.O{stroke:#52ab35}.P{fill:#dc5b8a}.Q{stroke-dasharray:0 10}.R{fill:#f9e840}.S{fill:#6b4c46}.T{fill:#594237}.U{fill:#d6e23d}.V{stroke-width:1.844}.W{fill:#1a30c3}.X{stroke-linejoin:bevel}.Y{stroke-width:7.535}.Z{stroke-width:9.042}]]></style><defs><clipPath id="A"><path d="M0 0h1500v145H0z" class="C"/></clipPath><clipPath id="B"><path d="M110.422 4.162h18.181l4.927 44.959c.273 2.492-1.68 4.668-4.189 4.668h-19.747c-2.512 0-4.466-2.182-4.188-4.677l5.015-44.95z" class="C"/></clipPath><clipPath id="C"><path d="M119.468 2.528c0 6.428-2.555 12.596-7.106 17.143s-10.723 7.1-17.16 7.1H70.796V10.744c0-6.432 2.555-12.599 7.106-17.146a24.29 24.29 0 0 1 17.16-7.1h24.406v16.03z" class="C F"/></clipPath><clipPath id="D"><path d="M119.468 2.528c0 6.428 2.555 12.596 7.106 17.143s10.723 7.1 17.16 7.1h24.406V10.744c0-6.432-2.555-12.599-7.106-17.146a24.29 24.29 0 0 0-17.16-7.1h-24.406v16.03z" class="C F"/></clipPath><clipPath id="E"><path d="M119.454 26.77l14.578-10.615c8.052-5.863 8.962-17.524 1.917-24.563l-5.099-5.095h-22.79l-5.099 5.095c-7.045 7.039-6.135 18.7 1.917 24.563l14.578 10.615z" class="C F"/></clipPath><clipPath id="F"><path d="M152.358 207.439a6.34 6.34 0 0 1-4.677-2.059 6.33 6.33 0 0 1-1.637-4.838l23.823-266.785c.465-5.207 4.828-9.165 10.06-9.165h21.874a10.1 10.1 0 0 1 10.068 9.256l4.279 51.31h15.559a7.5 7.5 0 0 1 6.719 4.141l7.035 14.058c.657 1.312 1.038 2.745 1.119 4.21l4.928 88.628 27.528 7.858a10.79 10.79 0 0 1 7.831 10.38v86.672c0 1.68-.668 3.291-1.857 4.478a6.34 6.34 0 0 1-4.482 1.855H152.357z" class="C F"/></clipPath><clipPath id="G"><path d="M665.831.532L624.474-36.08h-2.719L580.398.532v33.873a3 3 0 0 0 .879 2.121c.565.565 1.329.881 2.126.881h79.423c.797 0 1.56-.316 2.126-.881s.88-1.325.88-2.121V.532z" class="C F"/></clipPath><clipPath id="H"><path d="M561.031 43.792h18.181l4.927 44.959c.273 2.492-1.68 4.668-4.189 4.668h-19.747c-2.512 0-4.466-2.182-4.188-4.677l5.015-44.95z" class="C"/></clipPath><clipPath id="I"><path d="M570.077 42.158c0 6.428-2.555 12.596-7.106 17.143s-10.723 7.1-17.16 7.1h-24.406V50.374c0-6.432 2.555-12.599 7.106-17.146a24.29 24.29 0 0 1 17.16-7.1h24.406v16.03z" class="C F"/></clipPath><clipPath id="J"><path d="M570.077 42.158c0 6.428 2.555 12.596 7.106 17.143s10.723 7.1 17.16 7.1h24.406V50.374c0-6.432-2.555-12.599-7.106-17.146a24.29 24.29 0 0 0-17.16-7.1h-24.406v16.03z" class="C F"/></clipPath><clipPath id="K"><path d="M570.063 66.401l14.578-10.615c8.052-5.863 8.962-17.524 1.917-24.563l-5.099-5.095h-22.79l-5.099 5.095c-7.045 7.039-6.135 18.7 1.917 24.563l14.578 10.615z" class="C F"/></clipPath><clipPath id="L"><path d="M800.207.532L758.85-36.08h-2.719L714.774.532v33.873a3 3 0 0 0 .879 2.121c.565.565 1.329.881 2.126.881h79.423c.797 0 1.56-.316 2.126-.881s.88-1.325.88-2.121V.532z" class="C F"/></clipPath><clipPath id="M"><path d="M725.485 43.792h18.181l4.927 44.959c.273 2.492-1.68 4.668-4.189 4.668h-19.747c-2.512 0-4.466-2.182-4.188-4.677l5.015-44.95z" class="C"/></clipPath><clipPath id="N"><path d="M734.53 42.158c0 6.428-2.555 12.596-7.106 17.143s-10.723 7.1-17.16 7.1h-24.406V50.374c0-6.432 2.555-12.599 7.106-17.146a24.29 24.29 0 0 1 17.16-7.1h24.406v16.03z" class="C F"/></clipPath><clipPath id="O"><path d="M734.53 42.158c0 6.428 2.555 12.596 7.106 17.143s10.723 7.1 17.16 7.1h24.406V50.374c0-6.432-2.555-12.599-7.106-17.146a24.29 24.29 0 0 0-17.16-7.1H734.53v16.03z" class="C F"/></clipPath><clipPath id="P"><path d="M734.517 66.401l14.578-10.615c8.052-5.863 8.962-17.524 1.917-24.563l-5.099-5.095h-22.79l-5.099 5.095c-7.045 7.039-6.135 18.7 1.917 24.563l14.578 10.615z" class="C F"/></clipPath><clipPath id="Q"><path d="M646.734 92.675h18.181l4.927 44.959c.273 2.492-1.68 4.668-4.189 4.668h-19.747c-2.512 0-4.466-2.182-4.188-4.677l5.015-44.95z" class="C"/></clipPath><clipPath id="R"><path d="M655.78 91.041c0 6.428-2.555 12.596-7.106 17.143s-10.723 7.1-17.16 7.1h-24.406V99.257c0-6.432 2.555-12.599 7.106-17.146a24.29 24.29 0 0 1 17.16-7.1h24.406v16.03z" class="C F"/></clipPath><clipPath id="S"><path d="M655.78 91.041c0 6.428 2.555 12.596 7.106 17.143s10.723 7.1 17.16 7.1h24.406V99.257c0-6.432-2.555-12.599-7.106-17.146a24.29 24.29 0 0 0-17.16-7.1H655.78v16.03z" class="C F"/></clipPath><clipPath id="T"><path d="M655.766 115.284l14.578-10.615c8.052-5.863 8.962-17.524 1.917-24.563l-5.099-5.095h-22.79l-5.099 5.095c-7.045 7.039-6.135 18.7 1.917 24.563l14.578 10.615z" class="C F"/></clipPath><clipPath id="U"><path d="M87.912 108.97a4.2 4.2 0 0 1 1.849 2.179l4.072 10.948-3.068 2.301-4.428-11.071a1.37 1.37 0 0 0-.578-.673l-11.87-7.036.767-4.231 13.255 7.585z" class="C F"/></clipPath><clipPath id="V"><path d="M71.898 111.67c-.65.881-1.77 1.281-2.832 1.011l-9.75-2.48.767-3.78 9.306 2.444 11.405-16.684 1.534 5.37-10.43 14.12z" class="C F"/></clipPath><path id="W" d="M320.52 52.875c1.232 0 2.231-1 2.231-2.236v-7.001c0-1.236-.999-2.236-2.231-2.236s-2.231 1-2.231 2.236v7.001c0 1.236.999 2.236 2.231 2.236z"/><path id="X" d="M311.206 52.875c1.232 0 2.231-1 2.231-2.236v-4.667c0-1.236-.999-2.236-2.231-2.236s-2.231 1-2.231 2.236v4.667c0 1.236.999 2.236 2.231 2.236z"/><path id="Y" d="M303.927 71.353c1.232 0 2.231-1 2.231-2.236v-4.669c0-1.236-.999-2.236-2.231-2.236s-2.231 1-2.231 2.236v4.669c0 1.236.999 2.236 2.231 2.236z"/><path id="Z" d="M504.44 110.248h4.082v10.229h-4.082z"/><path id="a" d="M110.422 4.162h18.181l4.927 44.959c.273 2.492-1.68 4.668-4.189 4.668h-19.747c-2.512 0-4.466-2.182-4.188-4.677l5.015-44.95z"/><path id="b" d="M68.885 23.856l48.646-39.73 3.846 4.709-48.646 39.73z"/><path id="c" d="M117.545-11.147l3.843-4.712 48.673 39.696-3.843 4.712z"/><path id="d" d="M119.454 26.77l14.578-10.615c8.052-5.863 8.962-17.524 1.917-24.563l-5.099-5.095h-22.79l-5.099 5.095c-7.045 7.039-6.135 18.7 1.917 24.563l14.578 10.615z"/><path id="e" d="M116.424-17.893h6.084v53.015h-6.084z"/><path id="f" d="M141.038 8.704c.99 0 1.965-.483 2.547-1.371.923-1.405.531-3.289-.875-4.209l-12.366-8.105a3.04 3.04 0 0 0-4.211.873c-.923 1.405-.531 3.289.875 4.209l12.366 8.105c.515.338 1.093.499 1.664.499z"/><path id="g" d="M577.885-.251h90.459v7.532h-90.459z"/><path id="h" d="M640.704 14.812h15.076v15.064h-15.076z"/><path id="i" d="M590.449 27.33h15.076v2.546h-15.076z"/><path id="j" d="M570.063 76.291l14.862-10.822c8.209-5.977 9.137-17.867 1.954-25.043l-5.199-5.195h-23.236l-5.199 5.195c-7.183 7.177-6.255 19.066 1.954 25.043l14.862 10.822z"/><path id="k" d="M570.077 42.158c0 6.428-2.555 12.596-7.106 17.143s-10.723 7.1-17.16 7.1h-24.406V50.374c0-6.432 2.555-12.599 7.106-17.146a24.29 24.29 0 0 1 17.16-7.1h24.406v16.03z"/><path id="l" d="M541.684 69.027h6.084V58.802c0-1.678-1.363-3.039-3.042-3.039s-3.042 1.362-3.042 3.039v10.225z"/><path id="m" d="M553.852 69.477h6.084V49.301c0-1.678-1.36-3.036-3.039-3.036h-.006c-1.679 0-3.039 1.359-3.039 3.036v20.176z"/><path id="n" d="M521.404 49.361v-5.757h9.287c.764 0 1.497.304 2.038.845a2.88 2.88 0 0 1 .843 2.033h0a2.88 2.88 0 0 1-.843 2.036c-.542.541-1.275.842-2.038.842h-9.287z"/><path id="o" d="M521.404 37.526v-6.079h18.255c1.679 0 3.039 1.359 3.039 3.036v.006c0 1.678-1.36 3.036-3.039 3.036h-18.255z"/><path id="p" d="M598.469 69.027h-6.084V58.802c0-1.678 1.363-3.039 3.042-3.039s3.042 1.362 3.042 3.039v10.225z"/><path id="q" d="M586.301 69.477h-6.084V49.304c0-.805.319-1.577.891-2.149a3.05 3.05 0 0 1 2.151-.891c.806 0 1.582.322 2.151.891s.891 1.343.891 2.149v20.173z"/><path id="r" d="M618.749 49.684v-6.079h-9.129c-.806 0-1.579.319-2.148.891a3.02 3.02 0 0 0-.891 2.146v.006c0 .805.319 1.577.891 2.149a3.04 3.04 0 0 0 2.148.888h9.129z"/><path id="s" d="M618.749 37.526v-6.079h-18.252c-.806 0-1.582.322-2.151.891s-.891 1.343-.891 2.149a3.03 3.03 0 0 0 .891 2.149 3.04 3.04 0 0 0 2.151.891h18.252z"/><path id="t" d="M548.507,48.334c.57,0,1.149-.16,1.664-.499l12.362-8.105c1.406-.92,1.798-2.804.875-4.209-.919-1.399-2.792-1.801-4.211-.873l-12.362,8.105c-1.406.92-1.798,2.804-.875,4.209.582.888,1.557,1.371,2.547,1.371Z"/><path id="u" d="M548.507,62.194c.57,0,1.149-.16,1.664-.499l12.362-8.105c1.406-.92,1.798-2.804.875-4.209-.919-1.399-2.792-1.801-4.211-.873l-12.362,8.105c-1.406.92-1.798,2.804-.875,4.209.582.888,1.557,1.371,2.547,1.371Z"/><path id="v" d="M93.143 97.068c.446-.835 1.485-1.15 2.32-.703a1.72 1.72 0 0 1 .703 2.324c-.446.835-1.485 1.15-2.32.703a1.72 1.72 0 0 1-.703-2.324z"/><path id="w" d="M1093.389 51.074l.839-.838-.839-.838c-.357-.357-.841-.557-1.346-.557h-6.488c-.852 0-1.669.338-2.272.94l-.483.483.427.427c.603.602 1.42.94 2.272.94h6.544c.505 0 .989-.2 1.346-.557z"/><path id="x" d="M1111.139 53.228h-6.488c-.852 0-1.669.338-2.272.94l-.483.483.427.427c.603.602 1.42.94 2.272.94h6.544c.505 0 .99-.2 1.347-.557l.839-.838-.839-.838c-.357-.357-.842-.557-1.347-.557z"/><path id="y" d="M1154.57 39.362h-6.488c-.852 0-1.669.338-2.272.94l-.483.483.427.427c.603.602 1.42.94 2.272.94h6.544c.505 0 .99-.2 1.347-.557l.839-.838-.839-.838c-.357-.357-.841-.557-1.347-.557z"/><path id="z" d="M1139.962 51.702h-6.488c-.852 0-1.67.338-2.272.94l-.483.483.427.427c.603.602 1.42.94 2.272.94h6.544c.505 0 .99-.2 1.347-.557l.839-.838-.839-.838c-.357-.357-.841-.557-1.347-.557z"/></defs><g clip-path="url(#A)"><path d="M-10.125-1274.564h1520.249v4049.482H-10.125z" fill="#61d1d5"/><path d="M1209.742-583.582c-76.136 0-138.076 61.941-138.076 138.077 0 9.374-7.626 17-17 17H948.403c-9.374 0-17-7.626-17-17v-2.009c0-36.943-30.057-67-67-67h-75.775c-41.992 0-76.156-34.163-76.156-76.156v-85.988c0-34.188-27.813-62-62-62H505.54c-34.187 0-62 27.812-62 62v1.583c0 6.616-5.383 12-12 12h-77.199c-41.355 0-75 33.645-75 75v1.615c0 6.616-5.383 12-12 12H-56.875v1900.227h125.29c19.299 0 35 15.701 35 35v28.562c0 46.869 38.131 85 85 85h282.678c46.869 0 85-38.131 85-85v-4.012c0-19.299 15.701-35 35-35h100.898c106.145 0 192.5-86.354 192.5-192.5 0-13.785 11.215-25 25-25h189.302c13.785 0 25 11.215 25 25v6.941c0 13.785-11.215 25-25 25h-1.646c-41.355 0-75 33.646-75 75.001v134.569c0 41.355 33.645 75 75 75h68.108c41.355 0 75-33.645 75-75 0-34.095 27.737-61.833 61.832-61.833h254.837V-583.582h-347.181z" fill="#7ee6e4"/><path d="M1045.191-8.972h0c0-51.28 41.571-92.851 92.85-92.851h57.665c32.387 0 58.642-26.255 58.642-58.642h0c0-32.387 26.255-58.642 58.642-58.642h218.932v-339.474h-322.181c-62.45 0-113.076 50.626-113.076 113.076h0c0 23.196-18.804 42-42 42H948.403c-23.196 0-42-18.804-42-42v-2.009c0-23.196-18.804-42-42-42h-75.776c-55.867 0-101.156-45.289-101.156-101.156v-85.988c0-20.435-16.565-37-37-37H505.539c-20.435 0-37 16.565-37 37v1.583c0 20.435-16.565 37-37 37H354.34c-27.614 0-50 22.386-50 50v1.615c0 20.435-16.565 37-37 37H-31.875v1850.227H68.414c33.137 0 60 26.863 60 60v28.561c0 33.137 26.863 60 60 60h282.678c33.137 0 60-26.863 60-60v-4.011c0-33.137 26.863-60 60-60H691.99c92.508 0 167.5-74.992 167.5-167.5h0c0-27.614 22.386-50 50-50h189.302c27.614 0 50 22.386 50 50v6.942c0 27.614-22.386 50-50 50h-1.647c-27.614 0-50 22.386-50 50v134.57c0 27.614 22.386 50 50 50h68.108c27.614 0 50-22.386 50-50h0c0-47.956 38.876-86.832 86.832-86.832h229.837V984.46c0-39.064-31.668-70.732-70.732-70.732h-323.15c-50.932 0-92.285-41.008-92.845-91.807l-.006-830.892z" fill="#fbed97"/><path d="M1209.742-498.581c-29.313 0-53.076 23.763-53.076 53.076h0c0 56.333-45.667 102-102 102H701.078c-40.652 0-73.606-32.955-73.606-73.606v-210.547c0-14.359-11.641-26-26-26H545.03c-10.394 0-19.895 6.146-23.89 15.742-14.612 35.099-49.272 59.841-89.6 59.841h-46.653c-11.17 0-21.157 7.295-24.204 18.042-11.534 40.685-49.013 70.574-93.342 70.574H-1.979l-11.374 1742.34 115.314-.491c49.895 14.55 86.454 60.7 86.454 115.229v.695c.001 13.259 10.754 24.004 24.013 23.997l236.679-.131c11.698-.007 21.708-8.443 23.64-19.98 9.508-56.77 58.875-100.032 118.346-100.032h100.898c59.37 0 107.5-48.129 107.5-107.5h0c0-60.752 49.249-110 110-110h189.003c21.384 0 38.798-17.186 39.08-38.568h0c.246-18.686-12.768-34.942-31.062-38.758-28.801-6.009-55.263-20.244-76.552-41.532-28.243-28.244-44.073-65.595-44.746-105.431-.015-.883-.022-838.466-.022-839.351 0-40.828 15.899-79.212 44.769-108.081s67.254-44.769 108.082-44.769h28.622c14.589 0 27.327-10.069 30.48-24.313 11.76-53.123 59.237-92.972 115.846-92.972h312.76v-219.474h-416.008z" fill="#62c244"/><g stroke="#62c244" class="C I J L"><path d="M-2.045-479.447l-11.276 1727.321" stroke-dasharray="0 10.014"/><path d="M-3.347 1252.838l105.307-.449c49.895 14.55 86.454 60.7 86.454 115.229v.695c.001 13.259 10.754 24.004 24.013 23.997l236.679-.131c11.698-.007 21.708-8.443 23.64-19.98 9.508-56.77 58.875-100.032 118.346-100.032H691.99c59.37 0 107.5-48.129 107.5-107.5h0c0-60.751 49.249-110 110-110h189.003c21.384 0 38.798-17.186 39.08-38.568.246-18.686-12.768-34.942-31.062-38.758-28.801-6.009-55.263-20.244-76.552-41.532-28.243-28.244-44.073-65.594-44.746-105.431-.015-.882-.022-838.466-.022-839.351 0-40.828 15.899-79.212 44.769-108.081s67.254-44.769 108.082-44.769h28.623c14.589 0 27.327-10.069 30.48-24.313 11.76-53.123 59.237-92.972 115.846-92.972h307.757" stroke-dasharray="0 10.007"/></g><path d="M914.223-168.219v250.57c0 30.12-24.417 54.537-54.537 54.537h-80.08c-29.292 0-53.038 23.746-53.038 53.038v153.905c0 29.292-23.746 53.038-53.038 53.038H490.044c-37.785 0-68.416 30.631-68.416 68.416h0c0 37.785-30.631 68.416-68.416 68.416h-33.231c-37.785 0-68.416-30.631-68.416-68.416v-84.054c0-37.785-30.631-68.416-68.416-68.416H5.265c-15.114 0-27.366-12.252-27.366-27.366v-713.411h290.764c35.899 0 65 29.101 65 65v20.473c0 35.899 29.101 65 65 65h257.533c15.114 0 27.366 12.252 27.366 27.366h0c0 15.114 12.252 27.366 27.366 27.366h148.757c30.12 0 54.537 24.417 54.537 54.537z" class="N"/><path d="M-12.116-427.962h280.778c35.898 0 65 29.101 65 65v20.473c0 35.898 29.101 65 65 65h257.533c15.114 0 27.366 12.252 27.366 27.366s12.252 27.366 27.366 27.366h148.757c30.12 0 54.537 24.417 54.537 54.537V82.351c0 30.12-24.417 54.537-54.537 54.537h-80.08c-29.292 0-53.038 23.746-53.038 53.038v153.905c0 29.292-23.746 53.038-53.038 53.038H490.042c-37.785 0-68.416 30.631-68.416 68.416s-30.631 68.416-68.416 68.416h-33.231c-37.785 0-68.416-30.631-68.416-68.416v-84.054c0-37.785-30.631-68.416-68.416-68.416H5.265c-15.114 0-27.366-12.252-27.366-27.366v-708.418" stroke-dasharray="0 9.986" class="C I J L O"/><g opacity=".331" fill="#00703a"><use href="#W"/><use href="#X"/><path d="M329.058 52.875c1.232 0 2.231-1 2.231-2.236v-4.667c0-1.236-.999-2.236-2.231-2.236s-2.231 1-2.231 2.236v4.667c0 1.236.999 2.236 2.231 2.236zM295.39 71.353c1.232 0 2.231-1 2.231-2.236v-7.001c0-1.236-.999-2.236-2.231-2.236s-2.231 1-2.231 2.236v7.001c0 1.236.999 2.236 2.231 2.236zm-9.315 0c1.232 0 2.231-1 2.231-2.236v-4.669c0-1.236-.999-2.236-2.231-2.236s-2.231 1-2.231 2.236v4.669c0 1.236.999 2.236 2.231 2.236z"/><use href="#Y"/><path d="M286.756 32.648c1.232 0 2.231-1 2.231-2.236v-7.001c0-1.236-.999-2.236-2.231-2.236s-2.231 1-2.231 2.236v7.001c0 1.236.999 2.236 2.231 2.236zm-9.315 0c1.232 0 2.231-1 2.231-2.236v-4.669c0-1.236-.999-2.236-2.231-2.236s-2.231 1-2.231 2.236v4.669c0 1.236.999 2.236 2.231 2.236zm17.853 0c1.232 0 2.231-1 2.231-2.236v-4.669c0-1.236-.999-2.236-2.231-2.236s-2.231 1-2.231 2.236v4.669c0 1.236.999 2.236 2.231 2.236z"/></g><rect x="497.768" y="126.584" width="35.002" height="4.041" rx="2.02" fill="#52aa35"/><path d="M527.693 93.618v34.522" stroke="#dac97b" stroke-miterlimit="10" class="C V"/><g class="P"><use href="#Z"/><path d="M504.44 120.477h4.082v6.845h-4.082zm6.124-10.229h4.082v10.229h-4.082z"/><path d="M510.564 120.477h4.082v6.845h-4.082z"/><path d="M510.564 127.322h6.124v1.637h-6.124zm-8.165 0h6.124v1.637h-6.124z"/></g><g class="B"><path d="M499.848 84.597a2.68 2.68 0 0 1 2.678-2.684h13.423a2.68 2.68 0 0 1 2.678 2.684v20.726h-18.779V84.597z" fill="#102220"/><g class="P"><path d="M504.741 96.791c.097-.049.209-.059.312-.025s.189.107.239.203l1.021 2.002c.049.097.058.209.025.313a.41.41 0 0 1-.203.24l-8.904 4.563-1.394-2.732 8.904-4.563zm7.87 2.596c-.089-.063-.148-.159-.166-.266a.41.41 0 0 1 .072-.306l1.308-1.828a.41.41 0 0 1 .267-.167c.107-.018.217.008.306.071l8.132 5.821-1.786 2.496-8.132-5.821z"/><path d="M506.014 106.115a.54.54 0 0 1 .253.32c.039.136.022.282-.047.406l-.972 1.748a.54.54 0 0 1-.32.254c-.136.038-.282.022-.405-.047l-8.629-4.818 1.49-2.68 8.629 4.818z"/><path d="M497.977 103.384c.411-.74.146-1.675-.592-2.086a1.53 1.53 0 0 0-2.082.594c-.411.74-.146 1.675.592 2.086a1.53 1.53 0 0 0 2.082-.594z"/></g></g><circle cx="521.612" cy="103.93" r="1.534" transform="matrix(.92109 -.389349 .389349 .92109 .695 211.29)" class="P"/><g class="B P"><path d="M528.521 96.583c.111-.087.253-.126.394-.109a.53.53 0 0 1 .355.201l1.229 1.574c.086.111.126.253.108.393a.53.53 0 0 1-.202.355l-7.81 6.081-1.885-2.414 7.811-6.082zm-24.081.783a.62.62 0 0 1 .618-.62h8.969c.165 0 .321.065.437.181a.62.62 0 0 1 .182.439v12.883H504.44V97.366z"/></g><path d="M507.502 94.699h4.082v2.046h-4.082z" class="P"/><path d="M507.502 94.699h4.082v1.023h-4.082z" fill="#ba3f6f"/><g class="B P"><path d="M503.062,87.793c0-.49.194-.96.54-1.307.346-.347.815-.542,1.304-.542h9.681c.489,0,.958.195,1.305.542.346.346.54.817.54,1.307v5.058c0,.49-.194.96-.54,1.307-.346.347-.816.542-1.305.542h-9.681c-.489,0-.958-.195-1.304-.542-.346-.346-.54-.817-.54-1.307v-5.058Z"/><path d="M502.076 88.705a2.18 2.18 0 0 0-2.228 2.125 2.18 2.18 0 0 0 2.12 2.233 2.18 2.18 0 0 0 2.228-2.125 2.18 2.18 0 0 0-2.12-2.233z"/></g><g fill="#102220" class="B"><path d="M503.052 88.959h2.089c.74 0 1.34-.602 1.34-1.344V85.89h-3.429v3.069zm7.832 0h6.416V85.89h-7.757v1.725c0 .742.6 1.344 1.34 1.344z"/></g><g fill="#0d1c1c"><path d="M507.06 89.697h.884c.122 0 .222.099.222.222v2.243c0 .122-.099.222-.222.222h-.884c-.122 0-.221-.099-.221-.221V89.92c0-.123.1-.222.222-.222z"/><rect x="512.553" y="89.697" width="1.328" height="2.687" rx=".222"/></g><path d="M503.616 116.554l12.439 3.128-1.409-9.434H504.44l-.824 6.306z" fill="#62c244" class="B"/><g class="C V"><g stroke="#62c244" class="I J"><path d="M503.616 116.554h0"/><path d="M505.393 117.001l9.774 2.458" stroke-dasharray="0 1.832"/><path d="M516.055 119.682h0"/><path d="M515.773 117.795l-.986-6.604" stroke-dasharray="0 1.908"/><path d="M514.646 110.248h0"/><path d="M512.945 110.248h-7.654" stroke-dasharray="0 1.701"/><path d="M504.44 110.248h0"/><path d="M504.166 112.35l-.412 3.153" stroke-dasharray="0 2.12"/></g><circle cx="527.693" cy="92.384" r="1.809" stroke="#dac97b"/></g><use href="#a" class="S"/><g clip-path="url(#B)" class="B T"><path d="M119.454 36.66l14.862-10.822c8.209-5.977 9.137-17.867 1.954-25.043L131.071-4.4h-23.236L102.636.795c-7.183 7.177-6.255 19.066 1.954 25.043l14.862 10.822z"/></g><path d="M119.468 2.528c0 6.428-2.555 12.596-7.106 17.143s-10.723 7.1-17.16 7.1H70.796V10.744c0-6.432 2.555-12.599 7.106-17.146a24.29 24.29 0 0 1 17.16-7.1h24.406v16.03z" class="B M"/><g clip-path="url(#C)"><path d="M119.468-13.503L65.152 32.922h54.316v-46.425z" class="B D"/><use href="#b" class="H"/><g class="B"><g class="G"><path d="M91.075 29.396h6.084V19.171c0-1.678-1.363-3.039-3.042-3.039s-3.042 1.362-3.042 3.039v10.225zm12.168.45h6.084V9.67c0-1.678-1.36-3.036-3.039-3.036h-.006c-1.679 0-3.039 1.359-3.039 3.036v20.176z" class="E"/></g><path d="M70.795 9.731V3.974h9.287c.764 0 1.497.304 2.038.845a2.88 2.88 0 0 1 .843 2.033h0a2.88 2.88 0 0 1-.843 2.036c-.542.541-1.275.842-2.038.842h-9.287z" class="D K"/></g></g><path d="M119.468 2.528c0 6.428 2.555 12.596 7.106 17.143s10.723 7.1 17.16 7.1h24.406V10.744c0-6.432-2.555-12.599-7.106-17.146a24.29 24.29 0 0 0-17.16-7.1h-24.406v16.03z" class="B M"/><g clip-path="url(#D)"><path d="M119.468-13.503l54.315 46.425h-54.315v-46.425z" class="B D"/><use href="#c" class="H"/><g class="B"><g class="G"><path d="M147.86 29.396h-6.084V19.171c0-1.678 1.363-3.039 3.042-3.039s3.042 1.362 3.042 3.039v10.225zm-12.168.45h-6.084V9.673c0-.805.319-1.577.891-2.149a3.05 3.05 0 0 1 2.151-.891c.806 0 1.582.322 2.151.891s.891 1.343.891 2.149v20.173z" class="E"/></g><path d="M168.14 10.053V3.974h-9.129c-.806 0-1.579.319-2.148.891a3.02 3.02 0 0 0-.891 2.146v.006c0 .805.319 1.577.891 2.149a3.04 3.04 0 0 0 2.148.888h9.129z" class="D K"/></g></g><use href="#d" class="B H"/><g clip-path="url(#E)"><path d="M119.454 28.268H96.455v-43.615h22.999z" class="D"/><use href="#e" class="U"/><g class="E D"><use href="#f"/></g><g class="E G"><path d="M97.898 8.704c.57 0 1.149-.16 1.664-.499L111.924.1c1.406-.92 1.798-2.804.875-4.209-.919-1.399-2.792-1.801-4.211-.873L96.226 3.123c-1.406.92-1.798 2.804-.875 4.209.582.888 1.557 1.371 2.547 1.371z"/></g><path d="M141.038 22.564c.99 0 1.965-.483 2.547-1.371.923-1.405.531-3.289-.875-4.209l-12.366-8.105a3.04 3.04 0 0 0-4.211.873c-.923 1.405-.531 3.289.875 4.209l12.366 8.105c.515.338 1.093.499 1.664.499z" class="D E"/><g class="E G"><path d="M97.898,22.564c.57,0,1.149-.16,1.664-.499l12.362-8.105c1.406-.92,1.798-2.804.875-4.209-.919-1.399-2.792-1.801-4.211-.873l-12.362,8.105c-1.406.92-1.798,2.804-.875,4.209.582.888,1.557,1.371,2.547,1.371Z"/></g></g><path d="M94.754 53.788l49.428-.539" class="I J L N O Q"/><g class="B"><path d="M152.358 207.439a6.34 6.34 0 0 1-4.677-2.059 6.33 6.33 0 0 1-1.637-4.838l23.823-266.785c.465-5.207 4.828-9.165 10.06-9.165h21.874a10.1 10.1 0 0 1 10.068 9.256l4.279 51.31h15.559a7.5 7.5 0 0 1 6.719 4.141l7.035 14.058c.657 1.312 1.038 2.745 1.119 4.21l4.928 88.628 27.528 7.858a10.79 10.79 0 0 1 7.831 10.38v86.672c0 1.68-.668 3.291-1.857 4.478a6.34 6.34 0 0 1-4.482 1.855H152.357z" fill="#787186"/><path d="M181.904 126.293a10.1 10.1 0 1 1 20.206 0v81.147h-20.206v-81.147z" fill="#675e7e"/></g><g clip-path="url(#F)" class="B"><path d="M130.067-60.236v-43.743c0-5.068 4.112-9.177 9.184-9.177h1.685c5.072 0 9.184-4.109 9.184-9.177v-31.164c0-5.068 4.112-9.177 9.184-9.177h7.342c5.072 0 9.184-4.109 9.184-9.177v-19.766c0-5.068 4.112-9.177 9.184-9.177h23.025c5.072 0 9.184 4.109 9.184 9.177l-.002 101.381a8.91 8.91 0 0 0 8.912 8.905h.231c5.118 0 9.231-4.069 9.231-9.138l-.001-30.093c0-5.068 4.112-9.137 9.184-9.137h23.025c5.072 0 9.184 4.109 9.184 9.177v22.383c0 5.068 4.112 9.177 9.184 9.177h4.656c5.072 0 9.184 4.109 9.184 9.177v230.973c0 5.068-4.112 9.177-9.184 9.177h-9.557c-5.072 0-9.184-4.109-9.184-9.177v-22.383c0-5.068-4.112-9.177-9.184-9.177h-23.844c-11.159 0-20.206-9.039-20.206-20.189V53.368c0-5.068-4.112-9.177-9.184-9.177h-5.2c-5.072 0-9.184-4.109-9.184-9.177v-22.46c0-5.068-4.112-9.177-9.184-9.177h.249c-5.072 0-9.184 4.109-9.184 9.177v64.923c0 5.068-4.112 9.177-9.184 9.177h-3.432c-5.072 0-9.184 4.109-9.184 9.177l-2.698 31.164c0 5.068-4.112 9.177-9.184 9.177h-7.073c-5.072 0-9.184 4.109-9.184 9.177v43.743c0 5.068-4.112 9.177-9.184 9.177h-4.229c-5.072 0-9.184-4.109-9.184-9.177V-41.883c0-5.068 4.112-9.177 9.184-9.177h7.073c5.072 0 9.184-4.109 9.184-9.177z" fill="#3d8850"/><g fill="#2d693a"><path d="M214.915 5.284A10.1 10.1 0 0 1 204.812-4.81a10.1 10.1 0 0 1 10.103-10.094h47.988V5.284h-47.988zm27.768 88.423c-5.371-1.512-8.498-7.087-6.984-12.454s7.093-8.49 12.464-6.978l46.19 13.003-5.48 19.432-46.19-13.003z"/></g></g><path d="M665.831.532L624.474-36.08h-2.719L580.398.532v33.873a3 3 0 0 0 .879 2.121c.565.565 1.329.881 2.126.881h79.423c.797 0 1.56-.316 2.126-.881s.88-1.325.88-2.121V.532z" fill="#fbeb8c" class="B"/><g clip-path="url(#G)"><g fill="#f2d861"><use href="#g"/><path d="M577.885 29.876h90.459v7.532h-90.459zm0-15.064h90.459v7.532h-90.459z"/></g><path d="M576.629 6.899l46.486-38.533L670.06 7.28" stroke="#cfb43a" class="C X Y"/></g><path d="M615.576 17.323h15.076v20.085h-15.076z" fill="#434032"/><path d="M615.576 17.323h15.076v5.021h-15.076z" fill="#14130f"/><g fill="#6dbaa1"><use href="#h"/><path d="M590.449 14.812h15.076v15.064h-15.076z"/></g><g fill="#fff"><use href="#i"/><path d="M640.704 27.33h15.076v2.546h-15.076z"/></g><g fill="#4e9980"><path d="M640.704 14.777h15.076v2.546h-15.076zm-50.255 0h15.076v2.546h-15.076z"/></g><g stroke="#6a8c40" class="C I J Z"><path d="M577.194 1.004l45.921-38.412m45.92 38.412l-45.92-38.412"/></g><path d="M575.515 37.408h95.83" class="I J L N O Q"/><path d="M561.031 43.792h18.181l4.927 44.959c.273 2.492-1.68 4.668-4.189 4.668h-19.747c-2.512 0-4.466-2.182-4.188-4.677l5.015-44.95z" class="S"/><g clip-path="url(#H)" class="B T"><use href="#j"/></g><use href="#k" class="B M"/><g clip-path="url(#I)"><path d="M570.077 26.128l-54.316 46.424h54.316V26.128z" class="B D"/><path d="M519.492 63.483l48.646-39.73 3.846 4.709-48.646 39.73z" class="H"/><g class="B"><g class="G"><use href="#l" class="E"/><use href="#m" class="E"/></g><g class="D"><use href="#n" class="K"/><use href="#o" class="K"/></g></g></g><path d="M570.077 42.158c0 6.428 2.555 12.596 7.106 17.143s10.723 7.1 17.16 7.1h24.406V50.374c0-6.432-2.555-12.599-7.106-17.146a24.29 24.29 0 0 0-17.16-7.1h-24.406v16.03z" class="B M"/><g clip-path="url(#J)"><path d="M570.077 26.128l54.315 46.424h-54.315V26.128z" class="B D"/><path d="M568.153 28.482l3.843-4.712 48.673 39.696-3.843 4.712z" class="H"/><g class="B"><g class="G"><use href="#p" class="E"/><use href="#q" class="E"/></g><g class="D"><use href="#r" class="K"/><use href="#s" class="K"/></g></g></g><path d="M570.063 66.401l14.578-10.615c8.052-5.863 8.962-17.524 1.917-24.563l-5.099-5.095h-22.79l-5.099 5.095c-7.045 7.039-6.135 18.7 1.917 24.563l14.578 10.615z" class="B H"/><g clip-path="url(#K)"><path d="M570.063 67.898h-22.999V24.283h22.999z" class="D"/><path d="M567.033 21.737h6.084v53.015h-6.084z" class="U"/><g class="E D"><path d="M591.647 48.334c.99 0 1.965-.483 2.547-1.371.923-1.405.531-3.289-.875-4.209l-12.366-8.105a3.04 3.04 0 0 0-4.211.873c-.923 1.405-.531 3.289.875 4.209l12.366 8.105c.515.338 1.093.499 1.664.499z"/></g><g class="E G"><use href="#t"/></g><path d="M591.647 62.194c.99 0 1.965-.483 2.547-1.371.923-1.405.531-3.289-.875-4.209l-12.366-8.105a3.04 3.04 0 0 0-4.211.873c-.923 1.405-.531 3.289.875 4.209l12.366 8.105c.515.338 1.093.499 1.664.499z" class="D E"/><g class="E G"><use href="#u"/></g></g><path d="M545.363 93.419l49.428-.54" class="I J L N O Q"/><path d="M800.207.532L758.85-36.08h-2.719L714.774.532v33.873a3 3 0 0 0 .879 2.121c.565.565 1.329.881 2.126.881h79.423c.797 0 1.56-.316 2.126-.881s.88-1.325.88-2.121V.532z" fill="#fbeb8c" class="B"/><g clip-path="url(#L)"><g fill="#f2d861"><path d="M712.262-.251h90.459v7.532h-90.459zm0 30.127h90.459v7.532h-90.459zm0-15.064h90.459v7.532h-90.459z"/></g><path d="M711.005 6.899l46.486-38.533L804.436 7.28" stroke="#cfb43a" class="C X Y"/></g><path d="M749.953 17.323h15.076v20.085h-15.076z" fill="#434032"/><path d="M749.953 17.323h15.076v5.021h-15.076z" fill="#14130f"/><g fill="#6dbaa1"><path d="M775.08 14.812h15.076v15.064H775.08zm-50.255 0h15.076v15.064h-15.076z"/></g><g fill="#fff"><path d="M724.825 27.33h15.076v2.546h-15.076zm50.255 0h15.076v2.546H775.08z"/></g><g fill="#4e9980"><path d="M775.08 14.777h15.076v2.546H775.08zm-50.255 0h15.076v2.546h-15.076z"/></g><g stroke="#6a8c40" class="C I J Z"><path d="M711.57 1.004l45.921-38.412m45.92 38.412l-45.92-38.412"/></g><path d="M709.891 37.408h95.83" class="I J L N O Q"/><path d="M725.485 43.792h18.181l4.927 44.959c.273 2.492-1.68 4.668-4.189 4.668h-19.747c-2.512 0-4.466-2.182-4.188-4.677l5.015-44.95z" class="S"/><g clip-path="url(#M)" class="B T"><path d="M734.517 76.291l14.862-10.822c8.209-5.977 9.137-17.867 1.954-25.043l-5.199-5.195h-23.236l-5.199 5.195c-7.183 7.177-6.255 19.066 1.954 25.043l14.862 10.822z"/></g><path d="M734.53 42.158c0 6.428-2.555 12.596-7.106 17.143s-10.723 7.1-17.16 7.1h-24.406V50.374c0-6.432 2.555-12.599 7.106-17.146a24.29 24.29 0 0 1 17.16-7.1h24.406v16.03z" class="B M"/><g clip-path="url(#N)"><path d="M734.53 26.128l-54.315 46.424h54.315V26.128z" class="B D"/><path d="M683.945 63.481l48.646-39.73 3.846 4.709-48.646 39.73z" class="H"/><g class="B"><g class="G"><path d="M706.138 69.027h6.084V58.802c0-1.678-1.363-3.039-3.042-3.039s-3.042 1.362-3.042 3.039v10.225zm12.168.45h6.084V49.301c0-1.678-1.36-3.036-3.039-3.036h-.006c-1.679 0-3.039 1.359-3.039 3.036v20.176z" class="E"/></g><g class="D"><path d="M685.858 49.361v-5.757h9.287c.764 0 1.497.304 2.038.845a2.88 2.88 0 0 1 .843 2.033h0a2.88 2.88 0 0 1-.843 2.036c-.542.541-1.275.842-2.038.842h-9.287zm0-11.835v-6.079h18.255c1.679 0 3.039 1.359 3.039 3.036v.006c0 1.678-1.36 3.036-3.039 3.036h-18.255z" class="K"/></g></g></g><path d="M734.53 42.158c0 6.428 2.555 12.596 7.106 17.143s10.723 7.1 17.16 7.1h24.406V50.374c0-6.432-2.555-12.599-7.106-17.146a24.29 24.29 0 0 0-17.16-7.1H734.53v16.03z" class="B M"/><g clip-path="url(#O)"><path d="M734.53 26.128l54.316 46.424H734.53V26.128z" class="B D"/><path d="M732.606 28.481l3.843-4.712 48.673 39.696-3.843 4.712z" class="H"/><g class="B"><g class="G"><path d="M762.923 69.027h-6.084V58.802c0-1.678 1.363-3.039 3.042-3.039s3.042 1.362 3.042 3.039v10.225zm-12.168.45h-6.084V49.304c0-.805.319-1.577.891-2.149a3.05 3.05 0 0 1 2.151-.891c.806 0 1.582.322 2.151.891s.891 1.343.891 2.149v20.173z" class="E"/></g><g class="D"><path d="M783.203 49.684v-6.079h-9.129c-.806 0-1.579.319-2.148.891a3.02 3.02 0 0 0-.891 2.146v.006c0 .805.319 1.577.891 2.149a3.04 3.04 0 0 0 2.148.888h9.129zm0-12.158v-6.079h-18.252c-.806 0-1.582.322-2.151.891s-.891 1.343-.891 2.149a3.03 3.03 0 0 0 .891 2.149 3.04 3.04 0 0 0 2.151.891h18.252z" class="K"/></g></g></g><path d="M734.517 66.401l14.578-10.615c8.052-5.863 8.962-17.524 1.917-24.563l-5.099-5.095h-22.79l-5.099 5.095c-7.045 7.039-6.135 18.7 1.917 24.563l14.578 10.615z" class="B H"/><g clip-path="url(#P)"><path d="M734.517 67.898h-22.999V24.283h22.999z" class="D"/><path d="M731.487 21.737h6.084v53.015h-6.084z" class="U"/><g class="E D"><path d="M756.1 48.334c.99 0 1.965-.483 2.547-1.371.923-1.405.531-3.289-.875-4.209l-12.366-8.105a3.04 3.04 0 0 0-4.211.873c-.923 1.405-.531 3.289.875 4.209l12.366 8.105c.515.338 1.093.499 1.664.499z"/></g><g class="E G"><path d="M712.961,48.334c.57,0,1.149-.16,1.664-.499l12.362-8.105c1.406-.92,1.798-2.804.875-4.209-.919-1.399-2.792-1.801-4.211-.873l-12.362,8.105c-1.406.92-1.798,2.804-.875,4.209.582.888,1.557,1.371,2.547,1.371Z"/></g><path d="M756.1 62.194c.99 0 1.965-.483 2.547-1.371.923-1.405.531-3.289-.875-4.209l-12.366-8.105a3.04 3.04 0 0 0-4.211.873c-.923 1.405-.531 3.289.875 4.209l12.366 8.105c.515.338 1.093.499 1.664.499z" class="D E"/><g class="E G"><path d="M712.961,62.194c.57,0,1.149-.16,1.664-.499l12.362-8.105c1.406-.92,1.798-2.804.875-4.209-.919-1.399-2.792-1.801-4.211-.873l-12.362,8.105c-1.406.92-1.798,2.804-.875,4.209.582.888,1.557,1.371,2.547,1.371Z"/></g></g><path d="M709.817 93.419l49.428-.54" class="I J L N O Q"/><path d="M646.734 92.675h18.181l4.927 44.959c.273 2.492-1.68 4.668-4.189 4.668h-19.747c-2.512 0-4.466-2.182-4.188-4.677l5.015-44.95z" class="S"/><g clip-path="url(#Q)" class="B T"><path d="M655.766 125.174l14.862-10.822c8.209-5.977 9.137-17.867 1.954-25.043l-5.199-5.195h-23.236l-5.199 5.195c-7.183 7.177-6.255 19.066 1.954 25.043l14.862 10.822z"/></g><path d="M655.78 91.041c0 6.428-2.555 12.596-7.106 17.143s-10.723 7.1-17.16 7.1h-24.406V99.257c0-6.432 2.555-12.599 7.106-17.146a24.29 24.29 0 0 1 17.16-7.1h24.406v16.03z" class="B M"/><g clip-path="url(#R)"><path d="M655.78 75.011l-54.316 46.425h54.316V75.011z" class="B D"/><path d="M605.194 112.364l48.646-39.73 3.846 4.709-48.646 39.73z" class="H"/><g class="B"><g class="G"><path d="M627.387 117.91h6.084v-10.225c0-1.678-1.363-3.039-3.042-3.039s-3.042 1.362-3.042 3.039v10.225zm12.169.45h6.084V98.184c0-1.678-1.36-3.036-3.039-3.036h-.006c-1.679 0-3.039 1.359-3.039 3.036v20.176z" class="E"/></g><g class="D"><path d="M607.107 98.244v-5.757h9.287c.764 0 1.497.304 2.038.845a2.88 2.88 0 0 1 .843 2.033h0a2.88 2.88 0 0 1-.843 2.036c-.542.541-1.275.842-2.038.842h-9.287zm0-11.835V80.33h18.255c1.679 0 3.039 1.359 3.039 3.036v.006c0 1.678-1.36 3.036-3.039 3.036h-18.255z" class="K"/></g></g></g><path d="M655.78 91.041c0 6.428 2.555 12.596 7.106 17.143s10.723 7.1 17.16 7.1h24.406V99.257c0-6.432-2.555-12.599-7.106-17.146a24.29 24.29 0 0 0-17.16-7.1H655.78v16.03z" class="B M"/><g clip-path="url(#S)"><path d="M655.78 75.011l54.316 46.425H655.78V75.011z" class="B D"/><path d="M653.856 77.365l3.843-4.712 48.673 39.696-3.843 4.712z" class="H"/><g class="B"><g class="G"><path d="M684.172 117.91h-6.084v-10.225c0-1.678 1.363-3.039 3.042-3.039s3.042 1.362 3.042 3.039v10.225zm-12.168.45h-6.084V98.187c0-.805.319-1.577.891-2.149a3.05 3.05 0 0 1 2.151-.891c.806 0 1.582.322 2.151.891s.891 1.343.891 2.149v20.173z" class="E"/></g><g class="D"><path d="M704.453 98.567v-6.079h-9.129c-.806 0-1.579.319-2.148.891a3.02 3.02 0 0 0-.891 2.146v.006c0 .805.319 1.577.891 2.149a3.04 3.04 0 0 0 2.148.888h9.129zm0-12.158V80.33h-18.252c-.806 0-1.582.322-2.151.891s-.891 1.343-.891 2.149a3.03 3.03 0 0 0 .891 2.149 3.04 3.04 0 0 0 2.151.891h18.252z" class="K"/></g></g></g><path d="M655.766 115.284l14.578-10.615c8.052-5.863 8.962-17.524 1.917-24.563l-5.099-5.095h-22.79l-5.099 5.095c-7.045 7.039-6.135 18.7 1.917 24.563l14.578 10.615z" class="B H"/><g clip-path="url(#T)"><path d="M655.766 116.78h-22.999V73.165h22.999z" class="D"/><path d="M652.736 70.62h6.084v53.015h-6.084z" class="U"/><g class="E D"><path d="M677.35 97.218c.99 0 1.965-.483 2.547-1.371.923-1.405.531-3.289-.875-4.209l-12.366-8.105a3.04 3.04 0 0 0-4.211.873c-.923 1.405-.531 3.289.875 4.209l12.366 8.105c.515.338 1.093.499 1.664.499z"/></g><g class="E G"><path d="M634.211,97.218c.57,0,1.149-.16,1.664-.499l12.362-8.105c1.406-.92,1.798-2.804.875-4.209-.919-1.399-2.792-1.801-4.211-.873l-12.362,8.105c-1.406.92-1.798,2.804-.875,4.209.582.888,1.557,1.371,2.547,1.371Z"/></g><path d="M677.35 111.077c.99 0 1.965-.483 2.547-1.371.923-1.405.531-3.289-.875-4.209l-12.366-8.105a3.04 3.04 0 0 0-4.211.873c-.923 1.405-.531 3.289.875 4.209l12.366 8.105c.515.338 1.093.499 1.664.499z" class="D E"/><g class="E G"><path d="M634.211,111.077c.57,0,1.149-.16,1.664-.499l12.362-8.105c1.406-.92,1.798-2.804.875-4.209-.919-1.399-2.792-1.801-4.211-.873l-12.362,8.105c-1.406.92-1.798,2.804-.875,4.209.582.888,1.557,1.371,2.547,1.371Z"/></g></g><path d="M631.066 142.302l34.588-.54" class="I J L N O Q"/><rect x="83.862" y="121.636" width="14.989" height="4.248" rx="2.124" transform="matrix(-1 0 0 -1 182.713 247.52)" fill="#3d9156" opacity=".33"/><g class="B"><path d="M81.942 92.384c.087 0 .17-.035.232-.097a.33.33 0 0 0 .096-.232v-2.76a.33.33 0 0 0-.327-.329l-10.063-.052v3.47h10.062z" class="W"/><path d="M73.594 90.666c0 .947-.768 1.717-1.714 1.717s-1.714-.77-1.714-1.717.769-1.717 1.714-1.717 1.714.769 1.714 1.717z" fill="#d1621f"/><g class="R"><path d="M67.515 99.984a.33.33 0 0 0 .232.403l2.659.714a.33.33 0 0 0 .403-.232l2.655-9.726-3.345-.898-2.604 9.739z"/><path d="M71.331 92.348a1.72 1.72 0 0 1-1.212-2.103c.245-.915 1.185-1.46 2.1-1.214s1.457 1.188 1.211 2.103-1.185 1.46-2.099 1.214z"/></g></g><path d="M82.494 91.772l1.3-6.089 4.077.871-1.3 6.089z" fill="#e5d034"/><g class="B"><path d="M81.512 89.234a.55.55 0 0 1 .749-.201l7.081 4.078a.55.55 0 0 1 .202.748l-7.129 12.41-8.039-4.65 7.136-12.385z" class="W"/><path d="M86.587 91.605c-.077-.041-.166-.051-.25-.025s-.154.083-.195.16l-1.299 2.432a.33.33 0 0 0 .133.444l8.853 4.807 1.633-3.058-8.876-4.76z" class="R"/><use href="#v" fill="#d1621f"/><g class="R"><path d="M100.897 89.839a.33.33 0 0 0-.134-.445l-2.43-1.303a.33.33 0 0 0-.444.133l-4.79 8.861 3.055 1.638 4.744-8.885z"/><use href="#v"/><path d="M87.912 108.97a4.2 4.2 0 0 1 1.849 2.179l4.072 10.948-3.068 2.301-4.428-11.071a1.37 1.37 0 0 0-.578-.673l-11.87-7.036.767-4.231 13.255 7.585z"/></g></g><g clip-path="url(#U)" class="B"><path d="M86.06 107.637l-10.662-6.168-2.913 5.055 10.662 6.168 2.913-5.055z" fill="#e93823"/></g><path d="M71.898 111.67c-.65.881-1.77 1.281-2.832 1.011l-9.75-2.48.767-3.78 9.306 2.444 4.774-6.983 3.347 2.193-5.611 7.596z" class="B R"/><g clip-path="url(#V)" class="B"><path d="M83.189 106.309l-10.974-6.347-2.859 4.963 10.974 6.347 2.859-4.963z" fill="#e93823"/></g><rect x="78.289" y="77.951" width="15.56" height="10.465" rx="2.139" class="R"/><g class="B"><path d="M95.605 79.395c0-1.163-.462-2.277-1.284-3.1s-1.938-1.285-3.101-1.285H78.79a2.21 2.21 0 0 0-2.209 2.173l-.1 6.004-3.186-.057v2.811a2.99 2.99 0 0 0 2.989 2.989h3.558a3.93 3.93 0 0 0 3.45-2.048l1.793-3.288-.018-1.937a1.07 1.07 0 0 1 1.069-1.079h9.469v-1.184z" fill="#0f2220"/><path d="M83.564 81.275a2.55 2.55 0 1 1 0 5.104 2.55 2.55 0 1 1 0-5.104z" class="R"/></g><rect x="91.038" y="81.913" width="1.3" height="2.625" rx=".217" fill="#0d1c1c"/><g class="B"><g class="W"><path d="M86.587 91.605c-.077-.041-.166-.051-.25-.025a.33.33 0 0 0-.195.16l-1.299 2.432a.33.33 0 0 0 .133.444l4.902 2.662 1.614-3.042-4.905-2.63zm8.582 29.619l-4.886 1.981.51 1.263 4.886-1.981-.51-1.263zm-35.091-9.347l1.32-5.111-1.317-.341-1.32 5.111 1.317.341z"/></g><g fill="#61d1d5"><use href="#w"/><path d="M1096.513,48.409l-2.286,1.827,2.286,1.827c-.699-1.118-.699-2.536,0-3.654Z"/><use href="#x"/><path d="M1113.324 54.623l2.286 1.827c-.699-1.118-.699-2.536 0-3.654l-2.286 1.827zm-24.538-8.978l.839-.838-.839-.838c-.357-.357-.841-.557-1.346-.557h-6.488c-.852 0-1.669.338-2.272.94l-.483.483.427.427c.603.602 1.42.94 2.272.94h6.544c.505 0 .989-.2 1.346-.557z"/><path d="M1091.911 42.98l-2.286 1.827 2.286 1.827c-.699-1.118-.699-2.536 0-3.654zm34.965-14.635c.603.602 1.42.94 2.272.94h6.544c.505 0 .99-.2 1.347-.557l.839-.838-.839-.838c-.357-.357-.842-.557-1.347-.557h-6.488c-.852 0-1.669.338-2.272.94l-.483.483.427.427z"/><path d="M1140.162 26.064l-2.286 1.827 2.286 1.827c-.699-1.118-.699-2.536 0-3.654zm-9.05 13.778h-6.488c-.852 0-1.669.338-2.272.94l-.483.483.427.427c.603.602 1.42.94 2.272.94h6.544c.505 0 .989-.2 1.346-.557l.839-.838-.839-.838c-.357-.357-.841-.557-1.346-.557z"/><path d="M1133.297 41.237l2.286 1.827c-.699-1.118-.699-2.536 0-3.654l-2.286 1.827zm-15.928-6.495l.427.427c.603.602 1.42.94 2.272.94h6.544c.505 0 .989-.2 1.346-.557l.839-.838-.839-.838c-.357-.357-.841-.557-1.346-.557h-6.488c-.852 0-1.669.338-2.272.94l-.483.483z"/><path d="M1131.083 32.887l-2.286 1.827 2.286 1.827c-.699-1.118-.699-2.536 0-3.654zm-13.236 30.034h-6.488c-.852 0-1.669.338-2.272.94l-.483.483.427.427c.603.602 1.42.94 2.272.94h6.544c.505 0 .99-.2 1.347-.557l.839-.838-.839-.838c-.357-.357-.842-.557-1.347-.557z"/><path d="M1122.318 62.489l-2.286 1.827 2.286 1.827c-.699-1.118-.699-2.536 0-3.654zm-15.982-32.748c.602.602 1.42.94 2.272.94h6.544c.505 0 .989-.2 1.346-.557l.839-.838-.839-.838c-.357-.357-.841-.557-1.346-.557h-6.488c-.852 0-1.669.338-2.272.94l-.483.483.427.427z"/><path d="M1119.623 27.459l-2.286 1.827 2.286 1.827c-.699-1.118-.699-2.536 0-3.654zm-9.026 14.451c-.357-.357-.842-.557-1.347-.557h-6.488c-.852 0-1.669.338-2.272.94l-.483.483.427.427c.603.602 1.42.94 2.272.94h6.544a1.91 1.91 0 0 0 1.347-.557l.839-.838-.839-.838z"/><path d="M1111.435 42.748l2.286 1.827c-.699-1.118-.699-2.536 0-3.654l-2.286 1.827zm-11.424 16.519h-6.488c-.852 0-1.669.338-2.272.94l-.483.483.427.427c.602.602 1.42.94 2.272.94h6.544c.505 0 .989-.2 1.346-.557l.839-.838-.839-.838c-.357-.357-.841-.557-1.346-.557z"/><path d="M1104.482 58.835l-2.286 1.827 2.286 1.827c-.699-1.118-.699-2.536 0-3.654zm14.769-9.286l.839-.838-.839-.838c-.357-.357-.842-.557-1.347-.557h-6.488c-.852 0-1.669.338-2.272.94l-.483.483.427.427c.602.602 1.42.94 2.272.94h6.544c.505 0 .99-.2 1.347-.557z"/><path d="M1122.376 46.884l-2.286 1.827 2.286 1.827c-.699-1.118-.699-2.536 0-3.654zm14.779-12.544l-.483.483.427.427c.603.602 1.42.94 2.272.94h6.544c.505 0 .989-.201 1.346-.557l.839-.838-.839-.838c-.357-.357-.841-.557-1.346-.557h-6.488c-.852 0-1.67.338-2.272.94z"/><path d="M1150.386,32.968l-2.286,1.827,2.286,1.827c-.699-1.118-.699-2.536,0-3.654Z"/><use href="#y"/><path d="M1159.041 38.931l-2.286 1.827 2.286 1.827c-.699-1.118-.699-2.536 0-3.654zm24.551-.122h-6.488c-.852 0-1.669.338-2.272.94l-.483.483.427.427c.603.602 1.42.94 2.272.94h6.544c.505 0 .989-.201 1.346-.557l.839-.838-.839-.838c-.357-.357-.841-.557-1.346-.557z"/><path d="M1188.062 38.377l-2.286 1.827 2.286 1.827c-.699-1.118-.699-2.536 0-3.654zm-18.432 12.999l.839-.838-.839-.838c-.357-.357-.841-.557-1.346-.557h-6.488c-.852 0-1.67.338-2.272.94l-.483.483.427.427c.603.602 1.42.94 2.272.94h6.544c.505 0 .989-.2 1.346-.557z"/><path d="M1172.754 48.711l-2.286 1.827 2.286 1.827c-.699-1.118-.699-2.536 0-3.654zm1.817 7.046h-6.488c-.852 0-1.669.338-2.272.94l-.483.483.427.427c.603.602 1.42.94 2.272.94h6.544c.505 0 .99-.2 1.347-.557l.839-.838-.839-.838c-.357-.357-.841-.557-1.347-.557z"/><path d="M1176.756,57.152l2.286,1.827c-.699-1.118-.699-2.536,0-3.654l-2.286,1.827Z"/><use href="#z"/><path d="M1142.148 53.098l2.286 1.827c-.699-1.118-.699-2.536 0-3.654l-2.286 1.827zm-13.314 4.643h-6.488c-.852 0-1.669.338-2.272.94l-.483.483.427.427c.602.602 1.42.94 2.272.94h6.544c.505 0 .99-.2 1.347-.557l.839-.838-.839-.838c-.357-.357-.842-.557-1.347-.557z"/><path d="M1131.02 59.137l2.286 1.827c-.699-1.118-.699-2.536 0-3.654l-2.286 1.827zm5.809 6.318h-6.488c-.852 0-1.67.338-2.272.94l-.483.483.427.427c.603.602 1.42.94 2.272.94h6.544a1.91 1.91 0 0 0 1.347-.557l.839-.838-.839-.838c-.357-.357-.841-.557-1.347-.557z"/><path d="M1139.014 66.85l2.286 1.827c-.699-1.118-.699-2.536 0-3.654l-2.286 1.827zm-7.831 6.116h-6.488c-.852 0-1.669.338-2.272.94l-.483.483.427.427c.603.602 1.42.94 2.272.94h6.544a1.91 1.91 0 0 0 1.347-.557l.839-.838-.839-.838c-.357-.357-.841-.557-1.347-.557z"/><path d="M1133.369 74.362l2.286 1.827c-.699-1.118-.699-2.536 0-3.654l-2.286 1.827zm15.391-14.794h-6.488c-.852 0-1.67.338-2.272.94l-.483.483.427.427c.603.602 1.42.94 2.272.94h6.544c.505 0 .99-.2 1.347-.557l.839-.838-.839-.838c-.357-.357-.841-.557-1.347-.557z"/><path d="M1150.945 60.964l2.286 1.827c-.699-1.118-.699-2.536 0-3.654l-2.286 1.827zm-39.038 8.857h-6.488c-.852 0-1.669.338-2.272.94l-.483.483.427.427c.603.602 1.42.94 2.272.94h6.544c.505 0 .99-.2 1.347-.557l.839-.838-.839-.838c-.357-.357-.841-.557-1.347-.557z"/><path d="M1114.092 71.216l2.286 1.827c-.699-1.118-.699-2.536 0-3.654l-2.286 1.827zm-21.736-33.079h6.544c.505 0 .989-.2 1.346-.557l.839-.838-.839-.838c-.357-.357-.841-.557-1.346-.557h-6.488c-.852 0-1.669.338-2.272.94l-.483.483.427.427c.603.602 1.42.94 2.272.94z"/><path d="M1103.37,34.915l-2.286,1.827,2.286,1.827c-.699-1.118-.699-2.536,0-3.654Z"/></g></g></g></svg>