<svg xmlns="http://www.w3.org/2000/svg" width="1500" height="145" xmlns:v="https://vecta.io/nano"><style><![CDATA[.B{fill-rule:evenodd}.C{fill:none}.D{fill:#408f43}.E{clip-rule:evenodd}.F{fill:#357963}.G{fill:#50b06d}.H{fill:#51b133}.I{opacity:.5}.J{stroke:#50b06d}.K{stroke-linecap:round}.L{stroke-linejoin:round}.M{stroke-width:10}.N{fill:#6da090}.O{fill:#4aa22e}.P{fill:#74dddc}.Q{fill:#fcf4c7}.R{fill:#409058}.S{fill:#7b85aa}]]></style><defs><clipPath id="A"><path d="M0 0h1500v145H0z" class="C"/></clipPath><clipPath id="B"><path d="M1327.807 111.351h-14.894l-4.036 36.831a3.45 3.45 0 0 0 3.431 3.824h16.177a3.45 3.45 0 0 0 3.431-3.831l-4.109-36.825z" class="C"/></clipPath><clipPath id="C"><path d="M1320.397 110.181a20.24 20.24 0 0 0 5.935 14.318c3.801 3.798 8.956 5.93 14.333 5.93h20.385v-13.386c0-5.372-2.134-10.523-5.935-14.321a20.29 20.29 0 0 0-14.333-5.93h-20.385v13.389z" class="C E"/></clipPath><clipPath id="D"><path d="M1320.397 110.181a20.24 20.24 0 0 1-5.935 14.318c-3.801 3.798-8.956 5.93-14.333 5.93h-20.385v-13.386c0-5.372 2.134-10.523 5.935-14.321a20.29 20.29 0 0 1 14.333-5.93h20.385v13.389z" class="C E"/></clipPath><clipPath id="E"><path d="M1320.408 130.429l-12.176-8.866c-6.725-4.897-7.485-14.637-1.601-20.516l4.259-4.256h19.035l4.259 4.256c5.884 5.879 5.124 15.619-1.601 20.516l-12.176 8.866z" class="C E"/></clipPath><clipPath id="F"><path d="M588.788 138.272a4.03 4.03 0 0 1-3.334-1.768 4.02 4.02 0 0 1-.405-3.751l12.177-30.417c.741-1.85 2.53-3.052 4.524-3.052h17.407c2.178 0 4.092 1.442 4.69 3.535l3.867 13.523 14.904 4.255a4.86 4.86 0 0 1 3.097 2.661l8.677 19.072c.566 1.246.461 2.694-.28 3.844a4.03 4.03 0 0 1-3.387 1.846h-29.707c-1.958 0-3.836-.777-5.222-2.16l-5.429-5.426a7.39 7.39 0 0 0-5.222-2.16h-16.357z" class="C E"/></clipPath><clipPath id="G"><path d="M670.272 108.281a2.38 2.38 0 0 0 1.971-1.045 2.37 2.37 0 0 0 .239-2.217l-7.198-17.98a2.88 2.88 0 0 0-2.676-1.807h-10.291c-1.288 0-2.419.853-2.773 2.09l-.571 2.232-4.807 2.258c-.557.262-1.003.713-1.258 1.273l-5.36 11.775c-.335.736-.273 1.593.166 2.273a2.38 2.38 0 0 0 2.003 1.091l30.555.059z" class="C E"/></clipPath><clipPath id="H"><path d="M602.292,42.57h-14.004l-3.795,34.63c-.21,1.919,1.294,3.596,3.226,3.596h15.211c1.935,0,3.44-1.681,3.226-3.602l-3.863-34.624Z" class="C"/></clipPath><clipPath id="I"><path d="M595.324 41.47a19.03 19.03 0 0 0 5.581 13.462c3.574 3.571 8.421 5.576 13.476 5.576h19.167V47.922c0-5.051-2.007-9.894-5.581-13.465s-8.421-5.576-13.476-5.576h-19.167V41.47z" class="C E"/></clipPath><clipPath id="J"><path d="M595.324 41.47a19.03 19.03 0 0 1-5.581 13.462c-3.574 3.571-8.421 5.576-13.476 5.576H557.1V47.922c0-5.051 2.007-9.894 5.581-13.465s8.421-5.576 13.476-5.576h19.167V41.47z" class="C E"/></clipPath><clipPath id="K"><path d="M595.335 60.508l-11.448-8.336c-6.323-4.604-7.038-13.762-1.505-19.29l4.005-4.001h17.898l4.005 4.001c5.533 5.528 4.818 14.686-1.505 19.29l-11.448 8.336z" class="C E"/></clipPath><clipPath id="L"><path d="M225.162-11.006h28.266c6.149 0 11.94 2.895 15.629 7.815l89.745 119.66H119.787l89.745-119.66a19.54 19.54 0 0 1 15.629-7.815z" class="C"/></clipPath><path id="M" d="M1191.011 32.479c0 .866.344 1.697.957 2.309a3.27 3.27 0 0 0 2.311.957h.004c1.804 0 3.268-1.461 3.268-3.266v-5.617c0-1.771-1.044-3.375-2.663-4.095l-7.335-3.256c-.25-.112-.545-.042-.721.167s-.191.512-.036.739l3.452 5.071c.496.729.762 1.59.762 2.473v4.519z"/><path id="N" d="M1177.037 31.575a15.13 15.13 0 0 0 27.947 0h-27.947z"/><path id="O" d="M1320.408 137.975l-12.176-8.866c-6.725-4.897-7.485-14.637-1.601-20.516l4.259-4.256h19.035l4.259 4.256c5.884 5.879 5.124 15.619-1.601 20.516l-12.176 8.866z"/><path id="P" d="M1302.381 115.34a2.54 2.54 0 0 1-2.127-1.145c-.771-1.173-.443-2.747.731-3.515l10.329-6.77a2.54 2.54 0 0 1 3.517.729c.771 1.173.443 2.747-.731 3.515l-10.329 6.77a2.52 2.52 0 0 1-1.39.416z"/><path id="Q" d="M1338.412 115.34a2.53 2.53 0 0 1-1.39-.416l-10.325-6.77c-1.174-.769-1.502-2.342-.731-3.515s2.332-1.504 3.517-.729l10.325 6.77c1.174.769 1.502 2.342.731 3.515a2.54 2.54 0 0 1-2.127 1.145z"/><path id="R" d="M1369.748 89.01c1.3 0 2.355-1.052 2.355-2.353v-4.912c0-1.3-1.054-2.353-2.355-2.353s-2.355 1.052-2.355 2.353v4.912c0 1.3 1.054 2.353 2.355 2.353z"/><path id="S" d="M696.15 10.153c-.706-.707-1.855-.707-2.562 0a1.81 1.81 0 0 0 0 2.56l5.125 5.121c.707.705 1.855.705 2.562 0a1.81 1.81 0 0 0 0-2.561l-5.125-5.12z"/><path id="T" d="M701.276 12.713a1.81 1.81 0 0 0 0-2.56c-.707-.707-1.855-.707-2.562 0l-5.125 5.12a1.81 1.81 0 0 0 0 2.561c.707.705 1.856.705 2.562 0l5.125-5.121z"/><path id="U" d="M595.335 67.603l-11.448-8.336c-6.323-4.604-7.038-13.762-1.505-19.29l4.005-4.001h17.898l4.005 4.001c5.533 5.528 4.818 14.686-1.505 19.29l-11.448 8.336z"/><path id="V" d="M578.385 46.321c-.778 0-1.543-.379-2-1.077-.725-1.103-.417-2.583.687-3.305l9.711-6.365a2.39 2.39 0 0 1 3.307.685c.725 1.103.417 2.583-.687 3.305l-9.711 6.365a2.37 2.37 0 0 1-1.306.392z"/><path id="W" d="M612.263 46.321c-.448 0-.902-.126-1.306-.392l-9.708-6.365c-1.104-.723-1.412-2.202-.687-3.305s2.193-1.414 3.307-.685l9.708 6.365c1.104.723 1.412 2.202.687 3.305-.457.698-1.222 1.077-2 1.077z"/><path id="X" d="M855.605 61.262l1.685-1.684-1.685-1.684a3.83 3.83 0 0 0-2.706-1.12h-13.038c-1.712 0-3.355.68-4.566 1.889l-.971.97.859.858a6.46 6.46 0 0 0 4.566 1.89h13.15a3.83 3.83 0 0 0 2.706-1.12z"/><path id="Y" d="M878.161 88.634h-13.038a6.46 6.46 0 0 0-4.566 1.89l-.971.97.859.858a6.46 6.46 0 0 0 4.566 1.89h13.15a3.83 3.83 0 0 0 2.706-1.12l1.685-1.684-1.685-1.684a3.83 3.83 0 0 0-2.706-1.12z"/><path id="Z" d="M1055.234 81.58h-13.038a6.46 6.46 0 0 0-4.566 1.89l-.971.97.859.858a6.46 6.46 0 0 0 4.566 1.89h13.15c1.015 0 1.988-.403 2.705-1.12l1.686-1.684-1.686-1.684c-.717-.717-1.691-1.12-2.705-1.12z"/></defs><g clip-path="url(#A)"><path d="M-10.125-2869.564h1520.249v4049.482H-10.125z" fill="#61d1d5"/><path d="M1453.143 597.454c-.262 36.175-22.061 68.417-55.535 82.139a89.26 89.26 0 0 1-97.211-19.522l-46.55-46.551c-16.903-16.903-26.209-39.372-26.209-63.271v-74.884c0-3.83-1.491-7.431-4.199-10.139l-24.103-24.102c-16.901-16.903-26.207-39.372-26.207-63.27v-60.312c0-3.83-1.491-7.431-4.199-10.139l-39.993-39.993c-16.899-16.898-26.207-39.369-26.207-63.27v-8.384c0-49.338 40.14-89.478 89.478-89.478a14.24 14.24 0 0 0 10.137-4.199l63.55-63.552c16.901-16.899 39.37-26.205 63.271-26.205h38.113c49.338 0 89.478 40.135 89.478 89.467l-3.614 495.666z" class="P"/><path d="M1264.103 254.639v-74.57c0-6.757 2.684-13.238 7.462-18.015s7.462-11.258 7.462-18.015v-24.816c0-6.757-2.684-13.238-7.462-18.015l-7.608-7.608-35.045 35.045c-9.735 9.735-22.938 15.203-36.704 15.203h0c-28.668 0-51.908 23.24-51.908 51.908v8.384a51.91 51.91 0 0 0 15.203 36.704l39.994 39.994c9.735 9.734 15.203 22.937 15.203 36.704v22.741l30.605-30.605c14.597-14.597 22.798-34.395 22.798-55.038z" class="Q"/><path d="M1292.461 65.094l-28.505 28.505 7.608 7.608c4.778 4.778 7.462 11.258 7.462 18.015v24.816c0 6.757-2.684 13.238-7.462 18.015s-7.462 11.258-7.462 18.015v74.57c0 20.643-8.201 40.441-22.798 55.038l-30.605 30.605v37.571c0 13.767 5.469 26.97 15.204 36.704l24.103 24.103c9.735 9.734 15.204 22.938 15.204 36.704v74.884a51.91 51.91 0 0 0 15.203 36.704l46.552 46.552c32.571 32.571 88.275 9.736 88.611-36.326l3.61-495.003c.21-28.815-23.091-52.287-51.907-52.287h-38.113a51.91 51.91 0 0 0-36.705 15.204z" class="G"/><g class="C J K L M"><path d="M1263.957 93.599h0"/><path d="M1271.147 100.789l.418.418c4.778 4.778 7.462 11.258 7.462 18.016v24.816c0 6.757-2.684 13.237-7.462 18.015s-7.462 11.258-7.462 18.016v74.57c0 20.643-8.201 40.441-22.798 55.038l-27.01 27.01" stroke-dasharray="0 10.169"/><path d="M1210.7 350.307v27.547c0 13.767 5.469 26.97 15.204 36.704l24.103 24.103c9.735 9.734 15.203 22.938 15.203 36.704v74.885a51.91 51.91 0 0 0 15.203 36.704l46.552 46.552c32.571 32.571 88.275 9.736 88.611-36.326l3.61-495.002c.21-28.815-23.091-52.287-51.907-52.287h-38.113a51.91 51.91 0 0 0-36.705 15.204l-24.961 24.96" stroke-dasharray="0 10.024"/></g><g class="B"><path d="M1201.49 70.56a4.88 4.88 0 0 0-4.88-4.876h-11.199a4.88 4.88 0 0 0-4.88 4.876v.004a4.88 4.88 0 0 0 4.88 4.876h11.199a4.88 4.88 0 0 0 4.88-4.876v-.004z" opacity=".073"/><g class="N"><use href="#M"/><path d="M1170.957,31.575h11.967v4.007h-7.96c-2.214,0-4.008-1.792-4.008-4.004v-.003Z"/></g><use href="#N" fill="#fff"/><path d="M1205.53,34.254c0-.733.596-1.329,1.33-1.329h3.989c.734,0,1.33.595,1.33,1.329s-.596,1.329-1.33,1.329h-3.989c-.734,0-1.33-.595-1.33-1.329Z" fill="#f0a039"/><path d="M1191.011 39.01c0-.866.344-1.697.957-2.309a3.27 3.27 0 0 1 2.311-.957h.004a3.27 3.27 0 0 1 3.268 3.266v5.617a4.48 4.48 0 0 1-2.663 4.095l-7.335 3.256c-.25.112-.545.044-.721-.167s-.191-.512-.036-.739l3.452-5.071c.496-.729.762-1.59.762-2.472V39.01z" class="N"/><path d="M1196.222,33.59c0-1.1.894-1.993,1.995-1.993h7.978c1.101,0,1.995.893,1.995,1.993s-.894,1.993-1.995,1.993h-7.978c-1.101,0-1.995-.893-1.995-1.993Z" fill="#fff"/></g><path d="M1205.53 32.925h1.33v1.329h-1.33z" fill="#6e82a4"/><rect x="1148.889" y="84.335" width="20.959" height="9.756" rx="4.876" opacity=".073"/><g class="B"><g class="N"><path d="M1159.368 51.13c0 .866.344 1.697.957 2.309a3.27 3.27 0 0 0 2.311.957h.004c1.804 0 3.268-1.461 3.268-3.266v-5.617c0-1.771-1.044-3.375-2.663-4.095l-7.335-3.256c-.25-.112-.545-.042-.721.167s-.191.512-.036.739l3.452 5.071c.496.729.762 1.59.762 2.473v4.519zm-20.053-.904h11.967v4.007h-7.96c-2.214 0-4.008-1.792-4.008-4.004v-.003z"/></g><path d="M1145.394 50.226a15.13 15.13 0 0 0 27.947 0h-27.947z" fill="#fff"/><path d="M1173.887,52.905c0-.733.596-1.329,1.33-1.329h3.989c.734,0,1.33.595,1.33,1.329s-.596,1.329-1.33,1.329h-3.989c-.734,0-1.33-.595-1.33-1.329Z" fill="#f0a039"/><path d="M1159.368 57.661c0-.866.344-1.697.957-2.309a3.27 3.27 0 0 1 2.311-.957h.004a3.27 3.27 0 0 1 3.268 3.266v5.617a4.48 4.48 0 0 1-2.663 4.095l-7.335 3.256c-.25.112-.545.044-.721-.167s-.191-.512-.036-.739l3.452-5.071c.496-.729.762-1.59.762-2.472v-4.519z" class="N"/><path d="M1164.579,52.24c0-1.1.894-1.993,1.995-1.993h7.978c1.101,0,1.995.893,1.995,1.993s-.894,1.993-1.995,1.993h-7.978c-1.101,0-1.995-.893-1.995-1.993Z" fill="#fff"/></g><path d="M1173.887 51.576h1.33v1.329h-1.33z" fill="#6e82a4"/><path d="M1327.807 111.351h-14.894l-4.036 36.831a3.45 3.45 0 0 0 3.431 3.824h16.177a3.45 3.45 0 0 0 3.431-3.831l-4.109-36.825z" fill="#b38150"/><g clip-path="url(#B)" class="B"><use href="#O" style="mix-blend-mode:multiply" fill="#6a6863" opacity=".25"/></g><path d="M1320.397 110.181a20.24 20.24 0 0 0 5.935 14.318c3.801 3.798 8.956 5.93 14.333 5.93h20.385v-13.386c0-5.372-2.134-10.523-5.935-14.321a20.29 20.29 0 0 0-14.333-5.93h-20.385v13.389z" class="B O"/><g clip-path="url(#C)"><path d="M1320.397 96.792l45.366 38.775h-45.366V96.792z" class="B D"/><path d="M1318.81 98.753l3.212-3.933 40.631 33.184-3.212 3.933z" class="H"/><g class="B"><g class="F"><path d="M1344.111 132.623h-5.082v-8.54a2.541 2.541 0 1 1 5.082 0v8.54zm-10.163.375h-5.082v-16.852c0-1.401 1.136-2.536 2.538-2.536h.005c1.402 0 2.538 1.135 2.538 2.536v16.852z"/></g><g class="D"><path d="M1361.05 116.197v-4.808h-7.757c-.638 0-1.25.254-1.702.706a2.4 2.4 0 0 0-.704 1.698h0a2.41 2.41 0 0 0 .704 1.701c.452.452 1.065.703 1.702.703h7.757zm0-9.885v-5.077h-15.247c-1.402 0-2.538 1.135-2.538 2.536v.005c0 1.401 1.136 2.536 2.538 2.536h15.247z"/></g></g></g><path d="M1320.397 110.181a20.24 20.24 0 0 1-5.935 14.318c-3.801 3.798-8.956 5.93-14.333 5.93h-20.385v-13.386c0-5.372 2.134-10.523 5.935-14.321a20.29 20.29 0 0 1 14.333-5.93h20.385v13.389z" class="B O"/><g clip-path="url(#D)"><path d="M1320.397 96.792l-45.367 38.775h45.367V96.792z" class="B D"/><path d="M1278.142 127.986l40.654-33.156 3.209 3.935-40.654 33.156z" class="H"/><g class="B"><g class="F"><path d="M1296.682 132.623h5.082v-8.54a2.541 2.541 0 1 0-5.082 0v8.54zm10.164.375h5.082v-16.849c0-.673-.267-1.318-.744-1.795a2.54 2.54 0 0 0-1.796-.744c-.673 0-1.321.269-1.796.744a2.54 2.54 0 0 0-.744 1.795v16.849z"/></g><g class="D"><path d="M1279.744 116.466v-5.077h7.625a2.53 2.53 0 0 1 1.794.744c.478.475.744 1.12.744 1.792v.005c0 .673-.267 1.318-.744 1.795a2.53 2.53 0 0 1-1.794.741h-7.625zm0-10.154v-5.077h15.245c.673 0 1.321.269 1.796.744a2.54 2.54 0 0 1 .744 1.795c0 .673-.267 1.32-.744 1.795a2.55 2.55 0 0 1-1.796.744h-15.245z"/></g></g></g><path d="M1320.408 130.429l-12.176-8.866c-6.725-4.897-7.485-14.637-1.601-20.516l4.259-4.256h19.035l4.259 4.256c5.884 5.879 5.124 15.619-1.601 20.516l-12.176 8.866z" class="B H"/><g clip-path="url(#E)"><path d="M1320.408 95.251h19.209v36.429h-19.209z" class="D"/><path d="M1317.857 93.125h5.082v44.28h-5.082z" fill="#5ebe3e"/><use href="#P" class="D"/><use href="#Q" class="F"/><path d="M1302.381 126.916a2.54 2.54 0 0 1-2.127-1.145c-.771-1.173-.443-2.747.731-3.515l10.329-6.77a2.54 2.54 0 0 1 3.517.729c.771 1.173.443 2.747-.731 3.515l-10.329 6.77a2.52 2.52 0 0 1-1.39.416z" class="D"/><path d="M1338.412 126.916a2.53 2.53 0 0 1-1.39-.416l-10.325-6.77c-1.174-.769-1.502-2.342-.731-3.515s2.332-1.504 3.517-.729l10.325 6.77c1.174.769 1.502 2.342.731 3.515a2.54 2.54 0 0 1-2.127 1.145z" class="F"/></g><path d="M1334.111 143.122a4.98 4.98 0 0 0-4.965 4.96 4.98 4.98 0 0 0-4.965-4.96 4.98 4.98 0 0 0-4.965 4.96 4.98 4.98 0 0 0-4.965-4.96 4.98 4.98 0 0 0-4.965 4.96 4.98 4.98 0 0 0-4.965-4.96 4.98 4.98 0 0 0-4.965 4.96l4.488 3.924 11.545 1.237 16.547-.818 7.138-4.344a4.98 4.98 0 0 0-4.965-4.96z" class="B G"/><g class="R"><path d="M1379.17,89.01c1.3,0,2.355-1.052,2.355-2.353v-7.366c0-1.3-1.054-2.353-2.355-2.353s-2.355,1.052-2.355,2.353v7.366c0,1.3,1.054,2.353,2.355,2.353Z" class="I"/><use href="#R" class="I"/><path d="M1388.591 89.01c1.3 0 2.355-1.052 2.355-2.353v-4.912c0-1.3-1.054-2.353-2.355-2.353s-2.355 1.052-2.355 2.353v4.912c0 1.3 1.054 2.353 2.355 2.353z" class="I"/></g><path d="M630.68 209.491c-23.834.002-47.052-9.786-63.697-26.853l-49.229-50.48c-16.446-16.865-25.421-39.124-25.274-62.679s9.402-45.699 26.059-62.355l6.5-6.5c16.802-16.804 39.144-26.059 62.909-26.059h51.402c3.311 0 6.548-1.342 8.887-3.681l9.33-9.33c16.797-16.797 39.135-26.047 62.9-26.047 4.826 0 9.687.395 14.447 1.175 18.476 3.031 35.239 11.631 48.479 24.872 16.805 16.805 26.06 39.148 26.06 62.914v46.157c0 23.765-9.255 46.108-26.06 62.913l-49.892 49.893c-8.481 8.481-18.433 15.065-29.58 19.569-10.652 4.306-21.868 6.49-33.334 6.49h-39.906z" class="P"/><path d="M711.909 43.544h0c-13.116 13.116-20.484 30.905-20.484 49.453v79.06c6.553-2.648 12.58-6.594 17.674-11.689l52.241-52.241a53.16 53.16 0 0 0 15.57-37.589V22.209c0-14.099-5.601-27.62-15.57-37.59h0c-8.174-8.174-18.349-13.115-28.947-14.852v24.324c0 18.548-7.368 36.337-20.484 49.453z" class="Q"/><path d="M686.161-15.381l-9.768 9.768a53.16 53.16 0 0 1-37.589 15.57h-53.817a53.16 53.16 0 0 0-37.589 15.57l-6.806 6.806c-20.576 20.576-20.785 53.871-.469 74.704l51.545 52.855a53.16 53.16 0 0 0 38.058 16.045h41.784c6.893 0 13.645-1.347 19.915-3.881v-79.06c0-18.549 7.368-36.337 20.484-49.453h0c13.116-13.116 20.484-30.905 20.484-49.453v-24.324c-16.32-2.675-33.646 2.266-46.232 14.852z" class="G"/><g class="C J K L M"><path d="M691.425 161.903V92.997c0-18.549 7.368-36.337 20.484-49.453h0c13.116-13.116 20.484-30.905 20.484-49.453v-19.247" stroke-dasharray="0 10.154"/><path d="M722.382-30.92c-13.145.333-26.188 5.507-36.22 15.54l-9.768 9.768a53.16 53.16 0 0 1-37.589 15.57h-53.817a53.16 53.16 0 0 0-37.589 15.57l-6.806 6.806c-20.576 20.576-20.785 53.871-.469 74.704l51.545 52.855a53.16 53.16 0 0 0 38.058 16.045h41.784c5.186 0 10.292-.763 15.173-2.219" stroke-dasharray="0 10.051"/></g><g class="R"><path d="M663.653 52.616c1.3 0 2.355-1.052 2.355-2.353v-7.366c0-1.3-1.054-2.353-2.355-2.353s-2.355 1.052-2.355 2.353v7.366c0 1.3 1.054 2.353 2.355 2.353zm-9.421 0c1.3 0 2.355-1.052 2.355-2.353v-4.912c0-1.3-1.054-2.353-2.355-2.353s-2.355 1.052-2.355 2.353v4.912c0 1.3 1.054 2.353 2.355 2.353zm18.843 0c1.3 0 2.355-1.052 2.355-2.353v-4.912c0-1.3-1.054-2.353-2.355-2.353s-2.355 1.052-2.355 2.353v4.912c0 1.3 1.054 2.353 2.355 2.353z" class="I"/></g><path d="M588.788 138.272a4.03 4.03 0 0 1-3.334-1.768 4.02 4.02 0 0 1-.405-3.751l12.177-30.417c.741-1.85 2.53-3.052 4.524-3.052h17.407c2.178 0 4.092 1.442 4.69 3.535l3.867 13.523 14.904 4.255a4.86 4.86 0 0 1 3.097 2.661l8.677 19.072c.566 1.246.461 2.694-.28 3.844a4.03 4.03 0 0 1-3.387 1.846h-29.707c-1.958 0-3.836-.777-5.222-2.16l-5.429-5.426a7.39 7.39 0 0 0-5.222-2.16h-16.357z" fill="#777087" class="B"/><g clip-path="url(#F)" class="B"><path d="M615.402,133.398c0-2.692-2.183-4.873-4.878-4.873s-4.878,2.182-4.878,4.873v14.62h9.755v-14.62Z" fill="#675d7e"/><path d="M656.761 107.362v-9.064a3.9 3.9 0 0 0-3.902-3.899h-10.173a3.9 3.9 0 0 1-3.902-3.899v-.017a3.9 3.9 0 0 0-3.902-3.899h-10.173a3.9 3.9 0 0 1-3.902-3.899V79.24a3.9 3.9 0 0 0-3.902-3.899h-12.181a3.9 3.9 0 0 0-3.902 3.899v3.445a3.9 3.9 0 0 1-3.902 3.899h-10.173a3.9 3.9 0 0 0-3.902 3.899V101.6a3.9 3.9 0 0 1-3.902 3.899H568.77a3.9 3.9 0 0 0-3.902 3.899v30.66a3.9 3.9 0 0 0 3.902 3.899l10.168-.845a3.9 3.9 0 0 0 3.902-3.899l3.202-11.116c0-.526.912-.182 1.101-.64.585-1.417 1.98-2.414 3.609-2.414h5.141c3.831 0 6.936-3.103 6.936-6.93h0c0-2.382 1.932-4.312 4.316-4.312h2.497c2.924 0 5.294 2.368 5.294 5.289v.945c0 3.771 3.06 6.829 6.834 6.829h11.103a3.9 3.9 0 0 1 3.902 3.899v1.117a6.69 6.69 0 0 0 6.691 6.685h6.73a3.9 3.9 0 0 1 3.474 2.122c.273.533 2.886 3.427 2.886 3.427 0 2.153.277 3.899 2.432 3.899h11.847a3.9 3.9 0 0 0 3.902-3.899v-28.953a3.9 3.9 0 0 0-3.902-3.899h-10.173a3.9 3.9 0 0 1-3.902-3.899z" fill="#4ba582"/><path d="M624.632 105.327a4.88 4.88 0 0 0-6.03 3.347c-.741 2.589.759 5.285 3.349 6.025l14.069 4.018 2.681-9.372-14.069-4.018z" fill="#41927e"/></g><path d="M670.272 108.281a2.38 2.38 0 0 0 1.971-1.045 2.37 2.37 0 0 0 .239-2.217l-7.199-17.983c-.438-1.094-1.496-1.804-2.675-1.804h-10.291c-1.288 0-2.419.853-2.773 2.09l-.571 2.232-4.464 2.515a2.87 2.87 0 0 0-1.831 1.573l-5.13 11.204c-.335.736-.273 1.593.166 2.273a2.38 2.38 0 0 0 2.003 1.091l30.555.071z" fill="#777087" class="B"/><g clip-path="url(#G)" class="B"><path d="M630.086 90.006v-5.359c0-1.273 1.033-2.305 2.307-2.305h6.014c1.274 0 2.307-1.032 2.307-2.305v-.01c0-1.273 1.033-2.305 2.307-2.305h6.014c1.274 0 2.307-1.032 2.307-2.305V73.38c0-1.273 1.033-2.305 2.307-2.305h7.201c1.274 0 2.307 1.032 2.307 2.305v2.037c0 1.273 1.033 2.305 2.307 2.305h6.014c1.274 0 2.307 1.032 2.307 2.305v6.572c0 1.273 1.033 2.305 2.307 2.305h6.014c1.274 0 2.307 1.032 2.307 2.305v18.126c0 1.273-1.033 2.305-2.307 2.305l-6.012-.5c-1.274 0-2.307-1.032-2.307-2.305l-1.893-6.572c0-.311-.539-.108-.651-.378a2.31 2.31 0 0 0-2.134-1.427h-3.04a4.1 4.1 0 0 1-4.101-4.097h0a2.55 2.55 0 0 0-2.552-2.55h-4.728a3.13 3.13 0 0 0-3.13 3.127v.559a4.04 4.04 0 0 1-4.041 4.037h-7.009c-1.06 0-1.953.714-2.223 1.688-.055.197-2.921 1.278-2.921 1.278 0 2.183-1.771 3.952-3.956 3.952h2.555c-.895 0-1.672.51-2.054 1.255-.162.315-1.706 2.026-1.706 2.026 0 1.273-.163 2.305-1.438 2.305h-7.004c-1.274 0-2.307-1.032-2.307-2.305V94.616c0-1.273 1.033-2.305 2.307-2.305h6.014c1.274 0 2.307-1.032 2.307-2.305z" fill="#4ba582"/><path d="M650.34 82.54c1.442-.676 3.159-.057 3.836 1.384a2.88 2.88 0 0 1-1.385 3.833l-10.045 4.723-.237-6.266 7.831-3.674z" fill="#41927e"/></g><g fill="#f8d749" class="B"><use href="#S"/><use href="#T"/><path d="M684.082 21.631c-.706-.707-1.855-.707-2.562 0a1.81 1.81 0 0 0 0 2.56l5.125 5.121c.707.705 1.855.705 2.562 0a1.81 1.81 0 0 0 0-2.561l-5.125-5.12z"/><path d="M689.207 24.19a1.81 1.81 0 0 0 0-2.56c-.707-.707-1.855-.707-2.562 0l-5.125 5.12a1.81 1.81 0 0 0 0 2.561c.707.705 1.856.705 2.562 0l5.125-5.121zm15.692 2.392c-.706-.707-1.855-.707-2.562 0a1.81 1.81 0 0 0 0 2.56l5.125 5.121c.707.705 1.855.705 2.562 0a1.81 1.81 0 0 0 0-2.561l-5.125-5.12z"/><path d="M710.024 29.142a1.81 1.81 0 0 0 0-2.56c-.707-.707-1.855-.707-2.562 0l-5.125 5.12a1.81 1.81 0 0 0 0 2.561c.707.705 1.856.705 2.562 0l5.125-5.121z"/></g><path d="M602.292,42.57h-14.004l-3.795,34.63c-.21,1.919,1.294,3.596,3.226,3.596h15.211c1.935,0,3.44-1.681,3.226-3.602l-3.863-34.624Z" fill="#b38150"/><g clip-path="url(#H)" class="B"><use href="#U" style="mix-blend-mode:multiply" fill="#6a6863" opacity=".25"/></g><path d="M595.324 41.47a19.03 19.03 0 0 0 5.581 13.462c3.574 3.571 8.421 5.576 13.476 5.576h19.167V47.922c0-5.051-2.007-9.894-5.581-13.465s-8.421-5.576-13.476-5.576h-19.167V41.47z" class="B O"/><g clip-path="url(#I)"><path d="M595.324 28.881l42.655 36.458h-42.655V28.881z" class="B D"/><path d="M593.829 30.721l3.02-3.698 38.203 31.201-3.02 3.698z" class="H"/><g class="B"><g class="F"><path d="M617.621 62.571h-4.778v-8.03a2.39 2.39 0 0 1 2.389-2.387 2.39 2.39 0 0 1 2.389 2.387v8.03zm-9.556.353h-4.778V47.079c0-1.318 1.068-2.385 2.387-2.385h.005c1.319 0 2.387 1.067 2.387 2.385v15.845z"/></g><g class="D"><path d="M633.548 47.127v-4.521h-7.294c-.6 0-1.175.239-1.601.664a2.26 2.26 0 0 0-.662 1.597h0c0 .602.239 1.174.662 1.599a2.26 2.26 0 0 0 1.601.661h7.294zm0-9.295v-4.774h-14.336c-1.319 0-2.387 1.067-2.387 2.385v.005c0 1.318 1.068 2.385 2.387 2.385h14.336z"/></g></g></g><path d="M595.324 41.47a19.03 19.03 0 0 1-5.581 13.462c-3.574 3.571-8.421 5.576-13.476 5.576H557.1V47.922c0-5.051 2.007-9.894 5.581-13.465s8.421-5.576 13.476-5.576h19.167V41.47z" class="B O"/><g clip-path="url(#J)"><path d="M595.324 28.881l-42.655 36.458h42.655V28.881z" class="B D"/><path d="M555.593 58.208l38.225-31.174 3.018 3.7-38.225 31.174z" class="H"/><g class="B"><g class="F"><path d="M573.027 62.571h4.778v-8.03a2.39 2.39 0 0 0-2.389-2.387 2.39 2.39 0 0 0-2.389 2.387v8.03zm9.556.353h4.778V47.082c0-.633-.251-1.239-.7-1.688s-1.056-.699-1.689-.699-1.242.253-1.689.699a2.39 2.39 0 0 0-.7 1.688v15.842z"/></g><g class="D"><path d="M557.1 47.38v-4.774h7.169a2.38 2.38 0 0 1 1.687.699c.449.446.7 1.053.7 1.685v.005c0 .633-.251 1.239-.7 1.688a2.39 2.39 0 0 1-1.687.697H557.1zm0-9.548v-4.774h14.334c.633 0 1.242.253 1.689.699a2.39 2.39 0 0 1 .7 1.688 2.38 2.38 0 0 1-.7 1.688c-.447.449-1.056.699-1.689.699H557.1z"/></g></g></g><path d="M595.335 60.508l-11.448-8.336c-6.323-4.604-7.038-13.762-1.505-19.29l4.005-4.001h17.898l4.005 4.001c5.533 5.528 4.818 14.686-1.505 19.29l-11.448 8.336z" class="B H"/><g clip-path="url(#K)"><path d="M595.335 27.432h18.061v34.252h-18.061z" class="D"/><path d="M592.936 25.433h4.778v41.634h-4.778z" fill="#5ebe3e"/><use href="#V" class="D"/><use href="#W" class="F"/><path d="M578.385 57.205c-.778 0-1.543-.379-2-1.077-.725-1.103-.417-2.583.687-3.305l9.711-6.365a2.39 2.39 0 0 1 3.307.685c.725 1.103.417 2.583-.687 3.305l-9.711 6.365a2.37 2.37 0 0 1-1.306.392z" class="D"/><path d="M612.263 57.205c-.448 0-.902-.126-1.306-.392l-9.708-6.365c-1.104-.723-1.412-2.202-.687-3.305s2.193-1.414 3.307-.685l9.708 6.365c1.104.723 1.412 2.202.687 3.305-.457.698-1.222 1.077-2 1.077z" class="F"/></g><path d="M608.219,72.443c-2.567,0-4.668,2.099-4.668,4.664,0-2.565-2.101-4.664-4.668-4.664s-4.668,2.099-4.668,4.664c0-2.565-2.101-4.664-4.668-4.664s-4.668,2.099-4.668,4.664c0-2.565-2.101-4.664-4.668-4.664s-4.668,2.099-4.668,4.664l4.219,3.69,10.855,1.163,15.559-.769,6.712-4.084c0-2.565-2.101-4.664-4.668-4.664Z" class="B G"/><path d="M334.273 184.158l97.829-97.746c10.027-10.014 15.549-23.331 15.549-37.496V32.711c0-29.236-23.806-53.021-53.066-53.021h-62.502a38.86 38.86 0 0 1-27.654-11.446l-26.386-26.362c-2.871-26.548-25.436-47.284-52.757-47.284h-9.701c-14.176 0-27.502 5.515-37.525 15.528l-74.211 74.153C88.5-.388 80.048 19.998 80.048 41.685v48.459c0 21.687 8.452 42.075 23.798 57.406l36.634 36.602c2.266 3.228 5.371 5.791 8.914 7.824 10.304 5.911 12.152 19.86 3.66 28.167l-.298.293-213.244 198.696 32.859 157.902H249.77c16.737 0 33.057-5.862 45.951-16.504 16.864-13.915 26.464-34.494 26.271-56.371-.352-39.812-33.483-71.575-73.296-71.575h-18.117c-1.647 0-3.202-.599-4.417-1.695l-.485-.551c-2.331-2.601-2.23-6.568.229-9.028l16.323-16.322a28.12 28.12 0 0 1 19.885-8.236h26.98a84.85 84.85 0 0 0 12.193-.88c4.391-.638 8.269 2.887 8.186 7.323l-.007.72c.002 21.638 18.082 38.951 39.72 38.951h13.628c21.287 0 39.548-17.404 39.689-38.691a38.73 38.73 0 0 0-3.44-16.263c-2.694-5.954 1.665-12.697 8.2-12.697h.005c20.954 0 38.64-17.14 38.947-38.092.321-21.912-11.607-31.781-22.878-36.217-5.747-2.262-7.441-9.676-3.282-14.243 6.531-7.172 10.426-16.783 10.133-27.291-.579-20.832-18.863-37.849-39.703-37.849h-14.366a38.73 38.73 0 0 0-22.601 7.246c-9.114 6.516-21.57 5.601-29.492-2.322l-5.63-5.63-.3-.299c-9.554-9.461-6.386-25.529 6.096-30.525 4.322-1.73 7.923-3.679 10.081-5.836z" class="P"/><g class="B"><path d="M201.46-66.495l-43.647 43.61a48.1 48.1 0 0 0-14.106 34.026V59.6a48.1 48.1 0 0 0 14.106 34.026l36.64 36.609c3.746 3.743 8.827 5.846 14.125 5.846h118.744c5.298 0 10.379-2.103 14.125-5.846l67.264-67.207a19.95 19.95 0 0 0 5.851-14.113V32.71c0-11.023-8.944-19.959-19.976-19.959h-62.502a72.23 72.23 0 0 1-51.053-21.129l-29.916-29.891a19.95 19.95 0 0 1-5.851-14.113h0c0-11.023-8.944-19.959-19.976-19.959h-9.702c-5.298 0-10.379 2.103-14.125 5.846z" class="Q"/><path d="M170.891-35.951l-43.647 43.61a48.1 48.1 0 0 0-14.106 34.026v48.459a48.1 48.1 0 0 0 14.106 34.026l36.64 36.609c3.746 3.743 8.827 5.846 14.125 5.846h118.744c5.298 0 10.379-2.103 14.125-5.846l67.264-67.207a19.95 19.95 0 0 0 5.851-14.113V63.254c0-11.023-8.944-19.959-19.976-19.959h-62.502a72.23 72.23 0 0 1-51.053-21.129L220.546-7.725a19.95 19.95 0 0 1-5.851-14.113h0c0-11.023-8.944-19.959-19.976-19.959h-9.702c-5.298 0-10.379 2.103-14.125 5.846z" class="G"/></g><path d="M170.891-35.951l-43.647 43.61a48.1 48.1 0 0 0-14.106 34.026v48.459a48.1 48.1 0 0 0 14.106 34.026l36.64 36.609c3.746 3.743 8.827 5.846 14.125 5.846h118.744c5.298 0 10.379-2.103 14.125-5.846l67.264-67.207a19.95 19.95 0 0 0 5.851-14.113V63.254c0-11.023-8.944-19.959-19.976-19.959h-62.502a72.23 72.23 0 0 1-51.053-21.129L220.546-7.725a19.95 19.95 0 0 1-5.851-14.113c0-11.023-8.944-19.959-19.976-19.959h-9.702c-5.298 0-10.379 2.103-14.125 5.846z" stroke-dasharray="0 9.998" class="C J K L M"/><path d="M247.866-25.029l-7.287-15.476c-.511-1.086-2.056-1.086-2.568 0l-7.287 15.476a1.42 1.42 0 0 1-2.222.461l-4.573-4.025c-.986-.868-2.521-.045-2.344 1.257l1.818 13.358 5.671 44.3a1.42 1.42 0 0 0 1.408 1.239h18.759a1.42 1.42 0 0 0 1.412-1.275l4.533-44.265 1.818-13.358c.177-1.302-1.357-2.125-2.344-1.257l-4.573 4.025a1.42 1.42 0 0 1-2.222-.461z" fill="#b4452c"/><path d="M244.787-15.838l-4.232-8.19a1.42 1.42 0 0 0-2.522 0l-4.232 8.19a1.42 1.42 0 0 1-2.149.456l-1.755-1.407c-1.007-.808-2.482.04-2.291 1.317l1.029 6.886 3.738 26.613a1.42 1.42 0 0 0 1.405 1.222h11.777a1.42 1.42 0 0 0 1.41-1.261l2.986-26.574 1.029-6.886c.191-1.277-1.284-2.125-2.292-1.317l-1.755 1.407a1.42 1.42 0 0 1-2.149-.456z" fill="#e45738"/><path d="M242.887-8.304l-2.343-4.348a1.42 1.42 0 0 0-2.499 0l-2.343 4.348a1.42 1.42 0 0 1-2.115.452h0c-1.016-.781-2.465.077-2.267 1.343l.544 3.491 2.569 20.421a1.42 1.42 0 0 0 1.408 1.242h7.419a1.42 1.42 0 0 0 1.412-1.277l2.048-20.347.01-.076.538-3.453c.197-1.266-1.252-2.125-2.267-1.343h0a1.42 1.42 0 0 1-2.115-.452z" fill="#f0a03b"/><path d="M240.951.204l-.372-.79c-.511-1.086-2.056-1.086-2.568 0l-.372.79a1.42 1.42 0 0 1-2.222.461l-.904-.796.612 4.495 1.391 12.648a1.42 1.42 0 0 0 1.411 1.264h3.015a1.42 1.42 0 0 0 1.414-1.295l1.11-12.617.612-4.495-.904.796a1.42 1.42 0 0 1-2.222-.461z" fill="#f9e44d"/><path d="M225.162-11.006h28.266c6.149 0 11.94 2.895 15.629 7.815l89.745 119.66H119.787l89.745-119.66a19.54 19.54 0 0 1 15.629-7.815z" fill="#a6aeca"/><g clip-path="url(#L)"><path d="M201.511 7.247l3.834-3.834c1.124-1.124 2.649-1.756 4.239-1.756h0c1.59 0 3.115.632 4.239 1.756l27.244 27.244c.536.536 1.263.837 2.02.837h0c.758 0 1.485-.301 2.02-.837l2.595-2.595a11.72 11.72 0 0 1 16.57 0l9.053 9.053a11.72 11.72 0 0 0 16.57 0l.494-.494c.614-.614 1.446-.959 2.315-.959h2.44c2.498 0 4.075-2.685 2.859-4.867l-27.738-49.777c-.578-1.037-1.672-1.68-2.859-1.68h-56.123c-1.316 0-2.505.789-3.016 2.002L198.265 5.064c-.849 2.015 1.698 3.728 3.244 2.182z" class="I S"/><path d="M334.346 76.315h-10.954a12.22 12.22 0 0 0-8.641 3.579l-6.794 6.794a12.22 12.22 0 0 1-8.641 3.579H274.06a12.22 12.22 0 0 1-8.641-3.579l-7.764-7.764c-5.222-5.222-13.687-5.222-18.909 0h0a13.37 13.37 0 0 1-9.454 3.916h-.896a13.37 13.37 0 0 0-9.454 3.916l-2.714 2.714a13.37 13.37 0 0 1-9.454 3.916h-11.783a12.22 12.22 0 0 1-8.641-3.579l-.023-.023a12.22 12.22 0 0 0-8.641-3.579h-11.339a12.22 12.22 0 0 1-8.641-3.579l-2.766-2.766c-4.772-4.772-12.51-4.772-17.282 0l-20.894 26.399h243.231l-16.159-25.424a12.22 12.22 0 0 0-9.49-4.522z" class="G"/><path d="M117.907-15.065h121.388v123.567H117.907z" opacity=".15" class="S"/><path style="mix-blend-mode:overlay" d="M387.996 108.502h-79.179L275.452-15.065h112.544v123.567z" fill="#cbcbe9" opacity=".15"/><path d="M80.069 108.502h88.501l34.879-123.567H80.069v123.567z" opacity=".15" class="S"/></g><path d="M346.876 100.535H131.715c-6.181 0-11.926 3.184-15.201 8.425l3.274 7.509h239.016l3.274-7.509c-3.276-5.241-9.021-8.425-15.201-8.425z" class="G"/><g class="C J K L M"><path d="M127.249 100.535h0"/><path d="M137.045 100.535h210.603" stroke-dasharray="0 9.795"/><path d="M352.546 100.535h0"/></g><g fill="#f8d749" class="B"><path d="M215.579 135.165l-1.199-1.198 1.199-1.198c.662-.661.662-1.735 0-2.396a1.7 1.7 0 0 0-2.398 0l-1.2 1.198-1.2-1.198a1.7 1.7 0 0 0-2.398 0c-.662.66-.662 1.734 0 2.396l1.199 1.198-1.199 1.198c-.662.661-.662 1.736 0 2.397a1.7 1.7 0 0 0 2.398 0l1.2-1.199 1.2 1.199a1.7 1.7 0 0 0 2.398 0c.662-.661.662-1.736 0-2.397zm-11.295 5.95a1.7 1.7 0 0 0-2.398 0l-1.199 1.198-1.2-1.198a1.7 1.7 0 0 0-2.398 0c-.662.66-.662 1.734 0 2.396l1.199 1.198-1.199 1.198c-.662.661-.662 1.736 0 2.397a1.7 1.7 0 0 0 2.398 0l1.2-1.198 1.199 1.198a1.7 1.7 0 0 0 2.398 0c.662-.661.662-1.736 0-2.397l-1.199-1.198 1.199-1.198c.662-.661.662-1.736 0-2.396z"/></g><g class="R"><path d="M247.287 120.574c1.3 0 2.355-1.052 2.355-2.353v-7.366c0-1.3-1.054-2.353-2.355-2.353s-2.355 1.052-2.355 2.353v7.366c0 1.3 1.054 2.353 2.355 2.353zm-9.421 0c1.3 0 2.355-1.052 2.355-2.353v-4.912c0-1.3-1.054-2.353-2.355-2.353s-2.355 1.052-2.355 2.353v4.912c0 1.3 1.054 2.353 2.355 2.353zm18.842 0c1.3 0 2.355-1.052 2.355-2.353v-4.912c0-1.3-1.054-2.353-2.355-2.353s-2.355 1.052-2.355 2.353v4.912c0 1.3 1.054 2.353 2.355 2.353zm31.181 15.339c1.3 0 2.355-1.052 2.355-2.353v-7.366c0-1.3-1.054-2.353-2.355-2.353s-2.355 1.052-2.355 2.353v7.366c0 1.3 1.054 2.353 2.355 2.353zm-9.422 0c1.3 0 2.355-1.052 2.355-2.353v-4.912c0-1.3-1.054-2.353-2.355-2.353s-2.355 1.052-2.355 2.353v4.912c0 1.3 1.054 2.353 2.355 2.353zm18.843 0c1.3 0 2.355-1.052 2.355-2.353v-4.912c0-1.3-1.054-2.353-2.355-2.353s-2.355 1.052-2.355 2.353v4.912c0 1.3 1.054 2.353 2.355 2.353z" class="I"/></g><g fill="#4bc4c4" class="B"><path d="M864.854 72.171l1.686-1.684-1.686-1.684a3.83 3.83 0 0 0-2.706-1.12h-13.037a6.46 6.46 0 0 0-4.566 1.89l-.971.97.859.858a6.46 6.46 0 0 0 4.566 1.89h13.149a3.83 3.83 0 0 0 2.706-1.12z"/><path d="M871.133 66.815l-4.593 3.671 4.593 3.671c-1.405-2.246-1.405-5.096 0-7.343zm29.39 9.684h-13.037c-1.713 0-3.355.68-4.566 1.889l-.971.97.859.858a6.46 6.46 0 0 0 4.566 1.89h13.149a3.83 3.83 0 0 0 2.706-1.12l1.686-1.684-1.686-1.684a3.83 3.83 0 0 0-2.706-1.12z"/><path d="M904.914,79.303l4.593,3.671c-1.405-2.246-1.405-5.096,0-7.343l-4.593,3.671Z"/><use href="#X"/><path d="M861.883 55.907l-4.593 3.671 4.593 3.671c-1.405-2.246-1.405-5.096 0-7.343zm74.829-27.52h13.149a3.83 3.83 0 0 0 2.706-1.12l1.685-1.684-1.685-1.684a3.83 3.83 0 0 0-2.706-1.12h-13.038a6.46 6.46 0 0 0-4.565 1.89l-.971.97.859.858a6.46 6.46 0 0 0 4.566 1.89z"/><path d="M958.846 21.912l-4.593 3.671 4.593 3.671c-1.405-2.246-1.405-5.096 0-7.343zM940.659 49.6h-13.037a6.46 6.46 0 0 0-4.566 1.89l-.971.97.859.858a6.46 6.46 0 0 0 4.566 1.89h13.149a3.83 3.83 0 0 0 2.706-1.12l1.686-1.684-1.686-1.684a3.83 3.83 0 0 0-2.706-1.12z"/><path d="M945.05 52.404l4.593 3.671c-1.405-2.246-1.405-5.096 0-7.343l-4.593 3.671zm-32.008-13.052l.859.858a6.46 6.46 0 0 0 4.566 1.89h13.15a3.83 3.83 0 0 0 2.706-1.12l1.685-1.684-1.685-1.684a3.83 3.83 0 0 0-2.706-1.12h-13.038a6.46 6.46 0 0 0-4.566 1.89l-.971.97z"/><path d="M940.6 35.624l-4.593 3.671 4.593 3.671c-1.405-2.246-1.405-5.096 0-7.343zm-26.597 60.353h-13.038a6.46 6.46 0 0 0-4.565 1.89l-.971.97.859.858a6.46 6.46 0 0 0 4.566 1.89h13.149a3.83 3.83 0 0 0 2.706-1.12l1.686-1.684-1.686-1.684a3.83 3.83 0 0 0-2.706-1.12z"/><path d="M918.394 98.78l4.593 3.671c-1.405-2.246-1.405-5.096 0-7.343l-4.593 3.671zm-22.956-67.589h13.149a3.83 3.83 0 0 0 2.706-1.12l1.685-1.684-1.685-1.684a3.83 3.83 0 0 0-2.706-1.12h-13.038a6.46 6.46 0 0 0-4.566 1.89l-.971.97.859.858a6.46 6.46 0 0 0 4.566 1.89z"/><path d="M917.572 24.715l-4.593 3.671 4.593 3.671c-1.405-2.246-1.405-5.096 0-7.343zm-20.845 27.92H883.69a6.46 6.46 0 0 0-4.566 1.89l-.971.97.859.858a6.46 6.46 0 0 0 4.566 1.89h13.149a3.83 3.83 0 0 0 2.706-1.12l1.686-1.684-1.686-1.684a3.83 3.83 0 0 0-2.706-1.12z"/><path d="M901.118,55.439l4.593,3.671c-1.405-2.246-1.405-5.096,0-7.343l-4.593,3.671Z"/><use href="#Y"/><path d="M887.145 87.766l-4.593 3.671 4.593 3.671c-1.405-2.246-1.405-5.096 0-7.343zm26.973-23.148H901.08a6.46 6.46 0 0 0-4.565 1.89l-.971.97.859.858a6.46 6.46 0 0 0 4.566 1.89h13.149a3.83 3.83 0 0 0 2.706-1.12l1.686-1.684-1.686-1.684a3.83 3.83 0 0 0-2.706-1.12z"/><path d="M918.51 67.422l4.593 3.671c-1.405-2.246-1.405-5.096 0-7.343l-4.593 3.671zm34.293-28.879l-.971.97.859.858a6.46 6.46 0 0 0 4.566 1.89h13.149a3.83 3.83 0 0 0 2.706-1.12l1.686-1.684-1.686-1.684a3.83 3.83 0 0 0-2.706-1.12h-13.037a6.46 6.46 0 0 0-4.566 1.89z"/><path d="M979.39 35.786l-4.593 3.671 4.593 3.671c-1.405-2.246-1.405-5.096 0-7.343zm-9.196 14.74l-.971.97.859.858a6.46 6.46 0 0 0 4.566 1.89h13.149a3.83 3.83 0 0 0 2.706-1.12l1.685-1.684-1.685-1.684a3.83 3.83 0 0 0-2.706-1.12h-13.038c-1.712 0-3.354.68-4.566 1.89z"/><path d="M996.782 47.769l-4.593 3.671 4.593 3.671c-1.405-2.246-1.405-5.096 0-7.343zm39.404 3.472a6.46 6.46 0 0 0 4.566 1.89h13.15a3.83 3.83 0 0 0 2.706-1.12l1.685-1.684-1.685-1.684a3.83 3.83 0 0 0-2.706-1.12h-13.038c-1.712 0-3.354.68-4.566 1.89l-.971.97.859.858z"/><path d="M1062.886 46.656l-4.593 3.671 4.593 3.671c-1.405-2.246-1.405-5.096 0-7.343zm-17.58 26.121l1.685-1.684-1.685-1.684a3.83 3.83 0 0 0-2.706-1.12h-13.038c-1.712 0-3.354.68-4.566 1.89l-.971.97.859.858a6.46 6.46 0 0 0 4.565 1.89h13.15a3.83 3.83 0 0 0 2.706-1.12z"/><path d="M1051.585,67.422l-4.593,3.671,4.593,3.671c-1.405-2.246-1.405-5.096,0-7.343Z"/><use href="#Z"/><path d="M1064.218 80.713l-4.593 3.671 4.593 3.671c-1.405-2.246-1.405-5.096 0-7.343zM961.15 77.921l1.685-1.684-1.685-1.684a3.83 3.83 0 0 0-2.706-1.12h-13.038c-1.712 0-3.355.68-4.566 1.889l-.971.97.859.858a6.46 6.46 0 0 0 4.566 1.89h13.15a3.83 3.83 0 0 0 2.706-1.12z"/><path d="M967.429 72.566l-4.593 3.671 4.593 3.671c-1.405-2.246-1.405-5.096 0-7.343zm22.473-10.025h-13.038a6.46 6.46 0 0 0-4.566 1.89l-.971.97.859.858a6.46 6.46 0 0 0 4.566 1.89h13.15a3.83 3.83 0 0 0 2.706-1.12l1.685-1.684-1.685-1.684a3.83 3.83 0 0 0-2.706-1.12z"/><path d="M994.293 65.345l4.593 3.671c-1.405-2.246-1.405-5.096 0-7.343l-4.593 3.671zm-58.211 20.224h-13.038c-1.712 0-3.354.68-4.566 1.89l-.971.97.859.858a6.46 6.46 0 0 0 4.565 1.89h13.15a3.83 3.83 0 0 0 2.706-1.12l1.686-1.684-1.686-1.684a3.83 3.83 0 0 0-2.706-1.12z"/><path d="M940.474 88.373l4.593 3.671c-1.405-2.246-1.405-5.096 0-7.343l-4.593 3.671zm25.295 12.696h-13.038a6.46 6.46 0 0 0-4.565 1.89l-.971.97.859.858a6.46 6.46 0 0 0 4.566 1.89h13.149a3.83 3.83 0 0 0 2.706-1.12l1.685-1.684-1.685-1.684a3.83 3.83 0 0 0-2.706-1.12z"/><path d="M970.16 103.873l4.593 3.671c-1.405-2.246-1.405-5.096 0-7.343l-4.593 3.671zm5.962-14.633h-13.038a6.46 6.46 0 0 0-4.566 1.89l-.971.97.859.858a6.46 6.46 0 0 0 4.566 1.89h13.15c1.015 0 1.988-.403 2.705-1.12l1.686-1.684-1.686-1.684c-.717-.717-1.691-1.12-2.705-1.12z"/><path d="M980.513 92.044l4.593 3.671c-1.405-2.246-1.405-5.096 0-7.343l-4.593 3.671zm-78.448 17.798h-13.038a6.46 6.46 0 0 0-4.565 1.889l-.971.97.859.858a6.46 6.46 0 0 0 4.566 1.89h13.149a3.83 3.83 0 0 0 2.706-1.12l1.685-1.684-1.685-1.684a3.83 3.83 0 0 0-2.706-1.12z"/><path d="M906.456 112.646l4.593 3.671c-1.405-2.246-1.405-5.096 0-7.343l-4.593 3.671zm-43.678-66.472h13.15a3.83 3.83 0 0 0 2.706-1.12l1.685-1.684-1.685-1.684a3.83 3.83 0 0 0-2.706-1.12H862.89c-1.713 0-3.355.68-4.566 1.889l-.971.97.859.858a6.46 6.46 0 0 0 4.566 1.89z"/><path d="M884.912,39.699l-4.593,3.671,4.593,3.671c-1.405-2.246-1.405-5.096,0-7.343Z"/></g></g></svg>