<svg xmlns="http://www.w3.org/2000/svg" width="1500" height="145" xmlns:v="https://vecta.io/nano"><style><![CDATA[.B{fill-rule:evenodd}.C{fill:none}.D{clip-rule:evenodd}.E{fill:#61d1d5}.F{stroke-linecap:round}.G{stroke-linejoin:round}.H{fill:#839d24}.I{fill:#bdd033}.J{opacity:.5}.K{stroke-width:10}.L{fill:#52ab35}.M{stroke:#52ab35}.N{fill:#abc02e}.O{fill:#4d7c3d}.P{fill:#6b4c46}.Q{fill:#594237}.R{fill:#d6e23d}.S{stroke-dasharray:0 10}.T{fill:#de8521}.U{stroke-width:3.233}.V{stroke-linejoin:bevel}.W{stroke-width:7.535}.X{stroke-width:9.042}]]></style><defs><clipPath id="A"><path d="M0 0h1500v145H0z" class="C"/></clipPath><clipPath id="B"><path d="M855.883-43.848c12.773 0 23.123 10.088 23.123 22.531v28.33c0 12.443-10.35 22.529-23.123 22.529h-14.165c-7.467 0-14.525 3.36-19.111 9.102l-8.384 10.516c-4.585 5.742-11.643 9.1-19.111 9.1H735.16c-9.187 0-16.638-7.254-16.638-16.205V27.428c0-5.787-2.358-11.336-6.55-15.426-4.209-4.092-9.907-6.391-15.835-6.391h-2.047c-6.55 0-12.822-2.534-17.457-7.045s-7.238-10.63-7.238-17.011v-1.345c0-13.285 11.054-24.058 24.695-24.058h161.793z" class="C D"/></clipPath><clipPath id="C"><path d="M598.062-29.331h18.181l4.927 44.959c.273 2.492-1.68 4.668-4.189 4.668h-19.747c-2.512 0-4.466-2.182-4.188-4.677l5.015-44.95z" class="C"/></clipPath><clipPath id="D"><path d="M607.094-6.722l14.578-10.615c8.052-5.863 8.962-17.524 1.917-24.563l-5.099-5.095H595.7l-5.099 5.095c-7.045 7.039-6.135 18.7 1.917 24.563l14.578 10.615z" class="C D"/></clipPath><clipPath id="E"><path d="M308.292-11.954h18.181l4.927 44.959c.273 2.492-1.68 4.668-4.189 4.668h-19.747c-2.512 0-4.466-2.182-4.188-4.677l5.015-44.95z" class="C"/></clipPath><clipPath id="F"><path d="M317.337-13.588c0 6.428-2.555 12.596-7.106 17.143s-10.723 7.1-17.16 7.1h-24.406V-5.372c0-6.432 2.555-12.599 7.106-17.146a24.29 24.29 0 0 1 17.16-7.1h24.406v16.03z" class="C D"/></clipPath><clipPath id="G"><path d="M317.337-13.588c0 6.428 2.555 12.596 7.106 17.143s10.723 7.1 17.16 7.1h24.406V-5.372c0-6.432-2.555-12.599-7.106-17.146a24.29 24.29 0 0 0-17.16-7.1h-24.406v16.03z" class="C D"/></clipPath><clipPath id="H"><path d="M317.324 10.654L331.901.04c8.052-5.863 8.962-17.524 1.917-24.563l-5.099-5.095h-22.79l-5.099 5.095c-7.045 7.039-6.135 18.7 1.917 24.563l14.578 10.615z" class="C D"/></clipPath><clipPath id="I"><path d="M208.403-7.56c2.935 1.54 4.525 4.952 3.57 8.36-.483 1.725-1.675 3.162-3.176 4.142l-23.549 15.375a24.86 24.86 0 0 1-25.138 1.195l-16.274-8.539c-1.106-.58-2.079-1.432-2.674-2.529-1.473-2.717-.765-5.89 1.411-7.733l29.654-25.107a5.88 5.88 0 0 1 6.538-.714l29.637 15.551z" class="C D"/></clipPath><clipPath id="J"><path d="M110.422 149.162h18.181l4.927 44.959c.273 2.492-1.68 4.668-4.189 4.668h-19.747c-2.512 0-4.466-2.182-4.188-4.677l5.015-44.95z" class="C"/></clipPath><clipPath id="K"><path d="M119.468 147.528c0 6.428-2.555 12.596-7.106 17.143s-10.723 7.1-17.16 7.1H70.796v-16.027c0-6.432 2.555-12.599 7.106-17.146a24.29 24.29 0 0 1 17.16-7.1h24.406v16.03z" class="C D"/></clipPath><clipPath id="L"><path d="M119.468 147.528c0 6.428 2.555 12.596 7.106 17.143s10.723 7.1 17.16 7.1h24.406v-16.027c0-6.432-2.555-12.599-7.106-17.146a24.29 24.29 0 0 0-17.16-7.1h-24.406v16.03z" class="C D"/></clipPath><clipPath id="M"><path d="M119.454 171.77l14.578-10.615c8.052-5.863 8.962-17.524 1.917-24.563l-5.099-5.095h-22.79l-5.099 5.095c-7.045 7.039-6.135 18.7 1.917 24.563l14.578 10.615z" class="C D"/></clipPath><clipPath id="N"><path d="M152.358 352.439a6.34 6.34 0 0 1-4.677-2.059 6.33 6.33 0 0 1-1.637-4.838l23.823-266.785c.465-5.207 4.828-9.165 10.06-9.165h21.874a10.1 10.1 0 0 1 10.068 9.256l4.279 51.31h15.559a7.5 7.5 0 0 1 6.719 4.141l7.035 14.058c.657 1.312 1.038 2.745 1.119 4.21l4.928 88.628 27.528 7.858a10.79 10.79 0 0 1 7.831 10.38v86.672c0 1.68-.668 3.291-1.857 4.478a6.34 6.34 0 0 1-4.482 1.855H152.357z" class="C D"/></clipPath><clipPath id="O"><path d="M665.831 145.532l-41.357-36.612h-2.719l-41.357 36.612v33.873a3 3 0 0 0 .879 2.121c.565.565 1.329.881 2.126.881h79.423c.797 0 1.56-.316 2.126-.881s.88-1.325.88-2.121v-33.873z" class="C D"/></clipPath><clipPath id="P"><path d="M800.207 145.532L758.85 108.92h-2.719l-41.357 36.612v33.873a3 3 0 0 0 .879 2.121c.565.565 1.329.881 2.126.881h79.423c.797 0 1.56-.316 2.126-.881s.88-1.325.88-2.121v-33.873z" class="C D"/></clipPath><clipPath id="Q"><path d="M1438.852 30.873l5.118-5.305c.106-.112.274-.138.408-.064a.34.34 0 0 1 .166.379l-1.489 5.941c-.104.413-.104.845 0 1.258l1.489 5.941a.34.34 0 0 1-.574.315l-5.118-5.549-.294-1.432.294-1.481z" class="D E"/></clipPath><clipPath id="R"><path d="M1419.39 50.335l5.118-5.305c.106-.112.274-.138.408-.064a.34.34 0 0 1 .166.379l-1.489 5.941c-.104.413-.104.845 0 1.258l1.489 5.941a.34.34 0 0 1-.574.315l-5.118-5.549-.294-1.432.294-1.481z" class="D E"/></clipPath><clipPath id="S"><path d="M1462.983 51.148l3.796-3.934a.25.25 0 0 1 .426.233l-1.104 4.406c-.077.306-.077.627 0 .933l1.104 4.406a.25.25 0 0 1-.426.233l-3.796-4.116-.218-1.062.218-1.099z" class="D E"/></clipPath><path id="T" d="M853.348 88.383c-1.232 0-2.231-1-2.231-2.236V81.48c0-1.236.999-2.236 2.231-2.236s2.231 1 2.231 2.236v4.667c0 1.236-.999 2.236-2.231 2.236z"/><path id="U" d="M869.164 106.861c-1.232 0-2.231-1-2.231-2.236v-7.001c0-1.236.999-2.236 2.231-2.236s2.231 1 2.231 2.236v7.001c0 1.236-.999 2.236-2.231 2.236z"/><path id="V" d="M887.112 68.155c-1.232 0-2.231-1-2.231-2.236V61.25c0-1.236.999-2.236 2.231-2.236s2.231 1 2.231 2.236v4.669c0 1.236-.999 2.236-2.231 2.236z"/><path id="W" d="M457.512 54.25c1.232 0 2.231-1 2.231-2.236v-7.001c0-1.236-.999-2.236-2.231-2.236s-2.231 1-2.231 2.236v7.001c0 1.236.999 2.236 2.231 2.236z"/><path id="X" d="M448.198 54.25c1.232 0 2.231-1 2.231-2.236v-4.667c0-1.236-.999-2.236-2.231-2.236s-2.231 1-2.231 2.236v4.667c0 1.236.999 2.236 2.231 2.236z"/><path id="Y" d="M423.067 72.728c1.232 0 2.231-1 2.231-2.236v-4.669c0-1.236-.999-2.236-2.231-2.236s-2.231 1-2.231 2.236v4.669c0 1.236.999 2.236 2.231 2.236z"/><path id="Z" d="M975.95 36.284a3.09 3.09 0 0 0-.906-2.188c-.582-.582-1.369-.908-2.19-.908s-1.608.326-2.19.908-.906 1.367-.906 2.188v11.355h6.193V36.284z"/><path id="a" d="M598.062-29.331h18.181l4.927 44.959c.273 2.492-1.68 4.668-4.189 4.668h-19.747c-2.512 0-4.466-2.182-4.188-4.677l5.015-44.95z"/><path id="b" d="M607.094 3.168l14.862-10.822c8.209-5.977 9.137-17.867 1.954-25.043l-5.199-5.195h-23.236l-5.199 5.195c-7.183 7.177-6.255 19.066 1.954 25.043l14.862 10.822z"/><path id="c" d="M266.754 7.739l48.646-39.73 3.846 4.709-48.646 39.73z"/><path id="d" d="M338.907 6.448c.99 0 1.965-.483 2.547-1.371.923-1.405.531-3.289-.875-4.209l-12.366-8.105a3.04 3.04 0 0 0-4.211.873c-.923 1.405-.531 3.289.875 4.209l12.366 8.105c.515.338 1.093.499 1.664.499z"/><path id="e" d="M695.679 88.321c0-.916-.744-1.66-1.661-1.661a1.66 1.66 0 0 0-1.659 1.659l.003 6.642c.001.916.745 1.66 1.661 1.661a1.66 1.66 0 0 0 1.66-1.66l-.004-6.641z"/><path id="f" d="M697.342 93.302a1.66 1.66 0 0 0 1.659-1.659c0-.917-.744-1.66-1.661-1.661l-6.641-.004a1.66 1.66 0 0 0-1.66 1.66c.001.916.746 1.66 1.661 1.661l6.642.003z"/><path id="g" d="M115.468 52.613c.647-.648 1.7-.648 2.349 0a1.66 1.66 0 0 1 0 2.347l-4.698 4.694c-.648.647-1.7.647-2.349 0a1.66 1.66 0 0 1 0-2.348l4.698-4.693z"/><path id="h" d="M110.77 54.96a1.66 1.66 0 0 1 0-2.347c.648-.648 1.7-.648 2.349 0l4.698 4.693a1.66 1.66 0 0 1 0 2.348c-.648.647-1.701.647-2.349 0l-4.698-4.694z"/><path id="i" d="M577.885 144.749h90.459v7.532h-90.459z"/><path id="j" d="M576.629 151.899l46.486-38.533 46.945 38.914"/><path id="k" d="M618.089 129.718h10.051v12.553h-10.051z"/><path id="l" d="M618.089 139.692h10.051v2.546h-10.051z"/><path id="m" d="M577.194 146.004l45.921-38.412"/><path id="n" d="M669.035 146.004l-45.92-38.412"/><path id="o" d="M1416.616 30.073c-1.008-.099-1.776-.945-1.776-1.957v-3.13a.22.22 0 0 0-.398-.129l-3.639 5.042 5.813.174z"/><path id="p" d="M1432.628 34.904l1.517 2.118c.082.114.227.162.361.119s.224-.167.224-.307v-.878a1.24 1.24 0 0 1 .924-1.2h0l-3.026.147z"/><path id="q" d="M1432.628 30.789l1.517-2.118c.082-.114.227-.162.361-.119s.224.167.224.306v1.007a.92.92 0 0 0 .271.653c.173.173.408.271.654.271h-3.026z"/><path id="r" d="M1440.067 33.793l-38.244-.978v.967c0 .634.252 1.241.701 1.689l.392.391c3.581 3.572 8.774 5.008 13.684 3.784l23.467-5.851z"/><path id="s" d="M1440.067 30.873l-21.116-.951a19.95 19.95 0 0 0-.915-.021h-18.618c-.418 0-.795.25-.955.633a1.02 1.02 0 0 0 .225 1.118 7.39 7.39 0 0 0 5.198 2.134h36.181v-2.913z"/><path id="t" d="M1406.53 31.154c0-.074-.03-.146-.082-.199a.28.28 0 0 0-.199-.082h-3.439c-.075 0-.146.03-.199.082a.28.28 0 0 0-.082.199v.409c0 .074.03.146.082.199a.28.28 0 0 0 .199.082h3.439c.075 0 .146-.03.199-.082a.28.28 0 0 0 .082-.199v-.409z"/><path id="u" d="M1411.871,33.191c-.201,0-.364-.163-.364-.364v-1.589c0-.201.163-.364.364-.364s.364.163.364.364v1.589c0,.201-.163.364-.364.364Z"/><path id="v" d="M1438.852 30.873l5.118-5.305c.106-.112.274-.138.408-.064a.34.34 0 0 1 .166.379l-1.489 5.941c-.104.413-.104.845 0 1.258l1.489 5.941a.34.34 0 0 1-.574.315l-5.118-5.549-.294-1.432.294-1.481z"/><path id="w" d="M1407.217 34.373l-.491-.587h.981l-.49.587z"/><path id="x" d="M1405.255 34.373l-.49-.587h.981l-.491.587z"/><path id="y" d="M1406.236 34.373l-.49-.587h.98l-.49.587z"/><path id="z" d="M1392.409 52.653c-.201 0-.364-.163-.364-.364V50.7c0-.201.163-.364.364-.364s.364.163.364.364v1.589c0 .201-.163.364-.364.364z"/><path id="AA" d="M1442.971 52.867a.27.27 0 0 1-.27-.27v-1.179a.27.27 0 0 1 .54 0v1.179a.27.27 0 0 1-.27.27z"/><path id="AB" d="M1462.983 51.148l3.796-3.934a.25.25 0 0 1 .426.233l-1.104 4.406c-.077.306-.077.627 0 .933l1.104 4.406a.25.25 0 0 1-.426.233l-3.796-4.116-.218-1.062.218-1.099z"/><path id="AC" d="M1439.519 53.745l-.364-.436h.728l-.364.436z"/><path id="AD" d="M1438.064 53.745l-.363-.436h.727l-.364.436z"/><path id="AE" d="M1438.792 53.745l-.364-.436h.727l-.363.436z"/></defs><g clip-path="url(#A)"><path d="M-10.125-1129.564h1520.249v4049.482H-10.125z" class="E"/><path d="M1209.742-438.582c-76.136 0-138.076 61.941-138.076 138.077 0 9.374-7.626 17-17 17H948.403c-9.374 0-17-7.626-17-17v-2.009c0-36.943-30.057-67-67-67h-75.775c-41.992 0-76.156-34.163-76.156-76.156v-85.988c0-34.188-27.813-62-62-62H505.54c-34.187 0-62 27.812-62 62v1.583c0 6.616-5.383 12-12 12h-77.199c-41.355 0-75 33.645-75 75v1.615c0 6.616-5.383 12-12 12H-56.875v1900.227h125.29c19.299 0 35 15.701 35 35v28.562c0 46.869 38.131 85 85 85h282.678c46.869 0 85-38.131 85-85v-4.012c0-19.299 15.701-35 35-35h100.898c106.145 0 192.5-86.354 192.5-192.5 0-13.785 11.215-25 25-25h189.302c13.785 0 25 11.215 25 25v6.941c0 13.785-11.215 25-25 25h-1.646c-41.355 0-75 33.646-75 75.001v134.569c0 41.355 33.645 75 75 75h68.108c41.355 0 75-33.645 75-75 0-34.095 27.737-61.833 61.832-61.833h254.837V-438.582h-347.181z" fill="#7ee6e4"/><path d="M1045.191 136.028h0c0-51.28 41.571-92.851 92.85-92.851h57.665c32.387 0 58.642-26.255 58.642-58.642h0c0-32.387 26.255-58.642 58.642-58.642h218.932v-339.474h-322.181c-62.45 0-113.076 50.626-113.076 113.076h0c0 23.196-18.804 42-42 42H948.403c-23.196 0-42-18.804-42-42v-2.009c0-23.196-18.804-42-42-42h-75.776c-55.867 0-101.156-45.289-101.156-101.156v-85.988c0-20.435-16.565-37-37-37H505.539c-20.435 0-37 16.565-37 37v1.583c0 20.435-16.565 37-37 37H354.34c-27.614 0-50 22.386-50 50v1.615c0 20.435-16.565 37-37 37H-31.875v1850.227H68.414c33.137 0 60 26.863 60 60v28.561c0 33.137 26.863 60 60 60h282.678c33.137 0 60-26.863 60-60v-4.011c0-33.137 26.863-60 60-60H691.99c92.508 0 167.5-74.992 167.5-167.5h0c0-27.614 22.386-50 50-50h189.302c27.614 0 50 22.386 50 50v6.942c0 27.614-22.386 50-50 50h-1.647c-27.614 0-50 22.386-50 50v134.57c0 27.614 22.386 50 50 50h68.108c27.614 0 50-22.386 50-50h0c0-47.956 38.876-86.832 86.832-86.832h229.837V1129.46c0-39.064-31.668-70.732-70.732-70.732h-323.15c-50.932 0-92.285-41.008-92.845-91.807l-.006-830.892z" fill="#fbed97"/><path d="M1209.742-353.581c-29.313 0-53.076 23.763-53.076 53.076h0c0 56.333-45.667 102-102 102H701.078c-40.652 0-73.606-32.955-73.606-73.606v-210.547c0-14.359-11.641-26-26-26H545.03c-10.394 0-19.895 6.146-23.89 15.742-14.612 35.099-49.272 59.841-89.6 59.841h-46.653c-11.17 0-21.157 7.295-24.204 18.042-11.534 40.685-49.013 70.574-93.342 70.574H-1.979l-11.374 1742.34 115.314-.491c49.895 14.55 86.454 60.7 86.454 115.229v.695c.001 13.259 10.754 24.004 24.013 23.997l236.679-.131c11.698-.007 21.708-8.443 23.64-19.98 9.508-56.77 58.875-100.032 118.346-100.032h100.898c59.37 0 107.5-48.129 107.5-107.5h0c0-60.752 49.249-110 110-110h189.003c21.384 0 38.798-17.186 39.08-38.568h0c.246-18.686-12.768-34.942-31.062-38.758-28.801-6.009-55.263-20.244-76.552-41.532-28.243-28.244-44.073-65.595-44.746-105.431-.015-.883-.022-838.466-.022-839.351 0-40.828 15.899-79.212 44.769-108.081s67.254-44.769 108.082-44.769h28.622c14.589 0 27.327-10.069 30.48-24.313 11.76-53.123 59.237-92.972 115.846-92.972h312.76v-219.474h-416.008z" fill="#62c244"/><g stroke="#62c244" class="C F G K"><path d="M-2.045-334.447l-11.276 1727.321" stroke-dasharray="0 10.014"/><path d="M-3.347 1397.838l105.307-.449c49.895 14.55 86.454 60.7 86.454 115.229v.695c.001 13.259 10.754 24.004 24.013 23.997l236.679-.131c11.698-.007 21.708-8.443 23.64-19.98 9.508-56.77 58.875-100.032 118.346-100.032H691.99c59.37 0 107.5-48.129 107.5-107.5h0c0-60.751 49.249-110 110-110h189.003c21.384 0 38.798-17.186 39.08-38.568.246-18.686-12.768-34.942-31.062-38.758-28.801-6.009-55.263-20.244-76.552-41.532-28.243-28.244-44.073-65.594-44.746-105.431-.015-.882-.022-838.466-.022-839.351 0-40.828 15.899-79.212 44.769-108.081s67.254-44.769 108.082-44.769h28.623c14.589 0 27.327-10.069 30.48-24.313 11.76-53.123 59.237-92.972 115.846-92.972h307.757" stroke-dasharray="0 10.007"/></g><path d="M914.223-23.219v250.57c0 30.12-24.417 54.537-54.537 54.537h-80.08c-29.292 0-53.038 23.746-53.038 53.038v153.905c0 29.292-23.746 53.038-53.038 53.038H490.044c-37.785 0-68.416 30.631-68.416 68.416h0c0 37.785-30.631 68.416-68.416 68.416h-33.231c-37.785 0-68.416-30.631-68.416-68.416v-84.054c0-37.785-30.631-68.416-68.416-68.416H5.265c-15.114 0-27.366-12.252-27.366-27.366v-713.411h290.764c35.899 0 65 29.101 65 65v20.473c0 35.899 29.101 65 65 65h257.533c15.114 0 27.366 12.252 27.366 27.366h0c0 15.114 12.252 27.366 27.366 27.366h148.757c30.12 0 54.537 24.417 54.537 54.537z" class="L"/><path d="M-12.116-282.962h280.778c35.898 0 65 29.101 65 65v20.473c0 35.898 29.101 65 65 65h257.533c15.114 0 27.366 12.252 27.366 27.366s12.252 27.366 27.366 27.366h148.757c30.12 0 54.537 24.417 54.537 54.537v250.57c0 30.12-24.417 54.537-54.537 54.537h-80.08c-29.292 0-53.038 23.746-53.038 53.038V488.83c0 29.292-23.746 53.038-53.038 53.038H490.042c-37.785 0-68.416 30.631-68.416 68.416S390.995 678.7 353.21 678.7h-33.231c-37.785 0-68.416-30.631-68.416-68.416V526.23c0-37.785-30.631-68.416-68.416-68.416H5.265c-15.114 0-27.366-12.252-27.366-27.366v-708.417" stroke-dasharray="0 9.986" class="C F G K M"/><g clip-path="url(#B)" class="B"><path d="M855.883-43.848c12.773 0 23.123 10.088 23.123 22.531v28.33c0 12.443-10.35 22.529-23.123 22.529h-14.165c-7.467 0-14.525 3.36-19.111 9.102l-8.384 10.516c-4.585 5.742-11.643 9.1-19.111 9.1H735.16c-9.187 0-16.638-7.254-16.638-16.205V27.428c0-5.787-2.358-11.336-6.55-15.426-4.209-4.092-9.907-6.391-15.835-6.391h-2.047c-6.55 0-12.822-2.534-17.457-7.045s-7.238-10.63-7.238-17.011v-1.345c0-13.285 11.054-24.058 24.695-24.058h161.793z" fill="#5fcdc5"/><path d="M855.883-35.55c12.773 0 23.123 10.088 23.123 22.531v28.33c0 12.443-10.35 22.529-23.123 22.529h-14.165c-7.467 0-14.525 3.36-19.111 9.102l-8.384 10.516c-4.585 5.742-11.643 9.1-19.111 9.1H735.16c-9.187 0-16.638-7.254-16.638-16.205V35.726c0-5.787-2.358-11.336-6.55-15.426-4.209-4.092-9.907-6.391-15.835-6.391h-2.047c-6.55 0-12.822-2.534-17.457-7.045s-7.238-10.63-7.238-17.011v-1.345c0-13.285 11.054-24.058 24.695-24.058h161.793z" fill="#69e3de"/></g><g stroke="#fff" class="C F G U"><path style="mix-blend-mode:overlay" d="M745.231 30.052h11.3m32.571-15.316h4.667m-13.002 15.316h-13.248m41.84-15.316h.786m-48.702 29.308h-4.683"/></g><g style="mix-blend-mode:overlay" stroke="#fff" class="C F G U"><path d="M765.195 13.369h-4.667m-15.59 0h-.786"/></g><g opacity=".331" fill="#00703a"><path d="M844.033,88.383c-1.232,0-2.231-1-2.231-2.236v-7.001c0-1.236.999-2.236,2.231-2.236s2.231,1,2.231,2.236v7.001c0,1.236-.999,2.236-2.231,2.236Z"/><use href="#T"/><path d="M835.495 88.383c-1.232 0-2.231-1-2.231-2.236V81.48c0-1.236.999-2.236 2.231-2.236s2.231 1 2.231 2.236v4.667c0 1.236-.999 2.236-2.231 2.236z"/><use href="#U"/><path d="M878.478 106.861c-1.232 0-2.231-1-2.231-2.236v-4.669c0-1.236.999-2.236 2.231-2.236s2.231 1 2.231 2.236v4.669c0 1.236-.999 2.236-2.231 2.236zm-17.851 0c-1.232 0-2.231-1-2.231-2.236v-4.669c0-1.236.999-2.236 2.231-2.236s2.231 1 2.231 2.236v4.669c0 1.236-.999 2.236-2.231 2.236zm17.17-38.706c-1.232 0-2.231-1-2.231-2.236v-7.001c0-1.236.999-2.236 2.231-2.236s2.231 1 2.231 2.236v7.001c0 1.236-.999 2.236-2.231 2.236z"/><use href="#V"/><path d="M869.26 68.155c-1.232 0-2.231-1-2.231-2.236V61.25c0-1.236.999-2.236 2.231-2.236s2.231 1 2.231 2.236v4.669c0 1.236-.999 2.236-2.231 2.236z"/></g><g opacity=".331" fill="#00703a"><use href="#W"/><use href="#X"/><path d="M466.05 54.25c1.232 0 2.231-1 2.231-2.236v-4.667c0-1.236-.999-2.236-2.231-2.236s-2.231 1-2.231 2.236v4.667c0 1.236.999 2.236 2.231 2.236zm-33.669 18.478c1.232 0 2.231-1 2.231-2.236v-7.001c0-1.236-.999-2.236-2.231-2.236s-2.231 1-2.231 2.236v7.001c0 1.236.999 2.236 2.231 2.236z"/><use href="#Y"/><path d="M440.918 72.728c1.232 0 2.231-1 2.231-2.236v-4.669c0-1.236-.999-2.236-2.231-2.236s-2.231 1-2.231 2.236v4.669c0 1.236.999 2.236 2.231 2.236zm-17.17-38.706c1.232 0 2.231-1 2.231-2.236v-7.001c0-1.236-.999-2.236-2.231-2.236s-2.231 1-2.231 2.236v7.001c0 1.236.999 2.236 2.231 2.236zm-9.315 0c1.232 0 2.231-1 2.231-2.236v-4.669c0-1.236-.999-2.236-2.231-2.236s-2.231 1-2.231 2.236v4.669c0 1.236.999 2.236 2.231 2.236zm17.852 0c1.232 0 2.231-1 2.231-2.236v-4.669c0-1.236-.999-2.236-2.231-2.236s-2.231 1-2.231 2.236v4.669c0 1.236.999 2.236 2.231 2.236z"/></g><g fill="#d9df50" stroke="#d9df50" stroke-miterlimit="10" stroke-width=".31" class="B"><path d="M957.369 40.413a3.09 3.09 0 0 0-.906-2.188c-.582-.582-1.369-.908-2.19-.908s-1.608.326-2.19.908a3.09 3.09 0 0 0-.906 2.188v2.064a5.16 5.16 0 0 0 5.161 5.161h1.032v-7.226zm12.387-8.258a3.09 3.09 0 0 0-.906-2.188c-.582-.582-1.369-.908-2.19-.908s-1.608.326-2.19.908a3.09 3.09 0 0 0-.906 2.188v15.484h6.193V32.155z"/><use href="#Z"/><path d="M963.563 36.284a3.09 3.09 0 0 0-.906-2.188c-.582-.582-1.369-.908-2.19-.908s-1.608.326-2.19.908a3.09 3.09 0 0 0-.906 2.188v11.355h6.193V36.284zm18.58 4.129a3.09 3.09 0 0 0-.906-2.188c-.582-.582-1.369-.908-2.19-.908s-1.608.326-2.19.908a3.09 3.09 0 0 0-.906 2.188v7.226h1.032a5.16 5.16 0 0 0 5.161-5.161v-2.064z"/></g><g opacity=".35"><g fill="#f2b052"><circle cx="1198.458" cy="-1.286" r="2.829" transform="matrix(.878117 -.478447 .478447 .878117 146.688 573.242)" opacity=".6"/><circle cx="1215.453" cy="7.452" r="2.829" transform="matrix(.878117 -.478447 .478447 .878117 144.579 582.439)" opacity=".6"/></g></g><use href="#a" class="P"/><g clip-path="url(#C)" class="B Q"><use href="#b"/></g><g clip-path="url(#D)" class="R"><path d="M604.064-51.385h6.084V1.63h-6.084z"/></g><path d="M582.394 20.296l49.428-.539" class="F G K L M S"/><path d="M308.292-11.954h18.181l4.927 44.959c.273 2.492-1.68 4.668-4.189 4.668h-19.747c-2.512 0-4.466-2.182-4.188-4.677l5.015-44.95z" class="P"/><g clip-path="url(#E)" class="B Q"><path d="M317.324 20.545l14.862-10.822c8.209-5.977 9.137-17.867 1.954-25.043l-5.199-5.195h-23.236l-5.199 5.195c-7.183 7.177-6.255 19.066 1.954 25.043l14.862 10.822z"/></g><path d="M317.337-13.588c0 6.428-2.555 12.596-7.106 17.143s-10.723 7.1-17.16 7.1h-24.406V-5.372c0-6.432 2.555-12.599 7.106-17.146a24.29 24.29 0 0 1 17.16-7.1h24.406v16.03z" class="B N"/><g clip-path="url(#F)"><path d="M317.337-29.619l-54.315 46.425h54.315v-46.425z" class="B H"/><use href="#c" class="I"/><g class="B O"><path d="M288.945 13.281h6.084V3.056c0-1.678-1.363-3.039-3.042-3.039s-3.042 1.362-3.042 3.039v10.225zm12.168.449h6.084V-6.446c0-1.678-1.36-3.036-3.039-3.036h-.006c-1.679 0-3.039 1.359-3.039 3.036V13.73z" class="J"/></g></g><path d="M317.337-13.588c0 6.428 2.555 12.596 7.106 17.143s10.723 7.1 17.16 7.1h24.406V-5.372c0-6.432-2.555-12.599-7.106-17.146a24.29 24.29 0 0 0-17.16-7.1h-24.406v16.03z" class="B N"/><g clip-path="url(#G)"><path d="M317.337-29.619l54.316 46.425h-54.316v-46.425z" class="B H"/><path d="M315.414-27.264l3.843-4.712L367.93 7.72l-3.843 4.712z" class="I"/><g class="B O"><path d="M345.73 13.281h-6.084V3.056c0-1.678 1.363-3.039 3.042-3.039s3.042 1.362 3.042 3.039v10.225zm-12.169.449h-6.084V-6.443c0-.805.319-1.577.891-2.149a3.05 3.05 0 0 1 2.151-.891c.806 0 1.582.322 2.151.891s.891 1.343.891 2.149V13.73z" class="J"/></g></g><path d="M317.324 10.654L331.901.04c8.052-5.863 8.962-17.524 1.917-24.563l-5.099-5.095h-22.79l-5.099 5.095c-7.045 7.039-6.135 18.7 1.917 24.563l14.578 10.615z" class="B I"/><g clip-path="url(#H)"><path d="M317.324 12.152h-22.999v-43.615h22.999z" class="H"/><path d="M314.294-34.009h6.084v53.015h-6.084z" class="R"/><use href="#d" class="H J"/><g class="J O"><path d="M295.768 6.448c.57 0 1.149-.16 1.664-.499l12.362-8.105c1.406-.92 1.798-2.804.875-4.209-.919-1.399-2.792-1.801-4.211-.873L294.096.867c-1.406.92-1.798 2.804-.875 4.209.582.888 1.557 1.371 2.547 1.371z"/></g></g><path d="M292.623 37.672l49.429-.539" class="F G K L M S"/><g class="B"><g fill="#c32944"><use href="#e"/><use href="#f"/><path d="M680.551 90.971c0-.916-.744-1.66-1.661-1.661a1.66 1.66 0 0 0-1.659 1.659l.003 6.642c.001.916.745 1.66 1.661 1.661a1.66 1.66 0 0 0 1.66-1.66l-.004-6.641z"/><path d="M682.214 95.953a1.66 1.66 0 0 0 1.659-1.659c0-.917-.744-1.66-1.661-1.661l-6.641-.004a1.66 1.66 0 0 0-1.66 1.66c.001.916.746 1.66 1.661 1.661l6.642.003z"/></g><g fill="#f9e840"><use href="#g"/><use href="#h"/><path d="M124.291 65.184c.647-.648 1.7-.648 2.349 0a1.66 1.66 0 0 1 0 2.347l-4.698 4.694c-.648.647-1.7.647-2.349 0a1.66 1.66 0 0 1 0-2.348l4.698-4.693z"/><path d="M119.592 67.531a1.66 1.66 0 0 1 0-2.347c.648-.648 1.7-.648 2.349 0l4.698 4.693a1.66 1.66 0 0 1 0 2.348c-.648.647-1.701.647-2.349 0l-4.698-4.694z"/></g><path d="M208.403-7.56c2.935 1.54 4.525 4.952 3.57 8.36-.483 1.725-1.675 3.162-3.176 4.142l-23.549 15.375a24.86 24.86 0 0 1-25.138 1.195l-16.274-8.539c-1.106-.58-2.079-1.432-2.674-2.529-1.473-2.717-.765-5.89 1.411-7.733l29.405-24.896c1.982-1.678 4.777-1.98 7.077-.774l29.348 15.4z" fill="#8dd6f9"/></g><g clip-path="url(#I)" class="C F G"><path d="M135.574 8.637l7.2 3.778a58.22 58.22 0 0 0 58.869-2.802l23.482-15.331" stroke="#fff" stroke-width="18.747"/></g><g fill="#52aa35"><rect x="161.547" y="15.023" width="10.435" height="18.673" rx="5.215"/><rect x="171.982" y="15.023" width="10.435" height="18.673" rx="5.215"/></g><path d="M76.586-35.958h18.181l4.927 44.959c.273 2.492-1.68 4.668-4.189 4.668H75.758c-2.512 0-4.466-2.182-4.188-4.677l5.015-44.95z" class="P"/><path d="M60.918 13.668l49.429-.539" class="F G K L M S"/><g clip-path="url(#J)" class="B Q"><path d="M119.454 181.66l14.862-10.822c8.209-5.977 9.137-17.867 1.954-25.043l-5.199-5.195h-23.236l-5.199 5.195c-7.183 7.177-6.255 19.066 1.954 25.043l14.862 10.822z"/></g><path d="M119.468 147.528c0 6.428-2.555 12.596-7.106 17.143s-10.723 7.1-17.16 7.1H70.796v-16.027c0-6.432 2.555-12.599 7.106-17.146a24.29 24.29 0 0 1 17.16-7.1h24.406v16.03z" class="B N"/><g clip-path="url(#K)"><path d="M119.468 131.497l-54.316 46.425h54.316v-46.425z" class="B H"/><path d="M68.885 168.855l48.646-39.73 3.846 4.709-48.646 39.73z" class="I"/><path d="M70.795 142.895v-6.079H89.05c1.679 0 3.039 1.359 3.039 3.036v.006c0 1.678-1.36 3.036-3.039 3.036H70.795z" opacity=".75" class="B H"/></g><path d="M119.468 147.528c0 6.428 2.555 12.596 7.106 17.143s10.723 7.1 17.16 7.1h24.406v-16.027c0-6.432-2.555-12.599-7.106-17.146a24.29 24.29 0 0 0-17.16-7.1h-24.406v16.03z" class="B N"/><g clip-path="url(#L)"><path d="M119.468 131.497l54.315 46.425h-54.315v-46.425z" class="B H"/><path d="M117.546 133.852l3.843-4.712 48.673 39.696-3.843 4.712z" class="I"/><path d="M168.14 142.895v-6.079h-18.252c-.806 0-1.582.322-2.151.891s-.891 1.343-.891 2.149a3.03 3.03 0 0 0 .891 2.149 3.04 3.04 0 0 0 2.151.891h18.252z" opacity=".75" class="B H"/></g><path d="M119.454 171.77l14.578-10.615c8.052-5.863 8.962-17.524 1.917-24.563l-5.099-5.095h-22.79l-5.099 5.095c-7.045 7.039-6.135 18.7 1.917 24.563l14.578 10.615z" class="B I"/><g clip-path="url(#M)"><path d="M119.454 173.268H96.455v-43.615h22.999z" class="H"/><path d="M116.424 127.107h6.084v53.015h-6.084z" class="R"/><g class="J H"><path d="M141.038 153.704c.99 0 1.965-.483 2.547-1.371.923-1.405.531-3.289-.875-4.209l-12.366-8.105a3.04 3.04 0 0 0-4.211.873c-.923 1.405-.531 3.289.875 4.209l12.366 8.105c.515.338 1.093.499 1.664.499z"/></g><g class="J O"><path d="M97.898,153.704c.57,0,1.149-.16,1.664-.499l12.362-8.105c1.406-.92,1.798-2.804.875-4.209-.919-1.399-2.792-1.801-4.211-.873l-12.362,8.105c-1.406.92-1.798,2.804-.875,4.209.582.888,1.557,1.371,2.547,1.371Z"/></g></g><g fill="#da781e"><path d="M231.754 129.978l-3.805-4.896-.614-1.981-.525-2.376c-.274-1.578-.366-3.139-.214-4.517l.006-.059h0a3.15 3.15 0 0 0-2.789-3.475c-1.73-.19-3.287 1.057-3.478 2.786-.246 2.237-.079 4.332.26 6.331l.649 2.942.935 2.932h0l.305.606a1.44 1.44 0 0 0 .458.526l5.977 4.162c.727.505 1.729.508 2.466-.064a2.08 2.08 0 0 0 .367-2.917zm-19.864-1.254h0c-.238-1.597-.762-2.884-1.336-4.088l-.937-1.731-1.109-1.688-.095-.129c-.121-.161-.259-.313-.414-.454-1.299-1.176-3.307-1.077-4.484.222a3.17 3.17 0 0 0 .222 4.48c.278.252.66.668.971 1.025l.916 1.142c.508.689.921 1.401 1.172 2.005l-.395 2.831a2.02 2.02 0 0 0 3.837 1.112l1.599-3.522a1.36 1.36 0 0 0 .111-.722l-.058-.481z"/></g><path d="M213.423 115.172l-6.23 2.793-2.707 1.214c-1.893.849-2.739 3.071-1.89 4.963l.35.78c.656 1.461 2.373 2.114 3.836 1.458h0c.498-.223 1.05-.302 1.591-.226l3.543.496a13.98 13.98 0 0 0 7.657-1.088h0a10.35 10.35 0 0 0 5.21-13.683h0c-.372-.828-1.345-1.198-2.174-.826l-9.187 4.119z" class="T"/><path d="M223.184 131.883l-3.765-5.458.023-1.92c.041-.911.129-1.808.268-2.66s.339-1.655.597-2.325c.251-.67.586-1.17.804-1.368l.022-.02.035-.032a3.15 3.15 0 0 0 .13-4.452c-1.195-1.265-3.19-1.323-4.456-.13s-1.939 2.525-2.418 3.741c-.469 1.228-.739 2.407-.933 3.56a29.27 29.27 0 0 0-.345 3.397l.013 3.409h0l.087.603c.072.492.318.96.731 1.302l6.172 5.127a2.08 2.08 0 0 0 2.505.113c.944-.65 1.182-1.942.531-2.885z" fill="#e59f46"/><path d="M225.864,104.876h-.339c-4.553,0-8.245,3.688-8.245,8.238h0c0,1.586.151,3.168.452,4.725l.118.612c.15.78.833,1.343,1.628,1.343h12.433c.795,0,1.478-.563,1.628-1.343l.118-.612c.3-1.557.452-3.139.452-4.725h0c0-4.55-3.691-8.238-8.245-8.238Z" class="T"/><rect x="223.767" y="106.954" width="8.372" height="10.812" rx="4.184" transform="matrix(.999995 -.003211 .003211 .999995 -.36 .734)" fill="#e9b679"/><g fill="#6b3b0a"><circle cx="230.582" cy="111.587" r="1.151"/><circle cx="226.74" cy="111.628" r="1.151"/></g><path d="M180.624 133.797c-5.209 0-10.025-1.263-10.316-1.341-.734-.196-1.169-.95-.974-1.683a1.38 1.38 0 0 1 1.684-.974c.096.026 9.655 2.529 15.696.374 4.322-1.54 7.159-3.741 9.903-5.869 2.145-1.663 4.362-3.383 7.225-4.755.684-.329 1.507-.04 1.836.645s.039 1.506-.646 1.834c-2.597 1.245-4.603 2.801-6.726 4.448-2.915 2.261-5.93 4.599-10.667 6.287-2.155.767-4.626 1.033-7.015 1.033z" class="T"/><path d="M208.938 124.823l-.155-1.782-.019-.15a3.16 3.16 0 0 0-.153-.628c-.584-1.653-2.398-2.52-4.052-1.936s-2.522 2.396-1.938 4.048c.125.353.259.85.37 1.282l.295 1.332c.156.802.228 1.613.219 2.15l-1.766 3.282a2.01 2.01 0 0 0 .42 2.441c.823.746 2.096.685 2.843-.138l3.065-3.374c.124-.138.225-.308.283-.497l.111-.363h0c.23-.756.333-1.422.409-2.065s.095-1.244.106-1.843l-.038-1.758z" fill="#e59f46"/><path d="M152.358 352.439a6.34 6.34 0 0 1-4.677-2.059 6.33 6.33 0 0 1-1.637-4.838l23.823-266.785c.465-5.207 4.828-9.165 10.06-9.165h21.874a10.1 10.1 0 0 1 10.068 9.256l4.279 51.31h15.559a7.5 7.5 0 0 1 6.719 4.141l7.035 14.058c.657 1.312 1.038 2.745 1.119 4.21l4.928 88.628 27.528 7.858a10.79 10.79 0 0 1 7.831 10.38v86.672c0 1.68-.668 3.291-1.857 4.478a6.34 6.34 0 0 1-4.482 1.855H152.357z" fill="#787186" class="B"/><g clip-path="url(#N)" class="B"><path d="M130.067 84.764V41.021c0-5.068 4.112-9.177 9.184-9.177h1.685c5.072 0 9.184-4.109 9.184-9.177V-8.497c0-5.068 4.112-9.177 9.184-9.177h7.342c5.072 0 9.184-4.109 9.184-9.177v-19.766c0-5.068 4.112-9.177 9.184-9.177h23.025c5.072 0 9.184 4.109 9.184 9.177l-.002 101.381a8.91 8.91 0 0 0 8.912 8.905h.231c5.118 0 9.231-4.069 9.231-9.138l-.001-30.093c0-5.068 4.112-9.137 9.184-9.137h23.025c5.072 0 9.184 4.109 9.184 9.177v22.383c0 5.068 4.112 9.177 9.184 9.177h4.656c5.072 0 9.184 4.109 9.184 9.177v230.973c0 5.068-4.112 9.177-9.184 9.177h-9.557c-5.072 0-9.184-4.109-9.184-9.177v-22.383c0-5.068-4.112-9.177-9.184-9.177h-23.844c-11.159 0-20.206-9.039-20.206-20.189v-46.071c0-5.068-4.112-9.177-9.184-9.177h-5.2c-5.072 0-9.184-4.109-9.184-9.177v-22.462c0-5.068-4.112-9.177-9.184-9.177h.249c-5.072 0-9.184 4.109-9.184 9.177v64.923c0 5.068-4.112 9.177-9.184 9.177h-3.432c-5.072 0-9.184 4.109-9.184 9.177l-2.698 31.164c0 5.068-4.112 9.177-9.184 9.177h-7.073c-5.072 0-9.184 4.109-9.184 9.177v43.743c0 5.068-4.112 9.177-9.184 9.177h-4.229c-5.072 0-9.184-4.109-9.184-9.177V103.117c0-5.068 4.112-9.177 9.184-9.177h7.073c5.072 0 9.184-4.109 9.184-9.177z" fill="#3d8850"/><path d="M214.915 150.284a10.1 10.1 0 0 1-10.103-10.094 10.1 10.1 0 0 1 10.103-10.094h47.988v20.189h-47.988z" fill="#2d693a"/></g><path d="M665.831 145.532l-41.357-36.612h-2.719l-41.357 36.612v33.873a3 3 0 0 0 .879 2.121c.565.565 1.329.881 2.126.881h79.423c.797 0 1.56-.316 2.126-.881s.88-1.325.88-2.121v-33.873z" fill="#fbeb8c" class="B"/><g clip-path="url(#O)"><g fill="#f2d861"><use href="#i"/><path d="M577.885 129.685h90.459v7.532h-90.459zm0-15.064h90.459v7.532h-90.459z"/></g><use href="#j" stroke="#cfb43a" class="C V W"/></g><use href="#k" fill="#6dbaa1"/><use href="#l" fill="#fff"/><path d="M618.089 127.172h10.051v2.546h-10.051z" fill="#4e9980"/><g stroke="#6a8c40" class="C F G X"><use href="#m"/><path d="M577.194 134.706l45.921-38.412m-45.921 27.114l45.921-38.412"/><use href="#n"/><path d="M669.035 134.706l-45.92-38.412m45.92 27.114l-45.92-38.412"/></g><rect x="619.283" y="78.217" width="7.664" height="40.672" rx="3.826" fill="#507524"/><path d="M800.207 145.532L758.85 108.92h-2.719l-41.357 36.612v33.873a3 3 0 0 0 .879 2.121c.565.565 1.329.881 2.126.881h79.423c.797 0 1.56-.316 2.126-.881s.88-1.325.88-2.121v-33.873z" fill="#fbeb8c" class="B"/><g clip-path="url(#P)"><g fill="#f2d861"><path d="M712.262 144.749h90.459v7.532h-90.459zm0-15.064h90.459v7.532h-90.459zm0-15.064h90.459v7.532h-90.459z"/></g><path d="M711.005 151.899l46.486-38.533 46.945 38.914" stroke="#cfb43a" class="C V W"/></g><path d="M752.465 129.718h10.051v12.553h-10.051z" fill="#6dbaa1"/><path d="M752.465 139.692h10.051v2.546h-10.051z" fill="#fff"/><path d="M752.465 127.172h10.051v2.546h-10.051z" fill="#4e9980"/><g stroke="#6a8c40" class="C F G X"><path d="M711.57 146.004l45.921-38.412m-45.921 27.114l45.921-38.412m-45.921 27.114l45.921-38.412m45.92 61.008l-45.92-38.412"/><path d="M803.411 134.706l-45.92-38.412m45.92 27.114l-45.92-38.412"/></g><path d="M757.485 78.217h.012a3.83 3.83 0 0 1 3.826 3.826v33.016a3.83 3.83 0 0 1-3.829 3.829h-.008a3.83 3.83 0 0 1-3.826-3.826v-33.02a3.83 3.83 0 0 1 3.826-3.826z" fill="#507524"/><path d="M1125.369 98.163h8.76a3.82 3.82 0 0 1 3.816 3.816h0c0 2.104-1.708 3.813-3.813 3.813h-8.763c-2.104 0-3.813-1.708-3.813-3.813v-.003c0-2.104 1.708-3.813 3.813-3.813z" opacity=".073"/><g class="B"><g fill="#6da090"><path d="M1129.751 72.199a2.55 2.55 0 0 1-.749 1.806c-.479.479-1.129.748-1.807.748h-.003c-1.411 0-2.556-1.143-2.556-2.554v-4.392c0-1.385.816-2.639 2.083-3.202l5.735-2.546c.195-.087.426-.033.564.131a.48.48 0 0 1 .028.578l-2.699 3.965c-.388.57-.596 1.244-.596 1.933v3.533zm15.68-.707h-9.358v3.133h6.224c1.731 0 3.134-1.401 3.134-3.131v-.002z"/></g><path d="M1140.677 71.492a11.83 11.83 0 0 1-21.853 0h21.852z" fill="#fff"/><path d="M1118.398 73.587a1.04 1.04 0 0 0-1.04-1.039h-3.119a1.04 1.04 0 0 0-1.04 1.039 1.04 1.04 0 0 0 1.04 1.039h3.119a1.04 1.04 0 0 0 1.04-1.039z" fill="#f0a039"/><path d="M1129.751 77.306a2.55 2.55 0 0 0-.749-1.806c-.48-.479-1.129-.748-1.807-.748h-.003c-1.411 0-2.556 1.144-2.556 2.554v4.392c0 1.331.816 2.64 2.083 3.202l5.735 2.546a.48.48 0 0 0 .592-.709l-2.699-3.965c-.388-.57-.596-1.243-.596-1.933v-3.533z" fill="#6da090"/><path d="M1125.676 73.067a1.56 1.56 0 0 0-1.56-1.558h-6.238a1.56 1.56 0 0 0-1.56 1.558 1.56 1.56 0 0 0 1.56 1.558h6.238a1.56 1.56 0 0 0 1.56-1.558z" fill="#fff"/></g><path d="M1117.358 72.548h1.04v1.039h-1.04z" fill="#6e82a4"/><g class="E"><g class="B"><path d="M1417.824 34.758l.486 4.242-5.309 4.209c-.097.077-.229.091-.341.038s-.182-.166-.182-.29v-2.359c0-.312.124-.611.345-.832l5.001-5.007z"/><use href="#o"/><use href="#p"/><use href="#q"/><use href="#r"/><path d="M1403.294 34.506l-.735-.88h1.471l-.736.88z"/><use href="#s"/><use href="#t"/><path d="M1400.45 30.621h.009.008l.008.001.008.001.009.001.008.001.008.002.008.001.008.002.008.002.008.002.008.002.008.003.008.003.008.003.008.003.007.003.008.003.007.004.008.003.007.004.007.004.007.005.008.004.006.005.007.004.007.005.007.005.006.005.007.006.006.005.006.006.006.005.006.006.005.006.006.006.006.007.005.006.005.006.005.007.005.007.005.007.004.007.005.007.004.007.004.007.004.007.003.008.004.007.003.008.004.007.003.008.003.008.002.008.003.008.002.008.002.008.002.008.002.008.002.008.001.008.001.008.001.008.001.009.001.008v.008.009l.001.008-.001.008v.008.009l-.001.008-.001.008-.001.008-.001.009-.001.008-.002.008-.002.008-.002.008-.002.008-.002.008-.003.008-.002.008-.003.008-.003.007-.004.008-.003.008-.004.007-.003.007-.004.008-.004.007-.004.007-.005.007-.004.007-.005.007-.005.007-.005.006-.005.007-.005.006-.006.006-.006.006-.005.006-.006.006-.006.006-.006.006-.006.005-.007.005-.006.005-.007.005-.007.005-.007.005-.006.005-.008.004-.007.004-.007.004-.007.004-.008.004-.007.003-.008.004-.007.003-.008.003-.008.003-.008.003-.008.002-.008.003-.008.002-.008.002-.008.001-.008.002-.008.001-.008.002-.009.001-.008.001h-.008l-.008.001h-.009-.008-.478-.008-.009l-.008-.001h-.008l-.008-.001-.009-.001-.008-.002-.008-.001-.008-.002-.008-.001-.008-.002-.008-.002-.008-.003-.008-.002-.008-.003-.008-.003-.008-.003-.007-.003-.008-.004-.007-.003-.008-.004-.007-.004-.007-.004-.007-.004-.007-.004-.007-.005-.007-.005-.007-.005-.006-.005-.007-.005-.006-.005-.007-.005-.006-.006-.006-.006-.006-.006-.005-.006-.006-.006-.005-.006-.006-.006-.005-.007-.005-.006-.005-.007-.004-.007-.005-.007-.004-.007-.005-.007-.004-.007-.004-.008-.003-.007-.004-.007-.003-.008-.003-.008-.004-.007-.002-.008-.003-.008-.003-.008-.002-.008-.002-.008-.002-.008-.002-.008-.001-.008-.002-.008-.001-.009-.001-.008-.001-.008-.001-.008v-.009-.008-.008-.008-.009-.008l.001-.008.001-.009.001-.008.001-.008.002-.008.001-.008.002-.008.002-.008.002-.008.002-.008.003-.008.003-.008.002-.008.004-.008.003-.007.003-.008.004-.007.003-.008.004-.007.004-.007.005-.007.004-.007.005-.007.004-.007.005-.007.005-.007.005-.006.006-.006.005-.007.006-.006.005-.006.006-.006.006-.005.006-.006.007-.005.006-.006.007-.005.006-.005.007-.005.007-.004.007-.005.007-.004.007-.005.007-.004.007-.004.008-.003.007-.004.008-.003.007-.003.008-.003.008-.003.008-.003.008-.003.008-.002.008-.002.008-.002.008-.002.008-.001.008-.002.008-.001.009-.001.008-.001.008-.001h.008.009.008.478.008z"/></g><use href="#u"/><path d="M1413.329 33.191c-.201 0-.364-.163-.364-.364v-1.589c0-.201.163-.364.364-.364s.364.163.364.364v1.589c0 .201-.163.364-.364.364zm1.458 0c-.201 0-.364-.163-.364-.364v-1.589c0-.201.163-.364.364-.364s.364.163.364.364v1.589c0 .201-.163.364-.364.364z"/><rect x="1403.245" y="30.873" width="2.43" height="1.214" rx=".281"/><g class="B"><use href="#v"/><use href="#v"/></g></g><g clip-path="url(#Q)" class="E"><path d="M1432.968 33.786h14.982v6.001h-14.982zm0-8.675h14.982v5.762h-14.982z"/></g><g class="E"><g class="B"><use href="#w"/><use href="#x"/><path d="M1404.275 34.373l-.491-.587h.981l-.49.587z"/><use href="#y"/><path d="M1408.197 34.373l-.49-.587h.98l-.49.587z"/><path d="M1409.178 34.373l-.491-.587h.981l-.49.587zm-4.232-3.5h-.972v.931c0 .156.127.283.283.283h.406c.156 0 .283-.127.283-.283v-.931zm13.85 3.885L1418.31 39l5.309 4.209c.097.077.229.091.34.038a.32.32 0 0 0 .182-.29v-2.359c0-.312-.124-.611-.345-.832l-5.001-5.007zm-20.434 19.462l.486 4.242-5.309 4.209c-.097.077-.229.091-.341.038a.32.32 0 0 1-.182-.29V60.06c0-.312.124-.611.345-.832l5.001-5.007zm-1.208-4.685c-1.008-.099-1.776-.945-1.776-1.957v-3.13a.22.22 0 0 0-.398-.129l-3.639 5.042 5.813.174zm16.012 4.831l1.517 2.118c.082.114.227.162.361.119s.224-.167.224-.307v-.878a1.24 1.24 0 0 1 .924-1.2h0l-3.026.147zm0-4.115l1.517-2.118c.082-.114.227-.162.361-.119s.224.167.224.306v1.007a.92.92 0 0 0 .271.653c.173.173.408.271.654.271h-3.026z"/><path d="M1420.605 53.255l-38.244-.978v.967c0 .634.252 1.241.701 1.689l.392.391c3.581 3.572 8.774 5.008 13.684 3.784l23.467-5.851z"/><path d="M1383.832 53.968l-.735-.88h1.47l-.735.88z"/><path d="M1420.605 50.335l-21.116-.951a19.95 19.95 0 0 0-.915-.021h-18.618c-.418 0-.795.25-.955.633a1.02 1.02 0 0 0 .225 1.118 7.39 7.39 0 0 0 5.198 2.134h36.181v-2.913z"/><path d="M1387.068 50.616c0-.074-.03-.146-.082-.199a.28.28 0 0 0-.199-.082h-3.439c-.075 0-.146.03-.199.082a.28.28 0 0 0-.082.199v.409c0 .074.03.146.082.199a.28.28 0 0 0 .199.082h3.439c.075 0 .146-.03.199-.082a.28.28 0 0 0 .082-.199v-.409zm-6.08-.533h.009l.008.001h.008l.008.001.009.001.008.001.008.002.008.001.008.002.008.002.008.002.008.002.008.003.008.003.008.003.008.003.007.003.008.003.007.004.008.004.007.003.007.004.007.005.007.004.007.005.007.004.007.005.007.005.006.005.006.006.007.005.006.006.006.005.006.006.005.006.006.006.006.007.005.006.005.007.005.006.005.007.005.007.004.007.004.007.005.007.004.007.004.007.003.008.004.007.003.008.004.007.003.008.003.008.002.008.003.008.002.008.002.008.002.008.002.008.002.008.001.008.001.008.001.008.001.009.001.008v.008.009l.001.008-.001.008v.008.009l-.001.008-.001.008-.001.008-.001.009-.001.008-.002.008-.002.008-.002.008-.002.008-.002.008-.003.008-.002.008-.003.008-.003.007-.004.008-.003.008-.004.007-.003.007-.004.008-.004.007-.005.007-.004.007-.004.007-.005.007-.005.007-.005.006-.005.007-.005.006-.006.006-.006.006-.005.006-.006.006-.006.006-.006.006-.007.005-.006.005-.006.006-.007.005-.007.004-.007.005-.007.005-.007.004-.007.004-.007.004-.007.004-.008.004-.007.004-.008.003-.007.003-.008.003-.008.003-.008.003-.008.002-.008.003-.008.002-.008.002-.008.001-.008.002-.008.001-.008.002-.009.001-.008.001h-.008l-.008.001h-.009-.008-.478-.008-.009l-.008-.001h-.008l-.008-.001-.009-.001-.008-.002-.008-.001-.008-.002-.008-.001-.008-.002-.008-.002-.008-.003-.008-.002-.008-.003-.008-.003-.008-.003-.007-.003-.008-.003-.007-.004-.008-.004-.007-.004-.007-.004-.007-.004-.007-.004-.007-.005-.007-.005-.007-.004-.007-.005-.006-.006-.006-.005-.007-.005-.006-.006-.006-.006-.006-.006-.005-.006-.006-.006-.005-.006-.006-.006-.005-.007-.005-.006-.005-.007-.004-.007-.005-.007-.004-.007-.005-.007-.004-.007-.004-.008-.003-.007-.004-.007-.003-.008-.004-.008-.003-.007-.002-.008-.003-.008-.003-.008-.002-.008-.002-.008-.002-.008-.002-.008-.001-.008-.002-.008-.001-.009-.001-.008-.001-.008-.001-.008v-.009-.008-.008-.008-.009-.008l.001-.008.001-.009.001-.008.001-.008.002-.008.001-.008.002-.008.002-.008.002-.008.002-.008.003-.008.003-.008.002-.008.003-.008.004-.007.003-.008.004-.007.003-.008.004-.007.004-.007.005-.007.004-.007.005-.007.004-.007.005-.007.005-.006.005-.007.006-.006.005-.007.006-.006.005-.006.006-.006.006-.005.006-.006.007-.005.006-.006.006-.005.007-.005.007-.005.007-.004.007-.005.007-.004.007-.005.007-.004.007-.003.008-.004.007-.004.008-.003.007-.003.008-.003.008-.003.008-.003.008-.003.008-.002.008-.002.008-.002.008-.002.008-.001.008-.002.008-.001.009-.001.008-.001h.008l.008-.001h.009.008.478.008z"/></g><use href="#z"/><path d="M1393.867 52.653c-.201 0-.364-.163-.364-.364V50.7c0-.201.163-.364.364-.364s.364.163.364.364v1.589c0 .201-.163.364-.364.364zm1.458 0c-.201 0-.364-.163-.364-.364V50.7c0-.201.163-.364.364-.364s.364.163.364.364v1.589c0 .201-.163.364-.364.364z"/><rect x="1383.783" y="50.335" width="2.43" height="1.214" rx=".281"/><g class="B"><path d="M1419.39 50.335l5.118-5.305c.106-.112.274-.138.408-.064a.34.34 0 0 1 .166.379l-1.489 5.941c-.104.413-.104.845 0 1.258l1.489 5.941a.34.34 0 0 1-.574.315l-5.118-5.549-.294-1.432.294-1.481z"/><path d="M1419.39 50.335l5.118-5.305c.106-.112.274-.138.408-.064a.34.34 0 0 1 .166.379l-1.489 5.941c-.104.413-.104.845 0 1.258l1.489 5.941a.34.34 0 0 1-.574.315l-5.118-5.549-.294-1.432.294-1.481z"/></g></g><g clip-path="url(#R)" class="E"><path d="M1413.506 53.248h14.982v6.001h-14.982zm0-8.675h14.982v5.762h-14.982z"/></g><g class="E"><g class="B"><path d="M1387.754 53.835l-.49-.587h.981l-.491.587zm-1.961 0l-.49-.587h.981l-.491.587z"/><path d="M1384.813 53.835l-.491-.587h.981l-.49.587zm1.961 0l-.49-.587h.98l-.49.587zm1.961 0l-.49-.587h.98l-.49.587z"/><path d="M1389.716 53.835l-.491-.587h.981l-.49.587zm-4.232-3.5h-.972v.931c0 .156.127.283.283.283h.406c.156 0 .283-.127.283-.283v-.931zm13.85 3.885l-.486 4.242 5.309 4.209c.097.077.229.091.34.038a.32.32 0 0 0 .182-.29V60.06c0-.312-.124-.611-.345-.832l-5.001-5.007zm48.053-.19l.36 3.146-3.938 3.122a.24.24 0 0 1-.253.028c-.083-.04-.135-.123-.135-.215v-1.75a.87.87 0 0 1 .256-.617l3.709-3.713zm-.896-3.475a1.46 1.46 0 0 1-1.317-1.451v-2.322c0-.071-.046-.133-.113-.155s-.141.002-.182.06l-2.699 3.739 4.311.129zm11.876 3.583l1.125 1.571a.24.24 0 0 0 .433-.139v-.651a.92.92 0 0 1 .686-.89h0l-2.244.109zm0-3.052l1.125-1.571a.24.24 0 0 1 .433.139v.747a.68.68 0 0 0 .201.484.69.69 0 0 0 .485.201h-2.244z"/><path d="M1463.884 53.314l-28.366-.725v.717c0 .47.187.92.52 1.252l.291.29c2.656 2.649 6.508 3.714 10.149 2.806l17.406-4.34z"/><path d="M1436.61 53.843l-.546-.653h1.091l-.545.653z"/><path d="M1463.884 51.148l-15.662-.705-.679-.015h-13.809c-.31 0-.59.185-.708.47s-.053.611.167.829a5.48 5.48 0 0 0 3.855 1.582h26.835v-2.161z"/><path d="M1439.01 51.357c0-.055-.022-.108-.061-.147s-.092-.061-.147-.061h-2.551c-.055 0-.108.022-.147.061s-.061.092-.061.147v.304c0 .055.022.108.061.147s.092.061.147.061h2.551c.055 0 .108-.022.147-.061s.061-.092.061-.147v-.304zm-4.509-.396l.006.001h.006.006l.006.001.006.001.006.001.006.001.006.001.006.001.006.002.006.001.006.002.006.002.006.002.006.002.005.002.006.003.006.002.005.003.006.003.005.002.006.003.005.004.005.003.005.003.005.004.005.003.005.004.005.004.005.004.004.004.005.004.004.004.005.005.004.004.004.005.004.004.004.005.004.005.004.005.003.005.004.005.003.005.003.005.004.005.003.006.002.005.003.006.003.005.002.006.003.005.002.006.002.006.002.006.002.006.002.006.001.005.002.006.001.006.001.006.001.007.001.006.001.006.001.006v.006.006l.001.006v.006.007l-.001.006v.006.006l-.001.006-.001.006-.001.006-.001.006-.001.006-.001.006-.002.006-.001.006-.002.006-.002.006-.002.006-.002.006-.002.005-.003.006-.002.006-.003.005-.003.006-.002.005-.003.005-.004.006-.003.005-.003.005-.004.005-.003.005-.004.005-.004.005-.004.005-.004.004-.004.005-.004.004-.005.005-.004.004-.005.004-.004.004-.005.004-.005.004-.005.003-.005.004-.005.004-.005.003-.005.003-.005.003-.006.003-.005.003-.006.003-.005.003-.006.002-.006.003-.005.002-.006.002-.006.002-.006.002-.006.001-.006.002-.006.002-.006.001-.006.001-.006.001-.006.001-.006.001h-.006l-.006.001h-.006-.006-.007-.354-.006-.006-.007l-.006-.001h-.006l-.006-.001-.006-.001-.006-.001-.006-.001-.006-.001-.006-.002-.006-.002-.006-.001-.006-.002-.006-.002-.005-.002-.006-.002-.006-.003-.005-.002-.006-.003-.006-.003-.005-.003-.005-.003-.006-.003-.005-.003-.005-.003-.005-.004-.005-.004-.005-.003-.005-.004-.004-.004-.005-.004-.005-.004-.004-.004-.004-.005-.005-.004-.004-.005-.004-.004-.004-.005-.004-.005-.003-.005-.004-.005-.004-.005-.003-.005-.003-.005-.003-.006-.003-.005-.003-.005-.003-.006-.003-.005-.002-.006-.003-.006-.002-.005-.002-.006-.002-.006-.002-.006-.001-.006-.002-.006-.002-.006-.001-.006-.001-.006-.001-.006-.001-.006-.001-.006v-.006l-.001-.006v-.006-.006-.007-.006-.006-.006l.001-.006v-.006l.001-.006.001-.006.001-.007.001-.006.001-.006.002-.006.002-.005.001-.006.002-.006.002-.006.002-.006.002-.006.003-.005.002-.006.003-.005.003-.006.003-.005.003-.006.003-.005.003-.005.003-.005.004-.005.004-.005.003-.005.004-.005.004-.005.004-.004.004-.005.005-.004.004-.005.004-.004.005-.004.005-.004.004-.004.005-.004.005-.004.005-.003.005-.004.005-.003.005-.003.006-.004.005-.003.005-.002.006-.003.006-.003.005-.002.006-.003.006-.002.005-.002.006-.002.006-.002.006-.002.006-.001.006-.002.006-.001.006-.001.006-.001.006-.001.006-.001.006-.001h.006.007l.006-.001h.006.354.007z"/></g><use href="#AA"/><path d="M1444.053 52.867a.27.27 0 0 1-.27-.27v-1.179a.27.27 0 0 1 .54 0v1.179a.27.27 0 0 1-.27.27zm1.081 0a.27.27 0 0 1-.27-.27v-1.179a.27.27 0 0 1 .54 0v1.179a.27.27 0 0 1-.27.27z"/><rect x="1436.573" y="51.148" width="1.802" height=".9" rx=".208"/><g class="B"><use href="#AB"/><use href="#AB"/></g></g><g clip-path="url(#S)" class="E"><path d="M1458.619 53.309h11.112v4.451h-11.112zm0-6.434h11.112v4.274h-11.112z"/></g><g class="B E"><use href="#AC"/><use href="#AD"/><path d="M1437.337 53.745l-.364-.436h.728l-.364.436z"/><use href="#AE"/><path d="M1440.246 53.745l-.363-.436h.727l-.364.436z"/><path d="M1440.974 53.745l-.364-.436h.727l-.363.436zm-3.139-2.597h-.721v.691a.21.21 0 0 0 .21.21h.301a.21.21 0 0 0 .21-.21v-.691zm10.273 2.882l-.36 3.146 3.938 3.122a.24.24 0 0 0 .253.028c.083-.04.135-.123.135-.215v-1.75a.87.87 0 0 0-.256-.617l-3.71-3.713z"/></g></g></svg>