<svg xmlns="http://www.w3.org/2000/svg" width="1500" height="145" xmlns:v="https://vecta.io/nano"><style><![CDATA[.B{fill:none}.C{fill-rule:evenodd}.D{opacity:.6}.E{stroke-linecap:round}.F{stroke-linejoin:round}.G{fill:#839d24}.H{opacity:.146}.I{clip-rule:evenodd}.J{fill:#0c1b1c}.K{opacity:.25}.L{opacity:.5}.M{stroke:#62c244}.N{stroke-width:10}.O{fill:#f1d949}.P{fill:#4d7c3d}.Q{fill:#62c244}.R{stroke-dasharray:0 10}.S{fill:#f7e27e}.T{fill:#dc9935}.U{fill:#61d2c0}.V{fill:#e9f5f5}.W{fill:#bdd033}.X{fill:#39317c}.Y{fill:#15343f}.Z{stroke:#162141}.a{stroke-width:4.561}]]></style><defs><clipPath id="A"><path d="M0 0h1500v145H0z" class="B"/></clipPath><clipPath id="B"><path d="M-58.569-560.85h277.233c32.723 0 59.25 26.527 59.25 59.25v39.052c0 32.723 26.527 59.25 59.25 59.25h133.922c32.723 0 59.25 26.527 59.25 59.25v11.946c0 32.723 26.527 59.25 59.25 59.25h49.217c32.723 0 59.25 26.527 59.25 59.25v64.551c0 32.723-26.527 59.25-59.25 59.25H533.681c-32.723 0-59.25 26.527-59.25 59.25h0c0 32.723-26.527 59.25-59.25 59.25H201.635c-32.723 0-59.25-26.527-59.25-59.25h0c0-32.723-26.527-59.25-59.25-59.25H-58.569v-471.051z" class="B"/></clipPath><clipPath id="C"><path d="M1278.524 91.006c3.933 2.271 5.28 7.3 3.009 11.233s-7.299 5.281-11.233 3.01-5.28-7.3-3.01-11.233 7.3-5.28 11.233-3.01z" class="B"/></clipPath><clipPath id="D"><path d="M30.161-96.67h225.554v88.272H30.161z" class="B"/></clipPath><clipPath id="E"><path d="M30.205-13.881h21.341l91.571-119.035V53.708h.007v-.005H30.205v-67.584z" class="B I"/></clipPath><clipPath id="F"><path d="M143.031-135.175l.015-11.07v-15.984h112.723V53.708H143.046V40.534l-.015-175.709z" class="B I"/></clipPath><clipPath id="G"><path d="M276.065 25.485h18.181l4.927 44.959c.273 2.492-1.68 4.668-4.189 4.668h-19.747c-2.512 0-4.466-2.182-4.188-4.677l5.015-44.95z" class="B"/></clipPath><clipPath id="H"><path d="M285.11 23.851c0 6.428-2.555 12.596-7.106 17.143s-10.723 7.1-17.16 7.1h-24.406V32.067c0-6.432 2.555-12.599 7.106-17.146a24.29 24.29 0 0 1 17.16-7.1h24.406v16.03z" class="B I"/></clipPath><clipPath id="I"><path d="M285.11 23.851c0 6.428 2.555 12.596 7.106 17.143s10.723 7.1 17.16 7.1h24.406V32.067c0-6.432-2.555-12.599-7.106-17.146a24.29 24.29 0 0 0-17.16-7.1H285.11v16.03z" class="B I"/></clipPath><clipPath id="J"><path d="M285.097 48.094l14.578-10.615c8.052-5.863 8.962-17.524 1.917-24.563l-5.099-5.095h-22.79l-5.099 5.095c-7.045 7.039-6.135 18.7 1.917 24.563l14.578 10.615z" class="B I"/></clipPath><clipPath id="K"><path d="M238.486 132.338l14.935-23.204-3.319-2.072-15.304 23.619v38.558h3.688v-36.901z" class="B"/></clipPath><clipPath id="L"><path d="M285.667 134.565c11.835-20.498 4.816-46.695-15.682-58.53s-46.697-4.816-58.531 15.682l74.213 42.848z" class="B"/></clipPath><clipPath id="M"><path d="M737.172,137.047l-18.717-13.096v66.791h19.678c1.568,0,2.816-1.332,2.734-2.92l-2.516-48.637c-.044-.859-.48-1.649-1.178-2.138Z" class="B"/></clipPath><clipPath id="N"><path d="M702.873,137.047l-18.717-13.096v66.791h19.678c1.568,0,2.816-1.332,2.734-2.92l-2.516-48.637c-.044-.859-.48-1.649-1.178-2.138Z" class="B"/></clipPath><clipPath id="O"><path d="M668.402,137.047l-18.717-13.096v66.791h19.678c1.568,0,2.816-1.332,2.734-2.92l-2.516-48.637c-.044-.859-.48-1.649-1.178-2.138Z" class="B"/></clipPath><clipPath id="P"><path d="M191.132 78.707c0-1.063-.422-2.082-1.174-2.833s-1.772-1.174-2.836-1.174h-8.873c-.77 0-1.495-.362-1.956-.977l-2.89-3.85a2.03 2.03 0 0 0-1.622-.811h-16.349a2.03 2.03 0 0 0-1.584.761l-5.033 6.286v13.892a5.99 5.99 0 0 0 .809 3.006l3.584 6.177c.774 1.333 2.199 2.154 3.741 2.154h24.78l9.404-9.396V78.707z" class="B I"/></clipPath><path id="Q" d="M132.597 16.469v8.147c0 1.896-1.542 3.438-3.438 3.438h-21.187c-1.896 0-3.438-1.542-3.438-3.438v-8.147c0-1.896 1.542-3.438 3.438-3.438h21.187c1.896 0 3.438 1.542 3.438 3.438zm-3.438 9.67c.84 0 1.523-.683 1.523-1.523v-8.147c0-.84-.683-1.523-1.523-1.523h-21.187c-.84 0-1.523.683-1.523 1.523v8.147c0 .84.683 1.523 1.523 1.523h21.187z"/><path id="R" d="M106.422 16.469v8.147c0 1.896-1.542 3.438-3.438 3.438H81.797c-1.896 0-3.438-1.542-3.438-3.438v-8.147c0-1.896 1.542-3.438 3.438-3.438h21.187c1.896 0 3.438 1.542 3.438 3.438zm-3.437 9.67c.84 0 1.523-.683 1.523-1.523v-8.147c0-.84-.683-1.523-1.523-1.523H81.798c-.84 0-1.523.683-1.523 1.523v8.147c0 .84.683 1.523 1.523 1.523h21.187z"/><path id="S" d="M80.274 16.469v8.147c0 1.896-1.542 3.438-3.438 3.438H55.649c-1.896 0-3.438-1.542-3.438-3.438v-8.147c0-1.896 1.542-3.438 3.438-3.438h21.187c1.896 0 3.438 1.542 3.438 3.438zm-3.438 9.67c.84 0 1.523-.683 1.523-1.523v-8.147c0-.84-.683-1.523-1.523-1.523H55.649c-.84 0-1.523.683-1.523 1.523v8.147c0 .84.683 1.523 1.523 1.523h21.187z"/><path id="T" d="M54.122 16.469v8.147c0 1.896-1.542 3.438-3.438 3.438H29.497c-1.896 0-3.438-1.542-3.438-3.438v-8.147c0-1.896 1.542-3.438 3.438-3.438h21.187c1.896 0 3.438 1.542 3.438 3.438zm-3.438 9.67c.84 0 1.523-.683 1.523-1.523v-8.147c0-.84-.683-1.523-1.523-1.523H29.497c-.84 0-1.523.683-1.523 1.523v8.147c0 .84.683 1.523 1.523 1.523h21.187z"/><path id="U" d="M171.802 29.577v8.147c0 1.896-1.542 3.438-3.438 3.438h-21.187c-1.896 0-3.438-1.542-3.438-3.438v-8.147c0-1.896 1.542-3.438 3.438-3.438h21.187c1.896 0 3.438 1.542 3.438 3.438zm-3.438 9.671c.84 0 1.523-.683 1.523-1.523v-8.147c0-.84-.683-1.523-1.523-1.523h-21.187c-.84 0-1.523.683-1.523 1.523v8.147c0 .84.683 1.523 1.523 1.523h21.187z"/><path id="V" d="M341.827 16.469v8.147c0 1.896-1.542 3.438-3.437 3.438h-21.187c-1.896 0-3.438-1.542-3.438-3.438v-8.147c0-1.896 1.542-3.438 3.438-3.438h21.187c1.895 0 3.437 1.542 3.437 3.438zm-3.437 9.67c.84 0 1.523-.683 1.523-1.523v-8.147c0-.84-.683-1.523-1.523-1.523h-21.187c-.84 0-1.523.683-1.523 1.523v8.147c0 .84.683 1.523 1.523 1.523h21.187z"/><path id="W" d="M315.675 16.469v8.147c0 1.896-1.542 3.438-3.438 3.438H291.05c-1.896 0-3.438-1.542-3.438-3.438v-8.147c0-1.896 1.542-3.438 3.438-3.438h21.187c1.896 0 3.438 1.542 3.438 3.438zm-3.438 9.67c.84 0 1.523-.683 1.523-1.523v-8.147c0-.84-.683-1.523-1.523-1.523H291.05c-.84 0-1.523.683-1.523 1.523v8.147c0 .84.683 1.523 1.523 1.523h21.187z"/><path id="X" d="M328.732 29.577v8.147c0 1.896-1.542 3.438-3.437 3.438h-21.187c-1.896 0-3.438-1.542-3.438-3.438v-8.147c0-1.896 1.542-3.438 3.438-3.438h21.187c1.895 0 3.437 1.542 3.437 3.438zm-3.438 9.671c.84 0 1.523-.683 1.523-1.523v-8.147c0-.84-.683-1.523-1.523-1.523h-21.187c-.84 0-1.523.683-1.523 1.523v8.147c0 .84.683 1.523 1.523 1.523h21.187z"/><path id="Y" d="M420.299 42.685v8.147c0 1.896-1.542 3.438-3.438 3.438h-21.187c-1.895 0-3.437-1.542-3.437-3.438v-8.147c0-1.896 1.542-3.438 3.437-3.438h21.187c1.896 0 3.438 1.542 3.438 3.438zm-3.438 9.671c.84 0 1.523-.683 1.523-1.523v-8.147c0-.84-.683-1.523-1.523-1.523h-21.187c-.84 0-1.523.683-1.523 1.523v8.147c0 .84.683 1.523 1.523 1.523h21.187z"/><path id="Z" d="M341.827 42.685v8.147c0 1.896-1.542 3.438-3.437 3.438h-21.187c-1.896 0-3.438-1.542-3.438-3.438v-8.147c0-1.896 1.542-3.438 3.438-3.438h21.187c1.895 0 3.437 1.542 3.437 3.438zm-3.437 9.671c.84 0 1.523-.683 1.523-1.523v-8.147c0-.84-.683-1.523-1.523-1.523h-21.187c-.84 0-1.523.683-1.523 1.523v8.147c0 .84.683 1.523 1.523 1.523h21.187z"/><path id="a" d="M524.865 16.469v8.147c0 1.896-1.542 3.438-3.438 3.438H500.24c-1.896 0-3.438-1.542-3.438-3.438v-8.147c0-1.896 1.542-3.438 3.438-3.438h21.187c1.896 0 3.438 1.542 3.438 3.438zm-3.438 9.67c.84 0 1.523-.683 1.523-1.523v-8.147c0-.84-.683-1.523-1.523-1.523H500.24c-.84 0-1.523.683-1.523 1.523v8.147c0 .84.683 1.523 1.523 1.523h21.187z"/><path id="b" d="M498.717 16.469v8.147c0 1.896-1.542 3.438-3.437 3.438h-21.187c-1.896 0-3.438-1.542-3.438-3.438v-8.147c0-1.896 1.542-3.438 3.438-3.438h21.187c1.895 0 3.437 1.542 3.437 3.438zm-3.438 9.67c.84 0 1.523-.683 1.523-1.523v-8.147c0-.84-.683-1.523-1.523-1.523h-21.187c-.84 0-1.523.683-1.523 1.523v8.147c0 .84.683 1.523 1.523 1.523h21.187z"/><path id="c" d="M485.656 29.577v8.147c0 1.896-1.542 3.438-3.438 3.438h-21.187c-1.896 0-3.438-1.542-3.438-3.438v-8.147c0-1.896 1.542-3.438 3.438-3.438h21.187c1.896 0 3.438 1.542 3.438 3.438zm-3.437 9.671c.84 0 1.523-.683 1.523-1.523v-8.147c0-.84-.683-1.523-1.523-1.523h-21.187c-.84 0-1.523.683-1.523 1.523v8.147c0 .84.683 1.523 1.523 1.523h21.187z"/><path id="d" d="M171.802 3.317v8.147c0 1.896-1.542 3.438-3.438 3.438h-21.187c-1.896 0-3.438-1.542-3.438-3.438V3.317c0-1.896 1.542-3.438 3.438-3.438h21.187c1.896 0 3.438 1.542 3.438 3.438zm-3.438 9.671c.84 0 1.523-.683 1.523-1.523V3.317c0-.84-.683-1.523-1.523-1.523h-21.187c-.84 0-1.523.683-1.523 1.523v8.147c0 .84.683 1.523 1.523 1.523h21.187z"/><path id="e" d="M537.922 3.317v8.147c0 1.896-1.542 3.438-3.438 3.438h-21.187c-1.895 0-3.437-1.542-3.437-3.438V3.317c0-1.896 1.542-3.438 3.437-3.438h21.187c1.896 0 3.438 1.542 3.438 3.438zm-3.438 9.671c.84 0 1.523-.683 1.523-1.523V3.317c0-.84-.683-1.523-1.523-1.523h-21.187c-.84 0-1.523.683-1.523 1.523v8.147c0 .84.683 1.523 1.523 1.523h21.187z"/><path id="f" d="M538.314 50.605c1.232 0 2.231-1 2.231-2.236v-7.001c0-1.236-.999-2.236-2.231-2.236s-2.231 1-2.231 2.236v7.001c0 1.236.999 2.236 2.231 2.236z"/><path id="g" d="M521.721 69.084c1.232 0 2.231-1 2.231-2.236v-4.669c0-1.236-.999-2.236-2.231-2.236s-2.231 1-2.231 2.236v4.669c0 1.236.999 2.236 2.231 2.236z"/><path id="h" d="M1377.974 77.961a.46.46 0 0 0-.46-.465h-.926a.46.46 0 0 0-.465.465v3.036c0 .259.207.465.465.465h.926a.46.46 0 0 0 .46-.465v-3.036z"/><path id="i" d="M1239.12 110.582c.58-1.027 1.667-1.659 2.843-1.659s2.264.633 2.843 1.659l5.017 8.888h-15.722l5.017-8.888z"/><path id="j" d="M609.893 37.957h13.102v22.154h-13.102z"/><path id="k" d="M634.432-12.072h16.883v18.42h-16.883z"/><path id="l" d="M306.681 30.028c.99 0 1.965-.483 2.547-1.371.923-1.405.531-3.289-.875-4.209l-12.366-8.105a3.04 3.04 0 0 0-4.211.873c-.923 1.405-.531 3.289.875 4.209l12.366 8.105c.515.338 1.093.499 1.664.499z"/><path id="m" d="M737.172,137.047l-18.717-13.096v66.791h19.678c1.568,0,2.816-1.332,2.734-2.92l-2.516-48.637c-.044-.859-.48-1.649-1.178-2.138Z"/><path id="n" d="M718.144 139.11h24.771v3.901h-24.771z"/><path id="o" d="M719.582 191.867h22.045v-57.431h-2.02l-20.025 57.431z"/></defs><g clip-path="url(#A)"><path d="M-10.125-2434.564h1520.249v4049.482H-10.125z" fill="#61d1d5"/><path d="M1209.742-1743.582c-76.136 0-138.076 61.941-138.076 138.077 0 9.374-7.626 17-17 17H948.403c-9.374 0-17-7.626-17-17v-2.009c0-36.943-30.057-67-67-67h-75.775c-41.992 0-76.156-34.163-76.156-76.156v-85.988c0-34.188-27.813-62-62-62H505.54c-34.187 0-62 27.812-62 62v1.583c0 6.616-5.383 12-12 12h-77.199c-41.355 0-75 33.645-75 75v1.615c0 6.616-5.383 12-12 12H-56.875V165.767h125.29c19.299 0 35 15.701 35 35v28.562c0 46.869 38.131 85 85 85h282.678c46.869 0 85-38.131 85-85v-4.012c0-19.299 15.701-35 35-35h100.898c106.145 0 192.5-86.354 192.5-192.5 0-13.785 11.215-25 25-25h189.302c13.785 0 25 11.215 25 25v6.941c0 13.785-11.215 25-25 25h-1.646c-41.355 0-75 33.646-75 75.001v134.569c0 41.355 33.645 75 75 75h68.108c41.355 0 75-33.645 75-75 0-34.095 27.737-61.833 61.832-61.833h254.837v-1921.077h-347.181z" fill="#7ee6e4"/><path d="M1045.191-1168.972h0c0-51.28 41.571-92.851 92.85-92.851h57.665c32.387 0 58.642-26.255 58.642-58.642h0c0-32.387 26.255-58.642 58.642-58.642h218.932v-339.474h-322.181c-62.45 0-113.076 50.626-113.076 113.076h0c0 23.196-18.804 42-42 42H948.403c-23.196 0-42-18.804-42-42v-2.009c0-23.196-18.804-42-42-42h-75.776c-55.867 0-101.156-45.289-101.156-101.156v-85.988c0-20.435-16.565-37-37-37H505.539c-20.435 0-37 16.565-37 37v1.583c0 20.435-16.565 37-37 37H354.34c-27.614 0-50 22.386-50 50v1.615c0 20.435-16.565 37-37 37H-31.875V140.767H68.414c33.137 0 60 26.863 60 60v28.561c0 33.137 26.863 60 60 60h282.678c33.137 0 60-26.863 60-60v-4.011c0-33.137 26.863-60 60-60H691.99c92.508 0 167.5-74.992 167.5-167.5h0c0-27.614 22.386-50 50-50h189.302c27.614 0 50 22.386 50 50v6.942c0 27.614-22.386 50-50 50h-1.647c-27.614 0-50 22.386-50 50v134.57c0 27.614 22.386 50 50 50h68.108c27.614 0 50-22.386 50-50h0c0-47.956 38.876-86.832 86.832-86.832h229.837v-328.038c0-39.064-31.668-70.732-70.732-70.732h-323.15c-50.932 0-92.285-41.008-92.845-91.807l-.006-830.892z" fill="#fbed97"/><path d="M1209.742-1658.581c-29.313 0-53.076 23.763-53.076 53.076h0c0 56.333-45.667 102-102 102H701.078c-40.652 0-73.606-32.955-73.606-73.606v-210.547c0-14.359-11.641-26-26-26H545.03c-10.394 0-19.895 6.146-23.89 15.742-14.612 35.099-49.272 59.841-89.6 59.841h-46.653c-11.17 0-21.157 7.295-24.204 18.042-11.534 40.685-49.013 70.574-93.342 70.574H-1.979L-13.354 92.88l115.314-.491c49.895 14.55 86.454 60.7 86.454 115.229v.695c.001 13.259 10.754 24.004 24.013 23.997l236.679-.131c11.698-.007 21.708-8.443 23.64-19.98 9.508-56.77 58.875-100.032 118.346-100.032H691.99c59.37 0 107.5-48.129 107.5-107.5h0c0-60.752 49.249-110 110-110h189.003c21.384 0 38.798-17.186 39.08-38.568h0c.246-18.686-12.768-34.942-31.062-38.758-28.801-6.009-55.263-20.244-76.552-41.532-28.243-28.244-44.073-65.595-44.746-105.431-.015-.883-.022-838.466-.022-839.351 0-40.828 15.899-79.212 44.769-108.081s67.254-44.769 108.082-44.769h28.622c14.589 0 27.327-10.069 30.48-24.313 11.76-53.123 59.237-92.972 115.846-92.972h312.76v-219.474h-416.008z" class="Q"/><g class="B E F M N"><path d="M-2.045-1639.447L-13.321 87.874" stroke-dasharray="0 10.014"/><path d="M-3.347 92.838l105.307-.449c49.895 14.55 86.454 60.7 86.454 115.229v.695c.001 13.259 10.754 24.004 24.013 23.997l236.679-.131c11.698-.007 21.708-8.443 23.64-19.98 9.508-56.77 58.875-100.032 118.346-100.032H691.99c59.37 0 107.5-48.129 107.5-107.5h0c0-60.751 49.249-110 110-110h189.003c21.384 0 38.798-17.186 39.08-38.568.246-18.686-12.768-34.942-31.062-38.758-28.801-6.009-55.263-20.244-76.552-41.532-28.243-28.244-44.073-65.594-44.746-105.431-.015-.882-.022-838.466-.022-839.351 0-40.828 15.899-79.212 44.769-108.081s67.254-44.769 108.082-44.769h28.623c14.589 0 27.327-10.069 30.48-24.313 11.76-53.123 59.237-92.972 115.846-92.972h307.757" stroke-dasharray="0 10.007"/></g><path d="M-58.569-560.85h277.233c32.723 0 59.25 26.527 59.25 59.25v39.052c0 32.723 26.527 59.25 59.25 59.25h133.922c32.723 0 59.25 26.527 59.25 59.25v11.946c0 32.723 26.527 59.25 59.25 59.25h49.217c32.723 0 59.25 26.527 59.25 59.25v64.551c0 32.723-26.527 59.25-59.25 59.25H533.681c-32.723 0-59.25 26.527-59.25 59.25h0c0 32.723-26.527 59.25-59.25 59.25H201.635c-32.723 0-59.25-26.527-59.25-59.25h0c0-32.723-26.527-59.25-59.25-59.25H-58.569v-471.051z" fill="#c2e6e4" class="E F M N R"/><g opacity=".2"><g clip-path="url(#B)" fill="#97cec8"><path d="M158.746 18.95v5.667c0 1.896-1.542 3.438-3.438 3.438h-21.187c-1.896 0-3.438-1.542-3.438-3.438V16.47c0-1.896 1.542-3.438 3.438-3.438h18.707c3.263 0 5.918 2.655 5.918 5.918zm-3.438 7.189c.84 0 1.523-.683 1.523-1.523v-5.667a4.01 4.01 0 0 0-4.004-4.004H134.12c-.84 0-1.523.683-1.523 1.523v8.147c0 .84.683 1.523 1.523 1.523h21.187z"/><use href="#Q"/><use href="#R"/><use href="#S"/><use href="#T"/><path d="M27.973 16.469v8.147c0 1.896-1.542 3.438-3.437 3.438H3.348c-1.896 0-3.438-1.542-3.438-3.438v-8.147c0-1.896 1.542-3.438 3.438-3.438h21.187c1.895 0 3.437 1.542 3.437 3.438zm-3.437 9.67c.84 0 1.523-.683 1.523-1.523v-8.147c0-.84-.683-1.523-1.523-1.523H3.348c-.84 0-1.523.683-1.523 1.523v8.147c0 .84.683 1.523 1.523 1.523h21.187z"/><path d="M1.798 16.469v8.147c0 1.896-1.542 3.438-3.438 3.438h-21.187c-1.896 0-3.438-1.542-3.438-3.438v-8.147c0-1.896 1.542-3.438 3.438-3.438h21.188c1.896 0 3.438 1.542 3.438 3.438zm-3.437 9.67c.84 0 1.523-.683 1.523-1.523v-8.147c0-.84-.683-1.523-1.523-1.523h-21.187c-.84 0-1.523.683-1.523 1.523v8.147c0 .84.683 1.523 1.523 1.523h21.187z"/><use href="#U"/><path d="M145.654 29.577v8.147c0 1.896-1.542 3.438-3.437 3.438H121.03c-1.896 0-3.438-1.542-3.438-3.438v-8.147c0-1.896 1.542-3.438 3.438-3.438h21.187c1.895 0 3.437 1.542 3.437 3.438zm-3.438 9.671c.84 0 1.523-.683 1.523-1.523v-8.147c0-.84-.683-1.523-1.523-1.523h-21.187c-.84 0-1.523.683-1.523 1.523v8.147c0 .84.683 1.523 1.523 1.523h21.187z"/><path d="M119.479 29.577v8.147c0 1.896-1.542 3.438-3.438 3.438H94.854c-1.896 0-3.438-1.542-3.438-3.438v-8.147c0-1.896 1.542-3.438 3.438-3.438h21.187c1.896 0 3.438 1.542 3.438 3.438zm-3.438 9.671c.84 0 1.523-.683 1.523-1.523v-8.147c0-.84-.683-1.523-1.523-1.523H94.854c-.84 0-1.523.683-1.523 1.523v8.147c0 .84.683 1.523 1.523 1.523h21.187z"/><path d="M93.33 29.577v8.147c0 1.896-1.542 3.438-3.438 3.438H68.705c-1.896 0-3.438-1.542-3.438-3.438v-8.147c0-1.896 1.542-3.438 3.438-3.438h21.187c1.896 0 3.438 1.542 3.438 3.438zm-3.438 9.671c.84 0 1.523-.683 1.523-1.523v-8.147c0-.84-.683-1.523-1.523-1.523H68.705c-.84 0-1.523.683-1.523 1.523v8.147c0 .84.683 1.523 1.523 1.523h21.187z"/><path d="M67.178 29.577v8.147c0 1.896-1.542 3.438-3.438 3.438H42.553c-1.895 0-3.437-1.542-3.437-3.438v-8.147c0-1.896 1.542-3.438 3.437-3.438H63.74c1.896 0 3.438 1.542 3.438 3.438zm-3.438 9.671c.84 0 1.523-.683 1.523-1.523v-8.147c0-.84-.683-1.523-1.523-1.523H42.553c-.84 0-1.523.683-1.523 1.523v8.147c0 .84.683 1.523 1.523 1.523H63.74z"/><path d="M41.03 29.577v8.147c0 1.896-1.542 3.438-3.438 3.438H16.405c-1.896 0-3.438-1.542-3.438-3.438v-8.147c0-1.896 1.542-3.438 3.438-3.438h21.187c1.896 0 3.438 1.542 3.438 3.438zm-3.438 9.671c.84 0 1.523-.683 1.523-1.523v-8.147c0-.84-.683-1.523-1.523-1.523H16.405c-.84 0-1.523.683-1.523 1.523v8.147c0 .84.683 1.523 1.523 1.523h21.187z"/><path d="M14.855 29.577v8.147c0 1.896-1.542 3.438-3.438 3.438H-9.77c-1.896 0-3.438-1.542-3.438-3.438v-8.147c0-1.896 1.542-3.438 3.438-3.438h21.187c1.896 0 3.438 1.542 3.438 3.438zm-3.438 9.671c.84 0 1.523-.683 1.523-1.523v-8.147c0-.84-.683-1.523-1.523-1.523H-9.77c-.84 0-1.523.683-1.523 1.523v8.147c0 .84.683 1.523 1.523 1.523h21.187zm147.329 3.437v8.147c0 1.896-1.542 3.438-3.438 3.438h-21.187c-1.896 0-3.438-1.542-3.438-3.438v-8.147c0-1.896 1.542-3.438 3.438-3.438h21.187c1.896 0 3.438 1.542 3.438 3.438zm-3.438 9.671c.84 0 1.523-.683 1.523-1.523v-8.147c0-.84-.683-1.523-1.523-1.523h-21.187c-.84 0-1.523.683-1.523 1.523v8.147c0 .84.683 1.523 1.523 1.523h21.187z"/><path d="M132.597 42.685v8.147c0 1.896-1.542 3.438-3.438 3.438h-21.187c-1.896 0-3.438-1.542-3.438-3.438v-8.147c0-1.896 1.542-3.438 3.438-3.438h21.187c1.896 0 3.438 1.542 3.438 3.438zm-3.438 9.671c.84 0 1.523-.683 1.523-1.523v-8.147c0-.84-.683-1.523-1.523-1.523h-21.187c-.84 0-1.523.683-1.523 1.523v8.147c0 .84.683 1.523 1.523 1.523h21.187z"/><path d="M106.422 42.685v8.147c0 1.896-1.542 3.438-3.438 3.438H81.797c-1.896 0-3.438-1.542-3.438-3.438v-8.147c0-1.896 1.542-3.438 3.438-3.438h21.187c1.896 0 3.438 1.542 3.438 3.438zm-3.437 9.671c.84 0 1.523-.683 1.523-1.523v-8.147c0-.84-.683-1.523-1.523-1.523H81.798c-.84 0-1.523.683-1.523 1.523v8.147c0 .84.683 1.523 1.523 1.523h21.187z"/><path d="M80.274 42.685v8.147c0 1.896-1.542 3.438-3.438 3.438H55.649c-1.896 0-3.438-1.542-3.438-3.438v-8.147c0-1.896 1.542-3.438 3.438-3.438h21.187c1.896 0 3.438 1.542 3.438 3.438zm-3.438 9.671c.84 0 1.523-.683 1.523-1.523v-8.147c0-.84-.683-1.523-1.523-1.523H55.649c-.84 0-1.523.683-1.523 1.523v8.147c0 .84.683 1.523 1.523 1.523h21.187z"/><path d="M54.122 42.685v8.147c0 1.896-1.542 3.438-3.438 3.438H29.497c-1.896 0-3.438-1.542-3.438-3.438v-8.147c0-1.896 1.542-3.438 3.438-3.438h21.187c1.896 0 3.438 1.542 3.438 3.438zm-3.438 9.671c.84 0 1.523-.683 1.523-1.523v-8.147c0-.84-.683-1.523-1.523-1.523H29.497c-.84 0-1.523.683-1.523 1.523v8.147c0 .84.683 1.523 1.523 1.523h21.187z"/><path d="M27.973 42.685v8.147c0 1.896-1.542 3.438-3.437 3.438H3.348c-1.896 0-3.438-1.542-3.438-3.438v-8.147c0-1.896 1.542-3.438 3.438-3.438h21.187c1.895 0 3.437 1.542 3.437 3.438zm-3.437 9.671c.84 0 1.523-.683 1.523-1.523v-8.147c0-.84-.683-1.523-1.523-1.523H3.348c-.84 0-1.523.683-1.523 1.523v8.147c0 .84.683 1.523 1.523 1.523h21.187z"/><path d="M1.798 42.685v8.147c0 1.896-1.542 3.438-3.438 3.438h-21.187c-1.896 0-3.438-1.542-3.438-3.438v-8.147c0-1.896 1.542-3.438 3.438-3.438h21.188c1.896 0 3.438 1.542 3.438 3.438zm-3.437 9.671c.84 0 1.523-.683 1.523-1.523v-8.147c0-.84-.683-1.523-1.523-1.523h-21.187c-.84 0-1.523.683-1.523 1.523v8.147c0 .84.683 1.523 1.523 1.523h21.187zM420.299 18.95v5.667c0 1.896-1.542 3.438-3.438 3.438h-21.187c-1.895 0-3.437-1.542-3.437-3.438V16.47c0-1.896 1.542-3.438 3.437-3.438h18.707c3.263 0 5.918 2.655 5.918 5.918zm-3.438 7.189c.84 0 1.523-.683 1.523-1.523v-5.667a4.01 4.01 0 0 0-4.004-4.004h-18.707c-.84 0-1.523.683-1.523 1.523v8.147c0 .84.683 1.523 1.523 1.523h21.187z"/><path d="M394.151 16.469v8.147c0 1.896-1.542 3.438-3.438 3.438h-21.187c-1.896 0-3.438-1.542-3.438-3.438v-8.147c0-1.896 1.542-3.438 3.438-3.438h21.187c1.896 0 3.438 1.542 3.438 3.438zm-3.438 9.67c.84 0 1.523-.683 1.523-1.523v-8.147c0-.84-.683-1.523-1.523-1.523h-21.187c-.84 0-1.523.683-1.523 1.523v8.147c0 .84.683 1.523 1.523 1.523h21.187z"/><path d="M367.976 16.469v8.147c0 1.896-1.542 3.438-3.438 3.438h-21.187c-1.896 0-3.438-1.542-3.438-3.438v-8.147c0-1.896 1.542-3.438 3.438-3.438h21.187c1.896 0 3.438 1.542 3.438 3.438zm-3.438 9.67c.84 0 1.523-.683 1.523-1.523v-8.147c0-.84-.683-1.523-1.523-1.523h-21.187c-.84 0-1.523.683-1.523 1.523v8.147c0 .84.683 1.523 1.523 1.523h21.187z"/><use href="#V"/><use href="#W"/><path d="M289.527 16.469v8.147c0 1.896-1.542 3.438-3.438 3.438h-21.187c-1.896 0-3.438-1.542-3.438-3.438v-8.147c0-1.896 1.542-3.438 3.438-3.438h21.187c1.896 0 3.438 1.542 3.438 3.438zm-3.438 9.67c.84 0 1.523-.683 1.523-1.523v-8.147c0-.84-.683-1.523-1.523-1.523h-21.187c-.84 0-1.523.683-1.523 1.523v8.147c0 .84.683 1.523 1.523 1.523h21.187z"/><path d="M263.352 16.469v8.147c0 1.896-1.542 3.438-3.438 3.438h-21.187c-1.896 0-3.438-1.542-3.438-3.438v-8.147c0-1.896 1.542-3.438 3.438-3.438h21.187c1.896 0 3.438 1.542 3.438 3.438zm-3.438 9.67c.84 0 1.523-.683 1.523-1.523v-8.147c0-.84-.683-1.523-1.523-1.523h-21.187c-.84 0-1.523.683-1.523 1.523v8.147c0 .84.683 1.523 1.523 1.523h21.187z"/><path d="M237.204 16.469v8.147c0 1.896-1.542 3.438-3.438 3.438h-21.187c-1.896 0-3.438-1.542-3.438-3.438v-8.147c0-1.896 1.542-3.438 3.438-3.438h21.187c1.896 0 3.438 1.542 3.438 3.438zm-3.438 9.67c.84 0 1.523-.683 1.523-1.523v-8.147c0-.84-.683-1.523-1.523-1.523h-21.187c-.84 0-1.523.683-1.523 1.523v8.147c0 .84.683 1.523 1.523 1.523h21.187z"/><path d="M211.087 16.469v8.147c0 1.896-1.542 3.438-3.438 3.438h-21.187c-1.896 0-3.438-1.542-3.438-3.438v-8.147c0-1.896 1.542-3.438 3.438-3.438h21.187c1.896 0 3.438 1.542 3.438 3.438zm-3.438 9.67c.84 0 1.523-.683 1.523-1.523v-8.147c0-.84-.683-1.523-1.523-1.523h-21.187c-.84 0-1.523.683-1.523 1.523v8.147c0 .84.683 1.523 1.523 1.523h21.187z"/><path d="M184.938 16.469v8.147c0 1.896-1.542 3.438-3.438 3.438h-21.187c-1.896 0-3.438-1.542-3.438-3.438v-5.667c0-3.263 2.654-5.918 5.918-5.918H181.5c1.896 0 3.438 1.542 3.438 3.438zm-3.438 9.67c.84 0 1.523-.683 1.523-1.523v-8.147c0-.84-.683-1.523-1.523-1.523h-18.707a4.01 4.01 0 0 0-4.003 4.004v5.667c0 .84.683 1.523 1.523 1.523H181.5zm251.856 3.438v8.147c0 1.896-1.542 3.438-3.438 3.438h-21.187c-1.896 0-3.438-1.542-3.438-3.438v-8.147c0-1.896 1.542-3.438 3.438-3.438h21.187c1.896 0 3.438 1.542 3.438 3.438zm-3.438 9.671c.84 0 1.523-.683 1.523-1.523v-8.147c0-.84-.683-1.523-1.523-1.523h-21.187c-.84 0-1.523.683-1.523 1.523v8.147c0 .84.683 1.523 1.523 1.523h21.187z"/><path d="M407.208 29.577v8.147c0 1.896-1.542 3.438-3.438 3.438h-21.187c-1.896 0-3.438-1.542-3.438-3.438v-8.147c0-1.896 1.542-3.438 3.438-3.438h21.187c1.896 0 3.438 1.542 3.438 3.438zm-3.438 9.671c.84 0 1.523-.683 1.523-1.523v-8.147c0-.84-.683-1.523-1.523-1.523h-21.187c-.84 0-1.523.683-1.523 1.523v8.147c0 .84.683 1.523 1.523 1.523h21.187zm-231.923-9.671v8.147c0 1.896-1.542 3.438-3.438 3.438h-21.187c-1.896 0-3.438-1.542-3.438-3.438v-8.147c0-1.896 1.542-3.438 3.438-3.438h21.187c1.896 0 3.438 1.542 3.438 3.438zm-3.438 9.671c.84 0 1.523-.683 1.523-1.523v-8.147c0-.84-.683-1.523-1.523-1.523h-21.187c-.84 0-1.523.683-1.523 1.523v8.147c0 .84.683 1.523 1.523 1.523h21.187z"/><path d="M381.032 29.577v8.147c0 1.896-1.542 3.438-3.438 3.438h-21.187c-1.895 0-3.437-1.542-3.437-3.438v-8.147c0-1.896 1.542-3.438 3.437-3.438h21.187c1.896 0 3.438 1.542 3.438 3.438zm-3.437 9.671c.84 0 1.523-.683 1.523-1.523v-8.147c0-.84-.683-1.523-1.523-1.523h-21.187c-.84 0-1.523.683-1.523 1.523v8.147c0 .84.683 1.523 1.523 1.523h21.187z"/><path d="M354.885 29.577v8.147c0 1.896-1.542 3.438-3.438 3.438H330.26c-1.896 0-3.438-1.542-3.438-3.438v-8.147c0-1.896 1.542-3.438 3.438-3.438h21.187c1.896 0 3.438 1.542 3.438 3.438zm-3.438 9.671c.84 0 1.523-.683 1.523-1.523v-8.147c0-.84-.683-1.523-1.523-1.523H330.26c-.84 0-1.523.683-1.523 1.523v8.147c0 .84.683 1.523 1.523 1.523h21.187z"/><use href="#X"/><path d="M302.584 29.577v8.147c0 1.896-1.542 3.438-3.438 3.438h-21.187c-1.896 0-3.438-1.542-3.438-3.438v-8.147c0-1.896 1.542-3.438 3.438-3.438h21.187c1.896 0 3.438 1.542 3.438 3.438zm-3.438 9.671c.84 0 1.523-.683 1.523-1.523v-8.147c0-.84-.683-1.523-1.523-1.523h-21.187c-.84 0-1.523.683-1.523 1.523v8.147c0 .84.683 1.523 1.523 1.523h21.187z"/><path d="M276.409 29.577v8.147c0 1.896-1.542 3.438-3.438 3.438h-21.187c-1.896 0-3.438-1.542-3.438-3.438v-8.147c0-1.896 1.542-3.438 3.438-3.438h21.187c1.896 0 3.438 1.542 3.438 3.438zm-3.438 9.671c.84 0 1.523-.683 1.523-1.523v-8.147c0-.84-.683-1.523-1.523-1.523h-21.187c-.84 0-1.523.683-1.523 1.523v8.147c0 .84.683 1.523 1.523 1.523h21.187z"/><path d="M250.261 29.577v8.147c0 1.896-1.542 3.438-3.438 3.438h-21.187c-1.896 0-3.438-1.542-3.438-3.438v-8.147c0-1.896 1.542-3.438 3.438-3.438h21.187c1.896 0 3.438 1.542 3.438 3.438zm-3.438 9.671c.84 0 1.523-.683 1.523-1.523v-8.147c0-.84-.683-1.523-1.523-1.523h-21.187c-.84 0-1.523.683-1.523 1.523v8.147c0 .84.683 1.523 1.523 1.523h21.187z"/><path d="M224.143 29.577v8.147c0 1.896-1.542 3.438-3.438 3.438h-21.187c-1.896 0-3.438-1.542-3.438-3.438v-8.147c0-1.896 1.542-3.438 3.438-3.438h21.187c1.896 0 3.438 1.542 3.438 3.438zm-3.438 9.671c.84 0 1.523-.683 1.523-1.523v-8.147c0-.84-.683-1.523-1.523-1.523h-21.187c-.84 0-1.523.683-1.523 1.523v8.147c0 .84.683 1.523 1.523 1.523h21.187z"/><path d="M197.995 29.577v8.147c0 1.896-1.542 3.438-3.438 3.438H173.37c-1.896 0-3.438-1.542-3.438-3.438v-8.147c0-1.896 1.542-3.438 3.438-3.438h21.187c1.896 0 3.438 1.542 3.438 3.438zm-3.438 9.671c.84 0 1.523-.683 1.523-1.523v-8.147c0-.84-.683-1.523-1.523-1.523H173.37c-.84 0-1.523.683-1.523 1.523v8.147c0 .84.683 1.523 1.523 1.523h21.187z"/><use href="#Y"/><path d="M394.151 42.685v8.147c0 1.896-1.542 3.438-3.438 3.438h-21.187c-1.896 0-3.438-1.542-3.438-3.438v-8.147c0-1.896 1.542-3.438 3.438-3.438h21.187c1.896 0 3.438 1.542 3.438 3.438zm-3.438 9.671c.84 0 1.523-.683 1.523-1.523v-8.147c0-.84-.683-1.523-1.523-1.523h-21.187c-.84 0-1.523.683-1.523 1.523v8.147c0 .84.683 1.523 1.523 1.523h21.187z"/><path d="M367.976 42.685v8.147c0 1.896-1.542 3.438-3.438 3.438h-21.187c-1.896 0-3.438-1.542-3.438-3.438v-8.147c0-1.896 1.542-3.438 3.438-3.438h21.187c1.896 0 3.438 1.542 3.438 3.438zm-3.438 9.671c.84 0 1.523-.683 1.523-1.523v-8.147c0-.84-.683-1.523-1.523-1.523h-21.187c-.84 0-1.523.683-1.523 1.523v8.147c0 .84.683 1.523 1.523 1.523h21.187z"/><use href="#Z"/><path d="M315.675 42.685v8.147c0 1.896-1.542 3.438-3.438 3.438H291.05c-1.896 0-3.438-1.542-3.438-3.438v-8.147c0-1.896 1.542-3.438 3.438-3.438h21.187c1.896 0 3.438 1.542 3.438 3.438zm-3.438 9.671c.84 0 1.523-.683 1.523-1.523v-8.147c0-.84-.683-1.523-1.523-1.523H291.05c-.84 0-1.523.683-1.523 1.523v8.147c0 .84.683 1.523 1.523 1.523h21.187z"/><path d="M289.527 42.685v8.147c0 1.896-1.542 3.438-3.438 3.438h-21.187c-1.896 0-3.438-1.542-3.438-3.438v-8.147c0-1.896 1.542-3.438 3.438-3.438h21.187c1.896 0 3.438 1.542 3.438 3.438zm-3.438 9.671c.84 0 1.523-.683 1.523-1.523v-8.147c0-.84-.683-1.523-1.523-1.523h-21.187c-.84 0-1.523.683-1.523 1.523v8.147c0 .84.683 1.523 1.523 1.523h21.187z"/><path d="M263.352 42.685v8.147c0 1.896-1.542 3.438-3.438 3.438h-21.187c-1.896 0-3.438-1.542-3.438-3.438v-8.147c0-1.896 1.542-3.438 3.438-3.438h21.187c1.896 0 3.438 1.542 3.438 3.438zm-3.438 9.671c.84 0 1.523-.683 1.523-1.523v-8.147c0-.84-.683-1.523-1.523-1.523h-21.187c-.84 0-1.523.683-1.523 1.523v8.147c0 .84.683 1.523 1.523 1.523h21.187z"/><path d="M237.204 42.685v8.147c0 1.896-1.542 3.438-3.438 3.438h-21.187c-1.896 0-3.438-1.542-3.438-3.438v-8.147c0-1.896 1.542-3.438 3.438-3.438h21.187c1.896 0 3.438 1.542 3.438 3.438zm-3.438 9.671c.84 0 1.523-.683 1.523-1.523v-8.147c0-.84-.683-1.523-1.523-1.523h-21.187c-.84 0-1.523.683-1.523 1.523v8.147c0 .84.683 1.523 1.523 1.523h21.187z"/><path d="M211.087 42.685v8.147c0 1.896-1.542 3.438-3.438 3.438h-21.187c-1.896 0-3.438-1.542-3.438-3.438v-8.147c0-1.896 1.542-3.438 3.438-3.438h21.187c1.896 0 3.438 1.542 3.438 3.438zm-3.438 9.671c.84 0 1.523-.683 1.523-1.523v-8.147c0-.84-.683-1.523-1.523-1.523h-21.187c-.84 0-1.523.683-1.523 1.523v8.147c0 .84.683 1.523 1.523 1.523h21.187z"/><path d="M184.938 42.685v8.147c0 1.896-1.542 3.438-3.438 3.438h-21.187c-1.896 0-3.438-1.542-3.438-3.438v-8.147c0-1.896 1.542-3.438 3.438-3.438H181.5c1.896 0 3.438 1.542 3.438 3.438zm-3.438 9.671c.84 0 1.523-.683 1.523-1.523v-8.147c0-.84-.683-1.523-1.523-1.523h-21.187c-.84 0-1.523.683-1.523 1.523v8.147c0 .84.683 1.523 1.523 1.523H181.5zM681.812 18.95v5.667c0 1.896-1.542 3.438-3.438 3.438h-21.187c-1.896 0-3.438-1.542-3.438-3.438V16.47c0-1.896 1.542-3.438 3.438-3.438h18.707c3.263 0 5.918 2.655 5.918 5.918zm-3.438 7.189c.84 0 1.523-.683 1.523-1.523v-5.667a4.01 4.01 0 0 0-4.004-4.004h-18.707c-.84 0-1.523.683-1.523 1.523v8.147c0 .84.683 1.523 1.523 1.523h21.187z"/><path d="M655.664 16.469v8.147c0 1.896-1.542 3.438-3.438 3.438h-21.187c-1.896 0-3.438-1.542-3.438-3.438v-8.147c0-1.896 1.542-3.438 3.438-3.438h21.187c1.896 0 3.438 1.542 3.438 3.438zm-3.438 9.67c.84 0 1.523-.683 1.523-1.523v-8.147c0-.84-.683-1.523-1.523-1.523h-21.187c-.84 0-1.523.683-1.523 1.523v8.147c0 .84.683 1.523 1.523 1.523h21.187z"/><path d="M629.489 16.469v8.147c0 1.896-1.542 3.438-3.438 3.438h-21.187c-1.896 0-3.438-1.542-3.438-3.438v-8.147c0-1.896 1.542-3.438 3.438-3.438h21.187c1.896 0 3.438 1.542 3.438 3.438zm-3.438 9.67c.84 0 1.523-.683 1.523-1.523v-8.147c0-.84-.683-1.523-1.523-1.523h-21.187c-.84 0-1.523.683-1.523 1.523v8.147c0 .84.683 1.523 1.523 1.523h21.187z"/><path d="M603.341 16.469v8.147c0 1.896-1.542 3.438-3.438 3.438h-21.187c-1.896 0-3.438-1.542-3.438-3.438v-8.147c0-1.896 1.542-3.438 3.438-3.438h21.187c1.896 0 3.438 1.542 3.438 3.438zm-3.438 9.67c.84 0 1.523-.683 1.523-1.523v-8.147c0-.84-.683-1.523-1.523-1.523h-21.187c-.84 0-1.523.683-1.523 1.523v8.147c0 .84.683 1.523 1.523 1.523h21.187z"/><path d="M577.188 16.469v8.147c0 1.896-1.542 3.438-3.438 3.438h-21.187c-1.896 0-3.438-1.542-3.438-3.438v-8.147c0-1.896 1.542-3.438 3.438-3.438h21.187c1.896 0 3.438 1.542 3.438 3.438zm-3.438 9.67c.84 0 1.523-.683 1.523-1.523v-8.147c0-.84-.683-1.523-1.523-1.523h-21.187c-.84 0-1.523.683-1.523 1.523v8.147c0 .84.683 1.523 1.523 1.523h21.187z"/><path d="M551.04 16.469v8.147c0 1.896-1.542 3.438-3.437 3.438h-21.187c-1.896 0-3.438-1.542-3.438-3.438v-8.147c0-1.896 1.542-3.438 3.438-3.438h21.187c1.895 0 3.437 1.542 3.437 3.438zm-3.437 9.67c.84 0 1.523-.683 1.523-1.523v-8.147c0-.84-.683-1.523-1.523-1.523h-21.187c-.84 0-1.523.683-1.523 1.523v8.147c0 .84.683 1.523 1.523 1.523h21.187z"/><use href="#a"/><use href="#b"/><path d="M472.6 16.469v8.147c0 1.896-1.542 3.438-3.438 3.438h-21.187c-1.896 0-3.438-1.542-3.438-3.438v-8.147c0-1.896 1.542-3.438 3.438-3.438h21.187c1.896 0 3.438 1.542 3.438 3.438zm-3.438 9.67c.84 0 1.523-.683 1.523-1.523v-8.147c0-.84-.683-1.523-1.523-1.523h-21.187c-.84 0-1.523.683-1.523 1.523v8.147c0 .84.683 1.523 1.523 1.523h21.187z"/><path d="M446.451 16.469v8.147c0 1.896-1.542 3.438-3.438 3.438h-21.187c-1.896 0-3.438-1.542-3.438-3.438v-5.667c0-3.263 2.655-5.918 5.918-5.918h18.707c1.896 0 3.438 1.542 3.438 3.438zm-3.437 9.67c.84 0 1.523-.683 1.523-1.523v-8.147c0-.84-.683-1.523-1.523-1.523h-18.707a4.01 4.01 0 0 0-4.004 4.004v5.667c0 .84.683 1.523 1.523 1.523h21.187zm251.855 3.438v8.147c0 1.896-1.542 3.438-3.438 3.438h-21.187c-1.896 0-3.438-1.542-3.438-3.438v-8.147c0-1.896 1.542-3.438 3.438-3.438h21.187c1.896 0 3.438 1.542 3.438 3.438zm-3.438 9.671c.84 0 1.523-.683 1.523-1.523v-8.147c0-.84-.683-1.523-1.523-1.523h-21.187c-.84 0-1.523.683-1.523 1.523v8.147c0 .84.683 1.523 1.523 1.523h21.187z"/><path d="M668.72 29.577v8.147c0 1.896-1.542 3.438-3.437 3.438h-21.187c-1.896 0-3.438-1.542-3.438-3.438v-8.147c0-1.896 1.542-3.438 3.438-3.438h21.187c1.895 0 3.437 1.542 3.437 3.438zm-3.437 9.671c.84 0 1.523-.683 1.523-1.523v-8.147c0-.84-.683-1.523-1.523-1.523h-21.187c-.84 0-1.523.683-1.523 1.523v8.147c0 .84.683 1.523 1.523 1.523h21.187zM433.36 29.577v8.147c0 1.896-1.542 3.438-3.438 3.438h-21.187c-1.896 0-3.438-1.542-3.438-3.438v-8.147c0-1.896 1.542-3.438 3.438-3.438h21.187c1.896 0 3.438 1.542 3.438 3.438zm-3.438 9.671c.84 0 1.523-.683 1.523-1.523v-8.147c0-.84-.683-1.523-1.523-1.523h-21.187c-.84 0-1.523.683-1.523 1.523v8.147c0 .84.683 1.523 1.523 1.523h21.187z"/><path d="M642.546 29.577v8.147c0 1.896-1.542 3.438-3.438 3.438h-21.187c-1.896 0-3.438-1.542-3.438-3.438v-8.147c0-1.896 1.542-3.438 3.438-3.438h21.187c1.896 0 3.438 1.542 3.438 3.438zm-3.438 9.671c.84 0 1.523-.683 1.523-1.523v-8.147c0-.84-.683-1.523-1.523-1.523h-21.187c-.84 0-1.523.683-1.523 1.523v8.147c0 .84.683 1.523 1.523 1.523h21.187z"/><path d="M616.397 29.577v8.147c0 1.896-1.542 3.438-3.438 3.438h-21.187c-1.896 0-3.438-1.542-3.438-3.438v-8.147c0-1.896 1.542-3.438 3.438-3.438h21.187c1.896 0 3.438 1.542 3.438 3.438zm-3.438 9.671c.84 0 1.523-.683 1.523-1.523v-8.147c0-.84-.683-1.523-1.523-1.523h-21.187c-.84 0-1.523.683-1.523 1.523v8.147c0 .84.683 1.523 1.523 1.523h21.187z"/><path d="M590.245 29.577v8.147c0 1.896-1.542 3.438-3.438 3.438H565.62c-1.895 0-3.437-1.542-3.437-3.438v-8.147c0-1.896 1.542-3.438 3.437-3.438h21.187c1.896 0 3.438 1.542 3.438 3.438zm-3.438 9.671c.84 0 1.523-.683 1.523-1.523v-8.147c0-.84-.683-1.523-1.523-1.523H565.62c-.84 0-1.523.683-1.523 1.523v8.147c0 .84.683 1.523 1.523 1.523h21.187z"/><path d="M564.097 29.577v8.147c0 1.896-1.542 3.438-3.438 3.438h-21.187c-1.896 0-3.438-1.542-3.438-3.438v-8.147c0-1.896 1.542-3.438 3.438-3.438h21.187c1.896 0 3.438 1.542 3.438 3.438zm-3.438 9.671c.84 0 1.523-.683 1.523-1.523v-8.147c0-.84-.683-1.523-1.523-1.523h-21.187c-.84 0-1.523.683-1.523 1.523v8.147c0 .84.683 1.523 1.523 1.523h21.187z"/><path d="M537.922 29.577v8.147c0 1.896-1.542 3.438-3.438 3.438h-21.187c-1.895 0-3.437-1.542-3.437-3.438v-8.147c0-1.896 1.542-3.438 3.437-3.438h21.187c1.896 0 3.438 1.542 3.438 3.438zm-3.438 9.671c.84 0 1.523-.683 1.523-1.523v-8.147c0-.84-.683-1.523-1.523-1.523h-21.187c-.84 0-1.523.683-1.523 1.523v8.147c0 .84.683 1.523 1.523 1.523h21.187z"/><path d="M511.774 29.577v8.147c0 1.896-1.542 3.438-3.438 3.438h-21.187c-1.896 0-3.438-1.542-3.438-3.438v-8.147c0-1.896 1.542-3.438 3.438-3.438h21.187c1.896 0 3.438 1.542 3.438 3.438zm-3.438 9.671c.84 0 1.523-.683 1.523-1.523v-8.147c0-.84-.683-1.523-1.523-1.523h-21.187c-.84 0-1.523.683-1.523 1.523v8.147c0 .84.683 1.523 1.523 1.523h21.187z"/><use href="#c"/><path d="M459.508 29.577v8.147c0 1.896-1.542 3.438-3.438 3.438h-21.187c-1.895 0-3.437-1.542-3.437-3.438v-8.147c0-1.896 1.542-3.438 3.437-3.438h21.187c1.896 0 3.438 1.542 3.438 3.438zm-3.438 9.671c.84 0 1.523-.683 1.523-1.523v-8.147c0-.84-.683-1.523-1.523-1.523h-21.187c-.84 0-1.523.683-1.523 1.523v8.147c0 .84.683 1.523 1.523 1.523h21.187zm225.742 3.437v8.147c0 1.896-1.542 3.438-3.438 3.438h-21.187c-1.896 0-3.438-1.542-3.438-3.438v-8.147c0-1.896 1.542-3.438 3.438-3.438h21.187c1.896 0 3.438 1.542 3.438 3.438zm-3.438 9.671c.84 0 1.523-.683 1.523-1.523v-8.147c0-.84-.683-1.523-1.523-1.523h-21.187c-.84 0-1.523.683-1.523 1.523v8.147c0 .84.683 1.523 1.523 1.523h21.187z"/><path d="M655.664 42.685v8.147c0 1.896-1.542 3.438-3.438 3.438h-21.187c-1.896 0-3.438-1.542-3.438-3.438v-8.147c0-1.896 1.542-3.438 3.438-3.438h21.187c1.896 0 3.438 1.542 3.438 3.438zm-3.438 9.671c.84 0 1.523-.683 1.523-1.523v-8.147c0-.84-.683-1.523-1.523-1.523h-21.187c-.84 0-1.523.683-1.523 1.523v8.147c0 .84.683 1.523 1.523 1.523h21.187z"/><path d="M629.489 42.685v8.147c0 1.896-1.542 3.438-3.438 3.438h-21.187c-1.896 0-3.438-1.542-3.438-3.438v-8.147c0-1.896 1.542-3.438 3.438-3.438h21.187c1.896 0 3.438 1.542 3.438 3.438zm-3.438 9.671c.84 0 1.523-.683 1.523-1.523v-8.147c0-.84-.683-1.523-1.523-1.523h-21.187c-.84 0-1.523.683-1.523 1.523v8.147c0 .84.683 1.523 1.523 1.523h21.187z"/><path d="M603.341 42.685v8.147c0 1.896-1.542 3.438-3.438 3.438h-21.187c-1.896 0-3.438-1.542-3.438-3.438v-8.147c0-1.896 1.542-3.438 3.438-3.438h21.187c1.896 0 3.438 1.542 3.438 3.438zm-3.438 9.671c.84 0 1.523-.683 1.523-1.523v-8.147c0-.84-.683-1.523-1.523-1.523h-21.187c-.84 0-1.523.683-1.523 1.523v8.147c0 .84.683 1.523 1.523 1.523h21.187z"/><path d="M577.188 42.685v8.147c0 1.896-1.542 3.438-3.438 3.438h-21.187c-1.896 0-3.438-1.542-3.438-3.438v-8.147c0-1.896 1.542-3.438 3.438-3.438h21.187c1.896 0 3.438 1.542 3.438 3.438zm-3.438 9.671c.84 0 1.523-.683 1.523-1.523v-8.147c0-.84-.683-1.523-1.523-1.523h-21.187c-.84 0-1.523.683-1.523 1.523v8.147c0 .84.683 1.523 1.523 1.523h21.187z"/><path d="M551.04 42.685v8.147c0 1.896-1.542 3.438-3.437 3.438h-21.187c-1.896 0-3.438-1.542-3.438-3.438v-8.147c0-1.896 1.542-3.438 3.438-3.438h21.187c1.895 0 3.437 1.542 3.437 3.438zm-3.437 9.671c.84 0 1.523-.683 1.523-1.523v-8.147c0-.84-.683-1.523-1.523-1.523h-21.187c-.84 0-1.523.683-1.523 1.523v8.147c0 .84.683 1.523 1.523 1.523h21.187z"/><path d="M524.865 42.685v8.147c0 1.896-1.542 3.438-3.438 3.438H500.24c-1.896 0-3.438-1.542-3.438-3.438v-8.147c0-1.896 1.542-3.438 3.438-3.438h21.187c1.896 0 3.438 1.542 3.438 3.438zm-3.438 9.671c.84 0 1.523-.683 1.523-1.523v-8.147c0-.84-.683-1.523-1.523-1.523H500.24c-.84 0-1.523.683-1.523 1.523v8.147c0 .84.683 1.523 1.523 1.523h21.187z"/><path d="M498.717 42.685v8.147c0 1.896-1.542 3.438-3.437 3.438h-21.187c-1.896 0-3.438-1.542-3.438-3.438v-8.147c0-1.896 1.542-3.438 3.438-3.438h21.187c1.895 0 3.437 1.542 3.437 3.438zm-3.438 9.671c.84 0 1.523-.683 1.523-1.523v-8.147c0-.84-.683-1.523-1.523-1.523h-21.187c-.84 0-1.523.683-1.523 1.523v8.147c0 .84.683 1.523 1.523 1.523h21.187z"/><path d="M472.6 42.685v8.147c0 1.896-1.542 3.438-3.438 3.438h-21.187c-1.896 0-3.438-1.542-3.438-3.438v-8.147c0-1.896 1.542-3.438 3.438-3.438h21.187c1.896 0 3.438 1.542 3.438 3.438zm-3.438 9.671c.84 0 1.523-.683 1.523-1.523v-8.147c0-.84-.683-1.523-1.523-1.523h-21.187c-.84 0-1.523.683-1.523 1.523v8.147c0 .84.683 1.523 1.523 1.523h21.187z"/><path d="M446.451 42.685v8.147c0 1.896-1.542 3.438-3.438 3.438h-21.187c-1.896 0-3.438-1.542-3.438-3.438v-8.147c0-1.896 1.542-3.438 3.438-3.438h21.187c1.896 0 3.438 1.542 3.438 3.438zm-3.437 9.671c.84 0 1.523-.683 1.523-1.523v-8.147c0-.84-.683-1.523-1.523-1.523h-21.187c-.84 0-1.523.683-1.523 1.523v8.147c0 .84.683 1.523 1.523 1.523h21.187zm317.257-35.887v8.147c0 1.896-1.542 3.438-3.438 3.438h-21.187c-1.896 0-3.438-1.542-3.438-3.438v-8.147c0-1.896 1.542-3.438 3.438-3.438h21.187c1.896 0 3.438 1.542 3.438 3.438zm-3.438 9.67c.84 0 1.523-.683 1.523-1.523v-8.147c0-.84-.683-1.523-1.523-1.523h-21.187c-.84 0-1.523.683-1.523 1.523v8.147c0 .84.683 1.523 1.523 1.523h21.187z"/><path d="M734.154 16.469v8.147c0 1.896-1.542 3.438-3.438 3.438h-21.187c-1.896 0-3.438-1.542-3.438-3.438v-8.147c0-1.896 1.542-3.438 3.438-3.438h21.187c1.896 0 3.438 1.542 3.438 3.438zm-3.438 9.67c.84 0 1.523-.683 1.523-1.523v-8.147c0-.84-.683-1.523-1.523-1.523h-21.187c-.84 0-1.523.683-1.523 1.523v8.147c0 .84.683 1.523 1.523 1.523h21.187z"/><path d="M708.005 16.469v8.147c0 1.896-1.542 3.438-3.438 3.438H683.38c-1.896 0-3.438-1.542-3.438-3.438v-5.667c0-3.263 2.654-5.918 5.918-5.918h18.707c1.896 0 3.438 1.542 3.438 3.438zm-3.438 9.67c.84 0 1.523-.683 1.523-1.523v-8.147c0-.84-.683-1.523-1.523-1.523H685.86a4.01 4.01 0 0 0-4.003 4.004v5.667c0 .84.683 1.523 1.523 1.523h21.187z"/><path d="M694.914 29.577v8.147c0 1.896-1.542 3.438-3.438 3.438h-21.187c-1.896 0-3.438-1.542-3.438-3.438v-8.147c0-1.896 1.542-3.438 3.438-3.438h21.187c1.896 0 3.438 1.542 3.438 3.438zm-3.438 9.671c.84 0 1.523-.683 1.523-1.523v-8.147c0-.84-.683-1.523-1.523-1.523h-21.187c-.84 0-1.523.683-1.523 1.523v8.147c0 .84.683 1.523 1.523 1.523h21.187zm55.734-9.671v8.147c0 1.896-1.542 3.438-3.438 3.438h-21.187c-1.896 0-3.438-1.542-3.438-3.438v-8.147c0-1.896 1.542-3.438 3.438-3.438h21.187c1.896 0 3.438 1.542 3.438 3.438zm-3.438 9.671c.84 0 1.523-.683 1.523-1.523v-8.147c0-.84-.683-1.523-1.523-1.523h-21.187c-.84 0-1.523.683-1.523 1.523v8.147c0 .84.683 1.523 1.523 1.523h21.187z"/><path d="M721.062 29.577v8.147c0 1.896-1.542 3.438-3.438 3.438h-21.187c-1.896 0-3.438-1.542-3.438-3.438v-8.147c0-1.896 1.542-3.438 3.438-3.438h21.187c1.896 0 3.438 1.542 3.438 3.438zm-3.438 9.671c.84 0 1.523-.683 1.523-1.523v-8.147c0-.84-.683-1.523-1.523-1.523h-21.187c-.84 0-1.523.683-1.523 1.523v8.147c0 .84.683 1.523 1.523 1.523h21.187zm42.647 3.437v8.147c0 1.896-1.542 3.438-3.438 3.438h-21.187c-1.896 0-3.438-1.542-3.438-3.438v-8.147c0-1.896 1.542-3.438 3.438-3.438h21.187c1.896 0 3.438 1.542 3.438 3.438zm-3.438 9.671c.84 0 1.523-.683 1.523-1.523v-8.147c0-.84-.683-1.523-1.523-1.523h-21.187c-.84 0-1.523.683-1.523 1.523v8.147c0 .84.683 1.523 1.523 1.523h21.187z"/><path d="M734.154 42.685v8.147c0 1.896-1.542 3.438-3.438 3.438h-21.187c-1.896 0-3.438-1.542-3.438-3.438v-8.147c0-1.896 1.542-3.438 3.438-3.438h21.187c1.896 0 3.438 1.542 3.438 3.438zm-3.438 9.671c.84 0 1.523-.683 1.523-1.523v-8.147c0-.84-.683-1.523-1.523-1.523h-21.187c-.84 0-1.523.683-1.523 1.523v8.147c0 .84.683 1.523 1.523 1.523h21.187z"/><path d="M708.005 42.685v8.147c0 1.896-1.542 3.438-3.438 3.438H683.38c-1.896 0-3.438-1.542-3.438-3.438v-8.147c0-1.896 1.542-3.438 3.438-3.438h21.187c1.896 0 3.438 1.542 3.438 3.438zm-3.438 9.671c.84 0 1.523-.683 1.523-1.523v-8.147c0-.84-.683-1.523-1.523-1.523H683.38c-.84 0-1.523.683-1.523 1.523v8.147c0 .84.683 1.523 1.523 1.523h21.187zM158.746-9.791v8.147c0 1.896-1.542 3.438-3.438 3.438h-21.187c-1.896 0-3.438-1.542-3.438-3.438v-8.147c0-1.896 1.542-3.438 3.438-3.438h21.187c1.896 0 3.438 1.542 3.438 3.438zm-3.438 9.67c.84 0 1.523-.683 1.523-1.523v-8.147c0-.84-.683-1.523-1.523-1.523h-21.187c-.84 0-1.523.683-1.523 1.523v8.147c0 .84.683 1.523 1.523 1.523h21.187z"/><path d="M132.597-9.791v8.147c0 1.896-1.542 3.438-3.438 3.438h-21.187c-1.896 0-3.438-1.542-3.438-3.438v-8.147c0-1.896 1.542-3.438 3.438-3.438h21.187c1.896 0 3.438 1.542 3.438 3.438zm-3.438 9.67c.84 0 1.523-.683 1.523-1.523v-8.147c0-.84-.683-1.523-1.523-1.523h-21.187c-.84 0-1.523.683-1.523 1.523v8.147c0 .84.683 1.523 1.523 1.523h21.187z"/><path d="M106.422-9.791v8.147c0 1.896-1.542 3.438-3.438 3.438H81.797c-1.896 0-3.438-1.542-3.438-3.438v-8.147c0-1.896 1.542-3.438 3.438-3.438h21.187c1.896 0 3.438 1.542 3.438 3.438zm-3.437 9.67c.84 0 1.523-.683 1.523-1.523v-8.147c0-.84-.683-1.523-1.523-1.523H81.798c-.84 0-1.523.683-1.523 1.523v8.147c0 .84.683 1.523 1.523 1.523h21.187z"/><path d="M80.274-9.791v8.147c0 1.896-1.542 3.438-3.438 3.438H55.649c-1.896 0-3.438-1.542-3.438-3.438v-8.147c0-1.896 1.542-3.438 3.438-3.438h21.187c1.896 0 3.438 1.542 3.438 3.438zm-3.438 9.67c.84 0 1.523-.683 1.523-1.523v-8.147c0-.84-.683-1.523-1.523-1.523H55.649c-.84 0-1.523.683-1.523 1.523v8.147c0 .84.683 1.523 1.523 1.523h21.187z"/><path d="M54.122-9.791v8.147c0 1.896-1.542 3.438-3.438 3.438H29.497c-1.896 0-3.438-1.542-3.438-3.438v-8.147c0-1.896 1.542-3.438 3.438-3.438h21.187c1.896 0 3.438 1.542 3.438 3.438zm-3.438 9.67c.84 0 1.523-.683 1.523-1.523v-8.147c0-.84-.683-1.523-1.523-1.523H29.497c-.84 0-1.523.683-1.523 1.523v8.147c0 .84.683 1.523 1.523 1.523h21.187z"/><path d="M27.973-9.791v8.147c0 1.896-1.542 3.438-3.437 3.438H3.348C1.452 1.794-.09.252-.09-1.644v-8.147c0-1.896 1.542-3.438 3.438-3.438h21.187c1.895 0 3.437 1.542 3.437 3.438zm-3.437 9.67c.84 0 1.523-.683 1.523-1.523v-8.147c0-.84-.683-1.523-1.523-1.523H3.348c-.84 0-1.523.683-1.523 1.523v8.147c0 .84.683 1.523 1.523 1.523h21.187z"/><path d="M1.798-9.791v8.147C1.798.252.256 1.794-1.64 1.794h-21.187c-1.896 0-3.438-1.542-3.438-3.438v-8.147c0-1.896 1.542-3.438 3.438-3.438h21.188c1.896 0 3.438 1.542 3.438 3.438zm-3.437 9.67c.84 0 1.523-.683 1.523-1.523v-8.147c0-.84-.683-1.523-1.523-1.523h-21.187c-.84 0-1.523.683-1.523 1.523v8.147c0 .84.683 1.523 1.523 1.523h21.187z"/><use href="#d"/><path d="M145.654 3.317v8.147c0 1.896-1.542 3.438-3.437 3.438H121.03c-1.896 0-3.438-1.542-3.438-3.438V3.317c0-1.896 1.542-3.438 3.438-3.438h21.187c1.895 0 3.437 1.542 3.437 3.438zm-3.438 9.671c.84 0 1.523-.683 1.523-1.523V3.317c0-.84-.683-1.523-1.523-1.523h-21.187c-.84 0-1.523.683-1.523 1.523v8.147c0 .84.683 1.523 1.523 1.523h21.187z"/><path d="M119.479 3.317v8.147c0 1.896-1.542 3.438-3.438 3.438H94.854c-1.896 0-3.438-1.542-3.438-3.438V3.317c0-1.896 1.542-3.438 3.438-3.438h21.187c1.896 0 3.438 1.542 3.438 3.438zm-3.438 9.671c.84 0 1.523-.683 1.523-1.523V3.317c0-.84-.683-1.523-1.523-1.523H94.854c-.84 0-1.523.683-1.523 1.523v8.147c0 .84.683 1.523 1.523 1.523h21.187z"/><path d="M93.33 3.317v8.147c0 1.896-1.542 3.438-3.438 3.438H68.705c-1.896 0-3.438-1.542-3.438-3.438V3.317c0-1.896 1.542-3.438 3.438-3.438h21.187c1.896 0 3.438 1.542 3.438 3.438zm-3.438 9.671c.84 0 1.523-.683 1.523-1.523V3.317c0-.84-.683-1.523-1.523-1.523H68.705c-.84 0-1.523.683-1.523 1.523v8.147c0 .84.683 1.523 1.523 1.523h21.187z"/><path d="M67.178 3.317v8.147c0 1.896-1.542 3.438-3.438 3.438H42.553c-1.895 0-3.437-1.542-3.437-3.438V3.317c0-1.896 1.542-3.438 3.437-3.438H63.74c1.896 0 3.438 1.542 3.438 3.438zm-3.438 9.671c.84 0 1.523-.683 1.523-1.523V3.317c0-.84-.683-1.523-1.523-1.523H42.553c-.84 0-1.523.683-1.523 1.523v8.147c0 .84.683 1.523 1.523 1.523H63.74z"/><path d="M41.03 3.317v8.147c0 1.896-1.542 3.438-3.438 3.438H16.405c-1.896 0-3.438-1.542-3.438-3.438V3.317c0-1.896 1.542-3.438 3.438-3.438h21.187c1.896 0 3.438 1.542 3.438 3.438zm-3.438 9.671c.84 0 1.523-.683 1.523-1.523V3.317c0-.84-.683-1.523-1.523-1.523H16.405c-.84 0-1.523.683-1.523 1.523v8.147c0 .84.683 1.523 1.523 1.523h21.187z"/><path d="M14.855 3.317v8.147c0 1.896-1.542 3.438-3.438 3.438H-9.77c-1.896 0-3.438-1.542-3.438-3.438V3.317c0-1.896 1.542-3.438 3.438-3.438h21.187c1.896 0 3.438 1.542 3.438 3.438zm-3.438 9.671c.84 0 1.523-.683 1.523-1.523V3.317c0-.84-.683-1.523-1.523-1.523H-9.77c-.84 0-1.523.683-1.523 1.523v8.147c0 .84.683 1.523 1.523 1.523h21.187zM420.299-9.791v8.147c0 1.896-1.542 3.438-3.438 3.438h-21.187c-1.895 0-3.437-1.542-3.437-3.438v-8.147c0-1.896 1.542-3.438 3.437-3.438h21.187c1.896 0 3.438 1.542 3.438 3.438zm-3.438 9.67c.84 0 1.523-.683 1.523-1.523v-8.147c0-.84-.683-1.523-1.523-1.523h-21.187c-.84 0-1.523.683-1.523 1.523v8.147c0 .84.683 1.523 1.523 1.523h21.187z"/><path d="M394.151-9.791v8.147c0 1.896-1.542 3.438-3.438 3.438h-21.187c-1.896 0-3.438-1.542-3.438-3.438v-8.147c0-1.896 1.542-3.438 3.438-3.438h21.187c1.896 0 3.438 1.542 3.438 3.438zm-3.438 9.67c.84 0 1.523-.683 1.523-1.523v-8.147c0-.84-.683-1.523-1.523-1.523h-21.187c-.84 0-1.523.683-1.523 1.523v8.147c0 .84.683 1.523 1.523 1.523h21.187z"/><path d="M367.976-9.791v8.147c0 1.896-1.542 3.438-3.438 3.438h-21.187c-1.896 0-3.438-1.542-3.438-3.438v-8.147c0-1.896 1.542-3.438 3.438-3.438h21.187c1.896 0 3.438 1.542 3.438 3.438zm-3.438 9.67c.84 0 1.523-.683 1.523-1.523v-8.147c0-.84-.683-1.523-1.523-1.523h-21.187c-.84 0-1.523.683-1.523 1.523v8.147c0 .84.683 1.523 1.523 1.523h21.187z"/><path d="M341.827-9.791v8.147c0 1.896-1.542 3.438-3.437 3.438h-21.187c-1.896 0-3.438-1.542-3.438-3.438v-8.147c0-1.896 1.542-3.438 3.438-3.438h21.187c1.895 0 3.437 1.542 3.437 3.438zm-3.437 9.67c.84 0 1.523-.683 1.523-1.523v-8.147c0-.84-.683-1.523-1.523-1.523h-21.187c-.84 0-1.523.683-1.523 1.523v8.147c0 .84.683 1.523 1.523 1.523h21.187z"/><path d="M315.675-9.791v8.147c0 1.896-1.542 3.438-3.438 3.438H291.05c-1.896 0-3.438-1.542-3.438-3.438v-8.147c0-1.896 1.542-3.438 3.438-3.438h21.187c1.896 0 3.438 1.542 3.438 3.438zm-3.438 9.67c.84 0 1.523-.683 1.523-1.523v-8.147c0-.84-.683-1.523-1.523-1.523H291.05c-.84 0-1.523.683-1.523 1.523v8.147c0 .84.683 1.523 1.523 1.523h21.187z"/><path d="M289.527-9.791v8.147c0 1.896-1.542 3.438-3.438 3.438h-21.187c-1.896 0-3.438-1.542-3.438-3.438v-8.147c0-1.896 1.542-3.438 3.438-3.438h21.187c1.896 0 3.438 1.542 3.438 3.438zm-3.438 9.67c.84 0 1.523-.683 1.523-1.523v-8.147c0-.84-.683-1.523-1.523-1.523h-21.187c-.84 0-1.523.683-1.523 1.523v8.147c0 .84.683 1.523 1.523 1.523h21.187z"/><path d="M263.352-9.791v8.147c0 1.896-1.542 3.438-3.438 3.438h-21.187c-1.896 0-3.438-1.542-3.438-3.438v-8.147c0-1.896 1.542-3.438 3.438-3.438h21.187c1.896 0 3.438 1.542 3.438 3.438zm-3.438 9.67c.84 0 1.523-.683 1.523-1.523v-8.147c0-.84-.683-1.523-1.523-1.523h-21.187c-.84 0-1.523.683-1.523 1.523v8.147c0 .84.683 1.523 1.523 1.523h21.187z"/><path d="M237.204-9.791v8.147c0 1.896-1.542 3.438-3.438 3.438h-21.187c-1.896 0-3.438-1.542-3.438-3.438v-8.147c0-1.896 1.542-3.438 3.438-3.438h21.187c1.896 0 3.438 1.542 3.438 3.438zm-3.438 9.67c.84 0 1.523-.683 1.523-1.523v-8.147c0-.84-.683-1.523-1.523-1.523h-21.187c-.84 0-1.523.683-1.523 1.523v8.147c0 .84.683 1.523 1.523 1.523h21.187z"/><path d="M211.087-9.791v8.147c0 1.896-1.542 3.438-3.438 3.438h-21.187c-1.896 0-3.438-1.542-3.438-3.438v-8.147c0-1.896 1.542-3.438 3.438-3.438h21.187c1.896 0 3.438 1.542 3.438 3.438zm-3.438 9.67c.84 0 1.523-.683 1.523-1.523v-8.147c0-.84-.683-1.523-1.523-1.523h-21.187c-.84 0-1.523.683-1.523 1.523v8.147c0 .84.683 1.523 1.523 1.523h21.187z"/><path d="M184.938-9.791v8.147c0 1.896-1.542 3.438-3.438 3.438h-21.187c-1.896 0-3.438-1.542-3.438-3.438v-8.147c0-1.896 1.542-3.438 3.438-3.438H181.5c1.896 0 3.438 1.542 3.438 3.438zM181.5-.121c.84 0 1.523-.683 1.523-1.523v-8.147c0-.84-.683-1.523-1.523-1.523h-21.187c-.84 0-1.523.683-1.523 1.523v8.147c0 .84.683 1.523 1.523 1.523H181.5zm251.856 3.438v8.147c0 1.896-1.542 3.438-3.438 3.438h-21.187c-1.896 0-3.438-1.542-3.438-3.438V3.317c0-1.896 1.542-3.438 3.438-3.438h21.187c1.896 0 3.438 1.542 3.438 3.438zm-3.438 9.671c.84 0 1.523-.683 1.523-1.523V3.317c0-.84-.683-1.523-1.523-1.523h-21.187c-.84 0-1.523.683-1.523 1.523v8.147c0 .84.683 1.523 1.523 1.523h21.187z"/><path d="M407.208 3.317v8.147c0 1.896-1.542 3.438-3.438 3.438h-21.187c-1.896 0-3.438-1.542-3.438-3.438V3.317c0-1.896 1.542-3.438 3.438-3.438h21.187c1.896 0 3.438 1.542 3.438 3.438zm-3.438 9.671c.84 0 1.523-.683 1.523-1.523V3.317c0-.84-.683-1.523-1.523-1.523h-21.187c-.84 0-1.523.683-1.523 1.523v8.147c0 .84.683 1.523 1.523 1.523h21.187zM171.847 3.317v8.147c0 1.896-1.542 3.438-3.438 3.438h-21.187c-1.896 0-3.438-1.542-3.438-3.438V3.317c0-1.896 1.542-3.438 3.438-3.438h21.187c1.896 0 3.438 1.542 3.438 3.438zm-3.438 9.671c.84 0 1.523-.683 1.523-1.523V3.317c0-.84-.683-1.523-1.523-1.523h-21.187c-.84 0-1.523.683-1.523 1.523v8.147c0 .84.683 1.523 1.523 1.523h21.187z"/><path d="M381.032 3.317v8.147c0 1.896-1.542 3.438-3.438 3.438h-21.187c-1.895 0-3.437-1.542-3.437-3.438V3.317c0-1.896 1.542-3.438 3.437-3.438h21.187c1.896 0 3.438 1.542 3.438 3.438zm-3.437 9.671c.84 0 1.523-.683 1.523-1.523V3.317c0-.84-.683-1.523-1.523-1.523h-21.187c-.84 0-1.523.683-1.523 1.523v8.147c0 .84.683 1.523 1.523 1.523h21.187z"/><path d="M354.885 3.317v8.147c0 1.896-1.542 3.438-3.438 3.438H330.26c-1.896 0-3.438-1.542-3.438-3.438V3.317c0-1.896 1.542-3.438 3.438-3.438h21.187c1.896 0 3.438 1.542 3.438 3.438zm-3.438 9.671c.84 0 1.523-.683 1.523-1.523V3.317c0-.84-.683-1.523-1.523-1.523H330.26c-.84 0-1.523.683-1.523 1.523v8.147c0 .84.683 1.523 1.523 1.523h21.187z"/><path d="M328.732 3.317v8.147c0 1.896-1.542 3.438-3.437 3.438h-21.187c-1.896 0-3.438-1.542-3.438-3.438V3.317c0-1.896 1.542-3.438 3.438-3.438h21.187c1.895 0 3.437 1.542 3.437 3.438zm-3.438 9.671c.84 0 1.523-.683 1.523-1.523V3.317c0-.84-.683-1.523-1.523-1.523h-21.187c-.84 0-1.523.683-1.523 1.523v8.147c0 .84.683 1.523 1.523 1.523h21.187z"/><path d="M302.584 3.317v8.147c0 1.896-1.542 3.438-3.438 3.438h-21.187c-1.896 0-3.438-1.542-3.438-3.438V3.317c0-1.896 1.542-3.438 3.438-3.438h21.187c1.896 0 3.438 1.542 3.438 3.438zm-3.438 9.671c.84 0 1.523-.683 1.523-1.523V3.317c0-.84-.683-1.523-1.523-1.523h-21.187c-.84 0-1.523.683-1.523 1.523v8.147c0 .84.683 1.523 1.523 1.523h21.187z"/><path d="M276.409 3.317v8.147c0 1.896-1.542 3.438-3.438 3.438h-21.187c-1.896 0-3.438-1.542-3.438-3.438V3.317c0-1.896 1.542-3.438 3.438-3.438h21.187c1.896 0 3.438 1.542 3.438 3.438zm-3.438 9.671c.84 0 1.523-.683 1.523-1.523V3.317c0-.84-.683-1.523-1.523-1.523h-21.187c-.84 0-1.523.683-1.523 1.523v8.147c0 .84.683 1.523 1.523 1.523h21.187z"/><path d="M250.261 3.317v8.147c0 1.896-1.542 3.438-3.438 3.438h-21.187c-1.896 0-3.438-1.542-3.438-3.438V3.317c0-1.896 1.542-3.438 3.438-3.438h21.187c1.896 0 3.438 1.542 3.438 3.438zm-3.438 9.671c.84 0 1.523-.683 1.523-1.523V3.317c0-.84-.683-1.523-1.523-1.523h-21.187c-.84 0-1.523.683-1.523 1.523v8.147c0 .84.683 1.523 1.523 1.523h21.187z"/><path d="M224.143 3.317v8.147c0 1.896-1.542 3.438-3.438 3.438h-21.187c-1.896 0-3.438-1.542-3.438-3.438V3.317c0-1.896 1.542-3.438 3.438-3.438h21.187c1.896 0 3.438 1.542 3.438 3.438zm-3.438 9.671c.84 0 1.523-.683 1.523-1.523V3.317c0-.84-.683-1.523-1.523-1.523h-21.187c-.84 0-1.523.683-1.523 1.523v8.147c0 .84.683 1.523 1.523 1.523h21.187z"/><path d="M197.995 3.317v8.147c0 1.896-1.542 3.438-3.438 3.438H173.37c-1.896 0-3.438-1.542-3.438-3.438V3.317c0-1.896 1.542-3.438 3.438-3.438h21.187c1.896 0 3.438 1.542 3.438 3.438zm-3.438 9.671c.84 0 1.523-.683 1.523-1.523V3.317c0-.84-.683-1.523-1.523-1.523H173.37c-.84 0-1.523.683-1.523 1.523v8.147c0 .84.683 1.523 1.523 1.523h21.187zM681.812-9.791v8.147c0 1.896-1.542 3.438-3.438 3.438h-21.187c-1.896 0-3.438-1.542-3.438-3.438v-8.147c0-1.896 1.542-3.438 3.438-3.438h21.187c1.896 0 3.438 1.542 3.438 3.438zm-3.438 9.67c.84 0 1.523-.683 1.523-1.523v-8.147c0-.84-.683-1.523-1.523-1.523h-21.187c-.84 0-1.523.683-1.523 1.523v8.147c0 .84.683 1.523 1.523 1.523h21.187z"/><path d="M655.664-9.791v8.147c0 1.896-1.542 3.438-3.438 3.438h-21.187c-1.896 0-3.438-1.542-3.438-3.438v-8.147c0-1.896 1.542-3.438 3.438-3.438h21.187c1.896 0 3.438 1.542 3.438 3.438zm-3.438 9.67c.84 0 1.523-.683 1.523-1.523v-8.147c0-.84-.683-1.523-1.523-1.523h-21.187c-.84 0-1.523.683-1.523 1.523v8.147c0 .84.683 1.523 1.523 1.523h21.187z"/><path d="M629.489-9.791v8.147c0 1.896-1.542 3.438-3.438 3.438h-21.187c-1.896 0-3.438-1.542-3.438-3.438v-8.147c0-1.896 1.542-3.438 3.438-3.438h21.187c1.896 0 3.438 1.542 3.438 3.438zm-3.438 9.67c.84 0 1.523-.683 1.523-1.523v-8.147c0-.84-.683-1.523-1.523-1.523h-21.187c-.84 0-1.523.683-1.523 1.523v8.147c0 .84.683 1.523 1.523 1.523h21.187z"/><path d="M603.341-9.791v8.147c0 1.896-1.542 3.438-3.438 3.438h-21.187c-1.896 0-3.438-1.542-3.438-3.438v-8.147c0-1.896 1.542-3.438 3.438-3.438h21.187c1.896 0 3.438 1.542 3.438 3.438zm-3.438 9.67c.84 0 1.523-.683 1.523-1.523v-8.147c0-.84-.683-1.523-1.523-1.523h-21.187c-.84 0-1.523.683-1.523 1.523v8.147c0 .84.683 1.523 1.523 1.523h21.187z"/><path d="M577.188-9.791v8.147c0 1.896-1.542 3.438-3.438 3.438h-21.187c-1.896 0-3.438-1.542-3.438-3.438v-8.147c0-1.896 1.542-3.438 3.438-3.438h21.187c1.896 0 3.438 1.542 3.438 3.438zm-3.438 9.67c.84 0 1.523-.683 1.523-1.523v-8.147c0-.84-.683-1.523-1.523-1.523h-21.187c-.84 0-1.523.683-1.523 1.523v8.147c0 .84.683 1.523 1.523 1.523h21.187z"/><path d="M551.04-9.791v8.147c0 1.896-1.542 3.438-3.437 3.438h-21.187c-1.896 0-3.438-1.542-3.438-3.438v-8.147c0-1.896 1.542-3.438 3.438-3.438h21.187c1.895 0 3.437 1.542 3.437 3.438zm-3.437 9.67c.84 0 1.523-.683 1.523-1.523v-8.147c0-.84-.683-1.523-1.523-1.523h-21.187c-.84 0-1.523.683-1.523 1.523v8.147c0 .84.683 1.523 1.523 1.523h21.187z"/><path d="M524.865-9.791v8.147c0 1.896-1.542 3.438-3.438 3.438H500.24c-1.896 0-3.438-1.542-3.438-3.438v-8.147c0-1.896 1.542-3.438 3.438-3.438h21.187c1.896 0 3.438 1.542 3.438 3.438zm-3.438 9.67c.84 0 1.523-.683 1.523-1.523v-8.147c0-.84-.683-1.523-1.523-1.523H500.24c-.84 0-1.523.683-1.523 1.523v8.147c0 .84.683 1.523 1.523 1.523h21.187z"/><path d="M498.717-9.791v8.147c0 1.896-1.542 3.438-3.437 3.438h-21.187c-1.896 0-3.438-1.542-3.438-3.438v-8.147c0-1.896 1.542-3.438 3.438-3.438h21.187c1.895 0 3.437 1.542 3.437 3.438zm-3.438 9.67c.84 0 1.523-.683 1.523-1.523v-8.147c0-.84-.683-1.523-1.523-1.523h-21.187c-.84 0-1.523.683-1.523 1.523v8.147c0 .84.683 1.523 1.523 1.523h21.187z"/><path d="M472.6-9.791v8.147c0 1.896-1.542 3.438-3.438 3.438h-21.187c-1.896 0-3.438-1.542-3.438-3.438v-8.147c0-1.896 1.542-3.438 3.438-3.438h21.187c1.896 0 3.438 1.542 3.438 3.438zm-3.438 9.67c.84 0 1.523-.683 1.523-1.523v-8.147c0-.84-.683-1.523-1.523-1.523h-21.187c-.84 0-1.523.683-1.523 1.523v8.147c0 .84.683 1.523 1.523 1.523h21.187z"/><path d="M446.451-9.791v8.147c0 1.896-1.542 3.438-3.438 3.438h-21.187c-1.896 0-3.438-1.542-3.438-3.438v-8.147c0-1.896 1.542-3.438 3.438-3.438h21.187c1.896 0 3.438 1.542 3.438 3.438zm-3.437 9.67c.84 0 1.523-.683 1.523-1.523v-8.147c0-.84-.683-1.523-1.523-1.523h-21.187c-.84 0-1.523.683-1.523 1.523v8.147c0 .84.683 1.523 1.523 1.523h21.187zm251.855 3.438v8.147c0 1.896-1.542 3.438-3.438 3.438h-21.187c-1.896 0-3.438-1.542-3.438-3.438V3.317c0-1.896 1.542-3.438 3.438-3.438h21.187c1.896 0 3.438 1.542 3.438 3.438zm-3.438 9.671c.84 0 1.523-.683 1.523-1.523V3.317c0-.84-.683-1.523-1.523-1.523h-21.187c-.84 0-1.523.683-1.523 1.523v8.147c0 .84.683 1.523 1.523 1.523h21.187z"/><path d="M668.72 3.317v8.147c0 1.896-1.542 3.438-3.437 3.438h-21.187c-1.896 0-3.438-1.542-3.438-3.438V3.317c0-1.896 1.542-3.438 3.438-3.438h21.187c1.895 0 3.437 1.542 3.437 3.438zm-3.437 9.671c.84 0 1.523-.683 1.523-1.523V3.317c0-.84-.683-1.523-1.523-1.523h-21.187c-.84 0-1.523.683-1.523 1.523v8.147c0 .84.683 1.523 1.523 1.523h21.187zM433.36 3.317v8.147c0 1.896-1.542 3.438-3.438 3.438h-21.187c-1.896 0-3.438-1.542-3.438-3.438V3.317c0-1.896 1.542-3.438 3.438-3.438h21.187c1.896 0 3.438 1.542 3.438 3.438zm-3.438 9.671c.84 0 1.523-.683 1.523-1.523V3.317c0-.84-.683-1.523-1.523-1.523h-21.187c-.84 0-1.523.683-1.523 1.523v8.147c0 .84.683 1.523 1.523 1.523h21.187z"/><path d="M642.546 3.317v8.147c0 1.896-1.542 3.438-3.438 3.438h-21.187c-1.896 0-3.438-1.542-3.438-3.438V3.317c0-1.896 1.542-3.438 3.438-3.438h21.187c1.896 0 3.438 1.542 3.438 3.438zm-3.438 9.671c.84 0 1.523-.683 1.523-1.523V3.317c0-.84-.683-1.523-1.523-1.523h-21.187c-.84 0-1.523.683-1.523 1.523v8.147c0 .84.683 1.523 1.523 1.523h21.187z"/><path d="M616.397 3.317v8.147c0 1.896-1.542 3.438-3.438 3.438h-21.187c-1.896 0-3.438-1.542-3.438-3.438V3.317c0-1.896 1.542-3.438 3.438-3.438h21.187c1.896 0 3.438 1.542 3.438 3.438zm-3.438 9.671c.84 0 1.523-.683 1.523-1.523V3.317c0-.84-.683-1.523-1.523-1.523h-21.187c-.84 0-1.523.683-1.523 1.523v8.147c0 .84.683 1.523 1.523 1.523h21.187z"/><path d="M590.245 3.317v8.147c0 1.896-1.542 3.438-3.438 3.438H565.62c-1.895 0-3.437-1.542-3.437-3.438V3.317c0-1.896 1.542-3.438 3.437-3.438h21.187c1.896 0 3.438 1.542 3.438 3.438zm-3.438 9.671c.84 0 1.523-.683 1.523-1.523V3.317c0-.84-.683-1.523-1.523-1.523H565.62c-.84 0-1.523.683-1.523 1.523v8.147c0 .84.683 1.523 1.523 1.523h21.187z"/><path d="M564.097 3.317v8.147c0 1.896-1.542 3.438-3.438 3.438h-21.187c-1.896 0-3.438-1.542-3.438-3.438V3.317c0-1.896 1.542-3.438 3.438-3.438h21.187c1.896 0 3.438 1.542 3.438 3.438zm-3.438 9.671c.84 0 1.523-.683 1.523-1.523V3.317c0-.84-.683-1.523-1.523-1.523h-21.187c-.84 0-1.523.683-1.523 1.523v8.147c0 .84.683 1.523 1.523 1.523h21.187z"/><use href="#e"/><path d="M511.774 3.317v8.147c0 1.896-1.542 3.438-3.438 3.438h-21.187c-1.896 0-3.438-1.542-3.438-3.438V3.317c0-1.896 1.542-3.438 3.438-3.438h21.187c1.896 0 3.438 1.542 3.438 3.438zm-3.438 9.671c.84 0 1.523-.683 1.523-1.523V3.317c0-.84-.683-1.523-1.523-1.523h-21.187c-.84 0-1.523.683-1.523 1.523v8.147c0 .84.683 1.523 1.523 1.523h21.187z"/><path d="M485.656 3.317v8.147c0 1.896-1.542 3.438-3.438 3.438h-21.187c-1.896 0-3.438-1.542-3.438-3.438V3.317c0-1.896 1.542-3.438 3.438-3.438h21.187c1.896 0 3.438 1.542 3.438 3.438zm-3.437 9.671c.84 0 1.523-.683 1.523-1.523V3.317c0-.84-.683-1.523-1.523-1.523h-21.187c-.84 0-1.523.683-1.523 1.523v8.147c0 .84.683 1.523 1.523 1.523h21.187z"/><path d="M459.508 3.317v8.147c0 1.896-1.542 3.438-3.438 3.438h-21.187c-1.895 0-3.437-1.542-3.437-3.438V3.317c0-1.896 1.542-3.438 3.437-3.438h21.187c1.896 0 3.438 1.542 3.438 3.438zm-3.438 9.671c.84 0 1.523-.683 1.523-1.523V3.317c0-.84-.683-1.523-1.523-1.523h-21.187c-.84 0-1.523.683-1.523 1.523v8.147c0 .84.683 1.523 1.523 1.523h21.187zM760.271-9.791v8.147c0 1.896-1.542 3.438-3.438 3.438h-21.187c-1.896 0-3.438-1.542-3.438-3.438v-8.147c0-1.896 1.542-3.438 3.438-3.438h21.187c1.896 0 3.438 1.542 3.438 3.438zm-3.438 9.67c.84 0 1.523-.683 1.523-1.523v-8.147c0-.84-.683-1.523-1.523-1.523h-21.187c-.84 0-1.523.683-1.523 1.523v8.147c0 .84.683 1.523 1.523 1.523h21.187z"/><path d="M734.154-9.791v8.147c0 1.896-1.542 3.438-3.438 3.438h-21.187c-1.896 0-3.438-1.542-3.438-3.438v-8.147c0-1.896 1.542-3.438 3.438-3.438h21.187c1.896 0 3.438 1.542 3.438 3.438zm-3.438 9.67c.84 0 1.523-.683 1.523-1.523v-8.147c0-.84-.683-1.523-1.523-1.523h-21.187c-.84 0-1.523.683-1.523 1.523v8.147c0 .84.683 1.523 1.523 1.523h21.187z"/><path d="M708.005-9.791v8.147c0 1.896-1.542 3.438-3.438 3.438H683.38c-1.896 0-3.438-1.542-3.438-3.438v-8.147c0-1.896 1.542-3.438 3.438-3.438h21.187c1.896 0 3.438 1.542 3.438 3.438zm-3.438 9.67c.84 0 1.523-.683 1.523-1.523v-8.147c0-.84-.683-1.523-1.523-1.523H683.38c-.84 0-1.523.683-1.523 1.523v8.147c0 .84.683 1.523 1.523 1.523h21.187z"/><path d="M694.914 3.317v8.147c0 1.896-1.542 3.438-3.438 3.438h-21.187c-1.896 0-3.438-1.542-3.438-3.438V3.317c0-1.896 1.542-3.438 3.438-3.438h21.187c1.896 0 3.438 1.542 3.438 3.438zm-3.438 9.671c.84 0 1.523-.683 1.523-1.523V3.317c0-.84-.683-1.523-1.523-1.523h-21.187c-.84 0-1.523.683-1.523 1.523v8.147c0 .84.683 1.523 1.523 1.523h21.187zm55.734-9.671v8.147c0 1.896-1.542 3.438-3.438 3.438h-21.187c-1.896 0-3.438-1.542-3.438-3.438V3.317c0-1.896 1.542-3.438 3.438-3.438h21.187c1.896 0 3.438 1.542 3.438 3.438zm-3.438 9.671c.84 0 1.523-.683 1.523-1.523V3.317c0-.84-.683-1.523-1.523-1.523h-21.187c-.84 0-1.523.683-1.523 1.523v8.147c0 .84.683 1.523 1.523 1.523h21.187z"/><path d="M721.062 3.317v8.147c0 1.896-1.542 3.438-3.438 3.438h-21.187c-1.896 0-3.438-1.542-3.438-3.438V3.317c0-1.896 1.542-3.438 3.438-3.438h21.187c1.896 0 3.438 1.542 3.438 3.438zm-3.438 9.671c.84 0 1.523-.683 1.523-1.523V3.317c0-.84-.683-1.523-1.523-1.523h-21.187c-.84 0-1.523.683-1.523 1.523v8.147c0 .84.683 1.523 1.523 1.523h21.187z"/></g></g><g opacity=".331" fill="#00703a"><use href="#f"/><path d="M529 50.605c1.232 0 2.231-1 2.231-2.236v-4.667c0-1.236-.999-2.236-2.231-2.236s-2.231 1-2.231 2.236v4.667c0 1.236.999 2.236 2.231 2.236zm17.852 0c1.232 0 2.231-1 2.231-2.236v-4.667c0-1.236-.999-2.236-2.231-2.236s-2.231 1-2.231 2.236v4.667c0 1.236.999 2.236 2.231 2.236zm-33.669 18.479c1.232 0 2.231-1 2.231-2.236v-7.001c0-1.236-.999-2.236-2.231-2.236s-2.231 1-2.231 2.236v7.001c0 1.236.999 2.236 2.231 2.236zm-9.314 0c1.232 0 2.231-1 2.231-2.236v-4.669c0-1.236-.999-2.236-2.231-2.236s-2.231 1-2.231 2.236v4.669c0 1.236.999 2.236 2.231 2.236z"/><use href="#g"/><path d="M504.55 30.378c1.232 0 2.231-1 2.231-2.236v-7.001c0-1.236-.999-2.236-2.231-2.236s-2.231 1-2.231 2.236v7.001c0 1.236.999 2.236 2.231 2.236zm-9.315 0c1.232 0 2.231-1 2.231-2.236v-4.669c0-1.236-.999-2.236-2.231-2.236s-2.231 1-2.231 2.236v4.669c0 1.236.999 2.236 2.231 2.236zm17.853 0c1.232 0 2.231-1 2.231-2.236v-4.669c0-1.236-.999-2.236-2.231-2.236s-2.231 1-2.231 2.236v4.669c0 1.236.999 2.236 2.231 2.236z"/></g><g opacity=".35" fill="#f2b052"><circle cx="1453.937" cy="58.45" r="2.427" class="D"/><circle cx="1451.108" cy="49.351" r="2.427" class="D"/><circle cx="1458.814" cy="49.94" r="2.427" class="D"/><circle cx="1450.121" cy="29.538" r="2.427" class="D"/><circle cx="1436.572" cy="38.747" r="2.427" class="D"/></g><g opacity=".35" fill="#f2b052"><circle cx="1064.096" cy="55.519" r="2.427" class="D"/><circle cx="1061.268" cy="46.42" r="2.427" class="D"/><circle cx="1068.974" cy="47.009" r="2.427" class="D"/><circle cx="1060.28" cy="26.607" r="2.427" class="D"/><circle cx="1046.731" cy="35.816" r="2.427" class="D"/></g><path d="M1418.172,96.844c0-7.929-6.437-14.365-14.366-14.365h-87.642c-7.928,0-14.365,6.435-14.365,14.365s6.437,14.366,14.365,14.366h87.642c7.929,0,14.366-6.435,14.366-14.366Z" class="S"/><path d="M1302.554 39.302c.089-.029.093-.021.18-.046.186-.04.308-.008.521.003.672.086 1.355.557 1.872 1.272.165.106.254.258.341.41l.136.237 30.606 53.011-4.455-.015-29.486-51.07-.136-.237c-.132-.228-.269-.464-.318-.727-.31-.901-.293-1.767.103-2.333.116-.158.169-.245.32-.343l.155-.089c.083-.036.087-.028.161-.072z" fill="#fff"/><path d="M1343.924 43.578c-9.369-16.23-30.114-21.789-46.345-12.419s-21.787 30.116-12.418 46.347l58.764-33.929z" fill="#648eec"/><path d="M1349.409 87.946h47.608v17.883h-47.608z" fill="#5ec8a2"/><path d="M1372.913 69.439a2.36 2.36 0 0 0-1.664.692 2.33 2.33 0 0 0-.664 1.416h-.013v.134l-.011.116v2.417h.011v4.209h5.29v-4.209h9.389v4.209h5.29v-4.22a2.59 2.59 0 0 0 1.736-.753c.488-.489.766-1.152.766-1.85v-2.161h-20.128z" class="J"/><g fill="#7c4b81"><path d="M1377.425 82.388h6.348v6.877h-6.348zm-1.101 4.549h-1.974c-1.138 0-2.102.853-2.231 1.989l-1.403 12.345h-2.355v1.592h5.969v-.008h.186l1.809-15.918z"/></g><g fill="#965d9d"><path d="M1393.807 90.926a1.7 1.7 0 0 0 1.385-.709c.326-.438.414-1.01.247-1.536l-3.653-11.325-4.115.04 3.319 9.55h-7.561v3.98h10.378z"/><path d="M1386.416 74.208h-11.556c-1.502 0-2.723 1.22-2.723 2.723v.1h0c-1.509 0-2.733 1.224-2.733 2.733s1.223 2.733 2.733 2.733c.075 1.447 1.262 2.604 2.724 2.604h11.556c1.502 0 2.723-1.22 2.723-2.723v-5.447c0-1.504-1.222-2.723-2.723-2.723z"/></g><path d="M1388.88 86.951h-3.179l-10.128-.007h-1.219a2.25 2.25 0 0 0-2.232 1.993l-.406 3.577h3.433l-.729 9.572a1.82 1.82 0 0 0 .481 1.38c.347.376.833.587 1.341.587h8.789c.508 0 .994-.211 1.341-.587.345-.371.521-.873.48-1.38l-.843-11.084h2.871v-4.051z" fill="#e49636"/><path d="M1389.9 99.071l-.218-.377a2.17 2.17 0 0 0-2.963-.795l-9.147 5.281v-7.892a2.17 2.17 0 0 0-2.17-2.169h-.435c-.576 0-1.128.229-1.534.637a2.17 2.17 0 0 0-.636 1.532v10.271c-1.293.059-2.319 1.117-2.319 2.416v.359h6.982v2.087h.358c1.346 0 2.428-1.084 2.428-2.43v-.84l8.861-5.116a2.17 2.17 0 0 0 .793-2.963z" fill="#965d9d"/><g class="J"><use href="#h"/><path d="M1386.177 77.961a.46.46 0 0 0-.46-.465h-.926a.46.46 0 0 0-.465.465v3.036c0 .259.207.465.465.465h.926a.46.46 0 0 0 .46-.465v-3.036z"/></g><rect x="1196.818" y="84.975" width="4.116" height="19.372" rx="2.058" transform="matrix(.900691 .434461 -.434461 .900691 160.189 -511.469)" class="T"/><rect x="1174.659" y="89.811" width="4.116" height="19.372" rx="2.058" transform="matrix(.925983 -.377566 .377566 .925983 49.533 451.658)" class="O"/><path d="M1225.121,112.055c0-1.984-1.61-3.594-3.594-3.594h-64.684c-1.983,0-3.594,1.61-3.594,3.594s1.61,3.594,3.594,3.594h64.684c1.983,0,3.594-1.61,3.594-3.594Z" class="S"/><g fill="#eecc5d"><path d="M1117.838 108.56a3.26 3.26 0 0 1 2.843-1.659c1.177 0 2.264.633 2.843 1.659l5.017 8.888h-15.722l5.017-8.888z"/><use href="#i"/><path d="M1141.421 84.304c.58-1.027 1.667-1.659 2.843-1.659s2.264.633 2.843 1.659l5.017 8.888h-15.722l5.017-8.888zm-10.582 26.259a5.44 5.44 0 0 1 4.732-2.77 5.45 5.45 0 0 1 4.739 2.77l8.447 14.97h-26.372l8.454-14.97zm-54.472-25.107a5.44 5.44 0 0 1 8.771 0l8.801 12h-26.372l8.801-12z"/></g><path d="M1286.467,105.77c0-2.232-1.811-4.043-4.043-4.043h-17.326c-2.231,0-4.043,1.811-4.043,4.043s1.812,4.043,4.043,4.043h17.326c2.232,0,4.043-1.811,4.043-4.043Z" class="S"/><path d="M1278.524 91.006c3.933 2.271 5.28 7.3 3.009 11.233s-7.299 5.281-11.233 3.01-5.28-7.3-3.01-11.233 7.3-5.28 11.233-3.01z" fill="#8dd4cb"/><g clip-path="url(#C)"><path d="M1273.036 104.508a10.5 10.5 0 0 1-2.818.815c-.359-.915-.586-1.866-.68-2.825l.009-.017a10.62 10.62 0 0 1 1.621-6.755 10.61 10.61 0 0 1 4.578-3.961l.009-.016c.897-.404 1.852-.684 2.839-.825a10.59 10.59 0 0 1 .68 2.825l.003.027a10.62 10.62 0 0 1-1.621 6.75c-1.134 1.776-2.744 3.137-4.599 3.971l-.021.009z" fill="#6758c4"/></g><g fill="#fff"><path d="M1279.763 94.919a1.47 1.47 0 0 0-.686-.894c-.338-.195-.74-.248-1.117-.147h0a1.47 1.47 0 0 0-1.041 1.803l.515 1.923a1.47 1.47 0 0 0 .686.894c.338.195.74.248 1.117.147s.698-.348.894-.686a1.47 1.47 0 0 0 .147-1.117l-.515-1.922zm.428 5.353c-.074-.426-.479-.712-.905-.638h0c-.426.074-.712.479-.638.905.077.442.482.728.908.654a.78.78 0 0 0 .638-.905z" fill-opacity=".337"/></g><path d="M1166.564 87.335h4.81v3.901h-4.81z" fill="#e7b73e"/><path d="M1179.531,103.737c0-2.1-1.704-3.805-3.805-3.805h-11.257c-2.1,0-3.805,1.705-3.805,3.805s1.704,3.805,3.805,3.805h11.257c2.1,0,3.805-1.705,3.805-3.805Z" fill="#ec7662"/><path d="M1175.466,93.141c.162-1.542-.958-2.794-2.5-2.794h-7.94c-1.542,0-2.924,1.252-3.086,2.794l-.587,5.588c-.162,1.542.958,2.794,2.5,2.794h7.94c1.542,0,2.924-1.252,3.086-2.794l.587-5.588Z" fill="#5ecbb4"/><rect x="1165.541" y="89.811" width="4.116" height="19.372" rx="2.058" transform="matrix(.925983 -.377566 .377566 .925983 48.858 448.215)" class="O"/><path d="M1182.073 80.414l-2.813-.945-1.043-3.063c-.168-.494-.436-.93-.764-1.308 1.081-.354 2.301-.838 2.81-1.347a2.03 2.03 0 1 0-2.871-2.871c-.561.562-1.092 1.989-1.452 3.14a3.93 3.93 0 0 0-1.467-.294h-10.86c-.433 0-.852.071-1.246.202-.358-1.132-.874-2.495-1.42-3.041-.791-.791-2.074-.791-2.865 0a2.03 2.03 0 0 0 0 2.865c.477.477 1.581.931 2.607 1.277-.388.428-.693.939-.866 1.519l-.873 2.921-2.664.916c-1.701.584-2.843 2.185-2.843 3.985v.396c0 1.118.444 2.19 1.234 2.98a4.21 4.21 0 0 0 2.979 1.234h23.074a4.21 4.21 0 0 0 2.979-1.234c.79-.79 1.235-1.862 1.235-2.98v-.357c0-1.81-1.156-3.418-2.872-3.994z" class="J"/><path d="M1177.954 81.539a2.48 2.48 0 0 0-2.481-2.479h-12.108a2.48 2.48 0 0 0-2.481 2.479v4.96a2.48 2.48 0 0 0 2.481 2.479h12.108a2.48 2.48 0 0 0 2.481-2.479v-4.96z" class="O"/><g class="J"><path d="M1167.411 83.496c0-.22-.176-.395-.391-.395h-.786c-.22 0-.395.175-.395.395v2.579c0 .22.175.395.395.395h.786c.216 0 .391-.175.391-.395v-2.579zm8.756 0c0-.22-.175-.395-.39-.395h-.786c-.22 0-.396.175-.396.395v2.579c0 .22.175.395.396.395h.786c.215 0 .39-.175.39-.395v-2.579zm-12.249-6.144h11.459v4.331h-11.459z"/></g><circle cx="1160.21" cy="84.21" r="2.471" class="O"/><path d="M1204.752 82.841h4.81v3.902h-4.81z" class="T"/><path d="M1196.595 99.243c0-2.1 1.704-3.805 3.805-3.805h11.257a3.81 3.81 0 0 1 3.805 3.805c0 2.1-1.704 3.805-3.805 3.805H1200.4a3.81 3.81 0 0 1-3.805-3.805z" class="J"/><path d="M1200.66,88.648c-.162-1.542.958-2.794,2.5-2.794h7.94c1.542,0,2.924,1.252,3.086,2.794l.586,5.588c.162,1.542-.958,2.794-2.5,2.794h-7.94c-1.542,0-2.924-1.252-3.086-2.794l-.587-5.588Z" fill="#b84e20"/><path d="M1216.137 77.695c-.316 0-.617.065-.895.173v-1.674a2.77 2.77 0 0 0-2.765-2.765h-11.539a2.77 2.77 0 0 0-2.765 2.765v5.53c0 1.527 1.24 2.765 2.765 2.765h11.539c1.282 0 2.353-.88 2.665-2.066a2.45 2.45 0 0 0 .995.212 2.47 2.47 0 1 0 0-4.941z" fill="#f3b940"/><g class="J"><path d="M1208.716 79.003c0-.22.175-.396.391-.396h.786c.22 0 .395.176.395.396v2.578c0 .22-.175.395-.395.395h-.786c-.215 0-.391-.175-.391-.395v-2.578zm-8.757 0c0-.22.175-.396.391-.396h.786c.22 0 .395.176.395.396v2.578c0 .22-.175.395-.395.395h-.786c-.216 0-.391-.175-.391-.395v-2.578zm15.976-6.683c-.705-.705-1.66-1.1-2.656-1.1h-1.891c-.085-.773-.413-1.502-.969-2.057-.644-.644-1.517-1.006-2.428-1.006h-8.919v.473c0 .794.167 1.549.463 2.235-.515.25-.999.568-1.411.98-.976.976-1.524 2.299-1.524 3.68v2.721h7.372c1.5 0 2.938-.596 3.998-1.656.648-.648 1.098-1.446 1.369-2.304h.285v.586c0 1.648 1.335 2.983 2.983 2.983h4.429v-2.879c0-.996-.396-1.951-1.1-2.655z"/></g><rect x="1206.628" y="84.975" width="4.116" height="19.372" rx="2.058" transform="matrix(.900691 .434461 -.434461 .900691 161.163 -515.731)" class="T"/><path d="M1218.834 98.132h-2.695v1.669h-2.7v-1.894h-2.695v1.894h-2.692v-1.669h-2.695v1.669h-2.696l.003-13.345h-2.695v1.79h-2.7v-1.79h-2.695v1.79h-2.692v-1.79h-2.696v1.79h-.001v6.438h-2.691v-1.939h-2.696v1.939h-2.7v-1.939h-2.695l.005 7.183h-2.697v-1.796h-2.695v1.796h-2.7v-1.796h-2.696v1.796h-2.692v-1.796h-2.695l.001 14.374 56.602.002-.002-14.376z" fill="#e7b73e"/><path d="M1194.242 92.74h2.471v4.267h-2.471z" fill="#db9634"/><path d="M30.161-100.319H255.6v154.04H30.161z" class="U"/><g clip-path="url(#D)" class="C V"><path d="M54.163-100.319H9.06L80.096 60.398h45.946L54.163-100.319z" class="K"/></g><path d="M143.124-115.298L63.981-12.419l79.143,21.071v-123.951Z" class="C U"/><path d="M255.643 19.557H39.366V8.652h216.277z" fill="#3e8095" class="K"/><g clip-path="url(#E)" class="C V"><path style="mix-blend-mode:overlay" d="M165.688-149.806l-56.839.746L214.412 77.428l52.723-.407-101.447-226.827z" class="K"/><path d="M61.018-148.285H39.563l99.764 225.713h22.64L61.018-148.285zm-70.641 0h-21.455L68.687 77.428h22.639L-9.623-148.285z" class="K"/><path style="mix-blend-mode:overlay" d="M227.17-148.285h-21.455L305.48 77.428h22.639L227.17-148.285z" class="K"/></g><g fill="#8b46cc"><path d="M30.162 8.652h11.409v45.056H30.162zm142.715 0h11.409v45.056h-11.409zm-92.188 0h11.409v45.056H80.689zm163.545-144.668h11.409V53.708h-11.409z"/></g><path d="M30.161-13.881h225.497V8.647H30.161z" fill="#f4cc45"/><path d="M143.046-162.229h112.723V53.788H143.046" class="C U"/><g clip-path="url(#F)" class="C V"><path d="M222.203-162.976l-56.839.747L270.927 64.259l52.723-.408-101.447-226.827zm-107.644 1.522H93.104l99.765 225.713h22.639L114.559-161.454z" class="K"/></g><path d="M154.306-162.229v.012h33.834v-.012h11.26v.012h56.375v16.589H205.04V53.708h-11.26v-199.336h-39.474V53.708h-11.26v-215.937h11.26z" fill="#ec5b37" class="C"/><g class="B E F M N"><path d="M21.226 53.161h0"/><path d="M31.384 53.161h228.553" stroke-dasharray="0 10.158"/><path d="M265.016 53.161h0"/></g><path d="M603.342 17.307h104.813v42.804H603.342z" fill="#d1f7f0"/><path d="M603.342 17.307h104.813V30.8H603.342z" fill="#b8edfa"/><g fill="#41549f"><use href="#j"/><path d="M636.096 37.957h13.102v22.154h-13.102zm26.203 0h13.102v22.154h-13.102zm26.203 0h13.102v22.154h-13.102z"/></g><path d="M603.341 19.58h104.812v18.211H603.341z" fill="#d1f7f0"/><path d="M603.341 18.315h104.812v13.204H603.341z" fill="#b8edfa"/><path d="M597.034-127.79h117.118V20.673H597.034z" fill="#a0e360"/><g stroke="#a0e360" stroke-width="9.003" class="B E F"><path d="M714.151 20.673h0"/><path d="M705.142 20.673H601.538" stroke-dasharray="0 9.009"/><path d="M597.034 20.673h0"/><g stroke-dasharray="0 9.279"><path d="M597.034 11.395V-123.15m117.117 4.639V16.034"/></g></g><g fill="#61d2bf"><use href="#k"/><path d="M609.116-12.072h16.883v18.42h-16.883zm50.641 0h16.883v18.42h-16.883zm25.316 0h16.883v18.42h-16.883z"/></g><path d="M639.041,1.744h0c0,2.548-2.088,4.605-4.609,4.605h0c-2.549,0-4.609-2.057-4.609-4.605h0c0-2.547,2.06-4.605,4.609-4.605,2.521,0,4.609,2.058,4.609,4.605Z" fill="#a0e360"/><path d="M602.274 60.364l105.879-.839" class="E F M N Q R"/><path d="M276.065 25.485h18.181l4.927 44.959c.273 2.492-1.68 4.668-4.189 4.668h-19.747c-2.512 0-4.466-2.182-4.188-4.677l5.015-44.95z" fill="#6b4c46"/><g clip-path="url(#G)" class="C"><path d="M285.097 57.984l14.862-10.822c8.209-5.977 9.137-17.867 1.954-25.043l-5.199-5.195h-23.236l-5.199 5.195c-7.183 7.177-6.255 19.066 1.954 25.043l14.862 10.822z" fill="#594237"/></g><path d="M285.11 23.851c0 6.428-2.555 12.596-7.106 17.143s-10.723 7.1-17.16 7.1h-24.406V32.067c0-6.432 2.555-12.599 7.106-17.146a24.29 24.29 0 0 1 17.16-7.1h24.406v16.03z" fill="#abc02e" class="C"/><g clip-path="url(#H)"><path d="M285.11 7.821l-54.315 46.425h54.315V7.821z" class="C G"/><path d="M234.527 45.179l48.646-39.73 3.846 4.709-48.646 39.73z" class="W"/><g class="C"><g class="P"><path d="M256.718 50.72h6.084V40.495c0-1.678-1.363-3.039-3.042-3.039s-3.042 1.362-3.042 3.039V50.72zm12.168.45h6.084V30.994c0-1.678-1.36-3.036-3.039-3.036h-.006c-1.679 0-3.039 1.359-3.039 3.036V51.17z" class="L"/></g><g class="G"><path d="M236.438 31.055v-5.757h9.287c.764 0 1.497.304 2.038.845a2.88 2.88 0 0 1 .843 2.033h0a2.88 2.88 0 0 1-.843 2.036c-.542.541-1.275.842-2.038.842h-9.287zm0-11.836V13.14h18.255c1.679 0 3.039 1.359 3.039 3.036v.006c0 1.678-1.36 3.036-3.039 3.036h-18.255z" opacity=".75"/></g></g></g><path d="M285.11 23.851c0 6.428 2.555 12.596 7.106 17.143s10.723 7.1 17.16 7.1h24.406V32.067c0-6.432-2.555-12.599-7.106-17.146a24.29 24.29 0 0 0-17.16-7.1H285.11v16.03z" fill="#abc02e" class="C"/><g clip-path="url(#I)"><path d="M285.11 7.821l54.316 46.425H285.11V7.821z" class="C G"/><path d="M283.188 10.176l3.843-4.712 48.673 39.696-3.843 4.712z" class="W"/><g class="C"><g class="P"><path d="M313.503 50.72h-6.084V40.495c0-1.678 1.363-3.039 3.042-3.039s3.042 1.362 3.042 3.039V50.72zm-12.168.45h-6.084V30.997c0-.805.319-1.577.891-2.149a3.05 3.05 0 0 1 2.151-.891c.806 0 1.582.322 2.151.891s.891 1.343.891 2.149V51.17z" class="L"/></g><g class="G"><path d="M333.783 31.377v-6.079h-9.129c-.806 0-1.579.319-2.148.891a3.02 3.02 0 0 0-.891 2.146v.006c0 .805.319 1.577.891 2.149a3.04 3.04 0 0 0 2.148.888h9.129zm0-12.158V13.14h-18.252c-.806 0-1.582.322-2.151.891s-.891 1.343-.891 2.149a3.03 3.03 0 0 0 .891 2.149 3.04 3.04 0 0 0 2.151.891h18.252z" opacity=".75"/></g></g></g><path d="M285.097 48.094l14.578-10.615c8.052-5.863 8.962-17.524 1.917-24.563l-5.099-5.095h-22.79l-5.099 5.095c-7.045 7.039-6.135 18.7 1.917 24.563l14.578 10.615z" class="C W"/><g clip-path="url(#J)"><path d="M285.097 49.591h-22.999V5.976h22.999z" class="G"/><path d="M282.067 3.431h6.084v53.015h-6.084z" fill="#d6e23d"/><g class="L G"><use href="#l"/></g><g class="L P"><path d="M263.541,30.028c.57,0,1.149-.16,1.664-.499l12.362-8.105c1.406-.92,1.798-2.804.875-4.209-.919-1.399-2.792-1.801-4.211-.873l-12.362,8.105c-1.406.92-1.798,2.804-.875,4.209.582.888,1.557,1.371,2.547,1.371Z"/></g><path d="M306.681 43.888c.99 0 1.965-.483 2.547-1.371.923-1.405.531-3.289-.875-4.209l-12.366-8.105a3.04 3.04 0 0 0-4.211.873c-.923 1.405-.531 3.289.875 4.209l12.366 8.105c.515.338 1.093.499 1.664.499z" class="G L"/><g class="L P"><path d="M263.541,43.888c.57,0,1.149-.16,1.664-.499l12.362-8.105c1.406-.92,1.798-2.804.875-4.209-.919-1.399-2.792-1.801-4.211-.873l-12.362,8.105c-1.406.92-1.798,2.804-.875,4.209.582.888,1.557,1.371,2.547,1.371Z"/></g></g><path d="M260.397 75.112l49.428-.539" class="E F M N Q R"/><path d="M238.486,132.338l14.935-23.205-3.319-2.072-15.304,23.619v38.558h3.688v-36.901Z" fill="#fff"/><g clip-path="url(#K)"><path d="M229.136 127.985l2.785-6.017 12.785 5.918-2.785 6.017z" fill="#d0d6e2"/></g><path d="M285.667 134.565c11.835-20.498 4.816-46.695-15.682-58.53s-46.697-4.816-58.531 15.682l74.213 42.848z" fill="#f1b242"/><g clip-path="url(#L)"><path d="M240.335 148.739c-4.766 2.134-9.833 3.613-15.073 4.362a56.62 56.62 0 0 1-3.64-15.113l.05-.087c-1.219-12.462 1.692-25.21 8.671-36.133a56.78 56.78 0 0 1 24.49-21.189l.05-.087c4.797-2.161 9.906-3.657 15.186-4.412 1.918 4.892 3.133 9.982 3.64 15.113l.015.147c1.214 12.455-1.7 25.193-8.675 36.109-6.065 9.497-14.678 16.782-24.601 21.241l-.113.05z" fill="#ed9338"/></g><path d="M233.09 128.532h24.056v12.722H233.09z" fill="#0c1c1c"/><g fill="#e99a3b"><path d="M255.296,138.18c0-1.8-1.462-3.26-3.26-3.26h-13.835c-1.798,0-3.26,1.46-3.26,3.26v6.521c0,1.8,1.462,3.26,3.26,3.26h13.835c1.798,0,3.26-1.46,3.26-3.26v-6.521Z"/><path d="M230.086 153.226c-.638 1.105-2.054 1.485-3.16.846s-1.485-2.055-.847-3.16l5.466-9.467c.638-1.105 2.054-1.485 3.16-.847s1.485 2.055.847 3.16l-5.466 9.467zm29.684.077c.636 1.102 2.053 1.484 3.159.845s1.484-2.056.848-3.158l-5.514-9.55c-.636-1.102-2.053-1.483-3.159-.845s-1.484 2.056-.848 3.158l5.514 9.55z"/></g><g fill="#0c1c1c"><circle cx="239.108" cy="141.025" r="4.164"/><circle cx="251.137" cy="141.025" r="4.164"/><path d="M240.963 137.782h8.327v2.776h-8.327z"/></g><use href="#m" class="X"/><g clip-path="url(#M)" class="Y"><use href="#n" style="mix-blend-mode:multiply" class="H"/><path style="mix-blend-mode:multiply" d="M718.144 131.155h24.771v3.901h-24.771zm0-7.955h24.771v3.901h-24.771z" class="H"/><use href="#o" style="mix-blend-mode:multiply" class="H"/></g><path d="M718.309 124.365v78.841" class="B E F Z a"/><path d="M702.873,137.047l-18.717-13.096v66.791h19.678c1.568,0,2.816-1.332,2.734-2.92l-2.516-48.637c-.044-.859-.48-1.649-1.178-2.138Z" class="X"/><g clip-path="url(#N)" class="Y"><path style="mix-blend-mode:multiply" d="M683.845 139.11h24.771v3.901h-24.771zm0-7.955h24.771v3.901h-24.771zm0-7.955h24.771v3.901h-24.771z" class="H"/><path style="mix-blend-mode:multiply" d="M685.282 191.867h22.045v-57.431h-2.02l-20.025 57.431z" class="H"/></g><path d="M684.01 124.365v78.841" class="B E F Z a"/><path d="M668.402,137.047l-18.717-13.096v66.791h19.678c1.568,0,2.816-1.332,2.734-2.92l-2.516-48.637c-.044-.859-.48-1.649-1.178-2.138Z" class="X"/><g clip-path="url(#O)" class="Y"><path style="mix-blend-mode:multiply" d="M649.374 139.11h24.771v3.901h-24.771zm0-7.955h24.771v3.901h-24.771zm0-7.955h24.771v3.901h-24.771z" class="H"/><path style="mix-blend-mode:multiply" d="M650.811 191.867h22.045v-57.431h-2.02l-20.025 57.431z" class="H"/></g><path d="M649.539 124.365v78.841" class="B E F Z a"/><path d="M530.081 98.977c-.542-1.869.346-3.77 1.981-4.243s3.403.659 3.944 2.528l17.349 59.828-5.925 1.715-17.349-59.828z" fill="#3a4517" class="C"/><path d="M567.607 119.303a1.92 1.92 0 0 0 1.273-2.498c-5.245-14.314-20.768-22.324-35.643-18.018s-23.708 19.368-20.482 34.266c.235 1.083 1.347 1.739 2.413 1.431l52.439-15.181z" fill="#0000b7"/><path d="M556.921 122.396c-4.501-15.523-15.105-26.093-23.684-23.609s-11.884 17.08-7.383 32.603l31.066-8.994z" fill="#8b46cc"/><path d="M624.868,76.797c.542-1.869-.346-3.77-1.981-4.243s-3.403.659-3.944,2.528l-17.349,59.828,5.925,1.715,17.349-59.828Z" fill="#3a4517" class="C"/><path d="M587.342 97.123a1.92 1.92 0 0 1-1.273-2.498c5.245-14.314 20.768-22.324 35.643-18.018s23.708 19.368 20.482 34.266c-.235 1.083-1.347 1.739-2.413 1.431l-52.439-15.181z" fill="#ec5b37"/><path d="M598.028 100.216c4.501-15.523 15.105-26.093 23.684-23.609s11.884 17.08 7.383 32.603l-31.066-8.994z" fill="#f8d748"/><g fill="#fbed97"><rect x="600.022" y="132.386" width="4.455" height="6.677" rx="2.227" transform="matrix(.960561 .278069 -.278069 .960561 61.495 -162.119)"/><rect x="604.301" y="133.625" width="4.455" height="6.677" rx="2.227" transform="matrix(.960556 .278086 -.278086 .960556 62.01 -163.262)"/></g><g class="C"><path d="M191.132 92.091a6.12 6.12 0 0 0-6.12-6.115h-31.488a6.12 6.12 0 0 0-6.12 6.115v5.388a6.12 6.12 0 0 0 6.12 6.115h31.488a6.12 6.12 0 0 0 6.12-6.115v-5.388z" fill="#409058" opacity=".35"/><path d="M191.132 78.707c0-1.063-.422-2.082-1.174-2.833s-1.772-1.174-2.836-1.174h-8.873c-.77 0-1.495-.362-1.956-.977l-2.89-3.85a2.03 2.03 0 0 0-1.622-.811h-16.349a2.03 2.03 0 0 0-1.584.761l-5.033 6.286v13.892a5.99 5.99 0 0 0 .809 3.006l3.584 6.177c.774 1.333 2.199 2.154 3.741 2.154h24.78l9.404-9.396V78.707z" fill="#a39c86"/></g><g clip-path="url(#P)" fill="#b5ae99" class="C"><path d="M172.794 62.016h-23.98v23.96h19.576c2.433 0 4.405-1.97 4.405-4.401V62.016zm28.212 5.638h-23.98v20.519c0 1.9 1.542 3.44 3.443 3.44h20.537v-23.96z"/></g><path d="M161.51 80.48c0-.412-.163-.806-.455-1.097a1.55 1.55 0 0 0-1.098-.454h-5.358a1.55 1.55 0 0 0-1.098.454c-.291.291-.455.686-.455 1.097v1.125a1.55 1.55 0 0 0 1.553 1.551h5.358a1.55 1.55 0 0 0 1.098-.454c.291-.291.455-.686.455-1.097V80.48z" fill="#706b5b" opacity=".581" class="C"/><path d="M163.061 94.432h15.233c.857 0 1.553.696 1.553 1.553v1.124a1.55 1.55 0 0 1-1.551 1.551h-15.234c-.857 0-1.553-.696-1.553-1.553v-1.124a1.55 1.55 0 0 1 1.551-1.551z" fill="#7d7765" opacity=".581"/></g></svg>