<svg xmlns="http://www.w3.org/2000/svg" width="1500" height="145" xmlns:v="https://vecta.io/nano"><style><![CDATA[.B{fill-rule:evenodd}.C{fill:none}.D{opacity:.5}.E{clip-rule:evenodd}.F{fill:#839d24}.G{stroke-linejoin:round}.H{fill:#4d7c3d}.I{opacity:.75}.J{stroke-linecap:round}.K{fill:#bdd033}.L{fill:#fff}.M{fill:#839c2f}.N{fill:#abc02e}.O{fill:#8dd6f9}.P{fill:#361136}.Q{fill:#551851}.R{stroke-width:10}.S{stroke:#fff}.T{fill:#4e7b3f}.U{fill:#6b4c46}.V{stroke-width:18.747}.W{fill:#bdce42}.X{fill:#f6e658}.Y{fill:#594237}.Z{fill:#d6e23d}.a{stroke:#c9bccf}.b{stroke-width:2.812}.c{stroke-dasharray:0 10}]]></style><defs><clipPath id="A"><path d="M0 0h1500v145H0z" class="C"/></clipPath><clipPath id="B"><path d="M855.883 101.152c12.773 0 23.123 10.088 23.123 22.531v28.33c0 12.443-10.35 22.529-23.123 22.529h-14.165c-7.467 0-14.525 3.36-19.111 9.102l-8.384 10.516c-4.585 5.742-11.643 9.1-19.111 9.1H735.16c-9.187 0-16.638-7.254-16.638-16.205v-14.627c0-5.787-2.358-11.336-6.55-15.426-4.209-4.092-9.907-6.391-15.835-6.391h-2.047c-6.55 0-12.822-2.534-17.457-7.045s-7.238-10.63-7.238-17.011v-1.345c0-13.285 11.054-24.058 24.695-24.058h161.793z" class="C E"/></clipPath><clipPath id="C"><path d="M976.213 38.688h22.918l6.211 69.687a5.31 5.31 0 0 1-5.28 5.885H975.17a5.31 5.31 0 0 1-5.279-5.895l6.322-69.676z" class="C"/></clipPath><clipPath id="D"><path d="M987.615 36.629c0 8.104-3.221 15.878-8.958 21.61a30.6 30.6 0 0 1-21.632 8.95h-30.766V46.986a30.55 30.55 0 0 1 8.958-21.613 30.62 30.62 0 0 1 21.632-8.95h30.766V36.63z" class="C E"/></clipPath><clipPath id="E"><path d="M987.615 36.629c0 8.104 3.221 15.878 8.958 21.61a30.6 30.6 0 0 0 21.632 8.95h30.766V46.986a30.55 30.55 0 0 0-8.958-21.613 30.62 30.62 0 0 0-21.632-8.95h-30.766V36.63z" class="C E"/></clipPath><clipPath id="F"><path d="M987.598 67.189l18.376-13.381c10.15-7.391 11.297-22.091 2.416-30.964l-6.428-6.423h-28.729l-6.428 6.423c-8.881 8.873-7.734 23.573 2.416 30.964l18.376 13.381z" class="C E"/></clipPath><clipPath id="G"><path d="M598.062 115.669h18.181l4.927 44.959c.273 2.492-1.68 4.668-4.189 4.668h-19.747c-2.512 0-4.466-2.182-4.188-4.677l5.015-44.95z" class="C"/></clipPath><clipPath id="H"><path d="M607.107 114.035c0 6.428-2.555 12.596-7.106 17.143s-10.723 7.1-17.16 7.1h-24.406v-16.027c0-6.432 2.555-12.599 7.106-17.146a24.29 24.29 0 0 1 17.16-7.1h24.406v16.03z" class="C E"/></clipPath><clipPath id="I"><path d="M607.107 114.035c0 6.428 2.555 12.596 7.106 17.143s10.723 7.1 17.16 7.1h24.406v-16.027c0-6.432-2.555-12.599-7.106-17.146a24.29 24.29 0 0 0-17.16-7.1h-24.406v16.03z" class="C E"/></clipPath><clipPath id="J"><path d="M607.094 138.278l14.578-10.615c8.052-5.863 8.962-17.524 1.917-24.563l-5.099-5.095H595.7l-5.099 5.095c-7.045 7.039-6.135 18.7 1.917 24.563l14.578 10.615z" class="C E"/></clipPath><clipPath id="K"><path d="M308.292 133.046h18.181l4.927 44.959c.273 2.492-1.68 4.668-4.189 4.668h-19.747c-2.512 0-4.466-2.182-4.188-4.677l5.015-44.95z" class="C"/></clipPath><clipPath id="L"><path d="M317.337 131.412c0 6.428-2.555 12.596-7.106 17.143s-10.723 7.1-17.16 7.1h-24.406v-16.027c0-6.432 2.555-12.599 7.106-17.146a24.29 24.29 0 0 1 17.16-7.1h24.406v16.03z" class="C E"/></clipPath><clipPath id="M"><path d="M317.337 131.412c0 6.428 2.555 12.596 7.106 17.143s10.723 7.1 17.16 7.1h24.406v-16.027c0-6.432-2.555-12.599-7.106-17.146a24.29 24.29 0 0 0-17.16-7.1h-24.406v16.03z" class="C E"/></clipPath><clipPath id="N"><path d="M317.324 155.654l14.578-10.615c8.052-5.863 8.962-17.524 1.917-24.563l-5.099-5.095h-22.79l-5.099 5.095c-7.045 7.039-6.135 18.7 1.917 24.563l14.578 10.615z" class="C E"/></clipPath><clipPath id="O"><path d="M111.121 64.127a28.52 28.52 0 0 0-25.744-16.236h-.002c-3.052 0-5.527 2.472-5.527 5.522v18.358l34.673-.515-3.401-7.13z" class="C E"/></clipPath><clipPath id="P"><path d="M182.554 90.872a7.19 7.19 0 0 0 6.198-3.545 7.18 7.18 0 0 0 .082-7.136l-17.231-30.893c-4.386-7.863-12.689-12.737-21.698-12.737h-18.393c-2.073 0-4.009 1.037-5.155 2.763a6.18 6.18 0 0 0-.546 5.82l19.296 45.727h37.447z" class="C E"/></clipPath><clipPath id="Q"><path d="M79.849 90.323v-19.67h117.217a91.7 91.7 0 0 1 56.585 19.537l1.223.959c2.96 2.321 4.69 5.873 4.69 9.633v2.493c0 1.993-1.42 3.704-3.38 4.073-24.569 4.629-49.514 6.962-74.514 6.969l-50.688.013c-19.772.005-38.517-8.796-51.133-24.006z" class="C E"/></clipPath><clipPath id="R"><path d="M169.707 94.285h15.516v20.052h-15.516z" class="C"/></clipPath><clipPath id="S"><path d="M69.542 67.407h203.931V99.51H69.542z" class="C"/></clipPath><clipPath id="T"><path d="M248.164 78.348h-28.643c-2.219 0-4.017 1.797-4.017 4.014h0c0 1.065.423 2.086 1.177 2.838s1.775 1.176 2.84 1.176h30.612l-1.969-8.028z" class="C E"/></clipPath><clipPath id="U"><path d="M185.735 81.665a3.32 3.32 0 0 0-6.64 0v1.876a3.32 3.32 0 0 0 6.64 0v-1.876z" class="C E"/></clipPath><clipPath id="V"><rect x="165.342" y="78.348" width="6.639" height="8.51" rx="3.317" class="C"/></clipPath><clipPath id="W"><rect x="151.589" y="78.348" width="6.64" height="8.51" rx="3.317" class="C"/></clipPath><clipPath id="X"><rect x="137.836" y="78.348" width="6.64" height="8.51" rx="3.317" class="C"/></clipPath><clipPath id="Y"><path d="M106.189 89.959c.82 0 1.578.434 1.994 1.14a2.31 2.31 0 0 1 .026 2.295l-.208.373c-5.484 9.832-15.866 15.926-27.131 15.926h-.003a5.97 5.97 0 0 1-4.948-2.629 5.96 5.96 0 0 1-.585-5.569l4.669-11.536h26.186z" class="C E"/></clipPath><clipPath id="Z"><path d="M208.403 137.44c2.935 1.54 4.525 4.952 3.57 8.36-.483 1.725-1.675 3.162-3.176 4.142l-23.549 15.375a24.86 24.86 0 0 1-25.138 1.195l-16.274-8.539c-1.106-.58-2.079-1.432-2.674-2.529-1.473-2.717-.765-5.89 1.411-7.733l29.654-25.107a5.88 5.88 0 0 1 6.538-.714l29.637 15.551z" class="C E"/></clipPath><clipPath id="a"><path d="M76.586 109.042h18.181l4.927 44.959c.273 2.492-1.68 4.668-4.189 4.668H75.758c-2.512 0-4.466-2.182-4.188-4.677l5.015-44.95z" class="C"/></clipPath><clipPath id="b"><path d="M85.632 107.408c0 6.428-2.555 12.596-7.106 17.143s-10.723 7.1-17.16 7.1H36.96v-16.027c0-6.432 2.555-12.599 7.106-17.146a24.29 24.29 0 0 1 17.16-7.1h24.406v16.03z" class="C E"/></clipPath><clipPath id="c"><path d="M85.632 107.408c0 6.428 2.555 12.596 7.106 17.143s10.723 7.1 17.16 7.1h24.406v-16.027c0-6.432-2.555-12.599-7.106-17.146a24.29 24.29 0 0 0-17.16-7.1H85.632v16.03z" class="C E"/></clipPath><clipPath id="d"><path d="M85.618 131.65l14.578-10.615c8.052-5.863 8.962-17.524 1.917-24.563l-5.099-5.095h-22.79l-5.099 5.095c-7.045 7.039-6.135 18.7 1.917 24.563L85.62 131.65z" class="C E"/></clipPath><clipPath id="e"><path d="M152.358 497.439a6.34 6.34 0 0 1-4.677-2.059 6.33 6.33 0 0 1-1.637-4.838l23.823-266.785c.465-5.207 4.828-9.165 10.06-9.165h21.874a10.1 10.1 0 0 1 10.068 9.256l4.279 51.31h15.559a7.5 7.5 0 0 1 6.719 4.141l7.035 14.058c.657 1.312 1.038 2.745 1.119 4.21l4.928 88.628 27.528 7.858a10.79 10.79 0 0 1 7.831 10.38v86.672c0 1.68-.668 3.291-1.857 4.478a6.34 6.34 0 0 1-4.482 1.855H152.357z" class="C E"/></clipPath><path id="f" d="M855.883 101.152c12.773 0 23.123 10.088 23.123 22.531v28.33c0 12.443-10.35 22.529-23.123 22.529h-14.165c-7.467 0-14.525 3.36-19.111 9.102l-8.384 10.516c-4.585 5.742-11.643 9.1-19.111 9.1H735.16c-9.187 0-16.638-7.254-16.638-16.205v-14.627c0-5.787-2.358-11.336-6.55-15.426-4.209-4.092-9.907-6.391-15.835-6.391h-2.047c-6.55 0-12.822-2.534-17.457-7.045s-7.238-10.63-7.238-17.011v-1.345c0-13.285 11.054-24.058 24.695-24.058h161.793z"/><path id="g" d="M1127.559,72.035c-1.232,0-2.231-1-2.231-2.236v-4.667c0-1.236.999-2.236,2.231-2.236s2.231,1,2.231,2.236v4.667c0,1.236-.999,2.236-2.231,2.236Z"/><path id="h" d="M1143.376 90.514c-1.232 0-2.231-1-2.231-2.236v-7.001c0-1.236.999-2.236 2.231-2.236s2.231 1 2.231 2.236v7.001c0 1.236-.999 2.236-2.231 2.236z"/><path id="i" d="M1161.324,51.808c-1.232,0-2.231-1-2.231-2.236v-4.669c0-1.236.999-2.236,2.231-2.236s2.231,1,2.231,2.236v4.669c0,1.236-.999,2.236-2.231,2.236Z"/><path id="j" d="M1014.806 44.415c1.248 0 2.477-.609 3.211-1.729a3.83 3.83 0 0 0-1.103-5.306l-15.589-10.217c-1.773-1.167-4.149-.664-5.308 1.1a3.83 3.83 0 0 0 1.103 5.306l15.589 10.217a3.8 3.8 0 0 0 2.097.629z"/><path id="k" d="M649.015 40.602a3.09 3.09 0 0 0-.906-2.188c-.582-.582-1.369-.908-2.19-.908s-1.608.326-2.19.908-.906 1.367-.906 2.188v11.355h6.193V40.602z"/><path id="l" d="M598.062 115.669h18.181l4.927 44.959c.273 2.492-1.68 4.668-4.189 4.668h-19.747c-2.512 0-4.466-2.182-4.188-4.677l5.015-44.95z"/><path id="m" d="M607.094 148.168l14.862-10.822c8.209-5.977 9.137-17.867 1.954-25.043l-5.199-5.195h-23.236l-5.199 5.195c-7.183 7.177-6.255 19.066 1.954 25.043l14.862 10.822z"/><path id="n" d="M607.107 114.035c0 6.428-2.555 12.596-7.106 17.143s-10.723 7.1-17.16 7.1h-24.406v-16.027c0-6.432 2.555-12.599 7.106-17.146a24.29 24.29 0 0 1 17.16-7.1h24.406v16.03z"/><path id="o" d="M556.523 135.359l48.646-39.73 3.846 4.709-48.646 39.73z"/><path id="p" d="M578.715 140.904h6.084v-10.225c0-1.678-1.363-3.039-3.042-3.039s-3.042 1.362-3.042 3.039v10.225z"/><path id="q" d="M590.883 141.354h6.084v-20.176c0-1.678-1.36-3.036-3.039-3.036h-.006c-1.679 0-3.039 1.359-3.039 3.036v20.176z"/><path id="r" d="M558.435 121.239v-5.757h9.287c.764 0 1.497.304 2.038.845a2.88 2.88 0 0 1 .843 2.033h0a2.88 2.88 0 0 1-.843 2.036c-.542.541-1.275.842-2.038.842h-9.287z"/><path id="s" d="M558.435 109.403v-6.079h18.255c1.679 0 3.039 1.359 3.039 3.036v.006c0 1.678-1.36 3.036-3.039 3.036h-18.255z"/><path id="t" d="M607.107 114.035c0 6.428 2.555 12.596 7.106 17.143s10.723 7.1 17.16 7.1h24.406v-16.027c0-6.432-2.555-12.599-7.106-17.146a24.29 24.29 0 0 0-17.16-7.1h-24.406v16.03z"/><path id="u" d="M605.183 100.358l3.843-4.712 48.673 39.696-3.843 4.712z"/><path id="v" d="M635.5 140.904h-6.084v-10.225c0-1.678 1.363-3.039 3.042-3.039s3.042 1.362 3.042 3.039v10.225z"/><path id="w" d="M623.332 141.354h-6.084v-20.173c0-.805.319-1.577.891-2.149a3.05 3.05 0 0 1 2.151-.891c.806 0 1.582.322 2.151.891s.891 1.343.891 2.149v20.173z"/><path id="x" d="M655.78 121.561v-6.079h-9.129c-.806 0-1.579.319-2.148.891a3.02 3.02 0 0 0-.891 2.146v.006c0 .805.319 1.577.891 2.149a3.04 3.04 0 0 0 2.148.888h9.129z"/><path id="y" d="M655.78 109.403v-6.079h-18.252c-.806 0-1.582.322-2.151.891s-.891 1.343-.891 2.149a3.03 3.03 0 0 0 .891 2.149 3.04 3.04 0 0 0 2.151.891h18.252z"/><path id="z" d="M628.678 120.212c.99 0 1.965-.483 2.547-1.371.923-1.405.531-3.289-.875-4.209l-12.366-8.105a3.04 3.04 0 0 0-4.211.873c-.923 1.405-.531 3.289.875 4.209l12.366 8.105c.515.338 1.093.499 1.664.499z"/><path id="AA" d="M252.213 85.008h14.702v36.979h-14.702z"/><path id="AB" d="M168.662 74.846l-3.624 3.613 7.588 7.564 3.624-3.613-7.588-7.564z"/></defs><g clip-path="url(#A)"><path d="M-10.125-984.564h1520.249v4049.482H-10.125z" fill="#61d1d5"/><path d="M1209.742-293.582c-76.136 0-138.076 61.941-138.076 138.077 0 9.374-7.626 17-17 17H948.403c-9.374 0-17-7.626-17-17v-2.009c0-36.943-30.057-67-67-67h-75.775c-41.992 0-76.156-34.163-76.156-76.156v-85.988c0-34.188-27.813-62-62-62H505.54c-34.187 0-62 27.812-62 62v1.583c0 6.616-5.383 12-12 12h-77.199c-41.355 0-75 33.645-75 75v1.615c0 6.616-5.383 12-12 12H-56.875v1900.227h125.29c19.299 0 35 15.701 35 35v28.562c0 46.869 38.131 85 85 85h282.678c46.869 0 85-38.131 85-85v-4.012c0-19.299 15.701-35 35-35h100.898c106.145 0 192.5-86.354 192.5-192.5 0-13.785 11.215-25 25-25h189.302c13.785 0 25 11.215 25 25v6.941c0 13.785-11.215 25-25 25h-1.646c-41.355 0-75 33.646-75 75.001v134.569c0 41.355 33.645 75 75 75h68.108c41.355 0 75-33.645 75-75 0-34.095 27.737-61.833 61.832-61.833h254.837V-293.582h-347.181z" fill="#7ee6e4"/><path d="M1045.191 281.028h0c0-51.28 41.571-92.851 92.85-92.851h57.665c32.387 0 58.642-26.255 58.642-58.642h0c0-32.387 26.255-58.642 58.642-58.642h218.932v-339.474h-322.181c-62.45 0-113.076 50.626-113.076 113.076h0c0 23.196-18.804 42-42 42H948.403c-23.196 0-42-18.804-42-42v-2.009c0-23.196-18.804-42-42-42h-75.776c-55.867 0-101.156-45.289-101.156-101.156v-85.988c0-20.435-16.565-37-37-37H505.539c-20.435 0-37 16.565-37 37v1.583c0 20.435-16.565 37-37 37H354.34c-27.614 0-50 22.386-50 50v1.615c0 20.435-16.565 37-37 37H-31.875v1850.227H68.414c33.137 0 60 26.863 60 60v28.561c0 33.137 26.863 60 60 60h282.678c33.137 0 60-26.863 60-60v-4.011c0-33.137 26.863-60 60-60H691.99c92.508 0 167.5-74.992 167.5-167.5h0c0-27.614 22.386-50 50-50h189.302c27.614 0 50 22.386 50 50v6.942c0 27.614-22.386 50-50 50h-1.647c-27.614 0-50 22.386-50 50v134.57c0 27.614 22.386 50 50 50h68.108c27.614 0 50-22.386 50-50h0c0-47.956 38.876-86.832 86.832-86.832h229.837V1274.46c0-39.064-31.668-70.732-70.732-70.732h-323.15c-50.932 0-92.285-41.008-92.845-91.807l-.006-830.892z" fill="#fbed97"/><path d="M1209.742-208.581c-29.313 0-53.076 23.763-53.076 53.076h0c0 56.333-45.667 102-102 102H701.078c-40.652 0-73.606-32.955-73.606-73.606v-210.547c0-14.359-11.641-26-26-26H545.03c-10.394 0-19.895 6.146-23.89 15.742-14.612 35.099-49.272 59.841-89.6 59.841h-46.653c-11.17 0-21.157 7.295-24.204 18.042-11.534 40.685-49.013 70.574-93.342 70.574H-1.979l-11.374 1742.34 115.314-.491c49.895 14.55 86.454 60.7 86.454 115.229v.695c.001 13.259 10.754 24.004 24.013 23.997l236.679-.131c11.698-.007 21.708-8.443 23.64-19.98 9.508-56.77 58.875-100.032 118.346-100.032h100.898c59.37 0 107.5-48.129 107.5-107.5h0c0-60.752 49.249-110 110-110h189.003c21.384 0 38.798-17.186 39.08-38.568h0c.246-18.686-12.768-34.942-31.062-38.758-28.801-6.009-55.263-20.244-76.552-41.532-28.243-28.244-44.073-65.595-44.746-105.431-.015-.883-.022-838.466-.022-839.351 0-40.828 15.899-79.212 44.769-108.081s67.254-44.769 108.082-44.769h28.622c14.589 0 27.327-10.069 30.48-24.313 11.76-53.123 59.237-92.972 115.846-92.972h312.76v-219.474h-416.008z" fill="#62c244"/><g stroke="#62c244" class="C G J R"><path d="M-2.045-189.447l-11.276 1727.321" stroke-dasharray="0 10.014"/><path d="M-3.347 1542.838l105.307-.449c49.895 14.55 86.454 60.7 86.454 115.229v.695c.001 13.259 10.754 24.004 24.013 23.997l236.679-.131c11.698-.007 21.708-8.443 23.64-19.98 9.508-56.77 58.875-100.032 118.346-100.032H691.99c59.37 0 107.5-48.129 107.5-107.5h0c0-60.751 49.249-110 110-110h189.003c21.384 0 38.798-17.186 39.08-38.568.246-18.686-12.768-34.942-31.062-38.758-28.801-6.009-55.263-20.244-76.552-41.532-28.243-28.244-44.073-65.594-44.746-105.431-.015-.882-.022-838.466-.022-839.351 0-40.828 15.899-79.212 44.769-108.081s67.254-44.769 108.082-44.769h28.623c14.589 0 27.327-10.069 30.48-24.313 11.76-53.123 59.237-92.972 115.846-92.972h307.757" stroke-dasharray="0 10.007"/></g><path d="M914.223 121.781v250.57c0 30.12-24.417 54.537-54.537 54.537h-80.08c-29.292 0-53.038 23.746-53.038 53.038v153.905c0 29.292-23.746 53.038-53.038 53.038H490.044c-37.785 0-68.416 30.631-68.416 68.416h0c0 37.785-30.631 68.416-68.416 68.416h-33.231c-37.785 0-68.416-30.631-68.416-68.416v-84.054c0-37.785-30.631-68.416-68.416-68.416H5.265c-15.114 0-27.366-12.252-27.366-27.366v-713.411h290.764c35.899 0 65 29.101 65 65v20.473c0 35.899 29.101 65 65 65h257.533c15.114 0 27.366 12.252 27.366 27.366h0c0 15.114 12.252 27.366 27.366 27.366h148.757c30.12 0 54.537 24.417 54.537 54.537z" fill="#52ab35"/><path d="M-12.116-137.962h280.778c35.898 0 65 29.101 65 65v20.473c0 35.898 29.101 65 65 65h257.533c15.114 0 27.366 12.252 27.366 27.366s12.252 27.366 27.366 27.366h148.757c30.12 0 54.537 24.417 54.537 54.537v250.57c0 30.12-24.417 54.537-54.537 54.537h-80.08c-29.292 0-53.038 23.746-53.038 53.038V633.83c0 29.292-23.746 53.038-53.038 53.038H490.042c-37.785 0-68.416 30.631-68.416 68.416S390.995 823.7 353.21 823.7h-33.231c-37.785 0-68.416-30.631-68.416-68.416V671.23c0-37.785-30.631-68.416-68.416-68.416H5.265c-15.114 0-27.366-12.252-27.366-27.366v-708.417" stroke="#52ab35" stroke-dasharray="0 9.986" class="C G J R"/><g clip-path="url(#B)" class="B"><use href="#f" fill="#5fcdc5"/><path d="M855.883 109.45c12.773 0 23.123 10.088 23.123 22.531v28.33c0 12.443-10.35 22.529-23.123 22.529h-14.165c-7.467 0-14.525 3.36-19.111 9.102l-8.384 10.516c-4.585 5.742-11.643 9.1-19.111 9.1H735.16c-9.187 0-16.638-7.254-16.638-16.205v-14.627c0-5.787-2.358-11.336-6.55-15.426-4.209-4.092-9.907-6.391-15.835-6.391h-2.047c-6.55 0-12.822-2.534-17.457-7.045s-7.238-10.63-7.238-17.011v-1.345c0-13.285 11.054-24.058 24.695-24.058h161.793z" fill="#69e3de"/></g><g stroke-width="3.233" class="C G J S"><path style="mix-blend-mode:overlay" d="M861.304 134.952h-11.3m-24.236 0h13.248m6.076-13.992h4.683"/></g><g opacity=".331" fill="#00703a"><path d="M1118.245,72.035c-1.232,0-2.231-1-2.231-2.236v-7.001c0-1.236.999-2.236,2.231-2.236s2.231,1,2.231,2.236v7.001c0,1.236-.999,2.236-2.231,2.236Z"/><use href="#g"/><path d="M1109.707,72.035c-1.232,0-2.231-1-2.231-2.236v-4.667c0-1.236.999-2.236,2.231-2.236s2.231,1,2.231,2.236v4.667c0,1.236-.999,2.236-2.231,2.236Z"/><use href="#h"/><path d="M1152.69 90.514c-1.232 0-2.231-1-2.231-2.236v-4.669c0-1.236.999-2.236 2.231-2.236s2.231 1 2.231 2.236v4.669c0 1.236-.999 2.236-2.231 2.236zm-17.851 0c-1.232 0-2.231-1-2.231-2.236v-4.669c0-1.236.999-2.236 2.231-2.236s2.231 1 2.231 2.236v4.669c0 1.236-.999 2.236-2.231 2.236zm17.17-38.706c-1.232 0-2.231-1-2.231-2.236v-7.001c0-1.236.999-2.236 2.231-2.236s2.231 1 2.231 2.236v7.001c0 1.236-.999 2.236-2.231 2.236z"/><use href="#i"/><path d="M1143.472,51.808c-1.232,0-2.231-1-2.231-2.236v-4.669c0-1.236.999-2.236,2.231-2.236s2.231,1,2.231,2.236v4.669c0,1.236-.999,2.236-2.231,2.236Z"/></g><path d="M976.213 38.688h22.918l6.211 69.687a5.31 5.31 0 0 1-5.28 5.885H975.17a5.31 5.31 0 0 1-5.279-5.895l6.322-69.676z" fill="#6a4c46"/><g clip-path="url(#C)" class="B"><path d="M987.598 79.656l18.735-13.642c10.348-7.535 11.518-22.522 2.464-31.569l-6.554-6.548h-29.29l-6.554 6.548c-9.054 9.047-7.885 24.034 2.464 31.569l18.735 13.642z" fill="#594238"/></g><path d="M987.615 36.629c0 8.104-3.221 15.878-8.958 21.61a30.6 30.6 0 0 1-21.632 8.95h-30.766V46.986a30.55 30.55 0 0 1 8.958-21.613 30.62 30.62 0 0 1 21.632-8.95h30.766V36.63z" fill="#abbe3c" class="B"/><g clip-path="url(#D)"><path d="M987.615 16.421l-68.469 58.522h68.469V16.421z" class="B M"/><path d="M923.848 63.509l61.322-50.083 4.848 5.936-61.322 50.083z" class="W"/><g class="B"><g class="T"><path d="M951.825 70.499h7.669V57.61c0-2.115-1.718-3.831-3.835-3.831s-3.835 1.716-3.835 3.831v12.889zm15.338.567h7.669V45.633a3.83 3.83 0 0 0-3.831-3.828h-.008a3.83 3.83 0 0 0-3.831 3.828v25.433z" class="D"/></g><g class="M"><path d="M926.26 45.709v-7.257h11.707c.963 0 1.887.383 2.569 1.065a3.62 3.62 0 0 1 1.062 2.563h0c0 .966-.383 1.885-1.062 2.567s-1.607 1.061-2.569 1.061H926.26zm0-14.92v-7.663h23.012a3.83 3.83 0 0 1 3.831 3.828v.008a3.83 3.83 0 0 1-3.831 3.828H926.26z" class="I"/></g></g></g><path d="M987.615 36.629c0 8.104 3.221 15.878 8.958 21.61a30.6 30.6 0 0 0 21.632 8.95h30.766V46.986a30.55 30.55 0 0 0-8.958-21.613 30.62 30.62 0 0 0-21.632-8.95h-30.766V36.63z" fill="#abbe3c" class="B"/><g clip-path="url(#E)"><path d="M987.615 16.421l68.469 58.522h-68.469V16.421z" class="B M"/><path d="M985.189 19.388l4.844-5.939 61.357 50.04-4.844 5.939z" class="W"/><g class="B"><g class="T"><path d="M1023.406 70.499h-7.669V57.61c0-2.115 1.718-3.831 3.835-3.831s3.835 1.716 3.835 3.831v12.889zm-15.339.567h-7.669v-25.43c0-1.015.403-1.989 1.124-2.709s1.695-1.123 2.711-1.123a3.84 3.84 0 0 1 2.711 1.123c.721.72 1.124 1.694 1.124 2.709v25.43z" class="D"/></g><g class="M"><path d="M1048.971 46.115v-7.663h-11.508c-1.016 0-1.99.402-2.707 1.123a3.81 3.81 0 0 0-1.124 2.705v.008c0 1.015.403 1.989 1.124 2.709a3.83 3.83 0 0 0 2.707 1.119h11.508zm0-15.326v-7.663h-23.008a3.84 3.84 0 0 0-2.711 1.123c-.721.72-1.124 1.694-1.124 2.709a3.82 3.82 0 0 0 1.124 2.709 3.83 3.83 0 0 0 2.711 1.123h23.008z" class="I"/></g></g></g><path d="M987.598 67.189l18.376-13.381c10.15-7.391 11.297-22.091 2.416-30.964l-6.428-6.423h-28.729l-6.428 6.423c-8.881 8.873-7.734 23.573 2.416 30.964l18.376 13.381z" class="B W"/><g clip-path="url(#F)"><path d="M987.598 69.075h-28.992v-54.98h28.992z" class="M"/><path d="M983.779 10.887h7.669v66.829h-7.669z" fill="#d6e14c"/><g class="D M"><use href="#j"/></g><g class="D T"><path d="M960.426 44.415a3.8 3.8 0 0 0 2.097-.629l15.584-10.217c1.773-1.16 2.267-3.535 1.103-5.306-1.158-1.764-3.52-2.27-5.308-1.1L958.318 37.38c-1.773 1.16-2.267 3.535-1.103 5.306.734 1.12 1.962 1.729 3.211 1.729z"/></g><path d="M1014.806 61.886c1.248 0 2.477-.609 3.211-1.729a3.83 3.83 0 0 0-1.103-5.306l-15.589-10.217c-1.773-1.167-4.149-.664-5.308 1.1a3.83 3.83 0 0 0 1.103 5.306l15.589 10.217a3.8 3.8 0 0 0 2.097.629z" class="D M"/><g class="D T"><path d="M960.426 61.886a3.8 3.8 0 0 0 2.097-.629l15.584-10.217c1.773-1.16 2.267-3.535 1.103-5.306-1.158-1.764-3.52-2.27-5.308-1.1l-15.584 10.217c-1.773 1.16-2.267 3.535-1.103 5.306.734 1.12 1.962 1.729 3.211 1.729z"/></g></g><path d="M956.462 114.26l62.308-.68" fill="#62c244" stroke="#62c244" class="G J R c"/><g fill="#d9df50" stroke="#d9df50" stroke-miterlimit="10" stroke-width=".31" class="B"><path d="M630.434 44.731a3.09 3.09 0 0 0-.906-2.188c-.582-.582-1.369-.908-2.19-.908s-1.608.326-2.19.908a3.09 3.09 0 0 0-.906 2.188v2.064a5.16 5.16 0 0 0 5.161 5.161h1.032V44.73zm12.387-8.258a3.09 3.09 0 0 0-.906-2.188c-.582-.582-1.369-.908-2.19-.908s-1.608.326-2.19.908a3.09 3.09 0 0 0-.906 2.188v15.484h6.193V36.473z"/><use href="#k"/><path d="M636.628 40.602a3.09 3.09 0 0 0-.906-2.188c-.582-.582-1.369-.908-2.19-.908s-1.608.326-2.19.908a3.09 3.09 0 0 0-.906 2.188v11.355h6.193V40.602zm18.58 4.129a3.09 3.09 0 0 0-.906-2.188c-.582-.582-1.369-.908-2.19-.908s-1.608.326-2.19.908a3.09 3.09 0 0 0-.906 2.188v7.226h1.032a5.16 5.16 0 0 0 5.161-5.161v-2.064z"/></g><g opacity=".35"><g fill="#f2b052"><circle cx="1225.944" cy="123.668" r="2.829" transform="matrix(.878117 -.478447 .478447 .878117 90.254 601.623)" opacity=".6"/><circle cx="1218.202" cy="131.644" r="2.829" transform="matrix(.878117 -.478447 .478447 .878117 85.494 598.891)" opacity=".6"/><circle cx="1214.505" cy="123.422" r="2.829" transform="matrix(.878117 -.478447 .478447 .878117 88.978 596.12)" opacity=".6"/><circle cx="1198.458" cy="143.714" r="2.829" transform="matrix(.878117 -.478447 .478447 .878117 77.313 590.915)" opacity=".6"/></g></g><path d="M713.977-21.087h97.769v47.926h-97.769z" fill="#ce6062"/><path d="M759.986 0h7.668v7.668h-7.668z" fill="#63ceec"/><path d="M759.986 0h7.668v5.751h-7.668z" fill="#53afa9"/><path d="M750.4 15.336h7.668v7.668H750.4z" fill="#e0908e"/><path d="M750.4 15.336h7.668v3.834H750.4z" fill="#f3b3b5"/><path d="M790.194-4.352c.362-.363.566-.857.564-1.371a1.93 1.93 0 0 0-.577-1.366c-.775-.76-2.015-.754-2.78.012L776.633 3.691a1.95 1.95 0 0 0 0 2.758 1.95 1.95 0 0 0 2.759.002l10.803-10.802z" fill="#dccf47" class="B"/><path d="M795.392 2.876c-2.048 0-3.799-1.463-4.155-3.48l-1.246-7.064h-2.594a1.22 1.22 0 0 0-.932.434 1.21 1.21 0 0 0-.264.992l2.454 13.91h9.671l-.846-4.793h-2.088z" fill="#22316e"/><path d="M795.385 2.876h2.096l-1.132-6.417c-.422-2.392-2.499-4.127-4.928-4.127h-1.429l1.247 7.069c.355 2.013 2.103 3.475 4.147 3.475z" class="X"/><path d="M786.951 7.668h11.376v3.834h-11.376z" fill="#22316e"/><g class="X"><path d="M786.951 7.668h-3.838a3.83 3.83 0 0 0-3.83 3.83v.004c0 2.118 1.716 3.834 3.834 3.834h3.834V7.668z" class="B"/><path d="M785.034 11.502h13.419v3.834h-13.419z"/></g><g class="B"><path d="M802.243 19.17h-.002a3.79 3.79 0 0 1-3.788-3.788v-3.88h3.79v7.668z" fill="#102120"/><path d="M790.261-4.352a1.93 1.93 0 0 0 .566-1.371c-.004-.514-.211-1.006-.577-1.366-.775-.76-2.015-.754-2.782.012L776.7 3.691a1.95 1.95 0 0 0 0 2.758 1.95 1.95 0 0 0 2.759.002l10.803-10.802z" class="X"/><path d="M738.898-6.453a1.21 1.21 0 0 0-1.216-1.215h-6.175c-.606 0-1.185.24-1.612.668s-.669 1.008-.669 1.613V7.668h9.671V-6.453z" class="L"/></g><path d="M729.309 7.668h11.545v3.834h-11.545z" fill="#346470"/><g fill="#4ba2da"><path d="M740.773 7.668h3.838c2.114 0 3.828 1.715 3.83 3.83v.004c0 2.118-1.718 3.834-3.834 3.834h-3.834V7.668z" class="B"/><path d="M729.271 11.502h13.419v3.834h-13.419z"/></g><g class="B"><path d="M725.479 19.17h.004a3.79 3.79 0 0 0 3.788-3.788v-3.88h-3.792v7.668z" fill="#102120"/><g fill="#4ba2da"><path d="M731.161-5.708a1.95 1.95 0 0 1 .575-1.382c.368-.366.866-.569 1.386-.566h.002c1.074.007 1.94.88 1.94 1.953v9.504a1.95 1.95 0 0 1-1.95 1.95h-.004c-.516 0-1.012-.206-1.378-.571a1.96 1.96 0 0 1-.571-1.379v-9.509z"/><path d="M733.122 5.751c-.52 0-1.016-.207-1.382-.575s-.569-.867-.566-1.385h0c.008-1.075.88-1.942 1.953-1.942h9.503a1.95 1.95 0 0 1 1.95 1.95v.003c0 .517-.205 1.013-.569 1.379a1.95 1.95 0 0 1-1.38.571h-9.509z"/></g></g><use href="#l" class="U"/><g clip-path="url(#G)" class="B Y"><use href="#m"/></g><use href="#n" class="B N"/><g clip-path="url(#H)"><path d="M607.107 98.005l-54.315 46.425h54.315V98.005z" class="B F"/><use href="#o" class="K"/><g class="B"><g class="H"><use href="#p" class="D"/><use href="#q" class="D"/></g><g class="F"><use href="#r" class="I"/><use href="#s" class="I"/></g></g></g><use href="#t" class="B N"/><g clip-path="url(#I)"><path d="M607.107 98.005l54.316 46.425h-54.316V98.005z" class="B F"/><use href="#u" class="K"/><g class="B"><g class="H"><use href="#v" class="D"/><use href="#w" class="D"/></g><g class="F"><use href="#x" class="I"/><use href="#y" class="I"/></g></g></g><path d="M607.094 138.278l14.578-10.615c8.052-5.863 8.962-17.524 1.917-24.563l-5.099-5.095H595.7l-5.099 5.095c-7.045 7.039-6.135 18.7 1.917 24.563l14.578 10.615z" class="B K"/><g clip-path="url(#J)"><path d="M607.094 139.775h-22.999V96.16h22.999z" class="F"/><path d="M604.064 93.615h6.084v53.015h-6.084z" class="Z"/><g class="D F"><use href="#z"/></g><g class="D H"><path d="M585.538,120.212c.57,0,1.149-.16,1.664-.499l12.362-8.105c1.406-.92,1.798-2.804.875-4.209-.919-1.399-2.792-1.801-4.211-.873l-12.362,8.105c-1.406.92-1.798,2.804-.875,4.209.582.888,1.557,1.371,2.547,1.371Z"/></g><path d="M628.678 134.072c.99 0 1.965-.483 2.547-1.371.923-1.405.531-3.289-.875-4.209l-12.366-8.105a3.04 3.04 0 0 0-4.211.873c-.923 1.405-.531 3.289.875 4.209l12.366 8.105c.515.338 1.093.499 1.664.499z" class="D F"/><g class="D H"><path d="M585.538,134.072c.57,0,1.149-.16,1.664-.499l12.362-8.105c1.406-.92,1.798-2.804.875-4.209-.919-1.399-2.792-1.801-4.211-.873l-12.362,8.105c-1.406.92-1.798,2.804-.875,4.209.582.888,1.557,1.371,2.547,1.371Z"/></g></g><path d="M308.292 133.046h18.181l4.927 44.959c.273 2.492-1.68 4.668-4.189 4.668h-19.747c-2.512 0-4.466-2.182-4.188-4.677l5.015-44.95z" class="U"/><g clip-path="url(#K)" class="B Y"><path d="M317.324 165.545l14.862-10.822c8.209-5.977 9.137-17.867 1.954-25.043l-5.199-5.195h-23.236l-5.199 5.195c-7.183 7.177-6.255 19.066 1.954 25.043l14.862 10.822z"/></g><path d="M317.337 131.412c0 6.428-2.555 12.596-7.106 17.143s-10.723 7.1-17.16 7.1h-24.406v-16.027c0-6.432 2.555-12.599 7.106-17.146a24.29 24.29 0 0 1 17.16-7.1h24.406v16.03z" class="B N"/><g clip-path="url(#L)"><path d="M317.337 115.381l-54.315 46.425h54.315v-46.425z" class="B F"/><path d="M266.754 152.737l48.646-39.73 3.846 4.709-48.646 39.73z" class="K"/><g class="B"><path d="M301.113 158.73h6.084v-20.176c0-1.678-1.36-3.036-3.039-3.036h-.006c-1.679 0-3.039 1.359-3.039 3.036v20.176z" class="D H"/><g class="F"><path d="M268.665 138.615v-5.757h9.287c.764 0 1.497.304 2.038.845a2.88 2.88 0 0 1 .843 2.033h0a2.88 2.88 0 0 1-.843 2.036c-.542.541-1.275.842-2.038.842h-9.287zm0-11.835v-6.079h18.255c1.679 0 3.039 1.359 3.039 3.036v.006c0 1.678-1.36 3.036-3.039 3.036h-18.255z" class="I"/></g></g></g><path d="M317.337 131.412c0 6.428 2.555 12.596 7.106 17.143s10.723 7.1 17.16 7.1h24.406v-16.027c0-6.432-2.555-12.599-7.106-17.146a24.29 24.29 0 0 0-17.16-7.1h-24.406v16.03z" class="B N"/><g clip-path="url(#M)"><path d="M317.337 115.381l54.316 46.425h-54.316v-46.425z" class="B F"/><path d="M315.415 117.736l3.843-4.712 48.673 39.696-3.843 4.712z" class="K"/><g class="B"><path d="M333.561 158.73h-6.084v-20.173c0-.805.319-1.577.891-2.149a3.05 3.05 0 0 1 2.151-.891c.806 0 1.582.322 2.151.891s.891 1.343.891 2.149v20.173z" class="D H"/><g class="F"><path d="M366.01 138.937v-6.079h-9.129c-.806 0-1.579.319-2.148.891a3.02 3.02 0 0 0-.891 2.146v.006c0 .805.319 1.577.891 2.149a3.04 3.04 0 0 0 2.148.888h9.129zm0-12.157v-6.079h-18.252c-.806 0-1.582.322-2.151.891s-.891 1.343-.891 2.149a3.03 3.03 0 0 0 .891 2.149 3.04 3.04 0 0 0 2.151.891h18.252z" class="I"/></g></g></g><path d="M317.324 155.654l14.578-10.615c8.052-5.863 8.962-17.524 1.917-24.563l-5.099-5.095h-22.79l-5.099 5.095c-7.045 7.039-6.135 18.7 1.917 24.563l14.578 10.615z" class="B K"/><g clip-path="url(#N)"><path d="M317.324 157.152h-22.999v-43.615h22.999z" class="F"/><path d="M314.294 110.991h6.084v53.015h-6.084z" class="Z"/><g class="D F"><path d="M338.907 137.588c.99 0 1.965-.483 2.547-1.371.923-1.405.531-3.289-.875-4.209l-12.366-8.105a3.04 3.04 0 0 0-4.211.873c-.923 1.405-.531 3.289.875 4.209l12.366 8.105c.515.338 1.093.499 1.664.499z"/></g><g class="D H"><path d="M295.768,137.588c.57,0,1.149-.16,1.664-.499l12.362-8.105c1.406-.92,1.798-2.804.875-4.209-.919-1.399-2.792-1.801-4.211-.873l-12.362,8.105c-1.406.92-1.798,2.804-.875,4.209.582.888,1.557,1.371,2.547,1.371Z"/></g><path d="M338.907 151.448c.99 0 1.965-.483 2.547-1.371.923-1.405.531-3.289-.875-4.209l-12.366-8.105a3.04 3.04 0 0 0-4.211.873c-.923 1.405-.531 3.289.875 4.209l12.366 8.105c.515.338 1.093.499 1.664.499z" class="D F"/><g class="D H"><path d="M295.768,151.448c.57,0,1.149-.16,1.664-.499l12.362-8.105c1.406-.92,1.798-2.804.875-4.209-.919-1.399-2.792-1.801-4.211-.873l-12.362,8.105c-1.406.92-1.798,2.804-.875,4.209.582.888,1.557,1.371,2.547,1.371Z"/></g></g><path d="M238.662-37.983h18.181l4.927 44.959c.273 2.492-1.68 4.668-4.189 4.668h-19.747c-2.512 0-4.466-2.182-4.188-4.677l5.015-44.95z" class="U"/><path d="M222.994 11.644l49.428-.539" fill="#52ab35" stroke="#52ab35" class="G J R c"/><path d="M111.121 64.127a28.52 28.52 0 0 0-25.744-16.236h-.002c-3.052 0-5.527 2.472-5.527 5.522v18.358l34.673-.515-3.401-7.13z" class="B O"/><g clip-path="url(#O)" class="C G J S V"><path d="M113.916 70.653l-2.845-6.144a28.67 28.67 0 0 0-26.018-16.617h-5.204"/></g><path d="M182.554 90.872a7.19 7.19 0 0 0 6.198-3.545 7.18 7.18 0 0 0 .082-7.136l-17.231-30.893c-4.386-7.863-12.689-12.737-21.698-12.737h-18.393c-2.073 0-4.009 1.037-5.155 2.763a6.18 6.18 0 0 0-.546 5.82l19.296 45.727h37.447z" fill="#77bbe0" class="B"/><g clip-path="url(#P)"><path d="M138.864 76.076l-16.675-39.514" stroke="#5093ba" class="C G J V"/><path d="M122.447 47.892h17.47a3.18 3.18 0 0 1 3.178 3.175v.418c0 1.754 1.423 3.175 3.178 3.175h4.7a3.18 3.18 0 0 0 3.178-3.175v-3.81c0-1.754 1.423-3.175 3.178-3.175h.536a3.18 3.18 0 0 1 3.178 3.175h0c0 1.754 1.423 3.175 3.178 3.175h6.357a3.18 3.18 0 0 0 3.178-3.217l-.157-12.022c-.019-1.433-.996-2.676-2.385-3.033l-19.041-4.902a3.14 3.14 0 0 0-1.17-.078l-19.618 2.584c-1.271.346-10.054 7.852-10.054 8.776" fill="#4ba481" class="B"/></g><path d="M79.849 90.323v-19.67h117.217a91.7 91.7 0 0 1 56.585 19.537l1.223.959c2.96 2.321 4.69 5.873 4.69 9.633v2.493c0 1.993-1.42 3.704-3.38 4.073-24.569 4.629-49.514 6.962-74.514 6.969l-50.688.013c-19.772.005-38.517-8.796-51.133-24.006z" class="B L"/><g clip-path="url(#Q)"><rect x="120.224" y="107.468" width="73.928" height="13.739" rx="6.777" class="C G a b"/><g clip-path="url(#R)" class="C G b"><rect x="120.224" y="107.468" width="73.928" height="13.739" rx="6.777" stroke="#a58ead"/></g><path d="M108.376 99.503H88.798v15.679h3.886a15.69 15.69 0 0 0 15.692-15.679h0z" fill="#c9bccf" class="B"/><path d="M69.542 67.407h203.931V99.51H69.542z" class="O"/><g clip-path="url(#S)" class="B"><path d="M207.804,84.709c0-4.125-3.347-7.469-7.476-7.469h-.003c-4.129,0-7.476,3.344-7.476,7.469v19.97h14.954v-19.97Z" class="O"/><g fill="#77bbe0"><path d="M200.287 81.924h-.038l-.038.002-.036.002-.037.002-.036.002-.033.003-.034.003-.036.004-.041.005-.03.004-.032.005-.042.007-.028.005-.036.007-.041.008-.022.005-.034.008-.045.011-.028.007-.028.007-.037.01-.031.009-.03.009-.035.011-.034.011-.035.012-.034.012-.028.01-.027.011-.026.011-.033.013-.033.014-.033.015-.038.018-.025.012-.024.012-.031.016-.031.016-.03.016-.031.017-.03.017-.022.013-.038.022-.028.018-.028.018-.028.018-.022.014-.026.019-.027.019-.04.029-.026.019-.012.009-.039.031-.025.02-.017.013-.038.032-.025.021-.015.013-.023.022-.029.026-.028.027-.023.022-.023.023-.027.028-.018.019-.027.028-.023.024-.017.019-.025.029-.022.025-.029.035-.017.02-.012.015-.027.036-.023.031-.024.032-.015.021-.014.021-.025.037-.015.021-.013.021-.023.034-.023.039-.016.026-.013.022-.015.027-.013.023-.02.037-.023.045-.014.028-.005.01-.019.039-.013.029-.014.032-.019.044-.005.011-.012.03-.019.049-.011.03-.006.015-.011.031-.016.048-.01.035-.006.016-.009.033-.014.052-.006.018-.008.035-.008.037-.005.021-.011.054-.005.02-.004.022-.009.056-.007.038-.003.024-.004.024-.005.041-.005.042-.004.042-.003.026v.027l-.004.044-.002.045-.002.045v15.344h5.577V84.632l-.003-.045v-.028l-.003-.027-.003-.043-.004-.043-.002-.026-.003-.025-.006-.041-.005-.041-.007-.04-.006-.038-.004-.022-.008-.039-.007-.037-.004-.021-.008-.037-.009-.037-.008-.035-.009-.034-.005-.02-.01-.033-.015-.049-.01-.035-.006-.016-.011-.031-.016-.047-.011-.03-.007-.018-.012-.03-.017-.041-.012-.029-.015-.032-.013-.029-.011-.025-.02-.039-.013-.027-.016-.031-.013-.024-.013-.023-.023-.04-.021-.036-.016-.026-.016-.026-.013-.022-.014-.022-.023-.034-.026-.037-.023-.033-.015-.02-.015-.02-.023-.031-.02-.024-.021-.027-.024-.03-.021-.024-.022-.025-.017-.019-.026-.029-.023-.024-.026-.028-.027-.028-.018-.019-.023-.023-.023-.022-.028-.027-.02-.018-.024-.022-.034-.029-.024-.021-.021-.018-.025-.021-.034-.027-.023-.018-.021-.015-.035-.025-.032-.023-.019-.013-.027-.019-.03-.02-.028-.018-.036-.023-.028-.017-.022-.013-.03-.018-.038-.021-.023-.013-.03-.016-.031-.016-.024-.012-.032-.015-.031-.015-.032-.015-.034-.015-.026-.011-.033-.014-.033-.013-.027-.011-.034-.012-.034-.012-.028-.01-.029-.01-.036-.011-.035-.011-.036-.01-.036-.01-.023-.006-.028-.007-.045-.011-.034-.008-.022-.005-.038-.007-.038-.007-.031-.005-.038-.006-.032-.005-.035-.005-.041-.005-.031-.003-.035-.003-.036-.003-.035-.002-.036-.002-.037-.002h-.037l-.038-.002h-.04-.039zm.138-4.684l.097.002.096.003.096.004.096.005.095.007.095.008.095.009.094.01.094.011.094.012.093.014.093.015.092.016.092.017.092.018.091.019.09.02.091.021.089.022.09.024.088.025.089.026.088.027.087.028.087.029.086.03.086.031.085.032.085.033.084.034.084.035.083.036.083.037.083.038.082.039.082.04.081.041.081.042.08.043.079.044.079.045.078.045.078.046.077.047.076.048.075.049.075.05.074.051.074.052.073.052.072.053.071.054.071.055.07.056.069.057.068.058.068.058.068.059.067.06.067.061.065.061.065.062.064.063.063.064.063.065.061.065.061.066.06.067.059.067.058.068.058.069.056.07.056.07.054.071.054.072.053.072.053.073.052.074.051.074.051.075.049.075.048.076.048.077.046.077.046.078.044.078.044.079.042.08.042.08.04.081.04.081.038.082.038.082.037.083.036.083.036.084.034.085.033.085.032.086.031.086.03.086.029.087.028.087.026.088.026.088.024.089.023.089.023.09.022.09.02.091.02.091.018.091.017.092.016.092.015.093.014.093.012.093.011.094.01.094.008.094.008.095.007.095.006.095.004.096.003.096.002.096v.097 19.97h-14.954V84.614l.002-.096.003-.096.005-.096.006-.095.007-.095.007-.095.009-.094.009-.094.012-.094.012-.093.013-.093.015-.093.016-.092.017-.092.018-.091.02-.091.021-.091.021-.09.023-.09.024-.089.024-.089.025-.088.027-.088.028-.087.028-.087.03-.086.031-.086.032-.086.033-.085.035-.085.035-.084.036-.083.038-.083.038-.082.039-.082.039-.081.041-.081.041-.08.043-.08.043-.079.045-.078.045-.078.047-.077.047-.077.048-.076.05-.075.05-.075.051-.074.052-.074.053-.073.053-.072.054-.072.055-.071.055-.07.057-.07.057-.069.059-.068.059-.067.059-.067.061-.066.062-.065.062-.065.063-.064.064-.063.065-.062.066-.061.066-.061.067-.06.068-.059.068-.058.069-.058.069-.057.07-.056.07-.055.072-.054.072-.053.073-.052.073-.052.074-.051.075-.05.076-.049.076-.048.077-.047.077-.046.078-.045.079-.045.08-.044.08-.043.08-.042.081-.041.082-.04.083-.039.083-.038.083-.037.083-.036.084-.035.084-.034.085-.033.085-.032.086-.031.087-.03.087-.029.087-.028.088-.027.088-.026.089-.025.089-.024.09-.022.09-.021.091-.02.091-.019.091-.018.092-.017.093-.016.092-.015.094-.014.093-.012.094-.011.094-.01.095-.009.095-.008.096-.007.095-.005.096-.004.097-.003.096-.002h.098.1zm-92.049 15.219H88.798v23.826c10.813 0 19.578-8.758 19.578-19.561v-4.265z"/></g></g><path d="M248.164 78.348h-28.643c-2.219 0-4.017 1.797-4.017 4.014h0c0 1.065.423 2.086 1.177 2.838s1.775 1.176 2.84 1.176h30.612l-1.969-8.028z" class="B P"/><g clip-path="url(#T)" class="B Q"><path d="M250.325 75.814h-27.76c-.995 1.63-1.031 3.669-.097 5.333s2.697 2.695 4.607 2.695h25.218l-1.969-8.028z"/></g><path d="M219.521 78.348h-.103l-.103.005-.102.006-.102.009-.1.012-.1.014-.099.016-.098.019-.098.021-.098.024-.096.026-.095.028-.094.03-.093.033-.092.035-.09.037-.09.039-.088.041-.087.043-.086.045-.084.047-.083.049-.083.051-.081.053-.08.055-.078.057-.077.059-.075.061-.073.062-.072.064-.071.066-.068.067-.068.069-.066.07-.064.072-.063.074-.06.075-.059.077-.056.078-.055.079-.053.081-.052.082-.049.083-.048.085-.045.086-.043.087-.041.088-.039.089-.038.091-.035.092-.033.093-.03.094-.028.095-.026.096-.023.097-.022.098-.019.098-.017.099-.013.1-.012.101-.008.102-.007.102-.004.103-.002.104h0v.1l.004.099.007.099.008.099.011.098.013.098.016.097.018.097.021.096.023.096.025.095.027.094.03.093.032.093.034.092.037.091.038.09.041.089.043.088.045.087.047.086.05.085.052.084.053.082.055.081.058.08.059.079.062.077.064.076.066.074.068.073.069.071.071.07.073.068.074.066.076.064.078.062.078.06.081.058.081.056.083.053.084.051.084.049.086.047.087.045.088.043.089.041.09.039.091.036.092.034.093.032.093.03.095.027.095.025.096.023.096.02.098.018.098.016.098.013.098.011.098.009.099.006.099.004h.099l30.612.001-1.969-8.028h-28.643zm28.839-2.804l.196.021.194.034.191.048.187.061.183.074.177.087.17.099.163.11.156.121.145.132.137.142.127.151.114.159.104.167.092.174.08.18.067.185.053.189 1.97 8.028.039.192.027.194.012.195v.196l-.015.195-.027.194-.041.191-.055.188-.068.184-.08.179-.093.173-.104.166-.115.158-.126.15-.137.141-.145.131-.155.12-.163.109-.17.098-.175.086-.182.073-.187.06-.19.047-.193.034-.194.02-.196.007h-30.631l-.155-.002-.167-.007-.167-.01-.166-.015-.167-.018-.168-.023-.165-.026-.165-.031-.163-.035-.167-.04-.158-.042-.161-.046-.162-.052-.156-.054-.155-.058-.153-.061-.152-.065-.15-.068-.148-.072-.157-.081-.149-.083-.137-.08-.142-.086-.143-.092-.141-.097-.134-.097-.135-.103-.129-.103-.127-.106-.129-.115-.121-.112-.125-.121-.124-.127-.112-.121-.106-.12-.113-.133-.105-.133-.098-.127-.102-.141-.094-.138-.087-.134-.09-.145-.09-.154-.08-.147-.07-.136-.074-.15-.069-.152-.066-.151-.067-.166-.056-.155-.053-.154-.049-.155-.047-.158-.044-.169-.038-.158-.035-.16-.032-.17-.028-.172-.021-.16-.019-.161-.015-.173-.01-.172-.006-.16-.003-.172.003-.175.006-.175.012-.174.013-.162.021-.186.026-.173.024-.15.032-.173.038-.173.038-.16.047-.171.048-.159.052-.159.055-.157.058-.154.065-.157.067-.153.071-.152.07-.142.078-.148.085-.151.081-.137.088-.141.09-.136.09-.131.1-.138.102-.133.1-.124.106-.125.111-.125.106-.113.113-.117.117-.114.122-.114.129-.114.122-.102.121-.097.13-.1.134-.098.132-.091.142-.094.145-.09.138-.081.143-.08.15-.079.143-.071.149-.07.155-.068.152-.062.159-.061.165-.058.152-.049.163-.049.169-.045.158-.039.166-.036.17-.033.173-.028.167-.023.17-.019.174-.016.175-.011.173-.007.157-.002h28.66l.197.007z" class="B L"/><path d="M216.331 114.245c0-1.797-.715-3.521-1.987-4.792s-2.997-1.985-4.796-1.985h-5.111c-1.799 0-3.524.714-4.796 1.985s-1.986 2.995-1.986 4.792v.185a6.78 6.78 0 0 0 1.986 4.792c1.272 1.271 2.998 1.985 4.796 1.985h5.111c1.799 0 3.524-.714 4.796-1.985s1.987-2.995 1.987-4.792v-.185z" class="C G a b"/><use href="#AA" class="L"/><use href="#AA" stroke-width="4.687" class="C G a"/></g><path d="M185.735 81.665a3.32 3.32 0 0 0-6.64 0v1.876a3.32 3.32 0 0 0 6.64 0v-1.876z" class="B P"/><g clip-path="url(#U)" class="B Q"><path d="M182.416 74.846l-3.625 3.613 7.588 7.564 3.625-3.613-7.588-7.564z"/></g><path d="M182.329 78.349l-.084.003-.085.005-.083.007-.083.009-.083.012-.083.014-.082.016-.081.018-.08.019-.079.021-.079.023-.078.025-.076.027-.076.029-.075.031-.074.032-.073.034-.072.036-.071.037-.069.039-.069.041-.068.042-.068.044-.066.045-.064.047-.064.048-.062.05-.061.051-.059.053-.059.054-.056.056-.056.057-.054.058-.053.059-.052.061-.05.062-.049.063-.047.064-.046.066-.044.067-.042.068-.04.069-.039.07-.038.071-.036.072-.035.073-.032.074-.031.075-.028.076-.027.077-.025.077-.023.078-.022.079-.02.08-.017.081-.016.081-.013.082-.012.083-.009.083-.008.084-.006.085-.003.085v.086 1.876.086l.004.085.006.085.008.084.009.083.012.083.013.082.016.081.017.081.02.08.022.079.023.078.025.077.027.077.028.076.031.075.032.074.035.073.036.072.038.071.039.07.04.069.042.068.044.067.046.066.047.064.049.063.05.062.052.061.053.06.054.058.056.057.056.056.059.054.059.053.061.051.062.05.064.049.064.047.066.046.068.044.068.042.069.041.069.039.071.037.072.036.073.034.074.032.075.031.076.029.076.027.078.025.079.023.079.021.08.019.081.018.082.016.083.014.083.012.083.01.083.007.085.005.084.003h.086.086l.084-.003.085-.005.083-.007.083-.01.083-.012.083-.014.082-.016.081-.018.08-.019.079-.021.079-.023.078-.025.076-.027.076-.029.075-.031.074-.032.073-.034.072-.036.071-.037.069-.039.069-.041.068-.042.068-.044.066-.046.064-.047.064-.049.062-.05.061-.051.059-.053.059-.054.056-.056.056-.057.054-.058.053-.06.052-.061.05-.062.049-.063.047-.064.046-.066.044-.067.042-.068.04-.069.039-.07.038-.071.036-.072.035-.073.032-.074.031-.075.028-.076.027-.077.025-.077.023-.078.022-.079.02-.08.017-.081.016-.081.013-.082.012-.083.009-.083.008-.084.006-.085.003-.085v-.086-1.876-.086l-.004-.085-.006-.085-.008-.084-.009-.083-.012-.083-.013-.082-.016-.081-.017-.081-.02-.08-.022-.079-.023-.078-.025-.077-.027-.077-.028-.076-.031-.075-.032-.074-.035-.073-.036-.072-.038-.071-.039-.07-.04-.069-.042-.068-.044-.067-.046-.066-.047-.064-.049-.063-.05-.062-.052-.061-.053-.059-.054-.058-.056-.057-.056-.056-.059-.054-.059-.053-.061-.051-.062-.05-.064-.048-.064-.047-.066-.045-.068-.044-.068-.042-.069-.041-.069-.039-.071-.037-.072-.036-.073-.034-.074-.032-.075-.031-.076-.029-.076-.027-.078-.025-.079-.023-.079-.021-.08-.019-.081-.018-.082-.016-.083-.014-.083-.012-.083-.009-.083-.007-.085-.005-.084-.003h-.086-.086zm.25-2.81l.15.006.155.009.158.014.148.017.156.021.156.026.151.029.148.032.145.036.147.04.147.044.14.045.144.051.144.055.136.056.134.059.14.065.13.065.131.068.134.075.127.075.126.079.124.081.115.08.12.087.118.091.109.087.114.096.119.105.108.102.099.097.099.102.102.109.095.107.101.118.096.121.077.1.09.121.087.127.085.129.079.128.068.115.074.131.069.133.068.134.062.134.059.134.056.139.053.139.053.152.044.137.043.14.04.153.038.155.03.143.028.141.028.17.019.142.02.156.012.156.011.156.005.156.003.128v1.932l-.003.128-.005.156-.011.156-.012.156-.02.156-.019.142-.028.17-.028.141-.03.143-.038.155-.04.153-.043.14-.044.139-.054.151-.053.137-.055.136-.059.135-.063.136-.068.134-.069.133-.074.131-.068.115-.079.128-.085.129-.087.127-.09.121-.077.1-.096.121-.101.118-.098.111-.098.104-.096.099-.107.104-.104.097-.119.106-.114.095-.104.084-.123.094-.12.087-.115.08-.124.082-.126.079-.127.075-.134.075-.131.068-.13.065-.14.065-.134.059-.143.058-.138.052-.138.049-.146.047-.147.044-.147.04-.145.036-.148.032-.151.029-.156.026-.156.022-.148.017-.158.014-.155.009-.157.006h-.143l-.029.001h-.141l-.157-.008-.156-.009-.156-.014-.15-.017-.155-.022-.158-.026-.149-.029-.146-.032-.148-.036-.148-.04-.147-.044-.145-.047-.139-.049-.137-.052-.143-.058-.141-.061-.132-.062-.132-.065-.129-.068-.129-.071-.139-.083-.118-.075-.118-.077-.122-.085-.121-.087-.122-.094-.113-.09-.113-.096-.104-.093-.106-.097-.113-.111-.097-.099-.098-.104-.106-.12-.092-.109-.09-.111-.091-.119-.082-.111-.089-.127-.083-.129-.074-.117-.074-.126-.074-.131-.07-.133-.067-.134-.064-.136-.058-.135-.056-.136-.057-.15-.048-.138-.046-.139-.045-.154-.038-.139-.035-.141-.035-.156-.029-.155-.023-.142-.023-.156-.018-.156-.014-.156-.009-.156-.007-.156v-.142-1.904-.142l.007-.155.009-.156.014-.156.018-.156.023-.156.023-.142.029-.155.035-.156.035-.141.038-.139.045-.154.045-.137.048-.139.058-.152.057-.139.059-.134.062-.134.067-.134.07-.133.074-.131.074-.126.074-.117.083-.129.089-.127.082-.111.091-.119.09-.111.092-.109.103-.116.101-.109.1-.102.106-.104.11-.101.104-.092.113-.096.117-.093.117-.091.121-.087.122-.085.118-.077.118-.075.139-.083.129-.072.129-.068.132-.065.132-.062.141-.061.136-.056.143-.055.145-.051.139-.045.147-.044.148-.04.148-.036.146-.032.149-.029.158-.026.155-.021.15-.017.156-.014.156-.009.149-.006.142-.002h.043l.142.002z" class="B L"/><rect x="165.342" y="78.348" width="6.639" height="8.51" rx="3.317" class="P"/><g clip-path="url(#V)" class="B Q"><use href="#AB"/></g><path d="M168.577 78.349l-.085.003-.084.005-.084.007-.083.009-.083.012-.083.014-.081.016-.081.018-.081.019-.079.021-.079.023-.077.025-.077.027-.076.029-.075.031-.074.032-.073.034-.072.036-.07.037-.07.039-.069.041-.068.042-.067.044-.066.045-.065.047-.064.048-.062.05-.061.051-.059.053-.058.054-.057.056-.056.057-.053.058-.053.059-.052.061-.05.062-.049.063-.047.064-.045.066-.044.067-.043.068-.04.069-.039.07-.037.071-.036.072-.034.073-.032.074-.031.075-.029.076-.027.077-.025.077-.023.078-.021.079-.02.08-.018.081-.016.081-.014.082-.012.083-.009.083-.007.084-.005.085-.003.085v.086l-.001 1.876v.086l.004.085.005.085.007.084.009.083.012.083.014.082.016.081.018.081.02.08.021.079.023.078.025.077.027.077.029.076.031.075.032.074.034.073.036.072.037.071.039.07.04.069.043.068.044.067.045.066.047.064.049.063.05.062.052.061.053.06.053.058.056.057.057.056.058.054.059.053.061.051.062.05.064.049.065.047.066.046.067.044.068.042.069.041.07.039.07.037.072.036.073.034.074.032.075.031.076.029.077.027.077.025.079.023.079.021.081.019.081.018.081.016.083.014.083.012.083.01.084.007.084.005.085.003h.085.086l.085-.003.084-.005.083-.007.083-.01.083-.012.082-.014.082-.016.081-.018.08-.019.08-.021.078-.023.078-.025.077-.027.076-.029.074-.031.074-.032.073-.034.072-.036.071-.037.07-.039.068-.041.068-.042.067-.044.066-.046.065-.047.063-.049.062-.05.061-.051.06-.053.058-.054.057-.056.055-.057.054-.058.053-.06.052-.061.05-.062.049-.063.047-.064.046-.066.044-.067.042-.068.04-.069.039-.07.038-.071.036-.072.035-.073.032-.074.031-.075.029-.076.026-.077.025-.077.023-.078.022-.079.02-.08.018-.081.015-.081.014-.082.011-.083.009-.083.008-.084.006-.085.003-.085v-.086-1.876-.086l-.004-.085-.006-.085-.008-.084-.009-.083-.011-.083-.014-.082-.015-.081-.018-.081-.02-.08-.022-.079-.023-.078-.025-.077-.026-.077-.029-.076-.031-.075-.032-.074-.035-.073-.036-.072-.038-.071-.039-.07-.04-.069-.042-.068-.044-.067-.046-.066-.047-.064-.049-.063-.05-.062-.052-.061-.053-.059-.054-.058-.055-.057-.057-.056-.058-.054-.06-.053-.061-.051-.062-.05-.063-.048-.065-.047-.066-.045-.067-.044-.068-.042-.068-.041-.07-.039-.071-.037-.072-.036-.073-.034-.074-.032-.074-.031-.076-.029-.077-.027-.078-.025-.078-.023-.08-.021-.08-.019-.081-.018-.082-.016-.082-.014-.083-.012-.083-.009-.083-.007-.084-.005-.085-.003h-.085l-.085-.001zm.248-2.81l.149.006.156.009.157.014.15.017.154.021.158.026.148.029.146.032.149.036.147.04.147.044.139.045.145.051.143.055.136.056.141.061.132.062.132.065.129.068.129.072.14.083.118.075.117.077.122.085.121.087.118.091.116.093.113.096.103.092.11.101.107.104.099.102.102.109.102.116.092.109.09.111.091.119.082.111.089.127.084.129.073.117.075.126.073.131.07.133.067.134.063.134.058.134.057.139.058.152.048.139.045.137.045.154.038.139.035.141.035.156.029.155.023.142.023.156.018.156.014.156.009.156.007.155v.142 1.904.142l-.007.156-.009.156-.014.156-.018.156-.023.156-.023.142-.029.155-.035.156-.035.141-.038.139-.045.154-.046.139-.048.138-.057.15-.055.136-.059.135-.064.136-.067.134-.07.133-.073.131-.075.126-.073.117-.084.129-.089.127-.082.111-.091.119-.09.111-.092.109-.106.12-.098.104-.096.099-.114.111-.106.097-.104.093-.113.096-.112.09-.123.094-.121.087-.122.085-.117.077-.118.075-.14.083-.129.071-.129.068-.132.065-.132.062-.141.061-.143.058-.137.052-.139.049-.145.047-.147.044-.147.04-.149.036-.146.032-.148.029-.158.026-.154.022-.15.017-.157.014-.156.009-.156.006h-.142l-.029.001h-.143l-.156-.008-.156-.009-.158-.014-.147-.017-.157-.022-.156-.026-.15-.029-.149-.032-.145-.036-.147-.04-.147-.044-.146-.047-.138-.049-.137-.052-.143-.058-.135-.059-.14-.065-.13-.065-.131-.068-.134-.075-.126-.075-.126-.079-.123-.082-.115-.08-.121-.087-.122-.094-.104-.084-.114-.095-.119-.106-.104-.097-.107-.104-.096-.099-.098-.104-.098-.111-.101-.118-.096-.121-.077-.1-.09-.121-.087-.127-.086-.129-.079-.128-.068-.115-.074-.131-.07-.133-.067-.134-.063-.136-.059-.135-.056-.136-.052-.137-.054-.151-.044-.139-.043-.14-.041-.153-.038-.155-.03-.143-.028-.141-.028-.17-.021-.156-.016-.142-.013-.142-.012-.17-.005-.156-.003-.128v-1.932l.003-.128.005-.156.012-.17.013-.142.016-.142.021-.156.028-.17.028-.141.03-.143.038-.155.041-.153.043-.14.044-.137.054-.152.053-.139.057-.139.059-.134.062-.134.067-.134.07-.133.074-.131.068-.115.079-.128.086-.129.087-.127.09-.121.077-.1.096-.121.101-.118.095-.107.102-.109.1-.102.099-.097.108-.102.119-.105.114-.096.109-.087.118-.091.121-.087.115-.08.123-.081.126-.079.126-.075.134-.075.131-.068.13-.065.14-.065.135-.059.136-.056.143-.055.144-.051.14-.045.147-.044.147-.04.145-.036.149-.032.15-.029.156-.026.157-.021.147-.017.158-.014.156-.009.149-.006.143-.002h.042l.142.002z" class="B L"/><rect x="151.589" y="78.348" width="6.64" height="8.51" rx="3.317" class="P"/><g clip-path="url(#W)" class="B Q"><path d="M154.909 74.846l-3.625 3.613 7.589 7.564 3.624-3.613-7.588-7.564z"/></g><path d="M154.823 78.349l-.085.003-.085.005-.084.007-.083.009-.083.012-.082.014-.081.016-.081.018-.08.019-.079.021-.078.023-.078.025-.077.027-.076.029-.075.031-.074.032-.073.034-.072.036-.071.037-.07.039-.069.041-.068.042-.067.044-.066.045-.065.047-.063.048-.062.05-.061.051-.06.053-.058.054-.057.056-.056.057-.054.058-.053.059-.051.061-.05.062-.049.063-.047.064-.045.066-.044.067-.042.068-.041.069-.039.07-.038.071-.036.072-.034.073-.032.074-.031.075-.029.076-.027.077-.025.077-.023.078-.021.079-.02.08-.018.081-.016.081-.014.082-.012.083-.01.083-.007.084-.005.085-.003.085v.086l-.001 1.876v.086l.004.085.005.085.007.084.01.083.012.083.014.082.016.081.018.081.02.08.021.079.023.078.025.077.027.077.029.076.031.075.032.074.034.073.036.072.038.071.039.07.041.069.042.068.044.067.045.066.047.064.049.063.05.062.051.061.053.06.054.058.056.057.057.056.058.054.06.053.061.051.062.05.063.049.065.047.066.046.067.044.068.042.069.041.07.039.071.037.072.036.073.034.074.032.075.031.076.029.077.027.078.025.078.023.079.021.08.019.081.018.081.016.082.014.083.012.083.01.084.007.085.005.085.003h.086.086l.085-.003.085-.005.084-.007.083-.01.083-.012.082-.014.081-.016.081-.018.08-.019.079-.021.078-.023.078-.025.077-.027.076-.029.075-.031.074-.032.073-.034.072-.036.071-.037.07-.039.069-.041.068-.042.067-.044.066-.046.065-.047.063-.049.062-.05.061-.051.06-.053.058-.054.057-.056.056-.057.054-.058.053-.06.051-.061.05-.062.049-.063.047-.064.046-.066.044-.067.042-.068.041-.069.039-.07.038-.071.036-.072.034-.073.032-.074.031-.075.029-.076.027-.077.025-.077.023-.078.021-.079.02-.08.018-.081.016-.081.014-.082.012-.083.01-.083.007-.084.005-.085.003-.085v-.086l.001-1.876v-.086l-.004-.085-.005-.085-.007-.084-.01-.083-.012-.083-.014-.082-.016-.081-.018-.081-.02-.08-.021-.079-.023-.078-.025-.077-.027-.077-.029-.076-.031-.075-.032-.074-.034-.073-.036-.072-.038-.071-.039-.07-.041-.069-.042-.068-.044-.067-.046-.066-.047-.064-.049-.063-.05-.062-.051-.061-.053-.059-.054-.058-.056-.057-.057-.056-.058-.054-.06-.053-.061-.051-.062-.05-.063-.048-.065-.047-.066-.045-.067-.044-.068-.042-.069-.041-.07-.039-.071-.037-.072-.036-.073-.034-.074-.032-.075-.031-.076-.029-.077-.027-.078-.025-.078-.023-.079-.021-.08-.019-.081-.018-.081-.016-.082-.014-.083-.012-.083-.009-.084-.007-.085-.005-.085-.003h-.086l-.086-.001zm.249-2.81l.149.006.155.009.156.014.15.017.157.022.154.026.15.029.148.032.146.036.148.04.147.044.139.045.145.051.144.055.136.056.135.059.133.062.138.068.136.072.128.072.126.075.126.079.123.081.115.08.121.087.118.091.109.087.114.096.119.105.108.102.099.097.1.102.102.109.095.107.101.118.096.121.077.1.09.121.087.127.086.129.078.128.068.115.074.131.07.133.067.134.062.134.059.134.057.139.053.139.049.139.05.15.045.154.037.139.035.141.035.156.029.155.026.156.019.142.019.156.013.156.011.156.005.156.003.128v1.932l-.003.128-.005.156-.011.156-.013.156-.019.156-.019.142-.026.156-.029.155-.035.156-.035.141-.037.139-.045.154-.05.152-.049.138-.052.137-.056.136-.059.135-.063.136-.067.134-.07.133-.074.131-.068.115-.078.128-.086.129-.087.127-.09.121-.077.1-.096.121-.101.118-.098.111-.098.104-.096.099-.107.104-.104.097-.119.106-.114.095-.104.084-.122.094-.121.087-.115.08-.123.082-.126.079-.126.075-.128.072-.136.072-.138.068-.133.062-.135.059-.142.058-.137.052-.138.049-.146.047-.147.044-.148.04-.146.036-.148.032-.15.029-.154.026-.157.022-.15.017-.156.014-.155.009-.156.006h-.156-.156l-.156-.006-.155-.009-.156-.014-.15-.017-.157-.022-.154-.026-.147-.028-.149-.032-.152-.037-.147-.04-.139-.042-.147-.047-.143-.051-.137-.052-.148-.061-.134-.059-.128-.059-.138-.068-.129-.068-.129-.071-.139-.083-.118-.075-.118-.077-.129-.09-.112-.082-.116-.088-.119-.096-.113-.096-.104-.093-.113-.104-.105-.104-.09-.091-.106-.112-.106-.12-.092-.109-.09-.111-.091-.119-.088-.121-.081-.117-.079-.119-.08-.128-.075-.126-.074-.131-.07-.133-.067-.134-.063-.136-.059-.135-.056-.136-.057-.15-.048-.138-.046-.139-.045-.154-.038-.139-.035-.141-.035-.156-.029-.155-.024-.142-.023-.156-.018-.156-.014-.156-.009-.156-.006-.156v-.142l-.001-1.904v-.142l.008-.155.009-.156.014-.156.018-.156.023-.156.024-.142.029-.155.035-.156.035-.141.038-.139.045-.154.045-.137.048-.139.058-.152.057-.139.059-.134.062-.134.067-.134.07-.133.074-.131.075-.126.08-.128.079-.119.081-.117.088-.121.091-.119.09-.111.092-.109.102-.116.109-.117.094-.094.098-.097.117-.109.104-.092.113-.096.124-.099.112-.085.112-.082.129-.09.118-.077.118-.075.139-.083.129-.072.129-.068.138-.068.128-.06.134-.059.142-.058.144-.055.149-.052.14-.045.139-.042.147-.04.152-.037.149-.032.147-.028.154-.026.157-.022.15-.017.156-.014.155-.009.149-.006.163-.002.163.002z" class="B L"/><rect x="137.836" y="78.348" width="6.64" height="8.51" rx="3.317" class="P"/><g clip-path="url(#X)" class="B Q"><path d="M141.155 74.846l-3.624 3.613 7.588 7.564 3.624-3.613-7.588-7.564z"/></g><g class="B"><path d="M141.069 78.349l-.085.003-.085.005-.084.007-.083.009-.083.012-.082.014-.081.016-.081.018-.08.019-.079.021-.078.023-.078.025-.077.027-.076.029-.075.031-.074.032-.073.034-.072.036-.071.037-.07.039-.069.041-.068.042-.067.044-.066.045-.065.047-.063.048-.062.05-.061.051-.06.053-.058.054-.057.056-.056.057-.054.058-.053.059-.051.061-.05.062-.049.063-.047.064-.046.066-.044.067-.042.068-.041.069-.039.07-.038.071-.036.072-.034.073-.032.074-.031.075-.029.076-.027.077-.025.077-.023.078-.021.079-.02.08-.018.081-.016.081-.014.082-.012.083-.01.083-.007.084-.005.085-.003.085v.086l-.001 1.876v.086l.004.085.005.085.007.084.01.083.012.083.014.082.016.081.018.081.02.08.021.079.023.078.025.077.027.077.029.076.031.075.032.074.034.073.036.072.038.071.039.07.041.069.042.068.044.067.046.066.047.064.049.063.05.062.051.061.053.06.054.058.056.057.057.056.058.054.06.053.061.051.062.05.063.049.065.047.066.046.067.044.068.042.069.041.07.039.071.037.072.036.073.034.074.032.075.031.076.029.077.027.078.025.078.023.079.021.08.019.081.018.081.016.082.014.083.012.083.01.084.007.085.005.085.003h.086.086l.085-.003.085-.005.084-.007.083-.01.083-.012.082-.014.081-.016.081-.018.08-.019.079-.021.078-.023.078-.025.077-.027.076-.029.075-.031.074-.032.073-.034.072-.036.071-.037.07-.039.069-.041.068-.042.067-.044.066-.046.065-.047.063-.049.062-.05.061-.051.06-.053.058-.054.057-.056.056-.057.054-.058.053-.06.051-.061.05-.062.049-.063.047-.064.045-.066.044-.067.042-.068.041-.069.039-.07.038-.071.036-.072.034-.073.032-.074.031-.075.029-.076.027-.077.025-.077.023-.078.021-.079.02-.08.018-.081.016-.081.014-.082.012-.083.01-.083.007-.084.005-.085.003-.085v-.086l.001-1.876v-.086l-.004-.085-.005-.085-.007-.084-.01-.083-.012-.083-.014-.082-.016-.081-.018-.081-.02-.08-.021-.079-.023-.078-.025-.077-.027-.077-.029-.076-.031-.075-.032-.074-.034-.073-.036-.072-.038-.071-.039-.07-.041-.069-.042-.068-.044-.067-.045-.066-.047-.064-.049-.063-.05-.062-.051-.061-.053-.059-.054-.058-.056-.057-.057-.056-.058-.054-.06-.053-.061-.051-.062-.05-.063-.048-.065-.047-.066-.045-.067-.044-.068-.042-.069-.041-.07-.039-.071-.037-.072-.036-.073-.034-.074-.032-.075-.031-.076-.029-.077-.027-.078-.025-.078-.023-.079-.021-.08-.019-.081-.018-.081-.016-.082-.014-.083-.012-.083-.009-.084-.007-.085-.005-.085-.003h-.086l-.086-.001zm.249-2.81l.148.006.158.009.156.014.149.017.155.021.158.026.149.029.146.032.148.036.148.04.147.044.139.045.145.051.144.055.136.056.14.061.132.062.126.062.137.071.134.075.133.079.118.075.118.077.122.085.121.087.118.091.116.093.113.096.104.092.11.101.106.104.1.102.102.109.102.116.092.109.09.111.091.119.081.111.089.127.084.129.073.117.075.126.074.131.07.133.067.134.062.134.059.134.057.139.053.139.054.152.048.15.037.127.043.153.036.155.032.142.029.155.024.142.022.156.018.156.014.156.009.156.006.155v.142l.001 1.904v.142l-.008.156-.009.156-.014.156-.018.156-.022.156-.024.142-.029.155-.032.142-.036.155-.043.153-.037.127-.049.153-.054.151-.052.137-.056.136-.059.135-.063.136-.067.134-.07.133-.074.131-.075.126-.073.117-.084.129-.089.127-.081.111-.091.119-.09.111-.092.109-.106.12-.098.104-.096.099-.114.111-.106.097-.104.093-.113.096-.112.09-.122.094-.121.087-.122.085-.118.077-.118.075-.133.079-.134.075-.137.072-.126.062-.132.062-.14.061-.142.058-.137.052-.138.049-.146.047-.147.044-.148.04-.148.036-.146.032-.149.029-.158.026-.155.022-.149.017-.156.014-.158.009-.155.006h-.141l-.029.001h-.143l-.155-.008-.157-.009-.156-.014-.149-.017-.155-.022-.158-.026-.149-.029-.146-.032-.149-.036-.148-.04-.147-.044-.146-.047-.138-.049-.137-.052-.142-.058-.135-.059-.139-.065-.131-.065-.131-.068-.134-.075-.126-.075-.126-.079-.123-.082-.115-.08-.121-.087-.122-.094-.104-.084-.114-.095-.119-.106-.104-.097-.107-.104-.096-.099-.098-.104-.106-.12-.092-.109-.09-.111-.091-.119-.081-.111-.089-.127-.084-.129-.073-.117-.075-.126-.074-.131-.07-.133-.067-.134-.063-.136-.059-.135-.056-.136-.052-.137-.054-.151-.044-.139-.043-.14-.041-.153-.038-.155-.03-.143-.028-.141-.028-.17-.021-.156-.016-.142-.014-.156-.009-.156-.006-.142-.003-.142v-1.932l.003-.142.006-.141.009-.156.014-.156.016-.142.021-.156.028-.17.028-.141.03-.143.038-.155.041-.153.043-.14.044-.137.054-.152.053-.139.057-.139.059-.134.062-.134.067-.134.07-.133.074-.131.075-.126.073-.117.084-.129.089-.127.081-.111.091-.119.09-.111.092-.109.102-.116.102-.109.1-.102.099-.097.108-.102.119-.105.114-.096.109-.087.118-.091.121-.087.115-.08.123-.081.126-.079.126-.075.134-.075.131-.068.131-.065.139-.065.135-.059.136-.056.144-.055.145-.051.139-.045.147-.044.148-.04.149-.036.146-.032.149-.029.158-.026.155-.021.149-.017.156-.014.157-.009.148-.006.143-.002h.043l.141.002z" class="L"/><path d="M106.189 89.959c.82 0 1.578.434 1.994 1.14a2.31 2.31 0 0 1 .026 2.295l-.208.373c-5.484 9.832-15.866 15.926-27.131 15.926h-.003a5.97 5.97 0 0 1-4.948-2.629 5.96 5.96 0 0 1-.585-5.569l4.669-11.536h26.186z" class="O"/></g><g clip-path="url(#Y)" class="C G J S V"><path d="M65.505 109.694h8.122c15.737 0 30.24-8.513 37.901-22.248"/></g><path d="M208.403 137.44c2.935 1.54 4.525 4.952 3.57 8.36-.483 1.725-1.675 3.162-3.176 4.142l-23.549 15.375a24.86 24.86 0 0 1-25.138 1.195l-16.274-8.539c-1.106-.58-2.079-1.432-2.674-2.529-1.473-2.717-.765-5.89 1.411-7.733l29.405-24.896c1.982-1.678 4.777-1.98 7.077-.774l29.348 15.4z" class="B O"/><g clip-path="url(#Z)" class="C G J S V"><path d="M135.574 153.637l7.2 3.778a58.22 58.22 0 0 0 58.869-2.802l23.482-15.331"/></g><g fill="#52aa35"><rect x="111.471" y="102.004" width="14.468" height="25.891" rx="7.231"/><rect x="125.939" y="102.004" width="14.468" height="25.891" rx="7.231"/><rect x="199.454" y="102.004" width="14.468" height="25.891" rx="7.231"/><rect x="213.922" y="102.004" width="14.468" height="25.891" rx="7.231"/><rect x="151.025" y="125.306" width="10.431" height="18.679" rx="5.215" transform="matrix(.76979 -.638298 .638298 .76979 -49.976 130.725)"/><rect x="159.054" y="118.648" width="10.431" height="18.679" rx="5.215" transform="matrix(.76979 -.638298 .638298 .76979 -43.878 134.318)"/><rect x="228.39" y="102.004" width="14.468" height="25.891" rx="7.231"/><rect x="242.858" y="102.004" width="14.468" height="25.891" rx="7.231"/></g><path d="M76.586 109.042h18.181l4.927 44.959c.273 2.492-1.68 4.668-4.189 4.668H75.758c-2.512 0-4.466-2.182-4.188-4.677l5.015-44.95z" class="U"/><g clip-path="url(#a)" class="B Y"><path d="M85.618 141.541l14.862-10.822c8.209-5.977 9.137-17.867 1.954-25.043l-5.199-5.195H73.999l-5.199 5.195c-7.183 7.177-6.255 19.066 1.954 25.043l14.862 10.822z"/></g><path d="M85.632 107.408c0 6.428-2.555 12.596-7.106 17.143s-10.723 7.1-17.16 7.1H36.96v-16.027c0-6.432 2.555-12.599 7.106-17.146a24.29 24.29 0 0 1 17.16-7.1h24.406v16.03z" class="B N"/><g clip-path="url(#b)"><path d="M85.632 91.377l-54.316 46.425h54.316V91.377z" class="B F"/><path d="M35.05 128.736l48.646-39.73 3.846 4.709-48.646 39.73z" class="K"/><g class="B"><g class="H"><path d="M57.239 134.277h6.084v-10.225c0-1.678-1.363-3.039-3.042-3.039s-3.042 1.362-3.042 3.039v10.225zm12.169.449h6.084V114.55c0-1.678-1.36-3.036-3.039-3.036h-.006c-1.679 0-3.039 1.359-3.039 3.036v20.176z" class="D"/></g><g class="F"><path d="M36.959 114.611v-5.757h9.287c.764 0 1.497.304 2.038.845a2.88 2.88 0 0 1 .843 2.033h0a2.88 2.88 0 0 1-.843 2.036c-.542.541-1.275.842-2.038.842h-9.287zm0-11.835v-6.079h18.255c1.679 0 3.039 1.359 3.039 3.036v.006c0 1.678-1.36 3.036-3.039 3.036H36.959z" class="I"/></g></g></g><path d="M85.632 107.408c0 6.428 2.555 12.596 7.106 17.143s10.723 7.1 17.16 7.1h24.406v-16.027c0-6.432-2.555-12.599-7.106-17.146a24.29 24.29 0 0 0-17.16-7.1H85.632v16.03z" class="B N"/><g clip-path="url(#c)"><path d="M85.632 91.377l54.315 46.425H85.632V91.377z" class="B F"/><path d="M83.71 93.733l3.843-4.712 48.673 39.696-3.843 4.712z" class="K"/><g class="B"><g class="H"><path d="M114.024 134.277h-6.084v-10.225c0-1.678 1.363-3.039 3.042-3.039s3.042 1.362 3.042 3.039v10.225zm-12.168.449h-6.084v-20.173c0-.805.319-1.577.891-2.149a3.05 3.05 0 0 1 2.151-.891c.806 0 1.582.322 2.151.891s.891 1.343.891 2.149v20.173z" class="D"/></g><g class="F"><path d="M134.304 114.933v-6.079h-9.129c-.806 0-1.579.319-2.148.891a3.02 3.02 0 0 0-.891 2.146v.006c0 .805.319 1.577.891 2.149a3.04 3.04 0 0 0 2.148.888h9.129zm0-12.157v-6.079h-18.252c-.806 0-1.582.322-2.151.891s-.891 1.343-.891 2.149a3.03 3.03 0 0 0 .891 2.149 3.04 3.04 0 0 0 2.151.891h18.252z" class="I"/></g></g></g><path d="M85.618 131.65l14.578-10.615c8.052-5.863 8.962-17.524 1.917-24.563l-5.099-5.095h-22.79l-5.099 5.095c-7.045 7.039-6.135 18.7 1.917 24.563L85.62 131.65z" class="B K"/><g clip-path="url(#d)"><path d="M85.618 133.148H62.619V89.533h22.999z" class="F"/><path d="M82.588 86.987h6.084v53.015h-6.084z" class="Z"/><g class="D F"><path d="M107.202 113.584c.99 0 1.965-.483 2.547-1.371.923-1.405.531-3.289-.875-4.209l-12.366-8.105a3.04 3.04 0 0 0-4.211.873c-.923 1.405-.531 3.289.875 4.209l12.366 8.105c.515.338 1.093.499 1.664.499z"/></g><g class="D H"><path d="M64.063,113.584c.57,0,1.149-.16,1.664-.499l12.362-8.105c1.406-.92,1.798-2.804.875-4.209-.919-1.399-2.792-1.801-4.211-.873l-12.362,8.105c-1.406.92-1.798,2.804-.875,4.209.582.888,1.557,1.371,2.547,1.371Z"/></g><path d="M107.202 127.444c.99 0 1.965-.483 2.547-1.371.923-1.405.531-3.289-.875-4.209l-12.366-8.105a3.04 3.04 0 0 0-4.211.873c-.923 1.405-.531 3.289.875 4.209l12.366 8.105c.515.338 1.093.499 1.664.499z" class="D F"/><g class="D H"><path d="M64.063,127.444c.57,0,1.149-.16,1.664-.499l12.362-8.105c1.406-.92,1.798-2.804.875-4.209-.919-1.399-2.792-1.801-4.211-.873l-12.362,8.105c-1.406.92-1.798,2.804-.875,4.209.582.888,1.557,1.371,2.547,1.371Z"/></g></g><g clip-path="url(#e)" class="B"><path d="M130.067 229.764v-43.743c0-5.068 4.112-9.177 9.184-9.177h1.685c5.072 0 9.184-4.109 9.184-9.177v-31.164c0-5.068 4.112-9.177 9.184-9.177h7.342c5.072 0 9.184-4.109 9.184-9.177V98.383c0-5.068 4.112-9.177 9.184-9.177h23.025c5.072 0 9.184 4.109 9.184 9.177l-.002 101.381a8.91 8.91 0 0 0 8.912 8.905h.231c5.118 0 9.231-4.069 9.231-9.138l-.001-30.093c0-5.068 4.112-9.137 9.184-9.137h23.025c5.072 0 9.184 4.109 9.184 9.177v22.383c0 5.068 4.112 9.177 9.184 9.177h4.656c5.072 0 9.184 4.109 9.184 9.177v230.973c0 5.068-4.112 9.177-9.184 9.177h-9.557c-5.072 0-9.184-4.109-9.184-9.177v-22.383c0-5.068-4.112-9.177-9.184-9.177h-23.844c-11.159 0-20.206-9.039-20.206-20.189v-46.071c0-5.068-4.112-9.177-9.184-9.177h-5.2c-5.072 0-9.184-4.109-9.184-9.177v-22.462c0-5.068-4.112-9.177-9.184-9.177h.249c-5.072 0-9.184 4.109-9.184 9.177v64.923c0 5.068-4.112 9.177-9.184 9.177h-3.432c-5.072 0-9.184 4.109-9.184 9.177l-2.698 31.164c0 5.068-4.112 9.177-9.184 9.177h-7.073c-5.072 0-9.184 4.109-9.184 9.177v43.743c0 5.068-4.112 9.177-9.184 9.177h-4.229c-5.072 0-9.184-4.109-9.184-9.177V248.117c0-5.068 4.112-9.177 9.184-9.177h7.073c5.072 0 9.184-4.109 9.184-9.177z" fill="#3d8850"/></g></g></svg>