<svg xmlns="http://www.w3.org/2000/svg" width="1500" height="145" xmlns:v="https://vecta.io/nano"><style><![CDATA[.B{fill-rule:evenodd}.C{fill:none}.D{clip-rule:evenodd}.E{fill:#2f3189}.F{fill:#49468d}.G{opacity:.188}.H{fill:#408f43}.I{fill:#fff}.J{opacity:.3}.K{fill:#357963}.L{fill:#51b133}.M{fill:#d8f3fd}.N{stroke-linecap:round}.O{stroke-linejoin:round}.P{fill:#4aa22e}.Q{fill:#cc4721}.R{fill:#e15827}.S{fill:#61d1d5}.T{fill:#74dddc}.U{fill:#50b06d}.V{fill:#e2e2e2}.W{stroke:#9a9abf}.X{stroke-miterlimit:10}.Y{stroke-width:4.523}.Z{stroke-width:.784}]]></style><defs><clipPath id="A"><path d="M0 0h1500v145H0z" class="C"/></clipPath><clipPath id="B"><path d="M1362.508-11.096h-14.894l-4.036 36.831a3.45 3.45 0 0 0 3.431 3.824h16.177a3.45 3.45 0 0 0 3.431-3.831l-4.109-36.825z" class="C"/></clipPath><clipPath id="C"><path d="M1355.097-12.267a20.24 20.24 0 0 0 5.935 14.318c3.801 3.798 8.956 5.93 14.333 5.93h20.385V-5.404c0-5.372-2.134-10.523-5.935-14.321a20.29 20.29 0 0 0-14.333-5.93h-20.385v13.389z" class="C D"/></clipPath><clipPath id="D"><path d="M1355.097-12.267a20.24 20.24 0 0 1-5.935 14.318c-3.801 3.798-8.956 5.93-14.333 5.93h-20.385V-5.404c0-5.372 2.134-10.523 5.935-14.321a20.29 20.29 0 0 1 14.333-5.93h20.385v13.389z" class="C D"/></clipPath><clipPath id="E"><path d="M1355.109 7.982l-12.176-8.866c-6.725-4.897-7.485-14.637-1.601-20.516l4.259-4.256h19.035l4.259 4.256c5.884 5.879 5.124 15.619-1.601 20.516l-12.176 8.866z" class="C D"/></clipPath><clipPath id="F"><path d="M1064.786 9.107h-13.107l-3.552 32.411a3.04 3.04 0 0 0 3.02 3.366h14.236c1.811 0 3.22-1.573 3.019-3.371l-3.616-32.406z" class="C"/></clipPath><clipPath id="G"><path d="M1058.265 8.077a17.81 17.81 0 0 0 5.223 12.6c3.345 3.342 7.882 5.219 12.613 5.219h17.939v-11.78a17.81 17.81 0 0 0-5.223-12.602c-3.345-3.34-7.882-5.219-12.613-5.219h-17.939V8.077z" class="C D"/></clipPath><clipPath id="H"><path d="M1058.265 8.077a17.81 17.81 0 0 1-5.223 12.6c-3.345 3.342-7.882 5.219-12.613 5.219h-17.939v-11.78a17.81 17.81 0 0 1 5.223-12.602c3.345-3.34 7.882-5.219 12.613-5.219h17.939V8.077z" class="C D"/></clipPath><clipPath id="I"><path d="M1058.275 25.895l-10.715-7.802c-5.918-4.309-6.587-12.88-1.409-18.054l3.748-3.745h16.751l3.748 3.745c5.178 5.174 4.509 13.745-1.409 18.054l-10.715 7.802z" class="C D"/></clipPath><clipPath id="J"><path d="M488.68 134.98h17.836a9.17 9.17 0 0 1 6.486 2.687h0c1.72 1.72 4.053 2.687 6.486 2.687h9.109a9.17 9.17 0 0 1 6.486 2.687l1.283 1.283c1.72 1.72 4.053 2.687 6.486 2.687h13.483l7.734-45.408-22.753-6.983-59.339 15.919 6.701 24.443z" class="C D"/></clipPath><clipPath id="K"><path d="M495.758 141.271l44.997-27.516 8.441-4.018c1.628-.775 3.538-.66 5.062.305s2.443 2.642 2.439 4.444l-.048 19.375a4.48 4.48 0 0 1-2.143 3.813l-40.536 24.787c-2.112 1.291-4.871.626-6.163-1.486l-12.05-19.705z" class="C D"/></clipPath><clipPath id="L"><rect x="490.555" y="110.539" width="43.953" height="20.837" rx="2.449" transform="matrix(.853132 -.521695 .521695 .853132 12.171 285.146)" class="C"/></clipPath><clipPath id="M"><path d="M488.68 134.98h17.836a9.17 9.17 0 0 1 6.486 2.687h0c1.72 1.72 4.053 2.687 6.486 2.687h9.109a9.17 9.17 0 0 1 6.486 2.687l1.283 1.283c1.72 1.72 4.053 2.687 6.486 2.687h13.483l7.734 20.512-22.753-6.983-59.339 15.919 6.701-41.477z" class="C D"/></clipPath><clipPath id="N"><path d="M495.758 141.271l44.997-27.516 8.441-4.018c1.628-.775 3.538-.66 5.062.305s2.443 2.642 2.439 4.444l-.048 19.375a4.48 4.48 0 0 1-2.143 3.813l-40.536 24.787c-2.112 1.291-4.871.626-6.163-1.486l-12.05-19.705z" class="C D"/></clipPath><clipPath id="O"><rect x="490.555" y="110.539" width="43.953" height="20.837" rx="2.449" transform="matrix(.853132 -.521695 .521695 .853132 12.171 285.146)" class="C"/></clipPath><clipPath id="P"><path d="M312.284,123.575c-20.418,0-36.97,11.789-36.97,26.333s16.552,26.333,36.969,26.333,36.97-11.789,36.97-26.333-16.552-26.333-36.969-26.333Z" class="C D"/></clipPath><clipPath id="Q"><path d="M242.576 36.719l116.492 29.365v-80.377H242.576v51.012z" class="C D"/></clipPath><clipPath id="R"><path d="M390.781,30.276l81.153-20.82s-.301-1.01,0,0c.393,1.319-1.577,9.471-2.124,10.734-.459,1.059-.252.678-.459,1.059-5.236,9.655-15.262,15.857-26.235,16.349-20.775.931-52.335-7.323-52.335-7.323Z" class="C D"/></clipPath><clipPath id="S"><path d="M275.898,14.598l71.451,24.629s.275-.91,0,0c-.359,1.188-5.891,6.349-6.931,7.028-.872.57-.527.385-.872.57-8.738,4.67-19.369,4.361-27.876-.718-16.107-9.617-35.773-31.508-35.773-31.508Z" class="C D"/></clipPath><clipPath id="T"><path d="M390.781,30.276l81.153-20.82s-.301-1.01,0,0c.393,1.319-1.577,9.471-2.124,10.734-.459,1.059-.252.678-.459,1.059-5.236,9.655-15.262,15.857-26.235,16.349-20.775.931-52.335-7.323-52.335-7.323Z" class="D E"/></clipPath><clipPath id="U"><path d="M275.898,14.598l71.451,24.629s.275-.91,0,0c-.359,1.188-5.891,6.349-6.931,7.028-.872.57-.527.385-.872.57-8.738,4.67-19.369,4.361-27.876-.718-16.107-9.617-35.773-31.508-35.773-31.508Z" class="D E"/></clipPath><clipPath id="V"><path d="M429.055-124.05h157.537V-7.798H429.055z" class="C"/></clipPath><clipPath id="W"><path d="M440.099 46.503L567.164-102.66s1.853 1.69 0 0c-2.419-2.206-21.92-6.424-25.192-6.559-2.744-.113-1.714-.161-2.744-.113-26.101 1.225-49.762 16.284-62.17 39.279C453.565-26.516 440.1 46.503 440.1 46.503z" class="C D"/></clipPath><clipPath id="X"><path d="M442.851-6.363h0c3.664-1.975 7.608-4.786 8.497-8.853l.835-3.82 2.575 2.204c3.411 2.919 7.214 1.869 10.151-1.526l3.059-3.537h0c3.436 4.225 9.967 3.962 13.052-.525l.533-.775.394.65c2.839 4.684 9.395 5.296 13.051 1.218l.581-.647 2.287 3.254a8.16 8.16 0 0 0 11.044 2.199l2.829-1.794.286.859c1.778 5.333 5.481 9.81 10.385 12.557h0l-79.558-1.462z" fill="#5fcfd4" class="D"/></clipPath><clipPath id="Y"><path d="M442.082,46.535l127.065-149.163s1.853,1.69,0,0c-2.419-2.206-21.92-6.424-25.192-6.559-2.744-.113-1.714-.161-2.744-.113-26.101,1.225-49.762,16.284-62.17,39.279-23.493,43.537-36.958,116.556-36.958,116.556Z" class="D E"/></clipPath><path id="Z" d="M1355.109 15.528l-12.176-8.866c-6.725-4.897-7.485-14.637-1.601-20.516l4.259-4.256h19.035l4.259 4.256c5.884 5.879 5.124 15.619-1.601 20.516l-12.176 8.866z"/><path id="a" d="M1145.471-37.375A32.75 32.75 0 0 1 1139.17.156l-55.252 55.223c-12.825 12.8-33.581 12.8-46.406 0l-41.539-41.513c-6.155-6.144-9.619-14.482-9.619-23.175v-54.762c0-8.693 3.464-17.028 9.619-23.175s14.486-9.6 23.189-9.6h76.809c12.539 0 23.99 7.151 29.487 18.421l20.014 41.05z"/><path id="b" d="M1058.275 32.536l-10.715-7.802c-5.918-4.309-6.587-12.88-1.409-18.054l3.748-3.745h16.751l3.748 3.745c5.178 5.174 4.509 13.745-1.409 18.054l-10.715 7.802z"/><path id="c" d="M529.851 146.963l-12.864 7.866"/><path id="d" d="M495.758 141.271l44.997-27.516 8.441-4.018c1.628-.775 3.538-.66 5.062.305s2.443 2.642 2.439 4.444l-.048 19.375a4.48 4.48 0 0 1-2.143 3.813l-40.536 24.787c-2.112 1.291-4.871.626-6.163-1.486l-12.05-19.705z"/><path id="e" d="M493.201 137.088l44.997-27.516 11.405-1.904c2.29-.382 4.62.42 6.189 2.131s2.166 4.102 1.586 6.351l-2.979 11.553c-.842 3.265-2.922 6.075-5.8 7.835l-37.187 22.74c-2.112 1.291-4.871.627-6.163-1.486L493.2 137.087z"/><path id="f" d="M566.314 125.925l-8.676 5.04c-.872.506-1.989.211-2.494-.66l-.12-.207c-.506-.871-1.623-1.167-2.494-.66l-2.334 1.356c-.872.506-1.168 1.623-.662 2.494l1.099 1.892c.506.871.209 1.988-.662 2.494l-.266.155c-.872.506-1.989.211-2.494-.66h0c-.506-.871-1.623-1.167-2.494-.66l-3.157 1.834c-.88.511-1.172 1.642-.65 2.514l3.546 5.925c.423.706 1.267 1.042 2.06.819l10.871-3.058c.22-.062.421-.161.604-.299l8.998-6.943c.531-.539 2.728-6.8 2.462-7.259"/><path id="g" d="M493.946 138.307a5.1 5.1 0 0 1-.607-3.861c.317-1.317 1.144-2.453 2.3-3.16l37.064-22.665a12.14 12.14 0 0 1 7.742-1.7l10.952 1.279a5.59 5.59 0 0 1 4.587 7.502l-3.852 10.333a12.15 12.15 0 0 1-5.042 6.116l-37.064 22.665a5.1 5.1 0 0 1-3.86.607c-1.317-.317-2.453-1.144-3.16-2.3l-9.06-14.817z"/><path id="h" d="M555.984 115.703a5.59 5.59 0 0 0-.469-4.867c-.895-1.464-2.414-2.436-4.118-2.635l-10.952-1.279c-1.267-.148-2.538-.087-3.771.158l13.6 22.241c.78-.987 1.414-2.09 1.859-3.284l3.852-10.333z"/><path id="i" d="M498.929 136.455l33.598-20.545c1.077-.658 2.484-.319 3.143.758l7.207 11.786c.658 1.077.319 2.484-.758 3.143l-33.598 20.545c-1.076.658-2.484.318-3.141-.757l-7.208-11.787c-.658-1.076-.318-2.484.757-3.141z"/><path id="j" d="M496.66 137.124l37.498-22.93 5.116 8.366-37.498 22.93z"/><path id="k" d="M501.118 136.553l30.498-18.65 6.714 10.98-30.498 18.65z"/><path id="l" d="M507.832 147.533l30.498-18.65 2.238 3.66-30.498 18.65z"/><path id="m" d="M526.895 123.664l2.5-1.529 4.476 7.32-2.5 1.529z"/><path id="n" d="M526.895 123.664l2.5-1.529 1.918 3.137-2.5 1.529z"/><path id="o" d="M492.143 132.901c-.307 0-.608-.155-.78-.437-.263-.43-.127-.993.303-1.255l37.998-23.235c.432-.262.993-.127 1.256.303s.127.993-.303 1.255l-37.998 23.235a.91.91 0 0 1-.476.134z"/><path id="p" d="M495.341 138.13c-.307 0-.608-.155-.78-.437-.263-.43-.127-.993.303-1.255l37.998-23.236c.432-.263.993-.128 1.256.303s.127.993-.303 1.255l-37.998 23.236a.91.91 0 0 1-.476.134z"/><path id="q" d="M519.852 149.917c-.615 0-1.216-.31-1.56-.873l-24.3-39.738a1.83 1.83 0 0 1 .605-2.512 1.83 1.83 0 0 1 2.511.605l24.3 39.738a1.83 1.83 0 0 1-.605 2.512c-.297.181-.627.268-.951.268z"/><path id="r" d="M488.941 128.667l8.731-4.945c.877-.497 1.991-.189 2.487.687l.118.209c.496.876 1.61 1.184 2.487.687l2.349-1.33c.877-.497 1.186-1.61.689-2.487l-1.079-1.904c-.496-.876-.188-1.99.689-2.487l.268-.152c.877-.497 1.991-.189 2.487.687h0c.496.876 1.61 1.184 2.487.687l3.177-1.799c.885-.501 1.19-1.629.678-2.507l-3.482-5.964c-.415-.711-1.255-1.055-2.05-.841l-10.904 2.94c-.221.059-.423.156-.607.292l-9.073 6.844c-.537.533-2.802 6.77-2.541 7.232"/><path id="s" d="M532.851 141.969c-.615 0-1.216-.31-1.56-.873l-24.3-39.738a1.83 1.83 0 0 1 .605-2.512c.862-.525 1.986-.255 2.511.605l24.3 39.738a1.83 1.83 0 0 1-.605 2.512c-.297.181-.627.268-.951.268z"/><path id="t" d="M440.368 25.526l9.377.903 7.85 15.803a.84.84 0 0 1-.926 1.194l-6.013-1.28a3.07 3.07 0 0 1-1.935-1.329c-2.376-3.653-8.352-15.291-8.352-15.291z"/><path id="u" d="M391.193 26.625l-.425 3.773c-.392 3.475-2.548 6.502-5.705 8.007l-10.853 5.173a.84.84 0 0 1-1.074-.314.87.87 0 0 1-.099-.658l1.371-5.965c.182-.793.671-1.481 1.36-1.913 3.691-2.316 15.425-8.103 15.425-8.103z"/><path id="v" d="M471.934,9.457c-6.888,2.051-21.522,12.434-33.471,15.31-21.305,5.128-47.682,5.51-47.682,5.51l.412-3.649s36.065-8.451,42.401-10.662c.619-.216,1.242-.415,1.87-.602,4.923-1.466,22.159-8.514,32.714-11.703.255-.077.519-.119.785-.128h0c3.112-.101,4.914,3.491,2.972,5.925h0Z"/><path id="w" d="M458.178 12.878l-2.107 1.052-.368-.737c-.177-.353-.033-.784.321-.961l2.107-1.052.368.737c.177.353.033.784-.321.961z"/><path id="x" d="M275.823,14.548l70.351,23.903s.275-.91,0,0c-.359,1.188-5.891,6.349-6.931,7.028-.872.57-.527.385-.872.57-8.738,4.67-19.369,4.361-27.876-.718-16.107-9.617-34.673-30.782-34.673-30.782Z"/><path id="y" d="M348.516,39.036c-23.004,20.377-40.128,5.211-72.691-24.464"/><path id="z" d="M348.2,37.986c-26.779,16.123-48.183-6.267-72.635-23.898"/><path id="AA" d="M315.04 37.009l8.367 1.482 5.93 14.771c.108.27.053.577-.143.792s-.497.299-.775.216l-5.316-1.58a2.77 2.77 0 0 1-1.645-1.333c-1.875-3.454-6.419-14.347-6.419-14.347z"/><path id="AB" d="M278.022 12.052l-2.194 2.63c-2.021 2.422-5.148 3.631-8.273 3.196l-10.742-1.495a.76.76 0 0 1-.653-.77c.003-.207.103-.401.252-.544l3.995-3.811c.531-.506 1.241-.781 1.974-.765 3.93.089 15.64 1.56 15.64 1.56z"/><path id="AC" d="M347.35,39.226c-6.205-1.877-22.382-1.326-32.809-5.095-18.591-6.72-38.643-19.533-38.643-19.533l2.122-2.544s31.355,11.548,37.225,13.03c.573.145,1.142.304,1.708.475,4.436,1.341,20.915,4.594,30.447,7.435.23.069.45.168.655.293h0c2.394,1.47,1.966,5.069-.705,5.937h0Z"/><path id="AD" d="M335.324 34.97l-2.142-.258.093-.77c.04-.336.346-.576.682-.535l2.142.258-.093.77c-.04.336-.346.576-.682.535z"/><path id="AE" d="M570.063-103.806c-79.627-15.084-95.412,37.183-129.087,148.38"/><path id="AF" d="M570.764-101c-82.433-.351-100.674,79.276-132.244,152.238"/><path id="AG" d="M440.099 46.503h0c-5.159 2.995-9.151 6.564-9.336 12.527l-1.006 32.369c-.028.907.56 1.736 1.471 1.988.617.17 1.279.001 1.792-.381l11.657-8.673c1.552-1.155 2.583-2.878 2.866-4.792 1.476-9.992-.782-25.494-.714-27.013.001-.027-6.707-6.039-6.731-6.025z"/><path id="AH" d="M446.632 50.285h0c.288 5.959-.541 11.249-5.447 14.643l-26.631 18.427c-.746.516-1.762.473-2.468-.155-.478-.425-.696-1.073-.654-1.712l.95-14.499c.127-1.931 1.014-3.732 2.467-5.009 7.587-6.667 21.83-13.191 23.068-14.074a581.92 581.92 0 0 1 8.715 2.379z"/><path id="AI" d="M442.082,46.535l127.065-149.163s1.853,1.69,0,0c-2.419-2.206-21.92-6.424-25.192-6.559-2.744-.113-1.714-.161-2.744-.113-26.101,1.225-49.762,16.284-62.17,39.279-23.493,43.537-36.958,116.556-36.958,116.556Z"/></defs><g clip-path="url(#A)"><path d="M-10.125-3449.564h1520.249V599.918H-10.125z" class="S"/><g class="T"><path d="M1172.429-50.538l-20.009-41.039c-10.45-21.425-32.608-35.269-56.45-35.269h-76.809c-16.754 0-32.517 6.522-44.39 18.373-.97.969-1.905 1.965-2.803 2.985-9.542 10.837-26.115 11.655-36.325 1.445l-55.726-55.726c-12.044-12.044-12.04-31.573.009-43.612l12.071-12.061c14.691-14.679 22.946-34.595 22.946-55.363v-22.12c0-43.161-35.145-78.276-78.342-78.276h-15.766c-20.692 0-40.932 8.406-55.532 23.062l-46.47 46.66a12.17 12.17 0 0 1-8.625 3.583h-32.93c-20.769 0-40.689 8.246-55.38 22.927l-1.411 1.41c-14.682 14.672-22.931 34.577-22.931 55.333v15.639a81.06 81.06 0 0 0 22.94 56.505l.004.004c7.912 8.138 7.819 21.363-.207 29.389l-74.465 74.466A48.03 48.03 0 0 0 531.76-8.261V30.88c0 12.738 5.06 24.955 14.068 33.962l89.383 89.383c5.589 5.589 1.539 15.039-6.365 15.001h-.295a63.88 63.88 0 0 0-29.817 7.417l-80.898 42.89c-23.681 12.554-37.02 38.813-33.191 65.343l7.337 50.842a63.46 63.46 0 0 0 61.63 54.557l90.975 1.976 1.398.015c17.54 0 34.478-7.349 46.471-20.165 7.296-7.795 12.451-17.285 15.108-27.464 1.908-7.31 9.153-11.946 16.573-10.526a35.52 35.52 0 0 0 6.68.63h3.435c6.614 0 13.228-2.055 18.921-5.776 6.022 3.342 12.894 5.009 19.893 4.766 9.683-.336 18.919-4.422 26.003-11.506l3.612-3.614c7.216-7.214 11.191-16.811 11.191-27.018v-6.836c0-3.224-.403-6.399-1.183-9.462-2.149-8.433 4.443-16.587 13.145-16.62l21.046-.078c6.26-.023 12.088 2.842 16.218 7.546 4.746 5.406 11.704 8.825 19.45 8.825h13.034c14.275 0 25.887-11.603 25.887-25.865s-11.612-25.863-25.887-25.863h-13.034a9.64 9.64 0 0 1-9.602-9.46l-.852-65.238c-.344-26.306 9.431-51.739 27.304-71.043l39.062-42.19c9.688-10.464 26.053-10.545 36.101-.427l.199.199 41.557 41.531c11.867 11.844 27.634 18.366 44.396 18.366s32.529-6.523 44.419-18.391l49.156-49.131 6.079-6.074c18.959-18.932 23.809-47.829 12.061-71.922z" class="B"/><path d="M1453.143 17.454c-.262 36.175-22.061 68.417-55.535 82.139a89.26 89.26 0 0 1-97.211-19.522l-46.55-46.551c-16.903-16.903-26.209-39.372-26.209-63.271v-74.884c0-3.83-1.491-7.431-4.199-10.139l-24.103-24.102c-16.901-16.903-26.207-39.372-26.207-63.27v-60.312c0-3.83-1.491-7.431-4.199-10.139l-39.993-39.993c-16.899-16.898-26.207-39.369-26.207-63.27v-8.384c0-49.338 40.14-89.478 89.478-89.478a14.24 14.24 0 0 0 10.137-4.199l63.55-63.552c16.901-16.899 39.37-26.205 63.271-26.205h38.113c49.338 0 89.478 40.135 89.478 89.467l-3.614 495.666z"/></g><path d="M1292.461-514.906l-28.505 28.505 7.608 7.608c4.778 4.778 7.462 11.258 7.462 18.015v24.816c0 6.757-2.684 13.238-7.462 18.015s-7.462 11.258-7.462 18.015v74.57c0 20.643-8.201 40.441-22.798 55.038l-30.605 30.605v37.571c0 13.767 5.469 26.97 15.204 36.704l24.103 24.103c9.735 9.734 15.204 22.938 15.204 36.704v74.887a51.91 51.91 0 0 0 15.203 36.704l46.552 46.552c32.571 32.571 88.275 9.736 88.611-36.326l3.61-495.003c.21-28.815-23.091-52.287-51.907-52.287h-38.113a51.91 51.91 0 0 0-36.705 15.204z" class="U"/><path d="M1210.7-229.693v27.547c0 13.767 5.469 26.97 15.204 36.704l24.103 24.103c9.735 9.734 15.203 22.938 15.203 36.704v74.885a51.91 51.91 0 0 0 15.203 36.704l46.552 46.552c32.571 32.571 88.275 9.736 88.611-36.326l3.61-495.002c.21-28.815-23.091-52.287-51.907-52.287h-38.113a51.91 51.91 0 0 0-36.705 15.204l-24.961 24.96" stroke="#50b06d" stroke-dasharray="0 10.024" stroke-width="10" class="C N O"/><path d="M1362.508-11.096h-14.894l-4.036 36.831a3.45 3.45 0 0 0 3.431 3.824h16.177a3.45 3.45 0 0 0 3.431-3.831l-4.109-36.825z" fill="#b38150"/><g clip-path="url(#B)" class="B"><use href="#Z" style="mix-blend-mode:multiply" fill="#6a6863" opacity=".25"/></g><path d="M1355.097-12.267a20.24 20.24 0 0 0 5.935 14.318c3.801 3.798 8.956 5.93 14.333 5.93h20.385V-5.404c0-5.372-2.134-10.523-5.935-14.321a20.29 20.29 0 0 0-14.333-5.93h-20.385v13.389z" class="B P"/><g clip-path="url(#C)"><path d="M1355.097-25.655l45.366 38.775h-45.366v-38.775z" class="B H"/><path d="M1353.512-23.695l3.212-3.933 40.631 33.184-3.212 3.933z" class="L"/><g class="B K"><path d="M1378.812 10.175h-5.082v-8.54a2.541 2.541 0 1 1 5.082 0v8.54zm-10.164.376h-5.082V-6.301c0-1.401 1.136-2.536 2.538-2.536h.005c1.402 0 2.538 1.135 2.538 2.536v16.852z"/></g></g><path d="M1355.097-12.267a20.24 20.24 0 0 1-5.935 14.318c-3.801 3.798-8.956 5.93-14.333 5.93h-20.385V-5.404c0-5.372 2.134-10.523 5.935-14.321a20.29 20.29 0 0 1 14.333-5.93h20.385v13.389z" class="B P"/><g clip-path="url(#D)"><path d="M1355.097-25.655l-45.366 38.775h45.366v-38.775z" class="B H"/><path d="M1312.844 5.539l40.654-33.156 3.209 3.935-40.654 33.156z" class="L"/><g class="B K"><path d="M1331.383 10.175h5.082v-8.54a2.541 2.541 0 1 0-5.082 0v8.54zm10.163.376h5.082V-6.298c0-.673-.267-1.318-.744-1.795a2.54 2.54 0 0 0-1.796-.744c-.673 0-1.321.269-1.796.744a2.54 2.54 0 0 0-.744 1.795v16.849z"/></g></g><path d="M1355.109 7.982l-12.176-8.866c-6.725-4.897-7.485-14.637-1.601-20.516l4.259-4.256h19.035l4.259 4.256c5.884 5.879 5.124 15.619-1.601 20.516l-12.176 8.866z" class="B L"/><g clip-path="url(#E)"><path d="M1355.109-27.197h19.209V9.232h-19.209z" class="H"/><path d="M1352.558-29.323h5.082v44.28h-5.082z" fill="#5ebe3e"/><path d="M1337.081 4.469a2.54 2.54 0 0 1-2.127-1.145c-.771-1.173-.443-2.747.731-3.515l10.329-6.77a2.54 2.54 0 0 1 3.517.729c.771 1.173.443 2.747-.731 3.515l-10.329 6.77a2.52 2.52 0 0 1-1.39.416z" class="H"/><path d="M1373.112 4.469a2.53 2.53 0 0 1-1.39-.416l-10.325-6.77c-1.174-.769-1.502-2.342-.731-3.515s2.332-1.504 3.517-.729l10.325 6.77c1.174.769 1.502 2.342.731 3.515a2.54 2.54 0 0 1-2.127 1.145z" class="K"/></g><g class="B U"><path d="M1368.812 20.675a4.98 4.98 0 0 0-4.965 4.96 4.98 4.98 0 0 0-4.965-4.96 4.98 4.98 0 0 0-4.965 4.96 4.98 4.98 0 0 0-4.965-4.96 4.98 4.98 0 0 0-4.965 4.96 4.98 4.98 0 0 0-4.965-4.96 4.98 4.98 0 0 0-4.965 4.96l4.488 3.924 11.545 1.237 16.547-.818 7.138-4.344a4.98 4.98 0 0 0-4.965-4.96z"/><use href="#a"/></g><use href="#a" stroke="#50b06d" stroke-dasharray="0 10.001" stroke-width="10" class="C N O"/><path d="M1064.786 9.107h-13.107l-3.552 32.411a3.04 3.04 0 0 0 3.02 3.366h14.236c1.811 0 3.22-1.573 3.019-3.371l-3.616-32.406z" fill="#b38150"/><g clip-path="url(#F)" class="B"><use href="#b" style="mix-blend-mode:multiply" fill="#6a6863" opacity=".25"/></g><path d="M1058.265 8.077a17.81 17.81 0 0 0 5.223 12.6c3.345 3.342 7.882 5.219 12.613 5.219h17.939v-11.78a17.81 17.81 0 0 0-5.223-12.602c-3.345-3.34-7.882-5.219-12.613-5.219h-17.939V8.077z" class="B P"/><g clip-path="url(#G)"><path d="M1058.265-3.706l39.922 34.123h-39.922V-3.706z" class="B H"/><path d="M1056.868-1.98l2.827-3.461 35.755 29.201-2.827 3.461z" class="L"/><g class="B"><g class="K"><path d="M1079.133 27.825h-4.472V20.31c0-1.233 1.002-2.234 2.236-2.234s2.236 1.001 2.236 2.234v7.515zm-8.944.331h-4.472V13.327c0-1.233.999-2.232 2.234-2.232h.005c1.234 0 2.234.999 2.234 2.232v14.829z"/></g><g class="H"><path d="M1094.039 13.371V9.14h-6.826a2.12 2.12 0 0 0-1.498.621c-.396.395-.619.934-.619 1.495h0c0 .563.224 1.099.619 1.497a2.11 2.11 0 0 0 1.498.619h6.826zm0-8.699V.204h-13.418c-1.234 0-2.234.999-2.234 2.232v.004c0 1.233.999 2.232 2.234 2.232h13.418z"/></g></g></g><path d="M1058.265 8.077a17.81 17.81 0 0 1-5.223 12.6c-3.345 3.342-7.882 5.219-12.613 5.219h-17.939v-11.78a17.81 17.81 0 0 1 5.223-12.602c3.345-3.34 7.882-5.219 12.613-5.219h17.939V8.077z" class="B P"/><g clip-path="url(#H)"><path d="M1058.265-3.706l-39.923 34.123h39.923V-3.706z" class="B H"/><path d="M1021.081 23.744l35.775-29.176 2.824 3.463-35.775 29.176z" class="L"/><g class="B"><g class="K"><path d="M1037.396 27.825h4.472V20.31c0-1.233-1.002-2.234-2.236-2.234s-2.236 1.001-2.236 2.234v7.515zm8.944.331h4.472V13.329a2.23 2.23 0 0 0-.655-1.579 2.24 2.24 0 0 0-3.162 0 2.23 2.23 0 0 0-.655 1.579v14.827z"/></g><g class="H"><path d="M1022.49 13.608V9.14h6.71a2.23 2.23 0 0 1 1.579.655c.42.418.655.985.655 1.577v.004a2.23 2.23 0 0 1-2.234 2.231h-6.71zm0-8.936V.204h13.415a2.24 2.24 0 0 1 1.581.655 2.23 2.23 0 0 1 .655 1.579c0 .592-.235 1.162-.655 1.579a2.23 2.23 0 0 1-1.581.655h-13.415z"/></g></g></g><path d="M1058.275 25.895l-10.715-7.802c-5.918-4.309-6.587-12.88-1.409-18.054l3.748-3.745h16.751l3.748 3.745c5.178 5.174 4.509 13.745-1.409 18.054l-10.715 7.802z" class="B L"/><g clip-path="url(#I)"><path d="M1058.275-5.062h16.904v32.057h-16.904z" class="H"/><path d="M1056.03-6.933h4.472v38.966h-4.472z" fill="#5ebe3e"/><path d="M1042.411 12.617c-.728 0-1.444-.355-1.872-1.008-.678-1.033-.39-2.417.643-3.094l9.089-5.957c1.034-.681 2.419-.387 3.095.641.678 1.033.39 2.417-.643 3.094l-9.089 5.957a2.22 2.22 0 0 1-1.223.367z" class="H"/><path d="M1074.118 12.617a2.22 2.22 0 0 1-1.223-.367l-9.086-5.957a2.23 2.23 0 0 1-.643-3.094 2.23 2.23 0 0 1 3.095-.641l9.086 5.957a2.23 2.23 0 0 1 .643 3.094c-.428.653-1.144 1.008-1.872 1.008z" class="K"/><path d="M1042.411 22.803c-.728 0-1.444-.355-1.872-1.008-.678-1.033-.39-2.417.643-3.094l9.089-5.957c1.034-.681 2.419-.387 3.095.641s.39 2.417-.643 3.094l-9.089 5.957a2.22 2.22 0 0 1-1.223.367z" class="H"/><path d="M1074.118 22.803a2.22 2.22 0 0 1-1.223-.367l-9.086-5.957a2.23 2.23 0 1 1 2.452-3.735l9.086 5.957a2.23 2.23 0 0 1 .643 3.094c-.428.653-1.144 1.008-1.872 1.008z" class="K"/></g><g class="B"><path d="M1070.333 37.065a4.38 4.38 0 0 0-4.369 4.365 4.38 4.38 0 0 0-4.369-4.365 4.38 4.38 0 0 0-4.369 4.365 4.38 4.38 0 0 0-4.369-4.365 4.38 4.38 0 0 0-4.369 4.365 4.38 4.38 0 0 0-4.369-4.365 4.38 4.38 0 0 0-4.369 4.365l3.949 3.453 10.159 1.088 14.562-.72 6.282-3.822a4.38 4.38 0 0 0-4.369-4.365z" class="U"/><path d="M548.513,169.273c-14.273,0-25.885-11.602-25.885-25.865s11.612-25.863,25.885-25.863h13.034c14.275,0,25.887,11.602,25.887,25.863s-11.612,25.865-25.887,25.865h-13.034Z" class="T"/></g><rect x="539.172" y="134.075" width="31.716" height="18.667" rx="9.333" fill="#fcf4c7"/><g clip-path="url(#J)"><use href="#c" opacity=".412" stroke="#fff" class="C N O Y"/><use href="#d" class="B I"/><g clip-path="url(#K)" class="B"><use href="#e" class="Q"/><use href="#f" opacity=".2" class="F"/></g><use href="#g" fill="#daf4fd" class="B"/><use href="#h" class="R"/><use href="#i" fill="#99dded"/><use href="#j" fill="#8bcddd"/><use href="#k" fill="#51b1ba"/><use href="#l" fill="#5dcad3"/><use href="#m" class="I"/><use href="#n" class="M"/><path d="M516.396 130.084l2.5-1.529 4.476 7.32-2.5 1.529z" class="I"/><path d="M516.396 130.084l2.5-1.529 1.918 3.137-2.5 1.529z" class="M"/><path d="M505.896 136.504l2.5-1.529 4.476 7.32-2.5 1.529z" class="I"/><path d="M505.897 136.505l2.5-1.529 1.918 3.137-2.5 1.529z" class="M"/><rect x="490.555" y="110.539" width="43.953" height="20.837" rx="2.449" transform="matrix(.853132 -.521695 .521695 .853132 12.171 285.146)" class="Q"/><g clip-path="url(#L)"><rect x="490.322" y="110.934" width="42.78" height="19.611" rx="2.304" transform="matrix(.853132 -.521695 .521695 .853132 12.163 284.687)" class="R"/><g class="G F"><use href="#o"/></g><g class="G F"><path d="M489.266 128.195c-.307 0-.608-.155-.78-.437-.263-.43-.127-.993.303-1.255l37.998-23.235c.432-.262.993-.127 1.256.303s.127.993-.303 1.255l-37.998 23.235a.91.91 0 0 1-.476.134z"/></g><g class="G F"><use href="#p"/></g><g class="G F"><use href="#q"/></g><use href="#r" fill="#4ba582" class="B"/><g class="G F"><use href="#s"/></g></g></g><g opacity=".2"><g clip-path="url(#M)"><use href="#c" opacity=".412" stroke="#fff" class="C N O Y"/><use href="#d" class="B I"/><g clip-path="url(#N)" class="B"><use href="#e" class="Q"/><use href="#f" opacity=".2" class="F"/></g><use href="#g" fill="#daf4fd" class="B"/><use href="#h" class="R"/><use href="#i" fill="#99dded"/><use href="#j" fill="#8bcddd"/><use href="#k" fill="#51b1ba"/><use href="#l" fill="#5dcad3"/><use href="#m" class="I"/><use href="#n" class="M"/><path d="M516.396 130.084l2.5-1.529 4.476 7.32-2.5 1.529z" class="I"/><path d="M516.396 130.084l2.5-1.529 1.918 3.137-2.5 1.529z" class="M"/><path d="M505.896 136.504l2.5-1.529 4.476 7.32-2.5 1.529z" class="I"/><path d="M505.897 136.505l2.5-1.529 1.918 3.137-2.5 1.529z" class="M"/><rect x="490.555" y="110.539" width="43.953" height="20.837" rx="2.449" transform="matrix(.853132 -.521695 .521695 .853132 12.171 285.146)" class="Q"/><g clip-path="url(#O)"><rect x="490.322" y="110.934" width="42.78" height="19.611" rx="2.304" transform="matrix(.853132 -.521695 .521695 .853132 12.163 284.687)" class="R"/><g class="G F"><use href="#o"/></g><g class="G F"><path d="M489.266 128.195c-.307 0-.608-.155-.78-.437-.263-.43-.127-.993.303-1.255l37.998-23.235c.432-.262.993-.127 1.256.303s.127.993-.303 1.255l-37.998 23.235a.91.91 0 0 1-.476.134z"/></g><g class="G F"><use href="#p"/></g><g class="G F"><use href="#q"/></g><use href="#r" fill="#4ba582" class="B"/><g class="G F"><use href="#s"/></g></g></g></g><path d="M331.142 293.054c19.853-19.852 30.787-46.248 30.787-74.326v-18.264c0-28.077-10.933-54.473-30.787-74.325l-61.246-61.247c-19.854-19.853-46.25-30.787-74.325-30.787h-20.813c-28.137 0-55.403 10.724-75.354 30.563-20.216 20.103-31.235 46.908-31.008 75.388.069 8.609-3.384 17.039-9.472 23.128L9.113 212.995c-19.746 19.746-31.424 46.357-31.663 74.28-.243 28.422 10.712 55.18 30.783 75.25l21.246 21.247a105.12 105.12 0 0 0 74.328 30.789h62.287c22.601 0 44.106-7.096 61.992-20.215l61.732-59.971 41.324-41.323z" class="T"/><path d="M305.414 151.867l-61.245-61.245a68.73 68.73 0 0 0-48.598-20.13h-22.066c-38.171 0-69.03 31.106-68.725 69.276h0c.147 18.418-7.104 36.123-20.128 49.146l-13.551 13.552 39.045 39.044c19.764 19.764 51.808 19.764 71.572 0h0c19.764-19.764 51.808-19.764 71.572 0l38.97 38.97 13.154-13.154c12.889-12.889 20.13-30.37 20.13-48.597v-18.264a68.73 68.73 0 0 0-20.13-48.598z" fill="#fcf4c7"/><g class="B"><path d="M275.825,167.595c0,15.015,16.323,27.187,36.459,27.187s36.459-12.172,36.459-27.187-16.323-27.187-36.459-27.187-36.459,12.172-36.459,27.187Z" fill="#9bdceb"/><path d="M312.284,133.58c-20.136,0-36.459,10.749-36.459,24.01s16.323,24.01,36.459,24.01,36.459-10.75,36.459-24.01-16.323-24.01-36.459-24.01Z" style="mix-blend-mode:multiply" fill="#cbdcec"/><path d="M312.284,126.783c-20.418,0-36.97,11.789-36.97,26.333s16.552,26.333,36.969,26.333,36.97-11.789,36.97-26.333-16.552-26.333-36.969-26.333Z" fill="#312d4d"/><path d="M312.284,123.575c-20.418,0-36.97,11.789-36.97,26.333s16.552,26.333,36.969,26.333,36.97-11.789,36.97-26.333-16.552-26.333-36.969-26.333Z" fill="#55529c"/></g><g clip-path="url(#P)"><g stroke="#4a488a" class="C N O"><g stroke-width="7.179"><path style="mix-blend-mode:multiply" d="M327.261 104.98v91.497m-29.955-91.497v91.497" class="G"/></g><g stroke-width="3.59"><path style="mix-blend-mode:multiply" d="M269.077 139.126h87.565m-87.565-10.835h87.565" class="G"/></g></g><path style="mix-blend-mode:multiply" d="M354.712 131.903l-86.788 41.263 82.289 10.345 4.499-51.608z" fill="#55529c" opacity=".148" class="B"/></g><path d="M244.436,123.669c0-6.551-5.318-11.867-11.868-11.867h-72.405c-6.55,0-11.868,5.317-11.868,11.867s5.318,11.868,11.868,11.868h72.405c6.55,0,11.868-5.317,11.868-11.868Z" fill="#f7e27e"/><path d="M148.92 76.131c.073-.024.077-.017.148-.038.154-.033.254-.007.43.003.555.071 1.12.46 1.547 1.051.137.088.21.213.282.339l.113.195 25.285 43.794-3.68-.013-24.36-42.191-.113-.195c-.109-.189-.222-.383-.263-.601-.256-.744-.242-1.46.085-1.927.096-.131.14-.202.265-.283l.128-.073c.068-.03.072-.023.133-.06z" class="I"/><path d="M183.097 79.663c-7.74-13.408-24.879-18.001-38.287-10.259s-17.999 24.88-10.259 38.289l48.547-28.03z" fill="#648eec"/><path d="M187.628 116.318h39.33v14.774h-39.33z" fill="#5ec8a2"/><path d="M207.046 101.028a1.95 1.95 0 0 0-1.375.572c-.314.312-.501.728-.549 1.169h-.011v.111l-.009.096v1.997h.009v3.477h4.37v-3.477h7.756v3.477h4.37v-3.486c.543-.023 1.053-.239 1.434-.622.403-.404.633-.952.633-1.529v-1.785h-16.629z" fill="#0c1b1c"/><g fill="#7c4b81"><path d="M210.773 111.726h5.244v5.681h-5.244zm-.909 3.758h-1.631c-.94 0-1.737.705-1.843 1.643l-1.159 10.198h-1.946v1.315h4.931v-.007h.154l1.494-13.15z"/></g><g fill="#965d9d"><path d="M224.307 118.78c.454 0 .881-.217 1.144-.585.27-.361.342-.835.204-1.269l-3.018-9.356-3.399.033 2.742 7.89h-6.246v3.288h8.574z"/><path d="M218.201 104.968h-9.547a2.25 2.25 0 0 0-2.25 2.25v.082h0a2.26 2.26 0 0 0-2.258 2.258 2.26 2.26 0 0 0 2.258 2.258c.062 1.195 1.042 2.151 2.25 2.151h9.547a2.25 2.25 0 0 0 2.25-2.25v-4.5a2.25 2.25 0 0 0-2.25-2.25z"/></g><path d="M220.236 115.496h-2.627l-8.367-.006h-1.007a1.86 1.86 0 0 0-1.844 1.647l-.336 2.955h2.836l-.602 7.908c-.033.419.113.834.397 1.14.287.311.688.485 1.108.485h7.261c.42 0 .821-.174 1.108-.485s.43-.721.397-1.14l-.697-9.157h2.372v-3.347z" fill="#e49636"/><path d="M221.079 125.509l-.18-.312c-.495-.857-1.592-1.151-2.448-.657l-7.557 4.363v-6.52c0-.473-.189-.929-.525-1.266s-.792-.526-1.267-.526h-.36a1.79 1.79 0 0 0-1.792 1.792v8.485c-1.068.048-1.916.923-1.916 1.996v.296h5.768v1.724h.296a2 2 0 0 0 2.006-2.007v-.694l7.321-4.227c.856-.494 1.15-1.591.655-2.448z" fill="#965d9d"/><g fill="#0c1b1c"><path d="M211.227 108.068c0-.214-.17-.385-.38-.385h-.765c-.214 0-.385.17-.385.385v2.508c0 .214.171.385.385.385h.765a.38.38 0 0 0 .38-.385v-2.508zm6.776 0c0-.214-.171-.385-.38-.385h-.765a.38.38 0 0 0-.384.385v2.508c0 .214.171.385.384.385h.765a.38.38 0 0 0 .38-.385v-2.508z"/></g><g class="S"><path d="M932.029-54.52c0-11.819-4.695-23.153-13.052-31.511h0a44.34 44.34 0 0 0-24.266-12.45c-13.681-2.243-28.205 1.899-38.755 12.45l-8.189 8.188c-8.357 8.357-19.692 13.052-31.51 13.052h-45.114a44.56 44.56 0 0 0-31.51 13.052l-5.706 5.706c-17.248 17.249-17.424 45.16-.393 62.624l43.209 44.308c8.387 8.6 19.891 13.45 31.903 13.45h35.027a44.54 44.54 0 0 0 16.694-3.253c5.493-2.22 10.545-5.528 14.816-9.798l43.792-43.792c8.357-8.357 13.052-19.692 13.052-31.511v-40.513zM629.223 65.7c6.461 0 12.658-2.567 17.227-7.135h0a24.24 24.24 0 0 0 6.806-13.266c1.226-7.479-1.038-15.419-6.806-21.187l-4.477-4.477a24.36 24.36 0 0 1-7.136-17.227v-24.663c0-6.461-2.567-12.658-7.135-17.227l-3.119-3.119c-9.43-9.43-24.688-9.525-34.236-.215l-24.223 23.622a24.36 24.36 0 0 0-7.353 17.441v19.149a24.34 24.34 0 0 0 1.779 9.127 24.36 24.36 0 0 0 5.357 8.1l23.941 23.941a24.36 24.36 0 0 0 17.227 7.135h22.148z"/></g><g clip-path="url(#Q)"><g clip-path="url(#R)"><path d="M392.353,30.011l79.692-20.82s-.301-1.01,0,0c.393,1.319-1.577,9.471-2.124,10.734-.459,1.059-.252.678-.459,1.059-5.236,9.655-15.262,15.857-26.235,16.349-20.775.931-50.874-7.323-50.874-7.323Z" class="B V"/><g class="C W X Z"><path d="M472.19 8.207c-8.85 32.897-33.246 29.676-81.491 22.09m79.246-23.922C455.005 37.64 423.55 31.4 390.161 30.008" class="J"/></g></g><g class="B"><use href="#t" fill="#eee"/><g class="E"><use href="#u"/><use href="#v"/></g></g><use href="#w" fill="#230327"/><g clip-path="url(#S)"><use href="#x" class="B V"/><g class="C W X Z"><use href="#y" class="J"/><use href="#z" class="J"/></g></g><g class="B"><use href="#AA" fill="#eee"/><g class="E"><use href="#AB"/><use href="#AC"/></g></g><use href="#AD" fill="#230327"/><path d="M354.67 115.197c-2.508 1.962-3.513-.954-6.697-.954s-3.185 1.067-6.37 1.067-3.184-1.067-6.368-1.067-3.185 1.067-6.37 1.067-3.185-1.067-6.371-1.067-3.185 1.067-6.37 1.067-3.185-1.067-6.37-1.067-3.185 1.067-6.371 1.067-3.183-1.067-6.365-1.067-3.184 1.067-6.368 1.067-3.186-1.067-6.371-1.067-3.186 1.067-6.371 1.067-3.186-1.067-6.371-1.067-3.186 1.067-6.373 1.067-3.185-1.067-6.369-1.067-3.187 1.067-6.375 1.067-3.19-1.067-6.379-1.067-4.192 2.916-6.707.955c-1.961-1.529.862-2.907.862-5.393s-1.067-2.487-1.067-4.974 1.067-2.486 1.067-4.973-1.067-2.487-1.067-4.974 1.067-2.487 1.067-4.975-1.067-2.487-1.067-4.974 1.067-2.485 1.067-4.969-1.067-2.487-1.067-4.974 1.067-2.485 1.067-4.971-1.067-2.487-1.067-4.973 1.067-2.488 1.067-4.976-1.067-2.488-1.067-4.976 1.067-2.488 1.067-4.976-1.067-2.488-1.067-4.977 1.067-2.487 1.067-4.974-1.067-2.489-1.067-4.979 1.067-2.491 1.067-4.982-2.824-3.867-.863-5.402c2.508-1.962 3.513.954 6.697.954s3.185-1.067 6.37-1.067 3.184 1.067 6.368 1.067 3.185-1.067 6.37-1.067 3.185 1.067 6.371 1.067 3.185-1.067 6.37-1.067 3.185 1.067 6.37 1.067 3.185-1.067 6.371-1.067 3.183 1.067 6.365 1.067 3.184-1.067 6.368-1.067 3.186 1.067 6.371 1.067 3.186-1.067 6.371-1.067 3.186 1.067 6.371 1.067 3.186-1.067 6.373-1.067 3.185 1.067 6.369 1.067 3.187-1.067 6.375-1.067 3.19 1.067 6.379 1.067 4.192-2.916 6.707-.955c1.961 1.529-.862 2.907-.862 5.393s1.067 2.487 1.067 4.974-1.067 2.486-1.067 4.973 1.067 2.487 1.067 4.974-1.067 2.487-1.067 4.975 1.067 2.487 1.067 4.974-1.067 2.485-1.067 4.969 1.067 2.487 1.067 4.974-1.067 2.485-1.067 4.971 1.067 2.487 1.067 4.973-1.067 2.488-1.067 4.976 1.067 2.488 1.067 4.976-1.067 2.488-1.067 4.976 1.067 2.488 1.067 4.977-1.067 2.487-1.067 4.974 1.067 2.489 1.067 4.979-1.675 2.704-1.05 5.116c.734 2.835 2.807 3.734.846 5.269z" class="B S"/><g opacity=".05" class="E"><path d="M390.781,30.276l81.153-20.82s-.301-1.01,0,0c.393,1.319-1.577,9.471-2.124,10.734-.459,1.059-.252.678-.459,1.059-5.236,9.655-15.262,15.857-26.235,16.349-20.775.931-52.335-7.323-52.335-7.323Z" class="B"/><g clip-path="url(#T)" class="B"><path d="M390.681,30.276l79.692-20.82s-.301-1.01,0,0c.393,1.319-1.577,9.471-2.124,10.734-.459,1.059-.252.678-.459,1.059-5.236,9.655-15.262,15.857-26.235,16.349-20.775.931-50.874-7.323-50.874-7.323Z"/><path d="M472.898 8.569c-8.85 32.897-33.954 29.315-82.2 21.728M471.964 7.79c-14.94 31.265-48.414 23.61-81.803 22.218" class="J"/></g><g class="B"><use href="#t"/><use href="#u"/><use href="#v"/></g><use href="#w"/></g><g opacity=".05" class="E"><path d="M275.898,14.598l71.451,24.629s.275-.91,0,0c-.359,1.188-5.891,6.349-6.931,7.028-.872.57-.527.385-.872.57-8.738,4.67-19.369,4.361-27.876-.718-16.107-9.617-35.773-31.508-35.773-31.508Z" class="B"/><g clip-path="url(#U)" class="B"><use href="#x"/><use href="#y" class="J"/><use href="#z" class="J"/></g><g class="B"><use href="#AA"/><use href="#AB"/><use href="#AC"/></g><use href="#AD"/></g></g><g clip-path="url(#V)"><g clip-path="url(#W)"><path d="M440.099 46.503L567.164-102.66s1.853 1.69 0 0c-2.419-2.206-21.92-6.424-25.192-6.559-2.744-.113-1.714-.161-2.744-.113-26.101 1.225-49.762 16.284-62.17 39.279C453.565-26.516 440.1 46.503 440.1 46.503z" class="B V"/><g stroke-width="1.045" class="C W X"><use href="#AE" class="J"/><use href="#AF" class="J"/></g></g><g class="B E"><use href="#AG"/><path d="M567.164-102.661c-11.521 12.633-48.905 33.236-67.432 55.856C466.699-6.474 440.1 46.502 440.1 46.502l6.731 6.025s55.423-68.508 66.716-79.794c1.103-1.102 2.175-2.231 3.226-3.383 8.236-9.029 41.168-38.656 58.921-57.966a7.26 7.26 0 0 0 1.087-1.549h0c3.437-6.562-2.393-14.138-9.616-12.496h0z"/><use href="#AH"/></g><path d="M442.851-6.363h0c3.664-1.975 7.608-4.786 8.497-8.853l.835-3.82 2.575 2.204c3.411 2.919 7.214 1.869 10.151-1.526l3.059-3.537h0c3.436 4.225 9.967 3.962 13.052-.525l.533-.775.394.65c2.839 4.684 9.395 5.296 13.051 1.218l.581-.647 2.287 3.254a8.16 8.16 0 0 0 11.044 2.199l2.829-1.794.286.859c1.778 5.333 5.481 9.81 10.385 12.557h0l-79.558-1.462z" fill="#5fcfd4" class="B"/><g clip-path="url(#X)" class="B E"><g opacity=".05"><use href="#AI"/><g clip-path="url(#Y)"><use href="#AI"/><path d="M572.046-103.774c-79.627-15.084-95.412 37.183-129.087 148.38m129.788-145.573c-82.433-.351-100.674 79.276-132.244 152.238" class="J"/></g><path d="M442.082 46.535h0c-5.159 2.995-9.151 6.564-9.336 12.527l-1.006 32.369c-.028.907.56 1.736 1.471 1.988.617.17 1.279.001 1.792-.381l11.657-8.673c1.552-1.155 2.583-2.878 2.866-4.792 1.476-9.992-.782-25.494-.714-27.013.001-.027-6.707-6.039-6.731-6.025z"/><path d="M567.981-103.462c-11.521 12.633-48.905 33.236-67.432 55.856-33.033 40.331-59.632 93.307-59.632 93.307l6.731 6.025s55.423-68.508 66.716-79.794c1.103-1.102 2.175-2.231 3.226-3.383 8.236-9.029 41.168-38.656 58.921-57.966a7.26 7.26 0 0 0 1.087-1.549h0c3.437-6.562-2.393-14.138-9.616-12.496h0z"/><path d="M448.615 50.317h0c.288 5.959-.541 11.249-5.447 14.643l-26.631 18.427c-.746.516-1.762.473-2.468-.155-.478-.425-.696-1.073-.654-1.712l.95-14.499c.127-1.931 1.014-3.732 2.467-5.009 7.587-6.667 21.83-13.191 23.068-14.074a581.92 581.92 0 0 1 8.715 2.379z"/></g></g></g></g></svg>