<svg xmlns="http://www.w3.org/2000/svg" width="1500" height="145" xmlns:v="https://vecta.io/nano"><style><![CDATA[.B{fill-rule:evenodd}.C{fill:#408f43}.D{fill:none}.E{clip-rule:evenodd}.F{fill:#357963}.G{fill:#51b133}.H{fill:#4aa22e}.I{stroke-linejoin:round}.J{fill:#50b06d}.K{stroke-linecap:round}.L{stroke-width:10}.M{fill:#b38150}.N{fill:#5ebe3e}.O{stroke:#50b06d}.P{fill:#6a6863}.Q{opacity:.25}.R{opacity:.5}.S{fill:#fff}.T{fill:#2f3189}.U{fill:#98401c}.V{fill:#f3b64b}.W{stroke-dasharray:0 10}.X{fill:#61d1d5}.Y{fill:#3d8950}.Z{fill:#9bdceb}.a{stroke-miterlimit:10}.b{fill:#f1e54c}.c{stroke:#98401c}.d{stroke-width:.67}.e{opacity:.269}.f{fill:#f0a146}]]></style><defs><clipPath id="A"><path d="M0 0h1500v145H0z" class="D"/></clipPath><clipPath id="B"><path d="M1290.925 37.122h-14.894l-4.036 36.831a3.45 3.45 0 0 0 3.431 3.824h16.177a3.45 3.45 0 0 0 3.431-3.831l-4.109-36.825z" class="D"/></clipPath><clipPath id="C"><path d="M1283.515 35.952a20.24 20.24 0 0 0 5.935 14.318c3.801 3.798 8.956 5.93 14.333 5.93h20.385V42.814c0-5.372-2.134-10.523-5.935-14.321a20.29 20.29 0 0 0-14.333-5.93h-20.385v13.389z" class="D E"/></clipPath><clipPath id="D"><path d="M1283.515 35.952a20.24 20.24 0 0 1-5.935 14.318c-3.801 3.798-8.956 5.93-14.333 5.93h-20.385V42.814c0-5.372 2.134-10.523 5.935-14.321a20.29 20.29 0 0 1 14.333-5.93h20.385v13.389z" class="D E"/></clipPath><clipPath id="E"><path d="M1283.526 56.2l-12.176-8.866c-6.725-4.897-7.485-14.637-1.601-20.516l4.259-4.256h19.035l4.259 4.256c5.884 5.879 5.124 15.619-1.601 20.516l-12.176 8.866z" class="D E"/></clipPath><clipPath id="F"><path d="M1362.508 133.904h-14.894l-4.036 36.831a3.45 3.45 0 0 0 3.431 3.824h16.177a3.45 3.45 0 0 0 3.431-3.831l-4.109-36.825z" class="D"/></clipPath><clipPath id="G"><path d="M1355.097 132.733a20.24 20.24 0 0 0 5.935 14.318c3.801 3.798 8.956 5.93 14.333 5.93h20.385v-13.386c0-5.372-2.134-10.523-5.935-14.321a20.29 20.29 0 0 0-14.333-5.93h-20.385v13.389z" class="D E"/></clipPath><clipPath id="H"><path d="M1355.097 132.733a20.24 20.24 0 0 1-5.935 14.318c-3.801 3.798-8.956 5.93-14.333 5.93h-20.385v-13.386c0-5.372 2.134-10.523 5.935-14.321a20.29 20.29 0 0 1 14.333-5.93h20.385v13.389z" class="D E"/></clipPath><clipPath id="I"><path d="M1355.109 152.982l-12.176-8.866c-6.725-4.897-7.485-14.637-1.601-20.516l4.259-4.256h19.035l4.259 4.256c5.884 5.879 5.124 15.619-1.601 20.516l-12.176 8.866z" class="D E"/></clipPath><clipPath id="J"><path d="M1338.337,77.733h-9.474l-2.568,23.429c-.142,1.298.875,2.433,2.183,2.433h10.29c1.309,0,2.327-1.137,2.182-2.437l-2.614-23.424Z" class="D"/></clipPath><clipPath id="K"><path d="M1333.623 76.988a12.88 12.88 0 0 0 3.775 9.108c2.418 2.416 5.697 3.772 9.117 3.772h12.967v-8.515c0-3.417-1.358-6.694-3.775-9.109s-5.697-3.772-9.117-3.772h-12.967v8.517z" class="D E"/></clipPath><clipPath id="L"><path d="M1333.623 76.988a12.88 12.88 0 0 1-3.775 9.108c-2.418 2.416-5.697 3.772-9.117 3.772h-12.967v-8.515c0-3.417 1.358-6.694 3.775-9.109s5.697-3.772 9.117-3.772h12.967v8.517z" class="D E"/></clipPath><clipPath id="M"><path d="M1333.63 89.868l-7.745-5.639a8.61 8.61 0 0 1-1.018-13.05l2.709-2.707h12.108l2.709 2.707a8.61 8.61 0 0 1-1.018 13.05l-7.745 5.639z" class="D E"/></clipPath><clipPath id="N"><path d="M1284.457,100.381h-9.474l-2.568,23.429c-.142,1.298.875,2.433,2.183,2.433h10.29c1.309,0,2.327-1.137,2.182-2.437l-2.614-23.424Z" class="D"/></clipPath><clipPath id="O"><path d="M1279.743 99.636a12.88 12.88 0 0 0 3.775 9.108c2.418 2.416 5.697 3.772 9.117 3.772h12.967v-8.515c0-3.417-1.358-6.694-3.775-9.109s-5.697-3.772-9.117-3.772h-12.967v8.517z" class="D E"/></clipPath><clipPath id="P"><path d="M1279.743 99.636a12.88 12.88 0 0 1-3.775 9.108c-2.418 2.416-5.697 3.772-9.117 3.772h-12.967v-8.515c0-3.417 1.358-6.694 3.775-9.109s5.697-3.772 9.117-3.772h12.967v8.517z" class="D E"/></clipPath><clipPath id="Q"><path d="M1279.751 112.516l-7.745-5.639a8.61 8.61 0 0 1-1.018-13.05l2.709-2.707h12.108l2.709 2.707a8.61 8.61 0 0 1-1.018 13.05l-7.745 5.639z" class="D E"/></clipPath><clipPath id="R"><path d="M1317.502 9.207a2.99 2.99 0 0 1-2.204-.97 2.98 2.98 0 0 1-.771-2.279l11.225-125.706c.219-2.453 2.275-4.319 4.74-4.319h10.307a4.76 4.76 0 0 1 4.744 4.361l2.016 24.176h7.331c1.342 0 2.566.752 3.166 1.951l3.315 6.624c.309.618.489 1.293.527 1.984l2.322 41.76 12.971 3.703c2.186.624 3.69 2.62 3.69 4.891V6.222c0 .791-.315 1.551-.875 2.11s-1.32.874-2.112.874h-60.393z" class="D E"/></clipPath><clipPath id="S"><path d="M1374.304-.466h-9.474l-2.568,23.429c-.142,1.298.875,2.433,2.183,2.433h10.29c1.309,0,2.327-1.137,2.182-2.437l-2.614-23.424Z" class="D"/></clipPath><clipPath id="T"><path d="M1369.59-1.21a12.88 12.88 0 0 0 3.775 9.108c2.418 2.416 5.697 3.772 9.117 3.772h12.967V3.155c0-3.417-1.358-6.694-3.775-9.109s-5.697-3.772-9.117-3.772h-12.967v8.516z" class="D E"/></clipPath><clipPath id="U"><path d="M1369.59-1.21a12.88 12.88 0 0 1-3.775 9.108c-2.418 2.416-5.697 3.772-9.117 3.772h-12.967V3.155c0-3.417 1.358-6.694 3.775-9.109s5.697-3.772 9.117-3.772h12.967v8.516z" class="D E"/></clipPath><clipPath id="V"><path d="M1369.597 11.67l-7.745-5.639a8.61 8.61 0 0 1-1.018-13.05l2.709-2.707h12.108l2.709 2.707a8.61 8.61 0 0 1-1.018 13.05l-7.745 5.639z" class="D E"/></clipPath><clipPath id="W"><path d="M1373.553,42.095h-9.474l-2.568,23.429c-.142,1.298.875,2.433,2.183,2.433h10.29c1.309,0,2.327-1.137,2.182-2.437l-2.614-23.424Z" class="D"/></clipPath><clipPath id="X"><path d="M1368.839 41.351a12.88 12.88 0 0 0 3.775 9.108c2.418 2.416 5.697 3.772 9.117 3.772h12.967v-8.515c0-3.417-1.358-6.694-3.775-9.109s-5.697-3.772-9.117-3.772h-12.967v8.517z" class="D E"/></clipPath><clipPath id="Y"><path d="M1368.839 41.351a12.88 12.88 0 0 1-3.775 9.108c-2.418 2.416-5.697 3.772-9.117 3.772h-12.967v-8.515c0-3.417 1.358-6.694 3.775-9.109s5.697-3.772 9.117-3.772h12.967v8.517z" class="D E"/></clipPath><clipPath id="Z"><path d="M1368.847 54.231l-7.745-5.639a8.61 8.61 0 0 1-1.018-13.05l2.709-2.707h12.108l2.709 2.707a8.61 8.61 0 0 1-1.018 13.05l-7.745 5.639z" class="D E"/></clipPath><clipPath id="a"><path d="M870.326-37.494c-21.708,0-39.305,13.553-39.305,30.273s17.598,30.273,39.305,30.273,39.305-13.554,39.305-30.273-17.598-30.273-39.305-30.273Z" class="D E"/></clipPath><clipPath id="b"><path d="M856.853-10.987h28.384v30.608h-28.384z" class="D"/></clipPath><clipPath id="c"><path d="M856.844-29.615v47.329l28.403-.527v-46.802h-28.403z" class="D E"/></clipPath><clipPath id="d"><path d="M870.326-62.171c-20.418,0-36.97,11.789-36.97,26.333s16.552,26.333,36.969,26.333,36.97-11.789,36.97-26.333-16.552-26.333-36.969-26.333Z" class="D E"/></clipPath><clipPath id="e"><path d="M1044.335 96.861h-13.107l-3.552 32.411a3.04 3.04 0 0 0 3.02 3.366h14.236c1.811 0 3.22-1.573 3.019-3.371l-3.616-32.406z" class="D"/></clipPath><clipPath id="f"><path d="M1037.813 95.831a17.81 17.81 0 0 0 5.223 12.6c3.345 3.342 7.882 5.219 12.613 5.219h17.939v-11.78a17.81 17.81 0 0 0-5.223-12.602c-3.345-3.34-7.882-5.219-12.613-5.219h-17.939v11.782z" class="D E"/></clipPath><clipPath id="g"><path d="M1037.813 95.831a17.81 17.81 0 0 1-5.223 12.6c-3.345 3.342-7.882 5.219-12.613 5.219h-17.939v-11.78a17.81 17.81 0 0 1 5.223-12.602c3.345-3.34 7.882-5.219 12.613-5.219h17.939v11.782z" class="D E"/></clipPath><clipPath id="h"><path d="M1037.823 113.65l-10.715-7.802c-5.918-4.309-6.587-12.88-1.409-18.054l3.748-3.745h16.751l3.748 3.745c5.178 5.174 4.509 13.745-1.409 18.054l-10.715 7.802z" class="D E"/></clipPath><clipPath id="i"><path d="M1058.265 153.077a17.81 17.81 0 0 0 5.223 12.6c3.345 3.342 7.882 5.219 12.613 5.219h17.939v-11.78a17.81 17.81 0 0 0-5.223-12.602c-3.345-3.34-7.882-5.219-12.613-5.219h-17.939v11.782z" class="D E"/></clipPath><clipPath id="j"><path d="M1058.265 153.077a17.81 17.81 0 0 1-5.223 12.6c-3.345 3.342-7.882 5.219-12.613 5.219h-17.939v-11.78a17.81 17.81 0 0 1 5.223-12.602c3.345-3.34 7.882-5.219 12.613-5.219h17.939v11.782z" class="D E"/></clipPath><clipPath id="k"><path d="M1058.275 170.895l-10.715-7.802c-5.918-4.309-6.587-12.88-1.409-18.054l3.748-3.745h16.751l3.748 3.745c5.178 5.174 4.509 13.745-1.409 18.054l-10.715 7.802z" class="D E"/></clipPath><clipPath id="l"><path d="M1124.743 93.644c-.383-.383-.905-1.138-1.396-1.028-.684.153-1.283.536-1.775 1.028q-.056.056 0 0c-.135.135.023-.023-.526.525a2.98 2.98 0 0 0-.138 4.071c.073.083.203.083.282.005l1.005-1.004c.833.398 1.859.26 2.549-.429a2.24 2.24 0 0 0 0-3.168z" class="D"/></clipPath><clipPath id="m"><path d="M244.818 72.651h15.199l4.119 37.585c.228 2.083-1.404 3.903-3.502 3.903h-16.508a3.52 3.52 0 0 1-3.501-3.91l4.193-37.579z" class="D"/></clipPath><clipPath id="n"><path d="M252.38 71.457c0 5.479-2.178 10.736-6.057 14.611a20.69 20.69 0 0 1-14.626 6.052h-20.802V78.46c0-5.482 2.178-10.738 6.057-14.614s9.14-6.052 14.626-6.052h20.802v13.663z" class="D E"/></clipPath><clipPath id="o"><path d="M252.38 71.457c0 5.479 2.178 10.736 6.057 14.611a20.69 20.69 0 0 0 14.626 6.052h20.802V78.46c0-5.482-2.178-10.738-6.057-14.614s-9.14-6.052-14.626-6.052H252.38v13.663z" class="D E"/></clipPath><clipPath id="p"><path d="M252.369 92.12l12.425-9.047c6.863-4.997 7.639-14.937 1.634-20.936l-4.346-4.343h-19.425l-4.346 4.343c-6.005 6-5.229 15.939 1.634 20.936l12.425 9.047z" class="D E"/></clipPath><clipPath id="q"><path d="M161.724 13.619h-30.31c-1.574 0-3.108.501-4.378 1.43l-7.496 5.48a7.42 7.42 0 0 1-4.378 1.43h-76.23a2.7 2.7 0 0 1-2.698-2.698V-3.625a2.7 2.7 0 0 1 2.698-2.698h122.792a2.7 2.7 0 0 1 2.698 2.698v14.547a2.7 2.7 0 0 1-2.698 2.698z" class="D"/></clipPath><clipPath id="r"><path d="M28.572 35.201c1.664 0 2.969-1.427 2.822-3.084l-.108-1.209-5.771-64.683c-.125-1.4-1.298-2.474-2.704-2.474h-5.888a2.72 2.72 0 0 0-2.709 2.492l-1.151 13.816h-4.19c-.764 0-1.462.431-1.804 1.114l-1.893 3.786c-.177.353-.279.739-.301 1.134L3.549 9.957l-7.406 2.116c-1.247.356-2.107 1.496-2.107 2.793v23.292c0 .339.084.678.267.964.319.499.864.79 1.439.79H8.708c.819 0 1.484-.664 1.484-1.484v-1.743c0-.819.664-1.484 1.484-1.484h16.897z" class="D E"/></clipPath><clipPath id="s"><path d="M83.815 69.732h11.514l3.12 28.471c.173 1.578-1.064 2.956-2.653 2.956H83.291a2.67 2.67 0 0 1-2.652-2.962l3.176-28.466z" class="D"/></clipPath><clipPath id="t"><path d="M89.544 68.827c0 4.151-1.65 8.132-4.588 11.068a15.67 15.67 0 0 1-11.08 4.584H58.118V74.131a15.65 15.65 0 0 1 4.588-11.07 15.68 15.68 0 0 1 11.08-4.584h15.758v10.35z" class="D E"/></clipPath><clipPath id="u"><path d="M89.544 68.827c0 4.151 1.65 8.132 4.588 11.068a15.67 15.67 0 0 0 11.08 4.584h15.758V74.131a15.65 15.65 0 0 0-4.588-11.07 15.68 15.68 0 0 0-11.08-4.584H89.544v10.35z" class="D E"/></clipPath><clipPath id="v"><path d="M89.535 84.48l9.412-6.853c5.199-3.785 5.786-11.315 1.238-15.859l-3.292-3.29H82.178l-3.292 3.29c-4.549 4.545-3.961 12.074 1.238 15.859l9.412 6.853z" class="D E"/></clipPath><clipPath id="w"><path d="M34.97 13.63h15.199l4.119 37.585c.228 2.083-1.404 3.903-3.502 3.903H34.278a3.52 3.52 0 0 1-3.501-3.91l4.193-37.579z" class="D"/></clipPath><clipPath id="x"><path d="M42.532 12.436c0 5.479-2.178 10.736-6.057 14.611a20.69 20.69 0 0 1-14.626 6.052H1.047v-13.66c0-5.482 2.178-10.738 6.057-14.614s9.139-6.052 14.626-6.052h20.802v13.663z" class="D E"/></clipPath><clipPath id="y"><path d="M42.532 12.436c0 5.479 2.178 10.736 6.057 14.611a20.69 20.69 0 0 0 14.626 6.052h20.802v-13.66c0-5.482-2.178-10.738-6.057-14.614s-9.14-6.052-14.626-6.052H42.532v13.663z" class="D E"/></clipPath><clipPath id="z"><path d="M42.521 33.099l12.425-9.047c6.863-4.997 7.639-14.937 1.634-20.936l-4.346-4.343H32.809l-4.346 4.343c-6.005 6-5.229 15.939 1.634 20.936l12.425 9.047z" class="D E"/></clipPath><clipPath id="AA"><path d="M429.055 20.95h157.537v116.252H429.055z" class="D"/></clipPath><clipPath id="AB"><path d="M440.099 191.503L567.164 42.34s1.853 1.69 0 0c-2.419-2.206-21.92-6.424-25.192-6.559-2.744-.113-1.714-.161-2.744-.113-26.101 1.225-49.762 16.284-62.17 39.279-23.493 43.537-36.958 116.556-36.958 116.556z" class="D E"/></clipPath><clipPath id="AC"><path d="M442.851 138.637h0c3.664-1.975 7.608-4.786 8.497-8.853l.835-3.82 2.575 2.204c3.411 2.919 7.214 1.869 10.151-1.526l3.059-3.537h0c3.436 4.225 9.967 3.962 13.052-.525l.533-.775.394.65c2.839 4.684 9.395 5.296 13.051 1.218l.581-.647 2.287 3.254a8.16 8.16 0 0 0 11.044 2.199l2.829-1.794.286.859c1.778 5.333 5.481 9.81 10.385 12.557h0l-79.558-1.462z" fill="#5fcfd4" class="E"/></clipPath><clipPath id="AD"><path d="M442.082 191.535L569.147 42.372s1.853 1.69 0 0c-2.419-2.206-21.92-6.424-25.192-6.559-2.744-.113-1.714-.161-2.744-.113-26.101 1.225-49.762 16.284-62.17 39.279-23.493 43.537-36.958 116.556-36.958 116.556z" class="E T"/></clipPath><path id="AE" d="M1290.925 37.122h-14.894l-4.036 36.831a3.45 3.45 0 0 0 3.431 3.824h16.177a3.45 3.45 0 0 0 3.431-3.831l-4.109-36.825z"/><path id="AF" d="M1283.526 63.746l-12.176-8.866c-6.725-4.897-7.485-14.637-1.601-20.516l4.259-4.256h19.035l4.259 4.256c5.884 5.879 5.124 15.619-1.601 20.516l-12.176 8.866z"/><path id="AG" d="M1281.928 24.523l3.212-3.933 40.631 33.184-3.212 3.933z"/><path id="AH" d="M1307.229 58.394h-5.082v-8.54a2.54 2.54 0 1 1 5.082 0v8.54z"/><path id="AI" d="M1241.26 53.757l40.654-33.156 3.209 3.935-40.654 33.156z"/><path id="AJ" d="M1259.8 58.394h5.082v-8.54a2.54 2.54 0 1 0-5.082 0v8.54z"/><path id="AK" d="M1242.862 42.238v-5.077h7.625a2.53 2.53 0 0 1 1.794.744c.478.475.744 1.12.744 1.792v.005c0 .673-.267 1.318-.744 1.795s-1.12.741-1.794.741h-7.625z"/><path id="AL" d="M1242.862 32.083v-5.077h15.245c.673 0 1.321.269 1.796.744s.744 1.122.744 1.795-.267 1.32-.744 1.795-1.123.744-1.796.744h-15.245z"/><path id="AM" d="M1265.499 41.111a2.54 2.54 0 0 1-2.127-1.145c-.771-1.173-.443-2.747.731-3.515l10.329-6.77a2.54 2.54 0 0 1 3.517.729c.771 1.173.443 2.747-.731 3.515l-10.329 6.77a2.52 2.52 0 0 1-1.39.416z"/><path id="AN" d="M1301.53 41.111a2.53 2.53 0 0 1-1.39-.416l-10.325-6.77c-1.174-.769-1.502-2.342-.731-3.515s2.332-1.504 3.517-.729l10.325 6.77c1.174.769 1.502 2.342.731 3.515a2.54 2.54 0 0 1-2.127 1.145z"/><path id="AO" d="M1333.63 94.669l-7.745-5.639a8.61 8.61 0 0 1-1.018-13.05l2.709-2.707h12.108l2.709 2.707a8.61 8.61 0 0 1-1.018 13.05l-7.745 5.639z"/><path id="AP" d="M1333.623 76.988a12.88 12.88 0 0 0 3.775 9.108c2.418 2.416 5.697 3.772 9.117 3.772h12.967v-8.515c0-3.417-1.358-6.694-3.775-9.109s-5.697-3.772-9.117-3.772h-12.967v8.517z"/><path id="AQ" d="M1332.617 69.721l2.043-2.502 25.846 21.108-2.043 2.502z"/><path id="AR" d="M1359.483 80.816v-3.059h-4.934a1.53 1.53 0 0 0-1.531 1.529h0c0 .407.162.794.448 1.082s.677.447 1.083.447h4.934z"/><path id="AS" d="M1333.623 76.988a12.88 12.88 0 0 1-3.775 9.108c-2.418 2.416-5.697 3.772-9.117 3.772h-12.967v-8.515c0-3.417 1.358-6.694 3.775-9.109s5.697-3.772 9.117-3.772h12.967v8.517z"/><path id="AT" d="M1306.747 88.316l25.86-21.09 2.041 2.503-25.86 21.09z"/><path id="AU" d="M1307.764 80.987v-3.23h4.85a1.61 1.61 0 0 1 1.141.473c.304.302.474.712.474 1.14v.003c0 .428-.17.838-.474 1.142s-.713.472-1.141.472h-4.85z"/><path id="AV" d="M1307.764 74.527v-3.23h9.697a1.62 1.62 0 0 1 1.143.473c.304.304.474.714.474 1.142a1.61 1.61 0 0 1-1.617 1.615h-9.697z"/><path id="AW" d="M1333.63 67.491h12.219v23.172h-12.219z"/><path id="AX" d="M1332.008 66.139h3.232v28.166h-3.232z"/><path id="AY" d="M1322.163 80.27c-.526 0-1.044-.257-1.353-.729-.49-.746-.282-1.747.465-2.236l6.57-4.306c.747-.492 1.749-.28 2.237.464s.282 1.747-.465 2.236l-6.57 4.306c-.274.18-.581.265-.884.265z"/><path id="AZ" d="M1345.083 80.27c-.303 0-.61-.085-.884-.265l-6.568-4.306c-.747-.489-.955-1.49-.465-2.236s1.484-.957 2.237-.464l6.568 4.306c.747.489.955 1.49.465 2.236-.309.472-.827.729-1.353.729z"/><path id="Aa" d="M1374.304-.466h-9.474l-2.568,23.429c-.142,1.298.875,2.433,2.183,2.433h10.29c1.309,0,2.327-1.137,2.182-2.437l-2.614-23.424Z"/><path id="Ab" d="M1377.027 102.6c1.3 0 2.355-1.052 2.355-2.353v-4.912c0-1.3-1.054-2.353-2.355-2.353s-2.355 1.052-2.355 2.353v4.912c0 1.3 1.054 2.353 2.355 2.353z"/><path id="Ac" d="M899.88,33.67h-5.861c-2.455,0-4.444-1.989-4.444-4.444s1.989-4.444,4.444-4.444h5.861c2.455,0,4.444,1.989,4.444,4.444s-1.989,4.444-4.444,4.444Z"/><path id="Ad" d="M1145.471 107.625a32.75 32.75 0 0 1-6.301 37.531l-55.252 55.223c-12.825 12.8-33.581 12.8-46.406 0l-41.539-41.513c-6.155-6.144-9.619-14.482-9.619-23.175V80.929c0-8.693 3.464-17.028 9.619-23.175s14.486-9.6 23.189-9.6h76.809c12.539 0 23.99 7.151 29.487 18.421l20.014 41.05z"/><path id="Ae" d="M1037.823 120.29l-10.715-7.802c-5.918-4.309-6.587-12.88-1.409-18.054l3.748-3.745h16.751l3.748 3.745c5.178 5.174 4.509 13.745-1.409 18.054l-10.715 7.802z"/><path id="Af" d="M1037.813 95.831a17.81 17.81 0 0 0 5.223 12.6c3.345 3.342 7.882 5.219 12.613 5.219h17.939v-11.78a17.81 17.81 0 0 0-5.223-12.602c-3.345-3.34-7.882-5.219-12.613-5.219h-17.939v11.782z"/><path id="Ag" d="M1036.416 85.774l2.827-3.461 35.755 29.201-2.827 3.461z"/><path id="Ah" d="M1037.813 95.831a17.81 17.81 0 0 1-5.223 12.6c-3.345 3.342-7.882 5.219-12.613 5.219h-17.939v-11.78a17.81 17.81 0 0 1 5.223-12.602c3.345-3.34 7.882-5.219 12.613-5.219h17.939v11.782z"/><path id="Ai" d="M1000.629 111.499l35.775-29.176 2.824 3.463-35.775 29.176z"/><path id="Aj" d="M1021.959 100.371c-.728 0-1.444-.355-1.872-1.008-.678-1.033-.39-2.417.643-3.094l9.089-5.957c1.034-.681 2.419-.387 3.095.641s.39 2.417-.643 3.094l-9.089 5.957a2.22 2.22 0 0 1-1.223.367z"/><path id="Ak" d="M1053.667 100.371a2.22 2.22 0 0 1-1.223-.367l-9.086-5.957a2.23 2.23 0 1 1 2.452-3.735l9.086 5.957a2.23 2.23 0 0 1 .643 3.094c-.428.653-1.144 1.008-1.872 1.008z"/><path id="Al" d="M1131.967,109.26h-3.469c-.357,0-.646-.289-.646-.646s.289-.646.646-.646h3.469c.357,0,.646.289.646.646s-.289.646-.646.646Z"/><path id="Am" d="M1130.447,109.26c-.357,0-.646-.289-.646-.646v-1.519c0-.357.289-.646.646-.646s.646.289.646.646v1.519c0,.357-.289.646-.646.646Z"/><path id="An" d="M1130.517 107.523h0a.95.95 0 0 1-.952-.952l-.639-3.467 3.044.524-.5 2.943a.95.95 0 0 1-.952.952z"/><path id="Ao" d="M252.369 99.82l12.425-9.047c6.863-4.997 7.639-14.937 1.634-20.936l-4.346-4.343h-19.425l-4.346 4.343c-6.005 6-5.229 15.939 1.634 20.936l12.425 9.047z"/><path id="Ap" d="M228.18 94.358h5.186v-8.715c0-1.43-1.162-2.591-2.593-2.591s-2.593 1.161-2.593 2.591v8.715z"/><path id="Aq" d="M270.765 76.722c.844 0 1.675-.412 2.171-1.169.787-1.197.452-2.803-.746-3.587l-10.54-6.908a2.59 2.59 0 0 0-3.589.744c-.787 1.197-.452 2.803.746 3.587l10.54 6.908c.439.288.932.425 1.418.425z"/><path id="Ar" d="M233.996 76.722c.486 0 .979-.137 1.418-.425l10.537-6.908c1.199-.784 1.533-2.39.746-3.587a2.59 2.59 0 0 0-3.589-.744l-10.537 6.908c-1.199.784-1.533 2.39-.746 3.587.496.757 1.327 1.169 2.171 1.169z"/><path id="As" d="M180.963 62.445l1.985-11.448.381.066-1.985 11.448z"/><path id="At" d="M170.054 60.035l-5.796-1.005 1.995-4.795a1.84 1.84 0 0 1 3.538.613l.264 5.187z"/><path id="Au" d="M166.515 59.615a.63.63 0 0 0-.513-.728l-.859-.149a.63.63 0 0 0-.728.512.63.63 0 0 0 .513.728l.859.149a.63.63 0 0 0 .728-.513z"/><path id="Av" d="M158.089 56.071a.63.63 0 0 0-.513-.728l-.859-.149a.63.63 0 0 0-.728.513.63.63 0 0 0 .513.728l.859.149a.63.63 0 0 0 .728-.513z"/><path id="Aw" d="M175.715 85.907l4.103-23.66 1.526.265-4.103 23.66z"/><path id="Ax" d="M89.535 90.313l9.412-6.853c5.199-3.785 5.786-11.315 1.238-15.859l-3.292-3.29H82.178l-3.292 3.29c-4.549 4.545-3.961 12.074 1.238 15.859l9.412 6.853z"/><path id="Ay" d="M103.47 72.815c.639 0 1.268-.312 1.644-.885a1.96 1.96 0 0 0-.565-2.718l-7.984-5.233c-.908-.598-2.125-.34-2.719.563a1.96 1.96 0 0 0 .565 2.718l7.984 5.233c.332.218.706.322 1.074.322z"/><path id="Az" d="M75.617 72.815c.368 0 .742-.103 1.074-.322l7.982-5.233a1.96 1.96 0 0 0-2.154-3.281l-7.982 5.233a1.96 1.96 0 0 0 1.079 3.603z"/><path id="BA" d="M42.521 40.799l12.425-9.047c6.863-4.997 7.639-14.937 1.634-20.936l-4.346-4.343H32.809l-4.346 4.343c-6.005 6-5.229 15.939 1.634 20.936l12.425 9.047z"/><path id="BB" d="M509.606 88.992l-25.548 4.126-26.927-31.537c-.491-.575-.616-1.386-.321-2.085s.958-1.165 1.706-1.198l14.283-.632c1.89-.084 3.736.599 5.133 1.897l31.673 29.428z"/><path id="BC" d="M508.241 100.913l-14.738-16.882-41.435 6.716c-.756.123-1.375.667-1.593 1.401s.002 1.529.568 2.045l10.806 9.855c1.43 1.304 3.318 1.987 5.251 1.9 10.355-.467 41.143-5.035 41.143-5.035z"/><path id="BD" d="M567.164 42.339c-11.521 12.633-48.905 33.236-67.432 55.856-33.033 40.331-59.632 93.307-59.632 93.307l6.731 6.025s55.423-68.508 66.716-79.794c1.103-1.102 2.175-2.231 3.226-3.383 8.236-9.029 41.168-38.656 58.921-57.966a7.26 7.26 0 0 0 1.087-1.549h0c3.437-6.562-2.393-14.138-9.616-12.496h0z"/><path id="BE" d="M549.191 70.133l-4.6 3.552c-.652.504-1.591.383-2.094-.269l-1.327-1.718 4.6-3.552c.652-.504 1.591-.383 2.094.269l1.327 1.718h0z"/><path id="BF" d="M442.082 191.535L569.147 42.372s1.853 1.69 0 0c-2.419-2.206-21.92-6.424-25.192-6.559-2.744-.113-1.714-.161-2.744-.113-26.101 1.225-49.762 16.284-62.17 39.279-23.493 43.537-36.958 116.556-36.958 116.556z"/></defs><g clip-path="url(#A)"><path d="M-10.125-3304.564h1520.249V744.918H-10.125z" class="X"/><g fill="#74dddc"><path d="M1172.429 94.462l-20.009-41.039c-10.45-21.425-32.608-35.269-56.45-35.269h-76.809c-16.754 0-32.517 6.522-44.39 18.373-.97.969-1.905 1.965-2.803 2.985-9.542 10.837-26.115 11.655-36.325 1.445l-55.726-55.726c-12.044-12.044-12.04-31.573.009-43.612l12.071-12.061c14.691-14.679 22.946-34.595 22.946-55.363v-22.12c0-43.161-35.145-78.276-78.342-78.276h-15.766c-20.692 0-40.932 8.406-55.532 23.062l-46.47 46.66a12.17 12.17 0 0 1-8.625 3.583h-32.93c-20.769 0-40.689 8.246-55.38 22.927l-1.411 1.41c-14.682 14.672-22.931 34.577-22.931 55.333v15.639a81.06 81.06 0 0 0 22.94 56.505l.004.004c7.912 8.138 7.819 21.363-.207 29.389l-74.465 74.466a48.03 48.03 0 0 0-14.068 33.962v39.141c0 12.738 5.06 24.955 14.068 33.962l89.383 89.383c5.589 5.589 1.539 15.039-6.365 15.001h-.295a63.88 63.88 0 0 0-29.817 7.417l-80.898 42.89c-23.681 12.554-37.02 38.813-33.191 65.343l7.337 50.842a63.46 63.46 0 0 0 61.63 54.557l90.975 1.976 1.398.015c17.54 0 34.478-7.349 46.471-20.165 7.296-7.795 12.451-17.285 15.108-27.464 1.908-7.31 9.153-11.946 16.573-10.526a35.52 35.52 0 0 0 6.68.63h3.435c6.614 0 13.228-2.055 18.921-5.776 6.022 3.342 12.894 5.009 19.893 4.766 9.683-.336 18.919-4.422 26.003-11.506l3.612-3.614c7.216-7.214 11.191-16.811 11.191-27.018v-6.836c0-3.224-.403-6.399-1.183-9.462-2.149-8.433 4.443-16.587 13.145-16.62l21.046-.078c6.26-.023 12.088 2.842 16.218 7.546 4.746 5.406 11.704 8.825 19.45 8.825h13.034c14.275 0 25.887-11.603 25.887-25.865s-11.612-25.863-25.887-25.863h-13.034a9.64 9.64 0 0 1-9.602-9.46l-.852-65.238c-.344-26.306 9.431-51.739 27.304-71.043l39.062-42.19c9.688-10.464 26.053-10.545 36.101-.427l.199.199 41.557 41.531c11.867 11.844 27.634 18.366 44.396 18.366s32.529-6.523 44.419-18.391l49.156-49.131 6.079-6.074c18.959-18.932 23.809-47.829 12.061-71.922z" class="B"/><path d="M1453.143 162.454c-.262 36.175-22.061 68.417-55.535 82.139a89.26 89.26 0 0 1-97.211-19.522l-46.55-46.551c-16.903-16.903-26.209-39.372-26.209-63.271V40.365c0-3.83-1.491-7.431-4.199-10.139l-24.103-24.102c-16.901-16.903-26.207-39.372-26.207-63.27v-60.312c0-3.83-1.491-7.431-4.199-10.139l-39.993-39.993c-16.899-16.898-26.207-39.369-26.207-63.27v-8.384c0-49.338 40.14-89.478 89.478-89.478a14.24 14.24 0 0 0 10.137-4.199l63.55-63.552c16.901-16.899 39.37-26.205 63.271-26.205h38.113c49.338 0 89.478 40.135 89.478 89.467l-3.614 495.666z"/></g><path d="M1292.461-369.906l-28.505 28.505 7.608 7.608c4.778 4.778 7.462 11.258 7.462 18.015v24.816c0 6.757-2.684 13.238-7.462 18.015s-7.462 11.258-7.462 18.015v74.57c0 20.643-8.201 40.441-22.798 55.038l-30.605 30.605v37.571c0 13.767 5.469 26.97 15.204 36.704l24.103 24.103c9.735 9.734 15.204 22.938 15.204 36.704v74.884a51.91 51.91 0 0 0 15.203 36.704l46.552 46.552c32.571 32.571 88.275 9.736 88.611-36.326l3.61-495.003c.21-28.815-23.091-52.287-51.907-52.287h-38.113a51.91 51.91 0 0 0-36.705 15.204z" class="J"/><path d="M1210.7-84.693v27.547c0 13.767 5.469 26.97 15.204 36.704l24.103 24.103c9.735 9.734 15.203 22.938 15.203 36.704v74.885a51.91 51.91 0 0 0 15.203 36.704l46.552 46.552c32.571 32.571 88.275 9.736 88.611-36.326l3.61-495.002c.21-28.815-23.091-52.287-51.907-52.287h-38.113a51.91 51.91 0 0 0-36.705 15.204l-24.961 24.96" stroke-dasharray="0 10.024" class="D I K L O"/><use href="#AE" class="M"/><g clip-path="url(#B)" class="B P"><use href="#AF" style="mix-blend-mode:multiply" class="Q"/></g><path d="M1283.515 35.952a20.24 20.24 0 0 0 5.935 14.318c3.801 3.798 8.956 5.93 14.333 5.93h20.385V42.814c0-5.372-2.134-10.523-5.935-14.321a20.29 20.29 0 0 0-14.333-5.93h-20.385v13.389z" class="B H"/><g clip-path="url(#C)"><path d="M1283.515 22.563l45.366 38.775h-45.366V22.563z" class="B C"/><use href="#AG" class="G"/><g class="B"><g class="F"><use href="#AH"/><path d="M1297.066 58.769h-5.082V41.917c0-1.401 1.136-2.536 2.538-2.536h.005c1.402 0 2.538 1.135 2.538 2.536v16.852z"/></g><g class="C"><path d="M1324.168 41.968V37.16h-7.757c-.638 0-1.25.254-1.702.706a2.4 2.4 0 0 0-.704 1.698h0a2.41 2.41 0 0 0 .704 1.701c.452.452 1.065.703 1.702.703h7.757zm0-9.885v-5.077h-15.247c-1.402 0-2.538 1.135-2.538 2.536v.005c0 1.401 1.136 2.536 2.538 2.536h15.247z"/></g></g></g><path d="M1283.515 35.952a20.24 20.24 0 0 1-5.935 14.318c-3.801 3.798-8.956 5.93-14.333 5.93h-20.385V42.814c0-5.372 2.134-10.523 5.935-14.321a20.29 20.29 0 0 1 14.333-5.93h20.385v13.389z" class="B H"/><g clip-path="url(#D)"><path d="M1283.515 22.563l-45.366 38.775h45.366V22.563z" class="B C"/><use href="#AI" class="G"/><g class="B"><g class="F"><use href="#AJ"/><path d="M1269.964 58.769h5.082V41.92c0-.673-.267-1.318-.744-1.795s-1.123-.744-1.796-.744-1.321.269-1.796.744-.744 1.122-.744 1.795v16.849z"/></g><g class="C"><use href="#AK"/><use href="#AL"/></g></g></g><path d="M1283.526 56.2l-12.176-8.866c-6.725-4.897-7.485-14.637-1.601-20.516l4.259-4.256h19.035l4.259 4.256c5.884 5.879 5.124 15.619-1.601 20.516l-12.176 8.866z" class="B G"/><g clip-path="url(#E)"><path d="M1283.526 21.022h19.209v36.429h-19.209z" class="C"/><path d="M1280.975 18.896h5.082v44.28h-5.082z" class="N"/><use href="#AM" class="C"/><use href="#AN" class="F"/><path d="M1265.499 52.687a2.54 2.54 0 0 1-2.127-1.145c-.771-1.173-.443-2.747.731-3.515l10.329-6.77a2.54 2.54 0 0 1 3.517.729c.771 1.173.443 2.747-.731 3.515l-10.329 6.77a2.52 2.52 0 0 1-1.39.416z" class="C"/><path d="M1301.53 52.687a2.53 2.53 0 0 1-1.39-.416l-10.325-6.77c-1.174-.769-1.502-2.342-.731-3.515s2.332-1.504 3.517-.729l10.325 6.77c1.174.769 1.502 2.342.731 3.515a2.54 2.54 0 0 1-2.127 1.145z" class="F"/></g><path d="M1297.229 68.894a4.98 4.98 0 0 0-4.965 4.96 4.98 4.98 0 0 0-4.965-4.96 4.98 4.98 0 0 0-4.965 4.96 4.98 4.98 0 0 0-4.965-4.96 4.98 4.98 0 0 0-4.965 4.96 4.98 4.98 0 0 0-4.965-4.96 4.98 4.98 0 0 0-4.965 4.96l4.488 3.924 11.545 1.237 16.547-.818 7.138-4.344a4.98 4.98 0 0 0-4.965-4.96z" class="B J"/><path d="M1362.508 133.904h-14.894l-4.036 36.831a3.45 3.45 0 0 0 3.431 3.824h16.177a3.45 3.45 0 0 0 3.431-3.831l-4.109-36.825z" class="M"/><g clip-path="url(#F)" class="B P"><path d="M1355.109 160.528l-12.176-8.866c-6.725-4.897-7.485-14.637-1.601-20.516l4.259-4.256h19.035l4.259 4.256c5.884 5.879 5.124 15.619-1.601 20.516l-12.176 8.866z" style="mix-blend-mode:multiply" class="Q"/></g><path d="M1355.097 132.733a20.24 20.24 0 0 0 5.935 14.318c3.801 3.798 8.956 5.93 14.333 5.93h20.385v-13.386c0-5.372-2.134-10.523-5.935-14.321a20.29 20.29 0 0 0-14.333-5.93h-20.385v13.389z" class="B H"/><g clip-path="url(#G)"><path d="M1355.097 119.345l45.366 38.775h-45.366v-38.775z" class="B C"/><path d="M1353.511 121.305l3.212-3.933 40.631 33.184-3.212 3.933z" class="G"/><g class="B"><g class="F"><path d="M1378.812 155.175h-5.082v-8.54a2.541 2.541 0 1 1 5.082 0v8.54zm-10.164.376h-5.082v-16.852c0-1.401 1.136-2.536 2.538-2.536h.005c1.402 0 2.538 1.135 2.538 2.536v16.852z"/></g><g class="C"><path d="M1395.75 138.75v-4.808h-7.757c-.638 0-1.25.254-1.702.706a2.4 2.4 0 0 0-.704 1.698h0a2.41 2.41 0 0 0 .704 1.701c.452.452 1.065.703 1.702.703h7.757zm0-9.885v-5.077h-15.247c-1.402 0-2.538 1.135-2.538 2.536v.005c0 1.401 1.136 2.536 2.538 2.536h15.247z"/></g></g></g><path d="M1355.097 132.733a20.24 20.24 0 0 1-5.935 14.318c-3.801 3.798-8.956 5.93-14.333 5.93h-20.385v-13.386c0-5.372 2.134-10.523 5.935-14.321a20.29 20.29 0 0 1 14.333-5.93h20.385v13.389z" class="B H"/><g clip-path="url(#H)"><path d="M1355.097 119.345l-45.366 38.775h45.366v-38.775z" class="B C"/><path d="M1312.843 150.539l40.654-33.156 3.209 3.935-40.654 33.156z" class="G"/><g class="B"><g class="F"><path d="M1331.383 155.175h5.082v-8.54a2.541 2.541 0 1 0-5.082 0v8.54zm10.163.376h5.082v-16.849c0-.673-.267-1.318-.744-1.795a2.54 2.54 0 0 0-1.796-.744c-.673 0-1.321.269-1.796.744a2.54 2.54 0 0 0-.744 1.795v16.849z"/></g><g class="C"><path d="M1314.444 139.019v-5.077h7.625a2.53 2.53 0 0 1 1.794.744c.478.475.744 1.12.744 1.792v.005c0 .673-.267 1.318-.744 1.795a2.53 2.53 0 0 1-1.794.741h-7.625zm0-10.154v-5.077h15.245c.673 0 1.321.269 1.796.744a2.54 2.54 0 0 1 .744 1.795c0 .673-.267 1.32-.744 1.795a2.55 2.55 0 0 1-1.796.744h-15.245z"/></g></g></g><path d="M1355.109 152.982l-12.176-8.866c-6.725-4.897-7.485-14.637-1.601-20.516l4.259-4.256h19.035l4.259 4.256c5.884 5.879 5.124 15.619-1.601 20.516l-12.176 8.866z" class="B G"/><g clip-path="url(#I)"><path d="M1355.109 117.803h19.209v36.429h-19.209z" class="C"/><path d="M1352.558 115.677h5.082v44.28h-5.082z" class="N"/><path d="M1337.081 137.892a2.54 2.54 0 0 1-2.127-1.145c-.771-1.173-.443-2.747.731-3.515l10.329-6.77a2.54 2.54 0 0 1 3.517.729c.771 1.173.443 2.747-.731 3.515l-10.329 6.77a2.52 2.52 0 0 1-1.39.416z" class="C"/><path d="M1373.112 137.892a2.53 2.53 0 0 1-1.39-.416l-10.325-6.77c-1.174-.769-1.502-2.342-.731-3.515s2.332-1.504 3.517-.729l10.325 6.77c1.174.769 1.502 2.342.731 3.515a2.54 2.54 0 0 1-2.127 1.145z" class="F"/><path d="M1337.081 149.469a2.54 2.54 0 0 1-2.127-1.145c-.771-1.173-.443-2.747.731-3.515l10.329-6.77a2.54 2.54 0 0 1 3.517.729c.771 1.173.443 2.747-.731 3.515l-10.329 6.77a2.52 2.52 0 0 1-1.39.416z" class="C"/><path d="M1373.112 149.469a2.53 2.53 0 0 1-1.39-.416l-10.325-6.77c-1.174-.769-1.502-2.342-.731-3.515s2.332-1.504 3.517-.729l10.325 6.77c1.174.769 1.502 2.342.731 3.515a2.54 2.54 0 0 1-2.127 1.145z" class="F"/></g><path d="M1338.337,77.733h-9.474l-2.568,23.429c-.142,1.298.875,2.433,2.183,2.433h10.29c1.309,0,2.327-1.137,2.182-2.437l-2.614-23.424Z" class="M"/><g clip-path="url(#J)" class="B P"><use href="#AO" style="mix-blend-mode:multiply" class="Q"/></g><use href="#AP" class="B H"/><g clip-path="url(#K)"><path d="M1333.623 68.472l28.858 24.665h-28.858V68.472z" class="B C"/><use href="#AQ" class="G"/><g class="B"><g class="F"><path d="M1348.708 91.264h-3.232v-5.432c0-.891.724-1.615 1.616-1.615s1.616.723 1.616 1.615v5.432zm-6.465.239h-3.232V80.784c0-.891.722-1.613 1.615-1.613h.003c.892 0 1.615.722 1.615 1.613v10.719z"/></g><g class="C"><use href="#AR"/><path d="M1359.483,74.527v-3.23h-9.699c-.892,0-1.615.722-1.615,1.613v.003c0,.891.722,1.613,1.615,1.613h9.699Z"/></g></g></g><use href="#AS" class="B H"/><g clip-path="url(#L)"><path d="M1333.623 68.472l-28.857 24.665h28.857V68.472z" class="B C"/><use href="#AT" class="G"/><g class="B"><g class="F"><path d="M1318.538 91.264h3.232v-5.432c0-.891-.724-1.615-1.616-1.615s-1.616.723-1.616 1.615v5.432zm6.465.239h3.232V80.785c0-.428-.17-.838-.474-1.142a1.62 1.62 0 0 0-2.286 0c-.304.304-.474.714-.474 1.142v10.718z"/></g><g class="C"><use href="#AU"/><use href="#AV"/></g></g></g><path d="M1333.63 89.868l-7.745-5.639a8.61 8.61 0 0 1-1.018-13.05l2.709-2.707h12.108l2.709 2.707a8.61 8.61 0 0 1-1.018 13.05l-7.745 5.639z" class="B G"/><g clip-path="url(#M)"><use href="#AW" class="C"/><use href="#AX" class="N"/><use href="#AY" class="C"/><use href="#AZ" class="F"/><path d="M1322.163 87.634c-.526 0-1.044-.257-1.353-.729-.49-.746-.282-1.747.465-2.236l6.57-4.306c.747-.492 1.749-.28 2.237.464s.282 1.747-.465 2.236l-6.57 4.306c-.274.18-.581.265-.884.265z" class="C"/><path d="M1345.083 87.634c-.303 0-.61-.085-.884-.265l-6.568-4.306c-.747-.489-.955-1.49-.465-2.236s1.484-.957 2.237-.464l6.568 4.306c.747.489.955 1.49.465 2.236-.309.472-.827.729-1.353.729z" class="F"/></g><path d="M1342.347,97.943c-1.737,0-3.158,1.42-3.158,3.155,0-1.735-1.421-3.155-3.158-3.155s-3.158,1.42-3.158,3.155c0-1.735-1.421-3.155-3.158-3.155s-3.158,1.42-3.158,3.155c0-1.735-1.421-3.155-3.158-3.155s-3.158,1.42-3.158,3.155l2.855,2.496,7.344.787,10.526-.52,4.541-2.763c0-1.735-1.421-3.155-3.158-3.155Z" class="B J"/><path d="M1284.457,100.381h-9.474l-2.568,23.429c-.142,1.298.875,2.433,2.183,2.433h10.29c1.309,0,2.327-1.137,2.182-2.437l-2.614-23.424Z" class="M"/><g clip-path="url(#N)" class="B P"><path d="M1279.751 117.316l-7.745-5.639a8.61 8.61 0 0 1-1.018-13.05l2.709-2.707h12.108l2.709 2.707a8.61 8.61 0 0 1-1.018 13.05l-7.745 5.639z" style="mix-blend-mode:multiply" class="Q"/></g><path d="M1279.743 99.636a12.88 12.88 0 0 0 3.775 9.108c2.418 2.416 5.697 3.772 9.117 3.772h12.967v-8.515c0-3.417-1.358-6.694-3.775-9.109s-5.697-3.772-9.117-3.772h-12.967v8.517z" class="B H"/><g clip-path="url(#O)"><path d="M1279.743 91.12l28.858 24.665h-28.858V91.12z" class="B C"/><path d="M1278.737 92.369l2.043-2.502 25.846 21.108-2.043 2.502z" class="G"/><g class="B"><g class="F"><path d="M1294.828 113.912h-3.232v-5.432c0-.891.724-1.615 1.616-1.615s1.616.723 1.616 1.615v5.432zm-6.465.239h-3.232v-10.719c0-.891.722-1.613 1.615-1.613h.003c.892 0 1.615.722 1.615 1.613v10.719z"/></g><g class="C"><path d="M1305.603 103.463v-3.059h-4.934a1.53 1.53 0 0 0-1.531 1.529h0c0 .407.162.794.448 1.082s.677.447 1.083.447h4.934zm0-6.288v-3.23h-9.699c-.892 0-1.615.722-1.615 1.613v.003c0 .891.722 1.613 1.615 1.613h9.699z"/></g></g></g><path d="M1279.743 99.636a12.88 12.88 0 0 1-3.775 9.108c-2.418 2.416-5.697 3.772-9.117 3.772h-12.967v-8.515c0-3.417 1.358-6.694 3.775-9.109s5.697-3.772 9.117-3.772h12.967v8.517z" class="B H"/><g clip-path="url(#P)"><path d="M1279.743 91.12l-28.857 24.665h28.857V91.12z" class="B C"/><path d="M1252.867 110.964l25.86-21.09 2.041 2.503-25.86 21.09z" class="G"/><g class="B"><g class="F"><path d="M1264.659 113.912h3.232v-5.432c0-.891-.724-1.615-1.616-1.615s-1.616.723-1.616 1.615v5.432zm6.465.239h3.232v-10.718c0-.428-.17-.838-.474-1.142a1.62 1.62 0 0 0-2.286 0c-.304.304-.474.714-.474 1.142v10.718z"/></g><g class="C"><path d="M1253.884 103.635v-3.23h4.85a1.61 1.61 0 0 1 1.141.473c.304.302.474.712.474 1.14v.003c0 .428-.17.838-.474 1.142a1.61 1.61 0 0 1-1.141.472h-4.85zm0-6.46v-3.23h9.697a1.62 1.62 0 0 1 1.143.473c.304.304.474.714.474 1.142a1.61 1.61 0 0 1-1.617 1.615h-9.697z"/></g></g></g><path d="M1279.751 112.516l-7.745-5.639a8.61 8.61 0 0 1-1.018-13.05l2.709-2.707h12.108l2.709 2.707a8.61 8.61 0 0 1-1.018 13.05l-7.745 5.639z" class="B G"/><g clip-path="url(#Q)"><path d="M1279.751 90.139h12.219v23.172h-12.219z" class="C"/><path d="M1278.128 88.787h3.232v28.166h-3.232z" class="N"/><path d="M1268.283 102.918c-.526 0-1.044-.257-1.353-.729-.49-.746-.282-1.747.465-2.236l6.57-4.306c.747-.492 1.749-.28 2.237.464s.282 1.747-.465 2.236l-6.57 4.306c-.274.18-.581.265-.884.265z" class="C"/><path d="M1291.203 102.918c-.303 0-.61-.085-.884-.265l-6.568-4.306c-.747-.489-.955-1.49-.465-2.236s1.484-.957 2.237-.464l6.568 4.306c.747.489.955 1.49.465 2.236-.309.472-.827.729-1.353.729z" class="F"/><path d="M1268.283 110.281c-.526 0-1.044-.257-1.353-.729-.49-.746-.282-1.747.465-2.236l6.57-4.306c.747-.492 1.749-.28 2.237.464s.282 1.747-.465 2.236l-6.57 4.306c-.274.18-.581.265-.884.265z" class="C"/><path d="M1291.203 110.281c-.303 0-.61-.085-.884-.265l-6.568-4.306c-.747-.489-.955-1.49-.465-2.236s1.484-.957 2.237-.464l6.568 4.306c.747.489.955 1.49.465 2.236-.309.472-.827.729-1.353.729z" class="F"/></g><g class="B"><path d="M1288.467,120.591c-1.737,0-3.158,1.42-3.158,3.155,0-1.735-1.421-3.155-3.158-3.155s-3.158,1.42-3.158,3.155c0-1.735-1.421-3.155-3.158-3.155s-3.158,1.42-3.158,3.155c0-1.735-1.421-3.155-3.158-3.155s-3.158,1.42-3.158,3.155l2.855,2.496,7.344.787,10.526-.52,4.541-2.763c0-1.735-1.421-3.155-3.158-3.155Z" class="J"/><path d="M1317.502 9.207a2.99 2.99 0 0 1-2.204-.97 2.98 2.98 0 0 1-.771-2.279l11.225-125.706c.219-2.453 2.275-4.319 4.74-4.319h10.307a4.76 4.76 0 0 1 4.744 4.361l2.016 24.176h7.331c1.342 0 2.566.752 3.166 1.951l3.315 6.624c.309.618.489 1.293.527 1.984l2.322 41.76 12.971 3.703c2.186.624 3.69 2.62 3.69 4.891V6.222c0 .791-.315 1.551-.875 2.11s-1.32.874-2.112.874h-60.393z" fill="#777087"/><g fill="#675d7e"><path d="M1360.069-8.727a4.76 4.76 0 0 1 9.52 0V9.207h-9.521V-8.727zm-28.645-20.302a4.76 4.76 0 0 1 9.52 0V9.206h-9.521v-38.235z"/></g></g><g clip-path="url(#R)" class="B Y"><path d="M1306.999-116.919v-20.611c0-2.388 1.938-4.324 4.328-4.324h.794c2.39 0 4.328-1.936 4.328-4.324v-14.684c0-2.388 1.938-4.324 4.328-4.324h3.459c2.39 0 4.328-1.936 4.328-4.324v-9.313c0-2.388 1.938-4.324 4.328-4.324h10.849c2.39 0 4.328 1.936 4.328 4.324v47.769c-.001 2.317 1.879 4.196 4.198 4.196h.109c2.412 0 4.35-1.917 4.349-4.306v-14.18c0-2.388 1.938-4.305 4.328-4.305h10.849c2.39 0 4.328 1.936 4.328 4.324v10.547c0 2.388 1.938 4.324 4.328 4.324h2.194c2.39 0 4.328 1.936 4.328 4.324v108.832c0 2.388-1.938 4.324-4.328 4.324h-4.503c-2.39 0-4.328-1.936-4.328-4.324v-10.547c0-2.388-1.938-4.324-4.328-4.324h-11.235a9.52 9.52 0 0 1-9.521-9.513V-63.39c0-2.388-1.938-4.324-4.328-4.324h-2.45c-2.39 0-4.328-1.936-4.328-4.324v-10.584c0-2.388-1.938-4.324-4.328-4.324h.117c-2.39 0-4.328 1.936-4.328 4.324v30.591c0 2.388-1.938 4.324-4.328 4.324h-1.617c-2.39 0-4.328 1.936-4.328 4.324l-1.271 14.684c0 2.388-1.938 4.324-4.328 4.324h-3.333c-2.39 0-4.328 1.936-4.328 4.324V.561c0 2.388-1.938 4.324-4.328 4.324h-1.993c-2.39 0-4.328-1.936-4.328-4.324v-108.832c0-2.388 1.938-4.324 4.328-4.324h3.333c2.39 0 4.328-1.936 4.328-4.324z"/></g><g class="J"><rect x="1368.295" y="1.463" width="8.638" height="15.458" rx="4.317" transform="matrix(-1 0 0 -1 2745.229 18.384)"/><rect x="1359.657" y="1.463" width="8.638" height="15.458" rx="4.317" transform="matrix(-1 0 0 -1 2727.953 18.384)"/><rect x="1317.594" y="1.463" width="8.638" height="15.458" rx="4.317" transform="matrix(-1 0 0 -1 2643.826 18.384)"/><rect x="1308.956" y="1.463" width="8.638" height="15.458" rx="4.317" transform="matrix(-1 0 0 -1 2626.549 18.384)"/><rect x="1334.87" y="1.463" width="8.638" height="15.458" rx="4.317" transform="matrix(-1 0 0 -1 2678.378 18.384)"/><rect x="1326.232" y="1.463" width="8.638" height="15.458" rx="4.317" transform="matrix(-1 0 0 -1 2661.102 18.384)"/></g><use href="#Aa" class="M"/><g clip-path="url(#S)" class="B P"><path d="M1369.597 16.47l-7.745-5.639a8.61 8.61 0 0 1-1.018-13.05l2.709-2.707h12.108l2.709 2.707a8.61 8.61 0 0 1-1.018 13.05l-7.745 5.639z" style="mix-blend-mode:multiply" class="Q"/></g><path d="M1369.59-1.21a12.88 12.88 0 0 0 3.775 9.108c2.418 2.416 5.697 3.772 9.117 3.772h12.967V3.155c0-3.417-1.358-6.694-3.775-9.109s-5.697-3.772-9.117-3.772h-12.967v8.516z" class="B H"/><g clip-path="url(#T)"><path d="M1369.59-9.727l28.857 24.665h-28.857V-9.727z" class="B C"/><path d="M1368.584-8.477l2.043-2.502 25.846 21.108-2.043 2.502z" class="G"/><g class="B"><g class="F"><path d="M1384.675 13.065h-3.232V7.633c0-.891.724-1.615 1.616-1.615s1.616.723 1.616 1.615v5.432zm-6.465.239h-3.232V2.585c0-.891.722-1.613 1.615-1.613h.003c.892 0 1.615.722 1.615 1.613v10.719z"/></g><path d="M1395.449 2.617V-.442h-4.934a1.53 1.53 0 0 0-1.531 1.529h0c0 .407.162.794.448 1.082s.677.447 1.083.447h4.934z" class="C"/></g></g><path d="M1369.59-1.21a12.88 12.88 0 0 1-3.775 9.108c-2.418 2.416-5.697 3.772-9.117 3.772h-12.967V3.155c0-3.417 1.358-6.694 3.775-9.109s5.697-3.772 9.117-3.772h12.967v8.516z" class="B H"/><g clip-path="url(#U)"><path d="M1369.59-9.727l-28.858 24.665h28.858V-9.727z" class="B C"/><path d="M1342.713 10.117l25.86-21.09 2.041 2.503-25.86 21.09z" class="G"/><g class="B"><g class="F"><path d="M1354.505 13.065h3.232V7.633c0-.891-.724-1.615-1.616-1.615s-1.616.723-1.616 1.615v5.432zm6.465.239h3.232V2.586c0-.428-.17-.838-.474-1.142a1.62 1.62 0 0 0-2.286 0c-.304.304-.474.714-.474 1.142v10.718z"/></g><path d="M1343.73 2.788v-3.23h4.85a1.61 1.61 0 0 1 1.141.473c.304.302.474.712.474 1.14v.003c0 .428-.17.838-.474 1.142s-.713.472-1.141.472h-4.85z" class="C"/></g></g><path d="M1369.597 11.67l-7.745-5.639a8.61 8.61 0 0 1-1.018-13.05l2.709-2.707h12.108l2.709 2.707a8.61 8.61 0 0 1-1.018 13.05l-7.745 5.639z" class="B G"/><g clip-path="url(#V)"><path d="M1369.597-10.707h12.219v23.172h-12.219z" class="C"/><path d="M1367.974-12.06h3.232v28.166h-3.232z" class="N"/><path d="M1358.13 2.071c-.526 0-1.044-.257-1.353-.729-.49-.746-.282-1.747.465-2.236l6.57-4.306c.747-.492 1.749-.28 2.237.464s.282 1.747-.465 2.236l-6.57 4.306c-.274.18-.581.265-.884.265z" class="C"/><path d="M1381.049 2.071c-.303 0-.61-.085-.884-.265l-6.568-4.306c-.747-.489-.955-1.49-.465-2.236s1.484-.957 2.237-.464l6.568 4.306c.747.489.955 1.49.465 2.236-.309.472-.827.729-1.353.729z" class="F"/><path d="M1358.13 9.435c-.526 0-1.044-.257-1.353-.729-.49-.746-.282-1.747.465-2.236l6.57-4.306c.747-.492 1.749-.28 2.237.464s.282 1.747-.465 2.236l-6.57 4.306c-.274.18-.581.265-.884.265z" class="C"/><path d="M1381.049 9.435c-.303 0-.61-.085-.884-.265l-6.568-4.306c-.747-.489-.955-1.49-.465-2.236s1.484-.957 2.237-.464l6.568 4.306c.747.489.955 1.49.465 2.236-.309.472-.827.729-1.353.729z" class="F"/></g><path d="M1378.314,19.744c-1.737,0-3.158,1.42-3.158,3.155,0-1.735-1.421-3.155-3.158-3.155s-3.158,1.42-3.158,3.155c0-1.735-1.421-3.155-3.158-3.155s-3.158,1.42-3.158,3.155c0-1.735-1.421-3.155-3.158-3.155s-3.158,1.42-3.158,3.155l2.855,2.496,7.344.787,10.526-.52,4.541-2.763c0-1.735-1.421-3.155-3.158-3.155Z" class="B J"/><path d="M1373.553,42.095h-9.474l-2.568,23.429c-.142,1.298.875,2.433,2.183,2.433h10.29c1.309,0,2.327-1.137,2.182-2.437l-2.614-23.424Z" class="M"/><g clip-path="url(#W)" class="B P"><path d="M1368.847 59.031l-7.745-5.639a8.61 8.61 0 0 1-1.018-13.05l2.709-2.707h12.108l2.709 2.707a8.61 8.61 0 0 1-1.018 13.05l-7.745 5.639z" style="mix-blend-mode:multiply" class="Q"/></g><path d="M1368.839 41.351a12.88 12.88 0 0 0 3.775 9.108c2.418 2.416 5.697 3.772 9.117 3.772h12.967v-8.515c0-3.417-1.358-6.694-3.775-9.109s-5.697-3.772-9.117-3.772h-12.967v8.517z" class="B H"/><g clip-path="url(#X)"><path d="M1368.839 32.834l28.858 24.666h-28.858V32.834z" class="B C"/><path d="M1367.834 34.084l2.043-2.502 25.846 21.108-2.043 2.502z" class="G"/><g class="B"><g class="F"><path d="M1383.924 55.626h-3.232v-5.432c0-.891.724-1.615 1.616-1.615s1.616.723 1.616 1.615v5.432zm-6.465.239h-3.232V45.146c0-.891.722-1.613 1.615-1.613h.003c.892 0 1.615.722 1.615 1.613v10.719z"/></g><g class="C"><path d="M1394.699 45.178v-3.059h-4.934a1.53 1.53 0 0 0-1.531 1.529h0c0 .407.162.794.448 1.082s.677.447 1.083.447h4.934zm0-6.288v-3.23H1385c-.892 0-1.615.722-1.615 1.613v.003c0 .891.722 1.613 1.615 1.613h9.699z"/></g></g></g><path d="M1368.839 41.351a12.88 12.88 0 0 1-3.775 9.108c-2.418 2.416-5.697 3.772-9.117 3.772h-12.967v-8.515c0-3.417 1.358-6.694 3.775-9.109s5.697-3.772 9.117-3.772h12.967v8.517z" class="B H"/><g clip-path="url(#Y)"><path d="M1368.839 32.834L1339.982 57.5h28.857V32.834z" class="B C"/><path d="M1341.964 52.679l25.86-21.09 2.041 2.503-25.86 21.09z" class="G"/><g class="B"><g class="F"><path d="M1353.755 55.626h3.232v-5.432c0-.891-.724-1.615-1.616-1.615s-1.616.723-1.616 1.615v5.432zm6.465.239h3.232V45.147c0-.428-.17-.838-.474-1.142a1.62 1.62 0 0 0-2.286 0c-.304.304-.474.714-.474 1.142v10.718z"/></g><g class="C"><path d="M1342.98 45.349v-3.23h4.85a1.61 1.61 0 0 1 1.141.473c.304.302.474.712.474 1.14v.003c0 .428-.17.838-.474 1.142a1.61 1.61 0 0 1-1.141.472h-4.85zm0-6.459v-3.23h9.697a1.62 1.62 0 0 1 1.143.473c.304.304.474.714.474 1.142a1.61 1.61 0 0 1-1.617 1.615h-9.697z"/></g></g></g><path d="M1368.847 54.231l-7.745-5.639a8.61 8.61 0 0 1-1.018-13.05l2.709-2.707h12.108l2.709 2.707a8.61 8.61 0 0 1-1.018 13.05l-7.745 5.639z" class="B G"/><g clip-path="url(#Z)"><path d="M1368.847 31.854h12.219v23.172h-12.219z" class="C"/><path d="M1367.224 30.502h3.232v28.166h-3.232z" class="N"/><path d="M1357.379 44.633c-.526 0-1.044-.257-1.353-.729-.49-.746-.282-1.747.465-2.236l6.57-4.306c.747-.492 1.749-.28 2.237.464s.282 1.747-.465 2.236l-6.57 4.306c-.274.18-.581.265-.884.265z" class="C"/><path d="M1380.299 44.633c-.303 0-.61-.085-.884-.265l-6.568-4.306c-.747-.489-.955-1.49-.465-2.236s1.484-.957 2.237-.464l6.568 4.306c.747.489.955 1.49.465 2.236-.309.472-.827.729-1.353.729z" class="F"/><path d="M1357.379 51.996c-.526 0-1.044-.257-1.353-.729-.49-.746-.282-1.747.465-2.236l6.57-4.306c.747-.492 1.749-.28 2.237.464s.282 1.747-.465 2.236l-6.57 4.306c-.274.18-.581.265-.884.265z" class="C"/><path d="M1380.299 51.996c-.303 0-.61-.085-.884-.265l-6.568-4.306c-.747-.489-.955-1.49-.465-2.236s1.484-.957 2.237-.464l6.568 4.306c.747.489.955 1.49.465 2.236-.309.472-.827.729-1.353.729z" class="F"/></g><path d="M1377.563,62.305c-1.737,0-3.158,1.42-3.158,3.155,0-1.735-1.421-3.155-3.158-3.155s-3.158,1.42-3.158,3.155c0-1.735-1.421-3.155-3.158-3.155s-3.158,1.42-3.158,3.155c0-1.735-1.421-3.155-3.158-3.155s-3.158,1.42-3.158,3.155l2.855,2.496,7.344.787,10.526-.52,4.541-2.763c0-1.735-1.421-3.155-3.158-3.155Z" class="B J"/><path d="M1305.986-18.421h-9.474l-2.568,23.429c-.142,1.298.875,2.433,2.183,2.433h10.29c1.309,0,2.327-1.137,2.182-2.437l-2.614-23.424Z" class="M"/><path d="M1309.996,1.789c-1.737,0-3.158,1.42-3.158,3.155,0-1.735-1.421-3.155-3.158-3.155s-3.158,1.42-3.158,3.155c0-1.735-1.421-3.155-3.158-3.155s-3.158,1.42-3.158,3.155c0-1.735-1.421-3.155-3.158-3.155s-3.158,1.42-3.158,3.155l2.855,2.496,7.344.787,10.526-.52,4.541-2.763c0-1.735-1.421-3.155-3.158-3.155Z" class="B J"/><g fill="#409058"><path d="M1386.448 102.6c1.3 0 2.355-1.052 2.355-2.353v-7.366c0-1.3-1.054-2.353-2.355-2.353s-2.355 1.052-2.355 2.353v7.366c0 1.3 1.054 2.353 2.355 2.353z" class="R"/><use href="#Ab" class="R"/><path d="M1395.869 102.6c1.3 0 2.355-1.052 2.355-2.353v-4.912c0-1.3-1.054-2.353-2.355-2.353s-2.355 1.052-2.355 2.353v4.912c0 1.3 1.054 2.353 2.355 2.353z" class="R"/></g><path d="M738.738-87.633v-42.326c-8.028 6.516-18.09 10.125-28.529 10.125h-32.915a45.27 45.27 0 0 0-31.998 13.243l-1.396 1.395c-8.486 8.479-13.254 19.98-13.254 31.971v16.798c0 11.992 4.768 23.492 13.254 31.971l15.158 15.145c8.486 8.479 19.997 13.243 31.998 13.243h60.965a45.27 45.27 0 0 0 31.998-13.243l42.433-42.397h-51.759l-35.955-35.925z" class="J"/><path d="M730.287-124.533c-6.184 3.062-13.045 4.699-20.078 4.699h-32.915a45.27 45.27 0 0 0-31.998 13.243l-1.396 1.395c-8.486 8.479-13.254 19.98-13.254 31.971v16.798c0 11.991 4.768 23.492 13.254 31.971l15.158 15.145c8.486 8.479 19.997 13.243 31.998 13.243h60.965a45.27 45.27 0 0 0 31.998-13.243l38.87-38.837" stroke-dasharray="0 10.062" class="D I K L O"/><g opacity=".412" class="S"><use href="#Ac"/></g><g opacity=".412" class="S"><path d="M846.632,33.67h-5.861c-2.455,0-4.444-1.989-4.444-4.444s1.989-4.444,4.444-4.444h5.861c2.455,0,4.444,1.989,4.444,4.444s-1.989,4.444-4.444,4.444Z"/></g><g fill="#2e2f5c"><path d="M841.301 5.936h4.801v23.289h-4.801zm53.248 0h4.801v23.289h-4.801z"/></g><path d="M870.326-34.419c-21.708,0-39.305,13.553-39.305,30.273s17.598,30.273,39.305,30.273,39.305-13.554,39.305-30.273-17.598-30.273-39.305-30.273Z" fill="#55529c" class="B"/><g clip-path="url(#a)"><path d="M826.543-23.302h87.565v49.698h-87.565z" fill="#424181"/><g stroke="#4a488a" stroke-width="3.59" class="D I"><path style="mix-blend-mode:multiply" d="M826.543 1.548h87.565m-87.565 8.427h87.565m-87.565 8.426h87.565" opacity=".188"/></g></g><g class="B"><path d="M870.326-36.542c-20.136 0-36.459 12.572-36.459 28.081S850.19 19.62 870.326 19.62s36.459-12.572 36.459-28.081-16.323-28.081-36.459-28.081z" fill="#d8f2fb"/><path d="M833.867-18.15c0,15.015,16.323,27.187,36.459,27.187s36.459-12.172,36.459-27.187-16.323-27.187-36.459-27.187-36.459,12.172-36.459,27.187Z" class="Z"/><path d="M837.556-17.765c0,11.902,14.671,21.55,32.771,21.55s32.771-9.648,32.771-21.55-14.672-21.55-32.771-21.55-32.771,9.648-32.771,21.55Z" fill="#50b0b8" class="R"/></g><g clip-path="url(#b)" class="B Z"><path d="M833.867-8.292c0,15.416,16.323,27.913,36.46,27.913s36.46-12.497,36.46-27.912-16.323-27.913-36.46-27.913-36.46,12.497-36.46,27.912Z"/></g><g class="B"><path d="M858.864-23.014V17.581s5.454-2.844,12.181-2.844h0c6.727,0,12.181,2.844,12.181,2.844V-23.014h-24.362Z" fill="#50b0b8" class="R"/><path d="M856.853,17.642l2.011-1.09s5.454-2.844,12.181-2.844h0c6.727,0,12.181,2.844,12.181,2.844l2.011.635-6.567.394-16.297.642-5.521-.581Z" fill="#7f7db4" class="R"/></g><g class="Z"><path d="M854.833-7.921h2.826V8.346h-2.826zm29.649 0h2.826V8.346h-2.826z"/></g><g fill="#d8f2fb"><path d="M851.844-11.884h5.242v21.897h-5.242zm33.211 0h5.242v21.897h-5.242z"/></g><path d="M881.806-26.174v40.839c-2.345.647-6.314 1.515-10.761 1.515-4.703 0-8.49-.625-10.761-1.123v-41.231h21.522m3.441-3.441h-28.403v47.329s5.674 1.907 14.202 1.907c7.843 0 14.202-2.434 14.202-2.434v-46.802h0z" class="S"/><path d="M871.045 18.758v-30.726" stroke="#fff" stroke-width="3.441" class="D a"/><g opacity=".35" class="B S"><g clip-path="url(#c)"><path d="M868.007 19.557h-11.154l16.521-38.333h11.153l-16.52 38.333z"/></g></g><rect x="875.168" y="3.422" width=".992" height="2.431" rx=".496" stroke="#fff" stroke-width="1.72" class="D a"/><g clip-path="url(#d)" stroke="#4a488a" stroke-width="7.179" class="D I K"><path style="mix-blend-mode:multiply" d="M885.304-80.765v91.497m-29.956-91.497v91.497" opacity=".188"/></g><use href="#Ad" class="B J"/><use href="#Ad" stroke-dasharray="0 10.001" class="D I K L O"/><g fill="#409058"><path d="M1096.27 129.067c1.3 0 2.355-1.052 2.355-2.353v-7.366c0-1.3-1.054-2.353-2.355-2.353s-2.355 1.052-2.355 2.353v7.366c0 1.3 1.054 2.353 2.355 2.353zm-9.422 0c1.3 0 2.355-1.052 2.355-2.353v-4.912c0-1.3-1.054-2.353-2.355-2.353s-2.355 1.052-2.355 2.353v4.912c0 1.3 1.054 2.353 2.355 2.353zm18.843 0c1.3 0 2.355-1.052 2.355-2.353v-4.912c0-1.3-1.054-2.353-2.355-2.353s-2.355 1.052-2.355 2.353v4.912c0 1.3 1.054 2.353 2.355 2.353z" class="R"/></g><g fill="#f8d749" class="B"><path d="M1103.48 75.483l-1.199-1.198 1.199-1.198c.662-.661.662-1.735 0-2.396a1.7 1.7 0 0 0-2.398 0l-1.2 1.198-1.2-1.198a1.7 1.7 0 0 0-2.398 0c-.662.66-.662 1.734 0 2.396l1.199 1.198-1.199 1.198c-.662.661-.662 1.736 0 2.397a1.7 1.7 0 0 0 2.398 0l1.2-1.199 1.2 1.199a1.7 1.7 0 0 0 2.398 0c.662-.661.662-1.736 0-2.397zm-11.295 5.95a1.7 1.7 0 0 0-2.398 0l-1.199 1.198-1.2-1.198a1.7 1.7 0 0 0-2.398 0c-.662.66-.662 1.734 0 2.396l1.199 1.198-1.199 1.198c-.662.661-.662 1.736 0 2.397a1.7 1.7 0 0 0 2.398 0l1.2-1.198 1.199 1.198a1.7 1.7 0 0 0 2.398 0c.662-.661.662-1.736 0-2.397l-1.199-1.198 1.199-1.198c.662-.661.662-1.736 0-2.396zm18.284 8.228l1.199-1.198c.662-.661.662-1.736 0-2.396a1.7 1.7 0 0 0-2.398 0l-1.2 1.198-1.2-1.198a1.7 1.7 0 0 0-2.398 0c-.662.66-.662 1.734 0 2.396l1.199 1.198-1.199 1.198c-.662.661-.662 1.736 0 2.397a1.7 1.7 0 0 0 2.398 0l1.2-1.199 1.2 1.199a1.7 1.7 0 0 0 2.398 0c.662-.661.662-1.736 0-2.397l-1.199-1.198z"/></g><path d="M1044.335 96.861h-13.107l-3.552 32.411a3.04 3.04 0 0 0 3.02 3.366h14.236c1.811 0 3.22-1.573 3.019-3.371l-3.616-32.406z" class="M"/><g clip-path="url(#e)" class="B P"><use href="#Ae" style="mix-blend-mode:multiply" class="Q"/></g><use href="#Af" class="B H"/><g clip-path="url(#f)"><path d="M1037.813 84.049l39.922 34.123h-39.922V84.049z" class="B C"/><use href="#Ag" class="G"/><g class="B"><g class="F"><path d="M1058.682 115.58h-4.472v-7.515c0-1.233 1.002-2.234 2.236-2.234s2.236 1.001 2.236 2.234v7.515zm-8.944.331h-4.472v-14.829c0-1.233.999-2.232 2.234-2.232h.005c1.234 0 2.234.999 2.234 2.232v14.829z"/></g><g class="C"><path d="M1073.588 101.126v-4.231h-6.826a2.12 2.12 0 0 0-1.498.621c-.396.395-.619.934-.619 1.495h0c0 .563.224 1.099.619 1.497a2.11 2.11 0 0 0 1.498.619h6.826zm0-8.699v-4.468h-13.418c-1.234 0-2.234.999-2.234 2.232v.004c0 1.233.999 2.232 2.234 2.232h13.418z"/></g></g></g><use href="#Ah" class="B H"/><g clip-path="url(#g)"><path d="M1037.813 84.049l-39.922 34.123h39.922V84.049z" class="B C"/><use href="#Ai" class="G"/><g class="B"><g class="F"><path d="M1016.945 115.58h4.472v-7.515c0-1.233-1.002-2.234-2.236-2.234s-2.236 1.001-2.236 2.234v7.515zm8.943.331h4.472v-14.827a2.23 2.23 0 0 0-.655-1.579 2.24 2.24 0 0 0-3.162 0 2.23 2.23 0 0 0-.655 1.579v14.827z"/></g><g class="C"><path d="M1002.039 101.363v-4.468h6.71a2.23 2.23 0 0 1 1.579.655c.42.418.655.985.655 1.577v.004a2.23 2.23 0 0 1-2.234 2.231h-6.71zm0-8.936v-4.468h13.415a2.24 2.24 0 0 1 1.581.655 2.23 2.23 0 0 1 .655 1.579c0 .592-.235 1.162-.655 1.579a2.23 2.23 0 0 1-1.581.655h-13.415z"/></g></g></g><path d="M1037.823 113.65l-10.715-7.802c-5.918-4.309-6.587-12.88-1.409-18.054l3.748-3.745h16.751l3.748 3.745c5.178 5.174 4.509 13.745-1.409 18.054l-10.715 7.802z" class="B G"/><g clip-path="url(#h)"><path d="M1037.823 82.693h16.904v32.057h-16.904z" class="C"/><path d="M1035.578 80.822h4.472v38.966h-4.472z" class="N"/><use href="#Aj" class="C"/><use href="#Ak" class="F"/><path d="M1021.959 110.558c-.728 0-1.444-.355-1.872-1.008-.678-1.033-.39-2.417.643-3.094l9.089-5.957c1.034-.681 2.419-.387 3.095.641s.39 2.417-.643 3.094l-9.089 5.957a2.22 2.22 0 0 1-1.223.367z" class="C"/><path d="M1053.667 110.558a2.22 2.22 0 0 1-1.223-.367l-9.086-5.957a2.23 2.23 0 1 1 2.452-3.735l9.086 5.957a2.23 2.23 0 0 1 .643 3.094c-.428.653-1.144 1.008-1.872 1.008z" class="F"/></g><g class="B"><path d="M1049.882 124.82a4.38 4.38 0 0 0-4.369 4.365 4.38 4.38 0 0 0-4.369-4.365 4.38 4.38 0 0 0-4.369 4.365 4.38 4.38 0 0 0-4.369-4.365 4.38 4.38 0 0 0-4.369 4.365 4.38 4.38 0 0 0-4.369-4.365 4.38 4.38 0 0 0-4.369 4.365l3.949 3.453 10.159 1.088 14.562-.72 6.282-3.822a4.38 4.38 0 0 0-4.369-4.365z" class="J"/><path d="M1058.265 153.077a17.81 17.81 0 0 0 5.223 12.6c3.345 3.342 7.882 5.219 12.613 5.219h17.939v-11.78a17.81 17.81 0 0 0-5.223-12.602c-3.345-3.34-7.882-5.219-12.613-5.219h-17.939v11.782z" class="H"/></g><g clip-path="url(#i)"><path d="M1058.265 141.294l39.922 34.123h-39.922v-34.123z" class="B C"/><path d="M1056.868 143.02l2.827-3.461 35.755 29.201-2.827 3.461z" class="G"/></g><path d="M1058.265 153.077a17.81 17.81 0 0 1-5.223 12.6c-3.345 3.342-7.882 5.219-12.613 5.219h-17.939v-11.78a17.81 17.81 0 0 1 5.223-12.602c3.345-3.34 7.882-5.219 12.613-5.219h17.939v11.782z" class="B H"/><g clip-path="url(#j)"><path d="M1058.265 141.294l-39.923 34.123h39.923v-34.123z" class="B C"/><path d="M1021.08 168.745l35.775-29.176 2.824 3.463-35.775 29.176z" class="G"/></g><path d="M1058.275 170.895l-10.715-7.802c-5.918-4.309-6.587-12.88-1.409-18.054l3.748-3.745h16.751l3.748 3.745c5.178 5.174 4.509 13.745-1.409 18.054l-10.715 7.802z" class="B G"/><g clip-path="url(#k)"><path d="M1058.275 139.938h16.904v32.057h-16.904z" class="C"/><path d="M1056.03 138.067h4.472v38.966h-4.472z" class="N"/></g><path d="M1133.118 106.581h0a.88.88 0 0 1 1.18.395l2.51 5.036a.88.88 0 0 1-.396 1.181h0a.88.88 0 0 1-1.18-.395l-2.51-5.036a.88.88 0 0 1 .396-1.181z" class="b"/><path d="M1133.734 105.868h0a.88.88 0 0 1 1.204.322l2.815 4.871a.88.88 0 0 1-.322 1.205h0a.88.88 0 0 1-1.202-.322l-2.815-4.872a.88.88 0 0 1 .322-1.204z" fill="#eab73f"/><path d="M1133.614 105.816h0a.88.88 0 0 1 1.245-.001l3.981 3.978a.88.88 0 0 1 .001 1.247h0a.88.88 0 0 1-1.245.001l-3.981-3.978a.88.88 0 0 1-.001-1.247z" class="b"/><path d="M1134.009 105.811h0a.88.88 0 0 1 1.22-.246l4.69 3.114a.88.88 0 0 1 .247 1.223h0a.88.88 0 0 1-1.22.246l-4.69-3.114a.88.88 0 0 1-.247-1.223z" fill="#eab73f"/><g fill="#aeaeae"><use href="#Al"/><use href="#Am"/></g><use href="#An" fill="#377d90"/><g fill="#c0cbd0"><path d="M1130.64,109.26h-3.469c-.357,0-.646-.289-.646-.646s.289-.646.646-.646h3.469c.357,0,.646.289.646.646s-.289.646-.646.646Z"/><path d="M1129.12,109.26c-.357,0-.646-.289-.646-.646v-1.519c0-.357.289-.646.646-.646s.646.289.646.646v1.519c0,.357-.289.646-.646.646Z"/></g><path d="M1129.19 107.523h0a.95.95 0 0 1-.952-.952l-.639-3.467 3.044.524-.5 2.943a.95.95 0 0 1-.952.952z" fill="#50b0cc"/><path d="M1135.911 106.802l-4.962-9.235c-.264-.439-.891-1.158-1.209-1.508-.601-.66-2.538-2.594-4.583-3.366-1.186-.448-2.58-.003-3.392.778-.56.539-1.012 1.511-.795 2.384s1.674 1.568 2.547 1.804l.03.008c.647.175 1.1.769 1.056 1.432-.08 1.226.591 2.335 1.665 3.164l7.616 6.254c.527.447 1.307.424 1.805-.055.452-.434.544-1.123.221-1.661z" fill="#4192b5"/><path d="M1136.306 106.15l-4.787-1.723c-2.607-.938-4.668-2.975-5.636-5.57h0c-.802-2.149 1.529-4.12 3.518-2.975l2.592 1.492c1.951 1.123 3.435 2.907 4.183 5.028l1.013 2.872a.69.69 0 0 1-.883.876z" fill="#c32944"/><circle cx="1123.157" cy="95.228" r="2.241" class="S"/><path d="M1122.879 96.564l.248.248a1.14 1.14 0 0 0 1.615 0h0l-1.114 1.113c-.583.583-1.528.583-2.111 0l1.362-1.361z" fill="#6e7f95"/><g fill="#999fbd"><path d="M1121.572 95.257a1.14 1.14 0 0 1 0-1.614h0c-.135.134.023-.023-.526.525a2.98 2.98 0 0 0-.138 4.071c.073.083.203.083.282.005l1.687-1.685-1.304-1.303z"/><circle cx="1122.663" cy="94.502" r=".683"/></g><circle cx="1122.663" cy="94.502" r=".424" fill="#2b2220"/><g clip-path="url(#l)" class="b"><path d="M1120.202,97.068l-1.038.073c-.853.06-1.593-.583-1.652-1.435l-.073-1.037c-.06-.852.583-1.591,1.436-1.651l4.038-.282s-1.416.82-1.335,1.82l.06.862c.06.852-.583,1.591-1.436,1.651Z"/></g><path d="M334.273-250.842l97.829-97.746c10.027-10.014 15.549-23.331 15.549-37.496v-16.205c0-29.236-23.806-53.021-53.066-53.021h-62.502a38.86 38.86 0 0 1-27.654-11.446l-26.386-26.362c-2.871-26.548-25.436-47.284-52.757-47.284h-9.701c-14.176 0-27.502 5.515-37.525 15.528l-74.212 74.153c-15.349 15.333-23.801 35.719-23.801 57.406v48.459c0 21.687 8.452 42.075 23.798 57.406l36.634 36.602c2.266 3.228 5.371 5.791 8.914 7.824 10.304 5.911 12.152 19.86 3.66 28.167l-.298.293L-60.488-15.868l32.859 157.902H249.77c16.737 0 33.057-5.862 45.951-16.504 16.864-13.915 26.464-34.494 26.271-56.371-.352-39.812-33.483-71.575-73.296-71.575h-18.117c-1.647 0-3.202-.599-4.417-1.695l-.485-.551c-2.331-2.601-2.23-6.568.229-9.028l16.323-16.322a28.12 28.12 0 0 1 19.885-8.236h26.98a84.85 84.85 0 0 0 12.193-.88c4.391-.638 8.269 2.887 8.186 7.323l-.007.72c.002 21.638 18.082 38.951 39.72 38.951h13.628c21.287 0 39.548-17.404 39.689-38.691a38.73 38.73 0 0 0-3.44-16.263c-2.694-5.954 1.665-12.697 8.2-12.697h.005c20.954 0 38.64-17.14 38.947-38.092.321-21.912-11.607-31.781-22.878-36.217-5.747-2.262-7.441-9.676-3.282-14.243 6.531-7.172 10.426-16.783 10.133-27.291-.579-20.832-18.863-37.849-39.703-37.849h-14.366a38.73 38.73 0 0 0-22.601 7.246c-9.114 6.516-21.57 5.601-29.492-2.322l-5.63-5.63-.3-.299c-9.554-9.461-6.386-25.529 6.096-30.525 4.322-1.73 7.923-3.679 10.081-5.836z" fill="#74dddc"/><path d="M328.869-161.239l-30.364-30.364a56.25 56.25 0 0 0-39.775-16.476h-38.518l-43.953 43.953a19.31 19.31 0 0 0-5.656 13.655v21.441c0 5.121 2.035 10.033 5.656 13.655l11.185 11.186c7.542 7.542 7.542 19.769 0 27.31L109.599.967a19.31 19.31 0 0 0-5.655 13.655v26.017l3.961 49.773a18.46 18.46 0 0 0 1.695 1.97l15.481 15.481a19.31 19.31 0 0 0 13.655 5.656h28.9c5.122 0 10.033-2.035 13.655-5.656l8.639-8.639c7.542-7.541 19.769-7.541 27.31 0a19.31 19.31 0 0 0 13.655 5.656h39.165c2.701 0 5.336.58 7.761 1.645h0c9.801-8.088 16.048-20.328 16.048-34.027 0-24.353-19.742-44.096-44.096-44.096h-19.191a34.74 34.74 0 0 1-24.561-10.173h0c-.459-.459-.863-.95-1.291-1.428-12.218-13.637-11.814-34.585 1.289-47.691l16.322-16.321a56.25 56.25 0 0 1 39.776-16.476h26.98c14.919 0 29.227-5.927 39.776-16.476s16.476-24.857 16.476-39.776v-1.523c0-14.919-5.927-29.227-16.476-39.776z" fill="#fcf4c7"/><path d="M270.056 104.879h-39.165a19.31 19.31 0 0 1-13.655-5.656c-7.542-7.541-19.769-7.541-27.31 0l-8.639 8.639a19.31 19.31 0 0 1-13.655 5.656h-28.9c-5.122 0-10.033-2.035-13.655-5.656l-15.481-15.481c-.618-.617-1.177-1.28-1.695-1.97l-3.961-49.773V14.621A19.31 19.31 0 0 1 109.595.966l77.846-77.846c7.542-7.541 7.542-19.768 0-27.31l-11.185-11.186c-3.621-3.621-5.656-8.534-5.656-13.655v-21.441c0-5.122 2.035-10.033 5.656-13.655l43.953-43.953h-8.175a56.25 56.25 0 0 0-39.775 16.476L33.953-62.73-29.721-3.4l24.97 119.994h254.52a43.91 43.91 0 0 0 28.048-10.069c-2.425-1.065-5.061-1.645-7.761-1.645z" class="J"/><g class="D I K L O"><path d="M-4.751 116.594h0"/><path d="M5.425 116.594H249.77a43.89 43.89 0 0 0 23.949-7.064" stroke-dasharray="0 10.176"/><path d="M277.818 106.524h0"/><path d="M268.047 104.879h-37.155a19.31 19.31 0 0 1-13.655-5.656c-7.542-7.542-19.769-7.542-27.31 0l-8.639 8.638c-3.621 3.622-8.533 5.656-13.655 5.656h-28.899c-5.122 0-10.033-2.035-13.655-5.656l-15.481-15.48c-.618-.617-1.177-1.28-1.695-1.97l-3.961-49.773V14.621A19.31 19.31 0 0 1 109.597.967l77.846-77.846c7.542-7.542 7.542-19.768 0-27.31l-11.185-11.186c-3.621-3.621-5.656-8.534-5.656-13.655v-21.441a19.31 19.31 0 0 1 5.656-13.654l40.418-40.419" stroke-dasharray="0 9.997"/></g><path d="M244.818 72.651h15.199l4.119 37.585c.228 2.083-1.404 3.903-3.502 3.903h-16.508a3.52 3.52 0 0 1-3.501-3.91l4.193-37.579z" class="M"/><g clip-path="url(#m)" class="B P"><use href="#Ao" style="mix-blend-mode:multiply" class="Q"/></g><path d="M252.38 71.457c0 5.479-2.178 10.736-6.057 14.611a20.69 20.69 0 0 1-14.626 6.052h-20.802V78.46c0-5.482 2.178-10.738 6.057-14.614s9.14-6.052 14.626-6.052h20.802v13.663z" class="B H"/><g clip-path="url(#n)"><path d="M252.38 57.794l-46.295 39.569h46.295V57.794z" class="B C"/><path d="M209.266 89.633l41.463-33.863 3.278 4.014-41.463 33.863z" class="G"/><g class="B"><g class="F"><use href="#Ap"/><path d="M238.552 94.742h5.186V77.545a2.59 2.59 0 0 0-2.59-2.588h-.005a2.59 2.59 0 0 0-2.59 2.588v17.197z"/></g><g class="C"><path d="M210.895 77.597V72.69h7.916c.651 0 1.276.259 1.737.72a2.45 2.45 0 0 1 .718 1.733h0a2.46 2.46 0 0 1-.718 1.736c-.462.461-1.086.718-1.737.718h-7.916zm0-10.088v-5.181h15.56a2.59 2.59 0 0 1 2.59 2.588v.005a2.59 2.59 0 0 1-2.59 2.588h-15.56z"/></g></g></g><path d="M252.38 71.457c0 5.479 2.178 10.736 6.057 14.611a20.69 20.69 0 0 0 14.626 6.052h20.802V78.46c0-5.482-2.178-10.738-6.057-14.614s-9.14-6.052-14.626-6.052H252.38v13.663z" class="B H"/><g clip-path="url(#o)"><path d="M252.38 57.794l46.295 39.569H252.38V57.794z" class="B C"/><path d="M250.742 59.801l3.275-4.016 41.486 33.834-3.275 4.016z" class="G"/><g class="B"><g class="F"><path d="M276.58 94.358h-5.186v-8.715c0-1.43 1.162-2.591 2.593-2.591s2.593 1.161 2.593 2.591v8.715zm-10.371.384h-5.186V77.548c0-.687.272-1.345.76-1.832a2.6 2.6 0 0 1 3.666 0 2.59 2.59 0 0 1 .76 1.832v17.194z"/></g><g class="C"><path d="M293.866 77.871V72.69h-7.781c-.687 0-1.346.272-1.831.759a2.59 2.59 0 0 0-.76 1.829v.005c0 .687.272 1.345.76 1.832a2.59 2.59 0 0 0 1.831.756h7.781zm0-10.362v-5.181h-15.557a2.6 2.6 0 0 0-1.833.759 2.59 2.59 0 0 0-.76 1.832 2.58 2.58 0 0 0 .76 1.832c.485.487 1.146.759 1.833.759h15.557z"/></g></g></g><path d="M252.369 92.12l12.425-9.047c6.863-4.997 7.639-14.937 1.634-20.936l-4.346-4.343h-19.425l-4.346 4.343c-6.005 6-5.229 15.939 1.634 20.936l12.425 9.047z" class="B G"/><g clip-path="url(#p)"><path d="M252.369 93.396h-19.603V56.221h19.603z" class="C"/><path d="M249.786 54.052h5.186v45.186h-5.186z" class="N"/><use href="#Aq" class="C"/><use href="#Ar" class="F"/><path d="M270.765 88.535c.844 0 1.675-.412 2.171-1.169.787-1.197.452-2.803-.746-3.587l-10.54-6.908a2.59 2.59 0 0 0-3.589.744c-.787 1.197-.452 2.803.746 3.587l10.54 6.908c.439.288.932.425 1.418.425z" class="C"/><path d="M233.996 88.535c.486 0 .979-.137 1.418-.425l10.537-6.908c1.199-.784 1.533-2.39.746-3.587a2.59 2.59 0 0 0-3.589-.744l-10.537 6.908c-1.199.784-1.533 2.39-.746 3.587.496.757 1.327 1.169 2.171 1.169z" class="F"/></g><path d="M238.385 105.073a5.08 5.08 0 0 1 5.066 5.062 5.08 5.08 0 0 1 5.066-5.062 5.08 5.08 0 0 1 5.066 5.062 5.08 5.08 0 0 1 5.066-5.062 5.08 5.08 0 0 1 5.066 5.062 5.08 5.08 0 0 1 5.066-5.062 5.08 5.08 0 0 1 5.066 5.062l-4.579 4.005-11.781 1.262-16.886-.834-7.284-4.432a5.08 5.08 0 0 1 5.066-5.062z" class="B J"/><path d="M154.154 57.796l1.952-11.258 26.904 4.666-1.952 11.258z" class="U"/><g class="D I K c d"><path style="mix-blend-mode:multiply" d="M155.793 50.612l26.331 4.566m-26.993-.75l26.331 4.566" class="e"/></g><use href="#As" class="V"/><g class="B"><path d="M181.344 62.512a5.81 5.81 0 1 0 1.985-11.449l-1.985 11.449z" class="U"/><path d="M182.524 61.589h.023l.03-.002h.03l.03-.003.03-.002.03-.002.029-.002.029-.002.03-.003.029-.003.029-.003.029-.003.029-.003.029-.004.029-.004.029-.004.029-.004.029-.004.029-.004.029-.005.029-.005.029-.005.029-.005.029-.005.029-.006.029-.006.029-.006.029-.006.029-.006.028-.006.028-.006.029-.007.028-.007.028-.007.028-.007.028-.007.028-.008.028-.008.028-.008.028-.008.028-.008.028-.008.028-.009.028-.009.028-.009.028-.009.028-.009.027-.009.027-.01.027-.01.027-.01.027-.01.027-.01.027-.01.027-.011.027-.01.027-.011.027-.011.027-.011.027-.011.026-.012.027-.012.026-.012.026-.012.026-.012.026-.012.026-.012.026-.013.026-.013.026-.013.026-.013.026-.013.026-.013.025-.013.025-.014.026-.014.025-.014.025-.014.025-.014.025-.014.025-.015.025-.015.025-.015.025-.015.024-.015.025-.015.024-.015.024-.016.024-.016.024-.016.024-.016.024-.016.024-.016.024-.016.024-.017.024-.017.023-.017.023-.017.023-.017.023-.017.023-.017.023-.018.023-.018.023-.018.023-.018.023-.018.022-.018.022-.018.022-.019.022-.018.022-.019.022-.019.022-.019.022-.019.022-.019.021-.019.021-.019.021-.02.021-.02.021-.02.021-.02.021-.02.021-.02.021-.02.02-.021.02-.021.02-.021.02-.021.02-.021.02-.021.02-.021.019-.021.02-.021.019-.022.019-.022.019-.022.019-.022.019-.022.019-.022.019-.022.018-.022.018-.023.018-.023.018-.023.018-.023.018-.023.018-.023.017-.023.017-.023.017-.023.017-.024.017-.024.017-.024.017-.024.016-.024.016-.024.016-.024.016-.024.016-.024.016-.024.016-.025.015-.025.015-.025.015-.025.015-.025.015-.025.015-.025.015-.026.014-.026.014-.026.014-.026.014-.026.014-.026.014-.026.013-.026.013-.026.013-.026.013-.026.013-.027.013-.027.013-.027.012-.027.012-.027.012-.027.012-.027.012-.027.012-.027.011-.027.011-.028.011-.028.011-.028.011-.028.011-.028.011-.028.01-.028.01-.028.01-.028.01-.028.01-.029.01-.029.009-.029.009-.029.009-.029.009-.029.009-.029.008-.029.008-.029.008-.029.008-.03.008-.03.008-.03.007-.03.007-.03.007-.03.007-.03.007-.03.007-.03.006-.03.006-.03.006-.031.006-.031.006-.03.006-.031.005-.031.005-.031.005-.031.004-.031.004-.031.004-.031.004-.031.004-.031.004-.031.003-.031.003-.031.003-.031.003-.03.003-.031.002-.031.002-.03.002-.03.002-.03.002-.03.002-.03v-.03l.002-.03v-.03l.002-.03v-.03-.03-.03-.03-.03-.03-.03l-.001-.03v-.03l-.002-.03v-.03l-.003-.03-.002-.03-.002-.03-.002-.03-.002-.03-.002-.029-.003-.03-.003-.03-.003-.029-.003-.029-.003-.029-.004-.03-.004-.029-.004-.029-.004-.029-.004-.029-.004-.029-.004-.029-.005-.029-.005-.029-.005-.029-.005-.029-.006-.029-.006-.029-.006-.029-.006-.029-.006-.029-.006-.029-.006-.028-.007-.028-.007-.028-.007-.028-.007-.028-.007-.028-.008-.028-.008-.028-.008-.028-.008-.028-.008-.028-.008-.028-.009-.028-.009-.028-.009-.028-.009-.028-.009-.027-.009-.028-.01-.027-.01-.027-.01-.027-.01-.027-.01-.027-.01-.027-.01-.027-.011-.027-.011-.027-.011-.027-.011-.027-.011-.027-.012-.027-.012-.026-.012-.026-.012-.026-.012-.026-.012-.026-.012-.026-.013-.026-.013-.026-.013-.026-.013-.026-.013-.026-.013-.026-.013-.026-.014-.025-.014-.026-.014-.025-.014-.025-.014-.025-.014-.025-.014-.025-.015-.025-.015-.025-.015-.025-.015-.025-.015-.025-.015-.024-.016-.024-.016-.024-.016-.024-.016-.024-.016-.024-.016-.024-.016-.024-.017-.024-.017-.023-.017-.023-.017-.023-.017-.023-.017-.023-.017-.023-.018-.023-.018-.023-.018-.023-.018-.023-.018-.022-.018-.022-.018-.022-.018-.022-.019-.022-.019-.022-.019-.022-.019-.022-.019-.021-.019-.022-.019-.021-.019-.021-.02-.021-.02-.021-.02-.021-.02-.021-.02-.021-.02-.021-.02-.021-.021-.02-.021-.02-.021-.02-.021-.02-.021-.02-.021-.02-.021-.02-.021-.02-.021-.019-.022-.019-.022-.019-.022-.019-.022-.019-.022-.019-.022-.019-.022-.019-.022-.018-.023-.018-.023-.018-.023-.018-.023-.018-.023-.018-.023-.018-.023-.017-.023-.017-.024-.017-.024-.017-.024-.017-.024-.017-.024-.017-.024-.017-.024-.016-.024-.016-.024-.016-.025-.016-.024-.016-.025-.016-.025-.015-.025-.015-.025-.015-.025-.015-.025-.015-.025-.015-.026-.015-.026-.014-.026-.014-.026-.014-.026-.014-.026-.014-.026-.014-.026-.014-.026-.013-.026-.013-.026-.013-.027-.013-.027-.013-.027-.013-.027-.012-.027-.012-.027-.012-.027-.012-.027-.012-.027-.012-.027-.011-.028-.011-.021-.008-1.606 9.26zm.842-10.519l.037.007.037.007.037.007.037.008.037.008.036.008.036.008.036.008.036.008.036.009.036.009.036.009.036.009.036.01.036.01.035.01.035.01.035.011.035.011.035.011.035.011.035.011.035.012.035.012.034.012.034.012.034.012.034.012.034.013.034.013.034.013.034.013.033.014.034.014.033.014.033.014.033.014.033.015.033.015.033.015.033.015.033.015.032.015.032.016.032.016.032.016.032.016.032.016.032.017.031.017.031.017.031.017.031.017.031.017.031.018.031.018.031.018.031.018.03.018.03.019.03.019.03.019.03.019.03.019.029.019.029.02.029.02.029.02.029.02.029.02.029.02.029.02.028.021.028.021.028.021.028.021.028.021.028.022.028.022.027.022.027.022.027.022.027.022.027.023.027.023.027.023.026.023.026.023.026.023.026.023.026.024.026.024.026.024.025.024.025.024.025.024.025.024.025.025.025.025.024.025.024.025.024.025.024.025.024.025.024.026.024.026.023.026.023.026.023.026.023.026.023.026.023.027.022.027.022.027.022.027.022.027.022.027.022.027.022.028.021.027.021.028.021.028.021.028.021.028.02.028.02.028.02.028.02.028.02.029.02.029.019.029.019.029.019.029.019.029.019.029.019.029.018.03.018.03.018.03.018.03.018.03.018.03.017.03.017.03.017.03.017.031.017.031.016.031.016.031.016.031.016.031.016.031.015.031.015.031.015.031.015.031.015.032.015.032.014.032.014.032.014.032.014.032.014.032.013.032.013.032.013.033.013.033.013.033.013.033.012.033.012.033.012.033.012.033.012.033.011.033.011.033.011.033.011.034.011.033.01.034.01.034.01.034.01.034.01.034.009.034.009.034.009.034.009.034.009.034.008.034.008.034.008.035.008.035.007.035.007.035.007.035.007.035.007.035.007.035.006.035.006.035.006.035.006.035.005.035.005.035.005.035.005.035.005.035.004.036.004.036.004.036.004.036.004.036.003.036.003.036.003.036.002.036.002.036.002.036.002.036.002.036v.036l.003.036v.036l.002.036v.036.036.036.036.036l-.001.036v.037l-.002.037v.037l-.003.037-.002.037-.002.037-.002.037-.002.037-.003.037-.003.037-.003.037-.003.037-.004.037-.004.037-.004.037-.004.037-.005.037-.005.037-.005.037-.005.037-.006.037-.006.037-.006.037-.006.037-.007.037-.007.037-.007.037-.007.037-.008.037-.008.037-.008.036-.008.036-.008.036-.009.036-.009.036-.009.036-.009.036-.009.036-.01.036-.01.036-.01.035-.01.035-.011.035-.011.035-.011.035-.011.035-.011.035-.012.035-.012.035-.012.034-.012.034-.012.034-.013.034-.013.034-.013.034-.013.034-.013.034-.013.033-.014.034-.014.033-.014.033-.014.033-.014.033-.015.033-.015.033-.015.033-.015.033-.015.032-.016.032-.016.032-.016.032-.016.032-.016.032-.017.032-.017.031-.017.031-.017.031-.017.031-.017.031-.018.031-.018.031-.018.031-.018.031-.019.03-.018.03-.019.03-.019.03-.019.03-.019.03-.019.029-.02.029-.02.029-.02.029-.02.029-.02.029-.02.029-.021.029-.021.028-.021.028-.021.028-.021.028-.022.028-.021.028-.022.028-.022.028-.022.027-.022.027-.022.027-.022.027-.023.027-.023.027-.023.026-.023.026-.023.026-.023.026-.024.026-.024.026-.024.026-.024.025-.024.025-.024.025-.024.025-.025.025-.025.025-.025.024-.025.024-.025.024-.025.024-.026.024-.026.024-.026.024-.026.023-.026.023-.026.023-.026.023-.026.023-.027.023-.027.022-.027.022-.027.022-.027.022-.027.022-.027.022-.028.022-.027.021-.028.021-.028.021-.028.021-.028.021-.028.02-.028.02-.028.02-.028.02-.029.02-.029.02-.029.019-.029.019-.029.019-.029.019-.029.019-.03.019-.03.018-.03.018-.03.018-.03.018-.03.018-.03.018-.03.017-.03.017-.03.017-.031.017-.031.017-.031.016-.031.016-.031.016-.031.016-.031.016-.031.015-.031.015-.031.015-.032.015-.032.015-.032.015-.032.014-.032.014-.032.014-.032.014-.032.014-.032.013-.032.013-.033.013-.033.013-.033.013-.033.013-.033.012-.033.012-.033.012-.033.012-.033.012-.033.011-.033.011-.033.011-.034.011-.034.01-.034.01-.034.01-.034.01-.034.01-.034.01-.034.009-.034.009-.034.009-.034.009-.034.009-.034.008-.035.008-.034.008-.035.008-.035.007-.035.007-.035.007-.035.007-.035.007-.035.007-.035.006-.035.006-.035.006-.035.006-.035.005-.035.005-.035.005-.036.005-.035.005-.036.004-.036.004-.036.004-.036.004-.036.003-.036.003-.036.003-.036.003-.036.002-.036.002-.036.002-.036.002-.036.002h-.036l-.036.003h-.036l-.036.002h-.036-.036-.036-.036-.036l-.036-.001h-.036l-.037-.002h-.037l-.037-.003-.037-.002-.037-.002-.037-.002-.037-.002-.037-.003-.037-.003-.037-.003-.037-.003-.037-.004-.037-.004-.037-.004-.037-.004-.037-.005-.037-.005-.037-.005-.037-.005-.037-.006-.037-.006-.037-.006-.037-.006 1.985-11.449.037.007z" class="f"/><path d="M154.344 57.83a5.62 5.62 0 0 0 6.493-4.574 5.62 5.62 0 0 0-4.574-6.493l-1.919 11.067z" fill="#883414"/></g><g class="V"><path d="M154.058 57.779l1.985-11.448.381.066-1.985 11.448z"/><path d="M155.977 46.712l.066-.381 27.19 4.715-.066.381z"/></g><g class="B"><g fill="#f3da4c"><path d="M163.102 62.296l-16.6-2.879 4.051-4.429c.763-.834 1.898-1.222 3.011-1.029l6.513 1.129 3.025 7.207z"/><path d="M174.05 63.719l-18.929-3.283 4.904-5.64a3.2 3.2 0 0 1 2.964-1.054l5.906 1.024c1.104.192 2.028.946 2.436 1.991l2.719 6.962z"/><path d="M160.353 60.161l-7.012-1.216 2.108-4.49c.446-.951 1.474-1.486 2.509-1.307h0c1.035.18 1.823 1.029 1.923 2.075l.473 4.937z"/><use href="#At"/><path d="M174.902 62.684l-5.796-1.005 1.995-4.795a1.84 1.84 0 0 1 3.538.613l.264 5.187z"/><path d="M179.263 66.475l-20.018-3.471 6.361-6.955 8.346 1.447c1.036.18 1.909.875 2.316 1.845l2.995 7.135z"/></g><g fill="#eeb742"><path d="M168.011 57.792a.63.63 0 0 0-.513-.728l-.859-.149a.63.63 0 0 0-.728.513.63.63 0 0 0 .512.728l.859.149a.63.63 0 0 0 .728-.513zm-4.347.131a.63.63 0 0 0-.513-.728l-.859-.149a.63.63 0 0 0-.728.513.63.63 0 0 0 .513.728l.859.149a.63.63 0 0 0 .728-.512zm2.911-2.051a.63.63 0 0 0-.512-.728l-.859-.149a.63.63 0 0 0-.728.513.63.63 0 0 0 .513.728l.859.149a.63.63 0 0 0 .728-.512z"/><use href="#Au"/><path d="M155.489 56.898a.63.63 0 0 0-.513-.728l-.859-.149a.63.63 0 0 0-.728.512.63.63 0 0 0 .513.728l.859.149a.63.63 0 0 0 .728-.513z"/><use href="#Av"/><path d="M175.428 60.355a.63.63 0 0 0-.513-.728l-.859-.149a.63.63 0 0 0-.728.512.63.63 0 0 0 .513.728l.859.149a.63.63 0 0 0 .728-.513zm-5.987-4.576a.63.63 0 0 0-.513-.728l-.859-.149a.63.63 0 0 0-.728.513.63.63 0 0 0 .513.728l.859.149a.63.63 0 0 0 .728-.513z"/></g></g><g fill="#66c1ae"><path d="M160.573 55.348l1.315-.927.927 1.315-1.315.927zm8.435 4.276l1.609-1.133 1.133 1.609-1.609 1.133z"/></g><g fill="#db715e"><path d="M173.519 57.586l1.42-1 1 1.42-1.42 1zm-18.261.077l1.42-1 1 1.42-1.42 1z"/></g><path d="M150.513 54.427l1.162-.818.818 1.162-1.162.818z" fill="#66c1ae"/><g class="B"><g class="S"><path d="M170.338 51.955l.267 1.445 1.27.738-1.445.267-.738 1.271-.267-1.445-1.27-.738 1.445-.267.738-1.271zm-12.19 1.227l.219 1.186 1.042.605-1.185.219-.606 1.043-.219-1.185-1.043-.606 1.186-.219.606-1.043zm5.263-4.001l.219 1.186 1.043.606-1.186.219-.605 1.042-.219-1.185-1.043-.606 1.186-.219.605-1.043zm-9.205 5.48l.219 1.185 1.043.606-1.186.219-.605 1.043-.219-1.186-1.043-.605 1.185-.22.606-1.042z"/></g><path d="M181.344 62.512l-18.146-3.147-4.094 23.609 16.777 2.909a1.39 1.39 0 0 0 1.607-1.132l3.857-22.239z" class="U"/><path d="M169.895 60.526l-27.381-4.748-3.865 22.291a1.39 1.39 0 0 0 1.132 1.607l24.642 4.273a1.39 1.39 0 0 0 1.607-1.132l3.865-22.291z" fill="#b94f25"/></g><g class="D I K c d"><path d="M142.982 62.149l23.851 4.136" opacity=".563"/><path style="mix-blend-mode:multiply" d="M168.817 66.629l10.17 1.763" class="e"/></g><g class="V"><path d="M138.316 79.422l4.103-23.66 2.29.397-4.103 23.66zm25.188 4.358l4.101-23.65 2.29.397-4.101 23.65z"/><path d="M142.118 58.064l.396-2.286 27.381 4.748-.396 2.286z"/></g><g class="f"><path d="M169.498 62.816l.397-2.29 11.448 1.985-.397 2.29z"/><use href="#Aw"/><path d="M165.793 84.187l4.103-23.66 1.526.265-4.103 23.66z"/></g><g transform="matrix(.170863 -.985295 .985295 .170863 67.689 203.682)"><rect x="152.377" y="60.751" width="4.979" height="1.743" rx=".871" class="U"/><g class="D I"><rect x="152.377" y="60.751" width="4.979" height="1.743" rx=".871" stroke="#f3b64b" stroke-width="1.005"/></g></g><g class="K c d D I"><path d="M142.32 65.965l23.851 4.136m-24.546-.129l23.851 4.136m-24.512-.32l23.85 4.136" opacity=".563"/><path style="mix-blend-mode:multiply" d="M168.155 70.445l10.17 1.763m-10.865 2.244l10.17 1.763m-10.832 2.053l10.171 1.764" class="e"/></g><path d="M138.411 79.435l.397-2.29 27.362 4.745-.397 2.29z" class="V"/><path d="M165.774 84.18l.397-2.29 11.372 1.972-.397 2.29z" class="f"/><path d="M182.078 88.497l.184-12.905-5.367 3.122c-3.357 1.953-7.526 1.858-10.79-.247h0a10.33 10.33 0 0 0-10.79-.247c-3.357 1.953-7.526 1.858-10.79-.247l-.804-.519c-2.771-1.786-6.31-1.867-9.159-.209l-1.492.868-.101 4.415 49.112 5.968z" fill="#fcf4c7" class="B"/><path d="M38.932-9.193h122.792a2.7 2.7 0 0 1 2.698 2.698V8.927a2.7 2.7 0 0 1-2.698 2.698H36.235v-18.12a2.7 2.7 0 0 1 2.698-2.698z" fill="#827ea1"/><path d="M161.724 13.619h-30.31c-1.574 0-3.108.501-4.378 1.43l-7.496 5.48a7.42 7.42 0 0 1-4.378 1.43h-76.23a2.7 2.7 0 0 1-2.698-2.698V-3.625a2.7 2.7 0 0 1 2.698-2.698h122.792a2.7 2.7 0 0 1 2.698 2.698v14.547a2.7 2.7 0 0 1-2.698 2.698z" fill="#787394"/><g clip-path="url(#q)" fill="#6d6a8b"><path d="M91.182 7.286V7.22c0-.748-.607-1.355-1.355-1.355H74.528c-.748 0-1.355.607-1.355 1.355v.066c0 .748-.607 1.355-1.355 1.355h-.971a2.62 2.62 0 0 0-2.621 2.621h0a2.62 2.62 0 0 0 2.621 2.621h7.331c.748 0 1.355.607 1.355 1.355h0c0 1.185.961 2.146 2.146 2.146h13.904c1.185 0 2.146-.961 2.146-2.146h0c0-.748.607-1.355 1.355-1.355h5.859a2.62 2.62 0 0 0 2.621-2.621h0a2.62 2.62 0 0 0-2.621-2.621H92.539c-.748 0-1.355-.607-1.355-1.355zm52.001-2.268h0c0 .998.809 1.807 1.807 1.807h9.599c.748 0 1.355.607 1.355 1.355h0c0 1.279 1.037 2.315 2.315 2.315h17.73c1.279 0 2.315-1.037 2.315-2.315V4.566c0-.748-.607-1.355-1.355-1.355h-31.96c-.998 0-1.807.809-1.807 1.807zm-91.765 7.651h0c0-1.014-.822-1.835-1.835-1.835h-19.17c-.748 0-1.355.607-1.355 1.355v.96c0 .748.607 1.355 1.355 1.355h8.018c.998 0 1.807.809 1.807 1.807h0c0 .998.809 1.807 1.807 1.807h20.328c.998 0 1.807-.809 1.807-1.807h0c0-.998-.809-1.807-1.807-1.807h-9.119c-1.014 0-1.835-.822-1.835-1.835z"/><rect x="58.357" y=".081" width="19.098" height="3.501" rx="1.75"/><rect x="100.952" y="1.831" width="25.071" height="3.501" rx="1.75"/><rect x="112.335" y="15.997" width="25.071" height="3.501" rx="1.75"/><rect x="25.603" y="4.09" width="24.893" height="2.71" rx="1.355"/></g><path d="M31.393 32.117l-.108-1.209-1.08-12.107-.524-5.868-.266-3.073c0-.176-.019-.348-.054-.513l-3.847-43.121c-.125-1.4-1.298-2.474-2.704-2.474h-5.888a2.72 2.72 0 0 0-2.709 2.492l-1.15 13.799v.017H8.872c-.764 0-1.462.431-1.804 1.114L5.175-15.04c-.083.166-.149.34-.198.519-.056.2-.091.406-.103.615L3.867 4.22l-.319 5.738h0l-7.406 2.117c-1.247.356-2.107 1.496-2.107 2.793v12.37V38.16c0 .339.084.678.267.964.319.499.864.79 1.439.79H8.707c.819 0 1.484-.664 1.484-1.484v-1.743c0-.819.664-1.484 1.484-1.484h16.897c1.664 0 2.969-1.427 2.822-3.084z" fill="#787394"/><g fill="#6d6a8b" class="B"><path d="M5.92 29.663a2.72 2.72 0 0 0-2.718-2.718 2.72 2.72 0 0 0-2.718 2.718v10.249H5.92V29.663zm16.355-11.601a2.72 2.72 0 0 0-2.718-2.718 2.72 2.72 0 0 0-2.718 2.718v17.116h5.436V18.062z"/></g><g clip-path="url(#r)" class="B"><path d="M36.221-32.164v-11.779a2.47 2.47 0 0 0-2.471-2.471h-.453a2.47 2.47 0 0 1-2.471-2.471v-8.391a2.47 2.47 0 0 0-2.471-2.471H26.38a2.47 2.47 0 0 1-2.471-2.471v-5.322a2.47 2.47 0 0 0-2.471-2.471h-6.195a2.47 2.47 0 0 0-2.471 2.471v27.298a2.4 2.4 0 0 1-2.397 2.398h-.062c-1.377 0-2.483-1.096-2.483-2.461v-8.103c0-1.365-1.106-2.46-2.471-2.46H-.835a2.47 2.47 0 0 0-2.471 2.471v6.027a2.47 2.47 0 0 1-2.471 2.471H-7.03a2.47 2.47 0 0 0-2.471 2.471v62.194a2.47 2.47 0 0 0 2.471 2.471h2.571a2.47 2.47 0 0 0 2.471-2.471v-6.027a2.47 2.47 0 0 1 2.471-2.471h6.415a5.44 5.44 0 0 0 5.436-5.436V-1.574a2.47 2.47 0 0 1 2.471-2.471h1.399a2.47 2.47 0 0 0 2.471-2.471v-6.048a2.47 2.47 0 0 1 2.471-2.471h-.067a2.47 2.47 0 0 1 2.471 2.471V4.917a2.47 2.47 0 0 0 2.471 2.471h.923a2.47 2.47 0 0 1 2.471 2.471l1.265 8.391c0 1.365.567 2.471 1.931 2.471h1.903a2.47 2.47 0 0 1 2.471 2.471V34.97a2.47 2.47 0 0 0 2.471 2.471h1.138a2.47 2.47 0 0 0 2.471-2.471v-62.192a2.47 2.47 0 0 0-2.471-2.471h-1.903a2.47 2.47 0 0 1-2.471-2.471z" class="Y"/><path d="M5.923 9.288a2.72 2.72 0 0 0 1.879-3.353 2.72 2.72 0 0 0-3.353-1.879L-7.978 7.557l1.474 5.232L5.923 9.288z" fill="#2d693b"/></g><g class="B"><path d="M36.549-8.322c.46-.823 1.313-1.306 2.217-1.306h45.26 0 77.863c.904 0 1.757.483 2.217 1.307.215.385.315.824.315 1.265v5.167c0-1.398-1.126-2.532-2.524-2.532h-21.635c-.627 0-1.141.513-1.141 1.141v3.213c0 .994-.764 1.849-1.757 1.896-1.06.05-1.935-.795-1.935-1.844v-3.954c0-.7-.564-1.268-1.264-1.268h-23.197a1.27 1.27 0 0 0-1.271 1.274v.282a1.92 1.92 0 0 1-1.918 1.918H83.09c-.881 0-1.596-.715-1.596-1.596h0c0-.881-.715-1.596-1.596-1.596H58.033c-1.316 0-2.383 1.067-2.383 2.383v.588c0 .699-.567 1.266-1.266 1.266l-15.618.016a2.53 2.53 0 0 0-1.79.742c-.475.475-.742 1.119-.742 1.791v-8.889c0-.441.099-.88.315-1.264z" class="Y"/><g class="I K L O J W"><path d="M31.297 35.72H12.72l-4.102 4.103H-7.356"/></g></g><g class="D I K L"><path d="M36.103 22.18h0" class="O"/><path d="M45.982 22.18h54.335" stroke-dasharray="0 9.879" class="O"/><path d="M105.256 22.18h0" class="O"/><path d="M113.208 23.387l14.457-8.751h35.839" stroke="#fcf4c7" class="W"/></g><path d="M83.815 69.732h11.514l3.12 28.471c.173 1.578-1.064 2.956-2.653 2.956H83.291a2.67 2.67 0 0 1-2.652-2.962l3.176-28.466z" class="M"/><g clip-path="url(#s)" class="B P"><use href="#Ax" style="mix-blend-mode:multiply" class="Q"/></g><path d="M89.544 68.827c0 4.151-1.65 8.132-4.588 11.068a15.67 15.67 0 0 1-11.08 4.584H58.118V74.131a15.65 15.65 0 0 1 4.588-11.07 15.68 15.68 0 0 1 11.08-4.584h15.758v10.35z" class="B H"/><g clip-path="url(#t)"><path d="M89.544 58.477L54.475 88.452h35.069V58.477z" class="B C"/><path d="M56.885 82.597l31.408-25.651 2.483 3.041-31.408 25.651z" class="G"/><g class="B"><g class="F"><path d="M71.212 86.175h3.928v-6.602c0-1.083-.88-1.962-1.964-1.962s-1.964.879-1.964 1.962v6.602zm7.856.291h3.928V73.439a1.96 1.96 0 0 0-1.962-1.96h-.004a1.96 1.96 0 0 0-1.962 1.96v13.027z"/></g><g class="C"><path d="M58.118 73.478v-3.717h5.996a1.86 1.86 0 0 1 1.316.546c.348.347.544.82.544 1.313h0a1.86 1.86 0 0 1-.544 1.315c-.35.349-.823.544-1.316.544h-5.996zm0-7.641v-3.925h11.787a1.96 1.96 0 0 1 1.962 1.96v.004a1.96 1.96 0 0 1-1.962 1.96H58.118z"/></g></g></g><path d="M89.544 68.827c0 4.151 1.65 8.132 4.588 11.068a15.67 15.67 0 0 0 11.08 4.584h15.758V74.131a15.65 15.65 0 0 0-4.588-11.07 15.68 15.68 0 0 0-11.08-4.584H89.544v10.35z" class="B H"/><g clip-path="url(#u)"><path d="M89.544 58.477l35.069 29.975H89.544V58.477z" class="B C"/><path d="M88.303 59.998l2.481-3.042 31.426 25.63-2.481 3.042z" class="G"/><g class="B"><g class="F"><path d="M107.875 86.175h-3.928v-6.602c0-1.083.88-1.962 1.964-1.962s1.964.879 1.964 1.962v6.602zm-7.856.291h-3.928V73.441a1.96 1.96 0 0 1 .575-1.387c.367-.367.868-.575 1.389-.575a1.97 1.97 0 0 1 1.389.575 1.96 1.96 0 0 1 .575 1.387v13.025z"/></g><g class="C"><path d="M120.969 73.686v-3.925h-5.894a1.96 1.96 0 0 0-1.387.575 1.95 1.95 0 0 0-.575 1.386v.004a1.96 1.96 0 0 0 1.962 1.96h5.894zm0-7.849v-3.925h-11.785a1.97 1.97 0 0 0-1.389.575 1.96 1.96 0 0 0-.575 1.387c0 .52.206 1.02.575 1.387a1.96 1.96 0 0 0 1.389.575h11.785z"/></g></g></g><path d="M89.535 84.48l9.412-6.853c5.199-3.785 5.786-11.315 1.238-15.859l-3.292-3.29H82.178l-3.292 3.29c-4.549 4.545-3.961 12.074 1.238 15.859l9.412 6.853z" class="B G"/><g clip-path="url(#v)"><path d="M89.535 85.447H74.686v-28.16h14.849z" class="C"/><path d="M87.579 55.643h3.928v34.229h-3.928z" class="N"/><use href="#Ay" class="C"/><use href="#Az" class="F"/><path d="M103.47 81.764c.639 0 1.268-.312 1.644-.885a1.96 1.96 0 0 0-.565-2.718l-7.984-5.233c-.908-.598-2.125-.34-2.719.563a1.96 1.96 0 0 0 .565 2.718l7.984 5.233c.332.218.706.322 1.074.322z" class="C"/><path d="M75.617 81.764c.368 0 .742-.103 1.074-.322l7.982-5.233a1.96 1.96 0 0 0-2.154-3.281l-7.982 5.233a1.96 1.96 0 0 0 1.079 3.603z" class="F"/></g><path d="M76.95 101.16h25.338" class="I J K L O W"/><path d="M34.97 13.63h15.199l4.119 37.585c.228 2.083-1.404 3.903-3.502 3.903H34.278a3.52 3.52 0 0 1-3.501-3.91l4.193-37.579z" class="M"/><g clip-path="url(#w)" class="B P"><use href="#BA" style="mix-blend-mode:multiply" class="Q"/></g><path d="M42.532 12.436c0 5.479-2.178 10.736-6.057 14.611a20.69 20.69 0 0 1-14.626 6.052H1.047v-13.66c0-5.482 2.178-10.738 6.057-14.614s9.139-6.052 14.626-6.052h20.802v13.663z" class="B H"/><g clip-path="url(#x)"><path d="M42.532-1.227L-3.763 38.342h46.295V-1.227z" class="B C"/><path d="M-.581 30.615L40.882-3.249 44.16.765 2.697 34.628z" class="G"/><g class="B"><g class="F"><path d="M18.332 35.337h5.186v-8.715c0-1.43-1.162-2.591-2.593-2.591s-2.593 1.161-2.593 2.591v8.715zm10.372.383h5.186V18.523a2.59 2.59 0 0 0-2.59-2.588h-.005a2.59 2.59 0 0 0-2.59 2.588V35.72z"/></g><g class="C"><path d="M1.047 18.575v-4.907h7.916c.651 0 1.276.259 1.737.72a2.45 2.45 0 0 1 .718 1.733h0a2.46 2.46 0 0 1-.718 1.736c-.462.461-1.086.718-1.737.718H1.047zm0-10.087V3.306h15.56a2.59 2.59 0 0 1 2.59 2.588v.005a2.59 2.59 0 0 1-2.59 2.588H1.047z"/></g></g></g><path d="M42.532 12.436c0 5.479 2.178 10.736 6.057 14.611a20.69 20.69 0 0 0 14.626 6.052h20.802v-13.66c0-5.482-2.178-10.738-6.057-14.614s-9.14-6.052-14.626-6.052H42.532v13.663z" class="B H"/><g clip-path="url(#y)"><path d="M42.532-1.227l46.295 39.569H42.532V-1.227z" class="B C"/><path d="M40.894.781l3.275-4.016 41.486 33.834-3.275 4.016z" class="G"/><g class="B"><g class="F"><path d="M66.732 35.337h-5.186v-8.715c0-1.43 1.162-2.591 2.593-2.591s2.593 1.161 2.593 2.591v8.715zm-10.371.383h-5.186V18.526c0-.687.272-1.345.76-1.832a2.6 2.6 0 0 1 3.666 0 2.59 2.59 0 0 1 .76 1.832V35.72z"/></g><g class="C"><path d="M84.017 18.85v-5.181h-7.781c-.687 0-1.346.272-1.831.759a2.59 2.59 0 0 0-.76 1.829v.005c0 .687.272 1.345.76 1.832a2.59 2.59 0 0 0 1.831.756h7.781zm0-10.362V3.306H68.46a2.6 2.6 0 0 0-1.833.759 2.59 2.59 0 0 0-.76 1.832 2.58 2.58 0 0 0 .76 1.832c.485.487 1.146.759 1.833.759h15.557z"/></g></g></g><path d="M42.521 33.099l12.425-9.047c6.863-4.997 7.639-14.937 1.634-20.936l-4.346-4.343H32.809l-4.346 4.343c-6.005 6-5.229 15.939 1.634 20.936l12.425 9.047z" class="B G"/><g clip-path="url(#z)"><path d="M42.521 34.375H22.918V-2.8h19.603z" class="C"/><path d="M39.938-4.969h5.186v45.186h-5.186z" class="N"/><path d="M60.917 17.7c.844 0 1.675-.412 2.171-1.169.787-1.197.452-2.803-.746-3.587l-10.54-6.908a2.59 2.59 0 0 0-3.589.744c-.787 1.197-.452 2.803.746 3.587l10.54 6.908c.439.288.932.425 1.418.425z" class="C"/><path d="M24.148 17.7c.486 0 .979-.137 1.418-.425l10.537-6.908c1.199-.784 1.533-2.39.746-3.587a2.59 2.59 0 0 0-3.589-.744l-10.537 6.908c-1.199.784-1.533 2.39-.746 3.587.496.757 1.327 1.169 2.171 1.169z" class="F"/><path d="M60.917 29.513c.844 0 1.675-.412 2.171-1.169.787-1.197.452-2.803-.746-3.587l-10.54-6.908a2.59 2.59 0 0 0-3.589.744c-.787 1.197-.452 2.803.746 3.587l10.54 6.908c.439.288.932.425 1.418.425z" class="C"/><path d="M24.148 29.513c.486 0 .979-.137 1.418-.425l10.537-6.908c1.199-.784 1.533-2.39.746-3.587a2.59 2.59 0 0 0-3.589-.744l-10.537 6.908c-1.199.784-1.533 2.39-.746 3.587.496.757 1.327 1.169 2.171 1.169z" class="F"/></g><path d="M25.907 55.118h33.449" class="I J K L O W"/><g class="X"><path d="M932.029 90.48c0-11.819-4.695-23.153-13.052-31.511h0a44.34 44.34 0 0 0-24.266-12.45c-13.681-2.243-28.205 1.899-38.755 12.45l-8.189 8.188c-8.357 8.357-19.692 13.052-31.51 13.052h-45.114a44.56 44.56 0 0 0-31.51 13.052l-5.706 5.706c-17.248 17.249-17.424 45.16-.393 62.624l43.209 44.308c8.387 8.6 19.891 13.45 31.903 13.45h35.027a44.54 44.54 0 0 0 16.694-3.253c5.493-2.22 10.545-5.528 14.816-9.798l43.792-43.792c8.357-8.357 13.052-19.692 13.052-31.511V90.482zM629.223 210.7c6.461 0 12.658-2.567 17.227-7.135h0a24.24 24.24 0 0 0 6.806-13.266c1.226-7.479-1.038-15.419-6.806-21.187l-4.477-4.477a24.36 24.36 0 0 1-7.136-17.227v-24.663c0-6.461-2.567-12.658-7.135-17.227l-3.119-3.119c-9.43-9.43-24.688-9.525-34.236-.215l-24.223 23.622a24.36 24.36 0 0 0-7.353 17.441v19.149a24.34 24.34 0 0 0 1.779 9.127 24.36 24.36 0 0 0 5.357 8.1l23.941 23.941a24.36 24.36 0 0 0 17.227 7.135h22.148z"/></g><g clip-path="url(#AA)"><use href="#BB" fill="#c8c8c8" class="B"/><g clip-path="url(#AB)"><path d="M440.099 191.503L567.164 42.34s1.853 1.69 0 0c-2.419-2.206-21.92-6.424-25.192-6.559-2.744-.113-1.714-.161-2.744-.113-26.101 1.225-49.762 16.284-62.17 39.279-23.493 43.537-36.958 116.556-36.958 116.556z" fill="#e2e2e2" class="B"/><g stroke="#9a9abf" stroke-width="1.045" class="D a"><path d="M570.063 41.194c-79.627-15.084-95.412 37.183-129.087 148.38M570.764 44c-82.433-.351-100.674 79.276-132.244 152.238" opacity=".3"/></g></g><g class="B"><use href="#BC" fill="#eee"/><use href="#BD" class="T"/></g><use href="#BE" fill="#230327"/><g opacity=".9"><g fill="#b1f4f3"><path d="M448.479 131.325h0c1.355 1.695 1.458 4.071.255 5.876h0 1.723 66.942 0l-.155-.431c-1.061-3.195-.128-6.719 2.233-9.12l5.775-5.873c.842-.856.086-2.288-1.096-2.076l-3.466.622h0c-3.77 1.661-4.639-4.383-2.579-7.95h0c.452-.783-.451-1.645-1.212-1.158l-7.844 5.016c-2.836 1.814-6.557-.223-6.557-3.59v-8.111c0-1.117-1.508-1.469-2.002-.468h0c-1.889 3.823-7.6 2.809-8.057-1.431l-.075-.698c-.14-1.302-1.946-1.514-2.385-.281l-1.507 4.236c-1.36 3.823-6.788 3.761-8.061-.092l-.992-3.005c-.38-1.149-2.015-1.119-2.353.043l-1.812 6.245c-.958 3.3-5.228 4.168-7.397 1.502l-7.437-9.137c-.771-.948-2.303-.315-2.181.901l.767 7.647c.382 3.804-4.053 6.147-6.981 3.688l-2.395-2.012c-1.032-.867-2.507.315-1.885 1.511l.786 1.512c1.706 3.285-1.299 7.033-4.876 6.082l-2.392-.636c-1.204-.32-2.068 1.145-1.205 2.044l4.697 4.893 3.724 4.247z" class="B"/><circle cx="435.75" cy="118.178" r=".84"/><circle cx="434.065" cy="123.869" r="1.684"/><circle cx="442.653" cy="110.965" r="1.001"/><circle cx="447.658" cy="105.434" r="1.58"/><circle cx="451.45" cy="109.648" r=".527"/><circle cx="519.088" cy="106.908" r="1.37"/><circle cx="523.829" cy="113.282" r="2.318"/><circle cx="526.64" cy="106.568" r="1.029"/><circle cx="502.863" cy="99.323" r="2.002"/><circle cx="507.71" cy="109.226" r=".948"/><circle cx="509.764" cy="103.695" r="1.106"/><circle cx="474.944" cy="97.532" r="2.318"/><circle cx="481.955" cy="100.028" r=".705"/><circle cx="460.616" cy="98.375" r="1.054"/><circle cx="456.262" cy="100.342" r=".493"/><circle cx="469.716" cy="106.066" r="2.212"/><circle cx="530.519" cy="125.081" r="1.212"/><circle cx="524.72" cy="129.819" r=".891"/><circle cx="439.206" cy="131.213" r=".503"/></g><path d="M454.782 133.878h0c1.102 1.379 1.186 3.311.207 4.779h0 1.402 54.446 0l-.126-.351c-.863-2.599-.104-5.465 1.816-7.417l4.697-4.777c.685-.696.07-1.861-.891-1.689l-2.819.506h0c-3.066 1.351-3.773-3.565-2.097-6.466h0c.368-.636-.367-1.338-.986-.942l-6.38 4.08a3.47 3.47 0 0 1-5.333-2.92v-6.597c0-.908-1.226-1.195-1.629-.38h0c-1.536 3.109-6.181 2.284-6.553-1.164l-.061-.568c-.114-1.059-1.583-1.232-1.94-.228l-1.226 3.445c-1.106 3.109-5.521 3.059-6.556-.075l-.807-2.444c-.309-.935-1.639-.91-1.913.035l-1.474 5.079a3.47 3.47 0 0 1-6.016 1.222l-6.049-7.431c-.627-.771-1.873-.256-1.774.732l.624 6.22c.31 3.094-3.296 5-5.678 3l-1.948-1.636c-.839-.705-2.039.256-1.533 1.229l.639 1.23c1.388 2.672-1.056 5.721-3.966 4.947l-1.946-.517c-.979-.26-1.682.931-.98 1.662l3.82 3.979 3.029 3.455z" fill="#62d5d9" class="B R"/></g><path d="M442.851 138.637h0c3.664-1.975 7.608-4.786 8.497-8.853l.835-3.82 2.575 2.204c3.411 2.919 7.214 1.869 10.151-1.526l3.059-3.537h0c3.436 4.225 9.967 3.962 13.052-.525l.533-.775.394.65c2.839 4.684 9.395 5.296 13.051 1.218l.581-.647 2.287 3.254a8.16 8.16 0 0 0 11.044 2.199l2.829-1.794.286.859c1.778 5.333 5.481 9.81 10.385 12.557h0l-79.558-1.462z" fill="#5fcfd4" class="B"/><g clip-path="url(#AC)" class="T"><g opacity=".05"><g class="B"><path d="M511.589 89.025l-25.548 4.126-26.927-31.537c-.491-.575-.616-1.386-.321-2.085s.958-1.165 1.706-1.198l14.283-.632c1.89-.084 3.736.599 5.133 1.897l31.673 29.428z"/><use href="#BF"/></g><g clip-path="url(#AD)" class="B"><use href="#BF"/><path d="M572.046 41.226c-79.627-15.084-95.412 37.183-129.087 148.38M572.747 44.033c-82.433-.351-100.674 79.276-132.244 152.238" opacity=".3"/></g><g class="B"><path d="M510.224 100.946l-14.738-16.882-41.435 6.716c-.756.123-1.375.667-1.593 1.401s.002 1.529.568 2.045l10.806 9.855c1.43 1.304 3.318 1.987 5.251 1.9 10.355-.467 41.143-5.035 41.143-5.035z"/><path d="M567.981 41.538c-11.521 12.633-48.905 33.236-67.432 55.856-33.033 40.331-59.632 93.307-59.632 93.307l6.731 6.025s55.423-68.508 66.716-79.794c1.103-1.102 2.175-2.231 3.226-3.383 8.236-9.029 41.168-38.656 58.921-57.966a7.26 7.26 0 0 0 1.087-1.549h0c3.437-6.562-2.393-14.138-9.616-12.496h0z"/></g><path d="M551.174 70.166l-4.6 3.552c-.652.504-1.591.383-2.094-.269l-1.327-1.718 4.6-3.552c.652-.504 1.591-.383 2.094.269l1.327 1.718h0z"/></g></g><path d="M447.229 141.214h0c3.003-1.619 6.236-3.923 6.964-7.256l.684-3.131 2.11 1.806c2.795 2.393 5.913 1.532 8.319-1.251l2.507-2.899h0a6.69 6.69 0 0 0 10.697-.431l.437-.635.323.532a6.69 6.69 0 0 0 10.697.998l.476-.531 1.874 2.667c2.052 2.921 6.037 3.714 9.051 1.802l2.319-1.47.235.704a18.5 18.5 0 0 0 8.512 10.291h0l-65.205-1.198z" class="B X"/></g></g></svg>