<svg xmlns="http://www.w3.org/2000/svg" width="1500" height="145" xmlns:v="https://vecta.io/nano"><style><![CDATA[.B{fill-rule:evenodd}.C{fill:none}.D{fill:#8fc300}.E{fill:#a2d500}.F{clip-rule:evenodd}.G{fill:#c2ed00}.H{fill:#fff}.I{fill:#5aaa00}.J{fill:#2f4591}.K{fill:#f2da4b}.L{fill:#00b365}.M{fill:#dc5b8b}.N{fill:#0e1b1b}.O{stroke-linecap:round}.P{stroke-miterlimit:10}.Q{stroke-linejoin:round}.R{fill:#374315}.S{fill:#a6d320}.T{stroke:#dbca7b}.U{fill:#e9bb45}.V{fill:#8ca5d2}.W{stroke-width:10}.X{stroke-width:2}.Y{stroke-width:1.672}.Z{fill:#aabcde}.a{fill:#e8b945}.b{stroke-dasharray:0 10}]]></style><defs><clipPath id="A"><path d="M0 0h1500v145H0z" class="C"/></clipPath><clipPath id="B"><path d="M792.342 48.136c-1.418-2.237-3.879-3.592-6.523-3.592s-5.105 1.355-6.523 3.592l-19.562 30.851c0 10.596 11.688 19.199 26.085 19.199s26.085-8.603 26.085-19.199l-19.562-30.851z" class="C F"/></clipPath><clipPath id="C"><path d="M791.733 39.843c-1.424-2.21-3.869-3.544-6.493-3.544s-5.069 1.335-6.493 3.544L763.331 63.77c0 8.758 9.817 15.869 21.91 15.869s21.909-7.111 21.909-15.869l-15.416-23.927z" class="C F"/></clipPath><clipPath id="D"><path d="M789.391 26.995a4.29 4.29 0 0 0-7.144 0l-13.261 19.958c0 3.804 2.564 7.191 6.543 9.354 2.846 1.547 6.416 2.468 10.29 2.468 9.29 0 16.833-5.297 16.833-11.822l-13.261-19.958z" class="C F"/></clipPath><clipPath id="E"><path d="M738.234 48.136c-1.418-2.237-3.879-3.592-6.523-3.592s-5.105 1.355-6.523 3.592l-19.562 30.851c0 10.596 11.688 19.199 26.085 19.199s26.085-8.603 26.085-19.199l-19.562-30.851z" class="C F"/></clipPath><clipPath id="F"><path d="M737.624 39.843c-1.424-2.21-3.869-3.544-6.493-3.544s-5.069 1.335-6.493 3.544L709.222 63.77c0 8.758 9.817 15.869 21.91 15.869s21.909-7.111 21.909-15.869l-15.416-23.927z" class="C F"/></clipPath><clipPath id="G"><path d="M735.282 26.995a4.29 4.29 0 0 0-7.144 0l-13.261 19.958c0 3.804 2.564 7.191 6.543 9.354 2.846 1.547 6.416 2.468 10.29 2.468 9.29 0 16.833-5.297 16.833-11.822l-13.261-19.958z" class="C F"/></clipPath><clipPath id="H"><path d="M765.767 45.846a8.72 8.72 0 0 0-14.724 0l-22.076 34.817c0 11.958 13.191 21.666 29.438 21.666s29.438-9.708 29.438-21.666l-22.076-34.817z" class="C F"/></clipPath><clipPath id="I"><path d="M765.079 36.487c-1.607-2.494-4.366-4-7.327-4a8.72 8.72 0 0 0-7.328 4L733.026 63.49c0 9.884 11.079 17.909 24.726 17.909s24.725-8.025 24.725-17.909l-17.398-27.003z" class="C F"/></clipPath><clipPath id="J"><path d="M762.437 21.988a4.84 4.84 0 0 0-8.062 0l-14.966 22.523c0 4.293 2.893 8.115 7.384 10.556 3.212 1.746 7.241 2.785 11.613 2.785 10.484 0 18.997-5.978 18.997-13.342l-14.966-22.523z" class="C F"/></clipPath><clipPath id="K"><rect x="1316.484" y="-47.052" width="65.618" height="98.426" rx="5.525" transform="matrix(.168317 -.985733 .985733 .168317 1120.052 1331.839)" class="C"/></clipPath><clipPath id="L"><path d="M1416.476-25.811a6.23 6.23 0 0 0-5.094-7.192l-108.994-18.611a6.23 6.23 0 0 0-4.65 1.058c-1.349.955-2.262 2.407-2.54 4.036L1282.8 26.09c-.278 1.629.101 3.302 1.057 4.65a6.23 6.23 0 0 0 4.036 2.54l108.994 18.611a6.23 6.23 0 0 0 7.192-5.093l12.398-72.61z" class="C F"/></clipPath><clipPath id="M"><path d="M1321.391 26.248c-1.388-2.189-3.795-3.514-6.383-3.514a7.56 7.56 0 0 0-6.383 3.514l-19.141 30.187c0 10.368 11.437 18.785 25.524 18.785s25.524-8.417 25.524-18.785l-19.141-30.187z" class="C F"/></clipPath><clipPath id="N"><path d="M1320.795 18.133a7.56 7.56 0 0 0-12.706 0l-15.085 23.412c0 8.57 9.606 15.528 21.438 15.528s21.438-6.958 21.438-15.528l-15.085-23.412z" class="C F"/></clipPath><clipPath id="O"><path d="M1318.503 5.562c-.779-1.172-2.09-1.876-3.495-1.876s-2.716.704-3.495 1.876l-12.976 19.528c0 3.722 2.509 7.036 6.402 9.153 2.785 1.514 6.278 2.415 10.069 2.415 9.09 0 16.471-5.183 16.471-11.568l-12.976-19.528z" class="C F"/></clipPath><clipPath id="P"><path d="M485.468 138.595V1.982h64.631l82.794 136.613H485.468z" class="C"/></clipPath><clipPath id="Q"><path d="M467.204 125.399l3.081.066.848 9.998h-3.075l-.854-10.064z" class="C F"/></clipPath><clipPath id="R"><path d="M463.495 112.77l-1.274.004c-.684.002-1.278.476-1.438 1.147l-.909 3.81 3.621.572v-5.533z" class="C F"/></clipPath><clipPath id="S"><path d="M467.927 112.77l1.273.004c.684.002 1.278.476 1.438 1.147l.909 3.81-3.62.572v-5.533z" class="C F"/></clipPath><clipPath id="T"><path d="M464.656 125.399l-3.08.066-.848 9.998h3.075l.853-10.064z" class="C F"/></clipPath><clipPath id="U"><path d="M469.437 112.77h-7.013l-1.692 13.523h4.814l.192-2.62h.384l.193 2.62h4.814l-1.692-13.523z" class="C F"/></clipPath><path id="V" d="M1206.785 55.492c1.232 0 2.231-1 2.231-2.236v-7.001c0-1.236-.999-2.236-2.231-2.236s-2.231 1-2.231 2.236v7.001c0 1.236.999 2.236 2.231 2.236z"/><path id="W" d="M1163.706 35.265c1.232 0 2.231-1 2.231-2.236V28.36c0-1.236-.999-2.236-2.231-2.236s-2.231 1-2.231 2.236v4.669c0 1.236.999 2.236 2.231 2.236z"/><path id="X" d="M791.087 76.692h-9.252v25.505c0 2.558 2.069 4.632 4.622 4.632h.009a4.63 4.63 0 0 0 4.622-4.632V76.692z"/><path id="Y" d="M809.547 75.274a2.31 2.31 0 0 0-3.194-.701c-1.075.691-1.388 2.127-.7 3.204l4.95 7.754a2.31 2.31 0 0 0 3.194.701c1.075-.691 1.388-2.127.7-3.205l-4.95-7.753z"/><path id="Z" d="M792.342 48.136c-1.418-2.237-3.879-3.592-6.523-3.592s-5.105 1.355-6.523 3.592l-19.562 30.851c0 10.596 11.688 19.199 26.085 19.199s26.085-8.603 26.085-19.199l-19.562-30.851z"/><path id="a" d="M791.189 30.873a7.72 7.72 0 0 0-5.95-2.804c-2.301 0-4.482 1.027-5.951 2.802-7.697 9.317-20.133 25.685-20.133 34.207 0 10.596 11.688 19.199 26.085 19.199s26.085-8.603 26.085-19.199c0-8.522-12.437-24.89-20.135-34.205z"/><path id="b" d="M776.881 93.763c.137-1.272 1.278-2.194 2.547-2.057a2.32 2.32 0 0 1 2.052 2.553l-.425 3.958c-.137 1.272-1.278 2.194-2.547 2.057a2.32 2.32 0 0 1-2.052-2.553l.425-3.958z"/><path id="c" d="M761.188 76.701a2.31 2.31 0 0 1 3.196-.7c1.075.691 1.387 2.126.698 3.203l-4.132 6.455a2.31 2.31 0 0 1-3.196.699c-1.075-.691-1.387-2.126-.698-3.203l4.131-6.455z"/><path id="d" d="M787.553,84.277c0-1.28-1.037-2.318-2.313-2.318s-2.313,1.039-2.313,2.318v2.318c0,1.28,1.037,2.318,2.313,2.318s2.313-1.039,2.313-2.318v-2.318Z"/><path id="e" d="M795.553 88.637c-.157-1.27-1.313-2.173-2.58-2.015a2.32 2.32 0 0 0-2.011 2.586l.285 2.301c.157 1.27 1.313 2.173 2.58 2.015a2.32 2.32 0 0 0 2.011-2.586l-.285-2.301z"/><path id="f" d="M775.089 88.637c.157-1.27 1.313-2.173 2.58-2.015a2.32 2.32 0 0 1 2.011 2.586l-.285 2.301c-.157 1.27-1.313 2.173-2.58 2.015a2.32 2.32 0 0 1-2.011-2.586l.284-2.301z"/><path id="g" d="M801.605 79.43c-.384-1.22-1.684-1.899-2.901-1.514a2.32 2.32 0 0 0-1.511 2.908l.974 3.098c.384 1.22 1.684 1.899 2.901 1.514a2.32 2.32 0 0 0 1.511-2.908l-.974-3.098z"/><path id="h" d="M770.376 80.482c.384-1.22 1.684-1.899 2.901-1.514a2.32 2.32 0 0 1 1.511 2.908l-.974 3.098c-.384 1.22-1.684 1.899-2.901 1.514a2.32 2.32 0 0 1-1.511-2.908l.974-3.098z"/><path id="i" d="M807.316 75.065a2.31 2.31 0 0 0-3.16-.848c-1.106.64-1.485 2.059-.847 3.167l2.092 3.633c.638 1.108 2.054 1.488 3.16.849s1.485-2.059.847-3.167l-2.093-3.633z"/><path id="j" d="M764.686 74.94a2.31 2.31 0 0 1 3.16-.848c1.106.64 1.485 2.059.847 3.167l-2.093 3.633c-.638 1.108-2.054 1.488-3.16.849s-1.485-2.059-.847-3.167l2.093-3.633z"/><path id="k" d="M791.184,20.405c-1.469-1.771-3.647-2.795-5.944-2.795s-4.476,1.024-5.944,2.795c-6.488,7.835-15.965,20.429-15.965,27.138,0,8.758,9.817,15.869,21.91,15.869s21.909-7.111,21.909-15.869c0-6.71-9.477-19.303-15.965-27.138Z"/><path id="l" d="M773.429 61.56c.638-1.108.259-2.527-.847-3.167s-2.521-.259-3.16.849l-2.313 4.015c-.638 1.108-.259 2.527.847 3.167s2.521.259 3.16-.849l2.313-4.015z"/><path id="m" d="M778.916 70.03a2.32 2.32 0 0 0-1.429-2.949c-1.206-.418-2.525.223-2.942 1.432l-.757 2.191a2.32 2.32 0 0 0 1.429 2.949c1.206.418 2.525-.223 2.942-1.432l.757-2.191z"/><path id="n" d="M788.774,68.049c0-1.28-1.037-2.318-2.313-2.318s-2.313,1.039-2.313,2.318v2.318c0,1.28,1.036,2.318,2.313,2.318s2.313-1.039,2.313-2.318v-2.318Z"/><path id="o" d="M797.869 68.432c-.462-1.193-1.804-1.784-2.994-1.321s-1.78 1.808-1.318 3.001l.838 2.161c.462 1.192 1.804 1.784 2.994 1.321s1.78-1.808 1.318-3.001l-.838-2.161z"/><path id="p" d="M801.495 58.465a2.31 2.31 0 0 0-3.16-.848c-1.105.64-1.485 2.059-.847 3.167l2.003 3.477a2.31 2.31 0 0 0 3.16.848c1.106-.64 1.485-2.059.847-3.167l-2.003-3.477z"/><path id="q" d="M789.391 26.995a4.29 4.29 0 0 0-7.144 0l-13.261 19.958c0 3.804 2.564 7.191 6.543 9.354 2.846 1.547 6.416 2.468 10.29 2.468 9.29 0 16.833-5.297 16.833-11.822l-13.261-19.958z"/><path id="r" d="M800.339,36.291c0-8.063-6.531-14.609-14.576-14.609h-.336c-8.045,0-14.576,6.546-14.576,14.609v.618c0,8.063,6.531,14.609,14.576,14.609h.336c8.044,0,14.576-6.546,14.576-14.609v-.618Z"/><path id="s" d="M786.562 36.217a2.32 2.32 0 0 0-1.605-2.857c-1.229-.344-2.507.377-2.85 1.609l-.186.667a2.32 2.32 0 0 0 1.605 2.857c1.23.344 2.507-.377 2.85-1.609l.186-.667z"/><path id="t" d="M779.794 41.334a2.32 2.32 0 0 0-1.099-3.088 2.31 2.31 0 0 0-3.081 1.101l-.991 2.095a2.32 2.32 0 0 0 1.099 3.088 2.31 2.31 0 0 0 3.081-1.101l.991-2.095z"/><path id="u" d="M788.774,44.866c0-1.28-1.037-2.319-2.313-2.319s-2.313,1.039-2.313,2.319v2.318c0,1.279,1.036,2.318,2.313,2.318s2.313-1.039,2.313-2.318v-2.318Z"/><path id="v" d="M794.818 37.06a2.31 2.31 0 0 0-3.162-.839c-1.104.643-1.478 2.063-.837 3.169l1.163 2.004a2.31 2.31 0 0 0 3.162.839c1.104-.643 1.478-2.063.837-3.17l-1.163-2.004z"/><path id="w" d="M782.926,58.592c0-1.28,1.037-2.318,2.313-2.318s2.313,1.039,2.313,2.318v.183c0,1.28-1.037,2.318-2.313,2.318s-2.313-1.039-2.313-2.318v-.183Z"/><path id="x" d="M770.639 52.945c.48-1.186 1.83-1.757 3.013-1.276a2.32 2.32 0 0 1 1.273 3.02l-.069.17c-.48 1.186-1.83 1.757-3.013 1.276a2.32 2.32 0 0 1-1.273-3.02l.069-.17z"/><path id="y" d="M800.595 52.922c-.48-1.186-1.83-1.757-3.013-1.276a2.32 2.32 0 0 0-1.273 3.02l.069.17c.48 1.186 1.83 1.757 3.013 1.276a2.32 2.32 0 0 0 1.273-3.02l-.069-.17z"/><path id="z" d="M767.214 47.243a2.31 2.31 0 0 1 3.196-.699c1.075.691 1.387 2.126.698 3.203l-.099.154a2.31 2.31 0 0 1-3.196.699c-1.075-.691-1.387-2.126-.698-3.203l.099-.154z"/><path id="AA" d="M761.482 64.324a2.31 2.31 0 0 1 3.196-.699c1.075.691 1.387 2.126.698 3.203l-.099.154a2.31 2.31 0 0 1-3.196.7c-1.075-.691-1.387-2.126-.698-3.203l.099-.154z"/><path id="AB" d="M809.454 64.324a2.31 2.31 0 0 0-3.196-.699c-1.075.691-1.387 2.126-.698 3.203l.099.154a2.31 2.31 0 0 0 3.196.7c1.075-.691 1.387-2.126.698-3.203l-.099-.154z"/><path id="AC" d="M769.015 74.5a2.31 2.31 0 0 1 3.196-.7c1.075.691 1.387 2.126.698 3.203l-.099.154a2.31 2.31 0 0 1-3.196.699c-1.075-.691-1.387-2.126-.698-3.203l.099-.154z"/><path id="AD" d="M801.921 74.5a2.31 2.31 0 0 0-3.196-.7c-1.075.691-1.387 2.126-.698 3.203l.099.154a2.31 2.31 0 0 0 3.196.699c1.075-.691 1.387-2.126.698-3.203l-.099-.154z"/><path id="AE" d="M807.79 86.181a2.31 2.31 0 0 0-3.215-.607c-1.054.721-1.326 2.165-.606 3.222l1.823 2.676a2.31 2.31 0 0 0 3.214.607c1.054-.721 1.326-2.165.606-3.222l-1.822-2.676z"/><path id="AF" d="M796.773 77.586c-.376-1.223-1.672-1.909-2.892-1.532a2.32 2.32 0 0 0-1.528 2.899l.054.175c.376 1.222 1.672 1.909 2.892 1.532a2.32 2.32 0 0 0 1.528-2.899l-.054-.175z"/><path id="AG" d="M769.381 91.76c.376-1.223 1.672-1.909 2.892-1.532a2.32 2.32 0 0 1 1.528 2.899l-.92 2.99c-.376 1.223-1.672 1.909-2.892 1.532a2.32 2.32 0 0 1-1.529-2.899l.92-2.99z"/><path id="AH" d="M780.19 79.809c.137-1.272 1.278-2.194 2.547-2.057a2.32 2.32 0 0 1 2.052 2.553l-.02.182c-.137 1.272-1.278 2.194-2.547 2.057a2.32 2.32 0 0 1-2.052-2.553l.02-.182z"/><path id="AI" d="M790.746 79.809c-.137-1.272-1.278-2.194-2.547-2.057a2.32 2.32 0 0 0-2.052 2.553l.02.182c.137 1.272 1.278 2.194 2.547 2.057a2.32 2.32 0 0 0 2.052-2.553l-.02-.182z"/><path id="AJ" d="M764.258 70.214a2.31 2.31 0 0 1 3.196-.7c1.075.691 1.387 2.126.698 3.203l-.099.154a2.31 2.31 0 0 1-3.196.7c-1.074-.691-1.387-2.126-.698-3.203l.099-.154z"/><path id="AK" d="M806.677 70.214a2.31 2.31 0 0 0-3.196-.7c-1.075.691-1.387 2.126-.698 3.203l.099.154a2.31 2.31 0 0 0 3.196.7c1.075-.691 1.387-2.126.698-3.203l-.099-.154z"/><path id="AL" d="M764.586 86.141a2.31 2.31 0 0 1 3.196-.699c1.075.691 1.387 2.126.698 3.203l-2.758 4.308a2.31 2.31 0 0 1-3.196.699c-1.075-.691-1.387-2.126-.698-3.203l2.758-4.309z"/><path id="AM" d="M775.778 56.87c.209-1.262 1.401-2.117 2.66-1.908a2.32 2.32 0 0 1 1.904 2.666l-.03.181c-.209 1.262-1.401 2.117-2.66 1.908a2.32 2.32 0 0 1-1.904-2.666l.03-.181z"/><path id="AN" d="M795.456 56.847c-.209-1.262-1.401-2.117-2.66-1.908a2.32 2.32 0 0 0-1.904 2.666l.03.181c.209 1.262 1.401 2.117 2.66 1.908a2.32 2.32 0 0 0 1.904-2.666l-.03-.181z"/><path id="AO" d="M770.768 79.081a2.61 2.61 0 0 0-3.264-1.729 2.62 2.62 0 0 0-1.725 3.271l.061.198a2.61 2.61 0 0 0 3.264 1.729 2.62 2.62 0 0 0 1.725-3.271l-.061-.198z"/><path id="AP" d="M763.966 81.59c-.154-1.436-1.442-2.476-2.875-2.321s-2.47 1.445-2.316 2.881l.022.206c.154 1.436 1.442 2.476 2.875 2.321s2.47-1.445 2.316-2.881l-.022-.206z"/><path id="AQ" d="M1325.727 55.064c-.368-1.196-1.636-1.868-2.83-1.499a2.27 2.27 0 0 0-1.495 2.836l.053.172c.368 1.196 1.636 1.868 2.83 1.499a2.27 2.27 0 0 0 1.495-2.836l-.053-.171z"/><path id="AR" d="M1319.829 57.238c-.134-1.245-1.25-2.147-2.492-2.013a2.27 2.27 0 0 0-2.008 2.498l.019.178c.134 1.245 1.25 2.146 2.492 2.013a2.27 2.27 0 0 0 2.008-2.498l-.019-.178z"/><path id="AS" d="M1335.418 47.85a2.26 2.26 0 0 0-3.127-.685c-1.051.676-1.357 2.08-.683 3.134l.097.151a2.26 2.26 0 0 0 3.127.685c1.051-.676 1.357-2.08.683-3.134l-.097-.151z"/><path id="AT" d="M1376.655 25.557c2.73.01 4.908 10.471 4.898 13.203s-2.231 4.937-4.962 4.927-4.937-2.231-4.927-4.962 2.26-13.177 4.99-13.167h0z"/><path id="AU" d="M1376.646 29.678c2.11.007 3.792 8.092 3.785 10.202a3.82 3.82 0 1 1-7.641-.027c.007-2.11 1.746-10.183 3.856-10.175h0z"/><path id="AV" d="M1376.632 35.033c1.304.004 2.343 4.997 2.339 6.301a2.36 2.36 0 0 1-2.367 2.351 2.36 2.36 0 0 1-2.351-2.367c.004-1.304 1.079-6.289 2.381-6.285h-.001z"/><path id="AW" d="M61.344 75.444h9.135V84.6h-9.135z"/><path id="AX" d="M82.659 81.548h9.135v9.156h-9.135z"/><path id="AY" d="M600.327 48.579h-93.729V20.338h93.729z"/><path id="AZ" d="M471.192 130.446h-4.318l.021-1.037h4.318l-.021 1.037z"/><path id="Aa" d="M470.891 110.883l2.307-.907v2.795h-.462c-.494 0-.966-.2-1.313-.555a1.88 1.88 0 0 1-.532-1.333h0z"/><path id="Ab" d="M458.199 110.883l-2.306-.907v2.795h.462c.494 0 .966-.2 1.313-.555s.538-.835.531-1.333h0z"/><path id="Ac" d="M460.668 130.446h4.319l-.021-1.037h-4.318l.02 1.037z"/><path id="Ad" d="M462.859,104.654c0-.646-.519-1.17-1.159-1.17h-2.276c-.64,0-1.159.524-1.159,1.17v3.851c0,.646.519,1.17,1.159,1.17h2.276c.64,0,1.159-.524,1.159-1.17v-3.851Z"/><path id="Ae" d="M461.911 105.08a.58.58 0 0 0-.575-.58h-1.548a.58.58 0 0 0-.575.58v2.999a.58.58 0 0 0 .575.58h1.548a.58.58 0 0 0 .575-.58v-2.999z"/></defs><g clip-path="url(#A)"><path d="M-20.02-3514.135h1540.04V1760.02H-20.02z" class="L"/><path d="M1281.853 507.5c-30.509 0-55.242-24.733-55.242-55.242h0c0-30.509-24.733-55.242-55.242-55.242H870.748c-30.509 0-55.242-24.733-55.242-55.242h0c0-78.024-63.251-141.275-141.275-141.275H503.047c-79.431 0-143.822-64.391-143.822-143.822v-91.838c0-79.431-64.391-143.822-143.822-143.822H-20.02v1499.856h558.114a472.11 472.11 0 0 0 331.059-135.529h0a472.11 472.11 0 0 1 331.059-135.529h319.809V507.5h-238.167z" fill="#77d629"/><path d="M1510.014 507.5h-228.161c-30.509 0-55.242-24.733-55.242-55.242h0c0-30.509-24.733-55.242-55.242-55.242H870.748c-30.509 0-55.242-24.733-55.242-55.242 0-78.024-63.251-141.275-141.275-141.275H503.047c-79.431 0-143.822-64.391-143.822-143.822v-91.838c0-79.431-64.391-143.822-143.822-143.822h-230.42" stroke="#77d629" stroke-dasharray="0 10.006" class="C O Q W"/><g opacity=".331" fill="#00703a"><use href="#V"/><path d="M1197.471 55.492c1.232 0 2.231-1 2.231-2.236v-4.667c0-1.236-.999-2.236-2.231-2.236s-2.231 1-2.231 2.236v4.667c0 1.236.999 2.236 2.231 2.236zm17.852 0c1.232 0 2.231-1 2.231-2.236v-4.667c0-1.236-.999-2.236-2.231-2.236s-2.231 1-2.231 2.236v4.667c0 1.236.999 2.236 2.231 2.236zm-33.669 18.479c1.232 0 2.231-1 2.231-2.236v-7.001c0-1.236-.999-2.236-2.231-2.236s-2.231 1-2.231 2.236v7.001c0 1.236.999 2.236 2.231 2.236zm-9.314 0c1.232 0 2.231-1 2.231-2.236v-4.669c0-1.236-.999-2.236-2.231-2.236s-2.231 1-2.231 2.236v4.669c0 1.236.999 2.236 2.231 2.236zm17.851 0c1.232 0 2.231-1 2.231-2.236v-4.669c0-1.236-.999-2.236-2.231-2.236s-2.231 1-2.231 2.236v4.669c0 1.236.999 2.236 2.231 2.236zm-17.17-38.706c1.232 0 2.231-1 2.231-2.236v-7.001c0-1.236-.999-2.236-2.231-2.236s-2.231 1-2.231 2.236v7.001c0 1.236.999 2.236 2.231 2.236z"/><use href="#W"/><path d="M1181.558 35.265c1.232 0 2.231-1 2.231-2.236V28.36c0-1.236-.999-2.236-2.231-2.236s-2.231 1-2.231 2.236v4.669c0 1.236.999 2.236 2.231 2.236z"/></g><rect x="716.703" y="103.179" width="84.853" height="13.464" rx="6.732" opacity=".106"/><g class="B"><use href="#X" class="R"/><g class="D"><use href="#Y"/><use href="#Z"/></g></g><g clip-path="url(#B)" class="B I"><use href="#a"/></g><g class="B"><g class="D"><use href="#b"/><use href="#c"/></g><g class="I"><use href="#d"/><use href="#e"/><use href="#f"/><use href="#g"/><use href="#h"/><use href="#i"/><use href="#j"/></g><path d="M791.733 39.843c-1.424-2.21-3.869-3.544-6.493-3.544s-5.069 1.335-6.493 3.544L763.331 63.77c0 8.758 9.817 15.869 21.91 15.869s21.909-7.111 21.909-15.869l-15.416-23.927z" class="E"/></g><g clip-path="url(#C)" class="B D"><use href="#k"/><use href="#l"/><use href="#m"/><use href="#n"/><use href="#o"/><use href="#p"/></g><use href="#q" class="B E"/><g clip-path="url(#D)" class="B"><use href="#r" class="G"/><g class="E"><use href="#s"/><use href="#t"/><use href="#u"/><use href="#v"/></g></g><g class="B"><g class="G"><use href="#w"/><use href="#x"/><use href="#y"/><use href="#z"/></g><use href="#AA" class="S"/><g class="E"><use href="#AB"/><use href="#AC"/><use href="#AD"/></g><use href="#AE" class="D"/><g class="E"><path d="M774.163 77.586c.376-1.223 1.672-1.909 2.892-1.532a2.32 2.32 0 0 1 1.528 2.899l-.054.175c-.377 1.222-1.672 1.909-2.892 1.532a2.32 2.32 0 0 1-1.528-2.899l.054-.175z"/><use href="#AF"/></g><g class="D"><path d="M801.399 93.968c-.376-1.223-1.672-1.909-2.892-1.532a2.32 2.32 0 0 0-1.528 2.899l.054.175c.376 1.222 1.672 1.909 2.892 1.532a2.32 2.32 0 0 0 1.528-2.899l-.054-.175z"/><use href="#AG"/></g><g class="E"><use href="#AH"/><use href="#AI"/></g><path d="M795.372 96.191c-.137-1.272-1.278-2.194-2.547-2.057a2.32 2.32 0 0 0-2.052 2.553l.02.182c.137 1.272 1.278 2.194 2.547 2.057a2.32 2.32 0 0 0 2.052-2.553l-.02-.182z" class="D"/><g class="E"><use href="#AJ"/><use href="#AK"/></g><use href="#AL" class="D"/><g class="G"><path d="M804.019 47.22a2.31 2.31 0 0 0-3.196-.7c-1.075.691-1.387 2.126-.698 3.203l.099.154a2.31 2.31 0 0 0 3.196.7c1.075-.691 1.387-2.126.698-3.203l-.099-.154z"/><use href="#AM"/><use href="#AN"/></g><path d="M814.498 83.027l-4.684-7.337-2.708-4.271c-.031-.363-.119-.723-.328-1.05l-.099-.154c-.206-.322-.49-.551-.799-.73l-.121-.192c.266-.517.494-1.046.685-1.587.728.428 1.655.465 2.413-.023 1.074-.691 1.387-2.126.698-3.203l-.099-.154c-.561-.876-1.607-1.213-2.559-.948l-6.068-9.418c0-.289-.048-.582-.163-.866l-.069-.17c-.027-.067-.083-.111-.115-.175a10.5 10.5 0 0 0 1.195-1.858c.58.128 1.207.035 1.746-.312 1.074-.691 1.387-2.126.698-3.203l-.099-.154c-.425-.665-1.136-.996-1.869-1.022l-12.76-19.203a4.29 4.29 0 0 0-7.144 0L769.48 46.214c-.865-.119-1.762.247-2.264 1.031l-.099.154c-.689 1.077-.377 2.512.698 3.203.651.418 1.418.429 2.087.164.246.506.524 1.001.861 1.473l-7.124 11.057c-.83-.074-1.674.277-2.155 1.029l-.099.154c-.689 1.077-.377 2.512.698 3.203.628.404 1.365.429 2.017.194a12.88 12.88 0 0 0 .771 1.706c-.235.167-.446.375-.611.632l-.099.154c-.393.614-.428 1.333-.214 1.976l-3.191 5.032-3.699 5.779c-.689 1.077-.377 2.512.698 3.203a2.31 2.31 0 0 0 3.196-.699l.246-.385c.519 1.099 1.159 2.154 1.927 3.151l-1.295 2.024c-.689 1.077-.377 2.512.698 3.203a2.31 2.31 0 0 0 3.196-.699l.731-1.142c.746.61 1.537 1.188 2.382 1.724l-.374 1.214a2.32 2.32 0 0 0 1.529 2.898c1.22.377 2.516-.309 2.892-1.532l.129-.418c1.127.469 2.309.87 3.533 1.214l-.087.809a2.32 2.32 0 0 0 2.052 2.553c1.269.137 2.411-.785 2.547-2.057l.039-.362a35.27 35.27 0 0 0 4.724.331c1.809 0 3.575-.137 5.281-.395a2.31 2.31 0 0 0 2.24 1.135c1.114-.12 1.958-1.017 2.055-2.095a31.46 31.46 0 0 0 1.981-.654c.565.783 1.577 1.165 2.549.865 1.165-.361 1.831-1.562 1.561-2.735 1.555-.863 2.983-1.841 4.24-2.933l.066.097a2.31 2.31 0 0 0 3.214.608c1.054-.721 1.326-2.165.606-3.222l-.679-.997c.588-.827 1.086-1.692 1.507-2.585l.163.255c.688 1.078 2.119 1.392 3.193.701s1.388-2.127.7-3.205z" fill="#548e00" opacity=".3"/><path d="M736.978 76.692h-9.252v25.505c0 2.558 2.069 4.632 4.622 4.632h.009a4.63 4.63 0 0 0 4.622-4.632V76.692z" class="R"/><g class="D"><path d="M755.439 75.274a2.31 2.31 0 0 0-3.194-.701c-1.075.691-1.388 2.127-.7 3.204l4.95 7.754a2.31 2.31 0 0 0 3.194.701c1.075-.691 1.388-2.127.7-3.205l-4.95-7.753z"/><path d="M738.234 48.136c-1.418-2.237-3.879-3.592-6.523-3.592s-5.105 1.355-6.523 3.592l-19.562 30.851c0 10.596 11.688 19.199 26.085 19.199s26.085-8.603 26.085-19.199l-19.562-30.851z"/></g></g><g clip-path="url(#E)" class="B I"><path d="M737.081 30.873a7.72 7.72 0 0 0-5.95-2.804c-2.301 0-4.482 1.027-5.951 2.802-7.697 9.317-20.133 25.685-20.133 34.207 0 10.596 11.688 19.199 26.085 19.199s26.085-8.603 26.085-19.199c0-8.522-12.437-24.89-20.135-34.205z"/></g><g class="B"><g class="D"><path d="M722.773 93.763c.137-1.272 1.278-2.194 2.547-2.057a2.32 2.32 0 0 1 2.052 2.553l-.425 3.958c-.137 1.272-1.278 2.194-2.547 2.057a2.32 2.32 0 0 1-2.052-2.553l.425-3.958zM707.08 76.701a2.31 2.31 0 0 1 3.196-.7c1.075.691 1.387 2.126.698 3.203l-4.132 6.455a2.31 2.31 0 0 1-3.196.699c-1.075-.691-1.387-2.126-.698-3.203l4.131-6.455z"/></g><g class="I"><path d="M733.444 84.277c0-1.28-1.037-2.318-2.313-2.318a2.32 2.32 0 0 0-2.313 2.318v2.318c0 1.28 1.037 2.318 2.313 2.318a2.32 2.32 0 0 0 2.313-2.318v-2.318zm8 4.36c-.157-1.27-1.313-2.173-2.58-2.015a2.32 2.32 0 0 0-2.011 2.586l.285 2.301c.157 1.27 1.313 2.173 2.58 2.015a2.32 2.32 0 0 0 2.011-2.586l-.285-2.301zm-20.463 0c.157-1.27 1.313-2.173 2.58-2.015a2.32 2.32 0 0 1 2.011 2.586l-.285 2.301c-.157 1.27-1.313 2.173-2.58 2.015a2.32 2.32 0 0 1-2.011-2.586l.284-2.301zm26.515-9.207c-.384-1.22-1.684-1.899-2.901-1.514a2.32 2.32 0 0 0-1.511 2.908l.974 3.098c.384 1.22 1.684 1.899 2.901 1.514a2.32 2.32 0 0 0 1.511-2.908l-.974-3.098zm-31.229 1.052c.384-1.22 1.684-1.899 2.901-1.514a2.32 2.32 0 0 1 1.511 2.908l-.974 3.098c-.384 1.22-1.684 1.899-2.901 1.514a2.32 2.32 0 0 1-1.511-2.908l.974-3.098zm36.941-5.417a2.31 2.31 0 0 0-3.16-.848c-1.106.64-1.485 2.059-.847 3.167l2.092 3.633c.638 1.108 2.054 1.488 3.16.849s1.485-2.059.847-3.167l-2.093-3.633zm-42.63-.125a2.31 2.31 0 0 1 3.16-.848c1.106.64 1.485 2.059.847 3.167l-2.093 3.633c-.638 1.108-2.054 1.488-3.16.849s-1.485-2.059-.847-3.167l2.093-3.633z"/></g><path d="M737.624 39.843c-1.424-2.21-3.869-3.544-6.493-3.544s-5.069 1.335-6.493 3.544L709.222 63.77c0 8.758 9.817 15.869 21.91 15.869s21.909-7.111 21.909-15.869l-15.416-23.927z" class="E"/></g><g clip-path="url(#F)" class="B D"><path d="M737.075,20.405c-1.469-1.771-3.647-2.795-5.944-2.795s-4.476,1.024-5.944,2.795c-6.488,7.835-15.965,20.429-15.965,27.138,0,8.758,9.817,15.869,21.91,15.869s21.909-7.111,21.909-15.869c0-6.71-9.477-19.303-15.965-27.138Z"/><path d="M719.321 61.56c.638-1.108.259-2.527-.847-3.167s-2.521-.259-3.16.849l-2.313 4.015c-.638 1.108-.259 2.527.847 3.167s2.521.259 3.16-.849l2.313-4.015zm5.486 8.47a2.32 2.32 0 0 0-1.429-2.949c-1.206-.418-2.525.223-2.942 1.432l-.757 2.191a2.32 2.32 0 0 0 1.429 2.949c1.206.418 2.525-.223 2.942-1.432l.757-2.191zm9.858-1.981c0-1.28-1.037-2.318-2.313-2.318a2.32 2.32 0 0 0-2.313 2.318v2.318c0 1.28 1.036 2.318 2.313 2.318s2.313-1.039 2.313-2.318v-2.318zm9.096.383c-.462-1.193-1.804-1.784-2.994-1.321s-1.78 1.808-1.318 3.001l.838 2.161c.462 1.192 1.804 1.784 2.994 1.321s1.78-1.808 1.318-3.001l-.838-2.161zm3.626-9.967a2.31 2.31 0 0 0-3.16-.848c-1.105.64-1.485 2.059-.847 3.167l2.003 3.477a2.31 2.31 0 0 0 3.16.848c1.106-.64 1.485-2.059.847-3.167l-2.003-3.477z"/></g><path d="M735.282 26.995a4.29 4.29 0 0 0-7.144 0l-13.261 19.958c0 3.804 2.564 7.191 6.543 9.354 2.846 1.547 6.416 2.468 10.29 2.468 9.29 0 16.833-5.297 16.833-11.822l-13.261-19.958z" class="B E"/><g clip-path="url(#G)" class="B"><path d="M746.23,36.291c0-8.063-6.531-14.609-14.576-14.609h-.336c-8.045,0-14.576,6.546-14.576,14.609v.618c0,8.063,6.531,14.609,14.576,14.609h.336c8.044,0,14.576-6.546,14.576-14.609v-.618Z" class="G"/><g class="E"><path d="M732.453 36.217a2.32 2.32 0 0 0-1.605-2.857c-1.229-.344-2.507.377-2.85 1.609l-.186.667a2.32 2.32 0 0 0 1.605 2.857c1.23.344 2.507-.377 2.85-1.609l.186-.667zm-6.767 5.117a2.32 2.32 0 0 0-1.099-3.088 2.31 2.31 0 0 0-3.081 1.101l-.991 2.095a2.32 2.32 0 0 0 1.099 3.088 2.31 2.31 0 0 0 3.081-1.101l.991-2.095zm8.979 3.532a2.32 2.32 0 0 0-2.313-2.319 2.32 2.32 0 0 0-2.313 2.319v2.318c0 1.279 1.036 2.318 2.313 2.318s2.313-1.039 2.313-2.318v-2.318zm6.045-7.806a2.31 2.31 0 0 0-3.162-.839c-1.104.643-1.478 2.063-.837 3.169l1.163 2.004a2.31 2.31 0 0 0 3.162.839c1.104-.643 1.478-2.063.837-3.17l-1.163-2.004z"/></g></g><g class="B"><g class="G"><path d="M728.818 58.592c0-1.28 1.037-2.318 2.313-2.318a2.32 2.32 0 0 1 2.313 2.318v.183c0 1.28-1.037 2.318-2.313 2.318a2.32 2.32 0 0 1-2.313-2.318v-.183zm-12.288-5.647c.48-1.186 1.83-1.757 3.013-1.276a2.32 2.32 0 0 1 1.273 3.02l-.069.17c-.48 1.186-1.83 1.757-3.013 1.276a2.32 2.32 0 0 1-1.273-3.02l.069-.17zm29.957-.023c-.48-1.186-1.83-1.757-3.013-1.276a2.32 2.32 0 0 0-1.273 3.02l.069.17c.48 1.186 1.83 1.757 3.013 1.276a2.32 2.32 0 0 0 1.273-3.02l-.069-.17zm-33.381-5.679a2.31 2.31 0 0 1 3.196-.699c1.075.691 1.387 2.126.698 3.203l-.099.154a2.31 2.31 0 0 1-3.196.699c-1.075-.691-1.387-2.126-.698-3.203l.099-.154z"/></g><path d="M707.374 64.324a2.31 2.31 0 0 1 3.196-.699c1.075.691 1.387 2.126.698 3.203l-.099.154a2.31 2.31 0 0 1-3.196.7c-1.075-.691-1.387-2.126-.698-3.203l.099-.154z" class="S"/><g class="E"><path d="M755.345 64.324a2.31 2.31 0 0 0-3.196-.699c-1.075.691-1.387 2.126-.698 3.203l.099.154a2.31 2.31 0 0 0 3.196.7c1.075-.691 1.387-2.126.698-3.203l-.099-.154zM714.907 74.5a2.31 2.31 0 0 1 3.196-.7c1.075.691 1.387 2.126.698 3.203l-.099.154a2.31 2.31 0 0 1-3.196.699c-1.075-.691-1.387-2.126-.698-3.203l.099-.154zm32.905 0a2.31 2.31 0 0 0-3.196-.7c-1.075.691-1.387 2.126-.698 3.203l.099.154a2.31 2.31 0 0 0 3.196.699c1.075-.691 1.387-2.126.698-3.203l-.099-.154z"/></g><path d="M753.682 86.181a2.31 2.31 0 0 0-3.215-.607c-1.054.721-1.326 2.165-.606 3.222l1.823 2.676a2.31 2.31 0 0 0 3.214.607c1.054-.721 1.326-2.165.606-3.222l-1.822-2.676z" class="D"/><g class="E"><path d="M720.054 77.586c.376-1.223 1.672-1.909 2.892-1.532a2.32 2.32 0 0 1 1.528 2.899l-.054.175c-.377 1.222-1.672 1.909-2.892 1.532A2.32 2.32 0 0 1 720 77.761l.054-.175zm22.611 0c-.376-1.223-1.672-1.909-2.892-1.532a2.32 2.32 0 0 0-1.528 2.899l.054.175c.376 1.222 1.672 1.909 2.892 1.532a2.32 2.32 0 0 0 1.528-2.899l-.054-.175z"/></g><g class="D"><path d="M747.291 93.968c-.376-1.223-1.672-1.909-2.892-1.532a2.32 2.32 0 0 0-1.528 2.899l.054.175c.376 1.222 1.672 1.909 2.892 1.532a2.32 2.32 0 0 0 1.528-2.899l-.054-.175zm-32.018-2.208c.376-1.223 1.672-1.909 2.892-1.532a2.32 2.32 0 0 1 1.528 2.899l-.92 2.99c-.376 1.223-1.672 1.909-2.892 1.532a2.32 2.32 0 0 1-1.529-2.899l.92-2.99z"/></g><g class="E"><path d="M726.081 79.809c.137-1.272 1.278-2.194 2.547-2.057a2.32 2.32 0 0 1 2.052 2.553l-.02.182c-.137 1.272-1.278 2.194-2.547 2.057a2.32 2.32 0 0 1-2.052-2.553l.02-.182zm10.557 0c-.137-1.272-1.278-2.194-2.547-2.057a2.32 2.32 0 0 0-2.052 2.553l.02.182c.137 1.272 1.278 2.194 2.547 2.057a2.32 2.32 0 0 0 2.052-2.553l-.02-.182z"/></g><path d="M741.264 96.191c-.137-1.272-1.278-2.194-2.547-2.057a2.32 2.32 0 0 0-2.052 2.553l.02.182c.137 1.272 1.278 2.194 2.547 2.057a2.32 2.32 0 0 0 2.052-2.553l-.02-.182z" class="D"/><g class="E"><path d="M710.15 70.214a2.31 2.31 0 0 1 3.196-.7c1.075.691 1.387 2.126.698 3.203l-.099.154a2.31 2.31 0 0 1-3.196.7c-1.074-.691-1.387-2.126-.698-3.203l.099-.154zm42.419 0a2.31 2.31 0 0 0-3.196-.7c-1.075.691-1.387 2.126-.698 3.203l.099.154a2.31 2.31 0 0 0 3.196.7c1.075-.691 1.387-2.126.698-3.203l-.099-.154z"/></g><path d="M710.478 86.141a2.31 2.31 0 0 1 3.196-.699c1.075.691 1.387 2.126.698 3.203l-2.758 4.308a2.31 2.31 0 0 1-3.196.699c-1.075-.691-1.387-2.126-.698-3.203l2.758-4.309z" class="D"/><g class="G"><path d="M749.911 47.22a2.31 2.31 0 0 0-3.196-.7c-1.075.691-1.387 2.126-.698 3.203l.099.154a2.31 2.31 0 0 0 3.196.7c1.075-.691 1.387-2.126.698-3.203l-.099-.154zm-28.242 9.65c.209-1.262 1.401-2.117 2.66-1.908a2.32 2.32 0 0 1 1.904 2.666l-.03.181c-.209 1.262-1.401 2.117-2.66 1.908a2.32 2.32 0 0 1-1.904-2.666l.03-.181zm19.679-.023c-.209-1.262-1.401-2.117-2.66-1.908a2.32 2.32 0 0 0-1.904 2.666l.03.181c.209 1.262 1.401 2.117 2.66 1.908a2.32 2.32 0 0 0 1.904-2.666l-.03-.181z"/></g><path d="M760.389 83.027l-4.684-7.337-2.708-4.271c-.031-.363-.119-.723-.328-1.05l-.099-.154c-.206-.322-.49-.551-.799-.73l-.121-.192c.266-.517.494-1.046.685-1.587.728.428 1.655.465 2.413-.023 1.074-.691 1.387-2.126.698-3.203l-.099-.154c-.561-.876-1.607-1.213-2.559-.948l-6.068-9.418c0-.289-.048-.582-.163-.866l-.069-.17c-.027-.067-.083-.111-.115-.175a10.5 10.5 0 0 0 1.195-1.858c.58.128 1.207.035 1.746-.312 1.074-.691 1.387-2.126.698-3.203l-.099-.154c-.425-.665-1.136-.996-1.869-1.022l-12.76-19.203a4.29 4.29 0 0 0-7.144 0l-12.769 19.217c-.865-.119-1.762.247-2.264 1.031l-.099.154c-.689 1.077-.377 2.512.698 3.203.651.418 1.418.429 2.087.164.246.506.524 1.001.861 1.473l-7.124 11.057c-.83-.074-1.674.277-2.155 1.029l-.099.154c-.689 1.077-.377 2.512.698 3.203.628.404 1.365.429 2.017.194a12.88 12.88 0 0 0 .771 1.706c-.235.167-.446.375-.611.632l-.099.154c-.393.614-.428 1.333-.214 1.976l-3.191 5.032-3.699 5.779c-.689 1.077-.377 2.512.698 3.203a2.31 2.31 0 0 0 3.196-.699l.246-.385c.519 1.099 1.159 2.154 1.927 3.151l-1.295 2.024c-.689 1.077-.377 2.512.698 3.203a2.31 2.31 0 0 0 3.196-.699l.731-1.142c.746.61 1.537 1.188 2.382 1.724l-.374 1.214a2.32 2.32 0 0 0 1.529 2.898c1.22.377 2.516-.309 2.892-1.532l.129-.418c1.127.469 2.309.87 3.533 1.214l-.087.809a2.32 2.32 0 0 0 2.052 2.553c1.269.137 2.411-.785 2.547-2.057l.039-.362a35.27 35.27 0 0 0 4.724.331c1.809 0 3.575-.137 5.281-.395a2.31 2.31 0 0 0 2.24 1.135c1.114-.12 1.958-1.017 2.055-2.095a31.46 31.46 0 0 0 1.981-.654c.565.783 1.577 1.165 2.549.865 1.165-.361 1.831-1.562 1.561-2.735 1.555-.863 2.983-1.841 4.24-2.933l.066.097a2.31 2.31 0 0 0 3.214.608c1.054-.721 1.326-2.165.606-3.222l-.679-.997c.588-.827 1.086-1.692 1.507-2.585l.163.255c.688 1.078 2.119 1.392 3.193.701s1.388-2.127.7-3.205z" fill="#548e00" opacity=".3"/><path d="M764.351 78.072h-10.442v28.784c0 2.887 2.335 5.228 5.216 5.228h.01c2.881 0 5.216-2.341 5.216-5.228V78.072z" class="R"/><g class="D"><path d="M785.184 76.472c-.776-1.216-2.391-1.571-3.604-.791s-1.567 2.4-.79 3.616l5.586 8.75c.776 1.216 2.391 1.571 3.604.791s1.567-2.4.79-3.617l-5.586-8.75z"/><path d="M765.767 45.846a8.72 8.72 0 0 0-14.724 0l-22.076 34.817c0 11.958 13.191 21.666 29.438 21.666s29.438-9.708 29.438-21.666l-22.076-34.817z"/></g></g><g clip-path="url(#H)" class="B I"><path d="M764.466 26.364c-1.657-2.004-4.119-3.164-6.715-3.164s-5.059 1.159-6.716 3.162c-8.686 10.515-22.721 28.987-22.721 38.604 0 11.958 13.191 21.666 29.438 21.666s29.438-9.708 29.438-21.666c0-9.617-14.035-28.089-22.723-38.602z"/></g><g class="B"><g class="D"><path d="M748.319 97.337c.154-1.436 1.442-2.476 2.875-2.321s2.47 1.445 2.316 2.881l-.48 4.467c-.154 1.435-1.442 2.476-2.875 2.321s-2.47-1.445-2.316-2.881l.479-4.467zm-17.71-19.255a2.61 2.61 0 0 1 3.607-.789c1.213.78 1.565 2.399.788 3.615l-4.663 7.284a2.61 2.61 0 0 1-3.606.789 2.62 2.62 0 0 1-.788-3.615l4.663-7.284z"/></g><g class="I"><path d="M760.362 86.632c0-1.444-1.17-2.616-2.61-2.616s-2.611 1.172-2.611 2.616v2.616c0 1.444 1.17 2.616 2.611 2.616s2.61-1.172 2.61-2.616v-2.616zm9.029 4.92c-.177-1.433-1.482-2.452-2.911-2.275s-2.446 1.485-2.269 2.918l.321 2.596c.177 1.433 1.482 2.452 2.911 2.275s2.447-1.485 2.269-2.918l-.321-2.596zm-23.094 0c.177-1.433 1.482-2.452 2.912-2.275s2.446 1.485 2.269 2.918l-.321 2.596c-.177 1.433-1.482 2.452-2.911 2.275s-2.447-1.485-2.269-2.918l.321-2.596zm29.923-10.39a2.61 2.61 0 0 0-3.274-1.709 2.62 2.62 0 0 0-1.705 3.282l1.099 3.496a2.61 2.61 0 0 0 3.274 1.709 2.62 2.62 0 0 0 1.705-3.282l-1.099-3.496z"/><path d="M740.978 82.349a2.61 2.61 0 0 1 3.274-1.709 2.62 2.62 0 0 1 1.705 3.282l-1.099 3.496a2.61 2.61 0 0 1-3.274 1.709 2.62 2.62 0 0 1-1.705-3.282l1.099-3.496zm41.688-6.113a2.61 2.61 0 0 0-3.566-.958 2.62 2.62 0 0 0-.955 3.574l2.361 4.1a2.61 2.61 0 0 0 3.566.958 2.62 2.62 0 0 0 .955-3.574l-2.362-4.1zm-48.109-.141a2.61 2.61 0 0 1 3.566-.958 2.62 2.62 0 0 1 .956 3.574l-2.362 4.1a2.61 2.61 0 0 1-3.566.958 2.62 2.62 0 0 1-.955-3.574l2.362-4.1z"/></g><path d="M765.079 36.487c-1.607-2.494-4.366-4-7.327-4a8.72 8.72 0 0 0-7.328 4L733.026 63.49c0 9.884 11.079 17.909 24.726 17.909s24.725-8.025 24.725-17.909l-17.398-27.003z" class="E"/></g><g clip-path="url(#I)" class="B D"><path d="M764.46,14.55c-1.657-1.998-4.116-3.154-6.708-3.154s-5.051,1.156-6.708,3.154c-7.322,8.842-18.017,23.054-18.017,30.626,0,9.884,11.079,17.909,24.726,17.909s24.725-8.025,24.725-17.909c0-7.572-10.695-21.784-18.017-30.626Z"/><path d="M744.423 60.995a2.62 2.62 0 0 0-.956-3.574 2.61 2.61 0 0 0-3.566.958l-2.61 4.531c-.72 1.251-.292 2.852.955 3.574a2.61 2.61 0 0 0 3.566-.958l2.611-4.531zm6.192 9.559a2.62 2.62 0 0 0-1.613-3.328c-1.361-.472-2.849.252-3.321 1.616l-.854 2.472a2.62 2.62 0 0 0 1.613 3.328c1.361.472 2.849-.252 3.321-1.616l.854-2.472zm11.125-2.236c0-1.444-1.17-2.616-2.61-2.616s-2.61 1.172-2.61 2.616v2.616c0 1.444 1.17 2.616 2.61 2.616s2.61-1.172 2.61-2.616v-2.616zm10.264.432a2.61 2.61 0 0 0-3.379-1.491 2.62 2.62 0 0 0-1.487 3.386l.946 2.439a2.61 2.61 0 0 0 3.379 1.491 2.62 2.62 0 0 0 1.487-3.387l-.946-2.438zm4.093-11.248a2.61 2.61 0 0 0-3.566-.958 2.62 2.62 0 0 0-.955 3.574l2.261 3.924a2.61 2.61 0 0 0 3.566.958 2.62 2.62 0 0 0 .955-3.574l-2.261-3.924z"/></g><path d="M762.437 21.988a4.84 4.84 0 0 0-8.062 0l-14.966 22.523c0 4.293 2.893 8.115 7.384 10.556 3.212 1.746 7.241 2.785 11.613 2.785 10.484 0 18.997-5.978 18.997-13.342l-14.966-22.523z" class="B E"/><g clip-path="url(#J)" class="B"><path d="M774.792,32.479c0-9.099-7.371-16.486-16.449-16.486h-.379c-9.079,0-16.449,7.387-16.449,16.486v.698c0,9.099,7.37,16.486,16.449,16.486h.379c9.078,0,16.449-7.387,16.449-16.486v-.698Z" class="G"/><g class="E"><path d="M759.244 32.395a2.62 2.62 0 0 0-1.811-3.224 2.61 2.61 0 0 0-3.216 1.816l-.21.753a2.62 2.62 0 0 0 1.811 3.224 2.61 2.61 0 0 0 3.216-1.816l.21-.753zm-7.638 5.775a2.62 2.62 0 0 0-1.24-3.485 2.61 2.61 0 0 0-3.477 1.242l-1.119 2.364a2.62 2.62 0 0 0 1.24 3.485 2.61 2.61 0 0 0 3.477-1.243l1.119-2.364zm10.134 3.985c0-1.444-1.17-2.617-2.61-2.617s-2.61 1.173-2.61 2.617v2.616c0 1.444 1.17 2.616 2.61 2.616s2.61-1.173 2.61-2.616v-2.616zm6.821-8.809a2.61 2.61 0 0 0-3.569-.946 2.62 2.62 0 0 0-.944 3.577l1.312 2.262a2.61 2.61 0 0 0 3.569.947 2.62 2.62 0 0 0 .944-3.577l-1.312-2.262z"/></g></g><g class="B"><g class="G"><path d="M755.141 57.646c0-1.444 1.17-2.616 2.611-2.616s2.61 1.172 2.61 2.616v.207c0 1.444-1.17 2.616-2.61 2.616s-2.611-1.172-2.611-2.616v-.207zm-13.867-6.373a2.61 2.61 0 0 1 3.4-1.44 2.62 2.62 0 0 1 1.437 3.408l-.078.192a2.61 2.61 0 0 1-3.401 1.44 2.62 2.62 0 0 1-1.437-3.408l.078-.192zm33.807-.026a2.61 2.61 0 0 0-3.4-1.44 2.62 2.62 0 0 0-1.437 3.408l.078.192a2.61 2.61 0 0 0 3.401 1.44 2.62 2.62 0 0 0 1.437-3.408l-.078-.192zm-37.671-6.408a2.61 2.61 0 0 1 3.606-.789 2.62 2.62 0 0 1 .788 3.615l-.111.174a2.61 2.61 0 0 1-3.607.789c-1.213-.779-1.565-2.399-.788-3.615l.112-.174z"/></g><path d="M730.941 64.115a2.61 2.61 0 0 1 3.607-.789 2.62 2.62 0 0 1 .788 3.615l-.111.174a2.61 2.61 0 0 1-3.607.789 2.62 2.62 0 0 1-.788-3.615l.111-.174z" class="S"/><g class="E"><path d="M785.078 64.115a2.61 2.61 0 0 0-3.607-.789 2.62 2.62 0 0 0-.787 3.615l.111.174a2.61 2.61 0 0 0 3.607.789 2.62 2.62 0 0 0 .787-3.615l-.111-.174zm-45.636 11.484a2.61 2.61 0 0 1 3.607-.789 2.62 2.62 0 0 1 .787 3.615l-.111.174a2.61 2.61 0 0 1-3.607.789 2.62 2.62 0 0 1-.787-3.615l.111-.174zm37.135 0a2.61 2.61 0 0 0-3.607-.789 2.62 2.62 0 0 0-.788 3.615l.111.174a2.61 2.61 0 0 0 3.607.789 2.62 2.62 0 0 0 .788-3.615l-.111-.174z"/></g><path d="M783.201 88.781a2.61 2.61 0 0 0-3.628-.686c-1.19.814-1.496 2.443-.684 3.636l2.057 3.02a2.61 2.61 0 0 0 3.628.686c1.19-.814 1.496-2.443.684-3.636l-2.057-3.02z" class="D"/><g class="E"><path d="M745.251 79.081a2.61 2.61 0 0 1 3.264-1.729 2.62 2.62 0 0 1 1.725 3.271l-.061.198a2.61 2.61 0 0 1-3.264 1.729 2.62 2.62 0 0 1-1.725-3.271l.061-.198z"/><use href="#AO"/></g><g class="D"><path d="M775.988 97.569a2.61 2.61 0 0 0-3.264-1.729 2.62 2.62 0 0 0-1.725 3.271l.061.198a2.61 2.61 0 0 0 3.264 1.729 2.62 2.62 0 0 0 1.725-3.271l-.061-.198zm-36.133-2.492a2.61 2.61 0 0 1 3.264-1.729 2.62 2.62 0 0 1 1.725 3.271l-1.038 3.374a2.61 2.61 0 0 1-3.264 1.729 2.62 2.62 0 0 1-1.725-3.271l1.039-3.374z"/></g><g class="E"><path d="M752.053 81.59c.154-1.436 1.442-2.476 2.875-2.321s2.47 1.445 2.316 2.881l-.022.206c-.154 1.436-1.442 2.476-2.875 2.321s-2.47-1.445-2.316-2.881l.022-.206z"/><use href="#AP"/></g><path d="M769.187 100.077c-.154-1.436-1.442-2.476-2.875-2.321s-2.47 1.445-2.316 2.881l.022.206c.154 1.436 1.442 2.476 2.875 2.321s2.47-1.445 2.316-2.881l-.022-.206z" class="D"/><g class="E"><path d="M734.074 70.762a2.61 2.61 0 0 1 3.607-.789 2.62 2.62 0 0 1 .787 3.615l-.111.174a2.61 2.61 0 0 1-3.607.789c-1.212-.78-1.565-2.399-.787-3.615l.111-.174zm47.871 0a2.61 2.61 0 0 0-3.606-.789 2.62 2.62 0 0 0-.788 3.615l.111.174a2.61 2.61 0 0 0 3.607.789 2.62 2.62 0 0 0 .788-3.615l-.112-.174z"/></g><path d="M734.444 88.736a2.61 2.61 0 0 1 3.607-.789 2.62 2.62 0 0 1 .787 3.615l-3.112 4.862a2.61 2.61 0 0 1-3.607.789 2.62 2.62 0 0 1-.787-3.615l3.112-4.862z" class="D"/><g class="G"><path d="M778.945 44.813a2.61 2.61 0 0 0-3.606-.789 2.62 2.62 0 0 0-.788 3.615l.111.174a2.61 2.61 0 0 0 3.607.789c1.213-.78 1.565-2.399.788-3.615l-.112-.174zm-31.871 10.889c.236-1.425 1.581-2.389 3.002-2.153s2.384 1.585 2.148 3.009l-.034.204c-.235 1.425-1.581 2.389-3.002 2.153s-2.384-1.585-2.148-3.009l.034-.204zm22.207-.026c-.236-1.425-1.581-2.389-3.002-2.153s-2.384 1.585-2.148 3.009l.034.204c.235 1.425 1.581 2.389 3.002 2.153s2.384-1.585 2.148-3.009l-.034-.204z"/></g><path d="M1361.62-70.623c24.892 4.25 41.65 27.911 37.4 52.804s-27.91 41.652-52.803 37.401-41.653-27.911-37.402-52.804 27.913-41.651 52.805-37.401z" fill="#e3dec9"/><path d="M1347.124 14.272c15.619 2.667 26.132 17.512 23.465 33.13s-17.51 26.133-33.129 23.466-26.132-17.512-23.465-33.13 17.51-26.133 33.129-23.466z" fill="#bab39a"/><path d="M1361.864 19.909a15.39 15.39 0 0 0-12.571-17.748c-8.368-1.429-16.32 4.204-17.748 12.571l-3.797 22.234a15.39 15.39 0 0 0 12.571 17.748c8.368 1.429 16.32-4.204 17.748-12.571l3.797-22.234z" fill="#a8a188"/><path d="M1416.476-25.811a6.23 6.23 0 0 0-5.094-7.192l-108.994-18.611a6.23 6.23 0 0 0-4.65 1.058c-1.349.955-2.262 2.407-2.54 4.036L1282.8 26.09c-.278 1.629.101 3.302 1.057 4.65a6.23 6.23 0 0 0 4.036 2.54l108.994 18.611a6.23 6.23 0 0 0 7.192-5.093l12.398-72.61z" fill="#e3dec9"/></g><rect x="1316.484" y="-47.052" width="65.618" height="98.426" rx="5.525" transform="matrix(.168317 -.985733 .985733 .168317 1120.052 1331.839)" fill="#64b6bb"/><g clip-path="url(#K)"><path d="M1306.313-38.515l-11.045 64.681 108.067-48.114-97.022-16.567z" fill="#6dbfc1" class="B"/><g stroke="#4ba0a0" class="C P X"><path d="M1348.171 36.735l1.122-11.64 4.172-3.106v-4.941l4.47-3.482m-9.179 15.85l-3.718-4.106 2.494-6.906-2.494-2.353"/></g></g><g clip-path="url(#L)"><path d="M1397.895 38.478v-.415a3.16 3.16 0 0 0-3.16-3.157h-4.673a3.16 3.16 0 0 0-3.16 3.157v3.789a3.16 3.16 0 0 1-3.16 3.157h-.532a3.16 3.16 0 0 1-3.16-3.157 3.16 3.16 0 0 0-3.16-3.157h-6.32a3.16 3.16 0 0 0-3.16 3.198l.066 5.02 40.681 6.946c1.628.278 3.301-.102 4.65-1.057s2.262-2.407 2.54-4.036l1.218-7.13h-15.51a3.16 3.16 0 0 1-3.16-3.157z" fill="#4ba582"/></g><path d="M1306.406 42.57h15.247l14.343 14.343h32.466v9.657l-10.205 10.204h-52.642l.791-34.204z" stroke="#00b365" class="L O Q W b"/><rect x="1248.532" y="55.141" width="21.07" height="3.665" rx="1.83" fill="#008947"/><path d="M1275.675 25.24v31.313" class="C P T Y"/><g class="M"><path d="M1254.584 40.324h3.703v9.278h-3.703z"/><path d="M1254.584 49.602h3.703v6.208h-3.703zm5.554-9.278h3.703v9.278h-3.703z"/><path d="M1260.138 49.602h3.703v6.208h-3.703z"/><path d="M1260.138 55.81h5.554v1.485h-5.554zm-7.406 0h5.554v1.485h-5.554z"/></g><g class="B"><path d="M1250.418 17.057c0-1.344 1.087-2.435 2.429-2.435h12.175c1.342 0 2.429 1.091 2.429 2.435v18.799h-17.033V17.057z" fill="#102120"/><g class="M"><path d="M1254.856 28.118a.37.37 0 0 1 .499.161l.926 1.816a.37.37 0 0 1 .023.283c-.03.094-.097.172-.184.217l-8.076 4.139-1.264-2.478 8.076-4.139zm7.138 2.355a.37.37 0 0 1-.15-.242c-.016-.097.007-.197.065-.278l1.186-1.658c.058-.081.145-.135.242-.151s.197.007.277.064l7.376 5.28-1.62 2.264-7.376-5.28z"/><path d="M1256.011 36.576a.49.49 0 0 1 .23.291c.035.123.02.256-.043.368l-.881 1.586c-.062.112-.167.195-.29.23a.48.48 0 0 1-.367-.043l-7.827-4.371 1.352-2.431 7.827 4.37z"/><path d="M1248.721 34.098c.373-.671.132-1.519-.537-1.893a1.39 1.39 0 0 0-1.889.538c-.373.671-.132 1.519.537 1.893a1.39 1.39 0 0 0 1.889-.538z"/></g></g><circle cx="1270.159" cy="34.593" r="1.392" transform="matrix(.92109 -.389349 .389349 .92109 86.759 497.265)" class="M"/><g class="B M"><path d="M1276.426 27.929c.101-.079.229-.114.357-.099s.243.081.322.183l1.115 1.427c.078.101.114.23.098.357s-.082.243-.183.322l-7.084 5.516-1.709-2.19 7.084-5.516zm-21.842.71a.56.56 0 0 1 .164-.398c.105-.105.248-.165.397-.165h8.135a.56.56 0 0 1 .397.165c.105.105.165.249.165.398v11.685h-9.257V28.639z"/></g><path d="M1257.361 26.221h3.703v1.856h-3.703z" class="M"/><path d="M1257.361 26.221h3.703v.928h-3.703z" fill="#bb3f6f"/><g class="B"><g class="M"><path d="M1253.334 19.956c0-.444.176-.871.49-1.185a1.67 1.67 0 0 1 1.183-.491h8.781c.443 0 .869.177 1.183.491a1.68 1.68 0 0 1 .49 1.185v4.588c0 .444-.176.871-.49 1.185a1.67 1.67 0 0 1-1.183.491h-8.781c-.444 0-.869-.177-1.183-.491s-.49-.741-.49-1.185v-4.588z"/><path d="M1252.439 20.783c-1.088-.027-1.994.837-2.021 1.927s.835 1.998 1.923 2.025 1.994-.836 2.021-1.927-.834-1.998-1.923-2.025z"/></g><g fill="#102120"><path d="M1253.325 21.014h1.895a1.22 1.22 0 0 0 1.216-1.219V18.23h-3.111v2.783zm7.103 0h5.82v-2.783h-7.035v1.565c0 .673.544 1.219 1.216 1.219z"/></g></g><g fill="#0d1c1c"><rect x="1256.759" y="21.683" width="1.204" height="2.437" rx=".201"/><rect x="1261.943" y="21.683" width="1.204" height="2.437" rx=".201"/></g><path d="M1253.836 46.043l11.283 2.838-1.278-8.557h-9.257l-.748 5.719z" fill="#42ea6d" class="B"/><g class="C Y"><g stroke="#42ea6d" class="O Q"><path d="M1253.836 46.043h0"/><path d="M1255.448 46.449l8.865 2.229" stroke-dasharray="0 1.662"/><path d="M1265.119 48.881h0"/><path d="M1264.863 47.169l-.894-5.99" stroke-dasharray="0 1.73"/><path d="M1263.841 40.324h0"/><path d="M1262.298 40.324h-6.943" stroke-dasharray="0 1.543"/><path d="M1254.584 40.324h0"/><path d="M1254.334 42.23l-.373 2.86" stroke-dasharray="0 1.923"/></g><circle cx="1275.675" cy="24.12" r="1.641" class="T"/></g><rect x="1298.817" y="81.115" width="32.3" height="5.125" rx="2.563" opacity=".106"/><g class="B"><path d="M1320.163 54.189h-9.053v24.956a4.53 4.53 0 0 0 4.522 4.533h.008c2.498 0 4.522-2.029 4.522-4.533V54.189z" class="R"/><g class="D"><path d="M1338.226 52.801a2.26 2.26 0 0 0-3.125-.686c-1.051.676-1.358 2.081-.685 3.135l4.844 7.587a2.26 2.26 0 0 0 3.125.686c1.051-.676 1.358-2.081.685-3.136l-4.844-7.586z"/><path d="M1321.391 26.248c-1.388-2.189-3.795-3.514-6.383-3.514a7.56 7.56 0 0 0-6.383 3.514l-19.141 30.187c0 10.368 11.437 18.785 25.524 18.785s25.524-8.417 25.524-18.785l-19.141-30.187z"/></g></g><g clip-path="url(#M)" class="B I"><path d="M1320.263 9.356a7.56 7.56 0 0 0-11.645-.002c-7.531 9.117-19.7 25.132-19.7 33.471 0 10.368 11.437 18.785 25.524 18.785s25.523-8.417 25.523-18.785c0-8.339-12.169-24.354-19.702-33.469z"/></g><g class="B"><g class="D"><path d="M1306.263 70.892c.134-1.245 1.251-2.146 2.492-2.013a2.27 2.27 0 0 1 2.008 2.498l-.416 3.873c-.134 1.245-1.25 2.146-2.492 2.013a2.27 2.27 0 0 1-2.008-2.498l.416-3.873zm-15.355-16.695a2.26 2.26 0 0 1 3.127-.685c1.051.676 1.357 2.08.683 3.134l-4.043 6.316a2.26 2.26 0 0 1-3.127.684c-1.051-.676-1.357-2.08-.683-3.134l4.043-6.316z"/></g><g class="I"><path d="M1316.705 61.61c0-1.252-1.014-2.268-2.263-2.268s-2.263 1.016-2.263 2.268v2.268c0 1.252 1.014 2.268 2.263 2.268s2.263-1.016 2.263-2.268V61.61zm7.828 4.266c-.154-1.243-1.285-2.126-2.524-1.972a2.27 2.27 0 0 0-1.968 2.53l.278 2.251c.154 1.243 1.285 2.126 2.524 1.972a2.27 2.27 0 0 0 1.968-2.53l-.278-2.251zm-20.023 0c.154-1.243 1.285-2.126 2.525-1.972a2.27 2.27 0 0 1 1.968 2.53l-.278 2.251c-.154 1.243-1.285 2.126-2.524 1.972a2.27 2.27 0 0 1-1.968-2.53l.278-2.251zm25.944-9.008c-.375-1.194-1.647-1.858-2.839-1.482a2.27 2.27 0 0 0-1.478 2.845l.953 3.031c.376 1.194 1.647 1.858 2.839 1.482a2.27 2.27 0 0 0 1.478-2.845l-.953-3.031zm-30.556 1.029c.376-1.194 1.647-1.858 2.839-1.482a2.27 2.27 0 0 1 1.478 2.845l-.953 3.031c-.376 1.194-1.647 1.858-2.839 1.482a2.27 2.27 0 0 1-1.478-2.845l.953-3.031zm36.145-5.301c-.624-1.084-2.01-1.456-3.092-.83s-1.453 2.014-.828 3.099l2.047 3.554c.625 1.084 2.01 1.456 3.092.83s1.453-2.015.828-3.099l-2.048-3.554zm-41.712-.121c.624-1.084 2.01-1.456 3.092-.83s1.453 2.014.829 3.099l-2.048 3.554c-.625 1.084-2.01 1.456-3.092.83s-1.453-2.015-.828-3.099l2.048-3.554z"/></g><path d="M1320.795 18.133a7.56 7.56 0 0 0-12.706 0l-15.085 23.412c0 8.57 9.606 15.528 21.438 15.528s21.438-6.958 21.438-15.528l-15.085-23.412z" class="E"/></g><g clip-path="url(#N)" class="B D"><path d="M1320.258-.887c-1.437-1.733-3.568-2.735-5.816-2.735s-4.379,1.002-5.816,2.735c-6.348,7.667-15.622,19.989-15.622,26.554,0,8.57,9.606,15.528,21.438,15.528s21.438-6.958,21.438-15.528c0-6.565-9.273-18.887-15.622-26.554Z"/><path d="M1302.885 39.382c.624-1.084.253-2.473-.829-3.099s-2.467-.254-3.092.83l-2.263 3.929c-.624 1.084-.253 2.473.828 3.099s2.467.254 3.092-.83l2.263-3.929zm5.369 8.288a2.27 2.27 0 0 0-1.398-2.886c-1.18-.409-2.47.218-2.879 1.402l-.74 2.143a2.27 2.27 0 0 0 1.398 2.886c1.18.409 2.47-.218 2.879-1.402l.74-2.144zm9.646-1.939c0-1.252-1.014-2.268-2.263-2.268s-2.263 1.016-2.263 2.268v2.268c0 1.252 1.014 2.268 2.263 2.268s2.263-1.016 2.263-2.268v-2.268zm8.899.375a2.26 2.26 0 0 0-2.929-1.292c-1.164.454-1.742 1.769-1.29 2.936l.82 2.114c.452 1.167 1.765 1.746 2.93 1.292a2.27 2.27 0 0 0 1.29-2.936l-.82-2.114zm3.548-9.752c-.625-1.084-2.01-1.456-3.092-.83s-1.453 2.014-.828 3.099l1.96 3.403c.624 1.084 2.01 1.456 3.092.83s1.453-2.014.828-3.099l-1.96-3.403z"/></g><path d="M1318.503 5.562c-.779-1.172-2.09-1.876-3.495-1.876s-2.716.704-3.495 1.876l-12.976 19.528c0 3.722 2.509 7.036 6.402 9.153 2.785 1.514 6.278 2.415 10.069 2.415 9.09 0 16.471-5.183 16.471-11.568l-12.976-19.528z" class="B E"/><g clip-path="url(#O)" class="B"><path d="M1329.216,14.658c0-7.889-6.391-14.294-14.262-14.294h-.329c-7.871,0-14.262,6.405-14.262,14.294v.605c0,7.889,6.39,14.294,14.262,14.294h.329c7.871,0,14.262-6.405,14.262-14.294v-.605Z" class="G"/><g class="E"><path d="M1315.735 14.585a2.27 2.27 0 0 0-1.571-2.795c-1.203-.337-2.453.369-2.789 1.574l-.182.652a2.27 2.27 0 0 0 1.571 2.795c1.203.337 2.453-.369 2.789-1.574l.182-.652zm-6.622 5.007c.535-1.131.054-2.485-1.075-3.022s-2.479-.054-3.015 1.077l-.97 2.05c-.535 1.131-.054 2.485 1.075 3.022s2.479.054 3.015-1.077l.97-2.049zm8.787 3.456c0-1.252-1.014-2.269-2.263-2.269s-2.263 1.017-2.263 2.269v2.268c0 1.252 1.014 2.268 2.263 2.268s2.263-1.017 2.263-2.268v-2.268zm5.914-7.639a2.26 2.26 0 0 0-3.094-.82c-1.08.629-1.447 2.019-.819 3.101l1.138 1.961c.628 1.082 2.014 1.45 3.094.821s1.447-2.019.819-3.101l-1.137-1.961z"/></g></g><g class="B"><g class="G"><path d="M1312.178 36.478c0-1.252 1.014-2.268 2.263-2.268s2.263 1.016 2.263 2.268v.18c0 1.252-1.014 2.268-2.263 2.268s-2.263-1.016-2.263-2.268v-.18zm-12.023-5.525c.47-1.16 1.791-1.719 2.948-1.249a2.27 2.27 0 0 1 1.246 2.955l-.067.166c-.47 1.16-1.791 1.719-2.948 1.249s-1.715-1.795-1.246-2.955l.067-.166zm29.311-.022c-.47-1.16-1.791-1.72-2.948-1.249a2.27 2.27 0 0 0-1.246 2.955l.067.166c.47 1.16 1.791 1.72 2.948 1.249s1.715-1.795 1.246-2.955l-.067-.166zm-32.662-5.557a2.26 2.26 0 0 1 3.127-.684c1.051.676 1.357 2.08.683 3.134l-.097.151a2.26 2.26 0 0 1-3.127.684c-1.051-.676-1.357-2.08-.683-3.134l.097-.151z"/></g><path d="M1291.195 42.087a2.26 2.26 0 0 1 3.127-.684c1.051.676 1.357 2.08.683 3.134l-.097.151a2.26 2.26 0 0 1-3.127.685c-1.051-.676-1.357-2.08-.683-3.134l.097-.151z" class="S"/><g class="E"><path d="M1338.134 42.087a2.26 2.26 0 0 0-3.127-.684c-1.051.676-1.357 2.08-.683 3.134l.097.151a2.26 2.26 0 0 0 3.127.685c1.051-.676 1.357-2.08.683-3.134l-.097-.151zm-39.568 9.957a2.26 2.26 0 0 1 3.127-.685c1.051.676 1.357 2.08.683 3.134l-.097.151a2.26 2.26 0 0 1-3.127.684c-1.051-.676-1.357-2.08-.683-3.134l.097-.151zm32.198 0a2.26 2.26 0 0 0-3.127-.685c-1.051.676-1.357 2.08-.683 3.134l.097.151a2.26 2.26 0 0 0 3.127.684c1.051-.676 1.357-2.08.683-3.134l-.097-.151z"/></g><path d="M1336.507 63.474a2.26 2.26 0 0 0-3.145-.594c-1.031.706-1.297 2.118-.593 3.152l1.783 2.618a2.26 2.26 0 0 0 3.145.594c1.032-.706 1.297-2.118.593-3.152l-1.783-2.618z" class="D"/><g class="E"><path d="M1303.603 55.064c.368-1.196 1.636-1.868 2.83-1.499a2.27 2.27 0 0 1 1.495 2.836l-.053.172c-.368 1.196-1.636 1.868-2.83 1.499a2.27 2.27 0 0 1-1.495-2.836l.053-.171z"/><use href="#AQ"/></g><g class="D"><path d="M1330.253 71.093c-.368-1.196-1.636-1.868-2.83-1.499a2.27 2.27 0 0 0-1.495 2.836l.053.172c.368 1.196 1.636 1.868 2.83 1.499a2.27 2.27 0 0 0 1.495-2.836l-.053-.171zm-31.328-2.161c.368-1.196 1.636-1.868 2.83-1.499a2.27 2.27 0 0 1 1.495 2.836l-.9 2.925c-.368 1.196-1.636 1.868-2.83 1.499a2.27 2.27 0 0 1-1.496-2.836l.901-2.925z"/></g><g class="E"><path d="M1309.501 57.238c.134-1.245 1.25-2.147 2.492-2.013a2.27 2.27 0 0 1 2.008 2.498l-.019.178c-.134 1.245-1.25 2.146-2.492 2.013a2.27 2.27 0 0 1-2.008-2.498l.019-.178z"/><use href="#AR"/></g><path d="M1324.356 73.268c-.134-1.245-1.25-2.147-2.492-2.013a2.27 2.27 0 0 0-2.008 2.498l.019.178c.134 1.245 1.25 2.146 2.492 2.013a2.27 2.27 0 0 0 2.008-2.498l-.019-.178z" class="D"/><g class="E"><path d="M1293.912 47.85a2.26 2.26 0 0 1 3.127-.685c1.051.676 1.357 2.08.683 3.134l-.097.151a2.26 2.26 0 0 1-3.127.685c-1.051-.676-1.357-2.08-.683-3.134l.097-.151z"/><use href="#AS"/></g><path d="M1294.233 63.434a2.26 2.26 0 0 1 3.127-.684c1.051.676 1.357 2.08.683 3.134l-2.698 4.216a2.26 2.26 0 0 1-3.127.684c-1.051-.676-1.357-2.08-.683-3.134l2.698-4.216z" class="D"/><g class="G"><path d="M1332.817 25.352a2.26 2.26 0 0 0-3.127-.685c-1.051.676-1.357 2.08-.683 3.134l.097.151a2.26 2.26 0 0 0 3.127.685c1.051-.676 1.357-2.08.683-3.134l-.097-.151zm-27.634 9.441c.204-1.235 1.371-2.071 2.603-1.867a2.27 2.27 0 0 1 1.863 2.609l-.029.177c-.204 1.235-1.371 2.072-2.603 1.867a2.27 2.27 0 0 1-1.863-2.609l.029-.177zm19.255-.022c-.204-1.235-1.371-2.072-2.603-1.867a2.27 2.27 0 0 0-1.863 2.609l.029.177c.204 1.235 1.371 2.071 2.603 1.867a2.27 2.27 0 0 0 1.863-2.609l-.029-.177z"/></g></g><path d="M1376.609 68.057V38.275" class="C P T X"/><use href="#AT" fill="#ea562e"/><use href="#AU" fill="#f1a53b"/><use href="#AV" fill="#fbee4f"/><circle cx="1351.335" cy="68.057" r="3.791" class="L"/><path d="M1391.994 74.29V44.508" class="C P T X"/><path d="M1392.04 31.79c2.73.01 4.908 10.471 4.898 13.203s-2.231 4.937-4.962 4.927-4.937-2.231-4.927-4.962 2.26-13.177 4.99-13.167h0z" fill="#ea562e"/><path d="M1392.03 35.911c2.11.007 3.792 8.092 3.785 10.202a3.82 3.82 0 1 1-7.641-.027c.007-2.11 1.746-10.183 3.856-10.175h0z" fill="#f1a53b"/><path d="M1392.017 41.267c1.304.004 2.343 4.997 2.339 6.301a2.36 2.36 0 0 1-2.367 2.351 2.36 2.36 0 0 1-2.351-2.367c.004-1.304 1.079-6.289 2.381-6.285h-.001z" fill="#fbee4f"/><circle cx="1391.994" cy="74.29" r="3.791" class="L"/><path d="M1038.318 144.204h91.109v62.826h-91.109z" class="H"/><path d="M1038.318 113.737h91.109v30.467h-91.109z" fill="#b0bfbe"/><g fill="#617b7b" class="B"><path d="M964.29 75.666a2.85 2.85 0 0 0-2.844 2.853v112.804h5.694V78.519a2.85 2.85 0 0 0-2.844-2.853h-.006zm79.72 16.57a2.85 2.85 0 0 0-2.844 2.853v34.272h5.694V95.089a2.85 2.85 0 0 0-2.844-2.853h-.006z"/><path d="M965.716 120.973c-1.124-1.162-3.186-1.451-4.584-.641l-75.744 43.864a2.86 2.86 0 0 0-1.041 3.9h0a2.83 2.83 0 0 0 3.877 1.052l76.453-44.274a2.86 2.86 0 0 0 1.042-3.898l-.003-.003z"/><path d="M965.716 168.095a2.84 2.84 0 0 1-3.886 1.045c-13.601-7.876-40.244-21.611-40.244-21.611l2.847-4.946s26.635 13.729 40.242 21.611a2.84 2.84 0 0 1 1.327 1.733 2.86 2.86 0 0 1-.285 2.168h0z"/></g><g fill="#dbebeb"><use href="#AW"/><use href="#AX"/><path d="M103.973 75.444h9.135V84.6h-9.135zm21.315 6.104h9.135v9.156h-9.135zm21.315-6.104h9.135V84.6h-9.135zm21.314 6.104h9.135v9.156h-9.135zm24.36-6.104h9.135V84.6h-9.135zm-6.09-21.363h9.135v9.156h-9.135zm6.09-21.363h9.135v9.156h-9.135zm-6.09-21.364h9.135v9.156h-9.135zm27.404-15.259h9.135v9.156h-9.135zm42.63 0h9.135v9.156h-9.135zm42.629 0h9.135v9.156h-9.135z"/></g><path d="M292.76-122.928H117.371c-12.453,0-22.532,10.114-22.532,22.587V57.133h73.079V-25.268h124.843v-97.66Z" class="B H"/><path d="M107.018 26.614h48.719v18.311h-48.719z" fill="#538b9c"/><path d="M107.018 26.614h48.719v6.104h-48.719z" fill="#286474"/><g class="B"><path d="M292.76-122.928H94.838V17.458h73.079v-82.401H292.76v-57.985z" class="L"/><path d="M94.838 203.623H292.76V23.562h-73.079v82.401H94.838v97.66z" class="H"/><path d="M94.838 163.948H292.76V23.562h-73.079v82.401H94.838v57.985z" class="L"/></g><path d="M94.838 7.179h73.079v10.279H94.838z" fill="#009b51"/><g class="B"><path d="M883.981 104.861c-.13 1.13-.916 2.039-1.969 2.278s-2.151-.242-2.752-1.206l-.865-1.389c-.419-.672-1.091-1.125-1.841-1.239l-1.548-.235c-1.075-.163-1.955-1.013-2.205-2.129s.181-2.263 1.081-2.875l1.297-.881c.628-.427 1.042-1.126 1.133-1.914l.188-1.628c.13-1.13.916-2.039 1.969-2.278s2.151.242 2.752 1.206l.865 1.389c.419.672 1.092 1.125 1.841 1.239l1.548.235c1.075.163 1.955 1.013 2.206 2.129s-.181 2.263-1.081 2.875l-1.297.881c-.628.427-1.042 1.126-1.133 1.914l-.188 1.628z" fill="#eda716"/><g fill="#ff6d18"><path d="M892.758 87.86c.09.669-.224 1.316-.785 1.623s-1.254.208-1.733-.248l-1.066-1.013c-.335-.318-.781-.469-1.222-.414l-1.404.177c-.632.08-1.254-.266-1.558-.865s-.226-1.327.196-1.823l.936-1.101c.294-.346.427-.813.364-1.28l-.2-1.485c-.09-.669.223-1.316.785-1.623s1.254-.208 1.733.248l1.066 1.013c.335.318.781.469 1.222.414l1.404-.177c.632-.08 1.254.266 1.558.865s.226 1.327-.196 1.823l-.936 1.101c-.294.346-.427.813-.364 1.28l.2 1.485zm-24.457 7.507c.077.576-.192 1.134-.676 1.398s-1.08.179-1.493-.214l-.918-.872c-.288-.274-.673-.404-1.053-.356l-1.21.152c-.545.069-1.08-.229-1.341-.745s-.194-1.143.169-1.57l.806-.948c.253-.298.368-.7.314-1.102l-.172-1.279c-.077-.576.192-1.134.677-1.398s1.08-.179 1.493.214l.918.872c.288.274.673.404 1.053.356l1.21-.152c.545-.068 1.08.229 1.341.745s.194 1.143-.169 1.57l-.806.948c-.253.298-.368.7-.314 1.102l.172 1.279z"/></g><path d="M485.468-2.334c0-2.56 2.065-4.634 4.623-4.634s4.624 2.075 4.624 4.634c0-2.56 2.065-4.634 4.624-4.634s4.623 2.075 4.623 4.634c0-2.56 2.065-4.634 4.624-4.634s4.624 2.075 4.624 4.634c0-2.56 2.065-4.634 4.623-4.634s4.624 2.075 4.624 4.634c0-2.56 2.065-4.634 4.624-4.634s4.624 2.075 4.624 4.634c0-2.56 2.065-4.634 4.623-4.634s4.624 2.075 4.624 4.634c0-2.56 2.065-4.634 4.624-4.634s4.623 2.075 4.623 4.634v4.626h-9.247-9.247-9.247-9.247-9.247-9.247-9.247v-4.626z" fill="#bfd452"/></g><path d="M631.917 138.595H559.27V-45.16h72.647z" class="U"/><g class="V"><path d="M631.916 138.594h-43.424V15.206h43.424z"/><path style="mix-blend-mode:multiply" d="M631.916 87.924l-43.423-65.158v-7.559h43.423v72.717z" opacity=".3"/><path style="mix-blend-mode:multiply" d="M631.916 22.765h-43.424v-7.559h43.424z" opacity=".3"/></g><circle cx="564.24" cy="49.933" r="4.094" class="U"/><g clip-path="url(#P)"><path d="M485.468 138.595V1.982h64.631l82.794 136.613H485.468z" fill="#f3dc4a"/><g class="H"><path d="M493.868 55.218l3.993 2.84a2.14 2.14 0 0 0 1.657.355l4.804-.956a2.14 2.14 0 0 1 2.458 2.737l-1.467 4.673a2.14 2.14 0 0 0 .175 1.686l2.395 4.274a2.14 2.14 0 0 1-1.844 3.183l-4.899.049c-.589.006-1.149.254-1.549.687l-3.324 3.598a2.14 2.14 0 0 1-3.597-.77l-1.56-4.644a2.14 2.14 0 0 0-1.132-1.261l-4.449-2.049a2.14 2.14 0 0 1-.379-3.659l3.934-2.919c.473-.351.78-.881.849-1.466l.575-4.865a2.14 2.14 0 0 1 3.363-1.492z" class="B"/><circle cx="530.545" cy="122.084" r="4.094"/><circle cx="517.249" cy="61.83" r="4.094"/></g><g class="U"><circle cx="536.851" cy="93.437" r="16.27"/><circle cx="489.236" cy="7.065" r="16.27"/></g><path style="mix-blend-mode:multiply" d="M572.283 11.05h-95.527V-1.228h95.527z" fill="#f3dc4a"/><path d="M632.892 138.594h-93.729V59.782h93.729z" class="Z"/><use href="#AY" class="U"/><g fill="#c99b42"><path d="M653.874 48.579h-93.729V20.338h93.729z"/><path d="M600.327 27.914h-93.729v-7.576h93.729z"/></g><path d="M632.892 71.727h-93.729V59.783h93.729z" class="V"/><path d="M516.049 138.595h-30.581V91.357h30.581z" class="Z"/><path d="M516.049 115.591l-30.581-18.593v-5.641h30.581v24.234z" class="V"/><path d="M516.049 96.997h-30.581v-5.682h30.581z" fill="#6a8ac3"/></g><path d="M647.688 138.595H516.751" stroke="#00b365" class="C O Q W b"/><path d="M523.656 34.524h59.876L566.38 20.339h-59.876l17.152 14.185z" class="Z"/><path d="M566.38 48.709h-59.876l17.152-14.185h59.876L566.38 48.709z" class="V"/><g stroke="#e2deea" stroke-width="1.603" class="C O P"><path d="M506.504 48.709h60.695m-60.695-28.37h60.695"/></g><path d="M467.204 125.399l3.081.066.848 9.998h-3.075l-.854-10.064z" class="B K"/><g clip-path="url(#Q)"><path d="M466.874 128.248h4.648v1.161h-4.648z" fill="#5eb2a2"/><g class="B"><use href="#AZ" class="J"/><path d="M471.464 131.483h-4.59l.021-1.037h4.589l-.02 1.037z" fill="#ede0cb"/><path d="M471.192 132.52h-4.318l.021-1.037h4.318l-.021 1.037z" class="J"/><path d="M471.403 132.504h-4.036l-.083 3.153h4.036l.083-3.153z" class="N"/></g></g><g class="B"><path d="M473.006 135.213c0-1.282-1.029-2.322-2.299-2.322a2.31 2.31 0 0 0-2.299 2.322h4.599z" fill="#3f405a"/><path d="M473.006 135.213h-4.948l.05 1.548h4.898v-1.548z" fill="#303246"/><path d="M473.511,136.634c0-.497-.399-.901-.892-.901h-13.378c-.493,0-.892.404-.892.901s.399.901.892.901h13.378c.493,0,.892-.404.892-.901Z" opacity=".199"/><g class="N"><path d="M447.535 105.683c0-2.259 1.373-4.287 3.459-5.106l.557-.219c1.207-.474 2.165-1.433 2.647-2.647l.911-2.298c.846-2.136 2.895-3.537 5.174-3.537h11.073c2.279 0 4.327 1.401 5.174 3.537l.91 2.298c.481 1.214 1.439 2.173 2.647 2.647l.557.219c2.085.819 3.458 2.847 3.458 5.106h0c0 3.06-2.456 5.54-5.486 5.54h-25.594c-3.03 0-5.486-2.48-5.486-5.54h0z"/><path d="M462.861 110.883l-2.307-.907v2.795h.462c.494 0 .966-.2 1.313-.555a1.88 1.88 0 0 0 .532-1.333h0zm5.699 0l2.307-.907v2.795h-.463c-.493 0-.966-.2-1.312-.555a1.88 1.88 0 0 1-.532-1.333h0zm-8.03 0l-2.306-.907v2.795h.462c.494 0 .967-.2 1.313-.555s.538-.835.531-1.333h0z"/><use href="#Aa"/><use href="#Ab"/><path d="M473.222 110.883l2.307-.907v2.795h-.462c-.494 0-.967-.2-1.313-.555a1.88 1.88 0 0 1-.532-1.333h0zm-17.354 0l-2.306-.907v2.795h.462c.494 0 .966-.2 1.313-.555a1.87 1.87 0 0 0 .531-1.333h0zm19.685 0l2.307-.907v2.795h-.462c-.494 0-.966-.2-1.313-.555a1.88 1.88 0 0 1-.532-1.333h0zm-19.321-15.775s-1.059-4.447-2.23-5.629a2.35 2.35 0 0 0-3.345 0c-.924.932-.924 2.445 0 3.377 1.17 1.182 5.574 2.252 5.574 2.252zm18.943.014s1.062-4.457 2.235-5.642c.925-.934 2.427-.934 3.352 0s.925 2.451 0 3.385c-1.173 1.185-5.587 2.257-5.587 2.257z"/></g><g class="K"><path d="M461.693 123.763c-.059-.415-.287-.786-.629-1.022l-.347-.24a2 2 0 0 0-2.735.439 2.36 2.36 0 0 0-.46 1.761 2.35 2.35 0 0 0 .925 1.56l.523.387c.177.131.418.133.597.003l.685-.496.382.233c.095.058.218.033.283-.057l.497-.685c.293-.404.418-.907.347-1.403l-.068-.482z"/><path d="M459.49 123.99a.92.92 0 0 1 1.292-.221c.417.299.515.884.219 1.305l-1.087 1.545a.92.92 0 0 1-1.292.221.94.94 0 0 1-.219-1.305l1.087-1.545zm3.718-9.907l-1.906-.344-2.218 8.977 2.541.673 1.583-9.306z"/></g><path d="M463.495 112.77l-1.274.004c-.684.002-1.278.476-1.438 1.147l-.909 3.81 3.621.572v-5.533z" class="J"/></g><g clip-path="url(#R)" class="B"><path d="M460.228,114.051c.778,0,1.41.638,1.41,1.424s-.632,1.424-1.41,1.424-1.41-.638-1.41-1.424.632-1.424,1.41-1.424Z" fill="#ea9e40"/></g><g class="B"><g class="K"><path d="M469.729 123.763c.058-.415.287-.786.629-1.022l.347-.24c.882-.61 2.083-.417 2.735.439.382.502.547 1.136.459 1.761s-.422 1.187-.925 1.56l-.523.387c-.178.131-.418.133-.598.003l-.685-.496-.382.233c-.094.058-.217.033-.282-.057l-.497-.685a1.93 1.93 0 0 1-.347-1.403l.069-.482z"/><path d="M471.932 123.99c-.297-.421-.875-.52-1.293-.221a.94.94 0 0 0-.218 1.305l1.086 1.545c.297.421.875.52 1.293.221a.94.94 0 0 0 .218-1.305l-1.086-1.545zm-3.719-9.907l1.906-.344 2.218 8.977-2.541.673-1.583-9.306z"/></g><path d="M467.927 112.77l1.273.004c.684.002 1.278.476 1.438 1.147l.909 3.81-3.62.572v-5.533z" class="J"/></g><g clip-path="url(#S)" class="B"><path d="M471.194,114.051c-.779,0-1.41.638-1.41,1.424s.632,1.424,1.41,1.424,1.409-.638,1.409-1.424-.632-1.424-1.409-1.424Z" fill="#ea9e40"/></g><path d="M463.912 111.223h4.036v1.548h-4.036z" class="a"/><path d="M464.656 125.399l-3.08.066-.848 9.998h3.075l.853-10.064z" class="B K"/><g clip-path="url(#T)"><path d="M460.338 128.248h4.648v1.161h-4.648z" fill="#5eb2a2"/><g class="B"><use href="#Ac" class="J"/><path d="M460.397 131.483h4.59l-.021-1.037h-4.59l.021 1.037z" fill="#ede0cb"/><path d="M460.668 132.52h4.319l-.021-1.037h-4.318l.02 1.037z" class="J"/><path d="M460.458 132.504h4.036l.083 3.153h-4.036l-.083-3.153z" class="N"/></g></g><g class="B"><path d="M458.855,135.213c0-1.282,1.029-2.322,2.299-2.322s2.299,1.039,2.299,2.322h-4.599Z" fill="#3f405a"/><path d="M458.855 135.213h4.948l-.05 1.548h-4.898v-1.548z" fill="#303246"/><path d="M469.437 112.77h-7.013l-1.692 13.523h4.814l.192-2.62h.384l.193 2.62h4.814l-1.692-13.523z" fill="#29346d"/></g><g clip-path="url(#U)"><g class="B"><path d="M461.298 122.316l.506.864.971.22-.657.753.092 1-.912-.398-.913.398.092-1-.656-.753.97-.22.507-.864z" fill="#fbef74"/><g class="H"><path d="M468.395 124.078c.294 0 .532.241.532.537s-.238.537-.532.537-.532-.241-.532-.537.238-.537.532-.537zm2.202-1.229c.294 0 .532.241.532.537s-.238.537-.532.537-.532-.241-.532-.537.238-.537.532-.537z"/></g><g fill="#1f2852"><path d="M463.986 119.735h-2.965v1.941h1.33a1.63 1.63 0 0 0 1.157-.484 1.66 1.66 0 0 0 .479-1.168v-.289zm6.898 0h-2.965v.289a1.66 1.66 0 0 0 .479 1.168 1.63 1.63 0 0 0 1.157.484h1.33v-1.941z"/></g></g><path d="M460.534 119.735H471v.774h-10.466z" fill="#1f2852"/><ellipse cx="466.595" cy="118.108" rx="1.41" ry="1.424" class="J"/><path d="M463.43 111.399h2.266a.35.35 0 0 1 .35.35v.7a.35.35 0 0 1-.35.35h-2.269c-.192 0-.347-.156-.347-.347v-.703a.35.35 0 0 1 .35-.35z" fill="#336869"/><g class="B"><path d="M465.456,112.099c0-.118-.096-.215-.213-.215h-1.36c-.117,0-.213.096-.213.215s.096.215.213.215h1.36c.117,0,.213-.096.213-.215Z" fill="#2a5657"/><path d="M467.976 116.64l.382.651.731.165-.495.568.07.753-.688-.299-.688.299.07-.753-.494-.568.731-.165.381-.651z" fill="#fbef74"/><path d="M464.209 113.319l.598 1.019 1.145.26-.775.889.109 1.18-1.077-.469-1.077.469.109-1.18-.775-.889 1.145-.26.598-1.019z" fill="#b0427a"/><path d="M467.474,114.318c.275,0,.499.226.499.504s-.224.504-.499.504-.5-.226-.5-.504.224-.504.5-.504Z" class="H"/><path d="M463.677,110.082c.185,0,.336.152.336.34s-.151.34-.336.34-.336-.152-.336-.34.151-.34.336-.34Z" class="J"/></g><circle cx="468.441" cy="111.85" r=".336" class="H"/></g><g class="K"><path d="M475.894,102.691c0-1.698-1.36-3.077-3.037-3.077h-13.854c-1.676,0-3.037,1.379-3.037,3.077v6.228c0,1.698,1.361,3.077,3.037,3.077h13.854c1.676,0,3.037-1.379,3.037-3.077v-6.228Z" class="B"/><ellipse cx="477.247" cy="105.418" rx="2.683" ry="2.709"/></g><ellipse cx="477.247" cy="105.418" rx=".898" ry=".907" class="a"/><ellipse cx="454.614" cy="105.418" rx="2.683" ry="2.709" class="K"/><g class="B a"><path d="M454.614 104.511c.496 0 .898.406.898.907s-.402.907-.898.907-.898-.406-.898-.907.402-.907.898-.907zm13.232 4.777c0 1.069-.858 1.935-1.916 1.935s-1.916-.866-1.916-1.935h3.832z"/></g><path d="M459.164 98.84h13.38v4.643h-13.38z" class="N"/><g class="B"><path d="M465.947 103.722l-1.208 1.046-1.209-1.046 1.209-2.614 1.208 2.614z" class="K"/><use href="#Ad" class="H"/><use href="#Ae" class="N"/><path d="M473.592,104.654c0-.646-.519-1.17-1.159-1.17h-2.276c-.64,0-1.159.524-1.159,1.17v3.851c0,.646.519,1.17,1.159,1.17h2.276c.64,0,1.159-.524,1.159-1.17v-3.851Z" class="H"/><path d="M472.644 105.08a.58.58 0 0 0-.575-.58h-1.548a.58.58 0 0 0-.575.58v2.999a.58.58 0 0 0 .575.58h1.548a.58.58 0 0 0 .575-.58v-2.999z" class="N"/></g><path d="M493.733 195.529v34.605l166.779-61.754v-32.83l-166.779 59.979z" fill="#25aec0"/><path d="M637.682 142.583v40.259" stroke="#5ed7ef" stroke-miterlimit="1.415" stroke-width="4.73" class="C"/><path d="M493.733 201.581c-1.922 0-3.729-1.185-4.433-3.098a4.74 4.74 0 0 1 2.798-6.081l166.779-61.64c2.445-.903 5.165.349 6.069 2.805a4.74 4.74 0 0 1-2.798 6.081l-166.779 61.64c-.54.199-1.091.293-1.635.293z" fill="#f0f2f2"/></g></svg>