<svg xmlns="http://www.w3.org/2000/svg" width="1500" height="145" xmlns:v="https://vecta.io/nano"><style><![CDATA[.B{opacity:.6}.C{fill:#ffac38}.D{fill:#00bcbc}.E{fill:#72709c}.F{fill-rule:evenodd}]]></style><defs><clipPath id="A"><path d="M0 0h1500v145H0z" fill="none"/></clipPath></defs><g clip-path="url(#A)"><path d="M-3.045-181.043h1609.796v344.292H-3.045z" fill="#ffed8b"/><path d="M1584.986-178.469H860.188c-50.983 0-92.313 41.33-92.313 92.313v2.873c0 50.983-41.33 92.313-92.313 92.313H-24.294l-163.262 184.627c-50.983 0-92.313-41.33-92.313-92.313v-2736.193c0-50.983 41.33-92.313 92.313-92.313h1690.308c57.247 0 100.691 51.567 90.974 107.983l-8.739 2440.709z" fill="#00b365" stroke="#00b365" stroke-dasharray="0 10" stroke-linecap="round" stroke-linejoin="round" stroke-width="10"/><path d="M860.188-122.494c-26.13 0-47.313 21.183-47.313 47.313v2.873c0 75.836-61.477 137.313-137.313 137.313H-12.689c-26.088 0-46.914 21.276-46.923 47.364V159.2h1628.727v-281.694H860.188z" fill="#4eeae6"/><g class="B C"><ellipse cx="532.568" cy="41.142" rx="1.966" ry="1.97"/></g><g class="B C"><ellipse cx="524.88" cy="40.409" rx="1.966" ry="1.97"/></g><g class="B C"><ellipse cx="527.728" cy="34.823" rx="1.966" ry="1.97"/></g><path d="M1511.558 59.938h-481.226a134.54 134.54 0 0 0-79.662 26.12h0c-23.094 16.969-51.003 26.12-79.662 26.12H-16.533v42.792h1528.091V59.938z" fill="#04d5d8" class="F"/><g class="B C"><ellipse cx="264.59" cy="37.305" rx="1.966" ry="1.97"/></g><g class="B C"><ellipse cx="272.278" cy="38.038" rx="1.966" ry="1.97"/></g><g class="B C"><ellipse cx="269.43" cy="43.624" rx="1.966" ry="1.97"/></g><g class="B C"><ellipse cx="212.381" cy="46.204" rx="1.966" ry="1.97"/></g><g class="B C"><ellipse cx="311.071" cy="47.473" rx="1.966" ry="1.97"/></g><g class="B C"><ellipse cx="284.747" cy="30.475" rx="1.966" ry="1.97"/></g><g class="B C"><ellipse cx="64.339" cy="47.991" rx="1.966" ry="1.97"/></g><g class="B C"><ellipse cx="72.027" cy="48.723" rx="1.966" ry="1.97"/></g><g class="B C"><ellipse cx="69.179" cy="54.309" rx="1.966" ry="1.97"/></g><g class="B C"><ellipse cx="84.496" cy="41.16" rx="1.966" ry="1.97"/></g><rect x="1214.065" y="82.405" width="20.877" height="9.489" rx="4.745" class="D"/><path d="M1221.014-.358h6.98V87.15h-6.98z" class="E"/><path d="M1213.723-32.691c-1.161-1.969-3.637-2.725-5.695-1.737s-3.006 3.389-2.185 5.522l10.327 26.763-14.118 24.905a4.39 4.39 0 0 0 7.238 4.932l18.014-22.25 28.686-.179c2.285-.016 4.172-1.777 4.34-4.053s-1.443-4.304-3.699-4.664l-28.341-4.513-14.568-24.726z" fill="#fff" class="F"/><rect x="1269.907" y="41.859" width="20.877" height="9.489" rx="4.745" class="D"/><path d="M1276.855-40.905h6.98v87.508h-6.98z" class="E"/><rect x="1160.957" y="27.006" width="20.877" height="9.489" rx="4.745" class="D"/><path d="M1167.905-55.758h6.98V31.75h-6.98z" class="E"/></g></svg>