<svg xmlns="http://www.w3.org/2000/svg" width="1500" height="145" xmlns:v="https://vecta.io/nano"><style><![CDATA[.B{fill-rule:evenodd}.C{stroke-dasharray:0 10}.D{stroke-linecap:round}.E{stroke-linejoin:round}.F{stroke-width:10}]]></style><defs><clipPath id="A"><path d="M0 0h1500v145H0z" fill="none"/></clipPath><clipPath id="B"><path d="M990.828-60.967h-69.023V3.864c0 .645.256 1.263.71 1.719s1.074.714 1.717.714h64.167a2.42 2.42 0 0 0 1.717-.714c.455-.456.711-1.074.711-1.719v-64.831z" clip-rule="evenodd" fill="none"/></clipPath><path id="C" d="M936.08 41.79a5 5 0 1 0 0 10c2.761 0 5-2.23 5-5a4.99 4.99 0 0 0-5-5z"/><path id="D" d="M946.08 41.79a5 5 0 1 0 0 10c2.761 0 5-2.23 5-5s-2.24-5-5-5z"/><path id="E" d="M377.1,85.687c-.87,0-1.575-.706-1.575-1.579v-3.295c0-.873.705-1.579,1.575-1.579s1.575.706,1.575,1.579v3.295c0,.873-.705,1.579-1.575,1.579Z"/><path id="F" d="M394.846 98.736c-.87 0-1.575-.706-1.575-1.579V93.86c0-.873.705-1.579 1.575-1.579s1.575.706 1.575 1.579v3.297c0 .873-.705 1.579-1.575 1.579z"/><path id="G" d="M400.943,71.404c-.87,0-1.575-.706-1.575-1.579v-3.297c0-.873.705-1.579,1.575-1.579s1.575.706,1.575,1.579v3.297c0,.873-.705,1.579-1.575,1.579Z"/><path id="H" d="M927.849 3.991h4.043v16.974h-4.043z"/><path id="I" d="M927.849 3.991h4.043v3.865h-4.043z"/><path id="J" d="M970.527-12.015h12.181V.193h-12.181z"/><path id="K" d="M1303.294 35.794a3.12 3.12 0 0 1 .91-2.203c.585-.586 1.375-.915 2.2-.915s1.615.328 2.2.915.91 1.376.91 2.203v2.078a5.19 5.19 0 0 1-5.184 5.196h-1.037v-7.275z"/><path id="L" d="M1290.851 31.637a3.12 3.12 0 0 1 .91-2.203c.585-.586 1.375-.915 2.2-.915s1.615.328 2.2.915.91 1.376.91 2.203v11.432h-6.221V31.637z"/><path id="M" d="M1284.63 35.794a3.12 3.12 0 0 1 .91-2.203c.585-.586 1.375-.915 2.2-.915s1.615.328 2.2.915.91 1.376.91 2.203v7.275h-1.037a5.19 5.19 0 0 1-5.184-5.196v-2.078z"/><path id="N" d="M235.256 87.633a3.12 3.12 0 0 1 .91-2.203c.585-.586 1.375-.915 2.2-.915s1.615.328 2.2.915.91 1.376.91 2.203v11.432h-6.221V87.633z"/></defs><g clip-path="url(#A)"><path d="M1584.986 256.531H860.188c-50.983 0-92.313 41.33-92.313 92.313v2.873c0 50.983-41.33 92.313-92.313 92.313H-24.294l-163.262 184.627c-50.983 0-92.313-41.33-92.313-92.313v-2736.193c0-50.983 41.33-92.313 92.313-92.313h1690.308c57.247 0 100.691 51.567 90.974 107.983l-8.739 2440.709z" fill="#00b365" stroke="#00b365" class="C D E F"/><g fill="#77d629"><path d="M975.66-232.881c-2.761 0-5 2.23-5 5s2.239 4.99 5 4.99l.003.021c-2.764 0-5.003 2.24-5.003 5s2.239 5 5 5l.003.01h-.033c-2.76.02-4.98 2.27-4.96 5.04.01 2.76 2.27 4.98 5.03 4.96.048 0 .093-.013.141-.015 0 .009.001.019.002.028l-.142.007c-2.74.32-4.71 2.8-4.391 5.54.32 2.75 2.801 4.71 5.54 4.39.048-.005.091-.023.138-.03l.006.035-.143.025c-2.689.61-4.37 3.29-3.76 5.98.62 2.7 3.3 4.38 5.99 3.76.047-.011.087-.033.133-.045l.009.03c-.044.014-.089.019-.133.034-2.61.91-3.99 3.76-3.08 6.37s3.76 3.99 6.36 3.08c.048-.017.088-.045.135-.063l.011.027-.137.056c-2.49 1.19-3.54 4.17-2.36 6.66a5 5 0 0 0 6.67 2.36c.042-.02.075-.049.116-.07l.015.027-.12.064a5 5 0 0 0-1.62 6.88 5 5 0 0 0 6.88 1.62c.042-.026.074-.061.115-.088l.017.025c-.036.027-.076.045-.112.073-2.18 1.71-2.569 4.85-.859 7.02a4.99 4.99 0 0 0 7.01.86c.038-.029.064-.066.101-.096l.027.03c-.034.032-.074.053-.108.086-1.979 1.93-2.02 5.09-.09 7.07h-.01a5.01 5.01 0 0 0 7.08.09c.033-.032.055-.071.087-.104l.02.018-.097.105c-1.75 2.13-1.45 5.28.681 7.03a5 5 0 0 0 7.04-.67c.03-.036.048-.078.076-.114l.018.013-.084.111c-1.51 2.31-.87 5.41 1.439 6.93a5 5 0 0 0 6.92-1.44c.026-.04.04-.084.065-.125l.027.016c-.022.041-.05.077-.072.119a5.01 5.01 0 0 0 2.189 6.73c2.46 1.25 5.471.28 6.721-2.18.023-.045.033-.093.054-.139.008.004.017.007.026.011l-.06.128c-.97 2.59.33 5.47 2.91 6.45 2.59.98 5.47-.33 6.45-2.91.017-.045.021-.091.036-.136l.031.01c-.013.047-.035.089-.048.136-.68 2.67.931 5.4 3.601 6.08 2.68.69 5.399-.92 6.09-3.6.012-.046.01-.091.021-.137l.033.006c-.008.048-.027.092-.034.141a5 5 0 0 0 4.24 5.65 5 5 0 0 0 5.66-4.25c.007-.047 0-.092.006-.138.011 0 .022.002.033.003-.003.049-.018.095-.019.145-.09 2.76 2.07 5.07 4.83 5.16s5.07-2.08 5.16-4.84c.001-.038-.008-.073-.007-.111h.028c0 2.761 2.239 5.001 5 5.001s5-2.24 5-5l.01-.001c0 2.761 2.24 5.001 5 5.001s5-2.24 5-5l.02-.001c0 2.761 2.24 5.001 5 5.001s5-2.24 5-5l.011-.001c0 2.761 2.239 5.001 5 5.001s5-2.24 5-5l.01-.001c0 2.761 2.24 5.001 5 5.001 2.749 0 4.961-2.208 4.994-4.94l.027.001c-.158 2.691 1.836 5.043 4.538 5.279 2.701.246 5.082-1.723 5.393-4.398l.033.005c-.449 2.658 1.283 5.213 3.934 5.743 2.664.531 5.248-1.157 5.849-3.788l.033.009c-.751 2.592.691 5.323 3.278 6.149 2.584.816 5.331-.577 6.224-3.12l.03.011c-1.019 2.498.102 5.359 2.586 6.459a4.99 4.99 0 0 0 6.529-2.417l.024.012c-1.293 2.371-.482 5.348 1.867 6.715a4.99 4.99 0 0 0 6.748-1.687l.029.019c-1.538 2.211-1.068 5.256 1.113 6.867 2.184 1.623 5.248 1.186 6.909-.94l.021.018a4.99 4.99 0 0 0 .36 6.953c1.994 1.846 5.081 1.743 6.962-.184l.029.03c-1.987 1.824-2.169 4.902-.391 6.945 1.779 2.054 4.857 2.281 6.937.569l.025.032a4.99 4.99 0 0 0-1.143 6.868c1.544 2.222 4.582 2.789 6.831 1.316l.021.034c-2.335 1.356-3.188 4.312-1.882 6.7 1.296 2.377 4.239 3.275 6.646 2.056l.015.033c-2.467 1.096-3.632 3.947-2.611 6.461 1.031 2.503 3.862 3.712 6.388 2.772l.011.031c-2.566.815-4.046 3.524-3.299 6.128a4.99 4.99 0 0 0 6.041 3.465l.007.031a4.99 4.99 0 0 0-3.958 5.723c.453 2.681 2.959 4.481 5.625 4.11l.004.033c-2.687.234-4.715 2.556-4.558 5.257a5 5 0 0 0 5.15 4.694c-2.755.022-4.99 2.259-4.99 5.016 0 2.77 2.24 5 5 5 .046 0 .088-.012.133-.013 0 .009.001.019.002.028l-.135.005a5 5 0 0 0-4.43 5.51c.29 2.75 2.76 4.73 5.51 4.44.047-.005.09-.023.137-.029l.004.026-.141.023c-2.7.59-4.4 3.26-3.8 5.96.59 2.69 3.26 4.4 5.96 3.8.046-.01.087-.032.132-.043l.008.028-.14.035a5 5 0 0 0-3.12 6.34c.89 2.62 3.729 4.02 6.34 3.13.048-.016.088-.044.135-.061l.011.027-.136.054c-2.5 1.17-3.58 4.15-2.41 6.65 1.181 2.5 4.15 3.58 6.65 2.4.044-.021.079-.051.122-.073l.014.027-.127.066c-2.359 1.44-3.1 4.51-1.66 6.87 1.431 2.36 4.511 3.11 6.87 1.67.041-.025.073-.06.113-.086l.014.021c-.038.028-.079.046-.116.075-2.19 1.69-2.601 4.83-.91 7.02 1.689 2.18 4.83 2.59 7.01.9.037-.029.064-.065.101-.095l.026.031c-.034.031-.073.052-.107.084-2 1.91-2.06 5.08-.149 7.07 1.92 1.99 5.08 2.05 7.07.14.035-.034.059-.074.093-.109l.025.023-.099.106a5 5 0 0 0 .63 7.04 5 5 0 0 0 7.04-.63c.029-.035.047-.074.074-.109l.028.021-.082.108c-1.53 2.29-.91 5.4 1.38 6.93 2.3 1.53 5.41.91 6.939-1.39.026-.039.04-.083.065-.123l.031.018-.076.124c-1.271 2.45-.32 5.46 2.13 6.74a5 5 0 0 0 6.74-2.14c.022-.042.031-.087.052-.13l.037.016-.059.124c-1 2.58.28 5.47 2.86 6.46v.01a5.01 5.01 0 0 0 6.47-2.87c.017-.045.021-.091.037-.136l.031.01-.048.136c-.71 2.67.89 5.41 3.56 6.11a5 5 0 0 0 6.11-3.56c.012-.044.011-.088.021-.133l.032.007c-.008.047-.026.089-.033.136-.41 2.73 1.47 5.27 4.2 5.68 2.74.41 5.28-1.47 5.69-4.2.007-.049.001-.097.007-.146l.033.003c-.003.049-.018.094-.02.143-.11 2.76 2.04 5.08 4.79 5.19a5 5 0 0 0 5.2-4.8c.002-.042-.008-.081-.007-.122h.017c0 2.762 2.24 5.002 5 5.002s5-2.24 5-5l.02-.002c0 2.762 2.24 5.002 5 5.002s5-2.24 5-5l.011-.002c0 2.762 2.24 5.002 5 5.002s5-2.24 5-5l.02-.002c0 2.762 2.23 5.002 5 5.002 2.76 0 5-2.24 5-5l.01-.002c0 2.762 2.24 5.002 5 5.002s5-2.24 5-5l.011-.002c0 2.762 2.24 5.002 5 5.002 2.77 0 5-2.24 5-5l.02-.002c0 2.762 2.24 5.002 5 5.002s5-2.24 5-5l.01-.002c0 2.762 2.24 5.002 5 5.002s5-2.24 5-5l.01-.002c0 2.762 2.24 5.002 5 5.002 2.77 0 5-2.24 5-5l.02-.002c0 2.762 2.24 5.002 5 5.002s5-2.24 5-5l.011-.002c0 2.762 2.24 5.002 5 5.002s5-2.24 5-5l.03-.002a4.99 4.99 0 0 0 9.78 1.482c-.3 2.26.98 4.51 3.2 5.35a5.02 5.02 0 0 0 5.94-1.94 5 5 0 0 0 1.49 6.06c1.9 1.46 4.5 1.34 6.26-.13-1.53 1.71-1.73 4.31-.33 6.25 1.39 1.94 3.91 2.58 6.01 1.69-1.95 1.19-2.9 3.61-2.13 5.87a4.99 4.99 0 0 0 5.24 3.37 4.99 4.99 0 0 0-3.74 4.99h-.01c.09 2.77 2.39 4.94 5.15 4.85h.107l-.367.079a5.01 5.01 0 0 0-3.52 6.14 5 5 0 0 0 6.13 3.52l.36-.117-.331.197a5 5 0 0 0-1.57 6.89c1.47 2.34 4.56 3.04 6.9 1.57l.31-.21c-.09.08-.17.18-.26.27-1.81 2.09-1.59 5.25.5 7.06 2.08 1.81 5.24 1.59 7.05-.5l.24-.288a2.74 2.74 0 0 0-.17.338c-1.13 2.52 0 5.48 2.52 6.61 2.53 1.12 5.48-.01 6.61-2.53l.14-.35-.06.37c-.34 2.74 1.61 5.24 4.35 5.58s5.24-1.61 5.57-4.35c.015-.121.002-.238.008-.358h.042c.002 2.759 2.231 4.997 5 4.997 2.759 0 4.988-2.238 4.989-4.997h.021c.002 2.759 2.241 4.997 5 4.997s4.998-2.238 5-4.997h.01c.002 2.759 2.241 4.997 5 4.997s4.998-2.238 5-4.997h.011c.002 2.759 2.24 4.997 5 4.997 2.769 0 4.998-2.238 5-4.997h.021c.002 2.759 2.24 4.997 5 4.997s4.998-2.238 5-4.997h.01c.002 2.759 2.241 4.997 5 4.997s4.998-2.238 5-4.997h.021c.002 2.759 2.241 4.997 5 4.997s4.998-2.238 5-4.997h.011c.002 2.759 2.24 4.997 5 4.997s4.998-2.238 5-4.997h.01c.002 2.759 2.241 4.997 5 4.997a5 5 0 0 0 4.999-4.989h.034c-.123 2.656 1.853 4.966 4.528 5.209a4.99 4.99 0 0 0 5.34-3.95c-.37 2.48 1.17 4.9 3.64 5.57a5 5 0 0 0 5.96-3.01 5.01 5.01 0 0 0 2.61 6.15 5 5 0 0 0 6.36-1.87c-1.18 2.2-.56 4.98 1.54 6.45a5.01 5.01 0 0 0 6.63-.79 5 5 0 0 0 .37 6.67c1.896 1.896 4.937 1.923 6.897.131l.028.032c-2.098 1.626-2.581 4.628-1.034 6.817a5 5 0 0 0 6.58 1.45 5.02 5.02 0 0 0-1.98 6.45c1.148 2.421 3.994 3.482 6.449 2.455l.017.044c-2.53.815-4.006 3.473-3.296 6.061.67 2.47 3.09 4 5.57 3.63a5 5 0 0 0-3.94 5.35c.253 2.684 2.561 4.65 5.217 4.519v.023a5 5 0 0 0-4.987 4.999c0 2.769 2.239 4.999 4.998 5v.02a5 5 0 0 0-4.998 5c0 2.759 2.239 4.999 4.998 5v.01c-2.759 0-4.998 2.241-4.998 5s2.239 4.999 4.998 5v.011a5 5 0 0 0-4.998 5c0 2.76 2.239 4.999 4.998 5v.02c-2.759 0-4.998 2.241-4.998 5s2.239 4.999 4.998 5v.011a5 5 0 0 0-4.998 5c0 2.759 2.239 4.999 4.998 5v.02c-2.759 0-4.998 2.23-4.998 5 0 2.759 2.239 4.999 4.998 5v.01c-2.759 0-4.998 2.241-4.998 5s2.239 4.999 4.998 5v.011a5 5 0 0 0-4.998 5c0 2.769 2.239 4.999 4.998 5v.02a5 5 0 0 0-4.998 5c0 2.759 2.239 4.999 4.998 5v.01c-2.759 0-4.998 2.241-4.998 5s2.239 4.999 4.998 5v.011a5 5 0 0 0-4.998 5c0 2.759 2.239 4.999 4.998 5v.02a5 5 0 0 0-4.998 5c0 2.759 2.239 4.999 4.998 5v.01c-.33 0-.659.03-.978.1-.32.06-.63.16-.93.28-.31.13-.6.28-.87.46-.27.19-.53.4-.76.63a4.57 4.57 0 0 0-.62.76c-.18.27-.33.56-.46.86-.12.3-.22.62-.28.93-.07.33-.1.66-.1.98a4.59 4.59 0 0 0 .1.98c.06.32.16.63.28.93.13.31.28.6.46.87a5.02 5.02 0 0 0 1.38 1.38c.27.18.56.33.87.46.3.12.61.22.93.28a5.02 5.02 0 0 0 4.51-1.36c.23-.23.44-.49.63-.76.18-.27.33-.56.46-.87.12-.3.22-.61.28-.93.06-.276.086-.561.094-.846.073 2.697 2.272 4.866 4.986 4.866a5.01 5.01 0 0 0 4.99-4.68c.16 2.61 2.33 4.68 4.99 4.68s4.82-2.07 4.99-4.68c.16 2.61 2.33 4.68 4.99 4.68s4.82-2.06 4.99-4.67a5 5 0 0 0 4.99 4.67 4.99 4.99 0 0 0 4.98-4.67c.18 2.61 2.34 4.67 4.99 4.67s4.83-2.07 4.99-4.68a5.01 5.01 0 0 0 4.99 4.68c2.65 0 4.83-2.07 4.99-4.68a5.01 5.01 0 0 0 4.99 4.68 5 5 0 0 0 4.99-4.67 5 5 0 0 0 9.98 0 5 5 0 0 0 4.99 4.67c2.65 0 4.83-2.07 4.99-4.68.16 2.61 2.33 4.68 4.99 4.68s4.83-2.07 4.99-4.68c.16 2.61 2.33 4.68 4.99 4.68a5 5 0 0 0 4.99-4.67 5 5 0 0 0 9.98 0 5 5 0 0 0 4.99 4.67 5.01 5.01 0 0 0 4.99-4.68c.16 2.61 2.33 4.68 4.99 4.68s4.82-2.07 4.99-4.68c.16 2.61 2.33 4.68 4.99 4.68s4.82-2.06 4.99-4.67a4.99 4.99 0 0 0 4.98 4.67 5 5 0 0 0 4.99-4.67 5 5 0 0 0 4.99 4.67c2.65 0 4.83-2.07 4.99-4.68a5.01 5.01 0 0 0 4.99 4.68c2.65 0 4.83-2.07 4.99-4.68a5.01 5.01 0 0 0 4.99 4.68 5 5 0 0 0 4.99-4.67 5 5 0 0 0 9.98 0 5 5 0 0 0 4.99 4.67c2.66 0 4.83-2.07 4.99-4.68.16 2.61 2.33 4.68 4.99 4.68s4.83-2.07 4.99-4.68c.16 2.61 2.33 4.68 4.99 4.68s4.82-2.06 4.99-4.67a5 5 0 0 0 9.98 0 5 5 0 0 0 4.99 4.67 5.01 5.01 0 0 0 4.99-4.68c.16 2.61 2.33 4.68 4.99 4.68a5.01 5.01 0 0 0 4.99-4.68c.16 2.61 2.33 4.68 4.99 4.68a5 5 0 0 0 4.99-4.67 4.99 4.99 0 0 0 4.98 4.67 5 5 0 0 0 4.99-4.67 5 5 0 0 0 4.99 4.67c2.65 0 4.83-2.07 4.99-4.68a5.01 5.01 0 0 0 4.99 4.68 5 5 0 0 0 4.99-4.67 5 5 0 0 0 9.98 0 5 5 0 0 0 9.98 0 5 5 0 0 0 4.99 4.67c2.65 0 4.83-2.07 4.99-4.68.16 2.61 2.33 4.68 4.99 4.68a5 5 0 0 0 4.99-4.67 5 5 0 0 0 9.98 0 5 5 0 0 0 4.99 4.67c2.65 0 4.83-2.07 4.99-4.68.16 2.61 2.33 4.68 4.99 4.68s4.82-2.06 4.99-4.67a5 5 0 0 0 9.98 0c.17 2.61 2.33 4.67 4.99 4.67s4.81-2.06 4.98-4.67a5 5 0 0 0 4.99 4.67c2.65 0 4.83-2.07 4.99-4.68a5.01 5.01 0 0 0 4.99 4.68 5 5 0 0 0 4.99-4.67 5 5 0 0 0 9.98 0 5 5 0 0 0 9.98 0 5 5 0 0 0 4.99 4.67c2.65 0 4.83-2.07 4.99-4.68.16 2.61 2.34 4.68 4.99 4.68a5 5 0 0 0 4.99-4.67 5 5 0 0 0 9.98 0 5 5 0 0 0 9.98 0 5 5 0 0 0 4.99 4.67 5.01 5.01 0 0 0 4.99-4.68c.16 2.61 2.33 4.68 4.99 4.68s4.82-2.06 4.99-4.67a5 5 0 0 0 9.98 0 4.99 4.99 0 0 0 9.97-.231c.027 1.285.554 2.535 1.46 3.441a4.57 4.57 0 0 0 .76.62c.27.18.56.33.86.46.3.12.62.22.94.28 1.62.33 3.35-.2 4.51-1.36.93-.93 1.46-2.22 1.46-3.54s-.53-2.6-1.46-3.53c-.93-.94-2.22-1.47-3.54-1.47l-.009-.031c2.759-.011 4.999-2.25 4.989-5.01s-2.25-4.99-5-4.99h-.01l-.005-.031c2.765-.01 4.995-2.25 4.985-5.01 0-2.76-2.24-4.99-4.99-4.99h-.02l-.002-.03c2.762 0 4.992-2.25 4.992-5.01-.01-2.76-2.25-4.99-5-4.99h-.018c2.769-.032 4.998-2.281 4.988-5.04a5 5 0 0 0-5-4.98h-.01l-.004-.031c2.764-.01 4.994-2.25 4.984-5.02 0-2.75-2.24-4.98-5-4.98h-.01v-.03c2.76-.01 5-2.25 4.99-5.01s-2.25-4.99-5-4.99h-.016v-.03c2.768-.013 4.996-2.251 4.986-5.01 0-2.76-2.24-4.99-4.99-4.99h-.02l-.002-.031a4.99 4.99 0 0 0 4.982-5.01c0-2.76-2.24-4.99-5-4.99h-.008v-.02a5.01 5.01 0 0 0 4.988-5.02 5 5 0 0 0-5-4.98h-.01l-.004-.031c2.764-.01 4.994-2.25 4.984-5.01 0-2.76-2.24-4.99-5-4.99h-.01v-.03c2.76-.01 5-2.25 4.99-5.01s-2.25-4.99-5-4.99h-.016v-.03a4.99 4.99 0 0 0 4.987-5.01 5 5 0 0 0-5-4.99h-.01l-.003-.021c2.763-.01 4.993-2.26 4.983-5.02 0-2.75-2.24-4.98-5-4.98h-.009v-.03c2.759-.011 4.999-2.25 4.989-5.02a5 5 0 0 0-5-4.98h-.01l-.005-.031c2.767-.013 4.995-2.251 4.985-5.009 0-2.76-2.24-4.99-5-4.99h-.01v-.03a5.01 5.01 0 0 0 4.99-5.01c-.01-2.76-2.25-4.99-5-4.99h-.017v-.031a5 5 0 0 0 4.987-5.009c-.01-2.76-2.25-4.99-5-4.99h-.01l-.003-.021c2.763-.01 4.993-2.26 4.983-5.02a4.99 4.99 0 0 0-4.99-4.98h-.019v-.03c2.76-.011 4.999-2.25 4.989-5.01s-2.25-4.99-5-4.99h-.01l-.005-.031c2.765-.01 4.995-2.25 4.985-5.01a5 5 0 0 0-5-4.99h-.01l-.001-.03a5.01 5.01 0 0 0 4.991-5.01c-.01-2.76-2.25-4.99-5-4.99h-.017v-.031c2.759-.001 4.998-2.25 4.988-5.01a4.99 4.99 0 0 0-5-4.98h-.01l-.004-.031c2.764-.01 4.994-2.25 4.984-5.02a4.99 4.99 0 0 0-4.99-4.98h-.02v-.03a5.01 5.01 0 0 0 4.99-5.01c-.01-2.76-2.25-4.99-5-4.99h-.01l-.006-.031a4.99 4.99 0 0 0 4.986-5.01 5 5 0 0 0-5-4.99h-.01l-.002-.031c2.762 0 4.992-2.25 4.992-5.01-.01-2.76-2.25-4.99-5-4.99h-.018c2.759-.031 4.998-2.28 4.988-5.04a5 5 0 0 0-5-4.98h-.01l-.004-.031c2.764-.01 4.994-2.25 4.984-5.01 0-2.76-2.24-4.99-4.99-4.99h-.02v-.03a5.01 5.01 0 0 0 4.99-5.01c-.01-2.76-2.25-4.99-5-4.99h-.016v-.03c2.768-.012 4.996-2.251 4.986-5.01a5 5 0 0 0-5-4.99h-.01l-.002-.031c2.762 0 4.992-2.25 4.992-5.01-.01-2.76-2.25-4.99-5-4.99h-.019v-.02c2.759-.011 4.999-2.25 4.989-5.02a5 5 0 0 0-5-4.98h-.01l-.005-.031c2.765-.01 4.995-2.25 4.985-5.01 0-2.76-2.24-4.99-5-4.99h-.01v-.03a5.01 5.01 0 0 0 4.99-5.01c-.01-2.76-2.25-4.99-5-4.99h-.017v-.031a4.99 4.99 0 0 0 4.987-5.009 5 5 0 0 0-5-4.99h-.01l-.003-.021c2.763-.01 4.993-2.25 4.983-5.02 0-2.75-2.24-4.98-5-4.98h-.009v-.03c2.759-.011 4.999-2.25 4.989-5.02a5 5 0 0 0-5-4.98h-.015v-.031c2.768-.012 4.995-2.251 4.985-5.009 0-2.76-2.24-4.99-5-4.99h-.01l-.001-.03c2.761 0 4.991-2.25 4.991-5.01-.01-2.76-2.25-4.99-5-4.99h-.018v-.031a4.99 4.99 0 0 0 4.987-5.01c-.01-2.76-2.25-4.99-5-4.99h-.01l-.004-.02c2.764-.01 4.994-2.26 4.984-5.02 0-2.75-2.24-4.98-5-4.98h-.01v-.03c2.76-.01 5-2.25 4.99-5.01a5 5 0 0 0-5-4.99h-.016v-.03c2.768-.013 4.996-2.251 4.986-5.01a5 5 0 0 0-5-4.99h-.01l-.002-.031a4.99 4.99 0 0 0 4.982-5.01c0-2.76-2.24-4.99-4.99-4.99h-.018v-.02c2.759-.011 4.998-2.25 4.988-5.02-.01-2.75-2.25-4.98-5-4.98h-.01l-.004-.031c2.764-.01 4.994-2.25 4.984-5.02a4.99 4.99 0 0 0-4.99-4.98h-.02v-.03a5.01 5.01 0 0 0 4.99-5.01c-.01-2.76-2.25-4.99-5-4.99h-.016v-.03a4.99 4.99 0 0 0 4.986-5.01 5 5 0 0 0-5-4.99h-.01l-.003-.031a4.99 4.99 0 0 0 4.983-5.01c0-2.76-2.24-4.99-5-4.99h-.009v-.02c2.759-.011 4.998-2.261 4.989-5.02-.01-2.75-2.25-4.98-5-4.98h-.01l-.005-.031c2.765-.01 4.995-2.25 4.985-5.01 0-2.76-2.24-4.99-5-4.99h-.01v-.03a5.01 5.01 0 0 0 4.99-5.01 5.01 5.01 0 0 0-5.01-4.99h-.007v-.031c2.758-.011 4.997-2.251 4.987-5.009a5 5 0 0 0-5-4.99h-.01l-.003-.03a4.99 4.99 0 0 0 4.983-5.01c0-2.76-2.24-4.98-5-4.98h-.009v-.03c2.76-.011 4.999-2.25 4.989-5.02-.01-2.75-2.25-4.98-5-4.98h-.01l-.005-.031c2.765-.01 4.995-2.25 4.985-5.01a5 5 0 0 0-5-4.99h-.01l-.001-.03a5.01 5.01 0 0 0 4.991-5.01c-.01-2.76-2.25-4.99-5-4.99h-.017v-.031c2.759-.001 4.997-2.251 4.987-5.01a5 5 0 0 0-5-4.99h-.01l-.003-.02c2.763-.01 4.993-2.26 4.983-5.02a4.99 4.99 0 0 0-4.99-4.98h-.02v-.03a5.01 5.01 0 0 0 4.99-5.02c-.01-2.75-2.25-4.98-5-4.98h-.01l-.006-.031c2.766-.01 4.996-2.25 4.986-5.01a5 5 0 0 0-5-4.99h-.01l-.002-.031a5.01 5.01 0 0 0 4.992-5.01c-.01-2.76-2.25-4.99-5-4.99h-.018v-.03c2.759-.001 4.998-2.25 4.988-5.01a5 5 0 0 0-5-4.99h-.01l-.004-.021c2.764-.01 4.994-2.26 4.984-5.02a4.99 4.99 0 0 0-4.99-4.98h-.02v-.03a5.01 5.01 0 0 0 4.99-5.01c-.01-2.76-2.25-4.99-5-4.99h-.016v-.031c2.768-.012 4.996-2.251 4.986-5.009 0-2.76-2.24-4.99-5-4.99h-.01l-.002-.03a4.99 4.99 0 0 0-.008-10h-.019v-.021a5.01 5.01 0 0 0 4.988-5.019 5 5 0 0 0-5-4.98h-.01l-.005-.03a5 5 0 0 0 4.985-5.021c0-2.75-2.24-4.979-5-4.979h-.01v-.031a5.01 5.01 0 0 0 4.99-5.01c-.01-2.761-2.25-4.99-5-4.99h-.017v-.031c2.768-.011 4.997-2.251 4.987-5.009a5 5 0 0 0-5-4.99h-.01l-.003-.031a4.99 4.99 0 0 0 4.983-5.01c0-2.76-2.24-4.99-5-4.99h-.009v-.029c2.759 0 4.999-2.25 4.989-5.011a5 5 0 0 0-5-4.979h-.015v-.031c2.768-.012 4.995-2.251 4.985-5.009 0-2.76-2.24-4.99-5-4.99h-.01l-.001-.031a5.01 5.01 0 0 0 4.991-5.01c-.01-2.76-2.25-4.99-5-4.99h-.018v-.03c2.758-.001 4.997-2.251 4.987-5.01s-2.25-4.99-5-4.99h-.01l-.004-.031a4.99 4.99 0 0 0 4.984-5.01c0-2.76-2.24-4.98-4.99-4.98h-.019v-.029c2.76-.011 5-2.25 4.99-5.02a5 5 0 0 0-5-4.979h-.016v-.031c2.768-.012 4.996-2.251 4.986-5.009s-2.24-4.99-4.99-4.99h-.02l-.002-.031c2.762-.01 4.992-2.25 4.982-5.01 0-2.76-2.24-4.99-4.99-4.99h-.018v-.03c2.759 0 4.998-2.25 4.988-5.01a5 5 0 0 0-5-4.99h-.01l-.004-.03a4.99 4.99 0 0 0-.006-9.989h-.02v-.03h0a5.01 5.01 0 0 0 4.99-5.01c-.01-2.76-2.25-4.99-5-4.99h-.01l-.006-.031c2.768-.012 4.996-2.251 4.986-5.009a5 5 0 0 0-5-4.99h-.01l-.003-.03c2.763 0 4.993-2.25 4.993-5.01a5.01 5.01 0 0 0-5.01-4.99h-.009v-.03c2.759 0 4.998-2.25 4.989-5.01a5 5 0 0 0-5-4.98h-.01l-.004-.03a5 5 0 0 0 4.984-5.021c0-2.75-2.24-4.979-5-4.979h-.01v-.03c2.76-.01 4.99-2.25 4.99-5.021-.01-2.75-2.25-4.979-5-4.979h-.017v-.031c2.758-.011 4.997-2.251 4.987-5.009a5 5 0 0 0-5-4.99h-.01l-.003-.031a5.01 5.01 0 0 0 4.993-5.01c-.01-2.76-2.25-4.99-5-4.99h-.019v-.029c2.76 0 4.989-2.25 4.989-5.011-.01-2.75-2.25-4.979-5-4.979h-.01l-.005-.031c2.765-.01 4.995-2.26 4.985-5.02-.01-2.75-2.24-4.98-4.99-4.98h-.02l-.001-.031a5.01 5.01 0 0 0 4.991-5.01c-.01-2.76-2.25-4.99-5-4.99h-.017v-.03c2.759-.011 4.997-2.251 4.987-5.009a5 5 0 0 0-5-4.99h-.01l-.003-.031a4.99 4.99 0 0 0 4.983-5.01c0-2.76-2.24-4.99-4.99-4.99h-.02v-.02a5.02 5.02 0 0 0 4.989-5.021c-.01-2.76-2.25-4.979-5-4.979h-.016v-.031a5 5 0 0 0 4.986-5.02 5 5 0 0 0-5-4.979h-.01l-.002-.031a5.01 5.01 0 0 0 4.992-5.01c-.01-2.76-2.25-4.99-5-4.99h-.018v-.03c2.759-.001 4.998-2.25 4.988-5.01a5 5 0 0 0-5-4.99h-.01l-.004-.03a4.99 4.99 0 0 0 4.984-5.011c0-2.76-2.24-4.989-5-4.989h-.01v-.021c2.76-.01 4.99-2.26 4.99-5.02-.01-2.75-2.25-4.98-5-4.98h-.016v-.031c2.768-.012 4.996-2.251 4.986-5.009a5 5 0 0 0-5-4.99h-.01l-.002-.03c2.762-.01 4.992-2.25 4.982-5.01 0-2.761-2.24-4.99-5-4.99h-.008v-.03c2.759-.01 4.999-2.25 4.988-5.01a5 5 0 0 0-5-4.99h-.01l-.005-.021c2.765-.011 4.995-2.261 4.985-5.021 0-2.76-2.24-4.979-4.99-4.979h-.02v-.03c2.76-.01 4.99-2.25 4.99-5.021-.01-2.75-2.25-4.979-5-4.979h-.017v-.031a5 5 0 0 0 4.987-5.019 5 5 0 0 0-5-4.98h-.01l-.003-.031c2.763-.01 4.993-2.25 4.983-5.01 0-2.76-2.24-4.99-4.99-4.99h-.019v-.029c2.759 0 4.999-2.25 4.989-5.011s-2.25-4.989-5-4.989h-.015v-.021c2.768-.012 4.995-2.261 4.985-5.019a4.99 4.99 0 0 0-4.99-4.98h-.02l-.001-.031c2.761-.01 4.991-2.25 4.981-5.02a4.99 4.99 0 0 0-4.99-4.98h-.018v-.03c2.759-.011 4.997-2.251 4.987-5.01a5 5 0 0 0-5-4.99h-.01l-.004-.031c2.764-.01 4.994-2.25 4.984-5.01 0-2.76-2.24-4.99-5-4.99h-.01v-.03c2.76 0 4.999-2.25 4.99-5.01s-2.25-4.99-5-4.99h-.016v-.03a4.99 4.99 0 0 0 4.986-5.01 5 5 0 0 0-5-4.979h-.01l-.002-.031c2.762-.01 4.992-2.25 4.982-5.01 0-2.76-2.24-4.99-5-4.99h-.008v-.031c2.759-.011 4.998-2.25 4.988-5.01a5 5 0 0 0-5-4.99h-.01l-.004-.03a4.99 4.99 0 0 0 4.984-5.011c0-2.76-2.24-4.989-5-4.989h-.01v-.03h0c2.76 0 4.99-2.25 4.99-5.01-.01-2.75-2.25-4.98-5-4.98h-.016v-.031c2.758-.012 4.996-2.251 4.986-5.019a5 5 0 0 0-5-4.98h-.01l-.003-.03c2.763-.01 4.993-2.25 4.983-5.01a4.99 4.99 0 0 0-4.99-4.99h-.018v-.031c2.759-.01 4.998-2.25 4.989-5.01s-2.25-4.99-5-4.99h-.01l-.004-.031c2.764-.01 4.994-2.25 4.984-5.01s-2.24-4.99-4.99-4.99h-.021v-.029h0c2.76 0 4.99-2.25 4.99-5.011-.01-2.76-2.25-4.989-5-4.989h-.017v-.021c2.759-.012 4.997-2.251 4.987-5.019a5 5 0 0 0-5-4.98h-.01l-.003-.031c2.763-.01 4.993-2.25 4.983-5.01 0-2.76-2.24-4.99-5-4.99h-.009v-.029c2.759 0 4.989-2.25 4.989-5.011-.01-2.76-2.25-4.989-5-4.989h-.01l-.005-.031a4.99 4.99 0 0 0 4.985-5.01 5 5 0 0 0-5-4.99h-.01l-.001-.021a5.01 5.01 0 0 0 4.991-5.02c-.01-2.75-2.25-4.98-5-4.98h-.017v-.03c2.759-.011 4.997-2.251 4.988-5.02a5 5 0 0 0-5-4.979h-.01l-.003-.031c2.763-.01 4.993-2.25 4.983-5.01 0-2.76-2.24-4.99-5-4.99h-.009v-.03a5.01 5.01 0 0 0 4.989-5.01 5 5 0 0 0-5-4.99h-.016v-.03a4.99 4.99 0 0 0 4.986-5.01c0-2.76-2.24-4.989-5-4.989h-.01l-.002-.021a5.02 5.02 0 0 0 4.992-5.02c-.01-2.75-2.25-4.98-5-4.98h-.018v-.031c2.759-.011 4.998-2.25 4.988-5.01s-2.25-4.99-5-4.99h-.01l-.004-.03c2.764-.011 4.994-2.25 4.984-5.011a4.99 4.99 0 0 0-4.99-4.989h-.02v-.03h0c2.76 0 5-2.25 4.99-5.01s-2.25-4.99-5-4.99h-.016v-.021c2.768-.012 4.996-2.261 4.986-5.019a5 5 0 0 0-5-4.98h-.01l-.002-.03c2.762-.01 4.992-2.25 4.982-5.021 0-2.75-2.24-4.979-5-4.979h-.008v-.03c2.759-.01 4.999-2.25 4.988-5.01s-2.25-4.99-5-4.99h-.014v-.031c2.767-.013 4.994-2.251 4.985-5.009 0-2.76-2.24-4.99-5-4.99h-.011v-.029h0c2.76 0 4.99-2.25 4.99-5.011-.01-2.76-2.25-4.989-5-4.989h-.017v-.031a4.99 4.99 0 0 0 4.987-5.01 5 5 0 0 0-5-4.98h-.01l-.003-.031c2.763-.01 4.993-2.25 4.983-5.02a4.99 4.99 0 0 0-4.99-4.98h-.019v-.034a4.95 4.95 0 0 0 .969-.096c.31-.06.63-.16.93-.279a5.54 5.54 0 0 0 .86-.46c.28-.19.53-.4.76-.631a5.56 5.56 0 0 0 .63-.75c.18-.279.33-.569.45-.869a4.37 4.37 0 0 0 .29-.931 4.65 4.65 0 0 0 .1-.979 4.59 4.59 0 0 0-.1-.98 4.36 4.36 0 0 0-.29-.93c-.12-.3-.27-.59-.46-.87a4.97 4.97 0 0 0-.62-.76 4.57 4.57 0 0 0-.76-.62c-.27-.18-.56-.33-.86-.46-.3-.12-.62-.22-.93-.28-.33-.07-.66-.1-.98-.1-.33 0-.66.029-.98.1-.32.061-.63.16-.93.28-.31.13-.6.28-.87.46a5.02 5.02 0 0 0-.76.62c-.23.229-.44.489-.62.76a6.04 6.04 0 0 0-.46.87 5.87 5.87 0 0 0-.29.93 5.33 5.33 0 0 0-.09.979h-.65c0-2.76-2.241-4.999-5-4.999s-4.999 2.239-5 4.999h-.02c0-2.76-2.23-4.999-5-4.999-2.76 0-4.999 2.239-5 4.999h-.01a5 5 0 0 0-5-4.999c-2.759 0-4.999 2.239-5 4.999h-.01c0-2.76-2.241-4.999-5-4.999s-4.999 2.239-5 4.999h-.02c0-2.76-2.241-4.999-5-4.999s-4.999 2.239-5 4.999h-.01a5 5 0 0 0-5-4.999c-2.759 0-4.999 2.239-5 4.999h-.01c0-2.76-2.241-4.999-5-4.999s-4.999 2.239-5 4.999h-.02c0-2.76-2.241-4.999-5-4.999s-4.999 2.239-5 4.999h-.01a5 5 0 0 0-5-4.999c-2.759 0-4.999 2.239-5 4.999h-.01c0-2.76-2.241-4.999-5-4.999s-5.009 2.239-5.01 4.999h-.01a5 5 0 0 0-5-4.999c-2.76 0-4.999 2.239-5 4.999h-.01c0-2.76-2.241-4.999-5-4.999s-4.999 2.239-5 4.999h-.02c0-2.76-2.23-4.999-5-4.999-2.76 0-4.999 2.239-5 4.999h-.01a5 5 0 0 0-5-4.999c-2.759 0-4.999 2.239-5 4.999h-.01c0-2.76-2.241-4.999-5-4.999s-4.999 2.239-5 4.999h-.02c0-2.76-2.23-4.999-5-4.999-2.76 0-4.999 2.239-5 4.999h-.01a5 5 0 0 0-5-4.999c-2.759 0-4.999 2.239-5 4.999h-.01c0-2.76-2.241-4.999-5-4.999-2.77 0-5.009 2.239-5.01 4.999h-.01c0-2.76-2.241-4.999-5-4.999s-4.999 2.239-5 4.999h-.01a5 5 0 0 0-5-4.999c-2.759 0-4.999 2.239-5 4.999h-.02c0-2.76-2.23-4.999-5-4.999-2.759 0-4.999 2.239-5 4.999h-.01c0-2.76-2.241-4.999-5-4.999s-4.999 2.239-5 4.999h-.01a5 5 0 0 0-5-4.999c-2.76 0-4.999 2.239-5 4.999h-.02c0-2.76-2.23-4.999-5-4.999s-4.999 2.239-5 4.999h-.01c0-2.76-2.241-4.999-5-4.999s-4.999 2.239-5 4.999h-.01a5 5 0 0 0-5-4.999c-2.759 0-4.999 2.239-5 4.999h-.02c0-2.76-2.241-4.999-5-4.999s-4.999 2.239-5 4.999h-.01a5 5 0 0 0-5-4.999c-2.759 0-4.999 2.239-5 4.999h-.02c0-2.76-2.23-4.999-5-4.999-2.759 0-4.999 2.239-5 4.999h-.01c0-2.76-2.241-4.999-5-4.999s-4.999 2.239-5 4.999h-.01a5 5 0 0 0-5-4.999c-2.77 0-4.999 2.239-5 4.999h-.02c0-2.76-2.23-4.999-5-4.999-2.759 0-4.999 2.239-5 4.999h-.01c0-2.76-2.241-4.999-5-4.999s-4.999 2.239-5 4.999h-.01a5 5 0 0 0-5-4.999c-2.76 0-4.999 2.239-5 4.999h-.02a5 5 0 0 0-5-4.999c-2.76 0-4.999 2.239-5 4.999h-.01c0-2.76-2.241-4.999-5-4.999s-4.999 2.239-5 4.999h-.01c0-2.76-2.24-4.999-5.01-4.999-2.76 0-4.999 2.239-5 4.999h-.01a5 5 0 0 0-5-4.999c-2.76 0-5 2.239-5 5 0 .031.009.06.009.091h-.028c-.004-.058.005-.113-.001-.171-.28-2.55-2.45-4.45-4.96-4.45-.19 0-.37.01-.56.03-2.75.31-4.72 2.779-4.42 5.52.007.063.029.12.039.182l-.034.006c-.012-.06-.01-.118-.025-.178a5.01 5.01 0 0 0-4.86-3.819 5.44 5.44 0 0 0-1.19.14c-2.68.66-4.32 3.36-3.67 6.04.013.056.04.104.056.158-.011.003-.021.007-.032.011-.018-.053-.023-.107-.044-.159-.77-1.979-2.66-3.2-4.67-3.2a4.93 4.93 0 0 0-1.8.341c-2.58 1-3.86 3.89-2.86 6.47a1.19 1.19 0 0 0 .067.163l-.086-.164a5 5 0 0 0-6.78-2c-2.42 1.32-3.32 4.36-2 6.78l.09.156c-.041-.044-.074-.092-.11-.146-1.62-2.23-4.75-2.73-6.98-1.11-2.24 1.61-2.74 4.74-1.12 6.98.032.044.073.077.107.12-.009.007-.017.015-.025.022-.037-.042-.062-.091-.101-.132-.98-1.04-2.31-1.57-3.64-1.57a4.95 4.95 0 0 0-3.42 1.36h-.01c-2 1.89-2.1 5.06-.21 7.07.041.043.09.073.132.115l-.028.029c-.045-.039-.078-.086-.124-.124a4.94 4.94 0 0 0-3.17-1.14c-1.45 0-2.88.62-3.87 1.819a5.01 5.01 0 0 0 .69 7.04c.048.04.103.064.153.101l-.021.03c-.05-.034-.09-.078-.142-.11-.83-.51-1.75-.76-2.65-.76-1.67 0-3.3.83-4.24 2.35v-.01c-1.47 2.35-.76 5.43 1.58 6.899.047.029.098.044.146.072l-.018.035c-.052-.026-.095-.062-.148-.087-.67-.311-1.38-.45-2.08-.45a5.02 5.02 0 0 0-4.55 2.91c-1.15 2.51-.05 5.479 2.46 6.63.057.026.116.036.174.059l-.016.042c-.058-.02-.108-.052-.167-.071-.49-.15-.99-.23-1.48-.23-2.13 0-4.11 1.38-4.78 3.521-.81 2.64.66 5.439 3.3 6.26.059.018.119.02.178.036l-.009.041c-.058-.012-.11-.036-.169-.047-.29-.051-.58-.08-.86-.08-2.39 0-4.5 1.72-4.92 4.149a5 5 0 0 0 4.07 5.78c.058.01.114.004.172.012l-.004.033c-.057-.004-.11-.022-.168-.024h-.22c-2.66 0-4.87 2.1-4.99 4.779a5 5 0 0 0 4.78 5.21c.049.002.096-.009.145-.008v.029c-2.765 0-5.005 2.24-5.005 5s2.24 5 5 5l.005.011c-2.765 0-5.005 2.24-5.005 5s2.24 5 5 5l.005.021c-2.765 0-5.005 2.229-5.005 5 0 2.76 2.24 5 5 5l.005.011c-2.765 0-5.005 2.24-5.005 5s2.24 5 5 5l.005.011c-2.765 0-5.005 2.24-5.005 5 0 2.77 2.24 5 5 5l.005.021c-2.765 0-5.005 2.24-5.005 5s2.24 5 5 5l.005.012c-2.765 0-5.005 2.239-5.005 5s2.24 5 5 5l.005.011c-2.765 0-5.005 2.25-5.005 5.01s2.24 5 5 5l.005.011c-2.765 0-5.005 2.24-5.005 5s2.24 5 5 5l.005.012c-2.765 0-5.005 2.239-5.005 5s2.24 5 5 5l.005.021c-2.765 0-5.005 2.23-5.005 5s2.24 5 5 5l.005.011c-2.765 0-5.005 2.24-5.005 5s2.24 5 5 5l.005.012c-2.765 0-5.005 2.239-5.005 5s2.24 5 5 5l.005.021c-2.765 0-5.005 2.24-5.005 5s2.24 5 5 5l.005.011c-2.765 0-5.005 2.24-5.005 5a5 5 0 0 0 4.946 4.995c-.092.014-.186.006-.275.006a5.01 5.01 0 0 0-4.98 4.61c-.217 2.71 1.784 5.08 4.474 5.359 0 .007-.002.014-.003.021-.251-.036-.501-.06-.752-.06a5.01 5.01 0 0 0-4.92 4.13c-.473 2.679 1.291 5.223 3.934 5.757l-.006.028c-.409-.099-.818-.155-1.218-.155-2.19 0-4.2 1.45-4.81 3.66-.728 2.619.779 5.325 3.355 6.115l-.009.029c-.551-.198-1.117-.304-1.675-.304a4.99 4.99 0 0 0-1.908 9.61l-.012.027c-.685-.328-1.401-.477-2.111-.477-1.84 0-3.6 1.01-4.48 2.76-1.21 2.43-.254 5.364 2.129 6.64l-.012.021c-.8-.465-1.668-.701-2.537-.701a4.98 4.98 0 0 0-4.24 2.35c-1.446 2.304-.773 5.315 1.478 6.811l-.015.021c-.887-.639-1.913-.962-2.933-.962a4.99 4.99 0 0 0-3.97 1.95c-1.663 2.156-1.274 5.224.827 6.922l-.027.031a4.97 4.97 0 0 0-3.31-1.263 4.94 4.94 0 0 0-3.65 1.59 4.98 4.98 0 0 0 .159 6.968l-.025.025c-.982-1.055-2.305-1.603-3.654-1.603-1.17 0-2.36.42-3.31 1.26-2.037 1.801-2.243 4.884-.497 6.955l-.023.019a4.99 4.99 0 0 0-3.96-1.953c-1.03 0-2.06.31-2.94.96-2.205 1.595-2.704 4.65-1.163 6.871l-.026.017a5 5 0 0 0-4.231-2.349c-.87 0-1.75.229-2.55.7-2.331 1.376-3.122 4.366-1.806 6.729l-.029.015c-.872-1.745-2.627-2.764-4.465-2.764-.71 0-1.43.15-2.12.471a5 5 0 0 0-2.453 6.529l-.022.009c-.763-1.976-2.648-3.208-4.655-3.208-.56 0-1.13.091-1.68.29a5.01 5.01 0 0 0-3.071 6.266l-.021.006c-.612-2.202-2.61-3.662-4.809-3.662-.4 0-.81.05-1.22.15-2.639.66-4.239 3.298-3.648 5.937l-.033.006a5 5 0 0 0-4.909-4.133c-.25 0-.5.021-.75.05-2.69.414-4.543 2.887-4.206 5.571l-.032.003c-.198-2.602-2.372-4.614-4.972-4.614l-.27.011c-2.717.147-4.793 2.43-4.714 5.133h-.026a5 5 0 0 0-4.999-4.994c-2.76 0-5 2.24-5 5l-.01.003c0-2.763-2.24-5.003-5-5.003s-5 2.24-5 5l-.021.003c0-2.763-2.23-5.003-5-5.003-2.76 0-5 2.24-5 5l-.011.003c0-2.763-2.24-5.003-5-5.003s-5 2.24-5 5l-.01.003c0-2.763-2.24-5.003-5-5.003-2.77 0-5 2.24-5 5l-.021.003c0-2.763-2.24-5.003-5-5.003s-5 2.24-5 5l-.011.003c0-2.763-2.24-5.003-5-5.003s-5 2.24-5 5l-.021.003c0-2.763-2.23-5.003-5-5.003-2.76 0-4.99 2.24-4.99 5l-.021.003c0-2.763-2.24-5.003-5-5.003s-5 2.24-5 5l-.028.003c-.001-.058.011-.114.008-.173-.14-2.67-2.35-4.73-4.99-4.73h-.27c-2.76.15-4.87 2.511-4.72 5.271 0 .07.008.14.016.21-.019-.07-.03-.141-.045-.211a5.01 5.01 0 0 0-5.95-3.83 5.01 5.01 0 0 0-3.83 5.95l.055.204c-.037-.062-.058-.128-.085-.194-1.01-2.57-3.91-3.83-6.48-2.82s-3.83 3.92-2.82 6.49l.085.187-.106-.177c-1.42-2.37-4.48-3.149-6.86-1.74v-.01a5.01 5.01 0 0 0-1.74 6.86l.114.182c-.048-.053-.088-.11-.133-.163a5.01 5.01 0 0 0-7.05-.63v-.01a5.01 5.01 0 0 0-.63 7.05l.14.154c-.057-.04-.107-.087-.16-.133-2.09-1.811-5.25-1.59-7.06.489-1.81 2.091-1.59 5.25.5 7.061.052.045.112.074.165.116l-.021.03c-.058-.039-.104-.089-.164-.127-.82-.51-1.74-.75-2.64-.75a5.01 5.01 0 0 0-4.25 2.36 5 5 0 0 0 1.61 6.89c.063.039.13.059.194.095l-.02.04c-.067-.031-.124-.076-.194-.104a5.03 5.03 0 0 0-1.92-.39c-1.96 0-3.82 1.16-4.62 3.08-1.06 2.55.14 5.479 2.69 6.54.069.029.139.038.209.063l-.016.047c-.07-.02-.132-.053-.203-.07-.39-.091-.78-.141-1.16-.141-2.26 0-4.31 1.55-4.86 3.84-.64 2.69 1.02 5.391 3.71 6.021.065.018.13.029.196.042-.067.008-.131-.002-.196-.002-2.76-.21-5.16 1.859-5.36 4.62-.2 2.75 1.87 5.149 4.62 5.35.064.005.125-.007.189-.005v.026l-.229-.011c-2.56 0-4.75 1.971-4.97 4.58a4.99 4.99 0 0 0 4.08 5.34 5 5 0 0 0-5.59 3.73c-.63 2.52.77 5.06 3.15 5.92-2.42-.76-5.07.41-6.1 2.79-1.02 2.37-.06 5.09 2.14 6.33a5.01 5.01 0 0 0-6.44 1.8v-.01c-1.4 2.21-.87 5.09 1.16 6.649a5.01 5.01 0 0 0-6.71.69c-1.74 1.96-1.66 4.9.11 6.77-1.79-1.85-4.73-2.05-6.75-.399-2.085 1.705-2.426 4.73-.836 6.864l-.024.017a5.01 5.01 0 0 0-4.22-2.322c-.85 0-1.71.221-2.5.681-2.329 1.344-3.141 4.279-1.905 6.641l-.036.016c-.807-1.882-2.637-3.037-4.589-3.037-.59 0-1.19.109-1.77.329-2.511.954-3.792 3.715-2.957 6.241l-.045.013c-.558-2.244-2.57-3.783-4.829-3.783a4.94 4.94 0 0 0-1.01.1c-2.55.521-4.24 2.9-3.97 5.43a4.99 4.99 0 0 0-5.16-4.31c-2.708.108-4.807 2.367-4.771 5.05h-.029c0-2.76-2.24-5-5-5s-5 2.24-5 5h-.02c0-2.76-2.23-5-5-5-2.76 0-5 2.24-5 5h-.01c0-2.76-2.24-5-5-5s-5 2.24-5 5h-.01c0-2.76-2.24-5-5-5s-5 2.24-5 5h-.02c0-2.76-2.23-5-5-5-2.76 0-4.99 2.24-4.99 5h-.02c0-2.76-2.24-5-5-5s-5 2.24-5 5h-.01c0-2.76-2.24-5-5-5s-5 2.24-5 5h-.02c0-2.76-2.24-5-5-5s-5 2.24-5 5h-.01c0-2.76-2.24-5-5-5s-5 2.24-5 5h-.01c0-2.76-2.24-5-5-5-2.77 0-5 2.24-5 5h-.02c0-2.76-2.24-5-5-5s-5 2.24-5 5c0 .016.005.031.005.047l-.028.001c-.003-.047.006-.091.002-.138-.21-2.61-2.4-4.59-4.97-4.59l-.42.02c-2.75.221-4.801 2.641-4.57 5.391.004.045.019.086.024.131l-.032.004c-.007-.046-.003-.09-.012-.136-.45-2.4-2.551-4.08-4.91-4.08-.311 0-.62.03-.931.09a5 5 0 0 0-3.989 5.84c.009.046.029.087.039.132l-.032.008c-.013-.047-.013-.094-.027-.14a5.01 5.01 0 0 0-4.79-3.56c-.47 0-.96.069-1.439.21a5.01 5.01 0 0 0-3.351 6.229c.013.044.037.081.052.125l-.03.011c-.017-.045-.023-.091-.041-.135a5 5 0 0 0-4.61-3.06 5.03 5.03 0 0 0-1.93.38c-2.55 1.07-3.75 4-2.681 6.55.017.041.044.074.062.114l-.031.015c-.02-.039-.029-.081-.051-.119-.91-1.659-2.62-2.6-4.38-2.6a5 5 0 0 0-4.38 7.41c.021.039.052.07.074.108l-.03.019c-.025-.038-.039-.079-.065-.117a4.99 4.99 0 0 0-4.109-2.15c-.98 0-1.98.28-2.851.891-2.27 1.569-2.83 4.689-1.26 6.96.026.037.06.065.087.101l-.021.016c-.028-.035-.046-.074-.075-.108-.99-1.15-2.391-1.74-3.79-1.74-1.16 0-2.32.4-3.26 1.21-2.091 1.801-2.33 4.96-.53 7.051.028.033.063.056.092.088l-.025.024c-.032-.032-.055-.07-.088-.102-.96-.91-2.199-1.36-3.43-1.36a5.01 5.01 0 0 0-3.64 1.57c-1.891 2.01-1.801 5.17.21 7.07.033.031.072.051.106.081l-.018.021c-.036-.029-.062-.065-.099-.093a5 5 0 0 0-3.029-1.021c-1.511 0-3 .67-3.98 1.96-1.68 2.2-1.26 5.33.94 7.011.036.027.076.043.112.069l-.023.033c-.039-.025-.07-.058-.109-.083-.81-.5-1.71-.729-2.6-.729-1.68 0-3.33.85-4.271 2.39-1.439 2.36-.689 5.439 1.67 6.87.038.023.079.034.117.057l-.018.035c-.042-.021-.076-.051-.119-.072-.69-.319-1.42-.479-2.14-.479-1.87 0-3.66 1.06-4.521 2.859-1.18 2.49-.12 5.471 2.38 6.66.042.02.085.027.127.045a.45.45 0 0 0-.013.033c-.043-.016-.08-.042-.124-.058-.55-.19-1.11-.28-1.66-.28-2.06 0-3.99 1.28-4.72 3.34-.91 2.61.46 5.46 3.07 6.38.042.015.086.017.128.031l-.01.034c-.045-.012-.083-.034-.129-.044-.39-.101-.77-.141-1.149-.141-2.271 0-4.32 1.551-4.87 3.851a5.01 5.01 0 0 0 3.72 6.02c.044.01.087.008.13.017l-.006.032c-.043-.007-.081-.023-.124-.029a4.68 4.68 0 0 0-.64-.04c-2.49 0-4.641 1.84-4.96 4.359a5.01 5.01 0 0 0 4.319 5.601c.046.006.09 0 .136.004 0 .011-.001.022-.002.032-.046-.002-.088-.015-.134-.016-.04 0-.079-.01-.119-.01-2.7 0-4.931 2.17-4.99 4.89a4.99 4.99 0 0 0 4.88 5.11c.031 0 .059-.007.09-.007v.027h0c-2.76 0-5 2.239-5 5s2.24 5 5 5h0v.01h0c-2.76 0-5 2.24-5 5s2.24 5 5 5h0v.01h0c-2.76 0-5 2.24-5 5s2.24 5.01 5 5.01h0v.01h0c-2.76 0-5 2.24-5 5s2.24 5 5 5h0v.011h0c-2.76 0-5 2.239-5 5s2.24 5 5 5h0v.01h0c-2.76 0-5 2.24-5 5s2.24 5 5 5h0v.02h0c-2.76 0-5 2.24-5 5s2.24 5 5 5h0v.011h0c-2.76 0-5 2.239-5 5s2.24 5 5 5h0v.02h0c-2.76 0-5 2.24-5 5s2.24 5 5 5h0v.01h0c-2.76 0-5 2.24-5 5s2.24 4.999 4.999 5c-.046.015-.094.011-.138.011a5 5 0 0 0-4.99 4.729 4.99 4.99 0 0 0 4.573 5.238l-.004.032c-.226-.028-.456-.05-.68-.05-2.399 0-4.52 1.73-4.93 4.181-.442 2.671 1.33 5.195 3.98 5.712l-.006.027c-.409-.103-.812-.159-1.214-.159-2.18 0-4.189 1.439-4.81 3.649-.737 2.613.752 5.311 3.325 6.117l-.009.025c-.57-.207-1.161-.322-1.737-.322a5.01 5.01 0 0 0-4.641 3.12v.01c-1.011 2.516.166 5.359 2.636 6.435l-.013.027c-.715-.365-1.477-.542-2.233-.542-1.78 0-3.5.95-4.41 2.63a5 5 0 0 0 1.914 6.701l-.012.02a4.93 4.93 0 0 0-2.712-.811 4.98 4.98 0 0 0-4.119 2.16c-1.542 2.228-1.001 5.268 1.167 6.864l-.016.021c-.928-.746-2.038-1.126-3.151-1.126a4.98 4.98 0 0 0-3.79 1.73c-1.769 2.053-1.567 5.133.423 6.948l-.024.025c-.978-.988-2.255-1.503-3.549-1.503a4.98 4.98 0 0 0-3.41 1.35v-.01a5 5 0 0 0-.336 6.957l-.022.019c-.981-1.238-2.435-1.896-3.922-1.905-1.04 0-2.09.33-2.989 1-2.17 1.619-2.631 4.662-1.087 6.873l-.025.017a4.98 4.98 0 0 0-4.228-2.35c-.87 0-1.74.229-2.54.7-2.339 1.375-3.131 4.351-1.83 6.712l-.027.014c-.856-1.772-2.638-2.827-4.503-2.827a4.95 4.95 0 0 0-2.04.44c-2.475 1.11-3.586 3.982-2.556 6.472l-.04.015a5 5 0 0 0-4.695-3.337c-.51 0-1.03.08-1.54.25-2.583.826-4.006 3.56-3.25 6.149l-.041.011c-.534-2.291-2.566-3.86-4.848-3.86-.33 0-.67.029-1.011.1-2.652.55-4.375 3.109-3.904 5.759l-.033.005c-.318-2.525-2.442-4.394-4.952-4.394l-.46.02c-2.7.245-4.694 2.605-4.519 5.294h-.023a5 5 0 0 0-4.998-4.915h-.08c-2.76.04-4.96 2.32-4.92 5.08 0 .047.014.091.016.137-.011 0-.021.001-.032.002-.005-.047.003-.092-.003-.139-.311-2.529-2.471-4.39-4.95-4.39a6.66 6.66 0 0 0-.63.04 5 5 0 0 0-4.34 5.58c.006.047.024.089.031.135l-.032.006c-.01-.047-.008-.094-.019-.141a5 5 0 0 0-4.86-3.84 5.08 5.08 0 0 0-1.159.13v.01c-2.69.64-4.351 3.33-3.71 6.021.011.047.034.087.046.133l-.031.009c-.015-.047-.018-.095-.035-.142-.729-2.04-2.66-3.311-4.71-3.311a4.91 4.91 0 0 0-1.68.29 5 5 0 0 0-3.03 6.39c.016.045.044.083.061.128l-.033.014c-.02-.043-.028-.088-.049-.131-.859-1.78-2.64-2.811-4.489-2.811a4.88 4.88 0 0 0-2.19.51c-2.479 1.211-3.52 4.2-2.31 6.681.022.045.054.081.077.125l-.024.013c-.025-.042-.038-.087-.064-.128-.949-1.51-2.579-2.33-4.239-2.33-.91 0-1.83.25-2.66.771-2.33 1.479-3.03 4.56-1.561 6.899.025.04.059.07.085.108l-.022.015c-.028-.037-.044-.078-.073-.114-.99-1.239-2.45-1.89-3.92-1.89a5 5 0 0 0-3.11 1.09c-2.159 1.721-2.52 4.87-.8 7.03.03.038.068.064.099.101l-.02.018c-.032-.035-.055-.075-.088-.109-.979-.979-2.27-1.479-3.55-1.479a4.95 4.95 0 0 0-3.521 1.449c-1.97 1.94-1.979 5.11-.04 7.07.033.034.073.056.107.088l-.023.026c-.034-.029-.059-.065-.094-.094a5 5 0 0 0-3.149-1.12c-1.45 0-2.9.63-3.881 1.85a5 5 0 0 0 .73 7.03c.038.031.081.049.12.078l-.021.028c-.039-.027-.069-.061-.109-.087a5 5 0 0 0-6.92 1.5h.01c-1.5 2.32-.83 5.41 1.49 6.91.04.026.084.039.124.063l-.018.031c-.041-.022-.075-.053-.117-.074-.72-.36-1.479-.53-2.229-.53a5.01 5.01 0 0 0-4.48 2.77c-1.229 2.471-.229 5.47 2.24 6.7.045.023.094.032.139.053l-.018.041c-.046-.018-.084-.047-.131-.064-.561-.21-1.15-.31-1.72-.31-2.04 0-3.95 1.25-4.69 3.27-.96 2.59.37 5.47 2.96 6.42.045.017.091.02.136.035l-.013.042c-.046-.013-.086-.036-.133-.047a4.93 4.93 0 0 0-1.2-.15c-2.25 0-4.29 1.52-4.85 3.8-.66 2.68.97 5.39 3.649 6.05.048.012.095.01.143.021l-.006.032c-.047-.008-.089-.026-.137-.033a5.11 5.11 0 0 0-.67-.04 5 5 0 0 0-4.95 4.34 5.01 5.01 0 0 0 4.29 5.62c.048.006.093 0 .141.004 0 .008-.001.016-.002.023-.047-.003-.091-.016-.139-.018h-.12c-2.699 0-4.93 2.16-5 4.88-.06 2.76 2.12 5.06 4.881 5.12.032 0 .061-.007.093-.007v.027c-2.764 0-5.003 2.23-5.003 5 0 2.76 2.239 5 5 5l.003.01c-2.764 0-5.003 2.24-5.003 5s2.239 5 5 5l.003.011c-2.764 0-5.003 2.24-5.003 5 0 2.77 2.239 5 5 5l.003.021c-2.764 0-5.003 2.24-5.003 5s2.239 5 5 5l.003.01c-2.764 0-5.003 2.24-5.003 5s2.239 5 5 5l.003.021zm454.291 307.826zm7.91 6.072h0zm5.814 8.108zm138.483 50.264c.001.02-.004.042-.008.06.004-.019.005-.041.008-.06zm9.649 2.594c-.003.047-.023.085-.038.126.015-.042.025-.084.038-.126zm9.049 4.263c-.003.013-.01.024-.017.034l.017-.034zm8.181 5.732c-.016.036-.041.061-.068.091l.068-.091zm12.702 15.321c.045-.025.09-.057.135-.086-.04.037-.091.062-.136.086zm6.98 18.62l.059-.014c-.018.009-.04.01-.059.014zm-203.026-905.346c-.039.003-.076-.007-.113-.014l.113.014zm-2.431 9.692c-.029-.004-.058-.015-.083-.026l.083.026zm-3.947 9.181c-.021-.004-.038-.015-.056-.027l.055.027zm-5.367 8.434c-.048-.024-.09-.061-.129-.091l.129.09zm-6.769 7.349l.116.116c-.045-.034-.077-.078-.116-.116zm-35.429 17.014c-.013-.037-.017-.076-.02-.114l.021.113z"/><g class="C D E F"><path d="M-38.697-580H63.98c31.866 0 57.699 25.833 57.699 57.699v33.821c0 31.866 25.833 57.699 57.699 57.699h196.316c31.866 0 57.699 25.833 57.699 57.699v24.649c0 31.866 25.833 57.699 57.699 57.699h144.5c31.866 0 57.699 25.833 57.699 57.699v44.904c0 31.866-25.833 57.699-57.699 57.699h0c-31.866 0-57.699 25.833-57.699 57.699v29.603c0 31.866-25.833 57.699-57.699 57.699H366.805c-31.866 0-57.699 25.833-57.699 57.699v29.603c0 31.866-25.833 57.699-57.699 57.699H-38.697v-739.566z" stroke="#77d629"/></g></g><path d="M-69.756-284.19h316.848c17.282 0 31.292 14.01 31.292 31.292h0c0 17.282 14.01 31.292 31.292 31.292h87.344c17.282 0 31.292 14.01 31.292 31.292v98.471c0 17.282-14.01 31.292-31.292 31.292H206.944c-17.282 0-31.292 14.01-31.292 31.292v25.556c0 17.282-14.01 31.292-31.292 31.292H-69.756V-284.19z" fill="#fb3" stroke="#fb3" class="C D E F"/><path d="M1323.17-1337.927h324.551v-40H1323.17c-83.343 0-150.905 67.562-150.905 150.905v112.663c0 83.175 67.641 150.85 150.804 150.905 36.395.024 66.174 29.677 66.174 66.071l-.036 145.046c0 52.865 43.009 95.875 95.875 95.875h80.592v273.961h-318.043c-52.865 0-95.875 43.009-95.875 95.875 0 30.81-25.065 55.875-55.875 55.875H922.789c-87.546 0-158.771 71.224-158.771 158.771S835.243 86.791 922.789 86.791h211.778c40.054 0 72.64 32.586 72.64 72.64v160.16h40v-160.16c0-62.109-50.53-112.64-112.64-112.64H922.789c-65.49 0-118.771-53.28-118.771-118.771s53.28-118.771 118.771-118.771h173.092c52.865 0 95.875-43.01 95.875-95.875 0-30.81 25.065-55.875 55.875-55.875h358.043v-353.961h-120.592c-30.81 0-55.875-25.065-55.875-55.875l.036-98.402v-45.648c0-58.284-47.681-107.122-105.965-107.066-61.202.058-111.013-49.716-111.013-110.905v-112.663c0-61.251 49.654-110.905 110.905-110.905z" fill="#4eeae6"/><g fill="#00b365"><use href="#C"/><use href="#D"/><path d="M956.08 41.79a5 5 0 1 0 0 10c2.761 0 5-2.23 5-5s-2.24-5-5-5zm-30 0a5 5 0 0 0-4.99 4.79c-.01-2.62-2.07-4.82-4.72-4.971a5.01 5.01 0 0 0-5.23 4.301c.141-2.57-1.71-4.86-4.3-5.23a5 5 0 0 0-5.58 3.87c.39-2.561-1.27-5.021-3.83-5.61a5.01 5.01 0 0 0-5.89 3.41c.609-2.52-.83-5.13-3.34-5.93-2.53-.811-5.23.5-6.181 2.95.86-2.48-.35-5.23-2.81-6.25a5 5 0 0 0-6.43 2.449c1.1-2.399.119-5.27-2.25-6.5-2.351-1.229-5.23-.39-6.58 1.841 1.25-2.29.52-5.2-1.721-6.61a5 5 0 0 0-6.699 1.27c1.42-2.189.93-5.13-1.181-6.72a5.01 5.01 0 0 0-6.819.74c1.64-2.05 1.409-5.05-.58-6.83-1.95-1.75-4.92-1.68-6.79.11a5 5 0 0 0-.07-6.79c-1.8-1.92-4.76-2.091-6.771-.46 1.891-1.771 2.131-4.721.49-6.771-1.63-2.05-4.55-2.479-6.689-1.04 2.02-1.609 2.5-4.51 1.04-6.689s-4.33-2.841-6.58-1.601c2.14-1.42 2.859-4.28 1.6-6.569-1.27-2.29-4.07-3.2-6.41-2.15a5.01 5.01 0 0 0 2.13-6.42c-1.069-2.37-3.76-3.51-6.18-2.68a5 5 0 0 0-3.36-9.381c2.45-.83 3.881-3.43 3.221-5.979-.65-2.55-3.15-4.13-5.7-3.68 2.51-.62 4.15-3.08 3.72-5.681a5.01 5.01 0 0 0-5.38-4.149 5.01 5.01 0 0 0 4.19-5.351 5 5 0 0 0-5.021-4.58c2.59-.189 4.62-2.35 4.63-4.989a4.99 4.99 0 0 0-4.58-4.98c2.58 0 4.771-1.97 4.99-4.58s-1.61-4.92-4.149-5.35c2.569.22 4.909-1.57 5.35-4.141.45-2.6-1.19-5.069-3.7-5.699 2.54.46 5.05-1.12 5.71-3.66a5.01 5.01 0 0 0-3.22-5.99c2.5.68 5.14-.68 6.01-3.17a4.99 4.99 0 0 0-3.05-6.37c-2.61-.92-5.47.45-6.38 3.05a5 5 0 0 0 3.05 6.38c.02.011.04.011.06.021-.02-.01-.04-.01-.06-.021-2.67-.689-5.4.91-6.09 3.59a5 5 0 0 0 3.58 6.091c.02.01.029.01.05.01-.021 0-.03 0-.05-.01-2.721-.46-5.3 1.37-5.76 4.09-.471 2.729 1.359 5.31 4.079 5.77a5 5 0 0 0-5.399 4.561c-.23 2.76 1.81 5.18 4.56 5.41-2.76 0-5 2.229-5 4.989s2.23 5.011 4.99 5.011h.05-.05c-2.75.229-4.8 2.649-4.57 5.399a5 5 0 0 0 5.391 4.57c.019 0 .029 0 .049-.01-.021.01-.03.01-.04.01h-.009c-2.721.46-4.55 3.04-4.09 5.76.449 2.73 3.029 4.561 5.76 4.1.01 0 .03 0 .04-.01-.01.01-.03.01-.04.01-2.681.69-4.29 3.421-3.601 6.091.69 2.68 3.41 4.29 6.091 3.6.01 0 .029-.01.04-.01-.011 0-.03.01-.04.01-2.61.92-3.98 3.771-3.07 6.37s3.75 3.97 6.34 3.08c-2.5 1.14-3.61 4.09-2.49 6.6a5.01 5.01 0 0 0 6.61 2.51 5 5 0 0 0-1.95 6.801c1.34 2.41 4.38 3.29 6.79 1.949-2.29 1.54-2.9 4.641-1.37 6.94 1.54 2.29 4.641 2.91 6.94 1.37-2.16 1.729-2.521 4.87-.79 7.03 1.72 2.159 4.859 2.51 7.02.79.011-.011.021-.011.03-.021l-.03.03c-2 1.89-2.09 5.06-.2 7.06 1.9 2.011 5.061 2.101 7.07.21l.03-.029-.03.029a5.01 5.01 0 0 0 .391 7.061 5 5 0 0 0 7.06-.391c.03-.029.06-.06.08-.09-.021.03-.05.061-.07.101-1.67 2.199-1.229 5.33.97 7a5.02 5.02 0 0 0 7.011-.98c.01-.02.02-.03.04-.05-.021.02-.03.04-.04.06-1.48 2.33-.78 5.42 1.56 6.9v-.01c2.34 1.479 5.42.779 6.9-1.55.02-.03.029-.061.04-.08-.011.02-.021.05-.04.08a5 5 0 0 0 2.13 6.739 5.01 5.01 0 0 0 6.75-2.13c.03-.05.05-.1.07-.16-.021.061-.04.11-.07.16-1.061 2.55.149 5.48 2.7 6.54s5.47-.149 6.54-2.7l.04-.109c-.011.04-.021.08-.04.12-.841 2.63.609 5.439 3.239 6.279 2.631.851 5.45-.609 6.29-3.239 0-.021.011-.03.021-.051-.01.021-.01.04-.021.061-.609 2.689 1.07 5.37 3.761 5.979 2.689.62 5.369-1.06 5.989-3.76.011-.01.011-.03.011-.04 0 .01 0 .03-.011.04-.38 2.74 1.521 5.271 4.261 5.65h-.011c2.74.39 5.271-1.521 5.65-4.25-.15 2.75 1.96 5.109 4.72 5.27 2.76.15 5.12-1.96 5.271-4.71v-.07c.02 2.75 2.25 4.971 5 4.971s5-2.23 5-5-2.24-5-5-5zm80 0a5 5 0 1 0 0 10c2.761 0 5-2.23 5-5a4.99 4.99 0 0 0-5-5z"/><path d="M996.08 41.79a5 5 0 1 0 0 10c2.761 0 5-2.23 5-5s-2.24-5-5-5zm-20 0a5 5 0 1 0 0 10c2.761 0 5-2.23 5-5a4.99 4.99 0 0 0-5-5z"/><path d="M986.08 41.79a5 5 0 1 0 0 10c2.761 0 5-2.23 5-5s-2.24-5-5-5zm-20 0a5 5 0 1 0 0 10c2.761 0 5-2.23 5-5s-2.24-5-5-5zm246.13 123.41a5 5 0 0 0-4.99-5c.05 0 .1-.011.15-.011a5.01 5.01 0 0 0 4.71-5.279 5 5 0 0 0-5.28-4.7h-.09c.03 0 .06-.01.09-.01a5.01 5.01 0 0 0 3.93-5.881 5 5 0 0 0-5.88-3.93c-.04.01-.069.01-.109.021l.109-.03c2.61-.91 3.99-3.76 3.08-6.37-.899-2.61-3.75-3.99-6.36-3.08-.039.021-.079.03-.119.05.029-.02.069-.04.109-.06a5.01 5.01 0 0 0 2.181-6.73 5.01 5.01 0 0 0-6.73-2.18c-.02.01-.04.02-.05.03.01-.011.03-.021.05-.03 2.26-1.58 2.81-4.7 1.23-6.97-1.58-2.261-4.7-2.811-6.971-1.23-.02.021-.05.04-.08.061.03-.021.051-.04.08-.07 2.021-1.87 2.15-5.04.271-7.061a5 5 0 0 0-7.061-.279l-.12.109c.04-.04.07-.08.101-.119a4.99 4.99 0 0 0-.69-7.03 4.98 4.98 0 0 0-7.029.689c-.04.04-.07.08-.101.12a.83.83 0 0 0 .08-.13c1.45-2.35.71-5.43-1.64-6.88-2.351-1.44-5.431-.71-6.88 1.65-.03.04-.051.08-.08.13.029-.05.05-.101.069-.141 1.101-2.529-.05-5.479-2.58-6.59-2.529-1.1-5.47.05-6.579 2.58-.03.061-.061.13-.08.19l.06-.2a5.01 5.01 0 0 0-3.46-6.17 5.01 5.01 0 0 0-6.17 3.46l-.03.12c.01-.04.01-.08.021-.12.37-2.73-1.551-5.26-4.28-5.63-2.74-.37-5.26 1.55-5.63 4.279-.01.04-.01.08-.021.12.011-.04.011-.069.011-.109 0-2.761-2.24-5-5-5s-5 2.239-5 5a5 5 0 0 0 5 5c2.569 0 4.68-1.931 4.96-4.431a5 5 0 0 0 4.33 5.051 4.99 4.99 0 0 0 5.51-3.7 5.01 5.01 0 0 0 3.59 5.59c2.5.7 5.09-.63 6.01-3a5 5 0 0 0 2.75 6.13 4.99 4.99 0 0 0 6.34-2.09c-1.08 2.28-.29 5.05 1.91 6.41v-.011a4.99 4.99 0 0 0 6.561-1.189c-1.38 2.1-.98 4.96 1.02 6.59a4.99 4.99 0 0 0 6.67-.29c-1.66 1.9-1.649 4.79.101 6.68 1.739 1.881 4.59 2.12 6.609.65a5 5 0 0 0-.77 6.6c1.46 2.08 4.229 2.71 6.42 1.561-2.05 1.399-2.79 4.14-1.63 6.399 1.18 2.29 3.87 3.29 6.22 2.41a4.98 4.98 0 0 0-2.56 6.141 5 5 0 0 0 5.79 3.25c-2.381.76-3.86 3.21-3.36 5.72s2.78 4.2 5.27 4.02c-2.449.44-4.239 2.66-4.1 5.21a5.01 5.01 0 0 0 4.979 4.711c-2.699.069-4.859 2.279-4.859 5 0 2.76 2.229 5 5 5s5-2.24 5-5z"/><path d="M1124.45 81.79a5 5 0 1 0 0 10c2.761 0 5-2.23 5-5s-2.24-5-5-5zm-20 0a5 5 0 1 0 0 10c2.761 0 5-2.23 5-5s-2.24-5-5-5z"/><path d="M1114.45 81.79a5 5 0 1 0 0 10c2.761 0 5-2.23 5-5s-2.24-5-5-5zm-20 0a5 5 0 1 0 0 10c2.761 0 5-2.23 5-5s-2.24-5-5-5zm-78.37-40a5 5 0 1 0 0 10c2.761 0 5-2.23 5-5s-2.24-5-5-5zm40 0a5 5 0 1 0 0 10c2.761 0 5-2.23 5-5s-2.24-5-5-5z"/><path d="M1046.08 41.79a5 5 0 1 0 0 10c2.761 0 5-2.23 5-5a4.99 4.99 0 0 0-5-5zm206.13 122.199a5 5 0 0 0-4.99-5c.03 0 .061 0 .09-.01a5 5 0 0 0 4.76-5.229 4.99 4.99 0 0 0-5.229-4.75c2.729-.38 4.65-2.9 4.27-5.641a4.99 4.99 0 0 0-5.63-4.27h-.04c.011 0 .021 0 .04-.01a5 5 0 0 0 3.75-5.99c-.62-2.69-3.3-4.37-5.989-3.75a5 5 0 0 0 3.199-6.311 4.99 4.99 0 0 0-6.3-3.199l-.1.029c.029-.01.06-.029.1-.04a5.01 5.01 0 0 0 2.62-6.569h.01a5.01 5.01 0 0 0-6.569-2.62c-.03.01-.07.03-.101.04.03-.021.061-.03.101-.05a5 5 0 0 0 2.029-6.771 5 5 0 0 0-6.77-2.03.33.33 0 0 0-.101.051l.091-.061c2.31-1.52 2.949-4.62 1.43-6.92-1.521-2.31-4.62-2.95-6.93-1.43-.021.01-.04.029-.07.05.03-.021.05-.04.07-.05a5.02 5.02 0 0 0 .81-7.03c-1.72-2.16-4.86-2.52-7.03-.81-.029.02-.06.05-.08.069.021-.02.051-.05.08-.069 2-1.9 2.09-5.07.19-7.07a5 5 0 0 0-7.07-.19c-.01.011-.02.011-.03.021.011-.01.021-.01.03-.021 1.83-2.069 1.63-5.229-.439-7.06a5 5 0 0 0-7.061.43c-.01.01-.01.021-.02.03.01-.01.01-.021.02-.03a5 5 0 0 0-1.05-6.99c-2.23-1.64-5.36-1.17-6.99 1.051-.02.02-.029.04-.04.06l.03-.06a5 5 0 0 0-1.66-6.87c-2.359-1.44-5.439-.7-6.88 1.66 1.23-2.48.21-5.471-2.27-6.7v.01a4.99 4.99 0 0 0-6.69 2.26c-.01.011-.01.021-.01.021v-.021c1-2.569-.28-5.47-2.851-6.47-2.58-.99-5.47.29-6.47 2.86-.01.02-.01.04-.02.05.01-.01.01-.03.02-.05a5.001 5.001 0 1 0-9.611-2.77c-.01.021-.01.03-.02.05.01-.02.01-.029.01-.05a5 5 0 0 0-3.96-5.85c-2.71-.53-5.33 1.25-5.859 3.96a5 5 0 0 0-4.461-5.48h-.01c-2.74-.279-5.2 1.721-5.479 4.471.04-2.771-2.17-5.03-4.931-5.07a5.01 5.01 0 0 0-5.069 4.939v.021c-.011-2.75-2.25-4.97-5-4.97a5.01 5.01 0 0 0-5 5 5 5 0 0 0 5 5c2.761 0 4.979-2.21 5-4.95a5 5 0 0 0 4.939 4.96 5 5 0 0 0 5.04-4.49 5 5 0 0 0 4.49 5.04c2.6.271 4.93-1.51 5.42-4.02-.26 2.54 1.46 4.909 4.03 5.409a5.01 5.01 0 0 0 5.76-3.56c-.51 2.521 1 5.06 3.521 5.78 2.52.729 5.149-.62 6.06-3.04-.74 2.47.54 5.14 2.99 6.09 2.439.95 5.16-.15 6.29-2.46-.94 2.39.1 5.14 2.439 6.3 2.351 1.16 5.16.311 6.49-1.88-1.14 2.3-.35 5.12 1.88 6.48 2.25 1.369 5.14.76 6.66-1.341a4.99 4.99 0 0 0 1.27 6.67 5.01 5.01 0 0 0 6.74-.729c-1.55 2.06-1.28 5 .69 6.74 1.96 1.739 4.91 1.649 6.77-.13a5 5 0 0 0 .101 6.77c1.83 1.92 4.819 2.08 6.819.4-1.93 1.76-2.199 4.739-.56 6.819a5 5 0 0 0 6.729 1.021 5.01 5.01 0 0 0-1.13 6.72c1.46 2.21 4.38 2.89 6.65 1.59-2.22 1.391-3 4.271-1.75 6.61 1.26 2.33 4.09 3.26 6.47 2.18a5.01 5.01 0 0 0-2.32 6.42 4.99 4.99 0 0 0 6.25 2.75c-2.42.98-3.699 3.67-2.88 6.19a5 5 0 0 0 5.87 3.33c-2.43.79-3.91 3.33-3.319 5.87.579 2.56 3.029 4.199 5.579 3.83-2.51.55-4.22 2.96-3.869 5.56h.01c.35 2.59 2.63 4.44 5.189 4.32-2.55.34-4.439 2.58-4.319 5.189.13 2.67 2.33 4.75 4.97 4.76-2.69.08-4.84 2.29-4.84 5 0 2.761 2.229 5 5 5s5-2.239 5-5zM1026.08 41.79a5 5 0 1 0 0 10c2.761 0 5-2.23 5-5s-2.24-5-5-5z"/><path d="M1036.08 41.79a5 5 0 1 0 0 10c2.761 0 5-2.23 5-5s-2.24-5-5-5zm70 0a5 5 0 1 0 0 10c2.761 0 5-2.23 5-5s-2.24-5-5-5z"/><path d="M1116.08 41.79a5 5 0 1 0 0 10c2.761 0 5-2.23 5-5a4.99 4.99 0 0 0-5-5zm-20 0a5 5 0 1 0 0 10c2.761 0 5-2.23 5-5s-2.24-5-5-5zm-20 0a5 5 0 1 0 0 10c2.761 0 5-2.23 5-5a4.99 4.99 0 0 0-5-5z"/><path d="M1086.08 41.79a5 5 0 1 0 0 10c2.761 0 5-2.23 5-5s-2.24-5-5-5zm-20 0a5 5 0 1 0 0 10c2.761 0 5-2.23 5-5s-2.24-5-5-5zm-272.4-30.32c-1.5-2.32-4.6-2.98-6.91-1.48a5.01 5.01 0 0 0 2.721 9.2 4.96 4.96 0 0 0 2.72-.81c2.32-1.5 2.97-4.601 1.47-6.91zM781.85 1.26c2.49-1.2 3.53-4.19 2.33-6.67-1.2-2.49-4.189-3.54-6.67-2.34-2.49 1.2-3.53 4.189-2.33 6.68.86 1.79 2.65 2.83 4.51 2.83a4.94 4.94 0 0 0 2.16-.5z"/><path d="M788.67 3.18c-1.36-2.41-4.4-3.26-6.811-1.91a5 5 0 0 0-1.909 6.811 5.01 5.01 0 0 0 4.359 2.55c.84 0 1.681-.21 2.45-.641 2.41-1.359 3.26-4.409 1.91-6.81zm295.78 78.61a5 5 0 1 0 0 10c2.761 0 5-2.23 5-5s-2.24-5-5-5zm-80 0a5 5 0 1 0 0 10c2.761 0 5-2.23 5-5s-2.24-5-5-5zm20 0a5 5 0 1 0 0 10c2.761 0 5-2.23 5-5s-2.24-5-5-5zm-50 0a5 5 0 1 0 0 10c2.761 0 5-2.23 5-5s-2.24-5-5-5z"/><path d="M984.45 81.79a5 5 0 1 0 0 10c2.761 0 5-2.23 5-5s-2.24-5-5-5z"/><path d="M994.45 81.79a5 5 0 1 0 0 10c2.761 0 5-2.23 5-5s-2.24-5-5-5zm80 0a5 5 0 1 0 0 10c2.761 0 5-2.23 5-5s-2.24-5-5-5z"/><path d="M1064.45 81.79a5 5 0 1 0 0 10c2.761 0 5-2.23 5-5s-2.24-5-5-5zm-20 0a5 5 0 1 0 0 10c2.761 0 5-2.23 5-5s-2.24-5-5-5z"/><path d="M1054.45 81.79a5 5 0 1 0 0 10c2.761 0 5-2.23 5-5s-2.24-5-5-5zm-20 0a5 5 0 1 0 0 10c2.761 0 5-2.23 5-5s-2.24-5-5-5zm-20 0a5 5 0 1 0 0 10c2.761 0 5-2.23 5-5s-2.24-5-5-5zm-50 0a5 5 0 1 0 0 10c2.761 0 5-2.23 5-5s-2.24-5-5-5z"/><path d="M954.45 81.79a5 5 0 1 0 0 10c2.761 0 5-2.23 5-5s-2.24-5-5-5z"/><path d="M944.45 81.79a5 5 0 1 0 0 10c2.761 0 5-2.23 5-5s-2.24-5-5-5z"/><path d="M934.45 81.79a5 5 0 1 0 0 10c2.761 0 5-2.23 5-5s-2.24-5-5-5z"/><path d="M924.45 81.79c-2.681 0-4.86 2.1-5 4.739-.021-2.619-2.08-4.81-4.74-4.949-2.63-.13-4.9 1.8-5.22 4.38.109-2.601-1.801-4.88-4.421-5.181a5 5 0 0 0-5.5 4.08c.311-2.6-1.47-5.02-4.079-5.489s-5.11 1.18-5.74 3.72a5 5 0 0 0-3.72-5.74c-2.591-.63-5.19.86-5.971 3.36a5.01 5.01 0 0 0-3.35-5.971c-2.53-.789-5.22.521-6.16 2.95.77-2.489-.51-5.189-2.98-6.14v-.01c-2.42-.931-5.13.149-6.27 2.42a5 5 0 0 0-9.06-4.12c1.02-2.351.079-5.14-2.221-6.38-2.31-1.25-5.16-.49-6.569 1.68a5.01 5.01 0 0 0-1.79-6.54c-2.23-1.39-5.13-.81-6.67 1.26 1.329-2.21.76-5.109-1.381-6.63a4.99 4.99 0 0 0-6.75.87c1.49-2.13 1.101-5.08-.939-6.74-2.07-1.68-5.061-1.439-6.83.48a5.01 5.01 0 0 0-.49-6.83 5 5 0 0 0-6.85.07 5 5 0 0 0-.061-6.851c-1.84-1.93-4.85-2.06-6.85-.359 1.91-1.811 2.09-4.811.38-6.851-1.75-2.069-4.83-2.37-6.95-.68 2.13-1.67 2.55-4.73.94-6.92h-.01c-1.641-2.21-4.771-2.67-6.99-1.03a5 5 0 0 0-1.04 6.99 5.01 5.01 0 0 0 7 1.04c.03-.021.06-.05.1-.07-.04.021-.069.05-.1.07a5.01 5.01 0 0 0-.601 7.05 5.01 5.01 0 0 0 7.051.6c-2 1.91-2.061 5.08-.16 7.07 1.91 2 5.08 2.07 7.07.16a5 5 0 0 0 .289 7.06h-.01a5 5 0 0 0 7.07-.279c-1.74 2.14-1.42 5.29.729 7.029 2.12 1.73 5.25 1.431 6.99-.68-1.56 2.25-1.04 5.34 1.2 6.93a4.99 4.99 0 0 0 6.92-1.09 5.01 5.01 0 0 0 1.64 6.82h.011c2.31 1.439 5.359.76 6.84-1.53-1.26 2.42-.34 5.4 2.06 6.7 2.4 1.29 5.38.43 6.721-1.93-1.08 2.489.029 5.39 2.5 6.529a5 5 0 0 0 6.56-2.3 5 5 0 0 0 2.92 6.311c2.57 1 5.46-.28 6.46-2.851-.82 2.63.64 5.431 3.271 6.26a5.01 5.01 0 0 0 6.279-3.27v-.021.021a4.99 4.99 0 0 0 3.65 6.05c2.689.66 5.4-.979 6.06-3.66a5 5 0 0 0 4.03 5.811c2.719.491 5.32-1.32 5.811-4.04-.32 2.74 1.649 5.229 4.39 5.54 2.729.319 5.2-1.63 5.54-4.351-.12 2.74 1.99 5.07 4.729 5.21 2.761.141 5.11-1.979 5.261-4.729v-.01c.02 2.75 2.25 4.96 5 4.96s5-2.23 5-5-2.24-5-5-5z"/></g><g opacity=".331" fill="#00703a"><path d="M370.523,85.687c-.87,0-1.575-.706-1.575-1.579v-4.944c0-.873.705-1.579,1.575-1.579s1.575.706,1.575,1.579v4.944c0,.873-.705,1.579-1.575,1.579Z"/><use href="#E"/><path d="M364.494 85.687c-.87 0-1.575-.706-1.575-1.579v-3.295c0-.873.705-1.579 1.575-1.579s1.575.706 1.575 1.579v3.295c0 .873-.705 1.579-1.575 1.579zm23.775 13.049c-.87 0-1.575-.706-1.575-1.579v-4.944c0-.873.705-1.579 1.575-1.579s1.575.706 1.575 1.579v4.944c0 .873-.705 1.579-1.575 1.579z"/><use href="#F"/><path d="M382.24 98.736c-.87 0-1.575-.706-1.575-1.579V93.86c0-.873.705-1.579 1.575-1.579s1.575.706 1.575 1.579v3.297c0 .873-.705 1.579-1.575 1.579zm12.125-27.332c-.87 0-1.575-.706-1.575-1.579v-4.944c0-.873.705-1.579 1.575-1.579s1.575.706 1.575 1.579v4.944c0 .873-.705 1.579-1.575 1.579z"/><use href="#G"/><path d="M388.337,71.404c-.87,0-1.575-.706-1.575-1.579v-3.297c0-.873.705-1.579,1.575-1.579s1.575.706,1.575,1.579v3.297c0,.873-.705,1.579-1.575,1.579Z"/></g><rect x="917.569" y="-27.898" width="78.315" height="57.759" rx="16.738" opacity=".106"/><path d="M983.822 2.248h4.891v-8.246a2.45 2.45 0 0 0-2.446-2.451 2.45 2.45 0 0 0-2.446 2.451v8.246z" fill="#007b62" class="B"/><g fill="#8c4906"><use href="#H"/><path d="M942.109 3.991h4.043v16.974h-4.043zm24.397 0h4.043v16.974h-4.043zm14.26 0h4.043v16.974h-4.043z"/></g><g fill="#783300"><use href="#I"/><path d="M942.109 3.991h4.043v3.865h-4.043zm24.397 0h4.043v3.865h-4.043zm14.26 0h4.043v3.865h-4.043zm-52.917 8.959h4.043v3.865h-4.043zm14.26 0h4.043v3.865h-4.043zm24.397 0h4.043v3.865h-4.043zm14.26 0h4.043v3.865h-4.043z"/></g><path d="M925.29 12.339h62.053v2.543H925.29z" fill="#ac6521"/><g clip-path="url(#B)"><path d="M990.828-32.12h-69.023V3.864c0 .645.256 1.263.71 1.719s1.074.714 1.717.714h64.167a2.42 2.42 0 0 0 1.717-.714c.455-.456.711-1.074.711-1.719V-32.12z" fill="#b97f4a" class="B"/><path d="M919.775 2.245h73.083v4.053h-73.083z" fill="#ac6521"/><path d="M950.226-9.98h12.181V6.298h-12.181z" fill="#8c4906"/><g fill="#4dba9d"><use href="#J"/><path d="M929.925-12.015h12.181V.193h-12.181z"/></g><g fill="#fff"><path d="M929.925-1.87h12.181V.193h-12.181zm40.602 0h12.181V.193h-12.181z"/></g></g><g opacity=".4" fill="#009252" class="B"><use href="#K"/><use href="#L"/><path d="M1297.073 31.637a3.12 3.12 0 0 1 .91-2.203c.585-.586 1.375-.915 2.2-.915s1.615.328 2.2.915.91 1.376.91 2.203v11.432h-6.221V31.637z"/><use href="#M"/></g><g opacity=".4" fill="#009252" class="B"><path d="M247.698 91.79a3.12 3.12 0 0 1 .91-2.203c.585-.586 1.375-.915 2.2-.915s1.615.328 2.2.915.91 1.376.91 2.203v2.078a5.19 5.19 0 0 1-5.184 5.196h-1.037v-7.275z"/><use href="#N"/><path d="M241.477 87.633a3.12 3.12 0 0 1 .91-2.203c.585-.586 1.375-.915 2.2-.915s1.615.328 2.2.915.91 1.376.91 2.203v11.432h-6.221V87.633zm-12.442 4.157a3.12 3.12 0 0 1 .91-2.203c.585-.586 1.375-.915 2.2-.915s1.615.328 2.2.915.91 1.376.91 2.203v7.275h-1.037a5.19 5.19 0 0 1-5.184-5.196v-2.078z"/></g><path d="M453.544 104.749a5.62 5.62 0 0 0 5.632-5.628v-5.74h-4.788c-3.111 0-5.633 2.557-5.633 5.627v5.741h4.788z" fill="#e68a3d"/><path d="M786.304 111.022a5.62 5.62 0 0 0-5.628-5.632h-5.74v4.788c0 3.111 2.557 5.633 5.627 5.633h5.741v-4.788z" fill="#a04a0a"/></g></svg>